<?xml version='1.0' encoding='utf-8'?>
<mlt LC_NUMERIC="C" producer="main_bin" version="6.26.1" root="/home/ryankelln/Documents/Projects/Active/Sound_Escapes/Suzy/final">
 <profile frame_rate_num="30" sample_aspect_num="1" display_aspect_den="9" colorspace="709" progressive="1" description="HD 1080p 30 fps" display_aspect_num="16" frame_rate_den="1" width="1920" height="1080" sample_aspect_den="1"/>
 <producer id="2" in="00:00:00.000" out="00:00:09.167">
  <property name="length">276</property>
  <property name="eof">pause</property>
  <property name="resource">/home/ryankelln/Documents/Projects/Active/Sound_Escapes/Suzy/paintings/720_cleaned/winter_homestead.jpg</property>
  <property name="ttl">25</property>
  <property name="aspect_ratio">1</property>
  <property name="progressive">1</property>
  <property name="seekable">1</property>
  <property name="loop">1</property>
  <property name="meta.media.width">936</property>
  <property name="meta.media.height">720</property>
  <property name="mlt_service">pixbuf</property>
  <property name="kdenlive:duration">150</property>
  <property name="kdenlive:file_size">128252</property>
  <property name="kdenlive:file_hash">c4ffacff3d1d8ed6d11420338c8085e8</property>
  <property name="kdenlive:id">2</property>
  <property name="kdenlive:folderid">30</property>
  <property name="global_feed">1</property>
 </producer>
 <producer id="3" in="00:00:00.000" out="00:00:12.600">
  <property name="length">379</property>
  <property name="eof">pause</property>
  <property name="resource">/home/ryankelln/Documents/Projects/Active/Sound_Escapes/Suzy/paintings/720_cleaned/summer_trees.jpg</property>
  <property name="ttl">25</property>
  <property name="aspect_ratio">1</property>
  <property name="progressive">1</property>
  <property name="seekable">1</property>
  <property name="loop">1</property>
  <property name="meta.media.width">908</property>
  <property name="meta.media.height">720</property>
  <property name="mlt_service">pixbuf</property>
  <property name="kdenlive:duration">150</property>
  <property name="kdenlive:file_size">100482</property>
  <property name="kdenlive:file_hash">a5397a65afe6baada1f5bb39e5f2699f</property>
  <property name="kdenlive:id">3</property>
  <property name="kdenlive:folderid">30</property>
 </producer>
 <producer id="4" in="00:00:00.000" out="00:00:12.700">
  <property name="length">382</property>
  <property name="eof">pause</property>
  <property name="resource">/home/ryankelln/Documents/Projects/Active/Sound_Escapes/Suzy/paintings/720_cleaned/stream.jpg</property>
  <property name="ttl">25</property>
  <property name="aspect_ratio">1</property>
  <property name="progressive">1</property>
  <property name="seekable">1</property>
  <property name="loop">1</property>
  <property name="meta.media.width">924</property>
  <property name="meta.media.height">720</property>
  <property name="mlt_service">pixbuf</property>
  <property name="kdenlive:duration">150</property>
  <property name="kdenlive:file_size">113484</property>
  <property name="kdenlive:file_hash">f026b4606009c800bd82d0f4c3ddddc6</property>
  <property name="kdenlive:id">4</property>
  <property name="kdenlive:folderid">30</property>
 </producer>
 <producer id="5" in="00:00:00.000" out="00:00:22.033">
  <property name="length">662</property>
  <property name="eof">pause</property>
  <property name="resource">/home/ryankelln/Documents/Projects/Active/Sound_Escapes/Suzy/paintings/720_cleaned/snowy_fallen_tree.jpg</property>
  <property name="ttl">25</property>
  <property name="aspect_ratio">1</property>
  <property name="progressive">1</property>
  <property name="seekable">1</property>
  <property name="loop">1</property>
  <property name="meta.media.width">912</property>
  <property name="meta.media.height">720</property>
  <property name="mlt_service">pixbuf</property>
  <property name="kdenlive:duration">150</property>
  <property name="kdenlive:file_size">126716</property>
  <property name="kdenlive:file_hash">23706063a1c37ceaddc1e93ca5965735</property>
  <property name="kdenlive:id">5</property>
  <property name="kdenlive:folderid">30</property>
  <property name="global_feed">1</property>
 </producer>
 <producer id="6" in="00:00:00.000" out="00:00:25.967">
  <property name="length">780</property>
  <property name="eof">pause</property>
  <property name="resource">/home/ryankelln/Documents/Projects/Active/Sound_Escapes/Suzy/paintings/720_cleaned/seaman.jpg</property>
  <property name="ttl">25</property>
  <property name="aspect_ratio">1</property>
  <property name="progressive">1</property>
  <property name="seekable">1</property>
  <property name="loop">1</property>
  <property name="meta.media.width">908</property>
  <property name="meta.media.height">720</property>
  <property name="mlt_service">pixbuf</property>
  <property name="kdenlive:duration">150</property>
  <property name="kdenlive:file_size">94755</property>
  <property name="kdenlive:file_hash">5567ada35eb8dd58a8df430bce36b817</property>
  <property name="kdenlive:id">6</property>
  <property name="kdenlive:folderid">30</property>
 </producer>
 <producer id="7" in="00:00:00.000" out="00:00:06.533">
  <property name="length">197</property>
  <property name="eof">pause</property>
  <property name="resource">/home/ryankelln/Documents/Projects/Active/Sound_Escapes/Suzy/paintings/720_cleaned/rowboats.jpg</property>
  <property name="ttl">25</property>
  <property name="aspect_ratio">1</property>
  <property name="progressive">1</property>
  <property name="seekable">1</property>
  <property name="loop">1</property>
  <property name="meta.media.width">912</property>
  <property name="meta.media.height">720</property>
  <property name="mlt_service">pixbuf</property>
  <property name="kdenlive:duration">150</property>
  <property name="kdenlive:file_size">132014</property>
  <property name="kdenlive:file_hash">2edd9f017926f9e99610a94871ed9046</property>
  <property name="kdenlive:id">7</property>
  <property name="kdenlive:folderid">30</property>
 </producer>
 <producer id="8" in="00:00:00.000" out="00:00:15.933">
  <property name="length">479</property>
  <property name="eof">pause</property>
  <property name="resource">/home/ryankelln/Documents/Projects/Active/Sound_Escapes/Suzy/paintings/720_cleaned/rocky_hill.jpg</property>
  <property name="ttl">25</property>
  <property name="aspect_ratio">1</property>
  <property name="progressive">1</property>
  <property name="seekable">1</property>
  <property name="loop">1</property>
  <property name="meta.media.width">912</property>
  <property name="meta.media.height">720</property>
  <property name="mlt_service">pixbuf</property>
  <property name="kdenlive:duration">150</property>
  <property name="kdenlive:file_size">120435</property>
  <property name="kdenlive:file_hash">ccdd1b8001be1e188bcb0a8b5349c0dd</property>
  <property name="kdenlive:id">8</property>
  <property name="kdenlive:folderid">30</property>
 </producer>
 <producer id="9" in="00:00:00.000" out="00:00:04.967">
  <property name="length">150</property>
  <property name="eof">pause</property>
  <property name="resource">/home/ryankelln/Documents/Projects/Active/Sound_Escapes/Suzy/paintings/720_cleaned/river_church.png</property>
  <property name="ttl">25</property>
  <property name="aspect_ratio">1</property>
  <property name="progressive">1</property>
  <property name="seekable">1</property>
  <property name="loop">1</property>
  <property name="meta.media.width">880</property>
  <property name="meta.media.height">720</property>
  <property name="mlt_service">pixbuf</property>
  <property name="kdenlive:duration">150</property>
  <property name="kdenlive:file_size">750154</property>
  <property name="kdenlive:file_hash">ae03394b7fe2c051d847465c16c24b1a</property>
  <property name="kdenlive:id">9</property>
  <property name="kdenlive:folderid">30</property>
 </producer>
 <producer id="10" in="00:00:00.000" out="00:00:08.133">
  <property name="length">245</property>
  <property name="eof">pause</property>
  <property name="resource">/home/ryankelln/Documents/Projects/Active/Sound_Escapes/Suzy/paintings/720_cleaned/river_church.jpg</property>
  <property name="ttl">25</property>
  <property name="aspect_ratio">1</property>
  <property name="progressive">1</property>
  <property name="seekable">1</property>
  <property name="loop">1</property>
  <property name="meta.media.width">892</property>
  <property name="meta.media.height">720</property>
  <property name="mlt_service">pixbuf</property>
  <property name="kdenlive:duration">150</property>
  <property name="kdenlive:file_size">79781</property>
  <property name="kdenlive:file_hash">1bbc3229748a8c7f63c29324b2654ac2</property>
  <property name="kdenlive:id">10</property>
  <property name="kdenlive:folderid">30</property>
 </producer>
 <producer id="11" in="00:00:00.000" out="00:00:15.200">
  <property name="length">457</property>
  <property name="eof">pause</property>
  <property name="resource">/home/ryankelln/Documents/Projects/Active/Sound_Escapes/Suzy/paintings/720_cleaned/reflections.jpg</property>
  <property name="ttl">25</property>
  <property name="aspect_ratio">1</property>
  <property name="progressive">1</property>
  <property name="seekable">1</property>
  <property name="loop">1</property>
  <property name="meta.media.width">932</property>
  <property name="meta.media.height">720</property>
  <property name="mlt_service">pixbuf</property>
  <property name="kdenlive:duration">150</property>
  <property name="kdenlive:file_size">118090</property>
  <property name="kdenlive:file_hash">b87562233ce60e5247710d01bdb717fc</property>
  <property name="kdenlive:id">11</property>
  <property name="kdenlive:folderid">30</property>
 </producer>
 <producer id="12" in="00:00:00.000" out="00:00:04.967">
  <property name="length">150</property>
  <property name="eof">pause</property>
  <property name="resource">/home/ryankelln/Documents/Projects/Active/Sound_Escapes/Suzy/paintings/720_cleaned/portrait.jpg</property>
  <property name="ttl">25</property>
  <property name="aspect_ratio">1</property>
  <property name="progressive">1</property>
  <property name="seekable">1</property>
  <property name="loop">1</property>
  <property name="meta.media.width">572</property>
  <property name="meta.media.height">720</property>
  <property name="mlt_service">pixbuf</property>
  <property name="kdenlive:duration">150</property>
  <property name="kdenlive:file_size">52474</property>
  <property name="kdenlive:file_hash">55bf8d667411d7194e4a24c6266f4d9e</property>
  <property name="kdenlive:zone_in">0</property>
  <property name="kdenlive:zone_out">0</property>
  <property name="kdenlive:id">12</property>
  <property name="kdenlive:folderid">30</property>
 </producer>
 <producer id="13" in="00:00:00.000" out="00:00:05.800">
  <property name="length">175</property>
  <property name="eof">pause</property>
  <property name="resource">/home/ryankelln/Documents/Projects/Active/Sound_Escapes/Suzy/paintings/720_cleaned/garage.jpg</property>
  <property name="ttl">25</property>
  <property name="aspect_ratio">1</property>
  <property name="progressive">1</property>
  <property name="seekable">1</property>
  <property name="loop">1</property>
  <property name="meta.media.width">912</property>
  <property name="meta.media.height">720</property>
  <property name="mlt_service">pixbuf</property>
  <property name="kdenlive:duration">150</property>
  <property name="kdenlive:file_size">121927</property>
  <property name="kdenlive:file_hash">db6cd98094b2939fc0b993a650c92fb5</property>
  <property name="kdenlive:id">13</property>
  <property name="kdenlive:folderid">30</property>
  <property name="global_feed">1</property>
 </producer>
 <producer id="14" in="00:00:00.000" out="00:00:23.900">
  <property name="length">718</property>
  <property name="eof">pause</property>
  <property name="resource">/home/ryankelln/Documents/Projects/Active/Sound_Escapes/Suzy/paintings/720_cleaned/fishing_boats.jpg</property>
  <property name="ttl">25</property>
  <property name="aspect_ratio">1</property>
  <property name="progressive">1</property>
  <property name="seekable">1</property>
  <property name="loop">1</property>
  <property name="meta.media.width">924</property>
  <property name="meta.media.height">720</property>
  <property name="mlt_service">pixbuf</property>
  <property name="kdenlive:duration">150</property>
  <property name="kdenlive:file_size">89121</property>
  <property name="kdenlive:file_hash">ce8336ac7c4ef5ec89aca2d0d243d90f</property>
  <property name="kdenlive:id">14</property>
  <property name="kdenlive:folderid">30</property>
  <property name="global_feed">1</property>
 </producer>
 <producer id="15" in="00:00:00.000" out="00:00:29.133">
  <property name="length">875</property>
  <property name="eof">pause</property>
  <property name="resource">/home/ryankelln/Documents/Projects/Active/Sound_Escapes/Suzy/paintings/720_cleaned/fall_sparkles.jpg</property>
  <property name="ttl">25</property>
  <property name="aspect_ratio">1</property>
  <property name="progressive">1</property>
  <property name="seekable">1</property>
  <property name="loop">1</property>
  <property name="meta.media.width">924</property>
  <property name="meta.media.height">720</property>
  <property name="mlt_service">pixbuf</property>
  <property name="kdenlive:duration">150</property>
  <property name="kdenlive:file_size">101055</property>
  <property name="kdenlive:file_hash">2e163884218d87526e744dd95d203a22</property>
  <property name="kdenlive:id">15</property>
  <property name="kdenlive:folderid">30</property>
 </producer>
 <producer id="16" in="00:00:00.000" out="00:00:26.067">
  <property name="length">783</property>
  <property name="eof">pause</property>
  <property name="resource">/home/ryankelln/Documents/Projects/Active/Sound_Escapes/Suzy/paintings/720_cleaned/fall_shadows.jpg</property>
  <property name="ttl">25</property>
  <property name="aspect_ratio">1</property>
  <property name="progressive">1</property>
  <property name="seekable">1</property>
  <property name="loop">1</property>
  <property name="meta.media.width">908</property>
  <property name="meta.media.height">720</property>
  <property name="mlt_service">pixbuf</property>
  <property name="kdenlive:duration">150</property>
  <property name="kdenlive:file_size">64203</property>
  <property name="kdenlive:file_hash">afd324cda386e79b58f462d73eb39557</property>
  <property name="kdenlive:id">16</property>
  <property name="kdenlive:folderid">30</property>
  <property name="global_feed">1</property>
 </producer>
 <producer id="17" in="00:00:00.000" out="00:00:24.200">
  <property name="length">727</property>
  <property name="eof">pause</property>
  <property name="resource">/home/ryankelln/Documents/Projects/Active/Sound_Escapes/Suzy/paintings/720_cleaned/fall_fence.jpg</property>
  <property name="ttl">25</property>
  <property name="aspect_ratio">1</property>
  <property name="progressive">1</property>
  <property name="seekable">1</property>
  <property name="loop">1</property>
  <property name="meta.media.width">940</property>
  <property name="meta.media.height">720</property>
  <property name="mlt_service">pixbuf</property>
  <property name="kdenlive:duration">150</property>
  <property name="kdenlive:file_size">118140</property>
  <property name="kdenlive:file_hash">1ba0aa7838e20795977f372bb7b8a5ba</property>
  <property name="kdenlive:id">17</property>
  <property name="kdenlive:folderid">30</property>
  <property name="global_feed">1</property>
 </producer>
 <producer id="18" in="00:00:00.000" out="00:00:14.233">
  <property name="length">428</property>
  <property name="eof">pause</property>
  <property name="resource">/home/ryankelln/Documents/Projects/Active/Sound_Escapes/Suzy/paintings/720_cleaned/fall_clouds.jpg</property>
  <property name="ttl">25</property>
  <property name="aspect_ratio">1</property>
  <property name="progressive">1</property>
  <property name="seekable">1</property>
  <property name="loop">1</property>
  <property name="meta.media.width">900</property>
  <property name="meta.media.height">720</property>
  <property name="mlt_service">pixbuf</property>
  <property name="kdenlive:duration">150</property>
  <property name="kdenlive:file_size">107307</property>
  <property name="kdenlive:file_hash">e30ce0a15ad56e4e4c59ae9a21e4e66a</property>
  <property name="kdenlive:id">18</property>
  <property name="kdenlive:folderid">30</property>
 </producer>
 <producer title="Anonymous Submission" id="20" in="00:00:00.000" out="00:06:44.833">
  <property name="length">12146</property>
  <property name="eof">pause</property>
  <property name="resource">/home/ryankelln/Documents/Projects/Active/Sound_Escapes/Suzy/Robbies_Hobbies.mp3</property>
  <property name="audio_index">0</property>
  <property name="video_index">-1</property>
  <property name="mute_on_pause">1</property>
  <property name="mlt_service">avformat-novalidate</property>
  <property name="meta.media.nb_streams">1</property>
  <property name="meta.media.0.stream.type">audio</property>
  <property name="meta.media.0.codec.sample_fmt">fltp</property>
  <property name="meta.media.0.codec.sample_rate">44100</property>
  <property name="meta.media.0.codec.channels">2</property>
  <property name="meta.media.0.codec.name">mp3float</property>
  <property name="meta.media.0.codec.long_name">MP3 (MPEG audio layer 3)</property>
  <property name="meta.media.0.codec.bit_rate">160000</property>
  <property name="meta.attr.TSS.markup">Logic Pro X 10.5.1</property>
  <property name="meta.attr.iTunNORM.markup"> 00000084 00000054 00000FC1 00000BD1 0002BBB1 000323C6 00007F59 00006C8B 00059168 00059168</property>
  <property name="meta.attr.iTunSMPB.markup"> 00000000 00000210 00000B60 0000000001106410 00000000 007B7E49 00000000 00000000 00000000 00000000 00000000 00000000</property>
  <property name="seekable">1</property>
  <property name="kdenlive:file_size">8101533</property>
  <property name="kdenlive:file_hash">9e2de4f385cac598a21bdf85e7530370</property>
  <property name="global_feed">1</property>
  <property name="kdenlive:id">19</property>
  <property name="kdenlive:folderid">30</property>
  <property name="kdenlive:audio_max">1</property>
 </producer>
 <producer title="Anonymous Submission" id="21" in="00:00:00.000" out="00:01:59.967">
  <property name="length">3600</property>
  <property name="eof">pause</property>
  <property name="resource">content/animated_paintings/river_church_animation_interpolation.mp4</property>
  <property name="audio_index">-1</property>
  <property name="video_index">0</property>
  <property name="mute_on_pause">1</property>
  <property name="mlt_service">avformat-novalidate</property>
  <property name="meta.media.nb_streams">1</property>
  <property name="meta.media.0.stream.type">video</property>
  <property name="meta.media.0.stream.frame_rate">24</property>
  <property name="meta.media.0.stream.sample_aspect_ratio">1</property>
  <property name="meta.media.0.codec.width">880</property>
  <property name="meta.media.0.codec.height">720</property>
  <property name="meta.media.0.codec.rotate">0</property>
  <property name="meta.media.0.codec.frame_rate">24</property>
  <property name="meta.media.0.codec.pix_fmt">yuv444p</property>
  <property name="meta.media.0.codec.sample_aspect_ratio">1</property>
  <property name="meta.media.0.codec.colorspace">601</property>
  <property name="meta.media.0.codec.name">h264</property>
  <property name="meta.media.0.codec.long_name">H.264 / AVC / MPEG-4 AVC / MPEG-4 part 10</property>
  <property name="meta.media.0.codec.bit_rate">1224534</property>
  <property name="meta.attr.0.stream.handler_name.markup">VideoHandler</property>
  <property name="meta.attr.major_brand.markup">isom</property>
  <property name="meta.attr.minor_version.markup">512</property>
  <property name="meta.attr.compatible_brands.markup">isomiso2avc1mp41</property>
  <property name="meta.attr.encoder.markup">Lavf58.45.100</property>
  <property name="seekable">1</property>
  <property name="meta.media.sample_aspect_num">1</property>
  <property name="meta.media.sample_aspect_den">1</property>
  <property name="aspect_ratio">1</property>
  <property name="kdenlive:folderid">30</property>
  <property name="meta.media.frame_rate_num">24</property>
  <property name="meta.media.frame_rate_den">1</property>
  <property name="meta.media.colorspace">601</property>
  <property name="meta.media.color_trc">2</property>
  <property name="meta.media.width">880</property>
  <property name="meta.media.height">720</property>
  <property name="meta.media.top_field_first">0</property>
  <property name="meta.media.progressive">1</property>
  <property name="kdenlive:file_size">18393788</property>
  <property name="kdenlive:file_hash">6bc5728639fffb4edc2aa58e922e0992</property>
  <property name="global_feed">1</property>
  <property name="kdenlive:id">20</property>
  <property name="meta.attr.0.stream.vendor_id.markup">[0][0][0][0]</property>
  <property name="meta.media.color_range">mpeg</property>
 </producer>
 <producer title="Anonymous Submission" id="22" in="00:00:00.000" out="00:00:18.500">
  <property name="length">556</property>
  <property name="eof">pause</property>
  <property name="resource">/home/ryankelln/Documents/Projects/Active/Sound_Escapes/Suzy/stock_footage/piano_hands.mp4</property>
  <property name="audio_index">-1</property>
  <property name="video_index">0</property>
  <property name="mute_on_pause">1</property>
  <property name="mlt_service">avformat-novalidate</property>
  <property name="meta.media.nb_streams">1</property>
  <property name="meta.media.0.stream.type">video</property>
  <property name="meta.media.0.stream.frame_rate">25</property>
  <property name="meta.media.0.stream.sample_aspect_ratio">1</property>
  <property name="meta.media.0.codec.width">1920</property>
  <property name="meta.media.0.codec.height">1080</property>
  <property name="meta.media.0.codec.rotate">0</property>
  <property name="meta.media.0.codec.frame_rate">25</property>
  <property name="meta.media.0.codec.pix_fmt">yuv420p</property>
  <property name="meta.media.0.codec.sample_aspect_ratio">1</property>
  <property name="meta.media.0.codec.colorspace">709</property>
  <property name="meta.media.0.codec.color_trc">1</property>
  <property name="meta.media.0.codec.name">h264</property>
  <property name="meta.media.0.codec.long_name">H.264 / AVC / MPEG-4 AVC / MPEG-4 part 10</property>
  <property name="meta.media.0.codec.bit_rate">1886547</property>
  <property name="meta.attr.0.stream.handler_name.markup">ISO Media file produced by Google Inc.</property>
  <property name="meta.attr.major_brand.markup">isom</property>
  <property name="meta.attr.minor_version.markup">512</property>
  <property name="meta.attr.compatible_brands.markup">isomiso2avc1mp41</property>
  <property name="meta.attr.encoder.markup">Lavf58.45.100</property>
  <property name="seekable">1</property>
  <property name="meta.media.sample_aspect_num">1</property>
  <property name="meta.media.sample_aspect_den">1</property>
  <property name="aspect_ratio">1</property>
  <property name="meta.media.frame_rate_num">25</property>
  <property name="meta.media.frame_rate_den">1</property>
  <property name="meta.media.colorspace">709</property>
  <property name="meta.media.color_trc">1</property>
  <property name="meta.media.width">1920</property>
  <property name="meta.media.height">1080</property>
  <property name="meta.media.top_field_first">0</property>
  <property name="meta.media.progressive">1</property>
  <property name="kdenlive:file_size">4354649</property>
  <property name="kdenlive:file_hash">bc862c2cafd3442ecedd0dae8a6524b7</property>
  <property name="global_feed">1</property>
  <property name="kdenlive:id">21</property>
  <property name="meta.attr.0.stream.vendor_id.markup">[0][0][0][0]</property>
  <property name="meta.media.color_range">mpeg</property>
  <property name="kdenlive:folderid">30</property>
 </producer>
 <producer title="Anonymous Submission" id="23" in="00:00:00.000" out="00:00:20.000">
  <property name="length">601</property>
  <property name="eof">pause</property>
  <property name="resource">/home/ryankelln/Documents/Projects/Active/Sound_Escapes/Suzy/stock_footage/dance_test.mp4</property>
  <property name="audio_index">1</property>
  <property name="video_index">0</property>
  <property name="mute_on_pause">1</property>
  <property name="mlt_service">avformat-novalidate</property>
  <property name="meta.media.nb_streams">2</property>
  <property name="meta.media.0.stream.type">video</property>
  <property name="meta.media.0.stream.frame_rate">25</property>
  <property name="meta.media.0.stream.sample_aspect_ratio">1</property>
  <property name="meta.media.0.codec.width">360</property>
  <property name="meta.media.0.codec.height">240</property>
  <property name="meta.media.0.codec.rotate">0</property>
  <property name="meta.media.0.codec.frame_rate">25</property>
  <property name="meta.media.0.codec.pix_fmt">yuv420p</property>
  <property name="meta.media.0.codec.sample_aspect_ratio">1</property>
  <property name="meta.media.0.codec.colorspace">601</property>
  <property name="meta.media.0.codec.name">h264</property>
  <property name="meta.media.0.codec.long_name">H.264 / AVC / MPEG-4 AVC / MPEG-4 part 10</property>
  <property name="meta.media.0.codec.bit_rate">432806</property>
  <property name="meta.attr.0.stream.handler_name.markup">VideoHandler</property>
  <property name="meta.media.1.stream.type">audio</property>
  <property name="meta.media.1.codec.sample_fmt">fltp</property>
  <property name="meta.media.1.codec.sample_rate">48000</property>
  <property name="meta.media.1.codec.channels">2</property>
  <property name="meta.media.1.codec.name">aac</property>
  <property name="meta.media.1.codec.long_name">AAC (Advanced Audio Coding)</property>
  <property name="meta.media.1.codec.bit_rate">128340</property>
  <property name="meta.attr.1.stream.language.markup">eng</property>
  <property name="meta.attr.1.stream.handler_name.markup">SoundHandler</property>
  <property name="meta.attr.major_brand.markup">isom</property>
  <property name="meta.attr.minor_version.markup">512</property>
  <property name="meta.attr.compatible_brands.markup">isomiso2avc1mp41</property>
  <property name="meta.attr.encoder.markup">Lavf58.45.100</property>
  <property name="seekable">1</property>
  <property name="meta.media.sample_aspect_num">1</property>
  <property name="meta.media.sample_aspect_den">1</property>
  <property name="aspect_ratio">1</property>
  <property name="kdenlive:file_size">2128481</property>
  <property name="kdenlive:file_hash">5bda6d200f227feeea6202678f520217</property>
  <property name="global_feed">1</property>
  <property name="meta.media.frame_rate_num">25</property>
  <property name="meta.media.frame_rate_den">1</property>
  <property name="meta.media.colorspace">601</property>
  <property name="meta.media.color_trc">2</property>
  <property name="meta.media.width">360</property>
  <property name="meta.media.height">240</property>
  <property name="meta.media.top_field_first">0</property>
  <property name="meta.media.progressive">1</property>
  <property name="kdenlive:id">22</property>
  <property name="meta.attr.0.stream.vendor_id.markup">[0][0][0][0]</property>
  <property name="meta.attr.1.stream.vendor_id.markup">[0][0][0][0]</property>
  <property name="meta.media.color_range">mpeg</property>
  <property name="kdenlive:folderid">30</property>
  <property name="kdenlive:audio_max">1</property>
 </producer>
 <producer title="Anonymous Submission" id="24" in="00:00:00.000" out="00:00:17.167">
  <property name="length">516</property>
  <property name="eof">pause</property>
  <property name="resource">/home/ryankelln/Documents/Projects/Active/Sound_Escapes/Suzy/paino_field_composite_test_03.mp4</property>
  <property name="audio_index">1</property>
  <property name="video_index">0</property>
  <property name="mute_on_pause">1</property>
  <property name="mlt_service">avformat-novalidate</property>
  <property name="meta.media.nb_streams">2</property>
  <property name="meta.media.0.stream.type">video</property>
  <property name="meta.media.0.stream.frame_rate">24</property>
  <property name="meta.media.0.stream.sample_aspect_ratio">1</property>
  <property name="meta.media.0.codec.width">640</property>
  <property name="meta.media.0.codec.height">360</property>
  <property name="meta.media.0.codec.rotate">0</property>
  <property name="meta.media.0.codec.frame_rate">24</property>
  <property name="meta.media.0.codec.pix_fmt">yuv420p</property>
  <property name="meta.media.0.codec.sample_aspect_ratio">1</property>
  <property name="meta.media.0.codec.colorspace">601</property>
  <property name="meta.media.0.codec.color_trc">6</property>
  <property name="meta.media.0.codec.name">h264</property>
  <property name="meta.media.0.codec.long_name">H.264 / AVC / MPEG-4 AVC / MPEG-4 part 10</property>
  <property name="meta.media.0.codec.bit_rate">1134082</property>
  <property name="meta.attr.0.stream.handler_name.markup">VideoHandler</property>
  <property name="meta.media.1.stream.type">audio</property>
  <property name="meta.media.1.codec.sample_fmt">fltp</property>
  <property name="meta.media.1.codec.sample_rate">48000</property>
  <property name="meta.media.1.codec.channels">2</property>
  <property name="meta.media.1.codec.name">aac</property>
  <property name="meta.media.1.codec.long_name">AAC (Advanced Audio Coding)</property>
  <property name="meta.media.1.codec.bit_rate">2281</property>
  <property name="meta.attr.1.stream.handler_name.markup">SoundHandler</property>
  <property name="meta.attr.major_brand.markup">isom</property>
  <property name="meta.attr.minor_version.markup">512</property>
  <property name="meta.attr.compatible_brands.markup">isomiso2avc1mp41</property>
  <property name="meta.attr.encoder.markup">Lavf58.45.100</property>
  <property name="seekable">1</property>
  <property name="meta.media.sample_aspect_num">1</property>
  <property name="meta.media.sample_aspect_den">1</property>
  <property name="aspect_ratio">1</property>
  <property name="meta.media.frame_rate_num">24</property>
  <property name="meta.media.frame_rate_den">1</property>
  <property name="meta.media.colorspace">601</property>
  <property name="meta.media.color_trc">6</property>
  <property name="meta.media.width">640</property>
  <property name="meta.media.height">360</property>
  <property name="meta.media.top_field_first">0</property>
  <property name="meta.media.progressive">1</property>
  <property name="kdenlive:file_size">2451023</property>
  <property name="kdenlive:file_hash">8a9095bce6e01c35f0fd10cd74583370</property>
  <property name="global_feed">1</property>
  <property name="kdenlive:id">23</property>
  <property name="meta.attr.0.stream.vendor_id.markup">[0][0][0][0]</property>
  <property name="meta.attr.1.stream.vendor_id.markup">[0][0][0][0]</property>
  <property name="meta.media.color_range">mpeg</property>
  <property name="kdenlive:folderid">30</property>
  <property name="kdenlive:audio_max">91</property>
  <property name="kdenlive:active_streams">-1</property>
 </producer>
 <producer title="Anonymous Submission" id="25" in="00:00:00.000" out="00:00:17.233">
  <property name="length">518</property>
  <property name="eof">pause</property>
  <property name="resource">/home/ryankelln/Documents/Projects/Active/Sound_Escapes/Suzy/ReReVST-fall_clouds-presquille_420.avi</property>
  <property name="audio_index">-1</property>
  <property name="video_index">0</property>
  <property name="mute_on_pause">1</property>
  <property name="mlt_service">avformat-novalidate</property>
  <property name="meta.media.nb_streams">1</property>
  <property name="meta.media.0.stream.type">video</property>
  <property name="meta.media.0.stream.frame_rate">24</property>
  <property name="meta.media.0.stream.sample_aspect_ratio">0</property>
  <property name="meta.media.0.codec.width">746</property>
  <property name="meta.media.0.codec.height">420</property>
  <property name="meta.media.0.codec.rotate">0</property>
  <property name="meta.media.0.codec.frame_rate">24</property>
  <property name="meta.media.0.codec.pix_fmt">yuvj420p</property>
  <property name="meta.media.0.codec.sample_aspect_ratio">0</property>
  <property name="meta.media.0.codec.colorspace">601</property>
  <property name="meta.media.0.codec.name">mjpeg</property>
  <property name="meta.media.0.codec.long_name">MJPEG (Motion JPEG)</property>
  <property name="meta.media.0.codec.bit_rate">9599991</property>
  <property name="meta.attr.encoder.markup">Lavf58.61.100</property>
  <property name="seekable">1</property>
  <property name="meta.media.sample_aspect_num">1</property>
  <property name="meta.media.sample_aspect_den">1</property>
  <property name="aspect_ratio">1</property>
  <property name="meta.media.frame_rate_num">24</property>
  <property name="meta.media.frame_rate_den">1</property>
  <property name="meta.media.colorspace">601</property>
  <property name="meta.media.color_trc">2</property>
  <property name="meta.media.width">746</property>
  <property name="meta.media.height">420</property>
  <property name="meta.media.top_field_first">0</property>
  <property name="meta.media.progressive">1</property>
  <property name="kdenlive:file_size">20665834</property>
  <property name="kdenlive:file_hash">04f18a230a06a1bf8ee4ae879280284a</property>
  <property name="global_feed">1</property>
  <property name="kdenlive:id">24</property>
  <property name="meta.attr.software.markup">Lavf58.61.100</property>
  <property name="meta.media.color_range">full</property>
  <property name="kdenlive:folderid">30</property>
 </producer>
 <producer title="Anonymous Submission" id="28" in="00:00:00.000" out="00:08:54.400">
  <property name="length">16033</property>
  <property name="eof">pause</property>
  <property name="resource">/home/ryankelln/Documents/Projects/Active/Sound_Escapes/Suzy/stock_footage/Dayattheriver_1928.mp4</property>
  <property name="audio_index">1</property>
  <property name="video_index">0</property>
  <property name="mute_on_pause">1</property>
  <property name="mlt_service">avformat-novalidate</property>
  <property name="meta.media.nb_streams">2</property>
  <property name="meta.media.0.stream.type">video</property>
  <property name="meta.media.0.stream.frame_rate">29.97</property>
  <property name="meta.media.0.stream.sample_aspect_ratio">0</property>
  <property name="meta.media.0.codec.width">640</property>
  <property name="meta.media.0.codec.height">480</property>
  <property name="meta.media.0.codec.rotate">0</property>
  <property name="meta.media.0.codec.frame_rate">29.97</property>
  <property name="meta.media.0.codec.pix_fmt">yuv420p</property>
  <property name="meta.media.0.codec.sample_aspect_ratio">1</property>
  <property name="meta.media.0.codec.colorspace">601</property>
  <property name="meta.media.0.codec.name">h264</property>
  <property name="meta.media.0.codec.long_name">H.264 / AVC / MPEG-4 AVC / MPEG-4 part 10</property>
  <property name="meta.media.0.codec.bit_rate">696996</property>
  <property name="meta.attr.0.stream.handler_name.markup">VideoHandler</property>
  <property name="meta.media.1.stream.type">audio</property>
  <property name="meta.media.1.codec.sample_fmt">fltp</property>
  <property name="meta.media.1.codec.sample_rate">44100</property>
  <property name="meta.media.1.codec.channels">2</property>
  <property name="meta.media.1.codec.name">aac</property>
  <property name="meta.media.1.codec.long_name">AAC (Advanced Audio Coding)</property>
  <property name="meta.media.1.codec.bit_rate">128534</property>
  <property name="meta.attr.1.stream.handler_name.markup">SoundHandler</property>
  <property name="meta.attr.major_brand.markup">isom</property>
  <property name="meta.attr.minor_version.markup">512</property>
  <property name="meta.attr.compatible_brands.markup">isomiso2avc1mp41</property>
  <property name="meta.attr.title.markup">Day at the River: A Film Lesson in Nature Study, A - https://archive.org/details/Dayatthe1928</property>
  <property name="meta.attr.encoder.markup">Lavf57.21.101</property>
  <property name="meta.attr.comment.markup">license:http://creativecommons.org/licenses/publicdomain/</property>
  <property name="seekable">1</property>
  <property name="meta.media.sample_aspect_num">1</property>
  <property name="meta.media.sample_aspect_den">1</property>
  <property name="aspect_ratio">1</property>
  <property name="meta.media.frame_rate_num">30000</property>
  <property name="meta.media.frame_rate_den">1001</property>
  <property name="meta.media.colorspace">601</property>
  <property name="meta.media.color_trc">2</property>
  <property name="meta.media.width">640</property>
  <property name="meta.media.height">480</property>
  <property name="meta.media.top_field_first">0</property>
  <property name="meta.media.progressive">1</property>
  <property name="kdenlive:file_size">55598649</property>
  <property name="kdenlive:file_hash">e44bc98d69a73c0358b5b0b3ef411e67</property>
  <property name="global_feed">1</property>
  <property name="kdenlive:id">25</property>
  <property name="meta.attr.0.stream.vendor_id.markup">[0][0][0][0]</property>
  <property name="meta.attr.1.stream.vendor_id.markup">[0][0][0][0]</property>
  <property name="meta.media.color_range">mpeg</property>
  <property name="kdenlive:folderid">30</property>
  <property name="kdenlive:audio_max">6</property>
 </producer>
 <producer title="Anonymous Submission" id="29" in="00:00:00.000" out="00:00:37.967">
  <property name="length">1140</property>
  <property name="eof">pause</property>
  <property name="resource">/home/ryankelln/Documents/Projects/Active/Sound_Escapes/Suzy/stock_footage/OaklandWomensRowing_1950.mp4</property>
  <property name="audio_index">1</property>
  <property name="video_index">0</property>
  <property name="mute_on_pause">1</property>
  <property name="mlt_service">avformat-novalidate</property>
  <property name="meta.media.nb_streams">2</property>
  <property name="meta.media.0.stream.type">video</property>
  <property name="meta.media.0.stream.frame_rate">29.97</property>
  <property name="meta.media.0.stream.sample_aspect_ratio">0</property>
  <property name="meta.media.0.codec.width">640</property>
  <property name="meta.media.0.codec.height">480</property>
  <property name="meta.media.0.codec.rotate">0</property>
  <property name="meta.media.0.codec.frame_rate">29.97</property>
  <property name="meta.media.0.codec.pix_fmt">yuv420p</property>
  <property name="meta.media.0.codec.sample_aspect_ratio">1</property>
  <property name="meta.media.0.codec.colorspace">601</property>
  <property name="meta.media.0.codec.name">h264</property>
  <property name="meta.media.0.codec.long_name">H.264 / AVC / MPEG-4 AVC / MPEG-4 part 10</property>
  <property name="meta.media.0.codec.bit_rate">702584</property>
  <property name="meta.attr.0.stream.handler_name.markup">VideoHandler</property>
  <property name="meta.media.1.stream.type">audio</property>
  <property name="meta.media.1.codec.sample_fmt">fltp</property>
  <property name="meta.media.1.codec.sample_rate">44100</property>
  <property name="meta.media.1.codec.channels">2</property>
  <property name="meta.media.1.codec.name">aac</property>
  <property name="meta.media.1.codec.long_name">AAC (Advanced Audio Coding)</property>
  <property name="meta.media.1.codec.bit_rate">128320</property>
  <property name="meta.attr.1.stream.handler_name.markup">SoundHandler</property>
  <property name="meta.attr.major_brand.markup">isom</property>
  <property name="meta.attr.minor_version.markup">512</property>
  <property name="meta.attr.compatible_brands.markup">isomiso2avc1mp41</property>
  <property name="meta.attr.title.markup">[Oakland Womens Rowing Club] - https://archive.org/details/OaklandW1950</property>
  <property name="meta.attr.encoder.markup">Lavf57.21.101</property>
  <property name="meta.attr.comment.markup">license:http://creativecommons.org/licenses/publicdomain/</property>
  <property name="seekable">1</property>
  <property name="meta.media.sample_aspect_num">1</property>
  <property name="meta.media.sample_aspect_den">1</property>
  <property name="aspect_ratio">1</property>
  <property name="meta.media.frame_rate_num">30000</property>
  <property name="meta.media.frame_rate_den">1001</property>
  <property name="meta.media.colorspace">601</property>
  <property name="meta.media.color_trc">2</property>
  <property name="meta.media.width">640</property>
  <property name="meta.media.height">480</property>
  <property name="meta.media.top_field_first">0</property>
  <property name="meta.media.progressive">1</property>
  <property name="kdenlive:file_size">3970474</property>
  <property name="kdenlive:file_hash">e085ae807250edadb322ba1498274756</property>
  <property name="global_feed">1</property>
  <property name="kdenlive:id">26</property>
  <property name="meta.attr.0.stream.vendor_id.markup">[0][0][0][0]</property>
  <property name="meta.attr.1.stream.vendor_id.markup">[0][0][0][0]</property>
  <property name="meta.media.color_range">mpeg</property>
  <property name="kdenlive:folderid">30</property>
  <property name="kdenlive:audio_max">19</property>
 </producer>
 <producer title="Anonymous Submission" id="30" in="00:00:00.000" out="00:00:09.833">
  <property name="length">296</property>
  <property name="eof">pause</property>
  <property name="resource"/>
  <property name="progressive">1</property>
  <property name="aspect_ratio">1</property>
  <property name="seekable">1</property>
  <property name="mlt_service">kdenlivetitle</property>
  <property name="kdenlive:clipname">Title clip</property>
  <property name="kdenlive:folderid">30</property>
  <property name="xmldata">&lt;kdenlivetitle duration="150" LC_NUMERIC="en_CA.UTF-8" width="1920" height="1080" out="150">
 &lt;item type="QGraphicsTextItem" z-index="0">
  &lt;position x="492" y="425">
   &lt;transform>1,0,0,0,1,0,0,0,1&lt;/transform>
  &lt;/position>
  &lt;content line-spacing="0" shadow="0;#64000000;3;3;3" font-underline="0" box-height="230" font-outline-color="0,0,0,255" font="Ubuntu" letter-spacing="0" font-pixel-size="200" font-italic="0" alignment="4" font-weight="50" font-outline="0" box-width="935.344" font-color="243,243,243,255">Piano solo&lt;/content>
 &lt;/item>
 &lt;startviewport rect="0,0,1920,1080"/>
 &lt;endviewport rect="0,0,1920,1080"/>
 &lt;background color="0,0,0,0"/>
&lt;/kdenlivetitle>
</property>
  <property name="kdenlive:duration">150</property>
  <property name="force_reload">0</property>
  <property name="meta.media.width">1920</property>
  <property name="meta.media.height">1080</property>
  <property name="kdenlive:file_hash">e389631918cfd270e2f6faf28515ee6e</property>
  <property name="global_feed">1</property>
  <property name="kdenlive:id">27</property>
 </producer>
 <producer title="Anonymous Submission" id="31" in="00:00:00.000" out="00:00:33.667">
  <property name="length">1011</property>
  <property name="eof">pause</property>
  <property name="resource"/>
  <property name="progressive">1</property>
  <property name="aspect_ratio">1</property>
  <property name="seekable">1</property>
  <property name="mlt_service">kdenlivetitle</property>
  <property name="kdenlive:clipname">Drum solo</property>
  <property name="kdenlive:folderid">30</property>
  <property name="xmldata">&lt;kdenlivetitle duration="150" LC_NUMERIC="C" width="1920" height="1080" out="149">
 &lt;item type="QGraphicsTextItem" z-index="0">
  &lt;position x="700" y="80">
   &lt;transform>1,0,0,0,1,0,0,0,1&lt;/transform>
  &lt;/position>
  &lt;content line-spacing="0" shadow="0;#64000000;3;3;3" font-underline="0" box-height="460" font="Ubuntu" letter-spacing="0" font-pixel-size="200" font-italic="0" typewriter="0;2;1;0;0" alignment="4" font-weight="50" box-width="506.766" font-color="243,243,243,255">Drum
 solo&lt;/content>
 &lt;/item>
 &lt;startviewport rect="0,0,1920,1080"/>
 &lt;endviewport rect="0,0,1920,1080"/>
 &lt;background color="0,0,0,0"/>
&lt;/kdenlivetitle>
</property>
  <property name="kdenlive:duration">150</property>
  <property name="force_reload">0</property>
  <property name="kdenlive:file_hash">e389631918cfd270e2f6faf28515ee6e</property>
  <property name="global_feed">1</property>
  <property name="meta.media.width">1920</property>
  <property name="meta.media.height">1080</property>
  <property name="kdenlive:id">28</property>
 </producer>
 <producer title="Anonymous Submission" id="32" in="00:00:00.000" out="00:00:06.667">
  <property name="length">201</property>
  <property name="eof">pause</property>
  <property name="resource">/home/ryankelln/Documents/Projects/Active/Sound_Escapes/Suzy/animated_landscapes/fishing_boats_motion_mz0.2.avi</property>
  <property name="audio_index">-1</property>
  <property name="video_index">0</property>
  <property name="mute_on_pause">1</property>
  <property name="mlt_service">avformat-novalidate</property>
  <property name="meta.media.nb_streams">1</property>
  <property name="meta.media.0.stream.type">video</property>
  <property name="meta.media.0.stream.frame_rate">30</property>
  <property name="meta.media.0.stream.sample_aspect_ratio">0</property>
  <property name="meta.media.0.codec.width">924</property>
  <property name="meta.media.0.codec.height">720</property>
  <property name="meta.media.0.codec.rotate">0</property>
  <property name="meta.media.0.codec.frame_rate">30</property>
  <property name="meta.media.0.codec.pix_fmt">yuv420p</property>
  <property name="meta.media.0.codec.sample_aspect_ratio">1</property>
  <property name="meta.media.0.codec.colorspace">601</property>
  <property name="meta.media.0.codec.name">mpeg4</property>
  <property name="meta.media.0.codec.long_name">MPEG-4 part 2</property>
  <property name="meta.media.0.codec.bit_rate">8588186</property>
  <property name="meta.attr.encoder.markup">Lavf58.61.100</property>
  <property name="seekable">1</property>
  <property name="meta.media.sample_aspect_num">1</property>
  <property name="meta.media.sample_aspect_den">1</property>
  <property name="aspect_ratio">1</property>
  <property name="meta.media.frame_rate_num">30</property>
  <property name="meta.media.frame_rate_den">1</property>
  <property name="meta.media.colorspace">601</property>
  <property name="meta.media.color_trc">2</property>
  <property name="meta.media.width">924</property>
  <property name="meta.media.height">720</property>
  <property name="meta.media.top_field_first">0</property>
  <property name="meta.media.progressive">1</property>
  <property name="kdenlive:file_size">7167430</property>
  <property name="kdenlive:file_hash">b3d80abe47fa2f495415b743bd6b0bb0</property>
  <property name="global_feed">1</property>
  <property name="kdenlive:id">29</property>
  <property name="meta.attr.software.markup">Lavf58.61.100</property>
  <property name="meta.media.color_range">mpeg</property>
  <property name="kdenlive:folderid">30</property>
 </producer>
 <producer id="producer17" in="00:00:00.000" out="00:00:39.733">
  <property name="length">1193</property>
  <property name="eof">pause</property>
  <property name="resource">content/consingan_paintings/fall_clouds_1.mp4</property>
  <property name="audio_index">-1</property>
  <property name="video_index">0</property>
  <property name="mute_on_pause">0</property>
  <property name="mlt_service">avformat-novalidate</property>
  <property name="seekable">1</property>
  <property name="aspect_ratio">1</property>
  <property name="kdenlive:clipname">fall_clouds_1.mp4</property>
  <property name="kdenlive:folderid">31</property>
  <property name="kdenlive:id">32</property>
  <property name="kdenlive:file_size">11760661</property>
  <property name="global_feed">1</property>
  <property name="meta.media.nb_streams">1</property>
  <property name="meta.media.0.stream.type">video</property>
  <property name="meta.media.0.stream.frame_rate">30</property>
  <property name="meta.media.0.stream.sample_aspect_ratio">0</property>
  <property name="meta.media.0.codec.width">912</property>
  <property name="meta.media.0.codec.height">720</property>
  <property name="meta.media.0.codec.rotate">0</property>
  <property name="meta.media.0.codec.frame_rate">30</property>
  <property name="meta.media.0.codec.pix_fmt">yuv420p</property>
  <property name="meta.media.0.codec.sample_aspect_ratio">0</property>
  <property name="meta.media.0.codec.colorspace">601</property>
  <property name="meta.media.0.codec.name">h264</property>
  <property name="meta.media.0.codec.long_name">H.264 / AVC / MPEG-4 AVC / MPEG-4 part 10</property>
  <property name="meta.media.0.codec.bit_rate">2362855</property>
  <property name="meta.attr.0.stream.handler_name.markup">VideoHandler</property>
  <property name="meta.attr.major_brand.markup">isom</property>
  <property name="meta.attr.minor_version.markup">512</property>
  <property name="meta.attr.compatible_brands.markup">isomiso2avc1mp41</property>
  <property name="meta.attr.encoder.markup">Lavf58.29.100</property>
  <property name="meta.media.sample_aspect_num">1</property>
  <property name="meta.media.sample_aspect_den">1</property>
  <property name="meta.media.frame_rate_num">30</property>
  <property name="meta.media.frame_rate_den">1</property>
  <property name="meta.media.colorspace">601</property>
  <property name="meta.media.color_trc">2</property>
  <property name="meta.media.width">912</property>
  <property name="meta.media.height">720</property>
  <property name="meta.media.color_range">mpeg</property>
  <property name="kdenlive:file_hash">d0250e271ff31ce143884a34c91ce0e3</property>
  <property name="meta.media.top_field_first">0</property>
  <property name="meta.media.progressive">1</property>
 </producer>
 <producer id="producer18" in="00:00:00.000" out="00:00:39.733">
  <property name="length">1193</property>
  <property name="eof">pause</property>
  <property name="resource">content/consingan_paintings/fall_clouds_2.mp4</property>
  <property name="audio_index">-1</property>
  <property name="video_index">0</property>
  <property name="mute_on_pause">0</property>
  <property name="mlt_service">avformat-novalidate</property>
  <property name="seekable">1</property>
  <property name="aspect_ratio">1</property>
  <property name="kdenlive:clipname">fall_clouds_2.mp4</property>
  <property name="kdenlive:folderid">31</property>
  <property name="kdenlive:id">33</property>
  <property name="kdenlive:file_size">8981600</property>
  <property name="global_feed">1</property>
  <property name="meta.media.nb_streams">1</property>
  <property name="meta.media.0.stream.type">video</property>
  <property name="meta.media.0.stream.frame_rate">30</property>
  <property name="meta.media.0.stream.sample_aspect_ratio">0</property>
  <property name="meta.media.0.codec.width">912</property>
  <property name="meta.media.0.codec.height">720</property>
  <property name="meta.media.0.codec.rotate">0</property>
  <property name="meta.media.0.codec.frame_rate">30</property>
  <property name="meta.media.0.codec.pix_fmt">yuv420p</property>
  <property name="meta.media.0.codec.sample_aspect_ratio">0</property>
  <property name="meta.media.0.codec.colorspace">601</property>
  <property name="meta.media.0.codec.name">h264</property>
  <property name="meta.media.0.codec.long_name">H.264 / AVC / MPEG-4 AVC / MPEG-4 part 10</property>
  <property name="meta.media.0.codec.bit_rate">1803789</property>
  <property name="meta.attr.0.stream.handler_name.markup">VideoHandler</property>
  <property name="meta.attr.major_brand.markup">isom</property>
  <property name="meta.attr.minor_version.markup">512</property>
  <property name="meta.attr.compatible_brands.markup">isomiso2avc1mp41</property>
  <property name="meta.attr.encoder.markup">Lavf58.29.100</property>
  <property name="meta.media.sample_aspect_num">1</property>
  <property name="meta.media.sample_aspect_den">1</property>
  <property name="meta.media.frame_rate_num">30</property>
  <property name="meta.media.frame_rate_den">1</property>
  <property name="meta.media.colorspace">601</property>
  <property name="meta.media.color_trc">2</property>
  <property name="meta.media.width">912</property>
  <property name="meta.media.height">720</property>
  <property name="meta.media.color_range">mpeg</property>
  <property name="kdenlive:file_hash">c2fcd70760c77c8044e5bf85db4cf3ad</property>
  <property name="meta.media.top_field_first">0</property>
  <property name="meta.media.progressive">1</property>
 </producer>
 <producer id="producer19" in="00:00:00.000" out="00:00:39.733">
  <property name="length">1193</property>
  <property name="eof">pause</property>
  <property name="resource">content/consingan_paintings/fall_fence_1.mp4</property>
  <property name="audio_index">-1</property>
  <property name="video_index">0</property>
  <property name="mute_on_pause">0</property>
  <property name="mlt_service">avformat-novalidate</property>
  <property name="seekable">1</property>
  <property name="aspect_ratio">1</property>
  <property name="kdenlive:clipname">fall_fence_1.mp4</property>
  <property name="kdenlive:folderid">31</property>
  <property name="kdenlive:id">34</property>
  <property name="kdenlive:file_size">7498621</property>
  <property name="global_feed">1</property>
  <property name="meta.media.nb_streams">1</property>
  <property name="meta.media.0.stream.type">video</property>
  <property name="meta.media.0.stream.frame_rate">30</property>
  <property name="meta.media.0.stream.sample_aspect_ratio">0</property>
  <property name="meta.media.0.codec.width">944</property>
  <property name="meta.media.0.codec.height">720</property>
  <property name="meta.media.0.codec.rotate">0</property>
  <property name="meta.media.0.codec.frame_rate">30</property>
  <property name="meta.media.0.codec.pix_fmt">yuv420p</property>
  <property name="meta.media.0.codec.sample_aspect_ratio">0</property>
  <property name="meta.media.0.codec.colorspace">601</property>
  <property name="meta.media.0.codec.name">h264</property>
  <property name="meta.media.0.codec.long_name">H.264 / AVC / MPEG-4 AVC / MPEG-4 part 10</property>
  <property name="meta.media.0.codec.bit_rate">1505456</property>
  <property name="meta.attr.0.stream.handler_name.markup">VideoHandler</property>
  <property name="meta.attr.major_brand.markup">isom</property>
  <property name="meta.attr.minor_version.markup">512</property>
  <property name="meta.attr.compatible_brands.markup">isomiso2avc1mp41</property>
  <property name="meta.attr.encoder.markup">Lavf58.29.100</property>
  <property name="meta.media.sample_aspect_num">1</property>
  <property name="meta.media.sample_aspect_den">1</property>
  <property name="meta.media.frame_rate_num">30</property>
  <property name="meta.media.frame_rate_den">1</property>
  <property name="meta.media.colorspace">601</property>
  <property name="meta.media.color_trc">2</property>
  <property name="meta.media.width">944</property>
  <property name="meta.media.height">720</property>
  <property name="meta.media.color_range">mpeg</property>
  <property name="kdenlive:file_hash">ec641a1dcd886a97d6745e190970c512</property>
  <property name="meta.media.top_field_first">0</property>
  <property name="meta.media.progressive">1</property>
 </producer>
 <producer id="producer20" in="00:00:00.000" out="00:00:39.733">
  <property name="length">1193</property>
  <property name="eof">pause</property>
  <property name="resource">content/consingan_paintings/fall_fence_2.mp4</property>
  <property name="audio_index">-1</property>
  <property name="video_index">0</property>
  <property name="mute_on_pause">0</property>
  <property name="mlt_service">avformat-novalidate</property>
  <property name="seekable">1</property>
  <property name="aspect_ratio">1</property>
  <property name="kdenlive:clipname">fall_fence_2.mp4</property>
  <property name="kdenlive:folderid">31</property>
  <property name="kdenlive:id">35</property>
  <property name="kdenlive:file_size">6393076</property>
  <property name="global_feed">1</property>
  <property name="meta.media.nb_streams">1</property>
  <property name="meta.media.0.stream.type">video</property>
  <property name="meta.media.0.stream.frame_rate">30</property>
  <property name="meta.media.0.stream.sample_aspect_ratio">0</property>
  <property name="meta.media.0.codec.width">944</property>
  <property name="meta.media.0.codec.height">720</property>
  <property name="meta.media.0.codec.rotate">0</property>
  <property name="meta.media.0.codec.frame_rate">30</property>
  <property name="meta.media.0.codec.pix_fmt">yuv420p</property>
  <property name="meta.media.0.codec.sample_aspect_ratio">0</property>
  <property name="meta.media.0.codec.colorspace">601</property>
  <property name="meta.media.0.codec.name">h264</property>
  <property name="meta.media.0.codec.long_name">H.264 / AVC / MPEG-4 AVC / MPEG-4 part 10</property>
  <property name="meta.media.0.codec.bit_rate">1283056</property>
  <property name="meta.attr.0.stream.handler_name.markup">VideoHandler</property>
  <property name="meta.attr.major_brand.markup">isom</property>
  <property name="meta.attr.minor_version.markup">512</property>
  <property name="meta.attr.compatible_brands.markup">isomiso2avc1mp41</property>
  <property name="meta.attr.encoder.markup">Lavf58.29.100</property>
  <property name="meta.media.sample_aspect_num">1</property>
  <property name="meta.media.sample_aspect_den">1</property>
  <property name="meta.media.frame_rate_num">30</property>
  <property name="meta.media.frame_rate_den">1</property>
  <property name="meta.media.colorspace">601</property>
  <property name="meta.media.color_trc">2</property>
  <property name="meta.media.width">944</property>
  <property name="meta.media.height">720</property>
  <property name="meta.media.color_range">mpeg</property>
  <property name="kdenlive:file_hash">3d80306b87607012f8aab759b4735cc1</property>
  <property name="meta.media.top_field_first">0</property>
  <property name="meta.media.progressive">1</property>
 </producer>
 <producer id="producer21" in="00:00:00.000" out="00:00:39.733">
  <property name="length">1193</property>
  <property name="eof">pause</property>
  <property name="resource">content/consingan_paintings/fall_shadows_1.mp4</property>
  <property name="audio_index">-1</property>
  <property name="video_index">0</property>
  <property name="mute_on_pause">0</property>
  <property name="mlt_service">avformat-novalidate</property>
  <property name="seekable">1</property>
  <property name="aspect_ratio">1</property>
  <property name="kdenlive:clipname">fall_shadows_1.mp4</property>
  <property name="kdenlive:folderid">31</property>
  <property name="kdenlive:id">36</property>
  <property name="kdenlive:file_size">3736874</property>
  <property name="global_feed">1</property>
  <property name="meta.media.nb_streams">1</property>
  <property name="meta.media.0.stream.type">video</property>
  <property name="meta.media.0.stream.frame_rate">30</property>
  <property name="meta.media.0.stream.sample_aspect_ratio">0</property>
  <property name="meta.media.0.codec.width">912</property>
  <property name="meta.media.0.codec.height">720</property>
  <property name="meta.media.0.codec.rotate">0</property>
  <property name="meta.media.0.codec.frame_rate">30</property>
  <property name="meta.media.0.codec.pix_fmt">yuv420p</property>
  <property name="meta.media.0.codec.sample_aspect_ratio">0</property>
  <property name="meta.media.0.codec.colorspace">601</property>
  <property name="meta.media.0.codec.name">h264</property>
  <property name="meta.media.0.codec.long_name">H.264 / AVC / MPEG-4 AVC / MPEG-4 part 10</property>
  <property name="meta.media.0.codec.bit_rate">748705</property>
  <property name="meta.attr.0.stream.handler_name.markup">VideoHandler</property>
  <property name="meta.attr.major_brand.markup">isom</property>
  <property name="meta.attr.minor_version.markup">512</property>
  <property name="meta.attr.compatible_brands.markup">isomiso2avc1mp41</property>
  <property name="meta.attr.encoder.markup">Lavf58.29.100</property>
  <property name="meta.media.sample_aspect_num">1</property>
  <property name="meta.media.sample_aspect_den">1</property>
  <property name="meta.media.frame_rate_num">30</property>
  <property name="meta.media.frame_rate_den">1</property>
  <property name="meta.media.colorspace">601</property>
  <property name="meta.media.color_trc">2</property>
  <property name="meta.media.width">912</property>
  <property name="meta.media.height">720</property>
  <property name="meta.media.color_range">mpeg</property>
  <property name="kdenlive:file_hash">49ca375289290b0084de6e15ab5d432a</property>
  <property name="meta.media.top_field_first">0</property>
  <property name="meta.media.progressive">1</property>
 </producer>
 <producer id="producer22" in="00:00:00.000" out="00:00:39.733">
  <property name="length">1193</property>
  <property name="eof">pause</property>
  <property name="resource">content/consingan_paintings/fall_shadows_2.mp4</property>
  <property name="audio_index">-1</property>
  <property name="video_index">0</property>
  <property name="mute_on_pause">0</property>
  <property name="mlt_service">avformat-novalidate</property>
  <property name="seekable">1</property>
  <property name="aspect_ratio">1</property>
  <property name="kdenlive:clipname">fall_shadows_2.mp4</property>
  <property name="kdenlive:folderid">31</property>
  <property name="kdenlive:id">37</property>
  <property name="kdenlive:file_size">2834388</property>
  <property name="global_feed">1</property>
  <property name="meta.media.nb_streams">1</property>
  <property name="meta.media.0.stream.type">video</property>
  <property name="meta.media.0.stream.frame_rate">30</property>
  <property name="meta.media.0.stream.sample_aspect_ratio">0</property>
  <property name="meta.media.0.codec.width">912</property>
  <property name="meta.media.0.codec.height">720</property>
  <property name="meta.media.0.codec.rotate">0</property>
  <property name="meta.media.0.codec.frame_rate">30</property>
  <property name="meta.media.0.codec.pix_fmt">yuv420p</property>
  <property name="meta.media.0.codec.sample_aspect_ratio">0</property>
  <property name="meta.media.0.codec.colorspace">601</property>
  <property name="meta.media.0.codec.name">h264</property>
  <property name="meta.media.0.codec.long_name">H.264 / AVC / MPEG-4 AVC / MPEG-4 part 10</property>
  <property name="meta.media.0.codec.bit_rate">567152</property>
  <property name="meta.attr.0.stream.handler_name.markup">VideoHandler</property>
  <property name="meta.attr.major_brand.markup">isom</property>
  <property name="meta.attr.minor_version.markup">512</property>
  <property name="meta.attr.compatible_brands.markup">isomiso2avc1mp41</property>
  <property name="meta.attr.encoder.markup">Lavf58.29.100</property>
  <property name="meta.media.sample_aspect_num">1</property>
  <property name="meta.media.sample_aspect_den">1</property>
  <property name="meta.media.frame_rate_num">30</property>
  <property name="meta.media.frame_rate_den">1</property>
  <property name="meta.media.colorspace">601</property>
  <property name="meta.media.color_trc">2</property>
  <property name="meta.media.width">912</property>
  <property name="meta.media.height">720</property>
  <property name="meta.media.color_range">mpeg</property>
  <property name="kdenlive:file_hash">05884d887b747bd03fb2888e8eb8667d</property>
  <property name="meta.media.top_field_first">0</property>
  <property name="meta.media.progressive">1</property>
 </producer>
 <producer id="producer23" in="00:00:00.000" out="00:00:39.733">
  <property name="length">1193</property>
  <property name="eof">pause</property>
  <property name="resource">content/consingan_paintings/fall_sparkles_1.mp4</property>
  <property name="audio_index">-1</property>
  <property name="video_index">0</property>
  <property name="mute_on_pause">0</property>
  <property name="mlt_service">avformat-novalidate</property>
  <property name="seekable">1</property>
  <property name="aspect_ratio">1</property>
  <property name="kdenlive:clipname">fall_sparkles_1.mp4</property>
  <property name="kdenlive:folderid">31</property>
  <property name="kdenlive:id">38</property>
  <property name="kdenlive:file_size">6955184</property>
  <property name="global_feed">1</property>
  <property name="meta.media.nb_streams">1</property>
  <property name="meta.media.0.stream.type">video</property>
  <property name="meta.media.0.stream.frame_rate">30</property>
  <property name="meta.media.0.stream.sample_aspect_ratio">0</property>
  <property name="meta.media.0.codec.width">928</property>
  <property name="meta.media.0.codec.height">720</property>
  <property name="meta.media.0.codec.rotate">0</property>
  <property name="meta.media.0.codec.frame_rate">30</property>
  <property name="meta.media.0.codec.pix_fmt">yuv420p</property>
  <property name="meta.media.0.codec.sample_aspect_ratio">0</property>
  <property name="meta.media.0.codec.colorspace">601</property>
  <property name="meta.media.0.codec.name">h264</property>
  <property name="meta.media.0.codec.long_name">H.264 / AVC / MPEG-4 AVC / MPEG-4 part 10</property>
  <property name="meta.media.0.codec.bit_rate">1396139</property>
  <property name="meta.attr.0.stream.handler_name.markup">VideoHandler</property>
  <property name="meta.attr.major_brand.markup">isom</property>
  <property name="meta.attr.minor_version.markup">512</property>
  <property name="meta.attr.compatible_brands.markup">isomiso2avc1mp41</property>
  <property name="meta.attr.encoder.markup">Lavf58.29.100</property>
  <property name="meta.media.sample_aspect_num">1</property>
  <property name="meta.media.sample_aspect_den">1</property>
  <property name="meta.media.frame_rate_num">30</property>
  <property name="meta.media.frame_rate_den">1</property>
  <property name="meta.media.colorspace">601</property>
  <property name="meta.media.color_trc">2</property>
  <property name="meta.media.width">928</property>
  <property name="meta.media.height">720</property>
  <property name="meta.media.color_range">mpeg</property>
  <property name="kdenlive:file_hash">09da97083ef63b56a824fcac913f6ac4</property>
  <property name="meta.media.top_field_first">0</property>
  <property name="meta.media.progressive">1</property>
 </producer>
 <producer id="producer24" in="00:00:00.000" out="00:00:39.733">
  <property name="length">1193</property>
  <property name="eof">pause</property>
  <property name="resource">content/consingan_paintings/fall_sparkles_2.mp4</property>
  <property name="audio_index">-1</property>
  <property name="video_index">0</property>
  <property name="mute_on_pause">0</property>
  <property name="mlt_service">avformat-novalidate</property>
  <property name="seekable">1</property>
  <property name="aspect_ratio">1</property>
  <property name="kdenlive:clipname">fall_sparkles_2.mp4</property>
  <property name="kdenlive:folderid">31</property>
  <property name="kdenlive:id">39</property>
  <property name="kdenlive:file_size">5517366</property>
  <property name="global_feed">1</property>
  <property name="meta.media.nb_streams">1</property>
  <property name="meta.media.0.stream.type">video</property>
  <property name="meta.media.0.stream.frame_rate">30</property>
  <property name="meta.media.0.stream.sample_aspect_ratio">0</property>
  <property name="meta.media.0.codec.width">928</property>
  <property name="meta.media.0.codec.height">720</property>
  <property name="meta.media.0.codec.rotate">0</property>
  <property name="meta.media.0.codec.frame_rate">30</property>
  <property name="meta.media.0.codec.pix_fmt">yuv420p</property>
  <property name="meta.media.0.codec.sample_aspect_ratio">0</property>
  <property name="meta.media.0.codec.colorspace">601</property>
  <property name="meta.media.0.codec.name">h264</property>
  <property name="meta.media.0.codec.long_name">H.264 / AVC / MPEG-4 AVC / MPEG-4 part 10</property>
  <property name="meta.media.0.codec.bit_rate">1106887</property>
  <property name="meta.attr.0.stream.handler_name.markup">VideoHandler</property>
  <property name="meta.attr.major_brand.markup">isom</property>
  <property name="meta.attr.minor_version.markup">512</property>
  <property name="meta.attr.compatible_brands.markup">isomiso2avc1mp41</property>
  <property name="meta.attr.encoder.markup">Lavf58.29.100</property>
  <property name="meta.media.sample_aspect_num">1</property>
  <property name="meta.media.sample_aspect_den">1</property>
  <property name="meta.media.frame_rate_num">30</property>
  <property name="meta.media.frame_rate_den">1</property>
  <property name="meta.media.colorspace">601</property>
  <property name="meta.media.color_trc">2</property>
  <property name="meta.media.width">928</property>
  <property name="meta.media.height">720</property>
  <property name="meta.media.color_range">mpeg</property>
  <property name="kdenlive:file_hash">3cffef8f7ec1b2f1534362d001106ee1</property>
  <property name="meta.media.top_field_first">0</property>
  <property name="meta.media.progressive">1</property>
 </producer>
 <producer id="producer25" in="00:00:00.000" out="00:00:39.733">
  <property name="length">1193</property>
  <property name="eof">pause</property>
  <property name="resource">content/consingan_paintings/fishing_boats_1.mp4</property>
  <property name="audio_index">-1</property>
  <property name="video_index">0</property>
  <property name="mute_on_pause">0</property>
  <property name="mlt_service">avformat-novalidate</property>
  <property name="seekable">1</property>
  <property name="aspect_ratio">1</property>
  <property name="kdenlive:clipname">fishing_boats_1.mp4</property>
  <property name="kdenlive:folderid">31</property>
  <property name="kdenlive:id">40</property>
  <property name="kdenlive:file_size">6209312</property>
  <property name="global_feed">1</property>
  <property name="meta.media.nb_streams">1</property>
  <property name="meta.media.0.stream.type">video</property>
  <property name="meta.media.0.stream.frame_rate">30</property>
  <property name="meta.media.0.stream.sample_aspect_ratio">0</property>
  <property name="meta.media.0.codec.width">928</property>
  <property name="meta.media.0.codec.height">720</property>
  <property name="meta.media.0.codec.rotate">0</property>
  <property name="meta.media.0.codec.frame_rate">30</property>
  <property name="meta.media.0.codec.pix_fmt">yuv420p</property>
  <property name="meta.media.0.codec.sample_aspect_ratio">0</property>
  <property name="meta.media.0.codec.colorspace">601</property>
  <property name="meta.media.0.codec.name">h264</property>
  <property name="meta.media.0.codec.long_name">H.264 / AVC / MPEG-4 AVC / MPEG-4 part 10</property>
  <property name="meta.media.0.codec.bit_rate">1246090</property>
  <property name="meta.attr.0.stream.handler_name.markup">VideoHandler</property>
  <property name="meta.attr.major_brand.markup">isom</property>
  <property name="meta.attr.minor_version.markup">512</property>
  <property name="meta.attr.compatible_brands.markup">isomiso2avc1mp41</property>
  <property name="meta.attr.encoder.markup">Lavf58.29.100</property>
  <property name="meta.media.sample_aspect_num">1</property>
  <property name="meta.media.sample_aspect_den">1</property>
  <property name="meta.media.frame_rate_num">30</property>
  <property name="meta.media.frame_rate_den">1</property>
  <property name="meta.media.colorspace">601</property>
  <property name="meta.media.color_trc">2</property>
  <property name="meta.media.width">928</property>
  <property name="meta.media.height">720</property>
  <property name="meta.media.color_range">mpeg</property>
  <property name="kdenlive:file_hash">8141373aef9cad3fc87af4b37035d37b</property>
  <property name="meta.media.top_field_first">0</property>
  <property name="meta.media.progressive">1</property>
 </producer>
 <producer id="producer26" in="00:00:00.000" out="00:00:39.733">
  <property name="length">1193</property>
  <property name="eof">pause</property>
  <property name="resource">content/consingan_paintings/fishing_boats_2.mp4</property>
  <property name="audio_index">-1</property>
  <property name="video_index">0</property>
  <property name="mute_on_pause">0</property>
  <property name="mlt_service">avformat-novalidate</property>
  <property name="seekable">1</property>
  <property name="aspect_ratio">1</property>
  <property name="kdenlive:clipname">fishing_boats_2.mp4</property>
  <property name="kdenlive:folderid">31</property>
  <property name="kdenlive:id">41</property>
  <property name="kdenlive:file_size">5419388</property>
  <property name="global_feed">1</property>
  <property name="meta.media.nb_streams">1</property>
  <property name="meta.media.0.stream.type">video</property>
  <property name="meta.media.0.stream.frame_rate">30</property>
  <property name="meta.media.0.stream.sample_aspect_ratio">0</property>
  <property name="meta.media.0.codec.width">928</property>
  <property name="meta.media.0.codec.height">720</property>
  <property name="meta.media.0.codec.rotate">0</property>
  <property name="meta.media.0.codec.frame_rate">30</property>
  <property name="meta.media.0.codec.pix_fmt">yuv420p</property>
  <property name="meta.media.0.codec.sample_aspect_ratio">0</property>
  <property name="meta.media.0.codec.colorspace">601</property>
  <property name="meta.media.0.codec.name">h264</property>
  <property name="meta.media.0.codec.long_name">H.264 / AVC / MPEG-4 AVC / MPEG-4 part 10</property>
  <property name="meta.media.0.codec.bit_rate">1087181</property>
  <property name="meta.attr.0.stream.handler_name.markup">VideoHandler</property>
  <property name="meta.attr.major_brand.markup">isom</property>
  <property name="meta.attr.minor_version.markup">512</property>
  <property name="meta.attr.compatible_brands.markup">isomiso2avc1mp41</property>
  <property name="meta.attr.encoder.markup">Lavf58.29.100</property>
  <property name="meta.media.sample_aspect_num">1</property>
  <property name="meta.media.sample_aspect_den">1</property>
  <property name="meta.media.frame_rate_num">30</property>
  <property name="meta.media.frame_rate_den">1</property>
  <property name="meta.media.colorspace">601</property>
  <property name="meta.media.color_trc">2</property>
  <property name="meta.media.width">928</property>
  <property name="meta.media.height">720</property>
  <property name="meta.media.color_range">mpeg</property>
  <property name="kdenlive:file_hash">3a19c038a9c10555553cd05ae0ac4527</property>
  <property name="meta.media.top_field_first">0</property>
  <property name="meta.media.progressive">1</property>
 </producer>
 <producer id="producer27" in="00:00:00.000" out="00:00:39.733">
  <property name="length">1193</property>
  <property name="eof">pause</property>
  <property name="resource">content/consingan_paintings/garage_1.mp4</property>
  <property name="audio_index">-1</property>
  <property name="video_index">0</property>
  <property name="mute_on_pause">0</property>
  <property name="mlt_service">avformat-novalidate</property>
  <property name="seekable">1</property>
  <property name="aspect_ratio">1</property>
  <property name="kdenlive:clipname">garage_1.mp4</property>
  <property name="kdenlive:folderid">31</property>
  <property name="kdenlive:id">42</property>
  <property name="kdenlive:file_size">11002450</property>
  <property name="global_feed">1</property>
  <property name="meta.media.nb_streams">1</property>
  <property name="meta.media.0.stream.type">video</property>
  <property name="meta.media.0.stream.frame_rate">30</property>
  <property name="meta.media.0.stream.sample_aspect_ratio">0</property>
  <property name="meta.media.0.codec.width">912</property>
  <property name="meta.media.0.codec.height">720</property>
  <property name="meta.media.0.codec.rotate">0</property>
  <property name="meta.media.0.codec.frame_rate">30</property>
  <property name="meta.media.0.codec.pix_fmt">yuv420p</property>
  <property name="meta.media.0.codec.sample_aspect_ratio">0</property>
  <property name="meta.media.0.codec.colorspace">601</property>
  <property name="meta.media.0.codec.name">h264</property>
  <property name="meta.media.0.codec.long_name">H.264 / AVC / MPEG-4 AVC / MPEG-4 part 10</property>
  <property name="meta.media.0.codec.bit_rate">2210324</property>
  <property name="meta.attr.0.stream.handler_name.markup">VideoHandler</property>
  <property name="meta.attr.major_brand.markup">isom</property>
  <property name="meta.attr.minor_version.markup">512</property>
  <property name="meta.attr.compatible_brands.markup">isomiso2avc1mp41</property>
  <property name="meta.attr.encoder.markup">Lavf58.29.100</property>
  <property name="meta.media.sample_aspect_num">1</property>
  <property name="meta.media.sample_aspect_den">1</property>
  <property name="meta.media.frame_rate_num">30</property>
  <property name="meta.media.frame_rate_den">1</property>
  <property name="meta.media.colorspace">601</property>
  <property name="meta.media.color_trc">2</property>
  <property name="meta.media.width">912</property>
  <property name="meta.media.height">720</property>
  <property name="meta.media.color_range">mpeg</property>
  <property name="kdenlive:file_hash">55a74d49d3c65522d7222fc2ca7f1ea4</property>
  <property name="meta.media.top_field_first">0</property>
  <property name="meta.media.progressive">1</property>
 </producer>
 <producer id="producer28" in="00:00:00.000" out="00:00:39.733">
  <property name="length">1193</property>
  <property name="eof">pause</property>
  <property name="resource">content/consingan_paintings/garage_2.mp4</property>
  <property name="audio_index">-1</property>
  <property name="video_index">0</property>
  <property name="mute_on_pause">0</property>
  <property name="mlt_service">avformat-novalidate</property>
  <property name="seekable">1</property>
  <property name="aspect_ratio">1</property>
  <property name="kdenlive:clipname">garage_2.mp4</property>
  <property name="kdenlive:folderid">31</property>
  <property name="kdenlive:id">43</property>
  <property name="kdenlive:file_size">8287805</property>
  <property name="global_feed">1</property>
  <property name="meta.media.nb_streams">1</property>
  <property name="meta.media.0.stream.type">video</property>
  <property name="meta.media.0.stream.frame_rate">30</property>
  <property name="meta.media.0.stream.sample_aspect_ratio">0</property>
  <property name="meta.media.0.codec.width">912</property>
  <property name="meta.media.0.codec.height">720</property>
  <property name="meta.media.0.codec.rotate">0</property>
  <property name="meta.media.0.codec.frame_rate">30</property>
  <property name="meta.media.0.codec.pix_fmt">yuv420p</property>
  <property name="meta.media.0.codec.sample_aspect_ratio">0</property>
  <property name="meta.media.0.codec.colorspace">601</property>
  <property name="meta.media.0.codec.name">h264</property>
  <property name="meta.media.0.codec.long_name">H.264 / AVC / MPEG-4 AVC / MPEG-4 part 10</property>
  <property name="meta.media.0.codec.bit_rate">1664219</property>
  <property name="meta.attr.0.stream.handler_name.markup">VideoHandler</property>
  <property name="meta.attr.major_brand.markup">isom</property>
  <property name="meta.attr.minor_version.markup">512</property>
  <property name="meta.attr.compatible_brands.markup">isomiso2avc1mp41</property>
  <property name="meta.attr.encoder.markup">Lavf58.29.100</property>
  <property name="meta.media.sample_aspect_num">1</property>
  <property name="meta.media.sample_aspect_den">1</property>
  <property name="meta.media.frame_rate_num">30</property>
  <property name="meta.media.frame_rate_den">1</property>
  <property name="meta.media.colorspace">601</property>
  <property name="meta.media.color_trc">2</property>
  <property name="meta.media.width">912</property>
  <property name="meta.media.height">720</property>
  <property name="meta.media.color_range">mpeg</property>
  <property name="kdenlive:file_hash">c18882c14c64218e467f56fcbeceb2ae</property>
  <property name="meta.media.top_field_first">0</property>
  <property name="meta.media.progressive">1</property>
 </producer>
 <producer id="producer31" in="00:00:00.000" out="00:00:39.733">
  <property name="length">1193</property>
  <property name="eof">pause</property>
  <property name="resource">content/consingan_paintings/river_church_1.mp4</property>
  <property name="audio_index">-1</property>
  <property name="video_index">0</property>
  <property name="mute_on_pause">0</property>
  <property name="mlt_service">avformat-novalidate</property>
  <property name="seekable">1</property>
  <property name="aspect_ratio">1</property>
  <property name="kdenlive:clipname">river_church_1.mp4</property>
  <property name="kdenlive:folderid">31</property>
  <property name="kdenlive:id">44</property>
  <property name="kdenlive:file_size">3566331</property>
  <property name="global_feed">1</property>
  <property name="meta.media.nb_streams">1</property>
  <property name="meta.media.0.stream.type">video</property>
  <property name="meta.media.0.stream.frame_rate">30</property>
  <property name="meta.media.0.stream.sample_aspect_ratio">0</property>
  <property name="meta.media.0.codec.width">896</property>
  <property name="meta.media.0.codec.height">720</property>
  <property name="meta.media.0.codec.rotate">0</property>
  <property name="meta.media.0.codec.frame_rate">30</property>
  <property name="meta.media.0.codec.pix_fmt">yuv420p</property>
  <property name="meta.media.0.codec.sample_aspect_ratio">0</property>
  <property name="meta.media.0.codec.colorspace">601</property>
  <property name="meta.media.0.codec.name">h264</property>
  <property name="meta.media.0.codec.long_name">H.264 / AVC / MPEG-4 AVC / MPEG-4 part 10</property>
  <property name="meta.media.0.codec.bit_rate">714397</property>
  <property name="meta.attr.0.stream.handler_name.markup">VideoHandler</property>
  <property name="meta.attr.major_brand.markup">isom</property>
  <property name="meta.attr.minor_version.markup">512</property>
  <property name="meta.attr.compatible_brands.markup">isomiso2avc1mp41</property>
  <property name="meta.attr.encoder.markup">Lavf58.29.100</property>
  <property name="meta.media.sample_aspect_num">1</property>
  <property name="meta.media.sample_aspect_den">1</property>
  <property name="meta.media.frame_rate_num">30</property>
  <property name="meta.media.frame_rate_den">1</property>
  <property name="meta.media.colorspace">601</property>
  <property name="meta.media.color_trc">2</property>
  <property name="meta.media.width">896</property>
  <property name="meta.media.height">720</property>
  <property name="meta.media.color_range">mpeg</property>
  <property name="kdenlive:file_hash">d24aaf6ad7e647743eef5314031212cd</property>
  <property name="meta.media.top_field_first">0</property>
  <property name="meta.media.progressive">1</property>
 </producer>
 <producer id="producer32" in="00:00:00.000" out="00:00:39.733">
  <property name="length">1193</property>
  <property name="eof">pause</property>
  <property name="resource">content/consingan_paintings/river_church_2.mp4</property>
  <property name="audio_index">-1</property>
  <property name="video_index">0</property>
  <property name="mute_on_pause">0</property>
  <property name="mlt_service">avformat-novalidate</property>
  <property name="seekable">1</property>
  <property name="aspect_ratio">1</property>
  <property name="kdenlive:clipname">river_church_2.mp4</property>
  <property name="kdenlive:folderid">31</property>
  <property name="kdenlive:id">45</property>
  <property name="kdenlive:file_size">2552132</property>
  <property name="global_feed">1</property>
  <property name="meta.media.nb_streams">1</property>
  <property name="meta.media.0.stream.type">video</property>
  <property name="meta.media.0.stream.frame_rate">30</property>
  <property name="meta.media.0.stream.sample_aspect_ratio">0</property>
  <property name="meta.media.0.codec.width">896</property>
  <property name="meta.media.0.codec.height">720</property>
  <property name="meta.media.0.codec.rotate">0</property>
  <property name="meta.media.0.codec.frame_rate">30</property>
  <property name="meta.media.0.codec.pix_fmt">yuv420p</property>
  <property name="meta.media.0.codec.sample_aspect_ratio">0</property>
  <property name="meta.media.0.codec.colorspace">601</property>
  <property name="meta.media.0.codec.name">h264</property>
  <property name="meta.media.0.codec.long_name">H.264 / AVC / MPEG-4 AVC / MPEG-4 part 10</property>
  <property name="meta.media.0.codec.bit_rate">510370</property>
  <property name="meta.attr.0.stream.handler_name.markup">VideoHandler</property>
  <property name="meta.attr.major_brand.markup">isom</property>
  <property name="meta.attr.minor_version.markup">512</property>
  <property name="meta.attr.compatible_brands.markup">isomiso2avc1mp41</property>
  <property name="meta.attr.encoder.markup">Lavf58.29.100</property>
  <property name="meta.media.sample_aspect_num">1</property>
  <property name="meta.media.sample_aspect_den">1</property>
  <property name="meta.media.frame_rate_num">30</property>
  <property name="meta.media.frame_rate_den">1</property>
  <property name="meta.media.colorspace">601</property>
  <property name="meta.media.color_trc">2</property>
  <property name="meta.media.width">896</property>
  <property name="meta.media.height">720</property>
  <property name="meta.media.color_range">mpeg</property>
  <property name="kdenlive:file_hash">f96eb447ad0a6a0bf40dcdc3ef1a0105</property>
  <property name="meta.media.top_field_first">0</property>
  <property name="meta.media.progressive">1</property>
 </producer>
 <producer id="producer33" in="00:00:00.000" out="00:00:39.733">
  <property name="length">1193</property>
  <property name="eof">pause</property>
  <property name="resource">content/consingan_paintings/rocky_hill_1.mp4</property>
  <property name="audio_index">-1</property>
  <property name="video_index">0</property>
  <property name="mute_on_pause">0</property>
  <property name="mlt_service">avformat-novalidate</property>
  <property name="seekable">1</property>
  <property name="aspect_ratio">1</property>
  <property name="kdenlive:clipname">rocky_hill_1.mp4</property>
  <property name="kdenlive:folderid">31</property>
  <property name="kdenlive:id">46</property>
  <property name="kdenlive:file_size">10375525</property>
  <property name="global_feed">1</property>
  <property name="meta.media.nb_streams">1</property>
  <property name="meta.media.0.stream.type">video</property>
  <property name="meta.media.0.stream.frame_rate">30</property>
  <property name="meta.media.0.stream.sample_aspect_ratio">0</property>
  <property name="meta.media.0.codec.width">912</property>
  <property name="meta.media.0.codec.height">720</property>
  <property name="meta.media.0.codec.rotate">0</property>
  <property name="meta.media.0.codec.frame_rate">30</property>
  <property name="meta.media.0.codec.pix_fmt">yuv420p</property>
  <property name="meta.media.0.codec.sample_aspect_ratio">0</property>
  <property name="meta.media.0.codec.colorspace">601</property>
  <property name="meta.media.0.codec.name">h264</property>
  <property name="meta.media.0.codec.long_name">H.264 / AVC / MPEG-4 AVC / MPEG-4 part 10</property>
  <property name="meta.media.0.codec.bit_rate">2084207</property>
  <property name="meta.attr.0.stream.handler_name.markup">VideoHandler</property>
  <property name="meta.attr.major_brand.markup">isom</property>
  <property name="meta.attr.minor_version.markup">512</property>
  <property name="meta.attr.compatible_brands.markup">isomiso2avc1mp41</property>
  <property name="meta.attr.encoder.markup">Lavf58.29.100</property>
  <property name="meta.media.sample_aspect_num">1</property>
  <property name="meta.media.sample_aspect_den">1</property>
  <property name="meta.media.frame_rate_num">30</property>
  <property name="meta.media.frame_rate_den">1</property>
  <property name="meta.media.colorspace">601</property>
  <property name="meta.media.color_trc">2</property>
  <property name="meta.media.width">912</property>
  <property name="meta.media.height">720</property>
  <property name="meta.media.color_range">mpeg</property>
  <property name="kdenlive:file_hash">3c6bdc25c2d9b880f23a6580792dfd4d</property>
  <property name="meta.media.top_field_first">0</property>
  <property name="meta.media.progressive">1</property>
 </producer>
 <producer id="producer34" in="00:00:00.000" out="00:00:39.733">
  <property name="length">1193</property>
  <property name="eof">pause</property>
  <property name="resource">content/consingan_paintings/rocky_hill_2.mp4</property>
  <property name="audio_index">-1</property>
  <property name="video_index">0</property>
  <property name="mute_on_pause">0</property>
  <property name="mlt_service">avformat-novalidate</property>
  <property name="seekable">1</property>
  <property name="aspect_ratio">1</property>
  <property name="kdenlive:clipname">rocky_hill_2.mp4</property>
  <property name="kdenlive:folderid">31</property>
  <property name="kdenlive:id">47</property>
  <property name="kdenlive:file_size">8333149</property>
  <property name="global_feed">1</property>
  <property name="meta.media.nb_streams">1</property>
  <property name="meta.media.0.stream.type">video</property>
  <property name="meta.media.0.stream.frame_rate">30</property>
  <property name="meta.media.0.stream.sample_aspect_ratio">0</property>
  <property name="meta.media.0.codec.width">912</property>
  <property name="meta.media.0.codec.height">720</property>
  <property name="meta.media.0.codec.rotate">0</property>
  <property name="meta.media.0.codec.frame_rate">30</property>
  <property name="meta.media.0.codec.pix_fmt">yuv420p</property>
  <property name="meta.media.0.codec.sample_aspect_ratio">0</property>
  <property name="meta.media.0.codec.colorspace">601</property>
  <property name="meta.media.0.codec.name">h264</property>
  <property name="meta.media.0.codec.long_name">H.264 / AVC / MPEG-4 AVC / MPEG-4 part 10</property>
  <property name="meta.media.0.codec.bit_rate">1673341</property>
  <property name="meta.attr.0.stream.handler_name.markup">VideoHandler</property>
  <property name="meta.attr.major_brand.markup">isom</property>
  <property name="meta.attr.minor_version.markup">512</property>
  <property name="meta.attr.compatible_brands.markup">isomiso2avc1mp41</property>
  <property name="meta.attr.encoder.markup">Lavf58.29.100</property>
  <property name="meta.media.sample_aspect_num">1</property>
  <property name="meta.media.sample_aspect_den">1</property>
  <property name="meta.media.frame_rate_num">30</property>
  <property name="meta.media.frame_rate_den">1</property>
  <property name="meta.media.colorspace">601</property>
  <property name="meta.media.color_trc">2</property>
  <property name="meta.media.width">912</property>
  <property name="meta.media.height">720</property>
  <property name="meta.media.color_range">mpeg</property>
  <property name="kdenlive:file_hash">36d58b0f9c7590c7104f53660e8e66f2</property>
  <property name="meta.media.top_field_first">0</property>
  <property name="meta.media.progressive">1</property>
 </producer>
 <producer id="producer35" in="00:00:00.000" out="00:00:39.733">
  <property name="length">1193</property>
  <property name="eof">pause</property>
  <property name="resource">content/consingan_paintings/rowboats_1.mp4</property>
  <property name="audio_index">-1</property>
  <property name="video_index">0</property>
  <property name="mute_on_pause">0</property>
  <property name="mlt_service">avformat-novalidate</property>
  <property name="seekable">1</property>
  <property name="aspect_ratio">1</property>
  <property name="kdenlive:clipname">rowboats_1.mp4</property>
  <property name="kdenlive:folderid">31</property>
  <property name="kdenlive:id">48</property>
  <property name="kdenlive:file_size">10930039</property>
  <property name="global_feed">1</property>
  <property name="meta.media.nb_streams">1</property>
  <property name="meta.media.0.stream.type">video</property>
  <property name="meta.media.0.stream.frame_rate">30</property>
  <property name="meta.media.0.stream.sample_aspect_ratio">0</property>
  <property name="meta.media.0.codec.width">912</property>
  <property name="meta.media.0.codec.height">720</property>
  <property name="meta.media.0.codec.rotate">0</property>
  <property name="meta.media.0.codec.frame_rate">30</property>
  <property name="meta.media.0.codec.pix_fmt">yuv420p</property>
  <property name="meta.media.0.codec.sample_aspect_ratio">0</property>
  <property name="meta.media.0.codec.colorspace">601</property>
  <property name="meta.media.0.codec.name">h264</property>
  <property name="meta.media.0.codec.long_name">H.264 / AVC / MPEG-4 AVC / MPEG-4 part 10</property>
  <property name="meta.media.0.codec.bit_rate">2195757</property>
  <property name="meta.attr.0.stream.handler_name.markup">VideoHandler</property>
  <property name="meta.attr.major_brand.markup">isom</property>
  <property name="meta.attr.minor_version.markup">512</property>
  <property name="meta.attr.compatible_brands.markup">isomiso2avc1mp41</property>
  <property name="meta.attr.encoder.markup">Lavf58.29.100</property>
  <property name="meta.media.sample_aspect_num">1</property>
  <property name="meta.media.sample_aspect_den">1</property>
  <property name="meta.media.frame_rate_num">30</property>
  <property name="meta.media.frame_rate_den">1</property>
  <property name="meta.media.colorspace">601</property>
  <property name="meta.media.color_trc">2</property>
  <property name="meta.media.width">912</property>
  <property name="meta.media.height">720</property>
  <property name="meta.media.color_range">mpeg</property>
  <property name="kdenlive:file_hash">0e6295d7066a422ddf35d168e7de0153</property>
  <property name="meta.media.top_field_first">0</property>
  <property name="meta.media.progressive">1</property>
 </producer>
 <producer id="producer36" in="00:00:00.000" out="00:00:39.733">
  <property name="length">1193</property>
  <property name="eof">pause</property>
  <property name="resource">content/consingan_paintings/rowboats_2.mp4</property>
  <property name="audio_index">-1</property>
  <property name="video_index">0</property>
  <property name="mute_on_pause">0</property>
  <property name="mlt_service">avformat-novalidate</property>
  <property name="seekable">1</property>
  <property name="aspect_ratio">1</property>
  <property name="kdenlive:clipname">rowboats_2.mp4</property>
  <property name="kdenlive:folderid">31</property>
  <property name="kdenlive:id">49</property>
  <property name="kdenlive:file_size">9525368</property>
  <property name="global_feed">1</property>
  <property name="meta.media.nb_streams">1</property>
  <property name="meta.media.0.stream.type">video</property>
  <property name="meta.media.0.stream.frame_rate">30</property>
  <property name="meta.media.0.stream.sample_aspect_ratio">0</property>
  <property name="meta.media.0.codec.width">912</property>
  <property name="meta.media.0.codec.height">720</property>
  <property name="meta.media.0.codec.rotate">0</property>
  <property name="meta.media.0.codec.frame_rate">30</property>
  <property name="meta.media.0.codec.pix_fmt">yuv420p</property>
  <property name="meta.media.0.codec.sample_aspect_ratio">0</property>
  <property name="meta.media.0.codec.colorspace">601</property>
  <property name="meta.media.0.codec.name">h264</property>
  <property name="meta.media.0.codec.long_name">H.264 / AVC / MPEG-4 AVC / MPEG-4 part 10</property>
  <property name="meta.media.0.codec.bit_rate">1913178</property>
  <property name="meta.attr.0.stream.handler_name.markup">VideoHandler</property>
  <property name="meta.attr.major_brand.markup">isom</property>
  <property name="meta.attr.minor_version.markup">512</property>
  <property name="meta.attr.compatible_brands.markup">isomiso2avc1mp41</property>
  <property name="meta.attr.encoder.markup">Lavf58.29.100</property>
  <property name="meta.media.sample_aspect_num">1</property>
  <property name="meta.media.sample_aspect_den">1</property>
  <property name="meta.media.frame_rate_num">30</property>
  <property name="meta.media.frame_rate_den">1</property>
  <property name="meta.media.colorspace">601</property>
  <property name="meta.media.color_trc">2</property>
  <property name="meta.media.width">912</property>
  <property name="meta.media.height">720</property>
  <property name="meta.media.color_range">mpeg</property>
  <property name="kdenlive:file_hash">b7d8ac578036ecbcd650ec1eb6ce5dd0</property>
  <property name="meta.media.top_field_first">0</property>
  <property name="meta.media.progressive">1</property>
 </producer>
 <producer id="producer38" in="00:00:00.000" out="00:00:39.733">
  <property name="length">1193</property>
  <property name="eof">pause</property>
  <property name="resource">content/consingan_paintings/seaman_1.mp4</property>
  <property name="audio_index">-1</property>
  <property name="video_index">0</property>
  <property name="mute_on_pause">0</property>
  <property name="mlt_service">avformat-novalidate</property>
  <property name="seekable">1</property>
  <property name="aspect_ratio">1</property>
  <property name="kdenlive:clipname">seaman_1.mp4</property>
  <property name="kdenlive:folderid">31</property>
  <property name="kdenlive:id">50</property>
  <property name="kdenlive:file_size">6518942</property>
  <property name="global_feed">1</property>
  <property name="meta.media.nb_streams">1</property>
  <property name="meta.media.0.stream.type">video</property>
  <property name="meta.media.0.stream.frame_rate">30</property>
  <property name="meta.media.0.stream.sample_aspect_ratio">0</property>
  <property name="meta.media.0.codec.width">912</property>
  <property name="meta.media.0.codec.height">720</property>
  <property name="meta.media.0.codec.rotate">0</property>
  <property name="meta.media.0.codec.frame_rate">30</property>
  <property name="meta.media.0.codec.pix_fmt">yuv420p</property>
  <property name="meta.media.0.codec.sample_aspect_ratio">0</property>
  <property name="meta.media.0.codec.colorspace">601</property>
  <property name="meta.media.0.codec.name">h264</property>
  <property name="meta.media.0.codec.long_name">H.264 / AVC / MPEG-4 AVC / MPEG-4 part 10</property>
  <property name="meta.media.0.codec.bit_rate">1308376</property>
  <property name="meta.attr.0.stream.handler_name.markup">VideoHandler</property>
  <property name="meta.attr.major_brand.markup">isom</property>
  <property name="meta.attr.minor_version.markup">512</property>
  <property name="meta.attr.compatible_brands.markup">isomiso2avc1mp41</property>
  <property name="meta.attr.encoder.markup">Lavf58.29.100</property>
  <property name="meta.media.sample_aspect_num">1</property>
  <property name="meta.media.sample_aspect_den">1</property>
  <property name="meta.media.frame_rate_num">30</property>
  <property name="meta.media.frame_rate_den">1</property>
  <property name="meta.media.colorspace">601</property>
  <property name="meta.media.color_trc">2</property>
  <property name="meta.media.width">912</property>
  <property name="meta.media.height">720</property>
  <property name="meta.media.color_range">mpeg</property>
  <property name="kdenlive:file_hash">eeb4b30da340dd115f8496000c71625c</property>
  <property name="meta.media.top_field_first">0</property>
  <property name="meta.media.progressive">1</property>
 </producer>
 <producer id="producer39" in="00:00:00.000" out="00:00:39.733">
  <property name="length">1193</property>
  <property name="eof">pause</property>
  <property name="resource">content/consingan_paintings/seaman_2.mp4</property>
  <property name="audio_index">-1</property>
  <property name="video_index">0</property>
  <property name="mute_on_pause">0</property>
  <property name="mlt_service">avformat-novalidate</property>
  <property name="seekable">1</property>
  <property name="aspect_ratio">1</property>
  <property name="kdenlive:clipname">seaman_2.mp4</property>
  <property name="kdenlive:folderid">31</property>
  <property name="kdenlive:id">51</property>
  <property name="kdenlive:file_size">5001808</property>
  <property name="global_feed">1</property>
  <property name="meta.media.nb_streams">1</property>
  <property name="meta.media.0.stream.type">video</property>
  <property name="meta.media.0.stream.frame_rate">30</property>
  <property name="meta.media.0.stream.sample_aspect_ratio">0</property>
  <property name="meta.media.0.codec.width">912</property>
  <property name="meta.media.0.codec.height">720</property>
  <property name="meta.media.0.codec.rotate">0</property>
  <property name="meta.media.0.codec.frame_rate">30</property>
  <property name="meta.media.0.codec.pix_fmt">yuv420p</property>
  <property name="meta.media.0.codec.sample_aspect_ratio">0</property>
  <property name="meta.media.0.codec.colorspace">601</property>
  <property name="meta.media.0.codec.name">h264</property>
  <property name="meta.media.0.codec.long_name">H.264 / AVC / MPEG-4 AVC / MPEG-4 part 10</property>
  <property name="meta.media.0.codec.bit_rate">1003173</property>
  <property name="meta.attr.0.stream.handler_name.markup">VideoHandler</property>
  <property name="meta.attr.major_brand.markup">isom</property>
  <property name="meta.attr.minor_version.markup">512</property>
  <property name="meta.attr.compatible_brands.markup">isomiso2avc1mp41</property>
  <property name="meta.attr.encoder.markup">Lavf58.29.100</property>
  <property name="meta.media.sample_aspect_num">1</property>
  <property name="meta.media.sample_aspect_den">1</property>
  <property name="meta.media.frame_rate_num">30</property>
  <property name="meta.media.frame_rate_den">1</property>
  <property name="meta.media.colorspace">601</property>
  <property name="meta.media.color_trc">2</property>
  <property name="meta.media.width">912</property>
  <property name="meta.media.height">720</property>
  <property name="meta.media.color_range">mpeg</property>
  <property name="kdenlive:file_hash">7b91210bd9cefd0da262564de441d96e</property>
  <property name="meta.media.top_field_first">0</property>
  <property name="meta.media.progressive">1</property>
 </producer>
 <producer id="producer74" in="00:00:00.000" out="00:00:39.733">
  <property name="length">1193</property>
  <property name="eof">pause</property>
  <property name="resource">content/consingan_paintings/snowy_fallen_tree_1.mp4</property>
  <property name="audio_index">-1</property>
  <property name="video_index">0</property>
  <property name="mute_on_pause">0</property>
  <property name="mlt_service">avformat-novalidate</property>
  <property name="seekable">1</property>
  <property name="aspect_ratio">1</property>
  <property name="kdenlive:clipname">snowy_fallen_tree_1.mp4</property>
  <property name="kdenlive:folderid">31</property>
  <property name="kdenlive:id">52</property>
  <property name="kdenlive:file_size">10654681</property>
  <property name="global_feed">1</property>
  <property name="meta.media.nb_streams">1</property>
  <property name="meta.media.0.stream.type">video</property>
  <property name="meta.media.0.stream.frame_rate">30</property>
  <property name="meta.media.0.stream.sample_aspect_ratio">0</property>
  <property name="meta.media.0.codec.width">912</property>
  <property name="meta.media.0.codec.height">720</property>
  <property name="meta.media.0.codec.rotate">0</property>
  <property name="meta.media.0.codec.frame_rate">30</property>
  <property name="meta.media.0.codec.pix_fmt">yuv420p</property>
  <property name="meta.media.0.codec.sample_aspect_ratio">0</property>
  <property name="meta.media.0.codec.colorspace">601</property>
  <property name="meta.media.0.codec.name">h264</property>
  <property name="meta.media.0.codec.long_name">H.264 / AVC / MPEG-4 AVC / MPEG-4 part 10</property>
  <property name="meta.media.0.codec.bit_rate">2140362</property>
  <property name="meta.attr.0.stream.handler_name.markup">VideoHandler</property>
  <property name="meta.attr.major_brand.markup">isom</property>
  <property name="meta.attr.minor_version.markup">512</property>
  <property name="meta.attr.compatible_brands.markup">isomiso2avc1mp41</property>
  <property name="meta.attr.encoder.markup">Lavf58.29.100</property>
  <property name="meta.media.sample_aspect_num">1</property>
  <property name="meta.media.sample_aspect_den">1</property>
  <property name="meta.media.frame_rate_num">30</property>
  <property name="meta.media.frame_rate_den">1</property>
  <property name="meta.media.colorspace">601</property>
  <property name="meta.media.color_trc">2</property>
  <property name="meta.media.width">912</property>
  <property name="meta.media.height">720</property>
  <property name="meta.media.color_range">mpeg</property>
  <property name="kdenlive:file_hash">6c8c204450aa770e350600f80e644c05</property>
  <property name="meta.media.top_field_first">0</property>
  <property name="meta.media.progressive">1</property>
 </producer>
 <producer id="producer75" in="00:00:00.000" out="00:00:39.733">
  <property name="length">1193</property>
  <property name="eof">pause</property>
  <property name="resource">content/consingan_paintings/snowy_fallen_tree_2.mp4</property>
  <property name="audio_index">-1</property>
  <property name="video_index">0</property>
  <property name="mute_on_pause">0</property>
  <property name="mlt_service">avformat-novalidate</property>
  <property name="seekable">1</property>
  <property name="aspect_ratio">1</property>
  <property name="kdenlive:clipname">snowy_fallen_tree_2.mp4</property>
  <property name="kdenlive:folderid">31</property>
  <property name="kdenlive:id">53</property>
  <property name="kdenlive:file_size">8833515</property>
  <property name="global_feed">1</property>
  <property name="meta.media.nb_streams">1</property>
  <property name="meta.media.0.stream.type">video</property>
  <property name="meta.media.0.stream.frame_rate">30</property>
  <property name="meta.media.0.stream.sample_aspect_ratio">0</property>
  <property name="meta.media.0.codec.width">912</property>
  <property name="meta.media.0.codec.height">720</property>
  <property name="meta.media.0.codec.rotate">0</property>
  <property name="meta.media.0.codec.frame_rate">30</property>
  <property name="meta.media.0.codec.pix_fmt">yuv420p</property>
  <property name="meta.media.0.codec.sample_aspect_ratio">0</property>
  <property name="meta.media.0.codec.colorspace">601</property>
  <property name="meta.media.0.codec.name">h264</property>
  <property name="meta.media.0.codec.long_name">H.264 / AVC / MPEG-4 AVC / MPEG-4 part 10</property>
  <property name="meta.media.0.codec.bit_rate">1773998</property>
  <property name="meta.attr.0.stream.handler_name.markup">VideoHandler</property>
  <property name="meta.attr.major_brand.markup">isom</property>
  <property name="meta.attr.minor_version.markup">512</property>
  <property name="meta.attr.compatible_brands.markup">isomiso2avc1mp41</property>
  <property name="meta.attr.encoder.markup">Lavf58.29.100</property>
  <property name="meta.media.sample_aspect_num">1</property>
  <property name="meta.media.sample_aspect_den">1</property>
  <property name="meta.media.frame_rate_num">30</property>
  <property name="meta.media.frame_rate_den">1</property>
  <property name="meta.media.colorspace">601</property>
  <property name="meta.media.color_trc">2</property>
  <property name="meta.media.width">912</property>
  <property name="meta.media.height">720</property>
  <property name="meta.media.color_range">mpeg</property>
  <property name="kdenlive:file_hash">f7262e64125b84fba5458d96d1f61c02</property>
  <property name="meta.media.top_field_first">0</property>
  <property name="meta.media.progressive">1</property>
 </producer>
 <producer id="producer76" in="00:00:00.000" out="00:00:39.733">
  <property name="length">1193</property>
  <property name="eof">pause</property>
  <property name="resource">content/consingan_paintings/stream_1.mp4</property>
  <property name="audio_index">-1</property>
  <property name="video_index">0</property>
  <property name="mute_on_pause">0</property>
  <property name="mlt_service">avformat-novalidate</property>
  <property name="seekable">1</property>
  <property name="aspect_ratio">1</property>
  <property name="kdenlive:clipname">stream_1.mp4</property>
  <property name="kdenlive:folderid">31</property>
  <property name="kdenlive:id">54</property>
  <property name="kdenlive:file_size">9851338</property>
  <property name="global_feed">1</property>
  <property name="meta.media.nb_streams">1</property>
  <property name="meta.media.0.stream.type">video</property>
  <property name="meta.media.0.stream.frame_rate">30</property>
  <property name="meta.media.0.stream.sample_aspect_ratio">0</property>
  <property name="meta.media.0.codec.width">928</property>
  <property name="meta.media.0.codec.height">720</property>
  <property name="meta.media.0.codec.rotate">0</property>
  <property name="meta.media.0.codec.frame_rate">30</property>
  <property name="meta.media.0.codec.pix_fmt">yuv420p</property>
  <property name="meta.media.0.codec.sample_aspect_ratio">0</property>
  <property name="meta.media.0.codec.colorspace">601</property>
  <property name="meta.media.0.codec.name">h264</property>
  <property name="meta.media.0.codec.long_name">H.264 / AVC / MPEG-4 AVC / MPEG-4 part 10</property>
  <property name="meta.media.0.codec.bit_rate">1978757</property>
  <property name="meta.attr.0.stream.handler_name.markup">VideoHandler</property>
  <property name="meta.attr.major_brand.markup">isom</property>
  <property name="meta.attr.minor_version.markup">512</property>
  <property name="meta.attr.compatible_brands.markup">isomiso2avc1mp41</property>
  <property name="meta.attr.encoder.markup">Lavf58.29.100</property>
  <property name="meta.media.sample_aspect_num">1</property>
  <property name="meta.media.sample_aspect_den">1</property>
  <property name="meta.media.frame_rate_num">30</property>
  <property name="meta.media.frame_rate_den">1</property>
  <property name="meta.media.colorspace">601</property>
  <property name="meta.media.color_trc">2</property>
  <property name="meta.media.width">928</property>
  <property name="meta.media.height">720</property>
  <property name="meta.media.color_range">mpeg</property>
  <property name="kdenlive:file_hash">8c6391c3691aece7feb725fb1cc6b706</property>
  <property name="meta.media.top_field_first">0</property>
  <property name="meta.media.progressive">1</property>
 </producer>
 <producer id="producer77" in="00:00:00.000" out="00:00:39.733">
  <property name="length">1193</property>
  <property name="eof">pause</property>
  <property name="resource">content/consingan_paintings/stream_2.mp4</property>
  <property name="audio_index">-1</property>
  <property name="video_index">0</property>
  <property name="mute_on_pause">0</property>
  <property name="mlt_service">avformat-novalidate</property>
  <property name="seekable">1</property>
  <property name="aspect_ratio">1</property>
  <property name="kdenlive:clipname">stream_2.mp4</property>
  <property name="kdenlive:folderid">31</property>
  <property name="kdenlive:id">55</property>
  <property name="kdenlive:file_size">7099426</property>
  <property name="global_feed">1</property>
  <property name="meta.media.nb_streams">1</property>
  <property name="meta.media.0.stream.type">video</property>
  <property name="meta.media.0.stream.frame_rate">30</property>
  <property name="meta.media.0.stream.sample_aspect_ratio">0</property>
  <property name="meta.media.0.codec.width">928</property>
  <property name="meta.media.0.codec.height">720</property>
  <property name="meta.media.0.codec.rotate">0</property>
  <property name="meta.media.0.codec.frame_rate">30</property>
  <property name="meta.media.0.codec.pix_fmt">yuv420p</property>
  <property name="meta.media.0.codec.sample_aspect_ratio">0</property>
  <property name="meta.media.0.codec.colorspace">601</property>
  <property name="meta.media.0.codec.name">h264</property>
  <property name="meta.media.0.codec.long_name">H.264 / AVC / MPEG-4 AVC / MPEG-4 part 10</property>
  <property name="meta.media.0.codec.bit_rate">1425152</property>
  <property name="meta.attr.0.stream.handler_name.markup">VideoHandler</property>
  <property name="meta.attr.major_brand.markup">isom</property>
  <property name="meta.attr.minor_version.markup">512</property>
  <property name="meta.attr.compatible_brands.markup">isomiso2avc1mp41</property>
  <property name="meta.attr.encoder.markup">Lavf58.29.100</property>
  <property name="meta.media.sample_aspect_num">1</property>
  <property name="meta.media.sample_aspect_den">1</property>
  <property name="meta.media.frame_rate_num">30</property>
  <property name="meta.media.frame_rate_den">1</property>
  <property name="meta.media.colorspace">601</property>
  <property name="meta.media.color_trc">2</property>
  <property name="meta.media.width">928</property>
  <property name="meta.media.height">720</property>
  <property name="meta.media.color_range">mpeg</property>
  <property name="kdenlive:file_hash">c3baedbe8e37f4d48258b303b2477893</property>
  <property name="meta.media.top_field_first">0</property>
  <property name="meta.media.progressive">1</property>
 </producer>
 <producer id="producer78" in="00:00:00.000" out="00:00:39.733">
  <property name="length">1193</property>
  <property name="eof">pause</property>
  <property name="resource">content/consingan_paintings/summer_trees_1.mp4</property>
  <property name="audio_index">-1</property>
  <property name="video_index">0</property>
  <property name="mute_on_pause">0</property>
  <property name="mlt_service">avformat-novalidate</property>
  <property name="seekable">1</property>
  <property name="aspect_ratio">1</property>
  <property name="kdenlive:clipname">summer_trees_1.mp4</property>
  <property name="kdenlive:folderid">31</property>
  <property name="kdenlive:id">56</property>
  <property name="kdenlive:file_size">5956097</property>
  <property name="global_feed">1</property>
  <property name="meta.media.nb_streams">1</property>
  <property name="meta.media.0.stream.type">video</property>
  <property name="meta.media.0.stream.frame_rate">30</property>
  <property name="meta.media.0.stream.sample_aspect_ratio">0</property>
  <property name="meta.media.0.codec.width">912</property>
  <property name="meta.media.0.codec.height">720</property>
  <property name="meta.media.0.codec.rotate">0</property>
  <property name="meta.media.0.codec.frame_rate">30</property>
  <property name="meta.media.0.codec.pix_fmt">yuv420p</property>
  <property name="meta.media.0.codec.sample_aspect_ratio">0</property>
  <property name="meta.media.0.codec.colorspace">601</property>
  <property name="meta.media.0.codec.name">h264</property>
  <property name="meta.media.0.codec.long_name">H.264 / AVC / MPEG-4 AVC / MPEG-4 part 10</property>
  <property name="meta.media.0.codec.bit_rate">1195148</property>
  <property name="meta.attr.0.stream.handler_name.markup">VideoHandler</property>
  <property name="meta.attr.major_brand.markup">isom</property>
  <property name="meta.attr.minor_version.markup">512</property>
  <property name="meta.attr.compatible_brands.markup">isomiso2avc1mp41</property>
  <property name="meta.attr.encoder.markup">Lavf58.29.100</property>
  <property name="meta.media.sample_aspect_num">1</property>
  <property name="meta.media.sample_aspect_den">1</property>
  <property name="meta.media.frame_rate_num">30</property>
  <property name="meta.media.frame_rate_den">1</property>
  <property name="meta.media.colorspace">601</property>
  <property name="meta.media.color_trc">2</property>
  <property name="meta.media.width">912</property>
  <property name="meta.media.height">720</property>
  <property name="meta.media.color_range">mpeg</property>
  <property name="kdenlive:file_hash">5dd9e6db620b0ec18de076c8c58b1634</property>
  <property name="meta.media.top_field_first">0</property>
  <property name="meta.media.progressive">1</property>
 </producer>
 <producer id="producer79" in="00:00:00.000" out="00:00:39.733">
  <property name="length">1193</property>
  <property name="eof">pause</property>
  <property name="resource">content/consingan_paintings/summer_trees_2.mp4</property>
  <property name="audio_index">-1</property>
  <property name="video_index">0</property>
  <property name="mute_on_pause">0</property>
  <property name="mlt_service">avformat-novalidate</property>
  <property name="seekable">1</property>
  <property name="aspect_ratio">1</property>
  <property name="kdenlive:clipname">summer_trees_2.mp4</property>
  <property name="kdenlive:folderid">31</property>
  <property name="kdenlive:id">57</property>
  <property name="kdenlive:file_size">5681063</property>
  <property name="global_feed">1</property>
  <property name="meta.media.nb_streams">1</property>
  <property name="meta.media.0.stream.type">video</property>
  <property name="meta.media.0.stream.frame_rate">30</property>
  <property name="meta.media.0.stream.sample_aspect_ratio">0</property>
  <property name="meta.media.0.codec.width">912</property>
  <property name="meta.media.0.codec.height">720</property>
  <property name="meta.media.0.codec.rotate">0</property>
  <property name="meta.media.0.codec.frame_rate">30</property>
  <property name="meta.media.0.codec.pix_fmt">yuv420p</property>
  <property name="meta.media.0.codec.sample_aspect_ratio">0</property>
  <property name="meta.media.0.codec.colorspace">601</property>
  <property name="meta.media.0.codec.name">h264</property>
  <property name="meta.media.0.codec.long_name">H.264 / AVC / MPEG-4 AVC / MPEG-4 part 10</property>
  <property name="meta.media.0.codec.bit_rate">1139823</property>
  <property name="meta.attr.0.stream.handler_name.markup">VideoHandler</property>
  <property name="meta.attr.major_brand.markup">isom</property>
  <property name="meta.attr.minor_version.markup">512</property>
  <property name="meta.attr.compatible_brands.markup">isomiso2avc1mp41</property>
  <property name="meta.attr.encoder.markup">Lavf58.29.100</property>
  <property name="meta.media.sample_aspect_num">1</property>
  <property name="meta.media.sample_aspect_den">1</property>
  <property name="meta.media.frame_rate_num">30</property>
  <property name="meta.media.frame_rate_den">1</property>
  <property name="meta.media.colorspace">601</property>
  <property name="meta.media.color_trc">2</property>
  <property name="meta.media.width">912</property>
  <property name="meta.media.height">720</property>
  <property name="meta.media.color_range">mpeg</property>
  <property name="kdenlive:file_hash">082c3b51d37a2ce8d1f70d5f39ae06c5</property>
  <property name="meta.media.top_field_first">0</property>
  <property name="meta.media.progressive">1</property>
 </producer>
 <producer id="producer80" in="00:00:00.000" out="00:00:39.733">
  <property name="length">1193</property>
  <property name="eof">pause</property>
  <property name="resource">content/consingan_paintings/winter_homestead_1.mp4</property>
  <property name="audio_index">-1</property>
  <property name="video_index">0</property>
  <property name="mute_on_pause">0</property>
  <property name="mlt_service">avformat-novalidate</property>
  <property name="seekable">1</property>
  <property name="aspect_ratio">1</property>
  <property name="kdenlive:clipname">winter_homestead_1.mp4</property>
  <property name="kdenlive:folderid">31</property>
  <property name="kdenlive:id">58</property>
  <property name="kdenlive:file_size">10169553</property>
  <property name="global_feed">1</property>
  <property name="meta.media.nb_streams">1</property>
  <property name="meta.media.0.stream.type">video</property>
  <property name="meta.media.0.stream.frame_rate">30</property>
  <property name="meta.media.0.stream.sample_aspect_ratio">0</property>
  <property name="meta.media.0.codec.width">944</property>
  <property name="meta.media.0.codec.height">720</property>
  <property name="meta.media.0.codec.rotate">0</property>
  <property name="meta.media.0.codec.frame_rate">30</property>
  <property name="meta.media.0.codec.pix_fmt">yuv420p</property>
  <property name="meta.media.0.codec.sample_aspect_ratio">0</property>
  <property name="meta.media.0.codec.colorspace">601</property>
  <property name="meta.media.0.codec.name">h264</property>
  <property name="meta.media.0.codec.long_name">H.264 / AVC / MPEG-4 AVC / MPEG-4 part 10</property>
  <property name="meta.media.0.codec.bit_rate">2042771</property>
  <property name="meta.attr.0.stream.handler_name.markup">VideoHandler</property>
  <property name="meta.attr.major_brand.markup">isom</property>
  <property name="meta.attr.minor_version.markup">512</property>
  <property name="meta.attr.compatible_brands.markup">isomiso2avc1mp41</property>
  <property name="meta.attr.encoder.markup">Lavf58.29.100</property>
  <property name="meta.media.sample_aspect_num">1</property>
  <property name="meta.media.sample_aspect_den">1</property>
  <property name="meta.media.frame_rate_num">30</property>
  <property name="meta.media.frame_rate_den">1</property>
  <property name="meta.media.colorspace">601</property>
  <property name="meta.media.color_trc">2</property>
  <property name="meta.media.width">944</property>
  <property name="meta.media.height">720</property>
  <property name="meta.media.color_range">mpeg</property>
  <property name="kdenlive:file_hash">84c607985684aedb4597324fa7a4dd7b</property>
  <property name="meta.media.top_field_first">0</property>
  <property name="meta.media.progressive">1</property>
 </producer>
 <producer id="producer81" in="00:00:00.000" out="00:00:39.733">
  <property name="length">1193</property>
  <property name="eof">pause</property>
  <property name="resource">content/consingan_paintings/winter_homestead_2.mp4</property>
  <property name="audio_index">-1</property>
  <property name="video_index">0</property>
  <property name="mute_on_pause">0</property>
  <property name="mlt_service">avformat-novalidate</property>
  <property name="seekable">1</property>
  <property name="aspect_ratio">1</property>
  <property name="kdenlive:clipname">winter_homestead_2.mp4</property>
  <property name="kdenlive:folderid">31</property>
  <property name="kdenlive:id">59</property>
  <property name="kdenlive:file_size">7695363</property>
  <property name="global_feed">1</property>
  <property name="meta.media.nb_streams">1</property>
  <property name="meta.media.0.stream.type">video</property>
  <property name="meta.media.0.stream.frame_rate">30</property>
  <property name="meta.media.0.stream.sample_aspect_ratio">0</property>
  <property name="meta.media.0.codec.width">944</property>
  <property name="meta.media.0.codec.height">720</property>
  <property name="meta.media.0.codec.rotate">0</property>
  <property name="meta.media.0.codec.frame_rate">30</property>
  <property name="meta.media.0.codec.pix_fmt">yuv420p</property>
  <property name="meta.media.0.codec.sample_aspect_ratio">0</property>
  <property name="meta.media.0.codec.colorspace">601</property>
  <property name="meta.media.0.codec.name">h264</property>
  <property name="meta.media.0.codec.long_name">H.264 / AVC / MPEG-4 AVC / MPEG-4 part 10</property>
  <property name="meta.media.0.codec.bit_rate">1545038</property>
  <property name="meta.attr.0.stream.handler_name.markup">VideoHandler</property>
  <property name="meta.attr.major_brand.markup">isom</property>
  <property name="meta.attr.minor_version.markup">512</property>
  <property name="meta.attr.compatible_brands.markup">isomiso2avc1mp41</property>
  <property name="meta.attr.encoder.markup">Lavf58.29.100</property>
  <property name="meta.media.sample_aspect_num">1</property>
  <property name="meta.media.sample_aspect_den">1</property>
  <property name="meta.media.frame_rate_num">30</property>
  <property name="meta.media.frame_rate_den">1</property>
  <property name="meta.media.colorspace">601</property>
  <property name="meta.media.color_trc">2</property>
  <property name="meta.media.width">944</property>
  <property name="meta.media.height">720</property>
  <property name="meta.media.color_range">mpeg</property>
  <property name="kdenlive:file_hash">c4e43a19c3bd35e729ffbed46dd2242d</property>
  <property name="meta.media.top_field_first">0</property>
  <property name="meta.media.progressive">1</property>
 </producer>
 <producer id="producer37" in="00:00:00.000" out="00:00:08.567">
  <property name="length">258</property>
  <property name="eof">pause</property>
  <property name="resource">content/consingan_paintings/rowboats_mask.png</property>
  <property name="ttl">25</property>
  <property name="aspect_ratio">1</property>
  <property name="progressive">1</property>
  <property name="seekable">1</property>
  <property name="meta.media.width">912</property>
  <property name="meta.media.height">720</property>
  <property name="mlt_service">qimage</property>
  <property name="kdenlive:clipname">rowboats_mask.png</property>
  <property name="kdenlive:duration">00:00:05.000</property>
  <property name="kdenlive:folderid">31</property>
  <property name="kdenlive:id">60</property>
  <property name="kdenlive:file_size">721821</property>
  <property name="global_feed">1</property>
  <property name="kdenlive:file_hash">711c30ef07677198044d0bdc88c6e38e</property>
 </producer>
 <producer id="producer42" in="00:00:00.000" out="00:00:13.767">
  <property name="length">00:00:13.800</property>
  <property name="eof">pause</property>
  <property name="resource">content/consingan_paintings/seaman_mask.png</property>
  <property name="ttl">25</property>
  <property name="aspect_ratio">1</property>
  <property name="progressive">1</property>
  <property name="seekable">1</property>
  <property name="meta.media.width">908</property>
  <property name="meta.media.height">720</property>
  <property name="mlt_service">qimage</property>
  <property name="kdenlive:clipname">seaman_mask.png</property>
  <property name="kdenlive:duration">00:00:05.000</property>
  <property name="kdenlive:folderid">31</property>
  <property name="kdenlive:id">61</property>
  <property name="kdenlive:file_size">775575</property>
  <property name="global_feed">1</property>
  <property name="kdenlive:file_hash">36bc62d601c969365dacd5f4da5b8127</property>
 </producer>
 <producer id="producer29" in="00:00:00.000" out="00:00:39.733">
  <property name="length">1193</property>
  <property name="eof">pause</property>
  <property name="resource">content/consingan_paintings/reflections_1.mp4</property>
  <property name="audio_index">-1</property>
  <property name="video_index">0</property>
  <property name="mute_on_pause">0</property>
  <property name="mlt_service">avformat-novalidate</property>
  <property name="seekable">1</property>
  <property name="aspect_ratio">1</property>
  <property name="kdenlive:clipname">reflections_1.mp4</property>
  <property name="kdenlive:folderid">31</property>
  <property name="kdenlive:id">62</property>
  <property name="kdenlive:file_size">10299432</property>
  <property name="global_feed">1</property>
  <property name="meta.media.nb_streams">1</property>
  <property name="meta.media.0.stream.type">video</property>
  <property name="meta.media.0.stream.frame_rate">30</property>
  <property name="meta.media.0.stream.sample_aspect_ratio">0</property>
  <property name="meta.media.0.codec.width">944</property>
  <property name="meta.media.0.codec.height">720</property>
  <property name="meta.media.0.codec.rotate">0</property>
  <property name="meta.media.0.codec.frame_rate">30</property>
  <property name="meta.media.0.codec.pix_fmt">yuv420p</property>
  <property name="meta.media.0.codec.sample_aspect_ratio">0</property>
  <property name="meta.media.0.codec.colorspace">601</property>
  <property name="meta.media.0.codec.name">h264</property>
  <property name="meta.media.0.codec.long_name">H.264 / AVC / MPEG-4 AVC / MPEG-4 part 10</property>
  <property name="meta.media.0.codec.bit_rate">2068899</property>
  <property name="meta.attr.0.stream.handler_name.markup">VideoHandler</property>
  <property name="meta.attr.major_brand.markup">isom</property>
  <property name="meta.attr.minor_version.markup">512</property>
  <property name="meta.attr.compatible_brands.markup">isomiso2avc1mp41</property>
  <property name="meta.attr.encoder.markup">Lavf58.29.100</property>
  <property name="meta.media.sample_aspect_num">1</property>
  <property name="meta.media.sample_aspect_den">1</property>
  <property name="meta.media.frame_rate_num">30</property>
  <property name="meta.media.frame_rate_den">1</property>
  <property name="meta.media.colorspace">601</property>
  <property name="meta.media.color_trc">2</property>
  <property name="meta.media.width">944</property>
  <property name="meta.media.height">720</property>
  <property name="meta.media.color_range">mpeg</property>
  <property name="kdenlive:file_hash">8a1b3ade5ccd31cfea8b74913c79d054</property>
  <property name="meta.media.top_field_first">0</property>
  <property name="meta.media.progressive">1</property>
 </producer>
 <producer id="producer30" in="00:00:00.000" out="00:00:39.733">
  <property name="length">1193</property>
  <property name="eof">pause</property>
  <property name="resource">content/consingan_paintings/reflections_2.mp4</property>
  <property name="audio_index">-1</property>
  <property name="video_index">0</property>
  <property name="mute_on_pause">0</property>
  <property name="mlt_service">avformat-novalidate</property>
  <property name="seekable">1</property>
  <property name="aspect_ratio">1</property>
  <property name="kdenlive:clipname">reflections_2.mp4</property>
  <property name="kdenlive:folderid">31</property>
  <property name="kdenlive:id">63</property>
  <property name="kdenlive:file_size">8863580</property>
  <property name="global_feed">1</property>
  <property name="meta.media.nb_streams">1</property>
  <property name="meta.media.0.stream.type">video</property>
  <property name="meta.media.0.stream.frame_rate">30</property>
  <property name="meta.media.0.stream.sample_aspect_ratio">0</property>
  <property name="meta.media.0.codec.width">944</property>
  <property name="meta.media.0.codec.height">720</property>
  <property name="meta.media.0.codec.rotate">0</property>
  <property name="meta.media.0.codec.frame_rate">30</property>
  <property name="meta.media.0.codec.pix_fmt">yuv420p</property>
  <property name="meta.media.0.codec.sample_aspect_ratio">0</property>
  <property name="meta.media.0.codec.colorspace">601</property>
  <property name="meta.media.0.codec.name">h264</property>
  <property name="meta.media.0.codec.long_name">H.264 / AVC / MPEG-4 AVC / MPEG-4 part 10</property>
  <property name="meta.media.0.codec.bit_rate">1780047</property>
  <property name="meta.attr.0.stream.handler_name.markup">VideoHandler</property>
  <property name="meta.attr.major_brand.markup">isom</property>
  <property name="meta.attr.minor_version.markup">512</property>
  <property name="meta.attr.compatible_brands.markup">isomiso2avc1mp41</property>
  <property name="meta.attr.encoder.markup">Lavf58.29.100</property>
  <property name="meta.media.sample_aspect_num">1</property>
  <property name="meta.media.sample_aspect_den">1</property>
  <property name="meta.media.frame_rate_num">30</property>
  <property name="meta.media.frame_rate_den">1</property>
  <property name="meta.media.colorspace">601</property>
  <property name="meta.media.color_trc">2</property>
  <property name="meta.media.width">944</property>
  <property name="meta.media.height">720</property>
  <property name="meta.media.color_range">mpeg</property>
  <property name="kdenlive:file_hash">6bd201cc128fdf17ee0825cc82c258d8</property>
  <property name="meta.media.top_field_first">0</property>
  <property name="meta.media.progressive">1</property>
 </producer>
 <producer id="producer57" in="00:00:00.000" out="00:00:09.967">
  <property name="length">300</property>
  <property name="eof">pause</property>
  <property name="resource">content/animated_paintings/fall_sparkles_dance_start_scale=0_alpha=0.1_beta=0.8.mp4</property>
  <property name="audio_index">-1</property>
  <property name="video_index">0</property>
  <property name="mute_on_pause">0</property>
  <property name="mlt_service">avformat-novalidate</property>
  <property name="meta.media.nb_streams">1</property>
  <property name="meta.media.0.stream.type">video</property>
  <property name="meta.media.0.stream.frame_rate">10</property>
  <property name="meta.media.0.stream.sample_aspect_ratio">0</property>
  <property name="meta.media.0.codec.width">928</property>
  <property name="meta.media.0.codec.height">720</property>
  <property name="meta.media.0.codec.rotate">0</property>
  <property name="meta.media.0.codec.frame_rate">10</property>
  <property name="meta.media.0.codec.pix_fmt">yuv420p</property>
  <property name="meta.media.0.codec.sample_aspect_ratio">0</property>
  <property name="meta.media.0.codec.colorspace">601</property>
  <property name="meta.media.0.codec.name">h264</property>
  <property name="meta.media.0.codec.long_name">H.264 / AVC / MPEG-4 AVC / MPEG-4 part 10</property>
  <property name="meta.media.0.codec.bit_rate">3990723</property>
  <property name="meta.attr.0.stream.handler_name.markup">VideoHandler</property>
  <property name="meta.attr.0.stream.vendor_id.markup">[0][0][0][0]</property>
  <property name="meta.attr.major_brand.markup">isom</property>
  <property name="meta.attr.minor_version.markup">512</property>
  <property name="meta.attr.compatible_brands.markup">isomiso2avc1mp41</property>
  <property name="meta.attr.encoder.markup">Lavf58.29.100</property>
  <property name="seekable">1</property>
  <property name="meta.media.sample_aspect_num">1</property>
  <property name="meta.media.sample_aspect_den">1</property>
  <property name="aspect_ratio">1</property>
  <property name="kdenlive:clipname"/>
  <property name="kdenlive:folderid">30</property>
  <property name="meta.media.frame_rate_num">10</property>
  <property name="meta.media.frame_rate_den">1</property>
  <property name="meta.media.colorspace">601</property>
  <property name="meta.media.color_trc">2</property>
  <property name="meta.media.width">928</property>
  <property name="meta.media.height">720</property>
  <property name="meta.media.color_range">mpeg</property>
  <property name="kdenlive:id">64</property>
  <property name="kdenlive:file_size">4990397</property>
  <property name="kdenlive:file_hash">797d773b5d7b1b0f6410562990eacb76</property>
  <property name="meta.media.top_field_first">0</property>
  <property name="meta.media.progressive">1</property>
  <property name="global_feed">1</property>
 </producer>
 <producer id="producer58" in="00:00:00.000" out="00:00:33.633">
  <property name="length">1010</property>
  <property name="eof">pause</property>
  <property name="resource">/home/ryankelln/Documents/Projects/Active/Sound_Escapes/Suzy/animated_landscapes/fall_fence.avi</property>
  <property name="audio_index">-1</property>
  <property name="video_index">0</property>
  <property name="mute_on_pause">0</property>
  <property name="mlt_service">avformat-novalidate</property>
  <property name="meta.media.nb_streams">1</property>
  <property name="meta.media.0.stream.type">video</property>
  <property name="meta.media.0.stream.frame_rate">30</property>
  <property name="meta.media.0.stream.sample_aspect_ratio">0</property>
  <property name="meta.media.0.codec.width">940</property>
  <property name="meta.media.0.codec.height">720</property>
  <property name="meta.media.0.codec.rotate">0</property>
  <property name="meta.media.0.codec.frame_rate">30</property>
  <property name="meta.media.0.codec.pix_fmt">yuv420p</property>
  <property name="meta.media.0.codec.sample_aspect_ratio">1</property>
  <property name="meta.media.0.codec.colorspace">601</property>
  <property name="meta.media.0.codec.name">mpeg4</property>
  <property name="meta.media.0.codec.long_name">MPEG-4 part 2</property>
  <property name="meta.media.0.codec.bit_rate">8710462</property>
  <property name="meta.attr.software.markup">Lavf58.61.100</property>
  <property name="seekable">1</property>
  <property name="meta.media.sample_aspect_num">1</property>
  <property name="meta.media.sample_aspect_den">1</property>
  <property name="aspect_ratio">1</property>
  <property name="kdenlive:clipname"/>
  <property name="kdenlive:folderid">30</property>
  <property name="meta.media.frame_rate_num">30</property>
  <property name="meta.media.frame_rate_den">1</property>
  <property name="meta.media.colorspace">601</property>
  <property name="meta.media.color_trc">2</property>
  <property name="meta.media.width">940</property>
  <property name="meta.media.height">720</property>
  <property name="meta.media.color_range">mpeg</property>
  <property name="kdenlive:id">65</property>
  <property name="kdenlive:file_size">36650704</property>
  <property name="kdenlive:file_hash">d4dc533d0de9ce7d5f95144e6e83ffa9</property>
  <property name="meta.media.top_field_first">0</property>
  <property name="meta.media.progressive">1</property>
  <property name="global_feed">1</property>
  <property name="meta.attr.encoder.markup">Lavf58.61.100</property>
 </producer>
 <producer id="producer59" in="00:00:00.000" out="00:00:33.633">
  <property name="length">1010</property>
  <property name="eof">pause</property>
  <property name="resource">content/animated_paintings/fall_clouds_trippy.avi</property>
  <property name="audio_index">-1</property>
  <property name="video_index">0</property>
  <property name="mute_on_pause">0</property>
  <property name="mlt_service">avformat-novalidate</property>
  <property name="meta.media.nb_streams">1</property>
  <property name="meta.media.0.stream.type">video</property>
  <property name="meta.media.0.stream.frame_rate">30</property>
  <property name="meta.media.0.stream.sample_aspect_ratio">0</property>
  <property name="meta.media.0.codec.width">900</property>
  <property name="meta.media.0.codec.height">720</property>
  <property name="meta.media.0.codec.rotate">0</property>
  <property name="meta.media.0.codec.frame_rate">30</property>
  <property name="meta.media.0.codec.pix_fmt">yuv420p</property>
  <property name="meta.media.0.codec.sample_aspect_ratio">1</property>
  <property name="meta.media.0.codec.colorspace">601</property>
  <property name="meta.media.0.codec.name">mpeg4</property>
  <property name="meta.media.0.codec.long_name">MPEG-4 part 2</property>
  <property name="meta.media.0.codec.bit_rate">6848584</property>
  <property name="meta.attr.software.markup">Lavf58.61.100</property>
  <property name="seekable">1</property>
  <property name="meta.media.sample_aspect_num">1</property>
  <property name="meta.media.sample_aspect_den">1</property>
  <property name="aspect_ratio">1</property>
  <property name="kdenlive:clipname"/>
  <property name="kdenlive:folderid">30</property>
  <property name="meta.media.frame_rate_num">30</property>
  <property name="meta.media.frame_rate_den">1</property>
  <property name="meta.media.colorspace">601</property>
  <property name="meta.media.color_trc">2</property>
  <property name="meta.media.width">900</property>
  <property name="meta.media.height">720</property>
  <property name="meta.media.color_range">mpeg</property>
  <property name="kdenlive:id">66</property>
  <property name="kdenlive:file_size">28823038</property>
  <property name="kdenlive:file_hash">b844cefd3776395c104c9c6b0d062669</property>
  <property name="meta.media.top_field_first">0</property>
  <property name="meta.media.progressive">1</property>
  <property name="global_feed">1</property>
  <property name="meta.attr.encoder.markup">Lavf58.61.100</property>
 </producer>
 <producer id="producer60" in="00:00:00.000" out="00:00:39.333">
  <property name="length">1181</property>
  <property name="eof">pause</property>
  <property name="resource">/home/ryankelln/Documents/Projects/Active/Sound_Escapes/Suzy/animated_landscapes/shader_fall_fence.mp4</property>
  <property name="audio_index">-1</property>
  <property name="video_index">0</property>
  <property name="mute_on_pause">0</property>
  <property name="mlt_service">avformat-novalidate</property>
  <property name="meta.media.nb_streams">1</property>
  <property name="meta.media.0.stream.type">video</property>
  <property name="meta.media.0.stream.frame_rate">30</property>
  <property name="meta.media.0.stream.sample_aspect_ratio">1</property>
  <property name="meta.media.0.codec.width">1282</property>
  <property name="meta.media.0.codec.height">724</property>
  <property name="meta.media.0.codec.rotate">0</property>
  <property name="meta.media.0.codec.frame_rate">30</property>
  <property name="meta.media.0.codec.pix_fmt">yuv444p</property>
  <property name="meta.media.0.codec.sample_aspect_ratio">1</property>
  <property name="meta.media.0.codec.colorspace">709</property>
  <property name="meta.media.0.codec.color_trc">1</property>
  <property name="meta.media.0.codec.name">h264</property>
  <property name="meta.media.0.codec.long_name">H.264 / AVC / MPEG-4 AVC / MPEG-4 part 10</property>
  <property name="meta.media.0.codec.bit_rate">40728601</property>
  <property name="meta.attr.0.stream.creation_time.markup">2021-05-19T17:46:30.000000Z</property>
  <property name="meta.attr.0.stream.handler_name.markup">VideoHandler</property>
  <property name="meta.attr.0.stream.vendor_id.markup">[0][0][0][0]</property>
  <property name="meta.attr.major_brand.markup">mp42</property>
  <property name="meta.attr.minor_version.markup">0</property>
  <property name="meta.attr.compatible_brands.markup">mp42mp41isomiso2</property>
  <property name="meta.attr.creation_time.markup">2021-05-19T17:46:30.000000Z</property>
  <property name="meta.attr.encoder.markup">x264</property>
  <property name="seekable">1</property>
  <property name="meta.media.sample_aspect_num">1</property>
  <property name="meta.media.sample_aspect_den">1</property>
  <property name="aspect_ratio">1</property>
  <property name="kdenlive:clipname"/>
  <property name="kdenlive:folderid">30</property>
  <property name="meta.media.frame_rate_num">30</property>
  <property name="meta.media.frame_rate_den">1</property>
  <property name="meta.media.colorspace">709</property>
  <property name="meta.media.color_trc">1</property>
  <property name="meta.media.width">1282</property>
  <property name="meta.media.height">724</property>
  <property name="meta.media.color_range">mpeg</property>
  <property name="kdenlive:id">67</property>
  <property name="kdenlive:file_size">200424318</property>
  <property name="kdenlive:file_hash">51953cc5dd3212d50886c12268507a5d</property>
  <property name="meta.media.top_field_first">0</property>
  <property name="meta.media.progressive">1</property>
  <property name="kdenlive:zone_in">460</property>
  <property name="kdenlive:zone_out">878</property>
  <property name="kdenlive:clipzones">[
    {
        "in": 460,
        "name": "Zone 1",
        "out": 878
    }
]
</property>
  <property name="global_feed">1</property>
 </producer>
 <producer id="producer61" in="00:00:00.000" out="00:05:12.467">
  <property name="length">9375</property>
  <property name="eof">pause</property>
  <property name="resource">/media/storage/media/Videos/mine/music_landscapes/2021-05-30/rehearsal2_Caleb_upright+portrait+gs_6_suzy.MP4</property>
  <property name="audio_index">1</property>
  <property name="video_index">0</property>
  <property name="mute_on_pause">0</property>
  <property name="mlt_service">avformat-novalidate</property>
  <property name="meta.media.nb_streams">3</property>
  <property name="meta.media.0.stream.type">video</property>
  <property name="meta.media.0.stream.frame_rate">24</property>
  <property name="meta.media.0.stream.sample_aspect_ratio">0</property>
  <property name="meta.media.0.codec.width">1920</property>
  <property name="meta.media.0.codec.height">1080</property>
  <property name="meta.media.0.codec.rotate">0</property>
  <property name="meta.media.0.codec.frame_rate">24</property>
  <property name="meta.media.0.codec.pix_fmt">yuv420p</property>
  <property name="meta.media.0.codec.sample_aspect_ratio">1</property>
  <property name="meta.media.0.codec.colorspace">709</property>
  <property name="meta.media.0.codec.color_trc">1</property>
  <property name="meta.media.0.codec.name">h264</property>
  <property name="meta.media.0.codec.long_name">H.264 / AVC / MPEG-4 AVC / MPEG-4 part 10</property>
  <property name="meta.media.0.codec.bit_rate">53249968</property>
  <property name="meta.attr.0.stream.creation_time.markup">2021-05-30T17:15:45.000000Z</property>
  <property name="meta.attr.0.stream.vendor_id.markup">[0][0][0][0]</property>
  <property name="meta.attr.0.stream.timecode.markup">10:52:49:15</property>
  <property name="meta.media.1.stream.type">audio</property>
  <property name="meta.media.1.codec.sample_fmt">s16</property>
  <property name="meta.media.1.codec.sample_rate">48000</property>
  <property name="meta.media.1.codec.channels">2</property>
  <property name="meta.media.1.codec.name">pcm_s16be</property>
  <property name="meta.media.1.codec.long_name">PCM signed 16-bit big-endian</property>
  <property name="meta.media.1.codec.bit_rate">1536000</property>
  <property name="meta.attr.1.stream.creation_time.markup">2021-05-30T17:15:45.000000Z</property>
  <property name="meta.attr.1.stream.vendor_id.markup">pana</property>
  <property name="meta.attr.1.stream.timecode.markup">10:52:49:15</property>
  <property name="meta.attr.major_brand.markup">mp42</property>
  <property name="meta.attr.minor_version.markup">1</property>
  <property name="meta.attr.compatible_brands.markup">mp42avc1</property>
  <property name="meta.attr.creation_time.markup">2021-05-30T17:15:45.000000Z</property>
  <property name="seekable">1</property>
  <property name="meta.media.sample_aspect_num">1</property>
  <property name="meta.media.sample_aspect_den">1</property>
  <property name="aspect_ratio">1</property>
  <property name="kdenlive:clipname"/>
  <property name="kdenlive:folderid">30</property>
  <property name="meta.media.frame_rate_num">24</property>
  <property name="meta.media.frame_rate_den">1</property>
  <property name="meta.media.colorspace">709</property>
  <property name="meta.media.color_trc">1</property>
  <property name="meta.media.width">1920</property>
  <property name="meta.media.height">1080</property>
  <property name="meta.media.color_range">mpeg</property>
  <property name="kdenlive:id">68</property>
  <property name="kdenlive:file_size">2140369052</property>
  <property name="kdenlive:file_hash">89163b7b218d1ddfdffcd346c7e8f2f6</property>
  <property name="kdenlive:audio_max">1</property>
  <property name="meta.media.top_field_first">0</property>
  <property name="meta.media.progressive">1</property>
  <property name="kdenlive:zone_in">554</property>
  <property name="kdenlive:zone_out">1999</property>
  <property name="kdenlive:clipzones">[
    {
        "in": 554,
        "name": "Zone 1",
        "out": 1999
    }
]
</property>
  <property name="kdenlive:active_streams">-1</property>
  <property name="global_feed">1</property>
 </producer>
 <producer id="producer62" in="00:00:00.000" out="00:06:40.667">
  <property name="length">12021</property>
  <property name="eof">pause</property>
  <property name="resource">20210602_SpectrumMusic-SoundEscapes-Suzy EDIT1.wav</property>
  <property name="meta.media.nb_streams">1</property>
  <property name="meta.media.0.stream.type">audio</property>
  <property name="meta.media.0.codec.sample_fmt">s32</property>
  <property name="meta.media.0.codec.sample_rate">48000</property>
  <property name="meta.media.0.codec.channels">2</property>
  <property name="meta.media.0.codec.name">pcm_s24le</property>
  <property name="meta.media.0.codec.long_name">PCM signed 24-bit little-endian</property>
  <property name="meta.media.0.codec.bit_rate">2304000</property>
  <property name="meta.attr.encoded_by.markup">Pro Tools</property>
  <property name="meta.attr.originator_reference.markup">aui8NBLUJxRk</property>
  <property name="meta.attr.date.markup">2021-06-11</property>
  <property name="meta.attr.creation_time.markup">13:03:07</property>
  <property name="meta.attr.time_reference.markup">111776775</property>
  <property name="meta.attr.umid.markup">0x060A2B340101010501010F1013000000B5E3BA56E7F085001131005056C00001</property>
  <property name="seekable">1</property>
  <property name="audio_index">0</property>
  <property name="video_index">-1</property>
  <property name="mute_on_pause">1</property>
  <property name="mlt_service">avformat</property>
  <property name="kdenlive:clipname"/>
  <property name="kdenlive:folderid">-1</property>
  <property name="kdenlive:id">69</property>
  <property name="kdenlive:file_size">116009214</property>
  <property name="kdenlive:file_hash">e92064d49b478fe21f36da128feab741</property>
  <property name="kdenlive:audio_max">1</property>
  <property name="global_feed">1</property>
  <property name="kdenlive:zone_in">0</property>
  <property name="kdenlive:zone_out">12021</property>
 </producer>
 <producer id="producer63" in="00:00:00.000" out="00:01:34.067">
  <property name="length">2823</property>
  <property name="eof">pause</property>
  <property name="resource">content/musicians/2021-06-02_143431_Sarah_kit+handheld_suzy-take1_beginning.mp4</property>
  <property name="audio_index">1</property>
  <property name="video_index">0</property>
  <property name="mute_on_pause">0</property>
  <property name="mlt_service">avformat-novalidate</property>
  <property name="meta.media.nb_streams">2</property>
  <property name="meta.media.0.stream.type">video</property>
  <property name="meta.media.0.stream.frame_rate">59.9401</property>
  <property name="meta.media.0.stream.sample_aspect_ratio">1</property>
  <property name="meta.media.0.codec.width">1920</property>
  <property name="meta.media.0.codec.height">1080</property>
  <property name="meta.media.0.codec.rotate">0</property>
  <property name="meta.media.0.codec.frame_rate">59.9401</property>
  <property name="meta.media.0.codec.pix_fmt">yuv420p</property>
  <property name="meta.media.0.codec.sample_aspect_ratio">1</property>
  <property name="meta.media.0.codec.colorspace">709</property>
  <property name="meta.media.0.codec.name">h264</property>
  <property name="meta.media.0.codec.long_name">H.264 / AVC / MPEG-4 AVC / MPEG-4 part 10</property>
  <property name="meta.media.0.codec.bit_rate">24866432</property>
  <property name="meta.attr.0.stream.handler_name.markup">VideoHandler</property>
  <property name="meta.media.1.stream.type">audio</property>
  <property name="meta.media.1.codec.sample_fmt">fltp</property>
  <property name="meta.media.1.codec.sample_rate">48000</property>
  <property name="meta.media.1.codec.channels">6</property>
  <property name="meta.media.1.codec.name">ac3</property>
  <property name="meta.media.1.codec.long_name">ATSC A/52A (AC-3)</property>
  <property name="meta.media.1.codec.bit_rate">448000</property>
  <property name="meta.attr.1.stream.handler_name.markup">SoundHandler</property>
  <property name="meta.attr.major_brand.markup">isom</property>
  <property name="meta.attr.minor_version.markup">512</property>
  <property name="meta.attr.compatible_brands.markup">isomiso2avc1mp41</property>
  <property name="meta.attr.encoder.markup">Lavf58.45.100</property>
  <property name="seekable">1</property>
  <property name="meta.media.sample_aspect_num">1</property>
  <property name="meta.media.sample_aspect_den">1</property>
  <property name="aspect_ratio">1</property>
  <property name="kdenlive:clipname"/>
  <property name="kdenlive:folderid">103</property>
  <property name="meta.media.frame_rate_num">507600000</property>
  <property name="meta.media.frame_rate_den">8468459</property>
  <property name="meta.media.colorspace">709</property>
  <property name="meta.media.color_trc">2</property>
  <property name="meta.media.width">1920</property>
  <property name="meta.media.height">1080</property>
  <property name="meta.media.color_range">mpeg</property>
  <property name="kdenlive:id">70</property>
  <property name="kdenlive:file_size">297842108</property>
  <property name="kdenlive:file_hash">04a9c6995c6e373f2f06c73872698831</property>
  <property name="kdenlive:audio_max">4</property>
  <property name="meta.media.top_field_first">0</property>
  <property name="meta.media.progressive">1</property>
  <property name="global_feed">1</property>
 </producer>
 <producer id="producer64" in="00:00:00.000" out="00:01:35.100">
  <property name="length">2854</property>
  <property name="eof">pause</property>
  <property name="resource">content/musicians/2021-06-02_144247_Sarah_kit+handheld_suzy-take4_end.mp4</property>
  <property name="audio_index">1</property>
  <property name="video_index">0</property>
  <property name="mute_on_pause">0</property>
  <property name="mlt_service">avformat-novalidate</property>
  <property name="meta.media.nb_streams">2</property>
  <property name="meta.media.0.stream.type">video</property>
  <property name="meta.media.0.stream.frame_rate">59.9401</property>
  <property name="meta.media.0.stream.sample_aspect_ratio">1</property>
  <property name="meta.media.0.codec.width">1920</property>
  <property name="meta.media.0.codec.height">1080</property>
  <property name="meta.media.0.codec.rotate">0</property>
  <property name="meta.media.0.codec.frame_rate">59.9401</property>
  <property name="meta.media.0.codec.pix_fmt">yuv420p</property>
  <property name="meta.media.0.codec.sample_aspect_ratio">1</property>
  <property name="meta.media.0.codec.colorspace">709</property>
  <property name="meta.media.0.codec.name">h264</property>
  <property name="meta.media.0.codec.long_name">H.264 / AVC / MPEG-4 AVC / MPEG-4 part 10</property>
  <property name="meta.media.0.codec.bit_rate">25000293</property>
  <property name="meta.attr.0.stream.handler_name.markup">VideoHandler</property>
  <property name="meta.media.1.stream.type">audio</property>
  <property name="meta.media.1.codec.sample_fmt">fltp</property>
  <property name="meta.media.1.codec.sample_rate">48000</property>
  <property name="meta.media.1.codec.channels">6</property>
  <property name="meta.media.1.codec.name">ac3</property>
  <property name="meta.media.1.codec.long_name">ATSC A/52A (AC-3)</property>
  <property name="meta.media.1.codec.bit_rate">448000</property>
  <property name="meta.attr.1.stream.handler_name.markup">SoundHandler</property>
  <property name="meta.attr.major_brand.markup">isom</property>
  <property name="meta.attr.minor_version.markup">512</property>
  <property name="meta.attr.compatible_brands.markup">isomiso2avc1mp41</property>
  <property name="meta.attr.encoder.markup">Lavf58.45.100</property>
  <property name="seekable">1</property>
  <property name="meta.media.sample_aspect_num">1</property>
  <property name="meta.media.sample_aspect_den">1</property>
  <property name="aspect_ratio">1</property>
  <property name="kdenlive:clipname"/>
  <property name="kdenlive:folderid">103</property>
  <property name="meta.media.frame_rate_num">508050000</property>
  <property name="meta.media.frame_rate_den">8475967</property>
  <property name="meta.media.colorspace">709</property>
  <property name="meta.media.color_trc">2</property>
  <property name="meta.media.width">1920</property>
  <property name="meta.media.height">1080</property>
  <property name="meta.media.color_range">mpeg</property>
  <property name="kdenlive:id">71</property>
  <property name="kdenlive:file_size">299734715</property>
  <property name="kdenlive:file_hash">f96a1482bc35f5870841b7f9548b262e</property>
  <property name="kdenlive:audio_max">4</property>
  <property name="meta.media.top_field_first">0</property>
  <property name="meta.media.progressive">1</property>
  <property name="global_feed">1</property>
 </producer>
 <producer id="producer66" in="00:00:00.000" out="00:03:53.467">
  <property name="length">7005</property>
  <property name="eof">pause</property>
  <property name="resource">/home/ryankelln/.cache/kdenlive/proxy/e4a6fa5f8146f0aeb0d5df779ec987df.mkv</property>
  <property name="audio_index">1</property>
  <property name="video_index">0</property>
  <property name="mute_on_pause">0</property>
  <property name="mlt_service">avformat-novalidate</property>
  <property name="seekable">1</property>
  <property name="aspect_ratio">1</property>
  <property name="kdenlive:clipname">2021-02-06_Chris_piano+4k_suzy_P1180151-take1_beginning_to_F.MP4</property>
  <property name="kdenlive:folderid">103</property>
  <property name="kdenlive:id">72</property>
  <property name="kdenlive:file_size">2799439497</property>
  <property name="kdenlive:file_hash">e4a6fa5f8146f0aeb0d5df779ec987df</property>
  <property name="kdenlive:audio_max">1</property>
  <property name="kdenlive:proxy">/home/ryankelln/.cache/kdenlive/proxy/e4a6fa5f8146f0aeb0d5df779ec987df.mkv</property>
  <property name="kdenlive:originalurl">content/musicians/2021-02-06_Chris_piano+4k_suzy_P1180151-take1_beginning_to_F.MP4</property>
  <property name="kdenlive:original.mlt_type">producer</property>
  <property name="kdenlive:original.in">00:00:00.000</property>
  <property name="kdenlive:original.out">00:03:53.467</property>
  <property name="kdenlive:original.length">7005</property>
  <property name="kdenlive:original.eof">pause</property>
  <property name="kdenlive:original.resource">content/musicians/2021-02-06_Chris_piano+4k_suzy_P1180151-take1_beginning_to_F.MP4</property>
  <property name="kdenlive:original.meta.media.nb_streams">2</property>
  <property name="kdenlive:original.meta.media.0.stream.type">video</property>
  <property name="kdenlive:original.meta.media.0.stream.frame_rate">29.97</property>
  <property name="kdenlive:original.meta.media.0.stream.sample_aspect_ratio">1</property>
  <property name="kdenlive:original.meta.media.0.codec.width">3840</property>
  <property name="kdenlive:original.meta.media.0.codec.height">2160</property>
  <property name="kdenlive:original.meta.media.0.codec.rotate">0</property>
  <property name="kdenlive:original.meta.media.0.codec.frame_rate">29.97</property>
  <property name="kdenlive:original.meta.media.0.codec.pix_fmt">yuvj420p</property>
  <property name="kdenlive:original.meta.media.0.codec.sample_aspect_ratio">1</property>
  <property name="kdenlive:original.meta.media.0.codec.colorspace">709</property>
  <property name="kdenlive:original.meta.media.0.codec.color_trc">1</property>
  <property name="kdenlive:original.meta.media.0.codec.name">h264</property>
  <property name="kdenlive:original.meta.media.0.codec.long_name">H.264 / AVC / MPEG-4 AVC / MPEG-4 part 10</property>
  <property name="kdenlive:original.meta.media.0.codec.bit_rate">95792075</property>
  <property name="kdenlive:original.meta.attr.0.stream.creation_time.markup">2021-06-02T14:28:00.000000Z</property>
  <property name="kdenlive:original.meta.attr.0.stream.handler_name.markup">VideoHandler</property>
  <property name="kdenlive:original.meta.media.1.stream.type">audio</property>
  <property name="kdenlive:original.meta.media.1.codec.sample_fmt">fltp</property>
  <property name="kdenlive:original.meta.media.1.codec.sample_rate">48000</property>
  <property name="kdenlive:original.meta.media.1.codec.channels">2</property>
  <property name="kdenlive:original.meta.media.1.codec.name">aac</property>
  <property name="kdenlive:original.meta.media.1.codec.long_name">AAC (Advanced Audio Coding)</property>
  <property name="kdenlive:original.meta.media.1.codec.bit_rate">125374</property>
  <property name="kdenlive:original.meta.attr.1.stream.creation_time.markup">2021-06-02T14:28:00.000000Z</property>
  <property name="kdenlive:original.meta.attr.1.stream.handler_name.markup">SoundHandler</property>
  <property name="kdenlive:original.meta.attr.major_brand.markup">isom</property>
  <property name="kdenlive:original.meta.attr.minor_version.markup">512</property>
  <property name="kdenlive:original.meta.attr.compatible_brands.markup">isomiso2avc1mp41</property>
  <property name="kdenlive:original.meta.attr.creation_time.markup">2021-06-02T14:28:00.000000Z</property>
  <property name="kdenlive:original.meta.attr.encoder.markup">Lavf58.45.100</property>
  <property name="kdenlive:original.seekable">1</property>
  <property name="kdenlive:original.width">3840</property>
  <property name="kdenlive:original.height">2160</property>
  <property name="kdenlive:original.meta.media.sample_aspect_num">1</property>
  <property name="kdenlive:original.meta.media.sample_aspect_den">1</property>
  <property name="kdenlive:original.aspect_ratio">1</property>
  <property name="kdenlive:original.audio_index">1</property>
  <property name="kdenlive:original.video_index">0</property>
  <property name="kdenlive:original.mute_on_pause">0</property>
  <property name="kdenlive:original.mlt_service">avformat-novalidate</property>
  <property name="kdenlive:original.kdenlive:folderid">103</property>
  <property name="kdenlive:original.meta.media.frame_rate_num">30000</property>
  <property name="kdenlive:original.meta.media.frame_rate_den">1001</property>
  <property name="kdenlive:original.meta.media.colorspace">709</property>
  <property name="kdenlive:original.meta.media.color_trc">1</property>
  <property name="kdenlive:original.meta.media.width">3840</property>
  <property name="kdenlive:original.meta.media.height">2160</property>
  <property name="kdenlive:original.meta.media.color_range">full</property>
  <property name="kdenlive:original.kdenlive:id">106</property>
  <property name="kdenlive:original.kdenlive:file_size">2799439497</property>
  <property name="kdenlive:original.kdenlive:file_hash">e4a6fa5f8146f0aeb0d5df779ec987df</property>
  <property name="kdenlive:original.kdenlive:audio_max">1</property>
  <property name="kdenlive:original.meta.media.top_field_first">0</property>
  <property name="kdenlive:original.meta.media.progressive">1</property>
  <property name="kdenlive:original.backup">1</property>
  <property name="global_feed">1</property>
  <property name="meta.media.nb_streams">2</property>
  <property name="meta.media.0.stream.type">video</property>
  <property name="meta.media.0.stream.frame_rate">29.97</property>
  <property name="meta.media.0.stream.sample_aspect_ratio">1</property>
  <property name="meta.media.0.codec.width">960</property>
  <property name="meta.media.0.codec.height">540</property>
  <property name="meta.media.0.codec.rotate">0</property>
  <property name="meta.media.0.codec.frame_rate">1000</property>
  <property name="meta.media.0.codec.pix_fmt">yuvj420p</property>
  <property name="meta.media.0.codec.sample_aspect_ratio">1</property>
  <property name="meta.media.0.codec.colorspace">601</property>
  <property name="meta.media.0.codec.name">mjpeg</property>
  <property name="meta.media.0.codec.long_name">MJPEG (Motion JPEG)</property>
  <property name="meta.media.0.codec.bit_rate">0</property>
  <property name="meta.attr.0.stream.HANDLER_NAME.markup">VideoHandler</property>
  <property name="meta.attr.0.stream.ENCODER.markup">Lavc58.91.100 mjpeg</property>
  <property name="meta.attr.0.stream.DURATION.markup">00:03:53.566000000</property>
  <property name="meta.media.1.stream.type">audio</property>
  <property name="meta.media.1.codec.sample_fmt">s16</property>
  <property name="meta.media.1.codec.sample_rate">48000</property>
  <property name="meta.media.1.codec.channels">2</property>
  <property name="meta.media.1.codec.name">pcm_s16le</property>
  <property name="meta.media.1.codec.long_name">PCM signed 16-bit little-endian</property>
  <property name="meta.media.1.codec.bit_rate">1536000</property>
  <property name="meta.attr.1.stream.HANDLER_NAME.markup">SoundHandler</property>
  <property name="meta.attr.1.stream.ENCODER.markup">Lavc58.91.100 pcm_s16le</property>
  <property name="meta.attr.1.stream.DURATION.markup">00:03:53.514000000</property>
  <property name="meta.attr.COMPATIBLE_BRANDS.markup">isomiso2avc1mp41</property>
  <property name="meta.attr.MAJOR_BRAND.markup">isom</property>
  <property name="meta.attr.MINOR_VERSION.markup">512</property>
  <property name="meta.attr.ENCODER.markup">Lavf58.45.100</property>
  <property name="meta.media.sample_aspect_num">1</property>
  <property name="meta.media.sample_aspect_den">1</property>
  <property name="meta.media.frame_rate_num">30000</property>
  <property name="meta.media.frame_rate_den">1001</property>
  <property name="meta.media.colorspace">601</property>
  <property name="meta.media.color_trc">2</property>
  <property name="meta.media.width">960</property>
  <property name="meta.media.height">540</property>
  <property name="meta.media.color_range">full</property>
  <property name="meta.media.top_field_first">0</property>
  <property name="meta.media.progressive">1</property>
  <property name="kdenlive:activeeffect">1</property>
  <filter id="filter0">
   <property name="version">0.1</property>
   <property name="mlt_service">frei0r.hqdn3d</property>
   <property name="kdenlive_id">frei0r.hqdn3d</property>
   <property name="Spatial">00:00:00.000=0.01</property>
   <property name="Temporal">00:00:00.000=0.01</property>
   <property name="kdenlive:collapsed">0</property>
  </filter>
  <filter id="filter1">
   <property name="version">0.6</property>
   <property name="mlt_service">frei0r.select0r</property>
   <property name="kdenlive_id">frei0r.select0r</property>
   <property name="Color to select">0x739c69ff</property>
   <property name="Invert selection">1</property>
   <property name="Selection subspace">1</property>
   <property name="Subspace shape">0</property>
   <property name="Edge mode">0.9</property>
   <property name="Delta R / A / Hue">00:00:00.000=0.065</property>
   <property name="Delta G / B / Chroma">00:00:00.000=0.09</property>
   <property name="Delta B / I / I">00:00:00.000=0.24</property>
   <property name="Slope">00:00:00.000=0.075</property>
   <property name="Operation">0.5</property>
   <property name="kdenlive:collapsed">0</property>
   <property name="disable">0</property>
  </filter>
  <filter id="filter2">
   <property name="mode">alpha</property>
   <property name="alpha_operation">add</property>
   <property name="invert">0</property>
   <property name="feather">5</property>
   <property name="feather_passes">1</property>
   <property name="mlt_service">rotoscoping</property>
   <property name="kdenlive_id">rotoscoping</property>
   <property name="spline">{
    "0000": [
        [
            [
                -0.069811320754717,
                0.37462686567164183
            ],
            [
                -0.06184486373165619,
                0.17164179104477612
            ],
            [
                -0.005660377358490565,
                0.17537313432835822
            ]
        ],
        [
            [
                0.1628930817610063,
                0.18656716417910446
            ],
            [
                0.21907756813417192,
                0.19029850746268656
            ],
            [
                0.21907756813417192,
                0.19776119402985076
            ]
        ],
        [
            [
                0.21907756813417192,
                0.22014925373134328
            ],
            [
                0.21907756813417192,
                0.22761194029850748
            ],
            [
                0.22746331236897274,
                0.22537313432835823
            ]
        ],
        [
            [
                0.2526205450733753,
                0.21865671641791046
            ],
            [
                0.2610062893081761,
                0.2164179104477612
            ],
            [
                0.27693920335429767,
                0.2485074626865672
            ]
        ],
        [
            [
                0.32473794549266244,
                0.3447761194029851
            ],
            [
                0.34067085953878407,
                0.3768656716417911
            ],
            [
                0.35576519916142557,
                0.37835820895522393
            ]
        ],
        [
            [
                0.40104821802935015,
                0.38283582089552237
            ],
            [
                0.41614255765199165,
                0.3843283582089552
            ],
            [
                0.4157232704402516,
                0.40223880597014927
            ]
        ],
        [
            [
                0.4144654088050314,
                0.45597014925373136
            ],
            [
                0.4140461215932914,
                0.47388059701492535
            ],
            [
                0.42075471698113204,
                0.491044776119403
            ]
        ],
        [
            [
                0.44088050314465405,
                0.5425373134328358
            ],
            [
                0.44758909853249473,
                0.5597014925373135
            ],
            [
                0.45555555555555555,
                0.5611940298507463
            ]
        ],
        [
            [
                0.47945492662473793,
                0.5656716417910448
            ],
            [
                0.4874213836477987,
                0.5671641791044776
            ],
            [
                0.48951781970649894,
                0.5813432835820895
            ]
        ],
        [
            [
                0.4958071278825996,
                0.6238805970149254
            ],
            [
                0.4979035639412998,
                0.6380597014925373
            ],
            [
                0.4849056603773585,
                0.7194029850746269
            ]
        ],
        [
            [
                0.4459119496855346,
                0.9634328358208955
            ],
            [
                0.4329140461215933,
                1.0447761194029852
            ],
            [
                0.3259958071278826,
                1.073134328358209
            ]
        ],
        [
            [
                0.005241090146750516,
                1.1582089552238806
            ],
            [
                -0.10167714884696016,
                1.1865671641791045
            ],
            [
                -0.09371069182389938,
                0.9835820895522389
            ]
        ]
    ],
    "0001": [
        [
            [
                -0.069811320754717,
                0.37462686567164183
            ],
            [
                -0.06184486373165619,
                0.17164179104477612
            ],
            [
                -0.005660377358490565,
                0.17537313432835822
            ]
        ],
        [
            [
                0.1649895178197065,
                0.1697761194029851
            ],
            [
                0.22117400419287211,
                0.17350746268656717
            ],
            [
                0.22117400419287211,
                0.18097014925373137
            ]
        ],
        [
            [
                0.22012578616352202,
                0.21082089552238803
            ],
            [
                0.22012578616352202,
                0.21828358208955223
            ],
            [
                0.22851153039832284,
                0.21604477611940298
            ]
        ],
        [
            [
                0.2547169811320755,
                0.21492537313432836
            ],
            [
                0.26310272536687634,
                0.2126865671641791
            ],
            [
                0.28721174004192884,
                0.2891791044776119
            ]
        ],
        [
            [
                0.3113207547169811,
                0.33955223880597013
            ],
            [
                0.3427672955974843,
                0.373134328358209
            ],
            [
                0.3578616352201258,
                0.37462686567164183
            ]
        ],
        [
            [
                0.4041928721174004,
                0.37723880597014925
            ],
            [
                0.4192872117400419,
                0.3787313432835821
            ],
            [
                0.41886792452830185,
                0.3966417910447762
            ]
        ],
        [
            [
                0.41656184486373166,
                0.4354477611940299
            ],
            [
                0.41614255765199165,
                0.4533582089552239
            ],
            [
                0.4171907756813417,
                0.5261194029850746
            ]
        ],
        [
            [
                0.43396226415094336,
                0.5466417910447762
            ],
            [
                0.44758909853249473,
                0.5597014925373135
            ],
            [
                0.45555555555555555,
                0.5611940298507463
            ]
        ],
        [
            [
                0.48259958071278825,
                0.5582089552238807
            ],
            [
                0.49056603773584906,
                0.5597014925373135
            ],
            [
                0.49266247379454925,
                0.5738805970149253
            ]
        ],
        [
            [
                0.49580712788259956,
                0.6417910447761195
            ],
            [
                0.4863731656184486,
                0.6548507462686568
            ],
            [
                0.47337526205450736,
                0.7361940298507463
            ]
        ],
        [
            [
                0.4459119496855346,
                0.9634328358208955
            ],
            [
                0.4329140461215933,
                1.0447761194029852
            ],
            [
                0.3259958071278826,
                1.073134328358209
            ]
        ],
        [
            [
                0.005241090146750516,
                1.1582089552238806
            ],
            [
                -0.10167714884696016,
                1.1865671641791045
            ],
            [
                -0.09371069182389938,
                0.9835820895522389
            ]
        ]
    ]
}
</property>
   <property name="kdenlive:collapsed">0</property>
  </filter>
  <filter id="filter3">
   <property name="mlt_service">avfilter.despill</property>
   <property name="kdenlive_id">avfilter.despill</property>
   <property name="av.type">green</property>
   <property name="av.mix">0.278</property>
   <property name="av.expand">0.06</property>
   <property name="av.red">0</property>
   <property name="av.green">-0.9</property>
   <property name="av.blue">-0.5</property>
   <property name="av.brightness">0</property>
   <property name="kdenlive:collapsed">0</property>
  </filter>
 </producer>
 <producer id="producer65" in="00:00:00.000" out="00:02:40.267">
  <property name="length">4809</property>
  <property name="eof">pause</property>
  <property name="resource">/home/ryankelln/.cache/kdenlive/proxy/9a3c142e8aec82d5a730c7ac662aef65.mkv</property>
  <property name="audio_index">1</property>
  <property name="video_index">0</property>
  <property name="mute_on_pause">0</property>
  <property name="mlt_service">avformat-novalidate</property>
  <property name="seekable">1</property>
  <property name="aspect_ratio">1</property>
  <property name="kdenlive:clipname">2021-02-06_Chris_piano+4k_suzy_P1180164-take4_E_to_end.MP4</property>
  <property name="kdenlive:folderid">103</property>
  <property name="kdenlive:id">73</property>
  <property name="kdenlive:file_size">1922240803</property>
  <property name="kdenlive:file_hash">9a3c142e8aec82d5a730c7ac662aef65</property>
  <property name="kdenlive:audio_max">1</property>
  <property name="kdenlive:proxy">/home/ryankelln/.cache/kdenlive/proxy/9a3c142e8aec82d5a730c7ac662aef65.mkv</property>
  <property name="kdenlive:originalurl">content/musicians/2021-02-06_Chris_piano+4k_suzy_P1180164-take4_E_to_end.MP4</property>
  <property name="kdenlive:original.mlt_type">producer</property>
  <property name="kdenlive:original.in">00:00:00.000</property>
  <property name="kdenlive:original.out">00:02:40.267</property>
  <property name="kdenlive:original.length">4809</property>
  <property name="kdenlive:original.eof">pause</property>
  <property name="kdenlive:original.resource">content/musicians/2021-02-06_Chris_piano+4k_suzy_P1180164-take4_E_to_end.MP4</property>
  <property name="kdenlive:original.meta.media.nb_streams">2</property>
  <property name="kdenlive:original.meta.media.0.stream.type">video</property>
  <property name="kdenlive:original.meta.media.0.stream.frame_rate">29.97</property>
  <property name="kdenlive:original.meta.media.0.stream.sample_aspect_ratio">1</property>
  <property name="kdenlive:original.meta.media.0.codec.width">3840</property>
  <property name="kdenlive:original.meta.media.0.codec.height">2160</property>
  <property name="kdenlive:original.meta.media.0.codec.rotate">0</property>
  <property name="kdenlive:original.meta.media.0.codec.frame_rate">29.97</property>
  <property name="kdenlive:original.meta.media.0.codec.pix_fmt">yuvj420p</property>
  <property name="kdenlive:original.meta.media.0.codec.sample_aspect_ratio">1</property>
  <property name="kdenlive:original.meta.media.0.codec.colorspace">709</property>
  <property name="kdenlive:original.meta.media.0.codec.color_trc">1</property>
  <property name="kdenlive:original.meta.media.0.codec.name">h264</property>
  <property name="kdenlive:original.meta.media.0.codec.long_name">H.264 / AVC / MPEG-4 AVC / MPEG-4 part 10</property>
  <property name="kdenlive:original.meta.media.0.codec.bit_rate">95802137</property>
  <property name="kdenlive:original.meta.attr.0.stream.creation_time.markup">2021-06-02T16:31:58.000000Z</property>
  <property name="kdenlive:original.meta.attr.0.stream.handler_name.markup">VideoHandler</property>
  <property name="kdenlive:original.meta.media.1.stream.type">audio</property>
  <property name="kdenlive:original.meta.media.1.codec.sample_fmt">fltp</property>
  <property name="kdenlive:original.meta.media.1.codec.sample_rate">48000</property>
  <property name="kdenlive:original.meta.media.1.codec.channels">2</property>
  <property name="kdenlive:original.meta.media.1.codec.name">aac</property>
  <property name="kdenlive:original.meta.media.1.codec.long_name">AAC (Advanced Audio Coding)</property>
  <property name="kdenlive:original.meta.media.1.codec.bit_rate">125375</property>
  <property name="kdenlive:original.meta.attr.1.stream.creation_time.markup">2021-06-02T16:31:58.000000Z</property>
  <property name="kdenlive:original.meta.attr.1.stream.handler_name.markup">SoundHandler</property>
  <property name="kdenlive:original.meta.attr.major_brand.markup">isom</property>
  <property name="kdenlive:original.meta.attr.minor_version.markup">512</property>
  <property name="kdenlive:original.meta.attr.compatible_brands.markup">isomiso2avc1mp41</property>
  <property name="kdenlive:original.meta.attr.creation_time.markup">2021-06-02T16:31:58.000000Z</property>
  <property name="kdenlive:original.meta.attr.encoder.markup">Lavf58.45.100</property>
  <property name="kdenlive:original.seekable">1</property>
  <property name="kdenlive:original.width">3840</property>
  <property name="kdenlive:original.height">2160</property>
  <property name="kdenlive:original.meta.media.sample_aspect_num">1</property>
  <property name="kdenlive:original.meta.media.sample_aspect_den">1</property>
  <property name="kdenlive:original.aspect_ratio">1</property>
  <property name="kdenlive:original.audio_index">1</property>
  <property name="kdenlive:original.video_index">0</property>
  <property name="kdenlive:original.mute_on_pause">0</property>
  <property name="kdenlive:original.mlt_service">avformat-novalidate</property>
  <property name="kdenlive:original.kdenlive:folderid">103</property>
  <property name="kdenlive:original.meta.media.frame_rate_num">30000</property>
  <property name="kdenlive:original.meta.media.frame_rate_den">1001</property>
  <property name="kdenlive:original.meta.media.colorspace">709</property>
  <property name="kdenlive:original.meta.media.color_trc">1</property>
  <property name="kdenlive:original.meta.media.width">3840</property>
  <property name="kdenlive:original.meta.media.height">2160</property>
  <property name="kdenlive:original.meta.media.color_range">full</property>
  <property name="kdenlive:original.kdenlive:id">107</property>
  <property name="kdenlive:original.kdenlive:file_size">1922240803</property>
  <property name="kdenlive:original.kdenlive:file_hash">9a3c142e8aec82d5a730c7ac662aef65</property>
  <property name="kdenlive:original.kdenlive:audio_max">1</property>
  <property name="kdenlive:original.backup">1</property>
  <property name="global_feed">1</property>
  <property name="meta.media.nb_streams">2</property>
  <property name="meta.media.0.stream.type">video</property>
  <property name="meta.media.0.stream.frame_rate">29.97</property>
  <property name="meta.media.0.stream.sample_aspect_ratio">1</property>
  <property name="meta.media.0.codec.width">960</property>
  <property name="meta.media.0.codec.height">540</property>
  <property name="meta.media.0.codec.rotate">0</property>
  <property name="meta.media.0.codec.frame_rate">1000</property>
  <property name="meta.media.0.codec.pix_fmt">yuvj420p</property>
  <property name="meta.media.0.codec.sample_aspect_ratio">1</property>
  <property name="meta.media.0.codec.colorspace">601</property>
  <property name="meta.media.0.codec.name">mjpeg</property>
  <property name="meta.media.0.codec.long_name">MJPEG (Motion JPEG)</property>
  <property name="meta.media.0.codec.bit_rate">0</property>
  <property name="meta.attr.0.stream.HANDLER_NAME.markup">VideoHandler</property>
  <property name="meta.attr.0.stream.ENCODER.markup">Lavc58.91.100 mjpeg</property>
  <property name="meta.attr.0.stream.DURATION.markup">00:02:40.393000000</property>
  <property name="meta.media.1.stream.type">audio</property>
  <property name="meta.media.1.codec.sample_fmt">s16</property>
  <property name="meta.media.1.codec.sample_rate">48000</property>
  <property name="meta.media.1.codec.channels">2</property>
  <property name="meta.media.1.codec.name">pcm_s16le</property>
  <property name="meta.media.1.codec.long_name">PCM signed 16-bit little-endian</property>
  <property name="meta.media.1.codec.bit_rate">1536000</property>
  <property name="meta.attr.1.stream.HANDLER_NAME.markup">SoundHandler</property>
  <property name="meta.attr.1.stream.ENCODER.markup">Lavc58.91.100 pcm_s16le</property>
  <property name="meta.attr.1.stream.DURATION.markup">00:02:40.298000000</property>
  <property name="meta.attr.COMPATIBLE_BRANDS.markup">isomiso2avc1mp41</property>
  <property name="meta.attr.MAJOR_BRAND.markup">isom</property>
  <property name="meta.attr.MINOR_VERSION.markup">512</property>
  <property name="meta.attr.ENCODER.markup">Lavf58.45.100</property>
  <property name="meta.media.sample_aspect_num">1</property>
  <property name="meta.media.sample_aspect_den">1</property>
  <property name="meta.media.frame_rate_num">30000</property>
  <property name="meta.media.frame_rate_den">1001</property>
  <property name="meta.media.colorspace">601</property>
  <property name="meta.media.color_trc">2</property>
  <property name="meta.media.width">960</property>
  <property name="meta.media.height">540</property>
  <property name="meta.media.color_range">full</property>
  <property name="meta.media.top_field_first">0</property>
  <property name="meta.media.progressive">1</property>
  <property name="kdenlive:activeeffect">2</property>
  <filter id="filter4">
   <property name="version">0.1</property>
   <property name="mlt_service">frei0r.hqdn3d</property>
   <property name="kdenlive_id">frei0r.hqdn3d</property>
   <property name="Spatial">00:00:00.000=0.01</property>
   <property name="Temporal">00:00:00.000=0.01</property>
   <property name="kdenlive:collapsed">0</property>
  </filter>
  <filter id="filter5">
   <property name="version">0.6</property>
   <property name="mlt_service">frei0r.select0r</property>
   <property name="kdenlive_id">frei0r.select0r</property>
   <property name="Color to select">0x62865aff</property>
   <property name="Invert selection">1</property>
   <property name="Selection subspace">1</property>
   <property name="Subspace shape">0</property>
   <property name="Edge mode">0.6</property>
   <property name="Delta R / A / Hue">00:00:00.000=0.089</property>
   <property name="Delta G / B / Chroma">00:00:00.000=0.156</property>
   <property name="Delta B / I / I">00:00:00.000=0.194</property>
   <property name="Slope">00:00:00.000=0.1</property>
   <property name="Operation">0.5</property>
   <property name="kdenlive:collapsed">0</property>
  </filter>
  <filter id="filter6">
   <property name="mode">alpha</property>
   <property name="alpha_operation">add</property>
   <property name="invert">0</property>
   <property name="feather">4</property>
   <property name="feather_passes">1</property>
   <property name="mlt_service">rotoscoping</property>
   <property name="kdenlive_id">rotoscoping</property>
   <property name="spline">{
    "0000": [
        [
            [
                -0.08784067085953878,
                0.5537313432835821
            ],
            [
                -0.08909853249475891,
                0.3805970149253731
            ],
            [
                -0.02117400419287212,
                0.376865671641791
            ]
        ],
        [
            [
                0.17902468958374682,
                0.3585178555962932
            ],
            [
                0.2263329706202394,
                0.3568665377176016
            ],
            [
                0.24646354733405887,
                0.3489361702127659
            ]
        ],
        [
            [
                0.23721436343852012,
                0.34332688588007737
            ],
            [
                0.2480957562568009,
                0.33268858800773693
            ],
            [
                0.24683789462158076,
                0.32224082681370725
            ]
        ],
        [
            [
                0.2390162947146543,
                0.30735298363116714
            ],
            [
                0.23775843307943417,
                0.29690522243713735
            ],
            [
                0.2566263576077363,
                0.28197984930280895
            ]
        ],
        [
            [
                0.31954339212022914,
                0.22962556655792601
            ],
            [
                0.338411316648531,
                0.2147001934235977
            ],
            [
                0.34931278415377215,
                0.24231213372210514
            ]
        ],
        [
            [
                0.3775642561073813,
                0.3321559513842778
            ],
            [
                0.38846572361262244,
                0.35976789168278533
            ],
            [
                0.41026865862310463,
                0.36051416033950173
            ]
        ],
        [
            [
                0.47765299534860345,
                0.3667585669332256
            ],
            [
                0.499455930359086,
                0.367504835589942
            ],
            [
                0.49903664314734564,
                0.3876540893212852
            ]
        ],
        [
            [
                0.49878707828899776,
                0.4334290828257166
            ],
            [
                0.49836779107725787,
                0.45357833655706
            ],
            [
                0.4967355821545158,
                0.5106382978723404
            ]
        ],
        [
            [
                0.5125834069024992,
                0.5194491757845202
            ],
            [
                0.5201305767138193,
                0.5328820116054159
            ],
            [
                0.5625680087051143,
                0.5367504835589942
            ]
        ],
        [
            [
                0.5625680087051143,
                0.5367504835589942
            ],
            [
                0.5696409140369968,
                0.5483558994197293
            ],
            [
                0.5688023396135168,
                0.5647738098674905
            ]
        ],
        [
            [
                0.5704794884604768,
                0.6064060740783522
            ],
            [
                0.5696409140369968,
                0.6228239845261122
            ],
            [
                0.5658324265505984,
                0.6286266924564796
            ]
        ],
        [
            [
                0.5171907756813418,
                0.9843283582089553
            ],
            [
                0.5041928721174004,
                1.0708955223880599
            ],
            [
                0.38679245283018865,
                1.1059701492537315
            ]
        ],
        [
            [
                0.03459119496855346,
                1.2111940298507462
            ],
            [
                -0.08280922431865828,
                1.2462686567164178
            ],
            [
                -0.0840670859538784,
                1.0731343283582089
            ]
        ]
    ]
}
</property>
   <property name="kdenlive:collapsed">0</property>
   <property name="disable">0</property>
  </filter>
  <filter id="filter7">
   <property name="mode">alpha</property>
   <property name="alpha_operation">add</property>
   <property name="invert">0</property>
   <property name="feather">4</property>
   <property name="feather_passes">1</property>
   <property name="mlt_service">rotoscoping</property>
   <property name="kdenlive_id">rotoscoping</property>
   <property name="spline">{
    "0000": [
        [
            [
                0.9047629476027859,
                0.31235601489650394
            ],
            [
                0.895538628944505,
                0.2959381044487428
            ],
            [
                0.8343226960304588,
                0.29369929847859355
            ]
        ],
        [
            [
                0.6493552147421201,
                0.2972097924304975
            ],
            [
                0.588139281828074,
                0.2949709864603482
            ],
            [
                0.587719994616334,
                0.30392621034094525
            ]
        ],
        [
            [
                0.5863822904761579,
                0.3517797857905829
            ],
            [
                0.5859630032644179,
                0.3607350096711799
            ],
            [
                0.5930359085963004,
                0.372340425531915
            ]
        ],
        [
            [
                0.6028291621327531,
                0.40038684719535783
            ],
            [
                0.6099020674646355,
                0.41392649903288203
            ],
            [
                0.6761494469195621,
                0.4154190363463149
            ]
        ],
        [
            [
                0.8739049600445292,
                0.4114668437310546
            ],
            [
                0.9401523394994559,
                0.41295938104448743
            ],
            [
                0.9397330522877159,
                0.4069892317907561
            ]
        ],
        [
            [
                0.9427479052748521,
                0.39571869857674874
            ],
            [
                0.9423286180631121,
                0.38974854932301745
            ],
            [
                0.9331042994048312,
                0.37333063887525625
            ]
        ]
    ]
}
</property>
   <property name="kdenlive:collapsed">0</property>
   <property name="disable">0</property>
  </filter>
  <filter id="filter8">
   <property name="mlt_service">avfilter.despill</property>
   <property name="kdenlive_id">avfilter.despill</property>
   <property name="av.type">green</property>
   <property name="av.mix">0.2</property>
   <property name="av.expand">0.028</property>
   <property name="av.red">0</property>
   <property name="av.green">-0.9</property>
   <property name="av.blue">-0.4</property>
   <property name="av.brightness">0</property>
   <property name="kdenlive:collapsed">0</property>
  </filter>
 </producer>
 <producer id="producer68" in="00:00:00.000" out="00:05:53.700">
  <property name="length">10612</property>
  <property name="eof">pause</property>
  <property name="resource">/home/ryankelln/.cache/kdenlive/proxy/4180d2fd868745abd6d5f8a1d6483ec1.mkv</property>
  <property name="audio_index">1</property>
  <property name="video_index">0</property>
  <property name="mute_on_pause">0</property>
  <property name="mlt_service">avformat-novalidate</property>
  <property name="seekable">1</property>
  <property name="aspect_ratio">1</property>
  <property name="kdenlive:clipname">2021-06-02_Caleb_upright+4k+portrait_suzy_P1000540-take1_beginning-to-DS.MP4</property>
  <property name="kdenlive:folderid">103</property>
  <property name="kdenlive:id">74</property>
  <property name="kdenlive:file_size">4241140404</property>
  <property name="kdenlive:file_hash">4180d2fd868745abd6d5f8a1d6483ec1</property>
  <property name="kdenlive:proxy">/home/ryankelln/.cache/kdenlive/proxy/4180d2fd868745abd6d5f8a1d6483ec1.mkv</property>
  <property name="kdenlive:originalurl">content/musicians/2021-06-02_Caleb_upright+4k+portrait_suzy_P1000540-take1_beginning-to-DS.MP4</property>
  <property name="kdenlive:original.mlt_type">producer</property>
  <property name="kdenlive:original.in">0</property>
  <property name="kdenlive:original.out">10611</property>
  <property name="kdenlive:original.length">10612</property>
  <property name="kdenlive:original.eof">pause</property>
  <property name="kdenlive:original.resource">content/musicians/2021-06-02_Caleb_upright+4k+portrait_suzy_P1000540-take1_beginning-to-DS.MP4</property>
  <property name="kdenlive:original.meta.media.nb_streams">2</property>
  <property name="kdenlive:original.meta.media.0.stream.type">video</property>
  <property name="kdenlive:original.meta.media.0.stream.frame_rate">29.9699</property>
  <property name="kdenlive:original.meta.media.0.stream.sample_aspect_ratio">1</property>
  <property name="kdenlive:original.meta.media.0.codec.width">3328</property>
  <property name="kdenlive:original.meta.media.0.codec.height">2496</property>
  <property name="kdenlive:original.meta.media.0.codec.rotate">90</property>
  <property name="kdenlive:original.meta.media.0.codec.frame_rate">29.97</property>
  <property name="kdenlive:original.meta.media.0.codec.pix_fmt">yuvj420p</property>
  <property name="kdenlive:original.meta.media.0.codec.sample_aspect_ratio">1</property>
  <property name="kdenlive:original.meta.media.0.codec.colorspace">709</property>
  <property name="kdenlive:original.meta.media.0.codec.color_trc">1</property>
  <property name="kdenlive:original.meta.media.0.codec.name">h264</property>
  <property name="kdenlive:original.meta.media.0.codec.long_name">H.264 / AVC / MPEG-4 AVC / MPEG-4 part 10</property>
  <property name="kdenlive:original.meta.media.0.codec.bit_rate">95795710</property>
  <property name="kdenlive:original.meta.attr.0.stream.rotate.markup">90</property>
  <property name="kdenlive:original.meta.attr.0.stream.handler_name.markup">VideoHandler</property>
  <property name="kdenlive:original.meta.media.1.stream.type">audio</property>
  <property name="kdenlive:original.meta.media.1.codec.sample_fmt">fltp</property>
  <property name="kdenlive:original.meta.media.1.codec.sample_rate">48000</property>
  <property name="kdenlive:original.meta.media.1.codec.channels">2</property>
  <property name="kdenlive:original.meta.media.1.codec.name">aac</property>
  <property name="kdenlive:original.meta.media.1.codec.long_name">AAC (Advanced Audio Coding)</property>
  <property name="kdenlive:original.meta.media.1.codec.bit_rate">125376</property>
  <property name="kdenlive:original.meta.attr.1.stream.handler_name.markup">SoundHandler</property>
  <property name="kdenlive:original.meta.attr.major_brand.markup">isom</property>
  <property name="kdenlive:original.meta.attr.minor_version.markup">512</property>
  <property name="kdenlive:original.meta.attr.compatible_brands.markup">isomiso2avc1mp41</property>
  <property name="kdenlive:original.meta.attr.encoder.markup">Lavf58.45.100</property>
  <property name="kdenlive:original.seekable">1</property>
  <property name="kdenlive:original.width">3328</property>
  <property name="kdenlive:original.height">2496</property>
  <property name="kdenlive:original.meta.media.sample_aspect_num">1</property>
  <property name="kdenlive:original.meta.media.sample_aspect_den">1</property>
  <property name="kdenlive:original.aspect_ratio">1</property>
  <property name="kdenlive:original.audio_index">1</property>
  <property name="kdenlive:original.video_index">0</property>
  <property name="kdenlive:original.mute_on_pause">0</property>
  <property name="kdenlive:original.mlt_service">avformat-novalidate</property>
  <property name="kdenlive:original.kdenlive:folderid">103</property>
  <property name="kdenlive:original.meta.media.frame_rate_num">13252500</property>
  <property name="kdenlive:original.meta.media.frame_rate_den">442193</property>
  <property name="kdenlive:original.meta.media.colorspace">709</property>
  <property name="kdenlive:original.meta.media.color_trc">1</property>
  <property name="kdenlive:original.meta.media.width">2496</property>
  <property name="kdenlive:original.meta.media.height">3328</property>
  <property name="kdenlive:original.meta.media.color_range">full</property>
  <property name="kdenlive:original.kdenlive:id">109</property>
  <property name="kdenlive:original.kdenlive:file_size">4241140404</property>
  <property name="kdenlive:original.kdenlive:file_hash">4180d2fd868745abd6d5f8a1d6483ec1</property>
  <property name="kdenlive:original.backup">1</property>
  <property name="kdenlive:audio_max">1</property>
  <property name="global_feed">1</property>
  <property name="meta.media.nb_streams">2</property>
  <property name="meta.media.0.stream.type">video</property>
  <property name="meta.media.0.stream.frame_rate">29.97</property>
  <property name="meta.media.0.stream.sample_aspect_ratio">1</property>
  <property name="meta.media.0.codec.width">960</property>
  <property name="meta.media.0.codec.height">1280</property>
  <property name="meta.media.0.codec.rotate">0</property>
  <property name="meta.media.0.codec.frame_rate">1000</property>
  <property name="meta.media.0.codec.pix_fmt">yuvj420p</property>
  <property name="meta.media.0.codec.sample_aspect_ratio">1</property>
  <property name="meta.media.0.codec.colorspace">601</property>
  <property name="meta.media.0.codec.name">mjpeg</property>
  <property name="meta.media.0.codec.long_name">MJPEG (Motion JPEG)</property>
  <property name="meta.media.0.codec.bit_rate">0</property>
  <property name="meta.attr.0.stream.ENCODER.markup">Lavc58.91.100 mjpeg</property>
  <property name="meta.attr.0.stream.HANDLER_NAME.markup">VideoHandler</property>
  <property name="meta.attr.0.stream.DURATION.markup">00:05:53.786000000</property>
  <property name="meta.media.1.stream.type">audio</property>
  <property name="meta.media.1.codec.sample_fmt">s16</property>
  <property name="meta.media.1.codec.sample_rate">48000</property>
  <property name="meta.media.1.codec.channels">2</property>
  <property name="meta.media.1.codec.name">pcm_s16le</property>
  <property name="meta.media.1.codec.long_name">PCM signed 16-bit little-endian</property>
  <property name="meta.media.1.codec.bit_rate">1536000</property>
  <property name="meta.attr.1.stream.HANDLER_NAME.markup">SoundHandler</property>
  <property name="meta.attr.1.stream.ENCODER.markup">Lavc58.91.100 pcm_s16le</property>
  <property name="meta.attr.1.stream.DURATION.markup">00:05:53.744000000</property>
  <property name="meta.attr.COMPATIBLE_BRANDS.markup">isomiso2avc1mp41</property>
  <property name="meta.attr.MAJOR_BRAND.markup">isom</property>
  <property name="meta.attr.MINOR_VERSION.markup">512</property>
  <property name="meta.attr.ENCODER.markup">Lavf58.45.100</property>
  <property name="meta.media.sample_aspect_num">1</property>
  <property name="meta.media.sample_aspect_den">1</property>
  <property name="meta.media.frame_rate_num">30000</property>
  <property name="meta.media.frame_rate_den">1001</property>
  <property name="meta.media.colorspace">601</property>
  <property name="meta.media.color_trc">2</property>
  <property name="meta.media.width">960</property>
  <property name="meta.media.height">1280</property>
  <property name="meta.media.color_range">full</property>
  <property name="meta.media.top_field_first">0</property>
  <property name="meta.media.progressive">1</property>
  <property name="kdenlive:activeeffect">1</property>
  <filter id="filter9">
   <property name="version">0.1</property>
   <property name="mlt_service">frei0r.hqdn3d</property>
   <property name="kdenlive_id">frei0r.hqdn3d</property>
   <property name="Spatial">00:00:00.000=0.01</property>
   <property name="Temporal">00:00:00.000=0.01</property>
   <property name="kdenlive:collapsed">0</property>
  </filter>
  <filter id="filter10">
   <property name="version">0.6</property>
   <property name="mlt_service">frei0r.select0r</property>
   <property name="kdenlive_id">frei0r.select0r</property>
   <property name="Color to select">0x58af5eff</property>
   <property name="Invert selection">1</property>
   <property name="Selection subspace">1</property>
   <property name="Subspace shape">0</property>
   <property name="Edge mode">0.9</property>
   <property name="Delta R / A / Hue">00:00:00.000=0.045</property>
   <property name="Delta G / B / Chroma">00:00:00.000=0.215</property>
   <property name="Delta B / I / I">00:00:00.000=0.31</property>
   <property name="Slope">00:00:00.000=0.085</property>
   <property name="Operation">0.5</property>
   <property name="kdenlive:collapsed">0</property>
  </filter>
  <filter id="filter11">
   <property name="mlt_service">avfilter.despill</property>
   <property name="kdenlive_id">avfilter.despill</property>
   <property name="av.type">green</property>
   <property name="av.mix">0.096</property>
   <property name="av.expand">0.037</property>
   <property name="av.red">0</property>
   <property name="av.green">-0.7</property>
   <property name="av.blue">-0.6</property>
   <property name="av.brightness">0</property>
   <property name="kdenlive:collapsed">0</property>
  </filter>
 </producer>
 <producer id="producer67" in="00:00:00.000" out="00:02:45.400">
  <property name="length">4963</property>
  <property name="eof">pause</property>
  <property name="resource">/home/ryankelln/.cache/kdenlive/proxy/4c6b1c5993fa9d9041b89d5053614339.mkv</property>
  <property name="audio_index">1</property>
  <property name="video_index">0</property>
  <property name="mute_on_pause">0</property>
  <property name="mlt_service">avformat-novalidate</property>
  <property name="seekable">1</property>
  <property name="aspect_ratio">1</property>
  <property name="kdenlive:clipname">2021-06-02_Caleb_upright+4k+portrait_suzy_P1000542-take4_ending.MP4</property>
  <property name="kdenlive:folderid">103</property>
  <property name="kdenlive:id">75</property>
  <property name="kdenlive:file_size">1983857296</property>
  <property name="kdenlive:file_hash">4c6b1c5993fa9d9041b89d5053614339</property>
  <property name="kdenlive:proxy">/home/ryankelln/.cache/kdenlive/proxy/4c6b1c5993fa9d9041b89d5053614339.mkv</property>
  <property name="kdenlive:originalurl">content/musicians/2021-06-02_Caleb_upright+4k+portrait_suzy_P1000542-take4_ending.MP4</property>
  <property name="kdenlive:original.mlt_type">producer</property>
  <property name="kdenlive:original.in">0</property>
  <property name="kdenlive:original.out">4962</property>
  <property name="kdenlive:original.length">4963</property>
  <property name="kdenlive:original.eof">pause</property>
  <property name="kdenlive:original.resource">content/musicians/2021-06-02_Caleb_upright+4k+portrait_suzy_P1000542-take4_ending.MP4</property>
  <property name="kdenlive:original.meta.media.nb_streams">2</property>
  <property name="kdenlive:original.meta.media.0.stream.type">video</property>
  <property name="kdenlive:original.meta.media.0.stream.frame_rate">29.97</property>
  <property name="kdenlive:original.meta.media.0.stream.sample_aspect_ratio">1</property>
  <property name="kdenlive:original.meta.media.0.codec.width">3328</property>
  <property name="kdenlive:original.meta.media.0.codec.height">2496</property>
  <property name="kdenlive:original.meta.media.0.codec.rotate">90</property>
  <property name="kdenlive:original.meta.media.0.codec.frame_rate">29.97</property>
  <property name="kdenlive:original.meta.media.0.codec.pix_fmt">yuvj420p</property>
  <property name="kdenlive:original.meta.media.0.codec.sample_aspect_ratio">1</property>
  <property name="kdenlive:original.meta.media.0.codec.colorspace">709</property>
  <property name="kdenlive:original.meta.media.0.codec.color_trc">1</property>
  <property name="kdenlive:original.meta.media.0.codec.name">h264</property>
  <property name="kdenlive:original.meta.media.0.codec.long_name">H.264 / AVC / MPEG-4 AVC / MPEG-4 part 10</property>
  <property name="kdenlive:original.meta.media.0.codec.bit_rate">95821270</property>
  <property name="kdenlive:original.meta.attr.0.stream.rotate.markup">90</property>
  <property name="kdenlive:original.meta.attr.0.stream.creation_time.markup">2021-06-02T16:31:46.000000Z</property>
  <property name="kdenlive:original.meta.attr.0.stream.handler_name.markup">VideoHandler</property>
  <property name="kdenlive:original.meta.media.1.stream.type">audio</property>
  <property name="kdenlive:original.meta.media.1.codec.sample_fmt">fltp</property>
  <property name="kdenlive:original.meta.media.1.codec.sample_rate">48000</property>
  <property name="kdenlive:original.meta.media.1.codec.channels">2</property>
  <property name="kdenlive:original.meta.media.1.codec.name">aac</property>
  <property name="kdenlive:original.meta.media.1.codec.long_name">AAC (Advanced Audio Coding)</property>
  <property name="kdenlive:original.meta.media.1.codec.bit_rate">125374</property>
  <property name="kdenlive:original.meta.attr.1.stream.creation_time.markup">2021-06-02T16:31:46.000000Z</property>
  <property name="kdenlive:original.meta.attr.1.stream.handler_name.markup">SoundHandler</property>
  <property name="kdenlive:original.meta.attr.major_brand.markup">isom</property>
  <property name="kdenlive:original.meta.attr.minor_version.markup">512</property>
  <property name="kdenlive:original.meta.attr.compatible_brands.markup">isomiso2avc1mp41</property>
  <property name="kdenlive:original.meta.attr.creation_time.markup">2021-06-02T16:31:46.000000Z</property>
  <property name="kdenlive:original.meta.attr.encoder.markup">Lavf58.45.100</property>
  <property name="kdenlive:original.seekable">1</property>
  <property name="kdenlive:original.width">3328</property>
  <property name="kdenlive:original.height">2496</property>
  <property name="kdenlive:original.meta.media.sample_aspect_num">1</property>
  <property name="kdenlive:original.meta.media.sample_aspect_den">1</property>
  <property name="kdenlive:original.aspect_ratio">1</property>
  <property name="kdenlive:original.audio_index">1</property>
  <property name="kdenlive:original.video_index">0</property>
  <property name="kdenlive:original.mute_on_pause">0</property>
  <property name="kdenlive:original.mlt_service">avformat-novalidate</property>
  <property name="kdenlive:original.kdenlive:folderid">103</property>
  <property name="kdenlive:original.meta.media.frame_rate_num">30000</property>
  <property name="kdenlive:original.meta.media.frame_rate_den">1001</property>
  <property name="kdenlive:original.meta.media.colorspace">709</property>
  <property name="kdenlive:original.meta.media.color_trc">1</property>
  <property name="kdenlive:original.meta.media.width">2496</property>
  <property name="kdenlive:original.meta.media.height">3328</property>
  <property name="kdenlive:original.meta.media.color_range">full</property>
  <property name="kdenlive:original.kdenlive:id">110</property>
  <property name="kdenlive:original.kdenlive:file_size">1983857296</property>
  <property name="kdenlive:original.kdenlive:file_hash">4c6b1c5993fa9d9041b89d5053614339</property>
  <property name="kdenlive:original.backup">1</property>
  <property name="kdenlive:audio_max">1</property>
  <property name="global_feed">1</property>
  <property name="meta.media.nb_streams">2</property>
  <property name="meta.media.0.stream.type">video</property>
  <property name="meta.media.0.stream.frame_rate">29.97</property>
  <property name="meta.media.0.stream.sample_aspect_ratio">1</property>
  <property name="meta.media.0.codec.width">960</property>
  <property name="meta.media.0.codec.height">1280</property>
  <property name="meta.media.0.codec.rotate">0</property>
  <property name="meta.media.0.codec.frame_rate">1000</property>
  <property name="meta.media.0.codec.pix_fmt">yuvj420p</property>
  <property name="meta.media.0.codec.sample_aspect_ratio">1</property>
  <property name="meta.media.0.codec.colorspace">601</property>
  <property name="meta.media.0.codec.name">mjpeg</property>
  <property name="meta.media.0.codec.long_name">MJPEG (Motion JPEG)</property>
  <property name="meta.media.0.codec.bit_rate">0</property>
  <property name="meta.attr.0.stream.ENCODER.markup">Lavc58.91.100 mjpeg</property>
  <property name="meta.attr.0.stream.HANDLER_NAME.markup">VideoHandler</property>
  <property name="meta.attr.0.stream.DURATION.markup">00:02:45.498000000</property>
  <property name="meta.media.1.stream.type">audio</property>
  <property name="meta.media.1.codec.sample_fmt">s16</property>
  <property name="meta.media.1.codec.sample_rate">48000</property>
  <property name="meta.media.1.codec.channels">2</property>
  <property name="meta.media.1.codec.name">pcm_s16le</property>
  <property name="meta.media.1.codec.long_name">PCM signed 16-bit little-endian</property>
  <property name="meta.media.1.codec.bit_rate">1536000</property>
  <property name="meta.attr.1.stream.HANDLER_NAME.markup">SoundHandler</property>
  <property name="meta.attr.1.stream.ENCODER.markup">Lavc58.91.100 pcm_s16le</property>
  <property name="meta.attr.1.stream.DURATION.markup">00:02:45.440000000</property>
  <property name="meta.attr.COMPATIBLE_BRANDS.markup">isomiso2avc1mp41</property>
  <property name="meta.attr.MAJOR_BRAND.markup">isom</property>
  <property name="meta.attr.MINOR_VERSION.markup">512</property>
  <property name="meta.attr.ENCODER.markup">Lavf58.45.100</property>
  <property name="meta.media.sample_aspect_num">1</property>
  <property name="meta.media.sample_aspect_den">1</property>
  <property name="meta.media.frame_rate_num">30000</property>
  <property name="meta.media.frame_rate_den">1001</property>
  <property name="meta.media.colorspace">601</property>
  <property name="meta.media.color_trc">2</property>
  <property name="meta.media.width">960</property>
  <property name="meta.media.height">1280</property>
  <property name="meta.media.color_range">full</property>
  <property name="meta.media.top_field_first">0</property>
  <property name="meta.media.progressive">1</property>
  <property name="kdenlive:activeeffect">2</property>
  <filter id="filter12">
   <property name="version">0.1</property>
   <property name="mlt_service">frei0r.hqdn3d</property>
   <property name="kdenlive_id">frei0r.hqdn3d</property>
   <property name="Spatial">00:00:00.000=0.01</property>
   <property name="Temporal">00:00:00.000=0.01</property>
   <property name="kdenlive:collapsed">0</property>
  </filter>
  <filter id="filter13">
   <property name="version">0.6</property>
   <property name="mlt_service">frei0r.select0r</property>
   <property name="kdenlive_id">frei0r.select0r</property>
   <property name="Color to select">0x58af5eff</property>
   <property name="Invert selection">1</property>
   <property name="Selection subspace">1</property>
   <property name="Subspace shape">0</property>
   <property name="Edge mode">0.9</property>
   <property name="Delta R / A / Hue">00:00:00.000=0.035</property>
   <property name="Delta G / B / Chroma">00:00:00.000=0.205</property>
   <property name="Delta B / I / I">00:00:00.000=0.302</property>
   <property name="Slope">00:00:00.000=0.08</property>
   <property name="Operation">0.5</property>
   <property name="kdenlive:collapsed">0</property>
   <property name="disable">0</property>
  </filter>
  <filter id="filter14">
   <property name="mlt_service">avfilter.despill</property>
   <property name="kdenlive_id">avfilter.despill</property>
   <property name="av.type">green</property>
   <property name="av.mix">0.096</property>
   <property name="av.expand">0.037</property>
   <property name="av.red">0</property>
   <property name="av.green">-0.7</property>
   <property name="av.blue">-0.6</property>
   <property name="av.brightness">0</property>
   <property name="kdenlive:collapsed">0</property>
  </filter>
 </producer>
 <producer id="producer69" in="00:00:00.000" out="00:02:41.967">
  <property name="length">4860</property>
  <property name="eof">pause</property>
  <property name="resource">content/musicians/2021-02-06_Caleb_upright_suzy_MVI_6046-unknown_take_ending.mkv</property>
  <property name="audio_index">1</property>
  <property name="video_index">0</property>
  <property name="mute_on_pause">0</property>
  <property name="mlt_service">avformat-novalidate</property>
  <property name="meta.media.nb_streams">2</property>
  <property name="meta.media.0.stream.type">video</property>
  <property name="meta.media.0.stream.frame_rate">29.97</property>
  <property name="meta.media.0.stream.sample_aspect_ratio">0</property>
  <property name="meta.media.0.codec.width">1280</property>
  <property name="meta.media.0.codec.height">720</property>
  <property name="meta.media.0.codec.rotate">0</property>
  <property name="meta.media.0.codec.frame_rate">1000</property>
  <property name="meta.media.0.codec.pix_fmt">yuvj420p</property>
  <property name="meta.media.0.codec.sample_aspect_ratio">0</property>
  <property name="meta.media.0.codec.colorspace">601</property>
  <property name="meta.media.0.codec.color_trc">1</property>
  <property name="meta.media.0.codec.name">h264</property>
  <property name="meta.media.0.codec.long_name">H.264 / AVC / MPEG-4 AVC / MPEG-4 part 10</property>
  <property name="meta.media.0.codec.bit_rate">0</property>
  <property name="meta.attr.0.stream.language.markup">eng</property>
  <property name="meta.attr.0.stream.DURATION.markup">00:02:42.005000000</property>
  <property name="meta.media.1.stream.type">audio</property>
  <property name="meta.media.1.codec.sample_fmt">s16</property>
  <property name="meta.media.1.codec.sample_rate">48000</property>
  <property name="meta.media.1.codec.channels">1</property>
  <property name="meta.media.1.codec.name">pcm_s16le</property>
  <property name="meta.media.1.codec.long_name">PCM signed 16-bit little-endian</property>
  <property name="meta.media.1.codec.bit_rate">768000</property>
  <property name="meta.attr.1.stream.language.markup">eng</property>
  <property name="meta.attr.1.stream.DURATION.markup">00:02:41.992000000</property>
  <property name="meta.attr.COMPATIBLE_BRANDS.markup">qt  CAEP</property>
  <property name="meta.attr.creation_time.markup">2021-06-02T16:31:04.000000Z</property>
  <property name="meta.attr.MAJOR_BRAND.markup">qt  </property>
  <property name="meta.attr.MINOR_VERSION.markup">537331968</property>
  <property name="meta.attr.ENCODER.markup">Lavf58.45.100</property>
  <property name="seekable">1</property>
  <property name="meta.media.sample_aspect_num">1</property>
  <property name="meta.media.sample_aspect_den">1</property>
  <property name="aspect_ratio">1</property>
  <property name="kdenlive:clipname"/>
  <property name="kdenlive:folderid">103</property>
  <property name="meta.media.frame_rate_num">30000</property>
  <property name="meta.media.frame_rate_den">1001</property>
  <property name="meta.media.colorspace">601</property>
  <property name="meta.media.color_trc">1</property>
  <property name="meta.media.width">1280</property>
  <property name="meta.media.height">720</property>
  <property name="meta.media.color_range">full</property>
  <property name="kdenlive:id">76</property>
  <property name="kdenlive:file_size">659927248</property>
  <property name="kdenlive:file_hash">ae5721e3f7dd7534981d8629cec1895a</property>
  <property name="kdenlive:audio_max">1</property>
  <property name="meta.media.top_field_first">0</property>
  <property name="meta.media.progressive">1</property>
  <property name="global_feed">1</property>
  <property name="kdenlive:activeeffect">2</property>
  <filter id="filter15">
   <property name="version">0.1</property>
   <property name="mlt_service">frei0r.hqdn3d</property>
   <property name="kdenlive_id">frei0r.hqdn3d</property>
   <property name="Spatial">00:00:00.000=0.01</property>
   <property name="Temporal">00:00:00.000=0.01</property>
   <property name="kdenlive:collapsed">0</property>
  </filter>
  <filter id="filter16">
   <property name="version">0.6</property>
   <property name="mlt_service">frei0r.select0r</property>
   <property name="kdenlive_id">frei0r.select0r</property>
   <property name="Color to select">0x79edc5ff</property>
   <property name="Invert selection">1</property>
   <property name="Selection subspace">1</property>
   <property name="Subspace shape">0</property>
   <property name="Edge mode">0.9</property>
   <property name="Delta R / A / Hue">00:00:00.000=0.04</property>
   <property name="Delta G / B / Chroma">0=0.178</property>
   <property name="Delta B / I / I">0=0.308</property>
   <property name="Slope">0=0.13</property>
   <property name="Operation">0.5</property>
   <property name="kdenlive:collapsed">0</property>
  </filter>
  <filter id="filter17">
   <property name="mlt_service">avfilter.despill</property>
   <property name="kdenlive_id">avfilter.despill</property>
   <property name="av.type">green</property>
   <property name="av.mix">0.146</property>
   <property name="av.expand">0.04</property>
   <property name="av.red">0</property>
   <property name="av.green">-0.8</property>
   <property name="av.blue">-0.4</property>
   <property name="av.brightness">0</property>
   <property name="kdenlive:collapsed">0</property>
  </filter>
 </producer>
 <producer id="producer71" in="00:00:00.000" out="00:00:59.667">
  <property name="length">1791</property>
  <property name="eof">pause</property>
  <property name="resource">/home/ryankelln/.cache/kdenlive/proxy/d4e92660b0dbf831496b409208c02d2a.mkv</property>
  <property name="audio_index">1</property>
  <property name="video_index">0</property>
  <property name="mute_on_pause">0</property>
  <property name="mlt_service">avformat-novalidate</property>
  <property name="seekable">1</property>
  <property name="aspect_ratio">1</property>
  <property name="kdenlive:clipname">2021-06-02_Caleb+Chris_upright+piano+handheld_suzy_MVI_5994-take1_beginning_portrait.mkv</property>
  <property name="kdenlive:folderid">103</property>
  <property name="kdenlive:id">77</property>
  <property name="kdenlive:file_size">350464486</property>
  <property name="kdenlive:file_hash">d4e92660b0dbf831496b409208c02d2a</property>
  <property name="kdenlive:proxy">/home/ryankelln/.cache/kdenlive/proxy/d4e92660b0dbf831496b409208c02d2a.mkv</property>
  <property name="kdenlive:originalurl">content/musicians/2021-06-02_Caleb+Chris_upright+piano+handheld_suzy_MVI_5994-take1_beginning_portrait.mkv</property>
  <property name="kdenlive:original.mlt_type">producer</property>
  <property name="kdenlive:original.in">0</property>
  <property name="kdenlive:original.out">1790</property>
  <property name="kdenlive:original.length">1791</property>
  <property name="kdenlive:original.eof">pause</property>
  <property name="kdenlive:original.resource">content/musicians/2021-06-02_Caleb+Chris_upright+piano+handheld_suzy_MVI_5994-take1_beginning_portrait.mkv</property>
  <property name="kdenlive:original.meta.media.nb_streams">2</property>
  <property name="kdenlive:original.meta.media.0.stream.type">video</property>
  <property name="kdenlive:original.meta.media.0.stream.frame_rate">29.97</property>
  <property name="kdenlive:original.meta.media.0.stream.sample_aspect_ratio">0</property>
  <property name="kdenlive:original.meta.media.0.codec.width">1920</property>
  <property name="kdenlive:original.meta.media.0.codec.height">1080</property>
  <property name="kdenlive:original.meta.media.0.codec.rotate">0</property>
  <property name="kdenlive:original.meta.media.0.codec.frame_rate">1000</property>
  <property name="kdenlive:original.meta.media.0.codec.pix_fmt">yuvj420p</property>
  <property name="kdenlive:original.meta.media.0.codec.sample_aspect_ratio">0</property>
  <property name="kdenlive:original.meta.media.0.codec.colorspace">601</property>
  <property name="kdenlive:original.meta.media.0.codec.color_trc">1</property>
  <property name="kdenlive:original.meta.media.0.codec.name">h264</property>
  <property name="kdenlive:original.meta.media.0.codec.long_name">H.264 / AVC / MPEG-4 AVC / MPEG-4 part 10</property>
  <property name="kdenlive:original.meta.media.0.codec.bit_rate">0</property>
  <property name="kdenlive:original.meta.attr.0.stream.language.markup">eng</property>
  <property name="kdenlive:original.meta.attr.0.stream.DURATION.markup">00:00:59.693000000</property>
  <property name="kdenlive:original.meta.media.1.stream.type">audio</property>
  <property name="kdenlive:original.meta.media.1.codec.sample_fmt">s16</property>
  <property name="kdenlive:original.meta.media.1.codec.sample_rate">48000</property>
  <property name="kdenlive:original.meta.media.1.codec.channels">2</property>
  <property name="kdenlive:original.meta.media.1.codec.name">pcm_s16le</property>
  <property name="kdenlive:original.meta.media.1.codec.long_name">PCM signed 16-bit little-endian</property>
  <property name="kdenlive:original.meta.media.1.codec.bit_rate">1536000</property>
  <property name="kdenlive:original.meta.attr.1.stream.language.markup">eng</property>
  <property name="kdenlive:original.meta.attr.1.stream.DURATION.markup">00:00:59.699000000</property>
  <property name="kdenlive:original.meta.attr.COMPATIBLE_BRANDS.markup">qt  CAEP</property>
  <property name="kdenlive:original.meta.attr.creation_time.markup">2021-06-02T14:29:18.000000Z</property>
  <property name="kdenlive:original.meta.attr.MAJOR_BRAND.markup">qt  </property>
  <property name="kdenlive:original.meta.attr.MINOR_VERSION.markup">537331968</property>
  <property name="kdenlive:original.meta.attr.ENCODER.markup">Lavf58.45.100</property>
  <property name="kdenlive:original.seekable">1</property>
  <property name="kdenlive:original.width">1920</property>
  <property name="kdenlive:original.height">1080</property>
  <property name="kdenlive:original.meta.media.sample_aspect_num">1</property>
  <property name="kdenlive:original.meta.media.sample_aspect_den">1</property>
  <property name="kdenlive:original.aspect_ratio">1</property>
  <property name="kdenlive:original.audio_index">1</property>
  <property name="kdenlive:original.video_index">0</property>
  <property name="kdenlive:original.mute_on_pause">0</property>
  <property name="kdenlive:original.mlt_service">avformat-novalidate</property>
  <property name="kdenlive:original.kdenlive:folderid">103</property>
  <property name="kdenlive:original.meta.media.frame_rate_num">30000</property>
  <property name="kdenlive:original.meta.media.frame_rate_den">1001</property>
  <property name="kdenlive:original.meta.media.colorspace">601</property>
  <property name="kdenlive:original.meta.media.color_trc">1</property>
  <property name="kdenlive:original.meta.media.width">1920</property>
  <property name="kdenlive:original.meta.media.height">1080</property>
  <property name="kdenlive:original.meta.media.color_range">full</property>
  <property name="kdenlive:original.kdenlive:id">112</property>
  <property name="kdenlive:original.kdenlive:file_size">350464486</property>
  <property name="kdenlive:original.kdenlive:file_hash">d4e92660b0dbf831496b409208c02d2a</property>
  <property name="kdenlive:original.backup">1</property>
  <property name="kdenlive:audio_max">1</property>
  <property name="global_feed">1</property>
  <property name="meta.media.nb_streams">2</property>
  <property name="meta.media.0.stream.type">video</property>
  <property name="meta.media.0.stream.frame_rate">29.97</property>
  <property name="meta.media.0.stream.sample_aspect_ratio">0</property>
  <property name="meta.media.0.codec.width">960</property>
  <property name="meta.media.0.codec.height">540</property>
  <property name="meta.media.0.codec.rotate">0</property>
  <property name="meta.media.0.codec.frame_rate">1000</property>
  <property name="meta.media.0.codec.pix_fmt">yuvj420p</property>
  <property name="meta.media.0.codec.sample_aspect_ratio">0</property>
  <property name="meta.media.0.codec.colorspace">601</property>
  <property name="meta.media.0.codec.name">mjpeg</property>
  <property name="meta.media.0.codec.long_name">MJPEG (Motion JPEG)</property>
  <property name="meta.media.0.codec.bit_rate">0</property>
  <property name="meta.attr.0.stream.language.markup">eng</property>
  <property name="meta.attr.0.stream.ENCODER.markup">Lavc58.91.100 mjpeg</property>
  <property name="meta.attr.0.stream.DURATION.markup">00:00:59.693000000</property>
  <property name="meta.media.1.stream.type">audio</property>
  <property name="meta.media.1.codec.sample_fmt">s16</property>
  <property name="meta.media.1.codec.sample_rate">48000</property>
  <property name="meta.media.1.codec.channels">2</property>
  <property name="meta.media.1.codec.name">pcm_s16le</property>
  <property name="meta.media.1.codec.long_name">PCM signed 16-bit little-endian</property>
  <property name="meta.media.1.codec.bit_rate">1536000</property>
  <property name="meta.attr.1.stream.language.markup">eng</property>
  <property name="meta.attr.1.stream.ENCODER.markup">Lavc58.91.100 pcm_s16le</property>
  <property name="meta.attr.1.stream.DURATION.markup">00:00:59.699000000</property>
  <property name="meta.attr.MAJOR_BRAND.markup">qt  </property>
  <property name="meta.attr.COMPATIBLE_BRANDS.markup">qt  CAEP</property>
  <property name="meta.attr.MINOR_VERSION.markup">537331968</property>
  <property name="meta.attr.ENCODER.markup">Lavf58.45.100</property>
  <property name="meta.media.sample_aspect_num">1</property>
  <property name="meta.media.sample_aspect_den">1</property>
  <property name="meta.media.frame_rate_num">30000</property>
  <property name="meta.media.frame_rate_den">1001</property>
  <property name="meta.media.colorspace">601</property>
  <property name="meta.media.color_trc">2</property>
  <property name="meta.media.width">960</property>
  <property name="meta.media.height">540</property>
  <property name="meta.media.color_range">full</property>
  <property name="meta.media.top_field_first">0</property>
  <property name="meta.media.progressive">1</property>
 </producer>
 <producer id="producer70" in="00:00:00.000" out="00:00:29.533">
  <property name="length">887</property>
  <property name="eof">pause</property>
  <property name="resource">/home/ryankelln/.cache/kdenlive/proxy/f89156b45f0cb2fcf8cb31fe7feec74f.mkv</property>
  <property name="audio_index">1</property>
  <property name="video_index">0</property>
  <property name="mute_on_pause">0</property>
  <property name="mlt_service">avformat-novalidate</property>
  <property name="seekable">1</property>
  <property name="aspect_ratio">1</property>
  <property name="kdenlive:clipname">2021-06-02_Caleb+Chris_upright+piano+handheld_suzy_MVI_5994-take1_caleb_beginning.mkv</property>
  <property name="kdenlive:folderid">103</property>
  <property name="kdenlive:id">78</property>
  <property name="kdenlive:file_size">172419124</property>
  <property name="kdenlive:file_hash">f89156b45f0cb2fcf8cb31fe7feec74f</property>
  <property name="kdenlive:proxy">/home/ryankelln/.cache/kdenlive/proxy/f89156b45f0cb2fcf8cb31fe7feec74f.mkv</property>
  <property name="kdenlive:originalurl">content/musicians/2021-06-02_Caleb+Chris_upright+piano+handheld_suzy_MVI_5994-take1_caleb_beginning.mkv</property>
  <property name="kdenlive:original.mlt_type">producer</property>
  <property name="kdenlive:original.in">0</property>
  <property name="kdenlive:original.out">886</property>
  <property name="kdenlive:original.length">887</property>
  <property name="kdenlive:original.eof">pause</property>
  <property name="kdenlive:original.resource">content/musicians/2021-06-02_Caleb+Chris_upright+piano+handheld_suzy_MVI_5994-take1_caleb_beginning.mkv</property>
  <property name="kdenlive:original.meta.media.nb_streams">2</property>
  <property name="kdenlive:original.meta.media.0.stream.type">video</property>
  <property name="kdenlive:original.meta.media.0.stream.frame_rate">29.97</property>
  <property name="kdenlive:original.meta.media.0.stream.sample_aspect_ratio">0</property>
  <property name="kdenlive:original.meta.media.0.codec.width">1920</property>
  <property name="kdenlive:original.meta.media.0.codec.height">1080</property>
  <property name="kdenlive:original.meta.media.0.codec.rotate">0</property>
  <property name="kdenlive:original.meta.media.0.codec.frame_rate">1000</property>
  <property name="kdenlive:original.meta.media.0.codec.pix_fmt">yuvj420p</property>
  <property name="kdenlive:original.meta.media.0.codec.sample_aspect_ratio">0</property>
  <property name="kdenlive:original.meta.media.0.codec.colorspace">601</property>
  <property name="kdenlive:original.meta.media.0.codec.color_trc">1</property>
  <property name="kdenlive:original.meta.media.0.codec.name">h264</property>
  <property name="kdenlive:original.meta.media.0.codec.long_name">H.264 / AVC / MPEG-4 AVC / MPEG-4 part 10</property>
  <property name="kdenlive:original.meta.media.0.codec.bit_rate">0</property>
  <property name="kdenlive:original.meta.attr.0.stream.language.markup">eng</property>
  <property name="kdenlive:original.meta.attr.0.stream.DURATION.markup">00:00:29.563000000</property>
  <property name="kdenlive:original.meta.media.1.stream.type">audio</property>
  <property name="kdenlive:original.meta.media.1.codec.sample_fmt">s16</property>
  <property name="kdenlive:original.meta.media.1.codec.sample_rate">48000</property>
  <property name="kdenlive:original.meta.media.1.codec.channels">2</property>
  <property name="kdenlive:original.meta.media.1.codec.name">pcm_s16le</property>
  <property name="kdenlive:original.meta.media.1.codec.long_name">PCM signed 16-bit little-endian</property>
  <property name="kdenlive:original.meta.media.1.codec.bit_rate">1536000</property>
  <property name="kdenlive:original.meta.attr.1.stream.language.markup">eng</property>
  <property name="kdenlive:original.meta.attr.1.stream.DURATION.markup">00:00:29.562000000</property>
  <property name="kdenlive:original.meta.attr.COMPATIBLE_BRANDS.markup">qt  CAEP</property>
  <property name="kdenlive:original.meta.attr.creation_time.markup">2021-06-02T14:29:18.000000Z</property>
  <property name="kdenlive:original.meta.attr.MAJOR_BRAND.markup">qt  </property>
  <property name="kdenlive:original.meta.attr.MINOR_VERSION.markup">537331968</property>
  <property name="kdenlive:original.meta.attr.ENCODER.markup">Lavf58.45.100</property>
  <property name="kdenlive:original.seekable">1</property>
  <property name="kdenlive:original.width">1920</property>
  <property name="kdenlive:original.height">1080</property>
  <property name="kdenlive:original.meta.media.sample_aspect_num">1</property>
  <property name="kdenlive:original.meta.media.sample_aspect_den">1</property>
  <property name="kdenlive:original.aspect_ratio">1</property>
  <property name="kdenlive:original.audio_index">1</property>
  <property name="kdenlive:original.video_index">0</property>
  <property name="kdenlive:original.mute_on_pause">0</property>
  <property name="kdenlive:original.mlt_service">avformat-novalidate</property>
  <property name="kdenlive:original.kdenlive:folderid">103</property>
  <property name="kdenlive:original.meta.media.frame_rate_num">30000</property>
  <property name="kdenlive:original.meta.media.frame_rate_den">1001</property>
  <property name="kdenlive:original.meta.media.colorspace">601</property>
  <property name="kdenlive:original.meta.media.color_trc">1</property>
  <property name="kdenlive:original.meta.media.width">1920</property>
  <property name="kdenlive:original.meta.media.height">1080</property>
  <property name="kdenlive:original.meta.media.color_range">full</property>
  <property name="kdenlive:original.kdenlive:id">113</property>
  <property name="kdenlive:original.kdenlive:file_size">172419124</property>
  <property name="kdenlive:original.kdenlive:file_hash">f89156b45f0cb2fcf8cb31fe7feec74f</property>
  <property name="kdenlive:original.backup">1</property>
  <property name="kdenlive:audio_max">1</property>
  <property name="global_feed">1</property>
  <property name="meta.media.nb_streams">2</property>
  <property name="meta.media.0.stream.type">video</property>
  <property name="meta.media.0.stream.frame_rate">29.97</property>
  <property name="meta.media.0.stream.sample_aspect_ratio">0</property>
  <property name="meta.media.0.codec.width">960</property>
  <property name="meta.media.0.codec.height">540</property>
  <property name="meta.media.0.codec.rotate">0</property>
  <property name="meta.media.0.codec.frame_rate">1000</property>
  <property name="meta.media.0.codec.pix_fmt">yuvj420p</property>
  <property name="meta.media.0.codec.sample_aspect_ratio">0</property>
  <property name="meta.media.0.codec.colorspace">601</property>
  <property name="meta.media.0.codec.name">mjpeg</property>
  <property name="meta.media.0.codec.long_name">MJPEG (Motion JPEG)</property>
  <property name="meta.media.0.codec.bit_rate">0</property>
  <property name="meta.attr.0.stream.language.markup">eng</property>
  <property name="meta.attr.0.stream.ENCODER.markup">Lavc58.91.100 mjpeg</property>
  <property name="meta.attr.0.stream.DURATION.markup">00:00:29.563000000</property>
  <property name="meta.media.1.stream.type">audio</property>
  <property name="meta.media.1.codec.sample_fmt">s16</property>
  <property name="meta.media.1.codec.sample_rate">48000</property>
  <property name="meta.media.1.codec.channels">2</property>
  <property name="meta.media.1.codec.name">pcm_s16le</property>
  <property name="meta.media.1.codec.long_name">PCM signed 16-bit little-endian</property>
  <property name="meta.media.1.codec.bit_rate">1536000</property>
  <property name="meta.attr.1.stream.language.markup">eng</property>
  <property name="meta.attr.1.stream.ENCODER.markup">Lavc58.91.100 pcm_s16le</property>
  <property name="meta.attr.1.stream.DURATION.markup">00:00:29.562000000</property>
  <property name="meta.attr.MAJOR_BRAND.markup">qt  </property>
  <property name="meta.attr.COMPATIBLE_BRANDS.markup">qt  CAEP</property>
  <property name="meta.attr.MINOR_VERSION.markup">537331968</property>
  <property name="meta.attr.ENCODER.markup">Lavf58.45.100</property>
  <property name="meta.media.sample_aspect_num">1</property>
  <property name="meta.media.sample_aspect_den">1</property>
  <property name="meta.media.frame_rate_num">30000</property>
  <property name="meta.media.frame_rate_den">1001</property>
  <property name="meta.media.colorspace">601</property>
  <property name="meta.media.color_trc">2</property>
  <property name="meta.media.width">960</property>
  <property name="meta.media.height">540</property>
  <property name="meta.media.color_range">full</property>
  <property name="meta.media.top_field_first">0</property>
  <property name="meta.media.progressive">1</property>
 </producer>
 <producer id="producer72" in="00:00:00.000" out="00:02:03.800">
  <property name="length">3715</property>
  <property name="eof">pause</property>
  <property name="resource">/home/ryankelln/.cache/kdenlive/proxy/ff701e251d0df294f877763fc3abac78.mkv</property>
  <property name="audio_index">1</property>
  <property name="video_index">0</property>
  <property name="mute_on_pause">0</property>
  <property name="mlt_service">avformat-novalidate</property>
  <property name="seekable">1</property>
  <property name="aspect_ratio">1</property>
  <property name="kdenlive:clipname">2021-06-02_Caleb+Chris_upright+piano+handheld_suzy_MVI_5994-take1_chris.mkv</property>
  <property name="kdenlive:folderid">103</property>
  <property name="kdenlive:id">79</property>
  <property name="kdenlive:file_size">727311861</property>
  <property name="kdenlive:file_hash">ff701e251d0df294f877763fc3abac78</property>
  <property name="kdenlive:proxy">/home/ryankelln/.cache/kdenlive/proxy/ff701e251d0df294f877763fc3abac78.mkv</property>
  <property name="kdenlive:originalurl">content/musicians/2021-06-02_Caleb+Chris_upright+piano+handheld_suzy_MVI_5994-take1_chris.mkv</property>
  <property name="kdenlive:original.mlt_type">producer</property>
  <property name="kdenlive:original.in">0</property>
  <property name="kdenlive:original.out">3714</property>
  <property name="kdenlive:original.length">3715</property>
  <property name="kdenlive:original.eof">pause</property>
  <property name="kdenlive:original.resource">content/musicians/2021-06-02_Caleb+Chris_upright+piano+handheld_suzy_MVI_5994-take1_chris.mkv</property>
  <property name="kdenlive:original.meta.media.nb_streams">2</property>
  <property name="kdenlive:original.meta.media.0.stream.type">video</property>
  <property name="kdenlive:original.meta.media.0.stream.frame_rate">29.97</property>
  <property name="kdenlive:original.meta.media.0.stream.sample_aspect_ratio">0</property>
  <property name="kdenlive:original.meta.media.0.codec.width">1920</property>
  <property name="kdenlive:original.meta.media.0.codec.height">1080</property>
  <property name="kdenlive:original.meta.media.0.codec.rotate">0</property>
  <property name="kdenlive:original.meta.media.0.codec.frame_rate">1000</property>
  <property name="kdenlive:original.meta.media.0.codec.pix_fmt">yuvj420p</property>
  <property name="kdenlive:original.meta.media.0.codec.sample_aspect_ratio">0</property>
  <property name="kdenlive:original.meta.media.0.codec.colorspace">601</property>
  <property name="kdenlive:original.meta.media.0.codec.color_trc">1</property>
  <property name="kdenlive:original.meta.media.0.codec.name">h264</property>
  <property name="kdenlive:original.meta.media.0.codec.long_name">H.264 / AVC / MPEG-4 AVC / MPEG-4 part 10</property>
  <property name="kdenlive:original.meta.media.0.codec.bit_rate">0</property>
  <property name="kdenlive:original.meta.attr.0.stream.language.markup">eng</property>
  <property name="kdenlive:original.meta.attr.0.stream.DURATION.markup">00:02:03.824000000</property>
  <property name="kdenlive:original.meta.media.1.stream.type">audio</property>
  <property name="kdenlive:original.meta.media.1.codec.sample_fmt">s16</property>
  <property name="kdenlive:original.meta.media.1.codec.sample_rate">48000</property>
  <property name="kdenlive:original.meta.media.1.codec.channels">2</property>
  <property name="kdenlive:original.meta.media.1.codec.name">pcm_s16le</property>
  <property name="kdenlive:original.meta.media.1.codec.long_name">PCM signed 16-bit little-endian</property>
  <property name="kdenlive:original.meta.media.1.codec.bit_rate">1536000</property>
  <property name="kdenlive:original.meta.attr.1.stream.language.markup">eng</property>
  <property name="kdenlive:original.meta.attr.1.stream.DURATION.markup">00:02:03.827000000</property>
  <property name="kdenlive:original.meta.attr.COMPATIBLE_BRANDS.markup">qt  CAEP</property>
  <property name="kdenlive:original.meta.attr.creation_time.markup">2021-06-02T14:29:18.000000Z</property>
  <property name="kdenlive:original.meta.attr.MAJOR_BRAND.markup">qt  </property>
  <property name="kdenlive:original.meta.attr.MINOR_VERSION.markup">537331968</property>
  <property name="kdenlive:original.meta.attr.ENCODER.markup">Lavf58.45.100</property>
  <property name="kdenlive:original.seekable">1</property>
  <property name="kdenlive:original.width">1920</property>
  <property name="kdenlive:original.height">1080</property>
  <property name="kdenlive:original.meta.media.sample_aspect_num">1</property>
  <property name="kdenlive:original.meta.media.sample_aspect_den">1</property>
  <property name="kdenlive:original.aspect_ratio">1</property>
  <property name="kdenlive:original.audio_index">1</property>
  <property name="kdenlive:original.video_index">0</property>
  <property name="kdenlive:original.mute_on_pause">0</property>
  <property name="kdenlive:original.mlt_service">avformat-novalidate</property>
  <property name="kdenlive:original.kdenlive:folderid">103</property>
  <property name="kdenlive:original.meta.media.frame_rate_num">30000</property>
  <property name="kdenlive:original.meta.media.frame_rate_den">1001</property>
  <property name="kdenlive:original.meta.media.colorspace">601</property>
  <property name="kdenlive:original.meta.media.color_trc">1</property>
  <property name="kdenlive:original.meta.media.width">1920</property>
  <property name="kdenlive:original.meta.media.height">1080</property>
  <property name="kdenlive:original.meta.media.color_range">full</property>
  <property name="kdenlive:original.kdenlive:id">114</property>
  <property name="kdenlive:original.kdenlive:file_size">727311861</property>
  <property name="kdenlive:original.kdenlive:file_hash">ff701e251d0df294f877763fc3abac78</property>
  <property name="kdenlive:original.backup">1</property>
  <property name="kdenlive:audio_max">1</property>
  <property name="global_feed">1</property>
  <property name="meta.media.nb_streams">2</property>
  <property name="meta.media.0.stream.type">video</property>
  <property name="meta.media.0.stream.frame_rate">29.97</property>
  <property name="meta.media.0.stream.sample_aspect_ratio">0</property>
  <property name="meta.media.0.codec.width">960</property>
  <property name="meta.media.0.codec.height">540</property>
  <property name="meta.media.0.codec.rotate">0</property>
  <property name="meta.media.0.codec.frame_rate">1000</property>
  <property name="meta.media.0.codec.pix_fmt">yuvj420p</property>
  <property name="meta.media.0.codec.sample_aspect_ratio">0</property>
  <property name="meta.media.0.codec.colorspace">601</property>
  <property name="meta.media.0.codec.name">mjpeg</property>
  <property name="meta.media.0.codec.long_name">MJPEG (Motion JPEG)</property>
  <property name="meta.media.0.codec.bit_rate">0</property>
  <property name="meta.attr.0.stream.language.markup">eng</property>
  <property name="meta.attr.0.stream.ENCODER.markup">Lavc58.91.100 mjpeg</property>
  <property name="meta.attr.0.stream.DURATION.markup">00:02:03.823000000</property>
  <property name="meta.media.1.stream.type">audio</property>
  <property name="meta.media.1.codec.sample_fmt">s16</property>
  <property name="meta.media.1.codec.sample_rate">48000</property>
  <property name="meta.media.1.codec.channels">2</property>
  <property name="meta.media.1.codec.name">pcm_s16le</property>
  <property name="meta.media.1.codec.long_name">PCM signed 16-bit little-endian</property>
  <property name="meta.media.1.codec.bit_rate">1536000</property>
  <property name="meta.attr.1.stream.language.markup">eng</property>
  <property name="meta.attr.1.stream.ENCODER.markup">Lavc58.91.100 pcm_s16le</property>
  <property name="meta.attr.1.stream.DURATION.markup">00:02:03.827000000</property>
  <property name="meta.attr.MAJOR_BRAND.markup">qt  </property>
  <property name="meta.attr.COMPATIBLE_BRANDS.markup">qt  CAEP</property>
  <property name="meta.attr.MINOR_VERSION.markup">537331968</property>
  <property name="meta.attr.ENCODER.markup">Lavf58.45.100</property>
  <property name="meta.media.sample_aspect_num">1</property>
  <property name="meta.media.sample_aspect_den">1</property>
  <property name="meta.media.frame_rate_num">30000</property>
  <property name="meta.media.frame_rate_den">1001</property>
  <property name="meta.media.colorspace">601</property>
  <property name="meta.media.color_trc">2</property>
  <property name="meta.media.width">960</property>
  <property name="meta.media.height">540</property>
  <property name="meta.media.color_range">full</property>
  <property name="meta.media.top_field_first">0</property>
  <property name="meta.media.progressive">1</property>
 </producer>
 <producer id="producer73" in="00:00:00.000" out="00:05:47.067">
  <property name="length">10413</property>
  <property name="eof">pause</property>
  <property name="resource">content/musicians/2021-06-02_Sarah_kit_suzy_00046-take1_beginning.MTS</property>
  <property name="audio_index">1</property>
  <property name="video_index">0</property>
  <property name="mute_on_pause">0</property>
  <property name="mlt_service">avformat-novalidate</property>
  <property name="meta.media.nb_streams">2</property>
  <property name="meta.media.0.stream.type">video</property>
  <property name="meta.media.0.stream.frame_rate">29.97</property>
  <property name="meta.media.0.stream.sample_aspect_ratio">0</property>
  <property name="meta.media.0.codec.width">1440</property>
  <property name="meta.media.0.codec.height">1080</property>
  <property name="meta.media.0.codec.rotate">0</property>
  <property name="meta.media.0.codec.frame_rate">29.97</property>
  <property name="meta.media.0.codec.pix_fmt">yuv420p</property>
  <property name="meta.media.0.codec.sample_aspect_ratio">1.33333</property>
  <property name="meta.media.0.codec.colorspace">709</property>
  <property name="meta.media.0.codec.name">h264</property>
  <property name="meta.media.0.codec.long_name">H.264 / AVC / MPEG-4 AVC / MPEG-4 part 10</property>
  <property name="meta.media.0.codec.bit_rate">0</property>
  <property name="meta.media.1.stream.type">audio</property>
  <property name="meta.media.1.codec.sample_fmt">fltp</property>
  <property name="meta.media.1.codec.sample_rate">48000</property>
  <property name="meta.media.1.codec.channels">2</property>
  <property name="meta.media.1.codec.name">ac3</property>
  <property name="meta.media.1.codec.long_name">ATSC A/52A (AC-3)</property>
  <property name="meta.media.1.codec.bit_rate">256000</property>
  <property name="seekable">1</property>
  <property name="meta.media.sample_aspect_num">4</property>
  <property name="meta.media.sample_aspect_den">3</property>
  <property name="aspect_ratio">1.33333</property>
  <property name="kdenlive:clipname"/>
  <property name="kdenlive:folderid">103</property>
  <property name="meta.media.frame_rate_num">30000</property>
  <property name="meta.media.frame_rate_den">1001</property>
  <property name="meta.media.colorspace">709</property>
  <property name="meta.media.color_trc">2</property>
  <property name="meta.media.width">1440</property>
  <property name="meta.media.height">1080</property>
  <property name="meta.media.color_range">mpeg</property>
  <property name="kdenlive:id">80</property>
  <property name="kdenlive:file_size">306002524</property>
  <property name="kdenlive:file_hash">90ffb3bfdcd3f40feb08d71ea61b1e91</property>
  <property name="kdenlive:audio_max">1</property>
  <property name="meta.media.top_field_first">1</property>
  <property name="meta.media.progressive">0</property>
  <property name="global_feed">1</property>
  <property name="kdenlive:activeeffect">1</property>
  <filter id="filter18">
   <property name="version">0.1</property>
   <property name="mlt_service">frei0r.hqdn3d</property>
   <property name="kdenlive_id">frei0r.hqdn3d</property>
   <property name="Spatial">00:00:00.000=0.01</property>
   <property name="Temporal">00:00:00.000=0.01</property>
   <property name="kdenlive:collapsed">0</property>
  </filter>
  <filter id="filter19">
   <property name="version">0.6</property>
   <property name="mlt_service">frei0r.select0r</property>
   <property name="kdenlive_id">frei0r.select0r</property>
   <property name="Color to select">0x419553ff</property>
   <property name="Invert selection">1</property>
   <property name="Selection subspace">1</property>
   <property name="Subspace shape">0</property>
   <property name="Edge mode">0.9</property>
   <property name="Delta R / A / Hue">00:00:00.000=0.025</property>
   <property name="Delta G / B / Chroma">00:00:00.000=0.171</property>
   <property name="Delta B / I / I">00:00:00.000=0.371</property>
   <property name="Slope">00:00:00.000=0.15</property>
   <property name="Operation">0.5</property>
   <property name="kdenlive:collapsed">0</property>
  </filter>
  <filter id="filter20">
   <property name="mlt_service">avfilter.despill</property>
   <property name="kdenlive_id">avfilter.despill</property>
   <property name="av.type">green</property>
   <property name="av.mix">0.106</property>
   <property name="av.expand">0</property>
   <property name="av.red">0</property>
   <property name="av.green">-0.9</property>
   <property name="av.blue">-0.5</property>
   <property name="av.brightness">0</property>
   <property name="kdenlive:collapsed">0</property>
  </filter>
 </producer>
 <producer id="producer0" in="00:00:00.000" out="00:00:04.967">
  <property name="length">00:00:05.000</property>
  <property name="eof">pause</property>
  <property name="resource">content/paintings/fall_clouds.jpg</property>
  <property name="ttl">25</property>
  <property name="aspect_ratio">1</property>
  <property name="progressive">1</property>
  <property name="seekable">1</property>
  <property name="meta.media.width">900</property>
  <property name="meta.media.height">720</property>
  <property name="mlt_service">qimage</property>
  <property name="kdenlive:clipname"/>
  <property name="kdenlive:duration">00:00:05.000</property>
  <property name="kdenlive:folderid">115</property>
  <property name="kdenlive:id">82</property>
  <property name="kdenlive:file_size">107307</property>
  <property name="kdenlive:file_hash">e30ce0a15ad56e4e4c59ae9a21e4e66a</property>
 </producer>
 <producer id="producer1" in="00:00:00.000" out="00:00:14.067">
  <property name="length">423</property>
  <property name="eof">pause</property>
  <property name="resource">content/paintings/fall_fence.jpg</property>
  <property name="ttl">25</property>
  <property name="aspect_ratio">1</property>
  <property name="progressive">1</property>
  <property name="seekable">1</property>
  <property name="meta.media.width">940</property>
  <property name="meta.media.height">720</property>
  <property name="mlt_service">qimage</property>
  <property name="kdenlive:clipname"/>
  <property name="kdenlive:duration">00:00:05.000</property>
  <property name="kdenlive:folderid">115</property>
  <property name="kdenlive:id">83</property>
  <property name="kdenlive:file_size">118140</property>
  <property name="kdenlive:file_hash">1ba0aa7838e20795977f372bb7b8a5ba</property>
  <property name="global_feed">1</property>
 </producer>
 <producer id="producer2" in="00:00:00.000" out="00:00:04.967">
  <property name="length">00:00:05.000</property>
  <property name="eof">pause</property>
  <property name="resource">content/paintings/fall_shadows.jpg</property>
  <property name="ttl">25</property>
  <property name="aspect_ratio">1</property>
  <property name="progressive">1</property>
  <property name="seekable">1</property>
  <property name="meta.media.width">908</property>
  <property name="meta.media.height">720</property>
  <property name="mlt_service">qimage</property>
  <property name="kdenlive:clipname"/>
  <property name="kdenlive:duration">00:00:05.000</property>
  <property name="kdenlive:folderid">115</property>
  <property name="kdenlive:id">84</property>
  <property name="kdenlive:file_size">64203</property>
  <property name="kdenlive:file_hash">afd324cda386e79b58f462d73eb39557</property>
 </producer>
 <producer id="producer3" in="00:00:00.000" out="00:00:11.933">
  <property name="length">359</property>
  <property name="eof">pause</property>
  <property name="resource">content/paintings/fall_sparkles.jpg</property>
  <property name="ttl">25</property>
  <property name="aspect_ratio">1</property>
  <property name="progressive">1</property>
  <property name="seekable">1</property>
  <property name="meta.media.width">924</property>
  <property name="meta.media.height">720</property>
  <property name="mlt_service">qimage</property>
  <property name="kdenlive:clipname"/>
  <property name="kdenlive:duration">00:00:05.000</property>
  <property name="kdenlive:folderid">115</property>
  <property name="kdenlive:id">85</property>
  <property name="kdenlive:file_size">101055</property>
  <property name="kdenlive:file_hash">2e163884218d87526e744dd95d203a22</property>
 </producer>
 <producer id="producer4" in="00:00:00.000" out="00:00:04.967">
  <property name="length">00:00:05.000</property>
  <property name="eof">pause</property>
  <property name="resource">content/paintings/fishing_boats.jpg</property>
  <property name="ttl">25</property>
  <property name="aspect_ratio">1</property>
  <property name="progressive">1</property>
  <property name="seekable">1</property>
  <property name="meta.media.width">924</property>
  <property name="meta.media.height">720</property>
  <property name="mlt_service">qimage</property>
  <property name="kdenlive:clipname"/>
  <property name="kdenlive:duration">00:00:05.000</property>
  <property name="kdenlive:folderid">115</property>
  <property name="kdenlive:id">86</property>
  <property name="kdenlive:file_size">89121</property>
  <property name="kdenlive:file_hash">ce8336ac7c4ef5ec89aca2d0d243d90f</property>
 </producer>
 <producer id="producer5" in="00:00:00.000" out="00:00:27.000">
  <property name="length">811</property>
  <property name="eof">pause</property>
  <property name="resource">content/paintings/garage.jpg</property>
  <property name="ttl">25</property>
  <property name="aspect_ratio">1</property>
  <property name="progressive">1</property>
  <property name="seekable">1</property>
  <property name="meta.media.width">912</property>
  <property name="meta.media.height">720</property>
  <property name="mlt_service">qimage</property>
  <property name="kdenlive:clipname"/>
  <property name="kdenlive:duration">00:00:05.000</property>
  <property name="kdenlive:folderid">115</property>
  <property name="kdenlive:id">87</property>
  <property name="kdenlive:file_size">121927</property>
  <property name="kdenlive:file_hash">db6cd98094b2939fc0b993a650c92fb5</property>
  <property name="global_feed">1</property>
 </producer>
 <producer id="producer6" in="00:00:00.000" out="00:00:04.967">
  <property name="length">00:00:05.000</property>
  <property name="eof">pause</property>
  <property name="resource">content/paintings/portrait.jpg</property>
  <property name="ttl">25</property>
  <property name="aspect_ratio">1</property>
  <property name="progressive">1</property>
  <property name="seekable">1</property>
  <property name="meta.media.width">572</property>
  <property name="meta.media.height">720</property>
  <property name="mlt_service">qimage</property>
  <property name="kdenlive:clipname"/>
  <property name="kdenlive:duration">00:00:05.000</property>
  <property name="kdenlive:folderid">115</property>
  <property name="kdenlive:id">88</property>
  <property name="kdenlive:file_size">52474</property>
  <property name="kdenlive:file_hash">55bf8d667411d7194e4a24c6266f4d9e</property>
 </producer>
 <producer id="producer7" in="00:00:00.000" out="00:00:10.867">
  <property name="length">327</property>
  <property name="eof">pause</property>
  <property name="resource">content/paintings/reflections.jpg</property>
  <property name="ttl">25</property>
  <property name="aspect_ratio">1</property>
  <property name="progressive">1</property>
  <property name="seekable">1</property>
  <property name="meta.media.width">932</property>
  <property name="meta.media.height">720</property>
  <property name="mlt_service">qimage</property>
  <property name="kdenlive:clipname"/>
  <property name="kdenlive:duration">00:00:05.000</property>
  <property name="kdenlive:folderid">115</property>
  <property name="kdenlive:id">89</property>
  <property name="kdenlive:file_size">118090</property>
  <property name="kdenlive:file_hash">b87562233ce60e5247710d01bdb717fc</property>
 </producer>
 <producer id="producer8" in="00:00:00.000" out="00:00:04.967">
  <property name="length">00:00:05.000</property>
  <property name="eof">pause</property>
  <property name="resource">content/paintings/river_church.jpg</property>
  <property name="ttl">25</property>
  <property name="aspect_ratio">1</property>
  <property name="progressive">1</property>
  <property name="seekable">1</property>
  <property name="meta.media.width">892</property>
  <property name="meta.media.height">720</property>
  <property name="mlt_service">qimage</property>
  <property name="kdenlive:clipname"/>
  <property name="kdenlive:duration">00:00:05.000</property>
  <property name="kdenlive:folderid">115</property>
  <property name="kdenlive:id">90</property>
  <property name="kdenlive:file_size">79781</property>
  <property name="kdenlive:file_hash">1bbc3229748a8c7f63c29324b2654ac2</property>
 </producer>
 <producer id="producer10" in="00:00:00.000" out="00:00:10.867">
  <property name="length">327</property>
  <property name="eof">pause</property>
  <property name="resource">content/paintings/river_church.png</property>
  <property name="ttl">25</property>
  <property name="aspect_ratio">1</property>
  <property name="progressive">1</property>
  <property name="seekable">1</property>
  <property name="meta.media.width">880</property>
  <property name="meta.media.height">720</property>
  <property name="mlt_service">qimage</property>
  <property name="kdenlive:clipname"/>
  <property name="kdenlive:duration">00:00:05.000</property>
  <property name="kdenlive:folderid">115</property>
  <property name="kdenlive:id">91</property>
  <property name="kdenlive:file_size">750154</property>
  <property name="kdenlive:file_hash">ae03394b7fe2c051d847465c16c24b1a</property>
 </producer>
 <producer id="producer9" in="00:00:00.000" out="00:00:04.967">
  <property name="length">00:00:05.000</property>
  <property name="eof">pause</property>
  <property name="resource">content/paintings/rocky_hill.jpg</property>
  <property name="ttl">25</property>
  <property name="aspect_ratio">1</property>
  <property name="progressive">1</property>
  <property name="seekable">1</property>
  <property name="meta.media.width">912</property>
  <property name="meta.media.height">720</property>
  <property name="mlt_service">qimage</property>
  <property name="kdenlive:clipname"/>
  <property name="kdenlive:duration">00:00:05.000</property>
  <property name="kdenlive:folderid">115</property>
  <property name="kdenlive:id">92</property>
  <property name="kdenlive:file_size">120435</property>
  <property name="kdenlive:file_hash">ccdd1b8001be1e188bcb0a8b5349c0dd</property>
 </producer>
 <producer id="producer11" in="00:00:00.000" out="00:00:10.867">
  <property name="length">327</property>
  <property name="eof">pause</property>
  <property name="resource">content/paintings/rowboats.jpg</property>
  <property name="ttl">25</property>
  <property name="aspect_ratio">1</property>
  <property name="progressive">1</property>
  <property name="seekable">1</property>
  <property name="meta.media.width">912</property>
  <property name="meta.media.height">720</property>
  <property name="mlt_service">qimage</property>
  <property name="kdenlive:clipname"/>
  <property name="kdenlive:duration">00:00:05.000</property>
  <property name="kdenlive:folderid">115</property>
  <property name="kdenlive:id">93</property>
  <property name="kdenlive:file_size">132014</property>
  <property name="kdenlive:file_hash">2edd9f017926f9e99610a94871ed9046</property>
  <property name="global_feed">1</property>
 </producer>
 <producer id="producer12" in="00:00:00.000" out="00:00:10.867">
  <property name="length">327</property>
  <property name="eof">pause</property>
  <property name="resource">content/paintings/seaman.jpg</property>
  <property name="ttl">25</property>
  <property name="aspect_ratio">1</property>
  <property name="progressive">1</property>
  <property name="seekable">1</property>
  <property name="meta.media.width">908</property>
  <property name="meta.media.height">720</property>
  <property name="mlt_service">qimage</property>
  <property name="kdenlive:clipname"/>
  <property name="kdenlive:duration">00:00:05.000</property>
  <property name="kdenlive:folderid">115</property>
  <property name="kdenlive:id">94</property>
  <property name="kdenlive:file_size">94755</property>
  <property name="kdenlive:file_hash">5567ada35eb8dd58a8df430bce36b817</property>
 </producer>
 <producer id="producer13" in="00:00:00.000" out="00:00:04.967">
  <property name="length">00:00:05.000</property>
  <property name="eof">pause</property>
  <property name="resource">content/paintings/snowy_fallen_tree.jpg</property>
  <property name="ttl">25</property>
  <property name="aspect_ratio">1</property>
  <property name="progressive">1</property>
  <property name="seekable">1</property>
  <property name="meta.media.width">912</property>
  <property name="meta.media.height">720</property>
  <property name="mlt_service">qimage</property>
  <property name="kdenlive:clipname"/>
  <property name="kdenlive:duration">00:00:05.000</property>
  <property name="kdenlive:folderid">115</property>
  <property name="kdenlive:id">95</property>
  <property name="kdenlive:file_size">126716</property>
  <property name="kdenlive:file_hash">23706063a1c37ceaddc1e93ca5965735</property>
 </producer>
 <producer id="producer14" in="00:00:00.000" out="00:00:04.967">
  <property name="length">00:00:05.000</property>
  <property name="eof">pause</property>
  <property name="resource">content/paintings/stream.jpg</property>
  <property name="ttl">25</property>
  <property name="aspect_ratio">1</property>
  <property name="progressive">1</property>
  <property name="seekable">1</property>
  <property name="meta.media.width">924</property>
  <property name="meta.media.height">720</property>
  <property name="mlt_service">qimage</property>
  <property name="kdenlive:clipname"/>
  <property name="kdenlive:duration">00:00:05.000</property>
  <property name="kdenlive:folderid">115</property>
  <property name="kdenlive:id">96</property>
  <property name="kdenlive:file_size">113484</property>
  <property name="kdenlive:file_hash">f026b4606009c800bd82d0f4c3ddddc6</property>
 </producer>
 <producer id="producer15" in="00:00:00.000" out="00:00:15.833">
  <property name="length">476</property>
  <property name="eof">pause</property>
  <property name="resource">content/paintings/summer_trees.jpg</property>
  <property name="ttl">25</property>
  <property name="aspect_ratio">1</property>
  <property name="progressive">1</property>
  <property name="seekable">1</property>
  <property name="meta.media.width">908</property>
  <property name="meta.media.height">720</property>
  <property name="mlt_service">qimage</property>
  <property name="kdenlive:clipname"/>
  <property name="kdenlive:duration">00:00:05.000</property>
  <property name="kdenlive:folderid">115</property>
  <property name="kdenlive:id">97</property>
  <property name="kdenlive:file_size">100482</property>
  <property name="kdenlive:file_hash">a5397a65afe6baada1f5bb39e5f2699f</property>
  <property name="global_feed">1</property>
 </producer>
 <producer id="producer16" in="00:00:00.000" out="00:00:39.733">
  <property name="length">1193</property>
  <property name="eof">pause</property>
  <property name="resource">content/paintings/winter_homestead.jpg</property>
  <property name="ttl">25</property>
  <property name="aspect_ratio">1</property>
  <property name="progressive">1</property>
  <property name="seekable">1</property>
  <property name="meta.media.width">936</property>
  <property name="meta.media.height">720</property>
  <property name="mlt_service">qimage</property>
  <property name="kdenlive:clipname"/>
  <property name="kdenlive:duration">00:00:05.000</property>
  <property name="kdenlive:folderid">115</property>
  <property name="kdenlive:id">98</property>
  <property name="kdenlive:file_size">128252</property>
  <property name="kdenlive:file_hash">c4ffacff3d1d8ed6d11420338c8085e8</property>
  <property name="global_feed">1</property>
 </producer>
 <producer id="producer82" in="00:00:00.000" out="00:03:57.733">
  <property name="length">7133</property>
  <property name="eof">pause</property>
  <property name="resource">/home/ryankelln/.cache/kdenlive/proxy/07089876326ddc1ceee00d33cebf490a.mkv</property>
  <property name="audio_index">1</property>
  <property name="video_index">0</property>
  <property name="mute_on_pause">0</property>
  <property name="mlt_service">avformat-novalidate</property>
  <property name="seekable">1</property>
  <property name="aspect_ratio">1</property>
  <property name="kdenlive:clipname">2021-06-02_143621_Sarah_kit+handheld_suzy-take1_swing.mp4</property>
  <property name="kdenlive:folderid">103</property>
  <property name="kdenlive:id">99</property>
  <property name="kdenlive:file_size">793706496</property>
  <property name="kdenlive:file_hash">07089876326ddc1ceee00d33cebf490a</property>
  <property name="kdenlive:proxy">/home/ryankelln/.cache/kdenlive/proxy/07089876326ddc1ceee00d33cebf490a.mkv</property>
  <property name="kdenlive:originalurl">/media/storage/media/Videos/mine/music_landscapes/2021-06-02_recording/Sony AVCHD/2021-06-02_143621_Sarah_kit+handheld_suzy.m2ts</property>
  <property name="kdenlive:original.mlt_type">producer</property>
  <property name="kdenlive:original.in">0</property>
  <property name="kdenlive:original.out">7132</property>
  <property name="kdenlive:original.length">7133</property>
  <property name="kdenlive:original.eof">pause</property>
  <property name="kdenlive:original.resource">/media/storage/media/Videos/mine/music_landscapes/2021-06-02_recording/Sony AVCHD/2021-06-02_143621_Sarah_kit+handheld_suzy.m2ts</property>
  <property name="kdenlive:original.meta.media.nb_streams">3</property>
  <property name="kdenlive:original.meta.media.0.stream.type">video</property>
  <property name="kdenlive:original.meta.media.0.stream.frame_rate">59.9401</property>
  <property name="kdenlive:original.meta.media.0.stream.sample_aspect_ratio">0</property>
  <property name="kdenlive:original.meta.media.0.codec.width">1920</property>
  <property name="kdenlive:original.meta.media.0.codec.height">1080</property>
  <property name="kdenlive:original.meta.media.0.codec.rotate">0</property>
  <property name="kdenlive:original.meta.media.0.codec.frame_rate">59.9401</property>
  <property name="kdenlive:original.meta.media.0.codec.pix_fmt">yuv420p</property>
  <property name="kdenlive:original.meta.media.0.codec.sample_aspect_ratio">1</property>
  <property name="kdenlive:original.meta.media.0.codec.colorspace">709</property>
  <property name="kdenlive:original.meta.media.0.codec.name">h264</property>
  <property name="kdenlive:original.meta.media.0.codec.long_name">H.264 / AVC / MPEG-4 AVC / MPEG-4 part 10</property>
  <property name="kdenlive:original.meta.media.0.codec.bit_rate">0</property>
  <property name="kdenlive:original.meta.media.1.stream.type">audio</property>
  <property name="kdenlive:original.meta.media.1.codec.sample_fmt">fltp</property>
  <property name="kdenlive:original.meta.media.1.codec.sample_rate">48000</property>
  <property name="kdenlive:original.meta.media.1.codec.channels">6</property>
  <property name="kdenlive:original.meta.media.1.codec.name">ac3</property>
  <property name="kdenlive:original.meta.media.1.codec.long_name">ATSC A/52A (AC-3)</property>
  <property name="kdenlive:original.meta.media.1.codec.bit_rate">448000</property>
  <property name="kdenlive:original.meta.media.2.codec.name">pgssub</property>
  <property name="kdenlive:original.meta.media.2.codec.long_name">HDMV Presentation Graphic Stream subtitles</property>
  <property name="kdenlive:original.meta.media.2.codec.bit_rate">0</property>
  <property name="kdenlive:original.seekable">1</property>
  <property name="kdenlive:original.width">1920</property>
  <property name="kdenlive:original.height">1080</property>
  <property name="kdenlive:original.meta.media.sample_aspect_num">1</property>
  <property name="kdenlive:original.meta.media.sample_aspect_den">1</property>
  <property name="kdenlive:original.aspect_ratio">1</property>
  <property name="kdenlive:original.audio_index">1</property>
  <property name="kdenlive:original.video_index">0</property>
  <property name="kdenlive:original.mute_on_pause">0</property>
  <property name="kdenlive:original.mlt_service">avformat-novalidate</property>
  <property name="kdenlive:original.kdenlive:folderid">103</property>
  <property name="kdenlive:original.meta.media.frame_rate_num">60000</property>
  <property name="kdenlive:original.meta.media.frame_rate_den">1001</property>
  <property name="kdenlive:original.meta.media.colorspace">709</property>
  <property name="kdenlive:original.meta.media.color_trc">2</property>
  <property name="kdenlive:original.meta.media.width">1920</property>
  <property name="kdenlive:original.meta.media.height">1080</property>
  <property name="kdenlive:original.meta.media.color_range">mpeg</property>
  <property name="kdenlive:original.kdenlive:id">119</property>
  <property name="kdenlive:original.kdenlive:file_size">793706496</property>
  <property name="kdenlive:original.kdenlive:file_hash">07089876326ddc1ceee00d33cebf490a</property>
  <property name="kdenlive:original.backup">1</property>
  <property name="kdenlive:audio_max">4</property>
  <property name="global_feed">1</property>
  <property name="meta.media.nb_streams">2</property>
  <property name="meta.media.0.stream.type">video</property>
  <property name="meta.media.0.stream.frame_rate">59.9401</property>
  <property name="meta.media.0.stream.sample_aspect_ratio">1</property>
  <property name="meta.media.0.codec.width">960</property>
  <property name="meta.media.0.codec.height">540</property>
  <property name="meta.media.0.codec.rotate">0</property>
  <property name="meta.media.0.codec.frame_rate">1000</property>
  <property name="meta.media.0.codec.pix_fmt">yuvj420p</property>
  <property name="meta.media.0.codec.sample_aspect_ratio">1</property>
  <property name="meta.media.0.codec.colorspace">601</property>
  <property name="meta.media.0.codec.name">mjpeg</property>
  <property name="meta.media.0.codec.long_name">MJPEG (Motion JPEG)</property>
  <property name="meta.media.0.codec.bit_rate">0</property>
  <property name="meta.attr.0.stream.ENCODER.markup">Lavc58.91.100 mjpeg</property>
  <property name="meta.attr.0.stream.DURATION.markup">00:03:57.738000000</property>
  <property name="meta.media.1.stream.type">audio</property>
  <property name="meta.media.1.codec.sample_fmt">s16</property>
  <property name="meta.media.1.codec.sample_rate">48000</property>
  <property name="meta.media.1.codec.channels">6</property>
  <property name="meta.media.1.codec.name">pcm_s16le</property>
  <property name="meta.media.1.codec.long_name">PCM signed 16-bit little-endian</property>
  <property name="meta.media.1.codec.bit_rate">4608000</property>
  <property name="meta.attr.1.stream.ENCODER.markup">Lavc58.91.100 pcm_s16le</property>
  <property name="meta.attr.1.stream.DURATION.markup">00:03:57.760000000</property>
  <property name="meta.attr.ENCODER.markup">Lavf58.45.100</property>
  <property name="meta.media.sample_aspect_num">1</property>
  <property name="meta.media.sample_aspect_den">1</property>
  <property name="meta.media.frame_rate_num">19001</property>
  <property name="meta.media.frame_rate_den">317</property>
  <property name="meta.media.colorspace">601</property>
  <property name="meta.media.color_trc">2</property>
  <property name="meta.media.width">960</property>
  <property name="meta.media.height">540</property>
  <property name="meta.media.color_range">full</property>
  <property name="meta.media.top_field_first">0</property>
  <property name="meta.media.progressive">1</property>
  <property name="kdenlive:activeeffect">2</property>
  <filter id="filter21">
   <property name="version">0.1</property>
   <property name="mlt_service">frei0r.hqdn3d</property>
   <property name="kdenlive_id">frei0r.hqdn3d</property>
   <property name="Spatial">00:00:00.000=0.01</property>
   <property name="Temporal">00:00:00.000=0.01</property>
   <property name="kdenlive:collapsed">0</property>
  </filter>
  <filter id="filter22">
   <property name="version">0.6</property>
   <property name="mlt_service">frei0r.select0r</property>
   <property name="kdenlive_id">frei0r.select0r</property>
   <property name="Color to select">0x17863cff</property>
   <property name="Invert selection">1</property>
   <property name="Selection subspace">1</property>
   <property name="Subspace shape">0</property>
   <property name="Edge mode">0.9</property>
   <property name="Delta R / A / Hue">00:00:00.000=0.033</property>
   <property name="Delta G / B / Chroma">00:00:00.000=0.169</property>
   <property name="Delta B / I / I">00:00:00.000=0.219</property>
   <property name="Slope">00:00:00.000=0.1</property>
   <property name="Operation">0.5</property>
   <property name="kdenlive:collapsed">0</property>
  </filter>
  <filter id="filter23">
   <property name="mlt_service">avfilter.despill</property>
   <property name="kdenlive_id">avfilter.despill</property>
   <property name="av.type">green</property>
   <property name="av.mix">0.182</property>
   <property name="av.expand">0.032</property>
   <property name="av.red">0</property>
   <property name="av.green">-0.9</property>
   <property name="av.blue">-0.6</property>
   <property name="av.brightness">0</property>
   <property name="kdenlive:collapsed">0</property>
  </filter>
 </producer>
 <producer id="producer83" in="00:00:00.000" out="00:00:17.167">
  <property name="length">516</property>
  <property name="eof">pause</property>
  <property name="resource">content/animated_paintings/paino_field_composite_test_03.mp4</property>
  <property name="audio_index">1</property>
  <property name="video_index">0</property>
  <property name="mute_on_pause">0</property>
  <property name="mlt_service">avformat-novalidate</property>
  <property name="meta.media.nb_streams">2</property>
  <property name="meta.media.0.stream.type">video</property>
  <property name="meta.media.0.stream.frame_rate">24</property>
  <property name="meta.media.0.stream.sample_aspect_ratio">1</property>
  <property name="meta.media.0.codec.width">640</property>
  <property name="meta.media.0.codec.height">360</property>
  <property name="meta.media.0.codec.rotate">0</property>
  <property name="meta.media.0.codec.frame_rate">24</property>
  <property name="meta.media.0.codec.pix_fmt">yuv420p</property>
  <property name="meta.media.0.codec.sample_aspect_ratio">1</property>
  <property name="meta.media.0.codec.colorspace">601</property>
  <property name="meta.media.0.codec.color_trc">6</property>
  <property name="meta.media.0.codec.name">h264</property>
  <property name="meta.media.0.codec.long_name">H.264 / AVC / MPEG-4 AVC / MPEG-4 part 10</property>
  <property name="meta.media.0.codec.bit_rate">1134082</property>
  <property name="meta.attr.0.stream.handler_name.markup">VideoHandler</property>
  <property name="meta.media.1.stream.type">audio</property>
  <property name="meta.media.1.codec.sample_fmt">fltp</property>
  <property name="meta.media.1.codec.sample_rate">48000</property>
  <property name="meta.media.1.codec.channels">2</property>
  <property name="meta.media.1.codec.name">aac</property>
  <property name="meta.media.1.codec.long_name">AAC (Advanced Audio Coding)</property>
  <property name="meta.media.1.codec.bit_rate">2281</property>
  <property name="meta.attr.1.stream.handler_name.markup">SoundHandler</property>
  <property name="meta.attr.major_brand.markup">isom</property>
  <property name="meta.attr.minor_version.markup">512</property>
  <property name="meta.attr.compatible_brands.markup">isomiso2avc1mp41</property>
  <property name="meta.attr.encoder.markup">Lavf58.45.100</property>
  <property name="seekable">1</property>
  <property name="meta.media.sample_aspect_num">1</property>
  <property name="meta.media.sample_aspect_den">1</property>
  <property name="aspect_ratio">1</property>
  <property name="kdenlive:clipname"/>
  <property name="kdenlive:folderid">81</property>
  <property name="meta.media.frame_rate_num">24</property>
  <property name="meta.media.frame_rate_den">1</property>
  <property name="meta.media.colorspace">601</property>
  <property name="meta.media.color_trc">6</property>
  <property name="meta.media.width">640</property>
  <property name="meta.media.height">360</property>
  <property name="meta.media.color_range">mpeg</property>
  <property name="kdenlive:id">100</property>
  <property name="kdenlive:file_size">2451023</property>
  <property name="kdenlive:file_hash">8a9095bce6e01c35f0fd10cd74583370</property>
  <property name="meta.media.top_field_first">0</property>
  <property name="meta.media.progressive">1</property>
  <property name="global_feed">1</property>
 </producer>
 <producer id="producer84" in="00:00:00.000" out="00:00:17.233">
  <property name="length">518</property>
  <property name="eof">pause</property>
  <property name="resource">content/animated_paintings/ReReVST-fall_clouds-presquille_420.avi</property>
  <property name="audio_index">-1</property>
  <property name="video_index">0</property>
  <property name="mute_on_pause">0</property>
  <property name="mlt_service">avformat-novalidate</property>
  <property name="meta.media.nb_streams">1</property>
  <property name="meta.media.0.stream.type">video</property>
  <property name="meta.media.0.stream.frame_rate">24</property>
  <property name="meta.media.0.stream.sample_aspect_ratio">0</property>
  <property name="meta.media.0.codec.width">746</property>
  <property name="meta.media.0.codec.height">420</property>
  <property name="meta.media.0.codec.rotate">0</property>
  <property name="meta.media.0.codec.frame_rate">24</property>
  <property name="meta.media.0.codec.pix_fmt">yuvj420p</property>
  <property name="meta.media.0.codec.sample_aspect_ratio">0</property>
  <property name="meta.media.0.codec.colorspace">601</property>
  <property name="meta.media.0.codec.name">mjpeg</property>
  <property name="meta.media.0.codec.long_name">MJPEG (Motion JPEG)</property>
  <property name="meta.media.0.codec.bit_rate">9599991</property>
  <property name="meta.attr.encoder.markup">Lavf58.61.100</property>
  <property name="seekable">1</property>
  <property name="meta.media.sample_aspect_num">1</property>
  <property name="meta.media.sample_aspect_den">1</property>
  <property name="aspect_ratio">1</property>
  <property name="kdenlive:clipname"/>
  <property name="kdenlive:folderid">81</property>
  <property name="meta.media.frame_rate_num">24</property>
  <property name="meta.media.frame_rate_den">1</property>
  <property name="meta.media.colorspace">601</property>
  <property name="meta.media.color_trc">2</property>
  <property name="meta.media.width">746</property>
  <property name="meta.media.height">420</property>
  <property name="meta.media.color_range">full</property>
  <property name="kdenlive:id">101</property>
  <property name="kdenlive:file_size">20665834</property>
  <property name="kdenlive:file_hash">04f18a230a06a1bf8ee4ae879280284a</property>
  <property name="meta.media.top_field_first">0</property>
  <property name="meta.media.progressive">1</property>
  <property name="global_feed">1</property>
 </producer>
 <producer id="producer85" in="00:00:00.000" out="00:00:28.767">
  <property name="length">864</property>
  <property name="eof">pause</property>
  <property name="resource">/home/ryankelln/.cache/kdenlive/proxy/9fc557c20b187104bbaff78fcb07dee2.mkv</property>
  <property name="audio_index">-1</property>
  <property name="video_index">0</property>
  <property name="mute_on_pause">0</property>
  <property name="mlt_service">avformat-novalidate</property>
  <property name="seekable">1</property>
  <property name="aspect_ratio">1</property>
  <property name="kdenlive:clipname">high_park_trees_river_reeds_adain_frames.mp4</property>
  <property name="kdenlive:folderid">81</property>
  <property name="kdenlive:id">102</property>
  <property name="kdenlive:file_size">61549118</property>
  <property name="kdenlive:file_hash">9fc557c20b187104bbaff78fcb07dee2</property>
  <property name="kdenlive:proxy">/home/ryankelln/.cache/kdenlive/proxy/9fc557c20b187104bbaff78fcb07dee2.mkv</property>
  <property name="kdenlive:originalurl">content/animated_paintings/high_park_trees_river_reeds_adain_frames.mp4</property>
  <property name="kdenlive:original.mlt_type">producer</property>
  <property name="kdenlive:original.in">0</property>
  <property name="kdenlive:original.out">863</property>
  <property name="kdenlive:original.length">864</property>
  <property name="kdenlive:original.eof">pause</property>
  <property name="kdenlive:original.resource">content/animated_paintings/high_park_trees_river_reeds_adain_frames.mp4</property>
  <property name="kdenlive:original.meta.media.nb_streams">1</property>
  <property name="kdenlive:original.meta.media.0.stream.type">video</property>
  <property name="kdenlive:original.meta.media.0.stream.frame_rate">25</property>
  <property name="kdenlive:original.meta.media.0.stream.sample_aspect_ratio">1</property>
  <property name="kdenlive:original.meta.media.0.codec.width">1920</property>
  <property name="kdenlive:original.meta.media.0.codec.height">1080</property>
  <property name="kdenlive:original.meta.media.0.codec.rotate">0</property>
  <property name="kdenlive:original.meta.media.0.codec.frame_rate">25</property>
  <property name="kdenlive:original.meta.media.0.codec.pix_fmt">yuvj420p</property>
  <property name="kdenlive:original.meta.media.0.codec.sample_aspect_ratio">1</property>
  <property name="kdenlive:original.meta.media.0.codec.colorspace">709</property>
  <property name="kdenlive:original.meta.media.0.codec.name">h264</property>
  <property name="kdenlive:original.meta.media.0.codec.long_name">H.264 / AVC / MPEG-4 AVC / MPEG-4 part 10</property>
  <property name="kdenlive:original.meta.media.0.codec.bit_rate">17094244</property>
  <property name="kdenlive:original.meta.attr.0.stream.handler_name.markup">VideoHandler</property>
  <property name="kdenlive:original.meta.attr.major_brand.markup">isom</property>
  <property name="kdenlive:original.meta.attr.minor_version.markup">512</property>
  <property name="kdenlive:original.meta.attr.compatible_brands.markup">isomiso2avc1mp41</property>
  <property name="kdenlive:original.meta.attr.encoder.markup">Lavf58.29.100</property>
  <property name="kdenlive:original.seekable">1</property>
  <property name="kdenlive:original.width">1920</property>
  <property name="kdenlive:original.height">1080</property>
  <property name="kdenlive:original.meta.media.sample_aspect_num">1</property>
  <property name="kdenlive:original.meta.media.sample_aspect_den">1</property>
  <property name="kdenlive:original.aspect_ratio">1</property>
  <property name="kdenlive:original.audio_index">-1</property>
  <property name="kdenlive:original.video_index">0</property>
  <property name="kdenlive:original.mute_on_pause">0</property>
  <property name="kdenlive:original.mlt_service">avformat-novalidate</property>
  <property name="kdenlive:original.kdenlive:folderid">81</property>
  <property name="kdenlive:original.meta.media.frame_rate_num">25</property>
  <property name="kdenlive:original.meta.media.frame_rate_den">1</property>
  <property name="kdenlive:original.meta.media.colorspace">709</property>
  <property name="kdenlive:original.meta.media.color_trc">2</property>
  <property name="kdenlive:original.meta.media.width">1920</property>
  <property name="kdenlive:original.meta.media.height">1080</property>
  <property name="kdenlive:original.meta.media.color_range">full</property>
  <property name="kdenlive:original.kdenlive:id">122</property>
  <property name="kdenlive:original.kdenlive:file_size">61549118</property>
  <property name="kdenlive:original.kdenlive:file_hash">9fc557c20b187104bbaff78fcb07dee2</property>
  <property name="kdenlive:original.backup">1</property>
  <property name="global_feed">1</property>
  <property name="meta.media.nb_streams">1</property>
  <property name="meta.media.0.stream.type">video</property>
  <property name="meta.media.0.stream.frame_rate">25</property>
  <property name="meta.media.0.stream.sample_aspect_ratio">1</property>
  <property name="meta.media.0.codec.width">960</property>
  <property name="meta.media.0.codec.height">540</property>
  <property name="meta.media.0.codec.rotate">0</property>
  <property name="meta.media.0.codec.frame_rate">1000</property>
  <property name="meta.media.0.codec.pix_fmt">yuvj420p</property>
  <property name="meta.media.0.codec.sample_aspect_ratio">1</property>
  <property name="meta.media.0.codec.colorspace">601</property>
  <property name="meta.media.0.codec.name">mjpeg</property>
  <property name="meta.media.0.codec.long_name">MJPEG (Motion JPEG)</property>
  <property name="meta.media.0.codec.bit_rate">0</property>
  <property name="meta.attr.0.stream.HANDLER_NAME.markup">VideoHandler</property>
  <property name="meta.attr.0.stream.ENCODER.markup">Lavc58.91.100 mjpeg</property>
  <property name="meta.attr.0.stream.DURATION.markup">00:00:28.800000000</property>
  <property name="meta.attr.COMPATIBLE_BRANDS.markup">isomiso2avc1mp41</property>
  <property name="meta.attr.MAJOR_BRAND.markup">isom</property>
  <property name="meta.attr.MINOR_VERSION.markup">512</property>
  <property name="meta.attr.ENCODER.markup">Lavf58.45.100</property>
  <property name="meta.media.sample_aspect_num">1</property>
  <property name="meta.media.sample_aspect_den">1</property>
  <property name="meta.media.frame_rate_num">25</property>
  <property name="meta.media.frame_rate_den">1</property>
  <property name="meta.media.colorspace">601</property>
  <property name="meta.media.color_trc">2</property>
  <property name="meta.media.width">960</property>
  <property name="meta.media.height">540</property>
  <property name="meta.media.color_range">full</property>
  <property name="meta.media.top_field_first">0</property>
  <property name="meta.media.progressive">1</property>
 </producer>
 <producer id="producer86" in="00:00:00.000" out="00:00:19.967">
  <property name="length">600</property>
  <property name="eof">pause</property>
  <property name="resource">content/consingan_paintings/fall_clouds_start_scale=2_alpha=0.1_beta=0.9.mp4</property>
  <property name="audio_index">-1</property>
  <property name="video_index">0</property>
  <property name="mute_on_pause">0</property>
  <property name="mlt_service">avformat-novalidate</property>
  <property name="meta.media.nb_streams">1</property>
  <property name="meta.media.0.stream.type">video</property>
  <property name="meta.media.0.stream.frame_rate">15</property>
  <property name="meta.media.0.stream.sample_aspect_ratio">0</property>
  <property name="meta.media.0.codec.width">912</property>
  <property name="meta.media.0.codec.height">720</property>
  <property name="meta.media.0.codec.rotate">0</property>
  <property name="meta.media.0.codec.frame_rate">15</property>
  <property name="meta.media.0.codec.pix_fmt">yuv420p</property>
  <property name="meta.media.0.codec.sample_aspect_ratio">0</property>
  <property name="meta.media.0.codec.colorspace">601</property>
  <property name="meta.media.0.codec.name">h264</property>
  <property name="meta.media.0.codec.long_name">H.264 / AVC / MPEG-4 AVC / MPEG-4 part 10</property>
  <property name="meta.media.0.codec.bit_rate">2356562</property>
  <property name="meta.attr.0.stream.handler_name.markup">VideoHandler</property>
  <property name="meta.attr.major_brand.markup">isom</property>
  <property name="meta.attr.minor_version.markup">512</property>
  <property name="meta.attr.compatible_brands.markup">isomiso2avc1mp41</property>
  <property name="meta.attr.encoder.markup">Lavf58.29.100</property>
  <property name="seekable">1</property>
  <property name="meta.media.sample_aspect_num">1</property>
  <property name="meta.media.sample_aspect_den">1</property>
  <property name="aspect_ratio">1</property>
  <property name="kdenlive:clipname"/>
  <property name="kdenlive:folderid">31</property>
  <property name="meta.media.frame_rate_num">15</property>
  <property name="meta.media.frame_rate_den">1</property>
  <property name="meta.media.colorspace">601</property>
  <property name="meta.media.color_trc">2</property>
  <property name="meta.media.width">912</property>
  <property name="meta.media.height">720</property>
  <property name="meta.media.color_range">mpeg</property>
  <property name="kdenlive:id">104</property>
  <property name="kdenlive:file_size">5893496</property>
  <property name="kdenlive:file_hash">1ce5e12a49ebe6538e1db048d170f92f</property>
  <property name="meta.media.top_field_first">0</property>
  <property name="meta.media.progressive">1</property>
  <property name="global_feed">1</property>
  <property name="kdenlive:activeeffect">0</property>
  <filter id="filter24">
   <property name="mlt_service">avfilter.unsharp</property>
   <property name="kdenlive_id">avfilter.unsharp</property>
   <property name="av.lx">5</property>
   <property name="av.ly">5</property>
   <property name="av.la">0.247</property>
   <property name="av.cx">5</property>
   <property name="av.cy">5</property>
   <property name="av.ca">1.731</property>
   <property name="kdenlive:collapsed">0</property>
  </filter>
 </producer>
 <producer id="producer87" in="00:00:00.000" out="00:00:39.733">
  <property name="length">1193</property>
  <property name="eof">pause</property>
  <property name="resource">content/consingan_paintings/rocky_hill_dance_1.mp4</property>
  <property name="audio_index">-1</property>
  <property name="video_index">0</property>
  <property name="mute_on_pause">0</property>
  <property name="mlt_service">avformat-novalidate</property>
  <property name="meta.media.nb_streams">1</property>
  <property name="meta.media.0.stream.type">video</property>
  <property name="meta.media.0.stream.frame_rate">30</property>
  <property name="meta.media.0.stream.sample_aspect_ratio">0</property>
  <property name="meta.media.0.codec.width">912</property>
  <property name="meta.media.0.codec.height">720</property>
  <property name="meta.media.0.codec.rotate">0</property>
  <property name="meta.media.0.codec.frame_rate">30</property>
  <property name="meta.media.0.codec.pix_fmt">yuv420p</property>
  <property name="meta.media.0.codec.sample_aspect_ratio">0</property>
  <property name="meta.media.0.codec.colorspace">601</property>
  <property name="meta.media.0.codec.name">h264</property>
  <property name="meta.media.0.codec.long_name">H.264 / AVC / MPEG-4 AVC / MPEG-4 part 10</property>
  <property name="meta.media.0.codec.bit_rate">3299745</property>
  <property name="meta.attr.0.stream.handler_name.markup">VideoHandler</property>
  <property name="meta.attr.major_brand.markup">isom</property>
  <property name="meta.attr.minor_version.markup">512</property>
  <property name="meta.attr.compatible_brands.markup">isomiso2avc1mp41</property>
  <property name="meta.attr.encoder.markup">Lavf58.29.100</property>
  <property name="seekable">1</property>
  <property name="meta.media.sample_aspect_num">1</property>
  <property name="meta.media.sample_aspect_den">1</property>
  <property name="aspect_ratio">1</property>
  <property name="kdenlive:clipname"/>
  <property name="kdenlive:folderid">31</property>
  <property name="meta.media.frame_rate_num">30</property>
  <property name="meta.media.frame_rate_den">1</property>
  <property name="meta.media.colorspace">601</property>
  <property name="meta.media.color_trc">2</property>
  <property name="meta.media.width">912</property>
  <property name="meta.media.height">720</property>
  <property name="meta.media.color_range">mpeg</property>
  <property name="kdenlive:id">105</property>
  <property name="kdenlive:file_size">16417822</property>
  <property name="kdenlive:file_hash">f5276fd46be908b4f7ed5452956fa8aa</property>
  <property name="meta.media.top_field_first">0</property>
  <property name="meta.media.progressive">1</property>
  <property name="global_feed">1</property>
 </producer>
 <producer id="producer88" in="00:00:00.000" out="00:00:39.733">
  <property name="length">1193</property>
  <property name="eof">pause</property>
  <property name="resource">/home/ryankelln/Documents/Projects/Active/Sound_Escapes/Suzy/animated_landscapes/dancing/rowboats_dance_1.mp4</property>
  <property name="audio_index">-1</property>
  <property name="video_index">0</property>
  <property name="mute_on_pause">0</property>
  <property name="mlt_service">avformat-novalidate</property>
  <property name="meta.media.nb_streams">1</property>
  <property name="meta.media.0.stream.type">video</property>
  <property name="meta.media.0.stream.frame_rate">30</property>
  <property name="meta.media.0.stream.sample_aspect_ratio">0</property>
  <property name="meta.media.0.codec.width">912</property>
  <property name="meta.media.0.codec.height">720</property>
  <property name="meta.media.0.codec.rotate">0</property>
  <property name="meta.media.0.codec.frame_rate">30</property>
  <property name="meta.media.0.codec.pix_fmt">yuv420p</property>
  <property name="meta.media.0.codec.sample_aspect_ratio">0</property>
  <property name="meta.media.0.codec.colorspace">601</property>
  <property name="meta.media.0.codec.name">h264</property>
  <property name="meta.media.0.codec.long_name">H.264 / AVC / MPEG-4 AVC / MPEG-4 part 10</property>
  <property name="meta.media.0.codec.bit_rate">3344764</property>
  <property name="meta.attr.0.stream.handler_name.markup">VideoHandler</property>
  <property name="meta.attr.major_brand.markup">isom</property>
  <property name="meta.attr.minor_version.markup">512</property>
  <property name="meta.attr.compatible_brands.markup">isomiso2avc1mp41</property>
  <property name="meta.attr.encoder.markup">Lavf58.29.100</property>
  <property name="seekable">1</property>
  <property name="meta.media.sample_aspect_num">1</property>
  <property name="meta.media.sample_aspect_den">1</property>
  <property name="aspect_ratio">1</property>
  <property name="kdenlive:clipname"/>
  <property name="kdenlive:folderid">31</property>
  <property name="meta.media.frame_rate_num">30</property>
  <property name="meta.media.frame_rate_den">1</property>
  <property name="meta.media.colorspace">601</property>
  <property name="meta.media.color_trc">2</property>
  <property name="meta.media.width">912</property>
  <property name="meta.media.height">720</property>
  <property name="meta.media.color_range">mpeg</property>
  <property name="kdenlive:id">106</property>
  <property name="kdenlive:file_size">16641610</property>
  <property name="kdenlive:file_hash">b88f42ed76a675c85caf562679a378c3</property>
  <property name="meta.media.top_field_first">0</property>
  <property name="meta.media.progressive">1</property>
  <property name="global_feed">1</property>
 </producer>
 <producer id="producer90" in="00:00:00.000" out="00:00:39.733">
  <property name="length">1193</property>
  <property name="eof">pause</property>
  <property name="resource">content/consingan_paintings/fall_fence_dance_5.mp4</property>
  <property name="audio_index">-1</property>
  <property name="video_index">0</property>
  <property name="mute_on_pause">0</property>
  <property name="mlt_service">avformat-novalidate</property>
  <property name="meta.media.nb_streams">1</property>
  <property name="meta.media.0.stream.type">video</property>
  <property name="meta.media.0.stream.frame_rate">30</property>
  <property name="meta.media.0.stream.sample_aspect_ratio">0</property>
  <property name="meta.media.0.codec.width">944</property>
  <property name="meta.media.0.codec.height">720</property>
  <property name="meta.media.0.codec.rotate">0</property>
  <property name="meta.media.0.codec.frame_rate">30</property>
  <property name="meta.media.0.codec.pix_fmt">yuv420p</property>
  <property name="meta.media.0.codec.sample_aspect_ratio">0</property>
  <property name="meta.media.0.codec.colorspace">601</property>
  <property name="meta.media.0.codec.name">h264</property>
  <property name="meta.media.0.codec.long_name">H.264 / AVC / MPEG-4 AVC / MPEG-4 part 10</property>
  <property name="meta.media.0.codec.bit_rate">3045203</property>
  <property name="meta.attr.0.stream.handler_name.markup">VideoHandler</property>
  <property name="meta.attr.major_brand.markup">isom</property>
  <property name="meta.attr.minor_version.markup">512</property>
  <property name="meta.attr.compatible_brands.markup">isomiso2avc1mp41</property>
  <property name="meta.attr.encoder.markup">Lavf58.29.100</property>
  <property name="seekable">1</property>
  <property name="meta.media.sample_aspect_num">1</property>
  <property name="meta.media.sample_aspect_den">1</property>
  <property name="aspect_ratio">1</property>
  <property name="kdenlive:clipname"/>
  <property name="kdenlive:folderid">31</property>
  <property name="meta.media.frame_rate_num">30</property>
  <property name="meta.media.frame_rate_den">1</property>
  <property name="meta.media.colorspace">601</property>
  <property name="meta.media.color_trc">2</property>
  <property name="meta.media.width">944</property>
  <property name="meta.media.height">720</property>
  <property name="meta.media.color_range">mpeg</property>
  <property name="kdenlive:id">107</property>
  <property name="kdenlive:file_size">15152544</property>
  <property name="kdenlive:file_hash">0257fb6bff6b399fe5c42dde94ff5f5e</property>
  <property name="meta.media.top_field_first">0</property>
  <property name="meta.media.progressive">1</property>
  <property name="global_feed">1</property>
 </producer>
 <producer id="producer89" in="00:00:00.000" out="00:00:39.733">
  <property name="length">1193</property>
  <property name="eof">pause</property>
  <property name="resource">content/consingan_paintings/stream_dance_6.mp4</property>
  <property name="audio_index">-1</property>
  <property name="video_index">0</property>
  <property name="mute_on_pause">0</property>
  <property name="mlt_service">avformat-novalidate</property>
  <property name="meta.media.nb_streams">1</property>
  <property name="meta.media.0.stream.type">video</property>
  <property name="meta.media.0.stream.frame_rate">30</property>
  <property name="meta.media.0.stream.sample_aspect_ratio">0</property>
  <property name="meta.media.0.codec.width">928</property>
  <property name="meta.media.0.codec.height">720</property>
  <property name="meta.media.0.codec.rotate">0</property>
  <property name="meta.media.0.codec.frame_rate">30</property>
  <property name="meta.media.0.codec.pix_fmt">yuv420p</property>
  <property name="meta.media.0.codec.sample_aspect_ratio">0</property>
  <property name="meta.media.0.codec.colorspace">601</property>
  <property name="meta.media.0.codec.name">h264</property>
  <property name="meta.media.0.codec.long_name">H.264 / AVC / MPEG-4 AVC / MPEG-4 part 10</property>
  <property name="meta.media.0.codec.bit_rate">3557508</property>
  <property name="meta.attr.0.stream.handler_name.markup">VideoHandler</property>
  <property name="meta.attr.major_brand.markup">isom</property>
  <property name="meta.attr.minor_version.markup">512</property>
  <property name="meta.attr.compatible_brands.markup">isomiso2avc1mp41</property>
  <property name="meta.attr.encoder.markup">Lavf58.29.100</property>
  <property name="seekable">1</property>
  <property name="meta.media.sample_aspect_num">1</property>
  <property name="meta.media.sample_aspect_den">1</property>
  <property name="aspect_ratio">1</property>
  <property name="kdenlive:clipname"/>
  <property name="kdenlive:folderid">31</property>
  <property name="meta.media.frame_rate_num">30</property>
  <property name="meta.media.frame_rate_den">1</property>
  <property name="meta.media.colorspace">601</property>
  <property name="meta.media.color_trc">2</property>
  <property name="meta.media.width">928</property>
  <property name="meta.media.height">720</property>
  <property name="meta.media.color_range">mpeg</property>
  <property name="kdenlive:id">108</property>
  <property name="kdenlive:file_size">17699189</property>
  <property name="kdenlive:file_hash">add69977384c0df52edc7351f526a407</property>
  <property name="meta.media.top_field_first">0</property>
  <property name="meta.media.progressive">1</property>
  <property name="global_feed">1</property>
 </producer>
 <producer id="producer91" in="00:00:00.000" out="00:00:39.733">
  <property name="length">1193</property>
  <property name="eof">pause</property>
  <property name="resource">content/consingan_paintings/fall_sparkles_dance_5.mp4</property>
  <property name="audio_index">-1</property>
  <property name="video_index">0</property>
  <property name="mute_on_pause">0</property>
  <property name="mlt_service">avformat-novalidate</property>
  <property name="meta.media.nb_streams">1</property>
  <property name="meta.media.0.stream.type">video</property>
  <property name="meta.media.0.stream.frame_rate">30</property>
  <property name="meta.media.0.stream.sample_aspect_ratio">0</property>
  <property name="meta.media.0.codec.width">928</property>
  <property name="meta.media.0.codec.height">720</property>
  <property name="meta.media.0.codec.rotate">0</property>
  <property name="meta.media.0.codec.frame_rate">30</property>
  <property name="meta.media.0.codec.pix_fmt">yuv420p</property>
  <property name="meta.media.0.codec.sample_aspect_ratio">0</property>
  <property name="meta.media.0.codec.colorspace">601</property>
  <property name="meta.media.0.codec.name">h264</property>
  <property name="meta.media.0.codec.long_name">H.264 / AVC / MPEG-4 AVC / MPEG-4 part 10</property>
  <property name="meta.media.0.codec.bit_rate">2899556</property>
  <property name="meta.attr.0.stream.handler_name.markup">VideoHandler</property>
  <property name="meta.attr.major_brand.markup">isom</property>
  <property name="meta.attr.minor_version.markup">512</property>
  <property name="meta.attr.compatible_brands.markup">isomiso2avc1mp41</property>
  <property name="meta.attr.encoder.markup">Lavf58.29.100</property>
  <property name="seekable">1</property>
  <property name="meta.media.sample_aspect_num">1</property>
  <property name="meta.media.sample_aspect_den">1</property>
  <property name="aspect_ratio">1</property>
  <property name="kdenlive:clipname"/>
  <property name="kdenlive:folderid">31</property>
  <property name="meta.media.frame_rate_num">30</property>
  <property name="meta.media.frame_rate_den">1</property>
  <property name="meta.media.colorspace">601</property>
  <property name="meta.media.color_trc">2</property>
  <property name="meta.media.width">928</property>
  <property name="meta.media.height">720</property>
  <property name="meta.media.color_range">mpeg</property>
  <property name="kdenlive:id">109</property>
  <property name="kdenlive:file_size">14428556</property>
  <property name="kdenlive:file_hash">a9f0661ae0bea98fe7bb803e0c353035</property>
  <property name="meta.media.top_field_first">0</property>
  <property name="meta.media.progressive">1</property>
  <property name="global_feed">1</property>
 </producer>
 <producer id="producer92" in="00:00:00.000" out="00:00:33.633">
  <property name="length">1010</property>
  <property name="eof">pause</property>
  <property name="resource">content/animated_paintings/fall_clouds_trippy.avi</property>
  <property name="audio_index">-1</property>
  <property name="video_index">0</property>
  <property name="mute_on_pause">0</property>
  <property name="mlt_service">avformat-novalidate</property>
  <property name="meta.media.nb_streams">1</property>
  <property name="meta.media.0.stream.type">video</property>
  <property name="meta.media.0.stream.frame_rate">30</property>
  <property name="meta.media.0.stream.sample_aspect_ratio">0</property>
  <property name="meta.media.0.codec.width">900</property>
  <property name="meta.media.0.codec.height">720</property>
  <property name="meta.media.0.codec.rotate">0</property>
  <property name="meta.media.0.codec.frame_rate">30</property>
  <property name="meta.media.0.codec.pix_fmt">yuv420p</property>
  <property name="meta.media.0.codec.sample_aspect_ratio">1</property>
  <property name="meta.media.0.codec.colorspace">601</property>
  <property name="meta.media.0.codec.name">mpeg4</property>
  <property name="meta.media.0.codec.long_name">MPEG-4 part 2</property>
  <property name="meta.media.0.codec.bit_rate">6848584</property>
  <property name="meta.attr.encoder.markup">Lavf58.61.100</property>
  <property name="seekable">1</property>
  <property name="meta.media.sample_aspect_num">1</property>
  <property name="meta.media.sample_aspect_den">1</property>
  <property name="aspect_ratio">1</property>
  <property name="kdenlive:clipname"/>
  <property name="kdenlive:folderid">81</property>
  <property name="meta.media.frame_rate_num">30</property>
  <property name="meta.media.frame_rate_den">1</property>
  <property name="meta.media.colorspace">601</property>
  <property name="meta.media.color_trc">2</property>
  <property name="meta.media.width">900</property>
  <property name="meta.media.height">720</property>
  <property name="meta.media.color_range">mpeg</property>
  <property name="kdenlive:id">110</property>
  <property name="kdenlive:file_size">28823038</property>
  <property name="kdenlive:file_hash">b844cefd3776395c104c9c6b0d062669</property>
  <property name="meta.media.top_field_first">0</property>
  <property name="meta.media.progressive">1</property>
  <property name="global_feed">1</property>
 </producer>
 <producer id="producer40" in="00:00:00.000" out="00:00:13.133">
  <property name="length">395</property>
  <property name="eof">pause</property>
  <property name="resource">/home/ryankelln/.cache/kdenlive/proxy/0346443430b5326ff5da0eef5fe82d8b.mkv</property>
  <property name="audio_index">-1</property>
  <property name="video_index">0</property>
  <property name="mute_on_pause">0</property>
  <property name="mlt_service">avformat-novalidate</property>
  <property name="seekable">1</property>
  <property name="aspect_ratio">1</property>
  <property name="kdenlive:clipname">fall_clouds_2.mp4</property>
  <property name="kdenlive:folderid">81</property>
  <property name="kdenlive:id">111</property>
  <property name="kdenlive:file_size">8532877</property>
  <property name="kdenlive:file_hash">0346443430b5326ff5da0eef5fe82d8b</property>
  <property name="kdenlive:proxy">/home/ryankelln/.cache/kdenlive/proxy/0346443430b5326ff5da0eef5fe82d8b.mkv</property>
  <property name="kdenlive:originalurl">/home/ryankelln/Documents/Projects/Active/Sound_Escapes/veda-recordings/fall_clouds_2.mp4</property>
  <property name="kdenlive:original.mlt_type">producer</property>
  <property name="kdenlive:original.in">0</property>
  <property name="kdenlive:original.out">394</property>
  <property name="kdenlive:original.length">395</property>
  <property name="kdenlive:original.eof">pause</property>
  <property name="kdenlive:original.resource">/home/ryankelln/Documents/Projects/Active/Sound_Escapes/veda-recordings/fall_clouds_2.mp4</property>
  <property name="kdenlive:original.meta.media.nb_streams">1</property>
  <property name="kdenlive:original.meta.media.0.stream.type">video</property>
  <property name="kdenlive:original.meta.media.0.stream.frame_rate">25</property>
  <property name="kdenlive:original.meta.media.0.stream.sample_aspect_ratio">0</property>
  <property name="kdenlive:original.meta.media.0.codec.width">1938</property>
  <property name="kdenlive:original.meta.media.0.codec.height">1360</property>
  <property name="kdenlive:original.meta.media.0.codec.rotate">0</property>
  <property name="kdenlive:original.meta.media.0.codec.frame_rate">25</property>
  <property name="kdenlive:original.meta.media.0.codec.pix_fmt">yuv444p</property>
  <property name="kdenlive:original.meta.media.0.codec.sample_aspect_ratio">0</property>
  <property name="kdenlive:original.meta.media.0.codec.colorspace">709</property>
  <property name="kdenlive:original.meta.media.0.codec.name">h264</property>
  <property name="kdenlive:original.meta.media.0.codec.long_name">H.264 / AVC / MPEG-4 AVC / MPEG-4 part 10</property>
  <property name="kdenlive:original.meta.media.0.codec.bit_rate">5185071</property>
  <property name="kdenlive:original.meta.attr.0.stream.handler_name.markup">VideoHandler</property>
  <property name="kdenlive:original.meta.attr.major_brand.markup">isom</property>
  <property name="kdenlive:original.meta.attr.minor_version.markup">512</property>
  <property name="kdenlive:original.meta.attr.compatible_brands.markup">isomiso2avc1mp41</property>
  <property name="kdenlive:original.meta.attr.encoder.markup">Lavf58.45.100</property>
  <property name="kdenlive:original.seekable">1</property>
  <property name="kdenlive:original.width">1938</property>
  <property name="kdenlive:original.height">1360</property>
  <property name="kdenlive:original.meta.media.sample_aspect_num">1</property>
  <property name="kdenlive:original.meta.media.sample_aspect_den">1</property>
  <property name="kdenlive:original.aspect_ratio">1</property>
  <property name="kdenlive:original.audio_index">-1</property>
  <property name="kdenlive:original.video_index">0</property>
  <property name="kdenlive:original.mute_on_pause">0</property>
  <property name="kdenlive:original.mlt_service">avformat-novalidate</property>
  <property name="kdenlive:original.kdenlive:folderid">81</property>
  <property name="kdenlive:original.meta.media.frame_rate_num">25</property>
  <property name="kdenlive:original.meta.media.frame_rate_den">1</property>
  <property name="kdenlive:original.meta.media.colorspace">709</property>
  <property name="kdenlive:original.meta.media.color_trc">2</property>
  <property name="kdenlive:original.meta.media.width">1938</property>
  <property name="kdenlive:original.meta.media.height">1360</property>
  <property name="kdenlive:original.meta.media.color_range">mpeg</property>
  <property name="kdenlive:original.kdenlive:id">133</property>
  <property name="kdenlive:original.kdenlive:file_size">8532877</property>
  <property name="kdenlive:original.kdenlive:file_hash">0346443430b5326ff5da0eef5fe82d8b</property>
  <property name="kdenlive:original.backup">1</property>
  <property name="global_feed">1</property>
  <property name="meta.media.nb_streams">1</property>
  <property name="meta.media.0.stream.type">video</property>
  <property name="meta.media.0.stream.frame_rate">25</property>
  <property name="meta.media.0.stream.sample_aspect_ratio">0</property>
  <property name="meta.media.0.codec.width">960</property>
  <property name="meta.media.0.codec.height">674</property>
  <property name="meta.media.0.codec.rotate">0</property>
  <property name="meta.media.0.codec.frame_rate">1000</property>
  <property name="meta.media.0.codec.pix_fmt">yuvj444p</property>
  <property name="meta.media.0.codec.sample_aspect_ratio">0</property>
  <property name="meta.media.0.codec.colorspace">601</property>
  <property name="meta.media.0.codec.name">mjpeg</property>
  <property name="meta.media.0.codec.long_name">MJPEG (Motion JPEG)</property>
  <property name="meta.media.0.codec.bit_rate">0</property>
  <property name="meta.attr.0.stream.HANDLER_NAME.markup">VideoHandler</property>
  <property name="meta.attr.0.stream.ENCODER.markup">Lavc58.91.100 mjpeg</property>
  <property name="meta.attr.0.stream.DURATION.markup">00:00:13.160000000</property>
  <property name="meta.attr.COMPATIBLE_BRANDS.markup">isomiso2avc1mp41</property>
  <property name="meta.attr.MAJOR_BRAND.markup">isom</property>
  <property name="meta.attr.MINOR_VERSION.markup">512</property>
  <property name="meta.attr.ENCODER.markup">Lavf58.45.100</property>
  <property name="meta.media.sample_aspect_num">1</property>
  <property name="meta.media.sample_aspect_den">1</property>
  <property name="meta.media.frame_rate_num">25</property>
  <property name="meta.media.frame_rate_den">1</property>
  <property name="meta.media.colorspace">601</property>
  <property name="meta.media.color_trc">2</property>
  <property name="meta.media.width">960</property>
  <property name="meta.media.height">674</property>
  <property name="meta.media.color_range">full</property>
  <property name="meta.media.top_field_first">0</property>
  <property name="meta.media.progressive">1</property>
 </producer>
 <producer id="producer41" in="00:00:00.000" out="00:00:09.967">
  <property name="length">300</property>
  <property name="eof">pause</property>
  <property name="resource">content/animated_paintings/fall_sparkles_dance_start_scale=0_alpha=0.1_beta=0.8.mp4</property>
  <property name="audio_index">-1</property>
  <property name="video_index">0</property>
  <property name="mute_on_pause">0</property>
  <property name="mlt_service">avformat-novalidate</property>
  <property name="meta.media.nb_streams">1</property>
  <property name="meta.media.0.stream.type">video</property>
  <property name="meta.media.0.stream.frame_rate">10</property>
  <property name="meta.media.0.stream.sample_aspect_ratio">0</property>
  <property name="meta.media.0.codec.width">928</property>
  <property name="meta.media.0.codec.height">720</property>
  <property name="meta.media.0.codec.rotate">0</property>
  <property name="meta.media.0.codec.frame_rate">10</property>
  <property name="meta.media.0.codec.pix_fmt">yuv420p</property>
  <property name="meta.media.0.codec.sample_aspect_ratio">0</property>
  <property name="meta.media.0.codec.colorspace">601</property>
  <property name="meta.media.0.codec.name">h264</property>
  <property name="meta.media.0.codec.long_name">H.264 / AVC / MPEG-4 AVC / MPEG-4 part 10</property>
  <property name="meta.media.0.codec.bit_rate">3990723</property>
  <property name="meta.attr.0.stream.handler_name.markup">VideoHandler</property>
  <property name="meta.attr.major_brand.markup">isom</property>
  <property name="meta.attr.minor_version.markup">512</property>
  <property name="meta.attr.compatible_brands.markup">isomiso2avc1mp41</property>
  <property name="meta.attr.encoder.markup">Lavf58.29.100</property>
  <property name="seekable">1</property>
  <property name="meta.media.sample_aspect_num">1</property>
  <property name="meta.media.sample_aspect_den">1</property>
  <property name="aspect_ratio">1</property>
  <property name="kdenlive:clipname"/>
  <property name="kdenlive:folderid">81</property>
  <property name="meta.media.frame_rate_num">10</property>
  <property name="meta.media.frame_rate_den">1</property>
  <property name="meta.media.colorspace">601</property>
  <property name="meta.media.color_trc">2</property>
  <property name="meta.media.width">928</property>
  <property name="meta.media.height">720</property>
  <property name="meta.media.color_range">mpeg</property>
  <property name="kdenlive:id">112</property>
  <property name="kdenlive:file_size">4990397</property>
  <property name="kdenlive:file_hash">797d773b5d7b1b0f6410562990eacb76</property>
  <property name="meta.media.top_field_first">0</property>
  <property name="meta.media.progressive">1</property>
  <property name="global_feed">1</property>
 </producer>
 <producer id="producer43" in="00:00:00.000" out="00:00:06.667">
  <property name="length">201</property>
  <property name="eof">pause</property>
  <property name="resource">content/animated_paintings/fishing_boats_motion_mz0.2.avi</property>
  <property name="audio_index">-1</property>
  <property name="video_index">0</property>
  <property name="mute_on_pause">0</property>
  <property name="mlt_service">avformat-novalidate</property>
  <property name="meta.media.nb_streams">1</property>
  <property name="meta.media.0.stream.type">video</property>
  <property name="meta.media.0.stream.frame_rate">30</property>
  <property name="meta.media.0.stream.sample_aspect_ratio">0</property>
  <property name="meta.media.0.codec.width">924</property>
  <property name="meta.media.0.codec.height">720</property>
  <property name="meta.media.0.codec.rotate">0</property>
  <property name="meta.media.0.codec.frame_rate">30</property>
  <property name="meta.media.0.codec.pix_fmt">yuv420p</property>
  <property name="meta.media.0.codec.sample_aspect_ratio">1</property>
  <property name="meta.media.0.codec.colorspace">601</property>
  <property name="meta.media.0.codec.name">mpeg4</property>
  <property name="meta.media.0.codec.long_name">MPEG-4 part 2</property>
  <property name="meta.media.0.codec.bit_rate">8588186</property>
  <property name="meta.attr.encoder.markup">Lavf58.61.100</property>
  <property name="seekable">1</property>
  <property name="meta.media.sample_aspect_num">1</property>
  <property name="meta.media.sample_aspect_den">1</property>
  <property name="aspect_ratio">1</property>
  <property name="kdenlive:clipname"/>
  <property name="kdenlive:folderid">81</property>
  <property name="meta.media.frame_rate_num">30</property>
  <property name="meta.media.frame_rate_den">1</property>
  <property name="meta.media.colorspace">601</property>
  <property name="meta.media.color_trc">2</property>
  <property name="meta.media.width">924</property>
  <property name="meta.media.height">720</property>
  <property name="meta.media.color_range">mpeg</property>
  <property name="kdenlive:id">113</property>
  <property name="kdenlive:file_size">7167430</property>
  <property name="kdenlive:file_hash">b3d80abe47fa2f495415b743bd6b0bb0</property>
  <property name="meta.media.top_field_first">0</property>
  <property name="meta.media.progressive">1</property>
  <property name="global_feed">1</property>
 </producer>
 <producer id="producer44" in="00:00:00.000" out="00:00:13.533">
  <property name="length">407</property>
  <property name="eof">pause</property>
  <property name="resource">/home/ryankelln/.cache/kdenlive/proxy/1b02eb4bd2bc257dabfe508a7aa1e0f0.mkv</property>
  <property name="audio_index">-1</property>
  <property name="video_index">0</property>
  <property name="mute_on_pause">0</property>
  <property name="mlt_service">avformat-novalidate</property>
  <property name="seekable">1</property>
  <property name="aspect_ratio">1</property>
  <property name="kdenlive:clipname">ReReVST-fishing_boats-suzy_musicians_2_no-global_style=2.0_content=1.0.mp4</property>
  <property name="kdenlive:folderid">81</property>
  <property name="kdenlive:id">114</property>
  <property name="kdenlive:file_size">42625445</property>
  <property name="kdenlive:file_hash">1b02eb4bd2bc257dabfe508a7aa1e0f0</property>
  <property name="kdenlive:proxy">/home/ryankelln/.cache/kdenlive/proxy/1b02eb4bd2bc257dabfe508a7aa1e0f0.mkv</property>
  <property name="kdenlive:originalurl">content/animated_paintings/ReReVST-fishing_boats-suzy_musicians_2_no-global_style=2.0_content=1.0.mp4</property>
  <property name="kdenlive:original.mlt_type">producer</property>
  <property name="kdenlive:original.in">0</property>
  <property name="kdenlive:original.out">406</property>
  <property name="kdenlive:original.length">407</property>
  <property name="kdenlive:original.eof">pause</property>
  <property name="kdenlive:original.resource">content/animated_paintings/ReReVST-fishing_boats-suzy_musicians_2_no-global_style=2.0_content=1.0.mp4</property>
  <property name="kdenlive:original.meta.media.nb_streams">1</property>
  <property name="kdenlive:original.meta.media.0.stream.type">video</property>
  <property name="kdenlive:original.meta.media.0.stream.frame_rate">30</property>
  <property name="kdenlive:original.meta.media.0.stream.sample_aspect_ratio">0</property>
  <property name="kdenlive:original.meta.media.0.codec.width">1920</property>
  <property name="kdenlive:original.meta.media.0.codec.height">1080</property>
  <property name="kdenlive:original.meta.media.0.codec.rotate">0</property>
  <property name="kdenlive:original.meta.media.0.codec.frame_rate">30</property>
  <property name="kdenlive:original.meta.media.0.codec.pix_fmt">yuv420p</property>
  <property name="kdenlive:original.meta.media.0.codec.sample_aspect_ratio">1</property>
  <property name="kdenlive:original.meta.media.0.codec.colorspace">709</property>
  <property name="kdenlive:original.meta.media.0.codec.name">mpeg4</property>
  <property name="kdenlive:original.meta.media.0.codec.long_name">MPEG-4 part 2</property>
  <property name="kdenlive:original.meta.media.0.codec.bit_rate">25133490</property>
  <property name="kdenlive:original.meta.attr.0.stream.handler_name.markup">VideoHandler</property>
  <property name="kdenlive:original.meta.attr.major_brand.markup">isom</property>
  <property name="kdenlive:original.meta.attr.minor_version.markup">512</property>
  <property name="kdenlive:original.meta.attr.compatible_brands.markup">isomiso2mp41</property>
  <property name="kdenlive:original.meta.attr.encoder.markup">Lavf58.61.100</property>
  <property name="kdenlive:original.seekable">1</property>
  <property name="kdenlive:original.width">1920</property>
  <property name="kdenlive:original.height">1080</property>
  <property name="kdenlive:original.meta.media.sample_aspect_num">1</property>
  <property name="kdenlive:original.meta.media.sample_aspect_den">1</property>
  <property name="kdenlive:original.aspect_ratio">1</property>
  <property name="kdenlive:original.audio_index">-1</property>
  <property name="kdenlive:original.video_index">0</property>
  <property name="kdenlive:original.mute_on_pause">0</property>
  <property name="kdenlive:original.mlt_service">avformat-novalidate</property>
  <property name="kdenlive:original.kdenlive:folderid">81</property>
  <property name="kdenlive:original.meta.media.frame_rate_num">30</property>
  <property name="kdenlive:original.meta.media.frame_rate_den">1</property>
  <property name="kdenlive:original.meta.media.colorspace">709</property>
  <property name="kdenlive:original.meta.media.color_trc">2</property>
  <property name="kdenlive:original.meta.media.width">1920</property>
  <property name="kdenlive:original.meta.media.height">1080</property>
  <property name="kdenlive:original.meta.media.color_range">mpeg</property>
  <property name="kdenlive:original.kdenlive:id">137</property>
  <property name="kdenlive:original.kdenlive:file_size">42625445</property>
  <property name="kdenlive:original.kdenlive:file_hash">1b02eb4bd2bc257dabfe508a7aa1e0f0</property>
  <property name="kdenlive:original.backup">1</property>
  <property name="global_feed">1</property>
  <property name="meta.media.nb_streams">1</property>
  <property name="meta.media.0.stream.type">video</property>
  <property name="meta.media.0.stream.frame_rate">30</property>
  <property name="meta.media.0.stream.sample_aspect_ratio">1</property>
  <property name="meta.media.0.codec.width">960</property>
  <property name="meta.media.0.codec.height">540</property>
  <property name="meta.media.0.codec.rotate">0</property>
  <property name="meta.media.0.codec.frame_rate">1000</property>
  <property name="meta.media.0.codec.pix_fmt">yuvj420p</property>
  <property name="meta.media.0.codec.sample_aspect_ratio">1</property>
  <property name="meta.media.0.codec.colorspace">601</property>
  <property name="meta.media.0.codec.name">mjpeg</property>
  <property name="meta.media.0.codec.long_name">MJPEG (Motion JPEG)</property>
  <property name="meta.media.0.codec.bit_rate">0</property>
  <property name="meta.attr.0.stream.HANDLER_NAME.markup">VideoHandler</property>
  <property name="meta.attr.0.stream.ENCODER.markup">Lavc58.91.100 mjpeg</property>
  <property name="meta.attr.0.stream.DURATION.markup">00:00:13.566000000</property>
  <property name="meta.attr.COMPATIBLE_BRANDS.markup">isomiso2mp41</property>
  <property name="meta.attr.MAJOR_BRAND.markup">isom</property>
  <property name="meta.attr.MINOR_VERSION.markup">512</property>
  <property name="meta.attr.ENCODER.markup">Lavf58.45.100</property>
  <property name="meta.media.sample_aspect_num">1</property>
  <property name="meta.media.sample_aspect_den">1</property>
  <property name="meta.media.frame_rate_num">30</property>
  <property name="meta.media.frame_rate_den">1</property>
  <property name="meta.media.colorspace">601</property>
  <property name="meta.media.color_trc">2</property>
  <property name="meta.media.width">960</property>
  <property name="meta.media.height">540</property>
  <property name="meta.media.color_range">full</property>
  <property name="meta.media.top_field_first">0</property>
  <property name="meta.media.progressive">1</property>
 </producer>
 <producer id="producer45" in="00:00:00.000" out="00:01:59.967">
  <property name="length">3600</property>
  <property name="eof">pause</property>
  <property name="resource">content/animated_paintings/river_church_animation_interpolation.mp4</property>
  <property name="audio_index">-1</property>
  <property name="video_index">0</property>
  <property name="mute_on_pause">0</property>
  <property name="mlt_service">avformat-novalidate</property>
  <property name="meta.media.nb_streams">1</property>
  <property name="meta.media.0.stream.type">video</property>
  <property name="meta.media.0.stream.frame_rate">24</property>
  <property name="meta.media.0.stream.sample_aspect_ratio">1</property>
  <property name="meta.media.0.codec.width">880</property>
  <property name="meta.media.0.codec.height">720</property>
  <property name="meta.media.0.codec.rotate">0</property>
  <property name="meta.media.0.codec.frame_rate">24</property>
  <property name="meta.media.0.codec.pix_fmt">yuv444p</property>
  <property name="meta.media.0.codec.sample_aspect_ratio">1</property>
  <property name="meta.media.0.codec.colorspace">601</property>
  <property name="meta.media.0.codec.name">h264</property>
  <property name="meta.media.0.codec.long_name">H.264 / AVC / MPEG-4 AVC / MPEG-4 part 10</property>
  <property name="meta.media.0.codec.bit_rate">1224534</property>
  <property name="meta.attr.0.stream.handler_name.markup">VideoHandler</property>
  <property name="meta.attr.major_brand.markup">isom</property>
  <property name="meta.attr.minor_version.markup">512</property>
  <property name="meta.attr.compatible_brands.markup">isomiso2avc1mp41</property>
  <property name="meta.attr.encoder.markup">Lavf58.45.100</property>
  <property name="seekable">1</property>
  <property name="meta.media.sample_aspect_num">1</property>
  <property name="meta.media.sample_aspect_den">1</property>
  <property name="aspect_ratio">1</property>
  <property name="kdenlive:clipname"/>
  <property name="kdenlive:folderid">81</property>
  <property name="meta.media.frame_rate_num">24</property>
  <property name="meta.media.frame_rate_den">1</property>
  <property name="meta.media.colorspace">601</property>
  <property name="meta.media.color_trc">2</property>
  <property name="meta.media.width">880</property>
  <property name="meta.media.height">720</property>
  <property name="meta.media.color_range">mpeg</property>
  <property name="kdenlive:id">116</property>
  <property name="kdenlive:file_size">18393788</property>
  <property name="kdenlive:file_hash">6bc5728639fffb4edc2aa58e922e0992</property>
  <property name="meta.media.top_field_first">0</property>
  <property name="meta.media.progressive">1</property>
  <property name="global_feed">1</property>
 </producer>
 <producer id="producer46" in="00:00:00.000" out="00:00:13.233">
  <property name="length">398</property>
  <property name="eof">pause</property>
  <property name="resource">/home/ryankelln/.cache/kdenlive/proxy/72b81d51c3f060c1ed08c84bda93b0d2.mkv</property>
  <property name="audio_index">-1</property>
  <property name="video_index">0</property>
  <property name="mute_on_pause">0</property>
  <property name="mlt_service">avformat-novalidate</property>
  <property name="seekable">1</property>
  <property name="aspect_ratio">1</property>
  <property name="kdenlive:clipname">fall_sparkles_kaleidoscope.mp4</property>
  <property name="kdenlive:folderid">81</property>
  <property name="kdenlive:id">117</property>
  <property name="kdenlive:file_size">6094653</property>
  <property name="kdenlive:file_hash">72b81d51c3f060c1ed08c84bda93b0d2</property>
  <property name="kdenlive:proxy">/home/ryankelln/.cache/kdenlive/proxy/72b81d51c3f060c1ed08c84bda93b0d2.mkv</property>
  <property name="kdenlive:originalurl">content/animated_paintings/fall_sparkles_kaleidoscope.mp4</property>
  <property name="kdenlive:original.mlt_type">producer</property>
  <property name="kdenlive:original.in">0</property>
  <property name="kdenlive:original.out">397</property>
  <property name="kdenlive:original.length">398</property>
  <property name="kdenlive:original.eof">pause</property>
  <property name="kdenlive:original.resource">content/animated_paintings/fall_sparkles_kaleidoscope.mp4</property>
  <property name="kdenlive:original.meta.media.nb_streams">1</property>
  <property name="kdenlive:original.meta.media.0.stream.type">video</property>
  <property name="kdenlive:original.meta.media.0.stream.frame_rate">25</property>
  <property name="kdenlive:original.meta.media.0.stream.sample_aspect_ratio">0</property>
  <property name="kdenlive:original.meta.media.0.codec.width">2493</property>
  <property name="kdenlive:original.meta.media.0.codec.height">1360</property>
  <property name="kdenlive:original.meta.media.0.codec.rotate">0</property>
  <property name="kdenlive:original.meta.media.0.codec.frame_rate">25</property>
  <property name="kdenlive:original.meta.media.0.codec.pix_fmt">yuv444p</property>
  <property name="kdenlive:original.meta.media.0.codec.sample_aspect_ratio">0</property>
  <property name="kdenlive:original.meta.media.0.codec.colorspace">709</property>
  <property name="kdenlive:original.meta.media.0.codec.name">h264</property>
  <property name="kdenlive:original.meta.media.0.codec.long_name">H.264 / AVC / MPEG-4 AVC / MPEG-4 part 10</property>
  <property name="kdenlive:original.meta.media.0.codec.bit_rate">3668974</property>
  <property name="kdenlive:original.meta.attr.0.stream.handler_name.markup">VideoHandler</property>
  <property name="kdenlive:original.meta.attr.major_brand.markup">isom</property>
  <property name="kdenlive:original.meta.attr.minor_version.markup">512</property>
  <property name="kdenlive:original.meta.attr.compatible_brands.markup">isomiso2avc1mp41</property>
  <property name="kdenlive:original.meta.attr.encoder.markup">Lavf58.45.100</property>
  <property name="kdenlive:original.seekable">1</property>
  <property name="kdenlive:original.width">2493</property>
  <property name="kdenlive:original.height">1360</property>
  <property name="kdenlive:original.meta.media.sample_aspect_num">1</property>
  <property name="kdenlive:original.meta.media.sample_aspect_den">1</property>
  <property name="kdenlive:original.aspect_ratio">1</property>
  <property name="kdenlive:original.audio_index">-1</property>
  <property name="kdenlive:original.video_index">0</property>
  <property name="kdenlive:original.mute_on_pause">0</property>
  <property name="kdenlive:original.mlt_service">avformat-novalidate</property>
  <property name="kdenlive:original.kdenlive:folderid">81</property>
  <property name="kdenlive:original.meta.media.frame_rate_num">25</property>
  <property name="kdenlive:original.meta.media.frame_rate_den">1</property>
  <property name="kdenlive:original.meta.media.colorspace">709</property>
  <property name="kdenlive:original.meta.media.color_trc">2</property>
  <property name="kdenlive:original.meta.media.width">2493</property>
  <property name="kdenlive:original.meta.media.height">1360</property>
  <property name="kdenlive:original.meta.media.color_range">mpeg</property>
  <property name="kdenlive:original.kdenlive:id">139</property>
  <property name="kdenlive:original.kdenlive:file_size">6094653</property>
  <property name="kdenlive:original.kdenlive:file_hash">72b81d51c3f060c1ed08c84bda93b0d2</property>
  <property name="kdenlive:original.backup">1</property>
  <property name="global_feed">1</property>
  <property name="meta.media.nb_streams">1</property>
  <property name="meta.media.0.stream.type">video</property>
  <property name="meta.media.0.stream.frame_rate">25</property>
  <property name="meta.media.0.stream.sample_aspect_ratio">0</property>
  <property name="meta.media.0.codec.width">960</property>
  <property name="meta.media.0.codec.height">524</property>
  <property name="meta.media.0.codec.rotate">0</property>
  <property name="meta.media.0.codec.frame_rate">1000</property>
  <property name="meta.media.0.codec.pix_fmt">yuvj444p</property>
  <property name="meta.media.0.codec.sample_aspect_ratio">0</property>
  <property name="meta.media.0.codec.colorspace">601</property>
  <property name="meta.media.0.codec.name">mjpeg</property>
  <property name="meta.media.0.codec.long_name">MJPEG (Motion JPEG)</property>
  <property name="meta.media.0.codec.bit_rate">0</property>
  <property name="meta.attr.0.stream.HANDLER_NAME.markup">VideoHandler</property>
  <property name="meta.attr.0.stream.ENCODER.markup">Lavc58.91.100 mjpeg</property>
  <property name="meta.attr.0.stream.DURATION.markup">00:00:13.280000000</property>
  <property name="meta.attr.COMPATIBLE_BRANDS.markup">isomiso2avc1mp41</property>
  <property name="meta.attr.MAJOR_BRAND.markup">isom</property>
  <property name="meta.attr.MINOR_VERSION.markup">512</property>
  <property name="meta.attr.ENCODER.markup">Lavf58.45.100</property>
  <property name="meta.media.sample_aspect_num">1</property>
  <property name="meta.media.sample_aspect_den">1</property>
  <property name="meta.media.frame_rate_num">25</property>
  <property name="meta.media.frame_rate_den">1</property>
  <property name="meta.media.colorspace">601</property>
  <property name="meta.media.color_trc">2</property>
  <property name="meta.media.width">960</property>
  <property name="meta.media.height">524</property>
  <property name="meta.media.color_range">full</property>
  <property name="meta.media.top_field_first">0</property>
  <property name="meta.media.progressive">1</property>
 </producer>
 <producer id="producer47" in="00:00:00.000" out="00:00:09.767">
  <property name="length">294</property>
  <property name="eof">pause</property>
  <property name="resource">/home/ryankelln/.cache/kdenlive/proxy/71ca51fd66f0b3ebd7a1cd70c4c3236e.mkv</property>
  <property name="audio_index">-1</property>
  <property name="video_index">0</property>
  <property name="mute_on_pause">0</property>
  <property name="mlt_service">avformat-novalidate</property>
  <property name="seekable">1</property>
  <property name="aspect_ratio">1</property>
  <property name="kdenlive:clipname">ReReVST-fall_sparkles-suzy_caleb_double_time_1_no-global_style=2.0_content=1.0.mp4</property>
  <property name="kdenlive:folderid">103</property>
  <property name="kdenlive:id">118</property>
  <property name="kdenlive:file_size">23869173</property>
  <property name="kdenlive:file_hash">71ca51fd66f0b3ebd7a1cd70c4c3236e</property>
  <property name="kdenlive:proxy">/home/ryankelln/.cache/kdenlive/proxy/71ca51fd66f0b3ebd7a1cd70c4c3236e.mkv</property>
  <property name="kdenlive:originalurl">content/musicians/ReReVST-fall_sparkles-suzy_caleb_double_time_1_no-global_style=2.0_content=1.0.mp4</property>
  <property name="kdenlive:original.mlt_type">producer</property>
  <property name="kdenlive:original.in">0</property>
  <property name="kdenlive:original.out">293</property>
  <property name="kdenlive:original.length">294</property>
  <property name="kdenlive:original.eof">pause</property>
  <property name="kdenlive:original.resource">content/musicians/ReReVST-fall_sparkles-suzy_caleb_double_time_1_no-global_style=2.0_content=1.0.mp4</property>
  <property name="kdenlive:original.meta.media.nb_streams">1</property>
  <property name="kdenlive:original.meta.media.0.stream.type">video</property>
  <property name="kdenlive:original.meta.media.0.stream.frame_rate">30</property>
  <property name="kdenlive:original.meta.media.0.stream.sample_aspect_ratio">0</property>
  <property name="kdenlive:original.meta.media.0.codec.width">1920</property>
  <property name="kdenlive:original.meta.media.0.codec.height">1080</property>
  <property name="kdenlive:original.meta.media.0.codec.rotate">0</property>
  <property name="kdenlive:original.meta.media.0.codec.frame_rate">30</property>
  <property name="kdenlive:original.meta.media.0.codec.pix_fmt">yuv420p</property>
  <property name="kdenlive:original.meta.media.0.codec.sample_aspect_ratio">1</property>
  <property name="kdenlive:original.meta.media.0.codec.colorspace">709</property>
  <property name="kdenlive:original.meta.media.0.codec.name">mpeg4</property>
  <property name="kdenlive:original.meta.media.0.codec.long_name">MPEG-4 part 2</property>
  <property name="kdenlive:original.meta.media.0.codec.bit_rate">19483058</property>
  <property name="kdenlive:original.meta.attr.0.stream.handler_name.markup">VideoHandler</property>
  <property name="kdenlive:original.meta.attr.major_brand.markup">isom</property>
  <property name="kdenlive:original.meta.attr.minor_version.markup">512</property>
  <property name="kdenlive:original.meta.attr.compatible_brands.markup">isomiso2mp41</property>
  <property name="kdenlive:original.meta.attr.encoder.markup">Lavf58.61.100</property>
  <property name="kdenlive:original.seekable">1</property>
  <property name="kdenlive:original.width">1920</property>
  <property name="kdenlive:original.height">1080</property>
  <property name="kdenlive:original.meta.media.sample_aspect_num">1</property>
  <property name="kdenlive:original.meta.media.sample_aspect_den">1</property>
  <property name="kdenlive:original.aspect_ratio">1</property>
  <property name="kdenlive:original.audio_index">-1</property>
  <property name="kdenlive:original.video_index">0</property>
  <property name="kdenlive:original.mute_on_pause">0</property>
  <property name="kdenlive:original.mlt_service">avformat-novalidate</property>
  <property name="kdenlive:original.kdenlive:folderid">103</property>
  <property name="kdenlive:original.meta.media.frame_rate_num">30</property>
  <property name="kdenlive:original.meta.media.frame_rate_den">1</property>
  <property name="kdenlive:original.meta.media.colorspace">709</property>
  <property name="kdenlive:original.meta.media.color_trc">2</property>
  <property name="kdenlive:original.meta.media.width">1920</property>
  <property name="kdenlive:original.meta.media.height">1080</property>
  <property name="kdenlive:original.meta.media.color_range">mpeg</property>
  <property name="kdenlive:original.kdenlive:id">140</property>
  <property name="kdenlive:original.kdenlive:file_size">23869173</property>
  <property name="kdenlive:original.kdenlive:file_hash">71ca51fd66f0b3ebd7a1cd70c4c3236e</property>
  <property name="kdenlive:original.backup">1</property>
  <property name="global_feed">1</property>
  <property name="meta.media.nb_streams">1</property>
  <property name="meta.media.0.stream.type">video</property>
  <property name="meta.media.0.stream.frame_rate">30</property>
  <property name="meta.media.0.stream.sample_aspect_ratio">1</property>
  <property name="meta.media.0.codec.width">960</property>
  <property name="meta.media.0.codec.height">540</property>
  <property name="meta.media.0.codec.rotate">0</property>
  <property name="meta.media.0.codec.frame_rate">1000</property>
  <property name="meta.media.0.codec.pix_fmt">yuvj420p</property>
  <property name="meta.media.0.codec.sample_aspect_ratio">1</property>
  <property name="meta.media.0.codec.colorspace">601</property>
  <property name="meta.media.0.codec.name">mjpeg</property>
  <property name="meta.media.0.codec.long_name">MJPEG (Motion JPEG)</property>
  <property name="meta.media.0.codec.bit_rate">0</property>
  <property name="meta.attr.0.stream.HANDLER_NAME.markup">VideoHandler</property>
  <property name="meta.attr.0.stream.ENCODER.markup">Lavc58.91.100 mjpeg</property>
  <property name="meta.attr.0.stream.DURATION.markup">00:00:09.800000000</property>
  <property name="meta.attr.COMPATIBLE_BRANDS.markup">isomiso2mp41</property>
  <property name="meta.attr.MAJOR_BRAND.markup">isom</property>
  <property name="meta.attr.MINOR_VERSION.markup">512</property>
  <property name="meta.attr.ENCODER.markup">Lavf58.45.100</property>
  <property name="meta.media.sample_aspect_num">1</property>
  <property name="meta.media.sample_aspect_den">1</property>
  <property name="meta.media.frame_rate_num">30</property>
  <property name="meta.media.frame_rate_den">1</property>
  <property name="meta.media.colorspace">601</property>
  <property name="meta.media.color_trc">2</property>
  <property name="meta.media.width">960</property>
  <property name="meta.media.height">540</property>
  <property name="meta.media.color_range">full</property>
  <property name="meta.media.top_field_first">0</property>
  <property name="meta.media.progressive">1</property>
 </producer>
 <producer id="producer48" in="00:00:00.000" out="00:00:09.800">
  <property name="length">295</property>
  <property name="eof">pause</property>
  <property name="resource">/home/ryankelln/.cache/kdenlive/proxy/f2a9f4561d257aee6ed91ad9f93316cd.mkv</property>
  <property name="audio_index">-1</property>
  <property name="video_index">0</property>
  <property name="mute_on_pause">0</property>
  <property name="mlt_service">avformat-novalidate</property>
  <property name="seekable">1</property>
  <property name="aspect_ratio">1</property>
  <property name="kdenlive:clipname">ReReVST-rowboats_2-suzy_chris_end_3_no-global_style=2.0_content=1.0.mp4</property>
  <property name="kdenlive:folderid">103</property>
  <property name="kdenlive:id">119</property>
  <property name="kdenlive:file_size">51682953</property>
  <property name="kdenlive:file_hash">f2a9f4561d257aee6ed91ad9f93316cd</property>
  <property name="kdenlive:proxy">/home/ryankelln/.cache/kdenlive/proxy/f2a9f4561d257aee6ed91ad9f93316cd.mkv</property>
  <property name="kdenlive:originalurl">content/musicians/ReReVST-rowboats_2-suzy_chris_end_3_no-global_style=2.0_content=1.0.mp4</property>
  <property name="kdenlive:original.mlt_type">producer</property>
  <property name="kdenlive:original.in">0</property>
  <property name="kdenlive:original.out">294</property>
  <property name="kdenlive:original.length">295</property>
  <property name="kdenlive:original.eof">pause</property>
  <property name="kdenlive:original.resource">content/musicians/ReReVST-rowboats_2-suzy_chris_end_3_no-global_style=2.0_content=1.0.mp4</property>
  <property name="kdenlive:original.meta.media.nb_streams">1</property>
  <property name="kdenlive:original.meta.media.0.stream.type">video</property>
  <property name="kdenlive:original.meta.media.0.stream.frame_rate">30</property>
  <property name="kdenlive:original.meta.media.0.stream.sample_aspect_ratio">0</property>
  <property name="kdenlive:original.meta.media.0.codec.width">1920</property>
  <property name="kdenlive:original.meta.media.0.codec.height">1080</property>
  <property name="kdenlive:original.meta.media.0.codec.rotate">0</property>
  <property name="kdenlive:original.meta.media.0.codec.frame_rate">30</property>
  <property name="kdenlive:original.meta.media.0.codec.pix_fmt">yuv420p</property>
  <property name="kdenlive:original.meta.media.0.codec.sample_aspect_ratio">1</property>
  <property name="kdenlive:original.meta.media.0.codec.colorspace">709</property>
  <property name="kdenlive:original.meta.media.0.codec.name">mpeg4</property>
  <property name="kdenlive:original.meta.media.0.codec.long_name">MPEG-4 part 2</property>
  <property name="kdenlive:original.meta.media.0.codec.bit_rate">42044849</property>
  <property name="kdenlive:original.meta.attr.0.stream.handler_name.markup">VideoHandler</property>
  <property name="kdenlive:original.meta.attr.major_brand.markup">isom</property>
  <property name="kdenlive:original.meta.attr.minor_version.markup">512</property>
  <property name="kdenlive:original.meta.attr.compatible_brands.markup">isomiso2mp41</property>
  <property name="kdenlive:original.meta.attr.encoder.markup">Lavf58.61.100</property>
  <property name="kdenlive:original.seekable">1</property>
  <property name="kdenlive:original.width">1920</property>
  <property name="kdenlive:original.height">1080</property>
  <property name="kdenlive:original.meta.media.sample_aspect_num">1</property>
  <property name="kdenlive:original.meta.media.sample_aspect_den">1</property>
  <property name="kdenlive:original.aspect_ratio">1</property>
  <property name="kdenlive:original.audio_index">-1</property>
  <property name="kdenlive:original.video_index">0</property>
  <property name="kdenlive:original.mute_on_pause">0</property>
  <property name="kdenlive:original.mlt_service">avformat-novalidate</property>
  <property name="kdenlive:original.kdenlive:folderid">103</property>
  <property name="kdenlive:original.meta.media.frame_rate_num">30</property>
  <property name="kdenlive:original.meta.media.frame_rate_den">1</property>
  <property name="kdenlive:original.meta.media.colorspace">709</property>
  <property name="kdenlive:original.meta.media.color_trc">2</property>
  <property name="kdenlive:original.meta.media.width">1920</property>
  <property name="kdenlive:original.meta.media.height">1080</property>
  <property name="kdenlive:original.meta.media.color_range">mpeg</property>
  <property name="kdenlive:original.kdenlive:id">141</property>
  <property name="kdenlive:original.kdenlive:file_size">51682953</property>
  <property name="kdenlive:original.kdenlive:file_hash">f2a9f4561d257aee6ed91ad9f93316cd</property>
  <property name="kdenlive:original.backup">1</property>
  <property name="global_feed">1</property>
  <property name="meta.media.nb_streams">1</property>
  <property name="meta.media.0.stream.type">video</property>
  <property name="meta.media.0.stream.frame_rate">30</property>
  <property name="meta.media.0.stream.sample_aspect_ratio">1</property>
  <property name="meta.media.0.codec.width">960</property>
  <property name="meta.media.0.codec.height">540</property>
  <property name="meta.media.0.codec.rotate">0</property>
  <property name="meta.media.0.codec.frame_rate">1000</property>
  <property name="meta.media.0.codec.pix_fmt">yuvj420p</property>
  <property name="meta.media.0.codec.sample_aspect_ratio">1</property>
  <property name="meta.media.0.codec.colorspace">601</property>
  <property name="meta.media.0.codec.name">mjpeg</property>
  <property name="meta.media.0.codec.long_name">MJPEG (Motion JPEG)</property>
  <property name="meta.media.0.codec.bit_rate">0</property>
  <property name="meta.attr.0.stream.HANDLER_NAME.markup">VideoHandler</property>
  <property name="meta.attr.0.stream.ENCODER.markup">Lavc58.91.100 mjpeg</property>
  <property name="meta.attr.0.stream.DURATION.markup">00:00:09.833000000</property>
  <property name="meta.attr.COMPATIBLE_BRANDS.markup">isomiso2mp41</property>
  <property name="meta.attr.MAJOR_BRAND.markup">isom</property>
  <property name="meta.attr.MINOR_VERSION.markup">512</property>
  <property name="meta.attr.ENCODER.markup">Lavf58.45.100</property>
  <property name="meta.media.sample_aspect_num">1</property>
  <property name="meta.media.sample_aspect_den">1</property>
  <property name="meta.media.frame_rate_num">30</property>
  <property name="meta.media.frame_rate_den">1</property>
  <property name="meta.media.colorspace">601</property>
  <property name="meta.media.color_trc">2</property>
  <property name="meta.media.width">960</property>
  <property name="meta.media.height">540</property>
  <property name="meta.media.color_range">full</property>
  <property name="meta.media.top_field_first">0</property>
  <property name="meta.media.progressive">1</property>
 </producer>
 <producer id="producer49" in="00:00:00.000" out="00:00:15.300">
  <property name="length">460</property>
  <property name="eof">pause</property>
  <property name="resource">/home/ryankelln/.cache/kdenlive/proxy/4c1109712b57909c3fac6f312e824452.mkv</property>
  <property name="audio_index">-1</property>
  <property name="video_index">0</property>
  <property name="mute_on_pause">0</property>
  <property name="mlt_service">avformat-novalidate</property>
  <property name="seekable">1</property>
  <property name="aspect_ratio">1</property>
  <property name="kdenlive:clipname">ReReVST-summer_trees-suzy_chris_end_1_no-global_style=2.0_content=1.0.mp4</property>
  <property name="kdenlive:folderid">103</property>
  <property name="kdenlive:id">120</property>
  <property name="kdenlive:file_size">33949765</property>
  <property name="kdenlive:file_hash">4c1109712b57909c3fac6f312e824452</property>
  <property name="kdenlive:proxy">/home/ryankelln/.cache/kdenlive/proxy/4c1109712b57909c3fac6f312e824452.mkv</property>
  <property name="kdenlive:originalurl">content/musicians/ReReVST-summer_trees-suzy_chris_end_1_no-global_style=2.0_content=1.0.mp4</property>
  <property name="kdenlive:original.mlt_type">producer</property>
  <property name="kdenlive:original.in">0</property>
  <property name="kdenlive:original.out">459</property>
  <property name="kdenlive:original.length">460</property>
  <property name="kdenlive:original.eof">pause</property>
  <property name="kdenlive:original.resource">content/musicians/ReReVST-summer_trees-suzy_chris_end_1_no-global_style=2.0_content=1.0.mp4</property>
  <property name="kdenlive:original.meta.media.nb_streams">1</property>
  <property name="kdenlive:original.meta.media.0.stream.type">video</property>
  <property name="kdenlive:original.meta.media.0.stream.frame_rate">30</property>
  <property name="kdenlive:original.meta.media.0.stream.sample_aspect_ratio">0</property>
  <property name="kdenlive:original.meta.media.0.codec.width">1920</property>
  <property name="kdenlive:original.meta.media.0.codec.height">1080</property>
  <property name="kdenlive:original.meta.media.0.codec.rotate">0</property>
  <property name="kdenlive:original.meta.media.0.codec.frame_rate">30</property>
  <property name="kdenlive:original.meta.media.0.codec.pix_fmt">yuv420p</property>
  <property name="kdenlive:original.meta.media.0.codec.sample_aspect_ratio">1</property>
  <property name="kdenlive:original.meta.media.0.codec.colorspace">709</property>
  <property name="kdenlive:original.meta.media.0.codec.name">mpeg4</property>
  <property name="kdenlive:original.meta.media.0.codec.long_name">MPEG-4 part 2</property>
  <property name="kdenlive:original.meta.media.0.codec.bit_rate">17711202</property>
  <property name="kdenlive:original.meta.attr.0.stream.handler_name.markup">VideoHandler</property>
  <property name="kdenlive:original.meta.attr.major_brand.markup">isom</property>
  <property name="kdenlive:original.meta.attr.minor_version.markup">512</property>
  <property name="kdenlive:original.meta.attr.compatible_brands.markup">isomiso2mp41</property>
  <property name="kdenlive:original.meta.attr.encoder.markup">Lavf58.61.100</property>
  <property name="kdenlive:original.seekable">1</property>
  <property name="kdenlive:original.width">1920</property>
  <property name="kdenlive:original.height">1080</property>
  <property name="kdenlive:original.meta.media.sample_aspect_num">1</property>
  <property name="kdenlive:original.meta.media.sample_aspect_den">1</property>
  <property name="kdenlive:original.aspect_ratio">1</property>
  <property name="kdenlive:original.audio_index">-1</property>
  <property name="kdenlive:original.video_index">0</property>
  <property name="kdenlive:original.mute_on_pause">0</property>
  <property name="kdenlive:original.mlt_service">avformat-novalidate</property>
  <property name="kdenlive:original.kdenlive:folderid">103</property>
  <property name="kdenlive:original.meta.media.frame_rate_num">30</property>
  <property name="kdenlive:original.meta.media.frame_rate_den">1</property>
  <property name="kdenlive:original.meta.media.colorspace">709</property>
  <property name="kdenlive:original.meta.media.color_trc">2</property>
  <property name="kdenlive:original.meta.media.width">1920</property>
  <property name="kdenlive:original.meta.media.height">1080</property>
  <property name="kdenlive:original.meta.media.color_range">mpeg</property>
  <property name="kdenlive:original.kdenlive:id">142</property>
  <property name="kdenlive:original.kdenlive:file_size">33949765</property>
  <property name="kdenlive:original.kdenlive:file_hash">4c1109712b57909c3fac6f312e824452</property>
  <property name="kdenlive:original.backup">1</property>
  <property name="global_feed">1</property>
  <property name="meta.media.nb_streams">1</property>
  <property name="meta.media.0.stream.type">video</property>
  <property name="meta.media.0.stream.frame_rate">30</property>
  <property name="meta.media.0.stream.sample_aspect_ratio">1</property>
  <property name="meta.media.0.codec.width">960</property>
  <property name="meta.media.0.codec.height">540</property>
  <property name="meta.media.0.codec.rotate">0</property>
  <property name="meta.media.0.codec.frame_rate">1000</property>
  <property name="meta.media.0.codec.pix_fmt">yuvj420p</property>
  <property name="meta.media.0.codec.sample_aspect_ratio">1</property>
  <property name="meta.media.0.codec.colorspace">601</property>
  <property name="meta.media.0.codec.name">mjpeg</property>
  <property name="meta.media.0.codec.long_name">MJPEG (Motion JPEG)</property>
  <property name="meta.media.0.codec.bit_rate">0</property>
  <property name="meta.attr.0.stream.HANDLER_NAME.markup">VideoHandler</property>
  <property name="meta.attr.0.stream.ENCODER.markup">Lavc58.91.100 mjpeg</property>
  <property name="meta.attr.0.stream.DURATION.markup">00:00:15.333000000</property>
  <property name="meta.attr.COMPATIBLE_BRANDS.markup">isomiso2mp41</property>
  <property name="meta.attr.MAJOR_BRAND.markup">isom</property>
  <property name="meta.attr.MINOR_VERSION.markup">512</property>
  <property name="meta.attr.ENCODER.markup">Lavf58.45.100</property>
  <property name="meta.media.sample_aspect_num">1</property>
  <property name="meta.media.sample_aspect_den">1</property>
  <property name="meta.media.frame_rate_num">30</property>
  <property name="meta.media.frame_rate_den">1</property>
  <property name="meta.media.colorspace">601</property>
  <property name="meta.media.color_trc">2</property>
  <property name="meta.media.width">960</property>
  <property name="meta.media.height">540</property>
  <property name="meta.media.color_range">full</property>
  <property name="meta.media.top_field_first">0</property>
  <property name="meta.media.progressive">1</property>
 </producer>
 <producer id="producer50" in="00:00:00.000" out="00:00:13.600">
  <property name="length">409</property>
  <property name="eof">pause</property>
  <property name="resource">/home/ryankelln/.cache/kdenlive/proxy/a70739656115db1bf10e0f3abd4968a6.mkv</property>
  <property name="audio_index">-1</property>
  <property name="video_index">0</property>
  <property name="mute_on_pause">0</property>
  <property name="mlt_service">avformat-novalidate</property>
  <property name="seekable">1</property>
  <property name="aspect_ratio">1</property>
  <property name="kdenlive:clipname">ReReVST-fall_fence-suzy_chris_end_2_no-global_style=2.0_content=1.0.mp4</property>
  <property name="kdenlive:folderid">103</property>
  <property name="kdenlive:id">121</property>
  <property name="kdenlive:file_size">36978135</property>
  <property name="kdenlive:file_hash">a70739656115db1bf10e0f3abd4968a6</property>
  <property name="kdenlive:proxy">/home/ryankelln/.cache/kdenlive/proxy/a70739656115db1bf10e0f3abd4968a6.mkv</property>
  <property name="kdenlive:originalurl">content/musicians/ReReVST-fall_fence-suzy_chris_end_2_no-global_style=2.0_content=1.0.mp4</property>
  <property name="kdenlive:original.mlt_type">producer</property>
  <property name="kdenlive:original.in">0</property>
  <property name="kdenlive:original.out">408</property>
  <property name="kdenlive:original.length">409</property>
  <property name="kdenlive:original.eof">pause</property>
  <property name="kdenlive:original.resource">content/musicians/ReReVST-fall_fence-suzy_chris_end_2_no-global_style=2.0_content=1.0.mp4</property>
  <property name="kdenlive:original.meta.media.nb_streams">1</property>
  <property name="kdenlive:original.meta.media.0.stream.type">video</property>
  <property name="kdenlive:original.meta.media.0.stream.frame_rate">30</property>
  <property name="kdenlive:original.meta.media.0.stream.sample_aspect_ratio">0</property>
  <property name="kdenlive:original.meta.media.0.codec.width">1920</property>
  <property name="kdenlive:original.meta.media.0.codec.height">1080</property>
  <property name="kdenlive:original.meta.media.0.codec.rotate">0</property>
  <property name="kdenlive:original.meta.media.0.codec.frame_rate">30</property>
  <property name="kdenlive:original.meta.media.0.codec.pix_fmt">yuv420p</property>
  <property name="kdenlive:original.meta.media.0.codec.sample_aspect_ratio">1</property>
  <property name="kdenlive:original.meta.media.0.codec.colorspace">709</property>
  <property name="kdenlive:original.meta.media.0.codec.name">mpeg4</property>
  <property name="kdenlive:original.meta.media.0.codec.long_name">MPEG-4 part 2</property>
  <property name="kdenlive:original.meta.media.0.codec.bit_rate">21696885</property>
  <property name="kdenlive:original.meta.attr.0.stream.handler_name.markup">VideoHandler</property>
  <property name="kdenlive:original.meta.attr.major_brand.markup">isom</property>
  <property name="kdenlive:original.meta.attr.minor_version.markup">512</property>
  <property name="kdenlive:original.meta.attr.compatible_brands.markup">isomiso2mp41</property>
  <property name="kdenlive:original.meta.attr.encoder.markup">Lavf58.61.100</property>
  <property name="kdenlive:original.seekable">1</property>
  <property name="kdenlive:original.width">1920</property>
  <property name="kdenlive:original.height">1080</property>
  <property name="kdenlive:original.meta.media.sample_aspect_num">1</property>
  <property name="kdenlive:original.meta.media.sample_aspect_den">1</property>
  <property name="kdenlive:original.aspect_ratio">1</property>
  <property name="kdenlive:original.audio_index">-1</property>
  <property name="kdenlive:original.video_index">0</property>
  <property name="kdenlive:original.mute_on_pause">0</property>
  <property name="kdenlive:original.mlt_service">avformat-novalidate</property>
  <property name="kdenlive:original.kdenlive:folderid">103</property>
  <property name="kdenlive:original.meta.media.frame_rate_num">30</property>
  <property name="kdenlive:original.meta.media.frame_rate_den">1</property>
  <property name="kdenlive:original.meta.media.colorspace">709</property>
  <property name="kdenlive:original.meta.media.color_trc">2</property>
  <property name="kdenlive:original.meta.media.width">1920</property>
  <property name="kdenlive:original.meta.media.height">1080</property>
  <property name="kdenlive:original.meta.media.color_range">mpeg</property>
  <property name="kdenlive:original.kdenlive:id">143</property>
  <property name="kdenlive:original.kdenlive:file_size">36978135</property>
  <property name="kdenlive:original.kdenlive:file_hash">a70739656115db1bf10e0f3abd4968a6</property>
  <property name="kdenlive:original.backup">1</property>
  <property name="global_feed">1</property>
  <property name="meta.media.nb_streams">1</property>
  <property name="meta.media.0.stream.type">video</property>
  <property name="meta.media.0.stream.frame_rate">30</property>
  <property name="meta.media.0.stream.sample_aspect_ratio">1</property>
  <property name="meta.media.0.codec.width">960</property>
  <property name="meta.media.0.codec.height">540</property>
  <property name="meta.media.0.codec.rotate">0</property>
  <property name="meta.media.0.codec.frame_rate">1000</property>
  <property name="meta.media.0.codec.pix_fmt">yuvj420p</property>
  <property name="meta.media.0.codec.sample_aspect_ratio">1</property>
  <property name="meta.media.0.codec.colorspace">601</property>
  <property name="meta.media.0.codec.name">mjpeg</property>
  <property name="meta.media.0.codec.long_name">MJPEG (Motion JPEG)</property>
  <property name="meta.media.0.codec.bit_rate">0</property>
  <property name="meta.attr.0.stream.HANDLER_NAME.markup">VideoHandler</property>
  <property name="meta.attr.0.stream.ENCODER.markup">Lavc58.91.100 mjpeg</property>
  <property name="meta.attr.0.stream.DURATION.markup">00:00:13.633000000</property>
  <property name="meta.attr.COMPATIBLE_BRANDS.markup">isomiso2mp41</property>
  <property name="meta.attr.MAJOR_BRAND.markup">isom</property>
  <property name="meta.attr.MINOR_VERSION.markup">512</property>
  <property name="meta.attr.ENCODER.markup">Lavf58.45.100</property>
  <property name="meta.media.sample_aspect_num">1</property>
  <property name="meta.media.sample_aspect_den">1</property>
  <property name="meta.media.frame_rate_num">30</property>
  <property name="meta.media.frame_rate_den">1</property>
  <property name="meta.media.colorspace">601</property>
  <property name="meta.media.color_trc">2</property>
  <property name="meta.media.width">960</property>
  <property name="meta.media.height">540</property>
  <property name="meta.media.color_range">full</property>
  <property name="meta.media.top_field_first">0</property>
  <property name="meta.media.progressive">1</property>
 </producer>
 <producer id="producer51" in="00:00:00.000" out="00:00:02.633">
  <property name="length">80</property>
  <property name="eof">pause</property>
  <property name="resource">content/animated_paintings/fall_clouds_timelapse_0.mp4</property>
  <property name="audio_index">-1</property>
  <property name="video_index">0</property>
  <property name="mute_on_pause">0</property>
  <property name="mlt_service">avformat-novalidate</property>
  <property name="meta.media.nb_streams">1</property>
  <property name="meta.media.0.stream.type">video</property>
  <property name="meta.media.0.stream.frame_rate">15</property>
  <property name="meta.media.0.stream.sample_aspect_ratio">0</property>
  <property name="meta.media.0.codec.width">250</property>
  <property name="meta.media.0.codec.height">250</property>
  <property name="meta.media.0.codec.rotate">0</property>
  <property name="meta.media.0.codec.frame_rate">15</property>
  <property name="meta.media.0.codec.pix_fmt">yuv420p</property>
  <property name="meta.media.0.codec.sample_aspect_ratio">1</property>
  <property name="meta.media.0.codec.colorspace">601</property>
  <property name="meta.media.0.codec.name">mpeg4</property>
  <property name="meta.media.0.codec.long_name">MPEG-4 part 2</property>
  <property name="meta.media.0.codec.bit_rate">263874</property>
  <property name="meta.attr.0.stream.handler_name.markup">VideoHandler</property>
  <property name="meta.attr.major_brand.markup">isom</property>
  <property name="meta.attr.minor_version.markup">512</property>
  <property name="meta.attr.compatible_brands.markup">isomiso2mp41</property>
  <property name="meta.attr.encoder.markup">Lavf58.61.100</property>
  <property name="seekable">1</property>
  <property name="meta.media.sample_aspect_num">1</property>
  <property name="meta.media.sample_aspect_den">1</property>
  <property name="aspect_ratio">1</property>
  <property name="kdenlive:clipname"/>
  <property name="kdenlive:folderid">81</property>
  <property name="meta.media.frame_rate_num">15</property>
  <property name="meta.media.frame_rate_den">1</property>
  <property name="meta.media.colorspace">601</property>
  <property name="meta.media.color_trc">2</property>
  <property name="meta.media.width">250</property>
  <property name="meta.media.height">250</property>
  <property name="meta.media.color_range">mpeg</property>
  <property name="kdenlive:id">122</property>
  <property name="kdenlive:file_size">89012</property>
  <property name="kdenlive:file_hash">6b19289afeed4433ba096582f0806225</property>
  <property name="meta.media.top_field_first">0</property>
  <property name="meta.media.progressive">1</property>
  <property name="global_feed">1</property>
 </producer>
 <producer id="producer52" in="00:00:00.000" out="00:00:02.633">
  <property name="length">80</property>
  <property name="eof">pause</property>
  <property name="resource">content/animated_paintings/fall_fence_timelapse_4.mp4</property>
  <property name="audio_index">-1</property>
  <property name="video_index">0</property>
  <property name="mute_on_pause">0</property>
  <property name="mlt_service">avformat-novalidate</property>
  <property name="meta.media.nb_streams">1</property>
  <property name="meta.media.0.stream.type">video</property>
  <property name="meta.media.0.stream.frame_rate">15</property>
  <property name="meta.media.0.stream.sample_aspect_ratio">0</property>
  <property name="meta.media.0.codec.width">250</property>
  <property name="meta.media.0.codec.height">250</property>
  <property name="meta.media.0.codec.rotate">0</property>
  <property name="meta.media.0.codec.frame_rate">15</property>
  <property name="meta.media.0.codec.pix_fmt">yuv420p</property>
  <property name="meta.media.0.codec.sample_aspect_ratio">1</property>
  <property name="meta.media.0.codec.colorspace">601</property>
  <property name="meta.media.0.codec.name">mpeg4</property>
  <property name="meta.media.0.codec.long_name">MPEG-4 part 2</property>
  <property name="meta.media.0.codec.bit_rate">282990</property>
  <property name="meta.attr.0.stream.handler_name.markup">VideoHandler</property>
  <property name="meta.attr.major_brand.markup">isom</property>
  <property name="meta.attr.minor_version.markup">512</property>
  <property name="meta.attr.compatible_brands.markup">isomiso2mp41</property>
  <property name="meta.attr.encoder.markup">Lavf58.61.100</property>
  <property name="seekable">1</property>
  <property name="meta.media.sample_aspect_num">1</property>
  <property name="meta.media.sample_aspect_den">1</property>
  <property name="aspect_ratio">1</property>
  <property name="kdenlive:clipname"/>
  <property name="kdenlive:folderid">81</property>
  <property name="meta.media.frame_rate_num">15</property>
  <property name="meta.media.frame_rate_den">1</property>
  <property name="meta.media.colorspace">601</property>
  <property name="meta.media.color_trc">2</property>
  <property name="meta.media.width">250</property>
  <property name="meta.media.height">250</property>
  <property name="meta.media.color_range">mpeg</property>
  <property name="kdenlive:id">123</property>
  <property name="kdenlive:file_size">95384</property>
  <property name="kdenlive:file_hash">1a667b4ce58d0ae2457b8ddcc7bb0c63</property>
  <property name="meta.media.top_field_first">0</property>
  <property name="meta.media.progressive">1</property>
  <property name="global_feed">1</property>
 </producer>
 <producer id="producer53" in="00:00:00.000" out="00:00:02.633">
  <property name="length">80</property>
  <property name="eof">pause</property>
  <property name="resource">content/animated_paintings/fall_shadows_timelapse_2.mp4</property>
  <property name="audio_index">-1</property>
  <property name="video_index">0</property>
  <property name="mute_on_pause">0</property>
  <property name="mlt_service">avformat-novalidate</property>
  <property name="meta.media.nb_streams">1</property>
  <property name="meta.media.0.stream.type">video</property>
  <property name="meta.media.0.stream.frame_rate">15</property>
  <property name="meta.media.0.stream.sample_aspect_ratio">0</property>
  <property name="meta.media.0.codec.width">250</property>
  <property name="meta.media.0.codec.height">250</property>
  <property name="meta.media.0.codec.rotate">0</property>
  <property name="meta.media.0.codec.frame_rate">15</property>
  <property name="meta.media.0.codec.pix_fmt">yuv420p</property>
  <property name="meta.media.0.codec.sample_aspect_ratio">1</property>
  <property name="meta.media.0.codec.colorspace">601</property>
  <property name="meta.media.0.codec.name">mpeg4</property>
  <property name="meta.media.0.codec.long_name">MPEG-4 part 2</property>
  <property name="meta.media.0.codec.bit_rate">221526</property>
  <property name="meta.attr.0.stream.handler_name.markup">VideoHandler</property>
  <property name="meta.attr.major_brand.markup">isom</property>
  <property name="meta.attr.minor_version.markup">512</property>
  <property name="meta.attr.compatible_brands.markup">isomiso2mp41</property>
  <property name="meta.attr.encoder.markup">Lavf58.61.100</property>
  <property name="seekable">1</property>
  <property name="meta.media.sample_aspect_num">1</property>
  <property name="meta.media.sample_aspect_den">1</property>
  <property name="aspect_ratio">1</property>
  <property name="kdenlive:clipname"/>
  <property name="kdenlive:folderid">81</property>
  <property name="meta.media.frame_rate_num">15</property>
  <property name="meta.media.frame_rate_den">1</property>
  <property name="meta.media.colorspace">601</property>
  <property name="meta.media.color_trc">2</property>
  <property name="meta.media.width">250</property>
  <property name="meta.media.height">250</property>
  <property name="meta.media.color_range">mpeg</property>
  <property name="kdenlive:id">124</property>
  <property name="kdenlive:file_size">74900</property>
  <property name="kdenlive:file_hash">68bf0062dd53def14d3985ddfd3dd7ec</property>
  <property name="meta.media.top_field_first">0</property>
  <property name="meta.media.progressive">1</property>
  <property name="global_feed">1</property>
 </producer>
 <producer id="producer54" in="00:00:00.000" out="00:00:02.633">
  <property name="length">80</property>
  <property name="eof">pause</property>
  <property name="resource">content/animated_paintings/fall_sparkles_timelapse_4.mp4</property>
  <property name="audio_index">-1</property>
  <property name="video_index">0</property>
  <property name="mute_on_pause">0</property>
  <property name="mlt_service">avformat-novalidate</property>
  <property name="meta.media.nb_streams">1</property>
  <property name="meta.media.0.stream.type">video</property>
  <property name="meta.media.0.stream.frame_rate">15</property>
  <property name="meta.media.0.stream.sample_aspect_ratio">0</property>
  <property name="meta.media.0.codec.width">250</property>
  <property name="meta.media.0.codec.height">250</property>
  <property name="meta.media.0.codec.rotate">0</property>
  <property name="meta.media.0.codec.frame_rate">15</property>
  <property name="meta.media.0.codec.pix_fmt">yuv420p</property>
  <property name="meta.media.0.codec.sample_aspect_ratio">1</property>
  <property name="meta.media.0.codec.colorspace">601</property>
  <property name="meta.media.0.codec.name">mpeg4</property>
  <property name="meta.media.0.codec.long_name">MPEG-4 part 2</property>
  <property name="meta.media.0.codec.bit_rate">258339</property>
  <property name="meta.attr.0.stream.handler_name.markup">VideoHandler</property>
  <property name="meta.attr.major_brand.markup">isom</property>
  <property name="meta.attr.minor_version.markup">512</property>
  <property name="meta.attr.compatible_brands.markup">isomiso2mp41</property>
  <property name="meta.attr.encoder.markup">Lavf58.61.100</property>
  <property name="seekable">1</property>
  <property name="meta.media.sample_aspect_num">1</property>
  <property name="meta.media.sample_aspect_den">1</property>
  <property name="aspect_ratio">1</property>
  <property name="kdenlive:clipname"/>
  <property name="kdenlive:folderid">81</property>
  <property name="meta.media.frame_rate_num">15</property>
  <property name="meta.media.frame_rate_den">1</property>
  <property name="meta.media.colorspace">601</property>
  <property name="meta.media.color_trc">2</property>
  <property name="meta.media.width">250</property>
  <property name="meta.media.height">250</property>
  <property name="meta.media.color_range">mpeg</property>
  <property name="kdenlive:id">125</property>
  <property name="kdenlive:file_size">87167</property>
  <property name="kdenlive:file_hash">1dc99c837d08ed3a621e24e1bca41646</property>
  <property name="meta.media.top_field_first">0</property>
  <property name="meta.media.progressive">1</property>
  <property name="global_feed">1</property>
 </producer>
 <producer id="producer55" in="00:00:00.000" out="00:00:02.633">
  <property name="length">80</property>
  <property name="eof">pause</property>
  <property name="resource">content/animated_paintings/fishing_boats_timelapse_0.mp4</property>
  <property name="audio_index">-1</property>
  <property name="video_index">0</property>
  <property name="mute_on_pause">0</property>
  <property name="mlt_service">avformat-novalidate</property>
  <property name="meta.media.nb_streams">1</property>
  <property name="meta.media.0.stream.type">video</property>
  <property name="meta.media.0.stream.frame_rate">15</property>
  <property name="meta.media.0.stream.sample_aspect_ratio">0</property>
  <property name="meta.media.0.codec.width">250</property>
  <property name="meta.media.0.codec.height">250</property>
  <property name="meta.media.0.codec.rotate">0</property>
  <property name="meta.media.0.codec.frame_rate">15</property>
  <property name="meta.media.0.codec.pix_fmt">yuv420p</property>
  <property name="meta.media.0.codec.sample_aspect_ratio">1</property>
  <property name="meta.media.0.codec.colorspace">601</property>
  <property name="meta.media.0.codec.name">mpeg4</property>
  <property name="meta.media.0.codec.long_name">MPEG-4 part 2</property>
  <property name="meta.media.0.codec.bit_rate">271899</property>
  <property name="meta.attr.0.stream.handler_name.markup">VideoHandler</property>
  <property name="meta.attr.major_brand.markup">isom</property>
  <property name="meta.attr.minor_version.markup">512</property>
  <property name="meta.attr.compatible_brands.markup">isomiso2mp41</property>
  <property name="meta.attr.encoder.markup">Lavf58.61.100</property>
  <property name="seekable">1</property>
  <property name="meta.media.sample_aspect_num">1</property>
  <property name="meta.media.sample_aspect_den">1</property>
  <property name="aspect_ratio">1</property>
  <property name="kdenlive:clipname"/>
  <property name="kdenlive:folderid">81</property>
  <property name="meta.media.frame_rate_num">15</property>
  <property name="meta.media.frame_rate_den">1</property>
  <property name="meta.media.colorspace">601</property>
  <property name="meta.media.color_trc">2</property>
  <property name="meta.media.width">250</property>
  <property name="meta.media.height">250</property>
  <property name="meta.media.color_range">mpeg</property>
  <property name="kdenlive:id">126</property>
  <property name="kdenlive:file_size">91687</property>
  <property name="kdenlive:file_hash">800c7e96a9424ecb0e089016490d5b30</property>
  <property name="meta.media.top_field_first">0</property>
  <property name="meta.media.progressive">1</property>
  <property name="global_feed">1</property>
 </producer>
 <producer id="producer94" in="00:00:00.000" out="00:00:02.633">
  <property name="length">80</property>
  <property name="eof">pause</property>
  <property name="resource">content/animated_paintings/garage_timelapse_3.mp4</property>
  <property name="audio_index">-1</property>
  <property name="video_index">0</property>
  <property name="mute_on_pause">0</property>
  <property name="mlt_service">avformat-novalidate</property>
  <property name="meta.media.nb_streams">1</property>
  <property name="meta.media.0.stream.type">video</property>
  <property name="meta.media.0.stream.frame_rate">15</property>
  <property name="meta.media.0.stream.sample_aspect_ratio">0</property>
  <property name="meta.media.0.codec.width">250</property>
  <property name="meta.media.0.codec.height">250</property>
  <property name="meta.media.0.codec.rotate">0</property>
  <property name="meta.media.0.codec.frame_rate">15</property>
  <property name="meta.media.0.codec.pix_fmt">yuv420p</property>
  <property name="meta.media.0.codec.sample_aspect_ratio">1</property>
  <property name="meta.media.0.codec.colorspace">601</property>
  <property name="meta.media.0.codec.name">mpeg4</property>
  <property name="meta.media.0.codec.long_name">MPEG-4 part 2</property>
  <property name="meta.media.0.codec.bit_rate">350835</property>
  <property name="meta.attr.0.stream.handler_name.markup">VideoHandler</property>
  <property name="meta.attr.major_brand.markup">isom</property>
  <property name="meta.attr.minor_version.markup">512</property>
  <property name="meta.attr.compatible_brands.markup">isomiso2mp41</property>
  <property name="meta.attr.encoder.markup">Lavf58.61.100</property>
  <property name="seekable">1</property>
  <property name="meta.media.sample_aspect_num">1</property>
  <property name="meta.media.sample_aspect_den">1</property>
  <property name="aspect_ratio">1</property>
  <property name="kdenlive:clipname"/>
  <property name="kdenlive:folderid">81</property>
  <property name="meta.media.frame_rate_num">15</property>
  <property name="meta.media.frame_rate_den">1</property>
  <property name="meta.media.colorspace">601</property>
  <property name="meta.media.color_trc">2</property>
  <property name="meta.media.width">250</property>
  <property name="meta.media.height">250</property>
  <property name="meta.media.color_range">mpeg</property>
  <property name="kdenlive:id">127</property>
  <property name="kdenlive:file_size">117999</property>
  <property name="kdenlive:file_hash">d1c85126d6a1a0869e253e43b0ac5f68</property>
  <property name="meta.media.top_field_first">0</property>
  <property name="meta.media.progressive">1</property>
 </producer>
 <producer id="producer95" in="00:00:00.000" out="00:00:02.633">
  <property name="length">80</property>
  <property name="eof">pause</property>
  <property name="resource">content/animated_paintings/reflections_timelapse_3.mp4</property>
  <property name="audio_index">-1</property>
  <property name="video_index">0</property>
  <property name="mute_on_pause">0</property>
  <property name="mlt_service">avformat-novalidate</property>
  <property name="meta.media.nb_streams">1</property>
  <property name="meta.media.0.stream.type">video</property>
  <property name="meta.media.0.stream.frame_rate">15</property>
  <property name="meta.media.0.stream.sample_aspect_ratio">0</property>
  <property name="meta.media.0.codec.width">250</property>
  <property name="meta.media.0.codec.height">250</property>
  <property name="meta.media.0.codec.rotate">0</property>
  <property name="meta.media.0.codec.frame_rate">15</property>
  <property name="meta.media.0.codec.pix_fmt">yuv420p</property>
  <property name="meta.media.0.codec.sample_aspect_ratio">1</property>
  <property name="meta.media.0.codec.colorspace">601</property>
  <property name="meta.media.0.codec.name">mpeg4</property>
  <property name="meta.media.0.codec.long_name">MPEG-4 part 2</property>
  <property name="meta.media.0.codec.bit_rate">366684</property>
  <property name="meta.attr.0.stream.handler_name.markup">VideoHandler</property>
  <property name="meta.attr.major_brand.markup">isom</property>
  <property name="meta.attr.minor_version.markup">512</property>
  <property name="meta.attr.compatible_brands.markup">isomiso2mp41</property>
  <property name="meta.attr.encoder.markup">Lavf58.61.100</property>
  <property name="seekable">1</property>
  <property name="meta.media.sample_aspect_num">1</property>
  <property name="meta.media.sample_aspect_den">1</property>
  <property name="aspect_ratio">1</property>
  <property name="kdenlive:clipname"/>
  <property name="kdenlive:folderid">81</property>
  <property name="meta.media.frame_rate_num">15</property>
  <property name="meta.media.frame_rate_den">1</property>
  <property name="meta.media.colorspace">601</property>
  <property name="meta.media.color_trc">2</property>
  <property name="meta.media.width">250</property>
  <property name="meta.media.height">250</property>
  <property name="meta.media.color_range">mpeg</property>
  <property name="kdenlive:id">128</property>
  <property name="kdenlive:file_size">123282</property>
  <property name="kdenlive:file_hash">fbf357ded51223aa078952ce3aec0ccc</property>
  <property name="meta.media.top_field_first">0</property>
  <property name="meta.media.progressive">1</property>
  <property name="global_feed">1</property>
 </producer>
 <producer id="producer96" in="00:00:00.000" out="00:00:02.633">
  <property name="length">80</property>
  <property name="eof">pause</property>
  <property name="resource">content/animated_paintings/river_church_timelapse_3.mp4</property>
  <property name="audio_index">-1</property>
  <property name="video_index">0</property>
  <property name="mute_on_pause">0</property>
  <property name="mlt_service">avformat-novalidate</property>
  <property name="meta.media.nb_streams">1</property>
  <property name="meta.media.0.stream.type">video</property>
  <property name="meta.media.0.stream.frame_rate">15</property>
  <property name="meta.media.0.stream.sample_aspect_ratio">0</property>
  <property name="meta.media.0.codec.width">250</property>
  <property name="meta.media.0.codec.height">250</property>
  <property name="meta.media.0.codec.rotate">0</property>
  <property name="meta.media.0.codec.frame_rate">15</property>
  <property name="meta.media.0.codec.pix_fmt">yuv420p</property>
  <property name="meta.media.0.codec.sample_aspect_ratio">1</property>
  <property name="meta.media.0.codec.colorspace">601</property>
  <property name="meta.media.0.codec.name">mpeg4</property>
  <property name="meta.media.0.codec.long_name">MPEG-4 part 2</property>
  <property name="meta.media.0.codec.bit_rate">270921</property>
  <property name="meta.attr.0.stream.handler_name.markup">VideoHandler</property>
  <property name="meta.attr.major_brand.markup">isom</property>
  <property name="meta.attr.minor_version.markup">512</property>
  <property name="meta.attr.compatible_brands.markup">isomiso2mp41</property>
  <property name="meta.attr.encoder.markup">Lavf58.61.100</property>
  <property name="seekable">1</property>
  <property name="meta.media.sample_aspect_num">1</property>
  <property name="meta.media.sample_aspect_den">1</property>
  <property name="aspect_ratio">1</property>
  <property name="kdenlive:clipname"/>
  <property name="kdenlive:folderid">81</property>
  <property name="meta.media.frame_rate_num">15</property>
  <property name="meta.media.frame_rate_den">1</property>
  <property name="meta.media.colorspace">601</property>
  <property name="meta.media.color_trc">2</property>
  <property name="meta.media.width">250</property>
  <property name="meta.media.height">250</property>
  <property name="meta.media.color_range">mpeg</property>
  <property name="kdenlive:id">129</property>
  <property name="kdenlive:file_size">91361</property>
  <property name="kdenlive:file_hash">43a0d35bf2ebf2e6ae6a3c6750b029af</property>
 </producer>
 <producer id="producer97" in="00:00:00.000" out="00:00:02.633">
  <property name="length">80</property>
  <property name="eof">pause</property>
  <property name="resource">content/animated_paintings/rocky_hill_timelapse_4.mp4</property>
  <property name="audio_index">-1</property>
  <property name="video_index">0</property>
  <property name="mute_on_pause">0</property>
  <property name="mlt_service">avformat-novalidate</property>
  <property name="meta.media.nb_streams">1</property>
  <property name="meta.media.0.stream.type">video</property>
  <property name="meta.media.0.stream.frame_rate">15</property>
  <property name="meta.media.0.stream.sample_aspect_ratio">0</property>
  <property name="meta.media.0.codec.width">250</property>
  <property name="meta.media.0.codec.height">250</property>
  <property name="meta.media.0.codec.rotate">0</property>
  <property name="meta.media.0.codec.frame_rate">15</property>
  <property name="meta.media.0.codec.pix_fmt">yuv420p</property>
  <property name="meta.media.0.codec.sample_aspect_ratio">1</property>
  <property name="meta.media.0.codec.colorspace">601</property>
  <property name="meta.media.0.codec.name">mpeg4</property>
  <property name="meta.media.0.codec.long_name">MPEG-4 part 2</property>
  <property name="meta.media.0.codec.bit_rate">298623</property>
  <property name="meta.attr.0.stream.handler_name.markup">VideoHandler</property>
  <property name="meta.attr.major_brand.markup">isom</property>
  <property name="meta.attr.minor_version.markup">512</property>
  <property name="meta.attr.compatible_brands.markup">isomiso2mp41</property>
  <property name="meta.attr.encoder.markup">Lavf58.61.100</property>
  <property name="seekable">1</property>
  <property name="meta.media.sample_aspect_num">1</property>
  <property name="meta.media.sample_aspect_den">1</property>
  <property name="aspect_ratio">1</property>
  <property name="kdenlive:clipname"/>
  <property name="kdenlive:folderid">81</property>
  <property name="meta.media.frame_rate_num">15</property>
  <property name="meta.media.frame_rate_den">1</property>
  <property name="meta.media.colorspace">601</property>
  <property name="meta.media.color_trc">2</property>
  <property name="meta.media.width">250</property>
  <property name="meta.media.height">250</property>
  <property name="meta.media.color_range">mpeg</property>
  <property name="kdenlive:id">130</property>
  <property name="kdenlive:file_size">100595</property>
  <property name="kdenlive:file_hash">32dfb3b98a8dcaa4d2c279fdb7406fed</property>
 </producer>
 <producer id="producer98" in="00:00:00.000" out="00:00:02.633">
  <property name="length">80</property>
  <property name="eof">pause</property>
  <property name="resource">content/animated_paintings/rowboats_timelapse_0.mp4</property>
  <property name="audio_index">-1</property>
  <property name="video_index">0</property>
  <property name="mute_on_pause">0</property>
  <property name="mlt_service">avformat-novalidate</property>
  <property name="meta.media.nb_streams">1</property>
  <property name="meta.media.0.stream.type">video</property>
  <property name="meta.media.0.stream.frame_rate">15</property>
  <property name="meta.media.0.stream.sample_aspect_ratio">0</property>
  <property name="meta.media.0.codec.width">250</property>
  <property name="meta.media.0.codec.height">250</property>
  <property name="meta.media.0.codec.rotate">0</property>
  <property name="meta.media.0.codec.frame_rate">15</property>
  <property name="meta.media.0.codec.pix_fmt">yuv420p</property>
  <property name="meta.media.0.codec.sample_aspect_ratio">1</property>
  <property name="meta.media.0.codec.colorspace">601</property>
  <property name="meta.media.0.codec.name">mpeg4</property>
  <property name="meta.media.0.codec.long_name">MPEG-4 part 2</property>
  <property name="meta.media.0.codec.bit_rate">313545</property>
  <property name="meta.attr.0.stream.handler_name.markup">VideoHandler</property>
  <property name="meta.attr.major_brand.markup">isom</property>
  <property name="meta.attr.minor_version.markup">512</property>
  <property name="meta.attr.compatible_brands.markup">isomiso2mp41</property>
  <property name="meta.attr.encoder.markup">Lavf58.61.100</property>
  <property name="seekable">1</property>
  <property name="meta.media.sample_aspect_num">1</property>
  <property name="meta.media.sample_aspect_den">1</property>
  <property name="aspect_ratio">1</property>
  <property name="kdenlive:clipname"/>
  <property name="kdenlive:folderid">81</property>
  <property name="meta.media.frame_rate_num">15</property>
  <property name="meta.media.frame_rate_den">1</property>
  <property name="meta.media.colorspace">601</property>
  <property name="meta.media.color_trc">2</property>
  <property name="meta.media.width">250</property>
  <property name="meta.media.height">250</property>
  <property name="meta.media.color_range">mpeg</property>
  <property name="kdenlive:id">131</property>
  <property name="kdenlive:file_size">105569</property>
  <property name="kdenlive:file_hash">252fbdf4cdc6f0a13e7344e20aa8fd38</property>
 </producer>
 <producer id="producer99" in="00:00:00.000" out="00:00:02.633">
  <property name="length">80</property>
  <property name="eof">pause</property>
  <property name="resource">content/animated_paintings/seaman_timelapse_0.mp4</property>
  <property name="audio_index">-1</property>
  <property name="video_index">0</property>
  <property name="mute_on_pause">0</property>
  <property name="mlt_service">avformat-novalidate</property>
  <property name="meta.media.nb_streams">1</property>
  <property name="meta.media.0.stream.type">video</property>
  <property name="meta.media.0.stream.frame_rate">15</property>
  <property name="meta.media.0.stream.sample_aspect_ratio">0</property>
  <property name="meta.media.0.codec.width">250</property>
  <property name="meta.media.0.codec.height">250</property>
  <property name="meta.media.0.codec.rotate">0</property>
  <property name="meta.media.0.codec.frame_rate">15</property>
  <property name="meta.media.0.codec.pix_fmt">yuv420p</property>
  <property name="meta.media.0.codec.sample_aspect_ratio">1</property>
  <property name="meta.media.0.codec.colorspace">601</property>
  <property name="meta.media.0.codec.name">mpeg4</property>
  <property name="meta.media.0.codec.long_name">MPEG-4 part 2</property>
  <property name="meta.media.0.codec.bit_rate">298074</property>
  <property name="meta.attr.0.stream.handler_name.markup">VideoHandler</property>
  <property name="meta.attr.major_brand.markup">isom</property>
  <property name="meta.attr.minor_version.markup">512</property>
  <property name="meta.attr.compatible_brands.markup">isomiso2mp41</property>
  <property name="meta.attr.encoder.markup">Lavf58.61.100</property>
  <property name="seekable">1</property>
  <property name="meta.media.sample_aspect_num">1</property>
  <property name="meta.media.sample_aspect_den">1</property>
  <property name="aspect_ratio">1</property>
  <property name="kdenlive:clipname"/>
  <property name="kdenlive:folderid">81</property>
  <property name="meta.media.frame_rate_num">15</property>
  <property name="meta.media.frame_rate_den">1</property>
  <property name="meta.media.colorspace">601</property>
  <property name="meta.media.color_trc">2</property>
  <property name="meta.media.width">250</property>
  <property name="meta.media.height">250</property>
  <property name="meta.media.color_range">mpeg</property>
  <property name="kdenlive:id">132</property>
  <property name="kdenlive:file_size">100412</property>
  <property name="kdenlive:file_hash">0a72318036602e2a88c73b1fa836f848</property>
 </producer>
 <producer id="producer100" in="00:00:00.000" out="00:00:02.633">
  <property name="length">80</property>
  <property name="eof">pause</property>
  <property name="resource">content/animated_paintings/snowy_fallen_tree_timelapse_0.mp4</property>
  <property name="audio_index">-1</property>
  <property name="video_index">0</property>
  <property name="mute_on_pause">0</property>
  <property name="mlt_service">avformat-novalidate</property>
  <property name="meta.media.nb_streams">1</property>
  <property name="meta.media.0.stream.type">video</property>
  <property name="meta.media.0.stream.frame_rate">15</property>
  <property name="meta.media.0.stream.sample_aspect_ratio">0</property>
  <property name="meta.media.0.codec.width">250</property>
  <property name="meta.media.0.codec.height">250</property>
  <property name="meta.media.0.codec.rotate">0</property>
  <property name="meta.media.0.codec.frame_rate">15</property>
  <property name="meta.media.0.codec.pix_fmt">yuv420p</property>
  <property name="meta.media.0.codec.sample_aspect_ratio">1</property>
  <property name="meta.media.0.codec.colorspace">601</property>
  <property name="meta.media.0.codec.name">mpeg4</property>
  <property name="meta.media.0.codec.long_name">MPEG-4 part 2</property>
  <property name="meta.media.0.codec.bit_rate">307518</property>
  <property name="meta.attr.0.stream.handler_name.markup">VideoHandler</property>
  <property name="meta.attr.major_brand.markup">isom</property>
  <property name="meta.attr.minor_version.markup">512</property>
  <property name="meta.attr.compatible_brands.markup">isomiso2mp41</property>
  <property name="meta.attr.encoder.markup">Lavf58.61.100</property>
  <property name="seekable">1</property>
  <property name="meta.media.sample_aspect_num">1</property>
  <property name="meta.media.sample_aspect_den">1</property>
  <property name="aspect_ratio">1</property>
  <property name="kdenlive:clipname"/>
  <property name="kdenlive:folderid">81</property>
  <property name="meta.media.frame_rate_num">15</property>
  <property name="meta.media.frame_rate_den">1</property>
  <property name="meta.media.colorspace">601</property>
  <property name="meta.media.color_trc">2</property>
  <property name="meta.media.width">250</property>
  <property name="meta.media.height">250</property>
  <property name="meta.media.color_range">mpeg</property>
  <property name="kdenlive:id">133</property>
  <property name="kdenlive:file_size">103560</property>
  <property name="kdenlive:file_hash">f900d8e0c0202932063005ca5d5ce804</property>
  <property name="meta.media.top_field_first">0</property>
  <property name="meta.media.progressive">1</property>
  <property name="global_feed">1</property>
 </producer>
 <producer id="producer101" in="00:00:00.000" out="00:00:02.633">
  <property name="length">80</property>
  <property name="eof">pause</property>
  <property name="resource">content/animated_paintings/snowy_fallen_tree_timelapse_00001.mov</property>
  <property name="audio_index">-1</property>
  <property name="video_index">0</property>
  <property name="mute_on_pause">0</property>
  <property name="mlt_service">avformat-novalidate</property>
  <property name="meta.media.nb_streams">1</property>
  <property name="meta.media.0.stream.type">video</property>
  <property name="meta.media.0.stream.frame_rate">15</property>
  <property name="meta.media.0.stream.sample_aspect_ratio">1</property>
  <property name="meta.media.0.codec.width">250</property>
  <property name="meta.media.0.codec.height">250</property>
  <property name="meta.media.0.codec.rotate">0</property>
  <property name="meta.media.0.codec.frame_rate">15360</property>
  <property name="meta.media.0.codec.pix_fmt">yuv422p10le</property>
  <property name="meta.media.0.codec.sample_aspect_ratio">0</property>
  <property name="meta.media.0.codec.colorspace">601</property>
  <property name="meta.media.0.codec.name">prores</property>
  <property name="meta.media.0.codec.long_name">ProRes (iCodec Pro)</property>
  <property name="meta.media.0.codec.bit_rate">2375991</property>
  <property name="meta.attr.0.stream.handler_name.markup">VideoHandler</property>
  <property name="meta.attr.0.stream.encoder.markup">Lavc58.134.100 prores_ks</property>
  <property name="meta.attr.major_brand.markup">qt  </property>
  <property name="meta.attr.minor_version.markup">512</property>
  <property name="meta.attr.compatible_brands.markup">qt  </property>
  <property name="meta.attr.encoder.markup">Lavf58.76.100</property>
  <property name="seekable">1</property>
  <property name="meta.media.sample_aspect_num">1</property>
  <property name="meta.media.sample_aspect_den">1</property>
  <property name="aspect_ratio">1</property>
  <property name="kdenlive:clipname"/>
  <property name="kdenlive:folderid">81</property>
  <property name="meta.media.frame_rate_num">15</property>
  <property name="meta.media.frame_rate_den">1</property>
  <property name="meta.media.colorspace">601</property>
  <property name="meta.media.color_trc">2</property>
  <property name="meta.media.width">250</property>
  <property name="meta.media.height">250</property>
  <property name="meta.media.color_range">mpeg</property>
  <property name="kdenlive:id">134</property>
  <property name="kdenlive:file_size">792899</property>
  <property name="kdenlive:file_hash">58ff14716de279c3d0efdb84c7c077db</property>
 </producer>
 <producer id="producer102" in="00:00:00.000" out="00:00:02.633">
  <property name="length">80</property>
  <property name="eof">pause</property>
  <property name="resource">content/animated_paintings/stream_timelapse_0.mp4</property>
  <property name="audio_index">-1</property>
  <property name="video_index">0</property>
  <property name="mute_on_pause">0</property>
  <property name="mlt_service">avformat-novalidate</property>
  <property name="meta.media.nb_streams">1</property>
  <property name="meta.media.0.stream.type">video</property>
  <property name="meta.media.0.stream.frame_rate">15</property>
  <property name="meta.media.0.stream.sample_aspect_ratio">0</property>
  <property name="meta.media.0.codec.width">250</property>
  <property name="meta.media.0.codec.height">250</property>
  <property name="meta.media.0.codec.rotate">0</property>
  <property name="meta.media.0.codec.frame_rate">15</property>
  <property name="meta.media.0.codec.pix_fmt">yuv420p</property>
  <property name="meta.media.0.codec.sample_aspect_ratio">1</property>
  <property name="meta.media.0.codec.colorspace">601</property>
  <property name="meta.media.0.codec.name">mpeg4</property>
  <property name="meta.media.0.codec.long_name">MPEG-4 part 2</property>
  <property name="meta.media.0.codec.bit_rate">272706</property>
  <property name="meta.attr.0.stream.handler_name.markup">VideoHandler</property>
  <property name="meta.attr.major_brand.markup">isom</property>
  <property name="meta.attr.minor_version.markup">512</property>
  <property name="meta.attr.compatible_brands.markup">isomiso2mp41</property>
  <property name="meta.attr.encoder.markup">Lavf58.61.100</property>
  <property name="seekable">1</property>
  <property name="meta.media.sample_aspect_num">1</property>
  <property name="meta.media.sample_aspect_den">1</property>
  <property name="aspect_ratio">1</property>
  <property name="kdenlive:clipname"/>
  <property name="kdenlive:folderid">81</property>
  <property name="meta.media.frame_rate_num">15</property>
  <property name="meta.media.frame_rate_den">1</property>
  <property name="meta.media.colorspace">601</property>
  <property name="meta.media.color_trc">2</property>
  <property name="meta.media.width">250</property>
  <property name="meta.media.height">250</property>
  <property name="meta.media.color_range">mpeg</property>
  <property name="kdenlive:id">135</property>
  <property name="kdenlive:file_size">91956</property>
  <property name="kdenlive:file_hash">3a7df0db35d05ca65e45da2c255813e5</property>
 </producer>
 <producer id="producer103" in="00:00:00.000" out="00:00:02.633">
  <property name="length">80</property>
  <property name="eof">pause</property>
  <property name="resource">content/animated_paintings/summer_trees_timelapse_0.mp4</property>
  <property name="audio_index">-1</property>
  <property name="video_index">0</property>
  <property name="mute_on_pause">0</property>
  <property name="mlt_service">avformat-novalidate</property>
  <property name="meta.media.nb_streams">1</property>
  <property name="meta.media.0.stream.type">video</property>
  <property name="meta.media.0.stream.frame_rate">15</property>
  <property name="meta.media.0.stream.sample_aspect_ratio">0</property>
  <property name="meta.media.0.codec.width">250</property>
  <property name="meta.media.0.codec.height">250</property>
  <property name="meta.media.0.codec.rotate">0</property>
  <property name="meta.media.0.codec.frame_rate">15</property>
  <property name="meta.media.0.codec.pix_fmt">yuv420p</property>
  <property name="meta.media.0.codec.sample_aspect_ratio">1</property>
  <property name="meta.media.0.codec.colorspace">601</property>
  <property name="meta.media.0.codec.name">mpeg4</property>
  <property name="meta.media.0.codec.long_name">MPEG-4 part 2</property>
  <property name="meta.media.0.codec.bit_rate">228855</property>
  <property name="meta.attr.0.stream.handler_name.markup">VideoHandler</property>
  <property name="meta.attr.major_brand.markup">isom</property>
  <property name="meta.attr.minor_version.markup">512</property>
  <property name="meta.attr.compatible_brands.markup">isomiso2mp41</property>
  <property name="meta.attr.encoder.markup">Lavf58.61.100</property>
  <property name="seekable">1</property>
  <property name="meta.media.sample_aspect_num">1</property>
  <property name="meta.media.sample_aspect_den">1</property>
  <property name="aspect_ratio">1</property>
  <property name="kdenlive:clipname"/>
  <property name="kdenlive:folderid">81</property>
  <property name="meta.media.frame_rate_num">15</property>
  <property name="meta.media.frame_rate_den">1</property>
  <property name="meta.media.colorspace">601</property>
  <property name="meta.media.color_trc">2</property>
  <property name="meta.media.width">250</property>
  <property name="meta.media.height">250</property>
  <property name="meta.media.color_range">mpeg</property>
  <property name="kdenlive:id">136</property>
  <property name="kdenlive:file_size">77339</property>
  <property name="kdenlive:file_hash">52d6d49cf7c183cfada68db1211a16cb</property>
  <property name="meta.media.top_field_first">0</property>
  <property name="meta.media.progressive">1</property>
  <property name="global_feed">1</property>
 </producer>
 <producer id="producer104" in="00:00:00.000" out="00:00:02.633">
  <property name="length">80</property>
  <property name="eof">pause</property>
  <property name="resource">content/animated_paintings/winter_homestead_timelapse_0.mp4</property>
  <property name="audio_index">-1</property>
  <property name="video_index">0</property>
  <property name="mute_on_pause">0</property>
  <property name="mlt_service">avformat-novalidate</property>
  <property name="meta.media.nb_streams">1</property>
  <property name="meta.media.0.stream.type">video</property>
  <property name="meta.media.0.stream.frame_rate">15</property>
  <property name="meta.media.0.stream.sample_aspect_ratio">0</property>
  <property name="meta.media.0.codec.width">250</property>
  <property name="meta.media.0.codec.height">250</property>
  <property name="meta.media.0.codec.rotate">0</property>
  <property name="meta.media.0.codec.frame_rate">15</property>
  <property name="meta.media.0.codec.pix_fmt">yuv420p</property>
  <property name="meta.media.0.codec.sample_aspect_ratio">1</property>
  <property name="meta.media.0.codec.colorspace">601</property>
  <property name="meta.media.0.codec.name">mpeg4</property>
  <property name="meta.media.0.codec.long_name">MPEG-4 part 2</property>
  <property name="meta.media.0.codec.bit_rate">285693</property>
  <property name="meta.attr.0.stream.handler_name.markup">VideoHandler</property>
  <property name="meta.attr.major_brand.markup">isom</property>
  <property name="meta.attr.minor_version.markup">512</property>
  <property name="meta.attr.compatible_brands.markup">isomiso2mp41</property>
  <property name="meta.attr.encoder.markup">Lavf58.61.100</property>
  <property name="seekable">1</property>
  <property name="meta.media.sample_aspect_num">1</property>
  <property name="meta.media.sample_aspect_den">1</property>
  <property name="aspect_ratio">1</property>
  <property name="kdenlive:clipname"/>
  <property name="kdenlive:folderid">81</property>
  <property name="meta.media.frame_rate_num">15</property>
  <property name="meta.media.frame_rate_den">1</property>
  <property name="meta.media.colorspace">601</property>
  <property name="meta.media.color_trc">2</property>
  <property name="meta.media.width">250</property>
  <property name="meta.media.height">250</property>
  <property name="meta.media.color_range">mpeg</property>
  <property name="kdenlive:id">137</property>
  <property name="kdenlive:file_size">96285</property>
  <property name="kdenlive:file_hash">b92634bb7ba7168677cc1fff6d10659d</property>
  <property name="meta.media.top_field_first">0</property>
  <property name="meta.media.progressive">1</property>
  <property name="global_feed">1</property>
 </producer>
 <producer id="producer105" in="00:00:00.000" out="00:00:13.600">
  <property name="length">409</property>
  <property name="eof">pause</property>
  <property name="resource">content/animated_paintings/summer_trees_kaleidoscope.mp4</property>
  <property name="audio_index">-1</property>
  <property name="video_index">0</property>
  <property name="mute_on_pause">0</property>
  <property name="mlt_service">avformat-novalidate</property>
  <property name="meta.media.nb_streams">1</property>
  <property name="meta.media.0.stream.type">video</property>
  <property name="meta.media.0.stream.frame_rate">25</property>
  <property name="meta.media.0.stream.sample_aspect_ratio">0</property>
  <property name="meta.media.0.codec.width">1938</property>
  <property name="meta.media.0.codec.height">1360</property>
  <property name="meta.media.0.codec.rotate">0</property>
  <property name="meta.media.0.codec.frame_rate">25</property>
  <property name="meta.media.0.codec.pix_fmt">yuv444p</property>
  <property name="meta.media.0.codec.sample_aspect_ratio">0</property>
  <property name="meta.media.0.codec.colorspace">709</property>
  <property name="meta.media.0.codec.name">h264</property>
  <property name="meta.media.0.codec.long_name">H.264 / AVC / MPEG-4 AVC / MPEG-4 part 10</property>
  <property name="meta.media.0.codec.bit_rate">4720565</property>
  <property name="meta.attr.0.stream.handler_name.markup">VideoHandler</property>
  <property name="meta.attr.major_brand.markup">isom</property>
  <property name="meta.attr.minor_version.markup">512</property>
  <property name="meta.attr.compatible_brands.markup">isomiso2avc1mp41</property>
  <property name="meta.attr.encoder.markup">Lavf58.45.100</property>
  <property name="seekable">1</property>
  <property name="meta.media.sample_aspect_num">1</property>
  <property name="meta.media.sample_aspect_den">1</property>
  <property name="aspect_ratio">1</property>
  <property name="kdenlive:clipname"/>
  <property name="kdenlive:folderid">81</property>
  <property name="meta.media.frame_rate_num">25</property>
  <property name="meta.media.frame_rate_den">1</property>
  <property name="meta.media.colorspace">709</property>
  <property name="meta.media.color_trc">2</property>
  <property name="meta.media.width">1938</property>
  <property name="meta.media.height">1360</property>
  <property name="meta.media.color_range">mpeg</property>
  <property name="kdenlive:id">138</property>
  <property name="kdenlive:file_size">8052308</property>
  <property name="kdenlive:file_hash">46a915b3a782e2d8b48af85caa64e97f</property>
  <property name="kdenlive:proxy">/home/ryankelln/.cache/kdenlive/proxy/46a915b3a782e2d8b48af85caa64e97f.mkv</property>
  <property name="kdenlive:originalurl">content/animated_paintings/summer_trees_kaleidoscope.mp4</property>
  <property name="kdenlive:original.mlt_type">producer</property>
  <property name="kdenlive:original.in">0</property>
  <property name="kdenlive:original.out">408</property>
  <property name="kdenlive:original.length">409</property>
  <property name="kdenlive:original.eof">pause</property>
  <property name="kdenlive:original.resource">content/animated_paintings/summer_trees_kaleidoscope.mp4</property>
  <property name="kdenlive:original.meta.media.nb_streams">1</property>
  <property name="kdenlive:original.meta.media.0.stream.type">video</property>
  <property name="kdenlive:original.meta.media.0.stream.frame_rate">25</property>
  <property name="kdenlive:original.meta.media.0.stream.sample_aspect_ratio">0</property>
  <property name="kdenlive:original.meta.media.0.codec.width">1938</property>
  <property name="kdenlive:original.meta.media.0.codec.height">1360</property>
  <property name="kdenlive:original.meta.media.0.codec.rotate">0</property>
  <property name="kdenlive:original.meta.media.0.codec.frame_rate">25</property>
  <property name="kdenlive:original.meta.media.0.codec.pix_fmt">yuv444p</property>
  <property name="kdenlive:original.meta.media.0.codec.sample_aspect_ratio">0</property>
  <property name="kdenlive:original.meta.media.0.codec.colorspace">709</property>
  <property name="kdenlive:original.meta.media.0.codec.name">h264</property>
  <property name="kdenlive:original.meta.media.0.codec.long_name">H.264 / AVC / MPEG-4 AVC / MPEG-4 part 10</property>
  <property name="kdenlive:original.meta.media.0.codec.bit_rate">4720565</property>
  <property name="kdenlive:original.meta.attr.0.stream.handler_name.markup">VideoHandler</property>
  <property name="kdenlive:original.meta.attr.major_brand.markup">isom</property>
  <property name="kdenlive:original.meta.attr.minor_version.markup">512</property>
  <property name="kdenlive:original.meta.attr.compatible_brands.markup">isomiso2avc1mp41</property>
  <property name="kdenlive:original.meta.attr.encoder.markup">Lavf58.45.100</property>
  <property name="kdenlive:original.seekable">1</property>
  <property name="kdenlive:original.width">1938</property>
  <property name="kdenlive:original.height">1360</property>
  <property name="kdenlive:original.meta.media.sample_aspect_num">1</property>
  <property name="kdenlive:original.meta.media.sample_aspect_den">1</property>
  <property name="kdenlive:original.aspect_ratio">1</property>
  <property name="kdenlive:original.audio_index">-1</property>
  <property name="kdenlive:original.video_index">0</property>
  <property name="kdenlive:original.mute_on_pause">0</property>
  <property name="kdenlive:original.mlt_service">avformat-novalidate</property>
  <property name="kdenlive:original.kdenlive:folderid">81</property>
  <property name="kdenlive:original.meta.media.frame_rate_num">25</property>
  <property name="kdenlive:original.meta.media.frame_rate_den">1</property>
  <property name="kdenlive:original.meta.media.colorspace">709</property>
  <property name="kdenlive:original.meta.media.color_trc">2</property>
  <property name="kdenlive:original.meta.media.width">1938</property>
  <property name="kdenlive:original.meta.media.height">1360</property>
  <property name="kdenlive:original.meta.media.color_range">mpeg</property>
  <property name="kdenlive:original.kdenlive:id">160</property>
  <property name="kdenlive:original.kdenlive:file_size">8052308</property>
  <property name="kdenlive:original.kdenlive:file_hash">46a915b3a782e2d8b48af85caa64e97f</property>
  <property name="kdenlive:original.backup">1</property>
  <property name="meta.media.top_field_first">0</property>
  <property name="meta.media.progressive">1</property>
  <property name="global_feed">1</property>
 </producer>
 <producer id="producer107" in="00:00:00.000" out="00:00:16.267">
  <property name="length">489</property>
  <property name="eof">pause</property>
  <property name="resource">/home/ryankelln/.cache/kdenlive/proxy/d9f0035df5b9bf00b0cdd1f838099c4f.mkv</property>
  <property name="audio_index">-1</property>
  <property name="video_index">0</property>
  <property name="mute_on_pause">0</property>
  <property name="mlt_service">avformat-novalidate</property>
  <property name="seekable">1</property>
  <property name="aspect_ratio">1</property>
  <property name="kdenlive:clipname">fishing_boats_veda-1625253806823.mp4</property>
  <property name="kdenlive:folderid">81</property>
  <property name="kdenlive:id">139</property>
  <property name="kdenlive:file_size">9425379</property>
  <property name="kdenlive:file_hash">d9f0035df5b9bf00b0cdd1f838099c4f</property>
  <property name="kdenlive:proxy">/home/ryankelln/.cache/kdenlive/proxy/d9f0035df5b9bf00b0cdd1f838099c4f.mkv</property>
  <property name="kdenlive:originalurl">content/animated_paintings/fishing_boats_veda-1625253806823.mp4</property>
  <property name="kdenlive:original.mlt_type">producer</property>
  <property name="kdenlive:original.in">0</property>
  <property name="kdenlive:original.out">488</property>
  <property name="kdenlive:original.length">489</property>
  <property name="kdenlive:original.eof">pause</property>
  <property name="kdenlive:original.resource">content/animated_paintings/fishing_boats_veda-1625253806823.mp4</property>
  <property name="kdenlive:original.meta.media.nb_streams">1</property>
  <property name="kdenlive:original.meta.media.0.stream.type">video</property>
  <property name="kdenlive:original.meta.media.0.stream.frame_rate">30</property>
  <property name="kdenlive:original.meta.media.0.stream.sample_aspect_ratio">0</property>
  <property name="kdenlive:original.meta.media.0.codec.width">2494</property>
  <property name="kdenlive:original.meta.media.0.codec.height">1360</property>
  <property name="kdenlive:original.meta.media.0.codec.rotate">0</property>
  <property name="kdenlive:original.meta.media.0.codec.frame_rate">30</property>
  <property name="kdenlive:original.meta.media.0.codec.pix_fmt">yuv420p</property>
  <property name="kdenlive:original.meta.media.0.codec.sample_aspect_ratio">0</property>
  <property name="kdenlive:original.meta.media.0.codec.colorspace">709</property>
  <property name="kdenlive:original.meta.media.0.codec.name">h264</property>
  <property name="kdenlive:original.meta.media.0.codec.long_name">H.264 / AVC / MPEG-4 AVC / MPEG-4 part 10</property>
  <property name="kdenlive:original.meta.media.0.codec.bit_rate">4623057</property>
  <property name="kdenlive:original.meta.attr.0.stream.handler_name.markup">VideoHandler</property>
  <property name="kdenlive:original.meta.attr.major_brand.markup">isom</property>
  <property name="kdenlive:original.meta.attr.minor_version.markup">512</property>
  <property name="kdenlive:original.meta.attr.compatible_brands.markup">isomiso2avc1mp41</property>
  <property name="kdenlive:original.meta.attr.encoder.markup">Lavf58.76.100</property>
  <property name="kdenlive:original.seekable">1</property>
  <property name="kdenlive:original.width">2494</property>
  <property name="kdenlive:original.height">1360</property>
  <property name="kdenlive:original.meta.media.sample_aspect_num">1</property>
  <property name="kdenlive:original.meta.media.sample_aspect_den">1</property>
  <property name="kdenlive:original.aspect_ratio">1</property>
  <property name="kdenlive:original.audio_index">-1</property>
  <property name="kdenlive:original.video_index">0</property>
  <property name="kdenlive:original.mute_on_pause">0</property>
  <property name="kdenlive:original.mlt_service">avformat-novalidate</property>
  <property name="kdenlive:original.kdenlive:folderid">81</property>
  <property name="kdenlive:original.meta.media.frame_rate_num">30</property>
  <property name="kdenlive:original.meta.media.frame_rate_den">1</property>
  <property name="kdenlive:original.meta.media.colorspace">709</property>
  <property name="kdenlive:original.meta.media.color_trc">2</property>
  <property name="kdenlive:original.meta.media.width">2494</property>
  <property name="kdenlive:original.meta.media.height">1360</property>
  <property name="kdenlive:original.meta.media.color_range">mpeg</property>
  <property name="kdenlive:original.kdenlive:id">144</property>
  <property name="kdenlive:original.kdenlive:file_size">9425379</property>
  <property name="kdenlive:original.kdenlive:file_hash">d9f0035df5b9bf00b0cdd1f838099c4f</property>
  <property name="kdenlive:original.backup">1</property>
  <property name="global_feed">1</property>
  <property name="meta.media.nb_streams">1</property>
  <property name="meta.media.0.stream.type">video</property>
  <property name="meta.media.0.stream.frame_rate">30</property>
  <property name="meta.media.0.stream.sample_aspect_ratio">0</property>
  <property name="meta.media.0.codec.width">960</property>
  <property name="meta.media.0.codec.height">524</property>
  <property name="meta.media.0.codec.rotate">0</property>
  <property name="meta.media.0.codec.frame_rate">1000</property>
  <property name="meta.media.0.codec.pix_fmt">yuvj420p</property>
  <property name="meta.media.0.codec.sample_aspect_ratio">0</property>
  <property name="meta.media.0.codec.colorspace">601</property>
  <property name="meta.media.0.codec.name">mjpeg</property>
  <property name="meta.media.0.codec.long_name">MJPEG (Motion JPEG)</property>
  <property name="meta.media.0.codec.bit_rate">0</property>
  <property name="meta.attr.0.stream.HANDLER_NAME.markup">VideoHandler</property>
  <property name="meta.attr.0.stream.ENCODER.markup">Lavc58.91.100 mjpeg</property>
  <property name="meta.attr.0.stream.DURATION.markup">00:00:16.300000000</property>
  <property name="meta.attr.COMPATIBLE_BRANDS.markup">isomiso2avc1mp41</property>
  <property name="meta.attr.MAJOR_BRAND.markup">isom</property>
  <property name="meta.attr.MINOR_VERSION.markup">512</property>
  <property name="meta.attr.ENCODER.markup">Lavf58.45.100</property>
  <property name="meta.media.sample_aspect_num">1</property>
  <property name="meta.media.sample_aspect_den">1</property>
  <property name="meta.media.frame_rate_num">30</property>
  <property name="meta.media.frame_rate_den">1</property>
  <property name="meta.media.colorspace">601</property>
  <property name="meta.media.color_trc">2</property>
  <property name="meta.media.width">960</property>
  <property name="meta.media.height">524</property>
  <property name="meta.media.color_range">full</property>
  <property name="meta.media.top_field_first">0</property>
  <property name="meta.media.progressive">1</property>
 </producer>
 <producer id="producer56" in="00:00:00.000" out="00:00:07.533">
  <property name="length">00:00:07.567</property>
  <property name="eof">pause</property>
  <property name="resource">content/dedication.png</property>
  <property name="ttl">25</property>
  <property name="aspect_ratio">1</property>
  <property name="progressive">1</property>
  <property name="seekable">1</property>
  <property name="meta.media.width">1920</property>
  <property name="meta.media.height">1080</property>
  <property name="mlt_service">qimage</property>
  <property name="kdenlive:clipname"/>
  <property name="kdenlive:duration">00:00:05.000</property>
  <property name="kdenlive:folderid">-1</property>
  <property name="kdenlive:id">140</property>
  <property name="kdenlive:file_size">2705553</property>
  <property name="kdenlive:file_hash">aac3eaed6a5c9ec2d8b025249cad6041</property>
  <property name="global_feed">1</property>
 </producer>
 <producer id="producer93" in="00:00:00.000" out="00:01:41.933">
  <property name="length">3059</property>
  <property name="eof">pause</property>
  <property name="resource">0x2e1d14ff</property>
  <property name="aspect_ratio">1</property>
  <property name="mlt_service">color</property>
  <property name="kdenlive:clipname">Winter Homestead background</property>
  <property name="kdenlive:duration">00:00:05.000</property>
  <property name="kdenlive:folderid">-1</property>
  <property name="kdenlive:id">141</property>
  <property name="mlt_image_format">rgb24</property>
  <property name="kdenlive:file_hash">339d237d5652889d33355edb389fc300</property>
  <property name="global_feed">1</property>
 </producer>
 <producer id="producer108" in="00:00:00.000" out="00:00:05.967">
  <property name="length">180</property>
  <property name="eof">pause</property>
  <property name="resource">/home/ryankelln/.cache/kdenlive/proxy/79a87ccb5a7b59de371d3d43ee9aad01.mkv</property>
  <property name="audio_index">0</property>
  <property name="video_index">1</property>
  <property name="mute_on_pause">0</property>
  <property name="mlt_service">avformat-novalidate</property>
  <property name="seekable">1</property>
  <property name="aspect_ratio">1</property>
  <property name="kdenlive:clipname">16mm Scratched.mp4</property>
  <property name="kdenlive:folderid">-1</property>
  <property name="kdenlive:id">143</property>
  <property name="kdenlive:file_size">174720527</property>
  <property name="kdenlive:file_hash">79a87ccb5a7b59de371d3d43ee9aad01</property>
  <property name="kdenlive:proxy">/home/ryankelln/.cache/kdenlive/proxy/79a87ccb5a7b59de371d3d43ee9aad01.mkv</property>
  <property name="kdenlive:originalurl">content/16mm Scratched.mp4</property>
  <property name="kdenlive:original.mlt_type">producer</property>
  <property name="kdenlive:original.in">0</property>
  <property name="kdenlive:original.out">179</property>
  <property name="kdenlive:original.length">180</property>
  <property name="kdenlive:original.eof">pause</property>
  <property name="kdenlive:original.resource">content/16mm Scratched.mp4</property>
  <property name="kdenlive:original.meta.media.nb_streams">2</property>
  <property name="kdenlive:original.meta.media.0.stream.type">audio</property>
  <property name="kdenlive:original.meta.media.0.codec.sample_fmt">fltp</property>
  <property name="kdenlive:original.meta.media.0.codec.sample_rate">48000</property>
  <property name="kdenlive:original.meta.media.0.codec.channels">2</property>
  <property name="kdenlive:original.meta.media.0.codec.name">aac</property>
  <property name="kdenlive:original.meta.media.0.codec.long_name">AAC (Advanced Audio Coding)</property>
  <property name="kdenlive:original.meta.media.0.codec.bit_rate">317375</property>
  <property name="kdenlive:original.meta.attr.0.stream.creation_time.markup">2019-02-07T17:28:50.000000Z</property>
  <property name="kdenlive:original.meta.attr.0.stream.language.markup">eng</property>
  <property name="kdenlive:original.meta.attr.0.stream.handler_name.markup">#Mainconcept MP4 Sound Media Handler</property>
  <property name="kdenlive:original.meta.media.1.stream.type">video</property>
  <property name="kdenlive:original.meta.media.1.stream.frame_rate">24</property>
  <property name="kdenlive:original.meta.media.1.stream.sample_aspect_ratio">0</property>
  <property name="kdenlive:original.meta.media.1.codec.width">3840</property>
  <property name="kdenlive:original.meta.media.1.codec.height">2160</property>
  <property name="kdenlive:original.meta.media.1.codec.rotate">0</property>
  <property name="kdenlive:original.meta.media.1.codec.frame_rate">24</property>
  <property name="kdenlive:original.meta.media.1.codec.pix_fmt">yuv420p</property>
  <property name="kdenlive:original.meta.media.1.codec.sample_aspect_ratio">0</property>
  <property name="kdenlive:original.meta.media.1.codec.colorspace">709</property>
  <property name="kdenlive:original.meta.media.1.codec.color_trc">1</property>
  <property name="kdenlive:original.meta.media.1.codec.name">h264</property>
  <property name="kdenlive:original.meta.media.1.codec.long_name">H.264 / AVC / MPEG-4 AVC / MPEG-4 part 10</property>
  <property name="kdenlive:original.meta.media.1.codec.bit_rate">232561614</property>
  <property name="kdenlive:original.meta.attr.1.stream.creation_time.markup">2019-02-07T17:28:50.000000Z</property>
  <property name="kdenlive:original.meta.attr.1.stream.language.markup">eng</property>
  <property name="kdenlive:original.meta.attr.1.stream.handler_name.markup">Mainconcept Video Media Handler</property>
  <property name="kdenlive:original.meta.attr.1.stream.encoder.markup">AVC Coding</property>
  <property name="kdenlive:original.meta.attr.major_brand.markup">mp42</property>
  <property name="kdenlive:original.meta.attr.minor_version.markup">0</property>
  <property name="kdenlive:original.meta.attr.compatible_brands.markup">mp42mp41</property>
  <property name="kdenlive:original.meta.attr.creation_time.markup">2019-02-07T17:28:49.000000Z</property>
  <property name="kdenlive:original.seekable">1</property>
  <property name="kdenlive:original.width">3840</property>
  <property name="kdenlive:original.height">2160</property>
  <property name="kdenlive:original.meta.media.sample_aspect_num">1</property>
  <property name="kdenlive:original.meta.media.sample_aspect_den">1</property>
  <property name="kdenlive:original.aspect_ratio">1</property>
  <property name="kdenlive:original.audio_index">0</property>
  <property name="kdenlive:original.video_index">1</property>
  <property name="kdenlive:original.mute_on_pause">0</property>
  <property name="kdenlive:original.mlt_service">avformat-novalidate</property>
  <property name="kdenlive:original.kdenlive:folderid">-1</property>
  <property name="kdenlive:original.meta.media.frame_rate_num">24</property>
  <property name="kdenlive:original.meta.media.frame_rate_den">1</property>
  <property name="kdenlive:original.meta.media.colorspace">709</property>
  <property name="kdenlive:original.meta.media.color_trc">1</property>
  <property name="kdenlive:original.meta.media.width">3840</property>
  <property name="kdenlive:original.meta.media.height">2160</property>
  <property name="kdenlive:original.meta.media.color_range">mpeg</property>
  <property name="kdenlive:original.kdenlive:id">146</property>
  <property name="kdenlive:original.kdenlive:file_size">174720527</property>
  <property name="kdenlive:original.kdenlive:file_hash">79a87ccb5a7b59de371d3d43ee9aad01</property>
  <property name="kdenlive:original.backup">1</property>
  <property name="global_feed">1</property>
  <property name="meta.media.nb_streams">2</property>
  <property name="meta.media.0.stream.type">audio</property>
  <property name="meta.media.0.codec.sample_fmt">s16</property>
  <property name="meta.media.0.codec.sample_rate">48000</property>
  <property name="meta.media.0.codec.channels">2</property>
  <property name="meta.media.0.codec.name">pcm_s16le</property>
  <property name="meta.media.0.codec.long_name">PCM signed 16-bit little-endian</property>
  <property name="meta.media.0.codec.bit_rate">1536000</property>
  <property name="meta.attr.0.stream.language.markup">eng</property>
  <property name="meta.attr.0.stream.HANDLER_NAME.markup">#Mainconcept MP4 Sound Media Handler</property>
  <property name="meta.attr.0.stream.ENCODER.markup">Lavc58.91.100 pcm_s16le</property>
  <property name="meta.attr.0.stream.DURATION.markup">00:00:05.994000000</property>
  <property name="meta.media.1.stream.type">video</property>
  <property name="meta.media.1.stream.frame_rate">24</property>
  <property name="meta.media.1.stream.sample_aspect_ratio">0</property>
  <property name="meta.media.1.codec.width">960</property>
  <property name="meta.media.1.codec.height">540</property>
  <property name="meta.media.1.codec.rotate">0</property>
  <property name="meta.media.1.codec.frame_rate">1000</property>
  <property name="meta.media.1.codec.pix_fmt">yuvj420p</property>
  <property name="meta.media.1.codec.sample_aspect_ratio">0</property>
  <property name="meta.media.1.codec.colorspace">601</property>
  <property name="meta.media.1.codec.name">mjpeg</property>
  <property name="meta.media.1.codec.long_name">MJPEG (Motion JPEG)</property>
  <property name="meta.media.1.codec.bit_rate">0</property>
  <property name="meta.attr.1.stream.language.markup">eng</property>
  <property name="meta.attr.1.stream.HANDLER_NAME.markup">Mainconcept Video Media Handler</property>
  <property name="meta.attr.1.stream.ENCODER.markup">Lavc58.91.100 mjpeg</property>
  <property name="meta.attr.1.stream.DURATION.markup">00:00:06.000000000</property>
  <property name="meta.attr.COMPATIBLE_BRANDS.markup">mp42mp41</property>
  <property name="meta.attr.MAJOR_BRAND.markup">mp42</property>
  <property name="meta.attr.MINOR_VERSION.markup">0</property>
  <property name="meta.attr.ENCODER.markup">Lavf58.45.100</property>
  <property name="meta.media.sample_aspect_num">1</property>
  <property name="meta.media.sample_aspect_den">1</property>
  <property name="meta.media.frame_rate_num">24</property>
  <property name="meta.media.frame_rate_den">1</property>
  <property name="meta.media.colorspace">601</property>
  <property name="meta.media.color_trc">2</property>
  <property name="meta.media.width">960</property>
  <property name="meta.media.height">540</property>
  <property name="meta.media.color_range">full</property>
  <property name="meta.media.top_field_first">0</property>
  <property name="meta.media.progressive">1</property>
  <property name="kdenlive:active_streams">-1</property>
 </producer>
 <producer id="producer109" in="00:00:00.000" out="00:00:05.967">
  <property name="length">00:00:06:00</property>
  <property name="eof">pause</property>
  <property name="resource">/home/ryankelln/.cache/kdenlive/proxy/b24d21a301caebef02ae5ae52cdcd669.mkv</property>
  <property name="audio_index">0</property>
  <property name="video_index">1</property>
  <property name="mute_on_pause">0</property>
  <property name="mlt_service">avformat-novalidate</property>
  <property name="seekable">1</property>
  <property name="aspect_ratio">1</property>
  <property name="kdenlive:clipname">35mm Fine.mp4</property>
  <property name="kdenlive:folderid">-1</property>
  <property name="kdenlive:id">144</property>
  <property name="kdenlive:file_size">181627061</property>
  <property name="kdenlive:file_hash">b24d21a301caebef02ae5ae52cdcd669</property>
  <property name="kdenlive:proxy">/home/ryankelln/.cache/kdenlive/proxy/b24d21a301caebef02ae5ae52cdcd669.mkv</property>
  <property name="kdenlive:originalurl">content/35mm Fine.mp4</property>
  <property name="kdenlive:original.mlt_type">producer</property>
  <property name="kdenlive:original.in">0</property>
  <property name="kdenlive:original.out">179</property>
  <property name="kdenlive:original.length">180</property>
  <property name="kdenlive:original.eof">pause</property>
  <property name="kdenlive:original.resource">content/35mm Fine.mp4</property>
  <property name="kdenlive:original.meta.media.nb_streams">2</property>
  <property name="kdenlive:original.meta.media.0.stream.type">audio</property>
  <property name="kdenlive:original.meta.media.0.codec.sample_fmt">fltp</property>
  <property name="kdenlive:original.meta.media.0.codec.sample_rate">48000</property>
  <property name="kdenlive:original.meta.media.0.codec.channels">2</property>
  <property name="kdenlive:original.meta.media.0.codec.name">aac</property>
  <property name="kdenlive:original.meta.media.0.codec.long_name">AAC (Advanced Audio Coding)</property>
  <property name="kdenlive:original.meta.media.0.codec.bit_rate">317375</property>
  <property name="kdenlive:original.meta.attr.0.stream.creation_time.markup">2019-02-07T17:28:33.000000Z</property>
  <property name="kdenlive:original.meta.attr.0.stream.language.markup">eng</property>
  <property name="kdenlive:original.meta.attr.0.stream.handler_name.markup">#Mainconcept MP4 Sound Media Handler</property>
  <property name="kdenlive:original.meta.media.1.stream.type">video</property>
  <property name="kdenlive:original.meta.media.1.stream.frame_rate">24</property>
  <property name="kdenlive:original.meta.media.1.stream.sample_aspect_ratio">0</property>
  <property name="kdenlive:original.meta.media.1.codec.width">3840</property>
  <property name="kdenlive:original.meta.media.1.codec.height">2160</property>
  <property name="kdenlive:original.meta.media.1.codec.rotate">0</property>
  <property name="kdenlive:original.meta.media.1.codec.frame_rate">24</property>
  <property name="kdenlive:original.meta.media.1.codec.pix_fmt">yuv420p</property>
  <property name="kdenlive:original.meta.media.1.codec.sample_aspect_ratio">0</property>
  <property name="kdenlive:original.meta.media.1.codec.colorspace">709</property>
  <property name="kdenlive:original.meta.media.1.codec.color_trc">1</property>
  <property name="kdenlive:original.meta.media.1.codec.name">h264</property>
  <property name="kdenlive:original.meta.media.1.codec.long_name">H.264 / AVC / MPEG-4 AVC / MPEG-4 part 10</property>
  <property name="kdenlive:original.meta.media.1.codec.bit_rate">241770326</property>
  <property name="kdenlive:original.meta.attr.1.stream.creation_time.markup">2019-02-07T17:28:34.000000Z</property>
  <property name="kdenlive:original.meta.attr.1.stream.language.markup">eng</property>
  <property name="kdenlive:original.meta.attr.1.stream.handler_name.markup">Mainconcept Video Media Handler</property>
  <property name="kdenlive:original.meta.attr.1.stream.encoder.markup">AVC Coding</property>
  <property name="kdenlive:original.meta.attr.major_brand.markup">mp42</property>
  <property name="kdenlive:original.meta.attr.minor_version.markup">0</property>
  <property name="kdenlive:original.meta.attr.compatible_brands.markup">mp42mp41</property>
  <property name="kdenlive:original.meta.attr.creation_time.markup">2019-02-07T17:28:32.000000Z</property>
  <property name="kdenlive:original.seekable">1</property>
  <property name="kdenlive:original.width">3840</property>
  <property name="kdenlive:original.height">2160</property>
  <property name="kdenlive:original.meta.media.sample_aspect_num">1</property>
  <property name="kdenlive:original.meta.media.sample_aspect_den">1</property>
  <property name="kdenlive:original.aspect_ratio">1</property>
  <property name="kdenlive:original.audio_index">0</property>
  <property name="kdenlive:original.video_index">1</property>
  <property name="kdenlive:original.mute_on_pause">0</property>
  <property name="kdenlive:original.mlt_service">avformat-novalidate</property>
  <property name="kdenlive:original.kdenlive:folderid">-1</property>
  <property name="kdenlive:original.meta.media.frame_rate_num">24</property>
  <property name="kdenlive:original.meta.media.frame_rate_den">1</property>
  <property name="kdenlive:original.meta.media.colorspace">709</property>
  <property name="kdenlive:original.meta.media.color_trc">1</property>
  <property name="kdenlive:original.meta.media.width">3840</property>
  <property name="kdenlive:original.meta.media.height">2160</property>
  <property name="kdenlive:original.meta.media.color_range">mpeg</property>
  <property name="kdenlive:original.kdenlive:id">147</property>
  <property name="kdenlive:original.kdenlive:file_size">181627061</property>
  <property name="kdenlive:original.kdenlive:file_hash">b24d21a301caebef02ae5ae52cdcd669</property>
  <property name="kdenlive:original.backup">1</property>
  <property name="kdenlive:audio_max">91</property>
  <property name="global_feed">1</property>
  <property name="kdenlive:active_streams">-1</property>
  <property name="meta.media.nb_streams">2</property>
  <property name="meta.media.0.stream.type">audio</property>
  <property name="meta.media.0.codec.sample_fmt">s16</property>
  <property name="meta.media.0.codec.sample_rate">48000</property>
  <property name="meta.media.0.codec.channels">2</property>
  <property name="meta.media.0.codec.name">pcm_s16le</property>
  <property name="meta.media.0.codec.long_name">PCM signed 16-bit little-endian</property>
  <property name="meta.media.0.codec.bit_rate">1536000</property>
  <property name="meta.attr.0.stream.language.markup">eng</property>
  <property name="meta.attr.0.stream.HANDLER_NAME.markup">#Mainconcept MP4 Sound Media Handler</property>
  <property name="meta.attr.0.stream.ENCODER.markup">Lavc58.91.100 pcm_s16le</property>
  <property name="meta.attr.0.stream.DURATION.markup">00:00:05.994000000</property>
  <property name="meta.media.1.stream.type">video</property>
  <property name="meta.media.1.stream.frame_rate">24</property>
  <property name="meta.media.1.stream.sample_aspect_ratio">0</property>
  <property name="meta.media.1.codec.width">960</property>
  <property name="meta.media.1.codec.height">540</property>
  <property name="meta.media.1.codec.rotate">0</property>
  <property name="meta.media.1.codec.frame_rate">1000</property>
  <property name="meta.media.1.codec.pix_fmt">yuvj420p</property>
  <property name="meta.media.1.codec.sample_aspect_ratio">0</property>
  <property name="meta.media.1.codec.colorspace">601</property>
  <property name="meta.media.1.codec.name">mjpeg</property>
  <property name="meta.media.1.codec.long_name">MJPEG (Motion JPEG)</property>
  <property name="meta.media.1.codec.bit_rate">0</property>
  <property name="meta.attr.1.stream.language.markup">eng</property>
  <property name="meta.attr.1.stream.HANDLER_NAME.markup">Mainconcept Video Media Handler</property>
  <property name="meta.attr.1.stream.ENCODER.markup">Lavc58.91.100 mjpeg</property>
  <property name="meta.attr.1.stream.DURATION.markup">00:00:06.000000000</property>
  <property name="meta.attr.COMPATIBLE_BRANDS.markup">mp42mp41</property>
  <property name="meta.attr.MAJOR_BRAND.markup">mp42</property>
  <property name="meta.attr.MINOR_VERSION.markup">0</property>
  <property name="meta.attr.ENCODER.markup">Lavf58.45.100</property>
  <property name="meta.media.sample_aspect_num">1</property>
  <property name="meta.media.sample_aspect_den">1</property>
  <property name="meta.media.frame_rate_num">24</property>
  <property name="meta.media.frame_rate_den">1</property>
  <property name="meta.media.colorspace">601</property>
  <property name="meta.media.color_trc">2</property>
  <property name="meta.media.width">960</property>
  <property name="meta.media.height">540</property>
  <property name="meta.media.color_range">full</property>
  <property name="meta.media.top_field_first">0</property>
  <property name="meta.media.progressive">1</property>
 </producer>
 <producer id="producer111" in="00:00:00.000" out="00:02:28.700">
  <property name="length">4462</property>
  <property name="eof">pause</property>
  <property name="resource">/home/ryankelln/Documents/Projects/Active/Sound_Escapes/Suzy/annie-spratt-xz485Eku8O4-unsplash_HD_zoom_out.jpg</property>
  <property name="ttl">25</property>
  <property name="aspect_ratio">1</property>
  <property name="progressive">1</property>
  <property name="seekable">1</property>
  <property name="meta.media.width">1920</property>
  <property name="meta.media.height">1440</property>
  <property name="mlt_service">qimage</property>
  <property name="kdenlive:clipname"/>
  <property name="kdenlive:duration">00:00:05.000</property>
  <property name="kdenlive:folderid">-1</property>
  <property name="kdenlive:id">146</property>
  <property name="kdenlive:file_size">781716</property>
  <property name="kdenlive:file_hash">b8e0fc4461272b4ca21941be476a0911</property>
 </producer>
 <producer id="producer106" in="00:00:00.000" out="00:00:06.633">
  <property name="length">200</property>
  <property name="eof">pause</property>
  <property name="resource">/home/ryankelln/.cache/kdenlive/proxy/8f8ee95b91e630ac632e2f28195011ee.mkv</property>
  <property name="audio_index">-1</property>
  <property name="video_index">0</property>
  <property name="mute_on_pause">0</property>
  <property name="mlt_service">avformat-novalidate</property>
  <property name="seekable">1</property>
  <property name="aspect_ratio">1</property>
  <property name="kdenlive:clipname">fall_fence.mp4</property>
  <property name="kdenlive:folderid">149</property>
  <property name="kdenlive:id">155</property>
  <property name="kdenlive:file_size">7207050</property>
  <property name="kdenlive:file_hash">8f8ee95b91e630ac632e2f28195011ee</property>
  <property name="kdenlive:proxy">/home/ryankelln/.cache/kdenlive/proxy/8f8ee95b91e630ac632e2f28195011ee.mkv</property>
  <property name="kdenlive:originalurl">content/prerendered/fall_fence.mp4</property>
  <property name="kdenlive:original.mlt_type">producer</property>
  <property name="kdenlive:original.in">0</property>
  <property name="kdenlive:original.out">199</property>
  <property name="kdenlive:original.length">200</property>
  <property name="kdenlive:original.eof">pause</property>
  <property name="kdenlive:original.resource">content/prerendered/fall_fence.mp4</property>
  <property name="kdenlive:original.meta.media.nb_streams">1</property>
  <property name="kdenlive:original.meta.media.0.stream.type">video</property>
  <property name="kdenlive:original.meta.media.0.stream.frame_rate">30</property>
  <property name="kdenlive:original.meta.media.0.stream.sample_aspect_ratio">1</property>
  <property name="kdenlive:original.meta.media.0.codec.width">1920</property>
  <property name="kdenlive:original.meta.media.0.codec.height">1080</property>
  <property name="kdenlive:original.meta.media.0.codec.rotate">0</property>
  <property name="kdenlive:original.meta.media.0.codec.frame_rate">30</property>
  <property name="kdenlive:original.meta.media.0.codec.pix_fmt">yuv420p</property>
  <property name="kdenlive:original.meta.media.0.codec.sample_aspect_ratio">1</property>
  <property name="kdenlive:original.meta.media.0.codec.colorspace">709</property>
  <property name="kdenlive:original.meta.media.0.codec.color_trc">1</property>
  <property name="kdenlive:original.meta.media.0.codec.name">h264</property>
  <property name="kdenlive:original.meta.media.0.codec.long_name">H.264 / AVC / MPEG-4 AVC / MPEG-4 part 10</property>
  <property name="kdenlive:original.meta.media.0.codec.bit_rate">8644515</property>
  <property name="kdenlive:original.meta.attr.0.stream.handler_name.markup">VideoHandler</property>
  <property name="kdenlive:original.meta.attr.major_brand.markup">isom</property>
  <property name="kdenlive:original.meta.attr.minor_version.markup">512</property>
  <property name="kdenlive:original.meta.attr.compatible_brands.markup">isomiso2avc1mp41</property>
  <property name="kdenlive:original.meta.attr.encoder.markup">Lavf58.45.100</property>
  <property name="kdenlive:original.seekable">1</property>
  <property name="kdenlive:original.width">1920</property>
  <property name="kdenlive:original.height">1080</property>
  <property name="kdenlive:original.meta.media.sample_aspect_num">1</property>
  <property name="kdenlive:original.meta.media.sample_aspect_den">1</property>
  <property name="kdenlive:original.aspect_ratio">1</property>
  <property name="kdenlive:original.audio_index">-1</property>
  <property name="kdenlive:original.video_index">0</property>
  <property name="kdenlive:original.mute_on_pause">0</property>
  <property name="kdenlive:original.mlt_service">avformat-novalidate</property>
  <property name="kdenlive:original.kdenlive:folderid">149</property>
  <property name="kdenlive:original.meta.media.frame_rate_num">30</property>
  <property name="kdenlive:original.meta.media.frame_rate_den">1</property>
  <property name="kdenlive:original.meta.media.colorspace">709</property>
  <property name="kdenlive:original.meta.media.color_trc">1</property>
  <property name="kdenlive:original.meta.media.width">1920</property>
  <property name="kdenlive:original.meta.media.height">1080</property>
  <property name="kdenlive:original.meta.media.color_range">mpeg</property>
  <property name="kdenlive:original.kdenlive:id">155</property>
  <property name="kdenlive:original.kdenlive:file_size">7207050</property>
  <property name="kdenlive:original.kdenlive:file_hash">8f8ee95b91e630ac632e2f28195011ee</property>
  <property name="kdenlive:original.backup">1</property>
  <property name="global_feed">1</property>
  <property name="meta.media.nb_streams">1</property>
  <property name="meta.media.0.stream.type">video</property>
  <property name="meta.media.0.stream.frame_rate">30</property>
  <property name="meta.media.0.stream.sample_aspect_ratio">1</property>
  <property name="meta.media.0.codec.width">960</property>
  <property name="meta.media.0.codec.height">540</property>
  <property name="meta.media.0.codec.rotate">0</property>
  <property name="meta.media.0.codec.frame_rate">1000</property>
  <property name="meta.media.0.codec.pix_fmt">yuvj420p</property>
  <property name="meta.media.0.codec.sample_aspect_ratio">1</property>
  <property name="meta.media.0.codec.colorspace">601</property>
  <property name="meta.media.0.codec.name">mjpeg</property>
  <property name="meta.media.0.codec.long_name">MJPEG (Motion JPEG)</property>
  <property name="meta.media.0.codec.bit_rate">0</property>
  <property name="meta.attr.0.stream.HANDLER_NAME.markup">VideoHandler</property>
  <property name="meta.attr.0.stream.ENCODER.markup">Lavc58.91.100 mjpeg</property>
  <property name="meta.attr.0.stream.DURATION.markup">00:00:06.666000000</property>
  <property name="meta.attr.COMPATIBLE_BRANDS.markup">isomiso2avc1mp41</property>
  <property name="meta.attr.MAJOR_BRAND.markup">isom</property>
  <property name="meta.attr.MINOR_VERSION.markup">512</property>
  <property name="meta.attr.ENCODER.markup">Lavf58.45.100</property>
  <property name="meta.media.sample_aspect_num">1</property>
  <property name="meta.media.sample_aspect_den">1</property>
  <property name="meta.media.frame_rate_num">30</property>
  <property name="meta.media.frame_rate_den">1</property>
  <property name="meta.media.colorspace">601</property>
  <property name="meta.media.color_trc">2</property>
  <property name="meta.media.width">960</property>
  <property name="meta.media.height">540</property>
  <property name="meta.media.color_range">full</property>
  <property name="meta.media.top_field_first">0</property>
  <property name="meta.media.progressive">1</property>
 </producer>
 <producer id="producer110" in="00:00:00.000" out="00:00:06.667">
  <property name="length">201</property>
  <property name="eof">pause</property>
  <property name="resource">/home/ryankelln/.cache/kdenlive/proxy/c5fccfac81ccb23057d9a5935082d4f8.mkv</property>
  <property name="audio_index">-1</property>
  <property name="video_index">0</property>
  <property name="mute_on_pause">0</property>
  <property name="mlt_service">avformat-novalidate</property>
  <property name="seekable">1</property>
  <property name="aspect_ratio">1</property>
  <property name="kdenlive:clipname">rocky_hill.mp4</property>
  <property name="kdenlive:folderid">149</property>
  <property name="kdenlive:id">156</property>
  <property name="kdenlive:file_size">11686835</property>
  <property name="kdenlive:file_hash">c5fccfac81ccb23057d9a5935082d4f8</property>
  <property name="kdenlive:proxy">/home/ryankelln/.cache/kdenlive/proxy/c5fccfac81ccb23057d9a5935082d4f8.mkv</property>
  <property name="kdenlive:originalurl">content/prerendered/rocky_hill.mp4</property>
  <property name="kdenlive:original.mlt_type">producer</property>
  <property name="kdenlive:original.in">0</property>
  <property name="kdenlive:original.out">200</property>
  <property name="kdenlive:original.length">201</property>
  <property name="kdenlive:original.eof">pause</property>
  <property name="kdenlive:original.resource">content/prerendered/rocky_hill.mp4</property>
  <property name="kdenlive:original.meta.media.nb_streams">1</property>
  <property name="kdenlive:original.meta.media.0.stream.type">video</property>
  <property name="kdenlive:original.meta.media.0.stream.frame_rate">30</property>
  <property name="kdenlive:original.meta.media.0.stream.sample_aspect_ratio">1</property>
  <property name="kdenlive:original.meta.media.0.codec.width">1920</property>
  <property name="kdenlive:original.meta.media.0.codec.height">1080</property>
  <property name="kdenlive:original.meta.media.0.codec.rotate">0</property>
  <property name="kdenlive:original.meta.media.0.codec.frame_rate">30</property>
  <property name="kdenlive:original.meta.media.0.codec.pix_fmt">yuv420p</property>
  <property name="kdenlive:original.meta.media.0.codec.sample_aspect_ratio">1</property>
  <property name="kdenlive:original.meta.media.0.codec.colorspace">709</property>
  <property name="kdenlive:original.meta.media.0.codec.color_trc">1</property>
  <property name="kdenlive:original.meta.media.0.codec.name">h264</property>
  <property name="kdenlive:original.meta.media.0.codec.long_name">H.264 / AVC / MPEG-4 AVC / MPEG-4 part 10</property>
  <property name="kdenlive:original.meta.media.0.codec.bit_rate">13950471</property>
  <property name="kdenlive:original.meta.attr.0.stream.handler_name.markup">VideoHandler</property>
  <property name="kdenlive:original.meta.attr.major_brand.markup">isom</property>
  <property name="kdenlive:original.meta.attr.minor_version.markup">512</property>
  <property name="kdenlive:original.meta.attr.compatible_brands.markup">isomiso2avc1mp41</property>
  <property name="kdenlive:original.meta.attr.encoder.markup">Lavf58.45.100</property>
  <property name="kdenlive:original.seekable">1</property>
  <property name="kdenlive:original.width">1920</property>
  <property name="kdenlive:original.height">1080</property>
  <property name="kdenlive:original.meta.media.sample_aspect_num">1</property>
  <property name="kdenlive:original.meta.media.sample_aspect_den">1</property>
  <property name="kdenlive:original.aspect_ratio">1</property>
  <property name="kdenlive:original.audio_index">-1</property>
  <property name="kdenlive:original.video_index">0</property>
  <property name="kdenlive:original.mute_on_pause">0</property>
  <property name="kdenlive:original.mlt_service">avformat-novalidate</property>
  <property name="kdenlive:original.kdenlive:folderid">149</property>
  <property name="kdenlive:original.meta.media.frame_rate_num">30</property>
  <property name="kdenlive:original.meta.media.frame_rate_den">1</property>
  <property name="kdenlive:original.meta.media.colorspace">709</property>
  <property name="kdenlive:original.meta.media.color_trc">1</property>
  <property name="kdenlive:original.meta.media.width">1920</property>
  <property name="kdenlive:original.meta.media.height">1080</property>
  <property name="kdenlive:original.meta.media.color_range">mpeg</property>
  <property name="kdenlive:original.kdenlive:id">156</property>
  <property name="kdenlive:original.kdenlive:file_size">11686835</property>
  <property name="kdenlive:original.kdenlive:file_hash">c5fccfac81ccb23057d9a5935082d4f8</property>
  <property name="kdenlive:original.backup">1</property>
  <property name="global_feed">1</property>
  <property name="meta.media.nb_streams">1</property>
  <property name="meta.media.0.stream.type">video</property>
  <property name="meta.media.0.stream.frame_rate">30</property>
  <property name="meta.media.0.stream.sample_aspect_ratio">1</property>
  <property name="meta.media.0.codec.width">960</property>
  <property name="meta.media.0.codec.height">540</property>
  <property name="meta.media.0.codec.rotate">0</property>
  <property name="meta.media.0.codec.frame_rate">1000</property>
  <property name="meta.media.0.codec.pix_fmt">yuvj420p</property>
  <property name="meta.media.0.codec.sample_aspect_ratio">1</property>
  <property name="meta.media.0.codec.colorspace">601</property>
  <property name="meta.media.0.codec.name">mjpeg</property>
  <property name="meta.media.0.codec.long_name">MJPEG (Motion JPEG)</property>
  <property name="meta.media.0.codec.bit_rate">0</property>
  <property name="meta.attr.0.stream.HANDLER_NAME.markup">VideoHandler</property>
  <property name="meta.attr.0.stream.ENCODER.markup">Lavc58.91.100 mjpeg</property>
  <property name="meta.attr.0.stream.DURATION.markup">00:00:06.700000000</property>
  <property name="meta.attr.COMPATIBLE_BRANDS.markup">isomiso2avc1mp41</property>
  <property name="meta.attr.MAJOR_BRAND.markup">isom</property>
  <property name="meta.attr.MINOR_VERSION.markup">512</property>
  <property name="meta.attr.ENCODER.markup">Lavf58.45.100</property>
  <property name="meta.media.sample_aspect_num">1</property>
  <property name="meta.media.sample_aspect_den">1</property>
  <property name="meta.media.frame_rate_num">30</property>
  <property name="meta.media.frame_rate_den">1</property>
  <property name="meta.media.colorspace">601</property>
  <property name="meta.media.color_trc">2</property>
  <property name="meta.media.width">960</property>
  <property name="meta.media.height">540</property>
  <property name="meta.media.color_range">full</property>
  <property name="meta.media.top_field_first">0</property>
  <property name="meta.media.progressive">1</property>
 </producer>
 <producer id="producer112" in="00:00:00.000" out="00:00:08.900">
  <property name="length">268</property>
  <property name="eof">pause</property>
  <property name="resource">/home/ryankelln/.cache/kdenlive/proxy/03b958151065285fdcd91f34786c6f83.mkv</property>
  <property name="audio_index">-1</property>
  <property name="video_index">0</property>
  <property name="mute_on_pause">0</property>
  <property name="mlt_service">avformat-novalidate</property>
  <property name="seekable">1</property>
  <property name="aspect_ratio">1</property>
  <property name="kdenlive:clipname">rowboats.mp4</property>
  <property name="kdenlive:folderid">149</property>
  <property name="kdenlive:id">159</property>
  <property name="kdenlive:file_size">13456516</property>
  <property name="kdenlive:file_hash">03b958151065285fdcd91f34786c6f83</property>
  <property name="kdenlive:proxy">/home/ryankelln/.cache/kdenlive/proxy/03b958151065285fdcd91f34786c6f83.mkv</property>
  <property name="kdenlive:originalurl">content/prerendered/rowboats.mp4</property>
  <property name="global_feed">1</property>
  <property name="kdenlive:original.mlt_type">producer</property>
  <property name="kdenlive:original.in">0</property>
  <property name="kdenlive:original.out">267</property>
  <property name="kdenlive:original.length">268</property>
  <property name="kdenlive:original.eof">pause</property>
  <property name="kdenlive:original.resource">content/prerendered/rowboats.mp4</property>
  <property name="kdenlive:original.audio_index">-1</property>
  <property name="kdenlive:original.video_index">0</property>
  <property name="kdenlive:original.mute_on_pause">0</property>
  <property name="kdenlive:original.mlt_service">avformat-novalidate</property>
  <property name="kdenlive:original.seekable">1</property>
  <property name="kdenlive:original.aspect_ratio">1</property>
  <property name="kdenlive:original.kdenlive:folderid">149</property>
  <property name="kdenlive:original.kdenlive:id">159</property>
  <property name="kdenlive:original.kdenlive:file_size">13456516</property>
  <property name="kdenlive:original.kdenlive:file_hash">03b958151065285fdcd91f34786c6f83</property>
  <property name="kdenlive:original.global_feed">1</property>
  <property name="kdenlive:original.meta.media.nb_streams">1</property>
  <property name="kdenlive:original.meta.media.0.stream.type">video</property>
  <property name="kdenlive:original.meta.media.0.stream.frame_rate">30</property>
  <property name="kdenlive:original.meta.media.0.stream.sample_aspect_ratio">1</property>
  <property name="kdenlive:original.meta.media.0.codec.width">1920</property>
  <property name="kdenlive:original.meta.media.0.codec.height">1080</property>
  <property name="kdenlive:original.meta.media.0.codec.rotate">0</property>
  <property name="kdenlive:original.meta.media.0.codec.frame_rate">30</property>
  <property name="kdenlive:original.meta.media.0.codec.pix_fmt">yuv420p</property>
  <property name="kdenlive:original.meta.media.0.codec.sample_aspect_ratio">1</property>
  <property name="kdenlive:original.meta.media.0.codec.colorspace">709</property>
  <property name="kdenlive:original.meta.media.0.codec.color_trc">1</property>
  <property name="kdenlive:original.meta.media.0.codec.name">h264</property>
  <property name="kdenlive:original.meta.media.0.codec.long_name">H.264 / AVC / MPEG-4 AVC / MPEG-4 part 10</property>
  <property name="kdenlive:original.meta.media.0.codec.bit_rate">12046954</property>
  <property name="kdenlive:original.meta.attr.0.stream.handler_name.markup">VideoHandler</property>
  <property name="kdenlive:original.meta.attr.major_brand.markup">isom</property>
  <property name="kdenlive:original.meta.attr.minor_version.markup">512</property>
  <property name="kdenlive:original.meta.attr.compatible_brands.markup">isomiso2avc1mp41</property>
  <property name="kdenlive:original.meta.attr.encoder.markup">Lavf58.45.100</property>
  <property name="kdenlive:original.width">1920</property>
  <property name="kdenlive:original.height">1080</property>
  <property name="kdenlive:original.meta.media.sample_aspect_num">1</property>
  <property name="kdenlive:original.meta.media.sample_aspect_den">1</property>
  <property name="kdenlive:original.meta.media.frame_rate_num">30</property>
  <property name="kdenlive:original.meta.media.frame_rate_den">1</property>
  <property name="kdenlive:original.meta.media.colorspace">709</property>
  <property name="kdenlive:original.meta.media.color_trc">1</property>
  <property name="kdenlive:original.meta.media.width">1920</property>
  <property name="kdenlive:original.meta.media.height">1080</property>
  <property name="kdenlive:original.meta.media.color_range">mpeg</property>
  <property name="kdenlive:original.meta.media.top_field_first">0</property>
  <property name="kdenlive:original.meta.media.progressive">1</property>
  <property name="kdenlive:original.backup">1</property>
  <property name="meta.media.nb_streams">1</property>
  <property name="meta.media.0.stream.type">video</property>
  <property name="meta.media.0.stream.frame_rate">30</property>
  <property name="meta.media.0.stream.sample_aspect_ratio">1</property>
  <property name="meta.media.0.codec.width">960</property>
  <property name="meta.media.0.codec.height">540</property>
  <property name="meta.media.0.codec.rotate">0</property>
  <property name="meta.media.0.codec.frame_rate">1000</property>
  <property name="meta.media.0.codec.pix_fmt">yuvj420p</property>
  <property name="meta.media.0.codec.sample_aspect_ratio">1</property>
  <property name="meta.media.0.codec.colorspace">601</property>
  <property name="meta.media.0.codec.name">mjpeg</property>
  <property name="meta.media.0.codec.long_name">MJPEG (Motion JPEG)</property>
  <property name="meta.media.0.codec.bit_rate">0</property>
  <property name="meta.attr.0.stream.HANDLER_NAME.markup">VideoHandler</property>
  <property name="meta.attr.0.stream.ENCODER.markup">Lavc58.91.100 mjpeg</property>
  <property name="meta.attr.0.stream.DURATION.markup">00:00:08.933000000</property>
  <property name="meta.attr.COMPATIBLE_BRANDS.markup">isomiso2avc1mp41</property>
  <property name="meta.attr.MAJOR_BRAND.markup">isom</property>
  <property name="meta.attr.MINOR_VERSION.markup">512</property>
  <property name="meta.attr.ENCODER.markup">Lavf58.45.100</property>
  <property name="meta.media.sample_aspect_num">1</property>
  <property name="meta.media.sample_aspect_den">1</property>
  <property name="meta.media.frame_rate_num">30</property>
  <property name="meta.media.frame_rate_den">1</property>
  <property name="meta.media.colorspace">601</property>
  <property name="meta.media.color_trc">2</property>
  <property name="meta.media.width">960</property>
  <property name="meta.media.height">540</property>
  <property name="meta.media.color_range">full</property>
  <property name="meta.media.top_field_first">0</property>
  <property name="meta.media.progressive">1</property>
 </producer>
 <producer id="producer113" in="00:00:00.000" out="00:00:08.933">
  <property name="length">269</property>
  <property name="eof">pause</property>
  <property name="resource">/home/ryankelln/.cache/kdenlive/proxy/69fb340fe8933aedb19b089626a15e02.mkv</property>
  <property name="audio_index">-1</property>
  <property name="video_index">0</property>
  <property name="mute_on_pause">0</property>
  <property name="mlt_service">avformat-novalidate</property>
  <property name="seekable">1</property>
  <property name="aspect_ratio">1</property>
  <property name="kdenlive:clipname">garage.mp4</property>
  <property name="kdenlive:folderid">149</property>
  <property name="kdenlive:id">161</property>
  <property name="kdenlive:file_size">12238431</property>
  <property name="kdenlive:file_hash">69fb340fe8933aedb19b089626a15e02</property>
  <property name="kdenlive:proxy">/home/ryankelln/.cache/kdenlive/proxy/69fb340fe8933aedb19b089626a15e02.mkv</property>
  <property name="kdenlive:originalurl">content/prerendered/garage.mp4</property>
  <property name="kdenlive:original.mlt_type">producer</property>
  <property name="kdenlive:original.in">0</property>
  <property name="kdenlive:original.out">268</property>
  <property name="kdenlive:original.length">269</property>
  <property name="kdenlive:original.eof">pause</property>
  <property name="kdenlive:original.resource">content/prerendered/garage.mp4</property>
  <property name="kdenlive:original.meta.media.nb_streams">1</property>
  <property name="kdenlive:original.meta.media.0.stream.type">video</property>
  <property name="kdenlive:original.meta.media.0.stream.frame_rate">30</property>
  <property name="kdenlive:original.meta.media.0.stream.sample_aspect_ratio">1</property>
  <property name="kdenlive:original.meta.media.0.codec.width">1920</property>
  <property name="kdenlive:original.meta.media.0.codec.height">1080</property>
  <property name="kdenlive:original.meta.media.0.codec.rotate">0</property>
  <property name="kdenlive:original.meta.media.0.codec.frame_rate">30</property>
  <property name="kdenlive:original.meta.media.0.codec.pix_fmt">yuv420p</property>
  <property name="kdenlive:original.meta.media.0.codec.sample_aspect_ratio">1</property>
  <property name="kdenlive:original.meta.media.0.codec.colorspace">709</property>
  <property name="kdenlive:original.meta.media.0.codec.color_trc">1</property>
  <property name="kdenlive:original.meta.media.0.codec.name">h264</property>
  <property name="kdenlive:original.meta.media.0.codec.long_name">H.264 / AVC / MPEG-4 AVC / MPEG-4 part 10</property>
  <property name="kdenlive:original.meta.media.0.codec.bit_rate">10915699</property>
  <property name="kdenlive:original.meta.attr.0.stream.handler_name.markup">VideoHandler</property>
  <property name="kdenlive:original.meta.attr.major_brand.markup">isom</property>
  <property name="kdenlive:original.meta.attr.minor_version.markup">512</property>
  <property name="kdenlive:original.meta.attr.compatible_brands.markup">isomiso2avc1mp41</property>
  <property name="kdenlive:original.meta.attr.encoder.markup">Lavf58.45.100</property>
  <property name="kdenlive:original.seekable">1</property>
  <property name="kdenlive:original.width">1920</property>
  <property name="kdenlive:original.height">1080</property>
  <property name="kdenlive:original.meta.media.sample_aspect_num">1</property>
  <property name="kdenlive:original.meta.media.sample_aspect_den">1</property>
  <property name="kdenlive:original.aspect_ratio">1</property>
  <property name="kdenlive:original.audio_index">-1</property>
  <property name="kdenlive:original.video_index">0</property>
  <property name="kdenlive:original.mute_on_pause">0</property>
  <property name="kdenlive:original.mlt_service">avformat-novalidate</property>
  <property name="kdenlive:original.kdenlive:folderid">149</property>
  <property name="kdenlive:original.meta.media.frame_rate_num">30</property>
  <property name="kdenlive:original.meta.media.frame_rate_den">1</property>
  <property name="kdenlive:original.meta.media.colorspace">709</property>
  <property name="kdenlive:original.meta.media.color_trc">1</property>
  <property name="kdenlive:original.meta.media.width">1920</property>
  <property name="kdenlive:original.meta.media.height">1080</property>
  <property name="kdenlive:original.meta.media.color_range">mpeg</property>
  <property name="kdenlive:original.kdenlive:id">161</property>
  <property name="kdenlive:original.kdenlive:file_size">12238431</property>
  <property name="kdenlive:original.kdenlive:file_hash">69fb340fe8933aedb19b089626a15e02</property>
  <property name="kdenlive:original.backup">1</property>
  <property name="global_feed">1</property>
  <property name="meta.media.nb_streams">1</property>
  <property name="meta.media.0.stream.type">video</property>
  <property name="meta.media.0.stream.frame_rate">30</property>
  <property name="meta.media.0.stream.sample_aspect_ratio">1</property>
  <property name="meta.media.0.codec.width">960</property>
  <property name="meta.media.0.codec.height">540</property>
  <property name="meta.media.0.codec.rotate">0</property>
  <property name="meta.media.0.codec.frame_rate">1000</property>
  <property name="meta.media.0.codec.pix_fmt">yuvj420p</property>
  <property name="meta.media.0.codec.sample_aspect_ratio">1</property>
  <property name="meta.media.0.codec.colorspace">601</property>
  <property name="meta.media.0.codec.name">mjpeg</property>
  <property name="meta.media.0.codec.long_name">MJPEG (Motion JPEG)</property>
  <property name="meta.media.0.codec.bit_rate">0</property>
  <property name="meta.attr.0.stream.HANDLER_NAME.markup">VideoHandler</property>
  <property name="meta.attr.0.stream.ENCODER.markup">Lavc58.91.100 mjpeg</property>
  <property name="meta.attr.0.stream.DURATION.markup">00:00:08.966000000</property>
  <property name="meta.attr.COMPATIBLE_BRANDS.markup">isomiso2avc1mp41</property>
  <property name="meta.attr.MAJOR_BRAND.markup">isom</property>
  <property name="meta.attr.MINOR_VERSION.markup">512</property>
  <property name="meta.attr.ENCODER.markup">Lavf58.45.100</property>
  <property name="meta.media.sample_aspect_num">1</property>
  <property name="meta.media.sample_aspect_den">1</property>
  <property name="meta.media.frame_rate_num">30</property>
  <property name="meta.media.frame_rate_den">1</property>
  <property name="meta.media.colorspace">601</property>
  <property name="meta.media.color_trc">2</property>
  <property name="meta.media.width">960</property>
  <property name="meta.media.height">540</property>
  <property name="meta.media.color_range">full</property>
  <property name="meta.media.top_field_first">0</property>
  <property name="meta.media.progressive">1</property>
 </producer>
 <producer id="producer114" in="00:00:00.000" out="00:00:08.467">
  <property name="length">255</property>
  <property name="eof">pause</property>
  <property name="resource">/home/ryankelln/.cache/kdenlive/proxy/e266d64fcda8a4c9a91e12afedfc53c2.mkv</property>
  <property name="audio_index">-1</property>
  <property name="video_index">0</property>
  <property name="mute_on_pause">0</property>
  <property name="mlt_service">avformat-novalidate</property>
  <property name="seekable">1</property>
  <property name="aspect_ratio">1</property>
  <property name="kdenlive:clipname">fall_clouds.mp4</property>
  <property name="kdenlive:folderid">149</property>
  <property name="kdenlive:id">163</property>
  <property name="kdenlive:file_size">11386465</property>
  <property name="kdenlive:file_hash">e266d64fcda8a4c9a91e12afedfc53c2</property>
  <property name="kdenlive:proxy">/home/ryankelln/.cache/kdenlive/proxy/e266d64fcda8a4c9a91e12afedfc53c2.mkv</property>
  <property name="kdenlive:originalurl">content/prerendered/fall_clouds.mp4</property>
  <property name="kdenlive:original.mlt_type">producer</property>
  <property name="kdenlive:original.in">0</property>
  <property name="kdenlive:original.out">254</property>
  <property name="kdenlive:original.length">255</property>
  <property name="kdenlive:original.eof">pause</property>
  <property name="kdenlive:original.resource">content/prerendered/fall_clouds.mp4</property>
  <property name="kdenlive:original.meta.media.nb_streams">1</property>
  <property name="kdenlive:original.meta.media.0.stream.type">video</property>
  <property name="kdenlive:original.meta.media.0.stream.frame_rate">30</property>
  <property name="kdenlive:original.meta.media.0.stream.sample_aspect_ratio">1</property>
  <property name="kdenlive:original.meta.media.0.codec.width">1920</property>
  <property name="kdenlive:original.meta.media.0.codec.height">1080</property>
  <property name="kdenlive:original.meta.media.0.codec.rotate">0</property>
  <property name="kdenlive:original.meta.media.0.codec.frame_rate">30</property>
  <property name="kdenlive:original.meta.media.0.codec.pix_fmt">yuv420p</property>
  <property name="kdenlive:original.meta.media.0.codec.sample_aspect_ratio">1</property>
  <property name="kdenlive:original.meta.media.0.codec.colorspace">709</property>
  <property name="kdenlive:original.meta.media.0.codec.color_trc">1</property>
  <property name="kdenlive:original.meta.media.0.codec.name">h264</property>
  <property name="kdenlive:original.meta.media.0.codec.long_name">H.264 / AVC / MPEG-4 AVC / MPEG-4 part 10</property>
  <property name="kdenlive:original.meta.media.0.codec.bit_rate">10713270</property>
  <property name="kdenlive:original.meta.attr.0.stream.handler_name.markup">VideoHandler</property>
  <property name="kdenlive:original.meta.attr.major_brand.markup">isom</property>
  <property name="kdenlive:original.meta.attr.minor_version.markup">512</property>
  <property name="kdenlive:original.meta.attr.compatible_brands.markup">isomiso2avc1mp41</property>
  <property name="kdenlive:original.meta.attr.encoder.markup">Lavf58.45.100</property>
  <property name="kdenlive:original.seekable">1</property>
  <property name="kdenlive:original.width">1920</property>
  <property name="kdenlive:original.height">1080</property>
  <property name="kdenlive:original.meta.media.sample_aspect_num">1</property>
  <property name="kdenlive:original.meta.media.sample_aspect_den">1</property>
  <property name="kdenlive:original.aspect_ratio">1</property>
  <property name="kdenlive:original.audio_index">-1</property>
  <property name="kdenlive:original.video_index">0</property>
  <property name="kdenlive:original.mute_on_pause">0</property>
  <property name="kdenlive:original.mlt_service">avformat-novalidate</property>
  <property name="kdenlive:original.kdenlive:folderid">149</property>
  <property name="kdenlive:original.meta.media.frame_rate_num">30</property>
  <property name="kdenlive:original.meta.media.frame_rate_den">1</property>
  <property name="kdenlive:original.meta.media.colorspace">709</property>
  <property name="kdenlive:original.meta.media.color_trc">1</property>
  <property name="kdenlive:original.meta.media.width">1920</property>
  <property name="kdenlive:original.meta.media.height">1080</property>
  <property name="kdenlive:original.meta.media.color_range">mpeg</property>
  <property name="kdenlive:original.kdenlive:id">163</property>
  <property name="kdenlive:original.kdenlive:file_size">11386465</property>
  <property name="kdenlive:original.kdenlive:file_hash">e266d64fcda8a4c9a91e12afedfc53c2</property>
  <property name="kdenlive:original.backup">1</property>
  <property name="global_feed">1</property>
  <property name="meta.media.nb_streams">1</property>
  <property name="meta.media.0.stream.type">video</property>
  <property name="meta.media.0.stream.frame_rate">30</property>
  <property name="meta.media.0.stream.sample_aspect_ratio">1</property>
  <property name="meta.media.0.codec.width">960</property>
  <property name="meta.media.0.codec.height">540</property>
  <property name="meta.media.0.codec.rotate">0</property>
  <property name="meta.media.0.codec.frame_rate">1000</property>
  <property name="meta.media.0.codec.pix_fmt">yuvj420p</property>
  <property name="meta.media.0.codec.sample_aspect_ratio">1</property>
  <property name="meta.media.0.codec.colorspace">601</property>
  <property name="meta.media.0.codec.name">mjpeg</property>
  <property name="meta.media.0.codec.long_name">MJPEG (Motion JPEG)</property>
  <property name="meta.media.0.codec.bit_rate">0</property>
  <property name="meta.attr.0.stream.HANDLER_NAME.markup">VideoHandler</property>
  <property name="meta.attr.0.stream.ENCODER.markup">Lavc58.91.100 mjpeg</property>
  <property name="meta.attr.0.stream.DURATION.markup">00:00:08.500000000</property>
  <property name="meta.attr.COMPATIBLE_BRANDS.markup">isomiso2avc1mp41</property>
  <property name="meta.attr.MAJOR_BRAND.markup">isom</property>
  <property name="meta.attr.MINOR_VERSION.markup">512</property>
  <property name="meta.attr.ENCODER.markup">Lavf58.45.100</property>
  <property name="meta.media.sample_aspect_num">1</property>
  <property name="meta.media.sample_aspect_den">1</property>
  <property name="meta.media.frame_rate_num">30</property>
  <property name="meta.media.frame_rate_den">1</property>
  <property name="meta.media.colorspace">601</property>
  <property name="meta.media.color_trc">2</property>
  <property name="meta.media.width">960</property>
  <property name="meta.media.height">540</property>
  <property name="meta.media.color_range">full</property>
  <property name="meta.media.top_field_first">0</property>
  <property name="meta.media.progressive">1</property>
 </producer>
 <playlist id="main_bin">
  <property name="kdenlive:folder.-1.30">storyboard</property>
  <property name="kdenlive:folder.-1.31">consingan paintings</property>
  <property name="kdenlive:folder.-1.81">animated_paintings</property>
  <property name="kdenlive:folder.-1.103">musicians</property>
  <property name="kdenlive:folder.-1.115">paintings</property>
  <property name="kdenlive:docproperties.activeTrack">11</property>
  <property name="kdenlive:docproperties.audioChannels">2</property>
  <property name="kdenlive:docproperties.audioTarget">-1</property>
  <property name="kdenlive:docproperties.audiotargettrack">2</property>
  <property name="kdenlive:docproperties.dirtypreviewchunks"/>
  <property name="kdenlive:docproperties.disablepreview">0</property>
  <property name="kdenlive:docproperties.documentid">1620064578519</property>
  <property name="kdenlive:docproperties.enableTimelineZone">1</property>
  <property name="kdenlive:docproperties.enableexternalproxy">0</property>
  <property name="kdenlive:docproperties.enableproxy">1</property>
  <property name="kdenlive:docproperties.externalproxyparams">../Sub;;S03.MP4;../Clip;;.MXF</property>
  <property name="kdenlive:docproperties.generateimageproxy">0</property>
  <property name="kdenlive:docproperties.generateproxy">1</property>
  <property name="kdenlive:docproperties.groups">[
    {
        "children": [
            {
                "data": "4:13485",
                "leaf": "clip",
                "type": "Leaf"
            },
            {
                "data": "3:13485",
                "leaf": "clip",
                "type": "Leaf"
            }
        ],
        "type": "Normal"
    },
    {
        "children": [
            {
                "data": "4:13721",
                "leaf": "clip",
                "type": "Leaf"
            },
            {
                "data": "3:13721",
                "leaf": "clip",
                "type": "Leaf"
            }
        ],
        "type": "Normal"
    },
    {
        "children": [
            {
                "data": "4:14220",
                "leaf": "clip",
                "type": "Leaf"
            },
            {
                "data": "3:14220",
                "leaf": "clip",
                "type": "Leaf"
            }
        ],
        "type": "Normal"
    },
    {
        "children": [
            {
                "data": "4:13180",
                "leaf": "clip",
                "type": "Leaf"
            },
            {
                "data": "3:13180",
                "leaf": "clip",
                "type": "Leaf"
            },
            {
                "data": "5:13180",
                "leaf": "clip",
                "type": "Leaf"
            }
        ],
        "type": "Normal"
    }
]
</property>
  <property name="kdenlive:docproperties.guides">[
    {
        "comment": "start",
        "pos": 210,
        "type": 4
    },
    {
        "comment": "cymbol",
        "pos": 958,
        "type": 0
    },
    {
        "comment": "cymbol",
        "pos": 2691,
        "type": 0
    },
    {
        "comment": "drums",
        "pos": 7127,
        "type": 0
    },
    {
        "comment": "Strong chord",
        "pos": 4021,
        "type": 0
    },
    {
        "comment": "section",
        "pos": 5177,
        "type": 0
    },
    {
        "comment": "Piano",
        "pos": 6093,
        "type": 0
    },
    {
        "comment": "guide",
        "pos": 4189,
        "type": 0
    },
    {
        "comment": "guide",
        "pos": 4407,
        "type": 0
    },
    {
        "comment": "guide",
        "pos": 11486,
        "type": 0
    },
    {
        "comment": "Dance",
        "pos": 7740,
        "type": 0
    },
    {
        "comment": "double time",
        "pos": 8175,
        "type": 0
    },
    {
        "comment": "drum1",
        "pos": 8811,
        "type": 0
    },
    {
        "comment": "drum2",
        "pos": 9070,
        "type": 0
    },
    {
        "comment": "return",
        "pos": 9731,
        "type": 0
    },
    {
        "comment": "guide",
        "pos": 7962,
        "type": 0
    },
    {
        "comment": "guide",
        "pos": 8460,
        "type": 0
    },
    {
        "comment": "guide",
        "pos": 9808,
        "type": 0
    },
    {
        "comment": "guide",
        "pos": 9845,
        "type": 0
    },
    {
        "comment": "guide",
        "pos": 9888,
        "type": 0
    },
    {
        "comment": "guide",
        "pos": 9949,
        "type": 0
    },
    {
        "comment": "guide",
        "pos": 9983,
        "type": 0
    },
    {
        "comment": "theme",
        "pos": 10109,
        "type": 0
    },
    {
        "comment": "guide",
        "pos": 9321,
        "type": 0
    },
    {
        "comment": "guide",
        "pos": 9465,
        "type": 0
    },
    {
        "comment": "guide",
        "pos": 9624,
        "type": 0
    },
    {
        "comment": "guide",
        "pos": 9521,
        "type": 0
    },
    {
        "comment": "guide",
        "pos": 9569,
        "type": 0
    },
    {
        "comment": "guide",
        "pos": 8631,
        "type": 0
    },
    {
        "comment": "end",
        "pos": 12319,
        "type": 4
    },
    {
        "comment": "guide",
        "pos": 339,
        "type": 0
    },
    {
        "comment": "guide",
        "pos": 590,
        "type": 0
    },
    {
        "comment": "guide",
        "pos": 2283,
        "type": 0
    },
    {
        "comment": "guide",
        "pos": 2088,
        "type": 0
    },
    {
        "comment": "guide",
        "pos": 1986,
        "type": 0
    },
    {
        "comment": "guide",
        "pos": 1882,
        "type": 0
    },
    {
        "comment": "preprenders",
        "pos": 13180,
        "type": 8
    },
    {
        "comment": "guide",
        "pos": 2482,
        "type": 0
    }
]
</property>
  <property name="kdenlive:docproperties.kdenliveversion">21.04.2</property>
  <property name="kdenlive:docproperties.position">1993</property>
  <property name="kdenlive:docproperties.previewchunks"/>
  <property name="kdenlive:docproperties.previewextension">mov</property>
  <property name="kdenlive:docproperties.previewparameters">r=30 s=1920x1080 vb=45M threads=0 vcodec=dnxhd progressive=1</property>
  <property name="kdenlive:docproperties.profile">atsc_1080p_30</property>
  <property name="kdenlive:docproperties.proxyextension">mkv</property>
  <property name="kdenlive:docproperties.proxyimageminsize">2000</property>
  <property name="kdenlive:docproperties.proxyimagesize">800</property>
  <property name="kdenlive:docproperties.proxyminsize">1920</property>
  <property name="kdenlive:docproperties.proxyparams">-vf yadif,scale=960:-2 -qscale 3 -vcodec mjpeg -acodec pcm_s16le</property>
  <property name="kdenlive:docproperties.renderaudioquality">192</property>
  <property name="kdenlive:docproperties.rendercategory">Generic (HD for web, mobile devices...)</property>
  <property name="kdenlive:docproperties.renderendguide">36</property>
  <property name="kdenlive:docproperties.renderexportaudio">0</property>
  <property name="kdenlive:docproperties.renderfield">0</property>
  <property name="kdenlive:docproperties.renderguide">1</property>
  <property name="kdenlive:docproperties.renderplay">0</property>
  <property name="kdenlive:docproperties.renderprofile">MP4-H264/AAC</property>
  <property name="kdenlive:docproperties.renderquality">21</property>
  <property name="kdenlive:docproperties.renderratio">1</property>
  <property name="kdenlive:docproperties.renderrescale">0</property>
  <property name="kdenlive:docproperties.renderrescaleheight">540</property>
  <property name="kdenlive:docproperties.renderrescalewidth">960</property>
  <property name="kdenlive:docproperties.renderscanning">0</property>
  <property name="kdenlive:docproperties.renderspeed">2</property>
  <property name="kdenlive:docproperties.renderstartguide">1</property>
  <property name="kdenlive:docproperties.rendertcoverlay">0</property>
  <property name="kdenlive:docproperties.rendertctype">0</property>
  <property name="kdenlive:docproperties.rendertwopass">0</property>
  <property name="kdenlive:docproperties.renderurl">robbies_v3.mp4</property>
  <property name="kdenlive:docproperties.renderzone">0</property>
  <property name="kdenlive:docproperties.scrollPos">4349</property>
  <property name="kdenlive:docproperties.seekOffset">30000</property>
  <property name="kdenlive:docproperties.version">1</property>
  <property name="kdenlive:docproperties.verticalzoom">1</property>
  <property name="kdenlive:docproperties.videoTarget">-1</property>
  <property name="kdenlive:docproperties.videotargettrack">3</property>
  <property name="kdenlive:docproperties.zonein">13930</property>
  <property name="kdenlive:docproperties.zoneout">14185</property>
  <property name="kdenlive:docproperties.zoom">4</property>
  <property name="kdenlive:expandedFolders">149</property>
  <property name="kdenlive:documentnotes"/>
  <property name="kdenlive:folder.-1.149">prerendered</property>
  <property name="xml_retain">1</property>
  <entry producer="2" in="00:00:00.000" out="00:00:09.167"/>
  <entry producer="3" in="00:00:00.000" out="00:00:12.600"/>
  <entry producer="4" in="00:00:00.000" out="00:00:12.700"/>
  <entry producer="5" in="00:00:00.000" out="00:00:22.033"/>
  <entry producer="6" in="00:00:00.000" out="00:00:25.967"/>
  <entry producer="7" in="00:00:00.000" out="00:00:06.533"/>
  <entry producer="8" in="00:00:00.000" out="00:00:15.933"/>
  <entry producer="9" in="00:00:00.000" out="00:00:04.967"/>
  <entry producer="10" in="00:00:00.000" out="00:00:08.133"/>
  <entry producer="11" in="00:00:00.000" out="00:00:15.200"/>
  <entry producer="12" in="00:00:00.000" out="00:00:04.967"/>
  <entry producer="13" in="00:00:00.000" out="00:00:05.800"/>
  <entry producer="14" in="00:00:00.000" out="00:00:23.900"/>
  <entry producer="15" in="00:00:00.000" out="00:00:29.133"/>
  <entry producer="16" in="00:00:00.000" out="00:00:26.067"/>
  <entry producer="17" in="00:00:00.000" out="00:00:24.200"/>
  <entry producer="18" in="00:00:00.000" out="00:00:14.233"/>
  <entry producer="20" in="00:00:00.000" out="00:06:44.833"/>
  <entry producer="21" in="00:00:00.000" out="00:01:59.967"/>
  <entry producer="22" in="00:00:00.000" out="00:00:18.500"/>
  <entry producer="23" in="00:00:00.000" out="00:00:20.000"/>
  <entry producer="24" in="00:00:00.000" out="00:00:17.167"/>
  <entry producer="25" in="00:00:00.000" out="00:00:17.233"/>
  <entry producer="28" in="00:00:00.000" out="00:08:54.400"/>
  <entry producer="29" in="00:00:00.000" out="00:00:37.967"/>
  <entry producer="30" in="00:00:00.000" out="00:00:09.833"/>
  <entry producer="31" in="00:00:00.000" out="00:00:33.667"/>
  <entry producer="32" in="00:00:00.000" out="00:00:06.667"/>
  <entry producer="producer17" in="00:00:00.000" out="00:00:39.733"/>
  <entry producer="producer18" in="00:00:00.000" out="00:00:39.733"/>
  <entry producer="producer19" in="00:00:00.000" out="00:00:39.733"/>
  <entry producer="producer20" in="00:00:00.000" out="00:00:39.733"/>
  <entry producer="producer21" in="00:00:00.000" out="00:00:39.733"/>
  <entry producer="producer22" in="00:00:00.000" out="00:00:39.733"/>
  <entry producer="producer23" in="00:00:00.000" out="00:00:39.733"/>
  <entry producer="producer24" in="00:00:00.000" out="00:00:39.733"/>
  <entry producer="producer25" in="00:00:00.000" out="00:00:39.733"/>
  <entry producer="producer26" in="00:00:00.000" out="00:00:39.733"/>
  <entry producer="producer27" in="00:00:00.000" out="00:00:39.733"/>
  <entry producer="producer28" in="00:00:00.000" out="00:00:39.733"/>
  <entry producer="producer31" in="00:00:00.000" out="00:00:39.733"/>
  <entry producer="producer32" in="00:00:00.000" out="00:00:39.733"/>
  <entry producer="producer33" in="00:00:00.000" out="00:00:39.733"/>
  <entry producer="producer34" in="00:00:00.000" out="00:00:39.733"/>
  <entry producer="producer35" in="00:00:00.000" out="00:00:39.733"/>
  <entry producer="producer36" in="00:00:00.000" out="00:00:39.733"/>
  <entry producer="producer38" in="00:00:00.000" out="00:00:39.733"/>
  <entry producer="producer39" in="00:00:00.000" out="00:00:39.733"/>
  <entry producer="producer74" in="00:00:00.000" out="00:00:39.733"/>
  <entry producer="producer75" in="00:00:00.000" out="00:00:39.733"/>
  <entry producer="producer76" in="00:00:00.000" out="00:00:39.733"/>
  <entry producer="producer77" in="00:00:00.000" out="00:00:39.733"/>
  <entry producer="producer78" in="00:00:00.000" out="00:00:39.733"/>
  <entry producer="producer79" in="00:00:00.000" out="00:00:39.733"/>
  <entry producer="producer80" in="00:00:00.000" out="00:00:39.733"/>
  <entry producer="producer81" in="00:00:00.000" out="00:00:39.733"/>
  <entry producer="producer37" in="00:00:00.000" out="00:00:06.667"/>
  <entry producer="producer42" in="00:00:00.000" out="00:00:13.767"/>
  <entry producer="producer29" in="00:00:00.000" out="00:00:39.733"/>
  <entry producer="producer30" in="00:00:00.000" out="00:00:39.733"/>
  <entry producer="producer57" in="00:00:00.000" out="00:00:09.967"/>
  <entry producer="producer58" in="00:00:00.000" out="00:00:33.633"/>
  <entry producer="producer59" in="00:00:00.000" out="00:00:33.633"/>
  <entry producer="producer60" in="00:00:00.000" out="00:00:39.333"/>
  <entry producer="producer61" in="00:00:00.000" out="00:05:12.467"/>
  <entry producer="producer62" in="00:00:00.000" out="00:06:40.667"/>
  <entry producer="producer63" in="00:00:00.000" out="00:01:34.067"/>
  <entry producer="producer64" in="00:00:00.000" out="00:01:35.100"/>
  <entry producer="producer66" in="00:00:00.000" out="00:03:53.467"/>
  <entry producer="producer65" in="00:00:00.000" out="00:02:40.267"/>
  <entry producer="producer68" in="00:00:00.000" out="00:05:53.700"/>
  <entry producer="producer67" in="00:00:00.000" out="00:02:45.400"/>
  <entry producer="producer69" in="00:00:00.000" out="00:02:41.967"/>
  <entry producer="producer71" in="00:00:00.000" out="00:00:59.667"/>
  <entry producer="producer70" in="00:00:00.000" out="00:00:29.533"/>
  <entry producer="producer72" in="00:00:00.000" out="00:02:03.800"/>
  <entry producer="producer73" in="00:00:00.000" out="00:05:47.067"/>
  <entry producer="producer0" in="00:00:00.000" out="00:00:04.967"/>
  <entry producer="producer1" in="00:00:00.000" out="00:00:14.067"/>
  <entry producer="producer2" in="00:00:00.000" out="00:00:04.967"/>
  <entry producer="producer3" in="00:00:00.000" out="00:00:11.933"/>
  <entry producer="producer4" in="00:00:00.000" out="00:00:04.967"/>
  <entry producer="producer5" in="00:00:00.000" out="00:00:27.000"/>
  <entry producer="producer6" in="00:00:00.000" out="00:00:04.967"/>
  <entry producer="producer7" in="00:00:00.000" out="00:00:10.867"/>
  <entry producer="producer8" in="00:00:00.000" out="00:00:04.967"/>
  <entry producer="producer10" in="00:00:00.000" out="00:00:10.867"/>
  <entry producer="producer9" in="00:00:00.000" out="00:00:04.967"/>
  <entry producer="producer11" in="00:00:00.000" out="00:00:10.867"/>
  <entry producer="producer12" in="00:00:00.000" out="00:00:10.867"/>
  <entry producer="producer13" in="00:00:00.000" out="00:00:04.967"/>
  <entry producer="producer14" in="00:00:00.000" out="00:00:04.967"/>
  <entry producer="producer15" in="00:00:00.000" out="00:00:15.833"/>
  <entry producer="producer16" in="00:00:00.000" out="00:00:39.733"/>
  <entry producer="producer82" in="00:00:00.000" out="00:03:57.733"/>
  <entry producer="producer83" in="00:00:00.000" out="00:00:17.167"/>
  <entry producer="producer84" in="00:00:00.000" out="00:00:17.233"/>
  <entry producer="producer85" in="00:00:00.000" out="00:00:28.767"/>
  <entry producer="producer86" in="00:00:00.000" out="00:00:19.967"/>
  <entry producer="producer87" in="00:00:00.000" out="00:00:39.733"/>
  <entry producer="producer88" in="00:00:00.000" out="00:00:39.733"/>
  <entry producer="producer90" in="00:00:00.000" out="00:00:39.733"/>
  <entry producer="producer89" in="00:00:00.000" out="00:00:39.733"/>
  <entry producer="producer91" in="00:00:00.000" out="00:00:39.733"/>
  <entry producer="producer92" in="00:00:00.000" out="00:00:33.633"/>
  <entry producer="producer40" in="00:00:00.000" out="00:00:13.133"/>
  <entry producer="producer41" in="00:00:00.000" out="00:00:09.967"/>
  <entry producer="producer43" in="00:00:00.000" out="00:00:06.667"/>
  <entry producer="producer44" in="00:00:00.000" out="00:00:13.533"/>
  <entry producer="producer45" in="00:00:00.000" out="00:01:59.967"/>
  <entry producer="producer46" in="00:00:00.000" out="00:00:13.233"/>
  <entry producer="producer47" in="00:00:00.000" out="00:00:09.767"/>
  <entry producer="producer48" in="00:00:00.000" out="00:00:09.800"/>
  <entry producer="producer49" in="00:00:00.000" out="00:00:15.300"/>
  <entry producer="producer50" in="00:00:00.000" out="00:00:13.600"/>
  <entry producer="producer51" in="00:00:00.000" out="00:00:02.633"/>
  <entry producer="producer52" in="00:00:00.000" out="00:00:02.633"/>
  <entry producer="producer53" in="00:00:00.000" out="00:00:02.633"/>
  <entry producer="producer54" in="00:00:00.000" out="00:00:02.633"/>
  <entry producer="producer55" in="00:00:00.000" out="00:00:02.633"/>
  <entry producer="producer94" in="00:00:00.000" out="00:00:02.633"/>
  <entry producer="producer95" in="00:00:00.000" out="00:00:02.633"/>
  <entry producer="producer96" in="00:00:00.000" out="00:00:02.633"/>
  <entry producer="producer97" in="00:00:00.000" out="00:00:02.633"/>
  <entry producer="producer98" in="00:00:00.000" out="00:00:02.633"/>
  <entry producer="producer99" in="00:00:00.000" out="00:00:02.633"/>
  <entry producer="producer100" in="00:00:00.000" out="00:00:02.633"/>
  <entry producer="producer101" in="00:00:00.000" out="00:00:02.633"/>
  <entry producer="producer102" in="00:00:00.000" out="00:00:02.633"/>
  <entry producer="producer103" in="00:00:00.000" out="00:00:02.633"/>
  <entry producer="producer104" in="00:00:00.000" out="00:00:02.633"/>
  <entry producer="producer105" in="00:00:00.000" out="00:00:13.600"/>
  <entry producer="producer107" in="00:00:00.000" out="00:00:16.267"/>
  <entry producer="producer56" in="00:00:00.000" out="00:00:07.533"/>
  <entry producer="producer93" in="00:00:00.000" out="00:01:41.933"/>
  <entry producer="producer108" in="00:00:00.000" out="00:00:05.967"/>
  <entry producer="producer109" in="00:00:00.000" out="00:00:05.967"/>
  <entry producer="producer111" in="00:00:00.000" out="00:01:46.233"/>
  <entry producer="producer106" in="00:00:00.000" out="00:00:06.633"/>
  <entry producer="producer110" in="00:00:00.000" out="00:00:06.667"/>
  <entry producer="producer112" in="00:00:00.000" out="00:00:08.900"/>
  <entry producer="producer113" in="00:00:00.000" out="00:00:08.933"/>
  <entry producer="producer114" in="00:00:00.000" out="00:00:08.467"/>
 </playlist>
 <producer id="black_track" in="00:00:00.000" out="00:24:42.967">
  <property name="length">2147483647</property>
  <property name="eof">continue</property>
  <property name="resource">black</property>
  <property name="aspect_ratio">1</property>
  <property name="mlt_service">color</property>
  <property name="mlt_image_format">rgb24a</property>
  <property name="set.test_audio">0</property>
 </producer>
 <playlist id="playlist0">
  <property name="kdenlive:audio_track">1</property>
 </playlist>
 <playlist id="playlist1"/>
 <tractor id="tractor0" in="00:00:00.000">
  <property name="kdenlive:audio_track">1</property>
  <property name="kdenlive:trackheight">69</property>
  <property name="kdenlive:timeline_active">1</property>
  <property name="kdenlive:collapsed">0</property>
  <property name="kdenlive:thumbs_format"/>
  <property name="kdenlive:audio_rec"/>
  <track hide="both" producer="playlist0"/>
  <track hide="video" producer="playlist1"/>
  <filter id="filter25">
   <property name="window">75</property>
   <property name="max_gain">20dB</property>
   <property name="mlt_service">volume</property>
   <property name="internal_added">237</property>
   <property name="disable">1</property>
  </filter>
  <filter id="filter26">
   <property name="channel">-1</property>
   <property name="mlt_service">panner</property>
   <property name="internal_added">237</property>
   <property name="start">0.5</property>
   <property name="disable">1</property>
  </filter>
  <filter id="filter27">
   <property name="iec_scale">0</property>
   <property name="mlt_service">audiolevel</property>
   <property name="disable">1</property>
  </filter>
 </tractor>
 <producer id="producer115" in="00:00:00.000" out="00:06:40.667">
  <property name="length">12021</property>
  <property name="eof">pause</property>
  <property name="resource">20210602_SpectrumMusic-SoundEscapes-Suzy EDIT1.wav</property>
  <property name="audio_index">0</property>
  <property name="video_index">-1</property>
  <property name="mute_on_pause">0</property>
  <property name="mlt_service">avformat-novalidate</property>
  <property name="meta.media.nb_streams">1</property>
  <property name="meta.media.0.stream.type">audio</property>
  <property name="meta.media.0.codec.sample_fmt">s32</property>
  <property name="meta.media.0.codec.sample_rate">48000</property>
  <property name="meta.media.0.codec.channels">2</property>
  <property name="meta.media.0.codec.name">pcm_s24le</property>
  <property name="meta.media.0.codec.long_name">PCM signed 24-bit little-endian</property>
  <property name="meta.media.0.codec.bit_rate">2304000</property>
  <property name="meta.attr.encoded_by.markup">Pro Tools</property>
  <property name="meta.attr.originator_reference.markup">aui8NBLUJxRk</property>
  <property name="meta.attr.date.markup">2021-06-11</property>
  <property name="meta.attr.creation_time.markup">13:03:07</property>
  <property name="meta.attr.time_reference.markup">111776775</property>
  <property name="meta.attr.umid.markup">0x060A2B340101010501010F1013000000B5E3BA56E7F085001131005056C00001</property>
  <property name="seekable">1</property>
  <property name="kdenlive:clipname"/>
  <property name="kdenlive:folderid">-1</property>
  <property name="kdenlive:id">69</property>
  <property name="kdenlive:file_size">116009214</property>
  <property name="kdenlive:file_hash">e92064d49b478fe21f36da128feab741</property>
  <property name="kdenlive:audio_max">1</property>
  <property name="global_feed">1</property>
  <property name="xml">was here</property>
  <property name="set.test_audio">0</property>
  <property name="set.test_image">1</property>
 </producer>
 <playlist id="playlist2">
  <property name="kdenlive:audio_track">1</property>
  <blank length="00:00:07.000"/>
  <entry producer="producer115" in="00:00:00.000" out="00:06:40.667">
   <property name="kdenlive:id">69</property>
  </entry>
 </playlist>
 <playlist id="playlist3"/>
 <tractor id="tractor1" in="00:00:00.000" out="00:06:47.667">
  <property name="kdenlive:audio_track">1</property>
  <property name="kdenlive:trackheight">69</property>
  <property name="kdenlive:timeline_active"/>
  <property name="kdenlive:collapsed">0</property>
  <property name="kdenlive:track_name">Audio 2</property>
  <property name="kdenlive:thumbs_format"/>
  <property name="kdenlive:audio_rec"/>
  <property name="kdenlive:locked_track">1</property>
  <track hide="video" producer="playlist2"/>
  <track hide="video" producer="playlist3"/>
  <filter id="filter28">
   <property name="window">75</property>
   <property name="max_gain">20dB</property>
   <property name="mlt_service">volume</property>
   <property name="internal_added">237</property>
   <property name="disable">1</property>
  </filter>
  <filter id="filter29">
   <property name="channel">-1</property>
   <property name="mlt_service">panner</property>
   <property name="internal_added">237</property>
   <property name="start">0.5</property>
   <property name="disable">1</property>
  </filter>
  <filter id="filter30">
   <property name="iec_scale">0</property>
   <property name="mlt_service">audiolevel</property>
   <property name="disable">1</property>
  </filter>
 </tractor>
 <playlist id="playlist4">
  <property name="kdenlive:audio_track">1</property>
 </playlist>
 <playlist id="playlist5"/>
 <tractor id="tractor2" in="00:00:00.000">
  <property name="kdenlive:audio_track">1</property>
  <property name="kdenlive:trackheight">69</property>
  <property name="kdenlive:timeline_active"/>
  <property name="kdenlive:collapsed">0</property>
  <property name="kdenlive:track_name">Audio 1</property>
  <property name="kdenlive:thumbs_format"/>
  <property name="kdenlive:audio_rec"/>
  <track hide="both" producer="playlist4"/>
  <track hide="video" producer="playlist5"/>
  <filter id="filter31">
   <property name="window">75</property>
   <property name="max_gain">20dB</property>
   <property name="mlt_service">volume</property>
   <property name="internal_added">237</property>
   <property name="disable">1</property>
  </filter>
  <filter id="filter32">
   <property name="channel">-1</property>
   <property name="mlt_service">panner</property>
   <property name="internal_added">237</property>
   <property name="start">0.5</property>
   <property name="disable">1</property>
  </filter>
  <filter id="filter33">
   <property name="iec_scale">0</property>
   <property name="mlt_service">audiolevel</property>
   <property name="disable">1</property>
  </filter>
 </tractor>
 <producer id="producer126" in="00:00:00.000" out="00:00:17.167">
  <property name="length">516</property>
  <property name="eof">pause</property>
  <property name="resource">content/animated_paintings/paino_field_composite_test_03.mp4</property>
  <property name="audio_index">1</property>
  <property name="video_index">0</property>
  <property name="mute_on_pause">0</property>
  <property name="mlt_service">avformat-novalidate</property>
  <property name="seekable">1</property>
  <property name="aspect_ratio">1</property>
  <property name="kdenlive:clipname"/>
  <property name="kdenlive:folderid">81</property>
  <property name="kdenlive:id">100</property>
  <property name="kdenlive:file_size">2451023</property>
  <property name="kdenlive:file_hash">8a9095bce6e01c35f0fd10cd74583370</property>
  <property name="global_feed">1</property>
  <property name="xml">was here</property>
  <property name="meta.media.nb_streams">2</property>
  <property name="meta.media.0.stream.type">video</property>
  <property name="meta.media.0.stream.frame_rate">24</property>
  <property name="meta.media.0.stream.sample_aspect_ratio">1</property>
  <property name="meta.media.0.codec.width">640</property>
  <property name="meta.media.0.codec.height">360</property>
  <property name="meta.media.0.codec.rotate">0</property>
  <property name="meta.media.0.codec.frame_rate">24</property>
  <property name="meta.media.0.codec.pix_fmt">yuv420p</property>
  <property name="meta.media.0.codec.sample_aspect_ratio">1</property>
  <property name="meta.media.0.codec.colorspace">601</property>
  <property name="meta.media.0.codec.color_trc">6</property>
  <property name="meta.media.0.codec.name">h264</property>
  <property name="meta.media.0.codec.long_name">H.264 / AVC / MPEG-4 AVC / MPEG-4 part 10</property>
  <property name="meta.media.0.codec.bit_rate">1134082</property>
  <property name="meta.attr.0.stream.handler_name.markup">VideoHandler</property>
  <property name="meta.media.1.stream.type">audio</property>
  <property name="meta.media.1.codec.sample_fmt">fltp</property>
  <property name="meta.media.1.codec.sample_rate">48000</property>
  <property name="meta.media.1.codec.channels">2</property>
  <property name="meta.media.1.codec.name">aac</property>
  <property name="meta.media.1.codec.long_name">AAC (Advanced Audio Coding)</property>
  <property name="meta.media.1.codec.bit_rate">2281</property>
  <property name="meta.attr.1.stream.handler_name.markup">SoundHandler</property>
  <property name="meta.attr.major_brand.markup">isom</property>
  <property name="meta.attr.minor_version.markup">512</property>
  <property name="meta.attr.compatible_brands.markup">isomiso2avc1mp41</property>
  <property name="meta.attr.encoder.markup">Lavf58.45.100</property>
  <property name="meta.media.sample_aspect_num">1</property>
  <property name="meta.media.sample_aspect_den">1</property>
  <property name="meta.media.frame_rate_num">24</property>
  <property name="meta.media.frame_rate_den">1</property>
  <property name="meta.media.colorspace">601</property>
  <property name="meta.media.color_trc">6</property>
  <property name="meta.media.width">640</property>
  <property name="meta.media.height">360</property>
  <property name="meta.media.color_range">mpeg</property>
  <property name="meta.media.top_field_first">0</property>
  <property name="meta.media.progressive">1</property>
  <property name="set.test_audio">1</property>
  <property name="set.test_image">0</property>
 </producer>
 <producer id="producer127" in="00:00:00.000" out="00:00:28.767">
  <property name="length">864</property>
  <property name="eof">pause</property>
  <property name="resource">/home/ryankelln/.cache/kdenlive/proxy/9fc557c20b187104bbaff78fcb07dee2.mkv</property>
  <property name="audio_index">-1</property>
  <property name="video_index">0</property>
  <property name="mute_on_pause">0</property>
  <property name="mlt_service">avformat-novalidate</property>
  <property name="seekable">1</property>
  <property name="aspect_ratio">1</property>
  <property name="kdenlive:clipname">high_park_trees_river_reeds_adain_frames.mp4</property>
  <property name="kdenlive:folderid">81</property>
  <property name="kdenlive:id">102</property>
  <property name="kdenlive:file_size">61549118</property>
  <property name="kdenlive:file_hash">9fc557c20b187104bbaff78fcb07dee2</property>
  <property name="kdenlive:proxy">/home/ryankelln/.cache/kdenlive/proxy/9fc557c20b187104bbaff78fcb07dee2.mkv</property>
  <property name="kdenlive:originalurl">content/animated_paintings/high_park_trees_river_reeds_adain_frames.mp4</property>
  <property name="kdenlive:original.mlt_type">producer</property>
  <property name="kdenlive:original.in">0</property>
  <property name="kdenlive:original.out">863</property>
  <property name="kdenlive:original.length">864</property>
  <property name="kdenlive:original.eof">pause</property>
  <property name="kdenlive:original.resource">content/animated_paintings/high_park_trees_river_reeds_adain_frames.mp4</property>
  <property name="kdenlive:original.meta.media.nb_streams">1</property>
  <property name="kdenlive:original.meta.media.0.stream.type">video</property>
  <property name="kdenlive:original.meta.media.0.stream.frame_rate">25</property>
  <property name="kdenlive:original.meta.media.0.stream.sample_aspect_ratio">1</property>
  <property name="kdenlive:original.meta.media.0.codec.width">1920</property>
  <property name="kdenlive:original.meta.media.0.codec.height">1080</property>
  <property name="kdenlive:original.meta.media.0.codec.rotate">0</property>
  <property name="kdenlive:original.meta.media.0.codec.frame_rate">25</property>
  <property name="kdenlive:original.meta.media.0.codec.pix_fmt">yuvj420p</property>
  <property name="kdenlive:original.meta.media.0.codec.sample_aspect_ratio">1</property>
  <property name="kdenlive:original.meta.media.0.codec.colorspace">709</property>
  <property name="kdenlive:original.meta.media.0.codec.name">h264</property>
  <property name="kdenlive:original.meta.media.0.codec.long_name">H.264 / AVC / MPEG-4 AVC / MPEG-4 part 10</property>
  <property name="kdenlive:original.meta.media.0.codec.bit_rate">17094244</property>
  <property name="kdenlive:original.meta.attr.0.stream.handler_name.markup">VideoHandler</property>
  <property name="kdenlive:original.meta.attr.major_brand.markup">isom</property>
  <property name="kdenlive:original.meta.attr.minor_version.markup">512</property>
  <property name="kdenlive:original.meta.attr.compatible_brands.markup">isomiso2avc1mp41</property>
  <property name="kdenlive:original.meta.attr.encoder.markup">Lavf58.29.100</property>
  <property name="kdenlive:original.seekable">1</property>
  <property name="kdenlive:original.width">1920</property>
  <property name="kdenlive:original.height">1080</property>
  <property name="kdenlive:original.meta.media.sample_aspect_num">1</property>
  <property name="kdenlive:original.meta.media.sample_aspect_den">1</property>
  <property name="kdenlive:original.aspect_ratio">1</property>
  <property name="kdenlive:original.audio_index">-1</property>
  <property name="kdenlive:original.video_index">0</property>
  <property name="kdenlive:original.mute_on_pause">0</property>
  <property name="kdenlive:original.mlt_service">avformat-novalidate</property>
  <property name="kdenlive:original.kdenlive:folderid">81</property>
  <property name="kdenlive:original.meta.media.frame_rate_num">25</property>
  <property name="kdenlive:original.meta.media.frame_rate_den">1</property>
  <property name="kdenlive:original.meta.media.colorspace">709</property>
  <property name="kdenlive:original.meta.media.color_trc">2</property>
  <property name="kdenlive:original.meta.media.width">1920</property>
  <property name="kdenlive:original.meta.media.height">1080</property>
  <property name="kdenlive:original.meta.media.color_range">full</property>
  <property name="kdenlive:original.kdenlive:id">122</property>
  <property name="kdenlive:original.kdenlive:file_size">61549118</property>
  <property name="kdenlive:original.kdenlive:file_hash">9fc557c20b187104bbaff78fcb07dee2</property>
  <property name="kdenlive:original.backup">1</property>
  <property name="global_feed">1</property>
  <property name="xml">was here</property>
  <property name="meta.media.nb_streams">1</property>
  <property name="meta.media.0.stream.type">video</property>
  <property name="meta.media.0.stream.frame_rate">25</property>
  <property name="meta.media.0.stream.sample_aspect_ratio">1</property>
  <property name="meta.media.0.codec.width">960</property>
  <property name="meta.media.0.codec.height">540</property>
  <property name="meta.media.0.codec.rotate">0</property>
  <property name="meta.media.0.codec.frame_rate">1000</property>
  <property name="meta.media.0.codec.pix_fmt">yuvj420p</property>
  <property name="meta.media.0.codec.sample_aspect_ratio">1</property>
  <property name="meta.media.0.codec.colorspace">601</property>
  <property name="meta.media.0.codec.name">mjpeg</property>
  <property name="meta.media.0.codec.long_name">MJPEG (Motion JPEG)</property>
  <property name="meta.media.0.codec.bit_rate">0</property>
  <property name="meta.attr.0.stream.HANDLER_NAME.markup">VideoHandler</property>
  <property name="meta.attr.0.stream.ENCODER.markup">Lavc58.91.100 mjpeg</property>
  <property name="meta.attr.0.stream.DURATION.markup">00:00:28.800000000</property>
  <property name="meta.attr.COMPATIBLE_BRANDS.markup">isomiso2avc1mp41</property>
  <property name="meta.attr.MAJOR_BRAND.markup">isom</property>
  <property name="meta.attr.MINOR_VERSION.markup">512</property>
  <property name="meta.attr.ENCODER.markup">Lavf58.45.100</property>
  <property name="meta.media.sample_aspect_num">1</property>
  <property name="meta.media.sample_aspect_den">1</property>
  <property name="meta.media.frame_rate_num">25</property>
  <property name="meta.media.frame_rate_den">1</property>
  <property name="meta.media.colorspace">601</property>
  <property name="meta.media.color_trc">2</property>
  <property name="meta.media.width">960</property>
  <property name="meta.media.height">540</property>
  <property name="meta.media.color_range">full</property>
  <property name="set.test_audio">1</property>
  <property name="set.test_image">0</property>
  <property name="meta.media.top_field_first">0</property>
  <property name="meta.media.progressive">1</property>
 </producer>
 <producer id="producer128" in="00:00:00.000" out="00:00:06.667">
  <property name="length">201</property>
  <property name="eof">pause</property>
  <property name="resource">content/animated_paintings/fishing_boats_motion_mz0.2.avi</property>
  <property name="audio_index">-1</property>
  <property name="video_index">0</property>
  <property name="mute_on_pause">0</property>
  <property name="mlt_service">avformat-novalidate</property>
  <property name="seekable">1</property>
  <property name="aspect_ratio">1</property>
  <property name="kdenlive:clipname"/>
  <property name="kdenlive:folderid">81</property>
  <property name="kdenlive:id">113</property>
  <property name="kdenlive:file_size">7167430</property>
  <property name="kdenlive:file_hash">b3d80abe47fa2f495415b743bd6b0bb0</property>
  <property name="global_feed">1</property>
  <property name="xml">was here</property>
  <property name="meta.media.nb_streams">1</property>
  <property name="meta.media.0.stream.type">video</property>
  <property name="meta.media.0.stream.frame_rate">30</property>
  <property name="meta.media.0.stream.sample_aspect_ratio">0</property>
  <property name="meta.media.0.codec.width">924</property>
  <property name="meta.media.0.codec.height">720</property>
  <property name="meta.media.0.codec.rotate">0</property>
  <property name="meta.media.0.codec.frame_rate">30</property>
  <property name="meta.media.0.codec.pix_fmt">yuv420p</property>
  <property name="meta.media.0.codec.sample_aspect_ratio">1</property>
  <property name="meta.media.0.codec.colorspace">601</property>
  <property name="meta.media.0.codec.name">mpeg4</property>
  <property name="meta.media.0.codec.long_name">MPEG-4 part 2</property>
  <property name="meta.media.0.codec.bit_rate">8588186</property>
  <property name="meta.attr.encoder.markup">Lavf58.61.100</property>
  <property name="meta.media.sample_aspect_num">1</property>
  <property name="meta.media.sample_aspect_den">1</property>
  <property name="meta.media.frame_rate_num">30</property>
  <property name="meta.media.frame_rate_den">1</property>
  <property name="meta.media.colorspace">601</property>
  <property name="meta.media.color_trc">2</property>
  <property name="meta.media.width">924</property>
  <property name="meta.media.height">720</property>
  <property name="meta.media.color_range">mpeg</property>
  <property name="meta.media.top_field_first">0</property>
  <property name="meta.media.progressive">1</property>
  <property name="set.test_audio">1</property>
  <property name="set.test_image">0</property>
 </producer>
 <producer id="producer129" in="00:00:00.000" out="00:00:06.667">
  <property name="length">201</property>
  <property name="eof">pause</property>
  <property name="resource">-1.000000:content/animated_paintings/fishing_boats_motion_mz0.2.avi</property>
  <property name="aspect_ratio">1</property>
  <property name="meta.media.nb_streams">1</property>
  <property name="meta.media.0.stream.type">video</property>
  <property name="meta.media.0.stream.frame_rate">30</property>
  <property name="meta.media.0.stream.sample_aspect_ratio">0</property>
  <property name="meta.media.0.codec.width">924</property>
  <property name="meta.media.0.codec.height">720</property>
  <property name="meta.media.0.codec.rotate">0</property>
  <property name="meta.media.0.codec.frame_rate">30</property>
  <property name="meta.media.0.codec.pix_fmt">yuv420p</property>
  <property name="meta.media.0.codec.sample_aspect_ratio">1</property>
  <property name="meta.media.0.codec.colorspace">601</property>
  <property name="meta.media.0.codec.name">mpeg4</property>
  <property name="meta.media.0.codec.long_name">MPEG-4 part 2</property>
  <property name="meta.media.0.codec.bit_rate">8588186</property>
  <property name="meta.attr.encoder.markup">Lavf58.61.100</property>
  <property name="seekable">1</property>
  <property name="meta.media.sample_aspect_num">1</property>
  <property name="meta.media.sample_aspect_den">1</property>
  <property name="audio_index">-1</property>
  <property name="video_index">0</property>
  <property name="mute_on_pause">1</property>
  <property name="warp_speed">-1</property>
  <property name="warp_resource">content/animated_paintings/fishing_boats_motion_mz0.2.avi</property>
  <property name="mlt_service">timewarp</property>
  <property name="set.test_audio">1</property>
  <property name="set.test_image">0</property>
  <property name="kdenlive:id">113</property>
  <property name="warp_pitch">0</property>
  <property name="meta.media.frame_rate_num">30</property>
  <property name="meta.media.frame_rate_den">1</property>
  <property name="meta.media.colorspace">601</property>
  <property name="meta.media.color_trc">2</property>
  <property name="meta.media.width">924</property>
  <property name="meta.media.height">720</property>
  <property name="meta.media.color_range">mpeg</property>
  <property name="meta.media.top_field_first">0</property>
  <property name="meta.media.progressive">1</property>
 </producer>
 <producer id="producer130" in="00:00:00.000" out="00:01:06.633">
  <property name="length">2000</property>
  <property name="eof">pause</property>
  <property name="resource">1.800000:content/animated_paintings/river_church_animation_interpolation.mp4</property>
  <property name="aspect_ratio">1</property>
  <property name="meta.media.nb_streams">1</property>
  <property name="meta.media.0.stream.type">video</property>
  <property name="meta.media.0.stream.frame_rate">24</property>
  <property name="meta.media.0.stream.sample_aspect_ratio">1</property>
  <property name="meta.media.0.codec.width">880</property>
  <property name="meta.media.0.codec.height">720</property>
  <property name="meta.media.0.codec.rotate">0</property>
  <property name="meta.media.0.codec.frame_rate">24</property>
  <property name="meta.media.0.codec.pix_fmt">yuv444p</property>
  <property name="meta.media.0.codec.sample_aspect_ratio">1</property>
  <property name="meta.media.0.codec.colorspace">601</property>
  <property name="meta.media.0.codec.name">h264</property>
  <property name="meta.media.0.codec.long_name">H.264 / AVC / MPEG-4 AVC / MPEG-4 part 10</property>
  <property name="meta.media.0.codec.bit_rate">1224534</property>
  <property name="meta.attr.0.stream.handler_name.markup">VideoHandler</property>
  <property name="meta.attr.major_brand.markup">isom</property>
  <property name="meta.attr.minor_version.markup">512</property>
  <property name="meta.attr.compatible_brands.markup">isomiso2avc1mp41</property>
  <property name="meta.attr.encoder.markup">Lavf58.45.100</property>
  <property name="seekable">1</property>
  <property name="meta.media.sample_aspect_num">1</property>
  <property name="meta.media.sample_aspect_den">1</property>
  <property name="audio_index">-1</property>
  <property name="video_index">0</property>
  <property name="mute_on_pause">1</property>
  <property name="warp_speed">1.8</property>
  <property name="warp_resource">content/animated_paintings/river_church_animation_interpolation.mp4</property>
  <property name="mlt_service">timewarp</property>
  <property name="set.test_audio">1</property>
  <property name="set.test_image">0</property>
  <property name="kdenlive:id">116</property>
  <property name="warp_pitch">0</property>
  <property name="meta.media.frame_rate_num">24</property>
  <property name="meta.media.frame_rate_den">1</property>
  <property name="meta.media.colorspace">601</property>
  <property name="meta.media.color_trc">2</property>
  <property name="meta.media.width">880</property>
  <property name="meta.media.height">720</property>
  <property name="meta.media.color_range">mpeg</property>
  <property name="meta.media.top_field_first">0</property>
  <property name="meta.media.progressive">1</property>
 </producer>
 <producer id="producer131" in="00:00:00.000" out="00:00:02.633">
  <property name="length">80</property>
  <property name="eof">pause</property>
  <property name="resource">content/animated_paintings/winter_homestead_timelapse_0.mp4</property>
  <property name="audio_index">-1</property>
  <property name="video_index">0</property>
  <property name="mute_on_pause">0</property>
  <property name="mlt_service">avformat-novalidate</property>
  <property name="seekable">1</property>
  <property name="aspect_ratio">1</property>
  <property name="kdenlive:clipname"/>
  <property name="kdenlive:folderid">81</property>
  <property name="kdenlive:id">137</property>
  <property name="kdenlive:file_size">96285</property>
  <property name="kdenlive:file_hash">b92634bb7ba7168677cc1fff6d10659d</property>
  <property name="global_feed">1</property>
  <property name="xml">was here</property>
  <property name="meta.media.nb_streams">1</property>
  <property name="meta.media.0.stream.type">video</property>
  <property name="meta.media.0.stream.frame_rate">15</property>
  <property name="meta.media.0.stream.sample_aspect_ratio">0</property>
  <property name="meta.media.0.codec.width">250</property>
  <property name="meta.media.0.codec.height">250</property>
  <property name="meta.media.0.codec.rotate">0</property>
  <property name="meta.media.0.codec.frame_rate">15</property>
  <property name="meta.media.0.codec.pix_fmt">yuv420p</property>
  <property name="meta.media.0.codec.sample_aspect_ratio">1</property>
  <property name="meta.media.0.codec.colorspace">601</property>
  <property name="meta.media.0.codec.name">mpeg4</property>
  <property name="meta.media.0.codec.long_name">MPEG-4 part 2</property>
  <property name="meta.media.0.codec.bit_rate">285693</property>
  <property name="meta.attr.0.stream.handler_name.markup">VideoHandler</property>
  <property name="meta.attr.major_brand.markup">isom</property>
  <property name="meta.attr.minor_version.markup">512</property>
  <property name="meta.attr.compatible_brands.markup">isomiso2mp41</property>
  <property name="meta.attr.encoder.markup">Lavf58.61.100</property>
  <property name="meta.media.sample_aspect_num">1</property>
  <property name="meta.media.sample_aspect_den">1</property>
  <property name="meta.media.frame_rate_num">15</property>
  <property name="meta.media.frame_rate_den">1</property>
  <property name="meta.media.colorspace">601</property>
  <property name="meta.media.color_trc">2</property>
  <property name="meta.media.width">250</property>
  <property name="meta.media.height">250</property>
  <property name="meta.media.color_range">mpeg</property>
  <property name="meta.media.top_field_first">0</property>
  <property name="meta.media.progressive">1</property>
  <property name="set.test_audio">1</property>
  <property name="set.test_image">0</property>
 </producer>
 <producer id="producer132" in="00:00:00.000" out="00:00:39.733">
  <property name="length">1193</property>
  <property name="eof">pause</property>
  <property name="resource">content/consingan_paintings/winter_homestead_1.mp4</property>
  <property name="audio_index">-1</property>
  <property name="video_index">0</property>
  <property name="mute_on_pause">0</property>
  <property name="mlt_service">avformat-novalidate</property>
  <property name="seekable">1</property>
  <property name="aspect_ratio">1</property>
  <property name="kdenlive:clipname">winter_homestead_1.mp4</property>
  <property name="kdenlive:folderid">31</property>
  <property name="kdenlive:id">58</property>
  <property name="kdenlive:file_size">10169553</property>
  <property name="global_feed">1</property>
  <property name="kdenlive:file_hash">84c607985684aedb4597324fa7a4dd7b</property>
  <property name="xml">was here</property>
  <property name="meta.media.nb_streams">1</property>
  <property name="meta.media.0.stream.type">video</property>
  <property name="meta.media.0.stream.frame_rate">30</property>
  <property name="meta.media.0.stream.sample_aspect_ratio">0</property>
  <property name="meta.media.0.codec.width">944</property>
  <property name="meta.media.0.codec.height">720</property>
  <property name="meta.media.0.codec.rotate">0</property>
  <property name="meta.media.0.codec.frame_rate">30</property>
  <property name="meta.media.0.codec.pix_fmt">yuv420p</property>
  <property name="meta.media.0.codec.sample_aspect_ratio">0</property>
  <property name="meta.media.0.codec.colorspace">601</property>
  <property name="meta.media.0.codec.name">h264</property>
  <property name="meta.media.0.codec.long_name">H.264 / AVC / MPEG-4 AVC / MPEG-4 part 10</property>
  <property name="meta.media.0.codec.bit_rate">2042771</property>
  <property name="meta.attr.0.stream.handler_name.markup">VideoHandler</property>
  <property name="meta.attr.major_brand.markup">isom</property>
  <property name="meta.attr.minor_version.markup">512</property>
  <property name="meta.attr.compatible_brands.markup">isomiso2avc1mp41</property>
  <property name="meta.attr.encoder.markup">Lavf58.29.100</property>
  <property name="meta.media.sample_aspect_num">1</property>
  <property name="meta.media.sample_aspect_den">1</property>
  <property name="meta.media.frame_rate_num">30</property>
  <property name="meta.media.frame_rate_den">1</property>
  <property name="meta.media.colorspace">601</property>
  <property name="meta.media.color_trc">2</property>
  <property name="meta.media.width">944</property>
  <property name="meta.media.height">720</property>
  <property name="meta.media.color_range">mpeg</property>
  <property name="meta.media.top_field_first">0</property>
  <property name="meta.media.progressive">1</property>
  <property name="set.test_audio">1</property>
  <property name="set.test_image">0</property>
 </producer>
 <producer id="producer116" in="00:00:00.000" out="00:00:39.733">
  <property name="length">1193</property>
  <property name="eof">pause</property>
  <property name="resource">content/consingan_paintings/rowboats_1.mp4</property>
  <property name="audio_index">-1</property>
  <property name="video_index">0</property>
  <property name="mute_on_pause">0</property>
  <property name="mlt_service">avformat-novalidate</property>
  <property name="seekable">1</property>
  <property name="aspect_ratio">1</property>
  <property name="kdenlive:clipname">rowboats_1.mp4</property>
  <property name="kdenlive:folderid">31</property>
  <property name="kdenlive:id">48</property>
  <property name="kdenlive:file_size">10930039</property>
  <property name="global_feed">1</property>
  <property name="kdenlive:file_hash">0e6295d7066a422ddf35d168e7de0153</property>
  <property name="xml">was here</property>
  <property name="meta.media.nb_streams">1</property>
  <property name="meta.media.0.stream.type">video</property>
  <property name="meta.media.0.stream.frame_rate">30</property>
  <property name="meta.media.0.stream.sample_aspect_ratio">0</property>
  <property name="meta.media.0.codec.width">912</property>
  <property name="meta.media.0.codec.height">720</property>
  <property name="meta.media.0.codec.rotate">0</property>
  <property name="meta.media.0.codec.frame_rate">30</property>
  <property name="meta.media.0.codec.pix_fmt">yuv420p</property>
  <property name="meta.media.0.codec.sample_aspect_ratio">0</property>
  <property name="meta.media.0.codec.colorspace">601</property>
  <property name="meta.media.0.codec.name">h264</property>
  <property name="meta.media.0.codec.long_name">H.264 / AVC / MPEG-4 AVC / MPEG-4 part 10</property>
  <property name="meta.media.0.codec.bit_rate">2195757</property>
  <property name="meta.attr.0.stream.handler_name.markup">VideoHandler</property>
  <property name="meta.attr.major_brand.markup">isom</property>
  <property name="meta.attr.minor_version.markup">512</property>
  <property name="meta.attr.compatible_brands.markup">isomiso2avc1mp41</property>
  <property name="meta.attr.encoder.markup">Lavf58.29.100</property>
  <property name="meta.media.sample_aspect_num">1</property>
  <property name="meta.media.sample_aspect_den">1</property>
  <property name="meta.media.frame_rate_num">30</property>
  <property name="meta.media.frame_rate_den">1</property>
  <property name="meta.media.colorspace">601</property>
  <property name="meta.media.color_trc">2</property>
  <property name="meta.media.width">912</property>
  <property name="meta.media.height">720</property>
  <property name="meta.media.color_range">mpeg</property>
  <property name="meta.media.top_field_first">0</property>
  <property name="meta.media.progressive">1</property>
  <property name="set.test_audio">1</property>
  <property name="set.test_image">0</property>
 </producer>
 <producer id="producer117" in="00:00:00.000" out="00:00:39.733">
  <property name="length">1193</property>
  <property name="eof">pause</property>
  <property name="resource">content/consingan_paintings/rocky_hill_1.mp4</property>
  <property name="audio_index">-1</property>
  <property name="video_index">0</property>
  <property name="mute_on_pause">0</property>
  <property name="mlt_service">avformat-novalidate</property>
  <property name="seekable">1</property>
  <property name="aspect_ratio">1</property>
  <property name="kdenlive:clipname">rocky_hill_1.mp4</property>
  <property name="kdenlive:folderid">31</property>
  <property name="kdenlive:id">46</property>
  <property name="kdenlive:file_size">10375525</property>
  <property name="global_feed">1</property>
  <property name="kdenlive:file_hash">3c6bdc25c2d9b880f23a6580792dfd4d</property>
  <property name="xml">was here</property>
  <property name="meta.media.nb_streams">1</property>
  <property name="meta.media.0.stream.type">video</property>
  <property name="meta.media.0.stream.frame_rate">30</property>
  <property name="meta.media.0.stream.sample_aspect_ratio">0</property>
  <property name="meta.media.0.codec.width">912</property>
  <property name="meta.media.0.codec.height">720</property>
  <property name="meta.media.0.codec.rotate">0</property>
  <property name="meta.media.0.codec.frame_rate">30</property>
  <property name="meta.media.0.codec.pix_fmt">yuv420p</property>
  <property name="meta.media.0.codec.sample_aspect_ratio">0</property>
  <property name="meta.media.0.codec.colorspace">601</property>
  <property name="meta.media.0.codec.name">h264</property>
  <property name="meta.media.0.codec.long_name">H.264 / AVC / MPEG-4 AVC / MPEG-4 part 10</property>
  <property name="meta.media.0.codec.bit_rate">2084207</property>
  <property name="meta.attr.0.stream.handler_name.markup">VideoHandler</property>
  <property name="meta.attr.major_brand.markup">isom</property>
  <property name="meta.attr.minor_version.markup">512</property>
  <property name="meta.attr.compatible_brands.markup">isomiso2avc1mp41</property>
  <property name="meta.attr.encoder.markup">Lavf58.29.100</property>
  <property name="meta.media.sample_aspect_num">1</property>
  <property name="meta.media.sample_aspect_den">1</property>
  <property name="meta.media.frame_rate_num">30</property>
  <property name="meta.media.frame_rate_den">1</property>
  <property name="meta.media.colorspace">601</property>
  <property name="meta.media.color_trc">2</property>
  <property name="meta.media.width">912</property>
  <property name="meta.media.height">720</property>
  <property name="meta.media.color_range">mpeg</property>
  <property name="meta.media.top_field_first">0</property>
  <property name="meta.media.progressive">1</property>
  <property name="set.test_audio">1</property>
  <property name="set.test_image">0</property>
 </producer>
 <producer id="producer118" in="00:00:00.000" out="00:00:39.733">
  <property name="length">1193</property>
  <property name="eof">pause</property>
  <property name="resource">content/consingan_paintings/fall_fence_2.mp4</property>
  <property name="audio_index">-1</property>
  <property name="video_index">0</property>
  <property name="mute_on_pause">0</property>
  <property name="mlt_service">avformat-novalidate</property>
  <property name="seekable">1</property>
  <property name="aspect_ratio">1</property>
  <property name="kdenlive:clipname">fall_fence_2.mp4</property>
  <property name="kdenlive:folderid">31</property>
  <property name="kdenlive:id">35</property>
  <property name="kdenlive:file_size">6393076</property>
  <property name="global_feed">1</property>
  <property name="kdenlive:file_hash">3d80306b87607012f8aab759b4735cc1</property>
  <property name="xml">was here</property>
  <property name="meta.media.nb_streams">1</property>
  <property name="meta.media.0.stream.type">video</property>
  <property name="meta.media.0.stream.frame_rate">30</property>
  <property name="meta.media.0.stream.sample_aspect_ratio">0</property>
  <property name="meta.media.0.codec.width">944</property>
  <property name="meta.media.0.codec.height">720</property>
  <property name="meta.media.0.codec.rotate">0</property>
  <property name="meta.media.0.codec.frame_rate">30</property>
  <property name="meta.media.0.codec.pix_fmt">yuv420p</property>
  <property name="meta.media.0.codec.sample_aspect_ratio">0</property>
  <property name="meta.media.0.codec.colorspace">601</property>
  <property name="meta.media.0.codec.name">h264</property>
  <property name="meta.media.0.codec.long_name">H.264 / AVC / MPEG-4 AVC / MPEG-4 part 10</property>
  <property name="meta.media.0.codec.bit_rate">1283056</property>
  <property name="meta.attr.0.stream.handler_name.markup">VideoHandler</property>
  <property name="meta.attr.major_brand.markup">isom</property>
  <property name="meta.attr.minor_version.markup">512</property>
  <property name="meta.attr.compatible_brands.markup">isomiso2avc1mp41</property>
  <property name="meta.attr.encoder.markup">Lavf58.29.100</property>
  <property name="meta.media.sample_aspect_num">1</property>
  <property name="meta.media.sample_aspect_den">1</property>
  <property name="meta.media.frame_rate_num">30</property>
  <property name="meta.media.frame_rate_den">1</property>
  <property name="meta.media.colorspace">601</property>
  <property name="meta.media.color_trc">2</property>
  <property name="meta.media.width">944</property>
  <property name="meta.media.height">720</property>
  <property name="meta.media.color_range">mpeg</property>
  <property name="meta.media.top_field_first">0</property>
  <property name="meta.media.progressive">1</property>
  <property name="set.test_audio">1</property>
  <property name="set.test_image">0</property>
 </producer>
 <producer id="producer119" in="00:00:00.000" out="00:00:39.733">
  <property name="length">1193</property>
  <property name="eof">pause</property>
  <property name="resource">content/consingan_paintings/fall_clouds_2.mp4</property>
  <property name="audio_index">-1</property>
  <property name="video_index">0</property>
  <property name="mute_on_pause">0</property>
  <property name="mlt_service">avformat-novalidate</property>
  <property name="seekable">1</property>
  <property name="aspect_ratio">1</property>
  <property name="kdenlive:clipname">fall_clouds_2.mp4</property>
  <property name="kdenlive:folderid">31</property>
  <property name="kdenlive:id">33</property>
  <property name="kdenlive:file_size">8981600</property>
  <property name="global_feed">1</property>
  <property name="kdenlive:file_hash">c2fcd70760c77c8044e5bf85db4cf3ad</property>
  <property name="xml">was here</property>
  <property name="meta.media.nb_streams">1</property>
  <property name="meta.media.0.stream.type">video</property>
  <property name="meta.media.0.stream.frame_rate">30</property>
  <property name="meta.media.0.stream.sample_aspect_ratio">0</property>
  <property name="meta.media.0.codec.width">912</property>
  <property name="meta.media.0.codec.height">720</property>
  <property name="meta.media.0.codec.rotate">0</property>
  <property name="meta.media.0.codec.frame_rate">30</property>
  <property name="meta.media.0.codec.pix_fmt">yuv420p</property>
  <property name="meta.media.0.codec.sample_aspect_ratio">0</property>
  <property name="meta.media.0.codec.colorspace">601</property>
  <property name="meta.media.0.codec.name">h264</property>
  <property name="meta.media.0.codec.long_name">H.264 / AVC / MPEG-4 AVC / MPEG-4 part 10</property>
  <property name="meta.media.0.codec.bit_rate">1803789</property>
  <property name="meta.attr.0.stream.handler_name.markup">VideoHandler</property>
  <property name="meta.attr.major_brand.markup">isom</property>
  <property name="meta.attr.minor_version.markup">512</property>
  <property name="meta.attr.compatible_brands.markup">isomiso2avc1mp41</property>
  <property name="meta.attr.encoder.markup">Lavf58.29.100</property>
  <property name="meta.media.sample_aspect_num">1</property>
  <property name="meta.media.sample_aspect_den">1</property>
  <property name="meta.media.frame_rate_num">30</property>
  <property name="meta.media.frame_rate_den">1</property>
  <property name="meta.media.colorspace">601</property>
  <property name="meta.media.color_trc">2</property>
  <property name="meta.media.width">912</property>
  <property name="meta.media.height">720</property>
  <property name="meta.media.color_range">mpeg</property>
  <property name="meta.media.top_field_first">0</property>
  <property name="meta.media.progressive">1</property>
  <property name="set.test_audio">1</property>
  <property name="set.test_image">0</property>
 </producer>
 <producer id="producer120" in="00:00:00.000" out="00:00:39.733">
  <property name="length">1193</property>
  <property name="eof">pause</property>
  <property name="resource">content/consingan_paintings/garage_2.mp4</property>
  <property name="audio_index">-1</property>
  <property name="video_index">0</property>
  <property name="mute_on_pause">0</property>
  <property name="mlt_service">avformat-novalidate</property>
  <property name="seekable">1</property>
  <property name="aspect_ratio">1</property>
  <property name="kdenlive:clipname">garage_2.mp4</property>
  <property name="kdenlive:folderid">31</property>
  <property name="kdenlive:id">43</property>
  <property name="kdenlive:file_size">8287805</property>
  <property name="global_feed">1</property>
  <property name="kdenlive:file_hash">c18882c14c64218e467f56fcbeceb2ae</property>
  <property name="xml">was here</property>
  <property name="meta.media.nb_streams">1</property>
  <property name="meta.media.0.stream.type">video</property>
  <property name="meta.media.0.stream.frame_rate">30</property>
  <property name="meta.media.0.stream.sample_aspect_ratio">0</property>
  <property name="meta.media.0.codec.width">912</property>
  <property name="meta.media.0.codec.height">720</property>
  <property name="meta.media.0.codec.rotate">0</property>
  <property name="meta.media.0.codec.frame_rate">30</property>
  <property name="meta.media.0.codec.pix_fmt">yuv420p</property>
  <property name="meta.media.0.codec.sample_aspect_ratio">0</property>
  <property name="meta.media.0.codec.colorspace">601</property>
  <property name="meta.media.0.codec.name">h264</property>
  <property name="meta.media.0.codec.long_name">H.264 / AVC / MPEG-4 AVC / MPEG-4 part 10</property>
  <property name="meta.media.0.codec.bit_rate">1664219</property>
  <property name="meta.attr.0.stream.handler_name.markup">VideoHandler</property>
  <property name="meta.attr.major_brand.markup">isom</property>
  <property name="meta.attr.minor_version.markup">512</property>
  <property name="meta.attr.compatible_brands.markup">isomiso2avc1mp41</property>
  <property name="meta.attr.encoder.markup">Lavf58.29.100</property>
  <property name="meta.media.sample_aspect_num">1</property>
  <property name="meta.media.sample_aspect_den">1</property>
  <property name="meta.media.frame_rate_num">30</property>
  <property name="meta.media.frame_rate_den">1</property>
  <property name="meta.media.colorspace">601</property>
  <property name="meta.media.color_trc">2</property>
  <property name="meta.media.width">912</property>
  <property name="meta.media.height">720</property>
  <property name="meta.media.color_range">mpeg</property>
  <property name="meta.media.top_field_first">0</property>
  <property name="meta.media.progressive">1</property>
  <property name="set.test_audio">1</property>
  <property name="set.test_image">0</property>
 </producer>
 <playlist id="playlist6">
  <blank length="00:00:11.967"/>
  <entry producer="producer111" in="00:00:00.000" out="00:02:28.033">
   <property name="kdenlive:id">146</property>
   <property name="kdenlive:activeeffect">1</property>
   <filter id="filter34" out="00:00:03.267">
    <property name="start">0</property>
    <property name="mlt_service">brightness</property>
    <property name="kdenlive_id">fade_from_black</property>
    <property name="end">1</property>
    <property name="alpha">-1</property>
    <property name="kdenlive:collapsed">0</property>
   </filter>
   <filter id="filter35">
    <property name="rotate_center">1</property>
    <property name="mlt_service">qtblend</property>
    <property name="kdenlive_id">qtblend</property>
    <property name="rect">00:00:00.000=0 -180 1920 1440 1.000000</property>
    <property name="rotation">00:00:00.000=0</property>
    <property name="compositing">0</property>
    <property name="distort">0</property>
    <property name="kdenlive:collapsed">0</property>
   </filter>
  </entry>
  <entry producer="producer126" in="00:00:00.000" out="00:00:11.633">
   <property name="kdenlive:id">100</property>
   <property name="kdenlive:activeeffect">-1</property>
  </entry>
  <blank length="00:00:28.000"/>
  <entry producer="producer127" in="00:00:00.000" out="00:00:28.767">
   <property name="kdenlive:id">102</property>
   <filter id="filter103" in="00:00:26.633" out="00:00:28.767">
    <property name="start">1</property>
    <property name="mlt_service">brightness</property>
    <property name="kdenlive_id">fade_to_black</property>
    <property name="end">0</property>
    <property name="alpha">-1</property>
   </filter>
  </entry>
  <blank length="00:00:15.933"/>
  <entry producer="producer128" in="00:00:00.000" out="00:00:06.667">
   <property name="kdenlive:id">113</property>
   <filter id="filter104">
    <property name="rotate_center">1</property>
    <property name="mlt_service">qtblend</property>
    <property name="kdenlive_id">qtblend</property>
    <property name="rect">00:00:00.000=270 0 1920 1080 1.000000</property>
    <property name="rotation">00:00:00.000=0</property>
    <property name="compositing">0</property>
    <property name="distort">0</property>
    <property name="kdenlive:collapsed">0</property>
   </filter>
   <filter id="filter105">
    <property name="mirror">horizontal</property>
    <property name="mlt_service">mirror</property>
    <property name="kdenlive_id">mirror</property>
    <property name="reverse">0</property>
    <property name="kdenlive:collapsed">0</property>
   </filter>
  </entry>
  <entry producer="producer129" in="00:00:00.000" out="00:00:00.833">
   <property name="kdenlive:id">113</property>
   <filter id="filter106">
    <property name="rotate_center">1</property>
    <property name="mlt_service">qtblend</property>
    <property name="kdenlive_id">qtblend</property>
    <property name="rect">00:00:00.000=270 0 1920 1080 1.000000</property>
    <property name="rotation">00:00:00.000=0</property>
    <property name="compositing">0</property>
    <property name="distort">0</property>
    <property name="kdenlive:collapsed">0</property>
   </filter>
   <filter id="filter107">
    <property name="mirror">horizontal</property>
    <property name="mlt_service">mirror</property>
    <property name="kdenlive_id">mirror</property>
    <property name="reverse">0</property>
    <property name="kdenlive:collapsed">0</property>
   </filter>
  </entry>
  <blank length="00:00:13.133"/>
  <entry producer="producer130" in="00:00:00.533" out="00:00:08.167">
   <property name="kdenlive:id">116</property>
   <filter id="filter108">
    <property name="rotate_center">1</property>
    <property name="mlt_service">qtblend</property>
    <property name="kdenlive_id">qtblend</property>
    <property name="rect">00:00:00.533=288 0 1920 1080 1.000000</property>
    <property name="rotation">00:00:00.533=0</property>
    <property name="compositing">0</property>
    <property name="distort">0</property>
    <property name="kdenlive:collapsed">0</property>
   </filter>
   <filter id="filter109">
    <property name="mirror">horizontal</property>
    <property name="mlt_service">mirror</property>
    <property name="kdenlive_id">mirror</property>
    <property name="reverse">0</property>
    <property name="kdenlive:collapsed">0</property>
   </filter>
  </entry>
  <blank length="00:00:29.533"/>
  <entry producer="producer3" in="00:00:00.000" out="00:00:11.600">
   <property name="kdenlive:id">85</property>
   <property name="kdenlive:activeeffect">2</property>
   <filter id="filter111">
    <property name="rotate_center">1</property>
    <property name="mlt_service">qtblend</property>
    <property name="kdenlive_id">qtblend</property>
    <property name="rect">00:00:00.000|=-309 0 1920 1080 1.000000;00:00:08.367|=-501 -108 2304 1296 1.000000;00:00:08.900|=-693 -216 2688 1512 1.000000;00:00:09.567|=-885 -324 3072 1728 1.000000;00:00:10.200|=-1077 -432 3456 1944 1.000000;00:00:10.867|=-1269 -540 3840 2160 1.000000</property>
    <property name="rotation">00:00:00.000|=0;00:00:08.367|=0;00:00:08.900|=0;00:00:09.567|=0;00:00:10.200|=0;00:00:10.867|=0</property>
    <property name="compositing">0</property>
    <property name="distort">0</property>
    <property name="kdenlive:collapsed">0</property>
   </filter>
   <filter id="filter112">
    <property name="mirror">horizontal</property>
    <property name="mlt_service">mirror</property>
    <property name="kdenlive_id">mirror</property>
    <property name="reverse">1</property>
    <property name="kdenlive:collapsed">0</property>
   </filter>
   <filter id="filter113">
    <property name="version">0.1</property>
    <property name="mlt_service">frei0r.distort0r</property>
    <property name="kdenlive_id">frei0r.distort0r</property>
    <property name="Amplitude">00:00:00.000=0;00:00:00.300=-0.04;00:00:00.633=0.05;00:00:01.200=-0.03;00:00:01.567=0.05;00:00:02.133=-0.05;00:00:02.500=0.04;00:00:03.033=-0.04;00:00:03.400=0.05;00:00:03.933=-0.04;00:00:04.267=0.05;00:00:04.800=-0.04;00:00:05.300=0.05;00:00:05.800=-0.04;00:00:06.133=0.05;00:00:06.600=-0.04;00:00:06.967=0.05;00:00:07.567=-0.045;00:00:07.900=0.05;00:00:08.500=-0.04;00:00:08.867=0.05;00:00:09.433=-0.04;00:00:09.733=0.05;00:00:11.600=-0.12</property>
    <property name="Frequency">00:00:00.000=-0.077;00:00:00.300=-0.077;00:00:00.633=-0.08;00:00:01.200=-0.07;00:00:01.567=-0.08;00:00:02.133=-0.07;00:00:02.500=-0.08;00:00:03.033=-0.07;00:00:03.400=-0.08;00:00:03.933=-0.07;00:00:04.267=-0.08;00:00:04.800=-0.09;00:00:05.300=-0.07;00:00:05.800=-0.07;00:00:06.133=-0.08;00:00:06.600=-0.07;00:00:06.967=-0.09;00:00:07.567=-0.07;00:00:07.900=-0.08;00:00:08.500=-0.065;00:00:08.867=-0.08;00:00:09.433=-0.06;00:00:09.733=-0.0753;00:00:11.600=0.04</property>
    <property name="kdenlive:collapsed">0</property>
   </filter>
  </entry>
  <blank length="00:00:12.967"/>
  <entry producer="producer131" in="00:00:00.000" out="00:00:02.633">
   <property name="kdenlive:id">137</property>
   <filter id="filter114">
    <property name="rotate_center">1</property>
    <property name="mlt_service">qtblend</property>
    <property name="kdenlive_id">qtblend</property>
    <property name="rect">00:00:00.000=1315 552 500 500 1.000000</property>
    <property name="rotation">00:00:00.000=0</property>
    <property name="compositing">0</property>
    <property name="distort">0</property>
    <property name="kdenlive:collapsed">0</property>
   </filter>
   <filter id="filter115">
    <property name="mlt_service">avfilter.unsharp</property>
    <property name="kdenlive_id">avfilter.unsharp</property>
    <property name="av.lx">5</property>
    <property name="av.ly">5</property>
    <property name="av.la">1.5</property>
    <property name="av.cx">5</property>
    <property name="av.cy">5</property>
    <property name="av.ca">2</property>
    <property name="kdenlive:collapsed">0</property>
   </filter>
  </entry>
  <entry producer="producer132" in="00:00:00.000" out="00:00:07.333">
   <property name="kdenlive:id">58</property>
   <property name="kdenlive:activeeffect">1</property>
   <filter id="filter116">
    <property name="version">0.1</property>
    <property name="mlt_service">frei0r.scale0tilt</property>
    <property name="kdenlive_id">frei0r.scale0tilt</property>
    <property name="Clip left">00:00:00.000=0.111979</property>
    <property name="Clip right">00:00:00.000=0.119792</property>
    <property name="Clip top">00:00:00.000=0</property>
    <property name="Clip bottom">00:00:00.000=0</property>
    <property name="Scale X">0.345</property>
    <property name="Scale Y">0.35</property>
    <property name="Tilt X">00:00:00.000=0.5</property>
    <property name="Tilt Y">00:00:00.000=0.5</property>
    <property name="kdenlive:collapsed">0</property>
   </filter>
   <filter id="filter117">
    <property name="rotate_center">1</property>
    <property name="mlt_service">qtblend</property>
    <property name="kdenlive_id">qtblend</property>
    <property name="rect">00:00:00.000=1242 550 944 720 1.000000</property>
    <property name="rotation">00:00:00.000=0</property>
    <property name="compositing">0</property>
    <property name="distort">0</property>
    <property name="kdenlive:collapsed">0</property>
   </filter>
   <filter id="filter118">
    <property name="mlt_service">avfilter.unsharp</property>
    <property name="kdenlive_id">avfilter.unsharp</property>
    <property name="av.lx">5</property>
    <property name="av.ly">5</property>
    <property name="av.la">0.74</property>
    <property name="av.cx">5</property>
    <property name="av.cy">5</property>
    <property name="av.ca">1.12</property>
    <property name="kdenlive:collapsed">0</property>
   </filter>
  </entry>
  <entry producer="producer15" in="00:00:00.000" out="00:00:14.933">
   <property name="kdenlive:id">97</property>
   <property name="kdenlive:activeeffect">1</property>
   <filter id="filter119">
    <property name="mlt_service">avfilter.hqx</property>
    <property name="kdenlive_id">avfilter.hqx</property>
    <property name="av.n">2</property>
    <property name="kdenlive:collapsed">0</property>
   </filter>
   <filter id="filter120">
    <property name="rotate_center">1</property>
    <property name="mlt_service">qtblend</property>
    <property name="kdenlive_id">qtblend</property>
    <property name="rect">00:00:00.000=-455 -236 3072 1728 1.000000;00:00:14.933=-550 -236 3072 1728 1.000000</property>
    <property name="rotation">00:00:00.000=0;00:00:14.933=0</property>
    <property name="compositing">0</property>
    <property name="distort">0</property>
    <property name="kdenlive:collapsed">0</property>
   </filter>
   <filter id="filter121">
    <property name="mlt_service">avfilter.unsharp</property>
    <property name="kdenlive_id">avfilter.unsharp</property>
    <property name="av.lx">5</property>
    <property name="av.ly">5</property>
    <property name="av.la">1.346</property>
    <property name="av.cx">5</property>
    <property name="av.cy">5</property>
    <property name="av.ca">1.269</property>
    <property name="kdenlive:collapsed">0</property>
   </filter>
   <filter id="filter122" out="00:00:00.100">
    <property name="start">0</property>
    <property name="mlt_service">brightness</property>
    <property name="kdenlive_id">fade_from_black</property>
    <property name="end">1</property>
    <property name="alpha">-1</property>
   </filter>
  </entry>
  <blank length="00:00:08.367"/>
  <entry producer="producer1" in="00:00:00.000" out="00:00:13.600">
   <property name="kdenlive:id">83</property>
   <filter id="filter123">
    <property name="mlt_service">avfilter.hqx</property>
    <property name="kdenlive_id">avfilter.hqx</property>
    <property name="av.n">2</property>
    <property name="kdenlive:collapsed">0</property>
   </filter>
   <filter id="filter124">
    <property name="rotate_center">1</property>
    <property name="mlt_service">qtblend</property>
    <property name="kdenlive_id">qtblend</property>
    <property name="rect">00:00:00.000=-450 -236 3072 1728 1.000000;00:00:13.600=-376 -193 2688 1512 1.000000;00:00:14.100=</property>
    <property name="rotation">00:00:00.000=0;00:00:13.600=0;00:00:14.100=</property>
    <property name="compositing">0</property>
    <property name="distort">0</property>
    <property name="kdenlive:collapsed">0</property>
   </filter>
   <filter id="filter125">
    <property name="mlt_service">avfilter.unsharp</property>
    <property name="kdenlive_id">avfilter.unsharp</property>
    <property name="av.lx">5</property>
    <property name="av.ly">5</property>
    <property name="av.la">1.346</property>
    <property name="av.cx">5</property>
    <property name="av.cy">5</property>
    <property name="av.ca">1.269</property>
    <property name="kdenlive:collapsed">0</property>
   </filter>
  </entry>
  <blank length="00:01:05.400"/>
  <entry producer="producer116" in="00:00:00.000" out="00:00:08.567">
   <property name="kdenlive:id">48</property>
   <filter id="filter36">
    <property name="mlt_service">avfilter.unsharp</property>
    <property name="kdenlive_id">avfilter.unsharp</property>
    <property name="av.lx">5</property>
    <property name="av.ly">5</property>
    <property name="av.la">1.2</property>
    <property name="av.cx">5</property>
    <property name="av.cy">5</property>
    <property name="av.ca">1.2</property>
    <property name="kdenlive:collapsed">0</property>
   </filter>
   <filter id="filter37">
    <property name="rotate_center">1</property>
    <property name="mlt_service">qtblend</property>
    <property name="kdenlive_id">qtblend</property>
    <property name="rect">00:00:00.000=272 0 1920 1080 1.000000</property>
    <property name="rotation">00:00:00.000=0</property>
    <property name="compositing">0</property>
    <property name="distort">0</property>
    <property name="kdenlive:collapsed">0</property>
   </filter>
  </entry>
  <blank length="00:00:01.567"/>
  <entry producer="producer117" in="00:00:00.000" out="00:00:06.667">
   <property name="kdenlive:id">46</property>
   <filter id="filter38">
    <property name="mlt_service">avfilter.unsharp</property>
    <property name="kdenlive_id">avfilter.unsharp</property>
    <property name="av.lx">5</property>
    <property name="av.ly">5</property>
    <property name="av.la">2</property>
    <property name="av.cx">5</property>
    <property name="av.cy">5</property>
    <property name="av.ca">2</property>
    <property name="kdenlive:collapsed">0</property>
   </filter>
   <filter id="filter39">
    <property name="rotate_center">1</property>
    <property name="mlt_service">qtblend</property>
    <property name="kdenlive_id">qtblend</property>
    <property name="rect">00:00:00.000=272 0 1920 1080 1.000000</property>
    <property name="rotation">00:00:00.000=0</property>
    <property name="compositing">0</property>
    <property name="distort">0</property>
    <property name="kdenlive:collapsed">0</property>
   </filter>
  </entry>
  <blank length="00:00:01.167"/>
  <entry producer="producer118" in="00:00:00.000" out="00:00:06.033">
   <property name="kdenlive:id">35</property>
   <filter id="filter40">
    <property name="mlt_service">avfilter.unsharp</property>
    <property name="kdenlive_id">avfilter.unsharp</property>
    <property name="av.lx">5</property>
    <property name="av.ly">5</property>
    <property name="av.la">1.5</property>
    <property name="av.cx">5</property>
    <property name="av.cy">5</property>
    <property name="av.ca">1.5</property>
    <property name="kdenlive:collapsed">0</property>
   </filter>
   <filter id="filter41">
    <property name="rotate_center">1</property>
    <property name="mlt_service">qtblend</property>
    <property name="kdenlive_id">qtblend</property>
    <property name="rect">00:00:00.000=247 0 1920 1080 1.000000</property>
    <property name="rotation">00:00:00.000=0</property>
    <property name="compositing">0</property>
    <property name="distort">0</property>
    <property name="kdenlive:collapsed">0</property>
   </filter>
  </entry>
  <blank length="00:00:00.900"/>
  <entry producer="producer119" in="00:00:00.000" out="00:00:08.467">
   <property name="kdenlive:id">33</property>
   <filter id="filter42">
    <property name="mlt_service">avfilter.unsharp</property>
    <property name="kdenlive_id">avfilter.unsharp</property>
    <property name="av.lx">5</property>
    <property name="av.ly">5</property>
    <property name="av.la">1.5</property>
    <property name="av.cx">5</property>
    <property name="av.cy">5</property>
    <property name="av.ca">1.5</property>
    <property name="kdenlive:collapsed">0</property>
   </filter>
   <filter id="filter43">
    <property name="rotate_center">1</property>
    <property name="mlt_service">qtblend</property>
    <property name="kdenlive_id">qtblend</property>
    <property name="rect">00:00:00.000=274 0 1920 1080 1.000000;00:00:08.467=-53 -72 2304 1296 1.000000</property>
    <property name="rotation">00:00:00.000=0;00:00:08.467=0</property>
    <property name="compositing">0</property>
    <property name="distort">0</property>
    <property name="kdenlive:collapsed">0</property>
   </filter>
  </entry>
  <blank length="00:00:01.167"/>
  <entry producer="producer120" in="00:00:00.000" out="00:00:08.933">
   <property name="kdenlive:id">43</property>
   <filter id="filter44">
    <property name="mlt_service">avfilter.unsharp</property>
    <property name="kdenlive_id">avfilter.unsharp</property>
    <property name="av.lx">5</property>
    <property name="av.ly"/>
    <property name="av.la">1.395</property>
    <property name="av.cx">5</property>
    <property name="av.cy">5</property>
    <property name="av.ca">2.431</property>
    <property name="kdenlive:collapsed">0</property>
   </filter>
   <filter id="filter45">
    <property name="rotate_center">1</property>
    <property name="mlt_service">qtblend</property>
    <property name="kdenlive_id">qtblend</property>
    <property name="rect">0=-28 -213 2304 1296 1.000000;268=270 0 1920 1080 1.000000</property>
    <property name="rotation">0=0;268=0</property>
    <property name="compositing">0</property>
    <property name="distort">0</property>
    <property name="kdenlive:collapsed">0</property>
   </filter>
  </entry>
 </playlist>
 <playlist id="playlist7"/>
 <tractor id="tractor3" in="00:00:00.000" out="00:08:02.933">
  <property name="kdenlive:trackheight">69</property>
  <property name="kdenlive:timeline_active">1</property>
  <property name="kdenlive:collapsed">0</property>
  <property name="kdenlive:track_name">paintings</property>
  <property name="kdenlive:thumbs_format"/>
  <property name="kdenlive:audio_rec"/>
  <track hide="audio" producer="playlist6"/>
  <track producer="playlist7"/>
 </tractor>
 <producer id="producer121" in="00:00:00.000" out="00:00:39.733">
  <property name="length">1193</property>
  <property name="eof">pause</property>
  <property name="resource">content/consingan_paintings/snowy_fallen_tree_2.mp4</property>
  <property name="audio_index">-1</property>
  <property name="video_index">0</property>
  <property name="mute_on_pause">0</property>
  <property name="mlt_service">avformat-novalidate</property>
  <property name="seekable">1</property>
  <property name="aspect_ratio">1</property>
  <property name="kdenlive:clipname">snowy_fallen_tree_2.mp4</property>
  <property name="kdenlive:folderid">31</property>
  <property name="kdenlive:id">53</property>
  <property name="kdenlive:file_size">8833515</property>
  <property name="global_feed">1</property>
  <property name="kdenlive:file_hash">f7262e64125b84fba5458d96d1f61c02</property>
  <property name="xml">was here</property>
  <property name="meta.media.nb_streams">1</property>
  <property name="meta.media.0.stream.type">video</property>
  <property name="meta.media.0.stream.frame_rate">30</property>
  <property name="meta.media.0.stream.sample_aspect_ratio">0</property>
  <property name="meta.media.0.codec.width">912</property>
  <property name="meta.media.0.codec.height">720</property>
  <property name="meta.media.0.codec.rotate">0</property>
  <property name="meta.media.0.codec.frame_rate">30</property>
  <property name="meta.media.0.codec.pix_fmt">yuv420p</property>
  <property name="meta.media.0.codec.sample_aspect_ratio">0</property>
  <property name="meta.media.0.codec.colorspace">601</property>
  <property name="meta.media.0.codec.name">h264</property>
  <property name="meta.media.0.codec.long_name">H.264 / AVC / MPEG-4 AVC / MPEG-4 part 10</property>
  <property name="meta.media.0.codec.bit_rate">1773998</property>
  <property name="meta.attr.0.stream.handler_name.markup">VideoHandler</property>
  <property name="meta.attr.major_brand.markup">isom</property>
  <property name="meta.attr.minor_version.markup">512</property>
  <property name="meta.attr.compatible_brands.markup">isomiso2avc1mp41</property>
  <property name="meta.attr.encoder.markup">Lavf58.29.100</property>
  <property name="meta.media.sample_aspect_num">1</property>
  <property name="meta.media.sample_aspect_den">1</property>
  <property name="meta.media.frame_rate_num">30</property>
  <property name="meta.media.frame_rate_den">1</property>
  <property name="meta.media.colorspace">601</property>
  <property name="meta.media.color_trc">2</property>
  <property name="meta.media.width">912</property>
  <property name="meta.media.height">720</property>
  <property name="meta.media.color_range">mpeg</property>
  <property name="meta.media.top_field_first">0</property>
  <property name="meta.media.progressive">1</property>
  <property name="set.test_audio">1</property>
  <property name="set.test_image">0</property>
 </producer>
 <producer id="producer122" in="00:00:00.000" out="00:00:39.733">
  <property name="length">1193</property>
  <property name="eof">pause</property>
  <property name="resource">content/consingan_paintings/fall_shadows_2.mp4</property>
  <property name="audio_index">-1</property>
  <property name="video_index">0</property>
  <property name="mute_on_pause">0</property>
  <property name="mlt_service">avformat-novalidate</property>
  <property name="seekable">1</property>
  <property name="aspect_ratio">1</property>
  <property name="kdenlive:clipname">fall_shadows_2.mp4</property>
  <property name="kdenlive:folderid">31</property>
  <property name="kdenlive:id">37</property>
  <property name="kdenlive:file_size">2834388</property>
  <property name="global_feed">1</property>
  <property name="kdenlive:file_hash">05884d887b747bd03fb2888e8eb8667d</property>
  <property name="xml">was here</property>
  <property name="meta.media.nb_streams">1</property>
  <property name="meta.media.0.stream.type">video</property>
  <property name="meta.media.0.stream.frame_rate">30</property>
  <property name="meta.media.0.stream.sample_aspect_ratio">0</property>
  <property name="meta.media.0.codec.width">912</property>
  <property name="meta.media.0.codec.height">720</property>
  <property name="meta.media.0.codec.rotate">0</property>
  <property name="meta.media.0.codec.frame_rate">30</property>
  <property name="meta.media.0.codec.pix_fmt">yuv420p</property>
  <property name="meta.media.0.codec.sample_aspect_ratio">0</property>
  <property name="meta.media.0.codec.colorspace">601</property>
  <property name="meta.media.0.codec.name">h264</property>
  <property name="meta.media.0.codec.long_name">H.264 / AVC / MPEG-4 AVC / MPEG-4 part 10</property>
  <property name="meta.media.0.codec.bit_rate">567152</property>
  <property name="meta.attr.0.stream.handler_name.markup">VideoHandler</property>
  <property name="meta.attr.major_brand.markup">isom</property>
  <property name="meta.attr.minor_version.markup">512</property>
  <property name="meta.attr.compatible_brands.markup">isomiso2avc1mp41</property>
  <property name="meta.attr.encoder.markup">Lavf58.29.100</property>
  <property name="meta.media.sample_aspect_num">1</property>
  <property name="meta.media.sample_aspect_den">1</property>
  <property name="meta.media.frame_rate_num">30</property>
  <property name="meta.media.frame_rate_den">1</property>
  <property name="meta.media.colorspace">601</property>
  <property name="meta.media.color_trc">2</property>
  <property name="meta.media.width">912</property>
  <property name="meta.media.height">720</property>
  <property name="meta.media.color_range">mpeg</property>
  <property name="meta.media.top_field_first">0</property>
  <property name="meta.media.progressive">1</property>
  <property name="set.test_audio">1</property>
  <property name="set.test_image">0</property>
 </producer>
 <producer id="producer123" in="00:00:00.000" out="00:00:39.733">
  <property name="length">1193</property>
  <property name="eof">pause</property>
  <property name="resource">content/consingan_paintings/fall_sparkles_1.mp4</property>
  <property name="audio_index">-1</property>
  <property name="video_index">0</property>
  <property name="mute_on_pause">0</property>
  <property name="mlt_service">avformat-novalidate</property>
  <property name="seekable">1</property>
  <property name="aspect_ratio">1</property>
  <property name="kdenlive:clipname">fall_sparkles_1.mp4</property>
  <property name="kdenlive:folderid">31</property>
  <property name="kdenlive:id">38</property>
  <property name="kdenlive:file_size">6955184</property>
  <property name="global_feed">1</property>
  <property name="kdenlive:file_hash">09da97083ef63b56a824fcac913f6ac4</property>
  <property name="xml">was here</property>
  <property name="meta.media.nb_streams">1</property>
  <property name="meta.media.0.stream.type">video</property>
  <property name="meta.media.0.stream.frame_rate">30</property>
  <property name="meta.media.0.stream.sample_aspect_ratio">0</property>
  <property name="meta.media.0.codec.width">928</property>
  <property name="meta.media.0.codec.height">720</property>
  <property name="meta.media.0.codec.rotate">0</property>
  <property name="meta.media.0.codec.frame_rate">30</property>
  <property name="meta.media.0.codec.pix_fmt">yuv420p</property>
  <property name="meta.media.0.codec.sample_aspect_ratio">0</property>
  <property name="meta.media.0.codec.colorspace">601</property>
  <property name="meta.media.0.codec.name">h264</property>
  <property name="meta.media.0.codec.long_name">H.264 / AVC / MPEG-4 AVC / MPEG-4 part 10</property>
  <property name="meta.media.0.codec.bit_rate">1396139</property>
  <property name="meta.attr.0.stream.handler_name.markup">VideoHandler</property>
  <property name="meta.attr.major_brand.markup">isom</property>
  <property name="meta.attr.minor_version.markup">512</property>
  <property name="meta.attr.compatible_brands.markup">isomiso2avc1mp41</property>
  <property name="meta.attr.encoder.markup">Lavf58.29.100</property>
  <property name="meta.media.sample_aspect_num">1</property>
  <property name="meta.media.sample_aspect_den">1</property>
  <property name="meta.media.frame_rate_num">30</property>
  <property name="meta.media.frame_rate_den">1</property>
  <property name="meta.media.colorspace">601</property>
  <property name="meta.media.color_trc">2</property>
  <property name="meta.media.width">928</property>
  <property name="meta.media.height">720</property>
  <property name="meta.media.color_range">mpeg</property>
  <property name="meta.media.top_field_first">0</property>
  <property name="meta.media.progressive">1</property>
  <property name="set.test_audio">1</property>
  <property name="set.test_image">0</property>
 </producer>
 <producer id="producer124" in="00:00:00.000" out="00:00:39.733">
  <property name="length">1193</property>
  <property name="eof">pause</property>
  <property name="resource">content/consingan_paintings/fall_fence_2.mp4</property>
  <property name="audio_index">-1</property>
  <property name="video_index">0</property>
  <property name="mute_on_pause">0</property>
  <property name="mlt_service">avformat-novalidate</property>
  <property name="seekable">1</property>
  <property name="aspect_ratio">1</property>
  <property name="kdenlive:clipname">fall_fence_2.mp4</property>
  <property name="kdenlive:folderid">31</property>
  <property name="kdenlive:id">35</property>
  <property name="kdenlive:file_size">6393076</property>
  <property name="global_feed">1</property>
  <property name="kdenlive:file_hash">3d80306b87607012f8aab759b4735cc1</property>
  <property name="xml">was here</property>
  <property name="meta.media.nb_streams">1</property>
  <property name="meta.media.0.stream.type">video</property>
  <property name="meta.media.0.stream.frame_rate">30</property>
  <property name="meta.media.0.stream.sample_aspect_ratio">0</property>
  <property name="meta.media.0.codec.width">944</property>
  <property name="meta.media.0.codec.height">720</property>
  <property name="meta.media.0.codec.rotate">0</property>
  <property name="meta.media.0.codec.frame_rate">30</property>
  <property name="meta.media.0.codec.pix_fmt">yuv420p</property>
  <property name="meta.media.0.codec.sample_aspect_ratio">0</property>
  <property name="meta.media.0.codec.colorspace">601</property>
  <property name="meta.media.0.codec.name">h264</property>
  <property name="meta.media.0.codec.long_name">H.264 / AVC / MPEG-4 AVC / MPEG-4 part 10</property>
  <property name="meta.media.0.codec.bit_rate">1283056</property>
  <property name="meta.attr.0.stream.handler_name.markup">VideoHandler</property>
  <property name="meta.attr.major_brand.markup">isom</property>
  <property name="meta.attr.minor_version.markup">512</property>
  <property name="meta.attr.compatible_brands.markup">isomiso2avc1mp41</property>
  <property name="meta.attr.encoder.markup">Lavf58.29.100</property>
  <property name="meta.media.sample_aspect_num">1</property>
  <property name="meta.media.sample_aspect_den">1</property>
  <property name="meta.media.frame_rate_num">30</property>
  <property name="meta.media.frame_rate_den">1</property>
  <property name="meta.media.colorspace">601</property>
  <property name="meta.media.color_trc">2</property>
  <property name="meta.media.width">944</property>
  <property name="meta.media.height">720</property>
  <property name="meta.media.color_range">mpeg</property>
  <property name="meta.media.top_field_first">0</property>
  <property name="meta.media.progressive">1</property>
  <property name="set.test_audio">1</property>
  <property name="set.test_image">1</property>
 </producer>
 <producer id="producer125" in="00:00:00.000" out="00:00:39.733">
  <property name="length">1193</property>
  <property name="eof">pause</property>
  <property name="resource">content/consingan_paintings/rocky_hill_1.mp4</property>
  <property name="audio_index">-1</property>
  <property name="video_index">0</property>
  <property name="mute_on_pause">0</property>
  <property name="mlt_service">avformat-novalidate</property>
  <property name="seekable">1</property>
  <property name="aspect_ratio">1</property>
  <property name="kdenlive:clipname">rocky_hill_1.mp4</property>
  <property name="kdenlive:folderid">31</property>
  <property name="kdenlive:id">46</property>
  <property name="kdenlive:file_size">10375525</property>
  <property name="global_feed">1</property>
  <property name="kdenlive:file_hash">3c6bdc25c2d9b880f23a6580792dfd4d</property>
  <property name="xml">was here</property>
  <property name="meta.media.nb_streams">1</property>
  <property name="meta.media.0.stream.type">video</property>
  <property name="meta.media.0.stream.frame_rate">30</property>
  <property name="meta.media.0.stream.sample_aspect_ratio">0</property>
  <property name="meta.media.0.codec.width">912</property>
  <property name="meta.media.0.codec.height">720</property>
  <property name="meta.media.0.codec.rotate">0</property>
  <property name="meta.media.0.codec.frame_rate">30</property>
  <property name="meta.media.0.codec.pix_fmt">yuv420p</property>
  <property name="meta.media.0.codec.sample_aspect_ratio">0</property>
  <property name="meta.media.0.codec.colorspace">601</property>
  <property name="meta.media.0.codec.name">h264</property>
  <property name="meta.media.0.codec.long_name">H.264 / AVC / MPEG-4 AVC / MPEG-4 part 10</property>
  <property name="meta.media.0.codec.bit_rate">2084207</property>
  <property name="meta.attr.0.stream.handler_name.markup">VideoHandler</property>
  <property name="meta.attr.major_brand.markup">isom</property>
  <property name="meta.attr.minor_version.markup">512</property>
  <property name="meta.attr.compatible_brands.markup">isomiso2avc1mp41</property>
  <property name="meta.attr.encoder.markup">Lavf58.29.100</property>
  <property name="meta.media.sample_aspect_num">1</property>
  <property name="meta.media.sample_aspect_den">1</property>
  <property name="meta.media.frame_rate_num">30</property>
  <property name="meta.media.frame_rate_den">1</property>
  <property name="meta.media.colorspace">601</property>
  <property name="meta.media.color_trc">2</property>
  <property name="meta.media.width">912</property>
  <property name="meta.media.height">720</property>
  <property name="meta.media.color_range">mpeg</property>
  <property name="meta.media.top_field_first">0</property>
  <property name="meta.media.progressive">1</property>
  <property name="set.test_audio">1</property>
  <property name="set.test_image">1</property>
 </producer>
 <producer id="producer133" in="00:00:00.000" out="00:00:39.733">
  <property name="length">1193</property>
  <property name="eof">pause</property>
  <property name="resource">content/consingan_paintings/rowboats_1.mp4</property>
  <property name="audio_index">-1</property>
  <property name="video_index">0</property>
  <property name="mute_on_pause">0</property>
  <property name="mlt_service">avformat-novalidate</property>
  <property name="seekable">1</property>
  <property name="aspect_ratio">1</property>
  <property name="kdenlive:clipname">rowboats_1.mp4</property>
  <property name="kdenlive:folderid">31</property>
  <property name="kdenlive:id">48</property>
  <property name="kdenlive:file_size">10930039</property>
  <property name="global_feed">1</property>
  <property name="kdenlive:file_hash">0e6295d7066a422ddf35d168e7de0153</property>
  <property name="xml">was here</property>
  <property name="meta.media.nb_streams">1</property>
  <property name="meta.media.0.stream.type">video</property>
  <property name="meta.media.0.stream.frame_rate">30</property>
  <property name="meta.media.0.stream.sample_aspect_ratio">0</property>
  <property name="meta.media.0.codec.width">912</property>
  <property name="meta.media.0.codec.height">720</property>
  <property name="meta.media.0.codec.rotate">0</property>
  <property name="meta.media.0.codec.frame_rate">30</property>
  <property name="meta.media.0.codec.pix_fmt">yuv420p</property>
  <property name="meta.media.0.codec.sample_aspect_ratio">0</property>
  <property name="meta.media.0.codec.colorspace">601</property>
  <property name="meta.media.0.codec.name">h264</property>
  <property name="meta.media.0.codec.long_name">H.264 / AVC / MPEG-4 AVC / MPEG-4 part 10</property>
  <property name="meta.media.0.codec.bit_rate">2195757</property>
  <property name="meta.attr.0.stream.handler_name.markup">VideoHandler</property>
  <property name="meta.attr.major_brand.markup">isom</property>
  <property name="meta.attr.minor_version.markup">512</property>
  <property name="meta.attr.compatible_brands.markup">isomiso2avc1mp41</property>
  <property name="meta.attr.encoder.markup">Lavf58.29.100</property>
  <property name="meta.media.sample_aspect_num">1</property>
  <property name="meta.media.sample_aspect_den">1</property>
  <property name="meta.media.frame_rate_num">30</property>
  <property name="meta.media.frame_rate_den">1</property>
  <property name="meta.media.colorspace">601</property>
  <property name="meta.media.color_trc">2</property>
  <property name="meta.media.width">912</property>
  <property name="meta.media.height">720</property>
  <property name="meta.media.color_range">mpeg</property>
  <property name="meta.media.top_field_first">0</property>
  <property name="meta.media.progressive">1</property>
  <property name="set.test_audio">1</property>
  <property name="set.test_image">1</property>
 </producer>
 <producer id="producer134" in="00:00:00.000" out="00:00:39.733">
  <property name="length">1193</property>
  <property name="eof">pause</property>
  <property name="resource">content/consingan_paintings/fall_clouds_2.mp4</property>
  <property name="audio_index">-1</property>
  <property name="video_index">0</property>
  <property name="mute_on_pause">0</property>
  <property name="mlt_service">avformat-novalidate</property>
  <property name="seekable">1</property>
  <property name="aspect_ratio">1</property>
  <property name="kdenlive:clipname">fall_clouds_2.mp4</property>
  <property name="kdenlive:folderid">31</property>
  <property name="kdenlive:id">33</property>
  <property name="kdenlive:file_size">8981600</property>
  <property name="global_feed">1</property>
  <property name="kdenlive:file_hash">c2fcd70760c77c8044e5bf85db4cf3ad</property>
  <property name="xml">was here</property>
  <property name="meta.media.nb_streams">1</property>
  <property name="meta.media.0.stream.type">video</property>
  <property name="meta.media.0.stream.frame_rate">30</property>
  <property name="meta.media.0.stream.sample_aspect_ratio">0</property>
  <property name="meta.media.0.codec.width">912</property>
  <property name="meta.media.0.codec.height">720</property>
  <property name="meta.media.0.codec.rotate">0</property>
  <property name="meta.media.0.codec.frame_rate">30</property>
  <property name="meta.media.0.codec.pix_fmt">yuv420p</property>
  <property name="meta.media.0.codec.sample_aspect_ratio">0</property>
  <property name="meta.media.0.codec.colorspace">601</property>
  <property name="meta.media.0.codec.name">h264</property>
  <property name="meta.media.0.codec.long_name">H.264 / AVC / MPEG-4 AVC / MPEG-4 part 10</property>
  <property name="meta.media.0.codec.bit_rate">1803789</property>
  <property name="meta.attr.0.stream.handler_name.markup">VideoHandler</property>
  <property name="meta.attr.major_brand.markup">isom</property>
  <property name="meta.attr.minor_version.markup">512</property>
  <property name="meta.attr.compatible_brands.markup">isomiso2avc1mp41</property>
  <property name="meta.attr.encoder.markup">Lavf58.29.100</property>
  <property name="meta.media.sample_aspect_num">1</property>
  <property name="meta.media.sample_aspect_den">1</property>
  <property name="meta.media.frame_rate_num">30</property>
  <property name="meta.media.frame_rate_den">1</property>
  <property name="meta.media.colorspace">601</property>
  <property name="meta.media.color_trc">2</property>
  <property name="meta.media.width">912</property>
  <property name="meta.media.height">720</property>
  <property name="meta.media.color_range">mpeg</property>
  <property name="meta.media.top_field_first">0</property>
  <property name="meta.media.progressive">1</property>
  <property name="set.test_audio">1</property>
  <property name="set.test_image">1</property>
 </producer>
 <producer id="producer135" in="00:00:00.000" out="00:00:39.733">
  <property name="length">1193</property>
  <property name="eof">pause</property>
  <property name="resource">content/consingan_paintings/garage_2.mp4</property>
  <property name="audio_index">-1</property>
  <property name="video_index">0</property>
  <property name="mute_on_pause">0</property>
  <property name="mlt_service">avformat-novalidate</property>
  <property name="seekable">1</property>
  <property name="aspect_ratio">1</property>
  <property name="kdenlive:clipname">garage_2.mp4</property>
  <property name="kdenlive:folderid">31</property>
  <property name="kdenlive:id">43</property>
  <property name="kdenlive:file_size">8287805</property>
  <property name="global_feed">1</property>
  <property name="kdenlive:file_hash">c18882c14c64218e467f56fcbeceb2ae</property>
  <property name="xml">was here</property>
  <property name="meta.media.nb_streams">1</property>
  <property name="meta.media.0.stream.type">video</property>
  <property name="meta.media.0.stream.frame_rate">30</property>
  <property name="meta.media.0.stream.sample_aspect_ratio">0</property>
  <property name="meta.media.0.codec.width">912</property>
  <property name="meta.media.0.codec.height">720</property>
  <property name="meta.media.0.codec.rotate">0</property>
  <property name="meta.media.0.codec.frame_rate">30</property>
  <property name="meta.media.0.codec.pix_fmt">yuv420p</property>
  <property name="meta.media.0.codec.sample_aspect_ratio">0</property>
  <property name="meta.media.0.codec.colorspace">601</property>
  <property name="meta.media.0.codec.name">h264</property>
  <property name="meta.media.0.codec.long_name">H.264 / AVC / MPEG-4 AVC / MPEG-4 part 10</property>
  <property name="meta.media.0.codec.bit_rate">1664219</property>
  <property name="meta.attr.0.stream.handler_name.markup">VideoHandler</property>
  <property name="meta.attr.major_brand.markup">isom</property>
  <property name="meta.attr.minor_version.markup">512</property>
  <property name="meta.attr.compatible_brands.markup">isomiso2avc1mp41</property>
  <property name="meta.attr.encoder.markup">Lavf58.29.100</property>
  <property name="meta.media.sample_aspect_num">1</property>
  <property name="meta.media.sample_aspect_den">1</property>
  <property name="meta.media.frame_rate_num">30</property>
  <property name="meta.media.frame_rate_den">1</property>
  <property name="meta.media.colorspace">601</property>
  <property name="meta.media.color_trc">2</property>
  <property name="meta.media.width">912</property>
  <property name="meta.media.height">720</property>
  <property name="meta.media.color_range">mpeg</property>
  <property name="meta.media.top_field_first">0</property>
  <property name="meta.media.progressive">1</property>
  <property name="set.test_audio">1</property>
  <property name="set.test_image">1</property>
 </producer>
 <producer id="producer136" in="00:00:00.000" out="00:00:39.733">
  <property name="length">1193</property>
  <property name="eof">pause</property>
  <property name="resource">content/consingan_paintings/river_church_1.mp4</property>
  <property name="audio_index">-1</property>
  <property name="video_index">0</property>
  <property name="mute_on_pause">0</property>
  <property name="mlt_service">avformat-novalidate</property>
  <property name="seekable">1</property>
  <property name="aspect_ratio">1</property>
  <property name="kdenlive:clipname">river_church_1.mp4</property>
  <property name="kdenlive:folderid">31</property>
  <property name="kdenlive:id">44</property>
  <property name="kdenlive:file_size">3566331</property>
  <property name="global_feed">1</property>
  <property name="kdenlive:file_hash">d24aaf6ad7e647743eef5314031212cd</property>
  <property name="xml">was here</property>
  <property name="meta.media.nb_streams">1</property>
  <property name="meta.media.0.stream.type">video</property>
  <property name="meta.media.0.stream.frame_rate">30</property>
  <property name="meta.media.0.stream.sample_aspect_ratio">0</property>
  <property name="meta.media.0.codec.width">896</property>
  <property name="meta.media.0.codec.height">720</property>
  <property name="meta.media.0.codec.rotate">0</property>
  <property name="meta.media.0.codec.frame_rate">30</property>
  <property name="meta.media.0.codec.pix_fmt">yuv420p</property>
  <property name="meta.media.0.codec.sample_aspect_ratio">0</property>
  <property name="meta.media.0.codec.colorspace">601</property>
  <property name="meta.media.0.codec.name">h264</property>
  <property name="meta.media.0.codec.long_name">H.264 / AVC / MPEG-4 AVC / MPEG-4 part 10</property>
  <property name="meta.media.0.codec.bit_rate">714397</property>
  <property name="meta.attr.0.stream.handler_name.markup">VideoHandler</property>
  <property name="meta.attr.major_brand.markup">isom</property>
  <property name="meta.attr.minor_version.markup">512</property>
  <property name="meta.attr.compatible_brands.markup">isomiso2avc1mp41</property>
  <property name="meta.attr.encoder.markup">Lavf58.29.100</property>
  <property name="meta.media.sample_aspect_num">1</property>
  <property name="meta.media.sample_aspect_den">1</property>
  <property name="meta.media.frame_rate_num">30</property>
  <property name="meta.media.frame_rate_den">1</property>
  <property name="meta.media.colorspace">601</property>
  <property name="meta.media.color_trc">2</property>
  <property name="meta.media.width">896</property>
  <property name="meta.media.height">720</property>
  <property name="meta.media.color_range">mpeg</property>
  <property name="meta.media.top_field_first">0</property>
  <property name="meta.media.progressive">1</property>
  <property name="set.test_audio">1</property>
  <property name="set.test_image">0</property>
 </producer>
 <producer id="producer137" in="00:00:00.000" out="00:00:39.733">
  <property name="length">1193</property>
  <property name="eof">pause</property>
  <property name="resource">content/consingan_paintings/reflections_2.mp4</property>
  <property name="audio_index">-1</property>
  <property name="video_index">0</property>
  <property name="mute_on_pause">0</property>
  <property name="mlt_service">avformat-novalidate</property>
  <property name="seekable">1</property>
  <property name="aspect_ratio">1</property>
  <property name="kdenlive:clipname">reflections_2.mp4</property>
  <property name="kdenlive:folderid">31</property>
  <property name="kdenlive:id">63</property>
  <property name="kdenlive:file_size">8863580</property>
  <property name="global_feed">1</property>
  <property name="kdenlive:file_hash">6bd201cc128fdf17ee0825cc82c258d8</property>
  <property name="xml">was here</property>
  <property name="meta.media.nb_streams">1</property>
  <property name="meta.media.0.stream.type">video</property>
  <property name="meta.media.0.stream.frame_rate">30</property>
  <property name="meta.media.0.stream.sample_aspect_ratio">0</property>
  <property name="meta.media.0.codec.width">944</property>
  <property name="meta.media.0.codec.height">720</property>
  <property name="meta.media.0.codec.rotate">0</property>
  <property name="meta.media.0.codec.frame_rate">30</property>
  <property name="meta.media.0.codec.pix_fmt">yuv420p</property>
  <property name="meta.media.0.codec.sample_aspect_ratio">0</property>
  <property name="meta.media.0.codec.colorspace">601</property>
  <property name="meta.media.0.codec.name">h264</property>
  <property name="meta.media.0.codec.long_name">H.264 / AVC / MPEG-4 AVC / MPEG-4 part 10</property>
  <property name="meta.media.0.codec.bit_rate">1780047</property>
  <property name="meta.attr.0.stream.handler_name.markup">VideoHandler</property>
  <property name="meta.attr.major_brand.markup">isom</property>
  <property name="meta.attr.minor_version.markup">512</property>
  <property name="meta.attr.compatible_brands.markup">isomiso2avc1mp41</property>
  <property name="meta.attr.encoder.markup">Lavf58.29.100</property>
  <property name="meta.media.sample_aspect_num">1</property>
  <property name="meta.media.sample_aspect_den">1</property>
  <property name="meta.media.frame_rate_num">30</property>
  <property name="meta.media.frame_rate_den">1</property>
  <property name="meta.media.colorspace">601</property>
  <property name="meta.media.color_trc">2</property>
  <property name="meta.media.width">944</property>
  <property name="meta.media.height">720</property>
  <property name="meta.media.color_range">mpeg</property>
  <property name="meta.media.top_field_first">0</property>
  <property name="meta.media.progressive">1</property>
  <property name="set.test_audio">1</property>
  <property name="set.test_image">0</property>
 </producer>
 <producer id="producer151" in="00:00:00.000" out="00:00:39.733">
  <property name="length">1193</property>
  <property name="eof">pause</property>
  <property name="resource">content/consingan_paintings/summer_trees_1.mp4</property>
  <property name="audio_index">-1</property>
  <property name="video_index">0</property>
  <property name="mute_on_pause">0</property>
  <property name="mlt_service">avformat-novalidate</property>
  <property name="seekable">1</property>
  <property name="aspect_ratio">1</property>
  <property name="kdenlive:clipname">summer_trees_1.mp4</property>
  <property name="kdenlive:folderid">31</property>
  <property name="kdenlive:id">56</property>
  <property name="kdenlive:file_size">5956097</property>
  <property name="global_feed">1</property>
  <property name="kdenlive:file_hash">5dd9e6db620b0ec18de076c8c58b1634</property>
  <property name="xml">was here</property>
  <property name="meta.media.nb_streams">1</property>
  <property name="meta.media.0.stream.type">video</property>
  <property name="meta.media.0.stream.frame_rate">30</property>
  <property name="meta.media.0.stream.sample_aspect_ratio">0</property>
  <property name="meta.media.0.codec.width">912</property>
  <property name="meta.media.0.codec.height">720</property>
  <property name="meta.media.0.codec.rotate">0</property>
  <property name="meta.media.0.codec.frame_rate">30</property>
  <property name="meta.media.0.codec.pix_fmt">yuv420p</property>
  <property name="meta.media.0.codec.sample_aspect_ratio">0</property>
  <property name="meta.media.0.codec.colorspace">601</property>
  <property name="meta.media.0.codec.name">h264</property>
  <property name="meta.media.0.codec.long_name">H.264 / AVC / MPEG-4 AVC / MPEG-4 part 10</property>
  <property name="meta.media.0.codec.bit_rate">1195148</property>
  <property name="meta.attr.0.stream.handler_name.markup">VideoHandler</property>
  <property name="meta.attr.major_brand.markup">isom</property>
  <property name="meta.attr.minor_version.markup">512</property>
  <property name="meta.attr.compatible_brands.markup">isomiso2avc1mp41</property>
  <property name="meta.attr.encoder.markup">Lavf58.29.100</property>
  <property name="meta.media.sample_aspect_num">1</property>
  <property name="meta.media.sample_aspect_den">1</property>
  <property name="meta.media.frame_rate_num">30</property>
  <property name="meta.media.frame_rate_den">1</property>
  <property name="meta.media.colorspace">601</property>
  <property name="meta.media.color_trc">2</property>
  <property name="meta.media.width">912</property>
  <property name="meta.media.height">720</property>
  <property name="meta.media.color_range">mpeg</property>
  <property name="meta.media.top_field_first">0</property>
  <property name="meta.media.progressive">1</property>
  <property name="set.test_audio">1</property>
  <property name="set.test_image">0</property>
 </producer>
 <producer id="producer138" in="00:00:00.000" out="00:00:39.733">
  <property name="length">1193</property>
  <property name="eof">pause</property>
  <property name="resource">content/consingan_paintings/seaman_1.mp4</property>
  <property name="audio_index">-1</property>
  <property name="video_index">0</property>
  <property name="mute_on_pause">0</property>
  <property name="mlt_service">avformat-novalidate</property>
  <property name="seekable">1</property>
  <property name="aspect_ratio">1</property>
  <property name="kdenlive:clipname">seaman_1.mp4</property>
  <property name="kdenlive:folderid">31</property>
  <property name="kdenlive:id">50</property>
  <property name="kdenlive:file_size">6518942</property>
  <property name="global_feed">1</property>
  <property name="kdenlive:file_hash">eeb4b30da340dd115f8496000c71625c</property>
  <property name="xml">was here</property>
  <property name="meta.media.nb_streams">1</property>
  <property name="meta.media.0.stream.type">video</property>
  <property name="meta.media.0.stream.frame_rate">30</property>
  <property name="meta.media.0.stream.sample_aspect_ratio">0</property>
  <property name="meta.media.0.codec.width">912</property>
  <property name="meta.media.0.codec.height">720</property>
  <property name="meta.media.0.codec.rotate">0</property>
  <property name="meta.media.0.codec.frame_rate">30</property>
  <property name="meta.media.0.codec.pix_fmt">yuv420p</property>
  <property name="meta.media.0.codec.sample_aspect_ratio">0</property>
  <property name="meta.media.0.codec.colorspace">601</property>
  <property name="meta.media.0.codec.name">h264</property>
  <property name="meta.media.0.codec.long_name">H.264 / AVC / MPEG-4 AVC / MPEG-4 part 10</property>
  <property name="meta.media.0.codec.bit_rate">1308376</property>
  <property name="meta.attr.0.stream.handler_name.markup">VideoHandler</property>
  <property name="meta.attr.major_brand.markup">isom</property>
  <property name="meta.attr.minor_version.markup">512</property>
  <property name="meta.attr.compatible_brands.markup">isomiso2avc1mp41</property>
  <property name="meta.attr.encoder.markup">Lavf58.29.100</property>
  <property name="meta.media.sample_aspect_num">1</property>
  <property name="meta.media.sample_aspect_den">1</property>
  <property name="meta.media.frame_rate_num">30</property>
  <property name="meta.media.frame_rate_den">1</property>
  <property name="meta.media.colorspace">601</property>
  <property name="meta.media.color_trc">2</property>
  <property name="meta.media.width">912</property>
  <property name="meta.media.height">720</property>
  <property name="meta.media.color_range">mpeg</property>
  <property name="meta.media.top_field_first">0</property>
  <property name="meta.media.progressive">1</property>
  <property name="set.test_audio">1</property>
  <property name="set.test_image">0</property>
 </producer>
 <producer id="producer139" in="00:00:00.000" out="00:00:39.733">
  <property name="length">1193</property>
  <property name="eof">pause</property>
  <property name="resource">content/consingan_paintings/fishing_boats_1.mp4</property>
  <property name="audio_index">-1</property>
  <property name="video_index">0</property>
  <property name="mute_on_pause">0</property>
  <property name="mlt_service">avformat-novalidate</property>
  <property name="seekable">1</property>
  <property name="aspect_ratio">1</property>
  <property name="kdenlive:clipname">fishing_boats_1.mp4</property>
  <property name="kdenlive:folderid">31</property>
  <property name="kdenlive:id">40</property>
  <property name="kdenlive:file_size">6209312</property>
  <property name="global_feed">1</property>
  <property name="kdenlive:file_hash">8141373aef9cad3fc87af4b37035d37b</property>
  <property name="xml">was here</property>
  <property name="meta.media.nb_streams">1</property>
  <property name="meta.media.0.stream.type">video</property>
  <property name="meta.media.0.stream.frame_rate">30</property>
  <property name="meta.media.0.stream.sample_aspect_ratio">0</property>
  <property name="meta.media.0.codec.width">928</property>
  <property name="meta.media.0.codec.height">720</property>
  <property name="meta.media.0.codec.rotate">0</property>
  <property name="meta.media.0.codec.frame_rate">30</property>
  <property name="meta.media.0.codec.pix_fmt">yuv420p</property>
  <property name="meta.media.0.codec.sample_aspect_ratio">0</property>
  <property name="meta.media.0.codec.colorspace">601</property>
  <property name="meta.media.0.codec.name">h264</property>
  <property name="meta.media.0.codec.long_name">H.264 / AVC / MPEG-4 AVC / MPEG-4 part 10</property>
  <property name="meta.media.0.codec.bit_rate">1246090</property>
  <property name="meta.attr.0.stream.handler_name.markup">VideoHandler</property>
  <property name="meta.attr.major_brand.markup">isom</property>
  <property name="meta.attr.minor_version.markup">512</property>
  <property name="meta.attr.compatible_brands.markup">isomiso2avc1mp41</property>
  <property name="meta.attr.encoder.markup">Lavf58.29.100</property>
  <property name="meta.media.sample_aspect_num">1</property>
  <property name="meta.media.sample_aspect_den">1</property>
  <property name="meta.media.frame_rate_num">30</property>
  <property name="meta.media.frame_rate_den">1</property>
  <property name="meta.media.colorspace">601</property>
  <property name="meta.media.color_trc">2</property>
  <property name="meta.media.width">928</property>
  <property name="meta.media.height">720</property>
  <property name="meta.media.color_range">mpeg</property>
  <property name="meta.media.top_field_first">0</property>
  <property name="meta.media.progressive">1</property>
  <property name="set.test_audio">1</property>
  <property name="set.test_image">0</property>
 </producer>
 <producer id="producer144" in="00:00:00.000" out="00:00:17.233">
  <property name="length">518</property>
  <property name="eof">pause</property>
  <property name="resource">content/animated_paintings/ReReVST-fall_clouds-presquille_420.avi</property>
  <property name="audio_index">-1</property>
  <property name="video_index">0</property>
  <property name="mute_on_pause">0</property>
  <property name="mlt_service">avformat-novalidate</property>
  <property name="seekable">1</property>
  <property name="aspect_ratio">1</property>
  <property name="kdenlive:clipname"/>
  <property name="kdenlive:folderid">81</property>
  <property name="kdenlive:id">101</property>
  <property name="kdenlive:file_size">20665834</property>
  <property name="kdenlive:file_hash">04f18a230a06a1bf8ee4ae879280284a</property>
  <property name="global_feed">1</property>
  <property name="xml">was here</property>
  <property name="meta.media.nb_streams">1</property>
  <property name="meta.media.0.stream.type">video</property>
  <property name="meta.media.0.stream.frame_rate">24</property>
  <property name="meta.media.0.stream.sample_aspect_ratio">0</property>
  <property name="meta.media.0.codec.width">746</property>
  <property name="meta.media.0.codec.height">420</property>
  <property name="meta.media.0.codec.rotate">0</property>
  <property name="meta.media.0.codec.frame_rate">24</property>
  <property name="meta.media.0.codec.pix_fmt">yuvj420p</property>
  <property name="meta.media.0.codec.sample_aspect_ratio">0</property>
  <property name="meta.media.0.codec.colorspace">601</property>
  <property name="meta.media.0.codec.name">mjpeg</property>
  <property name="meta.media.0.codec.long_name">MJPEG (Motion JPEG)</property>
  <property name="meta.media.0.codec.bit_rate">9599991</property>
  <property name="meta.attr.encoder.markup">Lavf58.61.100</property>
  <property name="meta.media.sample_aspect_num">1</property>
  <property name="meta.media.sample_aspect_den">1</property>
  <property name="meta.media.frame_rate_num">24</property>
  <property name="meta.media.frame_rate_den">1</property>
  <property name="meta.media.colorspace">601</property>
  <property name="meta.media.color_trc">2</property>
  <property name="meta.media.width">746</property>
  <property name="meta.media.height">420</property>
  <property name="meta.media.color_range">full</property>
  <property name="meta.media.top_field_first">0</property>
  <property name="meta.media.progressive">1</property>
  <property name="set.test_audio">1</property>
  <property name="set.test_image">0</property>
 </producer>
 <producer id="producer145" in="00:00:00.000" out="00:00:17.233">
  <property name="length">518</property>
  <property name="eof">pause</property>
  <property name="resource">-1.000000:content/animated_paintings/ReReVST-fall_clouds-presquille_420.avi</property>
  <property name="aspect_ratio">1</property>
  <property name="meta.media.nb_streams">1</property>
  <property name="meta.media.0.stream.type">video</property>
  <property name="meta.media.0.stream.frame_rate">24</property>
  <property name="meta.media.0.stream.sample_aspect_ratio">0</property>
  <property name="meta.media.0.codec.width">746</property>
  <property name="meta.media.0.codec.height">420</property>
  <property name="meta.media.0.codec.rotate">0</property>
  <property name="meta.media.0.codec.frame_rate">24</property>
  <property name="meta.media.0.codec.pix_fmt">yuvj420p</property>
  <property name="meta.media.0.codec.sample_aspect_ratio">0</property>
  <property name="meta.media.0.codec.colorspace">601</property>
  <property name="meta.media.0.codec.name">mjpeg</property>
  <property name="meta.media.0.codec.long_name">MJPEG (Motion JPEG)</property>
  <property name="meta.media.0.codec.bit_rate">9599991</property>
  <property name="meta.attr.encoder.markup">Lavf58.61.100</property>
  <property name="seekable">1</property>
  <property name="meta.media.sample_aspect_num">1</property>
  <property name="meta.media.sample_aspect_den">1</property>
  <property name="audio_index">-1</property>
  <property name="video_index">0</property>
  <property name="mute_on_pause">1</property>
  <property name="warp_speed">-1</property>
  <property name="warp_resource">content/animated_paintings/ReReVST-fall_clouds-presquille_420.avi</property>
  <property name="mlt_service">timewarp</property>
  <property name="set.test_audio">1</property>
  <property name="set.test_image">0</property>
  <property name="kdenlive:id">101</property>
  <property name="warp_pitch">0</property>
  <property name="meta.media.frame_rate_num">24</property>
  <property name="meta.media.frame_rate_den">1</property>
  <property name="meta.media.colorspace">601</property>
  <property name="meta.media.color_trc">2</property>
  <property name="meta.media.width">746</property>
  <property name="meta.media.height">420</property>
  <property name="meta.media.color_range">full</property>
  <property name="meta.media.top_field_first">0</property>
  <property name="meta.media.progressive">1</property>
 </producer>
 <producer id="producer146" in="00:00:00.000" out="00:00:39.733">
  <property name="length">1193</property>
  <property name="eof">pause</property>
  <property name="resource">content/consingan_paintings/fall_fence_2.mp4</property>
  <property name="audio_index">-1</property>
  <property name="video_index">0</property>
  <property name="mute_on_pause">0</property>
  <property name="mlt_service">avformat-novalidate</property>
  <property name="seekable">1</property>
  <property name="aspect_ratio">1</property>
  <property name="kdenlive:clipname">fall_fence_2.mp4</property>
  <property name="kdenlive:folderid">31</property>
  <property name="kdenlive:id">35</property>
  <property name="kdenlive:file_size">6393076</property>
  <property name="global_feed">1</property>
  <property name="kdenlive:file_hash">3d80306b87607012f8aab759b4735cc1</property>
  <property name="xml">was here</property>
  <property name="meta.media.nb_streams">1</property>
  <property name="meta.media.0.stream.type">video</property>
  <property name="meta.media.0.stream.frame_rate">30</property>
  <property name="meta.media.0.stream.sample_aspect_ratio">0</property>
  <property name="meta.media.0.codec.width">944</property>
  <property name="meta.media.0.codec.height">720</property>
  <property name="meta.media.0.codec.rotate">0</property>
  <property name="meta.media.0.codec.frame_rate">30</property>
  <property name="meta.media.0.codec.pix_fmt">yuv420p</property>
  <property name="meta.media.0.codec.sample_aspect_ratio">0</property>
  <property name="meta.media.0.codec.colorspace">601</property>
  <property name="meta.media.0.codec.name">h264</property>
  <property name="meta.media.0.codec.long_name">H.264 / AVC / MPEG-4 AVC / MPEG-4 part 10</property>
  <property name="meta.media.0.codec.bit_rate">1283056</property>
  <property name="meta.attr.0.stream.handler_name.markup">VideoHandler</property>
  <property name="meta.attr.major_brand.markup">isom</property>
  <property name="meta.attr.minor_version.markup">512</property>
  <property name="meta.attr.compatible_brands.markup">isomiso2avc1mp41</property>
  <property name="meta.attr.encoder.markup">Lavf58.29.100</property>
  <property name="meta.media.sample_aspect_num">1</property>
  <property name="meta.media.sample_aspect_den">1</property>
  <property name="meta.media.frame_rate_num">30</property>
  <property name="meta.media.frame_rate_den">1</property>
  <property name="meta.media.colorspace">601</property>
  <property name="meta.media.color_trc">2</property>
  <property name="meta.media.width">944</property>
  <property name="meta.media.height">720</property>
  <property name="meta.media.color_range">mpeg</property>
  <property name="meta.media.top_field_first">0</property>
  <property name="meta.media.progressive">1</property>
  <property name="set.test_audio">1</property>
  <property name="set.test_image">0</property>
 </producer>
 <producer id="producer147" in="00:00:00.000" out="00:00:33.633">
  <property name="length">1010</property>
  <property name="eof">pause</property>
  <property name="resource">content/animated_paintings/fall_clouds_trippy.avi</property>
  <property name="audio_index">-1</property>
  <property name="video_index">0</property>
  <property name="mute_on_pause">0</property>
  <property name="mlt_service">avformat-novalidate</property>
  <property name="seekable">1</property>
  <property name="aspect_ratio">1</property>
  <property name="kdenlive:clipname"/>
  <property name="kdenlive:folderid">81</property>
  <property name="kdenlive:id">110</property>
  <property name="kdenlive:file_size">28823038</property>
  <property name="kdenlive:file_hash">b844cefd3776395c104c9c6b0d062669</property>
  <property name="global_feed">1</property>
  <property name="xml">was here</property>
  <property name="meta.media.nb_streams">1</property>
  <property name="meta.media.0.stream.type">video</property>
  <property name="meta.media.0.stream.frame_rate">30</property>
  <property name="meta.media.0.stream.sample_aspect_ratio">0</property>
  <property name="meta.media.0.codec.width">900</property>
  <property name="meta.media.0.codec.height">720</property>
  <property name="meta.media.0.codec.rotate">0</property>
  <property name="meta.media.0.codec.frame_rate">30</property>
  <property name="meta.media.0.codec.pix_fmt">yuv420p</property>
  <property name="meta.media.0.codec.sample_aspect_ratio">1</property>
  <property name="meta.media.0.codec.colorspace">601</property>
  <property name="meta.media.0.codec.name">mpeg4</property>
  <property name="meta.media.0.codec.long_name">MPEG-4 part 2</property>
  <property name="meta.media.0.codec.bit_rate">6848584</property>
  <property name="meta.attr.encoder.markup">Lavf58.61.100</property>
  <property name="meta.media.sample_aspect_num">1</property>
  <property name="meta.media.sample_aspect_den">1</property>
  <property name="meta.media.frame_rate_num">30</property>
  <property name="meta.media.frame_rate_den">1</property>
  <property name="meta.media.colorspace">601</property>
  <property name="meta.media.color_trc">2</property>
  <property name="meta.media.width">900</property>
  <property name="meta.media.height">720</property>
  <property name="meta.media.color_range">mpeg</property>
  <property name="meta.media.top_field_first">0</property>
  <property name="meta.media.progressive">1</property>
  <property name="set.test_audio">1</property>
  <property name="set.test_image">0</property>
 </producer>
 <producer id="producer148" in="00:00:00.000" out="00:00:13.133">
  <property name="length">395</property>
  <property name="eof">pause</property>
  <property name="resource">/home/ryankelln/.cache/kdenlive/proxy/0346443430b5326ff5da0eef5fe82d8b.mkv</property>
  <property name="audio_index">-1</property>
  <property name="video_index">0</property>
  <property name="mute_on_pause">0</property>
  <property name="mlt_service">avformat-novalidate</property>
  <property name="seekable">1</property>
  <property name="aspect_ratio">1</property>
  <property name="kdenlive:clipname">fall_clouds_2.mp4</property>
  <property name="kdenlive:folderid">81</property>
  <property name="kdenlive:id">111</property>
  <property name="kdenlive:file_size">8532877</property>
  <property name="kdenlive:file_hash">0346443430b5326ff5da0eef5fe82d8b</property>
  <property name="kdenlive:proxy">/home/ryankelln/.cache/kdenlive/proxy/0346443430b5326ff5da0eef5fe82d8b.mkv</property>
  <property name="kdenlive:originalurl">/home/ryankelln/Documents/Projects/Active/Sound_Escapes/veda-recordings/fall_clouds_2.mp4</property>
  <property name="kdenlive:original.mlt_type">producer</property>
  <property name="kdenlive:original.in">0</property>
  <property name="kdenlive:original.out">394</property>
  <property name="kdenlive:original.length">395</property>
  <property name="kdenlive:original.eof">pause</property>
  <property name="kdenlive:original.resource">/home/ryankelln/Documents/Projects/Active/Sound_Escapes/veda-recordings/fall_clouds_2.mp4</property>
  <property name="kdenlive:original.meta.media.nb_streams">1</property>
  <property name="kdenlive:original.meta.media.0.stream.type">video</property>
  <property name="kdenlive:original.meta.media.0.stream.frame_rate">25</property>
  <property name="kdenlive:original.meta.media.0.stream.sample_aspect_ratio">0</property>
  <property name="kdenlive:original.meta.media.0.codec.width">1938</property>
  <property name="kdenlive:original.meta.media.0.codec.height">1360</property>
  <property name="kdenlive:original.meta.media.0.codec.rotate">0</property>
  <property name="kdenlive:original.meta.media.0.codec.frame_rate">25</property>
  <property name="kdenlive:original.meta.media.0.codec.pix_fmt">yuv444p</property>
  <property name="kdenlive:original.meta.media.0.codec.sample_aspect_ratio">0</property>
  <property name="kdenlive:original.meta.media.0.codec.colorspace">709</property>
  <property name="kdenlive:original.meta.media.0.codec.name">h264</property>
  <property name="kdenlive:original.meta.media.0.codec.long_name">H.264 / AVC / MPEG-4 AVC / MPEG-4 part 10</property>
  <property name="kdenlive:original.meta.media.0.codec.bit_rate">5185071</property>
  <property name="kdenlive:original.meta.attr.0.stream.handler_name.markup">VideoHandler</property>
  <property name="kdenlive:original.meta.attr.major_brand.markup">isom</property>
  <property name="kdenlive:original.meta.attr.minor_version.markup">512</property>
  <property name="kdenlive:original.meta.attr.compatible_brands.markup">isomiso2avc1mp41</property>
  <property name="kdenlive:original.meta.attr.encoder.markup">Lavf58.45.100</property>
  <property name="kdenlive:original.seekable">1</property>
  <property name="kdenlive:original.width">1938</property>
  <property name="kdenlive:original.height">1360</property>
  <property name="kdenlive:original.meta.media.sample_aspect_num">1</property>
  <property name="kdenlive:original.meta.media.sample_aspect_den">1</property>
  <property name="kdenlive:original.aspect_ratio">1</property>
  <property name="kdenlive:original.audio_index">-1</property>
  <property name="kdenlive:original.video_index">0</property>
  <property name="kdenlive:original.mute_on_pause">0</property>
  <property name="kdenlive:original.mlt_service">avformat-novalidate</property>
  <property name="kdenlive:original.kdenlive:folderid">81</property>
  <property name="kdenlive:original.meta.media.frame_rate_num">25</property>
  <property name="kdenlive:original.meta.media.frame_rate_den">1</property>
  <property name="kdenlive:original.meta.media.colorspace">709</property>
  <property name="kdenlive:original.meta.media.color_trc">2</property>
  <property name="kdenlive:original.meta.media.width">1938</property>
  <property name="kdenlive:original.meta.media.height">1360</property>
  <property name="kdenlive:original.meta.media.color_range">mpeg</property>
  <property name="kdenlive:original.kdenlive:id">133</property>
  <property name="kdenlive:original.kdenlive:file_size">8532877</property>
  <property name="kdenlive:original.kdenlive:file_hash">0346443430b5326ff5da0eef5fe82d8b</property>
  <property name="kdenlive:original.backup">1</property>
  <property name="global_feed">1</property>
  <property name="xml">was here</property>
  <property name="meta.media.nb_streams">1</property>
  <property name="meta.media.0.stream.type">video</property>
  <property name="meta.media.0.stream.frame_rate">25</property>
  <property name="meta.media.0.stream.sample_aspect_ratio">0</property>
  <property name="meta.media.0.codec.width">960</property>
  <property name="meta.media.0.codec.height">674</property>
  <property name="meta.media.0.codec.rotate">0</property>
  <property name="meta.media.0.codec.frame_rate">1000</property>
  <property name="meta.media.0.codec.pix_fmt">yuvj444p</property>
  <property name="meta.media.0.codec.sample_aspect_ratio">0</property>
  <property name="meta.media.0.codec.colorspace">601</property>
  <property name="meta.media.0.codec.name">mjpeg</property>
  <property name="meta.media.0.codec.long_name">MJPEG (Motion JPEG)</property>
  <property name="meta.media.0.codec.bit_rate">0</property>
  <property name="meta.attr.0.stream.HANDLER_NAME.markup">VideoHandler</property>
  <property name="meta.attr.0.stream.ENCODER.markup">Lavc58.91.100 mjpeg</property>
  <property name="meta.attr.0.stream.DURATION.markup">00:00:13.160000000</property>
  <property name="meta.attr.COMPATIBLE_BRANDS.markup">isomiso2avc1mp41</property>
  <property name="meta.attr.MAJOR_BRAND.markup">isom</property>
  <property name="meta.attr.MINOR_VERSION.markup">512</property>
  <property name="meta.attr.ENCODER.markup">Lavf58.45.100</property>
  <property name="meta.media.sample_aspect_num">1</property>
  <property name="meta.media.sample_aspect_den">1</property>
  <property name="meta.media.frame_rate_num">25</property>
  <property name="meta.media.frame_rate_den">1</property>
  <property name="meta.media.colorspace">601</property>
  <property name="meta.media.color_trc">2</property>
  <property name="meta.media.width">960</property>
  <property name="meta.media.height">674</property>
  <property name="meta.media.color_range">full</property>
  <property name="meta.media.top_field_first">0</property>
  <property name="meta.media.progressive">1</property>
  <property name="set.test_audio">1</property>
  <property name="set.test_image">0</property>
 </producer>
 <producer id="producer149" in="00:00:00.000" out="00:00:26.467">
  <property name="length">795</property>
  <property name="eof">pause</property>
  <property name="resource">1.500000:content/consingan_paintings/fall_sparkles_dance_5.mp4</property>
  <property name="aspect_ratio">1</property>
  <property name="meta.media.nb_streams">1</property>
  <property name="meta.media.0.stream.type">video</property>
  <property name="meta.media.0.stream.frame_rate">30</property>
  <property name="meta.media.0.stream.sample_aspect_ratio">0</property>
  <property name="meta.media.0.codec.width">928</property>
  <property name="meta.media.0.codec.height">720</property>
  <property name="meta.media.0.codec.rotate">0</property>
  <property name="meta.media.0.codec.frame_rate">30</property>
  <property name="meta.media.0.codec.pix_fmt">yuv420p</property>
  <property name="meta.media.0.codec.sample_aspect_ratio">0</property>
  <property name="meta.media.0.codec.colorspace">601</property>
  <property name="meta.media.0.codec.name">h264</property>
  <property name="meta.media.0.codec.long_name">H.264 / AVC / MPEG-4 AVC / MPEG-4 part 10</property>
  <property name="meta.media.0.codec.bit_rate">2899556</property>
  <property name="meta.attr.0.stream.handler_name.markup">VideoHandler</property>
  <property name="meta.attr.major_brand.markup">isom</property>
  <property name="meta.attr.minor_version.markup">512</property>
  <property name="meta.attr.compatible_brands.markup">isomiso2avc1mp41</property>
  <property name="meta.attr.encoder.markup">Lavf58.29.100</property>
  <property name="seekable">1</property>
  <property name="meta.media.sample_aspect_num">1</property>
  <property name="meta.media.sample_aspect_den">1</property>
  <property name="audio_index">-1</property>
  <property name="video_index">0</property>
  <property name="mute_on_pause">1</property>
  <property name="warp_speed">1.5</property>
  <property name="warp_resource">content/consingan_paintings/fall_sparkles_dance_5.mp4</property>
  <property name="mlt_service">timewarp</property>
  <property name="set.test_audio">1</property>
  <property name="set.test_image">0</property>
  <property name="kdenlive:id">109</property>
  <property name="warp_pitch">0</property>
  <property name="meta.media.frame_rate_num">30</property>
  <property name="meta.media.frame_rate_den">1</property>
  <property name="meta.media.colorspace">601</property>
  <property name="meta.media.color_trc">2</property>
  <property name="meta.media.width">928</property>
  <property name="meta.media.height">720</property>
  <property name="meta.media.color_range">mpeg</property>
  <property name="meta.media.top_field_first">0</property>
  <property name="meta.media.progressive">1</property>
 </producer>
 <producer id="producer150" in="00:00:00.000" out="00:00:02.633">
  <property name="length">80</property>
  <property name="eof">pause</property>
  <property name="resource">content/animated_paintings/summer_trees_timelapse_0.mp4</property>
  <property name="audio_index">-1</property>
  <property name="video_index">0</property>
  <property name="mute_on_pause">0</property>
  <property name="mlt_service">avformat-novalidate</property>
  <property name="seekable">1</property>
  <property name="aspect_ratio">1</property>
  <property name="kdenlive:clipname"/>
  <property name="kdenlive:folderid">81</property>
  <property name="kdenlive:id">136</property>
  <property name="kdenlive:file_size">77339</property>
  <property name="kdenlive:file_hash">52d6d49cf7c183cfada68db1211a16cb</property>
  <property name="global_feed">1</property>
  <property name="xml">was here</property>
  <property name="meta.media.nb_streams">1</property>
  <property name="meta.media.0.stream.type">video</property>
  <property name="meta.media.0.stream.frame_rate">15</property>
  <property name="meta.media.0.stream.sample_aspect_ratio">0</property>
  <property name="meta.media.0.codec.width">250</property>
  <property name="meta.media.0.codec.height">250</property>
  <property name="meta.media.0.codec.rotate">0</property>
  <property name="meta.media.0.codec.frame_rate">15</property>
  <property name="meta.media.0.codec.pix_fmt">yuv420p</property>
  <property name="meta.media.0.codec.sample_aspect_ratio">1</property>
  <property name="meta.media.0.codec.colorspace">601</property>
  <property name="meta.media.0.codec.name">mpeg4</property>
  <property name="meta.media.0.codec.long_name">MPEG-4 part 2</property>
  <property name="meta.media.0.codec.bit_rate">228855</property>
  <property name="meta.attr.0.stream.handler_name.markup">VideoHandler</property>
  <property name="meta.attr.major_brand.markup">isom</property>
  <property name="meta.attr.minor_version.markup">512</property>
  <property name="meta.attr.compatible_brands.markup">isomiso2mp41</property>
  <property name="meta.attr.encoder.markup">Lavf58.61.100</property>
  <property name="meta.media.sample_aspect_num">1</property>
  <property name="meta.media.sample_aspect_den">1</property>
  <property name="meta.media.frame_rate_num">15</property>
  <property name="meta.media.frame_rate_den">1</property>
  <property name="meta.media.colorspace">601</property>
  <property name="meta.media.color_trc">2</property>
  <property name="meta.media.width">250</property>
  <property name="meta.media.height">250</property>
  <property name="meta.media.color_range">mpeg</property>
  <property name="meta.media.top_field_first">0</property>
  <property name="meta.media.progressive">1</property>
  <property name="set.test_audio">1</property>
  <property name="set.test_image">0</property>
 </producer>
 <producer id="producer142" in="00:00:00.000" out="00:00:39.733">
  <property name="length">1193</property>
  <property name="eof">pause</property>
  <property name="resource">content/consingan_paintings/rocky_hill_1.mp4</property>
  <property name="audio_index">-1</property>
  <property name="video_index">0</property>
  <property name="mute_on_pause">0</property>
  <property name="mlt_service">avformat-novalidate</property>
  <property name="seekable">1</property>
  <property name="aspect_ratio">1</property>
  <property name="kdenlive:clipname">rocky_hill_1.mp4</property>
  <property name="kdenlive:folderid">31</property>
  <property name="kdenlive:id">46</property>
  <property name="kdenlive:file_size">10375525</property>
  <property name="global_feed">1</property>
  <property name="kdenlive:file_hash">3c6bdc25c2d9b880f23a6580792dfd4d</property>
  <property name="xml">was here</property>
  <property name="meta.media.nb_streams">1</property>
  <property name="meta.media.0.stream.type">video</property>
  <property name="meta.media.0.stream.frame_rate">30</property>
  <property name="meta.media.0.stream.sample_aspect_ratio">0</property>
  <property name="meta.media.0.codec.width">912</property>
  <property name="meta.media.0.codec.height">720</property>
  <property name="meta.media.0.codec.rotate">0</property>
  <property name="meta.media.0.codec.frame_rate">30</property>
  <property name="meta.media.0.codec.pix_fmt">yuv420p</property>
  <property name="meta.media.0.codec.sample_aspect_ratio">0</property>
  <property name="meta.media.0.codec.colorspace">601</property>
  <property name="meta.media.0.codec.name">h264</property>
  <property name="meta.media.0.codec.long_name">H.264 / AVC / MPEG-4 AVC / MPEG-4 part 10</property>
  <property name="meta.media.0.codec.bit_rate">2084207</property>
  <property name="meta.attr.0.stream.handler_name.markup">VideoHandler</property>
  <property name="meta.attr.major_brand.markup">isom</property>
  <property name="meta.attr.minor_version.markup">512</property>
  <property name="meta.attr.compatible_brands.markup">isomiso2avc1mp41</property>
  <property name="meta.attr.encoder.markup">Lavf58.29.100</property>
  <property name="meta.media.sample_aspect_num">1</property>
  <property name="meta.media.sample_aspect_den">1</property>
  <property name="meta.media.frame_rate_num">30</property>
  <property name="meta.media.frame_rate_den">1</property>
  <property name="meta.media.colorspace">601</property>
  <property name="meta.media.color_trc">2</property>
  <property name="meta.media.width">912</property>
  <property name="meta.media.height">720</property>
  <property name="meta.media.color_range">mpeg</property>
  <property name="meta.media.top_field_first">0</property>
  <property name="meta.media.progressive">1</property>
  <property name="set.test_audio">1</property>
  <property name="set.test_image">0</property>
 </producer>
 <producer id="producer140" in="00:00:00.000" out="00:00:39.733">
  <property name="length">1193</property>
  <property name="eof">pause</property>
  <property name="resource">content/consingan_paintings/fall_clouds_2.mp4</property>
  <property name="audio_index">-1</property>
  <property name="video_index">0</property>
  <property name="mute_on_pause">0</property>
  <property name="mlt_service">avformat-novalidate</property>
  <property name="seekable">1</property>
  <property name="aspect_ratio">1</property>
  <property name="kdenlive:clipname">fall_clouds_2.mp4</property>
  <property name="kdenlive:folderid">31</property>
  <property name="kdenlive:id">33</property>
  <property name="kdenlive:file_size">8981600</property>
  <property name="global_feed">1</property>
  <property name="kdenlive:file_hash">c2fcd70760c77c8044e5bf85db4cf3ad</property>
  <property name="xml">was here</property>
  <property name="meta.media.nb_streams">1</property>
  <property name="meta.media.0.stream.type">video</property>
  <property name="meta.media.0.stream.frame_rate">30</property>
  <property name="meta.media.0.stream.sample_aspect_ratio">0</property>
  <property name="meta.media.0.codec.width">912</property>
  <property name="meta.media.0.codec.height">720</property>
  <property name="meta.media.0.codec.rotate">0</property>
  <property name="meta.media.0.codec.frame_rate">30</property>
  <property name="meta.media.0.codec.pix_fmt">yuv420p</property>
  <property name="meta.media.0.codec.sample_aspect_ratio">0</property>
  <property name="meta.media.0.codec.colorspace">601</property>
  <property name="meta.media.0.codec.name">h264</property>
  <property name="meta.media.0.codec.long_name">H.264 / AVC / MPEG-4 AVC / MPEG-4 part 10</property>
  <property name="meta.media.0.codec.bit_rate">1803789</property>
  <property name="meta.attr.0.stream.handler_name.markup">VideoHandler</property>
  <property name="meta.attr.major_brand.markup">isom</property>
  <property name="meta.attr.minor_version.markup">512</property>
  <property name="meta.attr.compatible_brands.markup">isomiso2avc1mp41</property>
  <property name="meta.attr.encoder.markup">Lavf58.29.100</property>
  <property name="meta.media.sample_aspect_num">1</property>
  <property name="meta.media.sample_aspect_den">1</property>
  <property name="meta.media.frame_rate_num">30</property>
  <property name="meta.media.frame_rate_den">1</property>
  <property name="meta.media.colorspace">601</property>
  <property name="meta.media.color_trc">2</property>
  <property name="meta.media.width">912</property>
  <property name="meta.media.height">720</property>
  <property name="meta.media.color_range">mpeg</property>
  <property name="meta.media.top_field_first">0</property>
  <property name="meta.media.progressive">1</property>
  <property name="set.test_audio">1</property>
  <property name="set.test_image">0</property>
 </producer>
 <producer id="producer141" in="00:00:00.000" out="00:00:39.733">
  <property name="length">1193</property>
  <property name="eof">pause</property>
  <property name="resource">content/consingan_paintings/garage_2.mp4</property>
  <property name="audio_index">-1</property>
  <property name="video_index">0</property>
  <property name="mute_on_pause">0</property>
  <property name="mlt_service">avformat-novalidate</property>
  <property name="seekable">1</property>
  <property name="aspect_ratio">1</property>
  <property name="kdenlive:clipname">garage_2.mp4</property>
  <property name="kdenlive:folderid">31</property>
  <property name="kdenlive:id">43</property>
  <property name="kdenlive:file_size">8287805</property>
  <property name="global_feed">1</property>
  <property name="kdenlive:file_hash">c18882c14c64218e467f56fcbeceb2ae</property>
  <property name="xml">was here</property>
  <property name="meta.media.nb_streams">1</property>
  <property name="meta.media.0.stream.type">video</property>
  <property name="meta.media.0.stream.frame_rate">30</property>
  <property name="meta.media.0.stream.sample_aspect_ratio">0</property>
  <property name="meta.media.0.codec.width">912</property>
  <property name="meta.media.0.codec.height">720</property>
  <property name="meta.media.0.codec.rotate">0</property>
  <property name="meta.media.0.codec.frame_rate">30</property>
  <property name="meta.media.0.codec.pix_fmt">yuv420p</property>
  <property name="meta.media.0.codec.sample_aspect_ratio">0</property>
  <property name="meta.media.0.codec.colorspace">601</property>
  <property name="meta.media.0.codec.name">h264</property>
  <property name="meta.media.0.codec.long_name">H.264 / AVC / MPEG-4 AVC / MPEG-4 part 10</property>
  <property name="meta.media.0.codec.bit_rate">1664219</property>
  <property name="meta.attr.0.stream.handler_name.markup">VideoHandler</property>
  <property name="meta.attr.major_brand.markup">isom</property>
  <property name="meta.attr.minor_version.markup">512</property>
  <property name="meta.attr.compatible_brands.markup">isomiso2avc1mp41</property>
  <property name="meta.attr.encoder.markup">Lavf58.29.100</property>
  <property name="meta.media.sample_aspect_num">1</property>
  <property name="meta.media.sample_aspect_den">1</property>
  <property name="meta.media.frame_rate_num">30</property>
  <property name="meta.media.frame_rate_den">1</property>
  <property name="meta.media.colorspace">601</property>
  <property name="meta.media.color_trc">2</property>
  <property name="meta.media.width">912</property>
  <property name="meta.media.height">720</property>
  <property name="meta.media.color_range">mpeg</property>
  <property name="meta.media.top_field_first">0</property>
  <property name="meta.media.progressive">1</property>
  <property name="set.test_audio">1</property>
  <property name="set.test_image">0</property>
 </producer>
 <playlist id="playlist8">
  <blank length="00:00:14.233"/>
  <entry producer="producer121" in="00:00:00.000" out="00:00:12.200">
   <property name="kdenlive:id">53</property>
   <property name="kdenlive:activeeffect">1</property>
   <filter id="filter48">
    <property name="mlt_service">avfilter.unsharp</property>
    <property name="kdenlive_id">avfilter.unsharp</property>
    <property name="av.lx">5</property>
    <property name="av.ly">5</property>
    <property name="av.la">1.199</property>
    <property name="av.cx">5</property>
    <property name="av.cy">5</property>
    <property name="av.ca">1.129</property>
    <property name="kdenlive:collapsed">0</property>
    <property name="disable">0</property>
   </filter>
   <filter id="filter49">
    <property name="rotate_center">1</property>
    <property name="mlt_service">qtblend</property>
    <property name="kdenlive_id">qtblend</property>
    <property name="rect">00:00:00.000=-275 1 1920 1080 1.000000</property>
    <property name="rotation">00:00:00.000=0</property>
    <property name="compositing">0</property>
    <property name="distort">0</property>
    <property name="kdenlive:collapsed">0</property>
   </filter>
  </entry>
  <blank length="00:00:00.067"/>
  <entry producer="producer122" in="00:00:00.000" out="00:00:11.933">
   <property name="kdenlive:id">37</property>
   <property name="kdenlive:activeeffect">2</property>
   <filter id="filter52">
    <property name="mlt_service">avfilter.unsharp</property>
    <property name="kdenlive_id">avfilter.unsharp</property>
    <property name="av.lx">5</property>
    <property name="av.ly">5</property>
    <property name="av.la">1.92</property>
    <property name="av.cx">5</property>
    <property name="av.cy">5</property>
    <property name="av.ca">1.13</property>
    <property name="kdenlive:collapsed">0</property>
    <property name="disable">0</property>
   </filter>
   <filter id="filter53">
    <property name="rotate_center">1</property>
    <property name="mlt_service">qtblend</property>
    <property name="kdenlive_id">qtblend</property>
    <property name="rect">00:00:00.000=-276 0 1920 1080 1.000000;00:00:11.933=-363 -64 2304 1296 1.000000</property>
    <property name="rotation">00:00:00.000=0;00:00:11.933=0</property>
    <property name="compositing">0</property>
    <property name="distort">0</property>
    <property name="kdenlive:collapsed">0</property>
   </filter>
   <filter id="filter54">
    <property name="version">0.3</property>
    <property name="mlt_service">frei0r.saturat0r</property>
    <property name="kdenlive_id">frei0r.saturat0r</property>
    <property name="Saturation">00:00:00.000=0.143</property>
    <property name="kdenlive:collapsed">0</property>
   </filter>
  </entry>
  <entry producer="producer123" in="00:00:00.000" out="00:00:12.033">
   <property name="kdenlive:id">38</property>
   <property name="kdenlive:activeeffect">1</property>
   <filter id="filter57">
    <property name="mlt_service">avfilter.unsharp</property>
    <property name="kdenlive_id">avfilter.unsharp</property>
    <property name="av.lx">5</property>
    <property name="av.ly">5</property>
    <property name="av.la">1.2</property>
    <property name="av.cx">5</property>
    <property name="av.cy">5</property>
    <property name="av.ca">1.2</property>
    <property name="kdenlive:collapsed">0</property>
   </filter>
   <filter id="filter58">
    <property name="rotate_center">1</property>
    <property name="mlt_service">qtblend</property>
    <property name="kdenlive_id">qtblend</property>
    <property name="rect">00:00:00.000=-264 0 1920 1080 1.000000;00:00:12.033=-326 -14 2304 1296 1.000000</property>
    <property name="rotation">00:00:00.000=0;00:00:12.033=0</property>
    <property name="compositing">0</property>
    <property name="distort">0</property>
    <property name="kdenlive:collapsed">0</property>
   </filter>
  </entry>
  <blank length="00:00:12.167"/>
  <entry producer="producer124" in="00:00:00.000" out="00:00:03.200">
   <property name="kdenlive:id">35</property>
   <filter id="filter61">
    <property name="mlt_service">avfilter.unsharp</property>
    <property name="kdenlive_id">avfilter.unsharp</property>
    <property name="av.lx">5</property>
    <property name="av.ly">5</property>
    <property name="av.la">1.5</property>
    <property name="av.cx">5</property>
    <property name="av.cy">5</property>
    <property name="av.ca">1.5</property>
    <property name="kdenlive:collapsed">0</property>
   </filter>
   <filter id="filter62">
    <property name="rotate_center">1</property>
    <property name="mlt_service">qtblend</property>
    <property name="kdenlive_id">qtblend</property>
    <property name="rect">00:00:00.000=247 0 1920 1080 1.000000</property>
    <property name="rotation">00:00:00.000=0</property>
    <property name="compositing">0</property>
    <property name="distort">0</property>
    <property name="kdenlive:collapsed">0</property>
   </filter>
  </entry>
  <blank length="00:00:00.233"/>
  <entry producer="producer125" in="00:00:00.000" out="00:00:03.233">
   <property name="kdenlive:id">46</property>
   <filter id="filter65">
    <property name="mlt_service">avfilter.unsharp</property>
    <property name="kdenlive_id">avfilter.unsharp</property>
    <property name="av.lx">5</property>
    <property name="av.ly">5</property>
    <property name="av.la">2</property>
    <property name="av.cx">5</property>
    <property name="av.cy">5</property>
    <property name="av.ca">2</property>
    <property name="kdenlive:collapsed">0</property>
   </filter>
   <filter id="filter66">
    <property name="rotate_center">1</property>
    <property name="mlt_service">qtblend</property>
    <property name="kdenlive_id">qtblend</property>
    <property name="rect">00:00:00.000=272 0 1920 1080 1.000000</property>
    <property name="rotation">00:00:00.000=0</property>
    <property name="compositing">0</property>
    <property name="distort">0</property>
    <property name="kdenlive:collapsed">0</property>
   </filter>
  </entry>
  <blank length="00:00:00.133"/>
  <entry producer="producer133" in="00:00:00.000" out="00:00:06.300">
   <property name="kdenlive:id">48</property>
   <filter id="filter70">
    <property name="mlt_service">avfilter.unsharp</property>
    <property name="kdenlive_id">avfilter.unsharp</property>
    <property name="av.lx">5</property>
    <property name="av.ly">5</property>
    <property name="av.la">1.2</property>
    <property name="av.cx">5</property>
    <property name="av.cy">5</property>
    <property name="av.ca">1.2</property>
    <property name="kdenlive:collapsed">0</property>
    <property name="disable">0</property>
   </filter>
   <filter id="filter69">
    <property name="rotate_center">1</property>
    <property name="mlt_service">qtblend</property>
    <property name="kdenlive_id">qtblend</property>
    <property name="rect">00:00:00.000=272 0 1920 1080 1.000000</property>
    <property name="rotation">00:00:00.000=0</property>
    <property name="compositing">0</property>
    <property name="distort">0</property>
    <property name="kdenlive:collapsed">0</property>
   </filter>
  </entry>
  <blank length="00:00:00.167"/>
  <entry producer="producer134" in="00:00:00.000" out="00:00:06.500">
   <property name="kdenlive:id">33</property>
   <filter id="filter46">
    <property name="mlt_service">avfilter.unsharp</property>
    <property name="kdenlive_id">avfilter.unsharp</property>
    <property name="av.lx">5</property>
    <property name="av.ly">5</property>
    <property name="av.la">1.5</property>
    <property name="av.cx">5</property>
    <property name="av.cy">5</property>
    <property name="av.ca">1.5</property>
    <property name="kdenlive:collapsed">0</property>
   </filter>
   <filter id="filter73">
    <property name="rotate_center">1</property>
    <property name="mlt_service">qtblend</property>
    <property name="kdenlive_id">qtblend</property>
    <property name="rect">00:00:00.000=274 0 1920 1080 1.000000;00:00:06.500=-53 -72 2304 1296 1.000000</property>
    <property name="rotation">00:00:00.000=0;00:00:06.500=0</property>
    <property name="compositing">0</property>
    <property name="distort">0</property>
    <property name="kdenlive:collapsed">0</property>
   </filter>
  </entry>
  <blank length="00:00:00.100"/>
  <entry producer="producer135" in="00:00:00.000" out="00:00:06.733">
   <property name="kdenlive:id">43</property>
   <filter id="filter47">
    <property name="mlt_service">avfilter.unsharp</property>
    <property name="kdenlive_id">avfilter.unsharp</property>
    <property name="av.lx">5</property>
    <property name="av.ly"/>
    <property name="av.la">1.395</property>
    <property name="av.cx">5</property>
    <property name="av.cy">5</property>
    <property name="av.ca">2.431</property>
    <property name="kdenlive:collapsed">0</property>
   </filter>
   <filter id="filter76">
    <property name="rotate_center">1</property>
    <property name="mlt_service">qtblend</property>
    <property name="kdenlive_id">qtblend</property>
    <property name="rect">00:00:00.000=-28 -213 2304 1296 1.000000;00:00:06.733=270 0 1920 1080 1.000000</property>
    <property name="rotation">00:00:00.000=0;00:00:06.733=0</property>
    <property name="compositing">0</property>
    <property name="distort">0</property>
    <property name="kdenlive:collapsed">0</property>
   </filter>
  </entry>
  <entry producer="producer136" in="00:00:00.100" out="00:00:08.967">
   <property name="kdenlive:id">44</property>
   <property name="kdenlive:activeeffect">2</property>
   <filter id="filter79">
    <property name="mlt_service">avfilter.hflip</property>
    <property name="kdenlive_id">avfilter.hflip</property>
    <property name="kdenlive:collapsed">0</property>
   </filter>
   <filter id="filter50">
    <property name="mlt_service">avfilter.unsharp</property>
    <property name="kdenlive_id">avfilter.unsharp</property>
    <property name="av.lx">5</property>
    <property name="av.ly">5</property>
    <property name="av.la">1.64</property>
    <property name="av.cx">5</property>
    <property name="av.cy">5</property>
    <property name="av.ca">1.605</property>
    <property name="kdenlive:collapsed">0</property>
   </filter>
   <filter id="filter80">
    <property name="rotate_center">1</property>
    <property name="mlt_service">qtblend</property>
    <property name="kdenlive_id">qtblend</property>
    <property name="rect">00:00:00.100=-192 -108 2304 1296 1.000000;00:00:08.967=-480 -270 2880 1620 1.000000</property>
    <property name="rotation">00:00:00.100=0;00:00:08.967=0</property>
    <property name="compositing">0</property>
    <property name="distort">0</property>
    <property name="kdenlive:collapsed">0</property>
   </filter>
  </entry>
  <blank length="00:00:00.900"/>
  <entry producer="producer137" in="00:00:00.000" out="00:00:01.567">
   <property name="kdenlive:id">63</property>
   <property name="kdenlive:activeeffect">0</property>
   <filter id="filter51">
    <property name="rotate_center">1</property>
    <property name="mlt_service">qtblend</property>
    <property name="kdenlive_id">qtblend</property>
    <property name="rect">00:00:00.000=-192 -108 2304 1296 1.000000</property>
    <property name="rotation">00:00:00.000=0</property>
    <property name="compositing">0</property>
    <property name="distort">0</property>
    <property name="kdenlive:collapsed">0</property>
   </filter>
  </entry>
  <entry producer="producer137" in="00:00:00.000" out="00:00:05.533">
   <property name="kdenlive:id">63</property>
   <property name="kdenlive:activeeffect">0</property>
   <filter id="filter110">
    <property name="rotate_center">1</property>
    <property name="mlt_service">qtblend</property>
    <property name="kdenlive_id">qtblend</property>
    <property name="rect">00:00:00.000=-192 -108 2304 1296 1.000000;00:00:05.533=-96 -54 2112 1188 1.000000</property>
    <property name="rotation">00:00:00.000=0;00:00:05.533=0</property>
    <property name="compositing">0</property>
    <property name="distort">0</property>
    <property name="kdenlive:collapsed">0</property>
   </filter>
  </entry>
  <blank length="00:00:06.800"/>
  <entry producer="5" in="00:00:00.000" out="00:00:00.867">
   <property name="kdenlive:id">5</property>
   <filter id="filter84">
    <property name="mlt_service">avfilter.unsharp</property>
    <property name="kdenlive_id">avfilter.unsharp</property>
    <property name="av.lx">5</property>
    <property name="av.ly">5</property>
    <property name="av.la">2.63107</property>
    <property name="av.cx">5</property>
    <property name="av.cy">5</property>
    <property name="av.ca">2.68932</property>
    <property name="kdenlive:collapsed">0</property>
   </filter>
   <filter id="filter83">
    <property name="rotate_center">1</property>
    <property name="mlt_service">qtblend</property>
    <property name="kdenlive_id">qtblend</property>
    <property name="rect">00:00:00.000=0 0 1920 1516 1.000000</property>
    <property name="rotation">00:00:00.000=0</property>
    <property name="compositing">0</property>
    <property name="distort">0</property>
    <property name="kdenlive:collapsed">0</property>
   </filter>
  </entry>
  <entry producer="2" in="00:00:00.000" out="00:00:00.833">
   <property name="kdenlive:id">2</property>
   <filter id="filter86">
    <property name="mlt_service">avfilter.unsharp</property>
    <property name="kdenlive_id">avfilter.unsharp</property>
    <property name="av.lx">5</property>
    <property name="av.ly">5</property>
    <property name="av.la">1.6699</property>
    <property name="av.cx">5</property>
    <property name="av.cy">5</property>
    <property name="av.ca">1.7767</property>
    <property name="kdenlive:collapsed">0</property>
   </filter>
   <filter id="filter85">
    <property name="rotate_center">1</property>
    <property name="mlt_service">qtblend</property>
    <property name="kdenlive_id">qtblend</property>
    <property name="rect">00:00:00.000=-367 -27 2682 1509 1.000000</property>
    <property name="rotation">00:00:00.000=0</property>
    <property name="compositing">0</property>
    <property name="distort">0</property>
    <property name="kdenlive:collapsed">0</property>
   </filter>
  </entry>
  <entry producer="producer14" in="00:00:00.000" out="00:00:00.900">
   <property name="kdenlive:id">96</property>
   <filter id="filter87">
    <property name="mlt_service">avfilter.hflip</property>
    <property name="kdenlive_id">avfilter.hflip</property>
    <property name="kdenlive:collapsed">0</property>
   </filter>
   <filter id="filter89">
    <property name="mlt_service">avfilter.unsharp</property>
    <property name="kdenlive_id">avfilter.unsharp</property>
    <property name="av.lx">5</property>
    <property name="av.ly">5</property>
    <property name="av.la">1.15534</property>
    <property name="av.cx">5</property>
    <property name="av.cy">5</property>
    <property name="av.ca">2.62136</property>
    <property name="kdenlive:collapsed">0</property>
   </filter>
   <filter id="filter88">
    <property name="rotate_center">1</property>
    <property name="mlt_service">qtblend</property>
    <property name="kdenlive_id">qtblend</property>
    <property name="rect">00:00:00.000=-384 -216 2688 1512 1.000000</property>
    <property name="rotation">00:00:00.000=0</property>
    <property name="compositing">0</property>
    <property name="distort">0</property>
    <property name="kdenlive:collapsed">0</property>
   </filter>
  </entry>
  <entry producer="16" in="00:00:00.000" out="00:00:00.867">
   <property name="kdenlive:id">16</property>
   <filter id="filter91">
    <property name="mlt_service">avfilter.unsharp</property>
    <property name="kdenlive_id">avfilter.unsharp</property>
    <property name="av.lx">5</property>
    <property name="av.ly">5</property>
    <property name="av.la">3.02913</property>
    <property name="av.cx">5</property>
    <property name="av.cy">5</property>
    <property name="av.ca">2.94175</property>
    <property name="kdenlive:collapsed">0</property>
   </filter>
   <filter id="filter90">
    <property name="rotate_center">1</property>
    <property name="mlt_service">qtblend</property>
    <property name="kdenlive_id">qtblend</property>
    <property name="rect">00:00:00.000=0 -13 1920 1522 1.000000</property>
    <property name="rotation">00:00:00.000=0</property>
    <property name="compositing">0</property>
    <property name="distort">0</property>
    <property name="kdenlive:collapsed">0</property>
   </filter>
  </entry>
  <blank length="00:00:02.667"/>
  <entry producer="producer151" in="00:00:00.233" out="00:00:14.700">
   <property name="kdenlive:id">56</property>
   <property name="kdenlive:activeeffect">0</property>
   <filter id="filter98">
    <property name="mlt_service">avfilter.unsharp</property>
    <property name="kdenlive_id">avfilter.unsharp</property>
    <property name="av.lx">5</property>
    <property name="av.ly">5</property>
    <property name="av.la">2.046</property>
    <property name="av.cx">5</property>
    <property name="av.cy">5</property>
    <property name="av.ca">1.99</property>
    <property name="kdenlive:collapsed">0</property>
    <property name="disable">0</property>
   </filter>
   <filter id="filter97">
    <property name="rotate_center">1</property>
    <property name="mlt_service">qtblend</property>
    <property name="kdenlive_id">qtblend</property>
    <property name="rect">00:00:00.233=0 0 1920 1080 1.000000;00:00:14.700=-336 -189 2592 1458 1.000000</property>
    <property name="rotation">00:00:00.233=0;00:00:14.700=0</property>
    <property name="compositing">0</property>
    <property name="distort">0</property>
    <property name="kdenlive:collapsed">0</property>
   </filter>
  </entry>
  <entry producer="producer138" in="00:00:00.000" out="00:00:12.800">
   <property name="kdenlive:id">50</property>
   <filter id="filter99" out="00:00:00.233">
    <property name="start">0</property>
    <property name="mlt_service">brightness</property>
    <property name="kdenlive_id">fade_from_black</property>
    <property name="end">1</property>
    <property name="alpha">-1</property>
    <property name="kdenlive:collapsed">0</property>
    <property name="disable">1</property>
   </filter>
   <filter id="filter100">
    <property name="rotate_center">1</property>
    <property name="mlt_service">qtblend</property>
    <property name="kdenlive_id">qtblend</property>
    <property name="rect">00:00:00.000=-301 0 1920 1080 1.000000;00:00:12.800=-403 -371 2592 1458 1.000000</property>
    <property name="rotation">00:00:00.000=0;00:00:12.800=0</property>
    <property name="compositing">0</property>
    <property name="distort">0</property>
    <property name="kdenlive:collapsed">0</property>
   </filter>
  </entry>
  <entry producer="producer139" in="00:00:00.200" out="00:00:13.333">
   <property name="kdenlive:id">40</property>
   <property name="kdenlive:activeeffect">0</property>
   <filter id="filter102">
    <property name="rotate_center">1</property>
    <property name="mlt_service">qtblend</property>
    <property name="kdenlive_id">qtblend</property>
    <property name="rect">00:00:00.200=-385 -250 2688 1512 1.000000;00:00:13.333=0 0 1920 1080 1.000000</property>
    <property name="rotation">00:00:00.200=0;00:00:13.333=0</property>
    <property name="compositing">0</property>
    <property name="distort">0</property>
    <property name="kdenlive:collapsed">0</property>
   </filter>
  </entry>
  <blank length="00:00:09.633"/>
  <entry producer="producer144" in="00:00:09.633" out="00:00:17.233">
   <property name="kdenlive:id">101</property>
  </entry>
  <entry producer="producer145" in="00:00:00.000" out="00:00:05.033">
   <property name="kdenlive:id">101</property>
  </entry>
  <blank length="00:00:11.233"/>
  <entry producer="producer146" in="00:00:02.133" out="00:00:09.633">
   <property name="kdenlive:id">35</property>
   <filter id="filter202">
    <property name="rotate_center">1</property>
    <property name="mlt_service">qtblend</property>
    <property name="kdenlive_id">qtblend</property>
    <property name="rect">00:00:02.133=-340 -335 2592 1458 1.000000</property>
    <property name="rotation">00:00:02.133=0</property>
    <property name="compositing">0</property>
    <property name="distort">0</property>
    <property name="kdenlive:collapsed">0</property>
   </filter>
  </entry>
  <blank length="00:00:33.067"/>
  <entry producer="producer147" in="00:00:00.000" out="00:00:10.800">
   <property name="kdenlive:id">110</property>
   <filter id="filter203">
    <property name="rotate_center">1</property>
    <property name="mlt_service">qtblend</property>
    <property name="kdenlive_id">qtblend</property>
    <property name="rect">00:00:00.000=349 0 1920 1080 1.000000;00:00:07.067=349 0 1920 1080 1.000000;00:00:10.133=137 0 2092 1177 1.000000;00:00:10.233=180 -56 2208 1242 1.000000;00:00:10.500=211 -26 2112 1188 1.000000</property>
    <property name="rotation">00:00:00.000=0;00:00:07.067=0;00:00:10.133=0;00:00:10.233=0;00:00:10.500=0</property>
    <property name="compositing">0</property>
    <property name="distort">0</property>
    <property name="kdenlive:collapsed">0</property>
   </filter>
   <filter id="filter204">
    <property name="mirror">horizontal</property>
    <property name="mlt_service">mirror</property>
    <property name="kdenlive_id">mirror</property>
    <property name="reverse">0</property>
    <property name="kdenlive:collapsed">0</property>
   </filter>
   <filter id="filter205">
    <property name="mlt_service">avfilter.unsharp</property>
    <property name="kdenlive_id">avfilter.unsharp</property>
    <property name="av.lx">5</property>
    <property name="av.ly">5</property>
    <property name="av.la">1.528</property>
    <property name="av.cx">5</property>
    <property name="av.cy">5</property>
    <property name="av.ca">1.542</property>
    <property name="kdenlive:collapsed">0</property>
   </filter>
   <filter id="filter206">
    <property name="lift_r">0.149996</property>
    <property name="lift_g">0.149996</property>
    <property name="lift_b">0.149996</property>
    <property name="gamma_r">1.0125</property>
    <property name="gamma_g">1.0125</property>
    <property name="gamma_b">1.0125</property>
    <property name="gain_r">1.17501</property>
    <property name="gain_g">1.17501</property>
    <property name="gain_b">1.17501</property>
    <property name="mlt_service">lift_gamma_gain</property>
    <property name="kdenlive_id">lift_gamma_gain</property>
    <property name="kdenlive:collapsed">0</property>
   </filter>
   <filter id="filter207">
    <property name="version">0.3</property>
    <property name="mlt_service">frei0r.saturat0r</property>
    <property name="kdenlive_id">frei0r.saturat0r</property>
    <property name="Saturation">00:00:00.000=0.171</property>
    <property name="kdenlive:collapsed">0</property>
   </filter>
  </entry>
  <blank length="00:00:05.700"/>
  <entry producer="producer148" in="00:00:03.700" out="00:00:11.100">
   <property name="kdenlive:id">111</property>
   <property name="kdenlive:activeeffect">1</property>
   <filter id="filter208">
    <property name="rotate_center">1</property>
    <property name="mlt_service">qtblend</property>
    <property name="kdenlive_id">qtblend</property>
    <property name="rect">00:00:03.700=0 0 1920 1080 1</property>
    <property name="rotation">00:00:03.700=0</property>
    <property name="compositing">0</property>
    <property name="distort">1</property>
    <property name="kdenlive:collapsed">0</property>
   </filter>
   <filter id="filter209">
    <property name="mlt_service">avfilter.unsharp</property>
    <property name="kdenlive_id">avfilter.unsharp</property>
    <property name="av.lx">5</property>
    <property name="av.ly">5</property>
    <property name="av.la">1.92233</property>
    <property name="av.cx">5</property>
    <property name="av.cy">5</property>
    <property name="av.ca">1.927</property>
    <property name="kdenlive:collapsed">0</property>
   </filter>
  </entry>
  <blank length="00:00:44.167"/>
  <entry producer="producer149" in="00:00:00.000" out="00:00:11.600">
   <property name="kdenlive:id">109</property>
   <property name="kdenlive:activeeffect">2</property>
   <filter id="filter211">
    <property name="rotate_center">1</property>
    <property name="mlt_service">qtblend</property>
    <property name="kdenlive_id">qtblend</property>
    <property name="rect">00:00:00.000|=-309 0 1920 1080 1.000000;00:00:08.367|=-501 -108 2304 1296 1.000000;00:00:08.900|=-693 -216 2688 1512 1.000000;00:00:09.567|=-885 -324 3072 1728 1.000000;00:00:10.200|=-1077 -432 3456 1944 1.000000;00:00:10.867|=-1269 -540 3840 2160 1.000000</property>
    <property name="rotation">00:00:00.000|=0;00:00:08.367|=0;00:00:08.900|=0;00:00:09.567|=0;00:00:10.200|=0;00:00:10.867|=0</property>
    <property name="compositing">0</property>
    <property name="distort">0</property>
    <property name="kdenlive:collapsed">0</property>
   </filter>
   <filter id="filter212">
    <property name="mirror">horizontal</property>
    <property name="mlt_service">mirror</property>
    <property name="kdenlive_id">mirror</property>
    <property name="reverse">1</property>
    <property name="kdenlive:collapsed">0</property>
   </filter>
   <filter id="filter213">
    <property name="version">0.1</property>
    <property name="mlt_service">frei0r.distort0r</property>
    <property name="kdenlive_id">frei0r.distort0r</property>
    <property name="Amplitude">00:00:00.000=0;00:00:00.300=-0.04;00:00:00.633=0.05;00:00:01.200=-0.03;00:00:01.567=0.05;00:00:02.133=-0.05;00:00:02.500=0.04;00:00:03.033=-0.04;00:00:03.400=0.05;00:00:03.933=-0.04;00:00:04.267=0.05;00:00:04.800=-0.04;00:00:05.300=0.05;00:00:05.800=-0.04;00:00:06.133=0.05;00:00:06.600=-0.04;00:00:06.967=0.05;00:00:07.567=-0.045;00:00:07.900=0.05;00:00:08.500=-0.04;00:00:08.867=0.05;00:00:09.433=-0.04;00:00:09.733=0.05;00:00:11.600=-0.12</property>
    <property name="Frequency">00:00:00.000=-0.077;00:00:00.300=-0.077;00:00:00.633=-0.08;00:00:01.200=-0.07;00:00:01.567=-0.08;00:00:02.133=-0.07;00:00:02.500=-0.08;00:00:03.033=-0.07;00:00:03.400=-0.08;00:00:03.933=-0.07;00:00:04.267=-0.08;00:00:04.800=-0.09;00:00:05.300=-0.07;00:00:05.800=-0.07;00:00:06.133=-0.08;00:00:06.600=-0.07;00:00:06.967=-0.09;00:00:07.567=-0.07;00:00:07.900=-0.08;00:00:08.500=-0.065;00:00:08.867=-0.08;00:00:09.433=-0.06;00:00:09.733=-0.0753;00:00:11.600=0.04</property>
    <property name="kdenlive:collapsed">0</property>
   </filter>
  </entry>
  <blank length="00:00:18.800"/>
  <entry producer="producer150" in="00:00:00.000" out="00:00:02.633">
   <property name="kdenlive:id">136</property>
   <filter id="filter214">
    <property name="rotate_center">1</property>
    <property name="mlt_service">qtblend</property>
    <property name="kdenlive_id">qtblend</property>
    <property name="rect">00:00:00.000=105 552 500 500 1.000000</property>
    <property name="rotation">00:00:00.000=0</property>
    <property name="compositing">0</property>
    <property name="distort">0</property>
    <property name="kdenlive:collapsed">0</property>
   </filter>
   <filter id="filter215">
    <property name="mlt_service">avfilter.unsharp</property>
    <property name="kdenlive_id">avfilter.unsharp</property>
    <property name="av.lx">5</property>
    <property name="av.ly">5</property>
    <property name="av.la">1.5</property>
    <property name="av.cx">5</property>
    <property name="av.cy">5</property>
    <property name="av.ca">2</property>
    <property name="kdenlive:collapsed">0</property>
   </filter>
  </entry>
  <entry producer="producer151" in="00:00:00.000" out="00:00:01.500">
   <property name="kdenlive:id">56</property>
   <filter id="filter216">
    <property name="version">0.1</property>
    <property name="mlt_service">frei0r.scale0tilt</property>
    <property name="kdenlive_id">frei0r.scale0tilt</property>
    <property name="Clip left">00:00:00.000=0.111979</property>
    <property name="Clip right">00:00:00.000=0.125</property>
    <property name="Clip top">00:00:00.000=0.00925926</property>
    <property name="Clip bottom">00:00:00.000=0</property>
    <property name="Scale X">0.36</property>
    <property name="Scale Y">0.35</property>
    <property name="Tilt X">00:00:00.000=0.5</property>
    <property name="Tilt Y">00:00:00.000=0.5</property>
    <property name="kdenlive:collapsed">0</property>
   </filter>
   <filter id="filter217">
    <property name="rotate_center">1</property>
    <property name="mlt_service">qtblend</property>
    <property name="kdenlive_id">qtblend</property>
    <property name="rect">00:00:00.000=16 548 944 720 1.000000</property>
    <property name="rotation">00:00:00.000=0</property>
    <property name="compositing">0</property>
    <property name="distort">0</property>
    <property name="kdenlive:collapsed">0</property>
   </filter>
   <filter id="filter218">
    <property name="mlt_service">avfilter.unsharp</property>
    <property name="kdenlive_id">avfilter.unsharp</property>
    <property name="av.lx">5</property>
    <property name="av.ly">5</property>
    <property name="av.la">0.74</property>
    <property name="av.cx">5</property>
    <property name="av.cy">5</property>
    <property name="av.ca">1.12</property>
    <property name="kdenlive:collapsed">0</property>
   </filter>
  </entry>
  <blank length="00:00:14.267"/>
  <entry producer="producer11" in="00:00:00.000" out="00:00:09.800">
   <property name="kdenlive:id">93</property>
   <property name="kdenlive:activeeffect">1</property>
   <filter id="filter219">
    <property name="mlt_service">avfilter.hqx</property>
    <property name="kdenlive_id">avfilter.hqx</property>
    <property name="av.n">2</property>
    <property name="kdenlive:collapsed">0</property>
   </filter>
   <filter id="filter220">
    <property name="rotate_center">1</property>
    <property name="mlt_service">qtblend</property>
    <property name="kdenlive_id">qtblend</property>
    <property name="rect">00:00:00.000=-450 -236 3072 1728 1.000000;00:00:09.800=-700 -244 3072 1728 1.000000;00:00:10.167=</property>
    <property name="rotation">00:00:00.000=0;00:00:09.800=0;00:00:10.167=</property>
    <property name="compositing">0</property>
    <property name="distort">0</property>
    <property name="kdenlive:collapsed">0</property>
   </filter>
   <filter id="filter224">
    <property name="mlt_service">avfilter.unsharp</property>
    <property name="kdenlive_id">avfilter.unsharp</property>
    <property name="av.lx">5</property>
    <property name="av.ly">5</property>
    <property name="av.la">1.346</property>
    <property name="av.cx">5</property>
    <property name="av.cy">5</property>
    <property name="av.ca">1.269</property>
    <property name="kdenlive:collapsed">0</property>
   </filter>
  </entry>
  <blank length="00:00:11.800"/>
  <entry producer="producer5" in="00:00:00.000" out="00:00:23.733">
   <property name="kdenlive:id">87</property>
   <property name="kdenlive:activeeffect">3</property>
   <filter id="filter225" in="00:00:03.733" out="00:00:23.733">
    <property name="start">1</property>
    <property name="mlt_service">brightness</property>
    <property name="kdenlive_id">fade_to_black</property>
    <property name="end">0</property>
    <property name="alpha">-1</property>
    <property name="kdenlive:collapsed">0</property>
   </filter>
   <filter id="filter226">
    <property name="rotate_center">1</property>
    <property name="mlt_service">qtblend</property>
    <property name="kdenlive_id">qtblend</property>
    <property name="rect">00:00:00.000=-437 -240 2784 1566 1.000000</property>
    <property name="rotation">00:00:00.000=0</property>
    <property name="compositing">0</property>
    <property name="distort">0</property>
    <property name="kdenlive:collapsed">0</property>
   </filter>
   <filter id="filter227">
    <property name="mlt_service">avfilter.unsharp</property>
    <property name="kdenlive_id">avfilter.unsharp</property>
    <property name="av.lx">5</property>
    <property name="av.ly">5</property>
    <property name="av.la">1.899</property>
    <property name="av.cx">5</property>
    <property name="av.cy">7</property>
    <property name="av.ca">0</property>
    <property name="kdenlive:collapsed">0</property>
   </filter>
   <filter id="filter228">
    <property name="version">0.3</property>
    <property name="mlt_service">frei0r.saturat0r</property>
    <property name="kdenlive_id">frei0r.saturat0r</property>
    <property name="Saturation">00:00:00.000=0.125;00:00:08.633=0.125;00:00:17.333=0.04</property>
    <property name="kdenlive:collapsed">0</property>
   </filter>
  </entry>
  <blank length="00:00:42.700"/>
  <entry producer="producer37" in="00:00:00.000" out="00:00:08.567">
   <property name="kdenlive:id">60</property>
   <filter id="filter55">
    <property name="rotate_center">1</property>
    <property name="mlt_service">qtblend</property>
    <property name="kdenlive_id">qtblend</property>
    <property name="rect">00:00:00.000=272 0 1920 1080 1.000000</property>
    <property name="rotation">00:00:00.000=0</property>
    <property name="compositing">0</property>
    <property name="distort">0</property>
    <property name="kdenlive:collapsed">0</property>
   </filter>
  </entry>
  <blank length="00:00:01.567"/>
  <entry producer="producer142" in="00:00:00.000" out="00:00:06.667">
   <property name="kdenlive:id">46</property>
   <filter id="filter56">
    <property name="mlt_service">avfilter.unsharp</property>
    <property name="kdenlive_id">avfilter.unsharp</property>
    <property name="av.lx">5</property>
    <property name="av.ly">5</property>
    <property name="av.la">2</property>
    <property name="av.cx">5</property>
    <property name="av.cy">5</property>
    <property name="av.ca">2</property>
    <property name="kdenlive:collapsed">0</property>
   </filter>
   <filter id="filter59">
    <property name="rotate_center">1</property>
    <property name="mlt_service">qtblend</property>
    <property name="kdenlive_id">qtblend</property>
    <property name="rect">00:00:00.000=1090 0 1920 1080 1.000000</property>
    <property name="rotation">00:00:00.000=0</property>
    <property name="compositing">0</property>
    <property name="distort">0</property>
    <property name="kdenlive:collapsed">0</property>
   </filter>
   <filter id="filter60">
    <property name="mlt_service">avfilter.hflip</property>
    <property name="kdenlive_id">avfilter.hflip</property>
    <property name="kdenlive:collapsed">0</property>
   </filter>
   <filter id="filter63">
    <property name="mlt_service">crop</property>
    <property name="kdenlive_id">crop</property>
    <property name="top">0</property>
    <property name="left">0</property>
    <property name="bottom">0</property>
    <property name="right">5</property>
    <property name="center">0</property>
    <property name="center_bias">0</property>
    <property name="use_profile">0</property>
    <property name="kdenlive:collapsed">0</property>
   </filter>
  </entry>
  <blank length="00:00:01.167"/>
  <entry producer="producer146" in="00:00:00.000" out="00:00:06.033">
   <property name="kdenlive:id">35</property>
   <filter id="filter64">
    <property name="mlt_service">avfilter.unsharp</property>
    <property name="kdenlive_id">avfilter.unsharp</property>
    <property name="av.lx">5</property>
    <property name="av.ly">5</property>
    <property name="av.la">1.5</property>
    <property name="av.cx">5</property>
    <property name="av.cy">5</property>
    <property name="av.ca">1.5</property>
    <property name="kdenlive:collapsed">0</property>
   </filter>
   <filter id="filter67">
    <property name="rotate_center">1</property>
    <property name="mlt_service">qtblend</property>
    <property name="kdenlive_id">qtblend</property>
    <property name="rect">00:00:00.000=1163 0 1920 1080 1.000000</property>
    <property name="rotation">00:00:00.000=0</property>
    <property name="compositing">0</property>
    <property name="distort">0</property>
    <property name="kdenlive:collapsed">0</property>
   </filter>
   <filter id="filter68">
    <property name="mlt_service">avfilter.hflip</property>
    <property name="kdenlive_id">avfilter.hflip</property>
    <property name="kdenlive:collapsed">0</property>
   </filter>
   <filter id="filter71">
    <property name="mlt_service">crop</property>
    <property name="kdenlive_id">crop</property>
    <property name="top">0</property>
    <property name="left">0</property>
    <property name="bottom">0</property>
    <property name="right">5</property>
    <property name="center">0</property>
    <property name="center_bias">0</property>
    <property name="use_profile">0</property>
    <property name="kdenlive:collapsed">0</property>
   </filter>
  </entry>
  <blank length="00:00:00.900"/>
  <entry producer="producer140" in="00:00:00.000" out="00:00:08.467">
   <property name="kdenlive:id">33</property>
   <property name="kdenlive:activeeffect">1</property>
   <filter id="filter72">
    <property name="mlt_service">avfilter.unsharp</property>
    <property name="kdenlive_id">avfilter.unsharp</property>
    <property name="av.lx">5</property>
    <property name="av.ly">5</property>
    <property name="av.la">1.5</property>
    <property name="av.cx">5</property>
    <property name="av.cy">5</property>
    <property name="av.ca">1.5</property>
    <property name="kdenlive:collapsed">0</property>
   </filter>
   <filter id="filter74">
    <property name="rotate_center">1</property>
    <property name="mlt_service">qtblend</property>
    <property name="kdenlive_id">qtblend</property>
    <property name="rect">00:00:00.000=1070 0 1920 1080 1.000000;00:00:08.467=1290 -72 2304 1297 1.000000</property>
    <property name="rotation">00:00:00.000=0;00:00:08.467=0</property>
    <property name="compositing">0</property>
    <property name="distort">0</property>
    <property name="kdenlive:collapsed">0</property>
   </filter>
   <filter id="filter75">
    <property name="mlt_service">avfilter.hflip</property>
    <property name="kdenlive_id">avfilter.hflip</property>
    <property name="kdenlive:collapsed">0</property>
   </filter>
   <filter id="filter77">
    <property name="mlt_service">crop</property>
    <property name="kdenlive_id">crop</property>
    <property name="top">0</property>
    <property name="left">10</property>
    <property name="bottom">0</property>
    <property name="right">0</property>
    <property name="center">0</property>
    <property name="center_bias">0</property>
    <property name="use_profile">0</property>
    <property name="kdenlive:collapsed">0</property>
   </filter>
  </entry>
  <blank length="00:00:01.167"/>
  <entry producer="producer141" in="00:00:00.000" out="00:00:08.933">
   <property name="kdenlive:id">43</property>
   <filter id="filter78">
    <property name="mlt_service">avfilter.unsharp</property>
    <property name="kdenlive_id">avfilter.unsharp</property>
    <property name="av.lx">5</property>
    <property name="av.ly"/>
    <property name="av.la">1.395</property>
    <property name="av.cx">5</property>
    <property name="av.cy">5</property>
    <property name="av.ca">2.431</property>
    <property name="kdenlive:collapsed">0</property>
   </filter>
   <filter id="filter81">
    <property name="rotate_center">1</property>
    <property name="mlt_service">qtblend</property>
    <property name="kdenlive_id">qtblend</property>
    <property name="rect">0=1278 -213 2304 1296 1.000000;268=1090 0 1920 1080 1.000000</property>
    <property name="rotation">0=0;268=0</property>
    <property name="compositing">0</property>
    <property name="distort">0</property>
    <property name="kdenlive:collapsed">0</property>
   </filter>
   <filter id="filter82">
    <property name="mlt_service">avfilter.hflip</property>
    <property name="kdenlive_id">avfilter.hflip</property>
    <property name="kdenlive:collapsed">0</property>
   </filter>
   <filter id="filter92">
    <property name="mlt_service">crop</property>
    <property name="kdenlive_id">crop</property>
    <property name="top">0</property>
    <property name="left">3</property>
    <property name="bottom">0</property>
    <property name="right">0</property>
    <property name="center">0</property>
    <property name="center_bias">0</property>
    <property name="use_profile">0</property>
    <property name="kdenlive:collapsed">0</property>
   </filter>
  </entry>
 </playlist>
 <playlist id="playlist9"/>
 <tractor id="tractor4" in="00:00:00.000" out="00:08:02.933">
  <property name="kdenlive:trackheight">69</property>
  <property name="kdenlive:timeline_active"/>
  <property name="kdenlive:collapsed">28</property>
  <property name="kdenlive:track_name">Video 2</property>
  <property name="kdenlive:thumbs_format"/>
  <property name="kdenlive:audio_rec"/>
  <track hide="audio" producer="playlist8"/>
  <track producer="playlist9"/>
 </tractor>
 <producer id="producer143" in="00:00:00.000" out="00:03:53.467">
  <property name="length">7005</property>
  <property name="eof">pause</property>
  <property name="resource">/home/ryankelln/.cache/kdenlive/proxy/e4a6fa5f8146f0aeb0d5df779ec987df.mkv</property>
  <property name="audio_index">1</property>
  <property name="video_index">0</property>
  <property name="mute_on_pause">0</property>
  <property name="mlt_service">avformat-novalidate</property>
  <property name="seekable">1</property>
  <property name="aspect_ratio">1</property>
  <property name="kdenlive:clipname">2021-02-06_Chris_piano+4k_suzy_P1180151-take1_beginning_to_F.MP4</property>
  <property name="kdenlive:folderid">103</property>
  <property name="kdenlive:id">72</property>
  <property name="kdenlive:file_size">2799439497</property>
  <property name="kdenlive:file_hash">e4a6fa5f8146f0aeb0d5df779ec987df</property>
  <property name="kdenlive:audio_max">1</property>
  <property name="kdenlive:proxy">/home/ryankelln/.cache/kdenlive/proxy/e4a6fa5f8146f0aeb0d5df779ec987df.mkv</property>
  <property name="kdenlive:originalurl">content/musicians/2021-02-06_Chris_piano+4k_suzy_P1180151-take1_beginning_to_F.MP4</property>
  <property name="kdenlive:original.mlt_type">producer</property>
  <property name="kdenlive:original.in">00:00:00.000</property>
  <property name="kdenlive:original.out">00:03:53.467</property>
  <property name="kdenlive:original.length">7005</property>
  <property name="kdenlive:original.eof">pause</property>
  <property name="kdenlive:original.resource">content/musicians/2021-02-06_Chris_piano+4k_suzy_P1180151-take1_beginning_to_F.MP4</property>
  <property name="kdenlive:original.meta.media.nb_streams">2</property>
  <property name="kdenlive:original.meta.media.0.stream.type">video</property>
  <property name="kdenlive:original.meta.media.0.stream.frame_rate">29.97</property>
  <property name="kdenlive:original.meta.media.0.stream.sample_aspect_ratio">1</property>
  <property name="kdenlive:original.meta.media.0.codec.width">3840</property>
  <property name="kdenlive:original.meta.media.0.codec.height">2160</property>
  <property name="kdenlive:original.meta.media.0.codec.rotate">0</property>
  <property name="kdenlive:original.meta.media.0.codec.frame_rate">29.97</property>
  <property name="kdenlive:original.meta.media.0.codec.pix_fmt">yuvj420p</property>
  <property name="kdenlive:original.meta.media.0.codec.sample_aspect_ratio">1</property>
  <property name="kdenlive:original.meta.media.0.codec.colorspace">709</property>
  <property name="kdenlive:original.meta.media.0.codec.color_trc">1</property>
  <property name="kdenlive:original.meta.media.0.codec.name">h264</property>
  <property name="kdenlive:original.meta.media.0.codec.long_name">H.264 / AVC / MPEG-4 AVC / MPEG-4 part 10</property>
  <property name="kdenlive:original.meta.media.0.codec.bit_rate">95792075</property>
  <property name="kdenlive:original.meta.attr.0.stream.creation_time.markup">2021-06-02T14:28:00.000000Z</property>
  <property name="kdenlive:original.meta.attr.0.stream.handler_name.markup">VideoHandler</property>
  <property name="kdenlive:original.meta.media.1.stream.type">audio</property>
  <property name="kdenlive:original.meta.media.1.codec.sample_fmt">fltp</property>
  <property name="kdenlive:original.meta.media.1.codec.sample_rate">48000</property>
  <property name="kdenlive:original.meta.media.1.codec.channels">2</property>
  <property name="kdenlive:original.meta.media.1.codec.name">aac</property>
  <property name="kdenlive:original.meta.media.1.codec.long_name">AAC (Advanced Audio Coding)</property>
  <property name="kdenlive:original.meta.media.1.codec.bit_rate">125374</property>
  <property name="kdenlive:original.meta.attr.1.stream.creation_time.markup">2021-06-02T14:28:00.000000Z</property>
  <property name="kdenlive:original.meta.attr.1.stream.handler_name.markup">SoundHandler</property>
  <property name="kdenlive:original.meta.attr.major_brand.markup">isom</property>
  <property name="kdenlive:original.meta.attr.minor_version.markup">512</property>
  <property name="kdenlive:original.meta.attr.compatible_brands.markup">isomiso2avc1mp41</property>
  <property name="kdenlive:original.meta.attr.creation_time.markup">2021-06-02T14:28:00.000000Z</property>
  <property name="kdenlive:original.meta.attr.encoder.markup">Lavf58.45.100</property>
  <property name="kdenlive:original.seekable">1</property>
  <property name="kdenlive:original.width">3840</property>
  <property name="kdenlive:original.height">2160</property>
  <property name="kdenlive:original.meta.media.sample_aspect_num">1</property>
  <property name="kdenlive:original.meta.media.sample_aspect_den">1</property>
  <property name="kdenlive:original.aspect_ratio">1</property>
  <property name="kdenlive:original.audio_index">1</property>
  <property name="kdenlive:original.video_index">0</property>
  <property name="kdenlive:original.mute_on_pause">0</property>
  <property name="kdenlive:original.mlt_service">avformat-novalidate</property>
  <property name="kdenlive:original.kdenlive:folderid">103</property>
  <property name="kdenlive:original.meta.media.frame_rate_num">30000</property>
  <property name="kdenlive:original.meta.media.frame_rate_den">1001</property>
  <property name="kdenlive:original.meta.media.colorspace">709</property>
  <property name="kdenlive:original.meta.media.color_trc">1</property>
  <property name="kdenlive:original.meta.media.width">3840</property>
  <property name="kdenlive:original.meta.media.height">2160</property>
  <property name="kdenlive:original.meta.media.color_range">full</property>
  <property name="kdenlive:original.kdenlive:id">106</property>
  <property name="kdenlive:original.kdenlive:file_size">2799439497</property>
  <property name="kdenlive:original.kdenlive:file_hash">e4a6fa5f8146f0aeb0d5df779ec987df</property>
  <property name="kdenlive:original.kdenlive:audio_max">1</property>
  <property name="kdenlive:original.meta.media.top_field_first">0</property>
  <property name="kdenlive:original.meta.media.progressive">1</property>
  <property name="kdenlive:original.backup">1</property>
  <property name="global_feed">1</property>
  <property name="kdenlive:activeeffect">1</property>
  <property name="xml">was here</property>
  <property name="meta.media.nb_streams">2</property>
  <property name="meta.media.0.stream.type">video</property>
  <property name="meta.media.0.stream.frame_rate">29.97</property>
  <property name="meta.media.0.stream.sample_aspect_ratio">1</property>
  <property name="meta.media.0.codec.width">960</property>
  <property name="meta.media.0.codec.height">540</property>
  <property name="meta.media.0.codec.rotate">0</property>
  <property name="meta.media.0.codec.frame_rate">1000</property>
  <property name="meta.media.0.codec.pix_fmt">yuvj420p</property>
  <property name="meta.media.0.codec.sample_aspect_ratio">1</property>
  <property name="meta.media.0.codec.colorspace">601</property>
  <property name="meta.media.0.codec.name">mjpeg</property>
  <property name="meta.media.0.codec.long_name">MJPEG (Motion JPEG)</property>
  <property name="meta.media.0.codec.bit_rate">0</property>
  <property name="meta.attr.0.stream.HANDLER_NAME.markup">VideoHandler</property>
  <property name="meta.attr.0.stream.ENCODER.markup">Lavc58.91.100 mjpeg</property>
  <property name="meta.attr.0.stream.DURATION.markup">00:03:53.566000000</property>
  <property name="meta.media.1.stream.type">audio</property>
  <property name="meta.media.1.codec.sample_fmt">s16</property>
  <property name="meta.media.1.codec.sample_rate">48000</property>
  <property name="meta.media.1.codec.channels">2</property>
  <property name="meta.media.1.codec.name">pcm_s16le</property>
  <property name="meta.media.1.codec.long_name">PCM signed 16-bit little-endian</property>
  <property name="meta.media.1.codec.bit_rate">1536000</property>
  <property name="meta.attr.1.stream.HANDLER_NAME.markup">SoundHandler</property>
  <property name="meta.attr.1.stream.ENCODER.markup">Lavc58.91.100 pcm_s16le</property>
  <property name="meta.attr.1.stream.DURATION.markup">00:03:53.514000000</property>
  <property name="meta.attr.COMPATIBLE_BRANDS.markup">isomiso2avc1mp41</property>
  <property name="meta.attr.MAJOR_BRAND.markup">isom</property>
  <property name="meta.attr.MINOR_VERSION.markup">512</property>
  <property name="meta.attr.ENCODER.markup">Lavf58.45.100</property>
  <property name="meta.media.sample_aspect_num">1</property>
  <property name="meta.media.sample_aspect_den">1</property>
  <property name="meta.media.frame_rate_num">30000</property>
  <property name="meta.media.frame_rate_den">1001</property>
  <property name="meta.media.colorspace">601</property>
  <property name="meta.media.color_trc">2</property>
  <property name="meta.media.width">960</property>
  <property name="meta.media.height">540</property>
  <property name="meta.media.color_range">full</property>
  <property name="meta.media.top_field_first">0</property>
  <property name="meta.media.progressive">1</property>
  <property name="set.test_audio">1</property>
  <property name="set.test_image">0</property>
  <filter id="filter93">
   <property name="version">0.1</property>
   <property name="mlt_service">frei0r.hqdn3d</property>
   <property name="kdenlive_id">frei0r.hqdn3d</property>
   <property name="Spatial">00:00:00.000=0.01</property>
   <property name="Temporal">00:00:00.000=0.01</property>
  </filter>
  <filter id="filter94">
   <property name="version">0.6</property>
   <property name="mlt_service">frei0r.select0r</property>
   <property name="kdenlive_id">frei0r.select0r</property>
   <property name="Color to select">0x739c69ff</property>
   <property name="Invert selection">1</property>
   <property name="Selection subspace">1</property>
   <property name="Subspace shape">0</property>
   <property name="Edge mode">0.9</property>
   <property name="Delta R / A / Hue">00:00:00.000=0.065</property>
   <property name="Delta G / B / Chroma">00:00:00.000=0.09</property>
   <property name="Delta B / I / I">00:00:00.000=0.24</property>
   <property name="Slope">00:00:00.000=0.075</property>
   <property name="Operation">0.5</property>
  </filter>
  <filter id="filter95">
   <property name="mode">alpha</property>
   <property name="alpha_operation">add</property>
   <property name="invert">0</property>
   <property name="feather">5</property>
   <property name="feather_passes">1</property>
   <property name="mlt_service">rotoscoping</property>
   <property name="kdenlive_id">rotoscoping</property>
   <property name="spline">{
    "0000": [
        [
            [
                -0.069811320754717,
                0.37462686567164183
            ],
            [
                -0.06184486373165619,
                0.17164179104477612
            ],
            [
                -0.005660377358490565,
                0.17537313432835822
            ]
        ],
        [
            [
                0.1628930817610063,
                0.18656716417910446
            ],
            [
                0.21907756813417192,
                0.19029850746268656
            ],
            [
                0.21907756813417192,
                0.19776119402985076
            ]
        ],
        [
            [
                0.21907756813417192,
                0.22014925373134328
            ],
            [
                0.21907756813417192,
                0.22761194029850748
            ],
            [
                0.22746331236897274,
                0.22537313432835823
            ]
        ],
        [
            [
                0.2526205450733753,
                0.21865671641791046
            ],
            [
                0.2610062893081761,
                0.2164179104477612
            ],
            [
                0.27693920335429767,
                0.2485074626865672
            ]
        ],
        [
            [
                0.32473794549266244,
                0.3447761194029851
            ],
            [
                0.34067085953878407,
                0.3768656716417911
            ],
            [
                0.35576519916142557,
                0.37835820895522393
            ]
        ],
        [
            [
                0.40104821802935015,
                0.38283582089552237
            ],
            [
                0.41614255765199165,
                0.3843283582089552
            ],
            [
                0.4157232704402516,
                0.40223880597014927
            ]
        ],
        [
            [
                0.4144654088050314,
                0.45597014925373136
            ],
            [
                0.4140461215932914,
                0.47388059701492535
            ],
            [
                0.42075471698113204,
                0.491044776119403
            ]
        ],
        [
            [
                0.44088050314465405,
                0.5425373134328358
            ],
            [
                0.44758909853249473,
                0.5597014925373135
            ],
            [
                0.45555555555555555,
                0.5611940298507463
            ]
        ],
        [
            [
                0.47945492662473793,
                0.5656716417910448
            ],
            [
                0.4874213836477987,
                0.5671641791044776
            ],
            [
                0.48951781970649894,
                0.5813432835820895
            ]
        ],
        [
            [
                0.4958071278825996,
                0.6238805970149254
            ],
            [
                0.4979035639412998,
                0.6380597014925373
            ],
            [
                0.4849056603773585,
                0.7194029850746269
            ]
        ],
        [
            [
                0.4459119496855346,
                0.9634328358208955
            ],
            [
                0.4329140461215933,
                1.0447761194029852
            ],
            [
                0.3259958071278826,
                1.073134328358209
            ]
        ],
        [
            [
                0.005241090146750516,
                1.1582089552238806
            ],
            [
                -0.10167714884696016,
                1.1865671641791045
            ],
            [
                -0.09371069182389938,
                0.9835820895522389
            ]
        ]
    ],
    "0001": [
        [
            [
                -0.069811320754717,
                0.37462686567164183
            ],
            [
                -0.06184486373165619,
                0.17164179104477612
            ],
            [
                -0.005660377358490565,
                0.17537313432835822
            ]
        ],
        [
            [
                0.1649895178197065,
                0.1697761194029851
            ],
            [
                0.22117400419287211,
                0.17350746268656717
            ],
            [
                0.22117400419287211,
                0.18097014925373137
            ]
        ],
        [
            [
                0.22012578616352202,
                0.21082089552238803
            ],
            [
                0.22012578616352202,
                0.21828358208955223
            ],
            [
                0.22851153039832284,
                0.21604477611940298
            ]
        ],
        [
            [
                0.2547169811320755,
                0.21492537313432836
            ],
            [
                0.26310272536687634,
                0.2126865671641791
            ],
            [
                0.28721174004192884,
                0.2891791044776119
            ]
        ],
        [
            [
                0.3113207547169811,
                0.33955223880597013
            ],
            [
                0.3427672955974843,
                0.373134328358209
            ],
            [
                0.3578616352201258,
                0.37462686567164183
            ]
        ],
        [
            [
                0.4041928721174004,
                0.37723880597014925
            ],
            [
                0.4192872117400419,
                0.3787313432835821
            ],
            [
                0.41886792452830185,
                0.3966417910447762
            ]
        ],
        [
            [
                0.41656184486373166,
                0.4354477611940299
            ],
            [
                0.41614255765199165,
                0.4533582089552239
            ],
            [
                0.4171907756813417,
                0.5261194029850746
            ]
        ],
        [
            [
                0.43396226415094336,
                0.5466417910447762
            ],
            [
                0.44758909853249473,
                0.5597014925373135
            ],
            [
                0.45555555555555555,
                0.5611940298507463
            ]
        ],
        [
            [
                0.48259958071278825,
                0.5582089552238807
            ],
            [
                0.49056603773584906,
                0.5597014925373135
            ],
            [
                0.49266247379454925,
                0.5738805970149253
            ]
        ],
        [
            [
                0.49580712788259956,
                0.6417910447761195
            ],
            [
                0.4863731656184486,
                0.6548507462686568
            ],
            [
                0.47337526205450736,
                0.7361940298507463
            ]
        ],
        [
            [
                0.4459119496855346,
                0.9634328358208955
            ],
            [
                0.4329140461215933,
                1.0447761194029852
            ],
            [
                0.3259958071278826,
                1.073134328358209
            ]
        ],
        [
            [
                0.005241090146750516,
                1.1582089552238806
            ],
            [
                -0.10167714884696016,
                1.1865671641791045
            ],
            [
                -0.09371069182389938,
                0.9835820895522389
            ]
        ]
    ]
}
</property>
  </filter>
  <filter id="filter96">
   <property name="mlt_service">avfilter.despill</property>
   <property name="kdenlive_id">avfilter.despill</property>
   <property name="av.type">green</property>
   <property name="av.mix">0.278</property>
   <property name="av.expand">0.06</property>
   <property name="av.red">0</property>
   <property name="av.green">-0.9</property>
   <property name="av.blue">-0.5</property>
   <property name="av.brightness">0</property>
  </filter>
 </producer>
 <producer id="producer152" in="00:00:00.000" out="00:00:07.467">
  <property name="length">225</property>
  <property name="eof">pause</property>
  <property name="resource">content/consingan_paintings/rowboats_mask.png</property>
  <property name="ttl">25</property>
  <property name="aspect_ratio">1</property>
  <property name="progressive">1</property>
  <property name="seekable">1</property>
  <property name="meta.media.width">912</property>
  <property name="meta.media.height">720</property>
  <property name="mlt_service">qimage</property>
  <property name="kdenlive:clipname">rowboats_mask.png</property>
  <property name="kdenlive:duration">00:00:05.000</property>
  <property name="kdenlive:folderid">31</property>
  <property name="kdenlive:id">60</property>
  <property name="kdenlive:file_size">721821</property>
  <property name="global_feed">1</property>
  <property name="kdenlive:file_hash">711c30ef07677198044d0bdc88c6e38e</property>
  <property name="xml">was here</property>
  <property name="set.test_audio">1</property>
  <property name="set.test_image">1</property>
 </producer>
 <producer id="producer153" in="00:00:00.000" out="00:00:39.733">
  <property name="length">1193</property>
  <property name="eof">pause</property>
  <property name="resource">content/consingan_paintings/reflections_1.mp4</property>
  <property name="audio_index">-1</property>
  <property name="video_index">0</property>
  <property name="mute_on_pause">0</property>
  <property name="mlt_service">avformat-novalidate</property>
  <property name="seekable">1</property>
  <property name="aspect_ratio">1</property>
  <property name="kdenlive:clipname">reflections_1.mp4</property>
  <property name="kdenlive:folderid">31</property>
  <property name="kdenlive:id">62</property>
  <property name="kdenlive:file_size">10299432</property>
  <property name="global_feed">1</property>
  <property name="kdenlive:file_hash">8a1b3ade5ccd31cfea8b74913c79d054</property>
  <property name="xml">was here</property>
  <property name="meta.media.nb_streams">1</property>
  <property name="meta.media.0.stream.type">video</property>
  <property name="meta.media.0.stream.frame_rate">30</property>
  <property name="meta.media.0.stream.sample_aspect_ratio">0</property>
  <property name="meta.media.0.codec.width">944</property>
  <property name="meta.media.0.codec.height">720</property>
  <property name="meta.media.0.codec.rotate">0</property>
  <property name="meta.media.0.codec.frame_rate">30</property>
  <property name="meta.media.0.codec.pix_fmt">yuv420p</property>
  <property name="meta.media.0.codec.sample_aspect_ratio">0</property>
  <property name="meta.media.0.codec.colorspace">601</property>
  <property name="meta.media.0.codec.name">h264</property>
  <property name="meta.media.0.codec.long_name">H.264 / AVC / MPEG-4 AVC / MPEG-4 part 10</property>
  <property name="meta.media.0.codec.bit_rate">2068899</property>
  <property name="meta.attr.0.stream.handler_name.markup">VideoHandler</property>
  <property name="meta.attr.major_brand.markup">isom</property>
  <property name="meta.attr.minor_version.markup">512</property>
  <property name="meta.attr.compatible_brands.markup">isomiso2avc1mp41</property>
  <property name="meta.attr.encoder.markup">Lavf58.29.100</property>
  <property name="meta.media.sample_aspect_num">1</property>
  <property name="meta.media.sample_aspect_den">1</property>
  <property name="meta.media.frame_rate_num">30</property>
  <property name="meta.media.frame_rate_den">1</property>
  <property name="meta.media.colorspace">601</property>
  <property name="meta.media.color_trc">2</property>
  <property name="meta.media.width">944</property>
  <property name="meta.media.height">720</property>
  <property name="meta.media.color_range">mpeg</property>
  <property name="meta.media.top_field_first">0</property>
  <property name="meta.media.progressive">1</property>
  <property name="set.test_audio">1</property>
  <property name="set.test_image">0</property>
 </producer>
 <producer id="producer157" in="00:00:00.000" out="00:00:09.967">
  <property name="length">300</property>
  <property name="eof">pause</property>
  <property name="resource">content/animated_paintings/fall_sparkles_dance_start_scale=0_alpha=0.1_beta=0.8.mp4</property>
  <property name="audio_index">-1</property>
  <property name="video_index">0</property>
  <property name="mute_on_pause">0</property>
  <property name="mlt_service">avformat-novalidate</property>
  <property name="seekable">1</property>
  <property name="aspect_ratio">1</property>
  <property name="kdenlive:clipname"/>
  <property name="kdenlive:folderid">81</property>
  <property name="kdenlive:id">112</property>
  <property name="kdenlive:file_size">4990397</property>
  <property name="kdenlive:file_hash">797d773b5d7b1b0f6410562990eacb76</property>
  <property name="global_feed">1</property>
  <property name="xml">was here</property>
  <property name="meta.media.nb_streams">1</property>
  <property name="meta.media.0.stream.type">video</property>
  <property name="meta.media.0.stream.frame_rate">10</property>
  <property name="meta.media.0.stream.sample_aspect_ratio">0</property>
  <property name="meta.media.0.codec.width">928</property>
  <property name="meta.media.0.codec.height">720</property>
  <property name="meta.media.0.codec.rotate">0</property>
  <property name="meta.media.0.codec.frame_rate">10</property>
  <property name="meta.media.0.codec.pix_fmt">yuv420p</property>
  <property name="meta.media.0.codec.sample_aspect_ratio">0</property>
  <property name="meta.media.0.codec.colorspace">601</property>
  <property name="meta.media.0.codec.name">h264</property>
  <property name="meta.media.0.codec.long_name">H.264 / AVC / MPEG-4 AVC / MPEG-4 part 10</property>
  <property name="meta.media.0.codec.bit_rate">3990723</property>
  <property name="meta.attr.0.stream.handler_name.markup">VideoHandler</property>
  <property name="meta.attr.major_brand.markup">isom</property>
  <property name="meta.attr.minor_version.markup">512</property>
  <property name="meta.attr.compatible_brands.markup">isomiso2avc1mp41</property>
  <property name="meta.attr.encoder.markup">Lavf58.29.100</property>
  <property name="meta.media.sample_aspect_num">1</property>
  <property name="meta.media.sample_aspect_den">1</property>
  <property name="meta.media.frame_rate_num">10</property>
  <property name="meta.media.frame_rate_den">1</property>
  <property name="meta.media.colorspace">601</property>
  <property name="meta.media.color_trc">2</property>
  <property name="meta.media.width">928</property>
  <property name="meta.media.height">720</property>
  <property name="meta.media.color_range">mpeg</property>
  <property name="meta.media.top_field_first">0</property>
  <property name="meta.media.progressive">1</property>
  <property name="set.test_audio">1</property>
  <property name="set.test_image">0</property>
 </producer>
 <producer id="producer158" in="00:00:00.000" out="00:00:13.233">
  <property name="length">398</property>
  <property name="eof">pause</property>
  <property name="resource">-1.000000:/home/ryankelln/.cache/kdenlive/proxy/72b81d51c3f060c1ed08c84bda93b0d2.mkv</property>
  <property name="aspect_ratio">1</property>
  <property name="meta.media.nb_streams">1</property>
  <property name="meta.media.0.stream.type">video</property>
  <property name="meta.media.0.stream.frame_rate">25</property>
  <property name="meta.media.0.stream.sample_aspect_ratio">0</property>
  <property name="meta.media.0.codec.width">960</property>
  <property name="meta.media.0.codec.height">524</property>
  <property name="meta.media.0.codec.rotate">0</property>
  <property name="meta.media.0.codec.frame_rate">1000</property>
  <property name="meta.media.0.codec.pix_fmt">yuvj444p</property>
  <property name="meta.media.0.codec.sample_aspect_ratio">0</property>
  <property name="meta.media.0.codec.colorspace">601</property>
  <property name="meta.media.0.codec.name">mjpeg</property>
  <property name="meta.media.0.codec.long_name">MJPEG (Motion JPEG)</property>
  <property name="meta.media.0.codec.bit_rate">0</property>
  <property name="meta.attr.0.stream.HANDLER_NAME.markup">VideoHandler</property>
  <property name="meta.attr.0.stream.ENCODER.markup">Lavc58.91.100 mjpeg</property>
  <property name="meta.attr.0.stream.DURATION.markup">00:00:13.280000000</property>
  <property name="meta.attr.COMPATIBLE_BRANDS.markup">isomiso2avc1mp41</property>
  <property name="meta.attr.MAJOR_BRAND.markup">isom</property>
  <property name="meta.attr.MINOR_VERSION.markup">512</property>
  <property name="meta.attr.ENCODER.markup">Lavf58.45.100</property>
  <property name="seekable">1</property>
  <property name="meta.media.sample_aspect_num">1</property>
  <property name="meta.media.sample_aspect_den">1</property>
  <property name="audio_index">-1</property>
  <property name="video_index">0</property>
  <property name="mute_on_pause">1</property>
  <property name="warp_speed">-1</property>
  <property name="warp_resource">/home/ryankelln/.cache/kdenlive/proxy/72b81d51c3f060c1ed08c84bda93b0d2.mkv</property>
  <property name="mlt_service">timewarp</property>
  <property name="kdenlive:proxy">/home/ryankelln/.cache/kdenlive/proxy/72b81d51c3f060c1ed08c84bda93b0d2.mkv</property>
  <property name="kdenlive:originalurl">content/animated_paintings/fall_sparkles_kaleidoscope.mp4</property>
  <property name="set.test_audio">1</property>
  <property name="set.test_image">0</property>
  <property name="kdenlive:id">117</property>
  <property name="warp_pitch">0</property>
  <property name="meta.media.frame_rate_num">25</property>
  <property name="meta.media.frame_rate_den">1</property>
  <property name="meta.media.colorspace">601</property>
  <property name="meta.media.color_trc">2</property>
  <property name="meta.media.width">960</property>
  <property name="meta.media.height">524</property>
  <property name="meta.media.color_range">full</property>
  <property name="meta.media.top_field_first">0</property>
  <property name="meta.media.progressive">1</property>
 </producer>
 <producer id="producer159" in="00:00:00.000" out="00:00:08.800">
  <property name="length">265</property>
  <property name="eof">pause</property>
  <property name="resource">-1.500000:/home/ryankelln/.cache/kdenlive/proxy/72b81d51c3f060c1ed08c84bda93b0d2.mkv</property>
  <property name="aspect_ratio">1</property>
  <property name="meta.media.nb_streams">1</property>
  <property name="meta.media.0.stream.type">video</property>
  <property name="meta.media.0.stream.frame_rate">25</property>
  <property name="meta.media.0.stream.sample_aspect_ratio">0</property>
  <property name="meta.media.0.codec.width">960</property>
  <property name="meta.media.0.codec.height">524</property>
  <property name="meta.media.0.codec.rotate">0</property>
  <property name="meta.media.0.codec.frame_rate">1000</property>
  <property name="meta.media.0.codec.pix_fmt">yuvj444p</property>
  <property name="meta.media.0.codec.sample_aspect_ratio">0</property>
  <property name="meta.media.0.codec.colorspace">601</property>
  <property name="meta.media.0.codec.name">mjpeg</property>
  <property name="meta.media.0.codec.long_name">MJPEG (Motion JPEG)</property>
  <property name="meta.media.0.codec.bit_rate">0</property>
  <property name="meta.attr.0.stream.HANDLER_NAME.markup">VideoHandler</property>
  <property name="meta.attr.0.stream.ENCODER.markup">Lavc58.91.100 mjpeg</property>
  <property name="meta.attr.0.stream.DURATION.markup">00:00:13.280000000</property>
  <property name="meta.attr.COMPATIBLE_BRANDS.markup">isomiso2avc1mp41</property>
  <property name="meta.attr.MAJOR_BRAND.markup">isom</property>
  <property name="meta.attr.MINOR_VERSION.markup">512</property>
  <property name="meta.attr.ENCODER.markup">Lavf58.45.100</property>
  <property name="seekable">1</property>
  <property name="meta.media.sample_aspect_num">1</property>
  <property name="meta.media.sample_aspect_den">1</property>
  <property name="audio_index">-1</property>
  <property name="video_index">0</property>
  <property name="mute_on_pause">1</property>
  <property name="warp_speed">-1.5</property>
  <property name="warp_resource">/home/ryankelln/.cache/kdenlive/proxy/72b81d51c3f060c1ed08c84bda93b0d2.mkv</property>
  <property name="mlt_service">timewarp</property>
  <property name="kdenlive:proxy">/home/ryankelln/.cache/kdenlive/proxy/72b81d51c3f060c1ed08c84bda93b0d2.mkv</property>
  <property name="kdenlive:originalurl">content/animated_paintings/fall_sparkles_kaleidoscope.mp4</property>
  <property name="set.test_audio">1</property>
  <property name="set.test_image">0</property>
  <property name="kdenlive:id">117</property>
  <property name="warp_pitch">0</property>
  <property name="meta.media.frame_rate_num">25</property>
  <property name="meta.media.frame_rate_den">1</property>
  <property name="meta.media.colorspace">601</property>
  <property name="meta.media.color_trc">2</property>
  <property name="meta.media.width">960</property>
  <property name="meta.media.height">524</property>
  <property name="meta.media.color_range">full</property>
  <property name="meta.media.top_field_first">0</property>
  <property name="meta.media.progressive">1</property>
 </producer>
 <producer id="producer160" in="00:00:00.000" out="00:00:26.467">
  <property name="length">795</property>
  <property name="eof">pause</property>
  <property name="resource">1.500000:content/consingan_paintings/fall_sparkles_dance_5.mp4</property>
  <property name="aspect_ratio">1</property>
  <property name="meta.media.nb_streams">1</property>
  <property name="meta.media.0.stream.type">video</property>
  <property name="meta.media.0.stream.frame_rate">30</property>
  <property name="meta.media.0.stream.sample_aspect_ratio">0</property>
  <property name="meta.media.0.codec.width">928</property>
  <property name="meta.media.0.codec.height">720</property>
  <property name="meta.media.0.codec.rotate">0</property>
  <property name="meta.media.0.codec.frame_rate">30</property>
  <property name="meta.media.0.codec.pix_fmt">yuv420p</property>
  <property name="meta.media.0.codec.sample_aspect_ratio">0</property>
  <property name="meta.media.0.codec.colorspace">601</property>
  <property name="meta.media.0.codec.name">h264</property>
  <property name="meta.media.0.codec.long_name">H.264 / AVC / MPEG-4 AVC / MPEG-4 part 10</property>
  <property name="meta.media.0.codec.bit_rate">2899556</property>
  <property name="meta.attr.0.stream.handler_name.markup">VideoHandler</property>
  <property name="meta.attr.major_brand.markup">isom</property>
  <property name="meta.attr.minor_version.markup">512</property>
  <property name="meta.attr.compatible_brands.markup">isomiso2avc1mp41</property>
  <property name="meta.attr.encoder.markup">Lavf58.29.100</property>
  <property name="seekable">1</property>
  <property name="meta.media.sample_aspect_num">1</property>
  <property name="meta.media.sample_aspect_den">1</property>
  <property name="audio_index">-1</property>
  <property name="video_index">0</property>
  <property name="mute_on_pause">1</property>
  <property name="warp_speed">1.5</property>
  <property name="warp_resource">content/consingan_paintings/fall_sparkles_dance_5.mp4</property>
  <property name="mlt_service">timewarp</property>
  <property name="set.test_audio">1</property>
  <property name="set.test_image">0</property>
  <property name="kdenlive:id">109</property>
  <property name="warp_pitch">0</property>
  <property name="meta.media.frame_rate_num">30</property>
  <property name="meta.media.frame_rate_den">1</property>
  <property name="meta.media.colorspace">601</property>
  <property name="meta.media.color_trc">2</property>
  <property name="meta.media.width">928</property>
  <property name="meta.media.height">720</property>
  <property name="meta.media.color_range">mpeg</property>
  <property name="meta.media.top_field_first">0</property>
  <property name="meta.media.progressive">1</property>
 </producer>
 <producer id="producer161" in="00:00:00.000" out="00:00:02.633">
  <property name="length">80</property>
  <property name="eof">pause</property>
  <property name="resource">content/animated_paintings/fall_shadows_timelapse_2.mp4</property>
  <property name="audio_index">-1</property>
  <property name="video_index">0</property>
  <property name="mute_on_pause">0</property>
  <property name="mlt_service">avformat-novalidate</property>
  <property name="seekable">1</property>
  <property name="aspect_ratio">1</property>
  <property name="kdenlive:clipname"/>
  <property name="kdenlive:folderid">81</property>
  <property name="kdenlive:id">124</property>
  <property name="kdenlive:file_size">74900</property>
  <property name="kdenlive:file_hash">68bf0062dd53def14d3985ddfd3dd7ec</property>
  <property name="global_feed">1</property>
  <property name="xml">was here</property>
  <property name="meta.media.nb_streams">1</property>
  <property name="meta.media.0.stream.type">video</property>
  <property name="meta.media.0.stream.frame_rate">15</property>
  <property name="meta.media.0.stream.sample_aspect_ratio">0</property>
  <property name="meta.media.0.codec.width">250</property>
  <property name="meta.media.0.codec.height">250</property>
  <property name="meta.media.0.codec.rotate">0</property>
  <property name="meta.media.0.codec.frame_rate">15</property>
  <property name="meta.media.0.codec.pix_fmt">yuv420p</property>
  <property name="meta.media.0.codec.sample_aspect_ratio">1</property>
  <property name="meta.media.0.codec.colorspace">601</property>
  <property name="meta.media.0.codec.name">mpeg4</property>
  <property name="meta.media.0.codec.long_name">MPEG-4 part 2</property>
  <property name="meta.media.0.codec.bit_rate">221526</property>
  <property name="meta.attr.0.stream.handler_name.markup">VideoHandler</property>
  <property name="meta.attr.major_brand.markup">isom</property>
  <property name="meta.attr.minor_version.markup">512</property>
  <property name="meta.attr.compatible_brands.markup">isomiso2mp41</property>
  <property name="meta.attr.encoder.markup">Lavf58.61.100</property>
  <property name="meta.media.sample_aspect_num">1</property>
  <property name="meta.media.sample_aspect_den">1</property>
  <property name="meta.media.frame_rate_num">15</property>
  <property name="meta.media.frame_rate_den">1</property>
  <property name="meta.media.colorspace">601</property>
  <property name="meta.media.color_trc">2</property>
  <property name="meta.media.width">250</property>
  <property name="meta.media.height">250</property>
  <property name="meta.media.color_range">mpeg</property>
  <property name="meta.media.top_field_first">0</property>
  <property name="meta.media.progressive">1</property>
  <property name="set.test_audio">1</property>
  <property name="set.test_image">0</property>
 </producer>
 <producer id="producer162" in="00:00:00.000" out="00:00:39.733">
  <property name="length">1193</property>
  <property name="eof">pause</property>
  <property name="resource">content/consingan_paintings/fall_shadows_1.mp4</property>
  <property name="audio_index">-1</property>
  <property name="video_index">0</property>
  <property name="mute_on_pause">0</property>
  <property name="mlt_service">avformat-novalidate</property>
  <property name="seekable">1</property>
  <property name="aspect_ratio">1</property>
  <property name="kdenlive:clipname">fall_shadows_1.mp4</property>
  <property name="kdenlive:folderid">31</property>
  <property name="kdenlive:id">36</property>
  <property name="kdenlive:file_size">3736874</property>
  <property name="global_feed">1</property>
  <property name="kdenlive:file_hash">49ca375289290b0084de6e15ab5d432a</property>
  <property name="xml">was here</property>
  <property name="meta.media.nb_streams">1</property>
  <property name="meta.media.0.stream.type">video</property>
  <property name="meta.media.0.stream.frame_rate">30</property>
  <property name="meta.media.0.stream.sample_aspect_ratio">0</property>
  <property name="meta.media.0.codec.width">912</property>
  <property name="meta.media.0.codec.height">720</property>
  <property name="meta.media.0.codec.rotate">0</property>
  <property name="meta.media.0.codec.frame_rate">30</property>
  <property name="meta.media.0.codec.pix_fmt">yuv420p</property>
  <property name="meta.media.0.codec.sample_aspect_ratio">0</property>
  <property name="meta.media.0.codec.colorspace">601</property>
  <property name="meta.media.0.codec.name">h264</property>
  <property name="meta.media.0.codec.long_name">H.264 / AVC / MPEG-4 AVC / MPEG-4 part 10</property>
  <property name="meta.media.0.codec.bit_rate">748705</property>
  <property name="meta.attr.0.stream.handler_name.markup">VideoHandler</property>
  <property name="meta.attr.major_brand.markup">isom</property>
  <property name="meta.attr.minor_version.markup">512</property>
  <property name="meta.attr.compatible_brands.markup">isomiso2avc1mp41</property>
  <property name="meta.attr.encoder.markup">Lavf58.29.100</property>
  <property name="meta.media.sample_aspect_num">1</property>
  <property name="meta.media.sample_aspect_den">1</property>
  <property name="meta.media.frame_rate_num">30</property>
  <property name="meta.media.frame_rate_den">1</property>
  <property name="meta.media.colorspace">601</property>
  <property name="meta.media.color_trc">2</property>
  <property name="meta.media.width">912</property>
  <property name="meta.media.height">720</property>
  <property name="meta.media.color_range">mpeg</property>
  <property name="meta.media.top_field_first">0</property>
  <property name="meta.media.progressive">1</property>
  <property name="set.test_audio">1</property>
  <property name="set.test_image">0</property>
 </producer>
 <producer id="producer163" in="00:00:00.000" out="00:00:01.900">
  <property name="length">58</property>
  <property name="eof">pause</property>
  <property name="resource">1.379310:content/animated_paintings/fall_sparkles_timelapse_4.mp4</property>
  <property name="aspect_ratio">1</property>
  <property name="meta.media.nb_streams">1</property>
  <property name="meta.media.0.stream.type">video</property>
  <property name="meta.media.0.stream.frame_rate">15</property>
  <property name="meta.media.0.stream.sample_aspect_ratio">0</property>
  <property name="meta.media.0.codec.width">250</property>
  <property name="meta.media.0.codec.height">250</property>
  <property name="meta.media.0.codec.rotate">0</property>
  <property name="meta.media.0.codec.frame_rate">15</property>
  <property name="meta.media.0.codec.pix_fmt">yuv420p</property>
  <property name="meta.media.0.codec.sample_aspect_ratio">1</property>
  <property name="meta.media.0.codec.colorspace">601</property>
  <property name="meta.media.0.codec.name">mpeg4</property>
  <property name="meta.media.0.codec.long_name">MPEG-4 part 2</property>
  <property name="meta.media.0.codec.bit_rate">258339</property>
  <property name="meta.attr.0.stream.handler_name.markup">VideoHandler</property>
  <property name="meta.attr.major_brand.markup">isom</property>
  <property name="meta.attr.minor_version.markup">512</property>
  <property name="meta.attr.compatible_brands.markup">isomiso2mp41</property>
  <property name="meta.attr.encoder.markup">Lavf58.61.100</property>
  <property name="seekable">1</property>
  <property name="meta.media.sample_aspect_num">1</property>
  <property name="meta.media.sample_aspect_den">1</property>
  <property name="audio_index">-1</property>
  <property name="video_index">0</property>
  <property name="mute_on_pause">1</property>
  <property name="warp_speed">1.37931</property>
  <property name="warp_resource">content/animated_paintings/fall_sparkles_timelapse_4.mp4</property>
  <property name="mlt_service">timewarp</property>
  <property name="set.test_audio">1</property>
  <property name="set.test_image">0</property>
  <property name="kdenlive:id">125</property>
  <property name="warp_pitch">0</property>
  <property name="meta.media.frame_rate_num">15</property>
  <property name="meta.media.frame_rate_den">1</property>
  <property name="meta.media.colorspace">601</property>
  <property name="meta.media.color_trc">2</property>
  <property name="meta.media.width">250</property>
  <property name="meta.media.height">250</property>
  <property name="meta.media.color_range">mpeg</property>
  <property name="meta.media.top_field_first">0</property>
  <property name="meta.media.progressive">1</property>
 </producer>
 <producer id="producer154" in="00:00:00.000" out="00:00:39.733">
  <property name="length">1193</property>
  <property name="eof">pause</property>
  <property name="resource">content/consingan_paintings/rowboats_1.mp4</property>
  <property name="audio_index">-1</property>
  <property name="video_index">0</property>
  <property name="mute_on_pause">0</property>
  <property name="mlt_service">avformat-novalidate</property>
  <property name="seekable">1</property>
  <property name="aspect_ratio">1</property>
  <property name="kdenlive:clipname">rowboats_1.mp4</property>
  <property name="kdenlive:folderid">31</property>
  <property name="kdenlive:id">48</property>
  <property name="kdenlive:file_size">10930039</property>
  <property name="global_feed">1</property>
  <property name="kdenlive:file_hash">0e6295d7066a422ddf35d168e7de0153</property>
  <property name="xml">was here</property>
  <property name="meta.media.nb_streams">1</property>
  <property name="meta.media.0.stream.type">video</property>
  <property name="meta.media.0.stream.frame_rate">30</property>
  <property name="meta.media.0.stream.sample_aspect_ratio">0</property>
  <property name="meta.media.0.codec.width">912</property>
  <property name="meta.media.0.codec.height">720</property>
  <property name="meta.media.0.codec.rotate">0</property>
  <property name="meta.media.0.codec.frame_rate">30</property>
  <property name="meta.media.0.codec.pix_fmt">yuv420p</property>
  <property name="meta.media.0.codec.sample_aspect_ratio">0</property>
  <property name="meta.media.0.codec.colorspace">601</property>
  <property name="meta.media.0.codec.name">h264</property>
  <property name="meta.media.0.codec.long_name">H.264 / AVC / MPEG-4 AVC / MPEG-4 part 10</property>
  <property name="meta.media.0.codec.bit_rate">2195757</property>
  <property name="meta.attr.0.stream.handler_name.markup">VideoHandler</property>
  <property name="meta.attr.major_brand.markup">isom</property>
  <property name="meta.attr.minor_version.markup">512</property>
  <property name="meta.attr.compatible_brands.markup">isomiso2avc1mp41</property>
  <property name="meta.attr.encoder.markup">Lavf58.29.100</property>
  <property name="meta.media.sample_aspect_num">1</property>
  <property name="meta.media.sample_aspect_den">1</property>
  <property name="meta.media.frame_rate_num">30</property>
  <property name="meta.media.frame_rate_den">1</property>
  <property name="meta.media.colorspace">601</property>
  <property name="meta.media.color_trc">2</property>
  <property name="meta.media.width">912</property>
  <property name="meta.media.height">720</property>
  <property name="meta.media.color_range">mpeg</property>
  <property name="meta.media.top_field_first">0</property>
  <property name="meta.media.progressive">1</property>
  <property name="set.test_audio">1</property>
  <property name="set.test_image">0</property>
 </producer>
 <playlist id="playlist10">
  <blank length="00:00:46.433"/>
  <entry producer="producer143" in="00:00:41.533" out="00:00:57.033">
   <property name="kdenlive:id">72</property>
   <property name="kdenlive:activeeffect">0</property>
   <filter id="filter456">
    <property name="rotate_center">1</property>
    <property name="mlt_service">qtblend</property>
    <property name="kdenlive_id">qtblend</property>
    <property name="rect">00:00:41.533=-688 0 1920 1080 1.000000;00:00:53.467=-688 0 1920 1080 1.000000;00:00:55.667=-688 0 1920 1080 0.700000</property>
    <property name="rotation">00:00:41.533=0;00:00:53.467=0;00:00:55.667=0</property>
    <property name="compositing">0</property>
    <property name="distort">0</property>
    <property name="kdenlive:collapsed">0</property>
   </filter>
   <filter id="filter457">
    <property name="version">0.1</property>
    <property name="mlt_service">frei0r.mask0mate</property>
    <property name="kdenlive_id">frei0r.mask0mate</property>
    <property name="Left">00:00:41.533=0;00:00:50.433=0;00:00:50.467=0;00:00:53.233=0;00:00:53.433=0;00:00:56.200=0</property>
    <property name="Right">00:00:41.533=0.583;00:00:50.433=0.782;00:00:50.467=0.782;00:00:53.233=0.827;00:00:53.433=0.83;00:00:56.200=0.306</property>
    <property name="Top">00:00:41.533=0;00:00:50.433=0;00:00:50.467=0;00:00:53.233=0;00:00:53.433=0;00:00:56.200=0</property>
    <property name="Bottom">00:00:41.533=0;00:00:50.433=0;00:00:50.467=0;00:00:53.233=0;00:00:53.433=0;00:00:56.200=0</property>
    <property name="Invert">1</property>
    <property name="Blur">00:00:41.533=0.192;00:00:50.433=0.037;00:00:50.467=0;00:00:53.233=0;00:00:53.433=0;00:00:56.200=0.15</property>
    <property name="kdenlive:collapsed">0</property>
   </filter>
   <filter id="filter138">
    <property name="mode">alpha</property>
    <property name="alpha_operation">sub</property>
    <property name="invert">1</property>
    <property name="feather">20</property>
    <property name="feather_passes">1</property>
    <property name="mlt_service">rotoscoping</property>
    <property name="kdenlive_id">rotoscoping</property>
    <property name="spline">{
    "1246": [
        [
            [
                0.3335429769392034,
                1.1671641791044776
            ],
            [
                0.4392033542976939,
                1.1567164179104477
            ],
            [
                0.4471698113207547,
                1.0738805970149254
            ]
        ],
        [
            [
                0.47106918238993706,
                0.8253731343283581
            ],
            [
                0.47903563941299787,
                0.7425373134328358
            ],
            [
                0.4769392033542977,
                0.6761194029850747
            ]
        ],
        [
            [
                0.47064989517819705,
                0.47686567164179106
            ],
            [
                0.46855345911949686,
                0.4104477611940298
            ],
            [
                0.45849056603773586,
                0.367910447761194
            ]
        ],
        [
            [
                0.42830188679245285,
                0.24029850746268655
            ],
            [
                0.41823899371069184,
                0.19776119402985076
            ],
            [
                0.4077568134171908,
                0.14776119402985075
            ]
        ],
        [
            [
                0.3763102725366876,
                -0.002238805970149254
            ],
            [
                0.3658280922431866,
                -0.05223880597014925
            ],
            [
                0.3419287211740042,
                -0.049253731343283584
            ]
        ],
        [
            [
                0.27023060796645704,
                -0.04029850746268657
            ],
            [
                0.24633123689727462,
                -0.03731343283582089
            ],
            [
                0.2333333333333333,
                -0.002238805970149254
            ]
        ],
        [
            [
                0.19433962264150942,
                0.10298507462686567
            ],
            [
                0.1813417190775681,
                0.13805970149253732
            ],
            [
                0.180083857442348,
                0.1664179104477612
            ]
        ],
        [
            [
                0.1763102725366876,
                0.25149253731343285
            ],
            [
                0.1750524109014675,
                0.27985074626865675
            ],
            [
                0.11970649895178197,
                0.291044776119403
            ]
        ],
        [
            [
                -0.04633123689727463,
                0.3246268656716418
            ],
            [
                -0.10167714884696016,
                0.3358208955223881
            ],
            [
                -0.09916142557651991,
                0.5104477611940299
            ]
        ],
        [
            [
                -0.09161425576519916,
                1.0343283582089553
            ],
            [
                -0.08909853249475891,
                1.208955223880597
            ],
            [
                0.016561844863731644,
                1.198507462686567
            ]
        ]
    ],
    "1382": [
        [
            [
                0.3335429769392034,
                1.1671641791044776
            ],
            [
                0.4392033542976939,
                1.1567164179104477
            ],
            [
                0.4471698113207547,
                1.0738805970149254
            ]
        ],
        [
            [
                0.47106918238993706,
                0.8253731343283581
            ],
            [
                0.47903563941299787,
                0.7425373134328358
            ],
            [
                0.4769392033542977,
                0.6761194029850747
            ]
        ],
        [
            [
                0.47064989517819705,
                0.47686567164179106
            ],
            [
                0.46855345911949686,
                0.4104477611940298
            ],
            [
                0.45849056603773586,
                0.367910447761194
            ]
        ],
        [
            [
                0.42830188679245285,
                0.24029850746268655
            ],
            [
                0.41823899371069184,
                0.19776119402985076
            ],
            [
                0.4077568134171908,
                0.14776119402985075
            ]
        ],
        [
            [
                0.3763102725366876,
                -0.002238805970149254
            ],
            [
                0.3658280922431866,
                -0.05223880597014925
            ],
            [
                0.3419287211740042,
                -0.049253731343283584
            ]
        ],
        [
            [
                0.27023060796645704,
                -0.04029850746268657
            ],
            [
                0.24633123689727462,
                -0.03731343283582089
            ],
            [
                0.2333333333333333,
                -0.002238805970149254
            ]
        ],
        [
            [
                0.15241090146750524,
                0.12164179104477613
            ],
            [
                0.13941299790356393,
                0.15671641791044777
            ],
            [
                0.13815513626834383,
                0.1850746268656717
            ]
        ],
        [
            [
                0.14591194968553456,
                0.25522388059701473
            ],
            [
                0.14465408805031446,
                0.2835820895522388
            ],
            [
                0.08930817610062891,
                0.2947761194029849
            ]
        ],
        [
            [
                -0.04633123689727463,
                0.3246268656716418
            ],
            [
                -0.10167714884696016,
                0.3358208955223881
            ],
            [
                -0.09916142557651991,
                0.5104477611940299
            ]
        ],
        [
            [
                -0.09161425576519916,
                1.0343283582089553
            ],
            [
                -0.08909853249475891,
                1.208955223880597
            ],
            [
                0.016561844863731644,
                1.198507462686567
            ]
        ]
    ],
    "1492": [
        [
            [
                0.3335429769392034,
                1.1671641791044776
            ],
            [
                0.4392033542976939,
                1.1567164179104477
            ],
            [
                0.4471698113207547,
                1.0738805970149254
            ]
        ],
        [
            [
                0.47106918238993706,
                0.8253731343283581
            ],
            [
                0.47903563941299787,
                0.7425373134328358
            ],
            [
                0.4769392033542977,
                0.6761194029850747
            ]
        ],
        [
            [
                0.47064989517819705,
                0.47686567164179106
            ],
            [
                0.46855345911949686,
                0.4104477611940298
            ],
            [
                0.45849056603773586,
                0.367910447761194
            ]
        ],
        [
            [
                0.42830188679245285,
                0.24029850746268655
            ],
            [
                0.41823899371069184,
                0.19776119402985076
            ],
            [
                0.4077568134171908,
                0.14776119402985075
            ]
        ],
        [
            [
                0.3763102725366876,
                -0.002238805970149254
            ],
            [
                0.3658280922431866,
                -0.05223880597014925
            ],
            [
                0.3419287211740042,
                -0.049253731343283584
            ]
        ],
        [
            [
                0.27023060796645704,
                -0.04029850746268657
            ],
            [
                0.24633123689727462,
                -0.03731343283582089
            ],
            [
                0.2333333333333333,
                -0.002238805970149254
            ]
        ],
        [
            [
                0.19433962264150942,
                0.10298507462686567
            ],
            [
                0.1813417190775681,
                0.13805970149253732
            ],
            [
                0.180083857442348,
                0.1664179104477612
            ]
        ],
        [
            [
                0.1763102725366876,
                0.25149253731343285
            ],
            [
                0.1750524109014675,
                0.27985074626865675
            ],
            [
                0.11970649895178197,
                0.291044776119403
            ]
        ],
        [
            [
                -0.04633123689727463,
                0.3246268656716418
            ],
            [
                -0.10167714884696016,
                0.3358208955223881
            ],
            [
                -0.09916142557651991,
                0.5104477611940299
            ]
        ],
        [
            [
                -0.09161425576519916,
                1.0343283582089553
            ],
            [
                -0.08909853249475891,
                1.208955223880597
            ],
            [
                0.016561844863731644,
                1.198507462686567
            ]
        ]
    ]
}
</property>
    <property name="kdenlive:collapsed">0</property>
   </filter>
   <filter id="filter101">
    <property name="mlt_service">avfilter.gblur</property>
    <property name="kdenlive_id">avfilter.gblur</property>
    <property name="av.sigma">2</property>
    <property name="av.steps">1</property>
    <property name="av.planes">7</property>
    <property name="av.sigmaV">-1</property>
    <property name="kdenlive:collapsed">0</property>
   </filter>
   <filter id="filter126">
    <property name="version">0.1</property>
    <property name="mlt_service">frei0r.posterize</property>
    <property name="kdenlive_id">frei0r.posterize</property>
    <property name="0">0.05</property>
    <property name="kdenlive:collapsed">0</property>
   </filter>
   <filter id="filter459">
    <property name="version">0.1</property>
    <property name="mlt_service">frei0r.colorize</property>
    <property name="kdenlive_id">frei0r.colorize</property>
    <property name="hue">00:00:41.533=0.602778;00:00:48.400=0.602778</property>
    <property name="saturation">00:00:41.533=0;00:00:48.400=0.344444</property>
    <property name="lightness">00:00:41.533=0.341667;00:00:48.400=0.341667</property>
    <property name="kdenlive:collapsed">0</property>
   </filter>
  </entry>
  <blank length="00:00:00.767"/>
  <entry producer="producer124" in="00:00:00.000" out="00:00:03.200">
   <property name="kdenlive:id">35</property>
   <filter id="filter141">
    <property name="mlt_service">avfilter.unsharp</property>
    <property name="kdenlive_id">avfilter.unsharp</property>
    <property name="av.lx">5</property>
    <property name="av.ly">5</property>
    <property name="av.la">1.5</property>
    <property name="av.cx">5</property>
    <property name="av.cy">5</property>
    <property name="av.ca">1.5</property>
    <property name="kdenlive:collapsed">0</property>
   </filter>
   <filter id="filter142">
    <property name="rotate_center">1</property>
    <property name="mlt_service">qtblend</property>
    <property name="kdenlive_id">qtblend</property>
    <property name="rect">00:00:00.000=1163 0 1920 1080 1.000000</property>
    <property name="rotation">00:00:00.000=0</property>
    <property name="compositing">0</property>
    <property name="distort">0</property>
    <property name="kdenlive:collapsed">0</property>
   </filter>
   <filter id="filter143">
    <property name="mlt_service">avfilter.hflip</property>
    <property name="kdenlive_id">avfilter.hflip</property>
    <property name="kdenlive:collapsed">0</property>
   </filter>
   <filter id="filter144">
    <property name="mlt_service">crop</property>
    <property name="kdenlive_id">crop</property>
    <property name="top">0</property>
    <property name="left">0</property>
    <property name="bottom">0</property>
    <property name="right">5</property>
    <property name="center">0</property>
    <property name="center_bias">0</property>
    <property name="use_profile">0</property>
    <property name="kdenlive:collapsed">0</property>
   </filter>
  </entry>
  <blank length="00:00:00.233"/>
  <entry producer="producer125" in="00:00:00.000" out="00:00:03.233">
   <property name="kdenlive:id">46</property>
   <filter id="filter145">
    <property name="mlt_service">avfilter.unsharp</property>
    <property name="kdenlive_id">avfilter.unsharp</property>
    <property name="av.lx">5</property>
    <property name="av.ly">5</property>
    <property name="av.la">2</property>
    <property name="av.cx">5</property>
    <property name="av.cy">5</property>
    <property name="av.ca">2</property>
    <property name="kdenlive:collapsed">0</property>
   </filter>
   <filter id="filter189">
    <property name="rotate_center">1</property>
    <property name="mlt_service">qtblend</property>
    <property name="kdenlive_id">qtblend</property>
    <property name="rect">00:00:00.000=1090 0 1920 1080 1.000000</property>
    <property name="rotation">00:00:00.000=0</property>
    <property name="compositing">0</property>
    <property name="distort">0</property>
    <property name="kdenlive:collapsed">0</property>
   </filter>
   <filter id="filter190">
    <property name="mlt_service">avfilter.hflip</property>
    <property name="kdenlive_id">avfilter.hflip</property>
    <property name="kdenlive:collapsed">0</property>
   </filter>
   <filter id="filter146">
    <property name="mlt_service">crop</property>
    <property name="kdenlive_id">crop</property>
    <property name="top">0</property>
    <property name="left">0</property>
    <property name="bottom">0</property>
    <property name="right">5</property>
    <property name="center">0</property>
    <property name="center_bias">0</property>
    <property name="use_profile">0</property>
    <property name="kdenlive:collapsed">0</property>
   </filter>
  </entry>
  <blank length="00:00:00.133"/>
  <entry producer="producer152" in="00:00:00.000" out="00:00:06.300">
   <property name="kdenlive:id">60</property>
   <filter id="filter193">
    <property name="rotate_center">1</property>
    <property name="mlt_service">qtblend</property>
    <property name="kdenlive_id">qtblend</property>
    <property name="rect">00:00:00.000=272 0 1920 1080 1.000000</property>
    <property name="rotation">00:00:00.000=0</property>
    <property name="compositing">0</property>
    <property name="distort">0</property>
    <property name="kdenlive:collapsed">0</property>
   </filter>
  </entry>
  <blank length="00:00:00.167"/>
  <entry producer="producer134" in="00:00:00.000" out="00:00:06.500">
   <property name="kdenlive:id">33</property>
   <filter id="filter127">
    <property name="mlt_service">avfilter.unsharp</property>
    <property name="kdenlive_id">avfilter.unsharp</property>
    <property name="av.lx">5</property>
    <property name="av.ly">5</property>
    <property name="av.la">1.5</property>
    <property name="av.cx">5</property>
    <property name="av.cy">5</property>
    <property name="av.ca">1.5</property>
    <property name="kdenlive:collapsed">0</property>
   </filter>
   <filter id="filter128">
    <property name="rotate_center">1</property>
    <property name="mlt_service">qtblend</property>
    <property name="kdenlive_id">qtblend</property>
    <property name="rect">00:00:00.000=1090 0 1920 1080 1.000000;00:00:06.500=1310 -72 2304 1297 1.000000</property>
    <property name="rotation">00:00:00.000=0;00:00:06.500=0</property>
    <property name="compositing">0</property>
    <property name="distort">0</property>
    <property name="kdenlive:collapsed">0</property>
   </filter>
   <filter id="filter129">
    <property name="mlt_service">avfilter.hflip</property>
    <property name="kdenlive_id">avfilter.hflip</property>
    <property name="kdenlive:collapsed">0</property>
   </filter>
  </entry>
  <blank length="00:00:00.100"/>
  <entry producer="producer135" in="00:00:00.000" out="00:00:06.733">
   <property name="kdenlive:id">43</property>
   <filter id="filter130">
    <property name="mlt_service">avfilter.unsharp</property>
    <property name="kdenlive_id">avfilter.unsharp</property>
    <property name="av.lx">5</property>
    <property name="av.ly"/>
    <property name="av.la">1.395</property>
    <property name="av.cx">5</property>
    <property name="av.cy">5</property>
    <property name="av.ca">2.431</property>
    <property name="kdenlive:collapsed">0</property>
   </filter>
   <filter id="filter131">
    <property name="rotate_center">1</property>
    <property name="mlt_service">qtblend</property>
    <property name="kdenlive_id">qtblend</property>
    <property name="rect">00:00:00.000=1278 -213 2304 1296 1.000000;00:00:06.733=1090 0 1920 1080 1.000000</property>
    <property name="rotation">00:00:00.000=0;00:00:06.733=0</property>
    <property name="compositing">0</property>
    <property name="distort">0</property>
    <property name="kdenlive:collapsed">0</property>
   </filter>
   <filter id="filter132">
    <property name="mlt_service">avfilter.hflip</property>
    <property name="kdenlive_id">avfilter.hflip</property>
    <property name="kdenlive:collapsed">0</property>
   </filter>
   <filter id="filter133">
    <property name="mlt_service">crop</property>
    <property name="kdenlive_id">crop</property>
    <property name="top">0</property>
    <property name="left">3</property>
    <property name="bottom">0</property>
    <property name="right">0</property>
    <property name="center">0</property>
    <property name="center_bias">0</property>
    <property name="use_profile">0</property>
    <property name="kdenlive:collapsed">0</property>
   </filter>
  </entry>
  <blank length="00:00:11.400"/>
  <entry producer="producer153" in="00:00:00.000" out="00:00:05.533">
   <property name="kdenlive:id">62</property>
   <property name="kdenlive:activeeffect">0</property>
   <filter id="filter194">
    <property name="mode">alpha</property>
    <property name="alpha_operation">clear</property>
    <property name="invert">0</property>
    <property name="feather">2</property>
    <property name="feather_passes">1</property>
    <property name="mlt_service">rotoscoping</property>
    <property name="kdenlive_id">rotoscoping</property>
    <property name="spline">{
    "00": [
        [
            [
                0.11689128481581311,
                0.7319488817891374
            ],
            [
                0.11994609164420485,
                0.7188498402555911
            ],
            [
                0.13108715184186884,
                0.7124600638977636
            ]
        ],
        [
            [
                0.16451033243486074,
                0.693290734824281
            ],
            [
                0.1756513926325247,
                0.6869009584664536
            ],
            [
                0.19182389937106917,
                0.6910543130990415
            ]
        ],
        [
            [
                0.2403414195867026,
                0.7035143769968052
            ],
            [
                0.25651392632524705,
                0.707667731629393
            ],
            [
                0.269811320754717,
                0.7028753993610225
            ]
        ],
        [
            [
                0.3097035040431267,
                0.6884984025559105
            ],
            [
                0.32300089847259655,
                0.6837060702875399
            ],
            [
                0.32803234501347706,
                0.6859424920127796
            ]
        ],
        [
            [
                0.34312668463611856,
                0.6926517571884985
            ],
            [
                0.34815813117699906,
                0.694888178913738
            ],
            [
                0.35193171608265944,
                0.6916932907348243
            ]
        ],
        [
            [
                0.36325247079964057,
                0.6821086261980831
            ],
            [
                0.36702605570530095,
                0.6789137380191693
            ],
            [
                0.37115902964959563,
                0.6792332268370608
            ]
        ],
        [
            [
                0.3835579514824798,
                0.6801916932907348
            ],
            [
                0.38769092542677447,
                0.6805111821086263
            ],
            [
                0.3966756513926325,
                0.6667731629392971
            ]
        ],
        [
            [
                0.4236298292902066,
                0.62555910543131
            ],
            [
                0.4326145552560646,
                0.6118210862619808
            ],
            [
                0.43099730458221025,
                0.5990415335463258
            ]
        ],
        [
            [
                0.42614555256064685,
                0.560702875399361
            ],
            [
                0.4245283018867924,
                0.5479233226837061
            ],
            [
                0.42470799640610957,
                0.5274760383386582
            ]
        ],
        [
            [
                0.4252470799640611,
                0.46613418530351436
            ],
            [
                0.4254267744833783,
                0.44568690095846647
            ],
            [
                0.43638814016172506,
                0.44376996805111824
            ]
        ],
        [
            [
                0.4692722371967655,
                0.43801916932907353
            ],
            [
                0.4802336028751123,
                0.4361022364217253
            ],
            [
                0.5080862533692723,
                0.4370607028753994
            ]
        ],
        [
            [
                0.5916442048517521,
                0.4399361022364217
            ],
            [
                0.6194968553459119,
                0.44089456869009586
            ],
            [
                0.6703504043126685,
                0.43929712460063897
            ]
        ],
        [
            [
                0.822911051212938,
                0.43450479233226835
            ],
            [
                0.8737646001796945,
                0.4329073482428115
            ],
            [
                0.8778975741239893,
                0.5456869009584665
            ]
        ],
        [
            [
                0.8902964959568732,
                0.8840255591054313
            ],
            [
                0.8944294699011679,
                0.9968051118210863
            ],
            [
                0.7382749326145552,
                0.9968051118210863
            ]
        ],
        [
            [
                0.269811320754717,
                0.9968051118210863
            ],
            [
                0.11365678346810422,
                0.9968051118210863
            ],
            [
                0.11185983827493261,
                0.9543130990415336
            ]
        ],
        [
            [
                0.10646900269541779,
                0.8268370607028754
            ],
            [
                0.10467205750224617,
                0.7843450479233227
            ],
            [
                0.10772686433063791,
                0.7712460063897764
            ]
        ]
    ]
}
</property>
    <property name="kdenlive:collapsed">0</property>
   </filter>
   <filter id="filter197">
    <property name="rotate_center">1</property>
    <property name="mlt_service">qtblend</property>
    <property name="kdenlive_id">qtblend</property>
    <property name="rect">00:00:00.000=-192 -108 2304 1296 1.000000;00:00:05.533=-96 -54 2112 1188 1.000000</property>
    <property name="rotation">00:00:00.000=0;00:00:05.533=0</property>
    <property name="compositing">0</property>
    <property name="distort">0</property>
    <property name="kdenlive:collapsed">0</property>
   </filter>
  </entry>
  <blank length="00:00:10.400"/>
  <entry producer="17" in="00:00:00.000" out="00:00:04.200">
   <property name="kdenlive:id">17</property>
   <property name="kdenlive:activeeffect">0</property>
   <filter id="filter134">
    <property name="mlt_service">avfilter.unsharp</property>
    <property name="kdenlive_id">avfilter.unsharp</property>
    <property name="av.lx">5</property>
    <property name="av.ly">5</property>
    <property name="av.la">2.49</property>
    <property name="av.cx">5</property>
    <property name="av.cy">5</property>
    <property name="av.ca">2.1</property>
    <property name="kdenlive:collapsed">0</property>
   </filter>
   <filter id="filter135">
    <property name="rotate_center">1</property>
    <property name="mlt_service">qtblend</property>
    <property name="kdenlive_id">qtblend</property>
    <property name="rect">00:00:00.000=-384 -216 2688 1512 1.000000;00:00:04.200=-192 -108 2304 1296 1.000000</property>
    <property name="rotation">00:00:00.000=0;00:00:04.200=0</property>
    <property name="compositing">0</property>
    <property name="distort">0</property>
    <property name="kdenlive:collapsed">0</property>
   </filter>
  </entry>
  <blank length="00:00:12.933"/>
  <entry producer="producer42" in="00:00:00.000" out="00:00:12.800">
   <property name="kdenlive:id">61</property>
   <filter id="filter198">
    <property name="rotate_center">1</property>
    <property name="mlt_service">qtblend</property>
    <property name="kdenlive_id">qtblend</property>
    <property name="rect">00:00:00.000=-301 0 1920 1080 1.000000;00:00:12.800=-403 -371 2592 1458 1.000000</property>
    <property name="rotation">00:00:00.000=0;00:00:12.800=0</property>
    <property name="compositing">0</property>
    <property name="distort">0</property>
    <property name="kdenlive:collapsed">0</property>
   </filter>
  </entry>
  <entry producer="14" in="00:00:00.000" out="00:00:13.133">
   <property name="kdenlive:id">14</property>
   <property name="kdenlive:activeeffect">0</property>
   <filter id="filter199">
    <property name="mode">alpha</property>
    <property name="alpha_operation">clear</property>
    <property name="invert">0</property>
    <property name="feather">2</property>
    <property name="feather_passes">1</property>
    <property name="mlt_service">rotoscoping</property>
    <property name="kdenlive_id">rotoscoping</property>
    <property name="spline">{
    "00": [
        [
            [
                0.863157894736842,
                0.4661469933184855
            ],
            [
                0.8621553884711779,
                0.3997772828507795
            ],
            [
                0.8478696741854637,
                0.39398663697104674
            ]
        ],
        [
            [
                0.8050125313283207,
                0.37661469933184855
            ],
            [
                0.7907268170426065,
                0.3708240534521158
            ],
            [
                0.7889724310776941,
                0.3846325167037862
            ]
        ],
        [
            [
                0.7837092731829574,
                0.4260579064587973
            ],
            [
                0.7819548872180451,
                0.4398663697104677
            ],
            [
                0.7701754385964912,
                0.4376391982182628
            ]
        ],
        [
            [
                0.7348370927318295,
                0.4309576837416481
            ],
            [
                0.7230576441102756,
                0.4287305122494432
            ],
            [
                0.7258145363408521,
                0.4461024498886414
            ]
        ],
        [
            [
                0.7340852130325815,
                0.498218262806236
            ],
            [
                0.7368421052631579,
                0.5155902004454342
            ],
            [
                0.7270676691729323,
                0.5089086859688196
            ]
        ],
        [
            [
                0.6977443609022556,
                0.48886414253897553
            ],
            [
                0.68796992481203,
                0.4821826280623608
            ],
            [
                0.6839598997493733,
                0.4006681514476615
            ]
        ],
        [
            [
                0.6719298245614035,
                0.15612472160356347
            ],
            [
                0.6679197994987469,
                0.07461024498886415
            ],
            [
                0.6679197994987469,
                0.15478841870824053
            ]
        ],
        [
            [
                0.6679197994987469,
                0.3953229398663697
            ],
            [
                0.6679197994987469,
                0.4755011135857461
            ],
            [
                0.6591478696741855,
                0.4679287305122494
            ]
        ],
        [
            [
                0.6328320802005012,
                0.4452115812917595
            ],
            [
                0.6240601503759398,
                0.4376391982182628
            ],
            [
                0.619047619047619,
                0.43897550111358574
            ]
        ],
        [
            [
                0.6040100250626567,
                0.44298440979955456
            ],
            [
                0.5989974937343359,
                0.4443207126948775
            ],
            [
                0.5907268170426065,
                0.44209354120267264
            ]
        ],
        [
            [
                0.5659147869674185,
                0.4354120267260579
            ],
            [
                0.5576441102756892,
                0.433184855233853
            ],
            [
                0.49473684210526314,
                0.40334075723830737
            ]
        ],
        [
            [
                0.30601503759398496,
                0.3138084632516704
            ],
            [
                0.24310776942355888,
                0.28396436525612473
            ],
            [
                0.24260651629072683,
                0.25233853006681517
            ]
        ],
        [
            [
                0.24110275689223054,
                0.1574610244988864
            ],
            [
                0.24060150375939848,
                0.12583518930957682
            ],
            [
                0.237593984962406,
                0.10222717149220488
            ]
        ],
        [
            [
                0.22857142857142856,
                0.03140311804008908
            ],
            [
                0.22556390977443608,
                0.007795100222717149
            ],
            [
                0.20726817042606516,
                0.007349665924276169
            ]
        ],
        [
            [
                0.15238095238095237,
                0.0060133630289532294
            ],
            [
                0.13408521303258145,
                0.005567928730512249
            ],
            [
                0.13182957393483707,
                0.2037861915367483
            ]
        ],
        [
            [
                0.12506265664160401,
                0.7984409799554566
            ],
            [
                0.12280701754385964,
                0.9966592427616926
            ],
            [
                0.1716791979949875,
                0.9962138084632517
            ]
        ],
        [
            [
                0.3182957393483709,
                0.9948775055679286
            ],
            [
                0.36716791979949875,
                0.9944320712694876
            ],
            [
                0.3511278195488722,
                0.920044543429844
            ]
        ],
        [
            [
                0.30300751879699245,
                0.6968819599109131
            ],
            [
                0.2869674185463659,
                0.6224944320712694
            ],
            [
                0.29649122807017547,
                0.6220489977728285
            ]
        ],
        [
            [
                0.325062656641604,
                0.6207126948775056
            ],
            [
                0.33458646616541354,
                0.6202672605790646
            ],
            [
                0.3368421052631579,
                0.6456570155902004
            ]
        ],
        [
            [
                0.343609022556391,
                0.721826280623608
            ],
            [
                0.3458646616541353,
                0.7472160356347438
            ],
            [
                0.34812030075187966,
                0.7463251670378618
            ]
        ],
        [
            [
                0.35488721804511275,
                0.743652561247216
            ],
            [
                0.3571428571428571,
                0.7427616926503341
            ],
            [
                0.3596491228070175,
                0.7601336302895323
            ]
        ],
        [
            [
                0.36716791979949875,
                0.812249443207127
            ],
            [
                0.36967418546365916,
                0.8296213808463252
            ],
            [
                0.4025062656641604,
                0.831403118040089
            ]
        ],
        [
            [
                0.5010025062656641,
                0.8367483296213809
            ],
            [
                0.5338345864661653,
                0.8385300668151447
            ],
            [
                0.5656641604010024,
                0.8318485523385301
            ]
        ],
        [
            [
                0.6611528822055137,
                0.811804008908686
            ],
            [
                0.6929824561403508,
                0.8051224944320713
            ],
            [
                0.7278195488721804,
                0.790423162583519
            ]
        ],
        [
            [
                0.832330827067669,
                0.7463251670378619
            ],
            [
                0.8671679197994987,
                0.7316258351893096
            ],
            [
                0.8661654135338346,
                0.6652561247216036
            ]
        ]
    ]
}
</property>
    <property name="kdenlive:collapsed">0</property>
   </filter>
   <filter id="filter201">
    <property name="rotate_center">1</property>
    <property name="mlt_service">qtblend</property>
    <property name="kdenlive_id">qtblend</property>
    <property name="rect">00:00:00.000=-385 -241 2688 1512 1.000000;00:00:13.133=0 0 1920 1080 1.000000</property>
    <property name="rotation">00:00:00.000=0;00:00:13.133=0</property>
    <property name="compositing">0</property>
    <property name="distort">0</property>
    <property name="kdenlive:collapsed">0</property>
   </filter>
  </entry>
  <blank length="00:01:37.833"/>
  <entry producer="producer157" in="00:00:00.000" out="00:00:07.900">
   <property name="kdenlive:id">112</property>
   <filter id="filter260">
    <property name="rotate_center">1</property>
    <property name="mlt_service">qtblend</property>
    <property name="kdenlive_id">qtblend</property>
    <property name="rect">00:00:00.000=-366 0 1920 1080 1.000000</property>
    <property name="rotation">00:00:00.000=0</property>
    <property name="compositing">0</property>
    <property name="distort">0</property>
    <property name="kdenlive:collapsed">0</property>
   </filter>
   <filter id="filter261">
    <property name="mirror">horizontal</property>
    <property name="mlt_service">mirror</property>
    <property name="kdenlive_id">mirror</property>
    <property name="reverse">1</property>
    <property name="kdenlive:collapsed">0</property>
   </filter>
   <filter id="filter262">
    <property name="mlt_service">avfilter.unsharp</property>
    <property name="kdenlive_id">avfilter.unsharp</property>
    <property name="av.lx">5</property>
    <property name="av.ly">5</property>
    <property name="av.la">1.794</property>
    <property name="av.cx">5</property>
    <property name="av.cy">5</property>
    <property name="av.ca">1.675</property>
    <property name="kdenlive:collapsed">0</property>
   </filter>
  </entry>
  <blank length="00:00:06.400"/>
  <entry producer="producer158" in="00:00:00.000" out="00:00:06.467">
   <property name="kdenlive:id">117</property>
   <property name="kdenlive:activeeffect">2</property>
   <filter id="filter263">
    <property name="mlt_service">avfilter.unsharp</property>
    <property name="kdenlive_id">avfilter.unsharp</property>
    <property name="av.lx">5</property>
    <property name="av.ly">5</property>
    <property name="av.la">2.879</property>
    <property name="av.cx">5</property>
    <property name="av.cy">5</property>
    <property name="av.ca">2.732</property>
    <property name="kdenlive:collapsed">0</property>
   </filter>
   <filter id="filter264">
    <property name="version">0.3</property>
    <property name="mlt_service">frei0r.saturat0r</property>
    <property name="kdenlive_id">frei0r.saturat0r</property>
    <property name="Saturation">00:00:00.000=0.161</property>
    <property name="kdenlive:collapsed">0</property>
   </filter>
   <filter id="filter265">
    <property name="rotate_center">1</property>
    <property name="mlt_service">qtblend</property>
    <property name="kdenlive_id">qtblend</property>
    <property name="rect">00:00:00.000=0 0 1920 1080 1</property>
    <property name="rotation">00:00:00.000=0</property>
    <property name="compositing">0</property>
    <property name="distort">1</property>
    <property name="kdenlive:collapsed">0</property>
   </filter>
  </entry>
  <entry producer="producer159" in="00:00:04.333" out="00:00:07.800">
   <property name="kdenlive:id">117</property>
   <property name="kdenlive:activeeffect">2</property>
   <filter id="filter266">
    <property name="mlt_service">avfilter.unsharp</property>
    <property name="kdenlive_id">avfilter.unsharp</property>
    <property name="av.lx">5</property>
    <property name="av.ly">5</property>
    <property name="av.la">2.879</property>
    <property name="av.cx">5</property>
    <property name="av.cy">5</property>
    <property name="av.ca">2.732</property>
    <property name="kdenlive:collapsed">0</property>
   </filter>
   <filter id="filter267">
    <property name="version">0.3</property>
    <property name="mlt_service">frei0r.saturat0r</property>
    <property name="kdenlive_id">frei0r.saturat0r</property>
    <property name="Saturation">00:00:04.333=0.161</property>
    <property name="kdenlive:collapsed">0</property>
   </filter>
   <filter id="filter268">
    <property name="rotate_center">1</property>
    <property name="mlt_service">qtblend</property>
    <property name="kdenlive_id">qtblend</property>
    <property name="rect">00:00:04.333=0 0 1920 1080 1</property>
    <property name="rotation">00:00:04.333=0</property>
    <property name="compositing">0</property>
    <property name="distort">1</property>
    <property name="kdenlive:collapsed">0</property>
   </filter>
  </entry>
  <blank length="00:00:11.500"/>
  <entry producer="producer1" in="00:00:00.000" out="00:00:09.200">
   <property name="kdenlive:id">83</property>
   <filter id="filter221">
    <property name="rotate_center">1</property>
    <property name="mlt_service">qtblend</property>
    <property name="kdenlive_id">qtblend</property>
    <property name="rect">00:00:00.000=580 0 1920 1080 1.000000</property>
    <property name="rotation">00:00:00.000=0</property>
    <property name="compositing">0</property>
    <property name="distort">0</property>
    <property name="kdenlive:collapsed">0</property>
   </filter>
   <filter id="filter222">
    <property name="mirror">horizontal</property>
    <property name="mlt_service">mirror</property>
    <property name="kdenlive_id">mirror</property>
    <property name="reverse">0</property>
    <property name="kdenlive:collapsed">0</property>
   </filter>
   <filter id="filter223">
    <property name="mlt_service">avfilter.unsharp</property>
    <property name="kdenlive_id">avfilter.unsharp</property>
    <property name="av.lx">5</property>
    <property name="av.ly">5</property>
    <property name="av.la">1.794</property>
    <property name="av.cx">5</property>
    <property name="av.cy">5</property>
    <property name="av.ca">1.675</property>
    <property name="kdenlive:collapsed">0</property>
   </filter>
   <filter id="filter147">
    <property name="version">0.1</property>
    <property name="mlt_service">frei0r.distort0r</property>
    <property name="kdenlive_id">frei0r.distort0r</property>
    <property name="Amplitude">00:00:00.000=0;00:00:00.500=-0.04;00:00:00.833=0.05;00:00:01.500=-0.04;00:00:01.833=0.05;00:00:02.433=-0.05;00:00:02.767=0.05;00:00:03.400=-0.04;00:00:03.733=0.05;00:00:04.333=-0.04;00:00:04.667=0.05;00:00:05.233=-0.04;00:00:05.533=0.05;00:00:06.200=-0.04;00:00:06.500=0.05;00:00:07.067=-0.04;00:00:07.367=0.05;00:00:07.967=-0.04;00:00:08.367=0.05</property>
    <property name="Frequency">00:00:00.000=-0.077;00:00:00.500=-0.077;00:00:00.833=-0.077;00:00:01.500=-0.077;00:00:01.833=-0.077;00:00:02.433=-0.077;00:00:02.767=-0.077;00:00:03.400=-0.077;00:00:03.733=-0.077;00:00:04.333=-0.077;00:00:04.667=-0.077;00:00:05.233=-0.077;00:00:05.533=-0.077;00:00:06.200=-0.077;00:00:06.500=-0.077;00:00:07.067=-0.077;00:00:07.367=-0.077;00:00:07.967=-0.077;00:00:08.367=-0.077</property>
    <property name="kdenlive:collapsed">0</property>
    <property name="disable">0</property>
   </filter>
  </entry>
  <blank length="00:00:03.767"/>
  <entry producer="producer160" in="00:00:00.000" out="00:00:03.367">
   <property name="kdenlive:id">109</property>
   <filter id="filter269">
    <property name="rotate_center">1</property>
    <property name="mlt_service">qtblend</property>
    <property name="kdenlive_id">qtblend</property>
    <property name="rect">00:00:00.000=-309 0 1920 1080 0.000000;00:00:00.133=-309 0 1920 1080 0.800000;00:00:00.500=-309 0 1920 1080 0.000000;00:00:00.600=-309 0 1920 1080 0.800000;00:00:00.967=-309 0 1920 1080 0.000000;00:00:01.067=-309 0 1920 1080 0.800000;00:00:01.433=-309 0 1920 1080 0.000000;00:00:01.533=-309 0 1920 1080 0.800000;00:00:01.900=-309 0 1920 1080 0.000000;00:00:02.000=-309 0 1920 1080 0.800000;00:00:02.333=-309 0 1920 1080 0.000000;00:00:02.433=-309 0 1920 1080 0.800000;00:00:02.600=-309 0 1920 1080 1.000000;00:00:02.767=-309 0 1920 1080 0.200000;00:00:03.367=-309 0 1920 1080 1.000000</property>
    <property name="rotation">00:00:00.000=180;00:00:00.133=180;00:00:00.500=180;00:00:00.600=180;00:00:00.967=180;00:00:01.067=180;00:00:01.433=180;00:00:01.533=180;00:00:01.900=180;00:00:02.000=180;00:00:02.333=180;00:00:02.433=180;00:00:02.600=180;00:00:02.767=180;00:00:03.367=180</property>
    <property name="compositing">0</property>
    <property name="distort">0</property>
    <property name="kdenlive:collapsed">0</property>
   </filter>
   <filter id="filter270">
    <property name="mirror">horizontal</property>
    <property name="mlt_service">mirror</property>
    <property name="kdenlive_id">mirror</property>
    <property name="reverse">1</property>
    <property name="kdenlive:collapsed">0</property>
   </filter>
  </entry>
  <blank length="00:00:03.367"/>
  <entry producer="producer12" in="00:00:00.000" out="00:00:07.300">
   <property name="kdenlive:id">94</property>
   <property name="kdenlive:activeeffect">1</property>
   <filter id="filter271">
    <property name="mlt_service">avfilter.unsharp</property>
    <property name="kdenlive_id">avfilter.unsharp</property>
    <property name="av.lx">5</property>
    <property name="av.ly">5</property>
    <property name="av.la">1.815</property>
    <property name="av.cx">5</property>
    <property name="av.cy">5</property>
    <property name="av.ca">2.347</property>
    <property name="kdenlive:collapsed">0</property>
    <property name="disable">0</property>
   </filter>
   <filter id="filter272">
    <property name="rotate_center">1</property>
    <property name="mlt_service">qtblend</property>
    <property name="kdenlive_id">qtblend</property>
    <property name="rect">00:00:00.000=-403 -429 2688 1512 1.000000;00:00:04.467=-403 -429 2688 1512 1.000000;00:00:05.433=-483 -429 2688 1512 1.000000;00:00:07.300=-1014 -429 2688 1512 1.000000</property>
    <property name="rotation">00:00:00.000=0;00:00:04.467=0;00:00:05.433=0;00:00:07.300=0</property>
    <property name="compositing">0</property>
    <property name="distort">0</property>
    <property name="kdenlive:collapsed">0</property>
   </filter>
  </entry>
  <entry producer="producer2" in="00:00:00.000" out="00:00:03.533">
   <property name="kdenlive:id">84</property>
   <property name="kdenlive:activeeffect">1</property>
   <filter id="filter273">
    <property name="mlt_service">avfilter.unsharp</property>
    <property name="kdenlive_id">avfilter.unsharp</property>
    <property name="av.lx">5</property>
    <property name="av.ly">5</property>
    <property name="av.la">2.382</property>
    <property name="av.cx">5</property>
    <property name="av.cy">5</property>
    <property name="av.ca">2.298</property>
    <property name="kdenlive:collapsed">0</property>
    <property name="disable">0</property>
   </filter>
   <filter id="filter274">
    <property name="rotate_center">1</property>
    <property name="mlt_service">qtblend</property>
    <property name="kdenlive_id">qtblend</property>
    <property name="rect">00:00:00.000=-408 0 1920 1080 1.000000;00:00:00.800~=-408 0 1920 1080 1.000000;00:00:01.767~=-546 0 1920 1080 1.000000;00:00:03.533~=-970 0 1920 1080 1.000000</property>
    <property name="rotation">00:00:00.000=0;00:00:00.800~=0;00:00:01.767~=0;00:00:03.533~=0</property>
    <property name="compositing">0</property>
    <property name="distort">0</property>
    <property name="kdenlive:collapsed">0</property>
   </filter>
  </entry>
  <blank length="00:00:05.233"/>
  <entry producer="producer161" in="00:00:00.000" out="00:00:02.633">
   <property name="kdenlive:id">124</property>
   <filter id="filter275">
    <property name="rotate_center">1</property>
    <property name="mlt_service">qtblend</property>
    <property name="kdenlive_id">qtblend</property>
    <property name="rect">00:00:00.000=710 552 500 500 1.000000</property>
    <property name="rotation">00:00:00.000=0</property>
    <property name="compositing">0</property>
    <property name="distort">0</property>
    <property name="kdenlive:collapsed">0</property>
   </filter>
   <filter id="filter276">
    <property name="mlt_service">avfilter.unsharp</property>
    <property name="kdenlive_id">avfilter.unsharp</property>
    <property name="av.lx">5</property>
    <property name="av.ly">5</property>
    <property name="av.la">1</property>
    <property name="av.cx">5</property>
    <property name="av.cy">5</property>
    <property name="av.ca">2</property>
    <property name="kdenlive:collapsed">0</property>
   </filter>
  </entry>
  <entry producer="producer162" in="00:00:00.000" out="00:00:03.400">
   <property name="kdenlive:id">36</property>
   <property name="kdenlive:activeeffect">1</property>
   <filter id="filter277">
    <property name="version">0.1</property>
    <property name="mlt_service">frei0r.scale0tilt</property>
    <property name="kdenlive_id">frei0r.scale0tilt</property>
    <property name="Clip left">00:00:00.000=0.111979</property>
    <property name="Clip right">00:00:00.000=0.119792</property>
    <property name="Clip top">00:00:00.000=0.00925926</property>
    <property name="Clip bottom">00:00:00.000=0</property>
    <property name="Scale X">0.355</property>
    <property name="Scale Y">0.35</property>
    <property name="Tilt X">00:00:00.000=0.5</property>
    <property name="Tilt Y">00:00:00.000=0.5</property>
    <property name="kdenlive:collapsed">0</property>
   </filter>
   <filter id="filter278">
    <property name="rotate_center">1</property>
    <property name="mlt_service">qtblend</property>
    <property name="kdenlive_id">qtblend</property>
    <property name="rect">00:00:00.000=621 548 944 720 1.000000</property>
    <property name="rotation">00:00:00.000=0</property>
    <property name="compositing">0</property>
    <property name="distort">0</property>
    <property name="kdenlive:collapsed">0</property>
   </filter>
   <filter id="filter279">
    <property name="mlt_service">avfilter.unsharp</property>
    <property name="kdenlive_id">avfilter.unsharp</property>
    <property name="av.lx">5</property>
    <property name="av.ly">5</property>
    <property name="av.la">0.74</property>
    <property name="av.cx">5</property>
    <property name="av.cy">5</property>
    <property name="av.ca">1.12</property>
    <property name="kdenlive:collapsed">0</property>
   </filter>
  </entry>
  <entry producer="producer163" in="00:00:00.000" out="00:00:01.233">
   <property name="kdenlive:id">125</property>
   <filter id="filter280">
    <property name="rotate_center">1</property>
    <property name="mlt_service">qtblend</property>
    <property name="kdenlive_id">qtblend</property>
    <property name="rect">00:00:00.000=710 552 500 500 1.000000</property>
    <property name="rotation">00:00:00.000=0</property>
    <property name="compositing">0</property>
    <property name="distort">0</property>
    <property name="kdenlive:collapsed">0</property>
   </filter>
   <filter id="filter281">
    <property name="mlt_service">avfilter.unsharp</property>
    <property name="kdenlive_id">avfilter.unsharp</property>
    <property name="av.lx">5</property>
    <property name="av.ly">5</property>
    <property name="av.la">1</property>
    <property name="av.cx">5</property>
    <property name="av.cy">5</property>
    <property name="av.ca">2</property>
    <property name="kdenlive:collapsed">0</property>
   </filter>
  </entry>
  <blank length="00:00:35.900"/>
  <entry producer="producer5" in="00:00:00.000" out="00:00:23.733">
   <property name="kdenlive:id">87</property>
   <filter id="filter148" in="00:00:03.733" out="00:00:23.733">
    <property name="start">1</property>
    <property name="mlt_service">brightness</property>
    <property name="kdenlive_id">fade_to_black</property>
    <property name="end">0</property>
    <property name="alpha">-1</property>
    <property name="kdenlive:collapsed">0</property>
   </filter>
   <filter id="filter149">
    <property name="rotate_center">1</property>
    <property name="mlt_service">qtblend</property>
    <property name="kdenlive_id">qtblend</property>
    <property name="rect">00:00:00.000=-437 -240 2784 1566 1.000000</property>
    <property name="rotation">00:00:00.000=0</property>
    <property name="compositing">0</property>
    <property name="distort">0</property>
    <property name="kdenlive:collapsed">0</property>
   </filter>
   <filter id="filter150">
    <property name="mlt_service">avfilter.unsharp</property>
    <property name="kdenlive_id">avfilter.unsharp</property>
    <property name="av.lx">5</property>
    <property name="av.ly">5</property>
    <property name="av.la">1.899</property>
    <property name="av.cx">5</property>
    <property name="av.cy">7</property>
    <property name="av.ca">0</property>
    <property name="kdenlive:collapsed">0</property>
   </filter>
   <filter id="filter151">
    <property name="version">0.3</property>
    <property name="mlt_service">frei0r.saturat0r</property>
    <property name="kdenlive_id">frei0r.saturat0r</property>
    <property name="Saturation">00:00:00.000=0.125;00:00:08.633=0.125;00:00:17.333=0.04</property>
    <property name="kdenlive:collapsed">0</property>
   </filter>
  </entry>
  <blank length="00:00:42.700"/>
  <entry producer="producer154" in="00:00:00.000" out="00:00:08.567">
   <property name="kdenlive:id">48</property>
   <filter id="filter136">
    <property name="mlt_service">avfilter.unsharp</property>
    <property name="kdenlive_id">avfilter.unsharp</property>
    <property name="av.lx">5</property>
    <property name="av.ly">5</property>
    <property name="av.la">1.2</property>
    <property name="av.cx">5</property>
    <property name="av.cy">5</property>
    <property name="av.ca">1.2</property>
    <property name="kdenlive:collapsed">0</property>
   </filter>
   <filter id="filter137">
    <property name="rotate_center">1</property>
    <property name="mlt_service">qtblend</property>
    <property name="kdenlive_id">qtblend</property>
    <property name="rect">00:00:00.000=1090 0 1920 1080 1.000000</property>
    <property name="rotation">00:00:00.000=0</property>
    <property name="compositing">0</property>
    <property name="distort">0</property>
    <property name="kdenlive:collapsed">0</property>
   </filter>
   <filter id="filter139">
    <property name="mlt_service">avfilter.hflip</property>
    <property name="kdenlive_id">avfilter.hflip</property>
    <property name="kdenlive:collapsed">0</property>
   </filter>
   <filter id="filter140">
    <property name="mlt_service">crop</property>
    <property name="kdenlive_id">crop</property>
    <property name="top">0</property>
    <property name="left">0</property>
    <property name="bottom">0</property>
    <property name="right">3</property>
    <property name="center">0</property>
    <property name="center_bias">0</property>
    <property name="use_profile">0</property>
    <property name="kdenlive:collapsed">0</property>
   </filter>
  </entry>
 </playlist>
 <playlist id="playlist11"/>
 <tractor id="tractor5" in="00:00:00.000" out="00:07:27.900">
  <property name="kdenlive:trackheight">69</property>
  <property name="kdenlive:timeline_active"/>
  <property name="kdenlive:collapsed">28</property>
  <property name="kdenlive:track_name">Video 3</property>
  <property name="kdenlive:thumbs_format"/>
  <property name="kdenlive:audio_rec"/>
  <track hide="audio" producer="playlist10"/>
  <track producer="playlist11"/>
 </tractor>
 <producer id="producer155" in="00:00:00.000" out="00:00:39.733">
  <property name="length">1193</property>
  <property name="eof">pause</property>
  <property name="resource">content/consingan_paintings/winter_homestead_2.mp4</property>
  <property name="audio_index">-1</property>
  <property name="video_index">0</property>
  <property name="mute_on_pause">0</property>
  <property name="mlt_service">avformat-novalidate</property>
  <property name="seekable">1</property>
  <property name="aspect_ratio">1</property>
  <property name="kdenlive:clipname">winter_homestead_2.mp4</property>
  <property name="kdenlive:folderid">31</property>
  <property name="kdenlive:id">59</property>
  <property name="kdenlive:file_size">7695363</property>
  <property name="global_feed">1</property>
  <property name="kdenlive:file_hash">c4e43a19c3bd35e729ffbed46dd2242d</property>
  <property name="xml">was here</property>
  <property name="meta.media.nb_streams">1</property>
  <property name="meta.media.0.stream.type">video</property>
  <property name="meta.media.0.stream.frame_rate">30</property>
  <property name="meta.media.0.stream.sample_aspect_ratio">0</property>
  <property name="meta.media.0.codec.width">944</property>
  <property name="meta.media.0.codec.height">720</property>
  <property name="meta.media.0.codec.rotate">0</property>
  <property name="meta.media.0.codec.frame_rate">30</property>
  <property name="meta.media.0.codec.pix_fmt">yuv420p</property>
  <property name="meta.media.0.codec.sample_aspect_ratio">0</property>
  <property name="meta.media.0.codec.colorspace">601</property>
  <property name="meta.media.0.codec.name">h264</property>
  <property name="meta.media.0.codec.long_name">H.264 / AVC / MPEG-4 AVC / MPEG-4 part 10</property>
  <property name="meta.media.0.codec.bit_rate">1545038</property>
  <property name="meta.attr.0.stream.handler_name.markup">VideoHandler</property>
  <property name="meta.attr.major_brand.markup">isom</property>
  <property name="meta.attr.minor_version.markup">512</property>
  <property name="meta.attr.compatible_brands.markup">isomiso2avc1mp41</property>
  <property name="meta.attr.encoder.markup">Lavf58.29.100</property>
  <property name="meta.media.sample_aspect_num">1</property>
  <property name="meta.media.sample_aspect_den">1</property>
  <property name="meta.media.frame_rate_num">30</property>
  <property name="meta.media.frame_rate_den">1</property>
  <property name="meta.media.colorspace">601</property>
  <property name="meta.media.color_trc">2</property>
  <property name="meta.media.width">944</property>
  <property name="meta.media.height">720</property>
  <property name="meta.media.color_range">mpeg</property>
  <property name="meta.media.top_field_first">0</property>
  <property name="meta.media.progressive">1</property>
  <property name="set.test_audio">1</property>
  <property name="set.test_image">0</property>
 </producer>
 <producer id="producer165" in="00:00:00.000" out="00:00:39.733">
  <property name="length">1193</property>
  <property name="eof">pause</property>
  <property name="resource">content/consingan_paintings/summer_trees_1.mp4</property>
  <property name="audio_index">-1</property>
  <property name="video_index">0</property>
  <property name="mute_on_pause">0</property>
  <property name="mlt_service">avformat-novalidate</property>
  <property name="seekable">1</property>
  <property name="aspect_ratio">1</property>
  <property name="kdenlive:clipname">summer_trees_1.mp4</property>
  <property name="kdenlive:folderid">31</property>
  <property name="kdenlive:id">56</property>
  <property name="kdenlive:file_size">5956097</property>
  <property name="global_feed">1</property>
  <property name="kdenlive:file_hash">5dd9e6db620b0ec18de076c8c58b1634</property>
  <property name="xml">was here</property>
  <property name="meta.media.nb_streams">1</property>
  <property name="meta.media.0.stream.type">video</property>
  <property name="meta.media.0.stream.frame_rate">30</property>
  <property name="meta.media.0.stream.sample_aspect_ratio">0</property>
  <property name="meta.media.0.codec.width">912</property>
  <property name="meta.media.0.codec.height">720</property>
  <property name="meta.media.0.codec.rotate">0</property>
  <property name="meta.media.0.codec.frame_rate">30</property>
  <property name="meta.media.0.codec.pix_fmt">yuv420p</property>
  <property name="meta.media.0.codec.sample_aspect_ratio">0</property>
  <property name="meta.media.0.codec.colorspace">601</property>
  <property name="meta.media.0.codec.name">h264</property>
  <property name="meta.media.0.codec.long_name">H.264 / AVC / MPEG-4 AVC / MPEG-4 part 10</property>
  <property name="meta.media.0.codec.bit_rate">1195148</property>
  <property name="meta.attr.0.stream.handler_name.markup">VideoHandler</property>
  <property name="meta.attr.major_brand.markup">isom</property>
  <property name="meta.attr.minor_version.markup">512</property>
  <property name="meta.attr.compatible_brands.markup">isomiso2avc1mp41</property>
  <property name="meta.attr.encoder.markup">Lavf58.29.100</property>
  <property name="meta.media.sample_aspect_num">1</property>
  <property name="meta.media.sample_aspect_den">1</property>
  <property name="meta.media.frame_rate_num">30</property>
  <property name="meta.media.frame_rate_den">1</property>
  <property name="meta.media.colorspace">601</property>
  <property name="meta.media.color_trc">2</property>
  <property name="meta.media.width">912</property>
  <property name="meta.media.height">720</property>
  <property name="meta.media.color_range">mpeg</property>
  <property name="meta.media.top_field_first">0</property>
  <property name="meta.media.progressive">1</property>
  <property name="set.test_audio">1</property>
  <property name="set.test_image">0</property>
 </producer>
 <producer id="producer166" in="00:00:00.000" out="00:00:39.733">
  <property name="length">1193</property>
  <property name="eof">pause</property>
  <property name="resource">content/consingan_paintings/fall_fence_dance_5.mp4</property>
  <property name="audio_index">-1</property>
  <property name="video_index">0</property>
  <property name="mute_on_pause">0</property>
  <property name="mlt_service">avformat-novalidate</property>
  <property name="seekable">1</property>
  <property name="aspect_ratio">1</property>
  <property name="kdenlive:clipname"/>
  <property name="kdenlive:folderid">31</property>
  <property name="kdenlive:id">107</property>
  <property name="kdenlive:file_size">15152544</property>
  <property name="kdenlive:file_hash">0257fb6bff6b399fe5c42dde94ff5f5e</property>
  <property name="global_feed">1</property>
  <property name="xml">was here</property>
  <property name="meta.media.nb_streams">1</property>
  <property name="meta.media.0.stream.type">video</property>
  <property name="meta.media.0.stream.frame_rate">30</property>
  <property name="meta.media.0.stream.sample_aspect_ratio">0</property>
  <property name="meta.media.0.codec.width">944</property>
  <property name="meta.media.0.codec.height">720</property>
  <property name="meta.media.0.codec.rotate">0</property>
  <property name="meta.media.0.codec.frame_rate">30</property>
  <property name="meta.media.0.codec.pix_fmt">yuv420p</property>
  <property name="meta.media.0.codec.sample_aspect_ratio">0</property>
  <property name="meta.media.0.codec.colorspace">601</property>
  <property name="meta.media.0.codec.name">h264</property>
  <property name="meta.media.0.codec.long_name">H.264 / AVC / MPEG-4 AVC / MPEG-4 part 10</property>
  <property name="meta.media.0.codec.bit_rate">3045203</property>
  <property name="meta.attr.0.stream.handler_name.markup">VideoHandler</property>
  <property name="meta.attr.major_brand.markup">isom</property>
  <property name="meta.attr.minor_version.markup">512</property>
  <property name="meta.attr.compatible_brands.markup">isomiso2avc1mp41</property>
  <property name="meta.attr.encoder.markup">Lavf58.29.100</property>
  <property name="meta.media.sample_aspect_num">1</property>
  <property name="meta.media.sample_aspect_den">1</property>
  <property name="meta.media.frame_rate_num">30</property>
  <property name="meta.media.frame_rate_den">1</property>
  <property name="meta.media.colorspace">601</property>
  <property name="meta.media.color_trc">2</property>
  <property name="meta.media.width">944</property>
  <property name="meta.media.height">720</property>
  <property name="meta.media.color_range">mpeg</property>
  <property name="meta.media.top_field_first">0</property>
  <property name="meta.media.progressive">1</property>
  <property name="set.test_audio">1</property>
  <property name="set.test_image">0</property>
 </producer>
 <producer id="producer167" in="00:00:00.000" out="00:00:02.633">
  <property name="length">80</property>
  <property name="eof">pause</property>
  <property name="resource">content/animated_paintings/snowy_fallen_tree_timelapse_0.mp4</property>
  <property name="audio_index">-1</property>
  <property name="video_index">0</property>
  <property name="mute_on_pause">0</property>
  <property name="mlt_service">avformat-novalidate</property>
  <property name="seekable">1</property>
  <property name="aspect_ratio">1</property>
  <property name="kdenlive:clipname"/>
  <property name="kdenlive:folderid">81</property>
  <property name="kdenlive:id">133</property>
  <property name="kdenlive:file_size">103560</property>
  <property name="kdenlive:file_hash">f900d8e0c0202932063005ca5d5ce804</property>
  <property name="global_feed">1</property>
  <property name="xml">was here</property>
  <property name="meta.media.nb_streams">1</property>
  <property name="meta.media.0.stream.type">video</property>
  <property name="meta.media.0.stream.frame_rate">15</property>
  <property name="meta.media.0.stream.sample_aspect_ratio">0</property>
  <property name="meta.media.0.codec.width">250</property>
  <property name="meta.media.0.codec.height">250</property>
  <property name="meta.media.0.codec.rotate">0</property>
  <property name="meta.media.0.codec.frame_rate">15</property>
  <property name="meta.media.0.codec.pix_fmt">yuv420p</property>
  <property name="meta.media.0.codec.sample_aspect_ratio">1</property>
  <property name="meta.media.0.codec.colorspace">601</property>
  <property name="meta.media.0.codec.name">mpeg4</property>
  <property name="meta.media.0.codec.long_name">MPEG-4 part 2</property>
  <property name="meta.media.0.codec.bit_rate">307518</property>
  <property name="meta.attr.0.stream.handler_name.markup">VideoHandler</property>
  <property name="meta.attr.major_brand.markup">isom</property>
  <property name="meta.attr.minor_version.markup">512</property>
  <property name="meta.attr.compatible_brands.markup">isomiso2mp41</property>
  <property name="meta.attr.encoder.markup">Lavf58.61.100</property>
  <property name="meta.media.sample_aspect_num">1</property>
  <property name="meta.media.sample_aspect_den">1</property>
  <property name="meta.media.frame_rate_num">15</property>
  <property name="meta.media.frame_rate_den">1</property>
  <property name="meta.media.colorspace">601</property>
  <property name="meta.media.color_trc">2</property>
  <property name="meta.media.width">250</property>
  <property name="meta.media.height">250</property>
  <property name="meta.media.color_range">mpeg</property>
  <property name="meta.media.top_field_first">0</property>
  <property name="meta.media.progressive">1</property>
  <property name="set.test_audio">1</property>
  <property name="set.test_image">0</property>
 </producer>
 <producer id="producer168" in="00:00:00.000" out="00:00:39.733">
  <property name="length">1193</property>
  <property name="eof">pause</property>
  <property name="resource">content/consingan_paintings/snowy_fallen_tree_1.mp4</property>
  <property name="audio_index">-1</property>
  <property name="video_index">0</property>
  <property name="mute_on_pause">0</property>
  <property name="mlt_service">avformat-novalidate</property>
  <property name="seekable">1</property>
  <property name="aspect_ratio">1</property>
  <property name="kdenlive:clipname">snowy_fallen_tree_1.mp4</property>
  <property name="kdenlive:folderid">31</property>
  <property name="kdenlive:id">52</property>
  <property name="kdenlive:file_size">10654681</property>
  <property name="global_feed">1</property>
  <property name="kdenlive:file_hash">6c8c204450aa770e350600f80e644c05</property>
  <property name="xml">was here</property>
  <property name="meta.media.nb_streams">1</property>
  <property name="meta.media.0.stream.type">video</property>
  <property name="meta.media.0.stream.frame_rate">30</property>
  <property name="meta.media.0.stream.sample_aspect_ratio">0</property>
  <property name="meta.media.0.codec.width">912</property>
  <property name="meta.media.0.codec.height">720</property>
  <property name="meta.media.0.codec.rotate">0</property>
  <property name="meta.media.0.codec.frame_rate">30</property>
  <property name="meta.media.0.codec.pix_fmt">yuv420p</property>
  <property name="meta.media.0.codec.sample_aspect_ratio">0</property>
  <property name="meta.media.0.codec.colorspace">601</property>
  <property name="meta.media.0.codec.name">h264</property>
  <property name="meta.media.0.codec.long_name">H.264 / AVC / MPEG-4 AVC / MPEG-4 part 10</property>
  <property name="meta.media.0.codec.bit_rate">2140362</property>
  <property name="meta.attr.0.stream.handler_name.markup">VideoHandler</property>
  <property name="meta.attr.major_brand.markup">isom</property>
  <property name="meta.attr.minor_version.markup">512</property>
  <property name="meta.attr.compatible_brands.markup">isomiso2avc1mp41</property>
  <property name="meta.attr.encoder.markup">Lavf58.29.100</property>
  <property name="meta.media.sample_aspect_num">1</property>
  <property name="meta.media.sample_aspect_den">1</property>
  <property name="meta.media.frame_rate_num">30</property>
  <property name="meta.media.frame_rate_den">1</property>
  <property name="meta.media.colorspace">601</property>
  <property name="meta.media.color_trc">2</property>
  <property name="meta.media.width">912</property>
  <property name="meta.media.height">720</property>
  <property name="meta.media.color_range">mpeg</property>
  <property name="meta.media.top_field_first">0</property>
  <property name="meta.media.progressive">1</property>
  <property name="set.test_audio">1</property>
  <property name="set.test_image">0</property>
 </producer>
 <playlist id="playlist12">
  <blank length="00:00:50.567"/>
  <entry producer="producer155" in="00:00:00.000" out="00:00:10.767">
   <property name="kdenlive:id">59</property>
   <property name="kdenlive:activeeffect">0</property>
   <filter id="filter153">
    <property name="mlt_service">avfilter.unsharp</property>
    <property name="kdenlive_id">avfilter.unsharp</property>
    <property name="av.lx">5</property>
    <property name="av.ly">5</property>
    <property name="av.la">2</property>
    <property name="av.cx">5</property>
    <property name="av.cy">5</property>
    <property name="av.ca">1.5</property>
    <property name="kdenlive:collapsed">0</property>
    <property name="disable">0</property>
   </filter>
   <filter id="filter154">
    <property name="rotate_center">1</property>
    <property name="mlt_service">qtblend</property>
    <property name="kdenlive_id">qtblend</property>
    <property name="rect">00:00:00.000=533 0 1416 1080 1.000000;00:00:10.767=-60 -10 2304 1296 1.000000</property>
    <property name="rotation">00:00:00.000=0;00:00:10.767=0</property>
    <property name="compositing">0</property>
    <property name="distort">0</property>
    <property name="kdenlive:collapsed">0</property>
   </filter>
  </entry>
  <blank length="00:00:08.233"/>
  <entry producer="producer133" in="00:00:00.000" out="00:00:06.300">
   <property name="kdenlive:id">48</property>
   <filter id="filter152">
    <property name="mlt_service">avfilter.unsharp</property>
    <property name="kdenlive_id">avfilter.unsharp</property>
    <property name="av.lx">5</property>
    <property name="av.ly">5</property>
    <property name="av.la">1.2</property>
    <property name="av.cx">5</property>
    <property name="av.cy">5</property>
    <property name="av.ca">1.2</property>
    <property name="kdenlive:collapsed">0</property>
   </filter>
   <filter id="filter258">
    <property name="rotate_center">1</property>
    <property name="mlt_service">qtblend</property>
    <property name="kdenlive_id">qtblend</property>
    <property name="rect">00:00:00.000=1090 0 1920 1080 1.000000</property>
    <property name="rotation">00:00:00.000=0</property>
    <property name="compositing">0</property>
    <property name="distort">0</property>
    <property name="kdenlive:collapsed">0</property>
   </filter>
   <filter id="filter259">
    <property name="mlt_service">avfilter.hflip</property>
    <property name="kdenlive_id">avfilter.hflip</property>
    <property name="kdenlive:collapsed">0</property>
   </filter>
   <filter id="filter156">
    <property name="mlt_service">crop</property>
    <property name="kdenlive_id">crop</property>
    <property name="top">0</property>
    <property name="left">0</property>
    <property name="bottom">0</property>
    <property name="right">3</property>
    <property name="center">0</property>
    <property name="center_bias">0</property>
    <property name="use_profile">0</property>
    <property name="kdenlive:collapsed">0</property>
   </filter>
  </entry>
  <blank length="00:03:25.833"/>
  <entry producer="producer165" in="00:00:00.000" out="00:00:06.267">
   <property name="kdenlive:id">56</property>
   <filter id="filter210">
    <property name="rotate_center">1</property>
    <property name="mlt_service">qtblend</property>
    <property name="kdenlive_id">qtblend</property>
    <property name="rect">00:00:00.000=-384 -216 2688 1512 1.000000</property>
    <property name="rotation">00:00:00.000=0</property>
    <property name="compositing">0</property>
    <property name="distort">0</property>
    <property name="kdenlive:collapsed">0</property>
   </filter>
  </entry>
  <blank length="00:00:05.633"/>
  <entry producer="producer166" in="00:00:00.000" out="00:00:09.200">
   <property name="kdenlive:id">107</property>
   <filter id="filter230">
    <property name="rotate_center">1</property>
    <property name="mlt_service">qtblend</property>
    <property name="kdenlive_id">qtblend</property>
    <property name="rect">00:00:00.000=580 0 1920 1080 1.000000</property>
    <property name="rotation">00:00:00.000=0</property>
    <property name="compositing">0</property>
    <property name="distort">0</property>
    <property name="kdenlive:collapsed">0</property>
   </filter>
   <filter id="filter231">
    <property name="mirror">horizontal</property>
    <property name="mlt_service">mirror</property>
    <property name="kdenlive_id">mirror</property>
    <property name="reverse">0</property>
    <property name="kdenlive:collapsed">0</property>
   </filter>
   <filter id="filter232">
    <property name="version">0.1</property>
    <property name="mlt_service">frei0r.distort0r</property>
    <property name="kdenlive_id">frei0r.distort0r</property>
    <property name="Amplitude">00:00:00.000=0;00:00:00.500=-0.04;00:00:00.833=0.05;00:00:01.500=-0.04;00:00:01.833=0.05;00:00:02.433=-0.05;00:00:02.767=0.05;00:00:03.400=-0.04;00:00:03.733=0.05;00:00:04.333=-0.04;00:00:04.667=0.05;00:00:05.233=-0.04;00:00:05.533=0.05;00:00:06.200=-0.04;00:00:06.500=0.05;00:00:07.067=-0.04;00:00:07.367=0.05;00:00:07.967=-0.04;00:00:08.367=0.05</property>
    <property name="Frequency">00:00:00.000=-0.077;00:00:00.500=-0.077;00:00:00.833=-0.077;00:00:01.500=-0.077;00:00:01.833=-0.077;00:00:02.433=-0.077;00:00:02.767=-0.077;00:00:03.400=-0.077;00:00:03.733=-0.077;00:00:04.333=-0.077;00:00:04.667=-0.077;00:00:05.233=-0.077;00:00:05.533=-0.077;00:00:06.200=-0.077;00:00:06.500=-0.077;00:00:07.067=-0.077;00:00:07.367=-0.077;00:00:07.967=-0.077;00:00:08.367=-0.077</property>
    <property name="kdenlive:collapsed">0</property>
    <property name="disable">0</property>
   </filter>
   <filter id="filter286">
    <property name="mlt_service">avfilter.unsharp</property>
    <property name="kdenlive_id">avfilter.unsharp</property>
    <property name="av.lx">5</property>
    <property name="av.ly">5</property>
    <property name="av.la">1.794</property>
    <property name="av.cx">5</property>
    <property name="av.cy">5</property>
    <property name="av.ca">1.675</property>
    <property name="kdenlive:collapsed">0</property>
   </filter>
  </entry>
  <blank length="00:00:10.533"/>
  <entry producer="producer11" in="00:00:00.000" out="00:00:07.300">
   <property name="kdenlive:id">93</property>
   <filter id="filter287">
    <property name="mlt_service">avfilter.unsharp</property>
    <property name="kdenlive_id">avfilter.unsharp</property>
    <property name="av.lx">5</property>
    <property name="av.ly">5</property>
    <property name="av.la">0.828</property>
    <property name="av.cx">5</property>
    <property name="av.cy">5</property>
    <property name="av.ca">1.88</property>
    <property name="kdenlive:collapsed">0</property>
    <property name="disable">0</property>
   </filter>
   <filter id="filter288">
    <property name="rotate_center">1</property>
    <property name="mlt_service">qtblend</property>
    <property name="kdenlive_id">qtblend</property>
    <property name="rect">00:00:00.000~=983 0 1920 1080 1.000000;00:00:01.933=185 0 1920 1080 1.000000;00:00:02.033=190 0 1920 1080 1.000000;00:00:04.467=190 0 1920 1080 1.000000;00:00:07.300=-267 0 1920 1080 1.000000</property>
    <property name="rotation">00:00:00.000~=0;00:00:01.933=0;00:00:02.033=0;00:00:04.467=0;00:00:07.300=0</property>
    <property name="compositing">0</property>
    <property name="distort">0</property>
    <property name="kdenlive:collapsed">0</property>
   </filter>
   <filter id="filter289" out="00:00:00.433">
    <property name="start">0</property>
    <property name="mlt_service">brightness</property>
    <property name="kdenlive_id">fade_from_black</property>
    <property name="end">1</property>
    <property name="alpha">-1</property>
    <property name="kdenlive:collapsed">0</property>
   </filter>
   <filter id="filter290">
    <property name="version">0.1</property>
    <property name="mlt_service">frei0r.mask0mate</property>
    <property name="kdenlive_id">frei0r.mask0mate</property>
    <property name="Left">00:00:00.000=0;00:00:03.900=0;00:00:05.533=0.17;00:00:07.300=0.241</property>
    <property name="Right">00:00:00.000=0;00:00:03.900=0;00:00:05.533=0;00:00:07.300=0</property>
    <property name="Top">00:00:00.000=0;00:00:03.900=0;00:00:05.533=0;00:00:07.300=0</property>
    <property name="Bottom">00:00:00.000=0;00:00:03.900=0;00:00:05.533=0;00:00:07.300=0</property>
    <property name="Invert">1</property>
    <property name="Blur">00:00:00.000=0;00:00:03.900=0;00:00:05.533=0;00:00:07.300=0</property>
    <property name="kdenlive:collapsed">0</property>
   </filter>
  </entry>
  <entry producer="producer13" in="00:00:00.000" out="00:00:03.533">
   <property name="kdenlive:id">95</property>
   <property name="kdenlive:activeeffect">2</property>
   <filter id="filter291">
    <property name="mlt_service">avfilter.unsharp</property>
    <property name="kdenlive_id">avfilter.unsharp</property>
    <property name="av.lx">5</property>
    <property name="av.ly">5</property>
    <property name="av.la">1.25</property>
    <property name="av.cx">5</property>
    <property name="av.cy">5</property>
    <property name="av.ca">1.33</property>
    <property name="kdenlive:collapsed">0</property>
   </filter>
   <filter id="filter292">
    <property name="rotate_center">1</property>
    <property name="mlt_service">qtblend</property>
    <property name="kdenlive_id">qtblend</property>
    <property name="rect">00:00:00.000=-448 0 1920 1080 1.000000;00:00:00.800~=-448 0 1920 1080 1.000000;00:00:01.767~=-336 0 1920 1080 1.000000;00:00:03.533~=57 0 1920 1080 1.000000</property>
    <property name="rotation">00:00:00.000=0;00:00:00.800~=0;00:00:01.767~=0;00:00:03.533~=0</property>
    <property name="compositing">0</property>
    <property name="distort">0</property>
    <property name="kdenlive:collapsed">0</property>
   </filter>
   <filter id="filter293">
    <property name="version">0.1</property>
    <property name="mlt_service">frei0r.mask0mate</property>
    <property name="kdenlive_id">frei0r.mask0mate</property>
    <property name="Left">00:00:00.000=0.24</property>
    <property name="Right">00:00:00.000=0</property>
    <property name="Top">00:00:00.000=0</property>
    <property name="Bottom">00:00:00.000=0</property>
    <property name="Invert">1</property>
    <property name="Blur">00:00:00.000=0</property>
    <property name="kdenlive:collapsed">0</property>
   </filter>
  </entry>
  <blank length="00:00:07.267"/>
  <entry producer="producer167" in="00:00:00.000" out="00:00:02.633">
   <property name="kdenlive:id">133</property>
   <filter id="filter294">
    <property name="rotate_center">1</property>
    <property name="mlt_service">qtblend</property>
    <property name="kdenlive_id">qtblend</property>
    <property name="rect">00:00:00.000=1315 25 500 500 1.000000</property>
    <property name="rotation">00:00:00.000=0</property>
    <property name="compositing">0</property>
    <property name="distort">0</property>
    <property name="kdenlive:collapsed">0</property>
   </filter>
   <filter id="filter295">
    <property name="mlt_service">avfilter.unsharp</property>
    <property name="kdenlive_id">avfilter.unsharp</property>
    <property name="av.lx">5</property>
    <property name="av.ly">5</property>
    <property name="av.la">1.5</property>
    <property name="av.cx">5</property>
    <property name="av.cy">5</property>
    <property name="av.ca">2</property>
    <property name="kdenlive:collapsed">0</property>
   </filter>
  </entry>
  <entry producer="producer168" in="00:00:00.000" out="00:00:02.633">
   <property name="kdenlive:id">52</property>
   <filter id="filter296">
    <property name="version">0.1</property>
    <property name="mlt_service">frei0r.scale0tilt</property>
    <property name="kdenlive_id">frei0r.scale0tilt</property>
    <property name="Clip left">00:00:00.000=0.109375</property>
    <property name="Clip right">00:00:00.000=0.125</property>
    <property name="Clip top">00:00:00.000=0</property>
    <property name="Clip bottom">00:00:00.000=0.0185185</property>
    <property name="Scale X">0.36</property>
    <property name="Scale Y">0.355</property>
    <property name="Tilt X">00:00:00.000=0.5</property>
    <property name="Tilt Y">00:00:00.000=0.5</property>
    <property name="kdenlive:collapsed">0</property>
   </filter>
   <filter id="filter297">
    <property name="rotate_center">1</property>
    <property name="mlt_service">qtblend</property>
    <property name="kdenlive_id">qtblend</property>
    <property name="rect">00:00:00.000=1224 26 944 720 1.000000</property>
    <property name="rotation">00:00:00.000=0</property>
    <property name="compositing">0</property>
    <property name="distort">0</property>
    <property name="kdenlive:collapsed">0</property>
   </filter>
   <filter id="filter298">
    <property name="mlt_service">avfilter.unsharp</property>
    <property name="kdenlive_id">avfilter.unsharp</property>
    <property name="av.lx">5</property>
    <property name="av.ly">5</property>
    <property name="av.la">0.74</property>
    <property name="av.cx">5</property>
    <property name="av.cy">5</property>
    <property name="av.ca">1.12</property>
    <property name="kdenlive:collapsed">0</property>
   </filter>
  </entry>
 </playlist>
 <playlist id="playlist13"/>
 <tractor id="tractor6" in="00:00:00.000" out="00:05:36.933">
  <property name="kdenlive:trackheight">69</property>
  <property name="kdenlive:timeline_active">1</property>
  <property name="kdenlive:collapsed">28</property>
  <property name="kdenlive:thumbs_format"/>
  <property name="kdenlive:audio_rec"/>
  <track hide="audio" producer="playlist12"/>
  <track producer="playlist13"/>
 </tractor>
 <producer id="producer156" in="00:00:00.000" out="00:00:06.667">
  <property name="length">201</property>
  <property name="eof">pause</property>
  <property name="resource">/home/ryankelln/.cache/kdenlive/proxy/c5fccfac81ccb23057d9a5935082d4f8.mkv</property>
  <property name="audio_index">-1</property>
  <property name="video_index">0</property>
  <property name="mute_on_pause">0</property>
  <property name="mlt_service">avformat-novalidate</property>
  <property name="seekable">1</property>
  <property name="aspect_ratio">1</property>
  <property name="kdenlive:clipname">rocky_hill.mp4</property>
  <property name="kdenlive:folderid">149</property>
  <property name="kdenlive:id">156</property>
  <property name="kdenlive:file_size">11686835</property>
  <property name="kdenlive:file_hash">c5fccfac81ccb23057d9a5935082d4f8</property>
  <property name="kdenlive:proxy">/home/ryankelln/.cache/kdenlive/proxy/c5fccfac81ccb23057d9a5935082d4f8.mkv</property>
  <property name="kdenlive:originalurl">content/prerendered/rocky_hill.mp4</property>
  <property name="kdenlive:original.mlt_type">producer</property>
  <property name="kdenlive:original.in">0</property>
  <property name="kdenlive:original.out">200</property>
  <property name="kdenlive:original.length">201</property>
  <property name="kdenlive:original.eof">pause</property>
  <property name="kdenlive:original.resource">content/prerendered/rocky_hill.mp4</property>
  <property name="kdenlive:original.meta.media.nb_streams">1</property>
  <property name="kdenlive:original.meta.media.0.stream.type">video</property>
  <property name="kdenlive:original.meta.media.0.stream.frame_rate">30</property>
  <property name="kdenlive:original.meta.media.0.stream.sample_aspect_ratio">1</property>
  <property name="kdenlive:original.meta.media.0.codec.width">1920</property>
  <property name="kdenlive:original.meta.media.0.codec.height">1080</property>
  <property name="kdenlive:original.meta.media.0.codec.rotate">0</property>
  <property name="kdenlive:original.meta.media.0.codec.frame_rate">30</property>
  <property name="kdenlive:original.meta.media.0.codec.pix_fmt">yuv420p</property>
  <property name="kdenlive:original.meta.media.0.codec.sample_aspect_ratio">1</property>
  <property name="kdenlive:original.meta.media.0.codec.colorspace">709</property>
  <property name="kdenlive:original.meta.media.0.codec.color_trc">1</property>
  <property name="kdenlive:original.meta.media.0.codec.name">h264</property>
  <property name="kdenlive:original.meta.media.0.codec.long_name">H.264 / AVC / MPEG-4 AVC / MPEG-4 part 10</property>
  <property name="kdenlive:original.meta.media.0.codec.bit_rate">13950471</property>
  <property name="kdenlive:original.meta.attr.0.stream.handler_name.markup">VideoHandler</property>
  <property name="kdenlive:original.meta.attr.major_brand.markup">isom</property>
  <property name="kdenlive:original.meta.attr.minor_version.markup">512</property>
  <property name="kdenlive:original.meta.attr.compatible_brands.markup">isomiso2avc1mp41</property>
  <property name="kdenlive:original.meta.attr.encoder.markup">Lavf58.45.100</property>
  <property name="kdenlive:original.seekable">1</property>
  <property name="kdenlive:original.width">1920</property>
  <property name="kdenlive:original.height">1080</property>
  <property name="kdenlive:original.meta.media.sample_aspect_num">1</property>
  <property name="kdenlive:original.meta.media.sample_aspect_den">1</property>
  <property name="kdenlive:original.aspect_ratio">1</property>
  <property name="kdenlive:original.audio_index">-1</property>
  <property name="kdenlive:original.video_index">0</property>
  <property name="kdenlive:original.mute_on_pause">0</property>
  <property name="kdenlive:original.mlt_service">avformat-novalidate</property>
  <property name="kdenlive:original.kdenlive:folderid">149</property>
  <property name="kdenlive:original.meta.media.frame_rate_num">30</property>
  <property name="kdenlive:original.meta.media.frame_rate_den">1</property>
  <property name="kdenlive:original.meta.media.colorspace">709</property>
  <property name="kdenlive:original.meta.media.color_trc">1</property>
  <property name="kdenlive:original.meta.media.width">1920</property>
  <property name="kdenlive:original.meta.media.height">1080</property>
  <property name="kdenlive:original.meta.media.color_range">mpeg</property>
  <property name="kdenlive:original.kdenlive:id">156</property>
  <property name="kdenlive:original.kdenlive:file_size">11686835</property>
  <property name="kdenlive:original.kdenlive:file_hash">c5fccfac81ccb23057d9a5935082d4f8</property>
  <property name="kdenlive:original.backup">1</property>
  <property name="global_feed">1</property>
  <property name="xml">was here</property>
  <property name="meta.media.nb_streams">1</property>
  <property name="meta.media.0.stream.type">video</property>
  <property name="meta.media.0.stream.frame_rate">30</property>
  <property name="meta.media.0.stream.sample_aspect_ratio">1</property>
  <property name="meta.media.0.codec.width">960</property>
  <property name="meta.media.0.codec.height">540</property>
  <property name="meta.media.0.codec.rotate">0</property>
  <property name="meta.media.0.codec.frame_rate">1000</property>
  <property name="meta.media.0.codec.pix_fmt">yuvj420p</property>
  <property name="meta.media.0.codec.sample_aspect_ratio">1</property>
  <property name="meta.media.0.codec.colorspace">601</property>
  <property name="meta.media.0.codec.name">mjpeg</property>
  <property name="meta.media.0.codec.long_name">MJPEG (Motion JPEG)</property>
  <property name="meta.media.0.codec.bit_rate">0</property>
  <property name="meta.attr.0.stream.HANDLER_NAME.markup">VideoHandler</property>
  <property name="meta.attr.0.stream.ENCODER.markup">Lavc58.91.100 mjpeg</property>
  <property name="meta.attr.0.stream.DURATION.markup">00:00:06.700000000</property>
  <property name="meta.attr.COMPATIBLE_BRANDS.markup">isomiso2avc1mp41</property>
  <property name="meta.attr.MAJOR_BRAND.markup">isom</property>
  <property name="meta.attr.MINOR_VERSION.markup">512</property>
  <property name="meta.attr.ENCODER.markup">Lavf58.45.100</property>
  <property name="meta.media.sample_aspect_num">1</property>
  <property name="meta.media.sample_aspect_den">1</property>
  <property name="meta.media.frame_rate_num">30</property>
  <property name="meta.media.frame_rate_den">1</property>
  <property name="meta.media.colorspace">601</property>
  <property name="meta.media.color_trc">2</property>
  <property name="meta.media.width">960</property>
  <property name="meta.media.height">540</property>
  <property name="meta.media.color_range">full</property>
  <property name="meta.media.top_field_first">0</property>
  <property name="meta.media.progressive">1</property>
  <property name="set.test_audio">1</property>
  <property name="set.test_image">0</property>
 </producer>
 <producer id="producer164" in="00:00:00.000" out="00:00:08.467">
  <property name="length">255</property>
  <property name="eof">pause</property>
  <property name="resource">/home/ryankelln/.cache/kdenlive/proxy/e266d64fcda8a4c9a91e12afedfc53c2.mkv</property>
  <property name="audio_index">-1</property>
  <property name="video_index">0</property>
  <property name="mute_on_pause">0</property>
  <property name="mlt_service">avformat-novalidate</property>
  <property name="seekable">1</property>
  <property name="aspect_ratio">1</property>
  <property name="kdenlive:clipname">fall_clouds.mp4</property>
  <property name="kdenlive:folderid">149</property>
  <property name="kdenlive:id">163</property>
  <property name="kdenlive:file_size">11386465</property>
  <property name="kdenlive:file_hash">e266d64fcda8a4c9a91e12afedfc53c2</property>
  <property name="kdenlive:proxy">/home/ryankelln/.cache/kdenlive/proxy/e266d64fcda8a4c9a91e12afedfc53c2.mkv</property>
  <property name="kdenlive:originalurl">content/prerendered/fall_clouds.mp4</property>
  <property name="kdenlive:original.mlt_type">producer</property>
  <property name="kdenlive:original.in">0</property>
  <property name="kdenlive:original.out">254</property>
  <property name="kdenlive:original.length">255</property>
  <property name="kdenlive:original.eof">pause</property>
  <property name="kdenlive:original.resource">content/prerendered/fall_clouds.mp4</property>
  <property name="kdenlive:original.meta.media.nb_streams">1</property>
  <property name="kdenlive:original.meta.media.0.stream.type">video</property>
  <property name="kdenlive:original.meta.media.0.stream.frame_rate">30</property>
  <property name="kdenlive:original.meta.media.0.stream.sample_aspect_ratio">1</property>
  <property name="kdenlive:original.meta.media.0.codec.width">1920</property>
  <property name="kdenlive:original.meta.media.0.codec.height">1080</property>
  <property name="kdenlive:original.meta.media.0.codec.rotate">0</property>
  <property name="kdenlive:original.meta.media.0.codec.frame_rate">30</property>
  <property name="kdenlive:original.meta.media.0.codec.pix_fmt">yuv420p</property>
  <property name="kdenlive:original.meta.media.0.codec.sample_aspect_ratio">1</property>
  <property name="kdenlive:original.meta.media.0.codec.colorspace">709</property>
  <property name="kdenlive:original.meta.media.0.codec.color_trc">1</property>
  <property name="kdenlive:original.meta.media.0.codec.name">h264</property>
  <property name="kdenlive:original.meta.media.0.codec.long_name">H.264 / AVC / MPEG-4 AVC / MPEG-4 part 10</property>
  <property name="kdenlive:original.meta.media.0.codec.bit_rate">10713270</property>
  <property name="kdenlive:original.meta.attr.0.stream.handler_name.markup">VideoHandler</property>
  <property name="kdenlive:original.meta.attr.major_brand.markup">isom</property>
  <property name="kdenlive:original.meta.attr.minor_version.markup">512</property>
  <property name="kdenlive:original.meta.attr.compatible_brands.markup">isomiso2avc1mp41</property>
  <property name="kdenlive:original.meta.attr.encoder.markup">Lavf58.45.100</property>
  <property name="kdenlive:original.seekable">1</property>
  <property name="kdenlive:original.width">1920</property>
  <property name="kdenlive:original.height">1080</property>
  <property name="kdenlive:original.meta.media.sample_aspect_num">1</property>
  <property name="kdenlive:original.meta.media.sample_aspect_den">1</property>
  <property name="kdenlive:original.aspect_ratio">1</property>
  <property name="kdenlive:original.audio_index">-1</property>
  <property name="kdenlive:original.video_index">0</property>
  <property name="kdenlive:original.mute_on_pause">0</property>
  <property name="kdenlive:original.mlt_service">avformat-novalidate</property>
  <property name="kdenlive:original.kdenlive:folderid">149</property>
  <property name="kdenlive:original.meta.media.frame_rate_num">30</property>
  <property name="kdenlive:original.meta.media.frame_rate_den">1</property>
  <property name="kdenlive:original.meta.media.colorspace">709</property>
  <property name="kdenlive:original.meta.media.color_trc">1</property>
  <property name="kdenlive:original.meta.media.width">1920</property>
  <property name="kdenlive:original.meta.media.height">1080</property>
  <property name="kdenlive:original.meta.media.color_range">mpeg</property>
  <property name="kdenlive:original.kdenlive:id">163</property>
  <property name="kdenlive:original.kdenlive:file_size">11386465</property>
  <property name="kdenlive:original.kdenlive:file_hash">e266d64fcda8a4c9a91e12afedfc53c2</property>
  <property name="kdenlive:original.backup">1</property>
  <property name="global_feed">1</property>
  <property name="xml">was here</property>
  <property name="meta.media.nb_streams">1</property>
  <property name="meta.media.0.stream.type">video</property>
  <property name="meta.media.0.stream.frame_rate">30</property>
  <property name="meta.media.0.stream.sample_aspect_ratio">1</property>
  <property name="meta.media.0.codec.width">960</property>
  <property name="meta.media.0.codec.height">540</property>
  <property name="meta.media.0.codec.rotate">0</property>
  <property name="meta.media.0.codec.frame_rate">1000</property>
  <property name="meta.media.0.codec.pix_fmt">yuvj420p</property>
  <property name="meta.media.0.codec.sample_aspect_ratio">1</property>
  <property name="meta.media.0.codec.colorspace">601</property>
  <property name="meta.media.0.codec.name">mjpeg</property>
  <property name="meta.media.0.codec.long_name">MJPEG (Motion JPEG)</property>
  <property name="meta.media.0.codec.bit_rate">0</property>
  <property name="meta.attr.0.stream.HANDLER_NAME.markup">VideoHandler</property>
  <property name="meta.attr.0.stream.ENCODER.markup">Lavc58.91.100 mjpeg</property>
  <property name="meta.attr.0.stream.DURATION.markup">00:00:08.500000000</property>
  <property name="meta.attr.COMPATIBLE_BRANDS.markup">isomiso2avc1mp41</property>
  <property name="meta.attr.MAJOR_BRAND.markup">isom</property>
  <property name="meta.attr.MINOR_VERSION.markup">512</property>
  <property name="meta.attr.ENCODER.markup">Lavf58.45.100</property>
  <property name="meta.media.sample_aspect_num">1</property>
  <property name="meta.media.sample_aspect_den">1</property>
  <property name="meta.media.frame_rate_num">30</property>
  <property name="meta.media.frame_rate_den">1</property>
  <property name="meta.media.colorspace">601</property>
  <property name="meta.media.color_trc">2</property>
  <property name="meta.media.width">960</property>
  <property name="meta.media.height">540</property>
  <property name="meta.media.color_range">full</property>
  <property name="meta.media.top_field_first">0</property>
  <property name="meta.media.progressive">1</property>
  <property name="set.test_audio">1</property>
  <property name="set.test_image">0</property>
 </producer>
 <playlist id="playlist14">
  <blank length="00:01:06.100"/>
  <entry producer="producer156" in="00:00:00.000" out="00:00:03.833">
   <property name="kdenlive:id">156</property>
  </entry>
  <blank length="00:00:05.800"/>
  <entry producer="producer164" in="00:00:00.000" out="00:00:08.467">
   <property name="kdenlive:id">163</property>
  </entry>
 </playlist>
 <playlist id="playlist15"/>
 <tractor id="tractor7" in="00:00:00.000" out="00:01:24.233">
  <property name="kdenlive:track_name">Pre-rendered</property>
  <property name="kdenlive:trackheight">69</property>
  <property name="kdenlive:timeline_active">1</property>
  <track producer="playlist14"/>
  <track producer="playlist15"/>
 </tractor>
 <producer id="producer169" in="00:00:00.000" out="00:00:06.633">
  <property name="length">200</property>
  <property name="eof">pause</property>
  <property name="resource">/home/ryankelln/.cache/kdenlive/proxy/8f8ee95b91e630ac632e2f28195011ee.mkv</property>
  <property name="audio_index">-1</property>
  <property name="video_index">0</property>
  <property name="mute_on_pause">0</property>
  <property name="mlt_service">avformat-novalidate</property>
  <property name="seekable">1</property>
  <property name="aspect_ratio">1</property>
  <property name="kdenlive:clipname">fall_fence.mp4</property>
  <property name="kdenlive:folderid">149</property>
  <property name="kdenlive:id">155</property>
  <property name="kdenlive:file_size">7207050</property>
  <property name="kdenlive:file_hash">8f8ee95b91e630ac632e2f28195011ee</property>
  <property name="kdenlive:proxy">/home/ryankelln/.cache/kdenlive/proxy/8f8ee95b91e630ac632e2f28195011ee.mkv</property>
  <property name="kdenlive:originalurl">content/prerendered/fall_fence.mp4</property>
  <property name="kdenlive:original.mlt_type">producer</property>
  <property name="kdenlive:original.in">0</property>
  <property name="kdenlive:original.out">199</property>
  <property name="kdenlive:original.length">200</property>
  <property name="kdenlive:original.eof">pause</property>
  <property name="kdenlive:original.resource">content/prerendered/fall_fence.mp4</property>
  <property name="kdenlive:original.meta.media.nb_streams">1</property>
  <property name="kdenlive:original.meta.media.0.stream.type">video</property>
  <property name="kdenlive:original.meta.media.0.stream.frame_rate">30</property>
  <property name="kdenlive:original.meta.media.0.stream.sample_aspect_ratio">1</property>
  <property name="kdenlive:original.meta.media.0.codec.width">1920</property>
  <property name="kdenlive:original.meta.media.0.codec.height">1080</property>
  <property name="kdenlive:original.meta.media.0.codec.rotate">0</property>
  <property name="kdenlive:original.meta.media.0.codec.frame_rate">30</property>
  <property name="kdenlive:original.meta.media.0.codec.pix_fmt">yuv420p</property>
  <property name="kdenlive:original.meta.media.0.codec.sample_aspect_ratio">1</property>
  <property name="kdenlive:original.meta.media.0.codec.colorspace">709</property>
  <property name="kdenlive:original.meta.media.0.codec.color_trc">1</property>
  <property name="kdenlive:original.meta.media.0.codec.name">h264</property>
  <property name="kdenlive:original.meta.media.0.codec.long_name">H.264 / AVC / MPEG-4 AVC / MPEG-4 part 10</property>
  <property name="kdenlive:original.meta.media.0.codec.bit_rate">8644515</property>
  <property name="kdenlive:original.meta.attr.0.stream.handler_name.markup">VideoHandler</property>
  <property name="kdenlive:original.meta.attr.major_brand.markup">isom</property>
  <property name="kdenlive:original.meta.attr.minor_version.markup">512</property>
  <property name="kdenlive:original.meta.attr.compatible_brands.markup">isomiso2avc1mp41</property>
  <property name="kdenlive:original.meta.attr.encoder.markup">Lavf58.45.100</property>
  <property name="kdenlive:original.seekable">1</property>
  <property name="kdenlive:original.width">1920</property>
  <property name="kdenlive:original.height">1080</property>
  <property name="kdenlive:original.meta.media.sample_aspect_num">1</property>
  <property name="kdenlive:original.meta.media.sample_aspect_den">1</property>
  <property name="kdenlive:original.aspect_ratio">1</property>
  <property name="kdenlive:original.audio_index">-1</property>
  <property name="kdenlive:original.video_index">0</property>
  <property name="kdenlive:original.mute_on_pause">0</property>
  <property name="kdenlive:original.mlt_service">avformat-novalidate</property>
  <property name="kdenlive:original.kdenlive:folderid">149</property>
  <property name="kdenlive:original.meta.media.frame_rate_num">30</property>
  <property name="kdenlive:original.meta.media.frame_rate_den">1</property>
  <property name="kdenlive:original.meta.media.colorspace">709</property>
  <property name="kdenlive:original.meta.media.color_trc">1</property>
  <property name="kdenlive:original.meta.media.width">1920</property>
  <property name="kdenlive:original.meta.media.height">1080</property>
  <property name="kdenlive:original.meta.media.color_range">mpeg</property>
  <property name="kdenlive:original.kdenlive:id">155</property>
  <property name="kdenlive:original.kdenlive:file_size">7207050</property>
  <property name="kdenlive:original.kdenlive:file_hash">8f8ee95b91e630ac632e2f28195011ee</property>
  <property name="kdenlive:original.backup">1</property>
  <property name="global_feed">1</property>
  <property name="xml">was here</property>
  <property name="meta.media.nb_streams">1</property>
  <property name="meta.media.0.stream.type">video</property>
  <property name="meta.media.0.stream.frame_rate">30</property>
  <property name="meta.media.0.stream.sample_aspect_ratio">1</property>
  <property name="meta.media.0.codec.width">960</property>
  <property name="meta.media.0.codec.height">540</property>
  <property name="meta.media.0.codec.rotate">0</property>
  <property name="meta.media.0.codec.frame_rate">1000</property>
  <property name="meta.media.0.codec.pix_fmt">yuvj420p</property>
  <property name="meta.media.0.codec.sample_aspect_ratio">1</property>
  <property name="meta.media.0.codec.colorspace">601</property>
  <property name="meta.media.0.codec.name">mjpeg</property>
  <property name="meta.media.0.codec.long_name">MJPEG (Motion JPEG)</property>
  <property name="meta.media.0.codec.bit_rate">0</property>
  <property name="meta.attr.0.stream.HANDLER_NAME.markup">VideoHandler</property>
  <property name="meta.attr.0.stream.ENCODER.markup">Lavc58.91.100 mjpeg</property>
  <property name="meta.attr.0.stream.DURATION.markup">00:00:06.666000000</property>
  <property name="meta.attr.COMPATIBLE_BRANDS.markup">isomiso2avc1mp41</property>
  <property name="meta.attr.MAJOR_BRAND.markup">isom</property>
  <property name="meta.attr.MINOR_VERSION.markup">512</property>
  <property name="meta.attr.ENCODER.markup">Lavf58.45.100</property>
  <property name="meta.media.sample_aspect_num">1</property>
  <property name="meta.media.sample_aspect_den">1</property>
  <property name="meta.media.frame_rate_num">30</property>
  <property name="meta.media.frame_rate_den">1</property>
  <property name="meta.media.colorspace">601</property>
  <property name="meta.media.color_trc">2</property>
  <property name="meta.media.width">960</property>
  <property name="meta.media.height">540</property>
  <property name="meta.media.color_range">full</property>
  <property name="meta.media.top_field_first">0</property>
  <property name="meta.media.progressive">1</property>
  <property name="set.test_audio">1</property>
  <property name="set.test_image">0</property>
 </producer>
 <producer id="producer170" in="00:00:00.000" out="00:00:08.900">
  <property name="length">268</property>
  <property name="eof">pause</property>
  <property name="resource">/home/ryankelln/.cache/kdenlive/proxy/03b958151065285fdcd91f34786c6f83.mkv</property>
  <property name="audio_index">-1</property>
  <property name="video_index">0</property>
  <property name="mute_on_pause">0</property>
  <property name="mlt_service">avformat-novalidate</property>
  <property name="seekable">1</property>
  <property name="aspect_ratio">1</property>
  <property name="kdenlive:clipname">rowboats.mp4</property>
  <property name="kdenlive:folderid">149</property>
  <property name="kdenlive:id">159</property>
  <property name="kdenlive:file_size">13456516</property>
  <property name="kdenlive:file_hash">03b958151065285fdcd91f34786c6f83</property>
  <property name="kdenlive:proxy">/home/ryankelln/.cache/kdenlive/proxy/03b958151065285fdcd91f34786c6f83.mkv</property>
  <property name="kdenlive:originalurl">content/prerendered/rowboats.mp4</property>
  <property name="global_feed">1</property>
  <property name="kdenlive:original.mlt_type">producer</property>
  <property name="kdenlive:original.in">0</property>
  <property name="kdenlive:original.out">267</property>
  <property name="kdenlive:original.length">268</property>
  <property name="kdenlive:original.eof">pause</property>
  <property name="kdenlive:original.resource">content/prerendered/rowboats.mp4</property>
  <property name="kdenlive:original.audio_index">-1</property>
  <property name="kdenlive:original.video_index">0</property>
  <property name="kdenlive:original.mute_on_pause">0</property>
  <property name="kdenlive:original.mlt_service">avformat-novalidate</property>
  <property name="kdenlive:original.seekable">1</property>
  <property name="kdenlive:original.aspect_ratio">1</property>
  <property name="kdenlive:original.kdenlive:folderid">149</property>
  <property name="kdenlive:original.kdenlive:id">159</property>
  <property name="kdenlive:original.kdenlive:file_size">13456516</property>
  <property name="kdenlive:original.kdenlive:file_hash">03b958151065285fdcd91f34786c6f83</property>
  <property name="kdenlive:original.global_feed">1</property>
  <property name="kdenlive:original.meta.media.nb_streams">1</property>
  <property name="kdenlive:original.meta.media.0.stream.type">video</property>
  <property name="kdenlive:original.meta.media.0.stream.frame_rate">30</property>
  <property name="kdenlive:original.meta.media.0.stream.sample_aspect_ratio">1</property>
  <property name="kdenlive:original.meta.media.0.codec.width">1920</property>
  <property name="kdenlive:original.meta.media.0.codec.height">1080</property>
  <property name="kdenlive:original.meta.media.0.codec.rotate">0</property>
  <property name="kdenlive:original.meta.media.0.codec.frame_rate">30</property>
  <property name="kdenlive:original.meta.media.0.codec.pix_fmt">yuv420p</property>
  <property name="kdenlive:original.meta.media.0.codec.sample_aspect_ratio">1</property>
  <property name="kdenlive:original.meta.media.0.codec.colorspace">709</property>
  <property name="kdenlive:original.meta.media.0.codec.color_trc">1</property>
  <property name="kdenlive:original.meta.media.0.codec.name">h264</property>
  <property name="kdenlive:original.meta.media.0.codec.long_name">H.264 / AVC / MPEG-4 AVC / MPEG-4 part 10</property>
  <property name="kdenlive:original.meta.media.0.codec.bit_rate">12046954</property>
  <property name="kdenlive:original.meta.attr.0.stream.handler_name.markup">VideoHandler</property>
  <property name="kdenlive:original.meta.attr.major_brand.markup">isom</property>
  <property name="kdenlive:original.meta.attr.minor_version.markup">512</property>
  <property name="kdenlive:original.meta.attr.compatible_brands.markup">isomiso2avc1mp41</property>
  <property name="kdenlive:original.meta.attr.encoder.markup">Lavf58.45.100</property>
  <property name="kdenlive:original.width">1920</property>
  <property name="kdenlive:original.height">1080</property>
  <property name="kdenlive:original.meta.media.sample_aspect_num">1</property>
  <property name="kdenlive:original.meta.media.sample_aspect_den">1</property>
  <property name="kdenlive:original.meta.media.frame_rate_num">30</property>
  <property name="kdenlive:original.meta.media.frame_rate_den">1</property>
  <property name="kdenlive:original.meta.media.colorspace">709</property>
  <property name="kdenlive:original.meta.media.color_trc">1</property>
  <property name="kdenlive:original.meta.media.width">1920</property>
  <property name="kdenlive:original.meta.media.height">1080</property>
  <property name="kdenlive:original.meta.media.color_range">mpeg</property>
  <property name="kdenlive:original.meta.media.top_field_first">0</property>
  <property name="kdenlive:original.meta.media.progressive">1</property>
  <property name="kdenlive:original.backup">1</property>
  <property name="xml">was here</property>
  <property name="meta.media.nb_streams">1</property>
  <property name="meta.media.0.stream.type">video</property>
  <property name="meta.media.0.stream.frame_rate">30</property>
  <property name="meta.media.0.stream.sample_aspect_ratio">1</property>
  <property name="meta.media.0.codec.width">960</property>
  <property name="meta.media.0.codec.height">540</property>
  <property name="meta.media.0.codec.rotate">0</property>
  <property name="meta.media.0.codec.frame_rate">1000</property>
  <property name="meta.media.0.codec.pix_fmt">yuvj420p</property>
  <property name="meta.media.0.codec.sample_aspect_ratio">1</property>
  <property name="meta.media.0.codec.colorspace">601</property>
  <property name="meta.media.0.codec.name">mjpeg</property>
  <property name="meta.media.0.codec.long_name">MJPEG (Motion JPEG)</property>
  <property name="meta.media.0.codec.bit_rate">0</property>
  <property name="meta.attr.0.stream.HANDLER_NAME.markup">VideoHandler</property>
  <property name="meta.attr.0.stream.ENCODER.markup">Lavc58.91.100 mjpeg</property>
  <property name="meta.attr.0.stream.DURATION.markup">00:00:08.933000000</property>
  <property name="meta.attr.COMPATIBLE_BRANDS.markup">isomiso2avc1mp41</property>
  <property name="meta.attr.MAJOR_BRAND.markup">isom</property>
  <property name="meta.attr.MINOR_VERSION.markup">512</property>
  <property name="meta.attr.ENCODER.markup">Lavf58.45.100</property>
  <property name="meta.media.sample_aspect_num">1</property>
  <property name="meta.media.sample_aspect_den">1</property>
  <property name="meta.media.frame_rate_num">30</property>
  <property name="meta.media.frame_rate_den">1</property>
  <property name="meta.media.colorspace">601</property>
  <property name="meta.media.color_trc">2</property>
  <property name="meta.media.width">960</property>
  <property name="meta.media.height">540</property>
  <property name="meta.media.color_range">full</property>
  <property name="meta.media.top_field_first">0</property>
  <property name="meta.media.progressive">1</property>
  <property name="set.test_audio">1</property>
  <property name="set.test_image">0</property>
 </producer>
 <producer id="producer171" in="00:00:00.000" out="00:00:08.933">
  <property name="length">269</property>
  <property name="eof">pause</property>
  <property name="resource">/home/ryankelln/.cache/kdenlive/proxy/69fb340fe8933aedb19b089626a15e02.mkv</property>
  <property name="audio_index">-1</property>
  <property name="video_index">0</property>
  <property name="mute_on_pause">0</property>
  <property name="mlt_service">avformat-novalidate</property>
  <property name="seekable">1</property>
  <property name="aspect_ratio">1</property>
  <property name="kdenlive:clipname">garage.mp4</property>
  <property name="kdenlive:folderid">149</property>
  <property name="kdenlive:id">161</property>
  <property name="kdenlive:file_size">12238431</property>
  <property name="kdenlive:file_hash">69fb340fe8933aedb19b089626a15e02</property>
  <property name="kdenlive:proxy">/home/ryankelln/.cache/kdenlive/proxy/69fb340fe8933aedb19b089626a15e02.mkv</property>
  <property name="kdenlive:originalurl">content/prerendered/garage.mp4</property>
  <property name="kdenlive:original.mlt_type">producer</property>
  <property name="kdenlive:original.in">0</property>
  <property name="kdenlive:original.out">268</property>
  <property name="kdenlive:original.length">269</property>
  <property name="kdenlive:original.eof">pause</property>
  <property name="kdenlive:original.resource">content/prerendered/garage.mp4</property>
  <property name="kdenlive:original.meta.media.nb_streams">1</property>
  <property name="kdenlive:original.meta.media.0.stream.type">video</property>
  <property name="kdenlive:original.meta.media.0.stream.frame_rate">30</property>
  <property name="kdenlive:original.meta.media.0.stream.sample_aspect_ratio">1</property>
  <property name="kdenlive:original.meta.media.0.codec.width">1920</property>
  <property name="kdenlive:original.meta.media.0.codec.height">1080</property>
  <property name="kdenlive:original.meta.media.0.codec.rotate">0</property>
  <property name="kdenlive:original.meta.media.0.codec.frame_rate">30</property>
  <property name="kdenlive:original.meta.media.0.codec.pix_fmt">yuv420p</property>
  <property name="kdenlive:original.meta.media.0.codec.sample_aspect_ratio">1</property>
  <property name="kdenlive:original.meta.media.0.codec.colorspace">709</property>
  <property name="kdenlive:original.meta.media.0.codec.color_trc">1</property>
  <property name="kdenlive:original.meta.media.0.codec.name">h264</property>
  <property name="kdenlive:original.meta.media.0.codec.long_name">H.264 / AVC / MPEG-4 AVC / MPEG-4 part 10</property>
  <property name="kdenlive:original.meta.media.0.codec.bit_rate">10915699</property>
  <property name="kdenlive:original.meta.attr.0.stream.handler_name.markup">VideoHandler</property>
  <property name="kdenlive:original.meta.attr.major_brand.markup">isom</property>
  <property name="kdenlive:original.meta.attr.minor_version.markup">512</property>
  <property name="kdenlive:original.meta.attr.compatible_brands.markup">isomiso2avc1mp41</property>
  <property name="kdenlive:original.meta.attr.encoder.markup">Lavf58.45.100</property>
  <property name="kdenlive:original.seekable">1</property>
  <property name="kdenlive:original.width">1920</property>
  <property name="kdenlive:original.height">1080</property>
  <property name="kdenlive:original.meta.media.sample_aspect_num">1</property>
  <property name="kdenlive:original.meta.media.sample_aspect_den">1</property>
  <property name="kdenlive:original.aspect_ratio">1</property>
  <property name="kdenlive:original.audio_index">-1</property>
  <property name="kdenlive:original.video_index">0</property>
  <property name="kdenlive:original.mute_on_pause">0</property>
  <property name="kdenlive:original.mlt_service">avformat-novalidate</property>
  <property name="kdenlive:original.kdenlive:folderid">149</property>
  <property name="kdenlive:original.meta.media.frame_rate_num">30</property>
  <property name="kdenlive:original.meta.media.frame_rate_den">1</property>
  <property name="kdenlive:original.meta.media.colorspace">709</property>
  <property name="kdenlive:original.meta.media.color_trc">1</property>
  <property name="kdenlive:original.meta.media.width">1920</property>
  <property name="kdenlive:original.meta.media.height">1080</property>
  <property name="kdenlive:original.meta.media.color_range">mpeg</property>
  <property name="kdenlive:original.kdenlive:id">161</property>
  <property name="kdenlive:original.kdenlive:file_size">12238431</property>
  <property name="kdenlive:original.kdenlive:file_hash">69fb340fe8933aedb19b089626a15e02</property>
  <property name="kdenlive:original.backup">1</property>
  <property name="global_feed">1</property>
  <property name="xml">was here</property>
  <property name="meta.media.nb_streams">1</property>
  <property name="meta.media.0.stream.type">video</property>
  <property name="meta.media.0.stream.frame_rate">30</property>
  <property name="meta.media.0.stream.sample_aspect_ratio">1</property>
  <property name="meta.media.0.codec.width">960</property>
  <property name="meta.media.0.codec.height">540</property>
  <property name="meta.media.0.codec.rotate">0</property>
  <property name="meta.media.0.codec.frame_rate">1000</property>
  <property name="meta.media.0.codec.pix_fmt">yuvj420p</property>
  <property name="meta.media.0.codec.sample_aspect_ratio">1</property>
  <property name="meta.media.0.codec.colorspace">601</property>
  <property name="meta.media.0.codec.name">mjpeg</property>
  <property name="meta.media.0.codec.long_name">MJPEG (Motion JPEG)</property>
  <property name="meta.media.0.codec.bit_rate">0</property>
  <property name="meta.attr.0.stream.HANDLER_NAME.markup">VideoHandler</property>
  <property name="meta.attr.0.stream.ENCODER.markup">Lavc58.91.100 mjpeg</property>
  <property name="meta.attr.0.stream.DURATION.markup">00:00:08.966000000</property>
  <property name="meta.attr.COMPATIBLE_BRANDS.markup">isomiso2avc1mp41</property>
  <property name="meta.attr.MAJOR_BRAND.markup">isom</property>
  <property name="meta.attr.MINOR_VERSION.markup">512</property>
  <property name="meta.attr.ENCODER.markup">Lavf58.45.100</property>
  <property name="meta.media.sample_aspect_num">1</property>
  <property name="meta.media.sample_aspect_den">1</property>
  <property name="meta.media.frame_rate_num">30</property>
  <property name="meta.media.frame_rate_den">1</property>
  <property name="meta.media.colorspace">601</property>
  <property name="meta.media.color_trc">2</property>
  <property name="meta.media.width">960</property>
  <property name="meta.media.height">540</property>
  <property name="meta.media.color_range">full</property>
  <property name="meta.media.top_field_first">0</property>
  <property name="meta.media.progressive">1</property>
  <property name="set.test_audio">1</property>
  <property name="set.test_image">0</property>
 </producer>
 <playlist id="playlist16">
  <blank length="00:01:02.733"/>
  <entry producer="producer169" in="00:00:00.000" out="00:00:03.867">
   <property name="kdenlive:id">155</property>
  </entry>
  <blank length="00:00:02.833"/>
  <entry producer="producer170" in="00:00:00.000" out="00:00:07.967">
   <property name="kdenlive:id">159</property>
  </entry>
  <blank length="00:00:04.833"/>
  <entry producer="producer171" in="00:00:00.000" out="00:00:08.233">
   <property name="kdenlive:id">161</property>
   <property name="kdenlive:activeeffect">-1</property>
  </entry>
 </playlist>
 <playlist id="playlist17"/>
 <tractor id="tractor8" in="00:00:00.000" out="00:01:30.533">
  <property name="kdenlive:track_name">prerendered2</property>
  <property name="kdenlive:trackheight">69</property>
  <property name="kdenlive:timeline_active">1</property>
  <track hide="audio" producer="playlist16"/>
  <track producer="playlist17"/>
 </tractor>
 <producer id="producer172" in="00:00:00.000" out="00:01:34.067">
  <property name="length">2823</property>
  <property name="eof">pause</property>
  <property name="resource">content/musicians/2021-06-02_143431_Sarah_kit+handheld_suzy-take1_beginning.mp4</property>
  <property name="audio_index">1</property>
  <property name="video_index">0</property>
  <property name="mute_on_pause">0</property>
  <property name="mlt_service">avformat-novalidate</property>
  <property name="seekable">1</property>
  <property name="aspect_ratio">1</property>
  <property name="kdenlive:clipname"/>
  <property name="kdenlive:folderid">103</property>
  <property name="kdenlive:id">70</property>
  <property name="kdenlive:file_size">297842108</property>
  <property name="kdenlive:file_hash">04a9c6995c6e373f2f06c73872698831</property>
  <property name="kdenlive:audio_max">4</property>
  <property name="global_feed">1</property>
  <property name="xml">was here</property>
  <property name="meta.media.nb_streams">2</property>
  <property name="meta.media.0.stream.type">video</property>
  <property name="meta.media.0.stream.frame_rate">59.9401</property>
  <property name="meta.media.0.stream.sample_aspect_ratio">1</property>
  <property name="meta.media.0.codec.width">1920</property>
  <property name="meta.media.0.codec.height">1080</property>
  <property name="meta.media.0.codec.rotate">0</property>
  <property name="meta.media.0.codec.frame_rate">59.9401</property>
  <property name="meta.media.0.codec.pix_fmt">yuv420p</property>
  <property name="meta.media.0.codec.sample_aspect_ratio">1</property>
  <property name="meta.media.0.codec.colorspace">709</property>
  <property name="meta.media.0.codec.name">h264</property>
  <property name="meta.media.0.codec.long_name">H.264 / AVC / MPEG-4 AVC / MPEG-4 part 10</property>
  <property name="meta.media.0.codec.bit_rate">24866432</property>
  <property name="meta.attr.0.stream.handler_name.markup">VideoHandler</property>
  <property name="meta.media.1.stream.type">audio</property>
  <property name="meta.media.1.codec.sample_fmt">fltp</property>
  <property name="meta.media.1.codec.sample_rate">48000</property>
  <property name="meta.media.1.codec.channels">6</property>
  <property name="meta.media.1.codec.name">ac3</property>
  <property name="meta.media.1.codec.long_name">ATSC A/52A (AC-3)</property>
  <property name="meta.media.1.codec.bit_rate">448000</property>
  <property name="meta.attr.1.stream.handler_name.markup">SoundHandler</property>
  <property name="meta.attr.major_brand.markup">isom</property>
  <property name="meta.attr.minor_version.markup">512</property>
  <property name="meta.attr.compatible_brands.markup">isomiso2avc1mp41</property>
  <property name="meta.attr.encoder.markup">Lavf58.45.100</property>
  <property name="meta.media.sample_aspect_num">1</property>
  <property name="meta.media.sample_aspect_den">1</property>
  <property name="meta.media.frame_rate_num">507600000</property>
  <property name="meta.media.frame_rate_den">8468459</property>
  <property name="meta.media.colorspace">709</property>
  <property name="meta.media.color_trc">2</property>
  <property name="meta.media.width">1920</property>
  <property name="meta.media.height">1080</property>
  <property name="meta.media.color_range">mpeg</property>
  <property name="meta.media.top_field_first">0</property>
  <property name="meta.media.progressive">1</property>
  <property name="set.test_audio">1</property>
  <property name="set.test_image">1</property>
 </producer>
 <producer id="producer173" in="00:00:00.000" out="00:03:57.733">
  <property name="length">7133</property>
  <property name="eof">pause</property>
  <property name="resource">/home/ryankelln/.cache/kdenlive/proxy/07089876326ddc1ceee00d33cebf490a.mkv</property>
  <property name="audio_index">1</property>
  <property name="video_index">0</property>
  <property name="mute_on_pause">0</property>
  <property name="mlt_service">avformat-novalidate</property>
  <property name="seekable">1</property>
  <property name="aspect_ratio">1</property>
  <property name="kdenlive:clipname">2021-06-02_143621_Sarah_kit+handheld_suzy-take1_swing.mp4</property>
  <property name="kdenlive:folderid">103</property>
  <property name="kdenlive:id">99</property>
  <property name="kdenlive:file_size">793706496</property>
  <property name="kdenlive:file_hash">07089876326ddc1ceee00d33cebf490a</property>
  <property name="kdenlive:proxy">/home/ryankelln/.cache/kdenlive/proxy/07089876326ddc1ceee00d33cebf490a.mkv</property>
  <property name="kdenlive:originalurl">/media/storage/media/Videos/mine/music_landscapes/2021-06-02_recording/Sony AVCHD/2021-06-02_143621_Sarah_kit+handheld_suzy.m2ts</property>
  <property name="kdenlive:original.mlt_type">producer</property>
  <property name="kdenlive:original.in">0</property>
  <property name="kdenlive:original.out">7132</property>
  <property name="kdenlive:original.length">7133</property>
  <property name="kdenlive:original.eof">pause</property>
  <property name="kdenlive:original.resource">/media/storage/media/Videos/mine/music_landscapes/2021-06-02_recording/Sony AVCHD/2021-06-02_143621_Sarah_kit+handheld_suzy.m2ts</property>
  <property name="kdenlive:original.meta.media.nb_streams">3</property>
  <property name="kdenlive:original.meta.media.0.stream.type">video</property>
  <property name="kdenlive:original.meta.media.0.stream.frame_rate">59.9401</property>
  <property name="kdenlive:original.meta.media.0.stream.sample_aspect_ratio">0</property>
  <property name="kdenlive:original.meta.media.0.codec.width">1920</property>
  <property name="kdenlive:original.meta.media.0.codec.height">1080</property>
  <property name="kdenlive:original.meta.media.0.codec.rotate">0</property>
  <property name="kdenlive:original.meta.media.0.codec.frame_rate">59.9401</property>
  <property name="kdenlive:original.meta.media.0.codec.pix_fmt">yuv420p</property>
  <property name="kdenlive:original.meta.media.0.codec.sample_aspect_ratio">1</property>
  <property name="kdenlive:original.meta.media.0.codec.colorspace">709</property>
  <property name="kdenlive:original.meta.media.0.codec.name">h264</property>
  <property name="kdenlive:original.meta.media.0.codec.long_name">H.264 / AVC / MPEG-4 AVC / MPEG-4 part 10</property>
  <property name="kdenlive:original.meta.media.0.codec.bit_rate">0</property>
  <property name="kdenlive:original.meta.media.1.stream.type">audio</property>
  <property name="kdenlive:original.meta.media.1.codec.sample_fmt">fltp</property>
  <property name="kdenlive:original.meta.media.1.codec.sample_rate">48000</property>
  <property name="kdenlive:original.meta.media.1.codec.channels">6</property>
  <property name="kdenlive:original.meta.media.1.codec.name">ac3</property>
  <property name="kdenlive:original.meta.media.1.codec.long_name">ATSC A/52A (AC-3)</property>
  <property name="kdenlive:original.meta.media.1.codec.bit_rate">448000</property>
  <property name="kdenlive:original.meta.media.2.codec.name">pgssub</property>
  <property name="kdenlive:original.meta.media.2.codec.long_name">HDMV Presentation Graphic Stream subtitles</property>
  <property name="kdenlive:original.meta.media.2.codec.bit_rate">0</property>
  <property name="kdenlive:original.seekable">1</property>
  <property name="kdenlive:original.width">1920</property>
  <property name="kdenlive:original.height">1080</property>
  <property name="kdenlive:original.meta.media.sample_aspect_num">1</property>
  <property name="kdenlive:original.meta.media.sample_aspect_den">1</property>
  <property name="kdenlive:original.aspect_ratio">1</property>
  <property name="kdenlive:original.audio_index">1</property>
  <property name="kdenlive:original.video_index">0</property>
  <property name="kdenlive:original.mute_on_pause">0</property>
  <property name="kdenlive:original.mlt_service">avformat-novalidate</property>
  <property name="kdenlive:original.kdenlive:folderid">103</property>
  <property name="kdenlive:original.meta.media.frame_rate_num">60000</property>
  <property name="kdenlive:original.meta.media.frame_rate_den">1001</property>
  <property name="kdenlive:original.meta.media.colorspace">709</property>
  <property name="kdenlive:original.meta.media.color_trc">2</property>
  <property name="kdenlive:original.meta.media.width">1920</property>
  <property name="kdenlive:original.meta.media.height">1080</property>
  <property name="kdenlive:original.meta.media.color_range">mpeg</property>
  <property name="kdenlive:original.kdenlive:id">119</property>
  <property name="kdenlive:original.kdenlive:file_size">793706496</property>
  <property name="kdenlive:original.kdenlive:file_hash">07089876326ddc1ceee00d33cebf490a</property>
  <property name="kdenlive:original.backup">1</property>
  <property name="kdenlive:audio_max">4</property>
  <property name="global_feed">1</property>
  <property name="kdenlive:activeeffect">2</property>
  <property name="xml">was here</property>
  <property name="meta.media.nb_streams">2</property>
  <property name="meta.media.0.stream.type">video</property>
  <property name="meta.media.0.stream.frame_rate">59.9401</property>
  <property name="meta.media.0.stream.sample_aspect_ratio">1</property>
  <property name="meta.media.0.codec.width">960</property>
  <property name="meta.media.0.codec.height">540</property>
  <property name="meta.media.0.codec.rotate">0</property>
  <property name="meta.media.0.codec.frame_rate">1000</property>
  <property name="meta.media.0.codec.pix_fmt">yuvj420p</property>
  <property name="meta.media.0.codec.sample_aspect_ratio">1</property>
  <property name="meta.media.0.codec.colorspace">601</property>
  <property name="meta.media.0.codec.name">mjpeg</property>
  <property name="meta.media.0.codec.long_name">MJPEG (Motion JPEG)</property>
  <property name="meta.media.0.codec.bit_rate">0</property>
  <property name="meta.attr.0.stream.ENCODER.markup">Lavc58.91.100 mjpeg</property>
  <property name="meta.attr.0.stream.DURATION.markup">00:03:57.738000000</property>
  <property name="meta.media.1.stream.type">audio</property>
  <property name="meta.media.1.codec.sample_fmt">s16</property>
  <property name="meta.media.1.codec.sample_rate">48000</property>
  <property name="meta.media.1.codec.channels">6</property>
  <property name="meta.media.1.codec.name">pcm_s16le</property>
  <property name="meta.media.1.codec.long_name">PCM signed 16-bit little-endian</property>
  <property name="meta.media.1.codec.bit_rate">4608000</property>
  <property name="meta.attr.1.stream.ENCODER.markup">Lavc58.91.100 pcm_s16le</property>
  <property name="meta.attr.1.stream.DURATION.markup">00:03:57.760000000</property>
  <property name="meta.attr.ENCODER.markup">Lavf58.45.100</property>
  <property name="meta.media.sample_aspect_num">1</property>
  <property name="meta.media.sample_aspect_den">1</property>
  <property name="meta.media.frame_rate_num">19001</property>
  <property name="meta.media.frame_rate_den">317</property>
  <property name="meta.media.colorspace">601</property>
  <property name="meta.media.color_trc">2</property>
  <property name="meta.media.width">960</property>
  <property name="meta.media.height">540</property>
  <property name="meta.media.color_range">full</property>
  <property name="meta.media.top_field_first">0</property>
  <property name="meta.media.progressive">1</property>
  <property name="set.test_audio">1</property>
  <property name="set.test_image">1</property>
  <filter id="filter155">
   <property name="version">0.1</property>
   <property name="mlt_service">frei0r.hqdn3d</property>
   <property name="kdenlive_id">frei0r.hqdn3d</property>
   <property name="Spatial">00:00:00.000=0.01</property>
   <property name="Temporal">00:00:00.000=0.01</property>
   <property name="kdenlive:collapsed">0</property>
  </filter>
  <filter id="filter157">
   <property name="version">0.6</property>
   <property name="mlt_service">frei0r.select0r</property>
   <property name="kdenlive_id">frei0r.select0r</property>
   <property name="Color to select">0x17863cff</property>
   <property name="Invert selection">1</property>
   <property name="Selection subspace">1</property>
   <property name="Subspace shape">0</property>
   <property name="Edge mode">0.9</property>
   <property name="Delta R / A / Hue">00:00:00.000=0.033</property>
   <property name="Delta G / B / Chroma">00:00:00.000=0.169</property>
   <property name="Delta B / I / I">00:00:00.000=0.219</property>
   <property name="Slope">00:00:00.000=0.1</property>
   <property name="Operation">0.5</property>
   <property name="kdenlive:collapsed">0</property>
  </filter>
  <filter id="filter158">
   <property name="mlt_service">avfilter.despill</property>
   <property name="kdenlive_id">avfilter.despill</property>
   <property name="av.type">green</property>
   <property name="av.mix">0.182</property>
   <property name="av.expand">0.032</property>
   <property name="av.red">0</property>
   <property name="av.green">-0.9</property>
   <property name="av.blue">-0.6</property>
   <property name="av.brightness">0</property>
   <property name="kdenlive:collapsed">0</property>
  </filter>
  <filter id="filter159">
   <property name="version">0.1</property>
   <property name="mlt_service">frei0r.hqdn3d</property>
   <property name="kdenlive_id">frei0r.hqdn3d</property>
   <property name="Spatial">00:00:00.000=0.01</property>
   <property name="Temporal">00:00:00.000=0.01</property>
  </filter>
  <filter id="filter160">
   <property name="version">0.6</property>
   <property name="mlt_service">frei0r.select0r</property>
   <property name="kdenlive_id">frei0r.select0r</property>
   <property name="Color to select">0x17863cff</property>
   <property name="Invert selection">1</property>
   <property name="Selection subspace">1</property>
   <property name="Subspace shape">0</property>
   <property name="Edge mode">0.9</property>
   <property name="Delta R / A / Hue">00:00:00.000=0.033</property>
   <property name="Delta G / B / Chroma">00:00:00.000=0.169</property>
   <property name="Delta B / I / I">00:00:00.000=0.219</property>
   <property name="Slope">00:00:00.000=0.1</property>
   <property name="Operation">0.5</property>
  </filter>
  <filter id="filter161">
   <property name="mlt_service">avfilter.despill</property>
   <property name="kdenlive_id">avfilter.despill</property>
   <property name="av.type">green</property>
   <property name="av.mix">0.182</property>
   <property name="av.expand">0.032</property>
   <property name="av.red">0</property>
   <property name="av.green">-0.9</property>
   <property name="av.blue">-0.6</property>
   <property name="av.brightness">0</property>
  </filter>
 </producer>
 <producer id="producer174" in="00:00:00.000" out="00:03:57.733">
  <property name="length">7133</property>
  <property name="eof">pause</property>
  <property name="resource">/home/ryankelln/.cache/kdenlive/proxy/07089876326ddc1ceee00d33cebf490a.mkv</property>
  <property name="audio_index">1</property>
  <property name="video_index">0</property>
  <property name="mute_on_pause">0</property>
  <property name="mlt_service">avformat-novalidate</property>
  <property name="seekable">1</property>
  <property name="aspect_ratio">1</property>
  <property name="kdenlive:clipname">2021-06-02_143621_Sarah_kit+handheld_suzy-take1_swing.mp4</property>
  <property name="kdenlive:folderid">103</property>
  <property name="kdenlive:id">99</property>
  <property name="kdenlive:file_size">793706496</property>
  <property name="kdenlive:file_hash">07089876326ddc1ceee00d33cebf490a</property>
  <property name="kdenlive:proxy">/home/ryankelln/.cache/kdenlive/proxy/07089876326ddc1ceee00d33cebf490a.mkv</property>
  <property name="kdenlive:originalurl">/media/storage/media/Videos/mine/music_landscapes/2021-06-02_recording/Sony AVCHD/2021-06-02_143621_Sarah_kit+handheld_suzy.m2ts</property>
  <property name="kdenlive:original.mlt_type">producer</property>
  <property name="kdenlive:original.in">0</property>
  <property name="kdenlive:original.out">7132</property>
  <property name="kdenlive:original.length">7133</property>
  <property name="kdenlive:original.eof">pause</property>
  <property name="kdenlive:original.resource">/media/storage/media/Videos/mine/music_landscapes/2021-06-02_recording/Sony AVCHD/2021-06-02_143621_Sarah_kit+handheld_suzy.m2ts</property>
  <property name="kdenlive:original.meta.media.nb_streams">3</property>
  <property name="kdenlive:original.meta.media.0.stream.type">video</property>
  <property name="kdenlive:original.meta.media.0.stream.frame_rate">59.9401</property>
  <property name="kdenlive:original.meta.media.0.stream.sample_aspect_ratio">0</property>
  <property name="kdenlive:original.meta.media.0.codec.width">1920</property>
  <property name="kdenlive:original.meta.media.0.codec.height">1080</property>
  <property name="kdenlive:original.meta.media.0.codec.rotate">0</property>
  <property name="kdenlive:original.meta.media.0.codec.frame_rate">59.9401</property>
  <property name="kdenlive:original.meta.media.0.codec.pix_fmt">yuv420p</property>
  <property name="kdenlive:original.meta.media.0.codec.sample_aspect_ratio">1</property>
  <property name="kdenlive:original.meta.media.0.codec.colorspace">709</property>
  <property name="kdenlive:original.meta.media.0.codec.name">h264</property>
  <property name="kdenlive:original.meta.media.0.codec.long_name">H.264 / AVC / MPEG-4 AVC / MPEG-4 part 10</property>
  <property name="kdenlive:original.meta.media.0.codec.bit_rate">0</property>
  <property name="kdenlive:original.meta.media.1.stream.type">audio</property>
  <property name="kdenlive:original.meta.media.1.codec.sample_fmt">fltp</property>
  <property name="kdenlive:original.meta.media.1.codec.sample_rate">48000</property>
  <property name="kdenlive:original.meta.media.1.codec.channels">6</property>
  <property name="kdenlive:original.meta.media.1.codec.name">ac3</property>
  <property name="kdenlive:original.meta.media.1.codec.long_name">ATSC A/52A (AC-3)</property>
  <property name="kdenlive:original.meta.media.1.codec.bit_rate">448000</property>
  <property name="kdenlive:original.meta.media.2.codec.name">pgssub</property>
  <property name="kdenlive:original.meta.media.2.codec.long_name">HDMV Presentation Graphic Stream subtitles</property>
  <property name="kdenlive:original.meta.media.2.codec.bit_rate">0</property>
  <property name="kdenlive:original.seekable">1</property>
  <property name="kdenlive:original.width">1920</property>
  <property name="kdenlive:original.height">1080</property>
  <property name="kdenlive:original.meta.media.sample_aspect_num">1</property>
  <property name="kdenlive:original.meta.media.sample_aspect_den">1</property>
  <property name="kdenlive:original.aspect_ratio">1</property>
  <property name="kdenlive:original.audio_index">1</property>
  <property name="kdenlive:original.video_index">0</property>
  <property name="kdenlive:original.mute_on_pause">0</property>
  <property name="kdenlive:original.mlt_service">avformat-novalidate</property>
  <property name="kdenlive:original.kdenlive:folderid">103</property>
  <property name="kdenlive:original.meta.media.frame_rate_num">60000</property>
  <property name="kdenlive:original.meta.media.frame_rate_den">1001</property>
  <property name="kdenlive:original.meta.media.colorspace">709</property>
  <property name="kdenlive:original.meta.media.color_trc">2</property>
  <property name="kdenlive:original.meta.media.width">1920</property>
  <property name="kdenlive:original.meta.media.height">1080</property>
  <property name="kdenlive:original.meta.media.color_range">mpeg</property>
  <property name="kdenlive:original.kdenlive:id">119</property>
  <property name="kdenlive:original.kdenlive:file_size">793706496</property>
  <property name="kdenlive:original.kdenlive:file_hash">07089876326ddc1ceee00d33cebf490a</property>
  <property name="kdenlive:original.backup">1</property>
  <property name="kdenlive:audio_max">4</property>
  <property name="global_feed">1</property>
  <property name="kdenlive:activeeffect">2</property>
  <property name="xml">was here</property>
  <property name="meta.media.nb_streams">2</property>
  <property name="meta.media.0.stream.type">video</property>
  <property name="meta.media.0.stream.frame_rate">59.9401</property>
  <property name="meta.media.0.stream.sample_aspect_ratio">1</property>
  <property name="meta.media.0.codec.width">960</property>
  <property name="meta.media.0.codec.height">540</property>
  <property name="meta.media.0.codec.rotate">0</property>
  <property name="meta.media.0.codec.frame_rate">1000</property>
  <property name="meta.media.0.codec.pix_fmt">yuvj420p</property>
  <property name="meta.media.0.codec.sample_aspect_ratio">1</property>
  <property name="meta.media.0.codec.colorspace">601</property>
  <property name="meta.media.0.codec.name">mjpeg</property>
  <property name="meta.media.0.codec.long_name">MJPEG (Motion JPEG)</property>
  <property name="meta.media.0.codec.bit_rate">0</property>
  <property name="meta.attr.0.stream.ENCODER.markup">Lavc58.91.100 mjpeg</property>
  <property name="meta.attr.0.stream.DURATION.markup">00:03:57.738000000</property>
  <property name="meta.media.1.stream.type">audio</property>
  <property name="meta.media.1.codec.sample_fmt">s16</property>
  <property name="meta.media.1.codec.sample_rate">48000</property>
  <property name="meta.media.1.codec.channels">6</property>
  <property name="meta.media.1.codec.name">pcm_s16le</property>
  <property name="meta.media.1.codec.long_name">PCM signed 16-bit little-endian</property>
  <property name="meta.media.1.codec.bit_rate">4608000</property>
  <property name="meta.attr.1.stream.ENCODER.markup">Lavc58.91.100 pcm_s16le</property>
  <property name="meta.attr.1.stream.DURATION.markup">00:03:57.760000000</property>
  <property name="meta.attr.ENCODER.markup">Lavf58.45.100</property>
  <property name="meta.media.sample_aspect_num">1</property>
  <property name="meta.media.sample_aspect_den">1</property>
  <property name="meta.media.frame_rate_num">19001</property>
  <property name="meta.media.frame_rate_den">317</property>
  <property name="meta.media.colorspace">601</property>
  <property name="meta.media.color_trc">2</property>
  <property name="meta.media.width">960</property>
  <property name="meta.media.height">540</property>
  <property name="meta.media.color_range">full</property>
  <property name="meta.media.top_field_first">0</property>
  <property name="meta.media.progressive">1</property>
  <property name="set.test_audio">1</property>
  <property name="set.test_image">0</property>
  <filter id="filter162">
   <property name="version">0.1</property>
   <property name="mlt_service">frei0r.hqdn3d</property>
   <property name="kdenlive_id">frei0r.hqdn3d</property>
   <property name="Spatial">00:00:00.000=0.01</property>
   <property name="Temporal">00:00:00.000=0.01</property>
  </filter>
  <filter id="filter163">
   <property name="version">0.6</property>
   <property name="mlt_service">frei0r.select0r</property>
   <property name="kdenlive_id">frei0r.select0r</property>
   <property name="Color to select">0x17863cff</property>
   <property name="Invert selection">1</property>
   <property name="Selection subspace">1</property>
   <property name="Subspace shape">0</property>
   <property name="Edge mode">0.9</property>
   <property name="Delta R / A / Hue">00:00:00.000=0.033</property>
   <property name="Delta G / B / Chroma">00:00:00.000=0.169</property>
   <property name="Delta B / I / I">00:00:00.000=0.219</property>
   <property name="Slope">00:00:00.000=0.1</property>
   <property name="Operation">0.5</property>
  </filter>
  <filter id="filter164">
   <property name="mlt_service">avfilter.despill</property>
   <property name="kdenlive_id">avfilter.despill</property>
   <property name="av.type">green</property>
   <property name="av.mix">0.182</property>
   <property name="av.expand">0.032</property>
   <property name="av.red">0</property>
   <property name="av.green">-0.9</property>
   <property name="av.blue">-0.6</property>
   <property name="av.brightness">0</property>
  </filter>
 </producer>
 <producer id="producer175" in="00:00:00.000" out="00:00:13.600">
  <property name="length">409</property>
  <property name="eof">pause</property>
  <property name="resource">content/animated_paintings/summer_trees_kaleidoscope.mp4</property>
  <property name="audio_index">-1</property>
  <property name="video_index">0</property>
  <property name="mute_on_pause">0</property>
  <property name="mlt_service">avformat-novalidate</property>
  <property name="seekable">1</property>
  <property name="aspect_ratio">1</property>
  <property name="kdenlive:clipname"/>
  <property name="kdenlive:folderid">81</property>
  <property name="kdenlive:id">138</property>
  <property name="kdenlive:file_size">8052308</property>
  <property name="kdenlive:file_hash">46a915b3a782e2d8b48af85caa64e97f</property>
  <property name="kdenlive:proxy">/home/ryankelln/.cache/kdenlive/proxy/46a915b3a782e2d8b48af85caa64e97f.mkv</property>
  <property name="kdenlive:originalurl">content/animated_paintings/summer_trees_kaleidoscope.mp4</property>
  <property name="kdenlive:original.mlt_type">producer</property>
  <property name="kdenlive:original.in">0</property>
  <property name="kdenlive:original.out">408</property>
  <property name="kdenlive:original.length">409</property>
  <property name="kdenlive:original.eof">pause</property>
  <property name="kdenlive:original.resource">content/animated_paintings/summer_trees_kaleidoscope.mp4</property>
  <property name="kdenlive:original.meta.media.nb_streams">1</property>
  <property name="kdenlive:original.meta.media.0.stream.type">video</property>
  <property name="kdenlive:original.meta.media.0.stream.frame_rate">25</property>
  <property name="kdenlive:original.meta.media.0.stream.sample_aspect_ratio">0</property>
  <property name="kdenlive:original.meta.media.0.codec.width">1938</property>
  <property name="kdenlive:original.meta.media.0.codec.height">1360</property>
  <property name="kdenlive:original.meta.media.0.codec.rotate">0</property>
  <property name="kdenlive:original.meta.media.0.codec.frame_rate">25</property>
  <property name="kdenlive:original.meta.media.0.codec.pix_fmt">yuv444p</property>
  <property name="kdenlive:original.meta.media.0.codec.sample_aspect_ratio">0</property>
  <property name="kdenlive:original.meta.media.0.codec.colorspace">709</property>
  <property name="kdenlive:original.meta.media.0.codec.name">h264</property>
  <property name="kdenlive:original.meta.media.0.codec.long_name">H.264 / AVC / MPEG-4 AVC / MPEG-4 part 10</property>
  <property name="kdenlive:original.meta.media.0.codec.bit_rate">4720565</property>
  <property name="kdenlive:original.meta.attr.0.stream.handler_name.markup">VideoHandler</property>
  <property name="kdenlive:original.meta.attr.major_brand.markup">isom</property>
  <property name="kdenlive:original.meta.attr.minor_version.markup">512</property>
  <property name="kdenlive:original.meta.attr.compatible_brands.markup">isomiso2avc1mp41</property>
  <property name="kdenlive:original.meta.attr.encoder.markup">Lavf58.45.100</property>
  <property name="kdenlive:original.seekable">1</property>
  <property name="kdenlive:original.width">1938</property>
  <property name="kdenlive:original.height">1360</property>
  <property name="kdenlive:original.meta.media.sample_aspect_num">1</property>
  <property name="kdenlive:original.meta.media.sample_aspect_den">1</property>
  <property name="kdenlive:original.aspect_ratio">1</property>
  <property name="kdenlive:original.audio_index">-1</property>
  <property name="kdenlive:original.video_index">0</property>
  <property name="kdenlive:original.mute_on_pause">0</property>
  <property name="kdenlive:original.mlt_service">avformat-novalidate</property>
  <property name="kdenlive:original.kdenlive:folderid">81</property>
  <property name="kdenlive:original.meta.media.frame_rate_num">25</property>
  <property name="kdenlive:original.meta.media.frame_rate_den">1</property>
  <property name="kdenlive:original.meta.media.colorspace">709</property>
  <property name="kdenlive:original.meta.media.color_trc">2</property>
  <property name="kdenlive:original.meta.media.width">1938</property>
  <property name="kdenlive:original.meta.media.height">1360</property>
  <property name="kdenlive:original.meta.media.color_range">mpeg</property>
  <property name="kdenlive:original.kdenlive:id">160</property>
  <property name="kdenlive:original.kdenlive:file_size">8052308</property>
  <property name="kdenlive:original.kdenlive:file_hash">46a915b3a782e2d8b48af85caa64e97f</property>
  <property name="kdenlive:original.backup">1</property>
  <property name="global_feed">1</property>
  <property name="xml">was here</property>
  <property name="meta.media.nb_streams">1</property>
  <property name="meta.media.0.stream.type">video</property>
  <property name="meta.media.0.stream.frame_rate">25</property>
  <property name="meta.media.0.stream.sample_aspect_ratio">0</property>
  <property name="meta.media.0.codec.width">1938</property>
  <property name="meta.media.0.codec.height">1360</property>
  <property name="meta.media.0.codec.rotate">0</property>
  <property name="meta.media.0.codec.frame_rate">25</property>
  <property name="meta.media.0.codec.pix_fmt">yuv444p</property>
  <property name="meta.media.0.codec.sample_aspect_ratio">0</property>
  <property name="meta.media.0.codec.colorspace">709</property>
  <property name="meta.media.0.codec.name">h264</property>
  <property name="meta.media.0.codec.long_name">H.264 / AVC / MPEG-4 AVC / MPEG-4 part 10</property>
  <property name="meta.media.0.codec.bit_rate">4720565</property>
  <property name="meta.attr.0.stream.handler_name.markup">VideoHandler</property>
  <property name="meta.attr.major_brand.markup">isom</property>
  <property name="meta.attr.minor_version.markup">512</property>
  <property name="meta.attr.compatible_brands.markup">isomiso2avc1mp41</property>
  <property name="meta.attr.encoder.markup">Lavf58.45.100</property>
  <property name="meta.media.sample_aspect_num">1</property>
  <property name="meta.media.sample_aspect_den">1</property>
  <property name="meta.media.frame_rate_num">25</property>
  <property name="meta.media.frame_rate_den">1</property>
  <property name="meta.media.colorspace">709</property>
  <property name="meta.media.color_trc">2</property>
  <property name="meta.media.width">1938</property>
  <property name="meta.media.height">1360</property>
  <property name="meta.media.color_range">mpeg</property>
  <property name="meta.media.top_field_first">0</property>
  <property name="meta.media.progressive">1</property>
  <property name="set.test_audio">1</property>
  <property name="set.test_image">0</property>
 </producer>
 <producer id="producer176" in="00:00:00.000" out="00:00:02.633">
  <property name="length">80</property>
  <property name="eof">pause</property>
  <property name="resource">content/animated_paintings/fall_fence_timelapse_4.mp4</property>
  <property name="audio_index">-1</property>
  <property name="video_index">0</property>
  <property name="mute_on_pause">0</property>
  <property name="mlt_service">avformat-novalidate</property>
  <property name="seekable">1</property>
  <property name="aspect_ratio">1</property>
  <property name="kdenlive:clipname"/>
  <property name="kdenlive:folderid">81</property>
  <property name="kdenlive:id">123</property>
  <property name="kdenlive:file_size">95384</property>
  <property name="kdenlive:file_hash">1a667b4ce58d0ae2457b8ddcc7bb0c63</property>
  <property name="global_feed">1</property>
  <property name="xml">was here</property>
  <property name="meta.media.nb_streams">1</property>
  <property name="meta.media.0.stream.type">video</property>
  <property name="meta.media.0.stream.frame_rate">15</property>
  <property name="meta.media.0.stream.sample_aspect_ratio">0</property>
  <property name="meta.media.0.codec.width">250</property>
  <property name="meta.media.0.codec.height">250</property>
  <property name="meta.media.0.codec.rotate">0</property>
  <property name="meta.media.0.codec.frame_rate">15</property>
  <property name="meta.media.0.codec.pix_fmt">yuv420p</property>
  <property name="meta.media.0.codec.sample_aspect_ratio">1</property>
  <property name="meta.media.0.codec.colorspace">601</property>
  <property name="meta.media.0.codec.name">mpeg4</property>
  <property name="meta.media.0.codec.long_name">MPEG-4 part 2</property>
  <property name="meta.media.0.codec.bit_rate">282990</property>
  <property name="meta.attr.0.stream.handler_name.markup">VideoHandler</property>
  <property name="meta.attr.major_brand.markup">isom</property>
  <property name="meta.attr.minor_version.markup">512</property>
  <property name="meta.attr.compatible_brands.markup">isomiso2mp41</property>
  <property name="meta.attr.encoder.markup">Lavf58.61.100</property>
  <property name="meta.media.sample_aspect_num">1</property>
  <property name="meta.media.sample_aspect_den">1</property>
  <property name="meta.media.frame_rate_num">15</property>
  <property name="meta.media.frame_rate_den">1</property>
  <property name="meta.media.colorspace">601</property>
  <property name="meta.media.color_trc">2</property>
  <property name="meta.media.width">250</property>
  <property name="meta.media.height">250</property>
  <property name="meta.media.color_range">mpeg</property>
  <property name="meta.media.top_field_first">0</property>
  <property name="meta.media.progressive">1</property>
  <property name="set.test_audio">1</property>
  <property name="set.test_image">0</property>
 </producer>
 <producer id="producer177" in="00:00:00.000" out="00:00:39.733">
  <property name="length">1193</property>
  <property name="eof">pause</property>
  <property name="resource">content/consingan_paintings/fall_fence_1.mp4</property>
  <property name="audio_index">-1</property>
  <property name="video_index">0</property>
  <property name="mute_on_pause">0</property>
  <property name="mlt_service">avformat-novalidate</property>
  <property name="seekable">1</property>
  <property name="aspect_ratio">1</property>
  <property name="kdenlive:clipname">fall_fence_1.mp4</property>
  <property name="kdenlive:folderid">31</property>
  <property name="kdenlive:id">34</property>
  <property name="kdenlive:file_size">7498621</property>
  <property name="global_feed">1</property>
  <property name="kdenlive:file_hash">ec641a1dcd886a97d6745e190970c512</property>
  <property name="xml">was here</property>
  <property name="meta.media.nb_streams">1</property>
  <property name="meta.media.0.stream.type">video</property>
  <property name="meta.media.0.stream.frame_rate">30</property>
  <property name="meta.media.0.stream.sample_aspect_ratio">0</property>
  <property name="meta.media.0.codec.width">944</property>
  <property name="meta.media.0.codec.height">720</property>
  <property name="meta.media.0.codec.rotate">0</property>
  <property name="meta.media.0.codec.frame_rate">30</property>
  <property name="meta.media.0.codec.pix_fmt">yuv420p</property>
  <property name="meta.media.0.codec.sample_aspect_ratio">0</property>
  <property name="meta.media.0.codec.colorspace">601</property>
  <property name="meta.media.0.codec.name">h264</property>
  <property name="meta.media.0.codec.long_name">H.264 / AVC / MPEG-4 AVC / MPEG-4 part 10</property>
  <property name="meta.media.0.codec.bit_rate">1505456</property>
  <property name="meta.attr.0.stream.handler_name.markup">VideoHandler</property>
  <property name="meta.attr.major_brand.markup">isom</property>
  <property name="meta.attr.minor_version.markup">512</property>
  <property name="meta.attr.compatible_brands.markup">isomiso2avc1mp41</property>
  <property name="meta.attr.encoder.markup">Lavf58.29.100</property>
  <property name="meta.media.sample_aspect_num">1</property>
  <property name="meta.media.sample_aspect_den">1</property>
  <property name="meta.media.frame_rate_num">30</property>
  <property name="meta.media.frame_rate_den">1</property>
  <property name="meta.media.colorspace">601</property>
  <property name="meta.media.color_trc">2</property>
  <property name="meta.media.width">944</property>
  <property name="meta.media.height">720</property>
  <property name="meta.media.color_range">mpeg</property>
  <property name="meta.media.top_field_first">0</property>
  <property name="meta.media.progressive">1</property>
  <property name="set.test_audio">1</property>
  <property name="set.test_image">0</property>
 </producer>
 <playlist id="playlist18">
  <blank length="00:00:11.300"/>
  <entry producer="producer172" in="00:00:00.000" out="00:01:33.267">
   <property name="kdenlive:id">70</property>
   <filter id="filter308">
    <property name="rotate_center">1</property>
    <property name="mlt_service">qtblend</property>
    <property name="kdenlive_id">qtblend</property>
    <property name="rect">00:00:00.000=0 0 1920 1080 1.000000</property>
    <property name="rotation">00:00:00.000=0</property>
    <property name="compositing">0</property>
    <property name="distort">0</property>
    <property name="kdenlive:collapsed">0</property>
   </filter>
  </entry>
  <blank length="00:00:17.000"/>
  <entry producer="producer173" in="00:00:00.000" out="00:00:49.500">
   <property name="kdenlive:id">99</property>
  </entry>
  <entry producer="producer174" in="00:00:49.533" out="00:00:53.633">
   <property name="kdenlive:id">99</property>
  </entry>
  <entry producer="producer173" in="00:00:53.667" out="00:01:11.967">
   <property name="kdenlive:id">99</property>
  </entry>
  <entry producer="producer173" in="00:01:12.000" out="00:01:19.500">
   <property name="kdenlive:id">99</property>
   <filter id="filter311" in="00:01:18.100" out="00:01:19.500">
    <property name="start">1</property>
    <property name="mlt_service">brightness</property>
    <property name="kdenlive_id">fade_to_black</property>
    <property name="end">0</property>
    <property name="alpha">-1</property>
    <property name="kdenlive:collapsed">0</property>
   </filter>
   <filter id="filter312">
    <property name="mode">alpha</property>
    <property name="alpha_operation">sub</property>
    <property name="invert">0</property>
    <property name="feather">40</property>
    <property name="feather_passes">1</property>
    <property name="mlt_service">rotoscoping</property>
    <property name="kdenlive_id">rotoscoping</property>
    <property name="spline">{
    "2160": [
        [
            [
                1.1109014675052409,
                0.5380597014925371
            ],
            [
                1.0828092243186582,
                0.7798507462686568
            ],
            [
                1.0589098532494758,
                0.7447761194029852
            ]
        ],
        [
            [
                1.0283018867924527,
                0.7052238805970149
            ],
            [
                0.9549266247379454,
                0.6679104477611941
            ],
            [
                0.9276729559748428,
                0.6634328358208956
            ]
        ],
        [
            [
                0.8417190775681341,
                0.6537313432835821
            ],
            [
                0.8144654088050314,
                0.6492537313432836
            ],
            [
                0.7985324947589097,
                0.6544776119402985
            ]
        ],
        [
            [
                0.7507337526205451,
                0.6701492537313433
            ],
            [
                0.7348008385744235,
                0.6753731343283582
            ],
            [
                0.7318658280922431,
                0.6425373134328358
            ]
        ],
        [
            [
                0.7230607966457023,
                0.5440298507462686
            ],
            [
                0.720125786163522,
                0.5111940298507462
            ],
            [
                0.7117400419287211,
                0.4141791044776119
            ]
        ],
        [
            [
                0.670859538784067,
                0.4104477611940298
            ],
            [
                0.6362683438155137,
                0.3843283582089552
            ],
            [
                0.619916142557652,
                0.3783582089552239
            ]
        ],
        [
            [
                0.570859538784067,
                0.3604477611940298
            ],
            [
                0.5545073375262054,
                0.3544776119402985
            ],
            [
                0.5276729559748428,
                0.33432835820895523
            ]
        ],
        [
            [
                0.4471698113207547,
                0.2738805970149254
            ],
            [
                0.42033542976939203,
                0.2537313432835821
            ],
            [
                0.4010482180293501,
                0.22014925373134328
            ]
        ],
        [
            [
                0.3431865828092243,
                0.11940298507462688
            ],
            [
                0.3238993710691824,
                0.08582089552238806
            ],
            [
                0.2870020964360587,
                0.08208955223880597
            ]
        ],
        [
            [
                0.1763102725366876,
                0.0708955223880597
            ],
            [
                0.13941299790356393,
                0.06716417910447761
            ],
            [
                0.12138364779874214,
                0.0880597014925373
            ]
        ],
        [
            [
                0.06729559748427673,
                0.15074626865671642
            ],
            [
                0.049266247379454925,
                0.17164179104477612
            ],
            [
                0.04591194968553459,
                0.24328358208955225
            ]
        ],
        [
            [
                0.035849056603773584,
                0.45820895522388067
            ],
            [
                0.03249475890985325,
                0.5298507462686568
            ],
            [
                0.03417190775681342,
                0.6402985074626867
            ]
        ],
        [
            [
                0.03920335429769392,
                0.9716417910447761
            ],
            [
                0.040880503144654086,
                1.082089552238806
            ],
            [
                -0.027463312368972734,
                1.1022388059701493
            ]
        ],
        [
            [
                -0.23249475890985322,
                1.162686567164179
            ],
            [
                -0.30083857442348005,
                1.1828358208955223
            ],
            [
                -0.30335429769392036,
                0.8798507462686567
            ]
        ],
        [
            [
                -0.31090146750524106,
                -0.02910447761194027
            ],
            [
                -0.31341719077568136,
                -0.332089552238806
            ],
            [
                -0.008595387840670909,
                -0.33805970149253733
            ]
        ],
        [
            [
                0.9058700209643605,
                -0.3559701492537313
            ],
            [
                1.210691823899371,
                -0.3619402985074627
            ],
            [
                1.1825995807127883,
                -0.12014925373134328
            ]
        ]
    ],
    "2292": [
        [
            [
                1.1109014675052409,
                0.5380597014925371
            ],
            [
                1.0828092243186582,
                0.7798507462686568
            ],
            [
                1.0589098532494758,
                0.7447761194029852
            ]
        ],
        [
            [
                1.0283018867924527,
                0.7052238805970149
            ],
            [
                0.9549266247379454,
                0.6679104477611941
            ],
            [
                0.9276729559748428,
                0.6634328358208956
            ]
        ],
        [
            [
                0.8417190775681341,
                0.6444029850746269
            ],
            [
                0.8144654088050314,
                0.6399253731343284
            ],
            [
                0.7985324947589097,
                0.6451492537313434
            ]
        ],
        [
            [
                0.7507337526205451,
                0.6533582089552239
            ],
            [
                0.7348008385744235,
                0.6585820895522388
            ],
            [
                0.7318658280922431,
                0.6257462686567165
            ]
        ],
        [
            [
                0.7262054507337526,
                0.5085820895522388
            ],
            [
                0.7232704402515723,
                0.47574626865671643
            ],
            [
                0.7148846960167714,
                0.37873134328358216
            ]
        ],
        [
            [
                0.6855345911949685,
                0.3917910447761194
            ],
            [
                0.6509433962264151,
                0.3656716417910448
            ],
            [
                0.6345911949685534,
                0.3597014925373135
            ]
        ],
        [
            [
                0.5614255765199161,
                0.34179104477611943
            ],
            [
                0.5450733752620545,
                0.3358208955223881
            ],
            [
                0.5182389937106918,
                0.31567164179104484
            ]
        ],
        [
            [
                0.4471698113207547,
                0.2738805970149254
            ],
            [
                0.42033542976939203,
                0.2537313432835821
            ],
            [
                0.4010482180293501,
                0.22014925373134328
            ]
        ],
        [
            [
                0.3431865828092243,
                0.11940298507462688
            ],
            [
                0.3238993710691824,
                0.08582089552238806
            ],
            [
                0.2870020964360587,
                0.08208955223880597
            ]
        ],
        [
            [
                0.17002096436058703,
                0.020522388059701514
            ],
            [
                0.1331236897274633,
                0.016791044776119403
            ],
            [
                0.11509433962264157,
                0.03768656716417907
            ]
        ],
        [
            [
                0.05471698113207547,
                0.13955223880597017
            ],
            [
                0.03668763102725367,
                0.16044776119402987
            ],
            [
                0.03333333333333333,
                0.232089552238806
            ]
        ],
        [
            [
                0.035849056603773584,
                0.45820895522388067
            ],
            [
                0.03249475890985325,
                0.5298507462686568
            ],
            [
                0.03417190775681342,
                0.6402985074626867
            ]
        ],
        [
            [
                0.03920335429769392,
                0.9716417910447761
            ],
            [
                0.040880503144654086,
                1.082089552238806
            ],
            [
                -0.027463312368972734,
                1.1022388059701493
            ]
        ],
        [
            [
                -0.23249475890985322,
                1.162686567164179
            ],
            [
                -0.30083857442348005,
                1.1828358208955223
            ],
            [
                -0.30335429769392036,
                0.8798507462686567
            ]
        ],
        [
            [
                -0.31090146750524106,
                -0.02910447761194027
            ],
            [
                -0.31341719077568136,
                -0.332089552238806
            ],
            [
                -0.008595387840670909,
                -0.33805970149253733
            ]
        ],
        [
            [
                0.9058700209643605,
                -0.3559701492537313
            ],
            [
                1.210691823899371,
                -0.3619402985074627
            ],
            [
                1.1825995807127883,
                -0.12014925373134328
            ]
        ]
    ],
    "2297": [
        [
            [
                1.1109014675052409,
                0.5380597014925371
            ],
            [
                1.0828092243186582,
                0.7798507462686568
            ],
            [
                1.0589098532494758,
                0.7447761194029852
            ]
        ],
        [
            [
                1.0241090146750524,
                0.6604477611940299
            ],
            [
                0.950733752620545,
                0.6231343283582089
            ],
            [
                0.9234800838574423,
                0.6186567164179104
            ]
        ],
        [
            [
                0.8354297693920335,
                0.6238805970149254
            ],
            [
                0.8081761006289307,
                0.6194029850746269
            ],
            [
                0.7922431865828091,
                0.6246268656716418
            ]
        ],
        [
            [
                0.7507337526205451,
                0.6533582089552239
            ],
            [
                0.7348008385744235,
                0.6585820895522388
            ],
            [
                0.7318658280922431,
                0.6257462686567165
            ]
        ],
        [
            [
                0.7262054507337526,
                0.5085820895522388
            ],
            [
                0.7232704402515723,
                0.47574626865671643
            ],
            [
                0.7148846960167714,
                0.37873134328358216
            ]
        ],
        [
            [
                0.6855345911949685,
                0.3917910447761194
            ],
            [
                0.6509433962264151,
                0.3656716417910448
            ],
            [
                0.6345911949685534,
                0.3597014925373135
            ]
        ],
        [
            [
                0.5614255765199161,
                0.34179104477611943
            ],
            [
                0.5450733752620545,
                0.3358208955223881
            ],
            [
                0.5182389937106918,
                0.31567164179104484
            ]
        ],
        [
            [
                0.4471698113207547,
                0.2738805970149254
            ],
            [
                0.42033542976939203,
                0.2537313432835821
            ],
            [
                0.4010482180293501,
                0.22014925373134328
            ]
        ],
        [
            [
                0.3431865828092243,
                0.11940298507462688
            ],
            [
                0.3238993710691824,
                0.08582089552238806
            ],
            [
                0.2870020964360587,
                0.08208955223880597
            ]
        ],
        [
            [
                0.17002096436058703,
                0.020522388059701514
            ],
            [
                0.1331236897274633,
                0.016791044776119403
            ],
            [
                0.11509433962264157,
                0.03768656716417907
            ]
        ],
        [
            [
                0.05471698113207547,
                0.13955223880597017
            ],
            [
                0.03668763102725367,
                0.16044776119402987
            ],
            [
                0.03333333333333333,
                0.232089552238806
            ]
        ],
        [
            [
                0.035849056603773584,
                0.45820895522388067
            ],
            [
                0.03249475890985325,
                0.5298507462686568
            ],
            [
                0.03417190775681342,
                0.6402985074626867
            ]
        ],
        [
            [
                0.03920335429769392,
                0.9716417910447761
            ],
            [
                0.040880503144654086,
                1.082089552238806
            ],
            [
                -0.027463312368972734,
                1.1022388059701493
            ]
        ],
        [
            [
                -0.23249475890985322,
                1.162686567164179
            ],
            [
                -0.30083857442348005,
                1.1828358208955223
            ],
            [
                -0.30335429769392036,
                0.8798507462686567
            ]
        ],
        [
            [
                -0.31090146750524106,
                -0.02910447761194027
            ],
            [
                -0.31341719077568136,
                -0.332089552238806
            ],
            [
                -0.008595387840670909,
                -0.33805970149253733
            ]
        ],
        [
            [
                0.9058700209643605,
                -0.3559701492537313
            ],
            [
                1.210691823899371,
                -0.3619402985074627
            ],
            [
                1.1825995807127883,
                -0.12014925373134328
            ]
        ]
    ],
    "2304": [
        [
            [
                1.1109014675052409,
                0.5380597014925371
            ],
            [
                1.0828092243186582,
                0.7798507462686568
            ],
            [
                1.0589098532494758,
                0.7447761194029852
            ]
        ],
        [
            [
                1.017819706498952,
                0.7033582089552239
            ],
            [
                0.9444444444444444,
                0.666044776119403
            ],
            [
                0.9171907756813417,
                0.6615671641791045
            ]
        ],
        [
            [
                0.8354297693920335,
                0.6238805970149254
            ],
            [
                0.8081761006289307,
                0.6194029850746269
            ],
            [
                0.7922431865828091,
                0.6246268656716418
            ]
        ],
        [
            [
                0.7475890985324948,
                0.617910447761194
            ],
            [
                0.7316561844863732,
                0.6231343283582089
            ],
            [
                0.7287211740041928,
                0.5902985074626865
            ]
        ],
        [
            [
                0.7262054507337526,
                0.5085820895522388
            ],
            [
                0.7232704402515723,
                0.47574626865671643
            ],
            [
                0.7148846960167714,
                0.37873134328358216
            ]
        ],
        [
            [
                0.6855345911949685,
                0.3917910447761194
            ],
            [
                0.6509433962264151,
                0.3656716417910448
            ],
            [
                0.6345911949685534,
                0.3597014925373135
            ]
        ],
        [
            [
                0.5614255765199161,
                0.34179104477611943
            ],
            [
                0.5450733752620545,
                0.3358208955223881
            ],
            [
                0.5182389937106918,
                0.31567164179104484
            ]
        ],
        [
            [
                0.4471698113207547,
                0.2738805970149254
            ],
            [
                0.42033542976939203,
                0.2537313432835821
            ],
            [
                0.4010482180293501,
                0.22014925373134328
            ]
        ],
        [
            [
                0.3431865828092243,
                0.11940298507462688
            ],
            [
                0.3238993710691824,
                0.08582089552238806
            ],
            [
                0.2870020964360587,
                0.08208955223880597
            ]
        ],
        [
            [
                0.17002096436058703,
                0.020522388059701514
            ],
            [
                0.1331236897274633,
                0.016791044776119403
            ],
            [
                0.11509433962264157,
                0.03768656716417907
            ]
        ],
        [
            [
                0.05471698113207547,
                0.13955223880597017
            ],
            [
                0.03668763102725367,
                0.16044776119402987
            ],
            [
                0.03333333333333333,
                0.232089552238806
            ]
        ],
        [
            [
                0.035849056603773584,
                0.45820895522388067
            ],
            [
                0.03249475890985325,
                0.5298507462686568
            ],
            [
                0.03417190775681342,
                0.6402985074626867
            ]
        ],
        [
            [
                0.03920335429769392,
                0.9716417910447761
            ],
            [
                0.040880503144654086,
                1.082089552238806
            ],
            [
                -0.027463312368972734,
                1.1022388059701493
            ]
        ],
        [
            [
                -0.23249475890985322,
                1.162686567164179
            ],
            [
                -0.30083857442348005,
                1.1828358208955223
            ],
            [
                -0.30335429769392036,
                0.8798507462686567
            ]
        ],
        [
            [
                -0.31090146750524106,
                -0.02910447761194027
            ],
            [
                -0.31341719077568136,
                -0.332089552238806
            ],
            [
                -0.008595387840670909,
                -0.33805970149253733
            ]
        ],
        [
            [
                0.9058700209643605,
                -0.3559701492537313
            ],
            [
                1.210691823899371,
                -0.3619402985074627
            ],
            [
                1.1825995807127883,
                -0.12014925373134328
            ]
        ]
    ],
    "2312": [
        [
            [
                1.1109014675052409,
                0.5380597014925371
            ],
            [
                1.0828092243186582,
                0.7798507462686568
            ],
            [
                1.0589098532494758,
                0.7447761194029852
            ]
        ],
        [
            [
                1.0062893081761015,
                0.6436567164179106
            ],
            [
                0.9329140461215933,
                0.6063432835820896
            ],
            [
                0.9056603773584906,
                0.6018656716417911
            ]
        ],
        [
            [
                0.8322851153039832,
                0.5977611940298507
            ],
            [
                0.8050314465408804,
                0.5932835820895522
            ],
            [
                0.7890985324947588,
                0.5985074626865672
            ]
        ],
        [
            [
                0.7475890985324948,
                0.617910447761194
            ],
            [
                0.7316561844863732,
                0.6231343283582089
            ],
            [
                0.7287211740041928,
                0.5902985074626865
            ]
        ],
        [
            [
                0.7262054507337526,
                0.5085820895522388
            ],
            [
                0.7232704402515723,
                0.47574626865671643
            ],
            [
                0.7148846960167714,
                0.37873134328358216
            ]
        ],
        [
            [
                0.6834381551362684,
                0.3824626865671642
            ],
            [
                0.6488469601677149,
                0.35634328358208955
            ],
            [
                0.6324947589098533,
                0.35037313432835826
            ]
        ],
        [
            [
                0.560377358490566,
                0.3305970149253732
            ],
            [
                0.5440251572327044,
                0.3246268656716418
            ],
            [
                0.5171907756813418,
                0.30447761194029854
            ]
        ],
        [
            [
                0.4471698113207547,
                0.2738805970149254
            ],
            [
                0.42033542976939203,
                0.2537313432835821
            ],
            [
                0.4010482180293501,
                0.22014925373134328
            ]
        ],
        [
            [
                0.3431865828092243,
                0.11940298507462688
            ],
            [
                0.3238993710691824,
                0.08582089552238806
            ],
            [
                0.2870020964360587,
                0.08208955223880597
            ]
        ],
        [
            [
                0.1647798742138366,
                0.007462686567164203
            ],
            [
                0.1278825995807128,
                0.003731343283582089
            ],
            [
                0.109853249475891,
                0.024626865671641743
            ]
        ],
        [
            [
                0.04423480083857442,
                0.12276119402985078
            ],
            [
                0.02620545073375262,
                0.14365671641791045
            ],
            [
                0.02285115303983228,
                0.2152985074626866
            ]
        ],
        [
            [
                0.028511530398322847,
                0.46567164179104475
            ],
            [
                0.025157232704402514,
                0.5373134328358209
            ],
            [
                0.02683438155136269,
                0.6477611940298508
            ]
        ],
        [
            [
                0.03920335429769392,
                0.9716417910447761
            ],
            [
                0.040880503144654086,
                1.082089552238806
            ],
            [
                -0.027463312368972734,
                1.1022388059701493
            ]
        ],
        [
            [
                -0.23249475890985322,
                1.162686567164179
            ],
            [
                -0.30083857442348005,
                1.1828358208955223
            ],
            [
                -0.30335429769392036,
                0.8798507462686567
            ]
        ],
        [
            [
                -0.31090146750524106,
                -0.02910447761194027
            ],
            [
                -0.31341719077568136,
                -0.332089552238806
            ],
            [
                -0.008595387840670909,
                -0.33805970149253733
            ]
        ],
        [
            [
                0.9058700209643605,
                -0.3559701492537313
            ],
            [
                1.210691823899371,
                -0.3619402985074627
            ],
            [
                1.1825995807127883,
                -0.12014925373134328
            ]
        ]
    ],
    "2324": [
        [
            [
                1.1109014675052409,
                0.5380597014925371
            ],
            [
                1.0828092243186582,
                0.7798507462686568
            ],
            [
                1.0589098532494758,
                0.7447761194029852
            ]
        ],
        [
            [
                1.0041928721174014,
                0.6753731343283583
            ],
            [
                0.9308176100628931,
                0.6380597014925373
            ],
            [
                0.9035639412997903,
                0.6335820895522388
            ]
        ],
        [
            [
                0.8490566037735848,
                0.6126865671641791
            ],
            [
                0.8218029350104821,
                0.6082089552238806
            ],
            [
                0.8058700209643604,
                0.6134328358208956
            ]
        ],
        [
            [
                0.7475890985324948,
                0.617910447761194
            ],
            [
                0.7316561844863732,
                0.6231343283582089
            ],
            [
                0.7287211740041928,
                0.5902985074626865
            ]
        ],
        [
            [
                0.7262054507337526,
                0.5085820895522388
            ],
            [
                0.7232704402515723,
                0.47574626865671643
            ],
            [
                0.7148846960167714,
                0.37873134328358216
            ]
        ],
        [
            [
                0.6865828092243186,
                0.36567164179104494
            ],
            [
                0.6519916142557651,
                0.3395522388059702
            ],
            [
                0.6356394129979035,
                0.33358208955223906
            ]
        ],
        [
            [
                0.5530398322851153,
                0.31194029850746274
            ],
            [
                0.5366876310272537,
                0.30597014925373134
            ],
            [
                0.5098532494758911,
                0.2858208955223881
            ]
        ],
        [
            [
                0.4471698113207547,
                0.2738805970149254
            ],
            [
                0.42033542976939203,
                0.2537313432835821
            ],
            [
                0.4010482180293501,
                0.22014925373134328
            ]
        ],
        [
            [
                0.3431865828092243,
                0.11940298507462688
            ],
            [
                0.3238993710691824,
                0.08582089552238806
            ],
            [
                0.2861635220125786,
                0.04291044776119403
            ]
        ],
        [
            [
                0.21383647798742145,
                -0.04477611940298506
            ],
            [
                0.10167714884696016,
                -0.007462686567164178
            ],
            [
                0.08364779874213836,
                0.013432835820895475
            ]
        ],
        [
            [
                0.03459119496855346,
                0.0914179104477612
            ],
            [
                0.02620545073375262,
                0.14365671641791045
            ],
            [
                0.02285115303983228,
                0.2152985074626866
            ]
        ],
        [
            [
                0.028511530398322847,
                0.46567164179104475
            ],
            [
                0.025157232704402514,
                0.5373134328358209
            ],
            [
                0.02683438155136269,
                0.6477611940298508
            ]
        ],
        [
            [
                0.03920335429769392,
                0.9716417910447761
            ],
            [
                0.040880503144654086,
                1.082089552238806
            ],
            [
                -0.027463312368972734,
                1.1022388059701493
            ]
        ],
        [
            [
                -0.23249475890985322,
                1.162686567164179
            ],
            [
                -0.30083857442348005,
                1.1828358208955223
            ],
            [
                -0.30335429769392036,
                0.8798507462686567
            ]
        ],
        [
            [
                -0.31090146750524106,
                -0.02910447761194027
            ],
            [
                -0.31341719077568136,
                -0.332089552238806
            ],
            [
                -0.008595387840670909,
                -0.33805970149253733
            ]
        ],
        [
            [
                0.9058700209643605,
                -0.3559701492537313
            ],
            [
                1.210691823899371,
                -0.3619402985074627
            ],
            [
                1.1825995807127883,
                -0.12014925373134328
            ]
        ]
    ],
    "2338": [
        [
            [
                1.1109014675052409,
                0.5380597014925371
            ],
            [
                1.0828092243186582,
                0.7798507462686568
            ],
            [
                1.0589098532494758,
                0.7447761194029852
            ]
        ],
        [
            [
                1.0041928721174014,
                0.6753731343283583
            ],
            [
                0.9308176100628931,
                0.6380597014925373
            ],
            [
                0.9035639412997903,
                0.6335820895522388
            ]
        ],
        [
            [
                0.8490566037735848,
                0.6126865671641791
            ],
            [
                0.8218029350104821,
                0.6082089552238806
            ],
            [
                0.8058700209643604,
                0.6134328358208956
            ]
        ],
        [
            [
                0.7842767295597484,
                0.6029850746268657
            ],
            [
                0.7683438155136267,
                0.6082089552238806
            ],
            [
                0.7654088050314465,
                0.5753731343283582
            ]
        ],
        [
            [
                0.7419287211740042,
                0.4656716417910448
            ],
            [
                0.738993710691824,
                0.4328358208955224
            ],
            [
                0.7306079664570231,
                0.3358208955223881
            ]
        ],
        [
            [
                0.6886792452830188,
                0.3563432835820897
            ],
            [
                0.6540880503144654,
                0.33022388059701496
            ],
            [
                0.6377358490566037,
                0.3242537313432839
            ]
        ],
        [
            [
                0.5530398322851153,
                0.31194029850746274
            ],
            [
                0.5366876310272537,
                0.30597014925373134
            ],
            [
                0.5098532494758911,
                0.2858208955223881
            ]
        ],
        [
            [
                0.45345911949685536,
                0.24776119402985064
            ],
            [
                0.42662473794549266,
                0.22761194029850748
            ],
            [
                0.4073375262054507,
                0.19402985074626866
            ]
        ],
        [
            [
                0.3431865828092243,
                0.11940298507462688
            ],
            [
                0.3238993710691824,
                0.08582089552238806
            ],
            [
                0.2861635220125786,
                0.04291044776119403
            ]
        ],
        [
            [
                0.21383647798742145,
                -0.04477611940298506
            ],
            [
                0.10167714884696016,
                -0.007462686567164178
            ],
            [
                0.08364779874213836,
                0.013432835820895475
            ]
        ],
        [
            [
                0.03459119496855346,
                0.0914179104477612
            ],
            [
                0.02620545073375262,
                0.14365671641791045
            ],
            [
                0.02285115303983228,
                0.2152985074626866
            ]
        ],
        [
            [
                0.028511530398322847,
                0.46567164179104475
            ],
            [
                0.025157232704402514,
                0.5373134328358209
            ],
            [
                0.02683438155136269,
                0.6477611940298508
            ]
        ],
        [
            [
                0.03920335429769392,
                0.9716417910447761
            ],
            [
                0.040880503144654086,
                1.082089552238806
            ],
            [
                -0.027463312368972734,
                1.1022388059701493
            ]
        ],
        [
            [
                -0.23249475890985322,
                1.162686567164179
            ],
            [
                -0.30083857442348005,
                1.1828358208955223
            ],
            [
                -0.30335429769392036,
                0.8798507462686567
            ]
        ],
        [
            [
                -0.31090146750524106,
                -0.02910447761194027
            ],
            [
                -0.31341719077568136,
                -0.332089552238806
            ],
            [
                -0.008595387840670909,
                -0.33805970149253733
            ]
        ],
        [
            [
                0.9058700209643605,
                -0.3559701492537313
            ],
            [
                1.210691823899371,
                -0.3619402985074627
            ],
            [
                1.1825995807127883,
                -0.12014925373134328
            ]
        ]
    ],
    "2357": [
        [
            [
                1.1109014675052409,
                0.5380597014925371
            ],
            [
                1.0828092243186582,
                0.7798507462686568
            ],
            [
                1.0589098532494758,
                0.7447761194029852
            ]
        ],
        [
            [
                1.0041928721174014,
                0.6753731343283583
            ],
            [
                0.9308176100628931,
                0.6380597014925373
            ],
            [
                0.9035639412997903,
                0.6335820895522388
            ]
        ],
        [
            [
                0.8448637316561844,
                0.608955223880597
            ],
            [
                0.8176100628930817,
                0.6044776119402985
            ],
            [
                0.8016771488469601,
                0.6097014925373134
            ]
        ],
        [
            [
                0.7842767295597484,
                0.6029850746268657
            ],
            [
                0.7683438155136267,
                0.6082089552238806
            ],
            [
                0.7654088050314465,
                0.5753731343283582
            ]
        ],
        [
            [
                0.7419287211740042,
                0.4656716417910448
            ],
            [
                0.738993710691824,
                0.4328358208955224
            ],
            [
                0.7306079664570231,
                0.3358208955223881
            ]
        ],
        [
            [
                0.6865828092243186,
                0.3451492537313434
            ],
            [
                0.6519916142557651,
                0.31902985074626866
            ],
            [
                0.6356394129979035,
                0.3130597014925376
            ]
        ],
        [
            [
                0.5519916142557653,
                0.30074626865671644
            ],
            [
                0.5356394129979036,
                0.29477611940298504
            ],
            [
                0.508805031446541,
                0.2746268656716419
            ]
        ],
        [
            [
                0.45345911949685536,
                0.24776119402985064
            ],
            [
                0.42662473794549266,
                0.22761194029850748
            ],
            [
                0.4073375262054507,
                0.19402985074626866
            ]
        ],
        [
            [
                0.3431865828092243,
                0.11940298507462688
            ],
            [
                0.3238993710691824,
                0.08582089552238806
            ],
            [
                0.2861635220125786,
                0.04291044776119403
            ]
        ],
        [
            [
                0.21383647798742145,
                -0.04477611940298506
            ],
            [
                0.10167714884696016,
                -0.007462686567164178
            ],
            [
                0.08364779874213836,
                0.013432835820895475
            ]
        ],
        [
            [
                0.03459119496855346,
                0.0914179104477612
            ],
            [
                0.02620545073375262,
                0.14365671641791045
            ],
            [
                0.02285115303983228,
                0.2152985074626866
            ]
        ],
        [
            [
                0.028511530398322847,
                0.46567164179104475
            ],
            [
                0.025157232704402514,
                0.5373134328358209
            ],
            [
                0.02683438155136269,
                0.6477611940298508
            ]
        ],
        [
            [
                0.03920335429769392,
                0.9716417910447761
            ],
            [
                0.040880503144654086,
                1.082089552238806
            ],
            [
                -0.027463312368972734,
                1.1022388059701493
            ]
        ],
        [
            [
                -0.23249475890985322,
                1.162686567164179
            ],
            [
                -0.30083857442348005,
                1.1828358208955223
            ],
            [
                -0.30335429769392036,
                0.8798507462686567
            ]
        ],
        [
            [
                -0.31090146750524106,
                -0.02910447761194027
            ],
            [
                -0.31341719077568136,
                -0.332089552238806
            ],
            [
                -0.008595387840670909,
                -0.33805970149253733
            ]
        ],
        [
            [
                0.9058700209643605,
                -0.3559701492537313
            ],
            [
                1.210691823899371,
                -0.3619402985074627
            ],
            [
                1.1825995807127883,
                -0.12014925373134328
            ]
        ]
    ]
}
</property>
    <property name="kdenlive:collapsed">0</property>
   </filter>
  </entry>
  <entry producer="producer173" in="00:01:19.533" out="00:01:48.200">
   <property name="kdenlive:id">99</property>
  </entry>
  <blank length="00:00:37.033"/>
  <entry producer="producer175" in="00:00:00.000" out="00:00:05.900">
   <property name="kdenlive:id">138</property>
   <filter id="filter306">
    <property name="rotate_center">1</property>
    <property name="mlt_service">qtblend</property>
    <property name="kdenlive_id">qtblend</property>
    <property name="rect">00:00:00.000=-10 -270 1938 1360 1.000000</property>
    <property name="rotation">00:00:00.000=0</property>
    <property name="compositing">0</property>
    <property name="distort">0</property>
    <property name="kdenlive:collapsed">0</property>
   </filter>
  </entry>
  <blank length="00:00:08.967"/>
  <entry producer="producer175" in="00:00:05.933" out="00:00:12.200">
   <property name="kdenlive:id">138</property>
   <filter id="filter307">
    <property name="rotate_center">1</property>
    <property name="mlt_service">qtblend</property>
    <property name="kdenlive_id">qtblend</property>
    <property name="rect">00:00:05.933=-9 -270 1938 1360 1.000000</property>
    <property name="rotation">00:00:05.933=0</property>
    <property name="compositing">0</property>
    <property name="distort">0</property>
    <property name="kdenlive:collapsed">0</property>
   </filter>
  </entry>
  <blank length="00:00:25.400"/>
  <entry producer="producer7" in="00:00:00.000" out="00:00:07.300">
   <property name="kdenlive:id">89</property>
   <property name="kdenlive:activeeffect">1</property>
   <filter id="filter313">
    <property name="mlt_service">avfilter.unsharp</property>
    <property name="kdenlive_id">avfilter.unsharp</property>
    <property name="av.lx">5</property>
    <property name="av.ly">5</property>
    <property name="av.la">0.563107</property>
    <property name="av.cx">5</property>
    <property name="av.cy">5</property>
    <property name="av.ca">0.52</property>
    <property name="kdenlive:collapsed">0</property>
   </filter>
   <filter id="filter314">
    <property name="rotate_center">1</property>
    <property name="mlt_service">qtblend</property>
    <property name="kdenlive_id">qtblend</property>
    <property name="rect">00:00:00.000=1650 0 1920 1080 1.000000;00:00:01.567=1650 0 1920 1080 1.000000;00:00:03.300=688 0 1920 1080 1.000000;00:00:03.400=693 0 1920 1080 1.000000;00:00:04.467=693 0 1920 1080 1.000000;00:00:07.300=846 0 1920 1080 1.000000</property>
    <property name="rotation">00:00:00.000=0;00:00:01.567=0;00:00:03.300=0;00:00:03.400=0;00:00:04.467=0;00:00:07.300=0</property>
    <property name="compositing">0</property>
    <property name="distort">0</property>
    <property name="kdenlive:collapsed">0</property>
   </filter>
  </entry>
  <entry producer="producer14" in="00:00:00.000" out="00:00:03.533">
   <property name="kdenlive:id">96</property>
   <filter id="filter315">
    <property name="mlt_service">avfilter.unsharp</property>
    <property name="kdenlive_id">avfilter.unsharp</property>
    <property name="av.lx">5</property>
    <property name="av.ly">5</property>
    <property name="av.la">1.72</property>
    <property name="av.cx">5</property>
    <property name="av.cy">5</property>
    <property name="av.ca">1.72</property>
    <property name="kdenlive:collapsed">0</property>
   </filter>
   <filter id="filter316">
    <property name="rotate_center">1</property>
    <property name="mlt_service">qtblend</property>
    <property name="kdenlive_id">qtblend</property>
    <property name="rect">00:00:00.000=-491 0 1920 1080 1.000000;00:00:00.800~=-491 0 1920 1080 1.000000;00:00:01.767~=-383 0 1920 1080 1.000000;00:00:03.533~=-34 0 1920 1080 1.000000</property>
    <property name="rotation">00:00:00.000=0;00:00:00.800~=0;00:00:01.767~=0;00:00:03.533~=0</property>
    <property name="compositing">0</property>
    <property name="distort">0</property>
    <property name="kdenlive:collapsed">0</property>
   </filter>
   <filter id="filter317">
    <property name="mlt_service">avfilter.hflip</property>
    <property name="kdenlive_id">avfilter.hflip</property>
    <property name="kdenlive:collapsed">0</property>
   </filter>
   <filter id="filter318">
    <property name="version">0.1</property>
    <property name="mlt_service">frei0r.mask0mate</property>
    <property name="kdenlive_id">frei0r.mask0mate</property>
    <property name="Left">00:00:00.000=0.502</property>
    <property name="Right">00:00:00.000=0</property>
    <property name="Top">00:00:00.000=0</property>
    <property name="Bottom">00:00:00.000=0</property>
    <property name="Invert">1</property>
    <property name="Blur">00:00:00.000=0</property>
    <property name="kdenlive:collapsed">0</property>
   </filter>
  </entry>
  <blank length="00:00:03.800"/>
  <entry producer="producer176" in="00:00:00.000" out="00:00:02.633">
   <property name="kdenlive:id">123</property>
   <filter id="filter319">
    <property name="rotate_center">1</property>
    <property name="mlt_service">qtblend</property>
    <property name="kdenlive_id">qtblend</property>
    <property name="rect">00:00:00.000=710 25 500 500 1.000000</property>
    <property name="rotation">00:00:00.000=0</property>
    <property name="compositing">0</property>
    <property name="distort">0</property>
    <property name="kdenlive:collapsed">0</property>
   </filter>
   <filter id="filter320">
    <property name="mlt_service">avfilter.unsharp</property>
    <property name="kdenlive_id">avfilter.unsharp</property>
    <property name="av.lx">5</property>
    <property name="av.ly">5</property>
    <property name="av.la">1.5</property>
    <property name="av.cx">5</property>
    <property name="av.cy">5</property>
    <property name="av.ca">2</property>
    <property name="kdenlive:collapsed">0</property>
   </filter>
  </entry>
  <entry producer="producer177" in="00:00:00.000" out="00:00:06.100">
   <property name="kdenlive:id">34</property>
   <property name="kdenlive:activeeffect">1</property>
   <filter id="filter321">
    <property name="version">0.1</property>
    <property name="mlt_service">frei0r.scale0tilt</property>
    <property name="kdenlive_id">frei0r.scale0tilt</property>
    <property name="Clip left">00:00:00.000=0.111979</property>
    <property name="Clip right">00:00:00.000=0.119792</property>
    <property name="Clip top">00:00:00.000=0</property>
    <property name="Clip bottom">00:00:00.000=0</property>
    <property name="Scale X">0.345</property>
    <property name="Scale Y">0.35</property>
    <property name="Tilt X">00:00:00.000=0.5</property>
    <property name="Tilt Y">00:00:00.000=0.5</property>
    <property name="kdenlive:collapsed">0</property>
   </filter>
   <filter id="filter322">
    <property name="rotate_center">1</property>
    <property name="mlt_service">qtblend</property>
    <property name="kdenlive_id">qtblend</property>
    <property name="rect">00:00:00.000=638 25 944 720 1.000000</property>
    <property name="rotation">00:00:00.000=0</property>
    <property name="compositing">0</property>
    <property name="distort">0</property>
    <property name="kdenlive:collapsed">0</property>
   </filter>
   <filter id="filter323">
    <property name="mlt_service">avfilter.unsharp</property>
    <property name="kdenlive_id">avfilter.unsharp</property>
    <property name="av.lx">5</property>
    <property name="av.ly">5</property>
    <property name="av.la">0.74</property>
    <property name="av.cx">5</property>
    <property name="av.cy">5</property>
    <property name="av.ca">1.12</property>
    <property name="kdenlive:collapsed">0</property>
   </filter>
  </entry>
 </playlist>
 <playlist id="playlist19"/>
 <tractor id="tractor9" in="00:00:00.000" out="00:05:36.933">
  <property name="kdenlive:trackheight">69</property>
  <property name="kdenlive:timeline_active">1</property>
  <property name="kdenlive:collapsed">28</property>
  <property name="kdenlive:track_name">sarah-handheld</property>
  <property name="kdenlive:thumbs_format"/>
  <property name="kdenlive:audio_rec"/>
  <track hide="audio" producer="playlist18"/>
  <track producer="playlist19"/>
 </tractor>
 <producer id="producer178" in="00:00:00.000" out="00:05:47.067">
  <property name="length">10413</property>
  <property name="eof">pause</property>
  <property name="resource">content/musicians/2021-06-02_Sarah_kit_suzy_00046-take1_beginning.MTS</property>
  <property name="audio_index">1</property>
  <property name="video_index">0</property>
  <property name="mute_on_pause">0</property>
  <property name="mlt_service">avformat-novalidate</property>
  <property name="seekable">1</property>
  <property name="aspect_ratio">1.33333</property>
  <property name="kdenlive:clipname"/>
  <property name="kdenlive:folderid">103</property>
  <property name="kdenlive:id">80</property>
  <property name="kdenlive:file_size">306002524</property>
  <property name="kdenlive:file_hash">90ffb3bfdcd3f40feb08d71ea61b1e91</property>
  <property name="kdenlive:audio_max">1</property>
  <property name="global_feed">1</property>
  <property name="kdenlive:activeeffect">2</property>
  <property name="xml">was here</property>
  <property name="meta.media.nb_streams">2</property>
  <property name="meta.media.0.stream.type">video</property>
  <property name="meta.media.0.stream.frame_rate">29.97</property>
  <property name="meta.media.0.stream.sample_aspect_ratio">0</property>
  <property name="meta.media.0.codec.width">1440</property>
  <property name="meta.media.0.codec.height">1080</property>
  <property name="meta.media.0.codec.rotate">0</property>
  <property name="meta.media.0.codec.frame_rate">29.97</property>
  <property name="meta.media.0.codec.pix_fmt">yuv420p</property>
  <property name="meta.media.0.codec.sample_aspect_ratio">1.33333</property>
  <property name="meta.media.0.codec.colorspace">709</property>
  <property name="meta.media.0.codec.name">h264</property>
  <property name="meta.media.0.codec.long_name">H.264 / AVC / MPEG-4 AVC / MPEG-4 part 10</property>
  <property name="meta.media.0.codec.bit_rate">0</property>
  <property name="meta.media.1.stream.type">audio</property>
  <property name="meta.media.1.codec.sample_fmt">fltp</property>
  <property name="meta.media.1.codec.sample_rate">48000</property>
  <property name="meta.media.1.codec.channels">2</property>
  <property name="meta.media.1.codec.name">ac3</property>
  <property name="meta.media.1.codec.long_name">ATSC A/52A (AC-3)</property>
  <property name="meta.media.1.codec.bit_rate">256000</property>
  <property name="meta.media.sample_aspect_num">4</property>
  <property name="meta.media.sample_aspect_den">3</property>
  <property name="meta.media.frame_rate_num">30000</property>
  <property name="meta.media.frame_rate_den">1001</property>
  <property name="meta.media.colorspace">709</property>
  <property name="meta.media.color_trc">2</property>
  <property name="meta.media.width">1440</property>
  <property name="meta.media.height">1080</property>
  <property name="meta.media.color_range">mpeg</property>
  <property name="meta.media.top_field_first">1</property>
  <property name="meta.media.progressive">0</property>
  <property name="set.test_audio">1</property>
  <property name="set.test_image">1</property>
  <filter id="filter165">
   <property name="version">0.1</property>
   <property name="mlt_service">frei0r.hqdn3d</property>
   <property name="kdenlive_id">frei0r.hqdn3d</property>
   <property name="Spatial">00:00:00.000=0.01</property>
   <property name="Temporal">00:00:00.000=0.01</property>
   <property name="kdenlive:collapsed">0</property>
  </filter>
  <filter id="filter166">
   <property name="version">0.6</property>
   <property name="mlt_service">frei0r.select0r</property>
   <property name="kdenlive_id">frei0r.select0r</property>
   <property name="Color to select">0x439a56ff</property>
   <property name="Invert selection">1</property>
   <property name="Selection subspace">1</property>
   <property name="Subspace shape">0</property>
   <property name="Edge mode">0.9</property>
   <property name="Delta R / A / Hue">00:00:00.000=0.025</property>
   <property name="Delta G / B / Chroma">00:00:00.000=0.192</property>
   <property name="Delta B / I / I">00:00:00.000=0.353</property>
   <property name="Slope">00:00:00.000=0.109</property>
   <property name="Operation">0.5</property>
   <property name="kdenlive:collapsed">0</property>
  </filter>
  <filter id="filter167">
   <property name="mlt_service">avfilter.despill</property>
   <property name="kdenlive_id">avfilter.despill</property>
   <property name="av.type">green</property>
   <property name="av.mix">0.106</property>
   <property name="av.expand">0</property>
   <property name="av.red">0</property>
   <property name="av.green">-0.9</property>
   <property name="av.blue">-0.5</property>
   <property name="av.brightness">0</property>
   <property name="kdenlive:collapsed">0</property>
  </filter>
  <filter id="filter168">
   <property name="version">0.1</property>
   <property name="mlt_service">frei0r.hqdn3d</property>
   <property name="kdenlive_id">frei0r.hqdn3d</property>
   <property name="Spatial">00:00:00.000=0.01</property>
   <property name="Temporal">00:00:00.000=0.01</property>
  </filter>
  <filter id="filter169">
   <property name="version">0.6</property>
   <property name="mlt_service">frei0r.select0r</property>
   <property name="kdenlive_id">frei0r.select0r</property>
   <property name="Color to select">0x419553ff</property>
   <property name="Invert selection">1</property>
   <property name="Selection subspace">1</property>
   <property name="Subspace shape">0</property>
   <property name="Edge mode">0.9</property>
   <property name="Delta R / A / Hue">00:00:00.000=0.025</property>
   <property name="Delta G / B / Chroma">0=0.171</property>
   <property name="Delta B / I / I">0=0.371</property>
   <property name="Slope">0=0.15</property>
   <property name="Operation">0.5</property>
  </filter>
  <filter id="filter170">
   <property name="mlt_service">avfilter.despill</property>
   <property name="kdenlive_id">avfilter.despill</property>
   <property name="av.type">green</property>
   <property name="av.mix">0.106</property>
   <property name="av.expand">0</property>
   <property name="av.red">0</property>
   <property name="av.green">-0.9</property>
   <property name="av.blue">-0.5</property>
   <property name="av.brightness">0</property>
  </filter>
 </producer>
 <producer id="producer179" in="00:00:00.000" out="00:05:47.067">
  <property name="length">10413</property>
  <property name="eof">pause</property>
  <property name="resource">content/musicians/2021-06-02_Sarah_kit_suzy_00046-take1_beginning.MTS</property>
  <property name="audio_index">1</property>
  <property name="video_index">0</property>
  <property name="mute_on_pause">0</property>
  <property name="mlt_service">avformat-novalidate</property>
  <property name="seekable">1</property>
  <property name="aspect_ratio">1.33333</property>
  <property name="kdenlive:clipname"/>
  <property name="kdenlive:folderid">103</property>
  <property name="kdenlive:id">80</property>
  <property name="kdenlive:file_size">306002524</property>
  <property name="kdenlive:file_hash">90ffb3bfdcd3f40feb08d71ea61b1e91</property>
  <property name="kdenlive:audio_max">1</property>
  <property name="global_feed">1</property>
  <property name="kdenlive:activeeffect">1</property>
  <property name="xml">was here</property>
  <property name="meta.media.nb_streams">2</property>
  <property name="meta.media.0.stream.type">video</property>
  <property name="meta.media.0.stream.frame_rate">29.97</property>
  <property name="meta.media.0.stream.sample_aspect_ratio">0</property>
  <property name="meta.media.0.codec.width">1440</property>
  <property name="meta.media.0.codec.height">1080</property>
  <property name="meta.media.0.codec.rotate">0</property>
  <property name="meta.media.0.codec.frame_rate">29.97</property>
  <property name="meta.media.0.codec.pix_fmt">yuv420p</property>
  <property name="meta.media.0.codec.sample_aspect_ratio">1.33333</property>
  <property name="meta.media.0.codec.colorspace">709</property>
  <property name="meta.media.0.codec.name">h264</property>
  <property name="meta.media.0.codec.long_name">H.264 / AVC / MPEG-4 AVC / MPEG-4 part 10</property>
  <property name="meta.media.0.codec.bit_rate">0</property>
  <property name="meta.media.1.stream.type">audio</property>
  <property name="meta.media.1.codec.sample_fmt">fltp</property>
  <property name="meta.media.1.codec.sample_rate">48000</property>
  <property name="meta.media.1.codec.channels">2</property>
  <property name="meta.media.1.codec.name">ac3</property>
  <property name="meta.media.1.codec.long_name">ATSC A/52A (AC-3)</property>
  <property name="meta.media.1.codec.bit_rate">256000</property>
  <property name="meta.media.sample_aspect_num">4</property>
  <property name="meta.media.sample_aspect_den">3</property>
  <property name="meta.media.frame_rate_num">30000</property>
  <property name="meta.media.frame_rate_den">1001</property>
  <property name="meta.media.colorspace">709</property>
  <property name="meta.media.color_trc">2</property>
  <property name="meta.media.width">1440</property>
  <property name="meta.media.height">1080</property>
  <property name="meta.media.color_range">mpeg</property>
  <property name="meta.media.top_field_first">1</property>
  <property name="meta.media.progressive">0</property>
  <property name="set.test_audio">1</property>
  <property name="set.test_image">0</property>
  <filter id="filter171">
   <property name="version">0.1</property>
   <property name="mlt_service">frei0r.hqdn3d</property>
   <property name="kdenlive_id">frei0r.hqdn3d</property>
   <property name="Spatial">00:00:00.000=0.01</property>
   <property name="Temporal">00:00:00.000=0.01</property>
  </filter>
  <filter id="filter172">
   <property name="version">0.6</property>
   <property name="mlt_service">frei0r.select0r</property>
   <property name="kdenlive_id">frei0r.select0r</property>
   <property name="Color to select">0x419553ff</property>
   <property name="Invert selection">1</property>
   <property name="Selection subspace">1</property>
   <property name="Subspace shape">0</property>
   <property name="Edge mode">0.9</property>
   <property name="Delta R / A / Hue">00:00:00.000=0.025</property>
   <property name="Delta G / B / Chroma">00:00:00.000=0.171</property>
   <property name="Delta B / I / I">00:00:00.000=0.371</property>
   <property name="Slope">00:00:00.000=0.15</property>
   <property name="Operation">0.5</property>
  </filter>
  <filter id="filter173">
   <property name="mlt_service">avfilter.despill</property>
   <property name="kdenlive_id">avfilter.despill</property>
   <property name="av.type">green</property>
   <property name="av.mix">0.106</property>
   <property name="av.expand">0</property>
   <property name="av.red">0</property>
   <property name="av.green">-0.9</property>
   <property name="av.blue">-0.5</property>
   <property name="av.brightness">0</property>
  </filter>
 </producer>
 <producer id="producer180" in="00:00:00.000" out="00:00:15.067">
  <property name="length">453</property>
  <property name="eof">pause</property>
  <property name="resource">-1.080000:/home/ryankelln/.cache/kdenlive/proxy/d9f0035df5b9bf00b0cdd1f838099c4f.mkv</property>
  <property name="aspect_ratio">1</property>
  <property name="meta.media.nb_streams">1</property>
  <property name="meta.media.0.stream.type">video</property>
  <property name="meta.media.0.stream.frame_rate">30</property>
  <property name="meta.media.0.stream.sample_aspect_ratio">0</property>
  <property name="meta.media.0.codec.width">960</property>
  <property name="meta.media.0.codec.height">524</property>
  <property name="meta.media.0.codec.rotate">0</property>
  <property name="meta.media.0.codec.frame_rate">1000</property>
  <property name="meta.media.0.codec.pix_fmt">yuvj420p</property>
  <property name="meta.media.0.codec.sample_aspect_ratio">0</property>
  <property name="meta.media.0.codec.colorspace">601</property>
  <property name="meta.media.0.codec.name">mjpeg</property>
  <property name="meta.media.0.codec.long_name">MJPEG (Motion JPEG)</property>
  <property name="meta.media.0.codec.bit_rate">0</property>
  <property name="meta.attr.0.stream.HANDLER_NAME.markup">VideoHandler</property>
  <property name="meta.attr.0.stream.ENCODER.markup">Lavc58.91.100 mjpeg</property>
  <property name="meta.attr.0.stream.DURATION.markup">00:00:16.300000000</property>
  <property name="meta.attr.COMPATIBLE_BRANDS.markup">isomiso2avc1mp41</property>
  <property name="meta.attr.MAJOR_BRAND.markup">isom</property>
  <property name="meta.attr.MINOR_VERSION.markup">512</property>
  <property name="meta.attr.ENCODER.markup">Lavf58.45.100</property>
  <property name="seekable">1</property>
  <property name="meta.media.sample_aspect_num">1</property>
  <property name="meta.media.sample_aspect_den">1</property>
  <property name="audio_index">-1</property>
  <property name="video_index">0</property>
  <property name="mute_on_pause">1</property>
  <property name="warp_speed">-1.08</property>
  <property name="warp_resource">/home/ryankelln/.cache/kdenlive/proxy/d9f0035df5b9bf00b0cdd1f838099c4f.mkv</property>
  <property name="mlt_service">timewarp</property>
  <property name="kdenlive:proxy">/home/ryankelln/.cache/kdenlive/proxy/d9f0035df5b9bf00b0cdd1f838099c4f.mkv</property>
  <property name="kdenlive:originalurl">content/animated_paintings/fishing_boats_veda-1625253806823.mp4</property>
  <property name="set.test_audio">1</property>
  <property name="set.test_image">0</property>
  <property name="kdenlive:id">139</property>
  <property name="warp_pitch">0</property>
  <property name="meta.media.frame_rate_num">30</property>
  <property name="meta.media.frame_rate_den">1</property>
  <property name="meta.media.colorspace">601</property>
  <property name="meta.media.color_trc">2</property>
  <property name="meta.media.width">960</property>
  <property name="meta.media.height">524</property>
  <property name="meta.media.color_range">full</property>
  <property name="meta.media.top_field_first">0</property>
  <property name="meta.media.progressive">1</property>
 </producer>
 <producer id="producer181" in="00:00:00.000" out="00:00:02.633">
  <property name="length">80</property>
  <property name="eof">pause</property>
  <property name="resource">content/animated_paintings/reflections_timelapse_3.mp4</property>
  <property name="audio_index">-1</property>
  <property name="video_index">0</property>
  <property name="mute_on_pause">0</property>
  <property name="mlt_service">avformat-novalidate</property>
  <property name="seekable">1</property>
  <property name="aspect_ratio">1</property>
  <property name="kdenlive:clipname"/>
  <property name="kdenlive:folderid">81</property>
  <property name="kdenlive:id">128</property>
  <property name="kdenlive:file_size">123282</property>
  <property name="kdenlive:file_hash">fbf357ded51223aa078952ce3aec0ccc</property>
  <property name="global_feed">1</property>
  <property name="xml">was here</property>
  <property name="meta.media.nb_streams">1</property>
  <property name="meta.media.0.stream.type">video</property>
  <property name="meta.media.0.stream.frame_rate">15</property>
  <property name="meta.media.0.stream.sample_aspect_ratio">0</property>
  <property name="meta.media.0.codec.width">250</property>
  <property name="meta.media.0.codec.height">250</property>
  <property name="meta.media.0.codec.rotate">0</property>
  <property name="meta.media.0.codec.frame_rate">15</property>
  <property name="meta.media.0.codec.pix_fmt">yuv420p</property>
  <property name="meta.media.0.codec.sample_aspect_ratio">1</property>
  <property name="meta.media.0.codec.colorspace">601</property>
  <property name="meta.media.0.codec.name">mpeg4</property>
  <property name="meta.media.0.codec.long_name">MPEG-4 part 2</property>
  <property name="meta.media.0.codec.bit_rate">366684</property>
  <property name="meta.attr.0.stream.handler_name.markup">VideoHandler</property>
  <property name="meta.attr.major_brand.markup">isom</property>
  <property name="meta.attr.minor_version.markup">512</property>
  <property name="meta.attr.compatible_brands.markup">isomiso2mp41</property>
  <property name="meta.attr.encoder.markup">Lavf58.61.100</property>
  <property name="meta.media.sample_aspect_num">1</property>
  <property name="meta.media.sample_aspect_den">1</property>
  <property name="meta.media.frame_rate_num">15</property>
  <property name="meta.media.frame_rate_den">1</property>
  <property name="meta.media.colorspace">601</property>
  <property name="meta.media.color_trc">2</property>
  <property name="meta.media.width">250</property>
  <property name="meta.media.height">250</property>
  <property name="meta.media.color_range">mpeg</property>
  <property name="meta.media.top_field_first">0</property>
  <property name="meta.media.progressive">1</property>
  <property name="set.test_audio">1</property>
  <property name="set.test_image">0</property>
 </producer>
 <producer id="producer182" in="00:00:00.000" out="00:00:39.733">
  <property name="length">1193</property>
  <property name="eof">pause</property>
  <property name="resource">content/consingan_paintings/reflections_2.mp4</property>
  <property name="audio_index">-1</property>
  <property name="video_index">0</property>
  <property name="mute_on_pause">0</property>
  <property name="mlt_service">avformat-novalidate</property>
  <property name="seekable">1</property>
  <property name="aspect_ratio">1</property>
  <property name="kdenlive:clipname">reflections_2.mp4</property>
  <property name="kdenlive:folderid">31</property>
  <property name="kdenlive:id">63</property>
  <property name="kdenlive:file_size">8863580</property>
  <property name="global_feed">1</property>
  <property name="kdenlive:file_hash">6bd201cc128fdf17ee0825cc82c258d8</property>
  <property name="xml">was here</property>
  <property name="meta.media.nb_streams">1</property>
  <property name="meta.media.0.stream.type">video</property>
  <property name="meta.media.0.stream.frame_rate">30</property>
  <property name="meta.media.0.stream.sample_aspect_ratio">0</property>
  <property name="meta.media.0.codec.width">944</property>
  <property name="meta.media.0.codec.height">720</property>
  <property name="meta.media.0.codec.rotate">0</property>
  <property name="meta.media.0.codec.frame_rate">30</property>
  <property name="meta.media.0.codec.pix_fmt">yuv420p</property>
  <property name="meta.media.0.codec.sample_aspect_ratio">0</property>
  <property name="meta.media.0.codec.colorspace">601</property>
  <property name="meta.media.0.codec.name">h264</property>
  <property name="meta.media.0.codec.long_name">H.264 / AVC / MPEG-4 AVC / MPEG-4 part 10</property>
  <property name="meta.media.0.codec.bit_rate">1780047</property>
  <property name="meta.attr.0.stream.handler_name.markup">VideoHandler</property>
  <property name="meta.attr.major_brand.markup">isom</property>
  <property name="meta.attr.minor_version.markup">512</property>
  <property name="meta.attr.compatible_brands.markup">isomiso2avc1mp41</property>
  <property name="meta.attr.encoder.markup">Lavf58.29.100</property>
  <property name="meta.media.sample_aspect_num">1</property>
  <property name="meta.media.sample_aspect_den">1</property>
  <property name="meta.media.frame_rate_num">30</property>
  <property name="meta.media.frame_rate_den">1</property>
  <property name="meta.media.colorspace">601</property>
  <property name="meta.media.color_trc">2</property>
  <property name="meta.media.width">944</property>
  <property name="meta.media.height">720</property>
  <property name="meta.media.color_range">mpeg</property>
  <property name="meta.media.top_field_first">0</property>
  <property name="meta.media.progressive">1</property>
  <property name="set.test_audio">1</property>
  <property name="set.test_image">0</property>
 </producer>
 <producer id="producer183" in="00:00:00.000" out="00:00:02.633">
  <property name="length">80</property>
  <property name="eof">pause</property>
  <property name="resource">content/animated_paintings/fall_clouds_timelapse_0.mp4</property>
  <property name="audio_index">-1</property>
  <property name="video_index">0</property>
  <property name="mute_on_pause">0</property>
  <property name="mlt_service">avformat-novalidate</property>
  <property name="seekable">1</property>
  <property name="aspect_ratio">1</property>
  <property name="kdenlive:clipname"/>
  <property name="kdenlive:folderid">81</property>
  <property name="kdenlive:id">122</property>
  <property name="kdenlive:file_size">89012</property>
  <property name="kdenlive:file_hash">6b19289afeed4433ba096582f0806225</property>
  <property name="global_feed">1</property>
  <property name="xml">was here</property>
  <property name="meta.media.nb_streams">1</property>
  <property name="meta.media.0.stream.type">video</property>
  <property name="meta.media.0.stream.frame_rate">15</property>
  <property name="meta.media.0.stream.sample_aspect_ratio">0</property>
  <property name="meta.media.0.codec.width">250</property>
  <property name="meta.media.0.codec.height">250</property>
  <property name="meta.media.0.codec.rotate">0</property>
  <property name="meta.media.0.codec.frame_rate">15</property>
  <property name="meta.media.0.codec.pix_fmt">yuv420p</property>
  <property name="meta.media.0.codec.sample_aspect_ratio">1</property>
  <property name="meta.media.0.codec.colorspace">601</property>
  <property name="meta.media.0.codec.name">mpeg4</property>
  <property name="meta.media.0.codec.long_name">MPEG-4 part 2</property>
  <property name="meta.media.0.codec.bit_rate">263874</property>
  <property name="meta.attr.0.stream.handler_name.markup">VideoHandler</property>
  <property name="meta.attr.major_brand.markup">isom</property>
  <property name="meta.attr.minor_version.markup">512</property>
  <property name="meta.attr.compatible_brands.markup">isomiso2mp41</property>
  <property name="meta.attr.encoder.markup">Lavf58.61.100</property>
  <property name="meta.media.sample_aspect_num">1</property>
  <property name="meta.media.sample_aspect_den">1</property>
  <property name="meta.media.frame_rate_num">15</property>
  <property name="meta.media.frame_rate_den">1</property>
  <property name="meta.media.colorspace">601</property>
  <property name="meta.media.color_trc">2</property>
  <property name="meta.media.width">250</property>
  <property name="meta.media.height">250</property>
  <property name="meta.media.color_range">mpeg</property>
  <property name="meta.media.top_field_first">0</property>
  <property name="meta.media.progressive">1</property>
  <property name="set.test_audio">1</property>
  <property name="set.test_image">0</property>
 </producer>
 <playlist id="playlist20">
  <blank length="00:00:09.567"/>
  <entry producer="producer178" in="00:00:00.000" out="00:01:39.333">
   <property name="kdenlive:id">80</property>
  </entry>
  <blank length="00:00:02.700"/>
  <entry producer="producer179" in="00:01:42.067" out="00:01:43.667">
   <property name="kdenlive:id">80</property>
   <filter id="filter333">
    <property name="rotate_center">1</property>
    <property name="mlt_service">qtblend</property>
    <property name="kdenlive_id">qtblend</property>
    <property name="rect">00:01:42.067=-528 0 1920 1080 1.000000</property>
    <property name="rotation">00:01:42.067=0</property>
    <property name="compositing">0</property>
    <property name="distort">0</property>
    <property name="kdenlive:collapsed">0</property>
   </filter>
   <filter id="filter174">
    <property name="mlt_service">avfilter.gblur</property>
    <property name="kdenlive_id">avfilter.gblur</property>
    <property name="av.sigma">2</property>
    <property name="av.steps">1</property>
    <property name="av.planes">7</property>
    <property name="av.sigmaV">-1</property>
    <property name="kdenlive:collapsed">0</property>
   </filter>
   <filter id="filter175">
    <property name="version">0.1</property>
    <property name="mlt_service">frei0r.posterize</property>
    <property name="kdenlive_id">frei0r.posterize</property>
    <property name="0">0.05</property>
    <property name="kdenlive:collapsed">0</property>
   </filter>
   <filter id="filter176">
    <property name="version">0.1</property>
    <property name="mlt_service">frei0r.colorize</property>
    <property name="kdenlive_id">frei0r.colorize</property>
    <property name="hue">00:01:42.067=0.138889</property>
    <property name="saturation">00:01:42.067=0.963889</property>
    <property name="lightness">00:01:42.067=0.588889</property>
    <property name="kdenlive:collapsed">0</property>
   </filter>
   <filter id="filter177" in="00:01:42.067" out="00:01:42.533">
    <property name="start">0</property>
    <property name="mlt_service">brightness</property>
    <property name="kdenlive_id">fade_from_black</property>
    <property name="end">1</property>
    <property name="alpha">-1</property>
    <property name="kdenlive:collapsed">0</property>
   </filter>
  </entry>
  <entry producer="producer178" in="00:01:43.700" out="00:03:04.000">
   <property name="kdenlive:id">80</property>
  </entry>
  <entry producer="producer179" in="00:03:04.033" out="00:03:11.533">
   <property name="kdenlive:id">80</property>
   <filter id="filter334" in="00:03:10.200" out="00:03:11.533">
    <property name="start">1</property>
    <property name="mlt_service">brightness</property>
    <property name="kdenlive_id">fade_to_black</property>
    <property name="end">0</property>
    <property name="alpha">-1</property>
    <property name="kdenlive:collapsed">0</property>
   </filter>
   <filter id="filter335">
    <property name="mode">alpha</property>
    <property name="alpha_operation">sub</property>
    <property name="invert">0</property>
    <property name="feather">10</property>
    <property name="feather_passes">1</property>
    <property name="mlt_service">rotoscoping</property>
    <property name="kdenlive_id">rotoscoping</property>
    <property name="spline">{
    "5521": [
        [
            [
                -0.0849056603773585,
                0.35074626865671643
            ],
            [
                -0.049266247379454925,
                0.541044776119403
            ],
            [
                -0.02285115303983228,
                0.541044776119403
            ]
        ],
        [
            [
                0.05639412997903564,
                0.541044776119403
            ],
            [
                0.08280922431865828,
                0.541044776119403
            ],
            [
                0.09706498951781971,
                0.5544776119402985
            ]
        ],
        [
            [
                0.139832285115304,
                0.5947761194029851
            ],
            [
                0.1540880503144654,
                0.6082089552238806
            ],
            [
                0.16331236897274634,
                0.5962686567164179
            ]
        ],
        [
            [
                0.1909853249475891,
                0.5604477611940298
            ],
            [
                0.20020964360587,
                0.5485074626865672
            ],
            [
                0.21320754716981133,
                0.48432835820895526
            ]
        ],
        [
            [
                0.2522012578616352,
                0.2917910447761194
            ],
            [
                0.26519916142557654,
                0.22761194029850748
            ],
            [
                0.28658280922431867,
                0.1962686567164179
            ]
        ],
        [
            [
                0.35073375262054507,
                0.10223880597014925
            ],
            [
                0.3721174004192872,
                0.0708955223880597
            ],
            [
                0.3989517819706499,
                0.061194029850746276
            ]
        ],
        [
            [
                0.479454926624738,
                0.03208955223880597
            ],
            [
                0.5062893081761006,
                0.022388059701492536
            ],
            [
                0.539412997903564,
                0.03134328358208955
            ]
        ],
        [
            [
                0.6387840670859538,
                0.058208955223880594
            ],
            [
                0.6719077568134171,
                0.06716417910447761
            ],
            [
                0.6819706498951781,
                0.12014925373134328
            ]
        ],
        [
            [
                0.7121593291404612,
                0.2791044776119403
            ],
            [
                0.7222222222222222,
                0.332089552238806
            ],
            [
                0.7360587002096436,
                0.3977611940298508
            ]
        ],
        [
            [
                0.7775681341719077,
                0.5947761194029851
            ],
            [
                0.7914046121593291,
                0.6604477611940299
            ],
            [
                0.80020964360587,
                0.6574626865671642
            ]
        ],
        [
            [
                0.8266247379454925,
                0.6485074626865672
            ],
            [
                0.8354297693920335,
                0.6455223880597015
            ],
            [
                0.8538784067085954,
                0.6492537313432836
            ]
        ],
        [
            [
                0.9092243186582808,
                0.6604477611940299
            ],
            [
                0.9276729559748428,
                0.664179104477612
            ],
            [
                0.9477987421383648,
                0.6619402985074627
            ]
        ],
        [
            [
                1.0081761006289307,
                0.655223880597015
            ],
            [
                1.0283018867924527,
                0.6529850746268657
            ],
            [
                1.079454926624738,
                0.5492537313432836
            ]
        ],
        [
            [
                1.232914046121593,
                0.2380597014925373
            ],
            [
                1.2840670859538783,
                0.13432835820895522
            ],
            [
                1.2589098532494758,
                0.04402985074626864
            ]
        ],
        [
            [
                1.1834381551362685,
                -0.22686567164179108
            ],
            [
                1.158280922431866,
                -0.31716417910447764
            ],
            [
                0.8811320754716981,
                -0.3358208955223881
            ]
        ],
        [
            [
                0.04968553459119495,
                -0.3917910447761194
            ],
            [
                -0.22746331236897274,
                -0.4104477611940298
            ],
            [
                -0.19182389937106917,
                -0.22014925373134325
            ]
        ]
    ]
}
</property>
    <property name="kdenlive:collapsed">0</property>
   </filter>
   <filter id="filter336">
    <property name="mlt_service">avfilter.gblur</property>
    <property name="kdenlive_id">avfilter.gblur</property>
    <property name="av.sigma">10</property>
    <property name="av.steps">1</property>
    <property name="av.planes">7</property>
    <property name="av.sigmaV">-1</property>
    <property name="kdenlive:collapsed">0</property>
   </filter>
   <filter id="filter337">
    <property name="version">0.2</property>
    <property name="mlt_service">frei0r.coloradj_RGB</property>
    <property name="kdenlive_id">frei0r.coloradj_RGB</property>
    <property name="R">00:03:04.033=0.621</property>
    <property name="G">00:03:04.033=0.368</property>
    <property name="B">00:03:04.033=0.174</property>
    <property name="Action">0.5</property>
    <property name="Keep luma">1</property>
    <property name="Alpha controlled">0</property>
    <property name="Luma formula">1</property>
    <property name="kdenlive:collapsed">0</property>
   </filter>
  </entry>
  <entry producer="producer178" in="00:03:11.567" out="00:03:48.233">
   <property name="kdenlive:id">80</property>
  </entry>
  <blank length="00:00:49.600"/>
  <entry producer="producer180" in="00:00:00.000" out="00:00:07.433">
   <property name="kdenlive:id">139</property>
   <filter id="filter330">
    <property name="rotate_center">1</property>
    <property name="mlt_service">qtblend</property>
    <property name="kdenlive_id">qtblend</property>
    <property name="rect">00:00:00.000=-287 -274 2494 1360 1.000000;00:00:07.433=-287 -137 2494 1360 1.000000</property>
    <property name="rotation">00:00:00.000=0;00:00:07.433=0</property>
    <property name="compositing">0</property>
    <property name="distort">0</property>
    <property name="kdenlive:collapsed">0</property>
   </filter>
   <filter id="filter331">
    <property name="mlt_service">avfilter.unsharp</property>
    <property name="kdenlive_id">avfilter.unsharp</property>
    <property name="av.lx">5</property>
    <property name="av.ly">5</property>
    <property name="av.la">1.276</property>
    <property name="av.cx">5</property>
    <property name="av.cy">5</property>
    <property name="av.ca">1.22</property>
    <property name="kdenlive:collapsed">0</property>
   </filter>
  </entry>
  <blank length="00:00:18.567"/>
  <entry producer="producer10" in="00:00:00.000" out="00:00:07.300">
   <property name="kdenlive:id">91</property>
   <property name="kdenlive:activeeffect">2</property>
   <filter id="filter338">
    <property name="mlt_service">avfilter.unsharp</property>
    <property name="kdenlive_id">avfilter.unsharp</property>
    <property name="av.lx">5</property>
    <property name="av.ly">5</property>
    <property name="av.la">1.227</property>
    <property name="av.cx">5</property>
    <property name="av.cy">5</property>
    <property name="av.ca">1.129</property>
    <property name="kdenlive:collapsed">0</property>
   </filter>
   <filter id="filter339">
    <property name="version">0.1</property>
    <property name="mlt_service">frei0r.scale0tilt</property>
    <property name="kdenlive_id">frei0r.scale0tilt</property>
    <property name="Clip left">00:00:00.000=0.1875</property>
    <property name="Clip right">00:00:00.000=0.448437</property>
    <property name="Clip top">00:00:00.000=0</property>
    <property name="Clip bottom">00:00:00.000=0</property>
    <property name="Scale X">0.5</property>
    <property name="Scale Y">0.5</property>
    <property name="Tilt X">00:00:00.000=0.5</property>
    <property name="Tilt Y">00:00:00.000=0.5</property>
    <property name="kdenlive:collapsed">0</property>
   </filter>
   <filter id="filter340">
    <property name="rotate_center">1</property>
    <property name="mlt_service">qtblend</property>
    <property name="kdenlive_id">qtblend</property>
    <property name="rect">00:00:00.000=1512 0 1920 1080 1.000000;00:00:03.033=1372 0 1920 1080 1.000000;00:00:03.967=888 0 1920 1080 1.000000;00:00:04.067=893 0 1920 1080 1.000000;00:00:04.467=893 0 1920 1080 1.000000;00:00:07.300=411 0 1920 1080 1.000000</property>
    <property name="rotation">00:00:00.000=0;00:00:03.033=0;00:00:03.967=0;00:00:04.067=0;00:00:04.467=0;00:00:07.300=0</property>
    <property name="compositing">0</property>
    <property name="distort">0</property>
    <property name="kdenlive:collapsed">0</property>
   </filter>
  </entry>
  <entry producer="producer0" in="00:00:00.000" out="00:00:03.533">
   <property name="kdenlive:id">82</property>
   <property name="kdenlive:activeeffect">1</property>
   <filter id="filter341">
    <property name="mlt_service">avfilter.unsharp</property>
    <property name="kdenlive_id">avfilter.unsharp</property>
    <property name="av.lx">5</property>
    <property name="av.ly">5</property>
    <property name="av.la">1.129</property>
    <property name="av.cx">5</property>
    <property name="av.cy">5</property>
    <property name="av.ca">1.066</property>
    <property name="kdenlive:collapsed">0</property>
   </filter>
   <filter id="filter342">
    <property name="rotate_center">1</property>
    <property name="mlt_service">qtblend</property>
    <property name="kdenlive_id">qtblend</property>
    <property name="rect">00:00:00.000=282 0 1920 1080 1.000000;00:00:00.800~=282 0 1920 1080 1.000000;00:00:01.767~=423 0 1920 1080 1.000000;00:00:03.533~=862 0 1920 1080 1.000000</property>
    <property name="rotation">00:00:00.000=0;00:00:00.800~=0;00:00:01.767~=0;00:00:03.533~=0</property>
    <property name="compositing">0</property>
    <property name="distort">0</property>
    <property name="kdenlive:collapsed">0</property>
   </filter>
   <filter id="filter343">
    <property name="version">0.1</property>
    <property name="mlt_service">frei0r.mask0mate</property>
    <property name="kdenlive_id">frei0r.mask0mate</property>
    <property name="Left">00:00:00.000=0.754</property>
    <property name="Right">00:00:00.000=0</property>
    <property name="Top">00:00:00.000=0</property>
    <property name="Bottom">00:00:00.000=0</property>
    <property name="Invert">1</property>
    <property name="Blur">00:00:00.000=0</property>
    <property name="kdenlive:collapsed">0</property>
    <property name="disable">0</property>
   </filter>
  </entry>
  <entry producer="producer181" in="00:00:00.000" out="00:00:02.633">
   <property name="kdenlive:id">128</property>
   <filter id="filter344">
    <property name="rotate_center">1</property>
    <property name="mlt_service">qtblend</property>
    <property name="kdenlive_id">qtblend</property>
    <property name="rect">00:00:00.000=105 25 500 500 1.000000</property>
    <property name="rotation">00:00:00.000=0</property>
    <property name="compositing">0</property>
    <property name="distort">0</property>
    <property name="kdenlive:collapsed">0</property>
   </filter>
   <filter id="filter345">
    <property name="mlt_service">avfilter.unsharp</property>
    <property name="kdenlive_id">avfilter.unsharp</property>
    <property name="av.lx">5</property>
    <property name="av.ly">5</property>
    <property name="av.la">2</property>
    <property name="av.cx">5</property>
    <property name="av.cy">5</property>
    <property name="av.ca">2</property>
    <property name="kdenlive:collapsed">0</property>
   </filter>
  </entry>
  <entry producer="producer182" in="00:00:00.000" out="00:00:07.233">
   <property name="kdenlive:id">63</property>
   <property name="kdenlive:activeeffect">1</property>
   <filter id="filter346">
    <property name="version">0.1</property>
    <property name="mlt_service">frei0r.scale0tilt</property>
    <property name="kdenlive_id">frei0r.scale0tilt</property>
    <property name="Clip left">00:00:00.000=0.111979</property>
    <property name="Clip right">00:00:00.000=0.119792</property>
    <property name="Clip top">00:00:00.000=0</property>
    <property name="Clip bottom">00:00:00.000=0</property>
    <property name="Scale X">0.345</property>
    <property name="Scale Y">0.35</property>
    <property name="Tilt X">00:00:00.000=0.5</property>
    <property name="Tilt Y">00:00:00.000=0.5</property>
    <property name="kdenlive:collapsed">0</property>
   </filter>
   <filter id="filter347">
    <property name="rotate_center">1</property>
    <property name="mlt_service">qtblend</property>
    <property name="kdenlive_id">qtblend</property>
    <property name="rect">00:00:00.000=33 26 944 720 1.000000</property>
    <property name="rotation">00:00:00.000=0</property>
    <property name="compositing">0</property>
    <property name="distort">0</property>
    <property name="kdenlive:collapsed">0</property>
   </filter>
   <filter id="filter348">
    <property name="mlt_service">avfilter.unsharp</property>
    <property name="kdenlive_id">avfilter.unsharp</property>
    <property name="av.lx">5</property>
    <property name="av.ly">5</property>
    <property name="av.la">0.74</property>
    <property name="av.cx">5</property>
    <property name="av.cy">5</property>
    <property name="av.ca">1.12</property>
    <property name="kdenlive:collapsed">0</property>
   </filter>
  </entry>
  <entry producer="producer183" in="00:00:00.000" out="00:00:02.633">
   <property name="kdenlive:id">122</property>
   <filter id="filter349">
    <property name="rotate_center">1</property>
    <property name="mlt_service">qtblend</property>
    <property name="kdenlive_id">qtblend</property>
    <property name="rect">00:00:00.000=105 25 500 500 1.000000</property>
    <property name="rotation">00:00:00.000=0</property>
    <property name="compositing">0</property>
    <property name="distort">0</property>
    <property name="kdenlive:collapsed">0</property>
   </filter>
   <filter id="filter350">
    <property name="mlt_service">avfilter.unsharp</property>
    <property name="kdenlive_id">avfilter.unsharp</property>
    <property name="av.lx">5</property>
    <property name="av.ly">5</property>
    <property name="av.la">2</property>
    <property name="av.cx">5</property>
    <property name="av.cy">5</property>
    <property name="av.ca">2</property>
    <property name="kdenlive:collapsed">0</property>
   </filter>
  </entry>
  <blank length="00:01:06.100"/>
  <entry producer="producer56" in="00:00:00.000" out="00:00:07.533">
   <property name="kdenlive:id">140</property>
   <filter id="filter178" in="00:00:04.700" out="00:00:07.533">
    <property name="start">1</property>
    <property name="mlt_service">brightness</property>
    <property name="kdenlive_id">fade_to_black</property>
    <property name="end">0</property>
    <property name="alpha">-1</property>
    <property name="kdenlive:collapsed">0</property>
   </filter>
   <filter id="filter179" out="00:00:01.067">
    <property name="start">0</property>
    <property name="mlt_service">brightness</property>
    <property name="kdenlive_id">fade_from_black</property>
    <property name="end">1</property>
    <property name="alpha">-1</property>
    <property name="kdenlive:collapsed">0</property>
   </filter>
  </entry>
 </playlist>
 <playlist id="playlist21"/>
 <tractor id="tractor10" in="00:00:00.000" out="00:06:50.600">
  <property name="kdenlive:trackheight">69</property>
  <property name="kdenlive:timeline_active">1</property>
  <property name="kdenlive:collapsed">0</property>
  <property name="kdenlive:track_name">sarah</property>
  <property name="kdenlive:thumbs_format"/>
  <property name="kdenlive:audio_rec"/>
  <track hide="audio" producer="playlist20"/>
  <track producer="playlist21"/>
 </tractor>
 <producer id="producer184" in="00:00:00.000" out="00:05:53.700">
  <property name="length">10612</property>
  <property name="eof">pause</property>
  <property name="resource">/home/ryankelln/.cache/kdenlive/proxy/4180d2fd868745abd6d5f8a1d6483ec1.mkv</property>
  <property name="audio_index">1</property>
  <property name="video_index">0</property>
  <property name="mute_on_pause">0</property>
  <property name="mlt_service">avformat-novalidate</property>
  <property name="seekable">1</property>
  <property name="aspect_ratio">1</property>
  <property name="kdenlive:clipname">2021-06-02_Caleb_upright+4k+portrait_suzy_P1000540-take1_beginning-to-DS.MP4</property>
  <property name="kdenlive:folderid">103</property>
  <property name="kdenlive:id">74</property>
  <property name="kdenlive:file_size">4241140404</property>
  <property name="kdenlive:file_hash">4180d2fd868745abd6d5f8a1d6483ec1</property>
  <property name="kdenlive:proxy">/home/ryankelln/.cache/kdenlive/proxy/4180d2fd868745abd6d5f8a1d6483ec1.mkv</property>
  <property name="kdenlive:originalurl">content/musicians/2021-06-02_Caleb_upright+4k+portrait_suzy_P1000540-take1_beginning-to-DS.MP4</property>
  <property name="kdenlive:original.mlt_type">producer</property>
  <property name="kdenlive:original.in">0</property>
  <property name="kdenlive:original.out">10611</property>
  <property name="kdenlive:original.length">10612</property>
  <property name="kdenlive:original.eof">pause</property>
  <property name="kdenlive:original.resource">content/musicians/2021-06-02_Caleb_upright+4k+portrait_suzy_P1000540-take1_beginning-to-DS.MP4</property>
  <property name="kdenlive:original.meta.media.nb_streams">2</property>
  <property name="kdenlive:original.meta.media.0.stream.type">video</property>
  <property name="kdenlive:original.meta.media.0.stream.frame_rate">29.9699</property>
  <property name="kdenlive:original.meta.media.0.stream.sample_aspect_ratio">1</property>
  <property name="kdenlive:original.meta.media.0.codec.width">3328</property>
  <property name="kdenlive:original.meta.media.0.codec.height">2496</property>
  <property name="kdenlive:original.meta.media.0.codec.rotate">90</property>
  <property name="kdenlive:original.meta.media.0.codec.frame_rate">29.97</property>
  <property name="kdenlive:original.meta.media.0.codec.pix_fmt">yuvj420p</property>
  <property name="kdenlive:original.meta.media.0.codec.sample_aspect_ratio">1</property>
  <property name="kdenlive:original.meta.media.0.codec.colorspace">709</property>
  <property name="kdenlive:original.meta.media.0.codec.color_trc">1</property>
  <property name="kdenlive:original.meta.media.0.codec.name">h264</property>
  <property name="kdenlive:original.meta.media.0.codec.long_name">H.264 / AVC / MPEG-4 AVC / MPEG-4 part 10</property>
  <property name="kdenlive:original.meta.media.0.codec.bit_rate">95795710</property>
  <property name="kdenlive:original.meta.attr.0.stream.rotate.markup">90</property>
  <property name="kdenlive:original.meta.attr.0.stream.handler_name.markup">VideoHandler</property>
  <property name="kdenlive:original.meta.media.1.stream.type">audio</property>
  <property name="kdenlive:original.meta.media.1.codec.sample_fmt">fltp</property>
  <property name="kdenlive:original.meta.media.1.codec.sample_rate">48000</property>
  <property name="kdenlive:original.meta.media.1.codec.channels">2</property>
  <property name="kdenlive:original.meta.media.1.codec.name">aac</property>
  <property name="kdenlive:original.meta.media.1.codec.long_name">AAC (Advanced Audio Coding)</property>
  <property name="kdenlive:original.meta.media.1.codec.bit_rate">125376</property>
  <property name="kdenlive:original.meta.attr.1.stream.handler_name.markup">SoundHandler</property>
  <property name="kdenlive:original.meta.attr.major_brand.markup">isom</property>
  <property name="kdenlive:original.meta.attr.minor_version.markup">512</property>
  <property name="kdenlive:original.meta.attr.compatible_brands.markup">isomiso2avc1mp41</property>
  <property name="kdenlive:original.meta.attr.encoder.markup">Lavf58.45.100</property>
  <property name="kdenlive:original.seekable">1</property>
  <property name="kdenlive:original.width">3328</property>
  <property name="kdenlive:original.height">2496</property>
  <property name="kdenlive:original.meta.media.sample_aspect_num">1</property>
  <property name="kdenlive:original.meta.media.sample_aspect_den">1</property>
  <property name="kdenlive:original.aspect_ratio">1</property>
  <property name="kdenlive:original.audio_index">1</property>
  <property name="kdenlive:original.video_index">0</property>
  <property name="kdenlive:original.mute_on_pause">0</property>
  <property name="kdenlive:original.mlt_service">avformat-novalidate</property>
  <property name="kdenlive:original.kdenlive:folderid">103</property>
  <property name="kdenlive:original.meta.media.frame_rate_num">13252500</property>
  <property name="kdenlive:original.meta.media.frame_rate_den">442193</property>
  <property name="kdenlive:original.meta.media.colorspace">709</property>
  <property name="kdenlive:original.meta.media.color_trc">1</property>
  <property name="kdenlive:original.meta.media.width">2496</property>
  <property name="kdenlive:original.meta.media.height">3328</property>
  <property name="kdenlive:original.meta.media.color_range">full</property>
  <property name="kdenlive:original.kdenlive:id">109</property>
  <property name="kdenlive:original.kdenlive:file_size">4241140404</property>
  <property name="kdenlive:original.kdenlive:file_hash">4180d2fd868745abd6d5f8a1d6483ec1</property>
  <property name="kdenlive:original.backup">1</property>
  <property name="kdenlive:audio_max">1</property>
  <property name="global_feed">1</property>
  <property name="kdenlive:activeeffect">1</property>
  <property name="xml">was here</property>
  <property name="meta.media.nb_streams">2</property>
  <property name="meta.media.0.stream.type">video</property>
  <property name="meta.media.0.stream.frame_rate">29.97</property>
  <property name="meta.media.0.stream.sample_aspect_ratio">1</property>
  <property name="meta.media.0.codec.width">960</property>
  <property name="meta.media.0.codec.height">1280</property>
  <property name="meta.media.0.codec.rotate">0</property>
  <property name="meta.media.0.codec.frame_rate">1000</property>
  <property name="meta.media.0.codec.pix_fmt">yuvj420p</property>
  <property name="meta.media.0.codec.sample_aspect_ratio">1</property>
  <property name="meta.media.0.codec.colorspace">601</property>
  <property name="meta.media.0.codec.name">mjpeg</property>
  <property name="meta.media.0.codec.long_name">MJPEG (Motion JPEG)</property>
  <property name="meta.media.0.codec.bit_rate">0</property>
  <property name="meta.attr.0.stream.ENCODER.markup">Lavc58.91.100 mjpeg</property>
  <property name="meta.attr.0.stream.HANDLER_NAME.markup">VideoHandler</property>
  <property name="meta.attr.0.stream.DURATION.markup">00:05:53.786000000</property>
  <property name="meta.media.1.stream.type">audio</property>
  <property name="meta.media.1.codec.sample_fmt">s16</property>
  <property name="meta.media.1.codec.sample_rate">48000</property>
  <property name="meta.media.1.codec.channels">2</property>
  <property name="meta.media.1.codec.name">pcm_s16le</property>
  <property name="meta.media.1.codec.long_name">PCM signed 16-bit little-endian</property>
  <property name="meta.media.1.codec.bit_rate">1536000</property>
  <property name="meta.attr.1.stream.HANDLER_NAME.markup">SoundHandler</property>
  <property name="meta.attr.1.stream.ENCODER.markup">Lavc58.91.100 pcm_s16le</property>
  <property name="meta.attr.1.stream.DURATION.markup">00:05:53.744000000</property>
  <property name="meta.attr.COMPATIBLE_BRANDS.markup">isomiso2avc1mp41</property>
  <property name="meta.attr.MAJOR_BRAND.markup">isom</property>
  <property name="meta.attr.MINOR_VERSION.markup">512</property>
  <property name="meta.attr.ENCODER.markup">Lavf58.45.100</property>
  <property name="meta.media.sample_aspect_num">1</property>
  <property name="meta.media.sample_aspect_den">1</property>
  <property name="meta.media.frame_rate_num">30000</property>
  <property name="meta.media.frame_rate_den">1001</property>
  <property name="meta.media.colorspace">601</property>
  <property name="meta.media.color_trc">2</property>
  <property name="meta.media.width">960</property>
  <property name="meta.media.height">1280</property>
  <property name="meta.media.color_range">full</property>
  <property name="meta.media.top_field_first">0</property>
  <property name="meta.media.progressive">1</property>
  <property name="set.test_audio">1</property>
  <property name="set.test_image">0</property>
  <filter id="filter180">
   <property name="version">0.1</property>
   <property name="mlt_service">frei0r.hqdn3d</property>
   <property name="kdenlive_id">frei0r.hqdn3d</property>
   <property name="Spatial">00:00:00.000=0.01</property>
   <property name="Temporal">00:00:00.000=0.01</property>
  </filter>
  <filter id="filter181">
   <property name="version">0.6</property>
   <property name="mlt_service">frei0r.select0r</property>
   <property name="kdenlive_id">frei0r.select0r</property>
   <property name="Color to select">0x58af5eff</property>
   <property name="Invert selection">1</property>
   <property name="Selection subspace">1</property>
   <property name="Subspace shape">0</property>
   <property name="Edge mode">0.9</property>
   <property name="Delta R / A / Hue">00:00:00.000=0.045</property>
   <property name="Delta G / B / Chroma">00:00:00.000=0.215</property>
   <property name="Delta B / I / I">00:00:00.000=0.31</property>
   <property name="Slope">00:00:00.000=0.085</property>
   <property name="Operation">0.5</property>
  </filter>
  <filter id="filter182">
   <property name="mlt_service">avfilter.despill</property>
   <property name="kdenlive_id">avfilter.despill</property>
   <property name="av.type">green</property>
   <property name="av.mix">0.096</property>
   <property name="av.expand">0.037</property>
   <property name="av.red">0</property>
   <property name="av.green">-0.7</property>
   <property name="av.blue">-0.6</property>
   <property name="av.brightness">0</property>
  </filter>
 </producer>
 <producer id="producer185" in="00:00:00.000" out="00:05:53.700">
  <property name="length">10612</property>
  <property name="eof">pause</property>
  <property name="resource">/home/ryankelln/.cache/kdenlive/proxy/4180d2fd868745abd6d5f8a1d6483ec1.mkv</property>
  <property name="audio_index">1</property>
  <property name="video_index">0</property>
  <property name="mute_on_pause">0</property>
  <property name="mlt_service">avformat-novalidate</property>
  <property name="seekable">1</property>
  <property name="aspect_ratio">1</property>
  <property name="kdenlive:clipname">2021-06-02_Caleb_upright+4k+portrait_suzy_P1000540-take1_beginning-to-DS.MP4</property>
  <property name="kdenlive:folderid">103</property>
  <property name="kdenlive:id">74</property>
  <property name="kdenlive:file_size">4241140404</property>
  <property name="kdenlive:file_hash">4180d2fd868745abd6d5f8a1d6483ec1</property>
  <property name="kdenlive:proxy">/home/ryankelln/.cache/kdenlive/proxy/4180d2fd868745abd6d5f8a1d6483ec1.mkv</property>
  <property name="kdenlive:originalurl">content/musicians/2021-06-02_Caleb_upright+4k+portrait_suzy_P1000540-take1_beginning-to-DS.MP4</property>
  <property name="kdenlive:original.mlt_type">producer</property>
  <property name="kdenlive:original.in">0</property>
  <property name="kdenlive:original.out">10611</property>
  <property name="kdenlive:original.length">10612</property>
  <property name="kdenlive:original.eof">pause</property>
  <property name="kdenlive:original.resource">content/musicians/2021-06-02_Caleb_upright+4k+portrait_suzy_P1000540-take1_beginning-to-DS.MP4</property>
  <property name="kdenlive:original.meta.media.nb_streams">2</property>
  <property name="kdenlive:original.meta.media.0.stream.type">video</property>
  <property name="kdenlive:original.meta.media.0.stream.frame_rate">29.9699</property>
  <property name="kdenlive:original.meta.media.0.stream.sample_aspect_ratio">1</property>
  <property name="kdenlive:original.meta.media.0.codec.width">3328</property>
  <property name="kdenlive:original.meta.media.0.codec.height">2496</property>
  <property name="kdenlive:original.meta.media.0.codec.rotate">90</property>
  <property name="kdenlive:original.meta.media.0.codec.frame_rate">29.97</property>
  <property name="kdenlive:original.meta.media.0.codec.pix_fmt">yuvj420p</property>
  <property name="kdenlive:original.meta.media.0.codec.sample_aspect_ratio">1</property>
  <property name="kdenlive:original.meta.media.0.codec.colorspace">709</property>
  <property name="kdenlive:original.meta.media.0.codec.color_trc">1</property>
  <property name="kdenlive:original.meta.media.0.codec.name">h264</property>
  <property name="kdenlive:original.meta.media.0.codec.long_name">H.264 / AVC / MPEG-4 AVC / MPEG-4 part 10</property>
  <property name="kdenlive:original.meta.media.0.codec.bit_rate">95795710</property>
  <property name="kdenlive:original.meta.attr.0.stream.rotate.markup">90</property>
  <property name="kdenlive:original.meta.attr.0.stream.handler_name.markup">VideoHandler</property>
  <property name="kdenlive:original.meta.media.1.stream.type">audio</property>
  <property name="kdenlive:original.meta.media.1.codec.sample_fmt">fltp</property>
  <property name="kdenlive:original.meta.media.1.codec.sample_rate">48000</property>
  <property name="kdenlive:original.meta.media.1.codec.channels">2</property>
  <property name="kdenlive:original.meta.media.1.codec.name">aac</property>
  <property name="kdenlive:original.meta.media.1.codec.long_name">AAC (Advanced Audio Coding)</property>
  <property name="kdenlive:original.meta.media.1.codec.bit_rate">125376</property>
  <property name="kdenlive:original.meta.attr.1.stream.handler_name.markup">SoundHandler</property>
  <property name="kdenlive:original.meta.attr.major_brand.markup">isom</property>
  <property name="kdenlive:original.meta.attr.minor_version.markup">512</property>
  <property name="kdenlive:original.meta.attr.compatible_brands.markup">isomiso2avc1mp41</property>
  <property name="kdenlive:original.meta.attr.encoder.markup">Lavf58.45.100</property>
  <property name="kdenlive:original.seekable">1</property>
  <property name="kdenlive:original.width">3328</property>
  <property name="kdenlive:original.height">2496</property>
  <property name="kdenlive:original.meta.media.sample_aspect_num">1</property>
  <property name="kdenlive:original.meta.media.sample_aspect_den">1</property>
  <property name="kdenlive:original.aspect_ratio">1</property>
  <property name="kdenlive:original.audio_index">1</property>
  <property name="kdenlive:original.video_index">0</property>
  <property name="kdenlive:original.mute_on_pause">0</property>
  <property name="kdenlive:original.mlt_service">avformat-novalidate</property>
  <property name="kdenlive:original.kdenlive:folderid">103</property>
  <property name="kdenlive:original.meta.media.frame_rate_num">13252500</property>
  <property name="kdenlive:original.meta.media.frame_rate_den">442193</property>
  <property name="kdenlive:original.meta.media.colorspace">709</property>
  <property name="kdenlive:original.meta.media.color_trc">1</property>
  <property name="kdenlive:original.meta.media.width">2496</property>
  <property name="kdenlive:original.meta.media.height">3328</property>
  <property name="kdenlive:original.meta.media.color_range">full</property>
  <property name="kdenlive:original.kdenlive:id">109</property>
  <property name="kdenlive:original.kdenlive:file_size">4241140404</property>
  <property name="kdenlive:original.kdenlive:file_hash">4180d2fd868745abd6d5f8a1d6483ec1</property>
  <property name="kdenlive:original.backup">1</property>
  <property name="kdenlive:audio_max">1</property>
  <property name="global_feed">1</property>
  <property name="kdenlive:activeeffect">1</property>
  <property name="xml">was here</property>
  <property name="meta.media.nb_streams">2</property>
  <property name="meta.media.0.stream.type">video</property>
  <property name="meta.media.0.stream.frame_rate">29.97</property>
  <property name="meta.media.0.stream.sample_aspect_ratio">1</property>
  <property name="meta.media.0.codec.width">960</property>
  <property name="meta.media.0.codec.height">1280</property>
  <property name="meta.media.0.codec.rotate">0</property>
  <property name="meta.media.0.codec.frame_rate">1000</property>
  <property name="meta.media.0.codec.pix_fmt">yuvj420p</property>
  <property name="meta.media.0.codec.sample_aspect_ratio">1</property>
  <property name="meta.media.0.codec.colorspace">601</property>
  <property name="meta.media.0.codec.name">mjpeg</property>
  <property name="meta.media.0.codec.long_name">MJPEG (Motion JPEG)</property>
  <property name="meta.media.0.codec.bit_rate">0</property>
  <property name="meta.attr.0.stream.ENCODER.markup">Lavc58.91.100 mjpeg</property>
  <property name="meta.attr.0.stream.HANDLER_NAME.markup">VideoHandler</property>
  <property name="meta.attr.0.stream.DURATION.markup">00:05:53.786000000</property>
  <property name="meta.media.1.stream.type">audio</property>
  <property name="meta.media.1.codec.sample_fmt">s16</property>
  <property name="meta.media.1.codec.sample_rate">48000</property>
  <property name="meta.media.1.codec.channels">2</property>
  <property name="meta.media.1.codec.name">pcm_s16le</property>
  <property name="meta.media.1.codec.long_name">PCM signed 16-bit little-endian</property>
  <property name="meta.media.1.codec.bit_rate">1536000</property>
  <property name="meta.attr.1.stream.HANDLER_NAME.markup">SoundHandler</property>
  <property name="meta.attr.1.stream.ENCODER.markup">Lavc58.91.100 pcm_s16le</property>
  <property name="meta.attr.1.stream.DURATION.markup">00:05:53.744000000</property>
  <property name="meta.attr.COMPATIBLE_BRANDS.markup">isomiso2avc1mp41</property>
  <property name="meta.attr.MAJOR_BRAND.markup">isom</property>
  <property name="meta.attr.MINOR_VERSION.markup">512</property>
  <property name="meta.attr.ENCODER.markup">Lavf58.45.100</property>
  <property name="meta.media.sample_aspect_num">1</property>
  <property name="meta.media.sample_aspect_den">1</property>
  <property name="meta.media.frame_rate_num">30000</property>
  <property name="meta.media.frame_rate_den">1001</property>
  <property name="meta.media.colorspace">601</property>
  <property name="meta.media.color_trc">2</property>
  <property name="meta.media.width">960</property>
  <property name="meta.media.height">1280</property>
  <property name="meta.media.color_range">full</property>
  <property name="meta.media.top_field_first">0</property>
  <property name="meta.media.progressive">1</property>
  <property name="set.test_audio">1</property>
  <property name="set.test_image">1</property>
  <filter id="filter183">
   <property name="version">0.1</property>
   <property name="mlt_service">frei0r.hqdn3d</property>
   <property name="kdenlive_id">frei0r.hqdn3d</property>
   <property name="Spatial">00:00:00.000=0.01</property>
   <property name="Temporal">00:00:00.000=0.01</property>
   <property name="kdenlive:collapsed">0</property>
  </filter>
  <filter id="filter184">
   <property name="version">0.6</property>
   <property name="mlt_service">frei0r.select0r</property>
   <property name="kdenlive_id">frei0r.select0r</property>
   <property name="Color to select">0x58af5eff</property>
   <property name="Invert selection">1</property>
   <property name="Selection subspace">1</property>
   <property name="Subspace shape">0</property>
   <property name="Edge mode">0.9</property>
   <property name="Delta R / A / Hue">00:00:00.000=0.045</property>
   <property name="Delta G / B / Chroma">00:00:00.000=0.215</property>
   <property name="Delta B / I / I">00:00:00.000=0.31</property>
   <property name="Slope">00:00:00.000=0.085</property>
   <property name="Operation">0.5</property>
   <property name="kdenlive:collapsed">0</property>
  </filter>
  <filter id="filter185">
   <property name="mlt_service">avfilter.despill</property>
   <property name="kdenlive_id">avfilter.despill</property>
   <property name="av.type">green</property>
   <property name="av.mix">0.096</property>
   <property name="av.expand">0.037</property>
   <property name="av.red">0</property>
   <property name="av.green">-0.7</property>
   <property name="av.blue">-0.6</property>
   <property name="av.brightness">0</property>
   <property name="kdenlive:collapsed">0</property>
  </filter>
  <filter id="filter186">
   <property name="version">0.1</property>
   <property name="mlt_service">frei0r.hqdn3d</property>
   <property name="kdenlive_id">frei0r.hqdn3d</property>
   <property name="Spatial">00:00:00.000=0.01</property>
   <property name="Temporal">00:00:00.000=0.01</property>
  </filter>
  <filter id="filter187">
   <property name="version">0.6</property>
   <property name="mlt_service">frei0r.select0r</property>
   <property name="kdenlive_id">frei0r.select0r</property>
   <property name="Color to select">0x58af5eff</property>
   <property name="Invert selection">1</property>
   <property name="Selection subspace">1</property>
   <property name="Subspace shape">0</property>
   <property name="Edge mode">0.9</property>
   <property name="Delta R / A / Hue">00:00:00.000=0.045</property>
   <property name="Delta G / B / Chroma">00:00:00.000=0.215</property>
   <property name="Delta B / I / I">00:00:00.000=0.31</property>
   <property name="Slope">00:00:00.000=0.085</property>
   <property name="Operation">0.5</property>
  </filter>
  <filter id="filter188">
   <property name="mlt_service">avfilter.despill</property>
   <property name="kdenlive_id">avfilter.despill</property>
   <property name="av.type">green</property>
   <property name="av.mix">0.096</property>
   <property name="av.expand">0.037</property>
   <property name="av.red">0</property>
   <property name="av.green">-0.7</property>
   <property name="av.blue">-0.6</property>
   <property name="av.brightness">0</property>
  </filter>
 </producer>
 <producer id="producer186" in="00:00:00.000" out="00:02:45.400">
  <property name="length">4963</property>
  <property name="eof">pause</property>
  <property name="resource">/home/ryankelln/.cache/kdenlive/proxy/4c6b1c5993fa9d9041b89d5053614339.mkv</property>
  <property name="audio_index">1</property>
  <property name="video_index">0</property>
  <property name="mute_on_pause">0</property>
  <property name="mlt_service">avformat-novalidate</property>
  <property name="seekable">1</property>
  <property name="aspect_ratio">1</property>
  <property name="kdenlive:clipname">2021-06-02_Caleb_upright+4k+portrait_suzy_P1000542-take4_ending.MP4</property>
  <property name="kdenlive:folderid">103</property>
  <property name="kdenlive:id">75</property>
  <property name="kdenlive:file_size">1983857296</property>
  <property name="kdenlive:file_hash">4c6b1c5993fa9d9041b89d5053614339</property>
  <property name="kdenlive:proxy">/home/ryankelln/.cache/kdenlive/proxy/4c6b1c5993fa9d9041b89d5053614339.mkv</property>
  <property name="kdenlive:originalurl">content/musicians/2021-06-02_Caleb_upright+4k+portrait_suzy_P1000542-take4_ending.MP4</property>
  <property name="kdenlive:original.mlt_type">producer</property>
  <property name="kdenlive:original.in">0</property>
  <property name="kdenlive:original.out">4962</property>
  <property name="kdenlive:original.length">4963</property>
  <property name="kdenlive:original.eof">pause</property>
  <property name="kdenlive:original.resource">content/musicians/2021-06-02_Caleb_upright+4k+portrait_suzy_P1000542-take4_ending.MP4</property>
  <property name="kdenlive:original.meta.media.nb_streams">2</property>
  <property name="kdenlive:original.meta.media.0.stream.type">video</property>
  <property name="kdenlive:original.meta.media.0.stream.frame_rate">29.97</property>
  <property name="kdenlive:original.meta.media.0.stream.sample_aspect_ratio">1</property>
  <property name="kdenlive:original.meta.media.0.codec.width">3328</property>
  <property name="kdenlive:original.meta.media.0.codec.height">2496</property>
  <property name="kdenlive:original.meta.media.0.codec.rotate">90</property>
  <property name="kdenlive:original.meta.media.0.codec.frame_rate">29.97</property>
  <property name="kdenlive:original.meta.media.0.codec.pix_fmt">yuvj420p</property>
  <property name="kdenlive:original.meta.media.0.codec.sample_aspect_ratio">1</property>
  <property name="kdenlive:original.meta.media.0.codec.colorspace">709</property>
  <property name="kdenlive:original.meta.media.0.codec.color_trc">1</property>
  <property name="kdenlive:original.meta.media.0.codec.name">h264</property>
  <property name="kdenlive:original.meta.media.0.codec.long_name">H.264 / AVC / MPEG-4 AVC / MPEG-4 part 10</property>
  <property name="kdenlive:original.meta.media.0.codec.bit_rate">95821270</property>
  <property name="kdenlive:original.meta.attr.0.stream.rotate.markup">90</property>
  <property name="kdenlive:original.meta.attr.0.stream.creation_time.markup">2021-06-02T16:31:46.000000Z</property>
  <property name="kdenlive:original.meta.attr.0.stream.handler_name.markup">VideoHandler</property>
  <property name="kdenlive:original.meta.media.1.stream.type">audio</property>
  <property name="kdenlive:original.meta.media.1.codec.sample_fmt">fltp</property>
  <property name="kdenlive:original.meta.media.1.codec.sample_rate">48000</property>
  <property name="kdenlive:original.meta.media.1.codec.channels">2</property>
  <property name="kdenlive:original.meta.media.1.codec.name">aac</property>
  <property name="kdenlive:original.meta.media.1.codec.long_name">AAC (Advanced Audio Coding)</property>
  <property name="kdenlive:original.meta.media.1.codec.bit_rate">125374</property>
  <property name="kdenlive:original.meta.attr.1.stream.creation_time.markup">2021-06-02T16:31:46.000000Z</property>
  <property name="kdenlive:original.meta.attr.1.stream.handler_name.markup">SoundHandler</property>
  <property name="kdenlive:original.meta.attr.major_brand.markup">isom</property>
  <property name="kdenlive:original.meta.attr.minor_version.markup">512</property>
  <property name="kdenlive:original.meta.attr.compatible_brands.markup">isomiso2avc1mp41</property>
  <property name="kdenlive:original.meta.attr.creation_time.markup">2021-06-02T16:31:46.000000Z</property>
  <property name="kdenlive:original.meta.attr.encoder.markup">Lavf58.45.100</property>
  <property name="kdenlive:original.seekable">1</property>
  <property name="kdenlive:original.width">3328</property>
  <property name="kdenlive:original.height">2496</property>
  <property name="kdenlive:original.meta.media.sample_aspect_num">1</property>
  <property name="kdenlive:original.meta.media.sample_aspect_den">1</property>
  <property name="kdenlive:original.aspect_ratio">1</property>
  <property name="kdenlive:original.audio_index">1</property>
  <property name="kdenlive:original.video_index">0</property>
  <property name="kdenlive:original.mute_on_pause">0</property>
  <property name="kdenlive:original.mlt_service">avformat-novalidate</property>
  <property name="kdenlive:original.kdenlive:folderid">103</property>
  <property name="kdenlive:original.meta.media.frame_rate_num">30000</property>
  <property name="kdenlive:original.meta.media.frame_rate_den">1001</property>
  <property name="kdenlive:original.meta.media.colorspace">709</property>
  <property name="kdenlive:original.meta.media.color_trc">1</property>
  <property name="kdenlive:original.meta.media.width">2496</property>
  <property name="kdenlive:original.meta.media.height">3328</property>
  <property name="kdenlive:original.meta.media.color_range">full</property>
  <property name="kdenlive:original.kdenlive:id">110</property>
  <property name="kdenlive:original.kdenlive:file_size">1983857296</property>
  <property name="kdenlive:original.kdenlive:file_hash">4c6b1c5993fa9d9041b89d5053614339</property>
  <property name="kdenlive:original.backup">1</property>
  <property name="kdenlive:audio_max">1</property>
  <property name="global_feed">1</property>
  <property name="kdenlive:activeeffect">2</property>
  <property name="xml">was here</property>
  <property name="meta.media.nb_streams">2</property>
  <property name="meta.media.0.stream.type">video</property>
  <property name="meta.media.0.stream.frame_rate">29.97</property>
  <property name="meta.media.0.stream.sample_aspect_ratio">1</property>
  <property name="meta.media.0.codec.width">960</property>
  <property name="meta.media.0.codec.height">1280</property>
  <property name="meta.media.0.codec.rotate">0</property>
  <property name="meta.media.0.codec.frame_rate">1000</property>
  <property name="meta.media.0.codec.pix_fmt">yuvj420p</property>
  <property name="meta.media.0.codec.sample_aspect_ratio">1</property>
  <property name="meta.media.0.codec.colorspace">601</property>
  <property name="meta.media.0.codec.name">mjpeg</property>
  <property name="meta.media.0.codec.long_name">MJPEG (Motion JPEG)</property>
  <property name="meta.media.0.codec.bit_rate">0</property>
  <property name="meta.attr.0.stream.ENCODER.markup">Lavc58.91.100 mjpeg</property>
  <property name="meta.attr.0.stream.HANDLER_NAME.markup">VideoHandler</property>
  <property name="meta.attr.0.stream.DURATION.markup">00:02:45.498000000</property>
  <property name="meta.media.1.stream.type">audio</property>
  <property name="meta.media.1.codec.sample_fmt">s16</property>
  <property name="meta.media.1.codec.sample_rate">48000</property>
  <property name="meta.media.1.codec.channels">2</property>
  <property name="meta.media.1.codec.name">pcm_s16le</property>
  <property name="meta.media.1.codec.long_name">PCM signed 16-bit little-endian</property>
  <property name="meta.media.1.codec.bit_rate">1536000</property>
  <property name="meta.attr.1.stream.HANDLER_NAME.markup">SoundHandler</property>
  <property name="meta.attr.1.stream.ENCODER.markup">Lavc58.91.100 pcm_s16le</property>
  <property name="meta.attr.1.stream.DURATION.markup">00:02:45.440000000</property>
  <property name="meta.attr.COMPATIBLE_BRANDS.markup">isomiso2avc1mp41</property>
  <property name="meta.attr.MAJOR_BRAND.markup">isom</property>
  <property name="meta.attr.MINOR_VERSION.markup">512</property>
  <property name="meta.attr.ENCODER.markup">Lavf58.45.100</property>
  <property name="meta.media.sample_aspect_num">1</property>
  <property name="meta.media.sample_aspect_den">1</property>
  <property name="meta.media.frame_rate_num">30000</property>
  <property name="meta.media.frame_rate_den">1001</property>
  <property name="meta.media.colorspace">601</property>
  <property name="meta.media.color_trc">2</property>
  <property name="meta.media.width">960</property>
  <property name="meta.media.height">1280</property>
  <property name="meta.media.color_range">full</property>
  <property name="meta.media.top_field_first">0</property>
  <property name="meta.media.progressive">1</property>
  <property name="set.test_audio">1</property>
  <property name="set.test_image">1</property>
  <filter id="filter191">
   <property name="version">0.1</property>
   <property name="mlt_service">frei0r.hqdn3d</property>
   <property name="kdenlive_id">frei0r.hqdn3d</property>
   <property name="Spatial">00:00:00.000=0.01</property>
   <property name="Temporal">00:00:00.000=0.01</property>
   <property name="kdenlive:collapsed">0</property>
  </filter>
  <filter id="filter192">
   <property name="version">0.6</property>
   <property name="mlt_service">frei0r.select0r</property>
   <property name="kdenlive_id">frei0r.select0r</property>
   <property name="Color to select">0x58af5eff</property>
   <property name="Invert selection">1</property>
   <property name="Selection subspace">1</property>
   <property name="Subspace shape">0</property>
   <property name="Edge mode">0.9</property>
   <property name="Delta R / A / Hue">00:00:00.000=0.035</property>
   <property name="Delta G / B / Chroma">00:00:00.000=0.205</property>
   <property name="Delta B / I / I">00:00:00.000=0.302</property>
   <property name="Slope">00:00:00.000=0.08</property>
   <property name="Operation">0.5</property>
   <property name="kdenlive:collapsed">0</property>
   <property name="disable">0</property>
  </filter>
  <filter id="filter195">
   <property name="mlt_service">avfilter.despill</property>
   <property name="kdenlive_id">avfilter.despill</property>
   <property name="av.type">green</property>
   <property name="av.mix">0.096</property>
   <property name="av.expand">0.037</property>
   <property name="av.red">0</property>
   <property name="av.green">-0.7</property>
   <property name="av.blue">-0.6</property>
   <property name="av.brightness">0</property>
   <property name="kdenlive:collapsed">0</property>
  </filter>
  <filter id="filter196">
   <property name="version">0.1</property>
   <property name="mlt_service">frei0r.hqdn3d</property>
   <property name="kdenlive_id">frei0r.hqdn3d</property>
   <property name="Spatial">00:00:00.000=0.01</property>
   <property name="Temporal">00:00:00.000=0.01</property>
  </filter>
  <filter id="filter200">
   <property name="version">0.6</property>
   <property name="mlt_service">frei0r.select0r</property>
   <property name="kdenlive_id">frei0r.select0r</property>
   <property name="Color to select">0x58af5eff</property>
   <property name="Invert selection">1</property>
   <property name="Selection subspace">1</property>
   <property name="Subspace shape">0</property>
   <property name="Edge mode">0.9</property>
   <property name="Delta R / A / Hue">00:00:00.000=0.035</property>
   <property name="Delta G / B / Chroma">00:00:00.000=0.205</property>
   <property name="Delta B / I / I">00:00:00.000=0.302</property>
   <property name="Slope">00:00:00.000=0.08</property>
   <property name="Operation">0.5</property>
  </filter>
  <filter id="filter229">
   <property name="mlt_service">avfilter.despill</property>
   <property name="kdenlive_id">avfilter.despill</property>
   <property name="av.type">green</property>
   <property name="av.mix">0.096</property>
   <property name="av.expand">0.037</property>
   <property name="av.red">0</property>
   <property name="av.green">-0.7</property>
   <property name="av.blue">-0.6</property>
   <property name="av.brightness">0</property>
  </filter>
 </producer>
 <producer id="producer187" in="00:00:00.000" out="00:02:45.400">
  <property name="length">4963</property>
  <property name="eof">pause</property>
  <property name="resource">/home/ryankelln/.cache/kdenlive/proxy/4c6b1c5993fa9d9041b89d5053614339.mkv</property>
  <property name="audio_index">1</property>
  <property name="video_index">0</property>
  <property name="mute_on_pause">0</property>
  <property name="mlt_service">avformat-novalidate</property>
  <property name="seekable">1</property>
  <property name="aspect_ratio">1</property>
  <property name="kdenlive:clipname">2021-06-02_Caleb_upright+4k+portrait_suzy_P1000542-take4_ending.MP4</property>
  <property name="kdenlive:folderid">103</property>
  <property name="kdenlive:id">75</property>
  <property name="kdenlive:file_size">1983857296</property>
  <property name="kdenlive:file_hash">4c6b1c5993fa9d9041b89d5053614339</property>
  <property name="kdenlive:proxy">/home/ryankelln/.cache/kdenlive/proxy/4c6b1c5993fa9d9041b89d5053614339.mkv</property>
  <property name="kdenlive:originalurl">content/musicians/2021-06-02_Caleb_upright+4k+portrait_suzy_P1000542-take4_ending.MP4</property>
  <property name="kdenlive:original.mlt_type">producer</property>
  <property name="kdenlive:original.in">0</property>
  <property name="kdenlive:original.out">4962</property>
  <property name="kdenlive:original.length">4963</property>
  <property name="kdenlive:original.eof">pause</property>
  <property name="kdenlive:original.resource">content/musicians/2021-06-02_Caleb_upright+4k+portrait_suzy_P1000542-take4_ending.MP4</property>
  <property name="kdenlive:original.meta.media.nb_streams">2</property>
  <property name="kdenlive:original.meta.media.0.stream.type">video</property>
  <property name="kdenlive:original.meta.media.0.stream.frame_rate">29.97</property>
  <property name="kdenlive:original.meta.media.0.stream.sample_aspect_ratio">1</property>
  <property name="kdenlive:original.meta.media.0.codec.width">3328</property>
  <property name="kdenlive:original.meta.media.0.codec.height">2496</property>
  <property name="kdenlive:original.meta.media.0.codec.rotate">90</property>
  <property name="kdenlive:original.meta.media.0.codec.frame_rate">29.97</property>
  <property name="kdenlive:original.meta.media.0.codec.pix_fmt">yuvj420p</property>
  <property name="kdenlive:original.meta.media.0.codec.sample_aspect_ratio">1</property>
  <property name="kdenlive:original.meta.media.0.codec.colorspace">709</property>
  <property name="kdenlive:original.meta.media.0.codec.color_trc">1</property>
  <property name="kdenlive:original.meta.media.0.codec.name">h264</property>
  <property name="kdenlive:original.meta.media.0.codec.long_name">H.264 / AVC / MPEG-4 AVC / MPEG-4 part 10</property>
  <property name="kdenlive:original.meta.media.0.codec.bit_rate">95821270</property>
  <property name="kdenlive:original.meta.attr.0.stream.rotate.markup">90</property>
  <property name="kdenlive:original.meta.attr.0.stream.creation_time.markup">2021-06-02T16:31:46.000000Z</property>
  <property name="kdenlive:original.meta.attr.0.stream.handler_name.markup">VideoHandler</property>
  <property name="kdenlive:original.meta.media.1.stream.type">audio</property>
  <property name="kdenlive:original.meta.media.1.codec.sample_fmt">fltp</property>
  <property name="kdenlive:original.meta.media.1.codec.sample_rate">48000</property>
  <property name="kdenlive:original.meta.media.1.codec.channels">2</property>
  <property name="kdenlive:original.meta.media.1.codec.name">aac</property>
  <property name="kdenlive:original.meta.media.1.codec.long_name">AAC (Advanced Audio Coding)</property>
  <property name="kdenlive:original.meta.media.1.codec.bit_rate">125374</property>
  <property name="kdenlive:original.meta.attr.1.stream.creation_time.markup">2021-06-02T16:31:46.000000Z</property>
  <property name="kdenlive:original.meta.attr.1.stream.handler_name.markup">SoundHandler</property>
  <property name="kdenlive:original.meta.attr.major_brand.markup">isom</property>
  <property name="kdenlive:original.meta.attr.minor_version.markup">512</property>
  <property name="kdenlive:original.meta.attr.compatible_brands.markup">isomiso2avc1mp41</property>
  <property name="kdenlive:original.meta.attr.creation_time.markup">2021-06-02T16:31:46.000000Z</property>
  <property name="kdenlive:original.meta.attr.encoder.markup">Lavf58.45.100</property>
  <property name="kdenlive:original.seekable">1</property>
  <property name="kdenlive:original.width">3328</property>
  <property name="kdenlive:original.height">2496</property>
  <property name="kdenlive:original.meta.media.sample_aspect_num">1</property>
  <property name="kdenlive:original.meta.media.sample_aspect_den">1</property>
  <property name="kdenlive:original.aspect_ratio">1</property>
  <property name="kdenlive:original.audio_index">1</property>
  <property name="kdenlive:original.video_index">0</property>
  <property name="kdenlive:original.mute_on_pause">0</property>
  <property name="kdenlive:original.mlt_service">avformat-novalidate</property>
  <property name="kdenlive:original.kdenlive:folderid">103</property>
  <property name="kdenlive:original.meta.media.frame_rate_num">30000</property>
  <property name="kdenlive:original.meta.media.frame_rate_den">1001</property>
  <property name="kdenlive:original.meta.media.colorspace">709</property>
  <property name="kdenlive:original.meta.media.color_trc">1</property>
  <property name="kdenlive:original.meta.media.width">2496</property>
  <property name="kdenlive:original.meta.media.height">3328</property>
  <property name="kdenlive:original.meta.media.color_range">full</property>
  <property name="kdenlive:original.kdenlive:id">110</property>
  <property name="kdenlive:original.kdenlive:file_size">1983857296</property>
  <property name="kdenlive:original.kdenlive:file_hash">4c6b1c5993fa9d9041b89d5053614339</property>
  <property name="kdenlive:original.backup">1</property>
  <property name="kdenlive:audio_max">1</property>
  <property name="global_feed">1</property>
  <property name="kdenlive:activeeffect">2</property>
  <property name="xml">was here</property>
  <property name="meta.media.nb_streams">2</property>
  <property name="meta.media.0.stream.type">video</property>
  <property name="meta.media.0.stream.frame_rate">29.97</property>
  <property name="meta.media.0.stream.sample_aspect_ratio">1</property>
  <property name="meta.media.0.codec.width">960</property>
  <property name="meta.media.0.codec.height">1280</property>
  <property name="meta.media.0.codec.rotate">0</property>
  <property name="meta.media.0.codec.frame_rate">1000</property>
  <property name="meta.media.0.codec.pix_fmt">yuvj420p</property>
  <property name="meta.media.0.codec.sample_aspect_ratio">1</property>
  <property name="meta.media.0.codec.colorspace">601</property>
  <property name="meta.media.0.codec.name">mjpeg</property>
  <property name="meta.media.0.codec.long_name">MJPEG (Motion JPEG)</property>
  <property name="meta.media.0.codec.bit_rate">0</property>
  <property name="meta.attr.0.stream.ENCODER.markup">Lavc58.91.100 mjpeg</property>
  <property name="meta.attr.0.stream.HANDLER_NAME.markup">VideoHandler</property>
  <property name="meta.attr.0.stream.DURATION.markup">00:02:45.498000000</property>
  <property name="meta.media.1.stream.type">audio</property>
  <property name="meta.media.1.codec.sample_fmt">s16</property>
  <property name="meta.media.1.codec.sample_rate">48000</property>
  <property name="meta.media.1.codec.channels">2</property>
  <property name="meta.media.1.codec.name">pcm_s16le</property>
  <property name="meta.media.1.codec.long_name">PCM signed 16-bit little-endian</property>
  <property name="meta.media.1.codec.bit_rate">1536000</property>
  <property name="meta.attr.1.stream.HANDLER_NAME.markup">SoundHandler</property>
  <property name="meta.attr.1.stream.ENCODER.markup">Lavc58.91.100 pcm_s16le</property>
  <property name="meta.attr.1.stream.DURATION.markup">00:02:45.440000000</property>
  <property name="meta.attr.COMPATIBLE_BRANDS.markup">isomiso2avc1mp41</property>
  <property name="meta.attr.MAJOR_BRAND.markup">isom</property>
  <property name="meta.attr.MINOR_VERSION.markup">512</property>
  <property name="meta.attr.ENCODER.markup">Lavf58.45.100</property>
  <property name="meta.media.sample_aspect_num">1</property>
  <property name="meta.media.sample_aspect_den">1</property>
  <property name="meta.media.frame_rate_num">30000</property>
  <property name="meta.media.frame_rate_den">1001</property>
  <property name="meta.media.colorspace">601</property>
  <property name="meta.media.color_trc">2</property>
  <property name="meta.media.width">960</property>
  <property name="meta.media.height">1280</property>
  <property name="meta.media.color_range">full</property>
  <property name="meta.media.top_field_first">0</property>
  <property name="meta.media.progressive">1</property>
  <property name="set.test_audio">1</property>
  <property name="set.test_image">0</property>
  <filter id="filter362">
   <property name="version">0.1</property>
   <property name="mlt_service">frei0r.hqdn3d</property>
   <property name="kdenlive_id">frei0r.hqdn3d</property>
   <property name="Spatial">00:00:00.000=0.01</property>
   <property name="Temporal">00:00:00.000=0.01</property>
  </filter>
  <filter id="filter363">
   <property name="version">0.6</property>
   <property name="mlt_service">frei0r.select0r</property>
   <property name="kdenlive_id">frei0r.select0r</property>
   <property name="Color to select">0x58af5eff</property>
   <property name="Invert selection">1</property>
   <property name="Selection subspace">1</property>
   <property name="Subspace shape">0</property>
   <property name="Edge mode">0.9</property>
   <property name="Delta R / A / Hue">00:00:00.000=0.035</property>
   <property name="Delta G / B / Chroma">00:00:00.000=0.205</property>
   <property name="Delta B / I / I">00:00:00.000=0.302</property>
   <property name="Slope">00:00:00.000=0.08</property>
   <property name="Operation">0.5</property>
  </filter>
  <filter id="filter364">
   <property name="mlt_service">avfilter.despill</property>
   <property name="kdenlive_id">avfilter.despill</property>
   <property name="av.type">green</property>
   <property name="av.mix">0.096</property>
   <property name="av.expand">0.037</property>
   <property name="av.red">0</property>
   <property name="av.green">-0.7</property>
   <property name="av.blue">-0.6</property>
   <property name="av.brightness">0</property>
  </filter>
 </producer>
 <playlist id="playlist22">
  <blank length="00:00:07.000"/>
  <entry producer="producer184" in="00:00:06.000" out="00:00:19.067">
   <property name="kdenlive:id">74</property>
   <filter id="filter366">
    <property name="rotate_center">1</property>
    <property name="mlt_service">qtblend</property>
    <property name="kdenlive_id">qtblend</property>
    <property name="rect">00:00:06.000~=750 6 960 1280 0.900000;00:00:18.433=843 -324 1434 1912 1.000000;00:00:19.067=845 -329 1440 1920 1.000000</property>
    <property name="rotation">00:00:06.000~=0;00:00:18.433=0;00:00:19.067=0</property>
    <property name="compositing">0</property>
    <property name="distort">0</property>
    <property name="kdenlive:collapsed">0</property>
    <property name="disable">0</property>
   </filter>
   <filter id="filter365">
    <property name="mode">alpha</property>
    <property name="alpha_operation">sub</property>
    <property name="invert">0</property>
    <property name="feather">58</property>
    <property name="feather_passes">2</property>
    <property name="mlt_service">rotoscoping</property>
    <property name="kdenlive_id">rotoscoping</property>
    <property name="spline">{
    "180": [
        [
            [
                -0.021383647798742623,
                0.18880597014925363
            ],
            [
                0.002096436058699648,
                -0.11567164179104501
            ],
            [
                0.11907756813417143,
                -0.09925373134328393
            ]
        ],
        [
            [
                0.47002096436058655,
                -0.050000000000000336
            ],
            [
                0.5870020964360592,
                -0.033582089552239104
            ],
            [
                0.5781970649895177,
                0.002985074626865328
            ]
        ],
        [
            [
                0.5517819706498949,
                0.1126865671641788
            ],
            [
                0.5429769392033539,
                0.1492537313432834
            ],
            [
                0.5308176100628922,
                0.16865671641791025
            ]
        ],
        [
            [
                0.49433962264150894,
                0.22686567164179094
            ],
            [
                0.48218029350104774,
                0.2462686567164178
            ],
            [
                0.47924528301886743,
                0.2820895522388054
            ]
        ],
        [
            [
                0.47044025157232655,
                0.3895522388059696
            ],
            [
                0.46750524109014624,
                0.4253731343283579
            ],
            [
                0.46750524109014624,
                0.4589552238805965
            ]
        ],
        [
            [
                0.46750524109014624,
                0.5597014925373129
            ],
            [
                0.46750524109014624,
                0.5932835820895518
            ],
            [
                0.45744234800838524,
                0.6141791044776114
            ]
        ],
        [
            [
                0.45345911949685486,
                0.654477611940298
            ],
            [
                0.44339622641509385,
                0.6753731343283579
            ],
            [
                0.45849056603773536,
                0.6854477611940294
            ]
        ],
        [
            [
                0.47756813417190724,
                0.7380597014925367
            ],
            [
                0.49266247379454875,
                0.7481343283582085
            ],
            [
                0.49098532494758856,
                0.7708955223880591
            ]
        ],
        [
            [
                0.48595387840670806,
                0.8391791044776116
            ],
            [
                0.48427672955974793,
                0.8619402985074621
            ],
            [
                0.48993710691823844,
                0.8727611940298502
            ]
        ],
        [
            [
                0.5069182389937104,
                0.9052238805970144
            ],
            [
                0.5125786163522004,
                0.9160447761194024
            ],
            [
                0.5140461215932911,
                0.9567164179104479
            ]
        ],
        [
            [
                0.5184486373165611,
                1.0787313432835821
            ],
            [
                0.5199161425576508,
                1.119402985074627
            ],
            [
                0.5165618448637309,
                1.162686567164179
            ]
        ],
        [
            [
                0.5064989517819699,
                1.292537313432836
            ],
            [
                0.5031446540880498,
                1.3358208955223883
            ],
            [
                0.3794549266247373,
                1.35
            ]
        ],
        [
            [
                0.008385744234800303,
                1.392537313432836
            ],
            [
                -0.11530398322851183,
                1.4067164179104479
            ],
            [
                -0.09182389937106981,
                1.1022388059701493
            ]
        ]
    ],
    "269": [
        [
            [
                -0.03683962264150977,
                0.1568750000000001
            ],
            [
                -0.013359538784067463,
                -0.14760261194029847
            ],
            [
                0.10362159329140438,
                -0.13118470149253741
            ]
        ],
        [
            [
                0.5203354297693907,
                -0.07030783582089548
            ],
            [
                0.6373165618448644,
                -0.05388992537313426
            ],
            [
                0.6285115303983232,
                -0.017322761194029777
            ]
        ],
        [
            [
                0.6154044804160799,
                0.05181117975695286
            ],
            [
                0.6065994489695388,
                0.08837834393605738
            ],
            [
                0.5944401198290772,
                0.10778132901068428
            ]
        ],
        [
            [
                0.5532975621770856,
                0.19255744841366948
            ],
            [
                0.5411382330366238,
                0.2119604334882963
            ],
            [
                0.5382032225544433,
                0.247781329010684
            ]
        ],
        [
            [
                0.5415260737074837,
                0.3353186424435199
            ],
            [
                0.5385910632253033,
                0.37113953796590804
            ],
            [
                0.5385910632253033,
                0.4047216275181468
            ]
        ],
        [
            [
                0.5348594070408168,
                0.5071283439360571
            ],
            [
                0.5348594070408168,
                0.5407104334882961
            ],
            [
                0.5247965139590558,
                0.5616059558763555
            ]
        ],
        [
            [
                0.5287430548395587,
                0.6102067021450122
            ],
            [
                0.5186801617577977,
                0.6311022245330721
            ],
            [
                0.5337745013804394,
                0.6411768513987435
            ]
        ],
        [
            [
                0.5278825995807118,
                0.7177518656716416
            ],
            [
                0.5429769392033538,
                0.7278264925373132
            ],
            [
                0.5412997903563931,
                0.750587686567164
            ]
        ],
        [
            [
                0.5365232383636332,
                0.8061683896093301
            ],
            [
                0.5348460895166728,
                0.8289295836391809
            ],
            [
                0.5405064668751639,
                0.8397504791615689
            ]
        ],
        [
            [
                0.5327577298919699,
                0.8999734931897885
            ],
            [
                0.5384181072504599,
                0.9107943887121766
            ],
            [
                0.5398856124915506,
                0.9514660305032215
            ]
        ],
        [
            [
                0.5568824678374626,
                1.0676693887121773
            ],
            [
                0.5583499730785525,
                1.1083410305032222
            ],
            [
                0.5549956753846325,
                1.1516246125927745
            ]
        ],
        [
            [
                0.556813417190775,
                1.272229477611941
            ],
            [
                0.553459119496855,
                1.315513059701493
            ],
            [
                0.42976939203354203,
                1.329692164179105
            ]
        ],
        [
            [
                0.05870020964360518,
                1.3722294776119408
            ],
            [
                -0.06498951781970706,
                1.3864085820895522
            ],
            [
                -0.04150943396226502,
                1.0819309701492543
            ]
        ]
    ],
    "380": [
        [
            [
                -0.10838574423480085,
                0.08432835820895519
            ],
            [
                -0.0849056603773585,
                -0.22014925373134328
            ],
            [
                0.03207547169811342,
                -0.20373134328358214
            ]
        ],
        [
            [
                0.530817610062892,
                -0.12835820895522354
            ],
            [
                0.6477987421383653,
                -0.11194029850746244
            ],
            [
                0.6389937106918243,
                -0.07537313432835788
            ]
        ],
        [
            [
                0.642484334009234,
                -0.056834679063697956
            ],
            [
                0.6336793025626931,
                -0.02026751488459346
            ],
            [
                0.6215199734222315,
                -0.0008645298099665633
            ]
        ],
        [
            [
                0.5745598057073464,
                0.11704591795122755
            ],
            [
                0.5624004765668847,
                0.13644890302585433
            ],
            [
                0.5594654660847045,
                0.17226979854824226
            ]
        ],
        [
            [
                0.5779141034012668,
                0.23495636571242148
            ],
            [
                0.5749790929190862,
                0.2707772612348095
            ],
            [
                0.5749790929190862,
                0.3043593507870483
            ]
        ],
        [
            [
                0.5665933486842852,
                0.4088369627273468
            ],
            [
                0.5665933486842852,
                0.44241905227958567
            ],
            [
                0.5565304556025239,
                0.46331457466764514
            ]
        ],
        [
            [
                0.570366933589946,
                0.5222697985482421
            ],
            [
                0.5603040405081845,
                0.543165320936302
            ],
            [
                0.5753983801308267,
                0.5532399478019733
            ]
        ],
        [
            [
                0.5383647798742125,
                0.6597014925373137
            ],
            [
                0.5534591194968547,
                0.6697761194029852
            ],
            [
                0.5517819706498942,
                0.6925373134328361
            ]
        ],
        [
            [
                0.5473233208463633,
                0.7322750999102843
            ],
            [
                0.5456461719994028,
                0.7550362939401354
            ],
            [
                0.551306549357894,
                0.7658571894625231
            ]
        ],
        [
            [
                0.5530398322851159,
                0.8884328358208955
            ],
            [
                0.5587002096436059,
                0.8992537313432836
            ],
            [
                0.5601677148846964,
                0.9399253731343281
            ]
        ],
        [
            [
                0.5525472270909938,
                1.021150395563168
            ],
            [
                0.5540147323320838,
                1.0618220373542127
            ],
            [
                0.5506604346381636,
                1.1051056194437654
            ]
        ],
        [
            [
                0.567295597484276,
                1.2141791044776122
            ],
            [
                0.5639412997903559,
                1.2574626865671643
            ],
            [
                0.440251572327043,
                1.2716417910447764
            ]
        ],
        [
            [
                0.06918238993710617,
                1.3141791044776123
            ],
            [
                -0.054507337526206213,
                1.3283582089552235
            ],
            [
                -0.03102725366876415,
                1.0238805970149256
            ]
        ]
    ],
    "469": [
        [
            [
                -0.1733752620545074,
                0.12537313432835812
            ],
            [
                -0.149895178197065,
                -0.1791044776119403
            ],
            [
                -0.03291404612159318,
                -0.16268656716417915
            ]
        ],
        [
            [
                0.5748427672955977,
                -0.12462686567164138
            ],
            [
                0.6918238993710696,
                -0.1082089552238803
            ],
            [
                0.6830188679245286,
                -0.07164179104477583
            ]
        ],
        [
            [
                0.6704757028595536,
                -0.004226767603813591
            ],
            [
                0.6616706714130126,
                0.0323403965752909
            ],
            [
                0.649511342272551,
                0.0517433816499178
            ]
        ],
        [
            [
                0.6081711386909293,
                0.13764519787002208
            ],
            [
                0.5960118095504683,
                0.15704818294464887
            ],
            [
                0.5930767990682877,
                0.19286907846703683
            ]
        ],
        [
            [
                0.5969135296383666,
                0.27956211928703356
            ],
            [
                0.5939785191561865,
                0.31538301480942155
            ],
            [
                0.5939785191561865,
                0.34896510436166017
            ]
        ],
        [
            [
                0.5900887462279958,
                0.45144217683064103
            ],
            [
                0.5900887462279958,
                0.48502426638287954
            ],
            [
                0.5800258531462344,
                0.5059197887709389
            ]
        ],
        [
            [
                0.5843083921071096,
                0.5548723152949446
            ],
            [
                0.5742454990253485,
                0.5757678376830049
            ],
            [
                0.5893398386479901,
                0.5858424645486763
            ]
        ],
        [
            [
                0.5823899371069184,
                0.6634328358208956
            ],
            [
                0.5974842767295601,
                0.6735074626865671
            ],
            [
                0.5958071278825997,
                0.6962686567164178
            ]
        ],
        [
            [
                0.5916033726271895,
                0.7233035641464798
            ],
            [
                0.5899262237802294,
                0.746064758176331
            ],
            [
                0.5955866011387201,
                0.7568856536987187
            ]
        ],
        [
            [
                0.5572441603372624,
                0.8591835902454934
            ],
            [
                0.5629045376957534,
                0.8700044857678815
            ],
            [
                0.5643720429368433,
                0.9106761275589261
            ]
        ],
        [
            [
                0.5803049569829651,
                1.0420194111410161
            ],
            [
                0.5817724622240553,
                1.082691052932061
            ],
            [
                0.5784181645301348,
                1.1259746350216138
            ]
        ],
        [
            [
                0.6113207547169813,
                1.2179104477611944
            ],
            [
                0.6079664570230611,
                1.2611940298507462
            ],
            [
                0.48427672955974815,
                1.2753731343283583
            ]
        ],
        [
            [
                -0.07651991614255754,
                1.3365671641791057
            ],
            [
                -0.20020964360587,
                1.3507462686567164
            ],
            [
                -0.17672955974842788,
                1.0462686567164186
            ]
        ]
    ]
}
</property>
    <property name="kdenlive:collapsed">0</property>
   </filter>
   <filter id="filter367">
    <property name="version">0.1</property>
    <property name="mlt_service">frei0r.colorize</property>
    <property name="kdenlive_id">frei0r.colorize</property>
    <property name="hue">00:00:06.000=0.555556;00:00:13.300=0.567229;00:00:18.067=0.841667;00:00:19.067=0.835205</property>
    <property name="saturation">00:00:06.000=0;00:00:13.300=0.0255904;00:00:18.067=0.161111;00:00:19.067=0.111111</property>
    <property name="lightness">00:00:06.000=0;00:00:13.300=0.486531;00:00:18.067=0.180556;00:00:19.067=0.263889</property>
    <property name="kdenlive:collapsed">0</property>
   </filter>
   <filter id="filter368" in="00:00:06.000" out="00:00:06.333">
    <property name="start">0</property>
    <property name="mlt_service">brightness</property>
    <property name="kdenlive_id">fade_from_black</property>
    <property name="end">1</property>
    <property name="alpha">-1</property>
    <property name="kdenlive:collapsed">0</property>
    <property name="disable">0</property>
   </filter>
   <filter id="filter370">
    <property name="version">0.4</property>
    <property name="mlt_service">frei0r.alpha0ps</property>
    <property name="kdenlive_id">frei0r.alpha0ps</property>
    <property name="Display">0</property>
    <property name="Display input alpha">0</property>
    <property name="Operation">1</property>
    <property name="Threshold">00:00:06.000=0.2</property>
    <property name="Shrink/Grow/Blur amount">00:00:06.000=0.04</property>
    <property name="Invert">0</property>
    <property name="kdenlive:collapsed">0</property>
    <property name="disable">0</property>
   </filter>
   <filter id="filter234">
    <property name="version">0.2</property>
    <property name="mlt_service">frei0r.contrast0r</property>
    <property name="kdenlive_id">frei0r.contrast0r</property>
    <property name="Contrast">00:00:06.000=0.8;00:00:19.067=0.5</property>
    <property name="kdenlive:collapsed">0</property>
    <property name="disable">1</property>
   </filter>
  </entry>
  <entry producer="producer184" in="00:00:19.100" out="00:00:51.167">
   <property name="kdenlive:id">74</property>
   <property name="kdenlive:activeeffect">0</property>
   <filter id="filter371">
    <property name="mode">alpha</property>
    <property name="alpha_operation">sub</property>
    <property name="invert">0</property>
    <property name="feather">58</property>
    <property name="feather_passes">2</property>
    <property name="mlt_service">rotoscoping</property>
    <property name="kdenlive_id">rotoscoping</property>
    <property name="spline">{
    "0573": [
        [
            [
                -0.26304659128661584,
                0.08596974145665182
            ],
            [
                -0.23956650742917335,
                -0.2185078704836467
            ],
            [
                -0.12258537535370177,
                -0.2020899600358855
            ]
        ],
        [
            [
                0.22835802087271337,
                -0.15283622869260197
            ],
            [
                0.3453391529481848,
                -0.13641831824484085
            ],
            [
                0.3365341215016439,
                -0.0998511540657363
            ]
        ],
        [
            [
                0.3113801116415347,
                0.006006114008272518
            ],
            [
                0.30257508019499374,
                0.04257327818737702
            ],
            [
                0.2904157510545324,
                0.06197626326200393
            ]
        ],
        [
            [
                0.2534957439822183,
                0.12270275130372296
            ],
            [
                0.24133641484175722,
                0.14210573637834975
            ],
            [
                0.23840140435957677,
                0.17792663190073774
            ]
        ],
        [
            [
                0.23074562400545584,
                0.28350116885452326
            ],
            [
                0.22781061352327564,
                0.31932206437691124
            ],
            [
                0.22781061352327564,
                0.35290415392914987
            ]
        ],
        [
            [
                0.22745699780253104,
                0.45380776838698167
            ],
            [
                0.22745699780253104,
                0.4873898579392204
            ],
            [
                0.21739410472076992,
                0.50828538032728
            ]
        ],
        [
            [
                0.2141623096158219,
                0.5493706167955404
            ],
            [
                0.20409941653406088,
                0.5702661391836006
            ],
            [
                0.21919375615670234,
                0.5803407660492721
            ]
        ],
        [
            [
                0.23590519068403407,
                0.6352234727999353
            ],
            [
                0.2509995303066755,
                0.6452980996656068
            ],
            [
                0.24932238145971525,
                0.6680592936954578
            ]
        ],
        [
            [
                0.24531910506237734,
                0.6851031726612833
            ],
            [
                0.24364195621541737,
                0.7078643666911345
            ],
            [
                0.2493023335739078,
                0.7186852622135221
            ]
        ],
        [
            [
                0.2603011244520679,
                0.8049864314789693
            ],
            [
                0.26596150181055844,
                0.8158073270013574
            ],
            [
                0.26742900705164835,
                0.8564789687924018
            ]
        ],
        [
            [
                0.2452449018486754,
                0.9895183175033923
            ],
            [
                0.24671240708976555,
                1.030189959294437
            ],
            [
                0.2433581093958452,
                1.0734735413839895
            ]
        ],
        [
            [
                0.26483600829409665,
                1.1897010847402338
            ],
            [
                0.26148171060017655,
                1.2329846668297857
            ],
            [
                0.1377919831368643,
                1.2471637713073978
            ]
        ],
        [
            [
                -0.23327719925307278,
                1.289701084740234
            ],
            [
                -0.3569669267163854,
                1.3038801892178447
            ],
            [
                -0.33348684285894326,
                0.999402577277547
            ]
        ]
    ]
}
</property>
    <property name="kdenlive:collapsed">0</property>
   </filter>
   <filter id="filter372">
    <property name="rotate_center">1</property>
    <property name="mlt_service">qtblend</property>
    <property name="kdenlive_id">qtblend</property>
    <property name="rect">00:00:19.100=845 -329 1440 1920 1.000000</property>
    <property name="rotation">00:00:19.100=0</property>
    <property name="compositing">0</property>
    <property name="distort">0</property>
    <property name="kdenlive:collapsed">0</property>
   </filter>
   <filter id="filter374" in="00:00:47.167" out="00:00:51.167">
    <property name="start">1</property>
    <property name="mlt_service">brightness</property>
    <property name="kdenlive_id">fade_to_black</property>
    <property name="end">0</property>
    <property name="alpha">-1</property>
    <property name="kdenlive:collapsed">0</property>
   </filter>
   <filter id="filter375">
    <property name="version">0.4</property>
    <property name="mlt_service">frei0r.alpha0ps</property>
    <property name="kdenlive_id">frei0r.alpha0ps</property>
    <property name="Display">0</property>
    <property name="Display input alpha">0</property>
    <property name="Operation">1</property>
    <property name="Threshold">00:00:19.100=0.2</property>
    <property name="Shrink/Grow/Blur amount">00:00:19.100=0.04</property>
    <property name="Invert">0</property>
    <property name="kdenlive:collapsed">0</property>
   </filter>
   <filter id="filter233">
    <property name="mlt_service">avfilter.gblur</property>
    <property name="kdenlive_id">avfilter.gblur</property>
    <property name="av.sigma">2</property>
    <property name="av.steps">1</property>
    <property name="av.planes">7</property>
    <property name="av.sigmaV">-1</property>
    <property name="kdenlive:collapsed">0</property>
    <property name="disable">0</property>
   </filter>
   <filter id="filter235">
    <property name="version">0.2</property>
    <property name="mlt_service">frei0r.primaries</property>
    <property name="kdenlive_id">frei0r.primaries</property>
    <property name="Factor">00:00:19.100=5</property>
    <property name="kdenlive:collapsed">0</property>
    <property name="disable">1</property>
   </filter>
   <filter id="filter236">
    <property name="version">0.1</property>
    <property name="mlt_service">frei0r.posterize</property>
    <property name="kdenlive_id">frei0r.posterize</property>
    <property name="0">0.05</property>
    <property name="kdenlive:collapsed">0</property>
    <property name="disable">0</property>
   </filter>
   <filter id="filter237">
    <property name="lift">00:00:19.100=0.052</property>
    <property name="gain">00:00:19.100=0.054</property>
    <property name="gamma">00:00:19.100=0.035</property>
    <property name="mlt_service">lumaliftgaingamma</property>
    <property name="kdenlive_id">lumaliftgaingamma</property>
    <property name="kdenlive:collapsed">0</property>
    <property name="disable">0</property>
   </filter>
   <filter id="filter373">
    <property name="version">0.1</property>
    <property name="mlt_service">frei0r.colorize</property>
    <property name="kdenlive_id">frei0r.colorize</property>
    <property name="hue">00:00:19.100=0.83499;00:00:24.967=0.79708;00:00:26.267=0.0777778;00:00:30.167=0.0777778;00:00:36.233=0.0777778;00:00:41.867=0.158333;00:00:51.167=0.158333</property>
    <property name="saturation">00:00:19.100=0.111111;00:00:24.967=0;00:00:26.267=0.00785622;00:00:30.167=0.555556;00:00:36.233=0;00:00:41.867=0.491667;00:00:51.167=0</property>
    <property name="lightness">00:00:19.100=0.263889;00:00:24.967=0.355556;00:00:26.267=0.358588;00:00:30.167=0.341667;00:00:36.233=0.363334;00:00:41.867=0.130556;00:00:51.167=0.416667</property>
    <property name="kdenlive:collapsed">0</property>
    <property name="disable">0</property>
   </filter>
  </entry>
  <blank length="00:00:09.167"/>
  <entry producer="producer184" in="00:01:00.367" out="00:01:29.000">
   <property name="kdenlive:id">74</property>
   <property name="kdenlive:activeeffect">5</property>
   <filter id="filter376">
    <property name="rotate_center">1</property>
    <property name="mlt_service">qtblend</property>
    <property name="kdenlive_id">qtblend</property>
    <property name="rect">00:01:00.367=-950 -121 2489 1400 1.000000;00:01:21.733=-950 -121 2489 1400 1.000000;00:01:28.467=-567 176 1920 1080 1.000000</property>
    <property name="rotation">00:01:00.367=0;00:01:21.733=0;00:01:28.467=0</property>
    <property name="compositing">0</property>
    <property name="distort">0</property>
    <property name="kdenlive:collapsed">0</property>
   </filter>
   <filter id="filter238">
    <property name="version">0.4</property>
    <property name="mlt_service">frei0r.alpha0ps</property>
    <property name="kdenlive_id">frei0r.alpha0ps</property>
    <property name="Display">0</property>
    <property name="Display input alpha">0</property>
    <property name="Operation">1</property>
    <property name="Threshold">00:00:06.000=0.2;00:01:00.367=0.2</property>
    <property name="Shrink/Grow/Blur amount">00:00:06.000=0.04;00:01:00.367=0.04</property>
    <property name="Invert">0</property>
    <property name="kdenlive:collapsed">0</property>
   </filter>
   <filter id="filter379" in="00:01:26.233" out="00:01:29.000">
    <property name="start">1</property>
    <property name="mlt_service">brightness</property>
    <property name="kdenlive_id">fade_to_black</property>
    <property name="end">0</property>
    <property name="alpha">-1</property>
    <property name="kdenlive:collapsed">0</property>
    <property name="disable">0</property>
   </filter>
   <filter id="filter239">
    <property name="mlt_service">avfilter.gblur</property>
    <property name="kdenlive_id">avfilter.gblur</property>
    <property name="av.sigma">2</property>
    <property name="av.steps">1</property>
    <property name="av.planes">7</property>
    <property name="av.sigmaV">-1</property>
    <property name="kdenlive:collapsed">0</property>
   </filter>
   <filter id="filter240">
    <property name="version">0.1</property>
    <property name="mlt_service">frei0r.posterize</property>
    <property name="kdenlive_id">frei0r.posterize</property>
    <property name="0">0.05</property>
    <property name="kdenlive:collapsed">0</property>
   </filter>
   <filter id="filter377">
    <property name="version">0.1</property>
    <property name="mlt_service">frei0r.colorize</property>
    <property name="kdenlive_id">frei0r.colorize</property>
    <property name="hue">00:01:00.367=0.180556;00:01:01.767=0.180556;00:01:02.733=0.180556;00:01:04.900=0.180556;00:01:05.267=0.494444;00:01:06.133=0.494444;00:01:08.300=0.494444;00:01:08.633=0.177778;00:01:09.533=0.177778;00:01:14.500=0.177778;00:01:15.200=0.158333;00:01:16.167=0.158333;00:01:21.233=0.158333;00:01:21.700=0.833333;00:01:22.800=0.913889</property>
    <property name="saturation">00:01:00.367=0;00:01:01.767=0;00:01:02.733=0.525;00:01:04.900=0.0277778;00:01:05.267=0;00:01:06.133=0.258333;00:01:08.300=0.0277778;00:01:08.633=0;00:01:09.533=0.275;00:01:14.500=0.0277778;00:01:15.200=0;00:01:16.167=0.188889;00:01:21.233=0.0277778;00:01:21.700=0;00:01:22.800=0.208333</property>
    <property name="lightness">00:01:00.367=0.494444;00:01:01.767=0.494444;00:01:02.733=0.494444;00:01:04.900=0.494444;00:01:05.267=0.483187;00:01:06.133=0.436111;00:01:08.300=0.483333;00:01:08.633=0.494444;00:01:09.533=0.527778;00:01:14.500=0.527778;00:01:15.200=0.536667;00:01:16.167=0.572222;00:01:21.233=0.572222;00:01:21.700=0.545959;00:01:22.800=0.458333</property>
    <property name="kdenlive:collapsed">0</property>
   </filter>
  </entry>
  <blank length="00:00:19.733"/>
  <entry producer="producer184" in="00:01:48.767" out="00:01:52.233">
   <property name="kdenlive:id">74</property>
   <property name="kdenlive:activeeffect">4</property>
   <filter id="filter380">
    <property name="version">0.1</property>
    <property name="mlt_service">frei0r.mask0mate</property>
    <property name="kdenlive_id">frei0r.mask0mate</property>
    <property name="Left">00:01:48.767=0.304</property>
    <property name="Right">00:01:48.767=0</property>
    <property name="Top">00:01:48.767=0</property>
    <property name="Bottom">00:01:48.767=0</property>
    <property name="Invert">1</property>
    <property name="Blur">00:01:48.767=0.083</property>
    <property name="kdenlive:collapsed">0</property>
   </filter>
   <filter id="filter381">
    <property name="rotate_center">1</property>
    <property name="mlt_service">qtblend</property>
    <property name="kdenlive_id">qtblend</property>
    <property name="rect">00:01:48.767=642 -261 1536 2048 1.000000</property>
    <property name="rotation">00:01:48.767=0</property>
    <property name="compositing">0</property>
    <property name="distort">0</property>
    <property name="kdenlive:collapsed">0</property>
   </filter>
   <filter id="filter241">
    <property name="mlt_service">avfilter.gblur</property>
    <property name="kdenlive_id">avfilter.gblur</property>
    <property name="av.sigma">2</property>
    <property name="av.steps">1</property>
    <property name="av.planes">7</property>
    <property name="av.sigmaV">-1</property>
    <property name="kdenlive:collapsed">0</property>
   </filter>
   <filter id="filter242">
    <property name="version">0.1</property>
    <property name="mlt_service">frei0r.posterize</property>
    <property name="kdenlive_id">frei0r.posterize</property>
    <property name="0">0.05</property>
    <property name="kdenlive:collapsed">0</property>
   </filter>
   <filter id="filter243">
    <property name="version">0.1</property>
    <property name="mlt_service">frei0r.colorize</property>
    <property name="kdenlive_id">frei0r.colorize</property>
    <property name="hue">00:01:48.767=1</property>
    <property name="saturation">00:01:48.767=0.688889</property>
    <property name="lightness">00:01:48.767=0.5</property>
    <property name="kdenlive:collapsed">0</property>
   </filter>
  </entry>
  <blank length="00:00:25.733"/>
  <entry producer="producer184" in="00:02:18.200" out="00:02:26.033">
   <property name="kdenlive:id">74</property>
   <property name="kdenlive:activeeffect">6</property>
   <filter id="filter384">
    <property name="rotate_center">1</property>
    <property name="mlt_service">qtblend</property>
    <property name="kdenlive_id">qtblend</property>
    <property name="rect">00:02:18.200=807 244 1497 842 1.000000;00:02:26.033=708 37 1740 1054 1.000000</property>
    <property name="rotation">00:02:18.200=0;00:02:26.033=0</property>
    <property name="compositing">0</property>
    <property name="distort">0</property>
    <property name="kdenlive:collapsed">0</property>
   </filter>
   <filter id="filter385">
    <property name="mode">alpha</property>
    <property name="alpha_operation">min</property>
    <property name="invert">0</property>
    <property name="feather">45</property>
    <property name="feather_passes">1</property>
    <property name="mlt_service">rotoscoping</property>
    <property name="kdenlive_id">rotoscoping</property>
    <property name="spline">{
    "4146": [
        [
            [
                1.0626834381551362,
                0.48432835820895526
            ],
            [
                1.0429769392033543,
                0.30223880597014924
            ],
            [
                1.019077568134172,
                0.2544776119402985
            ]
        ],
        [
            [
                0.9473794549266247,
                0.11119402985074626
            ],
            [
                0.9234800838574423,
                0.06343283582089553
            ],
            [
                0.89958071278826,
                0.0708955223880597
            ]
        ],
        [
            [
                0.8278825995807128,
                0.09328358208955224
            ],
            [
                0.8039832285115304,
                0.10074626865671643
            ],
            [
                0.7830188679245284,
                0.14328358208955225
            ]
        ],
        [
            [
                0.720125786163522,
                0.27089552238805975
            ],
            [
                0.69916142557652,
                0.31343283582089554
            ],
            [
                0.7016771488469602,
                0.36716417910447763
            ]
        ],
        [
            [
                0.7092243186582808,
                0.5283582089552239
            ],
            [
                0.7117400419287211,
                0.582089552238806
            ],
            [
                0.720125786163522,
                0.6089552238805971
            ]
        ],
        [
            [
                0.7452830188679245,
                0.6895522388059702
            ],
            [
                0.7536687631027253,
                0.7164179104477612
            ],
            [
                0.7549266247379455,
                0.75
            ]
        ],
        [
            [
                0.758700209643606,
                0.8507462686567164
            ],
            [
                0.759958071278826,
                0.8843283582089553
            ],
            [
                0.7607966457023061,
                0.9171641791044777
            ]
        ],
        [
            [
                0.7633123689727463,
                1.0156716417910447
            ],
            [
                0.7641509433962264,
                1.0485074626865671
            ],
            [
                0.770440251572327,
                1.0865671641791046
            ]
        ],
        [
            [
                0.789308176100629,
                1.2007462686567163
            ],
            [
                0.7955974842767296,
                1.2388059701492538
            ],
            [
                0.8647798742138365,
                1.233582089552239
            ]
        ],
        [
            [
                1.0723270440251573,
                1.217910447761194
            ],
            [
                1.141509433962264,
                1.212686567164179
            ],
            [
                1.1218029350104821,
                1.0305970149253731
            ]
        ]
    ],
    "4264": [
        [
            [
                1.0626834381551362,
                0.48432835820895526
            ],
            [
                1.0429769392033543,
                0.30223880597014924
            ],
            [
                1.019077568134172,
                0.2544776119402985
            ]
        ],
        [
            [
                0.9473794549266247,
                0.11119402985074626
            ],
            [
                0.9234800838574423,
                0.06343283582089553
            ],
            [
                0.89958071278826,
                0.0708955223880597
            ]
        ],
        [
            [
                0.8278825995807128,
                0.09328358208955224
            ],
            [
                0.8039832285115304,
                0.10074626865671643
            ],
            [
                0.7830188679245284,
                0.14328358208955225
            ]
        ],
        [
            [
                0.7316561844863732,
                0.2690298507462687
            ],
            [
                0.710691823899371,
                0.31156716417910446
            ],
            [
                0.7132075471698113,
                0.36529850746268655
            ]
        ],
        [
            [
                0.7113207547169811,
                0.4406716417910445
            ],
            [
                0.7138364779874213,
                0.4944029850746269
            ],
            [
                0.7222222222222222,
                0.5212686567164176
            ]
        ],
        [
            [
                0.7452830188679245,
                0.6895522388059702
            ],
            [
                0.7536687631027253,
                0.7164179104477612
            ],
            [
                0.7549266247379455,
                0.75
            ]
        ],
        [
            [
                0.758700209643606,
                0.8507462686567164
            ],
            [
                0.759958071278826,
                0.8843283582089553
            ],
            [
                0.7607966457023061,
                0.9171641791044777
            ]
        ],
        [
            [
                0.7633123689727463,
                1.0156716417910447
            ],
            [
                0.7641509433962264,
                1.0485074626865671
            ],
            [
                0.770440251572327,
                1.0865671641791046
            ]
        ],
        [
            [
                0.789308176100629,
                1.2007462686567163
            ],
            [
                0.7955974842767296,
                1.2388059701492538
            ],
            [
                0.8647798742138365,
                1.233582089552239
            ]
        ],
        [
            [
                1.0723270440251573,
                1.217910447761194
            ],
            [
                1.141509433962264,
                1.212686567164179
            ],
            [
                1.1218029350104821,
                1.0305970149253731
            ]
        ]
    ]
}
</property>
    <property name="kdenlive:collapsed">0</property>
   </filter>
   <filter id="filter386">
    <property name="mlt_service">avfilter.colorchannelmixer</property>
    <property name="kdenlive_id">avfilter.colorchannelmixer</property>
    <property name="av.rr">0.802</property>
    <property name="av.rg">-0.057143</property>
    <property name="av.rb">0.114286</property>
    <property name="av.gr">-0.008</property>
    <property name="av.gg">1.01989</property>
    <property name="av.gb">0.057143</property>
    <property name="av.br">0.12</property>
    <property name="av.bg">-0.245714</property>
    <property name="av.bb">1.27273</property>
    <property name="kdenlive:collapsed">0</property>
   </filter>
   <filter id="filter387" in="00:02:18.200" out="00:02:19.400">
    <property name="start">0</property>
    <property name="mlt_service">brightness</property>
    <property name="kdenlive_id">fade_from_black</property>
    <property name="end">1</property>
    <property name="alpha">-1</property>
    <property name="kdenlive:collapsed">0</property>
   </filter>
   <filter id="filter244">
    <property name="lift_r">0.175814</property>
    <property name="lift_g">0.209689</property>
    <property name="lift_b">0.549996</property>
    <property name="gamma_r">1.22499</property>
    <property name="gamma_g">1.02275</property>
    <property name="gamma_b">0.549691</property>
    <property name="gain_r">1.05</property>
    <property name="gain_g">0.901503</property>
    <property name="gain_b">0.82417</property>
    <property name="mlt_service">lift_gamma_gain</property>
    <property name="kdenlive_id">lift_gamma_gain</property>
    <property name="kdenlive:collapsed">0</property>
   </filter>
   <filter id="filter245">
    <property name="version">0.1</property>
    <property name="mlt_service">frei0r.posterize</property>
    <property name="kdenlive_id">frei0r.posterize</property>
    <property name="0">0.105</property>
    <property name="kdenlive:collapsed">0</property>
   </filter>
   <filter id="filter246">
    <property name="version">0.3</property>
    <property name="mlt_service">frei0r.saturat0r</property>
    <property name="kdenlive_id">frei0r.saturat0r</property>
    <property name="Saturation">00:02:18.200=0.064</property>
    <property name="kdenlive:collapsed">0</property>
   </filter>
  </entry>
  <entry producer="producer185" in="00:02:25.867" out="00:03:12.567">
   <property name="kdenlive:id">74</property>
  </entry>
  <blank length="00:00:06.100"/>
  <entry producer="producer184" in="00:03:18.700" out="00:03:51.167">
   <property name="kdenlive:id">74</property>
   <filter id="filter388">
    <property name="rotate_center">1</property>
    <property name="mlt_service">qtblend</property>
    <property name="kdenlive_id">qtblend</property>
    <property name="rect">00:03:18.700=-1149 -221 2880 1620 1.000000;00:03:45.833=-1149 -221 2880 1620 1.000000;00:03:51.167=-2358 -969 4800 2700 1.000000</property>
    <property name="rotation">00:03:18.700=0;00:03:45.833=0;00:03:51.167=0</property>
    <property name="compositing">0</property>
    <property name="distort">0</property>
    <property name="kdenlive:collapsed">0</property>
   </filter>
   <filter id="filter389" in="00:03:45.700" out="00:03:51.167">
    <property name="start">1</property>
    <property name="mlt_service">brightness</property>
    <property name="kdenlive_id">fade_to_black</property>
    <property name="end">0</property>
    <property name="alpha">-1</property>
    <property name="kdenlive:collapsed">0</property>
    <property name="disable">0</property>
   </filter>
   <filter id="filter390">
    <property name="mlt_service">avfilter.gblur</property>
    <property name="kdenlive_id">avfilter.gblur</property>
    <property name="av.sigma">2</property>
    <property name="av.steps">1</property>
    <property name="av.planes">7</property>
    <property name="av.sigmaV">-1</property>
    <property name="kdenlive:collapsed">0</property>
   </filter>
   <filter id="filter391">
    <property name="version">2.2</property>
    <property name="mlt_service">frei0r.cartoon</property>
    <property name="kdenlive_id">frei0r.cartoon</property>
    <property name="triplevel">00:03:18.700=0.999</property>
    <property name="diffspace">00:03:18.700=0.00390625</property>
    <property name="kdenlive:collapsed">0</property>
   </filter>
   <filter id="filter392" in="00:03:18.700" out="00:03:20.133">
    <property name="start">0</property>
    <property name="mlt_service">brightness</property>
    <property name="kdenlive_id">fade_from_black</property>
    <property name="end">1</property>
    <property name="alpha">-1</property>
    <property name="kdenlive:collapsed">0</property>
   </filter>
   <filter id="filter393">
    <property name="version">0.2</property>
    <property name="mlt_service">frei0r.coloradj_RGB</property>
    <property name="kdenlive_id">frei0r.coloradj_RGB</property>
    <property name="R">00:03:18.700=0.396</property>
    <property name="G">00:03:18.700=0.65</property>
    <property name="B">00:03:18.700=0.394</property>
    <property name="Action">0.5</property>
    <property name="Keep luma">1</property>
    <property name="Alpha controlled">0</property>
    <property name="Luma formula">1</property>
    <property name="kdenlive:collapsed">0</property>
   </filter>
   <filter id="filter394">
    <property name="lift_r">0.155917</property>
    <property name="lift_g">0.199741</property>
    <property name="lift_b">0.28751</property>
    <property name="gamma_r">1.09206</property>
    <property name="gamma_g">1.22499</property>
    <property name="gamma_b">0.810407</property>
    <property name="gain_r">1.12502</property>
    <property name="gain_g">0.81471</property>
    <property name="gain_b">0.800366</property>
    <property name="mlt_service">lift_gamma_gain</property>
    <property name="kdenlive_id">lift_gamma_gain</property>
    <property name="kdenlive:collapsed">0</property>
   </filter>
  </entry>
  <entry producer="producer185" in="00:03:51.200" out="00:04:01.533">
   <property name="kdenlive:id">74</property>
   <filter id="filter395">
    <property name="rotate_center">1</property>
    <property name="mlt_service">qtblend</property>
    <property name="kdenlive_id">qtblend</property>
    <property name="rect">00:03:51.200=-1149 -221 2880 1620 1.000000</property>
    <property name="rotation">00:03:51.200=0</property>
    <property name="compositing">0</property>
    <property name="distort">0</property>
    <property name="kdenlive:collapsed">0</property>
   </filter>
  </entry>
  <entry producer="producer186" in="00:00:00.000" out="00:00:29.600">
   <property name="kdenlive:id">75</property>
   <filter id="filter396">
    <property name="rotate_center">1</property>
    <property name="mlt_service">qtblend</property>
    <property name="kdenlive_id">qtblend</property>
    <property name="rect">00:00:00.000=1047 -172 960 1280 1.000000</property>
    <property name="rotation">00:00:00.000=0</property>
    <property name="compositing">0</property>
    <property name="distort">0</property>
    <property name="kdenlive:collapsed">0</property>
   </filter>
  </entry>
  <entry producer="producer186" in="00:00:29.633" out="00:00:39.400">
   <property name="kdenlive:id">75</property>
   <filter id="filter397">
    <property name="rotate_center">1</property>
    <property name="mlt_service">qtblend</property>
    <property name="kdenlive_id">qtblend</property>
    <property name="rect">00:00:29.633=1047 -172 960 1280 1.000000</property>
    <property name="rotation">00:00:29.633=0</property>
    <property name="compositing">0</property>
    <property name="distort">0</property>
    <property name="kdenlive:collapsed">0</property>
   </filter>
   <filter id="filter398">
    <property name="mode">alpha</property>
    <property name="alpha_operation">sub</property>
    <property name="invert">1</property>
    <property name="feather">64</property>
    <property name="feather_passes">2</property>
    <property name="mlt_service">rotoscoping</property>
    <property name="kdenlive_id">rotoscoping</property>
    <property name="spline">{
    "0889": [
        [
            [
                0.7620545073375262,
                -0.10820895522388059
            ],
            [
                0.738993710691824,
                -0.1044776119402985
            ],
            [
                0.7067085953878407,
                -0.05373134328358209
            ]
        ],
        [
            [
                0.609853249475891,
                0.09850746268656715
            ],
            [
                0.5775681341719078,
                0.14925373134328357
            ],
            [
                0.580922431865828,
                0.22388059701492538
            ]
        ],
        [
            [
                0.590985324947589,
                0.44776119402985076
            ],
            [
                0.5943396226415094,
                0.5223880597014926
            ],
            [
                0.6044025157232704,
                0.5791044776119403
            ]
        ],
        [
            [
                0.6345911949685534,
                0.7492537313432837
            ],
            [
                0.6446540880503144,
                0.8059701492537314
            ],
            [
                0.6459119496855344,
                0.8522388059701492
            ]
        ],
        [
            [
                0.6496855345911949,
                0.991044776119403
            ],
            [
                0.6509433962264151,
                1.037313432835821
            ],
            [
                0.7012578616352201,
                1.0634328358208955
            ]
        ],
        [
            [
                0.8522012578616353,
                1.1417910447761193
            ],
            [
                0.9025157232704403,
                1.167910447761194
            ],
            [
                0.9159329140461216,
                1.1216417910447762
            ]
        ],
        [
            [
                0.9561844863731657,
                0.9828358208955223
            ],
            [
                0.9696016771488469,
                0.9365671641791045
            ],
            [
                0.960796645702306,
                0.8141791044776119
            ]
        ],
        [
            [
                0.9343815513626834,
                0.4470149253731343
            ],
            [
                0.9255765199161424,
                0.3246268656716418
            ],
            [
                0.911320754716981,
                0.23507462686567163
            ]
        ],
        [
            [
                0.8685534591194968,
                -0.033582089552238806
            ],
            [
                0.8542976939203354,
                -0.12313432835820895
            ],
            [
                0.8312368972746331,
                -0.11940298507462685
            ]
        ]
    ]
}
</property>
    <property name="kdenlive:collapsed">0</property>
   </filter>
  </entry>
  <entry producer="producer186" in="00:00:39.433" out="00:02:17.300">
   <property name="kdenlive:id">75</property>
   <filter id="filter399">
    <property name="rotate_center">1</property>
    <property name="mlt_service">qtblend</property>
    <property name="kdenlive_id">qtblend</property>
    <property name="rect">1183=1047 -172 960 1280 1.000000</property>
    <property name="rotation">1183=0</property>
    <property name="compositing">0</property>
    <property name="distort">0</property>
    <property name="kdenlive:collapsed">0</property>
   </filter>
  </entry>
  <entry producer="producer187" in="00:02:17.333" out="00:02:41.133">
   <property name="kdenlive:id">75</property>
   <filter id="filter400">
    <property name="rotate_center">1</property>
    <property name="mlt_service">qtblend</property>
    <property name="kdenlive_id">qtblend</property>
    <property name="rect">00:02:17.333~=-1910 -1091 5760 3240 0.000000;00:02:18.967=-1718 -954 5372 3021 0.700000;00:02:24.833~=-718 -267 3360 1890 0.920000;00:02:29.367~=-123 -68 2304 1296 0.930000;00:02:41.133~=49 26 1920 1080 1.000000</property>
    <property name="rotation">00:02:17.333~=0;00:02:18.967=0;00:02:24.833~=0;00:02:29.367~=0;00:02:41.133~=0</property>
    <property name="compositing">0</property>
    <property name="distort">0</property>
    <property name="kdenlive:collapsed">0</property>
    <property name="disable">0</property>
   </filter>
   <filter id="filter401" in="00:02:37.867" out="00:02:41.133">
    <property name="start">1</property>
    <property name="mlt_service">brightness</property>
    <property name="kdenlive_id">fade_to_black</property>
    <property name="end">0</property>
    <property name="alpha">-1</property>
    <property name="kdenlive:collapsed">0</property>
    <property name="disable">0</property>
   </filter>
   <filter id="filter402">
    <property name="line_width">00:02:17.333=2;00:02:21.400=2</property>
    <property name="num">00:02:17.333=0;00:02:21.400=5</property>
    <property name="darker">00:02:17.333=40;00:02:21.400=40</property>
    <property name="lighter">00:02:17.333=40;00:02:21.400=40</property>
    <property name="mlt_service">lines</property>
    <property name="kdenlive_id">lines</property>
    <property name="kdenlive:collapsed">0</property>
    <property name="line4">125</property>
    <property name="typeline4">1</property>
    <property name="line3">428</property>
    <property name="typeline3">3</property>
    <property name="line2">546</property>
    <property name="typeline2">1</property>
    <property name="line1">409</property>
    <property name="typeline1">3</property>
    <property name="line0">347</property>
    <property name="typeline0">3</property>
    <property name="last_oldfilm_line_pos">0.880693</property>
   </filter>
   <filter id="filter403">
    <property name="version">0.3</property>
    <property name="mlt_service">frei0r.saturat0r</property>
    <property name="kdenlive_id">frei0r.saturat0r</property>
    <property name="Saturation">00:02:17.333=0.125;00:02:22.333=0.125;00:02:32.533=0.001</property>
    <property name="kdenlive:collapsed">0</property>
   </filter>
   <filter id="filter247">
    <property name="mode">alpha</property>
    <property name="alpha_operation">sub</property>
    <property name="invert">0</property>
    <property name="feather">0</property>
    <property name="feather_passes">1</property>
    <property name="mlt_service">rotoscoping</property>
    <property name="kdenlive_id">rotoscoping</property>
    <property name="spline">{
    "4120": [
        [
            [
                0.16498951781970647,
                -0.20447761194029865
            ],
            [
                0.16876310272536685,
                -0.15298507462686567
            ],
            [
                0.12306079664570228,
                -0.06641791044776131
            ]
        ],
        [
            [
                0.10377358490566038,
                0.08955223880597014
            ],
            [
                0.08280922431865828,
                0.2574626865671642
            ],
            [
                0.08448637316561845,
                0.33507462686567163
            ]
        ],
        [
            [
                0.07023060796645701,
                0.6119402985074627
            ],
            [
                0.11635220125786164,
                0.6753731343283582
            ],
            [
                0.1939203354297694,
                0.8582089552238806
            ]
        ],
        [
            [
                0.16457023060796644,
                1.1604477611940298
            ],
            [
                0.16037735849056603,
                1.3246268656716418
            ],
            [
                0.06645702306079662,
                1.3261194029850747
            ]
        ],
        [
            [
                -0.15241090146750522,
                1.2746268656716417
            ],
            [
                -0.24633123689727462,
                1.2761194029850746
            ],
            [
                -0.24423480083857443,
                1.0380597014925372
            ]
        ],
        [
            [
                -0.23794549266247378,
                0.3238805970149254
            ],
            [
                -0.2358490566037736,
                0.08582089552238806
            ],
            [
                -0.22452830188679243,
                -0.0037313432835820834
            ]
        ],
        [
            [
                -0.19056603773584907,
                -0.27238805970149255
            ],
            [
                -0.1792452830188679,
                -0.3619402985074627
            ],
            [
                -0.079874213836478,
                -0.3701492537313433
            ]
        ],
        [
            [
                0.2182389937106918,
                -0.3947761194029851
            ],
            [
                0.31761006289308175,
                -0.4029850746268657
            ],
            [
                0.32138364779874207,
                -0.35149253731343283
            ]
        ]
    ],
    "4268": [
        [
            [
                0.3035275326063341,
                -0.1691448221079479
            ],
            [
                0.30730111751199446,
                -0.11765228479451496
            ],
            [
                0.2615988114323299,
                -0.03108512061541058
            ]
        ],
        [
            [
                0.24516968212861676,
                0.14745808771269697
            ],
            [
                0.21907756813417192,
                0.29850746268656714
            ],
            [
                0.2207547169811321,
                0.3761194029850747
            ]
        ],
        [
            [
                0.15281844393942043,
                0.6052698691416869
            ],
            [
                0.18972746331236898,
                0.6716417910447762
            ],
            [
                0.25564951347415305,
                0.8411743801998413
            ]
        ],
        [
            [
                0.2760789011621422,
                1.1920680212383463
            ],
            [
                0.27718760460158937,
                1.3468111125047035
            ],
            [
                0.18326726917181965,
                1.3483036498181364
            ]
        ],
        [
            [
                -0.04863731656184496,
                1.3084127680923117
            ],
            [
                -0.14255765199161413,
                1.3099053054057446
            ],
            [
                -0.14046121593291394,
                1.0718456039132072
            ]
        ],
        [
            [
                -0.13417190775681329,
                0.35766649943559486
            ],
            [
                -0.1320754716981131,
                0.11960679794305765
            ],
            [
                -0.12075471698113197,
                0.030054559137087537
            ]
        ],
        [
            [
                -0.08679245283018865,
                -0.23860215728082287
            ],
            [
                -0.07547169811320754,
                -0.3281543960867931
            ],
            [
                0.023899371069182256,
                -0.3363633513106737
            ]
        ],
        [
            [
                0.32201257861635213,
                -0.36099021698231554
            ],
            [
                0.42138364779874204,
                -0.369199172206196
            ],
            [
                0.42515723270440237,
                -0.3177066348927632
            ]
        ]
    ],
    "4391": [
        [
            [
                0.38902336615988103,
                -0.15184424516075118
            ],
            [
                0.3927969510655414,
                -0.10035170784731824
            ],
            [
                0.34709464498587683,
                -0.013784543668213852
            ]
        ],
        [
            [
                0.3615905901144523,
                0.07005309586521179
            ],
            [
                0.3312368972746331,
                0.20708955223880596
            ],
            [
                0.3329140461215934,
                0.2847014925373134
            ]
        ],
        [
            [
                0.2705377329128717,
                0.6196182950792254
            ],
            [
                0.29979035639413,
                0.6884328358208955
            ],
            [
                0.35603356646641854,
                0.8469093607592283
            ]
        ],
        [
            [
                0.33911115809007036,
                1.2062831849157576
            ],
            [
                0.3446259006747353,
                1.3531841841214098
            ],
            [
                0.25070556524496607,
                1.3546767214348427
            ]
        ],
        [
            [
                0.007966457023060628,
                1.3244277561770978
            ],
            [
                -0.08595387840670855,
                1.3259202934905308
            ],
            [
                -0.08385744234800833,
                1.0878605919979933
            ]
        ],
        [
            [
                -0.07756813417190771,
                0.373681487520381
            ],
            [
                -0.07547169811320752,
                0.13562178602784372
            ],
            [
                -0.06415094339622643,
                0.04606954722187361
            ]
        ],
        [
            [
                -0.0301886792452831,
                -0.22258716919603683
            ],
            [
                -0.018867924528301987,
                -0.31213940800200696
            ],
            [
                0.08050314465408784,
                -0.32034836322588756
            ]
        ],
        [
            [
                0.3786163522012576,
                -0.3449752288975294
            ],
            [
                0.4779874213836475,
                -0.35318418412140995
            ],
            [
                0.4817610062893079,
                -0.3016916468079771
            ]
        ]
    ],
    "4490": [
        [
            [
                0.4218233659641354,
                -0.13492309548197406
            ],
            [
                0.42559695086979576,
                -0.08343055816854117
            ],
            [
                0.3798946447901312,
                0.0031366060105632336
            ]
        ],
        [
            [
                0.41114223467164623,
                0.09998850286383199
            ],
            [
                0.3773584905660377,
                0.22574626865671643
            ],
            [
                0.37903563941299795,
                0.30335820895522375
            ]
        ],
        [
            [
                0.345882587835973,
                0.5915328818094397
            ],
            [
                0.3689727463312369,
                0.6623134328358209
            ],
            [
                0.4174256704778345,
                0.8118911743801992
            ]
        ],
        [
            [
                0.37891283347720633,
                1.190955346690915
            ],
            [
                0.38797390025192463,
                1.3315444181403906
            ],
            [
                0.2940535648221554,
                1.3330369554538235
            ]
        ],
        [
            [
                -0.027874081330361535,
                1.3132984375314092
            ],
            [
                -0.12179441676013077,
                1.3147909748448419
            ],
            [
                -0.11969798070143055,
                1.0767312733523045
            ]
        ],
        [
            [
                -0.11340867252532992,
                0.36255216887469227
            ],
            [
                -0.11131223646662973,
                0.124492467382155
            ],
            [
                -0.09999148174964861,
                0.03494022857618487
            ]
        ],
        [
            [
                -0.0660292175987053,
                -0.23371648784172558
            ],
            [
                -0.054708462881724165,
                -0.32326872664769574
            ],
            [
                0.04466260630066567,
                -0.3314776818715763
            ]
        ],
        [
            [
                0.34277581384783545,
                -0.3561045475432182
            ],
            [
                0.44214688303022537,
                -0.36431350276709873
            ],
            [
                0.44592046793588574,
                -0.3128209654536659
            ]
        ]
    ],
    "4607": [
        [
            [
                0.46058700209643605,
                -0.11492537313432839
            ],
            [
                0.4643605870020964,
                -0.06343283582089553
            ],
            [
                0.41865828092243185,
                0.023134328358208885
            ]
        ],
        [
            [
                0.4183405857101749,
                0.1636909987875744
            ],
            [
                0.380503144654088,
                0.27611940298507465
            ],
            [
                0.38218029350104826,
                0.35373134328358186
            ]
        ],
        [
            [
                0.352117282971889,
                0.5836124001839539
            ],
            [
                0.3679245283018868,
                0.6567164179104478
            ],
            [
                0.40717075089994054,
                0.795777415443789
            ]
        ],
        [
            [
                0.42595117711654884,
                1.1728406287888289
            ],
            [
                0.4392033542976939,
                1.3059701492537314
            ],
            [
                0.34528301886792456,
                1.3074626865671644
            ]
        ],
        [
            [
                -0.07023108120258773,
                1.300145606404686
            ],
            [
                -0.16415141663235702,
                1.3016381437181188
            ],
            [
                -0.16205498057365683,
                1.0635784422255814
            ]
        ],
        [
            [
                -0.15576567239755618,
                0.3493993377479692
            ],
            [
                -0.15366923633885599,
                0.11133963625543193
            ],
            [
                -0.14234848162187486,
                0.02178739744946181
            ]
        ],
        [
            [
                -0.10838621747093152,
                -0.24686931896844863
            ],
            [
                -0.0970654627539504,
                -0.3364215577744188
            ],
            [
                0.002305606428439481,
                -0.3446305129982994
            ]
        ],
        [
            [
                0.30041881397560927,
                -0.3692573786699412
            ],
            [
                0.3997898831579992,
                -0.3774663338938218
            ],
            [
                0.40356346806365956,
                -0.32597379658038894
            ]
        ]
    ],
    "4787": [
        [
            [
                0.4506127688656157,
                -0.16226576369255047
            ],
            [
                0.454386353771276,
                -0.11077322637911761
            ],
            [
                0.4086840476916115,
                -0.02420606220001314
            ]
        ],
        [
            [
                0.3825995807127882,
                0.1865671641791045
            ],
            [
                0.3689727463312369,
                0.3246268656716418
            ],
            [
                0.3706498951781971,
                0.4022388059701498
            ]
        ],
        [
            [
                0.38508754862781475,
                0.6957882127142387
            ],
            [
                0.389937106918239,
                0.7723880597014926
            ],
            [
                0.41533115910777535,
                0.8956258300545538
            ]
        ],
        [
            [
                0.4080087329125353,
                1.1663114341666707
            ],
            [
                0.4275667488617368,
                1.288217502794398
            ],
            [
                0.3336464134319674,
                1.289710040107831
            ]
        ],
        [
            [
                -0.13396035244375487,
                1.280356189189284
            ],
            [
                -0.22788068787352428,
                1.281848726502717
            ],
            [
                -0.2257842518148241,
                1.0437890250101796
            ]
        ],
        [
            [
                -0.21949494363872343,
                0.32960992053256755
            ],
            [
                -0.21739850758002324,
                0.09155021904003025
            ],
            [
                -0.2060777528630421,
                0.0019979802340601193
            ]
        ],
        [
            [
                -0.17211548871209872,
                -0.2666587361838503
            ],
            [
                -0.1607947339951176,
                -0.3562109749898205
            ],
            [
                -0.06142366481272768,
                -0.3644199302137011
            ]
        ],
        [
            [
                0.23668954273444212,
                -0.38904679588534286
            ],
            [
                0.33606061191683206,
                -0.3972557511092235
            ],
            [
                0.33983419682249244,
                -0.34576321379579067
            ]
        ]
    ],
    "4834": [
        [
            [
                0.4480083857442348,
                -0.1746268656716418
            ],
            [
                0.45178197064989517,
                -0.12313432835820895
            ],
            [
                0.40607966457023065,
                -0.03656716417910445
            ]
        ],
        [
            [
                0.4449001403496408,
                0.28226619005811293
            ],
            [
                0.3993710691823899,
                0.3694029850746269
            ],
            [
                0.4010482180293501,
                0.44701492537313453
            ]
        ],
        [
            [
                0.40786486502357755,
                0.73592018897111
            ],
            [
                0.40985324947589097,
                0.8134328358208955
            ],
            [
                0.4316303460587589,
                0.9325389857435503
            ]
        ],
        [
            [
                0.4033237613703762,
                1.1646065889042183
            ],
            [
                0.42452830188679247,
                1.283582089552239
            ],
            [
                0.330607966457023,
                1.2850746268656719
            ]
        ],
        [
            [
                -0.15060077326783744,
                1.275188952471929
            ],
            [
                -0.24452110869760682,
                1.276681489785362
            ],
            [
                -0.24242467263890663,
                1.0386217882928246
            ]
        ],
        [
            [
                -0.236135364462806,
                0.3244426838152127
            ],
            [
                -0.2340389284041058,
                0.08638298232267537
            ],
            [
                -0.22271817368712465,
                -0.0031692564832947693
            ]
        ],
        [
            [
                -0.1887559095361813,
                -0.2718259729012052
            ],
            [
                -0.17743515481920014,
                -0.3613782117071754
            ],
            [
                -0.07806408563681022,
                -0.369587166931056
            ]
        ],
        [
            [
                0.22004912191035958,
                -0.3942140326026978
            ],
            [
                0.31942019109274955,
                -0.40242298782657837
            ],
            [
                0.3231937759984099,
                -0.35093045051314553
            ]
        ]
    ]
}
</property>
    <property name="kdenlive:collapsed">0</property>
   </filter>
  </entry>
 </playlist>
 <playlist id="playlist23"/>
 <tractor id="tractor11" in="00:00:00.000" out="00:06:43.700">
  <property name="kdenlive:trackheight">69</property>
  <property name="kdenlive:timeline_active">0</property>
  <property name="kdenlive:collapsed">28</property>
  <property name="kdenlive:track_name">caleb-portrait</property>
  <property name="kdenlive:thumbs_format"/>
  <property name="kdenlive:audio_rec"/>
  <track hide="audio" producer="playlist22"/>
  <track producer="playlist23"/>
 </tractor>
 <producer id="producer188" in="00:00:00.000" out="00:05:53.700">
  <property name="length">10612</property>
  <property name="eof">pause</property>
  <property name="resource">/home/ryankelln/.cache/kdenlive/proxy/4180d2fd868745abd6d5f8a1d6483ec1.mkv</property>
  <property name="audio_index">1</property>
  <property name="video_index">0</property>
  <property name="mute_on_pause">0</property>
  <property name="mlt_service">avformat-novalidate</property>
  <property name="seekable">1</property>
  <property name="aspect_ratio">1</property>
  <property name="kdenlive:clipname">2021-06-02_Caleb_upright+4k+portrait_suzy_P1000540-take1_beginning-to-DS.MP4</property>
  <property name="kdenlive:folderid">103</property>
  <property name="kdenlive:id">74</property>
  <property name="kdenlive:file_size">4241140404</property>
  <property name="kdenlive:file_hash">4180d2fd868745abd6d5f8a1d6483ec1</property>
  <property name="kdenlive:proxy">/home/ryankelln/.cache/kdenlive/proxy/4180d2fd868745abd6d5f8a1d6483ec1.mkv</property>
  <property name="kdenlive:originalurl">content/musicians/2021-06-02_Caleb_upright+4k+portrait_suzy_P1000540-take1_beginning-to-DS.MP4</property>
  <property name="kdenlive:original.mlt_type">producer</property>
  <property name="kdenlive:original.in">0</property>
  <property name="kdenlive:original.out">10611</property>
  <property name="kdenlive:original.length">10612</property>
  <property name="kdenlive:original.eof">pause</property>
  <property name="kdenlive:original.resource">content/musicians/2021-06-02_Caleb_upright+4k+portrait_suzy_P1000540-take1_beginning-to-DS.MP4</property>
  <property name="kdenlive:original.meta.media.nb_streams">2</property>
  <property name="kdenlive:original.meta.media.0.stream.type">video</property>
  <property name="kdenlive:original.meta.media.0.stream.frame_rate">29.9699</property>
  <property name="kdenlive:original.meta.media.0.stream.sample_aspect_ratio">1</property>
  <property name="kdenlive:original.meta.media.0.codec.width">3328</property>
  <property name="kdenlive:original.meta.media.0.codec.height">2496</property>
  <property name="kdenlive:original.meta.media.0.codec.rotate">90</property>
  <property name="kdenlive:original.meta.media.0.codec.frame_rate">29.97</property>
  <property name="kdenlive:original.meta.media.0.codec.pix_fmt">yuvj420p</property>
  <property name="kdenlive:original.meta.media.0.codec.sample_aspect_ratio">1</property>
  <property name="kdenlive:original.meta.media.0.codec.colorspace">709</property>
  <property name="kdenlive:original.meta.media.0.codec.color_trc">1</property>
  <property name="kdenlive:original.meta.media.0.codec.name">h264</property>
  <property name="kdenlive:original.meta.media.0.codec.long_name">H.264 / AVC / MPEG-4 AVC / MPEG-4 part 10</property>
  <property name="kdenlive:original.meta.media.0.codec.bit_rate">95795710</property>
  <property name="kdenlive:original.meta.attr.0.stream.rotate.markup">90</property>
  <property name="kdenlive:original.meta.attr.0.stream.handler_name.markup">VideoHandler</property>
  <property name="kdenlive:original.meta.media.1.stream.type">audio</property>
  <property name="kdenlive:original.meta.media.1.codec.sample_fmt">fltp</property>
  <property name="kdenlive:original.meta.media.1.codec.sample_rate">48000</property>
  <property name="kdenlive:original.meta.media.1.codec.channels">2</property>
  <property name="kdenlive:original.meta.media.1.codec.name">aac</property>
  <property name="kdenlive:original.meta.media.1.codec.long_name">AAC (Advanced Audio Coding)</property>
  <property name="kdenlive:original.meta.media.1.codec.bit_rate">125376</property>
  <property name="kdenlive:original.meta.attr.1.stream.handler_name.markup">SoundHandler</property>
  <property name="kdenlive:original.meta.attr.major_brand.markup">isom</property>
  <property name="kdenlive:original.meta.attr.minor_version.markup">512</property>
  <property name="kdenlive:original.meta.attr.compatible_brands.markup">isomiso2avc1mp41</property>
  <property name="kdenlive:original.meta.attr.encoder.markup">Lavf58.45.100</property>
  <property name="kdenlive:original.seekable">1</property>
  <property name="kdenlive:original.width">3328</property>
  <property name="kdenlive:original.height">2496</property>
  <property name="kdenlive:original.meta.media.sample_aspect_num">1</property>
  <property name="kdenlive:original.meta.media.sample_aspect_den">1</property>
  <property name="kdenlive:original.aspect_ratio">1</property>
  <property name="kdenlive:original.audio_index">1</property>
  <property name="kdenlive:original.video_index">0</property>
  <property name="kdenlive:original.mute_on_pause">0</property>
  <property name="kdenlive:original.mlt_service">avformat-novalidate</property>
  <property name="kdenlive:original.kdenlive:folderid">103</property>
  <property name="kdenlive:original.meta.media.frame_rate_num">13252500</property>
  <property name="kdenlive:original.meta.media.frame_rate_den">442193</property>
  <property name="kdenlive:original.meta.media.colorspace">709</property>
  <property name="kdenlive:original.meta.media.color_trc">1</property>
  <property name="kdenlive:original.meta.media.width">2496</property>
  <property name="kdenlive:original.meta.media.height">3328</property>
  <property name="kdenlive:original.meta.media.color_range">full</property>
  <property name="kdenlive:original.kdenlive:id">109</property>
  <property name="kdenlive:original.kdenlive:file_size">4241140404</property>
  <property name="kdenlive:original.kdenlive:file_hash">4180d2fd868745abd6d5f8a1d6483ec1</property>
  <property name="kdenlive:original.backup">1</property>
  <property name="kdenlive:audio_max">1</property>
  <property name="global_feed">1</property>
  <property name="kdenlive:activeeffect">1</property>
  <property name="xml">was here</property>
  <property name="meta.media.nb_streams">2</property>
  <property name="meta.media.0.stream.type">video</property>
  <property name="meta.media.0.stream.frame_rate">29.97</property>
  <property name="meta.media.0.stream.sample_aspect_ratio">1</property>
  <property name="meta.media.0.codec.width">960</property>
  <property name="meta.media.0.codec.height">1280</property>
  <property name="meta.media.0.codec.rotate">0</property>
  <property name="meta.media.0.codec.frame_rate">1000</property>
  <property name="meta.media.0.codec.pix_fmt">yuvj420p</property>
  <property name="meta.media.0.codec.sample_aspect_ratio">1</property>
  <property name="meta.media.0.codec.colorspace">601</property>
  <property name="meta.media.0.codec.name">mjpeg</property>
  <property name="meta.media.0.codec.long_name">MJPEG (Motion JPEG)</property>
  <property name="meta.media.0.codec.bit_rate">0</property>
  <property name="meta.attr.0.stream.ENCODER.markup">Lavc58.91.100 mjpeg</property>
  <property name="meta.attr.0.stream.HANDLER_NAME.markup">VideoHandler</property>
  <property name="meta.attr.0.stream.DURATION.markup">00:05:53.786000000</property>
  <property name="meta.media.1.stream.type">audio</property>
  <property name="meta.media.1.codec.sample_fmt">s16</property>
  <property name="meta.media.1.codec.sample_rate">48000</property>
  <property name="meta.media.1.codec.channels">2</property>
  <property name="meta.media.1.codec.name">pcm_s16le</property>
  <property name="meta.media.1.codec.long_name">PCM signed 16-bit little-endian</property>
  <property name="meta.media.1.codec.bit_rate">1536000</property>
  <property name="meta.attr.1.stream.HANDLER_NAME.markup">SoundHandler</property>
  <property name="meta.attr.1.stream.ENCODER.markup">Lavc58.91.100 pcm_s16le</property>
  <property name="meta.attr.1.stream.DURATION.markup">00:05:53.744000000</property>
  <property name="meta.attr.COMPATIBLE_BRANDS.markup">isomiso2avc1mp41</property>
  <property name="meta.attr.MAJOR_BRAND.markup">isom</property>
  <property name="meta.attr.MINOR_VERSION.markup">512</property>
  <property name="meta.attr.ENCODER.markup">Lavf58.45.100</property>
  <property name="meta.media.sample_aspect_num">1</property>
  <property name="meta.media.sample_aspect_den">1</property>
  <property name="meta.media.frame_rate_num">30000</property>
  <property name="meta.media.frame_rate_den">1001</property>
  <property name="meta.media.colorspace">601</property>
  <property name="meta.media.color_trc">2</property>
  <property name="meta.media.width">960</property>
  <property name="meta.media.height">1280</property>
  <property name="meta.media.color_range">full</property>
  <property name="meta.media.top_field_first">0</property>
  <property name="meta.media.progressive">1</property>
  <property name="set.test_audio">1</property>
  <property name="set.test_image">0</property>
  <filter id="filter248">
   <property name="version">0.1</property>
   <property name="mlt_service">frei0r.hqdn3d</property>
   <property name="kdenlive_id">frei0r.hqdn3d</property>
   <property name="Spatial">00:00:00.000=0.01</property>
   <property name="Temporal">00:00:00.000=0.01</property>
  </filter>
  <filter id="filter249">
   <property name="version">0.6</property>
   <property name="mlt_service">frei0r.select0r</property>
   <property name="kdenlive_id">frei0r.select0r</property>
   <property name="Color to select">0x58af5eff</property>
   <property name="Invert selection">1</property>
   <property name="Selection subspace">1</property>
   <property name="Subspace shape">0</property>
   <property name="Edge mode">0.9</property>
   <property name="Delta R / A / Hue">00:00:00.000=0.045</property>
   <property name="Delta G / B / Chroma">00:00:00.000=0.215</property>
   <property name="Delta B / I / I">00:00:00.000=0.31</property>
   <property name="Slope">00:00:00.000=0.085</property>
   <property name="Operation">0.5</property>
  </filter>
  <filter id="filter250">
   <property name="mlt_service">avfilter.despill</property>
   <property name="kdenlive_id">avfilter.despill</property>
   <property name="av.type">green</property>
   <property name="av.mix">0.096</property>
   <property name="av.expand">0.037</property>
   <property name="av.red">0</property>
   <property name="av.green">-0.7</property>
   <property name="av.blue">-0.6</property>
   <property name="av.brightness">0</property>
  </filter>
 </producer>
 <producer id="producer189" in="00:00:00.000" out="00:00:59.667">
  <property name="length">1791</property>
  <property name="eof">pause</property>
  <property name="resource">/home/ryankelln/.cache/kdenlive/proxy/d4e92660b0dbf831496b409208c02d2a.mkv</property>
  <property name="audio_index">1</property>
  <property name="video_index">0</property>
  <property name="mute_on_pause">0</property>
  <property name="mlt_service">avformat-novalidate</property>
  <property name="seekable">1</property>
  <property name="aspect_ratio">1</property>
  <property name="kdenlive:clipname">2021-06-02_Caleb+Chris_upright+piano+handheld_suzy_MVI_5994-take1_beginning_portrait.mkv</property>
  <property name="kdenlive:folderid">103</property>
  <property name="kdenlive:id">77</property>
  <property name="kdenlive:file_size">350464486</property>
  <property name="kdenlive:file_hash">d4e92660b0dbf831496b409208c02d2a</property>
  <property name="kdenlive:proxy">/home/ryankelln/.cache/kdenlive/proxy/d4e92660b0dbf831496b409208c02d2a.mkv</property>
  <property name="kdenlive:originalurl">content/musicians/2021-06-02_Caleb+Chris_upright+piano+handheld_suzy_MVI_5994-take1_beginning_portrait.mkv</property>
  <property name="kdenlive:original.mlt_type">producer</property>
  <property name="kdenlive:original.in">0</property>
  <property name="kdenlive:original.out">1790</property>
  <property name="kdenlive:original.length">1791</property>
  <property name="kdenlive:original.eof">pause</property>
  <property name="kdenlive:original.resource">content/musicians/2021-06-02_Caleb+Chris_upright+piano+handheld_suzy_MVI_5994-take1_beginning_portrait.mkv</property>
  <property name="kdenlive:original.meta.media.nb_streams">2</property>
  <property name="kdenlive:original.meta.media.0.stream.type">video</property>
  <property name="kdenlive:original.meta.media.0.stream.frame_rate">29.97</property>
  <property name="kdenlive:original.meta.media.0.stream.sample_aspect_ratio">0</property>
  <property name="kdenlive:original.meta.media.0.codec.width">1920</property>
  <property name="kdenlive:original.meta.media.0.codec.height">1080</property>
  <property name="kdenlive:original.meta.media.0.codec.rotate">0</property>
  <property name="kdenlive:original.meta.media.0.codec.frame_rate">1000</property>
  <property name="kdenlive:original.meta.media.0.codec.pix_fmt">yuvj420p</property>
  <property name="kdenlive:original.meta.media.0.codec.sample_aspect_ratio">0</property>
  <property name="kdenlive:original.meta.media.0.codec.colorspace">601</property>
  <property name="kdenlive:original.meta.media.0.codec.color_trc">1</property>
  <property name="kdenlive:original.meta.media.0.codec.name">h264</property>
  <property name="kdenlive:original.meta.media.0.codec.long_name">H.264 / AVC / MPEG-4 AVC / MPEG-4 part 10</property>
  <property name="kdenlive:original.meta.media.0.codec.bit_rate">0</property>
  <property name="kdenlive:original.meta.attr.0.stream.language.markup">eng</property>
  <property name="kdenlive:original.meta.attr.0.stream.DURATION.markup">00:00:59.693000000</property>
  <property name="kdenlive:original.meta.media.1.stream.type">audio</property>
  <property name="kdenlive:original.meta.media.1.codec.sample_fmt">s16</property>
  <property name="kdenlive:original.meta.media.1.codec.sample_rate">48000</property>
  <property name="kdenlive:original.meta.media.1.codec.channels">2</property>
  <property name="kdenlive:original.meta.media.1.codec.name">pcm_s16le</property>
  <property name="kdenlive:original.meta.media.1.codec.long_name">PCM signed 16-bit little-endian</property>
  <property name="kdenlive:original.meta.media.1.codec.bit_rate">1536000</property>
  <property name="kdenlive:original.meta.attr.1.stream.language.markup">eng</property>
  <property name="kdenlive:original.meta.attr.1.stream.DURATION.markup">00:00:59.699000000</property>
  <property name="kdenlive:original.meta.attr.COMPATIBLE_BRANDS.markup">qt  CAEP</property>
  <property name="kdenlive:original.meta.attr.creation_time.markup">2021-06-02T14:29:18.000000Z</property>
  <property name="kdenlive:original.meta.attr.MAJOR_BRAND.markup">qt  </property>
  <property name="kdenlive:original.meta.attr.MINOR_VERSION.markup">537331968</property>
  <property name="kdenlive:original.meta.attr.ENCODER.markup">Lavf58.45.100</property>
  <property name="kdenlive:original.seekable">1</property>
  <property name="kdenlive:original.width">1920</property>
  <property name="kdenlive:original.height">1080</property>
  <property name="kdenlive:original.meta.media.sample_aspect_num">1</property>
  <property name="kdenlive:original.meta.media.sample_aspect_den">1</property>
  <property name="kdenlive:original.aspect_ratio">1</property>
  <property name="kdenlive:original.audio_index">1</property>
  <property name="kdenlive:original.video_index">0</property>
  <property name="kdenlive:original.mute_on_pause">0</property>
  <property name="kdenlive:original.mlt_service">avformat-novalidate</property>
  <property name="kdenlive:original.kdenlive:folderid">103</property>
  <property name="kdenlive:original.meta.media.frame_rate_num">30000</property>
  <property name="kdenlive:original.meta.media.frame_rate_den">1001</property>
  <property name="kdenlive:original.meta.media.colorspace">601</property>
  <property name="kdenlive:original.meta.media.color_trc">1</property>
  <property name="kdenlive:original.meta.media.width">1920</property>
  <property name="kdenlive:original.meta.media.height">1080</property>
  <property name="kdenlive:original.meta.media.color_range">full</property>
  <property name="kdenlive:original.kdenlive:id">112</property>
  <property name="kdenlive:original.kdenlive:file_size">350464486</property>
  <property name="kdenlive:original.kdenlive:file_hash">d4e92660b0dbf831496b409208c02d2a</property>
  <property name="kdenlive:original.backup">1</property>
  <property name="kdenlive:audio_max">1</property>
  <property name="global_feed">1</property>
  <property name="xml">was here</property>
  <property name="meta.media.nb_streams">2</property>
  <property name="meta.media.0.stream.type">video</property>
  <property name="meta.media.0.stream.frame_rate">29.97</property>
  <property name="meta.media.0.stream.sample_aspect_ratio">0</property>
  <property name="meta.media.0.codec.width">960</property>
  <property name="meta.media.0.codec.height">540</property>
  <property name="meta.media.0.codec.rotate">0</property>
  <property name="meta.media.0.codec.frame_rate">1000</property>
  <property name="meta.media.0.codec.pix_fmt">yuvj420p</property>
  <property name="meta.media.0.codec.sample_aspect_ratio">0</property>
  <property name="meta.media.0.codec.colorspace">601</property>
  <property name="meta.media.0.codec.name">mjpeg</property>
  <property name="meta.media.0.codec.long_name">MJPEG (Motion JPEG)</property>
  <property name="meta.media.0.codec.bit_rate">0</property>
  <property name="meta.attr.0.stream.language.markup">eng</property>
  <property name="meta.attr.0.stream.ENCODER.markup">Lavc58.91.100 mjpeg</property>
  <property name="meta.attr.0.stream.DURATION.markup">00:00:59.693000000</property>
  <property name="meta.media.1.stream.type">audio</property>
  <property name="meta.media.1.codec.sample_fmt">s16</property>
  <property name="meta.media.1.codec.sample_rate">48000</property>
  <property name="meta.media.1.codec.channels">2</property>
  <property name="meta.media.1.codec.name">pcm_s16le</property>
  <property name="meta.media.1.codec.long_name">PCM signed 16-bit little-endian</property>
  <property name="meta.media.1.codec.bit_rate">1536000</property>
  <property name="meta.attr.1.stream.language.markup">eng</property>
  <property name="meta.attr.1.stream.ENCODER.markup">Lavc58.91.100 pcm_s16le</property>
  <property name="meta.attr.1.stream.DURATION.markup">00:00:59.699000000</property>
  <property name="meta.attr.MAJOR_BRAND.markup">qt  </property>
  <property name="meta.attr.COMPATIBLE_BRANDS.markup">qt  CAEP</property>
  <property name="meta.attr.MINOR_VERSION.markup">537331968</property>
  <property name="meta.attr.ENCODER.markup">Lavf58.45.100</property>
  <property name="meta.media.sample_aspect_num">1</property>
  <property name="meta.media.sample_aspect_den">1</property>
  <property name="meta.media.frame_rate_num">30000</property>
  <property name="meta.media.frame_rate_den">1001</property>
  <property name="meta.media.colorspace">601</property>
  <property name="meta.media.color_trc">2</property>
  <property name="meta.media.width">960</property>
  <property name="meta.media.height">540</property>
  <property name="meta.media.color_range">full</property>
  <property name="meta.media.top_field_first">0</property>
  <property name="meta.media.progressive">1</property>
  <property name="set.test_audio">1</property>
  <property name="set.test_image">1</property>
 </producer>
 <producer id="producer190" in="00:00:00.000" out="00:00:29.533">
  <property name="length">887</property>
  <property name="eof">pause</property>
  <property name="resource">/home/ryankelln/.cache/kdenlive/proxy/f89156b45f0cb2fcf8cb31fe7feec74f.mkv</property>
  <property name="audio_index">1</property>
  <property name="video_index">0</property>
  <property name="mute_on_pause">0</property>
  <property name="mlt_service">avformat-novalidate</property>
  <property name="seekable">1</property>
  <property name="aspect_ratio">1</property>
  <property name="kdenlive:clipname">2021-06-02_Caleb+Chris_upright+piano+handheld_suzy_MVI_5994-take1_caleb_beginning.mkv</property>
  <property name="kdenlive:folderid">103</property>
  <property name="kdenlive:id">78</property>
  <property name="kdenlive:file_size">172419124</property>
  <property name="kdenlive:file_hash">f89156b45f0cb2fcf8cb31fe7feec74f</property>
  <property name="kdenlive:proxy">/home/ryankelln/.cache/kdenlive/proxy/f89156b45f0cb2fcf8cb31fe7feec74f.mkv</property>
  <property name="kdenlive:originalurl">content/musicians/2021-06-02_Caleb+Chris_upright+piano+handheld_suzy_MVI_5994-take1_caleb_beginning.mkv</property>
  <property name="kdenlive:original.mlt_type">producer</property>
  <property name="kdenlive:original.in">0</property>
  <property name="kdenlive:original.out">886</property>
  <property name="kdenlive:original.length">887</property>
  <property name="kdenlive:original.eof">pause</property>
  <property name="kdenlive:original.resource">content/musicians/2021-06-02_Caleb+Chris_upright+piano+handheld_suzy_MVI_5994-take1_caleb_beginning.mkv</property>
  <property name="kdenlive:original.meta.media.nb_streams">2</property>
  <property name="kdenlive:original.meta.media.0.stream.type">video</property>
  <property name="kdenlive:original.meta.media.0.stream.frame_rate">29.97</property>
  <property name="kdenlive:original.meta.media.0.stream.sample_aspect_ratio">0</property>
  <property name="kdenlive:original.meta.media.0.codec.width">1920</property>
  <property name="kdenlive:original.meta.media.0.codec.height">1080</property>
  <property name="kdenlive:original.meta.media.0.codec.rotate">0</property>
  <property name="kdenlive:original.meta.media.0.codec.frame_rate">1000</property>
  <property name="kdenlive:original.meta.media.0.codec.pix_fmt">yuvj420p</property>
  <property name="kdenlive:original.meta.media.0.codec.sample_aspect_ratio">0</property>
  <property name="kdenlive:original.meta.media.0.codec.colorspace">601</property>
  <property name="kdenlive:original.meta.media.0.codec.color_trc">1</property>
  <property name="kdenlive:original.meta.media.0.codec.name">h264</property>
  <property name="kdenlive:original.meta.media.0.codec.long_name">H.264 / AVC / MPEG-4 AVC / MPEG-4 part 10</property>
  <property name="kdenlive:original.meta.media.0.codec.bit_rate">0</property>
  <property name="kdenlive:original.meta.attr.0.stream.language.markup">eng</property>
  <property name="kdenlive:original.meta.attr.0.stream.DURATION.markup">00:00:29.563000000</property>
  <property name="kdenlive:original.meta.media.1.stream.type">audio</property>
  <property name="kdenlive:original.meta.media.1.codec.sample_fmt">s16</property>
  <property name="kdenlive:original.meta.media.1.codec.sample_rate">48000</property>
  <property name="kdenlive:original.meta.media.1.codec.channels">2</property>
  <property name="kdenlive:original.meta.media.1.codec.name">pcm_s16le</property>
  <property name="kdenlive:original.meta.media.1.codec.long_name">PCM signed 16-bit little-endian</property>
  <property name="kdenlive:original.meta.media.1.codec.bit_rate">1536000</property>
  <property name="kdenlive:original.meta.attr.1.stream.language.markup">eng</property>
  <property name="kdenlive:original.meta.attr.1.stream.DURATION.markup">00:00:29.562000000</property>
  <property name="kdenlive:original.meta.attr.COMPATIBLE_BRANDS.markup">qt  CAEP</property>
  <property name="kdenlive:original.meta.attr.creation_time.markup">2021-06-02T14:29:18.000000Z</property>
  <property name="kdenlive:original.meta.attr.MAJOR_BRAND.markup">qt  </property>
  <property name="kdenlive:original.meta.attr.MINOR_VERSION.markup">537331968</property>
  <property name="kdenlive:original.meta.attr.ENCODER.markup">Lavf58.45.100</property>
  <property name="kdenlive:original.seekable">1</property>
  <property name="kdenlive:original.width">1920</property>
  <property name="kdenlive:original.height">1080</property>
  <property name="kdenlive:original.meta.media.sample_aspect_num">1</property>
  <property name="kdenlive:original.meta.media.sample_aspect_den">1</property>
  <property name="kdenlive:original.aspect_ratio">1</property>
  <property name="kdenlive:original.audio_index">1</property>
  <property name="kdenlive:original.video_index">0</property>
  <property name="kdenlive:original.mute_on_pause">0</property>
  <property name="kdenlive:original.mlt_service">avformat-novalidate</property>
  <property name="kdenlive:original.kdenlive:folderid">103</property>
  <property name="kdenlive:original.meta.media.frame_rate_num">30000</property>
  <property name="kdenlive:original.meta.media.frame_rate_den">1001</property>
  <property name="kdenlive:original.meta.media.colorspace">601</property>
  <property name="kdenlive:original.meta.media.color_trc">1</property>
  <property name="kdenlive:original.meta.media.width">1920</property>
  <property name="kdenlive:original.meta.media.height">1080</property>
  <property name="kdenlive:original.meta.media.color_range">full</property>
  <property name="kdenlive:original.kdenlive:id">113</property>
  <property name="kdenlive:original.kdenlive:file_size">172419124</property>
  <property name="kdenlive:original.kdenlive:file_hash">f89156b45f0cb2fcf8cb31fe7feec74f</property>
  <property name="kdenlive:original.backup">1</property>
  <property name="kdenlive:audio_max">1</property>
  <property name="global_feed">1</property>
  <property name="xml">was here</property>
  <property name="meta.media.nb_streams">2</property>
  <property name="meta.media.0.stream.type">video</property>
  <property name="meta.media.0.stream.frame_rate">29.97</property>
  <property name="meta.media.0.stream.sample_aspect_ratio">0</property>
  <property name="meta.media.0.codec.width">960</property>
  <property name="meta.media.0.codec.height">540</property>
  <property name="meta.media.0.codec.rotate">0</property>
  <property name="meta.media.0.codec.frame_rate">1000</property>
  <property name="meta.media.0.codec.pix_fmt">yuvj420p</property>
  <property name="meta.media.0.codec.sample_aspect_ratio">0</property>
  <property name="meta.media.0.codec.colorspace">601</property>
  <property name="meta.media.0.codec.name">mjpeg</property>
  <property name="meta.media.0.codec.long_name">MJPEG (Motion JPEG)</property>
  <property name="meta.media.0.codec.bit_rate">0</property>
  <property name="meta.attr.0.stream.language.markup">eng</property>
  <property name="meta.attr.0.stream.ENCODER.markup">Lavc58.91.100 mjpeg</property>
  <property name="meta.attr.0.stream.DURATION.markup">00:00:29.563000000</property>
  <property name="meta.media.1.stream.type">audio</property>
  <property name="meta.media.1.codec.sample_fmt">s16</property>
  <property name="meta.media.1.codec.sample_rate">48000</property>
  <property name="meta.media.1.codec.channels">2</property>
  <property name="meta.media.1.codec.name">pcm_s16le</property>
  <property name="meta.media.1.codec.long_name">PCM signed 16-bit little-endian</property>
  <property name="meta.media.1.codec.bit_rate">1536000</property>
  <property name="meta.attr.1.stream.language.markup">eng</property>
  <property name="meta.attr.1.stream.ENCODER.markup">Lavc58.91.100 pcm_s16le</property>
  <property name="meta.attr.1.stream.DURATION.markup">00:00:29.562000000</property>
  <property name="meta.attr.MAJOR_BRAND.markup">qt  </property>
  <property name="meta.attr.COMPATIBLE_BRANDS.markup">qt  CAEP</property>
  <property name="meta.attr.MINOR_VERSION.markup">537331968</property>
  <property name="meta.attr.ENCODER.markup">Lavf58.45.100</property>
  <property name="meta.media.sample_aspect_num">1</property>
  <property name="meta.media.sample_aspect_den">1</property>
  <property name="meta.media.frame_rate_num">30000</property>
  <property name="meta.media.frame_rate_den">1001</property>
  <property name="meta.media.colorspace">601</property>
  <property name="meta.media.color_trc">2</property>
  <property name="meta.media.width">960</property>
  <property name="meta.media.height">540</property>
  <property name="meta.media.color_range">full</property>
  <property name="meta.media.top_field_first">0</property>
  <property name="meta.media.progressive">1</property>
  <property name="set.test_audio">1</property>
  <property name="set.test_image">1</property>
 </producer>
 <producer id="producer191" in="00:00:00.000" out="00:02:41.967">
  <property name="length">4860</property>
  <property name="eof">pause</property>
  <property name="resource">content/musicians/2021-02-06_Caleb_upright_suzy_MVI_6046-unknown_take_ending.mkv</property>
  <property name="audio_index">1</property>
  <property name="video_index">0</property>
  <property name="mute_on_pause">0</property>
  <property name="mlt_service">avformat-novalidate</property>
  <property name="seekable">1</property>
  <property name="aspect_ratio">1</property>
  <property name="kdenlive:clipname"/>
  <property name="kdenlive:folderid">103</property>
  <property name="kdenlive:id">76</property>
  <property name="kdenlive:file_size">659927248</property>
  <property name="kdenlive:file_hash">ae5721e3f7dd7534981d8629cec1895a</property>
  <property name="kdenlive:audio_max">1</property>
  <property name="global_feed">1</property>
  <property name="kdenlive:activeeffect">2</property>
  <property name="xml">was here</property>
  <property name="meta.media.nb_streams">2</property>
  <property name="meta.media.0.stream.type">video</property>
  <property name="meta.media.0.stream.frame_rate">29.97</property>
  <property name="meta.media.0.stream.sample_aspect_ratio">0</property>
  <property name="meta.media.0.codec.width">1280</property>
  <property name="meta.media.0.codec.height">720</property>
  <property name="meta.media.0.codec.rotate">0</property>
  <property name="meta.media.0.codec.frame_rate">1000</property>
  <property name="meta.media.0.codec.pix_fmt">yuvj420p</property>
  <property name="meta.media.0.codec.sample_aspect_ratio">0</property>
  <property name="meta.media.0.codec.colorspace">601</property>
  <property name="meta.media.0.codec.color_trc">1</property>
  <property name="meta.media.0.codec.name">h264</property>
  <property name="meta.media.0.codec.long_name">H.264 / AVC / MPEG-4 AVC / MPEG-4 part 10</property>
  <property name="meta.media.0.codec.bit_rate">0</property>
  <property name="meta.attr.0.stream.language.markup">eng</property>
  <property name="meta.attr.0.stream.DURATION.markup">00:02:42.005000000</property>
  <property name="meta.media.1.stream.type">audio</property>
  <property name="meta.media.1.codec.sample_fmt">s16</property>
  <property name="meta.media.1.codec.sample_rate">48000</property>
  <property name="meta.media.1.codec.channels">1</property>
  <property name="meta.media.1.codec.name">pcm_s16le</property>
  <property name="meta.media.1.codec.long_name">PCM signed 16-bit little-endian</property>
  <property name="meta.media.1.codec.bit_rate">768000</property>
  <property name="meta.attr.1.stream.language.markup">eng</property>
  <property name="meta.attr.1.stream.DURATION.markup">00:02:41.992000000</property>
  <property name="meta.attr.COMPATIBLE_BRANDS.markup">qt  CAEP</property>
  <property name="meta.attr.creation_time.markup">2021-06-02T16:31:04.000000Z</property>
  <property name="meta.attr.MAJOR_BRAND.markup">qt  </property>
  <property name="meta.attr.MINOR_VERSION.markup">537331968</property>
  <property name="meta.attr.ENCODER.markup">Lavf58.45.100</property>
  <property name="meta.media.sample_aspect_num">1</property>
  <property name="meta.media.sample_aspect_den">1</property>
  <property name="meta.media.frame_rate_num">30000</property>
  <property name="meta.media.frame_rate_den">1001</property>
  <property name="meta.media.colorspace">601</property>
  <property name="meta.media.color_trc">1</property>
  <property name="meta.media.width">1280</property>
  <property name="meta.media.height">720</property>
  <property name="meta.media.color_range">full</property>
  <property name="meta.media.top_field_first">0</property>
  <property name="meta.media.progressive">1</property>
  <property name="set.test_audio">1</property>
  <property name="set.test_image">1</property>
  <filter id="filter251">
   <property name="version">0.1</property>
   <property name="mlt_service">frei0r.hqdn3d</property>
   <property name="kdenlive_id">frei0r.hqdn3d</property>
   <property name="Spatial">00:00:00.000=0.01</property>
   <property name="Temporal">00:00:00.000=0.01</property>
   <property name="kdenlive:collapsed">0</property>
  </filter>
  <filter id="filter252">
   <property name="version">0.6</property>
   <property name="mlt_service">frei0r.select0r</property>
   <property name="kdenlive_id">frei0r.select0r</property>
   <property name="Color to select">0x79edc5ff</property>
   <property name="Invert selection">1</property>
   <property name="Selection subspace">1</property>
   <property name="Subspace shape">0</property>
   <property name="Edge mode">0.9</property>
   <property name="Delta R / A / Hue">00:00:00.000=0.04</property>
   <property name="Delta G / B / Chroma">0=0.178</property>
   <property name="Delta B / I / I">0=0.308</property>
   <property name="Slope">0=0.13</property>
   <property name="Operation">0.5</property>
   <property name="kdenlive:collapsed">0</property>
  </filter>
  <filter id="filter253">
   <property name="mlt_service">avfilter.despill</property>
   <property name="kdenlive_id">avfilter.despill</property>
   <property name="av.type">green</property>
   <property name="av.mix">0.146</property>
   <property name="av.expand">0.04</property>
   <property name="av.red">0</property>
   <property name="av.green">-0.8</property>
   <property name="av.blue">-0.4</property>
   <property name="av.brightness">0</property>
   <property name="kdenlive:collapsed">0</property>
  </filter>
  <filter id="filter254">
   <property name="version">0.1</property>
   <property name="mlt_service">frei0r.hqdn3d</property>
   <property name="kdenlive_id">frei0r.hqdn3d</property>
   <property name="Spatial">00:00:00.000=0.01</property>
   <property name="Temporal">00:00:00.000=0.01</property>
  </filter>
  <filter id="filter255">
   <property name="version">0.6</property>
   <property name="mlt_service">frei0r.select0r</property>
   <property name="kdenlive_id">frei0r.select0r</property>
   <property name="Color to select">0x79edc5ff</property>
   <property name="Invert selection">1</property>
   <property name="Selection subspace">1</property>
   <property name="Subspace shape">0</property>
   <property name="Edge mode">0.9</property>
   <property name="Delta R / A / Hue">00:00:00.000=0.04</property>
   <property name="Delta G / B / Chroma">0=0.178</property>
   <property name="Delta B / I / I">0=0.308</property>
   <property name="Slope">0=0.13</property>
   <property name="Operation">0.5</property>
  </filter>
  <filter id="filter256">
   <property name="mlt_service">avfilter.despill</property>
   <property name="kdenlive_id">avfilter.despill</property>
   <property name="av.type">green</property>
   <property name="av.mix">0.146</property>
   <property name="av.expand">0.04</property>
   <property name="av.red">0</property>
   <property name="av.green">-0.8</property>
   <property name="av.blue">-0.4</property>
   <property name="av.brightness">0</property>
  </filter>
 </producer>
 <producer id="producer192" in="00:00:00.000" out="00:02:41.967">
  <property name="length">4860</property>
  <property name="eof">pause</property>
  <property name="resource">content/musicians/2021-02-06_Caleb_upright_suzy_MVI_6046-unknown_take_ending.mkv</property>
  <property name="audio_index">1</property>
  <property name="video_index">0</property>
  <property name="mute_on_pause">0</property>
  <property name="mlt_service">avformat-novalidate</property>
  <property name="seekable">1</property>
  <property name="aspect_ratio">1</property>
  <property name="kdenlive:clipname"/>
  <property name="kdenlive:folderid">103</property>
  <property name="kdenlive:id">76</property>
  <property name="kdenlive:file_size">659927248</property>
  <property name="kdenlive:file_hash">ae5721e3f7dd7534981d8629cec1895a</property>
  <property name="kdenlive:audio_max">1</property>
  <property name="global_feed">1</property>
  <property name="kdenlive:activeeffect">2</property>
  <property name="xml">was here</property>
  <property name="meta.media.nb_streams">2</property>
  <property name="meta.media.0.stream.type">video</property>
  <property name="meta.media.0.stream.frame_rate">29.97</property>
  <property name="meta.media.0.stream.sample_aspect_ratio">0</property>
  <property name="meta.media.0.codec.width">1280</property>
  <property name="meta.media.0.codec.height">720</property>
  <property name="meta.media.0.codec.rotate">0</property>
  <property name="meta.media.0.codec.frame_rate">1000</property>
  <property name="meta.media.0.codec.pix_fmt">yuvj420p</property>
  <property name="meta.media.0.codec.sample_aspect_ratio">0</property>
  <property name="meta.media.0.codec.colorspace">601</property>
  <property name="meta.media.0.codec.color_trc">1</property>
  <property name="meta.media.0.codec.name">h264</property>
  <property name="meta.media.0.codec.long_name">H.264 / AVC / MPEG-4 AVC / MPEG-4 part 10</property>
  <property name="meta.media.0.codec.bit_rate">0</property>
  <property name="meta.attr.0.stream.language.markup">eng</property>
  <property name="meta.attr.0.stream.DURATION.markup">00:02:42.005000000</property>
  <property name="meta.media.1.stream.type">audio</property>
  <property name="meta.media.1.codec.sample_fmt">s16</property>
  <property name="meta.media.1.codec.sample_rate">48000</property>
  <property name="meta.media.1.codec.channels">1</property>
  <property name="meta.media.1.codec.name">pcm_s16le</property>
  <property name="meta.media.1.codec.long_name">PCM signed 16-bit little-endian</property>
  <property name="meta.media.1.codec.bit_rate">768000</property>
  <property name="meta.attr.1.stream.language.markup">eng</property>
  <property name="meta.attr.1.stream.DURATION.markup">00:02:41.992000000</property>
  <property name="meta.attr.COMPATIBLE_BRANDS.markup">qt  CAEP</property>
  <property name="meta.attr.creation_time.markup">2021-06-02T16:31:04.000000Z</property>
  <property name="meta.attr.MAJOR_BRAND.markup">qt  </property>
  <property name="meta.attr.MINOR_VERSION.markup">537331968</property>
  <property name="meta.attr.ENCODER.markup">Lavf58.45.100</property>
  <property name="meta.media.sample_aspect_num">1</property>
  <property name="meta.media.sample_aspect_den">1</property>
  <property name="meta.media.frame_rate_num">30000</property>
  <property name="meta.media.frame_rate_den">1001</property>
  <property name="meta.media.colorspace">601</property>
  <property name="meta.media.color_trc">1</property>
  <property name="meta.media.width">1280</property>
  <property name="meta.media.height">720</property>
  <property name="meta.media.color_range">full</property>
  <property name="meta.media.top_field_first">0</property>
  <property name="meta.media.progressive">1</property>
  <property name="set.test_audio">1</property>
  <property name="set.test_image">0</property>
  <filter id="filter410">
   <property name="version">0.1</property>
   <property name="mlt_service">frei0r.hqdn3d</property>
   <property name="kdenlive_id">frei0r.hqdn3d</property>
   <property name="Spatial">00:00:00.000=0.01</property>
   <property name="Temporal">00:00:00.000=0.01</property>
  </filter>
  <filter id="filter411">
   <property name="version">0.6</property>
   <property name="mlt_service">frei0r.select0r</property>
   <property name="kdenlive_id">frei0r.select0r</property>
   <property name="Color to select">0x79edc5ff</property>
   <property name="Invert selection">1</property>
   <property name="Selection subspace">1</property>
   <property name="Subspace shape">0</property>
   <property name="Edge mode">0.9</property>
   <property name="Delta R / A / Hue">00:00:00.000=0.04</property>
   <property name="Delta G / B / Chroma">00:00:00.000=0.178</property>
   <property name="Delta B / I / I">00:00:00.000=0.308</property>
   <property name="Slope">00:00:00.000=0.13</property>
   <property name="Operation">0.5</property>
  </filter>
  <filter id="filter412">
   <property name="mlt_service">avfilter.despill</property>
   <property name="kdenlive_id">avfilter.despill</property>
   <property name="av.type">green</property>
   <property name="av.mix">0.146</property>
   <property name="av.expand">0.04</property>
   <property name="av.red">0</property>
   <property name="av.green">-0.8</property>
   <property name="av.blue">-0.4</property>
   <property name="av.brightness">0</property>
  </filter>
 </producer>
 <playlist id="playlist24">
  <blank length="00:00:07.000"/>
  <entry producer="producer188" in="00:00:06.000" out="00:00:19.067">
   <property name="kdenlive:id">74</property>
   <property name="kdenlive:activeeffect">6</property>
   <filter id="filter257">
    <property name="rotate_center">1</property>
    <property name="mlt_service">qtblend</property>
    <property name="kdenlive_id">qtblend</property>
    <property name="rect">00:00:06.000~=750 6 960 1280 0.000000;00:00:18.433=843 -324 1434 1912 1.000000;00:00:19.067=845 -329 1440 1920 1.000000</property>
    <property name="rotation">00:00:06.000~=0;00:00:18.433=0;00:00:19.067=0</property>
    <property name="compositing">0</property>
    <property name="distort">0</property>
    <property name="kdenlive:collapsed">0</property>
   </filter>
   <filter id="filter282">
    <property name="mode">alpha</property>
    <property name="alpha_operation">sub</property>
    <property name="invert">0</property>
    <property name="feather">58</property>
    <property name="feather_passes">2</property>
    <property name="mlt_service">rotoscoping</property>
    <property name="kdenlive_id">rotoscoping</property>
    <property name="spline">{
    "180": [
        [
            [
                -0.021383647798742623,
                0.18880597014925363
            ],
            [
                0.002096436058699648,
                -0.11567164179104501
            ],
            [
                0.11907756813417143,
                -0.09925373134328393
            ]
        ],
        [
            [
                0.47002096436058655,
                -0.050000000000000336
            ],
            [
                0.5870020964360592,
                -0.033582089552239104
            ],
            [
                0.5781970649895177,
                0.002985074626865328
            ]
        ],
        [
            [
                0.5517819706498949,
                0.1126865671641788
            ],
            [
                0.5429769392033539,
                0.1492537313432834
            ],
            [
                0.5308176100628922,
                0.16865671641791025
            ]
        ],
        [
            [
                0.49433962264150894,
                0.22686567164179094
            ],
            [
                0.48218029350104774,
                0.2462686567164178
            ],
            [
                0.47924528301886743,
                0.2820895522388054
            ]
        ],
        [
            [
                0.47044025157232655,
                0.3895522388059696
            ],
            [
                0.46750524109014624,
                0.4253731343283579
            ],
            [
                0.46750524109014624,
                0.4589552238805965
            ]
        ],
        [
            [
                0.46750524109014624,
                0.5597014925373129
            ],
            [
                0.46750524109014624,
                0.5932835820895518
            ],
            [
                0.45744234800838524,
                0.6141791044776114
            ]
        ],
        [
            [
                0.45345911949685486,
                0.654477611940298
            ],
            [
                0.44339622641509385,
                0.6753731343283579
            ],
            [
                0.45849056603773536,
                0.6854477611940294
            ]
        ],
        [
            [
                0.47756813417190724,
                0.7380597014925367
            ],
            [
                0.49266247379454875,
                0.7481343283582085
            ],
            [
                0.49098532494758856,
                0.7708955223880591
            ]
        ],
        [
            [
                0.48595387840670806,
                0.8391791044776116
            ],
            [
                0.48427672955974793,
                0.8619402985074621
            ],
            [
                0.48993710691823844,
                0.8727611940298502
            ]
        ],
        [
            [
                0.5069182389937104,
                0.9052238805970144
            ],
            [
                0.5125786163522004,
                0.9160447761194024
            ],
            [
                0.5140461215932911,
                0.9567164179104479
            ]
        ],
        [
            [
                0.5184486373165611,
                1.0787313432835821
            ],
            [
                0.5199161425576508,
                1.119402985074627
            ],
            [
                0.5165618448637309,
                1.162686567164179
            ]
        ],
        [
            [
                0.5064989517819699,
                1.292537313432836
            ],
            [
                0.5031446540880498,
                1.3358208955223883
            ],
            [
                0.3794549266247373,
                1.35
            ]
        ],
        [
            [
                0.008385744234800303,
                1.392537313432836
            ],
            [
                -0.11530398322851183,
                1.4067164179104479
            ],
            [
                -0.09182389937106981,
                1.1022388059701493
            ]
        ]
    ],
    "269": [
        [
            [
                -0.03683962264150977,
                0.1568750000000001
            ],
            [
                -0.013359538784067463,
                -0.14760261194029847
            ],
            [
                0.10362159329140438,
                -0.13118470149253741
            ]
        ],
        [
            [
                0.5203354297693907,
                -0.07030783582089548
            ],
            [
                0.6373165618448644,
                -0.05388992537313426
            ],
            [
                0.6285115303983232,
                -0.017322761194029777
            ]
        ],
        [
            [
                0.6154044804160799,
                0.05181117975695286
            ],
            [
                0.6065994489695388,
                0.08837834393605738
            ],
            [
                0.5944401198290772,
                0.10778132901068428
            ]
        ],
        [
            [
                0.5532975621770856,
                0.19255744841366948
            ],
            [
                0.5411382330366238,
                0.2119604334882963
            ],
            [
                0.5382032225544433,
                0.247781329010684
            ]
        ],
        [
            [
                0.5415260737074837,
                0.3353186424435199
            ],
            [
                0.5385910632253033,
                0.37113953796590804
            ],
            [
                0.5385910632253033,
                0.4047216275181468
            ]
        ],
        [
            [
                0.5348594070408168,
                0.5071283439360571
            ],
            [
                0.5348594070408168,
                0.5407104334882961
            ],
            [
                0.5247965139590558,
                0.5616059558763555
            ]
        ],
        [
            [
                0.5287430548395587,
                0.6102067021450122
            ],
            [
                0.5186801617577977,
                0.6311022245330721
            ],
            [
                0.5337745013804394,
                0.6411768513987435
            ]
        ],
        [
            [
                0.5278825995807118,
                0.7177518656716416
            ],
            [
                0.5429769392033538,
                0.7278264925373132
            ],
            [
                0.5412997903563931,
                0.750587686567164
            ]
        ],
        [
            [
                0.5365232383636332,
                0.8061683896093301
            ],
            [
                0.5348460895166728,
                0.8289295836391809
            ],
            [
                0.5405064668751639,
                0.8397504791615689
            ]
        ],
        [
            [
                0.5327577298919699,
                0.8999734931897885
            ],
            [
                0.5384181072504599,
                0.9107943887121766
            ],
            [
                0.5398856124915506,
                0.9514660305032215
            ]
        ],
        [
            [
                0.5568824678374626,
                1.0676693887121773
            ],
            [
                0.5583499730785525,
                1.1083410305032222
            ],
            [
                0.5549956753846325,
                1.1516246125927745
            ]
        ],
        [
            [
                0.556813417190775,
                1.272229477611941
            ],
            [
                0.553459119496855,
                1.315513059701493
            ],
            [
                0.42976939203354203,
                1.329692164179105
            ]
        ],
        [
            [
                0.05870020964360518,
                1.3722294776119408
            ],
            [
                -0.06498951781970706,
                1.3864085820895522
            ],
            [
                -0.04150943396226502,
                1.0819309701492543
            ]
        ]
    ],
    "380": [
        [
            [
                -0.10838574423480085,
                0.08432835820895519
            ],
            [
                -0.0849056603773585,
                -0.22014925373134328
            ],
            [
                0.03207547169811342,
                -0.20373134328358214
            ]
        ],
        [
            [
                0.530817610062892,
                -0.12835820895522354
            ],
            [
                0.6477987421383653,
                -0.11194029850746244
            ],
            [
                0.6389937106918243,
                -0.07537313432835788
            ]
        ],
        [
            [
                0.642484334009234,
                -0.056834679063697956
            ],
            [
                0.6336793025626931,
                -0.02026751488459346
            ],
            [
                0.6215199734222315,
                -0.0008645298099665633
            ]
        ],
        [
            [
                0.5745598057073464,
                0.11704591795122755
            ],
            [
                0.5624004765668847,
                0.13644890302585433
            ],
            [
                0.5594654660847045,
                0.17226979854824226
            ]
        ],
        [
            [
                0.5779141034012668,
                0.23495636571242148
            ],
            [
                0.5749790929190862,
                0.2707772612348095
            ],
            [
                0.5749790929190862,
                0.3043593507870483
            ]
        ],
        [
            [
                0.5665933486842852,
                0.4088369627273468
            ],
            [
                0.5665933486842852,
                0.44241905227958567
            ],
            [
                0.5565304556025239,
                0.46331457466764514
            ]
        ],
        [
            [
                0.570366933589946,
                0.5222697985482421
            ],
            [
                0.5603040405081845,
                0.543165320936302
            ],
            [
                0.5753983801308267,
                0.5532399478019733
            ]
        ],
        [
            [
                0.5383647798742125,
                0.6597014925373137
            ],
            [
                0.5534591194968547,
                0.6697761194029852
            ],
            [
                0.5517819706498942,
                0.6925373134328361
            ]
        ],
        [
            [
                0.5473233208463633,
                0.7322750999102843
            ],
            [
                0.5456461719994028,
                0.7550362939401354
            ],
            [
                0.551306549357894,
                0.7658571894625231
            ]
        ],
        [
            [
                0.5530398322851159,
                0.8884328358208955
            ],
            [
                0.5587002096436059,
                0.8992537313432836
            ],
            [
                0.5601677148846964,
                0.9399253731343281
            ]
        ],
        [
            [
                0.5525472270909938,
                1.021150395563168
            ],
            [
                0.5540147323320838,
                1.0618220373542127
            ],
            [
                0.5506604346381636,
                1.1051056194437654
            ]
        ],
        [
            [
                0.567295597484276,
                1.2141791044776122
            ],
            [
                0.5639412997903559,
                1.2574626865671643
            ],
            [
                0.440251572327043,
                1.2716417910447764
            ]
        ],
        [
            [
                0.06918238993710617,
                1.3141791044776123
            ],
            [
                -0.054507337526206213,
                1.3283582089552235
            ],
            [
                -0.03102725366876415,
                1.0238805970149256
            ]
        ]
    ],
    "469": [
        [
            [
                -0.1733752620545074,
                0.12537313432835812
            ],
            [
                -0.149895178197065,
                -0.1791044776119403
            ],
            [
                -0.03291404612159318,
                -0.16268656716417915
            ]
        ],
        [
            [
                0.5748427672955977,
                -0.12462686567164138
            ],
            [
                0.6918238993710696,
                -0.1082089552238803
            ],
            [
                0.6830188679245286,
                -0.07164179104477583
            ]
        ],
        [
            [
                0.6704757028595536,
                -0.004226767603813591
            ],
            [
                0.6616706714130126,
                0.0323403965752909
            ],
            [
                0.649511342272551,
                0.0517433816499178
            ]
        ],
        [
            [
                0.6081711386909293,
                0.13764519787002208
            ],
            [
                0.5960118095504683,
                0.15704818294464887
            ],
            [
                0.5930767990682877,
                0.19286907846703683
            ]
        ],
        [
            [
                0.5969135296383666,
                0.27956211928703356
            ],
            [
                0.5939785191561865,
                0.31538301480942155
            ],
            [
                0.5939785191561865,
                0.34896510436166017
            ]
        ],
        [
            [
                0.5900887462279958,
                0.45144217683064103
            ],
            [
                0.5900887462279958,
                0.48502426638287954
            ],
            [
                0.5800258531462344,
                0.5059197887709389
            ]
        ],
        [
            [
                0.5843083921071096,
                0.5548723152949446
            ],
            [
                0.5742454990253485,
                0.5757678376830049
            ],
            [
                0.5893398386479901,
                0.5858424645486763
            ]
        ],
        [
            [
                0.5823899371069184,
                0.6634328358208956
            ],
            [
                0.5974842767295601,
                0.6735074626865671
            ],
            [
                0.5958071278825997,
                0.6962686567164178
            ]
        ],
        [
            [
                0.5916033726271895,
                0.7233035641464798
            ],
            [
                0.5899262237802294,
                0.746064758176331
            ],
            [
                0.5955866011387201,
                0.7568856536987187
            ]
        ],
        [
            [
                0.5572441603372624,
                0.8591835902454934
            ],
            [
                0.5629045376957534,
                0.8700044857678815
            ],
            [
                0.5643720429368433,
                0.9106761275589261
            ]
        ],
        [
            [
                0.5803049569829651,
                1.0420194111410161
            ],
            [
                0.5817724622240553,
                1.082691052932061
            ],
            [
                0.5784181645301348,
                1.1259746350216138
            ]
        ],
        [
            [
                0.6113207547169813,
                1.2179104477611944
            ],
            [
                0.6079664570230611,
                1.2611940298507462
            ],
            [
                0.48427672955974815,
                1.2753731343283583
            ]
        ],
        [
            [
                -0.07651991614255754,
                1.3365671641791057
            ],
            [
                -0.20020964360587,
                1.3507462686567164
            ],
            [
                -0.17672955974842788,
                1.0462686567164186
            ]
        ]
    ]
}
</property>
    <property name="kdenlive:collapsed">0</property>
   </filter>
   <filter id="filter283">
    <property name="version">0.4</property>
    <property name="mlt_service">frei0r.alpha0ps</property>
    <property name="kdenlive_id">frei0r.alpha0ps</property>
    <property name="Display">0</property>
    <property name="Display input alpha">0</property>
    <property name="Operation">1</property>
    <property name="Threshold">00:00:06.000=0.2</property>
    <property name="Shrink/Grow/Blur amount">00:00:06.000=0.04</property>
    <property name="Invert">0</property>
    <property name="kdenlive:collapsed">0</property>
   </filter>
   <filter id="filter284" in="00:00:06.000" out="00:00:06.333">
    <property name="start">0</property>
    <property name="mlt_service">brightness</property>
    <property name="kdenlive_id">fade_from_black</property>
    <property name="end">1</property>
    <property name="alpha">-1</property>
    <property name="kdenlive:collapsed">0</property>
   </filter>
   <filter id="filter285">
    <property name="mlt_service">avfilter.gblur</property>
    <property name="kdenlive_id">avfilter.gblur</property>
    <property name="av.sigma">2</property>
    <property name="av.steps">1</property>
    <property name="av.planes">7</property>
    <property name="av.sigmaV">-1</property>
    <property name="kdenlive:collapsed">0</property>
   </filter>
   <filter id="filter299">
    <property name="version">0.1</property>
    <property name="mlt_service">frei0r.posterize</property>
    <property name="kdenlive_id">frei0r.posterize</property>
    <property name="0">0.05</property>
    <property name="kdenlive:collapsed">0</property>
   </filter>
   <filter id="filter300">
    <property name="version">0.1</property>
    <property name="mlt_service">frei0r.colorize</property>
    <property name="kdenlive_id">frei0r.colorize</property>
    <property name="hue">00:00:06.000=0.555556;00:00:13.300=0.567229;00:00:18.067=0.841667;00:00:19.067=0.835205</property>
    <property name="saturation">00:00:06.000=0;00:00:13.300=0.0255904;00:00:18.067=0.161111;00:00:19.067=0.111111</property>
    <property name="lightness">00:00:06.000=0;00:00:13.300=0.486531;00:00:18.067=0.180556;00:00:19.067=0.263889</property>
    <property name="kdenlive:collapsed">0</property>
   </filter>
  </entry>
  <blank length="00:00:00.633"/>
  <entry producer="producer189" in="00:00:00.000" out="00:00:59.667">
   <property name="kdenlive:id">77</property>
   <filter id="filter413">
    <property name="rotate_center">1</property>
    <property name="mlt_service">qtblend</property>
    <property name="kdenlive_id">qtblend</property>
    <property name="rect">00:00:00.000=-256 240 1080 608 1.000000</property>
    <property name="rotation">00:00:00.000=90</property>
    <property name="compositing">0</property>
    <property name="distort">0</property>
    <property name="kdenlive:collapsed">0</property>
   </filter>
  </entry>
  <blank length="00:00:00.367"/>
  <entry producer="producer190" in="00:00:00.000" out="00:00:22.167">
   <property name="kdenlive:id">78</property>
  </entry>
  <entry producer="producer190" in="00:00:22.200" out="00:00:23.767">
   <property name="kdenlive:id">78</property>
  </entry>
  <entry producer="producer190" in="00:00:23.800" out="00:00:26.400">
   <property name="kdenlive:id">78</property>
  </entry>
  <entry producer="producer190" in="00:00:26.433" out="00:00:28.900">
   <property name="kdenlive:id">78</property>
  </entry>
  <entry producer="producer190" in="00:00:28.933" out="00:00:29.533">
   <property name="kdenlive:id">78</property>
  </entry>
  <blank length="00:02:14.400"/>
  <entry producer="producer191" in="00:00:02.400" out="00:00:04.267">
   <property name="kdenlive:id">76</property>
   <filter id="filter414" in="00:00:03.967" out="00:00:04.267">
    <property name="start">1</property>
    <property name="mlt_service">brightness</property>
    <property name="kdenlive_id">fade_to_black</property>
    <property name="end">0</property>
    <property name="alpha">-1</property>
    <property name="kdenlive:collapsed">0</property>
   </filter>
  </entry>
  <blank length="00:00:01.700"/>
  <entry producer="producer191" in="00:00:06.000" out="00:00:08.167">
   <property name="kdenlive:id">76</property>
   <filter id="filter415" in="00:00:06.000" out="00:00:06.167">
    <property name="start">0</property>
    <property name="mlt_service">brightness</property>
    <property name="kdenlive_id">fade_from_black</property>
    <property name="end">1</property>
    <property name="alpha">-1</property>
    <property name="kdenlive:collapsed">0</property>
   </filter>
   <filter id="filter416" in="00:00:07.467" out="00:00:08.167">
    <property name="start">1</property>
    <property name="mlt_service">brightness</property>
    <property name="kdenlive_id">fade_to_black</property>
    <property name="end">0</property>
    <property name="alpha">-1</property>
    <property name="kdenlive:collapsed">0</property>
   </filter>
  </entry>
  <blank length="00:00:01.467"/>
  <entry producer="producer191" in="00:00:09.667" out="00:00:15.600">
   <property name="kdenlive:id">76</property>
   <filter id="filter417" in="00:00:15.167" out="00:00:15.600">
    <property name="start">1</property>
    <property name="mlt_service">brightness</property>
    <property name="kdenlive_id">fade_to_black</property>
    <property name="end">0</property>
    <property name="alpha">-1</property>
   </filter>
   <filter id="filter418" in="00:00:09.667" out="00:00:09.900">
    <property name="start">0</property>
    <property name="mlt_service">brightness</property>
    <property name="kdenlive_id">fade_from_black</property>
    <property name="end">1</property>
    <property name="alpha">-1</property>
   </filter>
  </entry>
  <blank length="00:01:54.867"/>
  <entry producer="producer192" in="00:02:10.500" out="00:02:19.100">
   <property name="kdenlive:id">76</property>
   <filter id="filter301" in="00:02:17.367" out="00:02:19.100">
    <property name="start">1</property>
    <property name="mlt_service">brightness</property>
    <property name="kdenlive_id">fade_to_black</property>
    <property name="end">0</property>
    <property name="alpha">-1</property>
    <property name="kdenlive:collapsed">0</property>
   </filter>
   <filter id="filter302" in="00:02:10.500" out="00:02:11.467">
    <property name="start">0</property>
    <property name="mlt_service">brightness</property>
    <property name="kdenlive_id">fade_from_black</property>
    <property name="end">1</property>
    <property name="alpha">-1</property>
   </filter>
  </entry>
 </playlist>
 <playlist id="playlist25"/>
 <tractor id="tractor12" in="00:00:00.000" out="00:06:21.467">
  <property name="kdenlive:trackheight">69</property>
  <property name="kdenlive:timeline_active">1</property>
  <property name="kdenlive:collapsed">28</property>
  <property name="kdenlive:track_name">caleb-closeup</property>
  <property name="kdenlive:thumbs_format"/>
  <property name="kdenlive:audio_rec"/>
  <track hide="audio" producer="playlist24"/>
  <track producer="playlist25"/>
 </tractor>
 <producer id="producer193" in="00:00:00.000" out="00:02:03.800">
  <property name="length">3715</property>
  <property name="eof">pause</property>
  <property name="resource">/home/ryankelln/.cache/kdenlive/proxy/ff701e251d0df294f877763fc3abac78.mkv</property>
  <property name="audio_index">1</property>
  <property name="video_index">0</property>
  <property name="mute_on_pause">0</property>
  <property name="mlt_service">avformat-novalidate</property>
  <property name="seekable">1</property>
  <property name="aspect_ratio">1</property>
  <property name="kdenlive:clipname">2021-06-02_Caleb+Chris_upright+piano+handheld_suzy_MVI_5994-take1_chris.mkv</property>
  <property name="kdenlive:folderid">103</property>
  <property name="kdenlive:id">79</property>
  <property name="kdenlive:file_size">727311861</property>
  <property name="kdenlive:file_hash">ff701e251d0df294f877763fc3abac78</property>
  <property name="kdenlive:proxy">/home/ryankelln/.cache/kdenlive/proxy/ff701e251d0df294f877763fc3abac78.mkv</property>
  <property name="kdenlive:originalurl">content/musicians/2021-06-02_Caleb+Chris_upright+piano+handheld_suzy_MVI_5994-take1_chris.mkv</property>
  <property name="kdenlive:original.mlt_type">producer</property>
  <property name="kdenlive:original.in">0</property>
  <property name="kdenlive:original.out">3714</property>
  <property name="kdenlive:original.length">3715</property>
  <property name="kdenlive:original.eof">pause</property>
  <property name="kdenlive:original.resource">content/musicians/2021-06-02_Caleb+Chris_upright+piano+handheld_suzy_MVI_5994-take1_chris.mkv</property>
  <property name="kdenlive:original.meta.media.nb_streams">2</property>
  <property name="kdenlive:original.meta.media.0.stream.type">video</property>
  <property name="kdenlive:original.meta.media.0.stream.frame_rate">29.97</property>
  <property name="kdenlive:original.meta.media.0.stream.sample_aspect_ratio">0</property>
  <property name="kdenlive:original.meta.media.0.codec.width">1920</property>
  <property name="kdenlive:original.meta.media.0.codec.height">1080</property>
  <property name="kdenlive:original.meta.media.0.codec.rotate">0</property>
  <property name="kdenlive:original.meta.media.0.codec.frame_rate">1000</property>
  <property name="kdenlive:original.meta.media.0.codec.pix_fmt">yuvj420p</property>
  <property name="kdenlive:original.meta.media.0.codec.sample_aspect_ratio">0</property>
  <property name="kdenlive:original.meta.media.0.codec.colorspace">601</property>
  <property name="kdenlive:original.meta.media.0.codec.color_trc">1</property>
  <property name="kdenlive:original.meta.media.0.codec.name">h264</property>
  <property name="kdenlive:original.meta.media.0.codec.long_name">H.264 / AVC / MPEG-4 AVC / MPEG-4 part 10</property>
  <property name="kdenlive:original.meta.media.0.codec.bit_rate">0</property>
  <property name="kdenlive:original.meta.attr.0.stream.language.markup">eng</property>
  <property name="kdenlive:original.meta.attr.0.stream.DURATION.markup">00:02:03.824000000</property>
  <property name="kdenlive:original.meta.media.1.stream.type">audio</property>
  <property name="kdenlive:original.meta.media.1.codec.sample_fmt">s16</property>
  <property name="kdenlive:original.meta.media.1.codec.sample_rate">48000</property>
  <property name="kdenlive:original.meta.media.1.codec.channels">2</property>
  <property name="kdenlive:original.meta.media.1.codec.name">pcm_s16le</property>
  <property name="kdenlive:original.meta.media.1.codec.long_name">PCM signed 16-bit little-endian</property>
  <property name="kdenlive:original.meta.media.1.codec.bit_rate">1536000</property>
  <property name="kdenlive:original.meta.attr.1.stream.language.markup">eng</property>
  <property name="kdenlive:original.meta.attr.1.stream.DURATION.markup">00:02:03.827000000</property>
  <property name="kdenlive:original.meta.attr.COMPATIBLE_BRANDS.markup">qt  CAEP</property>
  <property name="kdenlive:original.meta.attr.creation_time.markup">2021-06-02T14:29:18.000000Z</property>
  <property name="kdenlive:original.meta.attr.MAJOR_BRAND.markup">qt  </property>
  <property name="kdenlive:original.meta.attr.MINOR_VERSION.markup">537331968</property>
  <property name="kdenlive:original.meta.attr.ENCODER.markup">Lavf58.45.100</property>
  <property name="kdenlive:original.seekable">1</property>
  <property name="kdenlive:original.width">1920</property>
  <property name="kdenlive:original.height">1080</property>
  <property name="kdenlive:original.meta.media.sample_aspect_num">1</property>
  <property name="kdenlive:original.meta.media.sample_aspect_den">1</property>
  <property name="kdenlive:original.aspect_ratio">1</property>
  <property name="kdenlive:original.audio_index">1</property>
  <property name="kdenlive:original.video_index">0</property>
  <property name="kdenlive:original.mute_on_pause">0</property>
  <property name="kdenlive:original.mlt_service">avformat-novalidate</property>
  <property name="kdenlive:original.kdenlive:folderid">103</property>
  <property name="kdenlive:original.meta.media.frame_rate_num">30000</property>
  <property name="kdenlive:original.meta.media.frame_rate_den">1001</property>
  <property name="kdenlive:original.meta.media.colorspace">601</property>
  <property name="kdenlive:original.meta.media.color_trc">1</property>
  <property name="kdenlive:original.meta.media.width">1920</property>
  <property name="kdenlive:original.meta.media.height">1080</property>
  <property name="kdenlive:original.meta.media.color_range">full</property>
  <property name="kdenlive:original.kdenlive:id">114</property>
  <property name="kdenlive:original.kdenlive:file_size">727311861</property>
  <property name="kdenlive:original.kdenlive:file_hash">ff701e251d0df294f877763fc3abac78</property>
  <property name="kdenlive:original.backup">1</property>
  <property name="kdenlive:audio_max">1</property>
  <property name="global_feed">1</property>
  <property name="xml">was here</property>
  <property name="meta.media.nb_streams">2</property>
  <property name="meta.media.0.stream.type">video</property>
  <property name="meta.media.0.stream.frame_rate">29.97</property>
  <property name="meta.media.0.stream.sample_aspect_ratio">0</property>
  <property name="meta.media.0.codec.width">960</property>
  <property name="meta.media.0.codec.height">540</property>
  <property name="meta.media.0.codec.rotate">0</property>
  <property name="meta.media.0.codec.frame_rate">1000</property>
  <property name="meta.media.0.codec.pix_fmt">yuvj420p</property>
  <property name="meta.media.0.codec.sample_aspect_ratio">0</property>
  <property name="meta.media.0.codec.colorspace">601</property>
  <property name="meta.media.0.codec.name">mjpeg</property>
  <property name="meta.media.0.codec.long_name">MJPEG (Motion JPEG)</property>
  <property name="meta.media.0.codec.bit_rate">0</property>
  <property name="meta.attr.0.stream.language.markup">eng</property>
  <property name="meta.attr.0.stream.ENCODER.markup">Lavc58.91.100 mjpeg</property>
  <property name="meta.attr.0.stream.DURATION.markup">00:02:03.823000000</property>
  <property name="meta.media.1.stream.type">audio</property>
  <property name="meta.media.1.codec.sample_fmt">s16</property>
  <property name="meta.media.1.codec.sample_rate">48000</property>
  <property name="meta.media.1.codec.channels">2</property>
  <property name="meta.media.1.codec.name">pcm_s16le</property>
  <property name="meta.media.1.codec.long_name">PCM signed 16-bit little-endian</property>
  <property name="meta.media.1.codec.bit_rate">1536000</property>
  <property name="meta.attr.1.stream.language.markup">eng</property>
  <property name="meta.attr.1.stream.ENCODER.markup">Lavc58.91.100 pcm_s16le</property>
  <property name="meta.attr.1.stream.DURATION.markup">00:02:03.827000000</property>
  <property name="meta.attr.MAJOR_BRAND.markup">qt  </property>
  <property name="meta.attr.COMPATIBLE_BRANDS.markup">qt  CAEP</property>
  <property name="meta.attr.MINOR_VERSION.markup">537331968</property>
  <property name="meta.attr.ENCODER.markup">Lavf58.45.100</property>
  <property name="meta.media.sample_aspect_num">1</property>
  <property name="meta.media.sample_aspect_den">1</property>
  <property name="meta.media.frame_rate_num">30000</property>
  <property name="meta.media.frame_rate_den">1001</property>
  <property name="meta.media.colorspace">601</property>
  <property name="meta.media.color_trc">2</property>
  <property name="meta.media.width">960</property>
  <property name="meta.media.height">540</property>
  <property name="meta.media.color_range">full</property>
  <property name="meta.media.top_field_first">0</property>
  <property name="meta.media.progressive">1</property>
  <property name="set.test_audio">1</property>
  <property name="set.test_image">1</property>
 </producer>
 <producer id="producer194" in="00:00:00.000" out="00:02:03.800">
  <property name="length">3715</property>
  <property name="eof">pause</property>
  <property name="resource">/home/ryankelln/.cache/kdenlive/proxy/ff701e251d0df294f877763fc3abac78.mkv</property>
  <property name="audio_index">1</property>
  <property name="video_index">0</property>
  <property name="mute_on_pause">0</property>
  <property name="mlt_service">avformat-novalidate</property>
  <property name="seekable">1</property>
  <property name="aspect_ratio">1</property>
  <property name="kdenlive:clipname">2021-06-02_Caleb+Chris_upright+piano+handheld_suzy_MVI_5994-take1_chris.mkv</property>
  <property name="kdenlive:folderid">103</property>
  <property name="kdenlive:id">79</property>
  <property name="kdenlive:file_size">727311861</property>
  <property name="kdenlive:file_hash">ff701e251d0df294f877763fc3abac78</property>
  <property name="kdenlive:proxy">/home/ryankelln/.cache/kdenlive/proxy/ff701e251d0df294f877763fc3abac78.mkv</property>
  <property name="kdenlive:originalurl">content/musicians/2021-06-02_Caleb+Chris_upright+piano+handheld_suzy_MVI_5994-take1_chris.mkv</property>
  <property name="kdenlive:original.mlt_type">producer</property>
  <property name="kdenlive:original.in">0</property>
  <property name="kdenlive:original.out">3714</property>
  <property name="kdenlive:original.length">3715</property>
  <property name="kdenlive:original.eof">pause</property>
  <property name="kdenlive:original.resource">content/musicians/2021-06-02_Caleb+Chris_upright+piano+handheld_suzy_MVI_5994-take1_chris.mkv</property>
  <property name="kdenlive:original.meta.media.nb_streams">2</property>
  <property name="kdenlive:original.meta.media.0.stream.type">video</property>
  <property name="kdenlive:original.meta.media.0.stream.frame_rate">29.97</property>
  <property name="kdenlive:original.meta.media.0.stream.sample_aspect_ratio">0</property>
  <property name="kdenlive:original.meta.media.0.codec.width">1920</property>
  <property name="kdenlive:original.meta.media.0.codec.height">1080</property>
  <property name="kdenlive:original.meta.media.0.codec.rotate">0</property>
  <property name="kdenlive:original.meta.media.0.codec.frame_rate">1000</property>
  <property name="kdenlive:original.meta.media.0.codec.pix_fmt">yuvj420p</property>
  <property name="kdenlive:original.meta.media.0.codec.sample_aspect_ratio">0</property>
  <property name="kdenlive:original.meta.media.0.codec.colorspace">601</property>
  <property name="kdenlive:original.meta.media.0.codec.color_trc">1</property>
  <property name="kdenlive:original.meta.media.0.codec.name">h264</property>
  <property name="kdenlive:original.meta.media.0.codec.long_name">H.264 / AVC / MPEG-4 AVC / MPEG-4 part 10</property>
  <property name="kdenlive:original.meta.media.0.codec.bit_rate">0</property>
  <property name="kdenlive:original.meta.attr.0.stream.language.markup">eng</property>
  <property name="kdenlive:original.meta.attr.0.stream.DURATION.markup">00:02:03.824000000</property>
  <property name="kdenlive:original.meta.media.1.stream.type">audio</property>
  <property name="kdenlive:original.meta.media.1.codec.sample_fmt">s16</property>
  <property name="kdenlive:original.meta.media.1.codec.sample_rate">48000</property>
  <property name="kdenlive:original.meta.media.1.codec.channels">2</property>
  <property name="kdenlive:original.meta.media.1.codec.name">pcm_s16le</property>
  <property name="kdenlive:original.meta.media.1.codec.long_name">PCM signed 16-bit little-endian</property>
  <property name="kdenlive:original.meta.media.1.codec.bit_rate">1536000</property>
  <property name="kdenlive:original.meta.attr.1.stream.language.markup">eng</property>
  <property name="kdenlive:original.meta.attr.1.stream.DURATION.markup">00:02:03.827000000</property>
  <property name="kdenlive:original.meta.attr.COMPATIBLE_BRANDS.markup">qt  CAEP</property>
  <property name="kdenlive:original.meta.attr.creation_time.markup">2021-06-02T14:29:18.000000Z</property>
  <property name="kdenlive:original.meta.attr.MAJOR_BRAND.markup">qt  </property>
  <property name="kdenlive:original.meta.attr.MINOR_VERSION.markup">537331968</property>
  <property name="kdenlive:original.meta.attr.ENCODER.markup">Lavf58.45.100</property>
  <property name="kdenlive:original.seekable">1</property>
  <property name="kdenlive:original.width">1920</property>
  <property name="kdenlive:original.height">1080</property>
  <property name="kdenlive:original.meta.media.sample_aspect_num">1</property>
  <property name="kdenlive:original.meta.media.sample_aspect_den">1</property>
  <property name="kdenlive:original.aspect_ratio">1</property>
  <property name="kdenlive:original.audio_index">1</property>
  <property name="kdenlive:original.video_index">0</property>
  <property name="kdenlive:original.mute_on_pause">0</property>
  <property name="kdenlive:original.mlt_service">avformat-novalidate</property>
  <property name="kdenlive:original.kdenlive:folderid">103</property>
  <property name="kdenlive:original.meta.media.frame_rate_num">30000</property>
  <property name="kdenlive:original.meta.media.frame_rate_den">1001</property>
  <property name="kdenlive:original.meta.media.colorspace">601</property>
  <property name="kdenlive:original.meta.media.color_trc">1</property>
  <property name="kdenlive:original.meta.media.width">1920</property>
  <property name="kdenlive:original.meta.media.height">1080</property>
  <property name="kdenlive:original.meta.media.color_range">full</property>
  <property name="kdenlive:original.kdenlive:id">114</property>
  <property name="kdenlive:original.kdenlive:file_size">727311861</property>
  <property name="kdenlive:original.kdenlive:file_hash">ff701e251d0df294f877763fc3abac78</property>
  <property name="kdenlive:original.backup">1</property>
  <property name="kdenlive:audio_max">1</property>
  <property name="global_feed">1</property>
  <property name="xml">was here</property>
  <property name="meta.media.nb_streams">2</property>
  <property name="meta.media.0.stream.type">video</property>
  <property name="meta.media.0.stream.frame_rate">29.97</property>
  <property name="meta.media.0.stream.sample_aspect_ratio">0</property>
  <property name="meta.media.0.codec.width">960</property>
  <property name="meta.media.0.codec.height">540</property>
  <property name="meta.media.0.codec.rotate">0</property>
  <property name="meta.media.0.codec.frame_rate">1000</property>
  <property name="meta.media.0.codec.pix_fmt">yuvj420p</property>
  <property name="meta.media.0.codec.sample_aspect_ratio">0</property>
  <property name="meta.media.0.codec.colorspace">601</property>
  <property name="meta.media.0.codec.name">mjpeg</property>
  <property name="meta.media.0.codec.long_name">MJPEG (Motion JPEG)</property>
  <property name="meta.media.0.codec.bit_rate">0</property>
  <property name="meta.attr.0.stream.language.markup">eng</property>
  <property name="meta.attr.0.stream.ENCODER.markup">Lavc58.91.100 mjpeg</property>
  <property name="meta.attr.0.stream.DURATION.markup">00:02:03.823000000</property>
  <property name="meta.media.1.stream.type">audio</property>
  <property name="meta.media.1.codec.sample_fmt">s16</property>
  <property name="meta.media.1.codec.sample_rate">48000</property>
  <property name="meta.media.1.codec.channels">2</property>
  <property name="meta.media.1.codec.name">pcm_s16le</property>
  <property name="meta.media.1.codec.long_name">PCM signed 16-bit little-endian</property>
  <property name="meta.media.1.codec.bit_rate">1536000</property>
  <property name="meta.attr.1.stream.language.markup">eng</property>
  <property name="meta.attr.1.stream.ENCODER.markup">Lavc58.91.100 pcm_s16le</property>
  <property name="meta.attr.1.stream.DURATION.markup">00:02:03.827000000</property>
  <property name="meta.attr.MAJOR_BRAND.markup">qt  </property>
  <property name="meta.attr.COMPATIBLE_BRANDS.markup">qt  CAEP</property>
  <property name="meta.attr.MINOR_VERSION.markup">537331968</property>
  <property name="meta.attr.ENCODER.markup">Lavf58.45.100</property>
  <property name="meta.media.sample_aspect_num">1</property>
  <property name="meta.media.sample_aspect_den">1</property>
  <property name="meta.media.frame_rate_num">30000</property>
  <property name="meta.media.frame_rate_den">1001</property>
  <property name="meta.media.colorspace">601</property>
  <property name="meta.media.color_trc">2</property>
  <property name="meta.media.width">960</property>
  <property name="meta.media.height">540</property>
  <property name="meta.media.color_range">full</property>
  <property name="meta.media.top_field_first">0</property>
  <property name="meta.media.progressive">1</property>
  <property name="set.test_audio">1</property>
  <property name="set.test_image">0</property>
 </producer>
 <producer id="producer195" in="00:00:00.000" out="00:02:03.800">
  <property name="length">3715</property>
  <property name="eof">pause</property>
  <property name="resource">/home/ryankelln/.cache/kdenlive/proxy/ff701e251d0df294f877763fc3abac78.mkv</property>
  <property name="audio_index">1</property>
  <property name="video_index">0</property>
  <property name="mute_on_pause">0</property>
  <property name="mlt_service">avformat-novalidate</property>
  <property name="seekable">1</property>
  <property name="aspect_ratio">1</property>
  <property name="kdenlive:clipname">2021-06-02_Caleb+Chris_upright+piano+handheld_suzy_MVI_5994-take1_chris.mkv</property>
  <property name="kdenlive:folderid">103</property>
  <property name="kdenlive:id">79</property>
  <property name="kdenlive:file_size">727311861</property>
  <property name="kdenlive:file_hash">ff701e251d0df294f877763fc3abac78</property>
  <property name="kdenlive:proxy">/home/ryankelln/.cache/kdenlive/proxy/ff701e251d0df294f877763fc3abac78.mkv</property>
  <property name="kdenlive:originalurl">content/musicians/2021-06-02_Caleb+Chris_upright+piano+handheld_suzy_MVI_5994-take1_chris.mkv</property>
  <property name="kdenlive:original.mlt_type">producer</property>
  <property name="kdenlive:original.in">0</property>
  <property name="kdenlive:original.out">3714</property>
  <property name="kdenlive:original.length">3715</property>
  <property name="kdenlive:original.eof">pause</property>
  <property name="kdenlive:original.resource">content/musicians/2021-06-02_Caleb+Chris_upright+piano+handheld_suzy_MVI_5994-take1_chris.mkv</property>
  <property name="kdenlive:original.meta.media.nb_streams">2</property>
  <property name="kdenlive:original.meta.media.0.stream.type">video</property>
  <property name="kdenlive:original.meta.media.0.stream.frame_rate">29.97</property>
  <property name="kdenlive:original.meta.media.0.stream.sample_aspect_ratio">0</property>
  <property name="kdenlive:original.meta.media.0.codec.width">1920</property>
  <property name="kdenlive:original.meta.media.0.codec.height">1080</property>
  <property name="kdenlive:original.meta.media.0.codec.rotate">0</property>
  <property name="kdenlive:original.meta.media.0.codec.frame_rate">1000</property>
  <property name="kdenlive:original.meta.media.0.codec.pix_fmt">yuvj420p</property>
  <property name="kdenlive:original.meta.media.0.codec.sample_aspect_ratio">0</property>
  <property name="kdenlive:original.meta.media.0.codec.colorspace">601</property>
  <property name="kdenlive:original.meta.media.0.codec.color_trc">1</property>
  <property name="kdenlive:original.meta.media.0.codec.name">h264</property>
  <property name="kdenlive:original.meta.media.0.codec.long_name">H.264 / AVC / MPEG-4 AVC / MPEG-4 part 10</property>
  <property name="kdenlive:original.meta.media.0.codec.bit_rate">0</property>
  <property name="kdenlive:original.meta.attr.0.stream.language.markup">eng</property>
  <property name="kdenlive:original.meta.attr.0.stream.DURATION.markup">00:02:03.824000000</property>
  <property name="kdenlive:original.meta.media.1.stream.type">audio</property>
  <property name="kdenlive:original.meta.media.1.codec.sample_fmt">s16</property>
  <property name="kdenlive:original.meta.media.1.codec.sample_rate">48000</property>
  <property name="kdenlive:original.meta.media.1.codec.channels">2</property>
  <property name="kdenlive:original.meta.media.1.codec.name">pcm_s16le</property>
  <property name="kdenlive:original.meta.media.1.codec.long_name">PCM signed 16-bit little-endian</property>
  <property name="kdenlive:original.meta.media.1.codec.bit_rate">1536000</property>
  <property name="kdenlive:original.meta.attr.1.stream.language.markup">eng</property>
  <property name="kdenlive:original.meta.attr.1.stream.DURATION.markup">00:02:03.827000000</property>
  <property name="kdenlive:original.meta.attr.COMPATIBLE_BRANDS.markup">qt  CAEP</property>
  <property name="kdenlive:original.meta.attr.creation_time.markup">2021-06-02T14:29:18.000000Z</property>
  <property name="kdenlive:original.meta.attr.MAJOR_BRAND.markup">qt  </property>
  <property name="kdenlive:original.meta.attr.MINOR_VERSION.markup">537331968</property>
  <property name="kdenlive:original.meta.attr.ENCODER.markup">Lavf58.45.100</property>
  <property name="kdenlive:original.seekable">1</property>
  <property name="kdenlive:original.width">1920</property>
  <property name="kdenlive:original.height">1080</property>
  <property name="kdenlive:original.meta.media.sample_aspect_num">1</property>
  <property name="kdenlive:original.meta.media.sample_aspect_den">1</property>
  <property name="kdenlive:original.aspect_ratio">1</property>
  <property name="kdenlive:original.audio_index">1</property>
  <property name="kdenlive:original.video_index">0</property>
  <property name="kdenlive:original.mute_on_pause">0</property>
  <property name="kdenlive:original.mlt_service">avformat-novalidate</property>
  <property name="kdenlive:original.kdenlive:folderid">103</property>
  <property name="kdenlive:original.meta.media.frame_rate_num">30000</property>
  <property name="kdenlive:original.meta.media.frame_rate_den">1001</property>
  <property name="kdenlive:original.meta.media.colorspace">601</property>
  <property name="kdenlive:original.meta.media.color_trc">1</property>
  <property name="kdenlive:original.meta.media.width">1920</property>
  <property name="kdenlive:original.meta.media.height">1080</property>
  <property name="kdenlive:original.meta.media.color_range">full</property>
  <property name="kdenlive:original.kdenlive:id">114</property>
  <property name="kdenlive:original.kdenlive:file_size">727311861</property>
  <property name="kdenlive:original.kdenlive:file_hash">ff701e251d0df294f877763fc3abac78</property>
  <property name="kdenlive:original.backup">1</property>
  <property name="kdenlive:audio_max">1</property>
  <property name="global_feed">1</property>
  <property name="xml">was here</property>
  <property name="meta.media.nb_streams">2</property>
  <property name="meta.media.0.stream.type">video</property>
  <property name="meta.media.0.stream.frame_rate">29.97</property>
  <property name="meta.media.0.stream.sample_aspect_ratio">0</property>
  <property name="meta.media.0.codec.width">960</property>
  <property name="meta.media.0.codec.height">540</property>
  <property name="meta.media.0.codec.rotate">0</property>
  <property name="meta.media.0.codec.frame_rate">1000</property>
  <property name="meta.media.0.codec.pix_fmt">yuvj420p</property>
  <property name="meta.media.0.codec.sample_aspect_ratio">0</property>
  <property name="meta.media.0.codec.colorspace">601</property>
  <property name="meta.media.0.codec.name">mjpeg</property>
  <property name="meta.media.0.codec.long_name">MJPEG (Motion JPEG)</property>
  <property name="meta.media.0.codec.bit_rate">0</property>
  <property name="meta.attr.0.stream.language.markup">eng</property>
  <property name="meta.attr.0.stream.ENCODER.markup">Lavc58.91.100 mjpeg</property>
  <property name="meta.attr.0.stream.DURATION.markup">00:02:03.823000000</property>
  <property name="meta.media.1.stream.type">audio</property>
  <property name="meta.media.1.codec.sample_fmt">s16</property>
  <property name="meta.media.1.codec.sample_rate">48000</property>
  <property name="meta.media.1.codec.channels">2</property>
  <property name="meta.media.1.codec.name">pcm_s16le</property>
  <property name="meta.media.1.codec.long_name">PCM signed 16-bit little-endian</property>
  <property name="meta.media.1.codec.bit_rate">1536000</property>
  <property name="meta.attr.1.stream.language.markup">eng</property>
  <property name="meta.attr.1.stream.ENCODER.markup">Lavc58.91.100 pcm_s16le</property>
  <property name="meta.attr.1.stream.DURATION.markup">00:02:03.827000000</property>
  <property name="meta.attr.MAJOR_BRAND.markup">qt  </property>
  <property name="meta.attr.COMPATIBLE_BRANDS.markup">qt  CAEP</property>
  <property name="meta.attr.MINOR_VERSION.markup">537331968</property>
  <property name="meta.attr.ENCODER.markup">Lavf58.45.100</property>
  <property name="meta.media.sample_aspect_num">1</property>
  <property name="meta.media.sample_aspect_den">1</property>
  <property name="meta.media.frame_rate_num">30000</property>
  <property name="meta.media.frame_rate_den">1001</property>
  <property name="meta.media.colorspace">601</property>
  <property name="meta.media.color_trc">2</property>
  <property name="meta.media.width">960</property>
  <property name="meta.media.height">540</property>
  <property name="meta.media.color_range">full</property>
  <property name="meta.media.top_field_first">0</property>
  <property name="meta.media.progressive">1</property>
  <property name="set.test_audio">1</property>
  <property name="set.test_image">0</property>
 </producer>
 <producer id="producer196" in="00:00:00.000" out="00:02:40.267">
  <property name="length">4809</property>
  <property name="eof">pause</property>
  <property name="resource">/home/ryankelln/.cache/kdenlive/proxy/9a3c142e8aec82d5a730c7ac662aef65.mkv</property>
  <property name="audio_index">1</property>
  <property name="video_index">0</property>
  <property name="mute_on_pause">0</property>
  <property name="mlt_service">avformat-novalidate</property>
  <property name="seekable">1</property>
  <property name="aspect_ratio">1</property>
  <property name="kdenlive:clipname">2021-02-06_Chris_piano+4k_suzy_P1180164-take4_E_to_end.MP4</property>
  <property name="kdenlive:folderid">103</property>
  <property name="kdenlive:id">73</property>
  <property name="kdenlive:file_size">1922240803</property>
  <property name="kdenlive:file_hash">9a3c142e8aec82d5a730c7ac662aef65</property>
  <property name="kdenlive:audio_max">1</property>
  <property name="kdenlive:proxy">/home/ryankelln/.cache/kdenlive/proxy/9a3c142e8aec82d5a730c7ac662aef65.mkv</property>
  <property name="kdenlive:originalurl">content/musicians/2021-02-06_Chris_piano+4k_suzy_P1180164-take4_E_to_end.MP4</property>
  <property name="kdenlive:original.mlt_type">producer</property>
  <property name="kdenlive:original.in">00:00:00.000</property>
  <property name="kdenlive:original.out">00:02:40.267</property>
  <property name="kdenlive:original.length">4809</property>
  <property name="kdenlive:original.eof">pause</property>
  <property name="kdenlive:original.resource">content/musicians/2021-02-06_Chris_piano+4k_suzy_P1180164-take4_E_to_end.MP4</property>
  <property name="kdenlive:original.meta.media.nb_streams">2</property>
  <property name="kdenlive:original.meta.media.0.stream.type">video</property>
  <property name="kdenlive:original.meta.media.0.stream.frame_rate">29.97</property>
  <property name="kdenlive:original.meta.media.0.stream.sample_aspect_ratio">1</property>
  <property name="kdenlive:original.meta.media.0.codec.width">3840</property>
  <property name="kdenlive:original.meta.media.0.codec.height">2160</property>
  <property name="kdenlive:original.meta.media.0.codec.rotate">0</property>
  <property name="kdenlive:original.meta.media.0.codec.frame_rate">29.97</property>
  <property name="kdenlive:original.meta.media.0.codec.pix_fmt">yuvj420p</property>
  <property name="kdenlive:original.meta.media.0.codec.sample_aspect_ratio">1</property>
  <property name="kdenlive:original.meta.media.0.codec.colorspace">709</property>
  <property name="kdenlive:original.meta.media.0.codec.color_trc">1</property>
  <property name="kdenlive:original.meta.media.0.codec.name">h264</property>
  <property name="kdenlive:original.meta.media.0.codec.long_name">H.264 / AVC / MPEG-4 AVC / MPEG-4 part 10</property>
  <property name="kdenlive:original.meta.media.0.codec.bit_rate">95802137</property>
  <property name="kdenlive:original.meta.attr.0.stream.creation_time.markup">2021-06-02T16:31:58.000000Z</property>
  <property name="kdenlive:original.meta.attr.0.stream.handler_name.markup">VideoHandler</property>
  <property name="kdenlive:original.meta.media.1.stream.type">audio</property>
  <property name="kdenlive:original.meta.media.1.codec.sample_fmt">fltp</property>
  <property name="kdenlive:original.meta.media.1.codec.sample_rate">48000</property>
  <property name="kdenlive:original.meta.media.1.codec.channels">2</property>
  <property name="kdenlive:original.meta.media.1.codec.name">aac</property>
  <property name="kdenlive:original.meta.media.1.codec.long_name">AAC (Advanced Audio Coding)</property>
  <property name="kdenlive:original.meta.media.1.codec.bit_rate">125375</property>
  <property name="kdenlive:original.meta.attr.1.stream.creation_time.markup">2021-06-02T16:31:58.000000Z</property>
  <property name="kdenlive:original.meta.attr.1.stream.handler_name.markup">SoundHandler</property>
  <property name="kdenlive:original.meta.attr.major_brand.markup">isom</property>
  <property name="kdenlive:original.meta.attr.minor_version.markup">512</property>
  <property name="kdenlive:original.meta.attr.compatible_brands.markup">isomiso2avc1mp41</property>
  <property name="kdenlive:original.meta.attr.creation_time.markup">2021-06-02T16:31:58.000000Z</property>
  <property name="kdenlive:original.meta.attr.encoder.markup">Lavf58.45.100</property>
  <property name="kdenlive:original.seekable">1</property>
  <property name="kdenlive:original.width">3840</property>
  <property name="kdenlive:original.height">2160</property>
  <property name="kdenlive:original.meta.media.sample_aspect_num">1</property>
  <property name="kdenlive:original.meta.media.sample_aspect_den">1</property>
  <property name="kdenlive:original.aspect_ratio">1</property>
  <property name="kdenlive:original.audio_index">1</property>
  <property name="kdenlive:original.video_index">0</property>
  <property name="kdenlive:original.mute_on_pause">0</property>
  <property name="kdenlive:original.mlt_service">avformat-novalidate</property>
  <property name="kdenlive:original.kdenlive:folderid">103</property>
  <property name="kdenlive:original.meta.media.frame_rate_num">30000</property>
  <property name="kdenlive:original.meta.media.frame_rate_den">1001</property>
  <property name="kdenlive:original.meta.media.colorspace">709</property>
  <property name="kdenlive:original.meta.media.color_trc">1</property>
  <property name="kdenlive:original.meta.media.width">3840</property>
  <property name="kdenlive:original.meta.media.height">2160</property>
  <property name="kdenlive:original.meta.media.color_range">full</property>
  <property name="kdenlive:original.kdenlive:id">107</property>
  <property name="kdenlive:original.kdenlive:file_size">1922240803</property>
  <property name="kdenlive:original.kdenlive:file_hash">9a3c142e8aec82d5a730c7ac662aef65</property>
  <property name="kdenlive:original.kdenlive:audio_max">1</property>
  <property name="kdenlive:original.backup">1</property>
  <property name="global_feed">1</property>
  <property name="kdenlive:activeeffect">2</property>
  <property name="xml">was here</property>
  <property name="meta.media.nb_streams">2</property>
  <property name="meta.media.0.stream.type">video</property>
  <property name="meta.media.0.stream.frame_rate">29.97</property>
  <property name="meta.media.0.stream.sample_aspect_ratio">1</property>
  <property name="meta.media.0.codec.width">960</property>
  <property name="meta.media.0.codec.height">540</property>
  <property name="meta.media.0.codec.rotate">0</property>
  <property name="meta.media.0.codec.frame_rate">1000</property>
  <property name="meta.media.0.codec.pix_fmt">yuvj420p</property>
  <property name="meta.media.0.codec.sample_aspect_ratio">1</property>
  <property name="meta.media.0.codec.colorspace">601</property>
  <property name="meta.media.0.codec.name">mjpeg</property>
  <property name="meta.media.0.codec.long_name">MJPEG (Motion JPEG)</property>
  <property name="meta.media.0.codec.bit_rate">0</property>
  <property name="meta.attr.0.stream.HANDLER_NAME.markup">VideoHandler</property>
  <property name="meta.attr.0.stream.ENCODER.markup">Lavc58.91.100 mjpeg</property>
  <property name="meta.attr.0.stream.DURATION.markup">00:02:40.393000000</property>
  <property name="meta.media.1.stream.type">audio</property>
  <property name="meta.media.1.codec.sample_fmt">s16</property>
  <property name="meta.media.1.codec.sample_rate">48000</property>
  <property name="meta.media.1.codec.channels">2</property>
  <property name="meta.media.1.codec.name">pcm_s16le</property>
  <property name="meta.media.1.codec.long_name">PCM signed 16-bit little-endian</property>
  <property name="meta.media.1.codec.bit_rate">1536000</property>
  <property name="meta.attr.1.stream.HANDLER_NAME.markup">SoundHandler</property>
  <property name="meta.attr.1.stream.ENCODER.markup">Lavc58.91.100 pcm_s16le</property>
  <property name="meta.attr.1.stream.DURATION.markup">00:02:40.298000000</property>
  <property name="meta.attr.COMPATIBLE_BRANDS.markup">isomiso2avc1mp41</property>
  <property name="meta.attr.MAJOR_BRAND.markup">isom</property>
  <property name="meta.attr.MINOR_VERSION.markup">512</property>
  <property name="meta.attr.ENCODER.markup">Lavf58.45.100</property>
  <property name="meta.media.sample_aspect_num">1</property>
  <property name="meta.media.sample_aspect_den">1</property>
  <property name="meta.media.frame_rate_num">30000</property>
  <property name="meta.media.frame_rate_den">1001</property>
  <property name="meta.media.colorspace">601</property>
  <property name="meta.media.color_trc">2</property>
  <property name="meta.media.width">960</property>
  <property name="meta.media.height">540</property>
  <property name="meta.media.color_range">full</property>
  <property name="meta.media.top_field_first">0</property>
  <property name="meta.media.progressive">1</property>
  <property name="set.test_audio">1</property>
  <property name="set.test_image">1</property>
  <filter id="filter303">
   <property name="version">0.1</property>
   <property name="mlt_service">frei0r.hqdn3d</property>
   <property name="kdenlive_id">frei0r.hqdn3d</property>
   <property name="Spatial">00:00:00.000=0.01</property>
   <property name="Temporal">00:00:00.000=0.01</property>
   <property name="kdenlive:collapsed">0</property>
  </filter>
  <filter id="filter304">
   <property name="version">0.6</property>
   <property name="mlt_service">frei0r.select0r</property>
   <property name="kdenlive_id">frei0r.select0r</property>
   <property name="Color to select">0x62865aff</property>
   <property name="Invert selection">1</property>
   <property name="Selection subspace">1</property>
   <property name="Subspace shape">0</property>
   <property name="Edge mode">0.6</property>
   <property name="Delta R / A / Hue">00:00:00.000=0.089</property>
   <property name="Delta G / B / Chroma">00:00:00.000=0.156</property>
   <property name="Delta B / I / I">00:00:00.000=0.194</property>
   <property name="Slope">00:00:00.000=0.1</property>
   <property name="Operation">0.5</property>
   <property name="kdenlive:collapsed">0</property>
  </filter>
  <filter id="filter305">
   <property name="mode">alpha</property>
   <property name="alpha_operation">add</property>
   <property name="invert">0</property>
   <property name="feather">4</property>
   <property name="feather_passes">1</property>
   <property name="mlt_service">rotoscoping</property>
   <property name="kdenlive_id">rotoscoping</property>
   <property name="spline">{
    "0000": [
        [
            [
                -0.08784067085953878,
                0.5537313432835821
            ],
            [
                -0.08909853249475891,
                0.3805970149253731
            ],
            [
                -0.02117400419287212,
                0.376865671641791
            ]
        ],
        [
            [
                0.17902468958374682,
                0.3585178555962932
            ],
            [
                0.2263329706202394,
                0.3568665377176016
            ],
            [
                0.24646354733405887,
                0.3489361702127659
            ]
        ],
        [
            [
                0.23721436343852012,
                0.34332688588007737
            ],
            [
                0.2480957562568009,
                0.33268858800773693
            ],
            [
                0.24683789462158076,
                0.32224082681370725
            ]
        ],
        [
            [
                0.2390162947146543,
                0.30735298363116714
            ],
            [
                0.23775843307943417,
                0.29690522243713735
            ],
            [
                0.2566263576077363,
                0.28197984930280895
            ]
        ],
        [
            [
                0.31954339212022914,
                0.22962556655792601
            ],
            [
                0.338411316648531,
                0.2147001934235977
            ],
            [
                0.34931278415377215,
                0.24231213372210514
            ]
        ],
        [
            [
                0.3775642561073813,
                0.3321559513842778
            ],
            [
                0.38846572361262244,
                0.35976789168278533
            ],
            [
                0.41026865862310463,
                0.36051416033950173
            ]
        ],
        [
            [
                0.47765299534860345,
                0.3667585669332256
            ],
            [
                0.499455930359086,
                0.367504835589942
            ],
            [
                0.49903664314734564,
                0.3876540893212852
            ]
        ],
        [
            [
                0.49878707828899776,
                0.4334290828257166
            ],
            [
                0.49836779107725787,
                0.45357833655706
            ],
            [
                0.4967355821545158,
                0.5106382978723404
            ]
        ],
        [
            [
                0.5125834069024992,
                0.5194491757845202
            ],
            [
                0.5201305767138193,
                0.5328820116054159
            ],
            [
                0.5625680087051143,
                0.5367504835589942
            ]
        ],
        [
            [
                0.5625680087051143,
                0.5367504835589942
            ],
            [
                0.5696409140369968,
                0.5483558994197293
            ],
            [
                0.5688023396135168,
                0.5647738098674905
            ]
        ],
        [
            [
                0.5704794884604768,
                0.6064060740783522
            ],
            [
                0.5696409140369968,
                0.6228239845261122
            ],
            [
                0.5658324265505984,
                0.6286266924564796
            ]
        ],
        [
            [
                0.5171907756813418,
                0.9843283582089553
            ],
            [
                0.5041928721174004,
                1.0708955223880599
            ],
            [
                0.38679245283018865,
                1.1059701492537315
            ]
        ],
        [
            [
                0.03459119496855346,
                1.2111940298507462
            ],
            [
                -0.08280922431865828,
                1.2462686567164178
            ],
            [
                -0.0840670859538784,
                1.0731343283582089
            ]
        ]
    ]
}
</property>
   <property name="kdenlive:collapsed">0</property>
   <property name="disable">0</property>
  </filter>
  <filter id="filter309">
   <property name="mode">alpha</property>
   <property name="alpha_operation">add</property>
   <property name="invert">0</property>
   <property name="feather">4</property>
   <property name="feather_passes">1</property>
   <property name="mlt_service">rotoscoping</property>
   <property name="kdenlive_id">rotoscoping</property>
   <property name="spline">{
    "0000": [
        [
            [
                0.9047629476027859,
                0.31235601489650394
            ],
            [
                0.895538628944505,
                0.2959381044487428
            ],
            [
                0.8343226960304588,
                0.29369929847859355
            ]
        ],
        [
            [
                0.6493552147421201,
                0.2972097924304975
            ],
            [
                0.588139281828074,
                0.2949709864603482
            ],
            [
                0.587719994616334,
                0.30392621034094525
            ]
        ],
        [
            [
                0.5863822904761579,
                0.3517797857905829
            ],
            [
                0.5859630032644179,
                0.3607350096711799
            ],
            [
                0.5930359085963004,
                0.372340425531915
            ]
        ],
        [
            [
                0.6028291621327531,
                0.40038684719535783
            ],
            [
                0.6099020674646355,
                0.41392649903288203
            ],
            [
                0.6761494469195621,
                0.4154190363463149
            ]
        ],
        [
            [
                0.8739049600445292,
                0.4114668437310546
            ],
            [
                0.9401523394994559,
                0.41295938104448743
            ],
            [
                0.9397330522877159,
                0.4069892317907561
            ]
        ],
        [
            [
                0.9427479052748521,
                0.39571869857674874
            ],
            [
                0.9423286180631121,
                0.38974854932301745
            ],
            [
                0.9331042994048312,
                0.37333063887525625
            ]
        ]
    ]
}
</property>
   <property name="kdenlive:collapsed">0</property>
   <property name="disable">0</property>
  </filter>
  <filter id="filter310">
   <property name="mlt_service">avfilter.despill</property>
   <property name="kdenlive_id">avfilter.despill</property>
   <property name="av.type">green</property>
   <property name="av.mix">0.2</property>
   <property name="av.expand">0.028</property>
   <property name="av.red">0</property>
   <property name="av.green">-0.9</property>
   <property name="av.blue">-0.4</property>
   <property name="av.brightness">0</property>
   <property name="kdenlive:collapsed">0</property>
  </filter>
  <filter id="filter324">
   <property name="version">0.1</property>
   <property name="mlt_service">frei0r.hqdn3d</property>
   <property name="kdenlive_id">frei0r.hqdn3d</property>
   <property name="Spatial">00:00:00.000=0.01</property>
   <property name="Temporal">00:00:00.000=0.01</property>
  </filter>
  <filter id="filter325">
   <property name="version">0.6</property>
   <property name="mlt_service">frei0r.select0r</property>
   <property name="kdenlive_id">frei0r.select0r</property>
   <property name="Color to select">0x62865aff</property>
   <property name="Invert selection">1</property>
   <property name="Selection subspace">1</property>
   <property name="Subspace shape">0</property>
   <property name="Edge mode">0.6</property>
   <property name="Delta R / A / Hue">00:00:00.000=0.089</property>
   <property name="Delta G / B / Chroma">00:00:00.000=0.156</property>
   <property name="Delta B / I / I">00:00:00.000=0.194</property>
   <property name="Slope">00:00:00.000=0.1</property>
   <property name="Operation">0.5</property>
  </filter>
  <filter id="filter326">
   <property name="mode">alpha</property>
   <property name="alpha_operation">add</property>
   <property name="invert">0</property>
   <property name="feather">4</property>
   <property name="feather_passes">1</property>
   <property name="mlt_service">rotoscoping</property>
   <property name="kdenlive_id">rotoscoping</property>
   <property name="spline">{
    "0000": [
        [
            [
                -0.08784067085953878,
                0.5537313432835821
            ],
            [
                -0.08909853249475891,
                0.3805970149253731
            ],
            [
                -0.02117400419287212,
                0.376865671641791
            ]
        ],
        [
            [
                0.17902468958374682,
                0.3585178555962932
            ],
            [
                0.2263329706202394,
                0.3568665377176016
            ],
            [
                0.24646354733405887,
                0.3489361702127659
            ]
        ],
        [
            [
                0.23721436343852012,
                0.34332688588007737
            ],
            [
                0.2480957562568009,
                0.33268858800773693
            ],
            [
                0.24683789462158076,
                0.32224082681370725
            ]
        ],
        [
            [
                0.2390162947146543,
                0.30735298363116714
            ],
            [
                0.23775843307943417,
                0.29690522243713735
            ],
            [
                0.2566263576077363,
                0.28197984930280895
            ]
        ],
        [
            [
                0.31954339212022914,
                0.22962556655792601
            ],
            [
                0.338411316648531,
                0.2147001934235977
            ],
            [
                0.34931278415377215,
                0.24231213372210514
            ]
        ],
        [
            [
                0.3775642561073813,
                0.3321559513842778
            ],
            [
                0.38846572361262244,
                0.35976789168278533
            ],
            [
                0.41026865862310463,
                0.36051416033950173
            ]
        ],
        [
            [
                0.47765299534860345,
                0.3667585669332256
            ],
            [
                0.499455930359086,
                0.367504835589942
            ],
            [
                0.49903664314734564,
                0.3876540893212852
            ]
        ],
        [
            [
                0.49878707828899776,
                0.4334290828257166
            ],
            [
                0.49836779107725787,
                0.45357833655706
            ],
            [
                0.4967355821545158,
                0.5106382978723404
            ]
        ],
        [
            [
                0.5125834069024992,
                0.5194491757845202
            ],
            [
                0.5201305767138193,
                0.5328820116054159
            ],
            [
                0.5625680087051143,
                0.5367504835589942
            ]
        ],
        [
            [
                0.5625680087051143,
                0.5367504835589942
            ],
            [
                0.5696409140369968,
                0.5483558994197293
            ],
            [
                0.5688023396135168,
                0.5647738098674905
            ]
        ],
        [
            [
                0.5704794884604768,
                0.6064060740783522
            ],
            [
                0.5696409140369968,
                0.6228239845261122
            ],
            [
                0.5658324265505984,
                0.6286266924564796
            ]
        ],
        [
            [
                0.5171907756813418,
                0.9843283582089553
            ],
            [
                0.5041928721174004,
                1.0708955223880599
            ],
            [
                0.38679245283018865,
                1.1059701492537315
            ]
        ],
        [
            [
                0.03459119496855346,
                1.2111940298507462
            ],
            [
                -0.08280922431865828,
                1.2462686567164178
            ],
            [
                -0.0840670859538784,
                1.0731343283582089
            ]
        ]
    ]
}
</property>
  </filter>
  <filter id="filter327">
   <property name="mode">alpha</property>
   <property name="alpha_operation">add</property>
   <property name="invert">0</property>
   <property name="feather">4</property>
   <property name="feather_passes">1</property>
   <property name="mlt_service">rotoscoping</property>
   <property name="kdenlive_id">rotoscoping</property>
   <property name="spline">{
    "0000": [
        [
            [
                0.9047629476027859,
                0.31235601489650394
            ],
            [
                0.895538628944505,
                0.2959381044487428
            ],
            [
                0.8343226960304588,
                0.29369929847859355
            ]
        ],
        [
            [
                0.6493552147421201,
                0.2972097924304975
            ],
            [
                0.588139281828074,
                0.2949709864603482
            ],
            [
                0.587719994616334,
                0.30392621034094525
            ]
        ],
        [
            [
                0.5863822904761579,
                0.3517797857905829
            ],
            [
                0.5859630032644179,
                0.3607350096711799
            ],
            [
                0.5930359085963004,
                0.372340425531915
            ]
        ],
        [
            [
                0.6028291621327531,
                0.40038684719535783
            ],
            [
                0.6099020674646355,
                0.41392649903288203
            ],
            [
                0.6761494469195621,
                0.4154190363463149
            ]
        ],
        [
            [
                0.8739049600445292,
                0.4114668437310546
            ],
            [
                0.9401523394994559,
                0.41295938104448743
            ],
            [
                0.9397330522877159,
                0.4069892317907561
            ]
        ],
        [
            [
                0.9427479052748521,
                0.39571869857674874
            ],
            [
                0.9423286180631121,
                0.38974854932301745
            ],
            [
                0.9331042994048312,
                0.37333063887525625
            ]
        ]
    ]
}
</property>
  </filter>
  <filter id="filter328">
   <property name="mlt_service">avfilter.despill</property>
   <property name="kdenlive_id">avfilter.despill</property>
   <property name="av.type">green</property>
   <property name="av.mix">0.2</property>
   <property name="av.expand">0.028</property>
   <property name="av.red">0</property>
   <property name="av.green">-0.9</property>
   <property name="av.blue">-0.4</property>
   <property name="av.brightness">0</property>
  </filter>
 </producer>
 <playlist id="playlist26">
  <blank length="00:01:56.833"/>
  <entry producer="producer193" in="00:00:00.000" out="00:00:42.167">
   <property name="kdenlive:id">79</property>
  </entry>
  <entry producer="producer193" in="00:00:42.200" out="00:00:55.767">
   <property name="kdenlive:id">79</property>
   <filter id="filter429" in="00:00:42.200" out="00:00:43.533">
    <property name="start">0</property>
    <property name="mlt_service">brightness</property>
    <property name="kdenlive_id">fade_from_black</property>
    <property name="end">1</property>
    <property name="alpha">-1</property>
    <property name="kdenlive:collapsed">0</property>
   </filter>
  </entry>
  <entry producer="producer193" in="00:00:55.800" out="00:01:04.800">
   <property name="kdenlive:id">79</property>
  </entry>
  <entry producer="producer194" in="00:01:04.833" out="00:01:17.900">
   <property name="kdenlive:id">79</property>
   <filter id="filter430">
    <property name="version">0.1</property>
    <property name="mlt_service">frei0r.hqdn3d</property>
    <property name="kdenlive_id">frei0r.hqdn3d</property>
    <property name="Spatial">00:01:04.833=0.01</property>
    <property name="Temporal">00:01:04.833=0.01</property>
    <property name="kdenlive:collapsed">0</property>
   </filter>
   <filter id="filter431">
    <property name="version">0.6</property>
    <property name="mlt_service">frei0r.select0r</property>
    <property name="kdenlive_id">frei0r.select0r</property>
    <property name="Color to select">0x224f2dff</property>
    <property name="Invert selection">1</property>
    <property name="Selection subspace">1</property>
    <property name="Subspace shape">0</property>
    <property name="Edge mode">0.9</property>
    <property name="Delta R / A / Hue">00:01:04.833=0.035</property>
    <property name="Delta G / B / Chroma">00:01:04.833=0.042</property>
    <property name="Delta B / I / I">00:01:04.833=0.264</property>
    <property name="Slope">00:01:04.833=0.136</property>
    <property name="Operation">0.5</property>
    <property name="kdenlive:collapsed">0</property>
    <property name="disable">1</property>
   </filter>
   <filter id="filter432">
    <property name="mlt_service">avfilter.despill</property>
    <property name="kdenlive_id">avfilter.despill</property>
    <property name="av.type">green</property>
    <property name="av.mix">0.06</property>
    <property name="av.expand">0.206</property>
    <property name="av.red">-0.2</property>
    <property name="av.green">-0.6</property>
    <property name="av.blue">-0.4</property>
    <property name="av.brightness">1.9</property>
    <property name="kdenlive:collapsed">0</property>
    <property name="disable">0</property>
   </filter>
   <filter id="filter433">
    <property name="mlt_service">avfilter.gblur</property>
    <property name="kdenlive_id">avfilter.gblur</property>
    <property name="av.sigma">5</property>
    <property name="av.steps">1</property>
    <property name="av.planes">7</property>
    <property name="av.sigmaV">-1</property>
    <property name="kdenlive:collapsed">0</property>
   </filter>
   <filter id="filter434">
    <property name="version">2.2</property>
    <property name="mlt_service">frei0r.cartoon</property>
    <property name="kdenlive_id">frei0r.cartoon</property>
    <property name="triplevel">00:01:04.833=0.998</property>
    <property name="diffspace">00:01:04.833=0.0078125</property>
    <property name="kdenlive:collapsed">0</property>
    <property name="disable">0</property>
   </filter>
   <filter id="filter435">
    <property name="mlt_service">avfilter.gblur</property>
    <property name="kdenlive_id">avfilter.gblur</property>
    <property name="av.sigma">20</property>
    <property name="av.steps">1</property>
    <property name="av.planes">7</property>
    <property name="av.sigmaV">-1</property>
    <property name="kdenlive:collapsed">0</property>
   </filter>
  </entry>
  <entry producer="producer193" in="00:01:17.933" out="00:01:26.233">
   <property name="kdenlive:id">79</property>
  </entry>
  <entry producer="producer195" in="00:01:26.267" out="00:02:00.667">
   <property name="kdenlive:id">79</property>
   <filter id="filter436" in="00:01:26.267" out="00:01:28.167">
    <property name="start">0</property>
    <property name="mlt_service">brightness</property>
    <property name="kdenlive_id">fade_from_black</property>
    <property name="end">1</property>
    <property name="alpha">-1</property>
    <property name="kdenlive:collapsed">0</property>
    <property name="disable">0</property>
   </filter>
   <filter id="filter437">
    <property name="version">0.1</property>
    <property name="mlt_service">frei0r.hqdn3d</property>
    <property name="kdenlive_id">frei0r.hqdn3d</property>
    <property name="Spatial">00:01:26.267=0.01</property>
    <property name="Temporal">00:01:26.267=0.01</property>
    <property name="kdenlive:collapsed">0</property>
   </filter>
   <filter id="filter438">
    <property name="version">0.6</property>
    <property name="mlt_service">frei0r.select0r</property>
    <property name="kdenlive_id">frei0r.select0r</property>
    <property name="Color to select">0x26542fff</property>
    <property name="Invert selection">1</property>
    <property name="Selection subspace">1</property>
    <property name="Subspace shape">0</property>
    <property name="Edge mode">0.9</property>
    <property name="Delta R / A / Hue">00:01:26.267=0.066</property>
    <property name="Delta G / B / Chroma">00:01:26.267=0.149</property>
    <property name="Delta B / I / I">00:01:26.267=0.146</property>
    <property name="Slope">00:01:26.267=0.091</property>
    <property name="Operation">0.5</property>
    <property name="kdenlive:collapsed">0</property>
    <property name="disable">1</property>
   </filter>
   <filter id="filter439">
    <property name="version">0.2</property>
    <property name="mlt_service">frei0r.sobel</property>
    <property name="kdenlive_id">frei0r.sobel</property>
    <property name="kdenlive:collapsed">0</property>
   </filter>
   <filter id="filter440" in="00:01:58.200" out="00:02:00.667">
    <property name="start">1</property>
    <property name="mlt_service">brightness</property>
    <property name="kdenlive_id">fade_to_black</property>
    <property name="end">0</property>
    <property name="alpha">-1</property>
    <property name="kdenlive:collapsed">0</property>
   </filter>
   <filter id="filter441">
    <property name="mode">alpha</property>
    <property name="alpha_operation">sub</property>
    <property name="invert">0</property>
    <property name="feather">115</property>
    <property name="feather_passes">2</property>
    <property name="mlt_service">rotoscoping</property>
    <property name="kdenlive_id">rotoscoping</property>
    <property name="spline">{
    "2588": [
        [
            [
                0.8421383647798742,
                -0.25746268656716426
            ],
            [
                0.839622641509434,
                -0.208955223880597
            ],
            [
                0.7863731656184486,
                -0.1
            ]
        ],
        [
            [
                0.60146750524109,
                0.055223880597014975
            ],
            [
                0.5482180293501048,
                0.16417910447761194
            ],
            [
                0.4857442348008386,
                0.20149253731343292
            ]
        ],
        [
            [
                0.3549266247379455,
                0.41417910447761197
            ],
            [
                0.29245283018867924,
                0.45149253731343286
            ],
            [
                0.2513626834381551,
                0.5641791044776119
            ]
        ],
        [
            [
                0.22872117400419287,
                1.0029850746268656
            ],
            [
                0.18763102725366876,
                1.1156716417910448
            ],
            [
                0.14570230607966458,
                1.1529850746268655
            ]
        ],
        [
            [
                0.019916142557651992,
                1.2649253731343284
            ],
            [
                -0.0220125786163522,
                1.3022388059701493
            ],
            [
                -0.08238993710691825,
                1.273134328358209
            ]
        ],
        [
            [
                -0.26352201257861635,
                1.185820895522388
            ],
            [
                -0.3238993710691824,
                1.1567164179104477
            ],
            [
                -0.33270440251572325,
                0.8335820895522388
            ]
        ],
        [
            [
                -0.35911949685534594,
                -0.13582089552238813
            ],
            [
                -0.3679245283018868,
                -0.45895522388059706
            ],
            [
                -0.09748427672955978,
                -0.45149253731343286
            ]
        ],
        [
            [
                0.7138364779874213,
                -0.4291044776119403
            ],
            [
                0.9842767295597484,
                -0.4216417910447761
            ],
            [
                0.9817610062893081,
                -0.373134328358209
            ]
        ]
    ],
    "2617": [
        [
            [
                0.9312985571587125,
                -0.21594234708808896
            ],
            [
                0.9287828338882722,
                -0.1674348844015218
            ],
            [
                0.8755333579972869,
                -0.058479660520924785
            ]
        ],
        [
            [
                0.5793912295999455,
                -0.01716858186941404
            ],
            [
                0.5272536687631028,
                0.08955223880597014
            ],
            [
                0.4663401421123912,
                0.1275040725575662
            ]
        ],
        [
            [
                0.3711185830522261,
                0.4163825588351838
            ],
            [
                0.3090393390060427,
                0.4567603160667252
            ],
            [
                0.2670345524529175,
                0.56622295860624
            ]
        ],
        [
            [
                0.21151760813392123,
                0.9359806706956338
            ],
            [
                0.16951282158079609,
                1.0454433132351486
            ],
            [
                0.12761996863434488,
                1.0859806706956339
            ]
        ],
        [
            [
                0.028847331218344742,
                1.2537214370624752
            ],
            [
                -0.013045521728106468,
                1.2942587945229604
            ],
            [
                -0.07263377921250688,
                1.2679952009862194
            ]
        ],
        [
            [
                -0.2513985516657081,
                1.189204420375996
            ],
            [
                -0.3109868091501085,
                1.1629408268392551
            ],
            [
                -0.3219977365911578,
                0.8523829965218157
            ]
        ],
        [
            [
                -0.35503051891430587,
                -0.07929049443050241
            ],
            [
                -0.36604144635535524,
                -0.38984832474794173
            ],
            [
                -0.10754531455817148,
                -0.39652621846519615
            ]
        ],
        [
            [
                0.6679430808333797,
                -0.41655989961695944
            ],
            [
                0.9264392126305634,
                -0.4232377933342139
            ],
            [
                0.9355985974286191,
                -0.3764859331660283
            ]
        ]
    ],
    "2656": [
        [
            [
                0.8735849056603774,
                -0.20024875621890548
            ],
            [
                0.871069182389937,
                -0.1517412935323383
            ],
            [
                0.8178197064989517,
                -0.04278606965174129
            ]
        ],
        [
            [
                0.4961348892723079,
                -0.17088011271078246
            ],
            [
                0.44549266247379454,
                -0.06716417910447761
            ],
            [
                0.38667742713493264,
                -0.028353806190287465
            ]
        ],
        [
            [
                0.2575654131339554,
                0.28385946374323084
            ],
            [
                0.1960167714884696,
                0.3283582089552239
            ],
            [
                0.1527819520973637,
                0.43348522872363837
            ]
        ],
        [
            [
                0.1883817781704525,
                0.8458712998915635
            ],
            [
                0.14514695877934664,
                0.9509983196599782
            ],
            [
                0.10330234241477702,
                0.9958712998915638
            ]
        ],
        [
            [
                0.04085824010686258,
                1.2386540747589487
            ],
            [
                -0.0009863762577070334,
                1.283527054990534
            ],
            [
                -0.0595134289407123,
                1.2610839607273368
            ]
        ],
        [
            [
                -0.23509458698972807,
                1.1937546779377448
            ],
            [
                -0.2936216396727333,
                1.1713115836745476
            ],
            [
                -0.30759911689950087,
                0.8776669748602122
            ]
        ],
        [
            [
                -0.34953154857980373,
                -0.0032668515827940538
            ],
            [
                -0.36350902580657135,
                -0.2969114603971294
            ],
            [
                -0.12107567577595964,
                -0.3226059965658434
            ]
        ],
        [
            [
                0.6062243743158754,
                -0.3996896050719852
            ],
            [
                0.8486577243464869,
                -0.4253841412406992
            ],
            [
                0.8735181165470027,
                -0.3809932637696474
            ]
        ]
    ],
    "2739": [
        [
            [
                0.7507584165741769,
                -0.166849575651156
            ],
            [
                0.7482426933037366,
                -0.11834211296458882
            ],
            [
                0.6949932174127512,
                -0.009386889083991816
            ]
        ],
        [
            [
                0.7025961175735762,
                0.01835072425483187
            ],
            [
                0.6551362683438154,
                0.11567164179104478
            ],
            [
                0.6007866273352999,
                0.1563091621538327
            ]
        ],
        [
            [
                0.4304403752558705,
                0.29747721569145424
            ],
            [
                0.370020964360587,
                0.3507462686567164
            ],
            [
                0.3241683827758298,
                0.44664619380971216
            ]
        ],
        [
            [
                0.1391439861969165,
                0.6541000748470037
            ],
            [
                0.09329140461215933,
                0.75
            ],
            [
                0.05154944558851722,
                0.8041000748470041
            ]
        ],
        [
            [
                0.06641991799781079,
                1.2065876370360586
            ],
            [
                0.024677958974168687,
                1.2606877118830626
            ],
            [
                -0.03159063220843151,
                1.246375423766125
            ]
        ],
        [
            [
                -0.2003964057562321,
                1.2034385594153127
            ],
            [
                -0.25666499693883227,
                1.1891262712983754
            ],
            [
                -0.2769559006326413,
                0.931476467221415
            ]
        ],
        [
            [
                -0.3378286117140684,
                0.158527054990534
            ],
            [
                -0.3581195154078774,
                -0.09912274908642627
            ],
            [
                -0.14987105990612418,
                -0.16528860124157974
            ]
        ],
        [
            [
                0.47487430659913543,
                -0.36378615770704004
            ],
            [
                0.6831227621008885,
                -0.4299520098621935
            ],
            [
                0.7413981187733066,
                -0.3905857878747854
            ]
        ]
    ],
    "2792": [
        [
            [
                0.6723270440251572,
                -0.1455223880597015
            ],
            [
                0.6698113207547169,
                -0.09701492537313433
            ],
            [
                0.6165618448637317,
                0.011940298507462662
            ]
        ],
        [
            [
                0.7299141017791878,
                0.3060163782855632
            ],
            [
                0.6844863731656184,
                0.3992537313432836
            ],
            [
                0.6329882562475649,
                0.4410579844142123
            ]
        ],
        [
            [
                0.41923711990501117,
                0.48963809272222963
            ],
            [
                0.35953878406708595,
                0.5485074626865672
            ],
            [
                0.3120146193948165,
                0.6385153876634527
            ]
        ],
        [
            [
                0.2645485222334876,
                0.8007060310163442
            ],
            [
                0.2170243575612181,
                0.8907139559932297
            ],
            [
                0.17534795081551763,
                0.9507060310163444
            ]
        ],
        [
            [
                0.08274243520528374,
                1.1861114780081892
            ],
            [
                0.0410660284595833,
                1.2461035530313036
            ],
            [
                -0.01376041260830041,
                1.2369832254655924
            ]
        ],
        [
            [
                -0.17823973581195152,
                1.2096222427684586
            ],
            [
                -0.23306617687983522,
                1.2005019152027474
            ],
            [
                -0.25738854566705627,
                0.9658367454761589
            ]
        ],
        [
            [
                -0.3303556520287193,
                0.26184123629639405
            ],
            [
                -0.3546780208159403,
                0.02717606656980583
            ],
            [
                -0.1682584738687594,
                -0.06483291507066445
            ]
        ],
        [
            [
                0.39100016697278345,
                -0.340859859992075
            ],
            [
                0.5774197139199643,
                -0.43286884163254524
            ],
            [
                0.6570323370623922,
                -0.39671113459252416
            ]
        ]
    ],
    "2879": [
        [
            [
                0.7590136573650038,
                -0.2346399072598174
            ],
            [
                0.7564979340945635,
                -0.18613244457325026
            ],
            [
                0.7032484582035782,
                -0.07717722069265326
            ]
        ],
        [
            [
                0.7768928220255654,
                0.07018227446836621
            ],
            [
                0.7348008385744235,
                0.15671641791044777
            ],
            [
                0.6879835253520343,
                0.20043587372870184
            ]
        ],
        [
            [
                0.5186823992133728,
                0.28641526878879936
            ],
            [
                0.460167714884696,
                0.3544776119402985
            ],
            [
                0.4098996308046233,
                0.43481376304319125
            ]
        ],
        [
            [
                0.2798278325077457,
                0.7144399683000924
            ],
            [
                0.22955974842767293,
                0.7947761194029851
            ],
            [
                0.1879909463646314,
                0.8644399683000926
            ]
        ],
        [
            [
                0.10953600118736201,
                1.1524996697926297
            ],
            [
                0.0679671991243205,
                1.2221635186897373
            ],
            [
                0.015508061074933677,
                1.2215658433496235
            ]
        ],
        [
            [
                -0.14186935307322682,
                1.2197728173292828
            ],
            [
                -0.19432849112261366,
                1.219175141989169
            ],
            [
                -0.22526854789336,
                1.0222394663848897
            ]
        ],
        [
            [
                -0.3180887182055992,
                0.4314324395720512
            ],
            [
                -0.34902877497634555,
                0.23449676396777178
            ],
            [
                -0.19844158735459452,
                0.10006604147404564
            ]
        ],
        [
            [
                0.25331997551065843,
                -0.3032261260071325
            ],
            [
                0.4039071631324094,
                -0.43765684850085856
            ],
            [
                0.518545110480325,
                -0.40676594901598206
            ]
        ]
    ],
    "2897": [
        [
            [
                0.7457023060796646,
                -0.23507462686567163
            ],
            [
                0.7431865828092243,
                -0.1865671641791045
            ],
            [
                0.689937106918239,
                -0.07761194029850747
            ]
        ],
        [
            [
                0.7741062317953286,
                0.19843481706511693
            ],
            [
                0.7327044025157233,
                0.2835820895522388
            ],
            [
                0.6868555314372646,
                0.32769779421476697
            ]
        ],
        [
            [
                0.593714402330198,
                0.39724607053229427
            ],
            [
                0.5354446114172279,
                0.4672104081363096
            ],
            [
                0.48460881987347176,
                0.5455455025756176
            ]
        ],
        [
            [
                0.33210144524220325,
                0.7805507858935412
            ],
            [
                0.28126565369844714,
                0.858885880332849
            ],
            [
                0.23971911467319715,
                0.9305507858935412
            ]
        ],
        [
            [
                0.11507949759744716,
                1.1455455025756174
            ],
            [
                0.07353295857219716,
                1.2172104081363095
            ],
            [
                0.021563607354223475,
                1.2183760401532162
            ]
        ],
        [
            [
                -0.13434444629969758,
                1.221872936203936
            ],
            [
                -0.18631379751767127,
                1.2230385682208427
            ],
            [
                -0.2186230311125953,
                1.033908994848765
            ]
        ],
        [
            [
                -0.31555073189736743,
                0.466520274732532
            ],
            [
                -0.3478599654922914,
                0.27739070136045435
            ],
            [
                -0.20468636945511212,
                0.13418306696605464
            ]
        ],
        [
            [
                0.22483441865642567,
                -0.29543983621714437
            ],
            [
                0.36800801469360495,
                -0.4386474706115441
            ],
            [
                0.4898925808426559,
                -0.4088462554484216
            ]
        ]
    ],
    "2948": [
        [
            [
                0.6576519916142557,
                -0.12686567164179102
            ],
            [
                0.6551362683438154,
                -0.07835820895522388
            ],
            [
                0.6018867924528302,
                0.03059701492537304
            ]
        ],
        [
            [
                0.7955179077160286,
                0.20521269175223852
            ],
            [
                0.749475890985325,
                0.29850746268656714
            ],
            [
                0.7008612054453673,
                0.3963738318573155
            ]
        ],
        [
            [
                0.589022467115638,
                0.29031831990490026
            ],
            [
                0.5314465408805031,
                0.3656716417910448
            ],
            [
                0.4790022448563107,
                0.43833707568352936
            ]
        ],
        [
            [
                0.29667909686276694,
                0.6698718795403514
            ],
            [
                0.24423480083857443,
                0.7425373134328358
            ],
            [
                0.20275134042040036,
                0.8198718795403516
            ]
        ],
        [
            [
                0.13078607075935508,
                1.1258420287940825
            ],
            [
                0.08930261034118105,
                1.2031765949015982
            ],
            [
                0.038720988478877935,
                1.209338264430062
            ]
        ],
        [
            [
                -0.11302387710803138,
                1.2278232730154537
            ],
            [
                -0.1636054989703345,
                1.2339849425439176
            ],
            [
                -0.19979406690042856,
                1.066972658829745
            ]
        ],
        [
            [
                -0.30835977069071074,
                0.5659358076872275
            ],
            [
                -0.3445483386208048,
                0.398923523973055
            ],
            [
                -0.22237991873991206,
                0.23084797252674674
            ]
        ],
        [
            [
                0.14412534090276619,
                -0.27337868181217806
            ],
            [
                0.26629376078365896,
                -0.4414542332584864
            ],
            [
                0.40871041353592685,
                -0.4147404570070004
            ]
        ]
    ],
    "3018": [
        [
            [
                0.7876310272536687,
                -0.17537313432835816
            ],
            [
                0.7851153039832285,
                -0.12686567164179105
            ],
            [
                0.7318658280922431,
                -0.017910447761194024
            ]
        ],
        [
            [
                0.889937106918239,
                0.208955223880597
            ],
            [
                0.8375262054507338,
                0.31343283582089554
            ],
            [
                0.7851153039832285,
                0.4850746268656716
            ]
        ],
        [
            [
                0.6478154394167085,
                0.35116453132567255
            ],
            [
                0.591191876464877,
                0.4339144983049355
            ],
            [
                0.5365398291930267,
                0.49879804517236825
            ]
        ],
        [
            [
                0.372583687377476,
                0.6934486857746665
            ],
            [
                0.31793164010562575,
                0.7583322326420991
            ],
            [
                0.276534758167752,
                0.8434486857746666
            ]
        ],
        [
            [
                0.1523441123541307,
                1.098798045172368
            ],
            [
                0.11094723041625695,
                1.1839144983049354
            ],
            [
                0.06227033512056054,
                1.1969334742218112
            ]
        ],
        [
            [
                -0.08376035076652875,
                1.2359904019724388
            ],
            [
                -0.13243724606222518,
                1.2490093778893143
            ],
            [
                -0.1739503905307879,
                1.1123541584114824
            ]
        ],
        [
            [
                -0.29848982393647616,
                0.7023884999779861
            ],
            [
                -0.34000296840503885,
                0.565733280500154
            ],
            [
                -0.2466651824641472,
                0.36352529388455945
            ]
        ],
        [
            [
                0.033348175358527674,
                -0.2430986659622243
            ],
            [
                0.1266859612994193,
                -0.44530665257781893
            ],
            [
                0.2972839093894361,
                -0.42283053757759875
            ]
        ]
    ],
    "3076": [
        [
            [
                0.831267329410969,
                -0.1875902744342802
            ],
            [
                0.8287516061405288,
                -0.13908281174771303
            ],
            [
                0.7755021302495435,
                -0.030127587867116026
            ]
        ],
        [
            [
                0.8882464326773517,
                0.05967741935483888
            ],
            [
                0.8417190775681341,
                0.15298507462686567
            ],
            [
                0.7954858997768309,
                0.2967019740009631
            ]
        ],
        [
            [
                0.5851845667674689,
                0.2805243693039228
            ],
            [
                0.5293501048218029,
                0.3694029850746269
            ],
            [
                0.4728687779447506,
                0.4278386826927308
            ]
        ],
        [
            [
                0.3510305931244318,
                0.5870866904415974
            ],
            [
                0.2945492662473795,
                0.6455223880597015
            ],
            [
                0.2532241207646117,
                0.7370866904415975
            ]
        ],
        [
            [
                0.1702064896755162,
                1.076390173028662
            ],
            [
                0.12888134419274844,
                1.1679544754105577
            ],
            [
                0.08178265090938326,
                1.186655219477832
            ]
        ],
        [
            [
                -0.059513428940712286,
                1.242757451679655
            ],
            [
                -0.10661212222407747,
                1.2614581957469289
            ],
            [
                -0.1525370586816571,
                1.149955972350636
            ]
        ],
        [
            [
                -0.29031186805439607,
                0.8154493021617575
            ],
            [
                -0.33623680451197563,
                0.7039470787654647
            ],
            [
                -0.2667872581213706,
                0.4734579315810329
            ]
        ],
        [
            [
                -0.058438618949555675,
                -0.2180095099722626
            ],
            [
                0.011010927441049315,
                -0.44849865715669446
            ],
            [
                0.20495909166805806,
                -0.42953374719323734
            ]
        ]
    ],
    "3141": [
        [
            [
                0.8801700818286332,
                -0.201281896966779
            ],
            [
                0.877654358558193,
                -0.15277443428021184
            ],
            [
                0.8244048826672077,
                -0.043819210399614825
            ]
        ],
        [
            [
                0.9445458848988976,
                0.3147327876745308
            ],
            [
                0.9046121593291404,
                0.3955223880597015
            ],
            [
                0.8653022925542705,
                0.5079441502166588
            ]
        ],
        [
            [
                0.7121828290136857,
                0.4005217276449611
            ],
            [
                0.6572327044025157,
                0.49626865671641796
            ],
            [
                0.5987013227954954,
                0.5474783163826884
            ]
        ],
        [
            [
                0.41373505748192674,
                0.6049068815215956
            ],
            [
                0.3552036758749065,
                0.6561165411878659
            ],
            [
                0.31395892469527464,
                0.7549068815215956
            ]
        ],
        [
            [
                0.19022467115637925,
                1.0512779025227843
            ],
            [
                0.14897991997674748,
                1.1500682428565139
            ],
            [
                0.10364990136237423,
                1.1751364857130278
            ]
        ],
        [
            [
                -0.03234015448074556,
                1.2503412142825694
            ],
            [
                -0.07767017309511882,
                1.2754094571390833
            ],
            [
                -0.12853935919556223,
                1.1920959362479637
            ]
        ],
        [
            [
                -0.28114691749689247,
                0.9421553735746047
            ],
            [
                -0.3320161035973358,
                0.8588418526834852
            ],
            [
                -0.2893378601510176,
                0.5966583014132876
            ]
        ],
        [
            [
                -0.16130312981206288,
                -0.18989235239730554
            ],
            [
                -0.11862488636574463,
                -0.4520759036675033
            ],
            [
                0.10149162353203088,
                -0.43704596486593583
            ]
        ]
    ],
    "3227": [
        [
            [
                0.8232704402515724,
                -0.1417910447761194
            ],
            [
                0.820754716981132,
                -0.09328358208955224
            ],
            [
                0.7675052410901467,
                0.015671641791044785
            ]
        ],
        [
            [
                0.963075674579022,
                0.22308618199325955
            ],
            [
                0.9318658280922432,
                0.2873134328358209
            ],
            [
                0.9017160343545004,
                0.3583293211362543
            ]
        ],
        [
            [
                0.8228511530398323,
                0.45895522388059706
            ],
            [
                0.7452830188679245,
                0.40671641791044777
            ],
            [
                0.6840392571566389,
                0.448365473517369
            ]
        ],
        [
            [
                0.4425075601565834,
                0.5429996037511557
            ],
            [
                0.3812637984452979,
                0.5846486593580769
            ],
            [
                0.3401254151128921,
                0.6929996037511558
            ]
        ],
        [
            [
                0.21671026511567504,
                1.0180524369303923
            ],
            [
                0.17557188178326932,
                1.126403381323471
            ],
            [
                0.13258195580786997,
                1.1598963148857482
            ]
        ],
        [
            [
                0.003612177881671948,
                1.2603751155725795
            ],
            [
                -0.03937774809372739,
                1.2938680491348566
            ],
            [
                -0.09678855679857516,
                1.2478503500198126
            ]
        ],
        [
            [
                -0.2690209829131185,
                1.1097972526746795
            ],
            [
                -0.32643179161796626,
                1.0637795535596353
            ],
            [
                -0.3191740412979351,
                0.759661867652886
            ]
        ],
        [
            [
                -0.29740079033784167,
                -0.15269119006736237
            ],
            [
                -0.2901430400178105,
                -0.4568088759741118
            ],
            [
                -0.035403795847943474,
                -0.4469852067098138
            ]
        ]
    ],
    "3266": [
        [
            [
                0.9742138364779874,
                -0.22761194029850748
            ],
            [
                0.9716981132075471,
                -0.1791044776119403
            ],
            [
                0.9184486373165618,
                -0.07014925373134329
            ]
        ],
        [
            [
                0.8920335429769392,
                0.23059701492537316
            ],
            [
                0.8647798742138364,
                0.2873134328358209
            ],
            [
                0.8387840670859538,
                0.3395522388059702
            ]
        ],
        [
            [
                0.758700209643606,
                0.25671641791044775
            ],
            [
                0.7054507337526206,
                0.3656716417910448
            ],
            [
                0.6429769392033543,
                0.4029850746268657
            ]
        ],
        [
            [
                0.4555555555555556,
                0.5149253731343284
            ],
            [
                0.39308176100628933,
                0.5522388059701493
            ],
            [
                0.3519916142557652,
                0.6649253731343284
            ]
        ],
        [
            [
                0.22872117400419287,
                1.0029850746268656
            ],
            [
                0.18763102725366876,
                1.1156716417910448
            ],
            [
                0.14570230607966458,
                1.1529850746268655
            ]
        ],
        [
            [
                0.019916142557651992,
                1.2649253731343284
            ],
            [
                -0.0220125786163522,
                1.3022388059701493
            ],
            [
                -0.08238993710691825,
                1.273134328358209
            ]
        ],
        [
            [
                -0.26352201257861635,
                1.185820895522388
            ],
            [
                -0.3238993710691824,
                1.1567164179104477
            ],
            [
                -0.33270440251572325,
                0.8335820895522388
            ]
        ],
        [
            [
                -0.35911949685534594,
                -0.13582089552238813
            ],
            [
                -0.3679245283018868,
                -0.45895522388059706
            ],
            [
                -0.09748427672955978,
                -0.45149253731343286
            ]
        ],
        [
            [
                0.7138364779874213,
                -0.4291044776119403
            ],
            [
                0.9842767295597484,
                -0.4216417910447761
            ],
            [
                0.9817610062893081,
                -0.373134328358209
            ]
        ]
    ],
    "3326": [
        [
            [
                0.8756813417190776,
                -0.23880597014925375
            ],
            [
                0.8731656184486373,
                -0.19029850746268656
            ],
            [
                0.819916142557652,
                -0.0813432835820896
            ]
        ],
        [
            [
                0.7851153039832285,
                -0.004477611940298568
            ],
            [
                0.7578616352201257,
                0.05223880597014925
            ],
            [
                0.7318658280922431,
                0.10447761194029846
            ]
        ],
        [
            [
                0.6853249475890986,
                0.07014925373134326
            ],
            [
                0.6320754716981133,
                0.1791044776119403
            ],
            [
                0.569601677148847,
                0.21641791044776124
            ]
        ],
        [
            [
                0.4178197064989518,
                0.3507462686567163
            ],
            [
                0.3553459119496855,
                0.3880597014925373
            ],
            [
                0.3142557651991614,
                0.5007462686567161
            ]
        ],
        [
            [
                0.22872117400419287,
                1.0029850746268656
            ],
            [
                0.18763102725366876,
                1.1156716417910448
            ],
            [
                0.14570230607966458,
                1.1529850746268655
            ]
        ],
        [
            [
                0.019916142557651992,
                1.2649253731343284
            ],
            [
                -0.0220125786163522,
                1.3022388059701493
            ],
            [
                -0.08238993710691825,
                1.273134328358209
            ]
        ],
        [
            [
                -0.26352201257861635,
                1.185820895522388
            ],
            [
                -0.3238993710691824,
                1.1567164179104477
            ],
            [
                -0.33270440251572325,
                0.8335820895522388
            ]
        ],
        [
            [
                -0.35911949685534594,
                -0.13582089552238813
            ],
            [
                -0.3679245283018868,
                -0.45895522388059706
            ],
            [
                -0.09748427672955978,
                -0.45149253731343286
            ]
        ],
        [
            [
                0.7138364779874213,
                -0.4291044776119403
            ],
            [
                0.9842767295597484,
                -0.4216417910447761
            ],
            [
                0.9817610062893081,
                -0.373134328358209
            ]
        ]
    ],
    "3409": [
        [
            [
                0.8651991614255766,
                -0.3992537313432835
            ],
            [
                0.8626834381551363,
                -0.3507462686567164
            ],
            [
                0.809433962264151,
                -0.24179104477611946
            ]
        ],
        [
            [
                0.7243186582809223,
                -0.27686567164179116
            ],
            [
                0.6970649895178197,
                -0.22014925373134328
            ],
            [
                0.6710691823899371,
                -0.1679104477611941
            ]
        ],
        [
            [
                0.47148846960167723,
                -0.29925373134328354
            ],
            [
                0.41823899371069184,
                -0.19029850746268656
            ],
            [
                0.3557651991614256,
                -0.15298507462686564
            ]
        ],
        [
            [
                -0.01614255765199162,
                -0.22761194029850762
            ],
            [
                -0.07861635220125787,
                -0.19029850746268656
            ],
            [
                -0.11970649895178202,
                -0.07761194029850788
            ]
        ],
        [
            [
                -0.07735849056603775,
                0.794029850746269
            ],
            [
                -0.11844863731656184,
                0.9067164179104478
            ],
            [
                -0.160377358490566,
                0.9440298507462686
            ]
        ],
        [
            [
                0.019916142557651992,
                1.2649253731343284
            ],
            [
                -0.0220125786163522,
                1.3022388059701493
            ],
            [
                -0.08238993710691825,
                1.273134328358209
            ]
        ],
        [
            [
                -0.26352201257861635,
                1.185820895522388
            ],
            [
                -0.3238993710691824,
                1.1567164179104477
            ],
            [
                -0.33270440251572325,
                0.8335820895522388
            ]
        ],
        [
            [
                -0.35911949685534594,
                -0.13582089552238813
            ],
            [
                -0.3679245283018868,
                -0.45895522388059706
            ],
            [
                -0.09748427672955978,
                -0.45149253731343286
            ]
        ],
        [
            [
                0.7138364779874213,
                -0.4291044776119403
            ],
            [
                0.9842767295597484,
                -0.4216417910447761
            ],
            [
                0.9817610062893081,
                -0.373134328358209
            ]
        ]
    ]
}
</property>
    <property name="kdenlive:collapsed">0</property>
   </filter>
  </entry>
  <blank length="00:01:53.700"/>
  <entry producer="producer196" in="00:01:47.967" out="00:01:57.767">
   <property name="kdenlive:id">73</property>
   <filter id="filter442">
    <property name="rotate_center">1</property>
    <property name="mlt_service">qtblend</property>
    <property name="kdenlive_id">qtblend</property>
    <property name="rect">00:01:47.967=-998 -949 3840 2160 1.000000;00:01:57.767=-1281 -946 3840 2160 1.000000</property>
    <property name="rotation">00:01:47.967=0;00:01:57.767=0</property>
    <property name="compositing">0</property>
    <property name="distort">0</property>
    <property name="kdenlive:collapsed">0</property>
   </filter>
  </entry>
 </playlist>
 <playlist id="playlist27"/>
 <tractor id="tractor13" in="00:00:00.000" out="00:06:01.033">
  <property name="kdenlive:trackheight">69</property>
  <property name="kdenlive:timeline_active">1</property>
  <property name="kdenlive:collapsed">28</property>
  <property name="kdenlive:track_name">chris-handheld</property>
  <property name="kdenlive:thumbs_format"/>
  <property name="kdenlive:audio_rec"/>
  <track hide="audio" producer="playlist26"/>
  <track producer="playlist27"/>
 </tractor>
 <producer id="producer197" in="00:00:00.000" out="00:03:53.467">
  <property name="length">7005</property>
  <property name="eof">pause</property>
  <property name="resource">/home/ryankelln/.cache/kdenlive/proxy/e4a6fa5f8146f0aeb0d5df779ec987df.mkv</property>
  <property name="audio_index">1</property>
  <property name="video_index">0</property>
  <property name="mute_on_pause">0</property>
  <property name="mlt_service">avformat-novalidate</property>
  <property name="seekable">1</property>
  <property name="aspect_ratio">1</property>
  <property name="kdenlive:clipname">2021-02-06_Chris_piano+4k_suzy_P1180151-take1_beginning_to_F.MP4</property>
  <property name="kdenlive:folderid">103</property>
  <property name="kdenlive:id">72</property>
  <property name="kdenlive:file_size">2799439497</property>
  <property name="kdenlive:file_hash">e4a6fa5f8146f0aeb0d5df779ec987df</property>
  <property name="kdenlive:audio_max">1</property>
  <property name="kdenlive:proxy">/home/ryankelln/.cache/kdenlive/proxy/e4a6fa5f8146f0aeb0d5df779ec987df.mkv</property>
  <property name="kdenlive:originalurl">content/musicians/2021-02-06_Chris_piano+4k_suzy_P1180151-take1_beginning_to_F.MP4</property>
  <property name="kdenlive:original.mlt_type">producer</property>
  <property name="kdenlive:original.in">00:00:00.000</property>
  <property name="kdenlive:original.out">00:03:53.467</property>
  <property name="kdenlive:original.length">7005</property>
  <property name="kdenlive:original.eof">pause</property>
  <property name="kdenlive:original.resource">content/musicians/2021-02-06_Chris_piano+4k_suzy_P1180151-take1_beginning_to_F.MP4</property>
  <property name="kdenlive:original.meta.media.nb_streams">2</property>
  <property name="kdenlive:original.meta.media.0.stream.type">video</property>
  <property name="kdenlive:original.meta.media.0.stream.frame_rate">29.97</property>
  <property name="kdenlive:original.meta.media.0.stream.sample_aspect_ratio">1</property>
  <property name="kdenlive:original.meta.media.0.codec.width">3840</property>
  <property name="kdenlive:original.meta.media.0.codec.height">2160</property>
  <property name="kdenlive:original.meta.media.0.codec.rotate">0</property>
  <property name="kdenlive:original.meta.media.0.codec.frame_rate">29.97</property>
  <property name="kdenlive:original.meta.media.0.codec.pix_fmt">yuvj420p</property>
  <property name="kdenlive:original.meta.media.0.codec.sample_aspect_ratio">1</property>
  <property name="kdenlive:original.meta.media.0.codec.colorspace">709</property>
  <property name="kdenlive:original.meta.media.0.codec.color_trc">1</property>
  <property name="kdenlive:original.meta.media.0.codec.name">h264</property>
  <property name="kdenlive:original.meta.media.0.codec.long_name">H.264 / AVC / MPEG-4 AVC / MPEG-4 part 10</property>
  <property name="kdenlive:original.meta.media.0.codec.bit_rate">95792075</property>
  <property name="kdenlive:original.meta.attr.0.stream.creation_time.markup">2021-06-02T14:28:00.000000Z</property>
  <property name="kdenlive:original.meta.attr.0.stream.handler_name.markup">VideoHandler</property>
  <property name="kdenlive:original.meta.media.1.stream.type">audio</property>
  <property name="kdenlive:original.meta.media.1.codec.sample_fmt">fltp</property>
  <property name="kdenlive:original.meta.media.1.codec.sample_rate">48000</property>
  <property name="kdenlive:original.meta.media.1.codec.channels">2</property>
  <property name="kdenlive:original.meta.media.1.codec.name">aac</property>
  <property name="kdenlive:original.meta.media.1.codec.long_name">AAC (Advanced Audio Coding)</property>
  <property name="kdenlive:original.meta.media.1.codec.bit_rate">125374</property>
  <property name="kdenlive:original.meta.attr.1.stream.creation_time.markup">2021-06-02T14:28:00.000000Z</property>
  <property name="kdenlive:original.meta.attr.1.stream.handler_name.markup">SoundHandler</property>
  <property name="kdenlive:original.meta.attr.major_brand.markup">isom</property>
  <property name="kdenlive:original.meta.attr.minor_version.markup">512</property>
  <property name="kdenlive:original.meta.attr.compatible_brands.markup">isomiso2avc1mp41</property>
  <property name="kdenlive:original.meta.attr.creation_time.markup">2021-06-02T14:28:00.000000Z</property>
  <property name="kdenlive:original.meta.attr.encoder.markup">Lavf58.45.100</property>
  <property name="kdenlive:original.seekable">1</property>
  <property name="kdenlive:original.width">3840</property>
  <property name="kdenlive:original.height">2160</property>
  <property name="kdenlive:original.meta.media.sample_aspect_num">1</property>
  <property name="kdenlive:original.meta.media.sample_aspect_den">1</property>
  <property name="kdenlive:original.aspect_ratio">1</property>
  <property name="kdenlive:original.audio_index">1</property>
  <property name="kdenlive:original.video_index">0</property>
  <property name="kdenlive:original.mute_on_pause">0</property>
  <property name="kdenlive:original.mlt_service">avformat-novalidate</property>
  <property name="kdenlive:original.kdenlive:folderid">103</property>
  <property name="kdenlive:original.meta.media.frame_rate_num">30000</property>
  <property name="kdenlive:original.meta.media.frame_rate_den">1001</property>
  <property name="kdenlive:original.meta.media.colorspace">709</property>
  <property name="kdenlive:original.meta.media.color_trc">1</property>
  <property name="kdenlive:original.meta.media.width">3840</property>
  <property name="kdenlive:original.meta.media.height">2160</property>
  <property name="kdenlive:original.meta.media.color_range">full</property>
  <property name="kdenlive:original.kdenlive:id">106</property>
  <property name="kdenlive:original.kdenlive:file_size">2799439497</property>
  <property name="kdenlive:original.kdenlive:file_hash">e4a6fa5f8146f0aeb0d5df779ec987df</property>
  <property name="kdenlive:original.kdenlive:audio_max">1</property>
  <property name="kdenlive:original.meta.media.top_field_first">0</property>
  <property name="kdenlive:original.meta.media.progressive">1</property>
  <property name="kdenlive:original.backup">1</property>
  <property name="global_feed">1</property>
  <property name="kdenlive:activeeffect">1</property>
  <property name="xml">was here</property>
  <property name="meta.media.nb_streams">2</property>
  <property name="meta.media.0.stream.type">video</property>
  <property name="meta.media.0.stream.frame_rate">29.97</property>
  <property name="meta.media.0.stream.sample_aspect_ratio">1</property>
  <property name="meta.media.0.codec.width">960</property>
  <property name="meta.media.0.codec.height">540</property>
  <property name="meta.media.0.codec.rotate">0</property>
  <property name="meta.media.0.codec.frame_rate">1000</property>
  <property name="meta.media.0.codec.pix_fmt">yuvj420p</property>
  <property name="meta.media.0.codec.sample_aspect_ratio">1</property>
  <property name="meta.media.0.codec.colorspace">601</property>
  <property name="meta.media.0.codec.name">mjpeg</property>
  <property name="meta.media.0.codec.long_name">MJPEG (Motion JPEG)</property>
  <property name="meta.media.0.codec.bit_rate">0</property>
  <property name="meta.attr.0.stream.HANDLER_NAME.markup">VideoHandler</property>
  <property name="meta.attr.0.stream.ENCODER.markup">Lavc58.91.100 mjpeg</property>
  <property name="meta.attr.0.stream.DURATION.markup">00:03:53.566000000</property>
  <property name="meta.media.1.stream.type">audio</property>
  <property name="meta.media.1.codec.sample_fmt">s16</property>
  <property name="meta.media.1.codec.sample_rate">48000</property>
  <property name="meta.media.1.codec.channels">2</property>
  <property name="meta.media.1.codec.name">pcm_s16le</property>
  <property name="meta.media.1.codec.long_name">PCM signed 16-bit little-endian</property>
  <property name="meta.media.1.codec.bit_rate">1536000</property>
  <property name="meta.attr.1.stream.HANDLER_NAME.markup">SoundHandler</property>
  <property name="meta.attr.1.stream.ENCODER.markup">Lavc58.91.100 pcm_s16le</property>
  <property name="meta.attr.1.stream.DURATION.markup">00:03:53.514000000</property>
  <property name="meta.attr.COMPATIBLE_BRANDS.markup">isomiso2avc1mp41</property>
  <property name="meta.attr.MAJOR_BRAND.markup">isom</property>
  <property name="meta.attr.MINOR_VERSION.markup">512</property>
  <property name="meta.attr.ENCODER.markup">Lavf58.45.100</property>
  <property name="meta.media.sample_aspect_num">1</property>
  <property name="meta.media.sample_aspect_den">1</property>
  <property name="meta.media.frame_rate_num">30000</property>
  <property name="meta.media.frame_rate_den">1001</property>
  <property name="meta.media.colorspace">601</property>
  <property name="meta.media.color_trc">2</property>
  <property name="meta.media.width">960</property>
  <property name="meta.media.height">540</property>
  <property name="meta.media.color_range">full</property>
  <property name="meta.media.top_field_first">0</property>
  <property name="meta.media.progressive">1</property>
  <property name="set.test_audio">1</property>
  <property name="set.test_image">0</property>
  <filter id="filter329">
   <property name="version">0.1</property>
   <property name="mlt_service">frei0r.hqdn3d</property>
   <property name="kdenlive_id">frei0r.hqdn3d</property>
   <property name="Spatial">00:00:00.000=0.01</property>
   <property name="Temporal">00:00:00.000=0.01</property>
  </filter>
  <filter id="filter332">
   <property name="version">0.6</property>
   <property name="mlt_service">frei0r.select0r</property>
   <property name="kdenlive_id">frei0r.select0r</property>
   <property name="Color to select">0x739c69ff</property>
   <property name="Invert selection">1</property>
   <property name="Selection subspace">1</property>
   <property name="Subspace shape">0</property>
   <property name="Edge mode">0.9</property>
   <property name="Delta R / A / Hue">00:00:00.000=0.065</property>
   <property name="Delta G / B / Chroma">00:00:00.000=0.09</property>
   <property name="Delta B / I / I">00:00:00.000=0.24</property>
   <property name="Slope">00:00:00.000=0.075</property>
   <property name="Operation">0.5</property>
  </filter>
  <filter id="filter351">
   <property name="mode">alpha</property>
   <property name="alpha_operation">add</property>
   <property name="invert">0</property>
   <property name="feather">5</property>
   <property name="feather_passes">1</property>
   <property name="mlt_service">rotoscoping</property>
   <property name="kdenlive_id">rotoscoping</property>
   <property name="spline">{
    "0000": [
        [
            [
                -0.069811320754717,
                0.37462686567164183
            ],
            [
                -0.06184486373165619,
                0.17164179104477612
            ],
            [
                -0.005660377358490565,
                0.17537313432835822
            ]
        ],
        [
            [
                0.1628930817610063,
                0.18656716417910446
            ],
            [
                0.21907756813417192,
                0.19029850746268656
            ],
            [
                0.21907756813417192,
                0.19776119402985076
            ]
        ],
        [
            [
                0.21907756813417192,
                0.22014925373134328
            ],
            [
                0.21907756813417192,
                0.22761194029850748
            ],
            [
                0.22746331236897274,
                0.22537313432835823
            ]
        ],
        [
            [
                0.2526205450733753,
                0.21865671641791046
            ],
            [
                0.2610062893081761,
                0.2164179104477612
            ],
            [
                0.27693920335429767,
                0.2485074626865672
            ]
        ],
        [
            [
                0.32473794549266244,
                0.3447761194029851
            ],
            [
                0.34067085953878407,
                0.3768656716417911
            ],
            [
                0.35576519916142557,
                0.37835820895522393
            ]
        ],
        [
            [
                0.40104821802935015,
                0.38283582089552237
            ],
            [
                0.41614255765199165,
                0.3843283582089552
            ],
            [
                0.4157232704402516,
                0.40223880597014927
            ]
        ],
        [
            [
                0.4144654088050314,
                0.45597014925373136
            ],
            [
                0.4140461215932914,
                0.47388059701492535
            ],
            [
                0.42075471698113204,
                0.491044776119403
            ]
        ],
        [
            [
                0.44088050314465405,
                0.5425373134328358
            ],
            [
                0.44758909853249473,
                0.5597014925373135
            ],
            [
                0.45555555555555555,
                0.5611940298507463
            ]
        ],
        [
            [
                0.47945492662473793,
                0.5656716417910448
            ],
            [
                0.4874213836477987,
                0.5671641791044776
            ],
            [
                0.48951781970649894,
                0.5813432835820895
            ]
        ],
        [
            [
                0.4958071278825996,
                0.6238805970149254
            ],
            [
                0.4979035639412998,
                0.6380597014925373
            ],
            [
                0.4849056603773585,
                0.7194029850746269
            ]
        ],
        [
            [
                0.4459119496855346,
                0.9634328358208955
            ],
            [
                0.4329140461215933,
                1.0447761194029852
            ],
            [
                0.3259958071278826,
                1.073134328358209
            ]
        ],
        [
            [
                0.005241090146750516,
                1.1582089552238806
            ],
            [
                -0.10167714884696016,
                1.1865671641791045
            ],
            [
                -0.09371069182389938,
                0.9835820895522389
            ]
        ]
    ],
    "0001": [
        [
            [
                -0.069811320754717,
                0.37462686567164183
            ],
            [
                -0.06184486373165619,
                0.17164179104477612
            ],
            [
                -0.005660377358490565,
                0.17537313432835822
            ]
        ],
        [
            [
                0.1649895178197065,
                0.1697761194029851
            ],
            [
                0.22117400419287211,
                0.17350746268656717
            ],
            [
                0.22117400419287211,
                0.18097014925373137
            ]
        ],
        [
            [
                0.22012578616352202,
                0.21082089552238803
            ],
            [
                0.22012578616352202,
                0.21828358208955223
            ],
            [
                0.22851153039832284,
                0.21604477611940298
            ]
        ],
        [
            [
                0.2547169811320755,
                0.21492537313432836
            ],
            [
                0.26310272536687634,
                0.2126865671641791
            ],
            [
                0.28721174004192884,
                0.2891791044776119
            ]
        ],
        [
            [
                0.3113207547169811,
                0.33955223880597013
            ],
            [
                0.3427672955974843,
                0.373134328358209
            ],
            [
                0.3578616352201258,
                0.37462686567164183
            ]
        ],
        [
            [
                0.4041928721174004,
                0.37723880597014925
            ],
            [
                0.4192872117400419,
                0.3787313432835821
            ],
            [
                0.41886792452830185,
                0.3966417910447762
            ]
        ],
        [
            [
                0.41656184486373166,
                0.4354477611940299
            ],
            [
                0.41614255765199165,
                0.4533582089552239
            ],
            [
                0.4171907756813417,
                0.5261194029850746
            ]
        ],
        [
            [
                0.43396226415094336,
                0.5466417910447762
            ],
            [
                0.44758909853249473,
                0.5597014925373135
            ],
            [
                0.45555555555555555,
                0.5611940298507463
            ]
        ],
        [
            [
                0.48259958071278825,
                0.5582089552238807
            ],
            [
                0.49056603773584906,
                0.5597014925373135
            ],
            [
                0.49266247379454925,
                0.5738805970149253
            ]
        ],
        [
            [
                0.49580712788259956,
                0.6417910447761195
            ],
            [
                0.4863731656184486,
                0.6548507462686568
            ],
            [
                0.47337526205450736,
                0.7361940298507463
            ]
        ],
        [
            [
                0.4459119496855346,
                0.9634328358208955
            ],
            [
                0.4329140461215933,
                1.0447761194029852
            ],
            [
                0.3259958071278826,
                1.073134328358209
            ]
        ],
        [
            [
                0.005241090146750516,
                1.1582089552238806
            ],
            [
                -0.10167714884696016,
                1.1865671641791045
            ],
            [
                -0.09371069182389938,
                0.9835820895522389
            ]
        ]
    ]
}
</property>
  </filter>
  <filter id="filter352">
   <property name="mlt_service">avfilter.despill</property>
   <property name="kdenlive_id">avfilter.despill</property>
   <property name="av.type">green</property>
   <property name="av.mix">0.278</property>
   <property name="av.expand">0.06</property>
   <property name="av.red">0</property>
   <property name="av.green">-0.9</property>
   <property name="av.blue">-0.5</property>
   <property name="av.brightness">0</property>
  </filter>
 </producer>
 <producer id="producer198" in="00:00:00.000" out="00:00:29.533">
  <property name="length">887</property>
  <property name="eof">pause</property>
  <property name="resource">/home/ryankelln/.cache/kdenlive/proxy/f89156b45f0cb2fcf8cb31fe7feec74f.mkv</property>
  <property name="audio_index">1</property>
  <property name="video_index">0</property>
  <property name="mute_on_pause">0</property>
  <property name="mlt_service">avformat-novalidate</property>
  <property name="seekable">1</property>
  <property name="aspect_ratio">1</property>
  <property name="kdenlive:clipname">2021-06-02_Caleb+Chris_upright+piano+handheld_suzy_MVI_5994-take1_caleb_beginning.mkv</property>
  <property name="kdenlive:folderid">103</property>
  <property name="kdenlive:id">78</property>
  <property name="kdenlive:file_size">172419124</property>
  <property name="kdenlive:file_hash">f89156b45f0cb2fcf8cb31fe7feec74f</property>
  <property name="kdenlive:proxy">/home/ryankelln/.cache/kdenlive/proxy/f89156b45f0cb2fcf8cb31fe7feec74f.mkv</property>
  <property name="kdenlive:originalurl">content/musicians/2021-06-02_Caleb+Chris_upright+piano+handheld_suzy_MVI_5994-take1_caleb_beginning.mkv</property>
  <property name="kdenlive:original.mlt_type">producer</property>
  <property name="kdenlive:original.in">0</property>
  <property name="kdenlive:original.out">886</property>
  <property name="kdenlive:original.length">887</property>
  <property name="kdenlive:original.eof">pause</property>
  <property name="kdenlive:original.resource">content/musicians/2021-06-02_Caleb+Chris_upright+piano+handheld_suzy_MVI_5994-take1_caleb_beginning.mkv</property>
  <property name="kdenlive:original.meta.media.nb_streams">2</property>
  <property name="kdenlive:original.meta.media.0.stream.type">video</property>
  <property name="kdenlive:original.meta.media.0.stream.frame_rate">29.97</property>
  <property name="kdenlive:original.meta.media.0.stream.sample_aspect_ratio">0</property>
  <property name="kdenlive:original.meta.media.0.codec.width">1920</property>
  <property name="kdenlive:original.meta.media.0.codec.height">1080</property>
  <property name="kdenlive:original.meta.media.0.codec.rotate">0</property>
  <property name="kdenlive:original.meta.media.0.codec.frame_rate">1000</property>
  <property name="kdenlive:original.meta.media.0.codec.pix_fmt">yuvj420p</property>
  <property name="kdenlive:original.meta.media.0.codec.sample_aspect_ratio">0</property>
  <property name="kdenlive:original.meta.media.0.codec.colorspace">601</property>
  <property name="kdenlive:original.meta.media.0.codec.color_trc">1</property>
  <property name="kdenlive:original.meta.media.0.codec.name">h264</property>
  <property name="kdenlive:original.meta.media.0.codec.long_name">H.264 / AVC / MPEG-4 AVC / MPEG-4 part 10</property>
  <property name="kdenlive:original.meta.media.0.codec.bit_rate">0</property>
  <property name="kdenlive:original.meta.attr.0.stream.language.markup">eng</property>
  <property name="kdenlive:original.meta.attr.0.stream.DURATION.markup">00:00:29.563000000</property>
  <property name="kdenlive:original.meta.media.1.stream.type">audio</property>
  <property name="kdenlive:original.meta.media.1.codec.sample_fmt">s16</property>
  <property name="kdenlive:original.meta.media.1.codec.sample_rate">48000</property>
  <property name="kdenlive:original.meta.media.1.codec.channels">2</property>
  <property name="kdenlive:original.meta.media.1.codec.name">pcm_s16le</property>
  <property name="kdenlive:original.meta.media.1.codec.long_name">PCM signed 16-bit little-endian</property>
  <property name="kdenlive:original.meta.media.1.codec.bit_rate">1536000</property>
  <property name="kdenlive:original.meta.attr.1.stream.language.markup">eng</property>
  <property name="kdenlive:original.meta.attr.1.stream.DURATION.markup">00:00:29.562000000</property>
  <property name="kdenlive:original.meta.attr.COMPATIBLE_BRANDS.markup">qt  CAEP</property>
  <property name="kdenlive:original.meta.attr.creation_time.markup">2021-06-02T14:29:18.000000Z</property>
  <property name="kdenlive:original.meta.attr.MAJOR_BRAND.markup">qt  </property>
  <property name="kdenlive:original.meta.attr.MINOR_VERSION.markup">537331968</property>
  <property name="kdenlive:original.meta.attr.ENCODER.markup">Lavf58.45.100</property>
  <property name="kdenlive:original.seekable">1</property>
  <property name="kdenlive:original.width">1920</property>
  <property name="kdenlive:original.height">1080</property>
  <property name="kdenlive:original.meta.media.sample_aspect_num">1</property>
  <property name="kdenlive:original.meta.media.sample_aspect_den">1</property>
  <property name="kdenlive:original.aspect_ratio">1</property>
  <property name="kdenlive:original.audio_index">1</property>
  <property name="kdenlive:original.video_index">0</property>
  <property name="kdenlive:original.mute_on_pause">0</property>
  <property name="kdenlive:original.mlt_service">avformat-novalidate</property>
  <property name="kdenlive:original.kdenlive:folderid">103</property>
  <property name="kdenlive:original.meta.media.frame_rate_num">30000</property>
  <property name="kdenlive:original.meta.media.frame_rate_den">1001</property>
  <property name="kdenlive:original.meta.media.colorspace">601</property>
  <property name="kdenlive:original.meta.media.color_trc">1</property>
  <property name="kdenlive:original.meta.media.width">1920</property>
  <property name="kdenlive:original.meta.media.height">1080</property>
  <property name="kdenlive:original.meta.media.color_range">full</property>
  <property name="kdenlive:original.kdenlive:id">113</property>
  <property name="kdenlive:original.kdenlive:file_size">172419124</property>
  <property name="kdenlive:original.kdenlive:file_hash">f89156b45f0cb2fcf8cb31fe7feec74f</property>
  <property name="kdenlive:original.backup">1</property>
  <property name="kdenlive:audio_max">1</property>
  <property name="global_feed">1</property>
  <property name="xml">was here</property>
  <property name="meta.media.nb_streams">2</property>
  <property name="meta.media.0.stream.type">video</property>
  <property name="meta.media.0.stream.frame_rate">29.97</property>
  <property name="meta.media.0.stream.sample_aspect_ratio">0</property>
  <property name="meta.media.0.codec.width">960</property>
  <property name="meta.media.0.codec.height">540</property>
  <property name="meta.media.0.codec.rotate">0</property>
  <property name="meta.media.0.codec.frame_rate">1000</property>
  <property name="meta.media.0.codec.pix_fmt">yuvj420p</property>
  <property name="meta.media.0.codec.sample_aspect_ratio">0</property>
  <property name="meta.media.0.codec.colorspace">601</property>
  <property name="meta.media.0.codec.name">mjpeg</property>
  <property name="meta.media.0.codec.long_name">MJPEG (Motion JPEG)</property>
  <property name="meta.media.0.codec.bit_rate">0</property>
  <property name="meta.attr.0.stream.language.markup">eng</property>
  <property name="meta.attr.0.stream.ENCODER.markup">Lavc58.91.100 mjpeg</property>
  <property name="meta.attr.0.stream.DURATION.markup">00:00:29.563000000</property>
  <property name="meta.media.1.stream.type">audio</property>
  <property name="meta.media.1.codec.sample_fmt">s16</property>
  <property name="meta.media.1.codec.sample_rate">48000</property>
  <property name="meta.media.1.codec.channels">2</property>
  <property name="meta.media.1.codec.name">pcm_s16le</property>
  <property name="meta.media.1.codec.long_name">PCM signed 16-bit little-endian</property>
  <property name="meta.media.1.codec.bit_rate">1536000</property>
  <property name="meta.attr.1.stream.language.markup">eng</property>
  <property name="meta.attr.1.stream.ENCODER.markup">Lavc58.91.100 pcm_s16le</property>
  <property name="meta.attr.1.stream.DURATION.markup">00:00:29.562000000</property>
  <property name="meta.attr.MAJOR_BRAND.markup">qt  </property>
  <property name="meta.attr.COMPATIBLE_BRANDS.markup">qt  CAEP</property>
  <property name="meta.attr.MINOR_VERSION.markup">537331968</property>
  <property name="meta.attr.ENCODER.markup">Lavf58.45.100</property>
  <property name="meta.media.sample_aspect_num">1</property>
  <property name="meta.media.sample_aspect_den">1</property>
  <property name="meta.media.frame_rate_num">30000</property>
  <property name="meta.media.frame_rate_den">1001</property>
  <property name="meta.media.colorspace">601</property>
  <property name="meta.media.color_trc">2</property>
  <property name="meta.media.width">960</property>
  <property name="meta.media.height">540</property>
  <property name="meta.media.color_range">full</property>
  <property name="meta.media.top_field_first">0</property>
  <property name="meta.media.progressive">1</property>
  <property name="set.test_audio">1</property>
  <property name="set.test_image">0</property>
 </producer>
 <producer id="producer199" in="00:00:00.000" out="00:05:47.067">
  <property name="length">10413</property>
  <property name="eof">pause</property>
  <property name="resource">content/musicians/2021-06-02_Sarah_kit_suzy_00046-take1_beginning.MTS</property>
  <property name="audio_index">1</property>
  <property name="video_index">0</property>
  <property name="mute_on_pause">0</property>
  <property name="mlt_service">avformat-novalidate</property>
  <property name="seekable">1</property>
  <property name="aspect_ratio">1.33333</property>
  <property name="kdenlive:clipname"/>
  <property name="kdenlive:folderid">103</property>
  <property name="kdenlive:id">80</property>
  <property name="kdenlive:file_size">306002524</property>
  <property name="kdenlive:file_hash">90ffb3bfdcd3f40feb08d71ea61b1e91</property>
  <property name="kdenlive:audio_max">1</property>
  <property name="global_feed">1</property>
  <property name="kdenlive:activeeffect">1</property>
  <property name="xml">was here</property>
  <property name="meta.media.nb_streams">2</property>
  <property name="meta.media.0.stream.type">video</property>
  <property name="meta.media.0.stream.frame_rate">29.97</property>
  <property name="meta.media.0.stream.sample_aspect_ratio">0</property>
  <property name="meta.media.0.codec.width">1440</property>
  <property name="meta.media.0.codec.height">1080</property>
  <property name="meta.media.0.codec.rotate">0</property>
  <property name="meta.media.0.codec.frame_rate">29.97</property>
  <property name="meta.media.0.codec.pix_fmt">yuv420p</property>
  <property name="meta.media.0.codec.sample_aspect_ratio">1.33333</property>
  <property name="meta.media.0.codec.colorspace">709</property>
  <property name="meta.media.0.codec.name">h264</property>
  <property name="meta.media.0.codec.long_name">H.264 / AVC / MPEG-4 AVC / MPEG-4 part 10</property>
  <property name="meta.media.0.codec.bit_rate">0</property>
  <property name="meta.media.1.stream.type">audio</property>
  <property name="meta.media.1.codec.sample_fmt">fltp</property>
  <property name="meta.media.1.codec.sample_rate">48000</property>
  <property name="meta.media.1.codec.channels">2</property>
  <property name="meta.media.1.codec.name">ac3</property>
  <property name="meta.media.1.codec.long_name">ATSC A/52A (AC-3)</property>
  <property name="meta.media.1.codec.bit_rate">256000</property>
  <property name="meta.media.sample_aspect_num">4</property>
  <property name="meta.media.sample_aspect_den">3</property>
  <property name="meta.media.frame_rate_num">30000</property>
  <property name="meta.media.frame_rate_den">1001</property>
  <property name="meta.media.colorspace">709</property>
  <property name="meta.media.color_trc">2</property>
  <property name="meta.media.width">1440</property>
  <property name="meta.media.height">1080</property>
  <property name="meta.media.color_range">mpeg</property>
  <property name="meta.media.top_field_first">1</property>
  <property name="meta.media.progressive">0</property>
  <property name="set.test_audio">1</property>
  <property name="set.test_image">0</property>
  <filter id="filter353">
   <property name="version">0.1</property>
   <property name="mlt_service">frei0r.hqdn3d</property>
   <property name="kdenlive_id">frei0r.hqdn3d</property>
   <property name="Spatial">00:00:00.000=0.01</property>
   <property name="Temporal">00:00:00.000=0.01</property>
  </filter>
  <filter id="filter354">
   <property name="version">0.6</property>
   <property name="mlt_service">frei0r.select0r</property>
   <property name="kdenlive_id">frei0r.select0r</property>
   <property name="Color to select">0x419553ff</property>
   <property name="Invert selection">1</property>
   <property name="Selection subspace">1</property>
   <property name="Subspace shape">0</property>
   <property name="Edge mode">0.9</property>
   <property name="Delta R / A / Hue">00:00:00.000=0.025</property>
   <property name="Delta G / B / Chroma">00:00:00.000=0.171</property>
   <property name="Delta B / I / I">00:00:00.000=0.371</property>
   <property name="Slope">00:00:00.000=0.15</property>
   <property name="Operation">0.5</property>
  </filter>
  <filter id="filter355">
   <property name="mlt_service">avfilter.despill</property>
   <property name="kdenlive_id">avfilter.despill</property>
   <property name="av.type">green</property>
   <property name="av.mix">0.106</property>
   <property name="av.expand">0</property>
   <property name="av.red">0</property>
   <property name="av.green">-0.9</property>
   <property name="av.blue">-0.5</property>
   <property name="av.brightness">0</property>
  </filter>
 </producer>
 <producer id="producer200" in="00:00:00.000" out="00:03:53.467">
  <property name="length">7005</property>
  <property name="eof">pause</property>
  <property name="resource">/home/ryankelln/.cache/kdenlive/proxy/e4a6fa5f8146f0aeb0d5df779ec987df.mkv</property>
  <property name="audio_index">1</property>
  <property name="video_index">0</property>
  <property name="mute_on_pause">0</property>
  <property name="mlt_service">avformat-novalidate</property>
  <property name="seekable">1</property>
  <property name="aspect_ratio">1</property>
  <property name="kdenlive:clipname">2021-02-06_Chris_piano+4k_suzy_P1180151-take1_beginning_to_F.MP4</property>
  <property name="kdenlive:folderid">103</property>
  <property name="kdenlive:id">72</property>
  <property name="kdenlive:file_size">2799439497</property>
  <property name="kdenlive:file_hash">e4a6fa5f8146f0aeb0d5df779ec987df</property>
  <property name="kdenlive:audio_max">1</property>
  <property name="kdenlive:proxy">/home/ryankelln/.cache/kdenlive/proxy/e4a6fa5f8146f0aeb0d5df779ec987df.mkv</property>
  <property name="kdenlive:originalurl">content/musicians/2021-02-06_Chris_piano+4k_suzy_P1180151-take1_beginning_to_F.MP4</property>
  <property name="kdenlive:original.mlt_type">producer</property>
  <property name="kdenlive:original.in">00:00:00.000</property>
  <property name="kdenlive:original.out">00:03:53.467</property>
  <property name="kdenlive:original.length">7005</property>
  <property name="kdenlive:original.eof">pause</property>
  <property name="kdenlive:original.resource">content/musicians/2021-02-06_Chris_piano+4k_suzy_P1180151-take1_beginning_to_F.MP4</property>
  <property name="kdenlive:original.meta.media.nb_streams">2</property>
  <property name="kdenlive:original.meta.media.0.stream.type">video</property>
  <property name="kdenlive:original.meta.media.0.stream.frame_rate">29.97</property>
  <property name="kdenlive:original.meta.media.0.stream.sample_aspect_ratio">1</property>
  <property name="kdenlive:original.meta.media.0.codec.width">3840</property>
  <property name="kdenlive:original.meta.media.0.codec.height">2160</property>
  <property name="kdenlive:original.meta.media.0.codec.rotate">0</property>
  <property name="kdenlive:original.meta.media.0.codec.frame_rate">29.97</property>
  <property name="kdenlive:original.meta.media.0.codec.pix_fmt">yuvj420p</property>
  <property name="kdenlive:original.meta.media.0.codec.sample_aspect_ratio">1</property>
  <property name="kdenlive:original.meta.media.0.codec.colorspace">709</property>
  <property name="kdenlive:original.meta.media.0.codec.color_trc">1</property>
  <property name="kdenlive:original.meta.media.0.codec.name">h264</property>
  <property name="kdenlive:original.meta.media.0.codec.long_name">H.264 / AVC / MPEG-4 AVC / MPEG-4 part 10</property>
  <property name="kdenlive:original.meta.media.0.codec.bit_rate">95792075</property>
  <property name="kdenlive:original.meta.attr.0.stream.creation_time.markup">2021-06-02T14:28:00.000000Z</property>
  <property name="kdenlive:original.meta.attr.0.stream.handler_name.markup">VideoHandler</property>
  <property name="kdenlive:original.meta.media.1.stream.type">audio</property>
  <property name="kdenlive:original.meta.media.1.codec.sample_fmt">fltp</property>
  <property name="kdenlive:original.meta.media.1.codec.sample_rate">48000</property>
  <property name="kdenlive:original.meta.media.1.codec.channels">2</property>
  <property name="kdenlive:original.meta.media.1.codec.name">aac</property>
  <property name="kdenlive:original.meta.media.1.codec.long_name">AAC (Advanced Audio Coding)</property>
  <property name="kdenlive:original.meta.media.1.codec.bit_rate">125374</property>
  <property name="kdenlive:original.meta.attr.1.stream.creation_time.markup">2021-06-02T14:28:00.000000Z</property>
  <property name="kdenlive:original.meta.attr.1.stream.handler_name.markup">SoundHandler</property>
  <property name="kdenlive:original.meta.attr.major_brand.markup">isom</property>
  <property name="kdenlive:original.meta.attr.minor_version.markup">512</property>
  <property name="kdenlive:original.meta.attr.compatible_brands.markup">isomiso2avc1mp41</property>
  <property name="kdenlive:original.meta.attr.creation_time.markup">2021-06-02T14:28:00.000000Z</property>
  <property name="kdenlive:original.meta.attr.encoder.markup">Lavf58.45.100</property>
  <property name="kdenlive:original.seekable">1</property>
  <property name="kdenlive:original.width">3840</property>
  <property name="kdenlive:original.height">2160</property>
  <property name="kdenlive:original.meta.media.sample_aspect_num">1</property>
  <property name="kdenlive:original.meta.media.sample_aspect_den">1</property>
  <property name="kdenlive:original.aspect_ratio">1</property>
  <property name="kdenlive:original.audio_index">1</property>
  <property name="kdenlive:original.video_index">0</property>
  <property name="kdenlive:original.mute_on_pause">0</property>
  <property name="kdenlive:original.mlt_service">avformat-novalidate</property>
  <property name="kdenlive:original.kdenlive:folderid">103</property>
  <property name="kdenlive:original.meta.media.frame_rate_num">30000</property>
  <property name="kdenlive:original.meta.media.frame_rate_den">1001</property>
  <property name="kdenlive:original.meta.media.colorspace">709</property>
  <property name="kdenlive:original.meta.media.color_trc">1</property>
  <property name="kdenlive:original.meta.media.width">3840</property>
  <property name="kdenlive:original.meta.media.height">2160</property>
  <property name="kdenlive:original.meta.media.color_range">full</property>
  <property name="kdenlive:original.kdenlive:id">106</property>
  <property name="kdenlive:original.kdenlive:file_size">2799439497</property>
  <property name="kdenlive:original.kdenlive:file_hash">e4a6fa5f8146f0aeb0d5df779ec987df</property>
  <property name="kdenlive:original.kdenlive:audio_max">1</property>
  <property name="kdenlive:original.meta.media.top_field_first">0</property>
  <property name="kdenlive:original.meta.media.progressive">1</property>
  <property name="kdenlive:original.backup">1</property>
  <property name="global_feed">1</property>
  <property name="kdenlive:activeeffect">1</property>
  <property name="xml">was here</property>
  <property name="meta.media.nb_streams">2</property>
  <property name="meta.media.0.stream.type">video</property>
  <property name="meta.media.0.stream.frame_rate">29.97</property>
  <property name="meta.media.0.stream.sample_aspect_ratio">1</property>
  <property name="meta.media.0.codec.width">960</property>
  <property name="meta.media.0.codec.height">540</property>
  <property name="meta.media.0.codec.rotate">0</property>
  <property name="meta.media.0.codec.frame_rate">1000</property>
  <property name="meta.media.0.codec.pix_fmt">yuvj420p</property>
  <property name="meta.media.0.codec.sample_aspect_ratio">1</property>
  <property name="meta.media.0.codec.colorspace">601</property>
  <property name="meta.media.0.codec.name">mjpeg</property>
  <property name="meta.media.0.codec.long_name">MJPEG (Motion JPEG)</property>
  <property name="meta.media.0.codec.bit_rate">0</property>
  <property name="meta.attr.0.stream.HANDLER_NAME.markup">VideoHandler</property>
  <property name="meta.attr.0.stream.ENCODER.markup">Lavc58.91.100 mjpeg</property>
  <property name="meta.attr.0.stream.DURATION.markup">00:03:53.566000000</property>
  <property name="meta.media.1.stream.type">audio</property>
  <property name="meta.media.1.codec.sample_fmt">s16</property>
  <property name="meta.media.1.codec.sample_rate">48000</property>
  <property name="meta.media.1.codec.channels">2</property>
  <property name="meta.media.1.codec.name">pcm_s16le</property>
  <property name="meta.media.1.codec.long_name">PCM signed 16-bit little-endian</property>
  <property name="meta.media.1.codec.bit_rate">1536000</property>
  <property name="meta.attr.1.stream.HANDLER_NAME.markup">SoundHandler</property>
  <property name="meta.attr.1.stream.ENCODER.markup">Lavc58.91.100 pcm_s16le</property>
  <property name="meta.attr.1.stream.DURATION.markup">00:03:53.514000000</property>
  <property name="meta.attr.COMPATIBLE_BRANDS.markup">isomiso2avc1mp41</property>
  <property name="meta.attr.MAJOR_BRAND.markup">isom</property>
  <property name="meta.attr.MINOR_VERSION.markup">512</property>
  <property name="meta.attr.ENCODER.markup">Lavf58.45.100</property>
  <property name="meta.media.sample_aspect_num">1</property>
  <property name="meta.media.sample_aspect_den">1</property>
  <property name="meta.media.frame_rate_num">30000</property>
  <property name="meta.media.frame_rate_den">1001</property>
  <property name="meta.media.colorspace">601</property>
  <property name="meta.media.color_trc">2</property>
  <property name="meta.media.width">960</property>
  <property name="meta.media.height">540</property>
  <property name="meta.media.color_range">full</property>
  <property name="meta.media.top_field_first">0</property>
  <property name="meta.media.progressive">1</property>
  <property name="set.test_audio">1</property>
  <property name="set.test_image">1</property>
  <filter id="filter356">
   <property name="version">0.1</property>
   <property name="mlt_service">frei0r.hqdn3d</property>
   <property name="kdenlive_id">frei0r.hqdn3d</property>
   <property name="Spatial">00:00:00.000=0.01</property>
   <property name="Temporal">00:00:00.000=0.01</property>
   <property name="kdenlive:collapsed">0</property>
  </filter>
  <filter id="filter357">
   <property name="version">0.6</property>
   <property name="mlt_service">frei0r.select0r</property>
   <property name="kdenlive_id">frei0r.select0r</property>
   <property name="Color to select">0x739c69ff</property>
   <property name="Invert selection">1</property>
   <property name="Selection subspace">1</property>
   <property name="Subspace shape">0</property>
   <property name="Edge mode">0.9</property>
   <property name="Delta R / A / Hue">00:00:00.000=0.065</property>
   <property name="Delta G / B / Chroma">00:00:00.000=0.09</property>
   <property name="Delta B / I / I">00:00:00.000=0.24</property>
   <property name="Slope">00:00:00.000=0.075</property>
   <property name="Operation">0.5</property>
   <property name="kdenlive:collapsed">0</property>
   <property name="disable">0</property>
  </filter>
  <filter id="filter358">
   <property name="mode">alpha</property>
   <property name="alpha_operation">add</property>
   <property name="invert">0</property>
   <property name="feather">5</property>
   <property name="feather_passes">1</property>
   <property name="mlt_service">rotoscoping</property>
   <property name="kdenlive_id">rotoscoping</property>
   <property name="spline">{
    "0000": [
        [
            [
                -0.069811320754717,
                0.37462686567164183
            ],
            [
                -0.06184486373165619,
                0.17164179104477612
            ],
            [
                -0.005660377358490565,
                0.17537313432835822
            ]
        ],
        [
            [
                0.1628930817610063,
                0.18656716417910446
            ],
            [
                0.21907756813417192,
                0.19029850746268656
            ],
            [
                0.21907756813417192,
                0.19776119402985076
            ]
        ],
        [
            [
                0.21907756813417192,
                0.22014925373134328
            ],
            [
                0.21907756813417192,
                0.22761194029850748
            ],
            [
                0.22746331236897274,
                0.22537313432835823
            ]
        ],
        [
            [
                0.2526205450733753,
                0.21865671641791046
            ],
            [
                0.2610062893081761,
                0.2164179104477612
            ],
            [
                0.27693920335429767,
                0.2485074626865672
            ]
        ],
        [
            [
                0.32473794549266244,
                0.3447761194029851
            ],
            [
                0.34067085953878407,
                0.3768656716417911
            ],
            [
                0.35576519916142557,
                0.37835820895522393
            ]
        ],
        [
            [
                0.40104821802935015,
                0.38283582089552237
            ],
            [
                0.41614255765199165,
                0.3843283582089552
            ],
            [
                0.4157232704402516,
                0.40223880597014927
            ]
        ],
        [
            [
                0.4144654088050314,
                0.45597014925373136
            ],
            [
                0.4140461215932914,
                0.47388059701492535
            ],
            [
                0.42075471698113204,
                0.491044776119403
            ]
        ],
        [
            [
                0.44088050314465405,
                0.5425373134328358
            ],
            [
                0.44758909853249473,
                0.5597014925373135
            ],
            [
                0.45555555555555555,
                0.5611940298507463
            ]
        ],
        [
            [
                0.47945492662473793,
                0.5656716417910448
            ],
            [
                0.4874213836477987,
                0.5671641791044776
            ],
            [
                0.48951781970649894,
                0.5813432835820895
            ]
        ],
        [
            [
                0.4958071278825996,
                0.6238805970149254
            ],
            [
                0.4979035639412998,
                0.6380597014925373
            ],
            [
                0.4849056603773585,
                0.7194029850746269
            ]
        ],
        [
            [
                0.4459119496855346,
                0.9634328358208955
            ],
            [
                0.4329140461215933,
                1.0447761194029852
            ],
            [
                0.3259958071278826,
                1.073134328358209
            ]
        ],
        [
            [
                0.005241090146750516,
                1.1582089552238806
            ],
            [
                -0.10167714884696016,
                1.1865671641791045
            ],
            [
                -0.09371069182389938,
                0.9835820895522389
            ]
        ]
    ],
    "0001": [
        [
            [
                -0.069811320754717,
                0.37462686567164183
            ],
            [
                -0.06184486373165619,
                0.17164179104477612
            ],
            [
                -0.005660377358490565,
                0.17537313432835822
            ]
        ],
        [
            [
                0.1649895178197065,
                0.1697761194029851
            ],
            [
                0.22117400419287211,
                0.17350746268656717
            ],
            [
                0.22117400419287211,
                0.18097014925373137
            ]
        ],
        [
            [
                0.22012578616352202,
                0.21082089552238803
            ],
            [
                0.22012578616352202,
                0.21828358208955223
            ],
            [
                0.22851153039832284,
                0.21604477611940298
            ]
        ],
        [
            [
                0.2547169811320755,
                0.21492537313432836
            ],
            [
                0.26310272536687634,
                0.2126865671641791
            ],
            [
                0.28721174004192884,
                0.2891791044776119
            ]
        ],
        [
            [
                0.3113207547169811,
                0.33955223880597013
            ],
            [
                0.3427672955974843,
                0.373134328358209
            ],
            [
                0.3578616352201258,
                0.37462686567164183
            ]
        ],
        [
            [
                0.4041928721174004,
                0.37723880597014925
            ],
            [
                0.4192872117400419,
                0.3787313432835821
            ],
            [
                0.41886792452830185,
                0.3966417910447762
            ]
        ],
        [
            [
                0.41656184486373166,
                0.4354477611940299
            ],
            [
                0.41614255765199165,
                0.4533582089552239
            ],
            [
                0.4171907756813417,
                0.5261194029850746
            ]
        ],
        [
            [
                0.43396226415094336,
                0.5466417910447762
            ],
            [
                0.44758909853249473,
                0.5597014925373135
            ],
            [
                0.45555555555555555,
                0.5611940298507463
            ]
        ],
        [
            [
                0.48259958071278825,
                0.5582089552238807
            ],
            [
                0.49056603773584906,
                0.5597014925373135
            ],
            [
                0.49266247379454925,
                0.5738805970149253
            ]
        ],
        [
            [
                0.49580712788259956,
                0.6417910447761195
            ],
            [
                0.4863731656184486,
                0.6548507462686568
            ],
            [
                0.47337526205450736,
                0.7361940298507463
            ]
        ],
        [
            [
                0.4459119496855346,
                0.9634328358208955
            ],
            [
                0.4329140461215933,
                1.0447761194029852
            ],
            [
                0.3259958071278826,
                1.073134328358209
            ]
        ],
        [
            [
                0.005241090146750516,
                1.1582089552238806
            ],
            [
                -0.10167714884696016,
                1.1865671641791045
            ],
            [
                -0.09371069182389938,
                0.9835820895522389
            ]
        ]
    ]
}
</property>
   <property name="kdenlive:collapsed">0</property>
  </filter>
  <filter id="filter359">
   <property name="mlt_service">avfilter.despill</property>
   <property name="kdenlive_id">avfilter.despill</property>
   <property name="av.type">green</property>
   <property name="av.mix">0.278</property>
   <property name="av.expand">0.06</property>
   <property name="av.red">0</property>
   <property name="av.green">-0.9</property>
   <property name="av.blue">-0.5</property>
   <property name="av.brightness">0</property>
   <property name="kdenlive:collapsed">0</property>
  </filter>
  <filter id="filter360">
   <property name="version">0.1</property>
   <property name="mlt_service">frei0r.hqdn3d</property>
   <property name="kdenlive_id">frei0r.hqdn3d</property>
   <property name="Spatial">00:00:00.000=0.01</property>
   <property name="Temporal">00:00:00.000=0.01</property>
  </filter>
  <filter id="filter361">
   <property name="version">0.6</property>
   <property name="mlt_service">frei0r.select0r</property>
   <property name="kdenlive_id">frei0r.select0r</property>
   <property name="Color to select">0x739c69ff</property>
   <property name="Invert selection">1</property>
   <property name="Selection subspace">1</property>
   <property name="Subspace shape">0</property>
   <property name="Edge mode">0.9</property>
   <property name="Delta R / A / Hue">00:00:00.000=0.065</property>
   <property name="Delta G / B / Chroma">00:00:00.000=0.09</property>
   <property name="Delta B / I / I">00:00:00.000=0.24</property>
   <property name="Slope">00:00:00.000=0.075</property>
   <property name="Operation">0.5</property>
  </filter>
  <filter id="filter369">
   <property name="mode">alpha</property>
   <property name="alpha_operation">add</property>
   <property name="invert">0</property>
   <property name="feather">5</property>
   <property name="feather_passes">1</property>
   <property name="mlt_service">rotoscoping</property>
   <property name="kdenlive_id">rotoscoping</property>
   <property name="spline">{
    "0000": [
        [
            [
                -0.069811320754717,
                0.37462686567164183
            ],
            [
                -0.06184486373165619,
                0.17164179104477612
            ],
            [
                -0.005660377358490565,
                0.17537313432835822
            ]
        ],
        [
            [
                0.1628930817610063,
                0.18656716417910446
            ],
            [
                0.21907756813417192,
                0.19029850746268656
            ],
            [
                0.21907756813417192,
                0.19776119402985076
            ]
        ],
        [
            [
                0.21907756813417192,
                0.22014925373134328
            ],
            [
                0.21907756813417192,
                0.22761194029850748
            ],
            [
                0.22746331236897274,
                0.22537313432835823
            ]
        ],
        [
            [
                0.2526205450733753,
                0.21865671641791046
            ],
            [
                0.2610062893081761,
                0.2164179104477612
            ],
            [
                0.27693920335429767,
                0.2485074626865672
            ]
        ],
        [
            [
                0.32473794549266244,
                0.3447761194029851
            ],
            [
                0.34067085953878407,
                0.3768656716417911
            ],
            [
                0.35576519916142557,
                0.37835820895522393
            ]
        ],
        [
            [
                0.40104821802935015,
                0.38283582089552237
            ],
            [
                0.41614255765199165,
                0.3843283582089552
            ],
            [
                0.4157232704402516,
                0.40223880597014927
            ]
        ],
        [
            [
                0.4144654088050314,
                0.45597014925373136
            ],
            [
                0.4140461215932914,
                0.47388059701492535
            ],
            [
                0.42075471698113204,
                0.491044776119403
            ]
        ],
        [
            [
                0.44088050314465405,
                0.5425373134328358
            ],
            [
                0.44758909853249473,
                0.5597014925373135
            ],
            [
                0.45555555555555555,
                0.5611940298507463
            ]
        ],
        [
            [
                0.47945492662473793,
                0.5656716417910448
            ],
            [
                0.4874213836477987,
                0.5671641791044776
            ],
            [
                0.48951781970649894,
                0.5813432835820895
            ]
        ],
        [
            [
                0.4958071278825996,
                0.6238805970149254
            ],
            [
                0.4979035639412998,
                0.6380597014925373
            ],
            [
                0.4849056603773585,
                0.7194029850746269
            ]
        ],
        [
            [
                0.4459119496855346,
                0.9634328358208955
            ],
            [
                0.4329140461215933,
                1.0447761194029852
            ],
            [
                0.3259958071278826,
                1.073134328358209
            ]
        ],
        [
            [
                0.005241090146750516,
                1.1582089552238806
            ],
            [
                -0.10167714884696016,
                1.1865671641791045
            ],
            [
                -0.09371069182389938,
                0.9835820895522389
            ]
        ]
    ],
    "0001": [
        [
            [
                -0.069811320754717,
                0.37462686567164183
            ],
            [
                -0.06184486373165619,
                0.17164179104477612
            ],
            [
                -0.005660377358490565,
                0.17537313432835822
            ]
        ],
        [
            [
                0.1649895178197065,
                0.1697761194029851
            ],
            [
                0.22117400419287211,
                0.17350746268656717
            ],
            [
                0.22117400419287211,
                0.18097014925373137
            ]
        ],
        [
            [
                0.22012578616352202,
                0.21082089552238803
            ],
            [
                0.22012578616352202,
                0.21828358208955223
            ],
            [
                0.22851153039832284,
                0.21604477611940298
            ]
        ],
        [
            [
                0.2547169811320755,
                0.21492537313432836
            ],
            [
                0.26310272536687634,
                0.2126865671641791
            ],
            [
                0.28721174004192884,
                0.2891791044776119
            ]
        ],
        [
            [
                0.3113207547169811,
                0.33955223880597013
            ],
            [
                0.3427672955974843,
                0.373134328358209
            ],
            [
                0.3578616352201258,
                0.37462686567164183
            ]
        ],
        [
            [
                0.4041928721174004,
                0.37723880597014925
            ],
            [
                0.4192872117400419,
                0.3787313432835821
            ],
            [
                0.41886792452830185,
                0.3966417910447762
            ]
        ],
        [
            [
                0.41656184486373166,
                0.4354477611940299
            ],
            [
                0.41614255765199165,
                0.4533582089552239
            ],
            [
                0.4171907756813417,
                0.5261194029850746
            ]
        ],
        [
            [
                0.43396226415094336,
                0.5466417910447762
            ],
            [
                0.44758909853249473,
                0.5597014925373135
            ],
            [
                0.45555555555555555,
                0.5611940298507463
            ]
        ],
        [
            [
                0.48259958071278825,
                0.5582089552238807
            ],
            [
                0.49056603773584906,
                0.5597014925373135
            ],
            [
                0.49266247379454925,
                0.5738805970149253
            ]
        ],
        [
            [
                0.49580712788259956,
                0.6417910447761195
            ],
            [
                0.4863731656184486,
                0.6548507462686568
            ],
            [
                0.47337526205450736,
                0.7361940298507463
            ]
        ],
        [
            [
                0.4459119496855346,
                0.9634328358208955
            ],
            [
                0.4329140461215933,
                1.0447761194029852
            ],
            [
                0.3259958071278826,
                1.073134328358209
            ]
        ],
        [
            [
                0.005241090146750516,
                1.1582089552238806
            ],
            [
                -0.10167714884696016,
                1.1865671641791045
            ],
            [
                -0.09371069182389938,
                0.9835820895522389
            ]
        ]
    ]
}
</property>
  </filter>
  <filter id="filter378">
   <property name="mlt_service">avfilter.despill</property>
   <property name="kdenlive_id">avfilter.despill</property>
   <property name="av.type">green</property>
   <property name="av.mix">0.278</property>
   <property name="av.expand">0.06</property>
   <property name="av.red">0</property>
   <property name="av.green">-0.9</property>
   <property name="av.blue">-0.5</property>
   <property name="av.brightness">0</property>
  </filter>
 </producer>
 <producer id="producer201" in="00:00:00.000" out="00:02:40.267">
  <property name="length">4809</property>
  <property name="eof">pause</property>
  <property name="resource">/home/ryankelln/.cache/kdenlive/proxy/9a3c142e8aec82d5a730c7ac662aef65.mkv</property>
  <property name="audio_index">1</property>
  <property name="video_index">0</property>
  <property name="mute_on_pause">0</property>
  <property name="mlt_service">avformat-novalidate</property>
  <property name="seekable">1</property>
  <property name="aspect_ratio">1</property>
  <property name="kdenlive:clipname">2021-02-06_Chris_piano+4k_suzy_P1180164-take4_E_to_end.MP4</property>
  <property name="kdenlive:folderid">103</property>
  <property name="kdenlive:id">73</property>
  <property name="kdenlive:file_size">1922240803</property>
  <property name="kdenlive:file_hash">9a3c142e8aec82d5a730c7ac662aef65</property>
  <property name="kdenlive:audio_max">1</property>
  <property name="kdenlive:proxy">/home/ryankelln/.cache/kdenlive/proxy/9a3c142e8aec82d5a730c7ac662aef65.mkv</property>
  <property name="kdenlive:originalurl">content/musicians/2021-02-06_Chris_piano+4k_suzy_P1180164-take4_E_to_end.MP4</property>
  <property name="kdenlive:original.mlt_type">producer</property>
  <property name="kdenlive:original.in">00:00:00.000</property>
  <property name="kdenlive:original.out">00:02:40.267</property>
  <property name="kdenlive:original.length">4809</property>
  <property name="kdenlive:original.eof">pause</property>
  <property name="kdenlive:original.resource">content/musicians/2021-02-06_Chris_piano+4k_suzy_P1180164-take4_E_to_end.MP4</property>
  <property name="kdenlive:original.meta.media.nb_streams">2</property>
  <property name="kdenlive:original.meta.media.0.stream.type">video</property>
  <property name="kdenlive:original.meta.media.0.stream.frame_rate">29.97</property>
  <property name="kdenlive:original.meta.media.0.stream.sample_aspect_ratio">1</property>
  <property name="kdenlive:original.meta.media.0.codec.width">3840</property>
  <property name="kdenlive:original.meta.media.0.codec.height">2160</property>
  <property name="kdenlive:original.meta.media.0.codec.rotate">0</property>
  <property name="kdenlive:original.meta.media.0.codec.frame_rate">29.97</property>
  <property name="kdenlive:original.meta.media.0.codec.pix_fmt">yuvj420p</property>
  <property name="kdenlive:original.meta.media.0.codec.sample_aspect_ratio">1</property>
  <property name="kdenlive:original.meta.media.0.codec.colorspace">709</property>
  <property name="kdenlive:original.meta.media.0.codec.color_trc">1</property>
  <property name="kdenlive:original.meta.media.0.codec.name">h264</property>
  <property name="kdenlive:original.meta.media.0.codec.long_name">H.264 / AVC / MPEG-4 AVC / MPEG-4 part 10</property>
  <property name="kdenlive:original.meta.media.0.codec.bit_rate">95802137</property>
  <property name="kdenlive:original.meta.attr.0.stream.creation_time.markup">2021-06-02T16:31:58.000000Z</property>
  <property name="kdenlive:original.meta.attr.0.stream.handler_name.markup">VideoHandler</property>
  <property name="kdenlive:original.meta.media.1.stream.type">audio</property>
  <property name="kdenlive:original.meta.media.1.codec.sample_fmt">fltp</property>
  <property name="kdenlive:original.meta.media.1.codec.sample_rate">48000</property>
  <property name="kdenlive:original.meta.media.1.codec.channels">2</property>
  <property name="kdenlive:original.meta.media.1.codec.name">aac</property>
  <property name="kdenlive:original.meta.media.1.codec.long_name">AAC (Advanced Audio Coding)</property>
  <property name="kdenlive:original.meta.media.1.codec.bit_rate">125375</property>
  <property name="kdenlive:original.meta.attr.1.stream.creation_time.markup">2021-06-02T16:31:58.000000Z</property>
  <property name="kdenlive:original.meta.attr.1.stream.handler_name.markup">SoundHandler</property>
  <property name="kdenlive:original.meta.attr.major_brand.markup">isom</property>
  <property name="kdenlive:original.meta.attr.minor_version.markup">512</property>
  <property name="kdenlive:original.meta.attr.compatible_brands.markup">isomiso2avc1mp41</property>
  <property name="kdenlive:original.meta.attr.creation_time.markup">2021-06-02T16:31:58.000000Z</property>
  <property name="kdenlive:original.meta.attr.encoder.markup">Lavf58.45.100</property>
  <property name="kdenlive:original.seekable">1</property>
  <property name="kdenlive:original.width">3840</property>
  <property name="kdenlive:original.height">2160</property>
  <property name="kdenlive:original.meta.media.sample_aspect_num">1</property>
  <property name="kdenlive:original.meta.media.sample_aspect_den">1</property>
  <property name="kdenlive:original.aspect_ratio">1</property>
  <property name="kdenlive:original.audio_index">1</property>
  <property name="kdenlive:original.video_index">0</property>
  <property name="kdenlive:original.mute_on_pause">0</property>
  <property name="kdenlive:original.mlt_service">avformat-novalidate</property>
  <property name="kdenlive:original.kdenlive:folderid">103</property>
  <property name="kdenlive:original.meta.media.frame_rate_num">30000</property>
  <property name="kdenlive:original.meta.media.frame_rate_den">1001</property>
  <property name="kdenlive:original.meta.media.colorspace">709</property>
  <property name="kdenlive:original.meta.media.color_trc">1</property>
  <property name="kdenlive:original.meta.media.width">3840</property>
  <property name="kdenlive:original.meta.media.height">2160</property>
  <property name="kdenlive:original.meta.media.color_range">full</property>
  <property name="kdenlive:original.kdenlive:id">107</property>
  <property name="kdenlive:original.kdenlive:file_size">1922240803</property>
  <property name="kdenlive:original.kdenlive:file_hash">9a3c142e8aec82d5a730c7ac662aef65</property>
  <property name="kdenlive:original.kdenlive:audio_max">1</property>
  <property name="kdenlive:original.backup">1</property>
  <property name="global_feed">1</property>
  <property name="kdenlive:activeeffect">2</property>
  <property name="xml">was here</property>
  <property name="meta.media.nb_streams">2</property>
  <property name="meta.media.0.stream.type">video</property>
  <property name="meta.media.0.stream.frame_rate">29.97</property>
  <property name="meta.media.0.stream.sample_aspect_ratio">1</property>
  <property name="meta.media.0.codec.width">960</property>
  <property name="meta.media.0.codec.height">540</property>
  <property name="meta.media.0.codec.rotate">0</property>
  <property name="meta.media.0.codec.frame_rate">1000</property>
  <property name="meta.media.0.codec.pix_fmt">yuvj420p</property>
  <property name="meta.media.0.codec.sample_aspect_ratio">1</property>
  <property name="meta.media.0.codec.colorspace">601</property>
  <property name="meta.media.0.codec.name">mjpeg</property>
  <property name="meta.media.0.codec.long_name">MJPEG (Motion JPEG)</property>
  <property name="meta.media.0.codec.bit_rate">0</property>
  <property name="meta.attr.0.stream.HANDLER_NAME.markup">VideoHandler</property>
  <property name="meta.attr.0.stream.ENCODER.markup">Lavc58.91.100 mjpeg</property>
  <property name="meta.attr.0.stream.DURATION.markup">00:02:40.393000000</property>
  <property name="meta.media.1.stream.type">audio</property>
  <property name="meta.media.1.codec.sample_fmt">s16</property>
  <property name="meta.media.1.codec.sample_rate">48000</property>
  <property name="meta.media.1.codec.channels">2</property>
  <property name="meta.media.1.codec.name">pcm_s16le</property>
  <property name="meta.media.1.codec.long_name">PCM signed 16-bit little-endian</property>
  <property name="meta.media.1.codec.bit_rate">1536000</property>
  <property name="meta.attr.1.stream.HANDLER_NAME.markup">SoundHandler</property>
  <property name="meta.attr.1.stream.ENCODER.markup">Lavc58.91.100 pcm_s16le</property>
  <property name="meta.attr.1.stream.DURATION.markup">00:02:40.298000000</property>
  <property name="meta.attr.COMPATIBLE_BRANDS.markup">isomiso2avc1mp41</property>
  <property name="meta.attr.MAJOR_BRAND.markup">isom</property>
  <property name="meta.attr.MINOR_VERSION.markup">512</property>
  <property name="meta.attr.ENCODER.markup">Lavf58.45.100</property>
  <property name="meta.media.sample_aspect_num">1</property>
  <property name="meta.media.sample_aspect_den">1</property>
  <property name="meta.media.frame_rate_num">30000</property>
  <property name="meta.media.frame_rate_den">1001</property>
  <property name="meta.media.colorspace">601</property>
  <property name="meta.media.color_trc">2</property>
  <property name="meta.media.width">960</property>
  <property name="meta.media.height">540</property>
  <property name="meta.media.color_range">full</property>
  <property name="meta.media.top_field_first">0</property>
  <property name="meta.media.progressive">1</property>
  <property name="set.test_audio">1</property>
  <property name="set.test_image">0</property>
  <filter id="filter454">
   <property name="mode">alpha</property>
   <property name="alpha_operation">add</property>
   <property name="invert">0</property>
   <property name="feather">4</property>
   <property name="feather_passes">1</property>
   <property name="mlt_service">rotoscoping</property>
   <property name="kdenlive_id">rotoscoping</property>
   <property name="spline">{
    "0000": [
        [
            [
                0.9047629476027859,
                0.31235601489650394
            ],
            [
                0.895538628944505,
                0.2959381044487428
            ],
            [
                0.8343226960304588,
                0.29369929847859355
            ]
        ],
        [
            [
                0.6493552147421201,
                0.2972097924304975
            ],
            [
                0.588139281828074,
                0.2949709864603482
            ],
            [
                0.587719994616334,
                0.30392621034094525
            ]
        ],
        [
            [
                0.5863822904761579,
                0.3517797857905829
            ],
            [
                0.5859630032644179,
                0.3607350096711799
            ],
            [
                0.5930359085963004,
                0.372340425531915
            ]
        ],
        [
            [
                0.6028291621327531,
                0.40038684719535783
            ],
            [
                0.6099020674646355,
                0.41392649903288203
            ],
            [
                0.6761494469195621,
                0.4154190363463149
            ]
        ],
        [
            [
                0.8739049600445292,
                0.4114668437310546
            ],
            [
                0.9401523394994559,
                0.41295938104448743
            ],
            [
                0.9397330522877159,
                0.4069892317907561
            ]
        ],
        [
            [
                0.9427479052748521,
                0.39571869857674874
            ],
            [
                0.9423286180631121,
                0.38974854932301745
            ],
            [
                0.9331042994048312,
                0.37333063887525625
            ]
        ]
    ]
}
</property>
  </filter>
 </producer>
 <playlist id="playlist28">
  <blank length="00:01:37.400"/>
  <entry producer="producer197" in="00:01:32.500" out="00:01:38.167">
   <property name="kdenlive:id">72</property>
   <filter id="filter460">
    <property name="rotate_center">1</property>
    <property name="mlt_service">qtblend</property>
    <property name="kdenlive_id">qtblend</property>
    <property name="rect">00:01:32.500=-480 -270 2880 1620 1.000000</property>
    <property name="rotation">00:01:32.500=0</property>
    <property name="compositing">0</property>
    <property name="distort">0</property>
    <property name="kdenlive:collapsed">0</property>
   </filter>
   <filter id="filter382">
    <property name="lift_r">-0.324987</property>
    <property name="lift_g">-0.324987</property>
    <property name="lift_b">-0.324987</property>
    <property name="gamma_r">0.987503</property>
    <property name="gamma_g">0.987503</property>
    <property name="gamma_b">0.987503</property>
    <property name="gain_r">1.00002</property>
    <property name="gain_g">1.00002</property>
    <property name="gain_b">1.00002</property>
    <property name="mlt_service">lift_gamma_gain</property>
    <property name="kdenlive_id">lift_gamma_gain</property>
    <property name="kdenlive:collapsed">0</property>
    <property name="disable">0</property>
   </filter>
   <filter id="filter383">
    <property name="mlt_service">avfilter.gblur</property>
    <property name="kdenlive_id">avfilter.gblur</property>
    <property name="av.sigma">2</property>
    <property name="av.steps">1</property>
    <property name="av.planes">7</property>
    <property name="av.sigmaV">-1</property>
    <property name="kdenlive:collapsed">0</property>
   </filter>
   <filter id="filter404">
    <property name="version">0.1</property>
    <property name="mlt_service">frei0r.posterize</property>
    <property name="kdenlive_id">frei0r.posterize</property>
    <property name="0">0.05</property>
    <property name="kdenlive:collapsed">0</property>
   </filter>
   <filter id="filter405">
    <property name="version">0.1</property>
    <property name="mlt_service">frei0r.colorize</property>
    <property name="kdenlive_id">frei0r.colorize</property>
    <property name="hue">00:01:32.500=0.119444;00:01:33.500=0.119444;00:01:35.467=0.329337;00:01:37.300=0.525</property>
    <property name="saturation">00:01:32.500=0.255556;00:01:33.500=0.255556;00:01:35.467=0.353314;00:01:37.300=0.444444</property>
    <property name="lightness">00:01:32.500=0.325;00:01:33.500=0.325;00:01:35.467=0.547222;00:01:37.300=0.652778</property>
    <property name="kdenlive:collapsed">0</property>
   </filter>
   <filter id="filter406">
    <property name="version">0.1</property>
    <property name="mlt_service">frei0r.mask0mate</property>
    <property name="kdenlive_id">frei0r.mask0mate</property>
    <property name="Left">00:01:32.500=0;00:01:34.400=0.058</property>
    <property name="Right">00:01:32.500=0;00:01:34.400=0.057</property>
    <property name="Top">00:01:32.500=0;00:01:34.400=0</property>
    <property name="Bottom">00:01:32.500=0;00:01:34.400=0</property>
    <property name="Invert">1</property>
    <property name="Blur">00:01:32.500=0.104;00:01:34.400=0</property>
    <property name="kdenlive:collapsed">0</property>
   </filter>
  </entry>
  <blank length="00:00:03.367"/>
  <entry producer="producer198" in="00:00:22.200" out="00:00:22.933">
   <property name="kdenlive:id">78</property>
   <property name="kdenlive:activeeffect">4</property>
   <filter id="filter407">
    <property name="version">0.6</property>
    <property name="mlt_service">frei0r.select0r</property>
    <property name="kdenlive_id">frei0r.select0r</property>
    <property name="Color to select">0x2ba86dff</property>
    <property name="Invert selection">1</property>
    <property name="Selection subspace">1</property>
    <property name="Subspace shape">0</property>
    <property name="Edge mode">0.9</property>
    <property name="Delta R / A / Hue">00:00:22.200=0.053</property>
    <property name="Delta G / B / Chroma">00:00:22.200=0.28</property>
    <property name="Delta B / I / I">00:00:22.200=0.274</property>
    <property name="Slope">00:00:22.200=0.078</property>
    <property name="Operation">0.5</property>
    <property name="kdenlive:collapsed">0</property>
   </filter>
   <filter id="filter408">
    <property name="mlt_service">avfilter.despill</property>
    <property name="kdenlive_id">avfilter.despill</property>
    <property name="av.type">green</property>
    <property name="av.mix">0.096</property>
    <property name="av.expand">0.032</property>
    <property name="av.red">0</property>
    <property name="av.green">-0.7</property>
    <property name="av.blue">-0.6</property>
    <property name="av.brightness">0</property>
    <property name="kdenlive:collapsed">0</property>
   </filter>
   <filter id="filter409">
    <property name="mlt_service">avfilter.gblur</property>
    <property name="kdenlive_id">avfilter.gblur</property>
    <property name="av.sigma">2</property>
    <property name="av.steps">1</property>
    <property name="av.planes">7</property>
    <property name="av.sigmaV">-1</property>
    <property name="kdenlive:collapsed">0</property>
   </filter>
   <filter id="filter419">
    <property name="version">0.1</property>
    <property name="mlt_service">frei0r.posterize</property>
    <property name="kdenlive_id">frei0r.posterize</property>
    <property name="0">0.05</property>
    <property name="kdenlive:collapsed">0</property>
   </filter>
   <filter id="filter420">
    <property name="version">0.1</property>
    <property name="mlt_service">frei0r.colorize</property>
    <property name="kdenlive_id">frei0r.colorize</property>
    <property name="hue">00:00:22.200=0.075</property>
    <property name="saturation">00:00:22.200=0.266667</property>
    <property name="lightness">00:00:22.200=0.5</property>
    <property name="kdenlive:collapsed">0</property>
   </filter>
  </entry>
  <entry producer="producer198" in="00:00:26.433" out="00:00:27.300">
   <property name="kdenlive:id">78</property>
   <property name="kdenlive:activeeffect">4</property>
   <filter id="filter421">
    <property name="version">0.6</property>
    <property name="mlt_service">frei0r.select0r</property>
    <property name="kdenlive_id">frei0r.select0r</property>
    <property name="Color to select">0x126439ff</property>
    <property name="Invert selection">1</property>
    <property name="Selection subspace">1</property>
    <property name="Subspace shape">0</property>
    <property name="Edge mode">0.9</property>
    <property name="Delta R / A / Hue">00:00:26.433=0.083</property>
    <property name="Delta G / B / Chroma">00:00:26.433=0.156</property>
    <property name="Delta B / I / I">00:00:26.433=0.19</property>
    <property name="Slope">00:00:26.433=0.054</property>
    <property name="Operation">0.5</property>
    <property name="kdenlive:collapsed">0</property>
   </filter>
   <filter id="filter422">
    <property name="mlt_service">avfilter.despill</property>
    <property name="kdenlive_id">avfilter.despill</property>
    <property name="av.type">green</property>
    <property name="av.mix">0.054</property>
    <property name="av.expand">0.031</property>
    <property name="av.red">0</property>
    <property name="av.green">-0.7</property>
    <property name="av.blue">-0.6</property>
    <property name="av.brightness">0.32</property>
    <property name="kdenlive:collapsed">0</property>
   </filter>
   <filter id="filter423">
    <property name="mlt_service">avfilter.gblur</property>
    <property name="kdenlive_id">avfilter.gblur</property>
    <property name="av.sigma">2</property>
    <property name="av.steps">1</property>
    <property name="av.planes">7</property>
    <property name="av.sigmaV">-1</property>
    <property name="kdenlive:collapsed">0</property>
   </filter>
   <filter id="filter424">
    <property name="version">0.1</property>
    <property name="mlt_service">frei0r.posterize</property>
    <property name="kdenlive_id">frei0r.posterize</property>
    <property name="0">0.05</property>
    <property name="kdenlive:collapsed">0</property>
   </filter>
   <filter id="filter425">
    <property name="version">0.1</property>
    <property name="mlt_service">frei0r.colorize</property>
    <property name="kdenlive_id">frei0r.colorize</property>
    <property name="hue">00:00:26.433=1</property>
    <property name="saturation">00:00:26.433=0.369444</property>
    <property name="lightness">00:00:26.433=0.688889</property>
    <property name="kdenlive:collapsed">0</property>
   </filter>
  </entry>
  <entry producer="producer197" in="00:01:43.233" out="00:01:44.000">
   <property name="kdenlive:id">72</property>
   <filter id="filter426">
    <property name="rotate_center">1</property>
    <property name="mlt_service">qtblend</property>
    <property name="kdenlive_id">qtblend</property>
    <property name="rect">00:01:43.233=-393 -117 2688 1512 1.000000</property>
    <property name="rotation">00:01:43.233=0</property>
    <property name="compositing">0</property>
    <property name="distort">0</property>
    <property name="kdenlive:collapsed">0</property>
   </filter>
   <filter id="filter427">
    <property name="mode">alpha</property>
    <property name="alpha_operation">max</property>
    <property name="invert">0</property>
    <property name="feather">187</property>
    <property name="feather_passes">1</property>
    <property name="mlt_service">rotoscoping</property>
    <property name="kdenlive_id">rotoscoping</property>
    <property name="spline">{
    "3097": [
        [
            [
                -0.07190775681341718,
                0.29850746268656714
            ],
            [
                -0.04716981132075471,
                0.2425373134328358
            ],
            [
                -0.0069182389937106825,
                0.23507462686567163
            ]
        ],
        [
            [
                0.11383647798742139,
                0.21268656716417908
            ],
            [
                0.1540880503144654,
                0.2052238805970149
            ],
            [
                0.17463312368972747,
                0.2462686567164179
            ]
        ],
        [
            [
                0.23626834381551362,
                0.3694029850746269
            ],
            [
                0.25681341719077566,
                0.4104477611940298
            ],
            [
                0.27819706498951785,
                0.41567164179104477
            ]
        ],
        [
            [
                0.3423480083857442,
                0.4313432835820895
            ],
            [
                0.3637316561844864,
                0.43656716417910446
            ],
            [
                0.370440251572327,
                0.48134328358208955
            ]
        ],
        [
            [
                0.390566037735849,
                0.6156716417910448
            ],
            [
                0.3972746331236897,
                0.6604477611940299
            ],
            [
                0.4111111111111111,
                0.6716417910447762
            ]
        ],
        [
            [
                0.4526205450733753,
                0.7052238805970149
            ],
            [
                0.46645702306079667,
                0.7164179104477612
            ],
            [
                0.459329140461216,
                0.7895522388059701
            ]
        ],
        [
            [
                0.43794549266247373,
                1.008955223880597
            ],
            [
                0.43081761006289304,
                1.082089552238806
            ],
            [
                0.32599580712788256,
                1.119402985074627
            ]
        ],
        [
            [
                0.011530398322851142,
                1.2313432835820897
            ],
            [
                -0.09329140461215933,
                1.2686567164179106
            ],
            [
                -0.10880503144654088,
                1.119402985074627
            ]
        ],
        [
            [
                -0.15534591194968553,
                0.6716417910447762
            ],
            [
                -0.1708595387840671,
                0.5223880597014926
            ],
            [
                -0.1461215932914046,
                0.4664179104477612
            ]
        ]
    ]
}
</property>
    <property name="kdenlive:collapsed">0</property>
   </filter>
   <filter id="filter428">
    <property name="mlt_service">avfilter.gblur</property>
    <property name="kdenlive_id">avfilter.gblur</property>
    <property name="av.sigma">2</property>
    <property name="av.steps">1</property>
    <property name="av.planes">7</property>
    <property name="av.sigmaV">-1</property>
    <property name="kdenlive:collapsed">0</property>
   </filter>
   <filter id="filter443">
    <property name="version">0.1</property>
    <property name="mlt_service">frei0r.posterize</property>
    <property name="kdenlive_id">frei0r.posterize</property>
    <property name="0">0.05</property>
    <property name="kdenlive:collapsed">0</property>
   </filter>
   <filter id="filter444">
    <property name="version">0.1</property>
    <property name="mlt_service">frei0r.colorize</property>
    <property name="kdenlive_id">frei0r.colorize</property>
    <property name="hue">00:01:43.233=0.666667</property>
    <property name="saturation">00:01:43.233=0.4</property>
    <property name="lightness">00:01:43.233=0.383333</property>
    <property name="kdenlive:collapsed">0</property>
   </filter>
  </entry>
  <entry producer="producer199" in="00:01:39.367" out="00:01:40.167">
   <property name="kdenlive:id">80</property>
   <filter id="filter445">
    <property name="rotate_center">1</property>
    <property name="mlt_service">qtblend</property>
    <property name="kdenlive_id">qtblend</property>
    <property name="rect">00:01:39.367=-205 -250 2496 1404 1.000000</property>
    <property name="rotation">00:01:39.367=0</property>
    <property name="compositing">0</property>
    <property name="distort">0</property>
    <property name="kdenlive:collapsed">0</property>
   </filter>
   <filter id="filter446">
    <property name="mlt_service">avfilter.gblur</property>
    <property name="kdenlive_id">avfilter.gblur</property>
    <property name="av.sigma">2</property>
    <property name="av.steps">1</property>
    <property name="av.planes">7</property>
    <property name="av.sigmaV">-1</property>
    <property name="kdenlive:collapsed">0</property>
   </filter>
   <filter id="filter447">
    <property name="version">0.1</property>
    <property name="mlt_service">frei0r.posterize</property>
    <property name="kdenlive_id">frei0r.posterize</property>
    <property name="0">0.05</property>
    <property name="kdenlive:collapsed">0</property>
   </filter>
   <filter id="filter448">
    <property name="version">0.1</property>
    <property name="mlt_service">frei0r.colorize</property>
    <property name="kdenlive_id">frei0r.colorize</property>
    <property name="hue">00:01:39.367=0.155556</property>
    <property name="saturation">00:01:39.367=0.963889</property>
    <property name="lightness">00:01:39.367=0.588889</property>
    <property name="kdenlive:collapsed">0</property>
   </filter>
  </entry>
  <entry producer="producer197" in="00:01:44.867" out="00:01:47.167">
   <property name="kdenlive:id">72</property>
   <filter id="filter463">
    <property name="version">0.1</property>
    <property name="mlt_service">frei0r.mask0mate</property>
    <property name="kdenlive_id">frei0r.mask0mate</property>
    <property name="Left">00:01:44.867=0</property>
    <property name="Right">00:01:44.867=0.199</property>
    <property name="Top">00:01:44.867=0</property>
    <property name="Bottom">00:01:44.867=0</property>
    <property name="Invert">1</property>
    <property name="Blur">00:01:44.867=0.101</property>
    <property name="kdenlive:collapsed">0</property>
   </filter>
   <filter id="filter464">
    <property name="rotate_center">1</property>
    <property name="mlt_service">qtblend</property>
    <property name="kdenlive_id">qtblend</property>
    <property name="rect">00:01:44.867=-709 5 1920 1080 1.000000</property>
    <property name="rotation">00:01:44.867=0</property>
    <property name="compositing">0</property>
    <property name="distort">0</property>
    <property name="kdenlive:collapsed">0</property>
   </filter>
   <filter id="filter449">
    <property name="mlt_service">avfilter.gblur</property>
    <property name="kdenlive_id">avfilter.gblur</property>
    <property name="av.sigma">2</property>
    <property name="av.steps">1</property>
    <property name="av.planes">7</property>
    <property name="av.sigmaV">-1</property>
    <property name="kdenlive:collapsed">0</property>
   </filter>
   <filter id="filter450">
    <property name="version">0.1</property>
    <property name="mlt_service">frei0r.posterize</property>
    <property name="kdenlive_id">frei0r.posterize</property>
    <property name="0">0.05</property>
    <property name="kdenlive:collapsed">0</property>
   </filter>
   <filter id="filter451">
    <property name="version">0.1</property>
    <property name="mlt_service">frei0r.colorize</property>
    <property name="kdenlive_id">frei0r.colorize</property>
    <property name="hue">00:01:44.867=0.666667</property>
    <property name="saturation">00:01:44.867=0.4</property>
    <property name="lightness">00:01:44.867=0.45</property>
    <property name="kdenlive:collapsed">0</property>
   </filter>
   <filter id="filter452" in="00:01:46.700" out="00:01:47.167">
    <property name="start">1</property>
    <property name="mlt_service">brightness</property>
    <property name="kdenlive_id">fade_to_black</property>
    <property name="end">0</property>
    <property name="alpha">-1</property>
    <property name="kdenlive:collapsed">0</property>
   </filter>
  </entry>
  <blank length="00:00:01.167"/>
  <entry producer="producer200" in="00:01:48.367" out="00:02:33.900">
   <property name="kdenlive:id">72</property>
  </entry>
  <entry producer="producer200" in="00:02:33.933" out="00:02:48.567">
   <property name="kdenlive:id">72</property>
  </entry>
  <entry producer="producer197" in="00:02:48.600" out="00:02:57.433">
   <property name="kdenlive:id">72</property>
   <filter id="filter465">
    <property name="rotate_center">1</property>
    <property name="mlt_service">qtblend</property>
    <property name="kdenlive_id">qtblend</property>
    <property name="rect">00:02:48.600=-661 1 1920 1080 1.000000</property>
    <property name="rotation">00:02:48.600=0</property>
    <property name="compositing">0</property>
    <property name="distort">0</property>
    <property name="kdenlive:collapsed">0</property>
    <property name="disable">0</property>
   </filter>
   <filter id="filter466">
    <property name="mlt_service">avfilter.gblur</property>
    <property name="kdenlive_id">avfilter.gblur</property>
    <property name="av.sigma">2</property>
    <property name="av.steps">1</property>
    <property name="av.planes">7</property>
    <property name="av.sigmaV">-1</property>
    <property name="kdenlive:collapsed">0</property>
   </filter>
   <filter id="filter467">
    <property name="version">2.2</property>
    <property name="mlt_service">frei0r.cartoon</property>
    <property name="kdenlive_id">frei0r.cartoon</property>
    <property name="triplevel">00:02:48.600=0.999</property>
    <property name="diffspace">00:02:48.600=0.00390625</property>
    <property name="kdenlive:collapsed">0</property>
   </filter>
   <filter id="filter468">
    <property name="mode">alpha</property>
    <property name="alpha_operation">min</property>
    <property name="invert">0</property>
    <property name="feather">37</property>
    <property name="feather_passes">2</property>
    <property name="mlt_service">rotoscoping</property>
    <property name="kdenlive_id">rotoscoping</property>
    <property name="spline">{
    "5058": [
        [
            [
                0.06834381551362649,
                1.126865671641791
            ],
            [
                -0.023060796645702698,
                1.1343283582089552
            ],
            [
                -0.0339622641509437,
                1.073880597014926
            ]
        ],
        [
            [
                -0.06666666666666703,
                0.8925373134328369
            ],
            [
                -0.07756813417190804,
                0.832089552238807
            ],
            [
                -0.04276729559748453,
                0.7432835820895531
            ]
        ],
        [
            [
                0.11090146750524119,
                0.5253731343283586
            ],
            [
                0.14570230607966458,
                0.43656716417910446
            ],
            [
                0.169811320754717,
                0.15485074626865672
            ]
        ],
        [
            [
                0.172955974842767,
                0.09888059701492538
            ],
            [
                0.259958071278826,
                0.041044776119402986
            ],
            [
                0.33542976939203356,
                0.041044776119402986
            ]
        ],
        [
            [
                0.3427672955974843,
                0.06716417910447764
            ],
            [
                0.37631027253668764,
                0.1455223880597015
            ],
            [
                0.3920335429769392,
                0.3582089552238806
            ]
        ],
        [
            [
                0.4779874213836478,
                0.36007462686567165
            ],
            [
                0.47379454926624737,
                0.6567164179104478
            ],
            [
                0.47064989517819705,
                0.791044776119403
            ]
        ],
        [
            [
                0.4532494758909849,
                1.0029850746268671
            ],
            [
                0.43396226415094313,
                1.0970149253731347
            ],
            [
                0.3425576519916138,
                1.1044776119402995
            ]
        ]
    ],
    "5121": [
        [
            [
                0.06834381551362649,
                1.126865671641791
            ],
            [
                -0.023060796645702698,
                1.1343283582089552
            ],
            [
                -0.0339622641509437,
                1.073880597014926
            ]
        ],
        [
            [
                -0.06666666666666703,
                0.8925373134328369
            ],
            [
                -0.07756813417190804,
                0.832089552238807
            ],
            [
                -0.04276729559748453,
                0.7432835820895531
            ]
        ],
        [
            [
                0.11090146750524119,
                0.5253731343283586
            ],
            [
                0.14570230607966458,
                0.43656716417910446
            ],
            [
                0.169811320754717,
                0.15485074626865672
            ]
        ],
        [
            [
                0.172955974842767,
                0.09888059701492538
            ],
            [
                0.259958071278826,
                0.041044776119402986
            ],
            [
                0.33542976939203356,
                0.041044776119402986
            ]
        ],
        [
            [
                0.339622641509434,
                0.07649253731343285
            ],
            [
                0.3731656184486373,
                0.15485074626865672
            ],
            [
                0.3888888888888889,
                0.3675373134328358
            ]
        ],
        [
            [
                0.4779874213836478,
                0.36007462686567165
            ],
            [
                0.47379454926624737,
                0.6567164179104478
            ],
            [
                0.47064989517819705,
                0.791044776119403
            ]
        ],
        [
            [
                0.4532494758909849,
                1.0029850746268671
            ],
            [
                0.43396226415094313,
                1.0970149253731347
            ],
            [
                0.3425576519916138,
                1.1044776119402995
            ]
        ]
    ],
    "5239": [
        [
            [
                0.06834381551362649,
                1.126865671641791
            ],
            [
                -0.023060796645702698,
                1.1343283582089552
            ],
            [
                -0.0339622641509437,
                1.073880597014926
            ]
        ],
        [
            [
                -0.06666666666666703,
                0.8925373134328369
            ],
            [
                -0.07756813417190804,
                0.832089552238807
            ],
            [
                -0.04276729559748453,
                0.7432835820895531
            ]
        ],
        [
            [
                0.11090146750524119,
                0.5253731343283586
            ],
            [
                0.14570230607966458,
                0.43656716417910446
            ],
            [
                0.17143881716870793,
                0.16788589945011784
            ]
        ],
        [
            [
                0.17569576164964,
                0.1247433467582721
            ],
            [
                0.25157232704402516,
                0.04477611940298507
            ],
            [
                0.32704402515723285,
                0.04477611940298507
            ]
        ],
        [
            [
                0.3469601677148847,
                0.06902985074626863
            ],
            [
                0.380503144654088,
                0.14738805970149252
            ],
            [
                0.3962264150943396,
                0.3600746268656714
            ]
        ],
        [
            [
                0.48387740840571036,
                0.3449320856037274
            ],
            [
                0.47968453628830987,
                0.6415738766485036
            ],
            [
                0.47653988220025956,
                0.7759022348574588
            ]
        ],
        [
            [
                0.4532494758909849,
                1.0029850746268671
            ],
            [
                0.43396226415094313,
                1.0970149253731347
            ],
            [
                0.3425576519916138,
                1.1044776119402995
            ]
        ]
    ],
    "5249": [
        [
            [
                0.06834381551362649,
                1.126865671641791
            ],
            [
                -0.023060796645702698,
                1.1343283582089552
            ],
            [
                -0.0339622641509437,
                1.073880597014926
            ]
        ],
        [
            [
                -0.06666666666666703,
                0.8925373134328369
            ],
            [
                -0.07756813417190804,
                0.832089552238807
            ],
            [
                -0.04276729559748453,
                0.7432835820895531
            ]
        ],
        [
            [
                0.11090146750524119,
                0.5253731343283586
            ],
            [
                0.14570230607966458,
                0.43656716417910446
            ],
            [
                0.1715767405936224,
                0.16899057344854673
            ]
        ],
        [
            [
                0.16965048306767375,
                0.13007383716338938
            ],
            [
                0.2445842068483578,
                0.04823106688778331
            ],
            [
                0.32005590496156544,
                0.04823106688778331
            ]
        ],
        [
            [
                0.3354297693920335,
                0.07276119402985072
            ],
            [
                0.3689727463312369,
                0.15111940298507462
            ],
            [
                0.3846960167714884,
                0.36380597014925353
            ]
        ],
        [
            [
                0.484376559848258,
                0.34364881939508807
            ],
            [
                0.48018368773085757,
                0.6402906104398642
            ],
            [
                0.47703903364280725,
                0.7746189686488194
            ]
        ],
        [
            [
                0.4532494758909849,
                1.0029850746268671
            ],
            [
                0.43396226415094313,
                1.0970149253731347
            ],
            [
                0.3425576519916138,
                1.1044776119402995
            ]
        ]
    ],
    "5258": [
        [
            [
                0.06834381551362649,
                1.126865671641791
            ],
            [
                -0.023060796645702698,
                1.1343283582089552
            ],
            [
                -0.0339622641509437,
                1.073880597014926
            ]
        ],
        [
            [
                -0.06666666666666703,
                0.8925373134328369
            ],
            [
                -0.07756813417190804,
                0.832089552238807
            ],
            [
                -0.04276729559748453,
                0.7432835820895531
            ]
        ],
        [
            [
                0.11090146750524119,
                0.5253731343283586
            ],
            [
                0.14570230607966458,
                0.43656716417910446
            ],
            [
                0.17170087167604545,
                0.16998478004713274
            ]
        ],
        [
            [
                0.1701496345102214,
                0.13390389323225144
            ],
            [
                0.24423480083857443,
                0.050373134328358216
            ],
            [
                0.3197064989517821,
                0.050373134328358216
            ]
        ],
        [
            [
                0.330188679245283,
                0.05970149253731339
            ],
            [
                0.3637316561844864,
                0.13805970149253732
            ],
            [
                0.3794549266247379,
                0.35074626865671604
            ]
        ],
        [
            [
                0.48482579614655097,
                0.34249387980731266
            ],
            [
                0.48063292402915053,
                0.6391356708520889
            ],
            [
                0.47748826994110016,
                0.7734640290610441
            ]
        ],
        [
            [
                0.4532494758909849,
                1.0029850746268671
            ],
            [
                0.43396226415094313,
                1.0970149253731347
            ],
            [
                0.3425576519916138,
                1.1044776119402995
            ]
        ]
    ],
    "5266": [
        [
            [
                0.06834381551362649,
                1.126865671641791
            ],
            [
                -0.023060796645702698,
                1.1343283582089552
            ],
            [
                -0.0339622641509437,
                1.073880597014926
            ]
        ],
        [
            [
                -0.06666666666666703,
                0.8925373134328369
            ],
            [
                -0.07756813417190804,
                0.832089552238807
            ],
            [
                -0.04276729559748453,
                0.7432835820895531
            ]
        ],
        [
            [
                0.11090146750524119,
                0.5253731343283586
            ],
            [
                0.14570230607966458,
                0.43656716417910446
            ],
            [
                0.17181121041597705,
                0.17086851924587587
            ]
        ],
        [
            [
                0.15937350947833112,
                0.13913567085208878
            ],
            [
                0.23270440251572327,
                0.0541044776119403
            ],
            [
                0.30817610062893086,
                0.0541044776119403
            ]
        ],
        [
            [
                0.3238993710691824,
                0.07462686567164176
            ],
            [
                0.3574423480083857,
                0.15298507462686567
            ],
            [
                0.37316561844863727,
                0.3656716417910446
            ]
        ],
        [
            [
                0.4852251173005891,
                0.3414672668404012
            ],
            [
                0.4810322451831886,
                0.6381090578851774
            ],
            [
                0.4778875910951383,
                0.7724374160941325
            ]
        ],
        [
            [
                0.4532494758909849,
                1.0029850746268671
            ],
            [
                0.43396226415094313,
                1.0970149253731347
            ],
            [
                0.3425576519916138,
                1.1044776119402995
            ]
        ]
    ],
    "5273": [
        [
            [
                0.06834381551362649,
                1.126865671641791
            ],
            [
                -0.023060796645702698,
                1.1343283582089552
            ],
            [
                -0.0339622641509437,
                1.073880597014926
            ]
        ],
        [
            [
                -0.06666666666666703,
                0.8925373134328369
            ],
            [
                -0.07756813417190804,
                0.832089552238807
            ],
            [
                -0.04276729559748453,
                0.7432835820895531
            ]
        ],
        [
            [
                0.11090146750524119,
                0.5253731343283586
            ],
            [
                0.14570230607966458,
                0.43656716417910446
            ],
            [
                0.1719077568134172,
                0.17164179104477612
            ]
        ],
        [
            [
                0.16212993466662212,
                0.1516425807470584
            ],
            [
                0.2348008385744235,
                0.06529850746268658
            ],
            [
                0.31027253668763116,
                0.06529850746268658
            ]
        ],
        [
            [
                0.3270440251572327,
                0.07276119402985072
            ],
            [
                0.360587002096436,
                0.15111940298507462
            ],
            [
                0.3763102725366876,
                0.36380597014925364
            ]
        ],
        [
            [
                0.48557452331037243,
                0.34056898049435363
            ],
            [
                0.481381651192972,
                0.6372107715391299
            ],
            [
                0.4782369971049217,
                0.771539129748085
            ]
        ],
        [
            [
                0.4532494758909849,
                1.0029850746268671
            ],
            [
                0.43396226415094313,
                1.0970149253731347
            ],
            [
                0.3425576519916138,
                1.1044776119402995
            ]
        ]
    ],
    "5292": [
        [
            [
                0.06834381551362649,
                1.126865671641791
            ],
            [
                -0.023060796645702698,
                1.1343283582089552
            ],
            [
                -0.0339622641509437,
                1.073880597014926
            ]
        ],
        [
            [
                -0.06666666666666703,
                0.8925373134328369
            ],
            [
                -0.07756813417190804,
                0.832089552238807
            ],
            [
                -0.04276729559748453,
                0.7432835820895531
            ]
        ],
        [
            [
                0.11090146750524119,
                0.5253731343283586
            ],
            [
                0.14570230607966458,
                0.43656716417910446
            ],
            [
                0.19290044761742875,
                0.1879286002420331
            ]
        ],
        [
            [
                0.22576619746431062,
                0.09923596304193322
            ],
            [
                0.2966457023060797,
                0.009328358208955223
            ],
            [
                0.37211740041928737,
                0.009328358208955223
            ]
        ],
        [
            [
                0.3951781970649895,
                0.02425373134328364
            ],
            [
                0.42872117400419285,
                0.10261194029850745
            ],
            [
                0.4444444444444444,
                0.31529850746268656
            ]
        ],
        [
            [
                0.486522911051213,
                0.3381307746979389
            ],
            [
                0.48233003893381254,
                0.634772565742715
            ],
            [
                0.47918538484576223,
                0.7691009239516703
            ]
        ],
        [
            [
                0.4532494758909849,
                1.0029850746268671
            ],
            [
                0.43396226415094313,
                1.0970149253731347
            ],
            [
                0.3425576519916138,
                1.1044776119402995
            ]
        ]
    ],
    "5304": [
        [
            [
                0.06834381551362649,
                1.126865671641791
            ],
            [
                -0.023060796645702698,
                1.1343283582089552
            ],
            [
                -0.0339622641509437,
                1.073880597014926
            ]
        ],
        [
            [
                -0.06666666666666703,
                0.8925373134328369
            ],
            [
                -0.07756813417190804,
                0.832089552238807
            ],
            [
                -0.04276729559748453,
                0.7432835820895531
            ]
        ],
        [
            [
                0.11090146750524119,
                0.5253731343283586
            ],
            [
                0.14570230607966458,
                0.43656716417910446
            ],
            [
                0.2061589891778571,
                0.19821500605082698
            ]
        ],
        [
            [
                0.21711423912681774,
                0.10397417673537077
            ],
            [
                0.28686233403214534,
                0.01181592039800995
            ],
            [
                0.362334032145353,
                0.01181592039800995
            ]
        ],
        [
            [
                0.4025157232704402,
                0.02052238805970156
            ],
            [
                0.43605870020964355,
                0.09888059701492538
            ],
            [
                0.4517819706498951,
                0.3115671641791043
            ]
        ],
        [
            [
                0.4871218927822702,
                0.33659085524757165
            ],
            [
                0.4829290206648697,
                0.6332326462923478
            ],
            [
                0.4797843665768194,
                0.767561004501303
            ]
        ],
        [
            [
                0.4532494758909849,
                1.0029850746268671
            ],
            [
                0.43396226415094313,
                1.0970149253731347
            ],
            [
                0.3425576519916138,
                1.1044776119402995
            ]
        ]
    ],
    "5310": [
        [
            [
                0.06834381551362649,
                1.126865671641791
            ],
            [
                -0.023060796645702698,
                1.1343283582089552
            ],
            [
                -0.0339622641509437,
                1.073880597014926
            ]
        ],
        [
            [
                -0.06666666666666703,
                0.8925373134328369
            ],
            [
                -0.07756813417190804,
                0.832089552238807
            ],
            [
                -0.04276729559748453,
                0.7432835820895531
            ]
        ],
        [
            [
                0.11090146750524119,
                0.5253731343283586
            ],
            [
                0.14570230607966458,
                0.43656716417910446
            ],
            [
                0.21278825995807127,
                0.20335820895522388
            ]
        ],
        [
            [
                0.21278825995807127,
                0.10634328358208955
            ],
            [
                0.28197064989517817,
                0.013059701492537313
            ],
            [
                0.3574423480083858,
                0.013059701492537313
            ]
        ],
        [
            [
                0.3731656184486373,
                0.0373134328358209
            ],
            [
                0.40670859538784065,
                0.11567164179104478
            ],
            [
                0.4224318658280922,
                0.32835820895522383
            ]
        ],
        [
            [
                0.4874213836477988,
                0.3358208955223881
            ],
            [
                0.4832285115303983,
                0.6324626865671642
            ],
            [
                0.480083857442348,
                0.7667910447761195
            ]
        ],
        [
            [
                0.4532494758909849,
                1.0029850746268671
            ],
            [
                0.43396226415094313,
                1.0970149253731347
            ],
            [
                0.3425576519916138,
                1.1044776119402995
            ]
        ]
    ],
    "5317": [
        [
            [
                0.06834381551362649,
                1.126865671641791
            ],
            [
                -0.023060796645702698,
                1.1343283582089552
            ],
            [
                -0.0339622641509437,
                1.073880597014926
            ]
        ],
        [
            [
                -0.06666666666666703,
                0.8925373134328369
            ],
            [
                -0.07756813417190804,
                0.832089552238807
            ],
            [
                -0.04276729559748453,
                0.7432835820895531
            ]
        ],
        [
            [
                0.11090146750524119,
                0.5253731343283586
            ],
            [
                0.14570230607966458,
                0.43656716417910446
            ],
            [
                0.1896468311562651,
                0.17723880597014927
            ]
        ],
        [
            [
                0.1748911465892595,
                0.10591274397244548
            ],
            [
                0.25366876310272535,
                0.03171641791044776
            ],
            [
                0.32914046121593293,
                0.03171641791044776
            ]
        ],
        [
            [
                0.3480083857442348,
                0.05970149253731332
            ],
            [
                0.38155136268343814,
                0.13805970149253732
            ],
            [
                0.3972746331236897,
                0.3507462686567163
            ]
        ],
        [
            [
                0.48234155781325594,
                0.34888059701492535
            ],
            [
                0.4781486856958555,
                0.6455223880597015
            ],
            [
                0.4750040316078052,
                0.7798507462686568
            ]
        ],
        [
            [
                0.4532494758909849,
                1.0029850746268671
            ],
            [
                0.43396226415094313,
                1.0970149253731347
            ],
            [
                0.3425576519916138,
                1.1044776119402995
            ]
        ]
    ],
    "5323": [
        [
            [
                0.06834381551362649,
                1.126865671641791
            ],
            [
                -0.023060796645702698,
                1.1343283582089552
            ],
            [
                -0.0339622641509437,
                1.073880597014926
            ]
        ],
        [
            [
                -0.06666666666666703,
                0.8925373134328369
            ],
            [
                -0.07756813417190804,
                0.832089552238807
            ],
            [
                -0.04276729559748453,
                0.7432835820895531
            ]
        ],
        [
            [
                0.11090146750524119,
                0.5253731343283586
            ],
            [
                0.14570230607966458,
                0.43656716417910446
            ],
            [
                0.169811320754717,
                0.15485074626865672
            ]
        ],
        [
            [
                0.172955974842767,
                0.09888059701492538
            ],
            [
                0.259958071278826,
                0.041044776119402986
            ],
            [
                0.33542976939203356,
                0.041044776119402986
            ]
        ],
        [
            [
                0.339622641509434,
                0.07649253731343285
            ],
            [
                0.3731656184486373,
                0.15485074626865672
            ],
            [
                0.3888888888888889,
                0.3675373134328358
            ]
        ],
        [
            [
                0.4779874213836478,
                0.36007462686567165
            ],
            [
                0.47379454926624737,
                0.6567164179104478
            ],
            [
                0.47064989517819705,
                0.791044776119403
            ]
        ],
        [
            [
                0.4532494758909849,
                1.0029850746268671
            ],
            [
                0.43396226415094313,
                1.0970149253731347
            ],
            [
                0.3425576519916138,
                1.1044776119402995
            ]
        ]
    ]
}
</property>
    <property name="kdenlive:collapsed">0</property>
   </filter>
  </entry>
  <entry producer="producer200" in="00:02:57.467" out="00:03:53.467">
   <property name="kdenlive:id">72</property>
  </entry>
  <blank length="00:00:06.033"/>
  <entry producer="producer196" in="00:00:01.167" out="00:00:01.867">
   <property name="kdenlive:id">73</property>
   <filter id="filter469">
    <property name="rotate_center">1</property>
    <property name="mlt_service">qtblend</property>
    <property name="kdenlive_id">qtblend</property>
    <property name="rect">00:00:01.167=-1624 -1128 4800 2700 1.000000</property>
    <property name="rotation">00:00:01.167=0</property>
    <property name="compositing">0</property>
    <property name="distort">0</property>
    <property name="kdenlive:collapsed">0</property>
   </filter>
   <filter id="filter470" in="00:00:01.167" out="00:00:01.333">
    <property name="start">0</property>
    <property name="mlt_service">brightness</property>
    <property name="kdenlive_id">fade_from_black</property>
    <property name="end">1</property>
    <property name="alpha">-1</property>
    <property name="kdenlive:collapsed">0</property>
   </filter>
  </entry>
  <blank length="00:00:03.267"/>
  <entry producer="producer196" in="00:00:05.167" out="00:00:06.533">
   <property name="kdenlive:id">73</property>
   <filter id="filter471">
    <property name="rotate_center">1</property>
    <property name="mlt_service">qtblend</property>
    <property name="kdenlive_id">qtblend</property>
    <property name="rect">00:00:05.167=-324 -355 3072 1728 1.000000</property>
    <property name="rotation">00:00:05.167=0</property>
    <property name="compositing">0</property>
    <property name="distort">0</property>
    <property name="kdenlive:collapsed">0</property>
   </filter>
   <filter id="filter472" in="00:00:05.167" out="00:00:05.367">
    <property name="start">0</property>
    <property name="mlt_service">brightness</property>
    <property name="kdenlive_id">fade_from_black</property>
    <property name="end">1</property>
    <property name="alpha">-1</property>
    <property name="kdenlive:collapsed">0</property>
   </filter>
   <filter id="filter473">
    <property name="mode">alpha</property>
    <property name="alpha_operation">sub</property>
    <property name="invert">0</property>
    <property name="feather">74</property>
    <property name="feather_passes">2</property>
    <property name="mlt_service">rotoscoping</property>
    <property name="kdenlive_id">rotoscoping</property>
    <property name="spline">{
    "155": [
        [
            [
                0.8530398322851153,
                -0.1537313432835821
            ],
            [
                0.879454926624738,
                -0.10074626865671643
            ],
            [
                0.8932914046121593,
                0
            ]
        ],
        [
            [
                0.8944603265357981,
                0.2513568521031207
            ],
            [
                0.9486373165618448,
                0.4029850746268657
            ],
            [
                0.9452830188679244,
                0.4298507462686567
            ]
        ],
        [
            [
                0.9352201257861634,
                0.5104477611940298
            ],
            [
                0.9318658280922432,
                0.5373134328358209
            ],
            [
                0.9117400419287212,
                0.5544776119402985
            ]
        ],
        [
            [
                0.8513626834381551,
                0.6059701492537313
            ],
            [
                0.8312368972746331,
                0.6231343283582089
            ],
            [
                0.8165618448637316,
                0.6246268656716417
            ]
        ],
        [
            [
                0.7725366876310271,
                0.6291044776119403
            ],
            [
                0.7578616352201257,
                0.6305970149253731
            ],
            [
                0.7553459119496855,
                0.6126865671641791
            ]
        ],
        [
            [
                0.7477987421383647,
                0.558955223880597
            ],
            [
                0.7452830188679245,
                0.541044776119403
            ],
            [
                0.7171907756813417,
                0.5291044776119403
            ]
        ],
        [
            [
                0.6329140461215932,
                0.49328358208955225
            ],
            [
                0.6048218029350104,
                0.48134328358208955
            ],
            [
                0.5666666666666667,
                0.5992537313432836
            ]
        ],
        [
            [
                0.4522012578616352,
                0.9529850746268658
            ],
            [
                0.4140461215932914,
                1.0708955223880599
            ],
            [
                0.40146750524109015,
                1.1171641791044777
            ]
        ],
        [
            [
                0.3637316561844864,
                1.2559701492537314
            ],
            [
                0.35115303983228513,
                1.3022388059701493
            ],
            [
                0.2429769392033543,
                1.3
            ]
        ],
        [
            [
                -0.08155136268343817,
                1.2932835820895523
            ],
            [
                -0.18972746331236898,
                1.291044776119403
            ],
            [
                -0.22536687631027255,
                1.0664179104477614
            ]
        ],
        [
            [
                -0.33228511530398325,
                0.3925373134328358
            ],
            [
                -0.3679245283018868,
                0.16791044776119404
            ],
            [
                -0.3259958071278826,
                0.05746268656716418
            ]
        ],
        [
            [
                -0.20020964360587,
                -0.2738805970149254
            ],
            [
                -0.15828092243186584,
                -0.3843283582089552
            ],
            [
                0.022851153039832303,
                -0.3805970149253731
            ]
        ],
        [
            [
                0.5662473794549266,
                -0.3694029850746269
            ],
            [
                0.7473794549266247,
                -0.3656716417910448
            ],
            [
                0.7737945492662474,
                -0.3126865671641791
            ]
        ]
    ],
    "166": [
        [
            [
                0.8530398322851153,
                -0.1537313432835821
            ],
            [
                0.879454926624738,
                -0.10074626865671643
            ],
            [
                0.8932914046121593,
                0
            ]
        ],
        [
            [
                0.8815513626834381,
                0.23507462686567163
            ],
            [
                0.9486373165618448,
                0.4029850746268657
            ],
            [
                0.9452830188679244,
                0.4298507462686567
            ]
        ],
        [
            [
                0.9352201257861634,
                0.5104477611940298
            ],
            [
                0.9318658280922432,
                0.5373134328358209
            ],
            [
                0.9117400419287212,
                0.5544776119402985
            ]
        ],
        [
            [
                0.8513626834381551,
                0.6059701492537313
            ],
            [
                0.8312368972746331,
                0.6231343283582089
            ],
            [
                0.8165618448637316,
                0.6246268656716417
            ]
        ],
        [
            [
                0.7725366876310271,
                0.6291044776119403
            ],
            [
                0.7578616352201257,
                0.6305970149253731
            ],
            [
                0.7553459119496855,
                0.6126865671641791
            ]
        ],
        [
            [
                0.7477987421383647,
                0.558955223880597
            ],
            [
                0.7452830188679245,
                0.541044776119403
            ],
            [
                0.7171907756813417,
                0.5291044776119403
            ]
        ],
        [
            [
                0.6329140461215932,
                0.49328358208955225
            ],
            [
                0.6048218029350104,
                0.48134328358208955
            ],
            [
                0.5666666666666667,
                0.5992537313432836
            ]
        ],
        [
            [
                0.4522012578616352,
                0.9529850746268658
            ],
            [
                0.4140461215932914,
                1.0708955223880599
            ],
            [
                0.40146750524109015,
                1.1171641791044777
            ]
        ],
        [
            [
                0.3637316561844864,
                1.2559701492537314
            ],
            [
                0.35115303983228513,
                1.3022388059701493
            ],
            [
                0.2429769392033543,
                1.3
            ]
        ],
        [
            [
                -0.08155136268343817,
                1.2932835820895523
            ],
            [
                -0.18972746331236898,
                1.291044776119403
            ],
            [
                -0.22536687631027255,
                1.0664179104477614
            ]
        ],
        [
            [
                -0.33228511530398325,
                0.3925373134328358
            ],
            [
                -0.3679245283018868,
                0.16791044776119404
            ],
            [
                -0.3259958071278826,
                0.05746268656716418
            ]
        ],
        [
            [
                -0.20020964360587,
                -0.2738805970149254
            ],
            [
                -0.15828092243186584,
                -0.3843283582089552
            ],
            [
                0.022851153039832303,
                -0.3805970149253731
            ]
        ],
        [
            [
                0.5662473794549266,
                -0.3694029850746269
            ],
            [
                0.7473794549266247,
                -0.3656716417910448
            ],
            [
                0.7737945492662474,
                -0.3126865671641791
            ]
        ]
    ]
}
</property>
    <property name="kdenlive:collapsed">0</property>
   </filter>
   <filter id="filter474" in="00:00:05.967" out="00:00:06.533">
    <property name="start">1</property>
    <property name="mlt_service">brightness</property>
    <property name="kdenlive_id">fade_to_black</property>
    <property name="end">0</property>
    <property name="alpha">-1</property>
   </filter>
  </entry>
  <blank length="00:00:02.200"/>
  <entry producer="producer196" in="00:00:08.767" out="00:00:14.700">
   <property name="kdenlive:id">73</property>
   <filter id="filter475">
    <property name="rotate_center">1</property>
    <property name="mlt_service">qtblend</property>
    <property name="kdenlive_id">qtblend</property>
    <property name="rect">00:00:08.767=-324 -355 3072 1728 1.000000</property>
    <property name="rotation">00:00:08.767=0</property>
    <property name="compositing">0</property>
    <property name="distort">0</property>
    <property name="kdenlive:collapsed">0</property>
   </filter>
   <filter id="filter476" in="00:00:13.867" out="00:00:14.700">
    <property name="start">1</property>
    <property name="mlt_service">brightness</property>
    <property name="kdenlive_id">fade_to_black</property>
    <property name="end">0</property>
    <property name="alpha">-1</property>
    <property name="kdenlive:collapsed">0</property>
   </filter>
   <filter id="filter477">
    <property name="mode">alpha</property>
    <property name="alpha_operation">sub</property>
    <property name="invert">0</property>
    <property name="feather">74</property>
    <property name="feather_passes">2</property>
    <property name="mlt_service">rotoscoping</property>
    <property name="kdenlive_id">rotoscoping</property>
    <property name="spline">{
    "263": [
        [
            [
                0.8530398322851153,
                -0.1537313432835821
            ],
            [
                0.879454926624738,
                -0.10074626865671643
            ],
            [
                0.8932914046121593,
                0
            ]
        ],
        [
            [
                0.8815513626834381,
                0.23507462686567163
            ],
            [
                0.9486373165618448,
                0.4029850746268657
            ],
            [
                0.9452830188679244,
                0.4298507462686567
            ]
        ],
        [
            [
                0.9352201257861634,
                0.5104477611940298
            ],
            [
                0.9318658280922432,
                0.5373134328358209
            ],
            [
                0.9117400419287212,
                0.5544776119402985
            ]
        ],
        [
            [
                0.8513626834381551,
                0.6059701492537313
            ],
            [
                0.8312368972746331,
                0.6231343283582089
            ],
            [
                0.8165618448637316,
                0.6246268656716417
            ]
        ],
        [
            [
                0.7725366876310271,
                0.6291044776119403
            ],
            [
                0.7578616352201257,
                0.6305970149253731
            ],
            [
                0.7553459119496855,
                0.6126865671641791
            ]
        ],
        [
            [
                0.7477987421383647,
                0.558955223880597
            ],
            [
                0.7452830188679245,
                0.541044776119403
            ],
            [
                0.7171907756813417,
                0.5291044776119403
            ]
        ],
        [
            [
                0.6329140461215932,
                0.49328358208955225
            ],
            [
                0.6048218029350104,
                0.48134328358208955
            ],
            [
                0.5666666666666667,
                0.5992537313432836
            ]
        ],
        [
            [
                0.4522012578616352,
                0.9529850746268658
            ],
            [
                0.4140461215932914,
                1.0708955223880599
            ],
            [
                0.40146750524109015,
                1.1171641791044777
            ]
        ],
        [
            [
                0.3637316561844864,
                1.2559701492537314
            ],
            [
                0.35115303983228513,
                1.3022388059701493
            ],
            [
                0.2429769392033543,
                1.3
            ]
        ],
        [
            [
                -0.08155136268343817,
                1.2932835820895523
            ],
            [
                -0.18972746331236898,
                1.291044776119403
            ],
            [
                -0.22536687631027255,
                1.0664179104477614
            ]
        ],
        [
            [
                -0.33228511530398325,
                0.3925373134328358
            ],
            [
                -0.3679245283018868,
                0.16791044776119404
            ],
            [
                -0.3259958071278826,
                0.05746268656716418
            ]
        ],
        [
            [
                -0.20020964360587,
                -0.2738805970149254
            ],
            [
                -0.15828092243186584,
                -0.3843283582089552
            ],
            [
                0.022851153039832303,
                -0.3805970149253731
            ]
        ],
        [
            [
                0.5662473794549266,
                -0.3694029850746269
            ],
            [
                0.7473794549266247,
                -0.3656716417910448
            ],
            [
                0.7737945492662474,
                -0.3126865671641791
            ]
        ]
    ]
}
</property>
    <property name="kdenlive:collapsed">0</property>
   </filter>
   <filter id="filter478" in="00:00:08.767" out="00:00:09.000">
    <property name="start">0</property>
    <property name="mlt_service">brightness</property>
    <property name="kdenlive_id">fade_from_black</property>
    <property name="end">1</property>
    <property name="alpha">-1</property>
    <property name="kdenlive:collapsed">0</property>
   </filter>
  </entry>
  <entry producer="producer196" in="00:00:14.733" out="00:00:38.467">
   <property name="kdenlive:id">73</property>
  </entry>
  <entry producer="producer201" in="00:00:38.500" out="00:00:44.733">
   <property name="kdenlive:id">73</property>
   <filter id="filter479">
    <property name="rotate_center">1</property>
    <property name="mlt_service">qtblend</property>
    <property name="kdenlive_id">qtblend</property>
    <property name="rect">00:00:38.500=-1181 -277 2880 1620 0.500000</property>
    <property name="rotation">00:00:38.500=0</property>
    <property name="compositing">0</property>
    <property name="distort">0</property>
    <property name="kdenlive:collapsed">0</property>
   </filter>
   <filter id="filter480">
    <property name="mode">alpha</property>
    <property name="alpha_operation">sub</property>
    <property name="invert">0</property>
    <property name="feather">74</property>
    <property name="feather_passes">3</property>
    <property name="mlt_service">rotoscoping</property>
    <property name="kdenlive_id">rotoscoping</property>
    <property name="spline">{
    "1155": [
        [
            [
                0.5150943396226415,
                -0.06119402985074626
            ],
            [
                0.5566037735849056,
                -0.059701492537313425
            ],
            [
                0.5637316561844864,
                -0.02462686567164179
            ]
        ],
        [
            [
                0.5854019461368022,
                0.07991677459077302
            ],
            [
                0.5925298287363829,
                0.11499140145644467
            ],
            [
                0.5883369566189826,
                0.1418570730982357
            ]
        ],
        [
            [
                0.5810631286698814,
                0.19718498545678437
            ],
            [
                0.5768702565524809,
                0.2240506570985754
            ],
            [
                0.6125096695503846,
                0.2594984182926053
            ]
        ],
        [
            [
                0.6530398322851153,
                0.2966417910447761
            ],
            [
                0.7138364779874213,
                0.5485074626865672
            ],
            [
                0.7198072948817735,
                0.6817701110379822
            ]
        ],
        [
            [
                0.7138364779874213,
                0.9492537313432834
            ],
            [
                0.709643605870021,
                1.0485074626865671
            ],
            [
                0.7360587002096436,
                1.1126865671641792
            ]
        ],
        [
            [
                0.8153039832285115,
                1.3052238805970149
            ],
            [
                0.8417190775681341,
                1.369402985074627
            ],
            [
                0.9238993710691824,
                1.361940298507463
            ]
        ],
        [
            [
                1.1704402515723271,
                1.3395522388059702
            ],
            [
                1.2526205450733754,
                1.332089552238806
            ],
            [
                1.249266247379455,
                0.9895522388059703
            ]
        ],
        [
            [
                1.239203354297694,
                -0.03805970149253731
            ],
            [
                1.2358490566037734,
                -0.3805970149253731
            ],
            [
                0.9515723270440251,
                -0.3783582089552239
            ]
        ],
        [
            [
                0.09874213836477982,
                -0.3716417910447761
            ],
            [
                -0.18553459119496857,
                -0.3694029850746269
            ],
            [
                -0.16960167714884697,
                -0.2380597014925373
            ]
        ],
        [
            [
                -0.12180293501048217,
                0.15597014925373137
            ],
            [
                -0.10587002096436059,
                0.2873134328358209
            ],
            [
                -0.060167714884696015,
                0.27462686567164185
            ]
        ],
        [
            [
                0.07693920335429769,
                0.29067164179104477
            ],
            [
                0.12264150943396226,
                0.2779850746268657
            ],
            [
                0.13396226415094342,
                0.33171641791044776
            ]
        ],
        [
            [
                0.16792452830188678,
                0.4388059701492537
            ],
            [
                0.1792452830188679,
                0.4925373134328358
            ],
            [
                0.19266247379454926,
                0.49328358208955225
            ]
        ],
        [
            [
                0.23291404612159328,
                0.4955223880597015
            ],
            [
                0.24633123689727462,
                0.49626865671641796
            ],
            [
                0.24926624737945494,
                0.432089552238806
            ]
        ],
        [
            [
                0.2580712788259958,
                0.23955223880597015
            ],
            [
                0.2610062893081761,
                0.1753731343283582
            ],
            [
                0.2727463312368973,
                0.16791044776119404
            ]
        ],
        [
            [
                0.32297252565375706,
                0.14002356637863317
            ],
            [
                0.33471256758247825,
                0.13256087981146897
            ],
            [
                0.3405825885468388,
                0.09151610369206598
            ]
        ],
        [
            [
                0.3147282535763172,
                -0.011647523407146346
            ],
            [
                0.32059827454067774,
                -0.05269229952654933
            ],
            [
                0.3621077085029419,
                -0.0511997622131165
            ]
        ]
    ],
    "1250": [
        [
            [
                0.5150943396226415,
                -0.06119402985074626
            ],
            [
                0.5566037735849056,
                -0.059701492537313425
            ],
            [
                0.5637316561844864,
                -0.02462686567164179
            ]
        ],
        [
            [
                0.5896538047481443,
                0.06982654296087132
            ],
            [
                0.5967816873477251,
                0.10490116982654296
            ],
            [
                0.5925888152303247,
                0.131766841468334
            ]
        ],
        [
            [
                0.5862598447504107,
                0.19970754336425978
            ],
            [
                0.5820669726330103,
                0.22657321500605085
            ],
            [
                0.617706385630914,
                0.2620209762000807
            ]
        ],
        [
            [
                0.6530398322851153,
                0.2966417910447761
            ],
            [
                0.7138364779874213,
                0.5485074626865672
            ],
            [
                0.7150830075358378,
                0.6659620814844696
            ]
        ],
        [
            [
                0.7138364779874213,
                0.9492537313432834
            ],
            [
                0.709643605870021,
                1.0485074626865671
            ],
            [
                0.7360587002096436,
                1.1126865671641792
            ]
        ],
        [
            [
                0.8153039832285115,
                1.3052238805970149
            ],
            [
                0.8417190775681341,
                1.369402985074627
            ],
            [
                0.9238993710691824,
                1.361940298507463
            ]
        ],
        [
            [
                1.1704402515723271,
                1.3395522388059702
            ],
            [
                1.2526205450733754,
                1.332089552238806
            ],
            [
                1.249266247379455,
                0.9895522388059703
            ]
        ],
        [
            [
                1.239203354297694,
                -0.03805970149253731
            ],
            [
                1.2358490566037734,
                -0.3805970149253731
            ],
            [
                0.9515723270440251,
                -0.3783582089552239
            ]
        ],
        [
            [
                0.09874213836477982,
                -0.3716417910447761
            ],
            [
                -0.18553459119496857,
                -0.3694029850746269
            ],
            [
                -0.16960167714884697,
                -0.2380597014925373
            ]
        ],
        [
            [
                -0.12180293501048217,
                0.15597014925373137
            ],
            [
                -0.10587002096436059,
                0.2873134328358209
            ],
            [
                -0.060167714884696015,
                0.27462686567164185
            ]
        ],
        [
            [
                0.07693920335429769,
                0.29067164179104477
            ],
            [
                0.12264150943396226,
                0.2779850746268657
            ],
            [
                0.13396226415094342,
                0.33171641791044776
            ]
        ],
        [
            [
                0.16792452830188678,
                0.4388059701492537
            ],
            [
                0.1792452830188679,
                0.4925373134328358
            ],
            [
                0.19266247379454926,
                0.49328358208955225
            ]
        ],
        [
            [
                0.23291404612159328,
                0.4955223880597015
            ],
            [
                0.24633123689727462,
                0.49626865671641796
            ],
            [
                0.24926624737945494,
                0.432089552238806
            ]
        ],
        [
            [
                0.2580712788259958,
                0.23955223880597015
            ],
            [
                0.2610062893081761,
                0.1753731343283582
            ],
            [
                0.2727463312368973,
                0.16791044776119404
            ]
        ],
        [
            [
                0.3278825995807128,
                0.11380597014925362
            ],
            [
                0.339622641509434,
                0.10634328358208955
            ],
            [
                0.3454926624737945,
                0.06529850746268646
            ]
        ],
        [
            [
                0.32795625814493745,
                -0.018374344493747478
            ],
            [
                0.33382627910929796,
                -0.05941912061315046
            ],
            [
                0.37533571307156216,
                -0.05792658329971763
            ]
        ]
    ],
    "1288": [
        [
            [
                0.5150943396226415,
                -0.06119402985074626
            ],
            [
                0.5566037735849056,
                -0.059701492537313425
            ],
            [
                0.5637316561844864,
                -0.02462686567164179
            ]
        ],
        [
            [
                0.619706498951782,
                0.03955223880597015
            ],
            [
                0.6268343815513627,
                0.07462686567164178
            ],
            [
                0.6226415094339622,
                0.10149253731343284
            ]
        ],
        [
            [
                0.6069182389937107,
                0.21007462686567177
            ],
            [
                0.6027253668763103,
                0.23694029850746268
            ],
            [
                0.6383647798742139,
                0.2723880597014926
            ]
        ],
        [
            [
                0.6530398322851153,
                0.2966417910447761
            ],
            [
                0.7138364779874213,
                0.5485074626865672
            ],
            [
                0.7129299110431186,
                0.658757563533683
            ]
        ],
        [
            [
                0.7138364779874213,
                0.9492537313432834
            ],
            [
                0.709643605870021,
                1.0485074626865671
            ],
            [
                0.7360587002096436,
                1.1126865671641792
            ]
        ],
        [
            [
                0.8153039832285115,
                1.3052238805970149
            ],
            [
                0.8417190775681341,
                1.369402985074627
            ],
            [
                0.9238993710691824,
                1.361940298507463
            ]
        ],
        [
            [
                1.1704402515723271,
                1.3395522388059702
            ],
            [
                1.2526205450733754,
                1.332089552238806
            ],
            [
                1.249266247379455,
                0.9895522388059703
            ]
        ],
        [
            [
                1.239203354297694,
                -0.03805970149253731
            ],
            [
                1.2358490566037734,
                -0.3805970149253731
            ],
            [
                0.9515723270440251,
                -0.3783582089552239
            ]
        ],
        [
            [
                0.09874213836477982,
                -0.3716417910447761
            ],
            [
                -0.18553459119496857,
                -0.3694029850746269
            ],
            [
                -0.16960167714884697,
                -0.2380597014925373
            ]
        ],
        [
            [
                -0.12180293501048217,
                0.15597014925373137
            ],
            [
                -0.10587002096436059,
                0.2873134328358209
            ],
            [
                -0.060167714884696015,
                0.27462686567164185
            ]
        ],
        [
            [
                0.07693920335429769,
                0.29067164179104477
            ],
            [
                0.12264150943396226,
                0.2779850746268657
            ],
            [
                0.13396226415094342,
                0.33171641791044776
            ]
        ],
        [
            [
                0.16792452830188678,
                0.4388059701492537
            ],
            [
                0.1792452830188679,
                0.4925373134328358
            ],
            [
                0.19266247379454926,
                0.49328358208955225
            ]
        ],
        [
            [
                0.23291404612159328,
                0.4955223880597015
            ],
            [
                0.24633123689727462,
                0.49626865671641796
            ],
            [
                0.24926624737945494,
                0.432089552238806
            ]
        ],
        [
            [
                0.2580712788259958,
                0.23955223880597015
            ],
            [
                0.2610062893081761,
                0.1753731343283582
            ],
            [
                0.2727463312368973,
                0.16791044776119404
            ]
        ],
        [
            [
                0.33576607267645003,
                0.11749844527363178
            ],
            [
                0.3475061146051713,
                0.11003575870646766
            ],
            [
                0.35337613556953174,
                0.06899098258706464
            ]
        ],
        [
            [
                0.33398492832455096,
                -0.021440096813231137
            ],
            [
                0.3398549492889115,
                -0.06248487293263412
            ],
            [
                0.38136438325117566,
                -0.06099233561920129
            ]
        ]
    ],
    "1342": [
        [
            [
                0.5150943396226415,
                -0.06119402985074626
            ],
            [
                0.5566037735849056,
                -0.059701492537313425
            ],
            [
                0.5637316561844864,
                -0.02462686567164179
            ]
        ],
        [
            [
                0.619706498951782,
                0.022182192485846627
            ],
            [
                0.6268343815513627,
                0.05725681935151827
            ],
            [
                0.6226415094339622,
                0.08412249099330933
            ]
        ],
        [
            [
                0.6069182389937107,
                0.21181163149768398
            ],
            [
                0.6027253668763103,
                0.23867730313947508
            ],
            [
                0.6383647798742139,
                0.274125064333505
            ]
        ],
        [
            [
                0.6530398322851153,
                0.2966417910447761
            ],
            [
                0.7138364779874213,
                0.5485074626865672
            ],
            [
                0.7098702476060966,
                0.6485195643404599
            ]
        ],
        [
            [
                0.7138364779874213,
                0.9492537313432834
            ],
            [
                0.709643605870021,
                1.0485074626865671
            ],
            [
                0.7360587002096436,
                1.1126865671641792
            ]
        ],
        [
            [
                0.8153039832285115,
                1.3052238805970149
            ],
            [
                0.8417190775681341,
                1.369402985074627
            ],
            [
                0.9238993710691824,
                1.361940298507463
            ]
        ],
        [
            [
                1.1704402515723271,
                1.3395522388059702
            ],
            [
                1.2526205450733754,
                1.332089552238806
            ],
            [
                1.249266247379455,
                0.9895522388059703
            ]
        ],
        [
            [
                1.239203354297694,
                -0.03805970149253731
            ],
            [
                1.2358490566037734,
                -0.3805970149253731
            ],
            [
                0.9515723270440251,
                -0.3783582089552239
            ]
        ],
        [
            [
                0.09874213836477982,
                -0.3716417910447761
            ],
            [
                -0.18553459119496857,
                -0.3694029850746269
            ],
            [
                -0.16960167714884697,
                -0.2380597014925373
            ]
        ],
        [
            [
                -0.12180293501048217,
                0.15597014925373137
            ],
            [
                -0.10587002096436059,
                0.2873134328358209
            ],
            [
                -0.060167714884696015,
                0.27462686567164185
            ]
        ],
        [
            [
                0.07693920335429769,
                0.29067164179104477
            ],
            [
                0.12264150943396226,
                0.2779850746268657
            ],
            [
                0.13396226415094342,
                0.33171641791044776
            ]
        ],
        [
            [
                0.16792452830188678,
                0.4388059701492537
            ],
            [
                0.1792452830188679,
                0.4925373134328358
            ],
            [
                0.19266247379454926,
                0.49328358208955225
            ]
        ],
        [
            [
                0.23291404612159328,
                0.4955223880597015
            ],
            [
                0.24633123689727462,
                0.49626865671641796
            ],
            [
                0.24926624737945494,
                0.432089552238806
            ]
        ],
        [
            [
                0.2580712788259958,
                0.23955223880597015
            ],
            [
                0.2610062893081761,
                0.1753731343283582
            ],
            [
                0.2727463312368973,
                0.16791044776119404
            ]
        ],
        [
            [
                0.3469689028651293,
                0.12274564676616917
            ],
            [
                0.35870894479385046,
                0.11528296019900497
            ],
            [
                0.364578965758211,
                0.07423818407960205
            ]
        ],
        [
            [
                0.34255198594821235,
                -0.025796692214602658
            ],
            [
                0.3484220069125729,
                -0.06684146833400564
            ],
            [
                0.38993144087483705,
                -0.0653489310205728
            ]
        ]
    ]
}
</property>
    <property name="kdenlive:collapsed">0</property>
   </filter>
   <filter id="filter481" in="00:00:38.500" out="00:00:38.733">
    <property name="start">0</property>
    <property name="mlt_service">brightness</property>
    <property name="kdenlive_id">fade_from_black</property>
    <property name="end">1</property>
    <property name="alpha">-1</property>
   </filter>
   <filter id="filter482" in="00:00:44.133" out="00:00:44.733">
    <property name="start">1</property>
    <property name="mlt_service">brightness</property>
    <property name="kdenlive_id">fade_to_black</property>
    <property name="end">0</property>
    <property name="alpha">-1</property>
   </filter>
  </entry>
  <blank length="00:00:05.667"/>
  <entry producer="producer196" in="00:00:50.433" out="00:01:33.300">
   <property name="kdenlive:id">73</property>
  </entry>
  <entry producer="producer196" in="00:01:33.333" out="00:01:48.633">
   <property name="kdenlive:id">73</property>
   <filter id="filter483">
    <property name="rotate_center">1</property>
    <property name="mlt_service">qtblend</property>
    <property name="kdenlive_id">qtblend</property>
    <property name="rect">00:01:33.333=-2 -113 2304 1296 1.000000;00:01:48.633=-192 -108 2304 1296 1.000000</property>
    <property name="rotation">00:01:33.333=0;00:01:48.633=0</property>
    <property name="compositing">0</property>
    <property name="distort">0</property>
    <property name="kdenlive:collapsed">0</property>
   </filter>
   <filter id="filter484">
    <property name="mode">alpha</property>
    <property name="alpha_operation">sub</property>
    <property name="invert">1</property>
    <property name="feather">58</property>
    <property name="feather_passes">1</property>
    <property name="mlt_service">rotoscoping</property>
    <property name="kdenlive_id">rotoscoping</property>
    <property name="spline">{
    "2800": [
        [
            [
                0.8119496855345912,
                -0.10895522388059702
            ],
            [
                0.738993710691824,
                -0.09328358208955224
            ],
            [
                0.7184486373165619,
                -0.04626865671641791
            ]
        ],
        [
            [
                0.6907756813417191,
                0.07835820895522388
            ],
            [
                0.6907756813417191,
                0.16417910447761194
            ],
            [
                0.6886792452830188,
                0.2425373134328358
            ]
        ],
        [
            [
                0.7205450733752621,
                0.4223880597014925
            ],
            [
                0.709643605870021,
                0.4776119402985074
            ],
            [
                0.6857442348008386,
                0.4805970149253731
            ]
        ],
        [
            [
                0.6119496855345908,
                0.3440298507462687
            ],
            [
                0.5880503144654088,
                0.34701492537313433
            ],
            [
                0.5742138364779873,
                0.4171641791044776
            ]
        ],
        [
            [
                0.4572327044025157,
                0.7395522388059697
            ],
            [
                0.44339622641509435,
                0.8097014925373135
            ],
            [
                0.43668763102725366,
                0.8589552238805965
            ]
        ],
        [
            [
                0.4291404612159329,
                1.0328358208955224
            ],
            [
                0.4224318658280922,
                1.082089552238806
            ],
            [
                0.4450733752620544,
                1.1358208955223883
            ]
        ],
        [
            [
                0.450104821802935,
                1.244776119402985
            ],
            [
                0.47274633123689724,
                1.2985074626865671
            ],
            [
                0.6123689727463313,
                1.2992537313432835
            ]
        ],
        [
            [
                1.0312368972746333,
                1.301492537313433
            ],
            [
                1.1708595387840672,
                1.3022388059701493
            ],
            [
                1.1767295597484277,
                1.0865671641791046
            ]
        ],
        [
            [
                1.1943396226415095,
                0.43955223880597016
            ],
            [
                1.20020964360587,
                0.22388059701492538
            ],
            [
                1.180922431865828,
                0.14477611940298507
            ]
        ],
        [
            [
                1.1230607966457022,
                -0.09253731343283583
            ],
            [
                1.1037735849056602,
                -0.17164179104477612
            ],
            [
                1.030817610062893,
                -0.15597014925373134
            ]
        ]
    ],
    "3259": [
        [
            [
                0.8119496855345912,
                -0.10895522388059702
            ],
            [
                0.738993710691824,
                -0.09328358208955224
            ],
            [
                0.7184486373165619,
                -0.04626865671641791
            ]
        ],
        [
            [
                0.6421383647798742,
                0.09850746268656717
            ],
            [
                0.6215932914046121,
                0.1455223880597015
            ],
            [
                0.610691823899371,
                0.2007462686567164
            ]
        ],
        [
            [
                0.6324947589098532,
                0.44850746268656716
            ],
            [
                0.6215932914046121,
                0.503731343283582
            ],
            [
                0.5976939203354298,
                0.5067164179104479
            ]
        ],
        [
            [
                0.48616352201257856,
                0.4298507462686567
            ],
            [
                0.4622641509433962,
                0.4328358208955224
            ],
            [
                0.44842767295597485,
                0.5029850746268657
            ]
        ],
        [
            [
                0.40691823899371066,
                0.7134328358208955
            ],
            [
                0.39308176100628933,
                0.7835820895522388
            ],
            [
                0.38637316561844864,
                0.8328358208955223
            ]
        ],
        [
            [
                0.36624737945492664,
                0.9805970149253731
            ],
            [
                0.35953878406708595,
                1.0298507462686568
            ],
            [
                0.3821802935010482,
                1.083582089552239
            ]
        ],
        [
            [
                0.450104821802935,
                1.244776119402985
            ],
            [
                0.47274633123689724,
                1.2985074626865671
            ],
            [
                0.6123689727463313,
                1.2992537313432835
            ]
        ],
        [
            [
                1.0312368972746333,
                1.301492537313433
            ],
            [
                1.1708595387840672,
                1.3022388059701493
            ],
            [
                1.1767295597484277,
                1.0865671641791046
            ]
        ],
        [
            [
                1.1943396226415095,
                0.43955223880597016
            ],
            [
                1.20020964360587,
                0.22388059701492538
            ],
            [
                1.180922431865828,
                0.14477611940298507
            ]
        ],
        [
            [
                1.1230607966457022,
                -0.09253731343283583
            ],
            [
                1.1037735849056602,
                -0.17164179104477612
            ],
            [
                1.030817610062893,
                -0.15597014925373134
            ]
        ]
    ]
}
</property>
    <property name="kdenlive:collapsed">0</property>
    <property name="disable">0</property>
   </filter>
  </entry>
  <blank length="00:00:08.367"/>
  <entry producer="producer196" in="00:01:57.033" out="00:02:10.633">
   <property name="kdenlive:id">73</property>
   <filter id="filter485">
    <property name="rotate_center">1</property>
    <property name="mlt_service">qtblend</property>
    <property name="kdenlive_id">qtblend</property>
    <property name="rect">00:01:57.033=-192 -108 2304 1296 1.000000;00:02:10.633=-96 -54 2112 1188 1.000000</property>
    <property name="rotation">00:01:57.033=0;00:02:10.633=0</property>
    <property name="compositing">0</property>
    <property name="distort">0</property>
    <property name="kdenlive:collapsed">0</property>
   </filter>
   <filter id="filter486">
    <property name="mode">alpha</property>
    <property name="alpha_operation">sub</property>
    <property name="invert">1</property>
    <property name="feather">74</property>
    <property name="feather_passes">2</property>
    <property name="mlt_service">rotoscoping</property>
    <property name="kdenlive_id">rotoscoping</property>
    <property name="spline">{
    "3511": [
        [
            [
                0.7679245283018867,
                -0.10223880597014925
            ],
            [
                0.6656184486373166,
                -0.055970149253731345
            ],
            [
                0.6547169811320755,
                0.0029850746268656656
            ]
        ],
        [
            [
                0.6220125786163522,
                0.17985074626865669
            ],
            [
                0.611111111111111,
                0.2388059701492537
            ],
            [
                0.610272536687631,
                0.2895522388059701
            ]
        ],
        [
            [
                0.6077568134171908,
                0.4417910447761194
            ],
            [
                0.6069182389937107,
                0.4925373134328358
            ],
            [
                0.5851153039832285,
                0.4574626865671642
            ]
        ],
        [
            [
                0.519706498951782,
                0.3522388059701492
            ],
            [
                0.4979035639412998,
                0.31716417910447764
            ],
            [
                0.46645702306079667,
                0.4044776119402985
            ]
        ],
        [
            [
                0.3721174004192872,
                0.6664179104477613
            ],
            [
                0.34067085953878407,
                0.7537313432835822
            ],
            [
                0.3419287211740042,
                0.8156716417910448
            ]
        ],
        [
            [
                0.34570230607966457,
                1.001492537313433
            ],
            [
                0.3469601677148847,
                1.0634328358208955
            ],
            [
                0.38176100628930815,
                1.1134328358208956
            ]
        ],
        [
            [
                0.48616352201257856,
                1.2634328358208955
            ],
            [
                0.520964360587002,
                1.3134328358208955
            ],
            [
                0.6442348008385744,
                1.291044776119403
            ]
        ],
        [
            [
                1.0140461215932912,
                1.2238805970149254
            ],
            [
                1.1373165618448635,
                1.2014925373134329
            ],
            [
                1.1553459119496854,
                1.0223880597014927
            ]
        ],
        [
            [
                1.0018867924528294,
                0.7761194029850743
            ],
            [
                1.019916142557652,
                0.5970149253731343
            ],
            [
                1.009853249475891,
                0.4783582089552236
            ]
        ],
        [
            [
                0.9356394129979034,
                0.2492537313432837
            ],
            [
                0.9255765199161424,
                0.13059701492537315
            ],
            [
                0.8563941299790355,
                -0.0037313432835820834
            ]
        ]
    ],
    "3919": [
        [
            [
                0.7679245283018867,
                -0.10223880597014925
            ],
            [
                0.6656184486373166,
                -0.055970149253731345
            ],
            [
                0.6547169811320755,
                0.0029850746268656656
            ]
        ],
        [
            [
                0.6220125786163522,
                0.17985074626865669
            ],
            [
                0.611111111111111,
                0.2388059701492537
            ],
            [
                0.610272536687631,
                0.2895522388059701
            ]
        ],
        [
            [
                0.6077568134171908,
                0.4417910447761194
            ],
            [
                0.6069182389937107,
                0.4925373134328358
            ],
            [
                0.5851153039832285,
                0.4574626865671642
            ]
        ],
        [
            [
                0.519706498951782,
                0.3522388059701492
            ],
            [
                0.4979035639412998,
                0.31716417910447764
            ],
            [
                0.46645702306079667,
                0.4044776119402985
            ]
        ],
        [
            [
                0.3721174004192872,
                0.6664179104477613
            ],
            [
                0.34067085953878407,
                0.7537313432835822
            ],
            [
                0.3419287211740042,
                0.8156716417910448
            ]
        ],
        [
            [
                0.34570230607966457,
                1.001492537313433
            ],
            [
                0.3469601677148847,
                1.0634328358208955
            ],
            [
                0.38176100628930815,
                1.1134328358208956
            ]
        ],
        [
            [
                0.48616352201257856,
                1.2634328358208955
            ],
            [
                0.520964360587002,
                1.3134328358208955
            ],
            [
                0.6442348008385744,
                1.291044776119403
            ]
        ],
        [
            [
                1.0140461215932912,
                1.2238805970149254
            ],
            [
                1.1373165618448635,
                1.2014925373134329
            ],
            [
                1.1553459119496854,
                1.0223880597014927
            ]
        ],
        [
            [
                0.9955974842767293,
                0.7985074626865671
            ],
            [
                1.0136268343815513,
                0.6194029850746269
            ],
            [
                1.0035639412997903,
                0.5007462686567162
            ]
        ],
        [
            [
                0.9356394129979034,
                0.2492537313432837
            ],
            [
                0.9255765199161424,
                0.13059701492537315
            ],
            [
                0.8563941299790355,
                -0.0037313432835820834
            ]
        ]
    ]
}
</property>
    <property name="kdenlive:collapsed">0</property>
    <property name="disable">0</property>
   </filter>
  </entry>
 </playlist>
 <playlist id="playlist29"/>
 <tractor id="tractor14" in="00:00:00.000" out="00:06:13.900">
  <property name="kdenlive:trackheight">69</property>
  <property name="kdenlive:timeline_active">1</property>
  <property name="kdenlive:collapsed">28</property>
  <property name="kdenlive:thumbs_format"/>
  <property name="kdenlive:audio_rec"/>
  <track hide="audio" producer="playlist28"/>
  <track producer="playlist29"/>
 </tractor>
 <producer id="producer202" in="00:00:00.000" out="00:00:05.967">
  <property name="length">180</property>
  <property name="eof">pause</property>
  <property name="resource">/home/ryankelln/.cache/kdenlive/proxy/79a87ccb5a7b59de371d3d43ee9aad01.mkv</property>
  <property name="audio_index">0</property>
  <property name="video_index">1</property>
  <property name="mute_on_pause">0</property>
  <property name="mlt_service">avformat-novalidate</property>
  <property name="seekable">1</property>
  <property name="aspect_ratio">1</property>
  <property name="kdenlive:clipname">16mm Scratched.mp4</property>
  <property name="kdenlive:folderid">-1</property>
  <property name="kdenlive:id">143</property>
  <property name="kdenlive:file_size">174720527</property>
  <property name="kdenlive:file_hash">79a87ccb5a7b59de371d3d43ee9aad01</property>
  <property name="kdenlive:proxy">/home/ryankelln/.cache/kdenlive/proxy/79a87ccb5a7b59de371d3d43ee9aad01.mkv</property>
  <property name="kdenlive:originalurl">content/16mm Scratched.mp4</property>
  <property name="kdenlive:original.mlt_type">producer</property>
  <property name="kdenlive:original.in">0</property>
  <property name="kdenlive:original.out">179</property>
  <property name="kdenlive:original.length">180</property>
  <property name="kdenlive:original.eof">pause</property>
  <property name="kdenlive:original.resource">content/16mm Scratched.mp4</property>
  <property name="kdenlive:original.meta.media.nb_streams">2</property>
  <property name="kdenlive:original.meta.media.0.stream.type">audio</property>
  <property name="kdenlive:original.meta.media.0.codec.sample_fmt">fltp</property>
  <property name="kdenlive:original.meta.media.0.codec.sample_rate">48000</property>
  <property name="kdenlive:original.meta.media.0.codec.channels">2</property>
  <property name="kdenlive:original.meta.media.0.codec.name">aac</property>
  <property name="kdenlive:original.meta.media.0.codec.long_name">AAC (Advanced Audio Coding)</property>
  <property name="kdenlive:original.meta.media.0.codec.bit_rate">317375</property>
  <property name="kdenlive:original.meta.attr.0.stream.creation_time.markup">2019-02-07T17:28:50.000000Z</property>
  <property name="kdenlive:original.meta.attr.0.stream.language.markup">eng</property>
  <property name="kdenlive:original.meta.attr.0.stream.handler_name.markup">#Mainconcept MP4 Sound Media Handler</property>
  <property name="kdenlive:original.meta.media.1.stream.type">video</property>
  <property name="kdenlive:original.meta.media.1.stream.frame_rate">24</property>
  <property name="kdenlive:original.meta.media.1.stream.sample_aspect_ratio">0</property>
  <property name="kdenlive:original.meta.media.1.codec.width">3840</property>
  <property name="kdenlive:original.meta.media.1.codec.height">2160</property>
  <property name="kdenlive:original.meta.media.1.codec.rotate">0</property>
  <property name="kdenlive:original.meta.media.1.codec.frame_rate">24</property>
  <property name="kdenlive:original.meta.media.1.codec.pix_fmt">yuv420p</property>
  <property name="kdenlive:original.meta.media.1.codec.sample_aspect_ratio">0</property>
  <property name="kdenlive:original.meta.media.1.codec.colorspace">709</property>
  <property name="kdenlive:original.meta.media.1.codec.color_trc">1</property>
  <property name="kdenlive:original.meta.media.1.codec.name">h264</property>
  <property name="kdenlive:original.meta.media.1.codec.long_name">H.264 / AVC / MPEG-4 AVC / MPEG-4 part 10</property>
  <property name="kdenlive:original.meta.media.1.codec.bit_rate">232561614</property>
  <property name="kdenlive:original.meta.attr.1.stream.creation_time.markup">2019-02-07T17:28:50.000000Z</property>
  <property name="kdenlive:original.meta.attr.1.stream.language.markup">eng</property>
  <property name="kdenlive:original.meta.attr.1.stream.handler_name.markup">Mainconcept Video Media Handler</property>
  <property name="kdenlive:original.meta.attr.1.stream.encoder.markup">AVC Coding</property>
  <property name="kdenlive:original.meta.attr.major_brand.markup">mp42</property>
  <property name="kdenlive:original.meta.attr.minor_version.markup">0</property>
  <property name="kdenlive:original.meta.attr.compatible_brands.markup">mp42mp41</property>
  <property name="kdenlive:original.meta.attr.creation_time.markup">2019-02-07T17:28:49.000000Z</property>
  <property name="kdenlive:original.seekable">1</property>
  <property name="kdenlive:original.width">3840</property>
  <property name="kdenlive:original.height">2160</property>
  <property name="kdenlive:original.meta.media.sample_aspect_num">1</property>
  <property name="kdenlive:original.meta.media.sample_aspect_den">1</property>
  <property name="kdenlive:original.aspect_ratio">1</property>
  <property name="kdenlive:original.audio_index">0</property>
  <property name="kdenlive:original.video_index">1</property>
  <property name="kdenlive:original.mute_on_pause">0</property>
  <property name="kdenlive:original.mlt_service">avformat-novalidate</property>
  <property name="kdenlive:original.kdenlive:folderid">-1</property>
  <property name="kdenlive:original.meta.media.frame_rate_num">24</property>
  <property name="kdenlive:original.meta.media.frame_rate_den">1</property>
  <property name="kdenlive:original.meta.media.colorspace">709</property>
  <property name="kdenlive:original.meta.media.color_trc">1</property>
  <property name="kdenlive:original.meta.media.width">3840</property>
  <property name="kdenlive:original.meta.media.height">2160</property>
  <property name="kdenlive:original.meta.media.color_range">mpeg</property>
  <property name="kdenlive:original.kdenlive:id">146</property>
  <property name="kdenlive:original.kdenlive:file_size">174720527</property>
  <property name="kdenlive:original.kdenlive:file_hash">79a87ccb5a7b59de371d3d43ee9aad01</property>
  <property name="kdenlive:original.backup">1</property>
  <property name="global_feed">1</property>
  <property name="kdenlive:active_streams">-1</property>
  <property name="xml">was here</property>
  <property name="meta.media.nb_streams">2</property>
  <property name="meta.media.0.stream.type">audio</property>
  <property name="meta.media.0.codec.sample_fmt">s16</property>
  <property name="meta.media.0.codec.sample_rate">48000</property>
  <property name="meta.media.0.codec.channels">2</property>
  <property name="meta.media.0.codec.name">pcm_s16le</property>
  <property name="meta.media.0.codec.long_name">PCM signed 16-bit little-endian</property>
  <property name="meta.media.0.codec.bit_rate">1536000</property>
  <property name="meta.attr.0.stream.language.markup">eng</property>
  <property name="meta.attr.0.stream.HANDLER_NAME.markup">#Mainconcept MP4 Sound Media Handler</property>
  <property name="meta.attr.0.stream.ENCODER.markup">Lavc58.91.100 pcm_s16le</property>
  <property name="meta.attr.0.stream.DURATION.markup">00:00:05.994000000</property>
  <property name="meta.media.1.stream.type">video</property>
  <property name="meta.media.1.stream.frame_rate">24</property>
  <property name="meta.media.1.stream.sample_aspect_ratio">0</property>
  <property name="meta.media.1.codec.width">960</property>
  <property name="meta.media.1.codec.height">540</property>
  <property name="meta.media.1.codec.rotate">0</property>
  <property name="meta.media.1.codec.frame_rate">1000</property>
  <property name="meta.media.1.codec.pix_fmt">yuvj420p</property>
  <property name="meta.media.1.codec.sample_aspect_ratio">0</property>
  <property name="meta.media.1.codec.colorspace">601</property>
  <property name="meta.media.1.codec.name">mjpeg</property>
  <property name="meta.media.1.codec.long_name">MJPEG (Motion JPEG)</property>
  <property name="meta.media.1.codec.bit_rate">0</property>
  <property name="meta.attr.1.stream.language.markup">eng</property>
  <property name="meta.attr.1.stream.HANDLER_NAME.markup">Mainconcept Video Media Handler</property>
  <property name="meta.attr.1.stream.ENCODER.markup">Lavc58.91.100 mjpeg</property>
  <property name="meta.attr.1.stream.DURATION.markup">00:00:06.000000000</property>
  <property name="meta.attr.COMPATIBLE_BRANDS.markup">mp42mp41</property>
  <property name="meta.attr.MAJOR_BRAND.markup">mp42</property>
  <property name="meta.attr.MINOR_VERSION.markup">0</property>
  <property name="meta.attr.ENCODER.markup">Lavf58.45.100</property>
  <property name="meta.media.sample_aspect_num">1</property>
  <property name="meta.media.sample_aspect_den">1</property>
  <property name="meta.media.frame_rate_num">24</property>
  <property name="meta.media.frame_rate_den">1</property>
  <property name="meta.media.colorspace">601</property>
  <property name="meta.media.color_trc">2</property>
  <property name="meta.media.width">960</property>
  <property name="meta.media.height">540</property>
  <property name="meta.media.color_range">full</property>
  <property name="meta.media.top_field_first">0</property>
  <property name="meta.media.progressive">1</property>
  <property name="set.test_audio">1</property>
  <property name="set.test_image">0</property>
 </producer>
 <producer id="producer203" in="00:00:00.000" out="00:00:05.967">
  <property name="length">00:00:06:00</property>
  <property name="eof">pause</property>
  <property name="resource">/home/ryankelln/.cache/kdenlive/proxy/b24d21a301caebef02ae5ae52cdcd669.mkv</property>
  <property name="audio_index">0</property>
  <property name="video_index">1</property>
  <property name="mute_on_pause">0</property>
  <property name="mlt_service">avformat-novalidate</property>
  <property name="seekable">1</property>
  <property name="aspect_ratio">1</property>
  <property name="kdenlive:clipname">35mm Fine.mp4</property>
  <property name="kdenlive:folderid">-1</property>
  <property name="kdenlive:id">144</property>
  <property name="kdenlive:file_size">181627061</property>
  <property name="kdenlive:file_hash">b24d21a301caebef02ae5ae52cdcd669</property>
  <property name="kdenlive:proxy">/home/ryankelln/.cache/kdenlive/proxy/b24d21a301caebef02ae5ae52cdcd669.mkv</property>
  <property name="kdenlive:originalurl">content/35mm Fine.mp4</property>
  <property name="kdenlive:original.mlt_type">producer</property>
  <property name="kdenlive:original.in">0</property>
  <property name="kdenlive:original.out">179</property>
  <property name="kdenlive:original.length">180</property>
  <property name="kdenlive:original.eof">pause</property>
  <property name="kdenlive:original.resource">content/35mm Fine.mp4</property>
  <property name="kdenlive:original.meta.media.nb_streams">2</property>
  <property name="kdenlive:original.meta.media.0.stream.type">audio</property>
  <property name="kdenlive:original.meta.media.0.codec.sample_fmt">fltp</property>
  <property name="kdenlive:original.meta.media.0.codec.sample_rate">48000</property>
  <property name="kdenlive:original.meta.media.0.codec.channels">2</property>
  <property name="kdenlive:original.meta.media.0.codec.name">aac</property>
  <property name="kdenlive:original.meta.media.0.codec.long_name">AAC (Advanced Audio Coding)</property>
  <property name="kdenlive:original.meta.media.0.codec.bit_rate">317375</property>
  <property name="kdenlive:original.meta.attr.0.stream.creation_time.markup">2019-02-07T17:28:33.000000Z</property>
  <property name="kdenlive:original.meta.attr.0.stream.language.markup">eng</property>
  <property name="kdenlive:original.meta.attr.0.stream.handler_name.markup">#Mainconcept MP4 Sound Media Handler</property>
  <property name="kdenlive:original.meta.media.1.stream.type">video</property>
  <property name="kdenlive:original.meta.media.1.stream.frame_rate">24</property>
  <property name="kdenlive:original.meta.media.1.stream.sample_aspect_ratio">0</property>
  <property name="kdenlive:original.meta.media.1.codec.width">3840</property>
  <property name="kdenlive:original.meta.media.1.codec.height">2160</property>
  <property name="kdenlive:original.meta.media.1.codec.rotate">0</property>
  <property name="kdenlive:original.meta.media.1.codec.frame_rate">24</property>
  <property name="kdenlive:original.meta.media.1.codec.pix_fmt">yuv420p</property>
  <property name="kdenlive:original.meta.media.1.codec.sample_aspect_ratio">0</property>
  <property name="kdenlive:original.meta.media.1.codec.colorspace">709</property>
  <property name="kdenlive:original.meta.media.1.codec.color_trc">1</property>
  <property name="kdenlive:original.meta.media.1.codec.name">h264</property>
  <property name="kdenlive:original.meta.media.1.codec.long_name">H.264 / AVC / MPEG-4 AVC / MPEG-4 part 10</property>
  <property name="kdenlive:original.meta.media.1.codec.bit_rate">241770326</property>
  <property name="kdenlive:original.meta.attr.1.stream.creation_time.markup">2019-02-07T17:28:34.000000Z</property>
  <property name="kdenlive:original.meta.attr.1.stream.language.markup">eng</property>
  <property name="kdenlive:original.meta.attr.1.stream.handler_name.markup">Mainconcept Video Media Handler</property>
  <property name="kdenlive:original.meta.attr.1.stream.encoder.markup">AVC Coding</property>
  <property name="kdenlive:original.meta.attr.major_brand.markup">mp42</property>
  <property name="kdenlive:original.meta.attr.minor_version.markup">0</property>
  <property name="kdenlive:original.meta.attr.compatible_brands.markup">mp42mp41</property>
  <property name="kdenlive:original.meta.attr.creation_time.markup">2019-02-07T17:28:32.000000Z</property>
  <property name="kdenlive:original.seekable">1</property>
  <property name="kdenlive:original.width">3840</property>
  <property name="kdenlive:original.height">2160</property>
  <property name="kdenlive:original.meta.media.sample_aspect_num">1</property>
  <property name="kdenlive:original.meta.media.sample_aspect_den">1</property>
  <property name="kdenlive:original.aspect_ratio">1</property>
  <property name="kdenlive:original.audio_index">0</property>
  <property name="kdenlive:original.video_index">1</property>
  <property name="kdenlive:original.mute_on_pause">0</property>
  <property name="kdenlive:original.mlt_service">avformat-novalidate</property>
  <property name="kdenlive:original.kdenlive:folderid">-1</property>
  <property name="kdenlive:original.meta.media.frame_rate_num">24</property>
  <property name="kdenlive:original.meta.media.frame_rate_den">1</property>
  <property name="kdenlive:original.meta.media.colorspace">709</property>
  <property name="kdenlive:original.meta.media.color_trc">1</property>
  <property name="kdenlive:original.meta.media.width">3840</property>
  <property name="kdenlive:original.meta.media.height">2160</property>
  <property name="kdenlive:original.meta.media.color_range">mpeg</property>
  <property name="kdenlive:original.kdenlive:id">147</property>
  <property name="kdenlive:original.kdenlive:file_size">181627061</property>
  <property name="kdenlive:original.kdenlive:file_hash">b24d21a301caebef02ae5ae52cdcd669</property>
  <property name="kdenlive:original.backup">1</property>
  <property name="kdenlive:audio_max">91</property>
  <property name="global_feed">1</property>
  <property name="kdenlive:active_streams">-1</property>
  <property name="xml">was here</property>
  <property name="meta.media.nb_streams">2</property>
  <property name="meta.media.0.stream.type">audio</property>
  <property name="meta.media.0.codec.sample_fmt">s16</property>
  <property name="meta.media.0.codec.sample_rate">48000</property>
  <property name="meta.media.0.codec.channels">2</property>
  <property name="meta.media.0.codec.name">pcm_s16le</property>
  <property name="meta.media.0.codec.long_name">PCM signed 16-bit little-endian</property>
  <property name="meta.media.0.codec.bit_rate">1536000</property>
  <property name="meta.attr.0.stream.language.markup">eng</property>
  <property name="meta.attr.0.stream.HANDLER_NAME.markup">#Mainconcept MP4 Sound Media Handler</property>
  <property name="meta.attr.0.stream.ENCODER.markup">Lavc58.91.100 pcm_s16le</property>
  <property name="meta.attr.0.stream.DURATION.markup">00:00:05.994000000</property>
  <property name="meta.media.1.stream.type">video</property>
  <property name="meta.media.1.stream.frame_rate">24</property>
  <property name="meta.media.1.stream.sample_aspect_ratio">0</property>
  <property name="meta.media.1.codec.width">960</property>
  <property name="meta.media.1.codec.height">540</property>
  <property name="meta.media.1.codec.rotate">0</property>
  <property name="meta.media.1.codec.frame_rate">1000</property>
  <property name="meta.media.1.codec.pix_fmt">yuvj420p</property>
  <property name="meta.media.1.codec.sample_aspect_ratio">0</property>
  <property name="meta.media.1.codec.colorspace">601</property>
  <property name="meta.media.1.codec.name">mjpeg</property>
  <property name="meta.media.1.codec.long_name">MJPEG (Motion JPEG)</property>
  <property name="meta.media.1.codec.bit_rate">0</property>
  <property name="meta.attr.1.stream.language.markup">eng</property>
  <property name="meta.attr.1.stream.HANDLER_NAME.markup">Mainconcept Video Media Handler</property>
  <property name="meta.attr.1.stream.ENCODER.markup">Lavc58.91.100 mjpeg</property>
  <property name="meta.attr.1.stream.DURATION.markup">00:00:06.000000000</property>
  <property name="meta.attr.COMPATIBLE_BRANDS.markup">mp42mp41</property>
  <property name="meta.attr.MAJOR_BRAND.markup">mp42</property>
  <property name="meta.attr.MINOR_VERSION.markup">0</property>
  <property name="meta.attr.ENCODER.markup">Lavf58.45.100</property>
  <property name="meta.media.sample_aspect_num">1</property>
  <property name="meta.media.sample_aspect_den">1</property>
  <property name="meta.media.frame_rate_num">24</property>
  <property name="meta.media.frame_rate_den">1</property>
  <property name="meta.media.colorspace">601</property>
  <property name="meta.media.color_trc">2</property>
  <property name="meta.media.width">960</property>
  <property name="meta.media.height">540</property>
  <property name="meta.media.color_range">full</property>
  <property name="meta.media.top_field_first">0</property>
  <property name="meta.media.progressive">1</property>
  <property name="set.test_audio">1</property>
  <property name="set.test_image">0</property>
 </producer>
 <producer id="producer204" in="00:00:00.000" out="00:05:47.067">
  <property name="length">10413</property>
  <property name="eof">pause</property>
  <property name="resource">content/musicians/2021-06-02_Sarah_kit_suzy_00046-take1_beginning.MTS</property>
  <property name="audio_index">1</property>
  <property name="video_index">0</property>
  <property name="mute_on_pause">0</property>
  <property name="mlt_service">avformat-novalidate</property>
  <property name="seekable">1</property>
  <property name="aspect_ratio">1.33333</property>
  <property name="kdenlive:clipname"/>
  <property name="kdenlive:folderid">103</property>
  <property name="kdenlive:id">80</property>
  <property name="kdenlive:file_size">306002524</property>
  <property name="kdenlive:file_hash">90ffb3bfdcd3f40feb08d71ea61b1e91</property>
  <property name="kdenlive:audio_max">1</property>
  <property name="global_feed">1</property>
  <property name="kdenlive:activeeffect">1</property>
  <property name="xml">was here</property>
  <property name="meta.media.nb_streams">2</property>
  <property name="meta.media.0.stream.type">video</property>
  <property name="meta.media.0.stream.frame_rate">29.97</property>
  <property name="meta.media.0.stream.sample_aspect_ratio">0</property>
  <property name="meta.media.0.codec.width">1440</property>
  <property name="meta.media.0.codec.height">1080</property>
  <property name="meta.media.0.codec.rotate">0</property>
  <property name="meta.media.0.codec.frame_rate">29.97</property>
  <property name="meta.media.0.codec.pix_fmt">yuv420p</property>
  <property name="meta.media.0.codec.sample_aspect_ratio">1.33333</property>
  <property name="meta.media.0.codec.colorspace">709</property>
  <property name="meta.media.0.codec.name">h264</property>
  <property name="meta.media.0.codec.long_name">H.264 / AVC / MPEG-4 AVC / MPEG-4 part 10</property>
  <property name="meta.media.0.codec.bit_rate">0</property>
  <property name="meta.media.1.stream.type">audio</property>
  <property name="meta.media.1.codec.sample_fmt">fltp</property>
  <property name="meta.media.1.codec.sample_rate">48000</property>
  <property name="meta.media.1.codec.channels">2</property>
  <property name="meta.media.1.codec.name">ac3</property>
  <property name="meta.media.1.codec.long_name">ATSC A/52A (AC-3)</property>
  <property name="meta.media.1.codec.bit_rate">256000</property>
  <property name="meta.media.sample_aspect_num">4</property>
  <property name="meta.media.sample_aspect_den">3</property>
  <property name="meta.media.frame_rate_num">30000</property>
  <property name="meta.media.frame_rate_den">1001</property>
  <property name="meta.media.colorspace">709</property>
  <property name="meta.media.color_trc">2</property>
  <property name="meta.media.width">1440</property>
  <property name="meta.media.height">1080</property>
  <property name="meta.media.color_range">mpeg</property>
  <property name="meta.media.top_field_first">1</property>
  <property name="meta.media.progressive">0</property>
  <property name="set.test_audio">1</property>
  <property name="set.test_image">0</property>
  <filter id="filter453">
   <property name="version">0.1</property>
   <property name="mlt_service">frei0r.hqdn3d</property>
   <property name="kdenlive_id">frei0r.hqdn3d</property>
   <property name="Spatial">00:00:00.000=0.01</property>
   <property name="Temporal">00:00:00.000=0.01</property>
  </filter>
  <filter id="filter455">
   <property name="version">0.6</property>
   <property name="mlt_service">frei0r.select0r</property>
   <property name="kdenlive_id">frei0r.select0r</property>
   <property name="Color to select">0x419553ff</property>
   <property name="Invert selection">1</property>
   <property name="Selection subspace">1</property>
   <property name="Subspace shape">0</property>
   <property name="Edge mode">0.9</property>
   <property name="Delta R / A / Hue">00:00:00.000=0.025</property>
   <property name="Delta G / B / Chroma">00:00:00.000=0.171</property>
   <property name="Delta B / I / I">00:00:00.000=0.371</property>
   <property name="Slope">00:00:00.000=0.15</property>
   <property name="Operation">0.5</property>
  </filter>
  <filter id="filter458">
   <property name="mlt_service">avfilter.despill</property>
   <property name="kdenlive_id">avfilter.despill</property>
   <property name="av.type">green</property>
   <property name="av.mix">0.106</property>
   <property name="av.expand">0</property>
   <property name="av.red">0</property>
   <property name="av.green">-0.9</property>
   <property name="av.blue">-0.5</property>
   <property name="av.brightness">0</property>
  </filter>
 </producer>
 <producer id="producer205" in="00:00:00.000" out="00:00:13.533">
  <property name="length">407</property>
  <property name="eof">pause</property>
  <property name="resource">/home/ryankelln/.cache/kdenlive/proxy/1b02eb4bd2bc257dabfe508a7aa1e0f0.mkv</property>
  <property name="audio_index">-1</property>
  <property name="video_index">0</property>
  <property name="mute_on_pause">0</property>
  <property name="mlt_service">avformat-novalidate</property>
  <property name="seekable">1</property>
  <property name="aspect_ratio">1</property>
  <property name="kdenlive:clipname">ReReVST-fishing_boats-suzy_musicians_2_no-global_style=2.0_content=1.0.mp4</property>
  <property name="kdenlive:folderid">81</property>
  <property name="kdenlive:id">114</property>
  <property name="kdenlive:file_size">42625445</property>
  <property name="kdenlive:file_hash">1b02eb4bd2bc257dabfe508a7aa1e0f0</property>
  <property name="kdenlive:proxy">/home/ryankelln/.cache/kdenlive/proxy/1b02eb4bd2bc257dabfe508a7aa1e0f0.mkv</property>
  <property name="kdenlive:originalurl">content/animated_paintings/ReReVST-fishing_boats-suzy_musicians_2_no-global_style=2.0_content=1.0.mp4</property>
  <property name="kdenlive:original.mlt_type">producer</property>
  <property name="kdenlive:original.in">0</property>
  <property name="kdenlive:original.out">406</property>
  <property name="kdenlive:original.length">407</property>
  <property name="kdenlive:original.eof">pause</property>
  <property name="kdenlive:original.resource">content/animated_paintings/ReReVST-fishing_boats-suzy_musicians_2_no-global_style=2.0_content=1.0.mp4</property>
  <property name="kdenlive:original.meta.media.nb_streams">1</property>
  <property name="kdenlive:original.meta.media.0.stream.type">video</property>
  <property name="kdenlive:original.meta.media.0.stream.frame_rate">30</property>
  <property name="kdenlive:original.meta.media.0.stream.sample_aspect_ratio">0</property>
  <property name="kdenlive:original.meta.media.0.codec.width">1920</property>
  <property name="kdenlive:original.meta.media.0.codec.height">1080</property>
  <property name="kdenlive:original.meta.media.0.codec.rotate">0</property>
  <property name="kdenlive:original.meta.media.0.codec.frame_rate">30</property>
  <property name="kdenlive:original.meta.media.0.codec.pix_fmt">yuv420p</property>
  <property name="kdenlive:original.meta.media.0.codec.sample_aspect_ratio">1</property>
  <property name="kdenlive:original.meta.media.0.codec.colorspace">709</property>
  <property name="kdenlive:original.meta.media.0.codec.name">mpeg4</property>
  <property name="kdenlive:original.meta.media.0.codec.long_name">MPEG-4 part 2</property>
  <property name="kdenlive:original.meta.media.0.codec.bit_rate">25133490</property>
  <property name="kdenlive:original.meta.attr.0.stream.handler_name.markup">VideoHandler</property>
  <property name="kdenlive:original.meta.attr.major_brand.markup">isom</property>
  <property name="kdenlive:original.meta.attr.minor_version.markup">512</property>
  <property name="kdenlive:original.meta.attr.compatible_brands.markup">isomiso2mp41</property>
  <property name="kdenlive:original.meta.attr.encoder.markup">Lavf58.61.100</property>
  <property name="kdenlive:original.seekable">1</property>
  <property name="kdenlive:original.width">1920</property>
  <property name="kdenlive:original.height">1080</property>
  <property name="kdenlive:original.meta.media.sample_aspect_num">1</property>
  <property name="kdenlive:original.meta.media.sample_aspect_den">1</property>
  <property name="kdenlive:original.aspect_ratio">1</property>
  <property name="kdenlive:original.audio_index">-1</property>
  <property name="kdenlive:original.video_index">0</property>
  <property name="kdenlive:original.mute_on_pause">0</property>
  <property name="kdenlive:original.mlt_service">avformat-novalidate</property>
  <property name="kdenlive:original.kdenlive:folderid">81</property>
  <property name="kdenlive:original.meta.media.frame_rate_num">30</property>
  <property name="kdenlive:original.meta.media.frame_rate_den">1</property>
  <property name="kdenlive:original.meta.media.colorspace">709</property>
  <property name="kdenlive:original.meta.media.color_trc">2</property>
  <property name="kdenlive:original.meta.media.width">1920</property>
  <property name="kdenlive:original.meta.media.height">1080</property>
  <property name="kdenlive:original.meta.media.color_range">mpeg</property>
  <property name="kdenlive:original.kdenlive:id">137</property>
  <property name="kdenlive:original.kdenlive:file_size">42625445</property>
  <property name="kdenlive:original.kdenlive:file_hash">1b02eb4bd2bc257dabfe508a7aa1e0f0</property>
  <property name="kdenlive:original.backup">1</property>
  <property name="global_feed">1</property>
  <property name="xml">was here</property>
  <property name="meta.media.nb_streams">1</property>
  <property name="meta.media.0.stream.type">video</property>
  <property name="meta.media.0.stream.frame_rate">30</property>
  <property name="meta.media.0.stream.sample_aspect_ratio">1</property>
  <property name="meta.media.0.codec.width">960</property>
  <property name="meta.media.0.codec.height">540</property>
  <property name="meta.media.0.codec.rotate">0</property>
  <property name="meta.media.0.codec.frame_rate">1000</property>
  <property name="meta.media.0.codec.pix_fmt">yuvj420p</property>
  <property name="meta.media.0.codec.sample_aspect_ratio">1</property>
  <property name="meta.media.0.codec.colorspace">601</property>
  <property name="meta.media.0.codec.name">mjpeg</property>
  <property name="meta.media.0.codec.long_name">MJPEG (Motion JPEG)</property>
  <property name="meta.media.0.codec.bit_rate">0</property>
  <property name="meta.attr.0.stream.HANDLER_NAME.markup">VideoHandler</property>
  <property name="meta.attr.0.stream.ENCODER.markup">Lavc58.91.100 mjpeg</property>
  <property name="meta.attr.0.stream.DURATION.markup">00:00:13.566000000</property>
  <property name="meta.attr.COMPATIBLE_BRANDS.markup">isomiso2mp41</property>
  <property name="meta.attr.MAJOR_BRAND.markup">isom</property>
  <property name="meta.attr.MINOR_VERSION.markup">512</property>
  <property name="meta.attr.ENCODER.markup">Lavf58.45.100</property>
  <property name="meta.media.sample_aspect_num">1</property>
  <property name="meta.media.sample_aspect_den">1</property>
  <property name="meta.media.frame_rate_num">30</property>
  <property name="meta.media.frame_rate_den">1</property>
  <property name="meta.media.colorspace">601</property>
  <property name="meta.media.color_trc">2</property>
  <property name="meta.media.width">960</property>
  <property name="meta.media.height">540</property>
  <property name="meta.media.color_range">full</property>
  <property name="meta.media.top_field_first">0</property>
  <property name="meta.media.progressive">1</property>
  <property name="set.test_audio">1</property>
  <property name="set.test_image">0</property>
 </producer>
 <producer id="producer206" in="00:00:00.000" out="00:00:09.767">
  <property name="length">294</property>
  <property name="eof">pause</property>
  <property name="resource">/home/ryankelln/.cache/kdenlive/proxy/71ca51fd66f0b3ebd7a1cd70c4c3236e.mkv</property>
  <property name="audio_index">-1</property>
  <property name="video_index">0</property>
  <property name="mute_on_pause">0</property>
  <property name="mlt_service">avformat-novalidate</property>
  <property name="seekable">1</property>
  <property name="aspect_ratio">1</property>
  <property name="kdenlive:clipname">ReReVST-fall_sparkles-suzy_caleb_double_time_1_no-global_style=2.0_content=1.0.mp4</property>
  <property name="kdenlive:folderid">103</property>
  <property name="kdenlive:id">118</property>
  <property name="kdenlive:file_size">23869173</property>
  <property name="kdenlive:file_hash">71ca51fd66f0b3ebd7a1cd70c4c3236e</property>
  <property name="kdenlive:proxy">/home/ryankelln/.cache/kdenlive/proxy/71ca51fd66f0b3ebd7a1cd70c4c3236e.mkv</property>
  <property name="kdenlive:originalurl">content/musicians/ReReVST-fall_sparkles-suzy_caleb_double_time_1_no-global_style=2.0_content=1.0.mp4</property>
  <property name="kdenlive:original.mlt_type">producer</property>
  <property name="kdenlive:original.in">0</property>
  <property name="kdenlive:original.out">293</property>
  <property name="kdenlive:original.length">294</property>
  <property name="kdenlive:original.eof">pause</property>
  <property name="kdenlive:original.resource">content/musicians/ReReVST-fall_sparkles-suzy_caleb_double_time_1_no-global_style=2.0_content=1.0.mp4</property>
  <property name="kdenlive:original.meta.media.nb_streams">1</property>
  <property name="kdenlive:original.meta.media.0.stream.type">video</property>
  <property name="kdenlive:original.meta.media.0.stream.frame_rate">30</property>
  <property name="kdenlive:original.meta.media.0.stream.sample_aspect_ratio">0</property>
  <property name="kdenlive:original.meta.media.0.codec.width">1920</property>
  <property name="kdenlive:original.meta.media.0.codec.height">1080</property>
  <property name="kdenlive:original.meta.media.0.codec.rotate">0</property>
  <property name="kdenlive:original.meta.media.0.codec.frame_rate">30</property>
  <property name="kdenlive:original.meta.media.0.codec.pix_fmt">yuv420p</property>
  <property name="kdenlive:original.meta.media.0.codec.sample_aspect_ratio">1</property>
  <property name="kdenlive:original.meta.media.0.codec.colorspace">709</property>
  <property name="kdenlive:original.meta.media.0.codec.name">mpeg4</property>
  <property name="kdenlive:original.meta.media.0.codec.long_name">MPEG-4 part 2</property>
  <property name="kdenlive:original.meta.media.0.codec.bit_rate">19483058</property>
  <property name="kdenlive:original.meta.attr.0.stream.handler_name.markup">VideoHandler</property>
  <property name="kdenlive:original.meta.attr.major_brand.markup">isom</property>
  <property name="kdenlive:original.meta.attr.minor_version.markup">512</property>
  <property name="kdenlive:original.meta.attr.compatible_brands.markup">isomiso2mp41</property>
  <property name="kdenlive:original.meta.attr.encoder.markup">Lavf58.61.100</property>
  <property name="kdenlive:original.seekable">1</property>
  <property name="kdenlive:original.width">1920</property>
  <property name="kdenlive:original.height">1080</property>
  <property name="kdenlive:original.meta.media.sample_aspect_num">1</property>
  <property name="kdenlive:original.meta.media.sample_aspect_den">1</property>
  <property name="kdenlive:original.aspect_ratio">1</property>
  <property name="kdenlive:original.audio_index">-1</property>
  <property name="kdenlive:original.video_index">0</property>
  <property name="kdenlive:original.mute_on_pause">0</property>
  <property name="kdenlive:original.mlt_service">avformat-novalidate</property>
  <property name="kdenlive:original.kdenlive:folderid">103</property>
  <property name="kdenlive:original.meta.media.frame_rate_num">30</property>
  <property name="kdenlive:original.meta.media.frame_rate_den">1</property>
  <property name="kdenlive:original.meta.media.colorspace">709</property>
  <property name="kdenlive:original.meta.media.color_trc">2</property>
  <property name="kdenlive:original.meta.media.width">1920</property>
  <property name="kdenlive:original.meta.media.height">1080</property>
  <property name="kdenlive:original.meta.media.color_range">mpeg</property>
  <property name="kdenlive:original.kdenlive:id">140</property>
  <property name="kdenlive:original.kdenlive:file_size">23869173</property>
  <property name="kdenlive:original.kdenlive:file_hash">71ca51fd66f0b3ebd7a1cd70c4c3236e</property>
  <property name="kdenlive:original.backup">1</property>
  <property name="global_feed">1</property>
  <property name="xml">was here</property>
  <property name="meta.media.nb_streams">1</property>
  <property name="meta.media.0.stream.type">video</property>
  <property name="meta.media.0.stream.frame_rate">30</property>
  <property name="meta.media.0.stream.sample_aspect_ratio">1</property>
  <property name="meta.media.0.codec.width">960</property>
  <property name="meta.media.0.codec.height">540</property>
  <property name="meta.media.0.codec.rotate">0</property>
  <property name="meta.media.0.codec.frame_rate">1000</property>
  <property name="meta.media.0.codec.pix_fmt">yuvj420p</property>
  <property name="meta.media.0.codec.sample_aspect_ratio">1</property>
  <property name="meta.media.0.codec.colorspace">601</property>
  <property name="meta.media.0.codec.name">mjpeg</property>
  <property name="meta.media.0.codec.long_name">MJPEG (Motion JPEG)</property>
  <property name="meta.media.0.codec.bit_rate">0</property>
  <property name="meta.attr.0.stream.HANDLER_NAME.markup">VideoHandler</property>
  <property name="meta.attr.0.stream.ENCODER.markup">Lavc58.91.100 mjpeg</property>
  <property name="meta.attr.0.stream.DURATION.markup">00:00:09.800000000</property>
  <property name="meta.attr.COMPATIBLE_BRANDS.markup">isomiso2mp41</property>
  <property name="meta.attr.MAJOR_BRAND.markup">isom</property>
  <property name="meta.attr.MINOR_VERSION.markup">512</property>
  <property name="meta.attr.ENCODER.markup">Lavf58.45.100</property>
  <property name="meta.media.sample_aspect_num">1</property>
  <property name="meta.media.sample_aspect_den">1</property>
  <property name="meta.media.frame_rate_num">30</property>
  <property name="meta.media.frame_rate_den">1</property>
  <property name="meta.media.colorspace">601</property>
  <property name="meta.media.color_trc">2</property>
  <property name="meta.media.width">960</property>
  <property name="meta.media.height">540</property>
  <property name="meta.media.color_range">full</property>
  <property name="meta.media.top_field_first">0</property>
  <property name="meta.media.progressive">1</property>
  <property name="set.test_audio">1</property>
  <property name="set.test_image">0</property>
 </producer>
 <producer id="producer207" in="00:00:00.000" out="00:00:09.800">
  <property name="length">295</property>
  <property name="eof">pause</property>
  <property name="resource">/home/ryankelln/.cache/kdenlive/proxy/f2a9f4561d257aee6ed91ad9f93316cd.mkv</property>
  <property name="audio_index">-1</property>
  <property name="video_index">0</property>
  <property name="mute_on_pause">0</property>
  <property name="mlt_service">avformat-novalidate</property>
  <property name="seekable">1</property>
  <property name="aspect_ratio">1</property>
  <property name="kdenlive:clipname">ReReVST-rowboats_2-suzy_chris_end_3_no-global_style=2.0_content=1.0.mp4</property>
  <property name="kdenlive:folderid">103</property>
  <property name="kdenlive:id">119</property>
  <property name="kdenlive:file_size">51682953</property>
  <property name="kdenlive:file_hash">f2a9f4561d257aee6ed91ad9f93316cd</property>
  <property name="kdenlive:proxy">/home/ryankelln/.cache/kdenlive/proxy/f2a9f4561d257aee6ed91ad9f93316cd.mkv</property>
  <property name="kdenlive:originalurl">content/musicians/ReReVST-rowboats_2-suzy_chris_end_3_no-global_style=2.0_content=1.0.mp4</property>
  <property name="kdenlive:original.mlt_type">producer</property>
  <property name="kdenlive:original.in">0</property>
  <property name="kdenlive:original.out">294</property>
  <property name="kdenlive:original.length">295</property>
  <property name="kdenlive:original.eof">pause</property>
  <property name="kdenlive:original.resource">content/musicians/ReReVST-rowboats_2-suzy_chris_end_3_no-global_style=2.0_content=1.0.mp4</property>
  <property name="kdenlive:original.meta.media.nb_streams">1</property>
  <property name="kdenlive:original.meta.media.0.stream.type">video</property>
  <property name="kdenlive:original.meta.media.0.stream.frame_rate">30</property>
  <property name="kdenlive:original.meta.media.0.stream.sample_aspect_ratio">0</property>
  <property name="kdenlive:original.meta.media.0.codec.width">1920</property>
  <property name="kdenlive:original.meta.media.0.codec.height">1080</property>
  <property name="kdenlive:original.meta.media.0.codec.rotate">0</property>
  <property name="kdenlive:original.meta.media.0.codec.frame_rate">30</property>
  <property name="kdenlive:original.meta.media.0.codec.pix_fmt">yuv420p</property>
  <property name="kdenlive:original.meta.media.0.codec.sample_aspect_ratio">1</property>
  <property name="kdenlive:original.meta.media.0.codec.colorspace">709</property>
  <property name="kdenlive:original.meta.media.0.codec.name">mpeg4</property>
  <property name="kdenlive:original.meta.media.0.codec.long_name">MPEG-4 part 2</property>
  <property name="kdenlive:original.meta.media.0.codec.bit_rate">42044849</property>
  <property name="kdenlive:original.meta.attr.0.stream.handler_name.markup">VideoHandler</property>
  <property name="kdenlive:original.meta.attr.major_brand.markup">isom</property>
  <property name="kdenlive:original.meta.attr.minor_version.markup">512</property>
  <property name="kdenlive:original.meta.attr.compatible_brands.markup">isomiso2mp41</property>
  <property name="kdenlive:original.meta.attr.encoder.markup">Lavf58.61.100</property>
  <property name="kdenlive:original.seekable">1</property>
  <property name="kdenlive:original.width">1920</property>
  <property name="kdenlive:original.height">1080</property>
  <property name="kdenlive:original.meta.media.sample_aspect_num">1</property>
  <property name="kdenlive:original.meta.media.sample_aspect_den">1</property>
  <property name="kdenlive:original.aspect_ratio">1</property>
  <property name="kdenlive:original.audio_index">-1</property>
  <property name="kdenlive:original.video_index">0</property>
  <property name="kdenlive:original.mute_on_pause">0</property>
  <property name="kdenlive:original.mlt_service">avformat-novalidate</property>
  <property name="kdenlive:original.kdenlive:folderid">103</property>
  <property name="kdenlive:original.meta.media.frame_rate_num">30</property>
  <property name="kdenlive:original.meta.media.frame_rate_den">1</property>
  <property name="kdenlive:original.meta.media.colorspace">709</property>
  <property name="kdenlive:original.meta.media.color_trc">2</property>
  <property name="kdenlive:original.meta.media.width">1920</property>
  <property name="kdenlive:original.meta.media.height">1080</property>
  <property name="kdenlive:original.meta.media.color_range">mpeg</property>
  <property name="kdenlive:original.kdenlive:id">141</property>
  <property name="kdenlive:original.kdenlive:file_size">51682953</property>
  <property name="kdenlive:original.kdenlive:file_hash">f2a9f4561d257aee6ed91ad9f93316cd</property>
  <property name="kdenlive:original.backup">1</property>
  <property name="global_feed">1</property>
  <property name="xml">was here</property>
  <property name="meta.media.nb_streams">1</property>
  <property name="meta.media.0.stream.type">video</property>
  <property name="meta.media.0.stream.frame_rate">30</property>
  <property name="meta.media.0.stream.sample_aspect_ratio">1</property>
  <property name="meta.media.0.codec.width">960</property>
  <property name="meta.media.0.codec.height">540</property>
  <property name="meta.media.0.codec.rotate">0</property>
  <property name="meta.media.0.codec.frame_rate">1000</property>
  <property name="meta.media.0.codec.pix_fmt">yuvj420p</property>
  <property name="meta.media.0.codec.sample_aspect_ratio">1</property>
  <property name="meta.media.0.codec.colorspace">601</property>
  <property name="meta.media.0.codec.name">mjpeg</property>
  <property name="meta.media.0.codec.long_name">MJPEG (Motion JPEG)</property>
  <property name="meta.media.0.codec.bit_rate">0</property>
  <property name="meta.attr.0.stream.HANDLER_NAME.markup">VideoHandler</property>
  <property name="meta.attr.0.stream.ENCODER.markup">Lavc58.91.100 mjpeg</property>
  <property name="meta.attr.0.stream.DURATION.markup">00:00:09.833000000</property>
  <property name="meta.attr.COMPATIBLE_BRANDS.markup">isomiso2mp41</property>
  <property name="meta.attr.MAJOR_BRAND.markup">isom</property>
  <property name="meta.attr.MINOR_VERSION.markup">512</property>
  <property name="meta.attr.ENCODER.markup">Lavf58.45.100</property>
  <property name="meta.media.sample_aspect_num">1</property>
  <property name="meta.media.sample_aspect_den">1</property>
  <property name="meta.media.frame_rate_num">30</property>
  <property name="meta.media.frame_rate_den">1</property>
  <property name="meta.media.colorspace">601</property>
  <property name="meta.media.color_trc">2</property>
  <property name="meta.media.width">960</property>
  <property name="meta.media.height">540</property>
  <property name="meta.media.color_range">full</property>
  <property name="meta.media.top_field_first">0</property>
  <property name="meta.media.progressive">1</property>
  <property name="set.test_audio">1</property>
  <property name="set.test_image">0</property>
 </producer>
 <playlist id="playlist30">
  <blank length="00:00:07.000"/>
  <entry producer="producer202" in="00:00:00.000" out="00:00:05.967">
   <property name="kdenlive:id">143</property>
  </entry>
  <blank length="00:00:33.433"/>
  <entry producer="producer203" in="00:00:00.000" out="00:00:05.967">
   <property name="kdenlive:id">144</property>
  </entry>
  <entry producer="producer203" in="00:00:00.000" out="00:00:05.967">
   <property name="kdenlive:id">144</property>
  </entry>
  <entry producer="producer203" in="00:00:00.000" out="00:00:03.500">
   <property name="kdenlive:id">144</property>
  </entry>
  <blank length="00:02:11.633"/>
  <entry producer="producer204" in="00:03:04.033" out="00:03:11.533">
   <property name="kdenlive:id">80</property>
   <property name="kdenlive:activeeffect">1</property>
   <filter id="filter490" in="00:03:10.200" out="00:03:11.533">
    <property name="start">1</property>
    <property name="mlt_service">brightness</property>
    <property name="kdenlive_id">fade_to_black</property>
    <property name="end">0</property>
    <property name="alpha">-1</property>
    <property name="kdenlive:collapsed">0</property>
   </filter>
   <filter id="filter491">
    <property name="mlt_service">avfilter.gblur</property>
    <property name="kdenlive_id">avfilter.gblur</property>
    <property name="av.sigma">3</property>
    <property name="av.steps">1</property>
    <property name="av.planes">7</property>
    <property name="av.sigmaV">-1</property>
    <property name="kdenlive:collapsed">0</property>
    <property name="disable">0</property>
   </filter>
   <filter id="filter492">
    <property name="version">2.2</property>
    <property name="mlt_service">frei0r.cartoon</property>
    <property name="kdenlive_id">frei0r.cartoon</property>
    <property name="triplevel">00:03:04.033=0.999</property>
    <property name="diffspace">00:03:04.033=0.00390625</property>
    <property name="kdenlive:collapsed">0</property>
   </filter>
   <filter id="filter494">
    <property name="rotate_center">1</property>
    <property name="mlt_service">qtblend</property>
    <property name="kdenlive_id">qtblend</property>
    <property name="rect">00:03:04.033=0 0 1920 1080 0.660000</property>
    <property name="rotation">00:03:04.033=0</property>
    <property name="compositing">0</property>
    <property name="distort">0</property>
    <property name="kdenlive:collapsed">0</property>
   </filter>
   <filter id="filter493">
    <property name="mode">alpha</property>
    <property name="alpha_operation">sub</property>
    <property name="invert">0</property>
    <property name="feather">29</property>
    <property name="feather_passes">1</property>
    <property name="mlt_service">rotoscoping</property>
    <property name="kdenlive_id">rotoscoping</property>
    <property name="spline">{
    "5521": [
        [
            [
                -0.0849056603773585,
                0.35074626865671643
            ],
            [
                -0.049266247379454925,
                0.541044776119403
            ],
            [
                -0.02285115303983228,
                0.541044776119403
            ]
        ],
        [
            [
                0.05639412997903564,
                0.541044776119403
            ],
            [
                0.08280922431865828,
                0.541044776119403
            ],
            [
                0.09706498951781971,
                0.5544776119402985
            ]
        ],
        [
            [
                0.28658280922431867,
                0.7104477611940296
            ],
            [
                0.30083857442348005,
                0.7238805970149254
            ],
            [
                0.31006289308176105,
                0.7119402985074623
            ]
        ],
        [
            [
                0.3419287211740042,
                0.6108208955223878
            ],
            [
                0.35115303983228513,
                0.5988805970149254
            ],
            [
                0.36415094339622645,
                0.5347014925373136
            ]
        ],
        [
            [
                0.3727463312368972,
                0.32723880597014926
            ],
            [
                0.3857442348008385,
                0.2630597014925373
            ],
            [
                0.3909853249475891,
                0.20708955223880596
            ]
        ],
        [
            [
                0.42096436058700204,
                0.11716417910447761
            ],
            [
                0.44234800838574423,
                0.08582089552238806
            ],
            [
                0.4570230607966457,
                0.048507462686567165
            ]
        ],
        [
            [
                0.48784067085953864,
                0.03395522388059702
            ],
            [
                0.5146750524109015,
                0.024253731343283583
            ],
            [
                0.5477987421383645,
                0.03320895522388059
            ]
        ],
        [
            [
                0.5911949685534591,
                0.08582089552238806
            ],
            [
                0.6268343815513627,
                0.12686567164179105
            ],
            [
                0.6368972746331237,
                0.17985074626865677
            ]
        ],
        [
            [
                0.619916142557652,
                0.35746268656716407
            ],
            [
                0.629979035639413,
                0.4104477611940298
            ],
            [
                0.6438155136268343,
                0.4761194029850747
            ]
        ],
        [
            [
                0.7631027253668763,
                0.5970149253731343
            ],
            [
                0.7914046121593291,
                0.6604477611940299
            ],
            [
                0.80020964360587,
                0.6574626865671642
            ]
        ],
        [
            [
                0.8266247379454925,
                0.6485074626865672
            ],
            [
                0.8354297693920335,
                0.6455223880597015
            ],
            [
                0.8538784067085954,
                0.6492537313432836
            ]
        ],
        [
            [
                0.9092243186582808,
                0.6604477611940299
            ],
            [
                0.9276729559748428,
                0.664179104477612
            ],
            [
                0.9477987421383648,
                0.6619402985074627
            ]
        ],
        [
            [
                1.0081761006289307,
                0.655223880597015
            ],
            [
                1.0283018867924527,
                0.6529850746268657
            ],
            [
                1.079454926624738,
                0.5492537313432836
            ]
        ],
        [
            [
                1.232914046121593,
                0.2380597014925373
            ],
            [
                1.2840670859538783,
                0.13432835820895522
            ],
            [
                1.2589098532494758,
                0.04402985074626864
            ]
        ],
        [
            [
                1.1834381551362685,
                -0.22686567164179108
            ],
            [
                1.158280922431866,
                -0.31716417910447764
            ],
            [
                0.8811320754716981,
                -0.3358208955223881
            ]
        ],
        [
            [
                0.04968553459119495,
                -0.3917910447761194
            ],
            [
                -0.22746331236897274,
                -0.4104477611940298
            ],
            [
                -0.19182389937106917,
                -0.22014925373134325
            ]
        ]
    ],
    "5568": [
        [
            [
                -0.0849056603773585,
                0.35074626865671643
            ],
            [
                -0.049266247379454925,
                0.541044776119403
            ],
            [
                -0.02285115303983228,
                0.541044776119403
            ]
        ],
        [
            [
                0.05639412997903564,
                0.541044776119403
            ],
            [
                0.08280922431865828,
                0.541044776119403
            ],
            [
                0.09706498951781971,
                0.5544776119402985
            ]
        ],
        [
            [
                0.28658280922431867,
                0.7104477611940296
            ],
            [
                0.30083857442348005,
                0.7238805970149254
            ],
            [
                0.31006289308176105,
                0.7119402985074623
            ]
        ],
        [
            [
                0.33144654088050307,
                0.575373134328358
            ],
            [
                0.34067085953878407,
                0.5634328358208955
            ],
            [
                0.35115303983228513,
                0.375
            ]
        ],
        [
            [
                0.3668763102725367,
                0.32089552238805974
            ],
            [
                0.3857442348008385,
                0.2630597014925373
            ],
            [
                0.3909853249475891,
                0.20708955223880596
            ]
        ],
        [
            [
                0.42096436058700204,
                0.11716417910447761
            ],
            [
                0.44234800838574423,
                0.08582089552238806
            ],
            [
                0.4570230607966457,
                0.048507462686567165
            ]
        ],
        [
            [
                0.492033542976939,
                0.047014925373134335
            ],
            [
                0.5188679245283019,
                0.03731343283582089
            ],
            [
                0.5519916142557649,
                0.04626865671641791
            ]
        ],
        [
            [
                0.5911949685534591,
                0.08582089552238806
            ],
            [
                0.6268343815513627,
                0.12686567164179105
            ],
            [
                0.6368972746331237,
                0.17985074626865677
            ]
        ],
        [
            [
                0.619916142557652,
                0.35746268656716407
            ],
            [
                0.629979035639413,
                0.4104477611940298
            ],
            [
                0.6771488469601677,
                0.48320895522388063
            ]
        ],
        [
            [
                0.7117400419287211,
                0.4776119402985074
            ],
            [
                0.7914046121593291,
                0.6604477611940299
            ],
            [
                0.80020964360587,
                0.6574626865671642
            ]
        ],
        [
            [
                0.8266247379454925,
                0.6485074626865672
            ],
            [
                0.8354297693920335,
                0.6455223880597015
            ],
            [
                0.8538784067085954,
                0.6492537313432836
            ]
        ],
        [
            [
                0.9092243186582808,
                0.6604477611940299
            ],
            [
                0.9276729559748428,
                0.664179104477612
            ],
            [
                0.9477987421383648,
                0.6619402985074627
            ]
        ],
        [
            [
                1.0081761006289307,
                0.655223880597015
            ],
            [
                1.0283018867924527,
                0.6529850746268657
            ],
            [
                1.079454926624738,
                0.5492537313432836
            ]
        ],
        [
            [
                1.232914046121593,
                0.2380597014925373
            ],
            [
                1.2840670859538783,
                0.13432835820895522
            ],
            [
                1.2589098532494758,
                0.04402985074626864
            ]
        ],
        [
            [
                1.1834381551362685,
                -0.22686567164179108
            ],
            [
                1.158280922431866,
                -0.31716417910447764
            ],
            [
                0.8811320754716981,
                -0.3358208955223881
            ]
        ],
        [
            [
                0.04968553459119495,
                -0.3917910447761194
            ],
            [
                -0.22746331236897274,
                -0.4104477611940298
            ],
            [
                -0.19182389937106917,
                -0.22014925373134325
            ]
        ]
    ],
    "5599": [
        [
            [
                -0.0849056603773585,
                0.35074626865671643
            ],
            [
                -0.049266247379454925,
                0.541044776119403
            ],
            [
                -0.02285115303983228,
                0.541044776119403
            ]
        ],
        [
            [
                0.05639412997903564,
                0.541044776119403
            ],
            [
                0.08280922431865828,
                0.541044776119403
            ],
            [
                0.09706498951781971,
                0.5544776119402985
            ]
        ],
        [
            [
                0.2636887745378312,
                0.6683853459972859
            ],
            [
                0.27794453973699257,
                0.6818181818181819
            ],
            [
                0.28716885839527356,
                0.6698778833107186
            ]
        ],
        [
            [
                0.2701496093005526,
                0.5109650610583445
            ],
            [
                0.2793739279588336,
                0.49902476255088196
            ],
            [
                0.298785965662676,
                0.3397305845857458
            ]
        ],
        [
            [
                0.3584905660377358,
                0.2425373134328358
            ],
            [
                0.3773584905660377,
                0.18470149253731344
            ],
            [
                0.3825995807127882,
                0.128731343283582
            ]
        ],
        [
            [
                0.4281578568342214,
                0.11848866355246669
            ],
            [
                0.4495415046329636,
                0.08714537997037712
            ],
            [
                0.46421655704386505,
                0.049831947134556236
            ]
        ],
        [
            [
                0.4994750908188902,
                0.04569044092514527
            ],
            [
                0.5263094723702529,
                0.035988948387831836
            ],
            [
                0.5594331620977161,
                0.044944172268428846
            ]
        ],
        [
            [
                0.5911949685534591,
                0.08582089552238806
            ],
            [
                0.6268343815513627,
                0.12686567164179105
            ],
            [
                0.6368972746331237,
                0.17985074626865677
            ]
        ],
        [
            [
                0.619916142557652,
                0.35746268656716407
            ],
            [
                0.629979035639413,
                0.4104477611940298
            ],
            [
                0.6771488469601677,
                0.48320895522388063
            ]
        ],
        [
            [
                0.7117400419287211,
                0.4776119402985074
            ],
            [
                0.7914046121593291,
                0.6604477611940299
            ],
            [
                0.80020964360587,
                0.6574626865671642
            ]
        ],
        [
            [
                0.8266247379454925,
                0.6485074626865672
            ],
            [
                0.8354297693920335,
                0.6455223880597015
            ],
            [
                0.8538784067085954,
                0.6492537313432836
            ]
        ],
        [
            [
                0.9092243186582808,
                0.6604477611940299
            ],
            [
                0.9276729559748428,
                0.664179104477612
            ],
            [
                0.9477987421383648,
                0.6619402985074627
            ]
        ],
        [
            [
                1.0081761006289307,
                0.655223880597015
            ],
            [
                1.0283018867924527,
                0.6529850746268657
            ],
            [
                1.079454926624738,
                0.5492537313432836
            ]
        ],
        [
            [
                1.232914046121593,
                0.2380597014925373
            ],
            [
                1.2840670859538783,
                0.13432835820895522
            ],
            [
                1.2589098532494758,
                0.04402985074626864
            ]
        ],
        [
            [
                1.1834381551362685,
                -0.22686567164179108
            ],
            [
                1.158280922431866,
                -0.31716417910447764
            ],
            [
                0.8811320754716981,
                -0.3358208955223881
            ]
        ],
        [
            [
                0.04968553459119495,
                -0.3917910447761194
            ],
            [
                -0.22746331236897274,
                -0.4104477611940298
            ],
            [
                -0.19182389937106917,
                -0.22014925373134325
            ]
        ]
    ],
    "5612": [
        [
            [
                -0.0849056603773585,
                0.35074626865671643
            ],
            [
                -0.049266247379454925,
                0.541044776119403
            ],
            [
                -0.02285115303983228,
                0.541044776119403
            ]
        ],
        [
            [
                0.05639412997903564,
                0.541044776119403
            ],
            [
                0.08280922431865828,
                0.541044776119403
            ],
            [
                0.09706498951781971,
                0.5544776119402985
            ]
        ],
        [
            [
                0.25408805031446546,
                0.6507462686567159
            ],
            [
                0.26834381551362685,
                0.664179104477612
            ],
            [
                0.27756813417190784,
                0.6522388059701486
            ]
        ],
        [
            [
                0.24444444444444438,
                0.483955223880597
            ],
            [
                0.25366876310272535,
                0.47201492537313433
            ],
            [
                0.2768255797205819,
                0.3249401845733166
            ]
        ],
        [
            [
                0.39098532494758914,
                0.3694029850746268
            ],
            [
                0.40985324947589097,
                0.31156716417910446
            ],
            [
                0.41509433962264153,
                0.25559701492537296
            ]
        ],
        [
            [
                0.4311744842927328,
                0.1190440925145266
            ],
            [
                0.452558132091475,
                0.08770080893243705
            ],
            [
                0.46723318450237644,
                0.050387376096616164
            ]
        ],
        [
            [
                0.5025957399139019,
                0.045135011963085336
            ],
            [
                0.5294301214652647,
                0.03543351942577191
            ],
            [
                0.5625538111927278,
                0.04438874330636892
            ]
        ],
        [
            [
                0.5911949685534591,
                0.08582089552238806
            ],
            [
                0.6268343815513627,
                0.12686567164179105
            ],
            [
                0.6368972746331237,
                0.17985074626865677
            ]
        ],
        [
            [
                0.619916142557652,
                0.35746268656716407
            ],
            [
                0.629979035639413,
                0.4104477611940298
            ],
            [
                0.6771488469601677,
                0.48320895522388063
            ]
        ],
        [
            [
                0.7117400419287211,
                0.4776119402985074
            ],
            [
                0.7914046121593291,
                0.6604477611940299
            ],
            [
                0.80020964360587,
                0.6574626865671642
            ]
        ],
        [
            [
                0.8266247379454925,
                0.6485074626865672
            ],
            [
                0.8354297693920335,
                0.6455223880597015
            ],
            [
                0.8538784067085954,
                0.6492537313432836
            ]
        ],
        [
            [
                0.9092243186582808,
                0.6604477611940299
            ],
            [
                0.9276729559748428,
                0.664179104477612
            ],
            [
                0.9477987421383648,
                0.6619402985074627
            ]
        ],
        [
            [
                1.0081761006289307,
                0.655223880597015
            ],
            [
                1.0283018867924527,
                0.6529850746268657
            ],
            [
                1.079454926624738,
                0.5492537313432836
            ]
        ],
        [
            [
                1.232914046121593,
                0.2380597014925373
            ],
            [
                1.2840670859538783,
                0.13432835820895522
            ],
            [
                1.2589098532494758,
                0.04402985074626864
            ]
        ],
        [
            [
                1.1834381551362685,
                -0.22686567164179108
            ],
            [
                1.158280922431866,
                -0.31716417910447764
            ],
            [
                0.8811320754716981,
                -0.3358208955223881
            ]
        ],
        [
            [
                0.04968553459119495,
                -0.3917910447761194
            ],
            [
                -0.22746331236897274,
                -0.4104477611940298
            ],
            [
                -0.19182389937106917,
                -0.22014925373134325
            ]
        ]
    ],
    "5699": [
        [
            [
                -0.0849056603773585,
                0.35074626865671643
            ],
            [
                -0.049266247379454925,
                0.541044776119403
            ],
            [
                -0.02285115303983228,
                0.541044776119403
            ]
        ],
        [
            [
                0.05639412997903564,
                0.541044776119403
            ],
            [
                0.08280922431865828,
                0.541044776119403
            ],
            [
                0.09706498951781971,
                0.5544776119402985
            ]
        ],
        [
            [
                0.28658280922431867,
                0.7104477611940296
            ],
            [
                0.30083857442348005,
                0.7238805970149254
            ],
            [
                0.31006289308176105,
                0.7119402985074623
            ]
        ],
        [
            [
                0.2821802935010482,
                0.5548507462686566
            ],
            [
                0.29140461215932917,
                0.5429104477611941
            ],
            [
                0.339622641509434,
                0.4776119402985074
            ]
        ],
        [
            [
                0.4077568134171908,
                0.3526119402985074
            ],
            [
                0.42662473794549266,
                0.29477611940298504
            ],
            [
                0.43186582809224316,
                0.23880597014925362
            ]
        ],
        [
            [
                0.4513626834381551,
                0.12276119402985075
            ],
            [
                0.47274633123689724,
                0.0914179104477612
            ],
            [
                0.4874213836477987,
                0.05410447761194032
            ]
        ],
        [
            [
                0.5234800838574423,
                0.0414179104477612
            ],
            [
                0.550314465408805,
                0.03171641791044776
            ],
            [
                0.5834381551362681,
                0.04067164179104477
            ]
        ],
        [
            [
                0.5911949685534591,
                0.08582089552238806
            ],
            [
                0.6268343815513627,
                0.12686567164179105
            ],
            [
                0.6368972746331237,
                0.17985074626865677
            ]
        ],
        [
            [
                0.619916142557652,
                0.35746268656716407
            ],
            [
                0.629979035639413,
                0.4104477611940298
            ],
            [
                0.6771488469601677,
                0.48320895522388063
            ]
        ],
        [
            [
                0.7117400419287211,
                0.4776119402985074
            ],
            [
                0.7914046121593291,
                0.6604477611940299
            ],
            [
                0.80020964360587,
                0.6574626865671642
            ]
        ],
        [
            [
                0.8266247379454925,
                0.6485074626865672
            ],
            [
                0.8354297693920335,
                0.6455223880597015
            ],
            [
                0.8538784067085954,
                0.6492537313432836
            ]
        ],
        [
            [
                0.9092243186582808,
                0.6604477611940299
            ],
            [
                0.9276729559748428,
                0.664179104477612
            ],
            [
                0.9477987421383648,
                0.6619402985074627
            ]
        ],
        [
            [
                1.0081761006289307,
                0.655223880597015
            ],
            [
                1.0283018867924527,
                0.6529850746268657
            ],
            [
                1.079454926624738,
                0.5492537313432836
            ]
        ],
        [
            [
                1.232914046121593,
                0.2380597014925373
            ],
            [
                1.2840670859538783,
                0.13432835820895522
            ],
            [
                1.2589098532494758,
                0.04402985074626864
            ]
        ],
        [
            [
                1.1834381551362685,
                -0.22686567164179108
            ],
            [
                1.158280922431866,
                -0.31716417910447764
            ],
            [
                0.8811320754716981,
                -0.3358208955223881
            ]
        ],
        [
            [
                0.04968553459119495,
                -0.3917910447761194
            ],
            [
                -0.22746331236897274,
                -0.4104477611940298
            ],
            [
                -0.19182389937106917,
                -0.22014925373134325
            ]
        ]
    ],
    "5724": [
        [
            [
                -0.0849056603773585,
                0.35074626865671643
            ],
            [
                -0.049266247379454925,
                0.541044776119403
            ],
            [
                -0.02285115303983228,
                0.541044776119403
            ]
        ],
        [
            [
                0.05639412997903564,
                0.541044776119403
            ],
            [
                0.08280922431865828,
                0.541044776119403
            ],
            [
                0.09706498951781971,
                0.5544776119402985
            ]
        ],
        [
            [
                0.28658280922431867,
                0.7104477611940296
            ],
            [
                0.30083857442348005,
                0.7238805970149254
            ],
            [
                0.31006289308176105,
                0.7119402985074623
            ]
        ],
        [
            [
                0.3492662473794549,
                0.49888059701492526
            ],
            [
                0.3584905660377358,
                0.4869402985074627
            ],
            [
                0.3972746331236897,
                0.33022388059701496
            ]
        ],
        [
            [
                0.4077568134171908,
                0.3526119402985074
            ],
            [
                0.42662473794549266,
                0.29477611940298504
            ],
            [
                0.43186582809224316,
                0.23880597014925362
            ]
        ],
        [
            [
                0.41362683438155134,
                0.12835820895522382
            ],
            [
                0.4350104821802935,
                0.09701492537313433
            ],
            [
                0.449685534591195,
                0.05970149253731344
            ]
        ],
        [
            [
                0.49412997903563954,
                0.04514925373134329
            ],
            [
                0.520964360587002,
                0.03544776119402985
            ],
            [
                0.5540880503144654,
                0.044402985074626866
            ]
        ],
        [
            [
                0.560796645702306,
                0.0876865671641791
            ],
            [
                0.5964360587002097,
                0.1287313432835821
            ],
            [
                0.6064989517819707,
                0.18171641791044782
            ]
        ],
        [
            [
                0.619916142557652,
                0.35746268656716407
            ],
            [
                0.629979035639413,
                0.4104477611940298
            ],
            [
                0.6771488469601677,
                0.48320895522388063
            ]
        ],
        [
            [
                0.7117400419287211,
                0.4776119402985074
            ],
            [
                0.7914046121593291,
                0.6604477611940299
            ],
            [
                0.80020964360587,
                0.6574626865671642
            ]
        ],
        [
            [
                0.8266247379454925,
                0.6485074626865672
            ],
            [
                0.8354297693920335,
                0.6455223880597015
            ],
            [
                0.8538784067085954,
                0.6492537313432836
            ]
        ],
        [
            [
                0.9092243186582808,
                0.6604477611940299
            ],
            [
                0.9276729559748428,
                0.664179104477612
            ],
            [
                0.9477987421383648,
                0.6619402985074627
            ]
        ],
        [
            [
                1.0081761006289307,
                0.655223880597015
            ],
            [
                1.0283018867924527,
                0.6529850746268657
            ],
            [
                1.079454926624738,
                0.5492537313432836
            ]
        ],
        [
            [
                1.232914046121593,
                0.2380597014925373
            ],
            [
                1.2840670859538783,
                0.13432835820895522
            ],
            [
                1.2589098532494758,
                0.04402985074626864
            ]
        ],
        [
            [
                1.1834381551362685,
                -0.22686567164179108
            ],
            [
                1.158280922431866,
                -0.31716417910447764
            ],
            [
                0.8811320754716981,
                -0.3358208955223881
            ]
        ],
        [
            [
                0.04968553459119495,
                -0.3917910447761194
            ],
            [
                -0.22746331236897274,
                -0.4104477611940298
            ],
            [
                -0.19182389937106917,
                -0.22014925373134325
            ]
        ]
    ]
}
</property>
    <property name="kdenlive:collapsed">0</property>
   </filter>
   <filter id="filter495">
    <property name="version">0.2</property>
    <property name="mlt_service">frei0r.coloradj_RGB</property>
    <property name="kdenlive_id">frei0r.coloradj_RGB</property>
    <property name="R">00:03:04.033=0.576</property>
    <property name="G">00:03:04.033=0.577</property>
    <property name="B">00:03:04.033=0.162</property>
    <property name="Action">0.5</property>
    <property name="Keep luma">1</property>
    <property name="Alpha controlled">0</property>
    <property name="Luma formula">1</property>
    <property name="kdenlive:collapsed">0</property>
   </filter>
  </entry>
  <blank length="00:00:43.300"/>
  <entry producer="producer205" in="00:00:00.000" out="00:00:02.200">
   <property name="kdenlive:id">114</property>
   <filter id="filter496" in="00:00:01.833" out="00:00:02.200">
    <property name="start">1</property>
    <property name="mlt_service">brightness</property>
    <property name="kdenlive_id">fade_to_black</property>
    <property name="end">0</property>
    <property name="alpha">-1</property>
    <property name="kdenlive:collapsed">0</property>
   </filter>
   <filter id="filter461" out="00:00:00.133">
    <property name="start">0</property>
    <property name="mlt_service">brightness</property>
    <property name="kdenlive_id">fade_from_black</property>
    <property name="end">1</property>
    <property name="alpha">-1</property>
   </filter>
  </entry>
  <blank length="00:00:01.700"/>
  <entry producer="producer205" in="00:00:03.933" out="00:00:06.100">
   <property name="kdenlive:id">114</property>
   <filter id="filter497" in="00:00:05.733" out="00:00:06.100">
    <property name="start">1</property>
    <property name="mlt_service">brightness</property>
    <property name="kdenlive_id">fade_to_black</property>
    <property name="end">0</property>
    <property name="alpha">-1</property>
   </filter>
   <filter id="filter462" in="00:00:03.933" out="00:00:04.067">
    <property name="start">0</property>
    <property name="mlt_service">brightness</property>
    <property name="kdenlive_id">fade_from_black</property>
    <property name="end">1</property>
    <property name="alpha">-1</property>
   </filter>
  </entry>
  <blank length="00:00:01.467"/>
  <entry producer="producer205" in="00:00:07.600" out="00:00:13.400">
   <property name="kdenlive:id">114</property>
   <filter id="filter498">
    <property name="threshold">24</property>
    <property name="slope">29</property>
    <property name="prelevel">19</property>
    <property name="postlevel">177</property>
    <property name="mlt_service">lumakey</property>
    <property name="kdenlive_id">lumakey</property>
    <property name="kdenlive:collapsed">0</property>
   </filter>
   <filter id="filter499">
    <property name="version">0.3</property>
    <property name="mlt_service">frei0r.saturat0r</property>
    <property name="kdenlive_id">frei0r.saturat0r</property>
    <property name="Saturation">00:00:07.600=0.14</property>
    <property name="kdenlive:collapsed">0</property>
   </filter>
   <filter id="filter487" in="00:00:07.600" out="00:00:07.767">
    <property name="start">0</property>
    <property name="mlt_service">brightness</property>
    <property name="kdenlive_id">fade_from_black</property>
    <property name="end">1</property>
    <property name="alpha">-1</property>
   </filter>
  </entry>
  <blank length="00:00:14.333"/>
  <entry producer="producer206" in="00:00:00.000" out="00:00:09.767">
   <property name="kdenlive:id">118</property>
   <property name="kdenlive:activeeffect">2</property>
   <filter id="filter500">
    <property name="rotate_center">1</property>
    <property name="mlt_service">qtblend</property>
    <property name="kdenlive_id">qtblend</property>
    <property name="rect">00:00:00.000=108 0 1920 1080 1.000000;00:00:06.467=108 0 1920 1080 1.000000;00:00:09.767=-107 -12 2304 1296 1.000000</property>
    <property name="rotation">00:00:00.000=0;00:00:06.467=0;00:00:09.767=0</property>
    <property name="compositing">0</property>
    <property name="distort">0</property>
    <property name="kdenlive:collapsed">0</property>
   </filter>
   <filter id="filter501">
    <property name="mode">alpha</property>
    <property name="alpha_operation">clear</property>
    <property name="invert">0</property>
    <property name="feather">100</property>
    <property name="feather_passes">3</property>
    <property name="mlt_service">rotoscoping</property>
    <property name="kdenlive_id">rotoscoping</property>
    <property name="spline">{
    "000": [
        [
            [
                0.7410901467505241,
                -0.043283582089552235
            ],
            [
                0.7117400419287211,
                -0.022388059701492536
            ],
            [
                0.6853249475890985,
                0.023880597014925373
            ]
        ],
        [
            [
                0.6060796645702307,
                0.16268656716417912
            ],
            [
                0.579664570230608,
                0.208955223880597
            ],
            [
                0.5926624737945493,
                0.3843283582089553
            ]
        ],
        [
            [
                0.6316561844863731,
                0.9104477611940299
            ],
            [
                0.6446540880503144,
                1.0858208955223883
            ],
            [
                0.6664570230607967,
                1.1261194029850745
            ]
        ],
        [
            [
                0.7318658280922431,
                1.2470149253731344
            ],
            [
                0.7536687631027253,
                1.287313432835821
            ],
            [
                0.7867924528301887,
                1.2761194029850746
            ]
        ],
        [
            [
                0.8861635220125786,
                1.2425373134328357
            ],
            [
                0.9192872117400419,
                1.2313432835820894
            ],
            [
                0.9293501048218029,
                1.1611940298507462
            ]
        ],
        [
            [
                0.9595387840670859,
                0.9507462686567163
            ],
            [
                0.9696016771488469,
                0.8805970149253731
            ],
            [
                0.9473794549266247,
                0.6791044776119404
            ]
        ],
        [
            [
                0.880712788259958,
                0.07462686567164177
            ],
            [
                0.8584905660377358,
                -0.12686567164179105
            ],
            [
                0.8291404612159329,
                -0.10597014925373134
            ]
        ]
    ],
    "003": [
        [
            [
                0.7898322851153036,
                -0.054477611940298515
            ],
            [
                0.7604821802935006,
                -0.033582089552238806
            ],
            [
                0.6556603773584901,
                0.007462686567164177
            ]
        ],
        [
            [
                0.665094339622641,
                0.11007462686567164
            ],
            [
                0.6567085953878402,
                0.1884328358208955
            ],
            [
                0.6629979035639408,
                0.3600746268656714
            ]
        ],
        [
            [
                0.6829140461215929,
                0.8805970149253731
            ],
            [
                0.724842767295597,
                1.0783582089552237
            ],
            [
                0.7466457023060793,
                1.11865671641791
            ]
        ],
        [
            [
                0.7806079664570226,
                1.235820895522388
            ],
            [
                0.8024109014675048,
                1.2761194029850744
            ],
            [
                0.8355345911949681,
                1.2649253731343282
            ]
        ],
        [
            [
                0.8929769392033539,
                1.2014925373134326
            ],
            [
                0.9261006289308171,
                1.1902985074626864
            ],
            [
                0.9361635220125781,
                1.1201492537313433
            ]
        ],
        [
            [
                0.9915094339622645,
                0.9358208955223883
            ],
            [
                1.0015723270440258,
                0.8656716417910449
            ],
            [
                1.005765199161426,
                0.6194029850746271
            ]
        ],
        [
            [
                0.9764150943396227,
                0.16417910447761203
            ],
            [
                0.8925576519916139,
                -0.06716417910447761
            ],
            [
                0.8632075471698109,
                -0.04626865671641792
            ]
        ]
    ]
}
</property>
    <property name="kdenlive:collapsed">0</property>
   </filter>
   <filter id="filter502" out="00:00:00.400">
    <property name="start">0</property>
    <property name="mlt_service">brightness</property>
    <property name="kdenlive_id">fade_from_black</property>
    <property name="end">1</property>
    <property name="alpha">-1</property>
    <property name="kdenlive:collapsed">0</property>
    <property name="disable">0</property>
   </filter>
   <filter id="filter503" in="00:00:09.500" out="00:00:09.767">
    <property name="start">1</property>
    <property name="mlt_service">brightness</property>
    <property name="kdenlive_id">fade_to_black</property>
    <property name="end">0</property>
    <property name="alpha">-1</property>
   </filter>
  </entry>
  <blank length="00:01:09.233"/>
  <entry producer="producer207" in="00:00:00.000" out="00:00:09.800">
   <property name="kdenlive:id">119</property>
  </entry>
 </playlist>
 <playlist id="playlist31"/>
 <tractor id="tractor15" in="00:00:00.000" out="00:06:01.033">
  <property name="kdenlive:trackheight">69</property>
  <property name="kdenlive:timeline_active">1</property>
  <property name="kdenlive:collapsed">0</property>
  <property name="kdenlive:track_name">Effects</property>
  <property name="kdenlive:thumbs_format"/>
  <property name="kdenlive:audio_rec"/>
  <track hide="audio" producer="playlist30"/>
  <track producer="playlist31"/>
 </tractor>
 <producer id="producer208" in="00:00:00.000" out="00:00:05.967">
  <property name="length">00:00:06:00</property>
  <property name="eof">pause</property>
  <property name="resource">/home/ryankelln/.cache/kdenlive/proxy/b24d21a301caebef02ae5ae52cdcd669.mkv</property>
  <property name="audio_index">0</property>
  <property name="video_index">1</property>
  <property name="mute_on_pause">0</property>
  <property name="mlt_service">avformat-novalidate</property>
  <property name="seekable">1</property>
  <property name="aspect_ratio">1</property>
  <property name="kdenlive:clipname">35mm Fine.mp4</property>
  <property name="kdenlive:folderid">-1</property>
  <property name="kdenlive:id">144</property>
  <property name="kdenlive:file_size">181627061</property>
  <property name="kdenlive:file_hash">b24d21a301caebef02ae5ae52cdcd669</property>
  <property name="kdenlive:proxy">/home/ryankelln/.cache/kdenlive/proxy/b24d21a301caebef02ae5ae52cdcd669.mkv</property>
  <property name="kdenlive:originalurl">content/35mm Fine.mp4</property>
  <property name="kdenlive:original.mlt_type">producer</property>
  <property name="kdenlive:original.in">0</property>
  <property name="kdenlive:original.out">179</property>
  <property name="kdenlive:original.length">180</property>
  <property name="kdenlive:original.eof">pause</property>
  <property name="kdenlive:original.resource">content/35mm Fine.mp4</property>
  <property name="kdenlive:original.meta.media.nb_streams">2</property>
  <property name="kdenlive:original.meta.media.0.stream.type">audio</property>
  <property name="kdenlive:original.meta.media.0.codec.sample_fmt">fltp</property>
  <property name="kdenlive:original.meta.media.0.codec.sample_rate">48000</property>
  <property name="kdenlive:original.meta.media.0.codec.channels">2</property>
  <property name="kdenlive:original.meta.media.0.codec.name">aac</property>
  <property name="kdenlive:original.meta.media.0.codec.long_name">AAC (Advanced Audio Coding)</property>
  <property name="kdenlive:original.meta.media.0.codec.bit_rate">317375</property>
  <property name="kdenlive:original.meta.attr.0.stream.creation_time.markup">2019-02-07T17:28:33.000000Z</property>
  <property name="kdenlive:original.meta.attr.0.stream.language.markup">eng</property>
  <property name="kdenlive:original.meta.attr.0.stream.handler_name.markup">#Mainconcept MP4 Sound Media Handler</property>
  <property name="kdenlive:original.meta.media.1.stream.type">video</property>
  <property name="kdenlive:original.meta.media.1.stream.frame_rate">24</property>
  <property name="kdenlive:original.meta.media.1.stream.sample_aspect_ratio">0</property>
  <property name="kdenlive:original.meta.media.1.codec.width">3840</property>
  <property name="kdenlive:original.meta.media.1.codec.height">2160</property>
  <property name="kdenlive:original.meta.media.1.codec.rotate">0</property>
  <property name="kdenlive:original.meta.media.1.codec.frame_rate">24</property>
  <property name="kdenlive:original.meta.media.1.codec.pix_fmt">yuv420p</property>
  <property name="kdenlive:original.meta.media.1.codec.sample_aspect_ratio">0</property>
  <property name="kdenlive:original.meta.media.1.codec.colorspace">709</property>
  <property name="kdenlive:original.meta.media.1.codec.color_trc">1</property>
  <property name="kdenlive:original.meta.media.1.codec.name">h264</property>
  <property name="kdenlive:original.meta.media.1.codec.long_name">H.264 / AVC / MPEG-4 AVC / MPEG-4 part 10</property>
  <property name="kdenlive:original.meta.media.1.codec.bit_rate">241770326</property>
  <property name="kdenlive:original.meta.attr.1.stream.creation_time.markup">2019-02-07T17:28:34.000000Z</property>
  <property name="kdenlive:original.meta.attr.1.stream.language.markup">eng</property>
  <property name="kdenlive:original.meta.attr.1.stream.handler_name.markup">Mainconcept Video Media Handler</property>
  <property name="kdenlive:original.meta.attr.1.stream.encoder.markup">AVC Coding</property>
  <property name="kdenlive:original.meta.attr.major_brand.markup">mp42</property>
  <property name="kdenlive:original.meta.attr.minor_version.markup">0</property>
  <property name="kdenlive:original.meta.attr.compatible_brands.markup">mp42mp41</property>
  <property name="kdenlive:original.meta.attr.creation_time.markup">2019-02-07T17:28:32.000000Z</property>
  <property name="kdenlive:original.seekable">1</property>
  <property name="kdenlive:original.width">3840</property>
  <property name="kdenlive:original.height">2160</property>
  <property name="kdenlive:original.meta.media.sample_aspect_num">1</property>
  <property name="kdenlive:original.meta.media.sample_aspect_den">1</property>
  <property name="kdenlive:original.aspect_ratio">1</property>
  <property name="kdenlive:original.audio_index">0</property>
  <property name="kdenlive:original.video_index">1</property>
  <property name="kdenlive:original.mute_on_pause">0</property>
  <property name="kdenlive:original.mlt_service">avformat-novalidate</property>
  <property name="kdenlive:original.kdenlive:folderid">-1</property>
  <property name="kdenlive:original.meta.media.frame_rate_num">24</property>
  <property name="kdenlive:original.meta.media.frame_rate_den">1</property>
  <property name="kdenlive:original.meta.media.colorspace">709</property>
  <property name="kdenlive:original.meta.media.color_trc">1</property>
  <property name="kdenlive:original.meta.media.width">3840</property>
  <property name="kdenlive:original.meta.media.height">2160</property>
  <property name="kdenlive:original.meta.media.color_range">mpeg</property>
  <property name="kdenlive:original.kdenlive:id">147</property>
  <property name="kdenlive:original.kdenlive:file_size">181627061</property>
  <property name="kdenlive:original.kdenlive:file_hash">b24d21a301caebef02ae5ae52cdcd669</property>
  <property name="kdenlive:original.backup">1</property>
  <property name="kdenlive:audio_max">91</property>
  <property name="global_feed">1</property>
  <property name="kdenlive:active_streams">-1</property>
  <property name="xml">was here</property>
  <property name="meta.media.nb_streams">2</property>
  <property name="meta.media.0.stream.type">audio</property>
  <property name="meta.media.0.codec.sample_fmt">s16</property>
  <property name="meta.media.0.codec.sample_rate">48000</property>
  <property name="meta.media.0.codec.channels">2</property>
  <property name="meta.media.0.codec.name">pcm_s16le</property>
  <property name="meta.media.0.codec.long_name">PCM signed 16-bit little-endian</property>
  <property name="meta.media.0.codec.bit_rate">1536000</property>
  <property name="meta.attr.0.stream.language.markup">eng</property>
  <property name="meta.attr.0.stream.HANDLER_NAME.markup">#Mainconcept MP4 Sound Media Handler</property>
  <property name="meta.attr.0.stream.ENCODER.markup">Lavc58.91.100 pcm_s16le</property>
  <property name="meta.attr.0.stream.DURATION.markup">00:00:05.994000000</property>
  <property name="meta.media.1.stream.type">video</property>
  <property name="meta.media.1.stream.frame_rate">24</property>
  <property name="meta.media.1.stream.sample_aspect_ratio">0</property>
  <property name="meta.media.1.codec.width">960</property>
  <property name="meta.media.1.codec.height">540</property>
  <property name="meta.media.1.codec.rotate">0</property>
  <property name="meta.media.1.codec.frame_rate">1000</property>
  <property name="meta.media.1.codec.pix_fmt">yuvj420p</property>
  <property name="meta.media.1.codec.sample_aspect_ratio">0</property>
  <property name="meta.media.1.codec.colorspace">601</property>
  <property name="meta.media.1.codec.name">mjpeg</property>
  <property name="meta.media.1.codec.long_name">MJPEG (Motion JPEG)</property>
  <property name="meta.media.1.codec.bit_rate">0</property>
  <property name="meta.attr.1.stream.language.markup">eng</property>
  <property name="meta.attr.1.stream.HANDLER_NAME.markup">Mainconcept Video Media Handler</property>
  <property name="meta.attr.1.stream.ENCODER.markup">Lavc58.91.100 mjpeg</property>
  <property name="meta.attr.1.stream.DURATION.markup">00:00:06.000000000</property>
  <property name="meta.attr.COMPATIBLE_BRANDS.markup">mp42mp41</property>
  <property name="meta.attr.MAJOR_BRAND.markup">mp42</property>
  <property name="meta.attr.MINOR_VERSION.markup">0</property>
  <property name="meta.attr.ENCODER.markup">Lavf58.45.100</property>
  <property name="meta.media.sample_aspect_num">1</property>
  <property name="meta.media.sample_aspect_den">1</property>
  <property name="meta.media.frame_rate_num">24</property>
  <property name="meta.media.frame_rate_den">1</property>
  <property name="meta.media.colorspace">601</property>
  <property name="meta.media.color_trc">2</property>
  <property name="meta.media.width">960</property>
  <property name="meta.media.height">540</property>
  <property name="meta.media.color_range">full</property>
  <property name="meta.media.top_field_first">0</property>
  <property name="meta.media.progressive">1</property>
  <property name="set.test_audio">1</property>
  <property name="set.test_image">0</property>
 </producer>
 <producer id="producer209" in="00:00:00.000" out="00:02:03.800">
  <property name="length">3715</property>
  <property name="eof">pause</property>
  <property name="resource">/home/ryankelln/.cache/kdenlive/proxy/ff701e251d0df294f877763fc3abac78.mkv</property>
  <property name="audio_index">1</property>
  <property name="video_index">0</property>
  <property name="mute_on_pause">0</property>
  <property name="mlt_service">avformat-novalidate</property>
  <property name="seekable">1</property>
  <property name="aspect_ratio">1</property>
  <property name="kdenlive:clipname">2021-06-02_Caleb+Chris_upright+piano+handheld_suzy_MVI_5994-take1_chris.mkv</property>
  <property name="kdenlive:folderid">103</property>
  <property name="kdenlive:id">79</property>
  <property name="kdenlive:file_size">727311861</property>
  <property name="kdenlive:file_hash">ff701e251d0df294f877763fc3abac78</property>
  <property name="kdenlive:proxy">/home/ryankelln/.cache/kdenlive/proxy/ff701e251d0df294f877763fc3abac78.mkv</property>
  <property name="kdenlive:originalurl">content/musicians/2021-06-02_Caleb+Chris_upright+piano+handheld_suzy_MVI_5994-take1_chris.mkv</property>
  <property name="kdenlive:original.mlt_type">producer</property>
  <property name="kdenlive:original.in">0</property>
  <property name="kdenlive:original.out">3714</property>
  <property name="kdenlive:original.length">3715</property>
  <property name="kdenlive:original.eof">pause</property>
  <property name="kdenlive:original.resource">content/musicians/2021-06-02_Caleb+Chris_upright+piano+handheld_suzy_MVI_5994-take1_chris.mkv</property>
  <property name="kdenlive:original.meta.media.nb_streams">2</property>
  <property name="kdenlive:original.meta.media.0.stream.type">video</property>
  <property name="kdenlive:original.meta.media.0.stream.frame_rate">29.97</property>
  <property name="kdenlive:original.meta.media.0.stream.sample_aspect_ratio">0</property>
  <property name="kdenlive:original.meta.media.0.codec.width">1920</property>
  <property name="kdenlive:original.meta.media.0.codec.height">1080</property>
  <property name="kdenlive:original.meta.media.0.codec.rotate">0</property>
  <property name="kdenlive:original.meta.media.0.codec.frame_rate">1000</property>
  <property name="kdenlive:original.meta.media.0.codec.pix_fmt">yuvj420p</property>
  <property name="kdenlive:original.meta.media.0.codec.sample_aspect_ratio">0</property>
  <property name="kdenlive:original.meta.media.0.codec.colorspace">601</property>
  <property name="kdenlive:original.meta.media.0.codec.color_trc">1</property>
  <property name="kdenlive:original.meta.media.0.codec.name">h264</property>
  <property name="kdenlive:original.meta.media.0.codec.long_name">H.264 / AVC / MPEG-4 AVC / MPEG-4 part 10</property>
  <property name="kdenlive:original.meta.media.0.codec.bit_rate">0</property>
  <property name="kdenlive:original.meta.attr.0.stream.language.markup">eng</property>
  <property name="kdenlive:original.meta.attr.0.stream.DURATION.markup">00:02:03.824000000</property>
  <property name="kdenlive:original.meta.media.1.stream.type">audio</property>
  <property name="kdenlive:original.meta.media.1.codec.sample_fmt">s16</property>
  <property name="kdenlive:original.meta.media.1.codec.sample_rate">48000</property>
  <property name="kdenlive:original.meta.media.1.codec.channels">2</property>
  <property name="kdenlive:original.meta.media.1.codec.name">pcm_s16le</property>
  <property name="kdenlive:original.meta.media.1.codec.long_name">PCM signed 16-bit little-endian</property>
  <property name="kdenlive:original.meta.media.1.codec.bit_rate">1536000</property>
  <property name="kdenlive:original.meta.attr.1.stream.language.markup">eng</property>
  <property name="kdenlive:original.meta.attr.1.stream.DURATION.markup">00:02:03.827000000</property>
  <property name="kdenlive:original.meta.attr.COMPATIBLE_BRANDS.markup">qt  CAEP</property>
  <property name="kdenlive:original.meta.attr.creation_time.markup">2021-06-02T14:29:18.000000Z</property>
  <property name="kdenlive:original.meta.attr.MAJOR_BRAND.markup">qt  </property>
  <property name="kdenlive:original.meta.attr.MINOR_VERSION.markup">537331968</property>
  <property name="kdenlive:original.meta.attr.ENCODER.markup">Lavf58.45.100</property>
  <property name="kdenlive:original.seekable">1</property>
  <property name="kdenlive:original.width">1920</property>
  <property name="kdenlive:original.height">1080</property>
  <property name="kdenlive:original.meta.media.sample_aspect_num">1</property>
  <property name="kdenlive:original.meta.media.sample_aspect_den">1</property>
  <property name="kdenlive:original.aspect_ratio">1</property>
  <property name="kdenlive:original.audio_index">1</property>
  <property name="kdenlive:original.video_index">0</property>
  <property name="kdenlive:original.mute_on_pause">0</property>
  <property name="kdenlive:original.mlt_service">avformat-novalidate</property>
  <property name="kdenlive:original.kdenlive:folderid">103</property>
  <property name="kdenlive:original.meta.media.frame_rate_num">30000</property>
  <property name="kdenlive:original.meta.media.frame_rate_den">1001</property>
  <property name="kdenlive:original.meta.media.colorspace">601</property>
  <property name="kdenlive:original.meta.media.color_trc">1</property>
  <property name="kdenlive:original.meta.media.width">1920</property>
  <property name="kdenlive:original.meta.media.height">1080</property>
  <property name="kdenlive:original.meta.media.color_range">full</property>
  <property name="kdenlive:original.kdenlive:id">114</property>
  <property name="kdenlive:original.kdenlive:file_size">727311861</property>
  <property name="kdenlive:original.kdenlive:file_hash">ff701e251d0df294f877763fc3abac78</property>
  <property name="kdenlive:original.backup">1</property>
  <property name="kdenlive:audio_max">1</property>
  <property name="global_feed">1</property>
  <property name="xml">was here</property>
  <property name="meta.media.nb_streams">2</property>
  <property name="meta.media.0.stream.type">video</property>
  <property name="meta.media.0.stream.frame_rate">29.97</property>
  <property name="meta.media.0.stream.sample_aspect_ratio">0</property>
  <property name="meta.media.0.codec.width">960</property>
  <property name="meta.media.0.codec.height">540</property>
  <property name="meta.media.0.codec.rotate">0</property>
  <property name="meta.media.0.codec.frame_rate">1000</property>
  <property name="meta.media.0.codec.pix_fmt">yuvj420p</property>
  <property name="meta.media.0.codec.sample_aspect_ratio">0</property>
  <property name="meta.media.0.codec.colorspace">601</property>
  <property name="meta.media.0.codec.name">mjpeg</property>
  <property name="meta.media.0.codec.long_name">MJPEG (Motion JPEG)</property>
  <property name="meta.media.0.codec.bit_rate">0</property>
  <property name="meta.attr.0.stream.language.markup">eng</property>
  <property name="meta.attr.0.stream.ENCODER.markup">Lavc58.91.100 mjpeg</property>
  <property name="meta.attr.0.stream.DURATION.markup">00:02:03.823000000</property>
  <property name="meta.media.1.stream.type">audio</property>
  <property name="meta.media.1.codec.sample_fmt">s16</property>
  <property name="meta.media.1.codec.sample_rate">48000</property>
  <property name="meta.media.1.codec.channels">2</property>
  <property name="meta.media.1.codec.name">pcm_s16le</property>
  <property name="meta.media.1.codec.long_name">PCM signed 16-bit little-endian</property>
  <property name="meta.media.1.codec.bit_rate">1536000</property>
  <property name="meta.attr.1.stream.language.markup">eng</property>
  <property name="meta.attr.1.stream.ENCODER.markup">Lavc58.91.100 pcm_s16le</property>
  <property name="meta.attr.1.stream.DURATION.markup">00:02:03.827000000</property>
  <property name="meta.attr.MAJOR_BRAND.markup">qt  </property>
  <property name="meta.attr.COMPATIBLE_BRANDS.markup">qt  CAEP</property>
  <property name="meta.attr.MINOR_VERSION.markup">537331968</property>
  <property name="meta.attr.ENCODER.markup">Lavf58.45.100</property>
  <property name="meta.media.sample_aspect_num">1</property>
  <property name="meta.media.sample_aspect_den">1</property>
  <property name="meta.media.frame_rate_num">30000</property>
  <property name="meta.media.frame_rate_den">1001</property>
  <property name="meta.media.colorspace">601</property>
  <property name="meta.media.color_trc">2</property>
  <property name="meta.media.width">960</property>
  <property name="meta.media.height">540</property>
  <property name="meta.media.color_range">full</property>
  <property name="meta.media.top_field_first">0</property>
  <property name="meta.media.progressive">1</property>
  <property name="set.test_audio">1</property>
  <property name="set.test_image">0</property>
 </producer>
 <producer id="producer210" in="00:00:00.000" out="00:05:53.700">
  <property name="length">10612</property>
  <property name="eof">pause</property>
  <property name="resource">/home/ryankelln/.cache/kdenlive/proxy/4180d2fd868745abd6d5f8a1d6483ec1.mkv</property>
  <property name="audio_index">1</property>
  <property name="video_index">0</property>
  <property name="mute_on_pause">0</property>
  <property name="mlt_service">avformat-novalidate</property>
  <property name="seekable">1</property>
  <property name="aspect_ratio">1</property>
  <property name="kdenlive:clipname">2021-06-02_Caleb_upright+4k+portrait_suzy_P1000540-take1_beginning-to-DS.MP4</property>
  <property name="kdenlive:folderid">103</property>
  <property name="kdenlive:id">74</property>
  <property name="kdenlive:file_size">4241140404</property>
  <property name="kdenlive:file_hash">4180d2fd868745abd6d5f8a1d6483ec1</property>
  <property name="kdenlive:proxy">/home/ryankelln/.cache/kdenlive/proxy/4180d2fd868745abd6d5f8a1d6483ec1.mkv</property>
  <property name="kdenlive:originalurl">content/musicians/2021-06-02_Caleb_upright+4k+portrait_suzy_P1000540-take1_beginning-to-DS.MP4</property>
  <property name="kdenlive:original.mlt_type">producer</property>
  <property name="kdenlive:original.in">0</property>
  <property name="kdenlive:original.out">10611</property>
  <property name="kdenlive:original.length">10612</property>
  <property name="kdenlive:original.eof">pause</property>
  <property name="kdenlive:original.resource">content/musicians/2021-06-02_Caleb_upright+4k+portrait_suzy_P1000540-take1_beginning-to-DS.MP4</property>
  <property name="kdenlive:original.meta.media.nb_streams">2</property>
  <property name="kdenlive:original.meta.media.0.stream.type">video</property>
  <property name="kdenlive:original.meta.media.0.stream.frame_rate">29.9699</property>
  <property name="kdenlive:original.meta.media.0.stream.sample_aspect_ratio">1</property>
  <property name="kdenlive:original.meta.media.0.codec.width">3328</property>
  <property name="kdenlive:original.meta.media.0.codec.height">2496</property>
  <property name="kdenlive:original.meta.media.0.codec.rotate">90</property>
  <property name="kdenlive:original.meta.media.0.codec.frame_rate">29.97</property>
  <property name="kdenlive:original.meta.media.0.codec.pix_fmt">yuvj420p</property>
  <property name="kdenlive:original.meta.media.0.codec.sample_aspect_ratio">1</property>
  <property name="kdenlive:original.meta.media.0.codec.colorspace">709</property>
  <property name="kdenlive:original.meta.media.0.codec.color_trc">1</property>
  <property name="kdenlive:original.meta.media.0.codec.name">h264</property>
  <property name="kdenlive:original.meta.media.0.codec.long_name">H.264 / AVC / MPEG-4 AVC / MPEG-4 part 10</property>
  <property name="kdenlive:original.meta.media.0.codec.bit_rate">95795710</property>
  <property name="kdenlive:original.meta.attr.0.stream.rotate.markup">90</property>
  <property name="kdenlive:original.meta.attr.0.stream.handler_name.markup">VideoHandler</property>
  <property name="kdenlive:original.meta.media.1.stream.type">audio</property>
  <property name="kdenlive:original.meta.media.1.codec.sample_fmt">fltp</property>
  <property name="kdenlive:original.meta.media.1.codec.sample_rate">48000</property>
  <property name="kdenlive:original.meta.media.1.codec.channels">2</property>
  <property name="kdenlive:original.meta.media.1.codec.name">aac</property>
  <property name="kdenlive:original.meta.media.1.codec.long_name">AAC (Advanced Audio Coding)</property>
  <property name="kdenlive:original.meta.media.1.codec.bit_rate">125376</property>
  <property name="kdenlive:original.meta.attr.1.stream.handler_name.markup">SoundHandler</property>
  <property name="kdenlive:original.meta.attr.major_brand.markup">isom</property>
  <property name="kdenlive:original.meta.attr.minor_version.markup">512</property>
  <property name="kdenlive:original.meta.attr.compatible_brands.markup">isomiso2avc1mp41</property>
  <property name="kdenlive:original.meta.attr.encoder.markup">Lavf58.45.100</property>
  <property name="kdenlive:original.seekable">1</property>
  <property name="kdenlive:original.width">3328</property>
  <property name="kdenlive:original.height">2496</property>
  <property name="kdenlive:original.meta.media.sample_aspect_num">1</property>
  <property name="kdenlive:original.meta.media.sample_aspect_den">1</property>
  <property name="kdenlive:original.aspect_ratio">1</property>
  <property name="kdenlive:original.audio_index">1</property>
  <property name="kdenlive:original.video_index">0</property>
  <property name="kdenlive:original.mute_on_pause">0</property>
  <property name="kdenlive:original.mlt_service">avformat-novalidate</property>
  <property name="kdenlive:original.kdenlive:folderid">103</property>
  <property name="kdenlive:original.meta.media.frame_rate_num">13252500</property>
  <property name="kdenlive:original.meta.media.frame_rate_den">442193</property>
  <property name="kdenlive:original.meta.media.colorspace">709</property>
  <property name="kdenlive:original.meta.media.color_trc">1</property>
  <property name="kdenlive:original.meta.media.width">2496</property>
  <property name="kdenlive:original.meta.media.height">3328</property>
  <property name="kdenlive:original.meta.media.color_range">full</property>
  <property name="kdenlive:original.kdenlive:id">109</property>
  <property name="kdenlive:original.kdenlive:file_size">4241140404</property>
  <property name="kdenlive:original.kdenlive:file_hash">4180d2fd868745abd6d5f8a1d6483ec1</property>
  <property name="kdenlive:original.backup">1</property>
  <property name="kdenlive:audio_max">1</property>
  <property name="global_feed">1</property>
  <property name="kdenlive:activeeffect">1</property>
  <property name="xml">was here</property>
  <property name="meta.media.nb_streams">2</property>
  <property name="meta.media.0.stream.type">video</property>
  <property name="meta.media.0.stream.frame_rate">29.97</property>
  <property name="meta.media.0.stream.sample_aspect_ratio">1</property>
  <property name="meta.media.0.codec.width">960</property>
  <property name="meta.media.0.codec.height">1280</property>
  <property name="meta.media.0.codec.rotate">0</property>
  <property name="meta.media.0.codec.frame_rate">1000</property>
  <property name="meta.media.0.codec.pix_fmt">yuvj420p</property>
  <property name="meta.media.0.codec.sample_aspect_ratio">1</property>
  <property name="meta.media.0.codec.colorspace">601</property>
  <property name="meta.media.0.codec.name">mjpeg</property>
  <property name="meta.media.0.codec.long_name">MJPEG (Motion JPEG)</property>
  <property name="meta.media.0.codec.bit_rate">0</property>
  <property name="meta.attr.0.stream.ENCODER.markup">Lavc58.91.100 mjpeg</property>
  <property name="meta.attr.0.stream.HANDLER_NAME.markup">VideoHandler</property>
  <property name="meta.attr.0.stream.DURATION.markup">00:05:53.786000000</property>
  <property name="meta.media.1.stream.type">audio</property>
  <property name="meta.media.1.codec.sample_fmt">s16</property>
  <property name="meta.media.1.codec.sample_rate">48000</property>
  <property name="meta.media.1.codec.channels">2</property>
  <property name="meta.media.1.codec.name">pcm_s16le</property>
  <property name="meta.media.1.codec.long_name">PCM signed 16-bit little-endian</property>
  <property name="meta.media.1.codec.bit_rate">1536000</property>
  <property name="meta.attr.1.stream.HANDLER_NAME.markup">SoundHandler</property>
  <property name="meta.attr.1.stream.ENCODER.markup">Lavc58.91.100 pcm_s16le</property>
  <property name="meta.attr.1.stream.DURATION.markup">00:05:53.744000000</property>
  <property name="meta.attr.COMPATIBLE_BRANDS.markup">isomiso2avc1mp41</property>
  <property name="meta.attr.MAJOR_BRAND.markup">isom</property>
  <property name="meta.attr.MINOR_VERSION.markup">512</property>
  <property name="meta.attr.ENCODER.markup">Lavf58.45.100</property>
  <property name="meta.media.sample_aspect_num">1</property>
  <property name="meta.media.sample_aspect_den">1</property>
  <property name="meta.media.frame_rate_num">30000</property>
  <property name="meta.media.frame_rate_den">1001</property>
  <property name="meta.media.colorspace">601</property>
  <property name="meta.media.color_trc">2</property>
  <property name="meta.media.width">960</property>
  <property name="meta.media.height">1280</property>
  <property name="meta.media.color_range">full</property>
  <property name="meta.media.top_field_first">0</property>
  <property name="meta.media.progressive">1</property>
  <property name="set.test_audio">1</property>
  <property name="set.test_image">0</property>
  <filter id="filter488">
   <property name="version">0.1</property>
   <property name="mlt_service">frei0r.hqdn3d</property>
   <property name="kdenlive_id">frei0r.hqdn3d</property>
   <property name="Spatial">00:00:00.000=0.01</property>
   <property name="Temporal">00:00:00.000=0.01</property>
  </filter>
  <filter id="filter489">
   <property name="version">0.6</property>
   <property name="mlt_service">frei0r.select0r</property>
   <property name="kdenlive_id">frei0r.select0r</property>
   <property name="Color to select">0x58af5eff</property>
   <property name="Invert selection">1</property>
   <property name="Selection subspace">1</property>
   <property name="Subspace shape">0</property>
   <property name="Edge mode">0.9</property>
   <property name="Delta R / A / Hue">00:00:00.000=0.045</property>
   <property name="Delta G / B / Chroma">00:00:00.000=0.215</property>
   <property name="Delta B / I / I">00:00:00.000=0.31</property>
   <property name="Slope">00:00:00.000=0.085</property>
   <property name="Operation">0.5</property>
  </filter>
  <filter id="filter504">
   <property name="mlt_service">avfilter.despill</property>
   <property name="kdenlive_id">avfilter.despill</property>
   <property name="av.type">green</property>
   <property name="av.mix">0.096</property>
   <property name="av.expand">0.037</property>
   <property name="av.red">0</property>
   <property name="av.green">-0.7</property>
   <property name="av.blue">-0.6</property>
   <property name="av.brightness">0</property>
  </filter>
 </producer>
 <producer id="producer211" in="00:00:00.000" out="00:00:15.300">
  <property name="length">460</property>
  <property name="eof">pause</property>
  <property name="resource">/home/ryankelln/.cache/kdenlive/proxy/4c1109712b57909c3fac6f312e824452.mkv</property>
  <property name="audio_index">-1</property>
  <property name="video_index">0</property>
  <property name="mute_on_pause">0</property>
  <property name="mlt_service">avformat-novalidate</property>
  <property name="seekable">1</property>
  <property name="aspect_ratio">1</property>
  <property name="kdenlive:clipname">ReReVST-summer_trees-suzy_chris_end_1_no-global_style=2.0_content=1.0.mp4</property>
  <property name="kdenlive:folderid">103</property>
  <property name="kdenlive:id">120</property>
  <property name="kdenlive:file_size">33949765</property>
  <property name="kdenlive:file_hash">4c1109712b57909c3fac6f312e824452</property>
  <property name="kdenlive:proxy">/home/ryankelln/.cache/kdenlive/proxy/4c1109712b57909c3fac6f312e824452.mkv</property>
  <property name="kdenlive:originalurl">content/musicians/ReReVST-summer_trees-suzy_chris_end_1_no-global_style=2.0_content=1.0.mp4</property>
  <property name="kdenlive:original.mlt_type">producer</property>
  <property name="kdenlive:original.in">0</property>
  <property name="kdenlive:original.out">459</property>
  <property name="kdenlive:original.length">460</property>
  <property name="kdenlive:original.eof">pause</property>
  <property name="kdenlive:original.resource">content/musicians/ReReVST-summer_trees-suzy_chris_end_1_no-global_style=2.0_content=1.0.mp4</property>
  <property name="kdenlive:original.meta.media.nb_streams">1</property>
  <property name="kdenlive:original.meta.media.0.stream.type">video</property>
  <property name="kdenlive:original.meta.media.0.stream.frame_rate">30</property>
  <property name="kdenlive:original.meta.media.0.stream.sample_aspect_ratio">0</property>
  <property name="kdenlive:original.meta.media.0.codec.width">1920</property>
  <property name="kdenlive:original.meta.media.0.codec.height">1080</property>
  <property name="kdenlive:original.meta.media.0.codec.rotate">0</property>
  <property name="kdenlive:original.meta.media.0.codec.frame_rate">30</property>
  <property name="kdenlive:original.meta.media.0.codec.pix_fmt">yuv420p</property>
  <property name="kdenlive:original.meta.media.0.codec.sample_aspect_ratio">1</property>
  <property name="kdenlive:original.meta.media.0.codec.colorspace">709</property>
  <property name="kdenlive:original.meta.media.0.codec.name">mpeg4</property>
  <property name="kdenlive:original.meta.media.0.codec.long_name">MPEG-4 part 2</property>
  <property name="kdenlive:original.meta.media.0.codec.bit_rate">17711202</property>
  <property name="kdenlive:original.meta.attr.0.stream.handler_name.markup">VideoHandler</property>
  <property name="kdenlive:original.meta.attr.major_brand.markup">isom</property>
  <property name="kdenlive:original.meta.attr.minor_version.markup">512</property>
  <property name="kdenlive:original.meta.attr.compatible_brands.markup">isomiso2mp41</property>
  <property name="kdenlive:original.meta.attr.encoder.markup">Lavf58.61.100</property>
  <property name="kdenlive:original.seekable">1</property>
  <property name="kdenlive:original.width">1920</property>
  <property name="kdenlive:original.height">1080</property>
  <property name="kdenlive:original.meta.media.sample_aspect_num">1</property>
  <property name="kdenlive:original.meta.media.sample_aspect_den">1</property>
  <property name="kdenlive:original.aspect_ratio">1</property>
  <property name="kdenlive:original.audio_index">-1</property>
  <property name="kdenlive:original.video_index">0</property>
  <property name="kdenlive:original.mute_on_pause">0</property>
  <property name="kdenlive:original.mlt_service">avformat-novalidate</property>
  <property name="kdenlive:original.kdenlive:folderid">103</property>
  <property name="kdenlive:original.meta.media.frame_rate_num">30</property>
  <property name="kdenlive:original.meta.media.frame_rate_den">1</property>
  <property name="kdenlive:original.meta.media.colorspace">709</property>
  <property name="kdenlive:original.meta.media.color_trc">2</property>
  <property name="kdenlive:original.meta.media.width">1920</property>
  <property name="kdenlive:original.meta.media.height">1080</property>
  <property name="kdenlive:original.meta.media.color_range">mpeg</property>
  <property name="kdenlive:original.kdenlive:id">142</property>
  <property name="kdenlive:original.kdenlive:file_size">33949765</property>
  <property name="kdenlive:original.kdenlive:file_hash">4c1109712b57909c3fac6f312e824452</property>
  <property name="kdenlive:original.backup">1</property>
  <property name="global_feed">1</property>
  <property name="xml">was here</property>
  <property name="meta.media.nb_streams">1</property>
  <property name="meta.media.0.stream.type">video</property>
  <property name="meta.media.0.stream.frame_rate">30</property>
  <property name="meta.media.0.stream.sample_aspect_ratio">1</property>
  <property name="meta.media.0.codec.width">960</property>
  <property name="meta.media.0.codec.height">540</property>
  <property name="meta.media.0.codec.rotate">0</property>
  <property name="meta.media.0.codec.frame_rate">1000</property>
  <property name="meta.media.0.codec.pix_fmt">yuvj420p</property>
  <property name="meta.media.0.codec.sample_aspect_ratio">1</property>
  <property name="meta.media.0.codec.colorspace">601</property>
  <property name="meta.media.0.codec.name">mjpeg</property>
  <property name="meta.media.0.codec.long_name">MJPEG (Motion JPEG)</property>
  <property name="meta.media.0.codec.bit_rate">0</property>
  <property name="meta.attr.0.stream.HANDLER_NAME.markup">VideoHandler</property>
  <property name="meta.attr.0.stream.ENCODER.markup">Lavc58.91.100 mjpeg</property>
  <property name="meta.attr.0.stream.DURATION.markup">00:00:15.333000000</property>
  <property name="meta.attr.COMPATIBLE_BRANDS.markup">isomiso2mp41</property>
  <property name="meta.attr.MAJOR_BRAND.markup">isom</property>
  <property name="meta.attr.MINOR_VERSION.markup">512</property>
  <property name="meta.attr.ENCODER.markup">Lavf58.45.100</property>
  <property name="meta.media.sample_aspect_num">1</property>
  <property name="meta.media.sample_aspect_den">1</property>
  <property name="meta.media.frame_rate_num">30</property>
  <property name="meta.media.frame_rate_den">1</property>
  <property name="meta.media.colorspace">601</property>
  <property name="meta.media.color_trc">2</property>
  <property name="meta.media.width">960</property>
  <property name="meta.media.height">540</property>
  <property name="meta.media.color_range">full</property>
  <property name="meta.media.top_field_first">0</property>
  <property name="meta.media.progressive">1</property>
  <property name="set.test_audio">1</property>
  <property name="set.test_image">0</property>
 </producer>
 <producer id="producer212" in="00:00:00.000" out="00:00:13.600">
  <property name="length">409</property>
  <property name="eof">pause</property>
  <property name="resource">/home/ryankelln/.cache/kdenlive/proxy/a70739656115db1bf10e0f3abd4968a6.mkv</property>
  <property name="audio_index">-1</property>
  <property name="video_index">0</property>
  <property name="mute_on_pause">0</property>
  <property name="mlt_service">avformat-novalidate</property>
  <property name="seekable">1</property>
  <property name="aspect_ratio">1</property>
  <property name="kdenlive:clipname">ReReVST-fall_fence-suzy_chris_end_2_no-global_style=2.0_content=1.0.mp4</property>
  <property name="kdenlive:folderid">103</property>
  <property name="kdenlive:id">121</property>
  <property name="kdenlive:file_size">36978135</property>
  <property name="kdenlive:file_hash">a70739656115db1bf10e0f3abd4968a6</property>
  <property name="kdenlive:proxy">/home/ryankelln/.cache/kdenlive/proxy/a70739656115db1bf10e0f3abd4968a6.mkv</property>
  <property name="kdenlive:originalurl">content/musicians/ReReVST-fall_fence-suzy_chris_end_2_no-global_style=2.0_content=1.0.mp4</property>
  <property name="kdenlive:original.mlt_type">producer</property>
  <property name="kdenlive:original.in">0</property>
  <property name="kdenlive:original.out">408</property>
  <property name="kdenlive:original.length">409</property>
  <property name="kdenlive:original.eof">pause</property>
  <property name="kdenlive:original.resource">content/musicians/ReReVST-fall_fence-suzy_chris_end_2_no-global_style=2.0_content=1.0.mp4</property>
  <property name="kdenlive:original.meta.media.nb_streams">1</property>
  <property name="kdenlive:original.meta.media.0.stream.type">video</property>
  <property name="kdenlive:original.meta.media.0.stream.frame_rate">30</property>
  <property name="kdenlive:original.meta.media.0.stream.sample_aspect_ratio">0</property>
  <property name="kdenlive:original.meta.media.0.codec.width">1920</property>
  <property name="kdenlive:original.meta.media.0.codec.height">1080</property>
  <property name="kdenlive:original.meta.media.0.codec.rotate">0</property>
  <property name="kdenlive:original.meta.media.0.codec.frame_rate">30</property>
  <property name="kdenlive:original.meta.media.0.codec.pix_fmt">yuv420p</property>
  <property name="kdenlive:original.meta.media.0.codec.sample_aspect_ratio">1</property>
  <property name="kdenlive:original.meta.media.0.codec.colorspace">709</property>
  <property name="kdenlive:original.meta.media.0.codec.name">mpeg4</property>
  <property name="kdenlive:original.meta.media.0.codec.long_name">MPEG-4 part 2</property>
  <property name="kdenlive:original.meta.media.0.codec.bit_rate">21696885</property>
  <property name="kdenlive:original.meta.attr.0.stream.handler_name.markup">VideoHandler</property>
  <property name="kdenlive:original.meta.attr.major_brand.markup">isom</property>
  <property name="kdenlive:original.meta.attr.minor_version.markup">512</property>
  <property name="kdenlive:original.meta.attr.compatible_brands.markup">isomiso2mp41</property>
  <property name="kdenlive:original.meta.attr.encoder.markup">Lavf58.61.100</property>
  <property name="kdenlive:original.seekable">1</property>
  <property name="kdenlive:original.width">1920</property>
  <property name="kdenlive:original.height">1080</property>
  <property name="kdenlive:original.meta.media.sample_aspect_num">1</property>
  <property name="kdenlive:original.meta.media.sample_aspect_den">1</property>
  <property name="kdenlive:original.aspect_ratio">1</property>
  <property name="kdenlive:original.audio_index">-1</property>
  <property name="kdenlive:original.video_index">0</property>
  <property name="kdenlive:original.mute_on_pause">0</property>
  <property name="kdenlive:original.mlt_service">avformat-novalidate</property>
  <property name="kdenlive:original.kdenlive:folderid">103</property>
  <property name="kdenlive:original.meta.media.frame_rate_num">30</property>
  <property name="kdenlive:original.meta.media.frame_rate_den">1</property>
  <property name="kdenlive:original.meta.media.colorspace">709</property>
  <property name="kdenlive:original.meta.media.color_trc">2</property>
  <property name="kdenlive:original.meta.media.width">1920</property>
  <property name="kdenlive:original.meta.media.height">1080</property>
  <property name="kdenlive:original.meta.media.color_range">mpeg</property>
  <property name="kdenlive:original.kdenlive:id">143</property>
  <property name="kdenlive:original.kdenlive:file_size">36978135</property>
  <property name="kdenlive:original.kdenlive:file_hash">a70739656115db1bf10e0f3abd4968a6</property>
  <property name="kdenlive:original.backup">1</property>
  <property name="global_feed">1</property>
  <property name="xml">was here</property>
  <property name="meta.media.nb_streams">1</property>
  <property name="meta.media.0.stream.type">video</property>
  <property name="meta.media.0.stream.frame_rate">30</property>
  <property name="meta.media.0.stream.sample_aspect_ratio">1</property>
  <property name="meta.media.0.codec.width">960</property>
  <property name="meta.media.0.codec.height">540</property>
  <property name="meta.media.0.codec.rotate">0</property>
  <property name="meta.media.0.codec.frame_rate">1000</property>
  <property name="meta.media.0.codec.pix_fmt">yuvj420p</property>
  <property name="meta.media.0.codec.sample_aspect_ratio">1</property>
  <property name="meta.media.0.codec.colorspace">601</property>
  <property name="meta.media.0.codec.name">mjpeg</property>
  <property name="meta.media.0.codec.long_name">MJPEG (Motion JPEG)</property>
  <property name="meta.media.0.codec.bit_rate">0</property>
  <property name="meta.attr.0.stream.HANDLER_NAME.markup">VideoHandler</property>
  <property name="meta.attr.0.stream.ENCODER.markup">Lavc58.91.100 mjpeg</property>
  <property name="meta.attr.0.stream.DURATION.markup">00:00:13.633000000</property>
  <property name="meta.attr.COMPATIBLE_BRANDS.markup">isomiso2mp41</property>
  <property name="meta.attr.MAJOR_BRAND.markup">isom</property>
  <property name="meta.attr.MINOR_VERSION.markup">512</property>
  <property name="meta.attr.ENCODER.markup">Lavf58.45.100</property>
  <property name="meta.media.sample_aspect_num">1</property>
  <property name="meta.media.sample_aspect_den">1</property>
  <property name="meta.media.frame_rate_num">30</property>
  <property name="meta.media.frame_rate_den">1</property>
  <property name="meta.media.colorspace">601</property>
  <property name="meta.media.color_trc">2</property>
  <property name="meta.media.width">960</property>
  <property name="meta.media.height">540</property>
  <property name="meta.media.color_range">full</property>
  <property name="set.test_audio">1</property>
  <property name="set.test_image">0</property>
  <property name="meta.media.top_field_first">0</property>
  <property name="meta.media.progressive">1</property>
 </producer>
 <playlist id="playlist32">
  <blank length="00:00:11.300"/>
  <entry producer="producer208" in="00:00:01.167" out="00:00:05.967">
   <property name="kdenlive:id">144</property>
  </entry>
  <entry producer="producer208" in="00:00:00.000" out="00:00:05.967">
   <property name="kdenlive:id">144</property>
  </entry>
  <entry producer="producer208" in="00:00:00.000" out="00:00:05.967">
   <property name="kdenlive:id">144</property>
  </entry>
  <entry producer="producer208" in="00:00:00.000" out="00:00:05.967">
   <property name="kdenlive:id">144</property>
  </entry>
  <entry producer="producer208" in="00:00:00.000" out="00:00:05.967">
   <property name="kdenlive:id">144</property>
  </entry>
  <entry producer="producer208" in="00:00:00.000" out="00:00:05.967">
   <property name="kdenlive:id">144</property>
  </entry>
  <entry producer="producer208" in="00:00:00.000" out="00:00:05.967">
   <property name="kdenlive:id">144</property>
  </entry>
  <blank length="00:00:09.233"/>
  <entry producer="producer208" in="00:00:00.000" out="00:00:05.967">
   <property name="kdenlive:id">144</property>
  </entry>
  <entry producer="producer208" in="00:00:00.000" out="00:00:05.967">
   <property name="kdenlive:id">144</property>
  </entry>
  <entry producer="producer208" in="00:00:00.000" out="00:00:05.967">
   <property name="kdenlive:id">144</property>
  </entry>
  <entry producer="producer208" in="00:00:00.000" out="00:00:05.967">
   <property name="kdenlive:id">144</property>
  </entry>
  <entry producer="producer208" in="00:00:00.000" out="00:00:04.633">
   <property name="kdenlive:id">144</property>
  </entry>
  <blank length="00:01:31.633"/>
  <entry producer="producer209" in="00:01:04.833" out="00:01:17.900">
   <property name="kdenlive:id">79</property>
   <property name="kdenlive:activeeffect">4</property>
   <filter id="filter507">
    <property name="version">0.1</property>
    <property name="mlt_service">frei0r.hqdn3d</property>
    <property name="kdenlive_id">frei0r.hqdn3d</property>
    <property name="Spatial">00:01:04.833=0.01</property>
    <property name="Temporal">00:01:04.833=0.01</property>
    <property name="kdenlive:collapsed">0</property>
   </filter>
   <filter id="filter508">
    <property name="version">0.6</property>
    <property name="mlt_service">frei0r.select0r</property>
    <property name="kdenlive_id">frei0r.select0r</property>
    <property name="Color to select">0x224f2dff</property>
    <property name="Invert selection">1</property>
    <property name="Selection subspace">1</property>
    <property name="Subspace shape">0</property>
    <property name="Edge mode">0.9</property>
    <property name="Delta R / A / Hue">00:01:04.833=0.035</property>
    <property name="Delta G / B / Chroma">00:01:04.833=0.042</property>
    <property name="Delta B / I / I">00:01:04.833=0.264</property>
    <property name="Slope">00:01:04.833=0.136</property>
    <property name="Operation">0.5</property>
    <property name="kdenlive:collapsed">0</property>
    <property name="disable">1</property>
   </filter>
   <filter id="filter509">
    <property name="mlt_service">avfilter.despill</property>
    <property name="kdenlive_id">avfilter.despill</property>
    <property name="av.type">green</property>
    <property name="av.mix">0.06</property>
    <property name="av.expand">0.206</property>
    <property name="av.red">-0.2</property>
    <property name="av.green">-0.6</property>
    <property name="av.blue">-0.4</property>
    <property name="av.brightness">1.9</property>
    <property name="kdenlive:collapsed">0</property>
   </filter>
   <filter id="filter510">
    <property name="mlt_service">avfilter.gblur</property>
    <property name="kdenlive_id">avfilter.gblur</property>
    <property name="av.sigma">4</property>
    <property name="av.steps">1</property>
    <property name="av.planes">7</property>
    <property name="av.sigmaV">-1</property>
    <property name="kdenlive:collapsed">0</property>
   </filter>
   <filter id="filter511">
    <property name="version">2.2</property>
    <property name="mlt_service">frei0r.cartoon</property>
    <property name="kdenlive_id">frei0r.cartoon</property>
    <property name="triplevel">00:01:04.833=0.998</property>
    <property name="diffspace">00:01:04.833=0.0078125</property>
    <property name="kdenlive:collapsed">0</property>
   </filter>
  </entry>
  <blank length="00:00:04.933"/>
  <entry producer="producer210" in="00:03:18.700" out="00:03:51.167">
   <property name="kdenlive:id">74</property>
   <filter id="filter512">
    <property name="rotate_center">1</property>
    <property name="mlt_service">qtblend</property>
    <property name="kdenlive_id">qtblend</property>
    <property name="rect">00:03:18.700=-1149 -221 2880 1620 0.400000;00:03:45.833=-1149 -221 2880 1620 0.400000;00:03:51.167=-2358 -969 4800 2700 0.500000</property>
    <property name="rotation">00:03:18.700=0;00:03:45.833=0;00:03:51.167=0</property>
    <property name="compositing">0</property>
    <property name="distort">0</property>
    <property name="kdenlive:collapsed">0</property>
   </filter>
   <filter id="filter513" in="00:03:45.700" out="00:03:51.167">
    <property name="start">1</property>
    <property name="mlt_service">brightness</property>
    <property name="kdenlive_id">fade_to_black</property>
    <property name="end">0</property>
    <property name="alpha">-1</property>
    <property name="kdenlive:collapsed">0</property>
   </filter>
   <filter id="filter514">
    <property name="mlt_service">avfilter.gblur</property>
    <property name="kdenlive_id">avfilter.gblur</property>
    <property name="av.sigma">20</property>
    <property name="av.steps">1</property>
    <property name="av.planes">7</property>
    <property name="av.sigmaV">-1</property>
    <property name="kdenlive:collapsed">0</property>
    <property name="disable">0</property>
   </filter>
   <filter id="filter515" in="00:03:18.700" out="00:03:20.133">
    <property name="start">0</property>
    <property name="mlt_service">brightness</property>
    <property name="kdenlive_id">fade_from_black</property>
    <property name="end">1</property>
    <property name="alpha">-1</property>
    <property name="kdenlive:collapsed">0</property>
   </filter>
   <filter id="filter516">
    <property name="lift_r">-0.110262</property>
    <property name="lift_g">-0.158419</property>
    <property name="lift_b">-0.462501</property>
    <property name="gamma_r">1.23751</property>
    <property name="gamma_g">1.22554</property>
    <property name="gamma_b">0.865614</property>
    <property name="gain_r">1.25002</property>
    <property name="gain_g">1.00294</property>
    <property name="gain_b">1.14064</property>
    <property name="mlt_service">lift_gamma_gain</property>
    <property name="kdenlive_id">lift_gamma_gain</property>
    <property name="kdenlive:collapsed">0</property>
   </filter>
  </entry>
  <blank length="00:01:44.767"/>
  <entry producer="producer211" in="00:00:00.367" out="00:00:15.300">
   <property name="kdenlive:id">120</property>
   <property name="kdenlive:activeeffect">2</property>
   <filter id="filter517">
    <property name="version">0.2</property>
    <property name="mlt_service">frei0r.contrast0r</property>
    <property name="kdenlive_id">frei0r.contrast0r</property>
    <property name="Contrast">11=1.03</property>
    <property name="kdenlive:collapsed">0</property>
    <property name="disable">1</property>
   </filter>
   <filter id="filter518">
    <property name="threshold">120</property>
    <property name="slope">61</property>
    <property name="prelevel">0</property>
    <property name="postlevel">255</property>
    <property name="mlt_service">lumakey</property>
    <property name="kdenlive_id">lumakey</property>
    <property name="kdenlive:collapsed">0</property>
   </filter>
   <filter id="filter519">
    <property name="mode">alpha</property>
    <property name="alpha_operation">sub</property>
    <property name="invert">0</property>
    <property name="feather">24</property>
    <property name="feather_passes">1</property>
    <property name="mlt_service">rotoscoping</property>
    <property name="kdenlive_id">rotoscoping</property>
    <property name="spline">{
    "011": [
        [
            [
                0.5654088050314466,
                0.06119402985074626
            ],
            [
                0.5828092243186583,
                0.12313432835820895
            ],
            [
                0.6148846960167715,
                0.1085820895522388
            ]
        ],
        [
            [
                0.7107229254134781,
                0.06400415632949802
            ],
            [
                0.7427983971115915,
                0.049451917523527865
            ],
            [
                0.7633434704868535,
                0.041242962299647266
            ]
        ],
        [
            [
                0.7987421383647798,
                0.003731343283582089
            ],
            [
                0.8459119496855346,
                0.009328358208955223
            ],
            [
                0.8784067085953878,
                0.029850746268656712
            ]
        ],
        [
            [
                0.8825995807127883,
                0.05186567164179103
            ],
            [
                0.8941299790356394,
                0.059701492537313425
            ],
            [
                0.9182389937106917,
                0.10074626865671643
            ]
        ],
        [
            [
                0.9208480215234535,
                0.15769299076837173
            ],
            [
                0.925460180852594,
                0.18493179673852098
            ],
            [
                0.9248312500349839,
                0.19649896091762545
            ]
        ],
        [
            [
                0.9241090146750524,
                0.23097014925373135
            ],
            [
                0.9234800838574423,
                0.2425373134328358
            ],
            [
                0.940251572327044,
                0.24402985074626865
            ]
        ],
        [
            [
                0.9905660377358491,
                0.24850746268656715
            ],
            [
                1.0073375262054507,
                0.25
            ],
            [
                1.0375262054507337,
                0.1962686567164179
            ]
        ],
        [
            [
                1.1280922431865827,
                0.03507462686567164
            ],
            [
                1.158280922431866,
                -0.018656716417910446
            ],
            [
                1.139832285115304,
                -0.0828358208955224
            ]
        ],
        [
            [
                1.0844863731656185,
                -0.27537313432835825
            ],
            [
                1.0660377358490567,
                -0.3395522388059702
            ],
            [
                0.9519916142557653,
                -0.30895522388059704
            ]
        ],
        [
            [
                0.609853249475891,
                -0.21716417910447763
            ],
            [
                0.49580712788259956,
                -0.1865671641791045
            ],
            [
                0.5132075471698113,
                -0.1246268656716418
            ]
        ]
    ],
    "235": [
        [
            [
                0.5654088050314466,
                0.06119402985074626
            ],
            [
                0.5828092243186583,
                0.12313432835820895
            ],
            [
                0.6148846960167715,
                0.1085820895522388
            ]
        ],
        [
            [
                0.7079664570230607,
                0.057462686567164196
            ],
            [
                0.740041928721174,
                0.04291044776119403
            ],
            [
                0.760587002096436,
                0.03470149253731344
            ]
        ],
        [
            [
                0.7987421383647798,
                0.003731343283582089
            ],
            [
                0.8459119496855346,
                0.009328358208955223
            ],
            [
                0.8784067085953878,
                0.029850746268656712
            ]
        ],
        [
            [
                0.8825995807127883,
                0.05186567164179103
            ],
            [
                0.8941299790356394,
                0.059701492537313425
            ],
            [
                0.9182389937106917,
                0.10074626865671643
            ]
        ],
        [
            [
                0.9125786163522013,
                0.15932835820895525
            ],
            [
                0.9171907756813417,
                0.1865671641791045
            ],
            [
                0.9165618448637317,
                0.19813432835820896
            ]
        ],
        [
            [
                0.9241090146750524,
                0.23097014925373135
            ],
            [
                0.9234800838574423,
                0.2425373134328358
            ],
            [
                0.940251572327044,
                0.24402985074626865
            ]
        ],
        [
            [
                0.9905660377358491,
                0.24850746268656715
            ],
            [
                1.0073375262054507,
                0.25
            ],
            [
                1.0375262054507337,
                0.1962686567164179
            ]
        ],
        [
            [
                1.1280922431865827,
                0.03507462686567164
            ],
            [
                1.158280922431866,
                -0.018656716417910446
            ],
            [
                1.139832285115304,
                -0.0828358208955224
            ]
        ],
        [
            [
                1.0844863731656185,
                -0.27537313432835825
            ],
            [
                1.0660377358490567,
                -0.3395522388059702
            ],
            [
                0.9519916142557653,
                -0.30895522388059704
            ]
        ],
        [
            [
                0.609853249475891,
                -0.21716417910447763
            ],
            [
                0.49580712788259956,
                -0.1865671641791045
            ],
            [
                0.5132075471698113,
                -0.1246268656716418
            ]
        ]
    ]
}
</property>
    <property name="kdenlive:collapsed">0</property>
   </filter>
   <filter id="filter520" in="00:00:00.367" out="00:00:00.500">
    <property name="start">0</property>
    <property name="mlt_service">brightness</property>
    <property name="kdenlive_id">fade_from_black</property>
    <property name="end">1</property>
    <property name="alpha">-1</property>
   </filter>
  </entry>
  <blank length="00:00:08.367"/>
  <entry producer="producer212" in="00:00:00.000" out="00:00:13.600">
   <property name="kdenlive:id">121</property>
   <filter id="filter521">
    <property name="threshold">134</property>
    <property name="slope">72</property>
    <property name="prelevel">0</property>
    <property name="postlevel">255</property>
    <property name="mlt_service">lumakey</property>
    <property name="kdenlive_id">lumakey</property>
    <property name="kdenlive:collapsed">0</property>
   </filter>
  </entry>
 </playlist>
 <playlist id="playlist33"/>
 <tractor id="tractor16" in="00:00:00.000" out="00:06:13.900">
  <property name="kdenlive:trackheight">69</property>
  <property name="kdenlive:timeline_active">1</property>
  <property name="kdenlive:collapsed">0</property>
  <property name="kdenlive:track_name">Effects 2</property>
  <property name="kdenlive:thumbs_format"/>
  <property name="kdenlive:audio_rec"/>
  <track hide="audio" producer="playlist32"/>
  <track producer="playlist33"/>
 </tractor>
 <tractor id="tractor17" global_feed="1" in="00:00:00.000" out="00:24:42.967">
  <track producer="black_track"/>
  <track producer="tractor0"/>
  <track producer="tractor1"/>
  <track producer="tractor2"/>
  <track producer="tractor3"/>
  <track producer="tractor4"/>
  <track producer="tractor5"/>
  <track producer="tractor6"/>
  <track producer="tractor7"/>
  <track producer="tractor8"/>
  <track producer="tractor9"/>
  <track producer="tractor10"/>
  <track producer="tractor11"/>
  <track producer="tractor12"/>
  <track producer="tractor13"/>
  <track producer="tractor14"/>
  <track producer="tractor15"/>
  <track producer="tractor16"/>
  <transition id="transition0">
   <property name="a_track">0</property>
   <property name="b_track">1</property>
   <property name="mlt_service">mix</property>
   <property name="kdenlive_id">mix</property>
   <property name="internal_added">237</property>
   <property name="always_active">1</property>
   <property name="accepts_blanks">1</property>
   <property name="sum">1</property>
  </transition>
  <transition id="transition1">
   <property name="a_track">0</property>
   <property name="b_track">2</property>
   <property name="mlt_service">mix</property>
   <property name="kdenlive_id">mix</property>
   <property name="internal_added">237</property>
   <property name="always_active">1</property>
   <property name="accepts_blanks">1</property>
   <property name="sum">1</property>
  </transition>
  <transition id="transition2">
   <property name="a_track">0</property>
   <property name="b_track">3</property>
   <property name="mlt_service">mix</property>
   <property name="kdenlive_id">mix</property>
   <property name="internal_added">237</property>
   <property name="always_active">1</property>
   <property name="accepts_blanks">1</property>
   <property name="sum">1</property>
  </transition>
  <transition id="transition3" in="00:00:11.300" out="00:00:12.967">
   <property name="a_track">16</property>
   <property name="b_track">17</property>
   <property name="start">0/0:100%x100%</property>
   <property name="factory">loader</property>
   <property name="aligned">0</property>
   <property name="progressive">1</property>
   <property name="mlt_service">composite</property>
   <property name="kdenlive_id">wipe</property>
   <property name="softness">0</property>
   <property name="luma"/>
   <property name="luma_invert">0</property>
   <property name="geometry">0%/0%:100%x100%:0;-1=0%/0%:100%x100%:100</property>
   <property name="fill">1</property>
  </transition>
  <transition id="transition4" in="00:05:51.233" out="00:05:51.900">
   <property name="a_track">14</property>
   <property name="b_track">15</property>
   <property name="start">0/0:100%x100%</property>
   <property name="factory">loader</property>
   <property name="aligned">0</property>
   <property name="progressive">1</property>
   <property name="mlt_service">composite</property>
   <property name="kdenlive_id">wipe</property>
   <property name="softness">0</property>
   <property name="luma"/>
   <property name="luma_invert">0</property>
   <property name="geometry">0%/0%:100%x100%:100;-1=0%/0%:100%x100%:0</property>
   <property name="fill">1</property>
  </transition>
  <transition id="transition5" in="00:06:00.300" out="00:06:01.033">
   <property name="a_track">14</property>
   <property name="b_track">15</property>
   <property name="start">0/0:100%x100%</property>
   <property name="factory">loader</property>
   <property name="aligned">0</property>
   <property name="progressive">1</property>
   <property name="mlt_service">composite</property>
   <property name="kdenlive_id">wipe</property>
   <property name="softness">0</property>
   <property name="luma"/>
   <property name="luma_invert">0</property>
   <property name="geometry">0%/0%:100%x100%:0;-1=0%/0%:100%x100%:100</property>
   <property name="fill">1</property>
  </transition>
  <transition id="transition6" in="00:03:01.667" out="00:03:02.333">
   <property name="a_track">14</property>
   <property name="b_track">15</property>
   <property name="start">0/0:100%x100%</property>
   <property name="factory">loader</property>
   <property name="aligned">0</property>
   <property name="progressive">1</property>
   <property name="mlt_service">composite</property>
   <property name="kdenlive_id">wipe</property>
   <property name="force_track">1</property>
   <property name="softness">0</property>
   <property name="luma"/>
   <property name="luma_invert">0</property>
   <property name="geometry">0%/0%:100%x100%:100;-1=0%/0%:100%x100%:0</property>
   <property name="fill">1</property>
  </transition>
  <transition id="transition7" in="00:03:01.667" out="00:03:14.733">
   <property name="a_track">14</property>
   <property name="b_track">17</property>
   <property name="version">0.9</property>
   <property name="mlt_service">frei0r.cairoblend</property>
   <property name="kdenlive_id">frei0r.cairoblend</property>
   <property name="force_track">1</property>
   <property name="0">00:00:00.000=0.48</property>
   <property name="1">colordodge</property>
  </transition>
  <transition id="transition8" in="00:04:04.767" out="00:04:05.133">
   <property name="a_track">13</property>
   <property name="b_track">15</property>
   <property name="start">0/0:100%x100%</property>
   <property name="factory">loader</property>
   <property name="aligned">0</property>
   <property name="progressive">1</property>
   <property name="mlt_service">composite</property>
   <property name="kdenlive_id">wipe</property>
   <property name="force_track">1</property>
   <property name="softness">0</property>
   <property name="luma"/>
   <property name="luma_invert">0</property>
   <property name="geometry">0%/0%:100%x100%:100;-1=0%/0%:100%x100%:0</property>
   <property name="fill">1</property>
  </transition>
  <transition id="transition9" in="00:06:12.867" out="00:06:13.900">
   <property name="a_track">13</property>
   <property name="b_track">15</property>
   <property name="start">0/0:100%x100%</property>
   <property name="factory">loader</property>
   <property name="aligned">0</property>
   <property name="progressive">1</property>
   <property name="mlt_service">composite</property>
   <property name="kdenlive_id">wipe</property>
   <property name="force_track">1</property>
   <property name="softness">0</property>
   <property name="luma"/>
   <property name="luma_invert">0</property>
   <property name="geometry">0%/0%:100%x100%:100;-1=0%/0%:100%x100%:0</property>
   <property name="fill">1</property>
  </transition>
  <transition id="transition10" in="00:00:13.000" out="00:00:20.067">
   <property name="a_track">13</property>
   <property name="b_track">17</property>
   <property name="version">0.2</property>
   <property name="mlt_service">frei0r.overlay</property>
   <property name="kdenlive_id">frei0r.overlay</property>
   <property name="force_track">1</property>
  </transition>
  <transition id="transition11" in="00:00:07.000" out="00:00:12.967">
   <property name="a_track">12</property>
   <property name="b_track">16</property>
   <property name="version">0.2</property>
   <property name="mlt_service">frei0r.overlay</property>
   <property name="kdenlive_id">frei0r.overlay</property>
   <property name="force_track">1</property>
  </transition>
  <transition id="transition12" in="00:00:20.100" out="00:00:52.100">
   <property name="a_track">12</property>
   <property name="b_track">17</property>
   <property name="version">0.2</property>
   <property name="mlt_service">frei0r.overlay</property>
   <property name="kdenlive_id">frei0r.overlay</property>
   <property name="force_track">1</property>
  </transition>
  <transition id="transition13" in="00:01:01.367" out="00:01:30.000">
   <property name="a_track">12</property>
   <property name="b_track">17</property>
   <property name="version">0.2</property>
   <property name="mlt_service">frei0r.overlay</property>
   <property name="kdenlive_id">frei0r.overlay</property>
   <property name="force_track">1</property>
  </transition>
  <transition id="transition14" in="00:04:47.433" out="00:04:48.033">
   <property name="a_track">10</property>
   <property name="b_track">11</property>
   <property name="start">0/0:100%x100%</property>
   <property name="factory">loader</property>
   <property name="aligned">0</property>
   <property name="progressive">1</property>
   <property name="mlt_service">composite</property>
   <property name="kdenlive_id">wipe</property>
   <property name="force_track">1</property>
   <property name="softness">0</property>
   <property name="luma"/>
   <property name="luma_invert">0</property>
   <property name="geometry">0%/0%:100%x100%:0;-1=0%/0%:100%x100%:100</property>
   <property name="fill">1</property>
  </transition>
  <transition id="transition15" in="00:02:51.133" out="00:02:52.600">
   <property name="a_track">10</property>
   <property name="b_track">14</property>
   <property name="start">0/0:100%x100%</property>
   <property name="factory">loader</property>
   <property name="aligned">0</property>
   <property name="progressive">1</property>
   <property name="mlt_service">composite</property>
   <property name="kdenlive_id">wipe</property>
   <property name="force_track">1</property>
   <property name="softness">0</property>
   <property name="luma"/>
   <property name="luma_invert">0</property>
   <property name="geometry">0%/0%:100%x100%:100;-1=0%/0%:100%x100%:0</property>
   <property name="fill">1</property>
  </transition>
  <transition id="transition16" in="00:03:13.600" out="00:03:14.733">
   <property name="a_track">10</property>
   <property name="b_track">14</property>
   <property name="start">0/0:100%x100%</property>
   <property name="factory">loader</property>
   <property name="aligned">0</property>
   <property name="progressive">1</property>
   <property name="mlt_service">composite</property>
   <property name="kdenlive_id">wipe</property>
   <property name="force_track">1</property>
   <property name="softness">0</property>
   <property name="luma"/>
   <property name="luma_invert">0</property>
   <property name="geometry">0%/0%:100%x100%:100;-1=0%/0%:100%x100%:0</property>
   <property name="fill">1</property>
  </transition>
  <transition id="transition17" in="00:01:15.767" out="00:01:17.433">
   <property name="a_track">8</property>
   <property name="b_track">9</property>
   <property name="start">0/0:100%x100%</property>
   <property name="factory">loader</property>
   <property name="aligned">0</property>
   <property name="progressive">1</property>
   <property name="mlt_service">composite</property>
   <property name="kdenlive_id">wipe</property>
   <property name="softness">0.6</property>
   <property name="luma">/tmp/.mount_kdenliSiqZuy/usr/share/kdenlive/lumas/HD/cloud.pgm</property>
   <property name="luma_invert">1</property>
   <property name="geometry">0%/0%:100%x100%:100;-1=0%/0%:100%x100%:0</property>
   <property name="fill">1</property>
  </transition>
  <transition id="transition18" in="00:01:09.467" out="00:01:09.933">
   <property name="a_track">8</property>
   <property name="b_track">9</property>
   <property name="start">0/0:100%x100%</property>
   <property name="factory">loader</property>
   <property name="aligned">0</property>
   <property name="progressive">1</property>
   <property name="mlt_service">composite</property>
   <property name="kdenlive_id">wipe</property>
   <property name="softness">0.2</property>
   <property name="luma">content/effects/brush_strokes_v2.pgm</property>
   <property name="luma_invert">0</property>
   <property name="geometry">0%/0%:100%x100%:0;-1=0%/0%:100%x100%:100</property>
   <property name="fill">1</property>
  </transition>
  <transition id="transition19" in="00:01:22.300" out="00:01:24.233">
   <property name="a_track">8</property>
   <property name="b_track">9</property>
   <property name="start">0/0:100%x100%</property>
   <property name="factory">loader</property>
   <property name="aligned">0</property>
   <property name="progressive">1</property>
   <property name="mlt_service">composite</property>
   <property name="kdenlive_id">wipe</property>
   <property name="softness">0.6</property>
   <property name="luma">/tmp/.mount_kdenliSiqZuy/usr/share/kdenlive/lumas/HD/cloud.pgm</property>
   <property name="luma_invert">0</property>
   <property name="geometry">0%/0%:100%x100%:0;-1=0%/0%:100%x100%:100</property>
   <property name="fill">1</property>
  </transition>
  <transition id="transition20" in="00:01:06.100" out="00:01:06.600">
   <property name="a_track">7</property>
   <property name="b_track">9</property>
   <property name="start">0/0:100%x100%</property>
   <property name="factory">loader</property>
   <property name="aligned">0</property>
   <property name="progressive">1</property>
   <property name="mlt_service">composite</property>
   <property name="kdenlive_id">wipe</property>
   <property name="softness">0.2</property>
   <property name="luma">content/effects/brush_strokes_v2_flip.pgm</property>
   <property name="luma_invert">1</property>
   <property name="geometry">0%/0%:100%x100%:100;-1=0%/0%:100%x100%:0</property>
   <property name="fill">1</property>
   <property name="force_track">1</property>
  </transition>
  <transition id="transition21" in="00:04:41.767" out="00:04:48.033">
   <property name="a_track">7</property>
   <property name="b_track">10</property>
   <property name="version">0.9</property>
   <property name="mlt_service">frei0r.cairoblend</property>
   <property name="kdenlive_id">frei0r.cairoblend</property>
   <property name="force_track">1</property>
   <property name="0">00:00:00.000=0.64</property>
   <property name="1">add</property>
  </transition>
  <transition id="transition22" in="00:00:55.367" out="00:00:58.333">
   <property name="a_track">6</property>
   <property name="b_track">7</property>
   <property name="version">0.2</property>
   <property name="mlt_service">frei0r.alphaover</property>
   <property name="kdenlive_id">frei0r.alphaover</property>
  </transition>
  <transition id="transition23" in="00:04:53.700" out="00:05:02.900">
   <property name="a_track">6</property>
   <property name="b_track">7</property>
   <property name="version">0.9</property>
   <property name="mlt_service">frei0r.cairoblend</property>
   <property name="kdenlive_id">frei0r.cairoblend</property>
   <property name="0">00:00:00.000=0.5</property>
   <property name="1">hardlight</property>
  </transition>
  <transition id="transition24" in="00:04:41.767" out="00:04:42.167">
   <property name="a_track">6</property>
   <property name="b_track">7</property>
   <property name="start">0/0:100%x100%</property>
   <property name="factory">loader</property>
   <property name="aligned">0</property>
   <property name="progressive">1</property>
   <property name="mlt_service">composite</property>
   <property name="kdenlive_id">wipe</property>
   <property name="softness">0</property>
   <property name="luma"/>
   <property name="luma_invert">0</property>
   <property name="geometry">0%/0%:100%x100%:0;-1=0%/0%:100%x100%:100</property>
   <property name="fill">1</property>
  </transition>
  <transition id="transition25" in="00:06:12.867" out="00:06:21.467">
   <property name="a_track">6</property>
   <property name="b_track">13</property>
   <property name="version">0.2</property>
   <property name="mlt_service">frei0r.grain_merge</property>
   <property name="kdenlive_id">frei0r.grain_merge</property>
   <property name="force_track">1</property>
  </transition>
  <transition id="transition26" in="00:00:46.433" out="00:01:01.933">
   <property name="a_track">6</property>
   <property name="b_track">16</property>
   <property name="version">0.2</property>
   <property name="mlt_service">frei0r.overlay</property>
   <property name="kdenlive_id">frei0r.overlay</property>
   <property name="force_track">1</property>
  </transition>
  <transition id="transition27" in="00:05:06.700" out="00:05:10.067">
   <property name="a_track">5</property>
   <property name="b_track">6</property>
   <property name="version">0.9</property>
   <property name="mlt_service">frei0r.cairoblend</property>
   <property name="kdenlive_id">frei0r.cairoblend</property>
   <property name="0">00:00:00.000=100</property>
   <property name="1">hardlight</property>
  </transition>
  <transition id="transition28" in="00:01:59.533" out="00:02:01.067">
   <property name="a_track">5</property>
   <property name="b_track">6</property>
   <property name="start">0/0:100%x100%</property>
   <property name="factory">loader</property>
   <property name="aligned">0</property>
   <property name="progressive">1</property>
   <property name="mlt_service">composite</property>
   <property name="kdenlive_id">wipe</property>
   <property name="softness">0</property>
   <property name="luma">/tmp/.mount_kdenliSiqZuy/usr/share/kdenlive/lumas/HD/cloud.pgm</property>
   <property name="luma_invert">0</property>
   <property name="geometry">0%/0%:100%x100%:100;-1=0%/0%:100%x100%:0</property>
   <property name="fill">1</property>
  </transition>
  <transition id="transition29" in="00:01:40.900" out="00:01:46.433">
   <property name="a_track">5</property>
   <property name="b_track">6</property>
   <property name="version">0.2</property>
   <property name="mlt_service">frei0r.alphaover</property>
   <property name="kdenlive_id">frei0r.alphaover</property>
  </transition>
  <transition id="transition30" in="00:01:29.500" out="00:01:30.533">
   <property name="a_track">5</property>
   <property name="b_track">9</property>
   <property name="start">0/0:100%x100%</property>
   <property name="factory">loader</property>
   <property name="aligned">0</property>
   <property name="progressive">1</property>
   <property name="mlt_service">composite</property>
   <property name="kdenlive_id">wipe</property>
   <property name="softness">0.2</property>
   <property name="luma">content/effects/brush_strokes_v2_flip.pgm</property>
   <property name="luma_invert">1</property>
   <property name="geometry">0%/0%:100%x100%:100;-1=0%/0%:100%x100%:0</property>
   <property name="fill">1</property>
   <property name="force_track">1</property>
  </transition>
  <transition id="transition31" in="00:02:51.133" out="00:02:55.233">
   <property name="a_track">5</property>
   <property name="b_track">10</property>
   <property name="version">0.9</property>
   <property name="mlt_service">frei0r.cairoblend</property>
   <property name="kdenlive_id">frei0r.cairoblend</property>
   <property name="force_track">1</property>
   <property name="0">00:00:00.000=100</property>
   <property name="1">softlight</property>
  </transition>
  <transition id="transition32" in="00:02:53.500" out="00:03:01.633">
   <property name="a_track">5</property>
   <property name="b_track">15</property>
   <property name="version">0.9</property>
   <property name="mlt_service">frei0r.cairoblend</property>
   <property name="kdenlive_id">frei0r.cairoblend</property>
   <property name="force_track">1</property>
   <property name="0">00:00:00.000=0;00:00:01.767=0.48</property>
   <property name="1">darken</property>
  </transition>
  <transition id="transition33" in="00:01:40.900" out="00:01:43.067">
   <property name="a_track">5</property>
   <property name="b_track">15</property>
   <property name="start">0/0:100%x100%</property>
   <property name="factory">loader</property>
   <property name="aligned">0</property>
   <property name="progressive">1</property>
   <property name="mlt_service">composite</property>
   <property name="kdenlive_id">wipe</property>
   <property name="softness">0.33</property>
   <property name="luma">content/effects/brush_strokes_v2.pgm</property>
   <property name="luma_invert">1</property>
   <property name="geometry">0%/0%:100%x100%:100;-1=0%/0%:100%x100%:0</property>
   <property name="fill">1</property>
   <property name="force_track">1</property>
  </transition>
  <transition id="transition34" in="00:05:51.233" out="00:06:01.033">
   <property name="a_track">5</property>
   <property name="b_track">16</property>
   <property name="version">0.9</property>
   <property name="mlt_service">frei0r.cairoblend</property>
   <property name="kdenlive_id">frei0r.cairoblend</property>
   <property name="force_track">1</property>
   <property name="0">00:00:00.000=0.57</property>
   <property name="1">overlay</property>
  </transition>
  <transition id="transition35" in="00:06:12.867" out="00:06:13.900">
   <property name="a_track">4</property>
   <property name="b_track">5</property>
   <property name="start">0/0:100%x100%</property>
   <property name="factory">loader</property>
   <property name="aligned">0</property>
   <property name="progressive">1</property>
   <property name="mlt_service">composite</property>
   <property name="kdenlive_id">wipe</property>
   <property name="softness">0</property>
   <property name="luma"/>
   <property name="luma_invert">0</property>
   <property name="geometry">0%/0%:100%x100%:0;-1=0%/0%:100%x100%:100</property>
   <property name="fill">1</property>
  </transition>
  <transition id="transition36" in="00:03:19.700" out="00:03:21.100">
   <property name="a_track">4</property>
   <property name="b_track">5</property>
   <property name="start">0/0:100%x100%</property>
   <property name="factory">loader</property>
   <property name="aligned">0</property>
   <property name="progressive">1</property>
   <property name="mlt_service">composite</property>
   <property name="kdenlive_id">wipe</property>
   <property name="softness">0</property>
   <property name="luma"/>
   <property name="luma_invert">0</property>
   <property name="geometry">0%/0%:100%x100%:100;-1=0%/0%:100%x100%:0</property>
   <property name="fill">1</property>
  </transition>
  <transition id="transition37" in="00:04:10.733" out="00:04:11.967">
   <property name="a_track">4</property>
   <property name="b_track">5</property>
   <property name="start">0/0:100%x100%</property>
   <property name="factory">loader</property>
   <property name="aligned">0</property>
   <property name="progressive">1</property>
   <property name="mlt_service">composite</property>
   <property name="kdenlive_id">wipe</property>
   <property name="softness">0</property>
   <property name="luma"/>
   <property name="luma_invert">0</property>
   <property name="geometry">0%/0%:100%x100%:0;-1=0%/0%:100%x100%:100</property>
   <property name="fill">1</property>
  </transition>
  <transition id="transition38" in="00:05:51.233" out="00:05:51.900">
   <property name="a_track">4</property>
   <property name="b_track">5</property>
   <property name="start">0/0:100%x100%</property>
   <property name="factory">loader</property>
   <property name="aligned">0</property>
   <property name="progressive">1</property>
   <property name="mlt_service">composite</property>
   <property name="kdenlive_id">wipe</property>
   <property name="softness">0</property>
   <property name="luma"/>
   <property name="luma_invert">0</property>
   <property name="geometry">0%/0%:100%x100%:0;-1=0%/0%:100%x100%:100</property>
   <property name="fill">1</property>
  </transition>
  <transition id="transition39" in="00:05:02.333" out="00:05:13.933">
   <property name="a_track">4</property>
   <property name="b_track">5</property>
   <property name="version">0.9</property>
   <property name="mlt_service">frei0r.cairoblend</property>
   <property name="kdenlive_id">frei0r.cairoblend</property>
   <property name="0">00:00:00.000=0.5</property>
   <property name="1">hardlight</property>
  </transition>
  <transition id="transition40" in="00:04:04.433" out="00:04:05.000">
   <property name="a_track">4</property>
   <property name="b_track">5</property>
   <property name="start">0/0:100%x100%</property>
   <property name="factory">loader</property>
   <property name="aligned">0</property>
   <property name="progressive">1</property>
   <property name="mlt_service">composite</property>
   <property name="kdenlive_id">wipe</property>
   <property name="softness">0</property>
   <property name="luma"/>
   <property name="luma_invert">0</property>
   <property name="geometry">0%/0%:100%x100%:100;-1=0%/0%:100%x100%:0</property>
   <property name="fill">1</property>
  </transition>
  <transition id="transition41" in="00:06:00.300" out="00:06:01.033">
   <property name="a_track">4</property>
   <property name="b_track">5</property>
   <property name="start">0/0:100%x100%</property>
   <property name="factory">loader</property>
   <property name="aligned">0</property>
   <property name="progressive">1</property>
   <property name="mlt_service">composite</property>
   <property name="kdenlive_id">wipe</property>
   <property name="softness">0</property>
   <property name="luma"/>
   <property name="luma_invert">0</property>
   <property name="geometry">0%/0%:100%x100%:100;-1=0%/0%:100%x100%:0</property>
   <property name="fill">1</property>
  </transition>
  <transition id="transition42" in="00:02:49.667" out="00:02:51.667">
   <property name="a_track">4</property>
   <property name="b_track">5</property>
   <property name="start">0/0:100%x100%</property>
   <property name="factory">loader</property>
   <property name="aligned">0</property>
   <property name="progressive">1</property>
   <property name="mlt_service">composite</property>
   <property name="kdenlive_id">wipe</property>
   <property name="softness">0</property>
   <property name="luma"/>
   <property name="luma_invert">0</property>
   <property name="geometry">0%/0%:100%x100%:0;-1=0%/0%:100%x100%:100</property>
   <property name="fill">1</property>
  </transition>
  <transition id="transition43" in="00:00:26.533" out="00:00:31.300">
   <property name="a_track">4</property>
   <property name="b_track">5</property>
   <property name="start">0/0:100%x100%</property>
   <property name="factory">loader</property>
   <property name="aligned">0</property>
   <property name="progressive">1</property>
   <property name="mlt_service">composite</property>
   <property name="kdenlive_id">wipe</property>
   <property name="softness">0.05</property>
   <property name="luma">content/effects/brush_strokes_v2_flip.pgm</property>
   <property name="luma_invert">0</property>
   <property name="geometry">0%/0%:100%x100%:0;-1=0%/0%:100%x100%:100</property>
   <property name="fill">1</property>
  </transition>
  <transition id="transition44" in="00:00:21.600" out="00:00:26.433">
   <property name="a_track">4</property>
   <property name="b_track">5</property>
   <property name="start">0/0:100%x100%</property>
   <property name="factory">loader</property>
   <property name="aligned">0</property>
   <property name="progressive">1</property>
   <property name="mlt_service">composite</property>
   <property name="kdenlive_id">wipe</property>
   <property name="softness">0.5</property>
   <property name="luma">/tmp/.mount_kdenliSiqZuy/usr/share/kdenlive/lumas/HD/cloud.pgm</property>
   <property name="luma_invert">0</property>
   <property name="geometry">0%/0%:100%x100%:100;-1=0%/0%:100%x100%:0</property>
   <property name="fill">1</property>
  </transition>
  <transition id="transition45" in="00:02:12.367" out="00:02:14.000">
   <property name="a_track">4</property>
   <property name="b_track">5</property>
   <property name="start">0/0:100%x100%</property>
   <property name="factory">loader</property>
   <property name="aligned">0</property>
   <property name="progressive">1</property>
   <property name="mlt_service">composite</property>
   <property name="kdenlive_id">wipe</property>
   <property name="softness">0</property>
   <property name="luma">content/effects/brush_strokes_v2.pgm</property>
   <property name="luma_invert">1</property>
   <property name="geometry">0%/0%:100%x100%:100;-1=0%/0%:100%x100%:0</property>
   <property name="fill">1</property>
  </transition>
  <transition id="transition46" in="00:01:35.400" out="00:01:38.367">
   <property name="a_track">4</property>
   <property name="b_track">5</property>
   <property name="start">0/0:100%x100%</property>
   <property name="factory">loader</property>
   <property name="aligned">0</property>
   <property name="progressive">1</property>
   <property name="mlt_service">composite</property>
   <property name="kdenlive_id">wipe</property>
   <property name="softness">0.33</property>
   <property name="luma">/home/ryankelln/.local/share/kdenlive/lumas/HD/84389-watercolour-wash.pgm</property>
   <property name="luma_invert">0</property>
   <property name="geometry">0%/0%:100%x100%:100;-1=0%/0%:100%x100%:0</property>
   <property name="fill">1</property>
  </transition>
  <transition id="transition47" in="00:01:39.300" out="00:01:40.867">
   <property name="a_track">4</property>
   <property name="b_track">5</property>
   <property name="start">0/0:100%x100%</property>
   <property name="factory">loader</property>
   <property name="aligned">0</property>
   <property name="progressive">1</property>
   <property name="mlt_service">composite</property>
   <property name="kdenlive_id">wipe</property>
   <property name="softness">0</property>
   <property name="luma">/home/ryankelln/.local/share/kdenlive/lumas/HD/84389-watercolour-wash.pgm</property>
   <property name="luma_invert">0</property>
   <property name="geometry">0%/0%:100%x100%:0;-1=0%/0%:100%x100%:100</property>
   <property name="fill">1</property>
  </transition>
  <transition id="transition48" in="00:01:45.633" out="00:01:46.433">
   <property name="a_track">4</property>
   <property name="b_track">5</property>
   <property name="start">0/0:100%x100%</property>
   <property name="factory">loader</property>
   <property name="aligned">0</property>
   <property name="progressive">1</property>
   <property name="mlt_service">composite</property>
   <property name="kdenlive_id">wipe</property>
   <property name="softness">0.47</property>
   <property name="luma">/tmp/.mount_kdenliSiqZuy/usr/share/kdenlive/lumas/HD/cloud.pgm</property>
   <property name="luma_invert">0</property>
   <property name="geometry">0%/0%:100%x100%:100;-1=0%/0%:100%x100%:0</property>
   <property name="fill">1</property>
  </transition>
  <transition id="transition49" in="00:00:45.700" out="00:00:50.533">
   <property name="a_track">4</property>
   <property name="b_track">5</property>
   <property name="start">0/0:100%x100%</property>
   <property name="factory">loader</property>
   <property name="aligned">0</property>
   <property name="progressive">1</property>
   <property name="mlt_service">composite</property>
   <property name="kdenlive_id">wipe</property>
   <property name="softness">0.3</property>
   <property name="luma">/tmp/.mount_kdenliSiqZuy/usr/share/kdenlive/lumas/HD/cloud.pgm</property>
   <property name="luma_invert">0</property>
   <property name="geometry">0%/0%:100%x100%:100;-1=0%/0%:100%x100%:0</property>
   <property name="fill">1</property>
  </transition>
  <transition id="transition50" in="00:00:38.500" out="00:00:43.267">
   <property name="a_track">4</property>
   <property name="b_track">5</property>
   <property name="start">0/0:100%x100%</property>
   <property name="factory">loader</property>
   <property name="aligned">0</property>
   <property name="progressive">1</property>
   <property name="mlt_service">composite</property>
   <property name="kdenlive_id">wipe</property>
   <property name="softness">0.05</property>
   <property name="luma">content/effects/brush_strokes_v2.pgm</property>
   <property name="luma_invert">0</property>
   <property name="geometry">0%/0%:100%x100%:0;-1=0%/0%:100%x100%:100</property>
   <property name="fill">1</property>
  </transition>
  <transition id="transition51" in="00:00:33.733" out="00:00:38.467">
   <property name="a_track">4</property>
   <property name="b_track">5</property>
   <property name="start">0/0:100%x100%</property>
   <property name="factory">loader</property>
   <property name="aligned">0</property>
   <property name="progressive">1</property>
   <property name="mlt_service">composite</property>
   <property name="kdenlive_id">wipe</property>
   <property name="softness">0.3</property>
   <property name="luma">/tmp/.mount_kdenliSiqZuy/usr/share/kdenlive/lumas/HD/cloud.pgm</property>
   <property name="luma_invert">0</property>
   <property name="geometry">0%/0%:100%x100%:100;-1=0%/0%:100%x100%:0</property>
   <property name="fill">1</property>
  </transition>
  <transition id="transition52" in="00:00:14.233" out="00:00:19.500">
   <property name="a_track">4</property>
   <property name="b_track">5</property>
   <property name="start">0/0:100%x100%</property>
   <property name="factory">loader</property>
   <property name="aligned">0</property>
   <property name="progressive">1</property>
   <property name="mlt_service">composite</property>
   <property name="kdenlive_id">wipe</property>
   <property name="softness">0.06</property>
   <property name="luma">content/effects/brush_strokes_winter_trees.pgm</property>
   <property name="luma_invert">0</property>
   <property name="geometry">0%/0%:100%x100%:0;-1=0%/0%:100%x100%:100</property>
   <property name="fill">1</property>
  </transition>
  <transition id="transition53" in="00:04:17.867" out="00:04:18.133">
   <property name="a_track">4</property>
   <property name="b_track">6</property>
   <property name="start">0/0:100%x100%</property>
   <property name="factory">loader</property>
   <property name="aligned">0</property>
   <property name="progressive">1</property>
   <property name="mlt_service">composite</property>
   <property name="kdenlive_id">wipe</property>
   <property name="force_track">1</property>
   <property name="softness">0</property>
   <property name="luma"/>
   <property name="luma_invert">0</property>
   <property name="geometry">0%/0%:100%x100%:0;-1=0%/0%:100%x100%:100</property>
   <property name="fill">1</property>
  </transition>
  <transition id="transition54" in="00:05:13.467" out="00:05:13.933">
   <property name="a_track">4</property>
   <property name="b_track">6</property>
   <property name="start">0/0:100%x100%</property>
   <property name="factory">loader</property>
   <property name="aligned">0</property>
   <property name="progressive">1</property>
   <property name="mlt_service">composite</property>
   <property name="kdenlive_id">wipe</property>
   <property name="force_track">1</property>
   <property name="softness">0</property>
   <property name="luma"/>
   <property name="luma_invert">0</property>
   <property name="geometry">0%/0%:100%x100%:0;-1=0%/0%:100%x100%:100</property>
   <property name="fill">1</property>
  </transition>
  <transition id="transition55" in="00:04:25.133" out="00:04:25.767">
   <property name="a_track">4</property>
   <property name="b_track">6</property>
   <property name="start">0/0:100%x100%</property>
   <property name="factory">loader</property>
   <property name="aligned">0</property>
   <property name="progressive">1</property>
   <property name="mlt_service">composite</property>
   <property name="kdenlive_id">wipe</property>
   <property name="force_track">1</property>
   <property name="softness">0</property>
   <property name="luma"/>
   <property name="luma_invert">0</property>
   <property name="geometry">0%/0%:100%x100%:100;-1=0%/0%:100%x100%:0</property>
   <property name="fill">1</property>
  </transition>
  <transition id="transition56" in="00:04:32.200" out="00:04:32.767">
   <property name="a_track">4</property>
   <property name="b_track">6</property>
   <property name="start">0/0:100%x100%</property>
   <property name="factory">loader</property>
   <property name="aligned">0</property>
   <property name="progressive">1</property>
   <property name="mlt_service">composite</property>
   <property name="kdenlive_id">wipe</property>
   <property name="force_track">1</property>
   <property name="softness">0</property>
   <property name="luma"/>
   <property name="luma_invert">0</property>
   <property name="geometry">0%/0%:100%x100%:0;-1=0%/0%:100%x100%:100</property>
   <property name="fill">1</property>
  </transition>
  <transition id="transition57" in="00:05:02.333" out="00:05:02.900">
   <property name="a_track">4</property>
   <property name="b_track">6</property>
   <property name="start">0/0:100%x100%</property>
   <property name="factory">loader</property>
   <property name="aligned">0</property>
   <property name="progressive">1</property>
   <property name="mlt_service">composite</property>
   <property name="kdenlive_id">wipe</property>
   <property name="force_track">1</property>
   <property name="softness">0</property>
   <property name="luma"/>
   <property name="luma_invert">0</property>
   <property name="geometry">0%/0%:100%x100%:100;-1=0%/0%:100%x100%:0</property>
   <property name="fill">1</property>
  </transition>
  <transition id="transition58" in="00:00:46.433" out="00:00:51.200">
   <property name="a_track">4</property>
   <property name="b_track">6</property>
   <property name="start">0/0:100%x100%</property>
   <property name="factory">loader</property>
   <property name="aligned">0</property>
   <property name="progressive">1</property>
   <property name="mlt_service">composite</property>
   <property name="kdenlive_id">wipe</property>
   <property name="softness">0.05</property>
   <property name="luma">content/effects/brush_strokes_v2.pgm</property>
   <property name="luma_invert">0</property>
   <property name="geometry">0%/0%:100%x100%:0;-1=0%/0%:100%x100%:100</property>
   <property name="fill">1</property>
   <property name="force_track">1</property>
  </transition>
  <transition id="transition59" in="00:00:58.367" out="00:01:01.933">
   <property name="a_track">4</property>
   <property name="b_track">6</property>
   <property name="start">0/0:100%x100%</property>
   <property name="factory">loader</property>
   <property name="aligned">0</property>
   <property name="progressive">1</property>
   <property name="mlt_service">composite</property>
   <property name="kdenlive_id">wipe</property>
   <property name="softness">0.43</property>
   <property name="luma">/usr/share/kdenlive/lumas/HD/linear_x.pgm</property>
   <property name="luma_invert">0</property>
   <property name="geometry">0%/0%:100%x100%:100;-1=0%/0%:100%x100%:0</property>
   <property name="fill">1</property>
   <property name="force_track">1</property>
  </transition>
  <transition id="transition60" in="00:00:58.367" out="00:01:01.333">
   <property name="a_track">4</property>
   <property name="b_track">7</property>
   <property name="start">0/0:100%x100%</property>
   <property name="factory">loader</property>
   <property name="aligned">0</property>
   <property name="progressive">1</property>
   <property name="mlt_service">composite</property>
   <property name="kdenlive_id">wipe</property>
   <property name="force_track">1</property>
   <property name="softness">0.43</property>
   <property name="luma">/usr/share/kdenlive/lumas/HD/linear_x.pgm</property>
   <property name="luma_invert">1</property>
   <property name="geometry">0%/0%:100%x100%:100;-1=0%/0%:100%x100%:0</property>
   <property name="fill">1</property>
  </transition>
  <transition id="transition61" in="00:00:50.567" out="00:00:55.333">
   <property name="a_track">4</property>
   <property name="b_track">7</property>
   <property name="start">0/0:100%x100%</property>
   <property name="factory">loader</property>
   <property name="aligned">0</property>
   <property name="progressive">1</property>
   <property name="mlt_service">composite</property>
   <property name="kdenlive_id">wipe</property>
   <property name="softness">0.05</property>
   <property name="luma">content/effects/brush_strokes_v2_flip.pgm</property>
   <property name="luma_invert">0</property>
   <property name="geometry">0%/0%:100%x100%:0;-1=0%/0%:100%x100%:100</property>
   <property name="fill">1</property>
   <property name="force_track">1</property>
  </transition>
  <transition id="transition62" in="00:01:02.733" out="00:01:03.200">
   <property name="a_track">4</property>
   <property name="b_track">9</property>
   <property name="start">0/0:100%x100%</property>
   <property name="factory">loader</property>
   <property name="aligned">0</property>
   <property name="progressive">1</property>
   <property name="mlt_service">composite</property>
   <property name="kdenlive_id">wipe</property>
   <property name="softness">0.2</property>
   <property name="luma">content/effects/brush_strokes_v2.pgm</property>
   <property name="luma_invert">1</property>
   <property name="geometry">0%/0%:100%x100%:0;-1=0%/0%:100%x100%:100</property>
   <property name="fill">1</property>
   <property name="force_track">1</property>
  </transition>
  <transition id="transition63" in="00:05:28.167" out="00:05:36.933">
   <property name="a_track">4</property>
   <property name="b_track">10</property>
   <property name="version">0.2</property>
   <property name="mlt_service">frei0r.addition_alpha</property>
   <property name="kdenlive_id">frei0r.addition_alpha</property>
   <property name="force_track">1</property>
  </transition>
  <transition id="transition64" in="00:05:24.367" out="00:05:36.933">
   <property name="a_track">4</property>
   <property name="b_track">11</property>
   <property name="version">0.2</property>
   <property name="mlt_service">frei0r.addition_alpha</property>
   <property name="kdenlive_id">frei0r.addition_alpha</property>
   <property name="force_track">1</property>
  </transition>
  <transition id="transition65" in="00:04:53.700" out="00:04:54.867">
   <property name="a_track">4</property>
   <property name="b_track">11</property>
   <property name="start">0/0:100%x100%</property>
   <property name="factory">loader</property>
   <property name="aligned">0</property>
   <property name="progressive">1</property>
   <property name="mlt_service">composite</property>
   <property name="kdenlive_id">wipe</property>
   <property name="force_track">1</property>
   <property name="softness">0</property>
   <property name="luma"/>
   <property name="luma_invert">0</property>
   <property name="geometry">0%/0%:100%x100%:100;-1=0%/0%:100%x100%:0</property>
   <property name="fill">1</property>
  </transition>
  <transition id="transition66" in="00:01:01.367" out="00:01:03.200">
   <property name="a_track">4</property>
   <property name="b_track">12</property>
   <property name="start">0/0:100%x100%</property>
   <property name="factory">loader</property>
   <property name="aligned">0</property>
   <property name="progressive">1</property>
   <property name="mlt_service">composite</property>
   <property name="kdenlive_id">wipe</property>
   <property name="softness">0.12</property>
   <property name="luma">content/effects/brush_strokes_v2.pgm</property>
   <property name="luma_invert">0</property>
   <property name="geometry">0%/0%:100%x100%:0;-1=0%/0%:100%x100%:100</property>
   <property name="fill">1</property>
   <property name="force_track">1</property>
  </transition>
  <transition id="transition67" in="00:03:23.100" out="00:03:48.467">
   <property name="a_track">4</property>
   <property name="b_track">14</property>
   <property name="version">0.9</property>
   <property name="mlt_service">frei0r.cairoblend</property>
   <property name="kdenlive_id">frei0r.cairoblend</property>
   <property name="force_track">1</property>
   <property name="0">00:00:00.000=0.39;00:00:05.233=0.42;00:00:11.267=0.62;00:00:23.733=0.62;00:00:25.367=0.96</property>
   <property name="1">add</property>
  </transition>
  <transition id="transition68" in="00:03:01.667" out="00:03:04.633">
   <property name="a_track">4</property>
   <property name="b_track">14</property>
   <property name="version">0.9</property>
   <property name="mlt_service">frei0r.cairoblend</property>
   <property name="kdenlive_id">frei0r.cairoblend</property>
   <property name="force_track">1</property>
   <property name="0">00:00:00.000=100</property>
   <property name="1">lighten</property>
  </transition>
  <transition id="transition69" in="00:01:37.400" out="00:01:38.367">
   <property name="a_track">4</property>
   <property name="b_track">15</property>
   <property name="start">0/0:100%x100%</property>
   <property name="factory">loader</property>
   <property name="aligned">0</property>
   <property name="progressive">1</property>
   <property name="mlt_service">composite</property>
   <property name="kdenlive_id">wipe</property>
   <property name="softness">0</property>
   <property name="luma">content/effects/brush_strokes_v2_flip.pgm</property>
   <property name="luma_invert">0</property>
   <property name="geometry">0%/0%:100%x100%:0;-1=0%/0%:100%x100%:100</property>
   <property name="fill">1</property>
   <property name="force_track">1</property>
  </transition>
  <transition id="transition70" in="00:04:08.367" out="00:04:10.533">
   <property name="a_track">4</property>
   <property name="b_track">16</property>
   <property name="version">0.9</property>
   <property name="mlt_service">frei0r.cairoblend</property>
   <property name="kdenlive_id">frei0r.cairoblend</property>
   <property name="force_track">1</property>
   <property name="0">00:00:00.000=100</property>
   <property name="1">screen</property>
  </transition>
  <transition id="transition71" in="00:04:04.433" out="00:04:06.633">
   <property name="a_track">4</property>
   <property name="b_track">16</property>
   <property name="version">0.9</property>
   <property name="mlt_service">frei0r.cairoblend</property>
   <property name="kdenlive_id">frei0r.cairoblend</property>
   <property name="force_track">1</property>
   <property name="0">00:00:00.000=100</property>
   <property name="1">screen</property>
  </transition>
  <transition id="transition72" in="00:05:36.967" out="00:05:51.900">
   <property name="a_track">4</property>
   <property name="b_track">17</property>
   <property name="version">0.9</property>
   <property name="mlt_service">frei0r.cairoblend</property>
   <property name="kdenlive_id">frei0r.cairoblend</property>
   <property name="force_track">1</property>
   <property name="0">00:00:00.000=1</property>
   <property name="1">screen</property>
  </transition>
  <transition id="transition73" in="00:06:00.300" out="00:06:13.900">
   <property name="a_track">4</property>
   <property name="b_track">17</property>
   <property name="version">0.9</property>
   <property name="mlt_service">frei0r.cairoblend</property>
   <property name="kdenlive_id">frei0r.cairoblend</property>
   <property name="force_track">1</property>
   <property name="0">00:00:00.000=0.78</property>
   <property name="1">screen</property>
  </transition>
  <transition id="transition74" in="00:05:32.767" out="00:05:36.933">
   <property name="a_track">3</property>
   <property name="b_track">5</property>
   <property name="version">0.2</property>
   <property name="mlt_service">frei0r.addition_alpha</property>
   <property name="kdenlive_id">frei0r.addition_alpha</property>
   <property name="force_track">1</property>
  </transition>
  <transition id="transition75" in="00:05:29.600" out="00:05:36.933">
   <property name="a_track">3</property>
   <property name="b_track">6</property>
   <property name="version">0.2</property>
   <property name="mlt_service">frei0r.addition_alpha</property>
   <property name="kdenlive_id">frei0r.addition_alpha</property>
   <property name="force_track">1</property>
  </transition>
  <transition id="transition76" in="00:05:31.633" out="00:05:36.933">
   <property name="a_track">3</property>
   <property name="b_track">7</property>
   <property name="version">0.2</property>
   <property name="mlt_service">frei0r.addition_alpha</property>
   <property name="kdenlive_id">frei0r.addition_alpha</property>
   <property name="force_track">1</property>
  </transition>
  <transition id="transition77">
   <property name="a_track">0</property>
   <property name="b_track">4</property>
   <property name="compositing">0</property>
   <property name="distort">0</property>
   <property name="rotate_center">0</property>
   <property name="mlt_service">qtblend</property>
   <property name="kdenlive_id">qtblend</property>
   <property name="internal_added">237</property>
   <property name="always_active">1</property>
  </transition>
  <transition id="transition78">
   <property name="a_track">0</property>
   <property name="b_track">5</property>
   <property name="compositing">0</property>
   <property name="distort">0</property>
   <property name="rotate_center">0</property>
   <property name="mlt_service">qtblend</property>
   <property name="kdenlive_id">qtblend</property>
   <property name="internal_added">237</property>
   <property name="always_active">1</property>
  </transition>
  <transition id="transition79">
   <property name="a_track">0</property>
   <property name="b_track">6</property>
   <property name="compositing">0</property>
   <property name="distort">0</property>
   <property name="rotate_center">0</property>
   <property name="mlt_service">qtblend</property>
   <property name="kdenlive_id">qtblend</property>
   <property name="internal_added">237</property>
   <property name="always_active">1</property>
  </transition>
  <transition id="transition80">
   <property name="a_track">0</property>
   <property name="b_track">7</property>
   <property name="compositing">0</property>
   <property name="distort">0</property>
   <property name="rotate_center">0</property>
   <property name="mlt_service">qtblend</property>
   <property name="kdenlive_id">qtblend</property>
   <property name="internal_added">237</property>
   <property name="always_active">1</property>
  </transition>
  <transition id="transition81">
   <property name="a_track">0</property>
   <property name="b_track">8</property>
   <property name="compositing">0</property>
   <property name="distort">0</property>
   <property name="rotate_center">0</property>
   <property name="mlt_service">qtblend</property>
   <property name="kdenlive_id">qtblend</property>
   <property name="internal_added">237</property>
   <property name="always_active">1</property>
  </transition>
  <transition id="transition82">
   <property name="a_track">0</property>
   <property name="b_track">9</property>
   <property name="compositing">0</property>
   <property name="distort">0</property>
   <property name="rotate_center">0</property>
   <property name="mlt_service">qtblend</property>
   <property name="kdenlive_id">qtblend</property>
   <property name="internal_added">237</property>
   <property name="always_active">1</property>
  </transition>
  <transition id="transition83">
   <property name="a_track">0</property>
   <property name="b_track">10</property>
   <property name="compositing">0</property>
   <property name="distort">0</property>
   <property name="rotate_center">0</property>
   <property name="mlt_service">qtblend</property>
   <property name="kdenlive_id">qtblend</property>
   <property name="internal_added">237</property>
   <property name="always_active">1</property>
  </transition>
  <transition id="transition84">
   <property name="a_track">0</property>
   <property name="b_track">11</property>
   <property name="compositing">0</property>
   <property name="distort">0</property>
   <property name="rotate_center">0</property>
   <property name="mlt_service">qtblend</property>
   <property name="kdenlive_id">qtblend</property>
   <property name="internal_added">237</property>
   <property name="always_active">1</property>
  </transition>
  <transition id="transition85">
   <property name="a_track">0</property>
   <property name="b_track">12</property>
   <property name="compositing">0</property>
   <property name="distort">0</property>
   <property name="rotate_center">0</property>
   <property name="mlt_service">qtblend</property>
   <property name="kdenlive_id">qtblend</property>
   <property name="internal_added">237</property>
   <property name="always_active">1</property>
  </transition>
  <transition id="transition86">
   <property name="a_track">0</property>
   <property name="b_track">13</property>
   <property name="compositing">0</property>
   <property name="distort">0</property>
   <property name="rotate_center">0</property>
   <property name="mlt_service">qtblend</property>
   <property name="kdenlive_id">qtblend</property>
   <property name="internal_added">237</property>
   <property name="always_active">1</property>
  </transition>
  <transition id="transition87">
   <property name="a_track">0</property>
   <property name="b_track">14</property>
   <property name="compositing">0</property>
   <property name="distort">0</property>
   <property name="rotate_center">0</property>
   <property name="mlt_service">qtblend</property>
   <property name="kdenlive_id">qtblend</property>
   <property name="internal_added">237</property>
   <property name="always_active">1</property>
  </transition>
  <transition id="transition88">
   <property name="a_track">0</property>
   <property name="b_track">15</property>
   <property name="compositing">0</property>
   <property name="distort">0</property>
   <property name="rotate_center">0</property>
   <property name="mlt_service">qtblend</property>
   <property name="kdenlive_id">qtblend</property>
   <property name="internal_added">237</property>
   <property name="always_active">1</property>
  </transition>
  <transition id="transition89">
   <property name="a_track">0</property>
   <property name="b_track">16</property>
   <property name="compositing">0</property>
   <property name="distort">0</property>
   <property name="rotate_center">0</property>
   <property name="mlt_service">qtblend</property>
   <property name="kdenlive_id">qtblend</property>
   <property name="internal_added">237</property>
   <property name="always_active">1</property>
  </transition>
  <transition id="transition90">
   <property name="a_track">0</property>
   <property name="b_track">17</property>
   <property name="compositing">0</property>
   <property name="distort">0</property>
   <property name="rotate_center">0</property>
   <property name="mlt_service">qtblend</property>
   <property name="kdenlive_id">qtblend</property>
   <property name="internal_added">237</property>
   <property name="always_active">1</property>
  </transition>
  <filter id="filter522">
   <property name="window">75</property>
   <property name="max_gain">20dB</property>
   <property name="mlt_service">volume</property>
   <property name="internal_added">237</property>
   <property name="disable">1</property>
  </filter>
  <filter id="filter523">
   <property name="channel">-1</property>
   <property name="mlt_service">panner</property>
   <property name="internal_added">237</property>
   <property name="start">0.5</property>
   <property name="disable">1</property>
  </filter>
  <filter id="filter505">
   <property name="iec_scale">0</property>
   <property name="mlt_service">audiolevel</property>
   <property name="disable">1</property>
  </filter>
 </tractor>
</mlt>
