<?xml version='1.0' encoding='utf-8'?>
<mlt LC_NUMERIC="C" producer="main_bin" version="6.26.1" root="/home/ryankelln/Documents/Projects/Active/Sound_Escapes/Mason/final">
 <profile frame_rate_num="30" sample_aspect_num="1" display_aspect_den="9" colorspace="709" progressive="1" description="HD 1080p 30 fps" display_aspect_num="16" frame_rate_den="1" width="1920" height="1080" sample_aspect_den="1"/>
 <producer id="producer0" in="00:00:00.000" out="00:00:15.000">
  <property name="length">451</property>
  <property name="eof">pause</property>
  <property name="resource">/home/ryankelln/Documents/Projects/Active/Sound_Escapes/Mason/storyboard/the_night_is_young_124000_d3f121a8.mp4</property>
  <property name="audio_index">1</property>
  <property name="video_index">0</property>
  <property name="mute_on_pause">0</property>
  <property name="mlt_service">avformat-novalidate</property>
  <property name="meta.media.nb_streams">2</property>
  <property name="meta.media.0.stream.type">video</property>
  <property name="meta.media.0.stream.frame_rate">30</property>
  <property name="meta.media.0.stream.sample_aspect_ratio">0</property>
  <property name="meta.media.0.codec.width">512</property>
  <property name="meta.media.0.codec.height">512</property>
  <property name="meta.media.0.codec.rotate">0</property>
  <property name="meta.media.0.codec.frame_rate">30</property>
  <property name="meta.media.0.codec.pix_fmt">yuv420p</property>
  <property name="meta.media.0.codec.sample_aspect_ratio">0</property>
  <property name="meta.media.0.codec.colorspace">601</property>
  <property name="meta.media.0.codec.name">h264</property>
  <property name="meta.media.0.codec.long_name">H.264 / AVC / MPEG-4 AVC / MPEG-4 part 10</property>
  <property name="meta.media.0.codec.bit_rate">752930</property>
  <property name="meta.attr.0.stream.handler_name.markup">VideoHandler</property>
  <property name="meta.attr.0.stream.vendor_id.markup">[0][0][0][0]</property>
  <property name="meta.media.1.stream.type">audio</property>
  <property name="meta.media.1.codec.sample_fmt">fltp</property>
  <property name="meta.media.1.codec.sample_rate">48000</property>
  <property name="meta.media.1.codec.channels">2</property>
  <property name="meta.media.1.codec.name">aac</property>
  <property name="meta.media.1.codec.long_name">AAC (Advanced Audio Coding)</property>
  <property name="meta.media.1.codec.bit_rate">315283</property>
  <property name="meta.attr.1.stream.handler_name.markup">SoundHandler</property>
  <property name="meta.attr.1.stream.vendor_id.markup">[0][0][0][0]</property>
  <property name="meta.attr.major_brand.markup">isom</property>
  <property name="meta.attr.minor_version.markup">512</property>
  <property name="meta.attr.compatible_brands.markup">isomiso2avc1mp41</property>
  <property name="meta.attr.encoder.markup">Lavf58.29.100</property>
  <property name="seekable">1</property>
  <property name="meta.media.sample_aspect_num">1</property>
  <property name="meta.media.sample_aspect_den">1</property>
  <property name="aspect_ratio">1</property>
  <property name="kdenlive:clipname"/>
  <property name="meta.media.frame_rate_num">30</property>
  <property name="meta.media.frame_rate_den">1</property>
  <property name="meta.media.colorspace">601</property>
  <property name="meta.media.color_trc">2</property>
  <property name="meta.media.width">512</property>
  <property name="meta.media.height">512</property>
  <property name="meta.media.color_range">mpeg</property>
  <property name="meta.media.top_field_first">0</property>
  <property name="meta.media.progressive">1</property>
  <property name="kdenlive:folderid">60</property>
  <property name="kdenlive:id">2</property>
  <property name="kdenlive:file_size">12114559</property>
  <property name="kdenlive:audio_max">1</property>
  <property name="global_feed">1</property>
  <property name="kdenlive:file_hash">7b98c69b7c05695fa8f37ff12780e61e</property>
 </producer>
 <producer id="producer1" in="00:00:00.000" out="00:00:33.000">
  <property name="length">991</property>
  <property name="eof">pause</property>
  <property name="resource">/home/ryankelln/Documents/Projects/Active/Sound_Escapes/Mason/footage/Moon Close Up H264.mp4</property>
  <property name="audio_index">-1</property>
  <property name="video_index">0</property>
  <property name="mute_on_pause">0</property>
  <property name="mlt_service">avformat-novalidate</property>
  <property name="meta.media.nb_streams">1</property>
  <property name="meta.media.0.stream.type">video</property>
  <property name="meta.media.0.stream.frame_rate">23.976</property>
  <property name="meta.media.0.stream.sample_aspect_ratio">0</property>
  <property name="meta.media.0.codec.width">1920</property>
  <property name="meta.media.0.codec.height">1080</property>
  <property name="meta.media.0.codec.rotate">0</property>
  <property name="meta.media.0.codec.frame_rate">23.976</property>
  <property name="meta.media.0.codec.pix_fmt">yuv420p</property>
  <property name="meta.media.0.codec.sample_aspect_ratio">1</property>
  <property name="meta.media.0.codec.colorspace">709</property>
  <property name="meta.media.0.codec.name">h264</property>
  <property name="meta.media.0.codec.long_name">H.264 / AVC / MPEG-4 AVC / MPEG-4 part 10</property>
  <property name="meta.media.0.codec.bit_rate">45029289</property>
  <property name="meta.attr.0.stream.creation_time.markup">2016-06-25T03:07:49.000000Z</property>
  <property name="meta.attr.0.stream.language.markup">eng</property>
  <property name="meta.attr.0.stream.handler_name.markup">Mainconcept MP4 Video Media Handler</property>
  <property name="meta.attr.0.stream.vendor_id.markup">[0][0][0][0]</property>
  <property name="meta.attr.0.stream.encoder.markup">AVC Coding</property>
  <property name="meta.attr.major_brand.markup">mp42</property>
  <property name="meta.attr.minor_version.markup">0</property>
  <property name="meta.attr.compatible_brands.markup">mp42mp41</property>
  <property name="meta.attr.creation_time.markup">2016-06-25T03:07:49.000000Z</property>
  <property name="seekable">1</property>
  <property name="meta.media.sample_aspect_num">1</property>
  <property name="meta.media.sample_aspect_den">1</property>
  <property name="aspect_ratio">1</property>
  <property name="kdenlive:clipname"/>
  <property name="kdenlive:folderid">60</property>
  <property name="meta.media.frame_rate_num">2997</property>
  <property name="meta.media.frame_rate_den">125</property>
  <property name="meta.media.colorspace">709</property>
  <property name="meta.media.color_trc">2</property>
  <property name="meta.media.width">1920</property>
  <property name="meta.media.height">1080</property>
  <property name="meta.media.color_range">mpeg</property>
  <property name="kdenlive:id">3</property>
  <property name="kdenlive:file_size">185944337</property>
  <property name="kdenlive:file_hash">4c25de1b89c6ce3f9d309a05a519521f</property>
  <property name="meta.media.top_field_first">0</property>
  <property name="meta.media.progressive">1</property>
  <property name="global_feed">1</property>
 </producer>
 <producer id="producer2" in="00:00:00.000" out="00:06:29.533">
  <property name="length">11687</property>
  <property name="eof">pause</property>
  <property name="resource">/home/ryankelln/Documents/Projects/Active/Sound_Escapes/Mason/TheNightIsYoung_20210430_SoundEscapes-130bpm.mp3</property>
  <property name="meta.media.nb_streams">1</property>
  <property name="meta.media.0.stream.type">audio</property>
  <property name="meta.media.0.codec.sample_fmt">fltp</property>
  <property name="meta.media.0.codec.sample_rate">48000</property>
  <property name="meta.media.0.codec.channels">2</property>
  <property name="meta.media.0.codec.name">mp3float</property>
  <property name="meta.media.0.codec.long_name">MP3 (MPEG audio layer 3)</property>
  <property name="meta.media.0.codec.bit_rate">320000</property>
  <property name="meta.attr.0.stream.encoder.markup">LAME3.99r</property>
  <property name="seekable">1</property>
  <property name="audio_index">0</property>
  <property name="video_index">-1</property>
  <property name="mute_on_pause">1</property>
  <property name="mlt_service">avformat</property>
  <property name="kdenlive:clipname"/>
  <property name="kdenlive:folderid">60</property>
  <property name="kdenlive:id">4</property>
  <property name="kdenlive:file_size">15583680</property>
  <property name="kdenlive:file_hash">133cc5553fff2e9694a0595deb9b28a0</property>
  <property name="kdenlive:audio_max">1</property>
  <property name="global_feed">1</property>
 </producer>
 <producer id="producer3" in="00:00:00.000" out="00:01:09.467">
  <property name="length">2085</property>
  <property name="eof">pause</property>
  <property name="resource">/media/storage/media/Videos/mine/music_landscapes/2021-04-24/2021-04-24_Toronto_night+tree+blossom+cherry+moon.MP4</property>
  <property name="audio_index">1</property>
  <property name="video_index">0</property>
  <property name="mute_on_pause">0</property>
  <property name="mlt_service">avformat-novalidate</property>
  <property name="meta.media.nb_streams">3</property>
  <property name="meta.media.0.stream.type">video</property>
  <property name="meta.media.0.stream.frame_rate">24</property>
  <property name="meta.media.0.stream.sample_aspect_ratio">0</property>
  <property name="meta.media.0.codec.width">1920</property>
  <property name="meta.media.0.codec.height">1080</property>
  <property name="meta.media.0.codec.rotate">0</property>
  <property name="meta.media.0.codec.frame_rate">24</property>
  <property name="meta.media.0.codec.pix_fmt">yuv420p</property>
  <property name="meta.media.0.codec.sample_aspect_ratio">1</property>
  <property name="meta.media.0.codec.colorspace">709</property>
  <property name="meta.media.0.codec.color_trc">1</property>
  <property name="meta.media.0.codec.name">h264</property>
  <property name="meta.media.0.codec.long_name">H.264 / AVC / MPEG-4 AVC / MPEG-4 part 10</property>
  <property name="meta.media.0.codec.bit_rate">38369606</property>
  <property name="meta.attr.0.stream.creation_time.markup">2021-04-24T22:00:10.000000Z</property>
  <property name="meta.attr.0.stream.vendor_id.markup">[0][0][0][0]</property>
  <property name="meta.attr.0.stream.timecode.markup">06:05:49:15</property>
  <property name="meta.media.1.stream.type">audio</property>
  <property name="meta.media.1.codec.sample_fmt">s16</property>
  <property name="meta.media.1.codec.sample_rate">48000</property>
  <property name="meta.media.1.codec.channels">2</property>
  <property name="meta.media.1.codec.name">pcm_s16be</property>
  <property name="meta.media.1.codec.long_name">PCM signed 16-bit big-endian</property>
  <property name="meta.media.1.codec.bit_rate">1536000</property>
  <property name="meta.attr.1.stream.creation_time.markup">2021-04-24T22:00:10.000000Z</property>
  <property name="meta.attr.1.stream.vendor_id.markup">pana</property>
  <property name="meta.attr.1.stream.timecode.markup">06:05:49:15</property>
  <property name="meta.attr.major_brand.markup">mp42</property>
  <property name="meta.attr.minor_version.markup">1</property>
  <property name="meta.attr.compatible_brands.markup">mp42avc1</property>
  <property name="meta.attr.creation_time.markup">2021-04-24T22:00:10.000000Z</property>
  <property name="seekable">1</property>
  <property name="meta.media.sample_aspect_num">1</property>
  <property name="meta.media.sample_aspect_den">1</property>
  <property name="aspect_ratio">1</property>
  <property name="kdenlive:clipname"/>
  <property name="kdenlive:folderid">60</property>
  <property name="meta.media.frame_rate_num">24</property>
  <property name="meta.media.frame_rate_den">1</property>
  <property name="meta.media.colorspace">709</property>
  <property name="meta.media.color_trc">1</property>
  <property name="meta.media.width">1920</property>
  <property name="meta.media.height">1080</property>
  <property name="meta.media.color_range">mpeg</property>
  <property name="kdenlive:id">5</property>
  <property name="kdenlive:file_size">346948778</property>
  <property name="kdenlive:file_hash">35ce84066fa48e7e4621522f7bab75be</property>
  <property name="kdenlive:audio_max">91</property>
  <property name="meta.media.top_field_first">0</property>
  <property name="meta.media.progressive">1</property>
  <property name="kdenlive:zone_in">1292</property>
  <property name="kdenlive:zone_out">1502</property>
  <property name="kdenlive:clipzones">[
    {
        "in": 1870,
        "name": "Zone 1",
        "out": 2026
    },
    {
        "in": 540,
        "name": "Zone 2",
        "out": 678
    },
    {
        "in": 1292,
        "name": "Zone 3",
        "out": 1502
    }
]
</property>
  <property name="global_feed">1</property>
  <property name="kdenlive:active_streams">-1</property>
 </producer>
 <producer id="producer4" in="00:00:00.000" out="00:08:01.967">
  <property name="length">14460</property>
  <property name="eof">pause</property>
  <property name="resource">/media/storage/media/Videos/mine/music_landscapes/2021-04-24/2021-04-24_Toronto_night+tree+blossom+cherry+movement.MP4</property>
  <property name="audio_index">1</property>
  <property name="video_index">0</property>
  <property name="mute_on_pause">0</property>
  <property name="mlt_service">avformat-novalidate</property>
  <property name="meta.media.nb_streams">3</property>
  <property name="meta.media.0.stream.type">video</property>
  <property name="meta.media.0.stream.frame_rate">24</property>
  <property name="meta.media.0.stream.sample_aspect_ratio">0</property>
  <property name="meta.media.0.codec.width">1920</property>
  <property name="meta.media.0.codec.height">1080</property>
  <property name="meta.media.0.codec.rotate">0</property>
  <property name="meta.media.0.codec.frame_rate">24</property>
  <property name="meta.media.0.codec.pix_fmt">yuv420p</property>
  <property name="meta.media.0.codec.sample_aspect_ratio">1</property>
  <property name="meta.media.0.codec.colorspace">709</property>
  <property name="meta.media.0.codec.color_trc">1</property>
  <property name="meta.media.0.codec.name">h264</property>
  <property name="meta.media.0.codec.long_name">H.264 / AVC / MPEG-4 AVC / MPEG-4 part 10</property>
  <property name="meta.media.0.codec.bit_rate">38371812</property>
  <property name="meta.attr.0.stream.creation_time.markup">2021-04-24T21:49:17.000000Z</property>
  <property name="meta.attr.0.stream.vendor_id.markup">[0][0][0][0]</property>
  <property name="meta.attr.0.stream.timecode.markup">05:48:04:15</property>
  <property name="meta.media.1.stream.type">audio</property>
  <property name="meta.media.1.codec.sample_fmt">s16</property>
  <property name="meta.media.1.codec.sample_rate">48000</property>
  <property name="meta.media.1.codec.channels">2</property>
  <property name="meta.media.1.codec.name">pcm_s16be</property>
  <property name="meta.media.1.codec.long_name">PCM signed 16-bit big-endian</property>
  <property name="meta.media.1.codec.bit_rate">1536000</property>
  <property name="meta.attr.1.stream.creation_time.markup">2021-04-24T21:49:17.000000Z</property>
  <property name="meta.attr.1.stream.vendor_id.markup">pana</property>
  <property name="meta.attr.1.stream.timecode.markup">05:48:04:15</property>
  <property name="meta.attr.major_brand.markup">mp42</property>
  <property name="meta.attr.minor_version.markup">1</property>
  <property name="meta.attr.compatible_brands.markup">mp42avc1</property>
  <property name="meta.attr.creation_time.markup">2021-04-24T21:49:17.000000Z</property>
  <property name="seekable">1</property>
  <property name="meta.media.sample_aspect_num">1</property>
  <property name="meta.media.sample_aspect_den">1</property>
  <property name="aspect_ratio">1</property>
  <property name="kdenlive:clipname"/>
  <property name="kdenlive:folderid">60</property>
  <property name="meta.media.frame_rate_num">24</property>
  <property name="meta.media.frame_rate_den">1</property>
  <property name="meta.media.colorspace">709</property>
  <property name="meta.media.color_trc">1</property>
  <property name="meta.media.width">1920</property>
  <property name="meta.media.height">1080</property>
  <property name="meta.media.color_range">mpeg</property>
  <property name="kdenlive:id">6</property>
  <property name="kdenlive:file_size">2404885228</property>
  <property name="kdenlive:file_hash">343a38119447535a8f6822856e65c7c7</property>
  <property name="meta.media.top_field_first">0</property>
  <property name="meta.media.progressive">1</property>
  <property name="kdenlive:audio_max">91</property>
  <property name="kdenlive:zone_in">2701</property>
  <property name="kdenlive:zone_out">2965</property>
  <property name="kdenlive:clipzones">[
    {
        "in": 2701,
        "name": "Zone 1",
        "out": 2965
    }
]
</property>
  <property name="global_feed">1</property>
 </producer>
 <producer id="producer5" in="00:00:00.000" out="00:02:48.467">
  <property name="length">5055</property>
  <property name="eof">pause</property>
  <property name="resource">/media/storage/media/Videos/mine/music_landscapes/2021-04-24/2021-04-24_Toronto_night+tree+moon+clouds_3.MP4</property>
  <property name="audio_index">1</property>
  <property name="video_index">0</property>
  <property name="mute_on_pause">0</property>
  <property name="mlt_service">avformat-novalidate</property>
  <property name="meta.media.nb_streams">3</property>
  <property name="meta.media.0.stream.type">video</property>
  <property name="meta.media.0.stream.frame_rate">24</property>
  <property name="meta.media.0.stream.sample_aspect_ratio">0</property>
  <property name="meta.media.0.codec.width">1920</property>
  <property name="meta.media.0.codec.height">1080</property>
  <property name="meta.media.0.codec.rotate">0</property>
  <property name="meta.media.0.codec.frame_rate">24</property>
  <property name="meta.media.0.codec.pix_fmt">yuv420p</property>
  <property name="meta.media.0.codec.sample_aspect_ratio">1</property>
  <property name="meta.media.0.codec.colorspace">709</property>
  <property name="meta.media.0.codec.color_trc">1</property>
  <property name="meta.media.0.codec.name">h264</property>
  <property name="meta.media.0.codec.long_name">H.264 / AVC / MPEG-4 AVC / MPEG-4 part 10</property>
  <property name="meta.media.0.codec.bit_rate">38363049</property>
  <property name="meta.attr.0.stream.creation_time.markup">2021-04-24T22:21:50.000000Z</property>
  <property name="meta.attr.0.stream.vendor_id.markup">[0][0][0][0]</property>
  <property name="meta.attr.0.stream.timecode.markup">06:19:11:15</property>
  <property name="meta.media.1.stream.type">audio</property>
  <property name="meta.media.1.codec.sample_fmt">s16</property>
  <property name="meta.media.1.codec.sample_rate">48000</property>
  <property name="meta.media.1.codec.channels">2</property>
  <property name="meta.media.1.codec.name">pcm_s16be</property>
  <property name="meta.media.1.codec.long_name">PCM signed 16-bit big-endian</property>
  <property name="meta.media.1.codec.bit_rate">1536000</property>
  <property name="meta.attr.1.stream.creation_time.markup">2021-04-24T22:21:50.000000Z</property>
  <property name="meta.attr.1.stream.vendor_id.markup">pana</property>
  <property name="meta.attr.1.stream.timecode.markup">06:19:11:15</property>
  <property name="meta.attr.major_brand.markup">mp42</property>
  <property name="meta.attr.minor_version.markup">1</property>
  <property name="meta.attr.compatible_brands.markup">mp42avc1</property>
  <property name="meta.attr.creation_time.markup">2021-04-24T22:21:50.000000Z</property>
  <property name="seekable">1</property>
  <property name="meta.media.sample_aspect_num">1</property>
  <property name="meta.media.sample_aspect_den">1</property>
  <property name="aspect_ratio">1</property>
  <property name="kdenlive:clipname"/>
  <property name="kdenlive:folderid">60</property>
  <property name="meta.media.frame_rate_num">24</property>
  <property name="meta.media.frame_rate_den">1</property>
  <property name="meta.media.colorspace">709</property>
  <property name="meta.media.color_trc">1</property>
  <property name="meta.media.width">1920</property>
  <property name="meta.media.height">1080</property>
  <property name="meta.media.color_range">mpeg</property>
  <property name="kdenlive:id">7</property>
  <property name="kdenlive:file_size">840652056</property>
  <property name="kdenlive:file_hash">902e4d1eac5ff29b02b5897f12327978</property>
  <property name="kdenlive:audio_max">91</property>
  <property name="meta.media.top_field_first">0</property>
  <property name="meta.media.progressive">1</property>
  <property name="kdenlive:zone_in">1565</property>
  <property name="kdenlive:zone_out">2499</property>
  <property name="kdenlive:clipzones">[
    {
        "in": 1565,
        "name": "Zone 1",
        "out": 2499
    }
]
</property>
  <property name="global_feed">1</property>
  <property name="kdenlive:active_streams">-1</property>
 </producer>
 <producer id="producer7" in="00:00:00.000" out="00:00:04.167">
  <property name="length">126</property>
  <property name="eof">pause</property>
  <property name="resource">/home/ryankelln/Documents/Projects/Active/Sound_Escapes/Mason/footage/Time lapse of Aurora Borealis - Copyright Free Reusable Stock Video HD-O218MQKEYXE.mp4</property>
  <property name="audio_index">1</property>
  <property name="video_index">0</property>
  <property name="mute_on_pause">0</property>
  <property name="mlt_service">avformat-novalidate</property>
  <property name="meta.media.nb_streams">2</property>
  <property name="meta.media.0.stream.type">video</property>
  <property name="meta.media.0.stream.frame_rate">29.97</property>
  <property name="meta.media.0.stream.sample_aspect_ratio">1</property>
  <property name="meta.media.0.codec.width">1920</property>
  <property name="meta.media.0.codec.height">1080</property>
  <property name="meta.media.0.codec.rotate">0</property>
  <property name="meta.media.0.codec.frame_rate">29.97</property>
  <property name="meta.media.0.codec.pix_fmt">yuv420p</property>
  <property name="meta.media.0.codec.sample_aspect_ratio">1</property>
  <property name="meta.media.0.codec.colorspace">709</property>
  <property name="meta.media.0.codec.color_trc">1</property>
  <property name="meta.media.0.codec.name">h264</property>
  <property name="meta.media.0.codec.long_name">H.264 / AVC / MPEG-4 AVC / MPEG-4 part 10</property>
  <property name="meta.media.0.codec.bit_rate">3161277</property>
  <property name="meta.attr.0.stream.handler_name.markup">ISO Media file produced by Google Inc. Created on: 04/28/2021.</property>
  <property name="meta.attr.0.stream.vendor_id.markup">[0][0][0][0]</property>
  <property name="meta.media.1.stream.type">audio</property>
  <property name="meta.media.1.codec.sample_fmt">fltp</property>
  <property name="meta.media.1.codec.sample_rate">44100</property>
  <property name="meta.media.1.codec.channels">2</property>
  <property name="meta.media.1.codec.name">aac</property>
  <property name="meta.media.1.codec.long_name">AAC (Advanced Audio Coding)</property>
  <property name="meta.media.1.codec.bit_rate">127998</property>
  <property name="meta.attr.1.stream.handler_name.markup">ISO Media file produced by Google Inc.</property>
  <property name="meta.attr.1.stream.vendor_id.markup">[0][0][0][0]</property>
  <property name="meta.attr.major_brand.markup">isom</property>
  <property name="meta.attr.minor_version.markup">512</property>
  <property name="meta.attr.compatible_brands.markup">isomiso2avc1mp41</property>
  <property name="meta.attr.encoder.markup">Lavf58.45.100</property>
  <property name="seekable">1</property>
  <property name="meta.media.sample_aspect_num">1</property>
  <property name="meta.media.sample_aspect_den">1</property>
  <property name="aspect_ratio">1</property>
  <property name="kdenlive:clipname"/>
  <property name="kdenlive:folderid">60</property>
  <property name="meta.media.frame_rate_num">30000</property>
  <property name="meta.media.frame_rate_den">1001</property>
  <property name="meta.media.colorspace">709</property>
  <property name="meta.media.color_trc">1</property>
  <property name="meta.media.width">1920</property>
  <property name="meta.media.height">1080</property>
  <property name="meta.media.color_range">mpeg</property>
  <property name="kdenlive:id">8</property>
  <property name="kdenlive:file_size">1720366</property>
  <property name="kdenlive:file_hash">ca79d9fa308983f22667fe6376b7fadf</property>
  <property name="kdenlive:audio_max">91</property>
  <property name="meta.media.top_field_first">0</property>
  <property name="meta.media.progressive">1</property>
  <property name="kdenlive:active_streams">-1</property>
  <property name="global_feed">1</property>
 </producer>
 <producer id="producer8" in="00:00:00.000" out="00:00:15.167">
  <property name="length">456</property>
  <property name="eof">pause</property>
  <property name="resource">/home/ryankelln/Documents/Projects/Active/Sound_Escapes/Mason/footage/Starry Sky Timelapse-p77WZp7fp_E.mkv</property>
  <property name="audio_index">1</property>
  <property name="video_index">0</property>
  <property name="mute_on_pause">0</property>
  <property name="mlt_service">avformat-novalidate</property>
  <property name="meta.media.nb_streams">2</property>
  <property name="meta.media.0.stream.type">video</property>
  <property name="meta.media.0.stream.frame_rate">24</property>
  <property name="meta.media.0.stream.sample_aspect_ratio">1</property>
  <property name="meta.media.0.codec.width">1920</property>
  <property name="meta.media.0.codec.height">1080</property>
  <property name="meta.media.0.codec.rotate">0</property>
  <property name="meta.media.0.codec.frame_rate">1000</property>
  <property name="meta.media.0.codec.pix_fmt">yuv420p</property>
  <property name="meta.media.0.codec.sample_aspect_ratio">0</property>
  <property name="meta.media.0.codec.colorspace">709</property>
  <property name="meta.media.0.codec.name">vp9</property>
  <property name="meta.media.0.codec.long_name">Google VP9</property>
  <property name="meta.media.0.codec.bit_rate">0</property>
  <property name="meta.attr.0.stream.language.markup">eng</property>
  <property name="meta.attr.0.stream.DURATION.markup">00:00:15.083000000</property>
  <property name="meta.media.1.stream.type">audio</property>
  <property name="meta.media.1.codec.sample_fmt">fltp</property>
  <property name="meta.media.1.codec.sample_rate">44100</property>
  <property name="meta.media.1.codec.channels">2</property>
  <property name="meta.media.1.codec.name">aac</property>
  <property name="meta.media.1.codec.long_name">AAC (Advanced Audio Coding)</property>
  <property name="meta.media.1.codec.bit_rate">0</property>
  <property name="meta.attr.1.stream.HANDLER_NAME.markup">ISO Media file produced by Google Inc.</property>
  <property name="meta.attr.1.stream.DURATION.markup">00:00:15.209000000</property>
  <property name="meta.attr.HTTP://YOUTUBE.COM/STREAMING/OTF/DURATIONS/112015.markup">Segment-Count: 3&#xd;
Segment-Durations-Ms: 5333,5334,4417,&#xd;
&#xd;
</property>
  <property name="meta.attr.ENCODER.markup">Lavf58.45.100</property>
  <property name="seekable">1</property>
  <property name="meta.media.sample_aspect_num">1</property>
  <property name="meta.media.sample_aspect_den">1</property>
  <property name="aspect_ratio">1</property>
  <property name="kdenlive:clipname"/>
  <property name="kdenlive:folderid">60</property>
  <property name="meta.media.frame_rate_num">24</property>
  <property name="meta.media.frame_rate_den">1</property>
  <property name="meta.media.colorspace">709</property>
  <property name="meta.media.color_trc">2</property>
  <property name="meta.media.width">1920</property>
  <property name="meta.media.height">1080</property>
  <property name="meta.media.color_range">mpeg</property>
  <property name="kdenlive:id">9</property>
  <property name="kdenlive:file_size">1934509</property>
  <property name="kdenlive:file_hash">af3a0e98014dd8af40a5dd22bbcc5461</property>
  <property name="kdenlive:audio_max">91</property>
 </producer>
 <producer id="producer6" in="00:00:00.000" out="00:00:06.700">
  <property name="length">202</property>
  <property name="eof">pause</property>
  <property name="resource">/home/ryankelln/Documents/Projects/Active/Sound_Escapes/Mason/footage/Time Lapse Video Of Night Sky.mp4</property>
  <property name="audio_index">-1</property>
  <property name="video_index">0</property>
  <property name="mute_on_pause">0</property>
  <property name="mlt_service">avformat-novalidate</property>
  <property name="meta.media.nb_streams">1</property>
  <property name="meta.media.0.stream.type">video</property>
  <property name="meta.media.0.stream.frame_rate">25</property>
  <property name="meta.media.0.stream.sample_aspect_ratio">1</property>
  <property name="meta.media.0.codec.width">1280</property>
  <property name="meta.media.0.codec.height">720</property>
  <property name="meta.media.0.codec.rotate">0</property>
  <property name="meta.media.0.codec.frame_rate">25</property>
  <property name="meta.media.0.codec.pix_fmt">yuv420p</property>
  <property name="meta.media.0.codec.sample_aspect_ratio">1</property>
  <property name="meta.media.0.codec.colorspace">709</property>
  <property name="meta.media.0.codec.color_trc">1</property>
  <property name="meta.media.0.codec.name">h264</property>
  <property name="meta.media.0.codec.long_name">H.264 / AVC / MPEG-4 AVC / MPEG-4 part 10</property>
  <property name="meta.media.0.codec.bit_rate">2468758</property>
  <property name="meta.attr.0.stream.creation_time.markup">2016-10-30T20:58:30.000000Z</property>
  <property name="meta.attr.0.stream.handler_name.markup">L-SMASH Video Handler</property>
  <property name="meta.attr.0.stream.vendor_id.markup">[0][0][0][0]</property>
  <property name="meta.attr.0.stream.encoder.markup">AVC Coding</property>
  <property name="meta.attr.major_brand.markup">mp42</property>
  <property name="meta.attr.minor_version.markup">0</property>
  <property name="meta.attr.compatible_brands.markup">mp42mp41isomavc1</property>
  <property name="meta.attr.creation_time.markup">2016-10-30T20:58:30.000000Z</property>
  <property name="seekable">1</property>
  <property name="meta.media.sample_aspect_num">1</property>
  <property name="meta.media.sample_aspect_den">1</property>
  <property name="aspect_ratio">1</property>
  <property name="kdenlive:clipname"/>
  <property name="kdenlive:folderid">60</property>
  <property name="meta.media.frame_rate_num">25</property>
  <property name="meta.media.frame_rate_den">1</property>
  <property name="meta.media.colorspace">709</property>
  <property name="meta.media.color_trc">1</property>
  <property name="meta.media.width">1280</property>
  <property name="meta.media.height">720</property>
  <property name="meta.media.color_range">mpeg</property>
  <property name="kdenlive:id">10</property>
  <property name="kdenlive:file_size">2076845</property>
  <property name="kdenlive:file_hash">069ce0d8b587666f0f6bed739fbc7614</property>
  <property name="meta.media.top_field_first">0</property>
  <property name="meta.media.progressive">1</property>
  <property name="global_feed">1</property>
 </producer>
 <producer id="producer9" in="00:00:00.000" out="00:00:04.600">
  <property name="length">139</property>
  <property name="eof">pause</property>
  <property name="resource">/home/ryankelln/Documents/Projects/Active/Sound_Escapes/Mason/footage/Timelapse of Starry night-lySPwIEo5WU.mp4</property>
  <property name="audio_index">1</property>
  <property name="video_index">0</property>
  <property name="mute_on_pause">0</property>
  <property name="mlt_service">avformat-novalidate</property>
  <property name="meta.media.nb_streams">2</property>
  <property name="meta.media.0.stream.type">video</property>
  <property name="meta.media.0.stream.frame_rate">24</property>
  <property name="meta.media.0.stream.sample_aspect_ratio">1</property>
  <property name="meta.media.0.codec.width">1920</property>
  <property name="meta.media.0.codec.height">1080</property>
  <property name="meta.media.0.codec.rotate">0</property>
  <property name="meta.media.0.codec.frame_rate">24</property>
  <property name="meta.media.0.codec.pix_fmt">yuv420p</property>
  <property name="meta.media.0.codec.sample_aspect_ratio">1</property>
  <property name="meta.media.0.codec.colorspace">709</property>
  <property name="meta.media.0.codec.color_trc">1</property>
  <property name="meta.media.0.codec.name">h264</property>
  <property name="meta.media.0.codec.long_name">H.264 / AVC / MPEG-4 AVC / MPEG-4 part 10</property>
  <property name="meta.media.0.codec.bit_rate">3609861</property>
  <property name="meta.attr.0.stream.handler_name.markup">ISO Media file produced by Google Inc. Created on: 05/19/2021.</property>
  <property name="meta.attr.0.stream.vendor_id.markup">[0][0][0][0]</property>
  <property name="meta.media.1.stream.type">audio</property>
  <property name="meta.media.1.codec.sample_fmt">fltp</property>
  <property name="meta.media.1.codec.sample_rate">44100</property>
  <property name="meta.media.1.codec.channels">2</property>
  <property name="meta.media.1.codec.name">aac</property>
  <property name="meta.media.1.codec.long_name">AAC (Advanced Audio Coding)</property>
  <property name="meta.media.1.codec.bit_rate">127998</property>
  <property name="meta.attr.1.stream.handler_name.markup">ISO Media file produced by Google Inc.</property>
  <property name="meta.attr.1.stream.vendor_id.markup">[0][0][0][0]</property>
  <property name="meta.attr.major_brand.markup">isom</property>
  <property name="meta.attr.minor_version.markup">512</property>
  <property name="meta.attr.compatible_brands.markup">isomiso2avc1mp41</property>
  <property name="meta.attr.encoder.markup">Lavf58.45.100</property>
  <property name="seekable">1</property>
  <property name="meta.media.sample_aspect_num">1</property>
  <property name="meta.media.sample_aspect_den">1</property>
  <property name="aspect_ratio">1</property>
  <property name="kdenlive:clipname"/>
  <property name="kdenlive:folderid">60</property>
  <property name="meta.media.frame_rate_num">24</property>
  <property name="meta.media.frame_rate_den">1</property>
  <property name="meta.media.colorspace">709</property>
  <property name="meta.media.color_trc">1</property>
  <property name="meta.media.width">1920</property>
  <property name="meta.media.height">1080</property>
  <property name="meta.media.color_range">mpeg</property>
  <property name="kdenlive:id">11</property>
  <property name="kdenlive:file_size">2146571</property>
  <property name="kdenlive:file_hash">4d06ee9416c374ee9c514e0634e3b5e3</property>
  <property name="kdenlive:audio_max">91</property>
  <property name="meta.media.top_field_first">0</property>
  <property name="meta.media.progressive">1</property>
 </producer>
 <producer id="producer10" in="00:00:00.000" out="00:00:05.900">
  <property name="length">178</property>
  <property name="eof">pause</property>
  <property name="resource">/home/ryankelln/Documents/Projects/Active/Sound_Escapes/Mason/footage/Starry Sky Timelapse - Creative Commons-1vQBfrOK5d0.mp4</property>
  <property name="audio_index">1</property>
  <property name="video_index">0</property>
  <property name="mute_on_pause">0</property>
  <property name="mlt_service">avformat-novalidate</property>
  <property name="meta.media.nb_streams">2</property>
  <property name="meta.media.0.stream.type">video</property>
  <property name="meta.media.0.stream.frame_rate">23.976</property>
  <property name="meta.media.0.stream.sample_aspect_ratio">1</property>
  <property name="meta.media.0.codec.width">1920</property>
  <property name="meta.media.0.codec.height">1080</property>
  <property name="meta.media.0.codec.rotate">0</property>
  <property name="meta.media.0.codec.frame_rate">23.976</property>
  <property name="meta.media.0.codec.pix_fmt">yuv420p</property>
  <property name="meta.media.0.codec.sample_aspect_ratio">1</property>
  <property name="meta.media.0.codec.colorspace">709</property>
  <property name="meta.media.0.codec.color_trc">1</property>
  <property name="meta.media.0.codec.name">h264</property>
  <property name="meta.media.0.codec.long_name">H.264 / AVC / MPEG-4 AVC / MPEG-4 part 10</property>
  <property name="meta.media.0.codec.bit_rate">3376464</property>
  <property name="meta.attr.0.stream.handler_name.markup">ISO Media file produced by Google Inc.</property>
  <property name="meta.attr.0.stream.vendor_id.markup">[0][0][0][0]</property>
  <property name="meta.media.1.stream.type">audio</property>
  <property name="meta.media.1.codec.sample_fmt">fltp</property>
  <property name="meta.media.1.codec.sample_rate">44100</property>
  <property name="meta.media.1.codec.channels">2</property>
  <property name="meta.media.1.codec.name">aac</property>
  <property name="meta.media.1.codec.long_name">AAC (Advanced Audio Coding)</property>
  <property name="meta.media.1.codec.bit_rate">127998</property>
  <property name="meta.attr.1.stream.handler_name.markup">ISO Media file produced by Google Inc.</property>
  <property name="meta.attr.1.stream.vendor_id.markup">[0][0][0][0]</property>
  <property name="meta.attr.major_brand.markup">isom</property>
  <property name="meta.attr.minor_version.markup">512</property>
  <property name="meta.attr.compatible_brands.markup">isomiso2avc1mp41</property>
  <property name="meta.attr.encoder.markup">Lavf58.45.100</property>
  <property name="seekable">1</property>
  <property name="meta.media.sample_aspect_num">1</property>
  <property name="meta.media.sample_aspect_den">1</property>
  <property name="aspect_ratio">1</property>
  <property name="kdenlive:clipname"/>
  <property name="kdenlive:folderid">60</property>
  <property name="meta.media.frame_rate_num">24000</property>
  <property name="meta.media.frame_rate_den">1001</property>
  <property name="meta.media.colorspace">709</property>
  <property name="meta.media.color_trc">1</property>
  <property name="meta.media.width">1920</property>
  <property name="meta.media.height">1080</property>
  <property name="meta.media.color_range">mpeg</property>
  <property name="kdenlive:id">12</property>
  <property name="kdenlive:file_size">2583144</property>
  <property name="kdenlive:file_hash">974f919d349098fe9f6c509d08e37b60</property>
  <property name="kdenlive:audio_max">91</property>
  <property name="meta.media.top_field_first">0</property>
  <property name="meta.media.progressive">1</property>
  <property name="kdenlive:active_streams">-1</property>
  <property name="global_feed">1</property>
 </producer>
 <producer id="producer11" in="00:00:00.000" out="00:00:11.867">
  <property name="length">357</property>
  <property name="eof">pause</property>
  <property name="resource">/home/ryankelln/Documents/Projects/Active/Sound_Escapes/Mason/footage/Beachfront B-Roll - Perseids Meteor Shower (Free to Use HD Stock Video Footage)-naQl8_sFEB4.mp4</property>
  <property name="audio_index">1</property>
  <property name="video_index">0</property>
  <property name="mute_on_pause">0</property>
  <property name="mlt_service">avformat-novalidate</property>
  <property name="meta.media.nb_streams">2</property>
  <property name="meta.media.0.stream.type">video</property>
  <property name="meta.media.0.stream.frame_rate">23.976</property>
  <property name="meta.media.0.stream.sample_aspect_ratio">1</property>
  <property name="meta.media.0.codec.width">1280</property>
  <property name="meta.media.0.codec.height">720</property>
  <property name="meta.media.0.codec.rotate">0</property>
  <property name="meta.media.0.codec.frame_rate">23.976</property>
  <property name="meta.media.0.codec.pix_fmt">yuv420p</property>
  <property name="meta.media.0.codec.sample_aspect_ratio">1</property>
  <property name="meta.media.0.codec.colorspace">709</property>
  <property name="meta.media.0.codec.color_trc">1</property>
  <property name="meta.media.0.codec.name">h264</property>
  <property name="meta.media.0.codec.long_name">H.264 / AVC / MPEG-4 AVC / MPEG-4 part 10</property>
  <property name="meta.media.0.codec.bit_rate">2085529</property>
  <property name="meta.attr.0.stream.handler_name.markup">VideoHandler</property>
  <property name="meta.attr.0.stream.vendor_id.markup">[0][0][0][0]</property>
  <property name="meta.media.1.stream.type">audio</property>
  <property name="meta.media.1.codec.sample_fmt">fltp</property>
  <property name="meta.media.1.codec.sample_rate">44100</property>
  <property name="meta.media.1.codec.channels">2</property>
  <property name="meta.media.1.codec.name">aac</property>
  <property name="meta.media.1.codec.long_name">AAC (Advanced Audio Coding)</property>
  <property name="meta.media.1.codec.bit_rate">125588</property>
  <property name="meta.attr.1.stream.handler_name.markup">SoundHandler</property>
  <property name="meta.attr.1.stream.vendor_id.markup">[0][0][0][0]</property>
  <property name="meta.attr.major_brand.markup">isom</property>
  <property name="meta.attr.minor_version.markup">512</property>
  <property name="meta.attr.compatible_brands.markup">isomiso2avc1mp41</property>
  <property name="meta.attr.encoder.markup">Lavf58.45.100</property>
  <property name="seekable">1</property>
  <property name="meta.media.sample_aspect_num">1</property>
  <property name="meta.media.sample_aspect_den">1</property>
  <property name="aspect_ratio">1</property>
  <property name="kdenlive:clipname"/>
  <property name="kdenlive:folderid">60</property>
  <property name="meta.media.frame_rate_num">24000</property>
  <property name="meta.media.frame_rate_den">1001</property>
  <property name="meta.media.colorspace">709</property>
  <property name="meta.media.color_trc">1</property>
  <property name="meta.media.width">1280</property>
  <property name="meta.media.height">720</property>
  <property name="meta.media.color_range">mpeg</property>
  <property name="kdenlive:id">13</property>
  <property name="kdenlive:file_size">3285814</property>
  <property name="kdenlive:file_hash">49eba9a8333e772e5f72b45e132e2e8c</property>
  <property name="kdenlive:audio_max">91</property>
 </producer>
 <producer id="producer12" in="00:00:00.000" out="00:00:20.533">
  <property name="length">617</property>
  <property name="eof">pause</property>
  <property name="resource">/home/ryankelln/Documents/Projects/Active/Sound_Escapes/Mason/footage/Milky Way Glowing At Night.mp4</property>
  <property name="audio_index">-1</property>
  <property name="video_index">0</property>
  <property name="mute_on_pause">0</property>
  <property name="mlt_service">avformat-novalidate</property>
  <property name="meta.media.nb_streams">1</property>
  <property name="meta.media.0.stream.type">video</property>
  <property name="meta.media.0.stream.frame_rate">24</property>
  <property name="meta.media.0.stream.sample_aspect_ratio">1</property>
  <property name="meta.media.0.codec.width">1280</property>
  <property name="meta.media.0.codec.height">720</property>
  <property name="meta.media.0.codec.rotate">0</property>
  <property name="meta.media.0.codec.frame_rate">24</property>
  <property name="meta.media.0.codec.pix_fmt">yuv420p</property>
  <property name="meta.media.0.codec.sample_aspect_ratio">1</property>
  <property name="meta.media.0.codec.colorspace">709</property>
  <property name="meta.media.0.codec.color_trc">1</property>
  <property name="meta.media.0.codec.name">h264</property>
  <property name="meta.media.0.codec.long_name">H.264 / AVC / MPEG-4 AVC / MPEG-4 part 10</property>
  <property name="meta.media.0.codec.bit_rate">2030969</property>
  <property name="meta.attr.0.stream.creation_time.markup">2016-10-23T17:17:53.000000Z</property>
  <property name="meta.attr.0.stream.handler_name.markup">L-SMASH Video Handler</property>
  <property name="meta.attr.0.stream.vendor_id.markup">[0][0][0][0]</property>
  <property name="meta.attr.0.stream.encoder.markup">AVC Coding</property>
  <property name="meta.attr.major_brand.markup">mp42</property>
  <property name="meta.attr.minor_version.markup">0</property>
  <property name="meta.attr.compatible_brands.markup">mp42mp41isomavc1</property>
  <property name="meta.attr.creation_time.markup">2016-10-23T17:17:53.000000Z</property>
  <property name="seekable">1</property>
  <property name="meta.media.sample_aspect_num">1</property>
  <property name="meta.media.sample_aspect_den">1</property>
  <property name="aspect_ratio">1</property>
  <property name="kdenlive:clipname"/>
  <property name="kdenlive:folderid">60</property>
  <property name="meta.media.frame_rate_num">24</property>
  <property name="meta.media.frame_rate_den">1</property>
  <property name="meta.media.colorspace">709</property>
  <property name="meta.media.color_trc">1</property>
  <property name="meta.media.width">1280</property>
  <property name="meta.media.height">720</property>
  <property name="meta.media.color_range">mpeg</property>
  <property name="kdenlive:id">14</property>
  <property name="kdenlive:file_size">5232744</property>
  <property name="kdenlive:file_hash">0a40ba17c7915468177fb02766dfa244</property>
  <property name="meta.media.top_field_first">0</property>
  <property name="meta.media.progressive">1</property>
 </producer>
 <producer id="producer14" in="00:00:00.000" out="00:00:30.000">
  <property name="length">901</property>
  <property name="eof">pause</property>
  <property name="resource">/home/ryankelln/Documents/Projects/Active/Sound_Escapes/Mason/footage/Stars in Space - Copyright Free Reusable Stock Video HD-5yXWVS_bE_g.mp4</property>
  <property name="audio_index">1</property>
  <property name="video_index">0</property>
  <property name="mute_on_pause">0</property>
  <property name="mlt_service">avformat-novalidate</property>
  <property name="meta.media.nb_streams">2</property>
  <property name="meta.media.0.stream.type">video</property>
  <property name="meta.media.0.stream.frame_rate">30</property>
  <property name="meta.media.0.stream.sample_aspect_ratio">1</property>
  <property name="meta.media.0.codec.width">1920</property>
  <property name="meta.media.0.codec.height">1080</property>
  <property name="meta.media.0.codec.rotate">0</property>
  <property name="meta.media.0.codec.frame_rate">30</property>
  <property name="meta.media.0.codec.pix_fmt">yuv420p</property>
  <property name="meta.media.0.codec.sample_aspect_ratio">1</property>
  <property name="meta.media.0.codec.colorspace">709</property>
  <property name="meta.media.0.codec.color_trc">1</property>
  <property name="meta.media.0.codec.name">h264</property>
  <property name="meta.media.0.codec.long_name">H.264 / AVC / MPEG-4 AVC / MPEG-4 part 10</property>
  <property name="meta.media.0.codec.bit_rate">4761285</property>
  <property name="meta.attr.0.stream.handler_name.markup">ISO Media file produced by Google Inc.</property>
  <property name="meta.attr.0.stream.vendor_id.markup">[0][0][0][0]</property>
  <property name="meta.media.1.stream.type">audio</property>
  <property name="meta.media.1.codec.sample_fmt">fltp</property>
  <property name="meta.media.1.codec.sample_rate">44100</property>
  <property name="meta.media.1.codec.channels">2</property>
  <property name="meta.media.1.codec.name">aac</property>
  <property name="meta.media.1.codec.long_name">AAC (Advanced Audio Coding)</property>
  <property name="meta.media.1.codec.bit_rate">127999</property>
  <property name="meta.attr.1.stream.handler_name.markup">ISO Media file produced by Google Inc.</property>
  <property name="meta.attr.1.stream.vendor_id.markup">[0][0][0][0]</property>
  <property name="meta.attr.major_brand.markup">isom</property>
  <property name="meta.attr.minor_version.markup">512</property>
  <property name="meta.attr.compatible_brands.markup">isomiso2avc1mp41</property>
  <property name="meta.attr.encoder.markup">Lavf58.45.100</property>
  <property name="seekable">1</property>
  <property name="meta.media.sample_aspect_num">1</property>
  <property name="meta.media.sample_aspect_den">1</property>
  <property name="aspect_ratio">1</property>
  <property name="kdenlive:clipname"/>
  <property name="kdenlive:folderid">60</property>
  <property name="meta.media.frame_rate_num">30</property>
  <property name="meta.media.frame_rate_den">1</property>
  <property name="meta.media.colorspace">709</property>
  <property name="meta.media.color_trc">1</property>
  <property name="meta.media.width">1920</property>
  <property name="meta.media.height">1080</property>
  <property name="meta.media.color_range">mpeg</property>
  <property name="kdenlive:id">15</property>
  <property name="kdenlive:file_size">18366114</property>
  <property name="kdenlive:file_hash">4d1f6fa81d99e339c68e8177852eda2f</property>
  <property name="kdenlive:audio_max">91</property>
  <property name="meta.media.top_field_first">0</property>
  <property name="meta.media.progressive">1</property>
  <property name="kdenlive:active_streams">-1</property>
  <property name="global_feed">1</property>
 </producer>
 <producer id="producer13" in="00:00:00.000" out="00:01:26.733">
  <property name="length">2603</property>
  <property name="eof">pause</property>
  <property name="resource">/home/ryankelln/Documents/Projects/Active/Sound_Escapes/Mason/footage/Algonquin Park Stars Timelapse-1gwwgR7oNb4.mkv</property>
  <property name="audio_index">1</property>
  <property name="video_index">0</property>
  <property name="mute_on_pause">0</property>
  <property name="mlt_service">avformat-novalidate</property>
  <property name="meta.media.nb_streams">2</property>
  <property name="meta.media.0.stream.type">video</property>
  <property name="meta.media.0.stream.frame_rate">29.97</property>
  <property name="meta.media.0.stream.sample_aspect_ratio">1</property>
  <property name="meta.media.0.codec.width">1920</property>
  <property name="meta.media.0.codec.height">1080</property>
  <property name="meta.media.0.codec.rotate">0</property>
  <property name="meta.media.0.codec.frame_rate">29.97</property>
  <property name="meta.media.0.codec.pix_fmt">yuv420p</property>
  <property name="meta.media.0.codec.sample_aspect_ratio">1</property>
  <property name="meta.media.0.codec.colorspace">709</property>
  <property name="meta.media.0.codec.name">h264</property>
  <property name="meta.media.0.codec.long_name">H.264 / AVC / MPEG-4 AVC / MPEG-4 part 10</property>
  <property name="meta.media.0.codec.bit_rate">0</property>
  <property name="meta.attr.0.stream.HANDLER_NAME.markup">VideoHandler</property>
  <property name="meta.attr.0.stream.DURATION.markup">00:01:26.753000000</property>
  <property name="meta.media.1.stream.type">audio</property>
  <property name="meta.media.1.codec.sample_fmt">fltp</property>
  <property name="meta.media.1.codec.sample_rate">48000</property>
  <property name="meta.media.1.codec.channels">2</property>
  <property name="meta.media.1.codec.name">opus</property>
  <property name="meta.media.1.codec.long_name">Opus</property>
  <property name="meta.media.1.codec.bit_rate">0</property>
  <property name="meta.attr.1.stream.language.markup">eng</property>
  <property name="meta.attr.1.stream.DURATION.markup">00:01:26.781000000</property>
  <property name="meta.attr.COMPATIBLE_BRANDS.markup">iso6avc1mp41</property>
  <property name="meta.attr.MAJOR_BRAND.markup">dash</property>
  <property name="meta.attr.MINOR_VERSION.markup">0</property>
  <property name="meta.attr.ENCODER.markup">Lavf58.45.100</property>
  <property name="seekable">1</property>
  <property name="meta.media.sample_aspect_num">1</property>
  <property name="meta.media.sample_aspect_den">1</property>
  <property name="aspect_ratio">1</property>
  <property name="kdenlive:clipname"/>
  <property name="kdenlive:folderid">60</property>
  <property name="meta.media.frame_rate_num">30000</property>
  <property name="meta.media.frame_rate_den">1001</property>
  <property name="meta.media.colorspace">709</property>
  <property name="meta.media.color_trc">2</property>
  <property name="meta.media.width">1920</property>
  <property name="meta.media.height">1080</property>
  <property name="meta.media.color_range">mpeg</property>
  <property name="kdenlive:id">16</property>
  <property name="kdenlive:file_size">18868068</property>
  <property name="kdenlive:file_hash">ac516ddfb0241d0725e4eda7ebea79e4</property>
  <property name="kdenlive:audio_max">1</property>
  <property name="meta.media.top_field_first">0</property>
  <property name="meta.media.progressive">1</property>
  <property name="kdenlive:active_streams">-1</property>
  <property name="kdenlive:thumbnailFrame">886</property>
  <property name="kdenlive:zone_in">1147</property>
  <property name="kdenlive:zone_out">2259</property>
  <property name="kdenlive:clipzones">[
    {
        "in": 273,
        "name": "Zone 1",
        "out": 1047
    },
    {
        "in": 1147,
        "name": "Zone 2",
        "out": 2259
    }
]
</property>
  <property name="global_feed">1</property>
 </producer>
 <producer id="producer31" in="00:00:00.000" out="00:00:10.533">
  <property name="length">317</property>
  <property name="eof">pause</property>
  <property name="resource">/home/ryankelln/.cache/kdenlive/proxy/e6ac050337f4e468538d82d01c67699e.mkv</property>
  <property name="audio_index">-1</property>
  <property name="video_index">0</property>
  <property name="mute_on_pause">0</property>
  <property name="mlt_service">avformat-novalidate</property>
  <property name="seekable">1</property>
  <property name="aspect_ratio">1</property>
  <property name="kdenlive:clipname">Time lapse vieo of a starry night.mp4</property>
  <property name="kdenlive:folderid">60</property>
  <property name="kdenlive:id">17</property>
  <property name="kdenlive:file_size">28943952</property>
  <property name="kdenlive:file_hash">e6ac050337f4e468538d82d01c67699e</property>
  <property name="global_feed">1</property>
  <property name="kdenlive:proxy">/home/ryankelln/.cache/kdenlive/proxy/e6ac050337f4e468538d82d01c67699e.mkv</property>
  <property name="kdenlive:originalurl">/home/ryankelln/Documents/Projects/Active/Sound_Escapes/Mason/footage/Time lapse vieo of a starry night.mp4</property>
  <property name="kdenlive:original.mlt_type">producer</property>
  <property name="kdenlive:original.in">00:00:00.000</property>
  <property name="kdenlive:original.out">00:00:10.533</property>
  <property name="kdenlive:original.length">317</property>
  <property name="kdenlive:original.eof">pause</property>
  <property name="kdenlive:original.resource">/home/ryankelln/Documents/Projects/Active/Sound_Escapes/Mason/footage/Time lapse vieo of a starry night.mp4</property>
  <property name="kdenlive:original.audio_index">-1</property>
  <property name="kdenlive:original.video_index">0</property>
  <property name="kdenlive:original.mute_on_pause">0</property>
  <property name="kdenlive:original.mlt_service">avformat-novalidate</property>
  <property name="kdenlive:original.id">producer15</property>
  <property name="kdenlive:original.meta.media.nb_streams">1</property>
  <property name="kdenlive:original.meta.media.0.stream.type">video</property>
  <property name="kdenlive:original.meta.media.0.stream.frame_rate">29.97</property>
  <property name="kdenlive:original.meta.media.0.stream.sample_aspect_ratio">0</property>
  <property name="kdenlive:original.meta.media.0.codec.width">3840</property>
  <property name="kdenlive:original.meta.media.0.codec.height">2160</property>
  <property name="kdenlive:original.meta.media.0.codec.rotate">0</property>
  <property name="kdenlive:original.meta.media.0.codec.frame_rate">30000</property>
  <property name="kdenlive:original.meta.media.0.codec.pix_fmt">yuv420p</property>
  <property name="kdenlive:original.meta.media.0.codec.sample_aspect_ratio">0</property>
  <property name="kdenlive:original.meta.media.0.codec.colorspace">709</property>
  <property name="kdenlive:original.meta.media.0.codec.color_trc">1</property>
  <property name="kdenlive:original.meta.media.0.codec.name">h264</property>
  <property name="kdenlive:original.meta.media.0.codec.long_name">H.264 / AVC / MPEG-4 AVC / MPEG-4 part 10</property>
  <property name="kdenlive:original.meta.media.0.codec.bit_rate">21887734</property>
  <property name="kdenlive:original.meta.attr.0.stream.creation_time.markup">2020-08-21T05:35:05.000000Z</property>
  <property name="kdenlive:original.meta.attr.0.stream.handler_name.markup">L-SMASH Video Handler</property>
  <property name="kdenlive:original.meta.attr.0.stream.vendor_id.markup">[0][0][0][0]</property>
  <property name="kdenlive:original.meta.attr.0.stream.encoder.markup">AVC Coding</property>
  <property name="kdenlive:original.meta.attr.major_brand.markup">mp42</property>
  <property name="kdenlive:original.meta.attr.minor_version.markup">0</property>
  <property name="kdenlive:original.meta.attr.compatible_brands.markup">mp42mp41isomavc1</property>
  <property name="kdenlive:original.meta.attr.creation_time.markup">2020-08-21T05:35:05.000000Z</property>
  <property name="kdenlive:original.seekable">1</property>
  <property name="kdenlive:original.meta.media.sample_aspect_num">1</property>
  <property name="kdenlive:original.meta.media.sample_aspect_den">1</property>
  <property name="kdenlive:original.aspect_ratio">1</property>
  <property name="kdenlive:original.kdenlive:folderid">60</property>
  <property name="kdenlive:original.meta.media.frame_rate_num">30000</property>
  <property name="kdenlive:original.meta.media.frame_rate_den">1001</property>
  <property name="kdenlive:original.meta.media.colorspace">709</property>
  <property name="kdenlive:original.meta.media.color_trc">1</property>
  <property name="kdenlive:original.meta.media.width">3840</property>
  <property name="kdenlive:original.meta.media.height">2160</property>
  <property name="kdenlive:original.meta.media.color_range">mpeg</property>
  <property name="kdenlive:original.kdenlive:id">19</property>
  <property name="kdenlive:original.kdenlive:file_size">28943952</property>
  <property name="kdenlive:original.kdenlive:file_hash">e6ac050337f4e468538d82d01c67699e</property>
  <property name="kdenlive:original.meta.media.top_field_first">0</property>
  <property name="kdenlive:original.meta.media.progressive">1</property>
  <property name="kdenlive:original.global_feed">1</property>
  <property name="kdenlive:original.width">3840</property>
  <property name="kdenlive:original.height">2160</property>
  <property name="kdenlive:original.backup">1</property>
  <property name="meta.media.nb_streams">1</property>
  <property name="meta.media.0.stream.type">video</property>
  <property name="meta.media.0.stream.frame_rate">29.97</property>
  <property name="meta.media.0.stream.sample_aspect_ratio">0</property>
  <property name="meta.media.0.codec.width">640</property>
  <property name="meta.media.0.codec.height">360</property>
  <property name="meta.media.0.codec.rotate">0</property>
  <property name="meta.media.0.codec.frame_rate">1000</property>
  <property name="meta.media.0.codec.pix_fmt">yuvj420p</property>
  <property name="meta.media.0.codec.sample_aspect_ratio">0</property>
  <property name="meta.media.0.codec.colorspace">601</property>
  <property name="meta.media.0.codec.name">mjpeg</property>
  <property name="meta.media.0.codec.long_name">MJPEG (Motion JPEG)</property>
  <property name="meta.media.0.codec.bit_rate">0</property>
  <property name="meta.attr.0.stream.HANDLER_NAME.markup">L-SMASH Video Handler</property>
  <property name="meta.attr.0.stream.ENCODER.markup">Lavc58.91.100 mjpeg</property>
  <property name="meta.attr.0.stream.DURATION.markup">00:00:10.577000000</property>
  <property name="meta.attr.COMPATIBLE_BRANDS.markup">mp42mp41isomavc1</property>
  <property name="meta.attr.MAJOR_BRAND.markup">mp42</property>
  <property name="meta.attr.MINOR_VERSION.markup">0</property>
  <property name="meta.attr.ENCODER.markup">Lavf58.45.100</property>
  <property name="meta.media.sample_aspect_num">1</property>
  <property name="meta.media.sample_aspect_den">1</property>
  <property name="meta.media.frame_rate_num">30000</property>
  <property name="meta.media.frame_rate_den">1001</property>
  <property name="meta.media.colorspace">601</property>
  <property name="meta.media.color_trc">2</property>
  <property name="meta.media.width">640</property>
  <property name="meta.media.height">360</property>
  <property name="meta.media.color_range">full</property>
 </producer>
 <producer id="producer32" in="00:00:00.000" out="00:00:29.767">
  <property name="length">894</property>
  <property name="eof">pause</property>
  <property name="resource">/home/ryankelln/.cache/kdenlive/proxy/e873d583bca04d0b383e935700849590.mkv</property>
  <property name="audio_index">1</property>
  <property name="video_index">0</property>
  <property name="mute_on_pause">0</property>
  <property name="mlt_service">avformat-novalidate</property>
  <property name="seekable">1</property>
  <property name="aspect_ratio">1</property>
  <property name="kdenlive:clipname">Starry Night Sky _ Time Lapse-bIiVUK0B9cs.mkv</property>
  <property name="kdenlive:folderid">60</property>
  <property name="kdenlive:id">18</property>
  <property name="kdenlive:file_size">41027769</property>
  <property name="kdenlive:file_hash">e873d583bca04d0b383e935700849590</property>
  <property name="kdenlive:audio_max">91</property>
  <property name="kdenlive:proxy">/home/ryankelln/.cache/kdenlive/proxy/e873d583bca04d0b383e935700849590.mkv</property>
  <property name="kdenlive:originalurl">/home/ryankelln/Documents/Projects/Active/Sound_Escapes/Mason/footage/Starry Night Sky _ Time Lapse-bIiVUK0B9cs.mkv</property>
  <property name="kdenlive:original.mlt_type">producer</property>
  <property name="kdenlive:original.in">00:00:00.000</property>
  <property name="kdenlive:original.out">00:00:29.767</property>
  <property name="kdenlive:original.length">894</property>
  <property name="kdenlive:original.eof">pause</property>
  <property name="kdenlive:original.resource">/home/ryankelln/Documents/Projects/Active/Sound_Escapes/Mason/footage/Starry Night Sky _ Time Lapse-bIiVUK0B9cs.mkv</property>
  <property name="kdenlive:original.audio_index">1</property>
  <property name="kdenlive:original.video_index">0</property>
  <property name="kdenlive:original.mute_on_pause">0</property>
  <property name="kdenlive:original.mlt_service">avformat-novalidate</property>
  <property name="kdenlive:original.id">producer18</property>
  <property name="kdenlive:original.meta.media.nb_streams">2</property>
  <property name="kdenlive:original.meta.media.0.stream.type">video</property>
  <property name="kdenlive:original.meta.media.0.stream.frame_rate">24</property>
  <property name="kdenlive:original.meta.media.0.stream.sample_aspect_ratio">1</property>
  <property name="kdenlive:original.meta.media.0.codec.width">3840</property>
  <property name="kdenlive:original.meta.media.0.codec.height">2160</property>
  <property name="kdenlive:original.meta.media.0.codec.rotate">0</property>
  <property name="kdenlive:original.meta.media.0.codec.frame_rate">1000</property>
  <property name="kdenlive:original.meta.media.0.codec.pix_fmt">yuv420p</property>
  <property name="kdenlive:original.meta.media.0.codec.sample_aspect_ratio">0</property>
  <property name="kdenlive:original.meta.media.0.codec.colorspace">709</property>
  <property name="kdenlive:original.meta.media.0.codec.color_trc">1</property>
  <property name="kdenlive:original.meta.media.0.codec.name">vp9</property>
  <property name="kdenlive:original.meta.media.0.codec.long_name">Google VP9</property>
  <property name="kdenlive:original.meta.media.0.codec.bit_rate">0</property>
  <property name="kdenlive:original.meta.attr.0.stream.language.markup">eng</property>
  <property name="kdenlive:original.meta.attr.0.stream.DURATION.markup">00:00:29.750000000</property>
  <property name="kdenlive:original.meta.media.1.stream.type">audio</property>
  <property name="kdenlive:original.meta.media.1.codec.sample_fmt">fltp</property>
  <property name="kdenlive:original.meta.media.1.codec.sample_rate">44100</property>
  <property name="kdenlive:original.meta.media.1.codec.channels">2</property>
  <property name="kdenlive:original.meta.media.1.codec.name">aac</property>
  <property name="kdenlive:original.meta.media.1.codec.long_name">AAC (Advanced Audio Coding)</property>
  <property name="kdenlive:original.meta.media.1.codec.bit_rate">0</property>
  <property name="kdenlive:original.meta.attr.1.stream.HANDLER_NAME.markup">ISO Media file produced by Google Inc.</property>
  <property name="kdenlive:original.meta.attr.1.stream.DURATION.markup">00:00:29.814000000</property>
  <property name="kdenlive:original.meta.attr.ENCODER.markup">Lavf58.45.100</property>
  <property name="kdenlive:original.seekable">1</property>
  <property name="kdenlive:original.meta.media.sample_aspect_num">1</property>
  <property name="kdenlive:original.meta.media.sample_aspect_den">1</property>
  <property name="kdenlive:original.aspect_ratio">1</property>
  <property name="kdenlive:original.kdenlive:folderid">60</property>
  <property name="kdenlive:original.meta.media.frame_rate_num">24</property>
  <property name="kdenlive:original.meta.media.frame_rate_den">1</property>
  <property name="kdenlive:original.meta.media.colorspace">709</property>
  <property name="kdenlive:original.meta.media.color_trc">1</property>
  <property name="kdenlive:original.meta.media.width">3840</property>
  <property name="kdenlive:original.meta.media.height">2160</property>
  <property name="kdenlive:original.meta.media.color_range">mpeg</property>
  <property name="kdenlive:original.kdenlive:id">20</property>
  <property name="kdenlive:original.kdenlive:file_size">41027769</property>
  <property name="kdenlive:original.kdenlive:file_hash">e873d583bca04d0b383e935700849590</property>
  <property name="kdenlive:original.kdenlive:audio_max">91</property>
  <property name="kdenlive:original.width">3840</property>
  <property name="kdenlive:original.height">2160</property>
  <property name="kdenlive:original.backup">1</property>
  <property name="global_feed">1</property>
  <property name="meta.media.nb_streams">2</property>
  <property name="meta.media.0.stream.type">video</property>
  <property name="meta.media.0.stream.frame_rate">24</property>
  <property name="meta.media.0.stream.sample_aspect_ratio">1</property>
  <property name="meta.media.0.codec.width">640</property>
  <property name="meta.media.0.codec.height">360</property>
  <property name="meta.media.0.codec.rotate">0</property>
  <property name="meta.media.0.codec.frame_rate">1000</property>
  <property name="meta.media.0.codec.pix_fmt">yuvj420p</property>
  <property name="meta.media.0.codec.sample_aspect_ratio">1</property>
  <property name="meta.media.0.codec.colorspace">601</property>
  <property name="meta.media.0.codec.name">mjpeg</property>
  <property name="meta.media.0.codec.long_name">MJPEG (Motion JPEG)</property>
  <property name="meta.media.0.codec.bit_rate">0</property>
  <property name="meta.attr.0.stream.language.markup">eng</property>
  <property name="meta.attr.0.stream.ENCODER.markup">Lavc58.91.100 mjpeg</property>
  <property name="meta.attr.0.stream.DURATION.markup">00:00:29.750000000</property>
  <property name="meta.media.1.stream.type">audio</property>
  <property name="meta.media.1.codec.sample_fmt">s16</property>
  <property name="meta.media.1.codec.sample_rate">44100</property>
  <property name="meta.media.1.codec.channels">2</property>
  <property name="meta.media.1.codec.name">pcm_s16le</property>
  <property name="meta.media.1.codec.long_name">PCM signed 16-bit little-endian</property>
  <property name="meta.media.1.codec.bit_rate">1411200</property>
  <property name="meta.attr.1.stream.HANDLER_NAME.markup">ISO Media file produced by Google Inc.</property>
  <property name="meta.attr.1.stream.ENCODER.markup">Lavc58.91.100 pcm_s16le</property>
  <property name="meta.attr.1.stream.DURATION.markup">00:00:29.814000000</property>
  <property name="meta.attr.ENCODER.markup">Lavf58.45.100</property>
  <property name="meta.media.sample_aspect_num">1</property>
  <property name="meta.media.sample_aspect_den">1</property>
  <property name="meta.media.frame_rate_num">24</property>
  <property name="meta.media.frame_rate_den">1</property>
  <property name="meta.media.colorspace">601</property>
  <property name="meta.media.color_trc">2</property>
  <property name="meta.media.width">640</property>
  <property name="meta.media.height">360</property>
  <property name="meta.media.color_range">full</property>
 </producer>
 <producer id="producer16" in="00:00:00.000" out="00:03:20.733">
  <property name="length">6023</property>
  <property name="eof">pause</property>
  <property name="resource">/home/ryankelln/Documents/Projects/Active/Sound_Escapes/Mason/footage/Northern lights _ Aurora Borealis _ Norrsken Time-lapse--5LupVNeMHA.mkv</property>
  <property name="audio_index">1</property>
  <property name="video_index">0</property>
  <property name="mute_on_pause">0</property>
  <property name="mlt_service">avformat-novalidate</property>
  <property name="meta.media.nb_streams">2</property>
  <property name="meta.media.0.stream.type">video</property>
  <property name="meta.media.0.stream.frame_rate">29.97</property>
  <property name="meta.media.0.stream.sample_aspect_ratio">1</property>
  <property name="meta.media.0.codec.width">1920</property>
  <property name="meta.media.0.codec.height">1080</property>
  <property name="meta.media.0.codec.rotate">0</property>
  <property name="meta.media.0.codec.frame_rate">29.97</property>
  <property name="meta.media.0.codec.pix_fmt">yuv420p</property>
  <property name="meta.media.0.codec.sample_aspect_ratio">1</property>
  <property name="meta.media.0.codec.colorspace">709</property>
  <property name="meta.media.0.codec.name">h264</property>
  <property name="meta.media.0.codec.long_name">H.264 / AVC / MPEG-4 AVC / MPEG-4 part 10</property>
  <property name="meta.media.0.codec.bit_rate">0</property>
  <property name="meta.attr.0.stream.HANDLER_NAME.markup">VideoHandler</property>
  <property name="meta.attr.0.stream.DURATION.markup">00:03:20.734000000</property>
  <property name="meta.media.1.stream.type">audio</property>
  <property name="meta.media.1.codec.sample_fmt">fltp</property>
  <property name="meta.media.1.codec.sample_rate">48000</property>
  <property name="meta.media.1.codec.channels">2</property>
  <property name="meta.media.1.codec.name">opus</property>
  <property name="meta.media.1.codec.long_name">Opus</property>
  <property name="meta.media.1.codec.bit_rate">0</property>
  <property name="meta.attr.1.stream.language.markup">eng</property>
  <property name="meta.attr.1.stream.DURATION.markup">00:03:20.761000000</property>
  <property name="meta.attr.COMPATIBLE_BRANDS.markup">iso6avc1mp41</property>
  <property name="meta.attr.MAJOR_BRAND.markup">dash</property>
  <property name="meta.attr.MINOR_VERSION.markup">0</property>
  <property name="meta.attr.ENCODER.markup">Lavf58.45.100</property>
  <property name="seekable">1</property>
  <property name="meta.media.sample_aspect_num">1</property>
  <property name="meta.media.sample_aspect_den">1</property>
  <property name="aspect_ratio">1</property>
  <property name="kdenlive:clipname"/>
  <property name="kdenlive:folderid">60</property>
  <property name="meta.media.frame_rate_num">30000</property>
  <property name="meta.media.frame_rate_den">1001</property>
  <property name="meta.media.colorspace">709</property>
  <property name="meta.media.color_trc">2</property>
  <property name="meta.media.width">1920</property>
  <property name="meta.media.height">1080</property>
  <property name="meta.media.color_range">mpeg</property>
  <property name="kdenlive:id">19</property>
  <property name="kdenlive:file_size">62500378</property>
  <property name="kdenlive:file_hash">ae30069165ae8d2bd1be4155c9a3b73b</property>
  <property name="kdenlive:audio_max">1</property>
  <property name="meta.media.top_field_first">0</property>
  <property name="meta.media.progressive">1</property>
  <property name="kdenlive:active_streams">-1</property>
  <property name="kdenlive:thumbnailFrame">617</property>
  <property name="global_feed">1</property>
  <property name="kdenlive:zone_in">1721</property>
  <property name="kdenlive:zone_out">2348</property>
  <property name="kdenlive:clipzones">[
    {
        "in": 1721,
        "name": "Zone 1",
        "out": 2348
    }
]
</property>
 </producer>
 <producer id="producer19" in="00:00:00.000" out="00:00:11.867">
  <property name="length">357</property>
  <property name="eof">pause</property>
  <property name="resource">/home/ryankelln/Documents/Projects/Active/Sound_Escapes/Mason/footage/Meteor Shower H264.mp4</property>
  <property name="audio_index">-1</property>
  <property name="video_index">0</property>
  <property name="mute_on_pause">0</property>
  <property name="mlt_service">avformat-novalidate</property>
  <property name="meta.media.nb_streams">1</property>
  <property name="meta.media.0.stream.type">video</property>
  <property name="meta.media.0.stream.frame_rate">23.976</property>
  <property name="meta.media.0.stream.sample_aspect_ratio">0</property>
  <property name="meta.media.0.codec.width">1920</property>
  <property name="meta.media.0.codec.height">1080</property>
  <property name="meta.media.0.codec.rotate">0</property>
  <property name="meta.media.0.codec.frame_rate">23.976</property>
  <property name="meta.media.0.codec.pix_fmt">yuv420p</property>
  <property name="meta.media.0.codec.sample_aspect_ratio">1</property>
  <property name="meta.media.0.codec.colorspace">709</property>
  <property name="meta.media.0.codec.color_trc">1</property>
  <property name="meta.media.0.codec.name">h264</property>
  <property name="meta.media.0.codec.long_name">H.264 / AVC / MPEG-4 AVC / MPEG-4 part 10</property>
  <property name="meta.media.0.codec.bit_rate">45052295</property>
  <property name="meta.attr.0.stream.creation_time.markup">2016-08-12T17:14:03.000000Z</property>
  <property name="meta.attr.0.stream.language.markup">eng</property>
  <property name="meta.attr.0.stream.handler_name.markup">Mainconcept MP4 Video Media Handler</property>
  <property name="meta.attr.0.stream.vendor_id.markup">[0][0][0][0]</property>
  <property name="meta.attr.0.stream.encoder.markup">AVC Coding</property>
  <property name="meta.attr.major_brand.markup">mp42</property>
  <property name="meta.attr.minor_version.markup">0</property>
  <property name="meta.attr.compatible_brands.markup">mp42mp41</property>
  <property name="meta.attr.creation_time.markup">2016-08-12T17:14:03.000000Z</property>
  <property name="seekable">1</property>
  <property name="meta.media.sample_aspect_num">1</property>
  <property name="meta.media.sample_aspect_den">1</property>
  <property name="aspect_ratio">1</property>
  <property name="kdenlive:clipname"/>
  <property name="kdenlive:folderid">60</property>
  <property name="meta.media.frame_rate_num">2997</property>
  <property name="meta.media.frame_rate_den">125</property>
  <property name="meta.media.colorspace">709</property>
  <property name="meta.media.color_trc">1</property>
  <property name="meta.media.width">1920</property>
  <property name="meta.media.height">1080</property>
  <property name="meta.media.color_range">mpeg</property>
  <property name="kdenlive:id">20</property>
  <property name="kdenlive:file_size">66950127</property>
  <property name="kdenlive:file_hash">87675220c26844eead1d081d3371f5d3</property>
  <property name="meta.media.top_field_first">0</property>
  <property name="meta.media.progressive">1</property>
  <property name="global_feed">1</property>
 </producer>
 <producer id="producer17" in="00:00:00.000" out="00:06:46.133">
  <property name="length">12185</property>
  <property name="eof">pause</property>
  <property name="resource">/home/ryankelln/Documents/Projects/Active/Sound_Escapes/Mason/footage/Soothing Relax And Calm _Night Sky Time Lapse, Starry Night Sleep Music, Study _Ambient, Meditations-Zw3q6h7DsFs.webm</property>
  <property name="audio_index">1</property>
  <property name="video_index">0</property>
  <property name="mute_on_pause">0</property>
  <property name="mlt_service">avformat-novalidate</property>
  <property name="meta.media.nb_streams">2</property>
  <property name="meta.media.0.stream.type">video</property>
  <property name="meta.media.0.stream.frame_rate">27.38</property>
  <property name="meta.media.0.stream.sample_aspect_ratio">1</property>
  <property name="meta.media.0.codec.width">1920</property>
  <property name="meta.media.0.codec.height">1080</property>
  <property name="meta.media.0.codec.rotate">0</property>
  <property name="meta.media.0.codec.frame_rate">1000</property>
  <property name="meta.media.0.codec.pix_fmt">yuv420p</property>
  <property name="meta.media.0.codec.sample_aspect_ratio">0</property>
  <property name="meta.media.0.codec.colorspace">709</property>
  <property name="meta.media.0.codec.name">vp9</property>
  <property name="meta.media.0.codec.long_name">Google VP9</property>
  <property name="meta.media.0.codec.bit_rate">0</property>
  <property name="meta.attr.0.stream.language.markup">eng</property>
  <property name="meta.attr.0.stream.DURATION.markup">00:06:46.135000000</property>
  <property name="meta.media.1.stream.type">audio</property>
  <property name="meta.media.1.codec.sample_fmt">fltp</property>
  <property name="meta.media.1.codec.sample_rate">48000</property>
  <property name="meta.media.1.codec.channels">2</property>
  <property name="meta.media.1.codec.name">opus</property>
  <property name="meta.media.1.codec.long_name">Opus</property>
  <property name="meta.media.1.codec.bit_rate">0</property>
  <property name="meta.attr.1.stream.language.markup">eng</property>
  <property name="meta.attr.1.stream.DURATION.markup">00:06:46.161000000</property>
  <property name="meta.attr.HTTP://YOUTUBE.COM/STREAMING/OTF/DURATIONS/112015.markup">Segment-Count: 78&#xd;
Segment-Durations-Ms: 5259,5260,5259(r=1),5260,5259(r=1),5260,5259(r=2),5260,5259(r=1),5260,5259(r=1),5260,5259(r=1),5260,5259(r=1),5260,5259(r=2),5260,5259(r=1),5260,5259(r=1),5260,5259(r=1),5260,5259(r=1),5260,5259(r=2),5260,5259(r=1),5260,5259(r=1),5260,5259(r=1),5260,5259(r=1),5260,5259(r=2),5260,5259(r=1),5260,5259(r=1),5260,5259(r=1),5260,5259(r=1),5260,5259(r=2),5260,5259,1169,&#xd;
&#xd;
</property>
  <property name="meta.attr.ENCODER.markup">Lavf58.45.100</property>
  <property name="seekable">1</property>
  <property name="meta.media.sample_aspect_num">1</property>
  <property name="meta.media.sample_aspect_den">1</property>
  <property name="aspect_ratio">1</property>
  <property name="kdenlive:clipname"/>
  <property name="kdenlive:folderid">60</property>
  <property name="meta.media.frame_rate_num">1369</property>
  <property name="meta.media.frame_rate_den">50</property>
  <property name="meta.media.colorspace">709</property>
  <property name="meta.media.color_trc">2</property>
  <property name="meta.media.width">1920</property>
  <property name="meta.media.height">1080</property>
  <property name="meta.media.color_range">mpeg</property>
  <property name="kdenlive:id">21</property>
  <property name="kdenlive:file_size">71657485</property>
  <property name="kdenlive:file_hash">32d8c57ea390090c120967a1116d4c0d</property>
  <property name="kdenlive:audio_max">1</property>
  <property name="meta.media.top_field_first">0</property>
  <property name="meta.media.progressive">1</property>
  <property name="kdenlive:thumbnailFrame">652</property>
  <property name="kdenlive:active_streams">-1</property>
  <property name="global_feed">1</property>
  <property name="kdenlive:zone_in">606</property>
  <property name="kdenlive:zone_out">976</property>
  <property name="kdenlive:clipzones">[
    {
        "in": 606,
        "name": "Zone 1",
        "out": 976
    }
]
</property>
 </producer>
 <producer id="producer20" in="00:00:00.000" out="00:10:23.633">
  <property name="length">18710</property>
  <property name="eof">pause</property>
  <property name="resource">/home/ryankelln/Documents/Projects/Active/Sound_Escapes/Mason/footage/Night Skies _ Starry Night _ Northern Lights _ Relaxing Music-eY_s5XJDAI0.webm</property>
  <property name="audio_index">1</property>
  <property name="video_index">0</property>
  <property name="mute_on_pause">0</property>
  <property name="mlt_service">avformat-novalidate</property>
  <property name="meta.media.nb_streams">2</property>
  <property name="meta.media.0.stream.type">video</property>
  <property name="meta.media.0.stream.frame_rate">25</property>
  <property name="meta.media.0.stream.sample_aspect_ratio">1</property>
  <property name="meta.media.0.codec.width">1920</property>
  <property name="meta.media.0.codec.height">1080</property>
  <property name="meta.media.0.codec.rotate">0</property>
  <property name="meta.media.0.codec.frame_rate">1000</property>
  <property name="meta.media.0.codec.pix_fmt">yuv420p</property>
  <property name="meta.media.0.codec.sample_aspect_ratio">0</property>
  <property name="meta.media.0.codec.colorspace">709</property>
  <property name="meta.media.0.codec.name">vp9</property>
  <property name="meta.media.0.codec.long_name">Google VP9</property>
  <property name="meta.media.0.codec.bit_rate">0</property>
  <property name="meta.attr.0.stream.language.markup">eng</property>
  <property name="meta.attr.0.stream.DURATION.markup">00:10:23.600000000</property>
  <property name="meta.media.1.stream.type">audio</property>
  <property name="meta.media.1.codec.sample_fmt">fltp</property>
  <property name="meta.media.1.codec.sample_rate">48000</property>
  <property name="meta.media.1.codec.channels">2</property>
  <property name="meta.media.1.codec.name">opus</property>
  <property name="meta.media.1.codec.long_name">Opus</property>
  <property name="meta.media.1.codec.bit_rate">0</property>
  <property name="meta.attr.1.stream.language.markup">eng</property>
  <property name="meta.attr.1.stream.DURATION.markup">00:10:23.661000000</property>
  <property name="meta.attr.HTTP://YOUTUBE.COM/STREAMING/OTF/DURATIONS/112015.markup">Segment-Count: 122&#xd;
Segment-Durations-Ms: 5120(r=120),4080,&#xd;
&#xd;
</property>
  <property name="meta.attr.ENCODER.markup">Lavf58.45.100</property>
  <property name="seekable">1</property>
  <property name="meta.media.sample_aspect_num">1</property>
  <property name="meta.media.sample_aspect_den">1</property>
  <property name="aspect_ratio">1</property>
  <property name="kdenlive:clipname"/>
  <property name="kdenlive:folderid">60</property>
  <property name="meta.media.frame_rate_num">25</property>
  <property name="meta.media.frame_rate_den">1</property>
  <property name="meta.media.colorspace">709</property>
  <property name="meta.media.color_trc">2</property>
  <property name="meta.media.width">1920</property>
  <property name="meta.media.height">1080</property>
  <property name="meta.media.color_range">mpeg</property>
  <property name="kdenlive:id">22</property>
  <property name="kdenlive:file_size">73980361</property>
  <property name="kdenlive:file_hash">480e051c56a36d249915c674a39a1a00</property>
  <property name="kdenlive:audio_max">1</property>
  <property name="meta.media.top_field_first">0</property>
  <property name="meta.media.progressive">1</property>
  <property name="global_feed">1</property>
  <property name="kdenlive:active_streams">-1</property>
 </producer>
 <producer id="producer21" in="00:00:00.000" out="00:08:17.600">
  <property name="length">14929</property>
  <property name="eof">pause</property>
  <property name="resource">/home/ryankelln/Documents/Projects/Active/Sound_Escapes/Mason/footage/One night in Finnish Lapland with northern lights.-GuVq6Q7erVM.mkv</property>
  <property name="audio_index">1</property>
  <property name="video_index">0</property>
  <property name="mute_on_pause">0</property>
  <property name="mlt_service">avformat-novalidate</property>
  <property name="meta.media.nb_streams">2</property>
  <property name="meta.media.0.stream.type">video</property>
  <property name="meta.media.0.stream.frame_rate">25</property>
  <property name="meta.media.0.stream.sample_aspect_ratio">1</property>
  <property name="meta.media.0.codec.width">1920</property>
  <property name="meta.media.0.codec.height">1080</property>
  <property name="meta.media.0.codec.rotate">0</property>
  <property name="meta.media.0.codec.frame_rate">25</property>
  <property name="meta.media.0.codec.pix_fmt">yuv420p</property>
  <property name="meta.media.0.codec.sample_aspect_ratio">1</property>
  <property name="meta.media.0.codec.colorspace">709</property>
  <property name="meta.media.0.codec.color_trc">1</property>
  <property name="meta.media.0.codec.name">h264</property>
  <property name="meta.media.0.codec.long_name">H.264 / AVC / MPEG-4 AVC / MPEG-4 part 10</property>
  <property name="meta.media.0.codec.bit_rate">0</property>
  <property name="meta.attr.0.stream.HANDLER_NAME.markup">VideoHandler</property>
  <property name="meta.attr.0.stream.DURATION.markup">00:08:17.600000000</property>
  <property name="meta.media.1.stream.type">audio</property>
  <property name="meta.media.1.codec.sample_fmt">fltp</property>
  <property name="meta.media.1.codec.sample_rate">48000</property>
  <property name="meta.media.1.codec.channels">2</property>
  <property name="meta.media.1.codec.name">opus</property>
  <property name="meta.media.1.codec.long_name">Opus</property>
  <property name="meta.media.1.codec.bit_rate">0</property>
  <property name="meta.attr.1.stream.language.markup">eng</property>
  <property name="meta.attr.1.stream.DURATION.markup">00:08:17.621000000</property>
  <property name="meta.attr.COMPATIBLE_BRANDS.markup">iso6avc1mp41</property>
  <property name="meta.attr.MAJOR_BRAND.markup">dash</property>
  <property name="meta.attr.MINOR_VERSION.markup">0</property>
  <property name="meta.attr.ENCODER.markup">Lavf58.45.100</property>
  <property name="seekable">1</property>
  <property name="meta.media.sample_aspect_num">1</property>
  <property name="meta.media.sample_aspect_den">1</property>
  <property name="aspect_ratio">1</property>
  <property name="kdenlive:clipname"/>
  <property name="kdenlive:folderid">60</property>
  <property name="meta.media.frame_rate_num">25</property>
  <property name="meta.media.frame_rate_den">1</property>
  <property name="meta.media.colorspace">709</property>
  <property name="meta.media.color_trc">1</property>
  <property name="meta.media.width">1920</property>
  <property name="meta.media.height">1080</property>
  <property name="meta.media.color_range">mpeg</property>
  <property name="kdenlive:id">23</property>
  <property name="kdenlive:file_size">78820293</property>
  <property name="kdenlive:file_hash">d8ff9d47a29f1618bbfd392afaead1e1</property>
  <property name="kdenlive:audio_max">1</property>
  <property name="meta.media.top_field_first">0</property>
  <property name="meta.media.progressive">1</property>
  <property name="kdenlive:active_streams">-1</property>
  <property name="kdenlive:zone_in">8299</property>
  <property name="kdenlive:zone_out">8691</property>
  <property name="kdenlive:clipzones">[
    {
        "in": 7804,
        "name": "Zone 1",
        "out": 8068
    },
    {
        "in": 8299,
        "name": "Zone 2",
        "out": 8691
    },
    {
        "in": 8691,
        "name": "Zone 3",
        "out": 8795
    },
    {
        "in": 8795,
        "name": "Zone 4",
        "out": 8878
    },
    {
        "in": 8882,
        "name": "Zone 5",
        "out": 9149
    },
    {
        "in": 9172,
        "name": "Zone 6",
        "out": 9344
    }
]
</property>
  <property name="global_feed">1</property>
 </producer>
 <producer id="producer22" in="00:00:00.000" out="00:06:13.733">
  <property name="length">11213</property>
  <property name="eof">pause</property>
  <property name="resource">/home/ryankelln/Documents/Projects/Active/Sound_Escapes/rehearsals/1/SoundEscapes_MasonRehearsal1.mp3</property>
  <property name="meta.media.nb_streams">1</property>
  <property name="meta.media.0.stream.type">audio</property>
  <property name="meta.media.0.codec.sample_fmt">fltp</property>
  <property name="meta.media.0.codec.sample_rate">48000</property>
  <property name="meta.media.0.codec.channels">2</property>
  <property name="meta.media.0.codec.name">mp3float</property>
  <property name="meta.media.0.codec.long_name">MP3 (MPEG audio layer 3)</property>
  <property name="meta.media.0.codec.bit_rate">185160</property>
  <property name="meta.attr.0.stream.encoder.markup">LAME3.100</property>
  <property name="seekable">1</property>
  <property name="audio_index">0</property>
  <property name="video_index">-1</property>
  <property name="mute_on_pause">1</property>
  <property name="mlt_service">avformat</property>
  <property name="kdenlive:clipname"/>
  <property name="kdenlive:folderid">60</property>
  <property name="kdenlive:id">24</property>
  <property name="kdenlive:file_size">8651040</property>
  <property name="kdenlive:file_hash">d0d5b7aed58a6e6e49ffdfe090b26b43</property>
  <property name="kdenlive:audio_max">1</property>
  <property name="global_feed">1</property>
 </producer>
 <producer id="producer23" in="00:00:00.000" out="00:05:21.467">
  <property name="length">9645</property>
  <property name="eof">pause</property>
  <property name="resource">/media/storage/media/Videos/mine/music_landscapes/2021-05-21/rehearsal1_Caleb_upright+projection.MP4</property>
  <property name="audio_index">1</property>
  <property name="video_index">0</property>
  <property name="mute_on_pause">0</property>
  <property name="mlt_service">avformat-novalidate</property>
  <property name="meta.media.nb_streams">3</property>
  <property name="meta.media.0.stream.type">video</property>
  <property name="meta.media.0.stream.frame_rate">24</property>
  <property name="meta.media.0.stream.sample_aspect_ratio">0</property>
  <property name="meta.media.0.codec.width">1920</property>
  <property name="meta.media.0.codec.height">1080</property>
  <property name="meta.media.0.codec.rotate">0</property>
  <property name="meta.media.0.codec.frame_rate">24</property>
  <property name="meta.media.0.codec.pix_fmt">yuv420p</property>
  <property name="meta.media.0.codec.sample_aspect_ratio">1</property>
  <property name="meta.media.0.codec.colorspace">709</property>
  <property name="meta.media.0.codec.color_trc">1</property>
  <property name="meta.media.0.codec.name">h264</property>
  <property name="meta.media.0.codec.long_name">H.264 / AVC / MPEG-4 AVC / MPEG-4 part 10</property>
  <property name="meta.media.0.codec.bit_rate">37316544</property>
  <property name="meta.attr.0.stream.creation_time.markup">2021-05-21T15:49:33.000000Z</property>
  <property name="meta.attr.0.stream.vendor_id.markup">[0][0][0][0]</property>
  <property name="meta.attr.0.stream.timecode.markup">10:12:10:03</property>
  <property name="meta.media.1.stream.type">audio</property>
  <property name="meta.media.1.codec.sample_fmt">s16</property>
  <property name="meta.media.1.codec.sample_rate">48000</property>
  <property name="meta.media.1.codec.channels">2</property>
  <property name="meta.media.1.codec.name">pcm_s16be</property>
  <property name="meta.media.1.codec.long_name">PCM signed 16-bit big-endian</property>
  <property name="meta.media.1.codec.bit_rate">1536000</property>
  <property name="meta.attr.1.stream.creation_time.markup">2021-05-21T15:49:33.000000Z</property>
  <property name="meta.attr.1.stream.vendor_id.markup">pana</property>
  <property name="meta.attr.1.stream.timecode.markup">10:12:10:03</property>
  <property name="meta.attr.major_brand.markup">mp42</property>
  <property name="meta.attr.minor_version.markup">1</property>
  <property name="meta.attr.compatible_brands.markup">mp42avc1</property>
  <property name="meta.attr.creation_time.markup">2021-05-21T15:49:33.000000Z</property>
  <property name="seekable">1</property>
  <property name="meta.media.sample_aspect_num">1</property>
  <property name="meta.media.sample_aspect_den">1</property>
  <property name="aspect_ratio">1</property>
  <property name="kdenlive:clipname"/>
  <property name="kdenlive:folderid">60</property>
  <property name="meta.media.frame_rate_num">24</property>
  <property name="meta.media.frame_rate_den">1</property>
  <property name="meta.media.colorspace">709</property>
  <property name="meta.media.color_trc">1</property>
  <property name="meta.media.width">1920</property>
  <property name="meta.media.height">1080</property>
  <property name="meta.media.color_range">mpeg</property>
  <property name="kdenlive:id">25</property>
  <property name="kdenlive:file_size">1561679650</property>
  <property name="kdenlive:file_hash">31f927b6aeebe0a73558f7ee3b1ebcd3</property>
  <property name="meta.media.top_field_first">0</property>
  <property name="meta.media.progressive">1</property>
  <property name="kdenlive:audio_max">91</property>
  <property name="kdenlive:zone_in">2583</property>
  <property name="kdenlive:zone_out">2926</property>
  <property name="kdenlive:clipzones">[
    {
        "in": 2583,
        "name": "Zone 1",
        "out": 2926
    }
]
</property>
  <property name="kdenlive:active_streams">-1</property>
  <property name="global_feed">1</property>
 </producer>
 <producer id="producer24" in="00:00:00.000" out="00:05:04.467">
  <property name="length">9135</property>
  <property name="eof">pause</property>
  <property name="resource">/media/storage/media/Videos/mine/music_landscapes/2021-05-21/Chris/rehearsal1_Chris_piano_1.MP4</property>
  <property name="audio_index">1</property>
  <property name="video_index">0</property>
  <property name="mute_on_pause">0</property>
  <property name="mlt_service">avformat-novalidate</property>
  <property name="meta.media.nb_streams">3</property>
  <property name="meta.media.0.stream.type">video</property>
  <property name="meta.media.0.stream.frame_rate">24</property>
  <property name="meta.media.0.stream.sample_aspect_ratio">0</property>
  <property name="meta.media.0.codec.width">1920</property>
  <property name="meta.media.0.codec.height">1080</property>
  <property name="meta.media.0.codec.rotate">0</property>
  <property name="meta.media.0.codec.frame_rate">24</property>
  <property name="meta.media.0.codec.pix_fmt">yuv420p</property>
  <property name="meta.media.0.codec.sample_aspect_ratio">1</property>
  <property name="meta.media.0.codec.colorspace">709</property>
  <property name="meta.media.0.codec.color_trc">1</property>
  <property name="meta.media.0.codec.name">h264</property>
  <property name="meta.media.0.codec.long_name">H.264 / AVC / MPEG-4 AVC / MPEG-4 part 10</property>
  <property name="meta.media.0.codec.bit_rate">38387885</property>
  <property name="meta.attr.0.stream.creation_time.markup">2021-05-21T13:27:53.000000Z</property>
  <property name="meta.attr.0.stream.vendor_id.markup">[0][0][0][0]</property>
  <property name="meta.attr.0.stream.timecode.markup">08:55:37:15</property>
  <property name="meta.media.1.stream.type">audio</property>
  <property name="meta.media.1.codec.sample_fmt">s16</property>
  <property name="meta.media.1.codec.sample_rate">48000</property>
  <property name="meta.media.1.codec.channels">2</property>
  <property name="meta.media.1.codec.name">pcm_s16be</property>
  <property name="meta.media.1.codec.long_name">PCM signed 16-bit big-endian</property>
  <property name="meta.media.1.codec.bit_rate">1536000</property>
  <property name="meta.attr.1.stream.creation_time.markup">2021-05-21T13:27:53.000000Z</property>
  <property name="meta.attr.1.stream.vendor_id.markup">pana</property>
  <property name="meta.attr.1.stream.timecode.markup">08:55:37:15</property>
  <property name="meta.attr.major_brand.markup">mp42</property>
  <property name="meta.attr.minor_version.markup">1</property>
  <property name="meta.attr.compatible_brands.markup">mp42avc1</property>
  <property name="meta.attr.creation_time.markup">2021-05-21T13:27:53.000000Z</property>
  <property name="seekable">1</property>
  <property name="meta.media.sample_aspect_num">1</property>
  <property name="meta.media.sample_aspect_den">1</property>
  <property name="aspect_ratio">1</property>
  <property name="kdenlive:clipname"/>
  <property name="kdenlive:folderid">60</property>
  <property name="meta.media.frame_rate_num">24</property>
  <property name="meta.media.frame_rate_den">1</property>
  <property name="meta.media.colorspace">709</property>
  <property name="meta.media.color_trc">1</property>
  <property name="meta.media.width">1920</property>
  <property name="meta.media.height">1080</property>
  <property name="meta.media.color_range">mpeg</property>
  <property name="kdenlive:id">26</property>
  <property name="kdenlive:file_size">1519894261</property>
  <property name="kdenlive:file_hash">bc0164d819c12e81af44c68216dc56b2</property>
  <property name="meta.media.top_field_first">0</property>
  <property name="meta.media.progressive">1</property>
  <property name="kdenlive:audio_max">91</property>
  <property name="kdenlive:active_streams">-1</property>
  <property name="global_feed">1</property>
 </producer>
 <producer id="producer25" in="00:00:00.000" out="00:01:45.067">
  <property name="length">3153</property>
  <property name="eof">pause</property>
  <property name="resource">/media/storage/media/Videos/mine/music_landscapes/2021-05-21/rehearsal1_Sarah_C0024.MP4</property>
  <property name="audio_index">1</property>
  <property name="video_index">0</property>
  <property name="mute_on_pause">0</property>
  <property name="mlt_service">avformat-novalidate</property>
  <property name="meta.media.nb_streams">3</property>
  <property name="meta.media.0.stream.type">video</property>
  <property name="meta.media.0.stream.frame_rate">29.97</property>
  <property name="meta.media.0.stream.sample_aspect_ratio">0</property>
  <property name="meta.media.0.codec.width">1920</property>
  <property name="meta.media.0.codec.height">1080</property>
  <property name="meta.media.0.codec.rotate">0</property>
  <property name="meta.media.0.codec.frame_rate">29.97</property>
  <property name="meta.media.0.codec.pix_fmt">yuv420p</property>
  <property name="meta.media.0.codec.sample_aspect_ratio">1</property>
  <property name="meta.media.0.codec.colorspace">709</property>
  <property name="meta.media.0.codec.color_trc">1</property>
  <property name="meta.media.0.codec.name">h264</property>
  <property name="meta.media.0.codec.long_name">H.264 / AVC / MPEG-4 AVC / MPEG-4 part 10</property>
  <property name="meta.media.0.codec.bit_rate">47569332</property>
  <property name="meta.attr.0.stream.creation_time.markup">2021-05-22T20:15:57.000000Z</property>
  <property name="meta.attr.0.stream.handler_name.markup">Video Media Handler</property>
  <property name="meta.attr.0.stream.vendor_id.markup">[0][0][0][0]</property>
  <property name="meta.attr.0.stream.encoder.markup">AVC Coding</property>
  <property name="meta.media.1.stream.type">audio</property>
  <property name="meta.media.1.codec.sample_fmt">s16</property>
  <property name="meta.media.1.codec.sample_rate">48000</property>
  <property name="meta.media.1.codec.channels">2</property>
  <property name="meta.media.1.codec.name">pcm_s16be</property>
  <property name="meta.media.1.codec.long_name">PCM signed 16-bit big-endian</property>
  <property name="meta.media.1.codec.bit_rate">1536000</property>
  <property name="meta.attr.1.stream.creation_time.markup">2021-05-22T20:15:57.000000Z</property>
  <property name="meta.attr.1.stream.handler_name.markup">Sound Media Handler</property>
  <property name="meta.attr.1.stream.vendor_id.markup">[0][0][0][0]</property>
  <property name="meta.attr.major_brand.markup">XAVC</property>
  <property name="meta.attr.minor_version.markup">16785407</property>
  <property name="meta.attr.compatible_brands.markup">XAVCmp42iso2</property>
  <property name="meta.attr.creation_time.markup">2021-05-22T20:15:57.000000Z</property>
  <property name="seekable">1</property>
  <property name="meta.media.sample_aspect_num">1</property>
  <property name="meta.media.sample_aspect_den">1</property>
  <property name="aspect_ratio">1</property>
  <property name="kdenlive:clipname"/>
  <property name="kdenlive:folderid">60</property>
  <property name="meta.media.frame_rate_num">30000</property>
  <property name="meta.media.frame_rate_den">1001</property>
  <property name="meta.media.colorspace">709</property>
  <property name="meta.media.color_trc">1</property>
  <property name="meta.media.width">1920</property>
  <property name="meta.media.height">1080</property>
  <property name="meta.media.color_range">mpeg</property>
  <property name="kdenlive:id">27</property>
  <property name="kdenlive:file_size">650153054</property>
  <property name="kdenlive:file_hash">b50a515a833785a380ed7a6775159d91</property>
  <property name="kdenlive:audio_max">91</property>
  <property name="meta.media.top_field_first">0</property>
  <property name="meta.media.progressive">1</property>
  <property name="kdenlive:active_streams">-1</property>
  <property name="global_feed">1</property>
  <property name="kdenlive:zone_in">1309</property>
  <property name="kdenlive:zone_out">1766</property>
  <property name="kdenlive:clipzones">[
    {
        "in": 1309,
        "name": "Zone 1",
        "out": 1766
    }
]
</property>
 </producer>
 <producer id="producer26" in="00:00:00.000" out="00:01:33.467">
  <property name="length">2805</property>
  <property name="eof">pause</property>
  <property name="resource">/media/storage/media/Videos/mine/music_landscapes/2021-04-24/2021-04-24_Toronto_night+tree+moon+clouds.MP4</property>
  <property name="audio_index">1</property>
  <property name="video_index">0</property>
  <property name="mute_on_pause">0</property>
  <property name="mlt_service">avformat-novalidate</property>
  <property name="meta.media.nb_streams">3</property>
  <property name="meta.media.0.stream.type">video</property>
  <property name="meta.media.0.stream.frame_rate">24</property>
  <property name="meta.media.0.stream.sample_aspect_ratio">0</property>
  <property name="meta.media.0.codec.width">1920</property>
  <property name="meta.media.0.codec.height">1080</property>
  <property name="meta.media.0.codec.rotate">0</property>
  <property name="meta.media.0.codec.frame_rate">24</property>
  <property name="meta.media.0.codec.pix_fmt">yuv420p</property>
  <property name="meta.media.0.codec.sample_aspect_ratio">1</property>
  <property name="meta.media.0.codec.colorspace">709</property>
  <property name="meta.media.0.codec.color_trc">1</property>
  <property name="meta.media.0.codec.name">h264</property>
  <property name="meta.media.0.codec.long_name">H.264 / AVC / MPEG-4 AVC / MPEG-4 part 10</property>
  <property name="meta.media.0.codec.bit_rate">38341214</property>
  <property name="meta.attr.0.stream.creation_time.markup">2021-04-24T22:19:20.000000Z</property>
  <property name="meta.attr.0.stream.vendor_id.markup">[0][0][0][0]</property>
  <property name="meta.attr.0.stream.timecode.markup">06:17:21:15</property>
  <property name="meta.media.1.stream.type">audio</property>
  <property name="meta.media.1.codec.sample_fmt">s16</property>
  <property name="meta.media.1.codec.sample_rate">48000</property>
  <property name="meta.media.1.codec.channels">2</property>
  <property name="meta.media.1.codec.name">pcm_s16be</property>
  <property name="meta.media.1.codec.long_name">PCM signed 16-bit big-endian</property>
  <property name="meta.media.1.codec.bit_rate">1536000</property>
  <property name="meta.attr.1.stream.creation_time.markup">2021-04-24T22:19:20.000000Z</property>
  <property name="meta.attr.1.stream.vendor_id.markup">pana</property>
  <property name="meta.attr.1.stream.timecode.markup">06:17:21:15</property>
  <property name="meta.attr.major_brand.markup">mp42</property>
  <property name="meta.attr.minor_version.markup">1</property>
  <property name="meta.attr.compatible_brands.markup">mp42avc1</property>
  <property name="meta.attr.creation_time.markup">2021-04-24T22:19:20.000000Z</property>
  <property name="seekable">1</property>
  <property name="meta.media.sample_aspect_num">1</property>
  <property name="meta.media.sample_aspect_den">1</property>
  <property name="aspect_ratio">1</property>
  <property name="kdenlive:clipname"/>
  <property name="kdenlive:folderid">60</property>
  <property name="meta.media.frame_rate_num">24</property>
  <property name="meta.media.frame_rate_den">1</property>
  <property name="meta.media.colorspace">709</property>
  <property name="meta.media.color_trc">1</property>
  <property name="meta.media.width">1920</property>
  <property name="meta.media.height">1080</property>
  <property name="meta.media.color_range">mpeg</property>
  <property name="kdenlive:id">28</property>
  <property name="kdenlive:file_size">466336077</property>
  <property name="kdenlive:file_hash">4dc5f3b0fa8feefa03ffde30fdaaf12b</property>
  <property name="kdenlive:audio_max">91</property>
  <property name="meta.media.top_field_first">0</property>
  <property name="meta.media.progressive">1</property>
  <property name="kdenlive:active_streams">-1</property>
  <property name="kdenlive:zone_in">2045</property>
  <property name="kdenlive:zone_out">2279</property>
  <property name="kdenlive:clipzones">[
    {
        "in": 609,
        "name": "Zone 1",
        "out": 876
    },
    {
        "in": 1254,
        "name": "Zone 2",
        "out": 1404
    },
    {
        "in": 2045,
        "name": "Zone 3",
        "out": 2279
    }
]
</property>
  <property name="global_feed">1</property>
 </producer>
 <producer id="producer27" in="00:00:00.000" out="00:01:30.000">
  <property name="length">2701</property>
  <property name="eof">pause</property>
  <property name="resource">/home/ryankelln/Documents/Projects/Active/Sound_Escapes/Mason/storyboard/the_night_is_young_124000_d3f121a8.mp4</property>
  <property name="audio_index">1</property>
  <property name="video_index">0</property>
  <property name="mute_on_pause">0</property>
  <property name="mlt_service">avformat-novalidate</property>
  <property name="meta.media.nb_streams">2</property>
  <property name="meta.media.0.stream.type">video</property>
  <property name="meta.media.0.stream.frame_rate">30</property>
  <property name="meta.media.0.stream.sample_aspect_ratio">0</property>
  <property name="meta.media.0.codec.width">512</property>
  <property name="meta.media.0.codec.height">512</property>
  <property name="meta.media.0.codec.rotate">0</property>
  <property name="meta.media.0.codec.frame_rate">30</property>
  <property name="meta.media.0.codec.pix_fmt">yuv420p</property>
  <property name="meta.media.0.codec.sample_aspect_ratio">0</property>
  <property name="meta.media.0.codec.colorspace">601</property>
  <property name="meta.media.0.codec.name">h264</property>
  <property name="meta.media.0.codec.long_name">H.264 / AVC / MPEG-4 AVC / MPEG-4 part 10</property>
  <property name="meta.media.0.codec.bit_rate">752930</property>
  <property name="meta.attr.0.stream.handler_name.markup">VideoHandler</property>
  <property name="meta.attr.0.stream.vendor_id.markup">[0][0][0][0]</property>
  <property name="meta.media.1.stream.type">audio</property>
  <property name="meta.media.1.codec.sample_fmt">fltp</property>
  <property name="meta.media.1.codec.sample_rate">48000</property>
  <property name="meta.media.1.codec.channels">2</property>
  <property name="meta.media.1.codec.name">aac</property>
  <property name="meta.media.1.codec.long_name">AAC (Advanced Audio Coding)</property>
  <property name="meta.media.1.codec.bit_rate">315283</property>
  <property name="meta.attr.1.stream.handler_name.markup">SoundHandler</property>
  <property name="meta.attr.1.stream.vendor_id.markup">[0][0][0][0]</property>
  <property name="meta.attr.major_brand.markup">isom</property>
  <property name="meta.attr.minor_version.markup">512</property>
  <property name="meta.attr.compatible_brands.markup">isomiso2avc1mp41</property>
  <property name="meta.attr.encoder.markup">Lavf58.29.100</property>
  <property name="seekable">1</property>
  <property name="meta.media.sample_aspect_num">1</property>
  <property name="meta.media.sample_aspect_den">1</property>
  <property name="aspect_ratio">1</property>
  <property name="kdenlive:clipname"/>
  <property name="kdenlive:folderid">60</property>
  <property name="meta.media.frame_rate_num">30</property>
  <property name="meta.media.frame_rate_den">1</property>
  <property name="meta.media.colorspace">601</property>
  <property name="meta.media.color_trc">2</property>
  <property name="meta.media.width">512</property>
  <property name="meta.media.height">512</property>
  <property name="meta.media.color_range">mpeg</property>
  <property name="kdenlive:id">29</property>
  <property name="kdenlive:file_size">12114559</property>
  <property name="kdenlive:file_hash">7b98c69b7c05695fa8f37ff12780e61e</property>
  <property name="kdenlive:audio_max">1</property>
  <property name="meta.media.top_field_first">0</property>
  <property name="meta.media.progressive">1</property>
  <property name="kdenlive:zone_in">1052</property>
  <property name="kdenlive:zone_out">1426</property>
  <property name="kdenlive:clipzones">[
    {
        "in": 1052,
        "name": "Zone 1",
        "out": 1426
    }
]
</property>
  <property name="global_feed">1</property>
  <property name="kdenlive:active_streams">-1</property>
 </producer>
 <producer id="producer28" in="00:00:00.000" out="00:02:01.967">
  <property name="length">3660</property>
  <property name="eof">pause</property>
  <property name="resource">/media/storage/media/Videos/mine/music_landscapes/2021-05-21/rehearsal1_Caleb_upright+closeup+hands_1.MP4</property>
  <property name="audio_index">1</property>
  <property name="video_index">0</property>
  <property name="mute_on_pause">0</property>
  <property name="mlt_service">avformat-novalidate</property>
  <property name="meta.media.nb_streams">3</property>
  <property name="meta.media.0.stream.type">video</property>
  <property name="meta.media.0.stream.frame_rate">24</property>
  <property name="meta.media.0.stream.sample_aspect_ratio">0</property>
  <property name="meta.media.0.codec.width">1920</property>
  <property name="meta.media.0.codec.height">1080</property>
  <property name="meta.media.0.codec.rotate">0</property>
  <property name="meta.media.0.codec.frame_rate">24</property>
  <property name="meta.media.0.codec.pix_fmt">yuv420p</property>
  <property name="meta.media.0.codec.sample_aspect_ratio">1</property>
  <property name="meta.media.0.codec.colorspace">709</property>
  <property name="meta.media.0.codec.color_trc">1</property>
  <property name="meta.media.0.codec.name">h264</property>
  <property name="meta.media.0.codec.long_name">H.264 / AVC / MPEG-4 AVC / MPEG-4 part 10</property>
  <property name="meta.media.0.codec.bit_rate">38383776</property>
  <property name="meta.attr.0.stream.creation_time.markup">2021-05-21T15:37:21.000000Z</property>
  <property name="meta.attr.0.stream.vendor_id.markup">[0][0][0][0]</property>
  <property name="meta.attr.0.stream.timecode.markup">10:02:24:03</property>
  <property name="meta.media.1.stream.type">audio</property>
  <property name="meta.media.1.codec.sample_fmt">s16</property>
  <property name="meta.media.1.codec.sample_rate">48000</property>
  <property name="meta.media.1.codec.channels">2</property>
  <property name="meta.media.1.codec.name">pcm_s16be</property>
  <property name="meta.media.1.codec.long_name">PCM signed 16-bit big-endian</property>
  <property name="meta.media.1.codec.bit_rate">1536000</property>
  <property name="meta.attr.1.stream.creation_time.markup">2021-05-21T15:37:21.000000Z</property>
  <property name="meta.attr.1.stream.vendor_id.markup">pana</property>
  <property name="meta.attr.1.stream.timecode.markup">10:02:24:03</property>
  <property name="meta.attr.major_brand.markup">mp42</property>
  <property name="meta.attr.minor_version.markup">1</property>
  <property name="meta.attr.compatible_brands.markup">mp42avc1</property>
  <property name="meta.attr.creation_time.markup">2021-05-21T15:37:21.000000Z</property>
  <property name="seekable">1</property>
  <property name="meta.media.sample_aspect_num">1</property>
  <property name="meta.media.sample_aspect_den">1</property>
  <property name="aspect_ratio">1</property>
  <property name="kdenlive:clipname"/>
  <property name="kdenlive:folderid">60</property>
  <property name="meta.media.frame_rate_num">24</property>
  <property name="meta.media.frame_rate_den">1</property>
  <property name="meta.media.colorspace">709</property>
  <property name="meta.media.color_trc">1</property>
  <property name="meta.media.width">1920</property>
  <property name="meta.media.height">1080</property>
  <property name="meta.media.color_range">mpeg</property>
  <property name="kdenlive:id">30</property>
  <property name="kdenlive:file_size">609050456</property>
  <property name="kdenlive:file_hash">84019eead71182496219a325f9129e2b</property>
  <property name="meta.media.top_field_first">0</property>
  <property name="meta.media.progressive">1</property>
  <property name="kdenlive:audio_max">91</property>
  <property name="kdenlive:active_streams">-1</property>
  <property name="kdenlive:zone_in">450</property>
  <property name="kdenlive:zone_out">3472</property>
  <property name="kdenlive:clipzones">[
    {
        "in": 450,
        "name": "Zone 1",
        "out": 3472
    }
]
</property>
  <property name="kdenlive:thumbnailFrame">654</property>
  <property name="global_feed">1</property>
 </producer>
 <producer id="producer29" in="00:00:00.000" out="00:02:30.967">
  <property name="length">4530</property>
  <property name="eof">pause</property>
  <property name="resource">/media/storage/media/Videos/mine/music_landscapes/2021-05-21/Chris/rehearsal1_Chris_piano+closeup_1.MP4</property>
  <property name="audio_index">1</property>
  <property name="video_index">0</property>
  <property name="mute_on_pause">0</property>
  <property name="mlt_service">avformat-novalidate</property>
  <property name="meta.media.nb_streams">3</property>
  <property name="meta.media.0.stream.type">video</property>
  <property name="meta.media.0.stream.frame_rate">24</property>
  <property name="meta.media.0.stream.sample_aspect_ratio">0</property>
  <property name="meta.media.0.codec.width">1920</property>
  <property name="meta.media.0.codec.height">1080</property>
  <property name="meta.media.0.codec.rotate">0</property>
  <property name="meta.media.0.codec.frame_rate">24</property>
  <property name="meta.media.0.codec.pix_fmt">yuv420p</property>
  <property name="meta.media.0.codec.sample_aspect_ratio">1</property>
  <property name="meta.media.0.codec.colorspace">709</property>
  <property name="meta.media.0.codec.color_trc">1</property>
  <property name="meta.media.0.codec.name">h264</property>
  <property name="meta.media.0.codec.long_name">H.264 / AVC / MPEG-4 AVC / MPEG-4 part 10</property>
  <property name="meta.media.0.codec.bit_rate">38416309</property>
  <property name="meta.attr.0.stream.creation_time.markup">2021-05-21T14:18:36.000000Z</property>
  <property name="meta.attr.0.stream.vendor_id.markup">[0][0][0][0]</property>
  <property name="meta.attr.0.stream.timecode.markup">09:41:52:03</property>
  <property name="meta.media.1.stream.type">audio</property>
  <property name="meta.media.1.codec.sample_fmt">s16</property>
  <property name="meta.media.1.codec.sample_rate">48000</property>
  <property name="meta.media.1.codec.channels">2</property>
  <property name="meta.media.1.codec.name">pcm_s16be</property>
  <property name="meta.media.1.codec.long_name">PCM signed 16-bit big-endian</property>
  <property name="meta.media.1.codec.bit_rate">1536000</property>
  <property name="meta.attr.1.stream.creation_time.markup">2021-05-21T14:18:36.000000Z</property>
  <property name="meta.attr.1.stream.vendor_id.markup">pana</property>
  <property name="meta.attr.1.stream.timecode.markup">09:41:52:03</property>
  <property name="meta.attr.major_brand.markup">mp42</property>
  <property name="meta.attr.minor_version.markup">1</property>
  <property name="meta.attr.compatible_brands.markup">mp42avc1</property>
  <property name="meta.attr.creation_time.markup">2021-05-21T14:18:36.000000Z</property>
  <property name="seekable">1</property>
  <property name="meta.media.sample_aspect_num">1</property>
  <property name="meta.media.sample_aspect_den">1</property>
  <property name="aspect_ratio">1</property>
  <property name="kdenlive:clipname"/>
  <property name="kdenlive:folderid">60</property>
  <property name="meta.media.frame_rate_num">24</property>
  <property name="meta.media.frame_rate_den">1</property>
  <property name="meta.media.colorspace">709</property>
  <property name="meta.media.color_trc">1</property>
  <property name="meta.media.width">1920</property>
  <property name="meta.media.height">1080</property>
  <property name="meta.media.color_range">mpeg</property>
  <property name="kdenlive:id">31</property>
  <property name="kdenlive:file_size">754376497</property>
  <property name="kdenlive:file_hash">ebb520600d0ca9a45fef1d206a2456fb</property>
  <property name="kdenlive:audio_max">91</property>
  <property name="meta.media.top_field_first">0</property>
  <property name="meta.media.progressive">1</property>
  <property name="kdenlive:zone_in">1186</property>
  <property name="kdenlive:zone_out">1754</property>
  <property name="kdenlive:clipzones">[
    {
        "in": 1186,
        "name": "Zone 1",
        "out": 1754
    }
]
</property>
  <property name="kdenlive:active_streams">-1</property>
  <property name="global_feed">1</property>
 </producer>
 <producer id="producer30" in="00:00:00.000" out="00:00:29.967">
  <property name="length">900</property>
  <property name="eof">pause</property>
  <property name="resource">/home/ryankelln/Documents/Projects/Active/Sound_Escapes/Mason/storyboard/ReReVST-nebula_redtwinkle-inputs_no-global.avi</property>
  <property name="audio_index">-1</property>
  <property name="video_index">0</property>
  <property name="mute_on_pause">0</property>
  <property name="mlt_service">avformat-novalidate</property>
  <property name="meta.media.nb_streams">1</property>
  <property name="meta.media.0.stream.type">video</property>
  <property name="meta.media.0.stream.frame_rate">30</property>
  <property name="meta.media.0.stream.sample_aspect_ratio">0</property>
  <property name="meta.media.0.codec.width">800</property>
  <property name="meta.media.0.codec.height">600</property>
  <property name="meta.media.0.codec.rotate">0</property>
  <property name="meta.media.0.codec.frame_rate">30</property>
  <property name="meta.media.0.codec.pix_fmt">yuvj420p</property>
  <property name="meta.media.0.codec.sample_aspect_ratio">0</property>
  <property name="meta.media.0.codec.colorspace">601</property>
  <property name="meta.media.0.codec.name">mjpeg</property>
  <property name="meta.media.0.codec.long_name">MJPEG (Motion JPEG)</property>
  <property name="meta.media.0.codec.bit_rate">14422949</property>
  <property name="meta.attr.software.markup">Lavf58.61.100</property>
  <property name="seekable">1</property>
  <property name="meta.media.sample_aspect_num">1</property>
  <property name="meta.media.sample_aspect_den">1</property>
  <property name="aspect_ratio">1</property>
  <property name="kdenlive:clipname"/>
  <property name="kdenlive:folderid">60</property>
  <property name="meta.media.frame_rate_num">30</property>
  <property name="meta.media.frame_rate_den">1</property>
  <property name="meta.media.colorspace">601</property>
  <property name="meta.media.color_trc">2</property>
  <property name="meta.media.width">800</property>
  <property name="meta.media.height">600</property>
  <property name="meta.media.color_range">full</property>
  <property name="kdenlive:id">32</property>
  <property name="kdenlive:file_size">54056014</property>
  <property name="kdenlive:file_hash">d8064df5743a5c55b4f2e3024154ca6b</property>
  <property name="meta.media.top_field_first">0</property>
  <property name="meta.media.progressive">1</property>
  <property name="global_feed">1</property>
  <property name="meta.attr.encoder.markup">Lavf58.61.100</property>
 </producer>
 <producer id="producer33" in="00:00:00.000" out="00:05:55.833">
  <property name="length">10676</property>
  <property name="eof">pause</property>
  <property name="resource">/home/ryankelln/.cache/kdenlive/proxy/e04a53890a9bbd6f1a6a8a79116ca1de.mkv</property>
  <property name="audio_index">1</property>
  <property name="video_index">0</property>
  <property name="mute_on_pause">0</property>
  <property name="mlt_service">avformat-novalidate</property>
  <property name="seekable">1</property>
  <property name="aspect_ratio">1</property>
  <property name="kdenlive:clipname">rehearsal2_Chris_piano+gs+4k_1_mason.MP4</property>
  <property name="kdenlive:folderid">60</property>
  <property name="kdenlive:id">33</property>
  <property name="kdenlive:file_size">4266835142</property>
  <property name="kdenlive:file_hash">e04a53890a9bbd6f1a6a8a79116ca1de</property>
  <property name="kdenlive:audio_max">1</property>
  <property name="kdenlive:zone_in">1194</property>
  <property name="kdenlive:zone_out">1823</property>
  <property name="kdenlive:clipzones">[
    {
        "in": 1194,
        "name": "Zone 1",
        "out": 1823
    }
]
</property>
  <property name="kdenlive:active_streams">-1</property>
  <property name="global_feed">1</property>
  <property name="kdenlive:proxy">/home/ryankelln/.cache/kdenlive/proxy/e04a53890a9bbd6f1a6a8a79116ca1de.mkv</property>
  <property name="kdenlive:originalurl">/media/storage/media/Videos/mine/music_landscapes/2021-05-30/rehearsal2_Chris_piano+gs+4k_1_mason.MP4</property>
  <property name="kdenlive:original.mlt_type">producer</property>
  <property name="kdenlive:original.in">00:00:00.000</property>
  <property name="kdenlive:original.out">00:05:55.833</property>
  <property name="kdenlive:original.length">10676</property>
  <property name="kdenlive:original.eof">pause</property>
  <property name="kdenlive:original.resource">/media/storage/media/Videos/mine/music_landscapes/2021-05-30/rehearsal2_Chris_piano+gs+4k_1_mason.MP4</property>
  <property name="kdenlive:original.audio_index">1</property>
  <property name="kdenlive:original.video_index">0</property>
  <property name="kdenlive:original.mute_on_pause">0</property>
  <property name="kdenlive:original.mlt_service">avformat-novalidate</property>
  <property name="kdenlive:original.id">producer31</property>
  <property name="kdenlive:original.meta.media.nb_streams">2</property>
  <property name="kdenlive:original.meta.media.0.stream.type">video</property>
  <property name="kdenlive:original.meta.media.0.stream.frame_rate">29.97</property>
  <property name="kdenlive:original.meta.media.0.stream.sample_aspect_ratio">0</property>
  <property name="kdenlive:original.meta.media.0.codec.width">3840</property>
  <property name="kdenlive:original.meta.media.0.codec.height">2160</property>
  <property name="kdenlive:original.meta.media.0.codec.rotate">0</property>
  <property name="kdenlive:original.meta.media.0.codec.frame_rate">29.97</property>
  <property name="kdenlive:original.meta.media.0.codec.pix_fmt">yuvj420p</property>
  <property name="kdenlive:original.meta.media.0.codec.sample_aspect_ratio">1</property>
  <property name="kdenlive:original.meta.media.0.codec.colorspace">709</property>
  <property name="kdenlive:original.meta.media.0.codec.color_trc">1</property>
  <property name="kdenlive:original.meta.media.0.codec.name">h264</property>
  <property name="kdenlive:original.meta.media.0.codec.long_name">H.264 / AVC / MPEG-4 AVC / MPEG-4 part 10</property>
  <property name="kdenlive:original.meta.media.0.codec.bit_rate">95788669</property>
  <property name="kdenlive:original.meta.attr.0.stream.creation_time.markup">2021-05-30T16:41:39.000000Z</property>
  <property name="kdenlive:original.meta.attr.0.stream.vendor_id.markup">[0][0][0][0]</property>
  <property name="kdenlive:original.meta.media.1.stream.type">audio</property>
  <property name="kdenlive:original.meta.media.1.codec.sample_fmt">fltp</property>
  <property name="kdenlive:original.meta.media.1.codec.sample_rate">48000</property>
  <property name="kdenlive:original.meta.media.1.codec.channels">2</property>
  <property name="kdenlive:original.meta.media.1.codec.name">aac</property>
  <property name="kdenlive:original.meta.media.1.codec.long_name">AAC (Advanced Audio Coding)</property>
  <property name="kdenlive:original.meta.media.1.codec.bit_rate">125358</property>
  <property name="kdenlive:original.meta.attr.1.stream.creation_time.markup">2021-05-30T16:41:39.000000Z</property>
  <property name="kdenlive:original.meta.attr.1.stream.vendor_id.markup">[0][0][0][0]</property>
  <property name="kdenlive:original.meta.attr.major_brand.markup">mp42</property>
  <property name="kdenlive:original.meta.attr.minor_version.markup">1</property>
  <property name="kdenlive:original.meta.attr.compatible_brands.markup">mp42avc1</property>
  <property name="kdenlive:original.meta.attr.creation_time.markup">2021-05-30T16:41:39.000000Z</property>
  <property name="kdenlive:original.seekable">1</property>
  <property name="kdenlive:original.meta.media.sample_aspect_num">1</property>
  <property name="kdenlive:original.meta.media.sample_aspect_den">1</property>
  <property name="kdenlive:original.aspect_ratio">1</property>
  <property name="kdenlive:original.kdenlive:folderid">60</property>
  <property name="kdenlive:original.meta.media.frame_rate_num">30000</property>
  <property name="kdenlive:original.meta.media.frame_rate_den">1001</property>
  <property name="kdenlive:original.meta.media.colorspace">709</property>
  <property name="kdenlive:original.meta.media.color_trc">1</property>
  <property name="kdenlive:original.meta.media.width">3840</property>
  <property name="kdenlive:original.meta.media.height">2160</property>
  <property name="kdenlive:original.meta.media.color_range">full</property>
  <property name="kdenlive:original.kdenlive:id">35</property>
  <property name="kdenlive:original.kdenlive:file_size">4266835142</property>
  <property name="kdenlive:original.kdenlive:file_hash">e04a53890a9bbd6f1a6a8a79116ca1de</property>
  <property name="kdenlive:original.meta.media.top_field_first">0</property>
  <property name="kdenlive:original.meta.media.progressive">1</property>
  <property name="kdenlive:original.kdenlive:audio_max">1</property>
  <property name="kdenlive:original.kdenlive:zone_in">1194</property>
  <property name="kdenlive:original.kdenlive:zone_out">1823</property>
  <property name="kdenlive:original.kdenlive:clipzones">[
    {
        "in": 1194,
        "name": "Zone 1",
        "out": 1823
    }
]
</property>
  <property name="kdenlive:original.kdenlive:active_streams">-1</property>
  <property name="kdenlive:original.global_feed">1</property>
  <property name="kdenlive:original.width">3840</property>
  <property name="kdenlive:original.height">2160</property>
  <property name="kdenlive:original.backup">1</property>
  <property name="meta.media.nb_streams">2</property>
  <property name="meta.media.0.stream.type">video</property>
  <property name="meta.media.0.stream.frame_rate">29.97</property>
  <property name="meta.media.0.stream.sample_aspect_ratio">1</property>
  <property name="meta.media.0.codec.width">640</property>
  <property name="meta.media.0.codec.height">360</property>
  <property name="meta.media.0.codec.rotate">0</property>
  <property name="meta.media.0.codec.frame_rate">1000</property>
  <property name="meta.media.0.codec.pix_fmt">yuvj420p</property>
  <property name="meta.media.0.codec.sample_aspect_ratio">1</property>
  <property name="meta.media.0.codec.colorspace">601</property>
  <property name="meta.media.0.codec.name">mjpeg</property>
  <property name="meta.media.0.codec.long_name">MJPEG (Motion JPEG)</property>
  <property name="meta.media.0.codec.bit_rate">0</property>
  <property name="meta.attr.0.stream.ENCODER.markup">Lavc58.91.100 mjpeg</property>
  <property name="meta.attr.0.stream.DURATION.markup">00:05:55.855000000</property>
  <property name="meta.media.1.stream.type">audio</property>
  <property name="meta.media.1.codec.sample_fmt">s16</property>
  <property name="meta.media.1.codec.sample_rate">48000</property>
  <property name="meta.media.1.codec.channels">2</property>
  <property name="meta.media.1.codec.name">pcm_s16le</property>
  <property name="meta.media.1.codec.long_name">PCM signed 16-bit little-endian</property>
  <property name="meta.media.1.codec.bit_rate">1536000</property>
  <property name="meta.attr.1.stream.ENCODER.markup">Lavc58.91.100 pcm_s16le</property>
  <property name="meta.attr.1.stream.DURATION.markup">00:05:55.861000000</property>
  <property name="meta.attr.COMPATIBLE_BRANDS.markup">mp42avc1</property>
  <property name="meta.attr.MAJOR_BRAND.markup">mp42</property>
  <property name="meta.attr.MINOR_VERSION.markup">1</property>
  <property name="meta.attr.ENCODER.markup">Lavf58.45.100</property>
  <property name="meta.media.sample_aspect_num">1</property>
  <property name="meta.media.sample_aspect_den">1</property>
  <property name="meta.media.frame_rate_num">30000</property>
  <property name="meta.media.frame_rate_den">1001</property>
  <property name="meta.media.colorspace">601</property>
  <property name="meta.media.color_trc">2</property>
  <property name="meta.media.width">640</property>
  <property name="meta.media.height">360</property>
  <property name="meta.media.color_range">full</property>
 </producer>
 <producer id="producer15" in="00:00:00.000" out="00:05:57.567">
  <property name="length">10728</property>
  <property name="eof">pause</property>
  <property name="resource">content/musicians/2021-06-02_Sarah_kit_mason_00043-take3_full.mp4</property>
  <property name="audio_index">1</property>
  <property name="video_index">0</property>
  <property name="mute_on_pause">0</property>
  <property name="mlt_service">avformat-novalidate</property>
  <property name="meta.media.nb_streams">2</property>
  <property name="meta.media.0.stream.type">video</property>
  <property name="meta.media.0.stream.frame_rate">59.9401</property>
  <property name="meta.media.0.stream.sample_aspect_ratio">1.33333</property>
  <property name="meta.media.0.codec.width">1440</property>
  <property name="meta.media.0.codec.height">1080</property>
  <property name="meta.media.0.codec.rotate">0</property>
  <property name="meta.media.0.codec.frame_rate">29.97</property>
  <property name="meta.media.0.codec.pix_fmt">yuv420p</property>
  <property name="meta.media.0.codec.sample_aspect_ratio">1.33333</property>
  <property name="meta.media.0.codec.colorspace">709</property>
  <property name="meta.media.0.codec.name">h264</property>
  <property name="meta.media.0.codec.long_name">H.264 / AVC / MPEG-4 AVC / MPEG-4 part 10</property>
  <property name="meta.media.0.codec.bit_rate">6690340</property>
  <property name="meta.attr.0.stream.handler_name.markup">VideoHandler</property>
  <property name="meta.media.1.stream.type">audio</property>
  <property name="meta.media.1.codec.sample_fmt">fltp</property>
  <property name="meta.media.1.codec.sample_rate">48000</property>
  <property name="meta.media.1.codec.channels">2</property>
  <property name="meta.media.1.codec.name">ac3</property>
  <property name="meta.media.1.codec.long_name">ATSC A/52A (AC-3)</property>
  <property name="meta.media.1.codec.bit_rate">256000</property>
  <property name="meta.attr.1.stream.handler_name.markup">SoundHandler</property>
  <property name="meta.attr.major_brand.markup">isom</property>
  <property name="meta.attr.minor_version.markup">512</property>
  <property name="meta.attr.compatible_brands.markup">isomiso2avc1mp41</property>
  <property name="meta.attr.encoder.markup">Lavf58.45.100</property>
  <property name="seekable">1</property>
  <property name="meta.media.sample_aspect_num">4</property>
  <property name="meta.media.sample_aspect_den">3</property>
  <property name="aspect_ratio">1.33333</property>
  <property name="kdenlive:clipname"/>
  <property name="kdenlive:folderid">61</property>
  <property name="meta.media.frame_rate_num">60000</property>
  <property name="meta.media.frame_rate_den">1001</property>
  <property name="meta.media.colorspace">709</property>
  <property name="meta.media.color_trc">2</property>
  <property name="meta.media.width">1440</property>
  <property name="meta.media.height">1080</property>
  <property name="meta.media.color_range">mpeg</property>
  <property name="kdenlive:id">34</property>
  <property name="kdenlive:file_size">310672107</property>
  <property name="kdenlive:file_hash">cee82f7ce57e228a427bb670ee788837</property>
  <property name="kdenlive:audio_max">1</property>
  <property name="meta.media.top_field_first">1</property>
  <property name="meta.media.progressive">0</property>
  <property name="global_feed">1</property>
 </producer>
 <producer id="producer18" in="00:00:00.000" out="00:06:01.833">
  <property name="length">10856</property>
  <property name="eof">pause</property>
  <property name="resource">20210602_SpectrumMusic-SoundEscapes-Mason EDIT1.wav</property>
  <property name="meta.media.nb_streams">1</property>
  <property name="meta.media.0.stream.type">audio</property>
  <property name="meta.media.0.codec.sample_fmt">s32</property>
  <property name="meta.media.0.codec.sample_rate">48000</property>
  <property name="meta.media.0.codec.channels">2</property>
  <property name="meta.media.0.codec.name">pcm_s24le</property>
  <property name="meta.media.0.codec.long_name">PCM signed 24-bit little-endian</property>
  <property name="meta.media.0.codec.bit_rate">2304000</property>
  <property name="meta.attr.encoded_by.markup">Pro Tools</property>
  <property name="meta.attr.originator_reference.markup">aui8NpPLuoRk</property>
  <property name="meta.attr.date.markup">2021-06-11</property>
  <property name="meta.attr.creation_time.markup">12:50:08</property>
  <property name="meta.attr.time_reference.markup">196875494</property>
  <property name="meta.attr.umid.markup">0x060A2B340101010501010F1013000000B3949693E7F08500A5A0005056C00001</property>
  <property name="seekable">1</property>
  <property name="audio_index">0</property>
  <property name="video_index">-1</property>
  <property name="mute_on_pause">1</property>
  <property name="mlt_service">avformat</property>
  <property name="kdenlive:clipname"/>
  <property name="kdenlive:folderid">-1</property>
  <property name="kdenlive:id">35</property>
  <property name="kdenlive:file_size">104768830</property>
  <property name="kdenlive:file_hash">cccd4497726beb689f9b56120d2be611</property>
  <property name="kdenlive:audio_max">1</property>
  <property name="global_feed">1</property>
 </producer>
 <producer id="producer34" in="00:00:00.000" out="00:00:32.600">
  <property name="length">979</property>
  <property name="eof">pause</property>
  <property name="resource">/home/ryankelln/.cache/kdenlive/proxy/81434f20c2ca82b06e699a6fe6d83b7d.mkv</property>
  <property name="audio_index">1</property>
  <property name="video_index">0</property>
  <property name="mute_on_pause">0</property>
  <property name="mlt_service">avformat-novalidate</property>
  <property name="seekable">1</property>
  <property name="aspect_ratio">1</property>
  <property name="kdenlive:clipname">2021-06-02_Caleb_upright+handheld_mason_MVI_6006-pickup_ending.mkv</property>
  <property name="kdenlive:folderid">61</property>
  <property name="kdenlive:id">36</property>
  <property name="kdenlive:file_size">192086250</property>
  <property name="kdenlive:file_hash">81434f20c2ca82b06e699a6fe6d83b7d</property>
  <property name="kdenlive:proxy">/home/ryankelln/.cache/kdenlive/proxy/81434f20c2ca82b06e699a6fe6d83b7d.mkv</property>
  <property name="kdenlive:originalurl">content/musicians/2021-06-02_Caleb_upright+handheld_mason_MVI_6006-pickup_ending.mkv</property>
  <property name="kdenlive:original.mlt_type">producer</property>
  <property name="kdenlive:original.in">0</property>
  <property name="kdenlive:original.out">978</property>
  <property name="kdenlive:original.length">979</property>
  <property name="kdenlive:original.eof">pause</property>
  <property name="kdenlive:original.resource">content/musicians/2021-06-02_Caleb_upright+handheld_mason_MVI_6006-pickup_ending.mkv</property>
  <property name="kdenlive:original.meta.media.nb_streams">2</property>
  <property name="kdenlive:original.meta.media.0.stream.type">video</property>
  <property name="kdenlive:original.meta.media.0.stream.frame_rate">29.97</property>
  <property name="kdenlive:original.meta.media.0.stream.sample_aspect_ratio">0</property>
  <property name="kdenlive:original.meta.media.0.codec.width">1920</property>
  <property name="kdenlive:original.meta.media.0.codec.height">1080</property>
  <property name="kdenlive:original.meta.media.0.codec.rotate">0</property>
  <property name="kdenlive:original.meta.media.0.codec.frame_rate">1000</property>
  <property name="kdenlive:original.meta.media.0.codec.pix_fmt">yuvj420p</property>
  <property name="kdenlive:original.meta.media.0.codec.sample_aspect_ratio">0</property>
  <property name="kdenlive:original.meta.media.0.codec.colorspace">601</property>
  <property name="kdenlive:original.meta.media.0.codec.color_trc">1</property>
  <property name="kdenlive:original.meta.media.0.codec.name">h264</property>
  <property name="kdenlive:original.meta.media.0.codec.long_name">H.264 / AVC / MPEG-4 AVC / MPEG-4 part 10</property>
  <property name="kdenlive:original.meta.media.0.codec.bit_rate">0</property>
  <property name="kdenlive:original.meta.attr.0.stream.language.markup">eng</property>
  <property name="kdenlive:original.meta.attr.0.stream.DURATION.markup">00:00:32.632000000</property>
  <property name="kdenlive:original.meta.media.1.stream.type">audio</property>
  <property name="kdenlive:original.meta.media.1.codec.sample_fmt">s16</property>
  <property name="kdenlive:original.meta.media.1.codec.sample_rate">48000</property>
  <property name="kdenlive:original.meta.media.1.codec.channels">2</property>
  <property name="kdenlive:original.meta.media.1.codec.name">pcm_s16le</property>
  <property name="kdenlive:original.meta.media.1.codec.long_name">PCM signed 16-bit little-endian</property>
  <property name="kdenlive:original.meta.media.1.codec.bit_rate">1536000</property>
  <property name="kdenlive:original.meta.attr.1.stream.language.markup">eng</property>
  <property name="kdenlive:original.meta.attr.1.stream.DURATION.markup">00:00:32.632000000</property>
  <property name="kdenlive:original.meta.attr.COMPATIBLE_BRANDS.markup">qt  CAEP</property>
  <property name="kdenlive:original.meta.attr.creation_time.markup">2021-06-02T16:43:55.000000Z</property>
  <property name="kdenlive:original.meta.attr.MAJOR_BRAND.markup">qt  </property>
  <property name="kdenlive:original.meta.attr.MINOR_VERSION.markup">537331968</property>
  <property name="kdenlive:original.meta.attr.ENCODER.markup">Lavf58.45.100</property>
  <property name="kdenlive:original.seekable">1</property>
  <property name="kdenlive:original.width">1920</property>
  <property name="kdenlive:original.height">1080</property>
  <property name="kdenlive:original.meta.media.sample_aspect_num">1</property>
  <property name="kdenlive:original.meta.media.sample_aspect_den">1</property>
  <property name="kdenlive:original.aspect_ratio">1</property>
  <property name="kdenlive:original.audio_index">1</property>
  <property name="kdenlive:original.video_index">0</property>
  <property name="kdenlive:original.mute_on_pause">0</property>
  <property name="kdenlive:original.mlt_service">avformat-novalidate</property>
  <property name="kdenlive:original.kdenlive:folderid">61</property>
  <property name="kdenlive:original.meta.media.frame_rate_num">30000</property>
  <property name="kdenlive:original.meta.media.frame_rate_den">1001</property>
  <property name="kdenlive:original.meta.media.colorspace">601</property>
  <property name="kdenlive:original.meta.media.color_trc">1</property>
  <property name="kdenlive:original.meta.media.width">1920</property>
  <property name="kdenlive:original.meta.media.height">1080</property>
  <property name="kdenlive:original.meta.media.color_range">full</property>
  <property name="kdenlive:original.kdenlive:id">64</property>
  <property name="kdenlive:original.kdenlive:file_size">192086250</property>
  <property name="kdenlive:original.kdenlive:file_hash">81434f20c2ca82b06e699a6fe6d83b7d</property>
  <property name="kdenlive:original.backup">1</property>
  <property name="kdenlive:audio_max">1</property>
  <property name="global_feed">1</property>
  <property name="meta.media.nb_streams">2</property>
  <property name="meta.media.0.stream.type">video</property>
  <property name="meta.media.0.stream.frame_rate">29.97</property>
  <property name="meta.media.0.stream.sample_aspect_ratio">0</property>
  <property name="meta.media.0.codec.width">640</property>
  <property name="meta.media.0.codec.height">360</property>
  <property name="meta.media.0.codec.rotate">0</property>
  <property name="meta.media.0.codec.frame_rate">1000</property>
  <property name="meta.media.0.codec.pix_fmt">yuvj420p</property>
  <property name="meta.media.0.codec.sample_aspect_ratio">0</property>
  <property name="meta.media.0.codec.colorspace">601</property>
  <property name="meta.media.0.codec.name">mjpeg</property>
  <property name="meta.media.0.codec.long_name">MJPEG (Motion JPEG)</property>
  <property name="meta.media.0.codec.bit_rate">0</property>
  <property name="meta.attr.0.stream.language.markup">eng</property>
  <property name="meta.attr.0.stream.ENCODER.markup">Lavc58.91.100 mjpeg</property>
  <property name="meta.attr.0.stream.DURATION.markup">00:00:32.632000000</property>
  <property name="meta.media.1.stream.type">audio</property>
  <property name="meta.media.1.codec.sample_fmt">s16</property>
  <property name="meta.media.1.codec.sample_rate">48000</property>
  <property name="meta.media.1.codec.channels">2</property>
  <property name="meta.media.1.codec.name">pcm_s16le</property>
  <property name="meta.media.1.codec.long_name">PCM signed 16-bit little-endian</property>
  <property name="meta.media.1.codec.bit_rate">1536000</property>
  <property name="meta.attr.1.stream.language.markup">eng</property>
  <property name="meta.attr.1.stream.ENCODER.markup">Lavc58.91.100 pcm_s16le</property>
  <property name="meta.attr.1.stream.DURATION.markup">00:00:32.632000000</property>
  <property name="meta.attr.MAJOR_BRAND.markup">qt  </property>
  <property name="meta.attr.COMPATIBLE_BRANDS.markup">qt  CAEP</property>
  <property name="meta.attr.MINOR_VERSION.markup">537331968</property>
  <property name="meta.attr.ENCODER.markup">Lavf58.45.100</property>
  <property name="meta.media.sample_aspect_num">1</property>
  <property name="meta.media.sample_aspect_den">1</property>
  <property name="meta.media.frame_rate_num">30000</property>
  <property name="meta.media.frame_rate_den">1001</property>
  <property name="meta.media.colorspace">601</property>
  <property name="meta.media.color_trc">2</property>
  <property name="meta.media.width">640</property>
  <property name="meta.media.height">360</property>
  <property name="meta.media.color_range">full</property>
  <property name="meta.media.top_field_first">0</property>
  <property name="meta.media.progressive">1</property>
 </producer>
 <producer id="producer36" in="00:00:00.000" out="00:02:03.500">
  <property name="length">3706</property>
  <property name="eof">pause</property>
  <property name="resource">content/musicians/2021-02-06_Caleb+Chris_upright+piano+handheld_mason_MVI_6035-unknown_take_caleb_solo.mkv</property>
  <property name="audio_index">1</property>
  <property name="video_index">0</property>
  <property name="mute_on_pause">0</property>
  <property name="mlt_service">avformat-novalidate</property>
  <property name="meta.media.nb_streams">2</property>
  <property name="meta.media.0.stream.type">video</property>
  <property name="meta.media.0.stream.frame_rate">29.97</property>
  <property name="meta.media.0.stream.sample_aspect_ratio">0</property>
  <property name="meta.media.0.codec.width">1280</property>
  <property name="meta.media.0.codec.height">720</property>
  <property name="meta.media.0.codec.rotate">0</property>
  <property name="meta.media.0.codec.frame_rate">1000</property>
  <property name="meta.media.0.codec.pix_fmt">yuvj420p</property>
  <property name="meta.media.0.codec.sample_aspect_ratio">0</property>
  <property name="meta.media.0.codec.colorspace">601</property>
  <property name="meta.media.0.codec.color_trc">1</property>
  <property name="meta.media.0.codec.name">h264</property>
  <property name="meta.media.0.codec.long_name">H.264 / AVC / MPEG-4 AVC / MPEG-4 part 10</property>
  <property name="meta.media.0.codec.bit_rate">0</property>
  <property name="meta.attr.0.stream.language.markup">eng</property>
  <property name="meta.attr.0.stream.DURATION.markup">00:02:03.533000000</property>
  <property name="meta.media.1.stream.type">audio</property>
  <property name="meta.media.1.codec.sample_fmt">s16</property>
  <property name="meta.media.1.codec.sample_rate">48000</property>
  <property name="meta.media.1.codec.channels">1</property>
  <property name="meta.media.1.codec.name">pcm_s16le</property>
  <property name="meta.media.1.codec.long_name">PCM signed 16-bit little-endian</property>
  <property name="meta.media.1.codec.bit_rate">768000</property>
  <property name="meta.attr.1.stream.language.markup">eng</property>
  <property name="meta.attr.1.stream.DURATION.markup">00:02:03.528000000</property>
  <property name="meta.attr.COMPATIBLE_BRANDS.markup">qt  CAEP</property>
  <property name="meta.attr.creation_time.markup">2021-06-02T13:27:47.000000Z</property>
  <property name="meta.attr.MAJOR_BRAND.markup">qt  </property>
  <property name="meta.attr.MINOR_VERSION.markup">537331968</property>
  <property name="meta.attr.ENCODER.markup">Lavf58.45.100</property>
  <property name="seekable">1</property>
  <property name="meta.media.sample_aspect_num">1</property>
  <property name="meta.media.sample_aspect_den">1</property>
  <property name="aspect_ratio">1</property>
  <property name="kdenlive:clipname"/>
  <property name="kdenlive:folderid">61</property>
  <property name="meta.media.frame_rate_num">30000</property>
  <property name="meta.media.frame_rate_den">1001</property>
  <property name="meta.media.colorspace">601</property>
  <property name="meta.media.color_trc">1</property>
  <property name="meta.media.width">1280</property>
  <property name="meta.media.height">720</property>
  <property name="meta.media.color_range">full</property>
  <property name="kdenlive:id">37</property>
  <property name="kdenlive:file_size">490094303</property>
  <property name="kdenlive:file_hash">7cead30a647edc7378188945fb11135f</property>
  <property name="kdenlive:audio_max">1</property>
 </producer>
 <producer id="producer35" in="00:00:00.000" out="00:00:39.600">
  <property name="length">1189</property>
  <property name="eof">pause</property>
  <property name="resource">content/musicians/2021-02-06_Caleb+Chris_upright+piano+handheld_mason_MVI_6035-unknown_take_chris.mkv</property>
  <property name="audio_index">1</property>
  <property name="video_index">0</property>
  <property name="mute_on_pause">0</property>
  <property name="mlt_service">avformat-novalidate</property>
  <property name="meta.media.nb_streams">2</property>
  <property name="meta.media.0.stream.type">video</property>
  <property name="meta.media.0.stream.frame_rate">29.97</property>
  <property name="meta.media.0.stream.sample_aspect_ratio">0</property>
  <property name="meta.media.0.codec.width">1280</property>
  <property name="meta.media.0.codec.height">720</property>
  <property name="meta.media.0.codec.rotate">0</property>
  <property name="meta.media.0.codec.frame_rate">1000</property>
  <property name="meta.media.0.codec.pix_fmt">yuvj420p</property>
  <property name="meta.media.0.codec.sample_aspect_ratio">0</property>
  <property name="meta.media.0.codec.colorspace">601</property>
  <property name="meta.media.0.codec.color_trc">1</property>
  <property name="meta.media.0.codec.name">h264</property>
  <property name="meta.media.0.codec.long_name">H.264 / AVC / MPEG-4 AVC / MPEG-4 part 10</property>
  <property name="meta.media.0.codec.bit_rate">0</property>
  <property name="meta.attr.0.stream.language.markup">eng</property>
  <property name="meta.attr.0.stream.DURATION.markup">00:00:39.639000000</property>
  <property name="meta.media.1.stream.type">audio</property>
  <property name="meta.media.1.codec.sample_fmt">s16</property>
  <property name="meta.media.1.codec.sample_rate">48000</property>
  <property name="meta.media.1.codec.channels">1</property>
  <property name="meta.media.1.codec.name">pcm_s16le</property>
  <property name="meta.media.1.codec.long_name">PCM signed 16-bit little-endian</property>
  <property name="meta.media.1.codec.bit_rate">768000</property>
  <property name="meta.attr.1.stream.language.markup">eng</property>
  <property name="meta.attr.1.stream.DURATION.markup">00:00:39.636000000</property>
  <property name="meta.attr.COMPATIBLE_BRANDS.markup">qt  CAEP</property>
  <property name="meta.attr.creation_time.markup">2021-06-02T13:27:47.000000Z</property>
  <property name="meta.attr.MAJOR_BRAND.markup">qt  </property>
  <property name="meta.attr.MINOR_VERSION.markup">537331968</property>
  <property name="meta.attr.ENCODER.markup">Lavf58.45.100</property>
  <property name="seekable">1</property>
  <property name="meta.media.sample_aspect_num">1</property>
  <property name="meta.media.sample_aspect_den">1</property>
  <property name="aspect_ratio">1</property>
  <property name="kdenlive:clipname"/>
  <property name="kdenlive:folderid">61</property>
  <property name="meta.media.frame_rate_num">30000</property>
  <property name="meta.media.frame_rate_den">1001</property>
  <property name="meta.media.colorspace">601</property>
  <property name="meta.media.color_trc">1</property>
  <property name="meta.media.width">1280</property>
  <property name="meta.media.height">720</property>
  <property name="meta.media.color_range">full</property>
  <property name="kdenlive:id">38</property>
  <property name="kdenlive:file_size">158009166</property>
  <property name="kdenlive:file_hash">c1ca34fc4f96f694f4f6c31a708ce7d1</property>
  <property name="kdenlive:audio_max">1</property>
 </producer>
 <producer id="producer38" in="00:00:00.000" out="00:01:58.233">
  <property name="length">3548</property>
  <property name="eof">pause</property>
  <property name="resource">content/musicians/2021-02-06_Caleb+Chris_upright+piano+handheld_mason_MVI_6035-unknown_take_chris_ending.mkv</property>
  <property name="audio_index">1</property>
  <property name="video_index">0</property>
  <property name="mute_on_pause">0</property>
  <property name="mlt_service">avformat-novalidate</property>
  <property name="meta.media.nb_streams">2</property>
  <property name="meta.media.0.stream.type">video</property>
  <property name="meta.media.0.stream.frame_rate">29.97</property>
  <property name="meta.media.0.stream.sample_aspect_ratio">0</property>
  <property name="meta.media.0.codec.width">1280</property>
  <property name="meta.media.0.codec.height">720</property>
  <property name="meta.media.0.codec.rotate">0</property>
  <property name="meta.media.0.codec.frame_rate">1000</property>
  <property name="meta.media.0.codec.pix_fmt">yuvj420p</property>
  <property name="meta.media.0.codec.sample_aspect_ratio">0</property>
  <property name="meta.media.0.codec.colorspace">601</property>
  <property name="meta.media.0.codec.color_trc">1</property>
  <property name="meta.media.0.codec.name">h264</property>
  <property name="meta.media.0.codec.long_name">H.264 / AVC / MPEG-4 AVC / MPEG-4 part 10</property>
  <property name="meta.media.0.codec.bit_rate">0</property>
  <property name="meta.attr.0.stream.language.markup">eng</property>
  <property name="meta.attr.0.stream.DURATION.markup">00:01:58.261000000</property>
  <property name="meta.media.1.stream.type">audio</property>
  <property name="meta.media.1.codec.sample_fmt">s16</property>
  <property name="meta.media.1.codec.sample_rate">48000</property>
  <property name="meta.media.1.codec.channels">1</property>
  <property name="meta.media.1.codec.name">pcm_s16le</property>
  <property name="meta.media.1.codec.long_name">PCM signed 16-bit little-endian</property>
  <property name="meta.media.1.codec.bit_rate">768000</property>
  <property name="meta.attr.1.stream.language.markup">eng</property>
  <property name="meta.attr.1.stream.DURATION.markup">00:01:58.245000000</property>
  <property name="meta.attr.COMPATIBLE_BRANDS.markup">qt  CAEP</property>
  <property name="meta.attr.creation_time.markup">2021-06-02T13:27:47.000000Z</property>
  <property name="meta.attr.MAJOR_BRAND.markup">qt  </property>
  <property name="meta.attr.MINOR_VERSION.markup">537331968</property>
  <property name="meta.attr.ENCODER.markup">Lavf58.45.100</property>
  <property name="seekable">1</property>
  <property name="meta.media.sample_aspect_num">1</property>
  <property name="meta.media.sample_aspect_den">1</property>
  <property name="aspect_ratio">1</property>
  <property name="kdenlive:clipname"/>
  <property name="kdenlive:folderid">61</property>
  <property name="meta.media.frame_rate_num">30000</property>
  <property name="meta.media.frame_rate_den">1001</property>
  <property name="meta.media.colorspace">601</property>
  <property name="meta.media.color_trc">1</property>
  <property name="meta.media.width">1280</property>
  <property name="meta.media.height">720</property>
  <property name="meta.media.color_range">full</property>
  <property name="kdenlive:id">39</property>
  <property name="kdenlive:file_size">470507194</property>
  <property name="kdenlive:file_hash">bb7a6a9413aa42a375b4e7ce8545f0bb</property>
  <property name="kdenlive:audio_max">1</property>
 </producer>
 <producer id="producer37" in="00:00:00.000" out="00:01:12.600">
  <property name="length">2179</property>
  <property name="eof">pause</property>
  <property name="resource">content/musicians/2021-02-06_Caleb+Chris_upright+piano+handheld_mason_MVI_6037-take3_caleb_beginning.mkv</property>
  <property name="audio_index">1</property>
  <property name="video_index">0</property>
  <property name="mute_on_pause">0</property>
  <property name="mlt_service">avformat-novalidate</property>
  <property name="meta.media.nb_streams">2</property>
  <property name="meta.media.0.stream.type">video</property>
  <property name="meta.media.0.stream.frame_rate">29.97</property>
  <property name="meta.media.0.stream.sample_aspect_ratio">0</property>
  <property name="meta.media.0.codec.width">1280</property>
  <property name="meta.media.0.codec.height">720</property>
  <property name="meta.media.0.codec.rotate">0</property>
  <property name="meta.media.0.codec.frame_rate">1000</property>
  <property name="meta.media.0.codec.pix_fmt">yuvj420p</property>
  <property name="meta.media.0.codec.sample_aspect_ratio">0</property>
  <property name="meta.media.0.codec.colorspace">601</property>
  <property name="meta.media.0.codec.color_trc">1</property>
  <property name="meta.media.0.codec.name">h264</property>
  <property name="meta.media.0.codec.long_name">H.264 / AVC / MPEG-4 AVC / MPEG-4 part 10</property>
  <property name="meta.media.0.codec.bit_rate">0</property>
  <property name="meta.attr.0.stream.language.markup">eng</property>
  <property name="meta.attr.0.stream.DURATION.markup">00:01:12.606000000</property>
  <property name="meta.media.1.stream.type">audio</property>
  <property name="meta.media.1.codec.sample_fmt">s16</property>
  <property name="meta.media.1.codec.sample_rate">48000</property>
  <property name="meta.media.1.codec.channels">1</property>
  <property name="meta.media.1.codec.name">pcm_s16le</property>
  <property name="meta.media.1.codec.long_name">PCM signed 16-bit little-endian</property>
  <property name="meta.media.1.codec.bit_rate">768000</property>
  <property name="meta.attr.1.stream.language.markup">eng</property>
  <property name="meta.attr.1.stream.DURATION.markup">00:01:12.627000000</property>
  <property name="meta.attr.COMPATIBLE_BRANDS.markup">qt  CAEP</property>
  <property name="meta.attr.creation_time.markup">2021-06-02T13:36:54.000000Z</property>
  <property name="meta.attr.MAJOR_BRAND.markup">qt  </property>
  <property name="meta.attr.MINOR_VERSION.markup">537331968</property>
  <property name="meta.attr.ENCODER.markup">Lavf58.45.100</property>
  <property name="seekable">1</property>
  <property name="meta.media.sample_aspect_num">1</property>
  <property name="meta.media.sample_aspect_den">1</property>
  <property name="aspect_ratio">1</property>
  <property name="kdenlive:clipname"/>
  <property name="kdenlive:folderid">61</property>
  <property name="meta.media.frame_rate_num">30000</property>
  <property name="meta.media.frame_rate_den">1001</property>
  <property name="meta.media.colorspace">601</property>
  <property name="meta.media.color_trc">1</property>
  <property name="meta.media.width">1280</property>
  <property name="meta.media.height">720</property>
  <property name="meta.media.color_range">full</property>
  <property name="kdenlive:id">40</property>
  <property name="kdenlive:file_size">289261707</property>
  <property name="kdenlive:file_hash">2c5b7ac7d70a9bf1692b0e5a5224d917</property>
  <property name="kdenlive:audio_max">1</property>
  <property name="meta.media.top_field_first">0</property>
  <property name="meta.media.progressive">1</property>
  <property name="global_feed">1</property>
 </producer>
 <producer id="producer39" in="00:00:00.000" out="00:00:53.900">
  <property name="length">1618</property>
  <property name="eof">pause</property>
  <property name="resource">content/musicians/2021-02-06_Caleb+Chris_upright+piano+handheld_mason_MVI_6037-take3_caleb_end.mkv</property>
  <property name="audio_index">1</property>
  <property name="video_index">0</property>
  <property name="mute_on_pause">0</property>
  <property name="mlt_service">avformat-novalidate</property>
  <property name="meta.media.nb_streams">2</property>
  <property name="meta.media.0.stream.type">video</property>
  <property name="meta.media.0.stream.frame_rate">29.97</property>
  <property name="meta.media.0.stream.sample_aspect_ratio">0</property>
  <property name="meta.media.0.codec.width">1280</property>
  <property name="meta.media.0.codec.height">720</property>
  <property name="meta.media.0.codec.rotate">0</property>
  <property name="meta.media.0.codec.frame_rate">1000</property>
  <property name="meta.media.0.codec.pix_fmt">yuvj420p</property>
  <property name="meta.media.0.codec.sample_aspect_ratio">0</property>
  <property name="meta.media.0.codec.colorspace">601</property>
  <property name="meta.media.0.codec.color_trc">1</property>
  <property name="meta.media.0.codec.name">h264</property>
  <property name="meta.media.0.codec.long_name">H.264 / AVC / MPEG-4 AVC / MPEG-4 part 10</property>
  <property name="meta.media.0.codec.bit_rate">0</property>
  <property name="meta.attr.0.stream.language.markup">eng</property>
  <property name="meta.attr.0.stream.DURATION.markup">00:00:53.930000000</property>
  <property name="meta.media.1.stream.type">audio</property>
  <property name="meta.media.1.codec.sample_fmt">s16</property>
  <property name="meta.media.1.codec.sample_rate">48000</property>
  <property name="meta.media.1.codec.channels">1</property>
  <property name="meta.media.1.codec.name">pcm_s16le</property>
  <property name="meta.media.1.codec.long_name">PCM signed 16-bit little-endian</property>
  <property name="meta.media.1.codec.bit_rate">768000</property>
  <property name="meta.attr.1.stream.language.markup">eng</property>
  <property name="meta.attr.1.stream.DURATION.markup">00:00:53.926000000</property>
  <property name="meta.attr.COMPATIBLE_BRANDS.markup">qt  CAEP</property>
  <property name="meta.attr.creation_time.markup">2021-06-02T13:36:54.000000Z</property>
  <property name="meta.attr.MAJOR_BRAND.markup">qt  </property>
  <property name="meta.attr.MINOR_VERSION.markup">537331968</property>
  <property name="meta.attr.ENCODER.markup">Lavf58.45.100</property>
  <property name="seekable">1</property>
  <property name="meta.media.sample_aspect_num">1</property>
  <property name="meta.media.sample_aspect_den">1</property>
  <property name="aspect_ratio">1</property>
  <property name="kdenlive:clipname"/>
  <property name="kdenlive:folderid">61</property>
  <property name="meta.media.frame_rate_num">30000</property>
  <property name="meta.media.frame_rate_den">1001</property>
  <property name="meta.media.colorspace">601</property>
  <property name="meta.media.color_trc">1</property>
  <property name="meta.media.width">1280</property>
  <property name="meta.media.height">720</property>
  <property name="meta.media.color_range">full</property>
  <property name="kdenlive:id">41</property>
  <property name="kdenlive:file_size">213863676</property>
  <property name="kdenlive:file_hash">075d69fa4a1c72cbcc7eff8043e2a096</property>
  <property name="kdenlive:audio_max">1</property>
 </producer>
 <producer id="producer42" in="00:00:00.000" out="00:00:47.567">
  <property name="length">1428</property>
  <property name="eof">pause</property>
  <property name="resource">content/musicians/2021-02-06_Caleb+Chris_upright+piano+handheld_mason_MVI_6037-take3_caleb_solo.mkv</property>
  <property name="audio_index">1</property>
  <property name="video_index">0</property>
  <property name="mute_on_pause">0</property>
  <property name="mlt_service">avformat-novalidate</property>
  <property name="meta.media.nb_streams">2</property>
  <property name="meta.media.0.stream.type">video</property>
  <property name="meta.media.0.stream.frame_rate">29.97</property>
  <property name="meta.media.0.stream.sample_aspect_ratio">0</property>
  <property name="meta.media.0.codec.width">1280</property>
  <property name="meta.media.0.codec.height">720</property>
  <property name="meta.media.0.codec.rotate">0</property>
  <property name="meta.media.0.codec.frame_rate">1000</property>
  <property name="meta.media.0.codec.pix_fmt">yuvj420p</property>
  <property name="meta.media.0.codec.sample_aspect_ratio">0</property>
  <property name="meta.media.0.codec.colorspace">601</property>
  <property name="meta.media.0.codec.color_trc">1</property>
  <property name="meta.media.0.codec.name">h264</property>
  <property name="meta.media.0.codec.long_name">H.264 / AVC / MPEG-4 AVC / MPEG-4 part 10</property>
  <property name="meta.media.0.codec.bit_rate">0</property>
  <property name="meta.attr.0.stream.language.markup">eng</property>
  <property name="meta.attr.0.stream.DURATION.markup">00:00:47.590000000</property>
  <property name="meta.media.1.stream.type">audio</property>
  <property name="meta.media.1.codec.sample_fmt">s16</property>
  <property name="meta.media.1.codec.sample_rate">48000</property>
  <property name="meta.media.1.codec.channels">1</property>
  <property name="meta.media.1.codec.name">pcm_s16le</property>
  <property name="meta.media.1.codec.long_name">PCM signed 16-bit little-endian</property>
  <property name="meta.media.1.codec.bit_rate">768000</property>
  <property name="meta.attr.1.stream.language.markup">eng</property>
  <property name="meta.attr.1.stream.DURATION.markup">00:00:47.599000000</property>
  <property name="meta.attr.COMPATIBLE_BRANDS.markup">qt  CAEP</property>
  <property name="meta.attr.creation_time.markup">2021-06-02T13:36:54.000000Z</property>
  <property name="meta.attr.MAJOR_BRAND.markup">qt  </property>
  <property name="meta.attr.MINOR_VERSION.markup">537331968</property>
  <property name="meta.attr.ENCODER.markup">Lavf58.45.100</property>
  <property name="seekable">1</property>
  <property name="meta.media.sample_aspect_num">1</property>
  <property name="meta.media.sample_aspect_den">1</property>
  <property name="aspect_ratio">1</property>
  <property name="kdenlive:clipname"/>
  <property name="kdenlive:folderid">61</property>
  <property name="meta.media.frame_rate_num">30000</property>
  <property name="meta.media.frame_rate_den">1001</property>
  <property name="meta.media.colorspace">601</property>
  <property name="meta.media.color_trc">1</property>
  <property name="meta.media.width">1280</property>
  <property name="meta.media.height">720</property>
  <property name="meta.media.color_range">full</property>
  <property name="kdenlive:id">42</property>
  <property name="kdenlive:file_size">188467641</property>
  <property name="kdenlive:file_hash">15dfc8fa62b942ad83151dc66db9f701</property>
  <property name="kdenlive:audio_max">1</property>
  <property name="meta.media.top_field_first">0</property>
  <property name="meta.media.progressive">1</property>
  <property name="global_feed">1</property>
 </producer>
 <producer id="producer40" in="00:00:00.000" out="00:01:29.100">
  <property name="length">2674</property>
  <property name="eof">pause</property>
  <property name="resource">content/musicians/2021-02-06_Caleb+Chris_upright+piano+handheld_mason_MVI_6037-take3_chris_end_bass_solo.mkv</property>
  <property name="audio_index">1</property>
  <property name="video_index">0</property>
  <property name="mute_on_pause">0</property>
  <property name="mlt_service">avformat-novalidate</property>
  <property name="meta.media.nb_streams">2</property>
  <property name="meta.media.0.stream.type">video</property>
  <property name="meta.media.0.stream.frame_rate">29.97</property>
  <property name="meta.media.0.stream.sample_aspect_ratio">0</property>
  <property name="meta.media.0.codec.width">1280</property>
  <property name="meta.media.0.codec.height">720</property>
  <property name="meta.media.0.codec.rotate">0</property>
  <property name="meta.media.0.codec.frame_rate">1000</property>
  <property name="meta.media.0.codec.pix_fmt">yuvj420p</property>
  <property name="meta.media.0.codec.sample_aspect_ratio">0</property>
  <property name="meta.media.0.codec.colorspace">601</property>
  <property name="meta.media.0.codec.color_trc">1</property>
  <property name="meta.media.0.codec.name">h264</property>
  <property name="meta.media.0.codec.long_name">H.264 / AVC / MPEG-4 AVC / MPEG-4 part 10</property>
  <property name="meta.media.0.codec.bit_rate">0</property>
  <property name="meta.attr.0.stream.language.markup">eng</property>
  <property name="meta.attr.0.stream.DURATION.markup">00:01:29.122000000</property>
  <property name="meta.media.1.stream.type">audio</property>
  <property name="meta.media.1.codec.sample_fmt">s16</property>
  <property name="meta.media.1.codec.sample_rate">48000</property>
  <property name="meta.media.1.codec.channels">1</property>
  <property name="meta.media.1.codec.name">pcm_s16le</property>
  <property name="meta.media.1.codec.long_name">PCM signed 16-bit little-endian</property>
  <property name="meta.media.1.codec.bit_rate">768000</property>
  <property name="meta.attr.1.stream.language.markup">eng</property>
  <property name="meta.attr.1.stream.DURATION.markup">00:01:29.110000000</property>
  <property name="meta.attr.COMPATIBLE_BRANDS.markup">qt  CAEP</property>
  <property name="meta.attr.creation_time.markup">2021-06-02T13:36:54.000000Z</property>
  <property name="meta.attr.MAJOR_BRAND.markup">qt  </property>
  <property name="meta.attr.MINOR_VERSION.markup">537331968</property>
  <property name="meta.attr.ENCODER.markup">Lavf58.45.100</property>
  <property name="seekable">1</property>
  <property name="meta.media.sample_aspect_num">1</property>
  <property name="meta.media.sample_aspect_den">1</property>
  <property name="aspect_ratio">1</property>
  <property name="kdenlive:clipname"/>
  <property name="kdenlive:folderid">61</property>
  <property name="meta.media.frame_rate_num">30000</property>
  <property name="meta.media.frame_rate_den">1001</property>
  <property name="meta.media.colorspace">601</property>
  <property name="meta.media.color_trc">1</property>
  <property name="meta.media.width">1280</property>
  <property name="meta.media.height">720</property>
  <property name="meta.media.color_range">full</property>
  <property name="kdenlive:id">43</property>
  <property name="kdenlive:file_size">355294376</property>
  <property name="kdenlive:file_hash">bb352a9871e71843e73ffff91a4206cd</property>
  <property name="kdenlive:audio_max">1</property>
  <property name="meta.media.top_field_first">0</property>
  <property name="meta.media.progressive">1</property>
  <property name="global_feed">1</property>
 </producer>
 <producer id="producer41" in="00:00:00.000" out="00:00:32.267">
  <property name="length">969</property>
  <property name="eof">pause</property>
  <property name="resource">content/musicians/2021-02-06_Caleb+Chris_upright+piano+handheld_mason_MVI_6037-take3_chris_piano.mkv</property>
  <property name="audio_index">1</property>
  <property name="video_index">0</property>
  <property name="mute_on_pause">0</property>
  <property name="mlt_service">avformat-novalidate</property>
  <property name="meta.media.nb_streams">2</property>
  <property name="meta.media.0.stream.type">video</property>
  <property name="meta.media.0.stream.frame_rate">29.97</property>
  <property name="meta.media.0.stream.sample_aspect_ratio">0</property>
  <property name="meta.media.0.codec.width">1280</property>
  <property name="meta.media.0.codec.height">720</property>
  <property name="meta.media.0.codec.rotate">0</property>
  <property name="meta.media.0.codec.frame_rate">1000</property>
  <property name="meta.media.0.codec.pix_fmt">yuvj420p</property>
  <property name="meta.media.0.codec.sample_aspect_ratio">0</property>
  <property name="meta.media.0.codec.colorspace">601</property>
  <property name="meta.media.0.codec.color_trc">1</property>
  <property name="meta.media.0.codec.name">h264</property>
  <property name="meta.media.0.codec.long_name">H.264 / AVC / MPEG-4 AVC / MPEG-4 part 10</property>
  <property name="meta.media.0.codec.bit_rate">0</property>
  <property name="meta.attr.0.stream.language.markup">eng</property>
  <property name="meta.attr.0.stream.DURATION.markup">00:00:32.299000000</property>
  <property name="meta.media.1.stream.type">audio</property>
  <property name="meta.media.1.codec.sample_fmt">s16</property>
  <property name="meta.media.1.codec.sample_rate">48000</property>
  <property name="meta.media.1.codec.channels">1</property>
  <property name="meta.media.1.codec.name">pcm_s16le</property>
  <property name="meta.media.1.codec.long_name">PCM signed 16-bit little-endian</property>
  <property name="meta.media.1.codec.bit_rate">768000</property>
  <property name="meta.attr.1.stream.language.markup">eng</property>
  <property name="meta.attr.1.stream.DURATION.markup">00:00:32.309000000</property>
  <property name="meta.attr.COMPATIBLE_BRANDS.markup">qt  CAEP</property>
  <property name="meta.attr.creation_time.markup">2021-06-02T13:36:54.000000Z</property>
  <property name="meta.attr.MAJOR_BRAND.markup">qt  </property>
  <property name="meta.attr.MINOR_VERSION.markup">537331968</property>
  <property name="meta.attr.ENCODER.markup">Lavf58.45.100</property>
  <property name="seekable">1</property>
  <property name="meta.media.sample_aspect_num">1</property>
  <property name="meta.media.sample_aspect_den">1</property>
  <property name="aspect_ratio">1</property>
  <property name="kdenlive:clipname"/>
  <property name="kdenlive:folderid">61</property>
  <property name="meta.media.frame_rate_num">30000</property>
  <property name="meta.media.frame_rate_den">1001</property>
  <property name="meta.media.colorspace">601</property>
  <property name="meta.media.color_trc">1</property>
  <property name="meta.media.width">1280</property>
  <property name="meta.media.height">720</property>
  <property name="meta.media.color_range">full</property>
  <property name="kdenlive:id">44</property>
  <property name="kdenlive:file_size">128994656</property>
  <property name="kdenlive:file_hash">965b7d3396f128cda8f06cc5b720c324</property>
  <property name="kdenlive:audio_max">1</property>
  <property name="meta.media.top_field_first">0</property>
  <property name="meta.media.progressive">1</property>
  <property name="global_feed">1</property>
 </producer>
 <producer id="producer43" in="00:00:00.000" out="00:00:29.533">
  <property name="length">887</property>
  <property name="eof">pause</property>
  <property name="resource">content/musicians/2021-02-06_Caleb+Chris_upright+piano+handheld_mason_MVI_6037-take3_chris_start.mkv</property>
  <property name="audio_index">1</property>
  <property name="video_index">0</property>
  <property name="mute_on_pause">0</property>
  <property name="mlt_service">avformat-novalidate</property>
  <property name="meta.media.nb_streams">2</property>
  <property name="meta.media.0.stream.type">video</property>
  <property name="meta.media.0.stream.frame_rate">29.97</property>
  <property name="meta.media.0.stream.sample_aspect_ratio">0</property>
  <property name="meta.media.0.codec.width">1280</property>
  <property name="meta.media.0.codec.height">720</property>
  <property name="meta.media.0.codec.rotate">0</property>
  <property name="meta.media.0.codec.frame_rate">1000</property>
  <property name="meta.media.0.codec.pix_fmt">yuvj420p</property>
  <property name="meta.media.0.codec.sample_aspect_ratio">0</property>
  <property name="meta.media.0.codec.colorspace">601</property>
  <property name="meta.media.0.codec.color_trc">1</property>
  <property name="meta.media.0.codec.name">h264</property>
  <property name="meta.media.0.codec.long_name">H.264 / AVC / MPEG-4 AVC / MPEG-4 part 10</property>
  <property name="meta.media.0.codec.bit_rate">0</property>
  <property name="meta.attr.0.stream.language.markup">eng</property>
  <property name="meta.attr.0.stream.DURATION.markup">00:00:29.563000000</property>
  <property name="meta.media.1.stream.type">audio</property>
  <property name="meta.media.1.codec.sample_fmt">s16</property>
  <property name="meta.media.1.codec.sample_rate">48000</property>
  <property name="meta.media.1.codec.channels">1</property>
  <property name="meta.media.1.codec.name">pcm_s16le</property>
  <property name="meta.media.1.codec.long_name">PCM signed 16-bit little-endian</property>
  <property name="meta.media.1.codec.bit_rate">768000</property>
  <property name="meta.attr.1.stream.language.markup">eng</property>
  <property name="meta.attr.1.stream.DURATION.markup">00:00:29.541000000</property>
  <property name="meta.attr.COMPATIBLE_BRANDS.markup">qt  CAEP</property>
  <property name="meta.attr.creation_time.markup">2021-06-02T13:36:54.000000Z</property>
  <property name="meta.attr.MAJOR_BRAND.markup">qt  </property>
  <property name="meta.attr.MINOR_VERSION.markup">537331968</property>
  <property name="meta.attr.ENCODER.markup">Lavf58.45.100</property>
  <property name="seekable">1</property>
  <property name="meta.media.sample_aspect_num">1</property>
  <property name="meta.media.sample_aspect_den">1</property>
  <property name="aspect_ratio">1</property>
  <property name="kdenlive:clipname"/>
  <property name="kdenlive:folderid">61</property>
  <property name="meta.media.frame_rate_num">30000</property>
  <property name="meta.media.frame_rate_den">1001</property>
  <property name="meta.media.colorspace">601</property>
  <property name="meta.media.color_trc">1</property>
  <property name="meta.media.width">1280</property>
  <property name="meta.media.height">720</property>
  <property name="meta.media.color_range">full</property>
  <property name="kdenlive:id">45</property>
  <property name="kdenlive:file_size">116935177</property>
  <property name="kdenlive:file_hash">c5f6b70de407fb3193b8b8ba84404e87</property>
  <property name="kdenlive:audio_max">1</property>
  <property name="meta.media.top_field_first">0</property>
  <property name="meta.media.progressive">1</property>
  <property name="global_feed">1</property>
 </producer>
 <producer id="producer45" in="00:00:00.000" out="00:02:03.067">
  <property name="length">3693</property>
  <property name="eof">pause</property>
  <property name="resource">content/musicians/2021-02-06_Caleb_upright_mason_MVI_6048-take5_from_125.mkv</property>
  <property name="audio_index">1</property>
  <property name="video_index">0</property>
  <property name="mute_on_pause">0</property>
  <property name="mlt_service">avformat-novalidate</property>
  <property name="meta.media.nb_streams">2</property>
  <property name="meta.media.0.stream.type">video</property>
  <property name="meta.media.0.stream.frame_rate">29.97</property>
  <property name="meta.media.0.stream.sample_aspect_ratio">0</property>
  <property name="meta.media.0.codec.width">1280</property>
  <property name="meta.media.0.codec.height">720</property>
  <property name="meta.media.0.codec.rotate">0</property>
  <property name="meta.media.0.codec.frame_rate">1000</property>
  <property name="meta.media.0.codec.pix_fmt">yuvj420p</property>
  <property name="meta.media.0.codec.sample_aspect_ratio">0</property>
  <property name="meta.media.0.codec.colorspace">601</property>
  <property name="meta.media.0.codec.color_trc">1</property>
  <property name="meta.media.0.codec.name">h264</property>
  <property name="meta.media.0.codec.long_name">H.264 / AVC / MPEG-4 AVC / MPEG-4 part 10</property>
  <property name="meta.media.0.codec.bit_rate">0</property>
  <property name="meta.attr.0.stream.language.markup">eng</property>
  <property name="meta.attr.0.stream.DURATION.markup">00:02:03.089000000</property>
  <property name="meta.media.1.stream.type">audio</property>
  <property name="meta.media.1.codec.sample_fmt">s16</property>
  <property name="meta.media.1.codec.sample_rate">48000</property>
  <property name="meta.media.1.codec.channels">1</property>
  <property name="meta.media.1.codec.name">pcm_s16le</property>
  <property name="meta.media.1.codec.long_name">PCM signed 16-bit little-endian</property>
  <property name="meta.media.1.codec.bit_rate">768000</property>
  <property name="meta.attr.1.stream.language.markup">eng</property>
  <property name="meta.attr.1.stream.DURATION.markup">00:02:03.060000000</property>
  <property name="meta.attr.COMPATIBLE_BRANDS.markup">qt  CAEP</property>
  <property name="meta.attr.creation_time.markup">2021-06-02T16:38:25.000000Z</property>
  <property name="meta.attr.MAJOR_BRAND.markup">qt  </property>
  <property name="meta.attr.MINOR_VERSION.markup">537331968</property>
  <property name="meta.attr.ENCODER.markup">Lavf58.45.100</property>
  <property name="seekable">1</property>
  <property name="meta.media.sample_aspect_num">1</property>
  <property name="meta.media.sample_aspect_den">1</property>
  <property name="aspect_ratio">1</property>
  <property name="kdenlive:clipname"/>
  <property name="kdenlive:folderid">61</property>
  <property name="meta.media.frame_rate_num">30000</property>
  <property name="meta.media.frame_rate_den">1001</property>
  <property name="meta.media.colorspace">601</property>
  <property name="meta.media.color_trc">1</property>
  <property name="meta.media.width">1280</property>
  <property name="meta.media.height">720</property>
  <property name="meta.media.color_range">full</property>
  <property name="kdenlive:id">46</property>
  <property name="kdenlive:file_size">501823654</property>
  <property name="kdenlive:file_hash">cdcc4f8d03e4560196d475fb70438447</property>
  <property name="kdenlive:audio_max">1</property>
  <property name="meta.media.top_field_first">0</property>
  <property name="meta.media.progressive">1</property>
  <property name="global_feed">1</property>
 </producer>
 <producer id="producer44" in="00:00:00.000" out="00:00:25.933">
  <property name="length">779</property>
  <property name="eof">pause</property>
  <property name="resource">content/musicians/2021-02-06_Caleb_upright_mason_MVI_6048-take6_ending.mkv</property>
  <property name="audio_index">1</property>
  <property name="video_index">0</property>
  <property name="mute_on_pause">0</property>
  <property name="mlt_service">avformat-novalidate</property>
  <property name="meta.media.nb_streams">2</property>
  <property name="meta.media.0.stream.type">video</property>
  <property name="meta.media.0.stream.frame_rate">29.97</property>
  <property name="meta.media.0.stream.sample_aspect_ratio">0</property>
  <property name="meta.media.0.codec.width">1280</property>
  <property name="meta.media.0.codec.height">720</property>
  <property name="meta.media.0.codec.rotate">0</property>
  <property name="meta.media.0.codec.frame_rate">1000</property>
  <property name="meta.media.0.codec.pix_fmt">yuvj420p</property>
  <property name="meta.media.0.codec.sample_aspect_ratio">0</property>
  <property name="meta.media.0.codec.colorspace">601</property>
  <property name="meta.media.0.codec.color_trc">1</property>
  <property name="meta.media.0.codec.name">h264</property>
  <property name="meta.media.0.codec.long_name">H.264 / AVC / MPEG-4 AVC / MPEG-4 part 10</property>
  <property name="meta.media.0.codec.bit_rate">0</property>
  <property name="meta.attr.0.stream.language.markup">eng</property>
  <property name="meta.attr.0.stream.DURATION.markup">00:00:25.969000000</property>
  <property name="meta.media.1.stream.type">audio</property>
  <property name="meta.media.1.codec.sample_fmt">s16</property>
  <property name="meta.media.1.codec.sample_rate">48000</property>
  <property name="meta.media.1.codec.channels">1</property>
  <property name="meta.media.1.codec.name">pcm_s16le</property>
  <property name="meta.media.1.codec.long_name">PCM signed 16-bit little-endian</property>
  <property name="meta.media.1.codec.bit_rate">768000</property>
  <property name="meta.attr.1.stream.language.markup">eng</property>
  <property name="meta.attr.1.stream.DURATION.markup">00:00:25.983000000</property>
  <property name="meta.attr.COMPATIBLE_BRANDS.markup">qt  CAEP</property>
  <property name="meta.attr.creation_time.markup">2021-06-02T16:38:25.000000Z</property>
  <property name="meta.attr.MAJOR_BRAND.markup">qt  </property>
  <property name="meta.attr.MINOR_VERSION.markup">537331968</property>
  <property name="meta.attr.ENCODER.markup">Lavf58.45.100</property>
  <property name="seekable">1</property>
  <property name="meta.media.sample_aspect_num">1</property>
  <property name="meta.media.sample_aspect_den">1</property>
  <property name="aspect_ratio">1</property>
  <property name="kdenlive:clipname"/>
  <property name="kdenlive:folderid">61</property>
  <property name="meta.media.frame_rate_num">30000</property>
  <property name="meta.media.frame_rate_den">1001</property>
  <property name="meta.media.colorspace">601</property>
  <property name="meta.media.color_trc">1</property>
  <property name="meta.media.width">1280</property>
  <property name="meta.media.height">720</property>
  <property name="meta.media.color_range">full</property>
  <property name="kdenlive:id">47</property>
  <property name="kdenlive:file_size">105477389</property>
  <property name="kdenlive:file_hash">ba466a8ea8b6ec70d4807259c95e8c49</property>
  <property name="kdenlive:audio_max">1</property>
  <property name="meta.media.top_field_first">0</property>
  <property name="meta.media.progressive">1</property>
  <property name="global_feed">1</property>
 </producer>
 <producer id="producer46" in="00:00:00.000" out="00:00:22.867">
  <property name="length">687</property>
  <property name="eof">pause</property>
  <property name="resource">content/musicians/2021-02-06_Chris_piano+handheld_mason_MVI_6034-unknown_track_near_end.mkv</property>
  <property name="audio_index">1</property>
  <property name="video_index">0</property>
  <property name="mute_on_pause">0</property>
  <property name="mlt_service">avformat-novalidate</property>
  <property name="meta.media.nb_streams">2</property>
  <property name="meta.media.0.stream.type">video</property>
  <property name="meta.media.0.stream.frame_rate">29.97</property>
  <property name="meta.media.0.stream.sample_aspect_ratio">0</property>
  <property name="meta.media.0.codec.width">1280</property>
  <property name="meta.media.0.codec.height">720</property>
  <property name="meta.media.0.codec.rotate">0</property>
  <property name="meta.media.0.codec.frame_rate">1000</property>
  <property name="meta.media.0.codec.pix_fmt">yuvj420p</property>
  <property name="meta.media.0.codec.sample_aspect_ratio">0</property>
  <property name="meta.media.0.codec.colorspace">601</property>
  <property name="meta.media.0.codec.color_trc">1</property>
  <property name="meta.media.0.codec.name">h264</property>
  <property name="meta.media.0.codec.long_name">H.264 / AVC / MPEG-4 AVC / MPEG-4 part 10</property>
  <property name="meta.media.0.codec.bit_rate">0</property>
  <property name="meta.attr.0.stream.language.markup">eng</property>
  <property name="meta.attr.0.stream.DURATION.markup">00:00:22.889000000</property>
  <property name="meta.media.1.stream.type">audio</property>
  <property name="meta.media.1.codec.sample_fmt">s16</property>
  <property name="meta.media.1.codec.sample_rate">48000</property>
  <property name="meta.media.1.codec.channels">1</property>
  <property name="meta.media.1.codec.name">pcm_s16le</property>
  <property name="meta.media.1.codec.long_name">PCM signed 16-bit little-endian</property>
  <property name="meta.media.1.codec.bit_rate">768000</property>
  <property name="meta.attr.1.stream.language.markup">eng</property>
  <property name="meta.attr.1.stream.DURATION.markup">00:00:22.889000000</property>
  <property name="meta.attr.COMPATIBLE_BRANDS.markup">qt  CAEP</property>
  <property name="meta.attr.creation_time.markup">2021-06-02T13:12:22.000000Z</property>
  <property name="meta.attr.MAJOR_BRAND.markup">qt  </property>
  <property name="meta.attr.MINOR_VERSION.markup">537331968</property>
  <property name="meta.attr.ENCODER.markup">Lavf58.45.100</property>
  <property name="seekable">1</property>
  <property name="meta.media.sample_aspect_num">1</property>
  <property name="meta.media.sample_aspect_den">1</property>
  <property name="aspect_ratio">1</property>
  <property name="kdenlive:clipname"/>
  <property name="kdenlive:folderid">61</property>
  <property name="meta.media.frame_rate_num">30000</property>
  <property name="meta.media.frame_rate_den">1001</property>
  <property name="meta.media.colorspace">601</property>
  <property name="meta.media.color_trc">1</property>
  <property name="meta.media.width">1280</property>
  <property name="meta.media.height">720</property>
  <property name="meta.media.color_range">full</property>
  <property name="kdenlive:id">48</property>
  <property name="kdenlive:file_size">91692753</property>
  <property name="kdenlive:file_hash">7d08439b8fcccae5dda45cbb2e8e2b92</property>
  <property name="kdenlive:audio_max">1</property>
  <property name="meta.media.top_field_first">0</property>
  <property name="meta.media.progressive">1</property>
  <property name="global_feed">1</property>
 </producer>
 <producer id="producer48" in="00:00:00.000" out="00:00:10.333">
  <property name="length">311</property>
  <property name="eof">pause</property>
  <property name="resource">content/musicians/2021-02-06_Chris_piano+handheld_mason_MVI_6036-unknown_take_near_end.mkv</property>
  <property name="audio_index">1</property>
  <property name="video_index">0</property>
  <property name="mute_on_pause">0</property>
  <property name="mlt_service">avformat-novalidate</property>
  <property name="meta.media.nb_streams">2</property>
  <property name="meta.media.0.stream.type">video</property>
  <property name="meta.media.0.stream.frame_rate">29.97</property>
  <property name="meta.media.0.stream.sample_aspect_ratio">0</property>
  <property name="meta.media.0.codec.width">1280</property>
  <property name="meta.media.0.codec.height">720</property>
  <property name="meta.media.0.codec.rotate">0</property>
  <property name="meta.media.0.codec.frame_rate">1000</property>
  <property name="meta.media.0.codec.pix_fmt">yuvj420p</property>
  <property name="meta.media.0.codec.sample_aspect_ratio">0</property>
  <property name="meta.media.0.codec.colorspace">601</property>
  <property name="meta.media.0.codec.color_trc">1</property>
  <property name="meta.media.0.codec.name">h264</property>
  <property name="meta.media.0.codec.long_name">H.264 / AVC / MPEG-4 AVC / MPEG-4 part 10</property>
  <property name="meta.media.0.codec.bit_rate">0</property>
  <property name="meta.attr.0.stream.language.markup">eng</property>
  <property name="meta.attr.0.stream.DURATION.markup">00:00:10.377000000</property>
  <property name="meta.media.1.stream.type">audio</property>
  <property name="meta.media.1.codec.sample_fmt">s16</property>
  <property name="meta.media.1.codec.sample_rate">48000</property>
  <property name="meta.media.1.codec.channels">1</property>
  <property name="meta.media.1.codec.name">pcm_s16le</property>
  <property name="meta.media.1.codec.long_name">PCM signed 16-bit little-endian</property>
  <property name="meta.media.1.codec.bit_rate">768000</property>
  <property name="meta.attr.1.stream.language.markup">eng</property>
  <property name="meta.attr.1.stream.DURATION.markup">00:00:10.351000000</property>
  <property name="meta.attr.COMPATIBLE_BRANDS.markup">qt  CAEP</property>
  <property name="meta.attr.creation_time.markup">2021-06-02T13:35:39.000000Z</property>
  <property name="meta.attr.MAJOR_BRAND.markup">qt  </property>
  <property name="meta.attr.MINOR_VERSION.markup">537331968</property>
  <property name="meta.attr.ENCODER.markup">Lavf58.45.100</property>
  <property name="seekable">1</property>
  <property name="meta.media.sample_aspect_num">1</property>
  <property name="meta.media.sample_aspect_den">1</property>
  <property name="aspect_ratio">1</property>
  <property name="kdenlive:clipname"/>
  <property name="kdenlive:folderid">61</property>
  <property name="meta.media.frame_rate_num">30000</property>
  <property name="meta.media.frame_rate_den">1001</property>
  <property name="meta.media.colorspace">601</property>
  <property name="meta.media.color_trc">1</property>
  <property name="meta.media.width">1280</property>
  <property name="meta.media.height">720</property>
  <property name="meta.media.color_range">full</property>
  <property name="kdenlive:id">49</property>
  <property name="kdenlive:file_size">41406863</property>
  <property name="kdenlive:file_hash">429d42362479c51ac32adcc3bb6ed04c</property>
  <property name="kdenlive:audio_max">2</property>
  <property name="meta.media.top_field_first">0</property>
  <property name="meta.media.progressive">1</property>
  <property name="global_feed">1</property>
 </producer>
 <producer id="producer47" in="00:00:00.000" out="00:00:06.300">
  <property name="length">190</property>
  <property name="eof">pause</property>
  <property name="resource">content/musicians/2021-02-06_Chris_piano+handheld_mason_MVI_6036-unknown_take_near_end_headshot.mkv</property>
  <property name="audio_index">1</property>
  <property name="video_index">0</property>
  <property name="mute_on_pause">0</property>
  <property name="mlt_service">avformat-novalidate</property>
  <property name="meta.media.nb_streams">2</property>
  <property name="meta.media.0.stream.type">video</property>
  <property name="meta.media.0.stream.frame_rate">29.97</property>
  <property name="meta.media.0.stream.sample_aspect_ratio">0</property>
  <property name="meta.media.0.codec.width">1280</property>
  <property name="meta.media.0.codec.height">720</property>
  <property name="meta.media.0.codec.rotate">0</property>
  <property name="meta.media.0.codec.frame_rate">1000</property>
  <property name="meta.media.0.codec.pix_fmt">yuvj420p</property>
  <property name="meta.media.0.codec.sample_aspect_ratio">0</property>
  <property name="meta.media.0.codec.colorspace">601</property>
  <property name="meta.media.0.codec.color_trc">1</property>
  <property name="meta.media.0.codec.name">h264</property>
  <property name="meta.media.0.codec.long_name">H.264 / AVC / MPEG-4 AVC / MPEG-4 part 10</property>
  <property name="meta.media.0.codec.bit_rate">0</property>
  <property name="meta.attr.0.stream.language.markup">eng</property>
  <property name="meta.attr.0.stream.DURATION.markup">00:00:06.316000000</property>
  <property name="meta.media.1.stream.type">audio</property>
  <property name="meta.media.1.codec.sample_fmt">s16</property>
  <property name="meta.media.1.codec.sample_rate">48000</property>
  <property name="meta.media.1.codec.channels">1</property>
  <property name="meta.media.1.codec.name">pcm_s16le</property>
  <property name="meta.media.1.codec.long_name">PCM signed 16-bit little-endian</property>
  <property name="meta.media.1.codec.bit_rate">768000</property>
  <property name="meta.attr.1.stream.language.markup">eng</property>
  <property name="meta.attr.1.stream.DURATION.markup">00:00:06.326000000</property>
  <property name="meta.attr.COMPATIBLE_BRANDS.markup">qt  CAEP</property>
  <property name="meta.attr.creation_time.markup">2021-06-02T13:35:39.000000Z</property>
  <property name="meta.attr.MAJOR_BRAND.markup">qt  </property>
  <property name="meta.attr.MINOR_VERSION.markup">537331968</property>
  <property name="meta.attr.ENCODER.markup">Lavf58.45.100</property>
  <property name="seekable">1</property>
  <property name="meta.media.sample_aspect_num">1</property>
  <property name="meta.media.sample_aspect_den">1</property>
  <property name="aspect_ratio">1</property>
  <property name="kdenlive:clipname"/>
  <property name="kdenlive:folderid">61</property>
  <property name="meta.media.frame_rate_num">30000</property>
  <property name="meta.media.frame_rate_den">1001</property>
  <property name="meta.media.colorspace">601</property>
  <property name="meta.media.color_trc">1</property>
  <property name="meta.media.width">1280</property>
  <property name="meta.media.height">720</property>
  <property name="meta.media.color_range">full</property>
  <property name="kdenlive:id">50</property>
  <property name="kdenlive:file_size">25034853</property>
  <property name="kdenlive:file_hash">38f3ff16fdc2dfcf89c0bd9c64485c78</property>
  <property name="kdenlive:audio_max">1</property>
  <property name="meta.media.top_field_first">0</property>
  <property name="meta.media.progressive">1</property>
  <property name="global_feed">1</property>
 </producer>
 <producer id="producer50" in="00:00:00.000" out="00:02:00.067">
  <property name="length">3603</property>
  <property name="eof">pause</property>
  <property name="resource">/home/ryankelln/.cache/kdenlive/proxy/9fb1dfa301d209bebd5e4f1097ec11b4.mkv</property>
  <property name="audio_index">1</property>
  <property name="video_index">0</property>
  <property name="mute_on_pause">0</property>
  <property name="mlt_service">avformat-novalidate</property>
  <property name="seekable">1</property>
  <property name="aspect_ratio">1</property>
  <property name="kdenlive:clipname">2021-02-06_Chris_piano_4k_mason_P1180165-take5_m125_to_end.MP4</property>
  <property name="kdenlive:folderid">61</property>
  <property name="kdenlive:id">51</property>
  <property name="kdenlive:file_size">1439613507</property>
  <property name="kdenlive:file_hash">9fb1dfa301d209bebd5e4f1097ec11b4</property>
  <property name="kdenlive:proxy">/home/ryankelln/.cache/kdenlive/proxy/9fb1dfa301d209bebd5e4f1097ec11b4.mkv</property>
  <property name="kdenlive:originalurl">content/musicians/2021-02-06_Chris_piano_4k_mason_P1180165-take5_m125_to_end.MP4</property>
  <property name="kdenlive:original.mlt_type">producer</property>
  <property name="kdenlive:original.in">0</property>
  <property name="kdenlive:original.out">3602</property>
  <property name="kdenlive:original.length">3603</property>
  <property name="kdenlive:original.eof">pause</property>
  <property name="kdenlive:original.resource">content/musicians/2021-02-06_Chris_piano_4k_mason_P1180165-take5_m125_to_end.MP4</property>
  <property name="kdenlive:original.meta.media.nb_streams">2</property>
  <property name="kdenlive:original.meta.media.0.stream.type">video</property>
  <property name="kdenlive:original.meta.media.0.stream.frame_rate">29.97</property>
  <property name="kdenlive:original.meta.media.0.stream.sample_aspect_ratio">1</property>
  <property name="kdenlive:original.meta.media.0.codec.width">3840</property>
  <property name="kdenlive:original.meta.media.0.codec.height">2160</property>
  <property name="kdenlive:original.meta.media.0.codec.rotate">0</property>
  <property name="kdenlive:original.meta.media.0.codec.frame_rate">29.97</property>
  <property name="kdenlive:original.meta.media.0.codec.pix_fmt">yuvj420p</property>
  <property name="kdenlive:original.meta.media.0.codec.sample_aspect_ratio">1</property>
  <property name="kdenlive:original.meta.media.0.codec.colorspace">709</property>
  <property name="kdenlive:original.meta.media.0.codec.color_trc">1</property>
  <property name="kdenlive:original.meta.media.0.codec.name">h264</property>
  <property name="kdenlive:original.meta.media.0.codec.long_name">H.264 / AVC / MPEG-4 AVC / MPEG-4 part 10</property>
  <property name="kdenlive:original.meta.media.0.codec.bit_rate">95797647</property>
  <property name="kdenlive:original.meta.attr.0.stream.creation_time.markup">2021-06-02T16:38:20.000000Z</property>
  <property name="kdenlive:original.meta.attr.0.stream.handler_name.markup">VideoHandler</property>
  <property name="kdenlive:original.meta.media.1.stream.type">audio</property>
  <property name="kdenlive:original.meta.media.1.codec.sample_fmt">fltp</property>
  <property name="kdenlive:original.meta.media.1.codec.sample_rate">48000</property>
  <property name="kdenlive:original.meta.media.1.codec.channels">2</property>
  <property name="kdenlive:original.meta.media.1.codec.name">aac</property>
  <property name="kdenlive:original.meta.media.1.codec.long_name">AAC (Advanced Audio Coding)</property>
  <property name="kdenlive:original.meta.media.1.codec.bit_rate">125376</property>
  <property name="kdenlive:original.meta.attr.1.stream.creation_time.markup">2021-06-02T16:38:20.000000Z</property>
  <property name="kdenlive:original.meta.attr.1.stream.handler_name.markup">SoundHandler</property>
  <property name="kdenlive:original.meta.attr.major_brand.markup">isom</property>
  <property name="kdenlive:original.meta.attr.minor_version.markup">512</property>
  <property name="kdenlive:original.meta.attr.compatible_brands.markup">isomiso2avc1mp41</property>
  <property name="kdenlive:original.meta.attr.creation_time.markup">2021-06-02T16:38:20.000000Z</property>
  <property name="kdenlive:original.meta.attr.encoder.markup">Lavf58.45.100</property>
  <property name="kdenlive:original.seekable">1</property>
  <property name="kdenlive:original.width">3840</property>
  <property name="kdenlive:original.height">2160</property>
  <property name="kdenlive:original.meta.media.sample_aspect_num">1</property>
  <property name="kdenlive:original.meta.media.sample_aspect_den">1</property>
  <property name="kdenlive:original.aspect_ratio">1</property>
  <property name="kdenlive:original.audio_index">1</property>
  <property name="kdenlive:original.video_index">0</property>
  <property name="kdenlive:original.mute_on_pause">0</property>
  <property name="kdenlive:original.mlt_service">avformat-novalidate</property>
  <property name="kdenlive:original.kdenlive:folderid">61</property>
  <property name="kdenlive:original.meta.media.frame_rate_num">30000</property>
  <property name="kdenlive:original.meta.media.frame_rate_den">1001</property>
  <property name="kdenlive:original.meta.media.colorspace">709</property>
  <property name="kdenlive:original.meta.media.color_trc">1</property>
  <property name="kdenlive:original.meta.media.width">3840</property>
  <property name="kdenlive:original.meta.media.height">2160</property>
  <property name="kdenlive:original.meta.media.color_range">full</property>
  <property name="kdenlive:original.kdenlive:id">77</property>
  <property name="kdenlive:original.kdenlive:file_size">1439613507</property>
  <property name="kdenlive:original.kdenlive:file_hash">9fb1dfa301d209bebd5e4f1097ec11b4</property>
  <property name="kdenlive:original.backup">1</property>
  <property name="kdenlive:audio_max">1</property>
  <property name="global_feed">1</property>
  <property name="meta.media.nb_streams">2</property>
  <property name="meta.media.0.stream.type">video</property>
  <property name="meta.media.0.stream.frame_rate">29.97</property>
  <property name="meta.media.0.stream.sample_aspect_ratio">1</property>
  <property name="meta.media.0.codec.width">640</property>
  <property name="meta.media.0.codec.height">360</property>
  <property name="meta.media.0.codec.rotate">0</property>
  <property name="meta.media.0.codec.frame_rate">1000</property>
  <property name="meta.media.0.codec.pix_fmt">yuvj420p</property>
  <property name="meta.media.0.codec.sample_aspect_ratio">1</property>
  <property name="meta.media.0.codec.colorspace">601</property>
  <property name="meta.media.0.codec.name">mjpeg</property>
  <property name="meta.media.0.codec.long_name">MJPEG (Motion JPEG)</property>
  <property name="meta.media.0.codec.bit_rate">0</property>
  <property name="meta.attr.0.stream.HANDLER_NAME.markup">VideoHandler</property>
  <property name="meta.attr.0.stream.ENCODER.markup">Lavc58.91.100 mjpeg</property>
  <property name="meta.attr.0.stream.DURATION.markup">00:02:00.186000000</property>
  <property name="meta.media.1.stream.type">audio</property>
  <property name="meta.media.1.codec.sample_fmt">s16</property>
  <property name="meta.media.1.codec.sample_rate">48000</property>
  <property name="meta.media.1.codec.channels">2</property>
  <property name="meta.media.1.codec.name">pcm_s16le</property>
  <property name="meta.media.1.codec.long_name">PCM signed 16-bit little-endian</property>
  <property name="meta.media.1.codec.bit_rate">1536000</property>
  <property name="meta.attr.1.stream.HANDLER_NAME.markup">SoundHandler</property>
  <property name="meta.attr.1.stream.ENCODER.markup">Lavc58.91.100 pcm_s16le</property>
  <property name="meta.attr.1.stream.DURATION.markup">00:02:00.085000000</property>
  <property name="meta.attr.COMPATIBLE_BRANDS.markup">isomiso2avc1mp41</property>
  <property name="meta.attr.MAJOR_BRAND.markup">isom</property>
  <property name="meta.attr.MINOR_VERSION.markup">512</property>
  <property name="meta.attr.ENCODER.markup">Lavf58.45.100</property>
  <property name="meta.media.sample_aspect_num">1</property>
  <property name="meta.media.sample_aspect_den">1</property>
  <property name="meta.media.frame_rate_num">30000</property>
  <property name="meta.media.frame_rate_den">1001</property>
  <property name="meta.media.colorspace">601</property>
  <property name="meta.media.color_trc">2</property>
  <property name="meta.media.width">640</property>
  <property name="meta.media.height">360</property>
  <property name="meta.media.color_range">full</property>
  <property name="meta.media.top_field_first">0</property>
  <property name="meta.media.progressive">1</property>
 </producer>
 <producer id="producer49" in="00:00:00.000" out="00:00:26.367">
  <property name="length">792</property>
  <property name="eof">pause</property>
  <property name="resource">/home/ryankelln/.cache/kdenlive/proxy/6da48a5fe5b9fead5eebc54a8e6b3694.mkv</property>
  <property name="audio_index">1</property>
  <property name="video_index">0</property>
  <property name="mute_on_pause">0</property>
  <property name="mlt_service">avformat-novalidate</property>
  <property name="seekable">1</property>
  <property name="aspect_ratio">1</property>
  <property name="kdenlive:clipname">2021-02-06_Chris_piano_4k_mason_P1180165-take6_end-merged.MP4</property>
  <property name="kdenlive:folderid">61</property>
  <property name="kdenlive:id">52</property>
  <property name="kdenlive:file_size">317250687</property>
  <property name="kdenlive:file_hash">6da48a5fe5b9fead5eebc54a8e6b3694</property>
  <property name="kdenlive:proxy">/home/ryankelln/.cache/kdenlive/proxy/6da48a5fe5b9fead5eebc54a8e6b3694.mkv</property>
  <property name="kdenlive:originalurl">content/musicians/2021-02-06_Chris_piano_4k_mason_P1180165-take6_end-merged.MP4</property>
  <property name="kdenlive:original.mlt_type">producer</property>
  <property name="kdenlive:original.in">0</property>
  <property name="kdenlive:original.out">791</property>
  <property name="kdenlive:original.length">792</property>
  <property name="kdenlive:original.eof">pause</property>
  <property name="kdenlive:original.resource">content/musicians/2021-02-06_Chris_piano_4k_mason_P1180165-take6_end-merged.MP4</property>
  <property name="kdenlive:original.meta.media.nb_streams">2</property>
  <property name="kdenlive:original.meta.media.0.stream.type">video</property>
  <property name="kdenlive:original.meta.media.0.stream.frame_rate">29.97</property>
  <property name="kdenlive:original.meta.media.0.stream.sample_aspect_ratio">1</property>
  <property name="kdenlive:original.meta.media.0.codec.width">3840</property>
  <property name="kdenlive:original.meta.media.0.codec.height">2160</property>
  <property name="kdenlive:original.meta.media.0.codec.rotate">0</property>
  <property name="kdenlive:original.meta.media.0.codec.frame_rate">29.97</property>
  <property name="kdenlive:original.meta.media.0.codec.pix_fmt">yuvj420p</property>
  <property name="kdenlive:original.meta.media.0.codec.sample_aspect_ratio">1</property>
  <property name="kdenlive:original.meta.media.0.codec.colorspace">709</property>
  <property name="kdenlive:original.meta.media.0.codec.color_trc">1</property>
  <property name="kdenlive:original.meta.media.0.codec.name">h264</property>
  <property name="kdenlive:original.meta.media.0.codec.long_name">H.264 / AVC / MPEG-4 AVC / MPEG-4 part 10</property>
  <property name="kdenlive:original.meta.media.0.codec.bit_rate">96149115</property>
  <property name="kdenlive:original.meta.attr.0.stream.handler_name.markup">VideoHandler</property>
  <property name="kdenlive:original.meta.media.1.stream.type">audio</property>
  <property name="kdenlive:original.meta.media.1.codec.sample_fmt">fltp</property>
  <property name="kdenlive:original.meta.media.1.codec.sample_rate">48000</property>
  <property name="kdenlive:original.meta.media.1.codec.channels">2</property>
  <property name="kdenlive:original.meta.media.1.codec.name">aac</property>
  <property name="kdenlive:original.meta.media.1.codec.long_name">AAC (Advanced Audio Coding)</property>
  <property name="kdenlive:original.meta.media.1.codec.bit_rate">125406</property>
  <property name="kdenlive:original.meta.attr.1.stream.handler_name.markup">SoundHandler</property>
  <property name="kdenlive:original.meta.attr.major_brand.markup">isom</property>
  <property name="kdenlive:original.meta.attr.minor_version.markup">512</property>
  <property name="kdenlive:original.meta.attr.compatible_brands.markup">isomiso2avc1mp41</property>
  <property name="kdenlive:original.meta.attr.encoder.markup">Lavf58.45.100</property>
  <property name="kdenlive:original.seekable">1</property>
  <property name="kdenlive:original.width">3840</property>
  <property name="kdenlive:original.height">2160</property>
  <property name="kdenlive:original.meta.media.sample_aspect_num">1</property>
  <property name="kdenlive:original.meta.media.sample_aspect_den">1</property>
  <property name="kdenlive:original.aspect_ratio">1</property>
  <property name="kdenlive:original.audio_index">1</property>
  <property name="kdenlive:original.video_index">0</property>
  <property name="kdenlive:original.mute_on_pause">0</property>
  <property name="kdenlive:original.mlt_service">avformat-novalidate</property>
  <property name="kdenlive:original.kdenlive:folderid">61</property>
  <property name="kdenlive:original.meta.media.frame_rate_num">30000</property>
  <property name="kdenlive:original.meta.media.frame_rate_den">1001</property>
  <property name="kdenlive:original.meta.media.colorspace">709</property>
  <property name="kdenlive:original.meta.media.color_trc">1</property>
  <property name="kdenlive:original.meta.media.width">3840</property>
  <property name="kdenlive:original.meta.media.height">2160</property>
  <property name="kdenlive:original.meta.media.color_range">full</property>
  <property name="kdenlive:original.kdenlive:id">78</property>
  <property name="kdenlive:original.kdenlive:file_size">317250687</property>
  <property name="kdenlive:original.kdenlive:file_hash">6da48a5fe5b9fead5eebc54a8e6b3694</property>
  <property name="kdenlive:original.backup">1</property>
  <property name="kdenlive:audio_max">1</property>
  <property name="global_feed">1</property>
  <property name="meta.media.nb_streams">2</property>
  <property name="meta.media.0.stream.type">video</property>
  <property name="meta.media.0.stream.frame_rate">29.97</property>
  <property name="meta.media.0.stream.sample_aspect_ratio">1</property>
  <property name="meta.media.0.codec.width">640</property>
  <property name="meta.media.0.codec.height">360</property>
  <property name="meta.media.0.codec.rotate">0</property>
  <property name="meta.media.0.codec.frame_rate">1000</property>
  <property name="meta.media.0.codec.pix_fmt">yuvj420p</property>
  <property name="meta.media.0.codec.sample_aspect_ratio">1</property>
  <property name="meta.media.0.codec.colorspace">601</property>
  <property name="meta.media.0.codec.name">mjpeg</property>
  <property name="meta.media.0.codec.long_name">MJPEG (Motion JPEG)</property>
  <property name="meta.media.0.codec.bit_rate">0</property>
  <property name="meta.attr.0.stream.HANDLER_NAME.markup">VideoHandler</property>
  <property name="meta.attr.0.stream.ENCODER.markup">Lavc58.91.100 mjpeg</property>
  <property name="meta.attr.0.stream.DURATION.markup">00:00:26.459000000</property>
  <property name="meta.media.1.stream.type">audio</property>
  <property name="meta.media.1.codec.sample_fmt">s16</property>
  <property name="meta.media.1.codec.sample_rate">48000</property>
  <property name="meta.media.1.codec.channels">2</property>
  <property name="meta.media.1.codec.name">pcm_s16le</property>
  <property name="meta.media.1.codec.long_name">PCM signed 16-bit little-endian</property>
  <property name="meta.media.1.codec.bit_rate">1536000</property>
  <property name="meta.attr.1.stream.HANDLER_NAME.markup">SoundHandler</property>
  <property name="meta.attr.1.stream.ENCODER.markup">Lavc58.91.100 pcm_s16le</property>
  <property name="meta.attr.1.stream.DURATION.markup">00:00:26.383000000</property>
  <property name="meta.attr.COMPATIBLE_BRANDS.markup">isomiso2avc1mp41</property>
  <property name="meta.attr.MAJOR_BRAND.markup">isom</property>
  <property name="meta.attr.MINOR_VERSION.markup">512</property>
  <property name="meta.attr.ENCODER.markup">Lavf58.45.100</property>
  <property name="meta.media.sample_aspect_num">1</property>
  <property name="meta.media.sample_aspect_den">1</property>
  <property name="meta.media.frame_rate_num">30000</property>
  <property name="meta.media.frame_rate_den">1001</property>
  <property name="meta.media.colorspace">601</property>
  <property name="meta.media.color_trc">2</property>
  <property name="meta.media.width">640</property>
  <property name="meta.media.height">360</property>
  <property name="meta.media.color_range">full</property>
  <property name="meta.media.top_field_first">0</property>
  <property name="meta.media.progressive">1</property>
 </producer>
 <producer id="producer51" in="00:00:00.000" out="00:01:47.033">
  <property name="length">3212</property>
  <property name="eof">pause</property>
  <property name="resource">/home/ryankelln/.cache/kdenlive/proxy/7dc99253e47acdf9dfb39f20e2a0207d.mkv</property>
  <property name="audio_index">1</property>
  <property name="video_index">0</property>
  <property name="mute_on_pause">0</property>
  <property name="mlt_service">avformat-novalidate</property>
  <property name="seekable">1</property>
  <property name="aspect_ratio">1</property>
  <property name="kdenlive:clipname">2021-06-02_Caleb_upright+4k+projector_mason_P1000563.MP4</property>
  <property name="kdenlive:folderid">61</property>
  <property name="kdenlive:id">53</property>
  <property name="kdenlive:file_size">1283784358</property>
  <property name="kdenlive:file_hash">7dc99253e47acdf9dfb39f20e2a0207d</property>
  <property name="kdenlive:proxy">/home/ryankelln/.cache/kdenlive/proxy/7dc99253e47acdf9dfb39f20e2a0207d.mkv</property>
  <property name="kdenlive:originalurl">content/musicians/2021-06-02_Caleb_upright+4k+projector_mason_P1000563.MP4</property>
  <property name="kdenlive:original.mlt_type">producer</property>
  <property name="kdenlive:original.in">0</property>
  <property name="kdenlive:original.out">3211</property>
  <property name="kdenlive:original.length">3212</property>
  <property name="kdenlive:original.eof">pause</property>
  <property name="kdenlive:original.resource">content/musicians/2021-06-02_Caleb_upright+4k+projector_mason_P1000563.MP4</property>
  <property name="kdenlive:original.meta.media.nb_streams">2</property>
  <property name="kdenlive:original.meta.media.0.stream.type">video</property>
  <property name="kdenlive:original.meta.media.0.stream.frame_rate">29.97</property>
  <property name="kdenlive:original.meta.media.0.stream.sample_aspect_ratio">1</property>
  <property name="kdenlive:original.meta.media.0.codec.width">3328</property>
  <property name="kdenlive:original.meta.media.0.codec.height">2496</property>
  <property name="kdenlive:original.meta.media.0.codec.rotate">0</property>
  <property name="kdenlive:original.meta.media.0.codec.frame_rate">29.97</property>
  <property name="kdenlive:original.meta.media.0.codec.pix_fmt">yuvj420p</property>
  <property name="kdenlive:original.meta.media.0.codec.sample_aspect_ratio">1</property>
  <property name="kdenlive:original.meta.media.0.codec.colorspace">709</property>
  <property name="kdenlive:original.meta.media.0.codec.color_trc">1</property>
  <property name="kdenlive:original.meta.media.0.codec.name">h264</property>
  <property name="kdenlive:original.meta.media.0.codec.long_name">H.264 / AVC / MPEG-4 AVC / MPEG-4 part 10</property>
  <property name="kdenlive:original.meta.media.0.codec.bit_rate">95813776</property>
  <property name="kdenlive:original.meta.attr.0.stream.creation_time.markup">2021-06-02T16:59:46.000000Z</property>
  <property name="kdenlive:original.meta.attr.0.stream.handler_name.markup">VideoHandler</property>
  <property name="kdenlive:original.meta.media.1.stream.type">audio</property>
  <property name="kdenlive:original.meta.media.1.codec.sample_fmt">fltp</property>
  <property name="kdenlive:original.meta.media.1.codec.sample_rate">48000</property>
  <property name="kdenlive:original.meta.media.1.codec.channels">2</property>
  <property name="kdenlive:original.meta.media.1.codec.name">aac</property>
  <property name="kdenlive:original.meta.media.1.codec.long_name">AAC (Advanced Audio Coding)</property>
  <property name="kdenlive:original.meta.media.1.codec.bit_rate">125375</property>
  <property name="kdenlive:original.meta.attr.1.stream.creation_time.markup">2021-06-02T16:59:46.000000Z</property>
  <property name="kdenlive:original.meta.attr.1.stream.handler_name.markup">SoundHandler</property>
  <property name="kdenlive:original.meta.attr.major_brand.markup">isom</property>
  <property name="kdenlive:original.meta.attr.minor_version.markup">512</property>
  <property name="kdenlive:original.meta.attr.compatible_brands.markup">isomiso2avc1mp41</property>
  <property name="kdenlive:original.meta.attr.creation_time.markup">2021-06-02T16:59:46.000000Z</property>
  <property name="kdenlive:original.meta.attr.encoder.markup">Lavf58.45.100</property>
  <property name="kdenlive:original.seekable">1</property>
  <property name="kdenlive:original.width">3328</property>
  <property name="kdenlive:original.height">2496</property>
  <property name="kdenlive:original.meta.media.sample_aspect_num">1</property>
  <property name="kdenlive:original.meta.media.sample_aspect_den">1</property>
  <property name="kdenlive:original.aspect_ratio">1</property>
  <property name="kdenlive:original.audio_index">1</property>
  <property name="kdenlive:original.video_index">0</property>
  <property name="kdenlive:original.mute_on_pause">0</property>
  <property name="kdenlive:original.mlt_service">avformat-novalidate</property>
  <property name="kdenlive:original.kdenlive:folderid">61</property>
  <property name="kdenlive:original.meta.media.frame_rate_num">30000</property>
  <property name="kdenlive:original.meta.media.frame_rate_den">1001</property>
  <property name="kdenlive:original.meta.media.colorspace">709</property>
  <property name="kdenlive:original.meta.media.color_trc">1</property>
  <property name="kdenlive:original.meta.media.width">3328</property>
  <property name="kdenlive:original.meta.media.height">2496</property>
  <property name="kdenlive:original.meta.media.color_range">full</property>
  <property name="kdenlive:original.kdenlive:id">79</property>
  <property name="kdenlive:original.kdenlive:file_size">1283784358</property>
  <property name="kdenlive:original.kdenlive:file_hash">7dc99253e47acdf9dfb39f20e2a0207d</property>
  <property name="kdenlive:original.backup">1</property>
  <property name="kdenlive:audio_max">1</property>
  <property name="global_feed">1</property>
  <property name="meta.media.nb_streams">2</property>
  <property name="meta.media.0.stream.type">video</property>
  <property name="meta.media.0.stream.frame_rate">29.97</property>
  <property name="meta.media.0.stream.sample_aspect_ratio">1</property>
  <property name="meta.media.0.codec.width">640</property>
  <property name="meta.media.0.codec.height">480</property>
  <property name="meta.media.0.codec.rotate">0</property>
  <property name="meta.media.0.codec.frame_rate">1000</property>
  <property name="meta.media.0.codec.pix_fmt">yuvj420p</property>
  <property name="meta.media.0.codec.sample_aspect_ratio">1</property>
  <property name="meta.media.0.codec.colorspace">601</property>
  <property name="meta.media.0.codec.name">mjpeg</property>
  <property name="meta.media.0.codec.long_name">MJPEG (Motion JPEG)</property>
  <property name="meta.media.0.codec.bit_rate">0</property>
  <property name="meta.attr.0.stream.HANDLER_NAME.markup">VideoHandler</property>
  <property name="meta.attr.0.stream.ENCODER.markup">Lavc58.91.100 mjpeg</property>
  <property name="meta.attr.0.stream.DURATION.markup">00:01:47.173000000</property>
  <property name="meta.media.1.stream.type">audio</property>
  <property name="meta.media.1.codec.sample_fmt">s16</property>
  <property name="meta.media.1.codec.sample_rate">48000</property>
  <property name="meta.media.1.codec.channels">2</property>
  <property name="meta.media.1.codec.name">pcm_s16le</property>
  <property name="meta.media.1.codec.long_name">PCM signed 16-bit little-endian</property>
  <property name="meta.media.1.codec.bit_rate">1536000</property>
  <property name="meta.attr.1.stream.HANDLER_NAME.markup">SoundHandler</property>
  <property name="meta.attr.1.stream.ENCODER.markup">Lavc58.91.100 pcm_s16le</property>
  <property name="meta.attr.1.stream.DURATION.markup">00:01:47.050000000</property>
  <property name="meta.attr.COMPATIBLE_BRANDS.markup">isomiso2avc1mp41</property>
  <property name="meta.attr.MAJOR_BRAND.markup">isom</property>
  <property name="meta.attr.MINOR_VERSION.markup">512</property>
  <property name="meta.attr.ENCODER.markup">Lavf58.45.100</property>
  <property name="meta.media.sample_aspect_num">1</property>
  <property name="meta.media.sample_aspect_den">1</property>
  <property name="meta.media.frame_rate_num">30000</property>
  <property name="meta.media.frame_rate_den">1001</property>
  <property name="meta.media.colorspace">601</property>
  <property name="meta.media.color_trc">2</property>
  <property name="meta.media.width">640</property>
  <property name="meta.media.height">480</property>
  <property name="meta.media.color_range">full</property>
  <property name="meta.media.top_field_first">0</property>
  <property name="meta.media.progressive">1</property>
 </producer>
 <producer id="producer53" in="00:00:00.000" out="00:01:59.867">
  <property name="length">3597</property>
  <property name="eof">pause</property>
  <property name="resource">/home/ryankelln/.cache/kdenlive/proxy/ff93e1e4d8a06c8e6f65a87d02583af8.mkv</property>
  <property name="audio_index">1</property>
  <property name="video_index">0</property>
  <property name="mute_on_pause">0</property>
  <property name="mlt_service">avformat-novalidate</property>
  <property name="seekable">1</property>
  <property name="aspect_ratio">1</property>
  <property name="kdenlive:clipname">2021-06-02_Caleb_upright+4k+portrait_mason_P1000556-take5_m125_to_end.MP4</property>
  <property name="kdenlive:folderid">61</property>
  <property name="kdenlive:id">54</property>
  <property name="kdenlive:file_size">1436512122</property>
  <property name="kdenlive:file_hash">ff93e1e4d8a06c8e6f65a87d02583af8</property>
  <property name="kdenlive:proxy">/home/ryankelln/.cache/kdenlive/proxy/ff93e1e4d8a06c8e6f65a87d02583af8.mkv</property>
  <property name="kdenlive:originalurl">content/musicians/2021-06-02_Caleb_upright+4k+portrait_mason_P1000556-take5_m125_to_end.MP4</property>
  <property name="kdenlive:original.mlt_type">producer</property>
  <property name="kdenlive:original.in">0</property>
  <property name="kdenlive:original.out">3596</property>
  <property name="kdenlive:original.length">3597</property>
  <property name="kdenlive:original.eof">pause</property>
  <property name="kdenlive:original.resource">content/musicians/2021-06-02_Caleb_upright+4k+portrait_mason_P1000556-take5_m125_to_end.MP4</property>
  <property name="kdenlive:original.meta.media.nb_streams">2</property>
  <property name="kdenlive:original.meta.media.0.stream.type">video</property>
  <property name="kdenlive:original.meta.media.0.stream.frame_rate">29.97</property>
  <property name="kdenlive:original.meta.media.0.stream.sample_aspect_ratio">1</property>
  <property name="kdenlive:original.meta.media.0.codec.width">3328</property>
  <property name="kdenlive:original.meta.media.0.codec.height">2496</property>
  <property name="kdenlive:original.meta.media.0.codec.rotate">90</property>
  <property name="kdenlive:original.meta.media.0.codec.frame_rate">29.97</property>
  <property name="kdenlive:original.meta.media.0.codec.pix_fmt">yuvj420p</property>
  <property name="kdenlive:original.meta.media.0.codec.sample_aspect_ratio">1</property>
  <property name="kdenlive:original.meta.media.0.codec.colorspace">709</property>
  <property name="kdenlive:original.meta.media.0.codec.color_trc">1</property>
  <property name="kdenlive:original.meta.media.0.codec.name">h264</property>
  <property name="kdenlive:original.meta.media.0.codec.long_name">H.264 / AVC / MPEG-4 AVC / MPEG-4 part 10</property>
  <property name="kdenlive:original.meta.media.0.codec.bit_rate">95750870</property>
  <property name="kdenlive:original.meta.attr.0.stream.rotate.markup">90</property>
  <property name="kdenlive:original.meta.attr.0.stream.creation_time.markup">2021-06-02T16:40:11.000000Z</property>
  <property name="kdenlive:original.meta.attr.0.stream.handler_name.markup">VideoHandler</property>
  <property name="kdenlive:original.meta.media.1.stream.type">audio</property>
  <property name="kdenlive:original.meta.media.1.codec.sample_fmt">fltp</property>
  <property name="kdenlive:original.meta.media.1.codec.sample_rate">48000</property>
  <property name="kdenlive:original.meta.media.1.codec.channels">2</property>
  <property name="kdenlive:original.meta.media.1.codec.name">aac</property>
  <property name="kdenlive:original.meta.media.1.codec.long_name">AAC (Advanced Audio Coding)</property>
  <property name="kdenlive:original.meta.media.1.codec.bit_rate">125374</property>
  <property name="kdenlive:original.meta.attr.1.stream.creation_time.markup">2021-06-02T16:40:11.000000Z</property>
  <property name="kdenlive:original.meta.attr.1.stream.handler_name.markup">SoundHandler</property>
  <property name="kdenlive:original.meta.attr.major_brand.markup">isom</property>
  <property name="kdenlive:original.meta.attr.minor_version.markup">512</property>
  <property name="kdenlive:original.meta.attr.compatible_brands.markup">isomiso2avc1mp41</property>
  <property name="kdenlive:original.meta.attr.creation_time.markup">2021-06-02T16:40:11.000000Z</property>
  <property name="kdenlive:original.meta.attr.encoder.markup">Lavf58.45.100</property>
  <property name="kdenlive:original.seekable">1</property>
  <property name="kdenlive:original.width">3328</property>
  <property name="kdenlive:original.height">2496</property>
  <property name="kdenlive:original.meta.media.sample_aspect_num">1</property>
  <property name="kdenlive:original.meta.media.sample_aspect_den">1</property>
  <property name="kdenlive:original.aspect_ratio">1</property>
  <property name="kdenlive:original.audio_index">1</property>
  <property name="kdenlive:original.video_index">0</property>
  <property name="kdenlive:original.mute_on_pause">0</property>
  <property name="kdenlive:original.mlt_service">avformat-novalidate</property>
  <property name="kdenlive:original.kdenlive:folderid">61</property>
  <property name="kdenlive:original.meta.media.frame_rate_num">30000</property>
  <property name="kdenlive:original.meta.media.frame_rate_den">1001</property>
  <property name="kdenlive:original.meta.media.colorspace">709</property>
  <property name="kdenlive:original.meta.media.color_trc">1</property>
  <property name="kdenlive:original.meta.media.width">2496</property>
  <property name="kdenlive:original.meta.media.height">3328</property>
  <property name="kdenlive:original.meta.media.color_range">full</property>
  <property name="kdenlive:original.kdenlive:id">80</property>
  <property name="kdenlive:original.kdenlive:file_size">1436512122</property>
  <property name="kdenlive:original.kdenlive:file_hash">ff93e1e4d8a06c8e6f65a87d02583af8</property>
  <property name="kdenlive:original.backup">1</property>
  <property name="kdenlive:audio_max">1</property>
  <property name="global_feed">1</property>
  <property name="meta.media.nb_streams">2</property>
  <property name="meta.media.0.stream.type">video</property>
  <property name="meta.media.0.stream.frame_rate">29.97</property>
  <property name="meta.media.0.stream.sample_aspect_ratio">1</property>
  <property name="meta.media.0.codec.width">640</property>
  <property name="meta.media.0.codec.height">854</property>
  <property name="meta.media.0.codec.rotate">0</property>
  <property name="meta.media.0.codec.frame_rate">1000</property>
  <property name="meta.media.0.codec.pix_fmt">yuvj420p</property>
  <property name="meta.media.0.codec.sample_aspect_ratio">1.00078</property>
  <property name="meta.media.0.codec.colorspace">601</property>
  <property name="meta.media.0.codec.name">mjpeg</property>
  <property name="meta.media.0.codec.long_name">MJPEG (Motion JPEG)</property>
  <property name="meta.media.0.codec.bit_rate">0</property>
  <property name="meta.attr.0.stream.ENCODER.markup">Lavc58.91.100 mjpeg</property>
  <property name="meta.attr.0.stream.HANDLER_NAME.markup">VideoHandler</property>
  <property name="meta.attr.0.stream.DURATION.markup">00:01:59.953000000</property>
  <property name="meta.media.1.stream.type">audio</property>
  <property name="meta.media.1.codec.sample_fmt">s16</property>
  <property name="meta.media.1.codec.sample_rate">48000</property>
  <property name="meta.media.1.codec.channels">2</property>
  <property name="meta.media.1.codec.name">pcm_s16le</property>
  <property name="meta.media.1.codec.long_name">PCM signed 16-bit little-endian</property>
  <property name="meta.media.1.codec.bit_rate">1536000</property>
  <property name="meta.attr.1.stream.HANDLER_NAME.markup">SoundHandler</property>
  <property name="meta.attr.1.stream.ENCODER.markup">Lavc58.91.100 pcm_s16le</property>
  <property name="meta.attr.1.stream.DURATION.markup">00:01:59.893000000</property>
  <property name="meta.attr.COMPATIBLE_BRANDS.markup">isomiso2avc1mp41</property>
  <property name="meta.attr.MAJOR_BRAND.markup">isom</property>
  <property name="meta.attr.MINOR_VERSION.markup">512</property>
  <property name="meta.attr.ENCODER.markup">Lavf58.45.100</property>
  <property name="meta.media.sample_aspect_num">1</property>
  <property name="meta.media.sample_aspect_den">1</property>
  <property name="meta.media.frame_rate_num">30000</property>
  <property name="meta.media.frame_rate_den">1001</property>
  <property name="meta.media.colorspace">601</property>
  <property name="meta.media.color_trc">2</property>
  <property name="meta.media.width">640</property>
  <property name="meta.media.height">854</property>
  <property name="meta.media.color_range">full</property>
  <property name="meta.media.top_field_first">0</property>
  <property name="meta.media.progressive">1</property>
 </producer>
 <producer id="producer52" in="00:00:00.000" out="00:00:28.133">
  <property name="length">845</property>
  <property name="eof">pause</property>
  <property name="resource">/home/ryankelln/.cache/kdenlive/proxy/c673807695542cb1abbbd33f0f1f8c7c.mkv</property>
  <property name="audio_index">1</property>
  <property name="video_index">0</property>
  <property name="mute_on_pause">0</property>
  <property name="mlt_service">avformat-novalidate</property>
  <property name="seekable">1</property>
  <property name="aspect_ratio">1</property>
  <property name="kdenlive:clipname">2021-06-02_Caleb_upright+4k+portrait_mason_P1000556-take6_end.MP4</property>
  <property name="kdenlive:folderid">61</property>
  <property name="kdenlive:id">55</property>
  <property name="kdenlive:file_size">338422222</property>
  <property name="kdenlive:file_hash">c673807695542cb1abbbd33f0f1f8c7c</property>
  <property name="kdenlive:proxy">/home/ryankelln/.cache/kdenlive/proxy/c673807695542cb1abbbd33f0f1f8c7c.mkv</property>
  <property name="kdenlive:originalurl">content/musicians/2021-06-02_Caleb_upright+4k+portrait_mason_P1000556-take6_end.MP4</property>
  <property name="kdenlive:original.mlt_type">producer</property>
  <property name="kdenlive:original.in">0</property>
  <property name="kdenlive:original.out">844</property>
  <property name="kdenlive:original.length">845</property>
  <property name="kdenlive:original.eof">pause</property>
  <property name="kdenlive:original.resource">content/musicians/2021-06-02_Caleb_upright+4k+portrait_mason_P1000556-take6_end.MP4</property>
  <property name="kdenlive:original.meta.media.nb_streams">2</property>
  <property name="kdenlive:original.meta.media.0.stream.type">video</property>
  <property name="kdenlive:original.meta.media.0.stream.frame_rate">29.97</property>
  <property name="kdenlive:original.meta.media.0.stream.sample_aspect_ratio">1</property>
  <property name="kdenlive:original.meta.media.0.codec.width">3328</property>
  <property name="kdenlive:original.meta.media.0.codec.height">2496</property>
  <property name="kdenlive:original.meta.media.0.codec.rotate">90</property>
  <property name="kdenlive:original.meta.media.0.codec.frame_rate">29.97</property>
  <property name="kdenlive:original.meta.media.0.codec.pix_fmt">yuvj420p</property>
  <property name="kdenlive:original.meta.media.0.codec.sample_aspect_ratio">1</property>
  <property name="kdenlive:original.meta.media.0.codec.colorspace">709</property>
  <property name="kdenlive:original.meta.media.0.codec.color_trc">1</property>
  <property name="kdenlive:original.meta.media.0.codec.name">h264</property>
  <property name="kdenlive:original.meta.media.0.codec.long_name">H.264 / AVC / MPEG-4 AVC / MPEG-4 part 10</property>
  <property name="kdenlive:original.meta.media.0.codec.bit_rate">96345774</property>
  <property name="kdenlive:original.meta.attr.0.stream.rotate.markup">90</property>
  <property name="kdenlive:original.meta.attr.0.stream.creation_time.markup">2021-06-02T16:40:11.000000Z</property>
  <property name="kdenlive:original.meta.attr.0.stream.handler_name.markup">VideoHandler</property>
  <property name="kdenlive:original.meta.media.1.stream.type">audio</property>
  <property name="kdenlive:original.meta.media.1.codec.sample_fmt">fltp</property>
  <property name="kdenlive:original.meta.media.1.codec.sample_rate">48000</property>
  <property name="kdenlive:original.meta.media.1.codec.channels">2</property>
  <property name="kdenlive:original.meta.media.1.codec.name">aac</property>
  <property name="kdenlive:original.meta.media.1.codec.long_name">AAC (Advanced Audio Coding)</property>
  <property name="kdenlive:original.meta.media.1.codec.bit_rate">125378</property>
  <property name="kdenlive:original.meta.attr.1.stream.creation_time.markup">2021-06-02T16:40:11.000000Z</property>
  <property name="kdenlive:original.meta.attr.1.stream.handler_name.markup">SoundHandler</property>
  <property name="kdenlive:original.meta.attr.major_brand.markup">isom</property>
  <property name="kdenlive:original.meta.attr.minor_version.markup">512</property>
  <property name="kdenlive:original.meta.attr.compatible_brands.markup">isomiso2avc1mp41</property>
  <property name="kdenlive:original.meta.attr.creation_time.markup">2021-06-02T16:40:11.000000Z</property>
  <property name="kdenlive:original.meta.attr.encoder.markup">Lavf58.45.100</property>
  <property name="kdenlive:original.seekable">1</property>
  <property name="kdenlive:original.width">3328</property>
  <property name="kdenlive:original.height">2496</property>
  <property name="kdenlive:original.meta.media.sample_aspect_num">1</property>
  <property name="kdenlive:original.meta.media.sample_aspect_den">1</property>
  <property name="kdenlive:original.aspect_ratio">1</property>
  <property name="kdenlive:original.audio_index">1</property>
  <property name="kdenlive:original.video_index">0</property>
  <property name="kdenlive:original.mute_on_pause">0</property>
  <property name="kdenlive:original.mlt_service">avformat-novalidate</property>
  <property name="kdenlive:original.kdenlive:folderid">61</property>
  <property name="kdenlive:original.meta.media.frame_rate_num">30000</property>
  <property name="kdenlive:original.meta.media.frame_rate_den">1001</property>
  <property name="kdenlive:original.meta.media.colorspace">709</property>
  <property name="kdenlive:original.meta.media.color_trc">1</property>
  <property name="kdenlive:original.meta.media.width">2496</property>
  <property name="kdenlive:original.meta.media.height">3328</property>
  <property name="kdenlive:original.meta.media.color_range">full</property>
  <property name="kdenlive:original.kdenlive:id">81</property>
  <property name="kdenlive:original.kdenlive:file_size">338422222</property>
  <property name="kdenlive:original.kdenlive:file_hash">c673807695542cb1abbbd33f0f1f8c7c</property>
  <property name="kdenlive:original.backup">1</property>
  <property name="kdenlive:audio_max">1</property>
  <property name="global_feed">1</property>
  <property name="meta.media.nb_streams">2</property>
  <property name="meta.media.0.stream.type">video</property>
  <property name="meta.media.0.stream.frame_rate">29.97</property>
  <property name="meta.media.0.stream.sample_aspect_ratio">1</property>
  <property name="meta.media.0.codec.width">640</property>
  <property name="meta.media.0.codec.height">854</property>
  <property name="meta.media.0.codec.rotate">0</property>
  <property name="meta.media.0.codec.frame_rate">1000</property>
  <property name="meta.media.0.codec.pix_fmt">yuvj420p</property>
  <property name="meta.media.0.codec.sample_aspect_ratio">1.00078</property>
  <property name="meta.media.0.codec.colorspace">601</property>
  <property name="meta.media.0.codec.name">mjpeg</property>
  <property name="meta.media.0.codec.long_name">MJPEG (Motion JPEG)</property>
  <property name="meta.media.0.codec.bit_rate">0</property>
  <property name="meta.attr.0.stream.ENCODER.markup">Lavc58.91.100 mjpeg</property>
  <property name="meta.attr.0.stream.HANDLER_NAME.markup">VideoHandler</property>
  <property name="meta.attr.0.stream.DURATION.markup">00:00:28.161000000</property>
  <property name="meta.media.1.stream.type">audio</property>
  <property name="meta.media.1.codec.sample_fmt">s16</property>
  <property name="meta.media.1.codec.sample_rate">48000</property>
  <property name="meta.media.1.codec.channels">2</property>
  <property name="meta.media.1.codec.name">pcm_s16le</property>
  <property name="meta.media.1.codec.long_name">PCM signed 16-bit little-endian</property>
  <property name="meta.media.1.codec.bit_rate">1536000</property>
  <property name="meta.attr.1.stream.HANDLER_NAME.markup">SoundHandler</property>
  <property name="meta.attr.1.stream.ENCODER.markup">Lavc58.91.100 pcm_s16le</property>
  <property name="meta.attr.1.stream.DURATION.markup">00:00:28.160000000</property>
  <property name="meta.attr.COMPATIBLE_BRANDS.markup">isomiso2avc1mp41</property>
  <property name="meta.attr.MAJOR_BRAND.markup">isom</property>
  <property name="meta.attr.MINOR_VERSION.markup">512</property>
  <property name="meta.attr.ENCODER.markup">Lavf58.45.100</property>
  <property name="meta.media.sample_aspect_num">1</property>
  <property name="meta.media.sample_aspect_den">1</property>
  <property name="meta.media.frame_rate_num">30000</property>
  <property name="meta.media.frame_rate_den">1001</property>
  <property name="meta.media.colorspace">601</property>
  <property name="meta.media.color_trc">2</property>
  <property name="meta.media.width">640</property>
  <property name="meta.media.height">854</property>
  <property name="meta.media.color_range">full</property>
  <property name="meta.media.top_field_first">0</property>
  <property name="meta.media.progressive">1</property>
 </producer>
 <producer id="producer55" in="00:00:00.000" out="00:01:59.433">
  <property name="length">3584</property>
  <property name="eof">pause</property>
  <property name="resource">/home/ryankelln/.cache/kdenlive/proxy/ae9d9a1ea608f68f4887360253e6d40b.mkv</property>
  <property name="audio_index">-1</property>
  <property name="video_index">0</property>
  <property name="mute_on_pause">0</property>
  <property name="mlt_service">avformat-novalidate</property>
  <property name="seekable">1</property>
  <property name="aspect_ratio">1</property>
  <property name="kdenlive:clipname">2021-02-06_21-28-22_Chris_piano_mason_C0021-take5_m125_to_end.MP4</property>
  <property name="kdenlive:folderid">61</property>
  <property name="kdenlive:id">56</property>
  <property name="kdenlive:file_size">740961714</property>
  <property name="kdenlive:file_hash">ae9d9a1ea608f68f4887360253e6d40b</property>
  <property name="kdenlive:proxy">/home/ryankelln/.cache/kdenlive/proxy/ae9d9a1ea608f68f4887360253e6d40b.mkv</property>
  <property name="kdenlive:originalurl">content/musicians/2021-02-06_21-28-22_Chris_piano_mason_C0021-take5_m125_to_end.MP4</property>
  <property name="kdenlive:original.mlt_type">producer</property>
  <property name="kdenlive:original.in">0</property>
  <property name="kdenlive:original.out">3583</property>
  <property name="kdenlive:original.length">3584</property>
  <property name="kdenlive:original.eof">pause</property>
  <property name="kdenlive:original.resource">content/musicians/2021-02-06_21-28-22_Chris_piano_mason_C0021-take5_m125_to_end.MP4</property>
  <property name="kdenlive:original.meta.media.nb_streams">1</property>
  <property name="kdenlive:original.meta.media.0.stream.type">video</property>
  <property name="kdenlive:original.meta.media.0.stream.frame_rate">29.97</property>
  <property name="kdenlive:original.meta.media.0.stream.sample_aspect_ratio">1</property>
  <property name="kdenlive:original.meta.media.0.codec.width">1920</property>
  <property name="kdenlive:original.meta.media.0.codec.height">1080</property>
  <property name="kdenlive:original.meta.media.0.codec.rotate">0</property>
  <property name="kdenlive:original.meta.media.0.codec.frame_rate">29.97</property>
  <property name="kdenlive:original.meta.media.0.codec.pix_fmt">yuv420p</property>
  <property name="kdenlive:original.meta.media.0.codec.sample_aspect_ratio">1</property>
  <property name="kdenlive:original.meta.media.0.codec.colorspace">709</property>
  <property name="kdenlive:original.meta.media.0.codec.color_trc">1</property>
  <property name="kdenlive:original.meta.media.0.codec.name">h264</property>
  <property name="kdenlive:original.meta.media.0.codec.long_name">H.264 / AVC / MPEG-4 AVC / MPEG-4 part 10</property>
  <property name="kdenlive:original.meta.media.0.codec.bit_rate">49620917</property>
  <property name="kdenlive:original.meta.attr.0.stream.creation_time.markup">2021-06-03T21:28:22.000000Z</property>
  <property name="kdenlive:original.meta.attr.0.stream.handler_name.markup">Video Media Handler</property>
  <property name="kdenlive:original.meta.attr.major_brand.markup">isom</property>
  <property name="kdenlive:original.meta.attr.minor_version.markup">512</property>
  <property name="kdenlive:original.meta.attr.compatible_brands.markup">isomiso2avc1mp41</property>
  <property name="kdenlive:original.meta.attr.creation_time.markup">2021-06-03T21:28:22.000000Z</property>
  <property name="kdenlive:original.meta.attr.encoder.markup">Lavf58.45.100</property>
  <property name="kdenlive:original.seekable">1</property>
  <property name="kdenlive:original.width">1920</property>
  <property name="kdenlive:original.height">1080</property>
  <property name="kdenlive:original.meta.media.sample_aspect_num">1</property>
  <property name="kdenlive:original.meta.media.sample_aspect_den">1</property>
  <property name="kdenlive:original.aspect_ratio">1</property>
  <property name="kdenlive:original.audio_index">-1</property>
  <property name="kdenlive:original.video_index">0</property>
  <property name="kdenlive:original.mute_on_pause">0</property>
  <property name="kdenlive:original.mlt_service">avformat-novalidate</property>
  <property name="kdenlive:original.kdenlive:folderid">61</property>
  <property name="kdenlive:original.meta.media.frame_rate_num">30000</property>
  <property name="kdenlive:original.meta.media.frame_rate_den">1001</property>
  <property name="kdenlive:original.meta.media.colorspace">709</property>
  <property name="kdenlive:original.meta.media.color_trc">1</property>
  <property name="kdenlive:original.meta.media.width">1920</property>
  <property name="kdenlive:original.meta.media.height">1080</property>
  <property name="kdenlive:original.meta.media.color_range">mpeg</property>
  <property name="kdenlive:original.kdenlive:id">82</property>
  <property name="kdenlive:original.kdenlive:file_size">740961714</property>
  <property name="kdenlive:original.kdenlive:file_hash">ae9d9a1ea608f68f4887360253e6d40b</property>
  <property name="kdenlive:original.backup">1</property>
  <property name="global_feed">1</property>
  <property name="meta.media.nb_streams">1</property>
  <property name="meta.media.0.stream.type">video</property>
  <property name="meta.media.0.stream.frame_rate">29.97</property>
  <property name="meta.media.0.stream.sample_aspect_ratio">1</property>
  <property name="meta.media.0.codec.width">640</property>
  <property name="meta.media.0.codec.height">360</property>
  <property name="meta.media.0.codec.rotate">0</property>
  <property name="meta.media.0.codec.frame_rate">1000</property>
  <property name="meta.media.0.codec.pix_fmt">yuvj420p</property>
  <property name="meta.media.0.codec.sample_aspect_ratio">1</property>
  <property name="meta.media.0.codec.colorspace">601</property>
  <property name="meta.media.0.codec.name">mjpeg</property>
  <property name="meta.media.0.codec.long_name">MJPEG (Motion JPEG)</property>
  <property name="meta.media.0.codec.bit_rate">0</property>
  <property name="meta.attr.0.stream.HANDLER_NAME.markup">Video Media Handler</property>
  <property name="meta.attr.0.stream.ENCODER.markup">Lavc58.91.100 mjpeg</property>
  <property name="meta.attr.0.stream.DURATION.markup">00:01:59.452000000</property>
  <property name="meta.attr.COMPATIBLE_BRANDS.markup">isomiso2avc1mp41</property>
  <property name="meta.attr.MAJOR_BRAND.markup">isom</property>
  <property name="meta.attr.MINOR_VERSION.markup">512</property>
  <property name="meta.attr.ENCODER.markup">Lavf58.45.100</property>
  <property name="meta.media.sample_aspect_num">1</property>
  <property name="meta.media.sample_aspect_den">1</property>
  <property name="meta.media.frame_rate_num">30000</property>
  <property name="meta.media.frame_rate_den">1001</property>
  <property name="meta.media.colorspace">601</property>
  <property name="meta.media.color_trc">2</property>
  <property name="meta.media.width">640</property>
  <property name="meta.media.height">360</property>
  <property name="meta.media.color_range">full</property>
  <property name="meta.media.top_field_first">0</property>
  <property name="meta.media.progressive">1</property>
 </producer>
 <producer id="producer54" in="00:00:00.000" out="00:00:27.033">
  <property name="length">812</property>
  <property name="eof">pause</property>
  <property name="resource">/home/ryankelln/.cache/kdenlive/proxy/e1edf7bf1bc039ef50e617f39e19f001.mkv</property>
  <property name="audio_index">-1</property>
  <property name="video_index">0</property>
  <property name="mute_on_pause">0</property>
  <property name="mlt_service">avformat-novalidate</property>
  <property name="seekable">1</property>
  <property name="aspect_ratio">1</property>
  <property name="kdenlive:clipname">2021-02-06_21-28-22_Chris_piano_mason_C0021-take6_end.MP4</property>
  <property name="kdenlive:folderid">61</property>
  <property name="kdenlive:id">57</property>
  <property name="kdenlive:file_size">168403164</property>
  <property name="kdenlive:file_hash">e1edf7bf1bc039ef50e617f39e19f001</property>
  <property name="kdenlive:proxy">/home/ryankelln/.cache/kdenlive/proxy/e1edf7bf1bc039ef50e617f39e19f001.mkv</property>
  <property name="kdenlive:originalurl">content/musicians/2021-02-06_21-28-22_Chris_piano_mason_C0021-take6_end.MP4</property>
  <property name="kdenlive:original.mlt_type">producer</property>
  <property name="kdenlive:original.in">0</property>
  <property name="kdenlive:original.out">811</property>
  <property name="kdenlive:original.length">812</property>
  <property name="kdenlive:original.eof">pause</property>
  <property name="kdenlive:original.resource">content/musicians/2021-02-06_21-28-22_Chris_piano_mason_C0021-take6_end.MP4</property>
  <property name="kdenlive:original.meta.media.nb_streams">1</property>
  <property name="kdenlive:original.meta.media.0.stream.type">video</property>
  <property name="kdenlive:original.meta.media.0.stream.frame_rate">29.97</property>
  <property name="kdenlive:original.meta.media.0.stream.sample_aspect_ratio">1</property>
  <property name="kdenlive:original.meta.media.0.codec.width">1920</property>
  <property name="kdenlive:original.meta.media.0.codec.height">1080</property>
  <property name="kdenlive:original.meta.media.0.codec.rotate">0</property>
  <property name="kdenlive:original.meta.media.0.codec.frame_rate">29.97</property>
  <property name="kdenlive:original.meta.media.0.codec.pix_fmt">yuv420p</property>
  <property name="kdenlive:original.meta.media.0.codec.sample_aspect_ratio">1</property>
  <property name="kdenlive:original.meta.media.0.codec.colorspace">709</property>
  <property name="kdenlive:original.meta.media.0.codec.color_trc">1</property>
  <property name="kdenlive:original.meta.media.0.codec.name">h264</property>
  <property name="kdenlive:original.meta.media.0.codec.long_name">H.264 / AVC / MPEG-4 AVC / MPEG-4 part 10</property>
  <property name="kdenlive:original.meta.media.0.codec.bit_rate">49782730</property>
  <property name="kdenlive:original.meta.attr.0.stream.creation_time.markup">2021-06-03T21:28:22.000000Z</property>
  <property name="kdenlive:original.meta.attr.0.stream.handler_name.markup">Video Media Handler</property>
  <property name="kdenlive:original.meta.attr.major_brand.markup">isom</property>
  <property name="kdenlive:original.meta.attr.minor_version.markup">512</property>
  <property name="kdenlive:original.meta.attr.compatible_brands.markup">isomiso2avc1mp41</property>
  <property name="kdenlive:original.meta.attr.creation_time.markup">2021-06-03T21:28:22.000000Z</property>
  <property name="kdenlive:original.meta.attr.encoder.markup">Lavf58.45.100</property>
  <property name="kdenlive:original.seekable">1</property>
  <property name="kdenlive:original.width">1920</property>
  <property name="kdenlive:original.height">1080</property>
  <property name="kdenlive:original.meta.media.sample_aspect_num">1</property>
  <property name="kdenlive:original.meta.media.sample_aspect_den">1</property>
  <property name="kdenlive:original.aspect_ratio">1</property>
  <property name="kdenlive:original.audio_index">-1</property>
  <property name="kdenlive:original.video_index">0</property>
  <property name="kdenlive:original.mute_on_pause">0</property>
  <property name="kdenlive:original.mlt_service">avformat-novalidate</property>
  <property name="kdenlive:original.kdenlive:folderid">61</property>
  <property name="kdenlive:original.meta.media.frame_rate_num">30000</property>
  <property name="kdenlive:original.meta.media.frame_rate_den">1001</property>
  <property name="kdenlive:original.meta.media.colorspace">709</property>
  <property name="kdenlive:original.meta.media.color_trc">1</property>
  <property name="kdenlive:original.meta.media.width">1920</property>
  <property name="kdenlive:original.meta.media.height">1080</property>
  <property name="kdenlive:original.meta.media.color_range">mpeg</property>
  <property name="kdenlive:original.kdenlive:id">83</property>
  <property name="kdenlive:original.kdenlive:file_size">168403164</property>
  <property name="kdenlive:original.kdenlive:file_hash">e1edf7bf1bc039ef50e617f39e19f001</property>
  <property name="kdenlive:original.backup">1</property>
  <property name="global_feed">1</property>
  <property name="meta.media.nb_streams">1</property>
  <property name="meta.media.0.stream.type">video</property>
  <property name="meta.media.0.stream.frame_rate">29.97</property>
  <property name="meta.media.0.stream.sample_aspect_ratio">1</property>
  <property name="meta.media.0.codec.width">640</property>
  <property name="meta.media.0.codec.height">360</property>
  <property name="meta.media.0.codec.rotate">0</property>
  <property name="meta.media.0.codec.frame_rate">1000</property>
  <property name="meta.media.0.codec.pix_fmt">yuvj420p</property>
  <property name="meta.media.0.codec.sample_aspect_ratio">1</property>
  <property name="meta.media.0.codec.colorspace">601</property>
  <property name="meta.media.0.codec.name">mjpeg</property>
  <property name="meta.media.0.codec.long_name">MJPEG (Motion JPEG)</property>
  <property name="meta.media.0.codec.bit_rate">0</property>
  <property name="meta.attr.0.stream.HANDLER_NAME.markup">Video Media Handler</property>
  <property name="meta.attr.0.stream.ENCODER.markup">Lavc58.91.100 mjpeg</property>
  <property name="meta.attr.0.stream.DURATION.markup">00:00:27.060000000</property>
  <property name="meta.attr.COMPATIBLE_BRANDS.markup">isomiso2avc1mp41</property>
  <property name="meta.attr.MAJOR_BRAND.markup">isom</property>
  <property name="meta.attr.MINOR_VERSION.markup">512</property>
  <property name="meta.attr.ENCODER.markup">Lavf58.45.100</property>
  <property name="meta.media.sample_aspect_num">1</property>
  <property name="meta.media.sample_aspect_den">1</property>
  <property name="meta.media.frame_rate_num">30000</property>
  <property name="meta.media.frame_rate_den">1001</property>
  <property name="meta.media.colorspace">601</property>
  <property name="meta.media.color_trc">2</property>
  <property name="meta.media.width">640</property>
  <property name="meta.media.height">360</property>
  <property name="meta.media.color_range">full</property>
  <property name="meta.media.top_field_first">0</property>
  <property name="meta.media.progressive">1</property>
 </producer>
 <producer id="producer56" in="00:00:00.000" out="00:04:45.300">
  <property name="length">8560</property>
  <property name="eof">pause</property>
  <property name="resource">/home/ryankelln/.cache/kdenlive/proxy/811d5c8e1868d3183f1472510f8086d6.mkv</property>
  <property name="audio_index">1</property>
  <property name="video_index">0</property>
  <property name="mute_on_pause">0</property>
  <property name="mlt_service">avformat-novalidate</property>
  <property name="seekable">1</property>
  <property name="aspect_ratio">1</property>
  <property name="kdenlive:clipname">2021-06-02_Caleb_upright+4k+portrait+badfocus_mason_P1000533-take3_start_to_end_solo.MP4</property>
  <property name="kdenlive:folderid">61</property>
  <property name="kdenlive:id">58</property>
  <property name="kdenlive:file_size">3420052022</property>
  <property name="kdenlive:file_hash">811d5c8e1868d3183f1472510f8086d6</property>
  <property name="kdenlive:proxy">/home/ryankelln/.cache/kdenlive/proxy/811d5c8e1868d3183f1472510f8086d6.mkv</property>
  <property name="kdenlive:originalurl">content/musicians/2021-06-02_Caleb_upright+4k+portrait+badfocus_mason_P1000533-take3_start_to_end_solo.MP4</property>
  <property name="kdenlive:original.mlt_type">producer</property>
  <property name="kdenlive:original.in">0</property>
  <property name="kdenlive:original.out">8559</property>
  <property name="kdenlive:original.length">8560</property>
  <property name="kdenlive:original.eof">pause</property>
  <property name="kdenlive:original.resource">content/musicians/2021-06-02_Caleb_upright+4k+portrait+badfocus_mason_P1000533-take3_start_to_end_solo.MP4</property>
  <property name="kdenlive:original.meta.media.nb_streams">2</property>
  <property name="kdenlive:original.meta.media.0.stream.type">video</property>
  <property name="kdenlive:original.meta.media.0.stream.frame_rate">29.97</property>
  <property name="kdenlive:original.meta.media.0.stream.sample_aspect_ratio">1</property>
  <property name="kdenlive:original.meta.media.0.codec.width">3328</property>
  <property name="kdenlive:original.meta.media.0.codec.height">2496</property>
  <property name="kdenlive:original.meta.media.0.codec.rotate">90</property>
  <property name="kdenlive:original.meta.media.0.codec.frame_rate">29.97</property>
  <property name="kdenlive:original.meta.media.0.codec.pix_fmt">yuvj420p</property>
  <property name="kdenlive:original.meta.media.0.codec.sample_aspect_ratio">1</property>
  <property name="kdenlive:original.meta.media.0.codec.colorspace">709</property>
  <property name="kdenlive:original.meta.media.0.codec.color_trc">1</property>
  <property name="kdenlive:original.meta.media.0.codec.name">h264</property>
  <property name="kdenlive:original.meta.media.0.codec.long_name">H.264 / AVC / MPEG-4 AVC / MPEG-4 part 10</property>
  <property name="kdenlive:original.meta.media.0.codec.bit_rate">95794055</property>
  <property name="kdenlive:original.meta.attr.0.stream.rotate.markup">90</property>
  <property name="kdenlive:original.meta.attr.0.stream.creation_time.markup">2021-06-02T13:24:57.000000Z</property>
  <property name="kdenlive:original.meta.attr.0.stream.handler_name.markup">VideoHandler</property>
  <property name="kdenlive:original.meta.media.1.stream.type">audio</property>
  <property name="kdenlive:original.meta.media.1.codec.sample_fmt">fltp</property>
  <property name="kdenlive:original.meta.media.1.codec.sample_rate">48000</property>
  <property name="kdenlive:original.meta.media.1.codec.channels">2</property>
  <property name="kdenlive:original.meta.media.1.codec.name">aac</property>
  <property name="kdenlive:original.meta.media.1.codec.long_name">AAC (Advanced Audio Coding)</property>
  <property name="kdenlive:original.meta.media.1.codec.bit_rate">125368</property>
  <property name="kdenlive:original.meta.attr.1.stream.creation_time.markup">2021-06-02T13:24:57.000000Z</property>
  <property name="kdenlive:original.meta.attr.1.stream.handler_name.markup">SoundHandler</property>
  <property name="kdenlive:original.meta.attr.major_brand.markup">isom</property>
  <property name="kdenlive:original.meta.attr.minor_version.markup">512</property>
  <property name="kdenlive:original.meta.attr.compatible_brands.markup">isomiso2avc1mp41</property>
  <property name="kdenlive:original.meta.attr.creation_time.markup">2021-06-02T13:24:57.000000Z</property>
  <property name="kdenlive:original.meta.attr.encoder.markup">Lavf58.45.100</property>
  <property name="kdenlive:original.seekable">1</property>
  <property name="kdenlive:original.width">3328</property>
  <property name="kdenlive:original.height">2496</property>
  <property name="kdenlive:original.meta.media.sample_aspect_num">1</property>
  <property name="kdenlive:original.meta.media.sample_aspect_den">1</property>
  <property name="kdenlive:original.aspect_ratio">1</property>
  <property name="kdenlive:original.audio_index">1</property>
  <property name="kdenlive:original.video_index">0</property>
  <property name="kdenlive:original.mute_on_pause">0</property>
  <property name="kdenlive:original.mlt_service">avformat-novalidate</property>
  <property name="kdenlive:original.kdenlive:folderid">61</property>
  <property name="kdenlive:original.meta.media.frame_rate_num">30000</property>
  <property name="kdenlive:original.meta.media.frame_rate_den">1001</property>
  <property name="kdenlive:original.meta.media.colorspace">709</property>
  <property name="kdenlive:original.meta.media.color_trc">1</property>
  <property name="kdenlive:original.meta.media.width">2496</property>
  <property name="kdenlive:original.meta.media.height">3328</property>
  <property name="kdenlive:original.meta.media.color_range">full</property>
  <property name="kdenlive:original.kdenlive:id">84</property>
  <property name="kdenlive:original.kdenlive:file_size">3420052022</property>
  <property name="kdenlive:original.kdenlive:file_hash">811d5c8e1868d3183f1472510f8086d6</property>
  <property name="kdenlive:original.backup">1</property>
  <property name="kdenlive:audio_max">1</property>
  <property name="global_feed">1</property>
  <property name="meta.media.nb_streams">2</property>
  <property name="meta.media.0.stream.type">video</property>
  <property name="meta.media.0.stream.frame_rate">29.97</property>
  <property name="meta.media.0.stream.sample_aspect_ratio">1</property>
  <property name="meta.media.0.codec.width">640</property>
  <property name="meta.media.0.codec.height">854</property>
  <property name="meta.media.0.codec.rotate">0</property>
  <property name="meta.media.0.codec.frame_rate">1000</property>
  <property name="meta.media.0.codec.pix_fmt">yuvj420p</property>
  <property name="meta.media.0.codec.sample_aspect_ratio">1.00078</property>
  <property name="meta.media.0.codec.colorspace">601</property>
  <property name="meta.media.0.codec.name">mjpeg</property>
  <property name="meta.media.0.codec.long_name">MJPEG (Motion JPEG)</property>
  <property name="meta.media.0.codec.bit_rate">0</property>
  <property name="meta.attr.0.stream.ENCODER.markup">Lavc58.91.100 mjpeg</property>
  <property name="meta.attr.0.stream.HANDLER_NAME.markup">VideoHandler</property>
  <property name="meta.attr.0.stream.DURATION.markup">00:04:45.318000000</property>
  <property name="meta.media.1.stream.type">audio</property>
  <property name="meta.media.1.codec.sample_fmt">s16</property>
  <property name="meta.media.1.codec.sample_rate">48000</property>
  <property name="meta.media.1.codec.channels">2</property>
  <property name="meta.media.1.codec.name">pcm_s16le</property>
  <property name="meta.media.1.codec.long_name">PCM signed 16-bit little-endian</property>
  <property name="meta.media.1.codec.bit_rate">1536000</property>
  <property name="meta.attr.1.stream.HANDLER_NAME.markup">SoundHandler</property>
  <property name="meta.attr.1.stream.ENCODER.markup">Lavc58.91.100 pcm_s16le</property>
  <property name="meta.attr.1.stream.DURATION.markup">00:04:45.333000000</property>
  <property name="meta.attr.COMPATIBLE_BRANDS.markup">isomiso2avc1mp41</property>
  <property name="meta.attr.MAJOR_BRAND.markup">isom</property>
  <property name="meta.attr.MINOR_VERSION.markup">512</property>
  <property name="meta.attr.ENCODER.markup">Lavf58.45.100</property>
  <property name="meta.media.sample_aspect_num">1</property>
  <property name="meta.media.sample_aspect_den">1</property>
  <property name="meta.media.frame_rate_num">30000</property>
  <property name="meta.media.frame_rate_den">1001</property>
  <property name="meta.media.colorspace">601</property>
  <property name="meta.media.color_trc">2</property>
  <property name="meta.media.width">640</property>
  <property name="meta.media.height">854</property>
  <property name="meta.media.color_range">full</property>
  <property name="meta.media.top_field_first">0</property>
  <property name="meta.media.progressive">1</property>
 </producer>
 <producer id="producer57" in="00:00:00.000" out="00:04:45.300">
  <property name="length">8560</property>
  <property name="eof">pause</property>
  <property name="resource">/home/ryankelln/.cache/kdenlive/proxy/811d5c8e1868d3183f1472510f8086d6.mkv</property>
  <property name="audio_index">1</property>
  <property name="video_index">0</property>
  <property name="mute_on_pause">0</property>
  <property name="mlt_service">avformat-novalidate</property>
  <property name="seekable">1</property>
  <property name="aspect_ratio">1</property>
  <property name="kdenlive:clipname">2021-06-02_Caleb_upright+4k+portrait+badfocus_mason_P1000533-take3_start_to_end_solo.MP4</property>
  <property name="kdenlive:folderid">61</property>
  <property name="kdenlive:id">59</property>
  <property name="kdenlive:file_size">3420052022</property>
  <property name="kdenlive:file_hash">811d5c8e1868d3183f1472510f8086d6</property>
  <property name="kdenlive:proxy">/home/ryankelln/.cache/kdenlive/proxy/811d5c8e1868d3183f1472510f8086d6.mkv</property>
  <property name="kdenlive:originalurl">content/musicians/2021-06-02_Caleb_upright+4k+portrait+badfocus_mason_P1000533-take3_start_to_end_solo.MP4</property>
  <property name="kdenlive:original.mlt_type">producer</property>
  <property name="kdenlive:original.in">0</property>
  <property name="kdenlive:original.out">8559</property>
  <property name="kdenlive:original.length">8560</property>
  <property name="kdenlive:original.eof">pause</property>
  <property name="kdenlive:original.resource">content/musicians/2021-06-02_Caleb_upright+4k+portrait+badfocus_mason_P1000533-take3_start_to_end_solo.MP4</property>
  <property name="kdenlive:original.meta.media.nb_streams">2</property>
  <property name="kdenlive:original.meta.media.0.stream.type">video</property>
  <property name="kdenlive:original.meta.media.0.stream.frame_rate">29.97</property>
  <property name="kdenlive:original.meta.media.0.stream.sample_aspect_ratio">1</property>
  <property name="kdenlive:original.meta.media.0.codec.width">3328</property>
  <property name="kdenlive:original.meta.media.0.codec.height">2496</property>
  <property name="kdenlive:original.meta.media.0.codec.rotate">90</property>
  <property name="kdenlive:original.meta.media.0.codec.frame_rate">29.97</property>
  <property name="kdenlive:original.meta.media.0.codec.pix_fmt">yuvj420p</property>
  <property name="kdenlive:original.meta.media.0.codec.sample_aspect_ratio">1</property>
  <property name="kdenlive:original.meta.media.0.codec.colorspace">709</property>
  <property name="kdenlive:original.meta.media.0.codec.color_trc">1</property>
  <property name="kdenlive:original.meta.media.0.codec.name">h264</property>
  <property name="kdenlive:original.meta.media.0.codec.long_name">H.264 / AVC / MPEG-4 AVC / MPEG-4 part 10</property>
  <property name="kdenlive:original.meta.media.0.codec.bit_rate">95794055</property>
  <property name="kdenlive:original.meta.attr.0.stream.rotate.markup">90</property>
  <property name="kdenlive:original.meta.attr.0.stream.creation_time.markup">2021-06-02T13:24:57.000000Z</property>
  <property name="kdenlive:original.meta.attr.0.stream.handler_name.markup">VideoHandler</property>
  <property name="kdenlive:original.meta.media.1.stream.type">audio</property>
  <property name="kdenlive:original.meta.media.1.codec.sample_fmt">fltp</property>
  <property name="kdenlive:original.meta.media.1.codec.sample_rate">48000</property>
  <property name="kdenlive:original.meta.media.1.codec.channels">2</property>
  <property name="kdenlive:original.meta.media.1.codec.name">aac</property>
  <property name="kdenlive:original.meta.media.1.codec.long_name">AAC (Advanced Audio Coding)</property>
  <property name="kdenlive:original.meta.media.1.codec.bit_rate">125368</property>
  <property name="kdenlive:original.meta.attr.1.stream.creation_time.markup">2021-06-02T13:24:57.000000Z</property>
  <property name="kdenlive:original.meta.attr.1.stream.handler_name.markup">SoundHandler</property>
  <property name="kdenlive:original.meta.attr.major_brand.markup">isom</property>
  <property name="kdenlive:original.meta.attr.minor_version.markup">512</property>
  <property name="kdenlive:original.meta.attr.compatible_brands.markup">isomiso2avc1mp41</property>
  <property name="kdenlive:original.meta.attr.creation_time.markup">2021-06-02T13:24:57.000000Z</property>
  <property name="kdenlive:original.meta.attr.encoder.markup">Lavf58.45.100</property>
  <property name="kdenlive:original.seekable">1</property>
  <property name="kdenlive:original.width">3328</property>
  <property name="kdenlive:original.height">2496</property>
  <property name="kdenlive:original.meta.media.sample_aspect_num">1</property>
  <property name="kdenlive:original.meta.media.sample_aspect_den">1</property>
  <property name="kdenlive:original.aspect_ratio">1</property>
  <property name="kdenlive:original.audio_index">1</property>
  <property name="kdenlive:original.video_index">0</property>
  <property name="kdenlive:original.mute_on_pause">0</property>
  <property name="kdenlive:original.mlt_service">avformat-novalidate</property>
  <property name="kdenlive:original.kdenlive:folderid">61</property>
  <property name="kdenlive:original.meta.media.frame_rate_num">30000</property>
  <property name="kdenlive:original.meta.media.frame_rate_den">1001</property>
  <property name="kdenlive:original.meta.media.colorspace">709</property>
  <property name="kdenlive:original.meta.media.color_trc">1</property>
  <property name="kdenlive:original.meta.media.width">2496</property>
  <property name="kdenlive:original.meta.media.height">3328</property>
  <property name="kdenlive:original.meta.media.color_range">full</property>
  <property name="kdenlive:original.kdenlive:id">85</property>
  <property name="kdenlive:original.kdenlive:file_size">3420052022</property>
  <property name="kdenlive:original.kdenlive:file_hash">811d5c8e1868d3183f1472510f8086d6</property>
  <property name="kdenlive:original.backup">1</property>
  <property name="global_feed">1</property>
  <property name="meta.media.nb_streams">2</property>
  <property name="meta.media.0.stream.type">video</property>
  <property name="meta.media.0.stream.frame_rate">29.97</property>
  <property name="meta.media.0.stream.sample_aspect_ratio">1</property>
  <property name="meta.media.0.codec.width">640</property>
  <property name="meta.media.0.codec.height">854</property>
  <property name="meta.media.0.codec.rotate">0</property>
  <property name="meta.media.0.codec.frame_rate">1000</property>
  <property name="meta.media.0.codec.pix_fmt">yuvj420p</property>
  <property name="meta.media.0.codec.sample_aspect_ratio">1.00078</property>
  <property name="meta.media.0.codec.colorspace">601</property>
  <property name="meta.media.0.codec.name">mjpeg</property>
  <property name="meta.media.0.codec.long_name">MJPEG (Motion JPEG)</property>
  <property name="meta.media.0.codec.bit_rate">0</property>
  <property name="meta.attr.0.stream.ENCODER.markup">Lavc58.91.100 mjpeg</property>
  <property name="meta.attr.0.stream.HANDLER_NAME.markup">VideoHandler</property>
  <property name="meta.attr.0.stream.DURATION.markup">00:04:45.318000000</property>
  <property name="meta.media.1.stream.type">audio</property>
  <property name="meta.media.1.codec.sample_fmt">s16</property>
  <property name="meta.media.1.codec.sample_rate">48000</property>
  <property name="meta.media.1.codec.channels">2</property>
  <property name="meta.media.1.codec.name">pcm_s16le</property>
  <property name="meta.media.1.codec.long_name">PCM signed 16-bit little-endian</property>
  <property name="meta.media.1.codec.bit_rate">1536000</property>
  <property name="meta.attr.1.stream.HANDLER_NAME.markup">SoundHandler</property>
  <property name="meta.attr.1.stream.ENCODER.markup">Lavc58.91.100 pcm_s16le</property>
  <property name="meta.attr.1.stream.DURATION.markup">00:04:45.333000000</property>
  <property name="meta.attr.COMPATIBLE_BRANDS.markup">isomiso2avc1mp41</property>
  <property name="meta.attr.MAJOR_BRAND.markup">isom</property>
  <property name="meta.attr.MINOR_VERSION.markup">512</property>
  <property name="meta.attr.ENCODER.markup">Lavf58.45.100</property>
  <property name="meta.media.sample_aspect_num">1</property>
  <property name="meta.media.sample_aspect_den">1</property>
  <property name="meta.media.frame_rate_num">30000</property>
  <property name="meta.media.frame_rate_den">1001</property>
  <property name="meta.media.colorspace">601</property>
  <property name="meta.media.color_trc">2</property>
  <property name="meta.media.width">640</property>
  <property name="meta.media.height">854</property>
  <property name="meta.media.color_range">full</property>
 </producer>
 <producer id="producer58" in="00:00:00.000" out="00:05:54.867">
  <property name="length">10647</property>
  <property name="eof">pause</property>
  <property name="resource">/home/ryankelln/.cache/kdenlive/proxy/735c930705e521d9a1e266a71d76c2a9.mkv</property>
  <property name="audio_index">1</property>
  <property name="video_index">0</property>
  <property name="mute_on_pause">0</property>
  <property name="mlt_service">avformat-novalidate</property>
  <property name="seekable">1</property>
  <property name="aspect_ratio">1</property>
  <property name="kdenlive:clipname">2021-06-02_134319_Sarah_kit+handheld_mason-take3_full.mp4</property>
  <property name="kdenlive:folderid">61</property>
  <property name="kdenlive:id">62</property>
  <property name="kdenlive:file_size">1127324098</property>
  <property name="kdenlive:file_hash">735c930705e521d9a1e266a71d76c2a9</property>
  <property name="kdenlive:proxy">/home/ryankelln/.cache/kdenlive/proxy/735c930705e521d9a1e266a71d76c2a9.mkv</property>
  <property name="kdenlive:originalurl">content/musicians/2021-06-02_134319_Sarah_kit+handheld_mason-take3_full.mp4</property>
  <property name="kdenlive:original.mlt_type">producer</property>
  <property name="kdenlive:original.in">0</property>
  <property name="kdenlive:original.out">10646</property>
  <property name="kdenlive:original.length">10647</property>
  <property name="kdenlive:original.eof">pause</property>
  <property name="kdenlive:original.resource">content/musicians/2021-06-02_134319_Sarah_kit+handheld_mason-take3_full.mp4</property>
  <property name="kdenlive:original.meta.media.nb_streams">2</property>
  <property name="kdenlive:original.meta.media.0.stream.type">video</property>
  <property name="kdenlive:original.meta.media.0.stream.frame_rate">59.9401</property>
  <property name="kdenlive:original.meta.media.0.stream.sample_aspect_ratio">1</property>
  <property name="kdenlive:original.meta.media.0.codec.width">1920</property>
  <property name="kdenlive:original.meta.media.0.codec.height">1080</property>
  <property name="kdenlive:original.meta.media.0.codec.rotate">0</property>
  <property name="kdenlive:original.meta.media.0.codec.frame_rate">59.9401</property>
  <property name="kdenlive:original.meta.media.0.codec.pix_fmt">yuv420p</property>
  <property name="kdenlive:original.meta.media.0.codec.sample_aspect_ratio">1</property>
  <property name="kdenlive:original.meta.media.0.codec.colorspace">709</property>
  <property name="kdenlive:original.meta.media.0.codec.name">h264</property>
  <property name="kdenlive:original.meta.media.0.codec.long_name">H.264 / AVC / MPEG-4 AVC / MPEG-4 part 10</property>
  <property name="kdenlive:original.meta.media.0.codec.bit_rate">24955009</property>
  <property name="kdenlive:original.meta.attr.0.stream.handler_name.markup">VideoHandler</property>
  <property name="kdenlive:original.meta.media.1.stream.type">audio</property>
  <property name="kdenlive:original.meta.media.1.codec.sample_fmt">fltp</property>
  <property name="kdenlive:original.meta.media.1.codec.sample_rate">48000</property>
  <property name="kdenlive:original.meta.media.1.codec.channels">6</property>
  <property name="kdenlive:original.meta.media.1.codec.name">ac3</property>
  <property name="kdenlive:original.meta.media.1.codec.long_name">ATSC A/52A (AC-3)</property>
  <property name="kdenlive:original.meta.media.1.codec.bit_rate">448000</property>
  <property name="kdenlive:original.meta.attr.1.stream.handler_name.markup">SoundHandler</property>
  <property name="kdenlive:original.meta.attr.major_brand.markup">isom</property>
  <property name="kdenlive:original.meta.attr.minor_version.markup">512</property>
  <property name="kdenlive:original.meta.attr.compatible_brands.markup">isomiso2avc1mp41</property>
  <property name="kdenlive:original.meta.attr.encoder.markup">Lavf58.45.100</property>
  <property name="kdenlive:original.seekable">1</property>
  <property name="kdenlive:original.width">1920</property>
  <property name="kdenlive:original.height">1080</property>
  <property name="kdenlive:original.meta.media.sample_aspect_num">1</property>
  <property name="kdenlive:original.meta.media.sample_aspect_den">1</property>
  <property name="kdenlive:original.aspect_ratio">1</property>
  <property name="kdenlive:original.audio_index">1</property>
  <property name="kdenlive:original.video_index">0</property>
  <property name="kdenlive:original.mute_on_pause">0</property>
  <property name="kdenlive:original.mlt_service">avformat-novalidate</property>
  <property name="kdenlive:original.kdenlive:folderid">61</property>
  <property name="kdenlive:original.meta.media.frame_rate_num">1914570000</property>
  <property name="kdenlive:original.meta.media.frame_rate_den">31941409</property>
  <property name="kdenlive:original.meta.media.colorspace">709</property>
  <property name="kdenlive:original.meta.media.color_trc">2</property>
  <property name="kdenlive:original.meta.media.width">1920</property>
  <property name="kdenlive:original.meta.media.height">1080</property>
  <property name="kdenlive:original.meta.media.color_range">mpeg</property>
  <property name="kdenlive:original.kdenlive:id">86</property>
  <property name="kdenlive:original.kdenlive:file_size">1127324098</property>
  <property name="kdenlive:original.kdenlive:file_hash">735c930705e521d9a1e266a71d76c2a9</property>
  <property name="kdenlive:original.backup">1</property>
  <property name="kdenlive:audio_max">3</property>
  <property name="global_feed">1</property>
  <property name="meta.media.nb_streams">2</property>
  <property name="meta.media.0.stream.type">video</property>
  <property name="meta.media.0.stream.frame_rate">59.9401</property>
  <property name="meta.media.0.stream.sample_aspect_ratio">1</property>
  <property name="meta.media.0.codec.width">640</property>
  <property name="meta.media.0.codec.height">360</property>
  <property name="meta.media.0.codec.rotate">0</property>
  <property name="meta.media.0.codec.frame_rate">1000</property>
  <property name="meta.media.0.codec.pix_fmt">yuvj420p</property>
  <property name="meta.media.0.codec.sample_aspect_ratio">1</property>
  <property name="meta.media.0.codec.colorspace">601</property>
  <property name="meta.media.0.codec.name">mjpeg</property>
  <property name="meta.media.0.codec.long_name">MJPEG (Motion JPEG)</property>
  <property name="meta.media.0.codec.bit_rate">0</property>
  <property name="meta.attr.0.stream.HANDLER_NAME.markup">VideoHandler</property>
  <property name="meta.attr.0.stream.ENCODER.markup">Lavc58.91.100 mjpeg</property>
  <property name="meta.attr.0.stream.DURATION.markup">00:05:54.905000000</property>
  <property name="meta.media.1.stream.type">audio</property>
  <property name="meta.media.1.codec.sample_fmt">s16</property>
  <property name="meta.media.1.codec.sample_rate">48000</property>
  <property name="meta.media.1.codec.channels">6</property>
  <property name="meta.media.1.codec.name">pcm_s16le</property>
  <property name="meta.media.1.codec.long_name">PCM signed 16-bit little-endian</property>
  <property name="meta.media.1.codec.bit_rate">4608000</property>
  <property name="meta.attr.1.stream.HANDLER_NAME.markup">SoundHandler</property>
  <property name="meta.attr.1.stream.ENCODER.markup">Lavc58.91.100 pcm_s16le</property>
  <property name="meta.attr.1.stream.DURATION.markup">00:05:54.880000000</property>
  <property name="meta.attr.COMPATIBLE_BRANDS.markup">isomiso2avc1mp41</property>
  <property name="meta.attr.MAJOR_BRAND.markup">isom</property>
  <property name="meta.attr.MINOR_VERSION.markup">512</property>
  <property name="meta.attr.ENCODER.markup">Lavf58.45.100</property>
  <property name="meta.media.sample_aspect_num">1</property>
  <property name="meta.media.sample_aspect_den">1</property>
  <property name="meta.media.frame_rate_num">19001</property>
  <property name="meta.media.frame_rate_den">317</property>
  <property name="meta.media.colorspace">601</property>
  <property name="meta.media.color_trc">2</property>
  <property name="meta.media.width">640</property>
  <property name="meta.media.height">360</property>
  <property name="meta.media.color_range">full</property>
  <property name="meta.media.top_field_first">0</property>
  <property name="meta.media.progressive">1</property>
 </producer>
 <playlist id="main_bin">
  <property name="kdenlive:folder.-1.60">storyboard</property>
  <property name="kdenlive:folder.-1.61">musicians</property>
  <property name="kdenlive:docproperties.activeTrack">14</property>
  <property name="kdenlive:docproperties.audioChannels">2</property>
  <property name="kdenlive:docproperties.audioTarget">-1</property>
  <property name="kdenlive:docproperties.compositing">2</property>
  <property name="kdenlive:docproperties.disablepreview">0</property>
  <property name="kdenlive:docproperties.documentid">1620754025982</property>
  <property name="kdenlive:docproperties.enableTimelineZone">0</property>
  <property name="kdenlive:docproperties.enableexternalproxy">0</property>
  <property name="kdenlive:docproperties.enableproxy">1</property>
  <property name="kdenlive:docproperties.externalproxyparams">../Sub;;S03.MP4;../Clip;;.MXF</property>
  <property name="kdenlive:docproperties.generateimageproxy">0</property>
  <property name="kdenlive:docproperties.generateproxy">1</property>
  <property name="kdenlive:docproperties.groups">[
]
</property>
  <property name="kdenlive:docproperties.guides">[
    {
        "comment": "start",
        "pos": 210,
        "type": 4
    },
    {
        "comment": "m125",
        "pos": 7211,
        "type": 2
    }
]
</property>
  <property name="kdenlive:docproperties.kdenliveversion">21.04.2</property>
  <property name="kdenlive:docproperties.position">10280</property>
  <property name="kdenlive:docproperties.previewextension"/>
  <property name="kdenlive:docproperties.previewparameters"/>
  <property name="kdenlive:docproperties.profile">atsc_1080p_30</property>
  <property name="kdenlive:docproperties.proxyextension"/>
  <property name="kdenlive:docproperties.proxyimageminsize">2000</property>
  <property name="kdenlive:docproperties.proxyimagesize">800</property>
  <property name="kdenlive:docproperties.proxyminsize">1920</property>
  <property name="kdenlive:docproperties.proxyparams"/>
  <property name="kdenlive:docproperties.renderaudioquality">192</property>
  <property name="kdenlive:docproperties.rendercategory">Generic (HD for web, mobile devices...)</property>
  <property name="kdenlive:docproperties.renderendguide">-1</property>
  <property name="kdenlive:docproperties.renderexportaudio">0</property>
  <property name="kdenlive:docproperties.renderfield">0</property>
  <property name="kdenlive:docproperties.renderguide">0</property>
  <property name="kdenlive:docproperties.renderplay">0</property>
  <property name="kdenlive:docproperties.renderprofile">MP4-H264/AAC</property>
  <property name="kdenlive:docproperties.renderquality">23</property>
  <property name="kdenlive:docproperties.renderratio">1</property>
  <property name="kdenlive:docproperties.renderrescale">0</property>
  <property name="kdenlive:docproperties.renderrescaleheight">540</property>
  <property name="kdenlive:docproperties.renderrescalewidth">960</property>
  <property name="kdenlive:docproperties.renderscanning">0</property>
  <property name="kdenlive:docproperties.renderspeed">2</property>
  <property name="kdenlive:docproperties.renderstartguide">-1</property>
  <property name="kdenlive:docproperties.rendertcoverlay">0</property>
  <property name="kdenlive:docproperties.rendertctype">0</property>
  <property name="kdenlive:docproperties.rendertwopass">0</property>
  <property name="kdenlive:docproperties.renderurl">the_nght_is_young_storyboard_v2.mp4</property>
  <property name="kdenlive:docproperties.renderzone">0</property>
  <property name="kdenlive:docproperties.scrollPos">1017</property>
  <property name="kdenlive:docproperties.seekOffset">30000</property>
  <property name="kdenlive:docproperties.version">1</property>
  <property name="kdenlive:docproperties.verticalzoom">1</property>
  <property name="kdenlive:docproperties.videoTarget">-1</property>
  <property name="kdenlive:docproperties.zonein">4185</property>
  <property name="kdenlive:docproperties.zoneout">4631</property>
  <property name="kdenlive:docproperties.zoom">10</property>
  <property name="kdenlive:expandedFolders">61</property>
  <property name="kdenlive:documentnotes"/>
  <property name="xml_retain">1</property>
  <entry producer="producer0" in="00:00:00.000" out="00:00:15.000"/>
  <entry producer="producer1" in="00:00:00.000" out="00:00:33.000"/>
  <entry producer="producer2" in="00:00:00.000" out="00:06:29.533"/>
  <entry producer="producer3" in="00:00:00.000" out="00:01:09.467"/>
  <entry producer="producer4" in="00:00:00.000" out="00:08:01.967"/>
  <entry producer="producer5" in="00:00:00.000" out="00:02:48.467"/>
  <entry producer="producer7" in="00:00:00.000" out="00:00:04.167"/>
  <entry producer="producer8" in="00:00:00.000" out="00:00:15.167"/>
  <entry producer="producer6" in="00:00:00.000" out="00:00:06.700"/>
  <entry producer="producer9" in="00:00:00.000" out="00:00:04.600"/>
  <entry producer="producer10" in="00:00:00.000" out="00:00:05.900"/>
  <entry producer="producer11" in="00:00:00.000" out="00:00:11.867"/>
  <entry producer="producer12" in="00:00:00.000" out="00:00:20.533"/>
  <entry producer="producer14" in="00:00:00.000" out="00:00:30.000"/>
  <entry producer="producer13" in="00:00:00.000" out="00:01:26.733"/>
  <entry producer="producer31" in="00:00:00.000" out="00:00:10.533"/>
  <entry producer="producer32" in="00:00:00.000" out="00:00:29.767"/>
  <entry producer="producer16" in="00:00:00.000" out="00:03:20.733"/>
  <entry producer="producer19" in="00:00:00.000" out="00:00:11.867"/>
  <entry producer="producer17" in="00:00:00.000" out="00:06:46.133"/>
  <entry producer="producer20" in="00:00:00.000" out="00:10:23.633"/>
  <entry producer="producer21" in="00:00:00.000" out="00:08:17.600"/>
  <entry producer="producer22" in="00:00:00.000" out="00:06:13.733"/>
  <entry producer="producer23" in="00:00:00.000" out="00:05:21.467"/>
  <entry producer="producer24" in="00:00:00.000" out="00:05:04.467"/>
  <entry producer="producer25" in="00:00:00.000" out="00:01:45.067"/>
  <entry producer="producer26" in="00:00:00.000" out="00:01:33.467"/>
  <entry producer="producer27" in="00:00:00.000" out="00:01:30.000"/>
  <entry producer="producer28" in="00:00:00.000" out="00:02:01.967"/>
  <entry producer="producer29" in="00:00:00.000" out="00:02:30.967"/>
  <entry producer="producer30" in="00:00:00.000" out="00:00:29.967"/>
  <entry producer="producer33" in="00:00:00.000" out="00:05:55.833"/>
  <entry producer="producer15" in="00:00:00.000" out="00:05:57.567"/>
  <entry producer="producer18" in="00:00:00.000" out="00:06:01.833"/>
  <entry producer="producer34" in="00:00:00.000" out="00:00:32.600"/>
  <entry producer="producer36" in="00:00:00.000" out="00:02:03.500"/>
  <entry producer="producer35" in="00:00:00.000" out="00:00:39.600"/>
  <entry producer="producer38" in="00:00:00.000" out="00:01:58.233"/>
  <entry producer="producer37" in="00:00:00.000" out="00:01:12.600"/>
  <entry producer="producer39" in="00:00:00.000" out="00:00:53.900"/>
  <entry producer="producer42" in="00:00:00.000" out="00:00:47.567"/>
  <entry producer="producer40" in="00:00:00.000" out="00:01:29.100"/>
  <entry producer="producer41" in="00:00:00.000" out="00:00:32.267"/>
  <entry producer="producer43" in="00:00:00.000" out="00:00:29.533"/>
  <entry producer="producer45" in="00:00:00.000" out="00:02:03.067"/>
  <entry producer="producer44" in="00:00:00.000" out="00:00:25.933"/>
  <entry producer="producer46" in="00:00:00.000" out="00:00:22.867"/>
  <entry producer="producer48" in="00:00:00.000" out="00:00:10.333"/>
  <entry producer="producer47" in="00:00:00.000" out="00:00:06.300"/>
  <entry producer="producer50" in="00:00:00.000" out="00:02:00.067"/>
  <entry producer="producer49" in="00:00:00.000" out="00:00:26.367"/>
  <entry producer="producer51" in="00:00:00.000" out="00:01:47.033"/>
  <entry producer="producer53" in="00:00:00.000" out="00:01:59.867"/>
  <entry producer="producer52" in="00:00:00.000" out="00:00:28.133"/>
  <entry producer="producer55" in="00:00:00.000" out="00:01:59.433"/>
  <entry producer="producer54" in="00:00:00.000" out="00:00:27.033"/>
  <entry producer="producer56" in="00:00:00.000" out="00:04:45.300"/>
  <entry producer="producer57" in="00:00:00.000" out="00:04:45.300"/>
  <entry producer="producer58" in="00:00:00.000" out="00:05:54.867"/>
 </playlist>
 <producer id="black_track" in="00:00:00.000" out="00:32:48.100">
  <property name="length">2147483647</property>
  <property name="eof">continue</property>
  <property name="resource">black</property>
  <property name="aspect_ratio">1</property>
  <property name="mlt_service">color</property>
  <property name="mlt_image_format">rgb24a</property>
  <property name="set.test_audio">0</property>
 </producer>
 <producer id="producer59" in="00:00:00.000" out="00:06:01.833">
  <property name="length">10856</property>
  <property name="eof">pause</property>
  <property name="resource">20210602_SpectrumMusic-SoundEscapes-Mason EDIT1.wav</property>
  <property name="audio_index">0</property>
  <property name="video_index">-1</property>
  <property name="mute_on_pause">0</property>
  <property name="mlt_service">avformat-novalidate</property>
  <property name="meta.media.nb_streams">1</property>
  <property name="meta.media.0.stream.type">audio</property>
  <property name="meta.media.0.codec.sample_fmt">s32</property>
  <property name="meta.media.0.codec.sample_rate">48000</property>
  <property name="meta.media.0.codec.channels">2</property>
  <property name="meta.media.0.codec.name">pcm_s24le</property>
  <property name="meta.media.0.codec.long_name">PCM signed 24-bit little-endian</property>
  <property name="meta.media.0.codec.bit_rate">2304000</property>
  <property name="meta.attr.encoded_by.markup">Pro Tools</property>
  <property name="meta.attr.originator_reference.markup">aui8NpPLuoRk</property>
  <property name="meta.attr.date.markup">2021-06-11</property>
  <property name="meta.attr.creation_time.markup">12:50:08</property>
  <property name="meta.attr.time_reference.markup">196875494</property>
  <property name="meta.attr.umid.markup">0x060A2B340101010501010F1013000000B3949693E7F08500A5A0005056C00001</property>
  <property name="seekable">1</property>
  <property name="kdenlive:clipname"/>
  <property name="kdenlive:folderid">-1</property>
  <property name="kdenlive:id">35</property>
  <property name="kdenlive:file_size">104768830</property>
  <property name="kdenlive:file_hash">cccd4497726beb689f9b56120d2be611</property>
  <property name="kdenlive:audio_max">1</property>
  <property name="global_feed">1</property>
  <property name="xml">was here</property>
  <property name="set.test_audio">0</property>
  <property name="set.test_image">1</property>
 </producer>
 <playlist id="playlist0">
  <property name="kdenlive:audio_track">1</property>
  <blank length="00:00:07.000"/>
  <entry producer="producer59" in="00:00:00.000" out="00:06:01.833">
   <property name="kdenlive:id">35</property>
  </entry>
 </playlist>
 <playlist id="playlist1"/>
 <tractor id="tractor0" in="00:00:00.000" out="00:06:08.833">
  <property name="kdenlive:audio_track">1</property>
  <property name="kdenlive:trackheight">69</property>
  <property name="kdenlive:timeline_active">1</property>
  <property name="kdenlive:collapsed">0</property>
  <property name="kdenlive:thumbs_format"/>
  <property name="kdenlive:audio_rec"/>
  <track hide="video" producer="playlist0"/>
  <track hide="video" producer="playlist1"/>
  <filter id="filter0">
   <property name="window">75</property>
   <property name="max_gain">20dB</property>
   <property name="mlt_service">volume</property>
   <property name="internal_added">237</property>
   <property name="disable">1</property>
  </filter>
  <filter id="filter1">
   <property name="channel">-1</property>
   <property name="mlt_service">panner</property>
   <property name="internal_added">237</property>
   <property name="start">0.5</property>
   <property name="disable">1</property>
  </filter>
  <filter id="filter2">
   <property name="iec_scale">0</property>
   <property name="mlt_service">audiolevel</property>
   <property name="disable">1</property>
  </filter>
 </tractor>
 <producer id="producer60" in="00:00:00.000" out="00:06:13.733">
  <property name="length">11213</property>
  <property name="eof">pause</property>
  <property name="resource">/home/ryankelln/Documents/Projects/Active/Sound_Escapes/rehearsals/1/SoundEscapes_MasonRehearsal1.mp3</property>
  <property name="audio_index">0</property>
  <property name="video_index">-1</property>
  <property name="mute_on_pause">0</property>
  <property name="mlt_service">avformat-novalidate</property>
  <property name="meta.media.nb_streams">1</property>
  <property name="meta.media.0.stream.type">audio</property>
  <property name="meta.media.0.codec.sample_fmt">fltp</property>
  <property name="meta.media.0.codec.sample_rate">48000</property>
  <property name="meta.media.0.codec.channels">2</property>
  <property name="meta.media.0.codec.name">mp3float</property>
  <property name="meta.media.0.codec.long_name">MP3 (MPEG audio layer 3)</property>
  <property name="meta.media.0.codec.bit_rate">185160</property>
  <property name="meta.attr.0.stream.encoder.markup">LAME3.100</property>
  <property name="seekable">1</property>
  <property name="kdenlive:clipname"/>
  <property name="kdenlive:folderid">-1</property>
  <property name="kdenlive:id">24</property>
  <property name="kdenlive:file_size">8651040</property>
  <property name="kdenlive:file_hash">d0d5b7aed58a6e6e49ffdfe090b26b43</property>
  <property name="kdenlive:audio_max">1</property>
  <property name="global_feed">1</property>
  <property name="xml">was here</property>
  <property name="set.test_audio">0</property>
  <property name="set.test_image">1</property>
 </producer>
 <playlist id="playlist2">
  <property name="kdenlive:audio_track">1</property>
  <blank length="00:09:54.333"/>
  <entry producer="producer60" in="00:00:00.000" out="00:06:13.733">
   <property name="kdenlive:id">24</property>
  </entry>
 </playlist>
 <playlist id="playlist3"/>
 <tractor id="tractor1" in="00:00:00.000" out="00:16:08.067">
  <property name="kdenlive:audio_track">1</property>
  <property name="kdenlive:trackheight">69</property>
  <property name="kdenlive:timeline_active">1</property>
  <property name="kdenlive:collapsed">0</property>
  <property name="kdenlive:thumbs_format"/>
  <property name="kdenlive:audio_rec"/>
  <track hide="both" producer="playlist2"/>
  <track hide="video" producer="playlist3"/>
  <filter id="filter3">
   <property name="window">75</property>
   <property name="max_gain">20dB</property>
   <property name="mlt_service">volume</property>
   <property name="internal_added">237</property>
   <property name="disable">1</property>
  </filter>
  <filter id="filter4">
   <property name="channel">-1</property>
   <property name="mlt_service">panner</property>
   <property name="internal_added">237</property>
   <property name="start">0.5</property>
   <property name="disable">1</property>
  </filter>
  <filter id="filter5">
   <property name="iec_scale">0</property>
   <property name="mlt_service">audiolevel</property>
   <property name="disable">1</property>
  </filter>
 </tractor>
 <producer id="producer61" in="00:00:00.000" out="00:01:09.467">
  <property name="length">2085</property>
  <property name="eof">pause</property>
  <property name="resource">/media/storage/media/Videos/mine/music_landscapes/2021-04-24/2021-04-24_Toronto_night+tree+blossom+cherry+moon.MP4</property>
  <property name="audio_index">1</property>
  <property name="video_index">0</property>
  <property name="mute_on_pause">0</property>
  <property name="mlt_service">avformat-novalidate</property>
  <property name="seekable">1</property>
  <property name="aspect_ratio">1</property>
  <property name="kdenlive:clipname"/>
  <property name="kdenlive:folderid">-1</property>
  <property name="kdenlive:id">5</property>
  <property name="kdenlive:file_size">346948778</property>
  <property name="kdenlive:file_hash">35ce84066fa48e7e4621522f7bab75be</property>
  <property name="kdenlive:audio_max">91</property>
  <property name="kdenlive:zone_in">1870</property>
  <property name="kdenlive:zone_out">2026</property>
  <property name="kdenlive:clipzones">[
    {
        "in": 1870,
        "name": "Zone 1",
        "out": 2026
    }
]
</property>
  <property name="global_feed">1</property>
  <property name="xml">was here</property>
  <property name="meta.media.nb_streams">3</property>
  <property name="meta.media.0.stream.type">video</property>
  <property name="meta.media.0.stream.frame_rate">24</property>
  <property name="meta.media.0.stream.sample_aspect_ratio">0</property>
  <property name="meta.media.0.codec.width">1920</property>
  <property name="meta.media.0.codec.height">1080</property>
  <property name="meta.media.0.codec.rotate">0</property>
  <property name="meta.media.0.codec.frame_rate">24</property>
  <property name="meta.media.0.codec.pix_fmt">yuv420p</property>
  <property name="meta.media.0.codec.sample_aspect_ratio">1</property>
  <property name="meta.media.0.codec.colorspace">709</property>
  <property name="meta.media.0.codec.color_trc">1</property>
  <property name="meta.media.0.codec.name">h264</property>
  <property name="meta.media.0.codec.long_name">H.264 / AVC / MPEG-4 AVC / MPEG-4 part 10</property>
  <property name="meta.media.0.codec.bit_rate">38369606</property>
  <property name="meta.attr.0.stream.creation_time.markup">2021-04-24T22:00:10.000000Z</property>
  <property name="meta.attr.0.stream.vendor_id.markup">[0][0][0][0]</property>
  <property name="meta.attr.0.stream.timecode.markup">06:05:49:15</property>
  <property name="meta.media.1.stream.type">audio</property>
  <property name="meta.media.1.codec.sample_fmt">s16</property>
  <property name="meta.media.1.codec.sample_rate">48000</property>
  <property name="meta.media.1.codec.channels">2</property>
  <property name="meta.media.1.codec.name">pcm_s16be</property>
  <property name="meta.media.1.codec.long_name">PCM signed 16-bit big-endian</property>
  <property name="meta.media.1.codec.bit_rate">1536000</property>
  <property name="meta.attr.1.stream.creation_time.markup">2021-04-24T22:00:10.000000Z</property>
  <property name="meta.attr.1.stream.vendor_id.markup">pana</property>
  <property name="meta.attr.1.stream.timecode.markup">06:05:49:15</property>
  <property name="meta.attr.major_brand.markup">mp42</property>
  <property name="meta.attr.minor_version.markup">1</property>
  <property name="meta.attr.compatible_brands.markup">mp42avc1</property>
  <property name="meta.attr.creation_time.markup">2021-04-24T22:00:10.000000Z</property>
  <property name="meta.media.sample_aspect_num">1</property>
  <property name="meta.media.sample_aspect_den">1</property>
  <property name="meta.media.frame_rate_num">24</property>
  <property name="meta.media.frame_rate_den">1</property>
  <property name="meta.media.colorspace">709</property>
  <property name="meta.media.color_trc">1</property>
  <property name="meta.media.width">1920</property>
  <property name="meta.media.height">1080</property>
  <property name="meta.media.color_range">mpeg</property>
  <property name="meta.media.top_field_first">0</property>
  <property name="meta.media.progressive">1</property>
  <property name="set.test_audio">1</property>
  <property name="set.test_image">0</property>
 </producer>
 <producer id="producer62" in="00:00:00.000" out="00:01:33.467">
  <property name="length">2805</property>
  <property name="eof">pause</property>
  <property name="resource">/media/storage/media/Videos/mine/music_landscapes/2021-04-24/2021-04-24_Toronto_night+tree+moon+clouds.MP4</property>
  <property name="audio_index">1</property>
  <property name="video_index">0</property>
  <property name="mute_on_pause">0</property>
  <property name="mlt_service">avformat-novalidate</property>
  <property name="seekable">1</property>
  <property name="aspect_ratio">1</property>
  <property name="kdenlive:clipname"/>
  <property name="kdenlive:folderid">-1</property>
  <property name="kdenlive:id">28</property>
  <property name="kdenlive:file_size">466336077</property>
  <property name="kdenlive:file_hash">4dc5f3b0fa8feefa03ffde30fdaaf12b</property>
  <property name="kdenlive:audio_max">91</property>
  <property name="kdenlive:active_streams">-1</property>
  <property name="kdenlive:zone_in">609</property>
  <property name="kdenlive:zone_out">876</property>
  <property name="kdenlive:clipzones">[
    {
        "in": 609,
        "name": "Zone 1",
        "out": 876
    }
]
</property>
  <property name="global_feed">1</property>
  <property name="xml">was here</property>
  <property name="meta.media.nb_streams">3</property>
  <property name="meta.media.0.stream.type">video</property>
  <property name="meta.media.0.stream.frame_rate">24</property>
  <property name="meta.media.0.stream.sample_aspect_ratio">0</property>
  <property name="meta.media.0.codec.width">1920</property>
  <property name="meta.media.0.codec.height">1080</property>
  <property name="meta.media.0.codec.rotate">0</property>
  <property name="meta.media.0.codec.frame_rate">24</property>
  <property name="meta.media.0.codec.pix_fmt">yuv420p</property>
  <property name="meta.media.0.codec.sample_aspect_ratio">1</property>
  <property name="meta.media.0.codec.colorspace">709</property>
  <property name="meta.media.0.codec.color_trc">1</property>
  <property name="meta.media.0.codec.name">h264</property>
  <property name="meta.media.0.codec.long_name">H.264 / AVC / MPEG-4 AVC / MPEG-4 part 10</property>
  <property name="meta.media.0.codec.bit_rate">38341214</property>
  <property name="meta.attr.0.stream.creation_time.markup">2021-04-24T22:19:20.000000Z</property>
  <property name="meta.attr.0.stream.vendor_id.markup">[0][0][0][0]</property>
  <property name="meta.attr.0.stream.timecode.markup">06:17:21:15</property>
  <property name="meta.media.1.stream.type">audio</property>
  <property name="meta.media.1.codec.sample_fmt">s16</property>
  <property name="meta.media.1.codec.sample_rate">48000</property>
  <property name="meta.media.1.codec.channels">2</property>
  <property name="meta.media.1.codec.name">pcm_s16be</property>
  <property name="meta.media.1.codec.long_name">PCM signed 16-bit big-endian</property>
  <property name="meta.media.1.codec.bit_rate">1536000</property>
  <property name="meta.attr.1.stream.creation_time.markup">2021-04-24T22:19:20.000000Z</property>
  <property name="meta.attr.1.stream.vendor_id.markup">pana</property>
  <property name="meta.attr.1.stream.timecode.markup">06:17:21:15</property>
  <property name="meta.attr.major_brand.markup">mp42</property>
  <property name="meta.attr.minor_version.markup">1</property>
  <property name="meta.attr.compatible_brands.markup">mp42avc1</property>
  <property name="meta.attr.creation_time.markup">2021-04-24T22:19:20.000000Z</property>
  <property name="meta.media.sample_aspect_num">1</property>
  <property name="meta.media.sample_aspect_den">1</property>
  <property name="meta.media.frame_rate_num">24</property>
  <property name="meta.media.frame_rate_den">1</property>
  <property name="meta.media.colorspace">709</property>
  <property name="meta.media.color_trc">1</property>
  <property name="meta.media.width">1920</property>
  <property name="meta.media.height">1080</property>
  <property name="meta.media.color_range">mpeg</property>
  <property name="meta.media.top_field_first">0</property>
  <property name="meta.media.progressive">1</property>
  <property name="set.test_audio">1</property>
  <property name="set.test_image">0</property>
 </producer>
 <producer id="producer63" in="00:00:00.000" out="00:00:11.867">
  <property name="length">357</property>
  <property name="eof">pause</property>
  <property name="resource">/home/ryankelln/Documents/Projects/Active/Sound_Escapes/Mason/footage/Meteor Shower H264.mp4</property>
  <property name="audio_index">-1</property>
  <property name="video_index">0</property>
  <property name="mute_on_pause">0</property>
  <property name="mlt_service">avformat-novalidate</property>
  <property name="seekable">1</property>
  <property name="aspect_ratio">1</property>
  <property name="kdenlive:clipname"/>
  <property name="kdenlive:folderid">-1</property>
  <property name="kdenlive:id">20</property>
  <property name="kdenlive:file_size">66950127</property>
  <property name="kdenlive:file_hash">87675220c26844eead1d081d3371f5d3</property>
  <property name="global_feed">1</property>
  <property name="xml">was here</property>
  <property name="meta.media.nb_streams">1</property>
  <property name="meta.media.0.stream.type">video</property>
  <property name="meta.media.0.stream.frame_rate">23.976</property>
  <property name="meta.media.0.stream.sample_aspect_ratio">0</property>
  <property name="meta.media.0.codec.width">1920</property>
  <property name="meta.media.0.codec.height">1080</property>
  <property name="meta.media.0.codec.rotate">0</property>
  <property name="meta.media.0.codec.frame_rate">23.976</property>
  <property name="meta.media.0.codec.pix_fmt">yuv420p</property>
  <property name="meta.media.0.codec.sample_aspect_ratio">1</property>
  <property name="meta.media.0.codec.colorspace">709</property>
  <property name="meta.media.0.codec.color_trc">1</property>
  <property name="meta.media.0.codec.name">h264</property>
  <property name="meta.media.0.codec.long_name">H.264 / AVC / MPEG-4 AVC / MPEG-4 part 10</property>
  <property name="meta.media.0.codec.bit_rate">45052295</property>
  <property name="meta.attr.0.stream.creation_time.markup">2016-08-12T17:14:03.000000Z</property>
  <property name="meta.attr.0.stream.language.markup">eng</property>
  <property name="meta.attr.0.stream.handler_name.markup">Mainconcept MP4 Video Media Handler</property>
  <property name="meta.attr.0.stream.vendor_id.markup">[0][0][0][0]</property>
  <property name="meta.attr.0.stream.encoder.markup">AVC Coding</property>
  <property name="meta.attr.major_brand.markup">mp42</property>
  <property name="meta.attr.minor_version.markup">0</property>
  <property name="meta.attr.compatible_brands.markup">mp42mp41</property>
  <property name="meta.attr.creation_time.markup">2016-08-12T17:14:03.000000Z</property>
  <property name="meta.media.sample_aspect_num">1</property>
  <property name="meta.media.sample_aspect_den">1</property>
  <property name="meta.media.frame_rate_num">2997</property>
  <property name="meta.media.frame_rate_den">125</property>
  <property name="meta.media.colorspace">709</property>
  <property name="meta.media.color_trc">1</property>
  <property name="meta.media.width">1920</property>
  <property name="meta.media.height">1080</property>
  <property name="meta.media.color_range">mpeg</property>
  <property name="meta.media.top_field_first">0</property>
  <property name="meta.media.progressive">1</property>
  <property name="set.test_audio">1</property>
  <property name="set.test_image">0</property>
 </producer>
 <producer id="producer64" in="00:00:00.000" out="00:01:26.733">
  <property name="length">2603</property>
  <property name="eof">pause</property>
  <property name="resource">-1.000000:/home/ryankelln/Documents/Projects/Active/Sound_Escapes/Mason/footage/Algonquin Park Stars Timelapse-1gwwgR7oNb4.mkv</property>
  <property name="aspect_ratio">1</property>
  <property name="meta.media.nb_streams">2</property>
  <property name="meta.media.0.stream.type">video</property>
  <property name="meta.media.0.stream.frame_rate">29.97</property>
  <property name="meta.media.0.stream.sample_aspect_ratio">1</property>
  <property name="meta.media.0.codec.width">1920</property>
  <property name="meta.media.0.codec.height">1080</property>
  <property name="meta.media.0.codec.rotate">0</property>
  <property name="meta.media.0.codec.frame_rate">29.97</property>
  <property name="meta.media.0.codec.pix_fmt">yuv420p</property>
  <property name="meta.media.0.codec.sample_aspect_ratio">1</property>
  <property name="meta.media.0.codec.colorspace">709</property>
  <property name="meta.media.0.codec.name">h264</property>
  <property name="meta.media.0.codec.long_name">H.264 / AVC / MPEG-4 AVC / MPEG-4 part 10</property>
  <property name="meta.media.0.codec.bit_rate">0</property>
  <property name="meta.attr.0.stream.HANDLER_NAME.markup">VideoHandler</property>
  <property name="meta.attr.0.stream.DURATION.markup">00:01:26.753000000</property>
  <property name="meta.media.1.stream.type">audio</property>
  <property name="meta.media.1.codec.sample_fmt">fltp</property>
  <property name="meta.media.1.codec.sample_rate">48000</property>
  <property name="meta.media.1.codec.channels">2</property>
  <property name="meta.media.1.codec.name">opus</property>
  <property name="meta.media.1.codec.long_name">Opus</property>
  <property name="meta.media.1.codec.bit_rate">0</property>
  <property name="meta.attr.1.stream.language.markup">eng</property>
  <property name="meta.attr.1.stream.DURATION.markup">00:01:26.781000000</property>
  <property name="meta.attr.COMPATIBLE_BRANDS.markup">iso6avc1mp41</property>
  <property name="meta.attr.MAJOR_BRAND.markup">dash</property>
  <property name="meta.attr.MINOR_VERSION.markup">0</property>
  <property name="meta.attr.ENCODER.markup">Lavf58.45.100</property>
  <property name="seekable">1</property>
  <property name="meta.media.sample_aspect_num">1</property>
  <property name="meta.media.sample_aspect_den">1</property>
  <property name="audio_index">1</property>
  <property name="video_index">0</property>
  <property name="mute_on_pause">1</property>
  <property name="warp_speed">-1</property>
  <property name="warp_resource">/home/ryankelln/Documents/Projects/Active/Sound_Escapes/Mason/footage/Algonquin Park Stars Timelapse-1gwwgR7oNb4.mkv</property>
  <property name="mlt_service">timewarp</property>
  <property name="set.test_audio">1</property>
  <property name="set.test_image">0</property>
  <property name="kdenlive:id">16</property>
  <property name="warp_pitch">0</property>
  <property name="meta.media.frame_rate_num">30000</property>
  <property name="meta.media.frame_rate_den">1001</property>
  <property name="meta.media.colorspace">709</property>
  <property name="meta.media.color_trc">2</property>
  <property name="meta.media.width">1920</property>
  <property name="meta.media.height">1080</property>
  <property name="meta.media.color_range">mpeg</property>
  <property name="meta.media.top_field_first">0</property>
  <property name="meta.media.progressive">1</property>
 </producer>
 <producer id="producer65" in="00:00:00.000" out="00:08:17.600">
  <property name="length">14929</property>
  <property name="eof">pause</property>
  <property name="resource">/home/ryankelln/Documents/Projects/Active/Sound_Escapes/Mason/footage/One night in Finnish Lapland with northern lights.-GuVq6Q7erVM.mkv</property>
  <property name="audio_index">1</property>
  <property name="video_index">0</property>
  <property name="mute_on_pause">0</property>
  <property name="mlt_service">avformat-novalidate</property>
  <property name="seekable">1</property>
  <property name="aspect_ratio">1</property>
  <property name="kdenlive:clipname"/>
  <property name="kdenlive:folderid">-1</property>
  <property name="kdenlive:id">23</property>
  <property name="kdenlive:file_size">78820293</property>
  <property name="kdenlive:file_hash">d8ff9d47a29f1618bbfd392afaead1e1</property>
  <property name="kdenlive:audio_max">1</property>
  <property name="kdenlive:active_streams">-1</property>
  <property name="kdenlive:zone_in">9172</property>
  <property name="kdenlive:zone_out">9344</property>
  <property name="kdenlive:clipzones">[
    {
        "in": 7804,
        "name": "Zone 1",
        "out": 8068
    },
    {
        "in": 8299,
        "name": "Zone 2",
        "out": 8691
    },
    {
        "in": 8691,
        "name": "Zone 3",
        "out": 8795
    },
    {
        "in": 8795,
        "name": "Zone 4",
        "out": 8878
    },
    {
        "in": 8882,
        "name": "Zone 5",
        "out": 9149
    },
    {
        "in": 9172,
        "name": "Zone 6",
        "out": 9344
    }
]
</property>
  <property name="global_feed">1</property>
  <property name="xml">was here</property>
  <property name="meta.media.nb_streams">2</property>
  <property name="meta.media.0.stream.type">video</property>
  <property name="meta.media.0.stream.frame_rate">25</property>
  <property name="meta.media.0.stream.sample_aspect_ratio">1</property>
  <property name="meta.media.0.codec.width">1920</property>
  <property name="meta.media.0.codec.height">1080</property>
  <property name="meta.media.0.codec.rotate">0</property>
  <property name="meta.media.0.codec.frame_rate">25</property>
  <property name="meta.media.0.codec.pix_fmt">yuv420p</property>
  <property name="meta.media.0.codec.sample_aspect_ratio">1</property>
  <property name="meta.media.0.codec.colorspace">709</property>
  <property name="meta.media.0.codec.color_trc">1</property>
  <property name="meta.media.0.codec.name">h264</property>
  <property name="meta.media.0.codec.long_name">H.264 / AVC / MPEG-4 AVC / MPEG-4 part 10</property>
  <property name="meta.media.0.codec.bit_rate">0</property>
  <property name="meta.attr.0.stream.HANDLER_NAME.markup">VideoHandler</property>
  <property name="meta.attr.0.stream.DURATION.markup">00:08:17.600000000</property>
  <property name="meta.media.1.stream.type">audio</property>
  <property name="meta.media.1.codec.sample_fmt">fltp</property>
  <property name="meta.media.1.codec.sample_rate">48000</property>
  <property name="meta.media.1.codec.channels">2</property>
  <property name="meta.media.1.codec.name">opus</property>
  <property name="meta.media.1.codec.long_name">Opus</property>
  <property name="meta.media.1.codec.bit_rate">0</property>
  <property name="meta.attr.1.stream.language.markup">eng</property>
  <property name="meta.attr.1.stream.DURATION.markup">00:08:17.621000000</property>
  <property name="meta.attr.COMPATIBLE_BRANDS.markup">iso6avc1mp41</property>
  <property name="meta.attr.MAJOR_BRAND.markup">dash</property>
  <property name="meta.attr.MINOR_VERSION.markup">0</property>
  <property name="meta.attr.ENCODER.markup">Lavf58.45.100</property>
  <property name="meta.media.sample_aspect_num">1</property>
  <property name="meta.media.sample_aspect_den">1</property>
  <property name="meta.media.frame_rate_num">25</property>
  <property name="meta.media.frame_rate_den">1</property>
  <property name="meta.media.colorspace">709</property>
  <property name="meta.media.color_trc">1</property>
  <property name="meta.media.width">1920</property>
  <property name="meta.media.height">1080</property>
  <property name="meta.media.color_range">mpeg</property>
  <property name="meta.media.top_field_first">0</property>
  <property name="meta.media.progressive">1</property>
  <property name="set.test_audio">1</property>
  <property name="set.test_image">0</property>
 </producer>
 <producer id="producer66" in="00:00:00.000" out="00:00:30.000">
  <property name="length">901</property>
  <property name="eof">pause</property>
  <property name="resource">/home/ryankelln/Documents/Projects/Active/Sound_Escapes/Mason/footage/Stars in Space - Copyright Free Reusable Stock Video HD-5yXWVS_bE_g.mp4</property>
  <property name="audio_index">1</property>
  <property name="video_index">0</property>
  <property name="mute_on_pause">0</property>
  <property name="mlt_service">avformat-novalidate</property>
  <property name="seekable">1</property>
  <property name="aspect_ratio">1</property>
  <property name="kdenlive:clipname"/>
  <property name="kdenlive:folderid">-1</property>
  <property name="kdenlive:id">15</property>
  <property name="kdenlive:file_size">18366114</property>
  <property name="kdenlive:file_hash">4d1f6fa81d99e339c68e8177852eda2f</property>
  <property name="kdenlive:audio_max">91</property>
  <property name="kdenlive:active_streams">-1</property>
  <property name="global_feed">1</property>
  <property name="xml">was here</property>
  <property name="meta.media.nb_streams">2</property>
  <property name="meta.media.0.stream.type">video</property>
  <property name="meta.media.0.stream.frame_rate">30</property>
  <property name="meta.media.0.stream.sample_aspect_ratio">1</property>
  <property name="meta.media.0.codec.width">1920</property>
  <property name="meta.media.0.codec.height">1080</property>
  <property name="meta.media.0.codec.rotate">0</property>
  <property name="meta.media.0.codec.frame_rate">30</property>
  <property name="meta.media.0.codec.pix_fmt">yuv420p</property>
  <property name="meta.media.0.codec.sample_aspect_ratio">1</property>
  <property name="meta.media.0.codec.colorspace">709</property>
  <property name="meta.media.0.codec.color_trc">1</property>
  <property name="meta.media.0.codec.name">h264</property>
  <property name="meta.media.0.codec.long_name">H.264 / AVC / MPEG-4 AVC / MPEG-4 part 10</property>
  <property name="meta.media.0.codec.bit_rate">4761285</property>
  <property name="meta.attr.0.stream.handler_name.markup">ISO Media file produced by Google Inc.</property>
  <property name="meta.attr.0.stream.vendor_id.markup">[0][0][0][0]</property>
  <property name="meta.media.1.stream.type">audio</property>
  <property name="meta.media.1.codec.sample_fmt">fltp</property>
  <property name="meta.media.1.codec.sample_rate">44100</property>
  <property name="meta.media.1.codec.channels">2</property>
  <property name="meta.media.1.codec.name">aac</property>
  <property name="meta.media.1.codec.long_name">AAC (Advanced Audio Coding)</property>
  <property name="meta.media.1.codec.bit_rate">127999</property>
  <property name="meta.attr.1.stream.handler_name.markup">ISO Media file produced by Google Inc.</property>
  <property name="meta.attr.1.stream.vendor_id.markup">[0][0][0][0]</property>
  <property name="meta.attr.major_brand.markup">isom</property>
  <property name="meta.attr.minor_version.markup">512</property>
  <property name="meta.attr.compatible_brands.markup">isomiso2avc1mp41</property>
  <property name="meta.attr.encoder.markup">Lavf58.45.100</property>
  <property name="meta.media.sample_aspect_num">1</property>
  <property name="meta.media.sample_aspect_den">1</property>
  <property name="meta.media.frame_rate_num">30</property>
  <property name="meta.media.frame_rate_den">1</property>
  <property name="meta.media.colorspace">709</property>
  <property name="meta.media.color_trc">1</property>
  <property name="meta.media.width">1920</property>
  <property name="meta.media.height">1080</property>
  <property name="meta.media.color_range">mpeg</property>
  <property name="meta.media.top_field_first">0</property>
  <property name="meta.media.progressive">1</property>
  <property name="set.test_audio">1</property>
  <property name="set.test_image">0</property>
 </producer>
 <producer id="producer67" in="00:00:00.000" out="00:08:27.667">
  <property name="length">15231</property>
  <property name="eof">pause</property>
  <property name="resource">0.800000:/home/ryankelln/Documents/Projects/Active/Sound_Escapes/Mason/footage/Soothing Relax And Calm _Night Sky Time Lapse, Starry Night Sleep Music, Study _Ambient, Meditations-Zw3q6h7DsFs.webm</property>
  <property name="aspect_ratio">1</property>
  <property name="meta.media.nb_streams">2</property>
  <property name="meta.media.0.stream.type">video</property>
  <property name="meta.media.0.stream.frame_rate">27.38</property>
  <property name="meta.media.0.stream.sample_aspect_ratio">1</property>
  <property name="meta.media.0.codec.width">1920</property>
  <property name="meta.media.0.codec.height">1080</property>
  <property name="meta.media.0.codec.rotate">0</property>
  <property name="meta.media.0.codec.frame_rate">1000</property>
  <property name="meta.media.0.codec.pix_fmt">yuv420p</property>
  <property name="meta.media.0.codec.sample_aspect_ratio">0</property>
  <property name="meta.media.0.codec.colorspace">709</property>
  <property name="meta.media.0.codec.name">vp9</property>
  <property name="meta.media.0.codec.long_name">Google VP9</property>
  <property name="meta.media.0.codec.bit_rate">0</property>
  <property name="meta.attr.0.stream.language.markup">eng</property>
  <property name="meta.attr.0.stream.DURATION.markup">00:06:46.135000000</property>
  <property name="meta.media.1.stream.type">audio</property>
  <property name="meta.media.1.codec.sample_fmt">fltp</property>
  <property name="meta.media.1.codec.sample_rate">48000</property>
  <property name="meta.media.1.codec.channels">2</property>
  <property name="meta.media.1.codec.name">opus</property>
  <property name="meta.media.1.codec.long_name">Opus</property>
  <property name="meta.media.1.codec.bit_rate">0</property>
  <property name="meta.attr.1.stream.language.markup">eng</property>
  <property name="meta.attr.1.stream.DURATION.markup">00:06:46.161000000</property>
  <property name="meta.attr.HTTP://YOUTUBE.COM/STREAMING/OTF/DURATIONS/112015.markup">Segment-Count: 78&#xd;
Segment-Durations-Ms: 5259,5260,5259(r=1),5260,5259(r=1),5260,5259(r=2),5260,5259(r=1),5260,5259(r=1),5260,5259(r=1),5260,5259(r=1),5260,5259(r=2),5260,5259(r=1),5260,5259(r=1),5260,5259(r=1),5260,5259(r=1),5260,5259(r=2),5260,5259(r=1),5260,5259(r=1),5260,5259(r=1),5260,5259(r=1),5260,5259(r=2),5260,5259(r=1),5260,5259(r=1),5260,5259(r=1),5260,5259(r=1),5260,5259(r=2),5260,5259,1169,&#xd;
&#xd;
</property>
  <property name="meta.attr.ENCODER.markup">Lavf58.45.100</property>
  <property name="seekable">1</property>
  <property name="meta.media.sample_aspect_num">1</property>
  <property name="meta.media.sample_aspect_den">1</property>
  <property name="audio_index">1</property>
  <property name="video_index">0</property>
  <property name="mute_on_pause">1</property>
  <property name="warp_speed">0.8</property>
  <property name="warp_resource">/home/ryankelln/Documents/Projects/Active/Sound_Escapes/Mason/footage/Soothing Relax And Calm _Night Sky Time Lapse, Starry Night Sleep Music, Study _Ambient, Meditations-Zw3q6h7DsFs.webm</property>
  <property name="mlt_service">timewarp</property>
  <property name="set.test_audio">1</property>
  <property name="set.test_image">0</property>
  <property name="kdenlive:id">21</property>
  <property name="warp_pitch">0</property>
  <property name="meta.media.frame_rate_num">1369</property>
  <property name="meta.media.frame_rate_den">50</property>
  <property name="meta.media.colorspace">709</property>
  <property name="meta.media.color_trc">2</property>
  <property name="meta.media.width">1920</property>
  <property name="meta.media.height">1080</property>
  <property name="meta.media.color_range">mpeg</property>
  <property name="meta.media.top_field_first">0</property>
  <property name="meta.media.progressive">1</property>
 </producer>
 <producer id="producer68" in="00:00:00.000" out="00:01:00.033">
  <property name="length">1802</property>
  <property name="eof">pause</property>
  <property name="resource">1.750000:/media/storage/media/Videos/mine/music_landscapes/2021-05-21/rehearsal1_Sarah_C0024.MP4</property>
  <property name="aspect_ratio">1</property>
  <property name="meta.media.nb_streams">3</property>
  <property name="meta.media.0.stream.type">video</property>
  <property name="meta.media.0.stream.frame_rate">29.97</property>
  <property name="meta.media.0.stream.sample_aspect_ratio">0</property>
  <property name="meta.media.0.codec.width">1920</property>
  <property name="meta.media.0.codec.height">1080</property>
  <property name="meta.media.0.codec.rotate">0</property>
  <property name="meta.media.0.codec.frame_rate">29.97</property>
  <property name="meta.media.0.codec.pix_fmt">yuv420p</property>
  <property name="meta.media.0.codec.sample_aspect_ratio">1</property>
  <property name="meta.media.0.codec.colorspace">709</property>
  <property name="meta.media.0.codec.color_trc">1</property>
  <property name="meta.media.0.codec.name">h264</property>
  <property name="meta.media.0.codec.long_name">H.264 / AVC / MPEG-4 AVC / MPEG-4 part 10</property>
  <property name="meta.media.0.codec.bit_rate">47569332</property>
  <property name="meta.attr.0.stream.creation_time.markup">2021-05-22T20:15:57.000000Z</property>
  <property name="meta.attr.0.stream.handler_name.markup">Video Media Handler</property>
  <property name="meta.attr.0.stream.encoder.markup">AVC Coding</property>
  <property name="meta.media.1.stream.type">audio</property>
  <property name="meta.media.1.codec.sample_fmt">s16</property>
  <property name="meta.media.1.codec.sample_rate">48000</property>
  <property name="meta.media.1.codec.channels">2</property>
  <property name="meta.media.1.codec.name">pcm_s16be</property>
  <property name="meta.media.1.codec.long_name">PCM signed 16-bit big-endian</property>
  <property name="meta.media.1.codec.bit_rate">1536000</property>
  <property name="meta.attr.1.stream.creation_time.markup">2021-05-22T20:15:57.000000Z</property>
  <property name="meta.attr.1.stream.handler_name.markup">Sound Media Handler</property>
  <property name="meta.attr.major_brand.markup">XAVC</property>
  <property name="meta.attr.minor_version.markup">16785407</property>
  <property name="meta.attr.compatible_brands.markup">XAVCmp42iso2</property>
  <property name="meta.attr.creation_time.markup">2021-05-22T20:15:57.000000Z</property>
  <property name="seekable">1</property>
  <property name="meta.media.sample_aspect_num">1</property>
  <property name="meta.media.sample_aspect_den">1</property>
  <property name="audio_index">1</property>
  <property name="video_index">0</property>
  <property name="mute_on_pause">1</property>
  <property name="warp_speed">1.75</property>
  <property name="warp_resource">/media/storage/media/Videos/mine/music_landscapes/2021-05-21/rehearsal1_Sarah_C0024.MP4</property>
  <property name="mlt_service">timewarp</property>
  <property name="meta.attr.0.stream.vendor_id.markup">[0][0][0][0]</property>
  <property name="meta.attr.1.stream.vendor_id.markup">[0][0][0][0]</property>
  <property name="set.test_audio">1</property>
  <property name="set.test_image">0</property>
  <property name="kdenlive:id">27</property>
  <property name="warp_pitch">0</property>
  <property name="meta.media.frame_rate_num">30000</property>
  <property name="meta.media.frame_rate_den">1001</property>
  <property name="meta.media.colorspace">709</property>
  <property name="meta.media.color_trc">1</property>
  <property name="meta.media.width">1920</property>
  <property name="meta.media.height">1080</property>
  <property name="meta.media.color_range">mpeg</property>
  <property name="meta.media.top_field_first">0</property>
  <property name="meta.media.progressive">1</property>
 </producer>
 <producer id="producer69" in="00:00:00.000" out="00:01:00.067">
  <property name="length">1804</property>
  <property name="eof">pause</property>
  <property name="resource">0.25:/home/ryankelln/Documents/Projects/Active/Sound_Escapes/Mason/storyboard/the_night_is_young_124000_d3f121a8.mp4</property>
  <property name="aspect_ratio">1</property>
  <property name="meta.media.nb_streams">2</property>
  <property name="meta.media.0.stream.type">video</property>
  <property name="meta.media.0.stream.frame_rate">30</property>
  <property name="meta.media.0.stream.sample_aspect_ratio">0</property>
  <property name="meta.media.0.codec.width">512</property>
  <property name="meta.media.0.codec.height">512</property>
  <property name="meta.media.0.codec.rotate">0</property>
  <property name="meta.media.0.codec.frame_rate">30</property>
  <property name="meta.media.0.codec.pix_fmt">yuv420p</property>
  <property name="meta.media.0.codec.sample_aspect_ratio">0</property>
  <property name="meta.media.0.codec.colorspace">601</property>
  <property name="meta.media.0.codec.name">h264</property>
  <property name="meta.media.0.codec.long_name">H.264 / AVC / MPEG-4 AVC / MPEG-4 part 10</property>
  <property name="meta.media.0.codec.bit_rate">533671</property>
  <property name="meta.attr.0.stream.handler_name.markup">VideoHandler</property>
  <property name="meta.media.1.stream.type">audio</property>
  <property name="meta.media.1.codec.sample_fmt">fltp</property>
  <property name="meta.media.1.codec.sample_rate">48000</property>
  <property name="meta.media.1.codec.channels">2</property>
  <property name="meta.media.1.codec.name">aac</property>
  <property name="meta.media.1.codec.long_name">AAC (Advanced Audio Coding)</property>
  <property name="meta.media.1.codec.bit_rate">288022</property>
  <property name="meta.attr.1.stream.handler_name.markup">SoundHandler</property>
  <property name="meta.attr.major_brand.markup">isom</property>
  <property name="meta.attr.minor_version.markup">512</property>
  <property name="meta.attr.compatible_brands.markup">isomiso2avc1mp41</property>
  <property name="meta.attr.encoder.markup">Lavf58.29.100</property>
  <property name="seekable">1</property>
  <property name="meta.media.sample_aspect_num">1</property>
  <property name="meta.media.sample_aspect_den">1</property>
  <property name="audio_index">1</property>
  <property name="video_index">0</property>
  <property name="mute_on_pause">1</property>
  <property name="warp_speed">0.25</property>
  <property name="warp_resource">/home/ryankelln/Documents/Projects/Active/Sound_Escapes/Mason/storyboard/the_night_is_young_124000_d3f121a8.mp4</property>
  <property name="mlt_service">timewarp</property>
  <property name="meta.attr.0.stream.vendor_id.markup">[0][0][0][0]</property>
  <property name="meta.attr.1.stream.vendor_id.markup">[0][0][0][0]</property>
  <property name="set.test_audio">1</property>
  <property name="set.test_image">0</property>
  <property name="kdenlive:id">2</property>
  <property name="warp_pitch">0</property>
  <property name="meta.media.frame_rate_num">30</property>
  <property name="meta.media.frame_rate_den">1</property>
  <property name="meta.media.colorspace">601</property>
  <property name="meta.media.color_trc">2</property>
  <property name="meta.media.width">512</property>
  <property name="meta.media.height">512</property>
  <property name="meta.media.color_range">mpeg</property>
  <property name="meta.media.top_field_first">0</property>
  <property name="meta.media.progressive">1</property>
 </producer>
 <producer id="producer70" in="00:00:00.000" out="00:01:30.000">
  <property name="length">2701</property>
  <property name="eof">pause</property>
  <property name="resource">/home/ryankelln/Documents/Projects/Active/Sound_Escapes/Mason/storyboard/the_night_is_young_124000_d3f121a8.mp4</property>
  <property name="audio_index">1</property>
  <property name="video_index">0</property>
  <property name="mute_on_pause">0</property>
  <property name="mlt_service">avformat-novalidate</property>
  <property name="seekable">1</property>
  <property name="aspect_ratio">1</property>
  <property name="kdenlive:clipname"/>
  <property name="kdenlive:folderid">-1</property>
  <property name="kdenlive:id">29</property>
  <property name="kdenlive:file_size">12114559</property>
  <property name="kdenlive:file_hash">7b98c69b7c05695fa8f37ff12780e61e</property>
  <property name="kdenlive:audio_max">1</property>
  <property name="kdenlive:zone_in">1052</property>
  <property name="kdenlive:zone_out">1426</property>
  <property name="kdenlive:clipzones">[
    {
        "in": 1052,
        "name": "Zone 1",
        "out": 1426
    }
]
</property>
  <property name="global_feed">1</property>
  <property name="kdenlive:active_streams">-1</property>
  <property name="xml">was here</property>
  <property name="meta.media.nb_streams">2</property>
  <property name="meta.media.0.stream.type">video</property>
  <property name="meta.media.0.stream.frame_rate">30</property>
  <property name="meta.media.0.stream.sample_aspect_ratio">0</property>
  <property name="meta.media.0.codec.width">512</property>
  <property name="meta.media.0.codec.height">512</property>
  <property name="meta.media.0.codec.rotate">0</property>
  <property name="meta.media.0.codec.frame_rate">30</property>
  <property name="meta.media.0.codec.pix_fmt">yuv420p</property>
  <property name="meta.media.0.codec.sample_aspect_ratio">0</property>
  <property name="meta.media.0.codec.colorspace">601</property>
  <property name="meta.media.0.codec.name">h264</property>
  <property name="meta.media.0.codec.long_name">H.264 / AVC / MPEG-4 AVC / MPEG-4 part 10</property>
  <property name="meta.media.0.codec.bit_rate">752930</property>
  <property name="meta.attr.0.stream.handler_name.markup">VideoHandler</property>
  <property name="meta.attr.0.stream.vendor_id.markup">[0][0][0][0]</property>
  <property name="meta.media.1.stream.type">audio</property>
  <property name="meta.media.1.codec.sample_fmt">fltp</property>
  <property name="meta.media.1.codec.sample_rate">48000</property>
  <property name="meta.media.1.codec.channels">2</property>
  <property name="meta.media.1.codec.name">aac</property>
  <property name="meta.media.1.codec.long_name">AAC (Advanced Audio Coding)</property>
  <property name="meta.media.1.codec.bit_rate">315283</property>
  <property name="meta.attr.1.stream.handler_name.markup">SoundHandler</property>
  <property name="meta.attr.1.stream.vendor_id.markup">[0][0][0][0]</property>
  <property name="meta.attr.major_brand.markup">isom</property>
  <property name="meta.attr.minor_version.markup">512</property>
  <property name="meta.attr.compatible_brands.markup">isomiso2avc1mp41</property>
  <property name="meta.attr.encoder.markup">Lavf58.29.100</property>
  <property name="meta.media.sample_aspect_num">1</property>
  <property name="meta.media.sample_aspect_den">1</property>
  <property name="meta.media.frame_rate_num">30</property>
  <property name="meta.media.frame_rate_den">1</property>
  <property name="meta.media.colorspace">601</property>
  <property name="meta.media.color_trc">2</property>
  <property name="meta.media.width">512</property>
  <property name="meta.media.height">512</property>
  <property name="meta.media.color_range">mpeg</property>
  <property name="meta.media.top_field_first">0</property>
  <property name="meta.media.progressive">1</property>
  <property name="set.test_audio">1</property>
  <property name="set.test_image">0</property>
 </producer>
 <producer id="producer71" in="00:00:00.000" out="00:00:44.967">
  <property name="length">1351</property>
  <property name="eof">pause</property>
  <property name="resource">2:/home/ryankelln/Documents/Projects/Active/Sound_Escapes/Mason/storyboard/the_night_is_young_124000_d3f121a8.mp4</property>
  <property name="aspect_ratio">1</property>
  <property name="meta.media.nb_streams">2</property>
  <property name="meta.media.0.stream.type">video</property>
  <property name="meta.media.0.stream.frame_rate">30</property>
  <property name="meta.media.0.stream.sample_aspect_ratio">0</property>
  <property name="meta.media.0.codec.width">512</property>
  <property name="meta.media.0.codec.height">512</property>
  <property name="meta.media.0.codec.rotate">0</property>
  <property name="meta.media.0.codec.frame_rate">30</property>
  <property name="meta.media.0.codec.pix_fmt">yuv420p</property>
  <property name="meta.media.0.codec.sample_aspect_ratio">0</property>
  <property name="meta.media.0.codec.colorspace">601</property>
  <property name="meta.media.0.codec.name">h264</property>
  <property name="meta.media.0.codec.long_name">H.264 / AVC / MPEG-4 AVC / MPEG-4 part 10</property>
  <property name="meta.media.0.codec.bit_rate">752930</property>
  <property name="meta.attr.0.stream.handler_name.markup">VideoHandler</property>
  <property name="meta.media.1.stream.type">audio</property>
  <property name="meta.media.1.codec.sample_fmt">fltp</property>
  <property name="meta.media.1.codec.sample_rate">48000</property>
  <property name="meta.media.1.codec.channels">2</property>
  <property name="meta.media.1.codec.name">aac</property>
  <property name="meta.media.1.codec.long_name">AAC (Advanced Audio Coding)</property>
  <property name="meta.media.1.codec.bit_rate">315283</property>
  <property name="meta.attr.1.stream.handler_name.markup">SoundHandler</property>
  <property name="meta.attr.major_brand.markup">isom</property>
  <property name="meta.attr.minor_version.markup">512</property>
  <property name="meta.attr.compatible_brands.markup">isomiso2avc1mp41</property>
  <property name="meta.attr.encoder.markup">Lavf58.29.100</property>
  <property name="seekable">1</property>
  <property name="meta.media.sample_aspect_num">1</property>
  <property name="meta.media.sample_aspect_den">1</property>
  <property name="audio_index">1</property>
  <property name="video_index">0</property>
  <property name="mute_on_pause">1</property>
  <property name="warp_speed">2</property>
  <property name="warp_resource">/home/ryankelln/Documents/Projects/Active/Sound_Escapes/Mason/storyboard/the_night_is_young_124000_d3f121a8.mp4</property>
  <property name="mlt_service">timewarp</property>
  <property name="meta.attr.0.stream.vendor_id.markup">[0][0][0][0]</property>
  <property name="meta.attr.1.stream.vendor_id.markup">[0][0][0][0]</property>
  <property name="set.test_audio">1</property>
  <property name="set.test_image">0</property>
  <property name="kdenlive:id">29</property>
  <property name="warp_pitch">0</property>
  <property name="meta.media.frame_rate_num">30</property>
  <property name="meta.media.frame_rate_den">1</property>
  <property name="meta.media.colorspace">601</property>
  <property name="meta.media.color_trc">2</property>
  <property name="meta.media.width">512</property>
  <property name="meta.media.height">512</property>
  <property name="meta.media.color_range">mpeg</property>
  <property name="meta.media.top_field_first">0</property>
  <property name="meta.media.progressive">1</property>
 </producer>
 <producer id="producer72" in="00:00:00.000" out="00:00:44.967">
  <property name="length">1351</property>
  <property name="eof">pause</property>
  <property name="resource">2:/home/ryankelln/Documents/Projects/Active/Sound_Escapes/Mason/storyboard/the_night_is_young_124000_d3f121a8.mp4</property>
  <property name="aspect_ratio">1</property>
  <property name="meta.media.nb_streams">2</property>
  <property name="meta.media.0.stream.type">video</property>
  <property name="meta.media.0.stream.frame_rate">30</property>
  <property name="meta.media.0.stream.sample_aspect_ratio">0</property>
  <property name="meta.media.0.codec.width">512</property>
  <property name="meta.media.0.codec.height">512</property>
  <property name="meta.media.0.codec.rotate">0</property>
  <property name="meta.media.0.codec.frame_rate">30</property>
  <property name="meta.media.0.codec.pix_fmt">yuv420p</property>
  <property name="meta.media.0.codec.sample_aspect_ratio">0</property>
  <property name="meta.media.0.codec.colorspace">601</property>
  <property name="meta.media.0.codec.name">h264</property>
  <property name="meta.media.0.codec.long_name">H.264 / AVC / MPEG-4 AVC / MPEG-4 part 10</property>
  <property name="meta.media.0.codec.bit_rate">752930</property>
  <property name="meta.attr.0.stream.handler_name.markup">VideoHandler</property>
  <property name="meta.media.1.stream.type">audio</property>
  <property name="meta.media.1.codec.sample_fmt">fltp</property>
  <property name="meta.media.1.codec.sample_rate">48000</property>
  <property name="meta.media.1.codec.channels">2</property>
  <property name="meta.media.1.codec.name">aac</property>
  <property name="meta.media.1.codec.long_name">AAC (Advanced Audio Coding)</property>
  <property name="meta.media.1.codec.bit_rate">315283</property>
  <property name="meta.attr.1.stream.handler_name.markup">SoundHandler</property>
  <property name="meta.attr.major_brand.markup">isom</property>
  <property name="meta.attr.minor_version.markup">512</property>
  <property name="meta.attr.compatible_brands.markup">isomiso2avc1mp41</property>
  <property name="meta.attr.encoder.markup">Lavf58.29.100</property>
  <property name="seekable">1</property>
  <property name="meta.media.sample_aspect_num">1</property>
  <property name="meta.media.sample_aspect_den">1</property>
  <property name="audio_index">1</property>
  <property name="video_index">0</property>
  <property name="mute_on_pause">1</property>
  <property name="warp_speed">2</property>
  <property name="warp_resource">/home/ryankelln/Documents/Projects/Active/Sound_Escapes/Mason/storyboard/the_night_is_young_124000_d3f121a8.mp4</property>
  <property name="mlt_service">timewarp</property>
  <property name="meta.attr.0.stream.vendor_id.markup">[0][0][0][0]</property>
  <property name="meta.attr.1.stream.vendor_id.markup">[0][0][0][0]</property>
  <property name="set.test_audio">1</property>
  <property name="set.test_image">0</property>
  <property name="kdenlive:id">29</property>
  <property name="warp_pitch">0</property>
  <property name="meta.media.frame_rate_num">30</property>
  <property name="meta.media.frame_rate_den">1</property>
  <property name="meta.media.colorspace">601</property>
  <property name="meta.media.color_trc">2</property>
  <property name="meta.media.width">512</property>
  <property name="meta.media.height">512</property>
  <property name="meta.media.color_range">mpeg</property>
  <property name="meta.media.top_field_first">0</property>
  <property name="meta.media.progressive">1</property>
 </producer>
 <producer id="producer73" in="00:00:00.000" out="00:00:29.967">
  <property name="length">900</property>
  <property name="eof">pause</property>
  <property name="resource">3:/home/ryankelln/Documents/Projects/Active/Sound_Escapes/Mason/storyboard/the_night_is_young_124000_d3f121a8.mp4</property>
  <property name="aspect_ratio">1</property>
  <property name="meta.media.nb_streams">2</property>
  <property name="meta.media.0.stream.type">video</property>
  <property name="meta.media.0.stream.frame_rate">30</property>
  <property name="meta.media.0.stream.sample_aspect_ratio">0</property>
  <property name="meta.media.0.codec.width">512</property>
  <property name="meta.media.0.codec.height">512</property>
  <property name="meta.media.0.codec.rotate">0</property>
  <property name="meta.media.0.codec.frame_rate">30</property>
  <property name="meta.media.0.codec.pix_fmt">yuv420p</property>
  <property name="meta.media.0.codec.sample_aspect_ratio">0</property>
  <property name="meta.media.0.codec.colorspace">601</property>
  <property name="meta.media.0.codec.name">h264</property>
  <property name="meta.media.0.codec.long_name">H.264 / AVC / MPEG-4 AVC / MPEG-4 part 10</property>
  <property name="meta.media.0.codec.bit_rate">752930</property>
  <property name="meta.attr.0.stream.handler_name.markup">VideoHandler</property>
  <property name="meta.media.1.stream.type">audio</property>
  <property name="meta.media.1.codec.sample_fmt">fltp</property>
  <property name="meta.media.1.codec.sample_rate">48000</property>
  <property name="meta.media.1.codec.channels">2</property>
  <property name="meta.media.1.codec.name">aac</property>
  <property name="meta.media.1.codec.long_name">AAC (Advanced Audio Coding)</property>
  <property name="meta.media.1.codec.bit_rate">315283</property>
  <property name="meta.attr.1.stream.handler_name.markup">SoundHandler</property>
  <property name="meta.attr.major_brand.markup">isom</property>
  <property name="meta.attr.minor_version.markup">512</property>
  <property name="meta.attr.compatible_brands.markup">isomiso2avc1mp41</property>
  <property name="meta.attr.encoder.markup">Lavf58.29.100</property>
  <property name="seekable">1</property>
  <property name="meta.media.sample_aspect_num">1</property>
  <property name="meta.media.sample_aspect_den">1</property>
  <property name="audio_index">1</property>
  <property name="video_index">0</property>
  <property name="mute_on_pause">1</property>
  <property name="warp_speed">3</property>
  <property name="warp_resource">/home/ryankelln/Documents/Projects/Active/Sound_Escapes/Mason/storyboard/the_night_is_young_124000_d3f121a8.mp4</property>
  <property name="mlt_service">timewarp</property>
  <property name="meta.attr.0.stream.vendor_id.markup">[0][0][0][0]</property>
  <property name="meta.attr.1.stream.vendor_id.markup">[0][0][0][0]</property>
  <property name="set.test_audio">1</property>
  <property name="set.test_image">0</property>
  <property name="kdenlive:id">29</property>
  <property name="warp_pitch">0</property>
  <property name="meta.media.frame_rate_num">30</property>
  <property name="meta.media.frame_rate_den">1</property>
  <property name="meta.media.colorspace">601</property>
  <property name="meta.media.color_trc">2</property>
  <property name="meta.media.width">512</property>
  <property name="meta.media.height">512</property>
  <property name="meta.media.color_range">mpeg</property>
  <property name="meta.media.top_field_first">0</property>
  <property name="meta.media.progressive">1</property>
 </producer>
 <playlist id="playlist4">
  <blank length="00:09:54.767"/>
  <entry producer="producer61" in="00:01:02.767" out="00:01:06.867">
   <property name="kdenlive:id">5</property>
   <filter id="filter6" in="00:01:02.767" out="00:01:03.267">
    <property name="start">0</property>
    <property name="mlt_service">brightness</property>
    <property name="kdenlive_id">fade_from_black</property>
    <property name="end">1</property>
    <property name="alpha">-1</property>
    <property name="kdenlive:collapsed">0</property>
   </filter>
   <filter id="filter7" in="00:01:04.800" out="00:01:06.867">
    <property name="start">1</property>
    <property name="mlt_service">brightness</property>
    <property name="kdenlive_id">fade_to_black</property>
    <property name="end">0</property>
    <property name="alpha">-1</property>
    <property name="kdenlive:collapsed">0</property>
   </filter>
  </entry>
  <entry producer="producer61" in="00:00:18.000" out="00:00:21.667">
   <property name="kdenlive:id">5</property>
   <filter id="filter8" in="00:00:18.000" out="00:00:18.267">
    <property name="start">0</property>
    <property name="mlt_service">brightness</property>
    <property name="kdenlive_id">fade_from_black</property>
    <property name="end">1</property>
    <property name="alpha">-1</property>
    <property name="kdenlive:collapsed">0</property>
   </filter>
   <filter id="filter9" in="00:00:19.833" out="00:00:21.667">
    <property name="start">1</property>
    <property name="mlt_service">brightness</property>
    <property name="kdenlive_id">fade_to_black</property>
    <property name="end">0</property>
    <property name="alpha">-1</property>
    <property name="kdenlive:collapsed">0</property>
   </filter>
  </entry>
  <entry producer="producer61" in="00:00:43.067" out="00:00:46.767">
   <property name="kdenlive:id">5</property>
   <filter id="filter10" in="00:00:43.067" out="00:00:43.300">
    <property name="start">0</property>
    <property name="mlt_service">brightness</property>
    <property name="kdenlive_id">fade_from_black</property>
    <property name="end">1</property>
    <property name="alpha">-1</property>
    <property name="kdenlive:collapsed">0</property>
   </filter>
   <filter id="filter11" in="00:00:45.000" out="00:00:46.767">
    <property name="start">1</property>
    <property name="mlt_service">brightness</property>
    <property name="kdenlive_id">fade_to_black</property>
    <property name="end">0</property>
    <property name="alpha">-1</property>
    <property name="kdenlive:collapsed">0</property>
   </filter>
  </entry>
  <entry producer="producer62" in="00:00:20.300" out="00:00:23.933">
   <property name="kdenlive:id">28</property>
   <filter id="filter12" in="00:00:20.300" out="00:00:20.500">
    <property name="start">0</property>
    <property name="mlt_service">brightness</property>
    <property name="kdenlive_id">fade_from_black</property>
    <property name="end">1</property>
    <property name="alpha">-1</property>
    <property name="kdenlive:collapsed">0</property>
   </filter>
   <filter id="filter13" in="00:00:22.133" out="00:00:23.933">
    <property name="start">1</property>
    <property name="mlt_service">brightness</property>
    <property name="kdenlive_id">fade_to_black</property>
    <property name="end">0</property>
    <property name="alpha">-1</property>
    <property name="kdenlive:collapsed">0</property>
   </filter>
  </entry>
  <entry producer="producer62" in="00:00:41.800" out="00:00:45.500">
   <property name="kdenlive:id">28</property>
   <filter id="filter14" in="00:00:41.800" out="00:00:42.067">
    <property name="start">0</property>
    <property name="mlt_service">brightness</property>
    <property name="kdenlive_id">fade_from_black</property>
    <property name="end">1</property>
    <property name="alpha">-1</property>
    <property name="kdenlive:collapsed">0</property>
   </filter>
   <filter id="filter15" in="00:00:43.800" out="00:00:45.500">
    <property name="start">1</property>
    <property name="mlt_service">brightness</property>
    <property name="kdenlive_id">fade_to_black</property>
    <property name="end">0</property>
    <property name="alpha">-1</property>
    <property name="kdenlive:collapsed">0</property>
   </filter>
  </entry>
  <entry producer="producer62" in="00:01:08.167" out="00:01:11.900">
   <property name="kdenlive:id">28</property>
   <filter id="filter16" in="00:01:08.167" out="00:01:08.367">
    <property name="start">0</property>
    <property name="mlt_service">brightness</property>
    <property name="kdenlive_id">fade_from_black</property>
    <property name="end">1</property>
    <property name="alpha">-1</property>
    <property name="kdenlive:collapsed">0</property>
   </filter>
   <filter id="filter17" in="00:01:10.133" out="00:01:11.900">
    <property name="start">1</property>
    <property name="mlt_service">brightness</property>
    <property name="kdenlive_id">fade_to_black</property>
    <property name="end">0</property>
    <property name="alpha">-1</property>
    <property name="kdenlive:collapsed">0</property>
   </filter>
  </entry>
  <entry producer="producer63" in="00:00:00.000" out="00:00:03.600">
   <property name="kdenlive:id">20</property>
   <filter id="filter18" out="00:00:00.233">
    <property name="start">0</property>
    <property name="mlt_service">brightness</property>
    <property name="kdenlive_id">fade_from_black</property>
    <property name="end">1</property>
    <property name="alpha">-1</property>
    <property name="kdenlive:collapsed">0</property>
   </filter>
   <filter id="filter19" in="00:00:02.033" out="00:00:03.600">
    <property name="start">1</property>
    <property name="mlt_service">brightness</property>
    <property name="kdenlive_id">fade_to_black</property>
    <property name="end">0</property>
    <property name="alpha">-1</property>
    <property name="kdenlive:collapsed">0</property>
   </filter>
  </entry>
  <entry producer="producer63" in="00:00:04.167" out="00:00:11.867">
   <property name="kdenlive:id">20</property>
   <filter id="filter20" in="00:00:04.167" out="00:00:04.367">
    <property name="start">0</property>
    <property name="mlt_service">brightness</property>
    <property name="kdenlive_id">fade_from_black</property>
    <property name="end">1</property>
    <property name="alpha">-1</property>
    <property name="kdenlive:collapsed">0</property>
   </filter>
   <filter id="filter21" in="00:00:09.267" out="00:00:11.867">
    <property name="start">1</property>
    <property name="mlt_service">brightness</property>
    <property name="kdenlive_id">fade_to_black</property>
    <property name="end">0</property>
    <property name="alpha">-1</property>
    <property name="kdenlive:collapsed">0</property>
   </filter>
  </entry>
  <entry producer="producer64" in="00:00:51.800" out="00:01:20.733">
   <property name="kdenlive:id">16</property>
   <filter id="filter22" in="00:00:51.800" out="00:00:52.400">
    <property name="start">0</property>
    <property name="mlt_service">brightness</property>
    <property name="kdenlive_id">fade_from_black</property>
    <property name="end">1</property>
    <property name="alpha">-1</property>
    <property name="kdenlive:collapsed">0</property>
   </filter>
   <filter id="filter23">
    <property name="mlt_service">avfilter.hflip</property>
    <property name="kdenlive_id">avfilter.hflip</property>
    <property name="kdenlive:collapsed">0</property>
   </filter>
   <filter id="filter24" in="00:01:04.733" out="00:01:20.733">
    <property name="start">1</property>
    <property name="mlt_service">brightness</property>
    <property name="kdenlive_id">fade_to_black</property>
    <property name="end">0</property>
    <property name="alpha">-1</property>
    <property name="kdenlive:collapsed">0</property>
   </filter>
  </entry>
  <blank length="00:00:13.167"/>
  <entry producer="producer65" in="00:04:49.700" out="00:04:53.167">
   <property name="kdenlive:id">23</property>
   <filter id="filter25" in="00:04:49.700" out="00:04:50.333">
    <property name="start">0</property>
    <property name="mlt_service">brightness</property>
    <property name="kdenlive_id">fade_from_black</property>
    <property name="end">1</property>
    <property name="alpha">-1</property>
    <property name="kdenlive:collapsed">0</property>
   </filter>
   <filter id="filter26" in="00:04:52.533" out="00:04:53.167">
    <property name="start">1</property>
    <property name="mlt_service">brightness</property>
    <property name="kdenlive_id">fade_to_black</property>
    <property name="end">0</property>
    <property name="alpha">-1</property>
    <property name="kdenlive:collapsed">0</property>
   </filter>
  </entry>
  <entry producer="producer65" in="00:04:56.067" out="00:05:04.967">
   <property name="kdenlive:id">23</property>
   <filter id="filter27" in="00:04:56.067" out="00:04:56.667">
    <property name="start">0</property>
    <property name="mlt_service">brightness</property>
    <property name="kdenlive_id">fade_from_black</property>
    <property name="end">1</property>
    <property name="alpha">-1</property>
   </filter>
  </entry>
  <entry producer="producer65" in="00:04:53.167" out="00:04:55.933">
   <property name="kdenlive:id">23</property>
  </entry>
  <entry producer="producer65" in="00:05:05.733" out="00:05:10.500">
   <property name="kdenlive:id">23</property>
   <filter id="filter28">
    <property name="smooth">00:05:05.733=0.8;00:05:09.933=0.8;00:05:10.500=2.814</property>
    <property name="radius">00:05:05.733=1;00:05:09.933=1;00:05:10.500=0.274</property>
    <property name="x">00:05:05.733=0.5;00:05:09.933=0.5;00:05:10.500=0.5</property>
    <property name="y">00:05:05.733=0.5;00:05:09.933=0.5;00:05:10.500=0.5</property>
    <property name="opacity">00:05:05.733=0;00:05:09.933=0;00:05:10.500=0.338</property>
    <property name="mode">1</property>
    <property name="mlt_service">vignette</property>
    <property name="kdenlive_id">vignette</property>
    <property name="kdenlive:collapsed">0</property>
   </filter>
  </entry>
  <entry producer="producer66" in="00:00:00.000" out="00:00:10.900">
   <property name="kdenlive:id">15</property>
   <property name="kdenlive:activeeffect">2</property>
   <filter id="filter29" out="00:00:00.867">
    <property name="start">0</property>
    <property name="mlt_service">brightness</property>
    <property name="kdenlive_id">fade_from_black</property>
    <property name="end">1</property>
    <property name="alpha">1</property>
    <property name="kdenlive:collapsed">0</property>
   </filter>
   <filter id="filter30" in="00:00:10.400" out="00:00:10.900">
    <property name="start">1</property>
    <property name="mlt_service">brightness</property>
    <property name="kdenlive_id">fade_to_black</property>
    <property name="end">0</property>
    <property name="alpha">1</property>
    <property name="kdenlive:collapsed">0</property>
   </filter>
   <filter id="filter31">
    <property name="version">0.2</property>
    <property name="mlt_service">frei0r.brightness</property>
    <property name="kdenlive_id">frei0r.brightness</property>
    <property name="Brightness">00:00:00.000=0.194</property>
    <property name="kdenlive:collapsed">0</property>
   </filter>
  </entry>
  <entry producer="producer67" in="00:00:25.233" out="00:00:40.033">
   <property name="kdenlive:id">21</property>
  </entry>
  <entry producer="producer68" in="00:00:24.933" out="00:00:39.733">
   <property name="kdenlive:id">27</property>
  </entry>
  <blank length="00:00:00.033"/>
  <entry producer="producer69" in="00:00:00.000" out="00:00:14.867">
   <property name="kdenlive:id">2</property>
   <filter id="filter32">
    <property name="version">0.1</property>
    <property name="mlt_service">frei0r.alphaspot</property>
    <property name="kdenlive_id">frei0r.alphaspot</property>
    <property name="Shape">0.38</property>
    <property name="Position X">00:00:00.000=0.486</property>
    <property name="Position Y">00:00:00.000=0.5</property>
    <property name="Size X">00:00:00.000=0.45</property>
    <property name="Size Y">00:00:00.000=0.422</property>
    <property name="Tilt">00:00:00.000=0</property>
    <property name="Transition width">00:00:00.000=0.113</property>
    <property name="Min">00:00:00.000=0</property>
    <property name="Max">00:00:00.000=1</property>
    <property name="Operation">0</property>
    <property name="kdenlive:collapsed">0</property>
   </filter>
   <filter id="filter33">
    <property name="rotate_center">1</property>
    <property name="mlt_service">qtblend</property>
    <property name="kdenlive_id">qtblend</property>
    <property name="rect">00:00:00.000=-1920 -1080 5760 3240 1.000000</property>
    <property name="rotation">00:00:00.000=0</property>
    <property name="compositing">0</property>
    <property name="distort">0</property>
    <property name="kdenlive:collapsed">0</property>
   </filter>
   <filter id="filter34" in="00:00:13.100" out="00:00:14.867">
    <property name="start">1</property>
    <property name="mlt_service">brightness</property>
    <property name="kdenlive_id">fade_to_black</property>
    <property name="end">0</property>
    <property name="alpha">-1</property>
   </filter>
  </entry>
  <blank length="00:02:32.933"/>
  <entry producer="producer70" in="00:00:29.300" out="00:00:43.033">
   <property name="kdenlive:id">29</property>
   <filter id="filter35">
    <property name="rotate_center">1</property>
    <property name="mlt_service">qtblend</property>
    <property name="kdenlive_id">qtblend</property>
    <property name="rect">00:00:29.300=956 0 1080 1080 1.000000</property>
    <property name="rotation">00:00:29.300=0</property>
    <property name="compositing">0</property>
    <property name="distort">0</property>
    <property name="kdenlive:collapsed">0</property>
   </filter>
   <filter id="filter36">
    <property name="mirror">horizontal</property>
    <property name="mlt_service">mirror</property>
    <property name="kdenlive_id">mirror</property>
    <property name="reverse">0</property>
    <property name="kdenlive:collapsed">0</property>
   </filter>
  </entry>
  <entry producer="producer71" in="00:00:21.500" out="00:00:44.933">
   <property name="kdenlive:id">29</property>
   <filter id="filter37">
    <property name="version">0.1</property>
    <property name="mlt_service">frei0r.alphaspot</property>
    <property name="kdenlive_id">frei0r.alphaspot</property>
    <property name="Shape">0.38</property>
    <property name="Position X">00:00:21.500=0.5</property>
    <property name="Position Y">00:00:21.500=0.5</property>
    <property name="Size X">00:00:21.500=0.294</property>
    <property name="Size Y">00:00:21.500=0.562</property>
    <property name="Tilt">00:00:21.500=0.5</property>
    <property name="Transition width">00:00:21.500=0.292</property>
    <property name="Min">00:00:21.500=0</property>
    <property name="Max">00:00:21.500=1</property>
    <property name="Operation">0</property>
    <property name="kdenlive:collapsed">0</property>
   </filter>
  </entry>
  <entry producer="producer72" in="00:00:21.500" out="00:00:44.933">
   <property name="kdenlive:id">29</property>
   <filter id="filter38">
    <property name="version">0.1</property>
    <property name="mlt_service">frei0r.alphaspot</property>
    <property name="kdenlive_id">frei0r.alphaspot</property>
    <property name="Shape">0.38</property>
    <property name="Position X">00:00:21.500=0.5</property>
    <property name="Position Y">00:00:21.500=0.5</property>
    <property name="Size X">00:00:21.500=0.294</property>
    <property name="Size Y">00:00:21.500=0.562</property>
    <property name="Tilt">00:00:21.500=0.5</property>
    <property name="Transition width">00:00:21.500=0.292</property>
    <property name="Min">00:00:21.500=0</property>
    <property name="Max">00:00:21.500=1</property>
    <property name="Operation">0</property>
    <property name="kdenlive:collapsed">0</property>
   </filter>
  </entry>
  <entry producer="producer73" in="00:00:14.333" out="00:00:22.200">
   <property name="kdenlive:id">29</property>
   <filter id="filter39">
    <property name="version">0.1</property>
    <property name="mlt_service">frei0r.alphaspot</property>
    <property name="kdenlive_id">frei0r.alphaspot</property>
    <property name="Shape">0.38</property>
    <property name="Position X">00:00:14.333=0.5;00:00:22.200=0.5</property>
    <property name="Position Y">00:00:14.333=0.5;00:00:22.200=0.5</property>
    <property name="Size X">00:00:14.333=0.294;00:00:22.200=0.294</property>
    <property name="Size Y">00:00:14.333=0.562;00:00:22.200=0.562</property>
    <property name="Tilt">00:00:14.333=0.5;00:00:22.200=0.5</property>
    <property name="Transition width">00:00:14.333=0.292;00:00:22.200=0.292</property>
    <property name="Min">00:00:14.333=0;00:00:22.200=0</property>
    <property name="Max">00:00:14.333=1;00:00:22.200=1</property>
    <property name="Operation">0</property>
    <property name="kdenlive:collapsed">0</property>
   </filter>
   <filter id="filter40" in="00:00:21.767" out="00:00:22.200">
    <property name="start">1</property>
    <property name="mlt_service">brightness</property>
    <property name="kdenlive_id">fade_to_black</property>
    <property name="end">0</property>
    <property name="alpha">-1</property>
    <property name="kdenlive:collapsed">0</property>
   </filter>
  </entry>
 </playlist>
 <playlist id="playlist5"/>
 <tractor id="tractor2" in="00:00:00.000" out="00:16:08.067">
  <property name="kdenlive:trackheight">69</property>
  <property name="kdenlive:timeline_active">1</property>
  <property name="kdenlive:collapsed">0</property>
  <property name="kdenlive:thumbs_format"/>
  <property name="kdenlive:audio_rec"/>
  <track hide="audio" producer="playlist4"/>
  <track producer="playlist5"/>
 </tractor>
 <producer id="producer74" in="00:00:00.000" out="00:03:00.000">
  <property name="length">5402</property>
  <property name="eof">pause</property>
  <property name="resource">0.5:/home/ryankelln/Documents/Projects/Active/Sound_Escapes/Mason/storyboard/the_night_is_young_124000_d3f121a8.mp4</property>
  <property name="aspect_ratio">1</property>
  <property name="meta.media.nb_streams">2</property>
  <property name="meta.media.0.stream.type">video</property>
  <property name="meta.media.0.stream.frame_rate">30</property>
  <property name="meta.media.0.stream.sample_aspect_ratio">0</property>
  <property name="meta.media.0.codec.width">512</property>
  <property name="meta.media.0.codec.height">512</property>
  <property name="meta.media.0.codec.rotate">0</property>
  <property name="meta.media.0.codec.frame_rate">30</property>
  <property name="meta.media.0.codec.pix_fmt">yuv420p</property>
  <property name="meta.media.0.codec.sample_aspect_ratio">0</property>
  <property name="meta.media.0.codec.colorspace">601</property>
  <property name="meta.media.0.codec.name">h264</property>
  <property name="meta.media.0.codec.long_name">H.264 / AVC / MPEG-4 AVC / MPEG-4 part 10</property>
  <property name="meta.media.0.codec.bit_rate">752930</property>
  <property name="meta.attr.0.stream.handler_name.markup">VideoHandler</property>
  <property name="meta.media.1.stream.type">audio</property>
  <property name="meta.media.1.codec.sample_fmt">fltp</property>
  <property name="meta.media.1.codec.sample_rate">48000</property>
  <property name="meta.media.1.codec.channels">2</property>
  <property name="meta.media.1.codec.name">aac</property>
  <property name="meta.media.1.codec.long_name">AAC (Advanced Audio Coding)</property>
  <property name="meta.media.1.codec.bit_rate">315283</property>
  <property name="meta.attr.1.stream.handler_name.markup">SoundHandler</property>
  <property name="meta.attr.major_brand.markup">isom</property>
  <property name="meta.attr.minor_version.markup">512</property>
  <property name="meta.attr.compatible_brands.markup">isomiso2avc1mp41</property>
  <property name="meta.attr.encoder.markup">Lavf58.29.100</property>
  <property name="seekable">1</property>
  <property name="meta.media.sample_aspect_num">1</property>
  <property name="meta.media.sample_aspect_den">1</property>
  <property name="audio_index">1</property>
  <property name="video_index">0</property>
  <property name="mute_on_pause">1</property>
  <property name="warp_speed">0.5</property>
  <property name="warp_resource">/home/ryankelln/Documents/Projects/Active/Sound_Escapes/Mason/storyboard/the_night_is_young_124000_d3f121a8.mp4</property>
  <property name="mlt_service">timewarp</property>
  <property name="meta.attr.0.stream.vendor_id.markup">[0][0][0][0]</property>
  <property name="meta.attr.1.stream.vendor_id.markup">[0][0][0][0]</property>
  <property name="set.test_audio">1</property>
  <property name="set.test_image">0</property>
  <property name="kdenlive:id">29</property>
  <property name="warp_pitch">0</property>
  <property name="meta.media.frame_rate_num">30</property>
  <property name="meta.media.frame_rate_den">1</property>
  <property name="meta.media.colorspace">601</property>
  <property name="meta.media.color_trc">2</property>
  <property name="meta.media.width">512</property>
  <property name="meta.media.height">512</property>
  <property name="meta.media.color_range">mpeg</property>
  <property name="meta.media.top_field_first">0</property>
  <property name="meta.media.progressive">1</property>
 </producer>
 <producer id="producer75" in="00:00:00.000" out="00:00:33.000">
  <property name="length">991</property>
  <property name="eof">pause</property>
  <property name="resource">/home/ryankelln/Documents/Projects/Active/Sound_Escapes/Mason/footage/Moon Close Up H264.mp4</property>
  <property name="audio_index">-1</property>
  <property name="video_index">0</property>
  <property name="mute_on_pause">0</property>
  <property name="mlt_service">avformat-novalidate</property>
  <property name="seekable">1</property>
  <property name="aspect_ratio">1</property>
  <property name="kdenlive:clipname"/>
  <property name="kdenlive:folderid">-1</property>
  <property name="kdenlive:id">3</property>
  <property name="kdenlive:file_size">185944337</property>
  <property name="kdenlive:file_hash">4c25de1b89c6ce3f9d309a05a519521f</property>
  <property name="global_feed">1</property>
  <property name="xml">was here</property>
  <property name="meta.media.nb_streams">1</property>
  <property name="meta.media.0.stream.type">video</property>
  <property name="meta.media.0.stream.frame_rate">23.976</property>
  <property name="meta.media.0.stream.sample_aspect_ratio">0</property>
  <property name="meta.media.0.codec.width">1920</property>
  <property name="meta.media.0.codec.height">1080</property>
  <property name="meta.media.0.codec.rotate">0</property>
  <property name="meta.media.0.codec.frame_rate">23.976</property>
  <property name="meta.media.0.codec.pix_fmt">yuv420p</property>
  <property name="meta.media.0.codec.sample_aspect_ratio">1</property>
  <property name="meta.media.0.codec.colorspace">709</property>
  <property name="meta.media.0.codec.name">h264</property>
  <property name="meta.media.0.codec.long_name">H.264 / AVC / MPEG-4 AVC / MPEG-4 part 10</property>
  <property name="meta.media.0.codec.bit_rate">45029289</property>
  <property name="meta.attr.0.stream.creation_time.markup">2016-06-25T03:07:49.000000Z</property>
  <property name="meta.attr.0.stream.language.markup">eng</property>
  <property name="meta.attr.0.stream.handler_name.markup">Mainconcept MP4 Video Media Handler</property>
  <property name="meta.attr.0.stream.vendor_id.markup">[0][0][0][0]</property>
  <property name="meta.attr.0.stream.encoder.markup">AVC Coding</property>
  <property name="meta.attr.major_brand.markup">mp42</property>
  <property name="meta.attr.minor_version.markup">0</property>
  <property name="meta.attr.compatible_brands.markup">mp42mp41</property>
  <property name="meta.attr.creation_time.markup">2016-06-25T03:07:49.000000Z</property>
  <property name="meta.media.sample_aspect_num">1</property>
  <property name="meta.media.sample_aspect_den">1</property>
  <property name="meta.media.frame_rate_num">2997</property>
  <property name="meta.media.frame_rate_den">125</property>
  <property name="meta.media.colorspace">709</property>
  <property name="meta.media.color_trc">2</property>
  <property name="meta.media.width">1920</property>
  <property name="meta.media.height">1080</property>
  <property name="meta.media.color_range">mpeg</property>
  <property name="meta.media.top_field_first">0</property>
  <property name="meta.media.progressive">1</property>
  <property name="set.test_audio">1</property>
  <property name="set.test_image">0</property>
 </producer>
 <producer id="producer76" in="00:00:00.000" out="00:01:00.067">
  <property name="length">1804</property>
  <property name="eof">pause</property>
  <property name="resource">0.25:/home/ryankelln/Documents/Projects/Active/Sound_Escapes/Mason/storyboard/the_night_is_young_124000_d3f121a8.mp4</property>
  <property name="aspect_ratio">1</property>
  <property name="meta.media.nb_streams">2</property>
  <property name="meta.media.0.stream.type">video</property>
  <property name="meta.media.0.stream.frame_rate">30</property>
  <property name="meta.media.0.stream.sample_aspect_ratio">0</property>
  <property name="meta.media.0.codec.width">512</property>
  <property name="meta.media.0.codec.height">512</property>
  <property name="meta.media.0.codec.rotate">0</property>
  <property name="meta.media.0.codec.frame_rate">30</property>
  <property name="meta.media.0.codec.pix_fmt">yuv420p</property>
  <property name="meta.media.0.codec.sample_aspect_ratio">0</property>
  <property name="meta.media.0.codec.colorspace">601</property>
  <property name="meta.media.0.codec.name">h264</property>
  <property name="meta.media.0.codec.long_name">H.264 / AVC / MPEG-4 AVC / MPEG-4 part 10</property>
  <property name="meta.media.0.codec.bit_rate">533671</property>
  <property name="meta.attr.0.stream.handler_name.markup">VideoHandler</property>
  <property name="meta.media.1.stream.type">audio</property>
  <property name="meta.media.1.codec.sample_fmt">fltp</property>
  <property name="meta.media.1.codec.sample_rate">48000</property>
  <property name="meta.media.1.codec.channels">2</property>
  <property name="meta.media.1.codec.name">aac</property>
  <property name="meta.media.1.codec.long_name">AAC (Advanced Audio Coding)</property>
  <property name="meta.media.1.codec.bit_rate">288022</property>
  <property name="meta.attr.1.stream.handler_name.markup">SoundHandler</property>
  <property name="meta.attr.major_brand.markup">isom</property>
  <property name="meta.attr.minor_version.markup">512</property>
  <property name="meta.attr.compatible_brands.markup">isomiso2avc1mp41</property>
  <property name="meta.attr.encoder.markup">Lavf58.29.100</property>
  <property name="seekable">1</property>
  <property name="meta.media.sample_aspect_num">1</property>
  <property name="meta.media.sample_aspect_den">1</property>
  <property name="audio_index">1</property>
  <property name="video_index">0</property>
  <property name="mute_on_pause">1</property>
  <property name="warp_speed">0.25</property>
  <property name="warp_resource">/home/ryankelln/Documents/Projects/Active/Sound_Escapes/Mason/storyboard/the_night_is_young_124000_d3f121a8.mp4</property>
  <property name="mlt_service">timewarp</property>
  <property name="meta.attr.0.stream.vendor_id.markup">[0][0][0][0]</property>
  <property name="meta.attr.1.stream.vendor_id.markup">[0][0][0][0]</property>
  <property name="set.test_audio">1</property>
  <property name="set.test_image">0</property>
  <property name="kdenlive:id">2</property>
  <property name="warp_pitch">0</property>
  <property name="meta.media.frame_rate_num">30</property>
  <property name="meta.media.frame_rate_den">1</property>
  <property name="meta.media.colorspace">601</property>
  <property name="meta.media.color_trc">2</property>
  <property name="meta.media.width">512</property>
  <property name="meta.media.height">512</property>
  <property name="meta.media.color_range">mpeg</property>
  <property name="meta.media.top_field_first">0</property>
  <property name="meta.media.progressive">1</property>
 </producer>
 <producer id="producer77" in="00:00:00.000" out="00:01:52.300">
  <property name="length">3370</property>
  <property name="eof">pause</property>
  <property name="resource">1.500000:/media/storage/media/Videos/mine/music_landscapes/2021-04-24/2021-04-24_Toronto_night+tree+moon+clouds_3.MP4</property>
  <property name="aspect_ratio">1</property>
  <property name="meta.media.nb_streams">3</property>
  <property name="meta.media.0.stream.type">video</property>
  <property name="meta.media.0.stream.frame_rate">24</property>
  <property name="meta.media.0.stream.sample_aspect_ratio">0</property>
  <property name="meta.media.0.codec.width">1920</property>
  <property name="meta.media.0.codec.height">1080</property>
  <property name="meta.media.0.codec.rotate">0</property>
  <property name="meta.media.0.codec.frame_rate">24</property>
  <property name="meta.media.0.codec.pix_fmt">yuv420p</property>
  <property name="meta.media.0.codec.sample_aspect_ratio">1</property>
  <property name="meta.media.0.codec.colorspace">709</property>
  <property name="meta.media.0.codec.color_trc">1</property>
  <property name="meta.media.0.codec.name">h264</property>
  <property name="meta.media.0.codec.long_name">H.264 / AVC / MPEG-4 AVC / MPEG-4 part 10</property>
  <property name="meta.media.0.codec.bit_rate">38363049</property>
  <property name="meta.attr.0.stream.creation_time.markup">2021-04-24T22:21:50.000000Z</property>
  <property name="meta.attr.0.stream.timecode.markup">06:19:11:15</property>
  <property name="meta.media.1.stream.type">audio</property>
  <property name="meta.media.1.codec.sample_fmt">s16</property>
  <property name="meta.media.1.codec.sample_rate">48000</property>
  <property name="meta.media.1.codec.channels">2</property>
  <property name="meta.media.1.codec.name">pcm_s16be</property>
  <property name="meta.media.1.codec.long_name">PCM signed 16-bit big-endian</property>
  <property name="meta.media.1.codec.bit_rate">1536000</property>
  <property name="meta.attr.1.stream.creation_time.markup">2021-04-24T22:21:50.000000Z</property>
  <property name="meta.attr.1.stream.timecode.markup">06:19:11:15</property>
  <property name="meta.attr.major_brand.markup">mp42</property>
  <property name="meta.attr.minor_version.markup">1</property>
  <property name="meta.attr.compatible_brands.markup">mp42avc1</property>
  <property name="meta.attr.creation_time.markup">2021-04-24T22:21:50.000000Z</property>
  <property name="seekable">1</property>
  <property name="meta.media.sample_aspect_num">1</property>
  <property name="meta.media.sample_aspect_den">1</property>
  <property name="audio_index">1</property>
  <property name="video_index">0</property>
  <property name="mute_on_pause">1</property>
  <property name="warp_speed">1.5</property>
  <property name="warp_resource">/media/storage/media/Videos/mine/music_landscapes/2021-04-24/2021-04-24_Toronto_night+tree+moon+clouds_3.MP4</property>
  <property name="mlt_service">timewarp</property>
  <property name="meta.attr.0.stream.vendor_id.markup">[0][0][0][0]</property>
  <property name="meta.attr.1.stream.vendor_id.markup">pana</property>
  <property name="set.test_audio">1</property>
  <property name="set.test_image">0</property>
  <property name="kdenlive:id">7</property>
  <property name="warp_pitch">0</property>
  <property name="meta.media.frame_rate_num">24</property>
  <property name="meta.media.frame_rate_den">1</property>
  <property name="meta.media.colorspace">709</property>
  <property name="meta.media.color_trc">1</property>
  <property name="meta.media.width">1920</property>
  <property name="meta.media.height">1080</property>
  <property name="meta.media.color_range">mpeg</property>
  <property name="meta.media.top_field_first">0</property>
  <property name="meta.media.progressive">1</property>
 </producer>
 <producer id="producer78" in="00:00:00.000" out="00:01:00.067">
  <property name="length">1804</property>
  <property name="eof">pause</property>
  <property name="resource">0.25:/home/ryankelln/Documents/Projects/Active/Sound_Escapes/Mason/storyboard/the_night_is_young_124000_d3f121a8.mp4</property>
  <property name="aspect_ratio">1</property>
  <property name="meta.media.nb_streams">2</property>
  <property name="meta.media.0.stream.type">video</property>
  <property name="meta.media.0.stream.frame_rate">30</property>
  <property name="meta.media.0.stream.sample_aspect_ratio">0</property>
  <property name="meta.media.0.codec.width">512</property>
  <property name="meta.media.0.codec.height">512</property>
  <property name="meta.media.0.codec.rotate">0</property>
  <property name="meta.media.0.codec.frame_rate">30</property>
  <property name="meta.media.0.codec.pix_fmt">yuv420p</property>
  <property name="meta.media.0.codec.sample_aspect_ratio">0</property>
  <property name="meta.media.0.codec.colorspace">601</property>
  <property name="meta.media.0.codec.name">h264</property>
  <property name="meta.media.0.codec.long_name">H.264 / AVC / MPEG-4 AVC / MPEG-4 part 10</property>
  <property name="meta.media.0.codec.bit_rate">533671</property>
  <property name="meta.attr.0.stream.handler_name.markup">VideoHandler</property>
  <property name="meta.media.1.stream.type">audio</property>
  <property name="meta.media.1.codec.sample_fmt">fltp</property>
  <property name="meta.media.1.codec.sample_rate">48000</property>
  <property name="meta.media.1.codec.channels">2</property>
  <property name="meta.media.1.codec.name">aac</property>
  <property name="meta.media.1.codec.long_name">AAC (Advanced Audio Coding)</property>
  <property name="meta.media.1.codec.bit_rate">288022</property>
  <property name="meta.attr.1.stream.handler_name.markup">SoundHandler</property>
  <property name="meta.attr.major_brand.markup">isom</property>
  <property name="meta.attr.minor_version.markup">512</property>
  <property name="meta.attr.compatible_brands.markup">isomiso2avc1mp41</property>
  <property name="meta.attr.encoder.markup">Lavf58.29.100</property>
  <property name="seekable">1</property>
  <property name="meta.media.sample_aspect_num">1</property>
  <property name="meta.media.sample_aspect_den">1</property>
  <property name="audio_index">1</property>
  <property name="video_index">0</property>
  <property name="mute_on_pause">1</property>
  <property name="warp_speed">0.25</property>
  <property name="warp_resource">/home/ryankelln/Documents/Projects/Active/Sound_Escapes/Mason/storyboard/the_night_is_young_124000_d3f121a8.mp4</property>
  <property name="mlt_service">timewarp</property>
  <property name="meta.attr.0.stream.vendor_id.markup">[0][0][0][0]</property>
  <property name="meta.attr.1.stream.vendor_id.markup">[0][0][0][0]</property>
  <property name="set.test_audio">1</property>
  <property name="set.test_image">0</property>
  <property name="kdenlive:id">2</property>
  <property name="warp_pitch">0</property>
  <property name="meta.media.frame_rate_num">30</property>
  <property name="meta.media.frame_rate_den">1</property>
  <property name="meta.media.colorspace">601</property>
  <property name="meta.media.color_trc">2</property>
  <property name="meta.media.width">512</property>
  <property name="meta.media.height">512</property>
  <property name="meta.media.color_range">mpeg</property>
  <property name="meta.media.top_field_first">0</property>
  <property name="meta.media.progressive">1</property>
 </producer>
 <producer id="producer79" in="00:00:00.000" out="00:01:00.067">
  <property name="length">1804</property>
  <property name="eof">pause</property>
  <property name="resource">0.25:/home/ryankelln/Documents/Projects/Active/Sound_Escapes/Mason/storyboard/the_night_is_young_124000_d3f121a8.mp4</property>
  <property name="aspect_ratio">1</property>
  <property name="meta.media.nb_streams">2</property>
  <property name="meta.media.0.stream.type">video</property>
  <property name="meta.media.0.stream.frame_rate">30</property>
  <property name="meta.media.0.stream.sample_aspect_ratio">0</property>
  <property name="meta.media.0.codec.width">512</property>
  <property name="meta.media.0.codec.height">512</property>
  <property name="meta.media.0.codec.rotate">0</property>
  <property name="meta.media.0.codec.frame_rate">30</property>
  <property name="meta.media.0.codec.pix_fmt">yuv420p</property>
  <property name="meta.media.0.codec.sample_aspect_ratio">0</property>
  <property name="meta.media.0.codec.colorspace">601</property>
  <property name="meta.media.0.codec.name">h264</property>
  <property name="meta.media.0.codec.long_name">H.264 / AVC / MPEG-4 AVC / MPEG-4 part 10</property>
  <property name="meta.media.0.codec.bit_rate">533671</property>
  <property name="meta.attr.0.stream.handler_name.markup">VideoHandler</property>
  <property name="meta.media.1.stream.type">audio</property>
  <property name="meta.media.1.codec.sample_fmt">fltp</property>
  <property name="meta.media.1.codec.sample_rate">48000</property>
  <property name="meta.media.1.codec.channels">2</property>
  <property name="meta.media.1.codec.name">aac</property>
  <property name="meta.media.1.codec.long_name">AAC (Advanced Audio Coding)</property>
  <property name="meta.media.1.codec.bit_rate">288022</property>
  <property name="meta.attr.1.stream.handler_name.markup">SoundHandler</property>
  <property name="meta.attr.major_brand.markup">isom</property>
  <property name="meta.attr.minor_version.markup">512</property>
  <property name="meta.attr.compatible_brands.markup">isomiso2avc1mp41</property>
  <property name="meta.attr.encoder.markup">Lavf58.29.100</property>
  <property name="seekable">1</property>
  <property name="meta.media.sample_aspect_num">1</property>
  <property name="meta.media.sample_aspect_den">1</property>
  <property name="audio_index">1</property>
  <property name="video_index">0</property>
  <property name="mute_on_pause">1</property>
  <property name="warp_speed">0.25</property>
  <property name="warp_resource">/home/ryankelln/Documents/Projects/Active/Sound_Escapes/Mason/storyboard/the_night_is_young_124000_d3f121a8.mp4</property>
  <property name="mlt_service">timewarp</property>
  <property name="meta.attr.0.stream.vendor_id.markup">[0][0][0][0]</property>
  <property name="meta.attr.1.stream.vendor_id.markup">[0][0][0][0]</property>
  <property name="set.test_audio">1</property>
  <property name="set.test_image">0</property>
  <property name="kdenlive:id">2</property>
  <property name="warp_pitch">0</property>
  <property name="meta.media.frame_rate_num">30</property>
  <property name="meta.media.frame_rate_den">1</property>
  <property name="meta.media.colorspace">601</property>
  <property name="meta.media.color_trc">2</property>
  <property name="meta.media.width">512</property>
  <property name="meta.media.height">512</property>
  <property name="meta.media.color_range">mpeg</property>
  <property name="meta.media.top_field_first">0</property>
  <property name="meta.media.progressive">1</property>
 </producer>
 <producer id="producer80" in="00:00:00.000" out="00:01:30.000">
  <property name="length">2701</property>
  <property name="eof">pause</property>
  <property name="resource">/home/ryankelln/Documents/Projects/Active/Sound_Escapes/Mason/storyboard/the_night_is_young_124000_d3f121a8.mp4</property>
  <property name="audio_index">1</property>
  <property name="video_index">0</property>
  <property name="mute_on_pause">0</property>
  <property name="mlt_service">avformat-novalidate</property>
  <property name="seekable">1</property>
  <property name="aspect_ratio">1</property>
  <property name="kdenlive:clipname"/>
  <property name="kdenlive:folderid">-1</property>
  <property name="kdenlive:id">29</property>
  <property name="kdenlive:file_size">12114559</property>
  <property name="kdenlive:file_hash">7b98c69b7c05695fa8f37ff12780e61e</property>
  <property name="kdenlive:audio_max">1</property>
  <property name="kdenlive:zone_in">1052</property>
  <property name="kdenlive:zone_out">1426</property>
  <property name="kdenlive:clipzones">[
    {
        "in": 1052,
        "name": "Zone 1",
        "out": 1426
    }
]
</property>
  <property name="global_feed">1</property>
  <property name="xml">was here</property>
  <property name="meta.media.nb_streams">2</property>
  <property name="meta.media.0.stream.type">video</property>
  <property name="meta.media.0.stream.frame_rate">30</property>
  <property name="meta.media.0.stream.sample_aspect_ratio">0</property>
  <property name="meta.media.0.codec.width">512</property>
  <property name="meta.media.0.codec.height">512</property>
  <property name="meta.media.0.codec.rotate">0</property>
  <property name="meta.media.0.codec.frame_rate">30</property>
  <property name="meta.media.0.codec.pix_fmt">yuv420p</property>
  <property name="meta.media.0.codec.sample_aspect_ratio">0</property>
  <property name="meta.media.0.codec.colorspace">601</property>
  <property name="meta.media.0.codec.name">h264</property>
  <property name="meta.media.0.codec.long_name">H.264 / AVC / MPEG-4 AVC / MPEG-4 part 10</property>
  <property name="meta.media.0.codec.bit_rate">752930</property>
  <property name="meta.attr.0.stream.handler_name.markup">VideoHandler</property>
  <property name="meta.attr.0.stream.vendor_id.markup">[0][0][0][0]</property>
  <property name="meta.media.1.stream.type">audio</property>
  <property name="meta.media.1.codec.sample_fmt">fltp</property>
  <property name="meta.media.1.codec.sample_rate">48000</property>
  <property name="meta.media.1.codec.channels">2</property>
  <property name="meta.media.1.codec.name">aac</property>
  <property name="meta.media.1.codec.long_name">AAC (Advanced Audio Coding)</property>
  <property name="meta.media.1.codec.bit_rate">315283</property>
  <property name="meta.attr.1.stream.handler_name.markup">SoundHandler</property>
  <property name="meta.attr.1.stream.vendor_id.markup">[0][0][0][0]</property>
  <property name="meta.attr.major_brand.markup">isom</property>
  <property name="meta.attr.minor_version.markup">512</property>
  <property name="meta.attr.compatible_brands.markup">isomiso2avc1mp41</property>
  <property name="meta.attr.encoder.markup">Lavf58.29.100</property>
  <property name="meta.media.sample_aspect_num">1</property>
  <property name="meta.media.sample_aspect_den">1</property>
  <property name="meta.media.frame_rate_num">30</property>
  <property name="meta.media.frame_rate_den">1</property>
  <property name="meta.media.colorspace">601</property>
  <property name="meta.media.color_trc">2</property>
  <property name="meta.media.width">512</property>
  <property name="meta.media.height">512</property>
  <property name="meta.media.color_range">mpeg</property>
  <property name="meta.media.top_field_first">0</property>
  <property name="meta.media.progressive">1</property>
  <property name="set.test_audio">1</property>
  <property name="set.test_image">0</property>
 </producer>
 <producer id="producer81" in="00:00:00.000" out="00:03:20.733">
  <property name="length">6023</property>
  <property name="eof">pause</property>
  <property name="resource">/home/ryankelln/Documents/Projects/Active/Sound_Escapes/Mason/footage/Northern lights _ Aurora Borealis _ Norrsken Time-lapse--5LupVNeMHA.mkv</property>
  <property name="audio_index">1</property>
  <property name="video_index">0</property>
  <property name="mute_on_pause">0</property>
  <property name="mlt_service">avformat-novalidate</property>
  <property name="seekable">1</property>
  <property name="aspect_ratio">1</property>
  <property name="kdenlive:clipname"/>
  <property name="kdenlive:folderid">-1</property>
  <property name="kdenlive:id">19</property>
  <property name="kdenlive:file_size">62500378</property>
  <property name="kdenlive:file_hash">ae30069165ae8d2bd1be4155c9a3b73b</property>
  <property name="kdenlive:audio_max">1</property>
  <property name="kdenlive:active_streams">-1</property>
  <property name="kdenlive:thumbnailFrame">617</property>
  <property name="global_feed">1</property>
  <property name="kdenlive:zone_in">1721</property>
  <property name="kdenlive:zone_out">2348</property>
  <property name="kdenlive:clipzones">[
    {
        "in": 1721,
        "name": "Zone 1",
        "out": 2348
    }
]
</property>
  <property name="xml">was here</property>
  <property name="meta.media.nb_streams">2</property>
  <property name="meta.media.0.stream.type">video</property>
  <property name="meta.media.0.stream.frame_rate">29.97</property>
  <property name="meta.media.0.stream.sample_aspect_ratio">1</property>
  <property name="meta.media.0.codec.width">1920</property>
  <property name="meta.media.0.codec.height">1080</property>
  <property name="meta.media.0.codec.rotate">0</property>
  <property name="meta.media.0.codec.frame_rate">29.97</property>
  <property name="meta.media.0.codec.pix_fmt">yuv420p</property>
  <property name="meta.media.0.codec.sample_aspect_ratio">1</property>
  <property name="meta.media.0.codec.colorspace">709</property>
  <property name="meta.media.0.codec.name">h264</property>
  <property name="meta.media.0.codec.long_name">H.264 / AVC / MPEG-4 AVC / MPEG-4 part 10</property>
  <property name="meta.media.0.codec.bit_rate">0</property>
  <property name="meta.attr.0.stream.HANDLER_NAME.markup">VideoHandler</property>
  <property name="meta.attr.0.stream.DURATION.markup">00:03:20.734000000</property>
  <property name="meta.media.1.stream.type">audio</property>
  <property name="meta.media.1.codec.sample_fmt">fltp</property>
  <property name="meta.media.1.codec.sample_rate">48000</property>
  <property name="meta.media.1.codec.channels">2</property>
  <property name="meta.media.1.codec.name">opus</property>
  <property name="meta.media.1.codec.long_name">Opus</property>
  <property name="meta.media.1.codec.bit_rate">0</property>
  <property name="meta.attr.1.stream.language.markup">eng</property>
  <property name="meta.attr.1.stream.DURATION.markup">00:03:20.761000000</property>
  <property name="meta.attr.COMPATIBLE_BRANDS.markup">iso6avc1mp41</property>
  <property name="meta.attr.MAJOR_BRAND.markup">dash</property>
  <property name="meta.attr.MINOR_VERSION.markup">0</property>
  <property name="meta.attr.ENCODER.markup">Lavf58.45.100</property>
  <property name="meta.media.sample_aspect_num">1</property>
  <property name="meta.media.sample_aspect_den">1</property>
  <property name="meta.media.frame_rate_num">30000</property>
  <property name="meta.media.frame_rate_den">1001</property>
  <property name="meta.media.colorspace">709</property>
  <property name="meta.media.color_trc">2</property>
  <property name="meta.media.width">1920</property>
  <property name="meta.media.height">1080</property>
  <property name="meta.media.color_range">mpeg</property>
  <property name="meta.media.top_field_first">0</property>
  <property name="meta.media.progressive">1</property>
  <property name="set.test_audio">1</property>
  <property name="set.test_image">0</property>
 </producer>
 <producer id="producer82" in="00:00:00.000" out="00:01:26.733">
  <property name="length">2603</property>
  <property name="eof">pause</property>
  <property name="resource">/home/ryankelln/Documents/Projects/Active/Sound_Escapes/Mason/footage/Algonquin Park Stars Timelapse-1gwwgR7oNb4.mkv</property>
  <property name="audio_index">1</property>
  <property name="video_index">0</property>
  <property name="mute_on_pause">0</property>
  <property name="mlt_service">avformat-novalidate</property>
  <property name="seekable">1</property>
  <property name="aspect_ratio">1</property>
  <property name="kdenlive:clipname"/>
  <property name="kdenlive:folderid">-1</property>
  <property name="kdenlive:id">16</property>
  <property name="kdenlive:file_size">18868068</property>
  <property name="kdenlive:file_hash">ac516ddfb0241d0725e4eda7ebea79e4</property>
  <property name="kdenlive:audio_max">1</property>
  <property name="kdenlive:active_streams">-1</property>
  <property name="kdenlive:thumbnailFrame">886</property>
  <property name="kdenlive:zone_in">273</property>
  <property name="kdenlive:zone_out">1047</property>
  <property name="kdenlive:clipzones">[
    {
        "in": 273,
        "name": "Zone 1",
        "out": 1047
    }
]
</property>
  <property name="global_feed">1</property>
  <property name="xml">was here</property>
  <property name="meta.media.nb_streams">2</property>
  <property name="meta.media.0.stream.type">video</property>
  <property name="meta.media.0.stream.frame_rate">29.97</property>
  <property name="meta.media.0.stream.sample_aspect_ratio">1</property>
  <property name="meta.media.0.codec.width">1920</property>
  <property name="meta.media.0.codec.height">1080</property>
  <property name="meta.media.0.codec.rotate">0</property>
  <property name="meta.media.0.codec.frame_rate">29.97</property>
  <property name="meta.media.0.codec.pix_fmt">yuv420p</property>
  <property name="meta.media.0.codec.sample_aspect_ratio">1</property>
  <property name="meta.media.0.codec.colorspace">709</property>
  <property name="meta.media.0.codec.name">h264</property>
  <property name="meta.media.0.codec.long_name">H.264 / AVC / MPEG-4 AVC / MPEG-4 part 10</property>
  <property name="meta.media.0.codec.bit_rate">0</property>
  <property name="meta.attr.0.stream.HANDLER_NAME.markup">VideoHandler</property>
  <property name="meta.attr.0.stream.DURATION.markup">00:01:26.753000000</property>
  <property name="meta.media.1.stream.type">audio</property>
  <property name="meta.media.1.codec.sample_fmt">fltp</property>
  <property name="meta.media.1.codec.sample_rate">48000</property>
  <property name="meta.media.1.codec.channels">2</property>
  <property name="meta.media.1.codec.name">opus</property>
  <property name="meta.media.1.codec.long_name">Opus</property>
  <property name="meta.media.1.codec.bit_rate">0</property>
  <property name="meta.attr.1.stream.language.markup">eng</property>
  <property name="meta.attr.1.stream.DURATION.markup">00:01:26.781000000</property>
  <property name="meta.attr.COMPATIBLE_BRANDS.markup">iso6avc1mp41</property>
  <property name="meta.attr.MAJOR_BRAND.markup">dash</property>
  <property name="meta.attr.MINOR_VERSION.markup">0</property>
  <property name="meta.attr.ENCODER.markup">Lavf58.45.100</property>
  <property name="meta.media.sample_aspect_num">1</property>
  <property name="meta.media.sample_aspect_den">1</property>
  <property name="meta.media.frame_rate_num">30000</property>
  <property name="meta.media.frame_rate_den">1001</property>
  <property name="meta.media.colorspace">709</property>
  <property name="meta.media.color_trc">2</property>
  <property name="meta.media.width">1920</property>
  <property name="meta.media.height">1080</property>
  <property name="meta.media.color_range">mpeg</property>
  <property name="meta.media.top_field_first">0</property>
  <property name="meta.media.progressive">1</property>
  <property name="set.test_audio">1</property>
  <property name="set.test_image">0</property>
 </producer>
 <producer id="producer83" in="00:00:00.000" out="00:00:17.567">
  <property name="length">528</property>
  <property name="eof">pause</property>
  <property name="resource">0.600000:/home/ryankelln/.cache/kdenlive/proxy/e6ac050337f4e468538d82d01c67699e.mkv</property>
  <property name="aspect_ratio">1</property>
  <property name="meta.media.nb_streams">1</property>
  <property name="meta.media.0.stream.type">video</property>
  <property name="meta.media.0.stream.frame_rate">29.97</property>
  <property name="meta.media.0.stream.sample_aspect_ratio">0</property>
  <property name="meta.media.0.codec.width">640</property>
  <property name="meta.media.0.codec.height">360</property>
  <property name="meta.media.0.codec.rotate">0</property>
  <property name="meta.media.0.codec.frame_rate">1000</property>
  <property name="meta.media.0.codec.pix_fmt">yuvj420p</property>
  <property name="meta.media.0.codec.sample_aspect_ratio">0</property>
  <property name="meta.media.0.codec.colorspace">601</property>
  <property name="meta.media.0.codec.name">mjpeg</property>
  <property name="meta.media.0.codec.long_name">MJPEG (Motion JPEG)</property>
  <property name="meta.media.0.codec.bit_rate">0</property>
  <property name="meta.attr.0.stream.HANDLER_NAME.markup">L-SMASH Video Handler</property>
  <property name="meta.attr.0.stream.ENCODER.markup">Lavc58.91.100 mjpeg</property>
  <property name="meta.attr.0.stream.DURATION.markup">00:00:10.577000000</property>
  <property name="meta.attr.COMPATIBLE_BRANDS.markup">mp42mp41isomavc1</property>
  <property name="meta.attr.MAJOR_BRAND.markup">mp42</property>
  <property name="meta.attr.MINOR_VERSION.markup">0</property>
  <property name="meta.attr.ENCODER.markup">Lavf58.45.100</property>
  <property name="seekable">1</property>
  <property name="meta.media.sample_aspect_num">1</property>
  <property name="meta.media.sample_aspect_den">1</property>
  <property name="audio_index">-1</property>
  <property name="video_index">0</property>
  <property name="mute_on_pause">1</property>
  <property name="warp_speed">0.6</property>
  <property name="warp_resource">/home/ryankelln/.cache/kdenlive/proxy/e6ac050337f4e468538d82d01c67699e.mkv</property>
  <property name="mlt_service">timewarp</property>
  <property name="kdenlive:proxy">/home/ryankelln/.cache/kdenlive/proxy/e6ac050337f4e468538d82d01c67699e.mkv</property>
  <property name="kdenlive:originalurl">/home/ryankelln/Documents/Projects/Active/Sound_Escapes/Mason/footage/Time lapse vieo of a starry night.mp4</property>
  <property name="set.test_audio">1</property>
  <property name="set.test_image">0</property>
  <property name="kdenlive:id">17</property>
  <property name="warp_pitch">0</property>
 </producer>
 <producer id="producer84" in="00:00:00.000" out="00:10:23.633">
  <property name="length">18710</property>
  <property name="eof">pause</property>
  <property name="resource">/home/ryankelln/Documents/Projects/Active/Sound_Escapes/Mason/footage/Night Skies _ Starry Night _ Northern Lights _ Relaxing Music-eY_s5XJDAI0.webm</property>
  <property name="audio_index">1</property>
  <property name="video_index">0</property>
  <property name="mute_on_pause">0</property>
  <property name="mlt_service">avformat-novalidate</property>
  <property name="seekable">1</property>
  <property name="aspect_ratio">1</property>
  <property name="kdenlive:clipname"/>
  <property name="kdenlive:folderid">-1</property>
  <property name="kdenlive:id">22</property>
  <property name="kdenlive:file_size">73980361</property>
  <property name="kdenlive:file_hash">480e051c56a36d249915c674a39a1a00</property>
  <property name="kdenlive:audio_max">1</property>
  <property name="global_feed">1</property>
  <property name="xml">was here</property>
  <property name="meta.media.nb_streams">2</property>
  <property name="meta.media.0.stream.type">video</property>
  <property name="meta.media.0.stream.frame_rate">25</property>
  <property name="meta.media.0.stream.sample_aspect_ratio">1</property>
  <property name="meta.media.0.codec.width">1920</property>
  <property name="meta.media.0.codec.height">1080</property>
  <property name="meta.media.0.codec.rotate">0</property>
  <property name="meta.media.0.codec.frame_rate">1000</property>
  <property name="meta.media.0.codec.pix_fmt">yuv420p</property>
  <property name="meta.media.0.codec.sample_aspect_ratio">0</property>
  <property name="meta.media.0.codec.colorspace">709</property>
  <property name="meta.media.0.codec.name">vp9</property>
  <property name="meta.media.0.codec.long_name">Google VP9</property>
  <property name="meta.media.0.codec.bit_rate">0</property>
  <property name="meta.attr.0.stream.language.markup">eng</property>
  <property name="meta.attr.0.stream.DURATION.markup">00:10:23.600000000</property>
  <property name="meta.media.1.stream.type">audio</property>
  <property name="meta.media.1.codec.sample_fmt">fltp</property>
  <property name="meta.media.1.codec.sample_rate">48000</property>
  <property name="meta.media.1.codec.channels">2</property>
  <property name="meta.media.1.codec.name">opus</property>
  <property name="meta.media.1.codec.long_name">Opus</property>
  <property name="meta.media.1.codec.bit_rate">0</property>
  <property name="meta.attr.1.stream.language.markup">eng</property>
  <property name="meta.attr.1.stream.DURATION.markup">00:10:23.661000000</property>
  <property name="meta.attr.HTTP://YOUTUBE.COM/STREAMING/OTF/DURATIONS/112015.markup">Segment-Count: 122&#xd;
Segment-Durations-Ms: 5120(r=120),4080,&#xd;
&#xd;
</property>
  <property name="meta.attr.ENCODER.markup">Lavf58.45.100</property>
  <property name="meta.media.sample_aspect_num">1</property>
  <property name="meta.media.sample_aspect_den">1</property>
  <property name="meta.media.frame_rate_num">25</property>
  <property name="meta.media.frame_rate_den">1</property>
  <property name="meta.media.colorspace">709</property>
  <property name="meta.media.color_trc">2</property>
  <property name="meta.media.width">1920</property>
  <property name="meta.media.height">1080</property>
  <property name="meta.media.color_range">mpeg</property>
  <property name="meta.media.top_field_first">0</property>
  <property name="meta.media.progressive">1</property>
  <property name="set.test_audio">1</property>
  <property name="set.test_image">0</property>
 </producer>
 <producer id="producer85" in="00:00:00.000" out="00:01:00.067">
  <property name="length">1804</property>
  <property name="eof">pause</property>
  <property name="resource">0.25:/home/ryankelln/Documents/Projects/Active/Sound_Escapes/Mason/storyboard/the_night_is_young_124000_d3f121a8.mp4</property>
  <property name="aspect_ratio">1</property>
  <property name="meta.media.nb_streams">2</property>
  <property name="meta.media.0.stream.type">video</property>
  <property name="meta.media.0.stream.frame_rate">30</property>
  <property name="meta.media.0.stream.sample_aspect_ratio">0</property>
  <property name="meta.media.0.codec.width">512</property>
  <property name="meta.media.0.codec.height">512</property>
  <property name="meta.media.0.codec.rotate">0</property>
  <property name="meta.media.0.codec.frame_rate">30</property>
  <property name="meta.media.0.codec.pix_fmt">yuv420p</property>
  <property name="meta.media.0.codec.sample_aspect_ratio">0</property>
  <property name="meta.media.0.codec.colorspace">601</property>
  <property name="meta.media.0.codec.name">h264</property>
  <property name="meta.media.0.codec.long_name">H.264 / AVC / MPEG-4 AVC / MPEG-4 part 10</property>
  <property name="meta.media.0.codec.bit_rate">533671</property>
  <property name="meta.attr.0.stream.handler_name.markup">VideoHandler</property>
  <property name="meta.media.1.stream.type">audio</property>
  <property name="meta.media.1.codec.sample_fmt">fltp</property>
  <property name="meta.media.1.codec.sample_rate">48000</property>
  <property name="meta.media.1.codec.channels">2</property>
  <property name="meta.media.1.codec.name">aac</property>
  <property name="meta.media.1.codec.long_name">AAC (Advanced Audio Coding)</property>
  <property name="meta.media.1.codec.bit_rate">288022</property>
  <property name="meta.attr.1.stream.handler_name.markup">SoundHandler</property>
  <property name="meta.attr.major_brand.markup">isom</property>
  <property name="meta.attr.minor_version.markup">512</property>
  <property name="meta.attr.compatible_brands.markup">isomiso2avc1mp41</property>
  <property name="meta.attr.encoder.markup">Lavf58.29.100</property>
  <property name="seekable">1</property>
  <property name="meta.media.sample_aspect_num">1</property>
  <property name="meta.media.sample_aspect_den">1</property>
  <property name="audio_index">1</property>
  <property name="video_index">0</property>
  <property name="mute_on_pause">1</property>
  <property name="warp_speed">0.25</property>
  <property name="warp_resource">/home/ryankelln/Documents/Projects/Active/Sound_Escapes/Mason/storyboard/the_night_is_young_124000_d3f121a8.mp4</property>
  <property name="mlt_service">timewarp</property>
  <property name="meta.attr.0.stream.vendor_id.markup">[0][0][0][0]</property>
  <property name="meta.attr.1.stream.vendor_id.markup">[0][0][0][0]</property>
  <property name="set.test_audio">1</property>
  <property name="set.test_image">0</property>
  <property name="kdenlive:id">2</property>
  <property name="warp_pitch">0</property>
  <property name="meta.media.frame_rate_num">30</property>
  <property name="meta.media.frame_rate_den">1</property>
  <property name="meta.media.colorspace">601</property>
  <property name="meta.media.color_trc">2</property>
  <property name="meta.media.width">512</property>
  <property name="meta.media.height">512</property>
  <property name="meta.media.color_range">mpeg</property>
  <property name="meta.media.top_field_first">0</property>
  <property name="meta.media.progressive">1</property>
 </producer>
 <producer id="producer86" in="00:00:00.000" out="00:01:00.067">
  <property name="length">1804</property>
  <property name="eof">pause</property>
  <property name="resource">0.25:/home/ryankelln/Documents/Projects/Active/Sound_Escapes/Mason/storyboard/the_night_is_young_124000_d3f121a8.mp4</property>
  <property name="aspect_ratio">1</property>
  <property name="meta.media.nb_streams">2</property>
  <property name="meta.media.0.stream.type">video</property>
  <property name="meta.media.0.stream.frame_rate">30</property>
  <property name="meta.media.0.stream.sample_aspect_ratio">0</property>
  <property name="meta.media.0.codec.width">512</property>
  <property name="meta.media.0.codec.height">512</property>
  <property name="meta.media.0.codec.rotate">0</property>
  <property name="meta.media.0.codec.frame_rate">30</property>
  <property name="meta.media.0.codec.pix_fmt">yuv420p</property>
  <property name="meta.media.0.codec.sample_aspect_ratio">0</property>
  <property name="meta.media.0.codec.colorspace">601</property>
  <property name="meta.media.0.codec.name">h264</property>
  <property name="meta.media.0.codec.long_name">H.264 / AVC / MPEG-4 AVC / MPEG-4 part 10</property>
  <property name="meta.media.0.codec.bit_rate">533671</property>
  <property name="meta.attr.0.stream.handler_name.markup">VideoHandler</property>
  <property name="meta.media.1.stream.type">audio</property>
  <property name="meta.media.1.codec.sample_fmt">fltp</property>
  <property name="meta.media.1.codec.sample_rate">48000</property>
  <property name="meta.media.1.codec.channels">2</property>
  <property name="meta.media.1.codec.name">aac</property>
  <property name="meta.media.1.codec.long_name">AAC (Advanced Audio Coding)</property>
  <property name="meta.media.1.codec.bit_rate">288022</property>
  <property name="meta.attr.1.stream.handler_name.markup">SoundHandler</property>
  <property name="meta.attr.major_brand.markup">isom</property>
  <property name="meta.attr.minor_version.markup">512</property>
  <property name="meta.attr.compatible_brands.markup">isomiso2avc1mp41</property>
  <property name="meta.attr.encoder.markup">Lavf58.29.100</property>
  <property name="seekable">1</property>
  <property name="meta.media.sample_aspect_num">1</property>
  <property name="meta.media.sample_aspect_den">1</property>
  <property name="audio_index">1</property>
  <property name="video_index">0</property>
  <property name="mute_on_pause">1</property>
  <property name="warp_speed">0.25</property>
  <property name="warp_resource">/home/ryankelln/Documents/Projects/Active/Sound_Escapes/Mason/storyboard/the_night_is_young_124000_d3f121a8.mp4</property>
  <property name="mlt_service">timewarp</property>
  <property name="meta.attr.0.stream.vendor_id.markup">[0][0][0][0]</property>
  <property name="meta.attr.1.stream.vendor_id.markup">[0][0][0][0]</property>
  <property name="set.test_audio">1</property>
  <property name="set.test_image">0</property>
  <property name="kdenlive:id">2</property>
  <property name="warp_pitch">0</property>
  <property name="meta.media.frame_rate_num">30</property>
  <property name="meta.media.frame_rate_den">1</property>
  <property name="meta.media.colorspace">601</property>
  <property name="meta.media.color_trc">2</property>
  <property name="meta.media.width">512</property>
  <property name="meta.media.height">512</property>
  <property name="meta.media.color_range">mpeg</property>
  <property name="meta.media.top_field_first">0</property>
  <property name="meta.media.progressive">1</property>
 </producer>
 <playlist id="playlist6">
  <blank length="00:10:00.333"/>
  <entry producer="producer74" in="00:01:10.133" out="00:01:37.367">
   <property name="kdenlive:id">29</property>
   <filter id="filter41">
    <property name="rotate_center">1</property>
    <property name="mlt_service">qtblend</property>
    <property name="kdenlive_id">qtblend</property>
    <property name="rect">00:01:10.133=0 -422 1920 1920 1.000000</property>
    <property name="rotation">00:01:10.133=0</property>
    <property name="compositing">0</property>
    <property name="distort">0</property>
    <property name="kdenlive:collapsed">0</property>
   </filter>
   <filter id="filter42" in="00:01:24.433" out="00:01:37.367">
    <property name="start">1</property>
    <property name="mlt_service">brightness</property>
    <property name="kdenlive_id">fade_to_black</property>
    <property name="end">0</property>
    <property name="alpha">-1</property>
    <property name="kdenlive:collapsed">0</property>
   </filter>
   <filter id="filter43" in="00:01:10.133" out="00:01:11.233">
    <property name="start">0</property>
    <property name="mlt_service">brightness</property>
    <property name="kdenlive_id">fade_from_black</property>
    <property name="end">1</property>
    <property name="alpha">-1</property>
    <property name="kdenlive:collapsed">0</property>
   </filter>
  </entry>
  <blank length="00:00:14.333"/>
  <entry producer="producer75" in="00:00:00.000" out="00:00:15.867">
   <property name="kdenlive:id">3</property>
   <filter id="filter44" out="00:00:01.433">
    <property name="start">0</property>
    <property name="mlt_service">brightness</property>
    <property name="kdenlive_id">fade_from_black</property>
    <property name="end">1</property>
    <property name="alpha">-1</property>
    <property name="kdenlive:collapsed">0</property>
   </filter>
  </entry>
  <entry producer="producer75" in="00:00:15.900" out="00:00:16.400">
   <property name="kdenlive:id">3</property>
   <filter id="filter45">
    <property name="rotate_center">1</property>
    <property name="mlt_service">qtblend</property>
    <property name="kdenlive_id">qtblend</property>
    <property name="rect">00:00:15.900=0 0 1920 1080 1.000000;00:00:15.967=-67 -38 2054 1155 1.000000;00:00:16.133=0 0 1920 1080 1.000000;00:00:16.233=-38 -22 1996 1123 1.000000;00:00:16.400=0 0 1920 1080 1.000000</property>
    <property name="rotation">00:00:15.900=0;00:00:15.967=0;00:00:16.133=0;00:00:16.233=0;00:00:16.400=0</property>
    <property name="compositing">0</property>
    <property name="distort">0</property>
    <property name="kdenlive:collapsed">0</property>
   </filter>
  </entry>
  <entry producer="producer75" in="00:00:16.433" out="00:00:30.100">
   <property name="kdenlive:id">3</property>
   <filter id="filter46" in="00:00:29.233" out="00:00:30.100">
    <property name="start">1</property>
    <property name="mlt_service">brightness</property>
    <property name="kdenlive_id">fade_to_black</property>
    <property name="end">0</property>
    <property name="alpha">-1</property>
    <property name="kdenlive:collapsed">0</property>
   </filter>
  </entry>
  <blank length="00:00:01.300"/>
  <entry producer="producer76" in="00:00:00.000" out="00:00:14.833">
   <property name="kdenlive:id">2</property>
   <property name="kdenlive:activeeffect">1</property>
   <filter id="filter47">
    <property name="version">0.1</property>
    <property name="mlt_service">frei0r.alphaspot</property>
    <property name="kdenlive_id">frei0r.alphaspot</property>
    <property name="Shape">0.38</property>
    <property name="Position X">00:00:00.000=0.486</property>
    <property name="Position Y">00:00:00.000=0.5</property>
    <property name="Size X">00:00:00.000=0.45</property>
    <property name="Size Y">00:00:00.000=0.422</property>
    <property name="Tilt">00:00:00.000=0</property>
    <property name="Transition width">00:00:00.000=0.116</property>
    <property name="Min">00:00:00.000=0</property>
    <property name="Max">00:00:00.000=1</property>
    <property name="Operation">0</property>
    <property name="kdenlive:collapsed">0</property>
   </filter>
   <filter id="filter48">
    <property name="rotate_center">1</property>
    <property name="mlt_service">qtblend</property>
    <property name="kdenlive_id">qtblend</property>
    <property name="rect">00:00:00.000=-1117 -77 3072 1728 1.000000;00:00:14.833=-1117 -77 3072 1728 1.000000</property>
    <property name="rotation">00:00:00.000=27;00:00:14.833=137</property>
    <property name="compositing">0</property>
    <property name="distort">0</property>
    <property name="kdenlive:collapsed">0</property>
   </filter>
   <filter id="filter49" out="00:00:02.333">
    <property name="start">0</property>
    <property name="mlt_service">brightness</property>
    <property name="kdenlive_id">fade_from_black</property>
    <property name="end">1</property>
    <property name="alpha">-1</property>
    <property name="kdenlive:collapsed">0</property>
   </filter>
   <filter id="filter50" in="00:00:13.833" out="00:00:14.833">
    <property name="start">1</property>
    <property name="mlt_service">brightness</property>
    <property name="kdenlive_id">fade_to_black</property>
    <property name="end">0</property>
    <property name="alpha">-1</property>
    <property name="kdenlive:collapsed">0</property>
   </filter>
  </entry>
  <blank length="00:00:02.800"/>
  <entry producer="producer77" in="00:00:36.400" out="00:00:47.300">
   <property name="kdenlive:id">7</property>
   <filter id="filter51">
    <property name="rotate_center">1</property>
    <property name="mlt_service">qtblend</property>
    <property name="kdenlive_id">qtblend</property>
    <property name="rect">00:00:36.400=0 0 1920 1080 0.300000;00:00:36.500~=0 0 1920 1080 0.500000;00:00:36.600~=-48 -27 2016 1134 1.000000;00:00:36.900~=0 0 1920 1080 0.500000;00:00:37.133~=0 0 1920 1080 0.600000;00:00:37.233~=-48 -27 2016 1134 1.000000;00:00:37.633~=0 0 1920 1080 0.753846;00:00:38.100~=0 0 1920 1080 1.000000;00:00:40.100=0 0 1920 1080 0.800000;00:00:40.200~=-48 -27 2016 1134 1.000000;00:00:40.700=0 0 1920 1080 0.800000;00:00:40.800~=-48 -27 2016 1134 1.000000;00:00:41.233~=0 0 1920 1080 0.700000;00:00:41.967=0 0 1920 1080 1.000000;00:00:43.667=0 0 1920 1080 0.800000;00:00:43.767~=-48 -27 2016 1134 1.000000;00:00:44.333~=0 0 1920 1080 0.800000;00:00:44.433=-48 -27 2016 1134 1.000000;00:00:44.867=0 0 1920 1080 0.700000;00:00:45.833=0 0 1920 1080 1.000000</property>
    <property name="rotation">00:00:36.400=0;00:00:36.500~=0;00:00:36.600~=0;00:00:36.900~=0;00:00:37.133~=0;00:00:37.233~=0;00:00:37.633~=0;00:00:38.100~=0;00:00:40.100=0;00:00:40.200~=0;00:00:40.700=0;00:00:40.800~=0;00:00:41.233~=0;00:00:41.967=0;00:00:43.667=0;00:00:43.767~=0;00:00:44.333~=0;00:00:44.433=0;00:00:44.867=0;00:00:45.833=0</property>
    <property name="compositing">0</property>
    <property name="distort">0</property>
    <property name="kdenlive:collapsed">0</property>
   </filter>
  </entry>
  <entry producer="producer78" in="00:00:00.000" out="00:00:14.833">
   <property name="kdenlive:id">2</property>
   <property name="kdenlive:activeeffect">1</property>
   <filter id="filter52">
    <property name="version">0.1</property>
    <property name="mlt_service">frei0r.alphaspot</property>
    <property name="kdenlive_id">frei0r.alphaspot</property>
    <property name="Shape">0.38</property>
    <property name="Position X">00:00:00.000=0.486</property>
    <property name="Position Y">00:00:00.000=0.5</property>
    <property name="Size X">00:00:00.000=0.45</property>
    <property name="Size Y">00:00:00.000=0.422</property>
    <property name="Tilt">00:00:00.000=0</property>
    <property name="Transition width">00:00:00.000=0.113</property>
    <property name="Min">00:00:00.000=0</property>
    <property name="Max">00:00:00.000=1</property>
    <property name="Operation">0</property>
    <property name="kdenlive:collapsed">0</property>
   </filter>
   <filter id="filter53">
    <property name="rotate_center">1</property>
    <property name="mlt_service">qtblend</property>
    <property name="kdenlive_id">qtblend</property>
    <property name="rect">00:00:00.000=-1920 -1080 5760 3240 1.000000;00:00:14.833=-1920 -1080 5760 3240 1.000000</property>
    <property name="rotation">00:00:00.000=0;00:00:14.833=75</property>
    <property name="compositing">0</property>
    <property name="distort">0</property>
    <property name="kdenlive:collapsed">0</property>
   </filter>
   <filter id="filter54" out="00:00:00.200">
    <property name="start">0</property>
    <property name="mlt_service">brightness</property>
    <property name="kdenlive_id">fade_from_black</property>
    <property name="end">1</property>
    <property name="alpha">-1</property>
    <property name="kdenlive:collapsed">0</property>
   </filter>
  </entry>
  <entry producer="producer79" in="00:00:00.000" out="00:00:14.833">
   <property name="kdenlive:id">2</property>
   <property name="kdenlive:activeeffect">1</property>
   <filter id="filter55">
    <property name="version">0.1</property>
    <property name="mlt_service">frei0r.alphaspot</property>
    <property name="kdenlive_id">frei0r.alphaspot</property>
    <property name="Shape">0.38</property>
    <property name="Position X">00:00:00.000=0.486</property>
    <property name="Position Y">00:00:00.000=0.5</property>
    <property name="Size X">00:00:00.000=0.45</property>
    <property name="Size Y">00:00:00.000=0.422</property>
    <property name="Tilt">00:00:00.000=0</property>
    <property name="Transition width">00:00:00.000=0.113</property>
    <property name="Min">00:00:00.000=0</property>
    <property name="Max">00:00:00.000=1</property>
    <property name="Operation">0</property>
    <property name="kdenlive:collapsed">0</property>
   </filter>
   <filter id="filter56">
    <property name="rotate_center">1</property>
    <property name="mlt_service">qtblend</property>
    <property name="kdenlive_id">qtblend</property>
    <property name="rect">00:00:00.000=-1920 -1080 5760 3240 1.000000;00:00:14.833=-1920 -1080 5760 3240 1.000000</property>
    <property name="rotation">00:00:00.000=0;00:00:14.833=-87</property>
    <property name="compositing">0</property>
    <property name="distort">0</property>
    <property name="kdenlive:collapsed">0</property>
   </filter>
  </entry>
  <entry producer="producer80" in="00:00:34.333" out="00:00:49.133">
   <property name="kdenlive:id">29</property>
   <filter id="filter57">
    <property name="rotate_center">1</property>
    <property name="mlt_service">qtblend</property>
    <property name="kdenlive_id">qtblend</property>
    <property name="rect">00:00:34.333=-288 -162 2496 1404 1.000000</property>
    <property name="rotation">00:00:34.333=0</property>
    <property name="compositing">0</property>
    <property name="distort">0</property>
    <property name="kdenlive:collapsed">0</property>
    <property name="disable">1</property>
   </filter>
   <filter id="filter58">
    <property name="version">0.1</property>
    <property name="mlt_service">frei0r.alphaspot</property>
    <property name="kdenlive_id">frei0r.alphaspot</property>
    <property name="Shape">0.38</property>
    <property name="Position X">00:00:34.333=0.5</property>
    <property name="Position Y">00:00:34.333=0.5</property>
    <property name="Size X">00:00:34.333=0.263</property>
    <property name="Size Y">00:00:34.333=0.473</property>
    <property name="Tilt">00:00:34.333=0.5</property>
    <property name="Transition width">00:00:34.333=0.329</property>
    <property name="Min">00:00:34.333=0</property>
    <property name="Max">00:00:34.333=1</property>
    <property name="Operation">0</property>
    <property name="kdenlive:collapsed">0</property>
    <property name="disable">0</property>
   </filter>
  </entry>
  <blank length="00:00:00.033"/>
  <entry producer="producer81" in="00:00:56.867" out="00:02:01.733">
   <property name="kdenlive:id">19</property>
   <filter id="filter59" in="00:00:56.867" out="00:00:57.267">
    <property name="start">0</property>
    <property name="mlt_service">brightness</property>
    <property name="kdenlive_id">fade_from_black</property>
    <property name="end">1</property>
    <property name="alpha">-1</property>
    <property name="kdenlive:collapsed">0</property>
   </filter>
  </entry>
  <entry producer="producer82" in="00:00:38.233" out="00:01:15.300">
   <property name="kdenlive:id">16</property>
  </entry>
  <entry producer="producer83" in="00:00:00.000" out="00:00:17.567">
   <property name="kdenlive:id">17</property>
   <filter id="filter60" out="00:00:00.067">
    <property name="start">0</property>
    <property name="mlt_service">brightness</property>
    <property name="kdenlive_id">fade_from_black</property>
    <property name="end">1</property>
    <property name="alpha">-1</property>
   </filter>
   <filter id="filter61" in="00:00:13.500" out="00:00:17.567">
    <property name="start">1</property>
    <property name="mlt_service">brightness</property>
    <property name="kdenlive_id">fade_to_black</property>
    <property name="end">0</property>
    <property name="alpha">-1</property>
   </filter>
  </entry>
  <entry producer="producer84" in="00:00:00.000" out="00:00:33.300">
   <property name="kdenlive:id">22</property>
   <filter id="filter62" out="00:00:07.500">
    <property name="start">0</property>
    <property name="mlt_service">brightness</property>
    <property name="kdenlive_id">fade_from_black</property>
    <property name="end">1</property>
    <property name="alpha">-1</property>
    <property name="kdenlive:collapsed">0</property>
   </filter>
   <filter id="filter63" in="00:00:31.367" out="00:00:33.300">
    <property name="start">1</property>
    <property name="mlt_service">brightness</property>
    <property name="kdenlive_id">fade_to_black</property>
    <property name="end">0</property>
    <property name="alpha">-1</property>
    <property name="kdenlive:collapsed">0</property>
   </filter>
  </entry>
  <blank length="00:00:11.833"/>
  <entry producer="producer85" in="00:00:00.000" out="00:00:01.433">
   <property name="kdenlive:id">2</property>
   <filter id="filter64">
    <property name="version">0.1</property>
    <property name="mlt_service">frei0r.alphaspot</property>
    <property name="kdenlive_id">frei0r.alphaspot</property>
    <property name="Shape">0.38</property>
    <property name="Position X">00:00:00.000=0.486</property>
    <property name="Position Y">00:00:00.000=0.5</property>
    <property name="Size X">00:00:00.000=0.45</property>
    <property name="Size Y">00:00:00.000=0.422</property>
    <property name="Tilt">00:00:00.000=0</property>
    <property name="Transition width">00:00:00.000=0.113</property>
    <property name="Min">00:00:00.000=0</property>
    <property name="Max">00:00:00.000=1</property>
    <property name="Operation">0</property>
    <property name="kdenlive:collapsed">0</property>
   </filter>
   <filter id="filter65">
    <property name="rotate_center">1</property>
    <property name="mlt_service">qtblend</property>
    <property name="kdenlive_id">qtblend</property>
    <property name="rect">00:00:00.000=-1920 -1080 5760 3240 1.000000;00:00:01.433=-1920 -1080 5760 3240 1.000000</property>
    <property name="rotation">00:00:00.000=2.20466;00:00:01.433=75</property>
    <property name="compositing">0</property>
    <property name="distort">0</property>
    <property name="kdenlive:collapsed">0</property>
   </filter>
   <filter id="filter66" out="00:00:00.200">
    <property name="start">0</property>
    <property name="mlt_service">brightness</property>
    <property name="kdenlive_id">fade_from_black</property>
    <property name="end">1</property>
    <property name="alpha">-1</property>
    <property name="kdenlive:collapsed">0</property>
   </filter>
   <filter id="filter67" in="00:00:00.767" out="00:00:01.433">
    <property name="start">1</property>
    <property name="mlt_service">brightness</property>
    <property name="kdenlive_id">fade_to_black</property>
    <property name="end">0</property>
    <property name="alpha">-1</property>
   </filter>
  </entry>
  <entry producer="producer86" in="00:00:01.467" out="00:00:56.733">
   <property name="kdenlive:id">2</property>
   <filter id="filter68">
    <property name="version">0.1</property>
    <property name="mlt_service">frei0r.alphaspot</property>
    <property name="kdenlive_id">frei0r.alphaspot</property>
    <property name="Shape">0.38</property>
    <property name="Position X">00:00:01.467=0.486</property>
    <property name="Position Y">00:00:01.467=0.5</property>
    <property name="Size X">00:00:01.467=0.45</property>
    <property name="Size Y">00:00:01.467=0.422</property>
    <property name="Tilt">00:00:01.467=0</property>
    <property name="Transition width">00:00:01.467=0.113</property>
    <property name="Min">00:00:01.467=0</property>
    <property name="Max">00:00:01.467=1</property>
    <property name="Operation">0</property>
    <property name="kdenlive:collapsed">0</property>
   </filter>
   <filter id="filter69">
    <property name="rotate_center">1</property>
    <property name="mlt_service">qtblend</property>
    <property name="kdenlive_id">qtblend</property>
    <property name="rect">00:00:01.467=-1920 -1080 5760 3240 1.000000;00:00:56.733=-1920 -1080 5760 3240 1.000000</property>
    <property name="rotation">00:00:01.467=-360;00:00:56.733=360</property>
    <property name="compositing">0</property>
    <property name="distort">0</property>
    <property name="kdenlive:collapsed">0</property>
   </filter>
   <filter id="filter70" in="00:00:01.467" out="00:00:02.033">
    <property name="start">0</property>
    <property name="mlt_service">brightness</property>
    <property name="kdenlive_id">fade_from_black</property>
    <property name="end">1</property>
    <property name="alpha">-1</property>
    <property name="kdenlive:collapsed">0</property>
   </filter>
   <filter id="filter71" in="00:00:54.933" out="00:00:56.733">
    <property name="start">1</property>
    <property name="mlt_service">brightness</property>
    <property name="kdenlive_id">fade_to_black</property>
    <property name="end">0</property>
    <property name="alpha">-1</property>
   </filter>
  </entry>
 </playlist>
 <playlist id="playlist7"/>
 <tractor id="tractor3" in="00:00:00.000" out="00:16:08.067">
  <property name="kdenlive:trackheight">69</property>
  <property name="kdenlive:timeline_active">1</property>
  <property name="kdenlive:collapsed">28</property>
  <property name="kdenlive:thumbs_format"/>
  <property name="kdenlive:audio_rec"/>
  <track hide="audio" producer="playlist6"/>
  <track producer="playlist7"/>
 </tractor>
 <producer id="producer87" in="00:00:00.000" out="00:00:30.000">
  <property name="length">902</property>
  <property name="eof">pause</property>
  <property name="resource">0.5:/home/ryankelln/Documents/Projects/Active/Sound_Escapes/Mason/storyboard/the_night_is_young_124000_d3f121a8.mp4</property>
  <property name="aspect_ratio">1</property>
  <property name="meta.media.nb_streams">2</property>
  <property name="meta.media.0.stream.type">video</property>
  <property name="meta.media.0.stream.frame_rate">30</property>
  <property name="meta.media.0.stream.sample_aspect_ratio">0</property>
  <property name="meta.media.0.codec.width">512</property>
  <property name="meta.media.0.codec.height">512</property>
  <property name="meta.media.0.codec.rotate">0</property>
  <property name="meta.media.0.codec.frame_rate">30</property>
  <property name="meta.media.0.codec.pix_fmt">yuv420p</property>
  <property name="meta.media.0.codec.sample_aspect_ratio">0</property>
  <property name="meta.media.0.codec.colorspace">601</property>
  <property name="meta.media.0.codec.name">h264</property>
  <property name="meta.media.0.codec.long_name">H.264 / AVC / MPEG-4 AVC / MPEG-4 part 10</property>
  <property name="meta.media.0.codec.bit_rate">533671</property>
  <property name="meta.attr.0.stream.handler_name.markup">VideoHandler</property>
  <property name="meta.media.1.stream.type">audio</property>
  <property name="meta.media.1.codec.sample_fmt">fltp</property>
  <property name="meta.media.1.codec.sample_rate">48000</property>
  <property name="meta.media.1.codec.channels">2</property>
  <property name="meta.media.1.codec.name">aac</property>
  <property name="meta.media.1.codec.long_name">AAC (Advanced Audio Coding)</property>
  <property name="meta.media.1.codec.bit_rate">288022</property>
  <property name="meta.attr.1.stream.handler_name.markup">SoundHandler</property>
  <property name="meta.attr.major_brand.markup">isom</property>
  <property name="meta.attr.minor_version.markup">512</property>
  <property name="meta.attr.compatible_brands.markup">isomiso2avc1mp41</property>
  <property name="meta.attr.encoder.markup">Lavf58.29.100</property>
  <property name="seekable">1</property>
  <property name="meta.media.sample_aspect_num">1</property>
  <property name="meta.media.sample_aspect_den">1</property>
  <property name="audio_index">1</property>
  <property name="video_index">0</property>
  <property name="mute_on_pause">1</property>
  <property name="warp_speed">0.5</property>
  <property name="warp_resource">/home/ryankelln/Documents/Projects/Active/Sound_Escapes/Mason/storyboard/the_night_is_young_124000_d3f121a8.mp4</property>
  <property name="mlt_service">timewarp</property>
  <property name="meta.attr.0.stream.vendor_id.markup">[0][0][0][0]</property>
  <property name="meta.attr.1.stream.vendor_id.markup">[0][0][0][0]</property>
  <property name="set.test_audio">1</property>
  <property name="set.test_image">0</property>
  <property name="kdenlive:id">2</property>
  <property name="warp_pitch">0</property>
  <property name="meta.media.frame_rate_num">30</property>
  <property name="meta.media.frame_rate_den">1</property>
  <property name="meta.media.colorspace">601</property>
  <property name="meta.media.color_trc">2</property>
  <property name="meta.media.width">512</property>
  <property name="meta.media.height">512</property>
  <property name="meta.media.color_range">mpeg</property>
  <property name="meta.media.top_field_first">0</property>
  <property name="meta.media.progressive">1</property>
 </producer>
 <producer id="producer88" in="00:00:00.000" out="00:02:53.967">
  <property name="length">5220</property>
  <property name="eof">pause</property>
  <property name="resource">1.750000:/media/storage/media/Videos/mine/music_landscapes/2021-05-21/Chris/rehearsal1_Chris_piano_1.MP4</property>
  <property name="aspect_ratio">1</property>
  <property name="meta.media.nb_streams">3</property>
  <property name="meta.media.0.stream.type">video</property>
  <property name="meta.media.0.stream.frame_rate">24</property>
  <property name="meta.media.0.stream.sample_aspect_ratio">0</property>
  <property name="meta.media.0.codec.width">1920</property>
  <property name="meta.media.0.codec.height">1080</property>
  <property name="meta.media.0.codec.rotate">0</property>
  <property name="meta.media.0.codec.frame_rate">24</property>
  <property name="meta.media.0.codec.pix_fmt">yuv420p</property>
  <property name="meta.media.0.codec.sample_aspect_ratio">1</property>
  <property name="meta.media.0.codec.colorspace">709</property>
  <property name="meta.media.0.codec.color_trc">1</property>
  <property name="meta.media.0.codec.name">h264</property>
  <property name="meta.media.0.codec.long_name">H.264 / AVC / MPEG-4 AVC / MPEG-4 part 10</property>
  <property name="meta.media.0.codec.bit_rate">38387885</property>
  <property name="meta.attr.0.stream.creation_time.markup">2021-05-21T13:27:53.000000Z</property>
  <property name="meta.attr.0.stream.timecode.markup">08:55:37:15</property>
  <property name="meta.media.1.stream.type">audio</property>
  <property name="meta.media.1.codec.sample_fmt">s16</property>
  <property name="meta.media.1.codec.sample_rate">48000</property>
  <property name="meta.media.1.codec.channels">2</property>
  <property name="meta.media.1.codec.name">pcm_s16be</property>
  <property name="meta.media.1.codec.long_name">PCM signed 16-bit big-endian</property>
  <property name="meta.media.1.codec.bit_rate">1536000</property>
  <property name="meta.attr.1.stream.creation_time.markup">2021-05-21T13:27:53.000000Z</property>
  <property name="meta.attr.1.stream.timecode.markup">08:55:37:15</property>
  <property name="meta.attr.major_brand.markup">mp42</property>
  <property name="meta.attr.minor_version.markup">1</property>
  <property name="meta.attr.compatible_brands.markup">mp42avc1</property>
  <property name="meta.attr.creation_time.markup">2021-05-21T13:27:53.000000Z</property>
  <property name="seekable">1</property>
  <property name="meta.media.sample_aspect_num">1</property>
  <property name="meta.media.sample_aspect_den">1</property>
  <property name="audio_index">1</property>
  <property name="video_index">0</property>
  <property name="mute_on_pause">1</property>
  <property name="warp_speed">1.75</property>
  <property name="warp_resource">/media/storage/media/Videos/mine/music_landscapes/2021-05-21/Chris/rehearsal1_Chris_piano_1.MP4</property>
  <property name="mlt_service">timewarp</property>
  <property name="meta.attr.0.stream.vendor_id.markup">[0][0][0][0]</property>
  <property name="meta.attr.1.stream.vendor_id.markup">pana</property>
  <property name="set.test_audio">1</property>
  <property name="set.test_image">0</property>
  <property name="kdenlive:id">26</property>
  <property name="warp_pitch">0</property>
  <property name="meta.media.frame_rate_num">24</property>
  <property name="meta.media.frame_rate_den">1</property>
  <property name="meta.media.colorspace">709</property>
  <property name="meta.media.color_trc">1</property>
  <property name="meta.media.width">1920</property>
  <property name="meta.media.height">1080</property>
  <property name="meta.media.color_range">mpeg</property>
  <property name="meta.media.top_field_first">0</property>
  <property name="meta.media.progressive">1</property>
 </producer>
 <producer id="producer89" in="00:00:00.000" out="00:08:27.667">
  <property name="length">15231</property>
  <property name="eof">pause</property>
  <property name="resource">0.800000:/home/ryankelln/Documents/Projects/Active/Sound_Escapes/Mason/footage/Soothing Relax And Calm _Night Sky Time Lapse, Starry Night Sleep Music, Study _Ambient, Meditations-Zw3q6h7DsFs.webm</property>
  <property name="aspect_ratio">1</property>
  <property name="meta.media.nb_streams">2</property>
  <property name="meta.media.0.stream.type">video</property>
  <property name="meta.media.0.stream.frame_rate">27.38</property>
  <property name="meta.media.0.stream.sample_aspect_ratio">1</property>
  <property name="meta.media.0.codec.width">1920</property>
  <property name="meta.media.0.codec.height">1080</property>
  <property name="meta.media.0.codec.rotate">0</property>
  <property name="meta.media.0.codec.frame_rate">1000</property>
  <property name="meta.media.0.codec.pix_fmt">yuv420p</property>
  <property name="meta.media.0.codec.sample_aspect_ratio">0</property>
  <property name="meta.media.0.codec.colorspace">709</property>
  <property name="meta.media.0.codec.name">vp9</property>
  <property name="meta.media.0.codec.long_name">Google VP9</property>
  <property name="meta.media.0.codec.bit_rate">0</property>
  <property name="meta.attr.0.stream.language.markup">eng</property>
  <property name="meta.attr.0.stream.DURATION.markup">00:06:46.135000000</property>
  <property name="meta.media.1.stream.type">audio</property>
  <property name="meta.media.1.codec.sample_fmt">fltp</property>
  <property name="meta.media.1.codec.sample_rate">48000</property>
  <property name="meta.media.1.codec.channels">2</property>
  <property name="meta.media.1.codec.name">opus</property>
  <property name="meta.media.1.codec.long_name">Opus</property>
  <property name="meta.media.1.codec.bit_rate">0</property>
  <property name="meta.attr.1.stream.language.markup">eng</property>
  <property name="meta.attr.1.stream.DURATION.markup">00:06:46.161000000</property>
  <property name="meta.attr.HTTP://YOUTUBE.COM/STREAMING/OTF/DURATIONS/112015.markup">Segment-Count: 78&#xd;
Segment-Durations-Ms: 5259,5260,5259(r=1),5260,5259(r=1),5260,5259(r=2),5260,5259(r=1),5260,5259(r=1),5260,5259(r=1),5260,5259(r=1),5260,5259(r=2),5260,5259(r=1),5260,5259(r=1),5260,5259(r=1),5260,5259(r=1),5260,5259(r=2),5260,5259(r=1),5260,5259(r=1),5260,5259(r=1),5260,5259(r=1),5260,5259(r=2),5260,5259(r=1),5260,5259(r=1),5260,5259(r=1),5260,5259(r=1),5260,5259(r=2),5260,5259,1169,&#xd;
&#xd;
</property>
  <property name="meta.attr.ENCODER.markup">Lavf58.45.100</property>
  <property name="seekable">1</property>
  <property name="meta.media.sample_aspect_num">1</property>
  <property name="meta.media.sample_aspect_den">1</property>
  <property name="audio_index">1</property>
  <property name="video_index">0</property>
  <property name="mute_on_pause">1</property>
  <property name="warp_speed">0.8</property>
  <property name="warp_resource">/home/ryankelln/Documents/Projects/Active/Sound_Escapes/Mason/footage/Soothing Relax And Calm _Night Sky Time Lapse, Starry Night Sleep Music, Study _Ambient, Meditations-Zw3q6h7DsFs.webm</property>
  <property name="mlt_service">timewarp</property>
  <property name="set.test_audio">1</property>
  <property name="set.test_image">0</property>
  <property name="kdenlive:id">21</property>
  <property name="warp_pitch">0</property>
  <property name="meta.media.frame_rate_num">1369</property>
  <property name="meta.media.frame_rate_den">50</property>
  <property name="meta.media.colorspace">709</property>
  <property name="meta.media.color_trc">2</property>
  <property name="meta.media.width">1920</property>
  <property name="meta.media.height">1080</property>
  <property name="meta.media.color_range">mpeg</property>
  <property name="meta.media.top_field_first">0</property>
  <property name="meta.media.progressive">1</property>
 </producer>
 <producer id="producer90" in="00:00:00.000" out="00:00:30.000">
  <property name="length">901</property>
  <property name="eof">pause</property>
  <property name="resource">/home/ryankelln/Documents/Projects/Active/Sound_Escapes/Mason/footage/Stars in Space - Copyright Free Reusable Stock Video HD-5yXWVS_bE_g.mp4</property>
  <property name="audio_index">1</property>
  <property name="video_index">0</property>
  <property name="mute_on_pause">0</property>
  <property name="mlt_service">avformat-novalidate</property>
  <property name="seekable">1</property>
  <property name="aspect_ratio">1</property>
  <property name="kdenlive:clipname"/>
  <property name="kdenlive:folderid">-1</property>
  <property name="kdenlive:id">15</property>
  <property name="kdenlive:file_size">18366114</property>
  <property name="kdenlive:file_hash">4d1f6fa81d99e339c68e8177852eda2f</property>
  <property name="kdenlive:audio_max">91</property>
  <property name="kdenlive:active_streams">-1</property>
  <property name="global_feed">1</property>
  <property name="xml">was here</property>
  <property name="meta.media.nb_streams">2</property>
  <property name="meta.media.0.stream.type">video</property>
  <property name="meta.media.0.stream.frame_rate">30</property>
  <property name="meta.media.0.stream.sample_aspect_ratio">1</property>
  <property name="meta.media.0.codec.width">1920</property>
  <property name="meta.media.0.codec.height">1080</property>
  <property name="meta.media.0.codec.rotate">0</property>
  <property name="meta.media.0.codec.frame_rate">30</property>
  <property name="meta.media.0.codec.pix_fmt">yuv420p</property>
  <property name="meta.media.0.codec.sample_aspect_ratio">1</property>
  <property name="meta.media.0.codec.colorspace">709</property>
  <property name="meta.media.0.codec.color_trc">1</property>
  <property name="meta.media.0.codec.name">h264</property>
  <property name="meta.media.0.codec.long_name">H.264 / AVC / MPEG-4 AVC / MPEG-4 part 10</property>
  <property name="meta.media.0.codec.bit_rate">4761285</property>
  <property name="meta.attr.0.stream.handler_name.markup">ISO Media file produced by Google Inc.</property>
  <property name="meta.attr.0.stream.vendor_id.markup">[0][0][0][0]</property>
  <property name="meta.media.1.stream.type">audio</property>
  <property name="meta.media.1.codec.sample_fmt">fltp</property>
  <property name="meta.media.1.codec.sample_rate">44100</property>
  <property name="meta.media.1.codec.channels">2</property>
  <property name="meta.media.1.codec.name">aac</property>
  <property name="meta.media.1.codec.long_name">AAC (Advanced Audio Coding)</property>
  <property name="meta.media.1.codec.bit_rate">127999</property>
  <property name="meta.attr.1.stream.handler_name.markup">ISO Media file produced by Google Inc.</property>
  <property name="meta.attr.1.stream.vendor_id.markup">[0][0][0][0]</property>
  <property name="meta.attr.major_brand.markup">isom</property>
  <property name="meta.attr.minor_version.markup">512</property>
  <property name="meta.attr.compatible_brands.markup">isomiso2avc1mp41</property>
  <property name="meta.attr.encoder.markup">Lavf58.45.100</property>
  <property name="meta.media.sample_aspect_num">1</property>
  <property name="meta.media.sample_aspect_den">1</property>
  <property name="meta.media.frame_rate_num">30</property>
  <property name="meta.media.frame_rate_den">1</property>
  <property name="meta.media.colorspace">709</property>
  <property name="meta.media.color_trc">1</property>
  <property name="meta.media.width">1920</property>
  <property name="meta.media.height">1080</property>
  <property name="meta.media.color_range">mpeg</property>
  <property name="meta.media.top_field_first">0</property>
  <property name="meta.media.progressive">1</property>
  <property name="set.test_audio">1</property>
  <property name="set.test_image">0</property>
 </producer>
 <producer id="producer91" in="00:00:00.000" out="00:05:21.467">
  <property name="length">9645</property>
  <property name="eof">pause</property>
  <property name="resource">/media/storage/media/Videos/mine/music_landscapes/2021-05-21/rehearsal1_Caleb_upright+projection.MP4</property>
  <property name="audio_index">1</property>
  <property name="video_index">0</property>
  <property name="mute_on_pause">0</property>
  <property name="mlt_service">avformat-novalidate</property>
  <property name="seekable">1</property>
  <property name="aspect_ratio">1</property>
  <property name="kdenlive:clipname"/>
  <property name="kdenlive:folderid">-1</property>
  <property name="kdenlive:id">25</property>
  <property name="kdenlive:file_size">1561679650</property>
  <property name="kdenlive:file_hash">31f927b6aeebe0a73558f7ee3b1ebcd3</property>
  <property name="kdenlive:audio_max">91</property>
  <property name="kdenlive:zone_in">2583</property>
  <property name="kdenlive:zone_out">2926</property>
  <property name="kdenlive:clipzones">[
    {
        "in": 2583,
        "name": "Zone 1",
        "out": 2926
    }
]
</property>
  <property name="kdenlive:active_streams">-1</property>
  <property name="global_feed">1</property>
  <property name="xml">was here</property>
  <property name="meta.media.nb_streams">3</property>
  <property name="meta.media.0.stream.type">video</property>
  <property name="meta.media.0.stream.frame_rate">24</property>
  <property name="meta.media.0.stream.sample_aspect_ratio">0</property>
  <property name="meta.media.0.codec.width">1920</property>
  <property name="meta.media.0.codec.height">1080</property>
  <property name="meta.media.0.codec.rotate">0</property>
  <property name="meta.media.0.codec.frame_rate">24</property>
  <property name="meta.media.0.codec.pix_fmt">yuv420p</property>
  <property name="meta.media.0.codec.sample_aspect_ratio">1</property>
  <property name="meta.media.0.codec.colorspace">709</property>
  <property name="meta.media.0.codec.color_trc">1</property>
  <property name="meta.media.0.codec.name">h264</property>
  <property name="meta.media.0.codec.long_name">H.264 / AVC / MPEG-4 AVC / MPEG-4 part 10</property>
  <property name="meta.media.0.codec.bit_rate">37316544</property>
  <property name="meta.attr.0.stream.creation_time.markup">2021-05-21T15:49:33.000000Z</property>
  <property name="meta.attr.0.stream.vendor_id.markup">[0][0][0][0]</property>
  <property name="meta.attr.0.stream.timecode.markup">10:12:10:03</property>
  <property name="meta.media.1.stream.type">audio</property>
  <property name="meta.media.1.codec.sample_fmt">s16</property>
  <property name="meta.media.1.codec.sample_rate">48000</property>
  <property name="meta.media.1.codec.channels">2</property>
  <property name="meta.media.1.codec.name">pcm_s16be</property>
  <property name="meta.media.1.codec.long_name">PCM signed 16-bit big-endian</property>
  <property name="meta.media.1.codec.bit_rate">1536000</property>
  <property name="meta.attr.1.stream.creation_time.markup">2021-05-21T15:49:33.000000Z</property>
  <property name="meta.attr.1.stream.vendor_id.markup">pana</property>
  <property name="meta.attr.1.stream.timecode.markup">10:12:10:03</property>
  <property name="meta.attr.major_brand.markup">mp42</property>
  <property name="meta.attr.minor_version.markup">1</property>
  <property name="meta.attr.compatible_brands.markup">mp42avc1</property>
  <property name="meta.attr.creation_time.markup">2021-05-21T15:49:33.000000Z</property>
  <property name="meta.media.sample_aspect_num">1</property>
  <property name="meta.media.sample_aspect_den">1</property>
  <property name="meta.media.frame_rate_num">24</property>
  <property name="meta.media.frame_rate_den">1</property>
  <property name="meta.media.colorspace">709</property>
  <property name="meta.media.color_trc">1</property>
  <property name="meta.media.width">1920</property>
  <property name="meta.media.height">1080</property>
  <property name="meta.media.color_range">mpeg</property>
  <property name="meta.media.top_field_first">0</property>
  <property name="meta.media.progressive">1</property>
  <property name="set.test_audio">1</property>
  <property name="set.test_image">0</property>
 </producer>
 <producer id="producer92" in="00:00:00.000" out="00:02:01.967">
  <property name="length">3660</property>
  <property name="eof">pause</property>
  <property name="resource">/media/storage/media/Videos/mine/music_landscapes/2021-05-21/rehearsal1_Caleb_upright+closeup+hands_1.MP4</property>
  <property name="audio_index">1</property>
  <property name="video_index">0</property>
  <property name="mute_on_pause">0</property>
  <property name="mlt_service">avformat-novalidate</property>
  <property name="seekable">1</property>
  <property name="aspect_ratio">1</property>
  <property name="kdenlive:clipname"/>
  <property name="kdenlive:folderid">-1</property>
  <property name="kdenlive:id">30</property>
  <property name="kdenlive:file_size">609050456</property>
  <property name="kdenlive:file_hash">84019eead71182496219a325f9129e2b</property>
  <property name="kdenlive:audio_max">91</property>
  <property name="kdenlive:active_streams">-1</property>
  <property name="kdenlive:zone_in">450</property>
  <property name="kdenlive:zone_out">3472</property>
  <property name="kdenlive:clipzones">[
    {
        "in": 450,
        "name": "Zone 1",
        "out": 3472
    }
]
</property>
  <property name="kdenlive:thumbnailFrame">654</property>
  <property name="global_feed">1</property>
  <property name="xml">was here</property>
  <property name="meta.media.nb_streams">3</property>
  <property name="meta.media.0.stream.type">video</property>
  <property name="meta.media.0.stream.frame_rate">24</property>
  <property name="meta.media.0.stream.sample_aspect_ratio">0</property>
  <property name="meta.media.0.codec.width">1920</property>
  <property name="meta.media.0.codec.height">1080</property>
  <property name="meta.media.0.codec.rotate">0</property>
  <property name="meta.media.0.codec.frame_rate">24</property>
  <property name="meta.media.0.codec.pix_fmt">yuv420p</property>
  <property name="meta.media.0.codec.sample_aspect_ratio">1</property>
  <property name="meta.media.0.codec.colorspace">709</property>
  <property name="meta.media.0.codec.color_trc">1</property>
  <property name="meta.media.0.codec.name">h264</property>
  <property name="meta.media.0.codec.long_name">H.264 / AVC / MPEG-4 AVC / MPEG-4 part 10</property>
  <property name="meta.media.0.codec.bit_rate">38383776</property>
  <property name="meta.attr.0.stream.creation_time.markup">2021-05-21T15:37:21.000000Z</property>
  <property name="meta.attr.0.stream.vendor_id.markup">[0][0][0][0]</property>
  <property name="meta.attr.0.stream.timecode.markup">10:02:24:03</property>
  <property name="meta.media.1.stream.type">audio</property>
  <property name="meta.media.1.codec.sample_fmt">s16</property>
  <property name="meta.media.1.codec.sample_rate">48000</property>
  <property name="meta.media.1.codec.channels">2</property>
  <property name="meta.media.1.codec.name">pcm_s16be</property>
  <property name="meta.media.1.codec.long_name">PCM signed 16-bit big-endian</property>
  <property name="meta.media.1.codec.bit_rate">1536000</property>
  <property name="meta.attr.1.stream.creation_time.markup">2021-05-21T15:37:21.000000Z</property>
  <property name="meta.attr.1.stream.vendor_id.markup">pana</property>
  <property name="meta.attr.1.stream.timecode.markup">10:02:24:03</property>
  <property name="meta.attr.major_brand.markup">mp42</property>
  <property name="meta.attr.minor_version.markup">1</property>
  <property name="meta.attr.compatible_brands.markup">mp42avc1</property>
  <property name="meta.attr.creation_time.markup">2021-05-21T15:37:21.000000Z</property>
  <property name="meta.media.sample_aspect_num">1</property>
  <property name="meta.media.sample_aspect_den">1</property>
  <property name="meta.media.frame_rate_num">24</property>
  <property name="meta.media.frame_rate_den">1</property>
  <property name="meta.media.colorspace">709</property>
  <property name="meta.media.color_trc">1</property>
  <property name="meta.media.width">1920</property>
  <property name="meta.media.height">1080</property>
  <property name="meta.media.color_range">mpeg</property>
  <property name="meta.media.top_field_first">0</property>
  <property name="meta.media.progressive">1</property>
  <property name="set.test_audio">1</property>
  <property name="set.test_image">0</property>
 </producer>
 <producer id="producer93" in="00:00:00.000" out="00:05:55.833">
  <property name="length">10676</property>
  <property name="eof">pause</property>
  <property name="resource">/home/ryankelln/.cache/kdenlive/proxy/e04a53890a9bbd6f1a6a8a79116ca1de.mkv</property>
  <property name="audio_index">1</property>
  <property name="video_index">0</property>
  <property name="mute_on_pause">0</property>
  <property name="mlt_service">avformat-novalidate</property>
  <property name="seekable">1</property>
  <property name="aspect_ratio">1</property>
  <property name="kdenlive:clipname">rehearsal2_Chris_piano+gs+4k_1_mason.MP4</property>
  <property name="kdenlive:folderid">60</property>
  <property name="kdenlive:id">33</property>
  <property name="kdenlive:file_size">4266835142</property>
  <property name="kdenlive:file_hash">e04a53890a9bbd6f1a6a8a79116ca1de</property>
  <property name="kdenlive:audio_max">1</property>
  <property name="kdenlive:zone_in">1194</property>
  <property name="kdenlive:zone_out">1823</property>
  <property name="kdenlive:clipzones">[
    {
        "in": 1194,
        "name": "Zone 1",
        "out": 1823
    }
]
</property>
  <property name="kdenlive:active_streams">-1</property>
  <property name="global_feed">1</property>
  <property name="kdenlive:proxy">/home/ryankelln/.cache/kdenlive/proxy/e04a53890a9bbd6f1a6a8a79116ca1de.mkv</property>
  <property name="kdenlive:originalurl">/media/storage/media/Videos/mine/music_landscapes/2021-05-30/rehearsal2_Chris_piano+gs+4k_1_mason.MP4</property>
  <property name="kdenlive:original.mlt_type">producer</property>
  <property name="kdenlive:original.in">00:00:00.000</property>
  <property name="kdenlive:original.out">00:05:55.833</property>
  <property name="kdenlive:original.length">10676</property>
  <property name="kdenlive:original.eof">pause</property>
  <property name="kdenlive:original.resource">/media/storage/media/Videos/mine/music_landscapes/2021-05-30/rehearsal2_Chris_piano+gs+4k_1_mason.MP4</property>
  <property name="kdenlive:original.audio_index">1</property>
  <property name="kdenlive:original.video_index">0</property>
  <property name="kdenlive:original.mute_on_pause">0</property>
  <property name="kdenlive:original.mlt_service">avformat-novalidate</property>
  <property name="kdenlive:original.id">producer31</property>
  <property name="kdenlive:original.meta.media.nb_streams">2</property>
  <property name="kdenlive:original.meta.media.0.stream.type">video</property>
  <property name="kdenlive:original.meta.media.0.stream.frame_rate">29.97</property>
  <property name="kdenlive:original.meta.media.0.stream.sample_aspect_ratio">0</property>
  <property name="kdenlive:original.meta.media.0.codec.width">3840</property>
  <property name="kdenlive:original.meta.media.0.codec.height">2160</property>
  <property name="kdenlive:original.meta.media.0.codec.rotate">0</property>
  <property name="kdenlive:original.meta.media.0.codec.frame_rate">29.97</property>
  <property name="kdenlive:original.meta.media.0.codec.pix_fmt">yuvj420p</property>
  <property name="kdenlive:original.meta.media.0.codec.sample_aspect_ratio">1</property>
  <property name="kdenlive:original.meta.media.0.codec.colorspace">709</property>
  <property name="kdenlive:original.meta.media.0.codec.color_trc">1</property>
  <property name="kdenlive:original.meta.media.0.codec.name">h264</property>
  <property name="kdenlive:original.meta.media.0.codec.long_name">H.264 / AVC / MPEG-4 AVC / MPEG-4 part 10</property>
  <property name="kdenlive:original.meta.media.0.codec.bit_rate">95788669</property>
  <property name="kdenlive:original.meta.attr.0.stream.creation_time.markup">2021-05-30T16:41:39.000000Z</property>
  <property name="kdenlive:original.meta.attr.0.stream.vendor_id.markup">[0][0][0][0]</property>
  <property name="kdenlive:original.meta.media.1.stream.type">audio</property>
  <property name="kdenlive:original.meta.media.1.codec.sample_fmt">fltp</property>
  <property name="kdenlive:original.meta.media.1.codec.sample_rate">48000</property>
  <property name="kdenlive:original.meta.media.1.codec.channels">2</property>
  <property name="kdenlive:original.meta.media.1.codec.name">aac</property>
  <property name="kdenlive:original.meta.media.1.codec.long_name">AAC (Advanced Audio Coding)</property>
  <property name="kdenlive:original.meta.media.1.codec.bit_rate">125358</property>
  <property name="kdenlive:original.meta.attr.1.stream.creation_time.markup">2021-05-30T16:41:39.000000Z</property>
  <property name="kdenlive:original.meta.attr.1.stream.vendor_id.markup">[0][0][0][0]</property>
  <property name="kdenlive:original.meta.attr.major_brand.markup">mp42</property>
  <property name="kdenlive:original.meta.attr.minor_version.markup">1</property>
  <property name="kdenlive:original.meta.attr.compatible_brands.markup">mp42avc1</property>
  <property name="kdenlive:original.meta.attr.creation_time.markup">2021-05-30T16:41:39.000000Z</property>
  <property name="kdenlive:original.seekable">1</property>
  <property name="kdenlive:original.meta.media.sample_aspect_num">1</property>
  <property name="kdenlive:original.meta.media.sample_aspect_den">1</property>
  <property name="kdenlive:original.aspect_ratio">1</property>
  <property name="kdenlive:original.kdenlive:folderid">60</property>
  <property name="kdenlive:original.meta.media.frame_rate_num">30000</property>
  <property name="kdenlive:original.meta.media.frame_rate_den">1001</property>
  <property name="kdenlive:original.meta.media.colorspace">709</property>
  <property name="kdenlive:original.meta.media.color_trc">1</property>
  <property name="kdenlive:original.meta.media.width">3840</property>
  <property name="kdenlive:original.meta.media.height">2160</property>
  <property name="kdenlive:original.meta.media.color_range">full</property>
  <property name="kdenlive:original.kdenlive:id">35</property>
  <property name="kdenlive:original.kdenlive:file_size">4266835142</property>
  <property name="kdenlive:original.kdenlive:file_hash">e04a53890a9bbd6f1a6a8a79116ca1de</property>
  <property name="kdenlive:original.meta.media.top_field_first">0</property>
  <property name="kdenlive:original.meta.media.progressive">1</property>
  <property name="kdenlive:original.kdenlive:audio_max">1</property>
  <property name="kdenlive:original.kdenlive:zone_in">1194</property>
  <property name="kdenlive:original.kdenlive:zone_out">1823</property>
  <property name="kdenlive:original.kdenlive:clipzones">[
    {
        "in": 1194,
        "name": "Zone 1",
        "out": 1823
    }
]
</property>
  <property name="kdenlive:original.kdenlive:active_streams">-1</property>
  <property name="kdenlive:original.global_feed">1</property>
  <property name="kdenlive:original.width">3840</property>
  <property name="kdenlive:original.height">2160</property>
  <property name="kdenlive:original.backup">1</property>
  <property name="xml">was here</property>
  <property name="meta.media.nb_streams">2</property>
  <property name="meta.media.0.stream.type">video</property>
  <property name="meta.media.0.stream.frame_rate">29.97</property>
  <property name="meta.media.0.stream.sample_aspect_ratio">1</property>
  <property name="meta.media.0.codec.width">640</property>
  <property name="meta.media.0.codec.height">360</property>
  <property name="meta.media.0.codec.rotate">0</property>
  <property name="meta.media.0.codec.frame_rate">1000</property>
  <property name="meta.media.0.codec.pix_fmt">yuvj420p</property>
  <property name="meta.media.0.codec.sample_aspect_ratio">1</property>
  <property name="meta.media.0.codec.colorspace">601</property>
  <property name="meta.media.0.codec.name">mjpeg</property>
  <property name="meta.media.0.codec.long_name">MJPEG (Motion JPEG)</property>
  <property name="meta.media.0.codec.bit_rate">0</property>
  <property name="meta.attr.0.stream.ENCODER.markup">Lavc58.91.100 mjpeg</property>
  <property name="meta.attr.0.stream.DURATION.markup">00:05:55.855000000</property>
  <property name="meta.media.1.stream.type">audio</property>
  <property name="meta.media.1.codec.sample_fmt">s16</property>
  <property name="meta.media.1.codec.sample_rate">48000</property>
  <property name="meta.media.1.codec.channels">2</property>
  <property name="meta.media.1.codec.name">pcm_s16le</property>
  <property name="meta.media.1.codec.long_name">PCM signed 16-bit little-endian</property>
  <property name="meta.media.1.codec.bit_rate">1536000</property>
  <property name="meta.attr.1.stream.ENCODER.markup">Lavc58.91.100 pcm_s16le</property>
  <property name="meta.attr.1.stream.DURATION.markup">00:05:55.861000000</property>
  <property name="meta.attr.COMPATIBLE_BRANDS.markup">mp42avc1</property>
  <property name="meta.attr.MAJOR_BRAND.markup">mp42</property>
  <property name="meta.attr.MINOR_VERSION.markup">1</property>
  <property name="meta.attr.ENCODER.markup">Lavf58.45.100</property>
  <property name="meta.media.sample_aspect_num">1</property>
  <property name="meta.media.sample_aspect_den">1</property>
  <property name="meta.media.frame_rate_num">30000</property>
  <property name="meta.media.frame_rate_den">1001</property>
  <property name="meta.media.colorspace">601</property>
  <property name="meta.media.color_trc">2</property>
  <property name="meta.media.width">640</property>
  <property name="meta.media.height">360</property>
  <property name="meta.media.color_range">full</property>
  <property name="set.test_audio">1</property>
  <property name="set.test_image">0</property>
 </producer>
 <producer id="producer94" in="00:00:00.000" out="00:00:29.967">
  <property name="length">900</property>
  <property name="eof">pause</property>
  <property name="resource">/home/ryankelln/Documents/Projects/Active/Sound_Escapes/Mason/storyboard/ReReVST-nebula_redtwinkle-inputs_no-global.avi</property>
  <property name="audio_index">-1</property>
  <property name="video_index">0</property>
  <property name="mute_on_pause">0</property>
  <property name="mlt_service">avformat-novalidate</property>
  <property name="seekable">1</property>
  <property name="aspect_ratio">1</property>
  <property name="kdenlive:clipname"/>
  <property name="kdenlive:folderid">-1</property>
  <property name="kdenlive:id">32</property>
  <property name="kdenlive:file_size">54056014</property>
  <property name="kdenlive:file_hash">d8064df5743a5c55b4f2e3024154ca6b</property>
  <property name="global_feed">1</property>
  <property name="xml">was here</property>
  <property name="meta.media.nb_streams">1</property>
  <property name="meta.media.0.stream.type">video</property>
  <property name="meta.media.0.stream.frame_rate">30</property>
  <property name="meta.media.0.stream.sample_aspect_ratio">0</property>
  <property name="meta.media.0.codec.width">800</property>
  <property name="meta.media.0.codec.height">600</property>
  <property name="meta.media.0.codec.rotate">0</property>
  <property name="meta.media.0.codec.frame_rate">30</property>
  <property name="meta.media.0.codec.pix_fmt">yuvj420p</property>
  <property name="meta.media.0.codec.sample_aspect_ratio">0</property>
  <property name="meta.media.0.codec.colorspace">601</property>
  <property name="meta.media.0.codec.name">mjpeg</property>
  <property name="meta.media.0.codec.long_name">MJPEG (Motion JPEG)</property>
  <property name="meta.media.0.codec.bit_rate">14422949</property>
  <property name="meta.attr.software.markup">Lavf58.61.100</property>
  <property name="meta.media.sample_aspect_num">1</property>
  <property name="meta.media.sample_aspect_den">1</property>
  <property name="meta.media.frame_rate_num">30</property>
  <property name="meta.media.frame_rate_den">1</property>
  <property name="meta.media.colorspace">601</property>
  <property name="meta.media.color_trc">2</property>
  <property name="meta.media.width">800</property>
  <property name="meta.media.height">600</property>
  <property name="meta.media.color_range">full</property>
  <property name="meta.media.top_field_first">0</property>
  <property name="meta.media.progressive">1</property>
  <property name="set.test_audio">1</property>
  <property name="set.test_image">0</property>
 </producer>
 <producer id="producer95" in="00:00:00.000" out="00:01:30.000">
  <property name="length">2701</property>
  <property name="eof">pause</property>
  <property name="resource">/home/ryankelln/Documents/Projects/Active/Sound_Escapes/Mason/storyboard/the_night_is_young_124000_d3f121a8.mp4</property>
  <property name="audio_index">1</property>
  <property name="video_index">0</property>
  <property name="mute_on_pause">0</property>
  <property name="mlt_service">avformat-novalidate</property>
  <property name="seekable">1</property>
  <property name="aspect_ratio">1</property>
  <property name="kdenlive:clipname"/>
  <property name="kdenlive:folderid">-1</property>
  <property name="kdenlive:id">29</property>
  <property name="kdenlive:file_size">12114559</property>
  <property name="kdenlive:file_hash">7b98c69b7c05695fa8f37ff12780e61e</property>
  <property name="kdenlive:audio_max">1</property>
  <property name="kdenlive:zone_in">1052</property>
  <property name="kdenlive:zone_out">1426</property>
  <property name="kdenlive:clipzones">[
    {
        "in": 1052,
        "name": "Zone 1",
        "out": 1426
    }
]
</property>
  <property name="global_feed">1</property>
  <property name="kdenlive:active_streams">-1</property>
  <property name="xml">was here</property>
  <property name="meta.media.nb_streams">2</property>
  <property name="meta.media.0.stream.type">video</property>
  <property name="meta.media.0.stream.frame_rate">30</property>
  <property name="meta.media.0.stream.sample_aspect_ratio">0</property>
  <property name="meta.media.0.codec.width">512</property>
  <property name="meta.media.0.codec.height">512</property>
  <property name="meta.media.0.codec.rotate">0</property>
  <property name="meta.media.0.codec.frame_rate">30</property>
  <property name="meta.media.0.codec.pix_fmt">yuv420p</property>
  <property name="meta.media.0.codec.sample_aspect_ratio">0</property>
  <property name="meta.media.0.codec.colorspace">601</property>
  <property name="meta.media.0.codec.name">h264</property>
  <property name="meta.media.0.codec.long_name">H.264 / AVC / MPEG-4 AVC / MPEG-4 part 10</property>
  <property name="meta.media.0.codec.bit_rate">752930</property>
  <property name="meta.attr.0.stream.handler_name.markup">VideoHandler</property>
  <property name="meta.attr.0.stream.vendor_id.markup">[0][0][0][0]</property>
  <property name="meta.media.1.stream.type">audio</property>
  <property name="meta.media.1.codec.sample_fmt">fltp</property>
  <property name="meta.media.1.codec.sample_rate">48000</property>
  <property name="meta.media.1.codec.channels">2</property>
  <property name="meta.media.1.codec.name">aac</property>
  <property name="meta.media.1.codec.long_name">AAC (Advanced Audio Coding)</property>
  <property name="meta.media.1.codec.bit_rate">315283</property>
  <property name="meta.attr.1.stream.handler_name.markup">SoundHandler</property>
  <property name="meta.attr.1.stream.vendor_id.markup">[0][0][0][0]</property>
  <property name="meta.attr.major_brand.markup">isom</property>
  <property name="meta.attr.minor_version.markup">512</property>
  <property name="meta.attr.compatible_brands.markup">isomiso2avc1mp41</property>
  <property name="meta.attr.encoder.markup">Lavf58.29.100</property>
  <property name="meta.media.sample_aspect_num">1</property>
  <property name="meta.media.sample_aspect_den">1</property>
  <property name="meta.media.frame_rate_num">30</property>
  <property name="meta.media.frame_rate_den">1</property>
  <property name="meta.media.colorspace">601</property>
  <property name="meta.media.color_trc">2</property>
  <property name="meta.media.width">512</property>
  <property name="meta.media.height">512</property>
  <property name="meta.media.color_range">mpeg</property>
  <property name="meta.media.top_field_first">0</property>
  <property name="meta.media.progressive">1</property>
  <property name="set.test_audio">1</property>
  <property name="set.test_image">0</property>
 </producer>
 <producer id="producer96" in="00:00:00.000" out="00:00:11.967">
  <property name="length">360</property>
  <property name="eof">pause</property>
  <property name="resource">2.500000:/home/ryankelln/Documents/Projects/Active/Sound_Escapes/Mason/footage/Stars in Space - Copyright Free Reusable Stock Video HD-5yXWVS_bE_g.mp4</property>
  <property name="aspect_ratio">1</property>
  <property name="meta.media.nb_streams">2</property>
  <property name="meta.media.0.stream.type">video</property>
  <property name="meta.media.0.stream.frame_rate">30</property>
  <property name="meta.media.0.stream.sample_aspect_ratio">1</property>
  <property name="meta.media.0.codec.width">1920</property>
  <property name="meta.media.0.codec.height">1080</property>
  <property name="meta.media.0.codec.rotate">0</property>
  <property name="meta.media.0.codec.frame_rate">30</property>
  <property name="meta.media.0.codec.pix_fmt">yuv420p</property>
  <property name="meta.media.0.codec.sample_aspect_ratio">1</property>
  <property name="meta.media.0.codec.colorspace">709</property>
  <property name="meta.media.0.codec.color_trc">1</property>
  <property name="meta.media.0.codec.name">h264</property>
  <property name="meta.media.0.codec.long_name">H.264 / AVC / MPEG-4 AVC / MPEG-4 part 10</property>
  <property name="meta.media.0.codec.bit_rate">4761285</property>
  <property name="meta.attr.0.stream.handler_name.markup">ISO Media file produced by Google Inc.</property>
  <property name="meta.media.1.stream.type">audio</property>
  <property name="meta.media.1.codec.sample_fmt">fltp</property>
  <property name="meta.media.1.codec.sample_rate">44100</property>
  <property name="meta.media.1.codec.channels">2</property>
  <property name="meta.media.1.codec.name">aac</property>
  <property name="meta.media.1.codec.long_name">AAC (Advanced Audio Coding)</property>
  <property name="meta.media.1.codec.bit_rate">127999</property>
  <property name="meta.attr.1.stream.handler_name.markup">ISO Media file produced by Google Inc.</property>
  <property name="meta.attr.major_brand.markup">isom</property>
  <property name="meta.attr.minor_version.markup">512</property>
  <property name="meta.attr.compatible_brands.markup">isomiso2avc1mp41</property>
  <property name="meta.attr.encoder.markup">Lavf58.45.100</property>
  <property name="seekable">1</property>
  <property name="meta.media.sample_aspect_num">1</property>
  <property name="meta.media.sample_aspect_den">1</property>
  <property name="audio_index">1</property>
  <property name="video_index">0</property>
  <property name="mute_on_pause">1</property>
  <property name="warp_speed">2.5</property>
  <property name="warp_resource">/home/ryankelln/Documents/Projects/Active/Sound_Escapes/Mason/footage/Stars in Space - Copyright Free Reusable Stock Video HD-5yXWVS_bE_g.mp4</property>
  <property name="mlt_service">timewarp</property>
  <property name="meta.attr.0.stream.vendor_id.markup">[0][0][0][0]</property>
  <property name="meta.attr.1.stream.vendor_id.markup">[0][0][0][0]</property>
  <property name="set.test_audio">1</property>
  <property name="set.test_image">0</property>
  <property name="kdenlive:id">15</property>
  <property name="warp_pitch">0</property>
  <property name="meta.media.frame_rate_num">30</property>
  <property name="meta.media.frame_rate_den">1</property>
  <property name="meta.media.colorspace">709</property>
  <property name="meta.media.color_trc">1</property>
  <property name="meta.media.width">1920</property>
  <property name="meta.media.height">1080</property>
  <property name="meta.media.color_range">mpeg</property>
  <property name="meta.media.top_field_first">0</property>
  <property name="meta.media.progressive">1</property>
 </producer>
 <producer id="producer97" in="00:00:00.000" out="00:00:09.967">
  <property name="length">300</property>
  <property name="eof">pause</property>
  <property name="resource">3.000000:/home/ryankelln/Documents/Projects/Active/Sound_Escapes/Mason/footage/Stars in Space - Copyright Free Reusable Stock Video HD-5yXWVS_bE_g.mp4</property>
  <property name="aspect_ratio">1</property>
  <property name="meta.media.nb_streams">2</property>
  <property name="meta.media.0.stream.type">video</property>
  <property name="meta.media.0.stream.frame_rate">30</property>
  <property name="meta.media.0.stream.sample_aspect_ratio">1</property>
  <property name="meta.media.0.codec.width">1920</property>
  <property name="meta.media.0.codec.height">1080</property>
  <property name="meta.media.0.codec.rotate">0</property>
  <property name="meta.media.0.codec.frame_rate">30</property>
  <property name="meta.media.0.codec.pix_fmt">yuv420p</property>
  <property name="meta.media.0.codec.sample_aspect_ratio">1</property>
  <property name="meta.media.0.codec.colorspace">709</property>
  <property name="meta.media.0.codec.color_trc">1</property>
  <property name="meta.media.0.codec.name">h264</property>
  <property name="meta.media.0.codec.long_name">H.264 / AVC / MPEG-4 AVC / MPEG-4 part 10</property>
  <property name="meta.media.0.codec.bit_rate">4761285</property>
  <property name="meta.attr.0.stream.handler_name.markup">ISO Media file produced by Google Inc.</property>
  <property name="meta.media.1.stream.type">audio</property>
  <property name="meta.media.1.codec.sample_fmt">fltp</property>
  <property name="meta.media.1.codec.sample_rate">44100</property>
  <property name="meta.media.1.codec.channels">2</property>
  <property name="meta.media.1.codec.name">aac</property>
  <property name="meta.media.1.codec.long_name">AAC (Advanced Audio Coding)</property>
  <property name="meta.media.1.codec.bit_rate">127999</property>
  <property name="meta.attr.1.stream.handler_name.markup">ISO Media file produced by Google Inc.</property>
  <property name="meta.attr.major_brand.markup">isom</property>
  <property name="meta.attr.minor_version.markup">512</property>
  <property name="meta.attr.compatible_brands.markup">isomiso2avc1mp41</property>
  <property name="meta.attr.encoder.markup">Lavf58.45.100</property>
  <property name="seekable">1</property>
  <property name="meta.media.sample_aspect_num">1</property>
  <property name="meta.media.sample_aspect_den">1</property>
  <property name="audio_index">1</property>
  <property name="video_index">0</property>
  <property name="mute_on_pause">1</property>
  <property name="warp_speed">3</property>
  <property name="warp_resource">/home/ryankelln/Documents/Projects/Active/Sound_Escapes/Mason/footage/Stars in Space - Copyright Free Reusable Stock Video HD-5yXWVS_bE_g.mp4</property>
  <property name="mlt_service">timewarp</property>
  <property name="meta.attr.0.stream.vendor_id.markup">[0][0][0][0]</property>
  <property name="meta.attr.1.stream.vendor_id.markup">[0][0][0][0]</property>
  <property name="set.test_audio">1</property>
  <property name="set.test_image">0</property>
  <property name="kdenlive:id">15</property>
  <property name="warp_pitch">0</property>
  <property name="meta.media.frame_rate_num">30</property>
  <property name="meta.media.frame_rate_den">1</property>
  <property name="meta.media.colorspace">709</property>
  <property name="meta.media.color_trc">1</property>
  <property name="meta.media.width">1920</property>
  <property name="meta.media.height">1080</property>
  <property name="meta.media.color_range">mpeg</property>
  <property name="meta.media.top_field_first">0</property>
  <property name="meta.media.progressive">1</property>
 </producer>
 <producer id="producer98" in="00:00:00.000" out="00:00:08.533">
  <property name="length">257</property>
  <property name="eof">pause</property>
  <property name="resource">3.500000:/home/ryankelln/Documents/Projects/Active/Sound_Escapes/Mason/footage/Stars in Space - Copyright Free Reusable Stock Video HD-5yXWVS_bE_g.mp4</property>
  <property name="aspect_ratio">1</property>
  <property name="meta.media.nb_streams">2</property>
  <property name="meta.media.0.stream.type">video</property>
  <property name="meta.media.0.stream.frame_rate">30</property>
  <property name="meta.media.0.stream.sample_aspect_ratio">1</property>
  <property name="meta.media.0.codec.width">1920</property>
  <property name="meta.media.0.codec.height">1080</property>
  <property name="meta.media.0.codec.rotate">0</property>
  <property name="meta.media.0.codec.frame_rate">30</property>
  <property name="meta.media.0.codec.pix_fmt">yuv420p</property>
  <property name="meta.media.0.codec.sample_aspect_ratio">1</property>
  <property name="meta.media.0.codec.colorspace">709</property>
  <property name="meta.media.0.codec.color_trc">1</property>
  <property name="meta.media.0.codec.name">h264</property>
  <property name="meta.media.0.codec.long_name">H.264 / AVC / MPEG-4 AVC / MPEG-4 part 10</property>
  <property name="meta.media.0.codec.bit_rate">4761285</property>
  <property name="meta.attr.0.stream.handler_name.markup">ISO Media file produced by Google Inc.</property>
  <property name="meta.media.1.stream.type">audio</property>
  <property name="meta.media.1.codec.sample_fmt">fltp</property>
  <property name="meta.media.1.codec.sample_rate">44100</property>
  <property name="meta.media.1.codec.channels">2</property>
  <property name="meta.media.1.codec.name">aac</property>
  <property name="meta.media.1.codec.long_name">AAC (Advanced Audio Coding)</property>
  <property name="meta.media.1.codec.bit_rate">127999</property>
  <property name="meta.attr.1.stream.handler_name.markup">ISO Media file produced by Google Inc.</property>
  <property name="meta.attr.major_brand.markup">isom</property>
  <property name="meta.attr.minor_version.markup">512</property>
  <property name="meta.attr.compatible_brands.markup">isomiso2avc1mp41</property>
  <property name="meta.attr.encoder.markup">Lavf58.45.100</property>
  <property name="seekable">1</property>
  <property name="meta.media.sample_aspect_num">1</property>
  <property name="meta.media.sample_aspect_den">1</property>
  <property name="audio_index">1</property>
  <property name="video_index">0</property>
  <property name="mute_on_pause">1</property>
  <property name="warp_speed">3.5</property>
  <property name="warp_resource">/home/ryankelln/Documents/Projects/Active/Sound_Escapes/Mason/footage/Stars in Space - Copyright Free Reusable Stock Video HD-5yXWVS_bE_g.mp4</property>
  <property name="mlt_service">timewarp</property>
  <property name="meta.attr.0.stream.vendor_id.markup">[0][0][0][0]</property>
  <property name="meta.attr.1.stream.vendor_id.markup">[0][0][0][0]</property>
  <property name="set.test_audio">1</property>
  <property name="set.test_image">0</property>
  <property name="kdenlive:id">15</property>
  <property name="warp_pitch">0</property>
  <property name="meta.media.frame_rate_num">30</property>
  <property name="meta.media.frame_rate_den">1</property>
  <property name="meta.media.colorspace">709</property>
  <property name="meta.media.color_trc">1</property>
  <property name="meta.media.width">1920</property>
  <property name="meta.media.height">1080</property>
  <property name="meta.media.color_range">mpeg</property>
  <property name="meta.media.top_field_first">0</property>
  <property name="meta.media.progressive">1</property>
 </producer>
 <playlist id="playlist8">
  <blank length="00:10:59.933"/>
  <entry producer="producer87" in="00:00:00.000" out="00:00:26.267">
   <property name="kdenlive:id">2</property>
   <filter id="filter72">
    <property name="version">0.1</property>
    <property name="mlt_service">frei0r.alphaspot</property>
    <property name="kdenlive_id">frei0r.alphaspot</property>
    <property name="Shape">0.38</property>
    <property name="Position X">00:00:00.000=0.486</property>
    <property name="Position Y">00:00:00.000=0.5</property>
    <property name="Size X">00:00:00.000=0.479</property>
    <property name="Size Y">00:00:00.000=0.48</property>
    <property name="Tilt">00:00:00.000=0.5</property>
    <property name="Transition width">00:00:00.000=0.15</property>
    <property name="Min">00:00:00.000=0</property>
    <property name="Max">00:00:00.000=1</property>
    <property name="Operation">0</property>
    <property name="kdenlive:collapsed">0</property>
   </filter>
   <filter id="filter73">
    <property name="rotate_center">1</property>
    <property name="mlt_service">qtblend</property>
    <property name="kdenlive_id">qtblend</property>
    <property name="rect">00:00:00.000=621 -71 1410 998 0.600000;00:00:10.367~=686 -120 1410 998 0.600000;00:00:12.100=706 -131 1410 998 0.600000;00:00:13.167=723 -139 1410 998 0.600000;00:00:13.467=727 -141 1410 998 0.700000;00:00:15.933=766 -161 1410 998 0.680729;00:00:16.233=770 -163 1410 998 0.900000;00:00:26.267~=932 -247 1410 998 1.000000</property>
    <property name="rotation">00:00:00.000=0;00:00:10.367~=0;00:00:12.100=0;00:00:13.167=0;00:00:13.467=0;00:00:15.933=0;00:00:16.233=0;00:00:26.267~=0</property>
    <property name="compositing">0</property>
    <property name="distort">0</property>
    <property name="kdenlive:collapsed">0</property>
   </filter>
   <filter id="filter74" in="00:00:24.767" out="00:00:26.267">
    <property name="start">1</property>
    <property name="mlt_service">brightness</property>
    <property name="kdenlive_id">fade_to_black</property>
    <property name="end">0</property>
    <property name="alpha">-1</property>
    <property name="kdenlive:collapsed">0</property>
   </filter>
  </entry>
  <blank length="00:00:15.733"/>
  <entry producer="producer88" in="00:00:00.000" out="00:00:14.833">
   <property name="kdenlive:id">26</property>
   <filter id="filter75">
    <property name="version">0.1</property>
    <property name="mlt_service">frei0r.alphaspot</property>
    <property name="kdenlive_id">frei0r.alphaspot</property>
    <property name="Shape">0.38</property>
    <property name="Position X">00:00:00.000=0.5</property>
    <property name="Position Y">00:00:00.000=0.5</property>
    <property name="Size X">00:00:00.000=0.305</property>
    <property name="Size Y">00:00:00.000=0.49</property>
    <property name="Tilt">00:00:00.000=0</property>
    <property name="Transition width">00:00:00.000=0.479</property>
    <property name="Min">00:00:00.000=0</property>
    <property name="Max">00:00:00.000=1</property>
    <property name="Operation">0</property>
    <property name="kdenlive:collapsed">0</property>
   </filter>
  </entry>
  <entry producer="producer89" in="00:00:25.233" out="00:00:40.033">
   <property name="kdenlive:id">21</property>
  </entry>
  <blank length="00:00:00.033"/>
  <entry producer="producer90" in="00:00:00.000" out="00:00:12.900">
   <property name="kdenlive:id">15</property>
   <filter id="filter76">
    <property name="lift_r">-0.562509</property>
    <property name="lift_g">-0.526009</property>
    <property name="lift_b">-0.451331</property>
    <property name="gamma_r">1.21251</property>
    <property name="gamma_g">0.873884</property>
    <property name="gamma_b">0.720684</property>
    <property name="gain_r">1.04964</property>
    <property name="gain_g">1.30001</property>
    <property name="gain_b">0.735912</property>
    <property name="mlt_service">lift_gamma_gain</property>
    <property name="kdenlive_id">lift_gamma_gain</property>
    <property name="kdenlive:collapsed">0</property>
   </filter>
  </entry>
  <entry producer="producer91" in="00:01:24.200" out="00:02:31.000">
   <property name="kdenlive:id">25</property>
   <filter id="filter77" in="00:01:24.200" out="00:01:25.967">
    <property name="start">0</property>
    <property name="mlt_service">brightness</property>
    <property name="kdenlive_id">fade_from_black</property>
    <property name="end">1</property>
    <property name="alpha">-1</property>
    <property name="kdenlive:collapsed">0</property>
   </filter>
  </entry>
  <entry producer="producer92" in="00:00:15.000" out="00:00:41.300">
   <property name="kdenlive:id">30</property>
   <filter id="filter78" in="00:00:41.067" out="00:00:41.300">
    <property name="start">1</property>
    <property name="mlt_service">brightness</property>
    <property name="kdenlive_id">fade_to_black</property>
    <property name="end">0</property>
    <property name="alpha">-1</property>
    <property name="kdenlive:collapsed">0</property>
   </filter>
  </entry>
  <entry producer="producer93" in="00:00:39.800" out="00:00:50.533">
   <property name="kdenlive:id">33</property>
   <filter id="filter79">
    <property name="rotate_center">1</property>
    <property name="mlt_service">qtblend</property>
    <property name="kdenlive_id">qtblend</property>
    <property name="rect">00:00:39.800=-788 -976 3840 2160 1.000000</property>
    <property name="rotation">00:00:39.800=0</property>
    <property name="compositing">0</property>
    <property name="distort">0</property>
    <property name="kdenlive:collapsed">0</property>
   </filter>
   <filter id="filter80">
    <property name="version">0.6</property>
    <property name="mlt_service">frei0r.select0r</property>
    <property name="kdenlive_id">frei0r.select0r</property>
    <property name="Color to select">0x446c3fff</property>
    <property name="Invert selection">1</property>
    <property name="Selection subspace">1</property>
    <property name="Subspace shape">0.5</property>
    <property name="Edge mode">0.35</property>
    <property name="Delta R / A / Hue">00:00:39.800=0.071</property>
    <property name="Delta G / B / Chroma">00:00:39.800=0.49</property>
    <property name="Delta B / I / I">00:00:39.800=0.292</property>
    <property name="Slope">00:00:39.800=0.01</property>
    <property name="Operation">0.5</property>
    <property name="kdenlive:collapsed">0</property>
   </filter>
  </entry>
  <entry producer="producer94" in="00:00:00.000" out="00:00:21.600">
   <property name="kdenlive:id">32</property>
   <property name="kdenlive:activeeffect">1</property>
   <filter id="filter81">
    <property name="mlt_service">avfilter.hflip</property>
    <property name="kdenlive_id">avfilter.hflip</property>
    <property name="kdenlive:collapsed">0</property>
   </filter>
   <filter id="filter82">
    <property name="rotate_center">1</property>
    <property name="mlt_service">qtblend</property>
    <property name="kdenlive_id">qtblend</property>
    <property name="rect">00:00:00.000=0 0 1920 1440 1.000000</property>
    <property name="rotation">00:00:00.000=0</property>
    <property name="compositing">0</property>
    <property name="distort">0</property>
    <property name="kdenlive:collapsed">0</property>
   </filter>
   <filter id="filter83" out="00:00:00.067">
    <property name="start">0</property>
    <property name="mlt_service">brightness</property>
    <property name="kdenlive_id">fade_from_black</property>
    <property name="end">1</property>
    <property name="alpha">-1</property>
    <property name="kdenlive:collapsed">0</property>
   </filter>
   <filter id="filter84" in="00:00:16.867" out="00:00:21.600">
    <property name="start">1</property>
    <property name="mlt_service">brightness</property>
    <property name="kdenlive_id">fade_to_black</property>
    <property name="end">0</property>
    <property name="alpha">-1</property>
    <property name="kdenlive:collapsed">0</property>
   </filter>
  </entry>
  <entry producer="producer95" in="00:00:00.000" out="00:00:29.267">
   <property name="kdenlive:id">29</property>
  </entry>
  <blank length="00:00:38.800"/>
  <entry producer="producer96" in="00:00:00.000" out="00:00:11.967">
   <property name="kdenlive:id">15</property>
   <filter id="filter85" out="00:00:00.967">
    <property name="start">0</property>
    <property name="mlt_service">brightness</property>
    <property name="kdenlive_id">fade_from_black</property>
    <property name="end">1</property>
    <property name="alpha">-1</property>
    <property name="kdenlive:collapsed">0</property>
   </filter>
  </entry>
  <entry producer="producer97" in="00:00:00.000" out="00:00:09.967">
   <property name="kdenlive:id">15</property>
  </entry>
  <entry producer="producer98" in="00:00:00.000" out="00:00:07.767">
   <property name="kdenlive:id">15</property>
   <filter id="filter86" in="00:00:07.000" out="00:00:07.767">
    <property name="start">1</property>
    <property name="mlt_service">brightness</property>
    <property name="kdenlive_id">fade_to_black</property>
    <property name="end">0</property>
    <property name="alpha">-1</property>
    <property name="kdenlive:collapsed">0</property>
   </filter>
  </entry>
 </playlist>
 <playlist id="playlist9"/>
 <tractor id="tractor4" in="00:00:00.000" out="00:16:08.067">
  <property name="kdenlive:trackheight">69</property>
  <property name="kdenlive:timeline_active">1</property>
  <property name="kdenlive:collapsed">28</property>
  <property name="kdenlive:thumbs_format"/>
  <property name="kdenlive:audio_rec"/>
  <track hide="audio" producer="playlist8"/>
  <track producer="playlist9"/>
 </tractor>
 <producer id="producer99" in="00:00:00.000" out="00:01:00.067">
  <property name="length">1804</property>
  <property name="eof">pause</property>
  <property name="resource">0.25:/home/ryankelln/Documents/Projects/Active/Sound_Escapes/Mason/storyboard/the_night_is_young_124000_d3f121a8.mp4</property>
  <property name="aspect_ratio">1</property>
  <property name="meta.media.nb_streams">2</property>
  <property name="meta.media.0.stream.type">video</property>
  <property name="meta.media.0.stream.frame_rate">30</property>
  <property name="meta.media.0.stream.sample_aspect_ratio">0</property>
  <property name="meta.media.0.codec.width">512</property>
  <property name="meta.media.0.codec.height">512</property>
  <property name="meta.media.0.codec.rotate">0</property>
  <property name="meta.media.0.codec.frame_rate">30</property>
  <property name="meta.media.0.codec.pix_fmt">yuv420p</property>
  <property name="meta.media.0.codec.sample_aspect_ratio">0</property>
  <property name="meta.media.0.codec.colorspace">601</property>
  <property name="meta.media.0.codec.name">h264</property>
  <property name="meta.media.0.codec.long_name">H.264 / AVC / MPEG-4 AVC / MPEG-4 part 10</property>
  <property name="meta.media.0.codec.bit_rate">533671</property>
  <property name="meta.attr.0.stream.handler_name.markup">VideoHandler</property>
  <property name="meta.media.1.stream.type">audio</property>
  <property name="meta.media.1.codec.sample_fmt">fltp</property>
  <property name="meta.media.1.codec.sample_rate">48000</property>
  <property name="meta.media.1.codec.channels">2</property>
  <property name="meta.media.1.codec.name">aac</property>
  <property name="meta.media.1.codec.long_name">AAC (Advanced Audio Coding)</property>
  <property name="meta.media.1.codec.bit_rate">288022</property>
  <property name="meta.attr.1.stream.handler_name.markup">SoundHandler</property>
  <property name="meta.attr.major_brand.markup">isom</property>
  <property name="meta.attr.minor_version.markup">512</property>
  <property name="meta.attr.compatible_brands.markup">isomiso2avc1mp41</property>
  <property name="meta.attr.encoder.markup">Lavf58.29.100</property>
  <property name="seekable">1</property>
  <property name="meta.media.sample_aspect_num">1</property>
  <property name="meta.media.sample_aspect_den">1</property>
  <property name="audio_index">1</property>
  <property name="video_index">0</property>
  <property name="mute_on_pause">1</property>
  <property name="warp_speed">0.25</property>
  <property name="warp_resource">/home/ryankelln/Documents/Projects/Active/Sound_Escapes/Mason/storyboard/the_night_is_young_124000_d3f121a8.mp4</property>
  <property name="mlt_service">timewarp</property>
  <property name="meta.attr.0.stream.vendor_id.markup">[0][0][0][0]</property>
  <property name="meta.attr.1.stream.vendor_id.markup">[0][0][0][0]</property>
  <property name="set.test_audio">1</property>
  <property name="set.test_image">0</property>
  <property name="kdenlive:id">2</property>
  <property name="warp_pitch">0</property>
  <property name="meta.media.frame_rate_num">30</property>
  <property name="meta.media.frame_rate_den">1</property>
  <property name="meta.media.colorspace">601</property>
  <property name="meta.media.color_trc">2</property>
  <property name="meta.media.width">512</property>
  <property name="meta.media.height">512</property>
  <property name="meta.media.color_range">mpeg</property>
  <property name="meta.media.top_field_first">0</property>
  <property name="meta.media.progressive">1</property>
 </producer>
 <producer id="producer100" in="00:00:00.000" out="00:01:30.000">
  <property name="length">2701</property>
  <property name="eof">pause</property>
  <property name="resource">/home/ryankelln/Documents/Projects/Active/Sound_Escapes/Mason/storyboard/the_night_is_young_124000_d3f121a8.mp4</property>
  <property name="audio_index">1</property>
  <property name="video_index">0</property>
  <property name="mute_on_pause">0</property>
  <property name="mlt_service">avformat-novalidate</property>
  <property name="seekable">1</property>
  <property name="aspect_ratio">1</property>
  <property name="kdenlive:clipname"/>
  <property name="kdenlive:folderid">-1</property>
  <property name="kdenlive:id">29</property>
  <property name="kdenlive:file_size">12114559</property>
  <property name="kdenlive:file_hash">7b98c69b7c05695fa8f37ff12780e61e</property>
  <property name="kdenlive:audio_max">1</property>
  <property name="kdenlive:zone_in">1052</property>
  <property name="kdenlive:zone_out">1426</property>
  <property name="kdenlive:clipzones">[
    {
        "in": 1052,
        "name": "Zone 1",
        "out": 1426
    }
]
</property>
  <property name="global_feed">1</property>
  <property name="kdenlive:active_streams">-1</property>
  <property name="xml">was here</property>
  <property name="meta.media.nb_streams">2</property>
  <property name="meta.media.0.stream.type">video</property>
  <property name="meta.media.0.stream.frame_rate">30</property>
  <property name="meta.media.0.stream.sample_aspect_ratio">0</property>
  <property name="meta.media.0.codec.width">512</property>
  <property name="meta.media.0.codec.height">512</property>
  <property name="meta.media.0.codec.rotate">0</property>
  <property name="meta.media.0.codec.frame_rate">30</property>
  <property name="meta.media.0.codec.pix_fmt">yuv420p</property>
  <property name="meta.media.0.codec.sample_aspect_ratio">0</property>
  <property name="meta.media.0.codec.colorspace">601</property>
  <property name="meta.media.0.codec.name">h264</property>
  <property name="meta.media.0.codec.long_name">H.264 / AVC / MPEG-4 AVC / MPEG-4 part 10</property>
  <property name="meta.media.0.codec.bit_rate">752930</property>
  <property name="meta.attr.0.stream.handler_name.markup">VideoHandler</property>
  <property name="meta.attr.0.stream.vendor_id.markup">[0][0][0][0]</property>
  <property name="meta.media.1.stream.type">audio</property>
  <property name="meta.media.1.codec.sample_fmt">fltp</property>
  <property name="meta.media.1.codec.sample_rate">48000</property>
  <property name="meta.media.1.codec.channels">2</property>
  <property name="meta.media.1.codec.name">aac</property>
  <property name="meta.media.1.codec.long_name">AAC (Advanced Audio Coding)</property>
  <property name="meta.media.1.codec.bit_rate">315283</property>
  <property name="meta.attr.1.stream.handler_name.markup">SoundHandler</property>
  <property name="meta.attr.1.stream.vendor_id.markup">[0][0][0][0]</property>
  <property name="meta.attr.major_brand.markup">isom</property>
  <property name="meta.attr.minor_version.markup">512</property>
  <property name="meta.attr.compatible_brands.markup">isomiso2avc1mp41</property>
  <property name="meta.attr.encoder.markup">Lavf58.29.100</property>
  <property name="meta.media.sample_aspect_num">1</property>
  <property name="meta.media.sample_aspect_den">1</property>
  <property name="meta.media.frame_rate_num">30</property>
  <property name="meta.media.frame_rate_den">1</property>
  <property name="meta.media.colorspace">601</property>
  <property name="meta.media.color_trc">2</property>
  <property name="meta.media.width">512</property>
  <property name="meta.media.height">512</property>
  <property name="meta.media.color_range">mpeg</property>
  <property name="meta.media.top_field_first">0</property>
  <property name="meta.media.progressive">1</property>
  <property name="set.test_audio">1</property>
  <property name="set.test_image">0</property>
 </producer>
 <producer id="producer101" in="00:00:00.000" out="00:02:01.967">
  <property name="length">3660</property>
  <property name="eof">pause</property>
  <property name="resource">/media/storage/media/Videos/mine/music_landscapes/2021-05-21/rehearsal1_Caleb_upright+closeup+hands_1.MP4</property>
  <property name="audio_index">1</property>
  <property name="video_index">0</property>
  <property name="mute_on_pause">0</property>
  <property name="mlt_service">avformat-novalidate</property>
  <property name="seekable">1</property>
  <property name="aspect_ratio">1</property>
  <property name="kdenlive:clipname"/>
  <property name="kdenlive:folderid">-1</property>
  <property name="kdenlive:id">30</property>
  <property name="kdenlive:file_size">609050456</property>
  <property name="kdenlive:file_hash">84019eead71182496219a325f9129e2b</property>
  <property name="kdenlive:audio_max">91</property>
  <property name="kdenlive:active_streams">-1</property>
  <property name="kdenlive:zone_in">450</property>
  <property name="kdenlive:zone_out">3472</property>
  <property name="kdenlive:clipzones">[
    {
        "in": 450,
        "name": "Zone 1",
        "out": 3472
    }
]
</property>
  <property name="kdenlive:thumbnailFrame">654</property>
  <property name="global_feed">1</property>
  <property name="xml">was here</property>
  <property name="meta.media.nb_streams">3</property>
  <property name="meta.media.0.stream.type">video</property>
  <property name="meta.media.0.stream.frame_rate">24</property>
  <property name="meta.media.0.stream.sample_aspect_ratio">0</property>
  <property name="meta.media.0.codec.width">1920</property>
  <property name="meta.media.0.codec.height">1080</property>
  <property name="meta.media.0.codec.rotate">0</property>
  <property name="meta.media.0.codec.frame_rate">24</property>
  <property name="meta.media.0.codec.pix_fmt">yuv420p</property>
  <property name="meta.media.0.codec.sample_aspect_ratio">1</property>
  <property name="meta.media.0.codec.colorspace">709</property>
  <property name="meta.media.0.codec.color_trc">1</property>
  <property name="meta.media.0.codec.name">h264</property>
  <property name="meta.media.0.codec.long_name">H.264 / AVC / MPEG-4 AVC / MPEG-4 part 10</property>
  <property name="meta.media.0.codec.bit_rate">38383776</property>
  <property name="meta.attr.0.stream.creation_time.markup">2021-05-21T15:37:21.000000Z</property>
  <property name="meta.attr.0.stream.vendor_id.markup">[0][0][0][0]</property>
  <property name="meta.attr.0.stream.timecode.markup">10:02:24:03</property>
  <property name="meta.media.1.stream.type">audio</property>
  <property name="meta.media.1.codec.sample_fmt">s16</property>
  <property name="meta.media.1.codec.sample_rate">48000</property>
  <property name="meta.media.1.codec.channels">2</property>
  <property name="meta.media.1.codec.name">pcm_s16be</property>
  <property name="meta.media.1.codec.long_name">PCM signed 16-bit big-endian</property>
  <property name="meta.media.1.codec.bit_rate">1536000</property>
  <property name="meta.attr.1.stream.creation_time.markup">2021-05-21T15:37:21.000000Z</property>
  <property name="meta.attr.1.stream.vendor_id.markup">pana</property>
  <property name="meta.attr.1.stream.timecode.markup">10:02:24:03</property>
  <property name="meta.attr.major_brand.markup">mp42</property>
  <property name="meta.attr.minor_version.markup">1</property>
  <property name="meta.attr.compatible_brands.markup">mp42avc1</property>
  <property name="meta.attr.creation_time.markup">2021-05-21T15:37:21.000000Z</property>
  <property name="meta.media.sample_aspect_num">1</property>
  <property name="meta.media.sample_aspect_den">1</property>
  <property name="meta.media.frame_rate_num">24</property>
  <property name="meta.media.frame_rate_den">1</property>
  <property name="meta.media.colorspace">709</property>
  <property name="meta.media.color_trc">1</property>
  <property name="meta.media.width">1920</property>
  <property name="meta.media.height">1080</property>
  <property name="meta.media.color_range">mpeg</property>
  <property name="meta.media.top_field_first">0</property>
  <property name="meta.media.progressive">1</property>
  <property name="set.test_audio">1</property>
  <property name="set.test_image">0</property>
 </producer>
 <producer id="producer102" in="00:00:00.000" out="00:05:55.833">
  <property name="length">10676</property>
  <property name="eof">pause</property>
  <property name="resource">/home/ryankelln/.cache/kdenlive/proxy/e04a53890a9bbd6f1a6a8a79116ca1de.mkv</property>
  <property name="audio_index">1</property>
  <property name="video_index">0</property>
  <property name="mute_on_pause">0</property>
  <property name="mlt_service">avformat-novalidate</property>
  <property name="seekable">1</property>
  <property name="aspect_ratio">1</property>
  <property name="kdenlive:clipname">rehearsal2_Chris_piano+gs+4k_1_mason.MP4</property>
  <property name="kdenlive:folderid">60</property>
  <property name="kdenlive:id">33</property>
  <property name="kdenlive:file_size">4266835142</property>
  <property name="kdenlive:file_hash">e04a53890a9bbd6f1a6a8a79116ca1de</property>
  <property name="kdenlive:audio_max">1</property>
  <property name="kdenlive:zone_in">1194</property>
  <property name="kdenlive:zone_out">1823</property>
  <property name="kdenlive:clipzones">[
    {
        "in": 1194,
        "name": "Zone 1",
        "out": 1823
    }
]
</property>
  <property name="kdenlive:active_streams">-1</property>
  <property name="global_feed">1</property>
  <property name="kdenlive:proxy">/home/ryankelln/.cache/kdenlive/proxy/e04a53890a9bbd6f1a6a8a79116ca1de.mkv</property>
  <property name="kdenlive:originalurl">/media/storage/media/Videos/mine/music_landscapes/2021-05-30/rehearsal2_Chris_piano+gs+4k_1_mason.MP4</property>
  <property name="kdenlive:original.mlt_type">producer</property>
  <property name="kdenlive:original.in">00:00:00.000</property>
  <property name="kdenlive:original.out">00:05:55.833</property>
  <property name="kdenlive:original.length">10676</property>
  <property name="kdenlive:original.eof">pause</property>
  <property name="kdenlive:original.resource">/media/storage/media/Videos/mine/music_landscapes/2021-05-30/rehearsal2_Chris_piano+gs+4k_1_mason.MP4</property>
  <property name="kdenlive:original.audio_index">1</property>
  <property name="kdenlive:original.video_index">0</property>
  <property name="kdenlive:original.mute_on_pause">0</property>
  <property name="kdenlive:original.mlt_service">avformat-novalidate</property>
  <property name="kdenlive:original.id">producer31</property>
  <property name="kdenlive:original.meta.media.nb_streams">2</property>
  <property name="kdenlive:original.meta.media.0.stream.type">video</property>
  <property name="kdenlive:original.meta.media.0.stream.frame_rate">29.97</property>
  <property name="kdenlive:original.meta.media.0.stream.sample_aspect_ratio">0</property>
  <property name="kdenlive:original.meta.media.0.codec.width">3840</property>
  <property name="kdenlive:original.meta.media.0.codec.height">2160</property>
  <property name="kdenlive:original.meta.media.0.codec.rotate">0</property>
  <property name="kdenlive:original.meta.media.0.codec.frame_rate">29.97</property>
  <property name="kdenlive:original.meta.media.0.codec.pix_fmt">yuvj420p</property>
  <property name="kdenlive:original.meta.media.0.codec.sample_aspect_ratio">1</property>
  <property name="kdenlive:original.meta.media.0.codec.colorspace">709</property>
  <property name="kdenlive:original.meta.media.0.codec.color_trc">1</property>
  <property name="kdenlive:original.meta.media.0.codec.name">h264</property>
  <property name="kdenlive:original.meta.media.0.codec.long_name">H.264 / AVC / MPEG-4 AVC / MPEG-4 part 10</property>
  <property name="kdenlive:original.meta.media.0.codec.bit_rate">95788669</property>
  <property name="kdenlive:original.meta.attr.0.stream.creation_time.markup">2021-05-30T16:41:39.000000Z</property>
  <property name="kdenlive:original.meta.attr.0.stream.vendor_id.markup">[0][0][0][0]</property>
  <property name="kdenlive:original.meta.media.1.stream.type">audio</property>
  <property name="kdenlive:original.meta.media.1.codec.sample_fmt">fltp</property>
  <property name="kdenlive:original.meta.media.1.codec.sample_rate">48000</property>
  <property name="kdenlive:original.meta.media.1.codec.channels">2</property>
  <property name="kdenlive:original.meta.media.1.codec.name">aac</property>
  <property name="kdenlive:original.meta.media.1.codec.long_name">AAC (Advanced Audio Coding)</property>
  <property name="kdenlive:original.meta.media.1.codec.bit_rate">125358</property>
  <property name="kdenlive:original.meta.attr.1.stream.creation_time.markup">2021-05-30T16:41:39.000000Z</property>
  <property name="kdenlive:original.meta.attr.1.stream.vendor_id.markup">[0][0][0][0]</property>
  <property name="kdenlive:original.meta.attr.major_brand.markup">mp42</property>
  <property name="kdenlive:original.meta.attr.minor_version.markup">1</property>
  <property name="kdenlive:original.meta.attr.compatible_brands.markup">mp42avc1</property>
  <property name="kdenlive:original.meta.attr.creation_time.markup">2021-05-30T16:41:39.000000Z</property>
  <property name="kdenlive:original.seekable">1</property>
  <property name="kdenlive:original.meta.media.sample_aspect_num">1</property>
  <property name="kdenlive:original.meta.media.sample_aspect_den">1</property>
  <property name="kdenlive:original.aspect_ratio">1</property>
  <property name="kdenlive:original.kdenlive:folderid">60</property>
  <property name="kdenlive:original.meta.media.frame_rate_num">30000</property>
  <property name="kdenlive:original.meta.media.frame_rate_den">1001</property>
  <property name="kdenlive:original.meta.media.colorspace">709</property>
  <property name="kdenlive:original.meta.media.color_trc">1</property>
  <property name="kdenlive:original.meta.media.width">3840</property>
  <property name="kdenlive:original.meta.media.height">2160</property>
  <property name="kdenlive:original.meta.media.color_range">full</property>
  <property name="kdenlive:original.kdenlive:id">35</property>
  <property name="kdenlive:original.kdenlive:file_size">4266835142</property>
  <property name="kdenlive:original.kdenlive:file_hash">e04a53890a9bbd6f1a6a8a79116ca1de</property>
  <property name="kdenlive:original.meta.media.top_field_first">0</property>
  <property name="kdenlive:original.meta.media.progressive">1</property>
  <property name="kdenlive:original.kdenlive:audio_max">1</property>
  <property name="kdenlive:original.kdenlive:zone_in">1194</property>
  <property name="kdenlive:original.kdenlive:zone_out">1823</property>
  <property name="kdenlive:original.kdenlive:clipzones">[
    {
        "in": 1194,
        "name": "Zone 1",
        "out": 1823
    }
]
</property>
  <property name="kdenlive:original.kdenlive:active_streams">-1</property>
  <property name="kdenlive:original.global_feed">1</property>
  <property name="kdenlive:original.width">3840</property>
  <property name="kdenlive:original.height">2160</property>
  <property name="kdenlive:original.backup">1</property>
  <property name="xml">was here</property>
  <property name="meta.media.nb_streams">2</property>
  <property name="meta.media.0.stream.type">video</property>
  <property name="meta.media.0.stream.frame_rate">29.97</property>
  <property name="meta.media.0.stream.sample_aspect_ratio">1</property>
  <property name="meta.media.0.codec.width">640</property>
  <property name="meta.media.0.codec.height">360</property>
  <property name="meta.media.0.codec.rotate">0</property>
  <property name="meta.media.0.codec.frame_rate">1000</property>
  <property name="meta.media.0.codec.pix_fmt">yuvj420p</property>
  <property name="meta.media.0.codec.sample_aspect_ratio">1</property>
  <property name="meta.media.0.codec.colorspace">601</property>
  <property name="meta.media.0.codec.name">mjpeg</property>
  <property name="meta.media.0.codec.long_name">MJPEG (Motion JPEG)</property>
  <property name="meta.media.0.codec.bit_rate">0</property>
  <property name="meta.attr.0.stream.ENCODER.markup">Lavc58.91.100 mjpeg</property>
  <property name="meta.attr.0.stream.DURATION.markup">00:05:55.855000000</property>
  <property name="meta.media.1.stream.type">audio</property>
  <property name="meta.media.1.codec.sample_fmt">s16</property>
  <property name="meta.media.1.codec.sample_rate">48000</property>
  <property name="meta.media.1.codec.channels">2</property>
  <property name="meta.media.1.codec.name">pcm_s16le</property>
  <property name="meta.media.1.codec.long_name">PCM signed 16-bit little-endian</property>
  <property name="meta.media.1.codec.bit_rate">1536000</property>
  <property name="meta.attr.1.stream.ENCODER.markup">Lavc58.91.100 pcm_s16le</property>
  <property name="meta.attr.1.stream.DURATION.markup">00:05:55.861000000</property>
  <property name="meta.attr.COMPATIBLE_BRANDS.markup">mp42avc1</property>
  <property name="meta.attr.MAJOR_BRAND.markup">mp42</property>
  <property name="meta.attr.MINOR_VERSION.markup">1</property>
  <property name="meta.attr.ENCODER.markup">Lavf58.45.100</property>
  <property name="meta.media.sample_aspect_num">1</property>
  <property name="meta.media.sample_aspect_den">1</property>
  <property name="meta.media.frame_rate_num">30000</property>
  <property name="meta.media.frame_rate_den">1001</property>
  <property name="meta.media.colorspace">601</property>
  <property name="meta.media.color_trc">2</property>
  <property name="meta.media.width">640</property>
  <property name="meta.media.height">360</property>
  <property name="meta.media.color_range">full</property>
  <property name="set.test_audio">1</property>
  <property name="set.test_image">0</property>
 </producer>
 <producer id="producer103" in="00:00:00.000" out="00:01:26.233">
  <property name="length">2589</property>
  <property name="eof">pause</property>
  <property name="resource">1.750000:/media/storage/media/Videos/mine/music_landscapes/2021-05-21/Chris/rehearsal1_Chris_piano+closeup_1.MP4</property>
  <property name="aspect_ratio">1</property>
  <property name="meta.media.nb_streams">3</property>
  <property name="meta.media.0.stream.type">video</property>
  <property name="meta.media.0.stream.frame_rate">24</property>
  <property name="meta.media.0.stream.sample_aspect_ratio">0</property>
  <property name="meta.media.0.codec.width">1920</property>
  <property name="meta.media.0.codec.height">1080</property>
  <property name="meta.media.0.codec.rotate">0</property>
  <property name="meta.media.0.codec.frame_rate">24</property>
  <property name="meta.media.0.codec.pix_fmt">yuv420p</property>
  <property name="meta.media.0.codec.sample_aspect_ratio">1</property>
  <property name="meta.media.0.codec.colorspace">709</property>
  <property name="meta.media.0.codec.color_trc">1</property>
  <property name="meta.media.0.codec.name">h264</property>
  <property name="meta.media.0.codec.long_name">H.264 / AVC / MPEG-4 AVC / MPEG-4 part 10</property>
  <property name="meta.media.0.codec.bit_rate">38416309</property>
  <property name="meta.attr.0.stream.creation_time.markup">2021-05-21T14:18:36.000000Z</property>
  <property name="meta.attr.0.stream.timecode.markup">09:41:52:03</property>
  <property name="meta.media.1.stream.type">audio</property>
  <property name="meta.media.1.codec.sample_fmt">s16</property>
  <property name="meta.media.1.codec.sample_rate">48000</property>
  <property name="meta.media.1.codec.channels">2</property>
  <property name="meta.media.1.codec.name">pcm_s16be</property>
  <property name="meta.media.1.codec.long_name">PCM signed 16-bit big-endian</property>
  <property name="meta.media.1.codec.bit_rate">1536000</property>
  <property name="meta.attr.1.stream.creation_time.markup">2021-05-21T14:18:36.000000Z</property>
  <property name="meta.attr.1.stream.timecode.markup">09:41:52:03</property>
  <property name="meta.attr.major_brand.markup">mp42</property>
  <property name="meta.attr.minor_version.markup">1</property>
  <property name="meta.attr.compatible_brands.markup">mp42avc1</property>
  <property name="meta.attr.creation_time.markup">2021-05-21T14:18:36.000000Z</property>
  <property name="seekable">1</property>
  <property name="meta.media.sample_aspect_num">1</property>
  <property name="meta.media.sample_aspect_den">1</property>
  <property name="audio_index">1</property>
  <property name="video_index">0</property>
  <property name="mute_on_pause">1</property>
  <property name="warp_speed">1.75</property>
  <property name="warp_resource">/media/storage/media/Videos/mine/music_landscapes/2021-05-21/Chris/rehearsal1_Chris_piano+closeup_1.MP4</property>
  <property name="mlt_service">timewarp</property>
  <property name="meta.attr.0.stream.vendor_id.markup">[0][0][0][0]</property>
  <property name="meta.attr.1.stream.vendor_id.markup">pana</property>
  <property name="set.test_audio">1</property>
  <property name="set.test_image">0</property>
  <property name="kdenlive:id">31</property>
  <property name="warp_pitch">0</property>
  <property name="meta.media.frame_rate_num">24</property>
  <property name="meta.media.frame_rate_den">1</property>
  <property name="meta.media.colorspace">709</property>
  <property name="meta.media.color_trc">1</property>
  <property name="meta.media.width">1920</property>
  <property name="meta.media.height">1080</property>
  <property name="meta.media.color_range">mpeg</property>
  <property name="meta.media.top_field_first">0</property>
  <property name="meta.media.progressive">1</property>
 </producer>
 <playlist id="playlist10">
  <blank length="00:12:11.700"/>
  <entry producer="producer99" in="00:00:00.000" out="00:00:14.833">
   <property name="kdenlive:id">2</property>
   <property name="kdenlive:activeeffect">5</property>
   <filter id="filter87">
    <property name="version">0.1</property>
    <property name="mlt_service">frei0r.alphaspot</property>
    <property name="kdenlive_id">frei0r.alphaspot</property>
    <property name="Shape">0.38</property>
    <property name="Position X">00:00:00.000=0.486</property>
    <property name="Position Y">00:00:00.000=0.5</property>
    <property name="Size X">00:00:00.000=0.45</property>
    <property name="Size Y">00:00:00.000=0.422</property>
    <property name="Tilt">00:00:00.000=0</property>
    <property name="Transition width">00:00:00.000=0.113</property>
    <property name="Min">00:00:00.000=0</property>
    <property name="Max">00:00:00.000=1</property>
    <property name="Operation">0</property>
    <property name="kdenlive:collapsed">0</property>
   </filter>
   <filter id="filter88">
    <property name="rotate_center">1</property>
    <property name="mlt_service">qtblend</property>
    <property name="kdenlive_id">qtblend</property>
    <property name="rect">00:00:00.000=-1920 -1080 5760 3240 1.000000</property>
    <property name="rotation">00:00:00.000=0</property>
    <property name="compositing">0</property>
    <property name="distort">0</property>
    <property name="kdenlive:collapsed">0</property>
   </filter>
   <filter id="filter89">
    <property name="version">0.3</property>
    <property name="mlt_service">frei0r.saturat0r</property>
    <property name="kdenlive_id">frei0r.saturat0r</property>
    <property name="Saturation">00:00:00.000=0.001</property>
    <property name="kdenlive:collapsed">0</property>
   </filter>
   <filter id="filter90">
    <property name="lift_r">-0.562509</property>
    <property name="lift_g">-0.562509</property>
    <property name="lift_b">-0.562509</property>
    <property name="gamma_r">1.2625</property>
    <property name="gamma_g">1.2625</property>
    <property name="gamma_b">1.2625</property>
    <property name="gain_r">3.72497</property>
    <property name="gain_g">3.72497</property>
    <property name="gain_b">3.72497</property>
    <property name="mlt_service">lift_gamma_gain</property>
    <property name="kdenlive_id">lift_gamma_gain</property>
    <property name="kdenlive:collapsed">0</property>
   </filter>
   <filter id="filter91">
    <property name="version">0.2</property>
    <property name="mlt_service">frei0r.edgeglow</property>
    <property name="kdenlive_id">frei0r.edgeglow</property>
    <property name="lthresh">00:00:00.000=0</property>
    <property name="lupscale">00:00:00.000=0.348</property>
    <property name="lredscale">00:00:00.000=0</property>
    <property name="kdenlive:collapsed">0</property>
   </filter>
   <filter id="filter92">
    <property name="mlt_service">avfilter.gblur</property>
    <property name="kdenlive_id">avfilter.gblur</property>
    <property name="av.sigma">10</property>
    <property name="av.steps">1</property>
    <property name="av.planes">7</property>
    <property name="av.sigmaV">-1</property>
    <property name="kdenlive:collapsed">0</property>
    <property name="disable">0</property>
   </filter>
  </entry>
  <blank length="00:00:35.300"/>
  <entry producer="producer100" in="00:00:29.300" out="00:00:58.867">
   <property name="kdenlive:id">29</property>
   <filter id="filter93">
    <property name="rotate_center">1</property>
    <property name="mlt_service">qtblend</property>
    <property name="kdenlive_id">qtblend</property>
    <property name="rect">00:00:29.300=956 0 1080 1080 1.000000</property>
    <property name="rotation">00:00:29.300=0</property>
    <property name="compositing">0</property>
    <property name="distort">0</property>
    <property name="kdenlive:collapsed">0</property>
   </filter>
   <filter id="filter94">
    <property name="mirror">horizontal</property>
    <property name="mlt_service">mirror</property>
    <property name="kdenlive_id">mirror</property>
    <property name="reverse">0</property>
    <property name="kdenlive:collapsed">0</property>
   </filter>
  </entry>
  <entry producer="producer101" in="00:00:15.000" out="00:00:41.300">
   <property name="kdenlive:id">30</property>
   <property name="kdenlive:activeeffect">1</property>
   <filter id="filter95" in="00:00:41.067" out="00:00:41.300">
    <property name="start">1</property>
    <property name="mlt_service">brightness</property>
    <property name="kdenlive_id">fade_to_black</property>
    <property name="end">0</property>
    <property name="alpha">-1</property>
    <property name="kdenlive:collapsed">0</property>
   </filter>
   <filter id="filter96">
    <property name="version">0.2</property>
    <property name="mlt_service">frei0r.coloradj_RGB</property>
    <property name="kdenlive_id">frei0r.coloradj_RGB</property>
    <property name="R">00:00:15.000=0.5;00:00:18.967=0.719;00:00:23.000=0.719;00:00:27.367=0.519908;00:00:27.700=0.72;00:00:28.700=0.629394;00:00:31.000=0.421;00:00:35.000=0.698;00:00:39.733=0.75;00:00:41.300=0.451</property>
    <property name="G">00:00:15.000=0.5;00:00:18.967=0.5;00:00:23.000=0.268;00:00:27.367=0.268;00:00:27.700=0.72;00:00:28.700=0.339;00:00:31.000=0.743;00:00:35.000=0.719;00:00:39.733=0.299;00:00:41.300=0.446</property>
    <property name="B">00:00:15.000=0.5;00:00:18.967=0.5;00:00:23.000=0.5;00:00:27.367=0.737;00:00:27.700=0.179;00:00:28.700=0.352939;00:00:31.000=0.753;00:00:35.000=0.347;00:00:39.733=0.199;00:00:41.300=0.445</property>
    <property name="Action">0.5</property>
    <property name="Keep luma">1</property>
    <property name="Alpha controlled">0</property>
    <property name="Luma formula">1</property>
    <property name="kdenlive:collapsed">0</property>
   </filter>
  </entry>
  <entry producer="producer102" in="00:00:39.800" out="00:00:50.533">
   <property name="kdenlive:id">33</property>
   <filter id="filter97">
    <property name="rotate_center">1</property>
    <property name="mlt_service">qtblend</property>
    <property name="kdenlive_id">qtblend</property>
    <property name="rect">00:00:39.800=-788 -976 3840 2160 1.000000</property>
    <property name="rotation">00:00:39.800=0</property>
    <property name="compositing">0</property>
    <property name="distort">0</property>
    <property name="kdenlive:collapsed">0</property>
   </filter>
   <filter id="filter98">
    <property name="version">0.6</property>
    <property name="mlt_service">frei0r.select0r</property>
    <property name="kdenlive_id">frei0r.select0r</property>
    <property name="Color to select">0xdeb692ff</property>
    <property name="Invert selection">0</property>
    <property name="Selection subspace">1</property>
    <property name="Subspace shape">0</property>
    <property name="Edge mode">0.35</property>
    <property name="Delta R / A / Hue">00:00:39.800=0.035</property>
    <property name="Delta G / B / Chroma">00:00:39.800=0.179</property>
    <property name="Delta B / I / I">00:00:39.800=0.175</property>
    <property name="Slope">00:00:39.800=0.223</property>
    <property name="Operation">0.5</property>
    <property name="kdenlive:collapsed">0</property>
   </filter>
  </entry>
  <entry producer="producer103" in="00:00:22.900" out="00:00:33.633">
   <property name="kdenlive:id">31</property>
   <filter id="filter99" in="00:00:22.900" out="00:00:23.167">
    <property name="start">0</property>
    <property name="mlt_service">brightness</property>
    <property name="kdenlive_id">fade_from_black</property>
    <property name="end">1</property>
    <property name="alpha">-1</property>
    <property name="kdenlive:collapsed">0</property>
   </filter>
   <filter id="filter100" in="00:00:33.567" out="00:00:33.633">
    <property name="start">1</property>
    <property name="mlt_service">brightness</property>
    <property name="kdenlive_id">fade_to_black</property>
    <property name="end">0</property>
    <property name="alpha">-1</property>
    <property name="kdenlive:collapsed">0</property>
   </filter>
  </entry>
 </playlist>
 <playlist id="playlist11"/>
 <tractor id="tractor5" in="00:00:00.000" out="00:14:19.300">
  <property name="kdenlive:trackheight">69</property>
  <property name="kdenlive:timeline_active">1</property>
  <property name="kdenlive:collapsed">28</property>
  <property name="kdenlive:thumbs_format"/>
  <property name="kdenlive:audio_rec"/>
  <track hide="audio" producer="playlist10"/>
  <track producer="playlist11"/>
 </tractor>
 <producer id="producer104" in="00:00:00.000" out="00:05:57.567">
  <property name="length">10728</property>
  <property name="eof">pause</property>
  <property name="resource">content/musicians/2021-06-02_Sarah_kit_mason_00043-take3_full.mp4</property>
  <property name="audio_index">1</property>
  <property name="video_index">0</property>
  <property name="mute_on_pause">0</property>
  <property name="mlt_service">avformat-novalidate</property>
  <property name="seekable">1</property>
  <property name="aspect_ratio">1.33333</property>
  <property name="kdenlive:clipname"/>
  <property name="kdenlive:folderid">61</property>
  <property name="kdenlive:id">34</property>
  <property name="kdenlive:file_size">310672107</property>
  <property name="kdenlive:file_hash">cee82f7ce57e228a427bb670ee788837</property>
  <property name="kdenlive:audio_max">1</property>
  <property name="global_feed">1</property>
  <property name="xml">was here</property>
  <property name="meta.media.nb_streams">2</property>
  <property name="meta.media.0.stream.type">video</property>
  <property name="meta.media.0.stream.frame_rate">59.9401</property>
  <property name="meta.media.0.stream.sample_aspect_ratio">1.33333</property>
  <property name="meta.media.0.codec.width">1440</property>
  <property name="meta.media.0.codec.height">1080</property>
  <property name="meta.media.0.codec.rotate">0</property>
  <property name="meta.media.0.codec.frame_rate">29.97</property>
  <property name="meta.media.0.codec.pix_fmt">yuv420p</property>
  <property name="meta.media.0.codec.sample_aspect_ratio">1.33333</property>
  <property name="meta.media.0.codec.colorspace">709</property>
  <property name="meta.media.0.codec.name">h264</property>
  <property name="meta.media.0.codec.long_name">H.264 / AVC / MPEG-4 AVC / MPEG-4 part 10</property>
  <property name="meta.media.0.codec.bit_rate">6690340</property>
  <property name="meta.attr.0.stream.handler_name.markup">VideoHandler</property>
  <property name="meta.media.1.stream.type">audio</property>
  <property name="meta.media.1.codec.sample_fmt">fltp</property>
  <property name="meta.media.1.codec.sample_rate">48000</property>
  <property name="meta.media.1.codec.channels">2</property>
  <property name="meta.media.1.codec.name">ac3</property>
  <property name="meta.media.1.codec.long_name">ATSC A/52A (AC-3)</property>
  <property name="meta.media.1.codec.bit_rate">256000</property>
  <property name="meta.attr.1.stream.handler_name.markup">SoundHandler</property>
  <property name="meta.attr.major_brand.markup">isom</property>
  <property name="meta.attr.minor_version.markup">512</property>
  <property name="meta.attr.compatible_brands.markup">isomiso2avc1mp41</property>
  <property name="meta.attr.encoder.markup">Lavf58.45.100</property>
  <property name="meta.media.sample_aspect_num">4</property>
  <property name="meta.media.sample_aspect_den">3</property>
  <property name="meta.media.frame_rate_num">60000</property>
  <property name="meta.media.frame_rate_den">1001</property>
  <property name="meta.media.colorspace">709</property>
  <property name="meta.media.color_trc">2</property>
  <property name="meta.media.width">1440</property>
  <property name="meta.media.height">1080</property>
  <property name="meta.media.color_range">mpeg</property>
  <property name="meta.media.top_field_first">1</property>
  <property name="meta.media.progressive">0</property>
  <property name="set.test_audio">1</property>
  <property name="set.test_image">0</property>
 </producer>
 <playlist id="playlist12">
  <blank length="00:00:07.067"/>
  <entry producer="producer104" in="00:00:00.000" out="00:04:16.300">
   <property name="kdenlive:id">34</property>
  </entry>
 </playlist>
 <playlist id="playlist13"/>
 <tractor id="tractor6" in="00:00:00.000" out="00:04:23.367">
  <property name="kdenlive:trackheight">69</property>
  <property name="kdenlive:timeline_active">1</property>
  <property name="kdenlive:collapsed">28</property>
  <property name="kdenlive:track_name">sarah</property>
  <property name="kdenlive:thumbs_format"/>
  <property name="kdenlive:audio_rec"/>
  <property name="kdenlive:locked_track">1</property>
  <track hide="both" producer="playlist12"/>
  <track producer="playlist13"/>
 </tractor>
 <producer id="producer105" in="00:00:00.000" out="00:05:54.867">
  <property name="length">10647</property>
  <property name="eof">pause</property>
  <property name="resource">/home/ryankelln/.cache/kdenlive/proxy/735c930705e521d9a1e266a71d76c2a9.mkv</property>
  <property name="audio_index">1</property>
  <property name="video_index">0</property>
  <property name="mute_on_pause">0</property>
  <property name="mlt_service">avformat-novalidate</property>
  <property name="seekable">1</property>
  <property name="aspect_ratio">1</property>
  <property name="kdenlive:clipname">2021-06-02_134319_Sarah_kit+handheld_mason-take3_full.mp4</property>
  <property name="kdenlive:folderid">61</property>
  <property name="kdenlive:id">62</property>
  <property name="kdenlive:file_size">1127324098</property>
  <property name="kdenlive:file_hash">735c930705e521d9a1e266a71d76c2a9</property>
  <property name="kdenlive:proxy">/home/ryankelln/.cache/kdenlive/proxy/735c930705e521d9a1e266a71d76c2a9.mkv</property>
  <property name="kdenlive:originalurl">content/musicians/2021-06-02_134319_Sarah_kit+handheld_mason-take3_full.mp4</property>
  <property name="kdenlive:original.mlt_type">producer</property>
  <property name="kdenlive:original.in">0</property>
  <property name="kdenlive:original.out">10646</property>
  <property name="kdenlive:original.length">10647</property>
  <property name="kdenlive:original.eof">pause</property>
  <property name="kdenlive:original.resource">content/musicians/2021-06-02_134319_Sarah_kit+handheld_mason-take3_full.mp4</property>
  <property name="kdenlive:original.meta.media.nb_streams">2</property>
  <property name="kdenlive:original.meta.media.0.stream.type">video</property>
  <property name="kdenlive:original.meta.media.0.stream.frame_rate">59.9401</property>
  <property name="kdenlive:original.meta.media.0.stream.sample_aspect_ratio">1</property>
  <property name="kdenlive:original.meta.media.0.codec.width">1920</property>
  <property name="kdenlive:original.meta.media.0.codec.height">1080</property>
  <property name="kdenlive:original.meta.media.0.codec.rotate">0</property>
  <property name="kdenlive:original.meta.media.0.codec.frame_rate">59.9401</property>
  <property name="kdenlive:original.meta.media.0.codec.pix_fmt">yuv420p</property>
  <property name="kdenlive:original.meta.media.0.codec.sample_aspect_ratio">1</property>
  <property name="kdenlive:original.meta.media.0.codec.colorspace">709</property>
  <property name="kdenlive:original.meta.media.0.codec.name">h264</property>
  <property name="kdenlive:original.meta.media.0.codec.long_name">H.264 / AVC / MPEG-4 AVC / MPEG-4 part 10</property>
  <property name="kdenlive:original.meta.media.0.codec.bit_rate">24955009</property>
  <property name="kdenlive:original.meta.attr.0.stream.handler_name.markup">VideoHandler</property>
  <property name="kdenlive:original.meta.media.1.stream.type">audio</property>
  <property name="kdenlive:original.meta.media.1.codec.sample_fmt">fltp</property>
  <property name="kdenlive:original.meta.media.1.codec.sample_rate">48000</property>
  <property name="kdenlive:original.meta.media.1.codec.channels">6</property>
  <property name="kdenlive:original.meta.media.1.codec.name">ac3</property>
  <property name="kdenlive:original.meta.media.1.codec.long_name">ATSC A/52A (AC-3)</property>
  <property name="kdenlive:original.meta.media.1.codec.bit_rate">448000</property>
  <property name="kdenlive:original.meta.attr.1.stream.handler_name.markup">SoundHandler</property>
  <property name="kdenlive:original.meta.attr.major_brand.markup">isom</property>
  <property name="kdenlive:original.meta.attr.minor_version.markup">512</property>
  <property name="kdenlive:original.meta.attr.compatible_brands.markup">isomiso2avc1mp41</property>
  <property name="kdenlive:original.meta.attr.encoder.markup">Lavf58.45.100</property>
  <property name="kdenlive:original.seekable">1</property>
  <property name="kdenlive:original.width">1920</property>
  <property name="kdenlive:original.height">1080</property>
  <property name="kdenlive:original.meta.media.sample_aspect_num">1</property>
  <property name="kdenlive:original.meta.media.sample_aspect_den">1</property>
  <property name="kdenlive:original.aspect_ratio">1</property>
  <property name="kdenlive:original.audio_index">1</property>
  <property name="kdenlive:original.video_index">0</property>
  <property name="kdenlive:original.mute_on_pause">0</property>
  <property name="kdenlive:original.mlt_service">avformat-novalidate</property>
  <property name="kdenlive:original.kdenlive:folderid">61</property>
  <property name="kdenlive:original.meta.media.frame_rate_num">1914570000</property>
  <property name="kdenlive:original.meta.media.frame_rate_den">31941409</property>
  <property name="kdenlive:original.meta.media.colorspace">709</property>
  <property name="kdenlive:original.meta.media.color_trc">2</property>
  <property name="kdenlive:original.meta.media.width">1920</property>
  <property name="kdenlive:original.meta.media.height">1080</property>
  <property name="kdenlive:original.meta.media.color_range">mpeg</property>
  <property name="kdenlive:original.kdenlive:id">86</property>
  <property name="kdenlive:original.kdenlive:file_size">1127324098</property>
  <property name="kdenlive:original.kdenlive:file_hash">735c930705e521d9a1e266a71d76c2a9</property>
  <property name="kdenlive:original.backup">1</property>
  <property name="kdenlive:audio_max">3</property>
  <property name="global_feed">1</property>
  <property name="xml">was here</property>
  <property name="meta.media.nb_streams">2</property>
  <property name="meta.media.0.stream.type">video</property>
  <property name="meta.media.0.stream.frame_rate">59.9401</property>
  <property name="meta.media.0.stream.sample_aspect_ratio">1</property>
  <property name="meta.media.0.codec.width">640</property>
  <property name="meta.media.0.codec.height">360</property>
  <property name="meta.media.0.codec.rotate">0</property>
  <property name="meta.media.0.codec.frame_rate">1000</property>
  <property name="meta.media.0.codec.pix_fmt">yuvj420p</property>
  <property name="meta.media.0.codec.sample_aspect_ratio">1</property>
  <property name="meta.media.0.codec.colorspace">601</property>
  <property name="meta.media.0.codec.name">mjpeg</property>
  <property name="meta.media.0.codec.long_name">MJPEG (Motion JPEG)</property>
  <property name="meta.media.0.codec.bit_rate">0</property>
  <property name="meta.attr.0.stream.HANDLER_NAME.markup">VideoHandler</property>
  <property name="meta.attr.0.stream.ENCODER.markup">Lavc58.91.100 mjpeg</property>
  <property name="meta.attr.0.stream.DURATION.markup">00:05:54.905000000</property>
  <property name="meta.media.1.stream.type">audio</property>
  <property name="meta.media.1.codec.sample_fmt">s16</property>
  <property name="meta.media.1.codec.sample_rate">48000</property>
  <property name="meta.media.1.codec.channels">6</property>
  <property name="meta.media.1.codec.name">pcm_s16le</property>
  <property name="meta.media.1.codec.long_name">PCM signed 16-bit little-endian</property>
  <property name="meta.media.1.codec.bit_rate">4608000</property>
  <property name="meta.attr.1.stream.HANDLER_NAME.markup">SoundHandler</property>
  <property name="meta.attr.1.stream.ENCODER.markup">Lavc58.91.100 pcm_s16le</property>
  <property name="meta.attr.1.stream.DURATION.markup">00:05:54.880000000</property>
  <property name="meta.attr.COMPATIBLE_BRANDS.markup">isomiso2avc1mp41</property>
  <property name="meta.attr.MAJOR_BRAND.markup">isom</property>
  <property name="meta.attr.MINOR_VERSION.markup">512</property>
  <property name="meta.attr.ENCODER.markup">Lavf58.45.100</property>
  <property name="meta.media.sample_aspect_num">1</property>
  <property name="meta.media.sample_aspect_den">1</property>
  <property name="meta.media.frame_rate_num">19001</property>
  <property name="meta.media.frame_rate_den">317</property>
  <property name="meta.media.colorspace">601</property>
  <property name="meta.media.color_trc">2</property>
  <property name="meta.media.width">640</property>
  <property name="meta.media.height">360</property>
  <property name="meta.media.color_range">full</property>
  <property name="meta.media.top_field_first">0</property>
  <property name="meta.media.progressive">1</property>
  <property name="set.test_audio">1</property>
  <property name="set.test_image">0</property>
 </producer>
 <playlist id="playlist14">
  <blank length="00:00:09.467"/>
  <entry producer="producer105" in="00:00:00.000" out="00:03:50.867">
   <property name="kdenlive:id">62</property>
  </entry>
 </playlist>
 <playlist id="playlist15"/>
 <tractor id="tractor7" in="00:00:00.000" out="00:04:00.333">
  <property name="kdenlive:trackheight">69</property>
  <property name="kdenlive:timeline_active">1</property>
  <property name="kdenlive:collapsed">28</property>
  <property name="kdenlive:track_name">sarah-handheld</property>
  <property name="kdenlive:thumbs_format"/>
  <property name="kdenlive:audio_rec"/>
  <property name="kdenlive:locked_track">1</property>
  <track hide="both" producer="playlist14"/>
  <track producer="playlist15"/>
 </tractor>
 <producer id="producer106" in="00:00:00.000" out="00:00:32.600">
  <property name="length">979</property>
  <property name="eof">pause</property>
  <property name="resource">/home/ryankelln/.cache/kdenlive/proxy/81434f20c2ca82b06e699a6fe6d83b7d.mkv</property>
  <property name="audio_index">1</property>
  <property name="video_index">0</property>
  <property name="mute_on_pause">0</property>
  <property name="mlt_service">avformat-novalidate</property>
  <property name="seekable">1</property>
  <property name="aspect_ratio">1</property>
  <property name="kdenlive:clipname">2021-06-02_Caleb_upright+handheld_mason_MVI_6006-pickup_ending.mkv</property>
  <property name="kdenlive:folderid">61</property>
  <property name="kdenlive:id">36</property>
  <property name="kdenlive:file_size">192086250</property>
  <property name="kdenlive:file_hash">81434f20c2ca82b06e699a6fe6d83b7d</property>
  <property name="kdenlive:proxy">/home/ryankelln/.cache/kdenlive/proxy/81434f20c2ca82b06e699a6fe6d83b7d.mkv</property>
  <property name="kdenlive:originalurl">content/musicians/2021-06-02_Caleb_upright+handheld_mason_MVI_6006-pickup_ending.mkv</property>
  <property name="kdenlive:original.mlt_type">producer</property>
  <property name="kdenlive:original.in">0</property>
  <property name="kdenlive:original.out">978</property>
  <property name="kdenlive:original.length">979</property>
  <property name="kdenlive:original.eof">pause</property>
  <property name="kdenlive:original.resource">content/musicians/2021-06-02_Caleb_upright+handheld_mason_MVI_6006-pickup_ending.mkv</property>
  <property name="kdenlive:original.meta.media.nb_streams">2</property>
  <property name="kdenlive:original.meta.media.0.stream.type">video</property>
  <property name="kdenlive:original.meta.media.0.stream.frame_rate">29.97</property>
  <property name="kdenlive:original.meta.media.0.stream.sample_aspect_ratio">0</property>
  <property name="kdenlive:original.meta.media.0.codec.width">1920</property>
  <property name="kdenlive:original.meta.media.0.codec.height">1080</property>
  <property name="kdenlive:original.meta.media.0.codec.rotate">0</property>
  <property name="kdenlive:original.meta.media.0.codec.frame_rate">1000</property>
  <property name="kdenlive:original.meta.media.0.codec.pix_fmt">yuvj420p</property>
  <property name="kdenlive:original.meta.media.0.codec.sample_aspect_ratio">0</property>
  <property name="kdenlive:original.meta.media.0.codec.colorspace">601</property>
  <property name="kdenlive:original.meta.media.0.codec.color_trc">1</property>
  <property name="kdenlive:original.meta.media.0.codec.name">h264</property>
  <property name="kdenlive:original.meta.media.0.codec.long_name">H.264 / AVC / MPEG-4 AVC / MPEG-4 part 10</property>
  <property name="kdenlive:original.meta.media.0.codec.bit_rate">0</property>
  <property name="kdenlive:original.meta.attr.0.stream.language.markup">eng</property>
  <property name="kdenlive:original.meta.attr.0.stream.DURATION.markup">00:00:32.632000000</property>
  <property name="kdenlive:original.meta.media.1.stream.type">audio</property>
  <property name="kdenlive:original.meta.media.1.codec.sample_fmt">s16</property>
  <property name="kdenlive:original.meta.media.1.codec.sample_rate">48000</property>
  <property name="kdenlive:original.meta.media.1.codec.channels">2</property>
  <property name="kdenlive:original.meta.media.1.codec.name">pcm_s16le</property>
  <property name="kdenlive:original.meta.media.1.codec.long_name">PCM signed 16-bit little-endian</property>
  <property name="kdenlive:original.meta.media.1.codec.bit_rate">1536000</property>
  <property name="kdenlive:original.meta.attr.1.stream.language.markup">eng</property>
  <property name="kdenlive:original.meta.attr.1.stream.DURATION.markup">00:00:32.632000000</property>
  <property name="kdenlive:original.meta.attr.COMPATIBLE_BRANDS.markup">qt  CAEP</property>
  <property name="kdenlive:original.meta.attr.creation_time.markup">2021-06-02T16:43:55.000000Z</property>
  <property name="kdenlive:original.meta.attr.MAJOR_BRAND.markup">qt  </property>
  <property name="kdenlive:original.meta.attr.MINOR_VERSION.markup">537331968</property>
  <property name="kdenlive:original.meta.attr.ENCODER.markup">Lavf58.45.100</property>
  <property name="kdenlive:original.seekable">1</property>
  <property name="kdenlive:original.width">1920</property>
  <property name="kdenlive:original.height">1080</property>
  <property name="kdenlive:original.meta.media.sample_aspect_num">1</property>
  <property name="kdenlive:original.meta.media.sample_aspect_den">1</property>
  <property name="kdenlive:original.aspect_ratio">1</property>
  <property name="kdenlive:original.audio_index">1</property>
  <property name="kdenlive:original.video_index">0</property>
  <property name="kdenlive:original.mute_on_pause">0</property>
  <property name="kdenlive:original.mlt_service">avformat-novalidate</property>
  <property name="kdenlive:original.kdenlive:folderid">61</property>
  <property name="kdenlive:original.meta.media.frame_rate_num">30000</property>
  <property name="kdenlive:original.meta.media.frame_rate_den">1001</property>
  <property name="kdenlive:original.meta.media.colorspace">601</property>
  <property name="kdenlive:original.meta.media.color_trc">1</property>
  <property name="kdenlive:original.meta.media.width">1920</property>
  <property name="kdenlive:original.meta.media.height">1080</property>
  <property name="kdenlive:original.meta.media.color_range">full</property>
  <property name="kdenlive:original.kdenlive:id">64</property>
  <property name="kdenlive:original.kdenlive:file_size">192086250</property>
  <property name="kdenlive:original.kdenlive:file_hash">81434f20c2ca82b06e699a6fe6d83b7d</property>
  <property name="kdenlive:original.backup">1</property>
  <property name="kdenlive:audio_max">1</property>
  <property name="global_feed">1</property>
  <property name="xml">was here</property>
  <property name="meta.media.nb_streams">2</property>
  <property name="meta.media.0.stream.type">video</property>
  <property name="meta.media.0.stream.frame_rate">29.97</property>
  <property name="meta.media.0.stream.sample_aspect_ratio">0</property>
  <property name="meta.media.0.codec.width">640</property>
  <property name="meta.media.0.codec.height">360</property>
  <property name="meta.media.0.codec.rotate">0</property>
  <property name="meta.media.0.codec.frame_rate">1000</property>
  <property name="meta.media.0.codec.pix_fmt">yuvj420p</property>
  <property name="meta.media.0.codec.sample_aspect_ratio">0</property>
  <property name="meta.media.0.codec.colorspace">601</property>
  <property name="meta.media.0.codec.name">mjpeg</property>
  <property name="meta.media.0.codec.long_name">MJPEG (Motion JPEG)</property>
  <property name="meta.media.0.codec.bit_rate">0</property>
  <property name="meta.attr.0.stream.language.markup">eng</property>
  <property name="meta.attr.0.stream.ENCODER.markup">Lavc58.91.100 mjpeg</property>
  <property name="meta.attr.0.stream.DURATION.markup">00:00:32.632000000</property>
  <property name="meta.media.1.stream.type">audio</property>
  <property name="meta.media.1.codec.sample_fmt">s16</property>
  <property name="meta.media.1.codec.sample_rate">48000</property>
  <property name="meta.media.1.codec.channels">2</property>
  <property name="meta.media.1.codec.name">pcm_s16le</property>
  <property name="meta.media.1.codec.long_name">PCM signed 16-bit little-endian</property>
  <property name="meta.media.1.codec.bit_rate">1536000</property>
  <property name="meta.attr.1.stream.language.markup">eng</property>
  <property name="meta.attr.1.stream.ENCODER.markup">Lavc58.91.100 pcm_s16le</property>
  <property name="meta.attr.1.stream.DURATION.markup">00:00:32.632000000</property>
  <property name="meta.attr.MAJOR_BRAND.markup">qt  </property>
  <property name="meta.attr.COMPATIBLE_BRANDS.markup">qt  CAEP</property>
  <property name="meta.attr.MINOR_VERSION.markup">537331968</property>
  <property name="meta.attr.ENCODER.markup">Lavf58.45.100</property>
  <property name="meta.media.sample_aspect_num">1</property>
  <property name="meta.media.sample_aspect_den">1</property>
  <property name="meta.media.frame_rate_num">30000</property>
  <property name="meta.media.frame_rate_den">1001</property>
  <property name="meta.media.colorspace">601</property>
  <property name="meta.media.color_trc">2</property>
  <property name="meta.media.width">640</property>
  <property name="meta.media.height">360</property>
  <property name="meta.media.color_range">full</property>
  <property name="meta.media.top_field_first">0</property>
  <property name="meta.media.progressive">1</property>
  <property name="set.test_audio">1</property>
  <property name="set.test_image">0</property>
 </producer>
 <playlist id="playlist16">
  <blank length="00:05:33.467"/>
  <entry producer="producer106" in="00:00:00.000" out="00:00:32.600">
   <property name="kdenlive:id">36</property>
  </entry>
 </playlist>
 <playlist id="playlist17"/>
 <tractor id="tractor8" in="00:00:00.000" out="00:06:06.067">
  <property name="kdenlive:trackheight">69</property>
  <property name="kdenlive:timeline_active">1</property>
  <property name="kdenlive:collapsed">28</property>
  <property name="kdenlive:track_name">caleb-pickup-closeup</property>
  <property name="kdenlive:thumbs_format"/>
  <property name="kdenlive:audio_rec"/>
  <property name="kdenlive:locked_track">1</property>
  <track hide="both" producer="playlist16"/>
  <track producer="playlist17"/>
 </tractor>
 <producer id="producer107" in="00:00:00.000" out="00:01:12.600">
  <property name="length">2179</property>
  <property name="eof">pause</property>
  <property name="resource">content/musicians/2021-02-06_Caleb+Chris_upright+piano+handheld_mason_MVI_6037-take3_caleb_beginning.mkv</property>
  <property name="audio_index">1</property>
  <property name="video_index">0</property>
  <property name="mute_on_pause">0</property>
  <property name="mlt_service">avformat-novalidate</property>
  <property name="seekable">1</property>
  <property name="aspect_ratio">1</property>
  <property name="kdenlive:clipname"/>
  <property name="kdenlive:folderid">61</property>
  <property name="kdenlive:id">40</property>
  <property name="kdenlive:file_size">289261707</property>
  <property name="kdenlive:file_hash">2c5b7ac7d70a9bf1692b0e5a5224d917</property>
  <property name="kdenlive:audio_max">1</property>
  <property name="global_feed">1</property>
  <property name="xml">was here</property>
  <property name="meta.media.nb_streams">2</property>
  <property name="meta.media.0.stream.type">video</property>
  <property name="meta.media.0.stream.frame_rate">29.97</property>
  <property name="meta.media.0.stream.sample_aspect_ratio">0</property>
  <property name="meta.media.0.codec.width">1280</property>
  <property name="meta.media.0.codec.height">720</property>
  <property name="meta.media.0.codec.rotate">0</property>
  <property name="meta.media.0.codec.frame_rate">1000</property>
  <property name="meta.media.0.codec.pix_fmt">yuvj420p</property>
  <property name="meta.media.0.codec.sample_aspect_ratio">0</property>
  <property name="meta.media.0.codec.colorspace">601</property>
  <property name="meta.media.0.codec.color_trc">1</property>
  <property name="meta.media.0.codec.name">h264</property>
  <property name="meta.media.0.codec.long_name">H.264 / AVC / MPEG-4 AVC / MPEG-4 part 10</property>
  <property name="meta.media.0.codec.bit_rate">0</property>
  <property name="meta.attr.0.stream.language.markup">eng</property>
  <property name="meta.attr.0.stream.DURATION.markup">00:01:12.606000000</property>
  <property name="meta.media.1.stream.type">audio</property>
  <property name="meta.media.1.codec.sample_fmt">s16</property>
  <property name="meta.media.1.codec.sample_rate">48000</property>
  <property name="meta.media.1.codec.channels">1</property>
  <property name="meta.media.1.codec.name">pcm_s16le</property>
  <property name="meta.media.1.codec.long_name">PCM signed 16-bit little-endian</property>
  <property name="meta.media.1.codec.bit_rate">768000</property>
  <property name="meta.attr.1.stream.language.markup">eng</property>
  <property name="meta.attr.1.stream.DURATION.markup">00:01:12.627000000</property>
  <property name="meta.attr.COMPATIBLE_BRANDS.markup">qt  CAEP</property>
  <property name="meta.attr.creation_time.markup">2021-06-02T13:36:54.000000Z</property>
  <property name="meta.attr.MAJOR_BRAND.markup">qt  </property>
  <property name="meta.attr.MINOR_VERSION.markup">537331968</property>
  <property name="meta.attr.ENCODER.markup">Lavf58.45.100</property>
  <property name="meta.media.sample_aspect_num">1</property>
  <property name="meta.media.sample_aspect_den">1</property>
  <property name="meta.media.frame_rate_num">30000</property>
  <property name="meta.media.frame_rate_den">1001</property>
  <property name="meta.media.colorspace">601</property>
  <property name="meta.media.color_trc">1</property>
  <property name="meta.media.width">1280</property>
  <property name="meta.media.height">720</property>
  <property name="meta.media.color_range">full</property>
  <property name="meta.media.top_field_first">0</property>
  <property name="meta.media.progressive">1</property>
  <property name="set.test_audio">1</property>
  <property name="set.test_image">0</property>
 </producer>
 <producer id="producer108" in="00:00:00.000" out="00:00:47.567">
  <property name="length">1428</property>
  <property name="eof">pause</property>
  <property name="resource">content/musicians/2021-02-06_Caleb+Chris_upright+piano+handheld_mason_MVI_6037-take3_caleb_solo.mkv</property>
  <property name="audio_index">1</property>
  <property name="video_index">0</property>
  <property name="mute_on_pause">0</property>
  <property name="mlt_service">avformat-novalidate</property>
  <property name="seekable">1</property>
  <property name="aspect_ratio">1</property>
  <property name="kdenlive:clipname"/>
  <property name="kdenlive:folderid">61</property>
  <property name="kdenlive:id">42</property>
  <property name="kdenlive:file_size">188467641</property>
  <property name="kdenlive:file_hash">15dfc8fa62b942ad83151dc66db9f701</property>
  <property name="kdenlive:audio_max">1</property>
  <property name="global_feed">1</property>
  <property name="xml">was here</property>
  <property name="meta.media.nb_streams">2</property>
  <property name="meta.media.0.stream.type">video</property>
  <property name="meta.media.0.stream.frame_rate">29.97</property>
  <property name="meta.media.0.stream.sample_aspect_ratio">0</property>
  <property name="meta.media.0.codec.width">1280</property>
  <property name="meta.media.0.codec.height">720</property>
  <property name="meta.media.0.codec.rotate">0</property>
  <property name="meta.media.0.codec.frame_rate">1000</property>
  <property name="meta.media.0.codec.pix_fmt">yuvj420p</property>
  <property name="meta.media.0.codec.sample_aspect_ratio">0</property>
  <property name="meta.media.0.codec.colorspace">601</property>
  <property name="meta.media.0.codec.color_trc">1</property>
  <property name="meta.media.0.codec.name">h264</property>
  <property name="meta.media.0.codec.long_name">H.264 / AVC / MPEG-4 AVC / MPEG-4 part 10</property>
  <property name="meta.media.0.codec.bit_rate">0</property>
  <property name="meta.attr.0.stream.language.markup">eng</property>
  <property name="meta.attr.0.stream.DURATION.markup">00:00:47.590000000</property>
  <property name="meta.media.1.stream.type">audio</property>
  <property name="meta.media.1.codec.sample_fmt">s16</property>
  <property name="meta.media.1.codec.sample_rate">48000</property>
  <property name="meta.media.1.codec.channels">1</property>
  <property name="meta.media.1.codec.name">pcm_s16le</property>
  <property name="meta.media.1.codec.long_name">PCM signed 16-bit little-endian</property>
  <property name="meta.media.1.codec.bit_rate">768000</property>
  <property name="meta.attr.1.stream.language.markup">eng</property>
  <property name="meta.attr.1.stream.DURATION.markup">00:00:47.599000000</property>
  <property name="meta.attr.COMPATIBLE_BRANDS.markup">qt  CAEP</property>
  <property name="meta.attr.creation_time.markup">2021-06-02T13:36:54.000000Z</property>
  <property name="meta.attr.MAJOR_BRAND.markup">qt  </property>
  <property name="meta.attr.MINOR_VERSION.markup">537331968</property>
  <property name="meta.attr.ENCODER.markup">Lavf58.45.100</property>
  <property name="meta.media.sample_aspect_num">1</property>
  <property name="meta.media.sample_aspect_den">1</property>
  <property name="meta.media.frame_rate_num">30000</property>
  <property name="meta.media.frame_rate_den">1001</property>
  <property name="meta.media.colorspace">601</property>
  <property name="meta.media.color_trc">1</property>
  <property name="meta.media.width">1280</property>
  <property name="meta.media.height">720</property>
  <property name="meta.media.color_range">full</property>
  <property name="meta.media.top_field_first">0</property>
  <property name="meta.media.progressive">1</property>
  <property name="set.test_audio">1</property>
  <property name="set.test_image">0</property>
 </producer>
 <producer id="producer109" in="00:00:00.000" out="00:02:03.067">
  <property name="length">3693</property>
  <property name="eof">pause</property>
  <property name="resource">content/musicians/2021-02-06_Caleb_upright_mason_MVI_6048-take5_from_125.mkv</property>
  <property name="audio_index">1</property>
  <property name="video_index">0</property>
  <property name="mute_on_pause">0</property>
  <property name="mlt_service">avformat-novalidate</property>
  <property name="seekable">1</property>
  <property name="aspect_ratio">1</property>
  <property name="kdenlive:clipname"/>
  <property name="kdenlive:folderid">61</property>
  <property name="kdenlive:id">46</property>
  <property name="kdenlive:file_size">501823654</property>
  <property name="kdenlive:file_hash">cdcc4f8d03e4560196d475fb70438447</property>
  <property name="kdenlive:audio_max">1</property>
  <property name="global_feed">1</property>
  <property name="xml">was here</property>
  <property name="meta.media.nb_streams">2</property>
  <property name="meta.media.0.stream.type">video</property>
  <property name="meta.media.0.stream.frame_rate">29.97</property>
  <property name="meta.media.0.stream.sample_aspect_ratio">0</property>
  <property name="meta.media.0.codec.width">1280</property>
  <property name="meta.media.0.codec.height">720</property>
  <property name="meta.media.0.codec.rotate">0</property>
  <property name="meta.media.0.codec.frame_rate">1000</property>
  <property name="meta.media.0.codec.pix_fmt">yuvj420p</property>
  <property name="meta.media.0.codec.sample_aspect_ratio">0</property>
  <property name="meta.media.0.codec.colorspace">601</property>
  <property name="meta.media.0.codec.color_trc">1</property>
  <property name="meta.media.0.codec.name">h264</property>
  <property name="meta.media.0.codec.long_name">H.264 / AVC / MPEG-4 AVC / MPEG-4 part 10</property>
  <property name="meta.media.0.codec.bit_rate">0</property>
  <property name="meta.attr.0.stream.language.markup">eng</property>
  <property name="meta.attr.0.stream.DURATION.markup">00:02:03.089000000</property>
  <property name="meta.media.1.stream.type">audio</property>
  <property name="meta.media.1.codec.sample_fmt">s16</property>
  <property name="meta.media.1.codec.sample_rate">48000</property>
  <property name="meta.media.1.codec.channels">1</property>
  <property name="meta.media.1.codec.name">pcm_s16le</property>
  <property name="meta.media.1.codec.long_name">PCM signed 16-bit little-endian</property>
  <property name="meta.media.1.codec.bit_rate">768000</property>
  <property name="meta.attr.1.stream.language.markup">eng</property>
  <property name="meta.attr.1.stream.DURATION.markup">00:02:03.060000000</property>
  <property name="meta.attr.COMPATIBLE_BRANDS.markup">qt  CAEP</property>
  <property name="meta.attr.creation_time.markup">2021-06-02T16:38:25.000000Z</property>
  <property name="meta.attr.MAJOR_BRAND.markup">qt  </property>
  <property name="meta.attr.MINOR_VERSION.markup">537331968</property>
  <property name="meta.attr.ENCODER.markup">Lavf58.45.100</property>
  <property name="meta.media.sample_aspect_num">1</property>
  <property name="meta.media.sample_aspect_den">1</property>
  <property name="meta.media.frame_rate_num">30000</property>
  <property name="meta.media.frame_rate_den">1001</property>
  <property name="meta.media.colorspace">601</property>
  <property name="meta.media.color_trc">1</property>
  <property name="meta.media.width">1280</property>
  <property name="meta.media.height">720</property>
  <property name="meta.media.color_range">full</property>
  <property name="meta.media.top_field_first">0</property>
  <property name="meta.media.progressive">1</property>
  <property name="set.test_audio">1</property>
  <property name="set.test_image">0</property>
 </producer>
 <producer id="producer110" in="00:00:00.000" out="00:00:25.933">
  <property name="length">779</property>
  <property name="eof">pause</property>
  <property name="resource">content/musicians/2021-02-06_Caleb_upright_mason_MVI_6048-take6_ending.mkv</property>
  <property name="audio_index">1</property>
  <property name="video_index">0</property>
  <property name="mute_on_pause">0</property>
  <property name="mlt_service">avformat-novalidate</property>
  <property name="seekable">1</property>
  <property name="aspect_ratio">1</property>
  <property name="kdenlive:clipname"/>
  <property name="kdenlive:folderid">61</property>
  <property name="kdenlive:id">47</property>
  <property name="kdenlive:file_size">105477389</property>
  <property name="kdenlive:file_hash">ba466a8ea8b6ec70d4807259c95e8c49</property>
  <property name="kdenlive:audio_max">1</property>
  <property name="global_feed">1</property>
  <property name="xml">was here</property>
  <property name="meta.media.nb_streams">2</property>
  <property name="meta.media.0.stream.type">video</property>
  <property name="meta.media.0.stream.frame_rate">29.97</property>
  <property name="meta.media.0.stream.sample_aspect_ratio">0</property>
  <property name="meta.media.0.codec.width">1280</property>
  <property name="meta.media.0.codec.height">720</property>
  <property name="meta.media.0.codec.rotate">0</property>
  <property name="meta.media.0.codec.frame_rate">1000</property>
  <property name="meta.media.0.codec.pix_fmt">yuvj420p</property>
  <property name="meta.media.0.codec.sample_aspect_ratio">0</property>
  <property name="meta.media.0.codec.colorspace">601</property>
  <property name="meta.media.0.codec.color_trc">1</property>
  <property name="meta.media.0.codec.name">h264</property>
  <property name="meta.media.0.codec.long_name">H.264 / AVC / MPEG-4 AVC / MPEG-4 part 10</property>
  <property name="meta.media.0.codec.bit_rate">0</property>
  <property name="meta.attr.0.stream.language.markup">eng</property>
  <property name="meta.attr.0.stream.DURATION.markup">00:00:25.969000000</property>
  <property name="meta.media.1.stream.type">audio</property>
  <property name="meta.media.1.codec.sample_fmt">s16</property>
  <property name="meta.media.1.codec.sample_rate">48000</property>
  <property name="meta.media.1.codec.channels">1</property>
  <property name="meta.media.1.codec.name">pcm_s16le</property>
  <property name="meta.media.1.codec.long_name">PCM signed 16-bit little-endian</property>
  <property name="meta.media.1.codec.bit_rate">768000</property>
  <property name="meta.attr.1.stream.language.markup">eng</property>
  <property name="meta.attr.1.stream.DURATION.markup">00:00:25.983000000</property>
  <property name="meta.attr.COMPATIBLE_BRANDS.markup">qt  CAEP</property>
  <property name="meta.attr.creation_time.markup">2021-06-02T16:38:25.000000Z</property>
  <property name="meta.attr.MAJOR_BRAND.markup">qt  </property>
  <property name="meta.attr.MINOR_VERSION.markup">537331968</property>
  <property name="meta.attr.ENCODER.markup">Lavf58.45.100</property>
  <property name="meta.media.sample_aspect_num">1</property>
  <property name="meta.media.sample_aspect_den">1</property>
  <property name="meta.media.frame_rate_num">30000</property>
  <property name="meta.media.frame_rate_den">1001</property>
  <property name="meta.media.colorspace">601</property>
  <property name="meta.media.color_trc">1</property>
  <property name="meta.media.width">1280</property>
  <property name="meta.media.height">720</property>
  <property name="meta.media.color_range">full</property>
  <property name="meta.media.top_field_first">0</property>
  <property name="meta.media.progressive">1</property>
  <property name="set.test_audio">1</property>
  <property name="set.test_image">0</property>
 </producer>
 <playlist id="playlist18">
  <blank length="00:00:39.100"/>
  <entry producer="producer107" in="00:00:00.000" out="00:01:12.600">
   <property name="kdenlive:id">40</property>
  </entry>
  <blank length="00:00:42.867"/>
  <entry producer="producer108" in="00:00:00.000" out="00:00:47.567">
   <property name="kdenlive:id">42</property>
  </entry>
  <blank length="00:00:35.767"/>
  <entry producer="producer109" in="00:00:00.000" out="00:01:28.300">
   <property name="kdenlive:id">46</property>
  </entry>
  <blank length="00:00:27.667"/>
  <entry producer="producer110" in="00:00:21.167" out="00:00:25.933">
   <property name="kdenlive:id">47</property>
  </entry>
 </playlist>
 <playlist id="playlist19"/>
 <tractor id="tractor9" in="00:00:00.000" out="00:05:58.733">
  <property name="kdenlive:trackheight">69</property>
  <property name="kdenlive:timeline_active">1</property>
  <property name="kdenlive:collapsed">28</property>
  <property name="kdenlive:track_name">caleb-closeup</property>
  <property name="kdenlive:thumbs_format"/>
  <property name="kdenlive:audio_rec"/>
  <property name="kdenlive:locked_track">1</property>
  <track hide="both" producer="playlist18"/>
  <track producer="playlist19"/>
 </tractor>
 <producer id="producer111" in="00:00:00.000" out="00:04:45.300">
  <property name="length">8560</property>
  <property name="eof">pause</property>
  <property name="resource">/home/ryankelln/.cache/kdenlive/proxy/811d5c8e1868d3183f1472510f8086d6.mkv</property>
  <property name="audio_index">1</property>
  <property name="video_index">0</property>
  <property name="mute_on_pause">0</property>
  <property name="mlt_service">avformat-novalidate</property>
  <property name="seekable">1</property>
  <property name="aspect_ratio">1</property>
  <property name="kdenlive:clipname">2021-06-02_Caleb_upright+4k+portrait+badfocus_mason_P1000533-take3_start_to_end_solo.MP4</property>
  <property name="kdenlive:folderid">61</property>
  <property name="kdenlive:id">58</property>
  <property name="kdenlive:file_size">3420052022</property>
  <property name="kdenlive:file_hash">811d5c8e1868d3183f1472510f8086d6</property>
  <property name="kdenlive:proxy">/home/ryankelln/.cache/kdenlive/proxy/811d5c8e1868d3183f1472510f8086d6.mkv</property>
  <property name="kdenlive:originalurl">content/musicians/2021-06-02_Caleb_upright+4k+portrait+badfocus_mason_P1000533-take3_start_to_end_solo.MP4</property>
  <property name="kdenlive:original.mlt_type">producer</property>
  <property name="kdenlive:original.in">0</property>
  <property name="kdenlive:original.out">8559</property>
  <property name="kdenlive:original.length">8560</property>
  <property name="kdenlive:original.eof">pause</property>
  <property name="kdenlive:original.resource">content/musicians/2021-06-02_Caleb_upright+4k+portrait+badfocus_mason_P1000533-take3_start_to_end_solo.MP4</property>
  <property name="kdenlive:original.meta.media.nb_streams">2</property>
  <property name="kdenlive:original.meta.media.0.stream.type">video</property>
  <property name="kdenlive:original.meta.media.0.stream.frame_rate">29.97</property>
  <property name="kdenlive:original.meta.media.0.stream.sample_aspect_ratio">1</property>
  <property name="kdenlive:original.meta.media.0.codec.width">3328</property>
  <property name="kdenlive:original.meta.media.0.codec.height">2496</property>
  <property name="kdenlive:original.meta.media.0.codec.rotate">90</property>
  <property name="kdenlive:original.meta.media.0.codec.frame_rate">29.97</property>
  <property name="kdenlive:original.meta.media.0.codec.pix_fmt">yuvj420p</property>
  <property name="kdenlive:original.meta.media.0.codec.sample_aspect_ratio">1</property>
  <property name="kdenlive:original.meta.media.0.codec.colorspace">709</property>
  <property name="kdenlive:original.meta.media.0.codec.color_trc">1</property>
  <property name="kdenlive:original.meta.media.0.codec.name">h264</property>
  <property name="kdenlive:original.meta.media.0.codec.long_name">H.264 / AVC / MPEG-4 AVC / MPEG-4 part 10</property>
  <property name="kdenlive:original.meta.media.0.codec.bit_rate">95794055</property>
  <property name="kdenlive:original.meta.attr.0.stream.rotate.markup">90</property>
  <property name="kdenlive:original.meta.attr.0.stream.creation_time.markup">2021-06-02T13:24:57.000000Z</property>
  <property name="kdenlive:original.meta.attr.0.stream.handler_name.markup">VideoHandler</property>
  <property name="kdenlive:original.meta.media.1.stream.type">audio</property>
  <property name="kdenlive:original.meta.media.1.codec.sample_fmt">fltp</property>
  <property name="kdenlive:original.meta.media.1.codec.sample_rate">48000</property>
  <property name="kdenlive:original.meta.media.1.codec.channels">2</property>
  <property name="kdenlive:original.meta.media.1.codec.name">aac</property>
  <property name="kdenlive:original.meta.media.1.codec.long_name">AAC (Advanced Audio Coding)</property>
  <property name="kdenlive:original.meta.media.1.codec.bit_rate">125368</property>
  <property name="kdenlive:original.meta.attr.1.stream.creation_time.markup">2021-06-02T13:24:57.000000Z</property>
  <property name="kdenlive:original.meta.attr.1.stream.handler_name.markup">SoundHandler</property>
  <property name="kdenlive:original.meta.attr.major_brand.markup">isom</property>
  <property name="kdenlive:original.meta.attr.minor_version.markup">512</property>
  <property name="kdenlive:original.meta.attr.compatible_brands.markup">isomiso2avc1mp41</property>
  <property name="kdenlive:original.meta.attr.creation_time.markup">2021-06-02T13:24:57.000000Z</property>
  <property name="kdenlive:original.meta.attr.encoder.markup">Lavf58.45.100</property>
  <property name="kdenlive:original.seekable">1</property>
  <property name="kdenlive:original.width">3328</property>
  <property name="kdenlive:original.height">2496</property>
  <property name="kdenlive:original.meta.media.sample_aspect_num">1</property>
  <property name="kdenlive:original.meta.media.sample_aspect_den">1</property>
  <property name="kdenlive:original.aspect_ratio">1</property>
  <property name="kdenlive:original.audio_index">1</property>
  <property name="kdenlive:original.video_index">0</property>
  <property name="kdenlive:original.mute_on_pause">0</property>
  <property name="kdenlive:original.mlt_service">avformat-novalidate</property>
  <property name="kdenlive:original.kdenlive:folderid">61</property>
  <property name="kdenlive:original.meta.media.frame_rate_num">30000</property>
  <property name="kdenlive:original.meta.media.frame_rate_den">1001</property>
  <property name="kdenlive:original.meta.media.colorspace">709</property>
  <property name="kdenlive:original.meta.media.color_trc">1</property>
  <property name="kdenlive:original.meta.media.width">2496</property>
  <property name="kdenlive:original.meta.media.height">3328</property>
  <property name="kdenlive:original.meta.media.color_range">full</property>
  <property name="kdenlive:original.kdenlive:id">84</property>
  <property name="kdenlive:original.kdenlive:file_size">3420052022</property>
  <property name="kdenlive:original.kdenlive:file_hash">811d5c8e1868d3183f1472510f8086d6</property>
  <property name="kdenlive:original.backup">1</property>
  <property name="kdenlive:audio_max">1</property>
  <property name="global_feed">1</property>
  <property name="xml">was here</property>
  <property name="meta.media.nb_streams">2</property>
  <property name="meta.media.0.stream.type">video</property>
  <property name="meta.media.0.stream.frame_rate">29.97</property>
  <property name="meta.media.0.stream.sample_aspect_ratio">1</property>
  <property name="meta.media.0.codec.width">640</property>
  <property name="meta.media.0.codec.height">854</property>
  <property name="meta.media.0.codec.rotate">0</property>
  <property name="meta.media.0.codec.frame_rate">1000</property>
  <property name="meta.media.0.codec.pix_fmt">yuvj420p</property>
  <property name="meta.media.0.codec.sample_aspect_ratio">1.00078</property>
  <property name="meta.media.0.codec.colorspace">601</property>
  <property name="meta.media.0.codec.name">mjpeg</property>
  <property name="meta.media.0.codec.long_name">MJPEG (Motion JPEG)</property>
  <property name="meta.media.0.codec.bit_rate">0</property>
  <property name="meta.attr.0.stream.ENCODER.markup">Lavc58.91.100 mjpeg</property>
  <property name="meta.attr.0.stream.HANDLER_NAME.markup">VideoHandler</property>
  <property name="meta.attr.0.stream.DURATION.markup">00:04:45.318000000</property>
  <property name="meta.media.1.stream.type">audio</property>
  <property name="meta.media.1.codec.sample_fmt">s16</property>
  <property name="meta.media.1.codec.sample_rate">48000</property>
  <property name="meta.media.1.codec.channels">2</property>
  <property name="meta.media.1.codec.name">pcm_s16le</property>
  <property name="meta.media.1.codec.long_name">PCM signed 16-bit little-endian</property>
  <property name="meta.media.1.codec.bit_rate">1536000</property>
  <property name="meta.attr.1.stream.HANDLER_NAME.markup">SoundHandler</property>
  <property name="meta.attr.1.stream.ENCODER.markup">Lavc58.91.100 pcm_s16le</property>
  <property name="meta.attr.1.stream.DURATION.markup">00:04:45.333000000</property>
  <property name="meta.attr.COMPATIBLE_BRANDS.markup">isomiso2avc1mp41</property>
  <property name="meta.attr.MAJOR_BRAND.markup">isom</property>
  <property name="meta.attr.MINOR_VERSION.markup">512</property>
  <property name="meta.attr.ENCODER.markup">Lavf58.45.100</property>
  <property name="meta.media.sample_aspect_num">1</property>
  <property name="meta.media.sample_aspect_den">1</property>
  <property name="meta.media.frame_rate_num">30000</property>
  <property name="meta.media.frame_rate_den">1001</property>
  <property name="meta.media.colorspace">601</property>
  <property name="meta.media.color_trc">2</property>
  <property name="meta.media.width">640</property>
  <property name="meta.media.height">854</property>
  <property name="meta.media.color_range">full</property>
  <property name="meta.media.top_field_first">0</property>
  <property name="meta.media.progressive">1</property>
  <property name="set.test_audio">1</property>
  <property name="set.test_image">0</property>
 </producer>
 <producer id="producer112" in="00:00:00.000" out="00:01:59.867">
  <property name="length">3597</property>
  <property name="eof">pause</property>
  <property name="resource">/home/ryankelln/.cache/kdenlive/proxy/ff93e1e4d8a06c8e6f65a87d02583af8.mkv</property>
  <property name="audio_index">1</property>
  <property name="video_index">0</property>
  <property name="mute_on_pause">0</property>
  <property name="mlt_service">avformat-novalidate</property>
  <property name="seekable">1</property>
  <property name="aspect_ratio">1</property>
  <property name="kdenlive:clipname">2021-06-02_Caleb_upright+4k+portrait_mason_P1000556-take5_m125_to_end.MP4</property>
  <property name="kdenlive:folderid">61</property>
  <property name="kdenlive:id">54</property>
  <property name="kdenlive:file_size">1436512122</property>
  <property name="kdenlive:file_hash">ff93e1e4d8a06c8e6f65a87d02583af8</property>
  <property name="kdenlive:proxy">/home/ryankelln/.cache/kdenlive/proxy/ff93e1e4d8a06c8e6f65a87d02583af8.mkv</property>
  <property name="kdenlive:originalurl">content/musicians/2021-06-02_Caleb_upright+4k+portrait_mason_P1000556-take5_m125_to_end.MP4</property>
  <property name="kdenlive:original.mlt_type">producer</property>
  <property name="kdenlive:original.in">0</property>
  <property name="kdenlive:original.out">3596</property>
  <property name="kdenlive:original.length">3597</property>
  <property name="kdenlive:original.eof">pause</property>
  <property name="kdenlive:original.resource">content/musicians/2021-06-02_Caleb_upright+4k+portrait_mason_P1000556-take5_m125_to_end.MP4</property>
  <property name="kdenlive:original.meta.media.nb_streams">2</property>
  <property name="kdenlive:original.meta.media.0.stream.type">video</property>
  <property name="kdenlive:original.meta.media.0.stream.frame_rate">29.97</property>
  <property name="kdenlive:original.meta.media.0.stream.sample_aspect_ratio">1</property>
  <property name="kdenlive:original.meta.media.0.codec.width">3328</property>
  <property name="kdenlive:original.meta.media.0.codec.height">2496</property>
  <property name="kdenlive:original.meta.media.0.codec.rotate">90</property>
  <property name="kdenlive:original.meta.media.0.codec.frame_rate">29.97</property>
  <property name="kdenlive:original.meta.media.0.codec.pix_fmt">yuvj420p</property>
  <property name="kdenlive:original.meta.media.0.codec.sample_aspect_ratio">1</property>
  <property name="kdenlive:original.meta.media.0.codec.colorspace">709</property>
  <property name="kdenlive:original.meta.media.0.codec.color_trc">1</property>
  <property name="kdenlive:original.meta.media.0.codec.name">h264</property>
  <property name="kdenlive:original.meta.media.0.codec.long_name">H.264 / AVC / MPEG-4 AVC / MPEG-4 part 10</property>
  <property name="kdenlive:original.meta.media.0.codec.bit_rate">95750870</property>
  <property name="kdenlive:original.meta.attr.0.stream.rotate.markup">90</property>
  <property name="kdenlive:original.meta.attr.0.stream.creation_time.markup">2021-06-02T16:40:11.000000Z</property>
  <property name="kdenlive:original.meta.attr.0.stream.handler_name.markup">VideoHandler</property>
  <property name="kdenlive:original.meta.media.1.stream.type">audio</property>
  <property name="kdenlive:original.meta.media.1.codec.sample_fmt">fltp</property>
  <property name="kdenlive:original.meta.media.1.codec.sample_rate">48000</property>
  <property name="kdenlive:original.meta.media.1.codec.channels">2</property>
  <property name="kdenlive:original.meta.media.1.codec.name">aac</property>
  <property name="kdenlive:original.meta.media.1.codec.long_name">AAC (Advanced Audio Coding)</property>
  <property name="kdenlive:original.meta.media.1.codec.bit_rate">125374</property>
  <property name="kdenlive:original.meta.attr.1.stream.creation_time.markup">2021-06-02T16:40:11.000000Z</property>
  <property name="kdenlive:original.meta.attr.1.stream.handler_name.markup">SoundHandler</property>
  <property name="kdenlive:original.meta.attr.major_brand.markup">isom</property>
  <property name="kdenlive:original.meta.attr.minor_version.markup">512</property>
  <property name="kdenlive:original.meta.attr.compatible_brands.markup">isomiso2avc1mp41</property>
  <property name="kdenlive:original.meta.attr.creation_time.markup">2021-06-02T16:40:11.000000Z</property>
  <property name="kdenlive:original.meta.attr.encoder.markup">Lavf58.45.100</property>
  <property name="kdenlive:original.seekable">1</property>
  <property name="kdenlive:original.width">3328</property>
  <property name="kdenlive:original.height">2496</property>
  <property name="kdenlive:original.meta.media.sample_aspect_num">1</property>
  <property name="kdenlive:original.meta.media.sample_aspect_den">1</property>
  <property name="kdenlive:original.aspect_ratio">1</property>
  <property name="kdenlive:original.audio_index">1</property>
  <property name="kdenlive:original.video_index">0</property>
  <property name="kdenlive:original.mute_on_pause">0</property>
  <property name="kdenlive:original.mlt_service">avformat-novalidate</property>
  <property name="kdenlive:original.kdenlive:folderid">61</property>
  <property name="kdenlive:original.meta.media.frame_rate_num">30000</property>
  <property name="kdenlive:original.meta.media.frame_rate_den">1001</property>
  <property name="kdenlive:original.meta.media.colorspace">709</property>
  <property name="kdenlive:original.meta.media.color_trc">1</property>
  <property name="kdenlive:original.meta.media.width">2496</property>
  <property name="kdenlive:original.meta.media.height">3328</property>
  <property name="kdenlive:original.meta.media.color_range">full</property>
  <property name="kdenlive:original.kdenlive:id">80</property>
  <property name="kdenlive:original.kdenlive:file_size">1436512122</property>
  <property name="kdenlive:original.kdenlive:file_hash">ff93e1e4d8a06c8e6f65a87d02583af8</property>
  <property name="kdenlive:original.backup">1</property>
  <property name="kdenlive:audio_max">1</property>
  <property name="global_feed">1</property>
  <property name="xml">was here</property>
  <property name="meta.media.nb_streams">2</property>
  <property name="meta.media.0.stream.type">video</property>
  <property name="meta.media.0.stream.frame_rate">29.97</property>
  <property name="meta.media.0.stream.sample_aspect_ratio">1</property>
  <property name="meta.media.0.codec.width">640</property>
  <property name="meta.media.0.codec.height">854</property>
  <property name="meta.media.0.codec.rotate">0</property>
  <property name="meta.media.0.codec.frame_rate">1000</property>
  <property name="meta.media.0.codec.pix_fmt">yuvj420p</property>
  <property name="meta.media.0.codec.sample_aspect_ratio">1.00078</property>
  <property name="meta.media.0.codec.colorspace">601</property>
  <property name="meta.media.0.codec.name">mjpeg</property>
  <property name="meta.media.0.codec.long_name">MJPEG (Motion JPEG)</property>
  <property name="meta.media.0.codec.bit_rate">0</property>
  <property name="meta.attr.0.stream.ENCODER.markup">Lavc58.91.100 mjpeg</property>
  <property name="meta.attr.0.stream.HANDLER_NAME.markup">VideoHandler</property>
  <property name="meta.attr.0.stream.DURATION.markup">00:01:59.953000000</property>
  <property name="meta.media.1.stream.type">audio</property>
  <property name="meta.media.1.codec.sample_fmt">s16</property>
  <property name="meta.media.1.codec.sample_rate">48000</property>
  <property name="meta.media.1.codec.channels">2</property>
  <property name="meta.media.1.codec.name">pcm_s16le</property>
  <property name="meta.media.1.codec.long_name">PCM signed 16-bit little-endian</property>
  <property name="meta.media.1.codec.bit_rate">1536000</property>
  <property name="meta.attr.1.stream.HANDLER_NAME.markup">SoundHandler</property>
  <property name="meta.attr.1.stream.ENCODER.markup">Lavc58.91.100 pcm_s16le</property>
  <property name="meta.attr.1.stream.DURATION.markup">00:01:59.893000000</property>
  <property name="meta.attr.COMPATIBLE_BRANDS.markup">isomiso2avc1mp41</property>
  <property name="meta.attr.MAJOR_BRAND.markup">isom</property>
  <property name="meta.attr.MINOR_VERSION.markup">512</property>
  <property name="meta.attr.ENCODER.markup">Lavf58.45.100</property>
  <property name="meta.media.sample_aspect_num">1</property>
  <property name="meta.media.sample_aspect_den">1</property>
  <property name="meta.media.frame_rate_num">30000</property>
  <property name="meta.media.frame_rate_den">1001</property>
  <property name="meta.media.colorspace">601</property>
  <property name="meta.media.color_trc">2</property>
  <property name="meta.media.width">640</property>
  <property name="meta.media.height">854</property>
  <property name="meta.media.color_range">full</property>
  <property name="meta.media.top_field_first">0</property>
  <property name="meta.media.progressive">1</property>
  <property name="set.test_audio">1</property>
  <property name="set.test_image">0</property>
 </producer>
 <producer id="producer113" in="00:00:00.000" out="00:00:28.133">
  <property name="length">845</property>
  <property name="eof">pause</property>
  <property name="resource">/home/ryankelln/.cache/kdenlive/proxy/c673807695542cb1abbbd33f0f1f8c7c.mkv</property>
  <property name="audio_index">1</property>
  <property name="video_index">0</property>
  <property name="mute_on_pause">0</property>
  <property name="mlt_service">avformat-novalidate</property>
  <property name="seekable">1</property>
  <property name="aspect_ratio">1</property>
  <property name="kdenlive:clipname">2021-06-02_Caleb_upright+4k+portrait_mason_P1000556-take6_end.MP4</property>
  <property name="kdenlive:folderid">61</property>
  <property name="kdenlive:id">55</property>
  <property name="kdenlive:file_size">338422222</property>
  <property name="kdenlive:file_hash">c673807695542cb1abbbd33f0f1f8c7c</property>
  <property name="kdenlive:proxy">/home/ryankelln/.cache/kdenlive/proxy/c673807695542cb1abbbd33f0f1f8c7c.mkv</property>
  <property name="kdenlive:originalurl">content/musicians/2021-06-02_Caleb_upright+4k+portrait_mason_P1000556-take6_end.MP4</property>
  <property name="kdenlive:original.mlt_type">producer</property>
  <property name="kdenlive:original.in">0</property>
  <property name="kdenlive:original.out">844</property>
  <property name="kdenlive:original.length">845</property>
  <property name="kdenlive:original.eof">pause</property>
  <property name="kdenlive:original.resource">content/musicians/2021-06-02_Caleb_upright+4k+portrait_mason_P1000556-take6_end.MP4</property>
  <property name="kdenlive:original.meta.media.nb_streams">2</property>
  <property name="kdenlive:original.meta.media.0.stream.type">video</property>
  <property name="kdenlive:original.meta.media.0.stream.frame_rate">29.97</property>
  <property name="kdenlive:original.meta.media.0.stream.sample_aspect_ratio">1</property>
  <property name="kdenlive:original.meta.media.0.codec.width">3328</property>
  <property name="kdenlive:original.meta.media.0.codec.height">2496</property>
  <property name="kdenlive:original.meta.media.0.codec.rotate">90</property>
  <property name="kdenlive:original.meta.media.0.codec.frame_rate">29.97</property>
  <property name="kdenlive:original.meta.media.0.codec.pix_fmt">yuvj420p</property>
  <property name="kdenlive:original.meta.media.0.codec.sample_aspect_ratio">1</property>
  <property name="kdenlive:original.meta.media.0.codec.colorspace">709</property>
  <property name="kdenlive:original.meta.media.0.codec.color_trc">1</property>
  <property name="kdenlive:original.meta.media.0.codec.name">h264</property>
  <property name="kdenlive:original.meta.media.0.codec.long_name">H.264 / AVC / MPEG-4 AVC / MPEG-4 part 10</property>
  <property name="kdenlive:original.meta.media.0.codec.bit_rate">96345774</property>
  <property name="kdenlive:original.meta.attr.0.stream.rotate.markup">90</property>
  <property name="kdenlive:original.meta.attr.0.stream.creation_time.markup">2021-06-02T16:40:11.000000Z</property>
  <property name="kdenlive:original.meta.attr.0.stream.handler_name.markup">VideoHandler</property>
  <property name="kdenlive:original.meta.media.1.stream.type">audio</property>
  <property name="kdenlive:original.meta.media.1.codec.sample_fmt">fltp</property>
  <property name="kdenlive:original.meta.media.1.codec.sample_rate">48000</property>
  <property name="kdenlive:original.meta.media.1.codec.channels">2</property>
  <property name="kdenlive:original.meta.media.1.codec.name">aac</property>
  <property name="kdenlive:original.meta.media.1.codec.long_name">AAC (Advanced Audio Coding)</property>
  <property name="kdenlive:original.meta.media.1.codec.bit_rate">125378</property>
  <property name="kdenlive:original.meta.attr.1.stream.creation_time.markup">2021-06-02T16:40:11.000000Z</property>
  <property name="kdenlive:original.meta.attr.1.stream.handler_name.markup">SoundHandler</property>
  <property name="kdenlive:original.meta.attr.major_brand.markup">isom</property>
  <property name="kdenlive:original.meta.attr.minor_version.markup">512</property>
  <property name="kdenlive:original.meta.attr.compatible_brands.markup">isomiso2avc1mp41</property>
  <property name="kdenlive:original.meta.attr.creation_time.markup">2021-06-02T16:40:11.000000Z</property>
  <property name="kdenlive:original.meta.attr.encoder.markup">Lavf58.45.100</property>
  <property name="kdenlive:original.seekable">1</property>
  <property name="kdenlive:original.width">3328</property>
  <property name="kdenlive:original.height">2496</property>
  <property name="kdenlive:original.meta.media.sample_aspect_num">1</property>
  <property name="kdenlive:original.meta.media.sample_aspect_den">1</property>
  <property name="kdenlive:original.aspect_ratio">1</property>
  <property name="kdenlive:original.audio_index">1</property>
  <property name="kdenlive:original.video_index">0</property>
  <property name="kdenlive:original.mute_on_pause">0</property>
  <property name="kdenlive:original.mlt_service">avformat-novalidate</property>
  <property name="kdenlive:original.kdenlive:folderid">61</property>
  <property name="kdenlive:original.meta.media.frame_rate_num">30000</property>
  <property name="kdenlive:original.meta.media.frame_rate_den">1001</property>
  <property name="kdenlive:original.meta.media.colorspace">709</property>
  <property name="kdenlive:original.meta.media.color_trc">1</property>
  <property name="kdenlive:original.meta.media.width">2496</property>
  <property name="kdenlive:original.meta.media.height">3328</property>
  <property name="kdenlive:original.meta.media.color_range">full</property>
  <property name="kdenlive:original.kdenlive:id">81</property>
  <property name="kdenlive:original.kdenlive:file_size">338422222</property>
  <property name="kdenlive:original.kdenlive:file_hash">c673807695542cb1abbbd33f0f1f8c7c</property>
  <property name="kdenlive:original.backup">1</property>
  <property name="kdenlive:audio_max">1</property>
  <property name="global_feed">1</property>
  <property name="xml">was here</property>
  <property name="meta.media.nb_streams">2</property>
  <property name="meta.media.0.stream.type">video</property>
  <property name="meta.media.0.stream.frame_rate">29.97</property>
  <property name="meta.media.0.stream.sample_aspect_ratio">1</property>
  <property name="meta.media.0.codec.width">640</property>
  <property name="meta.media.0.codec.height">854</property>
  <property name="meta.media.0.codec.rotate">0</property>
  <property name="meta.media.0.codec.frame_rate">1000</property>
  <property name="meta.media.0.codec.pix_fmt">yuvj420p</property>
  <property name="meta.media.0.codec.sample_aspect_ratio">1.00078</property>
  <property name="meta.media.0.codec.colorspace">601</property>
  <property name="meta.media.0.codec.name">mjpeg</property>
  <property name="meta.media.0.codec.long_name">MJPEG (Motion JPEG)</property>
  <property name="meta.media.0.codec.bit_rate">0</property>
  <property name="meta.attr.0.stream.ENCODER.markup">Lavc58.91.100 mjpeg</property>
  <property name="meta.attr.0.stream.HANDLER_NAME.markup">VideoHandler</property>
  <property name="meta.attr.0.stream.DURATION.markup">00:00:28.161000000</property>
  <property name="meta.media.1.stream.type">audio</property>
  <property name="meta.media.1.codec.sample_fmt">s16</property>
  <property name="meta.media.1.codec.sample_rate">48000</property>
  <property name="meta.media.1.codec.channels">2</property>
  <property name="meta.media.1.codec.name">pcm_s16le</property>
  <property name="meta.media.1.codec.long_name">PCM signed 16-bit little-endian</property>
  <property name="meta.media.1.codec.bit_rate">1536000</property>
  <property name="meta.attr.1.stream.HANDLER_NAME.markup">SoundHandler</property>
  <property name="meta.attr.1.stream.ENCODER.markup">Lavc58.91.100 pcm_s16le</property>
  <property name="meta.attr.1.stream.DURATION.markup">00:00:28.160000000</property>
  <property name="meta.attr.COMPATIBLE_BRANDS.markup">isomiso2avc1mp41</property>
  <property name="meta.attr.MAJOR_BRAND.markup">isom</property>
  <property name="meta.attr.MINOR_VERSION.markup">512</property>
  <property name="meta.attr.ENCODER.markup">Lavf58.45.100</property>
  <property name="meta.media.sample_aspect_num">1</property>
  <property name="meta.media.sample_aspect_den">1</property>
  <property name="meta.media.frame_rate_num">30000</property>
  <property name="meta.media.frame_rate_den">1001</property>
  <property name="meta.media.colorspace">601</property>
  <property name="meta.media.color_trc">2</property>
  <property name="meta.media.width">640</property>
  <property name="meta.media.height">854</property>
  <property name="meta.media.color_range">full</property>
  <property name="meta.media.top_field_first">0</property>
  <property name="meta.media.progressive">1</property>
  <property name="set.test_audio">1</property>
  <property name="set.test_image">0</property>
 </producer>
 <playlist id="playlist20">
  <blank length="00:00:06.000"/>
  <entry producer="producer111" in="00:00:00.000" out="00:03:54.333">
   <property name="kdenlive:id">58</property>
  </entry>
  <entry producer="producer112" in="00:00:02.967" out="00:01:28.867">
   <property name="kdenlive:id">54</property>
  </entry>
  <blank length="00:00:21.900"/>
  <entry producer="producer113" in="00:00:17.167" out="00:00:28.133">
   <property name="kdenlive:id">55</property>
  </entry>
 </playlist>
 <playlist id="playlist21"/>
 <tractor id="tractor10" in="00:00:00.000" out="00:05:59.167">
  <property name="kdenlive:trackheight">69</property>
  <property name="kdenlive:timeline_active">1</property>
  <property name="kdenlive:collapsed">28</property>
  <property name="kdenlive:track_name">caleb-4k-portrait</property>
  <property name="kdenlive:thumbs_format"/>
  <property name="kdenlive:audio_rec"/>
  <property name="kdenlive:locked_track">1</property>
  <track hide="both" producer="playlist20"/>
  <track producer="playlist21"/>
 </tractor>
 <producer id="producer114" in="00:00:00.000" out="00:00:10.333">
  <property name="length">311</property>
  <property name="eof">pause</property>
  <property name="resource">content/musicians/2021-02-06_Chris_piano+handheld_mason_MVI_6036-unknown_take_near_end.mkv</property>
  <property name="audio_index">1</property>
  <property name="video_index">0</property>
  <property name="mute_on_pause">0</property>
  <property name="mlt_service">avformat-novalidate</property>
  <property name="seekable">1</property>
  <property name="aspect_ratio">1</property>
  <property name="kdenlive:clipname"/>
  <property name="kdenlive:folderid">61</property>
  <property name="kdenlive:id">49</property>
  <property name="kdenlive:file_size">41406863</property>
  <property name="kdenlive:file_hash">429d42362479c51ac32adcc3bb6ed04c</property>
  <property name="kdenlive:audio_max">2</property>
  <property name="global_feed">1</property>
  <property name="xml">was here</property>
  <property name="meta.media.nb_streams">2</property>
  <property name="meta.media.0.stream.type">video</property>
  <property name="meta.media.0.stream.frame_rate">29.97</property>
  <property name="meta.media.0.stream.sample_aspect_ratio">0</property>
  <property name="meta.media.0.codec.width">1280</property>
  <property name="meta.media.0.codec.height">720</property>
  <property name="meta.media.0.codec.rotate">0</property>
  <property name="meta.media.0.codec.frame_rate">1000</property>
  <property name="meta.media.0.codec.pix_fmt">yuvj420p</property>
  <property name="meta.media.0.codec.sample_aspect_ratio">0</property>
  <property name="meta.media.0.codec.colorspace">601</property>
  <property name="meta.media.0.codec.color_trc">1</property>
  <property name="meta.media.0.codec.name">h264</property>
  <property name="meta.media.0.codec.long_name">H.264 / AVC / MPEG-4 AVC / MPEG-4 part 10</property>
  <property name="meta.media.0.codec.bit_rate">0</property>
  <property name="meta.attr.0.stream.language.markup">eng</property>
  <property name="meta.attr.0.stream.DURATION.markup">00:00:10.377000000</property>
  <property name="meta.media.1.stream.type">audio</property>
  <property name="meta.media.1.codec.sample_fmt">s16</property>
  <property name="meta.media.1.codec.sample_rate">48000</property>
  <property name="meta.media.1.codec.channels">1</property>
  <property name="meta.media.1.codec.name">pcm_s16le</property>
  <property name="meta.media.1.codec.long_name">PCM signed 16-bit little-endian</property>
  <property name="meta.media.1.codec.bit_rate">768000</property>
  <property name="meta.attr.1.stream.language.markup">eng</property>
  <property name="meta.attr.1.stream.DURATION.markup">00:00:10.351000000</property>
  <property name="meta.attr.COMPATIBLE_BRANDS.markup">qt  CAEP</property>
  <property name="meta.attr.creation_time.markup">2021-06-02T13:35:39.000000Z</property>
  <property name="meta.attr.MAJOR_BRAND.markup">qt  </property>
  <property name="meta.attr.MINOR_VERSION.markup">537331968</property>
  <property name="meta.attr.ENCODER.markup">Lavf58.45.100</property>
  <property name="meta.media.sample_aspect_num">1</property>
  <property name="meta.media.sample_aspect_den">1</property>
  <property name="meta.media.frame_rate_num">30000</property>
  <property name="meta.media.frame_rate_den">1001</property>
  <property name="meta.media.colorspace">601</property>
  <property name="meta.media.color_trc">1</property>
  <property name="meta.media.width">1280</property>
  <property name="meta.media.height">720</property>
  <property name="meta.media.color_range">full</property>
  <property name="meta.media.top_field_first">0</property>
  <property name="meta.media.progressive">1</property>
  <property name="set.test_audio">1</property>
  <property name="set.test_image">0</property>
 </producer>
 <producer id="producer115" in="00:00:00.000" out="00:00:06.300">
  <property name="length">190</property>
  <property name="eof">pause</property>
  <property name="resource">content/musicians/2021-02-06_Chris_piano+handheld_mason_MVI_6036-unknown_take_near_end_headshot.mkv</property>
  <property name="audio_index">1</property>
  <property name="video_index">0</property>
  <property name="mute_on_pause">0</property>
  <property name="mlt_service">avformat-novalidate</property>
  <property name="seekable">1</property>
  <property name="aspect_ratio">1</property>
  <property name="kdenlive:clipname"/>
  <property name="kdenlive:folderid">61</property>
  <property name="kdenlive:id">50</property>
  <property name="kdenlive:file_size">25034853</property>
  <property name="kdenlive:file_hash">38f3ff16fdc2dfcf89c0bd9c64485c78</property>
  <property name="kdenlive:audio_max">1</property>
  <property name="global_feed">1</property>
  <property name="xml">was here</property>
  <property name="meta.media.nb_streams">2</property>
  <property name="meta.media.0.stream.type">video</property>
  <property name="meta.media.0.stream.frame_rate">29.97</property>
  <property name="meta.media.0.stream.sample_aspect_ratio">0</property>
  <property name="meta.media.0.codec.width">1280</property>
  <property name="meta.media.0.codec.height">720</property>
  <property name="meta.media.0.codec.rotate">0</property>
  <property name="meta.media.0.codec.frame_rate">1000</property>
  <property name="meta.media.0.codec.pix_fmt">yuvj420p</property>
  <property name="meta.media.0.codec.sample_aspect_ratio">0</property>
  <property name="meta.media.0.codec.colorspace">601</property>
  <property name="meta.media.0.codec.color_trc">1</property>
  <property name="meta.media.0.codec.name">h264</property>
  <property name="meta.media.0.codec.long_name">H.264 / AVC / MPEG-4 AVC / MPEG-4 part 10</property>
  <property name="meta.media.0.codec.bit_rate">0</property>
  <property name="meta.attr.0.stream.language.markup">eng</property>
  <property name="meta.attr.0.stream.DURATION.markup">00:00:06.316000000</property>
  <property name="meta.media.1.stream.type">audio</property>
  <property name="meta.media.1.codec.sample_fmt">s16</property>
  <property name="meta.media.1.codec.sample_rate">48000</property>
  <property name="meta.media.1.codec.channels">1</property>
  <property name="meta.media.1.codec.name">pcm_s16le</property>
  <property name="meta.media.1.codec.long_name">PCM signed 16-bit little-endian</property>
  <property name="meta.media.1.codec.bit_rate">768000</property>
  <property name="meta.attr.1.stream.language.markup">eng</property>
  <property name="meta.attr.1.stream.DURATION.markup">00:00:06.326000000</property>
  <property name="meta.attr.COMPATIBLE_BRANDS.markup">qt  CAEP</property>
  <property name="meta.attr.creation_time.markup">2021-06-02T13:35:39.000000Z</property>
  <property name="meta.attr.MAJOR_BRAND.markup">qt  </property>
  <property name="meta.attr.MINOR_VERSION.markup">537331968</property>
  <property name="meta.attr.ENCODER.markup">Lavf58.45.100</property>
  <property name="meta.media.sample_aspect_num">1</property>
  <property name="meta.media.sample_aspect_den">1</property>
  <property name="meta.media.frame_rate_num">30000</property>
  <property name="meta.media.frame_rate_den">1001</property>
  <property name="meta.media.colorspace">601</property>
  <property name="meta.media.color_trc">1</property>
  <property name="meta.media.width">1280</property>
  <property name="meta.media.height">720</property>
  <property name="meta.media.color_range">full</property>
  <property name="meta.media.top_field_first">0</property>
  <property name="meta.media.progressive">1</property>
  <property name="set.test_audio">1</property>
  <property name="set.test_image">0</property>
 </producer>
 <playlist id="playlist22">
  <blank length="00:04:24.333"/>
  <entry producer="producer114" in="00:00:00.000" out="00:00:10.333">
   <property name="kdenlive:id">49</property>
  </entry>
  <blank length="00:00:33.467"/>
  <entry producer="producer115" in="00:00:00.000" out="00:00:06.300">
   <property name="kdenlive:id">50</property>
  </entry>
 </playlist>
 <playlist id="playlist23"/>
 <tractor id="tractor11" in="00:00:00.000" out="00:05:14.467">
  <property name="kdenlive:trackheight">69</property>
  <property name="kdenlive:timeline_active">1</property>
  <property name="kdenlive:collapsed">28</property>
  <property name="kdenlive:track_name">chris-handheld-closeups</property>
  <property name="kdenlive:thumbs_format"/>
  <property name="kdenlive:audio_rec"/>
  <property name="kdenlive:locked_track">1</property>
  <track hide="both" producer="playlist22"/>
  <track producer="playlist23"/>
 </tractor>
 <producer id="producer116" in="00:00:00.000" out="00:00:29.533">
  <property name="length">887</property>
  <property name="eof">pause</property>
  <property name="resource">content/musicians/2021-02-06_Caleb+Chris_upright+piano+handheld_mason_MVI_6037-take3_chris_start.mkv</property>
  <property name="audio_index">1</property>
  <property name="video_index">0</property>
  <property name="mute_on_pause">0</property>
  <property name="mlt_service">avformat-novalidate</property>
  <property name="seekable">1</property>
  <property name="aspect_ratio">1</property>
  <property name="kdenlive:clipname"/>
  <property name="kdenlive:folderid">61</property>
  <property name="kdenlive:id">45</property>
  <property name="kdenlive:file_size">116935177</property>
  <property name="kdenlive:file_hash">c5f6b70de407fb3193b8b8ba84404e87</property>
  <property name="kdenlive:audio_max">1</property>
  <property name="global_feed">1</property>
  <property name="xml">was here</property>
  <property name="meta.media.nb_streams">2</property>
  <property name="meta.media.0.stream.type">video</property>
  <property name="meta.media.0.stream.frame_rate">29.97</property>
  <property name="meta.media.0.stream.sample_aspect_ratio">0</property>
  <property name="meta.media.0.codec.width">1280</property>
  <property name="meta.media.0.codec.height">720</property>
  <property name="meta.media.0.codec.rotate">0</property>
  <property name="meta.media.0.codec.frame_rate">1000</property>
  <property name="meta.media.0.codec.pix_fmt">yuvj420p</property>
  <property name="meta.media.0.codec.sample_aspect_ratio">0</property>
  <property name="meta.media.0.codec.colorspace">601</property>
  <property name="meta.media.0.codec.color_trc">1</property>
  <property name="meta.media.0.codec.name">h264</property>
  <property name="meta.media.0.codec.long_name">H.264 / AVC / MPEG-4 AVC / MPEG-4 part 10</property>
  <property name="meta.media.0.codec.bit_rate">0</property>
  <property name="meta.attr.0.stream.language.markup">eng</property>
  <property name="meta.attr.0.stream.DURATION.markup">00:00:29.563000000</property>
  <property name="meta.media.1.stream.type">audio</property>
  <property name="meta.media.1.codec.sample_fmt">s16</property>
  <property name="meta.media.1.codec.sample_rate">48000</property>
  <property name="meta.media.1.codec.channels">1</property>
  <property name="meta.media.1.codec.name">pcm_s16le</property>
  <property name="meta.media.1.codec.long_name">PCM signed 16-bit little-endian</property>
  <property name="meta.media.1.codec.bit_rate">768000</property>
  <property name="meta.attr.1.stream.language.markup">eng</property>
  <property name="meta.attr.1.stream.DURATION.markup">00:00:29.541000000</property>
  <property name="meta.attr.COMPATIBLE_BRANDS.markup">qt  CAEP</property>
  <property name="meta.attr.creation_time.markup">2021-06-02T13:36:54.000000Z</property>
  <property name="meta.attr.MAJOR_BRAND.markup">qt  </property>
  <property name="meta.attr.MINOR_VERSION.markup">537331968</property>
  <property name="meta.attr.ENCODER.markup">Lavf58.45.100</property>
  <property name="meta.media.sample_aspect_num">1</property>
  <property name="meta.media.sample_aspect_den">1</property>
  <property name="meta.media.frame_rate_num">30000</property>
  <property name="meta.media.frame_rate_den">1001</property>
  <property name="meta.media.colorspace">601</property>
  <property name="meta.media.color_trc">1</property>
  <property name="meta.media.width">1280</property>
  <property name="meta.media.height">720</property>
  <property name="meta.media.color_range">full</property>
  <property name="meta.media.top_field_first">0</property>
  <property name="meta.media.progressive">1</property>
  <property name="set.test_audio">1</property>
  <property name="set.test_image">0</property>
 </producer>
 <producer id="producer117" in="00:00:00.000" out="00:00:32.267">
  <property name="length">969</property>
  <property name="eof">pause</property>
  <property name="resource">content/musicians/2021-02-06_Caleb+Chris_upright+piano+handheld_mason_MVI_6037-take3_chris_piano.mkv</property>
  <property name="audio_index">1</property>
  <property name="video_index">0</property>
  <property name="mute_on_pause">0</property>
  <property name="mlt_service">avformat-novalidate</property>
  <property name="seekable">1</property>
  <property name="aspect_ratio">1</property>
  <property name="kdenlive:clipname"/>
  <property name="kdenlive:folderid">61</property>
  <property name="kdenlive:id">44</property>
  <property name="kdenlive:file_size">128994656</property>
  <property name="kdenlive:file_hash">965b7d3396f128cda8f06cc5b720c324</property>
  <property name="kdenlive:audio_max">1</property>
  <property name="global_feed">1</property>
  <property name="xml">was here</property>
  <property name="meta.media.nb_streams">2</property>
  <property name="meta.media.0.stream.type">video</property>
  <property name="meta.media.0.stream.frame_rate">29.97</property>
  <property name="meta.media.0.stream.sample_aspect_ratio">0</property>
  <property name="meta.media.0.codec.width">1280</property>
  <property name="meta.media.0.codec.height">720</property>
  <property name="meta.media.0.codec.rotate">0</property>
  <property name="meta.media.0.codec.frame_rate">1000</property>
  <property name="meta.media.0.codec.pix_fmt">yuvj420p</property>
  <property name="meta.media.0.codec.sample_aspect_ratio">0</property>
  <property name="meta.media.0.codec.colorspace">601</property>
  <property name="meta.media.0.codec.color_trc">1</property>
  <property name="meta.media.0.codec.name">h264</property>
  <property name="meta.media.0.codec.long_name">H.264 / AVC / MPEG-4 AVC / MPEG-4 part 10</property>
  <property name="meta.media.0.codec.bit_rate">0</property>
  <property name="meta.attr.0.stream.language.markup">eng</property>
  <property name="meta.attr.0.stream.DURATION.markup">00:00:32.299000000</property>
  <property name="meta.media.1.stream.type">audio</property>
  <property name="meta.media.1.codec.sample_fmt">s16</property>
  <property name="meta.media.1.codec.sample_rate">48000</property>
  <property name="meta.media.1.codec.channels">1</property>
  <property name="meta.media.1.codec.name">pcm_s16le</property>
  <property name="meta.media.1.codec.long_name">PCM signed 16-bit little-endian</property>
  <property name="meta.media.1.codec.bit_rate">768000</property>
  <property name="meta.attr.1.stream.language.markup">eng</property>
  <property name="meta.attr.1.stream.DURATION.markup">00:00:32.309000000</property>
  <property name="meta.attr.COMPATIBLE_BRANDS.markup">qt  CAEP</property>
  <property name="meta.attr.creation_time.markup">2021-06-02T13:36:54.000000Z</property>
  <property name="meta.attr.MAJOR_BRAND.markup">qt  </property>
  <property name="meta.attr.MINOR_VERSION.markup">537331968</property>
  <property name="meta.attr.ENCODER.markup">Lavf58.45.100</property>
  <property name="meta.media.sample_aspect_num">1</property>
  <property name="meta.media.sample_aspect_den">1</property>
  <property name="meta.media.frame_rate_num">30000</property>
  <property name="meta.media.frame_rate_den">1001</property>
  <property name="meta.media.colorspace">601</property>
  <property name="meta.media.color_trc">1</property>
  <property name="meta.media.width">1280</property>
  <property name="meta.media.height">720</property>
  <property name="meta.media.color_range">full</property>
  <property name="meta.media.top_field_first">0</property>
  <property name="meta.media.progressive">1</property>
  <property name="set.test_audio">1</property>
  <property name="set.test_image">0</property>
 </producer>
 <producer id="producer118" in="00:00:00.000" out="00:01:29.100">
  <property name="length">2674</property>
  <property name="eof">pause</property>
  <property name="resource">content/musicians/2021-02-06_Caleb+Chris_upright+piano+handheld_mason_MVI_6037-take3_chris_end_bass_solo.mkv</property>
  <property name="audio_index">1</property>
  <property name="video_index">0</property>
  <property name="mute_on_pause">0</property>
  <property name="mlt_service">avformat-novalidate</property>
  <property name="seekable">1</property>
  <property name="aspect_ratio">1</property>
  <property name="kdenlive:clipname"/>
  <property name="kdenlive:folderid">61</property>
  <property name="kdenlive:id">43</property>
  <property name="kdenlive:file_size">355294376</property>
  <property name="kdenlive:file_hash">bb352a9871e71843e73ffff91a4206cd</property>
  <property name="kdenlive:audio_max">1</property>
  <property name="global_feed">1</property>
  <property name="xml">was here</property>
  <property name="meta.media.nb_streams">2</property>
  <property name="meta.media.0.stream.type">video</property>
  <property name="meta.media.0.stream.frame_rate">29.97</property>
  <property name="meta.media.0.stream.sample_aspect_ratio">0</property>
  <property name="meta.media.0.codec.width">1280</property>
  <property name="meta.media.0.codec.height">720</property>
  <property name="meta.media.0.codec.rotate">0</property>
  <property name="meta.media.0.codec.frame_rate">1000</property>
  <property name="meta.media.0.codec.pix_fmt">yuvj420p</property>
  <property name="meta.media.0.codec.sample_aspect_ratio">0</property>
  <property name="meta.media.0.codec.colorspace">601</property>
  <property name="meta.media.0.codec.color_trc">1</property>
  <property name="meta.media.0.codec.name">h264</property>
  <property name="meta.media.0.codec.long_name">H.264 / AVC / MPEG-4 AVC / MPEG-4 part 10</property>
  <property name="meta.media.0.codec.bit_rate">0</property>
  <property name="meta.attr.0.stream.language.markup">eng</property>
  <property name="meta.attr.0.stream.DURATION.markup">00:01:29.122000000</property>
  <property name="meta.media.1.stream.type">audio</property>
  <property name="meta.media.1.codec.sample_fmt">s16</property>
  <property name="meta.media.1.codec.sample_rate">48000</property>
  <property name="meta.media.1.codec.channels">1</property>
  <property name="meta.media.1.codec.name">pcm_s16le</property>
  <property name="meta.media.1.codec.long_name">PCM signed 16-bit little-endian</property>
  <property name="meta.media.1.codec.bit_rate">768000</property>
  <property name="meta.attr.1.stream.language.markup">eng</property>
  <property name="meta.attr.1.stream.DURATION.markup">00:01:29.110000000</property>
  <property name="meta.attr.COMPATIBLE_BRANDS.markup">qt  CAEP</property>
  <property name="meta.attr.creation_time.markup">2021-06-02T13:36:54.000000Z</property>
  <property name="meta.attr.MAJOR_BRAND.markup">qt  </property>
  <property name="meta.attr.MINOR_VERSION.markup">537331968</property>
  <property name="meta.attr.ENCODER.markup">Lavf58.45.100</property>
  <property name="meta.media.sample_aspect_num">1</property>
  <property name="meta.media.sample_aspect_den">1</property>
  <property name="meta.media.frame_rate_num">30000</property>
  <property name="meta.media.frame_rate_den">1001</property>
  <property name="meta.media.colorspace">601</property>
  <property name="meta.media.color_trc">1</property>
  <property name="meta.media.width">1280</property>
  <property name="meta.media.height">720</property>
  <property name="meta.media.color_range">full</property>
  <property name="meta.media.top_field_first">0</property>
  <property name="meta.media.progressive">1</property>
  <property name="set.test_audio">1</property>
  <property name="set.test_image">0</property>
 </producer>
 <producer id="producer119" in="00:00:00.000" out="00:00:22.867">
  <property name="length">687</property>
  <property name="eof">pause</property>
  <property name="resource">content/musicians/2021-02-06_Chris_piano+handheld_mason_MVI_6034-unknown_track_near_end.mkv</property>
  <property name="audio_index">1</property>
  <property name="video_index">0</property>
  <property name="mute_on_pause">0</property>
  <property name="mlt_service">avformat-novalidate</property>
  <property name="seekable">1</property>
  <property name="aspect_ratio">1</property>
  <property name="kdenlive:clipname"/>
  <property name="kdenlive:folderid">61</property>
  <property name="kdenlive:id">48</property>
  <property name="kdenlive:file_size">91692753</property>
  <property name="kdenlive:file_hash">7d08439b8fcccae5dda45cbb2e8e2b92</property>
  <property name="kdenlive:audio_max">1</property>
  <property name="global_feed">1</property>
  <property name="xml">was here</property>
  <property name="meta.media.nb_streams">2</property>
  <property name="meta.media.0.stream.type">video</property>
  <property name="meta.media.0.stream.frame_rate">29.97</property>
  <property name="meta.media.0.stream.sample_aspect_ratio">0</property>
  <property name="meta.media.0.codec.width">1280</property>
  <property name="meta.media.0.codec.height">720</property>
  <property name="meta.media.0.codec.rotate">0</property>
  <property name="meta.media.0.codec.frame_rate">1000</property>
  <property name="meta.media.0.codec.pix_fmt">yuvj420p</property>
  <property name="meta.media.0.codec.sample_aspect_ratio">0</property>
  <property name="meta.media.0.codec.colorspace">601</property>
  <property name="meta.media.0.codec.color_trc">1</property>
  <property name="meta.media.0.codec.name">h264</property>
  <property name="meta.media.0.codec.long_name">H.264 / AVC / MPEG-4 AVC / MPEG-4 part 10</property>
  <property name="meta.media.0.codec.bit_rate">0</property>
  <property name="meta.attr.0.stream.language.markup">eng</property>
  <property name="meta.attr.0.stream.DURATION.markup">00:00:22.889000000</property>
  <property name="meta.media.1.stream.type">audio</property>
  <property name="meta.media.1.codec.sample_fmt">s16</property>
  <property name="meta.media.1.codec.sample_rate">48000</property>
  <property name="meta.media.1.codec.channels">1</property>
  <property name="meta.media.1.codec.name">pcm_s16le</property>
  <property name="meta.media.1.codec.long_name">PCM signed 16-bit little-endian</property>
  <property name="meta.media.1.codec.bit_rate">768000</property>
  <property name="meta.attr.1.stream.language.markup">eng</property>
  <property name="meta.attr.1.stream.DURATION.markup">00:00:22.889000000</property>
  <property name="meta.attr.COMPATIBLE_BRANDS.markup">qt  CAEP</property>
  <property name="meta.attr.creation_time.markup">2021-06-02T13:12:22.000000Z</property>
  <property name="meta.attr.MAJOR_BRAND.markup">qt  </property>
  <property name="meta.attr.MINOR_VERSION.markup">537331968</property>
  <property name="meta.attr.ENCODER.markup">Lavf58.45.100</property>
  <property name="meta.media.sample_aspect_num">1</property>
  <property name="meta.media.sample_aspect_den">1</property>
  <property name="meta.media.frame_rate_num">30000</property>
  <property name="meta.media.frame_rate_den">1001</property>
  <property name="meta.media.colorspace">601</property>
  <property name="meta.media.color_trc">1</property>
  <property name="meta.media.width">1280</property>
  <property name="meta.media.height">720</property>
  <property name="meta.media.color_range">full</property>
  <property name="meta.media.top_field_first">0</property>
  <property name="meta.media.progressive">1</property>
  <property name="set.test_audio">1</property>
  <property name="set.test_image">0</property>
 </producer>
 <playlist id="playlist24">
  <blank length="00:00:07.067"/>
  <entry producer="producer116" in="00:00:00.000" out="00:00:29.533">
   <property name="kdenlive:id">45</property>
  </entry>
  <blank length="00:01:16.200"/>
  <entry producer="producer117" in="00:00:00.000" out="00:00:32.267">
   <property name="kdenlive:id">44</property>
  </entry>
  <blank length="00:01:02.800"/>
  <entry producer="producer118" in="00:00:00.000" out="00:01:29.100">
   <property name="kdenlive:id">43</property>
  </entry>
  <blank length="00:00:15.200"/>
  <entry producer="producer119" in="00:00:03.300" out="00:00:14.633">
   <property name="kdenlive:id">48</property>
  </entry>
 </playlist>
 <playlist id="playlist25"/>
 <tractor id="tractor12" in="00:00:00.000" out="00:05:23.600">
  <property name="kdenlive:trackheight">69</property>
  <property name="kdenlive:timeline_active">1</property>
  <property name="kdenlive:collapsed">28</property>
  <property name="kdenlive:track_name">chris-handheld</property>
  <property name="kdenlive:thumbs_format"/>
  <property name="kdenlive:audio_rec"/>
  <property name="kdenlive:locked_track">1</property>
  <track hide="both" producer="playlist24"/>
  <track producer="playlist25"/>
 </tractor>
 <producer id="producer120" in="00:00:00.000" out="00:01:59.433">
  <property name="length">3584</property>
  <property name="eof">pause</property>
  <property name="resource">/home/ryankelln/.cache/kdenlive/proxy/ae9d9a1ea608f68f4887360253e6d40b.mkv</property>
  <property name="audio_index">-1</property>
  <property name="video_index">0</property>
  <property name="mute_on_pause">0</property>
  <property name="mlt_service">avformat-novalidate</property>
  <property name="seekable">1</property>
  <property name="aspect_ratio">1</property>
  <property name="kdenlive:clipname">2021-02-06_21-28-22_Chris_piano_mason_C0021-take5_m125_to_end.MP4</property>
  <property name="kdenlive:folderid">61</property>
  <property name="kdenlive:id">56</property>
  <property name="kdenlive:file_size">740961714</property>
  <property name="kdenlive:file_hash">ae9d9a1ea608f68f4887360253e6d40b</property>
  <property name="kdenlive:proxy">/home/ryankelln/.cache/kdenlive/proxy/ae9d9a1ea608f68f4887360253e6d40b.mkv</property>
  <property name="kdenlive:originalurl">content/musicians/2021-02-06_21-28-22_Chris_piano_mason_C0021-take5_m125_to_end.MP4</property>
  <property name="kdenlive:original.mlt_type">producer</property>
  <property name="kdenlive:original.in">0</property>
  <property name="kdenlive:original.out">3583</property>
  <property name="kdenlive:original.length">3584</property>
  <property name="kdenlive:original.eof">pause</property>
  <property name="kdenlive:original.resource">content/musicians/2021-02-06_21-28-22_Chris_piano_mason_C0021-take5_m125_to_end.MP4</property>
  <property name="kdenlive:original.meta.media.nb_streams">1</property>
  <property name="kdenlive:original.meta.media.0.stream.type">video</property>
  <property name="kdenlive:original.meta.media.0.stream.frame_rate">29.97</property>
  <property name="kdenlive:original.meta.media.0.stream.sample_aspect_ratio">1</property>
  <property name="kdenlive:original.meta.media.0.codec.width">1920</property>
  <property name="kdenlive:original.meta.media.0.codec.height">1080</property>
  <property name="kdenlive:original.meta.media.0.codec.rotate">0</property>
  <property name="kdenlive:original.meta.media.0.codec.frame_rate">29.97</property>
  <property name="kdenlive:original.meta.media.0.codec.pix_fmt">yuv420p</property>
  <property name="kdenlive:original.meta.media.0.codec.sample_aspect_ratio">1</property>
  <property name="kdenlive:original.meta.media.0.codec.colorspace">709</property>
  <property name="kdenlive:original.meta.media.0.codec.color_trc">1</property>
  <property name="kdenlive:original.meta.media.0.codec.name">h264</property>
  <property name="kdenlive:original.meta.media.0.codec.long_name">H.264 / AVC / MPEG-4 AVC / MPEG-4 part 10</property>
  <property name="kdenlive:original.meta.media.0.codec.bit_rate">49620917</property>
  <property name="kdenlive:original.meta.attr.0.stream.creation_time.markup">2021-06-03T21:28:22.000000Z</property>
  <property name="kdenlive:original.meta.attr.0.stream.handler_name.markup">Video Media Handler</property>
  <property name="kdenlive:original.meta.attr.major_brand.markup">isom</property>
  <property name="kdenlive:original.meta.attr.minor_version.markup">512</property>
  <property name="kdenlive:original.meta.attr.compatible_brands.markup">isomiso2avc1mp41</property>
  <property name="kdenlive:original.meta.attr.creation_time.markup">2021-06-03T21:28:22.000000Z</property>
  <property name="kdenlive:original.meta.attr.encoder.markup">Lavf58.45.100</property>
  <property name="kdenlive:original.seekable">1</property>
  <property name="kdenlive:original.width">1920</property>
  <property name="kdenlive:original.height">1080</property>
  <property name="kdenlive:original.meta.media.sample_aspect_num">1</property>
  <property name="kdenlive:original.meta.media.sample_aspect_den">1</property>
  <property name="kdenlive:original.aspect_ratio">1</property>
  <property name="kdenlive:original.audio_index">-1</property>
  <property name="kdenlive:original.video_index">0</property>
  <property name="kdenlive:original.mute_on_pause">0</property>
  <property name="kdenlive:original.mlt_service">avformat-novalidate</property>
  <property name="kdenlive:original.kdenlive:folderid">61</property>
  <property name="kdenlive:original.meta.media.frame_rate_num">30000</property>
  <property name="kdenlive:original.meta.media.frame_rate_den">1001</property>
  <property name="kdenlive:original.meta.media.colorspace">709</property>
  <property name="kdenlive:original.meta.media.color_trc">1</property>
  <property name="kdenlive:original.meta.media.width">1920</property>
  <property name="kdenlive:original.meta.media.height">1080</property>
  <property name="kdenlive:original.meta.media.color_range">mpeg</property>
  <property name="kdenlive:original.kdenlive:id">82</property>
  <property name="kdenlive:original.kdenlive:file_size">740961714</property>
  <property name="kdenlive:original.kdenlive:file_hash">ae9d9a1ea608f68f4887360253e6d40b</property>
  <property name="kdenlive:original.backup">1</property>
  <property name="global_feed">1</property>
  <property name="xml">was here</property>
  <property name="meta.media.nb_streams">1</property>
  <property name="meta.media.0.stream.type">video</property>
  <property name="meta.media.0.stream.frame_rate">29.97</property>
  <property name="meta.media.0.stream.sample_aspect_ratio">1</property>
  <property name="meta.media.0.codec.width">640</property>
  <property name="meta.media.0.codec.height">360</property>
  <property name="meta.media.0.codec.rotate">0</property>
  <property name="meta.media.0.codec.frame_rate">1000</property>
  <property name="meta.media.0.codec.pix_fmt">yuvj420p</property>
  <property name="meta.media.0.codec.sample_aspect_ratio">1</property>
  <property name="meta.media.0.codec.colorspace">601</property>
  <property name="meta.media.0.codec.name">mjpeg</property>
  <property name="meta.media.0.codec.long_name">MJPEG (Motion JPEG)</property>
  <property name="meta.media.0.codec.bit_rate">0</property>
  <property name="meta.attr.0.stream.HANDLER_NAME.markup">Video Media Handler</property>
  <property name="meta.attr.0.stream.ENCODER.markup">Lavc58.91.100 mjpeg</property>
  <property name="meta.attr.0.stream.DURATION.markup">00:01:59.452000000</property>
  <property name="meta.attr.COMPATIBLE_BRANDS.markup">isomiso2avc1mp41</property>
  <property name="meta.attr.MAJOR_BRAND.markup">isom</property>
  <property name="meta.attr.MINOR_VERSION.markup">512</property>
  <property name="meta.attr.ENCODER.markup">Lavf58.45.100</property>
  <property name="meta.media.sample_aspect_num">1</property>
  <property name="meta.media.sample_aspect_den">1</property>
  <property name="meta.media.frame_rate_num">30000</property>
  <property name="meta.media.frame_rate_den">1001</property>
  <property name="meta.media.colorspace">601</property>
  <property name="meta.media.color_trc">2</property>
  <property name="meta.media.width">640</property>
  <property name="meta.media.height">360</property>
  <property name="meta.media.color_range">full</property>
  <property name="meta.media.top_field_first">0</property>
  <property name="meta.media.progressive">1</property>
  <property name="set.test_audio">1</property>
  <property name="set.test_image">0</property>
 </producer>
 <producer id="producer121" in="00:00:00.000" out="00:00:27.033">
  <property name="length">812</property>
  <property name="eof">pause</property>
  <property name="resource">/home/ryankelln/.cache/kdenlive/proxy/e1edf7bf1bc039ef50e617f39e19f001.mkv</property>
  <property name="audio_index">-1</property>
  <property name="video_index">0</property>
  <property name="mute_on_pause">0</property>
  <property name="mlt_service">avformat-novalidate</property>
  <property name="seekable">1</property>
  <property name="aspect_ratio">1</property>
  <property name="kdenlive:clipname">2021-02-06_21-28-22_Chris_piano_mason_C0021-take6_end.MP4</property>
  <property name="kdenlive:folderid">61</property>
  <property name="kdenlive:id">57</property>
  <property name="kdenlive:file_size">168403164</property>
  <property name="kdenlive:file_hash">e1edf7bf1bc039ef50e617f39e19f001</property>
  <property name="kdenlive:proxy">/home/ryankelln/.cache/kdenlive/proxy/e1edf7bf1bc039ef50e617f39e19f001.mkv</property>
  <property name="kdenlive:originalurl">content/musicians/2021-02-06_21-28-22_Chris_piano_mason_C0021-take6_end.MP4</property>
  <property name="kdenlive:original.mlt_type">producer</property>
  <property name="kdenlive:original.in">0</property>
  <property name="kdenlive:original.out">811</property>
  <property name="kdenlive:original.length">812</property>
  <property name="kdenlive:original.eof">pause</property>
  <property name="kdenlive:original.resource">content/musicians/2021-02-06_21-28-22_Chris_piano_mason_C0021-take6_end.MP4</property>
  <property name="kdenlive:original.meta.media.nb_streams">1</property>
  <property name="kdenlive:original.meta.media.0.stream.type">video</property>
  <property name="kdenlive:original.meta.media.0.stream.frame_rate">29.97</property>
  <property name="kdenlive:original.meta.media.0.stream.sample_aspect_ratio">1</property>
  <property name="kdenlive:original.meta.media.0.codec.width">1920</property>
  <property name="kdenlive:original.meta.media.0.codec.height">1080</property>
  <property name="kdenlive:original.meta.media.0.codec.rotate">0</property>
  <property name="kdenlive:original.meta.media.0.codec.frame_rate">29.97</property>
  <property name="kdenlive:original.meta.media.0.codec.pix_fmt">yuv420p</property>
  <property name="kdenlive:original.meta.media.0.codec.sample_aspect_ratio">1</property>
  <property name="kdenlive:original.meta.media.0.codec.colorspace">709</property>
  <property name="kdenlive:original.meta.media.0.codec.color_trc">1</property>
  <property name="kdenlive:original.meta.media.0.codec.name">h264</property>
  <property name="kdenlive:original.meta.media.0.codec.long_name">H.264 / AVC / MPEG-4 AVC / MPEG-4 part 10</property>
  <property name="kdenlive:original.meta.media.0.codec.bit_rate">49782730</property>
  <property name="kdenlive:original.meta.attr.0.stream.creation_time.markup">2021-06-03T21:28:22.000000Z</property>
  <property name="kdenlive:original.meta.attr.0.stream.handler_name.markup">Video Media Handler</property>
  <property name="kdenlive:original.meta.attr.major_brand.markup">isom</property>
  <property name="kdenlive:original.meta.attr.minor_version.markup">512</property>
  <property name="kdenlive:original.meta.attr.compatible_brands.markup">isomiso2avc1mp41</property>
  <property name="kdenlive:original.meta.attr.creation_time.markup">2021-06-03T21:28:22.000000Z</property>
  <property name="kdenlive:original.meta.attr.encoder.markup">Lavf58.45.100</property>
  <property name="kdenlive:original.seekable">1</property>
  <property name="kdenlive:original.width">1920</property>
  <property name="kdenlive:original.height">1080</property>
  <property name="kdenlive:original.meta.media.sample_aspect_num">1</property>
  <property name="kdenlive:original.meta.media.sample_aspect_den">1</property>
  <property name="kdenlive:original.aspect_ratio">1</property>
  <property name="kdenlive:original.audio_index">-1</property>
  <property name="kdenlive:original.video_index">0</property>
  <property name="kdenlive:original.mute_on_pause">0</property>
  <property name="kdenlive:original.mlt_service">avformat-novalidate</property>
  <property name="kdenlive:original.kdenlive:folderid">61</property>
  <property name="kdenlive:original.meta.media.frame_rate_num">30000</property>
  <property name="kdenlive:original.meta.media.frame_rate_den">1001</property>
  <property name="kdenlive:original.meta.media.colorspace">709</property>
  <property name="kdenlive:original.meta.media.color_trc">1</property>
  <property name="kdenlive:original.meta.media.width">1920</property>
  <property name="kdenlive:original.meta.media.height">1080</property>
  <property name="kdenlive:original.meta.media.color_range">mpeg</property>
  <property name="kdenlive:original.kdenlive:id">83</property>
  <property name="kdenlive:original.kdenlive:file_size">168403164</property>
  <property name="kdenlive:original.kdenlive:file_hash">e1edf7bf1bc039ef50e617f39e19f001</property>
  <property name="kdenlive:original.backup">1</property>
  <property name="global_feed">1</property>
  <property name="xml">was here</property>
  <property name="meta.media.nb_streams">1</property>
  <property name="meta.media.0.stream.type">video</property>
  <property name="meta.media.0.stream.frame_rate">29.97</property>
  <property name="meta.media.0.stream.sample_aspect_ratio">1</property>
  <property name="meta.media.0.codec.width">640</property>
  <property name="meta.media.0.codec.height">360</property>
  <property name="meta.media.0.codec.rotate">0</property>
  <property name="meta.media.0.codec.frame_rate">1000</property>
  <property name="meta.media.0.codec.pix_fmt">yuvj420p</property>
  <property name="meta.media.0.codec.sample_aspect_ratio">1</property>
  <property name="meta.media.0.codec.colorspace">601</property>
  <property name="meta.media.0.codec.name">mjpeg</property>
  <property name="meta.media.0.codec.long_name">MJPEG (Motion JPEG)</property>
  <property name="meta.media.0.codec.bit_rate">0</property>
  <property name="meta.attr.0.stream.HANDLER_NAME.markup">Video Media Handler</property>
  <property name="meta.attr.0.stream.ENCODER.markup">Lavc58.91.100 mjpeg</property>
  <property name="meta.attr.0.stream.DURATION.markup">00:00:27.060000000</property>
  <property name="meta.attr.COMPATIBLE_BRANDS.markup">isomiso2avc1mp41</property>
  <property name="meta.attr.MAJOR_BRAND.markup">isom</property>
  <property name="meta.attr.MINOR_VERSION.markup">512</property>
  <property name="meta.attr.ENCODER.markup">Lavf58.45.100</property>
  <property name="meta.media.sample_aspect_num">1</property>
  <property name="meta.media.sample_aspect_den">1</property>
  <property name="meta.media.frame_rate_num">30000</property>
  <property name="meta.media.frame_rate_den">1001</property>
  <property name="meta.media.colorspace">601</property>
  <property name="meta.media.color_trc">2</property>
  <property name="meta.media.width">640</property>
  <property name="meta.media.height">360</property>
  <property name="meta.media.color_range">full</property>
  <property name="meta.media.top_field_first">0</property>
  <property name="meta.media.progressive">1</property>
  <property name="set.test_audio">1</property>
  <property name="set.test_image">0</property>
 </producer>
 <playlist id="playlist26">
  <blank length="00:03:58.300"/>
  <entry producer="producer120" in="00:00:00.000" out="00:01:56.133">
   <property name="kdenlive:id">56</property>
  </entry>
  <entry producer="producer121" in="00:00:23.033" out="00:00:27.033">
   <property name="kdenlive:id">57</property>
  </entry>
 </playlist>
 <playlist id="playlist27"/>
 <tractor id="tractor13" in="00:00:00.000" out="00:05:58.467">
  <property name="kdenlive:trackheight">69</property>
  <property name="kdenlive:timeline_active">1</property>
  <property name="kdenlive:collapsed">28</property>
  <property name="kdenlive:track_name">chris-closeup</property>
  <property name="kdenlive:thumbs_format"/>
  <property name="kdenlive:audio_rec"/>
  <property name="kdenlive:locked_track">1</property>
  <track hide="both" producer="playlist26"/>
  <track producer="playlist27"/>
 </tractor>
 <producer id="producer122" in="00:00:00.000" out="00:02:00.067">
  <property name="length">3603</property>
  <property name="eof">pause</property>
  <property name="resource">/home/ryankelln/.cache/kdenlive/proxy/9fb1dfa301d209bebd5e4f1097ec11b4.mkv</property>
  <property name="audio_index">1</property>
  <property name="video_index">0</property>
  <property name="mute_on_pause">0</property>
  <property name="mlt_service">avformat-novalidate</property>
  <property name="seekable">1</property>
  <property name="aspect_ratio">1</property>
  <property name="kdenlive:clipname">2021-02-06_Chris_piano_4k_mason_P1180165-take5_m125_to_end.MP4</property>
  <property name="kdenlive:folderid">61</property>
  <property name="kdenlive:id">51</property>
  <property name="kdenlive:file_size">1439613507</property>
  <property name="kdenlive:file_hash">9fb1dfa301d209bebd5e4f1097ec11b4</property>
  <property name="kdenlive:proxy">/home/ryankelln/.cache/kdenlive/proxy/9fb1dfa301d209bebd5e4f1097ec11b4.mkv</property>
  <property name="kdenlive:originalurl">content/musicians/2021-02-06_Chris_piano_4k_mason_P1180165-take5_m125_to_end.MP4</property>
  <property name="kdenlive:original.mlt_type">producer</property>
  <property name="kdenlive:original.in">0</property>
  <property name="kdenlive:original.out">3602</property>
  <property name="kdenlive:original.length">3603</property>
  <property name="kdenlive:original.eof">pause</property>
  <property name="kdenlive:original.resource">content/musicians/2021-02-06_Chris_piano_4k_mason_P1180165-take5_m125_to_end.MP4</property>
  <property name="kdenlive:original.meta.media.nb_streams">2</property>
  <property name="kdenlive:original.meta.media.0.stream.type">video</property>
  <property name="kdenlive:original.meta.media.0.stream.frame_rate">29.97</property>
  <property name="kdenlive:original.meta.media.0.stream.sample_aspect_ratio">1</property>
  <property name="kdenlive:original.meta.media.0.codec.width">3840</property>
  <property name="kdenlive:original.meta.media.0.codec.height">2160</property>
  <property name="kdenlive:original.meta.media.0.codec.rotate">0</property>
  <property name="kdenlive:original.meta.media.0.codec.frame_rate">29.97</property>
  <property name="kdenlive:original.meta.media.0.codec.pix_fmt">yuvj420p</property>
  <property name="kdenlive:original.meta.media.0.codec.sample_aspect_ratio">1</property>
  <property name="kdenlive:original.meta.media.0.codec.colorspace">709</property>
  <property name="kdenlive:original.meta.media.0.codec.color_trc">1</property>
  <property name="kdenlive:original.meta.media.0.codec.name">h264</property>
  <property name="kdenlive:original.meta.media.0.codec.long_name">H.264 / AVC / MPEG-4 AVC / MPEG-4 part 10</property>
  <property name="kdenlive:original.meta.media.0.codec.bit_rate">95797647</property>
  <property name="kdenlive:original.meta.attr.0.stream.creation_time.markup">2021-06-02T16:38:20.000000Z</property>
  <property name="kdenlive:original.meta.attr.0.stream.handler_name.markup">VideoHandler</property>
  <property name="kdenlive:original.meta.media.1.stream.type">audio</property>
  <property name="kdenlive:original.meta.media.1.codec.sample_fmt">fltp</property>
  <property name="kdenlive:original.meta.media.1.codec.sample_rate">48000</property>
  <property name="kdenlive:original.meta.media.1.codec.channels">2</property>
  <property name="kdenlive:original.meta.media.1.codec.name">aac</property>
  <property name="kdenlive:original.meta.media.1.codec.long_name">AAC (Advanced Audio Coding)</property>
  <property name="kdenlive:original.meta.media.1.codec.bit_rate">125376</property>
  <property name="kdenlive:original.meta.attr.1.stream.creation_time.markup">2021-06-02T16:38:20.000000Z</property>
  <property name="kdenlive:original.meta.attr.1.stream.handler_name.markup">SoundHandler</property>
  <property name="kdenlive:original.meta.attr.major_brand.markup">isom</property>
  <property name="kdenlive:original.meta.attr.minor_version.markup">512</property>
  <property name="kdenlive:original.meta.attr.compatible_brands.markup">isomiso2avc1mp41</property>
  <property name="kdenlive:original.meta.attr.creation_time.markup">2021-06-02T16:38:20.000000Z</property>
  <property name="kdenlive:original.meta.attr.encoder.markup">Lavf58.45.100</property>
  <property name="kdenlive:original.seekable">1</property>
  <property name="kdenlive:original.width">3840</property>
  <property name="kdenlive:original.height">2160</property>
  <property name="kdenlive:original.meta.media.sample_aspect_num">1</property>
  <property name="kdenlive:original.meta.media.sample_aspect_den">1</property>
  <property name="kdenlive:original.aspect_ratio">1</property>
  <property name="kdenlive:original.audio_index">1</property>
  <property name="kdenlive:original.video_index">0</property>
  <property name="kdenlive:original.mute_on_pause">0</property>
  <property name="kdenlive:original.mlt_service">avformat-novalidate</property>
  <property name="kdenlive:original.kdenlive:folderid">61</property>
  <property name="kdenlive:original.meta.media.frame_rate_num">30000</property>
  <property name="kdenlive:original.meta.media.frame_rate_den">1001</property>
  <property name="kdenlive:original.meta.media.colorspace">709</property>
  <property name="kdenlive:original.meta.media.color_trc">1</property>
  <property name="kdenlive:original.meta.media.width">3840</property>
  <property name="kdenlive:original.meta.media.height">2160</property>
  <property name="kdenlive:original.meta.media.color_range">full</property>
  <property name="kdenlive:original.kdenlive:id">77</property>
  <property name="kdenlive:original.kdenlive:file_size">1439613507</property>
  <property name="kdenlive:original.kdenlive:file_hash">9fb1dfa301d209bebd5e4f1097ec11b4</property>
  <property name="kdenlive:original.backup">1</property>
  <property name="kdenlive:audio_max">1</property>
  <property name="global_feed">1</property>
  <property name="xml">was here</property>
  <property name="meta.media.nb_streams">2</property>
  <property name="meta.media.0.stream.type">video</property>
  <property name="meta.media.0.stream.frame_rate">29.97</property>
  <property name="meta.media.0.stream.sample_aspect_ratio">1</property>
  <property name="meta.media.0.codec.width">640</property>
  <property name="meta.media.0.codec.height">360</property>
  <property name="meta.media.0.codec.rotate">0</property>
  <property name="meta.media.0.codec.frame_rate">1000</property>
  <property name="meta.media.0.codec.pix_fmt">yuvj420p</property>
  <property name="meta.media.0.codec.sample_aspect_ratio">1</property>
  <property name="meta.media.0.codec.colorspace">601</property>
  <property name="meta.media.0.codec.name">mjpeg</property>
  <property name="meta.media.0.codec.long_name">MJPEG (Motion JPEG)</property>
  <property name="meta.media.0.codec.bit_rate">0</property>
  <property name="meta.attr.0.stream.HANDLER_NAME.markup">VideoHandler</property>
  <property name="meta.attr.0.stream.ENCODER.markup">Lavc58.91.100 mjpeg</property>
  <property name="meta.attr.0.stream.DURATION.markup">00:02:00.186000000</property>
  <property name="meta.media.1.stream.type">audio</property>
  <property name="meta.media.1.codec.sample_fmt">s16</property>
  <property name="meta.media.1.codec.sample_rate">48000</property>
  <property name="meta.media.1.codec.channels">2</property>
  <property name="meta.media.1.codec.name">pcm_s16le</property>
  <property name="meta.media.1.codec.long_name">PCM signed 16-bit little-endian</property>
  <property name="meta.media.1.codec.bit_rate">1536000</property>
  <property name="meta.attr.1.stream.HANDLER_NAME.markup">SoundHandler</property>
  <property name="meta.attr.1.stream.ENCODER.markup">Lavc58.91.100 pcm_s16le</property>
  <property name="meta.attr.1.stream.DURATION.markup">00:02:00.085000000</property>
  <property name="meta.attr.COMPATIBLE_BRANDS.markup">isomiso2avc1mp41</property>
  <property name="meta.attr.MAJOR_BRAND.markup">isom</property>
  <property name="meta.attr.MINOR_VERSION.markup">512</property>
  <property name="meta.attr.ENCODER.markup">Lavf58.45.100</property>
  <property name="meta.media.sample_aspect_num">1</property>
  <property name="meta.media.sample_aspect_den">1</property>
  <property name="meta.media.frame_rate_num">30000</property>
  <property name="meta.media.frame_rate_den">1001</property>
  <property name="meta.media.colorspace">601</property>
  <property name="meta.media.color_trc">2</property>
  <property name="meta.media.width">640</property>
  <property name="meta.media.height">360</property>
  <property name="meta.media.color_range">full</property>
  <property name="meta.media.top_field_first">0</property>
  <property name="meta.media.progressive">1</property>
  <property name="set.test_audio">1</property>
  <property name="set.test_image">0</property>
 </producer>
 <producer id="producer123" in="00:00:00.000" out="00:00:26.367">
  <property name="length">792</property>
  <property name="eof">pause</property>
  <property name="resource">/home/ryankelln/.cache/kdenlive/proxy/6da48a5fe5b9fead5eebc54a8e6b3694.mkv</property>
  <property name="audio_index">1</property>
  <property name="video_index">0</property>
  <property name="mute_on_pause">0</property>
  <property name="mlt_service">avformat-novalidate</property>
  <property name="seekable">1</property>
  <property name="aspect_ratio">1</property>
  <property name="kdenlive:clipname">2021-02-06_Chris_piano_4k_mason_P1180165-take6_end-merged.MP4</property>
  <property name="kdenlive:folderid">61</property>
  <property name="kdenlive:id">52</property>
  <property name="kdenlive:file_size">317250687</property>
  <property name="kdenlive:file_hash">6da48a5fe5b9fead5eebc54a8e6b3694</property>
  <property name="kdenlive:proxy">/home/ryankelln/.cache/kdenlive/proxy/6da48a5fe5b9fead5eebc54a8e6b3694.mkv</property>
  <property name="kdenlive:originalurl">content/musicians/2021-02-06_Chris_piano_4k_mason_P1180165-take6_end-merged.MP4</property>
  <property name="kdenlive:original.mlt_type">producer</property>
  <property name="kdenlive:original.in">0</property>
  <property name="kdenlive:original.out">791</property>
  <property name="kdenlive:original.length">792</property>
  <property name="kdenlive:original.eof">pause</property>
  <property name="kdenlive:original.resource">content/musicians/2021-02-06_Chris_piano_4k_mason_P1180165-take6_end-merged.MP4</property>
  <property name="kdenlive:original.meta.media.nb_streams">2</property>
  <property name="kdenlive:original.meta.media.0.stream.type">video</property>
  <property name="kdenlive:original.meta.media.0.stream.frame_rate">29.97</property>
  <property name="kdenlive:original.meta.media.0.stream.sample_aspect_ratio">1</property>
  <property name="kdenlive:original.meta.media.0.codec.width">3840</property>
  <property name="kdenlive:original.meta.media.0.codec.height">2160</property>
  <property name="kdenlive:original.meta.media.0.codec.rotate">0</property>
  <property name="kdenlive:original.meta.media.0.codec.frame_rate">29.97</property>
  <property name="kdenlive:original.meta.media.0.codec.pix_fmt">yuvj420p</property>
  <property name="kdenlive:original.meta.media.0.codec.sample_aspect_ratio">1</property>
  <property name="kdenlive:original.meta.media.0.codec.colorspace">709</property>
  <property name="kdenlive:original.meta.media.0.codec.color_trc">1</property>
  <property name="kdenlive:original.meta.media.0.codec.name">h264</property>
  <property name="kdenlive:original.meta.media.0.codec.long_name">H.264 / AVC / MPEG-4 AVC / MPEG-4 part 10</property>
  <property name="kdenlive:original.meta.media.0.codec.bit_rate">96149115</property>
  <property name="kdenlive:original.meta.attr.0.stream.handler_name.markup">VideoHandler</property>
  <property name="kdenlive:original.meta.media.1.stream.type">audio</property>
  <property name="kdenlive:original.meta.media.1.codec.sample_fmt">fltp</property>
  <property name="kdenlive:original.meta.media.1.codec.sample_rate">48000</property>
  <property name="kdenlive:original.meta.media.1.codec.channels">2</property>
  <property name="kdenlive:original.meta.media.1.codec.name">aac</property>
  <property name="kdenlive:original.meta.media.1.codec.long_name">AAC (Advanced Audio Coding)</property>
  <property name="kdenlive:original.meta.media.1.codec.bit_rate">125406</property>
  <property name="kdenlive:original.meta.attr.1.stream.handler_name.markup">SoundHandler</property>
  <property name="kdenlive:original.meta.attr.major_brand.markup">isom</property>
  <property name="kdenlive:original.meta.attr.minor_version.markup">512</property>
  <property name="kdenlive:original.meta.attr.compatible_brands.markup">isomiso2avc1mp41</property>
  <property name="kdenlive:original.meta.attr.encoder.markup">Lavf58.45.100</property>
  <property name="kdenlive:original.seekable">1</property>
  <property name="kdenlive:original.width">3840</property>
  <property name="kdenlive:original.height">2160</property>
  <property name="kdenlive:original.meta.media.sample_aspect_num">1</property>
  <property name="kdenlive:original.meta.media.sample_aspect_den">1</property>
  <property name="kdenlive:original.aspect_ratio">1</property>
  <property name="kdenlive:original.audio_index">1</property>
  <property name="kdenlive:original.video_index">0</property>
  <property name="kdenlive:original.mute_on_pause">0</property>
  <property name="kdenlive:original.mlt_service">avformat-novalidate</property>
  <property name="kdenlive:original.kdenlive:folderid">61</property>
  <property name="kdenlive:original.meta.media.frame_rate_num">30000</property>
  <property name="kdenlive:original.meta.media.frame_rate_den">1001</property>
  <property name="kdenlive:original.meta.media.colorspace">709</property>
  <property name="kdenlive:original.meta.media.color_trc">1</property>
  <property name="kdenlive:original.meta.media.width">3840</property>
  <property name="kdenlive:original.meta.media.height">2160</property>
  <property name="kdenlive:original.meta.media.color_range">full</property>
  <property name="kdenlive:original.kdenlive:id">78</property>
  <property name="kdenlive:original.kdenlive:file_size">317250687</property>
  <property name="kdenlive:original.kdenlive:file_hash">6da48a5fe5b9fead5eebc54a8e6b3694</property>
  <property name="kdenlive:original.backup">1</property>
  <property name="kdenlive:audio_max">1</property>
  <property name="global_feed">1</property>
  <property name="xml">was here</property>
  <property name="meta.media.nb_streams">2</property>
  <property name="meta.media.0.stream.type">video</property>
  <property name="meta.media.0.stream.frame_rate">29.97</property>
  <property name="meta.media.0.stream.sample_aspect_ratio">1</property>
  <property name="meta.media.0.codec.width">640</property>
  <property name="meta.media.0.codec.height">360</property>
  <property name="meta.media.0.codec.rotate">0</property>
  <property name="meta.media.0.codec.frame_rate">1000</property>
  <property name="meta.media.0.codec.pix_fmt">yuvj420p</property>
  <property name="meta.media.0.codec.sample_aspect_ratio">1</property>
  <property name="meta.media.0.codec.colorspace">601</property>
  <property name="meta.media.0.codec.name">mjpeg</property>
  <property name="meta.media.0.codec.long_name">MJPEG (Motion JPEG)</property>
  <property name="meta.media.0.codec.bit_rate">0</property>
  <property name="meta.attr.0.stream.HANDLER_NAME.markup">VideoHandler</property>
  <property name="meta.attr.0.stream.ENCODER.markup">Lavc58.91.100 mjpeg</property>
  <property name="meta.attr.0.stream.DURATION.markup">00:00:26.459000000</property>
  <property name="meta.media.1.stream.type">audio</property>
  <property name="meta.media.1.codec.sample_fmt">s16</property>
  <property name="meta.media.1.codec.sample_rate">48000</property>
  <property name="meta.media.1.codec.channels">2</property>
  <property name="meta.media.1.codec.name">pcm_s16le</property>
  <property name="meta.media.1.codec.long_name">PCM signed 16-bit little-endian</property>
  <property name="meta.media.1.codec.bit_rate">1536000</property>
  <property name="meta.attr.1.stream.HANDLER_NAME.markup">SoundHandler</property>
  <property name="meta.attr.1.stream.ENCODER.markup">Lavc58.91.100 pcm_s16le</property>
  <property name="meta.attr.1.stream.DURATION.markup">00:00:26.383000000</property>
  <property name="meta.attr.COMPATIBLE_BRANDS.markup">isomiso2avc1mp41</property>
  <property name="meta.attr.MAJOR_BRAND.markup">isom</property>
  <property name="meta.attr.MINOR_VERSION.markup">512</property>
  <property name="meta.attr.ENCODER.markup">Lavf58.45.100</property>
  <property name="meta.media.sample_aspect_num">1</property>
  <property name="meta.media.sample_aspect_den">1</property>
  <property name="meta.media.frame_rate_num">30000</property>
  <property name="meta.media.frame_rate_den">1001</property>
  <property name="meta.media.colorspace">601</property>
  <property name="meta.media.color_trc">2</property>
  <property name="meta.media.width">640</property>
  <property name="meta.media.height">360</property>
  <property name="meta.media.color_range">full</property>
  <property name="meta.media.top_field_first">0</property>
  <property name="meta.media.progressive">1</property>
  <property name="set.test_audio">1</property>
  <property name="set.test_image">0</property>
 </producer>
 <playlist id="playlist28">
  <blank length="00:03:58.400"/>
  <entry producer="producer122" in="00:00:00.000" out="00:01:38.833">
   <property name="kdenlive:id">51</property>
  </entry>
  <blank length="00:00:13.033"/>
  <entry producer="producer123" in="00:00:18.567" out="00:00:26.367">
   <property name="kdenlive:id">52</property>
  </entry>
 </playlist>
 <playlist id="playlist29"/>
 <tractor id="tractor14" in="00:00:00.000" out="00:05:58.100">
  <property name="kdenlive:trackheight">69</property>
  <property name="kdenlive:timeline_active">1</property>
  <property name="kdenlive:collapsed">28</property>
  <property name="kdenlive:track_name">chris-4k</property>
  <property name="kdenlive:thumbs_format"/>
  <property name="kdenlive:audio_rec"/>
  <property name="kdenlive:locked_track">1</property>
  <track hide="both" producer="playlist28"/>
  <track producer="playlist29"/>
 </tractor>
 <tractor id="tractor15" global_feed="1" in="00:00:00.000" out="00:32:48.100">
  <track producer="black_track"/>
  <track producer="tractor0"/>
  <track producer="tractor1"/>
  <track producer="tractor2"/>
  <track producer="tractor3"/>
  <track producer="tractor4"/>
  <track producer="tractor5"/>
  <track producer="tractor6"/>
  <track producer="tractor7"/>
  <track producer="tractor8"/>
  <track producer="tractor9"/>
  <track producer="tractor10"/>
  <track producer="tractor11"/>
  <track producer="tractor12"/>
  <track producer="tractor13"/>
  <track producer="tractor14"/>
  <transition id="transition0" in="00:13:01.867" out="00:13:31.433">
   <property name="a_track">5</property>
   <property name="b_track">6</property>
   <property name="version">0.9</property>
   <property name="mlt_service">frei0r.cairoblend</property>
   <property name="kdenlive_id">frei0r.cairoblend</property>
   <property name="0">00:00:00.000=0.82</property>
   <property name="1">screen</property>
  </transition>
  <transition id="transition1" in="00:12:11.700" out="00:12:26.533">
   <property name="a_track">5</property>
   <property name="b_track">6</property>
   <property name="mlt_service">matte</property>
   <property name="kdenlive_id">matte</property>
   <property name="force_track">1</property>
  </transition>
  <transition id="transition2" in="00:12:26.533" out="00:13:31.433">
   <property name="a_track">4</property>
   <property name="b_track">5</property>
   <property name="rect">00:00:00.000=-96 -54 2112 1188 1.000000</property>
   <property name="compositing">17</property>
   <property name="distort">0</property>
   <property name="rotate_center">1</property>
   <property name="mlt_service">qtblend</property>
   <property name="kdenlive_id">qtblend</property>
   <property name="rotation">00:00:00.000=0</property>
  </transition>
  <transition id="transition3" in="00:10:59.933" out="00:11:02.900">
   <property name="a_track">4</property>
   <property name="b_track">5</property>
   <property name="start">0/0:100%x100%</property>
   <property name="factory">loader</property>
   <property name="aligned">0</property>
   <property name="progressive">1</property>
   <property name="mlt_service">composite</property>
   <property name="kdenlive_id">wipe</property>
   <property name="softness">0</property>
   <property name="luma"/>
   <property name="luma_invert">0</property>
   <property name="geometry">0%/0%:100%x100%:0;-1=0%/0%:100%x100%:100</property>
   <property name="fill">1</property>
  </transition>
  <transition id="transition4" in="00:13:31.467" out="00:14:08.533">
   <property name="a_track">4</property>
   <property name="b_track">5</property>
   <property name="version">0.9</property>
   <property name="mlt_service">frei0r.cairoblend</property>
   <property name="kdenlive_id">frei0r.cairoblend</property>
   <property name="0">00:00:00.000=0.76</property>
   <property name="1">softlight</property>
  </transition>
  <transition id="transition5" in="00:11:56.800" out="00:12:11.600">
   <property name="a_track">4</property>
   <property name="b_track">5</property>
   <property name="rect">00:00:00.000=0 0 1920 1080 1</property>
   <property name="compositing">12</property>
   <property name="distort">0</property>
   <property name="rotate_center">1</property>
   <property name="mlt_service">qtblend</property>
   <property name="kdenlive_id">qtblend</property>
   <property name="rotation">00:00:00.000=0</property>
  </transition>
  <transition id="transition6" in="00:15:38.300" out="00:16:08.067">
   <property name="a_track">4</property>
   <property name="b_track">5</property>
   <property name="rect">00:00:00.000=0 0 1920 1080 0.650000</property>
   <property name="compositing">17</property>
   <property name="distort">0</property>
   <property name="rotate_center">1</property>
   <property name="mlt_service">qtblend</property>
   <property name="kdenlive_id">qtblend</property>
   <property name="rotation">00:00:00.000=0</property>
  </transition>
  <transition id="transition7" in="00:14:30.200" out="00:14:59.467">
   <property name="a_track">4</property>
   <property name="b_track">5</property>
   <property name="rect">00:00:00.000=-768 -432 3456 1944 0.200000</property>
   <property name="compositing">14</property>
   <property name="distort">0</property>
   <property name="rotate_center">1</property>
   <property name="mlt_service">qtblend</property>
   <property name="kdenlive_id">qtblend</property>
   <property name="rotation">00:00:00.000=0</property>
  </transition>
  <transition id="transition8" in="00:14:08.567" out="00:14:26.133">
   <property name="a_track">4</property>
   <property name="b_track">5</property>
   <property name="version">0.9</property>
   <property name="mlt_service">frei0r.cairoblend</property>
   <property name="kdenlive_id">frei0r.cairoblend</property>
   <property name="0">00:00:00.000=0.74</property>
   <property name="1">lighten</property>
  </transition>
  <transition id="transition9" in="00:13:31.467" out="00:13:57.767">
   <property name="a_track">4</property>
   <property name="b_track">6</property>
   <property name="version">0.9</property>
   <property name="mlt_service">frei0r.cairoblend</property>
   <property name="kdenlive_id">frei0r.cairoblend</property>
   <property name="force_track">1</property>
   <property name="0">00:00:00.000=0.26</property>
   <property name="1">lighten</property>
  </transition>
  <transition id="transition10" in="00:11:56.833" out="00:12:11.667">
   <property name="a_track">3</property>
   <property name="b_track">4</property>
   <property name="version">0.9</property>
   <property name="mlt_service">frei0r.cairoblend</property>
   <property name="kdenlive_id">frei0r.cairoblend</property>
   <property name="0">00:00:00.000=100</property>
   <property name="1">hardlight</property>
  </transition>
  <transition id="transition11" in="00:10:41.933" out="00:10:57.800">
   <property name="a_track">3</property>
   <property name="b_track">4</property>
   <property name="rect">00:00:00.000=0 0 1920 1080 1</property>
   <property name="compositing">14</property>
   <property name="distort">0</property>
   <property name="rotate_center">1</property>
   <property name="mlt_service">qtblend</property>
   <property name="kdenlive_id">qtblend</property>
   <property name="rotation">00:00:00.000=0</property>
  </transition>
  <transition id="transition12" in="00:10:00.333" out="00:10:27.567">
   <property name="a_track">3</property>
   <property name="b_track">4</property>
   <property name="version">0.9</property>
   <property name="mlt_service">frei0r.cairoblend</property>
   <property name="kdenlive_id">frei0r.cairoblend</property>
   <property name="0">00:00:00.000=0.2;00:00:02.133=0;00:00:03.533=0;00:00:04.600=0.19;00:00:05.900=0;00:00:07.133=0;00:00:08.067=0.2;00:00:09.600=0;00:00:10.867=0.0143667;00:00:12.067=0.2;00:00:13.333=0;00:00:14.700=0;00:00:16.400=0.475;00:00:17.133=0;00:00:18.367=0;00:00:20.100=0.6;00:00:20.767=0;00:00:22.000=0;00:00:23.767=0.7;00:00:27.233=0.2</property>
   <property name="1">add</property>
  </transition>
  <transition id="transition13" in="00:11:13.367" out="00:11:28.200">
   <property name="a_track">3</property>
   <property name="b_track">4</property>
   <property name="version">0.2</property>
   <property name="mlt_service">frei0r.addition_alpha</property>
   <property name="kdenlive_id">frei0r.addition_alpha</property>
  </transition>
  <transition id="transition14" in="00:11:41.967" out="00:11:56.767">
   <property name="a_track">3</property>
   <property name="b_track">4</property>
   <property name="version">0.9</property>
   <property name="mlt_service">frei0r.cairoblend</property>
   <property name="kdenlive_id">frei0r.cairoblend</property>
   <property name="0">00:00:00.000=100</property>
   <property name="1">lighten</property>
  </transition>
  <transition id="transition15" in="00:11:31.033" out="00:11:41.933">
   <property name="a_track">3</property>
   <property name="b_track">4</property>
   <property name="version">0.2</property>
   <property name="mlt_service">frei0r.screen</property>
   <property name="kdenlive_id">frei0r.screen</property>
  </transition>
  <transition id="transition16" in="00:15:11.333" out="00:16:08.067">
   <property name="a_track">3</property>
   <property name="b_track">4</property>
   <property name="version">0.9</property>
   <property name="mlt_service">frei0r.cairoblend</property>
   <property name="kdenlive_id">frei0r.cairoblend</property>
   <property name="0">00:00:00.000=100</property>
   <property name="1">lighten</property>
  </transition>
  <transition id="transition17" in="00:13:57.800" out="00:14:08.533">
   <property name="a_track">3</property>
   <property name="b_track">6</property>
   <property name="version">0.9</property>
   <property name="mlt_service">frei0r.cairoblend</property>
   <property name="kdenlive_id">frei0r.cairoblend</property>
   <property name="force_track">1</property>
   <property name="0">00:00:00.000=0.66</property>
   <property name="1">lighten</property>
  </transition>
  <transition id="transition18" in="00:10:28.867" out="00:10:31.833">
   <property name="a_track">0</property>
   <property name="b_track">3</property>
   <property name="start">0/0:100%x100%</property>
   <property name="factory">loader</property>
   <property name="aligned">0</property>
   <property name="progressive">1</property>
   <property name="mlt_service">composite</property>
   <property name="kdenlive_id">wipe</property>
   <property name="softness">0.26</property>
   <property name="luma">/usr/share/kdenlive/lumas/HD/radial.pgm</property>
   <property name="luma_invert">0</property>
   <property name="geometry">0%/0%:100%x100%:0;-1=0%/0%:100%x100%:100</property>
   <property name="fill">1</property>
  </transition>
  <transition id="transition19">
   <property name="a_track">0</property>
   <property name="b_track">1</property>
   <property name="mlt_service">mix</property>
   <property name="kdenlive_id">mix</property>
   <property name="internal_added">237</property>
   <property name="always_active">1</property>
   <property name="accepts_blanks">1</property>
   <property name="sum">1</property>
  </transition>
  <transition id="transition20">
   <property name="a_track">0</property>
   <property name="b_track">2</property>
   <property name="mlt_service">mix</property>
   <property name="kdenlive_id">mix</property>
   <property name="internal_added">237</property>
   <property name="always_active">1</property>
   <property name="accepts_blanks">1</property>
   <property name="sum">1</property>
  </transition>
  <transition id="transition21">
   <property name="a_track">0</property>
   <property name="b_track">3</property>
   <property name="compositing">0</property>
   <property name="distort">0</property>
   <property name="rotate_center">0</property>
   <property name="mlt_service">qtblend</property>
   <property name="kdenlive_id">qtblend</property>
   <property name="internal_added">237</property>
   <property name="always_active">1</property>
  </transition>
  <transition id="transition22">
   <property name="a_track">0</property>
   <property name="b_track">4</property>
   <property name="compositing">0</property>
   <property name="distort">0</property>
   <property name="rotate_center">0</property>
   <property name="mlt_service">qtblend</property>
   <property name="kdenlive_id">qtblend</property>
   <property name="internal_added">237</property>
   <property name="always_active">1</property>
  </transition>
  <transition id="transition23">
   <property name="a_track">0</property>
   <property name="b_track">5</property>
   <property name="compositing">0</property>
   <property name="distort">0</property>
   <property name="rotate_center">0</property>
   <property name="mlt_service">qtblend</property>
   <property name="kdenlive_id">qtblend</property>
   <property name="internal_added">237</property>
   <property name="always_active">1</property>
  </transition>
  <transition id="transition24">
   <property name="a_track">0</property>
   <property name="b_track">6</property>
   <property name="compositing">0</property>
   <property name="distort">0</property>
   <property name="rotate_center">0</property>
   <property name="mlt_service">qtblend</property>
   <property name="kdenlive_id">qtblend</property>
   <property name="internal_added">237</property>
   <property name="always_active">1</property>
  </transition>
  <transition id="transition25">
   <property name="a_track">0</property>
   <property name="b_track">7</property>
   <property name="compositing">0</property>
   <property name="distort">0</property>
   <property name="rotate_center">0</property>
   <property name="mlt_service">qtblend</property>
   <property name="kdenlive_id">qtblend</property>
   <property name="internal_added">237</property>
   <property name="always_active">1</property>
  </transition>
  <transition id="transition26">
   <property name="a_track">0</property>
   <property name="b_track">8</property>
   <property name="compositing">0</property>
   <property name="distort">0</property>
   <property name="rotate_center">0</property>
   <property name="mlt_service">qtblend</property>
   <property name="kdenlive_id">qtblend</property>
   <property name="internal_added">237</property>
   <property name="always_active">1</property>
  </transition>
  <transition id="transition27">
   <property name="a_track">0</property>
   <property name="b_track">9</property>
   <property name="compositing">0</property>
   <property name="distort">0</property>
   <property name="rotate_center">0</property>
   <property name="mlt_service">qtblend</property>
   <property name="kdenlive_id">qtblend</property>
   <property name="internal_added">237</property>
   <property name="always_active">1</property>
  </transition>
  <transition id="transition28">
   <property name="a_track">0</property>
   <property name="b_track">10</property>
   <property name="compositing">0</property>
   <property name="distort">0</property>
   <property name="rotate_center">0</property>
   <property name="mlt_service">qtblend</property>
   <property name="kdenlive_id">qtblend</property>
   <property name="internal_added">237</property>
   <property name="always_active">1</property>
  </transition>
  <transition id="transition29">
   <property name="a_track">0</property>
   <property name="b_track">11</property>
   <property name="compositing">0</property>
   <property name="distort">0</property>
   <property name="rotate_center">0</property>
   <property name="mlt_service">qtblend</property>
   <property name="kdenlive_id">qtblend</property>
   <property name="internal_added">237</property>
   <property name="always_active">1</property>
  </transition>
  <transition id="transition30">
   <property name="a_track">0</property>
   <property name="b_track">12</property>
   <property name="compositing">0</property>
   <property name="distort">0</property>
   <property name="rotate_center">0</property>
   <property name="mlt_service">qtblend</property>
   <property name="kdenlive_id">qtblend</property>
   <property name="internal_added">237</property>
   <property name="always_active">1</property>
  </transition>
  <transition id="transition31">
   <property name="a_track">0</property>
   <property name="b_track">13</property>
   <property name="compositing">0</property>
   <property name="distort">0</property>
   <property name="rotate_center">0</property>
   <property name="mlt_service">qtblend</property>
   <property name="kdenlive_id">qtblend</property>
   <property name="internal_added">237</property>
   <property name="always_active">1</property>
  </transition>
  <transition id="transition32">
   <property name="a_track">0</property>
   <property name="b_track">14</property>
   <property name="compositing">0</property>
   <property name="distort">0</property>
   <property name="rotate_center">0</property>
   <property name="mlt_service">qtblend</property>
   <property name="kdenlive_id">qtblend</property>
   <property name="internal_added">237</property>
   <property name="always_active">1</property>
  </transition>
  <transition id="transition33">
   <property name="a_track">0</property>
   <property name="b_track">15</property>
   <property name="compositing">0</property>
   <property name="distort">0</property>
   <property name="rotate_center">0</property>
   <property name="mlt_service">qtblend</property>
   <property name="kdenlive_id">qtblend</property>
   <property name="internal_added">237</property>
   <property name="always_active">1</property>
  </transition>
  <filter id="filter101">
   <property name="window">75</property>
   <property name="max_gain">20dB</property>
   <property name="mlt_service">volume</property>
   <property name="internal_added">237</property>
   <property name="disable">1</property>
  </filter>
  <filter id="filter102">
   <property name="channel">-1</property>
   <property name="mlt_service">panner</property>
   <property name="internal_added">237</property>
   <property name="start">0.5</property>
   <property name="disable">1</property>
  </filter>
  <filter id="filter103">
   <property name="iec_scale">0</property>
   <property name="mlt_service">audiolevel</property>
   <property name="disable">1</property>
  </filter>
 </tractor>
</mlt>
