<?xml version='1.0' encoding='utf-8'?>
<mlt LC_NUMERIC="C" producer="main_bin" version="6.26.1" root="/home/ryankelln/Documents/Projects/Active/Sound_Escapes/Jackson/final">
 <profile frame_rate_num="30" sample_aspect_num="1" display_aspect_den="9" colorspace="709" progressive="1" description="HD 1080p 30 fps" display_aspect_num="16" frame_rate_den="1" width="1920" height="1080" sample_aspect_den="1"/>
 <producer id="producer0" in="00:00:00.000" out="00:01:03.333">
  <property name="length">00:01:03.400</property>
  <property name="eof">pause</property>
  <property name="resource">/home/ryankelln/Documents/Projects/Active/Sound_Escapes/Jackson/storyboard/boids_example.mp4</property>
  <property name="audio_index">-1</property>
  <property name="video_index">0</property>
  <property name="mute_on_pause">0</property>
  <property name="mlt_service">avformat-novalidate</property>
  <property name="meta.media.nb_streams">1</property>
  <property name="meta.media.0.stream.type">video</property>
  <property name="meta.media.0.stream.frame_rate">15</property>
  <property name="meta.media.0.stream.sample_aspect_ratio">1</property>
  <property name="meta.media.0.codec.width">1920</property>
  <property name="meta.media.0.codec.height">1080</property>
  <property name="meta.media.0.codec.rotate">0</property>
  <property name="meta.media.0.codec.frame_rate">15</property>
  <property name="meta.media.0.codec.pix_fmt">yuv444p</property>
  <property name="meta.media.0.codec.sample_aspect_ratio">1</property>
  <property name="meta.media.0.codec.colorspace">709</property>
  <property name="meta.media.0.codec.color_trc">1</property>
  <property name="meta.media.0.codec.name">h264</property>
  <property name="meta.media.0.codec.long_name">H.264 / AVC / MPEG-4 AVC / MPEG-4 part 10</property>
  <property name="meta.media.0.codec.bit_rate">4570654</property>
  <property name="meta.attr.0.stream.creation_time.markup">2021-05-14T12:46:12.000000Z</property>
  <property name="meta.attr.0.stream.handler_name.markup">VideoHandler</property>
  <property name="meta.attr.0.stream.vendor_id.markup">[0][0][0][0]</property>
  <property name="meta.attr.major_brand.markup">mp42</property>
  <property name="meta.attr.minor_version.markup">0</property>
  <property name="meta.attr.compatible_brands.markup">mp42mp41isomiso2</property>
  <property name="meta.attr.creation_time.markup">2021-05-14T12:46:12.000000Z</property>
  <property name="meta.attr.encoder.markup">x264</property>
  <property name="seekable">1</property>
  <property name="meta.media.sample_aspect_num">1</property>
  <property name="meta.media.sample_aspect_den">1</property>
  <property name="aspect_ratio">1</property>
  <property name="kdenlive:clipname"/>
  <property name="meta.media.frame_rate_num">15</property>
  <property name="meta.media.frame_rate_den">1</property>
  <property name="meta.media.colorspace">709</property>
  <property name="meta.media.color_trc">1</property>
  <property name="meta.media.width">1920</property>
  <property name="meta.media.height">1080</property>
  <property name="meta.media.color_range">mpeg</property>
  <property name="kdenlive:id">2</property>
  <property name="kdenlive:file_size">36227186</property>
  <property name="kdenlive:file_hash">a9f23ef42b849fe02bc41447a7de400d</property>
  <property name="kdenlive:folderid">40</property>
  <property name="meta.media.top_field_first">0</property>
  <property name="meta.media.progressive">1</property>
  <property name="global_feed">1</property>
 </producer>
 <producer id="producer1" in="00:00:00.000" out="00:05:01.933">
  <property name="length">00:05:02.000</property>
  <property name="eof">pause</property>
  <property name="resource">/home/ryankelln/Documents/Projects/Active/Sound_Escapes/Jackson/Bird Brained.mp3</property>
  <property name="meta.media.nb_streams">1</property>
  <property name="meta.media.0.stream.type">audio</property>
  <property name="meta.media.0.codec.sample_fmt">fltp</property>
  <property name="meta.media.0.codec.sample_rate">44100</property>
  <property name="meta.media.0.codec.channels">2</property>
  <property name="meta.media.0.codec.name">mp3float</property>
  <property name="meta.media.0.codec.long_name">MP3 (MPEG audio layer 3)</property>
  <property name="meta.media.0.codec.bit_rate">256000</property>
  <property name="meta.attr.title.markup">birdie - Flow 1</property>
  <property name="meta.attr.date.markup">2021</property>
  <property name="meta.attr.track.markup">1</property>
  <property name="seekable">1</property>
  <property name="audio_index">0</property>
  <property name="video_index">-1</property>
  <property name="mute_on_pause">1</property>
  <property name="mlt_service">avformat</property>
  <property name="kdenlive:clipname"/>
  <property name="kdenlive:folderid">40</property>
  <property name="kdenlive:id">3</property>
  <property name="kdenlive:file_size">9663583</property>
  <property name="kdenlive:file_hash">d716c0a4f17291ab493d50b6d6a5740e</property>
  <property name="kdenlive:audio_max">8</property>
  <property name="global_feed">1</property>
 </producer>
 <producer id="producer3" in="00:00:00.000" out="00:00:06.733">
  <property name="length">00:00:06.800</property>
  <property name="eof">pause</property>
  <property name="resource">/home/ryankelln/Documents/Projects/Active/Sound_Escapes/Jackson/footage/Bird Flying - Free Stock Creative Commons Video-FrRXDYUatf4.mp4</property>
  <property name="audio_index">1</property>
  <property name="video_index">0</property>
  <property name="mute_on_pause">0</property>
  <property name="mlt_service">avformat-novalidate</property>
  <property name="meta.media.nb_streams">2</property>
  <property name="meta.media.0.stream.type">video</property>
  <property name="meta.media.0.stream.frame_rate">60.233</property>
  <property name="meta.media.0.stream.sample_aspect_ratio">1</property>
  <property name="meta.media.0.codec.width">1920</property>
  <property name="meta.media.0.codec.height">1080</property>
  <property name="meta.media.0.codec.rotate">0</property>
  <property name="meta.media.0.codec.frame_rate">59.9401</property>
  <property name="meta.media.0.codec.pix_fmt">yuv420p</property>
  <property name="meta.media.0.codec.sample_aspect_ratio">1</property>
  <property name="meta.media.0.codec.colorspace">709</property>
  <property name="meta.media.0.codec.color_trc">1</property>
  <property name="meta.media.0.codec.name">h264</property>
  <property name="meta.media.0.codec.long_name">H.264 / AVC / MPEG-4 AVC / MPEG-4 part 10</property>
  <property name="meta.media.0.codec.bit_rate">1702801</property>
  <property name="meta.attr.0.stream.handler_name.markup">ISO Media file produced by Google Inc. Created on: 05/11/2021.</property>
  <property name="meta.attr.0.stream.vendor_id.markup">[0][0][0][0]</property>
  <property name="meta.media.1.stream.type">audio</property>
  <property name="meta.media.1.codec.sample_fmt">fltp</property>
  <property name="meta.media.1.codec.sample_rate">44100</property>
  <property name="meta.media.1.codec.channels">2</property>
  <property name="meta.media.1.codec.name">aac</property>
  <property name="meta.media.1.codec.long_name">AAC (Advanced Audio Coding)</property>
  <property name="meta.media.1.codec.bit_rate">127999</property>
  <property name="meta.attr.1.stream.handler_name.markup">ISO Media file produced by Google Inc. Created on: 11/30/2018.</property>
  <property name="meta.attr.1.stream.vendor_id.markup">[0][0][0][0]</property>
  <property name="meta.attr.major_brand.markup">isom</property>
  <property name="meta.attr.minor_version.markup">512</property>
  <property name="meta.attr.compatible_brands.markup">isomiso2avc1mp41</property>
  <property name="meta.attr.encoder.markup">Lavf58.45.100</property>
  <property name="seekable">1</property>
  <property name="meta.media.sample_aspect_num">1</property>
  <property name="meta.media.sample_aspect_den">1</property>
  <property name="aspect_ratio">1</property>
  <property name="kdenlive:clipname"/>
  <property name="kdenlive:folderid">40</property>
  <property name="meta.media.frame_rate_num">1360000</property>
  <property name="meta.media.frame_rate_den">22579</property>
  <property name="meta.media.colorspace">709</property>
  <property name="meta.media.color_trc">1</property>
  <property name="meta.media.width">1920</property>
  <property name="meta.media.height">1080</property>
  <property name="meta.media.color_range">mpeg</property>
  <property name="kdenlive:id">4</property>
  <property name="kdenlive:file_size">1563626</property>
  <property name="kdenlive:file_hash">a96b92c1bace94bc3ed2462f08da2e88</property>
  <property name="kdenlive:audio_max">91</property>
  <property name="meta.media.variable_frame_rate">1</property>
  <property name="meta.media.top_field_first">0</property>
  <property name="meta.media.progressive">1</property>
  <property name="global_feed">1</property>
  <property name="kdenlive:active_streams">-1</property>
 </producer>
 <producer id="producer4" in="00:00:00.000" out="00:00:51.800">
  <property name="length">00:00:51.867</property>
  <property name="eof">pause</property>
  <property name="resource">/home/ryankelln/Documents/Projects/Active/Sound_Escapes/Jackson/footage/BirdsOnThePost.mp4</property>
  <property name="audio_index">1</property>
  <property name="video_index">0</property>
  <property name="mute_on_pause">0</property>
  <property name="mlt_service">avformat-novalidate</property>
  <property name="meta.media.nb_streams">2</property>
  <property name="meta.media.0.stream.type">video</property>
  <property name="meta.media.0.stream.frame_rate">23.976</property>
  <property name="meta.media.0.stream.sample_aspect_ratio">0</property>
  <property name="meta.media.0.codec.width">1920</property>
  <property name="meta.media.0.codec.height">1080</property>
  <property name="meta.media.0.codec.rotate">0</property>
  <property name="meta.media.0.codec.frame_rate">23.976</property>
  <property name="meta.media.0.codec.pix_fmt">yuv420p</property>
  <property name="meta.media.0.codec.sample_aspect_ratio">1</property>
  <property name="meta.media.0.codec.colorspace">709</property>
  <property name="meta.media.0.codec.name">h264</property>
  <property name="meta.media.0.codec.long_name">H.264 / AVC / MPEG-4 AVC / MPEG-4 part 10</property>
  <property name="meta.media.0.codec.bit_rate">44999815</property>
  <property name="meta.attr.0.stream.creation_time.markup">2011-09-09T18:44:36.000000Z</property>
  <property name="meta.attr.0.stream.language.markup">eng</property>
  <property name="meta.attr.0.stream.handler_name.markup">Mainconcept MP4 Video Media Handler</property>
  <property name="meta.attr.0.stream.vendor_id.markup">[0][0][0][0]</property>
  <property name="meta.attr.0.stream.encoder.markup">AVC Coding</property>
  <property name="meta.media.1.stream.type">audio</property>
  <property name="meta.media.1.codec.sample_fmt">fltp</property>
  <property name="meta.media.1.codec.sample_rate">48000</property>
  <property name="meta.media.1.codec.channels">2</property>
  <property name="meta.media.1.codec.name">aac</property>
  <property name="meta.media.1.codec.long_name">AAC (Advanced Audio Coding)</property>
  <property name="meta.media.1.codec.bit_rate">125375</property>
  <property name="meta.attr.1.stream.creation_time.markup">2011-09-09T18:44:36.000000Z</property>
  <property name="meta.attr.1.stream.language.markup">eng</property>
  <property name="meta.attr.1.stream.handler_name.markup">Mainconcept MP4 Sound Media Handler</property>
  <property name="meta.attr.1.stream.vendor_id.markup">[0][0][0][0]</property>
  <property name="meta.attr.major_brand.markup">mp42</property>
  <property name="meta.attr.minor_version.markup">0</property>
  <property name="meta.attr.compatible_brands.markup">mp42mp41</property>
  <property name="meta.attr.creation_time.markup">2011-09-09T18:44:36.000000Z</property>
  <property name="seekable">1</property>
  <property name="meta.media.sample_aspect_num">1</property>
  <property name="meta.media.sample_aspect_den">1</property>
  <property name="aspect_ratio">1</property>
  <property name="kdenlive:clipname"/>
  <property name="kdenlive:folderid">40</property>
  <property name="meta.media.frame_rate_num">2997</property>
  <property name="meta.media.frame_rate_den">125</property>
  <property name="meta.media.colorspace">709</property>
  <property name="meta.media.color_trc">2</property>
  <property name="meta.media.width">1920</property>
  <property name="meta.media.height">1080</property>
  <property name="meta.media.color_range">mpeg</property>
  <property name="kdenlive:id">5</property>
  <property name="kdenlive:file_size">292463923</property>
  <property name="kdenlive:file_hash">1e429c3d88a4078b7a293ea92c3b379a</property>
  <property name="kdenlive:audio_max">22</property>
  <property name="meta.media.top_field_first">0</property>
  <property name="meta.media.progressive">1</property>
  <property name="global_feed">1</property>
  <property name="kdenlive:active_streams">-1</property>
 </producer>
 <producer id="producer5" in="00:00:00.000" out="00:02:00.733">
  <property name="length">00:02:00.800</property>
  <property name="eof">pause</property>
  <property name="resource">/home/ryankelln/Documents/Projects/Active/Sound_Escapes/Jackson/footage/Flight of the Starlings - Watch This Eerie but Beautiful Phenomenon _ Short Film Showcase-V4f_1_r80RY.mkv</property>
  <property name="audio_index">1</property>
  <property name="video_index">0</property>
  <property name="mute_on_pause">0</property>
  <property name="mlt_service">avformat-novalidate</property>
  <property name="meta.media.nb_streams">2</property>
  <property name="meta.media.0.stream.type">video</property>
  <property name="meta.media.0.stream.frame_rate">25</property>
  <property name="meta.media.0.stream.sample_aspect_ratio">1</property>
  <property name="meta.media.0.codec.width">1920</property>
  <property name="meta.media.0.codec.height">1080</property>
  <property name="meta.media.0.codec.rotate">0</property>
  <property name="meta.media.0.codec.frame_rate">1000</property>
  <property name="meta.media.0.codec.pix_fmt">yuv420p</property>
  <property name="meta.media.0.codec.sample_aspect_ratio">0</property>
  <property name="meta.media.0.codec.colorspace">709</property>
  <property name="meta.media.0.codec.color_trc">1</property>
  <property name="meta.media.0.codec.name">vp9</property>
  <property name="meta.media.0.codec.long_name">Google VP9</property>
  <property name="meta.media.0.codec.bit_rate">0</property>
  <property name="meta.attr.0.stream.language.markup">eng</property>
  <property name="meta.attr.0.stream.DURATION.markup">00:02:00.760000000</property>
  <property name="meta.media.1.stream.type">audio</property>
  <property name="meta.media.1.codec.sample_fmt">fltp</property>
  <property name="meta.media.1.codec.sample_rate">44100</property>
  <property name="meta.media.1.codec.channels">2</property>
  <property name="meta.media.1.codec.name">aac</property>
  <property name="meta.media.1.codec.long_name">AAC (Advanced Audio Coding)</property>
  <property name="meta.media.1.codec.bit_rate">0</property>
  <property name="meta.attr.1.stream.language.markup">eng</property>
  <property name="meta.attr.1.stream.HANDLER_NAME.markup">ISO Media file produced by Google Inc.</property>
  <property name="meta.attr.1.stream.DURATION.markup">00:02:00.813000000</property>
  <property name="meta.attr.ENCODER.markup">Lavf58.45.100</property>
  <property name="seekable">1</property>
  <property name="meta.media.sample_aspect_num">1</property>
  <property name="meta.media.sample_aspect_den">1</property>
  <property name="aspect_ratio">1</property>
  <property name="kdenlive:clipname"/>
  <property name="kdenlive:folderid">40</property>
  <property name="meta.media.frame_rate_num">25</property>
  <property name="meta.media.frame_rate_den">1</property>
  <property name="meta.media.colorspace">709</property>
  <property name="meta.media.color_trc">1</property>
  <property name="meta.media.width">1920</property>
  <property name="meta.media.height">1080</property>
  <property name="meta.media.color_range">mpeg</property>
  <property name="kdenlive:id">6</property>
  <property name="kdenlive:file_size">56446028</property>
  <property name="kdenlive:file_hash">4e85f2e8e30fb909603908bab81fe3e4</property>
  <property name="kdenlive:audio_max">1</property>
 </producer>
 <producer id="producer6" in="00:00:00.000" out="00:00:55.533">
  <property name="length">00:00:55.600</property>
  <property name="eof">pause</property>
  <property name="resource">/home/ryankelln/Documents/Projects/Active/Sound_Escapes/Jackson/footage/Lake, sunset - birds flying to the camera - gopro (1080p)-lhgGDBMz3II.mp4</property>
  <property name="audio_index">1</property>
  <property name="video_index">0</property>
  <property name="mute_on_pause">0</property>
  <property name="mlt_service">avformat-novalidate</property>
  <property name="meta.media.nb_streams">2</property>
  <property name="meta.media.0.stream.type">video</property>
  <property name="meta.media.0.stream.frame_rate">29.97</property>
  <property name="meta.media.0.stream.sample_aspect_ratio">1</property>
  <property name="meta.media.0.codec.width">1920</property>
  <property name="meta.media.0.codec.height">1080</property>
  <property name="meta.media.0.codec.rotate">0</property>
  <property name="meta.media.0.codec.frame_rate">29.97</property>
  <property name="meta.media.0.codec.pix_fmt">yuv420p</property>
  <property name="meta.media.0.codec.sample_aspect_ratio">1</property>
  <property name="meta.media.0.codec.colorspace">709</property>
  <property name="meta.media.0.codec.color_trc">1</property>
  <property name="meta.media.0.codec.name">h264</property>
  <property name="meta.media.0.codec.long_name">H.264 / AVC / MPEG-4 AVC / MPEG-4 part 10</property>
  <property name="meta.media.0.codec.bit_rate">4354633</property>
  <property name="meta.attr.0.stream.handler_name.markup">VideoHandler</property>
  <property name="meta.attr.0.stream.vendor_id.markup">[0][0][0][0]</property>
  <property name="meta.media.1.stream.type">audio</property>
  <property name="meta.media.1.codec.sample_fmt">fltp</property>
  <property name="meta.media.1.codec.sample_rate">44100</property>
  <property name="meta.media.1.codec.channels">2</property>
  <property name="meta.media.1.codec.name">aac</property>
  <property name="meta.media.1.codec.long_name">AAC (Advanced Audio Coding)</property>
  <property name="meta.media.1.codec.bit_rate">125588</property>
  <property name="meta.attr.1.stream.handler_name.markup">SoundHandler</property>
  <property name="meta.attr.1.stream.vendor_id.markup">[0][0][0][0]</property>
  <property name="meta.attr.major_brand.markup">isom</property>
  <property name="meta.attr.minor_version.markup">512</property>
  <property name="meta.attr.compatible_brands.markup">isomiso2avc1mp41</property>
  <property name="meta.attr.encoder.markup">Lavf58.45.100</property>
  <property name="seekable">1</property>
  <property name="meta.media.sample_aspect_num">1</property>
  <property name="meta.media.sample_aspect_den">1</property>
  <property name="aspect_ratio">1</property>
  <property name="kdenlive:clipname"/>
  <property name="kdenlive:folderid">40</property>
  <property name="meta.media.frame_rate_num">30000</property>
  <property name="meta.media.frame_rate_den">1001</property>
  <property name="meta.media.colorspace">709</property>
  <property name="meta.media.color_trc">1</property>
  <property name="meta.media.width">1920</property>
  <property name="meta.media.height">1080</property>
  <property name="meta.media.color_range">mpeg</property>
  <property name="kdenlive:id">7</property>
  <property name="kdenlive:file_size">31173362</property>
  <property name="kdenlive:file_hash">0408cbd72758135322641a2976371d84</property>
  <property name="kdenlive:audio_max">1</property>
  <property name="meta.media.top_field_first">0</property>
  <property name="meta.media.progressive">1</property>
  <property name="global_feed">1</property>
 </producer>
 <producer id="producer7" in="00:00:00.000" out="00:00:48.533">
  <property name="length">00:00:48.600</property>
  <property name="eof">pause</property>
  <property name="resource">/home/ryankelln/Documents/Projects/Active/Sound_Escapes/Jackson/footage/Marbled Godwits in Flight  720p.mp4</property>
  <property name="audio_index">1</property>
  <property name="video_index">0</property>
  <property name="mute_on_pause">0</property>
  <property name="mlt_service">avformat-novalidate</property>
  <property name="meta.media.nb_streams">2</property>
  <property name="meta.media.0.stream.type">video</property>
  <property name="meta.media.0.stream.frame_rate">29.97</property>
  <property name="meta.media.0.stream.sample_aspect_ratio">1</property>
  <property name="meta.media.0.codec.width">1280</property>
  <property name="meta.media.0.codec.height">720</property>
  <property name="meta.media.0.codec.rotate">0</property>
  <property name="meta.media.0.codec.frame_rate">29.97</property>
  <property name="meta.media.0.codec.pix_fmt">yuv420p</property>
  <property name="meta.media.0.codec.sample_aspect_ratio">1</property>
  <property name="meta.media.0.codec.colorspace">709</property>
  <property name="meta.media.0.codec.color_trc">1</property>
  <property name="meta.media.0.codec.name">h264</property>
  <property name="meta.media.0.codec.long_name">H.264 / AVC / MPEG-4 AVC / MPEG-4 part 10</property>
  <property name="meta.media.0.codec.bit_rate">4537686</property>
  <property name="meta.attr.0.stream.creation_time.markup">2020-12-30T15:41:22.000000Z</property>
  <property name="meta.attr.0.stream.handler_name.markup">ETI ISO Video Media Handler</property>
  <property name="meta.attr.0.stream.vendor_id.markup">[0][0][0][0]</property>
  <property name="meta.attr.0.stream.encoder.markup">Elemental H.264</property>
  <property name="meta.media.1.stream.type">audio</property>
  <property name="meta.media.1.codec.sample_fmt">fltp</property>
  <property name="meta.media.1.codec.sample_rate">48000</property>
  <property name="meta.media.1.codec.channels">2</property>
  <property name="meta.media.1.codec.name">aac</property>
  <property name="meta.media.1.codec.long_name">AAC (Advanced Audio Coding)</property>
  <property name="meta.media.1.codec.bit_rate">96044</property>
  <property name="meta.attr.1.stream.creation_time.markup">2020-12-30T15:41:22.000000Z</property>
  <property name="meta.attr.1.stream.handler_name.markup">ETI ISO Audio Media Handler</property>
  <property name="meta.attr.1.stream.vendor_id.markup">[0][0][0][0]</property>
  <property name="meta.attr.major_brand.markup">M4V </property>
  <property name="meta.attr.minor_version.markup">1</property>
  <property name="meta.attr.compatible_brands.markup">isomavc1mp42</property>
  <property name="meta.attr.creation_time.markup">2020-12-30T15:41:22.000000Z</property>
  <property name="seekable">1</property>
  <property name="meta.media.sample_aspect_num">1</property>
  <property name="meta.media.sample_aspect_den">1</property>
  <property name="aspect_ratio">1</property>
  <property name="kdenlive:clipname"/>
  <property name="kdenlive:folderid">40</property>
  <property name="meta.media.frame_rate_num">30000</property>
  <property name="meta.media.frame_rate_den">1001</property>
  <property name="meta.media.colorspace">709</property>
  <property name="meta.media.color_trc">1</property>
  <property name="meta.media.width">1280</property>
  <property name="meta.media.height">720</property>
  <property name="meta.media.color_range">mpeg</property>
  <property name="kdenlive:id">8</property>
  <property name="kdenlive:file_size">28194251</property>
  <property name="kdenlive:file_hash">b02bfde09cda273fcc90d0c8b2843dc4</property>
  <property name="kdenlive:audio_max">5</property>
  <property name="meta.media.top_field_first">0</property>
  <property name="meta.media.progressive">1</property>
  <property name="global_feed">1</property>
  <property name="kdenlive:active_streams">-1</property>
 </producer>
 <producer id="producer8" in="00:00:00.000" out="00:05:48.333">
  <property name="length">00:05:48.400</property>
  <property name="eof">pause</property>
  <property name="resource">/home/ryankelln/Documents/Projects/Active/Sound_Escapes/Jackson/footage/One fish + one fish + one fish - The finest schools of fish in the world (HD)-U9T0OlAOv0c.mkv</property>
  <property name="audio_index">1</property>
  <property name="video_index">0</property>
  <property name="mute_on_pause">0</property>
  <property name="mlt_service">avformat-novalidate</property>
  <property name="meta.media.nb_streams">2</property>
  <property name="meta.media.0.stream.type">video</property>
  <property name="meta.media.0.stream.frame_rate">50</property>
  <property name="meta.media.0.stream.sample_aspect_ratio">1</property>
  <property name="meta.media.0.codec.width">1920</property>
  <property name="meta.media.0.codec.height">1080</property>
  <property name="meta.media.0.codec.rotate">0</property>
  <property name="meta.media.0.codec.frame_rate">50</property>
  <property name="meta.media.0.codec.pix_fmt">yuv420p</property>
  <property name="meta.media.0.codec.sample_aspect_ratio">1</property>
  <property name="meta.media.0.codec.colorspace">709</property>
  <property name="meta.media.0.codec.color_trc">1</property>
  <property name="meta.media.0.codec.name">h264</property>
  <property name="meta.media.0.codec.long_name">H.264 / AVC / MPEG-4 AVC / MPEG-4 part 10</property>
  <property name="meta.media.0.codec.bit_rate">0</property>
  <property name="meta.attr.0.stream.HANDLER_NAME.markup">VideoHandler</property>
  <property name="meta.attr.0.stream.DURATION.markup">00:05:48.320000000</property>
  <property name="meta.media.1.stream.type">audio</property>
  <property name="meta.media.1.codec.sample_fmt">fltp</property>
  <property name="meta.media.1.codec.sample_rate">48000</property>
  <property name="meta.media.1.codec.channels">2</property>
  <property name="meta.media.1.codec.name">opus</property>
  <property name="meta.media.1.codec.long_name">Opus</property>
  <property name="meta.media.1.codec.bit_rate">0</property>
  <property name="meta.attr.1.stream.language.markup">eng</property>
  <property name="meta.attr.1.stream.DURATION.markup">00:05:48.381000000</property>
  <property name="meta.attr.COMPATIBLE_BRANDS.markup">iso6avc1mp41</property>
  <property name="meta.attr.MAJOR_BRAND.markup">dash</property>
  <property name="meta.attr.MINOR_VERSION.markup">0</property>
  <property name="meta.attr.ENCODER.markup">Lavf58.45.100</property>
  <property name="seekable">1</property>
  <property name="meta.media.sample_aspect_num">1</property>
  <property name="meta.media.sample_aspect_den">1</property>
  <property name="aspect_ratio">1</property>
  <property name="kdenlive:clipname"/>
  <property name="kdenlive:folderid">40</property>
  <property name="meta.media.frame_rate_num">50</property>
  <property name="meta.media.frame_rate_den">1</property>
  <property name="meta.media.colorspace">709</property>
  <property name="meta.media.color_trc">1</property>
  <property name="meta.media.width">1920</property>
  <property name="meta.media.height">1080</property>
  <property name="meta.media.color_range">mpeg</property>
  <property name="kdenlive:id">9</property>
  <property name="kdenlive:file_size">245908149</property>
  <property name="kdenlive:file_hash">515583e7164bdbc1ce182eeb4320ce37</property>
  <property name="kdenlive:audio_max">1</property>
 </producer>
 <producer id="producer9" in="00:00:00.000" out="00:00:36.867">
  <property name="length">00:00:36.933</property>
  <property name="eof">pause</property>
  <property name="resource">/home/ryankelln/Documents/Projects/Active/Sound_Escapes/Jackson/footage/SeagullsCloseMaster_h264.mp4</property>
  <property name="audio_index">-1</property>
  <property name="video_index">0</property>
  <property name="mute_on_pause">0</property>
  <property name="mlt_service">avformat-novalidate</property>
  <property name="meta.media.nb_streams">1</property>
  <property name="meta.media.0.stream.type">video</property>
  <property name="meta.media.0.stream.frame_rate">23.976</property>
  <property name="meta.media.0.stream.sample_aspect_ratio">0</property>
  <property name="meta.media.0.codec.width">1920</property>
  <property name="meta.media.0.codec.height">1080</property>
  <property name="meta.media.0.codec.rotate">0</property>
  <property name="meta.media.0.codec.frame_rate">23.976</property>
  <property name="meta.media.0.codec.pix_fmt">yuv420p</property>
  <property name="meta.media.0.codec.sample_aspect_ratio">1</property>
  <property name="meta.media.0.codec.colorspace">709</property>
  <property name="meta.media.0.codec.name">h264</property>
  <property name="meta.media.0.codec.long_name">H.264 / AVC / MPEG-4 AVC / MPEG-4 part 10</property>
  <property name="meta.media.0.codec.bit_rate">10664727</property>
  <property name="meta.attr.0.stream.creation_time.markup">2013-11-30T22:42:06.000000Z</property>
  <property name="meta.attr.0.stream.language.markup">eng</property>
  <property name="meta.attr.0.stream.handler_name.markup">Mainconcept MP4 Video Media Handler</property>
  <property name="meta.attr.0.stream.vendor_id.markup">[0][0][0][0]</property>
  <property name="meta.attr.0.stream.encoder.markup">AVC Coding</property>
  <property name="meta.attr.major_brand.markup">mp42</property>
  <property name="meta.attr.minor_version.markup">0</property>
  <property name="meta.attr.compatible_brands.markup">mp42mp41</property>
  <property name="meta.attr.creation_time.markup">2013-11-30T22:42:06.000000Z</property>
  <property name="seekable">1</property>
  <property name="meta.media.sample_aspect_num">1</property>
  <property name="meta.media.sample_aspect_den">1</property>
  <property name="aspect_ratio">1</property>
  <property name="kdenlive:clipname"/>
  <property name="kdenlive:folderid">40</property>
  <property name="meta.media.frame_rate_num">2997</property>
  <property name="meta.media.frame_rate_den">125</property>
  <property name="meta.media.colorspace">709</property>
  <property name="meta.media.color_trc">2</property>
  <property name="meta.media.width">1920</property>
  <property name="meta.media.height">1080</property>
  <property name="meta.media.color_range">mpeg</property>
  <property name="kdenlive:id">10</property>
  <property name="kdenlive:file_size">49278582</property>
  <property name="kdenlive:file_hash">b2be9f3e4ba5a4ff8901ca563d188491</property>
  <property name="meta.media.top_field_first">0</property>
  <property name="meta.media.progressive">1</property>
  <property name="global_feed">1</property>
 </producer>
 <producer id="producer10" in="00:00:00.000" out="00:00:26.533">
  <property name="length">00:00:26.600</property>
  <property name="eof">pause</property>
  <property name="resource">/home/ryankelln/Documents/Projects/Active/Sound_Escapes/Jackson/footage/SeagullsMediumAltMaster_h264.mp4</property>
  <property name="audio_index">-1</property>
  <property name="video_index">0</property>
  <property name="mute_on_pause">0</property>
  <property name="mlt_service">avformat-novalidate</property>
  <property name="meta.media.nb_streams">1</property>
  <property name="meta.media.0.stream.type">video</property>
  <property name="meta.media.0.stream.frame_rate">23.976</property>
  <property name="meta.media.0.stream.sample_aspect_ratio">0</property>
  <property name="meta.media.0.codec.width">1920</property>
  <property name="meta.media.0.codec.height">1080</property>
  <property name="meta.media.0.codec.rotate">0</property>
  <property name="meta.media.0.codec.frame_rate">23.976</property>
  <property name="meta.media.0.codec.pix_fmt">yuv420p</property>
  <property name="meta.media.0.codec.sample_aspect_ratio">1</property>
  <property name="meta.media.0.codec.colorspace">709</property>
  <property name="meta.media.0.codec.name">h264</property>
  <property name="meta.media.0.codec.long_name">H.264 / AVC / MPEG-4 AVC / MPEG-4 part 10</property>
  <property name="meta.media.0.codec.bit_rate">12488061</property>
  <property name="meta.attr.0.stream.creation_time.markup">2013-11-30T22:43:00.000000Z</property>
  <property name="meta.attr.0.stream.language.markup">eng</property>
  <property name="meta.attr.0.stream.handler_name.markup">Mainconcept MP4 Video Media Handler</property>
  <property name="meta.attr.0.stream.vendor_id.markup">[0][0][0][0]</property>
  <property name="meta.attr.0.stream.encoder.markup">AVC Coding</property>
  <property name="meta.attr.major_brand.markup">mp42</property>
  <property name="meta.attr.minor_version.markup">0</property>
  <property name="meta.attr.compatible_brands.markup">mp42mp41</property>
  <property name="meta.attr.creation_time.markup">2013-11-30T22:43:00.000000Z</property>
  <property name="seekable">1</property>
  <property name="meta.media.sample_aspect_num">1</property>
  <property name="meta.media.sample_aspect_den">1</property>
  <property name="aspect_ratio">1</property>
  <property name="kdenlive:clipname"/>
  <property name="kdenlive:folderid">40</property>
  <property name="meta.media.frame_rate_num">2997</property>
  <property name="meta.media.frame_rate_den">125</property>
  <property name="meta.media.colorspace">709</property>
  <property name="meta.media.color_trc">2</property>
  <property name="meta.media.width">1920</property>
  <property name="meta.media.height">1080</property>
  <property name="meta.media.color_range">mpeg</property>
  <property name="kdenlive:id">11</property>
  <property name="kdenlive:file_size">41486959</property>
  <property name="kdenlive:file_hash">bd6d2acdd39281a8b6041bdcfa9be12d</property>
  <property name="meta.media.top_field_first">0</property>
  <property name="meta.media.progressive">1</property>
  <property name="global_feed">1</property>
 </producer>
 <producer id="producer11" in="00:00:00.000" out="00:06:29.800">
  <property name="length">00:06:29.867</property>
  <property name="eof">pause</property>
  <property name="resource">/media/storage/media/Videos/mine/music_landscapes/2020-10-17/Grahams_camera/2020-10-17_Presquille_marsh+clouds+reeds.MP4</property>
  <property name="audio_index">1</property>
  <property name="video_index">0</property>
  <property name="mute_on_pause">0</property>
  <property name="mlt_service">avformat-novalidate</property>
  <property name="meta.media.nb_streams">3</property>
  <property name="meta.media.0.stream.type">video</property>
  <property name="meta.media.0.stream.frame_rate">59.9401</property>
  <property name="meta.media.0.stream.sample_aspect_ratio">0</property>
  <property name="meta.media.0.codec.width">1920</property>
  <property name="meta.media.0.codec.height">1080</property>
  <property name="meta.media.0.codec.rotate">0</property>
  <property name="meta.media.0.codec.frame_rate">59.9401</property>
  <property name="meta.media.0.codec.pix_fmt">yuvj420p</property>
  <property name="meta.media.0.codec.sample_aspect_ratio">1</property>
  <property name="meta.media.0.codec.colorspace">709</property>
  <property name="meta.media.0.codec.color_trc">1</property>
  <property name="meta.media.0.codec.name">h264</property>
  <property name="meta.media.0.codec.long_name">H.264 / AVC / MPEG-4 AVC / MPEG-4 part 10</property>
  <property name="meta.media.0.codec.bit_rate">85957931</property>
  <property name="meta.attr.0.stream.creation_time.markup">2020-10-17T13:17:18.000000Z</property>
  <property name="meta.attr.0.stream.vendor_id.markup">[0][0][0][0]</property>
  <property name="meta.attr.0.stream.timecode.markup">10:29:01;25</property>
  <property name="meta.media.1.stream.type">audio</property>
  <property name="meta.media.1.codec.sample_fmt">s16</property>
  <property name="meta.media.1.codec.sample_rate">48000</property>
  <property name="meta.media.1.codec.channels">2</property>
  <property name="meta.media.1.codec.name">pcm_s16be</property>
  <property name="meta.media.1.codec.long_name">PCM signed 16-bit big-endian</property>
  <property name="meta.media.1.codec.bit_rate">1536000</property>
  <property name="meta.attr.1.stream.creation_time.markup">2020-10-17T13:17:18.000000Z</property>
  <property name="meta.attr.1.stream.vendor_id.markup">pana</property>
  <property name="meta.attr.1.stream.timecode.markup">10:29:01;25</property>
  <property name="meta.attr.major_brand.markup">mp42</property>
  <property name="meta.attr.minor_version.markup">1</property>
  <property name="meta.attr.compatible_brands.markup">mp42avc1</property>
  <property name="meta.attr.creation_time.markup">2020-10-17T13:17:18.000000Z</property>
  <property name="seekable">1</property>
  <property name="meta.media.sample_aspect_num">1</property>
  <property name="meta.media.sample_aspect_den">1</property>
  <property name="aspect_ratio">1</property>
  <property name="kdenlive:clipname"/>
  <property name="kdenlive:folderid">40</property>
  <property name="meta.media.frame_rate_num">60000</property>
  <property name="meta.media.frame_rate_den">1001</property>
  <property name="meta.media.colorspace">709</property>
  <property name="meta.media.color_trc">1</property>
  <property name="meta.media.width">1920</property>
  <property name="meta.media.height">1080</property>
  <property name="meta.media.color_range">full</property>
  <property name="kdenlive:id">12</property>
  <property name="kdenlive:file_size">4264607361</property>
  <property name="kdenlive:file_hash">de175a77979981115146991e2dfa6ede</property>
  <property name="kdenlive:audio_max">1</property>
  <property name="meta.media.top_field_first">0</property>
  <property name="meta.media.progressive">1</property>
  <property name="kdenlive:active_streams">-1</property>
  <property name="kdenlive:zone_in">113</property>
  <property name="kdenlive:zone_out">327</property>
  <property name="global_feed">1</property>
 </producer>
 <producer id="producer12" in="00:00:00.000" out="00:00:54.000">
  <property name="length">00:00:54.067</property>
  <property name="eof">pause</property>
  <property name="resource">/home/ryankelln/Documents/Projects/Active/Sound_Escapes/Jackson/storyboard/boids_layer_test.mp4</property>
  <property name="audio_index">-1</property>
  <property name="video_index">0</property>
  <property name="mute_on_pause">0</property>
  <property name="mlt_service">avformat-novalidate</property>
  <property name="meta.media.nb_streams">1</property>
  <property name="meta.media.0.stream.type">video</property>
  <property name="meta.media.0.stream.frame_rate">30</property>
  <property name="meta.media.0.stream.sample_aspect_ratio">1</property>
  <property name="meta.media.0.codec.width">1920</property>
  <property name="meta.media.0.codec.height">1080</property>
  <property name="meta.media.0.codec.rotate">0</property>
  <property name="meta.media.0.codec.frame_rate">30</property>
  <property name="meta.media.0.codec.pix_fmt">yuv444p</property>
  <property name="meta.media.0.codec.sample_aspect_ratio">1</property>
  <property name="meta.media.0.codec.colorspace">709</property>
  <property name="meta.media.0.codec.color_trc">1</property>
  <property name="meta.media.0.codec.name">h264</property>
  <property name="meta.media.0.codec.long_name">H.264 / AVC / MPEG-4 AVC / MPEG-4 part 10</property>
  <property name="meta.media.0.codec.bit_rate">12422425</property>
  <property name="meta.attr.0.stream.creation_time.markup">2021-05-14T20:53:20.000000Z</property>
  <property name="meta.attr.0.stream.handler_name.markup">VideoHandler</property>
  <property name="meta.attr.0.stream.vendor_id.markup">[0][0][0][0]</property>
  <property name="meta.attr.major_brand.markup">mp42</property>
  <property name="meta.attr.minor_version.markup">0</property>
  <property name="meta.attr.compatible_brands.markup">mp42mp41isomiso2</property>
  <property name="meta.attr.creation_time.markup">2021-05-14T20:53:20.000000Z</property>
  <property name="meta.attr.encoder.markup">x264</property>
  <property name="seekable">1</property>
  <property name="meta.media.sample_aspect_num">1</property>
  <property name="meta.media.sample_aspect_den">1</property>
  <property name="aspect_ratio">1</property>
  <property name="kdenlive:clipname"/>
  <property name="kdenlive:folderid">40</property>
  <property name="meta.media.frame_rate_num">30</property>
  <property name="meta.media.frame_rate_den">1</property>
  <property name="meta.media.colorspace">709</property>
  <property name="meta.media.color_trc">1</property>
  <property name="meta.media.width">1920</property>
  <property name="meta.media.height">1080</property>
  <property name="meta.media.color_range">mpeg</property>
  <property name="kdenlive:id">13</property>
  <property name="kdenlive:file_size">83962322</property>
  <property name="kdenlive:file_hash">cb4730f22231c94b650017f17e899df7</property>
  <property name="meta.media.top_field_first">0</property>
  <property name="meta.media.progressive">1</property>
  <property name="global_feed">1</property>
 </producer>
 <producer id="producer13" in="00:00:00.000" out="00:11:31.133">
  <property name="length">00:11:31.200</property>
  <property name="eof">pause</property>
  <property name="resource">/media/storage/media/Videos/mine/music_landscapes/2020-10-10/Grahams_camera/2020-10-10_HumberBay_sunrise+city+water+birds_2.MP4</property>
  <property name="audio_index">1</property>
  <property name="video_index">0</property>
  <property name="mute_on_pause">0</property>
  <property name="mlt_service">avformat-novalidate</property>
  <property name="meta.media.nb_streams">3</property>
  <property name="meta.media.0.stream.type">video</property>
  <property name="meta.media.0.stream.frame_rate">59.9401</property>
  <property name="meta.media.0.stream.sample_aspect_ratio">0</property>
  <property name="meta.media.0.codec.width">1920</property>
  <property name="meta.media.0.codec.height">1080</property>
  <property name="meta.media.0.codec.rotate">0</property>
  <property name="meta.media.0.codec.frame_rate">59.9401</property>
  <property name="meta.media.0.codec.pix_fmt">yuvj420p</property>
  <property name="meta.media.0.codec.sample_aspect_ratio">1</property>
  <property name="meta.media.0.codec.colorspace">709</property>
  <property name="meta.media.0.codec.color_trc">1</property>
  <property name="meta.media.0.codec.name">h264</property>
  <property name="meta.media.0.codec.long_name">H.264 / AVC / MPEG-4 AVC / MPEG-4 part 10</property>
  <property name="meta.media.0.codec.bit_rate">48000020</property>
  <property name="meta.attr.0.stream.creation_time.markup">2020-10-10T07:38:22.000000Z</property>
  <property name="meta.attr.0.stream.vendor_id.markup">[0][0][0][0]</property>
  <property name="meta.attr.0.stream.timecode.markup">07:45:36;03</property>
  <property name="meta.media.1.stream.type">audio</property>
  <property name="meta.media.1.codec.sample_fmt">s16</property>
  <property name="meta.media.1.codec.sample_rate">48000</property>
  <property name="meta.media.1.codec.channels">2</property>
  <property name="meta.media.1.codec.name">pcm_s16be</property>
  <property name="meta.media.1.codec.long_name">PCM signed 16-bit big-endian</property>
  <property name="meta.media.1.codec.bit_rate">1536000</property>
  <property name="meta.attr.1.stream.creation_time.markup">2020-10-10T07:38:22.000000Z</property>
  <property name="meta.attr.1.stream.vendor_id.markup">pana</property>
  <property name="meta.attr.1.stream.timecode.markup">07:45:36;03</property>
  <property name="meta.attr.major_brand.markup">mp42</property>
  <property name="meta.attr.minor_version.markup">1</property>
  <property name="meta.attr.compatible_brands.markup">mp42avc1</property>
  <property name="meta.attr.creation_time.markup">2020-10-10T07:38:22.000000Z</property>
  <property name="seekable">1</property>
  <property name="meta.media.sample_aspect_num">1</property>
  <property name="meta.media.sample_aspect_den">1</property>
  <property name="aspect_ratio">1</property>
  <property name="kdenlive:clipname"/>
  <property name="kdenlive:folderid">40</property>
  <property name="meta.media.frame_rate_num">60000</property>
  <property name="meta.media.frame_rate_den">1001</property>
  <property name="meta.media.colorspace">709</property>
  <property name="meta.media.color_trc">1</property>
  <property name="meta.media.width">1920</property>
  <property name="meta.media.height">1080</property>
  <property name="meta.media.color_range">full</property>
  <property name="kdenlive:id">14</property>
  <property name="kdenlive:file_size">4280543407</property>
  <property name="kdenlive:file_hash">83f4b1376366a84c04eb87b7e84aa6b8</property>
  <property name="meta.media.top_field_first">0</property>
  <property name="meta.media.progressive">1</property>
  <property name="kdenlive:audio_max">13</property>
  <property name="global_feed">1</property>
  <property name="kdenlive:active_streams">-1</property>
 </producer>
 <producer id="producer17" in="00:00:00.000" out="00:03:15.267">
  <property name="length">00:03:15.333</property>
  <property name="eof">pause</property>
  <property name="resource">/home/ryankelln/Documents/Projects/Active/Sound_Escapes/rehearsals/1/SoundEscapes_JacksonRehearsal1.mp3</property>
  <property name="meta.media.nb_streams">1</property>
  <property name="meta.media.0.stream.type">audio</property>
  <property name="meta.media.0.codec.sample_fmt">fltp</property>
  <property name="meta.media.0.codec.sample_rate">48000</property>
  <property name="meta.media.0.codec.channels">2</property>
  <property name="meta.media.0.codec.name">mp3float</property>
  <property name="meta.media.0.codec.long_name">MP3 (MPEG audio layer 3)</property>
  <property name="meta.media.0.codec.bit_rate">195000</property>
  <property name="meta.attr.0.stream.encoder.markup">LAME3.100</property>
  <property name="seekable">1</property>
  <property name="audio_index">0</property>
  <property name="video_index">-1</property>
  <property name="mute_on_pause">1</property>
  <property name="mlt_service">avformat</property>
  <property name="kdenlive:clipname"/>
  <property name="kdenlive:folderid">40</property>
  <property name="kdenlive:id">15</property>
  <property name="kdenlive:file_size">4761312</property>
  <property name="kdenlive:file_hash">9645b4182ecb2c41169d1f5a8e0a7f9c</property>
  <property name="kdenlive:audio_max">1</property>
  <property name="global_feed">1</property>
 </producer>
 <producer id="producer2" in="00:00:00.000" out="00:02:45.000">
  <property name="length">00:02:45.067</property>
  <property name="eof">pause</property>
  <property name="resource">/home/ryankelln/Documents/Projects/Active/Sound_Escapes/Jackson/footage/Birds of Varanasi _ VOTE 4 ADVENTURE _ Amazing video of drone flying through flock of birds - INDIA-_5Wxl6A4tGk.mkv</property>
  <property name="audio_index">1</property>
  <property name="video_index">0</property>
  <property name="mute_on_pause">0</property>
  <property name="mlt_service">avformat-novalidate</property>
  <property name="meta.media.nb_streams">2</property>
  <property name="meta.media.0.stream.type">video</property>
  <property name="meta.media.0.stream.frame_rate">29.97</property>
  <property name="meta.media.0.stream.sample_aspect_ratio">1</property>
  <property name="meta.media.0.codec.width">1920</property>
  <property name="meta.media.0.codec.height">1080</property>
  <property name="meta.media.0.codec.rotate">0</property>
  <property name="meta.media.0.codec.frame_rate">29.97</property>
  <property name="meta.media.0.codec.pix_fmt">yuv420p</property>
  <property name="meta.media.0.codec.sample_aspect_ratio">1</property>
  <property name="meta.media.0.codec.colorspace">709</property>
  <property name="meta.media.0.codec.color_trc">1</property>
  <property name="meta.media.0.codec.name">h264</property>
  <property name="meta.media.0.codec.long_name">H.264 / AVC / MPEG-4 AVC / MPEG-4 part 10</property>
  <property name="meta.media.0.codec.bit_rate">0</property>
  <property name="meta.attr.0.stream.HANDLER_NAME.markup">ISO Media file produced by Google Inc. Created on: 02/11/2019.</property>
  <property name="meta.attr.0.stream.DURATION.markup">00:02:44.964000000</property>
  <property name="meta.media.1.stream.type">audio</property>
  <property name="meta.media.1.codec.sample_fmt">fltp</property>
  <property name="meta.media.1.codec.sample_rate">48000</property>
  <property name="meta.media.1.codec.channels">2</property>
  <property name="meta.media.1.codec.name">opus</property>
  <property name="meta.media.1.codec.long_name">Opus</property>
  <property name="meta.media.1.codec.bit_rate">0</property>
  <property name="meta.attr.1.stream.language.markup">eng</property>
  <property name="meta.attr.1.stream.DURATION.markup">00:02:45.041000000</property>
  <property name="meta.attr.COMPATIBLE_BRANDS.markup">iso6avc1mp41</property>
  <property name="meta.attr.MAJOR_BRAND.markup">dash</property>
  <property name="meta.attr.MINOR_VERSION.markup">0</property>
  <property name="meta.attr.ENCODER.markup">Lavf58.45.100</property>
  <property name="seekable">1</property>
  <property name="meta.media.sample_aspect_num">1</property>
  <property name="meta.media.sample_aspect_den">1</property>
  <property name="aspect_ratio">1</property>
  <property name="kdenlive:clipname"/>
  <property name="kdenlive:folderid">40</property>
  <property name="meta.media.frame_rate_num">30000</property>
  <property name="meta.media.frame_rate_den">1001</property>
  <property name="meta.media.colorspace">709</property>
  <property name="meta.media.color_trc">1</property>
  <property name="meta.media.width">1920</property>
  <property name="meta.media.height">1080</property>
  <property name="meta.media.color_range">mpeg</property>
  <property name="kdenlive:id">16</property>
  <property name="kdenlive:file_size">67326041</property>
  <property name="kdenlive:file_hash">ac26dc1ada5ff10da5ef59d135e399a6</property>
  <property name="kdenlive:audio_max">1</property>
  <property name="meta.media.top_field_first">0</property>
  <property name="meta.media.progressive">1</property>
 </producer>
 <producer id="producer14" in="00:00:00.000" out="00:00:07.800">
  <property name="length">00:00:07.867</property>
  <property name="eof">pause</property>
  <property name="resource">/home/ryankelln/Documents/Projects/Active/Sound_Escapes/Jackson/footage/gull flying slow mo bird and sky-dfA3UASzwS0.mp4</property>
  <property name="audio_index">1</property>
  <property name="video_index">0</property>
  <property name="mute_on_pause">0</property>
  <property name="mlt_service">avformat-novalidate</property>
  <property name="meta.media.nb_streams">2</property>
  <property name="meta.media.0.stream.type">video</property>
  <property name="meta.media.0.stream.frame_rate">30.0968</property>
  <property name="meta.media.0.stream.sample_aspect_ratio">1</property>
  <property name="meta.media.0.codec.width">1920</property>
  <property name="meta.media.0.codec.height">1080</property>
  <property name="meta.media.0.codec.rotate">0</property>
  <property name="meta.media.0.codec.frame_rate">29.97</property>
  <property name="meta.media.0.codec.pix_fmt">yuv420p</property>
  <property name="meta.media.0.codec.sample_aspect_ratio">1</property>
  <property name="meta.media.0.codec.colorspace">709</property>
  <property name="meta.media.0.codec.color_trc">1</property>
  <property name="meta.media.0.codec.name">h264</property>
  <property name="meta.media.0.codec.long_name">H.264 / AVC / MPEG-4 AVC / MPEG-4 part 10</property>
  <property name="meta.media.0.codec.bit_rate">1049438</property>
  <property name="meta.attr.0.stream.handler_name.markup">ISO Media file produced by Google Inc. Created on: 05/22/2021.</property>
  <property name="meta.attr.0.stream.vendor_id.markup">[0][0][0][0]</property>
  <property name="meta.media.1.stream.type">audio</property>
  <property name="meta.media.1.codec.sample_fmt">fltp</property>
  <property name="meta.media.1.codec.sample_rate">44100</property>
  <property name="meta.media.1.codec.channels">2</property>
  <property name="meta.media.1.codec.name">aac</property>
  <property name="meta.media.1.codec.long_name">AAC (Advanced Audio Coding)</property>
  <property name="meta.media.1.codec.bit_rate">127999</property>
  <property name="meta.attr.1.stream.handler_name.markup">ISO Media file produced by Google Inc.</property>
  <property name="meta.attr.1.stream.vendor_id.markup">[0][0][0][0]</property>
  <property name="meta.attr.major_brand.markup">isom</property>
  <property name="meta.attr.minor_version.markup">512</property>
  <property name="meta.attr.compatible_brands.markup">isomiso2avc1mp41</property>
  <property name="meta.attr.encoder.markup">Lavf58.45.100</property>
  <property name="seekable">1</property>
  <property name="meta.media.sample_aspect_num">1</property>
  <property name="meta.media.sample_aspect_den">1</property>
  <property name="aspect_ratio">1</property>
  <property name="kdenlive:clipname"/>
  <property name="kdenlive:folderid">40</property>
  <property name="meta.media.frame_rate_num">1762500</property>
  <property name="meta.media.frame_rate_den">58561</property>
  <property name="meta.media.colorspace">709</property>
  <property name="meta.media.color_trc">1</property>
  <property name="meta.media.width">1920</property>
  <property name="meta.media.height">1080</property>
  <property name="meta.media.color_range">mpeg</property>
  <property name="kdenlive:id">17</property>
  <property name="kdenlive:file_size">1158331</property>
  <property name="kdenlive:file_hash">5203107a34ef2012072d70e80d74c459</property>
  <property name="kdenlive:audio_max">91</property>
  <property name="meta.media.top_field_first">0</property>
  <property name="meta.media.progressive">1</property>
  <property name="global_feed">1</property>
  <property name="kdenlive:active_streams">-1</property>
 </producer>
 <producer id="producer16" in="00:00:00.000" out="00:14:18.467">
  <property name="length">00:14:18.533</property>
  <property name="eof">pause</property>
  <property name="resource">/media/storage/media/Videos/mine/music_landscapes/2020-12-29/Camerons_camera/2020-12-29_Toronto_sky+clouds_2_unstable.MP4.stable.MP4</property>
  <property name="audio_index">1</property>
  <property name="video_index">0</property>
  <property name="mute_on_pause">0</property>
  <property name="mlt_service">avformat-novalidate</property>
  <property name="meta.media.nb_streams">3</property>
  <property name="meta.media.0.stream.type">video</property>
  <property name="meta.media.0.stream.frame_rate">24</property>
  <property name="meta.media.0.stream.sample_aspect_ratio">1</property>
  <property name="meta.media.0.codec.width">1920</property>
  <property name="meta.media.0.codec.height">1080</property>
  <property name="meta.media.0.codec.rotate">0</property>
  <property name="meta.media.0.codec.frame_rate">24</property>
  <property name="meta.media.0.codec.pix_fmt">yuv420p</property>
  <property name="meta.media.0.codec.sample_aspect_ratio">1</property>
  <property name="meta.media.0.codec.colorspace">709</property>
  <property name="meta.media.0.codec.name">h264</property>
  <property name="meta.media.0.codec.long_name">H.264 / AVC / MPEG-4 AVC / MPEG-4 part 10</property>
  <property name="meta.media.0.codec.bit_rate">1538545</property>
  <property name="meta.attr.0.stream.handler_name.markup">VideoHandler</property>
  <property name="meta.attr.0.stream.vendor_id.markup">[0][0][0][0]</property>
  <property name="meta.attr.0.stream.timecode.markup">22:17:31:15</property>
  <property name="meta.media.1.stream.type">audio</property>
  <property name="meta.media.1.codec.sample_fmt">fltp</property>
  <property name="meta.media.1.codec.sample_rate">48000</property>
  <property name="meta.media.1.codec.channels">2</property>
  <property name="meta.media.1.codec.name">aac</property>
  <property name="meta.media.1.codec.long_name">AAC (Advanced Audio Coding)</property>
  <property name="meta.media.1.codec.bit_rate">2275</property>
  <property name="meta.attr.1.stream.handler_name.markup">SoundHandler</property>
  <property name="meta.attr.1.stream.vendor_id.markup">[0][0][0][0]</property>
  <property name="meta.attr.major_brand.markup">isom</property>
  <property name="meta.attr.minor_version.markup">512</property>
  <property name="meta.attr.compatible_brands.markup">isomiso2avc1mp41</property>
  <property name="meta.attr.encoder.markup">Lavf58.45.100</property>
  <property name="seekable">1</property>
  <property name="meta.media.sample_aspect_num">1</property>
  <property name="meta.media.sample_aspect_den">1</property>
  <property name="aspect_ratio">1</property>
  <property name="kdenlive:clipname"/>
  <property name="kdenlive:folderid">40</property>
  <property name="meta.media.frame_rate_num">24</property>
  <property name="meta.media.frame_rate_den">1</property>
  <property name="meta.media.colorspace">709</property>
  <property name="meta.media.color_trc">2</property>
  <property name="meta.media.width">1920</property>
  <property name="meta.media.height">1080</property>
  <property name="meta.media.color_range">mpeg</property>
  <property name="kdenlive:id">18</property>
  <property name="kdenlive:file_size">165873674</property>
  <property name="kdenlive:file_hash">820ec3e7d6d2398fc6d9252d1da549a9</property>
  <property name="kdenlive:audio_max">91</property>
  <property name="meta.media.top_field_first">0</property>
  <property name="meta.media.progressive">1</property>
  <property name="global_feed">1</property>
  <property name="kdenlive:active_streams">-1</property>
 </producer>
 <producer id="producer19" in="00:00:00.000" out="00:01:57.000">
  <property name="length">00:01:57.067</property>
  <property name="eof">pause</property>
  <property name="resource">/home/ryankelln/Documents/Projects/Active/Sound_Escapes/Jackson/storyboard/boids_start_white.mp4</property>
  <property name="audio_index">-1</property>
  <property name="video_index">0</property>
  <property name="mute_on_pause">0</property>
  <property name="mlt_service">avformat-novalidate</property>
  <property name="meta.media.nb_streams">1</property>
  <property name="meta.media.0.stream.type">video</property>
  <property name="meta.media.0.stream.frame_rate">30</property>
  <property name="meta.media.0.stream.sample_aspect_ratio">1</property>
  <property name="meta.media.0.codec.width">1920</property>
  <property name="meta.media.0.codec.height">1080</property>
  <property name="meta.media.0.codec.rotate">0</property>
  <property name="meta.media.0.codec.frame_rate">30</property>
  <property name="meta.media.0.codec.pix_fmt">yuv444p</property>
  <property name="meta.media.0.codec.sample_aspect_ratio">1</property>
  <property name="meta.media.0.codec.colorspace">709</property>
  <property name="meta.media.0.codec.color_trc">1</property>
  <property name="meta.media.0.codec.name">h264</property>
  <property name="meta.media.0.codec.long_name">H.264 / AVC / MPEG-4 AVC / MPEG-4 part 10</property>
  <property name="meta.media.0.codec.bit_rate">2318096</property>
  <property name="meta.attr.0.stream.creation_time.markup">2021-05-28T19:23:39.000000Z</property>
  <property name="meta.attr.0.stream.handler_name.markup">VideoHandler</property>
  <property name="meta.attr.0.stream.vendor_id.markup">[0][0][0][0]</property>
  <property name="meta.attr.major_brand.markup">mp42</property>
  <property name="meta.attr.minor_version.markup">0</property>
  <property name="meta.attr.compatible_brands.markup">mp42mp41isomiso2</property>
  <property name="meta.attr.creation_time.markup">2021-05-28T19:23:39.000000Z</property>
  <property name="meta.attr.encoder.markup">x264</property>
  <property name="seekable">1</property>
  <property name="meta.media.sample_aspect_num">1</property>
  <property name="meta.media.sample_aspect_den">1</property>
  <property name="aspect_ratio">1</property>
  <property name="kdenlive:clipname"/>
  <property name="kdenlive:folderid">40</property>
  <property name="meta.media.frame_rate_num">30</property>
  <property name="meta.media.frame_rate_den">1</property>
  <property name="meta.media.colorspace">709</property>
  <property name="meta.media.color_trc">1</property>
  <property name="meta.media.width">1920</property>
  <property name="meta.media.height">1080</property>
  <property name="meta.media.color_range">mpeg</property>
  <property name="kdenlive:id">19</property>
  <property name="kdenlive:file_size">33936491</property>
  <property name="kdenlive:file_hash">0bd2831e248f6c949b70b2ea5ba1f47c</property>
  <property name="meta.media.top_field_first">0</property>
  <property name="meta.media.progressive">1</property>
  <property name="kdenlive:zone_in">240</property>
  <property name="kdenlive:zone_out">554</property>
  <property name="kdenlive:clipzones">[
    {
        "in": 240,
        "name": "Zone 1",
        "out": 554
    }
]
</property>
  <property name="global_feed">1</property>
 </producer>
 <producer id="producer20" in="00:00:00.000" out="00:01:43.133">
  <property name="length">00:01:43.200</property>
  <property name="eof">pause</property>
  <property name="resource">/home/ryankelln/Documents/Projects/Active/Sound_Escapes/Jackson/storyboard/boids_start_white_2.mp4</property>
  <property name="audio_index">-1</property>
  <property name="video_index">0</property>
  <property name="mute_on_pause">0</property>
  <property name="mlt_service">avformat-novalidate</property>
  <property name="meta.media.nb_streams">1</property>
  <property name="meta.media.0.stream.type">video</property>
  <property name="meta.media.0.stream.frame_rate">30</property>
  <property name="meta.media.0.stream.sample_aspect_ratio">1</property>
  <property name="meta.media.0.codec.width">1920</property>
  <property name="meta.media.0.codec.height">1080</property>
  <property name="meta.media.0.codec.rotate">0</property>
  <property name="meta.media.0.codec.frame_rate">30</property>
  <property name="meta.media.0.codec.pix_fmt">yuv444p</property>
  <property name="meta.media.0.codec.sample_aspect_ratio">1</property>
  <property name="meta.media.0.codec.colorspace">709</property>
  <property name="meta.media.0.codec.color_trc">1</property>
  <property name="meta.media.0.codec.name">h264</property>
  <property name="meta.media.0.codec.long_name">H.264 / AVC / MPEG-4 AVC / MPEG-4 part 10</property>
  <property name="meta.media.0.codec.bit_rate">1887071</property>
  <property name="meta.attr.0.stream.creation_time.markup">2021-05-28T20:07:40.000000Z</property>
  <property name="meta.attr.0.stream.handler_name.markup">VideoHandler</property>
  <property name="meta.attr.0.stream.vendor_id.markup">[0][0][0][0]</property>
  <property name="meta.attr.major_brand.markup">mp42</property>
  <property name="meta.attr.minor_version.markup">0</property>
  <property name="meta.attr.compatible_brands.markup">mp42mp41isomiso2</property>
  <property name="meta.attr.creation_time.markup">2021-05-28T20:07:40.000000Z</property>
  <property name="meta.attr.encoder.markup">x264</property>
  <property name="seekable">1</property>
  <property name="meta.media.sample_aspect_num">1</property>
  <property name="meta.media.sample_aspect_den">1</property>
  <property name="aspect_ratio">1</property>
  <property name="kdenlive:clipname"/>
  <property name="kdenlive:folderid">40</property>
  <property name="meta.media.frame_rate_num">30</property>
  <property name="meta.media.frame_rate_den">1</property>
  <property name="meta.media.colorspace">709</property>
  <property name="meta.media.color_trc">1</property>
  <property name="meta.media.width">1920</property>
  <property name="meta.media.height">1080</property>
  <property name="meta.media.color_range">mpeg</property>
  <property name="kdenlive:id">20</property>
  <property name="kdenlive:file_size">24364441</property>
  <property name="kdenlive:file_hash">e0953d7fecaa3d98cc4e1780f318068e</property>
  <property name="meta.media.top_field_first">0</property>
  <property name="meta.media.progressive">1</property>
  <property name="kdenlive:zone_in">260</property>
  <property name="kdenlive:zone_out">615</property>
  <property name="kdenlive:clipzones">[
    {
        "in": 260,
        "name": "Zone 2",
        "out": 615
    }
]
</property>
  <property name="global_feed">1</property>
 </producer>
 <producer id="producer21" in="00:00:00.000" out="00:02:24.933">
  <property name="length">00:02:25.000</property>
  <property name="eof">pause</property>
  <property name="resource">/home/ryankelln/Documents/Projects/Active/Sound_Escapes/Jackson/footage/sunrise_timelapse_slow_water.mp4</property>
  <property name="audio_index">-1</property>
  <property name="video_index">0</property>
  <property name="mute_on_pause">0</property>
  <property name="mlt_service">avformat-novalidate</property>
  <property name="meta.media.nb_streams">1</property>
  <property name="meta.media.0.stream.type">video</property>
  <property name="meta.media.0.stream.frame_rate">59.9401</property>
  <property name="meta.media.0.stream.sample_aspect_ratio">1</property>
  <property name="meta.media.0.codec.width">1920</property>
  <property name="meta.media.0.codec.height">1080</property>
  <property name="meta.media.0.codec.rotate">0</property>
  <property name="meta.media.0.codec.frame_rate">59.9401</property>
  <property name="meta.media.0.codec.pix_fmt">yuvj420p</property>
  <property name="meta.media.0.codec.sample_aspect_ratio">1</property>
  <property name="meta.media.0.codec.colorspace">709</property>
  <property name="meta.media.0.codec.name">h264</property>
  <property name="meta.media.0.codec.long_name">H.264 / AVC / MPEG-4 AVC / MPEG-4 part 10</property>
  <property name="meta.media.0.codec.bit_rate">3080625</property>
  <property name="meta.attr.0.stream.handler_name.markup">VideoHandler</property>
  <property name="meta.attr.0.stream.vendor_id.markup">[0][0][0][0]</property>
  <property name="meta.attr.major_brand.markup">isom</property>
  <property name="meta.attr.minor_version.markup">512</property>
  <property name="meta.attr.compatible_brands.markup">isomiso2avc1mp41</property>
  <property name="meta.attr.encoder.markup">Lavf58.45.100</property>
  <property name="seekable">1</property>
  <property name="meta.media.sample_aspect_num">1</property>
  <property name="meta.media.sample_aspect_den">1</property>
  <property name="aspect_ratio">1</property>
  <property name="kdenlive:clipname"/>
  <property name="kdenlive:folderid">40</property>
  <property name="meta.media.frame_rate_num">60000</property>
  <property name="meta.media.frame_rate_den">1001</property>
  <property name="meta.media.colorspace">709</property>
  <property name="meta.media.color_trc">2</property>
  <property name="meta.media.width">1920</property>
  <property name="meta.media.height">1080</property>
  <property name="meta.media.color_range">full</property>
  <property name="kdenlive:id">21</property>
  <property name="kdenlive:file_size">55946459</property>
  <property name="kdenlive:file_hash">215e61a2f32aa22723740ba4dea82087</property>
  <property name="meta.media.top_field_first">0</property>
  <property name="meta.media.progressive">1</property>
  <property name="global_feed">1</property>
 </producer>
 <producer id="producer22" in="00:00:00.000" out="00:02:08.600">
  <property name="length">00:02:08.667</property>
  <property name="eof">pause</property>
  <property name="resource">/home/ryankelln/Documents/Projects/Active/Sound_Escapes/Jackson/storyboard/boids_piano_white.mp4</property>
  <property name="audio_index">-1</property>
  <property name="video_index">0</property>
  <property name="mute_on_pause">0</property>
  <property name="mlt_service">avformat-novalidate</property>
  <property name="meta.media.nb_streams">1</property>
  <property name="meta.media.0.stream.type">video</property>
  <property name="meta.media.0.stream.frame_rate">30</property>
  <property name="meta.media.0.stream.sample_aspect_ratio">1</property>
  <property name="meta.media.0.codec.width">1920</property>
  <property name="meta.media.0.codec.height">1080</property>
  <property name="meta.media.0.codec.rotate">0</property>
  <property name="meta.media.0.codec.frame_rate">30</property>
  <property name="meta.media.0.codec.pix_fmt">yuv444p</property>
  <property name="meta.media.0.codec.sample_aspect_ratio">1</property>
  <property name="meta.media.0.codec.colorspace">709</property>
  <property name="meta.media.0.codec.color_trc">1</property>
  <property name="meta.media.0.codec.name">h264</property>
  <property name="meta.media.0.codec.long_name">H.264 / AVC / MPEG-4 AVC / MPEG-4 part 10</property>
  <property name="meta.media.0.codec.bit_rate">5627874</property>
  <property name="meta.attr.0.stream.creation_time.markup">2021-05-29T00:14:53.000000Z</property>
  <property name="meta.attr.0.stream.handler_name.markup">VideoHandler</property>
  <property name="meta.attr.0.stream.vendor_id.markup">[0][0][0][0]</property>
  <property name="meta.attr.major_brand.markup">mp42</property>
  <property name="meta.attr.minor_version.markup">0</property>
  <property name="meta.attr.compatible_brands.markup">mp42mp41isomiso2</property>
  <property name="meta.attr.creation_time.markup">2021-05-29T00:14:52.000000Z</property>
  <property name="meta.attr.encoder.markup">x264</property>
  <property name="seekable">1</property>
  <property name="meta.media.sample_aspect_num">1</property>
  <property name="meta.media.sample_aspect_den">1</property>
  <property name="aspect_ratio">1</property>
  <property name="kdenlive:clipname"/>
  <property name="kdenlive:folderid">40</property>
  <property name="meta.media.frame_rate_num">30</property>
  <property name="meta.media.frame_rate_den">1</property>
  <property name="meta.media.colorspace">709</property>
  <property name="meta.media.color_trc">1</property>
  <property name="meta.media.width">1920</property>
  <property name="meta.media.height">1080</property>
  <property name="meta.media.color_range">mpeg</property>
  <property name="kdenlive:id">22</property>
  <property name="kdenlive:file_size">90554846</property>
  <property name="kdenlive:file_hash">cf72e1a40d04a6e98f45e6b428dbfe6d</property>
  <property name="meta.media.top_field_first">0</property>
  <property name="meta.media.progressive">1</property>
  <property name="kdenlive:zone_in">1443</property>
  <property name="kdenlive:zone_out">1770</property>
  <property name="kdenlive:clipzones">[
    {
        "in": 421,
        "name": "Zone 1",
        "out": 1040
    },
    {
        "in": 1443,
        "name": "Zone 2",
        "out": 1770
    }
]
</property>
  <property name="global_feed">1</property>
 </producer>
 <producer id="producer23" in="00:00:00.000" out="00:01:15.267">
  <property name="length">00:01:15.333</property>
  <property name="eof">pause</property>
  <property name="resource">/home/ryankelln/Documents/Projects/Active/Sound_Escapes/Jackson/storyboard/boids_on_black.mp4</property>
  <property name="audio_index">-1</property>
  <property name="video_index">0</property>
  <property name="mute_on_pause">0</property>
  <property name="mlt_service">avformat-novalidate</property>
  <property name="meta.media.nb_streams">1</property>
  <property name="meta.media.0.stream.type">video</property>
  <property name="meta.media.0.stream.frame_rate">30</property>
  <property name="meta.media.0.stream.sample_aspect_ratio">1</property>
  <property name="meta.media.0.codec.width">1920</property>
  <property name="meta.media.0.codec.height">1080</property>
  <property name="meta.media.0.codec.rotate">0</property>
  <property name="meta.media.0.codec.frame_rate">30</property>
  <property name="meta.media.0.codec.pix_fmt">yuv444p</property>
  <property name="meta.media.0.codec.sample_aspect_ratio">1</property>
  <property name="meta.media.0.codec.colorspace">709</property>
  <property name="meta.media.0.codec.color_trc">1</property>
  <property name="meta.media.0.codec.name">h264</property>
  <property name="meta.media.0.codec.long_name">H.264 / AVC / MPEG-4 AVC / MPEG-4 part 10</property>
  <property name="meta.media.0.codec.bit_rate">2999478</property>
  <property name="meta.attr.0.stream.creation_time.markup">2021-05-29T00:26:10.000000Z</property>
  <property name="meta.attr.0.stream.handler_name.markup">VideoHandler</property>
  <property name="meta.attr.0.stream.vendor_id.markup">[0][0][0][0]</property>
  <property name="meta.attr.major_brand.markup">mp42</property>
  <property name="meta.attr.minor_version.markup">0</property>
  <property name="meta.attr.compatible_brands.markup">mp42mp41isomiso2</property>
  <property name="meta.attr.creation_time.markup">2021-05-29T00:26:10.000000Z</property>
  <property name="meta.attr.encoder.markup">x264</property>
  <property name="seekable">1</property>
  <property name="meta.media.sample_aspect_num">1</property>
  <property name="meta.media.sample_aspect_den">1</property>
  <property name="aspect_ratio">1</property>
  <property name="kdenlive:clipname"/>
  <property name="kdenlive:folderid">40</property>
  <property name="meta.media.frame_rate_num">30</property>
  <property name="meta.media.frame_rate_den">1</property>
  <property name="meta.media.colorspace">709</property>
  <property name="meta.media.color_trc">1</property>
  <property name="meta.media.width">1920</property>
  <property name="meta.media.height">1080</property>
  <property name="meta.media.color_range">mpeg</property>
  <property name="kdenlive:id">23</property>
  <property name="kdenlive:file_size">28255082</property>
  <property name="kdenlive:file_hash">090b2100d58cef632410291b49a18dae</property>
  <property name="meta.media.top_field_first">0</property>
  <property name="meta.media.progressive">1</property>
  <property name="kdenlive:zone_in">101</property>
  <property name="kdenlive:zone_out">640</property>
  <property name="kdenlive:clipzones">[
    {
        "in": 101,
        "name": "Zone 1",
        "out": 640
    }
]
</property>
  <property name="global_feed">1</property>
 </producer>
 <producer id="producer24" in="00:00:00.000" out="00:02:28.133">
  <property name="length">4445</property>
  <property name="eof">pause</property>
  <property name="resource">/home/ryankelln/Documents/Projects/Active/Sound_Escapes/musician_footage/musicians_greenscreen_test_on_white.mp4</property>
  <property name="audio_index">-1</property>
  <property name="video_index">0</property>
  <property name="mute_on_pause">0</property>
  <property name="mlt_service">avformat-novalidate</property>
  <property name="meta.media.nb_streams">1</property>
  <property name="meta.media.0.stream.type">video</property>
  <property name="meta.media.0.stream.frame_rate">30</property>
  <property name="meta.media.0.stream.sample_aspect_ratio">1</property>
  <property name="meta.media.0.codec.width">1920</property>
  <property name="meta.media.0.codec.height">1080</property>
  <property name="meta.media.0.codec.rotate">0</property>
  <property name="meta.media.0.codec.frame_rate">30</property>
  <property name="meta.media.0.codec.pix_fmt">yuv420p</property>
  <property name="meta.media.0.codec.sample_aspect_ratio">1</property>
  <property name="meta.media.0.codec.colorspace">709</property>
  <property name="meta.media.0.codec.color_trc">1</property>
  <property name="meta.media.0.codec.name">h264</property>
  <property name="meta.media.0.codec.long_name">H.264 / AVC / MPEG-4 AVC / MPEG-4 part 10</property>
  <property name="meta.media.0.codec.bit_rate">3826089</property>
  <property name="meta.attr.0.stream.handler_name.markup">VideoHandler</property>
  <property name="meta.attr.0.stream.vendor_id.markup">[0][0][0][0]</property>
  <property name="meta.attr.major_brand.markup">isom</property>
  <property name="meta.attr.minor_version.markup">512</property>
  <property name="meta.attr.compatible_brands.markup">isomiso2avc1mp41</property>
  <property name="meta.attr.encoder.markup">Lavf58.76.100</property>
  <property name="seekable">1</property>
  <property name="meta.media.sample_aspect_num">1</property>
  <property name="meta.media.sample_aspect_den">1</property>
  <property name="aspect_ratio">1</property>
  <property name="kdenlive:clipname"/>
  <property name="kdenlive:folderid">40</property>
  <property name="meta.media.frame_rate_num">30</property>
  <property name="meta.media.frame_rate_den">1</property>
  <property name="meta.media.colorspace">709</property>
  <property name="meta.media.color_trc">1</property>
  <property name="meta.media.width">1920</property>
  <property name="meta.media.height">1080</property>
  <property name="meta.media.color_range">mpeg</property>
  <property name="kdenlive:id">24</property>
  <property name="kdenlive:file_size">70909706</property>
  <property name="kdenlive:file_hash">9dc0e65408ad03cdb148ea7a4c185783</property>
  <property name="meta.media.top_field_first">0</property>
  <property name="meta.media.progressive">1</property>
  <property name="kdenlive:zone_in">3367</property>
  <property name="kdenlive:zone_out">4226</property>
  <property name="kdenlive:clipzones">[
    {
        "in": 3367,
        "name": "Zone 1",
        "out": 4226
    }
]
</property>
  <property name="global_feed">1</property>
 </producer>
 <producer id="producer25" in="00:00:00.000" out="00:02:28.133">
  <property name="length">4445</property>
  <property name="eof">pause</property>
  <property name="resource">/home/ryankelln/Documents/Projects/Active/Sound_Escapes/musician_footage/musicians_greenscreen_test_2.mp4</property>
  <property name="audio_index">-1</property>
  <property name="video_index">0</property>
  <property name="mute_on_pause">0</property>
  <property name="mlt_service">avformat-novalidate</property>
  <property name="meta.media.nb_streams">1</property>
  <property name="meta.media.0.stream.type">video</property>
  <property name="meta.media.0.stream.frame_rate">30</property>
  <property name="meta.media.0.stream.sample_aspect_ratio">1</property>
  <property name="meta.media.0.codec.width">1920</property>
  <property name="meta.media.0.codec.height">1080</property>
  <property name="meta.media.0.codec.rotate">0</property>
  <property name="meta.media.0.codec.frame_rate">30</property>
  <property name="meta.media.0.codec.pix_fmt">yuv420p</property>
  <property name="meta.media.0.codec.sample_aspect_ratio">1</property>
  <property name="meta.media.0.codec.colorspace">709</property>
  <property name="meta.media.0.codec.color_trc">1</property>
  <property name="meta.media.0.codec.name">h264</property>
  <property name="meta.media.0.codec.long_name">H.264 / AVC / MPEG-4 AVC / MPEG-4 part 10</property>
  <property name="meta.media.0.codec.bit_rate">4232890</property>
  <property name="meta.attr.0.stream.handler_name.markup">VideoHandler</property>
  <property name="meta.attr.0.stream.vendor_id.markup">[0][0][0][0]</property>
  <property name="meta.attr.major_brand.markup">isom</property>
  <property name="meta.attr.minor_version.markup">512</property>
  <property name="meta.attr.compatible_brands.markup">isomiso2avc1mp41</property>
  <property name="meta.attr.encoder.markup">Lavf58.76.100</property>
  <property name="seekable">1</property>
  <property name="meta.media.sample_aspect_num">1</property>
  <property name="meta.media.sample_aspect_den">1</property>
  <property name="aspect_ratio">1</property>
  <property name="kdenlive:clipname"/>
  <property name="kdenlive:folderid">40</property>
  <property name="meta.media.frame_rate_num">30</property>
  <property name="meta.media.frame_rate_den">1</property>
  <property name="meta.media.colorspace">709</property>
  <property name="meta.media.color_trc">1</property>
  <property name="meta.media.width">1920</property>
  <property name="meta.media.height">1080</property>
  <property name="meta.media.color_range">mpeg</property>
  <property name="kdenlive:id">25</property>
  <property name="kdenlive:file_size">78444272</property>
  <property name="kdenlive:file_hash">9297512d6bce04ff44d065ea5c8f4079</property>
  <property name="meta.media.top_field_first">0</property>
  <property name="meta.media.progressive">1</property>
  <property name="kdenlive:zone_in">2222</property>
  <property name="kdenlive:zone_out">3214</property>
  <property name="kdenlive:clipzones">[
    {
        "in": 3288,
        "name": "Zone 1",
        "out": 4418
    },
    {
        "in": 1081,
        "name": "Zone 2",
        "out": 1741
    },
    {
        "in": 2222,
        "name": "Zone 3",
        "out": 3214
    }
]
</property>
  <property name="global_feed">1</property>
 </producer>
 <producer id="producer26" in="00:00:00.000" out="00:00:35.533">
  <property name="length">1067</property>
  <property name="eof">pause</property>
  <property name="resource">0x00ff00ff</property>
  <property name="aspect_ratio">1</property>
  <property name="mlt_service">color</property>
  <property name="kdenlive:clipname">Color Clip</property>
  <property name="kdenlive:duration">00:00:05.000</property>
  <property name="kdenlive:folderid">40</property>
  <property name="kdenlive:id">26</property>
  <property name="mlt_image_format">rgb24</property>
  <property name="kdenlive:file_hash">7537b2f503f3644254b8472247b4b1d1</property>
 </producer>
 <producer id="producer27" in="00:00:00.000" out="00:00:33.067">
  <property name="length">993</property>
  <property name="eof">pause</property>
  <property name="resource">/home/ryankelln/Documents/Projects/Active/Sound_Escapes/Jackson/storyboard/musician_headshots_gs_v1.mp4</property>
  <property name="audio_index">-1</property>
  <property name="video_index">0</property>
  <property name="mute_on_pause">0</property>
  <property name="mlt_service">avformat-novalidate</property>
  <property name="meta.media.nb_streams">1</property>
  <property name="meta.media.0.stream.type">video</property>
  <property name="meta.media.0.stream.frame_rate">30</property>
  <property name="meta.media.0.stream.sample_aspect_ratio">1</property>
  <property name="meta.media.0.codec.width">1920</property>
  <property name="meta.media.0.codec.height">1080</property>
  <property name="meta.media.0.codec.rotate">0</property>
  <property name="meta.media.0.codec.frame_rate">30</property>
  <property name="meta.media.0.codec.pix_fmt">yuv420p</property>
  <property name="meta.media.0.codec.sample_aspect_ratio">1</property>
  <property name="meta.media.0.codec.colorspace">709</property>
  <property name="meta.media.0.codec.color_trc">1</property>
  <property name="meta.media.0.codec.name">h264</property>
  <property name="meta.media.0.codec.long_name">H.264 / AVC / MPEG-4 AVC / MPEG-4 part 10</property>
  <property name="meta.media.0.codec.bit_rate">3298295</property>
  <property name="meta.attr.0.stream.handler_name.markup">VideoHandler</property>
  <property name="meta.attr.0.stream.vendor_id.markup">[0][0][0][0]</property>
  <property name="meta.attr.major_brand.markup">isom</property>
  <property name="meta.attr.minor_version.markup">512</property>
  <property name="meta.attr.compatible_brands.markup">isomiso2avc1mp41</property>
  <property name="meta.attr.encoder.markup">Lavf58.76.100</property>
  <property name="seekable">1</property>
  <property name="meta.media.sample_aspect_num">1</property>
  <property name="meta.media.sample_aspect_den">1</property>
  <property name="aspect_ratio">1</property>
  <property name="kdenlive:clipname"/>
  <property name="kdenlive:folderid">40</property>
  <property name="meta.media.frame_rate_num">30</property>
  <property name="meta.media.frame_rate_den">1</property>
  <property name="meta.media.colorspace">709</property>
  <property name="meta.media.color_trc">1</property>
  <property name="meta.media.width">1920</property>
  <property name="meta.media.height">1080</property>
  <property name="meta.media.color_range">mpeg</property>
  <property name="kdenlive:id">27</property>
  <property name="kdenlive:file_size">13657813</property>
  <property name="kdenlive:file_hash">4e7814484628db33aa84e177647b8cf7</property>
  <property name="meta.media.top_field_first">0</property>
  <property name="meta.media.progressive">1</property>
  <property name="global_feed">1</property>
 </producer>
 <producer id="producer29" in="00:00:00.000" out="00:04:59.600">
  <property name="length">8989</property>
  <property name="eof">pause</property>
  <property name="resource">content/musicians/2021-06-02_Sarah_kit_jackson_00044-take2_full.mp4</property>
  <property name="audio_index">1</property>
  <property name="video_index">0</property>
  <property name="mute_on_pause">0</property>
  <property name="mlt_service">avformat-novalidate</property>
  <property name="meta.media.nb_streams">2</property>
  <property name="meta.media.0.stream.type">video</property>
  <property name="meta.media.0.stream.frame_rate">59.9401</property>
  <property name="meta.media.0.stream.sample_aspect_ratio">1.33333</property>
  <property name="meta.media.0.codec.width">1440</property>
  <property name="meta.media.0.codec.height">1080</property>
  <property name="meta.media.0.codec.rotate">0</property>
  <property name="meta.media.0.codec.frame_rate">29.97</property>
  <property name="meta.media.0.codec.pix_fmt">yuv420p</property>
  <property name="meta.media.0.codec.sample_aspect_ratio">1.33333</property>
  <property name="meta.media.0.codec.colorspace">709</property>
  <property name="meta.media.0.codec.name">h264</property>
  <property name="meta.media.0.codec.long_name">H.264 / AVC / MPEG-4 AVC / MPEG-4 part 10</property>
  <property name="meta.media.0.codec.bit_rate">6627618</property>
  <property name="meta.attr.0.stream.handler_name.markup">VideoHandler</property>
  <property name="meta.media.1.stream.type">audio</property>
  <property name="meta.media.1.codec.sample_fmt">fltp</property>
  <property name="meta.media.1.codec.sample_rate">48000</property>
  <property name="meta.media.1.codec.channels">2</property>
  <property name="meta.media.1.codec.name">ac3</property>
  <property name="meta.media.1.codec.long_name">ATSC A/52A (AC-3)</property>
  <property name="meta.media.1.codec.bit_rate">256000</property>
  <property name="meta.attr.1.stream.handler_name.markup">SoundHandler</property>
  <property name="meta.attr.major_brand.markup">isom</property>
  <property name="meta.attr.minor_version.markup">512</property>
  <property name="meta.attr.compatible_brands.markup">isomiso2avc1mp41</property>
  <property name="meta.attr.encoder.markup">Lavf58.45.100</property>
  <property name="seekable">1</property>
  <property name="meta.media.sample_aspect_num">4</property>
  <property name="meta.media.sample_aspect_den">3</property>
  <property name="aspect_ratio">1.33333</property>
  <property name="kdenlive:clipname"/>
  <property name="kdenlive:folderid">41</property>
  <property name="meta.media.frame_rate_num">60000</property>
  <property name="meta.media.frame_rate_den">1001</property>
  <property name="meta.media.colorspace">709</property>
  <property name="meta.media.color_trc">2</property>
  <property name="meta.media.width">1440</property>
  <property name="meta.media.height">1080</property>
  <property name="meta.media.color_range">mpeg</property>
  <property name="kdenlive:id">28</property>
  <property name="kdenlive:file_size">257931537</property>
  <property name="kdenlive:file_hash">ff3bd44778d338f50fcad09f449b2a77</property>
  <property name="kdenlive:audio_max">1</property>
  <property name="meta.media.top_field_first">1</property>
  <property name="meta.media.progressive">0</property>
  <property name="global_feed">1</property>
  <property name="kdenlive:zone_in">3015</property>
  <property name="kdenlive:zone_out">8989</property>
 </producer>
 <producer id="producer28" in="00:00:00.000" out="00:04:01.167">
  <property name="length">7236</property>
  <property name="eof">pause</property>
  <property name="resource">content/musicians/2021-06-02_Sarah_kit_jackson_00044-take3_beginning_to_G.mp4</property>
  <property name="audio_index">1</property>
  <property name="video_index">0</property>
  <property name="mute_on_pause">0</property>
  <property name="mlt_service">avformat-novalidate</property>
  <property name="meta.media.nb_streams">2</property>
  <property name="meta.media.0.stream.type">video</property>
  <property name="meta.media.0.stream.frame_rate">59.9401</property>
  <property name="meta.media.0.stream.sample_aspect_ratio">1.33333</property>
  <property name="meta.media.0.codec.width">1440</property>
  <property name="meta.media.0.codec.height">1080</property>
  <property name="meta.media.0.codec.rotate">0</property>
  <property name="meta.media.0.codec.frame_rate">29.97</property>
  <property name="meta.media.0.codec.pix_fmt">yuv420p</property>
  <property name="meta.media.0.codec.sample_aspect_ratio">1.33333</property>
  <property name="meta.media.0.codec.colorspace">709</property>
  <property name="meta.media.0.codec.name">h264</property>
  <property name="meta.media.0.codec.long_name">H.264 / AVC / MPEG-4 AVC / MPEG-4 part 10</property>
  <property name="meta.media.0.codec.bit_rate">6691040</property>
  <property name="meta.attr.0.stream.handler_name.markup">VideoHandler</property>
  <property name="meta.media.1.stream.type">audio</property>
  <property name="meta.media.1.codec.sample_fmt">fltp</property>
  <property name="meta.media.1.codec.sample_rate">48000</property>
  <property name="meta.media.1.codec.channels">2</property>
  <property name="meta.media.1.codec.name">ac3</property>
  <property name="meta.media.1.codec.long_name">ATSC A/52A (AC-3)</property>
  <property name="meta.media.1.codec.bit_rate">256000</property>
  <property name="meta.attr.1.stream.handler_name.markup">SoundHandler</property>
  <property name="meta.attr.major_brand.markup">isom</property>
  <property name="meta.attr.minor_version.markup">512</property>
  <property name="meta.attr.compatible_brands.markup">isomiso2avc1mp41</property>
  <property name="meta.attr.encoder.markup">Lavf58.45.100</property>
  <property name="seekable">1</property>
  <property name="meta.media.sample_aspect_num">4</property>
  <property name="meta.media.sample_aspect_den">3</property>
  <property name="aspect_ratio">1.33333</property>
  <property name="kdenlive:clipname"/>
  <property name="kdenlive:folderid">41</property>
  <property name="meta.media.frame_rate_num">260226000</property>
  <property name="meta.media.frame_rate_den">4341437</property>
  <property name="meta.media.colorspace">709</property>
  <property name="meta.media.color_trc">2</property>
  <property name="meta.media.width">1440</property>
  <property name="meta.media.height">1080</property>
  <property name="meta.media.color_range">mpeg</property>
  <property name="kdenlive:id">29</property>
  <property name="kdenlive:file_size">209721648</property>
  <property name="kdenlive:file_hash">27cbe5fe6ae8eb25dca72f7e74c3b880</property>
  <property name="kdenlive:audio_max">1</property>
  <property name="meta.media.top_field_first">1</property>
  <property name="meta.media.progressive">0</property>
  <property name="global_feed">1</property>
  <property name="kdenlive:activeeffect">1</property>
  <filter id="filter0">
   <property name="version">0.1</property>
   <property name="mlt_service">frei0r.hqdn3d</property>
   <property name="kdenlive_id">frei0r.hqdn3d</property>
   <property name="Spatial">00:00:00.000=0.01</property>
   <property name="Temporal">00:00:00.000=0.01</property>
   <property name="kdenlive:collapsed">0</property>
  </filter>
  <filter id="filter1">
   <property name="version">0.6</property>
   <property name="mlt_service">frei0r.select0r</property>
   <property name="kdenlive_id">frei0r.select0r</property>
   <property name="Color to select">0x3b9550ff</property>
   <property name="Invert selection">1</property>
   <property name="Selection subspace">1</property>
   <property name="Subspace shape">0</property>
   <property name="Edge mode">0.9</property>
   <property name="Delta R / A / Hue">00:00:00.000=0.03</property>
   <property name="Delta G / B / Chroma">00:00:00.000=0.165</property>
   <property name="Delta B / I / I">00:00:00.000=0.4</property>
   <property name="Slope">00:00:00.000=0.245</property>
   <property name="Operation">0.5</property>
   <property name="kdenlive:collapsed">0</property>
  </filter>
  <filter id="filter2">
   <property name="mlt_service">avfilter.despill</property>
   <property name="kdenlive_id">avfilter.despill</property>
   <property name="av.type">green</property>
   <property name="av.mix">0.302</property>
   <property name="av.expand">0.035</property>
   <property name="av.red">0</property>
   <property name="av.green">-1</property>
   <property name="av.blue">0</property>
   <property name="av.brightness">0</property>
   <property name="kdenlive:collapsed">0</property>
  </filter>
 </producer>
 <producer id="producer30" in="00:00:00.000" out="00:01:01.800">
  <property name="length">1855</property>
  <property name="eof">pause</property>
  <property name="resource">content/musicians/2021-06-02_Sarah_kit_jackson_00045-take_unknown_drum_solo.mp4</property>
  <property name="audio_index">1</property>
  <property name="video_index">0</property>
  <property name="mute_on_pause">0</property>
  <property name="mlt_service">avformat-novalidate</property>
  <property name="meta.media.nb_streams">2</property>
  <property name="meta.media.0.stream.type">video</property>
  <property name="meta.media.0.stream.frame_rate">59.9401</property>
  <property name="meta.media.0.stream.sample_aspect_ratio">1.33333</property>
  <property name="meta.media.0.codec.width">1440</property>
  <property name="meta.media.0.codec.height">1080</property>
  <property name="meta.media.0.codec.rotate">0</property>
  <property name="meta.media.0.codec.frame_rate">29.97</property>
  <property name="meta.media.0.codec.pix_fmt">yuv420p</property>
  <property name="meta.media.0.codec.sample_aspect_ratio">1.33333</property>
  <property name="meta.media.0.codec.colorspace">709</property>
  <property name="meta.media.0.codec.name">h264</property>
  <property name="meta.media.0.codec.long_name">H.264 / AVC / MPEG-4 AVC / MPEG-4 part 10</property>
  <property name="meta.media.0.codec.bit_rate">6701071</property>
  <property name="meta.attr.0.stream.handler_name.markup">VideoHandler</property>
  <property name="meta.media.1.stream.type">audio</property>
  <property name="meta.media.1.codec.sample_fmt">fltp</property>
  <property name="meta.media.1.codec.sample_rate">48000</property>
  <property name="meta.media.1.codec.channels">2</property>
  <property name="meta.media.1.codec.name">ac3</property>
  <property name="meta.media.1.codec.long_name">ATSC A/52A (AC-3)</property>
  <property name="meta.media.1.codec.bit_rate">256000</property>
  <property name="meta.attr.1.stream.handler_name.markup">SoundHandler</property>
  <property name="meta.attr.major_brand.markup">isom</property>
  <property name="meta.attr.minor_version.markup">512</property>
  <property name="meta.attr.compatible_brands.markup">isomiso2avc1mp41</property>
  <property name="meta.attr.encoder.markup">Lavf58.45.100</property>
  <property name="seekable">1</property>
  <property name="meta.media.sample_aspect_num">4</property>
  <property name="meta.media.sample_aspect_den">3</property>
  <property name="aspect_ratio">1.33333</property>
  <property name="kdenlive:clipname"/>
  <property name="kdenlive:folderid">41</property>
  <property name="meta.media.frame_rate_num">60000</property>
  <property name="meta.media.frame_rate_den">1001</property>
  <property name="meta.media.colorspace">709</property>
  <property name="meta.media.color_trc">2</property>
  <property name="meta.media.width">1440</property>
  <property name="meta.media.height">1080</property>
  <property name="meta.media.color_range">mpeg</property>
  <property name="kdenlive:id">30</property>
  <property name="kdenlive:file_size">53647591</property>
  <property name="kdenlive:file_hash">8678297be25794b8cbdf94c437f6a5c7</property>
  <property name="kdenlive:audio_max">1</property>
  <property name="meta.media.top_field_first">1</property>
  <property name="meta.media.progressive">0</property>
  <property name="global_feed">1</property>
 </producer>
 <producer id="producer31" in="00:00:00.000" out="00:01:18.333">
  <property name="length">2351</property>
  <property name="eof">pause</property>
  <property name="resource">content/musicians/2021-06-02_Sarah_kit_jackson_00045-take_unknown_m44_unknown.mp4</property>
  <property name="audio_index">1</property>
  <property name="video_index">0</property>
  <property name="mute_on_pause">0</property>
  <property name="mlt_service">avformat-novalidate</property>
  <property name="meta.media.nb_streams">2</property>
  <property name="meta.media.0.stream.type">video</property>
  <property name="meta.media.0.stream.frame_rate">59.9401</property>
  <property name="meta.media.0.stream.sample_aspect_ratio">1.33333</property>
  <property name="meta.media.0.codec.width">1440</property>
  <property name="meta.media.0.codec.height">1080</property>
  <property name="meta.media.0.codec.rotate">0</property>
  <property name="meta.media.0.codec.frame_rate">29.97</property>
  <property name="meta.media.0.codec.pix_fmt">yuv420p</property>
  <property name="meta.media.0.codec.sample_aspect_ratio">1.33333</property>
  <property name="meta.media.0.codec.colorspace">709</property>
  <property name="meta.media.0.codec.name">h264</property>
  <property name="meta.media.0.codec.long_name">H.264 / AVC / MPEG-4 AVC / MPEG-4 part 10</property>
  <property name="meta.media.0.codec.bit_rate">6697462</property>
  <property name="meta.attr.0.stream.handler_name.markup">VideoHandler</property>
  <property name="meta.media.1.stream.type">audio</property>
  <property name="meta.media.1.codec.sample_fmt">fltp</property>
  <property name="meta.media.1.codec.sample_rate">48000</property>
  <property name="meta.media.1.codec.channels">2</property>
  <property name="meta.media.1.codec.name">ac3</property>
  <property name="meta.media.1.codec.long_name">ATSC A/52A (AC-3)</property>
  <property name="meta.media.1.codec.bit_rate">256000</property>
  <property name="meta.attr.1.stream.handler_name.markup">SoundHandler</property>
  <property name="meta.attr.major_brand.markup">isom</property>
  <property name="meta.attr.minor_version.markup">512</property>
  <property name="meta.attr.compatible_brands.markup">isomiso2avc1mp41</property>
  <property name="meta.attr.encoder.markup">Lavf58.45.100</property>
  <property name="seekable">1</property>
  <property name="meta.media.sample_aspect_num">4</property>
  <property name="meta.media.sample_aspect_den">3</property>
  <property name="aspect_ratio">1.33333</property>
  <property name="kdenlive:clipname"/>
  <property name="kdenlive:folderid">41</property>
  <property name="meta.media.frame_rate_num">60000</property>
  <property name="meta.media.frame_rate_den">1001</property>
  <property name="meta.media.colorspace">709</property>
  <property name="meta.media.color_trc">2</property>
  <property name="meta.media.width">1440</property>
  <property name="meta.media.height">1080</property>
  <property name="meta.media.color_range">mpeg</property>
  <property name="kdenlive:id">31</property>
  <property name="kdenlive:file_size">68164154</property>
  <property name="kdenlive:file_hash">d19e7a627a68bad77bbd94b3ff174441</property>
  <property name="kdenlive:audio_max">1</property>
  <property name="meta.media.top_field_first">1</property>
  <property name="meta.media.progressive">0</property>
  <property name="global_feed">1</property>
 </producer>
 <producer id="producer32" in="00:00:00.000" out="00:05:25.867">
  <property name="length">9777</property>
  <property name="eof">pause</property>
  <property name="resource">20210602_SpectrumMusic-SoundEscapes-Jackson EDIT5.wav</property>
  <property name="meta.media.nb_streams">1</property>
  <property name="meta.media.0.stream.type">audio</property>
  <property name="meta.media.0.codec.sample_fmt">s32</property>
  <property name="meta.media.0.codec.sample_rate">48000</property>
  <property name="meta.media.0.codec.channels">2</property>
  <property name="meta.media.0.codec.name">pcm_s24le</property>
  <property name="meta.media.0.codec.long_name">PCM signed 24-bit little-endian</property>
  <property name="meta.media.0.codec.bit_rate">2304000</property>
  <property name="meta.attr.encoded_by.markup">Pro Tools</property>
  <property name="meta.attr.originator_reference.markup">auO8N7ZYGpJk</property>
  <property name="meta.attr.date.markup">2021-06-13</property>
  <property name="meta.attr.creation_time.markup">00:51:48</property>
  <property name="meta.attr.time_reference.markup">152935167</property>
  <property name="meta.attr.umid.markup">0x060A2B340101010501010F101300000033E0CB3EE7F28500BAFE005056C00001</property>
  <property name="seekable">1</property>
  <property name="audio_index">0</property>
  <property name="video_index">-1</property>
  <property name="mute_on_pause">1</property>
  <property name="mlt_service">avformat</property>
  <property name="kdenlive:clipname"/>
  <property name="kdenlive:folderid">-1</property>
  <property name="kdenlive:id">32</property>
  <property name="kdenlive:file_size">94357590</property>
  <property name="kdenlive:file_hash">068cceca2ec1150c2438ddc3a69b970d</property>
  <property name="kdenlive:audio_max">1</property>
  <property name="global_feed">1</property>
 </producer>
 <producer id="producer34" in="00:00:00.000" out="00:04:00.633">
  <property name="length">7220</property>
  <property name="eof">pause</property>
  <property name="resource">/home/ryankelln/.cache/kdenlive/proxy/6cc6aac066acb725bcb6d037e40393dc.mkv</property>
  <property name="audio_index">1</property>
  <property name="video_index">0</property>
  <property name="mute_on_pause">0</property>
  <property name="mlt_service">avformat-novalidate</property>
  <property name="seekable">1</property>
  <property name="aspect_ratio">1</property>
  <property name="kdenlive:clipname">2021-06-02_06-08-41_Sarah_kit_jackson_MVI_6065-take3_beginning.MP4</property>
  <property name="kdenlive:folderid">41</property>
  <property name="kdenlive:id">33</property>
  <property name="kdenlive:file_size">907786194</property>
  <property name="kdenlive:file_hash">6cc6aac066acb725bcb6d037e40393dc</property>
  <property name="kdenlive:proxy">/home/ryankelln/.cache/kdenlive/proxy/6cc6aac066acb725bcb6d037e40393dc.mkv</property>
  <property name="kdenlive:originalurl">content/musicians/2021-06-02_06-08-41_Sarah_kit_jackson_MVI_6065-take3_beginning.MP4</property>
  <property name="kdenlive:original.mlt_type">producer</property>
  <property name="kdenlive:original.in">0</property>
  <property name="kdenlive:original.out">7219</property>
  <property name="kdenlive:original.length">7220</property>
  <property name="kdenlive:original.eof">pause</property>
  <property name="kdenlive:original.resource">content/musicians/2021-06-02_06-08-41_Sarah_kit_jackson_MVI_6065-take3_beginning.MP4</property>
  <property name="kdenlive:original.meta.media.nb_streams">2</property>
  <property name="kdenlive:original.meta.media.0.stream.type">video</property>
  <property name="kdenlive:original.meta.media.0.stream.frame_rate">29.97</property>
  <property name="kdenlive:original.meta.media.0.stream.sample_aspect_ratio">0</property>
  <property name="kdenlive:original.meta.media.0.codec.width">1920</property>
  <property name="kdenlive:original.meta.media.0.codec.height">1080</property>
  <property name="kdenlive:original.meta.media.0.codec.rotate">0</property>
  <property name="kdenlive:original.meta.media.0.codec.frame_rate">30000</property>
  <property name="kdenlive:original.meta.media.0.codec.pix_fmt">yuvj420p</property>
  <property name="kdenlive:original.meta.media.0.codec.sample_aspect_ratio">0</property>
  <property name="kdenlive:original.meta.media.0.codec.colorspace">709</property>
  <property name="kdenlive:original.meta.media.0.codec.color_trc">1</property>
  <property name="kdenlive:original.meta.media.0.codec.name">h264</property>
  <property name="kdenlive:original.meta.media.0.codec.long_name">H.264 / AVC / MPEG-4 AVC / MPEG-4 part 10</property>
  <property name="kdenlive:original.meta.media.0.codec.bit_rate">29924092</property>
  <property name="kdenlive:original.meta.attr.0.stream.creation_time.markup">2021-06-02T06:08:41.000000Z</property>
  <property name="kdenlive:original.meta.attr.0.stream.language.markup">eng</property>
  <property name="kdenlive:original.meta.attr.0.stream.handler_name.markup">VideoHandler</property>
  <property name="kdenlive:original.meta.media.1.stream.type">audio</property>
  <property name="kdenlive:original.meta.media.1.codec.sample_fmt">fltp</property>
  <property name="kdenlive:original.meta.media.1.codec.sample_rate">48000</property>
  <property name="kdenlive:original.meta.media.1.codec.channels">2</property>
  <property name="kdenlive:original.meta.media.1.codec.name">aac</property>
  <property name="kdenlive:original.meta.media.1.codec.long_name">AAC (Advanced Audio Coding)</property>
  <property name="kdenlive:original.meta.media.1.codec.bit_rate">254680</property>
  <property name="kdenlive:original.meta.attr.1.stream.creation_time.markup">2021-06-02T06:08:41.000000Z</property>
  <property name="kdenlive:original.meta.attr.1.stream.language.markup">eng</property>
  <property name="kdenlive:original.meta.attr.1.stream.handler_name.markup">SoundHandler</property>
  <property name="kdenlive:original.meta.attr.major_brand.markup">isom</property>
  <property name="kdenlive:original.meta.attr.minor_version.markup">512</property>
  <property name="kdenlive:original.meta.attr.compatible_brands.markup">isomiso2avc1mp41</property>
  <property name="kdenlive:original.meta.attr.creation_time.markup">2021-06-02T06:08:41.000000Z</property>
  <property name="kdenlive:original.meta.attr.encoder.markup">Lavf58.45.100</property>
  <property name="kdenlive:original.seekable">1</property>
  <property name="kdenlive:original.width">1920</property>
  <property name="kdenlive:original.height">1080</property>
  <property name="kdenlive:original.meta.media.sample_aspect_num">1</property>
  <property name="kdenlive:original.meta.media.sample_aspect_den">1</property>
  <property name="kdenlive:original.aspect_ratio">1</property>
  <property name="kdenlive:original.audio_index">1</property>
  <property name="kdenlive:original.video_index">0</property>
  <property name="kdenlive:original.mute_on_pause">0</property>
  <property name="kdenlive:original.mlt_service">avformat-novalidate</property>
  <property name="kdenlive:original.kdenlive:folderid">41</property>
  <property name="kdenlive:original.meta.media.frame_rate_num">30000</property>
  <property name="kdenlive:original.meta.media.frame_rate_den">1001</property>
  <property name="kdenlive:original.meta.media.colorspace">709</property>
  <property name="kdenlive:original.meta.media.color_trc">1</property>
  <property name="kdenlive:original.meta.media.width">1920</property>
  <property name="kdenlive:original.meta.media.height">1080</property>
  <property name="kdenlive:original.meta.media.color_range">full</property>
  <property name="kdenlive:original.kdenlive:id">49</property>
  <property name="kdenlive:original.kdenlive:file_size">907786194</property>
  <property name="kdenlive:original.kdenlive:file_hash">6cc6aac066acb725bcb6d037e40393dc</property>
  <property name="kdenlive:original.backup">1</property>
  <property name="kdenlive:audio_max">1</property>
  <property name="global_feed">1</property>
  <property name="meta.media.nb_streams">2</property>
  <property name="meta.media.0.stream.type">video</property>
  <property name="meta.media.0.stream.frame_rate">29.97</property>
  <property name="meta.media.0.stream.sample_aspect_ratio">0</property>
  <property name="meta.media.0.codec.width">640</property>
  <property name="meta.media.0.codec.height">360</property>
  <property name="meta.media.0.codec.rotate">0</property>
  <property name="meta.media.0.codec.frame_rate">1000</property>
  <property name="meta.media.0.codec.pix_fmt">yuvj420p</property>
  <property name="meta.media.0.codec.sample_aspect_ratio">0</property>
  <property name="meta.media.0.codec.colorspace">601</property>
  <property name="meta.media.0.codec.name">mjpeg</property>
  <property name="meta.media.0.codec.long_name">MJPEG (Motion JPEG)</property>
  <property name="meta.media.0.codec.bit_rate">0</property>
  <property name="meta.attr.0.stream.language.markup">eng</property>
  <property name="meta.attr.0.stream.HANDLER_NAME.markup">VideoHandler</property>
  <property name="meta.attr.0.stream.ENCODER.markup">Lavc58.91.100 mjpeg</property>
  <property name="meta.attr.0.stream.DURATION.markup">00:04:00.707000000</property>
  <property name="meta.media.1.stream.type">audio</property>
  <property name="meta.media.1.codec.sample_fmt">s16</property>
  <property name="meta.media.1.codec.sample_rate">48000</property>
  <property name="meta.media.1.codec.channels">2</property>
  <property name="meta.media.1.codec.name">pcm_s16le</property>
  <property name="meta.media.1.codec.long_name">PCM signed 16-bit little-endian</property>
  <property name="meta.media.1.codec.bit_rate">1536000</property>
  <property name="meta.attr.1.stream.language.markup">eng</property>
  <property name="meta.attr.1.stream.HANDLER_NAME.markup">SoundHandler</property>
  <property name="meta.attr.1.stream.ENCODER.markup">Lavc58.91.100 pcm_s16le</property>
  <property name="meta.attr.1.stream.DURATION.markup">00:04:00.661000000</property>
  <property name="meta.attr.COMPATIBLE_BRANDS.markup">isomiso2avc1mp41</property>
  <property name="meta.attr.MAJOR_BRAND.markup">isom</property>
  <property name="meta.attr.MINOR_VERSION.markup">512</property>
  <property name="meta.attr.ENCODER.markup">Lavf58.45.100</property>
  <property name="meta.media.sample_aspect_num">1</property>
  <property name="meta.media.sample_aspect_den">1</property>
  <property name="meta.media.frame_rate_num">30000</property>
  <property name="meta.media.frame_rate_den">1001</property>
  <property name="meta.media.colorspace">601</property>
  <property name="meta.media.color_trc">2</property>
  <property name="meta.media.width">640</property>
  <property name="meta.media.height">360</property>
  <property name="meta.media.color_range">full</property>
  <property name="meta.media.top_field_first">0</property>
  <property name="meta.media.progressive">1</property>
 </producer>
 <producer id="producer33" in="00:00:00.000" out="00:02:25.600">
  <property name="length">4369</property>
  <property name="eof">pause</property>
  <property name="resource">/home/ryankelln/.cache/kdenlive/proxy/d18eb62689895facb662cd2af8c4521b.mkv</property>
  <property name="audio_index">1</property>
  <property name="video_index">0</property>
  <property name="mute_on_pause">0</property>
  <property name="mlt_service">avformat-novalidate</property>
  <property name="seekable">1</property>
  <property name="aspect_ratio">1</property>
  <property name="kdenlive:clipname">2021-06-02_06-26-54_Sarah_kit_jackson_MVI_6066-take4_m44_to_end.MP4</property>
  <property name="kdenlive:folderid">41</property>
  <property name="kdenlive:id">34</property>
  <property name="kdenlive:file_size">549926658</property>
  <property name="kdenlive:file_hash">d18eb62689895facb662cd2af8c4521b</property>
  <property name="kdenlive:proxy">/home/ryankelln/.cache/kdenlive/proxy/d18eb62689895facb662cd2af8c4521b.mkv</property>
  <property name="kdenlive:originalurl">content/musicians/2021-06-02_06-26-54_Sarah_kit_jackson_MVI_6066-take4_m44_to_end.MP4</property>
  <property name="kdenlive:original.mlt_type">producer</property>
  <property name="kdenlive:original.in">0</property>
  <property name="kdenlive:original.out">4368</property>
  <property name="kdenlive:original.length">4369</property>
  <property name="kdenlive:original.eof">pause</property>
  <property name="kdenlive:original.resource">content/musicians/2021-06-02_06-26-54_Sarah_kit_jackson_MVI_6066-take4_m44_to_end.MP4</property>
  <property name="kdenlive:original.meta.media.nb_streams">2</property>
  <property name="kdenlive:original.meta.media.0.stream.type">video</property>
  <property name="kdenlive:original.meta.media.0.stream.frame_rate">29.97</property>
  <property name="kdenlive:original.meta.media.0.stream.sample_aspect_ratio">0</property>
  <property name="kdenlive:original.meta.media.0.codec.width">1920</property>
  <property name="kdenlive:original.meta.media.0.codec.height">1080</property>
  <property name="kdenlive:original.meta.media.0.codec.rotate">0</property>
  <property name="kdenlive:original.meta.media.0.codec.frame_rate">30000</property>
  <property name="kdenlive:original.meta.media.0.codec.pix_fmt">yuvj420p</property>
  <property name="kdenlive:original.meta.media.0.codec.sample_aspect_ratio">0</property>
  <property name="kdenlive:original.meta.media.0.codec.colorspace">709</property>
  <property name="kdenlive:original.meta.media.0.codec.color_trc">1</property>
  <property name="kdenlive:original.meta.media.0.codec.name">h264</property>
  <property name="kdenlive:original.meta.media.0.codec.long_name">H.264 / AVC / MPEG-4 AVC / MPEG-4 part 10</property>
  <property name="kdenlive:original.meta.media.0.codec.bit_rate">29956534</property>
  <property name="kdenlive:original.meta.attr.0.stream.creation_time.markup">2021-06-02T06:26:54.000000Z</property>
  <property name="kdenlive:original.meta.attr.0.stream.language.markup">eng</property>
  <property name="kdenlive:original.meta.attr.0.stream.handler_name.markup">VideoHandler</property>
  <property name="kdenlive:original.meta.media.1.stream.type">audio</property>
  <property name="kdenlive:original.meta.media.1.codec.sample_fmt">fltp</property>
  <property name="kdenlive:original.meta.media.1.codec.sample_rate">48000</property>
  <property name="kdenlive:original.meta.media.1.codec.channels">2</property>
  <property name="kdenlive:original.meta.media.1.codec.name">aac</property>
  <property name="kdenlive:original.meta.media.1.codec.long_name">AAC (Advanced Audio Coding)</property>
  <property name="kdenlive:original.meta.media.1.codec.bit_rate">255001</property>
  <property name="kdenlive:original.meta.attr.1.stream.creation_time.markup">2021-06-02T06:26:54.000000Z</property>
  <property name="kdenlive:original.meta.attr.1.stream.language.markup">eng</property>
  <property name="kdenlive:original.meta.attr.1.stream.handler_name.markup">SoundHandler</property>
  <property name="kdenlive:original.meta.attr.major_brand.markup">isom</property>
  <property name="kdenlive:original.meta.attr.minor_version.markup">512</property>
  <property name="kdenlive:original.meta.attr.compatible_brands.markup">isomiso2avc1mp41</property>
  <property name="kdenlive:original.meta.attr.creation_time.markup">2021-06-02T06:26:54.000000Z</property>
  <property name="kdenlive:original.meta.attr.encoder.markup">Lavf58.45.100</property>
  <property name="kdenlive:original.seekable">1</property>
  <property name="kdenlive:original.width">1920</property>
  <property name="kdenlive:original.height">1080</property>
  <property name="kdenlive:original.meta.media.sample_aspect_num">1</property>
  <property name="kdenlive:original.meta.media.sample_aspect_den">1</property>
  <property name="kdenlive:original.aspect_ratio">1</property>
  <property name="kdenlive:original.audio_index">1</property>
  <property name="kdenlive:original.video_index">0</property>
  <property name="kdenlive:original.mute_on_pause">0</property>
  <property name="kdenlive:original.mlt_service">avformat-novalidate</property>
  <property name="kdenlive:original.kdenlive:folderid">41</property>
  <property name="kdenlive:original.meta.media.frame_rate_num">30000</property>
  <property name="kdenlive:original.meta.media.frame_rate_den">1001</property>
  <property name="kdenlive:original.meta.media.colorspace">709</property>
  <property name="kdenlive:original.meta.media.color_trc">1</property>
  <property name="kdenlive:original.meta.media.width">1920</property>
  <property name="kdenlive:original.meta.media.height">1080</property>
  <property name="kdenlive:original.meta.media.color_range">full</property>
  <property name="kdenlive:original.kdenlive:id">50</property>
  <property name="kdenlive:original.kdenlive:file_size">549926658</property>
  <property name="kdenlive:original.kdenlive:file_hash">d18eb62689895facb662cd2af8c4521b</property>
  <property name="kdenlive:original.backup">1</property>
  <property name="kdenlive:audio_max">1</property>
  <property name="global_feed">1</property>
  <property name="meta.media.nb_streams">2</property>
  <property name="meta.media.0.stream.type">video</property>
  <property name="meta.media.0.stream.frame_rate">29.97</property>
  <property name="meta.media.0.stream.sample_aspect_ratio">0</property>
  <property name="meta.media.0.codec.width">640</property>
  <property name="meta.media.0.codec.height">360</property>
  <property name="meta.media.0.codec.rotate">0</property>
  <property name="meta.media.0.codec.frame_rate">1000</property>
  <property name="meta.media.0.codec.pix_fmt">yuvj420p</property>
  <property name="meta.media.0.codec.sample_aspect_ratio">0</property>
  <property name="meta.media.0.codec.colorspace">601</property>
  <property name="meta.media.0.codec.name">mjpeg</property>
  <property name="meta.media.0.codec.long_name">MJPEG (Motion JPEG)</property>
  <property name="meta.media.0.codec.bit_rate">0</property>
  <property name="meta.attr.0.stream.language.markup">eng</property>
  <property name="meta.attr.0.stream.HANDLER_NAME.markup">VideoHandler</property>
  <property name="meta.attr.0.stream.ENCODER.markup">Lavc58.91.100 mjpeg</property>
  <property name="meta.attr.0.stream.DURATION.markup">00:02:25.712000000</property>
  <property name="meta.media.1.stream.type">audio</property>
  <property name="meta.media.1.codec.sample_fmt">s16</property>
  <property name="meta.media.1.codec.sample_rate">48000</property>
  <property name="meta.media.1.codec.channels">2</property>
  <property name="meta.media.1.codec.name">pcm_s16le</property>
  <property name="meta.media.1.codec.long_name">PCM signed 16-bit little-endian</property>
  <property name="meta.media.1.codec.bit_rate">1536000</property>
  <property name="meta.attr.1.stream.language.markup">eng</property>
  <property name="meta.attr.1.stream.HANDLER_NAME.markup">SoundHandler</property>
  <property name="meta.attr.1.stream.ENCODER.markup">Lavc58.91.100 pcm_s16le</property>
  <property name="meta.attr.1.stream.DURATION.markup">00:02:25.621000000</property>
  <property name="meta.attr.COMPATIBLE_BRANDS.markup">isomiso2avc1mp41</property>
  <property name="meta.attr.MAJOR_BRAND.markup">isom</property>
  <property name="meta.attr.MINOR_VERSION.markup">512</property>
  <property name="meta.attr.ENCODER.markup">Lavf58.45.100</property>
  <property name="meta.media.sample_aspect_num">1</property>
  <property name="meta.media.sample_aspect_den">1</property>
  <property name="meta.media.frame_rate_num">30000</property>
  <property name="meta.media.frame_rate_den">1001</property>
  <property name="meta.media.colorspace">601</property>
  <property name="meta.media.color_trc">2</property>
  <property name="meta.media.width">640</property>
  <property name="meta.media.height">360</property>
  <property name="meta.media.color_range">full</property>
  <property name="meta.media.top_field_first">0</property>
  <property name="meta.media.progressive">1</property>
 </producer>
 <producer id="producer36" in="00:00:00.000" out="00:04:09.133">
  <property name="length">7475</property>
  <property name="eof">pause</property>
  <property name="resource">content/musicians/2021-02-06_Caleb+Chris_upright+piano+handheld_jackson_MVI_6038-take3_full.mkv</property>
  <property name="audio_index">1</property>
  <property name="video_index">0</property>
  <property name="mute_on_pause">0</property>
  <property name="mlt_service">avformat-novalidate</property>
  <property name="meta.media.nb_streams">2</property>
  <property name="meta.media.0.stream.type">video</property>
  <property name="meta.media.0.stream.frame_rate">29.97</property>
  <property name="meta.media.0.stream.sample_aspect_ratio">0</property>
  <property name="meta.media.0.codec.width">1280</property>
  <property name="meta.media.0.codec.height">720</property>
  <property name="meta.media.0.codec.rotate">0</property>
  <property name="meta.media.0.codec.frame_rate">1000</property>
  <property name="meta.media.0.codec.pix_fmt">yuvj420p</property>
  <property name="meta.media.0.codec.sample_aspect_ratio">0</property>
  <property name="meta.media.0.codec.colorspace">601</property>
  <property name="meta.media.0.codec.color_trc">1</property>
  <property name="meta.media.0.codec.name">h264</property>
  <property name="meta.media.0.codec.long_name">H.264 / AVC / MPEG-4 AVC / MPEG-4 part 10</property>
  <property name="meta.media.0.codec.bit_rate">0</property>
  <property name="meta.attr.0.stream.language.markup">eng</property>
  <property name="meta.attr.0.stream.DURATION.markup">00:04:09.181000000</property>
  <property name="meta.media.1.stream.type">audio</property>
  <property name="meta.media.1.codec.sample_fmt">s16</property>
  <property name="meta.media.1.codec.sample_rate">48000</property>
  <property name="meta.media.1.codec.channels">1</property>
  <property name="meta.media.1.codec.name">pcm_s16le</property>
  <property name="meta.media.1.codec.long_name">PCM signed 16-bit little-endian</property>
  <property name="meta.media.1.codec.bit_rate">768000</property>
  <property name="meta.attr.1.stream.language.markup">eng</property>
  <property name="meta.attr.1.stream.DURATION.markup">00:04:09.165000000</property>
  <property name="meta.attr.COMPATIBLE_BRANDS.markup">qt  CAEP</property>
  <property name="meta.attr.creation_time.markup">2021-06-02T13:56:08.000000Z</property>
  <property name="meta.attr.MAJOR_BRAND.markup">qt  </property>
  <property name="meta.attr.MINOR_VERSION.markup">537331968</property>
  <property name="meta.attr.ENCODER.markup">Lavf58.45.100</property>
  <property name="seekable">1</property>
  <property name="meta.media.sample_aspect_num">1</property>
  <property name="meta.media.sample_aspect_den">1</property>
  <property name="aspect_ratio">1</property>
  <property name="kdenlive:clipname"/>
  <property name="kdenlive:folderid">41</property>
  <property name="meta.media.frame_rate_num">30000</property>
  <property name="meta.media.frame_rate_den">1001</property>
  <property name="meta.media.colorspace">601</property>
  <property name="meta.media.color_trc">1</property>
  <property name="meta.media.width">1280</property>
  <property name="meta.media.height">720</property>
  <property name="meta.media.color_range">full</property>
  <property name="kdenlive:id">35</property>
  <property name="kdenlive:file_size">992524048</property>
  <property name="kdenlive:file_hash">92f1b50c08810b01da341e5a2f3b0c6c</property>
  <property name="kdenlive:audio_max">1</property>
  <property name="meta.media.top_field_first">0</property>
  <property name="meta.media.progressive">1</property>
  <property name="global_feed">1</property>
 </producer>
 <producer id="producer35" in="00:00:00.000" out="00:02:19.167">
  <property name="length">4176</property>
  <property name="eof">pause</property>
  <property name="resource">content/musicians/2021-02-06_Caleb+Chris_upright+piano+handheld_jackson_MVI_6040-take4_m44_to_end.mkv</property>
  <property name="audio_index">1</property>
  <property name="video_index">0</property>
  <property name="mute_on_pause">0</property>
  <property name="mlt_service">avformat-novalidate</property>
  <property name="meta.media.nb_streams">2</property>
  <property name="meta.media.0.stream.type">video</property>
  <property name="meta.media.0.stream.frame_rate">29.97</property>
  <property name="meta.media.0.stream.sample_aspect_ratio">0</property>
  <property name="meta.media.0.codec.width">1280</property>
  <property name="meta.media.0.codec.height">720</property>
  <property name="meta.media.0.codec.rotate">0</property>
  <property name="meta.media.0.codec.frame_rate">1000</property>
  <property name="meta.media.0.codec.pix_fmt">yuvj420p</property>
  <property name="meta.media.0.codec.sample_aspect_ratio">0</property>
  <property name="meta.media.0.codec.colorspace">601</property>
  <property name="meta.media.0.codec.color_trc">1</property>
  <property name="meta.media.0.codec.name">h264</property>
  <property name="meta.media.0.codec.long_name">H.264 / AVC / MPEG-4 AVC / MPEG-4 part 10</property>
  <property name="meta.media.0.codec.bit_rate">0</property>
  <property name="meta.attr.0.stream.language.markup">eng</property>
  <property name="meta.attr.0.stream.DURATION.markup">00:02:19.205000000</property>
  <property name="meta.media.1.stream.type">audio</property>
  <property name="meta.media.1.codec.sample_fmt">s16</property>
  <property name="meta.media.1.codec.sample_rate">48000</property>
  <property name="meta.media.1.codec.channels">1</property>
  <property name="meta.media.1.codec.name">pcm_s16le</property>
  <property name="meta.media.1.codec.long_name">PCM signed 16-bit little-endian</property>
  <property name="meta.media.1.codec.bit_rate">768000</property>
  <property name="meta.attr.1.stream.language.markup">eng</property>
  <property name="meta.attr.1.stream.DURATION.markup">00:02:19.203000000</property>
  <property name="meta.attr.COMPATIBLE_BRANDS.markup">qt  CAEP</property>
  <property name="meta.attr.creation_time.markup">2021-06-02T14:17:40.000000Z</property>
  <property name="meta.attr.MAJOR_BRAND.markup">qt  </property>
  <property name="meta.attr.MINOR_VERSION.markup">537331968</property>
  <property name="meta.attr.ENCODER.markup">Lavf58.45.100</property>
  <property name="seekable">1</property>
  <property name="meta.media.sample_aspect_num">1</property>
  <property name="meta.media.sample_aspect_den">1</property>
  <property name="aspect_ratio">1</property>
  <property name="kdenlive:clipname"/>
  <property name="kdenlive:folderid">41</property>
  <property name="meta.media.frame_rate_num">30000</property>
  <property name="meta.media.frame_rate_den">1001</property>
  <property name="meta.media.colorspace">601</property>
  <property name="meta.media.color_trc">1</property>
  <property name="meta.media.width">1280</property>
  <property name="meta.media.height">720</property>
  <property name="meta.media.color_range">full</property>
  <property name="kdenlive:id">36</property>
  <property name="kdenlive:file_size">554862189</property>
  <property name="kdenlive:file_hash">b0a4ec53f3d4bb1593e5282b824f323a</property>
  <property name="kdenlive:audio_max">1</property>
 </producer>
 <producer id="producer37" in="00:00:00.000" out="00:00:59.367">
  <property name="length">1782</property>
  <property name="eof">pause</property>
  <property name="resource">/home/ryankelln/.cache/kdenlive/proxy/e7d3c892cf659b6a9653f2c2e83eea0f.mkv</property>
  <property name="audio_index">1</property>
  <property name="video_index">0</property>
  <property name="mute_on_pause">0</property>
  <property name="mlt_service">avformat-novalidate</property>
  <property name="seekable">1</property>
  <property name="aspect_ratio">1</property>
  <property name="kdenlive:clipname">2021-06-02_Caleb_upright+4k+portrait_jackson_P1000535-take2_bass_solo.MP4</property>
  <property name="kdenlive:folderid">41</property>
  <property name="kdenlive:id">37</property>
  <property name="kdenlive:file_size">712642983</property>
  <property name="kdenlive:file_hash">e7d3c892cf659b6a9653f2c2e83eea0f</property>
  <property name="kdenlive:proxy">/home/ryankelln/.cache/kdenlive/proxy/e7d3c892cf659b6a9653f2c2e83eea0f.mkv</property>
  <property name="kdenlive:originalurl">content/musicians/2021-06-02_Caleb_upright+4k+portrait_jackson_P1000535-take2_bass_solo.MP4</property>
  <property name="kdenlive:original.mlt_type">producer</property>
  <property name="kdenlive:original.in">0</property>
  <property name="kdenlive:original.out">1781</property>
  <property name="kdenlive:original.length">1782</property>
  <property name="kdenlive:original.eof">pause</property>
  <property name="kdenlive:original.resource">content/musicians/2021-06-02_Caleb_upright+4k+portrait_jackson_P1000535-take2_bass_solo.MP4</property>
  <property name="kdenlive:original.meta.media.nb_streams">2</property>
  <property name="kdenlive:original.meta.media.0.stream.type">video</property>
  <property name="kdenlive:original.meta.media.0.stream.frame_rate">29.97</property>
  <property name="kdenlive:original.meta.media.0.stream.sample_aspect_ratio">1</property>
  <property name="kdenlive:original.meta.media.0.codec.width">3328</property>
  <property name="kdenlive:original.meta.media.0.codec.height">2496</property>
  <property name="kdenlive:original.meta.media.0.codec.rotate">90</property>
  <property name="kdenlive:original.meta.media.0.codec.frame_rate">29.97</property>
  <property name="kdenlive:original.meta.media.0.codec.pix_fmt">yuvj420p</property>
  <property name="kdenlive:original.meta.media.0.codec.sample_aspect_ratio">1</property>
  <property name="kdenlive:original.meta.media.0.codec.colorspace">709</property>
  <property name="kdenlive:original.meta.media.0.codec.color_trc">1</property>
  <property name="kdenlive:original.meta.media.0.codec.name">h264</property>
  <property name="kdenlive:original.meta.media.0.codec.long_name">H.264 / AVC / MPEG-4 AVC / MPEG-4 part 10</property>
  <property name="kdenlive:original.meta.media.0.codec.bit_rate">95856555</property>
  <property name="kdenlive:original.meta.attr.0.stream.rotate.markup">90</property>
  <property name="kdenlive:original.meta.attr.0.stream.creation_time.markup">2021-06-02T13:56:16.000000Z</property>
  <property name="kdenlive:original.meta.attr.0.stream.handler_name.markup">VideoHandler</property>
  <property name="kdenlive:original.meta.media.1.stream.type">audio</property>
  <property name="kdenlive:original.meta.media.1.codec.sample_fmt">fltp</property>
  <property name="kdenlive:original.meta.media.1.codec.sample_rate">48000</property>
  <property name="kdenlive:original.meta.media.1.codec.channels">2</property>
  <property name="kdenlive:original.meta.media.1.codec.name">aac</property>
  <property name="kdenlive:original.meta.media.1.codec.long_name">AAC (Advanced Audio Coding)</property>
  <property name="kdenlive:original.meta.media.1.codec.bit_rate">125386</property>
  <property name="kdenlive:original.meta.attr.1.stream.creation_time.markup">2021-06-02T13:56:16.000000Z</property>
  <property name="kdenlive:original.meta.attr.1.stream.handler_name.markup">SoundHandler</property>
  <property name="kdenlive:original.meta.attr.major_brand.markup">isom</property>
  <property name="kdenlive:original.meta.attr.minor_version.markup">512</property>
  <property name="kdenlive:original.meta.attr.compatible_brands.markup">isomiso2avc1mp41</property>
  <property name="kdenlive:original.meta.attr.creation_time.markup">2021-06-02T13:56:16.000000Z</property>
  <property name="kdenlive:original.meta.attr.encoder.markup">Lavf58.45.100</property>
  <property name="kdenlive:original.seekable">1</property>
  <property name="kdenlive:original.width">3328</property>
  <property name="kdenlive:original.height">2496</property>
  <property name="kdenlive:original.meta.media.sample_aspect_num">1</property>
  <property name="kdenlive:original.meta.media.sample_aspect_den">1</property>
  <property name="kdenlive:original.aspect_ratio">1</property>
  <property name="kdenlive:original.audio_index">1</property>
  <property name="kdenlive:original.video_index">0</property>
  <property name="kdenlive:original.mute_on_pause">0</property>
  <property name="kdenlive:original.mlt_service">avformat-novalidate</property>
  <property name="kdenlive:original.kdenlive:folderid">41</property>
  <property name="kdenlive:original.meta.media.frame_rate_num">30000</property>
  <property name="kdenlive:original.meta.media.frame_rate_den">1001</property>
  <property name="kdenlive:original.meta.media.colorspace">709</property>
  <property name="kdenlive:original.meta.media.color_trc">1</property>
  <property name="kdenlive:original.meta.media.width">2496</property>
  <property name="kdenlive:original.meta.media.height">3328</property>
  <property name="kdenlive:original.meta.media.color_range">full</property>
  <property name="kdenlive:original.kdenlive:id">54</property>
  <property name="kdenlive:original.kdenlive:file_size">712642983</property>
  <property name="kdenlive:original.kdenlive:file_hash">e7d3c892cf659b6a9653f2c2e83eea0f</property>
  <property name="kdenlive:original.backup">1</property>
  <property name="kdenlive:audio_max">1</property>
  <property name="global_feed">1</property>
  <property name="meta.media.nb_streams">2</property>
  <property name="meta.media.0.stream.type">video</property>
  <property name="meta.media.0.stream.frame_rate">29.97</property>
  <property name="meta.media.0.stream.sample_aspect_ratio">1</property>
  <property name="meta.media.0.codec.width">640</property>
  <property name="meta.media.0.codec.height">854</property>
  <property name="meta.media.0.codec.rotate">0</property>
  <property name="meta.media.0.codec.frame_rate">1000</property>
  <property name="meta.media.0.codec.pix_fmt">yuvj420p</property>
  <property name="meta.media.0.codec.sample_aspect_ratio">1.00078</property>
  <property name="meta.media.0.codec.colorspace">601</property>
  <property name="meta.media.0.codec.name">mjpeg</property>
  <property name="meta.media.0.codec.long_name">MJPEG (Motion JPEG)</property>
  <property name="meta.media.0.codec.bit_rate">0</property>
  <property name="meta.attr.0.stream.ENCODER.markup">Lavc58.91.100 mjpeg</property>
  <property name="meta.attr.0.stream.HANDLER_NAME.markup">VideoHandler</property>
  <property name="meta.attr.0.stream.DURATION.markup">00:00:59.526000000</property>
  <property name="meta.media.1.stream.type">audio</property>
  <property name="meta.media.1.codec.sample_fmt">s16</property>
  <property name="meta.media.1.codec.sample_rate">48000</property>
  <property name="meta.media.1.codec.channels">2</property>
  <property name="meta.media.1.codec.name">pcm_s16le</property>
  <property name="meta.media.1.codec.long_name">PCM signed 16-bit little-endian</property>
  <property name="meta.media.1.codec.bit_rate">1536000</property>
  <property name="meta.attr.1.stream.HANDLER_NAME.markup">SoundHandler</property>
  <property name="meta.attr.1.stream.ENCODER.markup">Lavc58.91.100 pcm_s16le</property>
  <property name="meta.attr.1.stream.DURATION.markup">00:00:59.413000000</property>
  <property name="meta.attr.COMPATIBLE_BRANDS.markup">isomiso2avc1mp41</property>
  <property name="meta.attr.MAJOR_BRAND.markup">isom</property>
  <property name="meta.attr.MINOR_VERSION.markup">512</property>
  <property name="meta.attr.ENCODER.markup">Lavf58.45.100</property>
  <property name="meta.media.sample_aspect_num">1</property>
  <property name="meta.media.sample_aspect_den">1</property>
  <property name="meta.media.frame_rate_num">30000</property>
  <property name="meta.media.frame_rate_den">1001</property>
  <property name="meta.media.colorspace">601</property>
  <property name="meta.media.color_trc">2</property>
  <property name="meta.media.width">640</property>
  <property name="meta.media.height">854</property>
  <property name="meta.media.color_range">full</property>
  <property name="meta.media.top_field_first">0</property>
  <property name="meta.media.progressive">1</property>
 </producer>
 <producer id="producer38" in="00:00:00.000" out="00:02:27.500">
  <property name="length">4426</property>
  <property name="eof">pause</property>
  <property name="resource">/home/ryankelln/.cache/kdenlive/proxy/00b9c2a45d419a9f345378ea35a006d0.mkv</property>
  <property name="audio_index">1</property>
  <property name="video_index">0</property>
  <property name="mute_on_pause">0</property>
  <property name="mlt_service">avformat-novalidate</property>
  <property name="seekable">1</property>
  <property name="aspect_ratio">1</property>
  <property name="kdenlive:clipname">2021-06-02_Caleb_upright+4k+portrait_jackson_P1000538-take4_m44-to-end.MP4</property>
  <property name="kdenlive:folderid">41</property>
  <property name="kdenlive:id">38</property>
  <property name="kdenlive:file_size">1768687009</property>
  <property name="kdenlive:file_hash">00b9c2a45d419a9f345378ea35a006d0</property>
  <property name="kdenlive:proxy">/home/ryankelln/.cache/kdenlive/proxy/00b9c2a45d419a9f345378ea35a006d0.mkv</property>
  <property name="kdenlive:originalurl">content/musicians/2021-06-02_Caleb_upright+4k+portrait_jackson_P1000538-take4_m44-to-end.MP4</property>
  <property name="kdenlive:original.mlt_type">producer</property>
  <property name="kdenlive:original.in">0</property>
  <property name="kdenlive:original.out">4425</property>
  <property name="kdenlive:original.length">4426</property>
  <property name="kdenlive:original.eof">pause</property>
  <property name="kdenlive:original.resource">content/musicians/2021-06-02_Caleb_upright+4k+portrait_jackson_P1000538-take4_m44-to-end.MP4</property>
  <property name="kdenlive:original.meta.media.nb_streams">2</property>
  <property name="kdenlive:original.meta.media.0.stream.type">video</property>
  <property name="kdenlive:original.meta.media.0.stream.frame_rate">29.9701</property>
  <property name="kdenlive:original.meta.media.0.stream.sample_aspect_ratio">1</property>
  <property name="kdenlive:original.meta.media.0.codec.width">3328</property>
  <property name="kdenlive:original.meta.media.0.codec.height">2496</property>
  <property name="kdenlive:original.meta.media.0.codec.rotate">90</property>
  <property name="kdenlive:original.meta.media.0.codec.frame_rate">29.97</property>
  <property name="kdenlive:original.meta.media.0.codec.pix_fmt">yuvj420p</property>
  <property name="kdenlive:original.meta.media.0.codec.sample_aspect_ratio">1</property>
  <property name="kdenlive:original.meta.media.0.codec.colorspace">709</property>
  <property name="kdenlive:original.meta.media.0.codec.color_trc">1</property>
  <property name="kdenlive:original.meta.media.0.codec.name">h264</property>
  <property name="kdenlive:original.meta.media.0.codec.long_name">H.264 / AVC / MPEG-4 AVC / MPEG-4 part 10</property>
  <property name="kdenlive:original.meta.media.0.codec.bit_rate">95807685</property>
  <property name="kdenlive:original.meta.attr.0.stream.rotate.markup">90</property>
  <property name="kdenlive:original.meta.attr.0.stream.handler_name.markup">VideoHandler</property>
  <property name="kdenlive:original.meta.media.1.stream.type">audio</property>
  <property name="kdenlive:original.meta.media.1.codec.sample_fmt">fltp</property>
  <property name="kdenlive:original.meta.media.1.codec.sample_rate">48000</property>
  <property name="kdenlive:original.meta.media.1.codec.channels">2</property>
  <property name="kdenlive:original.meta.media.1.codec.name">aac</property>
  <property name="kdenlive:original.meta.media.1.codec.long_name">AAC (Advanced Audio Coding)</property>
  <property name="kdenlive:original.meta.media.1.codec.bit_rate">125382</property>
  <property name="kdenlive:original.meta.attr.1.stream.handler_name.markup">SoundHandler</property>
  <property name="kdenlive:original.meta.attr.major_brand.markup">isom</property>
  <property name="kdenlive:original.meta.attr.minor_version.markup">512</property>
  <property name="kdenlive:original.meta.attr.compatible_brands.markup">isomiso2avc1mp41</property>
  <property name="kdenlive:original.meta.attr.encoder.markup">Lavf58.45.100</property>
  <property name="kdenlive:original.seekable">1</property>
  <property name="kdenlive:original.width">3328</property>
  <property name="kdenlive:original.height">2496</property>
  <property name="kdenlive:original.meta.media.sample_aspect_num">1</property>
  <property name="kdenlive:original.meta.media.sample_aspect_den">1</property>
  <property name="kdenlive:original.aspect_ratio">1</property>
  <property name="kdenlive:original.audio_index">1</property>
  <property name="kdenlive:original.video_index">0</property>
  <property name="kdenlive:original.mute_on_pause">0</property>
  <property name="kdenlive:original.mlt_service">avformat-novalidate</property>
  <property name="kdenlive:original.kdenlive:folderid">41</property>
  <property name="kdenlive:original.meta.media.frame_rate_num">66315000</property>
  <property name="kdenlive:original.meta.media.frame_rate_den">2212703</property>
  <property name="kdenlive:original.meta.media.colorspace">709</property>
  <property name="kdenlive:original.meta.media.color_trc">1</property>
  <property name="kdenlive:original.meta.media.width">2496</property>
  <property name="kdenlive:original.meta.media.height">3328</property>
  <property name="kdenlive:original.meta.media.color_range">full</property>
  <property name="kdenlive:original.kdenlive:id">55</property>
  <property name="kdenlive:original.kdenlive:file_size">1768687009</property>
  <property name="kdenlive:original.kdenlive:file_hash">00b9c2a45d419a9f345378ea35a006d0</property>
  <property name="kdenlive:original.backup">1</property>
  <property name="kdenlive:audio_max">1</property>
  <property name="global_feed">1</property>
  <property name="meta.media.nb_streams">2</property>
  <property name="meta.media.0.stream.type">video</property>
  <property name="meta.media.0.stream.frame_rate">29.97</property>
  <property name="meta.media.0.stream.sample_aspect_ratio">1</property>
  <property name="meta.media.0.codec.width">640</property>
  <property name="meta.media.0.codec.height">854</property>
  <property name="meta.media.0.codec.rotate">0</property>
  <property name="meta.media.0.codec.frame_rate">1000</property>
  <property name="meta.media.0.codec.pix_fmt">yuvj420p</property>
  <property name="meta.media.0.codec.sample_aspect_ratio">1.00078</property>
  <property name="meta.media.0.codec.colorspace">601</property>
  <property name="meta.media.0.codec.name">mjpeg</property>
  <property name="meta.media.0.codec.long_name">MJPEG (Motion JPEG)</property>
  <property name="meta.media.0.codec.bit_rate">0</property>
  <property name="meta.attr.0.stream.ENCODER.markup">Lavc58.91.100 mjpeg</property>
  <property name="meta.attr.0.stream.HANDLER_NAME.markup">VideoHandler</property>
  <property name="meta.attr.0.stream.DURATION.markup">00:02:27.614000000</property>
  <property name="meta.media.1.stream.type">audio</property>
  <property name="meta.media.1.codec.sample_fmt">s16</property>
  <property name="meta.media.1.codec.sample_rate">48000</property>
  <property name="meta.media.1.codec.channels">2</property>
  <property name="meta.media.1.codec.name">pcm_s16le</property>
  <property name="meta.media.1.codec.long_name">PCM signed 16-bit little-endian</property>
  <property name="meta.media.1.codec.bit_rate">1536000</property>
  <property name="meta.attr.1.stream.HANDLER_NAME.markup">SoundHandler</property>
  <property name="meta.attr.1.stream.ENCODER.markup">Lavc58.91.100 pcm_s16le</property>
  <property name="meta.attr.1.stream.DURATION.markup">00:02:27.535000000</property>
  <property name="meta.attr.COMPATIBLE_BRANDS.markup">isomiso2avc1mp41</property>
  <property name="meta.attr.MAJOR_BRAND.markup">isom</property>
  <property name="meta.attr.MINOR_VERSION.markup">512</property>
  <property name="meta.attr.ENCODER.markup">Lavf58.45.100</property>
  <property name="meta.media.sample_aspect_num">1</property>
  <property name="meta.media.sample_aspect_den">1</property>
  <property name="meta.media.frame_rate_num">30000</property>
  <property name="meta.media.frame_rate_den">1001</property>
  <property name="meta.media.colorspace">601</property>
  <property name="meta.media.color_trc">2</property>
  <property name="meta.media.width">640</property>
  <property name="meta.media.height">854</property>
  <property name="meta.media.color_range">full</property>
  <property name="meta.media.top_field_first">0</property>
  <property name="meta.media.progressive">1</property>
 </producer>
 <producer id="producer39" in="00:00:00.000" out="00:04:14.500">
  <property name="length">7636</property>
  <property name="eof">pause</property>
  <property name="resource">/home/ryankelln/.cache/kdenlive/proxy/9cec9d632787cb95f8eb310bff430b62.mkv</property>
  <property name="audio_index">1</property>
  <property name="video_index">0</property>
  <property name="mute_on_pause">0</property>
  <property name="mlt_service">avformat-novalidate</property>
  <property name="seekable">1</property>
  <property name="aspect_ratio">1</property>
  <property name="kdenlive:clipname">2021-06-02_Caleb_upright+4k+portrait_jackson_P1000536-take3_beginning_to_G.MP4</property>
  <property name="kdenlive:folderid">41</property>
  <property name="kdenlive:id">39</property>
  <property name="kdenlive:file_size">3052263565</property>
  <property name="kdenlive:file_hash">9cec9d632787cb95f8eb310bff430b62</property>
  <property name="kdenlive:proxy">/home/ryankelln/.cache/kdenlive/proxy/9cec9d632787cb95f8eb310bff430b62.mkv</property>
  <property name="kdenlive:originalurl">content/musicians/2021-06-02_Caleb_upright+4k+portrait_jackson_P1000536-take3_beginning_to_G.MP4</property>
  <property name="kdenlive:original.mlt_type">producer</property>
  <property name="kdenlive:original.in">0</property>
  <property name="kdenlive:original.out">7635</property>
  <property name="kdenlive:original.length">7636</property>
  <property name="kdenlive:original.eof">pause</property>
  <property name="kdenlive:original.resource">content/musicians/2021-06-02_Caleb_upright+4k+portrait_jackson_P1000536-take3_beginning_to_G.MP4</property>
  <property name="kdenlive:original.meta.media.nb_streams">2</property>
  <property name="kdenlive:original.meta.media.0.stream.type">video</property>
  <property name="kdenlive:original.meta.media.0.stream.frame_rate">29.97</property>
  <property name="kdenlive:original.meta.media.0.stream.sample_aspect_ratio">1</property>
  <property name="kdenlive:original.meta.media.0.codec.width">3328</property>
  <property name="kdenlive:original.meta.media.0.codec.height">2496</property>
  <property name="kdenlive:original.meta.media.0.codec.rotate">90</property>
  <property name="kdenlive:original.meta.media.0.codec.frame_rate">29.97</property>
  <property name="kdenlive:original.meta.media.0.codec.pix_fmt">yuvj420p</property>
  <property name="kdenlive:original.meta.media.0.codec.sample_aspect_ratio">1</property>
  <property name="kdenlive:original.meta.media.0.codec.colorspace">709</property>
  <property name="kdenlive:original.meta.media.0.codec.color_trc">1</property>
  <property name="kdenlive:original.meta.media.0.codec.name">h264</property>
  <property name="kdenlive:original.meta.media.0.codec.long_name">H.264 / AVC / MPEG-4 AVC / MPEG-4 part 10</property>
  <property name="kdenlive:original.meta.media.0.codec.bit_rate">95816171</property>
  <property name="kdenlive:original.meta.attr.0.stream.rotate.markup">90</property>
  <property name="kdenlive:original.meta.attr.0.stream.creation_time.markup">2021-06-02T13:56:16.000000Z</property>
  <property name="kdenlive:original.meta.attr.0.stream.handler_name.markup">VideoHandler</property>
  <property name="kdenlive:original.meta.media.1.stream.type">audio</property>
  <property name="kdenlive:original.meta.media.1.codec.sample_fmt">fltp</property>
  <property name="kdenlive:original.meta.media.1.codec.sample_rate">48000</property>
  <property name="kdenlive:original.meta.media.1.codec.channels">2</property>
  <property name="kdenlive:original.meta.media.1.codec.name">aac</property>
  <property name="kdenlive:original.meta.media.1.codec.long_name">AAC (Advanced Audio Coding)</property>
  <property name="kdenlive:original.meta.media.1.codec.bit_rate">125373</property>
  <property name="kdenlive:original.meta.attr.1.stream.creation_time.markup">2021-06-02T13:56:16.000000Z</property>
  <property name="kdenlive:original.meta.attr.1.stream.handler_name.markup">SoundHandler</property>
  <property name="kdenlive:original.meta.attr.major_brand.markup">isom</property>
  <property name="kdenlive:original.meta.attr.minor_version.markup">512</property>
  <property name="kdenlive:original.meta.attr.compatible_brands.markup">isomiso2avc1mp41</property>
  <property name="kdenlive:original.meta.attr.creation_time.markup">2021-06-02T13:56:16.000000Z</property>
  <property name="kdenlive:original.meta.attr.encoder.markup">Lavf58.45.100</property>
  <property name="kdenlive:original.seekable">1</property>
  <property name="kdenlive:original.width">3328</property>
  <property name="kdenlive:original.height">2496</property>
  <property name="kdenlive:original.meta.media.sample_aspect_num">1</property>
  <property name="kdenlive:original.meta.media.sample_aspect_den">1</property>
  <property name="kdenlive:original.aspect_ratio">1</property>
  <property name="kdenlive:original.audio_index">1</property>
  <property name="kdenlive:original.video_index">0</property>
  <property name="kdenlive:original.mute_on_pause">0</property>
  <property name="kdenlive:original.mlt_service">avformat-novalidate</property>
  <property name="kdenlive:original.kdenlive:folderid">41</property>
  <property name="kdenlive:original.meta.media.frame_rate_num">30000</property>
  <property name="kdenlive:original.meta.media.frame_rate_den">1001</property>
  <property name="kdenlive:original.meta.media.colorspace">709</property>
  <property name="kdenlive:original.meta.media.color_trc">1</property>
  <property name="kdenlive:original.meta.media.width">2496</property>
  <property name="kdenlive:original.meta.media.height">3328</property>
  <property name="kdenlive:original.meta.media.color_range">full</property>
  <property name="kdenlive:original.kdenlive:id">56</property>
  <property name="kdenlive:original.kdenlive:file_size">3052263565</property>
  <property name="kdenlive:original.kdenlive:file_hash">9cec9d632787cb95f8eb310bff430b62</property>
  <property name="kdenlive:original.backup">1</property>
  <property name="kdenlive:audio_max">1</property>
  <property name="global_feed">1</property>
  <property name="meta.media.nb_streams">2</property>
  <property name="meta.media.0.stream.type">video</property>
  <property name="meta.media.0.stream.frame_rate">29.97</property>
  <property name="meta.media.0.stream.sample_aspect_ratio">1</property>
  <property name="meta.media.0.codec.width">640</property>
  <property name="meta.media.0.codec.height">854</property>
  <property name="meta.media.0.codec.rotate">0</property>
  <property name="meta.media.0.codec.frame_rate">1000</property>
  <property name="meta.media.0.codec.pix_fmt">yuvj420p</property>
  <property name="meta.media.0.codec.sample_aspect_ratio">1.00078</property>
  <property name="meta.media.0.codec.colorspace">601</property>
  <property name="meta.media.0.codec.name">mjpeg</property>
  <property name="meta.media.0.codec.long_name">MJPEG (Motion JPEG)</property>
  <property name="meta.media.0.codec.bit_rate">0</property>
  <property name="meta.attr.0.stream.ENCODER.markup">Lavc58.91.100 mjpeg</property>
  <property name="meta.attr.0.stream.HANDLER_NAME.markup">VideoHandler</property>
  <property name="meta.attr.0.stream.DURATION.markup">00:04:14.587000000</property>
  <property name="meta.media.1.stream.type">audio</property>
  <property name="meta.media.1.codec.sample_fmt">s16</property>
  <property name="meta.media.1.codec.sample_rate">48000</property>
  <property name="meta.media.1.codec.channels">2</property>
  <property name="meta.media.1.codec.name">pcm_s16le</property>
  <property name="meta.media.1.codec.long_name">PCM signed 16-bit little-endian</property>
  <property name="meta.media.1.codec.bit_rate">1536000</property>
  <property name="meta.attr.1.stream.HANDLER_NAME.markup">SoundHandler</property>
  <property name="meta.attr.1.stream.ENCODER.markup">Lavc58.91.100 pcm_s16le</property>
  <property name="meta.attr.1.stream.DURATION.markup">00:04:14.549000000</property>
  <property name="meta.attr.COMPATIBLE_BRANDS.markup">isomiso2avc1mp41</property>
  <property name="meta.attr.MAJOR_BRAND.markup">isom</property>
  <property name="meta.attr.MINOR_VERSION.markup">512</property>
  <property name="meta.attr.ENCODER.markup">Lavf58.45.100</property>
  <property name="meta.media.sample_aspect_num">1</property>
  <property name="meta.media.sample_aspect_den">1</property>
  <property name="meta.media.frame_rate_num">30000</property>
  <property name="meta.media.frame_rate_den">1001</property>
  <property name="meta.media.colorspace">601</property>
  <property name="meta.media.color_trc">2</property>
  <property name="meta.media.width">640</property>
  <property name="meta.media.height">854</property>
  <property name="meta.media.color_range">full</property>
  <property name="meta.media.top_field_first">0</property>
  <property name="meta.media.progressive">1</property>
 </producer>
 <producer id="producer40" in="00:00:00.000" out="00:00:21.300">
  <property name="length">640</property>
  <property name="eof">pause</property>
  <property name="resource">/home/ryankelln/.cache/kdenlive/proxy/6ada0294eac8e8ccd31a45c2565289e0.mkv</property>
  <property name="audio_index">1</property>
  <property name="video_index">0</property>
  <property name="mute_on_pause">0</property>
  <property name="mlt_service">avformat-novalidate</property>
  <property name="seekable">1</property>
  <property name="aspect_ratio">1</property>
  <property name="kdenlive:clipname">2021-02-06_Chris_piano_4k_jackson_P1180167-pickup.MP4</property>
  <property name="kdenlive:folderid">41</property>
  <property name="kdenlive:id">42</property>
  <property name="kdenlive:file_size">255742700</property>
  <property name="kdenlive:file_hash">6ada0294eac8e8ccd31a45c2565289e0</property>
  <property name="kdenlive:proxy">/home/ryankelln/.cache/kdenlive/proxy/6ada0294eac8e8ccd31a45c2565289e0.mkv</property>
  <property name="kdenlive:originalurl">content/musicians/2021-02-06_Chris_piano_4k_jackson_P1180167-pickup.MP4</property>
  <property name="kdenlive:original.mlt_type">producer</property>
  <property name="kdenlive:original.in">0</property>
  <property name="kdenlive:original.out">639</property>
  <property name="kdenlive:original.length">640</property>
  <property name="kdenlive:original.eof">pause</property>
  <property name="kdenlive:original.resource">content/musicians/2021-02-06_Chris_piano_4k_jackson_P1180167-pickup.MP4</property>
  <property name="kdenlive:original.meta.media.nb_streams">2</property>
  <property name="kdenlive:original.meta.media.0.stream.type">video</property>
  <property name="kdenlive:original.meta.media.0.stream.frame_rate">29.97</property>
  <property name="kdenlive:original.meta.media.0.stream.sample_aspect_ratio">1</property>
  <property name="kdenlive:original.meta.media.0.codec.width">3840</property>
  <property name="kdenlive:original.meta.media.0.codec.height">2160</property>
  <property name="kdenlive:original.meta.media.0.codec.rotate">0</property>
  <property name="kdenlive:original.meta.media.0.codec.frame_rate">29.97</property>
  <property name="kdenlive:original.meta.media.0.codec.pix_fmt">yuvj420p</property>
  <property name="kdenlive:original.meta.media.0.codec.sample_aspect_ratio">1</property>
  <property name="kdenlive:original.meta.media.0.codec.colorspace">709</property>
  <property name="kdenlive:original.meta.media.0.codec.color_trc">1</property>
  <property name="kdenlive:original.meta.media.0.codec.name">h264</property>
  <property name="kdenlive:original.meta.media.0.codec.long_name">H.264 / AVC / MPEG-4 AVC / MPEG-4 part 10</property>
  <property name="kdenlive:original.meta.media.0.codec.bit_rate">96123892</property>
  <property name="kdenlive:original.meta.attr.0.stream.creation_time.markup">2021-06-02T16:47:50.000000Z</property>
  <property name="kdenlive:original.meta.attr.0.stream.handler_name.markup">VideoHandler</property>
  <property name="kdenlive:original.meta.media.1.stream.type">audio</property>
  <property name="kdenlive:original.meta.media.1.codec.sample_fmt">fltp</property>
  <property name="kdenlive:original.meta.media.1.codec.sample_rate">48000</property>
  <property name="kdenlive:original.meta.media.1.codec.channels">2</property>
  <property name="kdenlive:original.meta.media.1.codec.name">aac</property>
  <property name="kdenlive:original.meta.media.1.codec.long_name">AAC (Advanced Audio Coding)</property>
  <property name="kdenlive:original.meta.media.1.codec.bit_rate">125375</property>
  <property name="kdenlive:original.meta.attr.1.stream.creation_time.markup">2021-06-02T16:47:50.000000Z</property>
  <property name="kdenlive:original.meta.attr.1.stream.handler_name.markup">SoundHandler</property>
  <property name="kdenlive:original.meta.attr.major_brand.markup">isom</property>
  <property name="kdenlive:original.meta.attr.minor_version.markup">512</property>
  <property name="kdenlive:original.meta.attr.compatible_brands.markup">isomiso2avc1mp41</property>
  <property name="kdenlive:original.meta.attr.creation_time.markup">2021-06-02T16:47:50.000000Z</property>
  <property name="kdenlive:original.meta.attr.encoder.markup">Lavf58.45.100</property>
  <property name="kdenlive:original.seekable">1</property>
  <property name="kdenlive:original.width">3840</property>
  <property name="kdenlive:original.height">2160</property>
  <property name="kdenlive:original.meta.media.sample_aspect_num">1</property>
  <property name="kdenlive:original.meta.media.sample_aspect_den">1</property>
  <property name="kdenlive:original.aspect_ratio">1</property>
  <property name="kdenlive:original.audio_index">1</property>
  <property name="kdenlive:original.video_index">0</property>
  <property name="kdenlive:original.mute_on_pause">0</property>
  <property name="kdenlive:original.mlt_service">avformat-novalidate</property>
  <property name="kdenlive:original.kdenlive:folderid">41</property>
  <property name="kdenlive:original.meta.media.frame_rate_num">30000</property>
  <property name="kdenlive:original.meta.media.frame_rate_den">1001</property>
  <property name="kdenlive:original.meta.media.colorspace">709</property>
  <property name="kdenlive:original.meta.media.color_trc">1</property>
  <property name="kdenlive:original.meta.media.width">3840</property>
  <property name="kdenlive:original.meta.media.height">2160</property>
  <property name="kdenlive:original.meta.media.color_range">full</property>
  <property name="kdenlive:original.kdenlive:id">57</property>
  <property name="kdenlive:original.kdenlive:file_size">255742700</property>
  <property name="kdenlive:original.kdenlive:file_hash">6ada0294eac8e8ccd31a45c2565289e0</property>
  <property name="kdenlive:original.backup">1</property>
  <property name="kdenlive:audio_max">2</property>
  <property name="global_feed">1</property>
  <property name="meta.media.nb_streams">2</property>
  <property name="meta.media.0.stream.type">video</property>
  <property name="meta.media.0.stream.frame_rate">29.97</property>
  <property name="meta.media.0.stream.sample_aspect_ratio">1</property>
  <property name="meta.media.0.codec.width">640</property>
  <property name="meta.media.0.codec.height">360</property>
  <property name="meta.media.0.codec.rotate">0</property>
  <property name="meta.media.0.codec.frame_rate">1000</property>
  <property name="meta.media.0.codec.pix_fmt">yuvj420p</property>
  <property name="meta.media.0.codec.sample_aspect_ratio">1</property>
  <property name="meta.media.0.codec.colorspace">601</property>
  <property name="meta.media.0.codec.name">mjpeg</property>
  <property name="meta.media.0.codec.long_name">MJPEG (Motion JPEG)</property>
  <property name="meta.media.0.codec.bit_rate">0</property>
  <property name="meta.attr.0.stream.HANDLER_NAME.markup">VideoHandler</property>
  <property name="meta.attr.0.stream.ENCODER.markup">Lavc58.91.100 mjpeg</property>
  <property name="meta.attr.0.stream.DURATION.markup">00:00:21.388000000</property>
  <property name="meta.media.1.stream.type">audio</property>
  <property name="meta.media.1.codec.sample_fmt">s16</property>
  <property name="meta.media.1.codec.sample_rate">48000</property>
  <property name="meta.media.1.codec.channels">2</property>
  <property name="meta.media.1.codec.name">pcm_s16le</property>
  <property name="meta.media.1.codec.long_name">PCM signed 16-bit little-endian</property>
  <property name="meta.media.1.codec.bit_rate">1536000</property>
  <property name="meta.attr.1.stream.HANDLER_NAME.markup">SoundHandler</property>
  <property name="meta.attr.1.stream.ENCODER.markup">Lavc58.91.100 pcm_s16le</property>
  <property name="meta.attr.1.stream.DURATION.markup">00:00:21.333000000</property>
  <property name="meta.attr.COMPATIBLE_BRANDS.markup">isomiso2avc1mp41</property>
  <property name="meta.attr.MAJOR_BRAND.markup">isom</property>
  <property name="meta.attr.MINOR_VERSION.markup">512</property>
  <property name="meta.attr.ENCODER.markup">Lavf58.45.100</property>
  <property name="meta.media.sample_aspect_num">1</property>
  <property name="meta.media.sample_aspect_den">1</property>
  <property name="meta.media.frame_rate_num">30000</property>
  <property name="meta.media.frame_rate_den">1001</property>
  <property name="meta.media.colorspace">601</property>
  <property name="meta.media.color_trc">2</property>
  <property name="meta.media.width">640</property>
  <property name="meta.media.height">360</property>
  <property name="meta.media.color_range">full</property>
  <property name="meta.media.top_field_first">0</property>
  <property name="meta.media.progressive">1</property>
 </producer>
 <producer id="producer42" in="00:00:00.000" out="00:04:00.133">
  <property name="length">7205</property>
  <property name="eof">pause</property>
  <property name="resource">/home/ryankelln/.cache/kdenlive/proxy/16b37e57a80d9ba82f4eb411ec8e6e1e.mkv</property>
  <property name="audio_index">1</property>
  <property name="video_index">0</property>
  <property name="mute_on_pause">0</property>
  <property name="mlt_service">avformat-novalidate</property>
  <property name="seekable">1</property>
  <property name="aspect_ratio">1</property>
  <property name="kdenlive:clipname">2021-06-02_140918_Sarah_kit+handheld_jackson-take3_beginning_to_D.mp4</property>
  <property name="kdenlive:folderid">41</property>
  <property name="kdenlive:id">43</property>
  <property name="kdenlive:file_size">762359744</property>
  <property name="kdenlive:file_hash">16b37e57a80d9ba82f4eb411ec8e6e1e</property>
  <property name="kdenlive:proxy">/home/ryankelln/.cache/kdenlive/proxy/16b37e57a80d9ba82f4eb411ec8e6e1e.mkv</property>
  <property name="kdenlive:originalurl">content/musicians/2021-06-02_140918_Sarah_kit+handheld_jackson-take3_beginning_to_D.mp4</property>
  <property name="kdenlive:original.mlt_type">producer</property>
  <property name="kdenlive:original.in">0</property>
  <property name="kdenlive:original.out">7204</property>
  <property name="kdenlive:original.length">7205</property>
  <property name="kdenlive:original.eof">pause</property>
  <property name="kdenlive:original.resource">content/musicians/2021-06-02_140918_Sarah_kit+handheld_jackson-take3_beginning_to_D.mp4</property>
  <property name="kdenlive:original.meta.media.nb_streams">2</property>
  <property name="kdenlive:original.meta.media.0.stream.type">video</property>
  <property name="kdenlive:original.meta.media.0.stream.frame_rate">59.9401</property>
  <property name="kdenlive:original.meta.media.0.stream.sample_aspect_ratio">1</property>
  <property name="kdenlive:original.meta.media.0.codec.width">1920</property>
  <property name="kdenlive:original.meta.media.0.codec.height">1080</property>
  <property name="kdenlive:original.meta.media.0.codec.rotate">0</property>
  <property name="kdenlive:original.meta.media.0.codec.frame_rate">59.9401</property>
  <property name="kdenlive:original.meta.media.0.codec.pix_fmt">yuv420p</property>
  <property name="kdenlive:original.meta.media.0.codec.sample_aspect_ratio">1</property>
  <property name="kdenlive:original.meta.media.0.codec.colorspace">709</property>
  <property name="kdenlive:original.meta.media.0.codec.name">h264</property>
  <property name="kdenlive:original.meta.media.0.codec.long_name">H.264 / AVC / MPEG-4 AVC / MPEG-4 part 10</property>
  <property name="kdenlive:original.meta.media.0.codec.bit_rate">24939061</property>
  <property name="kdenlive:original.meta.attr.0.stream.handler_name.markup">VideoHandler</property>
  <property name="kdenlive:original.meta.media.1.stream.type">audio</property>
  <property name="kdenlive:original.meta.media.1.codec.sample_fmt">fltp</property>
  <property name="kdenlive:original.meta.media.1.codec.sample_rate">48000</property>
  <property name="kdenlive:original.meta.media.1.codec.channels">6</property>
  <property name="kdenlive:original.meta.media.1.codec.name">ac3</property>
  <property name="kdenlive:original.meta.media.1.codec.long_name">ATSC A/52A (AC-3)</property>
  <property name="kdenlive:original.meta.media.1.codec.bit_rate">448000</property>
  <property name="kdenlive:original.meta.attr.1.stream.handler_name.markup">SoundHandler</property>
  <property name="kdenlive:original.meta.attr.major_brand.markup">isom</property>
  <property name="kdenlive:original.meta.attr.minor_version.markup">512</property>
  <property name="kdenlive:original.meta.attr.compatible_brands.markup">isomiso2avc1mp41</property>
  <property name="kdenlive:original.meta.attr.encoder.markup">Lavf58.45.100</property>
  <property name="kdenlive:original.seekable">1</property>
  <property name="kdenlive:original.width">1920</property>
  <property name="kdenlive:original.height">1080</property>
  <property name="kdenlive:original.meta.media.sample_aspect_num">1</property>
  <property name="kdenlive:original.meta.media.sample_aspect_den">1</property>
  <property name="kdenlive:original.aspect_ratio">1</property>
  <property name="kdenlive:original.audio_index">1</property>
  <property name="kdenlive:original.video_index">0</property>
  <property name="kdenlive:original.mute_on_pause">0</property>
  <property name="kdenlive:original.mlt_service">avformat-novalidate</property>
  <property name="kdenlive:original.kdenlive:folderid">41</property>
  <property name="kdenlive:original.meta.media.frame_rate_num">323887500</property>
  <property name="kdenlive:original.meta.media.frame_rate_den">5403523</property>
  <property name="kdenlive:original.meta.media.colorspace">709</property>
  <property name="kdenlive:original.meta.media.color_trc">2</property>
  <property name="kdenlive:original.meta.media.width">1920</property>
  <property name="kdenlive:original.meta.media.height">1080</property>
  <property name="kdenlive:original.meta.media.color_range">mpeg</property>
  <property name="kdenlive:original.kdenlive:id">55</property>
  <property name="kdenlive:original.kdenlive:file_size">762359744</property>
  <property name="kdenlive:original.kdenlive:file_hash">16b37e57a80d9ba82f4eb411ec8e6e1e</property>
  <property name="kdenlive:original.backup">1</property>
  <property name="kdenlive:audio_max">4</property>
  <property name="global_feed">1</property>
  <property name="meta.media.nb_streams">2</property>
  <property name="meta.media.0.stream.type">video</property>
  <property name="meta.media.0.stream.frame_rate">59.9401</property>
  <property name="meta.media.0.stream.sample_aspect_ratio">1</property>
  <property name="meta.media.0.codec.width">640</property>
  <property name="meta.media.0.codec.height">360</property>
  <property name="meta.media.0.codec.rotate">0</property>
  <property name="meta.media.0.codec.frame_rate">1000</property>
  <property name="meta.media.0.codec.pix_fmt">yuvj420p</property>
  <property name="meta.media.0.codec.sample_aspect_ratio">1</property>
  <property name="meta.media.0.codec.colorspace">601</property>
  <property name="meta.media.0.codec.name">mjpeg</property>
  <property name="meta.media.0.codec.long_name">MJPEG (Motion JPEG)</property>
  <property name="meta.media.0.codec.bit_rate">0</property>
  <property name="meta.attr.0.stream.HANDLER_NAME.markup">VideoHandler</property>
  <property name="meta.attr.0.stream.ENCODER.markup">Lavc58.91.100 mjpeg</property>
  <property name="meta.attr.0.stream.DURATION.markup">00:04:00.157000000</property>
  <property name="meta.media.1.stream.type">audio</property>
  <property name="meta.media.1.codec.sample_fmt">s16</property>
  <property name="meta.media.1.codec.sample_rate">48000</property>
  <property name="meta.media.1.codec.channels">6</property>
  <property name="meta.media.1.codec.name">pcm_s16le</property>
  <property name="meta.media.1.codec.long_name">PCM signed 16-bit little-endian</property>
  <property name="meta.media.1.codec.bit_rate">4608000</property>
  <property name="meta.attr.1.stream.HANDLER_NAME.markup">SoundHandler</property>
  <property name="meta.attr.1.stream.ENCODER.markup">Lavc58.91.100 pcm_s16le</property>
  <property name="meta.attr.1.stream.DURATION.markup">00:04:00.160000000</property>
  <property name="meta.attr.COMPATIBLE_BRANDS.markup">isomiso2avc1mp41</property>
  <property name="meta.attr.MAJOR_BRAND.markup">isom</property>
  <property name="meta.attr.MINOR_VERSION.markup">512</property>
  <property name="meta.attr.ENCODER.markup">Lavf58.45.100</property>
  <property name="meta.media.sample_aspect_num">1</property>
  <property name="meta.media.sample_aspect_den">1</property>
  <property name="meta.media.frame_rate_num">19001</property>
  <property name="meta.media.frame_rate_den">317</property>
  <property name="meta.media.colorspace">601</property>
  <property name="meta.media.color_trc">2</property>
  <property name="meta.media.width">640</property>
  <property name="meta.media.height">360</property>
  <property name="meta.media.color_range">full</property>
  <property name="meta.media.top_field_first">0</property>
  <property name="meta.media.progressive">1</property>
 </producer>
 <producer id="producer41" in="00:00:00.000" out="00:02:22.400">
  <property name="length">4273</property>
  <property name="eof">pause</property>
  <property name="resource">/home/ryankelln/.cache/kdenlive/proxy/06777305edbf49ffad5e7e8e6efaa2c4.mkv</property>
  <property name="audio_index">1</property>
  <property name="video_index">0</property>
  <property name="mute_on_pause">0</property>
  <property name="mlt_service">avformat-novalidate</property>
  <property name="seekable">1</property>
  <property name="aspect_ratio">1</property>
  <property name="kdenlive:clipname">2021-06-02_142358_Sarah_kit+handheld_jackson-take4_m44_to_end.mp4</property>
  <property name="kdenlive:folderid">41</property>
  <property name="kdenlive:id">44</property>
  <property name="kdenlive:file_size">450928904</property>
  <property name="kdenlive:file_hash">06777305edbf49ffad5e7e8e6efaa2c4</property>
  <property name="kdenlive:proxy">/home/ryankelln/.cache/kdenlive/proxy/06777305edbf49ffad5e7e8e6efaa2c4.mkv</property>
  <property name="kdenlive:originalurl">content/musicians/2021-06-02_142358_Sarah_kit+handheld_jackson-take4_m44_to_end.mp4</property>
  <property name="kdenlive:original.mlt_type">producer</property>
  <property name="kdenlive:original.in">0</property>
  <property name="kdenlive:original.out">4272</property>
  <property name="kdenlive:original.length">4273</property>
  <property name="kdenlive:original.eof">pause</property>
  <property name="kdenlive:original.resource">content/musicians/2021-06-02_142358_Sarah_kit+handheld_jackson-take4_m44_to_end.mp4</property>
  <property name="kdenlive:original.meta.media.nb_streams">2</property>
  <property name="kdenlive:original.meta.media.0.stream.type">video</property>
  <property name="kdenlive:original.meta.media.0.stream.frame_rate">59.9401</property>
  <property name="kdenlive:original.meta.media.0.stream.sample_aspect_ratio">1</property>
  <property name="kdenlive:original.meta.media.0.codec.width">1920</property>
  <property name="kdenlive:original.meta.media.0.codec.height">1080</property>
  <property name="kdenlive:original.meta.media.0.codec.rotate">0</property>
  <property name="kdenlive:original.meta.media.0.codec.frame_rate">59.9401</property>
  <property name="kdenlive:original.meta.media.0.codec.pix_fmt">yuv420p</property>
  <property name="kdenlive:original.meta.media.0.codec.sample_aspect_ratio">1</property>
  <property name="kdenlive:original.meta.media.0.codec.colorspace">709</property>
  <property name="kdenlive:original.meta.media.0.codec.name">h264</property>
  <property name="kdenlive:original.meta.media.0.codec.long_name">H.264 / AVC / MPEG-4 AVC / MPEG-4 part 10</property>
  <property name="kdenlive:original.meta.media.0.codec.bit_rate">24968671</property>
  <property name="kdenlive:original.meta.attr.0.stream.handler_name.markup">VideoHandler</property>
  <property name="kdenlive:original.meta.media.1.stream.type">audio</property>
  <property name="kdenlive:original.meta.media.1.codec.sample_fmt">fltp</property>
  <property name="kdenlive:original.meta.media.1.codec.sample_rate">48000</property>
  <property name="kdenlive:original.meta.media.1.codec.channels">6</property>
  <property name="kdenlive:original.meta.media.1.codec.name">ac3</property>
  <property name="kdenlive:original.meta.media.1.codec.long_name">ATSC A/52A (AC-3)</property>
  <property name="kdenlive:original.meta.media.1.codec.bit_rate">448000</property>
  <property name="kdenlive:original.meta.attr.1.stream.handler_name.markup">SoundHandler</property>
  <property name="kdenlive:original.meta.attr.major_brand.markup">isom</property>
  <property name="kdenlive:original.meta.attr.minor_version.markup">512</property>
  <property name="kdenlive:original.meta.attr.compatible_brands.markup">isomiso2avc1mp41</property>
  <property name="kdenlive:original.meta.attr.encoder.markup">Lavf58.45.100</property>
  <property name="kdenlive:original.seekable">1</property>
  <property name="kdenlive:original.width">1920</property>
  <property name="kdenlive:original.height">1080</property>
  <property name="kdenlive:original.meta.media.sample_aspect_num">1</property>
  <property name="kdenlive:original.meta.media.sample_aspect_den">1</property>
  <property name="kdenlive:original.aspect_ratio">1</property>
  <property name="kdenlive:original.audio_index">1</property>
  <property name="kdenlive:original.video_index">0</property>
  <property name="kdenlive:original.mute_on_pause">0</property>
  <property name="kdenlive:original.mlt_service">avformat-novalidate</property>
  <property name="kdenlive:original.kdenlive:folderid">41</property>
  <property name="kdenlive:original.meta.media.frame_rate_num">153072000</property>
  <property name="kdenlive:original.meta.media.frame_rate_den">2553751</property>
  <property name="kdenlive:original.meta.media.colorspace">709</property>
  <property name="kdenlive:original.meta.media.color_trc">2</property>
  <property name="kdenlive:original.meta.media.width">1920</property>
  <property name="kdenlive:original.meta.media.height">1080</property>
  <property name="kdenlive:original.meta.media.color_range">mpeg</property>
  <property name="kdenlive:original.kdenlive:id">56</property>
  <property name="kdenlive:original.kdenlive:file_size">450928904</property>
  <property name="kdenlive:original.kdenlive:file_hash">06777305edbf49ffad5e7e8e6efaa2c4</property>
  <property name="kdenlive:original.backup">1</property>
  <property name="kdenlive:audio_max">4</property>
  <property name="global_feed">1</property>
  <property name="meta.media.nb_streams">2</property>
  <property name="meta.media.0.stream.type">video</property>
  <property name="meta.media.0.stream.frame_rate">59.9401</property>
  <property name="meta.media.0.stream.sample_aspect_ratio">1</property>
  <property name="meta.media.0.codec.width">640</property>
  <property name="meta.media.0.codec.height">360</property>
  <property name="meta.media.0.codec.rotate">0</property>
  <property name="meta.media.0.codec.frame_rate">1000</property>
  <property name="meta.media.0.codec.pix_fmt">yuvj420p</property>
  <property name="meta.media.0.codec.sample_aspect_ratio">1</property>
  <property name="meta.media.0.codec.colorspace">601</property>
  <property name="meta.media.0.codec.name">mjpeg</property>
  <property name="meta.media.0.codec.long_name">MJPEG (Motion JPEG)</property>
  <property name="meta.media.0.codec.bit_rate">0</property>
  <property name="meta.attr.0.stream.HANDLER_NAME.markup">VideoHandler</property>
  <property name="meta.attr.0.stream.ENCODER.markup">Lavc58.91.100 mjpeg</property>
  <property name="meta.attr.0.stream.DURATION.markup">00:02:22.443000000</property>
  <property name="meta.media.1.stream.type">audio</property>
  <property name="meta.media.1.codec.sample_fmt">s16</property>
  <property name="meta.media.1.codec.sample_rate">48000</property>
  <property name="meta.media.1.codec.channels">6</property>
  <property name="meta.media.1.codec.name">pcm_s16le</property>
  <property name="meta.media.1.codec.long_name">PCM signed 16-bit little-endian</property>
  <property name="meta.media.1.codec.bit_rate">4608000</property>
  <property name="meta.attr.1.stream.HANDLER_NAME.markup">SoundHandler</property>
  <property name="meta.attr.1.stream.ENCODER.markup">Lavc58.91.100 pcm_s16le</property>
  <property name="meta.attr.1.stream.DURATION.markup">00:02:22.432000000</property>
  <property name="meta.attr.COMPATIBLE_BRANDS.markup">isomiso2avc1mp41</property>
  <property name="meta.attr.MAJOR_BRAND.markup">isom</property>
  <property name="meta.attr.MINOR_VERSION.markup">512</property>
  <property name="meta.attr.ENCODER.markup">Lavf58.45.100</property>
  <property name="meta.media.sample_aspect_num">1</property>
  <property name="meta.media.sample_aspect_den">1</property>
  <property name="meta.media.frame_rate_num">19001</property>
  <property name="meta.media.frame_rate_den">317</property>
  <property name="meta.media.colorspace">601</property>
  <property name="meta.media.color_trc">2</property>
  <property name="meta.media.width">640</property>
  <property name="meta.media.height">360</property>
  <property name="meta.media.color_range">full</property>
  <property name="meta.media.top_field_first">0</property>
  <property name="meta.media.progressive">1</property>
 </producer>
 <producer id="producer43" in="00:00:00.000" out="00:00:12.500">
  <property name="length">376</property>
  <property name="eof">pause</property>
  <property name="resource">/home/ryankelln/.cache/kdenlive/proxy/be1cd8be5fd1fc8079ede5e71be13f82.mkv</property>
  <property name="audio_index">1</property>
  <property name="video_index">0</property>
  <property name="mute_on_pause">0</property>
  <property name="mlt_service">avformat-novalidate</property>
  <property name="seekable">1</property>
  <property name="aspect_ratio">1</property>
  <property name="kdenlive:clipname">2021-06-02_142750_Sarah_shout+handheld_jackson.mp4</property>
  <property name="kdenlive:folderid">41</property>
  <property name="kdenlive:id">45</property>
  <property name="kdenlive:file_size">38567492</property>
  <property name="kdenlive:file_hash">be1cd8be5fd1fc8079ede5e71be13f82</property>
  <property name="kdenlive:proxy">/home/ryankelln/.cache/kdenlive/proxy/be1cd8be5fd1fc8079ede5e71be13f82.mkv</property>
  <property name="kdenlive:originalurl">content/musicians/2021-06-02_142750_Sarah_shout+handheld_jackson.mp4</property>
  <property name="kdenlive:original.mlt_type">producer</property>
  <property name="kdenlive:original.in">0</property>
  <property name="kdenlive:original.out">375</property>
  <property name="kdenlive:original.length">376</property>
  <property name="kdenlive:original.eof">pause</property>
  <property name="kdenlive:original.resource">content/musicians/2021-06-02_142750_Sarah_shout+handheld_jackson.mp4</property>
  <property name="kdenlive:original.meta.media.nb_streams">2</property>
  <property name="kdenlive:original.meta.media.0.stream.type">video</property>
  <property name="kdenlive:original.meta.media.0.stream.frame_rate">59.9401</property>
  <property name="kdenlive:original.meta.media.0.stream.sample_aspect_ratio">1</property>
  <property name="kdenlive:original.meta.media.0.codec.width">1920</property>
  <property name="kdenlive:original.meta.media.0.codec.height">1080</property>
  <property name="kdenlive:original.meta.media.0.codec.rotate">0</property>
  <property name="kdenlive:original.meta.media.0.codec.frame_rate">59.9401</property>
  <property name="kdenlive:original.meta.media.0.codec.pix_fmt">yuv420p</property>
  <property name="kdenlive:original.meta.media.0.codec.sample_aspect_ratio">1</property>
  <property name="kdenlive:original.meta.media.0.codec.colorspace">709</property>
  <property name="kdenlive:original.meta.media.0.codec.name">h264</property>
  <property name="kdenlive:original.meta.media.0.codec.long_name">H.264 / AVC / MPEG-4 AVC / MPEG-4 part 10</property>
  <property name="kdenlive:original.meta.media.0.codec.bit_rate">24200248</property>
  <property name="kdenlive:original.meta.attr.0.stream.handler_name.markup">VideoHandler</property>
  <property name="kdenlive:original.meta.media.1.stream.type">audio</property>
  <property name="kdenlive:original.meta.media.1.codec.sample_fmt">fltp</property>
  <property name="kdenlive:original.meta.media.1.codec.sample_rate">48000</property>
  <property name="kdenlive:original.meta.media.1.codec.channels">6</property>
  <property name="kdenlive:original.meta.media.1.codec.name">ac3</property>
  <property name="kdenlive:original.meta.media.1.codec.long_name">ATSC A/52A (AC-3)</property>
  <property name="kdenlive:original.meta.media.1.codec.bit_rate">448000</property>
  <property name="kdenlive:original.meta.attr.1.stream.handler_name.markup">SoundHandler</property>
  <property name="kdenlive:original.meta.attr.major_brand.markup">isom</property>
  <property name="kdenlive:original.meta.attr.minor_version.markup">512</property>
  <property name="kdenlive:original.meta.attr.compatible_brands.markup">isomiso2avc1mp41</property>
  <property name="kdenlive:original.meta.attr.encoder.markup">Lavf58.45.100</property>
  <property name="kdenlive:original.seekable">1</property>
  <property name="kdenlive:original.width">1920</property>
  <property name="kdenlive:original.height">1080</property>
  <property name="kdenlive:original.meta.media.sample_aspect_num">1</property>
  <property name="kdenlive:original.meta.media.sample_aspect_den">1</property>
  <property name="kdenlive:original.aspect_ratio">1</property>
  <property name="kdenlive:original.audio_index">1</property>
  <property name="kdenlive:original.video_index">0</property>
  <property name="kdenlive:original.mute_on_pause">0</property>
  <property name="kdenlive:original.mlt_service">avformat-novalidate</property>
  <property name="kdenlive:original.kdenlive:folderid">41</property>
  <property name="kdenlive:original.meta.media.frame_rate_num">16875000</property>
  <property name="kdenlive:original.meta.media.frame_rate_den">281531</property>
  <property name="kdenlive:original.meta.media.colorspace">709</property>
  <property name="kdenlive:original.meta.media.color_trc">2</property>
  <property name="kdenlive:original.meta.media.width">1920</property>
  <property name="kdenlive:original.meta.media.height">1080</property>
  <property name="kdenlive:original.meta.media.color_range">mpeg</property>
  <property name="kdenlive:original.kdenlive:id">57</property>
  <property name="kdenlive:original.kdenlive:file_size">38567492</property>
  <property name="kdenlive:original.kdenlive:file_hash">be1cd8be5fd1fc8079ede5e71be13f82</property>
  <property name="kdenlive:original.backup">1</property>
  <property name="kdenlive:audio_max">4</property>
  <property name="global_feed">1</property>
  <property name="meta.media.nb_streams">2</property>
  <property name="meta.media.0.stream.type">video</property>
  <property name="meta.media.0.stream.frame_rate">59.9401</property>
  <property name="meta.media.0.stream.sample_aspect_ratio">1</property>
  <property name="meta.media.0.codec.width">640</property>
  <property name="meta.media.0.codec.height">360</property>
  <property name="meta.media.0.codec.rotate">0</property>
  <property name="meta.media.0.codec.frame_rate">1000</property>
  <property name="meta.media.0.codec.pix_fmt">yuvj420p</property>
  <property name="meta.media.0.codec.sample_aspect_ratio">1</property>
  <property name="meta.media.0.codec.colorspace">601</property>
  <property name="meta.media.0.codec.name">mjpeg</property>
  <property name="meta.media.0.codec.long_name">MJPEG (Motion JPEG)</property>
  <property name="meta.media.0.codec.bit_rate">0</property>
  <property name="meta.attr.0.stream.HANDLER_NAME.markup">VideoHandler</property>
  <property name="meta.attr.0.stream.ENCODER.markup">Lavc58.91.100 mjpeg</property>
  <property name="meta.attr.0.stream.DURATION.markup">00:00:12.513000000</property>
  <property name="meta.media.1.stream.type">audio</property>
  <property name="meta.media.1.codec.sample_fmt">s16</property>
  <property name="meta.media.1.codec.sample_rate">48000</property>
  <property name="meta.media.1.codec.channels">6</property>
  <property name="meta.media.1.codec.name">pcm_s16le</property>
  <property name="meta.media.1.codec.long_name">PCM signed 16-bit little-endian</property>
  <property name="meta.media.1.codec.bit_rate">4608000</property>
  <property name="meta.attr.1.stream.HANDLER_NAME.markup">SoundHandler</property>
  <property name="meta.attr.1.stream.ENCODER.markup">Lavc58.91.100 pcm_s16le</property>
  <property name="meta.attr.1.stream.DURATION.markup">00:00:12.544000000</property>
  <property name="meta.attr.COMPATIBLE_BRANDS.markup">isomiso2avc1mp41</property>
  <property name="meta.attr.MAJOR_BRAND.markup">isom</property>
  <property name="meta.attr.MINOR_VERSION.markup">512</property>
  <property name="meta.attr.ENCODER.markup">Lavf58.45.100</property>
  <property name="meta.media.sample_aspect_num">1</property>
  <property name="meta.media.sample_aspect_den">1</property>
  <property name="meta.media.frame_rate_num">19001</property>
  <property name="meta.media.frame_rate_den">317</property>
  <property name="meta.media.colorspace">601</property>
  <property name="meta.media.color_trc">2</property>
  <property name="meta.media.width">640</property>
  <property name="meta.media.height">360</property>
  <property name="meta.media.color_range">full</property>
  <property name="meta.media.top_field_first">0</property>
  <property name="meta.media.progressive">1</property>
 </producer>
 <producer id="producer15" in="00:00:00.000" out="00:02:24.967">
  <property name="length">4350</property>
  <property name="eof">pause</property>
  <property name="resource">/home/ryankelln/.cache/kdenlive/proxy/215e61a2f32aa22723740ba4dea82087.mkv</property>
  <property name="audio_index">-1</property>
  <property name="video_index">0</property>
  <property name="mute_on_pause">0</property>
  <property name="mlt_service">avformat-novalidate</property>
  <property name="seekable">1</property>
  <property name="aspect_ratio">1</property>
  <property name="kdenlive:clipname">sunrise_timelapse_slow_water.mp4</property>
  <property name="kdenlive:folderid">55</property>
  <property name="kdenlive:id">46</property>
  <property name="kdenlive:file_size">55946459</property>
  <property name="kdenlive:file_hash">215e61a2f32aa22723740ba4dea82087</property>
  <property name="kdenlive:proxy">/home/ryankelln/.cache/kdenlive/proxy/215e61a2f32aa22723740ba4dea82087.mkv</property>
  <property name="kdenlive:originalurl">content/footage/sunrise_timelapse_slow_water.mp4</property>
  <property name="kdenlive:original.mlt_type">producer</property>
  <property name="kdenlive:original.in">0</property>
  <property name="kdenlive:original.out">4349</property>
  <property name="kdenlive:original.length">4350</property>
  <property name="kdenlive:original.eof">pause</property>
  <property name="kdenlive:original.resource">content/footage/sunrise_timelapse_slow_water.mp4</property>
  <property name="kdenlive:original.meta.media.nb_streams">1</property>
  <property name="kdenlive:original.meta.media.0.stream.type">video</property>
  <property name="kdenlive:original.meta.media.0.stream.frame_rate">59.9401</property>
  <property name="kdenlive:original.meta.media.0.stream.sample_aspect_ratio">1</property>
  <property name="kdenlive:original.meta.media.0.codec.width">1920</property>
  <property name="kdenlive:original.meta.media.0.codec.height">1080</property>
  <property name="kdenlive:original.meta.media.0.codec.rotate">0</property>
  <property name="kdenlive:original.meta.media.0.codec.frame_rate">59.9401</property>
  <property name="kdenlive:original.meta.media.0.codec.pix_fmt">yuvj420p</property>
  <property name="kdenlive:original.meta.media.0.codec.sample_aspect_ratio">1</property>
  <property name="kdenlive:original.meta.media.0.codec.colorspace">709</property>
  <property name="kdenlive:original.meta.media.0.codec.name">h264</property>
  <property name="kdenlive:original.meta.media.0.codec.long_name">H.264 / AVC / MPEG-4 AVC / MPEG-4 part 10</property>
  <property name="kdenlive:original.meta.media.0.codec.bit_rate">3080625</property>
  <property name="kdenlive:original.meta.attr.0.stream.handler_name.markup">VideoHandler</property>
  <property name="kdenlive:original.meta.attr.major_brand.markup">isom</property>
  <property name="kdenlive:original.meta.attr.minor_version.markup">512</property>
  <property name="kdenlive:original.meta.attr.compatible_brands.markup">isomiso2avc1mp41</property>
  <property name="kdenlive:original.meta.attr.encoder.markup">Lavf58.45.100</property>
  <property name="kdenlive:original.seekable">1</property>
  <property name="kdenlive:original.width">1920</property>
  <property name="kdenlive:original.height">1080</property>
  <property name="kdenlive:original.meta.media.sample_aspect_num">1</property>
  <property name="kdenlive:original.meta.media.sample_aspect_den">1</property>
  <property name="kdenlive:original.aspect_ratio">1</property>
  <property name="kdenlive:original.audio_index">-1</property>
  <property name="kdenlive:original.video_index">0</property>
  <property name="kdenlive:original.mute_on_pause">0</property>
  <property name="kdenlive:original.mlt_service">avformat-novalidate</property>
  <property name="kdenlive:original.kdenlive:folderid">55</property>
  <property name="kdenlive:original.meta.media.frame_rate_num">60000</property>
  <property name="kdenlive:original.meta.media.frame_rate_den">1001</property>
  <property name="kdenlive:original.meta.media.colorspace">709</property>
  <property name="kdenlive:original.meta.media.color_trc">2</property>
  <property name="kdenlive:original.meta.media.width">1920</property>
  <property name="kdenlive:original.meta.media.height">1080</property>
  <property name="kdenlive:original.meta.media.color_range">full</property>
  <property name="kdenlive:original.kdenlive:id">56</property>
  <property name="kdenlive:original.kdenlive:file_size">55946459</property>
  <property name="kdenlive:original.kdenlive:file_hash">215e61a2f32aa22723740ba4dea82087</property>
  <property name="kdenlive:original.backup">1</property>
  <property name="global_feed">1</property>
  <property name="meta.media.nb_streams">1</property>
  <property name="meta.media.0.stream.type">video</property>
  <property name="meta.media.0.stream.frame_rate">59.9401</property>
  <property name="meta.media.0.stream.sample_aspect_ratio">1</property>
  <property name="meta.media.0.codec.width">640</property>
  <property name="meta.media.0.codec.height">360</property>
  <property name="meta.media.0.codec.rotate">0</property>
  <property name="meta.media.0.codec.frame_rate">1000</property>
  <property name="meta.media.0.codec.pix_fmt">yuvj420p</property>
  <property name="meta.media.0.codec.sample_aspect_ratio">1</property>
  <property name="meta.media.0.codec.colorspace">601</property>
  <property name="meta.media.0.codec.name">mjpeg</property>
  <property name="meta.media.0.codec.long_name">MJPEG (Motion JPEG)</property>
  <property name="meta.media.0.codec.bit_rate">0</property>
  <property name="meta.attr.0.stream.HANDLER_NAME.markup">VideoHandler</property>
  <property name="meta.attr.0.stream.ENCODER.markup">Lavc58.91.100 mjpeg</property>
  <property name="meta.attr.0.stream.DURATION.markup">00:02:25.012000000</property>
  <property name="meta.attr.COMPATIBLE_BRANDS.markup">isomiso2avc1mp41</property>
  <property name="meta.attr.MAJOR_BRAND.markup">isom</property>
  <property name="meta.attr.MINOR_VERSION.markup">512</property>
  <property name="meta.attr.ENCODER.markup">Lavf58.45.100</property>
  <property name="meta.media.sample_aspect_num">1</property>
  <property name="meta.media.sample_aspect_den">1</property>
  <property name="meta.media.frame_rate_num">19001</property>
  <property name="meta.media.frame_rate_den">317</property>
  <property name="meta.media.colorspace">601</property>
  <property name="meta.media.color_trc">2</property>
  <property name="meta.media.width">640</property>
  <property name="meta.media.height">360</property>
  <property name="meta.media.color_range">full</property>
  <property name="meta.media.top_field_first">0</property>
  <property name="meta.media.progressive">1</property>
 </producer>
 <producer id="producer18" in="00:00:00.000" out="00:01:59.800">
  <property name="length">3595</property>
  <property name="eof">pause</property>
  <property name="resource">0xffffffff</property>
  <property name="aspect_ratio">1</property>
  <property name="mlt_service">color</property>
  <property name="kdenlive:clipname">Color Clip</property>
  <property name="kdenlive:duration">00:00:05.000</property>
  <property name="kdenlive:folderid">55</property>
  <property name="kdenlive:id">47</property>
  <property name="mlt_image_format">rgb24</property>
  <property name="kdenlive:file_hash">039b56a692cd66eefeea44a17539e5a2</property>
 </producer>
 <producer id="producer44" in="00:00:00.000" out="00:00:06.800">
  <property name="length">205</property>
  <property name="eof">pause</property>
  <property name="resource">/home/ryankelln/.cache/kdenlive/proxy/a96b92c1bace94bc3ed2462f08da2e88.mkv</property>
  <property name="audio_index">1</property>
  <property name="video_index">0</property>
  <property name="mute_on_pause">0</property>
  <property name="mlt_service">avformat-novalidate</property>
  <property name="seekable">1</property>
  <property name="aspect_ratio">1</property>
  <property name="kdenlive:clipname">Bird Flying - Free Stock Creative Commons Video-FrRXDYUatf4.mp4</property>
  <property name="kdenlive:folderid">55</property>
  <property name="kdenlive:id">48</property>
  <property name="kdenlive:file_size">1563626</property>
  <property name="kdenlive:file_hash">a96b92c1bace94bc3ed2462f08da2e88</property>
  <property name="kdenlive:proxy">/home/ryankelln/.cache/kdenlive/proxy/a96b92c1bace94bc3ed2462f08da2e88.mkv</property>
  <property name="kdenlive:originalurl">content/footage/Bird Flying - Free Stock Creative Commons Video-FrRXDYUatf4.mp4</property>
  <property name="kdenlive:original.mlt_type">producer</property>
  <property name="kdenlive:original.in">0</property>
  <property name="kdenlive:original.out">204</property>
  <property name="kdenlive:original.length">205</property>
  <property name="kdenlive:original.eof">pause</property>
  <property name="kdenlive:original.resource">content/footage/Bird Flying - Free Stock Creative Commons Video-FrRXDYUatf4.mp4</property>
  <property name="kdenlive:original.meta.media.nb_streams">2</property>
  <property name="kdenlive:original.meta.media.0.stream.type">video</property>
  <property name="kdenlive:original.meta.media.0.stream.frame_rate">60.233</property>
  <property name="kdenlive:original.meta.media.0.stream.sample_aspect_ratio">1</property>
  <property name="kdenlive:original.meta.media.0.codec.width">1920</property>
  <property name="kdenlive:original.meta.media.0.codec.height">1080</property>
  <property name="kdenlive:original.meta.media.0.codec.rotate">0</property>
  <property name="kdenlive:original.meta.media.0.codec.frame_rate">59.9401</property>
  <property name="kdenlive:original.meta.media.0.codec.pix_fmt">yuv420p</property>
  <property name="kdenlive:original.meta.media.0.codec.sample_aspect_ratio">1</property>
  <property name="kdenlive:original.meta.media.0.codec.colorspace">709</property>
  <property name="kdenlive:original.meta.media.0.codec.color_trc">1</property>
  <property name="kdenlive:original.meta.media.0.codec.name">h264</property>
  <property name="kdenlive:original.meta.media.0.codec.long_name">H.264 / AVC / MPEG-4 AVC / MPEG-4 part 10</property>
  <property name="kdenlive:original.meta.media.0.codec.bit_rate">1702801</property>
  <property name="kdenlive:original.meta.attr.0.stream.handler_name.markup">ISO Media file produced by Google Inc. Created on: 05/11/2021.</property>
  <property name="kdenlive:original.meta.media.1.stream.type">audio</property>
  <property name="kdenlive:original.meta.media.1.codec.sample_fmt">fltp</property>
  <property name="kdenlive:original.meta.media.1.codec.sample_rate">44100</property>
  <property name="kdenlive:original.meta.media.1.codec.channels">2</property>
  <property name="kdenlive:original.meta.media.1.codec.name">aac</property>
  <property name="kdenlive:original.meta.media.1.codec.long_name">AAC (Advanced Audio Coding)</property>
  <property name="kdenlive:original.meta.media.1.codec.bit_rate">127999</property>
  <property name="kdenlive:original.meta.attr.1.stream.handler_name.markup">ISO Media file produced by Google Inc. Created on: 11/30/2018.</property>
  <property name="kdenlive:original.meta.attr.major_brand.markup">isom</property>
  <property name="kdenlive:original.meta.attr.minor_version.markup">512</property>
  <property name="kdenlive:original.meta.attr.compatible_brands.markup">isomiso2avc1mp41</property>
  <property name="kdenlive:original.meta.attr.encoder.markup">Lavf58.45.100</property>
  <property name="kdenlive:original.seekable">1</property>
  <property name="kdenlive:original.width">1920</property>
  <property name="kdenlive:original.height">1080</property>
  <property name="kdenlive:original.meta.media.sample_aspect_num">1</property>
  <property name="kdenlive:original.meta.media.sample_aspect_den">1</property>
  <property name="kdenlive:original.aspect_ratio">1</property>
  <property name="kdenlive:original.audio_index">1</property>
  <property name="kdenlive:original.video_index">0</property>
  <property name="kdenlive:original.mute_on_pause">0</property>
  <property name="kdenlive:original.mlt_service">avformat-novalidate</property>
  <property name="kdenlive:original.kdenlive:folderid">55</property>
  <property name="kdenlive:original.meta.media.frame_rate_num">1360000</property>
  <property name="kdenlive:original.meta.media.frame_rate_den">22579</property>
  <property name="kdenlive:original.meta.media.colorspace">709</property>
  <property name="kdenlive:original.meta.media.color_trc">1</property>
  <property name="kdenlive:original.meta.media.width">1920</property>
  <property name="kdenlive:original.meta.media.height">1080</property>
  <property name="kdenlive:original.meta.media.color_range">mpeg</property>
  <property name="kdenlive:original.kdenlive:id">58</property>
  <property name="kdenlive:original.kdenlive:file_size">1563626</property>
  <property name="kdenlive:original.kdenlive:file_hash">a96b92c1bace94bc3ed2462f08da2e88</property>
  <property name="kdenlive:original.backup">1</property>
  <property name="global_feed">1</property>
  <property name="meta.media.nb_streams">2</property>
  <property name="meta.media.0.stream.type">video</property>
  <property name="meta.media.0.stream.frame_rate">59.9401</property>
  <property name="meta.media.0.stream.sample_aspect_ratio">1</property>
  <property name="meta.media.0.codec.width">640</property>
  <property name="meta.media.0.codec.height">360</property>
  <property name="meta.media.0.codec.rotate">0</property>
  <property name="meta.media.0.codec.frame_rate">1000</property>
  <property name="meta.media.0.codec.pix_fmt">yuvj420p</property>
  <property name="meta.media.0.codec.sample_aspect_ratio">1</property>
  <property name="meta.media.0.codec.colorspace">601</property>
  <property name="meta.media.0.codec.name">mjpeg</property>
  <property name="meta.media.0.codec.long_name">MJPEG (Motion JPEG)</property>
  <property name="meta.media.0.codec.bit_rate">0</property>
  <property name="meta.attr.0.stream.HANDLER_NAME.markup">ISO Media file produced by Google Inc. Created on: 05/11/2021.</property>
  <property name="meta.attr.0.stream.ENCODER.markup">Lavc58.91.100 mjpeg</property>
  <property name="meta.attr.0.stream.DURATION.markup">00:00:06.790000000</property>
  <property name="meta.media.1.stream.type">audio</property>
  <property name="meta.media.1.codec.sample_fmt">s16</property>
  <property name="meta.media.1.codec.sample_rate">44100</property>
  <property name="meta.media.1.codec.channels">2</property>
  <property name="meta.media.1.codec.name">pcm_s16le</property>
  <property name="meta.media.1.codec.long_name">PCM signed 16-bit little-endian</property>
  <property name="meta.media.1.codec.bit_rate">1411200</property>
  <property name="meta.attr.1.stream.HANDLER_NAME.markup">ISO Media file produced by Google Inc. Created on: 11/30/2018.</property>
  <property name="meta.attr.1.stream.ENCODER.markup">Lavc58.91.100 pcm_s16le</property>
  <property name="meta.attr.1.stream.DURATION.markup">00:00:06.826000000</property>
  <property name="meta.attr.COMPATIBLE_BRANDS.markup">isomiso2avc1mp41</property>
  <property name="meta.attr.MAJOR_BRAND.markup">isom</property>
  <property name="meta.attr.MINOR_VERSION.markup">512</property>
  <property name="meta.attr.ENCODER.markup">Lavf58.45.100</property>
  <property name="meta.media.sample_aspect_num">1</property>
  <property name="meta.media.sample_aspect_den">1</property>
  <property name="meta.media.frame_rate_num">19001</property>
  <property name="meta.media.frame_rate_den">317</property>
  <property name="meta.media.colorspace">601</property>
  <property name="meta.media.color_trc">2</property>
  <property name="meta.media.width">640</property>
  <property name="meta.media.height">360</property>
  <property name="meta.media.color_range">full</property>
  <property name="meta.media.top_field_first">0</property>
  <property name="meta.media.progressive">1</property>
  <property name="kdenlive:active_streams">-1</property>
 </producer>
 <producer id="producer45" in="00:00:00.000" out="00:00:07.833">
  <property name="length">236</property>
  <property name="eof">pause</property>
  <property name="resource">/home/ryankelln/.cache/kdenlive/proxy/5203107a34ef2012072d70e80d74c459.mkv</property>
  <property name="audio_index">1</property>
  <property name="video_index">0</property>
  <property name="mute_on_pause">0</property>
  <property name="mlt_service">avformat-novalidate</property>
  <property name="seekable">1</property>
  <property name="aspect_ratio">1</property>
  <property name="kdenlive:clipname">gull flying slow mo bird and sky-dfA3UASzwS0.mp4</property>
  <property name="kdenlive:folderid">55</property>
  <property name="kdenlive:id">49</property>
  <property name="kdenlive:file_size">1158331</property>
  <property name="kdenlive:file_hash">5203107a34ef2012072d70e80d74c459</property>
  <property name="kdenlive:proxy">/home/ryankelln/.cache/kdenlive/proxy/5203107a34ef2012072d70e80d74c459.mkv</property>
  <property name="kdenlive:originalurl">content/footage/gull flying slow mo bird and sky-dfA3UASzwS0.mp4</property>
  <property name="kdenlive:original.mlt_type">producer</property>
  <property name="kdenlive:original.in">0</property>
  <property name="kdenlive:original.out">235</property>
  <property name="kdenlive:original.length">236</property>
  <property name="kdenlive:original.eof">pause</property>
  <property name="kdenlive:original.resource">content/footage/gull flying slow mo bird and sky-dfA3UASzwS0.mp4</property>
  <property name="kdenlive:original.meta.media.nb_streams">2</property>
  <property name="kdenlive:original.meta.media.0.stream.type">video</property>
  <property name="kdenlive:original.meta.media.0.stream.frame_rate">30.0968</property>
  <property name="kdenlive:original.meta.media.0.stream.sample_aspect_ratio">1</property>
  <property name="kdenlive:original.meta.media.0.codec.width">1920</property>
  <property name="kdenlive:original.meta.media.0.codec.height">1080</property>
  <property name="kdenlive:original.meta.media.0.codec.rotate">0</property>
  <property name="kdenlive:original.meta.media.0.codec.frame_rate">29.97</property>
  <property name="kdenlive:original.meta.media.0.codec.pix_fmt">yuv420p</property>
  <property name="kdenlive:original.meta.media.0.codec.sample_aspect_ratio">1</property>
  <property name="kdenlive:original.meta.media.0.codec.colorspace">709</property>
  <property name="kdenlive:original.meta.media.0.codec.color_trc">1</property>
  <property name="kdenlive:original.meta.media.0.codec.name">h264</property>
  <property name="kdenlive:original.meta.media.0.codec.long_name">H.264 / AVC / MPEG-4 AVC / MPEG-4 part 10</property>
  <property name="kdenlive:original.meta.media.0.codec.bit_rate">1049438</property>
  <property name="kdenlive:original.meta.attr.0.stream.handler_name.markup">ISO Media file produced by Google Inc. Created on: 05/22/2021.</property>
  <property name="kdenlive:original.meta.media.1.stream.type">audio</property>
  <property name="kdenlive:original.meta.media.1.codec.sample_fmt">fltp</property>
  <property name="kdenlive:original.meta.media.1.codec.sample_rate">44100</property>
  <property name="kdenlive:original.meta.media.1.codec.channels">2</property>
  <property name="kdenlive:original.meta.media.1.codec.name">aac</property>
  <property name="kdenlive:original.meta.media.1.codec.long_name">AAC (Advanced Audio Coding)</property>
  <property name="kdenlive:original.meta.media.1.codec.bit_rate">127999</property>
  <property name="kdenlive:original.meta.attr.1.stream.handler_name.markup">ISO Media file produced by Google Inc.</property>
  <property name="kdenlive:original.meta.attr.major_brand.markup">isom</property>
  <property name="kdenlive:original.meta.attr.minor_version.markup">512</property>
  <property name="kdenlive:original.meta.attr.compatible_brands.markup">isomiso2avc1mp41</property>
  <property name="kdenlive:original.meta.attr.encoder.markup">Lavf58.45.100</property>
  <property name="kdenlive:original.seekable">1</property>
  <property name="kdenlive:original.width">1920</property>
  <property name="kdenlive:original.height">1080</property>
  <property name="kdenlive:original.meta.media.sample_aspect_num">1</property>
  <property name="kdenlive:original.meta.media.sample_aspect_den">1</property>
  <property name="kdenlive:original.aspect_ratio">1</property>
  <property name="kdenlive:original.audio_index">1</property>
  <property name="kdenlive:original.video_index">0</property>
  <property name="kdenlive:original.mute_on_pause">0</property>
  <property name="kdenlive:original.mlt_service">avformat-novalidate</property>
  <property name="kdenlive:original.kdenlive:folderid">55</property>
  <property name="kdenlive:original.meta.media.frame_rate_num">1762500</property>
  <property name="kdenlive:original.meta.media.frame_rate_den">58561</property>
  <property name="kdenlive:original.meta.media.colorspace">709</property>
  <property name="kdenlive:original.meta.media.color_trc">1</property>
  <property name="kdenlive:original.meta.media.width">1920</property>
  <property name="kdenlive:original.meta.media.height">1080</property>
  <property name="kdenlive:original.meta.media.color_range">mpeg</property>
  <property name="kdenlive:original.kdenlive:id">59</property>
  <property name="kdenlive:original.kdenlive:file_size">1158331</property>
  <property name="kdenlive:original.kdenlive:file_hash">5203107a34ef2012072d70e80d74c459</property>
  <property name="kdenlive:original.backup">1</property>
  <property name="global_feed">1</property>
  <property name="meta.media.nb_streams">2</property>
  <property name="meta.media.0.stream.type">video</property>
  <property name="meta.media.0.stream.frame_rate">29.97</property>
  <property name="meta.media.0.stream.sample_aspect_ratio">1</property>
  <property name="meta.media.0.codec.width">640</property>
  <property name="meta.media.0.codec.height">360</property>
  <property name="meta.media.0.codec.rotate">0</property>
  <property name="meta.media.0.codec.frame_rate">1000</property>
  <property name="meta.media.0.codec.pix_fmt">yuvj420p</property>
  <property name="meta.media.0.codec.sample_aspect_ratio">1</property>
  <property name="meta.media.0.codec.colorspace">601</property>
  <property name="meta.media.0.codec.name">mjpeg</property>
  <property name="meta.media.0.codec.long_name">MJPEG (Motion JPEG)</property>
  <property name="meta.media.0.codec.bit_rate">0</property>
  <property name="meta.attr.0.stream.HANDLER_NAME.markup">ISO Media file produced by Google Inc. Created on: 05/22/2021.</property>
  <property name="meta.attr.0.stream.ENCODER.markup">Lavc58.91.100 mjpeg</property>
  <property name="meta.attr.0.stream.DURATION.markup">00:00:07.841000000</property>
  <property name="meta.media.1.stream.type">audio</property>
  <property name="meta.media.1.codec.sample_fmt">s16</property>
  <property name="meta.media.1.codec.sample_rate">44100</property>
  <property name="meta.media.1.codec.channels">2</property>
  <property name="meta.media.1.codec.name">pcm_s16le</property>
  <property name="meta.media.1.codec.long_name">PCM signed 16-bit little-endian</property>
  <property name="meta.media.1.codec.bit_rate">1411200</property>
  <property name="meta.attr.1.stream.HANDLER_NAME.markup">ISO Media file produced by Google Inc.</property>
  <property name="meta.attr.1.stream.ENCODER.markup">Lavc58.91.100 pcm_s16le</property>
  <property name="meta.attr.1.stream.DURATION.markup">00:00:07.871000000</property>
  <property name="meta.attr.COMPATIBLE_BRANDS.markup">isomiso2avc1mp41</property>
  <property name="meta.attr.MAJOR_BRAND.markup">isom</property>
  <property name="meta.attr.MINOR_VERSION.markup">512</property>
  <property name="meta.attr.ENCODER.markup">Lavf58.45.100</property>
  <property name="meta.media.sample_aspect_num">1</property>
  <property name="meta.media.sample_aspect_den">1</property>
  <property name="meta.media.frame_rate_num">30000</property>
  <property name="meta.media.frame_rate_den">1001</property>
  <property name="meta.media.colorspace">601</property>
  <property name="meta.media.color_trc">2</property>
  <property name="meta.media.width">640</property>
  <property name="meta.media.height">360</property>
  <property name="meta.media.color_range">full</property>
  <property name="meta.media.top_field_first">0</property>
  <property name="meta.media.progressive">1</property>
 </producer>
 <producer id="producer46" in="00:00:00.000" out="00:00:36.867">
  <property name="length">1109</property>
  <property name="eof">pause</property>
  <property name="resource">/home/ryankelln/.cache/kdenlive/proxy/b2be9f3e4ba5a4ff8901ca563d188491.mkv</property>
  <property name="audio_index">-1</property>
  <property name="video_index">0</property>
  <property name="mute_on_pause">0</property>
  <property name="mlt_service">avformat-novalidate</property>
  <property name="seekable">1</property>
  <property name="aspect_ratio">1</property>
  <property name="kdenlive:clipname">SeagullsCloseMaster_h264.mp4</property>
  <property name="kdenlive:folderid">55</property>
  <property name="kdenlive:id">50</property>
  <property name="kdenlive:file_size">49278582</property>
  <property name="kdenlive:file_hash">b2be9f3e4ba5a4ff8901ca563d188491</property>
  <property name="kdenlive:proxy">/home/ryankelln/.cache/kdenlive/proxy/b2be9f3e4ba5a4ff8901ca563d188491.mkv</property>
  <property name="kdenlive:originalurl">content/footage/SeagullsCloseMaster_h264.mp4</property>
  <property name="kdenlive:original.mlt_type">producer</property>
  <property name="kdenlive:original.in">0</property>
  <property name="kdenlive:original.out">1108</property>
  <property name="kdenlive:original.length">1109</property>
  <property name="kdenlive:original.eof">pause</property>
  <property name="kdenlive:original.resource">content/footage/SeagullsCloseMaster_h264.mp4</property>
  <property name="kdenlive:original.meta.media.nb_streams">1</property>
  <property name="kdenlive:original.meta.media.0.stream.type">video</property>
  <property name="kdenlive:original.meta.media.0.stream.frame_rate">23.976</property>
  <property name="kdenlive:original.meta.media.0.stream.sample_aspect_ratio">0</property>
  <property name="kdenlive:original.meta.media.0.codec.width">1920</property>
  <property name="kdenlive:original.meta.media.0.codec.height">1080</property>
  <property name="kdenlive:original.meta.media.0.codec.rotate">0</property>
  <property name="kdenlive:original.meta.media.0.codec.frame_rate">23.976</property>
  <property name="kdenlive:original.meta.media.0.codec.pix_fmt">yuv420p</property>
  <property name="kdenlive:original.meta.media.0.codec.sample_aspect_ratio">1</property>
  <property name="kdenlive:original.meta.media.0.codec.colorspace">709</property>
  <property name="kdenlive:original.meta.media.0.codec.name">h264</property>
  <property name="kdenlive:original.meta.media.0.codec.long_name">H.264 / AVC / MPEG-4 AVC / MPEG-4 part 10</property>
  <property name="kdenlive:original.meta.media.0.codec.bit_rate">10664727</property>
  <property name="kdenlive:original.meta.attr.0.stream.creation_time.markup">2013-11-30T22:42:06.000000Z</property>
  <property name="kdenlive:original.meta.attr.0.stream.language.markup">eng</property>
  <property name="kdenlive:original.meta.attr.0.stream.handler_name.markup">Mainconcept MP4 Video Media Handler</property>
  <property name="kdenlive:original.meta.attr.0.stream.encoder.markup">AVC Coding</property>
  <property name="kdenlive:original.meta.attr.major_brand.markup">mp42</property>
  <property name="kdenlive:original.meta.attr.minor_version.markup">0</property>
  <property name="kdenlive:original.meta.attr.compatible_brands.markup">mp42mp41</property>
  <property name="kdenlive:original.meta.attr.creation_time.markup">2013-11-30T22:42:06.000000Z</property>
  <property name="kdenlive:original.seekable">1</property>
  <property name="kdenlive:original.width">1920</property>
  <property name="kdenlive:original.height">1080</property>
  <property name="kdenlive:original.meta.media.sample_aspect_num">1</property>
  <property name="kdenlive:original.meta.media.sample_aspect_den">1</property>
  <property name="kdenlive:original.aspect_ratio">1</property>
  <property name="kdenlive:original.audio_index">-1</property>
  <property name="kdenlive:original.video_index">0</property>
  <property name="kdenlive:original.mute_on_pause">0</property>
  <property name="kdenlive:original.mlt_service">avformat-novalidate</property>
  <property name="kdenlive:original.kdenlive:folderid">55</property>
  <property name="kdenlive:original.meta.media.frame_rate_num">2997</property>
  <property name="kdenlive:original.meta.media.frame_rate_den">125</property>
  <property name="kdenlive:original.meta.media.colorspace">709</property>
  <property name="kdenlive:original.meta.media.color_trc">2</property>
  <property name="kdenlive:original.meta.media.width">1920</property>
  <property name="kdenlive:original.meta.media.height">1080</property>
  <property name="kdenlive:original.meta.media.color_range">mpeg</property>
  <property name="kdenlive:original.kdenlive:id">60</property>
  <property name="kdenlive:original.kdenlive:file_size">49278582</property>
  <property name="kdenlive:original.kdenlive:file_hash">b2be9f3e4ba5a4ff8901ca563d188491</property>
  <property name="kdenlive:original.backup">1</property>
  <property name="global_feed">1</property>
  <property name="meta.media.nb_streams">1</property>
  <property name="meta.media.0.stream.type">video</property>
  <property name="meta.media.0.stream.frame_rate">23.976</property>
  <property name="meta.media.0.stream.sample_aspect_ratio">1</property>
  <property name="meta.media.0.codec.width">640</property>
  <property name="meta.media.0.codec.height">360</property>
  <property name="meta.media.0.codec.rotate">0</property>
  <property name="meta.media.0.codec.frame_rate">1000</property>
  <property name="meta.media.0.codec.pix_fmt">yuvj420p</property>
  <property name="meta.media.0.codec.sample_aspect_ratio">1</property>
  <property name="meta.media.0.codec.colorspace">601</property>
  <property name="meta.media.0.codec.name">mjpeg</property>
  <property name="meta.media.0.codec.long_name">MJPEG (Motion JPEG)</property>
  <property name="meta.media.0.codec.bit_rate">0</property>
  <property name="meta.attr.0.stream.language.markup">eng</property>
  <property name="meta.attr.0.stream.HANDLER_NAME.markup">Mainconcept MP4 Video Media Handler</property>
  <property name="meta.attr.0.stream.ENCODER.markup">Lavc58.91.100 mjpeg</property>
  <property name="meta.attr.0.stream.DURATION.markup">00:00:36.912000000</property>
  <property name="meta.attr.COMPATIBLE_BRANDS.markup">mp42mp41</property>
  <property name="meta.attr.MAJOR_BRAND.markup">mp42</property>
  <property name="meta.attr.MINOR_VERSION.markup">0</property>
  <property name="meta.attr.ENCODER.markup">Lavf58.45.100</property>
  <property name="meta.media.sample_aspect_num">1</property>
  <property name="meta.media.sample_aspect_den">1</property>
  <property name="meta.media.frame_rate_num">2997</property>
  <property name="meta.media.frame_rate_den">125</property>
  <property name="meta.media.colorspace">601</property>
  <property name="meta.media.color_trc">2</property>
  <property name="meta.media.width">640</property>
  <property name="meta.media.height">360</property>
  <property name="meta.media.color_range">full</property>
  <property name="meta.media.top_field_first">0</property>
  <property name="meta.media.progressive">1</property>
 </producer>
 <producer id="producer47" in="00:00:00.000" out="00:00:26.500">
  <property name="length">797</property>
  <property name="eof">pause</property>
  <property name="resource">/home/ryankelln/.cache/kdenlive/proxy/bd6d2acdd39281a8b6041bdcfa9be12d.mkv</property>
  <property name="audio_index">-1</property>
  <property name="video_index">0</property>
  <property name="mute_on_pause">0</property>
  <property name="mlt_service">avformat-novalidate</property>
  <property name="seekable">1</property>
  <property name="aspect_ratio">1</property>
  <property name="kdenlive:clipname">SeagullsMediumAltMaster_h264.mp4</property>
  <property name="kdenlive:folderid">55</property>
  <property name="kdenlive:id">51</property>
  <property name="kdenlive:file_size">41486959</property>
  <property name="kdenlive:file_hash">bd6d2acdd39281a8b6041bdcfa9be12d</property>
  <property name="kdenlive:proxy">/home/ryankelln/.cache/kdenlive/proxy/bd6d2acdd39281a8b6041bdcfa9be12d.mkv</property>
  <property name="kdenlive:originalurl">content/footage/SeagullsMediumAltMaster_h264.mp4</property>
  <property name="kdenlive:original.mlt_type">producer</property>
  <property name="kdenlive:original.in">0</property>
  <property name="kdenlive:original.out">796</property>
  <property name="kdenlive:original.length">797</property>
  <property name="kdenlive:original.eof">pause</property>
  <property name="kdenlive:original.resource">content/footage/SeagullsMediumAltMaster_h264.mp4</property>
  <property name="kdenlive:original.meta.media.nb_streams">1</property>
  <property name="kdenlive:original.meta.media.0.stream.type">video</property>
  <property name="kdenlive:original.meta.media.0.stream.frame_rate">23.976</property>
  <property name="kdenlive:original.meta.media.0.stream.sample_aspect_ratio">0</property>
  <property name="kdenlive:original.meta.media.0.codec.width">1920</property>
  <property name="kdenlive:original.meta.media.0.codec.height">1080</property>
  <property name="kdenlive:original.meta.media.0.codec.rotate">0</property>
  <property name="kdenlive:original.meta.media.0.codec.frame_rate">23.976</property>
  <property name="kdenlive:original.meta.media.0.codec.pix_fmt">yuv420p</property>
  <property name="kdenlive:original.meta.media.0.codec.sample_aspect_ratio">1</property>
  <property name="kdenlive:original.meta.media.0.codec.colorspace">709</property>
  <property name="kdenlive:original.meta.media.0.codec.name">h264</property>
  <property name="kdenlive:original.meta.media.0.codec.long_name">H.264 / AVC / MPEG-4 AVC / MPEG-4 part 10</property>
  <property name="kdenlive:original.meta.media.0.codec.bit_rate">12488061</property>
  <property name="kdenlive:original.meta.attr.0.stream.creation_time.markup">2013-11-30T22:43:00.000000Z</property>
  <property name="kdenlive:original.meta.attr.0.stream.language.markup">eng</property>
  <property name="kdenlive:original.meta.attr.0.stream.handler_name.markup">Mainconcept MP4 Video Media Handler</property>
  <property name="kdenlive:original.meta.attr.0.stream.encoder.markup">AVC Coding</property>
  <property name="kdenlive:original.meta.attr.major_brand.markup">mp42</property>
  <property name="kdenlive:original.meta.attr.minor_version.markup">0</property>
  <property name="kdenlive:original.meta.attr.compatible_brands.markup">mp42mp41</property>
  <property name="kdenlive:original.meta.attr.creation_time.markup">2013-11-30T22:43:00.000000Z</property>
  <property name="kdenlive:original.seekable">1</property>
  <property name="kdenlive:original.width">1920</property>
  <property name="kdenlive:original.height">1080</property>
  <property name="kdenlive:original.meta.media.sample_aspect_num">1</property>
  <property name="kdenlive:original.meta.media.sample_aspect_den">1</property>
  <property name="kdenlive:original.aspect_ratio">1</property>
  <property name="kdenlive:original.audio_index">-1</property>
  <property name="kdenlive:original.video_index">0</property>
  <property name="kdenlive:original.mute_on_pause">0</property>
  <property name="kdenlive:original.mlt_service">avformat-novalidate</property>
  <property name="kdenlive:original.kdenlive:folderid">55</property>
  <property name="kdenlive:original.meta.media.frame_rate_num">2997</property>
  <property name="kdenlive:original.meta.media.frame_rate_den">125</property>
  <property name="kdenlive:original.meta.media.colorspace">709</property>
  <property name="kdenlive:original.meta.media.color_trc">2</property>
  <property name="kdenlive:original.meta.media.width">1920</property>
  <property name="kdenlive:original.meta.media.height">1080</property>
  <property name="kdenlive:original.meta.media.color_range">mpeg</property>
  <property name="kdenlive:original.kdenlive:id">61</property>
  <property name="kdenlive:original.kdenlive:file_size">41486959</property>
  <property name="kdenlive:original.kdenlive:file_hash">bd6d2acdd39281a8b6041bdcfa9be12d</property>
  <property name="kdenlive:original.backup">1</property>
  <property name="global_feed">1</property>
  <property name="meta.media.nb_streams">1</property>
  <property name="meta.media.0.stream.type">video</property>
  <property name="meta.media.0.stream.frame_rate">23.976</property>
  <property name="meta.media.0.stream.sample_aspect_ratio">1</property>
  <property name="meta.media.0.codec.width">640</property>
  <property name="meta.media.0.codec.height">360</property>
  <property name="meta.media.0.codec.rotate">0</property>
  <property name="meta.media.0.codec.frame_rate">1000</property>
  <property name="meta.media.0.codec.pix_fmt">yuvj420p</property>
  <property name="meta.media.0.codec.sample_aspect_ratio">1</property>
  <property name="meta.media.0.codec.colorspace">601</property>
  <property name="meta.media.0.codec.name">mjpeg</property>
  <property name="meta.media.0.codec.long_name">MJPEG (Motion JPEG)</property>
  <property name="meta.media.0.codec.bit_rate">0</property>
  <property name="meta.attr.0.stream.language.markup">eng</property>
  <property name="meta.attr.0.stream.HANDLER_NAME.markup">Mainconcept MP4 Video Media Handler</property>
  <property name="meta.attr.0.stream.ENCODER.markup">Lavc58.91.100 mjpeg</property>
  <property name="meta.attr.0.stream.DURATION.markup">00:00:26.527000000</property>
  <property name="meta.attr.COMPATIBLE_BRANDS.markup">mp42mp41</property>
  <property name="meta.attr.MAJOR_BRAND.markup">mp42</property>
  <property name="meta.attr.MINOR_VERSION.markup">0</property>
  <property name="meta.attr.ENCODER.markup">Lavf58.45.100</property>
  <property name="meta.media.sample_aspect_num">1</property>
  <property name="meta.media.sample_aspect_den">1</property>
  <property name="meta.media.frame_rate_num">2997</property>
  <property name="meta.media.frame_rate_den">125</property>
  <property name="meta.media.colorspace">601</property>
  <property name="meta.media.color_trc">2</property>
  <property name="meta.media.width">640</property>
  <property name="meta.media.height">360</property>
  <property name="meta.media.color_range">full</property>
  <property name="meta.media.top_field_first">0</property>
  <property name="meta.media.progressive">1</property>
 </producer>
 <producer id="producer48" in="00:00:00.000" out="00:05:19.200">
  <property name="length">9577</property>
  <property name="eof">pause</property>
  <property name="resource">content/footage/Mandarin duck - Mandarijneend - Aix galericulata-49589113.mp4</property>
  <property name="audio_index">1</property>
  <property name="video_index">0</property>
  <property name="mute_on_pause">0</property>
  <property name="mlt_service">avformat-novalidate</property>
  <property name="meta.media.nb_streams">2</property>
  <property name="meta.media.0.stream.type">video</property>
  <property name="meta.media.0.stream.frame_rate">29.97</property>
  <property name="meta.media.0.stream.sample_aspect_ratio">1</property>
  <property name="meta.media.0.codec.width">640</property>
  <property name="meta.media.0.codec.height">480</property>
  <property name="meta.media.0.codec.rotate">0</property>
  <property name="meta.media.0.codec.frame_rate">29.97</property>
  <property name="meta.media.0.codec.pix_fmt">yuv420p</property>
  <property name="meta.media.0.codec.sample_aspect_ratio">1</property>
  <property name="meta.media.0.codec.colorspace">601</property>
  <property name="meta.media.0.codec.name">h264</property>
  <property name="meta.media.0.codec.long_name">H.264 / AVC / MPEG-4 AVC / MPEG-4 part 10</property>
  <property name="meta.media.0.codec.bit_rate">749377</property>
  <property name="meta.attr.0.stream.handler_name.markup">VideoHandler</property>
  <property name="meta.media.1.stream.type">audio</property>
  <property name="meta.media.1.codec.sample_fmt">fltp</property>
  <property name="meta.media.1.codec.sample_rate">44100</property>
  <property name="meta.media.1.codec.channels">2</property>
  <property name="meta.media.1.codec.name">aac</property>
  <property name="meta.media.1.codec.long_name">AAC (Advanced Audio Coding)</property>
  <property name="meta.media.1.codec.bit_rate">111023</property>
  <property name="meta.attr.1.stream.handler_name.markup">SoundHandler</property>
  <property name="meta.attr.major_brand.markup">isom</property>
  <property name="meta.attr.minor_version.markup">512</property>
  <property name="meta.attr.compatible_brands.markup">isomiso2avc1mp41</property>
  <property name="meta.attr.encoder.markup">Lavf58.45.100</property>
  <property name="seekable">1</property>
  <property name="meta.media.sample_aspect_num">1</property>
  <property name="meta.media.sample_aspect_den">1</property>
  <property name="aspect_ratio">1</property>
  <property name="kdenlive:clipname"/>
  <property name="kdenlive:folderid">55</property>
  <property name="meta.media.frame_rate_num">30000</property>
  <property name="meta.media.frame_rate_den">1001</property>
  <property name="meta.media.colorspace">601</property>
  <property name="meta.media.color_trc">2</property>
  <property name="meta.media.width">640</property>
  <property name="meta.media.height">480</property>
  <property name="meta.media.color_range">mpeg</property>
  <property name="kdenlive:id">52</property>
  <property name="kdenlive:file_size">34652899</property>
  <property name="kdenlive:file_hash">d9bf49cb03d10452db376ae93647fe62</property>
  <property name="kdenlive:audio_max">11</property>
  <property name="meta.media.top_field_first">0</property>
  <property name="meta.media.progressive">1</property>
  <property name="kdenlive:zone_in">4324</property>
  <property name="kdenlive:zone_out">4569</property>
  <property name="kdenlive:clipzones">[
    {
        "in": 3497,
        "name": "Peek",
        "out": 3632
    },
    {
        "in": 4050,
        "name": "double jump",
        "out": 4103
    },
    {
        "in": 4016,
        "name": "fall1",
        "out": 4049
    },
    {
        "in": 4109,
        "name": "im fine",
        "out": 4184
    },
    {
        "in": 4713,
        "name": "jump",
        "out": 4789
    },
    {
        "in": 4860,
        "name": "jump2",
        "out": 4918
    },
    {
        "in": 4941,
        "name": "double fall",
        "out": 5043
    },
    {
        "in": 4324,
        "name": "double",
        "out": 4569
    }
]
</property>
  <property name="global_feed">1</property>
  <property name="kdenlive:active_streams">-1</property>
  <property name="kdenlive:activeeffect">1</property>
  <filter id="filter3">
   <property name="rotate_center">1</property>
   <property name="mlt_service">qtblend</property>
   <property name="kdenlive_id">qtblend</property>
   <property name="rect">00:00:00.000=0 -180 1920 1440 1.000000</property>
   <property name="rotation">00:00:00.000=0</property>
   <property name="compositing">0</property>
   <property name="distort">1</property>
   <property name="kdenlive:collapsed">0</property>
  </filter>
  <filter id="filter4">
   <property name="mlt_service">avfilter.unsharp</property>
   <property name="kdenlive_id">avfilter.unsharp</property>
   <property name="av.lx">5</property>
   <property name="av.ly">5</property>
   <property name="av.la">1.717</property>
   <property name="av.cx">5</property>
   <property name="av.cy">5</property>
   <property name="av.ca">1.717</property>
   <property name="kdenlive:collapsed">0</property>
  </filter>
 </producer>
 <producer id="producer64" in="00:00:00.000" out="00:00:03.000">
  <property name="length">91</property>
  <property name="eof">pause</property>
  <property name="resource">content/ai/sing_with_own_throat.1006.mp4</property>
  <property name="audio_index">-1</property>
  <property name="video_index">0</property>
  <property name="mute_on_pause">0</property>
  <property name="mlt_service">avformat-novalidate</property>
  <property name="seekable">1</property>
  <property name="aspect_ratio">1</property>
  <property name="kdenlive:clipname">sing_with_own_throat.1006.mp4</property>
  <property name="kdenlive:folderid">71</property>
  <property name="kdenlive:id">53</property>
  <property name="kdenlive:file_size">1092742</property>
  <property name="global_feed">1</property>
  <property name="meta.media.nb_streams">1</property>
  <property name="meta.media.0.stream.type">video</property>
  <property name="meta.media.0.stream.frame_rate">30</property>
  <property name="meta.media.0.stream.sample_aspect_ratio">0</property>
  <property name="meta.media.0.codec.width">512</property>
  <property name="meta.media.0.codec.height">512</property>
  <property name="meta.media.0.codec.rotate">0</property>
  <property name="meta.media.0.codec.frame_rate">30</property>
  <property name="meta.media.0.codec.pix_fmt">yuv444p</property>
  <property name="meta.media.0.codec.sample_aspect_ratio">0</property>
  <property name="meta.media.0.codec.colorspace">601</property>
  <property name="meta.media.0.codec.name">h264</property>
  <property name="meta.media.0.codec.long_name">H.264 / AVC / MPEG-4 AVC / MPEG-4 part 10</property>
  <property name="meta.media.0.codec.bit_rate">2876974</property>
  <property name="meta.attr.0.stream.handler_name.markup">VideoHandler</property>
  <property name="meta.attr.major_brand.markup">isom</property>
  <property name="meta.attr.minor_version.markup">512</property>
  <property name="meta.attr.compatible_brands.markup">isomiso2avc1mp41</property>
  <property name="meta.attr.encoder.markup">Lavf58.76.100</property>
  <property name="meta.media.sample_aspect_num">1</property>
  <property name="meta.media.sample_aspect_den">1</property>
  <property name="meta.media.frame_rate_num">30</property>
  <property name="meta.media.frame_rate_den">1</property>
  <property name="meta.media.colorspace">601</property>
  <property name="meta.media.color_trc">2</property>
  <property name="meta.media.width">512</property>
  <property name="meta.media.height">512</property>
  <property name="meta.media.color_range">mpeg</property>
  <property name="kdenlive:file_hash">34d6260f940e2efb23a6b8ceb6ead484</property>
  <property name="meta.media.top_field_first">0</property>
  <property name="meta.media.progressive">1</property>
 </producer>
 <producer id="producer65" in="00:00:00.000" out="00:00:03.000">
  <property name="length">91</property>
  <property name="eof">pause</property>
  <property name="resource">content/ai/sing_with_own_throat.1012.mp4</property>
  <property name="audio_index">-1</property>
  <property name="video_index">0</property>
  <property name="mute_on_pause">0</property>
  <property name="mlt_service">avformat-novalidate</property>
  <property name="seekable">1</property>
  <property name="aspect_ratio">1</property>
  <property name="kdenlive:clipname">sing_with_own_throat.1012.mp4</property>
  <property name="kdenlive:folderid">71</property>
  <property name="kdenlive:id">54</property>
  <property name="kdenlive:file_size">1529707</property>
  <property name="global_feed">1</property>
  <property name="meta.media.nb_streams">1</property>
  <property name="meta.media.0.stream.type">video</property>
  <property name="meta.media.0.stream.frame_rate">30</property>
  <property name="meta.media.0.stream.sample_aspect_ratio">0</property>
  <property name="meta.media.0.codec.width">512</property>
  <property name="meta.media.0.codec.height">512</property>
  <property name="meta.media.0.codec.rotate">0</property>
  <property name="meta.media.0.codec.frame_rate">30</property>
  <property name="meta.media.0.codec.pix_fmt">yuv444p</property>
  <property name="meta.media.0.codec.sample_aspect_ratio">0</property>
  <property name="meta.media.0.codec.colorspace">601</property>
  <property name="meta.media.0.codec.name">h264</property>
  <property name="meta.media.0.codec.long_name">H.264 / AVC / MPEG-4 AVC / MPEG-4 part 10</property>
  <property name="meta.media.0.codec.bit_rate">4029431</property>
  <property name="meta.attr.0.stream.handler_name.markup">VideoHandler</property>
  <property name="meta.attr.major_brand.markup">isom</property>
  <property name="meta.attr.minor_version.markup">512</property>
  <property name="meta.attr.compatible_brands.markup">isomiso2avc1mp41</property>
  <property name="meta.attr.encoder.markup">Lavf58.76.100</property>
  <property name="meta.media.sample_aspect_num">1</property>
  <property name="meta.media.sample_aspect_den">1</property>
  <property name="meta.media.frame_rate_num">30</property>
  <property name="meta.media.frame_rate_den">1</property>
  <property name="meta.media.colorspace">601</property>
  <property name="meta.media.color_trc">2</property>
  <property name="meta.media.width">512</property>
  <property name="meta.media.height">512</property>
  <property name="meta.media.color_range">mpeg</property>
  <property name="kdenlive:file_hash">65c18a7f5a642b668e932e35634a460a</property>
  <property name="meta.media.top_field_first">0</property>
  <property name="meta.media.progressive">1</property>
 </producer>
 <producer id="producer49" in="00:00:00.000" out="00:00:04.967">
  <property name="length">00:00:05.000</property>
  <property name="eof">pause</property>
  <property name="resource">content/ai/Each_bird_must_sing_with_his_own_throat_--_artstation1006.best.png</property>
  <property name="ttl">25</property>
  <property name="aspect_ratio">1</property>
  <property name="progressive">1</property>
  <property name="seekable">1</property>
  <property name="meta.media.width">512</property>
  <property name="meta.media.height">512</property>
  <property name="mlt_service">qimage</property>
  <property name="kdenlive:clipname"/>
  <property name="kdenlive:duration">00:00:05.000</property>
  <property name="kdenlive:folderid">71</property>
  <property name="kdenlive:id">56</property>
  <property name="kdenlive:file_size">331578</property>
  <property name="kdenlive:file_hash">c7ac5f4da27fb9f2604f6ea3e1ecceff</property>
 </producer>
 <producer id="producer50" in="00:00:00.000" out="00:00:04.967">
  <property name="length">00:00:05.000</property>
  <property name="eof">pause</property>
  <property name="resource">content/ai/jackson_bird_brained-f006436.png</property>
  <property name="ttl">25</property>
  <property name="aspect_ratio">1</property>
  <property name="progressive">1</property>
  <property name="seekable">1</property>
  <property name="meta.media.width">1920</property>
  <property name="meta.media.height">1080</property>
  <property name="mlt_service">qimage</property>
  <property name="kdenlive:clipname"/>
  <property name="kdenlive:duration">00:00:05.000</property>
  <property name="kdenlive:folderid">71</property>
  <property name="kdenlive:id">57</property>
  <property name="kdenlive:file_size">1973769</property>
  <property name="kdenlive:file_hash">4fdd9ba153495e2dd0ccca1e49d8e3b3</property>
  <property name="global_feed">1</property>
 </producer>
 <producer id="producer51" in="00:00:00.000" out="00:00:06.133">
  <property name="length">185</property>
  <property name="eof">pause</property>
  <property name="resource">content/ai/jackson_bird_brained-f006615.png</property>
  <property name="ttl">25</property>
  <property name="aspect_ratio">1</property>
  <property name="progressive">1</property>
  <property name="seekable">1</property>
  <property name="meta.media.width">1920</property>
  <property name="meta.media.height">1080</property>
  <property name="mlt_service">qimage</property>
  <property name="kdenlive:clipname"/>
  <property name="kdenlive:duration">00:00:05.000</property>
  <property name="kdenlive:folderid">71</property>
  <property name="kdenlive:id">58</property>
  <property name="kdenlive:file_size">2223567</property>
  <property name="kdenlive:file_hash">cade499e04f722105274de5ea4bb54ec</property>
  <property name="global_feed">1</property>
 </producer>
 <producer id="producer52" in="00:00:00.000" out="00:00:55.567">
  <property name="length">1668</property>
  <property name="eof">pause</property>
  <property name="resource">/home/ryankelln/.cache/kdenlive/proxy/0408cbd72758135322641a2976371d84.mkv</property>
  <property name="audio_index">1</property>
  <property name="video_index">0</property>
  <property name="mute_on_pause">0</property>
  <property name="mlt_service">avformat-novalidate</property>
  <property name="seekable">1</property>
  <property name="aspect_ratio">1</property>
  <property name="kdenlive:clipname">Lake, sunset - birds flying to the camera - gopro (1080p)-lhgGDBMz3II.mp4</property>
  <property name="kdenlive:folderid">55</property>
  <property name="kdenlive:id">59</property>
  <property name="kdenlive:file_size">31173362</property>
  <property name="kdenlive:file_hash">0408cbd72758135322641a2976371d84</property>
  <property name="kdenlive:proxy">/home/ryankelln/.cache/kdenlive/proxy/0408cbd72758135322641a2976371d84.mkv</property>
  <property name="kdenlive:originalurl">content/footage/Lake, sunset - birds flying to the camera - gopro (1080p)-lhgGDBMz3II.mp4</property>
  <property name="kdenlive:original.mlt_type">producer</property>
  <property name="kdenlive:original.in">0</property>
  <property name="kdenlive:original.out">1667</property>
  <property name="kdenlive:original.length">1668</property>
  <property name="kdenlive:original.eof">pause</property>
  <property name="kdenlive:original.resource">content/footage/Lake, sunset - birds flying to the camera - gopro (1080p)-lhgGDBMz3II.mp4</property>
  <property name="kdenlive:original.meta.media.nb_streams">2</property>
  <property name="kdenlive:original.meta.media.0.stream.type">video</property>
  <property name="kdenlive:original.meta.media.0.stream.frame_rate">29.97</property>
  <property name="kdenlive:original.meta.media.0.stream.sample_aspect_ratio">1</property>
  <property name="kdenlive:original.meta.media.0.codec.width">1920</property>
  <property name="kdenlive:original.meta.media.0.codec.height">1080</property>
  <property name="kdenlive:original.meta.media.0.codec.rotate">0</property>
  <property name="kdenlive:original.meta.media.0.codec.frame_rate">29.97</property>
  <property name="kdenlive:original.meta.media.0.codec.pix_fmt">yuv420p</property>
  <property name="kdenlive:original.meta.media.0.codec.sample_aspect_ratio">1</property>
  <property name="kdenlive:original.meta.media.0.codec.colorspace">709</property>
  <property name="kdenlive:original.meta.media.0.codec.color_trc">1</property>
  <property name="kdenlive:original.meta.media.0.codec.name">h264</property>
  <property name="kdenlive:original.meta.media.0.codec.long_name">H.264 / AVC / MPEG-4 AVC / MPEG-4 part 10</property>
  <property name="kdenlive:original.meta.media.0.codec.bit_rate">4354633</property>
  <property name="kdenlive:original.meta.attr.0.stream.handler_name.markup">VideoHandler</property>
  <property name="kdenlive:original.meta.media.1.stream.type">audio</property>
  <property name="kdenlive:original.meta.media.1.codec.sample_fmt">fltp</property>
  <property name="kdenlive:original.meta.media.1.codec.sample_rate">44100</property>
  <property name="kdenlive:original.meta.media.1.codec.channels">2</property>
  <property name="kdenlive:original.meta.media.1.codec.name">aac</property>
  <property name="kdenlive:original.meta.media.1.codec.long_name">AAC (Advanced Audio Coding)</property>
  <property name="kdenlive:original.meta.media.1.codec.bit_rate">125588</property>
  <property name="kdenlive:original.meta.attr.1.stream.handler_name.markup">SoundHandler</property>
  <property name="kdenlive:original.meta.attr.major_brand.markup">isom</property>
  <property name="kdenlive:original.meta.attr.minor_version.markup">512</property>
  <property name="kdenlive:original.meta.attr.compatible_brands.markup">isomiso2avc1mp41</property>
  <property name="kdenlive:original.meta.attr.encoder.markup">Lavf58.45.100</property>
  <property name="kdenlive:original.seekable">1</property>
  <property name="kdenlive:original.width">1920</property>
  <property name="kdenlive:original.height">1080</property>
  <property name="kdenlive:original.meta.media.sample_aspect_num">1</property>
  <property name="kdenlive:original.meta.media.sample_aspect_den">1</property>
  <property name="kdenlive:original.aspect_ratio">1</property>
  <property name="kdenlive:original.audio_index">1</property>
  <property name="kdenlive:original.video_index">0</property>
  <property name="kdenlive:original.mute_on_pause">0</property>
  <property name="kdenlive:original.mlt_service">avformat-novalidate</property>
  <property name="kdenlive:original.kdenlive:folderid">55</property>
  <property name="kdenlive:original.meta.media.frame_rate_num">30000</property>
  <property name="kdenlive:original.meta.media.frame_rate_den">1001</property>
  <property name="kdenlive:original.meta.media.colorspace">709</property>
  <property name="kdenlive:original.meta.media.color_trc">1</property>
  <property name="kdenlive:original.meta.media.width">1920</property>
  <property name="kdenlive:original.meta.media.height">1080</property>
  <property name="kdenlive:original.meta.media.color_range">mpeg</property>
  <property name="kdenlive:original.kdenlive:id">77</property>
  <property name="kdenlive:original.kdenlive:file_size">31173362</property>
  <property name="kdenlive:original.kdenlive:file_hash">0408cbd72758135322641a2976371d84</property>
  <property name="kdenlive:original.backup">1</property>
  <property name="global_feed">1</property>
  <property name="meta.media.nb_streams">2</property>
  <property name="meta.media.0.stream.type">video</property>
  <property name="meta.media.0.stream.frame_rate">29.97</property>
  <property name="meta.media.0.stream.sample_aspect_ratio">1</property>
  <property name="meta.media.0.codec.width">640</property>
  <property name="meta.media.0.codec.height">360</property>
  <property name="meta.media.0.codec.rotate">0</property>
  <property name="meta.media.0.codec.frame_rate">1000</property>
  <property name="meta.media.0.codec.pix_fmt">yuvj420p</property>
  <property name="meta.media.0.codec.sample_aspect_ratio">1</property>
  <property name="meta.media.0.codec.colorspace">601</property>
  <property name="meta.media.0.codec.name">mjpeg</property>
  <property name="meta.media.0.codec.long_name">MJPEG (Motion JPEG)</property>
  <property name="meta.media.0.codec.bit_rate">0</property>
  <property name="meta.attr.0.stream.HANDLER_NAME.markup">VideoHandler</property>
  <property name="meta.attr.0.stream.ENCODER.markup">Lavc58.91.100 mjpeg</property>
  <property name="meta.attr.0.stream.DURATION.markup">00:00:55.555000000</property>
  <property name="meta.media.1.stream.type">audio</property>
  <property name="meta.media.1.codec.sample_fmt">s16</property>
  <property name="meta.media.1.codec.sample_rate">44100</property>
  <property name="meta.media.1.codec.channels">2</property>
  <property name="meta.media.1.codec.name">pcm_s16le</property>
  <property name="meta.media.1.codec.long_name">PCM signed 16-bit little-endian</property>
  <property name="meta.media.1.codec.bit_rate">1411200</property>
  <property name="meta.attr.1.stream.HANDLER_NAME.markup">SoundHandler</property>
  <property name="meta.attr.1.stream.ENCODER.markup">Lavc58.91.100 pcm_s16le</property>
  <property name="meta.attr.1.stream.DURATION.markup">00:00:55.612000000</property>
  <property name="meta.attr.COMPATIBLE_BRANDS.markup">isomiso2avc1mp41</property>
  <property name="meta.attr.MAJOR_BRAND.markup">isom</property>
  <property name="meta.attr.MINOR_VERSION.markup">512</property>
  <property name="meta.attr.ENCODER.markup">Lavf58.45.100</property>
  <property name="meta.media.sample_aspect_num">1</property>
  <property name="meta.media.sample_aspect_den">1</property>
  <property name="meta.media.frame_rate_num">30000</property>
  <property name="meta.media.frame_rate_den">1001</property>
  <property name="meta.media.colorspace">601</property>
  <property name="meta.media.color_trc">2</property>
  <property name="meta.media.width">640</property>
  <property name="meta.media.height">360</property>
  <property name="meta.media.color_range">full</property>
  <property name="meta.media.top_field_first">0</property>
  <property name="meta.media.progressive">1</property>
  <property name="kdenlive:active_streams">-1</property>
 </producer>
 <producer id="producer53" in="00:00:00.000" out="00:00:11.000">
  <property name="length">331</property>
  <property name="eof">pause</property>
  <property name="resource">/home/ryankelln/.cache/kdenlive/proxy/27240e0e5f9a7ced5f733d99de13e170.mkv</property>
  <property name="audio_index">1</property>
  <property name="video_index">0</property>
  <property name="mute_on_pause">0</property>
  <property name="mlt_service">avformat-novalidate</property>
  <property name="seekable">1</property>
  <property name="aspect_ratio">1</property>
  <property name="kdenlive:clipname">Pigeons - 39263.mp4</property>
  <property name="kdenlive:folderid">55</property>
  <property name="kdenlive:id">60</property>
  <property name="kdenlive:file_size">8228471</property>
  <property name="kdenlive:file_hash">27240e0e5f9a7ced5f733d99de13e170</property>
  <property name="kdenlive:proxy">/home/ryankelln/.cache/kdenlive/proxy/27240e0e5f9a7ced5f733d99de13e170.mkv</property>
  <property name="kdenlive:originalurl">content/footage/Pigeons - 39263.mp4</property>
  <property name="kdenlive:original.mlt_type">producer</property>
  <property name="kdenlive:original.in">0</property>
  <property name="kdenlive:original.out">330</property>
  <property name="kdenlive:original.length">331</property>
  <property name="kdenlive:original.eof">pause</property>
  <property name="kdenlive:original.resource">content/footage/Pigeons - 39263.mp4</property>
  <property name="kdenlive:original.meta.media.nb_streams">2</property>
  <property name="kdenlive:original.meta.media.0.stream.type">video</property>
  <property name="kdenlive:original.meta.media.0.stream.frame_rate">29.97</property>
  <property name="kdenlive:original.meta.media.0.stream.sample_aspect_ratio">0</property>
  <property name="kdenlive:original.meta.media.0.codec.width">1920</property>
  <property name="kdenlive:original.meta.media.0.codec.height">1080</property>
  <property name="kdenlive:original.meta.media.0.codec.rotate">0</property>
  <property name="kdenlive:original.meta.media.0.codec.frame_rate">30000</property>
  <property name="kdenlive:original.meta.media.0.codec.pix_fmt">yuv420p</property>
  <property name="kdenlive:original.meta.media.0.codec.sample_aspect_ratio">0</property>
  <property name="kdenlive:original.meta.media.0.codec.colorspace">709</property>
  <property name="kdenlive:original.meta.media.0.codec.color_trc">1</property>
  <property name="kdenlive:original.meta.media.0.codec.name">h264</property>
  <property name="kdenlive:original.meta.media.0.codec.long_name">H.264 / AVC / MPEG-4 AVC / MPEG-4 part 10</property>
  <property name="kdenlive:original.meta.media.0.codec.bit_rate">5718916</property>
  <property name="kdenlive:original.meta.attr.0.stream.creation_time.markup">2020-05-21T10:20:57.000000Z</property>
  <property name="kdenlive:original.meta.attr.0.stream.handler_name.markup">L-SMASH Video Handler</property>
  <property name="kdenlive:original.meta.attr.0.stream.encoder.markup">AVC Coding</property>
  <property name="kdenlive:original.meta.media.1.stream.type">audio</property>
  <property name="kdenlive:original.meta.media.1.codec.sample_fmt">fltp</property>
  <property name="kdenlive:original.meta.media.1.codec.sample_rate">48000</property>
  <property name="kdenlive:original.meta.media.1.codec.channels">2</property>
  <property name="kdenlive:original.meta.media.1.codec.name">aac</property>
  <property name="kdenlive:original.meta.media.1.codec.long_name">AAC (Advanced Audio Coding)</property>
  <property name="kdenlive:original.meta.media.1.codec.bit_rate">253375</property>
  <property name="kdenlive:original.meta.attr.1.stream.creation_time.markup">2020-05-21T10:20:57.000000Z</property>
  <property name="kdenlive:original.meta.attr.1.stream.handler_name.markup">L-SMASH Audio Handler</property>
  <property name="kdenlive:original.meta.attr.major_brand.markup">mp42</property>
  <property name="kdenlive:original.meta.attr.minor_version.markup">0</property>
  <property name="kdenlive:original.meta.attr.compatible_brands.markup">mp42mp41isomavc1</property>
  <property name="kdenlive:original.meta.attr.creation_time.markup">2020-05-21T10:20:57.000000Z</property>
  <property name="kdenlive:original.seekable">1</property>
  <property name="kdenlive:original.width">1920</property>
  <property name="kdenlive:original.height">1080</property>
  <property name="kdenlive:original.meta.media.sample_aspect_num">1</property>
  <property name="kdenlive:original.meta.media.sample_aspect_den">1</property>
  <property name="kdenlive:original.aspect_ratio">1</property>
  <property name="kdenlive:original.audio_index">1</property>
  <property name="kdenlive:original.video_index">0</property>
  <property name="kdenlive:original.mute_on_pause">0</property>
  <property name="kdenlive:original.mlt_service">avformat-novalidate</property>
  <property name="kdenlive:original.kdenlive:folderid">55</property>
  <property name="kdenlive:original.meta.media.frame_rate_num">30000</property>
  <property name="kdenlive:original.meta.media.frame_rate_den">1001</property>
  <property name="kdenlive:original.meta.media.colorspace">709</property>
  <property name="kdenlive:original.meta.media.color_trc">1</property>
  <property name="kdenlive:original.meta.media.width">1920</property>
  <property name="kdenlive:original.meta.media.height">1080</property>
  <property name="kdenlive:original.meta.media.color_range">mpeg</property>
  <property name="kdenlive:original.kdenlive:id">78</property>
  <property name="kdenlive:original.kdenlive:file_size">8228471</property>
  <property name="kdenlive:original.kdenlive:file_hash">27240e0e5f9a7ced5f733d99de13e170</property>
  <property name="kdenlive:original.backup">1</property>
  <property name="kdenlive:audio_max">91</property>
  <property name="global_feed">1</property>
  <property name="meta.media.nb_streams">2</property>
  <property name="meta.media.0.stream.type">video</property>
  <property name="meta.media.0.stream.frame_rate">29.97</property>
  <property name="meta.media.0.stream.sample_aspect_ratio">0</property>
  <property name="meta.media.0.codec.width">640</property>
  <property name="meta.media.0.codec.height">360</property>
  <property name="meta.media.0.codec.rotate">0</property>
  <property name="meta.media.0.codec.frame_rate">1000</property>
  <property name="meta.media.0.codec.pix_fmt">yuvj420p</property>
  <property name="meta.media.0.codec.sample_aspect_ratio">0</property>
  <property name="meta.media.0.codec.colorspace">601</property>
  <property name="meta.media.0.codec.name">mjpeg</property>
  <property name="meta.media.0.codec.long_name">MJPEG (Motion JPEG)</property>
  <property name="meta.media.0.codec.bit_rate">0</property>
  <property name="meta.attr.0.stream.HANDLER_NAME.markup">L-SMASH Video Handler</property>
  <property name="meta.attr.0.stream.ENCODER.markup">Lavc58.91.100 mjpeg</property>
  <property name="meta.attr.0.stream.DURATION.markup">00:00:11.011000000</property>
  <property name="meta.media.1.stream.type">audio</property>
  <property name="meta.media.1.codec.sample_fmt">s16</property>
  <property name="meta.media.1.codec.sample_rate">48000</property>
  <property name="meta.media.1.codec.channels">2</property>
  <property name="meta.media.1.codec.name">pcm_s16le</property>
  <property name="meta.media.1.codec.long_name">PCM signed 16-bit little-endian</property>
  <property name="meta.media.1.codec.bit_rate">1536000</property>
  <property name="meta.attr.1.stream.HANDLER_NAME.markup">L-SMASH Audio Handler</property>
  <property name="meta.attr.1.stream.ENCODER.markup">Lavc58.91.100 pcm_s16le</property>
  <property name="meta.attr.1.stream.DURATION.markup">00:00:11.029000000</property>
  <property name="meta.attr.COMPATIBLE_BRANDS.markup">mp42mp41isomavc1</property>
  <property name="meta.attr.MAJOR_BRAND.markup">mp42</property>
  <property name="meta.attr.MINOR_VERSION.markup">0</property>
  <property name="meta.attr.ENCODER.markup">Lavf58.45.100</property>
  <property name="meta.media.sample_aspect_num">1</property>
  <property name="meta.media.sample_aspect_den">1</property>
  <property name="meta.media.frame_rate_num">30000</property>
  <property name="meta.media.frame_rate_den">1001</property>
  <property name="meta.media.colorspace">601</property>
  <property name="meta.media.color_trc">2</property>
  <property name="meta.media.width">640</property>
  <property name="meta.media.height">360</property>
  <property name="meta.media.color_range">full</property>
  <property name="meta.media.top_field_first">0</property>
  <property name="meta.media.progressive">1</property>
  <property name="kdenlive:active_streams">-1</property>
 </producer>
 <producer id="producer54" in="00:00:00.000" out="00:00:47.267">
  <property name="length">1419</property>
  <property name="eof">pause</property>
  <property name="resource">/home/ryankelln/.cache/kdenlive/proxy/333498d8d946949055744a32320ea067.mkv</property>
  <property name="audio_index">1</property>
  <property name="video_index">0</property>
  <property name="mute_on_pause">0</property>
  <property name="mlt_service">avformat-novalidate</property>
  <property name="seekable">1</property>
  <property name="aspect_ratio">1</property>
  <property name="kdenlive:clipname">Burrowing owl _ Lechuza de campo _ Paysandú, Uruguay.-69527639.mp4</property>
  <property name="kdenlive:folderid">55</property>
  <property name="kdenlive:id">61</property>
  <property name="kdenlive:file_size">15841174</property>
  <property name="kdenlive:file_hash">333498d8d946949055744a32320ea067</property>
  <property name="kdenlive:proxy">/home/ryankelln/.cache/kdenlive/proxy/333498d8d946949055744a32320ea067.mkv</property>
  <property name="kdenlive:originalurl">content/footage/Burrowing owl _ Lechuza de campo _ Paysandú, Uruguay.-69527639.mp4</property>
  <property name="kdenlive:original.mlt_type">producer</property>
  <property name="kdenlive:original.in">0</property>
  <property name="kdenlive:original.out">1418</property>
  <property name="kdenlive:original.length">1419</property>
  <property name="kdenlive:original.eof">pause</property>
  <property name="kdenlive:original.resource">content/footage/Burrowing owl _ Lechuza de campo _ Paysandú, Uruguay.-69527639.mp4</property>
  <property name="kdenlive:original.meta.media.nb_streams">2</property>
  <property name="kdenlive:original.meta.media.0.stream.type">video</property>
  <property name="kdenlive:original.meta.media.0.stream.frame_rate">29.97</property>
  <property name="kdenlive:original.meta.media.0.stream.sample_aspect_ratio">0</property>
  <property name="kdenlive:original.meta.media.0.codec.width">1280</property>
  <property name="kdenlive:original.meta.media.0.codec.height">720</property>
  <property name="kdenlive:original.meta.media.0.codec.rotate">0</property>
  <property name="kdenlive:original.meta.media.0.codec.frame_rate">29.97</property>
  <property name="kdenlive:original.meta.media.0.codec.pix_fmt">yuv420p</property>
  <property name="kdenlive:original.meta.media.0.codec.sample_aspect_ratio">0</property>
  <property name="kdenlive:original.meta.media.0.codec.colorspace">709</property>
  <property name="kdenlive:original.meta.media.0.codec.name">h264</property>
  <property name="kdenlive:original.meta.media.0.codec.long_name">H.264 / AVC / MPEG-4 AVC / MPEG-4 part 10</property>
  <property name="kdenlive:original.meta.media.0.codec.bit_rate">2512199</property>
  <property name="kdenlive:original.meta.attr.0.stream.handler_name.markup">VideoHandler</property>
  <property name="kdenlive:original.meta.media.1.stream.type">audio</property>
  <property name="kdenlive:original.meta.media.1.codec.sample_fmt">fltp</property>
  <property name="kdenlive:original.meta.media.1.codec.sample_rate">48000</property>
  <property name="kdenlive:original.meta.media.1.codec.channels">2</property>
  <property name="kdenlive:original.meta.media.1.codec.name">aac</property>
  <property name="kdenlive:original.meta.media.1.codec.long_name">AAC (Advanced Audio Coding)</property>
  <property name="kdenlive:original.meta.media.1.codec.bit_rate">157517</property>
  <property name="kdenlive:original.meta.attr.1.stream.handler_name.markup">SoundHandler</property>
  <property name="kdenlive:original.meta.attr.major_brand.markup">isom</property>
  <property name="kdenlive:original.meta.attr.minor_version.markup">512</property>
  <property name="kdenlive:original.meta.attr.compatible_brands.markup">isomiso2avc1mp41</property>
  <property name="kdenlive:original.meta.attr.encoder.markup">Lavf58.45.100</property>
  <property name="kdenlive:original.seekable">1</property>
  <property name="kdenlive:original.width">1280</property>
  <property name="kdenlive:original.height">720</property>
  <property name="kdenlive:original.meta.media.sample_aspect_num">1</property>
  <property name="kdenlive:original.meta.media.sample_aspect_den">1</property>
  <property name="kdenlive:original.aspect_ratio">1</property>
  <property name="kdenlive:original.audio_index">1</property>
  <property name="kdenlive:original.video_index">0</property>
  <property name="kdenlive:original.mute_on_pause">0</property>
  <property name="kdenlive:original.mlt_service">avformat-novalidate</property>
  <property name="kdenlive:original.kdenlive:folderid">55</property>
  <property name="kdenlive:original.meta.media.frame_rate_num">30000</property>
  <property name="kdenlive:original.meta.media.frame_rate_den">1001</property>
  <property name="kdenlive:original.meta.media.colorspace">709</property>
  <property name="kdenlive:original.meta.media.color_trc">2</property>
  <property name="kdenlive:original.meta.media.width">1280</property>
  <property name="kdenlive:original.meta.media.height">720</property>
  <property name="kdenlive:original.meta.media.color_range">mpeg</property>
  <property name="kdenlive:original.kdenlive:id">79</property>
  <property name="kdenlive:original.kdenlive:file_size">15841174</property>
  <property name="kdenlive:original.kdenlive:file_hash">333498d8d946949055744a32320ea067</property>
  <property name="kdenlive:original.backup">1</property>
  <property name="kdenlive:audio_max">7</property>
  <property name="global_feed">1</property>
  <property name="meta.media.nb_streams">2</property>
  <property name="meta.media.0.stream.type">video</property>
  <property name="meta.media.0.stream.frame_rate">29.97</property>
  <property name="meta.media.0.stream.sample_aspect_ratio">0</property>
  <property name="meta.media.0.codec.width">640</property>
  <property name="meta.media.0.codec.height">360</property>
  <property name="meta.media.0.codec.rotate">0</property>
  <property name="meta.media.0.codec.frame_rate">1000</property>
  <property name="meta.media.0.codec.pix_fmt">yuvj420p</property>
  <property name="meta.media.0.codec.sample_aspect_ratio">0</property>
  <property name="meta.media.0.codec.colorspace">601</property>
  <property name="meta.media.0.codec.name">mjpeg</property>
  <property name="meta.media.0.codec.long_name">MJPEG (Motion JPEG)</property>
  <property name="meta.media.0.codec.bit_rate">0</property>
  <property name="meta.attr.0.stream.HANDLER_NAME.markup">VideoHandler</property>
  <property name="meta.attr.0.stream.ENCODER.markup">Lavc58.91.100 mjpeg</property>
  <property name="meta.attr.0.stream.DURATION.markup">00:00:47.314000000</property>
  <property name="meta.media.1.stream.type">audio</property>
  <property name="meta.media.1.codec.sample_fmt">s16</property>
  <property name="meta.media.1.codec.sample_rate">48000</property>
  <property name="meta.media.1.codec.channels">2</property>
  <property name="meta.media.1.codec.name">pcm_s16le</property>
  <property name="meta.media.1.codec.long_name">PCM signed 16-bit little-endian</property>
  <property name="meta.media.1.codec.bit_rate">1536000</property>
  <property name="meta.attr.1.stream.HANDLER_NAME.markup">SoundHandler</property>
  <property name="meta.attr.1.stream.ENCODER.markup">Lavc58.91.100 pcm_s16le</property>
  <property name="meta.attr.1.stream.DURATION.markup">00:00:47.232000000</property>
  <property name="meta.attr.COMPATIBLE_BRANDS.markup">isomiso2avc1mp41</property>
  <property name="meta.attr.MAJOR_BRAND.markup">isom</property>
  <property name="meta.attr.MINOR_VERSION.markup">512</property>
  <property name="meta.attr.ENCODER.markup">Lavf58.45.100</property>
  <property name="meta.media.sample_aspect_num">1</property>
  <property name="meta.media.sample_aspect_den">1</property>
  <property name="meta.media.frame_rate_num">30000</property>
  <property name="meta.media.frame_rate_den">1001</property>
  <property name="meta.media.colorspace">601</property>
  <property name="meta.media.color_trc">2</property>
  <property name="meta.media.width">640</property>
  <property name="meta.media.height">360</property>
  <property name="meta.media.color_range">full</property>
  <property name="meta.media.top_field_first">0</property>
  <property name="meta.media.progressive">1</property>
  <property name="kdenlive:active_streams">-1</property>
  <property name="kdenlive:zone_in">186</property>
  <property name="kdenlive:zone_out">230</property>
  <property name="kdenlive:clipzones">[
    {
        "in": 186,
        "name": "Zone 1",
        "out": 230
    }
]
</property>
 </producer>
 <producer id="producer55" in="00:00:00.000" out="00:00:36.067">
  <property name="length">1083</property>
  <property name="eof">pause</property>
  <property name="resource">/home/ryankelln/.cache/kdenlive/proxy/2926abe59dd90ece74cd92a191b6540d.mkv</property>
  <property name="audio_index">1</property>
  <property name="video_index">0</property>
  <property name="mute_on_pause">0</property>
  <property name="mlt_service">avformat-novalidate</property>
  <property name="seekable">1</property>
  <property name="aspect_ratio">1</property>
  <property name="kdenlive:clipname">Happy hopping Barnacle goose juvenile-thEOf3tH8rI.mp4</property>
  <property name="kdenlive:folderid">55</property>
  <property name="kdenlive:id">62</property>
  <property name="kdenlive:file_size">18826683</property>
  <property name="kdenlive:file_hash">2926abe59dd90ece74cd92a191b6540d</property>
  <property name="kdenlive:proxy">/home/ryankelln/.cache/kdenlive/proxy/2926abe59dd90ece74cd92a191b6540d.mkv</property>
  <property name="kdenlive:originalurl">content/footage/Happy hopping Barnacle goose juvenile-thEOf3tH8rI.mp4</property>
  <property name="kdenlive:original.mlt_type">producer</property>
  <property name="kdenlive:original.in">0</property>
  <property name="kdenlive:original.out">1082</property>
  <property name="kdenlive:original.length">1083</property>
  <property name="kdenlive:original.eof">pause</property>
  <property name="kdenlive:original.resource">content/footage/Happy hopping Barnacle goose juvenile-thEOf3tH8rI.mp4</property>
  <property name="kdenlive:original.meta.media.nb_streams">2</property>
  <property name="kdenlive:original.meta.media.0.stream.type">video</property>
  <property name="kdenlive:original.meta.media.0.stream.frame_rate">29.97</property>
  <property name="kdenlive:original.meta.media.0.stream.sample_aspect_ratio">1</property>
  <property name="kdenlive:original.meta.media.0.codec.width">1920</property>
  <property name="kdenlive:original.meta.media.0.codec.height">1080</property>
  <property name="kdenlive:original.meta.media.0.codec.rotate">0</property>
  <property name="kdenlive:original.meta.media.0.codec.frame_rate">29.97</property>
  <property name="kdenlive:original.meta.media.0.codec.pix_fmt">yuv420p</property>
  <property name="kdenlive:original.meta.media.0.codec.sample_aspect_ratio">1</property>
  <property name="kdenlive:original.meta.media.0.codec.colorspace">709</property>
  <property name="kdenlive:original.meta.media.0.codec.name">h264</property>
  <property name="kdenlive:original.meta.media.0.codec.long_name">H.264 / AVC / MPEG-4 AVC / MPEG-4 part 10</property>
  <property name="kdenlive:original.meta.media.0.codec.bit_rate">4048845</property>
  <property name="kdenlive:original.meta.attr.0.stream.handler_name.markup">VideoHandler</property>
  <property name="kdenlive:original.meta.media.1.stream.type">audio</property>
  <property name="kdenlive:original.meta.media.1.codec.sample_fmt">fltp</property>
  <property name="kdenlive:original.meta.media.1.codec.sample_rate">44100</property>
  <property name="kdenlive:original.meta.media.1.codec.channels">2</property>
  <property name="kdenlive:original.meta.media.1.codec.name">aac</property>
  <property name="kdenlive:original.meta.media.1.codec.long_name">AAC (Advanced Audio Coding)</property>
  <property name="kdenlive:original.meta.media.1.codec.bit_rate">125588</property>
  <property name="kdenlive:original.meta.attr.1.stream.handler_name.markup">SoundHandler</property>
  <property name="kdenlive:original.meta.attr.major_brand.markup">isom</property>
  <property name="kdenlive:original.meta.attr.minor_version.markup">512</property>
  <property name="kdenlive:original.meta.attr.compatible_brands.markup">isomiso2avc1mp41</property>
  <property name="kdenlive:original.meta.attr.encoder.markup">Lavf58.45.100</property>
  <property name="kdenlive:original.seekable">1</property>
  <property name="kdenlive:original.width">1920</property>
  <property name="kdenlive:original.height">1080</property>
  <property name="kdenlive:original.meta.media.sample_aspect_num">1</property>
  <property name="kdenlive:original.meta.media.sample_aspect_den">1</property>
  <property name="kdenlive:original.aspect_ratio">1</property>
  <property name="kdenlive:original.audio_index">1</property>
  <property name="kdenlive:original.video_index">0</property>
  <property name="kdenlive:original.mute_on_pause">0</property>
  <property name="kdenlive:original.mlt_service">avformat-novalidate</property>
  <property name="kdenlive:original.kdenlive:folderid">55</property>
  <property name="kdenlive:original.meta.media.frame_rate_num">30000</property>
  <property name="kdenlive:original.meta.media.frame_rate_den">1001</property>
  <property name="kdenlive:original.meta.media.colorspace">709</property>
  <property name="kdenlive:original.meta.media.color_trc">2</property>
  <property name="kdenlive:original.meta.media.width">1920</property>
  <property name="kdenlive:original.meta.media.height">1080</property>
  <property name="kdenlive:original.meta.media.color_range">mpeg</property>
  <property name="kdenlive:original.kdenlive:id">81</property>
  <property name="kdenlive:original.kdenlive:file_size">18826683</property>
  <property name="kdenlive:original.kdenlive:file_hash">2926abe59dd90ece74cd92a191b6540d</property>
  <property name="kdenlive:original.backup">1</property>
  <property name="kdenlive:audio_max">1</property>
  <property name="global_feed">1</property>
  <property name="meta.media.nb_streams">2</property>
  <property name="meta.media.0.stream.type">video</property>
  <property name="meta.media.0.stream.frame_rate">29.97</property>
  <property name="meta.media.0.stream.sample_aspect_ratio">1</property>
  <property name="meta.media.0.codec.width">640</property>
  <property name="meta.media.0.codec.height">360</property>
  <property name="meta.media.0.codec.rotate">0</property>
  <property name="meta.media.0.codec.frame_rate">1000</property>
  <property name="meta.media.0.codec.pix_fmt">yuvj420p</property>
  <property name="meta.media.0.codec.sample_aspect_ratio">1</property>
  <property name="meta.media.0.codec.colorspace">601</property>
  <property name="meta.media.0.codec.name">mjpeg</property>
  <property name="meta.media.0.codec.long_name">MJPEG (Motion JPEG)</property>
  <property name="meta.media.0.codec.bit_rate">0</property>
  <property name="meta.attr.0.stream.HANDLER_NAME.markup">VideoHandler</property>
  <property name="meta.attr.0.stream.ENCODER.markup">Lavc58.91.100 mjpeg</property>
  <property name="meta.attr.0.stream.DURATION.markup">00:00:36.002000000</property>
  <property name="meta.media.1.stream.type">audio</property>
  <property name="meta.media.1.codec.sample_fmt">s16</property>
  <property name="meta.media.1.codec.sample_rate">44100</property>
  <property name="meta.media.1.codec.channels">2</property>
  <property name="meta.media.1.codec.name">pcm_s16le</property>
  <property name="meta.media.1.codec.long_name">PCM signed 16-bit little-endian</property>
  <property name="meta.media.1.codec.bit_rate">1411200</property>
  <property name="meta.attr.1.stream.HANDLER_NAME.markup">SoundHandler</property>
  <property name="meta.attr.1.stream.ENCODER.markup">Lavc58.91.100 pcm_s16le</property>
  <property name="meta.attr.1.stream.DURATION.markup">00:00:36.107000000</property>
  <property name="meta.attr.COMPATIBLE_BRANDS.markup">isomiso2avc1mp41</property>
  <property name="meta.attr.MAJOR_BRAND.markup">isom</property>
  <property name="meta.attr.MINOR_VERSION.markup">512</property>
  <property name="meta.attr.ENCODER.markup">Lavf58.45.100</property>
  <property name="meta.media.sample_aspect_num">1</property>
  <property name="meta.media.sample_aspect_den">1</property>
  <property name="meta.media.frame_rate_num">30000</property>
  <property name="meta.media.frame_rate_den">1001</property>
  <property name="meta.media.colorspace">601</property>
  <property name="meta.media.color_trc">2</property>
  <property name="meta.media.width">640</property>
  <property name="meta.media.height">360</property>
  <property name="meta.media.color_range">full</property>
  <property name="meta.media.top_field_first">0</property>
  <property name="meta.media.progressive">1</property>
  <property name="kdenlive:zone_in">879</property>
  <property name="kdenlive:zone_out">1079</property>
  <property name="kdenlive:clipzones">[
    {
        "in": 879,
        "name": "Zone 1",
        "out": 1079
    }
]
</property>
 </producer>
 <producer id="producer56" in="00:00:00.000" out="00:04:20.267">
  <property name="length">7809</property>
  <property name="eof">pause</property>
  <property name="resource">/home/ryankelln/.cache/kdenlive/proxy/576b66f0f2ba78d4966b42a01ecd8793.mkv</property>
  <property name="audio_index">1</property>
  <property name="video_index">0</property>
  <property name="mute_on_pause">0</property>
  <property name="mlt_service">avformat-novalidate</property>
  <property name="seekable">1</property>
  <property name="aspect_ratio">1</property>
  <property name="kdenlive:clipname">Watervogelbond - Sylvan Heights Vogel Park.mp4</property>
  <property name="kdenlive:folderid">55</property>
  <property name="kdenlive:id">63</property>
  <property name="kdenlive:file_size">280645880</property>
  <property name="kdenlive:file_hash">576b66f0f2ba78d4966b42a01ecd8793</property>
  <property name="kdenlive:proxy">/home/ryankelln/.cache/kdenlive/proxy/576b66f0f2ba78d4966b42a01ecd8793.mkv</property>
  <property name="kdenlive:originalurl">content/footage/Watervogelbond - Sylvan Heights Vogel Park.mp4</property>
  <property name="kdenlive:original.mlt_type">producer</property>
  <property name="kdenlive:original.in">0</property>
  <property name="kdenlive:original.out">7808</property>
  <property name="kdenlive:original.length">7809</property>
  <property name="kdenlive:original.eof">pause</property>
  <property name="kdenlive:original.resource">content/footage/Watervogelbond - Sylvan Heights Vogel Park.mp4</property>
  <property name="kdenlive:original.meta.media.nb_streams">2</property>
  <property name="kdenlive:original.meta.media.0.stream.type">video</property>
  <property name="kdenlive:original.meta.media.0.stream.frame_rate">29.97</property>
  <property name="kdenlive:original.meta.media.0.stream.sample_aspect_ratio">0</property>
  <property name="kdenlive:original.meta.media.0.codec.width">1920</property>
  <property name="kdenlive:original.meta.media.0.codec.height">1080</property>
  <property name="kdenlive:original.meta.media.0.codec.rotate">0</property>
  <property name="kdenlive:original.meta.media.0.codec.frame_rate">29970</property>
  <property name="kdenlive:original.meta.media.0.codec.pix_fmt">yuv420p</property>
  <property name="kdenlive:original.meta.media.0.codec.sample_aspect_ratio">0</property>
  <property name="kdenlive:original.meta.media.0.codec.colorspace">709</property>
  <property name="kdenlive:original.meta.media.0.codec.name">h264</property>
  <property name="kdenlive:original.meta.media.0.codec.long_name">H.264 / AVC / MPEG-4 AVC / MPEG-4 part 10</property>
  <property name="kdenlive:original.meta.media.0.codec.bit_rate">8424986</property>
  <property name="kdenlive:original.meta.attr.0.stream.handler_name.markup">VideoHandler</property>
  <property name="kdenlive:original.meta.attr.0.stream.encoder.markup">AVC Coding</property>
  <property name="kdenlive:original.meta.media.1.stream.type">audio</property>
  <property name="kdenlive:original.meta.media.1.codec.sample_fmt">fltp</property>
  <property name="kdenlive:original.meta.media.1.codec.sample_rate">48000</property>
  <property name="kdenlive:original.meta.media.1.codec.channels">2</property>
  <property name="kdenlive:original.meta.media.1.codec.name">aac</property>
  <property name="kdenlive:original.meta.media.1.codec.long_name">AAC (Advanced Audio Coding)</property>
  <property name="kdenlive:original.meta.media.1.codec.bit_rate">195394</property>
  <property name="kdenlive:original.meta.attr.1.stream.handler_name.markup">SoundHandler</property>
  <property name="kdenlive:original.meta.attr.major_brand.markup">mp42</property>
  <property name="kdenlive:original.meta.attr.minor_version.markup">0</property>
  <property name="kdenlive:original.meta.attr.compatible_brands.markup">mp41isom</property>
  <property name="kdenlive:original.seekable">1</property>
  <property name="kdenlive:original.width">1920</property>
  <property name="kdenlive:original.height">1080</property>
  <property name="kdenlive:original.meta.media.sample_aspect_num">1</property>
  <property name="kdenlive:original.meta.media.sample_aspect_den">1</property>
  <property name="kdenlive:original.aspect_ratio">1</property>
  <property name="kdenlive:original.audio_index">1</property>
  <property name="kdenlive:original.video_index">0</property>
  <property name="kdenlive:original.mute_on_pause">0</property>
  <property name="kdenlive:original.mlt_service">avformat-novalidate</property>
  <property name="kdenlive:original.kdenlive:folderid">55</property>
  <property name="kdenlive:original.meta.media.frame_rate_num">2997</property>
  <property name="kdenlive:original.meta.media.frame_rate_den">100</property>
  <property name="kdenlive:original.meta.media.colorspace">709</property>
  <property name="kdenlive:original.meta.media.color_trc">2</property>
  <property name="kdenlive:original.meta.media.width">1920</property>
  <property name="kdenlive:original.meta.media.height">1080</property>
  <property name="kdenlive:original.meta.media.color_range">mpeg</property>
  <property name="kdenlive:original.kdenlive:id">83</property>
  <property name="kdenlive:original.kdenlive:file_size">280645880</property>
  <property name="kdenlive:original.kdenlive:file_hash">576b66f0f2ba78d4966b42a01ecd8793</property>
  <property name="kdenlive:original.backup">1</property>
  <property name="kdenlive:audio_max">6</property>
  <property name="kdenlive:zone_in">5654</property>
  <property name="kdenlive:zone_out">5788</property>
  <property name="kdenlive:clipzones">[
    {
        "in": 5412,
        "name": "bob",
        "out": 5443
    },
    {
        "in": 5654,
        "name": "preen",
        "out": 5788
    }
]
</property>
  <property name="kdenlive:active_streams">-1</property>
  <property name="global_feed">1</property>
  <property name="meta.media.nb_streams">2</property>
  <property name="meta.media.0.stream.type">video</property>
  <property name="meta.media.0.stream.frame_rate">29.97</property>
  <property name="meta.media.0.stream.sample_aspect_ratio">0</property>
  <property name="meta.media.0.codec.width">640</property>
  <property name="meta.media.0.codec.height">360</property>
  <property name="meta.media.0.codec.rotate">0</property>
  <property name="meta.media.0.codec.frame_rate">1000</property>
  <property name="meta.media.0.codec.pix_fmt">yuvj420p</property>
  <property name="meta.media.0.codec.sample_aspect_ratio">0</property>
  <property name="meta.media.0.codec.colorspace">601</property>
  <property name="meta.media.0.codec.name">mjpeg</property>
  <property name="meta.media.0.codec.long_name">MJPEG (Motion JPEG)</property>
  <property name="meta.media.0.codec.bit_rate">0</property>
  <property name="meta.attr.0.stream.HANDLER_NAME.markup">VideoHandler</property>
  <property name="meta.attr.0.stream.ENCODER.markup">Lavc58.91.100 mjpeg</property>
  <property name="meta.attr.0.stream.DURATION.markup">00:04:20.360000000</property>
  <property name="meta.media.1.stream.type">audio</property>
  <property name="meta.media.1.codec.sample_fmt">s16</property>
  <property name="meta.media.1.codec.sample_rate">48000</property>
  <property name="meta.media.1.codec.channels">2</property>
  <property name="meta.media.1.codec.name">pcm_s16le</property>
  <property name="meta.media.1.codec.long_name">PCM signed 16-bit little-endian</property>
  <property name="meta.media.1.codec.bit_rate">1536000</property>
  <property name="meta.attr.1.stream.HANDLER_NAME.markup">SoundHandler</property>
  <property name="meta.attr.1.stream.ENCODER.markup">Lavc58.91.100 pcm_s16le</property>
  <property name="meta.attr.1.stream.DURATION.markup">00:04:20.309000000</property>
  <property name="meta.attr.COMPATIBLE_BRANDS.markup">mp41isom</property>
  <property name="meta.attr.MAJOR_BRAND.markup">mp42</property>
  <property name="meta.attr.MINOR_VERSION.markup">0</property>
  <property name="meta.attr.ENCODER.markup">Lavf58.45.100</property>
  <property name="meta.media.sample_aspect_num">1</property>
  <property name="meta.media.sample_aspect_den">1</property>
  <property name="meta.media.frame_rate_num">2997</property>
  <property name="meta.media.frame_rate_den">100</property>
  <property name="meta.media.colorspace">601</property>
  <property name="meta.media.color_trc">2</property>
  <property name="meta.media.width">640</property>
  <property name="meta.media.height">360</property>
  <property name="meta.media.color_range">full</property>
  <property name="meta.media.top_field_first">0</property>
  <property name="meta.media.progressive">1</property>
 </producer>
 <producer id="producer57" in="00:00:00.000" out="00:00:40.233">
  <property name="length">1208</property>
  <property name="eof">pause</property>
  <property name="resource">content/footage/bird shit.mp4</property>
  <property name="audio_index">1</property>
  <property name="video_index">0</property>
  <property name="mute_on_pause">0</property>
  <property name="mlt_service">avformat-novalidate</property>
  <property name="seekable">1</property>
  <property name="aspect_ratio">1</property>
  <property name="kdenlive:clipname">bird shit.mp4</property>
  <property name="kdenlive:folderid">55</property>
  <property name="kdenlive:id">64</property>
  <property name="kdenlive:file_size">13081500</property>
  <property name="kdenlive:file_hash">ff3d577e677fa7ef6ee919d871119c10</property>
  <property name="kdenlive:proxy">-</property>
  <property name="kdenlive:originalurl">content/footage/bird shit.mp4</property>
  <property name="kdenlive:audio_max">17</property>
  <property name="global_feed">1</property>
  <property name="kdenlive:active_streams">-1</property>
  <property name="kdenlive:zone_in">514</property>
  <property name="kdenlive:zone_out">770</property>
  <property name="kdenlive:clipzones">[
    {
        "in": 514,
        "name": "flying shit",
        "out": 770
    }
]
</property>
  <property name="meta.media.nb_streams">2</property>
  <property name="meta.media.0.stream.type">video</property>
  <property name="meta.media.0.stream.frame_rate">12</property>
  <property name="meta.media.0.stream.sample_aspect_ratio">1</property>
  <property name="meta.media.0.codec.width">1280</property>
  <property name="meta.media.0.codec.height">720</property>
  <property name="meta.media.0.codec.rotate">0</property>
  <property name="meta.media.0.codec.frame_rate">12</property>
  <property name="meta.media.0.codec.pix_fmt">yuv420p</property>
  <property name="meta.media.0.codec.sample_aspect_ratio">1</property>
  <property name="meta.media.0.codec.colorspace">709</property>
  <property name="meta.media.0.codec.name">h264</property>
  <property name="meta.media.0.codec.long_name">H.264 / AVC / MPEG-4 AVC / MPEG-4 part 10</property>
  <property name="meta.media.0.codec.bit_rate">2480920</property>
  <property name="meta.attr.0.stream.creation_time.markup">2013-02-05T14:31:58.000000Z</property>
  <property name="meta.attr.0.stream.handler_name.markup">L-SMASH Video Handler</property>
  <property name="meta.attr.0.stream.encoder.markup">AVC Coding</property>
  <property name="meta.media.1.stream.type">audio</property>
  <property name="meta.media.1.codec.sample_fmt">fltp</property>
  <property name="meta.media.1.codec.sample_rate">44100</property>
  <property name="meta.media.1.codec.channels">2</property>
  <property name="meta.media.1.codec.name">aac</property>
  <property name="meta.media.1.codec.long_name">AAC (Advanced Audio Coding)</property>
  <property name="meta.media.1.codec.bit_rate">157588</property>
  <property name="meta.attr.1.stream.creation_time.markup">2013-02-05T14:31:58.000000Z</property>
  <property name="meta.attr.1.stream.handler_name.markup">L-SMASH Audio Handler</property>
  <property name="meta.attr.major_brand.markup">mp42</property>
  <property name="meta.attr.minor_version.markup">0</property>
  <property name="meta.attr.compatible_brands.markup">mp42mp41isomavc1</property>
  <property name="meta.attr.creation_time.markup">2013-02-05T14:31:58.000000Z</property>
  <property name="meta.media.sample_aspect_num">1</property>
  <property name="meta.media.sample_aspect_den">1</property>
  <property name="meta.media.frame_rate_num">12</property>
  <property name="meta.media.frame_rate_den">1</property>
  <property name="meta.media.colorspace">709</property>
  <property name="meta.media.color_trc">2</property>
  <property name="meta.media.width">1280</property>
  <property name="meta.media.height">720</property>
  <property name="meta.media.color_range">mpeg</property>
  <property name="meta.media.top_field_first">0</property>
  <property name="meta.media.progressive">1</property>
 </producer>
 <producer id="producer58" in="00:00:00.000" out="00:00:04.967">
  <property name="length">00:00:05.000</property>
  <property name="eof">pause</property>
  <property name="resource">content/footage/jackson_bird_brained-bird_shit_f008167.png</property>
  <property name="ttl">25</property>
  <property name="aspect_ratio">1</property>
  <property name="progressive">1</property>
  <property name="seekable">1</property>
  <property name="meta.media.width">1920</property>
  <property name="meta.media.height">1080</property>
  <property name="mlt_service">qimage</property>
  <property name="kdenlive:clipname"/>
  <property name="kdenlive:duration">00:00:05.000</property>
  <property name="kdenlive:folderid">55</property>
  <property name="kdenlive:id">65</property>
  <property name="kdenlive:file_size">1804105</property>
  <property name="kdenlive:file_hash">a11b49c30bedd9d6fb3de093b9c61e18</property>
 </producer>
 <producer id="producer59" in="00:00:00.000" out="00:00:38.633">
  <property name="length">1160</property>
  <property name="eof">pause</property>
  <property name="resource">/home/ryankelln/.cache/kdenlive/proxy/864b2f97137a4fbecddc2412ff0656f6.mkv</property>
  <property name="audio_index">-1</property>
  <property name="video_index">0</property>
  <property name="mute_on_pause">0</property>
  <property name="mlt_service">avformat-novalidate</property>
  <property name="seekable">1</property>
  <property name="aspect_ratio">1</property>
  <property name="kdenlive:clipname">2020-10-24_HighPark_swan+water+trees_2-swan_flap.MP4</property>
  <property name="kdenlive:folderid">55</property>
  <property name="kdenlive:id">66</property>
  <property name="kdenlive:file_size">186431617</property>
  <property name="kdenlive:file_hash">864b2f97137a4fbecddc2412ff0656f6</property>
  <property name="kdenlive:proxy">/home/ryankelln/.cache/kdenlive/proxy/864b2f97137a4fbecddc2412ff0656f6.mkv</property>
  <property name="kdenlive:originalurl">content/footage/2020-10-24_HighPark_swan+water+trees_2-swan_flap.MP4</property>
  <property name="kdenlive:original.mlt_type">producer</property>
  <property name="kdenlive:original.in">0</property>
  <property name="kdenlive:original.out">1159</property>
  <property name="kdenlive:original.length">1160</property>
  <property name="kdenlive:original.eof">pause</property>
  <property name="kdenlive:original.resource">content/footage/2020-10-24_HighPark_swan+water+trees_2-swan_flap.MP4</property>
  <property name="kdenlive:original.meta.media.nb_streams">2</property>
  <property name="kdenlive:original.meta.media.0.stream.type">video</property>
  <property name="kdenlive:original.meta.media.0.stream.frame_rate">24</property>
  <property name="kdenlive:original.meta.media.0.stream.sample_aspect_ratio">1</property>
  <property name="kdenlive:original.meta.media.0.codec.width">1920</property>
  <property name="kdenlive:original.meta.media.0.codec.height">1080</property>
  <property name="kdenlive:original.meta.media.0.codec.rotate">0</property>
  <property name="kdenlive:original.meta.media.0.codec.frame_rate">24</property>
  <property name="kdenlive:original.meta.media.0.codec.pix_fmt">yuv420p</property>
  <property name="kdenlive:original.meta.media.0.codec.sample_aspect_ratio">1</property>
  <property name="kdenlive:original.meta.media.0.codec.colorspace">709</property>
  <property name="kdenlive:original.meta.media.0.codec.color_trc">1</property>
  <property name="kdenlive:original.meta.media.0.codec.name">h264</property>
  <property name="kdenlive:original.meta.media.0.codec.long_name">H.264 / AVC / MPEG-4 AVC / MPEG-4 part 10</property>
  <property name="kdenlive:original.meta.media.0.codec.bit_rate">38569029</property>
  <property name="kdenlive:original.meta.attr.0.stream.creation_time.markup">2020-10-24T09:09:43.000000Z</property>
  <property name="kdenlive:original.meta.attr.0.stream.handler_name.markup">VideoHandler</property>
  <property name="kdenlive:original.meta.attr.0.stream.timecode.markup">14:24:43:15</property>
  <property name="kdenlive:original.meta.attr.compatible_brands.markup">mp42avc1</property>
  <property name="kdenlive:original.meta.attr.major_brand.markup">mp42</property>
  <property name="kdenlive:original.meta.attr.minor_version.markup">1</property>
  <property name="kdenlive:original.meta.attr.creation_time.markup">2020-10-24T09:09:43.000000Z</property>
  <property name="kdenlive:original.meta.attr.encoder.markup">Lavf58.45.100</property>
  <property name="kdenlive:original.seekable">1</property>
  <property name="kdenlive:original.width">1920</property>
  <property name="kdenlive:original.height">1080</property>
  <property name="kdenlive:original.meta.media.sample_aspect_num">1</property>
  <property name="kdenlive:original.meta.media.sample_aspect_den">1</property>
  <property name="kdenlive:original.aspect_ratio">1</property>
  <property name="kdenlive:original.audio_index">-1</property>
  <property name="kdenlive:original.video_index">0</property>
  <property name="kdenlive:original.mute_on_pause">0</property>
  <property name="kdenlive:original.mlt_service">avformat-novalidate</property>
  <property name="kdenlive:original.kdenlive:folderid">55</property>
  <property name="kdenlive:original.meta.media.frame_rate_num">24</property>
  <property name="kdenlive:original.meta.media.frame_rate_den">1</property>
  <property name="kdenlive:original.meta.media.colorspace">709</property>
  <property name="kdenlive:original.meta.media.color_trc">1</property>
  <property name="kdenlive:original.meta.media.width">1920</property>
  <property name="kdenlive:original.meta.media.height">1080</property>
  <property name="kdenlive:original.meta.media.color_range">mpeg</property>
  <property name="kdenlive:original.kdenlive:id">90</property>
  <property name="kdenlive:original.kdenlive:file_size">186431617</property>
  <property name="kdenlive:original.kdenlive:file_hash">864b2f97137a4fbecddc2412ff0656f6</property>
  <property name="kdenlive:original.backup">1</property>
  <property name="global_feed">1</property>
  <property name="meta.media.nb_streams">1</property>
  <property name="meta.media.0.stream.type">video</property>
  <property name="meta.media.0.stream.frame_rate">24</property>
  <property name="meta.media.0.stream.sample_aspect_ratio">1</property>
  <property name="meta.media.0.codec.width">640</property>
  <property name="meta.media.0.codec.height">360</property>
  <property name="meta.media.0.codec.rotate">0</property>
  <property name="meta.media.0.codec.frame_rate">1000</property>
  <property name="meta.media.0.codec.pix_fmt">yuvj420p</property>
  <property name="meta.media.0.codec.sample_aspect_ratio">1</property>
  <property name="meta.media.0.codec.colorspace">601</property>
  <property name="meta.media.0.codec.name">mjpeg</property>
  <property name="meta.media.0.codec.long_name">MJPEG (Motion JPEG)</property>
  <property name="meta.media.0.codec.bit_rate">0</property>
  <property name="meta.attr.0.stream.HANDLER_NAME.markup">VideoHandler</property>
  <property name="meta.attr.0.stream.TIMECODE.markup">14:24:43:15</property>
  <property name="meta.attr.0.stream.ENCODER.markup">Lavc58.91.100 mjpeg</property>
  <property name="meta.attr.0.stream.DURATION.markup">00:00:38.792000000</property>
  <property name="meta.attr.MINOR_VERSION.markup">1</property>
  <property name="meta.attr.COMPATIBLE_BRANDS.markup">mp42avc1</property>
  <property name="meta.attr.MAJOR_BRAND.markup">mp42</property>
  <property name="meta.attr.ENCODER.markup">Lavf58.45.100</property>
  <property name="meta.media.sample_aspect_num">1</property>
  <property name="meta.media.sample_aspect_den">1</property>
  <property name="meta.media.frame_rate_num">24</property>
  <property name="meta.media.frame_rate_den">1</property>
  <property name="meta.media.colorspace">601</property>
  <property name="meta.media.color_trc">2</property>
  <property name="meta.media.width">640</property>
  <property name="meta.media.height">360</property>
  <property name="meta.media.color_range">full</property>
  <property name="meta.media.top_field_first">0</property>
  <property name="meta.media.progressive">1</property>
  <property name="kdenlive:zone_in">765</property>
  <property name="kdenlive:zone_out">996</property>
  <property name="kdenlive:clipzones">[
    {
        "in": 369,
        "name": "Zone 1",
        "out": 782
    },
    {
        "in": 765,
        "name": "Zone 2",
        "out": 996
    }
]
</property>
 </producer>
 <producer id="producer60" in="00:00:00.000" out="00:00:27.400">
  <property name="length">823</property>
  <property name="eof">pause</property>
  <property name="resource">/home/ryankelln/.cache/kdenlive/proxy/52e013de9c7ccff16cf29529eaabec00.mkv</property>
  <property name="audio_index">-1</property>
  <property name="video_index">0</property>
  <property name="mute_on_pause">0</property>
  <property name="mlt_service">avformat-novalidate</property>
  <property name="seekable">1</property>
  <property name="aspect_ratio">1</property>
  <property name="kdenlive:clipname">Meet the Locals - Ruru-vZSda4jaBMY-owl.mp4</property>
  <property name="kdenlive:folderid">55</property>
  <property name="kdenlive:id">67</property>
  <property name="kdenlive:file_size">9383606</property>
  <property name="kdenlive:file_hash">52e013de9c7ccff16cf29529eaabec00</property>
  <property name="kdenlive:proxy">/home/ryankelln/.cache/kdenlive/proxy/52e013de9c7ccff16cf29529eaabec00.mkv</property>
  <property name="kdenlive:originalurl">content/footage/Meet the Locals - Ruru-vZSda4jaBMY-owl.mp4</property>
  <property name="kdenlive:original.mlt_type">producer</property>
  <property name="kdenlive:original.in">0</property>
  <property name="kdenlive:original.out">822</property>
  <property name="kdenlive:original.length">823</property>
  <property name="kdenlive:original.eof">pause</property>
  <property name="kdenlive:original.resource">content/footage/Meet the Locals - Ruru-vZSda4jaBMY-owl.mp4</property>
  <property name="kdenlive:original.meta.media.nb_streams">1</property>
  <property name="kdenlive:original.meta.media.0.stream.type">video</property>
  <property name="kdenlive:original.meta.media.0.stream.frame_rate">25</property>
  <property name="kdenlive:original.meta.media.0.stream.sample_aspect_ratio">1</property>
  <property name="kdenlive:original.meta.media.0.codec.width">1920</property>
  <property name="kdenlive:original.meta.media.0.codec.height">1080</property>
  <property name="kdenlive:original.meta.media.0.codec.rotate">0</property>
  <property name="kdenlive:original.meta.media.0.codec.frame_rate">25</property>
  <property name="kdenlive:original.meta.media.0.codec.pix_fmt">yuv420p</property>
  <property name="kdenlive:original.meta.media.0.codec.sample_aspect_ratio">1</property>
  <property name="kdenlive:original.meta.media.0.codec.colorspace">709</property>
  <property name="kdenlive:original.meta.media.0.codec.color_trc">1</property>
  <property name="kdenlive:original.meta.media.0.codec.name">h264</property>
  <property name="kdenlive:original.meta.media.0.codec.long_name">H.264 / AVC / MPEG-4 AVC / MPEG-4 part 10</property>
  <property name="kdenlive:original.meta.media.0.codec.bit_rate">2733816</property>
  <property name="kdenlive:original.meta.attr.0.stream.handler_name.markup">ISO Media file produced by Google Inc.</property>
  <property name="kdenlive:original.meta.attr.minor_version.markup">512</property>
  <property name="kdenlive:original.meta.attr.major_brand.markup">isom</property>
  <property name="kdenlive:original.meta.attr.compatible_brands.markup">isomiso2avc1mp41</property>
  <property name="kdenlive:original.meta.attr.encoder.markup">Lavf58.45.100</property>
  <property name="kdenlive:original.seekable">1</property>
  <property name="kdenlive:original.width">1920</property>
  <property name="kdenlive:original.height">1080</property>
  <property name="kdenlive:original.meta.media.sample_aspect_num">1</property>
  <property name="kdenlive:original.meta.media.sample_aspect_den">1</property>
  <property name="kdenlive:original.aspect_ratio">1</property>
  <property name="kdenlive:original.audio_index">-1</property>
  <property name="kdenlive:original.video_index">0</property>
  <property name="kdenlive:original.mute_on_pause">0</property>
  <property name="kdenlive:original.mlt_service">avformat-novalidate</property>
  <property name="kdenlive:original.kdenlive:folderid">55</property>
  <property name="kdenlive:original.meta.media.frame_rate_num">25</property>
  <property name="kdenlive:original.meta.media.frame_rate_den">1</property>
  <property name="kdenlive:original.meta.media.colorspace">709</property>
  <property name="kdenlive:original.meta.media.color_trc">1</property>
  <property name="kdenlive:original.meta.media.width">1920</property>
  <property name="kdenlive:original.meta.media.height">1080</property>
  <property name="kdenlive:original.meta.media.color_range">mpeg</property>
  <property name="kdenlive:original.kdenlive:id">92</property>
  <property name="kdenlive:original.kdenlive:file_size">9383606</property>
  <property name="kdenlive:original.kdenlive:file_hash">52e013de9c7ccff16cf29529eaabec00</property>
  <property name="kdenlive:original.backup">1</property>
  <property name="global_feed">1</property>
  <property name="meta.media.nb_streams">1</property>
  <property name="meta.media.0.stream.type">video</property>
  <property name="meta.media.0.stream.frame_rate">25</property>
  <property name="meta.media.0.stream.sample_aspect_ratio">1</property>
  <property name="meta.media.0.codec.width">640</property>
  <property name="meta.media.0.codec.height">360</property>
  <property name="meta.media.0.codec.rotate">0</property>
  <property name="meta.media.0.codec.frame_rate">1000</property>
  <property name="meta.media.0.codec.pix_fmt">yuvj420p</property>
  <property name="meta.media.0.codec.sample_aspect_ratio">1</property>
  <property name="meta.media.0.codec.colorspace">601</property>
  <property name="meta.media.0.codec.name">mjpeg</property>
  <property name="meta.media.0.codec.long_name">MJPEG (Motion JPEG)</property>
  <property name="meta.media.0.codec.bit_rate">0</property>
  <property name="meta.attr.0.stream.HANDLER_NAME.markup">ISO Media file produced by Google Inc.</property>
  <property name="meta.attr.0.stream.ENCODER.markup">Lavc58.91.100 mjpeg</property>
  <property name="meta.attr.0.stream.DURATION.markup">00:00:27.440000000</property>
  <property name="meta.attr.COMPATIBLE_BRANDS.markup">isomiso2avc1mp41</property>
  <property name="meta.attr.MINOR_VERSION.markup">512</property>
  <property name="meta.attr.MAJOR_BRAND.markup">isom</property>
  <property name="meta.attr.ENCODER.markup">Lavf58.45.100</property>
  <property name="meta.media.sample_aspect_num">1</property>
  <property name="meta.media.sample_aspect_den">1</property>
  <property name="meta.media.frame_rate_num">25</property>
  <property name="meta.media.frame_rate_den">1</property>
  <property name="meta.media.colorspace">601</property>
  <property name="meta.media.color_trc">2</property>
  <property name="meta.media.width">640</property>
  <property name="meta.media.height">360</property>
  <property name="meta.media.color_range">full</property>
  <property name="meta.media.top_field_first">0</property>
  <property name="meta.media.progressive">1</property>
  <property name="kdenlive:zone_in">296</property>
  <property name="kdenlive:zone_out">421</property>
  <property name="kdenlive:clipzones">[
    {
        "in": 296,
        "name": "owl look",
        "out": 421
    }
]
</property>
 </producer>
 <producer id="producer61" in="00:00:00.000" out="00:00:03.000">
  <property name="length">91</property>
  <property name="eof">pause</property>
  <property name="resource">content/ai/faith_is_the_bird.1008.mp4</property>
  <property name="audio_index">-1</property>
  <property name="video_index">0</property>
  <property name="mute_on_pause">0</property>
  <property name="mlt_service">avformat-novalidate</property>
  <property name="meta.media.nb_streams">1</property>
  <property name="meta.media.0.stream.type">video</property>
  <property name="meta.media.0.stream.frame_rate">30</property>
  <property name="meta.media.0.stream.sample_aspect_ratio">0</property>
  <property name="meta.media.0.codec.width">512</property>
  <property name="meta.media.0.codec.height">512</property>
  <property name="meta.media.0.codec.rotate">0</property>
  <property name="meta.media.0.codec.frame_rate">30</property>
  <property name="meta.media.0.codec.pix_fmt">yuv444p</property>
  <property name="meta.media.0.codec.sample_aspect_ratio">0</property>
  <property name="meta.media.0.codec.colorspace">601</property>
  <property name="meta.media.0.codec.name">h264</property>
  <property name="meta.media.0.codec.long_name">H.264 / AVC / MPEG-4 AVC / MPEG-4 part 10</property>
  <property name="meta.media.0.codec.bit_rate">3540759</property>
  <property name="meta.attr.0.stream.handler_name.markup">VideoHandler</property>
  <property name="meta.attr.major_brand.markup">isom</property>
  <property name="meta.attr.minor_version.markup">512</property>
  <property name="meta.attr.compatible_brands.markup">isomiso2avc1mp41</property>
  <property name="meta.attr.encoder.markup">Lavf58.76.100</property>
  <property name="seekable">1</property>
  <property name="meta.media.sample_aspect_num">1</property>
  <property name="meta.media.sample_aspect_den">1</property>
  <property name="aspect_ratio">1</property>
  <property name="kdenlive:clipname"/>
  <property name="kdenlive:folderid">71</property>
  <property name="meta.media.frame_rate_num">30</property>
  <property name="meta.media.frame_rate_den">1</property>
  <property name="meta.media.colorspace">601</property>
  <property name="meta.media.color_trc">2</property>
  <property name="meta.media.width">512</property>
  <property name="meta.media.height">512</property>
  <property name="meta.media.color_range">mpeg</property>
  <property name="kdenlive:id">68</property>
  <property name="kdenlive:file_size">1344427</property>
  <property name="kdenlive:file_hash">a3ea7b0fec21dd5c4479ac0e7445c3ef</property>
  <property name="meta.media.top_field_first">0</property>
  <property name="meta.media.progressive">1</property>
  <property name="global_feed">1</property>
 </producer>
 <producer id="producer62" in="00:00:00.000" out="00:00:03.000">
  <property name="length">91</property>
  <property name="eof">pause</property>
  <property name="resource">content/ai/learn_from_one_bird.1017.mp4</property>
  <property name="audio_index">-1</property>
  <property name="video_index">0</property>
  <property name="mute_on_pause">0</property>
  <property name="mlt_service">avformat-novalidate</property>
  <property name="meta.media.nb_streams">1</property>
  <property name="meta.media.0.stream.type">video</property>
  <property name="meta.media.0.stream.frame_rate">30</property>
  <property name="meta.media.0.stream.sample_aspect_ratio">0</property>
  <property name="meta.media.0.codec.width">512</property>
  <property name="meta.media.0.codec.height">512</property>
  <property name="meta.media.0.codec.rotate">0</property>
  <property name="meta.media.0.codec.frame_rate">30</property>
  <property name="meta.media.0.codec.pix_fmt">yuv444p</property>
  <property name="meta.media.0.codec.sample_aspect_ratio">0</property>
  <property name="meta.media.0.codec.colorspace">601</property>
  <property name="meta.media.0.codec.name">h264</property>
  <property name="meta.media.0.codec.long_name">H.264 / AVC / MPEG-4 AVC / MPEG-4 part 10</property>
  <property name="meta.media.0.codec.bit_rate">2419843</property>
  <property name="meta.attr.0.stream.handler_name.markup">VideoHandler</property>
  <property name="meta.attr.major_brand.markup">isom</property>
  <property name="meta.attr.minor_version.markup">512</property>
  <property name="meta.attr.compatible_brands.markup">isomiso2avc1mp41</property>
  <property name="meta.attr.encoder.markup">Lavf58.76.100</property>
  <property name="seekable">1</property>
  <property name="meta.media.sample_aspect_num">1</property>
  <property name="meta.media.sample_aspect_den">1</property>
  <property name="aspect_ratio">1</property>
  <property name="kdenlive:clipname"/>
  <property name="kdenlive:folderid">71</property>
  <property name="meta.media.frame_rate_num">30</property>
  <property name="meta.media.frame_rate_den">1</property>
  <property name="meta.media.colorspace">601</property>
  <property name="meta.media.color_trc">2</property>
  <property name="meta.media.width">512</property>
  <property name="meta.media.height">512</property>
  <property name="meta.media.color_range">mpeg</property>
  <property name="kdenlive:id">69</property>
  <property name="kdenlive:file_size">919397</property>
  <property name="kdenlive:file_hash">069d35e55eefe8bc95769399122e68d5</property>
  <property name="meta.media.top_field_first">0</property>
  <property name="meta.media.progressive">1</property>
  <property name="global_feed">1</property>
 </producer>
 <producer id="producer63" in="00:00:00.000" out="00:00:03.000">
  <property name="length">91</property>
  <property name="eof">pause</property>
  <property name="resource">content/ai/reason_birds_can_fly.1007.mp4</property>
  <property name="audio_index">-1</property>
  <property name="video_index">0</property>
  <property name="mute_on_pause">0</property>
  <property name="mlt_service">avformat-novalidate</property>
  <property name="meta.media.nb_streams">1</property>
  <property name="meta.media.0.stream.type">video</property>
  <property name="meta.media.0.stream.frame_rate">30</property>
  <property name="meta.media.0.stream.sample_aspect_ratio">0</property>
  <property name="meta.media.0.codec.width">512</property>
  <property name="meta.media.0.codec.height">512</property>
  <property name="meta.media.0.codec.rotate">0</property>
  <property name="meta.media.0.codec.frame_rate">30</property>
  <property name="meta.media.0.codec.pix_fmt">yuv444p</property>
  <property name="meta.media.0.codec.sample_aspect_ratio">0</property>
  <property name="meta.media.0.codec.colorspace">601</property>
  <property name="meta.media.0.codec.name">h264</property>
  <property name="meta.media.0.codec.long_name">H.264 / AVC / MPEG-4 AVC / MPEG-4 part 10</property>
  <property name="meta.media.0.codec.bit_rate">2701537</property>
  <property name="meta.attr.0.stream.handler_name.markup">VideoHandler</property>
  <property name="meta.attr.major_brand.markup">isom</property>
  <property name="meta.attr.minor_version.markup">512</property>
  <property name="meta.attr.compatible_brands.markup">isomiso2avc1mp41</property>
  <property name="meta.attr.encoder.markup">Lavf58.76.100</property>
  <property name="seekable">1</property>
  <property name="meta.media.sample_aspect_num">1</property>
  <property name="meta.media.sample_aspect_den">1</property>
  <property name="aspect_ratio">1</property>
  <property name="kdenlive:clipname"/>
  <property name="kdenlive:folderid">71</property>
  <property name="meta.media.frame_rate_num">30</property>
  <property name="meta.media.frame_rate_den">1</property>
  <property name="meta.media.colorspace">601</property>
  <property name="meta.media.color_trc">2</property>
  <property name="meta.media.width">512</property>
  <property name="meta.media.height">512</property>
  <property name="meta.media.color_range">mpeg</property>
  <property name="kdenlive:id">70</property>
  <property name="kdenlive:file_size">1026022</property>
  <property name="kdenlive:file_hash">5ffc1fca8293c58418757761acc7bc07</property>
  <property name="meta.media.top_field_first">0</property>
  <property name="meta.media.progressive">1</property>
  <property name="global_feed">1</property>
 </producer>
 <producer id="producer66" in="00:00:00.000" out="00:00:03.000">
  <property name="length">91</property>
  <property name="eof">pause</property>
  <property name="resource">content/ai/become_the_silence.1015.mp4</property>
  <property name="audio_index">-1</property>
  <property name="video_index">0</property>
  <property name="mute_on_pause">0</property>
  <property name="mlt_service">avformat-novalidate</property>
  <property name="meta.media.nb_streams">1</property>
  <property name="meta.media.0.stream.type">video</property>
  <property name="meta.media.0.stream.frame_rate">30</property>
  <property name="meta.media.0.stream.sample_aspect_ratio">0</property>
  <property name="meta.media.0.codec.width">512</property>
  <property name="meta.media.0.codec.height">512</property>
  <property name="meta.media.0.codec.rotate">0</property>
  <property name="meta.media.0.codec.frame_rate">30</property>
  <property name="meta.media.0.codec.pix_fmt">yuv444p</property>
  <property name="meta.media.0.codec.sample_aspect_ratio">0</property>
  <property name="meta.media.0.codec.colorspace">601</property>
  <property name="meta.media.0.codec.name">h264</property>
  <property name="meta.media.0.codec.long_name">H.264 / AVC / MPEG-4 AVC / MPEG-4 part 10</property>
  <property name="meta.media.0.codec.bit_rate">3380690</property>
  <property name="meta.attr.0.stream.handler_name.markup">VideoHandler</property>
  <property name="meta.attr.major_brand.markup">isom</property>
  <property name="meta.attr.minor_version.markup">512</property>
  <property name="meta.attr.compatible_brands.markup">isomiso2avc1mp41</property>
  <property name="meta.attr.encoder.markup">Lavf58.76.100</property>
  <property name="seekable">1</property>
  <property name="meta.media.sample_aspect_num">1</property>
  <property name="meta.media.sample_aspect_den">1</property>
  <property name="aspect_ratio">1</property>
  <property name="kdenlive:clipname"/>
  <property name="kdenlive:folderid">71</property>
  <property name="meta.media.frame_rate_num">30</property>
  <property name="meta.media.frame_rate_den">1</property>
  <property name="meta.media.colorspace">601</property>
  <property name="meta.media.color_trc">2</property>
  <property name="meta.media.width">512</property>
  <property name="meta.media.height">512</property>
  <property name="meta.media.color_range">mpeg</property>
  <property name="kdenlive:id">72</property>
  <property name="kdenlive:file_size">1283638</property>
  <property name="kdenlive:file_hash">e97da10c6aaf20cbe1861e4d164744bf</property>
  <property name="meta.media.top_field_first">0</property>
  <property name="meta.media.progressive">1</property>
  <property name="global_feed">1</property>
 </producer>
 <producer id="producer67" in="00:00:00.000" out="00:00:03.000">
  <property name="length">91</property>
  <property name="eof">pause</property>
  <property name="resource">content/ai/hold_fast_to_dreams.1004.mp4</property>
  <property name="audio_index">-1</property>
  <property name="video_index">0</property>
  <property name="mute_on_pause">0</property>
  <property name="mlt_service">avformat-novalidate</property>
  <property name="meta.media.nb_streams">1</property>
  <property name="meta.media.0.stream.type">video</property>
  <property name="meta.media.0.stream.frame_rate">30</property>
  <property name="meta.media.0.stream.sample_aspect_ratio">0</property>
  <property name="meta.media.0.codec.width">512</property>
  <property name="meta.media.0.codec.height">512</property>
  <property name="meta.media.0.codec.rotate">0</property>
  <property name="meta.media.0.codec.frame_rate">30</property>
  <property name="meta.media.0.codec.pix_fmt">yuv444p</property>
  <property name="meta.media.0.codec.sample_aspect_ratio">0</property>
  <property name="meta.media.0.codec.colorspace">601</property>
  <property name="meta.media.0.codec.name">h264</property>
  <property name="meta.media.0.codec.long_name">H.264 / AVC / MPEG-4 AVC / MPEG-4 part 10</property>
  <property name="meta.media.0.codec.bit_rate">3126859</property>
  <property name="meta.attr.0.stream.handler_name.markup">VideoHandler</property>
  <property name="meta.attr.major_brand.markup">isom</property>
  <property name="meta.attr.minor_version.markup">512</property>
  <property name="meta.attr.compatible_brands.markup">isomiso2avc1mp41</property>
  <property name="meta.attr.encoder.markup">Lavf58.76.100</property>
  <property name="seekable">1</property>
  <property name="meta.media.sample_aspect_num">1</property>
  <property name="meta.media.sample_aspect_den">1</property>
  <property name="aspect_ratio">1</property>
  <property name="kdenlive:clipname"/>
  <property name="kdenlive:folderid">71</property>
  <property name="meta.media.frame_rate_num">30</property>
  <property name="meta.media.frame_rate_den">1</property>
  <property name="meta.media.colorspace">601</property>
  <property name="meta.media.color_trc">2</property>
  <property name="meta.media.width">512</property>
  <property name="meta.media.height">512</property>
  <property name="meta.media.color_range">mpeg</property>
  <property name="kdenlive:id">73</property>
  <property name="kdenlive:file_size">1187498</property>
  <property name="kdenlive:file_hash">e92d748267a104556c9f82404b62f462</property>
  <property name="meta.media.top_field_first">0</property>
  <property name="meta.media.progressive">1</property>
  <property name="global_feed">1</property>
 </producer>
 <producer id="producer68" in="00:00:00.000" out="00:00:03.000">
  <property name="length">91</property>
  <property name="eof">pause</property>
  <property name="resource">content/ai/learn_from_one_bird.1005.mp4</property>
  <property name="audio_index">-1</property>
  <property name="video_index">0</property>
  <property name="mute_on_pause">0</property>
  <property name="mlt_service">avformat-novalidate</property>
  <property name="meta.media.nb_streams">1</property>
  <property name="meta.media.0.stream.type">video</property>
  <property name="meta.media.0.stream.frame_rate">30</property>
  <property name="meta.media.0.stream.sample_aspect_ratio">0</property>
  <property name="meta.media.0.codec.width">512</property>
  <property name="meta.media.0.codec.height">512</property>
  <property name="meta.media.0.codec.rotate">0</property>
  <property name="meta.media.0.codec.frame_rate">30</property>
  <property name="meta.media.0.codec.pix_fmt">yuv444p</property>
  <property name="meta.media.0.codec.sample_aspect_ratio">0</property>
  <property name="meta.media.0.codec.colorspace">601</property>
  <property name="meta.media.0.codec.name">h264</property>
  <property name="meta.media.0.codec.long_name">H.264 / AVC / MPEG-4 AVC / MPEG-4 part 10</property>
  <property name="meta.media.0.codec.bit_rate">7149528</property>
  <property name="meta.attr.0.stream.handler_name.markup">VideoHandler</property>
  <property name="meta.attr.major_brand.markup">isom</property>
  <property name="meta.attr.minor_version.markup">512</property>
  <property name="meta.attr.compatible_brands.markup">isomiso2avc1mp41</property>
  <property name="meta.attr.encoder.markup">Lavf58.76.100</property>
  <property name="seekable">1</property>
  <property name="meta.media.sample_aspect_num">1</property>
  <property name="meta.media.sample_aspect_den">1</property>
  <property name="aspect_ratio">1</property>
  <property name="kdenlive:clipname"/>
  <property name="kdenlive:folderid">71</property>
  <property name="meta.media.frame_rate_num">30</property>
  <property name="meta.media.frame_rate_den">1</property>
  <property name="meta.media.colorspace">601</property>
  <property name="meta.media.color_trc">2</property>
  <property name="meta.media.width">512</property>
  <property name="meta.media.height">512</property>
  <property name="meta.media.color_range">mpeg</property>
  <property name="kdenlive:id">74</property>
  <property name="kdenlive:file_size">2712616</property>
  <property name="kdenlive:file_hash">dbc4245f37403bd9fa232715e8dfd161</property>
  <property name="meta.media.top_field_first">0</property>
  <property name="meta.media.progressive">1</property>
  <property name="global_feed">1</property>
 </producer>
 <producer id="producer69" in="00:00:00.000" out="00:00:03.000">
  <property name="length">91</property>
  <property name="eof">pause</property>
  <property name="resource">content/ai/reason_birds_can_fly.1001.mp4</property>
  <property name="audio_index">-1</property>
  <property name="video_index">0</property>
  <property name="mute_on_pause">0</property>
  <property name="mlt_service">avformat-novalidate</property>
  <property name="meta.media.nb_streams">1</property>
  <property name="meta.media.0.stream.type">video</property>
  <property name="meta.media.0.stream.frame_rate">30</property>
  <property name="meta.media.0.stream.sample_aspect_ratio">0</property>
  <property name="meta.media.0.codec.width">512</property>
  <property name="meta.media.0.codec.height">512</property>
  <property name="meta.media.0.codec.rotate">0</property>
  <property name="meta.media.0.codec.frame_rate">30</property>
  <property name="meta.media.0.codec.pix_fmt">yuv444p</property>
  <property name="meta.media.0.codec.sample_aspect_ratio">0</property>
  <property name="meta.media.0.codec.colorspace">601</property>
  <property name="meta.media.0.codec.name">h264</property>
  <property name="meta.media.0.codec.long_name">H.264 / AVC / MPEG-4 AVC / MPEG-4 part 10</property>
  <property name="meta.media.0.codec.bit_rate">3371651</property>
  <property name="meta.attr.0.stream.handler_name.markup">VideoHandler</property>
  <property name="meta.attr.major_brand.markup">isom</property>
  <property name="meta.attr.minor_version.markup">512</property>
  <property name="meta.attr.compatible_brands.markup">isomiso2avc1mp41</property>
  <property name="meta.attr.encoder.markup">Lavf58.76.100</property>
  <property name="seekable">1</property>
  <property name="meta.media.sample_aspect_num">1</property>
  <property name="meta.media.sample_aspect_den">1</property>
  <property name="aspect_ratio">1</property>
  <property name="kdenlive:clipname"/>
  <property name="kdenlive:folderid">71</property>
  <property name="meta.media.frame_rate_num">30</property>
  <property name="meta.media.frame_rate_den">1</property>
  <property name="meta.media.colorspace">601</property>
  <property name="meta.media.color_trc">2</property>
  <property name="meta.media.width">512</property>
  <property name="meta.media.height">512</property>
  <property name="meta.media.color_range">mpeg</property>
  <property name="kdenlive:id">75</property>
  <property name="kdenlive:file_size">1280291</property>
  <property name="kdenlive:file_hash">06dabbb3971d1536e4c9994da31a1cb0</property>
  <property name="meta.media.top_field_first">0</property>
  <property name="meta.media.progressive">1</property>
  <property name="global_feed">1</property>
 </producer>
 <producer id="producer70" in="00:00:00.000" out="00:00:03.000">
  <property name="length">91</property>
  <property name="eof">pause</property>
  <property name="resource">content/ai/hold_fast_to_dreams.1016.mp4</property>
  <property name="audio_index">-1</property>
  <property name="video_index">0</property>
  <property name="mute_on_pause">0</property>
  <property name="mlt_service">avformat-novalidate</property>
  <property name="meta.media.nb_streams">1</property>
  <property name="meta.media.0.stream.type">video</property>
  <property name="meta.media.0.stream.frame_rate">30</property>
  <property name="meta.media.0.stream.sample_aspect_ratio">0</property>
  <property name="meta.media.0.codec.width">512</property>
  <property name="meta.media.0.codec.height">512</property>
  <property name="meta.media.0.codec.rotate">0</property>
  <property name="meta.media.0.codec.frame_rate">30</property>
  <property name="meta.media.0.codec.pix_fmt">yuv444p</property>
  <property name="meta.media.0.codec.sample_aspect_ratio">0</property>
  <property name="meta.media.0.codec.colorspace">601</property>
  <property name="meta.media.0.codec.name">h264</property>
  <property name="meta.media.0.codec.long_name">H.264 / AVC / MPEG-4 AVC / MPEG-4 part 10</property>
  <property name="meta.media.0.codec.bit_rate">3581432</property>
  <property name="meta.attr.0.stream.handler_name.markup">VideoHandler</property>
  <property name="meta.attr.major_brand.markup">isom</property>
  <property name="meta.attr.minor_version.markup">512</property>
  <property name="meta.attr.compatible_brands.markup">isomiso2avc1mp41</property>
  <property name="meta.attr.encoder.markup">Lavf58.76.100</property>
  <property name="seekable">1</property>
  <property name="meta.media.sample_aspect_num">1</property>
  <property name="meta.media.sample_aspect_den">1</property>
  <property name="aspect_ratio">1</property>
  <property name="kdenlive:clipname"/>
  <property name="kdenlive:folderid">71</property>
  <property name="meta.media.frame_rate_num">30</property>
  <property name="meta.media.frame_rate_den">1</property>
  <property name="meta.media.colorspace">601</property>
  <property name="meta.media.color_trc">2</property>
  <property name="meta.media.width">512</property>
  <property name="meta.media.height">512</property>
  <property name="meta.media.color_range">mpeg</property>
  <property name="kdenlive:id">76</property>
  <property name="kdenlive:file_size">1359849</property>
  <property name="kdenlive:file_hash">f88c3dcf175666a9558cc12ce52f72f6</property>
  <property name="meta.media.top_field_first">0</property>
  <property name="meta.media.progressive">1</property>
  <property name="global_feed">1</property>
 </producer>
 <producer id="producer71" in="00:00:00.000" out="00:00:03.000">
  <property name="length">91</property>
  <property name="eof">pause</property>
  <property name="resource">content/ai/become_the_silence.1003.mp4</property>
  <property name="audio_index">-1</property>
  <property name="video_index">0</property>
  <property name="mute_on_pause">0</property>
  <property name="mlt_service">avformat-novalidate</property>
  <property name="meta.media.nb_streams">1</property>
  <property name="meta.media.0.stream.type">video</property>
  <property name="meta.media.0.stream.frame_rate">30</property>
  <property name="meta.media.0.stream.sample_aspect_ratio">0</property>
  <property name="meta.media.0.codec.width">512</property>
  <property name="meta.media.0.codec.height">512</property>
  <property name="meta.media.0.codec.rotate">0</property>
  <property name="meta.media.0.codec.frame_rate">30</property>
  <property name="meta.media.0.codec.pix_fmt">yuv444p</property>
  <property name="meta.media.0.codec.sample_aspect_ratio">0</property>
  <property name="meta.media.0.codec.colorspace">601</property>
  <property name="meta.media.0.codec.name">h264</property>
  <property name="meta.media.0.codec.long_name">H.264 / AVC / MPEG-4 AVC / MPEG-4 part 10</property>
  <property name="meta.media.0.codec.bit_rate">1507321</property>
  <property name="meta.attr.0.stream.handler_name.markup">VideoHandler</property>
  <property name="meta.attr.major_brand.markup">isom</property>
  <property name="meta.attr.minor_version.markup">512</property>
  <property name="meta.attr.compatible_brands.markup">isomiso2avc1mp41</property>
  <property name="meta.attr.encoder.markup">Lavf58.76.100</property>
  <property name="seekable">1</property>
  <property name="meta.media.sample_aspect_num">1</property>
  <property name="meta.media.sample_aspect_den">1</property>
  <property name="aspect_ratio">1</property>
  <property name="kdenlive:clipname"/>
  <property name="kdenlive:folderid">71</property>
  <property name="meta.media.frame_rate_num">30</property>
  <property name="meta.media.frame_rate_den">1</property>
  <property name="meta.media.colorspace">601</property>
  <property name="meta.media.color_trc">2</property>
  <property name="meta.media.width">512</property>
  <property name="meta.media.height">512</property>
  <property name="meta.media.color_range">mpeg</property>
  <property name="kdenlive:id">77</property>
  <property name="kdenlive:file_size">573343</property>
  <property name="kdenlive:file_hash">0ac80fb75f8ac36eddd3d0d178fb1103</property>
  <property name="meta.media.top_field_first">0</property>
  <property name="meta.media.progressive">1</property>
  <property name="global_feed">1</property>
 </producer>
 <producer id="producer72" in="00:00:00.000" out="00:00:03.000">
  <property name="length">91</property>
  <property name="eof">pause</property>
  <property name="resource">content/ai/become_the_silence.1009.mp4</property>
  <property name="audio_index">-1</property>
  <property name="video_index">0</property>
  <property name="mute_on_pause">0</property>
  <property name="mlt_service">avformat-novalidate</property>
  <property name="meta.media.nb_streams">1</property>
  <property name="meta.media.0.stream.type">video</property>
  <property name="meta.media.0.stream.frame_rate">30</property>
  <property name="meta.media.0.stream.sample_aspect_ratio">0</property>
  <property name="meta.media.0.codec.width">512</property>
  <property name="meta.media.0.codec.height">512</property>
  <property name="meta.media.0.codec.rotate">0</property>
  <property name="meta.media.0.codec.frame_rate">30</property>
  <property name="meta.media.0.codec.pix_fmt">yuv444p</property>
  <property name="meta.media.0.codec.sample_aspect_ratio">0</property>
  <property name="meta.media.0.codec.colorspace">601</property>
  <property name="meta.media.0.codec.name">h264</property>
  <property name="meta.media.0.codec.long_name">H.264 / AVC / MPEG-4 AVC / MPEG-4 part 10</property>
  <property name="meta.media.0.codec.bit_rate">2030676</property>
  <property name="meta.attr.0.stream.handler_name.markup">VideoHandler</property>
  <property name="meta.attr.major_brand.markup">isom</property>
  <property name="meta.attr.minor_version.markup">512</property>
  <property name="meta.attr.compatible_brands.markup">isomiso2avc1mp41</property>
  <property name="meta.attr.encoder.markup">Lavf58.76.100</property>
  <property name="seekable">1</property>
  <property name="meta.media.sample_aspect_num">1</property>
  <property name="meta.media.sample_aspect_den">1</property>
  <property name="aspect_ratio">1</property>
  <property name="kdenlive:clipname"/>
  <property name="kdenlive:folderid">71</property>
  <property name="meta.media.frame_rate_num">30</property>
  <property name="meta.media.frame_rate_den">1</property>
  <property name="meta.media.colorspace">601</property>
  <property name="meta.media.color_trc">2</property>
  <property name="meta.media.width">512</property>
  <property name="meta.media.height">512</property>
  <property name="meta.media.color_range">mpeg</property>
  <property name="kdenlive:id">78</property>
  <property name="kdenlive:file_size">771750</property>
  <property name="kdenlive:file_hash">1bd4df51e7acaed1f6b5be16f54d79f9</property>
  <property name="meta.media.top_field_first">0</property>
  <property name="meta.media.progressive">1</property>
  <property name="global_feed">1</property>
 </producer>
 <producer id="producer73" in="00:00:00.000" out="00:00:03.000">
  <property name="length">91</property>
  <property name="eof">pause</property>
  <property name="resource">content/ai/learn_from_one_bird.1011.mp4</property>
  <property name="audio_index">-1</property>
  <property name="video_index">0</property>
  <property name="mute_on_pause">0</property>
  <property name="mlt_service">avformat-novalidate</property>
  <property name="meta.media.nb_streams">1</property>
  <property name="meta.media.0.stream.type">video</property>
  <property name="meta.media.0.stream.frame_rate">30</property>
  <property name="meta.media.0.stream.sample_aspect_ratio">0</property>
  <property name="meta.media.0.codec.width">512</property>
  <property name="meta.media.0.codec.height">512</property>
  <property name="meta.media.0.codec.rotate">0</property>
  <property name="meta.media.0.codec.frame_rate">30</property>
  <property name="meta.media.0.codec.pix_fmt">yuv444p</property>
  <property name="meta.media.0.codec.sample_aspect_ratio">0</property>
  <property name="meta.media.0.codec.colorspace">601</property>
  <property name="meta.media.0.codec.name">h264</property>
  <property name="meta.media.0.codec.long_name">H.264 / AVC / MPEG-4 AVC / MPEG-4 part 10</property>
  <property name="meta.media.0.codec.bit_rate">2086219</property>
  <property name="meta.attr.0.stream.handler_name.markup">VideoHandler</property>
  <property name="meta.attr.major_brand.markup">isom</property>
  <property name="meta.attr.minor_version.markup">512</property>
  <property name="meta.attr.compatible_brands.markup">isomiso2avc1mp41</property>
  <property name="meta.attr.encoder.markup">Lavf58.76.100</property>
  <property name="seekable">1</property>
  <property name="meta.media.sample_aspect_num">1</property>
  <property name="meta.media.sample_aspect_den">1</property>
  <property name="aspect_ratio">1</property>
  <property name="kdenlive:clipname"/>
  <property name="kdenlive:folderid">71</property>
  <property name="meta.media.frame_rate_num">30</property>
  <property name="meta.media.frame_rate_den">1</property>
  <property name="meta.media.colorspace">601</property>
  <property name="meta.media.color_trc">2</property>
  <property name="meta.media.width">512</property>
  <property name="meta.media.height">512</property>
  <property name="meta.media.color_range">mpeg</property>
  <property name="kdenlive:id">79</property>
  <property name="kdenlive:file_size">792778</property>
  <property name="kdenlive:file_hash">aa894605a3c9e9fcdfd3fdebdc79bf2c</property>
  <property name="meta.media.top_field_first">0</property>
  <property name="meta.media.progressive">1</property>
  <property name="global_feed">1</property>
 </producer>
 <producer id="producer74" in="00:00:00.000" out="00:00:04.967">
  <property name="length">00:00:05.000</property>
  <property name="eof">pause</property>
  <property name="resource">content/ai/jackson_bird_brained-f006963.png</property>
  <property name="ttl">25</property>
  <property name="aspect_ratio">1</property>
  <property name="progressive">1</property>
  <property name="seekable">1</property>
  <property name="meta.media.width">1920</property>
  <property name="meta.media.height">1080</property>
  <property name="mlt_service">qimage</property>
  <property name="kdenlive:clipname"/>
  <property name="kdenlive:duration">00:00:05.000</property>
  <property name="kdenlive:folderid">71</property>
  <property name="kdenlive:id">80</property>
  <property name="kdenlive:file_size">2686712</property>
  <property name="kdenlive:file_hash">8e2dccb7ee14addc4c892ff906abcd8d</property>
 </producer>
 <producer id="producer75" in="00:00:00.000" out="00:00:51.833">
  <property name="length">1556</property>
  <property name="eof">pause</property>
  <property name="resource">/home/ryankelln/.cache/kdenlive/proxy/1e429c3d88a4078b7a293ea92c3b379a.mkv</property>
  <property name="audio_index">1</property>
  <property name="video_index">0</property>
  <property name="mute_on_pause">0</property>
  <property name="mlt_service">avformat-novalidate</property>
  <property name="seekable">1</property>
  <property name="aspect_ratio">1</property>
  <property name="kdenlive:clipname">BirdsOnThePost.mp4</property>
  <property name="kdenlive:folderid">55</property>
  <property name="kdenlive:id">81</property>
  <property name="kdenlive:file_size">292463923</property>
  <property name="kdenlive:file_hash">1e429c3d88a4078b7a293ea92c3b379a</property>
  <property name="kdenlive:proxy">/home/ryankelln/.cache/kdenlive/proxy/1e429c3d88a4078b7a293ea92c3b379a.mkv</property>
  <property name="kdenlive:originalurl">content/footage/BirdsOnThePost.mp4</property>
  <property name="kdenlive:original.mlt_type">producer</property>
  <property name="kdenlive:original.in">0</property>
  <property name="kdenlive:original.out">1555</property>
  <property name="kdenlive:original.length">1556</property>
  <property name="kdenlive:original.eof">pause</property>
  <property name="kdenlive:original.resource">content/footage/BirdsOnThePost.mp4</property>
  <property name="kdenlive:original.meta.media.nb_streams">2</property>
  <property name="kdenlive:original.meta.media.0.stream.type">video</property>
  <property name="kdenlive:original.meta.media.0.stream.frame_rate">23.976</property>
  <property name="kdenlive:original.meta.media.0.stream.sample_aspect_ratio">0</property>
  <property name="kdenlive:original.meta.media.0.codec.width">1920</property>
  <property name="kdenlive:original.meta.media.0.codec.height">1080</property>
  <property name="kdenlive:original.meta.media.0.codec.rotate">0</property>
  <property name="kdenlive:original.meta.media.0.codec.frame_rate">23.976</property>
  <property name="kdenlive:original.meta.media.0.codec.pix_fmt">yuv420p</property>
  <property name="kdenlive:original.meta.media.0.codec.sample_aspect_ratio">1</property>
  <property name="kdenlive:original.meta.media.0.codec.colorspace">709</property>
  <property name="kdenlive:original.meta.media.0.codec.name">h264</property>
  <property name="kdenlive:original.meta.media.0.codec.long_name">H.264 / AVC / MPEG-4 AVC / MPEG-4 part 10</property>
  <property name="kdenlive:original.meta.media.0.codec.bit_rate">44999815</property>
  <property name="kdenlive:original.meta.attr.0.stream.creation_time.markup">2011-09-09T18:44:36.000000Z</property>
  <property name="kdenlive:original.meta.attr.0.stream.language.markup">eng</property>
  <property name="kdenlive:original.meta.attr.0.stream.handler_name.markup">Mainconcept MP4 Video Media Handler</property>
  <property name="kdenlive:original.meta.attr.0.stream.encoder.markup">AVC Coding</property>
  <property name="kdenlive:original.meta.media.1.stream.type">audio</property>
  <property name="kdenlive:original.meta.media.1.codec.sample_fmt">fltp</property>
  <property name="kdenlive:original.meta.media.1.codec.sample_rate">48000</property>
  <property name="kdenlive:original.meta.media.1.codec.channels">2</property>
  <property name="kdenlive:original.meta.media.1.codec.name">aac</property>
  <property name="kdenlive:original.meta.media.1.codec.long_name">AAC (Advanced Audio Coding)</property>
  <property name="kdenlive:original.meta.media.1.codec.bit_rate">125375</property>
  <property name="kdenlive:original.meta.attr.1.stream.creation_time.markup">2011-09-09T18:44:36.000000Z</property>
  <property name="kdenlive:original.meta.attr.1.stream.language.markup">eng</property>
  <property name="kdenlive:original.meta.attr.1.stream.handler_name.markup">Mainconcept MP4 Sound Media Handler</property>
  <property name="kdenlive:original.meta.attr.major_brand.markup">mp42</property>
  <property name="kdenlive:original.meta.attr.minor_version.markup">0</property>
  <property name="kdenlive:original.meta.attr.compatible_brands.markup">mp42mp41</property>
  <property name="kdenlive:original.meta.attr.creation_time.markup">2011-09-09T18:44:36.000000Z</property>
  <property name="kdenlive:original.seekable">1</property>
  <property name="kdenlive:original.width">1920</property>
  <property name="kdenlive:original.height">1080</property>
  <property name="kdenlive:original.meta.media.sample_aspect_num">1</property>
  <property name="kdenlive:original.meta.media.sample_aspect_den">1</property>
  <property name="kdenlive:original.aspect_ratio">1</property>
  <property name="kdenlive:original.audio_index">1</property>
  <property name="kdenlive:original.video_index">0</property>
  <property name="kdenlive:original.mute_on_pause">0</property>
  <property name="kdenlive:original.mlt_service">avformat-novalidate</property>
  <property name="kdenlive:original.kdenlive:folderid">55</property>
  <property name="kdenlive:original.meta.media.frame_rate_num">2997</property>
  <property name="kdenlive:original.meta.media.frame_rate_den">125</property>
  <property name="kdenlive:original.meta.media.colorspace">709</property>
  <property name="kdenlive:original.meta.media.color_trc">2</property>
  <property name="kdenlive:original.meta.media.width">1920</property>
  <property name="kdenlive:original.meta.media.height">1080</property>
  <property name="kdenlive:original.meta.media.color_range">mpeg</property>
  <property name="kdenlive:original.kdenlive:id">105</property>
  <property name="kdenlive:original.kdenlive:file_size">292463923</property>
  <property name="kdenlive:original.kdenlive:file_hash">1e429c3d88a4078b7a293ea92c3b379a</property>
  <property name="kdenlive:original.backup">1</property>
  <property name="kdenlive:active_streams">-1</property>
  <property name="global_feed">1</property>
  <property name="meta.media.nb_streams">2</property>
  <property name="meta.media.0.stream.type">video</property>
  <property name="meta.media.0.stream.frame_rate">23.976</property>
  <property name="meta.media.0.stream.sample_aspect_ratio">1</property>
  <property name="meta.media.0.codec.width">640</property>
  <property name="meta.media.0.codec.height">360</property>
  <property name="meta.media.0.codec.rotate">0</property>
  <property name="meta.media.0.codec.frame_rate">1000</property>
  <property name="meta.media.0.codec.pix_fmt">yuvj420p</property>
  <property name="meta.media.0.codec.sample_aspect_ratio">1</property>
  <property name="meta.media.0.codec.colorspace">601</property>
  <property name="meta.media.0.codec.name">mjpeg</property>
  <property name="meta.media.0.codec.long_name">MJPEG (Motion JPEG)</property>
  <property name="meta.media.0.codec.bit_rate">0</property>
  <property name="meta.attr.0.stream.language.markup">eng</property>
  <property name="meta.attr.0.stream.HANDLER_NAME.markup">Mainconcept MP4 Video Media Handler</property>
  <property name="meta.attr.0.stream.ENCODER.markup">Lavc58.91.100 mjpeg</property>
  <property name="meta.attr.0.stream.DURATION.markup">00:00:51.802000000</property>
  <property name="meta.media.1.stream.type">audio</property>
  <property name="meta.media.1.codec.sample_fmt">s16</property>
  <property name="meta.media.1.codec.sample_rate">48000</property>
  <property name="meta.media.1.codec.channels">2</property>
  <property name="meta.media.1.codec.name">pcm_s16le</property>
  <property name="meta.media.1.codec.long_name">PCM signed 16-bit little-endian</property>
  <property name="meta.media.1.codec.bit_rate">1536000</property>
  <property name="meta.attr.1.stream.language.markup">eng</property>
  <property name="meta.attr.1.stream.HANDLER_NAME.markup">Mainconcept MP4 Sound Media Handler</property>
  <property name="meta.attr.1.stream.ENCODER.markup">Lavc58.91.100 pcm_s16le</property>
  <property name="meta.attr.1.stream.DURATION.markup">00:00:51.861000000</property>
  <property name="meta.attr.COMPATIBLE_BRANDS.markup">mp42mp41</property>
  <property name="meta.attr.MAJOR_BRAND.markup">mp42</property>
  <property name="meta.attr.MINOR_VERSION.markup">0</property>
  <property name="meta.attr.ENCODER.markup">Lavf58.45.100</property>
  <property name="meta.media.sample_aspect_num">1</property>
  <property name="meta.media.sample_aspect_den">1</property>
  <property name="meta.media.frame_rate_num">2997</property>
  <property name="meta.media.frame_rate_den">125</property>
  <property name="meta.media.colorspace">601</property>
  <property name="meta.media.color_trc">2</property>
  <property name="meta.media.width">640</property>
  <property name="meta.media.height">360</property>
  <property name="meta.media.color_range">full</property>
  <property name="meta.media.top_field_first">0</property>
  <property name="meta.media.progressive">1</property>
 </producer>
 <producer id="producer76" in="00:00:00.000" out="00:00:50.933">
  <property name="length">1529</property>
  <property name="eof">pause</property>
  <property name="resource">/home/ryankelln/.cache/kdenlive/proxy/53c2d99471d560fb6698cd5b94f7c9de.mkv</property>
  <property name="audio_index">-1</property>
  <property name="video_index">0</property>
  <property name="mute_on_pause">0</property>
  <property name="mlt_service">avformat-novalidate</property>
  <property name="seekable">1</property>
  <property name="aspect_ratio">1</property>
  <property name="kdenlive:clipname">boids_1.mp4</property>
  <property name="kdenlive:folderid">-1</property>
  <property name="kdenlive:id">106</property>
  <property name="kdenlive:file_size">4809414</property>
  <property name="kdenlive:file_hash">53c2d99471d560fb6698cd5b94f7c9de</property>
  <property name="kdenlive:proxy">/home/ryankelln/.cache/kdenlive/proxy/53c2d99471d560fb6698cd5b94f7c9de.mkv</property>
  <property name="kdenlive:originalurl">/home/ryankelln/Documents/Projects/Active/Sound_Escapes/Jackson/boid_recordings/boids_1.mp4</property>
  <property name="kdenlive:original.mlt_type">producer</property>
  <property name="kdenlive:original.in">0</property>
  <property name="kdenlive:original.out">1528</property>
  <property name="kdenlive:original.length">1529</property>
  <property name="kdenlive:original.eof">pause</property>
  <property name="kdenlive:original.resource">/home/ryankelln/Documents/Projects/Active/Sound_Escapes/Jackson/boid_recordings/boids_1.mp4</property>
  <property name="kdenlive:original.meta.media.nb_streams">1</property>
  <property name="kdenlive:original.meta.media.0.stream.type">video</property>
  <property name="kdenlive:original.meta.media.0.stream.frame_rate">30</property>
  <property name="kdenlive:original.meta.media.0.stream.sample_aspect_ratio">0</property>
  <property name="kdenlive:original.meta.media.0.codec.width">1920</property>
  <property name="kdenlive:original.meta.media.0.codec.height">1080</property>
  <property name="kdenlive:original.meta.media.0.codec.rotate">0</property>
  <property name="kdenlive:original.meta.media.0.codec.frame_rate">30</property>
  <property name="kdenlive:original.meta.media.0.codec.pix_fmt">yuv420p</property>
  <property name="kdenlive:original.meta.media.0.codec.sample_aspect_ratio">1</property>
  <property name="kdenlive:original.meta.media.0.codec.colorspace">709</property>
  <property name="kdenlive:original.meta.media.0.codec.color_trc">1</property>
  <property name="kdenlive:original.meta.media.0.codec.name">h264</property>
  <property name="kdenlive:original.meta.media.0.codec.long_name">H.264 / AVC / MPEG-4 AVC / MPEG-4 part 10</property>
  <property name="kdenlive:original.meta.media.0.codec.bit_rate">752500</property>
  <property name="kdenlive:original.meta.attr.0.stream.handler_name.markup">VideoHandler</property>
  <property name="kdenlive:original.meta.attr.major_brand.markup">isom</property>
  <property name="kdenlive:original.meta.attr.minor_version.markup">512</property>
  <property name="kdenlive:original.meta.attr.compatible_brands.markup">isomiso2avc1mp41</property>
  <property name="kdenlive:original.meta.attr.encoder.markup">Lavf56.40.101</property>
  <property name="kdenlive:original.seekable">1</property>
  <property name="kdenlive:original.width">1920</property>
  <property name="kdenlive:original.height">1080</property>
  <property name="kdenlive:original.meta.media.sample_aspect_num">1</property>
  <property name="kdenlive:original.meta.media.sample_aspect_den">1</property>
  <property name="kdenlive:original.aspect_ratio">1</property>
  <property name="kdenlive:original.audio_index">-1</property>
  <property name="kdenlive:original.video_index">0</property>
  <property name="kdenlive:original.mute_on_pause">0</property>
  <property name="kdenlive:original.mlt_service">avformat-novalidate</property>
  <property name="kdenlive:original.kdenlive:folderid">-1</property>
  <property name="kdenlive:original.meta.media.frame_rate_num">30</property>
  <property name="kdenlive:original.meta.media.frame_rate_den">1</property>
  <property name="kdenlive:original.meta.media.colorspace">709</property>
  <property name="kdenlive:original.meta.media.color_trc">1</property>
  <property name="kdenlive:original.meta.media.width">1920</property>
  <property name="kdenlive:original.meta.media.height">1080</property>
  <property name="kdenlive:original.meta.media.color_range">mpeg</property>
  <property name="kdenlive:original.kdenlive:id">106</property>
  <property name="kdenlive:original.kdenlive:file_size">4809414</property>
  <property name="kdenlive:original.kdenlive:file_hash">53c2d99471d560fb6698cd5b94f7c9de</property>
  <property name="kdenlive:original.backup">1</property>
  <property name="kdenlive:zone_in">342</property>
  <property name="kdenlive:zone_out">1469</property>
  <property name="global_feed">1</property>
  <property name="meta.media.nb_streams">1</property>
  <property name="meta.media.0.stream.type">video</property>
  <property name="meta.media.0.stream.frame_rate">30</property>
  <property name="meta.media.0.stream.sample_aspect_ratio">1</property>
  <property name="meta.media.0.codec.width">640</property>
  <property name="meta.media.0.codec.height">360</property>
  <property name="meta.media.0.codec.rotate">0</property>
  <property name="meta.media.0.codec.frame_rate">1000</property>
  <property name="meta.media.0.codec.pix_fmt">yuvj420p</property>
  <property name="meta.media.0.codec.sample_aspect_ratio">1</property>
  <property name="meta.media.0.codec.colorspace">601</property>
  <property name="meta.media.0.codec.name">mjpeg</property>
  <property name="meta.media.0.codec.long_name">MJPEG (Motion JPEG)</property>
  <property name="meta.media.0.codec.bit_rate">0</property>
  <property name="meta.attr.0.stream.HANDLER_NAME.markup">VideoHandler</property>
  <property name="meta.attr.0.stream.ENCODER.markup">Lavc58.91.100 mjpeg</property>
  <property name="meta.attr.0.stream.DURATION.markup">00:00:50.966000000</property>
  <property name="meta.attr.COMPATIBLE_BRANDS.markup">isomiso2avc1mp41</property>
  <property name="meta.attr.MAJOR_BRAND.markup">isom</property>
  <property name="meta.attr.MINOR_VERSION.markup">512</property>
  <property name="meta.attr.ENCODER.markup">Lavf58.45.100</property>
  <property name="meta.media.sample_aspect_num">1</property>
  <property name="meta.media.sample_aspect_den">1</property>
  <property name="meta.media.frame_rate_num">30</property>
  <property name="meta.media.frame_rate_den">1</property>
  <property name="meta.media.colorspace">601</property>
  <property name="meta.media.color_trc">2</property>
  <property name="meta.media.width">640</property>
  <property name="meta.media.height">360</property>
  <property name="meta.media.color_range">full</property>
  <property name="meta.media.top_field_first">0</property>
  <property name="meta.media.progressive">1</property>
  <property name="kdenlive:clipzones">[
    {
        "in": 342,
        "name": "Zone 1",
        "out": 1469
    }
]
</property>
 </producer>
 <producer id="producer77" in="00:00:00.000" out="00:01:39.800">
  <property name="length">2995</property>
  <property name="eof">pause</property>
  <property name="resource">/home/ryankelln/.cache/kdenlive/proxy/9145a5a92dfaa149c1e7ffc9b1d1753a.mkv</property>
  <property name="audio_index">-1</property>
  <property name="video_index">0</property>
  <property name="mute_on_pause">0</property>
  <property name="mlt_service">avformat-novalidate</property>
  <property name="seekable">1</property>
  <property name="aspect_ratio">1</property>
  <property name="kdenlive:clipname">boids_3.mp4</property>
  <property name="kdenlive:folderid">-1</property>
  <property name="kdenlive:id">109</property>
  <property name="kdenlive:file_size">10952992</property>
  <property name="kdenlive:file_hash">9145a5a92dfaa149c1e7ffc9b1d1753a</property>
  <property name="kdenlive:proxy">/home/ryankelln/.cache/kdenlive/proxy/9145a5a92dfaa149c1e7ffc9b1d1753a.mkv</property>
  <property name="kdenlive:originalurl">/home/ryankelln/Documents/Projects/Active/Sound_Escapes/Jackson/boid_recordings/boids_3.mp4</property>
  <property name="kdenlive:original.mlt_type">producer</property>
  <property name="kdenlive:original.in">0</property>
  <property name="kdenlive:original.out">2994</property>
  <property name="kdenlive:original.length">2995</property>
  <property name="kdenlive:original.eof">pause</property>
  <property name="kdenlive:original.resource">/home/ryankelln/Documents/Projects/Active/Sound_Escapes/Jackson/boid_recordings/boids_3.mp4</property>
  <property name="kdenlive:original.meta.media.nb_streams">1</property>
  <property name="kdenlive:original.meta.media.0.stream.type">video</property>
  <property name="kdenlive:original.meta.media.0.stream.frame_rate">30</property>
  <property name="kdenlive:original.meta.media.0.stream.sample_aspect_ratio">0</property>
  <property name="kdenlive:original.meta.media.0.codec.width">1920</property>
  <property name="kdenlive:original.meta.media.0.codec.height">1080</property>
  <property name="kdenlive:original.meta.media.0.codec.rotate">0</property>
  <property name="kdenlive:original.meta.media.0.codec.frame_rate">30</property>
  <property name="kdenlive:original.meta.media.0.codec.pix_fmt">yuv420p</property>
  <property name="kdenlive:original.meta.media.0.codec.sample_aspect_ratio">1</property>
  <property name="kdenlive:original.meta.media.0.codec.colorspace">709</property>
  <property name="kdenlive:original.meta.media.0.codec.color_trc">1</property>
  <property name="kdenlive:original.meta.media.0.codec.name">h264</property>
  <property name="kdenlive:original.meta.media.0.codec.long_name">H.264 / AVC / MPEG-4 AVC / MPEG-4 part 10</property>
  <property name="kdenlive:original.meta.media.0.codec.bit_rate">875327</property>
  <property name="kdenlive:original.meta.attr.0.stream.handler_name.markup">VideoHandler</property>
  <property name="kdenlive:original.meta.attr.major_brand.markup">isom</property>
  <property name="kdenlive:original.meta.attr.minor_version.markup">512</property>
  <property name="kdenlive:original.meta.attr.compatible_brands.markup">isomiso2avc1mp41</property>
  <property name="kdenlive:original.meta.attr.encoder.markup">Lavf56.40.101</property>
  <property name="kdenlive:original.seekable">1</property>
  <property name="kdenlive:original.width">1920</property>
  <property name="kdenlive:original.height">1080</property>
  <property name="kdenlive:original.meta.media.sample_aspect_num">1</property>
  <property name="kdenlive:original.meta.media.sample_aspect_den">1</property>
  <property name="kdenlive:original.aspect_ratio">1</property>
  <property name="kdenlive:original.audio_index">-1</property>
  <property name="kdenlive:original.video_index">0</property>
  <property name="kdenlive:original.mute_on_pause">0</property>
  <property name="kdenlive:original.mlt_service">avformat-novalidate</property>
  <property name="kdenlive:original.kdenlive:folderid">-1</property>
  <property name="kdenlive:original.meta.media.frame_rate_num">30</property>
  <property name="kdenlive:original.meta.media.frame_rate_den">1</property>
  <property name="kdenlive:original.meta.media.colorspace">709</property>
  <property name="kdenlive:original.meta.media.color_trc">1</property>
  <property name="kdenlive:original.meta.media.width">1920</property>
  <property name="kdenlive:original.meta.media.height">1080</property>
  <property name="kdenlive:original.meta.media.color_range">mpeg</property>
  <property name="kdenlive:original.kdenlive:id">109</property>
  <property name="kdenlive:original.kdenlive:file_size">10952992</property>
  <property name="kdenlive:original.kdenlive:file_hash">9145a5a92dfaa149c1e7ffc9b1d1753a</property>
  <property name="kdenlive:original.backup">1</property>
  <property name="global_feed">1</property>
  <property name="meta.media.nb_streams">1</property>
  <property name="meta.media.0.stream.type">video</property>
  <property name="meta.media.0.stream.frame_rate">30</property>
  <property name="meta.media.0.stream.sample_aspect_ratio">1</property>
  <property name="meta.media.0.codec.width">640</property>
  <property name="meta.media.0.codec.height">360</property>
  <property name="meta.media.0.codec.rotate">0</property>
  <property name="meta.media.0.codec.frame_rate">1000</property>
  <property name="meta.media.0.codec.pix_fmt">yuvj420p</property>
  <property name="meta.media.0.codec.sample_aspect_ratio">1</property>
  <property name="meta.media.0.codec.colorspace">601</property>
  <property name="meta.media.0.codec.name">mjpeg</property>
  <property name="meta.media.0.codec.long_name">MJPEG (Motion JPEG)</property>
  <property name="meta.media.0.codec.bit_rate">0</property>
  <property name="meta.attr.0.stream.HANDLER_NAME.markup">VideoHandler</property>
  <property name="meta.attr.0.stream.ENCODER.markup">Lavc58.91.100 mjpeg</property>
  <property name="meta.attr.0.stream.DURATION.markup">00:01:39.833000000</property>
  <property name="meta.attr.COMPATIBLE_BRANDS.markup">isomiso2avc1mp41</property>
  <property name="meta.attr.MAJOR_BRAND.markup">isom</property>
  <property name="meta.attr.MINOR_VERSION.markup">512</property>
  <property name="meta.attr.ENCODER.markup">Lavf58.45.100</property>
  <property name="meta.media.sample_aspect_num">1</property>
  <property name="meta.media.sample_aspect_den">1</property>
  <property name="meta.media.frame_rate_num">30</property>
  <property name="meta.media.frame_rate_den">1</property>
  <property name="meta.media.colorspace">601</property>
  <property name="meta.media.color_trc">2</property>
  <property name="meta.media.width">640</property>
  <property name="meta.media.height">360</property>
  <property name="meta.media.color_range">full</property>
  <property name="meta.media.top_field_first">0</property>
  <property name="meta.media.progressive">1</property>
 </producer>
 <producer id="producer78" in="00:00:00.000" out="00:01:52.100">
  <property name="length">3364</property>
  <property name="eof">pause</property>
  <property name="resource">/home/ryankelln/.cache/kdenlive/proxy/a98a08ae4c8fff70d6cc3eecb51e8c51.mkv</property>
  <property name="audio_index">-1</property>
  <property name="video_index">0</property>
  <property name="mute_on_pause">0</property>
  <property name="mlt_service">avformat-novalidate</property>
  <property name="seekable">1</property>
  <property name="aspect_ratio">1</property>
  <property name="kdenlive:clipname">boids_2.mp4</property>
  <property name="kdenlive:folderid">-1</property>
  <property name="kdenlive:id">108</property>
  <property name="kdenlive:file_size">13052701</property>
  <property name="kdenlive:file_hash">a98a08ae4c8fff70d6cc3eecb51e8c51</property>
  <property name="kdenlive:proxy">/home/ryankelln/.cache/kdenlive/proxy/a98a08ae4c8fff70d6cc3eecb51e8c51.mkv</property>
  <property name="kdenlive:originalurl">/home/ryankelln/Documents/Projects/Active/Sound_Escapes/Jackson/boid_recordings/boids_2.mp4</property>
  <property name="kdenlive:original.mlt_type">producer</property>
  <property name="kdenlive:original.in">0</property>
  <property name="kdenlive:original.out">3363</property>
  <property name="kdenlive:original.length">3364</property>
  <property name="kdenlive:original.eof">pause</property>
  <property name="kdenlive:original.resource">/home/ryankelln/Documents/Projects/Active/Sound_Escapes/Jackson/boid_recordings/boids_2.mp4</property>
  <property name="kdenlive:original.meta.media.nb_streams">1</property>
  <property name="kdenlive:original.meta.media.0.stream.type">video</property>
  <property name="kdenlive:original.meta.media.0.stream.frame_rate">30</property>
  <property name="kdenlive:original.meta.media.0.stream.sample_aspect_ratio">0</property>
  <property name="kdenlive:original.meta.media.0.codec.width">1920</property>
  <property name="kdenlive:original.meta.media.0.codec.height">1080</property>
  <property name="kdenlive:original.meta.media.0.codec.rotate">0</property>
  <property name="kdenlive:original.meta.media.0.codec.frame_rate">30</property>
  <property name="kdenlive:original.meta.media.0.codec.pix_fmt">yuv420p</property>
  <property name="kdenlive:original.meta.media.0.codec.sample_aspect_ratio">1</property>
  <property name="kdenlive:original.meta.media.0.codec.colorspace">709</property>
  <property name="kdenlive:original.meta.media.0.codec.color_trc">1</property>
  <property name="kdenlive:original.meta.media.0.codec.name">h264</property>
  <property name="kdenlive:original.meta.media.0.codec.long_name">H.264 / AVC / MPEG-4 AVC / MPEG-4 part 10</property>
  <property name="kdenlive:original.meta.media.0.codec.bit_rate">929001</property>
  <property name="kdenlive:original.meta.attr.0.stream.handler_name.markup">VideoHandler</property>
  <property name="kdenlive:original.meta.attr.major_brand.markup">isom</property>
  <property name="kdenlive:original.meta.attr.minor_version.markup">512</property>
  <property name="kdenlive:original.meta.attr.compatible_brands.markup">isomiso2avc1mp41</property>
  <property name="kdenlive:original.meta.attr.encoder.markup">Lavf56.40.101</property>
  <property name="kdenlive:original.seekable">1</property>
  <property name="kdenlive:original.width">1920</property>
  <property name="kdenlive:original.height">1080</property>
  <property name="kdenlive:original.meta.media.sample_aspect_num">1</property>
  <property name="kdenlive:original.meta.media.sample_aspect_den">1</property>
  <property name="kdenlive:original.aspect_ratio">1</property>
  <property name="kdenlive:original.audio_index">-1</property>
  <property name="kdenlive:original.video_index">0</property>
  <property name="kdenlive:original.mute_on_pause">0</property>
  <property name="kdenlive:original.mlt_service">avformat-novalidate</property>
  <property name="kdenlive:original.kdenlive:folderid">-1</property>
  <property name="kdenlive:original.meta.media.frame_rate_num">30</property>
  <property name="kdenlive:original.meta.media.frame_rate_den">1</property>
  <property name="kdenlive:original.meta.media.colorspace">709</property>
  <property name="kdenlive:original.meta.media.color_trc">1</property>
  <property name="kdenlive:original.meta.media.width">1920</property>
  <property name="kdenlive:original.meta.media.height">1080</property>
  <property name="kdenlive:original.meta.media.color_range">mpeg</property>
  <property name="kdenlive:original.kdenlive:id">108</property>
  <property name="kdenlive:original.kdenlive:file_size">13052701</property>
  <property name="kdenlive:original.kdenlive:file_hash">a98a08ae4c8fff70d6cc3eecb51e8c51</property>
  <property name="kdenlive:original.backup">1</property>
  <property name="global_feed">1</property>
  <property name="meta.media.nb_streams">1</property>
  <property name="meta.media.0.stream.type">video</property>
  <property name="meta.media.0.stream.frame_rate">30</property>
  <property name="meta.media.0.stream.sample_aspect_ratio">1</property>
  <property name="meta.media.0.codec.width">640</property>
  <property name="meta.media.0.codec.height">360</property>
  <property name="meta.media.0.codec.rotate">0</property>
  <property name="meta.media.0.codec.frame_rate">1000</property>
  <property name="meta.media.0.codec.pix_fmt">yuvj420p</property>
  <property name="meta.media.0.codec.sample_aspect_ratio">1</property>
  <property name="meta.media.0.codec.colorspace">601</property>
  <property name="meta.media.0.codec.name">mjpeg</property>
  <property name="meta.media.0.codec.long_name">MJPEG (Motion JPEG)</property>
  <property name="meta.media.0.codec.bit_rate">0</property>
  <property name="meta.attr.0.stream.HANDLER_NAME.markup">VideoHandler</property>
  <property name="meta.attr.0.stream.ENCODER.markup">Lavc58.91.100 mjpeg</property>
  <property name="meta.attr.0.stream.DURATION.markup">00:01:52.133000000</property>
  <property name="meta.attr.COMPATIBLE_BRANDS.markup">isomiso2avc1mp41</property>
  <property name="meta.attr.MAJOR_BRAND.markup">isom</property>
  <property name="meta.attr.MINOR_VERSION.markup">512</property>
  <property name="meta.attr.ENCODER.markup">Lavf58.45.100</property>
  <property name="meta.media.sample_aspect_num">1</property>
  <property name="meta.media.sample_aspect_den">1</property>
  <property name="meta.media.frame_rate_num">30</property>
  <property name="meta.media.frame_rate_den">1</property>
  <property name="meta.media.colorspace">601</property>
  <property name="meta.media.color_trc">2</property>
  <property name="meta.media.width">640</property>
  <property name="meta.media.height">360</property>
  <property name="meta.media.color_range">full</property>
 </producer>
 <producer id="producer79" in="00:00:00.000" out="00:00:07.700">
  <property name="length">232</property>
  <property name="eof">pause</property>
  <property name="resource">content/ai/An_ostrich_playing_an_upright_bass_in_a_jazz_club_--_bird_playing_music_--_artstation.1008.best.large.jpg</property>
  <property name="ttl">25</property>
  <property name="aspect_ratio">1</property>
  <property name="progressive">1</property>
  <property name="seekable">1</property>
  <property name="meta.media.width">2048</property>
  <property name="meta.media.height">2048</property>
  <property name="mlt_service">qimage</property>
  <property name="kdenlive:clipname"/>
  <property name="kdenlive:duration">00:00:05.000</property>
  <property name="kdenlive:folderid">71</property>
  <property name="kdenlive:id">110</property>
  <property name="kdenlive:file_size">1953385</property>
  <property name="kdenlive:file_hash">60a8ea2127d26b3518e444c7c6968d32</property>
  <property name="global_feed">1</property>
 </producer>
 <producer id="producer80" in="00:00:00.000" out="00:00:06.233">
  <property name="length">188</property>
  <property name="eof">pause</property>
  <property name="resource">/home/ryankelln/Documents/Projects/Active/Sound_Escapes/Jackson/big_sleep/An_ostrich_playing_an_upright_bass_in_a_jazz_club_--_bird_playing_music_--_artstation.1015.best.large.jpg</property>
  <property name="ttl">25</property>
  <property name="aspect_ratio">1</property>
  <property name="progressive">1</property>
  <property name="seekable">1</property>
  <property name="meta.media.width">2048</property>
  <property name="meta.media.height">2048</property>
  <property name="mlt_service">qimage</property>
  <property name="kdenlive:clipname"/>
  <property name="kdenlive:duration">00:00:05.000</property>
  <property name="kdenlive:folderid">71</property>
  <property name="kdenlive:id">111</property>
  <property name="kdenlive:file_size">2047370</property>
  <property name="kdenlive:file_hash">a26604f682db679fa88a3d7e31b328a9</property>
  <property name="global_feed">1</property>
 </producer>
 <producer id="producer81" in="00:00:00.000" out="00:00:04.967">
  <property name="length">00:00:05.000</property>
  <property name="eof">pause</property>
  <property name="resource">content/footage/jackson_bird_brained-end_freeze-f009546.png</property>
  <property name="ttl">25</property>
  <property name="aspect_ratio">1</property>
  <property name="progressive">1</property>
  <property name="seekable">1</property>
  <property name="meta.media.width">1920</property>
  <property name="meta.media.height">1080</property>
  <property name="mlt_service">qimage</property>
  <property name="kdenlive:clipname"/>
  <property name="kdenlive:duration">00:00:05.000</property>
  <property name="kdenlive:folderid">71</property>
  <property name="kdenlive:id">112</property>
  <property name="kdenlive:file_size">373214</property>
  <property name="kdenlive:file_hash">da0505083a81aed6840864b089677b74</property>
 </producer>
 <producer id="producer82" in="00:00:00.000" out="00:00:03.000">
  <property name="length">91</property>
  <property name="eof">pause</property>
  <property name="resource">content/ai/bird_caleb.507.mp4</property>
  <property name="meta.media.nb_streams">1</property>
  <property name="meta.media.0.stream.type">video</property>
  <property name="meta.media.0.stream.frame_rate">30</property>
  <property name="meta.media.0.stream.sample_aspect_ratio">0</property>
  <property name="meta.media.0.codec.width">512</property>
  <property name="meta.media.0.codec.height">512</property>
  <property name="meta.media.0.codec.rotate">0</property>
  <property name="meta.media.0.codec.frame_rate">30</property>
  <property name="meta.media.0.codec.pix_fmt">yuv444p</property>
  <property name="meta.media.0.codec.sample_aspect_ratio">0</property>
  <property name="meta.media.0.codec.colorspace">601</property>
  <property name="meta.media.0.codec.name">h264</property>
  <property name="meta.media.0.codec.long_name">H.264 / AVC / MPEG-4 AVC / MPEG-4 part 10</property>
  <property name="meta.media.0.codec.bit_rate">3498023</property>
  <property name="meta.attr.0.stream.handler_name.markup">VideoHandler</property>
  <property name="meta.attr.major_brand.markup">isom</property>
  <property name="meta.attr.minor_version.markup">512</property>
  <property name="meta.attr.compatible_brands.markup">isomiso2avc1mp41</property>
  <property name="meta.attr.encoder.markup">Lavf58.76.100</property>
  <property name="seekable">1</property>
  <property name="meta.media.sample_aspect_num">1</property>
  <property name="meta.media.sample_aspect_den">1</property>
  <property name="aspect_ratio">1</property>
  <property name="audio_index">-1</property>
  <property name="video_index">0</property>
  <property name="mute_on_pause">0</property>
  <property name="mlt_service">avformat-novalidate</property>
  <property name="kdenlive:clipname"/>
  <property name="kdenlive:folderid">71</property>
  <property name="meta.media.frame_rate_num">30</property>
  <property name="meta.media.frame_rate_den">1</property>
  <property name="meta.media.colorspace">601</property>
  <property name="meta.media.color_trc">2</property>
  <property name="meta.media.width">512</property>
  <property name="meta.media.height">512</property>
  <property name="meta.media.color_range">mpeg</property>
  <property name="kdenlive:id">113</property>
  <property name="kdenlive:file_size">1328135</property>
  <property name="kdenlive:file_hash">013364620de1407214f4b59d7d337d1d</property>
  <property name="meta.media.top_field_first">0</property>
  <property name="meta.media.progressive">1</property>
 </producer>
 <producer id="producer83" in="00:00:00.000" out="00:00:03.000">
  <property name="length">91</property>
  <property name="eof">pause</property>
  <property name="resource">content/ai/bird_jackson.506.mp4</property>
  <property name="meta.media.nb_streams">1</property>
  <property name="meta.media.0.stream.type">video</property>
  <property name="meta.media.0.stream.frame_rate">30</property>
  <property name="meta.media.0.stream.sample_aspect_ratio">0</property>
  <property name="meta.media.0.codec.width">512</property>
  <property name="meta.media.0.codec.height">512</property>
  <property name="meta.media.0.codec.rotate">0</property>
  <property name="meta.media.0.codec.frame_rate">30</property>
  <property name="meta.media.0.codec.pix_fmt">yuv444p</property>
  <property name="meta.media.0.codec.sample_aspect_ratio">0</property>
  <property name="meta.media.0.codec.colorspace">601</property>
  <property name="meta.media.0.codec.name">h264</property>
  <property name="meta.media.0.codec.long_name">H.264 / AVC / MPEG-4 AVC / MPEG-4 part 10</property>
  <property name="meta.media.0.codec.bit_rate">2586116</property>
  <property name="meta.attr.0.stream.handler_name.markup">VideoHandler</property>
  <property name="meta.attr.major_brand.markup">isom</property>
  <property name="meta.attr.minor_version.markup">512</property>
  <property name="meta.attr.compatible_brands.markup">isomiso2avc1mp41</property>
  <property name="meta.attr.encoder.markup">Lavf58.76.100</property>
  <property name="seekable">1</property>
  <property name="meta.media.sample_aspect_num">1</property>
  <property name="meta.media.sample_aspect_den">1</property>
  <property name="aspect_ratio">1</property>
  <property name="audio_index">-1</property>
  <property name="video_index">0</property>
  <property name="mute_on_pause">0</property>
  <property name="mlt_service">avformat-novalidate</property>
  <property name="kdenlive:clipname"/>
  <property name="kdenlive:folderid">71</property>
  <property name="meta.media.frame_rate_num">30</property>
  <property name="meta.media.frame_rate_den">1</property>
  <property name="meta.media.colorspace">601</property>
  <property name="meta.media.color_trc">2</property>
  <property name="meta.media.width">512</property>
  <property name="meta.media.height">512</property>
  <property name="meta.media.color_range">mpeg</property>
  <property name="kdenlive:id">114</property>
  <property name="kdenlive:file_size">982330</property>
  <property name="kdenlive:file_hash">6e286275a3e33028f32cd46649162c02</property>
  <property name="meta.media.top_field_first">0</property>
  <property name="meta.media.progressive">1</property>
  <property name="global_feed">1</property>
 </producer>
 <producer id="producer84" in="00:00:00.000" out="00:00:03.000">
  <property name="length">91</property>
  <property name="eof">pause</property>
  <property name="resource">content/ai/bird_ryan.517.mp4</property>
  <property name="meta.media.nb_streams">1</property>
  <property name="meta.media.0.stream.type">video</property>
  <property name="meta.media.0.stream.frame_rate">30</property>
  <property name="meta.media.0.stream.sample_aspect_ratio">0</property>
  <property name="meta.media.0.codec.width">512</property>
  <property name="meta.media.0.codec.height">512</property>
  <property name="meta.media.0.codec.rotate">0</property>
  <property name="meta.media.0.codec.frame_rate">30</property>
  <property name="meta.media.0.codec.pix_fmt">yuv444p</property>
  <property name="meta.media.0.codec.sample_aspect_ratio">0</property>
  <property name="meta.media.0.codec.colorspace">601</property>
  <property name="meta.media.0.codec.name">h264</property>
  <property name="meta.media.0.codec.long_name">H.264 / AVC / MPEG-4 AVC / MPEG-4 part 10</property>
  <property name="meta.media.0.codec.bit_rate">4024488</property>
  <property name="meta.attr.0.stream.handler_name.markup">VideoHandler</property>
  <property name="meta.attr.major_brand.markup">isom</property>
  <property name="meta.attr.minor_version.markup">512</property>
  <property name="meta.attr.compatible_brands.markup">isomiso2avc1mp41</property>
  <property name="meta.attr.encoder.markup">Lavf58.76.100</property>
  <property name="seekable">1</property>
  <property name="meta.media.sample_aspect_num">1</property>
  <property name="meta.media.sample_aspect_den">1</property>
  <property name="aspect_ratio">1</property>
  <property name="audio_index">-1</property>
  <property name="video_index">0</property>
  <property name="mute_on_pause">0</property>
  <property name="mlt_service">avformat-novalidate</property>
  <property name="kdenlive:clipname"/>
  <property name="kdenlive:folderid">71</property>
  <property name="meta.media.frame_rate_num">30</property>
  <property name="meta.media.frame_rate_den">1</property>
  <property name="meta.media.colorspace">601</property>
  <property name="meta.media.color_trc">2</property>
  <property name="meta.media.width">512</property>
  <property name="meta.media.height">512</property>
  <property name="meta.media.color_range">mpeg</property>
  <property name="kdenlive:id">115</property>
  <property name="kdenlive:file_size">1527857</property>
  <property name="kdenlive:file_hash">c04ad830970234d4f5395e579e06696e</property>
  <property name="meta.media.top_field_first">0</property>
  <property name="meta.media.progressive">1</property>
 </producer>
 <producer id="producer85" in="00:00:00.000" out="00:00:03.000">
  <property name="length">91</property>
  <property name="eof">pause</property>
  <property name="resource">content/ai/bird_sarah.515.mp4</property>
  <property name="meta.media.nb_streams">1</property>
  <property name="meta.media.0.stream.type">video</property>
  <property name="meta.media.0.stream.frame_rate">30</property>
  <property name="meta.media.0.stream.sample_aspect_ratio">0</property>
  <property name="meta.media.0.codec.width">512</property>
  <property name="meta.media.0.codec.height">512</property>
  <property name="meta.media.0.codec.rotate">0</property>
  <property name="meta.media.0.codec.frame_rate">30</property>
  <property name="meta.media.0.codec.pix_fmt">yuv444p</property>
  <property name="meta.media.0.codec.sample_aspect_ratio">0</property>
  <property name="meta.media.0.codec.colorspace">601</property>
  <property name="meta.media.0.codec.name">h264</property>
  <property name="meta.media.0.codec.long_name">H.264 / AVC / MPEG-4 AVC / MPEG-4 part 10</property>
  <property name="meta.media.0.codec.bit_rate">4039073</property>
  <property name="meta.attr.0.stream.handler_name.markup">VideoHandler</property>
  <property name="meta.attr.major_brand.markup">isom</property>
  <property name="meta.attr.minor_version.markup">512</property>
  <property name="meta.attr.compatible_brands.markup">isomiso2avc1mp41</property>
  <property name="meta.attr.encoder.markup">Lavf58.76.100</property>
  <property name="seekable">1</property>
  <property name="meta.media.sample_aspect_num">1</property>
  <property name="meta.media.sample_aspect_den">1</property>
  <property name="aspect_ratio">1</property>
  <property name="audio_index">-1</property>
  <property name="video_index">0</property>
  <property name="mute_on_pause">0</property>
  <property name="mlt_service">avformat-novalidate</property>
  <property name="kdenlive:clipname"/>
  <property name="kdenlive:folderid">71</property>
  <property name="meta.media.frame_rate_num">30</property>
  <property name="meta.media.frame_rate_den">1</property>
  <property name="meta.media.colorspace">601</property>
  <property name="meta.media.color_trc">2</property>
  <property name="meta.media.width">512</property>
  <property name="meta.media.height">512</property>
  <property name="meta.media.color_range">mpeg</property>
  <property name="kdenlive:id">117</property>
  <property name="kdenlive:file_size">1533339</property>
  <property name="kdenlive:file_hash">28942d7c6c0bb7f1c960cda50c934b06</property>
 </producer>
 <producer id="producer86" in="00:00:00.000" out="00:00:03.000">
  <property name="length">91</property>
  <property name="eof">pause</property>
  <property name="resource">content/ai/bird_ryan.511.mp4</property>
  <property name="meta.media.nb_streams">1</property>
  <property name="meta.media.0.stream.type">video</property>
  <property name="meta.media.0.stream.frame_rate">30</property>
  <property name="meta.media.0.stream.sample_aspect_ratio">0</property>
  <property name="meta.media.0.codec.width">512</property>
  <property name="meta.media.0.codec.height">512</property>
  <property name="meta.media.0.codec.rotate">0</property>
  <property name="meta.media.0.codec.frame_rate">30</property>
  <property name="meta.media.0.codec.pix_fmt">yuv444p</property>
  <property name="meta.media.0.codec.sample_aspect_ratio">0</property>
  <property name="meta.media.0.codec.colorspace">601</property>
  <property name="meta.media.0.codec.name">h264</property>
  <property name="meta.media.0.codec.long_name">H.264 / AVC / MPEG-4 AVC / MPEG-4 part 10</property>
  <property name="meta.media.0.codec.bit_rate">5928092</property>
  <property name="meta.attr.0.stream.handler_name.markup">VideoHandler</property>
  <property name="meta.attr.major_brand.markup">isom</property>
  <property name="meta.attr.minor_version.markup">512</property>
  <property name="meta.attr.compatible_brands.markup">isomiso2avc1mp41</property>
  <property name="meta.attr.encoder.markup">Lavf58.76.100</property>
  <property name="seekable">1</property>
  <property name="meta.media.sample_aspect_num">1</property>
  <property name="meta.media.sample_aspect_den">1</property>
  <property name="aspect_ratio">1</property>
  <property name="audio_index">-1</property>
  <property name="video_index">0</property>
  <property name="mute_on_pause">0</property>
  <property name="mlt_service">avformat-novalidate</property>
  <property name="kdenlive:clipname"/>
  <property name="kdenlive:folderid">71</property>
  <property name="meta.media.frame_rate_num">30</property>
  <property name="meta.media.frame_rate_den">1</property>
  <property name="meta.media.colorspace">601</property>
  <property name="meta.media.color_trc">2</property>
  <property name="meta.media.width">512</property>
  <property name="meta.media.height">512</property>
  <property name="meta.media.color_range">mpeg</property>
  <property name="kdenlive:id">116</property>
  <property name="kdenlive:file_size">2249632</property>
  <property name="kdenlive:file_hash">2855c3737d5dc5b68274de84211bb072</property>
  <property name="meta.media.top_field_first">0</property>
  <property name="meta.media.progressive">1</property>
 </producer>
 <producer id="producer87" in="00:00:00.000" out="00:00:03.000">
  <property name="length">91</property>
  <property name="eof">pause</property>
  <property name="resource">content/ai/bird_sarah.509.mp4</property>
  <property name="meta.media.nb_streams">1</property>
  <property name="meta.media.0.stream.type">video</property>
  <property name="meta.media.0.stream.frame_rate">30</property>
  <property name="meta.media.0.stream.sample_aspect_ratio">0</property>
  <property name="meta.media.0.codec.width">512</property>
  <property name="meta.media.0.codec.height">512</property>
  <property name="meta.media.0.codec.rotate">0</property>
  <property name="meta.media.0.codec.frame_rate">30</property>
  <property name="meta.media.0.codec.pix_fmt">yuv444p</property>
  <property name="meta.media.0.codec.sample_aspect_ratio">0</property>
  <property name="meta.media.0.codec.colorspace">601</property>
  <property name="meta.media.0.codec.name">h264</property>
  <property name="meta.media.0.codec.long_name">H.264 / AVC / MPEG-4 AVC / MPEG-4 part 10</property>
  <property name="meta.media.0.codec.bit_rate">3818099</property>
  <property name="meta.attr.0.stream.handler_name.markup">VideoHandler</property>
  <property name="meta.attr.major_brand.markup">isom</property>
  <property name="meta.attr.minor_version.markup">512</property>
  <property name="meta.attr.compatible_brands.markup">isomiso2avc1mp41</property>
  <property name="meta.attr.encoder.markup">Lavf58.76.100</property>
  <property name="seekable">1</property>
  <property name="meta.media.sample_aspect_num">1</property>
  <property name="meta.media.sample_aspect_den">1</property>
  <property name="aspect_ratio">1</property>
  <property name="audio_index">-1</property>
  <property name="video_index">0</property>
  <property name="mute_on_pause">0</property>
  <property name="mlt_service">avformat-novalidate</property>
  <property name="kdenlive:clipname"/>
  <property name="kdenlive:folderid">71</property>
  <property name="meta.media.frame_rate_num">30</property>
  <property name="meta.media.frame_rate_den">1</property>
  <property name="meta.media.colorspace">601</property>
  <property name="meta.media.color_trc">2</property>
  <property name="meta.media.width">512</property>
  <property name="meta.media.height">512</property>
  <property name="meta.media.color_range">mpeg</property>
  <property name="kdenlive:id">118</property>
  <property name="kdenlive:file_size">1449553</property>
  <property name="kdenlive:file_hash">cb15554530cee4817654b716a5128d68</property>
  <property name="meta.media.top_field_first">0</property>
  <property name="meta.media.progressive">1</property>
  <property name="global_feed">1</property>
 </producer>
 <producer id="producer88" in="00:00:00.000" out="00:00:03.000">
  <property name="length">91</property>
  <property name="eof">pause</property>
  <property name="resource">content/ai/bird_trio.510.mp4</property>
  <property name="meta.media.nb_streams">1</property>
  <property name="meta.media.0.stream.type">video</property>
  <property name="meta.media.0.stream.frame_rate">30</property>
  <property name="meta.media.0.stream.sample_aspect_ratio">0</property>
  <property name="meta.media.0.codec.width">512</property>
  <property name="meta.media.0.codec.height">512</property>
  <property name="meta.media.0.codec.rotate">0</property>
  <property name="meta.media.0.codec.frame_rate">30</property>
  <property name="meta.media.0.codec.pix_fmt">yuv444p</property>
  <property name="meta.media.0.codec.sample_aspect_ratio">0</property>
  <property name="meta.media.0.codec.colorspace">601</property>
  <property name="meta.media.0.codec.name">h264</property>
  <property name="meta.media.0.codec.long_name">H.264 / AVC / MPEG-4 AVC / MPEG-4 part 10</property>
  <property name="meta.media.0.codec.bit_rate">1834818</property>
  <property name="meta.attr.0.stream.handler_name.markup">VideoHandler</property>
  <property name="meta.attr.major_brand.markup">isom</property>
  <property name="meta.attr.minor_version.markup">512</property>
  <property name="meta.attr.compatible_brands.markup">isomiso2avc1mp41</property>
  <property name="meta.attr.encoder.markup">Lavf58.76.100</property>
  <property name="seekable">1</property>
  <property name="meta.media.sample_aspect_num">1</property>
  <property name="meta.media.sample_aspect_den">1</property>
  <property name="aspect_ratio">1</property>
  <property name="audio_index">-1</property>
  <property name="video_index">0</property>
  <property name="mute_on_pause">0</property>
  <property name="mlt_service">avformat-novalidate</property>
  <property name="kdenlive:clipname"/>
  <property name="kdenlive:folderid">71</property>
  <property name="meta.media.frame_rate_num">30</property>
  <property name="meta.media.frame_rate_den">1</property>
  <property name="meta.media.colorspace">601</property>
  <property name="meta.media.color_trc">2</property>
  <property name="meta.media.width">512</property>
  <property name="meta.media.height">512</property>
  <property name="meta.media.color_range">mpeg</property>
  <property name="kdenlive:id">119</property>
  <property name="kdenlive:file_size">697527</property>
  <property name="kdenlive:file_hash">debc39ccaecfe8ef731b0609509f676a</property>
  <property name="meta.media.top_field_first">0</property>
  <property name="meta.media.progressive">1</property>
  <property name="global_feed">1</property>
 </producer>
 <producer id="producer89" in="00:00:00.000" out="00:00:03.000">
  <property name="length">91</property>
  <property name="eof">pause</property>
  <property name="resource">content/ai/bird_trio.504.mp4</property>
  <property name="meta.media.nb_streams">1</property>
  <property name="meta.media.0.stream.type">video</property>
  <property name="meta.media.0.stream.frame_rate">30</property>
  <property name="meta.media.0.stream.sample_aspect_ratio">0</property>
  <property name="meta.media.0.codec.width">512</property>
  <property name="meta.media.0.codec.height">512</property>
  <property name="meta.media.0.codec.rotate">0</property>
  <property name="meta.media.0.codec.frame_rate">30</property>
  <property name="meta.media.0.codec.pix_fmt">yuv444p</property>
  <property name="meta.media.0.codec.sample_aspect_ratio">0</property>
  <property name="meta.media.0.codec.colorspace">601</property>
  <property name="meta.media.0.codec.name">h264</property>
  <property name="meta.media.0.codec.long_name">H.264 / AVC / MPEG-4 AVC / MPEG-4 part 10</property>
  <property name="meta.media.0.codec.bit_rate">3110115</property>
  <property name="meta.attr.0.stream.handler_name.markup">VideoHandler</property>
  <property name="meta.attr.major_brand.markup">isom</property>
  <property name="meta.attr.minor_version.markup">512</property>
  <property name="meta.attr.compatible_brands.markup">isomiso2avc1mp41</property>
  <property name="meta.attr.encoder.markup">Lavf58.76.100</property>
  <property name="seekable">1</property>
  <property name="meta.media.sample_aspect_num">1</property>
  <property name="meta.media.sample_aspect_den">1</property>
  <property name="aspect_ratio">1</property>
  <property name="audio_index">-1</property>
  <property name="video_index">0</property>
  <property name="mute_on_pause">0</property>
  <property name="mlt_service">avformat-novalidate</property>
  <property name="kdenlive:clipname"/>
  <property name="kdenlive:folderid">71</property>
  <property name="meta.media.frame_rate_num">30</property>
  <property name="meta.media.frame_rate_den">1</property>
  <property name="meta.media.colorspace">601</property>
  <property name="meta.media.color_trc">2</property>
  <property name="meta.media.width">512</property>
  <property name="meta.media.height">512</property>
  <property name="meta.media.color_range">mpeg</property>
  <property name="kdenlive:id">120</property>
  <property name="kdenlive:file_size">1181157</property>
  <property name="kdenlive:file_hash">d6d518bfdecbd23313d3f3491b490926</property>
  <property name="meta.media.top_field_first">0</property>
  <property name="meta.media.progressive">1</property>
 </producer>
 <producer id="producer90" in="00:00:00.000" out="00:00:03.000">
  <property name="length">91</property>
  <property name="eof">pause</property>
  <property name="resource">content/ai/bird_trio.1018.mp4</property>
  <property name="meta.media.nb_streams">1</property>
  <property name="meta.media.0.stream.type">video</property>
  <property name="meta.media.0.stream.frame_rate">30</property>
  <property name="meta.media.0.stream.sample_aspect_ratio">0</property>
  <property name="meta.media.0.codec.width">512</property>
  <property name="meta.media.0.codec.height">512</property>
  <property name="meta.media.0.codec.rotate">0</property>
  <property name="meta.media.0.codec.frame_rate">30</property>
  <property name="meta.media.0.codec.pix_fmt">yuv444p</property>
  <property name="meta.media.0.codec.sample_aspect_ratio">0</property>
  <property name="meta.media.0.codec.colorspace">601</property>
  <property name="meta.media.0.codec.name">h264</property>
  <property name="meta.media.0.codec.long_name">H.264 / AVC / MPEG-4 AVC / MPEG-4 part 10</property>
  <property name="meta.media.0.codec.bit_rate">3537578</property>
  <property name="meta.attr.0.stream.handler_name.markup">VideoHandler</property>
  <property name="meta.attr.major_brand.markup">isom</property>
  <property name="meta.attr.minor_version.markup">512</property>
  <property name="meta.attr.compatible_brands.markup">isomiso2avc1mp41</property>
  <property name="meta.attr.encoder.markup">Lavf58.76.100</property>
  <property name="seekable">1</property>
  <property name="meta.media.sample_aspect_num">1</property>
  <property name="meta.media.sample_aspect_den">1</property>
  <property name="aspect_ratio">1</property>
  <property name="audio_index">-1</property>
  <property name="video_index">0</property>
  <property name="mute_on_pause">0</property>
  <property name="mlt_service">avformat-novalidate</property>
  <property name="kdenlive:clipname"/>
  <property name="kdenlive:folderid">71</property>
  <property name="meta.media.frame_rate_num">30</property>
  <property name="meta.media.frame_rate_den">1</property>
  <property name="meta.media.colorspace">601</property>
  <property name="meta.media.color_trc">2</property>
  <property name="meta.media.width">512</property>
  <property name="meta.media.height">512</property>
  <property name="meta.media.color_range">mpeg</property>
  <property name="kdenlive:id">121</property>
  <property name="kdenlive:file_size">1343157</property>
  <property name="kdenlive:file_hash">ddc032b98455625f3281aba5a3ec8a8f</property>
  <property name="meta.media.top_field_first">0</property>
  <property name="meta.media.progressive">1</property>
  <property name="global_feed">1</property>
 </producer>
 <producer id="producer91" in="00:00:00.000" out="00:00:03.000">
  <property name="length">91</property>
  <property name="eof">pause</property>
  <property name="resource">content/ai/bird_trio.1011.mp4</property>
  <property name="meta.media.nb_streams">1</property>
  <property name="meta.media.0.stream.type">video</property>
  <property name="meta.media.0.stream.frame_rate">30</property>
  <property name="meta.media.0.stream.sample_aspect_ratio">0</property>
  <property name="meta.media.0.codec.width">512</property>
  <property name="meta.media.0.codec.height">512</property>
  <property name="meta.media.0.codec.rotate">0</property>
  <property name="meta.media.0.codec.frame_rate">30</property>
  <property name="meta.media.0.codec.pix_fmt">yuv444p</property>
  <property name="meta.media.0.codec.sample_aspect_ratio">0</property>
  <property name="meta.media.0.codec.colorspace">601</property>
  <property name="meta.media.0.codec.name">h264</property>
  <property name="meta.media.0.codec.long_name">H.264 / AVC / MPEG-4 AVC / MPEG-4 part 10</property>
  <property name="meta.media.0.codec.bit_rate">3438859</property>
  <property name="meta.attr.0.stream.handler_name.markup">VideoHandler</property>
  <property name="meta.attr.major_brand.markup">isom</property>
  <property name="meta.attr.minor_version.markup">512</property>
  <property name="meta.attr.compatible_brands.markup">isomiso2avc1mp41</property>
  <property name="meta.attr.encoder.markup">Lavf58.76.100</property>
  <property name="seekable">1</property>
  <property name="meta.media.sample_aspect_num">1</property>
  <property name="meta.media.sample_aspect_den">1</property>
  <property name="aspect_ratio">1</property>
  <property name="audio_index">-1</property>
  <property name="video_index">0</property>
  <property name="mute_on_pause">0</property>
  <property name="mlt_service">avformat-novalidate</property>
  <property name="kdenlive:clipname"/>
  <property name="kdenlive:folderid">71</property>
  <property name="meta.media.frame_rate_num">30</property>
  <property name="meta.media.frame_rate_den">1</property>
  <property name="meta.media.colorspace">601</property>
  <property name="meta.media.color_trc">2</property>
  <property name="meta.media.width">512</property>
  <property name="meta.media.height">512</property>
  <property name="meta.media.color_range">mpeg</property>
  <property name="kdenlive:id">122</property>
  <property name="kdenlive:file_size">1305622</property>
  <property name="kdenlive:file_hash">5d6679dcd8493403e90cdc590e11f056</property>
 </producer>
 <producer id="producer92" in="00:00:00.000" out="00:00:03.000">
  <property name="length">91</property>
  <property name="eof">pause</property>
  <property name="resource">content/ai/bird_sarah.1010.mp4</property>
  <property name="meta.media.nb_streams">1</property>
  <property name="meta.media.0.stream.type">video</property>
  <property name="meta.media.0.stream.frame_rate">30</property>
  <property name="meta.media.0.stream.sample_aspect_ratio">0</property>
  <property name="meta.media.0.codec.width">512</property>
  <property name="meta.media.0.codec.height">512</property>
  <property name="meta.media.0.codec.rotate">0</property>
  <property name="meta.media.0.codec.frame_rate">30</property>
  <property name="meta.media.0.codec.pix_fmt">yuv444p</property>
  <property name="meta.media.0.codec.sample_aspect_ratio">0</property>
  <property name="meta.media.0.codec.colorspace">601</property>
  <property name="meta.media.0.codec.name">h264</property>
  <property name="meta.media.0.codec.long_name">H.264 / AVC / MPEG-4 AVC / MPEG-4 part 10</property>
  <property name="meta.media.0.codec.bit_rate">2335012</property>
  <property name="meta.attr.0.stream.handler_name.markup">VideoHandler</property>
  <property name="meta.attr.major_brand.markup">isom</property>
  <property name="meta.attr.minor_version.markup">512</property>
  <property name="meta.attr.compatible_brands.markup">isomiso2avc1mp41</property>
  <property name="meta.attr.encoder.markup">Lavf58.76.100</property>
  <property name="seekable">1</property>
  <property name="meta.media.sample_aspect_num">1</property>
  <property name="meta.media.sample_aspect_den">1</property>
  <property name="aspect_ratio">1</property>
  <property name="audio_index">-1</property>
  <property name="video_index">0</property>
  <property name="mute_on_pause">0</property>
  <property name="mlt_service">avformat-novalidate</property>
  <property name="kdenlive:clipname"/>
  <property name="kdenlive:folderid">71</property>
  <property name="meta.media.frame_rate_num">30</property>
  <property name="meta.media.frame_rate_den">1</property>
  <property name="meta.media.colorspace">601</property>
  <property name="meta.media.color_trc">2</property>
  <property name="meta.media.width">512</property>
  <property name="meta.media.height">512</property>
  <property name="meta.media.color_range">mpeg</property>
  <property name="kdenlive:id">123</property>
  <property name="kdenlive:file_size">887168</property>
  <property name="kdenlive:file_hash">d29a68480036febbe158ce009a382ff7</property>
  <property name="meta.media.top_field_first">0</property>
  <property name="meta.media.progressive">1</property>
  <property name="global_feed">1</property>
 </producer>
 <producer id="producer93" in="00:00:00.000" out="00:00:03.000">
  <property name="length">91</property>
  <property name="eof">pause</property>
  <property name="resource">content/ai/bird_sarah.1003.mp4</property>
  <property name="meta.media.nb_streams">1</property>
  <property name="meta.media.0.stream.type">video</property>
  <property name="meta.media.0.stream.frame_rate">30</property>
  <property name="meta.media.0.stream.sample_aspect_ratio">0</property>
  <property name="meta.media.0.codec.width">512</property>
  <property name="meta.media.0.codec.height">512</property>
  <property name="meta.media.0.codec.rotate">0</property>
  <property name="meta.media.0.codec.frame_rate">30</property>
  <property name="meta.media.0.codec.pix_fmt">yuv444p</property>
  <property name="meta.media.0.codec.sample_aspect_ratio">0</property>
  <property name="meta.media.0.codec.colorspace">601</property>
  <property name="meta.media.0.codec.name">h264</property>
  <property name="meta.media.0.codec.long_name">H.264 / AVC / MPEG-4 AVC / MPEG-4 part 10</property>
  <property name="meta.media.0.codec.bit_rate">4856473</property>
  <property name="meta.attr.0.stream.handler_name.markup">VideoHandler</property>
  <property name="meta.attr.major_brand.markup">isom</property>
  <property name="meta.attr.minor_version.markup">512</property>
  <property name="meta.attr.compatible_brands.markup">isomiso2avc1mp41</property>
  <property name="meta.attr.encoder.markup">Lavf58.76.100</property>
  <property name="seekable">1</property>
  <property name="meta.media.sample_aspect_num">1</property>
  <property name="meta.media.sample_aspect_den">1</property>
  <property name="aspect_ratio">1</property>
  <property name="audio_index">-1</property>
  <property name="video_index">0</property>
  <property name="mute_on_pause">0</property>
  <property name="mlt_service">avformat-novalidate</property>
  <property name="kdenlive:clipname"/>
  <property name="kdenlive:folderid">71</property>
  <property name="meta.media.frame_rate_num">30</property>
  <property name="meta.media.frame_rate_den">1</property>
  <property name="meta.media.colorspace">601</property>
  <property name="meta.media.color_trc">2</property>
  <property name="meta.media.width">512</property>
  <property name="meta.media.height">512</property>
  <property name="meta.media.color_range">mpeg</property>
  <property name="kdenlive:id">124</property>
  <property name="kdenlive:file_size">1843278</property>
  <property name="kdenlive:file_hash">09103e551c1a5d2ff7134362e75bdbea</property>
  <property name="meta.media.top_field_first">0</property>
  <property name="meta.media.progressive">1</property>
  <property name="global_feed">1</property>
 </producer>
 <producer id="producer94" in="00:00:00.000" out="00:00:03.000">
  <property name="length">91</property>
  <property name="eof">pause</property>
  <property name="resource">content/ai/bird_ryan.1012.mp4</property>
  <property name="meta.media.nb_streams">1</property>
  <property name="meta.media.0.stream.type">video</property>
  <property name="meta.media.0.stream.frame_rate">30</property>
  <property name="meta.media.0.stream.sample_aspect_ratio">0</property>
  <property name="meta.media.0.codec.width">512</property>
  <property name="meta.media.0.codec.height">512</property>
  <property name="meta.media.0.codec.rotate">0</property>
  <property name="meta.media.0.codec.frame_rate">30</property>
  <property name="meta.media.0.codec.pix_fmt">yuv444p</property>
  <property name="meta.media.0.codec.sample_aspect_ratio">0</property>
  <property name="meta.media.0.codec.colorspace">601</property>
  <property name="meta.media.0.codec.name">h264</property>
  <property name="meta.media.0.codec.long_name">H.264 / AVC / MPEG-4 AVC / MPEG-4 part 10</property>
  <property name="meta.media.0.codec.bit_rate">3217374</property>
  <property name="meta.attr.0.stream.handler_name.markup">VideoHandler</property>
  <property name="meta.attr.major_brand.markup">isom</property>
  <property name="meta.attr.minor_version.markup">512</property>
  <property name="meta.attr.compatible_brands.markup">isomiso2avc1mp41</property>
  <property name="meta.attr.encoder.markup">Lavf58.76.100</property>
  <property name="seekable">1</property>
  <property name="meta.media.sample_aspect_num">1</property>
  <property name="meta.media.sample_aspect_den">1</property>
  <property name="aspect_ratio">1</property>
  <property name="audio_index">-1</property>
  <property name="video_index">0</property>
  <property name="mute_on_pause">0</property>
  <property name="mlt_service">avformat-novalidate</property>
  <property name="kdenlive:clipname"/>
  <property name="kdenlive:folderid">71</property>
  <property name="meta.media.frame_rate_num">30</property>
  <property name="meta.media.frame_rate_den">1</property>
  <property name="meta.media.colorspace">601</property>
  <property name="meta.media.color_trc">2</property>
  <property name="meta.media.width">512</property>
  <property name="meta.media.height">512</property>
  <property name="meta.media.color_range">mpeg</property>
  <property name="kdenlive:id">125</property>
  <property name="kdenlive:file_size">1221690</property>
  <property name="kdenlive:file_hash">278eac27a0b8262e7d35be19fb03ffcc</property>
  <property name="meta.media.top_field_first">0</property>
  <property name="meta.media.progressive">1</property>
  <property name="global_feed">1</property>
 </producer>
 <producer id="producer95" in="00:00:00.000" out="00:00:03.000">
  <property name="length">91</property>
  <property name="eof">pause</property>
  <property name="resource">content/ai/bird_caleb.1008.mp4</property>
  <property name="meta.media.nb_streams">1</property>
  <property name="meta.media.0.stream.type">video</property>
  <property name="meta.media.0.stream.frame_rate">30</property>
  <property name="meta.media.0.stream.sample_aspect_ratio">0</property>
  <property name="meta.media.0.codec.width">512</property>
  <property name="meta.media.0.codec.height">512</property>
  <property name="meta.media.0.codec.rotate">0</property>
  <property name="meta.media.0.codec.frame_rate">30</property>
  <property name="meta.media.0.codec.pix_fmt">yuv444p</property>
  <property name="meta.media.0.codec.sample_aspect_ratio">0</property>
  <property name="meta.media.0.codec.colorspace">601</property>
  <property name="meta.media.0.codec.name">h264</property>
  <property name="meta.media.0.codec.long_name">H.264 / AVC / MPEG-4 AVC / MPEG-4 part 10</property>
  <property name="meta.media.0.codec.bit_rate">3209622</property>
  <property name="meta.attr.0.stream.handler_name.markup">VideoHandler</property>
  <property name="meta.attr.major_brand.markup">isom</property>
  <property name="meta.attr.minor_version.markup">512</property>
  <property name="meta.attr.compatible_brands.markup">isomiso2avc1mp41</property>
  <property name="meta.attr.encoder.markup">Lavf58.76.100</property>
  <property name="seekable">1</property>
  <property name="meta.media.sample_aspect_num">1</property>
  <property name="meta.media.sample_aspect_den">1</property>
  <property name="aspect_ratio">1</property>
  <property name="audio_index">-1</property>
  <property name="video_index">0</property>
  <property name="mute_on_pause">0</property>
  <property name="mlt_service">avformat-novalidate</property>
  <property name="kdenlive:clipname"/>
  <property name="kdenlive:folderid">71</property>
  <property name="meta.media.frame_rate_num">30</property>
  <property name="meta.media.frame_rate_den">1</property>
  <property name="meta.media.colorspace">601</property>
  <property name="meta.media.color_trc">2</property>
  <property name="meta.media.width">512</property>
  <property name="meta.media.height">512</property>
  <property name="meta.media.color_range">mpeg</property>
  <property name="kdenlive:id">127</property>
  <property name="kdenlive:file_size">1218871</property>
  <property name="kdenlive:file_hash">855d5054543f68580e6384fe0b53b80c</property>
  <property name="meta.media.top_field_first">0</property>
  <property name="meta.media.progressive">1</property>
 </producer>
 <producer id="producer96" in="00:00:00.000" out="00:00:03.000">
  <property name="length">91</property>
  <property name="eof">pause</property>
  <property name="resource">content/ai/bird_caleb.1001.mp4</property>
  <property name="meta.media.nb_streams">1</property>
  <property name="meta.media.0.stream.type">video</property>
  <property name="meta.media.0.stream.frame_rate">30</property>
  <property name="meta.media.0.stream.sample_aspect_ratio">0</property>
  <property name="meta.media.0.codec.width">512</property>
  <property name="meta.media.0.codec.height">512</property>
  <property name="meta.media.0.codec.rotate">0</property>
  <property name="meta.media.0.codec.frame_rate">30</property>
  <property name="meta.media.0.codec.pix_fmt">yuv444p</property>
  <property name="meta.media.0.codec.sample_aspect_ratio">0</property>
  <property name="meta.media.0.codec.colorspace">601</property>
  <property name="meta.media.0.codec.name">h264</property>
  <property name="meta.media.0.codec.long_name">H.264 / AVC / MPEG-4 AVC / MPEG-4 part 10</property>
  <property name="meta.media.0.codec.bit_rate">2792294</property>
  <property name="meta.attr.0.stream.handler_name.markup">VideoHandler</property>
  <property name="meta.attr.major_brand.markup">isom</property>
  <property name="meta.attr.minor_version.markup">512</property>
  <property name="meta.attr.compatible_brands.markup">isomiso2avc1mp41</property>
  <property name="meta.attr.encoder.markup">Lavf58.76.100</property>
  <property name="seekable">1</property>
  <property name="meta.media.sample_aspect_num">1</property>
  <property name="meta.media.sample_aspect_den">1</property>
  <property name="aspect_ratio">1</property>
  <property name="audio_index">-1</property>
  <property name="video_index">0</property>
  <property name="mute_on_pause">0</property>
  <property name="mlt_service">avformat-novalidate</property>
  <property name="kdenlive:clipname"/>
  <property name="kdenlive:folderid">71</property>
  <property name="meta.media.frame_rate_num">30</property>
  <property name="meta.media.frame_rate_den">1</property>
  <property name="meta.media.colorspace">601</property>
  <property name="meta.media.color_trc">2</property>
  <property name="meta.media.width">512</property>
  <property name="meta.media.height">512</property>
  <property name="meta.media.color_range">mpeg</property>
  <property name="kdenlive:id">128</property>
  <property name="kdenlive:file_size">1060578</property>
  <property name="kdenlive:file_hash">8f037d73a9f9be400414fd4d41cbd83d</property>
 </producer>
 <producer id="producer97" in="00:00:00.000" out="00:00:03.000">
  <property name="length">91</property>
  <property name="eof">pause</property>
  <property name="resource">content/ai/bird_jackson.1020.mp4</property>
  <property name="meta.media.nb_streams">1</property>
  <property name="meta.media.0.stream.type">video</property>
  <property name="meta.media.0.stream.frame_rate">30</property>
  <property name="meta.media.0.stream.sample_aspect_ratio">0</property>
  <property name="meta.media.0.codec.width">512</property>
  <property name="meta.media.0.codec.height">512</property>
  <property name="meta.media.0.codec.rotate">0</property>
  <property name="meta.media.0.codec.frame_rate">30</property>
  <property name="meta.media.0.codec.pix_fmt">yuv444p</property>
  <property name="meta.media.0.codec.sample_aspect_ratio">0</property>
  <property name="meta.media.0.codec.colorspace">601</property>
  <property name="meta.media.0.codec.name">h264</property>
  <property name="meta.media.0.codec.long_name">H.264 / AVC / MPEG-4 AVC / MPEG-4 part 10</property>
  <property name="meta.media.0.codec.bit_rate">2407970</property>
  <property name="meta.attr.0.stream.handler_name.markup">VideoHandler</property>
  <property name="meta.attr.major_brand.markup">isom</property>
  <property name="meta.attr.minor_version.markup">512</property>
  <property name="meta.attr.compatible_brands.markup">isomiso2avc1mp41</property>
  <property name="meta.attr.encoder.markup">Lavf58.76.100</property>
  <property name="seekable">1</property>
  <property name="meta.media.sample_aspect_num">1</property>
  <property name="meta.media.sample_aspect_den">1</property>
  <property name="aspect_ratio">1</property>
  <property name="audio_index">-1</property>
  <property name="video_index">0</property>
  <property name="mute_on_pause">0</property>
  <property name="mlt_service">avformat-novalidate</property>
  <property name="kdenlive:clipname"/>
  <property name="kdenlive:folderid">71</property>
  <property name="meta.media.frame_rate_num">30</property>
  <property name="meta.media.frame_rate_den">1</property>
  <property name="meta.media.colorspace">601</property>
  <property name="meta.media.color_trc">2</property>
  <property name="meta.media.width">512</property>
  <property name="meta.media.height">512</property>
  <property name="meta.media.color_range">mpeg</property>
  <property name="kdenlive:id">129</property>
  <property name="kdenlive:file_size">914895</property>
  <property name="kdenlive:file_hash">cf236624de240f560756fc93b1954abc</property>
 </producer>
 <producer id="producer98" in="00:00:00.000" out="00:00:03.000">
  <property name="length">91</property>
  <property name="eof">pause</property>
  <property name="resource">content/ai/bird_jackson.1006.mp4</property>
  <property name="meta.media.nb_streams">1</property>
  <property name="meta.media.0.stream.type">video</property>
  <property name="meta.media.0.stream.frame_rate">30</property>
  <property name="meta.media.0.stream.sample_aspect_ratio">0</property>
  <property name="meta.media.0.codec.width">512</property>
  <property name="meta.media.0.codec.height">512</property>
  <property name="meta.media.0.codec.rotate">0</property>
  <property name="meta.media.0.codec.frame_rate">30</property>
  <property name="meta.media.0.codec.pix_fmt">yuv444p</property>
  <property name="meta.media.0.codec.sample_aspect_ratio">0</property>
  <property name="meta.media.0.codec.colorspace">601</property>
  <property name="meta.media.0.codec.name">h264</property>
  <property name="meta.media.0.codec.long_name">H.264 / AVC / MPEG-4 AVC / MPEG-4 part 10</property>
  <property name="meta.media.0.codec.bit_rate">4962944</property>
  <property name="meta.attr.0.stream.handler_name.markup">VideoHandler</property>
  <property name="meta.attr.major_brand.markup">isom</property>
  <property name="meta.attr.minor_version.markup">512</property>
  <property name="meta.attr.compatible_brands.markup">isomiso2avc1mp41</property>
  <property name="meta.attr.encoder.markup">Lavf58.76.100</property>
  <property name="seekable">1</property>
  <property name="meta.media.sample_aspect_num">1</property>
  <property name="meta.media.sample_aspect_den">1</property>
  <property name="aspect_ratio">1</property>
  <property name="audio_index">-1</property>
  <property name="video_index">0</property>
  <property name="mute_on_pause">0</property>
  <property name="mlt_service">avformat-novalidate</property>
  <property name="kdenlive:clipname"/>
  <property name="kdenlive:folderid">71</property>
  <property name="meta.media.frame_rate_num">30</property>
  <property name="meta.media.frame_rate_den">1</property>
  <property name="meta.media.colorspace">601</property>
  <property name="meta.media.color_trc">2</property>
  <property name="meta.media.width">512</property>
  <property name="meta.media.height">512</property>
  <property name="meta.media.color_range">mpeg</property>
  <property name="kdenlive:id">130</property>
  <property name="kdenlive:file_size">1883672</property>
  <property name="kdenlive:file_hash">053d3251f245967e6891c2d726c32d5b</property>
  <property name="meta.media.top_field_first">0</property>
  <property name="meta.media.progressive">1</property>
  <property name="global_feed">1</property>
 </producer>
 <producer id="producer99" in="00:00:00.000" out="00:00:03.000">
  <property name="length">91</property>
  <property name="eof">pause</property>
  <property name="resource">content/ai/bird_chris.1009.mp4</property>
  <property name="audio_index">-1</property>
  <property name="video_index">0</property>
  <property name="mute_on_pause">0</property>
  <property name="mlt_service">avformat-novalidate</property>
  <property name="seekable">1</property>
  <property name="aspect_ratio">1</property>
  <property name="kdenlive:clipname"/>
  <property name="kdenlive:folderid">71</property>
  <property name="kdenlive:id">126</property>
  <property name="kdenlive:file_size">837860</property>
  <property name="kdenlive:file_hash">eb484a8f169579cef545090d1d88e3c5</property>
  <property name="global_feed">1</property>
  <property name="meta.media.nb_streams">1</property>
  <property name="meta.media.0.stream.type">video</property>
  <property name="meta.media.0.stream.frame_rate">30</property>
  <property name="meta.media.0.stream.sample_aspect_ratio">0</property>
  <property name="meta.media.0.codec.width">512</property>
  <property name="meta.media.0.codec.height">512</property>
  <property name="meta.media.0.codec.rotate">0</property>
  <property name="meta.media.0.codec.frame_rate">30</property>
  <property name="meta.media.0.codec.pix_fmt">yuv444p</property>
  <property name="meta.media.0.codec.sample_aspect_ratio">0</property>
  <property name="meta.media.0.codec.colorspace">601</property>
  <property name="meta.media.0.codec.name">h264</property>
  <property name="meta.media.0.codec.long_name">H.264 / AVC / MPEG-4 AVC / MPEG-4 part 10</property>
  <property name="meta.media.0.codec.bit_rate">2204800</property>
  <property name="meta.attr.0.stream.handler_name.markup">VideoHandler</property>
  <property name="meta.attr.major_brand.markup">isom</property>
  <property name="meta.attr.minor_version.markup">512</property>
  <property name="meta.attr.compatible_brands.markup">isomiso2avc1mp41</property>
  <property name="meta.attr.encoder.markup">Lavf58.76.100</property>
  <property name="meta.media.sample_aspect_num">1</property>
  <property name="meta.media.sample_aspect_den">1</property>
  <property name="meta.media.frame_rate_num">30</property>
  <property name="meta.media.frame_rate_den">1</property>
  <property name="meta.media.colorspace">601</property>
  <property name="meta.media.color_trc">2</property>
  <property name="meta.media.width">512</property>
  <property name="meta.media.height">512</property>
  <property name="meta.media.color_range">mpeg</property>
  <property name="meta.media.top_field_first">0</property>
  <property name="meta.media.progressive">1</property>
 </producer>
 <producer id="producer100" in="00:00:00.000" out="00:00:03.000">
  <property name="length">91</property>
  <property name="eof">pause</property>
  <property name="resource">content/ai/bird_chris.502.mp4</property>
  <property name="meta.media.nb_streams">1</property>
  <property name="meta.media.0.stream.type">video</property>
  <property name="meta.media.0.stream.frame_rate">30</property>
  <property name="meta.media.0.stream.sample_aspect_ratio">0</property>
  <property name="meta.media.0.codec.width">512</property>
  <property name="meta.media.0.codec.height">512</property>
  <property name="meta.media.0.codec.rotate">0</property>
  <property name="meta.media.0.codec.frame_rate">30</property>
  <property name="meta.media.0.codec.pix_fmt">yuv444p</property>
  <property name="meta.media.0.codec.sample_aspect_ratio">0</property>
  <property name="meta.media.0.codec.colorspace">601</property>
  <property name="meta.media.0.codec.name">h264</property>
  <property name="meta.media.0.codec.long_name">H.264 / AVC / MPEG-4 AVC / MPEG-4 part 10</property>
  <property name="meta.media.0.codec.bit_rate">3709777</property>
  <property name="meta.attr.0.stream.handler_name.markup">VideoHandler</property>
  <property name="meta.attr.major_brand.markup">isom</property>
  <property name="meta.attr.minor_version.markup">512</property>
  <property name="meta.attr.compatible_brands.markup">isomiso2avc1mp41</property>
  <property name="meta.attr.encoder.markup">Lavf58.76.100</property>
  <property name="seekable">1</property>
  <property name="meta.media.sample_aspect_num">1</property>
  <property name="meta.media.sample_aspect_den">1</property>
  <property name="aspect_ratio">1</property>
  <property name="audio_index">-1</property>
  <property name="video_index">0</property>
  <property name="mute_on_pause">0</property>
  <property name="mlt_service">avformat-novalidate</property>
  <property name="kdenlive:clipname"/>
  <property name="kdenlive:folderid">71</property>
  <property name="meta.media.frame_rate_num">30</property>
  <property name="meta.media.frame_rate_den">1</property>
  <property name="meta.media.colorspace">601</property>
  <property name="meta.media.color_trc">2</property>
  <property name="meta.media.width">512</property>
  <property name="meta.media.height">512</property>
  <property name="meta.media.color_range">mpeg</property>
  <property name="kdenlive:id">131</property>
  <property name="kdenlive:file_size">1408425</property>
  <property name="kdenlive:file_hash">fc894f7300b30cb5e3de28963e8e61d4</property>
  <property name="meta.media.top_field_first">0</property>
  <property name="meta.media.progressive">1</property>
 </producer>
 <producer id="producer101" in="00:00:00.000" out="00:00:04.967">
  <property name="length">00:00:05.000</property>
  <property name="eof">pause</property>
  <property name="resource">content/ai/jackson_bird_brained-robin_freeze-f006837.png</property>
  <property name="ttl">25</property>
  <property name="aspect_ratio">1</property>
  <property name="progressive">1</property>
  <property name="seekable">1</property>
  <property name="meta.media.width">1920</property>
  <property name="meta.media.height">1080</property>
  <property name="mlt_service">qimage</property>
  <property name="kdenlive:clipname"/>
  <property name="kdenlive:duration">00:00:05.000</property>
  <property name="kdenlive:folderid">71</property>
  <property name="kdenlive:id">133</property>
  <property name="kdenlive:file_size">3236618</property>
  <property name="kdenlive:file_hash">e60ba507316ec379b6d885d81c89352d</property>
 </producer>
 <producer id="producer102" in="00:00:00.000" out="00:00:10.633">
  <property name="length">320</property>
  <property name="eof">pause</property>
  <property name="resource">/home/ryankelln/.cache/kdenlive/proxy/8883bf7e3eb097f98c10aeb3207a2209.mkv</property>
  <property name="audio_index">-1</property>
  <property name="video_index">0</property>
  <property name="mute_on_pause">0</property>
  <property name="mlt_service">avformat-novalidate</property>
  <property name="seekable">1</property>
  <property name="aspect_ratio">1</property>
  <property name="kdenlive:clipname">Adult Geese and Baby Geese Crossing the Street (Shot w_Nikon Coolpix P1000)-1YhsooDk3sk-poop.mp4</property>
  <property name="kdenlive:folderid">55</property>
  <property name="kdenlive:id">134</property>
  <property name="kdenlive:file_size">21975394</property>
  <property name="kdenlive:file_hash">8883bf7e3eb097f98c10aeb3207a2209</property>
  <property name="kdenlive:proxy">/home/ryankelln/.cache/kdenlive/proxy/8883bf7e3eb097f98c10aeb3207a2209.mkv</property>
  <property name="kdenlive:originalurl">content/footage/Adult Geese and Baby Geese Crossing the Street (Shot w_Nikon Coolpix P1000)-1YhsooDk3sk-poop.mp4</property>
  <property name="kdenlive:original.mlt_type">producer</property>
  <property name="kdenlive:original.in">0</property>
  <property name="kdenlive:original.out">319</property>
  <property name="kdenlive:original.length">320</property>
  <property name="kdenlive:original.eof">pause</property>
  <property name="kdenlive:original.resource">content/footage/Adult Geese and Baby Geese Crossing the Street (Shot w_Nikon Coolpix P1000)-1YhsooDk3sk-poop.mp4</property>
  <property name="kdenlive:original.meta.media.nb_streams">1</property>
  <property name="kdenlive:original.meta.media.0.stream.type">video</property>
  <property name="kdenlive:original.meta.media.0.stream.frame_rate">29.971</property>
  <property name="kdenlive:original.meta.media.0.stream.sample_aspect_ratio">1</property>
  <property name="kdenlive:original.meta.media.0.codec.width">3840</property>
  <property name="kdenlive:original.meta.media.0.codec.height">2160</property>
  <property name="kdenlive:original.meta.media.0.codec.rotate">0</property>
  <property name="kdenlive:original.meta.media.0.codec.frame_rate">16000</property>
  <property name="kdenlive:original.meta.media.0.codec.pix_fmt">yuv420p</property>
  <property name="kdenlive:original.meta.media.0.codec.sample_aspect_ratio">0</property>
  <property name="kdenlive:original.meta.media.0.codec.colorspace">709</property>
  <property name="kdenlive:original.meta.media.0.codec.color_trc">1</property>
  <property name="kdenlive:original.meta.media.0.codec.name">vp9</property>
  <property name="kdenlive:original.meta.media.0.codec.long_name">Google VP9</property>
  <property name="kdenlive:original.meta.media.0.codec.bit_rate">16462336</property>
  <property name="kdenlive:original.meta.attr.0.stream.language.markup">eng</property>
  <property name="kdenlive:original.meta.attr.0.stream.handler_name.markup">VideoHandler</property>
  <property name="kdenlive:original.meta.attr.major_brand.markup">isom</property>
  <property name="kdenlive:original.meta.attr.minor_version.markup">512</property>
  <property name="kdenlive:original.meta.attr.compatible_brands.markup">isomiso2mp41</property>
  <property name="kdenlive:original.meta.attr.encoder.markup">Lavf58.45.100</property>
  <property name="kdenlive:original.seekable">1</property>
  <property name="kdenlive:original.width">3840</property>
  <property name="kdenlive:original.height">2160</property>
  <property name="kdenlive:original.meta.media.sample_aspect_num">1</property>
  <property name="kdenlive:original.meta.media.sample_aspect_den">1</property>
  <property name="kdenlive:original.aspect_ratio">1</property>
  <property name="kdenlive:original.audio_index">-1</property>
  <property name="kdenlive:original.video_index">0</property>
  <property name="kdenlive:original.mute_on_pause">0</property>
  <property name="kdenlive:original.mlt_service">avformat-novalidate</property>
  <property name="kdenlive:original.kdenlive:folderid">55</property>
  <property name="kdenlive:original.meta.media.frame_rate_num">320000</property>
  <property name="kdenlive:original.meta.media.frame_rate_den">10677</property>
  <property name="kdenlive:original.meta.media.colorspace">709</property>
  <property name="kdenlive:original.meta.media.color_trc">1</property>
  <property name="kdenlive:original.meta.media.width">3840</property>
  <property name="kdenlive:original.meta.media.height">2160</property>
  <property name="kdenlive:original.meta.media.color_range">mpeg</property>
  <property name="kdenlive:original.kdenlive:id">134</property>
  <property name="kdenlive:original.kdenlive:file_size">21975394</property>
  <property name="kdenlive:original.kdenlive:file_hash">8883bf7e3eb097f98c10aeb3207a2209</property>
  <property name="kdenlive:original.backup">1</property>
  <property name="global_feed">1</property>
  <property name="meta.media.nb_streams">1</property>
  <property name="meta.media.0.stream.type">video</property>
  <property name="meta.media.0.stream.frame_rate">29.97</property>
  <property name="meta.media.0.stream.sample_aspect_ratio">1</property>
  <property name="meta.media.0.codec.width">640</property>
  <property name="meta.media.0.codec.height">360</property>
  <property name="meta.media.0.codec.rotate">0</property>
  <property name="meta.media.0.codec.frame_rate">1000</property>
  <property name="meta.media.0.codec.pix_fmt">yuvj420p</property>
  <property name="meta.media.0.codec.sample_aspect_ratio">1</property>
  <property name="meta.media.0.codec.colorspace">601</property>
  <property name="meta.media.0.codec.name">mjpeg</property>
  <property name="meta.media.0.codec.long_name">MJPEG (Motion JPEG)</property>
  <property name="meta.media.0.codec.bit_rate">0</property>
  <property name="meta.attr.0.stream.language.markup">eng</property>
  <property name="meta.attr.0.stream.HANDLER_NAME.markup">VideoHandler</property>
  <property name="meta.attr.0.stream.ENCODER.markup">Lavc58.91.100 mjpeg</property>
  <property name="meta.attr.0.stream.DURATION.markup">00:00:10.677000000</property>
  <property name="meta.attr.COMPATIBLE_BRANDS.markup">isomiso2mp41</property>
  <property name="meta.attr.MAJOR_BRAND.markup">isom</property>
  <property name="meta.attr.MINOR_VERSION.markup">512</property>
  <property name="meta.attr.ENCODER.markup">Lavf58.45.100</property>
  <property name="meta.media.sample_aspect_num">1</property>
  <property name="meta.media.sample_aspect_den">1</property>
  <property name="meta.media.frame_rate_num">30000</property>
  <property name="meta.media.frame_rate_den">1001</property>
  <property name="meta.media.colorspace">601</property>
  <property name="meta.media.color_trc">2</property>
  <property name="meta.media.width">640</property>
  <property name="meta.media.height">360</property>
  <property name="meta.media.color_range">full</property>
  <property name="meta.media.top_field_first">0</property>
  <property name="meta.media.progressive">1</property>
 </producer>
 <playlist id="main_bin">
  <property name="kdenlive:folder.-1.40">storyboard</property>
  <property name="kdenlive:folder.-1.41">musicians</property>
  <property name="kdenlive:folder.-1.55">footage</property>
  <property name="kdenlive:folder.-1.71">ai</property>
  <property name="kdenlive:docproperties.activeTrack">2</property>
  <property name="kdenlive:docproperties.audioChannels">2</property>
  <property name="kdenlive:docproperties.audioTarget">-1</property>
  <property name="kdenlive:docproperties.dirtypreviewchunks"/>
  <property name="kdenlive:docproperties.disablepreview">0</property>
  <property name="kdenlive:docproperties.documentid">1620996488137</property>
  <property name="kdenlive:docproperties.enableTimelineZone">0</property>
  <property name="kdenlive:docproperties.enableexternalproxy">0</property>
  <property name="kdenlive:docproperties.enableproxy">1</property>
  <property name="kdenlive:docproperties.externalproxyparams">../Sub;;S03.MP4;../Clip;;.MXF</property>
  <property name="kdenlive:docproperties.generateimageproxy">0</property>
  <property name="kdenlive:docproperties.generateproxy">1</property>
  <property name="kdenlive:docproperties.groups">[
    {
        "children": [
            {
                "data": "6:8086",
                "leaf": "clip",
                "type": "Leaf"
            },
            {
                "data": "6:8033",
                "leaf": "clip",
                "type": "Leaf"
            },
            {
                "data": "6:8049",
                "leaf": "clip",
                "type": "Leaf"
            }
        ],
        "type": "Normal"
    }
]
</property>
  <property name="kdenlive:docproperties.guides">[
    {
        "comment": "start",
        "pos": 210,
        "type": 4
    },
    {
        "comment": "bass solo",
        "pos": 2556,
        "type": 0
    },
    {
        "comment": "snare hit",
        "pos": 3595,
        "type": 2
    },
    {
        "comment": "piano solo",
        "pos": 3713,
        "type": 0
    },
    {
        "comment": "transition",
        "pos": 6180,
        "type": 2
    },
    {
        "comment": "bass walk",
        "pos": 6291,
        "type": 0
    },
    {
        "comment": "theme",
        "pos": 7010,
        "type": 0
    },
    {
        "comment": "bass walk",
        "pos": 7588,
        "type": 0
    },
    {
        "comment": "guide",
        "pos": 975,
        "type": 0
    },
    {
        "comment": "guide",
        "pos": 1033,
        "type": 0
    },
    {
        "comment": "guide",
        "pos": 1056,
        "type": 0
    },
    {
        "comment": "guide",
        "pos": 1091,
        "type": 0
    },
    {
        "comment": "guide",
        "pos": 1130,
        "type": 0
    },
    {
        "comment": "guide",
        "pos": 1207,
        "type": 0
    },
    {
        "comment": "guide",
        "pos": 1203,
        "type": 0
    },
    {
        "comment": "guide",
        "pos": 1243,
        "type": 0
    },
    {
        "comment": "guide",
        "pos": 1281,
        "type": 0
    },
    {
        "comment": "guide",
        "pos": 1354,
        "type": 0
    },
    {
        "comment": "guide",
        "pos": 1391,
        "type": 0
    },
    {
        "comment": "guide",
        "pos": 1429,
        "type": 0
    },
    {
        "comment": "guide",
        "pos": 1484,
        "type": 0
    },
    {
        "comment": "guide",
        "pos": 1509,
        "type": 0
    },
    {
        "comment": "guide",
        "pos": 1512,
        "type": 0
    },
    {
        "comment": "guide",
        "pos": 1538,
        "type": 0
    },
    {
        "comment": "guide",
        "pos": 1574,
        "type": 0
    },
    {
        "comment": "guide",
        "pos": 1639,
        "type": 0
    },
    {
        "comment": "guide",
        "pos": 1649,
        "type": 0
    },
    {
        "comment": "guide",
        "pos": 1652,
        "type": 0
    },
    {
        "comment": "guide",
        "pos": 1685,
        "type": 0
    },
    {
        "comment": "guide",
        "pos": 1722,
        "type": 0
    },
    {
        "comment": "guide",
        "pos": 1733,
        "type": 0
    },
    {
        "comment": "guide",
        "pos": 1776,
        "type": 0
    },
    {
        "comment": "guide",
        "pos": 1794,
        "type": 0
    },
    {
        "comment": "guide",
        "pos": 1797,
        "type": 0
    },
    {
        "comment": "guide",
        "pos": 1867,
        "type": 0
    },
    {
        "comment": "guide",
        "pos": 1923,
        "type": 0
    },
    {
        "comment": "guide",
        "pos": 1947,
        "type": 0
    },
    {
        "comment": "guide",
        "pos": 1951,
        "type": 0
    },
    {
        "comment": "guide",
        "pos": 1977,
        "type": 0
    },
    {
        "comment": "guide",
        "pos": 2013,
        "type": 0
    },
    {
        "comment": "guide",
        "pos": 2065,
        "type": 0
    },
    {
        "comment": "guide",
        "pos": 2083,
        "type": 0
    },
    {
        "comment": "guide",
        "pos": 2090,
        "type": 0
    },
    {
        "comment": "guide",
        "pos": 2093,
        "type": 0
    },
    {
        "comment": "guide",
        "pos": 936,
        "type": 0
    },
    {
        "comment": "guide",
        "pos": 1830,
        "type": 1
    },
    {
        "comment": "guide",
        "pos": 9787,
        "type": 1
    },
    {
        "comment": "guide",
        "pos": 8630,
        "type": 1
    },
    {
        "comment": "guide",
        "pos": 8178,
        "type": 1
    },
    {
        "comment": "guide",
        "pos": 2335,
        "type": 1
    },
    {
        "comment": "guide",
        "pos": 8777,
        "type": 0
    },
    {
        "comment": "guide",
        "pos": 8925,
        "type": 0
    },
    {
        "comment": "end",
        "pos": 9987,
        "type": 4
    },
    {
        "comment": "guide",
        "pos": 8390,
        "type": 0
    },
    {
        "comment": "guide",
        "pos": 8444,
        "type": 0
    },
    {
        "comment": "guide",
        "pos": 8467,
        "type": 0
    },
    {
        "comment": "guide",
        "pos": 8540,
        "type": 0
    },
    {
        "comment": "guide",
        "pos": 8558,
        "type": 0
    },
    {
        "comment": "guide",
        "pos": 8569,
        "type": 0
    },
    {
        "comment": "guide",
        "pos": 8577,
        "type": 0
    },
    {
        "comment": "guide",
        "pos": 8601,
        "type": 0
    },
    {
        "comment": "guide",
        "pos": 8612,
        "type": 0
    },
    {
        "comment": "guide",
        "pos": 8615,
        "type": 0
    },
    {
        "comment": "guide",
        "pos": 8399,
        "type": 0
    },
    {
        "comment": "guide",
        "pos": 8504,
        "type": 0
    }
]
</property>
  <property name="kdenlive:docproperties.kdenliveversion">21.04.3</property>
  <property name="kdenlive:docproperties.position">8524</property>
  <property name="kdenlive:docproperties.previewchunks"/>
  <property name="kdenlive:docproperties.previewextension">avi</property>
  <property name="kdenlive:docproperties.previewparameters">f=avi vcodec=mjpeg progressive=1 qscale=1</property>
  <property name="kdenlive:docproperties.profile">atsc_1080p_30</property>
  <property name="kdenlive:docproperties.proxyextension"/>
  <property name="kdenlive:docproperties.proxyimageminsize">2000</property>
  <property name="kdenlive:docproperties.proxyimagesize">800</property>
  <property name="kdenlive:docproperties.proxyminsize">1920</property>
  <property name="kdenlive:docproperties.proxyparams"/>
  <property name="kdenlive:docproperties.renderaudioquality">192</property>
  <property name="kdenlive:docproperties.rendercategory">Generic (HD for web, mobile devices...)</property>
  <property name="kdenlive:docproperties.renderendguide">1</property>
  <property name="kdenlive:docproperties.renderexportaudio">0</property>
  <property name="kdenlive:docproperties.renderfield">0</property>
  <property name="kdenlive:docproperties.renderguide">0</property>
  <property name="kdenlive:docproperties.renderplay">0</property>
  <property name="kdenlive:docproperties.renderprofile">MP4-H264/AAC</property>
  <property name="kdenlive:docproperties.renderquality">23</property>
  <property name="kdenlive:docproperties.renderratio">1</property>
  <property name="kdenlive:docproperties.renderrescale">0</property>
  <property name="kdenlive:docproperties.renderrescaleheight">540</property>
  <property name="kdenlive:docproperties.renderrescalewidth">960</property>
  <property name="kdenlive:docproperties.renderscanning">0</property>
  <property name="kdenlive:docproperties.renderspeed">2</property>
  <property name="kdenlive:docproperties.renderstartguide">0</property>
  <property name="kdenlive:docproperties.rendertcoverlay">0</property>
  <property name="kdenlive:docproperties.rendertctype">0</property>
  <property name="kdenlive:docproperties.rendertwopass">0</property>
  <property name="kdenlive:docproperties.renderurl">jackson_ending_6.mp4</property>
  <property name="kdenlive:docproperties.renderzone">1</property>
  <property name="kdenlive:docproperties.scrollPos">3825</property>
  <property name="kdenlive:docproperties.seekOffset">30000</property>
  <property name="kdenlive:docproperties.version">1</property>
  <property name="kdenlive:docproperties.verticalzoom">1</property>
  <property name="kdenlive:docproperties.videoTarget">2</property>
  <property name="kdenlive:docproperties.zonein">6291</property>
  <property name="kdenlive:docproperties.zoneout">9987</property>
  <property name="kdenlive:docproperties.zoom">7</property>
  <property name="kdenlive:expandedFolders">55</property>
  <property name="kdenlive:documentnotes">&lt;!DOCTYPE HTML PUBLIC "-//W3C//DTD HTML 4.0//EN" "http://www.w3.org/TR/REC-html40/strict.dtd">
&lt;html>&lt;head>&lt;meta name="qrichtext" content="1" />&lt;style type="text/css">
p, li { white-space: pre-wrap; }
&lt;/style>&lt;/head>&lt;body style=" font-family:'Sans Serif'; font-size:9pt; font-weight:400; font-style:normal;">
&lt;p style=" margin-top:0px; margin-bottom:0px; margin-left:0px; margin-right:0px; -qt-block-indent:0; text-indent:0px;">x&lt;/p>&lt;/body>&lt;/html></property>
  <property name="xml_retain">1</property>
  <entry producer="producer0" in="00:00:00.000" out="00:01:03.333"/>
  <entry producer="producer1" in="00:00:00.000" out="00:05:01.933"/>
  <entry producer="producer3" in="00:00:00.000" out="00:00:06.733"/>
  <entry producer="producer4" in="00:00:00.000" out="00:00:51.800"/>
  <entry producer="producer5" in="00:00:00.000" out="00:02:00.733"/>
  <entry producer="producer6" in="00:00:00.000" out="00:00:55.533"/>
  <entry producer="producer7" in="00:00:00.000" out="00:00:48.533"/>
  <entry producer="producer8" in="00:00:00.000" out="00:05:48.333"/>
  <entry producer="producer9" in="00:00:00.000" out="00:00:36.867"/>
  <entry producer="producer10" in="00:00:00.000" out="00:00:26.533"/>
  <entry producer="producer11" in="00:00:00.000" out="00:06:29.800"/>
  <entry producer="producer12" in="00:00:00.000" out="00:00:54.000"/>
  <entry producer="producer13" in="00:00:00.000" out="00:11:31.133"/>
  <entry producer="producer17" in="00:00:00.000" out="00:03:15.267"/>
  <entry producer="producer2" in="00:00:00.000" out="00:02:45.000"/>
  <entry producer="producer14" in="00:00:00.000" out="00:00:07.800"/>
  <entry producer="producer16" in="00:00:00.000" out="00:14:18.467"/>
  <entry producer="producer19" in="00:00:00.000" out="00:01:57.000"/>
  <entry producer="producer20" in="00:00:00.000" out="00:01:43.133"/>
  <entry producer="producer21" in="00:00:00.000" out="00:02:24.933"/>
  <entry producer="producer22" in="00:00:00.000" out="00:02:08.600"/>
  <entry producer="producer23" in="00:00:00.000" out="00:01:15.267"/>
  <entry producer="producer24" in="00:00:00.000" out="00:02:28.133"/>
  <entry producer="producer25" in="00:00:00.000" out="00:02:28.133"/>
  <entry producer="producer26" in="00:00:00.000" out="00:00:35.533"/>
  <entry producer="producer27" in="00:00:00.000" out="00:00:33.067"/>
  <entry producer="producer29" in="00:00:00.000" out="00:04:59.600"/>
  <entry producer="producer28" in="00:00:00.000" out="00:04:01.167"/>
  <entry producer="producer30" in="00:00:00.000" out="00:01:01.800"/>
  <entry producer="producer31" in="00:00:00.000" out="00:01:18.333"/>
  <entry producer="producer32" in="00:00:00.000" out="00:05:25.867"/>
  <entry producer="producer34" in="00:00:00.000" out="00:04:00.633"/>
  <entry producer="producer33" in="00:00:00.000" out="00:02:25.600"/>
  <entry producer="producer36" in="00:00:00.000" out="00:04:09.133"/>
  <entry producer="producer35" in="00:00:00.000" out="00:02:19.167"/>
  <entry producer="producer37" in="00:00:00.000" out="00:00:59.367"/>
  <entry producer="producer38" in="00:00:00.000" out="00:02:27.500"/>
  <entry producer="producer39" in="00:00:00.000" out="00:04:14.500"/>
  <entry producer="producer40" in="00:00:00.000" out="00:00:21.300"/>
  <entry producer="producer42" in="00:00:00.000" out="00:04:00.133"/>
  <entry producer="producer41" in="00:00:00.000" out="00:02:22.400"/>
  <entry producer="producer43" in="00:00:00.000" out="00:00:12.500"/>
  <entry producer="producer15" in="00:00:00.000" out="00:02:24.967"/>
  <entry producer="producer18" in="00:00:00.000" out="00:01:59.800"/>
  <entry producer="producer44" in="00:00:00.000" out="00:00:06.800"/>
  <entry producer="producer45" in="00:00:00.000" out="00:00:07.833"/>
  <entry producer="producer46" in="00:00:00.000" out="00:00:36.867"/>
  <entry producer="producer47" in="00:00:00.000" out="00:00:26.500"/>
  <entry producer="producer48" in="00:00:00.000" out="00:05:19.200"/>
  <entry producer="producer64" in="00:00:00.000" out="00:00:03.000"/>
  <entry producer="producer65" in="00:00:00.000" out="00:00:03.000"/>
  <entry producer="producer49" in="00:00:00.000" out="00:00:04.967"/>
  <entry producer="producer50" in="00:00:00.000" out="00:00:04.967"/>
  <entry producer="producer51" in="00:00:00.000" out="00:00:06.133"/>
  <entry producer="producer52" in="00:00:00.000" out="00:00:55.567"/>
  <entry producer="producer53" in="00:00:00.000" out="00:00:11.000"/>
  <entry producer="producer54" in="00:00:00.000" out="00:00:47.267"/>
  <entry producer="producer55" in="00:00:00.000" out="00:00:36.067"/>
  <entry producer="producer56" in="00:00:00.000" out="00:04:20.267"/>
  <entry producer="producer57" in="00:00:00.000" out="00:00:40.233"/>
  <entry producer="producer58" in="00:00:00.000" out="00:00:04.967"/>
  <entry producer="producer59" in="00:00:00.000" out="00:00:38.633"/>
  <entry producer="producer60" in="00:00:00.000" out="00:00:27.400"/>
  <entry producer="producer61" in="00:00:00.000" out="00:00:03.000"/>
  <entry producer="producer62" in="00:00:00.000" out="00:00:03.000"/>
  <entry producer="producer63" in="00:00:00.000" out="00:00:03.000"/>
  <entry producer="producer66" in="00:00:00.000" out="00:00:03.000"/>
  <entry producer="producer67" in="00:00:00.000" out="00:00:03.000"/>
  <entry producer="producer68" in="00:00:00.000" out="00:00:03.000"/>
  <entry producer="producer69" in="00:00:00.000" out="00:00:03.000"/>
  <entry producer="producer70" in="00:00:00.000" out="00:00:03.000"/>
  <entry producer="producer71" in="00:00:00.000" out="00:00:03.000"/>
  <entry producer="producer72" in="00:00:00.000" out="00:00:03.000"/>
  <entry producer="producer73" in="00:00:00.000" out="00:00:03.000"/>
  <entry producer="producer74" in="00:00:00.000" out="00:00:04.967"/>
  <entry producer="producer75" in="00:00:00.000" out="00:00:51.833"/>
  <entry producer="producer76" in="00:00:00.000" out="00:00:50.933"/>
  <entry producer="producer77" in="00:00:00.000" out="00:01:39.800"/>
  <entry producer="producer78" in="00:00:00.000" out="00:01:52.100"/>
  <entry producer="producer79" in="00:00:00.000" out="00:00:04.967"/>
  <entry producer="producer80" in="00:00:00.000" out="00:00:04.967"/>
  <entry producer="producer81" in="00:00:00.000" out="00:00:04.967"/>
  <entry producer="producer82" in="00:00:00.000" out="00:00:03.000"/>
  <entry producer="producer83" in="00:00:00.000" out="00:00:03.000"/>
  <entry producer="producer84" in="00:00:00.000" out="00:00:03.000"/>
  <entry producer="producer85" in="00:00:00.000" out="00:00:03.000"/>
  <entry producer="producer86" in="00:00:00.000" out="00:00:03.000"/>
  <entry producer="producer87" in="00:00:00.000" out="00:00:03.000"/>
  <entry producer="producer88" in="00:00:00.000" out="00:00:03.000"/>
  <entry producer="producer89" in="00:00:00.000" out="00:00:03.000"/>
  <entry producer="producer90" in="00:00:00.000" out="00:00:03.000"/>
  <entry producer="producer91" in="00:00:00.000" out="00:00:03.000"/>
  <entry producer="producer92" in="00:00:00.000" out="00:00:03.000"/>
  <entry producer="producer93" in="00:00:00.000" out="00:00:03.000"/>
  <entry producer="producer94" in="00:00:00.000" out="00:00:03.000"/>
  <entry producer="producer95" in="00:00:00.000" out="00:00:03.000"/>
  <entry producer="producer96" in="00:00:00.000" out="00:00:03.000"/>
  <entry producer="producer97" in="00:00:00.000" out="00:00:03.000"/>
  <entry producer="producer98" in="00:00:00.000" out="00:00:03.000"/>
  <entry producer="producer99" in="00:00:00.000" out="00:00:03.000"/>
  <entry producer="producer100" in="00:00:00.000" out="00:00:03.000"/>
  <entry producer="producer101" in="00:00:00.000" out="00:00:04.967"/>
  <entry producer="producer102" in="00:00:00.000" out="00:00:10.633"/>
 </playlist>
 <producer id="black_track" in="00:00:00.000" out="00:31:34.000">
  <property name="length">2147483647</property>
  <property name="eof">continue</property>
  <property name="resource">black</property>
  <property name="aspect_ratio">1</property>
  <property name="mlt_service">color</property>
  <property name="mlt_image_format">rgb24a</property>
  <property name="set.test_audio">0</property>
 </producer>
 <producer id="producer103" in="00:00:00.000" out="00:05:25.867">
  <property name="length">9777</property>
  <property name="eof">pause</property>
  <property name="resource">20210602_SpectrumMusic-SoundEscapes-Jackson EDIT5.wav</property>
  <property name="audio_index">0</property>
  <property name="video_index">-1</property>
  <property name="mute_on_pause">0</property>
  <property name="mlt_service">avformat-novalidate</property>
  <property name="meta.media.nb_streams">1</property>
  <property name="meta.media.0.stream.type">audio</property>
  <property name="meta.media.0.codec.sample_fmt">s32</property>
  <property name="meta.media.0.codec.sample_rate">48000</property>
  <property name="meta.media.0.codec.channels">2</property>
  <property name="meta.media.0.codec.name">pcm_s24le</property>
  <property name="meta.media.0.codec.long_name">PCM signed 24-bit little-endian</property>
  <property name="meta.media.0.codec.bit_rate">2304000</property>
  <property name="meta.attr.encoded_by.markup">Pro Tools</property>
  <property name="meta.attr.originator_reference.markup">auO8N7ZYGpJk</property>
  <property name="meta.attr.date.markup">2021-06-13</property>
  <property name="meta.attr.creation_time.markup">00:51:48</property>
  <property name="meta.attr.time_reference.markup">152935167</property>
  <property name="meta.attr.umid.markup">0x060A2B340101010501010F101300000033E0CB3EE7F28500BAFE005056C00001</property>
  <property name="seekable">1</property>
  <property name="kdenlive:clipname"/>
  <property name="kdenlive:folderid">-1</property>
  <property name="kdenlive:id">32</property>
  <property name="kdenlive:file_size">94357590</property>
  <property name="kdenlive:file_hash">068cceca2ec1150c2438ddc3a69b970d</property>
  <property name="kdenlive:audio_max">1</property>
  <property name="global_feed">1</property>
  <property name="xml">was here</property>
  <property name="set.test_audio">0</property>
  <property name="set.test_image">1</property>
 </producer>
 <playlist id="playlist0">
  <property name="kdenlive:audio_track">1</property>
  <blank length="00:00:07.000"/>
  <entry producer="producer103" in="00:00:00.000" out="00:05:25.867">
   <property name="kdenlive:id">32</property>
  </entry>
 </playlist>
 <playlist id="playlist1"/>
 <tractor id="tractor0" in="00:00:00.000" out="00:05:32.867">
  <property name="kdenlive:audio_track">1</property>
  <property name="kdenlive:trackheight">69</property>
  <property name="kdenlive:timeline_active">1</property>
  <property name="kdenlive:collapsed">0</property>
  <property name="kdenlive:thumbs_format"/>
  <property name="kdenlive:audio_rec"/>
  <track hide="video" producer="playlist0"/>
  <track hide="video" producer="playlist1"/>
  <filter id="filter5">
   <property name="window">75</property>
   <property name="max_gain">20dB</property>
   <property name="mlt_service">volume</property>
   <property name="internal_added">237</property>
   <property name="disable">1</property>
  </filter>
  <filter id="filter6">
   <property name="channel">-1</property>
   <property name="mlt_service">panner</property>
   <property name="internal_added">237</property>
   <property name="start">0.5</property>
   <property name="disable">1</property>
  </filter>
  <filter id="filter7">
   <property name="iec_scale">0</property>
   <property name="mlt_service">audiolevel</property>
   <property name="disable">1</property>
  </filter>
 </tractor>
 <producer id="producer104" in="00:00:00.000" out="00:03:15.267">
  <property name="length">00:03:15.333</property>
  <property name="eof">pause</property>
  <property name="resource">/home/ryankelln/Documents/Projects/Active/Sound_Escapes/rehearsals/1/SoundEscapes_JacksonRehearsal1.mp3</property>
  <property name="audio_index">0</property>
  <property name="video_index">-1</property>
  <property name="mute_on_pause">0</property>
  <property name="mlt_service">avformat-novalidate</property>
  <property name="meta.media.nb_streams">1</property>
  <property name="meta.media.0.stream.type">audio</property>
  <property name="meta.media.0.codec.sample_fmt">fltp</property>
  <property name="meta.media.0.codec.sample_rate">48000</property>
  <property name="meta.media.0.codec.channels">2</property>
  <property name="meta.media.0.codec.name">mp3float</property>
  <property name="meta.media.0.codec.long_name">MP3 (MPEG audio layer 3)</property>
  <property name="meta.media.0.codec.bit_rate">195000</property>
  <property name="meta.attr.0.stream.encoder.markup">LAME3.100</property>
  <property name="seekable">1</property>
  <property name="kdenlive:clipname"/>
  <property name="kdenlive:folderid">-1</property>
  <property name="kdenlive:id">15</property>
  <property name="kdenlive:file_size">4761312</property>
  <property name="kdenlive:file_hash">9645b4182ecb2c41169d1f5a8e0a7f9c</property>
  <property name="kdenlive:audio_max">1</property>
  <property name="global_feed">1</property>
  <property name="xml">was here</property>
  <property name="set.test_audio">0</property>
  <property name="set.test_image">1</property>
 </producer>
 <playlist id="playlist2">
  <property name="kdenlive:audio_track">1</property>
  <blank length="00:07:29.267"/>
  <entry producer="producer104" in="00:00:00.000" out="00:03:15.267">
   <property name="kdenlive:id">15</property>
  </entry>
 </playlist>
 <playlist id="playlist3"/>
 <tractor id="tractor1" in="00:00:00.000" out="00:10:44.533">
  <property name="kdenlive:audio_track">1</property>
  <property name="kdenlive:trackheight">69</property>
  <property name="kdenlive:timeline_active">1</property>
  <property name="kdenlive:collapsed">0</property>
  <property name="kdenlive:thumbs_format"/>
  <property name="kdenlive:audio_rec"/>
  <track hide="both" producer="playlist2"/>
  <track hide="video" producer="playlist3"/>
  <filter id="filter8">
   <property name="window">75</property>
   <property name="max_gain">20dB</property>
   <property name="mlt_service">volume</property>
   <property name="internal_added">237</property>
   <property name="disable">1</property>
  </filter>
  <filter id="filter9">
   <property name="channel">-1</property>
   <property name="mlt_service">panner</property>
   <property name="internal_added">237</property>
   <property name="start">0.5</property>
   <property name="disable">1</property>
  </filter>
  <filter id="filter10">
   <property name="iec_scale">0</property>
   <property name="mlt_service">audiolevel</property>
   <property name="disable">1</property>
  </filter>
 </tractor>
 <producer id="producer105" in="00:00:00.000" out="00:00:36.867">
  <property name="length">1109</property>
  <property name="eof">pause</property>
  <property name="resource">/home/ryankelln/.cache/kdenlive/proxy/b2be9f3e4ba5a4ff8901ca563d188491.mkv</property>
  <property name="audio_index">-1</property>
  <property name="video_index">0</property>
  <property name="mute_on_pause">0</property>
  <property name="mlt_service">avformat-novalidate</property>
  <property name="seekable">1</property>
  <property name="aspect_ratio">1</property>
  <property name="kdenlive:clipname">SeagullsCloseMaster_h264.mp4</property>
  <property name="kdenlive:folderid">55</property>
  <property name="kdenlive:id">50</property>
  <property name="kdenlive:file_size">49278582</property>
  <property name="kdenlive:file_hash">b2be9f3e4ba5a4ff8901ca563d188491</property>
  <property name="kdenlive:proxy">/home/ryankelln/.cache/kdenlive/proxy/b2be9f3e4ba5a4ff8901ca563d188491.mkv</property>
  <property name="kdenlive:originalurl">content/footage/SeagullsCloseMaster_h264.mp4</property>
  <property name="kdenlive:original.mlt_type">producer</property>
  <property name="kdenlive:original.in">0</property>
  <property name="kdenlive:original.out">1108</property>
  <property name="kdenlive:original.length">1109</property>
  <property name="kdenlive:original.eof">pause</property>
  <property name="kdenlive:original.resource">content/footage/SeagullsCloseMaster_h264.mp4</property>
  <property name="kdenlive:original.meta.media.nb_streams">1</property>
  <property name="kdenlive:original.meta.media.0.stream.type">video</property>
  <property name="kdenlive:original.meta.media.0.stream.frame_rate">23.976</property>
  <property name="kdenlive:original.meta.media.0.stream.sample_aspect_ratio">0</property>
  <property name="kdenlive:original.meta.media.0.codec.width">1920</property>
  <property name="kdenlive:original.meta.media.0.codec.height">1080</property>
  <property name="kdenlive:original.meta.media.0.codec.rotate">0</property>
  <property name="kdenlive:original.meta.media.0.codec.frame_rate">23.976</property>
  <property name="kdenlive:original.meta.media.0.codec.pix_fmt">yuv420p</property>
  <property name="kdenlive:original.meta.media.0.codec.sample_aspect_ratio">1</property>
  <property name="kdenlive:original.meta.media.0.codec.colorspace">709</property>
  <property name="kdenlive:original.meta.media.0.codec.name">h264</property>
  <property name="kdenlive:original.meta.media.0.codec.long_name">H.264 / AVC / MPEG-4 AVC / MPEG-4 part 10</property>
  <property name="kdenlive:original.meta.media.0.codec.bit_rate">10664727</property>
  <property name="kdenlive:original.meta.attr.0.stream.creation_time.markup">2013-11-30T22:42:06.000000Z</property>
  <property name="kdenlive:original.meta.attr.0.stream.language.markup">eng</property>
  <property name="kdenlive:original.meta.attr.0.stream.handler_name.markup">Mainconcept MP4 Video Media Handler</property>
  <property name="kdenlive:original.meta.attr.0.stream.encoder.markup">AVC Coding</property>
  <property name="kdenlive:original.meta.attr.major_brand.markup">mp42</property>
  <property name="kdenlive:original.meta.attr.minor_version.markup">0</property>
  <property name="kdenlive:original.meta.attr.compatible_brands.markup">mp42mp41</property>
  <property name="kdenlive:original.meta.attr.creation_time.markup">2013-11-30T22:42:06.000000Z</property>
  <property name="kdenlive:original.seekable">1</property>
  <property name="kdenlive:original.width">1920</property>
  <property name="kdenlive:original.height">1080</property>
  <property name="kdenlive:original.meta.media.sample_aspect_num">1</property>
  <property name="kdenlive:original.meta.media.sample_aspect_den">1</property>
  <property name="kdenlive:original.aspect_ratio">1</property>
  <property name="kdenlive:original.audio_index">-1</property>
  <property name="kdenlive:original.video_index">0</property>
  <property name="kdenlive:original.mute_on_pause">0</property>
  <property name="kdenlive:original.mlt_service">avformat-novalidate</property>
  <property name="kdenlive:original.kdenlive:folderid">55</property>
  <property name="kdenlive:original.meta.media.frame_rate_num">2997</property>
  <property name="kdenlive:original.meta.media.frame_rate_den">125</property>
  <property name="kdenlive:original.meta.media.colorspace">709</property>
  <property name="kdenlive:original.meta.media.color_trc">2</property>
  <property name="kdenlive:original.meta.media.width">1920</property>
  <property name="kdenlive:original.meta.media.height">1080</property>
  <property name="kdenlive:original.meta.media.color_range">mpeg</property>
  <property name="kdenlive:original.kdenlive:id">60</property>
  <property name="kdenlive:original.kdenlive:file_size">49278582</property>
  <property name="kdenlive:original.kdenlive:file_hash">b2be9f3e4ba5a4ff8901ca563d188491</property>
  <property name="kdenlive:original.backup">1</property>
  <property name="global_feed">1</property>
  <property name="xml">was here</property>
  <property name="meta.media.nb_streams">1</property>
  <property name="meta.media.0.stream.type">video</property>
  <property name="meta.media.0.stream.frame_rate">23.976</property>
  <property name="meta.media.0.stream.sample_aspect_ratio">1</property>
  <property name="meta.media.0.codec.width">640</property>
  <property name="meta.media.0.codec.height">360</property>
  <property name="meta.media.0.codec.rotate">0</property>
  <property name="meta.media.0.codec.frame_rate">1000</property>
  <property name="meta.media.0.codec.pix_fmt">yuvj420p</property>
  <property name="meta.media.0.codec.sample_aspect_ratio">1</property>
  <property name="meta.media.0.codec.colorspace">601</property>
  <property name="meta.media.0.codec.name">mjpeg</property>
  <property name="meta.media.0.codec.long_name">MJPEG (Motion JPEG)</property>
  <property name="meta.media.0.codec.bit_rate">0</property>
  <property name="meta.attr.0.stream.language.markup">eng</property>
  <property name="meta.attr.0.stream.HANDLER_NAME.markup">Mainconcept MP4 Video Media Handler</property>
  <property name="meta.attr.0.stream.ENCODER.markup">Lavc58.91.100 mjpeg</property>
  <property name="meta.attr.0.stream.DURATION.markup">00:00:36.912000000</property>
  <property name="meta.attr.COMPATIBLE_BRANDS.markup">mp42mp41</property>
  <property name="meta.attr.MAJOR_BRAND.markup">mp42</property>
  <property name="meta.attr.MINOR_VERSION.markup">0</property>
  <property name="meta.attr.ENCODER.markup">Lavf58.45.100</property>
  <property name="meta.media.sample_aspect_num">1</property>
  <property name="meta.media.sample_aspect_den">1</property>
  <property name="meta.media.frame_rate_num">2997</property>
  <property name="meta.media.frame_rate_den">125</property>
  <property name="meta.media.colorspace">601</property>
  <property name="meta.media.color_trc">2</property>
  <property name="meta.media.width">640</property>
  <property name="meta.media.height">360</property>
  <property name="meta.media.color_range">full</property>
  <property name="meta.media.top_field_first">0</property>
  <property name="meta.media.progressive">1</property>
  <property name="set.test_audio">1</property>
  <property name="set.test_image">0</property>
 </producer>
 <producer id="producer106" in="00:00:00.000" out="00:00:26.500">
  <property name="length">797</property>
  <property name="eof">pause</property>
  <property name="resource">/home/ryankelln/.cache/kdenlive/proxy/bd6d2acdd39281a8b6041bdcfa9be12d.mkv</property>
  <property name="audio_index">-1</property>
  <property name="video_index">0</property>
  <property name="mute_on_pause">0</property>
  <property name="mlt_service">avformat-novalidate</property>
  <property name="seekable">1</property>
  <property name="aspect_ratio">1</property>
  <property name="kdenlive:clipname">SeagullsMediumAltMaster_h264.mp4</property>
  <property name="kdenlive:folderid">55</property>
  <property name="kdenlive:id">51</property>
  <property name="kdenlive:file_size">41486959</property>
  <property name="kdenlive:file_hash">bd6d2acdd39281a8b6041bdcfa9be12d</property>
  <property name="kdenlive:proxy">/home/ryankelln/.cache/kdenlive/proxy/bd6d2acdd39281a8b6041bdcfa9be12d.mkv</property>
  <property name="kdenlive:originalurl">content/footage/SeagullsMediumAltMaster_h264.mp4</property>
  <property name="kdenlive:original.mlt_type">producer</property>
  <property name="kdenlive:original.in">0</property>
  <property name="kdenlive:original.out">796</property>
  <property name="kdenlive:original.length">797</property>
  <property name="kdenlive:original.eof">pause</property>
  <property name="kdenlive:original.resource">content/footage/SeagullsMediumAltMaster_h264.mp4</property>
  <property name="kdenlive:original.meta.media.nb_streams">1</property>
  <property name="kdenlive:original.meta.media.0.stream.type">video</property>
  <property name="kdenlive:original.meta.media.0.stream.frame_rate">23.976</property>
  <property name="kdenlive:original.meta.media.0.stream.sample_aspect_ratio">0</property>
  <property name="kdenlive:original.meta.media.0.codec.width">1920</property>
  <property name="kdenlive:original.meta.media.0.codec.height">1080</property>
  <property name="kdenlive:original.meta.media.0.codec.rotate">0</property>
  <property name="kdenlive:original.meta.media.0.codec.frame_rate">23.976</property>
  <property name="kdenlive:original.meta.media.0.codec.pix_fmt">yuv420p</property>
  <property name="kdenlive:original.meta.media.0.codec.sample_aspect_ratio">1</property>
  <property name="kdenlive:original.meta.media.0.codec.colorspace">709</property>
  <property name="kdenlive:original.meta.media.0.codec.name">h264</property>
  <property name="kdenlive:original.meta.media.0.codec.long_name">H.264 / AVC / MPEG-4 AVC / MPEG-4 part 10</property>
  <property name="kdenlive:original.meta.media.0.codec.bit_rate">12488061</property>
  <property name="kdenlive:original.meta.attr.0.stream.creation_time.markup">2013-11-30T22:43:00.000000Z</property>
  <property name="kdenlive:original.meta.attr.0.stream.language.markup">eng</property>
  <property name="kdenlive:original.meta.attr.0.stream.handler_name.markup">Mainconcept MP4 Video Media Handler</property>
  <property name="kdenlive:original.meta.attr.0.stream.encoder.markup">AVC Coding</property>
  <property name="kdenlive:original.meta.attr.major_brand.markup">mp42</property>
  <property name="kdenlive:original.meta.attr.minor_version.markup">0</property>
  <property name="kdenlive:original.meta.attr.compatible_brands.markup">mp42mp41</property>
  <property name="kdenlive:original.meta.attr.creation_time.markup">2013-11-30T22:43:00.000000Z</property>
  <property name="kdenlive:original.seekable">1</property>
  <property name="kdenlive:original.width">1920</property>
  <property name="kdenlive:original.height">1080</property>
  <property name="kdenlive:original.meta.media.sample_aspect_num">1</property>
  <property name="kdenlive:original.meta.media.sample_aspect_den">1</property>
  <property name="kdenlive:original.aspect_ratio">1</property>
  <property name="kdenlive:original.audio_index">-1</property>
  <property name="kdenlive:original.video_index">0</property>
  <property name="kdenlive:original.mute_on_pause">0</property>
  <property name="kdenlive:original.mlt_service">avformat-novalidate</property>
  <property name="kdenlive:original.kdenlive:folderid">55</property>
  <property name="kdenlive:original.meta.media.frame_rate_num">2997</property>
  <property name="kdenlive:original.meta.media.frame_rate_den">125</property>
  <property name="kdenlive:original.meta.media.colorspace">709</property>
  <property name="kdenlive:original.meta.media.color_trc">2</property>
  <property name="kdenlive:original.meta.media.width">1920</property>
  <property name="kdenlive:original.meta.media.height">1080</property>
  <property name="kdenlive:original.meta.media.color_range">mpeg</property>
  <property name="kdenlive:original.kdenlive:id">61</property>
  <property name="kdenlive:original.kdenlive:file_size">41486959</property>
  <property name="kdenlive:original.kdenlive:file_hash">bd6d2acdd39281a8b6041bdcfa9be12d</property>
  <property name="kdenlive:original.backup">1</property>
  <property name="global_feed">1</property>
  <property name="xml">was here</property>
  <property name="meta.media.nb_streams">1</property>
  <property name="meta.media.0.stream.type">video</property>
  <property name="meta.media.0.stream.frame_rate">23.976</property>
  <property name="meta.media.0.stream.sample_aspect_ratio">1</property>
  <property name="meta.media.0.codec.width">640</property>
  <property name="meta.media.0.codec.height">360</property>
  <property name="meta.media.0.codec.rotate">0</property>
  <property name="meta.media.0.codec.frame_rate">1000</property>
  <property name="meta.media.0.codec.pix_fmt">yuvj420p</property>
  <property name="meta.media.0.codec.sample_aspect_ratio">1</property>
  <property name="meta.media.0.codec.colorspace">601</property>
  <property name="meta.media.0.codec.name">mjpeg</property>
  <property name="meta.media.0.codec.long_name">MJPEG (Motion JPEG)</property>
  <property name="meta.media.0.codec.bit_rate">0</property>
  <property name="meta.attr.0.stream.language.markup">eng</property>
  <property name="meta.attr.0.stream.HANDLER_NAME.markup">Mainconcept MP4 Video Media Handler</property>
  <property name="meta.attr.0.stream.ENCODER.markup">Lavc58.91.100 mjpeg</property>
  <property name="meta.attr.0.stream.DURATION.markup">00:00:26.527000000</property>
  <property name="meta.attr.COMPATIBLE_BRANDS.markup">mp42mp41</property>
  <property name="meta.attr.MAJOR_BRAND.markup">mp42</property>
  <property name="meta.attr.MINOR_VERSION.markup">0</property>
  <property name="meta.attr.ENCODER.markup">Lavf58.45.100</property>
  <property name="meta.media.sample_aspect_num">1</property>
  <property name="meta.media.sample_aspect_den">1</property>
  <property name="meta.media.frame_rate_num">2997</property>
  <property name="meta.media.frame_rate_den">125</property>
  <property name="meta.media.colorspace">601</property>
  <property name="meta.media.color_trc">2</property>
  <property name="meta.media.width">640</property>
  <property name="meta.media.height">360</property>
  <property name="meta.media.color_range">full</property>
  <property name="set.test_audio">1</property>
  <property name="set.test_image">0</property>
  <property name="meta.media.top_field_first">0</property>
  <property name="meta.media.progressive">1</property>
 </producer>
 <producer id="producer107" in="00:00:00.000" out="00:00:51.833">
  <property name="length">1556</property>
  <property name="eof">pause</property>
  <property name="resource">/home/ryankelln/.cache/kdenlive/proxy/1e429c3d88a4078b7a293ea92c3b379a.mkv</property>
  <property name="audio_index">1</property>
  <property name="video_index">0</property>
  <property name="mute_on_pause">0</property>
  <property name="mlt_service">avformat-novalidate</property>
  <property name="seekable">1</property>
  <property name="aspect_ratio">1</property>
  <property name="kdenlive:clipname">BirdsOnThePost.mp4</property>
  <property name="kdenlive:folderid">55</property>
  <property name="kdenlive:id">81</property>
  <property name="kdenlive:file_size">292463923</property>
  <property name="kdenlive:file_hash">1e429c3d88a4078b7a293ea92c3b379a</property>
  <property name="kdenlive:proxy">/home/ryankelln/.cache/kdenlive/proxy/1e429c3d88a4078b7a293ea92c3b379a.mkv</property>
  <property name="kdenlive:originalurl">content/footage/BirdsOnThePost.mp4</property>
  <property name="kdenlive:original.mlt_type">producer</property>
  <property name="kdenlive:original.in">0</property>
  <property name="kdenlive:original.out">1555</property>
  <property name="kdenlive:original.length">1556</property>
  <property name="kdenlive:original.eof">pause</property>
  <property name="kdenlive:original.resource">content/footage/BirdsOnThePost.mp4</property>
  <property name="kdenlive:original.meta.media.nb_streams">2</property>
  <property name="kdenlive:original.meta.media.0.stream.type">video</property>
  <property name="kdenlive:original.meta.media.0.stream.frame_rate">23.976</property>
  <property name="kdenlive:original.meta.media.0.stream.sample_aspect_ratio">0</property>
  <property name="kdenlive:original.meta.media.0.codec.width">1920</property>
  <property name="kdenlive:original.meta.media.0.codec.height">1080</property>
  <property name="kdenlive:original.meta.media.0.codec.rotate">0</property>
  <property name="kdenlive:original.meta.media.0.codec.frame_rate">23.976</property>
  <property name="kdenlive:original.meta.media.0.codec.pix_fmt">yuv420p</property>
  <property name="kdenlive:original.meta.media.0.codec.sample_aspect_ratio">1</property>
  <property name="kdenlive:original.meta.media.0.codec.colorspace">709</property>
  <property name="kdenlive:original.meta.media.0.codec.name">h264</property>
  <property name="kdenlive:original.meta.media.0.codec.long_name">H.264 / AVC / MPEG-4 AVC / MPEG-4 part 10</property>
  <property name="kdenlive:original.meta.media.0.codec.bit_rate">44999815</property>
  <property name="kdenlive:original.meta.attr.0.stream.creation_time.markup">2011-09-09T18:44:36.000000Z</property>
  <property name="kdenlive:original.meta.attr.0.stream.language.markup">eng</property>
  <property name="kdenlive:original.meta.attr.0.stream.handler_name.markup">Mainconcept MP4 Video Media Handler</property>
  <property name="kdenlive:original.meta.attr.0.stream.encoder.markup">AVC Coding</property>
  <property name="kdenlive:original.meta.media.1.stream.type">audio</property>
  <property name="kdenlive:original.meta.media.1.codec.sample_fmt">fltp</property>
  <property name="kdenlive:original.meta.media.1.codec.sample_rate">48000</property>
  <property name="kdenlive:original.meta.media.1.codec.channels">2</property>
  <property name="kdenlive:original.meta.media.1.codec.name">aac</property>
  <property name="kdenlive:original.meta.media.1.codec.long_name">AAC (Advanced Audio Coding)</property>
  <property name="kdenlive:original.meta.media.1.codec.bit_rate">125375</property>
  <property name="kdenlive:original.meta.attr.1.stream.creation_time.markup">2011-09-09T18:44:36.000000Z</property>
  <property name="kdenlive:original.meta.attr.1.stream.language.markup">eng</property>
  <property name="kdenlive:original.meta.attr.1.stream.handler_name.markup">Mainconcept MP4 Sound Media Handler</property>
  <property name="kdenlive:original.meta.attr.major_brand.markup">mp42</property>
  <property name="kdenlive:original.meta.attr.minor_version.markup">0</property>
  <property name="kdenlive:original.meta.attr.compatible_brands.markup">mp42mp41</property>
  <property name="kdenlive:original.meta.attr.creation_time.markup">2011-09-09T18:44:36.000000Z</property>
  <property name="kdenlive:original.seekable">1</property>
  <property name="kdenlive:original.width">1920</property>
  <property name="kdenlive:original.height">1080</property>
  <property name="kdenlive:original.meta.media.sample_aspect_num">1</property>
  <property name="kdenlive:original.meta.media.sample_aspect_den">1</property>
  <property name="kdenlive:original.aspect_ratio">1</property>
  <property name="kdenlive:original.audio_index">1</property>
  <property name="kdenlive:original.video_index">0</property>
  <property name="kdenlive:original.mute_on_pause">0</property>
  <property name="kdenlive:original.mlt_service">avformat-novalidate</property>
  <property name="kdenlive:original.kdenlive:folderid">55</property>
  <property name="kdenlive:original.meta.media.frame_rate_num">2997</property>
  <property name="kdenlive:original.meta.media.frame_rate_den">125</property>
  <property name="kdenlive:original.meta.media.colorspace">709</property>
  <property name="kdenlive:original.meta.media.color_trc">2</property>
  <property name="kdenlive:original.meta.media.width">1920</property>
  <property name="kdenlive:original.meta.media.height">1080</property>
  <property name="kdenlive:original.meta.media.color_range">mpeg</property>
  <property name="kdenlive:original.kdenlive:id">105</property>
  <property name="kdenlive:original.kdenlive:file_size">292463923</property>
  <property name="kdenlive:original.kdenlive:file_hash">1e429c3d88a4078b7a293ea92c3b379a</property>
  <property name="kdenlive:original.backup">1</property>
  <property name="kdenlive:active_streams">-1</property>
  <property name="global_feed">1</property>
  <property name="xml">was here</property>
  <property name="meta.media.nb_streams">2</property>
  <property name="meta.media.0.stream.type">video</property>
  <property name="meta.media.0.stream.frame_rate">23.976</property>
  <property name="meta.media.0.stream.sample_aspect_ratio">1</property>
  <property name="meta.media.0.codec.width">640</property>
  <property name="meta.media.0.codec.height">360</property>
  <property name="meta.media.0.codec.rotate">0</property>
  <property name="meta.media.0.codec.frame_rate">1000</property>
  <property name="meta.media.0.codec.pix_fmt">yuvj420p</property>
  <property name="meta.media.0.codec.sample_aspect_ratio">1</property>
  <property name="meta.media.0.codec.colorspace">601</property>
  <property name="meta.media.0.codec.name">mjpeg</property>
  <property name="meta.media.0.codec.long_name">MJPEG (Motion JPEG)</property>
  <property name="meta.media.0.codec.bit_rate">0</property>
  <property name="meta.attr.0.stream.language.markup">eng</property>
  <property name="meta.attr.0.stream.HANDLER_NAME.markup">Mainconcept MP4 Video Media Handler</property>
  <property name="meta.attr.0.stream.ENCODER.markup">Lavc58.91.100 mjpeg</property>
  <property name="meta.attr.0.stream.DURATION.markup">00:00:51.802000000</property>
  <property name="meta.media.1.stream.type">audio</property>
  <property name="meta.media.1.codec.sample_fmt">s16</property>
  <property name="meta.media.1.codec.sample_rate">48000</property>
  <property name="meta.media.1.codec.channels">2</property>
  <property name="meta.media.1.codec.name">pcm_s16le</property>
  <property name="meta.media.1.codec.long_name">PCM signed 16-bit little-endian</property>
  <property name="meta.media.1.codec.bit_rate">1536000</property>
  <property name="meta.attr.1.stream.language.markup">eng</property>
  <property name="meta.attr.1.stream.HANDLER_NAME.markup">Mainconcept MP4 Sound Media Handler</property>
  <property name="meta.attr.1.stream.ENCODER.markup">Lavc58.91.100 pcm_s16le</property>
  <property name="meta.attr.1.stream.DURATION.markup">00:00:51.861000000</property>
  <property name="meta.attr.COMPATIBLE_BRANDS.markup">mp42mp41</property>
  <property name="meta.attr.MAJOR_BRAND.markup">mp42</property>
  <property name="meta.attr.MINOR_VERSION.markup">0</property>
  <property name="meta.attr.ENCODER.markup">Lavf58.45.100</property>
  <property name="meta.media.sample_aspect_num">1</property>
  <property name="meta.media.sample_aspect_den">1</property>
  <property name="meta.media.frame_rate_num">2997</property>
  <property name="meta.media.frame_rate_den">125</property>
  <property name="meta.media.colorspace">601</property>
  <property name="meta.media.color_trc">2</property>
  <property name="meta.media.width">640</property>
  <property name="meta.media.height">360</property>
  <property name="meta.media.color_range">full</property>
  <property name="meta.media.top_field_first">0</property>
  <property name="meta.media.progressive">1</property>
  <property name="set.test_audio">1</property>
  <property name="set.test_image">0</property>
 </producer>
 <producer id="producer108" in="00:00:00.000" out="00:00:50.567">
  <property name="length">1518</property>
  <property name="eof">pause</property>
  <property name="resource">1.099078:/home/ryankelln/.cache/kdenlive/proxy/0408cbd72758135322641a2976371d84.mkv</property>
  <property name="aspect_ratio">1</property>
  <property name="meta.media.nb_streams">2</property>
  <property name="meta.media.0.stream.type">video</property>
  <property name="meta.media.0.stream.frame_rate">29.97</property>
  <property name="meta.media.0.stream.sample_aspect_ratio">1</property>
  <property name="meta.media.0.codec.width">640</property>
  <property name="meta.media.0.codec.height">360</property>
  <property name="meta.media.0.codec.rotate">0</property>
  <property name="meta.media.0.codec.frame_rate">1000</property>
  <property name="meta.media.0.codec.pix_fmt">yuvj420p</property>
  <property name="meta.media.0.codec.sample_aspect_ratio">1</property>
  <property name="meta.media.0.codec.colorspace">601</property>
  <property name="meta.media.0.codec.name">mjpeg</property>
  <property name="meta.media.0.codec.long_name">MJPEG (Motion JPEG)</property>
  <property name="meta.media.0.codec.bit_rate">0</property>
  <property name="meta.attr.0.stream.HANDLER_NAME.markup">VideoHandler</property>
  <property name="meta.attr.0.stream.ENCODER.markup">Lavc58.91.100 mjpeg</property>
  <property name="meta.attr.0.stream.DURATION.markup">00:00:55.555000000</property>
  <property name="meta.media.1.stream.type">audio</property>
  <property name="meta.media.1.codec.sample_fmt">s16</property>
  <property name="meta.media.1.codec.sample_rate">44100</property>
  <property name="meta.media.1.codec.channels">2</property>
  <property name="meta.media.1.codec.name">pcm_s16le</property>
  <property name="meta.media.1.codec.long_name">PCM signed 16-bit little-endian</property>
  <property name="meta.media.1.codec.bit_rate">1411200</property>
  <property name="meta.attr.1.stream.HANDLER_NAME.markup">SoundHandler</property>
  <property name="meta.attr.1.stream.ENCODER.markup">Lavc58.91.100 pcm_s16le</property>
  <property name="meta.attr.1.stream.DURATION.markup">00:00:55.612000000</property>
  <property name="meta.attr.COMPATIBLE_BRANDS.markup">isomiso2avc1mp41</property>
  <property name="meta.attr.MAJOR_BRAND.markup">isom</property>
  <property name="meta.attr.MINOR_VERSION.markup">512</property>
  <property name="meta.attr.ENCODER.markup">Lavf58.45.100</property>
  <property name="seekable">1</property>
  <property name="meta.media.sample_aspect_num">1</property>
  <property name="meta.media.sample_aspect_den">1</property>
  <property name="audio_index">1</property>
  <property name="video_index">0</property>
  <property name="mute_on_pause">1</property>
  <property name="warp_speed">1.09908</property>
  <property name="warp_resource">/home/ryankelln/.cache/kdenlive/proxy/0408cbd72758135322641a2976371d84.mkv</property>
  <property name="mlt_service">timewarp</property>
  <property name="kdenlive:proxy">/home/ryankelln/.cache/kdenlive/proxy/0408cbd72758135322641a2976371d84.mkv</property>
  <property name="kdenlive:originalurl">content/footage/Lake, sunset - birds flying to the camera - gopro (1080p)-lhgGDBMz3II.mp4</property>
  <property name="set.test_audio">1</property>
  <property name="set.test_image">0</property>
  <property name="kdenlive:id">59</property>
  <property name="warp_pitch">0</property>
  <property name="meta.media.frame_rate_num">30000</property>
  <property name="meta.media.frame_rate_den">1001</property>
  <property name="meta.media.colorspace">601</property>
  <property name="meta.media.color_trc">2</property>
  <property name="meta.media.width">640</property>
  <property name="meta.media.height">360</property>
  <property name="meta.media.color_range">full</property>
  <property name="meta.media.top_field_first">0</property>
  <property name="meta.media.progressive">1</property>
 </producer>
 <producer id="producer109" in="00:00:00.000" out="00:00:43.767">
  <property name="length">1314</property>
  <property name="eof">pause</property>
  <property name="resource">1.269881:/home/ryankelln/.cache/kdenlive/proxy/0408cbd72758135322641a2976371d84.mkv</property>
  <property name="aspect_ratio">1</property>
  <property name="meta.media.nb_streams">2</property>
  <property name="meta.media.0.stream.type">video</property>
  <property name="meta.media.0.stream.frame_rate">29.97</property>
  <property name="meta.media.0.stream.sample_aspect_ratio">1</property>
  <property name="meta.media.0.codec.width">640</property>
  <property name="meta.media.0.codec.height">360</property>
  <property name="meta.media.0.codec.rotate">0</property>
  <property name="meta.media.0.codec.frame_rate">1000</property>
  <property name="meta.media.0.codec.pix_fmt">yuvj420p</property>
  <property name="meta.media.0.codec.sample_aspect_ratio">1</property>
  <property name="meta.media.0.codec.colorspace">601</property>
  <property name="meta.media.0.codec.name">mjpeg</property>
  <property name="meta.media.0.codec.long_name">MJPEG (Motion JPEG)</property>
  <property name="meta.media.0.codec.bit_rate">0</property>
  <property name="meta.attr.0.stream.HANDLER_NAME.markup">VideoHandler</property>
  <property name="meta.attr.0.stream.ENCODER.markup">Lavc58.91.100 mjpeg</property>
  <property name="meta.attr.0.stream.DURATION.markup">00:00:55.555000000</property>
  <property name="meta.media.1.stream.type">audio</property>
  <property name="meta.media.1.codec.sample_fmt">s16</property>
  <property name="meta.media.1.codec.sample_rate">44100</property>
  <property name="meta.media.1.codec.channels">2</property>
  <property name="meta.media.1.codec.name">pcm_s16le</property>
  <property name="meta.media.1.codec.long_name">PCM signed 16-bit little-endian</property>
  <property name="meta.media.1.codec.bit_rate">1411200</property>
  <property name="meta.attr.1.stream.HANDLER_NAME.markup">SoundHandler</property>
  <property name="meta.attr.1.stream.ENCODER.markup">Lavc58.91.100 pcm_s16le</property>
  <property name="meta.attr.1.stream.DURATION.markup">00:00:55.612000000</property>
  <property name="meta.attr.COMPATIBLE_BRANDS.markup">isomiso2avc1mp41</property>
  <property name="meta.attr.MAJOR_BRAND.markup">isom</property>
  <property name="meta.attr.MINOR_VERSION.markup">512</property>
  <property name="meta.attr.ENCODER.markup">Lavf58.45.100</property>
  <property name="seekable">1</property>
  <property name="meta.media.sample_aspect_num">1</property>
  <property name="meta.media.sample_aspect_den">1</property>
  <property name="audio_index">1</property>
  <property name="video_index">0</property>
  <property name="mute_on_pause">1</property>
  <property name="warp_speed">1.26988</property>
  <property name="warp_resource">/home/ryankelln/.cache/kdenlive/proxy/0408cbd72758135322641a2976371d84.mkv</property>
  <property name="mlt_service">timewarp</property>
  <property name="kdenlive:proxy">/home/ryankelln/.cache/kdenlive/proxy/0408cbd72758135322641a2976371d84.mkv</property>
  <property name="kdenlive:originalurl">content/footage/Lake, sunset - birds flying to the camera - gopro (1080p)-lhgGDBMz3II.mp4</property>
  <property name="set.test_audio">1</property>
  <property name="set.test_image">0</property>
  <property name="kdenlive:id">59</property>
  <property name="warp_pitch">0</property>
  <property name="meta.media.frame_rate_num">30000</property>
  <property name="meta.media.frame_rate_den">1001</property>
  <property name="meta.media.colorspace">601</property>
  <property name="meta.media.color_trc">2</property>
  <property name="meta.media.width">640</property>
  <property name="meta.media.height">360</property>
  <property name="meta.media.color_range">full</property>
  <property name="meta.media.top_field_first">0</property>
  <property name="meta.media.progressive">1</property>
 </producer>
 <producer id="producer110" in="00:00:00.000" out="00:00:58.333">
  <property name="length">1751</property>
  <property name="eof">pause</property>
  <property name="resource">0.952542:/home/ryankelln/.cache/kdenlive/proxy/0408cbd72758135322641a2976371d84.mkv</property>
  <property name="aspect_ratio">1</property>
  <property name="meta.media.nb_streams">2</property>
  <property name="meta.media.0.stream.type">video</property>
  <property name="meta.media.0.stream.frame_rate">29.97</property>
  <property name="meta.media.0.stream.sample_aspect_ratio">1</property>
  <property name="meta.media.0.codec.width">640</property>
  <property name="meta.media.0.codec.height">360</property>
  <property name="meta.media.0.codec.rotate">0</property>
  <property name="meta.media.0.codec.frame_rate">1000</property>
  <property name="meta.media.0.codec.pix_fmt">yuvj420p</property>
  <property name="meta.media.0.codec.sample_aspect_ratio">1</property>
  <property name="meta.media.0.codec.colorspace">601</property>
  <property name="meta.media.0.codec.name">mjpeg</property>
  <property name="meta.media.0.codec.long_name">MJPEG (Motion JPEG)</property>
  <property name="meta.media.0.codec.bit_rate">0</property>
  <property name="meta.attr.0.stream.HANDLER_NAME.markup">VideoHandler</property>
  <property name="meta.attr.0.stream.ENCODER.markup">Lavc58.91.100 mjpeg</property>
  <property name="meta.attr.0.stream.DURATION.markup">00:00:55.555000000</property>
  <property name="meta.media.1.stream.type">audio</property>
  <property name="meta.media.1.codec.sample_fmt">s16</property>
  <property name="meta.media.1.codec.sample_rate">44100</property>
  <property name="meta.media.1.codec.channels">2</property>
  <property name="meta.media.1.codec.name">pcm_s16le</property>
  <property name="meta.media.1.codec.long_name">PCM signed 16-bit little-endian</property>
  <property name="meta.media.1.codec.bit_rate">1411200</property>
  <property name="meta.attr.1.stream.HANDLER_NAME.markup">SoundHandler</property>
  <property name="meta.attr.1.stream.ENCODER.markup">Lavc58.91.100 pcm_s16le</property>
  <property name="meta.attr.1.stream.DURATION.markup">00:00:55.612000000</property>
  <property name="meta.attr.COMPATIBLE_BRANDS.markup">isomiso2avc1mp41</property>
  <property name="meta.attr.MAJOR_BRAND.markup">isom</property>
  <property name="meta.attr.MINOR_VERSION.markup">512</property>
  <property name="meta.attr.ENCODER.markup">Lavf58.45.100</property>
  <property name="seekable">1</property>
  <property name="meta.media.sample_aspect_num">1</property>
  <property name="meta.media.sample_aspect_den">1</property>
  <property name="audio_index">1</property>
  <property name="video_index">0</property>
  <property name="mute_on_pause">1</property>
  <property name="warp_speed">0.952542</property>
  <property name="warp_resource">/home/ryankelln/.cache/kdenlive/proxy/0408cbd72758135322641a2976371d84.mkv</property>
  <property name="mlt_service">timewarp</property>
  <property name="kdenlive:proxy">/home/ryankelln/.cache/kdenlive/proxy/0408cbd72758135322641a2976371d84.mkv</property>
  <property name="kdenlive:originalurl">content/footage/Lake, sunset - birds flying to the camera - gopro (1080p)-lhgGDBMz3II.mp4</property>
  <property name="set.test_audio">1</property>
  <property name="set.test_image">0</property>
  <property name="kdenlive:id">59</property>
  <property name="warp_pitch">0</property>
  <property name="meta.media.frame_rate_num">30000</property>
  <property name="meta.media.frame_rate_den">1001</property>
  <property name="meta.media.colorspace">601</property>
  <property name="meta.media.color_trc">2</property>
  <property name="meta.media.width">640</property>
  <property name="meta.media.height">360</property>
  <property name="meta.media.color_range">full</property>
  <property name="meta.media.top_field_first">0</property>
  <property name="meta.media.progressive">1</property>
 </producer>
 <producer id="producer111" in="00:00:00.000" out="00:00:58.367">
  <property name="length">1751</property>
  <property name="eof">pause</property>
  <property name="resource">-0.952500:/home/ryankelln/.cache/kdenlive/proxy/0408cbd72758135322641a2976371d84.mkv</property>
  <property name="aspect_ratio">1</property>
  <property name="meta.media.nb_streams">2</property>
  <property name="meta.media.0.stream.type">video</property>
  <property name="meta.media.0.stream.frame_rate">29.97</property>
  <property name="meta.media.0.stream.sample_aspect_ratio">1</property>
  <property name="meta.media.0.codec.width">640</property>
  <property name="meta.media.0.codec.height">360</property>
  <property name="meta.media.0.codec.rotate">0</property>
  <property name="meta.media.0.codec.frame_rate">1000</property>
  <property name="meta.media.0.codec.pix_fmt">yuvj420p</property>
  <property name="meta.media.0.codec.sample_aspect_ratio">1</property>
  <property name="meta.media.0.codec.colorspace">601</property>
  <property name="meta.media.0.codec.name">mjpeg</property>
  <property name="meta.media.0.codec.long_name">MJPEG (Motion JPEG)</property>
  <property name="meta.media.0.codec.bit_rate">0</property>
  <property name="meta.attr.0.stream.HANDLER_NAME.markup">VideoHandler</property>
  <property name="meta.attr.0.stream.ENCODER.markup">Lavc58.91.100 mjpeg</property>
  <property name="meta.attr.0.stream.DURATION.markup">00:00:55.555000000</property>
  <property name="meta.media.1.stream.type">audio</property>
  <property name="meta.media.1.codec.sample_fmt">s16</property>
  <property name="meta.media.1.codec.sample_rate">44100</property>
  <property name="meta.media.1.codec.channels">2</property>
  <property name="meta.media.1.codec.name">pcm_s16le</property>
  <property name="meta.media.1.codec.long_name">PCM signed 16-bit little-endian</property>
  <property name="meta.media.1.codec.bit_rate">1411200</property>
  <property name="meta.attr.1.stream.HANDLER_NAME.markup">SoundHandler</property>
  <property name="meta.attr.1.stream.ENCODER.markup">Lavc58.91.100 pcm_s16le</property>
  <property name="meta.attr.1.stream.DURATION.markup">00:00:55.612000000</property>
  <property name="meta.attr.COMPATIBLE_BRANDS.markup">isomiso2avc1mp41</property>
  <property name="meta.attr.MAJOR_BRAND.markup">isom</property>
  <property name="meta.attr.MINOR_VERSION.markup">512</property>
  <property name="meta.attr.ENCODER.markup">Lavf58.45.100</property>
  <property name="seekable">1</property>
  <property name="meta.media.sample_aspect_num">1</property>
  <property name="meta.media.sample_aspect_den">1</property>
  <property name="audio_index">1</property>
  <property name="video_index">0</property>
  <property name="mute_on_pause">1</property>
  <property name="warp_speed">-0.9525</property>
  <property name="warp_resource">/home/ryankelln/.cache/kdenlive/proxy/0408cbd72758135322641a2976371d84.mkv</property>
  <property name="mlt_service">timewarp</property>
  <property name="kdenlive:proxy">/home/ryankelln/.cache/kdenlive/proxy/0408cbd72758135322641a2976371d84.mkv</property>
  <property name="kdenlive:originalurl">content/footage/Lake, sunset - birds flying to the camera - gopro (1080p)-lhgGDBMz3II.mp4</property>
  <property name="set.test_audio">1</property>
  <property name="set.test_image">0</property>
  <property name="kdenlive:id">59</property>
  <property name="warp_pitch">0</property>
  <property name="meta.media.frame_rate_num">30000</property>
  <property name="meta.media.frame_rate_den">1001</property>
  <property name="meta.media.colorspace">601</property>
  <property name="meta.media.color_trc">2</property>
  <property name="meta.media.width">640</property>
  <property name="meta.media.height">360</property>
  <property name="meta.media.color_range">full</property>
  <property name="meta.media.top_field_first">0</property>
  <property name="meta.media.progressive">1</property>
 </producer>
 <producer id="producer112" in="00:00:00.000" out="00:00:58.333">
  <property name="length">1751</property>
  <property name="eof">pause</property>
  <property name="resource">-0.952538:/home/ryankelln/.cache/kdenlive/proxy/0408cbd72758135322641a2976371d84.mkv</property>
  <property name="aspect_ratio">1</property>
  <property name="meta.media.nb_streams">2</property>
  <property name="meta.media.0.stream.type">video</property>
  <property name="meta.media.0.stream.frame_rate">29.97</property>
  <property name="meta.media.0.stream.sample_aspect_ratio">1</property>
  <property name="meta.media.0.codec.width">640</property>
  <property name="meta.media.0.codec.height">360</property>
  <property name="meta.media.0.codec.rotate">0</property>
  <property name="meta.media.0.codec.frame_rate">1000</property>
  <property name="meta.media.0.codec.pix_fmt">yuvj420p</property>
  <property name="meta.media.0.codec.sample_aspect_ratio">1</property>
  <property name="meta.media.0.codec.colorspace">601</property>
  <property name="meta.media.0.codec.name">mjpeg</property>
  <property name="meta.media.0.codec.long_name">MJPEG (Motion JPEG)</property>
  <property name="meta.media.0.codec.bit_rate">0</property>
  <property name="meta.attr.0.stream.HANDLER_NAME.markup">VideoHandler</property>
  <property name="meta.attr.0.stream.ENCODER.markup">Lavc58.91.100 mjpeg</property>
  <property name="meta.attr.0.stream.DURATION.markup">00:00:55.555000000</property>
  <property name="meta.media.1.stream.type">audio</property>
  <property name="meta.media.1.codec.sample_fmt">s16</property>
  <property name="meta.media.1.codec.sample_rate">44100</property>
  <property name="meta.media.1.codec.channels">2</property>
  <property name="meta.media.1.codec.name">pcm_s16le</property>
  <property name="meta.media.1.codec.long_name">PCM signed 16-bit little-endian</property>
  <property name="meta.media.1.codec.bit_rate">1411200</property>
  <property name="meta.attr.1.stream.HANDLER_NAME.markup">SoundHandler</property>
  <property name="meta.attr.1.stream.ENCODER.markup">Lavc58.91.100 pcm_s16le</property>
  <property name="meta.attr.1.stream.DURATION.markup">00:00:55.612000000</property>
  <property name="meta.attr.COMPATIBLE_BRANDS.markup">isomiso2avc1mp41</property>
  <property name="meta.attr.MAJOR_BRAND.markup">isom</property>
  <property name="meta.attr.MINOR_VERSION.markup">512</property>
  <property name="meta.attr.ENCODER.markup">Lavf58.45.100</property>
  <property name="seekable">1</property>
  <property name="meta.media.sample_aspect_num">1</property>
  <property name="meta.media.sample_aspect_den">1</property>
  <property name="audio_index">1</property>
  <property name="video_index">0</property>
  <property name="mute_on_pause">1</property>
  <property name="warp_speed">-0.952538</property>
  <property name="warp_resource">/home/ryankelln/.cache/kdenlive/proxy/0408cbd72758135322641a2976371d84.mkv</property>
  <property name="mlt_service">timewarp</property>
  <property name="kdenlive:proxy">/home/ryankelln/.cache/kdenlive/proxy/0408cbd72758135322641a2976371d84.mkv</property>
  <property name="kdenlive:originalurl">content/footage/Lake, sunset - birds flying to the camera - gopro (1080p)-lhgGDBMz3II.mp4</property>
  <property name="set.test_audio">1</property>
  <property name="set.test_image">0</property>
  <property name="kdenlive:id">59</property>
  <property name="warp_pitch">0</property>
  <property name="meta.media.frame_rate_num">30000</property>
  <property name="meta.media.frame_rate_den">1001</property>
  <property name="meta.media.colorspace">601</property>
  <property name="meta.media.color_trc">2</property>
  <property name="meta.media.width">640</property>
  <property name="meta.media.height">360</property>
  <property name="meta.media.color_range">full</property>
  <property name="meta.media.top_field_first">0</property>
  <property name="meta.media.progressive">1</property>
 </producer>
 <producer id="producer113" in="00:00:00.000" out="00:00:58.333">
  <property name="length">1751</property>
  <property name="eof">pause</property>
  <property name="resource">0.952542:/home/ryankelln/.cache/kdenlive/proxy/0408cbd72758135322641a2976371d84.mkv</property>
  <property name="aspect_ratio">1</property>
  <property name="meta.media.nb_streams">2</property>
  <property name="meta.media.0.stream.type">video</property>
  <property name="meta.media.0.stream.frame_rate">29.97</property>
  <property name="meta.media.0.stream.sample_aspect_ratio">1</property>
  <property name="meta.media.0.codec.width">640</property>
  <property name="meta.media.0.codec.height">360</property>
  <property name="meta.media.0.codec.rotate">0</property>
  <property name="meta.media.0.codec.frame_rate">1000</property>
  <property name="meta.media.0.codec.pix_fmt">yuvj420p</property>
  <property name="meta.media.0.codec.sample_aspect_ratio">1</property>
  <property name="meta.media.0.codec.colorspace">601</property>
  <property name="meta.media.0.codec.name">mjpeg</property>
  <property name="meta.media.0.codec.long_name">MJPEG (Motion JPEG)</property>
  <property name="meta.media.0.codec.bit_rate">0</property>
  <property name="meta.attr.0.stream.HANDLER_NAME.markup">VideoHandler</property>
  <property name="meta.attr.0.stream.ENCODER.markup">Lavc58.91.100 mjpeg</property>
  <property name="meta.attr.0.stream.DURATION.markup">00:00:55.555000000</property>
  <property name="meta.media.1.stream.type">audio</property>
  <property name="meta.media.1.codec.sample_fmt">s16</property>
  <property name="meta.media.1.codec.sample_rate">44100</property>
  <property name="meta.media.1.codec.channels">2</property>
  <property name="meta.media.1.codec.name">pcm_s16le</property>
  <property name="meta.media.1.codec.long_name">PCM signed 16-bit little-endian</property>
  <property name="meta.media.1.codec.bit_rate">1411200</property>
  <property name="meta.attr.1.stream.HANDLER_NAME.markup">SoundHandler</property>
  <property name="meta.attr.1.stream.ENCODER.markup">Lavc58.91.100 pcm_s16le</property>
  <property name="meta.attr.1.stream.DURATION.markup">00:00:55.612000000</property>
  <property name="meta.attr.COMPATIBLE_BRANDS.markup">isomiso2avc1mp41</property>
  <property name="meta.attr.MAJOR_BRAND.markup">isom</property>
  <property name="meta.attr.MINOR_VERSION.markup">512</property>
  <property name="meta.attr.ENCODER.markup">Lavf58.45.100</property>
  <property name="seekable">1</property>
  <property name="meta.media.sample_aspect_num">1</property>
  <property name="meta.media.sample_aspect_den">1</property>
  <property name="audio_index">1</property>
  <property name="video_index">0</property>
  <property name="mute_on_pause">1</property>
  <property name="warp_speed">0.952542</property>
  <property name="warp_resource">/home/ryankelln/.cache/kdenlive/proxy/0408cbd72758135322641a2976371d84.mkv</property>
  <property name="mlt_service">timewarp</property>
  <property name="kdenlive:proxy">/home/ryankelln/.cache/kdenlive/proxy/0408cbd72758135322641a2976371d84.mkv</property>
  <property name="kdenlive:originalurl">content/footage/Lake, sunset - birds flying to the camera - gopro (1080p)-lhgGDBMz3II.mp4</property>
  <property name="set.test_audio">1</property>
  <property name="set.test_image">0</property>
  <property name="kdenlive:id">59</property>
  <property name="warp_pitch">0</property>
  <property name="meta.media.frame_rate_num">30000</property>
  <property name="meta.media.frame_rate_den">1001</property>
  <property name="meta.media.colorspace">601</property>
  <property name="meta.media.color_trc">2</property>
  <property name="meta.media.width">640</property>
  <property name="meta.media.height">360</property>
  <property name="meta.media.color_range">full</property>
  <property name="meta.media.top_field_first">0</property>
  <property name="meta.media.progressive">1</property>
 </producer>
 <producer id="producer114" in="00:00:00.000" out="00:00:58.333">
  <property name="length">1751</property>
  <property name="eof">pause</property>
  <property name="resource">0.952542:/home/ryankelln/.cache/kdenlive/proxy/0408cbd72758135322641a2976371d84.mkv</property>
  <property name="aspect_ratio">1</property>
  <property name="meta.media.nb_streams">2</property>
  <property name="meta.media.0.stream.type">video</property>
  <property name="meta.media.0.stream.frame_rate">29.97</property>
  <property name="meta.media.0.stream.sample_aspect_ratio">1</property>
  <property name="meta.media.0.codec.width">640</property>
  <property name="meta.media.0.codec.height">360</property>
  <property name="meta.media.0.codec.rotate">0</property>
  <property name="meta.media.0.codec.frame_rate">1000</property>
  <property name="meta.media.0.codec.pix_fmt">yuvj420p</property>
  <property name="meta.media.0.codec.sample_aspect_ratio">1</property>
  <property name="meta.media.0.codec.colorspace">601</property>
  <property name="meta.media.0.codec.name">mjpeg</property>
  <property name="meta.media.0.codec.long_name">MJPEG (Motion JPEG)</property>
  <property name="meta.media.0.codec.bit_rate">0</property>
  <property name="meta.attr.0.stream.HANDLER_NAME.markup">VideoHandler</property>
  <property name="meta.attr.0.stream.ENCODER.markup">Lavc58.91.100 mjpeg</property>
  <property name="meta.attr.0.stream.DURATION.markup">00:00:55.555000000</property>
  <property name="meta.media.1.stream.type">audio</property>
  <property name="meta.media.1.codec.sample_fmt">s16</property>
  <property name="meta.media.1.codec.sample_rate">44100</property>
  <property name="meta.media.1.codec.channels">2</property>
  <property name="meta.media.1.codec.name">pcm_s16le</property>
  <property name="meta.media.1.codec.long_name">PCM signed 16-bit little-endian</property>
  <property name="meta.media.1.codec.bit_rate">1411200</property>
  <property name="meta.attr.1.stream.HANDLER_NAME.markup">SoundHandler</property>
  <property name="meta.attr.1.stream.ENCODER.markup">Lavc58.91.100 pcm_s16le</property>
  <property name="meta.attr.1.stream.DURATION.markup">00:00:55.612000000</property>
  <property name="meta.attr.COMPATIBLE_BRANDS.markup">isomiso2avc1mp41</property>
  <property name="meta.attr.MAJOR_BRAND.markup">isom</property>
  <property name="meta.attr.MINOR_VERSION.markup">512</property>
  <property name="meta.attr.ENCODER.markup">Lavf58.45.100</property>
  <property name="seekable">1</property>
  <property name="meta.media.sample_aspect_num">1</property>
  <property name="meta.media.sample_aspect_den">1</property>
  <property name="audio_index">1</property>
  <property name="video_index">0</property>
  <property name="mute_on_pause">1</property>
  <property name="warp_speed">0.952542</property>
  <property name="warp_resource">/home/ryankelln/.cache/kdenlive/proxy/0408cbd72758135322641a2976371d84.mkv</property>
  <property name="mlt_service">timewarp</property>
  <property name="kdenlive:proxy">/home/ryankelln/.cache/kdenlive/proxy/0408cbd72758135322641a2976371d84.mkv</property>
  <property name="kdenlive:originalurl">content/footage/Lake, sunset - birds flying to the camera - gopro (1080p)-lhgGDBMz3II.mp4</property>
  <property name="set.test_audio">1</property>
  <property name="set.test_image">0</property>
  <property name="kdenlive:id">59</property>
  <property name="warp_pitch">0</property>
  <property name="meta.media.frame_rate_num">30000</property>
  <property name="meta.media.frame_rate_den">1001</property>
  <property name="meta.media.colorspace">601</property>
  <property name="meta.media.color_trc">2</property>
  <property name="meta.media.width">640</property>
  <property name="meta.media.height">360</property>
  <property name="meta.media.color_range">full</property>
  <property name="meta.media.top_field_first">0</property>
  <property name="meta.media.progressive">1</property>
 </producer>
 <producer id="producer115" in="00:00:00.000" out="00:00:55.567">
  <property name="length">1668</property>
  <property name="eof">pause</property>
  <property name="resource">-1.000000:/home/ryankelln/.cache/kdenlive/proxy/0408cbd72758135322641a2976371d84.mkv</property>
  <property name="aspect_ratio">1</property>
  <property name="meta.media.nb_streams">2</property>
  <property name="meta.media.0.stream.type">video</property>
  <property name="meta.media.0.stream.frame_rate">29.97</property>
  <property name="meta.media.0.stream.sample_aspect_ratio">1</property>
  <property name="meta.media.0.codec.width">640</property>
  <property name="meta.media.0.codec.height">360</property>
  <property name="meta.media.0.codec.rotate">0</property>
  <property name="meta.media.0.codec.frame_rate">1000</property>
  <property name="meta.media.0.codec.pix_fmt">yuvj420p</property>
  <property name="meta.media.0.codec.sample_aspect_ratio">1</property>
  <property name="meta.media.0.codec.colorspace">601</property>
  <property name="meta.media.0.codec.name">mjpeg</property>
  <property name="meta.media.0.codec.long_name">MJPEG (Motion JPEG)</property>
  <property name="meta.media.0.codec.bit_rate">0</property>
  <property name="meta.attr.0.stream.HANDLER_NAME.markup">VideoHandler</property>
  <property name="meta.attr.0.stream.ENCODER.markup">Lavc58.91.100 mjpeg</property>
  <property name="meta.attr.0.stream.DURATION.markup">00:00:55.555000000</property>
  <property name="meta.media.1.stream.type">audio</property>
  <property name="meta.media.1.codec.sample_fmt">s16</property>
  <property name="meta.media.1.codec.sample_rate">44100</property>
  <property name="meta.media.1.codec.channels">2</property>
  <property name="meta.media.1.codec.name">pcm_s16le</property>
  <property name="meta.media.1.codec.long_name">PCM signed 16-bit little-endian</property>
  <property name="meta.media.1.codec.bit_rate">1411200</property>
  <property name="meta.attr.1.stream.HANDLER_NAME.markup">SoundHandler</property>
  <property name="meta.attr.1.stream.ENCODER.markup">Lavc58.91.100 pcm_s16le</property>
  <property name="meta.attr.1.stream.DURATION.markup">00:00:55.612000000</property>
  <property name="meta.attr.COMPATIBLE_BRANDS.markup">isomiso2avc1mp41</property>
  <property name="meta.attr.MAJOR_BRAND.markup">isom</property>
  <property name="meta.attr.MINOR_VERSION.markup">512</property>
  <property name="meta.attr.ENCODER.markup">Lavf58.45.100</property>
  <property name="seekable">1</property>
  <property name="meta.media.sample_aspect_num">1</property>
  <property name="meta.media.sample_aspect_den">1</property>
  <property name="audio_index">1</property>
  <property name="video_index">0</property>
  <property name="mute_on_pause">1</property>
  <property name="warp_speed">-1</property>
  <property name="warp_resource">/home/ryankelln/.cache/kdenlive/proxy/0408cbd72758135322641a2976371d84.mkv</property>
  <property name="mlt_service">timewarp</property>
  <property name="kdenlive:proxy">/home/ryankelln/.cache/kdenlive/proxy/0408cbd72758135322641a2976371d84.mkv</property>
  <property name="kdenlive:originalurl">content/footage/Lake, sunset - birds flying to the camera - gopro (1080p)-lhgGDBMz3II.mp4</property>
  <property name="set.test_audio">1</property>
  <property name="set.test_image">0</property>
  <property name="kdenlive:id">59</property>
  <property name="warp_pitch">0</property>
  <property name="meta.media.frame_rate_num">30000</property>
  <property name="meta.media.frame_rate_den">1001</property>
  <property name="meta.media.colorspace">601</property>
  <property name="meta.media.color_trc">2</property>
  <property name="meta.media.width">640</property>
  <property name="meta.media.height">360</property>
  <property name="meta.media.color_range">full</property>
  <property name="meta.media.top_field_first">0</property>
  <property name="meta.media.progressive">1</property>
 </producer>
 <producer id="producer116" in="00:00:00.000" out="00:00:55.567">
  <property name="length">1668</property>
  <property name="eof">pause</property>
  <property name="resource">/home/ryankelln/.cache/kdenlive/proxy/0408cbd72758135322641a2976371d84.mkv</property>
  <property name="audio_index">1</property>
  <property name="video_index">0</property>
  <property name="mute_on_pause">0</property>
  <property name="mlt_service">avformat-novalidate</property>
  <property name="seekable">1</property>
  <property name="aspect_ratio">1</property>
  <property name="kdenlive:clipname">Lake, sunset - birds flying to the camera - gopro (1080p)-lhgGDBMz3II.mp4</property>
  <property name="kdenlive:folderid">55</property>
  <property name="kdenlive:id">59</property>
  <property name="kdenlive:file_size">31173362</property>
  <property name="kdenlive:file_hash">0408cbd72758135322641a2976371d84</property>
  <property name="kdenlive:proxy">/home/ryankelln/.cache/kdenlive/proxy/0408cbd72758135322641a2976371d84.mkv</property>
  <property name="kdenlive:originalurl">content/footage/Lake, sunset - birds flying to the camera - gopro (1080p)-lhgGDBMz3II.mp4</property>
  <property name="kdenlive:original.mlt_type">producer</property>
  <property name="kdenlive:original.in">0</property>
  <property name="kdenlive:original.out">1667</property>
  <property name="kdenlive:original.length">1668</property>
  <property name="kdenlive:original.eof">pause</property>
  <property name="kdenlive:original.resource">content/footage/Lake, sunset - birds flying to the camera - gopro (1080p)-lhgGDBMz3II.mp4</property>
  <property name="kdenlive:original.meta.media.nb_streams">2</property>
  <property name="kdenlive:original.meta.media.0.stream.type">video</property>
  <property name="kdenlive:original.meta.media.0.stream.frame_rate">29.97</property>
  <property name="kdenlive:original.meta.media.0.stream.sample_aspect_ratio">1</property>
  <property name="kdenlive:original.meta.media.0.codec.width">1920</property>
  <property name="kdenlive:original.meta.media.0.codec.height">1080</property>
  <property name="kdenlive:original.meta.media.0.codec.rotate">0</property>
  <property name="kdenlive:original.meta.media.0.codec.frame_rate">29.97</property>
  <property name="kdenlive:original.meta.media.0.codec.pix_fmt">yuv420p</property>
  <property name="kdenlive:original.meta.media.0.codec.sample_aspect_ratio">1</property>
  <property name="kdenlive:original.meta.media.0.codec.colorspace">709</property>
  <property name="kdenlive:original.meta.media.0.codec.color_trc">1</property>
  <property name="kdenlive:original.meta.media.0.codec.name">h264</property>
  <property name="kdenlive:original.meta.media.0.codec.long_name">H.264 / AVC / MPEG-4 AVC / MPEG-4 part 10</property>
  <property name="kdenlive:original.meta.media.0.codec.bit_rate">4354633</property>
  <property name="kdenlive:original.meta.attr.0.stream.handler_name.markup">VideoHandler</property>
  <property name="kdenlive:original.meta.media.1.stream.type">audio</property>
  <property name="kdenlive:original.meta.media.1.codec.sample_fmt">fltp</property>
  <property name="kdenlive:original.meta.media.1.codec.sample_rate">44100</property>
  <property name="kdenlive:original.meta.media.1.codec.channels">2</property>
  <property name="kdenlive:original.meta.media.1.codec.name">aac</property>
  <property name="kdenlive:original.meta.media.1.codec.long_name">AAC (Advanced Audio Coding)</property>
  <property name="kdenlive:original.meta.media.1.codec.bit_rate">125588</property>
  <property name="kdenlive:original.meta.attr.1.stream.handler_name.markup">SoundHandler</property>
  <property name="kdenlive:original.meta.attr.major_brand.markup">isom</property>
  <property name="kdenlive:original.meta.attr.minor_version.markup">512</property>
  <property name="kdenlive:original.meta.attr.compatible_brands.markup">isomiso2avc1mp41</property>
  <property name="kdenlive:original.meta.attr.encoder.markup">Lavf58.45.100</property>
  <property name="kdenlive:original.seekable">1</property>
  <property name="kdenlive:original.width">1920</property>
  <property name="kdenlive:original.height">1080</property>
  <property name="kdenlive:original.meta.media.sample_aspect_num">1</property>
  <property name="kdenlive:original.meta.media.sample_aspect_den">1</property>
  <property name="kdenlive:original.aspect_ratio">1</property>
  <property name="kdenlive:original.audio_index">1</property>
  <property name="kdenlive:original.video_index">0</property>
  <property name="kdenlive:original.mute_on_pause">0</property>
  <property name="kdenlive:original.mlt_service">avformat-novalidate</property>
  <property name="kdenlive:original.kdenlive:folderid">55</property>
  <property name="kdenlive:original.meta.media.frame_rate_num">30000</property>
  <property name="kdenlive:original.meta.media.frame_rate_den">1001</property>
  <property name="kdenlive:original.meta.media.colorspace">709</property>
  <property name="kdenlive:original.meta.media.color_trc">1</property>
  <property name="kdenlive:original.meta.media.width">1920</property>
  <property name="kdenlive:original.meta.media.height">1080</property>
  <property name="kdenlive:original.meta.media.color_range">mpeg</property>
  <property name="kdenlive:original.kdenlive:id">77</property>
  <property name="kdenlive:original.kdenlive:file_size">31173362</property>
  <property name="kdenlive:original.kdenlive:file_hash">0408cbd72758135322641a2976371d84</property>
  <property name="kdenlive:original.backup">1</property>
  <property name="global_feed">1</property>
  <property name="kdenlive:active_streams">-1</property>
  <property name="xml">was here</property>
  <property name="meta.media.nb_streams">2</property>
  <property name="meta.media.0.stream.type">video</property>
  <property name="meta.media.0.stream.frame_rate">29.97</property>
  <property name="meta.media.0.stream.sample_aspect_ratio">1</property>
  <property name="meta.media.0.codec.width">640</property>
  <property name="meta.media.0.codec.height">360</property>
  <property name="meta.media.0.codec.rotate">0</property>
  <property name="meta.media.0.codec.frame_rate">1000</property>
  <property name="meta.media.0.codec.pix_fmt">yuvj420p</property>
  <property name="meta.media.0.codec.sample_aspect_ratio">1</property>
  <property name="meta.media.0.codec.colorspace">601</property>
  <property name="meta.media.0.codec.name">mjpeg</property>
  <property name="meta.media.0.codec.long_name">MJPEG (Motion JPEG)</property>
  <property name="meta.media.0.codec.bit_rate">0</property>
  <property name="meta.attr.0.stream.HANDLER_NAME.markup">VideoHandler</property>
  <property name="meta.attr.0.stream.ENCODER.markup">Lavc58.91.100 mjpeg</property>
  <property name="meta.attr.0.stream.DURATION.markup">00:00:55.555000000</property>
  <property name="meta.media.1.stream.type">audio</property>
  <property name="meta.media.1.codec.sample_fmt">s16</property>
  <property name="meta.media.1.codec.sample_rate">44100</property>
  <property name="meta.media.1.codec.channels">2</property>
  <property name="meta.media.1.codec.name">pcm_s16le</property>
  <property name="meta.media.1.codec.long_name">PCM signed 16-bit little-endian</property>
  <property name="meta.media.1.codec.bit_rate">1411200</property>
  <property name="meta.attr.1.stream.HANDLER_NAME.markup">SoundHandler</property>
  <property name="meta.attr.1.stream.ENCODER.markup">Lavc58.91.100 pcm_s16le</property>
  <property name="meta.attr.1.stream.DURATION.markup">00:00:55.612000000</property>
  <property name="meta.attr.COMPATIBLE_BRANDS.markup">isomiso2avc1mp41</property>
  <property name="meta.attr.MAJOR_BRAND.markup">isom</property>
  <property name="meta.attr.MINOR_VERSION.markup">512</property>
  <property name="meta.attr.ENCODER.markup">Lavf58.45.100</property>
  <property name="meta.media.sample_aspect_num">1</property>
  <property name="meta.media.sample_aspect_den">1</property>
  <property name="meta.media.frame_rate_num">30000</property>
  <property name="meta.media.frame_rate_den">1001</property>
  <property name="meta.media.colorspace">601</property>
  <property name="meta.media.color_trc">2</property>
  <property name="meta.media.width">640</property>
  <property name="meta.media.height">360</property>
  <property name="meta.media.color_range">full</property>
  <property name="meta.media.top_field_first">0</property>
  <property name="meta.media.progressive">1</property>
  <property name="set.test_audio">1</property>
  <property name="set.test_image">0</property>
 </producer>
 <producer id="producer117" in="00:00:00.000" out="00:00:18.500">
  <property name="length">556</property>
  <property name="eof">pause</property>
  <property name="resource">3.000000:/home/ryankelln/.cache/kdenlive/proxy/0408cbd72758135322641a2976371d84.mkv</property>
  <property name="aspect_ratio">1</property>
  <property name="meta.media.nb_streams">2</property>
  <property name="meta.media.0.stream.type">video</property>
  <property name="meta.media.0.stream.frame_rate">29.97</property>
  <property name="meta.media.0.stream.sample_aspect_ratio">1</property>
  <property name="meta.media.0.codec.width">640</property>
  <property name="meta.media.0.codec.height">360</property>
  <property name="meta.media.0.codec.rotate">0</property>
  <property name="meta.media.0.codec.frame_rate">1000</property>
  <property name="meta.media.0.codec.pix_fmt">yuvj420p</property>
  <property name="meta.media.0.codec.sample_aspect_ratio">1</property>
  <property name="meta.media.0.codec.colorspace">601</property>
  <property name="meta.media.0.codec.name">mjpeg</property>
  <property name="meta.media.0.codec.long_name">MJPEG (Motion JPEG)</property>
  <property name="meta.media.0.codec.bit_rate">0</property>
  <property name="meta.attr.0.stream.HANDLER_NAME.markup">VideoHandler</property>
  <property name="meta.attr.0.stream.ENCODER.markup">Lavc58.91.100 mjpeg</property>
  <property name="meta.attr.0.stream.DURATION.markup">00:00:55.555000000</property>
  <property name="meta.media.1.stream.type">audio</property>
  <property name="meta.media.1.codec.sample_fmt">s16</property>
  <property name="meta.media.1.codec.sample_rate">44100</property>
  <property name="meta.media.1.codec.channels">2</property>
  <property name="meta.media.1.codec.name">pcm_s16le</property>
  <property name="meta.media.1.codec.long_name">PCM signed 16-bit little-endian</property>
  <property name="meta.media.1.codec.bit_rate">1411200</property>
  <property name="meta.attr.1.stream.HANDLER_NAME.markup">SoundHandler</property>
  <property name="meta.attr.1.stream.ENCODER.markup">Lavc58.91.100 pcm_s16le</property>
  <property name="meta.attr.1.stream.DURATION.markup">00:00:55.612000000</property>
  <property name="meta.attr.COMPATIBLE_BRANDS.markup">isomiso2avc1mp41</property>
  <property name="meta.attr.MAJOR_BRAND.markup">isom</property>
  <property name="meta.attr.MINOR_VERSION.markup">512</property>
  <property name="meta.attr.ENCODER.markup">Lavf58.45.100</property>
  <property name="seekable">1</property>
  <property name="meta.media.sample_aspect_num">1</property>
  <property name="meta.media.sample_aspect_den">1</property>
  <property name="audio_index">1</property>
  <property name="video_index">0</property>
  <property name="mute_on_pause">1</property>
  <property name="warp_speed">3</property>
  <property name="warp_resource">/home/ryankelln/.cache/kdenlive/proxy/0408cbd72758135322641a2976371d84.mkv</property>
  <property name="mlt_service">timewarp</property>
  <property name="kdenlive:proxy">/home/ryankelln/.cache/kdenlive/proxy/0408cbd72758135322641a2976371d84.mkv</property>
  <property name="kdenlive:originalurl">content/footage/Lake, sunset - birds flying to the camera - gopro (1080p)-lhgGDBMz3II.mp4</property>
  <property name="set.test_audio">1</property>
  <property name="set.test_image">0</property>
  <property name="kdenlive:id">59</property>
  <property name="warp_pitch">0</property>
  <property name="meta.media.frame_rate_num">30000</property>
  <property name="meta.media.frame_rate_den">1001</property>
  <property name="meta.media.colorspace">601</property>
  <property name="meta.media.color_trc">2</property>
  <property name="meta.media.width">640</property>
  <property name="meta.media.height">360</property>
  <property name="meta.media.color_range">full</property>
  <property name="meta.media.top_field_first">0</property>
  <property name="meta.media.progressive">1</property>
 </producer>
 <producer id="producer118" in="00:00:00.000" out="00:01:51.200">
  <property name="length">3336</property>
  <property name="eof">pause</property>
  <property name="resource">0.500000:/home/ryankelln/.cache/kdenlive/proxy/0408cbd72758135322641a2976371d84.mkv</property>
  <property name="aspect_ratio">1</property>
  <property name="meta.media.nb_streams">2</property>
  <property name="meta.media.0.stream.type">video</property>
  <property name="meta.media.0.stream.frame_rate">29.97</property>
  <property name="meta.media.0.stream.sample_aspect_ratio">1</property>
  <property name="meta.media.0.codec.width">640</property>
  <property name="meta.media.0.codec.height">360</property>
  <property name="meta.media.0.codec.rotate">0</property>
  <property name="meta.media.0.codec.frame_rate">1000</property>
  <property name="meta.media.0.codec.pix_fmt">yuvj420p</property>
  <property name="meta.media.0.codec.sample_aspect_ratio">1</property>
  <property name="meta.media.0.codec.colorspace">601</property>
  <property name="meta.media.0.codec.name">mjpeg</property>
  <property name="meta.media.0.codec.long_name">MJPEG (Motion JPEG)</property>
  <property name="meta.media.0.codec.bit_rate">0</property>
  <property name="meta.attr.0.stream.HANDLER_NAME.markup">VideoHandler</property>
  <property name="meta.attr.0.stream.ENCODER.markup">Lavc58.91.100 mjpeg</property>
  <property name="meta.attr.0.stream.DURATION.markup">00:00:55.555000000</property>
  <property name="meta.media.1.stream.type">audio</property>
  <property name="meta.media.1.codec.sample_fmt">s16</property>
  <property name="meta.media.1.codec.sample_rate">44100</property>
  <property name="meta.media.1.codec.channels">2</property>
  <property name="meta.media.1.codec.name">pcm_s16le</property>
  <property name="meta.media.1.codec.long_name">PCM signed 16-bit little-endian</property>
  <property name="meta.media.1.codec.bit_rate">1411200</property>
  <property name="meta.attr.1.stream.HANDLER_NAME.markup">SoundHandler</property>
  <property name="meta.attr.1.stream.ENCODER.markup">Lavc58.91.100 pcm_s16le</property>
  <property name="meta.attr.1.stream.DURATION.markup">00:00:55.612000000</property>
  <property name="meta.attr.COMPATIBLE_BRANDS.markup">isomiso2avc1mp41</property>
  <property name="meta.attr.MAJOR_BRAND.markup">isom</property>
  <property name="meta.attr.MINOR_VERSION.markup">512</property>
  <property name="meta.attr.ENCODER.markup">Lavf58.45.100</property>
  <property name="seekable">1</property>
  <property name="meta.media.sample_aspect_num">1</property>
  <property name="meta.media.sample_aspect_den">1</property>
  <property name="audio_index">1</property>
  <property name="video_index">0</property>
  <property name="mute_on_pause">1</property>
  <property name="warp_speed">0.5</property>
  <property name="warp_resource">/home/ryankelln/.cache/kdenlive/proxy/0408cbd72758135322641a2976371d84.mkv</property>
  <property name="mlt_service">timewarp</property>
  <property name="kdenlive:proxy">/home/ryankelln/.cache/kdenlive/proxy/0408cbd72758135322641a2976371d84.mkv</property>
  <property name="kdenlive:originalurl">content/footage/Lake, sunset - birds flying to the camera - gopro (1080p)-lhgGDBMz3II.mp4</property>
  <property name="set.test_audio">1</property>
  <property name="set.test_image">0</property>
  <property name="kdenlive:id">59</property>
  <property name="warp_pitch">0</property>
  <property name="meta.media.frame_rate_num">30000</property>
  <property name="meta.media.frame_rate_den">1001</property>
  <property name="meta.media.colorspace">601</property>
  <property name="meta.media.color_trc">2</property>
  <property name="meta.media.width">640</property>
  <property name="meta.media.height">360</property>
  <property name="meta.media.color_range">full</property>
  <property name="meta.media.top_field_first">0</property>
  <property name="meta.media.progressive">1</property>
 </producer>
 <producer id="producer119" in="00:00:00.000" out="00:00:18.500">
  <property name="length">556</property>
  <property name="eof">pause</property>
  <property name="resource">3.000000:/home/ryankelln/.cache/kdenlive/proxy/0408cbd72758135322641a2976371d84.mkv</property>
  <property name="aspect_ratio">1</property>
  <property name="meta.media.nb_streams">2</property>
  <property name="meta.media.0.stream.type">video</property>
  <property name="meta.media.0.stream.frame_rate">29.97</property>
  <property name="meta.media.0.stream.sample_aspect_ratio">1</property>
  <property name="meta.media.0.codec.width">640</property>
  <property name="meta.media.0.codec.height">360</property>
  <property name="meta.media.0.codec.rotate">0</property>
  <property name="meta.media.0.codec.frame_rate">1000</property>
  <property name="meta.media.0.codec.pix_fmt">yuvj420p</property>
  <property name="meta.media.0.codec.sample_aspect_ratio">1</property>
  <property name="meta.media.0.codec.colorspace">601</property>
  <property name="meta.media.0.codec.name">mjpeg</property>
  <property name="meta.media.0.codec.long_name">MJPEG (Motion JPEG)</property>
  <property name="meta.media.0.codec.bit_rate">0</property>
  <property name="meta.attr.0.stream.HANDLER_NAME.markup">VideoHandler</property>
  <property name="meta.attr.0.stream.ENCODER.markup">Lavc58.91.100 mjpeg</property>
  <property name="meta.attr.0.stream.DURATION.markup">00:00:55.555000000</property>
  <property name="meta.media.1.stream.type">audio</property>
  <property name="meta.media.1.codec.sample_fmt">s16</property>
  <property name="meta.media.1.codec.sample_rate">44100</property>
  <property name="meta.media.1.codec.channels">2</property>
  <property name="meta.media.1.codec.name">pcm_s16le</property>
  <property name="meta.media.1.codec.long_name">PCM signed 16-bit little-endian</property>
  <property name="meta.media.1.codec.bit_rate">1411200</property>
  <property name="meta.attr.1.stream.HANDLER_NAME.markup">SoundHandler</property>
  <property name="meta.attr.1.stream.ENCODER.markup">Lavc58.91.100 pcm_s16le</property>
  <property name="meta.attr.1.stream.DURATION.markup">00:00:55.612000000</property>
  <property name="meta.attr.COMPATIBLE_BRANDS.markup">isomiso2avc1mp41</property>
  <property name="meta.attr.MAJOR_BRAND.markup">isom</property>
  <property name="meta.attr.MINOR_VERSION.markup">512</property>
  <property name="meta.attr.ENCODER.markup">Lavf58.45.100</property>
  <property name="seekable">1</property>
  <property name="meta.media.sample_aspect_num">1</property>
  <property name="meta.media.sample_aspect_den">1</property>
  <property name="audio_index">1</property>
  <property name="video_index">0</property>
  <property name="mute_on_pause">1</property>
  <property name="warp_speed">3</property>
  <property name="warp_resource">/home/ryankelln/.cache/kdenlive/proxy/0408cbd72758135322641a2976371d84.mkv</property>
  <property name="mlt_service">timewarp</property>
  <property name="kdenlive:proxy">/home/ryankelln/.cache/kdenlive/proxy/0408cbd72758135322641a2976371d84.mkv</property>
  <property name="kdenlive:originalurl">content/footage/Lake, sunset - birds flying to the camera - gopro (1080p)-lhgGDBMz3II.mp4</property>
  <property name="set.test_audio">1</property>
  <property name="set.test_image">0</property>
  <property name="kdenlive:id">59</property>
  <property name="warp_pitch">0</property>
  <property name="meta.media.frame_rate_num">30000</property>
  <property name="meta.media.frame_rate_den">1001</property>
  <property name="meta.media.colorspace">601</property>
  <property name="meta.media.color_trc">2</property>
  <property name="meta.media.width">640</property>
  <property name="meta.media.height">360</property>
  <property name="meta.media.color_range">full</property>
  <property name="meta.media.top_field_first">0</property>
  <property name="meta.media.progressive">1</property>
 </producer>
 <producer id="producer120" in="00:00:00.000" out="00:01:51.200">
  <property name="length">3336</property>
  <property name="eof">pause</property>
  <property name="resource">0.500000:/home/ryankelln/.cache/kdenlive/proxy/0408cbd72758135322641a2976371d84.mkv</property>
  <property name="aspect_ratio">1</property>
  <property name="meta.media.nb_streams">2</property>
  <property name="meta.media.0.stream.type">video</property>
  <property name="meta.media.0.stream.frame_rate">29.97</property>
  <property name="meta.media.0.stream.sample_aspect_ratio">1</property>
  <property name="meta.media.0.codec.width">640</property>
  <property name="meta.media.0.codec.height">360</property>
  <property name="meta.media.0.codec.rotate">0</property>
  <property name="meta.media.0.codec.frame_rate">1000</property>
  <property name="meta.media.0.codec.pix_fmt">yuvj420p</property>
  <property name="meta.media.0.codec.sample_aspect_ratio">1</property>
  <property name="meta.media.0.codec.colorspace">601</property>
  <property name="meta.media.0.codec.name">mjpeg</property>
  <property name="meta.media.0.codec.long_name">MJPEG (Motion JPEG)</property>
  <property name="meta.media.0.codec.bit_rate">0</property>
  <property name="meta.attr.0.stream.HANDLER_NAME.markup">VideoHandler</property>
  <property name="meta.attr.0.stream.ENCODER.markup">Lavc58.91.100 mjpeg</property>
  <property name="meta.attr.0.stream.DURATION.markup">00:00:55.555000000</property>
  <property name="meta.media.1.stream.type">audio</property>
  <property name="meta.media.1.codec.sample_fmt">s16</property>
  <property name="meta.media.1.codec.sample_rate">44100</property>
  <property name="meta.media.1.codec.channels">2</property>
  <property name="meta.media.1.codec.name">pcm_s16le</property>
  <property name="meta.media.1.codec.long_name">PCM signed 16-bit little-endian</property>
  <property name="meta.media.1.codec.bit_rate">1411200</property>
  <property name="meta.attr.1.stream.HANDLER_NAME.markup">SoundHandler</property>
  <property name="meta.attr.1.stream.ENCODER.markup">Lavc58.91.100 pcm_s16le</property>
  <property name="meta.attr.1.stream.DURATION.markup">00:00:55.612000000</property>
  <property name="meta.attr.COMPATIBLE_BRANDS.markup">isomiso2avc1mp41</property>
  <property name="meta.attr.MAJOR_BRAND.markup">isom</property>
  <property name="meta.attr.MINOR_VERSION.markup">512</property>
  <property name="meta.attr.ENCODER.markup">Lavf58.45.100</property>
  <property name="seekable">1</property>
  <property name="meta.media.sample_aspect_num">1</property>
  <property name="meta.media.sample_aspect_den">1</property>
  <property name="audio_index">1</property>
  <property name="video_index">0</property>
  <property name="mute_on_pause">1</property>
  <property name="warp_speed">0.5</property>
  <property name="warp_resource">/home/ryankelln/.cache/kdenlive/proxy/0408cbd72758135322641a2976371d84.mkv</property>
  <property name="mlt_service">timewarp</property>
  <property name="kdenlive:proxy">/home/ryankelln/.cache/kdenlive/proxy/0408cbd72758135322641a2976371d84.mkv</property>
  <property name="kdenlive:originalurl">content/footage/Lake, sunset - birds flying to the camera - gopro (1080p)-lhgGDBMz3II.mp4</property>
  <property name="set.test_audio">1</property>
  <property name="set.test_image">0</property>
  <property name="kdenlive:id">59</property>
  <property name="warp_pitch">0</property>
  <property name="meta.media.frame_rate_num">30000</property>
  <property name="meta.media.frame_rate_den">1001</property>
  <property name="meta.media.colorspace">601</property>
  <property name="meta.media.color_trc">2</property>
  <property name="meta.media.width">640</property>
  <property name="meta.media.height">360</property>
  <property name="meta.media.color_range">full</property>
  <property name="meta.media.top_field_first">0</property>
  <property name="meta.media.progressive">1</property>
 </producer>
 <producer id="producer121" in="00:00:00.000" out="00:00:18.500">
  <property name="length">556</property>
  <property name="eof">pause</property>
  <property name="resource">3.000000:/home/ryankelln/.cache/kdenlive/proxy/0408cbd72758135322641a2976371d84.mkv</property>
  <property name="aspect_ratio">1</property>
  <property name="meta.media.nb_streams">2</property>
  <property name="meta.media.0.stream.type">video</property>
  <property name="meta.media.0.stream.frame_rate">29.97</property>
  <property name="meta.media.0.stream.sample_aspect_ratio">1</property>
  <property name="meta.media.0.codec.width">640</property>
  <property name="meta.media.0.codec.height">360</property>
  <property name="meta.media.0.codec.rotate">0</property>
  <property name="meta.media.0.codec.frame_rate">1000</property>
  <property name="meta.media.0.codec.pix_fmt">yuvj420p</property>
  <property name="meta.media.0.codec.sample_aspect_ratio">1</property>
  <property name="meta.media.0.codec.colorspace">601</property>
  <property name="meta.media.0.codec.name">mjpeg</property>
  <property name="meta.media.0.codec.long_name">MJPEG (Motion JPEG)</property>
  <property name="meta.media.0.codec.bit_rate">0</property>
  <property name="meta.attr.0.stream.HANDLER_NAME.markup">VideoHandler</property>
  <property name="meta.attr.0.stream.ENCODER.markup">Lavc58.91.100 mjpeg</property>
  <property name="meta.attr.0.stream.DURATION.markup">00:00:55.555000000</property>
  <property name="meta.media.1.stream.type">audio</property>
  <property name="meta.media.1.codec.sample_fmt">s16</property>
  <property name="meta.media.1.codec.sample_rate">44100</property>
  <property name="meta.media.1.codec.channels">2</property>
  <property name="meta.media.1.codec.name">pcm_s16le</property>
  <property name="meta.media.1.codec.long_name">PCM signed 16-bit little-endian</property>
  <property name="meta.media.1.codec.bit_rate">1411200</property>
  <property name="meta.attr.1.stream.HANDLER_NAME.markup">SoundHandler</property>
  <property name="meta.attr.1.stream.ENCODER.markup">Lavc58.91.100 pcm_s16le</property>
  <property name="meta.attr.1.stream.DURATION.markup">00:00:55.612000000</property>
  <property name="meta.attr.COMPATIBLE_BRANDS.markup">isomiso2avc1mp41</property>
  <property name="meta.attr.MAJOR_BRAND.markup">isom</property>
  <property name="meta.attr.MINOR_VERSION.markup">512</property>
  <property name="meta.attr.ENCODER.markup">Lavf58.45.100</property>
  <property name="seekable">1</property>
  <property name="meta.media.sample_aspect_num">1</property>
  <property name="meta.media.sample_aspect_den">1</property>
  <property name="audio_index">1</property>
  <property name="video_index">0</property>
  <property name="mute_on_pause">1</property>
  <property name="warp_speed">3</property>
  <property name="warp_resource">/home/ryankelln/.cache/kdenlive/proxy/0408cbd72758135322641a2976371d84.mkv</property>
  <property name="mlt_service">timewarp</property>
  <property name="kdenlive:proxy">/home/ryankelln/.cache/kdenlive/proxy/0408cbd72758135322641a2976371d84.mkv</property>
  <property name="kdenlive:originalurl">content/footage/Lake, sunset - birds flying to the camera - gopro (1080p)-lhgGDBMz3II.mp4</property>
  <property name="set.test_audio">1</property>
  <property name="set.test_image">0</property>
  <property name="kdenlive:id">59</property>
  <property name="warp_pitch">0</property>
  <property name="meta.media.frame_rate_num">30000</property>
  <property name="meta.media.frame_rate_den">1001</property>
  <property name="meta.media.colorspace">601</property>
  <property name="meta.media.color_trc">2</property>
  <property name="meta.media.width">640</property>
  <property name="meta.media.height">360</property>
  <property name="meta.media.color_range">full</property>
  <property name="meta.media.top_field_first">0</property>
  <property name="meta.media.progressive">1</property>
 </producer>
 <producer id="producer122" in="00:00:00.000" out="00:01:51.200">
  <property name="length">3336</property>
  <property name="eof">pause</property>
  <property name="resource">0.500000:/home/ryankelln/.cache/kdenlive/proxy/0408cbd72758135322641a2976371d84.mkv</property>
  <property name="aspect_ratio">1</property>
  <property name="meta.media.nb_streams">2</property>
  <property name="meta.media.0.stream.type">video</property>
  <property name="meta.media.0.stream.frame_rate">29.97</property>
  <property name="meta.media.0.stream.sample_aspect_ratio">1</property>
  <property name="meta.media.0.codec.width">640</property>
  <property name="meta.media.0.codec.height">360</property>
  <property name="meta.media.0.codec.rotate">0</property>
  <property name="meta.media.0.codec.frame_rate">1000</property>
  <property name="meta.media.0.codec.pix_fmt">yuvj420p</property>
  <property name="meta.media.0.codec.sample_aspect_ratio">1</property>
  <property name="meta.media.0.codec.colorspace">601</property>
  <property name="meta.media.0.codec.name">mjpeg</property>
  <property name="meta.media.0.codec.long_name">MJPEG (Motion JPEG)</property>
  <property name="meta.media.0.codec.bit_rate">0</property>
  <property name="meta.attr.0.stream.HANDLER_NAME.markup">VideoHandler</property>
  <property name="meta.attr.0.stream.ENCODER.markup">Lavc58.91.100 mjpeg</property>
  <property name="meta.attr.0.stream.DURATION.markup">00:00:55.555000000</property>
  <property name="meta.media.1.stream.type">audio</property>
  <property name="meta.media.1.codec.sample_fmt">s16</property>
  <property name="meta.media.1.codec.sample_rate">44100</property>
  <property name="meta.media.1.codec.channels">2</property>
  <property name="meta.media.1.codec.name">pcm_s16le</property>
  <property name="meta.media.1.codec.long_name">PCM signed 16-bit little-endian</property>
  <property name="meta.media.1.codec.bit_rate">1411200</property>
  <property name="meta.attr.1.stream.HANDLER_NAME.markup">SoundHandler</property>
  <property name="meta.attr.1.stream.ENCODER.markup">Lavc58.91.100 pcm_s16le</property>
  <property name="meta.attr.1.stream.DURATION.markup">00:00:55.612000000</property>
  <property name="meta.attr.COMPATIBLE_BRANDS.markup">isomiso2avc1mp41</property>
  <property name="meta.attr.MAJOR_BRAND.markup">isom</property>
  <property name="meta.attr.MINOR_VERSION.markup">512</property>
  <property name="meta.attr.ENCODER.markup">Lavf58.45.100</property>
  <property name="seekable">1</property>
  <property name="meta.media.sample_aspect_num">1</property>
  <property name="meta.media.sample_aspect_den">1</property>
  <property name="audio_index">1</property>
  <property name="video_index">0</property>
  <property name="mute_on_pause">1</property>
  <property name="warp_speed">0.5</property>
  <property name="warp_resource">/home/ryankelln/.cache/kdenlive/proxy/0408cbd72758135322641a2976371d84.mkv</property>
  <property name="mlt_service">timewarp</property>
  <property name="kdenlive:proxy">/home/ryankelln/.cache/kdenlive/proxy/0408cbd72758135322641a2976371d84.mkv</property>
  <property name="kdenlive:originalurl">content/footage/Lake, sunset - birds flying to the camera - gopro (1080p)-lhgGDBMz3II.mp4</property>
  <property name="set.test_audio">1</property>
  <property name="set.test_image">0</property>
  <property name="kdenlive:id">59</property>
  <property name="warp_pitch">0</property>
  <property name="meta.media.frame_rate_num">30000</property>
  <property name="meta.media.frame_rate_den">1001</property>
  <property name="meta.media.colorspace">601</property>
  <property name="meta.media.color_trc">2</property>
  <property name="meta.media.width">640</property>
  <property name="meta.media.height">360</property>
  <property name="meta.media.color_range">full</property>
  <property name="meta.media.top_field_first">0</property>
  <property name="meta.media.progressive">1</property>
 </producer>
 <producer id="producer123" in="00:00:00.000" out="00:00:18.500">
  <property name="length">556</property>
  <property name="eof">pause</property>
  <property name="resource">3.000000:/home/ryankelln/.cache/kdenlive/proxy/0408cbd72758135322641a2976371d84.mkv</property>
  <property name="aspect_ratio">1</property>
  <property name="meta.media.nb_streams">2</property>
  <property name="meta.media.0.stream.type">video</property>
  <property name="meta.media.0.stream.frame_rate">29.97</property>
  <property name="meta.media.0.stream.sample_aspect_ratio">1</property>
  <property name="meta.media.0.codec.width">640</property>
  <property name="meta.media.0.codec.height">360</property>
  <property name="meta.media.0.codec.rotate">0</property>
  <property name="meta.media.0.codec.frame_rate">1000</property>
  <property name="meta.media.0.codec.pix_fmt">yuvj420p</property>
  <property name="meta.media.0.codec.sample_aspect_ratio">1</property>
  <property name="meta.media.0.codec.colorspace">601</property>
  <property name="meta.media.0.codec.name">mjpeg</property>
  <property name="meta.media.0.codec.long_name">MJPEG (Motion JPEG)</property>
  <property name="meta.media.0.codec.bit_rate">0</property>
  <property name="meta.attr.0.stream.HANDLER_NAME.markup">VideoHandler</property>
  <property name="meta.attr.0.stream.ENCODER.markup">Lavc58.91.100 mjpeg</property>
  <property name="meta.attr.0.stream.DURATION.markup">00:00:55.555000000</property>
  <property name="meta.media.1.stream.type">audio</property>
  <property name="meta.media.1.codec.sample_fmt">s16</property>
  <property name="meta.media.1.codec.sample_rate">44100</property>
  <property name="meta.media.1.codec.channels">2</property>
  <property name="meta.media.1.codec.name">pcm_s16le</property>
  <property name="meta.media.1.codec.long_name">PCM signed 16-bit little-endian</property>
  <property name="meta.media.1.codec.bit_rate">1411200</property>
  <property name="meta.attr.1.stream.HANDLER_NAME.markup">SoundHandler</property>
  <property name="meta.attr.1.stream.ENCODER.markup">Lavc58.91.100 pcm_s16le</property>
  <property name="meta.attr.1.stream.DURATION.markup">00:00:55.612000000</property>
  <property name="meta.attr.COMPATIBLE_BRANDS.markup">isomiso2avc1mp41</property>
  <property name="meta.attr.MAJOR_BRAND.markup">isom</property>
  <property name="meta.attr.MINOR_VERSION.markup">512</property>
  <property name="meta.attr.ENCODER.markup">Lavf58.45.100</property>
  <property name="seekable">1</property>
  <property name="meta.media.sample_aspect_num">1</property>
  <property name="meta.media.sample_aspect_den">1</property>
  <property name="audio_index">1</property>
  <property name="video_index">0</property>
  <property name="mute_on_pause">1</property>
  <property name="warp_speed">3</property>
  <property name="warp_resource">/home/ryankelln/.cache/kdenlive/proxy/0408cbd72758135322641a2976371d84.mkv</property>
  <property name="mlt_service">timewarp</property>
  <property name="kdenlive:proxy">/home/ryankelln/.cache/kdenlive/proxy/0408cbd72758135322641a2976371d84.mkv</property>
  <property name="kdenlive:originalurl">content/footage/Lake, sunset - birds flying to the camera - gopro (1080p)-lhgGDBMz3II.mp4</property>
  <property name="set.test_audio">1</property>
  <property name="set.test_image">0</property>
  <property name="kdenlive:id">59</property>
  <property name="warp_pitch">0</property>
  <property name="meta.media.frame_rate_num">30000</property>
  <property name="meta.media.frame_rate_den">1001</property>
  <property name="meta.media.colorspace">601</property>
  <property name="meta.media.color_trc">2</property>
  <property name="meta.media.width">640</property>
  <property name="meta.media.height">360</property>
  <property name="meta.media.color_range">full</property>
  <property name="meta.media.top_field_first">0</property>
  <property name="meta.media.progressive">1</property>
 </producer>
 <producer id="producer124" in="00:00:00.000" out="00:00:27.767">
  <property name="length">834</property>
  <property name="eof">pause</property>
  <property name="resource">-2.000000:/home/ryankelln/.cache/kdenlive/proxy/0408cbd72758135322641a2976371d84.mkv</property>
  <property name="aspect_ratio">1</property>
  <property name="meta.media.nb_streams">2</property>
  <property name="meta.media.0.stream.type">video</property>
  <property name="meta.media.0.stream.frame_rate">29.97</property>
  <property name="meta.media.0.stream.sample_aspect_ratio">1</property>
  <property name="meta.media.0.codec.width">640</property>
  <property name="meta.media.0.codec.height">360</property>
  <property name="meta.media.0.codec.rotate">0</property>
  <property name="meta.media.0.codec.frame_rate">1000</property>
  <property name="meta.media.0.codec.pix_fmt">yuvj420p</property>
  <property name="meta.media.0.codec.sample_aspect_ratio">1</property>
  <property name="meta.media.0.codec.colorspace">601</property>
  <property name="meta.media.0.codec.name">mjpeg</property>
  <property name="meta.media.0.codec.long_name">MJPEG (Motion JPEG)</property>
  <property name="meta.media.0.codec.bit_rate">0</property>
  <property name="meta.attr.0.stream.HANDLER_NAME.markup">VideoHandler</property>
  <property name="meta.attr.0.stream.ENCODER.markup">Lavc58.91.100 mjpeg</property>
  <property name="meta.attr.0.stream.DURATION.markup">00:00:55.555000000</property>
  <property name="meta.media.1.stream.type">audio</property>
  <property name="meta.media.1.codec.sample_fmt">s16</property>
  <property name="meta.media.1.codec.sample_rate">44100</property>
  <property name="meta.media.1.codec.channels">2</property>
  <property name="meta.media.1.codec.name">pcm_s16le</property>
  <property name="meta.media.1.codec.long_name">PCM signed 16-bit little-endian</property>
  <property name="meta.media.1.codec.bit_rate">1411200</property>
  <property name="meta.attr.1.stream.HANDLER_NAME.markup">SoundHandler</property>
  <property name="meta.attr.1.stream.ENCODER.markup">Lavc58.91.100 pcm_s16le</property>
  <property name="meta.attr.1.stream.DURATION.markup">00:00:55.612000000</property>
  <property name="meta.attr.COMPATIBLE_BRANDS.markup">isomiso2avc1mp41</property>
  <property name="meta.attr.MAJOR_BRAND.markup">isom</property>
  <property name="meta.attr.MINOR_VERSION.markup">512</property>
  <property name="meta.attr.ENCODER.markup">Lavf58.45.100</property>
  <property name="seekable">1</property>
  <property name="meta.media.sample_aspect_num">1</property>
  <property name="meta.media.sample_aspect_den">1</property>
  <property name="audio_index">1</property>
  <property name="video_index">0</property>
  <property name="mute_on_pause">1</property>
  <property name="warp_speed">-2</property>
  <property name="warp_resource">/home/ryankelln/.cache/kdenlive/proxy/0408cbd72758135322641a2976371d84.mkv</property>
  <property name="mlt_service">timewarp</property>
  <property name="kdenlive:proxy">/home/ryankelln/.cache/kdenlive/proxy/0408cbd72758135322641a2976371d84.mkv</property>
  <property name="kdenlive:originalurl">content/footage/Lake, sunset - birds flying to the camera - gopro (1080p)-lhgGDBMz3II.mp4</property>
  <property name="set.test_audio">1</property>
  <property name="set.test_image">0</property>
  <property name="kdenlive:id">59</property>
  <property name="warp_pitch">0</property>
  <property name="meta.media.frame_rate_num">30000</property>
  <property name="meta.media.frame_rate_den">1001</property>
  <property name="meta.media.colorspace">601</property>
  <property name="meta.media.color_trc">2</property>
  <property name="meta.media.width">640</property>
  <property name="meta.media.height">360</property>
  <property name="meta.media.color_range">full</property>
  <property name="meta.media.top_field_first">0</property>
  <property name="meta.media.progressive">1</property>
 </producer>
 <producer id="producer125" in="00:00:00.000" out="00:00:52.367">
  <property name="length">1572</property>
  <property name="eof">pause</property>
  <property name="resource">1.061224:/home/ryankelln/.cache/kdenlive/proxy/0408cbd72758135322641a2976371d84.mkv</property>
  <property name="aspect_ratio">1</property>
  <property name="meta.media.nb_streams">2</property>
  <property name="meta.media.0.stream.type">video</property>
  <property name="meta.media.0.stream.frame_rate">29.97</property>
  <property name="meta.media.0.stream.sample_aspect_ratio">1</property>
  <property name="meta.media.0.codec.width">640</property>
  <property name="meta.media.0.codec.height">360</property>
  <property name="meta.media.0.codec.rotate">0</property>
  <property name="meta.media.0.codec.frame_rate">1000</property>
  <property name="meta.media.0.codec.pix_fmt">yuvj420p</property>
  <property name="meta.media.0.codec.sample_aspect_ratio">1</property>
  <property name="meta.media.0.codec.colorspace">601</property>
  <property name="meta.media.0.codec.name">mjpeg</property>
  <property name="meta.media.0.codec.long_name">MJPEG (Motion JPEG)</property>
  <property name="meta.media.0.codec.bit_rate">0</property>
  <property name="meta.attr.0.stream.HANDLER_NAME.markup">VideoHandler</property>
  <property name="meta.attr.0.stream.ENCODER.markup">Lavc58.91.100 mjpeg</property>
  <property name="meta.attr.0.stream.DURATION.markup">00:00:55.555000000</property>
  <property name="meta.media.1.stream.type">audio</property>
  <property name="meta.media.1.codec.sample_fmt">s16</property>
  <property name="meta.media.1.codec.sample_rate">44100</property>
  <property name="meta.media.1.codec.channels">2</property>
  <property name="meta.media.1.codec.name">pcm_s16le</property>
  <property name="meta.media.1.codec.long_name">PCM signed 16-bit little-endian</property>
  <property name="meta.media.1.codec.bit_rate">1411200</property>
  <property name="meta.attr.1.stream.HANDLER_NAME.markup">SoundHandler</property>
  <property name="meta.attr.1.stream.ENCODER.markup">Lavc58.91.100 pcm_s16le</property>
  <property name="meta.attr.1.stream.DURATION.markup">00:00:55.612000000</property>
  <property name="meta.attr.COMPATIBLE_BRANDS.markup">isomiso2avc1mp41</property>
  <property name="meta.attr.MAJOR_BRAND.markup">isom</property>
  <property name="meta.attr.MINOR_VERSION.markup">512</property>
  <property name="meta.attr.ENCODER.markup">Lavf58.45.100</property>
  <property name="seekable">1</property>
  <property name="meta.media.sample_aspect_num">1</property>
  <property name="meta.media.sample_aspect_den">1</property>
  <property name="audio_index">1</property>
  <property name="video_index">0</property>
  <property name="mute_on_pause">1</property>
  <property name="warp_speed">1.06122</property>
  <property name="warp_resource">/home/ryankelln/.cache/kdenlive/proxy/0408cbd72758135322641a2976371d84.mkv</property>
  <property name="mlt_service">timewarp</property>
  <property name="kdenlive:proxy">/home/ryankelln/.cache/kdenlive/proxy/0408cbd72758135322641a2976371d84.mkv</property>
  <property name="kdenlive:originalurl">content/footage/Lake, sunset - birds flying to the camera - gopro (1080p)-lhgGDBMz3II.mp4</property>
  <property name="set.test_audio">1</property>
  <property name="set.test_image">0</property>
  <property name="kdenlive:id">59</property>
  <property name="warp_pitch">0</property>
  <property name="meta.media.frame_rate_num">30000</property>
  <property name="meta.media.frame_rate_den">1001</property>
  <property name="meta.media.colorspace">601</property>
  <property name="meta.media.color_trc">2</property>
  <property name="meta.media.width">640</property>
  <property name="meta.media.height">360</property>
  <property name="meta.media.color_range">full</property>
  <property name="meta.media.top_field_first">0</property>
  <property name="meta.media.progressive">1</property>
 </producer>
 <producer id="producer126" in="00:00:00.000" out="00:00:18.500">
  <property name="length">556</property>
  <property name="eof">pause</property>
  <property name="resource">3.000000:/home/ryankelln/.cache/kdenlive/proxy/0408cbd72758135322641a2976371d84.mkv</property>
  <property name="aspect_ratio">1</property>
  <property name="meta.media.nb_streams">2</property>
  <property name="meta.media.0.stream.type">video</property>
  <property name="meta.media.0.stream.frame_rate">29.97</property>
  <property name="meta.media.0.stream.sample_aspect_ratio">1</property>
  <property name="meta.media.0.codec.width">640</property>
  <property name="meta.media.0.codec.height">360</property>
  <property name="meta.media.0.codec.rotate">0</property>
  <property name="meta.media.0.codec.frame_rate">1000</property>
  <property name="meta.media.0.codec.pix_fmt">yuvj420p</property>
  <property name="meta.media.0.codec.sample_aspect_ratio">1</property>
  <property name="meta.media.0.codec.colorspace">601</property>
  <property name="meta.media.0.codec.name">mjpeg</property>
  <property name="meta.media.0.codec.long_name">MJPEG (Motion JPEG)</property>
  <property name="meta.media.0.codec.bit_rate">0</property>
  <property name="meta.attr.0.stream.HANDLER_NAME.markup">VideoHandler</property>
  <property name="meta.attr.0.stream.ENCODER.markup">Lavc58.91.100 mjpeg</property>
  <property name="meta.attr.0.stream.DURATION.markup">00:00:55.555000000</property>
  <property name="meta.media.1.stream.type">audio</property>
  <property name="meta.media.1.codec.sample_fmt">s16</property>
  <property name="meta.media.1.codec.sample_rate">44100</property>
  <property name="meta.media.1.codec.channels">2</property>
  <property name="meta.media.1.codec.name">pcm_s16le</property>
  <property name="meta.media.1.codec.long_name">PCM signed 16-bit little-endian</property>
  <property name="meta.media.1.codec.bit_rate">1411200</property>
  <property name="meta.attr.1.stream.HANDLER_NAME.markup">SoundHandler</property>
  <property name="meta.attr.1.stream.ENCODER.markup">Lavc58.91.100 pcm_s16le</property>
  <property name="meta.attr.1.stream.DURATION.markup">00:00:55.612000000</property>
  <property name="meta.attr.COMPATIBLE_BRANDS.markup">isomiso2avc1mp41</property>
  <property name="meta.attr.MAJOR_BRAND.markup">isom</property>
  <property name="meta.attr.MINOR_VERSION.markup">512</property>
  <property name="meta.attr.ENCODER.markup">Lavf58.45.100</property>
  <property name="seekable">1</property>
  <property name="meta.media.sample_aspect_num">1</property>
  <property name="meta.media.sample_aspect_den">1</property>
  <property name="audio_index">1</property>
  <property name="video_index">0</property>
  <property name="mute_on_pause">1</property>
  <property name="warp_speed">3</property>
  <property name="warp_resource">/home/ryankelln/.cache/kdenlive/proxy/0408cbd72758135322641a2976371d84.mkv</property>
  <property name="mlt_service">timewarp</property>
  <property name="kdenlive:proxy">/home/ryankelln/.cache/kdenlive/proxy/0408cbd72758135322641a2976371d84.mkv</property>
  <property name="kdenlive:originalurl">content/footage/Lake, sunset - birds flying to the camera - gopro (1080p)-lhgGDBMz3II.mp4</property>
  <property name="set.test_audio">1</property>
  <property name="set.test_image">0</property>
  <property name="kdenlive:id">59</property>
  <property name="warp_pitch">0</property>
  <property name="meta.media.frame_rate_num">30000</property>
  <property name="meta.media.frame_rate_den">1001</property>
  <property name="meta.media.colorspace">601</property>
  <property name="meta.media.color_trc">2</property>
  <property name="meta.media.width">640</property>
  <property name="meta.media.height">360</property>
  <property name="meta.media.color_range">full</property>
  <property name="meta.media.top_field_first">0</property>
  <property name="meta.media.progressive">1</property>
 </producer>
 <producer id="producer127" in="00:00:00.000" out="00:00:18.500">
  <property name="length">556</property>
  <property name="eof">pause</property>
  <property name="resource">3.000000:/home/ryankelln/.cache/kdenlive/proxy/0408cbd72758135322641a2976371d84.mkv</property>
  <property name="aspect_ratio">1</property>
  <property name="meta.media.nb_streams">2</property>
  <property name="meta.media.0.stream.type">video</property>
  <property name="meta.media.0.stream.frame_rate">29.97</property>
  <property name="meta.media.0.stream.sample_aspect_ratio">1</property>
  <property name="meta.media.0.codec.width">640</property>
  <property name="meta.media.0.codec.height">360</property>
  <property name="meta.media.0.codec.rotate">0</property>
  <property name="meta.media.0.codec.frame_rate">1000</property>
  <property name="meta.media.0.codec.pix_fmt">yuvj420p</property>
  <property name="meta.media.0.codec.sample_aspect_ratio">1</property>
  <property name="meta.media.0.codec.colorspace">601</property>
  <property name="meta.media.0.codec.name">mjpeg</property>
  <property name="meta.media.0.codec.long_name">MJPEG (Motion JPEG)</property>
  <property name="meta.media.0.codec.bit_rate">0</property>
  <property name="meta.attr.0.stream.HANDLER_NAME.markup">VideoHandler</property>
  <property name="meta.attr.0.stream.ENCODER.markup">Lavc58.91.100 mjpeg</property>
  <property name="meta.attr.0.stream.DURATION.markup">00:00:55.555000000</property>
  <property name="meta.media.1.stream.type">audio</property>
  <property name="meta.media.1.codec.sample_fmt">s16</property>
  <property name="meta.media.1.codec.sample_rate">44100</property>
  <property name="meta.media.1.codec.channels">2</property>
  <property name="meta.media.1.codec.name">pcm_s16le</property>
  <property name="meta.media.1.codec.long_name">PCM signed 16-bit little-endian</property>
  <property name="meta.media.1.codec.bit_rate">1411200</property>
  <property name="meta.attr.1.stream.HANDLER_NAME.markup">SoundHandler</property>
  <property name="meta.attr.1.stream.ENCODER.markup">Lavc58.91.100 pcm_s16le</property>
  <property name="meta.attr.1.stream.DURATION.markup">00:00:55.612000000</property>
  <property name="meta.attr.COMPATIBLE_BRANDS.markup">isomiso2avc1mp41</property>
  <property name="meta.attr.MAJOR_BRAND.markup">isom</property>
  <property name="meta.attr.MINOR_VERSION.markup">512</property>
  <property name="meta.attr.ENCODER.markup">Lavf58.45.100</property>
  <property name="seekable">1</property>
  <property name="meta.media.sample_aspect_num">1</property>
  <property name="meta.media.sample_aspect_den">1</property>
  <property name="audio_index">1</property>
  <property name="video_index">0</property>
  <property name="mute_on_pause">1</property>
  <property name="warp_speed">3</property>
  <property name="warp_resource">/home/ryankelln/.cache/kdenlive/proxy/0408cbd72758135322641a2976371d84.mkv</property>
  <property name="mlt_service">timewarp</property>
  <property name="kdenlive:proxy">/home/ryankelln/.cache/kdenlive/proxy/0408cbd72758135322641a2976371d84.mkv</property>
  <property name="kdenlive:originalurl">content/footage/Lake, sunset - birds flying to the camera - gopro (1080p)-lhgGDBMz3II.mp4</property>
  <property name="set.test_audio">1</property>
  <property name="set.test_image">0</property>
  <property name="kdenlive:id">59</property>
  <property name="warp_pitch">0</property>
  <property name="meta.media.frame_rate_num">30000</property>
  <property name="meta.media.frame_rate_den">1001</property>
  <property name="meta.media.colorspace">601</property>
  <property name="meta.media.color_trc">2</property>
  <property name="meta.media.width">640</property>
  <property name="meta.media.height">360</property>
  <property name="meta.media.color_range">full</property>
  <property name="meta.media.top_field_first">0</property>
  <property name="meta.media.progressive">1</property>
 </producer>
 <producer id="producer128" in="00:00:00.000" out="00:01:51.200">
  <property name="length">3336</property>
  <property name="eof">pause</property>
  <property name="resource">0.500000:/home/ryankelln/.cache/kdenlive/proxy/0408cbd72758135322641a2976371d84.mkv</property>
  <property name="aspect_ratio">1</property>
  <property name="meta.media.nb_streams">2</property>
  <property name="meta.media.0.stream.type">video</property>
  <property name="meta.media.0.stream.frame_rate">29.97</property>
  <property name="meta.media.0.stream.sample_aspect_ratio">1</property>
  <property name="meta.media.0.codec.width">640</property>
  <property name="meta.media.0.codec.height">360</property>
  <property name="meta.media.0.codec.rotate">0</property>
  <property name="meta.media.0.codec.frame_rate">1000</property>
  <property name="meta.media.0.codec.pix_fmt">yuvj420p</property>
  <property name="meta.media.0.codec.sample_aspect_ratio">1</property>
  <property name="meta.media.0.codec.colorspace">601</property>
  <property name="meta.media.0.codec.name">mjpeg</property>
  <property name="meta.media.0.codec.long_name">MJPEG (Motion JPEG)</property>
  <property name="meta.media.0.codec.bit_rate">0</property>
  <property name="meta.attr.0.stream.HANDLER_NAME.markup">VideoHandler</property>
  <property name="meta.attr.0.stream.ENCODER.markup">Lavc58.91.100 mjpeg</property>
  <property name="meta.attr.0.stream.DURATION.markup">00:00:55.555000000</property>
  <property name="meta.media.1.stream.type">audio</property>
  <property name="meta.media.1.codec.sample_fmt">s16</property>
  <property name="meta.media.1.codec.sample_rate">44100</property>
  <property name="meta.media.1.codec.channels">2</property>
  <property name="meta.media.1.codec.name">pcm_s16le</property>
  <property name="meta.media.1.codec.long_name">PCM signed 16-bit little-endian</property>
  <property name="meta.media.1.codec.bit_rate">1411200</property>
  <property name="meta.attr.1.stream.HANDLER_NAME.markup">SoundHandler</property>
  <property name="meta.attr.1.stream.ENCODER.markup">Lavc58.91.100 pcm_s16le</property>
  <property name="meta.attr.1.stream.DURATION.markup">00:00:55.612000000</property>
  <property name="meta.attr.COMPATIBLE_BRANDS.markup">isomiso2avc1mp41</property>
  <property name="meta.attr.MAJOR_BRAND.markup">isom</property>
  <property name="meta.attr.MINOR_VERSION.markup">512</property>
  <property name="meta.attr.ENCODER.markup">Lavf58.45.100</property>
  <property name="seekable">1</property>
  <property name="meta.media.sample_aspect_num">1</property>
  <property name="meta.media.sample_aspect_den">1</property>
  <property name="audio_index">1</property>
  <property name="video_index">0</property>
  <property name="mute_on_pause">1</property>
  <property name="warp_speed">0.5</property>
  <property name="warp_resource">/home/ryankelln/.cache/kdenlive/proxy/0408cbd72758135322641a2976371d84.mkv</property>
  <property name="mlt_service">timewarp</property>
  <property name="kdenlive:proxy">/home/ryankelln/.cache/kdenlive/proxy/0408cbd72758135322641a2976371d84.mkv</property>
  <property name="kdenlive:originalurl">content/footage/Lake, sunset - birds flying to the camera - gopro (1080p)-lhgGDBMz3II.mp4</property>
  <property name="set.test_audio">1</property>
  <property name="set.test_image">0</property>
  <property name="kdenlive:id">59</property>
  <property name="warp_pitch">0</property>
  <property name="meta.media.frame_rate_num">30000</property>
  <property name="meta.media.frame_rate_den">1001</property>
  <property name="meta.media.colorspace">601</property>
  <property name="meta.media.color_trc">2</property>
  <property name="meta.media.width">640</property>
  <property name="meta.media.height">360</property>
  <property name="meta.media.color_range">full</property>
  <property name="meta.media.top_field_first">0</property>
  <property name="meta.media.progressive">1</property>
 </producer>
 <producer id="producer129" in="00:00:00.000" out="00:00:18.500">
  <property name="length">556</property>
  <property name="eof">pause</property>
  <property name="resource">3.000000:/home/ryankelln/.cache/kdenlive/proxy/0408cbd72758135322641a2976371d84.mkv</property>
  <property name="aspect_ratio">1</property>
  <property name="meta.media.nb_streams">2</property>
  <property name="meta.media.0.stream.type">video</property>
  <property name="meta.media.0.stream.frame_rate">29.97</property>
  <property name="meta.media.0.stream.sample_aspect_ratio">1</property>
  <property name="meta.media.0.codec.width">640</property>
  <property name="meta.media.0.codec.height">360</property>
  <property name="meta.media.0.codec.rotate">0</property>
  <property name="meta.media.0.codec.frame_rate">1000</property>
  <property name="meta.media.0.codec.pix_fmt">yuvj420p</property>
  <property name="meta.media.0.codec.sample_aspect_ratio">1</property>
  <property name="meta.media.0.codec.colorspace">601</property>
  <property name="meta.media.0.codec.name">mjpeg</property>
  <property name="meta.media.0.codec.long_name">MJPEG (Motion JPEG)</property>
  <property name="meta.media.0.codec.bit_rate">0</property>
  <property name="meta.attr.0.stream.HANDLER_NAME.markup">VideoHandler</property>
  <property name="meta.attr.0.stream.ENCODER.markup">Lavc58.91.100 mjpeg</property>
  <property name="meta.attr.0.stream.DURATION.markup">00:00:55.555000000</property>
  <property name="meta.media.1.stream.type">audio</property>
  <property name="meta.media.1.codec.sample_fmt">s16</property>
  <property name="meta.media.1.codec.sample_rate">44100</property>
  <property name="meta.media.1.codec.channels">2</property>
  <property name="meta.media.1.codec.name">pcm_s16le</property>
  <property name="meta.media.1.codec.long_name">PCM signed 16-bit little-endian</property>
  <property name="meta.media.1.codec.bit_rate">1411200</property>
  <property name="meta.attr.1.stream.HANDLER_NAME.markup">SoundHandler</property>
  <property name="meta.attr.1.stream.ENCODER.markup">Lavc58.91.100 pcm_s16le</property>
  <property name="meta.attr.1.stream.DURATION.markup">00:00:55.612000000</property>
  <property name="meta.attr.COMPATIBLE_BRANDS.markup">isomiso2avc1mp41</property>
  <property name="meta.attr.MAJOR_BRAND.markup">isom</property>
  <property name="meta.attr.MINOR_VERSION.markup">512</property>
  <property name="meta.attr.ENCODER.markup">Lavf58.45.100</property>
  <property name="seekable">1</property>
  <property name="meta.media.sample_aspect_num">1</property>
  <property name="meta.media.sample_aspect_den">1</property>
  <property name="audio_index">1</property>
  <property name="video_index">0</property>
  <property name="mute_on_pause">1</property>
  <property name="warp_speed">3</property>
  <property name="warp_resource">/home/ryankelln/.cache/kdenlive/proxy/0408cbd72758135322641a2976371d84.mkv</property>
  <property name="mlt_service">timewarp</property>
  <property name="kdenlive:proxy">/home/ryankelln/.cache/kdenlive/proxy/0408cbd72758135322641a2976371d84.mkv</property>
  <property name="kdenlive:originalurl">content/footage/Lake, sunset - birds flying to the camera - gopro (1080p)-lhgGDBMz3II.mp4</property>
  <property name="set.test_audio">1</property>
  <property name="set.test_image">0</property>
  <property name="kdenlive:id">59</property>
  <property name="warp_pitch">0</property>
  <property name="meta.media.frame_rate_num">30000</property>
  <property name="meta.media.frame_rate_den">1001</property>
  <property name="meta.media.colorspace">601</property>
  <property name="meta.media.color_trc">2</property>
  <property name="meta.media.width">640</property>
  <property name="meta.media.height">360</property>
  <property name="meta.media.color_range">full</property>
  <property name="meta.media.top_field_first">0</property>
  <property name="meta.media.progressive">1</property>
 </producer>
 <producer id="producer130" in="00:00:00.000" out="00:01:51.200">
  <property name="length">3336</property>
  <property name="eof">pause</property>
  <property name="resource">0.500000:/home/ryankelln/.cache/kdenlive/proxy/0408cbd72758135322641a2976371d84.mkv</property>
  <property name="aspect_ratio">1</property>
  <property name="meta.media.nb_streams">2</property>
  <property name="meta.media.0.stream.type">video</property>
  <property name="meta.media.0.stream.frame_rate">29.97</property>
  <property name="meta.media.0.stream.sample_aspect_ratio">1</property>
  <property name="meta.media.0.codec.width">640</property>
  <property name="meta.media.0.codec.height">360</property>
  <property name="meta.media.0.codec.rotate">0</property>
  <property name="meta.media.0.codec.frame_rate">1000</property>
  <property name="meta.media.0.codec.pix_fmt">yuvj420p</property>
  <property name="meta.media.0.codec.sample_aspect_ratio">1</property>
  <property name="meta.media.0.codec.colorspace">601</property>
  <property name="meta.media.0.codec.name">mjpeg</property>
  <property name="meta.media.0.codec.long_name">MJPEG (Motion JPEG)</property>
  <property name="meta.media.0.codec.bit_rate">0</property>
  <property name="meta.attr.0.stream.HANDLER_NAME.markup">VideoHandler</property>
  <property name="meta.attr.0.stream.ENCODER.markup">Lavc58.91.100 mjpeg</property>
  <property name="meta.attr.0.stream.DURATION.markup">00:00:55.555000000</property>
  <property name="meta.media.1.stream.type">audio</property>
  <property name="meta.media.1.codec.sample_fmt">s16</property>
  <property name="meta.media.1.codec.sample_rate">44100</property>
  <property name="meta.media.1.codec.channels">2</property>
  <property name="meta.media.1.codec.name">pcm_s16le</property>
  <property name="meta.media.1.codec.long_name">PCM signed 16-bit little-endian</property>
  <property name="meta.media.1.codec.bit_rate">1411200</property>
  <property name="meta.attr.1.stream.HANDLER_NAME.markup">SoundHandler</property>
  <property name="meta.attr.1.stream.ENCODER.markup">Lavc58.91.100 pcm_s16le</property>
  <property name="meta.attr.1.stream.DURATION.markup">00:00:55.612000000</property>
  <property name="meta.attr.COMPATIBLE_BRANDS.markup">isomiso2avc1mp41</property>
  <property name="meta.attr.MAJOR_BRAND.markup">isom</property>
  <property name="meta.attr.MINOR_VERSION.markup">512</property>
  <property name="meta.attr.ENCODER.markup">Lavf58.45.100</property>
  <property name="seekable">1</property>
  <property name="meta.media.sample_aspect_num">1</property>
  <property name="meta.media.sample_aspect_den">1</property>
  <property name="audio_index">1</property>
  <property name="video_index">0</property>
  <property name="mute_on_pause">1</property>
  <property name="warp_speed">0.5</property>
  <property name="warp_resource">/home/ryankelln/.cache/kdenlive/proxy/0408cbd72758135322641a2976371d84.mkv</property>
  <property name="mlt_service">timewarp</property>
  <property name="kdenlive:proxy">/home/ryankelln/.cache/kdenlive/proxy/0408cbd72758135322641a2976371d84.mkv</property>
  <property name="kdenlive:originalurl">content/footage/Lake, sunset - birds flying to the camera - gopro (1080p)-lhgGDBMz3II.mp4</property>
  <property name="set.test_audio">1</property>
  <property name="set.test_image">0</property>
  <property name="kdenlive:id">59</property>
  <property name="warp_pitch">0</property>
  <property name="meta.media.frame_rate_num">30000</property>
  <property name="meta.media.frame_rate_den">1001</property>
  <property name="meta.media.colorspace">601</property>
  <property name="meta.media.color_trc">2</property>
  <property name="meta.media.width">640</property>
  <property name="meta.media.height">360</property>
  <property name="meta.media.color_range">full</property>
  <property name="meta.media.top_field_first">0</property>
  <property name="meta.media.progressive">1</property>
 </producer>
 <producer id="producer131" in="00:00:00.000" out="00:00:18.500">
  <property name="length">556</property>
  <property name="eof">pause</property>
  <property name="resource">3.000000:/home/ryankelln/.cache/kdenlive/proxy/0408cbd72758135322641a2976371d84.mkv</property>
  <property name="aspect_ratio">1</property>
  <property name="meta.media.nb_streams">2</property>
  <property name="meta.media.0.stream.type">video</property>
  <property name="meta.media.0.stream.frame_rate">29.97</property>
  <property name="meta.media.0.stream.sample_aspect_ratio">1</property>
  <property name="meta.media.0.codec.width">640</property>
  <property name="meta.media.0.codec.height">360</property>
  <property name="meta.media.0.codec.rotate">0</property>
  <property name="meta.media.0.codec.frame_rate">1000</property>
  <property name="meta.media.0.codec.pix_fmt">yuvj420p</property>
  <property name="meta.media.0.codec.sample_aspect_ratio">1</property>
  <property name="meta.media.0.codec.colorspace">601</property>
  <property name="meta.media.0.codec.name">mjpeg</property>
  <property name="meta.media.0.codec.long_name">MJPEG (Motion JPEG)</property>
  <property name="meta.media.0.codec.bit_rate">0</property>
  <property name="meta.attr.0.stream.HANDLER_NAME.markup">VideoHandler</property>
  <property name="meta.attr.0.stream.ENCODER.markup">Lavc58.91.100 mjpeg</property>
  <property name="meta.attr.0.stream.DURATION.markup">00:00:55.555000000</property>
  <property name="meta.media.1.stream.type">audio</property>
  <property name="meta.media.1.codec.sample_fmt">s16</property>
  <property name="meta.media.1.codec.sample_rate">44100</property>
  <property name="meta.media.1.codec.channels">2</property>
  <property name="meta.media.1.codec.name">pcm_s16le</property>
  <property name="meta.media.1.codec.long_name">PCM signed 16-bit little-endian</property>
  <property name="meta.media.1.codec.bit_rate">1411200</property>
  <property name="meta.attr.1.stream.HANDLER_NAME.markup">SoundHandler</property>
  <property name="meta.attr.1.stream.ENCODER.markup">Lavc58.91.100 pcm_s16le</property>
  <property name="meta.attr.1.stream.DURATION.markup">00:00:55.612000000</property>
  <property name="meta.attr.COMPATIBLE_BRANDS.markup">isomiso2avc1mp41</property>
  <property name="meta.attr.MAJOR_BRAND.markup">isom</property>
  <property name="meta.attr.MINOR_VERSION.markup">512</property>
  <property name="meta.attr.ENCODER.markup">Lavf58.45.100</property>
  <property name="seekable">1</property>
  <property name="meta.media.sample_aspect_num">1</property>
  <property name="meta.media.sample_aspect_den">1</property>
  <property name="audio_index">1</property>
  <property name="video_index">0</property>
  <property name="mute_on_pause">1</property>
  <property name="warp_speed">3</property>
  <property name="warp_resource">/home/ryankelln/.cache/kdenlive/proxy/0408cbd72758135322641a2976371d84.mkv</property>
  <property name="mlt_service">timewarp</property>
  <property name="kdenlive:proxy">/home/ryankelln/.cache/kdenlive/proxy/0408cbd72758135322641a2976371d84.mkv</property>
  <property name="kdenlive:originalurl">content/footage/Lake, sunset - birds flying to the camera - gopro (1080p)-lhgGDBMz3II.mp4</property>
  <property name="set.test_audio">1</property>
  <property name="set.test_image">0</property>
  <property name="kdenlive:id">59</property>
  <property name="warp_pitch">0</property>
  <property name="meta.media.frame_rate_num">30000</property>
  <property name="meta.media.frame_rate_den">1001</property>
  <property name="meta.media.colorspace">601</property>
  <property name="meta.media.color_trc">2</property>
  <property name="meta.media.width">640</property>
  <property name="meta.media.height">360</property>
  <property name="meta.media.color_range">full</property>
  <property name="meta.media.top_field_first">0</property>
  <property name="meta.media.progressive">1</property>
 </producer>
 <producer id="producer132" in="00:00:00.000" out="00:01:51.200">
  <property name="length">3336</property>
  <property name="eof">pause</property>
  <property name="resource">0.500000:/home/ryankelln/.cache/kdenlive/proxy/0408cbd72758135322641a2976371d84.mkv</property>
  <property name="aspect_ratio">1</property>
  <property name="meta.media.nb_streams">2</property>
  <property name="meta.media.0.stream.type">video</property>
  <property name="meta.media.0.stream.frame_rate">29.97</property>
  <property name="meta.media.0.stream.sample_aspect_ratio">1</property>
  <property name="meta.media.0.codec.width">640</property>
  <property name="meta.media.0.codec.height">360</property>
  <property name="meta.media.0.codec.rotate">0</property>
  <property name="meta.media.0.codec.frame_rate">1000</property>
  <property name="meta.media.0.codec.pix_fmt">yuvj420p</property>
  <property name="meta.media.0.codec.sample_aspect_ratio">1</property>
  <property name="meta.media.0.codec.colorspace">601</property>
  <property name="meta.media.0.codec.name">mjpeg</property>
  <property name="meta.media.0.codec.long_name">MJPEG (Motion JPEG)</property>
  <property name="meta.media.0.codec.bit_rate">0</property>
  <property name="meta.attr.0.stream.HANDLER_NAME.markup">VideoHandler</property>
  <property name="meta.attr.0.stream.ENCODER.markup">Lavc58.91.100 mjpeg</property>
  <property name="meta.attr.0.stream.DURATION.markup">00:00:55.555000000</property>
  <property name="meta.media.1.stream.type">audio</property>
  <property name="meta.media.1.codec.sample_fmt">s16</property>
  <property name="meta.media.1.codec.sample_rate">44100</property>
  <property name="meta.media.1.codec.channels">2</property>
  <property name="meta.media.1.codec.name">pcm_s16le</property>
  <property name="meta.media.1.codec.long_name">PCM signed 16-bit little-endian</property>
  <property name="meta.media.1.codec.bit_rate">1411200</property>
  <property name="meta.attr.1.stream.HANDLER_NAME.markup">SoundHandler</property>
  <property name="meta.attr.1.stream.ENCODER.markup">Lavc58.91.100 pcm_s16le</property>
  <property name="meta.attr.1.stream.DURATION.markup">00:00:55.612000000</property>
  <property name="meta.attr.COMPATIBLE_BRANDS.markup">isomiso2avc1mp41</property>
  <property name="meta.attr.MAJOR_BRAND.markup">isom</property>
  <property name="meta.attr.MINOR_VERSION.markup">512</property>
  <property name="meta.attr.ENCODER.markup">Lavf58.45.100</property>
  <property name="seekable">1</property>
  <property name="meta.media.sample_aspect_num">1</property>
  <property name="meta.media.sample_aspect_den">1</property>
  <property name="audio_index">1</property>
  <property name="video_index">0</property>
  <property name="mute_on_pause">1</property>
  <property name="warp_speed">0.5</property>
  <property name="warp_resource">/home/ryankelln/.cache/kdenlive/proxy/0408cbd72758135322641a2976371d84.mkv</property>
  <property name="mlt_service">timewarp</property>
  <property name="kdenlive:proxy">/home/ryankelln/.cache/kdenlive/proxy/0408cbd72758135322641a2976371d84.mkv</property>
  <property name="kdenlive:originalurl">content/footage/Lake, sunset - birds flying to the camera - gopro (1080p)-lhgGDBMz3II.mp4</property>
  <property name="set.test_audio">1</property>
  <property name="set.test_image">0</property>
  <property name="kdenlive:id">59</property>
  <property name="warp_pitch">0</property>
  <property name="meta.media.frame_rate_num">30000</property>
  <property name="meta.media.frame_rate_den">1001</property>
  <property name="meta.media.colorspace">601</property>
  <property name="meta.media.color_trc">2</property>
  <property name="meta.media.width">640</property>
  <property name="meta.media.height">360</property>
  <property name="meta.media.color_range">full</property>
  <property name="meta.media.top_field_first">0</property>
  <property name="meta.media.progressive">1</property>
 </producer>
 <producer id="producer133" in="00:00:00.000" out="00:00:18.500">
  <property name="length">556</property>
  <property name="eof">pause</property>
  <property name="resource">3.000000:/home/ryankelln/.cache/kdenlive/proxy/0408cbd72758135322641a2976371d84.mkv</property>
  <property name="aspect_ratio">1</property>
  <property name="meta.media.nb_streams">2</property>
  <property name="meta.media.0.stream.type">video</property>
  <property name="meta.media.0.stream.frame_rate">29.97</property>
  <property name="meta.media.0.stream.sample_aspect_ratio">1</property>
  <property name="meta.media.0.codec.width">640</property>
  <property name="meta.media.0.codec.height">360</property>
  <property name="meta.media.0.codec.rotate">0</property>
  <property name="meta.media.0.codec.frame_rate">1000</property>
  <property name="meta.media.0.codec.pix_fmt">yuvj420p</property>
  <property name="meta.media.0.codec.sample_aspect_ratio">1</property>
  <property name="meta.media.0.codec.colorspace">601</property>
  <property name="meta.media.0.codec.name">mjpeg</property>
  <property name="meta.media.0.codec.long_name">MJPEG (Motion JPEG)</property>
  <property name="meta.media.0.codec.bit_rate">0</property>
  <property name="meta.attr.0.stream.HANDLER_NAME.markup">VideoHandler</property>
  <property name="meta.attr.0.stream.ENCODER.markup">Lavc58.91.100 mjpeg</property>
  <property name="meta.attr.0.stream.DURATION.markup">00:00:55.555000000</property>
  <property name="meta.media.1.stream.type">audio</property>
  <property name="meta.media.1.codec.sample_fmt">s16</property>
  <property name="meta.media.1.codec.sample_rate">44100</property>
  <property name="meta.media.1.codec.channels">2</property>
  <property name="meta.media.1.codec.name">pcm_s16le</property>
  <property name="meta.media.1.codec.long_name">PCM signed 16-bit little-endian</property>
  <property name="meta.media.1.codec.bit_rate">1411200</property>
  <property name="meta.attr.1.stream.HANDLER_NAME.markup">SoundHandler</property>
  <property name="meta.attr.1.stream.ENCODER.markup">Lavc58.91.100 pcm_s16le</property>
  <property name="meta.attr.1.stream.DURATION.markup">00:00:55.612000000</property>
  <property name="meta.attr.COMPATIBLE_BRANDS.markup">isomiso2avc1mp41</property>
  <property name="meta.attr.MAJOR_BRAND.markup">isom</property>
  <property name="meta.attr.MINOR_VERSION.markup">512</property>
  <property name="meta.attr.ENCODER.markup">Lavf58.45.100</property>
  <property name="seekable">1</property>
  <property name="meta.media.sample_aspect_num">1</property>
  <property name="meta.media.sample_aspect_den">1</property>
  <property name="audio_index">1</property>
  <property name="video_index">0</property>
  <property name="mute_on_pause">1</property>
  <property name="warp_speed">3</property>
  <property name="warp_resource">/home/ryankelln/.cache/kdenlive/proxy/0408cbd72758135322641a2976371d84.mkv</property>
  <property name="mlt_service">timewarp</property>
  <property name="kdenlive:proxy">/home/ryankelln/.cache/kdenlive/proxy/0408cbd72758135322641a2976371d84.mkv</property>
  <property name="kdenlive:originalurl">content/footage/Lake, sunset - birds flying to the camera - gopro (1080p)-lhgGDBMz3II.mp4</property>
  <property name="set.test_audio">1</property>
  <property name="set.test_image">0</property>
  <property name="kdenlive:id">59</property>
  <property name="warp_pitch">0</property>
  <property name="meta.media.frame_rate_num">30000</property>
  <property name="meta.media.frame_rate_den">1001</property>
  <property name="meta.media.colorspace">601</property>
  <property name="meta.media.color_trc">2</property>
  <property name="meta.media.width">640</property>
  <property name="meta.media.height">360</property>
  <property name="meta.media.color_range">full</property>
  <property name="meta.media.top_field_first">0</property>
  <property name="meta.media.progressive">1</property>
 </producer>
 <producer id="producer134" in="00:00:00.000" out="00:00:27.767">
  <property name="length">834</property>
  <property name="eof">pause</property>
  <property name="resource">-2.000000:/home/ryankelln/.cache/kdenlive/proxy/0408cbd72758135322641a2976371d84.mkv</property>
  <property name="aspect_ratio">1</property>
  <property name="meta.media.nb_streams">2</property>
  <property name="meta.media.0.stream.type">video</property>
  <property name="meta.media.0.stream.frame_rate">29.97</property>
  <property name="meta.media.0.stream.sample_aspect_ratio">1</property>
  <property name="meta.media.0.codec.width">640</property>
  <property name="meta.media.0.codec.height">360</property>
  <property name="meta.media.0.codec.rotate">0</property>
  <property name="meta.media.0.codec.frame_rate">1000</property>
  <property name="meta.media.0.codec.pix_fmt">yuvj420p</property>
  <property name="meta.media.0.codec.sample_aspect_ratio">1</property>
  <property name="meta.media.0.codec.colorspace">601</property>
  <property name="meta.media.0.codec.name">mjpeg</property>
  <property name="meta.media.0.codec.long_name">MJPEG (Motion JPEG)</property>
  <property name="meta.media.0.codec.bit_rate">0</property>
  <property name="meta.attr.0.stream.HANDLER_NAME.markup">VideoHandler</property>
  <property name="meta.attr.0.stream.ENCODER.markup">Lavc58.91.100 mjpeg</property>
  <property name="meta.attr.0.stream.DURATION.markup">00:00:55.555000000</property>
  <property name="meta.media.1.stream.type">audio</property>
  <property name="meta.media.1.codec.sample_fmt">s16</property>
  <property name="meta.media.1.codec.sample_rate">44100</property>
  <property name="meta.media.1.codec.channels">2</property>
  <property name="meta.media.1.codec.name">pcm_s16le</property>
  <property name="meta.media.1.codec.long_name">PCM signed 16-bit little-endian</property>
  <property name="meta.media.1.codec.bit_rate">1411200</property>
  <property name="meta.attr.1.stream.HANDLER_NAME.markup">SoundHandler</property>
  <property name="meta.attr.1.stream.ENCODER.markup">Lavc58.91.100 pcm_s16le</property>
  <property name="meta.attr.1.stream.DURATION.markup">00:00:55.612000000</property>
  <property name="meta.attr.COMPATIBLE_BRANDS.markup">isomiso2avc1mp41</property>
  <property name="meta.attr.MAJOR_BRAND.markup">isom</property>
  <property name="meta.attr.MINOR_VERSION.markup">512</property>
  <property name="meta.attr.ENCODER.markup">Lavf58.45.100</property>
  <property name="seekable">1</property>
  <property name="meta.media.sample_aspect_num">1</property>
  <property name="meta.media.sample_aspect_den">1</property>
  <property name="audio_index">1</property>
  <property name="video_index">0</property>
  <property name="mute_on_pause">1</property>
  <property name="warp_speed">-2</property>
  <property name="warp_resource">/home/ryankelln/.cache/kdenlive/proxy/0408cbd72758135322641a2976371d84.mkv</property>
  <property name="mlt_service">timewarp</property>
  <property name="kdenlive:proxy">/home/ryankelln/.cache/kdenlive/proxy/0408cbd72758135322641a2976371d84.mkv</property>
  <property name="kdenlive:originalurl">content/footage/Lake, sunset - birds flying to the camera - gopro (1080p)-lhgGDBMz3II.mp4</property>
  <property name="set.test_audio">1</property>
  <property name="set.test_image">0</property>
  <property name="kdenlive:id">59</property>
  <property name="warp_pitch">0</property>
  <property name="meta.media.frame_rate_num">30000</property>
  <property name="meta.media.frame_rate_den">1001</property>
  <property name="meta.media.colorspace">601</property>
  <property name="meta.media.color_trc">2</property>
  <property name="meta.media.width">640</property>
  <property name="meta.media.height">360</property>
  <property name="meta.media.color_range">full</property>
  <property name="meta.media.top_field_first">0</property>
  <property name="meta.media.progressive">1</property>
 </producer>
 <producer id="producer135" in="00:00:00.000" out="00:00:51.700">
  <property name="length">1552</property>
  <property name="eof">pause</property>
  <property name="resource">1.075000:/home/ryankelln/.cache/kdenlive/proxy/0408cbd72758135322641a2976371d84.mkv</property>
  <property name="aspect_ratio">1</property>
  <property name="meta.media.nb_streams">2</property>
  <property name="meta.media.0.stream.type">video</property>
  <property name="meta.media.0.stream.frame_rate">29.97</property>
  <property name="meta.media.0.stream.sample_aspect_ratio">1</property>
  <property name="meta.media.0.codec.width">640</property>
  <property name="meta.media.0.codec.height">360</property>
  <property name="meta.media.0.codec.rotate">0</property>
  <property name="meta.media.0.codec.frame_rate">1000</property>
  <property name="meta.media.0.codec.pix_fmt">yuvj420p</property>
  <property name="meta.media.0.codec.sample_aspect_ratio">1</property>
  <property name="meta.media.0.codec.colorspace">601</property>
  <property name="meta.media.0.codec.name">mjpeg</property>
  <property name="meta.media.0.codec.long_name">MJPEG (Motion JPEG)</property>
  <property name="meta.media.0.codec.bit_rate">0</property>
  <property name="meta.attr.0.stream.HANDLER_NAME.markup">VideoHandler</property>
  <property name="meta.attr.0.stream.ENCODER.markup">Lavc58.91.100 mjpeg</property>
  <property name="meta.attr.0.stream.DURATION.markup">00:00:55.555000000</property>
  <property name="meta.media.1.stream.type">audio</property>
  <property name="meta.media.1.codec.sample_fmt">s16</property>
  <property name="meta.media.1.codec.sample_rate">44100</property>
  <property name="meta.media.1.codec.channels">2</property>
  <property name="meta.media.1.codec.name">pcm_s16le</property>
  <property name="meta.media.1.codec.long_name">PCM signed 16-bit little-endian</property>
  <property name="meta.media.1.codec.bit_rate">1411200</property>
  <property name="meta.attr.1.stream.HANDLER_NAME.markup">SoundHandler</property>
  <property name="meta.attr.1.stream.ENCODER.markup">Lavc58.91.100 pcm_s16le</property>
  <property name="meta.attr.1.stream.DURATION.markup">00:00:55.612000000</property>
  <property name="meta.attr.COMPATIBLE_BRANDS.markup">isomiso2avc1mp41</property>
  <property name="meta.attr.MAJOR_BRAND.markup">isom</property>
  <property name="meta.attr.MINOR_VERSION.markup">512</property>
  <property name="meta.attr.ENCODER.markup">Lavf58.45.100</property>
  <property name="seekable">1</property>
  <property name="meta.media.sample_aspect_num">1</property>
  <property name="meta.media.sample_aspect_den">1</property>
  <property name="audio_index">1</property>
  <property name="video_index">0</property>
  <property name="mute_on_pause">1</property>
  <property name="warp_speed">1.075</property>
  <property name="warp_resource">/home/ryankelln/.cache/kdenlive/proxy/0408cbd72758135322641a2976371d84.mkv</property>
  <property name="mlt_service">timewarp</property>
  <property name="kdenlive:proxy">/home/ryankelln/.cache/kdenlive/proxy/0408cbd72758135322641a2976371d84.mkv</property>
  <property name="kdenlive:originalurl">content/footage/Lake, sunset - birds flying to the camera - gopro (1080p)-lhgGDBMz3II.mp4</property>
  <property name="set.test_audio">1</property>
  <property name="set.test_image">0</property>
  <property name="kdenlive:id">59</property>
  <property name="warp_pitch">0</property>
  <property name="meta.media.frame_rate_num">30000</property>
  <property name="meta.media.frame_rate_den">1001</property>
  <property name="meta.media.colorspace">601</property>
  <property name="meta.media.color_trc">2</property>
  <property name="meta.media.width">640</property>
  <property name="meta.media.height">360</property>
  <property name="meta.media.color_range">full</property>
  <property name="meta.media.top_field_first">0</property>
  <property name="meta.media.progressive">1</property>
 </producer>
 <producer id="producer136" in="00:00:00.000" out="00:01:09.467">
  <property name="length">2085</property>
  <property name="eof">pause</property>
  <property name="resource">0.800000:/home/ryankelln/.cache/kdenlive/proxy/0408cbd72758135322641a2976371d84.mkv</property>
  <property name="aspect_ratio">1</property>
  <property name="meta.media.nb_streams">2</property>
  <property name="meta.media.0.stream.type">video</property>
  <property name="meta.media.0.stream.frame_rate">29.97</property>
  <property name="meta.media.0.stream.sample_aspect_ratio">1</property>
  <property name="meta.media.0.codec.width">640</property>
  <property name="meta.media.0.codec.height">360</property>
  <property name="meta.media.0.codec.rotate">0</property>
  <property name="meta.media.0.codec.frame_rate">1000</property>
  <property name="meta.media.0.codec.pix_fmt">yuvj420p</property>
  <property name="meta.media.0.codec.sample_aspect_ratio">1</property>
  <property name="meta.media.0.codec.colorspace">601</property>
  <property name="meta.media.0.codec.name">mjpeg</property>
  <property name="meta.media.0.codec.long_name">MJPEG (Motion JPEG)</property>
  <property name="meta.media.0.codec.bit_rate">0</property>
  <property name="meta.attr.0.stream.HANDLER_NAME.markup">VideoHandler</property>
  <property name="meta.attr.0.stream.ENCODER.markup">Lavc58.91.100 mjpeg</property>
  <property name="meta.attr.0.stream.DURATION.markup">00:00:55.555000000</property>
  <property name="meta.media.1.stream.type">audio</property>
  <property name="meta.media.1.codec.sample_fmt">s16</property>
  <property name="meta.media.1.codec.sample_rate">44100</property>
  <property name="meta.media.1.codec.channels">2</property>
  <property name="meta.media.1.codec.name">pcm_s16le</property>
  <property name="meta.media.1.codec.long_name">PCM signed 16-bit little-endian</property>
  <property name="meta.media.1.codec.bit_rate">1411200</property>
  <property name="meta.attr.1.stream.HANDLER_NAME.markup">SoundHandler</property>
  <property name="meta.attr.1.stream.ENCODER.markup">Lavc58.91.100 pcm_s16le</property>
  <property name="meta.attr.1.stream.DURATION.markup">00:00:55.612000000</property>
  <property name="meta.attr.COMPATIBLE_BRANDS.markup">isomiso2avc1mp41</property>
  <property name="meta.attr.MAJOR_BRAND.markup">isom</property>
  <property name="meta.attr.MINOR_VERSION.markup">512</property>
  <property name="meta.attr.ENCODER.markup">Lavf58.45.100</property>
  <property name="seekable">1</property>
  <property name="meta.media.sample_aspect_num">1</property>
  <property name="meta.media.sample_aspect_den">1</property>
  <property name="audio_index">1</property>
  <property name="video_index">0</property>
  <property name="mute_on_pause">1</property>
  <property name="warp_speed">0.8</property>
  <property name="warp_resource">/home/ryankelln/.cache/kdenlive/proxy/0408cbd72758135322641a2976371d84.mkv</property>
  <property name="mlt_service">timewarp</property>
  <property name="kdenlive:proxy">/home/ryankelln/.cache/kdenlive/proxy/0408cbd72758135322641a2976371d84.mkv</property>
  <property name="kdenlive:originalurl">content/footage/Lake, sunset - birds flying to the camera - gopro (1080p)-lhgGDBMz3II.mp4</property>
  <property name="set.test_audio">1</property>
  <property name="set.test_image">0</property>
  <property name="kdenlive:id">59</property>
  <property name="warp_pitch">0</property>
  <property name="meta.media.frame_rate_num">30000</property>
  <property name="meta.media.frame_rate_den">1001</property>
  <property name="meta.media.colorspace">601</property>
  <property name="meta.media.color_trc">2</property>
  <property name="meta.media.width">640</property>
  <property name="meta.media.height">360</property>
  <property name="meta.media.color_range">full</property>
  <property name="meta.media.top_field_first">0</property>
  <property name="meta.media.progressive">1</property>
 </producer>
 <producer id="producer137" in="00:00:00.000" out="00:00:18.500">
  <property name="length">556</property>
  <property name="eof">pause</property>
  <property name="resource">3.000000:/home/ryankelln/.cache/kdenlive/proxy/0408cbd72758135322641a2976371d84.mkv</property>
  <property name="aspect_ratio">1</property>
  <property name="meta.media.nb_streams">2</property>
  <property name="meta.media.0.stream.type">video</property>
  <property name="meta.media.0.stream.frame_rate">29.97</property>
  <property name="meta.media.0.stream.sample_aspect_ratio">1</property>
  <property name="meta.media.0.codec.width">640</property>
  <property name="meta.media.0.codec.height">360</property>
  <property name="meta.media.0.codec.rotate">0</property>
  <property name="meta.media.0.codec.frame_rate">1000</property>
  <property name="meta.media.0.codec.pix_fmt">yuvj420p</property>
  <property name="meta.media.0.codec.sample_aspect_ratio">1</property>
  <property name="meta.media.0.codec.colorspace">601</property>
  <property name="meta.media.0.codec.name">mjpeg</property>
  <property name="meta.media.0.codec.long_name">MJPEG (Motion JPEG)</property>
  <property name="meta.media.0.codec.bit_rate">0</property>
  <property name="meta.attr.0.stream.HANDLER_NAME.markup">VideoHandler</property>
  <property name="meta.attr.0.stream.ENCODER.markup">Lavc58.91.100 mjpeg</property>
  <property name="meta.attr.0.stream.DURATION.markup">00:00:55.555000000</property>
  <property name="meta.media.1.stream.type">audio</property>
  <property name="meta.media.1.codec.sample_fmt">s16</property>
  <property name="meta.media.1.codec.sample_rate">44100</property>
  <property name="meta.media.1.codec.channels">2</property>
  <property name="meta.media.1.codec.name">pcm_s16le</property>
  <property name="meta.media.1.codec.long_name">PCM signed 16-bit little-endian</property>
  <property name="meta.media.1.codec.bit_rate">1411200</property>
  <property name="meta.attr.1.stream.HANDLER_NAME.markup">SoundHandler</property>
  <property name="meta.attr.1.stream.ENCODER.markup">Lavc58.91.100 pcm_s16le</property>
  <property name="meta.attr.1.stream.DURATION.markup">00:00:55.612000000</property>
  <property name="meta.attr.COMPATIBLE_BRANDS.markup">isomiso2avc1mp41</property>
  <property name="meta.attr.MAJOR_BRAND.markup">isom</property>
  <property name="meta.attr.MINOR_VERSION.markup">512</property>
  <property name="meta.attr.ENCODER.markup">Lavf58.45.100</property>
  <property name="seekable">1</property>
  <property name="meta.media.sample_aspect_num">1</property>
  <property name="meta.media.sample_aspect_den">1</property>
  <property name="audio_index">1</property>
  <property name="video_index">0</property>
  <property name="mute_on_pause">1</property>
  <property name="warp_speed">3</property>
  <property name="warp_resource">/home/ryankelln/.cache/kdenlive/proxy/0408cbd72758135322641a2976371d84.mkv</property>
  <property name="mlt_service">timewarp</property>
  <property name="kdenlive:proxy">/home/ryankelln/.cache/kdenlive/proxy/0408cbd72758135322641a2976371d84.mkv</property>
  <property name="kdenlive:originalurl">content/footage/Lake, sunset - birds flying to the camera - gopro (1080p)-lhgGDBMz3II.mp4</property>
  <property name="set.test_audio">1</property>
  <property name="set.test_image">0</property>
  <property name="kdenlive:id">59</property>
  <property name="warp_pitch">0</property>
  <property name="meta.media.frame_rate_num">30000</property>
  <property name="meta.media.frame_rate_den">1001</property>
  <property name="meta.media.colorspace">601</property>
  <property name="meta.media.color_trc">2</property>
  <property name="meta.media.width">640</property>
  <property name="meta.media.height">360</property>
  <property name="meta.media.color_range">full</property>
  <property name="meta.media.top_field_first">0</property>
  <property name="meta.media.progressive">1</property>
 </producer>
 <producer id="producer138" in="00:00:00.000" out="00:01:51.200">
  <property name="length">3336</property>
  <property name="eof">pause</property>
  <property name="resource">0.500000:/home/ryankelln/.cache/kdenlive/proxy/0408cbd72758135322641a2976371d84.mkv</property>
  <property name="aspect_ratio">1</property>
  <property name="meta.media.nb_streams">2</property>
  <property name="meta.media.0.stream.type">video</property>
  <property name="meta.media.0.stream.frame_rate">29.97</property>
  <property name="meta.media.0.stream.sample_aspect_ratio">1</property>
  <property name="meta.media.0.codec.width">640</property>
  <property name="meta.media.0.codec.height">360</property>
  <property name="meta.media.0.codec.rotate">0</property>
  <property name="meta.media.0.codec.frame_rate">1000</property>
  <property name="meta.media.0.codec.pix_fmt">yuvj420p</property>
  <property name="meta.media.0.codec.sample_aspect_ratio">1</property>
  <property name="meta.media.0.codec.colorspace">601</property>
  <property name="meta.media.0.codec.name">mjpeg</property>
  <property name="meta.media.0.codec.long_name">MJPEG (Motion JPEG)</property>
  <property name="meta.media.0.codec.bit_rate">0</property>
  <property name="meta.attr.0.stream.HANDLER_NAME.markup">VideoHandler</property>
  <property name="meta.attr.0.stream.ENCODER.markup">Lavc58.91.100 mjpeg</property>
  <property name="meta.attr.0.stream.DURATION.markup">00:00:55.555000000</property>
  <property name="meta.media.1.stream.type">audio</property>
  <property name="meta.media.1.codec.sample_fmt">s16</property>
  <property name="meta.media.1.codec.sample_rate">44100</property>
  <property name="meta.media.1.codec.channels">2</property>
  <property name="meta.media.1.codec.name">pcm_s16le</property>
  <property name="meta.media.1.codec.long_name">PCM signed 16-bit little-endian</property>
  <property name="meta.media.1.codec.bit_rate">1411200</property>
  <property name="meta.attr.1.stream.HANDLER_NAME.markup">SoundHandler</property>
  <property name="meta.attr.1.stream.ENCODER.markup">Lavc58.91.100 pcm_s16le</property>
  <property name="meta.attr.1.stream.DURATION.markup">00:00:55.612000000</property>
  <property name="meta.attr.COMPATIBLE_BRANDS.markup">isomiso2avc1mp41</property>
  <property name="meta.attr.MAJOR_BRAND.markup">isom</property>
  <property name="meta.attr.MINOR_VERSION.markup">512</property>
  <property name="meta.attr.ENCODER.markup">Lavf58.45.100</property>
  <property name="seekable">1</property>
  <property name="meta.media.sample_aspect_num">1</property>
  <property name="meta.media.sample_aspect_den">1</property>
  <property name="audio_index">1</property>
  <property name="video_index">0</property>
  <property name="mute_on_pause">1</property>
  <property name="warp_speed">0.5</property>
  <property name="warp_resource">/home/ryankelln/.cache/kdenlive/proxy/0408cbd72758135322641a2976371d84.mkv</property>
  <property name="mlt_service">timewarp</property>
  <property name="kdenlive:proxy">/home/ryankelln/.cache/kdenlive/proxy/0408cbd72758135322641a2976371d84.mkv</property>
  <property name="kdenlive:originalurl">content/footage/Lake, sunset - birds flying to the camera - gopro (1080p)-lhgGDBMz3II.mp4</property>
  <property name="set.test_audio">1</property>
  <property name="set.test_image">0</property>
  <property name="kdenlive:id">59</property>
  <property name="warp_pitch">0</property>
  <property name="meta.media.frame_rate_num">30000</property>
  <property name="meta.media.frame_rate_den">1001</property>
  <property name="meta.media.colorspace">601</property>
  <property name="meta.media.color_trc">2</property>
  <property name="meta.media.width">640</property>
  <property name="meta.media.height">360</property>
  <property name="meta.media.color_range">full</property>
  <property name="meta.media.top_field_first">0</property>
  <property name="meta.media.progressive">1</property>
 </producer>
 <producer id="producer139" in="00:00:00.000" out="00:01:14.100">
  <property name="length">2224</property>
  <property name="eof">pause</property>
  <property name="resource">0.750000:/home/ryankelln/.cache/kdenlive/proxy/0408cbd72758135322641a2976371d84.mkv</property>
  <property name="aspect_ratio">1</property>
  <property name="meta.media.nb_streams">2</property>
  <property name="meta.media.0.stream.type">video</property>
  <property name="meta.media.0.stream.frame_rate">29.97</property>
  <property name="meta.media.0.stream.sample_aspect_ratio">1</property>
  <property name="meta.media.0.codec.width">640</property>
  <property name="meta.media.0.codec.height">360</property>
  <property name="meta.media.0.codec.rotate">0</property>
  <property name="meta.media.0.codec.frame_rate">1000</property>
  <property name="meta.media.0.codec.pix_fmt">yuvj420p</property>
  <property name="meta.media.0.codec.sample_aspect_ratio">1</property>
  <property name="meta.media.0.codec.colorspace">601</property>
  <property name="meta.media.0.codec.name">mjpeg</property>
  <property name="meta.media.0.codec.long_name">MJPEG (Motion JPEG)</property>
  <property name="meta.media.0.codec.bit_rate">0</property>
  <property name="meta.attr.0.stream.HANDLER_NAME.markup">VideoHandler</property>
  <property name="meta.attr.0.stream.ENCODER.markup">Lavc58.91.100 mjpeg</property>
  <property name="meta.attr.0.stream.DURATION.markup">00:00:55.555000000</property>
  <property name="meta.media.1.stream.type">audio</property>
  <property name="meta.media.1.codec.sample_fmt">s16</property>
  <property name="meta.media.1.codec.sample_rate">44100</property>
  <property name="meta.media.1.codec.channels">2</property>
  <property name="meta.media.1.codec.name">pcm_s16le</property>
  <property name="meta.media.1.codec.long_name">PCM signed 16-bit little-endian</property>
  <property name="meta.media.1.codec.bit_rate">1411200</property>
  <property name="meta.attr.1.stream.HANDLER_NAME.markup">SoundHandler</property>
  <property name="meta.attr.1.stream.ENCODER.markup">Lavc58.91.100 pcm_s16le</property>
  <property name="meta.attr.1.stream.DURATION.markup">00:00:55.612000000</property>
  <property name="meta.attr.COMPATIBLE_BRANDS.markup">isomiso2avc1mp41</property>
  <property name="meta.attr.MAJOR_BRAND.markup">isom</property>
  <property name="meta.attr.MINOR_VERSION.markup">512</property>
  <property name="meta.attr.ENCODER.markup">Lavf58.45.100</property>
  <property name="seekable">1</property>
  <property name="meta.media.sample_aspect_num">1</property>
  <property name="meta.media.sample_aspect_den">1</property>
  <property name="audio_index">1</property>
  <property name="video_index">0</property>
  <property name="mute_on_pause">1</property>
  <property name="warp_speed">0.75</property>
  <property name="warp_resource">/home/ryankelln/.cache/kdenlive/proxy/0408cbd72758135322641a2976371d84.mkv</property>
  <property name="mlt_service">timewarp</property>
  <property name="kdenlive:proxy">/home/ryankelln/.cache/kdenlive/proxy/0408cbd72758135322641a2976371d84.mkv</property>
  <property name="kdenlive:originalurl">content/footage/Lake, sunset - birds flying to the camera - gopro (1080p)-lhgGDBMz3II.mp4</property>
  <property name="set.test_audio">1</property>
  <property name="set.test_image">0</property>
  <property name="kdenlive:id">59</property>
  <property name="warp_pitch">0</property>
  <property name="meta.media.frame_rate_num">30000</property>
  <property name="meta.media.frame_rate_den">1001</property>
  <property name="meta.media.colorspace">601</property>
  <property name="meta.media.color_trc">2</property>
  <property name="meta.media.width">640</property>
  <property name="meta.media.height">360</property>
  <property name="meta.media.color_range">full</property>
  <property name="meta.media.top_field_first">0</property>
  <property name="meta.media.progressive">1</property>
 </producer>
 <playlist id="playlist4">
  <blank length="00:00:31.200"/>
  <entry producer="producer105" in="00:00:00.733" out="00:00:02.000">
   <property name="kdenlive:id">50</property>
  </entry>
  <entry producer="producer105" in="00:00:02.033" out="00:00:03.933">
   <property name="kdenlive:id">50</property>
  </entry>
  <entry producer="producer105" in="00:00:03.967" out="00:00:04.700">
   <property name="kdenlive:id">50</property>
  </entry>
  <entry producer="producer105" in="00:00:04.733" out="00:00:05.867">
   <property name="kdenlive:id">50</property>
  </entry>
  <entry producer="producer105" in="00:00:05.900" out="00:00:07.167">
   <property name="kdenlive:id">50</property>
  </entry>
  <entry producer="producer105" in="00:00:07.200" out="00:00:09.600">
   <property name="kdenlive:id">50</property>
   <filter id="filter11">
    <property name="mirror">vertical</property>
    <property name="mlt_service">mirror</property>
    <property name="kdenlive_id">mirror</property>
    <property name="reverse">1</property>
    <property name="kdenlive:collapsed">0</property>
   </filter>
  </entry>
  <entry producer="producer105" in="00:00:09.633" out="00:00:09.733">
   <property name="kdenlive:id">50</property>
  </entry>
  <entry producer="producer106" in="00:00:00.000" out="00:00:10.033">
   <property name="kdenlive:id">51</property>
   <property name="kdenlive:activeeffect">-1</property>
  </entry>
  <entry producer="producer106" in="00:00:10.067" out="00:00:19.633">
   <property name="kdenlive:id">51</property>
   <filter id="filter12">
    <property name="rotate_center">1</property>
    <property name="mlt_service">qtblend</property>
    <property name="kdenlive_id">qtblend</property>
    <property name="rect">00:00:10.067=0 0 1920 1080 1.000000;00:00:10.167=-1519 -1796 5760 3240 1.000000;00:00:11.033=-1238 -1739 5760 3240 1.000000;00:00:12.233=-774 -1035 5760 3240 1.000000;00:00:12.567=-738 -1031 5760 3240 1.000000;00:00:12.733=-734 -1015 5760 3240 1.000000;00:00:12.767=-742 -1015 5760 3240 1.000000;00:00:13.633=-513 -1070 5760 3240 1.000000;00:00:13.867=-468 -1055 5760 3240 1.000000;00:00:14.400=-553 -989 5760 3240 1.000000;00:00:14.833=-578 -651 5760 3240 1.000000;00:00:15.400=-593 -273 5760 3240 1.000000;00:00:15.467=-605 -273 5760 3240 1.000000;00:00:15.933=-468 -241 5760 3240 1.000000;00:00:16.033=-444 -253 5760 3240 1.000000;00:00:16.333=-339 -197 5760 3241 1.000000;00:00:16.400=-319 -188 5760 3240 1.000000;00:00:16.600=-335 -168 5760 3240 1.000000;00:00:16.800=-404 -152 5760 3240 1.000000;00:00:17.000=-504 -136 5760 3240 1.000000;00:00:17.167=-731 -208 5760 3240 1.000000;00:00:17.533=-1148 -398 5760 3240 1.000000;00:00:18.267=-1378 -918 5760 3240 1.000000;00:00:18.967=-1788 -1438 5760 3240 1.000000;00:00:19.633=-1463 -1666 5760 3240 1.000000</property>
    <property name="rotation">00:00:10.067=0;00:00:10.167=0;00:00:11.033=0;00:00:12.233=0;00:00:12.567=0;00:00:12.733=0;00:00:12.767=0;00:00:13.633=0;00:00:13.867=0;00:00:14.400=0;00:00:14.833=0;00:00:15.400=0;00:00:15.467=0;00:00:15.933=0;00:00:16.033=0;00:00:16.333=0;00:00:16.400=0;00:00:16.600=0;00:00:16.800=0;00:00:17.000=0;00:00:17.167=0;00:00:17.533=0;00:00:18.267=0;00:00:18.967=0;00:00:19.633=0</property>
    <property name="compositing">0</property>
    <property name="distort">0</property>
    <property name="kdenlive:collapsed">0</property>
   </filter>
  </entry>
  <blank length="00:00:09.867"/>
  <entry producer="producer107" in="00:00:00.000" out="00:00:21.300">
   <property name="kdenlive:id">81</property>
   <filter id="filter32">
    <property name="rotate_center">1</property>
    <property name="mlt_service">qtblend</property>
    <property name="kdenlive_id">qtblend</property>
    <property name="rect">00:00:00.000=0 0 1920 1080 1.000000;00:00:03.333=-1 -1 1920 1080 1.000000;00:00:15.433|=327 184 1267 712 1.000000;00:00:21.300=327 184 1267 712 1.000000</property>
    <property name="rotation">00:00:00.000=0;00:00:03.333=0;00:00:15.433|=0;00:00:21.300=0</property>
    <property name="compositing">0</property>
    <property name="distort">0</property>
    <property name="kdenlive:collapsed">0</property>
   </filter>
  </entry>
  <entry producer="producer107" in="00:00:21.333" out="00:00:50.600">
   <property name="kdenlive:id">81</property>
   <filter id="filter13">
    <property name="rotate_center">1</property>
    <property name="mlt_service">qtblend</property>
    <property name="kdenlive_id">qtblend</property>
    <property name="rect">00:00:21.333|=327 184 1267 712 1.000000;00:00:50.067|=1 0 1920 1080 1.000000</property>
    <property name="rotation">00:00:21.333|=0;00:00:50.067|=0</property>
    <property name="compositing">0</property>
    <property name="distort">0</property>
    <property name="kdenlive:collapsed">0</property>
   </filter>
  </entry>
  <blank length="00:02:43.400"/>
  <entry producer="producer108" in="00:00:01.167" out="00:00:09.900">
   <property name="kdenlive:id">59</property>
   <property name="kdenlive:activeeffect">0</property>
   <filter id="filter14">
    <property name="version">0.2</property>
    <property name="mlt_service">frei0r.lenscorrection</property>
    <property name="kdenlive_id">frei0r.lenscorrection</property>
    <property name="xcenter">00:00:01.167|=0.5;00:00:05.533=0.5;00:00:05.667=0.4;00:00:05.967|=0.5;00:00:06.167=0.5;00:00:06.300=0.4;00:00:06.633|=0.5;00:00:06.800=0.5;00:00:06.933=0.4;00:00:07.200|=0.5;00:00:07.433=0.5;00:00:07.567=0.4;00:00:07.833|=0.5;00:00:08.767|=0.5;00:00:08.967|=0.5;00:00:09.100|=0.5;00:00:09.300|=0.5;00:00:09.400=0.5;00:00:09.700=0.5;00:00:09.900=0.5</property>
    <property name="ycenter">00:00:01.167|=0.5;00:00:05.533=0.5;00:00:05.667=0.425;00:00:05.967|=0.5;00:00:06.167=0.5;00:00:06.300=0.425;00:00:06.633|=0.5;00:00:06.800=0.5;00:00:06.933=0.425;00:00:07.200|=0.5;00:00:07.433=0.5;00:00:07.567=0.425;00:00:07.833|=0.5;00:00:08.767|=0.5;00:00:08.967|=0.5;00:00:09.100|=0.5;00:00:09.300|=0.5;00:00:09.400=0.5;00:00:09.700=0.5;00:00:09.900=0.5</property>
    <property name="correctionnearcenter">00:00:01.167|=0.5;00:00:05.533=0.5;00:00:05.667=0.5;00:00:05.967|=0.5;00:00:06.167=0.5;00:00:06.300=0.5;00:00:06.633|=0.5;00:00:06.800=0.5;00:00:06.933=0.5;00:00:07.200|=0.5;00:00:07.433=0.5;00:00:07.567=0.5;00:00:07.833|=0.5;00:00:08.767|=0.5;00:00:08.967|=0.5;00:00:09.100|=0.5;00:00:09.300|=0.5;00:00:09.400=0.5;00:00:09.700=0.5;00:00:09.900=0.5</property>
    <property name="correctionnearedges">00:00:01.167|=0.5;00:00:05.533=0.5;00:00:05.667=0.35;00:00:05.967|=0.5;00:00:06.167=0.5;00:00:06.300=0.35;00:00:06.633|=0.5;00:00:06.800=0.5;00:00:06.933=0.35;00:00:07.200|=0.5;00:00:07.433=0.5;00:00:07.567=0.35;00:00:07.833|=0.5;00:00:08.767|=0.4;00:00:08.967|=0.3;00:00:09.100|=0.2;00:00:09.300|=0.25;00:00:09.400=0.1;00:00:09.700=0.3;00:00:09.900=0.5</property>
    <property name="brightness">00:00:01.167|=0;00:00:05.533=0;00:00:05.667=0;00:00:05.967|=0;00:00:06.167=0;00:00:06.300=0;00:00:06.633|=0;00:00:06.800=0;00:00:06.933=0;00:00:07.200|=0;00:00:07.433=0;00:00:07.567=0;00:00:07.833|=0;00:00:08.767|=0;00:00:08.967|=0;00:00:09.100|=0;00:00:09.300|=0;00:00:09.400=0;00:00:09.700=0;00:00:09.900=0</property>
    <property name="kdenlive:collapsed">0</property>
   </filter>
  </entry>
  <entry producer="producer109" in="00:00:08.567" out="00:00:13.467">
   <property name="kdenlive:id">59</property>
  </entry>
  <entry producer="producer110" in="00:00:18.033" out="00:00:22.667">
   <property name="kdenlive:id">59</property>
  </entry>
  <entry producer="producer111" in="00:00:35.567" out="00:00:35.600">
   <property name="kdenlive:id">59</property>
  </entry>
  <entry producer="producer112" in="00:00:35.300" out="00:00:35.533">
   <property name="kdenlive:id">59</property>
  </entry>
  <entry producer="producer113" in="00:00:23.000" out="00:00:23.267">
   <property name="kdenlive:id">59</property>
  </entry>
  <entry producer="producer114" in="00:00:23.333" out="00:00:27.867">
   <property name="kdenlive:id">59</property>
  </entry>
  <entry producer="producer115" in="00:00:29.000" out="00:00:29.167">
   <property name="kdenlive:id">59</property>
  </entry>
  <entry producer="producer116" in="00:00:26.400" out="00:00:26.533">
   <property name="kdenlive:id">59</property>
  </entry>
  <entry producer="producer52" in="00:00:26.633" out="00:00:27.233">
   <property name="kdenlive:id">59</property>
  </entry>
  <entry producer="producer117" in="00:00:09.067" out="00:00:09.200">
   <property name="kdenlive:id">59</property>
  </entry>
  <entry producer="producer118" in="00:00:55.400" out="00:00:55.900">
   <property name="kdenlive:id">59</property>
  </entry>
  <entry producer="producer119" in="00:00:09.300" out="00:00:09.467">
   <property name="kdenlive:id">59</property>
  </entry>
  <entry producer="producer120" in="00:00:57.000" out="00:00:57.400">
   <property name="kdenlive:id">59</property>
  </entry>
  <entry producer="producer121" in="00:00:09.567" out="00:00:09.767">
   <property name="kdenlive:id">59</property>
  </entry>
  <entry producer="producer122" in="00:00:58.800" out="00:00:59.167">
   <property name="kdenlive:id">59</property>
  </entry>
  <entry producer="producer123" in="00:00:09.867" out="00:00:10.033">
   <property name="kdenlive:id">59</property>
  </entry>
  <entry producer="producer52" in="00:00:30.200" out="00:00:30.700">
   <property name="kdenlive:id">59</property>
  </entry>
  <entry producer="producer124" in="00:00:12.467" out="00:00:12.933">
   <property name="kdenlive:id">59</property>
  </entry>
  <entry producer="producer116" in="00:00:29.633" out="00:00:30.133">
   <property name="kdenlive:id">59</property>
  </entry>
  <entry producer="producer125" in="00:00:28.533" out="00:00:28.767">
   <property name="kdenlive:id">59</property>
  </entry>
  <entry producer="producer126" in="00:00:10.167" out="00:00:10.400">
   <property name="kdenlive:id">59</property>
  </entry>
  <entry producer="producer116" in="00:00:32.067" out="00:00:32.133">
   <property name="kdenlive:id">59</property>
  </entry>
  <entry producer="producer116" in="00:00:32.300" out="00:00:32.467">
   <property name="kdenlive:id">59</property>
  </entry>
  <entry producer="producer116" in="00:00:32.633" out="00:00:32.700">
   <property name="kdenlive:id">59</property>
  </entry>
  <entry producer="producer116" in="00:00:32.867" out="00:00:33.233">
   <property name="kdenlive:id">59</property>
  </entry>
  <entry producer="producer127" in="00:00:11.067" out="00:00:11.433">
   <property name="kdenlive:id">59</property>
  </entry>
  <entry producer="producer128" in="00:01:08.800" out="00:01:08.967">
   <property name="kdenlive:id">59</property>
  </entry>
  <entry producer="producer129" in="00:00:11.500" out="00:00:11.900">
   <property name="kdenlive:id">59</property>
  </entry>
  <entry producer="producer130" in="00:01:11.600" out="00:01:11.767">
   <property name="kdenlive:id">59</property>
  </entry>
  <entry producer="producer131" in="00:00:11.967" out="00:00:12.167">
   <property name="kdenlive:id">59</property>
  </entry>
  <entry producer="producer132" in="00:01:12.033" out="00:01:12.333">
   <property name="kdenlive:id">59</property>
  </entry>
  <entry producer="producer133" in="00:00:12.067" out="00:00:12.467">
   <property name="kdenlive:id">59</property>
  </entry>
  <entry producer="producer52" in="00:00:37.500" out="00:00:37.800">
   <property name="kdenlive:id">59</property>
  </entry>
  <entry producer="producer134" in="00:00:08.867" out="00:00:09.067">
   <property name="kdenlive:id">59</property>
  </entry>
  <entry producer="producer135" in="00:00:34.900" out="00:00:36.200">
   <property name="kdenlive:id">59</property>
  </entry>
  <entry producer="producer116" in="00:00:39.067" out="00:00:39.100">
   <property name="kdenlive:id">59</property>
  </entry>
  <entry producer="producer136" in="00:00:49.167" out="00:00:49.733">
   <property name="kdenlive:id">59</property>
  </entry>
  <entry producer="producer81" in="00:00:00.000" out="00:00:01.200">
   <property name="kdenlive:id">112</property>
  </entry>
  <entry producer="producer52" in="00:00:39.933" out="00:00:41.533">
   <property name="kdenlive:id">59</property>
  </entry>
  <entry producer="producer137" in="00:00:13.833" out="00:00:14.833">
   <property name="kdenlive:id">59</property>
  </entry>
  <entry producer="producer138" in="00:01:29.200" out="00:01:29.600">
   <property name="kdenlive:id">59</property>
  </entry>
  <entry producer="producer139" in="00:00:59.733" out="00:01:01.000">
   <property name="kdenlive:id">59</property>
  </entry>
  <entry producer="producer52" in="00:00:45.767" out="00:00:52.367">
   <property name="kdenlive:id">59</property>
   <filter id="filter15" in="00:00:50.100" out="00:00:52.367">
    <property name="start">1</property>
    <property name="mlt_service">brightness</property>
    <property name="kdenlive_id">fade_to_black</property>
    <property name="end">0</property>
    <property name="alpha">-1</property>
    <property name="kdenlive:collapsed">0</property>
   </filter>
  </entry>
 </playlist>
 <playlist id="playlist5"/>
 <tractor id="tractor2" in="00:00:00.000" out="00:05:30.467">
  <property name="kdenlive:trackheight">69</property>
  <property name="kdenlive:timeline_active">1</property>
  <property name="kdenlive:collapsed">0</property>
  <property name="kdenlive:track_name">background</property>
  <property name="kdenlive:thumbs_format"/>
  <property name="kdenlive:audio_rec"/>
  <track hide="audio" producer="playlist4"/>
  <track producer="playlist5"/>
 </tractor>
 <producer id="producer140" in="00:00:00.000" out="00:00:06.800">
  <property name="length">205</property>
  <property name="eof">pause</property>
  <property name="resource">/home/ryankelln/.cache/kdenlive/proxy/a96b92c1bace94bc3ed2462f08da2e88.mkv</property>
  <property name="audio_index">1</property>
  <property name="video_index">0</property>
  <property name="mute_on_pause">0</property>
  <property name="mlt_service">avformat-novalidate</property>
  <property name="seekable">1</property>
  <property name="aspect_ratio">1</property>
  <property name="kdenlive:clipname">Bird Flying - Free Stock Creative Commons Video-FrRXDYUatf4.mp4</property>
  <property name="kdenlive:folderid">55</property>
  <property name="kdenlive:id">48</property>
  <property name="kdenlive:file_size">1563626</property>
  <property name="kdenlive:file_hash">a96b92c1bace94bc3ed2462f08da2e88</property>
  <property name="kdenlive:proxy">/home/ryankelln/.cache/kdenlive/proxy/a96b92c1bace94bc3ed2462f08da2e88.mkv</property>
  <property name="kdenlive:originalurl">content/footage/Bird Flying - Free Stock Creative Commons Video-FrRXDYUatf4.mp4</property>
  <property name="kdenlive:original.mlt_type">producer</property>
  <property name="kdenlive:original.in">0</property>
  <property name="kdenlive:original.out">204</property>
  <property name="kdenlive:original.length">205</property>
  <property name="kdenlive:original.eof">pause</property>
  <property name="kdenlive:original.resource">content/footage/Bird Flying - Free Stock Creative Commons Video-FrRXDYUatf4.mp4</property>
  <property name="kdenlive:original.meta.media.nb_streams">2</property>
  <property name="kdenlive:original.meta.media.0.stream.type">video</property>
  <property name="kdenlive:original.meta.media.0.stream.frame_rate">60.233</property>
  <property name="kdenlive:original.meta.media.0.stream.sample_aspect_ratio">1</property>
  <property name="kdenlive:original.meta.media.0.codec.width">1920</property>
  <property name="kdenlive:original.meta.media.0.codec.height">1080</property>
  <property name="kdenlive:original.meta.media.0.codec.rotate">0</property>
  <property name="kdenlive:original.meta.media.0.codec.frame_rate">59.9401</property>
  <property name="kdenlive:original.meta.media.0.codec.pix_fmt">yuv420p</property>
  <property name="kdenlive:original.meta.media.0.codec.sample_aspect_ratio">1</property>
  <property name="kdenlive:original.meta.media.0.codec.colorspace">709</property>
  <property name="kdenlive:original.meta.media.0.codec.color_trc">1</property>
  <property name="kdenlive:original.meta.media.0.codec.name">h264</property>
  <property name="kdenlive:original.meta.media.0.codec.long_name">H.264 / AVC / MPEG-4 AVC / MPEG-4 part 10</property>
  <property name="kdenlive:original.meta.media.0.codec.bit_rate">1702801</property>
  <property name="kdenlive:original.meta.attr.0.stream.handler_name.markup">ISO Media file produced by Google Inc. Created on: 05/11/2021.</property>
  <property name="kdenlive:original.meta.media.1.stream.type">audio</property>
  <property name="kdenlive:original.meta.media.1.codec.sample_fmt">fltp</property>
  <property name="kdenlive:original.meta.media.1.codec.sample_rate">44100</property>
  <property name="kdenlive:original.meta.media.1.codec.channels">2</property>
  <property name="kdenlive:original.meta.media.1.codec.name">aac</property>
  <property name="kdenlive:original.meta.media.1.codec.long_name">AAC (Advanced Audio Coding)</property>
  <property name="kdenlive:original.meta.media.1.codec.bit_rate">127999</property>
  <property name="kdenlive:original.meta.attr.1.stream.handler_name.markup">ISO Media file produced by Google Inc. Created on: 11/30/2018.</property>
  <property name="kdenlive:original.meta.attr.major_brand.markup">isom</property>
  <property name="kdenlive:original.meta.attr.minor_version.markup">512</property>
  <property name="kdenlive:original.meta.attr.compatible_brands.markup">isomiso2avc1mp41</property>
  <property name="kdenlive:original.meta.attr.encoder.markup">Lavf58.45.100</property>
  <property name="kdenlive:original.seekable">1</property>
  <property name="kdenlive:original.width">1920</property>
  <property name="kdenlive:original.height">1080</property>
  <property name="kdenlive:original.meta.media.sample_aspect_num">1</property>
  <property name="kdenlive:original.meta.media.sample_aspect_den">1</property>
  <property name="kdenlive:original.aspect_ratio">1</property>
  <property name="kdenlive:original.audio_index">1</property>
  <property name="kdenlive:original.video_index">0</property>
  <property name="kdenlive:original.mute_on_pause">0</property>
  <property name="kdenlive:original.mlt_service">avformat-novalidate</property>
  <property name="kdenlive:original.kdenlive:folderid">55</property>
  <property name="kdenlive:original.meta.media.frame_rate_num">1360000</property>
  <property name="kdenlive:original.meta.media.frame_rate_den">22579</property>
  <property name="kdenlive:original.meta.media.colorspace">709</property>
  <property name="kdenlive:original.meta.media.color_trc">1</property>
  <property name="kdenlive:original.meta.media.width">1920</property>
  <property name="kdenlive:original.meta.media.height">1080</property>
  <property name="kdenlive:original.meta.media.color_range">mpeg</property>
  <property name="kdenlive:original.kdenlive:id">58</property>
  <property name="kdenlive:original.kdenlive:file_size">1563626</property>
  <property name="kdenlive:original.kdenlive:file_hash">a96b92c1bace94bc3ed2462f08da2e88</property>
  <property name="kdenlive:original.backup">1</property>
  <property name="global_feed">1</property>
  <property name="kdenlive:active_streams">-1</property>
  <property name="xml">was here</property>
  <property name="meta.media.nb_streams">2</property>
  <property name="meta.media.0.stream.type">video</property>
  <property name="meta.media.0.stream.frame_rate">59.9401</property>
  <property name="meta.media.0.stream.sample_aspect_ratio">1</property>
  <property name="meta.media.0.codec.width">640</property>
  <property name="meta.media.0.codec.height">360</property>
  <property name="meta.media.0.codec.rotate">0</property>
  <property name="meta.media.0.codec.frame_rate">1000</property>
  <property name="meta.media.0.codec.pix_fmt">yuvj420p</property>
  <property name="meta.media.0.codec.sample_aspect_ratio">1</property>
  <property name="meta.media.0.codec.colorspace">601</property>
  <property name="meta.media.0.codec.name">mjpeg</property>
  <property name="meta.media.0.codec.long_name">MJPEG (Motion JPEG)</property>
  <property name="meta.media.0.codec.bit_rate">0</property>
  <property name="meta.attr.0.stream.HANDLER_NAME.markup">ISO Media file produced by Google Inc. Created on: 05/11/2021.</property>
  <property name="meta.attr.0.stream.ENCODER.markup">Lavc58.91.100 mjpeg</property>
  <property name="meta.attr.0.stream.DURATION.markup">00:00:06.790000000</property>
  <property name="meta.media.1.stream.type">audio</property>
  <property name="meta.media.1.codec.sample_fmt">s16</property>
  <property name="meta.media.1.codec.sample_rate">44100</property>
  <property name="meta.media.1.codec.channels">2</property>
  <property name="meta.media.1.codec.name">pcm_s16le</property>
  <property name="meta.media.1.codec.long_name">PCM signed 16-bit little-endian</property>
  <property name="meta.media.1.codec.bit_rate">1411200</property>
  <property name="meta.attr.1.stream.HANDLER_NAME.markup">ISO Media file produced by Google Inc. Created on: 11/30/2018.</property>
  <property name="meta.attr.1.stream.ENCODER.markup">Lavc58.91.100 pcm_s16le</property>
  <property name="meta.attr.1.stream.DURATION.markup">00:00:06.826000000</property>
  <property name="meta.attr.COMPATIBLE_BRANDS.markup">isomiso2avc1mp41</property>
  <property name="meta.attr.MAJOR_BRAND.markup">isom</property>
  <property name="meta.attr.MINOR_VERSION.markup">512</property>
  <property name="meta.attr.ENCODER.markup">Lavf58.45.100</property>
  <property name="meta.media.sample_aspect_num">1</property>
  <property name="meta.media.sample_aspect_den">1</property>
  <property name="meta.media.frame_rate_num">19001</property>
  <property name="meta.media.frame_rate_den">317</property>
  <property name="meta.media.colorspace">601</property>
  <property name="meta.media.color_trc">2</property>
  <property name="meta.media.width">640</property>
  <property name="meta.media.height">360</property>
  <property name="meta.media.color_range">full</property>
  <property name="meta.media.top_field_first">0</property>
  <property name="meta.media.progressive">1</property>
  <property name="set.test_audio">1</property>
  <property name="set.test_image">0</property>
 </producer>
 <producer id="producer141" in="00:00:00.000" out="00:00:06.800">
  <property name="length">205</property>
  <property name="eof">pause</property>
  <property name="resource">-1.000000:/home/ryankelln/.cache/kdenlive/proxy/a96b92c1bace94bc3ed2462f08da2e88.mkv</property>
  <property name="aspect_ratio">1</property>
  <property name="meta.media.nb_streams">2</property>
  <property name="meta.media.0.stream.type">video</property>
  <property name="meta.media.0.stream.frame_rate">59.9401</property>
  <property name="meta.media.0.stream.sample_aspect_ratio">1</property>
  <property name="meta.media.0.codec.width">640</property>
  <property name="meta.media.0.codec.height">360</property>
  <property name="meta.media.0.codec.rotate">0</property>
  <property name="meta.media.0.codec.frame_rate">1000</property>
  <property name="meta.media.0.codec.pix_fmt">yuvj420p</property>
  <property name="meta.media.0.codec.sample_aspect_ratio">1</property>
  <property name="meta.media.0.codec.colorspace">601</property>
  <property name="meta.media.0.codec.name">mjpeg</property>
  <property name="meta.media.0.codec.long_name">MJPEG (Motion JPEG)</property>
  <property name="meta.media.0.codec.bit_rate">0</property>
  <property name="meta.attr.0.stream.HANDLER_NAME.markup">ISO Media file produced by Google Inc. Created on: 05/11/2021.</property>
  <property name="meta.attr.0.stream.ENCODER.markup">Lavc58.91.100 mjpeg</property>
  <property name="meta.attr.0.stream.DURATION.markup">00:00:06.790000000</property>
  <property name="meta.media.1.stream.type">audio</property>
  <property name="meta.media.1.codec.sample_fmt">s16</property>
  <property name="meta.media.1.codec.sample_rate">44100</property>
  <property name="meta.media.1.codec.channels">2</property>
  <property name="meta.media.1.codec.name">pcm_s16le</property>
  <property name="meta.media.1.codec.long_name">PCM signed 16-bit little-endian</property>
  <property name="meta.media.1.codec.bit_rate">1411200</property>
  <property name="meta.attr.1.stream.HANDLER_NAME.markup">ISO Media file produced by Google Inc. Created on: 11/30/2018.</property>
  <property name="meta.attr.1.stream.ENCODER.markup">Lavc58.91.100 pcm_s16le</property>
  <property name="meta.attr.1.stream.DURATION.markup">00:00:06.826000000</property>
  <property name="meta.attr.COMPATIBLE_BRANDS.markup">isomiso2avc1mp41</property>
  <property name="meta.attr.MAJOR_BRAND.markup">isom</property>
  <property name="meta.attr.MINOR_VERSION.markup">512</property>
  <property name="meta.attr.ENCODER.markup">Lavf58.45.100</property>
  <property name="seekable">1</property>
  <property name="meta.media.sample_aspect_num">1</property>
  <property name="meta.media.sample_aspect_den">1</property>
  <property name="audio_index">1</property>
  <property name="video_index">0</property>
  <property name="mute_on_pause">1</property>
  <property name="warp_speed">-1</property>
  <property name="warp_resource">/home/ryankelln/.cache/kdenlive/proxy/a96b92c1bace94bc3ed2462f08da2e88.mkv</property>
  <property name="mlt_service">timewarp</property>
  <property name="kdenlive:proxy">/home/ryankelln/.cache/kdenlive/proxy/a96b92c1bace94bc3ed2462f08da2e88.mkv</property>
  <property name="kdenlive:originalurl">content/footage/Bird Flying - Free Stock Creative Commons Video-FrRXDYUatf4.mp4</property>
  <property name="set.test_audio">1</property>
  <property name="set.test_image">0</property>
  <property name="kdenlive:id">48</property>
  <property name="warp_pitch">0</property>
  <property name="meta.media.frame_rate_num">19001</property>
  <property name="meta.media.frame_rate_den">317</property>
  <property name="meta.media.colorspace">601</property>
  <property name="meta.media.color_trc">2</property>
  <property name="meta.media.width">640</property>
  <property name="meta.media.height">360</property>
  <property name="meta.media.color_range">full</property>
  <property name="meta.media.top_field_first">0</property>
  <property name="meta.media.progressive">1</property>
 </producer>
 <producer id="producer142" in="00:00:00.000" out="00:00:36.867">
  <property name="length">1109</property>
  <property name="eof">pause</property>
  <property name="resource">/home/ryankelln/.cache/kdenlive/proxy/b2be9f3e4ba5a4ff8901ca563d188491.mkv</property>
  <property name="audio_index">-1</property>
  <property name="video_index">0</property>
  <property name="mute_on_pause">0</property>
  <property name="mlt_service">avformat-novalidate</property>
  <property name="seekable">1</property>
  <property name="aspect_ratio">1</property>
  <property name="kdenlive:clipname">SeagullsCloseMaster_h264.mp4</property>
  <property name="kdenlive:folderid">55</property>
  <property name="kdenlive:id">50</property>
  <property name="kdenlive:file_size">49278582</property>
  <property name="kdenlive:file_hash">b2be9f3e4ba5a4ff8901ca563d188491</property>
  <property name="kdenlive:proxy">/home/ryankelln/.cache/kdenlive/proxy/b2be9f3e4ba5a4ff8901ca563d188491.mkv</property>
  <property name="kdenlive:originalurl">content/footage/SeagullsCloseMaster_h264.mp4</property>
  <property name="kdenlive:original.mlt_type">producer</property>
  <property name="kdenlive:original.in">0</property>
  <property name="kdenlive:original.out">1108</property>
  <property name="kdenlive:original.length">1109</property>
  <property name="kdenlive:original.eof">pause</property>
  <property name="kdenlive:original.resource">content/footage/SeagullsCloseMaster_h264.mp4</property>
  <property name="kdenlive:original.meta.media.nb_streams">1</property>
  <property name="kdenlive:original.meta.media.0.stream.type">video</property>
  <property name="kdenlive:original.meta.media.0.stream.frame_rate">23.976</property>
  <property name="kdenlive:original.meta.media.0.stream.sample_aspect_ratio">0</property>
  <property name="kdenlive:original.meta.media.0.codec.width">1920</property>
  <property name="kdenlive:original.meta.media.0.codec.height">1080</property>
  <property name="kdenlive:original.meta.media.0.codec.rotate">0</property>
  <property name="kdenlive:original.meta.media.0.codec.frame_rate">23.976</property>
  <property name="kdenlive:original.meta.media.0.codec.pix_fmt">yuv420p</property>
  <property name="kdenlive:original.meta.media.0.codec.sample_aspect_ratio">1</property>
  <property name="kdenlive:original.meta.media.0.codec.colorspace">709</property>
  <property name="kdenlive:original.meta.media.0.codec.name">h264</property>
  <property name="kdenlive:original.meta.media.0.codec.long_name">H.264 / AVC / MPEG-4 AVC / MPEG-4 part 10</property>
  <property name="kdenlive:original.meta.media.0.codec.bit_rate">10664727</property>
  <property name="kdenlive:original.meta.attr.0.stream.creation_time.markup">2013-11-30T22:42:06.000000Z</property>
  <property name="kdenlive:original.meta.attr.0.stream.language.markup">eng</property>
  <property name="kdenlive:original.meta.attr.0.stream.handler_name.markup">Mainconcept MP4 Video Media Handler</property>
  <property name="kdenlive:original.meta.attr.0.stream.encoder.markup">AVC Coding</property>
  <property name="kdenlive:original.meta.attr.major_brand.markup">mp42</property>
  <property name="kdenlive:original.meta.attr.minor_version.markup">0</property>
  <property name="kdenlive:original.meta.attr.compatible_brands.markup">mp42mp41</property>
  <property name="kdenlive:original.meta.attr.creation_time.markup">2013-11-30T22:42:06.000000Z</property>
  <property name="kdenlive:original.seekable">1</property>
  <property name="kdenlive:original.width">1920</property>
  <property name="kdenlive:original.height">1080</property>
  <property name="kdenlive:original.meta.media.sample_aspect_num">1</property>
  <property name="kdenlive:original.meta.media.sample_aspect_den">1</property>
  <property name="kdenlive:original.aspect_ratio">1</property>
  <property name="kdenlive:original.audio_index">-1</property>
  <property name="kdenlive:original.video_index">0</property>
  <property name="kdenlive:original.mute_on_pause">0</property>
  <property name="kdenlive:original.mlt_service">avformat-novalidate</property>
  <property name="kdenlive:original.kdenlive:folderid">55</property>
  <property name="kdenlive:original.meta.media.frame_rate_num">2997</property>
  <property name="kdenlive:original.meta.media.frame_rate_den">125</property>
  <property name="kdenlive:original.meta.media.colorspace">709</property>
  <property name="kdenlive:original.meta.media.color_trc">2</property>
  <property name="kdenlive:original.meta.media.width">1920</property>
  <property name="kdenlive:original.meta.media.height">1080</property>
  <property name="kdenlive:original.meta.media.color_range">mpeg</property>
  <property name="kdenlive:original.kdenlive:id">60</property>
  <property name="kdenlive:original.kdenlive:file_size">49278582</property>
  <property name="kdenlive:original.kdenlive:file_hash">b2be9f3e4ba5a4ff8901ca563d188491</property>
  <property name="kdenlive:original.backup">1</property>
  <property name="global_feed">1</property>
  <property name="xml">was here</property>
  <property name="meta.media.nb_streams">1</property>
  <property name="meta.media.0.stream.type">video</property>
  <property name="meta.media.0.stream.frame_rate">23.976</property>
  <property name="meta.media.0.stream.sample_aspect_ratio">1</property>
  <property name="meta.media.0.codec.width">640</property>
  <property name="meta.media.0.codec.height">360</property>
  <property name="meta.media.0.codec.rotate">0</property>
  <property name="meta.media.0.codec.frame_rate">1000</property>
  <property name="meta.media.0.codec.pix_fmt">yuvj420p</property>
  <property name="meta.media.0.codec.sample_aspect_ratio">1</property>
  <property name="meta.media.0.codec.colorspace">601</property>
  <property name="meta.media.0.codec.name">mjpeg</property>
  <property name="meta.media.0.codec.long_name">MJPEG (Motion JPEG)</property>
  <property name="meta.media.0.codec.bit_rate">0</property>
  <property name="meta.attr.0.stream.language.markup">eng</property>
  <property name="meta.attr.0.stream.HANDLER_NAME.markup">Mainconcept MP4 Video Media Handler</property>
  <property name="meta.attr.0.stream.ENCODER.markup">Lavc58.91.100 mjpeg</property>
  <property name="meta.attr.0.stream.DURATION.markup">00:00:36.912000000</property>
  <property name="meta.attr.COMPATIBLE_BRANDS.markup">mp42mp41</property>
  <property name="meta.attr.MAJOR_BRAND.markup">mp42</property>
  <property name="meta.attr.MINOR_VERSION.markup">0</property>
  <property name="meta.attr.ENCODER.markup">Lavf58.45.100</property>
  <property name="meta.media.sample_aspect_num">1</property>
  <property name="meta.media.sample_aspect_den">1</property>
  <property name="meta.media.frame_rate_num">2997</property>
  <property name="meta.media.frame_rate_den">125</property>
  <property name="meta.media.colorspace">601</property>
  <property name="meta.media.color_trc">2</property>
  <property name="meta.media.width">640</property>
  <property name="meta.media.height">360</property>
  <property name="meta.media.color_range">full</property>
  <property name="meta.media.top_field_first">0</property>
  <property name="meta.media.progressive">1</property>
  <property name="set.test_audio">1</property>
  <property name="set.test_image">0</property>
 </producer>
 <producer id="producer143" in="00:00:00.000" out="00:00:20.633">
  <property name="length">621</property>
  <property name="eof">pause</property>
  <property name="resource">1.784722:/home/ryankelln/.cache/kdenlive/proxy/b2be9f3e4ba5a4ff8901ca563d188491.mkv</property>
  <property name="aspect_ratio">1</property>
  <property name="meta.media.nb_streams">1</property>
  <property name="meta.media.0.stream.type">video</property>
  <property name="meta.media.0.stream.frame_rate">23.976</property>
  <property name="meta.media.0.stream.sample_aspect_ratio">1</property>
  <property name="meta.media.0.codec.width">640</property>
  <property name="meta.media.0.codec.height">360</property>
  <property name="meta.media.0.codec.rotate">0</property>
  <property name="meta.media.0.codec.frame_rate">1000</property>
  <property name="meta.media.0.codec.pix_fmt">yuvj420p</property>
  <property name="meta.media.0.codec.sample_aspect_ratio">1</property>
  <property name="meta.media.0.codec.colorspace">601</property>
  <property name="meta.media.0.codec.name">mjpeg</property>
  <property name="meta.media.0.codec.long_name">MJPEG (Motion JPEG)</property>
  <property name="meta.media.0.codec.bit_rate">0</property>
  <property name="meta.attr.0.stream.language.markup">eng</property>
  <property name="meta.attr.0.stream.HANDLER_NAME.markup">Mainconcept MP4 Video Media Handler</property>
  <property name="meta.attr.0.stream.ENCODER.markup">Lavc58.91.100 mjpeg</property>
  <property name="meta.attr.0.stream.DURATION.markup">00:00:36.912000000</property>
  <property name="meta.attr.COMPATIBLE_BRANDS.markup">mp42mp41</property>
  <property name="meta.attr.MAJOR_BRAND.markup">mp42</property>
  <property name="meta.attr.MINOR_VERSION.markup">0</property>
  <property name="meta.attr.ENCODER.markup">Lavf58.45.100</property>
  <property name="seekable">1</property>
  <property name="meta.media.sample_aspect_num">1</property>
  <property name="meta.media.sample_aspect_den">1</property>
  <property name="audio_index">-1</property>
  <property name="video_index">0</property>
  <property name="mute_on_pause">1</property>
  <property name="warp_speed">1.78472</property>
  <property name="warp_resource">/home/ryankelln/.cache/kdenlive/proxy/b2be9f3e4ba5a4ff8901ca563d188491.mkv</property>
  <property name="mlt_service">timewarp</property>
  <property name="kdenlive:proxy">/home/ryankelln/.cache/kdenlive/proxy/b2be9f3e4ba5a4ff8901ca563d188491.mkv</property>
  <property name="kdenlive:originalurl">content/footage/SeagullsCloseMaster_h264.mp4</property>
  <property name="set.test_audio">1</property>
  <property name="set.test_image">0</property>
  <property name="kdenlive:id">50</property>
  <property name="warp_pitch">0</property>
  <property name="meta.media.frame_rate_num">2997</property>
  <property name="meta.media.frame_rate_den">125</property>
  <property name="meta.media.colorspace">601</property>
  <property name="meta.media.color_trc">2</property>
  <property name="meta.media.width">640</property>
  <property name="meta.media.height">360</property>
  <property name="meta.media.color_range">full</property>
  <property name="meta.media.top_field_first">0</property>
  <property name="meta.media.progressive">1</property>
 </producer>
 <producer id="producer144" in="00:00:00.000" out="00:05:19.200">
  <property name="length">9577</property>
  <property name="eof">pause</property>
  <property name="resource">content/footage/Mandarin duck - Mandarijneend - Aix galericulata-49589113.mp4</property>
  <property name="audio_index">1</property>
  <property name="video_index">0</property>
  <property name="mute_on_pause">0</property>
  <property name="mlt_service">avformat-novalidate</property>
  <property name="seekable">1</property>
  <property name="aspect_ratio">1</property>
  <property name="kdenlive:clipname"/>
  <property name="kdenlive:folderid">55</property>
  <property name="kdenlive:id">52</property>
  <property name="kdenlive:file_size">34652899</property>
  <property name="kdenlive:file_hash">d9bf49cb03d10452db376ae93647fe62</property>
  <property name="kdenlive:audio_max">11</property>
  <property name="kdenlive:zone_in">3497</property>
  <property name="kdenlive:zone_out">3632</property>
  <property name="kdenlive:clipzones">[
    {
        "in": 3497,
        "name": "Peek",
        "out": 3632
    }
]
</property>
  <property name="global_feed">1</property>
  <property name="kdenlive:active_streams">-1</property>
  <property name="xml">was here</property>
  <property name="meta.media.nb_streams">2</property>
  <property name="meta.media.0.stream.type">video</property>
  <property name="meta.media.0.stream.frame_rate">29.97</property>
  <property name="meta.media.0.stream.sample_aspect_ratio">1</property>
  <property name="meta.media.0.codec.width">640</property>
  <property name="meta.media.0.codec.height">480</property>
  <property name="meta.media.0.codec.rotate">0</property>
  <property name="meta.media.0.codec.frame_rate">29.97</property>
  <property name="meta.media.0.codec.pix_fmt">yuv420p</property>
  <property name="meta.media.0.codec.sample_aspect_ratio">1</property>
  <property name="meta.media.0.codec.colorspace">601</property>
  <property name="meta.media.0.codec.name">h264</property>
  <property name="meta.media.0.codec.long_name">H.264 / AVC / MPEG-4 AVC / MPEG-4 part 10</property>
  <property name="meta.media.0.codec.bit_rate">749377</property>
  <property name="meta.attr.0.stream.handler_name.markup">VideoHandler</property>
  <property name="meta.media.1.stream.type">audio</property>
  <property name="meta.media.1.codec.sample_fmt">fltp</property>
  <property name="meta.media.1.codec.sample_rate">44100</property>
  <property name="meta.media.1.codec.channels">2</property>
  <property name="meta.media.1.codec.name">aac</property>
  <property name="meta.media.1.codec.long_name">AAC (Advanced Audio Coding)</property>
  <property name="meta.media.1.codec.bit_rate">111023</property>
  <property name="meta.attr.1.stream.handler_name.markup">SoundHandler</property>
  <property name="meta.attr.major_brand.markup">isom</property>
  <property name="meta.attr.minor_version.markup">512</property>
  <property name="meta.attr.compatible_brands.markup">isomiso2avc1mp41</property>
  <property name="meta.attr.encoder.markup">Lavf58.45.100</property>
  <property name="meta.media.sample_aspect_num">1</property>
  <property name="meta.media.sample_aspect_den">1</property>
  <property name="meta.media.frame_rate_num">30000</property>
  <property name="meta.media.frame_rate_den">1001</property>
  <property name="meta.media.colorspace">601</property>
  <property name="meta.media.color_trc">2</property>
  <property name="meta.media.width">640</property>
  <property name="meta.media.height">480</property>
  <property name="meta.media.color_range">mpeg</property>
  <property name="meta.media.top_field_first">0</property>
  <property name="meta.media.progressive">1</property>
  <property name="set.test_audio">1</property>
  <property name="set.test_image">0</property>
  <filter id="filter16">
   <property name="rotate_center">1</property>
   <property name="mlt_service">qtblend</property>
   <property name="kdenlive_id">qtblend</property>
   <property name="rect">00:00:00.000=0 -180 1920 1440 1.000000</property>
   <property name="rotation">00:00:00.000=0</property>
   <property name="compositing">0</property>
   <property name="distort">1</property>
  </filter>
  <filter id="filter17">
   <property name="mlt_service">avfilter.unsharp</property>
   <property name="kdenlive_id">avfilter.unsharp</property>
   <property name="av.lx">5</property>
   <property name="av.ly">5</property>
   <property name="av.la">1.717</property>
   <property name="av.cx">5</property>
   <property name="av.cy">5</property>
   <property name="av.ca">1.717</property>
  </filter>
 </producer>
 <producer id="producer145" in="00:00:00.000" out="00:00:03.000">
  <property name="length">91</property>
  <property name="eof">pause</property>
  <property name="resource">content/ai/bird_chris.1009.mp4</property>
  <property name="audio_index">-1</property>
  <property name="video_index">0</property>
  <property name="mute_on_pause">0</property>
  <property name="mlt_service">avformat-novalidate</property>
  <property name="seekable">1</property>
  <property name="aspect_ratio">1</property>
  <property name="kdenlive:clipname"/>
  <property name="kdenlive:folderid">71</property>
  <property name="kdenlive:id">126</property>
  <property name="kdenlive:file_size">837860</property>
  <property name="kdenlive:file_hash">eb484a8f169579cef545090d1d88e3c5</property>
  <property name="global_feed">1</property>
  <property name="xml">was here</property>
  <property name="meta.media.nb_streams">1</property>
  <property name="meta.media.0.stream.type">video</property>
  <property name="meta.media.0.stream.frame_rate">30</property>
  <property name="meta.media.0.stream.sample_aspect_ratio">0</property>
  <property name="meta.media.0.codec.width">512</property>
  <property name="meta.media.0.codec.height">512</property>
  <property name="meta.media.0.codec.rotate">0</property>
  <property name="meta.media.0.codec.frame_rate">30</property>
  <property name="meta.media.0.codec.pix_fmt">yuv444p</property>
  <property name="meta.media.0.codec.sample_aspect_ratio">0</property>
  <property name="meta.media.0.codec.colorspace">601</property>
  <property name="meta.media.0.codec.name">h264</property>
  <property name="meta.media.0.codec.long_name">H.264 / AVC / MPEG-4 AVC / MPEG-4 part 10</property>
  <property name="meta.media.0.codec.bit_rate">2204800</property>
  <property name="meta.attr.0.stream.handler_name.markup">VideoHandler</property>
  <property name="meta.attr.major_brand.markup">isom</property>
  <property name="meta.attr.minor_version.markup">512</property>
  <property name="meta.attr.compatible_brands.markup">isomiso2avc1mp41</property>
  <property name="meta.attr.encoder.markup">Lavf58.76.100</property>
  <property name="meta.media.sample_aspect_num">1</property>
  <property name="meta.media.sample_aspect_den">1</property>
  <property name="meta.media.frame_rate_num">30</property>
  <property name="meta.media.frame_rate_den">1</property>
  <property name="meta.media.colorspace">601</property>
  <property name="meta.media.color_trc">2</property>
  <property name="meta.media.width">512</property>
  <property name="meta.media.height">512</property>
  <property name="meta.media.color_range">mpeg</property>
  <property name="meta.media.top_field_first">0</property>
  <property name="meta.media.progressive">1</property>
  <property name="set.test_audio">1</property>
  <property name="set.test_image">0</property>
 </producer>
 <producer id="producer146" in="00:00:00.000" out="00:00:06.733">
  <property name="length">00:00:06.800</property>
  <property name="eof">pause</property>
  <property name="resource">/home/ryankelln/Documents/Projects/Active/Sound_Escapes/Jackson/footage/Bird Flying - Free Stock Creative Commons Video-FrRXDYUatf4.mp4</property>
  <property name="audio_index">1</property>
  <property name="video_index">0</property>
  <property name="mute_on_pause">0</property>
  <property name="mlt_service">avformat-novalidate</property>
  <property name="seekable">1</property>
  <property name="aspect_ratio">1</property>
  <property name="kdenlive:clipname"/>
  <property name="kdenlive:folderid">-1</property>
  <property name="kdenlive:id">4</property>
  <property name="kdenlive:file_size">1563626</property>
  <property name="kdenlive:file_hash">a96b92c1bace94bc3ed2462f08da2e88</property>
  <property name="kdenlive:audio_max">91</property>
  <property name="global_feed">1</property>
  <property name="xml">was here</property>
  <property name="meta.media.nb_streams">2</property>
  <property name="meta.media.0.stream.type">video</property>
  <property name="meta.media.0.stream.frame_rate">60.233</property>
  <property name="meta.media.0.stream.sample_aspect_ratio">1</property>
  <property name="meta.media.0.codec.width">1920</property>
  <property name="meta.media.0.codec.height">1080</property>
  <property name="meta.media.0.codec.rotate">0</property>
  <property name="meta.media.0.codec.frame_rate">59.9401</property>
  <property name="meta.media.0.codec.pix_fmt">yuv420p</property>
  <property name="meta.media.0.codec.sample_aspect_ratio">1</property>
  <property name="meta.media.0.codec.colorspace">709</property>
  <property name="meta.media.0.codec.color_trc">1</property>
  <property name="meta.media.0.codec.name">h264</property>
  <property name="meta.media.0.codec.long_name">H.264 / AVC / MPEG-4 AVC / MPEG-4 part 10</property>
  <property name="meta.media.0.codec.bit_rate">1702801</property>
  <property name="meta.attr.0.stream.handler_name.markup">ISO Media file produced by Google Inc. Created on: 05/11/2021.</property>
  <property name="meta.attr.0.stream.vendor_id.markup">[0][0][0][0]</property>
  <property name="meta.media.1.stream.type">audio</property>
  <property name="meta.media.1.codec.sample_fmt">fltp</property>
  <property name="meta.media.1.codec.sample_rate">44100</property>
  <property name="meta.media.1.codec.channels">2</property>
  <property name="meta.media.1.codec.name">aac</property>
  <property name="meta.media.1.codec.long_name">AAC (Advanced Audio Coding)</property>
  <property name="meta.media.1.codec.bit_rate">127999</property>
  <property name="meta.attr.1.stream.handler_name.markup">ISO Media file produced by Google Inc. Created on: 11/30/2018.</property>
  <property name="meta.attr.1.stream.vendor_id.markup">[0][0][0][0]</property>
  <property name="meta.attr.major_brand.markup">isom</property>
  <property name="meta.attr.minor_version.markup">512</property>
  <property name="meta.attr.compatible_brands.markup">isomiso2avc1mp41</property>
  <property name="meta.attr.encoder.markup">Lavf58.45.100</property>
  <property name="meta.media.sample_aspect_num">1</property>
  <property name="meta.media.sample_aspect_den">1</property>
  <property name="meta.media.frame_rate_num">1360000</property>
  <property name="meta.media.frame_rate_den">22579</property>
  <property name="meta.media.colorspace">709</property>
  <property name="meta.media.color_trc">1</property>
  <property name="meta.media.width">1920</property>
  <property name="meta.media.height">1080</property>
  <property name="meta.media.color_range">mpeg</property>
  <property name="meta.media.variable_frame_rate">1</property>
  <property name="meta.media.top_field_first">0</property>
  <property name="meta.media.progressive">1</property>
  <property name="set.test_audio">1</property>
  <property name="set.test_image">0</property>
 </producer>
 <producer id="producer147" in="00:00:00.000" out="00:00:07.067">
  <property name="length">00:00:07.133</property>
  <property name="eof">pause</property>
  <property name="resource">0.950000:/home/ryankelln/Documents/Projects/Active/Sound_Escapes/Jackson/footage/Bird Flying - Free Stock Creative Commons Video-FrRXDYUatf4.mp4</property>
  <property name="aspect_ratio">1</property>
  <property name="meta.media.nb_streams">2</property>
  <property name="meta.media.0.stream.type">video</property>
  <property name="meta.media.0.stream.frame_rate">60.233</property>
  <property name="meta.media.0.stream.sample_aspect_ratio">1</property>
  <property name="meta.media.0.codec.width">1920</property>
  <property name="meta.media.0.codec.height">1080</property>
  <property name="meta.media.0.codec.rotate">0</property>
  <property name="meta.media.0.codec.frame_rate">59.9401</property>
  <property name="meta.media.0.codec.pix_fmt">yuv420p</property>
  <property name="meta.media.0.codec.sample_aspect_ratio">1</property>
  <property name="meta.media.0.codec.colorspace">709</property>
  <property name="meta.media.0.codec.color_trc">1</property>
  <property name="meta.media.0.codec.name">h264</property>
  <property name="meta.media.0.codec.long_name">H.264 / AVC / MPEG-4 AVC / MPEG-4 part 10</property>
  <property name="meta.media.0.codec.bit_rate">1702801</property>
  <property name="meta.attr.0.stream.handler_name.markup">ISO Media file produced by Google Inc. Created on: 05/11/2021.</property>
  <property name="meta.media.1.stream.type">audio</property>
  <property name="meta.media.1.codec.sample_fmt">fltp</property>
  <property name="meta.media.1.codec.sample_rate">44100</property>
  <property name="meta.media.1.codec.channels">2</property>
  <property name="meta.media.1.codec.name">aac</property>
  <property name="meta.media.1.codec.long_name">AAC (Advanced Audio Coding)</property>
  <property name="meta.media.1.codec.bit_rate">127999</property>
  <property name="meta.attr.1.stream.handler_name.markup">ISO Media file produced by Google Inc. Created on: 11/30/2018.</property>
  <property name="meta.attr.major_brand.markup">isom</property>
  <property name="meta.attr.minor_version.markup">512</property>
  <property name="meta.attr.compatible_brands.markup">isomiso2avc1mp41</property>
  <property name="meta.attr.encoder.markup">Lavf58.45.100</property>
  <property name="seekable">1</property>
  <property name="meta.media.sample_aspect_num">1</property>
  <property name="meta.media.sample_aspect_den">1</property>
  <property name="audio_index">1</property>
  <property name="video_index">0</property>
  <property name="mute_on_pause">1</property>
  <property name="warp_speed">0.95</property>
  <property name="warp_resource">/home/ryankelln/Documents/Projects/Active/Sound_Escapes/Jackson/footage/Bird Flying - Free Stock Creative Commons Video-FrRXDYUatf4.mp4</property>
  <property name="mlt_service">timewarp</property>
  <property name="meta.attr.0.stream.vendor_id.markup">[0][0][0][0]</property>
  <property name="meta.attr.1.stream.vendor_id.markup">[0][0][0][0]</property>
  <property name="set.test_audio">1</property>
  <property name="set.test_image">0</property>
  <property name="kdenlive:id">4</property>
  <property name="warp_pitch">0</property>
  <property name="meta.media.frame_rate_num">1360000</property>
  <property name="meta.media.frame_rate_den">22579</property>
  <property name="meta.media.colorspace">709</property>
  <property name="meta.media.color_trc">1</property>
  <property name="meta.media.width">1920</property>
  <property name="meta.media.height">1080</property>
  <property name="meta.media.color_range">mpeg</property>
  <property name="meta.media.variable_frame_rate">1</property>
  <property name="meta.media.top_field_first">0</property>
  <property name="meta.media.progressive">1</property>
 </producer>
 <producer id="producer148" in="00:00:00.000" out="00:00:07.200">
  <property name="length">00:00:07.267</property>
  <property name="eof">pause</property>
  <property name="resource">0.940000:/home/ryankelln/Documents/Projects/Active/Sound_Escapes/Jackson/footage/Bird Flying - Free Stock Creative Commons Video-FrRXDYUatf4.mp4</property>
  <property name="aspect_ratio">1</property>
  <property name="meta.media.nb_streams">2</property>
  <property name="meta.media.0.stream.type">video</property>
  <property name="meta.media.0.stream.frame_rate">60.233</property>
  <property name="meta.media.0.stream.sample_aspect_ratio">1</property>
  <property name="meta.media.0.codec.width">1920</property>
  <property name="meta.media.0.codec.height">1080</property>
  <property name="meta.media.0.codec.rotate">0</property>
  <property name="meta.media.0.codec.frame_rate">59.9401</property>
  <property name="meta.media.0.codec.pix_fmt">yuv420p</property>
  <property name="meta.media.0.codec.sample_aspect_ratio">1</property>
  <property name="meta.media.0.codec.colorspace">709</property>
  <property name="meta.media.0.codec.color_trc">1</property>
  <property name="meta.media.0.codec.name">h264</property>
  <property name="meta.media.0.codec.long_name">H.264 / AVC / MPEG-4 AVC / MPEG-4 part 10</property>
  <property name="meta.media.0.codec.bit_rate">1702801</property>
  <property name="meta.attr.0.stream.handler_name.markup">ISO Media file produced by Google Inc. Created on: 05/11/2021.</property>
  <property name="meta.media.1.stream.type">audio</property>
  <property name="meta.media.1.codec.sample_fmt">fltp</property>
  <property name="meta.media.1.codec.sample_rate">44100</property>
  <property name="meta.media.1.codec.channels">2</property>
  <property name="meta.media.1.codec.name">aac</property>
  <property name="meta.media.1.codec.long_name">AAC (Advanced Audio Coding)</property>
  <property name="meta.media.1.codec.bit_rate">127999</property>
  <property name="meta.attr.1.stream.handler_name.markup">ISO Media file produced by Google Inc. Created on: 11/30/2018.</property>
  <property name="meta.attr.major_brand.markup">isom</property>
  <property name="meta.attr.minor_version.markup">512</property>
  <property name="meta.attr.compatible_brands.markup">isomiso2avc1mp41</property>
  <property name="meta.attr.encoder.markup">Lavf58.45.100</property>
  <property name="seekable">1</property>
  <property name="meta.media.sample_aspect_num">1</property>
  <property name="meta.media.sample_aspect_den">1</property>
  <property name="audio_index">1</property>
  <property name="video_index">0</property>
  <property name="mute_on_pause">1</property>
  <property name="warp_speed">0.94</property>
  <property name="warp_resource">/home/ryankelln/Documents/Projects/Active/Sound_Escapes/Jackson/footage/Bird Flying - Free Stock Creative Commons Video-FrRXDYUatf4.mp4</property>
  <property name="mlt_service">timewarp</property>
  <property name="meta.attr.0.stream.vendor_id.markup">[0][0][0][0]</property>
  <property name="meta.attr.1.stream.vendor_id.markup">[0][0][0][0]</property>
  <property name="set.test_audio">1</property>
  <property name="set.test_image">0</property>
  <property name="kdenlive:id">4</property>
  <property name="warp_pitch">0</property>
  <property name="meta.media.frame_rate_num">1360000</property>
  <property name="meta.media.frame_rate_den">22579</property>
  <property name="meta.media.colorspace">709</property>
  <property name="meta.media.color_trc">1</property>
  <property name="meta.media.width">1920</property>
  <property name="meta.media.height">1080</property>
  <property name="meta.media.color_range">mpeg</property>
  <property name="meta.media.variable_frame_rate">1</property>
  <property name="meta.media.top_field_first">0</property>
  <property name="meta.media.progressive">1</property>
 </producer>
 <producer id="producer149" in="00:00:00.000" out="00:00:07.200">
  <property name="length">00:00:07.267</property>
  <property name="eof">pause</property>
  <property name="resource">0.940000:/home/ryankelln/Documents/Projects/Active/Sound_Escapes/Jackson/footage/Bird Flying - Free Stock Creative Commons Video-FrRXDYUatf4.mp4</property>
  <property name="aspect_ratio">1</property>
  <property name="meta.media.nb_streams">2</property>
  <property name="meta.media.0.stream.type">video</property>
  <property name="meta.media.0.stream.frame_rate">60.233</property>
  <property name="meta.media.0.stream.sample_aspect_ratio">1</property>
  <property name="meta.media.0.codec.width">1920</property>
  <property name="meta.media.0.codec.height">1080</property>
  <property name="meta.media.0.codec.rotate">0</property>
  <property name="meta.media.0.codec.frame_rate">59.9401</property>
  <property name="meta.media.0.codec.pix_fmt">yuv420p</property>
  <property name="meta.media.0.codec.sample_aspect_ratio">1</property>
  <property name="meta.media.0.codec.colorspace">709</property>
  <property name="meta.media.0.codec.color_trc">1</property>
  <property name="meta.media.0.codec.name">h264</property>
  <property name="meta.media.0.codec.long_name">H.264 / AVC / MPEG-4 AVC / MPEG-4 part 10</property>
  <property name="meta.media.0.codec.bit_rate">1702801</property>
  <property name="meta.attr.0.stream.handler_name.markup">ISO Media file produced by Google Inc. Created on: 05/11/2021.</property>
  <property name="meta.media.1.stream.type">audio</property>
  <property name="meta.media.1.codec.sample_fmt">fltp</property>
  <property name="meta.media.1.codec.sample_rate">44100</property>
  <property name="meta.media.1.codec.channels">2</property>
  <property name="meta.media.1.codec.name">aac</property>
  <property name="meta.media.1.codec.long_name">AAC (Advanced Audio Coding)</property>
  <property name="meta.media.1.codec.bit_rate">127999</property>
  <property name="meta.attr.1.stream.handler_name.markup">ISO Media file produced by Google Inc. Created on: 11/30/2018.</property>
  <property name="meta.attr.major_brand.markup">isom</property>
  <property name="meta.attr.minor_version.markup">512</property>
  <property name="meta.attr.compatible_brands.markup">isomiso2avc1mp41</property>
  <property name="meta.attr.encoder.markup">Lavf58.45.100</property>
  <property name="seekable">1</property>
  <property name="meta.media.sample_aspect_num">1</property>
  <property name="meta.media.sample_aspect_den">1</property>
  <property name="audio_index">1</property>
  <property name="video_index">0</property>
  <property name="mute_on_pause">1</property>
  <property name="warp_speed">0.94</property>
  <property name="warp_resource">/home/ryankelln/Documents/Projects/Active/Sound_Escapes/Jackson/footage/Bird Flying - Free Stock Creative Commons Video-FrRXDYUatf4.mp4</property>
  <property name="mlt_service">timewarp</property>
  <property name="meta.attr.0.stream.vendor_id.markup">[0][0][0][0]</property>
  <property name="meta.attr.1.stream.vendor_id.markup">[0][0][0][0]</property>
  <property name="set.test_audio">1</property>
  <property name="set.test_image">0</property>
  <property name="kdenlive:id">4</property>
  <property name="warp_pitch">0</property>
  <property name="meta.media.frame_rate_num">1360000</property>
  <property name="meta.media.frame_rate_den">22579</property>
  <property name="meta.media.colorspace">709</property>
  <property name="meta.media.color_trc">1</property>
  <property name="meta.media.width">1920</property>
  <property name="meta.media.height">1080</property>
  <property name="meta.media.color_range">mpeg</property>
  <property name="meta.media.variable_frame_rate">1</property>
  <property name="meta.media.top_field_first">0</property>
  <property name="meta.media.progressive">1</property>
 </producer>
 <producer id="producer150" in="00:00:00.000" out="00:00:07.200">
  <property name="length">00:00:07.267</property>
  <property name="eof">pause</property>
  <property name="resource">0.940000:/home/ryankelln/Documents/Projects/Active/Sound_Escapes/Jackson/footage/Bird Flying - Free Stock Creative Commons Video-FrRXDYUatf4.mp4</property>
  <property name="aspect_ratio">1</property>
  <property name="meta.media.nb_streams">2</property>
  <property name="meta.media.0.stream.type">video</property>
  <property name="meta.media.0.stream.frame_rate">60.233</property>
  <property name="meta.media.0.stream.sample_aspect_ratio">1</property>
  <property name="meta.media.0.codec.width">1920</property>
  <property name="meta.media.0.codec.height">1080</property>
  <property name="meta.media.0.codec.rotate">0</property>
  <property name="meta.media.0.codec.frame_rate">59.9401</property>
  <property name="meta.media.0.codec.pix_fmt">yuv420p</property>
  <property name="meta.media.0.codec.sample_aspect_ratio">1</property>
  <property name="meta.media.0.codec.colorspace">709</property>
  <property name="meta.media.0.codec.color_trc">1</property>
  <property name="meta.media.0.codec.name">h264</property>
  <property name="meta.media.0.codec.long_name">H.264 / AVC / MPEG-4 AVC / MPEG-4 part 10</property>
  <property name="meta.media.0.codec.bit_rate">1702801</property>
  <property name="meta.attr.0.stream.handler_name.markup">ISO Media file produced by Google Inc. Created on: 05/11/2021.</property>
  <property name="meta.media.1.stream.type">audio</property>
  <property name="meta.media.1.codec.sample_fmt">fltp</property>
  <property name="meta.media.1.codec.sample_rate">44100</property>
  <property name="meta.media.1.codec.channels">2</property>
  <property name="meta.media.1.codec.name">aac</property>
  <property name="meta.media.1.codec.long_name">AAC (Advanced Audio Coding)</property>
  <property name="meta.media.1.codec.bit_rate">127999</property>
  <property name="meta.attr.1.stream.handler_name.markup">ISO Media file produced by Google Inc. Created on: 11/30/2018.</property>
  <property name="meta.attr.major_brand.markup">isom</property>
  <property name="meta.attr.minor_version.markup">512</property>
  <property name="meta.attr.compatible_brands.markup">isomiso2avc1mp41</property>
  <property name="meta.attr.encoder.markup">Lavf58.45.100</property>
  <property name="seekable">1</property>
  <property name="meta.media.sample_aspect_num">1</property>
  <property name="meta.media.sample_aspect_den">1</property>
  <property name="audio_index">1</property>
  <property name="video_index">0</property>
  <property name="mute_on_pause">1</property>
  <property name="warp_speed">0.94</property>
  <property name="warp_resource">/home/ryankelln/Documents/Projects/Active/Sound_Escapes/Jackson/footage/Bird Flying - Free Stock Creative Commons Video-FrRXDYUatf4.mp4</property>
  <property name="mlt_service">timewarp</property>
  <property name="meta.attr.0.stream.vendor_id.markup">[0][0][0][0]</property>
  <property name="meta.attr.1.stream.vendor_id.markup">[0][0][0][0]</property>
  <property name="set.test_audio">1</property>
  <property name="set.test_image">0</property>
  <property name="kdenlive:id">4</property>
  <property name="warp_pitch">0</property>
  <property name="meta.media.frame_rate_num">1360000</property>
  <property name="meta.media.frame_rate_den">22579</property>
  <property name="meta.media.colorspace">709</property>
  <property name="meta.media.color_trc">1</property>
  <property name="meta.media.width">1920</property>
  <property name="meta.media.height">1080</property>
  <property name="meta.media.color_range">mpeg</property>
  <property name="meta.media.variable_frame_rate">1</property>
  <property name="meta.media.top_field_first">0</property>
  <property name="meta.media.progressive">1</property>
 </producer>
 <producer id="producer151" in="00:00:00.000" out="00:00:07.200">
  <property name="length">00:00:07.267</property>
  <property name="eof">pause</property>
  <property name="resource">0.940000:/home/ryankelln/Documents/Projects/Active/Sound_Escapes/Jackson/footage/Bird Flying - Free Stock Creative Commons Video-FrRXDYUatf4.mp4</property>
  <property name="aspect_ratio">1</property>
  <property name="meta.media.nb_streams">2</property>
  <property name="meta.media.0.stream.type">video</property>
  <property name="meta.media.0.stream.frame_rate">60.233</property>
  <property name="meta.media.0.stream.sample_aspect_ratio">1</property>
  <property name="meta.media.0.codec.width">1920</property>
  <property name="meta.media.0.codec.height">1080</property>
  <property name="meta.media.0.codec.rotate">0</property>
  <property name="meta.media.0.codec.frame_rate">59.9401</property>
  <property name="meta.media.0.codec.pix_fmt">yuv420p</property>
  <property name="meta.media.0.codec.sample_aspect_ratio">1</property>
  <property name="meta.media.0.codec.colorspace">709</property>
  <property name="meta.media.0.codec.color_trc">1</property>
  <property name="meta.media.0.codec.name">h264</property>
  <property name="meta.media.0.codec.long_name">H.264 / AVC / MPEG-4 AVC / MPEG-4 part 10</property>
  <property name="meta.media.0.codec.bit_rate">1702801</property>
  <property name="meta.attr.0.stream.handler_name.markup">ISO Media file produced by Google Inc. Created on: 05/11/2021.</property>
  <property name="meta.media.1.stream.type">audio</property>
  <property name="meta.media.1.codec.sample_fmt">fltp</property>
  <property name="meta.media.1.codec.sample_rate">44100</property>
  <property name="meta.media.1.codec.channels">2</property>
  <property name="meta.media.1.codec.name">aac</property>
  <property name="meta.media.1.codec.long_name">AAC (Advanced Audio Coding)</property>
  <property name="meta.media.1.codec.bit_rate">127999</property>
  <property name="meta.attr.1.stream.handler_name.markup">ISO Media file produced by Google Inc. Created on: 11/30/2018.</property>
  <property name="meta.attr.major_brand.markup">isom</property>
  <property name="meta.attr.minor_version.markup">512</property>
  <property name="meta.attr.compatible_brands.markup">isomiso2avc1mp41</property>
  <property name="meta.attr.encoder.markup">Lavf58.45.100</property>
  <property name="seekable">1</property>
  <property name="meta.media.sample_aspect_num">1</property>
  <property name="meta.media.sample_aspect_den">1</property>
  <property name="audio_index">1</property>
  <property name="video_index">0</property>
  <property name="mute_on_pause">1</property>
  <property name="warp_speed">0.94</property>
  <property name="warp_resource">/home/ryankelln/Documents/Projects/Active/Sound_Escapes/Jackson/footage/Bird Flying - Free Stock Creative Commons Video-FrRXDYUatf4.mp4</property>
  <property name="mlt_service">timewarp</property>
  <property name="meta.attr.0.stream.vendor_id.markup">[0][0][0][0]</property>
  <property name="meta.attr.1.stream.vendor_id.markup">[0][0][0][0]</property>
  <property name="set.test_audio">1</property>
  <property name="set.test_image">0</property>
  <property name="kdenlive:id">4</property>
  <property name="warp_pitch">0</property>
  <property name="meta.media.frame_rate_num">1360000</property>
  <property name="meta.media.frame_rate_den">22579</property>
  <property name="meta.media.colorspace">709</property>
  <property name="meta.media.color_trc">1</property>
  <property name="meta.media.width">1920</property>
  <property name="meta.media.height">1080</property>
  <property name="meta.media.color_range">mpeg</property>
  <property name="meta.media.variable_frame_rate">1</property>
  <property name="meta.media.top_field_first">0</property>
  <property name="meta.media.progressive">1</property>
 </producer>
 <producer id="producer152" in="00:00:00.000" out="00:14:18.467">
  <property name="length">00:14:18.533</property>
  <property name="eof">pause</property>
  <property name="resource">/media/storage/media/Videos/mine/music_landscapes/2020-12-29/Camerons_camera/2020-12-29_Toronto_sky+clouds_2_unstable.MP4.stable.MP4</property>
  <property name="audio_index">1</property>
  <property name="video_index">0</property>
  <property name="mute_on_pause">0</property>
  <property name="mlt_service">avformat-novalidate</property>
  <property name="seekable">1</property>
  <property name="aspect_ratio">1</property>
  <property name="kdenlive:clipname"/>
  <property name="kdenlive:folderid">-1</property>
  <property name="kdenlive:id">18</property>
  <property name="kdenlive:file_size">165873674</property>
  <property name="kdenlive:file_hash">820ec3e7d6d2398fc6d9252d1da549a9</property>
  <property name="kdenlive:audio_max">91</property>
  <property name="global_feed">1</property>
  <property name="xml">was here</property>
  <property name="meta.media.nb_streams">3</property>
  <property name="meta.media.0.stream.type">video</property>
  <property name="meta.media.0.stream.frame_rate">24</property>
  <property name="meta.media.0.stream.sample_aspect_ratio">1</property>
  <property name="meta.media.0.codec.width">1920</property>
  <property name="meta.media.0.codec.height">1080</property>
  <property name="meta.media.0.codec.rotate">0</property>
  <property name="meta.media.0.codec.frame_rate">24</property>
  <property name="meta.media.0.codec.pix_fmt">yuv420p</property>
  <property name="meta.media.0.codec.sample_aspect_ratio">1</property>
  <property name="meta.media.0.codec.colorspace">709</property>
  <property name="meta.media.0.codec.name">h264</property>
  <property name="meta.media.0.codec.long_name">H.264 / AVC / MPEG-4 AVC / MPEG-4 part 10</property>
  <property name="meta.media.0.codec.bit_rate">1538545</property>
  <property name="meta.attr.0.stream.handler_name.markup">VideoHandler</property>
  <property name="meta.attr.0.stream.vendor_id.markup">[0][0][0][0]</property>
  <property name="meta.attr.0.stream.timecode.markup">22:17:31:15</property>
  <property name="meta.media.1.stream.type">audio</property>
  <property name="meta.media.1.codec.sample_fmt">fltp</property>
  <property name="meta.media.1.codec.sample_rate">48000</property>
  <property name="meta.media.1.codec.channels">2</property>
  <property name="meta.media.1.codec.name">aac</property>
  <property name="meta.media.1.codec.long_name">AAC (Advanced Audio Coding)</property>
  <property name="meta.media.1.codec.bit_rate">2275</property>
  <property name="meta.attr.1.stream.handler_name.markup">SoundHandler</property>
  <property name="meta.attr.1.stream.vendor_id.markup">[0][0][0][0]</property>
  <property name="meta.attr.major_brand.markup">isom</property>
  <property name="meta.attr.minor_version.markup">512</property>
  <property name="meta.attr.compatible_brands.markup">isomiso2avc1mp41</property>
  <property name="meta.attr.encoder.markup">Lavf58.45.100</property>
  <property name="meta.media.sample_aspect_num">1</property>
  <property name="meta.media.sample_aspect_den">1</property>
  <property name="meta.media.frame_rate_num">24</property>
  <property name="meta.media.frame_rate_den">1</property>
  <property name="meta.media.colorspace">709</property>
  <property name="meta.media.color_trc">2</property>
  <property name="meta.media.width">1920</property>
  <property name="meta.media.height">1080</property>
  <property name="meta.media.color_range">mpeg</property>
  <property name="meta.media.top_field_first">0</property>
  <property name="meta.media.progressive">1</property>
  <property name="set.test_audio">1</property>
  <property name="set.test_image">0</property>
 </producer>
 <producer id="producer153" in="00:00:00.000" out="00:02:24.933">
  <property name="length">00:02:25.000</property>
  <property name="eof">pause</property>
  <property name="resource">/home/ryankelln/Documents/Projects/Active/Sound_Escapes/Jackson/footage/sunrise_timelapse_slow_water.mp4</property>
  <property name="audio_index">-1</property>
  <property name="video_index">0</property>
  <property name="mute_on_pause">0</property>
  <property name="mlt_service">avformat-novalidate</property>
  <property name="seekable">1</property>
  <property name="aspect_ratio">1</property>
  <property name="kdenlive:clipname"/>
  <property name="kdenlive:folderid">-1</property>
  <property name="kdenlive:id">21</property>
  <property name="kdenlive:file_size">55946459</property>
  <property name="kdenlive:file_hash">215e61a2f32aa22723740ba4dea82087</property>
  <property name="global_feed">1</property>
  <property name="xml">was here</property>
  <property name="meta.media.nb_streams">1</property>
  <property name="meta.media.0.stream.type">video</property>
  <property name="meta.media.0.stream.frame_rate">59.9401</property>
  <property name="meta.media.0.stream.sample_aspect_ratio">1</property>
  <property name="meta.media.0.codec.width">1920</property>
  <property name="meta.media.0.codec.height">1080</property>
  <property name="meta.media.0.codec.rotate">0</property>
  <property name="meta.media.0.codec.frame_rate">59.9401</property>
  <property name="meta.media.0.codec.pix_fmt">yuvj420p</property>
  <property name="meta.media.0.codec.sample_aspect_ratio">1</property>
  <property name="meta.media.0.codec.colorspace">709</property>
  <property name="meta.media.0.codec.name">h264</property>
  <property name="meta.media.0.codec.long_name">H.264 / AVC / MPEG-4 AVC / MPEG-4 part 10</property>
  <property name="meta.media.0.codec.bit_rate">3080625</property>
  <property name="meta.attr.0.stream.handler_name.markup">VideoHandler</property>
  <property name="meta.attr.0.stream.vendor_id.markup">[0][0][0][0]</property>
  <property name="meta.attr.major_brand.markup">isom</property>
  <property name="meta.attr.minor_version.markup">512</property>
  <property name="meta.attr.compatible_brands.markup">isomiso2avc1mp41</property>
  <property name="meta.attr.encoder.markup">Lavf58.45.100</property>
  <property name="meta.media.sample_aspect_num">1</property>
  <property name="meta.media.sample_aspect_den">1</property>
  <property name="meta.media.frame_rate_num">60000</property>
  <property name="meta.media.frame_rate_den">1001</property>
  <property name="meta.media.colorspace">709</property>
  <property name="meta.media.color_trc">2</property>
  <property name="meta.media.width">1920</property>
  <property name="meta.media.height">1080</property>
  <property name="meta.media.color_range">full</property>
  <property name="meta.media.top_field_first">0</property>
  <property name="meta.media.progressive">1</property>
  <property name="set.test_audio">1</property>
  <property name="set.test_image">0</property>
 </producer>
 <producer id="producer154" in="00:00:00.000" out="00:00:36.867">
  <property name="length">00:00:36.933</property>
  <property name="eof">pause</property>
  <property name="resource">/home/ryankelln/Documents/Projects/Active/Sound_Escapes/Jackson/footage/SeagullsCloseMaster_h264.mp4</property>
  <property name="audio_index">-1</property>
  <property name="video_index">0</property>
  <property name="mute_on_pause">0</property>
  <property name="mlt_service">avformat-novalidate</property>
  <property name="seekable">1</property>
  <property name="aspect_ratio">1</property>
  <property name="kdenlive:clipname"/>
  <property name="kdenlive:folderid">-1</property>
  <property name="kdenlive:id">10</property>
  <property name="kdenlive:file_size">49278582</property>
  <property name="kdenlive:file_hash">b2be9f3e4ba5a4ff8901ca563d188491</property>
  <property name="global_feed">1</property>
  <property name="xml">was here</property>
  <property name="meta.media.nb_streams">1</property>
  <property name="meta.media.0.stream.type">video</property>
  <property name="meta.media.0.stream.frame_rate">23.976</property>
  <property name="meta.media.0.stream.sample_aspect_ratio">0</property>
  <property name="meta.media.0.codec.width">1920</property>
  <property name="meta.media.0.codec.height">1080</property>
  <property name="meta.media.0.codec.rotate">0</property>
  <property name="meta.media.0.codec.frame_rate">23.976</property>
  <property name="meta.media.0.codec.pix_fmt">yuv420p</property>
  <property name="meta.media.0.codec.sample_aspect_ratio">1</property>
  <property name="meta.media.0.codec.colorspace">709</property>
  <property name="meta.media.0.codec.name">h264</property>
  <property name="meta.media.0.codec.long_name">H.264 / AVC / MPEG-4 AVC / MPEG-4 part 10</property>
  <property name="meta.media.0.codec.bit_rate">10664727</property>
  <property name="meta.attr.0.stream.creation_time.markup">2013-11-30T22:42:06.000000Z</property>
  <property name="meta.attr.0.stream.language.markup">eng</property>
  <property name="meta.attr.0.stream.handler_name.markup">Mainconcept MP4 Video Media Handler</property>
  <property name="meta.attr.0.stream.vendor_id.markup">[0][0][0][0]</property>
  <property name="meta.attr.0.stream.encoder.markup">AVC Coding</property>
  <property name="meta.attr.major_brand.markup">mp42</property>
  <property name="meta.attr.minor_version.markup">0</property>
  <property name="meta.attr.compatible_brands.markup">mp42mp41</property>
  <property name="meta.attr.creation_time.markup">2013-11-30T22:42:06.000000Z</property>
  <property name="meta.media.sample_aspect_num">1</property>
  <property name="meta.media.sample_aspect_den">1</property>
  <property name="meta.media.frame_rate_num">2997</property>
  <property name="meta.media.frame_rate_den">125</property>
  <property name="meta.media.colorspace">709</property>
  <property name="meta.media.color_trc">2</property>
  <property name="meta.media.width">1920</property>
  <property name="meta.media.height">1080</property>
  <property name="meta.media.color_range">mpeg</property>
  <property name="meta.media.top_field_first">0</property>
  <property name="meta.media.progressive">1</property>
  <property name="set.test_audio">1</property>
  <property name="set.test_image">0</property>
 </producer>
 <producer id="producer155" in="00:00:00.000" out="00:00:55.533">
  <property name="length">00:00:55.600</property>
  <property name="eof">pause</property>
  <property name="resource">/home/ryankelln/Documents/Projects/Active/Sound_Escapes/Jackson/footage/Lake, sunset - birds flying to the camera - gopro (1080p)-lhgGDBMz3II.mp4</property>
  <property name="audio_index">1</property>
  <property name="video_index">0</property>
  <property name="mute_on_pause">0</property>
  <property name="mlt_service">avformat-novalidate</property>
  <property name="seekable">1</property>
  <property name="aspect_ratio">1</property>
  <property name="kdenlive:clipname"/>
  <property name="kdenlive:folderid">-1</property>
  <property name="kdenlive:id">7</property>
  <property name="kdenlive:file_size">31173362</property>
  <property name="kdenlive:file_hash">0408cbd72758135322641a2976371d84</property>
  <property name="kdenlive:audio_max">1</property>
  <property name="global_feed">1</property>
  <property name="xml">was here</property>
  <property name="meta.media.nb_streams">2</property>
  <property name="meta.media.0.stream.type">video</property>
  <property name="meta.media.0.stream.frame_rate">29.97</property>
  <property name="meta.media.0.stream.sample_aspect_ratio">1</property>
  <property name="meta.media.0.codec.width">1920</property>
  <property name="meta.media.0.codec.height">1080</property>
  <property name="meta.media.0.codec.rotate">0</property>
  <property name="meta.media.0.codec.frame_rate">29.97</property>
  <property name="meta.media.0.codec.pix_fmt">yuv420p</property>
  <property name="meta.media.0.codec.sample_aspect_ratio">1</property>
  <property name="meta.media.0.codec.colorspace">709</property>
  <property name="meta.media.0.codec.color_trc">1</property>
  <property name="meta.media.0.codec.name">h264</property>
  <property name="meta.media.0.codec.long_name">H.264 / AVC / MPEG-4 AVC / MPEG-4 part 10</property>
  <property name="meta.media.0.codec.bit_rate">4354633</property>
  <property name="meta.attr.0.stream.handler_name.markup">VideoHandler</property>
  <property name="meta.attr.0.stream.vendor_id.markup">[0][0][0][0]</property>
  <property name="meta.media.1.stream.type">audio</property>
  <property name="meta.media.1.codec.sample_fmt">fltp</property>
  <property name="meta.media.1.codec.sample_rate">44100</property>
  <property name="meta.media.1.codec.channels">2</property>
  <property name="meta.media.1.codec.name">aac</property>
  <property name="meta.media.1.codec.long_name">AAC (Advanced Audio Coding)</property>
  <property name="meta.media.1.codec.bit_rate">125588</property>
  <property name="meta.attr.1.stream.handler_name.markup">SoundHandler</property>
  <property name="meta.attr.1.stream.vendor_id.markup">[0][0][0][0]</property>
  <property name="meta.attr.major_brand.markup">isom</property>
  <property name="meta.attr.minor_version.markup">512</property>
  <property name="meta.attr.compatible_brands.markup">isomiso2avc1mp41</property>
  <property name="meta.attr.encoder.markup">Lavf58.45.100</property>
  <property name="meta.media.sample_aspect_num">1</property>
  <property name="meta.media.sample_aspect_den">1</property>
  <property name="meta.media.frame_rate_num">30000</property>
  <property name="meta.media.frame_rate_den">1001</property>
  <property name="meta.media.colorspace">709</property>
  <property name="meta.media.color_trc">1</property>
  <property name="meta.media.width">1920</property>
  <property name="meta.media.height">1080</property>
  <property name="meta.media.color_range">mpeg</property>
  <property name="meta.media.top_field_first">0</property>
  <property name="meta.media.progressive">1</property>
  <property name="set.test_audio">1</property>
  <property name="set.test_image">0</property>
 </producer>
 <producer id="producer156" in="00:00:00.000" out="00:00:48.533">
  <property name="length">00:00:48.600</property>
  <property name="eof">pause</property>
  <property name="resource">/home/ryankelln/Documents/Projects/Active/Sound_Escapes/Jackson/footage/Marbled Godwits in Flight  720p.mp4</property>
  <property name="audio_index">1</property>
  <property name="video_index">0</property>
  <property name="mute_on_pause">0</property>
  <property name="mlt_service">avformat-novalidate</property>
  <property name="seekable">1</property>
  <property name="aspect_ratio">1</property>
  <property name="kdenlive:clipname"/>
  <property name="kdenlive:folderid">-1</property>
  <property name="kdenlive:id">8</property>
  <property name="kdenlive:file_size">28194251</property>
  <property name="kdenlive:file_hash">b02bfde09cda273fcc90d0c8b2843dc4</property>
  <property name="kdenlive:audio_max">5</property>
  <property name="global_feed">1</property>
  <property name="xml">was here</property>
  <property name="meta.media.nb_streams">2</property>
  <property name="meta.media.0.stream.type">video</property>
  <property name="meta.media.0.stream.frame_rate">29.97</property>
  <property name="meta.media.0.stream.sample_aspect_ratio">1</property>
  <property name="meta.media.0.codec.width">1280</property>
  <property name="meta.media.0.codec.height">720</property>
  <property name="meta.media.0.codec.rotate">0</property>
  <property name="meta.media.0.codec.frame_rate">29.97</property>
  <property name="meta.media.0.codec.pix_fmt">yuv420p</property>
  <property name="meta.media.0.codec.sample_aspect_ratio">1</property>
  <property name="meta.media.0.codec.colorspace">709</property>
  <property name="meta.media.0.codec.color_trc">1</property>
  <property name="meta.media.0.codec.name">h264</property>
  <property name="meta.media.0.codec.long_name">H.264 / AVC / MPEG-4 AVC / MPEG-4 part 10</property>
  <property name="meta.media.0.codec.bit_rate">4537686</property>
  <property name="meta.attr.0.stream.creation_time.markup">2020-12-30T15:41:22.000000Z</property>
  <property name="meta.attr.0.stream.handler_name.markup">ETI ISO Video Media Handler</property>
  <property name="meta.attr.0.stream.vendor_id.markup">[0][0][0][0]</property>
  <property name="meta.attr.0.stream.encoder.markup">Elemental H.264</property>
  <property name="meta.media.1.stream.type">audio</property>
  <property name="meta.media.1.codec.sample_fmt">fltp</property>
  <property name="meta.media.1.codec.sample_rate">48000</property>
  <property name="meta.media.1.codec.channels">2</property>
  <property name="meta.media.1.codec.name">aac</property>
  <property name="meta.media.1.codec.long_name">AAC (Advanced Audio Coding)</property>
  <property name="meta.media.1.codec.bit_rate">96044</property>
  <property name="meta.attr.1.stream.creation_time.markup">2020-12-30T15:41:22.000000Z</property>
  <property name="meta.attr.1.stream.handler_name.markup">ETI ISO Audio Media Handler</property>
  <property name="meta.attr.1.stream.vendor_id.markup">[0][0][0][0]</property>
  <property name="meta.attr.major_brand.markup">M4V </property>
  <property name="meta.attr.minor_version.markup">1</property>
  <property name="meta.attr.compatible_brands.markup">isomavc1mp42</property>
  <property name="meta.attr.creation_time.markup">2020-12-30T15:41:22.000000Z</property>
  <property name="meta.media.sample_aspect_num">1</property>
  <property name="meta.media.sample_aspect_den">1</property>
  <property name="meta.media.frame_rate_num">30000</property>
  <property name="meta.media.frame_rate_den">1001</property>
  <property name="meta.media.colorspace">709</property>
  <property name="meta.media.color_trc">1</property>
  <property name="meta.media.width">1280</property>
  <property name="meta.media.height">720</property>
  <property name="meta.media.color_range">mpeg</property>
  <property name="meta.media.top_field_first">0</property>
  <property name="meta.media.progressive">1</property>
  <property name="set.test_audio">1</property>
  <property name="set.test_image">0</property>
 </producer>
 <producer id="producer157" in="00:00:00.000" out="00:06:29.800">
  <property name="length">00:06:29.867</property>
  <property name="eof">pause</property>
  <property name="resource">/media/storage/media/Videos/mine/music_landscapes/2020-10-17/Grahams_camera/2020-10-17_Presquille_marsh+clouds+reeds.MP4</property>
  <property name="audio_index">1</property>
  <property name="video_index">0</property>
  <property name="mute_on_pause">0</property>
  <property name="mlt_service">avformat-novalidate</property>
  <property name="seekable">1</property>
  <property name="aspect_ratio">1</property>
  <property name="kdenlive:clipname"/>
  <property name="kdenlive:folderid">-1</property>
  <property name="kdenlive:id">12</property>
  <property name="kdenlive:file_size">4264607361</property>
  <property name="kdenlive:file_hash">de175a77979981115146991e2dfa6ede</property>
  <property name="kdenlive:audio_max">1</property>
  <property name="kdenlive:active_streams">-1</property>
  <property name="kdenlive:zone_in">113</property>
  <property name="kdenlive:zone_out">327</property>
  <property name="global_feed">1</property>
  <property name="xml">was here</property>
  <property name="meta.media.nb_streams">3</property>
  <property name="meta.media.0.stream.type">video</property>
  <property name="meta.media.0.stream.frame_rate">59.9401</property>
  <property name="meta.media.0.stream.sample_aspect_ratio">0</property>
  <property name="meta.media.0.codec.width">1920</property>
  <property name="meta.media.0.codec.height">1080</property>
  <property name="meta.media.0.codec.rotate">0</property>
  <property name="meta.media.0.codec.frame_rate">59.9401</property>
  <property name="meta.media.0.codec.pix_fmt">yuvj420p</property>
  <property name="meta.media.0.codec.sample_aspect_ratio">1</property>
  <property name="meta.media.0.codec.colorspace">709</property>
  <property name="meta.media.0.codec.color_trc">1</property>
  <property name="meta.media.0.codec.name">h264</property>
  <property name="meta.media.0.codec.long_name">H.264 / AVC / MPEG-4 AVC / MPEG-4 part 10</property>
  <property name="meta.media.0.codec.bit_rate">85957931</property>
  <property name="meta.attr.0.stream.creation_time.markup">2020-10-17T13:17:18.000000Z</property>
  <property name="meta.attr.0.stream.vendor_id.markup">[0][0][0][0]</property>
  <property name="meta.attr.0.stream.timecode.markup">10:29:01;25</property>
  <property name="meta.media.1.stream.type">audio</property>
  <property name="meta.media.1.codec.sample_fmt">s16</property>
  <property name="meta.media.1.codec.sample_rate">48000</property>
  <property name="meta.media.1.codec.channels">2</property>
  <property name="meta.media.1.codec.name">pcm_s16be</property>
  <property name="meta.media.1.codec.long_name">PCM signed 16-bit big-endian</property>
  <property name="meta.media.1.codec.bit_rate">1536000</property>
  <property name="meta.attr.1.stream.creation_time.markup">2020-10-17T13:17:18.000000Z</property>
  <property name="meta.attr.1.stream.vendor_id.markup">pana</property>
  <property name="meta.attr.1.stream.timecode.markup">10:29:01;25</property>
  <property name="meta.attr.major_brand.markup">mp42</property>
  <property name="meta.attr.minor_version.markup">1</property>
  <property name="meta.attr.compatible_brands.markup">mp42avc1</property>
  <property name="meta.attr.creation_time.markup">2020-10-17T13:17:18.000000Z</property>
  <property name="meta.media.sample_aspect_num">1</property>
  <property name="meta.media.sample_aspect_den">1</property>
  <property name="meta.media.frame_rate_num">60000</property>
  <property name="meta.media.frame_rate_den">1001</property>
  <property name="meta.media.colorspace">709</property>
  <property name="meta.media.color_trc">1</property>
  <property name="meta.media.width">1920</property>
  <property name="meta.media.height">1080</property>
  <property name="meta.media.color_range">full</property>
  <property name="meta.media.top_field_first">0</property>
  <property name="meta.media.progressive">1</property>
  <property name="set.test_audio">1</property>
  <property name="set.test_image">0</property>
 </producer>
 <producer id="producer158" in="00:00:00.000" out="00:11:31.133">
  <property name="length">00:11:31.200</property>
  <property name="eof">pause</property>
  <property name="resource">/media/storage/media/Videos/mine/music_landscapes/2020-10-10/Grahams_camera/2020-10-10_HumberBay_sunrise+city+water+birds_2.MP4</property>
  <property name="audio_index">1</property>
  <property name="video_index">0</property>
  <property name="mute_on_pause">0</property>
  <property name="mlt_service">avformat-novalidate</property>
  <property name="seekable">1</property>
  <property name="aspect_ratio">1</property>
  <property name="kdenlive:clipname"/>
  <property name="kdenlive:folderid">-1</property>
  <property name="kdenlive:id">14</property>
  <property name="kdenlive:file_size">4280543407</property>
  <property name="kdenlive:file_hash">83f4b1376366a84c04eb87b7e84aa6b8</property>
  <property name="kdenlive:audio_max">13</property>
  <property name="global_feed">1</property>
  <property name="xml">was here</property>
  <property name="meta.media.nb_streams">3</property>
  <property name="meta.media.0.stream.type">video</property>
  <property name="meta.media.0.stream.frame_rate">59.9401</property>
  <property name="meta.media.0.stream.sample_aspect_ratio">0</property>
  <property name="meta.media.0.codec.width">1920</property>
  <property name="meta.media.0.codec.height">1080</property>
  <property name="meta.media.0.codec.rotate">0</property>
  <property name="meta.media.0.codec.frame_rate">59.9401</property>
  <property name="meta.media.0.codec.pix_fmt">yuvj420p</property>
  <property name="meta.media.0.codec.sample_aspect_ratio">1</property>
  <property name="meta.media.0.codec.colorspace">709</property>
  <property name="meta.media.0.codec.color_trc">1</property>
  <property name="meta.media.0.codec.name">h264</property>
  <property name="meta.media.0.codec.long_name">H.264 / AVC / MPEG-4 AVC / MPEG-4 part 10</property>
  <property name="meta.media.0.codec.bit_rate">48000020</property>
  <property name="meta.attr.0.stream.creation_time.markup">2020-10-10T07:38:22.000000Z</property>
  <property name="meta.attr.0.stream.vendor_id.markup">[0][0][0][0]</property>
  <property name="meta.attr.0.stream.timecode.markup">07:45:36;03</property>
  <property name="meta.media.1.stream.type">audio</property>
  <property name="meta.media.1.codec.sample_fmt">s16</property>
  <property name="meta.media.1.codec.sample_rate">48000</property>
  <property name="meta.media.1.codec.channels">2</property>
  <property name="meta.media.1.codec.name">pcm_s16be</property>
  <property name="meta.media.1.codec.long_name">PCM signed 16-bit big-endian</property>
  <property name="meta.media.1.codec.bit_rate">1536000</property>
  <property name="meta.attr.1.stream.creation_time.markup">2020-10-10T07:38:22.000000Z</property>
  <property name="meta.attr.1.stream.vendor_id.markup">pana</property>
  <property name="meta.attr.1.stream.timecode.markup">07:45:36;03</property>
  <property name="meta.attr.major_brand.markup">mp42</property>
  <property name="meta.attr.minor_version.markup">1</property>
  <property name="meta.attr.compatible_brands.markup">mp42avc1</property>
  <property name="meta.attr.creation_time.markup">2020-10-10T07:38:22.000000Z</property>
  <property name="meta.media.sample_aspect_num">1</property>
  <property name="meta.media.sample_aspect_den">1</property>
  <property name="meta.media.frame_rate_num">60000</property>
  <property name="meta.media.frame_rate_den">1001</property>
  <property name="meta.media.colorspace">709</property>
  <property name="meta.media.color_trc">1</property>
  <property name="meta.media.width">1920</property>
  <property name="meta.media.height">1080</property>
  <property name="meta.media.color_range">full</property>
  <property name="meta.media.top_field_first">0</property>
  <property name="meta.media.progressive">1</property>
  <property name="set.test_audio">1</property>
  <property name="set.test_image">0</property>
 </producer>
 <producer id="producer159" in="00:00:00.000" out="00:00:51.800">
  <property name="length">00:00:51.867</property>
  <property name="eof">pause</property>
  <property name="resource">/home/ryankelln/Documents/Projects/Active/Sound_Escapes/Jackson/footage/BirdsOnThePost.mp4</property>
  <property name="audio_index">1</property>
  <property name="video_index">0</property>
  <property name="mute_on_pause">0</property>
  <property name="mlt_service">avformat-novalidate</property>
  <property name="seekable">1</property>
  <property name="aspect_ratio">1</property>
  <property name="kdenlive:clipname"/>
  <property name="kdenlive:folderid">-1</property>
  <property name="kdenlive:id">5</property>
  <property name="kdenlive:file_size">292463923</property>
  <property name="kdenlive:file_hash">1e429c3d88a4078b7a293ea92c3b379a</property>
  <property name="kdenlive:audio_max">22</property>
  <property name="global_feed">1</property>
  <property name="xml">was here</property>
  <property name="meta.media.nb_streams">2</property>
  <property name="meta.media.0.stream.type">video</property>
  <property name="meta.media.0.stream.frame_rate">23.976</property>
  <property name="meta.media.0.stream.sample_aspect_ratio">0</property>
  <property name="meta.media.0.codec.width">1920</property>
  <property name="meta.media.0.codec.height">1080</property>
  <property name="meta.media.0.codec.rotate">0</property>
  <property name="meta.media.0.codec.frame_rate">23.976</property>
  <property name="meta.media.0.codec.pix_fmt">yuv420p</property>
  <property name="meta.media.0.codec.sample_aspect_ratio">1</property>
  <property name="meta.media.0.codec.colorspace">709</property>
  <property name="meta.media.0.codec.name">h264</property>
  <property name="meta.media.0.codec.long_name">H.264 / AVC / MPEG-4 AVC / MPEG-4 part 10</property>
  <property name="meta.media.0.codec.bit_rate">44999815</property>
  <property name="meta.attr.0.stream.creation_time.markup">2011-09-09T18:44:36.000000Z</property>
  <property name="meta.attr.0.stream.language.markup">eng</property>
  <property name="meta.attr.0.stream.handler_name.markup">Mainconcept MP4 Video Media Handler</property>
  <property name="meta.attr.0.stream.vendor_id.markup">[0][0][0][0]</property>
  <property name="meta.attr.0.stream.encoder.markup">AVC Coding</property>
  <property name="meta.media.1.stream.type">audio</property>
  <property name="meta.media.1.codec.sample_fmt">fltp</property>
  <property name="meta.media.1.codec.sample_rate">48000</property>
  <property name="meta.media.1.codec.channels">2</property>
  <property name="meta.media.1.codec.name">aac</property>
  <property name="meta.media.1.codec.long_name">AAC (Advanced Audio Coding)</property>
  <property name="meta.media.1.codec.bit_rate">125375</property>
  <property name="meta.attr.1.stream.creation_time.markup">2011-09-09T18:44:36.000000Z</property>
  <property name="meta.attr.1.stream.language.markup">eng</property>
  <property name="meta.attr.1.stream.handler_name.markup">Mainconcept MP4 Sound Media Handler</property>
  <property name="meta.attr.1.stream.vendor_id.markup">[0][0][0][0]</property>
  <property name="meta.attr.major_brand.markup">mp42</property>
  <property name="meta.attr.minor_version.markup">0</property>
  <property name="meta.attr.compatible_brands.markup">mp42mp41</property>
  <property name="meta.attr.creation_time.markup">2011-09-09T18:44:36.000000Z</property>
  <property name="meta.media.sample_aspect_num">1</property>
  <property name="meta.media.sample_aspect_den">1</property>
  <property name="meta.media.frame_rate_num">2997</property>
  <property name="meta.media.frame_rate_den">125</property>
  <property name="meta.media.colorspace">709</property>
  <property name="meta.media.color_trc">2</property>
  <property name="meta.media.width">1920</property>
  <property name="meta.media.height">1080</property>
  <property name="meta.media.color_range">mpeg</property>
  <property name="meta.media.top_field_first">0</property>
  <property name="meta.media.progressive">1</property>
  <property name="set.test_audio">1</property>
  <property name="set.test_image">0</property>
 </producer>
 <playlist id="playlist6">
  <blank length="00:00:07.000"/>
  <entry producer="producer140" in="00:00:01.167" out="00:00:06.800">
   <property name="kdenlive:id">48</property>
  </entry>
  <entry producer="producer140" in="00:00:01.167" out="00:00:06.800">
   <property name="kdenlive:id">48</property>
  </entry>
  <entry producer="producer140" in="00:00:01.167" out="00:00:06.367">
   <property name="kdenlive:id">48</property>
  </entry>
  <entry producer="producer140" in="00:00:01.167" out="00:00:04.800">
   <property name="kdenlive:id">48</property>
  </entry>
  <entry producer="producer141" in="00:00:01.967" out="00:00:03.700">
   <property name="kdenlive:id">48</property>
  </entry>
  <entry producer="producer140" in="00:00:04.600" out="00:00:06.033">
   <property name="kdenlive:id">48</property>
  </entry>
  <entry producer="producer142" in="00:00:00.000" out="00:00:00.700">
   <property name="kdenlive:id">50</property>
  </entry>
  <entry producer="producer142" in="00:00:00.733" out="00:00:07.167">
   <property name="kdenlive:id">50</property>
   <filter id="filter18">
    <property name="rotate_center">1</property>
    <property name="mlt_service">qtblend</property>
    <property name="kdenlive_id">qtblend</property>
    <property name="rect">00:00:00.733=0 0 1920 1080 1</property>
    <property name="rotation">00:00:00.733=33</property>
    <property name="compositing">0</property>
    <property name="distort">0</property>
    <property name="kdenlive:collapsed">0</property>
   </filter>
  </entry>
  <entry producer="producer142" in="00:00:07.200" out="00:00:09.600">
   <property name="kdenlive:id">50</property>
   <filter id="filter19">
    <property name="rotate_center">1</property>
    <property name="mlt_service">qtblend</property>
    <property name="kdenlive_id">qtblend</property>
    <property name="rect">00:00:07.200=0 0 1920 1080 1.000000</property>
    <property name="rotation">00:00:07.200=33</property>
    <property name="compositing">0</property>
    <property name="distort">0</property>
    <property name="kdenlive:collapsed">0</property>
   </filter>
   <filter id="filter20">
    <property name="mirror">vertical</property>
    <property name="mlt_service">mirror</property>
    <property name="kdenlive_id">mirror</property>
    <property name="reverse">1</property>
    <property name="kdenlive:collapsed">0</property>
   </filter>
  </entry>
  <entry producer="producer142" in="00:00:09.633" out="00:00:09.733">
   <property name="kdenlive:id">50</property>
   <filter id="filter21">
    <property name="rotate_center">1</property>
    <property name="mlt_service">qtblend</property>
    <property name="kdenlive_id">qtblend</property>
    <property name="rect">00:00:09.633=0 0 1920 1080 1.000000</property>
    <property name="rotation">00:00:09.633=33</property>
    <property name="compositing">0</property>
    <property name="distort">0</property>
    <property name="kdenlive:collapsed">0</property>
   </filter>
  </entry>
  <entry producer="producer142" in="00:00:09.767" out="00:00:19.800">
   <property name="kdenlive:id">50</property>
   <property name="kdenlive:activeeffect">1</property>
   <filter id="filter22">
    <property name="rotate_center">1</property>
    <property name="mlt_service">qtblend</property>
    <property name="kdenlive_id">qtblend</property>
    <property name="rect">00:00:09.767=0 0 1920 1080 1.000000;00:00:14.667=0 0 1920 1080 1.000000;00:00:14.700=0 0 1920 1080 1.000000;00:00:15.900=0 0 1920 1080 1.000000;00:00:15.933=0 0 1920 1080 1.000000;00:00:17.167=0 0 1920 1080 1.000000;00:00:17.200=0 0 1920 1080 1.000000;00:00:19.000=0 0 1920 1080 1.000000;00:00:19.033=0 0 1920 1080 1.000000;00:00:19.800=0 0 1920 1080 1.000000</property>
    <property name="rotation">00:00:09.767=0;00:00:14.667=-175.814;00:00:14.700=-175.814;00:00:15.900=-219.152;00:00:15.933=-219.152;00:00:17.167=-264.078;00:00:17.200=-264.078;00:00:19.000=-330.486;00:00:19.033=-330.486;00:00:19.800=-360</property>
    <property name="compositing">0</property>
    <property name="distort">0</property>
    <property name="kdenlive:collapsed">0</property>
   </filter>
   <filter id="filter23">
    <property name="rotate_center">1</property>
    <property name="mlt_service">qtblend</property>
    <property name="kdenlive_id">qtblend</property>
    <property name="rect">00:00:09.767|=0 0 1920 1080 1.000000;00:00:10.967~=-538 -233 2880 1620 0.500000;00:00:11.600=-620 -214 2940 1653 0.470000;00:00:12.233=-678 -217 2880 1620 0.500000;00:00:12.633=-585 -6 2876 1618 0.500000;00:00:12.933~=-523 122 2876 1618 0.500000;00:00:13.500~=-267 608 2877 1618 0.500000;00:00:14.067~=92 661 2878 1618 0.500000;00:00:14.667~=268 420 2880 1620 0.500000;00:00:14.700~=268 420 2880 1620 0.500000;00:00:15.900~=836 -55 2880 1620 0.500000;00:00:15.933~=836 -55 2880 1620 0.500000;00:00:17.167~=311 -495 2880 1620 0.500000;00:00:17.200~=311 -495 2880 1620 0.500000;00:00:18.067~=-428 -997 2880 1620 0.500000;00:00:19.000~=-1103 -906 2880 1620 0.500000;00:00:19.033~=-1103 -906 2880 1620 0.500000;00:00:19.800=0 0 1920 1080 1.000000</property>
    <property name="rotation">00:00:09.767|=0;00:00:10.967~=0;00:00:11.600=0;00:00:12.233=0;00:00:12.633=0;00:00:12.933~=0;00:00:13.500~=0;00:00:14.067~=0;00:00:14.667~=0;00:00:14.700~=0;00:00:15.900~=0;00:00:15.933~=0;00:00:17.167~=0;00:00:17.200~=0;00:00:18.067~=0;00:00:19.000~=0;00:00:19.033~=0;00:00:19.800=0</property>
    <property name="compositing">0</property>
    <property name="distort">0</property>
    <property name="kdenlive:collapsed">0</property>
   </filter>
  </entry>
  <entry producer="producer143" in="00:00:11.067" out="00:00:20.633">
   <property name="kdenlive:id">50</property>
   <filter id="filter24">
    <property name="rotate_center">1</property>
    <property name="mlt_service">qtblend</property>
    <property name="kdenlive_id">qtblend</property>
    <property name="rect">00:00:11.067=0 0 1920 1080 1.000000;00:00:19.967=0 0 1920 1080 1.000000;00:00:20.633=0 0 1920 1080 1.000000</property>
    <property name="rotation">00:00:11.067=0;00:00:19.967=-334.913;00:00:20.633=-360</property>
    <property name="compositing">0</property>
    <property name="distort">0</property>
    <property name="kdenlive:collapsed">0</property>
   </filter>
   <filter id="filter25">
    <property name="rotate_center">1</property>
    <property name="mlt_service">qtblend</property>
    <property name="kdenlive_id">qtblend</property>
    <property name="rect">00:00:11.067|=0 0 1920 1080 1.000000;00:00:20.633=0 0 1920 1080 1.000000</property>
    <property name="rotation">00:00:11.067|=0;00:00:20.633=0</property>
    <property name="compositing">0</property>
    <property name="distort">0</property>
    <property name="kdenlive:collapsed">0</property>
   </filter>
  </entry>
  <entry producer="producer144" in="00:01:56.567" out="00:01:58.467">
   <property name="kdenlive:id">52</property>
  </entry>
  <blank length="00:00:01.533"/>
  <entry producer="producer144" in="00:02:42.267" out="00:02:43.767">
   <property name="kdenlive:id">52</property>
  </entry>
  <entry producer="producer144" in="00:02:24.133" out="00:02:24.933">
   <property name="kdenlive:id">52</property>
  </entry>
  <entry producer="producer144" in="00:02:25.300" out="00:02:28.200">
   <property name="kdenlive:id">52</property>
  </entry>
  <entry producer="producer144" in="00:02:16.833" out="00:02:20.300">
   <property name="kdenlive:id">52</property>
  </entry>
  <blank length="00:00:47.667"/>
  <entry producer="producer15" in="00:00:54.333" out="00:02:24.933">
   <property name="kdenlive:id">46</property>
  </entry>
  <blank length="00:00:14.900"/>
  <entry producer="producer145" in="00:00:00.000" out="00:00:03.000">
   <property name="kdenlive:id">126</property>
   <property name="kdenlive:activeeffect">3</property>
   <filter id="filter26">
    <property name="rotate_center">1</property>
    <property name="mlt_service">qtblend</property>
    <property name="kdenlive_id">qtblend</property>
    <property name="rect">00:00:00.000=419 0 1920 1080 1.000000</property>
    <property name="rotation">00:00:00.000=0</property>
    <property name="compositing">0</property>
    <property name="distort">0</property>
    <property name="kdenlive:collapsed">0</property>
   </filter>
   <filter id="filter27">
    <property name="mirror">horizontal</property>
    <property name="mlt_service">mirror</property>
    <property name="kdenlive_id">mirror</property>
    <property name="reverse">0</property>
    <property name="kdenlive:collapsed">0</property>
   </filter>
   <filter id="filter28">
    <property name="mlt_service">avfilter.unsharp</property>
    <property name="kdenlive_id">avfilter.unsharp</property>
    <property name="av.lx">5</property>
    <property name="av.ly">5</property>
    <property name="av.la">2</property>
    <property name="av.cx">5</property>
    <property name="av.cy">5</property>
    <property name="av.ca">1</property>
    <property name="kdenlive:collapsed">0</property>
   </filter>
   <filter id="filter29">
    <property name="lift_r">-0.11249</property>
    <property name="lift_g">-0.11249</property>
    <property name="lift_b">-0.11249</property>
    <property name="gamma_r">1.11251</property>
    <property name="gamma_g">1.11251</property>
    <property name="gamma_b">1.11251</property>
    <property name="gain_r">1.20003</property>
    <property name="gain_g">1.20003</property>
    <property name="gain_b">1.20003</property>
    <property name="mlt_service">lift_gamma_gain</property>
    <property name="kdenlive_id">lift_gamma_gain</property>
    <property name="kdenlive:collapsed">0</property>
    <property name="disable">0</property>
   </filter>
  </entry>
  <blank length="00:03:42.733"/>
  <entry producer="producer146" in="00:00:00.467" out="00:00:04.600">
   <property name="kdenlive:id">4</property>
  </entry>
  <entry producer="producer3" in="00:00:04.533" out="00:00:06.600">
   <property name="kdenlive:id">4</property>
  </entry>
  <entry producer="producer3" in="00:00:00.467" out="00:00:04.600">
   <property name="kdenlive:id">4</property>
  </entry>
  <entry producer="producer147" in="00:00:01.267" out="00:00:04.800">
   <property name="kdenlive:id">4</property>
  </entry>
  <entry producer="producer148" in="00:00:01.267" out="00:00:04.800">
   <property name="kdenlive:id">4</property>
  </entry>
  <entry producer="producer149" in="00:00:01.267" out="00:00:04.867">
   <property name="kdenlive:id">4</property>
  </entry>
  <entry producer="producer150" in="00:00:01.267" out="00:00:04.867">
   <property name="kdenlive:id">4</property>
  </entry>
  <entry producer="producer151" in="00:00:01.267" out="00:00:02.600">
   <property name="kdenlive:id">4</property>
  </entry>
  <blank length="00:00:17.067"/>
  <entry producer="producer152" in="00:00:00.000" out="00:00:51.867">
   <property name="kdenlive:id">18</property>
  </entry>
  <entry producer="producer153" in="00:00:00.000" out="00:01:38.233">
   <property name="kdenlive:id">21</property>
  </entry>
  <blank length="00:00:09.000"/>
  <entry producer="producer26" in="00:00:00.000" out="00:00:33.067">
   <property name="kdenlive:id">26</property>
  </entry>
  <blank length="00:00:59.800"/>
  <entry producer="producer154" in="00:00:00.000" out="00:00:13.400">
   <property name="kdenlive:id">10</property>
  </entry>
  <entry producer="producer155" in="00:00:00.000" out="00:00:22.000">
   <property name="kdenlive:id">7</property>
   <filter id="filter30" out="00:00:09.533">
    <property name="start">0</property>
    <property name="mlt_service">brightness</property>
    <property name="kdenlive_id">fade_from_black</property>
    <property name="end">1</property>
    <property name="alpha">-1</property>
    <property name="kdenlive:collapsed">0</property>
   </filter>
  </entry>
  <entry producer="producer156" in="00:00:00.000" out="00:00:06.200">
   <property name="kdenlive:id">8</property>
  </entry>
  <blank length="00:00:03.133"/>
  <entry producer="producer3" in="00:00:01.067" out="00:00:05.733">
   <property name="kdenlive:id">4</property>
  </entry>
  <entry producer="producer3" in="00:00:01.067" out="00:00:05.733">
   <property name="kdenlive:id">4</property>
  </entry>
  <blank length="00:00:01.600"/>
  <entry producer="producer157" in="00:00:07.533" out="00:00:21.733">
   <property name="kdenlive:id">12</property>
  </entry>
  <blank length="00:00:08.933"/>
  <entry producer="producer158" in="00:00:00.000" out="00:00:26.933">
   <property name="kdenlive:id">14</property>
   <filter id="filter31" out="00:00:01.333">
    <property name="start">0</property>
    <property name="mlt_service">brightness</property>
    <property name="kdenlive_id">fade_from_black</property>
    <property name="end">1</property>
    <property name="alpha">-1</property>
   </filter>
   <filter id="filter33" in="00:00:25.400" out="00:00:26.933">
    <property name="start">1</property>
    <property name="mlt_service">brightness</property>
    <property name="kdenlive_id">fade_to_black</property>
    <property name="end">0</property>
    <property name="alpha">-1</property>
   </filter>
  </entry>
  <entry producer="producer159" in="00:00:00.000" out="00:00:41.467">
   <property name="kdenlive:id">5</property>
  </entry>
 </playlist>
 <playlist id="playlist7"/>
 <tractor id="tractor3" in="00:00:00.000" out="00:14:53.900">
  <property name="kdenlive:trackheight">69</property>
  <property name="kdenlive:timeline_active">1</property>
  <property name="kdenlive:collapsed">0</property>
  <property name="kdenlive:thumbs_format"/>
  <property name="kdenlive:audio_rec"/>
  <track hide="audio" producer="playlist6"/>
  <track producer="playlist7"/>
 </tractor>
 <producer id="producer160" in="00:00:00.000" out="00:00:06.800">
  <property name="length">205</property>
  <property name="eof">pause</property>
  <property name="resource">/home/ryankelln/.cache/kdenlive/proxy/a96b92c1bace94bc3ed2462f08da2e88.mkv</property>
  <property name="audio_index">1</property>
  <property name="video_index">0</property>
  <property name="mute_on_pause">0</property>
  <property name="mlt_service">avformat-novalidate</property>
  <property name="seekable">1</property>
  <property name="aspect_ratio">1</property>
  <property name="kdenlive:clipname">Bird Flying - Free Stock Creative Commons Video-FrRXDYUatf4.mp4</property>
  <property name="kdenlive:folderid">55</property>
  <property name="kdenlive:id">48</property>
  <property name="kdenlive:file_size">1563626</property>
  <property name="kdenlive:file_hash">a96b92c1bace94bc3ed2462f08da2e88</property>
  <property name="kdenlive:proxy">/home/ryankelln/.cache/kdenlive/proxy/a96b92c1bace94bc3ed2462f08da2e88.mkv</property>
  <property name="kdenlive:originalurl">content/footage/Bird Flying - Free Stock Creative Commons Video-FrRXDYUatf4.mp4</property>
  <property name="kdenlive:original.mlt_type">producer</property>
  <property name="kdenlive:original.in">0</property>
  <property name="kdenlive:original.out">204</property>
  <property name="kdenlive:original.length">205</property>
  <property name="kdenlive:original.eof">pause</property>
  <property name="kdenlive:original.resource">content/footage/Bird Flying - Free Stock Creative Commons Video-FrRXDYUatf4.mp4</property>
  <property name="kdenlive:original.meta.media.nb_streams">2</property>
  <property name="kdenlive:original.meta.media.0.stream.type">video</property>
  <property name="kdenlive:original.meta.media.0.stream.frame_rate">60.233</property>
  <property name="kdenlive:original.meta.media.0.stream.sample_aspect_ratio">1</property>
  <property name="kdenlive:original.meta.media.0.codec.width">1920</property>
  <property name="kdenlive:original.meta.media.0.codec.height">1080</property>
  <property name="kdenlive:original.meta.media.0.codec.rotate">0</property>
  <property name="kdenlive:original.meta.media.0.codec.frame_rate">59.9401</property>
  <property name="kdenlive:original.meta.media.0.codec.pix_fmt">yuv420p</property>
  <property name="kdenlive:original.meta.media.0.codec.sample_aspect_ratio">1</property>
  <property name="kdenlive:original.meta.media.0.codec.colorspace">709</property>
  <property name="kdenlive:original.meta.media.0.codec.color_trc">1</property>
  <property name="kdenlive:original.meta.media.0.codec.name">h264</property>
  <property name="kdenlive:original.meta.media.0.codec.long_name">H.264 / AVC / MPEG-4 AVC / MPEG-4 part 10</property>
  <property name="kdenlive:original.meta.media.0.codec.bit_rate">1702801</property>
  <property name="kdenlive:original.meta.attr.0.stream.handler_name.markup">ISO Media file produced by Google Inc. Created on: 05/11/2021.</property>
  <property name="kdenlive:original.meta.media.1.stream.type">audio</property>
  <property name="kdenlive:original.meta.media.1.codec.sample_fmt">fltp</property>
  <property name="kdenlive:original.meta.media.1.codec.sample_rate">44100</property>
  <property name="kdenlive:original.meta.media.1.codec.channels">2</property>
  <property name="kdenlive:original.meta.media.1.codec.name">aac</property>
  <property name="kdenlive:original.meta.media.1.codec.long_name">AAC (Advanced Audio Coding)</property>
  <property name="kdenlive:original.meta.media.1.codec.bit_rate">127999</property>
  <property name="kdenlive:original.meta.attr.1.stream.handler_name.markup">ISO Media file produced by Google Inc. Created on: 11/30/2018.</property>
  <property name="kdenlive:original.meta.attr.major_brand.markup">isom</property>
  <property name="kdenlive:original.meta.attr.minor_version.markup">512</property>
  <property name="kdenlive:original.meta.attr.compatible_brands.markup">isomiso2avc1mp41</property>
  <property name="kdenlive:original.meta.attr.encoder.markup">Lavf58.45.100</property>
  <property name="kdenlive:original.seekable">1</property>
  <property name="kdenlive:original.width">1920</property>
  <property name="kdenlive:original.height">1080</property>
  <property name="kdenlive:original.meta.media.sample_aspect_num">1</property>
  <property name="kdenlive:original.meta.media.sample_aspect_den">1</property>
  <property name="kdenlive:original.aspect_ratio">1</property>
  <property name="kdenlive:original.audio_index">1</property>
  <property name="kdenlive:original.video_index">0</property>
  <property name="kdenlive:original.mute_on_pause">0</property>
  <property name="kdenlive:original.mlt_service">avformat-novalidate</property>
  <property name="kdenlive:original.kdenlive:folderid">55</property>
  <property name="kdenlive:original.meta.media.frame_rate_num">1360000</property>
  <property name="kdenlive:original.meta.media.frame_rate_den">22579</property>
  <property name="kdenlive:original.meta.media.colorspace">709</property>
  <property name="kdenlive:original.meta.media.color_trc">1</property>
  <property name="kdenlive:original.meta.media.width">1920</property>
  <property name="kdenlive:original.meta.media.height">1080</property>
  <property name="kdenlive:original.meta.media.color_range">mpeg</property>
  <property name="kdenlive:original.kdenlive:id">58</property>
  <property name="kdenlive:original.kdenlive:file_size">1563626</property>
  <property name="kdenlive:original.kdenlive:file_hash">a96b92c1bace94bc3ed2462f08da2e88</property>
  <property name="kdenlive:original.backup">1</property>
  <property name="global_feed">1</property>
  <property name="kdenlive:active_streams">-1</property>
  <property name="xml">was here</property>
  <property name="meta.media.nb_streams">2</property>
  <property name="meta.media.0.stream.type">video</property>
  <property name="meta.media.0.stream.frame_rate">59.9401</property>
  <property name="meta.media.0.stream.sample_aspect_ratio">1</property>
  <property name="meta.media.0.codec.width">640</property>
  <property name="meta.media.0.codec.height">360</property>
  <property name="meta.media.0.codec.rotate">0</property>
  <property name="meta.media.0.codec.frame_rate">1000</property>
  <property name="meta.media.0.codec.pix_fmt">yuvj420p</property>
  <property name="meta.media.0.codec.sample_aspect_ratio">1</property>
  <property name="meta.media.0.codec.colorspace">601</property>
  <property name="meta.media.0.codec.name">mjpeg</property>
  <property name="meta.media.0.codec.long_name">MJPEG (Motion JPEG)</property>
  <property name="meta.media.0.codec.bit_rate">0</property>
  <property name="meta.attr.0.stream.HANDLER_NAME.markup">ISO Media file produced by Google Inc. Created on: 05/11/2021.</property>
  <property name="meta.attr.0.stream.ENCODER.markup">Lavc58.91.100 mjpeg</property>
  <property name="meta.attr.0.stream.DURATION.markup">00:00:06.790000000</property>
  <property name="meta.media.1.stream.type">audio</property>
  <property name="meta.media.1.codec.sample_fmt">s16</property>
  <property name="meta.media.1.codec.sample_rate">44100</property>
  <property name="meta.media.1.codec.channels">2</property>
  <property name="meta.media.1.codec.name">pcm_s16le</property>
  <property name="meta.media.1.codec.long_name">PCM signed 16-bit little-endian</property>
  <property name="meta.media.1.codec.bit_rate">1411200</property>
  <property name="meta.attr.1.stream.HANDLER_NAME.markup">ISO Media file produced by Google Inc. Created on: 11/30/2018.</property>
  <property name="meta.attr.1.stream.ENCODER.markup">Lavc58.91.100 pcm_s16le</property>
  <property name="meta.attr.1.stream.DURATION.markup">00:00:06.826000000</property>
  <property name="meta.attr.COMPATIBLE_BRANDS.markup">isomiso2avc1mp41</property>
  <property name="meta.attr.MAJOR_BRAND.markup">isom</property>
  <property name="meta.attr.MINOR_VERSION.markup">512</property>
  <property name="meta.attr.ENCODER.markup">Lavf58.45.100</property>
  <property name="meta.media.sample_aspect_num">1</property>
  <property name="meta.media.sample_aspect_den">1</property>
  <property name="meta.media.frame_rate_num">19001</property>
  <property name="meta.media.frame_rate_den">317</property>
  <property name="meta.media.colorspace">601</property>
  <property name="meta.media.color_trc">2</property>
  <property name="meta.media.width">640</property>
  <property name="meta.media.height">360</property>
  <property name="meta.media.color_range">full</property>
  <property name="meta.media.top_field_first">0</property>
  <property name="meta.media.progressive">1</property>
  <property name="set.test_audio">1</property>
  <property name="set.test_image">0</property>
 </producer>
 <producer id="producer161" in="00:00:00.000" out="00:00:36.867">
  <property name="length">1109</property>
  <property name="eof">pause</property>
  <property name="resource">/home/ryankelln/.cache/kdenlive/proxy/b2be9f3e4ba5a4ff8901ca563d188491.mkv</property>
  <property name="audio_index">-1</property>
  <property name="video_index">0</property>
  <property name="mute_on_pause">0</property>
  <property name="mlt_service">avformat-novalidate</property>
  <property name="seekable">1</property>
  <property name="aspect_ratio">1</property>
  <property name="kdenlive:clipname">SeagullsCloseMaster_h264.mp4</property>
  <property name="kdenlive:folderid">55</property>
  <property name="kdenlive:id">50</property>
  <property name="kdenlive:file_size">49278582</property>
  <property name="kdenlive:file_hash">b2be9f3e4ba5a4ff8901ca563d188491</property>
  <property name="kdenlive:proxy">/home/ryankelln/.cache/kdenlive/proxy/b2be9f3e4ba5a4ff8901ca563d188491.mkv</property>
  <property name="kdenlive:originalurl">content/footage/SeagullsCloseMaster_h264.mp4</property>
  <property name="kdenlive:original.mlt_type">producer</property>
  <property name="kdenlive:original.in">0</property>
  <property name="kdenlive:original.out">1108</property>
  <property name="kdenlive:original.length">1109</property>
  <property name="kdenlive:original.eof">pause</property>
  <property name="kdenlive:original.resource">content/footage/SeagullsCloseMaster_h264.mp4</property>
  <property name="kdenlive:original.meta.media.nb_streams">1</property>
  <property name="kdenlive:original.meta.media.0.stream.type">video</property>
  <property name="kdenlive:original.meta.media.0.stream.frame_rate">23.976</property>
  <property name="kdenlive:original.meta.media.0.stream.sample_aspect_ratio">0</property>
  <property name="kdenlive:original.meta.media.0.codec.width">1920</property>
  <property name="kdenlive:original.meta.media.0.codec.height">1080</property>
  <property name="kdenlive:original.meta.media.0.codec.rotate">0</property>
  <property name="kdenlive:original.meta.media.0.codec.frame_rate">23.976</property>
  <property name="kdenlive:original.meta.media.0.codec.pix_fmt">yuv420p</property>
  <property name="kdenlive:original.meta.media.0.codec.sample_aspect_ratio">1</property>
  <property name="kdenlive:original.meta.media.0.codec.colorspace">709</property>
  <property name="kdenlive:original.meta.media.0.codec.name">h264</property>
  <property name="kdenlive:original.meta.media.0.codec.long_name">H.264 / AVC / MPEG-4 AVC / MPEG-4 part 10</property>
  <property name="kdenlive:original.meta.media.0.codec.bit_rate">10664727</property>
  <property name="kdenlive:original.meta.attr.0.stream.creation_time.markup">2013-11-30T22:42:06.000000Z</property>
  <property name="kdenlive:original.meta.attr.0.stream.language.markup">eng</property>
  <property name="kdenlive:original.meta.attr.0.stream.handler_name.markup">Mainconcept MP4 Video Media Handler</property>
  <property name="kdenlive:original.meta.attr.0.stream.encoder.markup">AVC Coding</property>
  <property name="kdenlive:original.meta.attr.major_brand.markup">mp42</property>
  <property name="kdenlive:original.meta.attr.minor_version.markup">0</property>
  <property name="kdenlive:original.meta.attr.compatible_brands.markup">mp42mp41</property>
  <property name="kdenlive:original.meta.attr.creation_time.markup">2013-11-30T22:42:06.000000Z</property>
  <property name="kdenlive:original.seekable">1</property>
  <property name="kdenlive:original.width">1920</property>
  <property name="kdenlive:original.height">1080</property>
  <property name="kdenlive:original.meta.media.sample_aspect_num">1</property>
  <property name="kdenlive:original.meta.media.sample_aspect_den">1</property>
  <property name="kdenlive:original.aspect_ratio">1</property>
  <property name="kdenlive:original.audio_index">-1</property>
  <property name="kdenlive:original.video_index">0</property>
  <property name="kdenlive:original.mute_on_pause">0</property>
  <property name="kdenlive:original.mlt_service">avformat-novalidate</property>
  <property name="kdenlive:original.kdenlive:folderid">55</property>
  <property name="kdenlive:original.meta.media.frame_rate_num">2997</property>
  <property name="kdenlive:original.meta.media.frame_rate_den">125</property>
  <property name="kdenlive:original.meta.media.colorspace">709</property>
  <property name="kdenlive:original.meta.media.color_trc">2</property>
  <property name="kdenlive:original.meta.media.width">1920</property>
  <property name="kdenlive:original.meta.media.height">1080</property>
  <property name="kdenlive:original.meta.media.color_range">mpeg</property>
  <property name="kdenlive:original.kdenlive:id">60</property>
  <property name="kdenlive:original.kdenlive:file_size">49278582</property>
  <property name="kdenlive:original.kdenlive:file_hash">b2be9f3e4ba5a4ff8901ca563d188491</property>
  <property name="kdenlive:original.backup">1</property>
  <property name="global_feed">1</property>
  <property name="xml">was here</property>
  <property name="meta.media.nb_streams">1</property>
  <property name="meta.media.0.stream.type">video</property>
  <property name="meta.media.0.stream.frame_rate">23.976</property>
  <property name="meta.media.0.stream.sample_aspect_ratio">1</property>
  <property name="meta.media.0.codec.width">640</property>
  <property name="meta.media.0.codec.height">360</property>
  <property name="meta.media.0.codec.rotate">0</property>
  <property name="meta.media.0.codec.frame_rate">1000</property>
  <property name="meta.media.0.codec.pix_fmt">yuvj420p</property>
  <property name="meta.media.0.codec.sample_aspect_ratio">1</property>
  <property name="meta.media.0.codec.colorspace">601</property>
  <property name="meta.media.0.codec.name">mjpeg</property>
  <property name="meta.media.0.codec.long_name">MJPEG (Motion JPEG)</property>
  <property name="meta.media.0.codec.bit_rate">0</property>
  <property name="meta.attr.0.stream.language.markup">eng</property>
  <property name="meta.attr.0.stream.HANDLER_NAME.markup">Mainconcept MP4 Video Media Handler</property>
  <property name="meta.attr.0.stream.ENCODER.markup">Lavc58.91.100 mjpeg</property>
  <property name="meta.attr.0.stream.DURATION.markup">00:00:36.912000000</property>
  <property name="meta.attr.COMPATIBLE_BRANDS.markup">mp42mp41</property>
  <property name="meta.attr.MAJOR_BRAND.markup">mp42</property>
  <property name="meta.attr.MINOR_VERSION.markup">0</property>
  <property name="meta.attr.ENCODER.markup">Lavf58.45.100</property>
  <property name="meta.media.sample_aspect_num">1</property>
  <property name="meta.media.sample_aspect_den">1</property>
  <property name="meta.media.frame_rate_num">2997</property>
  <property name="meta.media.frame_rate_den">125</property>
  <property name="meta.media.colorspace">601</property>
  <property name="meta.media.color_trc">2</property>
  <property name="meta.media.width">640</property>
  <property name="meta.media.height">360</property>
  <property name="meta.media.color_range">full</property>
  <property name="meta.media.top_field_first">0</property>
  <property name="meta.media.progressive">1</property>
  <property name="set.test_audio">1</property>
  <property name="set.test_image">0</property>
 </producer>
 <producer id="producer162" in="00:00:00.000" out="00:00:20.633">
  <property name="length">621</property>
  <property name="eof">pause</property>
  <property name="resource">1.784722:/home/ryankelln/.cache/kdenlive/proxy/b2be9f3e4ba5a4ff8901ca563d188491.mkv</property>
  <property name="aspect_ratio">1</property>
  <property name="meta.media.nb_streams">1</property>
  <property name="meta.media.0.stream.type">video</property>
  <property name="meta.media.0.stream.frame_rate">23.976</property>
  <property name="meta.media.0.stream.sample_aspect_ratio">1</property>
  <property name="meta.media.0.codec.width">640</property>
  <property name="meta.media.0.codec.height">360</property>
  <property name="meta.media.0.codec.rotate">0</property>
  <property name="meta.media.0.codec.frame_rate">1000</property>
  <property name="meta.media.0.codec.pix_fmt">yuvj420p</property>
  <property name="meta.media.0.codec.sample_aspect_ratio">1</property>
  <property name="meta.media.0.codec.colorspace">601</property>
  <property name="meta.media.0.codec.name">mjpeg</property>
  <property name="meta.media.0.codec.long_name">MJPEG (Motion JPEG)</property>
  <property name="meta.media.0.codec.bit_rate">0</property>
  <property name="meta.attr.0.stream.language.markup">eng</property>
  <property name="meta.attr.0.stream.HANDLER_NAME.markup">Mainconcept MP4 Video Media Handler</property>
  <property name="meta.attr.0.stream.ENCODER.markup">Lavc58.91.100 mjpeg</property>
  <property name="meta.attr.0.stream.DURATION.markup">00:00:36.912000000</property>
  <property name="meta.attr.COMPATIBLE_BRANDS.markup">mp42mp41</property>
  <property name="meta.attr.MAJOR_BRAND.markup">mp42</property>
  <property name="meta.attr.MINOR_VERSION.markup">0</property>
  <property name="meta.attr.ENCODER.markup">Lavf58.45.100</property>
  <property name="seekable">1</property>
  <property name="meta.media.sample_aspect_num">1</property>
  <property name="meta.media.sample_aspect_den">1</property>
  <property name="audio_index">-1</property>
  <property name="video_index">0</property>
  <property name="mute_on_pause">1</property>
  <property name="warp_speed">1.78472</property>
  <property name="warp_resource">/home/ryankelln/.cache/kdenlive/proxy/b2be9f3e4ba5a4ff8901ca563d188491.mkv</property>
  <property name="mlt_service">timewarp</property>
  <property name="kdenlive:proxy">/home/ryankelln/.cache/kdenlive/proxy/b2be9f3e4ba5a4ff8901ca563d188491.mkv</property>
  <property name="kdenlive:originalurl">content/footage/SeagullsCloseMaster_h264.mp4</property>
  <property name="set.test_audio">1</property>
  <property name="set.test_image">0</property>
  <property name="kdenlive:id">50</property>
  <property name="warp_pitch">0</property>
  <property name="meta.media.frame_rate_num">2997</property>
  <property name="meta.media.frame_rate_den">125</property>
  <property name="meta.media.colorspace">601</property>
  <property name="meta.media.color_trc">2</property>
  <property name="meta.media.width">640</property>
  <property name="meta.media.height">360</property>
  <property name="meta.media.color_range">full</property>
  <property name="meta.media.top_field_first">0</property>
  <property name="meta.media.progressive">1</property>
 </producer>
 <producer id="producer163" in="00:00:00.000" out="00:05:19.200">
  <property name="length">9577</property>
  <property name="eof">pause</property>
  <property name="resource">content/footage/Mandarin duck - Mandarijneend - Aix galericulata-49589113.mp4</property>
  <property name="audio_index">1</property>
  <property name="video_index">0</property>
  <property name="mute_on_pause">0</property>
  <property name="mlt_service">avformat-novalidate</property>
  <property name="seekable">1</property>
  <property name="aspect_ratio">1</property>
  <property name="kdenlive:clipname"/>
  <property name="kdenlive:folderid">55</property>
  <property name="kdenlive:id">52</property>
  <property name="kdenlive:file_size">34652899</property>
  <property name="kdenlive:file_hash">d9bf49cb03d10452db376ae93647fe62</property>
  <property name="kdenlive:audio_max">11</property>
  <property name="kdenlive:zone_in">4324</property>
  <property name="kdenlive:zone_out">4569</property>
  <property name="kdenlive:clipzones">[
    {
        "in": 3497,
        "name": "Peek",
        "out": 3632
    },
    {
        "in": 4050,
        "name": "double jump",
        "out": 4103
    },
    {
        "in": 4016,
        "name": "fall1",
        "out": 4049
    },
    {
        "in": 4109,
        "name": "im fine",
        "out": 4184
    },
    {
        "in": 4713,
        "name": "jump",
        "out": 4789
    },
    {
        "in": 4860,
        "name": "jump2",
        "out": 4918
    },
    {
        "in": 4941,
        "name": "double fall",
        "out": 5043
    },
    {
        "in": 4324,
        "name": "double",
        "out": 4569
    }
]
</property>
  <property name="global_feed">1</property>
  <property name="kdenlive:active_streams">-1</property>
  <property name="kdenlive:activeeffect">1</property>
  <property name="xml">was here</property>
  <property name="meta.media.nb_streams">2</property>
  <property name="meta.media.0.stream.type">video</property>
  <property name="meta.media.0.stream.frame_rate">29.97</property>
  <property name="meta.media.0.stream.sample_aspect_ratio">1</property>
  <property name="meta.media.0.codec.width">640</property>
  <property name="meta.media.0.codec.height">480</property>
  <property name="meta.media.0.codec.rotate">0</property>
  <property name="meta.media.0.codec.frame_rate">29.97</property>
  <property name="meta.media.0.codec.pix_fmt">yuv420p</property>
  <property name="meta.media.0.codec.sample_aspect_ratio">1</property>
  <property name="meta.media.0.codec.colorspace">601</property>
  <property name="meta.media.0.codec.name">h264</property>
  <property name="meta.media.0.codec.long_name">H.264 / AVC / MPEG-4 AVC / MPEG-4 part 10</property>
  <property name="meta.media.0.codec.bit_rate">749377</property>
  <property name="meta.attr.0.stream.handler_name.markup">VideoHandler</property>
  <property name="meta.media.1.stream.type">audio</property>
  <property name="meta.media.1.codec.sample_fmt">fltp</property>
  <property name="meta.media.1.codec.sample_rate">44100</property>
  <property name="meta.media.1.codec.channels">2</property>
  <property name="meta.media.1.codec.name">aac</property>
  <property name="meta.media.1.codec.long_name">AAC (Advanced Audio Coding)</property>
  <property name="meta.media.1.codec.bit_rate">111023</property>
  <property name="meta.attr.1.stream.handler_name.markup">SoundHandler</property>
  <property name="meta.attr.major_brand.markup">isom</property>
  <property name="meta.attr.minor_version.markup">512</property>
  <property name="meta.attr.compatible_brands.markup">isomiso2avc1mp41</property>
  <property name="meta.attr.encoder.markup">Lavf58.45.100</property>
  <property name="meta.media.sample_aspect_num">1</property>
  <property name="meta.media.sample_aspect_den">1</property>
  <property name="meta.media.frame_rate_num">30000</property>
  <property name="meta.media.frame_rate_den">1001</property>
  <property name="meta.media.colorspace">601</property>
  <property name="meta.media.color_trc">2</property>
  <property name="meta.media.width">640</property>
  <property name="meta.media.height">480</property>
  <property name="meta.media.color_range">mpeg</property>
  <property name="meta.media.top_field_first">0</property>
  <property name="meta.media.progressive">1</property>
  <property name="set.test_audio">1</property>
  <property name="set.test_image">0</property>
  <filter id="filter34">
   <property name="rotate_center">1</property>
   <property name="mlt_service">qtblend</property>
   <property name="kdenlive_id">qtblend</property>
   <property name="rect">00:00:00.000=0 -180 1920 1440 1.000000</property>
   <property name="rotation">00:00:00.000=0</property>
   <property name="compositing">0</property>
   <property name="distort">1</property>
  </filter>
  <filter id="filter35">
   <property name="mlt_service">avfilter.unsharp</property>
   <property name="kdenlive_id">avfilter.unsharp</property>
   <property name="av.lx">5</property>
   <property name="av.ly">5</property>
   <property name="av.la">1.717</property>
   <property name="av.cx">5</property>
   <property name="av.cy">5</property>
   <property name="av.ca">1.717</property>
  </filter>
 </producer>
 <producer id="producer164" in="00:00:00.000" out="00:01:39.800">
  <property name="length">2995</property>
  <property name="eof">pause</property>
  <property name="resource">/home/ryankelln/.cache/kdenlive/proxy/9145a5a92dfaa149c1e7ffc9b1d1753a.mkv</property>
  <property name="audio_index">-1</property>
  <property name="video_index">0</property>
  <property name="mute_on_pause">0</property>
  <property name="mlt_service">avformat-novalidate</property>
  <property name="seekable">1</property>
  <property name="aspect_ratio">1</property>
  <property name="kdenlive:clipname">boids_3.mp4</property>
  <property name="kdenlive:folderid">-1</property>
  <property name="kdenlive:id">109</property>
  <property name="kdenlive:file_size">10952992</property>
  <property name="kdenlive:file_hash">9145a5a92dfaa149c1e7ffc9b1d1753a</property>
  <property name="kdenlive:proxy">/home/ryankelln/.cache/kdenlive/proxy/9145a5a92dfaa149c1e7ffc9b1d1753a.mkv</property>
  <property name="kdenlive:originalurl">/home/ryankelln/Documents/Projects/Active/Sound_Escapes/Jackson/boid_recordings/boids_3.mp4</property>
  <property name="kdenlive:original.mlt_type">producer</property>
  <property name="kdenlive:original.in">0</property>
  <property name="kdenlive:original.out">2994</property>
  <property name="kdenlive:original.length">2995</property>
  <property name="kdenlive:original.eof">pause</property>
  <property name="kdenlive:original.resource">/home/ryankelln/Documents/Projects/Active/Sound_Escapes/Jackson/boid_recordings/boids_3.mp4</property>
  <property name="kdenlive:original.meta.media.nb_streams">1</property>
  <property name="kdenlive:original.meta.media.0.stream.type">video</property>
  <property name="kdenlive:original.meta.media.0.stream.frame_rate">30</property>
  <property name="kdenlive:original.meta.media.0.stream.sample_aspect_ratio">0</property>
  <property name="kdenlive:original.meta.media.0.codec.width">1920</property>
  <property name="kdenlive:original.meta.media.0.codec.height">1080</property>
  <property name="kdenlive:original.meta.media.0.codec.rotate">0</property>
  <property name="kdenlive:original.meta.media.0.codec.frame_rate">30</property>
  <property name="kdenlive:original.meta.media.0.codec.pix_fmt">yuv420p</property>
  <property name="kdenlive:original.meta.media.0.codec.sample_aspect_ratio">1</property>
  <property name="kdenlive:original.meta.media.0.codec.colorspace">709</property>
  <property name="kdenlive:original.meta.media.0.codec.color_trc">1</property>
  <property name="kdenlive:original.meta.media.0.codec.name">h264</property>
  <property name="kdenlive:original.meta.media.0.codec.long_name">H.264 / AVC / MPEG-4 AVC / MPEG-4 part 10</property>
  <property name="kdenlive:original.meta.media.0.codec.bit_rate">875327</property>
  <property name="kdenlive:original.meta.attr.0.stream.handler_name.markup">VideoHandler</property>
  <property name="kdenlive:original.meta.attr.major_brand.markup">isom</property>
  <property name="kdenlive:original.meta.attr.minor_version.markup">512</property>
  <property name="kdenlive:original.meta.attr.compatible_brands.markup">isomiso2avc1mp41</property>
  <property name="kdenlive:original.meta.attr.encoder.markup">Lavf56.40.101</property>
  <property name="kdenlive:original.seekable">1</property>
  <property name="kdenlive:original.width">1920</property>
  <property name="kdenlive:original.height">1080</property>
  <property name="kdenlive:original.meta.media.sample_aspect_num">1</property>
  <property name="kdenlive:original.meta.media.sample_aspect_den">1</property>
  <property name="kdenlive:original.aspect_ratio">1</property>
  <property name="kdenlive:original.audio_index">-1</property>
  <property name="kdenlive:original.video_index">0</property>
  <property name="kdenlive:original.mute_on_pause">0</property>
  <property name="kdenlive:original.mlt_service">avformat-novalidate</property>
  <property name="kdenlive:original.kdenlive:folderid">-1</property>
  <property name="kdenlive:original.meta.media.frame_rate_num">30</property>
  <property name="kdenlive:original.meta.media.frame_rate_den">1</property>
  <property name="kdenlive:original.meta.media.colorspace">709</property>
  <property name="kdenlive:original.meta.media.color_trc">1</property>
  <property name="kdenlive:original.meta.media.width">1920</property>
  <property name="kdenlive:original.meta.media.height">1080</property>
  <property name="kdenlive:original.meta.media.color_range">mpeg</property>
  <property name="kdenlive:original.kdenlive:id">109</property>
  <property name="kdenlive:original.kdenlive:file_size">10952992</property>
  <property name="kdenlive:original.kdenlive:file_hash">9145a5a92dfaa149c1e7ffc9b1d1753a</property>
  <property name="kdenlive:original.backup">1</property>
  <property name="global_feed">1</property>
  <property name="xml">was here</property>
  <property name="meta.media.nb_streams">1</property>
  <property name="meta.media.0.stream.type">video</property>
  <property name="meta.media.0.stream.frame_rate">30</property>
  <property name="meta.media.0.stream.sample_aspect_ratio">1</property>
  <property name="meta.media.0.codec.width">640</property>
  <property name="meta.media.0.codec.height">360</property>
  <property name="meta.media.0.codec.rotate">0</property>
  <property name="meta.media.0.codec.frame_rate">1000</property>
  <property name="meta.media.0.codec.pix_fmt">yuvj420p</property>
  <property name="meta.media.0.codec.sample_aspect_ratio">1</property>
  <property name="meta.media.0.codec.colorspace">601</property>
  <property name="meta.media.0.codec.name">mjpeg</property>
  <property name="meta.media.0.codec.long_name">MJPEG (Motion JPEG)</property>
  <property name="meta.media.0.codec.bit_rate">0</property>
  <property name="meta.attr.0.stream.HANDLER_NAME.markup">VideoHandler</property>
  <property name="meta.attr.0.stream.ENCODER.markup">Lavc58.91.100 mjpeg</property>
  <property name="meta.attr.0.stream.DURATION.markup">00:01:39.833000000</property>
  <property name="meta.attr.COMPATIBLE_BRANDS.markup">isomiso2avc1mp41</property>
  <property name="meta.attr.MAJOR_BRAND.markup">isom</property>
  <property name="meta.attr.MINOR_VERSION.markup">512</property>
  <property name="meta.attr.ENCODER.markup">Lavf58.45.100</property>
  <property name="meta.media.sample_aspect_num">1</property>
  <property name="meta.media.sample_aspect_den">1</property>
  <property name="meta.media.frame_rate_num">30</property>
  <property name="meta.media.frame_rate_den">1</property>
  <property name="meta.media.colorspace">601</property>
  <property name="meta.media.color_trc">2</property>
  <property name="meta.media.width">640</property>
  <property name="meta.media.height">360</property>
  <property name="meta.media.color_range">full</property>
  <property name="meta.media.top_field_first">0</property>
  <property name="meta.media.progressive">1</property>
  <property name="set.test_audio">1</property>
  <property name="set.test_image">0</property>
 </producer>
 <producer id="producer165" in="00:00:00.000" out="00:00:03.000">
  <property name="length">91</property>
  <property name="eof">pause</property>
  <property name="resource">content/ai/bird_jackson.506.mp4</property>
  <property name="audio_index">-1</property>
  <property name="video_index">0</property>
  <property name="mute_on_pause">0</property>
  <property name="mlt_service">avformat-novalidate</property>
  <property name="seekable">1</property>
  <property name="aspect_ratio">1</property>
  <property name="kdenlive:clipname"/>
  <property name="kdenlive:folderid">71</property>
  <property name="kdenlive:id">114</property>
  <property name="kdenlive:file_size">982330</property>
  <property name="kdenlive:file_hash">6e286275a3e33028f32cd46649162c02</property>
  <property name="global_feed">1</property>
  <property name="xml">was here</property>
  <property name="meta.media.nb_streams">1</property>
  <property name="meta.media.0.stream.type">video</property>
  <property name="meta.media.0.stream.frame_rate">30</property>
  <property name="meta.media.0.stream.sample_aspect_ratio">0</property>
  <property name="meta.media.0.codec.width">512</property>
  <property name="meta.media.0.codec.height">512</property>
  <property name="meta.media.0.codec.rotate">0</property>
  <property name="meta.media.0.codec.frame_rate">30</property>
  <property name="meta.media.0.codec.pix_fmt">yuv444p</property>
  <property name="meta.media.0.codec.sample_aspect_ratio">0</property>
  <property name="meta.media.0.codec.colorspace">601</property>
  <property name="meta.media.0.codec.name">h264</property>
  <property name="meta.media.0.codec.long_name">H.264 / AVC / MPEG-4 AVC / MPEG-4 part 10</property>
  <property name="meta.media.0.codec.bit_rate">2586116</property>
  <property name="meta.attr.0.stream.handler_name.markup">VideoHandler</property>
  <property name="meta.attr.major_brand.markup">isom</property>
  <property name="meta.attr.minor_version.markup">512</property>
  <property name="meta.attr.compatible_brands.markup">isomiso2avc1mp41</property>
  <property name="meta.attr.encoder.markup">Lavf58.76.100</property>
  <property name="meta.media.sample_aspect_num">1</property>
  <property name="meta.media.sample_aspect_den">1</property>
  <property name="meta.media.frame_rate_num">30</property>
  <property name="meta.media.frame_rate_den">1</property>
  <property name="meta.media.colorspace">601</property>
  <property name="meta.media.color_trc">2</property>
  <property name="meta.media.width">512</property>
  <property name="meta.media.height">512</property>
  <property name="meta.media.color_range">mpeg</property>
  <property name="meta.media.top_field_first">0</property>
  <property name="meta.media.progressive">1</property>
  <property name="set.test_audio">1</property>
  <property name="set.test_image">0</property>
 </producer>
 <producer id="producer166" in="00:00:00.000" out="00:00:04.133">
  <property name="length">125</property>
  <property name="eof">pause</property>
  <property name="resource">0.729730:content/ai/bird_trio.510.mp4</property>
  <property name="aspect_ratio">1</property>
  <property name="meta.media.nb_streams">1</property>
  <property name="meta.media.0.stream.type">video</property>
  <property name="meta.media.0.stream.frame_rate">30</property>
  <property name="meta.media.0.stream.sample_aspect_ratio">0</property>
  <property name="meta.media.0.codec.width">512</property>
  <property name="meta.media.0.codec.height">512</property>
  <property name="meta.media.0.codec.rotate">0</property>
  <property name="meta.media.0.codec.frame_rate">30</property>
  <property name="meta.media.0.codec.pix_fmt">yuv444p</property>
  <property name="meta.media.0.codec.sample_aspect_ratio">0</property>
  <property name="meta.media.0.codec.colorspace">601</property>
  <property name="meta.media.0.codec.name">h264</property>
  <property name="meta.media.0.codec.long_name">H.264 / AVC / MPEG-4 AVC / MPEG-4 part 10</property>
  <property name="meta.media.0.codec.bit_rate">1834818</property>
  <property name="meta.attr.0.stream.handler_name.markup">VideoHandler</property>
  <property name="meta.attr.major_brand.markup">isom</property>
  <property name="meta.attr.minor_version.markup">512</property>
  <property name="meta.attr.compatible_brands.markup">isomiso2avc1mp41</property>
  <property name="meta.attr.encoder.markup">Lavf58.76.100</property>
  <property name="seekable">1</property>
  <property name="meta.media.sample_aspect_num">1</property>
  <property name="meta.media.sample_aspect_den">1</property>
  <property name="audio_index">-1</property>
  <property name="video_index">0</property>
  <property name="mute_on_pause">1</property>
  <property name="warp_speed">0.72973</property>
  <property name="warp_resource">content/ai/bird_trio.510.mp4</property>
  <property name="mlt_service">timewarp</property>
  <property name="set.test_audio">1</property>
  <property name="set.test_image">0</property>
  <property name="kdenlive:id">119</property>
  <property name="warp_pitch">0</property>
  <property name="meta.media.frame_rate_num">30</property>
  <property name="meta.media.frame_rate_den">1</property>
  <property name="meta.media.colorspace">601</property>
  <property name="meta.media.color_trc">2</property>
  <property name="meta.media.width">512</property>
  <property name="meta.media.height">512</property>
  <property name="meta.media.color_range">mpeg</property>
  <property name="meta.media.top_field_first">0</property>
  <property name="meta.media.progressive">1</property>
 </producer>
 <producer id="producer167" in="00:00:00.000" out="00:00:01.500">
  <property name="length">46</property>
  <property name="eof">pause</property>
  <property name="resource">-1.969560:content/ai/bird_trio.510.mp4</property>
  <property name="aspect_ratio">1</property>
  <property name="meta.media.nb_streams">1</property>
  <property name="meta.media.0.stream.type">video</property>
  <property name="meta.media.0.stream.frame_rate">30</property>
  <property name="meta.media.0.stream.sample_aspect_ratio">0</property>
  <property name="meta.media.0.codec.width">512</property>
  <property name="meta.media.0.codec.height">512</property>
  <property name="meta.media.0.codec.rotate">0</property>
  <property name="meta.media.0.codec.frame_rate">30</property>
  <property name="meta.media.0.codec.pix_fmt">yuv444p</property>
  <property name="meta.media.0.codec.sample_aspect_ratio">0</property>
  <property name="meta.media.0.codec.colorspace">601</property>
  <property name="meta.media.0.codec.name">h264</property>
  <property name="meta.media.0.codec.long_name">H.264 / AVC / MPEG-4 AVC / MPEG-4 part 10</property>
  <property name="meta.media.0.codec.bit_rate">1834818</property>
  <property name="meta.attr.0.stream.handler_name.markup">VideoHandler</property>
  <property name="meta.attr.major_brand.markup">isom</property>
  <property name="meta.attr.minor_version.markup">512</property>
  <property name="meta.attr.compatible_brands.markup">isomiso2avc1mp41</property>
  <property name="meta.attr.encoder.markup">Lavf58.76.100</property>
  <property name="seekable">1</property>
  <property name="meta.media.sample_aspect_num">1</property>
  <property name="meta.media.sample_aspect_den">1</property>
  <property name="audio_index">-1</property>
  <property name="video_index">0</property>
  <property name="mute_on_pause">1</property>
  <property name="warp_speed">-1.96956</property>
  <property name="warp_resource">content/ai/bird_trio.510.mp4</property>
  <property name="mlt_service">timewarp</property>
  <property name="set.test_audio">1</property>
  <property name="set.test_image">0</property>
  <property name="kdenlive:id">119</property>
  <property name="warp_pitch">0</property>
  <property name="meta.media.frame_rate_num">30</property>
  <property name="meta.media.frame_rate_den">1</property>
  <property name="meta.media.colorspace">601</property>
  <property name="meta.media.color_trc">2</property>
  <property name="meta.media.width">512</property>
  <property name="meta.media.height">512</property>
  <property name="meta.media.color_range">mpeg</property>
  <property name="meta.media.top_field_first">0</property>
  <property name="meta.media.progressive">1</property>
 </producer>
 <producer id="producer168" in="00:00:00.000" out="00:00:19.367">
  <property name="length">580</property>
  <property name="eof">pause</property>
  <property name="resource">2.000000:/home/ryankelln/.cache/kdenlive/proxy/864b2f97137a4fbecddc2412ff0656f6.mkv</property>
  <property name="aspect_ratio">1</property>
  <property name="meta.media.nb_streams">1</property>
  <property name="meta.media.0.stream.type">video</property>
  <property name="meta.media.0.stream.frame_rate">24</property>
  <property name="meta.media.0.stream.sample_aspect_ratio">1</property>
  <property name="meta.media.0.codec.width">640</property>
  <property name="meta.media.0.codec.height">360</property>
  <property name="meta.media.0.codec.rotate">0</property>
  <property name="meta.media.0.codec.frame_rate">1000</property>
  <property name="meta.media.0.codec.pix_fmt">yuvj420p</property>
  <property name="meta.media.0.codec.sample_aspect_ratio">1</property>
  <property name="meta.media.0.codec.colorspace">601</property>
  <property name="meta.media.0.codec.name">mjpeg</property>
  <property name="meta.media.0.codec.long_name">MJPEG (Motion JPEG)</property>
  <property name="meta.media.0.codec.bit_rate">0</property>
  <property name="meta.attr.0.stream.HANDLER_NAME.markup">VideoHandler</property>
  <property name="meta.attr.0.stream.TIMECODE.markup">14:24:43:15</property>
  <property name="meta.attr.0.stream.ENCODER.markup">Lavc58.91.100 mjpeg</property>
  <property name="meta.attr.0.stream.DURATION.markup">00:00:38.792000000</property>
  <property name="meta.attr.MINOR_VERSION.markup">1</property>
  <property name="meta.attr.COMPATIBLE_BRANDS.markup">mp42avc1</property>
  <property name="meta.attr.MAJOR_BRAND.markup">mp42</property>
  <property name="meta.attr.ENCODER.markup">Lavf58.45.100</property>
  <property name="seekable">1</property>
  <property name="meta.media.sample_aspect_num">1</property>
  <property name="meta.media.sample_aspect_den">1</property>
  <property name="audio_index">-1</property>
  <property name="video_index">0</property>
  <property name="mute_on_pause">1</property>
  <property name="warp_speed">2</property>
  <property name="warp_resource">/home/ryankelln/.cache/kdenlive/proxy/864b2f97137a4fbecddc2412ff0656f6.mkv</property>
  <property name="mlt_service">timewarp</property>
  <property name="kdenlive:proxy">/home/ryankelln/.cache/kdenlive/proxy/864b2f97137a4fbecddc2412ff0656f6.mkv</property>
  <property name="kdenlive:originalurl">content/footage/2020-10-24_HighPark_swan+water+trees_2-swan_flap.MP4</property>
  <property name="set.test_audio">1</property>
  <property name="set.test_image">0</property>
  <property name="kdenlive:id">66</property>
  <property name="warp_pitch">0</property>
  <property name="meta.media.frame_rate_num">24</property>
  <property name="meta.media.frame_rate_den">1</property>
  <property name="meta.media.colorspace">601</property>
  <property name="meta.media.color_trc">2</property>
  <property name="meta.media.width">640</property>
  <property name="meta.media.height">360</property>
  <property name="meta.media.color_range">full</property>
  <property name="meta.media.top_field_first">0</property>
  <property name="meta.media.progressive">1</property>
 </producer>
 <producer id="producer169" in="00:00:00.000" out="00:04:20.267">
  <property name="length">7809</property>
  <property name="eof">pause</property>
  <property name="resource">/home/ryankelln/.cache/kdenlive/proxy/576b66f0f2ba78d4966b42a01ecd8793.mkv</property>
  <property name="audio_index">1</property>
  <property name="video_index">0</property>
  <property name="mute_on_pause">0</property>
  <property name="mlt_service">avformat-novalidate</property>
  <property name="seekable">1</property>
  <property name="aspect_ratio">1</property>
  <property name="kdenlive:clipname">Watervogelbond - Sylvan Heights Vogel Park.mp4</property>
  <property name="kdenlive:folderid">55</property>
  <property name="kdenlive:id">63</property>
  <property name="kdenlive:file_size">280645880</property>
  <property name="kdenlive:file_hash">576b66f0f2ba78d4966b42a01ecd8793</property>
  <property name="kdenlive:proxy">/home/ryankelln/.cache/kdenlive/proxy/576b66f0f2ba78d4966b42a01ecd8793.mkv</property>
  <property name="kdenlive:originalurl">content/footage/Watervogelbond - Sylvan Heights Vogel Park.mp4</property>
  <property name="kdenlive:original.mlt_type">producer</property>
  <property name="kdenlive:original.in">0</property>
  <property name="kdenlive:original.out">7808</property>
  <property name="kdenlive:original.length">7809</property>
  <property name="kdenlive:original.eof">pause</property>
  <property name="kdenlive:original.resource">content/footage/Watervogelbond - Sylvan Heights Vogel Park.mp4</property>
  <property name="kdenlive:original.meta.media.nb_streams">2</property>
  <property name="kdenlive:original.meta.media.0.stream.type">video</property>
  <property name="kdenlive:original.meta.media.0.stream.frame_rate">29.97</property>
  <property name="kdenlive:original.meta.media.0.stream.sample_aspect_ratio">0</property>
  <property name="kdenlive:original.meta.media.0.codec.width">1920</property>
  <property name="kdenlive:original.meta.media.0.codec.height">1080</property>
  <property name="kdenlive:original.meta.media.0.codec.rotate">0</property>
  <property name="kdenlive:original.meta.media.0.codec.frame_rate">29970</property>
  <property name="kdenlive:original.meta.media.0.codec.pix_fmt">yuv420p</property>
  <property name="kdenlive:original.meta.media.0.codec.sample_aspect_ratio">0</property>
  <property name="kdenlive:original.meta.media.0.codec.colorspace">709</property>
  <property name="kdenlive:original.meta.media.0.codec.name">h264</property>
  <property name="kdenlive:original.meta.media.0.codec.long_name">H.264 / AVC / MPEG-4 AVC / MPEG-4 part 10</property>
  <property name="kdenlive:original.meta.media.0.codec.bit_rate">8424986</property>
  <property name="kdenlive:original.meta.attr.0.stream.handler_name.markup">VideoHandler</property>
  <property name="kdenlive:original.meta.attr.0.stream.encoder.markup">AVC Coding</property>
  <property name="kdenlive:original.meta.media.1.stream.type">audio</property>
  <property name="kdenlive:original.meta.media.1.codec.sample_fmt">fltp</property>
  <property name="kdenlive:original.meta.media.1.codec.sample_rate">48000</property>
  <property name="kdenlive:original.meta.media.1.codec.channels">2</property>
  <property name="kdenlive:original.meta.media.1.codec.name">aac</property>
  <property name="kdenlive:original.meta.media.1.codec.long_name">AAC (Advanced Audio Coding)</property>
  <property name="kdenlive:original.meta.media.1.codec.bit_rate">195394</property>
  <property name="kdenlive:original.meta.attr.1.stream.handler_name.markup">SoundHandler</property>
  <property name="kdenlive:original.meta.attr.major_brand.markup">mp42</property>
  <property name="kdenlive:original.meta.attr.minor_version.markup">0</property>
  <property name="kdenlive:original.meta.attr.compatible_brands.markup">mp41isom</property>
  <property name="kdenlive:original.seekable">1</property>
  <property name="kdenlive:original.width">1920</property>
  <property name="kdenlive:original.height">1080</property>
  <property name="kdenlive:original.meta.media.sample_aspect_num">1</property>
  <property name="kdenlive:original.meta.media.sample_aspect_den">1</property>
  <property name="kdenlive:original.aspect_ratio">1</property>
  <property name="kdenlive:original.audio_index">1</property>
  <property name="kdenlive:original.video_index">0</property>
  <property name="kdenlive:original.mute_on_pause">0</property>
  <property name="kdenlive:original.mlt_service">avformat-novalidate</property>
  <property name="kdenlive:original.kdenlive:folderid">55</property>
  <property name="kdenlive:original.meta.media.frame_rate_num">2997</property>
  <property name="kdenlive:original.meta.media.frame_rate_den">100</property>
  <property name="kdenlive:original.meta.media.colorspace">709</property>
  <property name="kdenlive:original.meta.media.color_trc">2</property>
  <property name="kdenlive:original.meta.media.width">1920</property>
  <property name="kdenlive:original.meta.media.height">1080</property>
  <property name="kdenlive:original.meta.media.color_range">mpeg</property>
  <property name="kdenlive:original.kdenlive:id">83</property>
  <property name="kdenlive:original.kdenlive:file_size">280645880</property>
  <property name="kdenlive:original.kdenlive:file_hash">576b66f0f2ba78d4966b42a01ecd8793</property>
  <property name="kdenlive:original.backup">1</property>
  <property name="kdenlive:audio_max">6</property>
  <property name="kdenlive:zone_in">5654</property>
  <property name="kdenlive:zone_out">5788</property>
  <property name="kdenlive:clipzones">[
    {
        "in": 5412,
        "name": "bob",
        "out": 5443
    },
    {
        "in": 5654,
        "name": "preen",
        "out": 5788
    }
]
</property>
  <property name="kdenlive:active_streams">-1</property>
  <property name="global_feed">1</property>
  <property name="xml">was here</property>
  <property name="meta.media.nb_streams">2</property>
  <property name="meta.media.0.stream.type">video</property>
  <property name="meta.media.0.stream.frame_rate">29.97</property>
  <property name="meta.media.0.stream.sample_aspect_ratio">0</property>
  <property name="meta.media.0.codec.width">640</property>
  <property name="meta.media.0.codec.height">360</property>
  <property name="meta.media.0.codec.rotate">0</property>
  <property name="meta.media.0.codec.frame_rate">1000</property>
  <property name="meta.media.0.codec.pix_fmt">yuvj420p</property>
  <property name="meta.media.0.codec.sample_aspect_ratio">0</property>
  <property name="meta.media.0.codec.colorspace">601</property>
  <property name="meta.media.0.codec.name">mjpeg</property>
  <property name="meta.media.0.codec.long_name">MJPEG (Motion JPEG)</property>
  <property name="meta.media.0.codec.bit_rate">0</property>
  <property name="meta.attr.0.stream.HANDLER_NAME.markup">VideoHandler</property>
  <property name="meta.attr.0.stream.ENCODER.markup">Lavc58.91.100 mjpeg</property>
  <property name="meta.attr.0.stream.DURATION.markup">00:04:20.360000000</property>
  <property name="meta.media.1.stream.type">audio</property>
  <property name="meta.media.1.codec.sample_fmt">s16</property>
  <property name="meta.media.1.codec.sample_rate">48000</property>
  <property name="meta.media.1.codec.channels">2</property>
  <property name="meta.media.1.codec.name">pcm_s16le</property>
  <property name="meta.media.1.codec.long_name">PCM signed 16-bit little-endian</property>
  <property name="meta.media.1.codec.bit_rate">1536000</property>
  <property name="meta.attr.1.stream.HANDLER_NAME.markup">SoundHandler</property>
  <property name="meta.attr.1.stream.ENCODER.markup">Lavc58.91.100 pcm_s16le</property>
  <property name="meta.attr.1.stream.DURATION.markup">00:04:20.309000000</property>
  <property name="meta.attr.COMPATIBLE_BRANDS.markup">mp41isom</property>
  <property name="meta.attr.MAJOR_BRAND.markup">mp42</property>
  <property name="meta.attr.MINOR_VERSION.markup">0</property>
  <property name="meta.attr.ENCODER.markup">Lavf58.45.100</property>
  <property name="meta.media.sample_aspect_num">1</property>
  <property name="meta.media.sample_aspect_den">1</property>
  <property name="meta.media.frame_rate_num">2997</property>
  <property name="meta.media.frame_rate_den">100</property>
  <property name="meta.media.colorspace">601</property>
  <property name="meta.media.color_trc">2</property>
  <property name="meta.media.width">640</property>
  <property name="meta.media.height">360</property>
  <property name="meta.media.color_range">full</property>
  <property name="meta.media.top_field_first">0</property>
  <property name="meta.media.progressive">1</property>
  <property name="set.test_audio">1</property>
  <property name="set.test_image">0</property>
 </producer>
 <producer id="producer170" in="00:00:00.000" out="00:07:18.367">
  <property name="length">13152</property>
  <property name="eof">pause</property>
  <property name="resource">0.593750:/home/ryankelln/.cache/kdenlive/proxy/576b66f0f2ba78d4966b42a01ecd8793.mkv</property>
  <property name="aspect_ratio">1</property>
  <property name="meta.media.nb_streams">2</property>
  <property name="meta.media.0.stream.type">video</property>
  <property name="meta.media.0.stream.frame_rate">29.97</property>
  <property name="meta.media.0.stream.sample_aspect_ratio">0</property>
  <property name="meta.media.0.codec.width">640</property>
  <property name="meta.media.0.codec.height">360</property>
  <property name="meta.media.0.codec.rotate">0</property>
  <property name="meta.media.0.codec.frame_rate">1000</property>
  <property name="meta.media.0.codec.pix_fmt">yuvj420p</property>
  <property name="meta.media.0.codec.sample_aspect_ratio">0</property>
  <property name="meta.media.0.codec.colorspace">601</property>
  <property name="meta.media.0.codec.name">mjpeg</property>
  <property name="meta.media.0.codec.long_name">MJPEG (Motion JPEG)</property>
  <property name="meta.media.0.codec.bit_rate">0</property>
  <property name="meta.attr.0.stream.HANDLER_NAME.markup">VideoHandler</property>
  <property name="meta.attr.0.stream.ENCODER.markup">Lavc58.91.100 mjpeg</property>
  <property name="meta.attr.0.stream.DURATION.markup">00:04:20.360000000</property>
  <property name="meta.media.1.stream.type">audio</property>
  <property name="meta.media.1.codec.sample_fmt">s16</property>
  <property name="meta.media.1.codec.sample_rate">48000</property>
  <property name="meta.media.1.codec.channels">2</property>
  <property name="meta.media.1.codec.name">pcm_s16le</property>
  <property name="meta.media.1.codec.long_name">PCM signed 16-bit little-endian</property>
  <property name="meta.media.1.codec.bit_rate">1536000</property>
  <property name="meta.attr.1.stream.HANDLER_NAME.markup">SoundHandler</property>
  <property name="meta.attr.1.stream.ENCODER.markup">Lavc58.91.100 pcm_s16le</property>
  <property name="meta.attr.1.stream.DURATION.markup">00:04:20.309000000</property>
  <property name="meta.attr.COMPATIBLE_BRANDS.markup">mp41isom</property>
  <property name="meta.attr.MAJOR_BRAND.markup">mp42</property>
  <property name="meta.attr.MINOR_VERSION.markup">0</property>
  <property name="meta.attr.ENCODER.markup">Lavf58.45.100</property>
  <property name="seekable">1</property>
  <property name="meta.media.sample_aspect_num">1</property>
  <property name="meta.media.sample_aspect_den">1</property>
  <property name="audio_index">1</property>
  <property name="video_index">0</property>
  <property name="mute_on_pause">1</property>
  <property name="warp_speed">0.59375</property>
  <property name="warp_resource">/home/ryankelln/.cache/kdenlive/proxy/576b66f0f2ba78d4966b42a01ecd8793.mkv</property>
  <property name="mlt_service">timewarp</property>
  <property name="kdenlive:proxy">/home/ryankelln/.cache/kdenlive/proxy/576b66f0f2ba78d4966b42a01ecd8793.mkv</property>
  <property name="kdenlive:originalurl">content/footage/Watervogelbond - Sylvan Heights Vogel Park.mp4</property>
  <property name="set.test_audio">1</property>
  <property name="set.test_image">0</property>
  <property name="kdenlive:id">63</property>
  <property name="warp_pitch">0</property>
  <property name="meta.media.frame_rate_num">2997</property>
  <property name="meta.media.frame_rate_den">100</property>
  <property name="meta.media.colorspace">601</property>
  <property name="meta.media.color_trc">2</property>
  <property name="meta.media.width">640</property>
  <property name="meta.media.height">360</property>
  <property name="meta.media.color_range">full</property>
  <property name="meta.media.top_field_first">0</property>
  <property name="meta.media.progressive">1</property>
 </producer>
 <producer id="producer171" in="00:00:00.000" out="00:00:07.800">
  <property name="length">00:00:07.867</property>
  <property name="eof">pause</property>
  <property name="resource">/home/ryankelln/Documents/Projects/Active/Sound_Escapes/Jackson/footage/gull flying slow mo bird and sky-dfA3UASzwS0.mp4</property>
  <property name="audio_index">1</property>
  <property name="video_index">0</property>
  <property name="mute_on_pause">0</property>
  <property name="mlt_service">avformat-novalidate</property>
  <property name="seekable">1</property>
  <property name="aspect_ratio">1</property>
  <property name="kdenlive:clipname"/>
  <property name="kdenlive:folderid">-1</property>
  <property name="kdenlive:id">17</property>
  <property name="kdenlive:file_size">1158331</property>
  <property name="kdenlive:file_hash">5203107a34ef2012072d70e80d74c459</property>
  <property name="kdenlive:audio_max">91</property>
  <property name="global_feed">1</property>
  <property name="xml">was here</property>
  <property name="meta.media.nb_streams">2</property>
  <property name="meta.media.0.stream.type">video</property>
  <property name="meta.media.0.stream.frame_rate">30.0968</property>
  <property name="meta.media.0.stream.sample_aspect_ratio">1</property>
  <property name="meta.media.0.codec.width">1920</property>
  <property name="meta.media.0.codec.height">1080</property>
  <property name="meta.media.0.codec.rotate">0</property>
  <property name="meta.media.0.codec.frame_rate">29.97</property>
  <property name="meta.media.0.codec.pix_fmt">yuv420p</property>
  <property name="meta.media.0.codec.sample_aspect_ratio">1</property>
  <property name="meta.media.0.codec.colorspace">709</property>
  <property name="meta.media.0.codec.color_trc">1</property>
  <property name="meta.media.0.codec.name">h264</property>
  <property name="meta.media.0.codec.long_name">H.264 / AVC / MPEG-4 AVC / MPEG-4 part 10</property>
  <property name="meta.media.0.codec.bit_rate">1049438</property>
  <property name="meta.attr.0.stream.handler_name.markup">ISO Media file produced by Google Inc. Created on: 05/22/2021.</property>
  <property name="meta.attr.0.stream.vendor_id.markup">[0][0][0][0]</property>
  <property name="meta.media.1.stream.type">audio</property>
  <property name="meta.media.1.codec.sample_fmt">fltp</property>
  <property name="meta.media.1.codec.sample_rate">44100</property>
  <property name="meta.media.1.codec.channels">2</property>
  <property name="meta.media.1.codec.name">aac</property>
  <property name="meta.media.1.codec.long_name">AAC (Advanced Audio Coding)</property>
  <property name="meta.media.1.codec.bit_rate">127999</property>
  <property name="meta.attr.1.stream.handler_name.markup">ISO Media file produced by Google Inc.</property>
  <property name="meta.attr.1.stream.vendor_id.markup">[0][0][0][0]</property>
  <property name="meta.attr.major_brand.markup">isom</property>
  <property name="meta.attr.minor_version.markup">512</property>
  <property name="meta.attr.compatible_brands.markup">isomiso2avc1mp41</property>
  <property name="meta.attr.encoder.markup">Lavf58.45.100</property>
  <property name="meta.media.sample_aspect_num">1</property>
  <property name="meta.media.sample_aspect_den">1</property>
  <property name="meta.media.frame_rate_num">1762500</property>
  <property name="meta.media.frame_rate_den">58561</property>
  <property name="meta.media.colorspace">709</property>
  <property name="meta.media.color_trc">1</property>
  <property name="meta.media.width">1920</property>
  <property name="meta.media.height">1080</property>
  <property name="meta.media.color_range">mpeg</property>
  <property name="meta.media.top_field_first">0</property>
  <property name="meta.media.progressive">1</property>
  <property name="set.test_audio">1</property>
  <property name="set.test_image">0</property>
 </producer>
 <producer id="producer172" in="00:00:00.000" out="00:01:43.133">
  <property name="length">00:01:43.200</property>
  <property name="eof">pause</property>
  <property name="resource">/home/ryankelln/Documents/Projects/Active/Sound_Escapes/Jackson/storyboard/boids_start_white_2.mp4</property>
  <property name="audio_index">-1</property>
  <property name="video_index">0</property>
  <property name="mute_on_pause">0</property>
  <property name="mlt_service">avformat-novalidate</property>
  <property name="seekable">1</property>
  <property name="aspect_ratio">1</property>
  <property name="kdenlive:clipname"/>
  <property name="kdenlive:folderid">-1</property>
  <property name="kdenlive:id">20</property>
  <property name="kdenlive:file_size">24364441</property>
  <property name="kdenlive:file_hash">e0953d7fecaa3d98cc4e1780f318068e</property>
  <property name="kdenlive:zone_in">260</property>
  <property name="kdenlive:zone_out">615</property>
  <property name="kdenlive:clipzones">[
    {
        "in": 260,
        "name": "Zone 2",
        "out": 615
    }
]
</property>
  <property name="global_feed">1</property>
  <property name="xml">was here</property>
  <property name="meta.media.nb_streams">1</property>
  <property name="meta.media.0.stream.type">video</property>
  <property name="meta.media.0.stream.frame_rate">30</property>
  <property name="meta.media.0.stream.sample_aspect_ratio">1</property>
  <property name="meta.media.0.codec.width">1920</property>
  <property name="meta.media.0.codec.height">1080</property>
  <property name="meta.media.0.codec.rotate">0</property>
  <property name="meta.media.0.codec.frame_rate">30</property>
  <property name="meta.media.0.codec.pix_fmt">yuv444p</property>
  <property name="meta.media.0.codec.sample_aspect_ratio">1</property>
  <property name="meta.media.0.codec.colorspace">709</property>
  <property name="meta.media.0.codec.color_trc">1</property>
  <property name="meta.media.0.codec.name">h264</property>
  <property name="meta.media.0.codec.long_name">H.264 / AVC / MPEG-4 AVC / MPEG-4 part 10</property>
  <property name="meta.media.0.codec.bit_rate">1887071</property>
  <property name="meta.attr.0.stream.creation_time.markup">2021-05-28T20:07:40.000000Z</property>
  <property name="meta.attr.0.stream.handler_name.markup">VideoHandler</property>
  <property name="meta.attr.0.stream.vendor_id.markup">[0][0][0][0]</property>
  <property name="meta.attr.major_brand.markup">mp42</property>
  <property name="meta.attr.minor_version.markup">0</property>
  <property name="meta.attr.compatible_brands.markup">mp42mp41isomiso2</property>
  <property name="meta.attr.creation_time.markup">2021-05-28T20:07:40.000000Z</property>
  <property name="meta.attr.encoder.markup">x264</property>
  <property name="meta.media.sample_aspect_num">1</property>
  <property name="meta.media.sample_aspect_den">1</property>
  <property name="meta.media.frame_rate_num">30</property>
  <property name="meta.media.frame_rate_den">1</property>
  <property name="meta.media.colorspace">709</property>
  <property name="meta.media.color_trc">1</property>
  <property name="meta.media.width">1920</property>
  <property name="meta.media.height">1080</property>
  <property name="meta.media.color_range">mpeg</property>
  <property name="meta.media.top_field_first">0</property>
  <property name="meta.media.progressive">1</property>
  <property name="set.test_audio">1</property>
  <property name="set.test_image">0</property>
 </producer>
 <producer id="producer173" in="00:00:00.000" out="00:02:08.600">
  <property name="length">00:02:08.667</property>
  <property name="eof">pause</property>
  <property name="resource">/home/ryankelln/Documents/Projects/Active/Sound_Escapes/Jackson/storyboard/boids_piano_white.mp4</property>
  <property name="audio_index">-1</property>
  <property name="video_index">0</property>
  <property name="mute_on_pause">0</property>
  <property name="mlt_service">avformat-novalidate</property>
  <property name="seekable">1</property>
  <property name="aspect_ratio">1</property>
  <property name="kdenlive:clipname"/>
  <property name="kdenlive:folderid">-1</property>
  <property name="kdenlive:id">22</property>
  <property name="kdenlive:file_size">90554846</property>
  <property name="kdenlive:file_hash">cf72e1a40d04a6e98f45e6b428dbfe6d</property>
  <property name="kdenlive:zone_in">421</property>
  <property name="kdenlive:zone_out">1040</property>
  <property name="kdenlive:clipzones">[
    {
        "in": 421,
        "name": "Zone 1",
        "out": 1040
    }
]
</property>
  <property name="global_feed">1</property>
  <property name="xml">was here</property>
  <property name="meta.media.nb_streams">1</property>
  <property name="meta.media.0.stream.type">video</property>
  <property name="meta.media.0.stream.frame_rate">30</property>
  <property name="meta.media.0.stream.sample_aspect_ratio">1</property>
  <property name="meta.media.0.codec.width">1920</property>
  <property name="meta.media.0.codec.height">1080</property>
  <property name="meta.media.0.codec.rotate">0</property>
  <property name="meta.media.0.codec.frame_rate">30</property>
  <property name="meta.media.0.codec.pix_fmt">yuv444p</property>
  <property name="meta.media.0.codec.sample_aspect_ratio">1</property>
  <property name="meta.media.0.codec.colorspace">709</property>
  <property name="meta.media.0.codec.color_trc">1</property>
  <property name="meta.media.0.codec.name">h264</property>
  <property name="meta.media.0.codec.long_name">H.264 / AVC / MPEG-4 AVC / MPEG-4 part 10</property>
  <property name="meta.media.0.codec.bit_rate">5627874</property>
  <property name="meta.attr.0.stream.creation_time.markup">2021-05-29T00:14:53.000000Z</property>
  <property name="meta.attr.0.stream.handler_name.markup">VideoHandler</property>
  <property name="meta.attr.0.stream.vendor_id.markup">[0][0][0][0]</property>
  <property name="meta.attr.major_brand.markup">mp42</property>
  <property name="meta.attr.minor_version.markup">0</property>
  <property name="meta.attr.compatible_brands.markup">mp42mp41isomiso2</property>
  <property name="meta.attr.creation_time.markup">2021-05-29T00:14:52.000000Z</property>
  <property name="meta.attr.encoder.markup">x264</property>
  <property name="meta.media.sample_aspect_num">1</property>
  <property name="meta.media.sample_aspect_den">1</property>
  <property name="meta.media.frame_rate_num">30</property>
  <property name="meta.media.frame_rate_den">1</property>
  <property name="meta.media.colorspace">709</property>
  <property name="meta.media.color_trc">1</property>
  <property name="meta.media.width">1920</property>
  <property name="meta.media.height">1080</property>
  <property name="meta.media.color_range">mpeg</property>
  <property name="meta.media.top_field_first">0</property>
  <property name="meta.media.progressive">1</property>
  <property name="set.test_audio">1</property>
  <property name="set.test_image">0</property>
 </producer>
 <producer id="producer174" in="00:00:00.000" out="00:01:15.267">
  <property name="length">00:01:15.333</property>
  <property name="eof">pause</property>
  <property name="resource">/home/ryankelln/Documents/Projects/Active/Sound_Escapes/Jackson/storyboard/boids_on_black.mp4</property>
  <property name="audio_index">-1</property>
  <property name="video_index">0</property>
  <property name="mute_on_pause">0</property>
  <property name="mlt_service">avformat-novalidate</property>
  <property name="seekable">1</property>
  <property name="aspect_ratio">1</property>
  <property name="kdenlive:clipname"/>
  <property name="kdenlive:folderid">-1</property>
  <property name="kdenlive:id">23</property>
  <property name="kdenlive:file_size">28255082</property>
  <property name="kdenlive:file_hash">090b2100d58cef632410291b49a18dae</property>
  <property name="kdenlive:zone_in">101</property>
  <property name="kdenlive:zone_out">640</property>
  <property name="kdenlive:clipzones">[
    {
        "in": 101,
        "name": "Zone 1",
        "out": 640
    }
]
</property>
  <property name="global_feed">1</property>
  <property name="xml">was here</property>
  <property name="meta.media.nb_streams">1</property>
  <property name="meta.media.0.stream.type">video</property>
  <property name="meta.media.0.stream.frame_rate">30</property>
  <property name="meta.media.0.stream.sample_aspect_ratio">1</property>
  <property name="meta.media.0.codec.width">1920</property>
  <property name="meta.media.0.codec.height">1080</property>
  <property name="meta.media.0.codec.rotate">0</property>
  <property name="meta.media.0.codec.frame_rate">30</property>
  <property name="meta.media.0.codec.pix_fmt">yuv444p</property>
  <property name="meta.media.0.codec.sample_aspect_ratio">1</property>
  <property name="meta.media.0.codec.colorspace">709</property>
  <property name="meta.media.0.codec.color_trc">1</property>
  <property name="meta.media.0.codec.name">h264</property>
  <property name="meta.media.0.codec.long_name">H.264 / AVC / MPEG-4 AVC / MPEG-4 part 10</property>
  <property name="meta.media.0.codec.bit_rate">2999478</property>
  <property name="meta.attr.0.stream.creation_time.markup">2021-05-29T00:26:10.000000Z</property>
  <property name="meta.attr.0.stream.handler_name.markup">VideoHandler</property>
  <property name="meta.attr.0.stream.vendor_id.markup">[0][0][0][0]</property>
  <property name="meta.attr.major_brand.markup">mp42</property>
  <property name="meta.attr.minor_version.markup">0</property>
  <property name="meta.attr.compatible_brands.markup">mp42mp41isomiso2</property>
  <property name="meta.attr.creation_time.markup">2021-05-29T00:26:10.000000Z</property>
  <property name="meta.attr.encoder.markup">x264</property>
  <property name="meta.media.sample_aspect_num">1</property>
  <property name="meta.media.sample_aspect_den">1</property>
  <property name="meta.media.frame_rate_num">30</property>
  <property name="meta.media.frame_rate_den">1</property>
  <property name="meta.media.colorspace">709</property>
  <property name="meta.media.color_trc">1</property>
  <property name="meta.media.width">1920</property>
  <property name="meta.media.height">1080</property>
  <property name="meta.media.color_range">mpeg</property>
  <property name="meta.media.top_field_first">0</property>
  <property name="meta.media.progressive">1</property>
  <property name="set.test_audio">1</property>
  <property name="set.test_image">0</property>
 </producer>
 <producer id="producer175" in="00:00:00.000" out="00:02:28.133">
  <property name="length">4445</property>
  <property name="eof">pause</property>
  <property name="resource">/home/ryankelln/Documents/Projects/Active/Sound_Escapes/musician_footage/musicians_greenscreen_test_2.mp4</property>
  <property name="audio_index">-1</property>
  <property name="video_index">0</property>
  <property name="mute_on_pause">0</property>
  <property name="mlt_service">avformat-novalidate</property>
  <property name="seekable">1</property>
  <property name="aspect_ratio">1</property>
  <property name="kdenlive:clipname"/>
  <property name="kdenlive:folderid">-1</property>
  <property name="kdenlive:id">25</property>
  <property name="kdenlive:file_size">78444272</property>
  <property name="kdenlive:file_hash">9297512d6bce04ff44d065ea5c8f4079</property>
  <property name="kdenlive:zone_in">3288</property>
  <property name="kdenlive:zone_out">4418</property>
  <property name="kdenlive:clipzones">[
    {
        "in": 3288,
        "name": "Zone 1",
        "out": 4418
    }
]
</property>
  <property name="global_feed">1</property>
  <property name="xml">was here</property>
  <property name="meta.media.nb_streams">1</property>
  <property name="meta.media.0.stream.type">video</property>
  <property name="meta.media.0.stream.frame_rate">30</property>
  <property name="meta.media.0.stream.sample_aspect_ratio">1</property>
  <property name="meta.media.0.codec.width">1920</property>
  <property name="meta.media.0.codec.height">1080</property>
  <property name="meta.media.0.codec.rotate">0</property>
  <property name="meta.media.0.codec.frame_rate">30</property>
  <property name="meta.media.0.codec.pix_fmt">yuv420p</property>
  <property name="meta.media.0.codec.sample_aspect_ratio">1</property>
  <property name="meta.media.0.codec.colorspace">709</property>
  <property name="meta.media.0.codec.color_trc">1</property>
  <property name="meta.media.0.codec.name">h264</property>
  <property name="meta.media.0.codec.long_name">H.264 / AVC / MPEG-4 AVC / MPEG-4 part 10</property>
  <property name="meta.media.0.codec.bit_rate">4232890</property>
  <property name="meta.attr.0.stream.handler_name.markup">VideoHandler</property>
  <property name="meta.attr.0.stream.vendor_id.markup">[0][0][0][0]</property>
  <property name="meta.attr.major_brand.markup">isom</property>
  <property name="meta.attr.minor_version.markup">512</property>
  <property name="meta.attr.compatible_brands.markup">isomiso2avc1mp41</property>
  <property name="meta.attr.encoder.markup">Lavf58.76.100</property>
  <property name="meta.media.sample_aspect_num">1</property>
  <property name="meta.media.sample_aspect_den">1</property>
  <property name="meta.media.frame_rate_num">30</property>
  <property name="meta.media.frame_rate_den">1</property>
  <property name="meta.media.colorspace">709</property>
  <property name="meta.media.color_trc">1</property>
  <property name="meta.media.width">1920</property>
  <property name="meta.media.height">1080</property>
  <property name="meta.media.color_range">mpeg</property>
  <property name="meta.media.top_field_first">0</property>
  <property name="meta.media.progressive">1</property>
  <property name="set.test_audio">1</property>
  <property name="set.test_image">0</property>
 </producer>
 <producer id="producer176" in="00:00:00.000" out="00:01:03.333">
  <property name="length">00:01:03.400</property>
  <property name="eof">pause</property>
  <property name="resource">/home/ryankelln/Documents/Projects/Active/Sound_Escapes/Jackson/storyboard/boids_example.mp4</property>
  <property name="audio_index">-1</property>
  <property name="video_index">0</property>
  <property name="mute_on_pause">0</property>
  <property name="mlt_service">avformat-novalidate</property>
  <property name="seekable">1</property>
  <property name="aspect_ratio">1</property>
  <property name="kdenlive:clipname"/>
  <property name="kdenlive:id">2</property>
  <property name="kdenlive:file_size">36227186</property>
  <property name="kdenlive:file_hash">a9f23ef42b849fe02bc41447a7de400d</property>
  <property name="kdenlive:folderid">-1</property>
  <property name="global_feed">1</property>
  <property name="xml">was here</property>
  <property name="meta.media.nb_streams">1</property>
  <property name="meta.media.0.stream.type">video</property>
  <property name="meta.media.0.stream.frame_rate">15</property>
  <property name="meta.media.0.stream.sample_aspect_ratio">1</property>
  <property name="meta.media.0.codec.width">1920</property>
  <property name="meta.media.0.codec.height">1080</property>
  <property name="meta.media.0.codec.rotate">0</property>
  <property name="meta.media.0.codec.frame_rate">15</property>
  <property name="meta.media.0.codec.pix_fmt">yuv444p</property>
  <property name="meta.media.0.codec.sample_aspect_ratio">1</property>
  <property name="meta.media.0.codec.colorspace">709</property>
  <property name="meta.media.0.codec.color_trc">1</property>
  <property name="meta.media.0.codec.name">h264</property>
  <property name="meta.media.0.codec.long_name">H.264 / AVC / MPEG-4 AVC / MPEG-4 part 10</property>
  <property name="meta.media.0.codec.bit_rate">4570654</property>
  <property name="meta.attr.0.stream.creation_time.markup">2021-05-14T12:46:12.000000Z</property>
  <property name="meta.attr.0.stream.handler_name.markup">VideoHandler</property>
  <property name="meta.attr.0.stream.vendor_id.markup">[0][0][0][0]</property>
  <property name="meta.attr.major_brand.markup">mp42</property>
  <property name="meta.attr.minor_version.markup">0</property>
  <property name="meta.attr.compatible_brands.markup">mp42mp41isomiso2</property>
  <property name="meta.attr.creation_time.markup">2021-05-14T12:46:12.000000Z</property>
  <property name="meta.attr.encoder.markup">x264</property>
  <property name="meta.media.sample_aspect_num">1</property>
  <property name="meta.media.sample_aspect_den">1</property>
  <property name="meta.media.frame_rate_num">15</property>
  <property name="meta.media.frame_rate_den">1</property>
  <property name="meta.media.colorspace">709</property>
  <property name="meta.media.color_trc">1</property>
  <property name="meta.media.width">1920</property>
  <property name="meta.media.height">1080</property>
  <property name="meta.media.color_range">mpeg</property>
  <property name="meta.media.top_field_first">0</property>
  <property name="meta.media.progressive">1</property>
  <property name="set.test_audio">1</property>
  <property name="set.test_image">0</property>
 </producer>
 <producer id="producer177" in="00:00:00.000" out="00:00:06.733">
  <property name="length">00:00:06.800</property>
  <property name="eof">pause</property>
  <property name="resource">/home/ryankelln/Documents/Projects/Active/Sound_Escapes/Jackson/footage/Bird Flying - Free Stock Creative Commons Video-FrRXDYUatf4.mp4</property>
  <property name="audio_index">1</property>
  <property name="video_index">0</property>
  <property name="mute_on_pause">0</property>
  <property name="mlt_service">avformat-novalidate</property>
  <property name="seekable">1</property>
  <property name="aspect_ratio">1</property>
  <property name="kdenlive:clipname"/>
  <property name="kdenlive:folderid">-1</property>
  <property name="kdenlive:id">4</property>
  <property name="kdenlive:file_size">1563626</property>
  <property name="kdenlive:file_hash">a96b92c1bace94bc3ed2462f08da2e88</property>
  <property name="kdenlive:audio_max">91</property>
  <property name="global_feed">1</property>
  <property name="xml">was here</property>
  <property name="meta.media.nb_streams">2</property>
  <property name="meta.media.0.stream.type">video</property>
  <property name="meta.media.0.stream.frame_rate">60.233</property>
  <property name="meta.media.0.stream.sample_aspect_ratio">1</property>
  <property name="meta.media.0.codec.width">1920</property>
  <property name="meta.media.0.codec.height">1080</property>
  <property name="meta.media.0.codec.rotate">0</property>
  <property name="meta.media.0.codec.frame_rate">59.9401</property>
  <property name="meta.media.0.codec.pix_fmt">yuv420p</property>
  <property name="meta.media.0.codec.sample_aspect_ratio">1</property>
  <property name="meta.media.0.codec.colorspace">709</property>
  <property name="meta.media.0.codec.color_trc">1</property>
  <property name="meta.media.0.codec.name">h264</property>
  <property name="meta.media.0.codec.long_name">H.264 / AVC / MPEG-4 AVC / MPEG-4 part 10</property>
  <property name="meta.media.0.codec.bit_rate">1702801</property>
  <property name="meta.attr.0.stream.handler_name.markup">ISO Media file produced by Google Inc. Created on: 05/11/2021.</property>
  <property name="meta.attr.0.stream.vendor_id.markup">[0][0][0][0]</property>
  <property name="meta.media.1.stream.type">audio</property>
  <property name="meta.media.1.codec.sample_fmt">fltp</property>
  <property name="meta.media.1.codec.sample_rate">44100</property>
  <property name="meta.media.1.codec.channels">2</property>
  <property name="meta.media.1.codec.name">aac</property>
  <property name="meta.media.1.codec.long_name">AAC (Advanced Audio Coding)</property>
  <property name="meta.media.1.codec.bit_rate">127999</property>
  <property name="meta.attr.1.stream.handler_name.markup">ISO Media file produced by Google Inc. Created on: 11/30/2018.</property>
  <property name="meta.attr.1.stream.vendor_id.markup">[0][0][0][0]</property>
  <property name="meta.attr.major_brand.markup">isom</property>
  <property name="meta.attr.minor_version.markup">512</property>
  <property name="meta.attr.compatible_brands.markup">isomiso2avc1mp41</property>
  <property name="meta.attr.encoder.markup">Lavf58.45.100</property>
  <property name="meta.media.sample_aspect_num">1</property>
  <property name="meta.media.sample_aspect_den">1</property>
  <property name="meta.media.frame_rate_num">1360000</property>
  <property name="meta.media.frame_rate_den">22579</property>
  <property name="meta.media.colorspace">709</property>
  <property name="meta.media.color_trc">1</property>
  <property name="meta.media.width">1920</property>
  <property name="meta.media.height">1080</property>
  <property name="meta.media.color_range">mpeg</property>
  <property name="meta.media.variable_frame_rate">1</property>
  <property name="meta.media.top_field_first">0</property>
  <property name="meta.media.progressive">1</property>
  <property name="set.test_audio">1</property>
  <property name="set.test_image">0</property>
 </producer>
 <producer id="producer178" in="00:00:00.000" out="00:00:54.000">
  <property name="length">00:00:54.067</property>
  <property name="eof">pause</property>
  <property name="resource">/home/ryankelln/Documents/Projects/Active/Sound_Escapes/Jackson/storyboard/boids_layer_test.mp4</property>
  <property name="audio_index">-1</property>
  <property name="video_index">0</property>
  <property name="mute_on_pause">0</property>
  <property name="mlt_service">avformat-novalidate</property>
  <property name="seekable">1</property>
  <property name="aspect_ratio">1</property>
  <property name="kdenlive:clipname"/>
  <property name="kdenlive:folderid">-1</property>
  <property name="kdenlive:id">13</property>
  <property name="kdenlive:file_size">83962322</property>
  <property name="kdenlive:file_hash">cb4730f22231c94b650017f17e899df7</property>
  <property name="global_feed">1</property>
  <property name="xml">was here</property>
  <property name="meta.media.nb_streams">1</property>
  <property name="meta.media.0.stream.type">video</property>
  <property name="meta.media.0.stream.frame_rate">30</property>
  <property name="meta.media.0.stream.sample_aspect_ratio">1</property>
  <property name="meta.media.0.codec.width">1920</property>
  <property name="meta.media.0.codec.height">1080</property>
  <property name="meta.media.0.codec.rotate">0</property>
  <property name="meta.media.0.codec.frame_rate">30</property>
  <property name="meta.media.0.codec.pix_fmt">yuv444p</property>
  <property name="meta.media.0.codec.sample_aspect_ratio">1</property>
  <property name="meta.media.0.codec.colorspace">709</property>
  <property name="meta.media.0.codec.color_trc">1</property>
  <property name="meta.media.0.codec.name">h264</property>
  <property name="meta.media.0.codec.long_name">H.264 / AVC / MPEG-4 AVC / MPEG-4 part 10</property>
  <property name="meta.media.0.codec.bit_rate">12422425</property>
  <property name="meta.attr.0.stream.creation_time.markup">2021-05-14T20:53:20.000000Z</property>
  <property name="meta.attr.0.stream.handler_name.markup">VideoHandler</property>
  <property name="meta.attr.0.stream.vendor_id.markup">[0][0][0][0]</property>
  <property name="meta.attr.major_brand.markup">mp42</property>
  <property name="meta.attr.minor_version.markup">0</property>
  <property name="meta.attr.compatible_brands.markup">mp42mp41isomiso2</property>
  <property name="meta.attr.creation_time.markup">2021-05-14T20:53:20.000000Z</property>
  <property name="meta.attr.encoder.markup">x264</property>
  <property name="meta.media.sample_aspect_num">1</property>
  <property name="meta.media.sample_aspect_den">1</property>
  <property name="meta.media.frame_rate_num">30</property>
  <property name="meta.media.frame_rate_den">1</property>
  <property name="meta.media.colorspace">709</property>
  <property name="meta.media.color_trc">1</property>
  <property name="meta.media.width">1920</property>
  <property name="meta.media.height">1080</property>
  <property name="meta.media.color_range">mpeg</property>
  <property name="meta.media.top_field_first">0</property>
  <property name="meta.media.progressive">1</property>
  <property name="set.test_audio">1</property>
  <property name="set.test_image">0</property>
 </producer>
 <playlist id="playlist8">
  <blank length="00:00:12.667"/>
  <entry producer="producer160" in="00:00:01.167" out="00:00:06.800">
   <property name="kdenlive:id">48</property>
   <property name="kdenlive:activeeffect">2</property>
   <filter id="filter36">
    <property name="version">0.1</property>
    <property name="mlt_service">frei0r.mask0mate</property>
    <property name="kdenlive_id">frei0r.mask0mate</property>
    <property name="Left">00:00:01.167=0</property>
    <property name="Right">00:00:01.167=0</property>
    <property name="Top">00:00:01.167=0.343</property>
    <property name="Bottom">00:00:01.167=0.429</property>
    <property name="Invert">1</property>
    <property name="Blur">00:00:01.167=0.116</property>
    <property name="kdenlive:collapsed">0</property>
   </filter>
   <filter id="filter37">
    <property name="rotate_center">1</property>
    <property name="mlt_service">qtblend</property>
    <property name="kdenlive_id">qtblend</property>
    <property name="rect">00:00:01.167=0 144 1920 1080 1.000000</property>
    <property name="rotation">00:00:01.167=0</property>
    <property name="compositing">0</property>
    <property name="distort">0</property>
    <property name="kdenlive:collapsed">0</property>
   </filter>
   <filter id="filter38">
    <property name="version">0.6</property>
    <property name="mlt_service">frei0r.select0r</property>
    <property name="kdenlive_id">frei0r.select0r</property>
    <property name="Color to select">0xb6c5caff</property>
    <property name="Invert selection">1</property>
    <property name="Selection subspace">1</property>
    <property name="Subspace shape">0</property>
    <property name="Edge mode">0.35</property>
    <property name="Delta R / A / Hue">00:00:01.167=0.88</property>
    <property name="Delta G / B / Chroma">00:00:01.167=0.865</property>
    <property name="Delta B / I / I">00:00:01.167=0.378</property>
    <property name="Slope">00:00:01.167=0.243</property>
    <property name="Operation">0.5</property>
    <property name="kdenlive:collapsed">0</property>
    <property name="disable">1</property>
   </filter>
  </entry>
  <entry producer="producer160" in="00:00:01.167" out="00:00:06.367">
   <property name="kdenlive:id">48</property>
   <filter id="filter39">
    <property name="version">0.1</property>
    <property name="mlt_service">frei0r.mask0mate</property>
    <property name="kdenlive_id">frei0r.mask0mate</property>
    <property name="Left">00:00:01.167=0</property>
    <property name="Right">00:00:01.167=0</property>
    <property name="Top">00:00:01.167=0.343</property>
    <property name="Bottom">00:00:01.167=0.429</property>
    <property name="Invert">1</property>
    <property name="Blur">00:00:01.167=0.116</property>
    <property name="kdenlive:collapsed">0</property>
   </filter>
   <filter id="filter40">
    <property name="rotate_center">1</property>
    <property name="mlt_service">qtblend</property>
    <property name="kdenlive_id">qtblend</property>
    <property name="rect">00:00:01.167=0 144 1920 1080 1.000000</property>
    <property name="rotation">00:00:01.167=0</property>
    <property name="compositing">0</property>
    <property name="distort">0</property>
    <property name="kdenlive:collapsed">0</property>
   </filter>
   <filter id="filter41">
    <property name="version">0.6</property>
    <property name="mlt_service">frei0r.select0r</property>
    <property name="kdenlive_id">frei0r.select0r</property>
    <property name="Color to select">0xb6c5caff</property>
    <property name="Invert selection">1</property>
    <property name="Selection subspace">1</property>
    <property name="Subspace shape">0</property>
    <property name="Edge mode">0.35</property>
    <property name="Delta R / A / Hue">00:00:01.167=0.88</property>
    <property name="Delta G / B / Chroma">00:00:01.167=0.865</property>
    <property name="Delta B / I / I">00:00:01.167=0.378</property>
    <property name="Slope">00:00:01.167=0.243</property>
    <property name="Operation">0.5</property>
    <property name="kdenlive:collapsed">0</property>
    <property name="disable">1</property>
   </filter>
  </entry>
  <entry producer="producer160" in="00:00:01.167" out="00:00:04.800">
   <property name="kdenlive:id">48</property>
   <filter id="filter42">
    <property name="version">0.1</property>
    <property name="mlt_service">frei0r.mask0mate</property>
    <property name="kdenlive_id">frei0r.mask0mate</property>
    <property name="Left">00:00:01.167=0</property>
    <property name="Right">00:00:01.167=0</property>
    <property name="Top">00:00:01.167=0.343</property>
    <property name="Bottom">00:00:01.167=0.429</property>
    <property name="Invert">1</property>
    <property name="Blur">00:00:01.167=0.116</property>
   </filter>
   <filter id="filter43">
    <property name="rotate_center">1</property>
    <property name="mlt_service">qtblend</property>
    <property name="kdenlive_id">qtblend</property>
    <property name="rect">00:00:01.167=0 144 1920 1080 1.000000</property>
    <property name="rotation">00:00:01.167=0</property>
    <property name="compositing">0</property>
    <property name="distort">0</property>
   </filter>
   <filter id="filter44">
    <property name="version">0.6</property>
    <property name="mlt_service">frei0r.select0r</property>
    <property name="kdenlive_id">frei0r.select0r</property>
    <property name="Color to select">0xb6c5caff</property>
    <property name="Invert selection">1</property>
    <property name="Selection subspace">1</property>
    <property name="Subspace shape">0</property>
    <property name="Edge mode">0.35</property>
    <property name="Delta R / A / Hue">35=0.88</property>
    <property name="Delta G / B / Chroma">35=0.865</property>
    <property name="Delta B / I / I">35=0.378</property>
    <property name="Slope">35=0.243</property>
    <property name="Operation">0.5</property>
    <property name="disable">1</property>
   </filter>
  </entry>
  <blank length="00:00:05.267"/>
  <entry producer="producer161" in="00:00:02.033" out="00:00:07.167">
   <property name="kdenlive:id">50</property>
   <filter id="filter45">
    <property name="rotate_center">1</property>
    <property name="mlt_service">qtblend</property>
    <property name="kdenlive_id">qtblend</property>
    <property name="rect">00:00:02.033=0 0 1920 1080 1</property>
    <property name="rotation">00:00:02.033=66</property>
    <property name="compositing">0</property>
    <property name="distort">0</property>
    <property name="kdenlive:collapsed">0</property>
   </filter>
  </entry>
  <entry producer="producer161" in="00:00:07.200" out="00:00:09.600">
   <property name="kdenlive:id">50</property>
   <filter id="filter46">
    <property name="rotate_center">1</property>
    <property name="mlt_service">qtblend</property>
    <property name="kdenlive_id">qtblend</property>
    <property name="rect">00:00:07.200=0 0 1920 1080 1.000000</property>
    <property name="rotation">00:00:07.200=66</property>
    <property name="compositing">0</property>
    <property name="distort">0</property>
    <property name="kdenlive:collapsed">0</property>
   </filter>
   <filter id="filter47">
    <property name="mirror">vertical</property>
    <property name="mlt_service">mirror</property>
    <property name="kdenlive_id">mirror</property>
    <property name="reverse">1</property>
    <property name="kdenlive:collapsed">0</property>
   </filter>
  </entry>
  <entry producer="producer161" in="00:00:09.633" out="00:00:09.733">
   <property name="kdenlive:id">50</property>
   <filter id="filter48">
    <property name="rotate_center">1</property>
    <property name="mlt_service">qtblend</property>
    <property name="kdenlive_id">qtblend</property>
    <property name="rect">00:00:09.633=0 0 1920 1080 1.000000</property>
    <property name="rotation">00:00:09.633=66</property>
    <property name="compositing">0</property>
    <property name="distort">0</property>
    <property name="kdenlive:collapsed">0</property>
   </filter>
  </entry>
  <entry producer="producer161" in="00:00:09.767" out="00:00:19.800">
   <property name="kdenlive:id">50</property>
   <property name="kdenlive:activeeffect">1</property>
   <filter id="filter49">
    <property name="rotate_center">1</property>
    <property name="mlt_service">qtblend</property>
    <property name="kdenlive_id">qtblend</property>
    <property name="rect">00:00:09.767=0 0 1920 1080 1.000000;00:00:12.233=0 0 1920 1080 1.000000;00:00:13.467=0 0 1920 1080 1.000000;00:00:14.667=0 0 1920 1080 1.000000;00:00:14.700=0 0 1920 1080 1.000000;00:00:15.900=0 0 1920 1080 1.000000;00:00:15.933=0 0 1920 1080 1.000000;00:00:17.167=0 0 1920 1080 1.000000;00:00:17.200=0 0 1920 1080 1.000000;00:00:19.000=0 0 1920 1080 1.000000;00:00:19.033=0 0 1920 1080 1.000000;00:00:19.800=0 0 1920 1080 1.000000</property>
    <property name="rotation">00:00:09.767=33;00:00:12.233=-55.505;00:00:13.467=-3;00:00:14.667=24;00:00:14.700=24;00:00:15.900=-60;00:00:15.933=-60;00:00:17.167=-90.5652;00:00:17.200=-90.5652;00:00:19.000=-136;00:00:19.033=-136;00:00:19.800=-327</property>
    <property name="compositing">0</property>
    <property name="distort">0</property>
    <property name="kdenlive:collapsed">0</property>
   </filter>
   <filter id="filter50">
    <property name="rotate_center">1</property>
    <property name="mlt_service">qtblend</property>
    <property name="kdenlive_id">qtblend</property>
    <property name="rect">00:00:09.767|=0 0 1920 1080 1.000000;00:00:12.233~=-821 -475 2880 1620 0.500000;00:00:14.067=-1012 -842 2901 1632 0.490000;00:00:14.667~=-929 -880 2880 1620 0.500000;00:00:14.700~=-929 -880 2880 1620 0.500000;00:00:15.300~=-1364 -337 2880 1620 0.500000;00:00:15.900~=-1261 171 2880 1620 0.500000;00:00:15.933~=-1261 171 2880 1620 0.500000;00:00:17.167~=-818 629 2880 1620 0.500000;00:00:17.200~=-818 629 2880 1620 0.500000;00:00:18.100=-457 764 2880 1620 0.500000;00:00:19.000~=-217 722 2880 1621 0.500000;00:00:19.033~=-217 722 2880 1621 0.500000;00:00:19.800=0 0 1920 1080 1.000000</property>
    <property name="rotation">00:00:09.767|=0;00:00:12.233~=0;00:00:14.067=0;00:00:14.667~=0;00:00:14.700~=0;00:00:15.300~=0;00:00:15.900~=0;00:00:15.933~=0;00:00:17.167~=0;00:00:17.200~=0;00:00:18.100=0;00:00:19.000~=0;00:00:19.033~=0;00:00:19.800=0</property>
    <property name="compositing">0</property>
    <property name="distort">0</property>
    <property name="kdenlive:collapsed">0</property>
   </filter>
  </entry>
  <entry producer="producer162" in="00:00:11.067" out="00:00:20.633">
   <property name="kdenlive:id">50</property>
   <filter id="filter51">
    <property name="rotate_center">1</property>
    <property name="mlt_service">qtblend</property>
    <property name="kdenlive_id">qtblend</property>
    <property name="rect">00:00:11.067=0 0 1920 1080 1.000000;00:00:19.967=0 0 1920 1080 1.000000;00:00:20.633=0 0 1920 1080 1.000000</property>
    <property name="rotation">00:00:11.067=33;00:00:19.967=-340;00:00:20.633=-360</property>
    <property name="compositing">0</property>
    <property name="distort">0</property>
    <property name="kdenlive:collapsed">0</property>
   </filter>
   <filter id="filter52">
    <property name="rotate_center">1</property>
    <property name="mlt_service">qtblend</property>
    <property name="kdenlive_id">qtblend</property>
    <property name="rect">00:00:11.067|=0 0 1920 1080 1.000000;00:00:20.633=0 0 1920 1080 1.000000</property>
    <property name="rotation">00:00:11.067|=0;00:00:20.633=0</property>
    <property name="compositing">0</property>
    <property name="distort">0</property>
    <property name="kdenlive:collapsed">0</property>
   </filter>
  </entry>
  <blank length="00:00:01.733"/>
  <entry producer="producer163" in="00:02:37.100" out="00:02:39.033">
   <property name="kdenlive:id">52</property>
  </entry>
  <blank length="00:00:21.600"/>
  <entry producer="producer164" in="00:00:00.333" out="00:00:38.867">
   <property name="kdenlive:id">109</property>
   <property name="kdenlive:activeeffect">2</property>
   <filter id="filter53">
    <property name="version">0.1</property>
    <property name="mlt_service">frei0r.mask0mate</property>
    <property name="kdenlive_id">frei0r.mask0mate</property>
    <property name="Left">00:00:00.333=0</property>
    <property name="Right">00:00:00.333=0</property>
    <property name="Top">00:00:00.333=0</property>
    <property name="Bottom">00:00:00.333=0.235</property>
    <property name="Invert">1</property>
    <property name="Blur">00:00:00.333=0</property>
    <property name="kdenlive:collapsed">0</property>
   </filter>
   <filter id="filter54" in="00:00:35.667" out="00:00:38.867">
    <property name="start">1</property>
    <property name="mlt_service">brightness</property>
    <property name="kdenlive_id">fade_to_black</property>
    <property name="end">0</property>
    <property name="alpha">-1</property>
    <property name="kdenlive:collapsed">0</property>
    <property name="disable">1</property>
   </filter>
   <filter id="filter55">
    <property name="rotate_center">1</property>
    <property name="mlt_service">qtblend</property>
    <property name="kdenlive_id">qtblend</property>
    <property name="rect">00:00:00.333=0 0 1920 1080 1.000000;00:00:36.300=0 0 1920 1080 1.000000;00:00:38.867=-748 0 1920 1080 1.000000</property>
    <property name="rotation">00:00:00.333=0;00:00:36.300=0;00:00:38.867=0</property>
    <property name="compositing">0</property>
    <property name="distort">0</property>
    <property name="kdenlive:collapsed">0</property>
   </filter>
  </entry>
  <blank length="00:01:39.000"/>
  <entry producer="producer165" in="00:00:00.000" out="00:00:03.000">
   <property name="kdenlive:id">114</property>
   <property name="kdenlive:activeeffect">3</property>
   <filter id="filter56">
    <property name="rotate_center">1</property>
    <property name="mlt_service">qtblend</property>
    <property name="kdenlive_id">qtblend</property>
    <property name="rect">00:00:00.000=-495 0 1920 1080 1.000000</property>
    <property name="rotation">00:00:00.000=0</property>
    <property name="compositing">0</property>
    <property name="distort">0</property>
    <property name="kdenlive:collapsed">0</property>
   </filter>
   <filter id="filter57">
    <property name="mirror">horizontal</property>
    <property name="mlt_service">mirror</property>
    <property name="kdenlive_id">mirror</property>
    <property name="reverse">1</property>
    <property name="kdenlive:collapsed">0</property>
   </filter>
   <filter id="filter58">
    <property name="mlt_service">avfilter.unsharp</property>
    <property name="kdenlive_id">avfilter.unsharp</property>
    <property name="av.lx">5</property>
    <property name="av.ly">5</property>
    <property name="av.la">2</property>
    <property name="av.cx">5</property>
    <property name="av.cy">5</property>
    <property name="av.ca">1</property>
    <property name="kdenlive:collapsed">0</property>
   </filter>
   <filter id="filter59">
    <property name="lift_r">-0.037507</property>
    <property name="lift_g">-0.037507</property>
    <property name="lift_b">-0.037507</property>
    <property name="gamma_r">1.45</property>
    <property name="gamma_g">1.45</property>
    <property name="gamma_b">1.45</property>
    <property name="gain_r">1.50002</property>
    <property name="gain_g">1.50002</property>
    <property name="gain_b">1.50002</property>
    <property name="mlt_service">lift_gamma_gain</property>
    <property name="kdenlive_id">lift_gamma_gain</property>
    <property name="kdenlive:collapsed">0</property>
   </filter>
  </entry>
  <blank length="00:00:02.100"/>
  <entry producer="producer166" in="00:00:00.000" out="00:00:03.000">
   <property name="kdenlive:id">119</property>
   <property name="kdenlive:activeeffect">3</property>
   <filter id="filter60">
    <property name="rotate_center">1</property>
    <property name="mlt_service">qtblend</property>
    <property name="kdenlive_id">qtblend</property>
    <property name="rect">00:00:00.000=-495 0 1920 1080 1.000000</property>
    <property name="rotation">00:00:00.000=0</property>
    <property name="compositing">0</property>
    <property name="distort">0</property>
    <property name="kdenlive:collapsed">0</property>
   </filter>
   <filter id="filter61">
    <property name="mirror">horizontal</property>
    <property name="mlt_service">mirror</property>
    <property name="kdenlive_id">mirror</property>
    <property name="reverse">1</property>
    <property name="kdenlive:collapsed">0</property>
   </filter>
   <filter id="filter62">
    <property name="mlt_service">avfilter.unsharp</property>
    <property name="kdenlive_id">avfilter.unsharp</property>
    <property name="av.lx">5</property>
    <property name="av.ly">5</property>
    <property name="av.la">2</property>
    <property name="av.cx">5</property>
    <property name="av.cy">5</property>
    <property name="av.ca">1</property>
    <property name="kdenlive:collapsed">0</property>
   </filter>
   <filter id="filter63">
    <property name="lift_r">0.049989</property>
    <property name="lift_g">0.049989</property>
    <property name="lift_b">0.049989</property>
    <property name="gamma_r">1.08751</property>
    <property name="gamma_g">1.08751</property>
    <property name="gamma_b">1.08751</property>
    <property name="gain_r">1.37502</property>
    <property name="gain_g">1.37502</property>
    <property name="gain_b">1.37502</property>
    <property name="mlt_service">lift_gamma_gain</property>
    <property name="kdenlive_id">lift_gamma_gain</property>
    <property name="kdenlive:collapsed">0</property>
   </filter>
  </entry>
  <entry producer="producer167" in="00:00:00.167" out="00:00:01.467">
   <property name="kdenlive:id">119</property>
   <filter id="filter64">
    <property name="rotate_center">1</property>
    <property name="mlt_service">qtblend</property>
    <property name="kdenlive_id">qtblend</property>
    <property name="rect">00:00:00.167=-495 0 1920 1080 1.000000</property>
    <property name="rotation">00:00:00.167=0</property>
    <property name="compositing">0</property>
    <property name="distort">0</property>
    <property name="kdenlive:collapsed">0</property>
   </filter>
   <filter id="filter65">
    <property name="mirror">horizontal</property>
    <property name="mlt_service">mirror</property>
    <property name="kdenlive_id">mirror</property>
    <property name="reverse">1</property>
    <property name="kdenlive:collapsed">0</property>
   </filter>
   <filter id="filter66">
    <property name="mlt_service">avfilter.unsharp</property>
    <property name="kdenlive_id">avfilter.unsharp</property>
    <property name="av.lx">5</property>
    <property name="av.ly">5</property>
    <property name="av.la">2</property>
    <property name="av.cx">5</property>
    <property name="av.cy">5</property>
    <property name="av.ca">1</property>
    <property name="kdenlive:collapsed">0</property>
   </filter>
   <filter id="filter67">
    <property name="lift_r">0.049989</property>
    <property name="lift_g">0.049989</property>
    <property name="lift_b">0.049989</property>
    <property name="gamma_r">1.08751</property>
    <property name="gamma_g">1.08751</property>
    <property name="gamma_b">1.08751</property>
    <property name="gain_r">1.37502</property>
    <property name="gain_g">1.37502</property>
    <property name="gain_b">1.37502</property>
    <property name="mlt_service">lift_gamma_gain</property>
    <property name="kdenlive_id">lift_gamma_gain</property>
    <property name="kdenlive:collapsed">0</property>
   </filter>
  </entry>
  <entry producer="producer101" in="00:00:00.000" out="00:00:01.367">
   <property name="kdenlive:id">133</property>
   <filter id="filter68" out="00:00:01.400">
    <property name="start">1</property>
    <property name="mlt_service">brightness</property>
    <property name="kdenlive_id">fade_to_black</property>
    <property name="end">0</property>
    <property name="alpha">-1</property>
    <property name="kdenlive:collapsed">0</property>
   </filter>
  </entry>
  <blank length="00:00:26.600"/>
  <entry producer="producer168" in="00:00:14.600" out="00:00:17.133">
   <property name="kdenlive:id">66</property>
  </entry>
  <entry producer="producer169" in="00:03:11.067" out="00:03:11.533">
   <property name="kdenlive:id">63</property>
   <filter id="filter69">
    <property name="mlt_service">avfilter.unsharp</property>
    <property name="kdenlive_id">avfilter.unsharp</property>
    <property name="av.lx">5</property>
    <property name="av.ly">5</property>
    <property name="av.la">2.438</property>
    <property name="av.cx">5</property>
    <property name="av.cy">5</property>
    <property name="av.ca">1.199</property>
    <property name="kdenlive:collapsed">0</property>
    <property name="disable">0</property>
   </filter>
  </entry>
  <entry producer="producer170" in="00:05:22.633" out="00:05:23.667">
   <property name="kdenlive:id">63</property>
   <filter id="filter70">
    <property name="mlt_service">avfilter.unsharp</property>
    <property name="kdenlive_id">avfilter.unsharp</property>
    <property name="av.lx">5</property>
    <property name="av.ly">5</property>
    <property name="av.la">2.438</property>
    <property name="av.cx">5</property>
    <property name="av.cy">5</property>
    <property name="av.ca">1.199</property>
    <property name="kdenlive:collapsed">0</property>
   </filter>
  </entry>
  <entry producer="producer169" in="00:03:12.200" out="00:03:12.633">
   <property name="kdenlive:id">63</property>
   <property name="kdenlive:activeeffect">0</property>
   <filter id="filter71">
    <property name="mlt_service">avfilter.unsharp</property>
    <property name="kdenlive_id">avfilter.unsharp</property>
    <property name="av.lx">5</property>
    <property name="av.ly">5</property>
    <property name="av.la">2.438</property>
    <property name="av.cx">5</property>
    <property name="av.cy">5</property>
    <property name="av.ca">1.199</property>
    <property name="kdenlive:collapsed">0</property>
    <property name="disable">0</property>
   </filter>
  </entry>
  <blank length="00:03:06.267"/>
  <entry producer="producer171" in="00:00:00.000" out="00:00:07.800">
   <property name="kdenlive:id">17</property>
   <filter id="filter72">
    <property name="version">0.1</property>
    <property name="mlt_service">frei0r.mask0mate</property>
    <property name="kdenlive_id">frei0r.mask0mate</property>
    <property name="Left">00:00:00.000=0</property>
    <property name="Right">00:00:00.000=0</property>
    <property name="Top">00:00:00.000=0</property>
    <property name="Bottom">00:00:00.000=0.236</property>
    <property name="Invert">1</property>
    <property name="Blur">00:00:00.000=0.076</property>
    <property name="kdenlive:collapsed">0</property>
   </filter>
  </entry>
  <entry producer="producer171" in="00:00:00.000" out="00:00:07.800">
   <property name="kdenlive:id">17</property>
   <filter id="filter73">
    <property name="version">0.1</property>
    <property name="mlt_service">frei0r.mask0mate</property>
    <property name="kdenlive_id">frei0r.mask0mate</property>
    <property name="Left">00:00:00.000=0</property>
    <property name="Right">00:00:00.000=0</property>
    <property name="Top">00:00:00.000=0</property>
    <property name="Bottom">00:00:00.000=0.236</property>
    <property name="Invert">1</property>
    <property name="Blur">00:00:00.000=0.076</property>
    <property name="kdenlive:collapsed">0</property>
   </filter>
  </entry>
  <entry producer="producer171" in="00:00:00.000" out="00:00:07.800">
   <property name="kdenlive:id">17</property>
   <filter id="filter74">
    <property name="version">0.1</property>
    <property name="mlt_service">frei0r.mask0mate</property>
    <property name="kdenlive_id">frei0r.mask0mate</property>
    <property name="Left">00:00:00.000=0</property>
    <property name="Right">00:00:00.000=0</property>
    <property name="Top">00:00:00.000=0</property>
    <property name="Bottom">00:00:00.000=0.236</property>
    <property name="Invert">1</property>
    <property name="Blur">00:00:00.000=0.076</property>
    <property name="kdenlive:collapsed">0</property>
   </filter>
  </entry>
  <entry producer="producer171" in="00:00:00.000" out="00:00:02.800">
   <property name="kdenlive:id">17</property>
   <filter id="filter75">
    <property name="version">0.1</property>
    <property name="mlt_service">frei0r.mask0mate</property>
    <property name="kdenlive_id">frei0r.mask0mate</property>
    <property name="Left">00:00:00.000=0</property>
    <property name="Right">00:00:00.000=0</property>
    <property name="Top">00:00:00.000=0</property>
    <property name="Bottom">00:00:00.000=0.236</property>
    <property name="Invert">1</property>
    <property name="Blur">00:00:00.000=0.076</property>
    <property name="kdenlive:collapsed">0</property>
   </filter>
  </entry>
  <blank length="00:00:19.133"/>
  <entry producer="producer172" in="00:00:17.333" out="00:01:07.000">
   <property name="kdenlive:id">20</property>
  </entry>
  <blank length="00:00:04.333"/>
  <entry producer="producer173" in="00:00:28.067" out="00:01:00.133">
   <property name="kdenlive:id">22</property>
  </entry>
  <entry producer="producer173" in="00:01:36.200" out="00:02:08.600">
   <property name="kdenlive:id">22</property>
  </entry>
  <entry producer="producer174" in="00:00:06.733" out="00:00:35.867">
   <property name="kdenlive:id">23</property>
  </entry>
  <blank length="00:00:09.267"/>
  <entry producer="producer175" in="00:01:49.600" out="00:02:22.667">
   <property name="kdenlive:id">25</property>
   <filter id="filter76">
    <property name="rotate_center">1</property>
    <property name="mlt_service">qtblend</property>
    <property name="kdenlive_id">qtblend</property>
    <property name="rect">00:01:49.600=1024 503 1248 702 1.000000</property>
    <property name="rotation">00:01:49.600=0</property>
    <property name="compositing">0</property>
    <property name="distort">0</property>
    <property name="kdenlive:collapsed">0</property>
   </filter>
  </entry>
  <blank length="00:00:59.833"/>
  <entry producer="producer176" in="00:00:27.733" out="00:00:41.133">
   <property name="kdenlive:id">2</property>
  </entry>
  <entry producer="producer176" in="00:00:41.200" out="00:01:03.267">
   <property name="kdenlive:id">2</property>
   <filter id="filter77" in="00:01:02.933" out="00:01:03.267">
    <property name="start">1</property>
    <property name="mlt_service">brightness</property>
    <property name="kdenlive_id">fade_to_black</property>
    <property name="end">0</property>
    <property name="alpha">-1</property>
   </filter>
  </entry>
  <blank length="00:00:06.200"/>
  <entry producer="producer177" in="00:00:01.067" out="00:00:05.733">
   <property name="kdenlive:id">4</property>
  </entry>
  <entry producer="producer177" in="00:00:01.067" out="00:00:05.733">
   <property name="kdenlive:id">4</property>
  </entry>
  <entry producer="producer177" in="00:00:01.067" out="00:00:05.733">
   <property name="kdenlive:id">4</property>
  </entry>
  <entry producer="producer178" in="00:00:03.867" out="00:00:54.000">
   <property name="kdenlive:id">13</property>
   <filter id="filter78" in="00:00:52.800" out="00:00:54.000">
    <property name="start">1</property>
    <property name="mlt_service">brightness</property>
    <property name="kdenlive_id">fade_to_black</property>
    <property name="end">0</property>
    <property name="alpha">-1</property>
    <property name="kdenlive:collapsed">0</property>
   </filter>
  </entry>
  <entry producer="producer178" in="00:00:03.867" out="00:00:28.133">
   <property name="kdenlive:id">13</property>
  </entry>
  <entry producer="producer178" in="00:00:28.200" out="00:00:45.333">
   <property name="kdenlive:id">13</property>
  </entry>
 </playlist>
 <playlist id="playlist9"/>
 <tractor id="tractor4" in="00:00:00.000" out="00:14:53.967">
  <property name="kdenlive:trackheight">69</property>
  <property name="kdenlive:timeline_active">1</property>
  <property name="kdenlive:collapsed">28</property>
  <property name="kdenlive:thumbs_format"/>
  <property name="kdenlive:audio_rec"/>
  <track hide="audio" producer="playlist8"/>
  <track producer="playlist9"/>
 </tractor>
 <producer id="producer179" in="00:00:00.000" out="00:00:06.800">
  <property name="length">205</property>
  <property name="eof">pause</property>
  <property name="resource">/home/ryankelln/.cache/kdenlive/proxy/a96b92c1bace94bc3ed2462f08da2e88.mkv</property>
  <property name="audio_index">1</property>
  <property name="video_index">0</property>
  <property name="mute_on_pause">0</property>
  <property name="mlt_service">avformat-novalidate</property>
  <property name="seekable">1</property>
  <property name="aspect_ratio">1</property>
  <property name="kdenlive:clipname">Bird Flying - Free Stock Creative Commons Video-FrRXDYUatf4.mp4</property>
  <property name="kdenlive:folderid">55</property>
  <property name="kdenlive:id">48</property>
  <property name="kdenlive:file_size">1563626</property>
  <property name="kdenlive:file_hash">a96b92c1bace94bc3ed2462f08da2e88</property>
  <property name="kdenlive:proxy">/home/ryankelln/.cache/kdenlive/proxy/a96b92c1bace94bc3ed2462f08da2e88.mkv</property>
  <property name="kdenlive:originalurl">content/footage/Bird Flying - Free Stock Creative Commons Video-FrRXDYUatf4.mp4</property>
  <property name="kdenlive:original.mlt_type">producer</property>
  <property name="kdenlive:original.in">0</property>
  <property name="kdenlive:original.out">204</property>
  <property name="kdenlive:original.length">205</property>
  <property name="kdenlive:original.eof">pause</property>
  <property name="kdenlive:original.resource">content/footage/Bird Flying - Free Stock Creative Commons Video-FrRXDYUatf4.mp4</property>
  <property name="kdenlive:original.meta.media.nb_streams">2</property>
  <property name="kdenlive:original.meta.media.0.stream.type">video</property>
  <property name="kdenlive:original.meta.media.0.stream.frame_rate">60.233</property>
  <property name="kdenlive:original.meta.media.0.stream.sample_aspect_ratio">1</property>
  <property name="kdenlive:original.meta.media.0.codec.width">1920</property>
  <property name="kdenlive:original.meta.media.0.codec.height">1080</property>
  <property name="kdenlive:original.meta.media.0.codec.rotate">0</property>
  <property name="kdenlive:original.meta.media.0.codec.frame_rate">59.9401</property>
  <property name="kdenlive:original.meta.media.0.codec.pix_fmt">yuv420p</property>
  <property name="kdenlive:original.meta.media.0.codec.sample_aspect_ratio">1</property>
  <property name="kdenlive:original.meta.media.0.codec.colorspace">709</property>
  <property name="kdenlive:original.meta.media.0.codec.color_trc">1</property>
  <property name="kdenlive:original.meta.media.0.codec.name">h264</property>
  <property name="kdenlive:original.meta.media.0.codec.long_name">H.264 / AVC / MPEG-4 AVC / MPEG-4 part 10</property>
  <property name="kdenlive:original.meta.media.0.codec.bit_rate">1702801</property>
  <property name="kdenlive:original.meta.attr.0.stream.handler_name.markup">ISO Media file produced by Google Inc. Created on: 05/11/2021.</property>
  <property name="kdenlive:original.meta.media.1.stream.type">audio</property>
  <property name="kdenlive:original.meta.media.1.codec.sample_fmt">fltp</property>
  <property name="kdenlive:original.meta.media.1.codec.sample_rate">44100</property>
  <property name="kdenlive:original.meta.media.1.codec.channels">2</property>
  <property name="kdenlive:original.meta.media.1.codec.name">aac</property>
  <property name="kdenlive:original.meta.media.1.codec.long_name">AAC (Advanced Audio Coding)</property>
  <property name="kdenlive:original.meta.media.1.codec.bit_rate">127999</property>
  <property name="kdenlive:original.meta.attr.1.stream.handler_name.markup">ISO Media file produced by Google Inc. Created on: 11/30/2018.</property>
  <property name="kdenlive:original.meta.attr.major_brand.markup">isom</property>
  <property name="kdenlive:original.meta.attr.minor_version.markup">512</property>
  <property name="kdenlive:original.meta.attr.compatible_brands.markup">isomiso2avc1mp41</property>
  <property name="kdenlive:original.meta.attr.encoder.markup">Lavf58.45.100</property>
  <property name="kdenlive:original.seekable">1</property>
  <property name="kdenlive:original.width">1920</property>
  <property name="kdenlive:original.height">1080</property>
  <property name="kdenlive:original.meta.media.sample_aspect_num">1</property>
  <property name="kdenlive:original.meta.media.sample_aspect_den">1</property>
  <property name="kdenlive:original.aspect_ratio">1</property>
  <property name="kdenlive:original.audio_index">1</property>
  <property name="kdenlive:original.video_index">0</property>
  <property name="kdenlive:original.mute_on_pause">0</property>
  <property name="kdenlive:original.mlt_service">avformat-novalidate</property>
  <property name="kdenlive:original.kdenlive:folderid">55</property>
  <property name="kdenlive:original.meta.media.frame_rate_num">1360000</property>
  <property name="kdenlive:original.meta.media.frame_rate_den">22579</property>
  <property name="kdenlive:original.meta.media.colorspace">709</property>
  <property name="kdenlive:original.meta.media.color_trc">1</property>
  <property name="kdenlive:original.meta.media.width">1920</property>
  <property name="kdenlive:original.meta.media.height">1080</property>
  <property name="kdenlive:original.meta.media.color_range">mpeg</property>
  <property name="kdenlive:original.kdenlive:id">58</property>
  <property name="kdenlive:original.kdenlive:file_size">1563626</property>
  <property name="kdenlive:original.kdenlive:file_hash">a96b92c1bace94bc3ed2462f08da2e88</property>
  <property name="kdenlive:original.backup">1</property>
  <property name="global_feed">1</property>
  <property name="kdenlive:active_streams">-1</property>
  <property name="xml">was here</property>
  <property name="meta.media.nb_streams">2</property>
  <property name="meta.media.0.stream.type">video</property>
  <property name="meta.media.0.stream.frame_rate">59.9401</property>
  <property name="meta.media.0.stream.sample_aspect_ratio">1</property>
  <property name="meta.media.0.codec.width">640</property>
  <property name="meta.media.0.codec.height">360</property>
  <property name="meta.media.0.codec.rotate">0</property>
  <property name="meta.media.0.codec.frame_rate">1000</property>
  <property name="meta.media.0.codec.pix_fmt">yuvj420p</property>
  <property name="meta.media.0.codec.sample_aspect_ratio">1</property>
  <property name="meta.media.0.codec.colorspace">601</property>
  <property name="meta.media.0.codec.name">mjpeg</property>
  <property name="meta.media.0.codec.long_name">MJPEG (Motion JPEG)</property>
  <property name="meta.media.0.codec.bit_rate">0</property>
  <property name="meta.attr.0.stream.HANDLER_NAME.markup">ISO Media file produced by Google Inc. Created on: 05/11/2021.</property>
  <property name="meta.attr.0.stream.ENCODER.markup">Lavc58.91.100 mjpeg</property>
  <property name="meta.attr.0.stream.DURATION.markup">00:00:06.790000000</property>
  <property name="meta.media.1.stream.type">audio</property>
  <property name="meta.media.1.codec.sample_fmt">s16</property>
  <property name="meta.media.1.codec.sample_rate">44100</property>
  <property name="meta.media.1.codec.channels">2</property>
  <property name="meta.media.1.codec.name">pcm_s16le</property>
  <property name="meta.media.1.codec.long_name">PCM signed 16-bit little-endian</property>
  <property name="meta.media.1.codec.bit_rate">1411200</property>
  <property name="meta.attr.1.stream.HANDLER_NAME.markup">ISO Media file produced by Google Inc. Created on: 11/30/2018.</property>
  <property name="meta.attr.1.stream.ENCODER.markup">Lavc58.91.100 pcm_s16le</property>
  <property name="meta.attr.1.stream.DURATION.markup">00:00:06.826000000</property>
  <property name="meta.attr.COMPATIBLE_BRANDS.markup">isomiso2avc1mp41</property>
  <property name="meta.attr.MAJOR_BRAND.markup">isom</property>
  <property name="meta.attr.MINOR_VERSION.markup">512</property>
  <property name="meta.attr.ENCODER.markup">Lavf58.45.100</property>
  <property name="meta.media.sample_aspect_num">1</property>
  <property name="meta.media.sample_aspect_den">1</property>
  <property name="meta.media.frame_rate_num">19001</property>
  <property name="meta.media.frame_rate_den">317</property>
  <property name="meta.media.colorspace">601</property>
  <property name="meta.media.color_trc">2</property>
  <property name="meta.media.width">640</property>
  <property name="meta.media.height">360</property>
  <property name="meta.media.color_range">full</property>
  <property name="meta.media.top_field_first">0</property>
  <property name="meta.media.progressive">1</property>
  <property name="set.test_audio">1</property>
  <property name="set.test_image">0</property>
 </producer>
 <producer id="producer180" in="00:00:00.000" out="00:00:36.867">
  <property name="length">1109</property>
  <property name="eof">pause</property>
  <property name="resource">/home/ryankelln/.cache/kdenlive/proxy/b2be9f3e4ba5a4ff8901ca563d188491.mkv</property>
  <property name="audio_index">-1</property>
  <property name="video_index">0</property>
  <property name="mute_on_pause">0</property>
  <property name="mlt_service">avformat-novalidate</property>
  <property name="seekable">1</property>
  <property name="aspect_ratio">1</property>
  <property name="kdenlive:clipname">SeagullsCloseMaster_h264.mp4</property>
  <property name="kdenlive:folderid">55</property>
  <property name="kdenlive:id">50</property>
  <property name="kdenlive:file_size">49278582</property>
  <property name="kdenlive:file_hash">b2be9f3e4ba5a4ff8901ca563d188491</property>
  <property name="kdenlive:proxy">/home/ryankelln/.cache/kdenlive/proxy/b2be9f3e4ba5a4ff8901ca563d188491.mkv</property>
  <property name="kdenlive:originalurl">content/footage/SeagullsCloseMaster_h264.mp4</property>
  <property name="kdenlive:original.mlt_type">producer</property>
  <property name="kdenlive:original.in">0</property>
  <property name="kdenlive:original.out">1108</property>
  <property name="kdenlive:original.length">1109</property>
  <property name="kdenlive:original.eof">pause</property>
  <property name="kdenlive:original.resource">content/footage/SeagullsCloseMaster_h264.mp4</property>
  <property name="kdenlive:original.meta.media.nb_streams">1</property>
  <property name="kdenlive:original.meta.media.0.stream.type">video</property>
  <property name="kdenlive:original.meta.media.0.stream.frame_rate">23.976</property>
  <property name="kdenlive:original.meta.media.0.stream.sample_aspect_ratio">0</property>
  <property name="kdenlive:original.meta.media.0.codec.width">1920</property>
  <property name="kdenlive:original.meta.media.0.codec.height">1080</property>
  <property name="kdenlive:original.meta.media.0.codec.rotate">0</property>
  <property name="kdenlive:original.meta.media.0.codec.frame_rate">23.976</property>
  <property name="kdenlive:original.meta.media.0.codec.pix_fmt">yuv420p</property>
  <property name="kdenlive:original.meta.media.0.codec.sample_aspect_ratio">1</property>
  <property name="kdenlive:original.meta.media.0.codec.colorspace">709</property>
  <property name="kdenlive:original.meta.media.0.codec.name">h264</property>
  <property name="kdenlive:original.meta.media.0.codec.long_name">H.264 / AVC / MPEG-4 AVC / MPEG-4 part 10</property>
  <property name="kdenlive:original.meta.media.0.codec.bit_rate">10664727</property>
  <property name="kdenlive:original.meta.attr.0.stream.creation_time.markup">2013-11-30T22:42:06.000000Z</property>
  <property name="kdenlive:original.meta.attr.0.stream.language.markup">eng</property>
  <property name="kdenlive:original.meta.attr.0.stream.handler_name.markup">Mainconcept MP4 Video Media Handler</property>
  <property name="kdenlive:original.meta.attr.0.stream.encoder.markup">AVC Coding</property>
  <property name="kdenlive:original.meta.attr.major_brand.markup">mp42</property>
  <property name="kdenlive:original.meta.attr.minor_version.markup">0</property>
  <property name="kdenlive:original.meta.attr.compatible_brands.markup">mp42mp41</property>
  <property name="kdenlive:original.meta.attr.creation_time.markup">2013-11-30T22:42:06.000000Z</property>
  <property name="kdenlive:original.seekable">1</property>
  <property name="kdenlive:original.width">1920</property>
  <property name="kdenlive:original.height">1080</property>
  <property name="kdenlive:original.meta.media.sample_aspect_num">1</property>
  <property name="kdenlive:original.meta.media.sample_aspect_den">1</property>
  <property name="kdenlive:original.aspect_ratio">1</property>
  <property name="kdenlive:original.audio_index">-1</property>
  <property name="kdenlive:original.video_index">0</property>
  <property name="kdenlive:original.mute_on_pause">0</property>
  <property name="kdenlive:original.mlt_service">avformat-novalidate</property>
  <property name="kdenlive:original.kdenlive:folderid">55</property>
  <property name="kdenlive:original.meta.media.frame_rate_num">2997</property>
  <property name="kdenlive:original.meta.media.frame_rate_den">125</property>
  <property name="kdenlive:original.meta.media.colorspace">709</property>
  <property name="kdenlive:original.meta.media.color_trc">2</property>
  <property name="kdenlive:original.meta.media.width">1920</property>
  <property name="kdenlive:original.meta.media.height">1080</property>
  <property name="kdenlive:original.meta.media.color_range">mpeg</property>
  <property name="kdenlive:original.kdenlive:id">60</property>
  <property name="kdenlive:original.kdenlive:file_size">49278582</property>
  <property name="kdenlive:original.kdenlive:file_hash">b2be9f3e4ba5a4ff8901ca563d188491</property>
  <property name="kdenlive:original.backup">1</property>
  <property name="global_feed">1</property>
  <property name="xml">was here</property>
  <property name="meta.media.nb_streams">1</property>
  <property name="meta.media.0.stream.type">video</property>
  <property name="meta.media.0.stream.frame_rate">23.976</property>
  <property name="meta.media.0.stream.sample_aspect_ratio">1</property>
  <property name="meta.media.0.codec.width">640</property>
  <property name="meta.media.0.codec.height">360</property>
  <property name="meta.media.0.codec.rotate">0</property>
  <property name="meta.media.0.codec.frame_rate">1000</property>
  <property name="meta.media.0.codec.pix_fmt">yuvj420p</property>
  <property name="meta.media.0.codec.sample_aspect_ratio">1</property>
  <property name="meta.media.0.codec.colorspace">601</property>
  <property name="meta.media.0.codec.name">mjpeg</property>
  <property name="meta.media.0.codec.long_name">MJPEG (Motion JPEG)</property>
  <property name="meta.media.0.codec.bit_rate">0</property>
  <property name="meta.attr.0.stream.language.markup">eng</property>
  <property name="meta.attr.0.stream.HANDLER_NAME.markup">Mainconcept MP4 Video Media Handler</property>
  <property name="meta.attr.0.stream.ENCODER.markup">Lavc58.91.100 mjpeg</property>
  <property name="meta.attr.0.stream.DURATION.markup">00:00:36.912000000</property>
  <property name="meta.attr.COMPATIBLE_BRANDS.markup">mp42mp41</property>
  <property name="meta.attr.MAJOR_BRAND.markup">mp42</property>
  <property name="meta.attr.MINOR_VERSION.markup">0</property>
  <property name="meta.attr.ENCODER.markup">Lavf58.45.100</property>
  <property name="meta.media.sample_aspect_num">1</property>
  <property name="meta.media.sample_aspect_den">1</property>
  <property name="meta.media.frame_rate_num">2997</property>
  <property name="meta.media.frame_rate_den">125</property>
  <property name="meta.media.colorspace">601</property>
  <property name="meta.media.color_trc">2</property>
  <property name="meta.media.width">640</property>
  <property name="meta.media.height">360</property>
  <property name="meta.media.color_range">full</property>
  <property name="meta.media.top_field_first">0</property>
  <property name="meta.media.progressive">1</property>
  <property name="set.test_audio">1</property>
  <property name="set.test_image">0</property>
 </producer>
 <producer id="producer181" in="00:00:00.000" out="00:00:20.633">
  <property name="length">621</property>
  <property name="eof">pause</property>
  <property name="resource">1.784722:/home/ryankelln/.cache/kdenlive/proxy/b2be9f3e4ba5a4ff8901ca563d188491.mkv</property>
  <property name="aspect_ratio">1</property>
  <property name="meta.media.nb_streams">1</property>
  <property name="meta.media.0.stream.type">video</property>
  <property name="meta.media.0.stream.frame_rate">23.976</property>
  <property name="meta.media.0.stream.sample_aspect_ratio">1</property>
  <property name="meta.media.0.codec.width">640</property>
  <property name="meta.media.0.codec.height">360</property>
  <property name="meta.media.0.codec.rotate">0</property>
  <property name="meta.media.0.codec.frame_rate">1000</property>
  <property name="meta.media.0.codec.pix_fmt">yuvj420p</property>
  <property name="meta.media.0.codec.sample_aspect_ratio">1</property>
  <property name="meta.media.0.codec.colorspace">601</property>
  <property name="meta.media.0.codec.name">mjpeg</property>
  <property name="meta.media.0.codec.long_name">MJPEG (Motion JPEG)</property>
  <property name="meta.media.0.codec.bit_rate">0</property>
  <property name="meta.attr.0.stream.language.markup">eng</property>
  <property name="meta.attr.0.stream.HANDLER_NAME.markup">Mainconcept MP4 Video Media Handler</property>
  <property name="meta.attr.0.stream.ENCODER.markup">Lavc58.91.100 mjpeg</property>
  <property name="meta.attr.0.stream.DURATION.markup">00:00:36.912000000</property>
  <property name="meta.attr.COMPATIBLE_BRANDS.markup">mp42mp41</property>
  <property name="meta.attr.MAJOR_BRAND.markup">mp42</property>
  <property name="meta.attr.MINOR_VERSION.markup">0</property>
  <property name="meta.attr.ENCODER.markup">Lavf58.45.100</property>
  <property name="seekable">1</property>
  <property name="meta.media.sample_aspect_num">1</property>
  <property name="meta.media.sample_aspect_den">1</property>
  <property name="audio_index">-1</property>
  <property name="video_index">0</property>
  <property name="mute_on_pause">1</property>
  <property name="warp_speed">1.78472</property>
  <property name="warp_resource">/home/ryankelln/.cache/kdenlive/proxy/b2be9f3e4ba5a4ff8901ca563d188491.mkv</property>
  <property name="mlt_service">timewarp</property>
  <property name="kdenlive:proxy">/home/ryankelln/.cache/kdenlive/proxy/b2be9f3e4ba5a4ff8901ca563d188491.mkv</property>
  <property name="kdenlive:originalurl">content/footage/SeagullsCloseMaster_h264.mp4</property>
  <property name="set.test_audio">1</property>
  <property name="set.test_image">0</property>
  <property name="kdenlive:id">50</property>
  <property name="warp_pitch">0</property>
  <property name="meta.media.frame_rate_num">2997</property>
  <property name="meta.media.frame_rate_den">125</property>
  <property name="meta.media.colorspace">601</property>
  <property name="meta.media.color_trc">2</property>
  <property name="meta.media.width">640</property>
  <property name="meta.media.height">360</property>
  <property name="meta.media.color_range">full</property>
  <property name="meta.media.top_field_first">0</property>
  <property name="meta.media.progressive">1</property>
 </producer>
 <producer id="producer182" in="00:00:00.000" out="00:01:39.800">
  <property name="length">2995</property>
  <property name="eof">pause</property>
  <property name="resource">/home/ryankelln/.cache/kdenlive/proxy/9145a5a92dfaa149c1e7ffc9b1d1753a.mkv</property>
  <property name="audio_index">-1</property>
  <property name="video_index">0</property>
  <property name="mute_on_pause">0</property>
  <property name="mlt_service">avformat-novalidate</property>
  <property name="seekable">1</property>
  <property name="aspect_ratio">1</property>
  <property name="kdenlive:clipname">boids_3.mp4</property>
  <property name="kdenlive:folderid">-1</property>
  <property name="kdenlive:id">109</property>
  <property name="kdenlive:file_size">10952992</property>
  <property name="kdenlive:file_hash">9145a5a92dfaa149c1e7ffc9b1d1753a</property>
  <property name="kdenlive:proxy">/home/ryankelln/.cache/kdenlive/proxy/9145a5a92dfaa149c1e7ffc9b1d1753a.mkv</property>
  <property name="kdenlive:originalurl">/home/ryankelln/Documents/Projects/Active/Sound_Escapes/Jackson/boid_recordings/boids_3.mp4</property>
  <property name="kdenlive:original.mlt_type">producer</property>
  <property name="kdenlive:original.in">0</property>
  <property name="kdenlive:original.out">2994</property>
  <property name="kdenlive:original.length">2995</property>
  <property name="kdenlive:original.eof">pause</property>
  <property name="kdenlive:original.resource">/home/ryankelln/Documents/Projects/Active/Sound_Escapes/Jackson/boid_recordings/boids_3.mp4</property>
  <property name="kdenlive:original.meta.media.nb_streams">1</property>
  <property name="kdenlive:original.meta.media.0.stream.type">video</property>
  <property name="kdenlive:original.meta.media.0.stream.frame_rate">30</property>
  <property name="kdenlive:original.meta.media.0.stream.sample_aspect_ratio">0</property>
  <property name="kdenlive:original.meta.media.0.codec.width">1920</property>
  <property name="kdenlive:original.meta.media.0.codec.height">1080</property>
  <property name="kdenlive:original.meta.media.0.codec.rotate">0</property>
  <property name="kdenlive:original.meta.media.0.codec.frame_rate">30</property>
  <property name="kdenlive:original.meta.media.0.codec.pix_fmt">yuv420p</property>
  <property name="kdenlive:original.meta.media.0.codec.sample_aspect_ratio">1</property>
  <property name="kdenlive:original.meta.media.0.codec.colorspace">709</property>
  <property name="kdenlive:original.meta.media.0.codec.color_trc">1</property>
  <property name="kdenlive:original.meta.media.0.codec.name">h264</property>
  <property name="kdenlive:original.meta.media.0.codec.long_name">H.264 / AVC / MPEG-4 AVC / MPEG-4 part 10</property>
  <property name="kdenlive:original.meta.media.0.codec.bit_rate">875327</property>
  <property name="kdenlive:original.meta.attr.0.stream.handler_name.markup">VideoHandler</property>
  <property name="kdenlive:original.meta.attr.major_brand.markup">isom</property>
  <property name="kdenlive:original.meta.attr.minor_version.markup">512</property>
  <property name="kdenlive:original.meta.attr.compatible_brands.markup">isomiso2avc1mp41</property>
  <property name="kdenlive:original.meta.attr.encoder.markup">Lavf56.40.101</property>
  <property name="kdenlive:original.seekable">1</property>
  <property name="kdenlive:original.width">1920</property>
  <property name="kdenlive:original.height">1080</property>
  <property name="kdenlive:original.meta.media.sample_aspect_num">1</property>
  <property name="kdenlive:original.meta.media.sample_aspect_den">1</property>
  <property name="kdenlive:original.aspect_ratio">1</property>
  <property name="kdenlive:original.audio_index">-1</property>
  <property name="kdenlive:original.video_index">0</property>
  <property name="kdenlive:original.mute_on_pause">0</property>
  <property name="kdenlive:original.mlt_service">avformat-novalidate</property>
  <property name="kdenlive:original.kdenlive:folderid">-1</property>
  <property name="kdenlive:original.meta.media.frame_rate_num">30</property>
  <property name="kdenlive:original.meta.media.frame_rate_den">1</property>
  <property name="kdenlive:original.meta.media.colorspace">709</property>
  <property name="kdenlive:original.meta.media.color_trc">1</property>
  <property name="kdenlive:original.meta.media.width">1920</property>
  <property name="kdenlive:original.meta.media.height">1080</property>
  <property name="kdenlive:original.meta.media.color_range">mpeg</property>
  <property name="kdenlive:original.kdenlive:id">109</property>
  <property name="kdenlive:original.kdenlive:file_size">10952992</property>
  <property name="kdenlive:original.kdenlive:file_hash">9145a5a92dfaa149c1e7ffc9b1d1753a</property>
  <property name="kdenlive:original.backup">1</property>
  <property name="global_feed">1</property>
  <property name="xml">was here</property>
  <property name="meta.media.nb_streams">1</property>
  <property name="meta.media.0.stream.type">video</property>
  <property name="meta.media.0.stream.frame_rate">30</property>
  <property name="meta.media.0.stream.sample_aspect_ratio">1</property>
  <property name="meta.media.0.codec.width">640</property>
  <property name="meta.media.0.codec.height">360</property>
  <property name="meta.media.0.codec.rotate">0</property>
  <property name="meta.media.0.codec.frame_rate">1000</property>
  <property name="meta.media.0.codec.pix_fmt">yuvj420p</property>
  <property name="meta.media.0.codec.sample_aspect_ratio">1</property>
  <property name="meta.media.0.codec.colorspace">601</property>
  <property name="meta.media.0.codec.name">mjpeg</property>
  <property name="meta.media.0.codec.long_name">MJPEG (Motion JPEG)</property>
  <property name="meta.media.0.codec.bit_rate">0</property>
  <property name="meta.attr.0.stream.HANDLER_NAME.markup">VideoHandler</property>
  <property name="meta.attr.0.stream.ENCODER.markup">Lavc58.91.100 mjpeg</property>
  <property name="meta.attr.0.stream.DURATION.markup">00:01:39.833000000</property>
  <property name="meta.attr.COMPATIBLE_BRANDS.markup">isomiso2avc1mp41</property>
  <property name="meta.attr.MAJOR_BRAND.markup">isom</property>
  <property name="meta.attr.MINOR_VERSION.markup">512</property>
  <property name="meta.attr.ENCODER.markup">Lavf58.45.100</property>
  <property name="meta.media.sample_aspect_num">1</property>
  <property name="meta.media.sample_aspect_den">1</property>
  <property name="meta.media.frame_rate_num">30</property>
  <property name="meta.media.frame_rate_den">1</property>
  <property name="meta.media.colorspace">601</property>
  <property name="meta.media.color_trc">2</property>
  <property name="meta.media.width">640</property>
  <property name="meta.media.height">360</property>
  <property name="meta.media.color_range">full</property>
  <property name="meta.media.top_field_first">0</property>
  <property name="meta.media.progressive">1</property>
  <property name="set.test_audio">1</property>
  <property name="set.test_image">0</property>
 </producer>
 <producer id="producer183" in="00:00:00.000" out="00:00:03.000">
  <property name="length">91</property>
  <property name="eof">pause</property>
  <property name="resource">content/ai/bird_jackson.1006.mp4</property>
  <property name="audio_index">-1</property>
  <property name="video_index">0</property>
  <property name="mute_on_pause">0</property>
  <property name="mlt_service">avformat-novalidate</property>
  <property name="seekable">1</property>
  <property name="aspect_ratio">1</property>
  <property name="kdenlive:clipname"/>
  <property name="kdenlive:folderid">71</property>
  <property name="kdenlive:id">130</property>
  <property name="kdenlive:file_size">1883672</property>
  <property name="kdenlive:file_hash">053d3251f245967e6891c2d726c32d5b</property>
  <property name="global_feed">1</property>
  <property name="xml">was here</property>
  <property name="meta.media.nb_streams">1</property>
  <property name="meta.media.0.stream.type">video</property>
  <property name="meta.media.0.stream.frame_rate">30</property>
  <property name="meta.media.0.stream.sample_aspect_ratio">0</property>
  <property name="meta.media.0.codec.width">512</property>
  <property name="meta.media.0.codec.height">512</property>
  <property name="meta.media.0.codec.rotate">0</property>
  <property name="meta.media.0.codec.frame_rate">30</property>
  <property name="meta.media.0.codec.pix_fmt">yuv444p</property>
  <property name="meta.media.0.codec.sample_aspect_ratio">0</property>
  <property name="meta.media.0.codec.colorspace">601</property>
  <property name="meta.media.0.codec.name">h264</property>
  <property name="meta.media.0.codec.long_name">H.264 / AVC / MPEG-4 AVC / MPEG-4 part 10</property>
  <property name="meta.media.0.codec.bit_rate">4962944</property>
  <property name="meta.attr.0.stream.handler_name.markup">VideoHandler</property>
  <property name="meta.attr.major_brand.markup">isom</property>
  <property name="meta.attr.minor_version.markup">512</property>
  <property name="meta.attr.compatible_brands.markup">isomiso2avc1mp41</property>
  <property name="meta.attr.encoder.markup">Lavf58.76.100</property>
  <property name="meta.media.sample_aspect_num">1</property>
  <property name="meta.media.sample_aspect_den">1</property>
  <property name="meta.media.frame_rate_num">30</property>
  <property name="meta.media.frame_rate_den">1</property>
  <property name="meta.media.colorspace">601</property>
  <property name="meta.media.color_trc">2</property>
  <property name="meta.media.width">512</property>
  <property name="meta.media.height">512</property>
  <property name="meta.media.color_range">mpeg</property>
  <property name="meta.media.top_field_first">0</property>
  <property name="meta.media.progressive">1</property>
  <property name="set.test_audio">1</property>
  <property name="set.test_image">0</property>
 </producer>
 <producer id="producer184" in="00:00:00.000" out="00:00:11.000">
  <property name="length">331</property>
  <property name="eof">pause</property>
  <property name="resource">-1.000000:/home/ryankelln/.cache/kdenlive/proxy/27240e0e5f9a7ced5f733d99de13e170.mkv</property>
  <property name="aspect_ratio">1</property>
  <property name="meta.media.nb_streams">2</property>
  <property name="meta.media.0.stream.type">video</property>
  <property name="meta.media.0.stream.frame_rate">29.97</property>
  <property name="meta.media.0.stream.sample_aspect_ratio">0</property>
  <property name="meta.media.0.codec.width">640</property>
  <property name="meta.media.0.codec.height">360</property>
  <property name="meta.media.0.codec.rotate">0</property>
  <property name="meta.media.0.codec.frame_rate">1000</property>
  <property name="meta.media.0.codec.pix_fmt">yuvj420p</property>
  <property name="meta.media.0.codec.sample_aspect_ratio">0</property>
  <property name="meta.media.0.codec.colorspace">601</property>
  <property name="meta.media.0.codec.name">mjpeg</property>
  <property name="meta.media.0.codec.long_name">MJPEG (Motion JPEG)</property>
  <property name="meta.media.0.codec.bit_rate">0</property>
  <property name="meta.attr.0.stream.HANDLER_NAME.markup">L-SMASH Video Handler</property>
  <property name="meta.attr.0.stream.ENCODER.markup">Lavc58.91.100 mjpeg</property>
  <property name="meta.attr.0.stream.DURATION.markup">00:00:11.011000000</property>
  <property name="meta.media.1.stream.type">audio</property>
  <property name="meta.media.1.codec.sample_fmt">s16</property>
  <property name="meta.media.1.codec.sample_rate">48000</property>
  <property name="meta.media.1.codec.channels">2</property>
  <property name="meta.media.1.codec.name">pcm_s16le</property>
  <property name="meta.media.1.codec.long_name">PCM signed 16-bit little-endian</property>
  <property name="meta.media.1.codec.bit_rate">1536000</property>
  <property name="meta.attr.1.stream.HANDLER_NAME.markup">L-SMASH Audio Handler</property>
  <property name="meta.attr.1.stream.ENCODER.markup">Lavc58.91.100 pcm_s16le</property>
  <property name="meta.attr.1.stream.DURATION.markup">00:00:11.029000000</property>
  <property name="meta.attr.COMPATIBLE_BRANDS.markup">mp42mp41isomavc1</property>
  <property name="meta.attr.MAJOR_BRAND.markup">mp42</property>
  <property name="meta.attr.MINOR_VERSION.markup">0</property>
  <property name="meta.attr.ENCODER.markup">Lavf58.45.100</property>
  <property name="seekable">1</property>
  <property name="meta.media.sample_aspect_num">1</property>
  <property name="meta.media.sample_aspect_den">1</property>
  <property name="audio_index">1</property>
  <property name="video_index">0</property>
  <property name="mute_on_pause">1</property>
  <property name="warp_speed">-1</property>
  <property name="warp_resource">/home/ryankelln/.cache/kdenlive/proxy/27240e0e5f9a7ced5f733d99de13e170.mkv</property>
  <property name="mlt_service">timewarp</property>
  <property name="kdenlive:proxy">/home/ryankelln/.cache/kdenlive/proxy/27240e0e5f9a7ced5f733d99de13e170.mkv</property>
  <property name="kdenlive:originalurl">content/footage/Pigeons - 39263.mp4</property>
  <property name="set.test_audio">1</property>
  <property name="set.test_image">0</property>
  <property name="kdenlive:id">60</property>
  <property name="warp_pitch">0</property>
  <property name="meta.media.frame_rate_num">30000</property>
  <property name="meta.media.frame_rate_den">1001</property>
  <property name="meta.media.colorspace">601</property>
  <property name="meta.media.color_trc">2</property>
  <property name="meta.media.width">640</property>
  <property name="meta.media.height">360</property>
  <property name="meta.media.color_range">full</property>
  <property name="meta.media.top_field_first">0</property>
  <property name="meta.media.progressive">1</property>
 </producer>
 <producer id="producer185" in="00:00:00.000" out="00:00:19.300">
  <property name="length">580</property>
  <property name="eof">pause</property>
  <property name="resource">2.000000:/home/ryankelln/.cache/kdenlive/proxy/864b2f97137a4fbecddc2412ff0656f6.mkv</property>
  <property name="aspect_ratio">1</property>
  <property name="meta.media.nb_streams">1</property>
  <property name="meta.media.0.stream.type">video</property>
  <property name="meta.media.0.stream.frame_rate">24</property>
  <property name="meta.media.0.stream.sample_aspect_ratio">1</property>
  <property name="meta.media.0.codec.width">640</property>
  <property name="meta.media.0.codec.height">360</property>
  <property name="meta.media.0.codec.rotate">0</property>
  <property name="meta.media.0.codec.frame_rate">1000</property>
  <property name="meta.media.0.codec.pix_fmt">yuvj420p</property>
  <property name="meta.media.0.codec.sample_aspect_ratio">1</property>
  <property name="meta.media.0.codec.colorspace">601</property>
  <property name="meta.media.0.codec.name">mjpeg</property>
  <property name="meta.media.0.codec.long_name">MJPEG (Motion JPEG)</property>
  <property name="meta.media.0.codec.bit_rate">0</property>
  <property name="meta.attr.0.stream.HANDLER_NAME.markup">VideoHandler</property>
  <property name="meta.attr.0.stream.TIMECODE.markup">14:24:43:15</property>
  <property name="meta.attr.0.stream.ENCODER.markup">Lavc58.91.100 mjpeg</property>
  <property name="meta.attr.0.stream.DURATION.markup">00:00:38.792000000</property>
  <property name="meta.attr.MINOR_VERSION.markup">1</property>
  <property name="meta.attr.COMPATIBLE_BRANDS.markup">mp42avc1</property>
  <property name="meta.attr.MAJOR_BRAND.markup">mp42</property>
  <property name="meta.attr.ENCODER.markup">Lavf58.45.100</property>
  <property name="seekable">1</property>
  <property name="meta.media.sample_aspect_num">1</property>
  <property name="meta.media.sample_aspect_den">1</property>
  <property name="audio_index">-1</property>
  <property name="video_index">0</property>
  <property name="mute_on_pause">1</property>
  <property name="warp_speed">2</property>
  <property name="warp_resource">/home/ryankelln/.cache/kdenlive/proxy/864b2f97137a4fbecddc2412ff0656f6.mkv</property>
  <property name="mlt_service">timewarp</property>
  <property name="kdenlive:proxy">/home/ryankelln/.cache/kdenlive/proxy/864b2f97137a4fbecddc2412ff0656f6.mkv</property>
  <property name="kdenlive:originalurl">content/footage/2020-10-24_HighPark_swan+water+trees_2-swan_flap.MP4</property>
  <property name="set.test_audio">1</property>
  <property name="set.test_image">0</property>
  <property name="kdenlive:id">66</property>
  <property name="warp_pitch">0</property>
  <property name="meta.media.frame_rate_num">24</property>
  <property name="meta.media.frame_rate_den">1</property>
  <property name="meta.media.colorspace">601</property>
  <property name="meta.media.color_trc">2</property>
  <property name="meta.media.width">640</property>
  <property name="meta.media.height">360</property>
  <property name="meta.media.color_range">full</property>
  <property name="meta.media.top_field_first">0</property>
  <property name="meta.media.progressive">1</property>
 </producer>
 <producer id="producer186" in="00:00:00.000" out="00:04:20.267">
  <property name="length">7809</property>
  <property name="eof">pause</property>
  <property name="resource">/home/ryankelln/.cache/kdenlive/proxy/576b66f0f2ba78d4966b42a01ecd8793.mkv</property>
  <property name="audio_index">1</property>
  <property name="video_index">0</property>
  <property name="mute_on_pause">0</property>
  <property name="mlt_service">avformat-novalidate</property>
  <property name="seekable">1</property>
  <property name="aspect_ratio">1</property>
  <property name="kdenlive:clipname">Watervogelbond - Sylvan Heights Vogel Park.mp4</property>
  <property name="kdenlive:folderid">55</property>
  <property name="kdenlive:id">63</property>
  <property name="kdenlive:file_size">280645880</property>
  <property name="kdenlive:file_hash">576b66f0f2ba78d4966b42a01ecd8793</property>
  <property name="kdenlive:proxy">/home/ryankelln/.cache/kdenlive/proxy/576b66f0f2ba78d4966b42a01ecd8793.mkv</property>
  <property name="kdenlive:originalurl">content/footage/Watervogelbond - Sylvan Heights Vogel Park.mp4</property>
  <property name="kdenlive:original.mlt_type">producer</property>
  <property name="kdenlive:original.in">0</property>
  <property name="kdenlive:original.out">7808</property>
  <property name="kdenlive:original.length">7809</property>
  <property name="kdenlive:original.eof">pause</property>
  <property name="kdenlive:original.resource">content/footage/Watervogelbond - Sylvan Heights Vogel Park.mp4</property>
  <property name="kdenlive:original.meta.media.nb_streams">2</property>
  <property name="kdenlive:original.meta.media.0.stream.type">video</property>
  <property name="kdenlive:original.meta.media.0.stream.frame_rate">29.97</property>
  <property name="kdenlive:original.meta.media.0.stream.sample_aspect_ratio">0</property>
  <property name="kdenlive:original.meta.media.0.codec.width">1920</property>
  <property name="kdenlive:original.meta.media.0.codec.height">1080</property>
  <property name="kdenlive:original.meta.media.0.codec.rotate">0</property>
  <property name="kdenlive:original.meta.media.0.codec.frame_rate">29970</property>
  <property name="kdenlive:original.meta.media.0.codec.pix_fmt">yuv420p</property>
  <property name="kdenlive:original.meta.media.0.codec.sample_aspect_ratio">0</property>
  <property name="kdenlive:original.meta.media.0.codec.colorspace">709</property>
  <property name="kdenlive:original.meta.media.0.codec.name">h264</property>
  <property name="kdenlive:original.meta.media.0.codec.long_name">H.264 / AVC / MPEG-4 AVC / MPEG-4 part 10</property>
  <property name="kdenlive:original.meta.media.0.codec.bit_rate">8424986</property>
  <property name="kdenlive:original.meta.attr.0.stream.handler_name.markup">VideoHandler</property>
  <property name="kdenlive:original.meta.attr.0.stream.encoder.markup">AVC Coding</property>
  <property name="kdenlive:original.meta.media.1.stream.type">audio</property>
  <property name="kdenlive:original.meta.media.1.codec.sample_fmt">fltp</property>
  <property name="kdenlive:original.meta.media.1.codec.sample_rate">48000</property>
  <property name="kdenlive:original.meta.media.1.codec.channels">2</property>
  <property name="kdenlive:original.meta.media.1.codec.name">aac</property>
  <property name="kdenlive:original.meta.media.1.codec.long_name">AAC (Advanced Audio Coding)</property>
  <property name="kdenlive:original.meta.media.1.codec.bit_rate">195394</property>
  <property name="kdenlive:original.meta.attr.1.stream.handler_name.markup">SoundHandler</property>
  <property name="kdenlive:original.meta.attr.major_brand.markup">mp42</property>
  <property name="kdenlive:original.meta.attr.minor_version.markup">0</property>
  <property name="kdenlive:original.meta.attr.compatible_brands.markup">mp41isom</property>
  <property name="kdenlive:original.seekable">1</property>
  <property name="kdenlive:original.width">1920</property>
  <property name="kdenlive:original.height">1080</property>
  <property name="kdenlive:original.meta.media.sample_aspect_num">1</property>
  <property name="kdenlive:original.meta.media.sample_aspect_den">1</property>
  <property name="kdenlive:original.aspect_ratio">1</property>
  <property name="kdenlive:original.audio_index">1</property>
  <property name="kdenlive:original.video_index">0</property>
  <property name="kdenlive:original.mute_on_pause">0</property>
  <property name="kdenlive:original.mlt_service">avformat-novalidate</property>
  <property name="kdenlive:original.kdenlive:folderid">55</property>
  <property name="kdenlive:original.meta.media.frame_rate_num">2997</property>
  <property name="kdenlive:original.meta.media.frame_rate_den">100</property>
  <property name="kdenlive:original.meta.media.colorspace">709</property>
  <property name="kdenlive:original.meta.media.color_trc">2</property>
  <property name="kdenlive:original.meta.media.width">1920</property>
  <property name="kdenlive:original.meta.media.height">1080</property>
  <property name="kdenlive:original.meta.media.color_range">mpeg</property>
  <property name="kdenlive:original.kdenlive:id">83</property>
  <property name="kdenlive:original.kdenlive:file_size">280645880</property>
  <property name="kdenlive:original.kdenlive:file_hash">576b66f0f2ba78d4966b42a01ecd8793</property>
  <property name="kdenlive:original.backup">1</property>
  <property name="kdenlive:audio_max">6</property>
  <property name="kdenlive:zone_in">5412</property>
  <property name="kdenlive:zone_out">5443</property>
  <property name="kdenlive:clipzones">[
    {
        "in": 5412,
        "name": "Zone 1",
        "out": 5443
    }
]
</property>
  <property name="kdenlive:active_streams">-1</property>
  <property name="global_feed">1</property>
  <property name="xml">was here</property>
  <property name="meta.media.nb_streams">2</property>
  <property name="meta.media.0.stream.type">video</property>
  <property name="meta.media.0.stream.frame_rate">29.97</property>
  <property name="meta.media.0.stream.sample_aspect_ratio">0</property>
  <property name="meta.media.0.codec.width">640</property>
  <property name="meta.media.0.codec.height">360</property>
  <property name="meta.media.0.codec.rotate">0</property>
  <property name="meta.media.0.codec.frame_rate">1000</property>
  <property name="meta.media.0.codec.pix_fmt">yuvj420p</property>
  <property name="meta.media.0.codec.sample_aspect_ratio">0</property>
  <property name="meta.media.0.codec.colorspace">601</property>
  <property name="meta.media.0.codec.name">mjpeg</property>
  <property name="meta.media.0.codec.long_name">MJPEG (Motion JPEG)</property>
  <property name="meta.media.0.codec.bit_rate">0</property>
  <property name="meta.attr.0.stream.HANDLER_NAME.markup">VideoHandler</property>
  <property name="meta.attr.0.stream.ENCODER.markup">Lavc58.91.100 mjpeg</property>
  <property name="meta.attr.0.stream.DURATION.markup">00:04:20.360000000</property>
  <property name="meta.media.1.stream.type">audio</property>
  <property name="meta.media.1.codec.sample_fmt">s16</property>
  <property name="meta.media.1.codec.sample_rate">48000</property>
  <property name="meta.media.1.codec.channels">2</property>
  <property name="meta.media.1.codec.name">pcm_s16le</property>
  <property name="meta.media.1.codec.long_name">PCM signed 16-bit little-endian</property>
  <property name="meta.media.1.codec.bit_rate">1536000</property>
  <property name="meta.attr.1.stream.HANDLER_NAME.markup">SoundHandler</property>
  <property name="meta.attr.1.stream.ENCODER.markup">Lavc58.91.100 pcm_s16le</property>
  <property name="meta.attr.1.stream.DURATION.markup">00:04:20.309000000</property>
  <property name="meta.attr.COMPATIBLE_BRANDS.markup">mp41isom</property>
  <property name="meta.attr.MAJOR_BRAND.markup">mp42</property>
  <property name="meta.attr.MINOR_VERSION.markup">0</property>
  <property name="meta.attr.ENCODER.markup">Lavf58.45.100</property>
  <property name="meta.media.sample_aspect_num">1</property>
  <property name="meta.media.sample_aspect_den">1</property>
  <property name="meta.media.frame_rate_num">2997</property>
  <property name="meta.media.frame_rate_den">100</property>
  <property name="meta.media.colorspace">601</property>
  <property name="meta.media.color_trc">2</property>
  <property name="meta.media.width">640</property>
  <property name="meta.media.height">360</property>
  <property name="meta.media.color_range">full</property>
  <property name="set.test_audio">1</property>
  <property name="set.test_image">0</property>
  <property name="meta.media.top_field_first">0</property>
  <property name="meta.media.progressive">1</property>
 </producer>
 <producer id="producer187" in="00:00:00.000" out="00:00:33.067">
  <property name="length">993</property>
  <property name="eof">pause</property>
  <property name="resource">1.090909:/home/ryankelln/.cache/kdenlive/proxy/2926abe59dd90ece74cd92a191b6540d.mkv</property>
  <property name="aspect_ratio">1</property>
  <property name="meta.media.nb_streams">2</property>
  <property name="meta.media.0.stream.type">video</property>
  <property name="meta.media.0.stream.frame_rate">29.97</property>
  <property name="meta.media.0.stream.sample_aspect_ratio">1</property>
  <property name="meta.media.0.codec.width">640</property>
  <property name="meta.media.0.codec.height">360</property>
  <property name="meta.media.0.codec.rotate">0</property>
  <property name="meta.media.0.codec.frame_rate">1000</property>
  <property name="meta.media.0.codec.pix_fmt">yuvj420p</property>
  <property name="meta.media.0.codec.sample_aspect_ratio">1</property>
  <property name="meta.media.0.codec.colorspace">601</property>
  <property name="meta.media.0.codec.name">mjpeg</property>
  <property name="meta.media.0.codec.long_name">MJPEG (Motion JPEG)</property>
  <property name="meta.media.0.codec.bit_rate">0</property>
  <property name="meta.attr.0.stream.HANDLER_NAME.markup">VideoHandler</property>
  <property name="meta.attr.0.stream.ENCODER.markup">Lavc58.91.100 mjpeg</property>
  <property name="meta.attr.0.stream.DURATION.markup">00:00:36.002000000</property>
  <property name="meta.media.1.stream.type">audio</property>
  <property name="meta.media.1.codec.sample_fmt">s16</property>
  <property name="meta.media.1.codec.sample_rate">44100</property>
  <property name="meta.media.1.codec.channels">2</property>
  <property name="meta.media.1.codec.name">pcm_s16le</property>
  <property name="meta.media.1.codec.long_name">PCM signed 16-bit little-endian</property>
  <property name="meta.media.1.codec.bit_rate">1411200</property>
  <property name="meta.attr.1.stream.HANDLER_NAME.markup">SoundHandler</property>
  <property name="meta.attr.1.stream.ENCODER.markup">Lavc58.91.100 pcm_s16le</property>
  <property name="meta.attr.1.stream.DURATION.markup">00:00:36.107000000</property>
  <property name="meta.attr.COMPATIBLE_BRANDS.markup">isomiso2avc1mp41</property>
  <property name="meta.attr.MAJOR_BRAND.markup">isom</property>
  <property name="meta.attr.MINOR_VERSION.markup">512</property>
  <property name="meta.attr.ENCODER.markup">Lavf58.45.100</property>
  <property name="seekable">1</property>
  <property name="meta.media.sample_aspect_num">1</property>
  <property name="meta.media.sample_aspect_den">1</property>
  <property name="audio_index">1</property>
  <property name="video_index">0</property>
  <property name="mute_on_pause">1</property>
  <property name="warp_speed">1.09091</property>
  <property name="warp_resource">/home/ryankelln/.cache/kdenlive/proxy/2926abe59dd90ece74cd92a191b6540d.mkv</property>
  <property name="mlt_service">timewarp</property>
  <property name="kdenlive:proxy">/home/ryankelln/.cache/kdenlive/proxy/2926abe59dd90ece74cd92a191b6540d.mkv</property>
  <property name="kdenlive:originalurl">content/footage/Happy hopping Barnacle goose juvenile-thEOf3tH8rI.mp4</property>
  <property name="set.test_audio">1</property>
  <property name="set.test_image">0</property>
  <property name="kdenlive:id">62</property>
  <property name="warp_pitch">0</property>
  <property name="meta.media.frame_rate_num">30000</property>
  <property name="meta.media.frame_rate_den">1001</property>
  <property name="meta.media.colorspace">601</property>
  <property name="meta.media.color_trc">2</property>
  <property name="meta.media.width">640</property>
  <property name="meta.media.height">360</property>
  <property name="meta.media.color_range">full</property>
  <property name="meta.media.top_field_first">0</property>
  <property name="meta.media.progressive">1</property>
 </producer>
 <producer id="producer188" in="00:00:00.000" out="00:00:36.067">
  <property name="length">1083</property>
  <property name="eof">pause</property>
  <property name="resource">/home/ryankelln/.cache/kdenlive/proxy/2926abe59dd90ece74cd92a191b6540d.mkv</property>
  <property name="audio_index">1</property>
  <property name="video_index">0</property>
  <property name="mute_on_pause">0</property>
  <property name="mlt_service">avformat-novalidate</property>
  <property name="seekable">1</property>
  <property name="aspect_ratio">1</property>
  <property name="kdenlive:clipname">Happy hopping Barnacle goose juvenile-thEOf3tH8rI.mp4</property>
  <property name="kdenlive:folderid">55</property>
  <property name="kdenlive:id">62</property>
  <property name="kdenlive:file_size">18826683</property>
  <property name="kdenlive:file_hash">2926abe59dd90ece74cd92a191b6540d</property>
  <property name="kdenlive:proxy">/home/ryankelln/.cache/kdenlive/proxy/2926abe59dd90ece74cd92a191b6540d.mkv</property>
  <property name="kdenlive:originalurl">content/footage/Happy hopping Barnacle goose juvenile-thEOf3tH8rI.mp4</property>
  <property name="kdenlive:original.mlt_type">producer</property>
  <property name="kdenlive:original.in">0</property>
  <property name="kdenlive:original.out">1082</property>
  <property name="kdenlive:original.length">1083</property>
  <property name="kdenlive:original.eof">pause</property>
  <property name="kdenlive:original.resource">content/footage/Happy hopping Barnacle goose juvenile-thEOf3tH8rI.mp4</property>
  <property name="kdenlive:original.meta.media.nb_streams">2</property>
  <property name="kdenlive:original.meta.media.0.stream.type">video</property>
  <property name="kdenlive:original.meta.media.0.stream.frame_rate">29.97</property>
  <property name="kdenlive:original.meta.media.0.stream.sample_aspect_ratio">1</property>
  <property name="kdenlive:original.meta.media.0.codec.width">1920</property>
  <property name="kdenlive:original.meta.media.0.codec.height">1080</property>
  <property name="kdenlive:original.meta.media.0.codec.rotate">0</property>
  <property name="kdenlive:original.meta.media.0.codec.frame_rate">29.97</property>
  <property name="kdenlive:original.meta.media.0.codec.pix_fmt">yuv420p</property>
  <property name="kdenlive:original.meta.media.0.codec.sample_aspect_ratio">1</property>
  <property name="kdenlive:original.meta.media.0.codec.colorspace">709</property>
  <property name="kdenlive:original.meta.media.0.codec.name">h264</property>
  <property name="kdenlive:original.meta.media.0.codec.long_name">H.264 / AVC / MPEG-4 AVC / MPEG-4 part 10</property>
  <property name="kdenlive:original.meta.media.0.codec.bit_rate">4048845</property>
  <property name="kdenlive:original.meta.attr.0.stream.handler_name.markup">VideoHandler</property>
  <property name="kdenlive:original.meta.media.1.stream.type">audio</property>
  <property name="kdenlive:original.meta.media.1.codec.sample_fmt">fltp</property>
  <property name="kdenlive:original.meta.media.1.codec.sample_rate">44100</property>
  <property name="kdenlive:original.meta.media.1.codec.channels">2</property>
  <property name="kdenlive:original.meta.media.1.codec.name">aac</property>
  <property name="kdenlive:original.meta.media.1.codec.long_name">AAC (Advanced Audio Coding)</property>
  <property name="kdenlive:original.meta.media.1.codec.bit_rate">125588</property>
  <property name="kdenlive:original.meta.attr.1.stream.handler_name.markup">SoundHandler</property>
  <property name="kdenlive:original.meta.attr.major_brand.markup">isom</property>
  <property name="kdenlive:original.meta.attr.minor_version.markup">512</property>
  <property name="kdenlive:original.meta.attr.compatible_brands.markup">isomiso2avc1mp41</property>
  <property name="kdenlive:original.meta.attr.encoder.markup">Lavf58.45.100</property>
  <property name="kdenlive:original.seekable">1</property>
  <property name="kdenlive:original.width">1920</property>
  <property name="kdenlive:original.height">1080</property>
  <property name="kdenlive:original.meta.media.sample_aspect_num">1</property>
  <property name="kdenlive:original.meta.media.sample_aspect_den">1</property>
  <property name="kdenlive:original.aspect_ratio">1</property>
  <property name="kdenlive:original.audio_index">1</property>
  <property name="kdenlive:original.video_index">0</property>
  <property name="kdenlive:original.mute_on_pause">0</property>
  <property name="kdenlive:original.mlt_service">avformat-novalidate</property>
  <property name="kdenlive:original.kdenlive:folderid">55</property>
  <property name="kdenlive:original.meta.media.frame_rate_num">30000</property>
  <property name="kdenlive:original.meta.media.frame_rate_den">1001</property>
  <property name="kdenlive:original.meta.media.colorspace">709</property>
  <property name="kdenlive:original.meta.media.color_trc">2</property>
  <property name="kdenlive:original.meta.media.width">1920</property>
  <property name="kdenlive:original.meta.media.height">1080</property>
  <property name="kdenlive:original.meta.media.color_range">mpeg</property>
  <property name="kdenlive:original.kdenlive:id">81</property>
  <property name="kdenlive:original.kdenlive:file_size">18826683</property>
  <property name="kdenlive:original.kdenlive:file_hash">2926abe59dd90ece74cd92a191b6540d</property>
  <property name="kdenlive:original.backup">1</property>
  <property name="kdenlive:audio_max">1</property>
  <property name="global_feed">1</property>
  <property name="kdenlive:zone_in">879</property>
  <property name="kdenlive:zone_out">1079</property>
  <property name="kdenlive:clipzones">[
    {
        "in": 879,
        "name": "Zone 1",
        "out": 1079
    }
]
</property>
  <property name="xml">was here</property>
  <property name="meta.media.nb_streams">2</property>
  <property name="meta.media.0.stream.type">video</property>
  <property name="meta.media.0.stream.frame_rate">29.97</property>
  <property name="meta.media.0.stream.sample_aspect_ratio">1</property>
  <property name="meta.media.0.codec.width">640</property>
  <property name="meta.media.0.codec.height">360</property>
  <property name="meta.media.0.codec.rotate">0</property>
  <property name="meta.media.0.codec.frame_rate">1000</property>
  <property name="meta.media.0.codec.pix_fmt">yuvj420p</property>
  <property name="meta.media.0.codec.sample_aspect_ratio">1</property>
  <property name="meta.media.0.codec.colorspace">601</property>
  <property name="meta.media.0.codec.name">mjpeg</property>
  <property name="meta.media.0.codec.long_name">MJPEG (Motion JPEG)</property>
  <property name="meta.media.0.codec.bit_rate">0</property>
  <property name="meta.attr.0.stream.HANDLER_NAME.markup">VideoHandler</property>
  <property name="meta.attr.0.stream.ENCODER.markup">Lavc58.91.100 mjpeg</property>
  <property name="meta.attr.0.stream.DURATION.markup">00:00:36.002000000</property>
  <property name="meta.media.1.stream.type">audio</property>
  <property name="meta.media.1.codec.sample_fmt">s16</property>
  <property name="meta.media.1.codec.sample_rate">44100</property>
  <property name="meta.media.1.codec.channels">2</property>
  <property name="meta.media.1.codec.name">pcm_s16le</property>
  <property name="meta.media.1.codec.long_name">PCM signed 16-bit little-endian</property>
  <property name="meta.media.1.codec.bit_rate">1411200</property>
  <property name="meta.attr.1.stream.HANDLER_NAME.markup">SoundHandler</property>
  <property name="meta.attr.1.stream.ENCODER.markup">Lavc58.91.100 pcm_s16le</property>
  <property name="meta.attr.1.stream.DURATION.markup">00:00:36.107000000</property>
  <property name="meta.attr.COMPATIBLE_BRANDS.markup">isomiso2avc1mp41</property>
  <property name="meta.attr.MAJOR_BRAND.markup">isom</property>
  <property name="meta.attr.MINOR_VERSION.markup">512</property>
  <property name="meta.attr.ENCODER.markup">Lavf58.45.100</property>
  <property name="meta.media.sample_aspect_num">1</property>
  <property name="meta.media.sample_aspect_den">1</property>
  <property name="meta.media.frame_rate_num">30000</property>
  <property name="meta.media.frame_rate_den">1001</property>
  <property name="meta.media.colorspace">601</property>
  <property name="meta.media.color_trc">2</property>
  <property name="meta.media.width">640</property>
  <property name="meta.media.height">360</property>
  <property name="meta.media.color_range">full</property>
  <property name="meta.media.top_field_first">0</property>
  <property name="meta.media.progressive">1</property>
  <property name="set.test_audio">1</property>
  <property name="set.test_image">0</property>
 </producer>
 <producer id="producer189" in="00:00:00.000" out="00:00:40.233">
  <property name="length">1208</property>
  <property name="eof">pause</property>
  <property name="resource">content/footage/bird shit.mp4</property>
  <property name="audio_index">1</property>
  <property name="video_index">0</property>
  <property name="mute_on_pause">0</property>
  <property name="mlt_service">avformat-novalidate</property>
  <property name="seekable">1</property>
  <property name="aspect_ratio">1</property>
  <property name="kdenlive:clipname">bird shit.mp4</property>
  <property name="kdenlive:folderid">55</property>
  <property name="kdenlive:id">64</property>
  <property name="kdenlive:file_size">13081500</property>
  <property name="kdenlive:file_hash">ff3d577e677fa7ef6ee919d871119c10</property>
  <property name="kdenlive:proxy">-</property>
  <property name="kdenlive:originalurl">content/footage/bird shit.mp4</property>
  <property name="kdenlive:audio_max">17</property>
  <property name="global_feed">1</property>
  <property name="kdenlive:active_streams">-1</property>
  <property name="kdenlive:zone_in">514</property>
  <property name="kdenlive:zone_out">770</property>
  <property name="kdenlive:clipzones">[
    {
        "in": 514,
        "name": "flying shit",
        "out": 770
    }
]
</property>
  <property name="xml">was here</property>
  <property name="meta.media.nb_streams">2</property>
  <property name="meta.media.0.stream.type">video</property>
  <property name="meta.media.0.stream.frame_rate">12</property>
  <property name="meta.media.0.stream.sample_aspect_ratio">1</property>
  <property name="meta.media.0.codec.width">1280</property>
  <property name="meta.media.0.codec.height">720</property>
  <property name="meta.media.0.codec.rotate">0</property>
  <property name="meta.media.0.codec.frame_rate">12</property>
  <property name="meta.media.0.codec.pix_fmt">yuv420p</property>
  <property name="meta.media.0.codec.sample_aspect_ratio">1</property>
  <property name="meta.media.0.codec.colorspace">709</property>
  <property name="meta.media.0.codec.name">h264</property>
  <property name="meta.media.0.codec.long_name">H.264 / AVC / MPEG-4 AVC / MPEG-4 part 10</property>
  <property name="meta.media.0.codec.bit_rate">2480920</property>
  <property name="meta.attr.0.stream.creation_time.markup">2013-02-05T14:31:58.000000Z</property>
  <property name="meta.attr.0.stream.handler_name.markup">L-SMASH Video Handler</property>
  <property name="meta.attr.0.stream.encoder.markup">AVC Coding</property>
  <property name="meta.media.1.stream.type">audio</property>
  <property name="meta.media.1.codec.sample_fmt">fltp</property>
  <property name="meta.media.1.codec.sample_rate">44100</property>
  <property name="meta.media.1.codec.channels">2</property>
  <property name="meta.media.1.codec.name">aac</property>
  <property name="meta.media.1.codec.long_name">AAC (Advanced Audio Coding)</property>
  <property name="meta.media.1.codec.bit_rate">157588</property>
  <property name="meta.attr.1.stream.creation_time.markup">2013-02-05T14:31:58.000000Z</property>
  <property name="meta.attr.1.stream.handler_name.markup">L-SMASH Audio Handler</property>
  <property name="meta.attr.major_brand.markup">mp42</property>
  <property name="meta.attr.minor_version.markup">0</property>
  <property name="meta.attr.compatible_brands.markup">mp42mp41isomavc1</property>
  <property name="meta.attr.creation_time.markup">2013-02-05T14:31:58.000000Z</property>
  <property name="meta.media.sample_aspect_num">1</property>
  <property name="meta.media.sample_aspect_den">1</property>
  <property name="meta.media.frame_rate_num">12</property>
  <property name="meta.media.frame_rate_den">1</property>
  <property name="meta.media.colorspace">709</property>
  <property name="meta.media.color_trc">2</property>
  <property name="meta.media.width">1280</property>
  <property name="meta.media.height">720</property>
  <property name="meta.media.color_range">mpeg</property>
  <property name="meta.media.top_field_first">0</property>
  <property name="meta.media.progressive">1</property>
  <property name="set.test_audio">1</property>
  <property name="set.test_image">0</property>
 </producer>
 <producer id="producer190" in="00:00:00.000" out="00:02:28.133">
  <property name="length">4445</property>
  <property name="eof">pause</property>
  <property name="resource">/home/ryankelln/Documents/Projects/Active/Sound_Escapes/musician_footage/musicians_greenscreen_test_2.mp4</property>
  <property name="audio_index">-1</property>
  <property name="video_index">0</property>
  <property name="mute_on_pause">0</property>
  <property name="mlt_service">avformat-novalidate</property>
  <property name="seekable">1</property>
  <property name="aspect_ratio">1</property>
  <property name="kdenlive:clipname"/>
  <property name="kdenlive:folderid">-1</property>
  <property name="kdenlive:id">25</property>
  <property name="kdenlive:file_size">78444272</property>
  <property name="kdenlive:file_hash">9297512d6bce04ff44d065ea5c8f4079</property>
  <property name="kdenlive:zone_in">3288</property>
  <property name="kdenlive:zone_out">4418</property>
  <property name="kdenlive:clipzones">[
    {
        "in": 3288,
        "name": "Zone 1",
        "out": 4418
    }
]
</property>
  <property name="global_feed">1</property>
  <property name="xml">was here</property>
  <property name="meta.media.nb_streams">1</property>
  <property name="meta.media.0.stream.type">video</property>
  <property name="meta.media.0.stream.frame_rate">30</property>
  <property name="meta.media.0.stream.sample_aspect_ratio">1</property>
  <property name="meta.media.0.codec.width">1920</property>
  <property name="meta.media.0.codec.height">1080</property>
  <property name="meta.media.0.codec.rotate">0</property>
  <property name="meta.media.0.codec.frame_rate">30</property>
  <property name="meta.media.0.codec.pix_fmt">yuv420p</property>
  <property name="meta.media.0.codec.sample_aspect_ratio">1</property>
  <property name="meta.media.0.codec.colorspace">709</property>
  <property name="meta.media.0.codec.color_trc">1</property>
  <property name="meta.media.0.codec.name">h264</property>
  <property name="meta.media.0.codec.long_name">H.264 / AVC / MPEG-4 AVC / MPEG-4 part 10</property>
  <property name="meta.media.0.codec.bit_rate">4232890</property>
  <property name="meta.attr.0.stream.handler_name.markup">VideoHandler</property>
  <property name="meta.attr.0.stream.vendor_id.markup">[0][0][0][0]</property>
  <property name="meta.attr.major_brand.markup">isom</property>
  <property name="meta.attr.minor_version.markup">512</property>
  <property name="meta.attr.compatible_brands.markup">isomiso2avc1mp41</property>
  <property name="meta.attr.encoder.markup">Lavf58.76.100</property>
  <property name="meta.media.sample_aspect_num">1</property>
  <property name="meta.media.sample_aspect_den">1</property>
  <property name="meta.media.frame_rate_num">30</property>
  <property name="meta.media.frame_rate_den">1</property>
  <property name="meta.media.colorspace">709</property>
  <property name="meta.media.color_trc">1</property>
  <property name="meta.media.width">1920</property>
  <property name="meta.media.height">1080</property>
  <property name="meta.media.color_range">mpeg</property>
  <property name="meta.media.top_field_first">0</property>
  <property name="meta.media.progressive">1</property>
  <property name="set.test_audio">1</property>
  <property name="set.test_image">0</property>
 </producer>
 <producer id="producer191" in="00:00:00.000" out="00:02:28.133">
  <property name="length">4445</property>
  <property name="eof">pause</property>
  <property name="resource">/home/ryankelln/Documents/Projects/Active/Sound_Escapes/musician_footage/musicians_greenscreen_test_on_white.mp4</property>
  <property name="audio_index">-1</property>
  <property name="video_index">0</property>
  <property name="mute_on_pause">0</property>
  <property name="mlt_service">avformat-novalidate</property>
  <property name="seekable">1</property>
  <property name="aspect_ratio">1</property>
  <property name="kdenlive:clipname"/>
  <property name="kdenlive:folderid">-1</property>
  <property name="kdenlive:id">24</property>
  <property name="kdenlive:file_size">70909706</property>
  <property name="kdenlive:file_hash">9dc0e65408ad03cdb148ea7a4c185783</property>
  <property name="kdenlive:zone_in">3367</property>
  <property name="kdenlive:zone_out">4226</property>
  <property name="kdenlive:clipzones">[
    {
        "in": 3367,
        "name": "Zone 1",
        "out": 4226
    }
]
</property>
  <property name="global_feed">1</property>
  <property name="xml">was here</property>
  <property name="meta.media.nb_streams">1</property>
  <property name="meta.media.0.stream.type">video</property>
  <property name="meta.media.0.stream.frame_rate">30</property>
  <property name="meta.media.0.stream.sample_aspect_ratio">1</property>
  <property name="meta.media.0.codec.width">1920</property>
  <property name="meta.media.0.codec.height">1080</property>
  <property name="meta.media.0.codec.rotate">0</property>
  <property name="meta.media.0.codec.frame_rate">30</property>
  <property name="meta.media.0.codec.pix_fmt">yuv420p</property>
  <property name="meta.media.0.codec.sample_aspect_ratio">1</property>
  <property name="meta.media.0.codec.colorspace">709</property>
  <property name="meta.media.0.codec.color_trc">1</property>
  <property name="meta.media.0.codec.name">h264</property>
  <property name="meta.media.0.codec.long_name">H.264 / AVC / MPEG-4 AVC / MPEG-4 part 10</property>
  <property name="meta.media.0.codec.bit_rate">3826089</property>
  <property name="meta.attr.0.stream.handler_name.markup">VideoHandler</property>
  <property name="meta.attr.0.stream.vendor_id.markup">[0][0][0][0]</property>
  <property name="meta.attr.major_brand.markup">isom</property>
  <property name="meta.attr.minor_version.markup">512</property>
  <property name="meta.attr.compatible_brands.markup">isomiso2avc1mp41</property>
  <property name="meta.attr.encoder.markup">Lavf58.76.100</property>
  <property name="meta.media.sample_aspect_num">1</property>
  <property name="meta.media.sample_aspect_den">1</property>
  <property name="meta.media.frame_rate_num">30</property>
  <property name="meta.media.frame_rate_den">1</property>
  <property name="meta.media.colorspace">709</property>
  <property name="meta.media.color_trc">1</property>
  <property name="meta.media.width">1920</property>
  <property name="meta.media.height">1080</property>
  <property name="meta.media.color_range">mpeg</property>
  <property name="meta.media.top_field_first">0</property>
  <property name="meta.media.progressive">1</property>
  <property name="set.test_audio">1</property>
  <property name="set.test_image">0</property>
 </producer>
 <producer id="producer192" in="00:00:00.000" out="00:00:33.067">
  <property name="length">993</property>
  <property name="eof">pause</property>
  <property name="resource">/home/ryankelln/Documents/Projects/Active/Sound_Escapes/Jackson/storyboard/musician_headshots_gs_v1.mp4</property>
  <property name="audio_index">-1</property>
  <property name="video_index">0</property>
  <property name="mute_on_pause">0</property>
  <property name="mlt_service">avformat-novalidate</property>
  <property name="seekable">1</property>
  <property name="aspect_ratio">1</property>
  <property name="kdenlive:clipname"/>
  <property name="kdenlive:folderid">-1</property>
  <property name="kdenlive:id">27</property>
  <property name="kdenlive:file_size">13657813</property>
  <property name="kdenlive:file_hash">4e7814484628db33aa84e177647b8cf7</property>
  <property name="global_feed">1</property>
  <property name="xml">was here</property>
  <property name="meta.media.nb_streams">1</property>
  <property name="meta.media.0.stream.type">video</property>
  <property name="meta.media.0.stream.frame_rate">30</property>
  <property name="meta.media.0.stream.sample_aspect_ratio">1</property>
  <property name="meta.media.0.codec.width">1920</property>
  <property name="meta.media.0.codec.height">1080</property>
  <property name="meta.media.0.codec.rotate">0</property>
  <property name="meta.media.0.codec.frame_rate">30</property>
  <property name="meta.media.0.codec.pix_fmt">yuv420p</property>
  <property name="meta.media.0.codec.sample_aspect_ratio">1</property>
  <property name="meta.media.0.codec.colorspace">709</property>
  <property name="meta.media.0.codec.color_trc">1</property>
  <property name="meta.media.0.codec.name">h264</property>
  <property name="meta.media.0.codec.long_name">H.264 / AVC / MPEG-4 AVC / MPEG-4 part 10</property>
  <property name="meta.media.0.codec.bit_rate">3298295</property>
  <property name="meta.attr.0.stream.handler_name.markup">VideoHandler</property>
  <property name="meta.attr.0.stream.vendor_id.markup">[0][0][0][0]</property>
  <property name="meta.attr.major_brand.markup">isom</property>
  <property name="meta.attr.minor_version.markup">512</property>
  <property name="meta.attr.compatible_brands.markup">isomiso2avc1mp41</property>
  <property name="meta.attr.encoder.markup">Lavf58.76.100</property>
  <property name="meta.media.sample_aspect_num">1</property>
  <property name="meta.media.sample_aspect_den">1</property>
  <property name="meta.media.frame_rate_num">30</property>
  <property name="meta.media.frame_rate_den">1</property>
  <property name="meta.media.colorspace">709</property>
  <property name="meta.media.color_trc">1</property>
  <property name="meta.media.width">1920</property>
  <property name="meta.media.height">1080</property>
  <property name="meta.media.color_range">mpeg</property>
  <property name="meta.media.top_field_first">0</property>
  <property name="meta.media.progressive">1</property>
  <property name="set.test_audio">1</property>
  <property name="set.test_image">0</property>
 </producer>
 <producer id="producer193" in="00:00:00.000" out="00:02:23.000">
  <property name="length">00:02:23.067</property>
  <property name="eof">pause</property>
  <property name="resource">6.000000:/media/storage/media/Videos/mine/music_landscapes/2020-12-29/Camerons_camera/2020-12-29_Toronto_sky+clouds_2_unstable.MP4.stable.MP4</property>
  <property name="aspect_ratio">1</property>
  <property name="meta.media.nb_streams">3</property>
  <property name="meta.media.0.stream.type">video</property>
  <property name="meta.media.0.stream.frame_rate">24</property>
  <property name="meta.media.0.stream.sample_aspect_ratio">1</property>
  <property name="meta.media.0.codec.width">1920</property>
  <property name="meta.media.0.codec.height">1080</property>
  <property name="meta.media.0.codec.rotate">0</property>
  <property name="meta.media.0.codec.frame_rate">24</property>
  <property name="meta.media.0.codec.pix_fmt">yuv420p</property>
  <property name="meta.media.0.codec.sample_aspect_ratio">1</property>
  <property name="meta.media.0.codec.colorspace">709</property>
  <property name="meta.media.0.codec.name">h264</property>
  <property name="meta.media.0.codec.long_name">H.264 / AVC / MPEG-4 AVC / MPEG-4 part 10</property>
  <property name="meta.media.0.codec.bit_rate">1538545</property>
  <property name="meta.attr.0.stream.handler_name.markup">VideoHandler</property>
  <property name="meta.attr.0.stream.timecode.markup">22:17:31:15</property>
  <property name="meta.media.1.stream.type">audio</property>
  <property name="meta.media.1.codec.sample_fmt">fltp</property>
  <property name="meta.media.1.codec.sample_rate">48000</property>
  <property name="meta.media.1.codec.channels">2</property>
  <property name="meta.media.1.codec.name">aac</property>
  <property name="meta.media.1.codec.long_name">AAC (Advanced Audio Coding)</property>
  <property name="meta.media.1.codec.bit_rate">2275</property>
  <property name="meta.attr.1.stream.handler_name.markup">SoundHandler</property>
  <property name="meta.attr.major_brand.markup">isom</property>
  <property name="meta.attr.minor_version.markup">512</property>
  <property name="meta.attr.compatible_brands.markup">isomiso2avc1mp41</property>
  <property name="meta.attr.encoder.markup">Lavf58.45.100</property>
  <property name="seekable">1</property>
  <property name="meta.media.sample_aspect_num">1</property>
  <property name="meta.media.sample_aspect_den">1</property>
  <property name="audio_index">1</property>
  <property name="video_index">0</property>
  <property name="mute_on_pause">1</property>
  <property name="warp_speed">6</property>
  <property name="warp_resource">/media/storage/media/Videos/mine/music_landscapes/2020-12-29/Camerons_camera/2020-12-29_Toronto_sky+clouds_2_unstable.MP4.stable.MP4</property>
  <property name="mlt_service">timewarp</property>
  <property name="meta.attr.0.stream.vendor_id.markup">[0][0][0][0]</property>
  <property name="meta.attr.1.stream.vendor_id.markup">[0][0][0][0]</property>
  <property name="set.test_audio">1</property>
  <property name="set.test_image">0</property>
  <property name="kdenlive:id">18</property>
  <property name="warp_pitch">0</property>
  <property name="meta.media.frame_rate_num">24</property>
  <property name="meta.media.frame_rate_den">1</property>
  <property name="meta.media.colorspace">709</property>
  <property name="meta.media.color_trc">2</property>
  <property name="meta.media.width">1920</property>
  <property name="meta.media.height">1080</property>
  <property name="meta.media.color_range">mpeg</property>
  <property name="meta.media.top_field_first">0</property>
  <property name="meta.media.progressive">1</property>
 </producer>
 <playlist id="playlist10">
  <blank length="00:00:18.333"/>
  <entry producer="producer179" in="00:00:01.167" out="00:00:06.367">
   <property name="kdenlive:id">48</property>
   <property name="kdenlive:activeeffect">3</property>
   <filter id="filter79">
    <property name="version">0.6</property>
    <property name="mlt_service">frei0r.select0r</property>
    <property name="kdenlive_id">frei0r.select0r</property>
    <property name="Color to select">0xafaaa8ff</property>
    <property name="Invert selection">1</property>
    <property name="Selection subspace">1</property>
    <property name="Subspace shape">0</property>
    <property name="Edge mode">0.35</property>
    <property name="Delta R / A / Hue">00:00:01.167=0.88</property>
    <property name="Delta G / B / Chroma">00:00:01.167=0.865</property>
    <property name="Delta B / I / I">00:00:01.167=0.221</property>
    <property name="Slope">00:00:01.167=0.168</property>
    <property name="Operation">0.5</property>
    <property name="kdenlive:collapsed">0</property>
    <property name="disable">1</property>
   </filter>
   <filter id="filter80">
    <property name="version">0.1</property>
    <property name="mlt_service">frei0r.mask0mate</property>
    <property name="kdenlive_id">frei0r.mask0mate</property>
    <property name="Left">00:00:01.167=0</property>
    <property name="Right">00:00:01.167=0</property>
    <property name="Top">00:00:01.167=0.343</property>
    <property name="Bottom">00:00:01.167=0.429</property>
    <property name="Invert">1</property>
    <property name="Blur">00:00:01.167=0.116</property>
    <property name="kdenlive:collapsed">0</property>
   </filter>
   <filter id="filter81">
    <property name="rotate_center">1</property>
    <property name="mlt_service">qtblend</property>
    <property name="kdenlive_id">qtblend</property>
    <property name="rect">00:00:01.167=0 -94 1920 1080 1.000000</property>
    <property name="rotation">00:00:01.167=0</property>
    <property name="compositing">0</property>
    <property name="distort">0</property>
    <property name="kdenlive:collapsed">0</property>
   </filter>
   <filter id="filter82">
    <property name="mlt_service">avfilter.hflip</property>
    <property name="kdenlive_id">avfilter.hflip</property>
    <property name="kdenlive:collapsed">0</property>
    <property name="disable">0</property>
   </filter>
  </entry>
  <entry producer="producer179" in="00:00:01.167" out="00:00:04.800">
   <property name="kdenlive:id">48</property>
   <filter id="filter83">
    <property name="version">0.6</property>
    <property name="mlt_service">frei0r.select0r</property>
    <property name="kdenlive_id">frei0r.select0r</property>
    <property name="Color to select">0xafaaa8ff</property>
    <property name="Invert selection">1</property>
    <property name="Selection subspace">1</property>
    <property name="Subspace shape">0</property>
    <property name="Edge mode">0.35</property>
    <property name="Delta R / A / Hue">35=0.88</property>
    <property name="Delta G / B / Chroma">35=0.865</property>
    <property name="Delta B / I / I">35=0.221</property>
    <property name="Slope">35=0.168</property>
    <property name="Operation">0.5</property>
    <property name="disable">1</property>
   </filter>
   <filter id="filter84">
    <property name="version">0.1</property>
    <property name="mlt_service">frei0r.mask0mate</property>
    <property name="kdenlive_id">frei0r.mask0mate</property>
    <property name="Left">00:00:01.167=0</property>
    <property name="Right">00:00:01.167=0</property>
    <property name="Top">00:00:01.167=0.343</property>
    <property name="Bottom">00:00:01.167=0.429</property>
    <property name="Invert">1</property>
    <property name="Blur">00:00:01.167=0.116</property>
   </filter>
   <filter id="filter85">
    <property name="rotate_center">1</property>
    <property name="mlt_service">qtblend</property>
    <property name="kdenlive_id">qtblend</property>
    <property name="rect">00:00:01.167=0 -94 1920 1080 1.000000</property>
    <property name="rotation">00:00:01.167=0</property>
    <property name="compositing">0</property>
    <property name="distort">0</property>
   </filter>
   <filter id="filter86">
    <property name="mlt_service">avfilter.hflip</property>
    <property name="kdenlive_id">avfilter.hflip</property>
   </filter>
  </entry>
  <blank length="00:00:07.200"/>
  <entry producer="producer180" in="00:00:03.967" out="00:00:07.167">
   <property name="kdenlive:id">50</property>
   <filter id="filter87">
    <property name="rotate_center">1</property>
    <property name="mlt_service">qtblend</property>
    <property name="kdenlive_id">qtblend</property>
    <property name="rect">00:00:03.967=0 0 1920 1080 1</property>
    <property name="rotation">00:00:03.967=99</property>
    <property name="compositing">0</property>
    <property name="distort">0</property>
    <property name="kdenlive:collapsed">0</property>
   </filter>
  </entry>
  <entry producer="producer180" in="00:00:07.200" out="00:00:09.600">
   <property name="kdenlive:id">50</property>
   <filter id="filter88">
    <property name="rotate_center">1</property>
    <property name="mlt_service">qtblend</property>
    <property name="kdenlive_id">qtblend</property>
    <property name="rect">00:00:07.200=0 0 1920 1080 1.000000</property>
    <property name="rotation">00:00:07.200=99</property>
    <property name="compositing">0</property>
    <property name="distort">0</property>
    <property name="kdenlive:collapsed">0</property>
   </filter>
   <filter id="filter89">
    <property name="mirror">vertical</property>
    <property name="mlt_service">mirror</property>
    <property name="kdenlive_id">mirror</property>
    <property name="reverse">1</property>
    <property name="kdenlive:collapsed">0</property>
   </filter>
  </entry>
  <entry producer="producer180" in="00:00:09.633" out="00:00:09.733">
   <property name="kdenlive:id">50</property>
   <filter id="filter90">
    <property name="rotate_center">1</property>
    <property name="mlt_service">qtblend</property>
    <property name="kdenlive_id">qtblend</property>
    <property name="rect">00:00:09.633=0 0 1920 1080 1.000000</property>
    <property name="rotation">00:00:09.633=99</property>
    <property name="compositing">0</property>
    <property name="distort">0</property>
    <property name="kdenlive:collapsed">0</property>
   </filter>
  </entry>
  <entry producer="producer180" in="00:00:09.767" out="00:00:19.800">
   <property name="kdenlive:id">50</property>
   <property name="kdenlive:activeeffect">1</property>
   <filter id="filter91">
    <property name="rotate_center">1</property>
    <property name="mlt_service">qtblend</property>
    <property name="kdenlive_id">qtblend</property>
    <property name="rect">00:00:09.767=0 0 1920 1080 1.000000;00:00:12.267=0 0 1920 1080 1.000000;00:00:14.667=0 0 1920 1080 1.000000;00:00:14.700=0 0 1920 1080 1.000000;00:00:15.900=0 0 1920 1080 1.000000;00:00:15.933=0 0 1920 1080 1.000000;00:00:17.167=0 0 1920 1080 1.000000;00:00:17.200=0 0 1920 1080 1.000000;00:00:19.000=0 0 1920 1080 1.000000;00:00:19.033=0 0 1920 1080 1.000000;00:00:19.800=0 0 1920 1080 1.000000</property>
    <property name="rotation">00:00:09.767=66;00:00:12.267=-23.701;00:00:14.667=57;00:00:14.700=57;00:00:15.900=-27;00:00:15.933=-27;00:00:17.167=-47.913;00:00:17.200=-47.913;00:00:19.000=-79;00:00:19.033=-79;00:00:19.800=-294</property>
    <property name="compositing">0</property>
    <property name="distort">0</property>
    <property name="kdenlive:collapsed">0</property>
   </filter>
   <filter id="filter92">
    <property name="rotate_center">1</property>
    <property name="mlt_service">qtblend</property>
    <property name="kdenlive_id">qtblend</property>
    <property name="rect">00:00:09.767|=0 0 1920 1080 1.000000;00:00:12.233~=-798 -761 2880 1620 0.500000;00:00:14.667~=-601 -968 2880 1620 0.500000;00:00:14.700~=-601 -968 2880 1620 0.500000;00:00:15.300~=-1164 -680 2880 1620 0.500000;00:00:15.600~=-1329 -442 2880 1620 0.500000;00:00:15.900=-1296 -134 2880 1620 0.500000;00:00:15.933=-1296 -134 2880 1620 0.500000;00:00:17.167=-1076 276 2880 1621 0.500000;00:00:17.200=-1076 276 2880 1621 0.500000;00:00:19.000=-1097 646 2880 1621 0.500000;00:00:19.033=-1097 646 2880 1621 0.500000;00:00:19.800=0 0 1920 1080 0.500000</property>
    <property name="rotation">00:00:09.767|=0;00:00:12.233~=0;00:00:14.667~=0;00:00:14.700~=0;00:00:15.300~=0;00:00:15.600~=0;00:00:15.900=0;00:00:15.933=0;00:00:17.167=0;00:00:17.200=0;00:00:19.000=0;00:00:19.033=0;00:00:19.800=0</property>
    <property name="compositing">0</property>
    <property name="distort">0</property>
    <property name="kdenlive:collapsed">0</property>
   </filter>
  </entry>
  <entry producer="producer181" in="00:00:11.067" out="00:00:20.633">
   <property name="kdenlive:id">50</property>
   <filter id="filter93">
    <property name="rotate_center">1</property>
    <property name="mlt_service">qtblend</property>
    <property name="kdenlive_id">qtblend</property>
    <property name="rect">00:00:11.067=0 0 1920 1080 1.000000;00:00:19.967=0 0 1920 1080 1.000000;00:00:20.633=0 0 1920 1080 1.000000</property>
    <property name="rotation">00:00:11.067=66;00:00:19.967=-320;00:00:20.633=-360</property>
    <property name="compositing">0</property>
    <property name="distort">0</property>
    <property name="kdenlive:collapsed">0</property>
   </filter>
   <filter id="filter94">
    <property name="rotate_center">1</property>
    <property name="mlt_service">qtblend</property>
    <property name="kdenlive_id">qtblend</property>
    <property name="rect">00:00:11.067|=0 0 1920 1080 1.000000;00:00:20.633=0 0 1920 1080 1.000000</property>
    <property name="rotation">00:00:11.067|=0;00:00:20.633=0</property>
    <property name="compositing">0</property>
    <property name="distort">0</property>
    <property name="kdenlive:collapsed">0</property>
   </filter>
  </entry>
  <blank length="00:00:25.300"/>
  <entry producer="producer182" in="00:00:00.333" out="00:00:35.500">
   <property name="kdenlive:id">109</property>
   <filter id="filter95">
    <property name="mlt_service">avfilter.vflip</property>
    <property name="kdenlive_id">avfilter.vflip</property>
    <property name="kdenlive:collapsed">0</property>
   </filter>
   <filter id="filter96">
    <property name="version">0.1</property>
    <property name="mlt_service">frei0r.mask0mate</property>
    <property name="kdenlive_id">frei0r.mask0mate</property>
    <property name="Left">00:00:00.333=0</property>
    <property name="Right">00:00:00.333=0</property>
    <property name="Top">00:00:00.333=0.218</property>
    <property name="Bottom">00:00:00.333=0.209</property>
    <property name="Invert">1</property>
    <property name="Blur">00:00:00.333=0.146</property>
    <property name="kdenlive:collapsed">0</property>
   </filter>
   <filter id="filter97">
    <property name="rotate_center">1</property>
    <property name="mlt_service">qtblend</property>
    <property name="kdenlive_id">qtblend</property>
    <property name="rect">00:00:00.333=0 320 1920 540 1.000000</property>
    <property name="rotation">00:00:00.333=0</property>
    <property name="compositing">0</property>
    <property name="distort">1</property>
    <property name="kdenlive:collapsed">0</property>
   </filter>
  </entry>
  <blank length="00:01:35.100"/>
  <entry producer="producer79" in="00:00:00.000" out="00:00:07.700">
   <property name="kdenlive:id">110</property>
   <property name="kdenlive:activeeffect">2</property>
   <filter id="filter98">
    <property name="rotate_center">1</property>
    <property name="mlt_service">qtblend</property>
    <property name="kdenlive_id">qtblend</property>
    <property name="rect">00:00:00.000=172 -21 1300 1300 1.000000;00:00:00.467=172 -21 1300 1301 1.000000;00:00:07.233=-57 -450 1800 1800 1.000000</property>
    <property name="rotation">00:00:00.000=0;00:00:00.467=0;00:00:07.233=0</property>
    <property name="compositing">0</property>
    <property name="distort">1</property>
    <property name="kdenlive:collapsed">0</property>
   </filter>
   <filter id="filter99">
    <property name="lift_r">-0.274998</property>
    <property name="lift_g">-0.274998</property>
    <property name="lift_b">-0.274998</property>
    <property name="gamma_r">1.325</property>
    <property name="gamma_g">1.325</property>
    <property name="gamma_b">1.325</property>
    <property name="gain_r">1.25002</property>
    <property name="gain_g">1.25002</property>
    <property name="gain_b">1.25002</property>
    <property name="mlt_service">lift_gamma_gain</property>
    <property name="kdenlive_id">lift_gamma_gain</property>
    <property name="kdenlive:collapsed">0</property>
   </filter>
   <filter id="filter100">
    <property name="rect">00:00:00.000=172 -21 1300 1300;00:00:00.467=172 -21 1300 1300;00:00:07.233=-57 -450 1800 1800</property>
    <property name="blur">8</property>
    <property name="mlt_service">pillar_echo</property>
    <property name="kdenlive_id">pillar_echo</property>
    <property name="kdenlive:collapsed">0</property>
   </filter>
  </entry>
  <blank length="00:00:13.267"/>
  <entry producer="producer183" in="00:00:00.000" out="00:00:02.700">
   <property name="kdenlive:id">130</property>
   <property name="kdenlive:activeeffect">3</property>
   <filter id="filter101">
    <property name="rotate_center">1</property>
    <property name="mlt_service">qtblend</property>
    <property name="kdenlive_id">qtblend</property>
    <property name="rect">00:00:00.000=-495 0 1920 1080 1.000000</property>
    <property name="rotation">00:00:00.000=0</property>
    <property name="compositing">0</property>
    <property name="distort">0</property>
    <property name="kdenlive:collapsed">0</property>
   </filter>
   <filter id="filter102">
    <property name="mirror">horizontal</property>
    <property name="mlt_service">mirror</property>
    <property name="kdenlive_id">mirror</property>
    <property name="reverse">1</property>
    <property name="kdenlive:collapsed">0</property>
   </filter>
   <filter id="filter103">
    <property name="mlt_service">avfilter.unsharp</property>
    <property name="kdenlive_id">avfilter.unsharp</property>
    <property name="av.lx">5</property>
    <property name="av.ly">5</property>
    <property name="av.la">2</property>
    <property name="av.cx">5</property>
    <property name="av.cy">5</property>
    <property name="av.ca">1</property>
    <property name="kdenlive:collapsed">0</property>
   </filter>
   <filter id="filter104">
    <property name="lift_r">-0.125002</property>
    <property name="lift_g">-0.125002</property>
    <property name="lift_b">-0.125002</property>
    <property name="gamma_r">1.36251</property>
    <property name="gamma_g">1.36251</property>
    <property name="gamma_b">1.36251</property>
    <property name="gain_r">1.39999</property>
    <property name="gain_g">1.39999</property>
    <property name="gain_b">1.39999</property>
    <property name="mlt_service">lift_gamma_gain</property>
    <property name="kdenlive_id">lift_gamma_gain</property>
    <property name="kdenlive:collapsed">0</property>
   </filter>
  </entry>
  <blank length="00:00:13.667"/>
  <entry producer="producer184" in="00:00:05.733" out="00:00:09.800">
   <property name="kdenlive:id">60</property>
  </entry>
  <blank length="00:00:01.967"/>
  <entry producer="producer185" in="00:00:10.367" out="00:00:12.067">
   <property name="kdenlive:id">66</property>
  </entry>
  <blank length="00:00:01.367"/>
  <entry producer="producer186" in="00:03:00.633" out="00:03:01.433">
   <property name="kdenlive:id">63</property>
  </entry>
  <blank length="00:00:01.967"/>
  <entry producer="producer187" in="00:00:26.967" out="00:00:28.767">
   <property name="kdenlive:id">62</property>
  </entry>
  <entry producer="producer188" in="00:00:31.433" out="00:00:33.267">
   <property name="kdenlive:id">62</property>
  </entry>
  <blank length="00:00:03.133"/>
  <entry producer="producer189" in="00:00:17.400" out="00:00:17.933">
   <property name="kdenlive:id">64</property>
   <property name="kdenlive:activeeffect">-1</property>
  </entry>
  <entry producer="producer58" in="00:00:00.000" out="00:00:00.533">
   <property name="kdenlive:id">65</property>
  </entry>
  <blank length="00:03:55.100"/>
  <entry producer="producer190" in="00:02:00.833" out="00:02:14.967">
   <property name="kdenlive:id">25</property>
   <property name="kdenlive:activeeffect">1</property>
   <filter id="filter105">
    <property name="version">0.6</property>
    <property name="mlt_service">frei0r.select0r</property>
    <property name="kdenlive_id">frei0r.select0r</property>
    <property name="Color to select">0x00ff00ff</property>
    <property name="Invert selection">1</property>
    <property name="Selection subspace">1</property>
    <property name="Subspace shape">0</property>
    <property name="Edge mode">0.35</property>
    <property name="Delta R / A / Hue">00:02:00.833=0.051</property>
    <property name="Delta G / B / Chroma">00:02:00.833=0.758</property>
    <property name="Delta B / I / I">00:02:00.833=0.49</property>
    <property name="Slope">00:02:00.833=0.01</property>
    <property name="Operation">0.5</property>
    <property name="kdenlive:collapsed">0</property>
    <property name="disable">0</property>
   </filter>
   <filter id="filter106">
    <property name="rotate_center">1</property>
    <property name="mlt_service">qtblend</property>
    <property name="kdenlive_id">qtblend</property>
    <property name="rect">00:02:00.833=-642 0 1920 1080 0.950000</property>
    <property name="rotation">00:02:00.833=0</property>
    <property name="compositing">0</property>
    <property name="distort">0</property>
    <property name="kdenlive:collapsed">0</property>
   </filter>
   <filter id="filter107">
    <property name="mlt_service">avfilter.colorbalance</property>
    <property name="kdenlive_id">avfilter.colorbalance</property>
    <property name="av.rs">-0.077364</property>
    <property name="av.gs">-0.206304</property>
    <property name="av.bs">0.094556</property>
    <property name="av.rm">0.040115</property>
    <property name="av.gm">-0.060172</property>
    <property name="av.bm">0.063037</property>
    <property name="av.rh">0.063037</property>
    <property name="av.gh">-0.031519</property>
    <property name="av.bh">0.074499</property>
    <property name="av.pl">0</property>
    <property name="kdenlive:collapsed">0</property>
    <property name="disable">0</property>
   </filter>
  </entry>
  <entry producer="producer191" in="00:01:52.233" out="00:02:16.400">
   <property name="kdenlive:id">24</property>
   <filter id="filter108">
    <property name="version">0.1</property>
    <property name="mlt_service">frei0r.alphaspot</property>
    <property name="kdenlive_id">frei0r.alphaspot</property>
    <property name="Shape">0</property>
    <property name="Position X">00:01:52.233=0.66</property>
    <property name="Position Y">00:01:52.233=0.5</property>
    <property name="Size X">00:01:52.233=0.29</property>
    <property name="Size Y">00:01:52.233=1</property>
    <property name="Tilt">00:01:52.233=0.5</property>
    <property name="Transition width">00:01:52.233=0.174</property>
    <property name="Min">00:01:52.233=0</property>
    <property name="Max">00:01:52.233=1</property>
    <property name="Operation">0</property>
    <property name="kdenlive:collapsed">0</property>
   </filter>
   <filter id="filter109">
    <property name="rotate_center">1</property>
    <property name="mlt_service">qtblend</property>
    <property name="kdenlive_id">qtblend</property>
    <property name="rect">00:01:52.233=598 1 1920 1080 1.000000</property>
    <property name="rotation">00:01:52.233=0</property>
    <property name="compositing">0</property>
    <property name="distort">0</property>
    <property name="kdenlive:collapsed">0</property>
   </filter>
  </entry>
  <blank length="00:00:36.533"/>
  <entry producer="producer192" in="00:00:00.000" out="00:00:32.533">
   <property name="kdenlive:id">27</property>
   <property name="kdenlive:activeeffect">1</property>
   <filter id="filter110">
    <property name="version">0.6</property>
    <property name="mlt_service">frei0r.select0r</property>
    <property name="kdenlive_id">frei0r.select0r</property>
    <property name="Color to select">0x00ff00ff</property>
    <property name="Invert selection">1</property>
    <property name="Selection subspace">1</property>
    <property name="Subspace shape">0</property>
    <property name="Edge mode">0.35</property>
    <property name="Delta R / A / Hue">00:00:00.000=0.179</property>
    <property name="Delta G / B / Chroma">00:00:00.000=1</property>
    <property name="Delta B / I / I">00:00:00.000=0.325</property>
    <property name="Slope">00:00:00.000=0.005</property>
    <property name="Operation">0.5</property>
    <property name="kdenlive:collapsed">0</property>
   </filter>
   <filter id="filter111">
    <property name="mlt_service">avfilter.colorlevels</property>
    <property name="kdenlive_id">avfilter.colorlevels</property>
    <property name="av.rimin">0.159059</property>
    <property name="av.rimax">1</property>
    <property name="av.romin">0.125864</property>
    <property name="av.romax">1</property>
    <property name="av.gimin">0.073306</property>
    <property name="av.gimax">0.952974</property>
    <property name="av.gomin">0</property>
    <property name="av.gomax">0.838174</property>
    <property name="av.bimin">0.145228</property>
    <property name="av.bimax">1</property>
    <property name="av.bomin">0.186722</property>
    <property name="av.bomax">0.769018</property>
    <property name="kdenlive:collapsed">0</property>
   </filter>
  </entry>
  <blank length="00:00:38.200"/>
  <entry producer="producer190" in="00:00:36.033" out="00:00:58.033">
   <property name="kdenlive:id">25</property>
   <filter id="filter112">
    <property name="rotate_center">1</property>
    <property name="mlt_service">qtblend</property>
    <property name="kdenlive_id">qtblend</property>
    <property name="rect">00:00:36.033=-176 650 768 432 1.000000</property>
    <property name="rotation">00:00:36.033=0</property>
    <property name="compositing">0</property>
    <property name="distort">0</property>
    <property name="kdenlive:collapsed">0</property>
   </filter>
  </entry>
  <entry producer="producer190" in="00:00:36.033" out="00:00:47.067">
   <property name="kdenlive:id">25</property>
   <filter id="filter113">
    <property name="rotate_center">1</property>
    <property name="mlt_service">qtblend</property>
    <property name="kdenlive_id">qtblend</property>
    <property name="rect">1081=-176 650 768 432 1.000000</property>
    <property name="rotation">1081=0</property>
    <property name="compositing">0</property>
    <property name="distort">0</property>
    <property name="kdenlive:collapsed">0</property>
   </filter>
  </entry>
  <blank length="00:00:40.200"/>
  <entry producer="producer193" in="00:00:14.667" out="00:01:16.200">
   <property name="kdenlive:id">18</property>
  </entry>
 </playlist>
 <playlist id="playlist11"/>
 <tractor id="tractor5" in="00:00:00.000" out="00:13:08.433">
  <property name="kdenlive:trackheight">69</property>
  <property name="kdenlive:timeline_active">1</property>
  <property name="kdenlive:collapsed">28</property>
  <property name="kdenlive:thumbs_format"/>
  <property name="kdenlive:audio_rec"/>
  <track hide="audio" producer="playlist10"/>
  <track producer="playlist11"/>
 </tractor>
 <producer id="producer194" in="00:00:00.000" out="00:00:06.800">
  <property name="length">205</property>
  <property name="eof">pause</property>
  <property name="resource">/home/ryankelln/.cache/kdenlive/proxy/a96b92c1bace94bc3ed2462f08da2e88.mkv</property>
  <property name="audio_index">1</property>
  <property name="video_index">0</property>
  <property name="mute_on_pause">0</property>
  <property name="mlt_service">avformat-novalidate</property>
  <property name="seekable">1</property>
  <property name="aspect_ratio">1</property>
  <property name="kdenlive:clipname">Bird Flying - Free Stock Creative Commons Video-FrRXDYUatf4.mp4</property>
  <property name="kdenlive:folderid">55</property>
  <property name="kdenlive:id">48</property>
  <property name="kdenlive:file_size">1563626</property>
  <property name="kdenlive:file_hash">a96b92c1bace94bc3ed2462f08da2e88</property>
  <property name="kdenlive:proxy">/home/ryankelln/.cache/kdenlive/proxy/a96b92c1bace94bc3ed2462f08da2e88.mkv</property>
  <property name="kdenlive:originalurl">content/footage/Bird Flying - Free Stock Creative Commons Video-FrRXDYUatf4.mp4</property>
  <property name="kdenlive:original.mlt_type">producer</property>
  <property name="kdenlive:original.in">0</property>
  <property name="kdenlive:original.out">204</property>
  <property name="kdenlive:original.length">205</property>
  <property name="kdenlive:original.eof">pause</property>
  <property name="kdenlive:original.resource">content/footage/Bird Flying - Free Stock Creative Commons Video-FrRXDYUatf4.mp4</property>
  <property name="kdenlive:original.meta.media.nb_streams">2</property>
  <property name="kdenlive:original.meta.media.0.stream.type">video</property>
  <property name="kdenlive:original.meta.media.0.stream.frame_rate">60.233</property>
  <property name="kdenlive:original.meta.media.0.stream.sample_aspect_ratio">1</property>
  <property name="kdenlive:original.meta.media.0.codec.width">1920</property>
  <property name="kdenlive:original.meta.media.0.codec.height">1080</property>
  <property name="kdenlive:original.meta.media.0.codec.rotate">0</property>
  <property name="kdenlive:original.meta.media.0.codec.frame_rate">59.9401</property>
  <property name="kdenlive:original.meta.media.0.codec.pix_fmt">yuv420p</property>
  <property name="kdenlive:original.meta.media.0.codec.sample_aspect_ratio">1</property>
  <property name="kdenlive:original.meta.media.0.codec.colorspace">709</property>
  <property name="kdenlive:original.meta.media.0.codec.color_trc">1</property>
  <property name="kdenlive:original.meta.media.0.codec.name">h264</property>
  <property name="kdenlive:original.meta.media.0.codec.long_name">H.264 / AVC / MPEG-4 AVC / MPEG-4 part 10</property>
  <property name="kdenlive:original.meta.media.0.codec.bit_rate">1702801</property>
  <property name="kdenlive:original.meta.attr.0.stream.handler_name.markup">ISO Media file produced by Google Inc. Created on: 05/11/2021.</property>
  <property name="kdenlive:original.meta.media.1.stream.type">audio</property>
  <property name="kdenlive:original.meta.media.1.codec.sample_fmt">fltp</property>
  <property name="kdenlive:original.meta.media.1.codec.sample_rate">44100</property>
  <property name="kdenlive:original.meta.media.1.codec.channels">2</property>
  <property name="kdenlive:original.meta.media.1.codec.name">aac</property>
  <property name="kdenlive:original.meta.media.1.codec.long_name">AAC (Advanced Audio Coding)</property>
  <property name="kdenlive:original.meta.media.1.codec.bit_rate">127999</property>
  <property name="kdenlive:original.meta.attr.1.stream.handler_name.markup">ISO Media file produced by Google Inc. Created on: 11/30/2018.</property>
  <property name="kdenlive:original.meta.attr.major_brand.markup">isom</property>
  <property name="kdenlive:original.meta.attr.minor_version.markup">512</property>
  <property name="kdenlive:original.meta.attr.compatible_brands.markup">isomiso2avc1mp41</property>
  <property name="kdenlive:original.meta.attr.encoder.markup">Lavf58.45.100</property>
  <property name="kdenlive:original.seekable">1</property>
  <property name="kdenlive:original.width">1920</property>
  <property name="kdenlive:original.height">1080</property>
  <property name="kdenlive:original.meta.media.sample_aspect_num">1</property>
  <property name="kdenlive:original.meta.media.sample_aspect_den">1</property>
  <property name="kdenlive:original.aspect_ratio">1</property>
  <property name="kdenlive:original.audio_index">1</property>
  <property name="kdenlive:original.video_index">0</property>
  <property name="kdenlive:original.mute_on_pause">0</property>
  <property name="kdenlive:original.mlt_service">avformat-novalidate</property>
  <property name="kdenlive:original.kdenlive:folderid">55</property>
  <property name="kdenlive:original.meta.media.frame_rate_num">1360000</property>
  <property name="kdenlive:original.meta.media.frame_rate_den">22579</property>
  <property name="kdenlive:original.meta.media.colorspace">709</property>
  <property name="kdenlive:original.meta.media.color_trc">1</property>
  <property name="kdenlive:original.meta.media.width">1920</property>
  <property name="kdenlive:original.meta.media.height">1080</property>
  <property name="kdenlive:original.meta.media.color_range">mpeg</property>
  <property name="kdenlive:original.kdenlive:id">58</property>
  <property name="kdenlive:original.kdenlive:file_size">1563626</property>
  <property name="kdenlive:original.kdenlive:file_hash">a96b92c1bace94bc3ed2462f08da2e88</property>
  <property name="kdenlive:original.backup">1</property>
  <property name="global_feed">1</property>
  <property name="kdenlive:active_streams">-1</property>
  <property name="xml">was here</property>
  <property name="meta.media.nb_streams">2</property>
  <property name="meta.media.0.stream.type">video</property>
  <property name="meta.media.0.stream.frame_rate">59.9401</property>
  <property name="meta.media.0.stream.sample_aspect_ratio">1</property>
  <property name="meta.media.0.codec.width">640</property>
  <property name="meta.media.0.codec.height">360</property>
  <property name="meta.media.0.codec.rotate">0</property>
  <property name="meta.media.0.codec.frame_rate">1000</property>
  <property name="meta.media.0.codec.pix_fmt">yuvj420p</property>
  <property name="meta.media.0.codec.sample_aspect_ratio">1</property>
  <property name="meta.media.0.codec.colorspace">601</property>
  <property name="meta.media.0.codec.name">mjpeg</property>
  <property name="meta.media.0.codec.long_name">MJPEG (Motion JPEG)</property>
  <property name="meta.media.0.codec.bit_rate">0</property>
  <property name="meta.attr.0.stream.HANDLER_NAME.markup">ISO Media file produced by Google Inc. Created on: 05/11/2021.</property>
  <property name="meta.attr.0.stream.ENCODER.markup">Lavc58.91.100 mjpeg</property>
  <property name="meta.attr.0.stream.DURATION.markup">00:00:06.790000000</property>
  <property name="meta.media.1.stream.type">audio</property>
  <property name="meta.media.1.codec.sample_fmt">s16</property>
  <property name="meta.media.1.codec.sample_rate">44100</property>
  <property name="meta.media.1.codec.channels">2</property>
  <property name="meta.media.1.codec.name">pcm_s16le</property>
  <property name="meta.media.1.codec.long_name">PCM signed 16-bit little-endian</property>
  <property name="meta.media.1.codec.bit_rate">1411200</property>
  <property name="meta.attr.1.stream.HANDLER_NAME.markup">ISO Media file produced by Google Inc. Created on: 11/30/2018.</property>
  <property name="meta.attr.1.stream.ENCODER.markup">Lavc58.91.100 pcm_s16le</property>
  <property name="meta.attr.1.stream.DURATION.markup">00:00:06.826000000</property>
  <property name="meta.attr.COMPATIBLE_BRANDS.markup">isomiso2avc1mp41</property>
  <property name="meta.attr.MAJOR_BRAND.markup">isom</property>
  <property name="meta.attr.MINOR_VERSION.markup">512</property>
  <property name="meta.attr.ENCODER.markup">Lavf58.45.100</property>
  <property name="meta.media.sample_aspect_num">1</property>
  <property name="meta.media.sample_aspect_den">1</property>
  <property name="meta.media.frame_rate_num">19001</property>
  <property name="meta.media.frame_rate_den">317</property>
  <property name="meta.media.colorspace">601</property>
  <property name="meta.media.color_trc">2</property>
  <property name="meta.media.width">640</property>
  <property name="meta.media.height">360</property>
  <property name="meta.media.color_range">full</property>
  <property name="meta.media.top_field_first">0</property>
  <property name="meta.media.progressive">1</property>
  <property name="set.test_audio">1</property>
  <property name="set.test_image">0</property>
 </producer>
 <producer id="producer195" in="00:00:00.000" out="00:00:36.867">
  <property name="length">1109</property>
  <property name="eof">pause</property>
  <property name="resource">/home/ryankelln/.cache/kdenlive/proxy/b2be9f3e4ba5a4ff8901ca563d188491.mkv</property>
  <property name="audio_index">-1</property>
  <property name="video_index">0</property>
  <property name="mute_on_pause">0</property>
  <property name="mlt_service">avformat-novalidate</property>
  <property name="seekable">1</property>
  <property name="aspect_ratio">1</property>
  <property name="kdenlive:clipname">SeagullsCloseMaster_h264.mp4</property>
  <property name="kdenlive:folderid">55</property>
  <property name="kdenlive:id">50</property>
  <property name="kdenlive:file_size">49278582</property>
  <property name="kdenlive:file_hash">b2be9f3e4ba5a4ff8901ca563d188491</property>
  <property name="kdenlive:proxy">/home/ryankelln/.cache/kdenlive/proxy/b2be9f3e4ba5a4ff8901ca563d188491.mkv</property>
  <property name="kdenlive:originalurl">content/footage/SeagullsCloseMaster_h264.mp4</property>
  <property name="kdenlive:original.mlt_type">producer</property>
  <property name="kdenlive:original.in">0</property>
  <property name="kdenlive:original.out">1108</property>
  <property name="kdenlive:original.length">1109</property>
  <property name="kdenlive:original.eof">pause</property>
  <property name="kdenlive:original.resource">content/footage/SeagullsCloseMaster_h264.mp4</property>
  <property name="kdenlive:original.meta.media.nb_streams">1</property>
  <property name="kdenlive:original.meta.media.0.stream.type">video</property>
  <property name="kdenlive:original.meta.media.0.stream.frame_rate">23.976</property>
  <property name="kdenlive:original.meta.media.0.stream.sample_aspect_ratio">0</property>
  <property name="kdenlive:original.meta.media.0.codec.width">1920</property>
  <property name="kdenlive:original.meta.media.0.codec.height">1080</property>
  <property name="kdenlive:original.meta.media.0.codec.rotate">0</property>
  <property name="kdenlive:original.meta.media.0.codec.frame_rate">23.976</property>
  <property name="kdenlive:original.meta.media.0.codec.pix_fmt">yuv420p</property>
  <property name="kdenlive:original.meta.media.0.codec.sample_aspect_ratio">1</property>
  <property name="kdenlive:original.meta.media.0.codec.colorspace">709</property>
  <property name="kdenlive:original.meta.media.0.codec.name">h264</property>
  <property name="kdenlive:original.meta.media.0.codec.long_name">H.264 / AVC / MPEG-4 AVC / MPEG-4 part 10</property>
  <property name="kdenlive:original.meta.media.0.codec.bit_rate">10664727</property>
  <property name="kdenlive:original.meta.attr.0.stream.creation_time.markup">2013-11-30T22:42:06.000000Z</property>
  <property name="kdenlive:original.meta.attr.0.stream.language.markup">eng</property>
  <property name="kdenlive:original.meta.attr.0.stream.handler_name.markup">Mainconcept MP4 Video Media Handler</property>
  <property name="kdenlive:original.meta.attr.0.stream.encoder.markup">AVC Coding</property>
  <property name="kdenlive:original.meta.attr.major_brand.markup">mp42</property>
  <property name="kdenlive:original.meta.attr.minor_version.markup">0</property>
  <property name="kdenlive:original.meta.attr.compatible_brands.markup">mp42mp41</property>
  <property name="kdenlive:original.meta.attr.creation_time.markup">2013-11-30T22:42:06.000000Z</property>
  <property name="kdenlive:original.seekable">1</property>
  <property name="kdenlive:original.width">1920</property>
  <property name="kdenlive:original.height">1080</property>
  <property name="kdenlive:original.meta.media.sample_aspect_num">1</property>
  <property name="kdenlive:original.meta.media.sample_aspect_den">1</property>
  <property name="kdenlive:original.aspect_ratio">1</property>
  <property name="kdenlive:original.audio_index">-1</property>
  <property name="kdenlive:original.video_index">0</property>
  <property name="kdenlive:original.mute_on_pause">0</property>
  <property name="kdenlive:original.mlt_service">avformat-novalidate</property>
  <property name="kdenlive:original.kdenlive:folderid">55</property>
  <property name="kdenlive:original.meta.media.frame_rate_num">2997</property>
  <property name="kdenlive:original.meta.media.frame_rate_den">125</property>
  <property name="kdenlive:original.meta.media.colorspace">709</property>
  <property name="kdenlive:original.meta.media.color_trc">2</property>
  <property name="kdenlive:original.meta.media.width">1920</property>
  <property name="kdenlive:original.meta.media.height">1080</property>
  <property name="kdenlive:original.meta.media.color_range">mpeg</property>
  <property name="kdenlive:original.kdenlive:id">60</property>
  <property name="kdenlive:original.kdenlive:file_size">49278582</property>
  <property name="kdenlive:original.kdenlive:file_hash">b2be9f3e4ba5a4ff8901ca563d188491</property>
  <property name="kdenlive:original.backup">1</property>
  <property name="global_feed">1</property>
  <property name="xml">was here</property>
  <property name="meta.media.nb_streams">1</property>
  <property name="meta.media.0.stream.type">video</property>
  <property name="meta.media.0.stream.frame_rate">23.976</property>
  <property name="meta.media.0.stream.sample_aspect_ratio">1</property>
  <property name="meta.media.0.codec.width">640</property>
  <property name="meta.media.0.codec.height">360</property>
  <property name="meta.media.0.codec.rotate">0</property>
  <property name="meta.media.0.codec.frame_rate">1000</property>
  <property name="meta.media.0.codec.pix_fmt">yuvj420p</property>
  <property name="meta.media.0.codec.sample_aspect_ratio">1</property>
  <property name="meta.media.0.codec.colorspace">601</property>
  <property name="meta.media.0.codec.name">mjpeg</property>
  <property name="meta.media.0.codec.long_name">MJPEG (Motion JPEG)</property>
  <property name="meta.media.0.codec.bit_rate">0</property>
  <property name="meta.attr.0.stream.language.markup">eng</property>
  <property name="meta.attr.0.stream.HANDLER_NAME.markup">Mainconcept MP4 Video Media Handler</property>
  <property name="meta.attr.0.stream.ENCODER.markup">Lavc58.91.100 mjpeg</property>
  <property name="meta.attr.0.stream.DURATION.markup">00:00:36.912000000</property>
  <property name="meta.attr.COMPATIBLE_BRANDS.markup">mp42mp41</property>
  <property name="meta.attr.MAJOR_BRAND.markup">mp42</property>
  <property name="meta.attr.MINOR_VERSION.markup">0</property>
  <property name="meta.attr.ENCODER.markup">Lavf58.45.100</property>
  <property name="meta.media.sample_aspect_num">1</property>
  <property name="meta.media.sample_aspect_den">1</property>
  <property name="meta.media.frame_rate_num">2997</property>
  <property name="meta.media.frame_rate_den">125</property>
  <property name="meta.media.colorspace">601</property>
  <property name="meta.media.color_trc">2</property>
  <property name="meta.media.width">640</property>
  <property name="meta.media.height">360</property>
  <property name="meta.media.color_range">full</property>
  <property name="meta.media.top_field_first">0</property>
  <property name="meta.media.progressive">1</property>
  <property name="set.test_audio">1</property>
  <property name="set.test_image">0</property>
 </producer>
 <producer id="producer196" in="00:00:00.000" out="00:00:20.633">
  <property name="length">621</property>
  <property name="eof">pause</property>
  <property name="resource">1.784722:/home/ryankelln/.cache/kdenlive/proxy/b2be9f3e4ba5a4ff8901ca563d188491.mkv</property>
  <property name="aspect_ratio">1</property>
  <property name="meta.media.nb_streams">1</property>
  <property name="meta.media.0.stream.type">video</property>
  <property name="meta.media.0.stream.frame_rate">23.976</property>
  <property name="meta.media.0.stream.sample_aspect_ratio">1</property>
  <property name="meta.media.0.codec.width">640</property>
  <property name="meta.media.0.codec.height">360</property>
  <property name="meta.media.0.codec.rotate">0</property>
  <property name="meta.media.0.codec.frame_rate">1000</property>
  <property name="meta.media.0.codec.pix_fmt">yuvj420p</property>
  <property name="meta.media.0.codec.sample_aspect_ratio">1</property>
  <property name="meta.media.0.codec.colorspace">601</property>
  <property name="meta.media.0.codec.name">mjpeg</property>
  <property name="meta.media.0.codec.long_name">MJPEG (Motion JPEG)</property>
  <property name="meta.media.0.codec.bit_rate">0</property>
  <property name="meta.attr.0.stream.language.markup">eng</property>
  <property name="meta.attr.0.stream.HANDLER_NAME.markup">Mainconcept MP4 Video Media Handler</property>
  <property name="meta.attr.0.stream.ENCODER.markup">Lavc58.91.100 mjpeg</property>
  <property name="meta.attr.0.stream.DURATION.markup">00:00:36.912000000</property>
  <property name="meta.attr.COMPATIBLE_BRANDS.markup">mp42mp41</property>
  <property name="meta.attr.MAJOR_BRAND.markup">mp42</property>
  <property name="meta.attr.MINOR_VERSION.markup">0</property>
  <property name="meta.attr.ENCODER.markup">Lavf58.45.100</property>
  <property name="seekable">1</property>
  <property name="meta.media.sample_aspect_num">1</property>
  <property name="meta.media.sample_aspect_den">1</property>
  <property name="audio_index">-1</property>
  <property name="video_index">0</property>
  <property name="mute_on_pause">1</property>
  <property name="warp_speed">1.78472</property>
  <property name="warp_resource">/home/ryankelln/.cache/kdenlive/proxy/b2be9f3e4ba5a4ff8901ca563d188491.mkv</property>
  <property name="mlt_service">timewarp</property>
  <property name="kdenlive:proxy">/home/ryankelln/.cache/kdenlive/proxy/b2be9f3e4ba5a4ff8901ca563d188491.mkv</property>
  <property name="kdenlive:originalurl">content/footage/SeagullsCloseMaster_h264.mp4</property>
  <property name="set.test_audio">1</property>
  <property name="set.test_image">0</property>
  <property name="kdenlive:id">50</property>
  <property name="warp_pitch">0</property>
  <property name="meta.media.frame_rate_num">2997</property>
  <property name="meta.media.frame_rate_den">125</property>
  <property name="meta.media.colorspace">601</property>
  <property name="meta.media.color_trc">2</property>
  <property name="meta.media.width">640</property>
  <property name="meta.media.height">360</property>
  <property name="meta.media.color_range">full</property>
  <property name="meta.media.top_field_first">0</property>
  <property name="meta.media.progressive">1</property>
 </producer>
 <producer id="producer197" in="00:00:00.000" out="00:01:39.800">
  <property name="length">2995</property>
  <property name="eof">pause</property>
  <property name="resource">/home/ryankelln/.cache/kdenlive/proxy/9145a5a92dfaa149c1e7ffc9b1d1753a.mkv</property>
  <property name="audio_index">-1</property>
  <property name="video_index">0</property>
  <property name="mute_on_pause">0</property>
  <property name="mlt_service">avformat-novalidate</property>
  <property name="seekable">1</property>
  <property name="aspect_ratio">1</property>
  <property name="kdenlive:clipname">boids_3.mp4</property>
  <property name="kdenlive:folderid">-1</property>
  <property name="kdenlive:id">109</property>
  <property name="kdenlive:file_size">10952992</property>
  <property name="kdenlive:file_hash">9145a5a92dfaa149c1e7ffc9b1d1753a</property>
  <property name="kdenlive:proxy">/home/ryankelln/.cache/kdenlive/proxy/9145a5a92dfaa149c1e7ffc9b1d1753a.mkv</property>
  <property name="kdenlive:originalurl">/home/ryankelln/Documents/Projects/Active/Sound_Escapes/Jackson/boid_recordings/boids_3.mp4</property>
  <property name="kdenlive:original.mlt_type">producer</property>
  <property name="kdenlive:original.in">0</property>
  <property name="kdenlive:original.out">2994</property>
  <property name="kdenlive:original.length">2995</property>
  <property name="kdenlive:original.eof">pause</property>
  <property name="kdenlive:original.resource">/home/ryankelln/Documents/Projects/Active/Sound_Escapes/Jackson/boid_recordings/boids_3.mp4</property>
  <property name="kdenlive:original.meta.media.nb_streams">1</property>
  <property name="kdenlive:original.meta.media.0.stream.type">video</property>
  <property name="kdenlive:original.meta.media.0.stream.frame_rate">30</property>
  <property name="kdenlive:original.meta.media.0.stream.sample_aspect_ratio">0</property>
  <property name="kdenlive:original.meta.media.0.codec.width">1920</property>
  <property name="kdenlive:original.meta.media.0.codec.height">1080</property>
  <property name="kdenlive:original.meta.media.0.codec.rotate">0</property>
  <property name="kdenlive:original.meta.media.0.codec.frame_rate">30</property>
  <property name="kdenlive:original.meta.media.0.codec.pix_fmt">yuv420p</property>
  <property name="kdenlive:original.meta.media.0.codec.sample_aspect_ratio">1</property>
  <property name="kdenlive:original.meta.media.0.codec.colorspace">709</property>
  <property name="kdenlive:original.meta.media.0.codec.color_trc">1</property>
  <property name="kdenlive:original.meta.media.0.codec.name">h264</property>
  <property name="kdenlive:original.meta.media.0.codec.long_name">H.264 / AVC / MPEG-4 AVC / MPEG-4 part 10</property>
  <property name="kdenlive:original.meta.media.0.codec.bit_rate">875327</property>
  <property name="kdenlive:original.meta.attr.0.stream.handler_name.markup">VideoHandler</property>
  <property name="kdenlive:original.meta.attr.major_brand.markup">isom</property>
  <property name="kdenlive:original.meta.attr.minor_version.markup">512</property>
  <property name="kdenlive:original.meta.attr.compatible_brands.markup">isomiso2avc1mp41</property>
  <property name="kdenlive:original.meta.attr.encoder.markup">Lavf56.40.101</property>
  <property name="kdenlive:original.seekable">1</property>
  <property name="kdenlive:original.width">1920</property>
  <property name="kdenlive:original.height">1080</property>
  <property name="kdenlive:original.meta.media.sample_aspect_num">1</property>
  <property name="kdenlive:original.meta.media.sample_aspect_den">1</property>
  <property name="kdenlive:original.aspect_ratio">1</property>
  <property name="kdenlive:original.audio_index">-1</property>
  <property name="kdenlive:original.video_index">0</property>
  <property name="kdenlive:original.mute_on_pause">0</property>
  <property name="kdenlive:original.mlt_service">avformat-novalidate</property>
  <property name="kdenlive:original.kdenlive:folderid">-1</property>
  <property name="kdenlive:original.meta.media.frame_rate_num">30</property>
  <property name="kdenlive:original.meta.media.frame_rate_den">1</property>
  <property name="kdenlive:original.meta.media.colorspace">709</property>
  <property name="kdenlive:original.meta.media.color_trc">1</property>
  <property name="kdenlive:original.meta.media.width">1920</property>
  <property name="kdenlive:original.meta.media.height">1080</property>
  <property name="kdenlive:original.meta.media.color_range">mpeg</property>
  <property name="kdenlive:original.kdenlive:id">109</property>
  <property name="kdenlive:original.kdenlive:file_size">10952992</property>
  <property name="kdenlive:original.kdenlive:file_hash">9145a5a92dfaa149c1e7ffc9b1d1753a</property>
  <property name="kdenlive:original.backup">1</property>
  <property name="global_feed">1</property>
  <property name="xml">was here</property>
  <property name="meta.media.nb_streams">1</property>
  <property name="meta.media.0.stream.type">video</property>
  <property name="meta.media.0.stream.frame_rate">30</property>
  <property name="meta.media.0.stream.sample_aspect_ratio">1</property>
  <property name="meta.media.0.codec.width">640</property>
  <property name="meta.media.0.codec.height">360</property>
  <property name="meta.media.0.codec.rotate">0</property>
  <property name="meta.media.0.codec.frame_rate">1000</property>
  <property name="meta.media.0.codec.pix_fmt">yuvj420p</property>
  <property name="meta.media.0.codec.sample_aspect_ratio">1</property>
  <property name="meta.media.0.codec.colorspace">601</property>
  <property name="meta.media.0.codec.name">mjpeg</property>
  <property name="meta.media.0.codec.long_name">MJPEG (Motion JPEG)</property>
  <property name="meta.media.0.codec.bit_rate">0</property>
  <property name="meta.attr.0.stream.HANDLER_NAME.markup">VideoHandler</property>
  <property name="meta.attr.0.stream.ENCODER.markup">Lavc58.91.100 mjpeg</property>
  <property name="meta.attr.0.stream.DURATION.markup">00:01:39.833000000</property>
  <property name="meta.attr.COMPATIBLE_BRANDS.markup">isomiso2avc1mp41</property>
  <property name="meta.attr.MAJOR_BRAND.markup">isom</property>
  <property name="meta.attr.MINOR_VERSION.markup">512</property>
  <property name="meta.attr.ENCODER.markup">Lavf58.45.100</property>
  <property name="meta.media.sample_aspect_num">1</property>
  <property name="meta.media.sample_aspect_den">1</property>
  <property name="meta.media.frame_rate_num">30</property>
  <property name="meta.media.frame_rate_den">1</property>
  <property name="meta.media.colorspace">601</property>
  <property name="meta.media.color_trc">2</property>
  <property name="meta.media.width">640</property>
  <property name="meta.media.height">360</property>
  <property name="meta.media.color_range">full</property>
  <property name="meta.media.top_field_first">0</property>
  <property name="meta.media.progressive">1</property>
  <property name="set.test_audio">1</property>
  <property name="set.test_image">0</property>
 </producer>
 <producer id="producer198" in="00:00:00.000" out="00:00:03.000">
  <property name="length">91</property>
  <property name="eof">pause</property>
  <property name="resource">content/ai/faith_is_the_bird.1008.mp4</property>
  <property name="audio_index">-1</property>
  <property name="video_index">0</property>
  <property name="mute_on_pause">0</property>
  <property name="mlt_service">avformat-novalidate</property>
  <property name="seekable">1</property>
  <property name="aspect_ratio">1</property>
  <property name="kdenlive:clipname"/>
  <property name="kdenlive:folderid">71</property>
  <property name="kdenlive:id">68</property>
  <property name="kdenlive:file_size">1344427</property>
  <property name="kdenlive:file_hash">a3ea7b0fec21dd5c4479ac0e7445c3ef</property>
  <property name="global_feed">1</property>
  <property name="xml">was here</property>
  <property name="meta.media.nb_streams">1</property>
  <property name="meta.media.0.stream.type">video</property>
  <property name="meta.media.0.stream.frame_rate">30</property>
  <property name="meta.media.0.stream.sample_aspect_ratio">0</property>
  <property name="meta.media.0.codec.width">512</property>
  <property name="meta.media.0.codec.height">512</property>
  <property name="meta.media.0.codec.rotate">0</property>
  <property name="meta.media.0.codec.frame_rate">30</property>
  <property name="meta.media.0.codec.pix_fmt">yuv444p</property>
  <property name="meta.media.0.codec.sample_aspect_ratio">0</property>
  <property name="meta.media.0.codec.colorspace">601</property>
  <property name="meta.media.0.codec.name">h264</property>
  <property name="meta.media.0.codec.long_name">H.264 / AVC / MPEG-4 AVC / MPEG-4 part 10</property>
  <property name="meta.media.0.codec.bit_rate">3540759</property>
  <property name="meta.attr.0.stream.handler_name.markup">VideoHandler</property>
  <property name="meta.attr.major_brand.markup">isom</property>
  <property name="meta.attr.minor_version.markup">512</property>
  <property name="meta.attr.compatible_brands.markup">isomiso2avc1mp41</property>
  <property name="meta.attr.encoder.markup">Lavf58.76.100</property>
  <property name="meta.media.sample_aspect_num">1</property>
  <property name="meta.media.sample_aspect_den">1</property>
  <property name="meta.media.frame_rate_num">30</property>
  <property name="meta.media.frame_rate_den">1</property>
  <property name="meta.media.colorspace">601</property>
  <property name="meta.media.color_trc">2</property>
  <property name="meta.media.width">512</property>
  <property name="meta.media.height">512</property>
  <property name="meta.media.color_range">mpeg</property>
  <property name="meta.media.top_field_first">0</property>
  <property name="meta.media.progressive">1</property>
  <property name="set.test_audio">1</property>
  <property name="set.test_image">0</property>
 </producer>
 <producer id="producer199" in="00:00:00.000" out="00:00:03.000">
  <property name="length">91</property>
  <property name="eof">pause</property>
  <property name="resource">content/ai/learn_from_one_bird.1017.mp4</property>
  <property name="audio_index">-1</property>
  <property name="video_index">0</property>
  <property name="mute_on_pause">0</property>
  <property name="mlt_service">avformat-novalidate</property>
  <property name="seekable">1</property>
  <property name="aspect_ratio">1</property>
  <property name="kdenlive:clipname"/>
  <property name="kdenlive:folderid">71</property>
  <property name="kdenlive:id">69</property>
  <property name="kdenlive:file_size">919397</property>
  <property name="kdenlive:file_hash">069d35e55eefe8bc95769399122e68d5</property>
  <property name="global_feed">1</property>
  <property name="xml">was here</property>
  <property name="meta.media.nb_streams">1</property>
  <property name="meta.media.0.stream.type">video</property>
  <property name="meta.media.0.stream.frame_rate">30</property>
  <property name="meta.media.0.stream.sample_aspect_ratio">0</property>
  <property name="meta.media.0.codec.width">512</property>
  <property name="meta.media.0.codec.height">512</property>
  <property name="meta.media.0.codec.rotate">0</property>
  <property name="meta.media.0.codec.frame_rate">30</property>
  <property name="meta.media.0.codec.pix_fmt">yuv444p</property>
  <property name="meta.media.0.codec.sample_aspect_ratio">0</property>
  <property name="meta.media.0.codec.colorspace">601</property>
  <property name="meta.media.0.codec.name">h264</property>
  <property name="meta.media.0.codec.long_name">H.264 / AVC / MPEG-4 AVC / MPEG-4 part 10</property>
  <property name="meta.media.0.codec.bit_rate">2419843</property>
  <property name="meta.attr.0.stream.handler_name.markup">VideoHandler</property>
  <property name="meta.attr.major_brand.markup">isom</property>
  <property name="meta.attr.minor_version.markup">512</property>
  <property name="meta.attr.compatible_brands.markup">isomiso2avc1mp41</property>
  <property name="meta.attr.encoder.markup">Lavf58.76.100</property>
  <property name="meta.media.sample_aspect_num">1</property>
  <property name="meta.media.sample_aspect_den">1</property>
  <property name="meta.media.frame_rate_num">30</property>
  <property name="meta.media.frame_rate_den">1</property>
  <property name="meta.media.colorspace">601</property>
  <property name="meta.media.color_trc">2</property>
  <property name="meta.media.width">512</property>
  <property name="meta.media.height">512</property>
  <property name="meta.media.color_range">mpeg</property>
  <property name="meta.media.top_field_first">0</property>
  <property name="meta.media.progressive">1</property>
  <property name="set.test_audio">1</property>
  <property name="set.test_image">0</property>
 </producer>
 <producer id="producer200" in="00:00:00.000" out="00:00:03.000">
  <property name="length">91</property>
  <property name="eof">pause</property>
  <property name="resource">content/ai/hold_fast_to_dreams.1004.mp4</property>
  <property name="audio_index">-1</property>
  <property name="video_index">0</property>
  <property name="mute_on_pause">0</property>
  <property name="mlt_service">avformat-novalidate</property>
  <property name="seekable">1</property>
  <property name="aspect_ratio">1</property>
  <property name="kdenlive:clipname"/>
  <property name="kdenlive:folderid">71</property>
  <property name="kdenlive:id">73</property>
  <property name="kdenlive:file_size">1187498</property>
  <property name="kdenlive:file_hash">e92d748267a104556c9f82404b62f462</property>
  <property name="global_feed">1</property>
  <property name="xml">was here</property>
  <property name="meta.media.nb_streams">1</property>
  <property name="meta.media.0.stream.type">video</property>
  <property name="meta.media.0.stream.frame_rate">30</property>
  <property name="meta.media.0.stream.sample_aspect_ratio">0</property>
  <property name="meta.media.0.codec.width">512</property>
  <property name="meta.media.0.codec.height">512</property>
  <property name="meta.media.0.codec.rotate">0</property>
  <property name="meta.media.0.codec.frame_rate">30</property>
  <property name="meta.media.0.codec.pix_fmt">yuv444p</property>
  <property name="meta.media.0.codec.sample_aspect_ratio">0</property>
  <property name="meta.media.0.codec.colorspace">601</property>
  <property name="meta.media.0.codec.name">h264</property>
  <property name="meta.media.0.codec.long_name">H.264 / AVC / MPEG-4 AVC / MPEG-4 part 10</property>
  <property name="meta.media.0.codec.bit_rate">3126859</property>
  <property name="meta.attr.0.stream.handler_name.markup">VideoHandler</property>
  <property name="meta.attr.major_brand.markup">isom</property>
  <property name="meta.attr.minor_version.markup">512</property>
  <property name="meta.attr.compatible_brands.markup">isomiso2avc1mp41</property>
  <property name="meta.attr.encoder.markup">Lavf58.76.100</property>
  <property name="meta.media.sample_aspect_num">1</property>
  <property name="meta.media.sample_aspect_den">1</property>
  <property name="meta.media.frame_rate_num">30</property>
  <property name="meta.media.frame_rate_den">1</property>
  <property name="meta.media.colorspace">601</property>
  <property name="meta.media.color_trc">2</property>
  <property name="meta.media.width">512</property>
  <property name="meta.media.height">512</property>
  <property name="meta.media.color_range">mpeg</property>
  <property name="meta.media.top_field_first">0</property>
  <property name="meta.media.progressive">1</property>
  <property name="set.test_audio">1</property>
  <property name="set.test_image">0</property>
 </producer>
 <producer id="producer201" in="00:00:00.000" out="00:00:03.000">
  <property name="length">91</property>
  <property name="eof">pause</property>
  <property name="resource">content/ai/bird_ryan.1012.mp4</property>
  <property name="audio_index">-1</property>
  <property name="video_index">0</property>
  <property name="mute_on_pause">0</property>
  <property name="mlt_service">avformat-novalidate</property>
  <property name="seekable">1</property>
  <property name="aspect_ratio">1</property>
  <property name="kdenlive:clipname"/>
  <property name="kdenlive:folderid">71</property>
  <property name="kdenlive:id">125</property>
  <property name="kdenlive:file_size">1221690</property>
  <property name="kdenlive:file_hash">278eac27a0b8262e7d35be19fb03ffcc</property>
  <property name="global_feed">1</property>
  <property name="xml">was here</property>
  <property name="meta.media.nb_streams">1</property>
  <property name="meta.media.0.stream.type">video</property>
  <property name="meta.media.0.stream.frame_rate">30</property>
  <property name="meta.media.0.stream.sample_aspect_ratio">0</property>
  <property name="meta.media.0.codec.width">512</property>
  <property name="meta.media.0.codec.height">512</property>
  <property name="meta.media.0.codec.rotate">0</property>
  <property name="meta.media.0.codec.frame_rate">30</property>
  <property name="meta.media.0.codec.pix_fmt">yuv444p</property>
  <property name="meta.media.0.codec.sample_aspect_ratio">0</property>
  <property name="meta.media.0.codec.colorspace">601</property>
  <property name="meta.media.0.codec.name">h264</property>
  <property name="meta.media.0.codec.long_name">H.264 / AVC / MPEG-4 AVC / MPEG-4 part 10</property>
  <property name="meta.media.0.codec.bit_rate">3217374</property>
  <property name="meta.attr.0.stream.handler_name.markup">VideoHandler</property>
  <property name="meta.attr.major_brand.markup">isom</property>
  <property name="meta.attr.minor_version.markup">512</property>
  <property name="meta.attr.compatible_brands.markup">isomiso2avc1mp41</property>
  <property name="meta.attr.encoder.markup">Lavf58.76.100</property>
  <property name="meta.media.sample_aspect_num">1</property>
  <property name="meta.media.sample_aspect_den">1</property>
  <property name="meta.media.frame_rate_num">30</property>
  <property name="meta.media.frame_rate_den">1</property>
  <property name="meta.media.colorspace">601</property>
  <property name="meta.media.color_trc">2</property>
  <property name="meta.media.width">512</property>
  <property name="meta.media.height">512</property>
  <property name="meta.media.color_range">mpeg</property>
  <property name="meta.media.top_field_first">0</property>
  <property name="meta.media.progressive">1</property>
  <property name="set.test_audio">1</property>
  <property name="set.test_image">0</property>
 </producer>
 <producer id="producer202" in="00:00:00.000" out="00:00:27.400">
  <property name="length">823</property>
  <property name="eof">pause</property>
  <property name="resource">-1.000000:/home/ryankelln/.cache/kdenlive/proxy/52e013de9c7ccff16cf29529eaabec00.mkv</property>
  <property name="aspect_ratio">1</property>
  <property name="meta.media.nb_streams">1</property>
  <property name="meta.media.0.stream.type">video</property>
  <property name="meta.media.0.stream.frame_rate">25</property>
  <property name="meta.media.0.stream.sample_aspect_ratio">1</property>
  <property name="meta.media.0.codec.width">640</property>
  <property name="meta.media.0.codec.height">360</property>
  <property name="meta.media.0.codec.rotate">0</property>
  <property name="meta.media.0.codec.frame_rate">1000</property>
  <property name="meta.media.0.codec.pix_fmt">yuvj420p</property>
  <property name="meta.media.0.codec.sample_aspect_ratio">1</property>
  <property name="meta.media.0.codec.colorspace">601</property>
  <property name="meta.media.0.codec.name">mjpeg</property>
  <property name="meta.media.0.codec.long_name">MJPEG (Motion JPEG)</property>
  <property name="meta.media.0.codec.bit_rate">0</property>
  <property name="meta.attr.0.stream.HANDLER_NAME.markup">ISO Media file produced by Google Inc.</property>
  <property name="meta.attr.0.stream.ENCODER.markup">Lavc58.91.100 mjpeg</property>
  <property name="meta.attr.0.stream.DURATION.markup">00:00:27.440000000</property>
  <property name="meta.attr.COMPATIBLE_BRANDS.markup">isomiso2avc1mp41</property>
  <property name="meta.attr.MINOR_VERSION.markup">512</property>
  <property name="meta.attr.MAJOR_BRAND.markup">isom</property>
  <property name="meta.attr.ENCODER.markup">Lavf58.45.100</property>
  <property name="seekable">1</property>
  <property name="meta.media.sample_aspect_num">1</property>
  <property name="meta.media.sample_aspect_den">1</property>
  <property name="audio_index">-1</property>
  <property name="video_index">0</property>
  <property name="mute_on_pause">1</property>
  <property name="warp_speed">-1</property>
  <property name="warp_resource">/home/ryankelln/.cache/kdenlive/proxy/52e013de9c7ccff16cf29529eaabec00.mkv</property>
  <property name="mlt_service">timewarp</property>
  <property name="kdenlive:proxy">/home/ryankelln/.cache/kdenlive/proxy/52e013de9c7ccff16cf29529eaabec00.mkv</property>
  <property name="kdenlive:originalurl">content/footage/Meet the Locals - Ruru-vZSda4jaBMY-owl.mp4</property>
  <property name="set.test_audio">1</property>
  <property name="set.test_image">0</property>
  <property name="kdenlive:id">67</property>
  <property name="warp_pitch">0</property>
  <property name="meta.media.frame_rate_num">25</property>
  <property name="meta.media.frame_rate_den">1</property>
  <property name="meta.media.colorspace">601</property>
  <property name="meta.media.color_trc">2</property>
  <property name="meta.media.width">640</property>
  <property name="meta.media.height">360</property>
  <property name="meta.media.color_range">full</property>
  <property name="meta.media.top_field_first">0</property>
  <property name="meta.media.progressive">1</property>
 </producer>
 <producer id="producer203" in="00:00:00.000" out="00:00:10.633">
  <property name="length">320</property>
  <property name="eof">pause</property>
  <property name="resource">/home/ryankelln/.cache/kdenlive/proxy/8883bf7e3eb097f98c10aeb3207a2209.mkv</property>
  <property name="audio_index">-1</property>
  <property name="video_index">0</property>
  <property name="mute_on_pause">0</property>
  <property name="mlt_service">avformat-novalidate</property>
  <property name="seekable">1</property>
  <property name="aspect_ratio">1</property>
  <property name="kdenlive:clipname">Adult Geese and Baby Geese Crossing the Street (Shot w_Nikon Coolpix P1000)-1YhsooDk3sk-poop.mp4</property>
  <property name="kdenlive:folderid">55</property>
  <property name="kdenlive:id">134</property>
  <property name="kdenlive:file_size">21975394</property>
  <property name="kdenlive:file_hash">8883bf7e3eb097f98c10aeb3207a2209</property>
  <property name="kdenlive:proxy">/home/ryankelln/.cache/kdenlive/proxy/8883bf7e3eb097f98c10aeb3207a2209.mkv</property>
  <property name="kdenlive:originalurl">content/footage/Adult Geese and Baby Geese Crossing the Street (Shot w_Nikon Coolpix P1000)-1YhsooDk3sk-poop.mp4</property>
  <property name="kdenlive:original.mlt_type">producer</property>
  <property name="kdenlive:original.in">0</property>
  <property name="kdenlive:original.out">319</property>
  <property name="kdenlive:original.length">320</property>
  <property name="kdenlive:original.eof">pause</property>
  <property name="kdenlive:original.resource">content/footage/Adult Geese and Baby Geese Crossing the Street (Shot w_Nikon Coolpix P1000)-1YhsooDk3sk-poop.mp4</property>
  <property name="kdenlive:original.meta.media.nb_streams">1</property>
  <property name="kdenlive:original.meta.media.0.stream.type">video</property>
  <property name="kdenlive:original.meta.media.0.stream.frame_rate">29.971</property>
  <property name="kdenlive:original.meta.media.0.stream.sample_aspect_ratio">1</property>
  <property name="kdenlive:original.meta.media.0.codec.width">3840</property>
  <property name="kdenlive:original.meta.media.0.codec.height">2160</property>
  <property name="kdenlive:original.meta.media.0.codec.rotate">0</property>
  <property name="kdenlive:original.meta.media.0.codec.frame_rate">16000</property>
  <property name="kdenlive:original.meta.media.0.codec.pix_fmt">yuv420p</property>
  <property name="kdenlive:original.meta.media.0.codec.sample_aspect_ratio">0</property>
  <property name="kdenlive:original.meta.media.0.codec.colorspace">709</property>
  <property name="kdenlive:original.meta.media.0.codec.color_trc">1</property>
  <property name="kdenlive:original.meta.media.0.codec.name">vp9</property>
  <property name="kdenlive:original.meta.media.0.codec.long_name">Google VP9</property>
  <property name="kdenlive:original.meta.media.0.codec.bit_rate">16462336</property>
  <property name="kdenlive:original.meta.attr.0.stream.language.markup">eng</property>
  <property name="kdenlive:original.meta.attr.0.stream.handler_name.markup">VideoHandler</property>
  <property name="kdenlive:original.meta.attr.major_brand.markup">isom</property>
  <property name="kdenlive:original.meta.attr.minor_version.markup">512</property>
  <property name="kdenlive:original.meta.attr.compatible_brands.markup">isomiso2mp41</property>
  <property name="kdenlive:original.meta.attr.encoder.markup">Lavf58.45.100</property>
  <property name="kdenlive:original.seekable">1</property>
  <property name="kdenlive:original.width">3840</property>
  <property name="kdenlive:original.height">2160</property>
  <property name="kdenlive:original.meta.media.sample_aspect_num">1</property>
  <property name="kdenlive:original.meta.media.sample_aspect_den">1</property>
  <property name="kdenlive:original.aspect_ratio">1</property>
  <property name="kdenlive:original.audio_index">-1</property>
  <property name="kdenlive:original.video_index">0</property>
  <property name="kdenlive:original.mute_on_pause">0</property>
  <property name="kdenlive:original.mlt_service">avformat-novalidate</property>
  <property name="kdenlive:original.kdenlive:folderid">55</property>
  <property name="kdenlive:original.meta.media.frame_rate_num">320000</property>
  <property name="kdenlive:original.meta.media.frame_rate_den">10677</property>
  <property name="kdenlive:original.meta.media.colorspace">709</property>
  <property name="kdenlive:original.meta.media.color_trc">1</property>
  <property name="kdenlive:original.meta.media.width">3840</property>
  <property name="kdenlive:original.meta.media.height">2160</property>
  <property name="kdenlive:original.meta.media.color_range">mpeg</property>
  <property name="kdenlive:original.kdenlive:id">134</property>
  <property name="kdenlive:original.kdenlive:file_size">21975394</property>
  <property name="kdenlive:original.kdenlive:file_hash">8883bf7e3eb097f98c10aeb3207a2209</property>
  <property name="kdenlive:original.backup">1</property>
  <property name="global_feed">1</property>
  <property name="xml">was here</property>
  <property name="meta.media.nb_streams">1</property>
  <property name="meta.media.0.stream.type">video</property>
  <property name="meta.media.0.stream.frame_rate">29.97</property>
  <property name="meta.media.0.stream.sample_aspect_ratio">1</property>
  <property name="meta.media.0.codec.width">640</property>
  <property name="meta.media.0.codec.height">360</property>
  <property name="meta.media.0.codec.rotate">0</property>
  <property name="meta.media.0.codec.frame_rate">1000</property>
  <property name="meta.media.0.codec.pix_fmt">yuvj420p</property>
  <property name="meta.media.0.codec.sample_aspect_ratio">1</property>
  <property name="meta.media.0.codec.colorspace">601</property>
  <property name="meta.media.0.codec.name">mjpeg</property>
  <property name="meta.media.0.codec.long_name">MJPEG (Motion JPEG)</property>
  <property name="meta.media.0.codec.bit_rate">0</property>
  <property name="meta.attr.0.stream.language.markup">eng</property>
  <property name="meta.attr.0.stream.HANDLER_NAME.markup">VideoHandler</property>
  <property name="meta.attr.0.stream.ENCODER.markup">Lavc58.91.100 mjpeg</property>
  <property name="meta.attr.0.stream.DURATION.markup">00:00:10.677000000</property>
  <property name="meta.attr.COMPATIBLE_BRANDS.markup">isomiso2mp41</property>
  <property name="meta.attr.MAJOR_BRAND.markup">isom</property>
  <property name="meta.attr.MINOR_VERSION.markup">512</property>
  <property name="meta.attr.ENCODER.markup">Lavf58.45.100</property>
  <property name="meta.media.sample_aspect_num">1</property>
  <property name="meta.media.sample_aspect_den">1</property>
  <property name="meta.media.frame_rate_num">30000</property>
  <property name="meta.media.frame_rate_den">1001</property>
  <property name="meta.media.colorspace">601</property>
  <property name="meta.media.color_trc">2</property>
  <property name="meta.media.width">640</property>
  <property name="meta.media.height">360</property>
  <property name="meta.media.color_range">full</property>
  <property name="meta.media.top_field_first">0</property>
  <property name="meta.media.progressive">1</property>
  <property name="set.test_audio">1</property>
  <property name="set.test_image">0</property>
 </producer>
 <producer id="producer204" in="00:00:00.000" out="00:00:08.733">
  <property name="length">263</property>
  <property name="eof">pause</property>
  <property name="resource">1.216216:/home/ryankelln/.cache/kdenlive/proxy/8883bf7e3eb097f98c10aeb3207a2209.mkv</property>
  <property name="aspect_ratio">1</property>
  <property name="meta.media.nb_streams">1</property>
  <property name="meta.media.0.stream.type">video</property>
  <property name="meta.media.0.stream.frame_rate">29.97</property>
  <property name="meta.media.0.stream.sample_aspect_ratio">1</property>
  <property name="meta.media.0.codec.width">640</property>
  <property name="meta.media.0.codec.height">360</property>
  <property name="meta.media.0.codec.rotate">0</property>
  <property name="meta.media.0.codec.frame_rate">1000</property>
  <property name="meta.media.0.codec.pix_fmt">yuvj420p</property>
  <property name="meta.media.0.codec.sample_aspect_ratio">1</property>
  <property name="meta.media.0.codec.colorspace">601</property>
  <property name="meta.media.0.codec.name">mjpeg</property>
  <property name="meta.media.0.codec.long_name">MJPEG (Motion JPEG)</property>
  <property name="meta.media.0.codec.bit_rate">0</property>
  <property name="meta.attr.0.stream.language.markup">eng</property>
  <property name="meta.attr.0.stream.HANDLER_NAME.markup">VideoHandler</property>
  <property name="meta.attr.0.stream.ENCODER.markup">Lavc58.91.100 mjpeg</property>
  <property name="meta.attr.0.stream.DURATION.markup">00:00:10.677000000</property>
  <property name="meta.attr.COMPATIBLE_BRANDS.markup">isomiso2mp41</property>
  <property name="meta.attr.MAJOR_BRAND.markup">isom</property>
  <property name="meta.attr.MINOR_VERSION.markup">512</property>
  <property name="meta.attr.ENCODER.markup">Lavf58.45.100</property>
  <property name="seekable">1</property>
  <property name="meta.media.sample_aspect_num">1</property>
  <property name="meta.media.sample_aspect_den">1</property>
  <property name="audio_index">-1</property>
  <property name="video_index">0</property>
  <property name="mute_on_pause">1</property>
  <property name="warp_speed">1.21622</property>
  <property name="warp_resource">/home/ryankelln/.cache/kdenlive/proxy/8883bf7e3eb097f98c10aeb3207a2209.mkv</property>
  <property name="mlt_service">timewarp</property>
  <property name="kdenlive:proxy">/home/ryankelln/.cache/kdenlive/proxy/8883bf7e3eb097f98c10aeb3207a2209.mkv</property>
  <property name="kdenlive:originalurl">content/footage/Adult Geese and Baby Geese Crossing the Street (Shot w_Nikon Coolpix P1000)-1YhsooDk3sk-poop.mp4</property>
  <property name="set.test_audio">1</property>
  <property name="set.test_image">0</property>
  <property name="kdenlive:id">134</property>
  <property name="warp_pitch">0</property>
  <property name="meta.media.frame_rate_num">30000</property>
  <property name="meta.media.frame_rate_den">1001</property>
  <property name="meta.media.colorspace">601</property>
  <property name="meta.media.color_trc">2</property>
  <property name="meta.media.width">640</property>
  <property name="meta.media.height">360</property>
  <property name="meta.media.color_range">full</property>
  <property name="meta.media.top_field_first">0</property>
  <property name="meta.media.progressive">1</property>
 </producer>
 <producer id="producer205" in="00:00:00.000" out="00:00:07.967">
  <property name="length">240</property>
  <property name="eof">pause</property>
  <property name="resource">1.333333:/home/ryankelln/.cache/kdenlive/proxy/8883bf7e3eb097f98c10aeb3207a2209.mkv</property>
  <property name="aspect_ratio">1</property>
  <property name="meta.media.nb_streams">1</property>
  <property name="meta.media.0.stream.type">video</property>
  <property name="meta.media.0.stream.frame_rate">29.97</property>
  <property name="meta.media.0.stream.sample_aspect_ratio">1</property>
  <property name="meta.media.0.codec.width">640</property>
  <property name="meta.media.0.codec.height">360</property>
  <property name="meta.media.0.codec.rotate">0</property>
  <property name="meta.media.0.codec.frame_rate">1000</property>
  <property name="meta.media.0.codec.pix_fmt">yuvj420p</property>
  <property name="meta.media.0.codec.sample_aspect_ratio">1</property>
  <property name="meta.media.0.codec.colorspace">601</property>
  <property name="meta.media.0.codec.name">mjpeg</property>
  <property name="meta.media.0.codec.long_name">MJPEG (Motion JPEG)</property>
  <property name="meta.media.0.codec.bit_rate">0</property>
  <property name="meta.attr.0.stream.language.markup">eng</property>
  <property name="meta.attr.0.stream.HANDLER_NAME.markup">VideoHandler</property>
  <property name="meta.attr.0.stream.ENCODER.markup">Lavc58.91.100 mjpeg</property>
  <property name="meta.attr.0.stream.DURATION.markup">00:00:10.677000000</property>
  <property name="meta.attr.COMPATIBLE_BRANDS.markup">isomiso2mp41</property>
  <property name="meta.attr.MAJOR_BRAND.markup">isom</property>
  <property name="meta.attr.MINOR_VERSION.markup">512</property>
  <property name="meta.attr.ENCODER.markup">Lavf58.45.100</property>
  <property name="seekable">1</property>
  <property name="meta.media.sample_aspect_num">1</property>
  <property name="meta.media.sample_aspect_den">1</property>
  <property name="audio_index">-1</property>
  <property name="video_index">0</property>
  <property name="mute_on_pause">1</property>
  <property name="warp_speed">1.33333</property>
  <property name="warp_resource">/home/ryankelln/.cache/kdenlive/proxy/8883bf7e3eb097f98c10aeb3207a2209.mkv</property>
  <property name="mlt_service">timewarp</property>
  <property name="kdenlive:proxy">/home/ryankelln/.cache/kdenlive/proxy/8883bf7e3eb097f98c10aeb3207a2209.mkv</property>
  <property name="kdenlive:originalurl">content/footage/Adult Geese and Baby Geese Crossing the Street (Shot w_Nikon Coolpix P1000)-1YhsooDk3sk-poop.mp4</property>
  <property name="set.test_audio">1</property>
  <property name="set.test_image">0</property>
  <property name="kdenlive:id">134</property>
  <property name="warp_pitch">0</property>
  <property name="meta.media.frame_rate_num">30000</property>
  <property name="meta.media.frame_rate_den">1001</property>
  <property name="meta.media.colorspace">601</property>
  <property name="meta.media.color_trc">2</property>
  <property name="meta.media.width">640</property>
  <property name="meta.media.height">360</property>
  <property name="meta.media.color_range">full</property>
  <property name="meta.media.top_field_first">0</property>
  <property name="meta.media.progressive">1</property>
 </producer>
 <producer id="producer206" in="00:00:00.000" out="00:00:36.867">
  <property name="length">00:00:36.933</property>
  <property name="eof">pause</property>
  <property name="resource">/home/ryankelln/Documents/Projects/Active/Sound_Escapes/Jackson/footage/SeagullsCloseMaster_h264.mp4</property>
  <property name="audio_index">-1</property>
  <property name="video_index">0</property>
  <property name="mute_on_pause">0</property>
  <property name="mlt_service">avformat-novalidate</property>
  <property name="seekable">1</property>
  <property name="aspect_ratio">1</property>
  <property name="kdenlive:clipname"/>
  <property name="kdenlive:folderid">-1</property>
  <property name="kdenlive:id">10</property>
  <property name="kdenlive:file_size">49278582</property>
  <property name="kdenlive:file_hash">b2be9f3e4ba5a4ff8901ca563d188491</property>
  <property name="global_feed">1</property>
  <property name="xml">was here</property>
  <property name="meta.media.nb_streams">1</property>
  <property name="meta.media.0.stream.type">video</property>
  <property name="meta.media.0.stream.frame_rate">23.976</property>
  <property name="meta.media.0.stream.sample_aspect_ratio">0</property>
  <property name="meta.media.0.codec.width">1920</property>
  <property name="meta.media.0.codec.height">1080</property>
  <property name="meta.media.0.codec.rotate">0</property>
  <property name="meta.media.0.codec.frame_rate">23.976</property>
  <property name="meta.media.0.codec.pix_fmt">yuv420p</property>
  <property name="meta.media.0.codec.sample_aspect_ratio">1</property>
  <property name="meta.media.0.codec.colorspace">709</property>
  <property name="meta.media.0.codec.name">h264</property>
  <property name="meta.media.0.codec.long_name">H.264 / AVC / MPEG-4 AVC / MPEG-4 part 10</property>
  <property name="meta.media.0.codec.bit_rate">10664727</property>
  <property name="meta.attr.0.stream.creation_time.markup">2013-11-30T22:42:06.000000Z</property>
  <property name="meta.attr.0.stream.language.markup">eng</property>
  <property name="meta.attr.0.stream.handler_name.markup">Mainconcept MP4 Video Media Handler</property>
  <property name="meta.attr.0.stream.vendor_id.markup">[0][0][0][0]</property>
  <property name="meta.attr.0.stream.encoder.markup">AVC Coding</property>
  <property name="meta.attr.major_brand.markup">mp42</property>
  <property name="meta.attr.minor_version.markup">0</property>
  <property name="meta.attr.compatible_brands.markup">mp42mp41</property>
  <property name="meta.attr.creation_time.markup">2013-11-30T22:42:06.000000Z</property>
  <property name="meta.media.sample_aspect_num">1</property>
  <property name="meta.media.sample_aspect_den">1</property>
  <property name="meta.media.frame_rate_num">2997</property>
  <property name="meta.media.frame_rate_den">125</property>
  <property name="meta.media.colorspace">709</property>
  <property name="meta.media.color_trc">2</property>
  <property name="meta.media.width">1920</property>
  <property name="meta.media.height">1080</property>
  <property name="meta.media.color_range">mpeg</property>
  <property name="meta.media.top_field_first">0</property>
  <property name="meta.media.progressive">1</property>
  <property name="set.test_audio">1</property>
  <property name="set.test_image">0</property>
 </producer>
 <producer id="producer207" in="00:00:00.000" out="00:02:28.133">
  <property name="length">4445</property>
  <property name="eof">pause</property>
  <property name="resource">/home/ryankelln/Documents/Projects/Active/Sound_Escapes/musician_footage/musicians_greenscreen_test_2.mp4</property>
  <property name="audio_index">-1</property>
  <property name="video_index">0</property>
  <property name="mute_on_pause">0</property>
  <property name="mlt_service">avformat-novalidate</property>
  <property name="seekable">1</property>
  <property name="aspect_ratio">1</property>
  <property name="kdenlive:clipname"/>
  <property name="kdenlive:folderid">-1</property>
  <property name="kdenlive:id">25</property>
  <property name="kdenlive:file_size">78444272</property>
  <property name="kdenlive:file_hash">9297512d6bce04ff44d065ea5c8f4079</property>
  <property name="kdenlive:zone_in">2222</property>
  <property name="kdenlive:zone_out">3214</property>
  <property name="kdenlive:clipzones">[
    {
        "in": 3288,
        "name": "Zone 1",
        "out": 4418
    },
    {
        "in": 1081,
        "name": "Zone 2",
        "out": 1741
    },
    {
        "in": 2222,
        "name": "Zone 3",
        "out": 3214
    }
]
</property>
  <property name="global_feed">1</property>
  <property name="xml">was here</property>
  <property name="meta.media.nb_streams">1</property>
  <property name="meta.media.0.stream.type">video</property>
  <property name="meta.media.0.stream.frame_rate">30</property>
  <property name="meta.media.0.stream.sample_aspect_ratio">1</property>
  <property name="meta.media.0.codec.width">1920</property>
  <property name="meta.media.0.codec.height">1080</property>
  <property name="meta.media.0.codec.rotate">0</property>
  <property name="meta.media.0.codec.frame_rate">30</property>
  <property name="meta.media.0.codec.pix_fmt">yuv420p</property>
  <property name="meta.media.0.codec.sample_aspect_ratio">1</property>
  <property name="meta.media.0.codec.colorspace">709</property>
  <property name="meta.media.0.codec.color_trc">1</property>
  <property name="meta.media.0.codec.name">h264</property>
  <property name="meta.media.0.codec.long_name">H.264 / AVC / MPEG-4 AVC / MPEG-4 part 10</property>
  <property name="meta.media.0.codec.bit_rate">4232890</property>
  <property name="meta.attr.0.stream.handler_name.markup">VideoHandler</property>
  <property name="meta.attr.0.stream.vendor_id.markup">[0][0][0][0]</property>
  <property name="meta.attr.major_brand.markup">isom</property>
  <property name="meta.attr.minor_version.markup">512</property>
  <property name="meta.attr.compatible_brands.markup">isomiso2avc1mp41</property>
  <property name="meta.attr.encoder.markup">Lavf58.76.100</property>
  <property name="meta.media.sample_aspect_num">1</property>
  <property name="meta.media.sample_aspect_den">1</property>
  <property name="meta.media.frame_rate_num">30</property>
  <property name="meta.media.frame_rate_den">1</property>
  <property name="meta.media.colorspace">709</property>
  <property name="meta.media.color_trc">1</property>
  <property name="meta.media.width">1920</property>
  <property name="meta.media.height">1080</property>
  <property name="meta.media.color_range">mpeg</property>
  <property name="meta.media.top_field_first">0</property>
  <property name="meta.media.progressive">1</property>
  <property name="set.test_audio">1</property>
  <property name="set.test_image">0</property>
 </producer>
 <producer id="producer208" in="00:00:00.000" out="00:00:54.000">
  <property name="length">00:00:54.067</property>
  <property name="eof">pause</property>
  <property name="resource">/home/ryankelln/Documents/Projects/Active/Sound_Escapes/Jackson/storyboard/boids_layer_test.mp4</property>
  <property name="audio_index">-1</property>
  <property name="video_index">0</property>
  <property name="mute_on_pause">0</property>
  <property name="mlt_service">avformat-novalidate</property>
  <property name="seekable">1</property>
  <property name="aspect_ratio">1</property>
  <property name="kdenlive:clipname"/>
  <property name="kdenlive:folderid">-1</property>
  <property name="kdenlive:id">13</property>
  <property name="kdenlive:file_size">83962322</property>
  <property name="kdenlive:file_hash">cb4730f22231c94b650017f17e899df7</property>
  <property name="global_feed">1</property>
  <property name="xml">was here</property>
  <property name="meta.media.nb_streams">1</property>
  <property name="meta.media.0.stream.type">video</property>
  <property name="meta.media.0.stream.frame_rate">30</property>
  <property name="meta.media.0.stream.sample_aspect_ratio">1</property>
  <property name="meta.media.0.codec.width">1920</property>
  <property name="meta.media.0.codec.height">1080</property>
  <property name="meta.media.0.codec.rotate">0</property>
  <property name="meta.media.0.codec.frame_rate">30</property>
  <property name="meta.media.0.codec.pix_fmt">yuv444p</property>
  <property name="meta.media.0.codec.sample_aspect_ratio">1</property>
  <property name="meta.media.0.codec.colorspace">709</property>
  <property name="meta.media.0.codec.color_trc">1</property>
  <property name="meta.media.0.codec.name">h264</property>
  <property name="meta.media.0.codec.long_name">H.264 / AVC / MPEG-4 AVC / MPEG-4 part 10</property>
  <property name="meta.media.0.codec.bit_rate">12422425</property>
  <property name="meta.attr.0.stream.creation_time.markup">2021-05-14T20:53:20.000000Z</property>
  <property name="meta.attr.0.stream.handler_name.markup">VideoHandler</property>
  <property name="meta.attr.0.stream.vendor_id.markup">[0][0][0][0]</property>
  <property name="meta.attr.major_brand.markup">mp42</property>
  <property name="meta.attr.minor_version.markup">0</property>
  <property name="meta.attr.compatible_brands.markup">mp42mp41isomiso2</property>
  <property name="meta.attr.creation_time.markup">2021-05-14T20:53:20.000000Z</property>
  <property name="meta.attr.encoder.markup">x264</property>
  <property name="meta.media.sample_aspect_num">1</property>
  <property name="meta.media.sample_aspect_den">1</property>
  <property name="meta.media.frame_rate_num">30</property>
  <property name="meta.media.frame_rate_den">1</property>
  <property name="meta.media.colorspace">709</property>
  <property name="meta.media.color_trc">1</property>
  <property name="meta.media.width">1920</property>
  <property name="meta.media.height">1080</property>
  <property name="meta.media.color_range">mpeg</property>
  <property name="meta.media.top_field_first">0</property>
  <property name="meta.media.progressive">1</property>
  <property name="set.test_audio">1</property>
  <property name="set.test_image">0</property>
 </producer>
 <producer id="producer209" in="00:00:00.000" out="00:00:06.733">
  <property name="length">00:00:06.800</property>
  <property name="eof">pause</property>
  <property name="resource">/home/ryankelln/Documents/Projects/Active/Sound_Escapes/Jackson/footage/Bird Flying - Free Stock Creative Commons Video-FrRXDYUatf4.mp4</property>
  <property name="audio_index">1</property>
  <property name="video_index">0</property>
  <property name="mute_on_pause">0</property>
  <property name="mlt_service">avformat-novalidate</property>
  <property name="seekable">1</property>
  <property name="aspect_ratio">1</property>
  <property name="kdenlive:clipname"/>
  <property name="kdenlive:folderid">-1</property>
  <property name="kdenlive:id">4</property>
  <property name="kdenlive:file_size">1563626</property>
  <property name="kdenlive:file_hash">a96b92c1bace94bc3ed2462f08da2e88</property>
  <property name="kdenlive:audio_max">91</property>
  <property name="global_feed">1</property>
  <property name="xml">was here</property>
  <property name="meta.media.nb_streams">2</property>
  <property name="meta.media.0.stream.type">video</property>
  <property name="meta.media.0.stream.frame_rate">60.233</property>
  <property name="meta.media.0.stream.sample_aspect_ratio">1</property>
  <property name="meta.media.0.codec.width">1920</property>
  <property name="meta.media.0.codec.height">1080</property>
  <property name="meta.media.0.codec.rotate">0</property>
  <property name="meta.media.0.codec.frame_rate">59.9401</property>
  <property name="meta.media.0.codec.pix_fmt">yuv420p</property>
  <property name="meta.media.0.codec.sample_aspect_ratio">1</property>
  <property name="meta.media.0.codec.colorspace">709</property>
  <property name="meta.media.0.codec.color_trc">1</property>
  <property name="meta.media.0.codec.name">h264</property>
  <property name="meta.media.0.codec.long_name">H.264 / AVC / MPEG-4 AVC / MPEG-4 part 10</property>
  <property name="meta.media.0.codec.bit_rate">1702801</property>
  <property name="meta.attr.0.stream.handler_name.markup">ISO Media file produced by Google Inc. Created on: 05/11/2021.</property>
  <property name="meta.attr.0.stream.vendor_id.markup">[0][0][0][0]</property>
  <property name="meta.media.1.stream.type">audio</property>
  <property name="meta.media.1.codec.sample_fmt">fltp</property>
  <property name="meta.media.1.codec.sample_rate">44100</property>
  <property name="meta.media.1.codec.channels">2</property>
  <property name="meta.media.1.codec.name">aac</property>
  <property name="meta.media.1.codec.long_name">AAC (Advanced Audio Coding)</property>
  <property name="meta.media.1.codec.bit_rate">127999</property>
  <property name="meta.attr.1.stream.handler_name.markup">ISO Media file produced by Google Inc. Created on: 11/30/2018.</property>
  <property name="meta.attr.1.stream.vendor_id.markup">[0][0][0][0]</property>
  <property name="meta.attr.major_brand.markup">isom</property>
  <property name="meta.attr.minor_version.markup">512</property>
  <property name="meta.attr.compatible_brands.markup">isomiso2avc1mp41</property>
  <property name="meta.attr.encoder.markup">Lavf58.45.100</property>
  <property name="meta.media.sample_aspect_num">1</property>
  <property name="meta.media.sample_aspect_den">1</property>
  <property name="meta.media.frame_rate_num">1360000</property>
  <property name="meta.media.frame_rate_den">22579</property>
  <property name="meta.media.colorspace">709</property>
  <property name="meta.media.color_trc">1</property>
  <property name="meta.media.width">1920</property>
  <property name="meta.media.height">1080</property>
  <property name="meta.media.color_range">mpeg</property>
  <property name="meta.media.variable_frame_rate">1</property>
  <property name="meta.media.top_field_first">0</property>
  <property name="meta.media.progressive">1</property>
  <property name="set.test_audio">1</property>
  <property name="set.test_image">0</property>
 </producer>
 <playlist id="playlist12">
  <blank length="00:00:18.333"/>
  <entry producer="producer194" in="00:00:01.167" out="00:00:06.367">
   <property name="kdenlive:id">48</property>
   <property name="kdenlive:activeeffect">2</property>
   <filter id="filter114">
    <property name="version">0.6</property>
    <property name="mlt_service">frei0r.select0r</property>
    <property name="kdenlive_id">frei0r.select0r</property>
    <property name="Color to select">0xafaaa8ff</property>
    <property name="Invert selection">1</property>
    <property name="Selection subspace">1</property>
    <property name="Subspace shape">0</property>
    <property name="Edge mode">0.35</property>
    <property name="Delta R / A / Hue">35=0.88</property>
    <property name="Delta G / B / Chroma">35=0.865</property>
    <property name="Delta B / I / I">35=0.221</property>
    <property name="Slope">35=0.168</property>
    <property name="Operation">0.5</property>
    <property name="disable">1</property>
    <property name="kdenlive:collapsed">0</property>
   </filter>
   <filter id="filter115">
    <property name="version">0.1</property>
    <property name="mlt_service">frei0r.mask0mate</property>
    <property name="kdenlive_id">frei0r.mask0mate</property>
    <property name="Left">00:00:01.167=0</property>
    <property name="Right">00:00:01.167=0</property>
    <property name="Top">00:00:01.167=0.343</property>
    <property name="Bottom">00:00:01.167=0.429</property>
    <property name="Invert">1</property>
    <property name="Blur">00:00:01.167=0.116</property>
    <property name="kdenlive:collapsed">0</property>
   </filter>
   <filter id="filter116">
    <property name="rotate_center">1</property>
    <property name="mlt_service">qtblend</property>
    <property name="kdenlive_id">qtblend</property>
    <property name="rect">00:00:01.167=0 281 1920 1080 1.000000</property>
    <property name="rotation">00:00:01.167=0</property>
    <property name="compositing">0</property>
    <property name="distort">0</property>
    <property name="kdenlive:collapsed">0</property>
   </filter>
   <filter id="filter117">
    <property name="mlt_service">avfilter.hflip</property>
    <property name="kdenlive_id">avfilter.hflip</property>
    <property name="kdenlive:collapsed">0</property>
   </filter>
  </entry>
  <entry producer="producer194" in="00:00:01.167" out="00:00:04.800">
   <property name="kdenlive:id">48</property>
   <filter id="filter118">
    <property name="version">0.6</property>
    <property name="mlt_service">frei0r.select0r</property>
    <property name="kdenlive_id">frei0r.select0r</property>
    <property name="Color to select">0xafaaa8ff</property>
    <property name="Invert selection">1</property>
    <property name="Selection subspace">1</property>
    <property name="Subspace shape">0</property>
    <property name="Edge mode">0.35</property>
    <property name="Delta R / A / Hue">35=0.88</property>
    <property name="Delta G / B / Chroma">35=0.865</property>
    <property name="Delta B / I / I">35=0.221</property>
    <property name="Slope">35=0.168</property>
    <property name="Operation">0.5</property>
    <property name="disable">1</property>
   </filter>
   <filter id="filter119">
    <property name="version">0.1</property>
    <property name="mlt_service">frei0r.mask0mate</property>
    <property name="kdenlive_id">frei0r.mask0mate</property>
    <property name="Left">00:00:01.167=0</property>
    <property name="Right">00:00:01.167=0</property>
    <property name="Top">00:00:01.167=0.343</property>
    <property name="Bottom">00:00:01.167=0.429</property>
    <property name="Invert">1</property>
    <property name="Blur">00:00:01.167=0.116</property>
   </filter>
   <filter id="filter120">
    <property name="rotate_center">1</property>
    <property name="mlt_service">qtblend</property>
    <property name="kdenlive_id">qtblend</property>
    <property name="rect">00:00:01.167=0 281 1920 1080 1.000000</property>
    <property name="rotation">00:00:01.167=0</property>
    <property name="compositing">0</property>
    <property name="distort">0</property>
   </filter>
   <filter id="filter121">
    <property name="mlt_service">avfilter.hflip</property>
    <property name="kdenlive_id">avfilter.hflip</property>
   </filter>
  </entry>
  <blank length="00:00:07.967"/>
  <entry producer="producer195" in="00:00:04.733" out="00:00:07.167">
   <property name="kdenlive:id">50</property>
   <filter id="filter122">
    <property name="rotate_center">1</property>
    <property name="mlt_service">qtblend</property>
    <property name="kdenlive_id">qtblend</property>
    <property name="rect">00:00:04.733=0 0 1920 1080 1</property>
    <property name="rotation">00:00:04.733=133</property>
    <property name="compositing">0</property>
    <property name="distort">0</property>
    <property name="kdenlive:collapsed">0</property>
   </filter>
  </entry>
  <entry producer="producer195" in="00:00:07.200" out="00:00:09.600">
   <property name="kdenlive:id">50</property>
   <filter id="filter123">
    <property name="rotate_center">1</property>
    <property name="mlt_service">qtblend</property>
    <property name="kdenlive_id">qtblend</property>
    <property name="rect">00:00:07.200=0 0 1920 1080 1.000000</property>
    <property name="rotation">00:00:07.200=133</property>
    <property name="compositing">0</property>
    <property name="distort">0</property>
    <property name="kdenlive:collapsed">0</property>
   </filter>
   <filter id="filter124">
    <property name="mirror">vertical</property>
    <property name="mlt_service">mirror</property>
    <property name="kdenlive_id">mirror</property>
    <property name="reverse">1</property>
    <property name="kdenlive:collapsed">0</property>
   </filter>
  </entry>
  <entry producer="producer195" in="00:00:09.633" out="00:00:09.733">
   <property name="kdenlive:id">50</property>
   <filter id="filter125">
    <property name="rotate_center">1</property>
    <property name="mlt_service">qtblend</property>
    <property name="kdenlive_id">qtblend</property>
    <property name="rect">00:00:09.633=0 0 1920 1080 1.000000</property>
    <property name="rotation">00:00:09.633=133</property>
    <property name="compositing">0</property>
    <property name="distort">0</property>
    <property name="kdenlive:collapsed">0</property>
   </filter>
  </entry>
  <entry producer="producer195" in="00:00:09.767" out="00:00:19.800">
   <property name="kdenlive:id">50</property>
   <property name="kdenlive:activeeffect">1</property>
   <filter id="filter126">
    <property name="rotate_center">1</property>
    <property name="mlt_service">qtblend</property>
    <property name="kdenlive_id">qtblend</property>
    <property name="rect">00:00:09.767=0 0 1920 1080 1.000000;00:00:14.667=0 0 1920 1080 1.000000;00:00:14.700=0 0 1920 1080 1.000000;00:00:15.900=0 0 1920 1080 1.000000;00:00:15.933=0 0 1920 1080 1.000000;00:00:17.167=0 0 1920 1080 1.000000;00:00:17.200=0 0 1920 1080 1.000000;00:00:19.000=0 0 1920 1080 1.000000;00:00:19.033=0 0 1920 1080 1.000000;00:00:19.800=0 0 1920 1080 1.000000</property>
    <property name="rotation">00:00:09.767=99;00:00:14.667=-76.814;00:00:14.700=-76.814;00:00:15.900=-120.152;00:00:15.933=-120.152;00:00:17.167=-165.078;00:00:17.200=-165.078;00:00:19.000=-231.486;00:00:19.033=-231.486;00:00:19.800=-261</property>
    <property name="compositing">0</property>
    <property name="distort">0</property>
    <property name="kdenlive:collapsed">0</property>
   </filter>
   <filter id="filter127">
    <property name="rotate_center">1</property>
    <property name="mlt_service">qtblend</property>
    <property name="kdenlive_id">qtblend</property>
    <property name="rect">00:00:09.767~=0 0 1920 1080 1.000000;00:00:12.233~=0 0 1920 1080 1.000000;00:00:14.067~=-911 156 2688 1512 0.600000;00:00:14.667~=-1065 18 2880 1620 0.500000;00:00:14.700~=-1065 18 2880 1620 0.500000;00:00:15.300~=-756 591 2880 1620 0.500000;00:00:15.900~=-275 649 2880 1620 0.500000;00:00:15.933~=-275 649 2880 1620 0.500000;00:00:16.533~=308 811 2880 1620 0.500000;00:00:16.833=599 776 2880 1620 0.500000;00:00:17.167~=666 538 2880 1620 0.500000;00:00:17.200~=666 538 2880 1620 0.500000;00:00:19.000~=325 -568 2880 1620 0.500000;00:00:19.033~=325 -568 2880 1620 0.500000;00:00:19.800=0 0 1920 1080 1.000000</property>
    <property name="rotation">00:00:09.767~=0;00:00:12.233~=0;00:00:14.067~=0;00:00:14.667~=0;00:00:14.700~=0;00:00:15.300~=0;00:00:15.900~=0;00:00:15.933~=0;00:00:16.533~=0;00:00:16.833=0;00:00:17.167~=0;00:00:17.200~=0;00:00:19.000~=0;00:00:19.033~=0;00:00:19.800=0</property>
    <property name="compositing">0</property>
    <property name="distort">0</property>
    <property name="kdenlive:collapsed">0</property>
   </filter>
  </entry>
  <entry producer="producer196" in="00:00:11.067" out="00:00:20.633">
   <property name="kdenlive:id">50</property>
   <filter id="filter128">
    <property name="rotate_center">1</property>
    <property name="mlt_service">qtblend</property>
    <property name="kdenlive_id">qtblend</property>
    <property name="rect">00:00:11.067=0 0 1920 1080 1.000000;00:00:19.967=0 0 1920 1080 1.000000;00:00:20.633=0 0 1920 1080 1.000000</property>
    <property name="rotation">00:00:11.067=99;00:00:19.967=-300;00:00:20.633=-360</property>
    <property name="compositing">0</property>
    <property name="distort">0</property>
    <property name="kdenlive:collapsed">0</property>
   </filter>
   <filter id="filter129">
    <property name="rotate_center">1</property>
    <property name="mlt_service">qtblend</property>
    <property name="kdenlive_id">qtblend</property>
    <property name="rect">00:00:11.067|=0 0 1920 1080 1.000000;00:00:20.633=0 0 1920 1080 1.000000</property>
    <property name="rotation">00:00:11.067|=0;00:00:20.633=0</property>
    <property name="compositing">0</property>
    <property name="distort">0</property>
    <property name="kdenlive:collapsed">0</property>
   </filter>
  </entry>
  <blank length="00:00:32.933"/>
  <entry producer="producer197" in="00:00:07.967" out="00:00:34.933">
   <property name="kdenlive:id">109</property>
   <property name="kdenlive:activeeffect">2</property>
   <filter id="filter130">
    <property name="mlt_service">invert</property>
    <property name="kdenlive_id">invert</property>
    <property name="kdenlive:collapsed">0</property>
   </filter>
   <filter id="filter131">
    <property name="version">0.1</property>
    <property name="mlt_service">frei0r.colorize</property>
    <property name="kdenlive_id">frei0r.colorize</property>
    <property name="hue">00:00:07.967=0.163889</property>
    <property name="saturation">00:00:07.967=0.216667</property>
    <property name="lightness">00:00:07.967=0.5</property>
    <property name="kdenlive:collapsed">0</property>
   </filter>
   <filter id="filter132">
    <property name="version">0.1</property>
    <property name="mlt_service">frei0r.alphaspot</property>
    <property name="kdenlive_id">frei0r.alphaspot</property>
    <property name="Shape">0</property>
    <property name="Position X">00:00:07.967=0.5;00:00:08.233=0.5;00:00:08.800=0.5</property>
    <property name="Position Y">00:00:07.967=0.5;00:00:08.233=0.5;00:00:08.800=0.5</property>
    <property name="Size X">00:00:07.967=0.735;00:00:08.233=0.68;00:00:08.800=0.33</property>
    <property name="Size Y">00:00:07.967=0.33;00:00:08.233=0.33;00:00:08.800=0.33</property>
    <property name="Tilt">00:00:07.967=0.5;00:00:08.233=0.5;00:00:08.800=0.5</property>
    <property name="Transition width">00:00:07.967=0;00:00:08.233=0;00:00:08.800=0</property>
    <property name="Min">00:00:07.967=0;00:00:08.233=0;00:00:08.800=0</property>
    <property name="Max">00:00:07.967=1;00:00:08.233=1;00:00:08.800=1</property>
    <property name="Operation">1</property>
    <property name="kdenlive:collapsed">0</property>
   </filter>
   <filter id="filter133">
    <property name="version">0.1</property>
    <property name="mlt_service">frei0r.mask0mate</property>
    <property name="kdenlive_id">frei0r.mask0mate</property>
    <property name="Left">00:00:07.967=0</property>
    <property name="Right">00:00:07.967=0</property>
    <property name="Top">00:00:07.967=0</property>
    <property name="Bottom">00:00:07.967=0.303</property>
    <property name="Invert">1</property>
    <property name="Blur">00:00:07.967=0</property>
    <property name="kdenlive:collapsed">0</property>
   </filter>
  </entry>
  <blank length="00:01:29.867"/>
  <entry producer="producer80" in="00:00:00.000" out="00:00:06.233">
   <property name="kdenlive:id">111</property>
   <filter id="filter134">
    <property name="rotate_center">1</property>
    <property name="mlt_service">qtblend</property>
    <property name="kdenlive_id">qtblend</property>
    <property name="rect">00:00:00.000=-31 -633 2048 2048 1.000000;00:00:05.800=0 -21 1920 1120 1.000000</property>
    <property name="rotation">00:00:00.000=0;00:00:05.800=0</property>
    <property name="compositing">0</property>
    <property name="distort">1</property>
    <property name="kdenlive:collapsed">0</property>
   </filter>
   <filter id="filter135">
    <property name="lift_r">-0.387488</property>
    <property name="lift_g">-0.387488</property>
    <property name="lift_b">-0.387488</property>
    <property name="gamma_r">1.05</property>
    <property name="gamma_g">1.05</property>
    <property name="gamma_b">1.05</property>
    <property name="gain_r">0.925002</property>
    <property name="gain_g">0.925002</property>
    <property name="gain_b">0.925002</property>
    <property name="mlt_service">lift_gamma_gain</property>
    <property name="kdenlive_id">lift_gamma_gain</property>
    <property name="kdenlive:collapsed">0</property>
   </filter>
   <filter id="filter136">
    <property name="mlt_service">avfilter.gblur</property>
    <property name="kdenlive_id">avfilter.gblur</property>
    <property name="av.sigma">10</property>
    <property name="av.steps">1</property>
    <property name="av.planes">7</property>
    <property name="av.sigmaV">-1</property>
    <property name="kdenlive:collapsed">0</property>
   </filter>
  </entry>
  <blank length="00:00:17.700"/>
  <entry producer="producer198" in="00:00:00.000" out="00:00:03.000">
   <property name="kdenlive:id">68</property>
   <property name="kdenlive:activeeffect">4</property>
   <filter id="filter137">
    <property name="rotate_center">1</property>
    <property name="mlt_service">qtblend</property>
    <property name="kdenlive_id">qtblend</property>
    <property name="rect">00:00:00.000=-495 0 1920 1080 1.000000</property>
    <property name="rotation">00:00:00.000=0</property>
    <property name="compositing">0</property>
    <property name="distort">0</property>
    <property name="kdenlive:collapsed">0</property>
   </filter>
   <filter id="filter138">
    <property name="mirror">horizontal</property>
    <property name="mlt_service">mirror</property>
    <property name="kdenlive_id">mirror</property>
    <property name="reverse">1</property>
    <property name="kdenlive:collapsed">0</property>
   </filter>
   <filter id="filter139">
    <property name="mlt_service">avfilter.unsharp</property>
    <property name="kdenlive_id">avfilter.unsharp</property>
    <property name="av.lx">5</property>
    <property name="av.ly">5</property>
    <property name="av.la">2</property>
    <property name="av.cx">5</property>
    <property name="av.cy">5</property>
    <property name="av.ca">1</property>
    <property name="kdenlive:collapsed">0</property>
   </filter>
   <filter id="filter140">
    <property name="version">0.1</property>
    <property name="mlt_service">frei0r.squareblur</property>
    <property name="kdenlive_id">frei0r.squareblur</property>
    <property name="Kernel size">00:00:00.000=0.05;00:00:00.400=0</property>
    <property name="kdenlive:collapsed">0</property>
   </filter>
   <filter id="filter141">
    <property name="lift_r">0.11249</property>
    <property name="lift_g">0.11249</property>
    <property name="lift_b">0.11249</property>
    <property name="gamma_r">1.09999</property>
    <property name="gamma_g">1.09999</property>
    <property name="gamma_b">1.09999</property>
    <property name="gain_r">1.27498</property>
    <property name="gain_g">1.27498</property>
    <property name="gain_b">1.27498</property>
    <property name="mlt_service">lift_gamma_gain</property>
    <property name="kdenlive_id">lift_gamma_gain</property>
    <property name="kdenlive:collapsed">0</property>
   </filter>
  </entry>
  <blank length="00:00:02.200"/>
  <entry producer="producer199" in="00:00:00.000" out="00:00:03.000">
   <property name="kdenlive:id">69</property>
   <property name="kdenlive:activeeffect">3</property>
   <filter id="filter142">
    <property name="rotate_center">1</property>
    <property name="mlt_service">qtblend</property>
    <property name="kdenlive_id">qtblend</property>
    <property name="rect">00:00:00.000=-495 0 1920 1080 1.000000</property>
    <property name="rotation">00:00:00.000=0</property>
    <property name="compositing">0</property>
    <property name="distort">0</property>
    <property name="kdenlive:collapsed">0</property>
   </filter>
   <filter id="filter143">
    <property name="mirror">horizontal</property>
    <property name="mlt_service">mirror</property>
    <property name="kdenlive_id">mirror</property>
    <property name="reverse">1</property>
    <property name="kdenlive:collapsed">0</property>
   </filter>
   <filter id="filter144">
    <property name="mlt_service">avfilter.unsharp</property>
    <property name="kdenlive_id">avfilter.unsharp</property>
    <property name="av.lx">5</property>
    <property name="av.ly">5</property>
    <property name="av.la">2</property>
    <property name="av.cx">5</property>
    <property name="av.cy">5</property>
    <property name="av.ca">1</property>
    <property name="kdenlive:collapsed">0</property>
   </filter>
   <filter id="filter145">
    <property name="lift_r">-0.087495</property>
    <property name="lift_g">-0.087495</property>
    <property name="lift_b">-0.087495</property>
    <property name="gamma_r">1.27501</property>
    <property name="gamma_g">1.27501</property>
    <property name="gamma_b">1.27501</property>
    <property name="gain_r">1.22499</property>
    <property name="gain_g">1.22499</property>
    <property name="gain_b">1.22499</property>
    <property name="mlt_service">lift_gamma_gain</property>
    <property name="kdenlive_id">lift_gamma_gain</property>
    <property name="kdenlive:collapsed">0</property>
   </filter>
  </entry>
  <blank length="00:00:02.100"/>
  <entry producer="producer200" in="00:00:00.000" out="00:00:02.733">
   <property name="kdenlive:id">73</property>
   <property name="kdenlive:activeeffect">3</property>
   <filter id="filter146">
    <property name="rotate_center">1</property>
    <property name="mlt_service">qtblend</property>
    <property name="kdenlive_id">qtblend</property>
    <property name="rect">00:00:00.000=-495 0 1920 1080 1.000000</property>
    <property name="rotation">00:00:00.000=0</property>
    <property name="compositing">0</property>
    <property name="distort">0</property>
    <property name="kdenlive:collapsed">0</property>
   </filter>
   <filter id="filter147">
    <property name="mirror">horizontal</property>
    <property name="mlt_service">mirror</property>
    <property name="kdenlive_id">mirror</property>
    <property name="reverse">1</property>
    <property name="kdenlive:collapsed">0</property>
   </filter>
   <filter id="filter148">
    <property name="mlt_service">avfilter.unsharp</property>
    <property name="kdenlive_id">avfilter.unsharp</property>
    <property name="av.lx">5</property>
    <property name="av.ly">5</property>
    <property name="av.la">2</property>
    <property name="av.cx">5</property>
    <property name="av.cy">5</property>
    <property name="av.ca">1</property>
    <property name="kdenlive:collapsed">0</property>
   </filter>
   <filter id="filter149">
    <property name="lift_r">0</property>
    <property name="lift_g">0</property>
    <property name="lift_b">0</property>
    <property name="gamma_r">1</property>
    <property name="gamma_g">1</property>
    <property name="gamma_b">1</property>
    <property name="gain_r">1.17501</property>
    <property name="gain_g">1.17501</property>
    <property name="gain_b">1.17501</property>
    <property name="mlt_service">lift_gamma_gain</property>
    <property name="kdenlive_id">lift_gamma_gain</property>
    <property name="kdenlive:collapsed">0</property>
   </filter>
  </entry>
  <blank length="00:00:01.567"/>
  <entry producer="producer201" in="00:00:00.000" out="00:00:03.000">
   <property name="kdenlive:id">125</property>
   <property name="kdenlive:activeeffect">3</property>
   <filter id="filter150">
    <property name="rotate_center">1</property>
    <property name="mlt_service">qtblend</property>
    <property name="kdenlive_id">qtblend</property>
    <property name="rect">00:00:00.000=536 0 1920 1080 1.000000</property>
    <property name="rotation">00:00:00.000=0</property>
    <property name="compositing">0</property>
    <property name="distort">0</property>
    <property name="kdenlive:collapsed">0</property>
   </filter>
   <filter id="filter151">
    <property name="mirror">horizontal</property>
    <property name="mlt_service">mirror</property>
    <property name="kdenlive_id">mirror</property>
    <property name="reverse">0</property>
    <property name="kdenlive:collapsed">0</property>
   </filter>
   <filter id="filter152">
    <property name="mlt_service">avfilter.unsharp</property>
    <property name="kdenlive_id">avfilter.unsharp</property>
    <property name="av.lx">5</property>
    <property name="av.ly">5</property>
    <property name="av.la">2</property>
    <property name="av.cx">5</property>
    <property name="av.cy">5</property>
    <property name="av.ca">1</property>
    <property name="kdenlive:collapsed">0</property>
   </filter>
   <filter id="filter153">
    <property name="lift_r">-0.125002</property>
    <property name="lift_g">-0.125002</property>
    <property name="lift_b">-0.125002</property>
    <property name="gamma_r">1.15001</property>
    <property name="gamma_g">1.15001</property>
    <property name="gamma_b">1.15001</property>
    <property name="gain_r">1.30001</property>
    <property name="gain_g">1.30001</property>
    <property name="gain_b">1.30001</property>
    <property name="mlt_service">lift_gamma_gain</property>
    <property name="kdenlive_id">lift_gamma_gain</property>
    <property name="kdenlive:collapsed">0</property>
   </filter>
  </entry>
  <blank length="00:00:05.333"/>
  <entry producer="producer202" in="00:00:13.700" out="00:00:16.167">
   <property name="kdenlive:id">67</property>
  </entry>
  <blank length="00:00:08.533"/>
  <entry producer="producer203" in="00:00:02.600" out="00:00:03.100">
   <property name="kdenlive:id">134</property>
   <filter id="filter154">
    <property name="rotate_center">1</property>
    <property name="mlt_service">qtblend</property>
    <property name="kdenlive_id">qtblend</property>
    <property name="rect">00:00:02.600=-901 -356 3840 2160 1.000000</property>
    <property name="rotation">00:00:02.600=0</property>
    <property name="compositing">0</property>
    <property name="distort">0</property>
    <property name="kdenlive:collapsed">0</property>
   </filter>
   <filter id="filter155">
    <property name="mlt_service">avfilter.hflip</property>
    <property name="kdenlive_id">avfilter.hflip</property>
    <property name="kdenlive:collapsed">0</property>
   </filter>
  </entry>
  <entry producer="producer204" in="00:00:02.567" out="00:00:03.767">
   <property name="kdenlive:id">134</property>
   <filter id="filter156">
    <property name="rotate_center">1</property>
    <property name="mlt_service">qtblend</property>
    <property name="kdenlive_id">qtblend</property>
    <property name="rect">00:00:02.567=-901 -356 3840 2160 1.000000</property>
    <property name="rotation">00:00:02.567=0</property>
    <property name="compositing">0</property>
    <property name="distort">0</property>
    <property name="kdenlive:collapsed">0</property>
   </filter>
   <filter id="filter157">
    <property name="mlt_service">avfilter.hflip</property>
    <property name="kdenlive_id">avfilter.hflip</property>
    <property name="kdenlive:collapsed">0</property>
   </filter>
  </entry>
  <entry producer="producer203" in="00:00:04.633" out="00:00:05.600">
   <property name="kdenlive:id">134</property>
   <filter id="filter158">
    <property name="rotate_center">1</property>
    <property name="mlt_service">qtblend</property>
    <property name="kdenlive_id">qtblend</property>
    <property name="rect">00:00:04.633=-901 -356 3840 2160 1.000000</property>
    <property name="rotation">00:00:04.633=0</property>
    <property name="compositing">0</property>
    <property name="distort">0</property>
    <property name="kdenlive:collapsed">0</property>
   </filter>
   <filter id="filter159">
    <property name="mlt_service">avfilter.hflip</property>
    <property name="kdenlive_id">avfilter.hflip</property>
    <property name="kdenlive:collapsed">0</property>
   </filter>
  </entry>
  <entry producer="producer205" in="00:00:04.200" out="00:00:05.333">
   <property name="kdenlive:id">134</property>
   <filter id="filter160">
    <property name="rotate_center">1</property>
    <property name="mlt_service">qtblend</property>
    <property name="kdenlive_id">qtblend</property>
    <property name="rect">00:00:04.200=-901 -356 3840 2160 1.000000;00:00:05.333=-901 -356 3840 2160 1.000000</property>
    <property name="rotation">00:00:04.200=0;00:00:05.333=0</property>
    <property name="compositing">0</property>
    <property name="distort">0</property>
   </filter>
   <filter id="filter161">
    <property name="mlt_service">avfilter.hflip</property>
    <property name="kdenlive_id">avfilter.hflip</property>
   </filter>
  </entry>
  <blank length="00:03:25.233"/>
  <entry producer="producer206" in="00:00:00.000" out="00:00:19.733">
   <property name="kdenlive:id">10</property>
   <property name="kdenlive:activeeffect">1</property>
   <filter id="filter162">
    <property name="rotate_center">1</property>
    <property name="mlt_service">qtblend</property>
    <property name="kdenlive_id">qtblend</property>
    <property name="rect">00:00:00.000=0 0 1920 1080 1.000000;00:00:19.733=-960 -540 3840 2160 1.000000</property>
    <property name="rotation">00:00:00.000=0;00:00:19.733=0</property>
    <property name="compositing">0</property>
    <property name="distort">0</property>
    <property name="kdenlive:collapsed">0</property>
   </filter>
   <filter id="filter163">
    <property name="version">0.1</property>
    <property name="mlt_service">frei0r.squareblur</property>
    <property name="kdenlive_id">frei0r.squareblur</property>
    <property name="Kernel size">00:00:00.000=0;00:00:04.667=0;00:00:05.533=0;00:00:06.533=0.015;00:00:06.733=0;00:00:08.400=0.02;00:00:08.667=0;00:00:10.333=0.03;00:00:10.533=0;00:00:12.200=0.03;00:00:12.467=0;00:00:14.133=0.05;00:00:14.333=0;00:00:15.800=0.07;00:00:16.267=0.01;00:00:17.667=0.115385</property>
    <property name="kdenlive:collapsed">0</property>
   </filter>
  </entry>
  <blank length="00:02:36.900"/>
  <entry producer="producer207" in="00:01:14.067" out="00:01:47.133">
   <property name="kdenlive:id">25</property>
   <property name="kdenlive:activeeffect">1</property>
   <filter id="filter164">
    <property name="version">0.1</property>
    <property name="mlt_service">frei0r.alphaspot</property>
    <property name="kdenlive_id">frei0r.alphaspot</property>
    <property name="Shape">0</property>
    <property name="Position X">00:01:14.067=0.5</property>
    <property name="Position Y">00:01:14.067=0.5</property>
    <property name="Size X">00:01:14.067=0.5</property>
    <property name="Size Y">00:01:14.067=1</property>
    <property name="Tilt">00:01:14.067=0.5</property>
    <property name="Transition width">00:01:14.067=0.042</property>
    <property name="Min">00:01:14.067=0</property>
    <property name="Max">00:01:14.067=1</property>
    <property name="Operation">0</property>
    <property name="kdenlive:collapsed">0</property>
   </filter>
   <filter id="filter165">
    <property name="rotate_center">1</property>
    <property name="mlt_service">qtblend</property>
    <property name="kdenlive_id">qtblend</property>
    <property name="rect">00:01:14.067=580 651 768 432 1.000000</property>
    <property name="rotation">00:01:14.067=0</property>
    <property name="compositing">0</property>
    <property name="distort">0</property>
    <property name="kdenlive:collapsed">0</property>
   </filter>
  </entry>
  <blank length="00:01:35.667"/>
  <entry producer="producer208" in="00:00:02.400" out="00:00:11.667">
   <property name="kdenlive:id">13</property>
   <filter id="filter166" in="00:00:02.400" out="00:00:02.867">
    <property name="start">0</property>
    <property name="mlt_service">brightness</property>
    <property name="kdenlive_id">fade_from_black</property>
    <property name="end">1</property>
    <property name="alpha">-1</property>
   </filter>
  </entry>
  <blank length="00:00:02.800"/>
  <entry producer="producer209" in="00:00:01.067" out="00:00:05.733">
   <property name="kdenlive:id">4</property>
  </entry>
 </playlist>
 <playlist id="playlist13"/>
 <tractor id="tractor6" in="00:00:00.000" out="00:13:19.133">
  <property name="kdenlive:trackheight">69</property>
  <property name="kdenlive:timeline_active">1</property>
  <property name="kdenlive:collapsed">28</property>
  <property name="kdenlive:thumbs_format"/>
  <property name="kdenlive:audio_rec"/>
  <track hide="audio" producer="playlist12"/>
  <track producer="playlist13"/>
 </tractor>
 <producer id="producer210" in="00:00:00.000" out="00:00:07.833">
  <property name="length">236</property>
  <property name="eof">pause</property>
  <property name="resource">/home/ryankelln/.cache/kdenlive/proxy/5203107a34ef2012072d70e80d74c459.mkv</property>
  <property name="audio_index">1</property>
  <property name="video_index">0</property>
  <property name="mute_on_pause">0</property>
  <property name="mlt_service">avformat-novalidate</property>
  <property name="seekable">1</property>
  <property name="aspect_ratio">1</property>
  <property name="kdenlive:clipname">gull flying slow mo bird and sky-dfA3UASzwS0.mp4</property>
  <property name="kdenlive:folderid">55</property>
  <property name="kdenlive:id">49</property>
  <property name="kdenlive:file_size">1158331</property>
  <property name="kdenlive:file_hash">5203107a34ef2012072d70e80d74c459</property>
  <property name="kdenlive:proxy">/home/ryankelln/.cache/kdenlive/proxy/5203107a34ef2012072d70e80d74c459.mkv</property>
  <property name="kdenlive:originalurl">content/footage/gull flying slow mo bird and sky-dfA3UASzwS0.mp4</property>
  <property name="kdenlive:original.mlt_type">producer</property>
  <property name="kdenlive:original.in">0</property>
  <property name="kdenlive:original.out">235</property>
  <property name="kdenlive:original.length">236</property>
  <property name="kdenlive:original.eof">pause</property>
  <property name="kdenlive:original.resource">content/footage/gull flying slow mo bird and sky-dfA3UASzwS0.mp4</property>
  <property name="kdenlive:original.meta.media.nb_streams">2</property>
  <property name="kdenlive:original.meta.media.0.stream.type">video</property>
  <property name="kdenlive:original.meta.media.0.stream.frame_rate">30.0968</property>
  <property name="kdenlive:original.meta.media.0.stream.sample_aspect_ratio">1</property>
  <property name="kdenlive:original.meta.media.0.codec.width">1920</property>
  <property name="kdenlive:original.meta.media.0.codec.height">1080</property>
  <property name="kdenlive:original.meta.media.0.codec.rotate">0</property>
  <property name="kdenlive:original.meta.media.0.codec.frame_rate">29.97</property>
  <property name="kdenlive:original.meta.media.0.codec.pix_fmt">yuv420p</property>
  <property name="kdenlive:original.meta.media.0.codec.sample_aspect_ratio">1</property>
  <property name="kdenlive:original.meta.media.0.codec.colorspace">709</property>
  <property name="kdenlive:original.meta.media.0.codec.color_trc">1</property>
  <property name="kdenlive:original.meta.media.0.codec.name">h264</property>
  <property name="kdenlive:original.meta.media.0.codec.long_name">H.264 / AVC / MPEG-4 AVC / MPEG-4 part 10</property>
  <property name="kdenlive:original.meta.media.0.codec.bit_rate">1049438</property>
  <property name="kdenlive:original.meta.attr.0.stream.handler_name.markup">ISO Media file produced by Google Inc. Created on: 05/22/2021.</property>
  <property name="kdenlive:original.meta.media.1.stream.type">audio</property>
  <property name="kdenlive:original.meta.media.1.codec.sample_fmt">fltp</property>
  <property name="kdenlive:original.meta.media.1.codec.sample_rate">44100</property>
  <property name="kdenlive:original.meta.media.1.codec.channels">2</property>
  <property name="kdenlive:original.meta.media.1.codec.name">aac</property>
  <property name="kdenlive:original.meta.media.1.codec.long_name">AAC (Advanced Audio Coding)</property>
  <property name="kdenlive:original.meta.media.1.codec.bit_rate">127999</property>
  <property name="kdenlive:original.meta.attr.1.stream.handler_name.markup">ISO Media file produced by Google Inc.</property>
  <property name="kdenlive:original.meta.attr.major_brand.markup">isom</property>
  <property name="kdenlive:original.meta.attr.minor_version.markup">512</property>
  <property name="kdenlive:original.meta.attr.compatible_brands.markup">isomiso2avc1mp41</property>
  <property name="kdenlive:original.meta.attr.encoder.markup">Lavf58.45.100</property>
  <property name="kdenlive:original.seekable">1</property>
  <property name="kdenlive:original.width">1920</property>
  <property name="kdenlive:original.height">1080</property>
  <property name="kdenlive:original.meta.media.sample_aspect_num">1</property>
  <property name="kdenlive:original.meta.media.sample_aspect_den">1</property>
  <property name="kdenlive:original.aspect_ratio">1</property>
  <property name="kdenlive:original.audio_index">1</property>
  <property name="kdenlive:original.video_index">0</property>
  <property name="kdenlive:original.mute_on_pause">0</property>
  <property name="kdenlive:original.mlt_service">avformat-novalidate</property>
  <property name="kdenlive:original.kdenlive:folderid">55</property>
  <property name="kdenlive:original.meta.media.frame_rate_num">1762500</property>
  <property name="kdenlive:original.meta.media.frame_rate_den">58561</property>
  <property name="kdenlive:original.meta.media.colorspace">709</property>
  <property name="kdenlive:original.meta.media.color_trc">1</property>
  <property name="kdenlive:original.meta.media.width">1920</property>
  <property name="kdenlive:original.meta.media.height">1080</property>
  <property name="kdenlive:original.meta.media.color_range">mpeg</property>
  <property name="kdenlive:original.kdenlive:id">59</property>
  <property name="kdenlive:original.kdenlive:file_size">1158331</property>
  <property name="kdenlive:original.kdenlive:file_hash">5203107a34ef2012072d70e80d74c459</property>
  <property name="kdenlive:original.backup">1</property>
  <property name="global_feed">1</property>
  <property name="xml">was here</property>
  <property name="meta.media.nb_streams">2</property>
  <property name="meta.media.0.stream.type">video</property>
  <property name="meta.media.0.stream.frame_rate">29.97</property>
  <property name="meta.media.0.stream.sample_aspect_ratio">1</property>
  <property name="meta.media.0.codec.width">640</property>
  <property name="meta.media.0.codec.height">360</property>
  <property name="meta.media.0.codec.rotate">0</property>
  <property name="meta.media.0.codec.frame_rate">1000</property>
  <property name="meta.media.0.codec.pix_fmt">yuvj420p</property>
  <property name="meta.media.0.codec.sample_aspect_ratio">1</property>
  <property name="meta.media.0.codec.colorspace">601</property>
  <property name="meta.media.0.codec.name">mjpeg</property>
  <property name="meta.media.0.codec.long_name">MJPEG (Motion JPEG)</property>
  <property name="meta.media.0.codec.bit_rate">0</property>
  <property name="meta.attr.0.stream.HANDLER_NAME.markup">ISO Media file produced by Google Inc. Created on: 05/22/2021.</property>
  <property name="meta.attr.0.stream.ENCODER.markup">Lavc58.91.100 mjpeg</property>
  <property name="meta.attr.0.stream.DURATION.markup">00:00:07.841000000</property>
  <property name="meta.media.1.stream.type">audio</property>
  <property name="meta.media.1.codec.sample_fmt">s16</property>
  <property name="meta.media.1.codec.sample_rate">44100</property>
  <property name="meta.media.1.codec.channels">2</property>
  <property name="meta.media.1.codec.name">pcm_s16le</property>
  <property name="meta.media.1.codec.long_name">PCM signed 16-bit little-endian</property>
  <property name="meta.media.1.codec.bit_rate">1411200</property>
  <property name="meta.attr.1.stream.HANDLER_NAME.markup">ISO Media file produced by Google Inc.</property>
  <property name="meta.attr.1.stream.ENCODER.markup">Lavc58.91.100 pcm_s16le</property>
  <property name="meta.attr.1.stream.DURATION.markup">00:00:07.871000000</property>
  <property name="meta.attr.COMPATIBLE_BRANDS.markup">isomiso2avc1mp41</property>
  <property name="meta.attr.MAJOR_BRAND.markup">isom</property>
  <property name="meta.attr.MINOR_VERSION.markup">512</property>
  <property name="meta.attr.ENCODER.markup">Lavf58.45.100</property>
  <property name="meta.media.sample_aspect_num">1</property>
  <property name="meta.media.sample_aspect_den">1</property>
  <property name="meta.media.frame_rate_num">30000</property>
  <property name="meta.media.frame_rate_den">1001</property>
  <property name="meta.media.colorspace">601</property>
  <property name="meta.media.color_trc">2</property>
  <property name="meta.media.width">640</property>
  <property name="meta.media.height">360</property>
  <property name="meta.media.color_range">full</property>
  <property name="meta.media.top_field_first">0</property>
  <property name="meta.media.progressive">1</property>
  <property name="set.test_audio">1</property>
  <property name="set.test_image">0</property>
 </producer>
 <producer id="producer211" in="00:00:00.000" out="00:00:06.267">
  <property name="length">189</property>
  <property name="eof">pause</property>
  <property name="resource">1.250000:/home/ryankelln/.cache/kdenlive/proxy/5203107a34ef2012072d70e80d74c459.mkv</property>
  <property name="aspect_ratio">1</property>
  <property name="meta.media.nb_streams">2</property>
  <property name="meta.media.0.stream.type">video</property>
  <property name="meta.media.0.stream.frame_rate">29.97</property>
  <property name="meta.media.0.stream.sample_aspect_ratio">1</property>
  <property name="meta.media.0.codec.width">640</property>
  <property name="meta.media.0.codec.height">360</property>
  <property name="meta.media.0.codec.rotate">0</property>
  <property name="meta.media.0.codec.frame_rate">1000</property>
  <property name="meta.media.0.codec.pix_fmt">yuvj420p</property>
  <property name="meta.media.0.codec.sample_aspect_ratio">1</property>
  <property name="meta.media.0.codec.colorspace">601</property>
  <property name="meta.media.0.codec.name">mjpeg</property>
  <property name="meta.media.0.codec.long_name">MJPEG (Motion JPEG)</property>
  <property name="meta.media.0.codec.bit_rate">0</property>
  <property name="meta.attr.0.stream.HANDLER_NAME.markup">ISO Media file produced by Google Inc. Created on: 05/22/2021.</property>
  <property name="meta.attr.0.stream.ENCODER.markup">Lavc58.91.100 mjpeg</property>
  <property name="meta.attr.0.stream.DURATION.markup">00:00:07.841000000</property>
  <property name="meta.media.1.stream.type">audio</property>
  <property name="meta.media.1.codec.sample_fmt">s16</property>
  <property name="meta.media.1.codec.sample_rate">44100</property>
  <property name="meta.media.1.codec.channels">2</property>
  <property name="meta.media.1.codec.name">pcm_s16le</property>
  <property name="meta.media.1.codec.long_name">PCM signed 16-bit little-endian</property>
  <property name="meta.media.1.codec.bit_rate">1411200</property>
  <property name="meta.attr.1.stream.HANDLER_NAME.markup">ISO Media file produced by Google Inc.</property>
  <property name="meta.attr.1.stream.ENCODER.markup">Lavc58.91.100 pcm_s16le</property>
  <property name="meta.attr.1.stream.DURATION.markup">00:00:07.871000000</property>
  <property name="meta.attr.COMPATIBLE_BRANDS.markup">isomiso2avc1mp41</property>
  <property name="meta.attr.MAJOR_BRAND.markup">isom</property>
  <property name="meta.attr.MINOR_VERSION.markup">512</property>
  <property name="meta.attr.ENCODER.markup">Lavf58.45.100</property>
  <property name="seekable">1</property>
  <property name="meta.media.sample_aspect_num">1</property>
  <property name="meta.media.sample_aspect_den">1</property>
  <property name="audio_index">1</property>
  <property name="video_index">0</property>
  <property name="mute_on_pause">1</property>
  <property name="warp_speed">1.25</property>
  <property name="warp_resource">/home/ryankelln/.cache/kdenlive/proxy/5203107a34ef2012072d70e80d74c459.mkv</property>
  <property name="mlt_service">timewarp</property>
  <property name="kdenlive:proxy">/home/ryankelln/.cache/kdenlive/proxy/5203107a34ef2012072d70e80d74c459.mkv</property>
  <property name="kdenlive:originalurl">content/footage/gull flying slow mo bird and sky-dfA3UASzwS0.mp4</property>
  <property name="set.test_audio">1</property>
  <property name="set.test_image">0</property>
  <property name="kdenlive:id">49</property>
  <property name="warp_pitch">0</property>
  <property name="meta.media.frame_rate_num">30000</property>
  <property name="meta.media.frame_rate_den">1001</property>
  <property name="meta.media.colorspace">601</property>
  <property name="meta.media.color_trc">2</property>
  <property name="meta.media.width">640</property>
  <property name="meta.media.height">360</property>
  <property name="meta.media.color_range">full</property>
  <property name="meta.media.top_field_first">0</property>
  <property name="meta.media.progressive">1</property>
 </producer>
 <producer id="producer212" in="00:00:00.000" out="00:00:06.267">
  <property name="length">189</property>
  <property name="eof">pause</property>
  <property name="resource">-1.250000:/home/ryankelln/.cache/kdenlive/proxy/5203107a34ef2012072d70e80d74c459.mkv</property>
  <property name="aspect_ratio">1</property>
  <property name="meta.media.nb_streams">2</property>
  <property name="meta.media.0.stream.type">video</property>
  <property name="meta.media.0.stream.frame_rate">29.97</property>
  <property name="meta.media.0.stream.sample_aspect_ratio">1</property>
  <property name="meta.media.0.codec.width">640</property>
  <property name="meta.media.0.codec.height">360</property>
  <property name="meta.media.0.codec.rotate">0</property>
  <property name="meta.media.0.codec.frame_rate">1000</property>
  <property name="meta.media.0.codec.pix_fmt">yuvj420p</property>
  <property name="meta.media.0.codec.sample_aspect_ratio">1</property>
  <property name="meta.media.0.codec.colorspace">601</property>
  <property name="meta.media.0.codec.name">mjpeg</property>
  <property name="meta.media.0.codec.long_name">MJPEG (Motion JPEG)</property>
  <property name="meta.media.0.codec.bit_rate">0</property>
  <property name="meta.attr.0.stream.HANDLER_NAME.markup">ISO Media file produced by Google Inc. Created on: 05/22/2021.</property>
  <property name="meta.attr.0.stream.ENCODER.markup">Lavc58.91.100 mjpeg</property>
  <property name="meta.attr.0.stream.DURATION.markup">00:00:07.841000000</property>
  <property name="meta.media.1.stream.type">audio</property>
  <property name="meta.media.1.codec.sample_fmt">s16</property>
  <property name="meta.media.1.codec.sample_rate">44100</property>
  <property name="meta.media.1.codec.channels">2</property>
  <property name="meta.media.1.codec.name">pcm_s16le</property>
  <property name="meta.media.1.codec.long_name">PCM signed 16-bit little-endian</property>
  <property name="meta.media.1.codec.bit_rate">1411200</property>
  <property name="meta.attr.1.stream.HANDLER_NAME.markup">ISO Media file produced by Google Inc.</property>
  <property name="meta.attr.1.stream.ENCODER.markup">Lavc58.91.100 pcm_s16le</property>
  <property name="meta.attr.1.stream.DURATION.markup">00:00:07.871000000</property>
  <property name="meta.attr.COMPATIBLE_BRANDS.markup">isomiso2avc1mp41</property>
  <property name="meta.attr.MAJOR_BRAND.markup">isom</property>
  <property name="meta.attr.MINOR_VERSION.markup">512</property>
  <property name="meta.attr.ENCODER.markup">Lavf58.45.100</property>
  <property name="seekable">1</property>
  <property name="meta.media.sample_aspect_num">1</property>
  <property name="meta.media.sample_aspect_den">1</property>
  <property name="audio_index">1</property>
  <property name="video_index">0</property>
  <property name="mute_on_pause">1</property>
  <property name="warp_speed">-1.25</property>
  <property name="warp_resource">/home/ryankelln/.cache/kdenlive/proxy/5203107a34ef2012072d70e80d74c459.mkv</property>
  <property name="mlt_service">timewarp</property>
  <property name="kdenlive:proxy">/home/ryankelln/.cache/kdenlive/proxy/5203107a34ef2012072d70e80d74c459.mkv</property>
  <property name="kdenlive:originalurl">content/footage/gull flying slow mo bird and sky-dfA3UASzwS0.mp4</property>
  <property name="set.test_audio">1</property>
  <property name="set.test_image">0</property>
  <property name="kdenlive:id">49</property>
  <property name="warp_pitch">0</property>
  <property name="meta.media.frame_rate_num">30000</property>
  <property name="meta.media.frame_rate_den">1001</property>
  <property name="meta.media.colorspace">601</property>
  <property name="meta.media.color_trc">2</property>
  <property name="meta.media.width">640</property>
  <property name="meta.media.height">360</property>
  <property name="meta.media.color_range">full</property>
  <property name="meta.media.top_field_first">0</property>
  <property name="meta.media.progressive">1</property>
 </producer>
 <producer id="producer213" in="00:00:00.000" out="00:00:06.267">
  <property name="length">189</property>
  <property name="eof">pause</property>
  <property name="resource">1.250000:/home/ryankelln/.cache/kdenlive/proxy/5203107a34ef2012072d70e80d74c459.mkv</property>
  <property name="aspect_ratio">1</property>
  <property name="meta.media.nb_streams">2</property>
  <property name="meta.media.0.stream.type">video</property>
  <property name="meta.media.0.stream.frame_rate">29.97</property>
  <property name="meta.media.0.stream.sample_aspect_ratio">1</property>
  <property name="meta.media.0.codec.width">640</property>
  <property name="meta.media.0.codec.height">360</property>
  <property name="meta.media.0.codec.rotate">0</property>
  <property name="meta.media.0.codec.frame_rate">1000</property>
  <property name="meta.media.0.codec.pix_fmt">yuvj420p</property>
  <property name="meta.media.0.codec.sample_aspect_ratio">1</property>
  <property name="meta.media.0.codec.colorspace">601</property>
  <property name="meta.media.0.codec.name">mjpeg</property>
  <property name="meta.media.0.codec.long_name">MJPEG (Motion JPEG)</property>
  <property name="meta.media.0.codec.bit_rate">0</property>
  <property name="meta.attr.0.stream.HANDLER_NAME.markup">ISO Media file produced by Google Inc. Created on: 05/22/2021.</property>
  <property name="meta.attr.0.stream.ENCODER.markup">Lavc58.91.100 mjpeg</property>
  <property name="meta.attr.0.stream.DURATION.markup">00:00:07.841000000</property>
  <property name="meta.media.1.stream.type">audio</property>
  <property name="meta.media.1.codec.sample_fmt">s16</property>
  <property name="meta.media.1.codec.sample_rate">44100</property>
  <property name="meta.media.1.codec.channels">2</property>
  <property name="meta.media.1.codec.name">pcm_s16le</property>
  <property name="meta.media.1.codec.long_name">PCM signed 16-bit little-endian</property>
  <property name="meta.media.1.codec.bit_rate">1411200</property>
  <property name="meta.attr.1.stream.HANDLER_NAME.markup">ISO Media file produced by Google Inc.</property>
  <property name="meta.attr.1.stream.ENCODER.markup">Lavc58.91.100 pcm_s16le</property>
  <property name="meta.attr.1.stream.DURATION.markup">00:00:07.871000000</property>
  <property name="meta.attr.COMPATIBLE_BRANDS.markup">isomiso2avc1mp41</property>
  <property name="meta.attr.MAJOR_BRAND.markup">isom</property>
  <property name="meta.attr.MINOR_VERSION.markup">512</property>
  <property name="meta.attr.ENCODER.markup">Lavf58.45.100</property>
  <property name="seekable">1</property>
  <property name="meta.media.sample_aspect_num">1</property>
  <property name="meta.media.sample_aspect_den">1</property>
  <property name="audio_index">1</property>
  <property name="video_index">0</property>
  <property name="mute_on_pause">1</property>
  <property name="warp_speed">1.25</property>
  <property name="warp_resource">/home/ryankelln/.cache/kdenlive/proxy/5203107a34ef2012072d70e80d74c459.mkv</property>
  <property name="mlt_service">timewarp</property>
  <property name="kdenlive:proxy">/home/ryankelln/.cache/kdenlive/proxy/5203107a34ef2012072d70e80d74c459.mkv</property>
  <property name="kdenlive:originalurl">content/footage/gull flying slow mo bird and sky-dfA3UASzwS0.mp4</property>
  <property name="set.test_audio">1</property>
  <property name="set.test_image">0</property>
  <property name="kdenlive:id">49</property>
  <property name="warp_pitch">0</property>
  <property name="meta.media.frame_rate_num">30000</property>
  <property name="meta.media.frame_rate_den">1001</property>
  <property name="meta.media.colorspace">601</property>
  <property name="meta.media.color_trc">2</property>
  <property name="meta.media.width">640</property>
  <property name="meta.media.height">360</property>
  <property name="meta.media.color_range">full</property>
  <property name="meta.media.top_field_first">0</property>
  <property name="meta.media.progressive">1</property>
 </producer>
 <producer id="producer214" in="00:00:00.000" out="00:00:36.867">
  <property name="length">1109</property>
  <property name="eof">pause</property>
  <property name="resource">/home/ryankelln/.cache/kdenlive/proxy/b2be9f3e4ba5a4ff8901ca563d188491.mkv</property>
  <property name="audio_index">-1</property>
  <property name="video_index">0</property>
  <property name="mute_on_pause">0</property>
  <property name="mlt_service">avformat-novalidate</property>
  <property name="seekable">1</property>
  <property name="aspect_ratio">1</property>
  <property name="kdenlive:clipname">SeagullsCloseMaster_h264.mp4</property>
  <property name="kdenlive:folderid">55</property>
  <property name="kdenlive:id">50</property>
  <property name="kdenlive:file_size">49278582</property>
  <property name="kdenlive:file_hash">b2be9f3e4ba5a4ff8901ca563d188491</property>
  <property name="kdenlive:proxy">/home/ryankelln/.cache/kdenlive/proxy/b2be9f3e4ba5a4ff8901ca563d188491.mkv</property>
  <property name="kdenlive:originalurl">content/footage/SeagullsCloseMaster_h264.mp4</property>
  <property name="kdenlive:original.mlt_type">producer</property>
  <property name="kdenlive:original.in">0</property>
  <property name="kdenlive:original.out">1108</property>
  <property name="kdenlive:original.length">1109</property>
  <property name="kdenlive:original.eof">pause</property>
  <property name="kdenlive:original.resource">content/footage/SeagullsCloseMaster_h264.mp4</property>
  <property name="kdenlive:original.meta.media.nb_streams">1</property>
  <property name="kdenlive:original.meta.media.0.stream.type">video</property>
  <property name="kdenlive:original.meta.media.0.stream.frame_rate">23.976</property>
  <property name="kdenlive:original.meta.media.0.stream.sample_aspect_ratio">0</property>
  <property name="kdenlive:original.meta.media.0.codec.width">1920</property>
  <property name="kdenlive:original.meta.media.0.codec.height">1080</property>
  <property name="kdenlive:original.meta.media.0.codec.rotate">0</property>
  <property name="kdenlive:original.meta.media.0.codec.frame_rate">23.976</property>
  <property name="kdenlive:original.meta.media.0.codec.pix_fmt">yuv420p</property>
  <property name="kdenlive:original.meta.media.0.codec.sample_aspect_ratio">1</property>
  <property name="kdenlive:original.meta.media.0.codec.colorspace">709</property>
  <property name="kdenlive:original.meta.media.0.codec.name">h264</property>
  <property name="kdenlive:original.meta.media.0.codec.long_name">H.264 / AVC / MPEG-4 AVC / MPEG-4 part 10</property>
  <property name="kdenlive:original.meta.media.0.codec.bit_rate">10664727</property>
  <property name="kdenlive:original.meta.attr.0.stream.creation_time.markup">2013-11-30T22:42:06.000000Z</property>
  <property name="kdenlive:original.meta.attr.0.stream.language.markup">eng</property>
  <property name="kdenlive:original.meta.attr.0.stream.handler_name.markup">Mainconcept MP4 Video Media Handler</property>
  <property name="kdenlive:original.meta.attr.0.stream.encoder.markup">AVC Coding</property>
  <property name="kdenlive:original.meta.attr.major_brand.markup">mp42</property>
  <property name="kdenlive:original.meta.attr.minor_version.markup">0</property>
  <property name="kdenlive:original.meta.attr.compatible_brands.markup">mp42mp41</property>
  <property name="kdenlive:original.meta.attr.creation_time.markup">2013-11-30T22:42:06.000000Z</property>
  <property name="kdenlive:original.seekable">1</property>
  <property name="kdenlive:original.width">1920</property>
  <property name="kdenlive:original.height">1080</property>
  <property name="kdenlive:original.meta.media.sample_aspect_num">1</property>
  <property name="kdenlive:original.meta.media.sample_aspect_den">1</property>
  <property name="kdenlive:original.aspect_ratio">1</property>
  <property name="kdenlive:original.audio_index">-1</property>
  <property name="kdenlive:original.video_index">0</property>
  <property name="kdenlive:original.mute_on_pause">0</property>
  <property name="kdenlive:original.mlt_service">avformat-novalidate</property>
  <property name="kdenlive:original.kdenlive:folderid">55</property>
  <property name="kdenlive:original.meta.media.frame_rate_num">2997</property>
  <property name="kdenlive:original.meta.media.frame_rate_den">125</property>
  <property name="kdenlive:original.meta.media.colorspace">709</property>
  <property name="kdenlive:original.meta.media.color_trc">2</property>
  <property name="kdenlive:original.meta.media.width">1920</property>
  <property name="kdenlive:original.meta.media.height">1080</property>
  <property name="kdenlive:original.meta.media.color_range">mpeg</property>
  <property name="kdenlive:original.kdenlive:id">60</property>
  <property name="kdenlive:original.kdenlive:file_size">49278582</property>
  <property name="kdenlive:original.kdenlive:file_hash">b2be9f3e4ba5a4ff8901ca563d188491</property>
  <property name="kdenlive:original.backup">1</property>
  <property name="global_feed">1</property>
  <property name="xml">was here</property>
  <property name="meta.media.nb_streams">1</property>
  <property name="meta.media.0.stream.type">video</property>
  <property name="meta.media.0.stream.frame_rate">23.976</property>
  <property name="meta.media.0.stream.sample_aspect_ratio">1</property>
  <property name="meta.media.0.codec.width">640</property>
  <property name="meta.media.0.codec.height">360</property>
  <property name="meta.media.0.codec.rotate">0</property>
  <property name="meta.media.0.codec.frame_rate">1000</property>
  <property name="meta.media.0.codec.pix_fmt">yuvj420p</property>
  <property name="meta.media.0.codec.sample_aspect_ratio">1</property>
  <property name="meta.media.0.codec.colorspace">601</property>
  <property name="meta.media.0.codec.name">mjpeg</property>
  <property name="meta.media.0.codec.long_name">MJPEG (Motion JPEG)</property>
  <property name="meta.media.0.codec.bit_rate">0</property>
  <property name="meta.attr.0.stream.language.markup">eng</property>
  <property name="meta.attr.0.stream.HANDLER_NAME.markup">Mainconcept MP4 Video Media Handler</property>
  <property name="meta.attr.0.stream.ENCODER.markup">Lavc58.91.100 mjpeg</property>
  <property name="meta.attr.0.stream.DURATION.markup">00:00:36.912000000</property>
  <property name="meta.attr.COMPATIBLE_BRANDS.markup">mp42mp41</property>
  <property name="meta.attr.MAJOR_BRAND.markup">mp42</property>
  <property name="meta.attr.MINOR_VERSION.markup">0</property>
  <property name="meta.attr.ENCODER.markup">Lavf58.45.100</property>
  <property name="meta.media.sample_aspect_num">1</property>
  <property name="meta.media.sample_aspect_den">1</property>
  <property name="meta.media.frame_rate_num">2997</property>
  <property name="meta.media.frame_rate_den">125</property>
  <property name="meta.media.colorspace">601</property>
  <property name="meta.media.color_trc">2</property>
  <property name="meta.media.width">640</property>
  <property name="meta.media.height">360</property>
  <property name="meta.media.color_range">full</property>
  <property name="meta.media.top_field_first">0</property>
  <property name="meta.media.progressive">1</property>
  <property name="set.test_audio">1</property>
  <property name="set.test_image">0</property>
 </producer>
 <producer id="producer215" in="00:00:00.000" out="00:00:20.633">
  <property name="length">621</property>
  <property name="eof">pause</property>
  <property name="resource">1.784722:/home/ryankelln/.cache/kdenlive/proxy/b2be9f3e4ba5a4ff8901ca563d188491.mkv</property>
  <property name="aspect_ratio">1</property>
  <property name="meta.media.nb_streams">1</property>
  <property name="meta.media.0.stream.type">video</property>
  <property name="meta.media.0.stream.frame_rate">23.976</property>
  <property name="meta.media.0.stream.sample_aspect_ratio">1</property>
  <property name="meta.media.0.codec.width">640</property>
  <property name="meta.media.0.codec.height">360</property>
  <property name="meta.media.0.codec.rotate">0</property>
  <property name="meta.media.0.codec.frame_rate">1000</property>
  <property name="meta.media.0.codec.pix_fmt">yuvj420p</property>
  <property name="meta.media.0.codec.sample_aspect_ratio">1</property>
  <property name="meta.media.0.codec.colorspace">601</property>
  <property name="meta.media.0.codec.name">mjpeg</property>
  <property name="meta.media.0.codec.long_name">MJPEG (Motion JPEG)</property>
  <property name="meta.media.0.codec.bit_rate">0</property>
  <property name="meta.attr.0.stream.language.markup">eng</property>
  <property name="meta.attr.0.stream.HANDLER_NAME.markup">Mainconcept MP4 Video Media Handler</property>
  <property name="meta.attr.0.stream.ENCODER.markup">Lavc58.91.100 mjpeg</property>
  <property name="meta.attr.0.stream.DURATION.markup">00:00:36.912000000</property>
  <property name="meta.attr.COMPATIBLE_BRANDS.markup">mp42mp41</property>
  <property name="meta.attr.MAJOR_BRAND.markup">mp42</property>
  <property name="meta.attr.MINOR_VERSION.markup">0</property>
  <property name="meta.attr.ENCODER.markup">Lavf58.45.100</property>
  <property name="seekable">1</property>
  <property name="meta.media.sample_aspect_num">1</property>
  <property name="meta.media.sample_aspect_den">1</property>
  <property name="audio_index">-1</property>
  <property name="video_index">0</property>
  <property name="mute_on_pause">1</property>
  <property name="warp_speed">1.78472</property>
  <property name="warp_resource">/home/ryankelln/.cache/kdenlive/proxy/b2be9f3e4ba5a4ff8901ca563d188491.mkv</property>
  <property name="mlt_service">timewarp</property>
  <property name="kdenlive:proxy">/home/ryankelln/.cache/kdenlive/proxy/b2be9f3e4ba5a4ff8901ca563d188491.mkv</property>
  <property name="kdenlive:originalurl">content/footage/SeagullsCloseMaster_h264.mp4</property>
  <property name="set.test_audio">1</property>
  <property name="set.test_image">0</property>
  <property name="kdenlive:id">50</property>
  <property name="warp_pitch">0</property>
  <property name="meta.media.frame_rate_num">2997</property>
  <property name="meta.media.frame_rate_den">125</property>
  <property name="meta.media.colorspace">601</property>
  <property name="meta.media.color_trc">2</property>
  <property name="meta.media.width">640</property>
  <property name="meta.media.height">360</property>
  <property name="meta.media.color_range">full</property>
  <property name="meta.media.top_field_first">0</property>
  <property name="meta.media.progressive">1</property>
 </producer>
 <producer id="producer216" in="00:00:00.000" out="00:00:03.000">
  <property name="length">91</property>
  <property name="eof">pause</property>
  <property name="resource">content/ai/bird_sarah.1003.mp4</property>
  <property name="audio_index">-1</property>
  <property name="video_index">0</property>
  <property name="mute_on_pause">0</property>
  <property name="mlt_service">avformat-novalidate</property>
  <property name="seekable">1</property>
  <property name="aspect_ratio">1</property>
  <property name="kdenlive:clipname"/>
  <property name="kdenlive:folderid">71</property>
  <property name="kdenlive:id">124</property>
  <property name="kdenlive:file_size">1843278</property>
  <property name="kdenlive:file_hash">09103e551c1a5d2ff7134362e75bdbea</property>
  <property name="global_feed">1</property>
  <property name="xml">was here</property>
  <property name="meta.media.nb_streams">1</property>
  <property name="meta.media.0.stream.type">video</property>
  <property name="meta.media.0.stream.frame_rate">30</property>
  <property name="meta.media.0.stream.sample_aspect_ratio">0</property>
  <property name="meta.media.0.codec.width">512</property>
  <property name="meta.media.0.codec.height">512</property>
  <property name="meta.media.0.codec.rotate">0</property>
  <property name="meta.media.0.codec.frame_rate">30</property>
  <property name="meta.media.0.codec.pix_fmt">yuv444p</property>
  <property name="meta.media.0.codec.sample_aspect_ratio">0</property>
  <property name="meta.media.0.codec.colorspace">601</property>
  <property name="meta.media.0.codec.name">h264</property>
  <property name="meta.media.0.codec.long_name">H.264 / AVC / MPEG-4 AVC / MPEG-4 part 10</property>
  <property name="meta.media.0.codec.bit_rate">4856473</property>
  <property name="meta.attr.0.stream.handler_name.markup">VideoHandler</property>
  <property name="meta.attr.major_brand.markup">isom</property>
  <property name="meta.attr.minor_version.markup">512</property>
  <property name="meta.attr.compatible_brands.markup">isomiso2avc1mp41</property>
  <property name="meta.attr.encoder.markup">Lavf58.76.100</property>
  <property name="meta.media.sample_aspect_num">1</property>
  <property name="meta.media.sample_aspect_den">1</property>
  <property name="meta.media.frame_rate_num">30</property>
  <property name="meta.media.frame_rate_den">1</property>
  <property name="meta.media.colorspace">601</property>
  <property name="meta.media.color_trc">2</property>
  <property name="meta.media.width">512</property>
  <property name="meta.media.height">512</property>
  <property name="meta.media.color_range">mpeg</property>
  <property name="meta.media.top_field_first">0</property>
  <property name="meta.media.progressive">1</property>
  <property name="set.test_audio">1</property>
  <property name="set.test_image">0</property>
 </producer>
 <producer id="producer217" in="00:00:00.000" out="00:00:03.000">
  <property name="length">91</property>
  <property name="eof">pause</property>
  <property name="resource">content/ai/bird_trio.1018.mp4</property>
  <property name="audio_index">-1</property>
  <property name="video_index">0</property>
  <property name="mute_on_pause">0</property>
  <property name="mlt_service">avformat-novalidate</property>
  <property name="seekable">1</property>
  <property name="aspect_ratio">1</property>
  <property name="kdenlive:clipname"/>
  <property name="kdenlive:folderid">71</property>
  <property name="kdenlive:id">121</property>
  <property name="kdenlive:file_size">1343157</property>
  <property name="kdenlive:file_hash">ddc032b98455625f3281aba5a3ec8a8f</property>
  <property name="global_feed">1</property>
  <property name="xml">was here</property>
  <property name="meta.media.nb_streams">1</property>
  <property name="meta.media.0.stream.type">video</property>
  <property name="meta.media.0.stream.frame_rate">30</property>
  <property name="meta.media.0.stream.sample_aspect_ratio">0</property>
  <property name="meta.media.0.codec.width">512</property>
  <property name="meta.media.0.codec.height">512</property>
  <property name="meta.media.0.codec.rotate">0</property>
  <property name="meta.media.0.codec.frame_rate">30</property>
  <property name="meta.media.0.codec.pix_fmt">yuv444p</property>
  <property name="meta.media.0.codec.sample_aspect_ratio">0</property>
  <property name="meta.media.0.codec.colorspace">601</property>
  <property name="meta.media.0.codec.name">h264</property>
  <property name="meta.media.0.codec.long_name">H.264 / AVC / MPEG-4 AVC / MPEG-4 part 10</property>
  <property name="meta.media.0.codec.bit_rate">3537578</property>
  <property name="meta.attr.0.stream.handler_name.markup">VideoHandler</property>
  <property name="meta.attr.major_brand.markup">isom</property>
  <property name="meta.attr.minor_version.markup">512</property>
  <property name="meta.attr.compatible_brands.markup">isomiso2avc1mp41</property>
  <property name="meta.attr.encoder.markup">Lavf58.76.100</property>
  <property name="meta.media.sample_aspect_num">1</property>
  <property name="meta.media.sample_aspect_den">1</property>
  <property name="meta.media.frame_rate_num">30</property>
  <property name="meta.media.frame_rate_den">1</property>
  <property name="meta.media.colorspace">601</property>
  <property name="meta.media.color_trc">2</property>
  <property name="meta.media.width">512</property>
  <property name="meta.media.height">512</property>
  <property name="meta.media.color_range">mpeg</property>
  <property name="meta.media.top_field_first">0</property>
  <property name="meta.media.progressive">1</property>
  <property name="set.test_audio">1</property>
  <property name="set.test_image">0</property>
 </producer>
 <producer id="producer218" in="00:00:00.000" out="00:00:03.000">
  <property name="length">91</property>
  <property name="eof">pause</property>
  <property name="resource">content/ai/bird_sarah.509.mp4</property>
  <property name="audio_index">-1</property>
  <property name="video_index">0</property>
  <property name="mute_on_pause">0</property>
  <property name="mlt_service">avformat-novalidate</property>
  <property name="seekable">1</property>
  <property name="aspect_ratio">1</property>
  <property name="kdenlive:clipname"/>
  <property name="kdenlive:folderid">71</property>
  <property name="kdenlive:id">118</property>
  <property name="kdenlive:file_size">1449553</property>
  <property name="kdenlive:file_hash">cb15554530cee4817654b716a5128d68</property>
  <property name="global_feed">1</property>
  <property name="xml">was here</property>
  <property name="meta.media.nb_streams">1</property>
  <property name="meta.media.0.stream.type">video</property>
  <property name="meta.media.0.stream.frame_rate">30</property>
  <property name="meta.media.0.stream.sample_aspect_ratio">0</property>
  <property name="meta.media.0.codec.width">512</property>
  <property name="meta.media.0.codec.height">512</property>
  <property name="meta.media.0.codec.rotate">0</property>
  <property name="meta.media.0.codec.frame_rate">30</property>
  <property name="meta.media.0.codec.pix_fmt">yuv444p</property>
  <property name="meta.media.0.codec.sample_aspect_ratio">0</property>
  <property name="meta.media.0.codec.colorspace">601</property>
  <property name="meta.media.0.codec.name">h264</property>
  <property name="meta.media.0.codec.long_name">H.264 / AVC / MPEG-4 AVC / MPEG-4 part 10</property>
  <property name="meta.media.0.codec.bit_rate">3818099</property>
  <property name="meta.attr.0.stream.handler_name.markup">VideoHandler</property>
  <property name="meta.attr.major_brand.markup">isom</property>
  <property name="meta.attr.minor_version.markup">512</property>
  <property name="meta.attr.compatible_brands.markup">isomiso2avc1mp41</property>
  <property name="meta.attr.encoder.markup">Lavf58.76.100</property>
  <property name="meta.media.sample_aspect_num">1</property>
  <property name="meta.media.sample_aspect_den">1</property>
  <property name="meta.media.frame_rate_num">30</property>
  <property name="meta.media.frame_rate_den">1</property>
  <property name="meta.media.colorspace">601</property>
  <property name="meta.media.color_trc">2</property>
  <property name="meta.media.width">512</property>
  <property name="meta.media.height">512</property>
  <property name="meta.media.color_range">mpeg</property>
  <property name="meta.media.top_field_first">0</property>
  <property name="meta.media.progressive">1</property>
  <property name="set.test_audio">1</property>
  <property name="set.test_image">0</property>
 </producer>
 <playlist id="playlist14">
  <blank length="00:00:12.400"/>
  <entry producer="producer210" in="00:00:00.000" out="00:00:06.333">
   <property name="kdenlive:id">49</property>
   <filter id="filter167">
    <property name="version">0.1</property>
    <property name="mlt_service">frei0r.mask0mate</property>
    <property name="kdenlive_id">frei0r.mask0mate</property>
    <property name="Left">00:00:00.000=0;00:00:02.000=0;00:00:04.800=0;00:00:05.200=0;00:00:06.333=0</property>
    <property name="Right">00:00:00.000=0;00:00:02.000=0;00:00:04.800=0;00:00:05.200=0;00:00:06.333=0</property>
    <property name="Top">00:00:00.000=0.113;00:00:02.000=0.169;00:00:04.800=0.096;00:00:05.200=0.114261;00:00:06.333=0.166</property>
    <property name="Bottom">00:00:00.000=0.457;00:00:02.000=0.316;00:00:04.800=0.48;00:00:05.200=0.3;00:00:06.333=0.313</property>
    <property name="Invert">1</property>
    <property name="Blur">00:00:00.000=0.053;00:00:02.000=0.0776316;00:00:04.800=0.112116;00:00:05.200=0.117042;00:00:06.333=0.131</property>
    <property name="kdenlive:collapsed">0</property>
   </filter>
   <filter id="filter168">
    <property name="rotate_center">1</property>
    <property name="mlt_service">qtblend</property>
    <property name="kdenlive_id">qtblend</property>
    <property name="rect">00:00:00.000=-4 416 1920 1080 1.000000</property>
    <property name="rotation">00:00:00.000=0</property>
    <property name="compositing">0</property>
    <property name="distort">0</property>
    <property name="kdenlive:collapsed">0</property>
   </filter>
   <filter id="filter169" out="00:00:01.800">
    <property name="start">0</property>
    <property name="mlt_service">brightness</property>
    <property name="kdenlive_id">fade_from_black</property>
    <property name="end">1</property>
    <property name="alpha">-1</property>
   </filter>
  </entry>
  <entry producer="producer211" in="00:00:05.067" out="00:00:06.233">
   <property name="kdenlive:id">49</property>
   <filter id="filter170">
    <property name="version">0.1</property>
    <property name="mlt_service">frei0r.mask0mate</property>
    <property name="kdenlive_id">frei0r.mask0mate</property>
    <property name="Left">00:00:05.067=0;00:00:06.233=0;00:00:06.300=</property>
    <property name="Right">00:00:05.067=0;00:00:06.233=0;00:00:06.300=</property>
    <property name="Top">00:00:05.067=0.166;00:00:06.233=0.28;00:00:06.300=0</property>
    <property name="Bottom">00:00:05.067=0.304;00:00:06.233=0.114;00:00:06.300=</property>
    <property name="Invert">1</property>
    <property name="Blur">00:00:05.067=0.131;00:00:06.233=0.131;00:00:06.300=</property>
    <property name="kdenlive:collapsed">0</property>
   </filter>
   <filter id="filter171">
    <property name="rotate_center">1</property>
    <property name="mlt_service">qtblend</property>
    <property name="kdenlive_id">qtblend</property>
    <property name="rect">00:00:05.067=-4 416 1920 1080 1.000000</property>
    <property name="rotation">00:00:05.067=0</property>
    <property name="compositing">0</property>
    <property name="distort">0</property>
    <property name="kdenlive:collapsed">0</property>
   </filter>
  </entry>
  <entry producer="producer212" in="00:00:00.067" out="00:00:06.267">
   <property name="kdenlive:id">49</property>
   <filter id="filter172">
    <property name="version">0.1</property>
    <property name="mlt_service">frei0r.mask0mate</property>
    <property name="kdenlive_id">frei0r.mask0mate</property>
    <property name="Left">00:00:00.067=0;00:00:01.467=0;00:00:04.267=0;00:00:06.267=0</property>
    <property name="Right">00:00:00.067=0;00:00:01.467=0;00:00:04.267=0;00:00:06.267=0</property>
    <property name="Top">00:00:00.067=0.284;00:00:01.467=0.108;00:00:04.267=0.176;00:00:06.267=0.093</property>
    <property name="Bottom">00:00:00.067=0.304;00:00:01.467=0.304;00:00:04.267=0.304;00:00:06.267=0.304</property>
    <property name="Invert">1</property>
    <property name="Blur">00:00:00.067=0.131;00:00:01.467=0.131;00:00:04.267=0.131;00:00:06.267=0.131</property>
    <property name="kdenlive:collapsed">0</property>
   </filter>
   <filter id="filter173">
    <property name="rotate_center">1</property>
    <property name="mlt_service">qtblend</property>
    <property name="kdenlive_id">qtblend</property>
    <property name="rect">00:00:00.067=-4 416 1920 1080 1.000000;00:00:06.267=-4 416 1920 1080 1.000000</property>
    <property name="rotation">00:00:00.067=0;00:00:06.267=0</property>
    <property name="compositing">0</property>
    <property name="distort">0</property>
    <property name="kdenlive:collapsed">0</property>
   </filter>
  </entry>
  <entry producer="producer213" in="00:00:00.000" out="00:00:00.300">
   <property name="kdenlive:id">49</property>
   <filter id="filter174">
    <property name="version">0.1</property>
    <property name="mlt_service">frei0r.mask0mate</property>
    <property name="kdenlive_id">frei0r.mask0mate</property>
    <property name="Left">00:00:00.000=0;00:00:00.300=0</property>
    <property name="Right">00:00:00.000=0;00:00:00.300=0</property>
    <property name="Top">00:00:00.000=0.166;00:00:00.300=0</property>
    <property name="Bottom">00:00:00.000=0.304;00:00:00.300=0</property>
    <property name="Invert">1</property>
    <property name="Blur">00:00:00.000=0.131;00:00:00.300=0</property>
    <property name="kdenlive:collapsed">0</property>
   </filter>
   <filter id="filter175">
    <property name="rotate_center">1</property>
    <property name="mlt_service">qtblend</property>
    <property name="kdenlive_id">qtblend</property>
    <property name="rect">00:00:00.000=-4 416 1920 1080 1.000000;00:00:00.300=-4 416 1920 1080 1.000000</property>
    <property name="rotation">00:00:00.000=0;00:00:00.300=0</property>
    <property name="compositing">0</property>
    <property name="distort">0</property>
    <property name="kdenlive:collapsed">0</property>
   </filter>
  </entry>
  <blank length="00:00:09.833"/>
  <entry producer="producer214" in="00:00:05.900" out="00:00:07.167">
   <property name="kdenlive:id">50</property>
   <filter id="filter176">
    <property name="rotate_center">1</property>
    <property name="mlt_service">qtblend</property>
    <property name="kdenlive_id">qtblend</property>
    <property name="rect">00:00:05.900=0 0 1920 1080 1</property>
    <property name="rotation">00:00:05.900=166</property>
    <property name="compositing">0</property>
    <property name="distort">0</property>
    <property name="kdenlive:collapsed">0</property>
   </filter>
  </entry>
  <entry producer="producer214" in="00:00:07.200" out="00:00:09.600">
   <property name="kdenlive:id">50</property>
   <filter id="filter177">
    <property name="rotate_center">1</property>
    <property name="mlt_service">qtblend</property>
    <property name="kdenlive_id">qtblend</property>
    <property name="rect">00:00:07.200=0 0 1920 1080 1.000000</property>
    <property name="rotation">00:00:07.200=166</property>
    <property name="compositing">0</property>
    <property name="distort">0</property>
    <property name="kdenlive:collapsed">0</property>
   </filter>
   <filter id="filter178">
    <property name="mirror">vertical</property>
    <property name="mlt_service">mirror</property>
    <property name="kdenlive_id">mirror</property>
    <property name="reverse">1</property>
    <property name="kdenlive:collapsed">0</property>
   </filter>
  </entry>
  <entry producer="producer214" in="00:00:09.633" out="00:00:09.733">
   <property name="kdenlive:id">50</property>
   <filter id="filter179">
    <property name="rotate_center">1</property>
    <property name="mlt_service">qtblend</property>
    <property name="kdenlive_id">qtblend</property>
    <property name="rect">00:00:09.633=0 0 1920 1080 1.000000</property>
    <property name="rotation">00:00:09.633=166</property>
    <property name="compositing">0</property>
    <property name="distort">0</property>
    <property name="kdenlive:collapsed">0</property>
   </filter>
  </entry>
  <entry producer="producer214" in="00:00:09.767" out="00:00:19.800">
   <property name="kdenlive:id">50</property>
   <property name="kdenlive:activeeffect">1</property>
   <filter id="filter180">
    <property name="rotate_center">1</property>
    <property name="mlt_service">qtblend</property>
    <property name="kdenlive_id">qtblend</property>
    <property name="rect">00:00:09.767=0 0 1920 1080 1.000000;00:00:14.667=0 0 1920 1080 1.000000;00:00:14.700=0 0 1920 1080 1.000000;00:00:15.900=0 0 1920 1080 1.000000;00:00:15.933=0 0 1920 1080 1.000000;00:00:17.167=0 0 1920 1080 1.000000;00:00:17.200=0 0 1920 1080 1.000000;00:00:19.000=0 0 1920 1080 1.000000;00:00:19.033=0 0 1920 1080 1.000000;00:00:19.800=0 0 1920 1080 1.000000</property>
    <property name="rotation">00:00:09.767=133;00:00:14.667=-42.814;00:00:14.700=-42.814;00:00:15.900=-86.1519;00:00:15.933=-86.1519;00:00:17.167=-131.078;00:00:17.200=-131.078;00:00:19.000=-197.486;00:00:19.033=-197.486;00:00:19.800=-227</property>
    <property name="compositing">0</property>
    <property name="distort">0</property>
    <property name="kdenlive:collapsed">0</property>
   </filter>
   <filter id="filter181">
    <property name="rotate_center">1</property>
    <property name="mlt_service">qtblend</property>
    <property name="kdenlive_id">qtblend</property>
    <property name="rect">00:00:09.767~=0 0 1920 1080 1.000000;00:00:12.233~=0 0 1920 1080 1.000000;00:00:14.667~=-1211 -299 2880 1620 0.500000;00:00:14.700~=-1211 -299 2880 1620 0.500000;00:00:15.300=-1120 309 2880 1620 0.500000;00:00:15.900~=-568 523 2880 1620 0.500000;00:00:15.933~=-568 523 2880 1620 0.500000;00:00:16.533=-346 708 2880 1620 0.500000;00:00:17.167~=-163 717 2880 1620 0.500000;00:00:17.200~=-163 717 2880 1620 0.500000;00:00:18.033~=302 469 2936 1651 0.500000;00:00:19.000=425 -11 2880 1620 0.500000;00:00:19.033=425 -11 2880 1620 0.500000;00:00:19.800=0 0 1920 1080 0.500000</property>
    <property name="rotation">00:00:09.767~=0;00:00:12.233~=0;00:00:14.667~=0;00:00:14.700~=0;00:00:15.300=0;00:00:15.900~=0;00:00:15.933~=0;00:00:16.533=0;00:00:17.167~=0;00:00:17.200~=0;00:00:18.033~=0;00:00:19.000=0;00:00:19.033=0;00:00:19.800=0</property>
    <property name="compositing">0</property>
    <property name="distort">0</property>
    <property name="kdenlive:collapsed">0</property>
   </filter>
  </entry>
  <entry producer="producer215" in="00:00:11.067" out="00:00:20.633">
   <property name="kdenlive:id">50</property>
   <filter id="filter182">
    <property name="rotate_center">1</property>
    <property name="mlt_service">qtblend</property>
    <property name="kdenlive_id">qtblend</property>
    <property name="rect">00:00:11.067=0 0 1920 1080 1.000000;00:00:19.967=0 0 1920 1080 1.000000;00:00:20.633=0 0 1920 1080 1.000000</property>
    <property name="rotation">00:00:11.067=133;00:00:19.967=-280;00:00:20.633=-360</property>
    <property name="compositing">0</property>
    <property name="distort">0</property>
    <property name="kdenlive:collapsed">0</property>
   </filter>
   <filter id="filter183">
    <property name="rotate_center">1</property>
    <property name="mlt_service">qtblend</property>
    <property name="kdenlive_id">qtblend</property>
    <property name="rect">00:00:11.067|=0 0 1920 1080 1.000000;00:00:20.633=0 0 1920 1080 1.000000</property>
    <property name="rotation">00:00:11.067|=0;00:00:20.633=0</property>
    <property name="compositing">0</property>
    <property name="distort">0</property>
    <property name="kdenlive:collapsed">0</property>
   </filter>
  </entry>
  <blank length="00:02:29.800"/>
  <entry producer="producer80" in="00:00:00.000" out="00:00:06.233">
   <property name="kdenlive:id">111</property>
   <filter id="filter184">
    <property name="rotate_center">1</property>
    <property name="mlt_service">qtblend</property>
    <property name="kdenlive_id">qtblend</property>
    <property name="rect">00:00:00.000=-31 -633 2048 2048 1.000000;00:00:05.800=172 -141 1300 1300 1.000000</property>
    <property name="rotation">00:00:00.000=0;00:00:05.800=0</property>
    <property name="compositing">0</property>
    <property name="distort">1</property>
    <property name="kdenlive:collapsed">0</property>
   </filter>
   <filter id="filter185">
    <property name="lift_r">-0.274998</property>
    <property name="lift_g">-0.274998</property>
    <property name="lift_b">-0.274998</property>
    <property name="gamma_r">1.325</property>
    <property name="gamma_g">1.325</property>
    <property name="gamma_b">1.325</property>
    <property name="gain_r">1.25002</property>
    <property name="gain_g">1.25002</property>
    <property name="gain_b">1.25002</property>
    <property name="mlt_service">lift_gamma_gain</property>
    <property name="kdenlive_id">lift_gamma_gain</property>
    <property name="kdenlive:collapsed">0</property>
   </filter>
  </entry>
  <blank length="00:00:25.633"/>
  <entry producer="producer216" in="00:00:00.000" out="00:00:03.000">
   <property name="kdenlive:id">124</property>
   <property name="kdenlive:activeeffect">3</property>
   <filter id="filter186">
    <property name="rotate_center">1</property>
    <property name="mlt_service">qtblend</property>
    <property name="kdenlive_id">qtblend</property>
    <property name="rect">00:00:00.000=-495 0 1920 1080 1.000000</property>
    <property name="rotation">00:00:00.000=0</property>
    <property name="compositing">0</property>
    <property name="distort">0</property>
    <property name="kdenlive:collapsed">0</property>
   </filter>
   <filter id="filter187">
    <property name="mirror">horizontal</property>
    <property name="mlt_service">mirror</property>
    <property name="kdenlive_id">mirror</property>
    <property name="reverse">1</property>
    <property name="kdenlive:collapsed">0</property>
   </filter>
   <filter id="filter188">
    <property name="mlt_service">avfilter.unsharp</property>
    <property name="kdenlive_id">avfilter.unsharp</property>
    <property name="av.lx">5</property>
    <property name="av.ly">5</property>
    <property name="av.la">2</property>
    <property name="av.cx">5</property>
    <property name="av.cy">5</property>
    <property name="av.ca">1</property>
    <property name="kdenlive:collapsed">0</property>
   </filter>
   <filter id="filter189">
    <property name="lift_r">0.137514</property>
    <property name="lift_g">0.137514</property>
    <property name="lift_b">0.137514</property>
    <property name="gamma_r">0.824994</property>
    <property name="gamma_g">0.824994</property>
    <property name="gamma_b">0.824994</property>
    <property name="gain_r">1.30001</property>
    <property name="gain_g">1.30001</property>
    <property name="gain_b">1.30001</property>
    <property name="mlt_service">lift_gamma_gain</property>
    <property name="kdenlive_id">lift_gamma_gain</property>
    <property name="kdenlive:collapsed">0</property>
   </filter>
  </entry>
  <blank length="00:00:01.667"/>
  <entry producer="producer217" in="00:00:00.000" out="00:00:02.633">
   <property name="kdenlive:id">121</property>
   <property name="kdenlive:activeeffect">3</property>
   <filter id="filter190">
    <property name="rotate_center">1</property>
    <property name="mlt_service">qtblend</property>
    <property name="kdenlive_id">qtblend</property>
    <property name="rect">00:00:00.000=-495 0 1920 1080 1.000000</property>
    <property name="rotation">00:00:00.000=0</property>
    <property name="compositing">0</property>
    <property name="distort">0</property>
    <property name="kdenlive:collapsed">0</property>
   </filter>
   <filter id="filter191">
    <property name="mirror">horizontal</property>
    <property name="mlt_service">mirror</property>
    <property name="kdenlive_id">mirror</property>
    <property name="reverse">1</property>
    <property name="kdenlive:collapsed">0</property>
   </filter>
   <filter id="filter192">
    <property name="mlt_service">avfilter.unsharp</property>
    <property name="kdenlive_id">avfilter.unsharp</property>
    <property name="av.lx">5</property>
    <property name="av.ly">5</property>
    <property name="av.la">2</property>
    <property name="av.cx">5</property>
    <property name="av.cy">5</property>
    <property name="av.ca">1</property>
    <property name="kdenlive:collapsed">0</property>
   </filter>
   <filter id="filter193">
    <property name="lift_r">0.199985</property>
    <property name="lift_g">0.199985</property>
    <property name="lift_b">0.199985</property>
    <property name="gamma_r">0.887495</property>
    <property name="gamma_g">0.887495</property>
    <property name="gamma_b">0.887495</property>
    <property name="gain_r">1.42501</property>
    <property name="gain_g">1.42501</property>
    <property name="gain_b">1.42501</property>
    <property name="mlt_service">lift_gamma_gain</property>
    <property name="kdenlive_id">lift_gamma_gain</property>
    <property name="kdenlive:collapsed">0</property>
   </filter>
  </entry>
  <blank length="00:00:01.600"/>
  <entry producer="producer218" in="00:00:00.000" out="00:00:03.000">
   <property name="kdenlive:id">118</property>
   <filter id="filter194">
    <property name="rotate_center">1</property>
    <property name="mlt_service">qtblend</property>
    <property name="kdenlive_id">qtblend</property>
    <property name="rect">00:00:00.000=416 0 1920 1080 1.000000</property>
    <property name="rotation">00:00:00.000=0</property>
    <property name="compositing">0</property>
    <property name="distort">0</property>
    <property name="kdenlive:collapsed">0</property>
   </filter>
   <filter id="filter195">
    <property name="mirror">horizontal</property>
    <property name="mlt_service">mirror</property>
    <property name="kdenlive_id">mirror</property>
    <property name="reverse">0</property>
    <property name="kdenlive:collapsed">0</property>
   </filter>
   <filter id="filter196">
    <property name="mlt_service">avfilter.unsharp</property>
    <property name="kdenlive_id">avfilter.unsharp</property>
    <property name="av.lx">5</property>
    <property name="av.ly">5</property>
    <property name="av.la">2</property>
    <property name="av.cx">5</property>
    <property name="av.cy">5</property>
    <property name="av.ca">1</property>
    <property name="kdenlive:collapsed">0</property>
   </filter>
  </entry>
 </playlist>
 <playlist id="playlist15"/>
 <tractor id="tractor7" in="00:00:00.000" out="00:04:13.567">
  <property name="kdenlive:trackheight">69</property>
  <property name="kdenlive:timeline_active">1</property>
  <property name="kdenlive:collapsed">28</property>
  <property name="kdenlive:track_name">birds</property>
  <property name="kdenlive:thumbs_format"/>
  <property name="kdenlive:audio_rec"/>
  <track hide="audio" producer="playlist14"/>
  <track producer="playlist15"/>
 </tractor>
 <producer id="producer219" in="00:00:00.000" out="00:00:36.867">
  <property name="length">1109</property>
  <property name="eof">pause</property>
  <property name="resource">/home/ryankelln/.cache/kdenlive/proxy/b2be9f3e4ba5a4ff8901ca563d188491.mkv</property>
  <property name="audio_index">-1</property>
  <property name="video_index">0</property>
  <property name="mute_on_pause">0</property>
  <property name="mlt_service">avformat-novalidate</property>
  <property name="seekable">1</property>
  <property name="aspect_ratio">1</property>
  <property name="kdenlive:clipname">SeagullsCloseMaster_h264.mp4</property>
  <property name="kdenlive:folderid">55</property>
  <property name="kdenlive:id">50</property>
  <property name="kdenlive:file_size">49278582</property>
  <property name="kdenlive:file_hash">b2be9f3e4ba5a4ff8901ca563d188491</property>
  <property name="kdenlive:proxy">/home/ryankelln/.cache/kdenlive/proxy/b2be9f3e4ba5a4ff8901ca563d188491.mkv</property>
  <property name="kdenlive:originalurl">content/footage/SeagullsCloseMaster_h264.mp4</property>
  <property name="kdenlive:original.mlt_type">producer</property>
  <property name="kdenlive:original.in">0</property>
  <property name="kdenlive:original.out">1108</property>
  <property name="kdenlive:original.length">1109</property>
  <property name="kdenlive:original.eof">pause</property>
  <property name="kdenlive:original.resource">content/footage/SeagullsCloseMaster_h264.mp4</property>
  <property name="kdenlive:original.meta.media.nb_streams">1</property>
  <property name="kdenlive:original.meta.media.0.stream.type">video</property>
  <property name="kdenlive:original.meta.media.0.stream.frame_rate">23.976</property>
  <property name="kdenlive:original.meta.media.0.stream.sample_aspect_ratio">0</property>
  <property name="kdenlive:original.meta.media.0.codec.width">1920</property>
  <property name="kdenlive:original.meta.media.0.codec.height">1080</property>
  <property name="kdenlive:original.meta.media.0.codec.rotate">0</property>
  <property name="kdenlive:original.meta.media.0.codec.frame_rate">23.976</property>
  <property name="kdenlive:original.meta.media.0.codec.pix_fmt">yuv420p</property>
  <property name="kdenlive:original.meta.media.0.codec.sample_aspect_ratio">1</property>
  <property name="kdenlive:original.meta.media.0.codec.colorspace">709</property>
  <property name="kdenlive:original.meta.media.0.codec.name">h264</property>
  <property name="kdenlive:original.meta.media.0.codec.long_name">H.264 / AVC / MPEG-4 AVC / MPEG-4 part 10</property>
  <property name="kdenlive:original.meta.media.0.codec.bit_rate">10664727</property>
  <property name="kdenlive:original.meta.attr.0.stream.creation_time.markup">2013-11-30T22:42:06.000000Z</property>
  <property name="kdenlive:original.meta.attr.0.stream.language.markup">eng</property>
  <property name="kdenlive:original.meta.attr.0.stream.handler_name.markup">Mainconcept MP4 Video Media Handler</property>
  <property name="kdenlive:original.meta.attr.0.stream.encoder.markup">AVC Coding</property>
  <property name="kdenlive:original.meta.attr.major_brand.markup">mp42</property>
  <property name="kdenlive:original.meta.attr.minor_version.markup">0</property>
  <property name="kdenlive:original.meta.attr.compatible_brands.markup">mp42mp41</property>
  <property name="kdenlive:original.meta.attr.creation_time.markup">2013-11-30T22:42:06.000000Z</property>
  <property name="kdenlive:original.seekable">1</property>
  <property name="kdenlive:original.width">1920</property>
  <property name="kdenlive:original.height">1080</property>
  <property name="kdenlive:original.meta.media.sample_aspect_num">1</property>
  <property name="kdenlive:original.meta.media.sample_aspect_den">1</property>
  <property name="kdenlive:original.aspect_ratio">1</property>
  <property name="kdenlive:original.audio_index">-1</property>
  <property name="kdenlive:original.video_index">0</property>
  <property name="kdenlive:original.mute_on_pause">0</property>
  <property name="kdenlive:original.mlt_service">avformat-novalidate</property>
  <property name="kdenlive:original.kdenlive:folderid">55</property>
  <property name="kdenlive:original.meta.media.frame_rate_num">2997</property>
  <property name="kdenlive:original.meta.media.frame_rate_den">125</property>
  <property name="kdenlive:original.meta.media.colorspace">709</property>
  <property name="kdenlive:original.meta.media.color_trc">2</property>
  <property name="kdenlive:original.meta.media.width">1920</property>
  <property name="kdenlive:original.meta.media.height">1080</property>
  <property name="kdenlive:original.meta.media.color_range">mpeg</property>
  <property name="kdenlive:original.kdenlive:id">60</property>
  <property name="kdenlive:original.kdenlive:file_size">49278582</property>
  <property name="kdenlive:original.kdenlive:file_hash">b2be9f3e4ba5a4ff8901ca563d188491</property>
  <property name="kdenlive:original.backup">1</property>
  <property name="global_feed">1</property>
  <property name="xml">was here</property>
  <property name="meta.media.nb_streams">1</property>
  <property name="meta.media.0.stream.type">video</property>
  <property name="meta.media.0.stream.frame_rate">23.976</property>
  <property name="meta.media.0.stream.sample_aspect_ratio">1</property>
  <property name="meta.media.0.codec.width">640</property>
  <property name="meta.media.0.codec.height">360</property>
  <property name="meta.media.0.codec.rotate">0</property>
  <property name="meta.media.0.codec.frame_rate">1000</property>
  <property name="meta.media.0.codec.pix_fmt">yuvj420p</property>
  <property name="meta.media.0.codec.sample_aspect_ratio">1</property>
  <property name="meta.media.0.codec.colorspace">601</property>
  <property name="meta.media.0.codec.name">mjpeg</property>
  <property name="meta.media.0.codec.long_name">MJPEG (Motion JPEG)</property>
  <property name="meta.media.0.codec.bit_rate">0</property>
  <property name="meta.attr.0.stream.language.markup">eng</property>
  <property name="meta.attr.0.stream.HANDLER_NAME.markup">Mainconcept MP4 Video Media Handler</property>
  <property name="meta.attr.0.stream.ENCODER.markup">Lavc58.91.100 mjpeg</property>
  <property name="meta.attr.0.stream.DURATION.markup">00:00:36.912000000</property>
  <property name="meta.attr.COMPATIBLE_BRANDS.markup">mp42mp41</property>
  <property name="meta.attr.MAJOR_BRAND.markup">mp42</property>
  <property name="meta.attr.MINOR_VERSION.markup">0</property>
  <property name="meta.attr.ENCODER.markup">Lavf58.45.100</property>
  <property name="meta.media.sample_aspect_num">1</property>
  <property name="meta.media.sample_aspect_den">1</property>
  <property name="meta.media.frame_rate_num">2997</property>
  <property name="meta.media.frame_rate_den">125</property>
  <property name="meta.media.colorspace">601</property>
  <property name="meta.media.color_trc">2</property>
  <property name="meta.media.width">640</property>
  <property name="meta.media.height">360</property>
  <property name="meta.media.color_range">full</property>
  <property name="meta.media.top_field_first">0</property>
  <property name="meta.media.progressive">1</property>
  <property name="set.test_audio">1</property>
  <property name="set.test_image">0</property>
 </producer>
 <producer id="producer220" in="00:00:00.000" out="00:00:20.633">
  <property name="length">621</property>
  <property name="eof">pause</property>
  <property name="resource">1.784722:/home/ryankelln/.cache/kdenlive/proxy/b2be9f3e4ba5a4ff8901ca563d188491.mkv</property>
  <property name="aspect_ratio">1</property>
  <property name="meta.media.nb_streams">1</property>
  <property name="meta.media.0.stream.type">video</property>
  <property name="meta.media.0.stream.frame_rate">23.976</property>
  <property name="meta.media.0.stream.sample_aspect_ratio">1</property>
  <property name="meta.media.0.codec.width">640</property>
  <property name="meta.media.0.codec.height">360</property>
  <property name="meta.media.0.codec.rotate">0</property>
  <property name="meta.media.0.codec.frame_rate">1000</property>
  <property name="meta.media.0.codec.pix_fmt">yuvj420p</property>
  <property name="meta.media.0.codec.sample_aspect_ratio">1</property>
  <property name="meta.media.0.codec.colorspace">601</property>
  <property name="meta.media.0.codec.name">mjpeg</property>
  <property name="meta.media.0.codec.long_name">MJPEG (Motion JPEG)</property>
  <property name="meta.media.0.codec.bit_rate">0</property>
  <property name="meta.attr.0.stream.language.markup">eng</property>
  <property name="meta.attr.0.stream.HANDLER_NAME.markup">Mainconcept MP4 Video Media Handler</property>
  <property name="meta.attr.0.stream.ENCODER.markup">Lavc58.91.100 mjpeg</property>
  <property name="meta.attr.0.stream.DURATION.markup">00:00:36.912000000</property>
  <property name="meta.attr.COMPATIBLE_BRANDS.markup">mp42mp41</property>
  <property name="meta.attr.MAJOR_BRAND.markup">mp42</property>
  <property name="meta.attr.MINOR_VERSION.markup">0</property>
  <property name="meta.attr.ENCODER.markup">Lavf58.45.100</property>
  <property name="seekable">1</property>
  <property name="meta.media.sample_aspect_num">1</property>
  <property name="meta.media.sample_aspect_den">1</property>
  <property name="audio_index">-1</property>
  <property name="video_index">0</property>
  <property name="mute_on_pause">1</property>
  <property name="warp_speed">1.78472</property>
  <property name="warp_resource">/home/ryankelln/.cache/kdenlive/proxy/b2be9f3e4ba5a4ff8901ca563d188491.mkv</property>
  <property name="mlt_service">timewarp</property>
  <property name="kdenlive:proxy">/home/ryankelln/.cache/kdenlive/proxy/b2be9f3e4ba5a4ff8901ca563d188491.mkv</property>
  <property name="kdenlive:originalurl">content/footage/SeagullsCloseMaster_h264.mp4</property>
  <property name="set.test_audio">1</property>
  <property name="set.test_image">0</property>
  <property name="kdenlive:id">50</property>
  <property name="warp_pitch">0</property>
  <property name="meta.media.frame_rate_num">2997</property>
  <property name="meta.media.frame_rate_den">125</property>
  <property name="meta.media.colorspace">601</property>
  <property name="meta.media.color_trc">2</property>
  <property name="meta.media.width">640</property>
  <property name="meta.media.height">360</property>
  <property name="meta.media.color_range">full</property>
  <property name="meta.media.top_field_first">0</property>
  <property name="meta.media.progressive">1</property>
 </producer>
 <playlist id="playlist16">
  <blank length="00:00:40.233"/>
  <entry producer="producer219" in="00:00:09.767" out="00:00:19.800">
   <property name="kdenlive:id">50</property>
   <property name="kdenlive:activeeffect">1</property>
   <filter id="filter197">
    <property name="rotate_center">1</property>
    <property name="mlt_service">qtblend</property>
    <property name="kdenlive_id">qtblend</property>
    <property name="rect">00:00:09.767=0 0 1920 1080 1.000000;00:00:13.700=0 0 1920 1080 1.000000;00:00:14.667=0 0 1920 1080 1.000000;00:00:14.700=0 0 1920 1080 1.000000;00:00:15.900=0 0 1920 1080 1.000000;00:00:15.933=0 0 1920 1080 1.000000;00:00:17.167=0 0 1920 1080 1.000000;00:00:17.200=0 0 1920 1080 1.000000;00:00:19.000=0 0 1920 1080 1.000000;00:00:19.033=0 0 1920 1080 1.000000;00:00:19.800=0 0 1920 1080 1.000000</property>
    <property name="rotation">00:00:09.767=166;00:00:13.700=8;00:00:14.667=-16;00:00:14.700=-16;00:00:15.900=-54.0664;00:00:15.933=-54.0664;00:00:17.167=-91;00:00:17.200=-91;00:00:19.000=-168;00:00:19.033=-168;00:00:19.800=-194</property>
    <property name="compositing">0</property>
    <property name="distort">0</property>
    <property name="kdenlive:collapsed">0</property>
   </filter>
   <filter id="filter198">
    <property name="rotate_center">1</property>
    <property name="mlt_service">qtblend</property>
    <property name="kdenlive_id">qtblend</property>
    <property name="rect">00:00:09.767~=0 0 1920 1080 1.000000;00:00:12.233~=0 0 1920 1080 1.000000;00:00:14.667~=-1195 -572 2880 1620 0.500000;00:00:14.700~=-1195 -572 2880 1620 0.500000;00:00:15.300~=-1308 -87 2880 1620 0.500000;00:00:15.900~=-733 274 2880 1620 0.500000;00:00:15.933~=-733 274 2880 1620 0.500000;00:00:16.533=-748 491 2880 1620 0.500000;00:00:17.167~=-563 630 2880 1620 0.500000;00:00:17.200~=-563 630 2880 1620 0.500000;00:00:17.967~=-254 765 2931 1649 0.470000;00:00:19.000~=240 447 2880 1621 0.500000;00:00:19.033~=240 447 2880 1621 0.500000;00:00:19.800=0 0 1920 1080 1.000000</property>
    <property name="rotation">00:00:09.767~=0;00:00:12.233~=0;00:00:14.667~=0;00:00:14.700~=0;00:00:15.300~=0;00:00:15.900~=0;00:00:15.933~=0;00:00:16.533=0;00:00:17.167~=0;00:00:17.200~=0;00:00:17.967~=0;00:00:19.000~=0;00:00:19.033~=0;00:00:19.800=0</property>
    <property name="compositing">0</property>
    <property name="distort">0</property>
    <property name="kdenlive:collapsed">0</property>
   </filter>
  </entry>
  <entry producer="producer220" in="00:00:11.067" out="00:00:20.633">
   <property name="kdenlive:id">50</property>
   <filter id="filter199">
    <property name="rotate_center">1</property>
    <property name="mlt_service">qtblend</property>
    <property name="kdenlive_id">qtblend</property>
    <property name="rect">00:00:11.067=0 0 1920 1080 1.000000;00:00:19.967=0 0 1920 1080 1.000000;00:00:20.633=0 0 1920 1080 1.000000</property>
    <property name="rotation">00:00:11.067=166;00:00:19.967=-260;00:00:20.633=-360</property>
    <property name="compositing">0</property>
    <property name="distort">0</property>
    <property name="kdenlive:collapsed">0</property>
   </filter>
   <filter id="filter200">
    <property name="rotate_center">1</property>
    <property name="mlt_service">qtblend</property>
    <property name="kdenlive_id">qtblend</property>
    <property name="rect">00:00:11.067|=0 0 1920 1080 1.000000;00:00:20.633=0 0 1920 1080 1.000000</property>
    <property name="rotation">00:00:11.067|=0;00:00:20.633=0</property>
    <property name="compositing">0</property>
    <property name="distort">0</property>
    <property name="kdenlive:collapsed">0</property>
   </filter>
  </entry>
 </playlist>
 <playlist id="playlist17"/>
 <tractor id="tractor8" in="00:00:00.000" out="00:00:59.867">
  <property name="kdenlive:trackheight">69</property>
  <property name="kdenlive:timeline_active">1</property>
  <property name="kdenlive:collapsed">28</property>
  <property name="kdenlive:track_name">birds2</property>
  <property name="kdenlive:thumbs_format"/>
  <property name="kdenlive:audio_rec"/>
  <track hide="audio" producer="playlist16"/>
  <track producer="playlist17"/>
 </tractor>
 <producer id="producer221" in="00:00:00.000" out="00:04:01.167">
  <property name="length">7236</property>
  <property name="eof">pause</property>
  <property name="resource">content/musicians/2021-06-02_Sarah_kit_jackson_00044-take3_beginning_to_G.mp4</property>
  <property name="audio_index">1</property>
  <property name="video_index">0</property>
  <property name="mute_on_pause">0</property>
  <property name="mlt_service">avformat-novalidate</property>
  <property name="seekable">1</property>
  <property name="aspect_ratio">1.33333</property>
  <property name="kdenlive:clipname"/>
  <property name="kdenlive:folderid">41</property>
  <property name="kdenlive:id">29</property>
  <property name="kdenlive:file_size">209721648</property>
  <property name="kdenlive:file_hash">27cbe5fe6ae8eb25dca72f7e74c3b880</property>
  <property name="kdenlive:audio_max">1</property>
  <property name="global_feed">1</property>
  <property name="kdenlive:activeeffect">1</property>
  <property name="xml">was here</property>
  <property name="meta.media.nb_streams">2</property>
  <property name="meta.media.0.stream.type">video</property>
  <property name="meta.media.0.stream.frame_rate">59.9401</property>
  <property name="meta.media.0.stream.sample_aspect_ratio">1.33333</property>
  <property name="meta.media.0.codec.width">1440</property>
  <property name="meta.media.0.codec.height">1080</property>
  <property name="meta.media.0.codec.rotate">0</property>
  <property name="meta.media.0.codec.frame_rate">29.97</property>
  <property name="meta.media.0.codec.pix_fmt">yuv420p</property>
  <property name="meta.media.0.codec.sample_aspect_ratio">1.33333</property>
  <property name="meta.media.0.codec.colorspace">709</property>
  <property name="meta.media.0.codec.name">h264</property>
  <property name="meta.media.0.codec.long_name">H.264 / AVC / MPEG-4 AVC / MPEG-4 part 10</property>
  <property name="meta.media.0.codec.bit_rate">6691040</property>
  <property name="meta.attr.0.stream.handler_name.markup">VideoHandler</property>
  <property name="meta.media.1.stream.type">audio</property>
  <property name="meta.media.1.codec.sample_fmt">fltp</property>
  <property name="meta.media.1.codec.sample_rate">48000</property>
  <property name="meta.media.1.codec.channels">2</property>
  <property name="meta.media.1.codec.name">ac3</property>
  <property name="meta.media.1.codec.long_name">ATSC A/52A (AC-3)</property>
  <property name="meta.media.1.codec.bit_rate">256000</property>
  <property name="meta.attr.1.stream.handler_name.markup">SoundHandler</property>
  <property name="meta.attr.major_brand.markup">isom</property>
  <property name="meta.attr.minor_version.markup">512</property>
  <property name="meta.attr.compatible_brands.markup">isomiso2avc1mp41</property>
  <property name="meta.attr.encoder.markup">Lavf58.45.100</property>
  <property name="meta.media.sample_aspect_num">4</property>
  <property name="meta.media.sample_aspect_den">3</property>
  <property name="meta.media.frame_rate_num">260226000</property>
  <property name="meta.media.frame_rate_den">4341437</property>
  <property name="meta.media.colorspace">709</property>
  <property name="meta.media.color_trc">2</property>
  <property name="meta.media.width">1440</property>
  <property name="meta.media.height">1080</property>
  <property name="meta.media.color_range">mpeg</property>
  <property name="meta.media.top_field_first">1</property>
  <property name="meta.media.progressive">0</property>
  <property name="set.test_audio">1</property>
  <property name="set.test_image">1</property>
  <filter id="filter201">
   <property name="version">0.1</property>
   <property name="mlt_service">frei0r.hqdn3d</property>
   <property name="kdenlive_id">frei0r.hqdn3d</property>
   <property name="Spatial">00:00:00.000=0.01</property>
   <property name="Temporal">00:00:00.000=0.01</property>
   <property name="kdenlive:collapsed">0</property>
  </filter>
  <filter id="filter202">
   <property name="version">0.6</property>
   <property name="mlt_service">frei0r.select0r</property>
   <property name="kdenlive_id">frei0r.select0r</property>
   <property name="Color to select">0x3b9550ff</property>
   <property name="Invert selection">1</property>
   <property name="Selection subspace">1</property>
   <property name="Subspace shape">0</property>
   <property name="Edge mode">0.9</property>
   <property name="Delta R / A / Hue">00:00:00.000=0.03</property>
   <property name="Delta G / B / Chroma">00:00:00.000=0.165</property>
   <property name="Delta B / I / I">00:00:00.000=0.4</property>
   <property name="Slope">00:00:00.000=0.245</property>
   <property name="Operation">0.5</property>
   <property name="kdenlive:collapsed">0</property>
  </filter>
  <filter id="filter203">
   <property name="mlt_service">avfilter.despill</property>
   <property name="kdenlive_id">avfilter.despill</property>
   <property name="av.type">green</property>
   <property name="av.mix">0.302</property>
   <property name="av.expand">0.035</property>
   <property name="av.red">0</property>
   <property name="av.green">-1</property>
   <property name="av.blue">0</property>
   <property name="av.brightness">0</property>
   <property name="kdenlive:collapsed">0</property>
  </filter>
  <filter id="filter204">
   <property name="version">0.1</property>
   <property name="mlt_service">frei0r.hqdn3d</property>
   <property name="kdenlive_id">frei0r.hqdn3d</property>
   <property name="Spatial">00:00:00.000=0.01</property>
   <property name="Temporal">00:00:00.000=0.01</property>
  </filter>
  <filter id="filter205">
   <property name="version">0.6</property>
   <property name="mlt_service">frei0r.select0r</property>
   <property name="kdenlive_id">frei0r.select0r</property>
   <property name="Color to select">0x3b9550ff</property>
   <property name="Invert selection">1</property>
   <property name="Selection subspace">1</property>
   <property name="Subspace shape">0</property>
   <property name="Edge mode">0.9</property>
   <property name="Delta R / A / Hue">00:00:00.000=0.03</property>
   <property name="Delta G / B / Chroma">00:00:00.000=0.165</property>
   <property name="Delta B / I / I">00:00:00.000=0.4</property>
   <property name="Slope">00:00:00.000=0.245</property>
   <property name="Operation">0.5</property>
  </filter>
  <filter id="filter206">
   <property name="mlt_service">avfilter.despill</property>
   <property name="kdenlive_id">avfilter.despill</property>
   <property name="av.type">green</property>
   <property name="av.mix">0.302</property>
   <property name="av.expand">0.035</property>
   <property name="av.red">0</property>
   <property name="av.green">-1</property>
   <property name="av.blue">0</property>
   <property name="av.brightness">0</property>
  </filter>
 </producer>
 <producer id="producer222" in="00:00:00.000" out="00:04:01.167">
  <property name="length">7236</property>
  <property name="eof">pause</property>
  <property name="resource">content/musicians/2021-06-02_Sarah_kit_jackson_00044-take3_beginning_to_G.mp4</property>
  <property name="audio_index">1</property>
  <property name="video_index">0</property>
  <property name="mute_on_pause">0</property>
  <property name="mlt_service">avformat-novalidate</property>
  <property name="seekable">1</property>
  <property name="aspect_ratio">1.33333</property>
  <property name="kdenlive:clipname"/>
  <property name="kdenlive:folderid">41</property>
  <property name="kdenlive:id">29</property>
  <property name="kdenlive:file_size">209721648</property>
  <property name="kdenlive:file_hash">27cbe5fe6ae8eb25dca72f7e74c3b880</property>
  <property name="kdenlive:audio_max">1</property>
  <property name="global_feed">1</property>
  <property name="kdenlive:activeeffect">1</property>
  <property name="xml">was here</property>
  <property name="meta.media.nb_streams">2</property>
  <property name="meta.media.0.stream.type">video</property>
  <property name="meta.media.0.stream.frame_rate">59.9401</property>
  <property name="meta.media.0.stream.sample_aspect_ratio">1.33333</property>
  <property name="meta.media.0.codec.width">1440</property>
  <property name="meta.media.0.codec.height">1080</property>
  <property name="meta.media.0.codec.rotate">0</property>
  <property name="meta.media.0.codec.frame_rate">29.97</property>
  <property name="meta.media.0.codec.pix_fmt">yuv420p</property>
  <property name="meta.media.0.codec.sample_aspect_ratio">1.33333</property>
  <property name="meta.media.0.codec.colorspace">709</property>
  <property name="meta.media.0.codec.name">h264</property>
  <property name="meta.media.0.codec.long_name">H.264 / AVC / MPEG-4 AVC / MPEG-4 part 10</property>
  <property name="meta.media.0.codec.bit_rate">6691040</property>
  <property name="meta.attr.0.stream.handler_name.markup">VideoHandler</property>
  <property name="meta.media.1.stream.type">audio</property>
  <property name="meta.media.1.codec.sample_fmt">fltp</property>
  <property name="meta.media.1.codec.sample_rate">48000</property>
  <property name="meta.media.1.codec.channels">2</property>
  <property name="meta.media.1.codec.name">ac3</property>
  <property name="meta.media.1.codec.long_name">ATSC A/52A (AC-3)</property>
  <property name="meta.media.1.codec.bit_rate">256000</property>
  <property name="meta.attr.1.stream.handler_name.markup">SoundHandler</property>
  <property name="meta.attr.major_brand.markup">isom</property>
  <property name="meta.attr.minor_version.markup">512</property>
  <property name="meta.attr.compatible_brands.markup">isomiso2avc1mp41</property>
  <property name="meta.attr.encoder.markup">Lavf58.45.100</property>
  <property name="meta.media.sample_aspect_num">4</property>
  <property name="meta.media.sample_aspect_den">3</property>
  <property name="meta.media.frame_rate_num">260226000</property>
  <property name="meta.media.frame_rate_den">4341437</property>
  <property name="meta.media.colorspace">709</property>
  <property name="meta.media.color_trc">2</property>
  <property name="meta.media.width">1440</property>
  <property name="meta.media.height">1080</property>
  <property name="meta.media.color_range">mpeg</property>
  <property name="meta.media.top_field_first">1</property>
  <property name="meta.media.progressive">0</property>
  <property name="set.test_audio">1</property>
  <property name="set.test_image">0</property>
  <filter id="filter207">
   <property name="version">0.1</property>
   <property name="mlt_service">frei0r.hqdn3d</property>
   <property name="kdenlive_id">frei0r.hqdn3d</property>
   <property name="Spatial">00:00:00.000=0.01</property>
   <property name="Temporal">00:00:00.000=0.01</property>
  </filter>
  <filter id="filter208">
   <property name="version">0.6</property>
   <property name="mlt_service">frei0r.select0r</property>
   <property name="kdenlive_id">frei0r.select0r</property>
   <property name="Color to select">0x3b9550ff</property>
   <property name="Invert selection">1</property>
   <property name="Selection subspace">1</property>
   <property name="Subspace shape">0</property>
   <property name="Edge mode">0.9</property>
   <property name="Delta R / A / Hue">00:00:00.000=0.03</property>
   <property name="Delta G / B / Chroma">00:00:00.000=0.165</property>
   <property name="Delta B / I / I">00:00:00.000=0.4</property>
   <property name="Slope">00:00:00.000=0.245</property>
   <property name="Operation">0.5</property>
  </filter>
  <filter id="filter209">
   <property name="mlt_service">avfilter.despill</property>
   <property name="kdenlive_id">avfilter.despill</property>
   <property name="av.type">green</property>
   <property name="av.mix">0.302</property>
   <property name="av.expand">0.035</property>
   <property name="av.red">0</property>
   <property name="av.green">-1</property>
   <property name="av.blue">0</property>
   <property name="av.brightness">0</property>
  </filter>
 </producer>
 <producer id="producer223" in="00:00:00.000" out="00:04:59.600">
  <property name="length">8989</property>
  <property name="eof">pause</property>
  <property name="resource">content/musicians/2021-06-02_Sarah_kit_jackson_00044-take2_full.mp4</property>
  <property name="audio_index">1</property>
  <property name="video_index">0</property>
  <property name="mute_on_pause">0</property>
  <property name="mlt_service">avformat-novalidate</property>
  <property name="seekable">1</property>
  <property name="aspect_ratio">1.33333</property>
  <property name="kdenlive:clipname"/>
  <property name="kdenlive:folderid">41</property>
  <property name="kdenlive:id">28</property>
  <property name="kdenlive:file_size">257931537</property>
  <property name="kdenlive:file_hash">ff3bd44778d338f50fcad09f449b2a77</property>
  <property name="kdenlive:audio_max">1</property>
  <property name="global_feed">1</property>
  <property name="kdenlive:zone_in">3015</property>
  <property name="kdenlive:zone_out">8989</property>
  <property name="xml">was here</property>
  <property name="meta.media.nb_streams">2</property>
  <property name="meta.media.0.stream.type">video</property>
  <property name="meta.media.0.stream.frame_rate">59.9401</property>
  <property name="meta.media.0.stream.sample_aspect_ratio">1.33333</property>
  <property name="meta.media.0.codec.width">1440</property>
  <property name="meta.media.0.codec.height">1080</property>
  <property name="meta.media.0.codec.rotate">0</property>
  <property name="meta.media.0.codec.frame_rate">29.97</property>
  <property name="meta.media.0.codec.pix_fmt">yuv420p</property>
  <property name="meta.media.0.codec.sample_aspect_ratio">1.33333</property>
  <property name="meta.media.0.codec.colorspace">709</property>
  <property name="meta.media.0.codec.name">h264</property>
  <property name="meta.media.0.codec.long_name">H.264 / AVC / MPEG-4 AVC / MPEG-4 part 10</property>
  <property name="meta.media.0.codec.bit_rate">6627618</property>
  <property name="meta.attr.0.stream.handler_name.markup">VideoHandler</property>
  <property name="meta.media.1.stream.type">audio</property>
  <property name="meta.media.1.codec.sample_fmt">fltp</property>
  <property name="meta.media.1.codec.sample_rate">48000</property>
  <property name="meta.media.1.codec.channels">2</property>
  <property name="meta.media.1.codec.name">ac3</property>
  <property name="meta.media.1.codec.long_name">ATSC A/52A (AC-3)</property>
  <property name="meta.media.1.codec.bit_rate">256000</property>
  <property name="meta.attr.1.stream.handler_name.markup">SoundHandler</property>
  <property name="meta.attr.major_brand.markup">isom</property>
  <property name="meta.attr.minor_version.markup">512</property>
  <property name="meta.attr.compatible_brands.markup">isomiso2avc1mp41</property>
  <property name="meta.attr.encoder.markup">Lavf58.45.100</property>
  <property name="meta.media.sample_aspect_num">4</property>
  <property name="meta.media.sample_aspect_den">3</property>
  <property name="meta.media.frame_rate_num">60000</property>
  <property name="meta.media.frame_rate_den">1001</property>
  <property name="meta.media.colorspace">709</property>
  <property name="meta.media.color_trc">2</property>
  <property name="meta.media.width">1440</property>
  <property name="meta.media.height">1080</property>
  <property name="meta.media.color_range">mpeg</property>
  <property name="meta.media.top_field_first">1</property>
  <property name="meta.media.progressive">0</property>
  <property name="set.test_audio">1</property>
  <property name="set.test_image">1</property>
 </producer>
 <producer id="producer224" in="00:00:00.000" out="00:01:18.333">
  <property name="length">2351</property>
  <property name="eof">pause</property>
  <property name="resource">content/musicians/2021-06-02_Sarah_kit_jackson_00045-take_unknown_m44_unknown.mp4</property>
  <property name="audio_index">1</property>
  <property name="video_index">0</property>
  <property name="mute_on_pause">0</property>
  <property name="mlt_service">avformat-novalidate</property>
  <property name="seekable">1</property>
  <property name="aspect_ratio">1.33333</property>
  <property name="kdenlive:clipname"/>
  <property name="kdenlive:folderid">41</property>
  <property name="kdenlive:id">31</property>
  <property name="kdenlive:file_size">68164154</property>
  <property name="kdenlive:file_hash">d19e7a627a68bad77bbd94b3ff174441</property>
  <property name="kdenlive:audio_max">1</property>
  <property name="global_feed">1</property>
  <property name="xml">was here</property>
  <property name="meta.media.nb_streams">2</property>
  <property name="meta.media.0.stream.type">video</property>
  <property name="meta.media.0.stream.frame_rate">59.9401</property>
  <property name="meta.media.0.stream.sample_aspect_ratio">1.33333</property>
  <property name="meta.media.0.codec.width">1440</property>
  <property name="meta.media.0.codec.height">1080</property>
  <property name="meta.media.0.codec.rotate">0</property>
  <property name="meta.media.0.codec.frame_rate">29.97</property>
  <property name="meta.media.0.codec.pix_fmt">yuv420p</property>
  <property name="meta.media.0.codec.sample_aspect_ratio">1.33333</property>
  <property name="meta.media.0.codec.colorspace">709</property>
  <property name="meta.media.0.codec.name">h264</property>
  <property name="meta.media.0.codec.long_name">H.264 / AVC / MPEG-4 AVC / MPEG-4 part 10</property>
  <property name="meta.media.0.codec.bit_rate">6697462</property>
  <property name="meta.attr.0.stream.handler_name.markup">VideoHandler</property>
  <property name="meta.media.1.stream.type">audio</property>
  <property name="meta.media.1.codec.sample_fmt">fltp</property>
  <property name="meta.media.1.codec.sample_rate">48000</property>
  <property name="meta.media.1.codec.channels">2</property>
  <property name="meta.media.1.codec.name">ac3</property>
  <property name="meta.media.1.codec.long_name">ATSC A/52A (AC-3)</property>
  <property name="meta.media.1.codec.bit_rate">256000</property>
  <property name="meta.attr.1.stream.handler_name.markup">SoundHandler</property>
  <property name="meta.attr.major_brand.markup">isom</property>
  <property name="meta.attr.minor_version.markup">512</property>
  <property name="meta.attr.compatible_brands.markup">isomiso2avc1mp41</property>
  <property name="meta.attr.encoder.markup">Lavf58.45.100</property>
  <property name="meta.media.sample_aspect_num">4</property>
  <property name="meta.media.sample_aspect_den">3</property>
  <property name="meta.media.frame_rate_num">60000</property>
  <property name="meta.media.frame_rate_den">1001</property>
  <property name="meta.media.colorspace">709</property>
  <property name="meta.media.color_trc">2</property>
  <property name="meta.media.width">1440</property>
  <property name="meta.media.height">1080</property>
  <property name="meta.media.color_range">mpeg</property>
  <property name="meta.media.top_field_first">1</property>
  <property name="meta.media.progressive">0</property>
  <property name="set.test_audio">1</property>
  <property name="set.test_image">1</property>
 </producer>
 <producer id="producer225" in="00:00:00.000" out="00:01:18.333">
  <property name="length">2351</property>
  <property name="eof">pause</property>
  <property name="resource">content/musicians/2021-06-02_Sarah_kit_jackson_00045-take_unknown_m44_unknown.mp4</property>
  <property name="audio_index">1</property>
  <property name="video_index">0</property>
  <property name="mute_on_pause">0</property>
  <property name="mlt_service">avformat-novalidate</property>
  <property name="seekable">1</property>
  <property name="aspect_ratio">1.33333</property>
  <property name="kdenlive:clipname"/>
  <property name="kdenlive:folderid">41</property>
  <property name="kdenlive:id">31</property>
  <property name="kdenlive:file_size">68164154</property>
  <property name="kdenlive:file_hash">d19e7a627a68bad77bbd94b3ff174441</property>
  <property name="kdenlive:audio_max">1</property>
  <property name="global_feed">1</property>
  <property name="xml">was here</property>
  <property name="meta.media.nb_streams">2</property>
  <property name="meta.media.0.stream.type">video</property>
  <property name="meta.media.0.stream.frame_rate">59.9401</property>
  <property name="meta.media.0.stream.sample_aspect_ratio">1.33333</property>
  <property name="meta.media.0.codec.width">1440</property>
  <property name="meta.media.0.codec.height">1080</property>
  <property name="meta.media.0.codec.rotate">0</property>
  <property name="meta.media.0.codec.frame_rate">29.97</property>
  <property name="meta.media.0.codec.pix_fmt">yuv420p</property>
  <property name="meta.media.0.codec.sample_aspect_ratio">1.33333</property>
  <property name="meta.media.0.codec.colorspace">709</property>
  <property name="meta.media.0.codec.name">h264</property>
  <property name="meta.media.0.codec.long_name">H.264 / AVC / MPEG-4 AVC / MPEG-4 part 10</property>
  <property name="meta.media.0.codec.bit_rate">6697462</property>
  <property name="meta.attr.0.stream.handler_name.markup">VideoHandler</property>
  <property name="meta.media.1.stream.type">audio</property>
  <property name="meta.media.1.codec.sample_fmt">fltp</property>
  <property name="meta.media.1.codec.sample_rate">48000</property>
  <property name="meta.media.1.codec.channels">2</property>
  <property name="meta.media.1.codec.name">ac3</property>
  <property name="meta.media.1.codec.long_name">ATSC A/52A (AC-3)</property>
  <property name="meta.media.1.codec.bit_rate">256000</property>
  <property name="meta.attr.1.stream.handler_name.markup">SoundHandler</property>
  <property name="meta.attr.major_brand.markup">isom</property>
  <property name="meta.attr.minor_version.markup">512</property>
  <property name="meta.attr.compatible_brands.markup">isomiso2avc1mp41</property>
  <property name="meta.attr.encoder.markup">Lavf58.45.100</property>
  <property name="meta.media.sample_aspect_num">4</property>
  <property name="meta.media.sample_aspect_den">3</property>
  <property name="meta.media.frame_rate_num">60000</property>
  <property name="meta.media.frame_rate_den">1001</property>
  <property name="meta.media.colorspace">709</property>
  <property name="meta.media.color_trc">2</property>
  <property name="meta.media.width">1440</property>
  <property name="meta.media.height">1080</property>
  <property name="meta.media.color_range">mpeg</property>
  <property name="meta.media.top_field_first">1</property>
  <property name="meta.media.progressive">0</property>
  <property name="set.test_audio">1</property>
  <property name="set.test_image">0</property>
 </producer>
 <producer id="producer226" in="00:00:00.000" out="00:01:18.333">
  <property name="length">2351</property>
  <property name="eof">pause</property>
  <property name="resource">content/musicians/2021-06-02_Sarah_kit_jackson_00045-take_unknown_m44_unknown.mp4</property>
  <property name="audio_index">1</property>
  <property name="video_index">0</property>
  <property name="mute_on_pause">0</property>
  <property name="mlt_service">avformat-novalidate</property>
  <property name="seekable">1</property>
  <property name="aspect_ratio">1.33333</property>
  <property name="kdenlive:clipname"/>
  <property name="kdenlive:folderid">41</property>
  <property name="kdenlive:id">31</property>
  <property name="kdenlive:file_size">68164154</property>
  <property name="kdenlive:file_hash">d19e7a627a68bad77bbd94b3ff174441</property>
  <property name="kdenlive:audio_max">1</property>
  <property name="global_feed">1</property>
  <property name="xml">was here</property>
  <property name="meta.media.nb_streams">2</property>
  <property name="meta.media.0.stream.type">video</property>
  <property name="meta.media.0.stream.frame_rate">59.9401</property>
  <property name="meta.media.0.stream.sample_aspect_ratio">1.33333</property>
  <property name="meta.media.0.codec.width">1440</property>
  <property name="meta.media.0.codec.height">1080</property>
  <property name="meta.media.0.codec.rotate">0</property>
  <property name="meta.media.0.codec.frame_rate">29.97</property>
  <property name="meta.media.0.codec.pix_fmt">yuv420p</property>
  <property name="meta.media.0.codec.sample_aspect_ratio">1.33333</property>
  <property name="meta.media.0.codec.colorspace">709</property>
  <property name="meta.media.0.codec.name">h264</property>
  <property name="meta.media.0.codec.long_name">H.264 / AVC / MPEG-4 AVC / MPEG-4 part 10</property>
  <property name="meta.media.0.codec.bit_rate">6697462</property>
  <property name="meta.attr.0.stream.handler_name.markup">VideoHandler</property>
  <property name="meta.media.1.stream.type">audio</property>
  <property name="meta.media.1.codec.sample_fmt">fltp</property>
  <property name="meta.media.1.codec.sample_rate">48000</property>
  <property name="meta.media.1.codec.channels">2</property>
  <property name="meta.media.1.codec.name">ac3</property>
  <property name="meta.media.1.codec.long_name">ATSC A/52A (AC-3)</property>
  <property name="meta.media.1.codec.bit_rate">256000</property>
  <property name="meta.attr.1.stream.handler_name.markup">SoundHandler</property>
  <property name="meta.attr.major_brand.markup">isom</property>
  <property name="meta.attr.minor_version.markup">512</property>
  <property name="meta.attr.compatible_brands.markup">isomiso2avc1mp41</property>
  <property name="meta.attr.encoder.markup">Lavf58.45.100</property>
  <property name="meta.media.sample_aspect_num">4</property>
  <property name="meta.media.sample_aspect_den">3</property>
  <property name="meta.media.frame_rate_num">60000</property>
  <property name="meta.media.frame_rate_den">1001</property>
  <property name="meta.media.colorspace">709</property>
  <property name="meta.media.color_trc">2</property>
  <property name="meta.media.width">1440</property>
  <property name="meta.media.height">1080</property>
  <property name="meta.media.color_range">mpeg</property>
  <property name="meta.media.top_field_first">1</property>
  <property name="meta.media.progressive">0</property>
  <property name="set.test_audio">1</property>
  <property name="set.test_image">0</property>
 </producer>
 <producer id="producer227" in="00:00:00.000" out="00:01:01.800">
  <property name="length">1855</property>
  <property name="eof">pause</property>
  <property name="resource">content/musicians/2021-06-02_Sarah_kit_jackson_00045-take_unknown_drum_solo.mp4</property>
  <property name="audio_index">1</property>
  <property name="video_index">0</property>
  <property name="mute_on_pause">0</property>
  <property name="mlt_service">avformat-novalidate</property>
  <property name="seekable">1</property>
  <property name="aspect_ratio">1.33333</property>
  <property name="kdenlive:clipname"/>
  <property name="kdenlive:folderid">41</property>
  <property name="kdenlive:id">30</property>
  <property name="kdenlive:file_size">53647591</property>
  <property name="kdenlive:file_hash">8678297be25794b8cbdf94c437f6a5c7</property>
  <property name="kdenlive:audio_max">1</property>
  <property name="global_feed">1</property>
  <property name="xml">was here</property>
  <property name="meta.media.nb_streams">2</property>
  <property name="meta.media.0.stream.type">video</property>
  <property name="meta.media.0.stream.frame_rate">59.9401</property>
  <property name="meta.media.0.stream.sample_aspect_ratio">1.33333</property>
  <property name="meta.media.0.codec.width">1440</property>
  <property name="meta.media.0.codec.height">1080</property>
  <property name="meta.media.0.codec.rotate">0</property>
  <property name="meta.media.0.codec.frame_rate">29.97</property>
  <property name="meta.media.0.codec.pix_fmt">yuv420p</property>
  <property name="meta.media.0.codec.sample_aspect_ratio">1.33333</property>
  <property name="meta.media.0.codec.colorspace">709</property>
  <property name="meta.media.0.codec.name">h264</property>
  <property name="meta.media.0.codec.long_name">H.264 / AVC / MPEG-4 AVC / MPEG-4 part 10</property>
  <property name="meta.media.0.codec.bit_rate">6701071</property>
  <property name="meta.attr.0.stream.handler_name.markup">VideoHandler</property>
  <property name="meta.media.1.stream.type">audio</property>
  <property name="meta.media.1.codec.sample_fmt">fltp</property>
  <property name="meta.media.1.codec.sample_rate">48000</property>
  <property name="meta.media.1.codec.channels">2</property>
  <property name="meta.media.1.codec.name">ac3</property>
  <property name="meta.media.1.codec.long_name">ATSC A/52A (AC-3)</property>
  <property name="meta.media.1.codec.bit_rate">256000</property>
  <property name="meta.attr.1.stream.handler_name.markup">SoundHandler</property>
  <property name="meta.attr.major_brand.markup">isom</property>
  <property name="meta.attr.minor_version.markup">512</property>
  <property name="meta.attr.compatible_brands.markup">isomiso2avc1mp41</property>
  <property name="meta.attr.encoder.markup">Lavf58.45.100</property>
  <property name="meta.media.sample_aspect_num">4</property>
  <property name="meta.media.sample_aspect_den">3</property>
  <property name="meta.media.frame_rate_num">60000</property>
  <property name="meta.media.frame_rate_den">1001</property>
  <property name="meta.media.colorspace">709</property>
  <property name="meta.media.color_trc">2</property>
  <property name="meta.media.width">1440</property>
  <property name="meta.media.height">1080</property>
  <property name="meta.media.color_range">mpeg</property>
  <property name="meta.media.top_field_first">1</property>
  <property name="meta.media.progressive">0</property>
  <property name="set.test_audio">1</property>
  <property name="set.test_image">0</property>
 </producer>
 <playlist id="playlist18">
  <blank length="00:00:12.400"/>
  <entry producer="producer221" in="00:00:00.000" out="00:00:13.933">
   <property name="kdenlive:id">29</property>
  </entry>
  <entry producer="producer222" in="00:00:13.967" out="00:00:18.700">
   <property name="kdenlive:id">29</property>
   <filter id="filter210" in="00:00:17.967" out="00:00:18.700">
    <property name="start">1</property>
    <property name="mlt_service">brightness</property>
    <property name="kdenlive_id">fade_to_black</property>
    <property name="end">0</property>
    <property name="alpha">-1</property>
    <property name="kdenlive:collapsed">0</property>
   </filter>
   <filter id="filter211" in="00:00:13.967" out="00:00:14.433">
    <property name="start">0</property>
    <property name="mlt_service">brightness</property>
    <property name="kdenlive_id">fade_from_black</property>
    <property name="end">1</property>
    <property name="alpha">-1</property>
    <property name="kdenlive:collapsed">0</property>
   </filter>
  </entry>
  <entry producer="producer221" in="00:00:18.733" out="00:01:13.567">
   <property name="kdenlive:id">29</property>
  </entry>
  <entry producer="producer223" in="00:01:06.833" out="00:01:41.733">
   <property name="kdenlive:id">28</property>
  </entry>
  <entry producer="producer221" in="00:01:49.633" out="00:03:14.467">
   <property name="kdenlive:id">29</property>
  </entry>
  <entry producer="producer224" in="00:00:07.567" out="00:00:22.500">
   <property name="kdenlive:id">31</property>
  </entry>
  <entry producer="producer225" in="00:00:22.533" out="00:00:24.567">
   <property name="kdenlive:id">31</property>
   <property name="kdenlive:activeeffect">4</property>
   <filter id="filter212" in="00:00:22.533" out="00:00:22.867">
    <property name="start">0</property>
    <property name="mlt_service">brightness</property>
    <property name="kdenlive_id">fade_from_black</property>
    <property name="end">1</property>
    <property name="alpha">-1</property>
    <property name="kdenlive:collapsed">0</property>
   </filter>
   <filter id="filter213" in="00:00:24.233" out="00:00:24.567">
    <property name="start">1</property>
    <property name="mlt_service">brightness</property>
    <property name="kdenlive_id">fade_to_black</property>
    <property name="end">0</property>
    <property name="alpha">-1</property>
    <property name="kdenlive:collapsed">0</property>
   </filter>
   <filter id="filter214">
    <property name="version">0.6</property>
    <property name="mlt_service">frei0r.select0r</property>
    <property name="kdenlive_id">frei0r.select0r</property>
    <property name="Color to select">0x50b26dff</property>
    <property name="Invert selection">1</property>
    <property name="Selection subspace">1</property>
    <property name="Subspace shape">0</property>
    <property name="Edge mode">0.9</property>
    <property name="Delta R / A / Hue">00:00:22.533=0.025</property>
    <property name="Delta G / B / Chroma">00:00:22.533=0.18</property>
    <property name="Delta B / I / I">00:00:22.533=0.4</property>
    <property name="Slope">00:00:22.533=0.236</property>
    <property name="Operation">0.5</property>
    <property name="kdenlive:collapsed">0</property>
   </filter>
   <filter id="filter215">
    <property name="mlt_service">avfilter.despill</property>
    <property name="kdenlive_id">avfilter.despill</property>
    <property name="av.type">green</property>
    <property name="av.mix">0.535</property>
    <property name="av.expand">0.073</property>
    <property name="av.red">0</property>
    <property name="av.green">-1</property>
    <property name="av.blue">0</property>
    <property name="av.brightness">0</property>
    <property name="kdenlive:collapsed">0</property>
   </filter>
   <filter id="filter216">
    <property name="lift_r">0.062501</property>
    <property name="lift_g">0.062501</property>
    <property name="lift_b">0.062501</property>
    <property name="gamma_r">1.3875</property>
    <property name="gamma_g">1.10518</property>
    <property name="gamma_b">1.12578</property>
    <property name="gain_r">0.724987</property>
    <property name="gain_g">0.713939</property>
    <property name="gain_b">0.62739</property>
    <property name="mlt_service">lift_gamma_gain</property>
    <property name="kdenlive_id">lift_gamma_gain</property>
    <property name="kdenlive:collapsed">0</property>
   </filter>
  </entry>
  <entry producer="producer224" in="00:00:24.600" out="00:00:44.000">
   <property name="kdenlive:id">31</property>
  </entry>
  <entry producer="producer226" in="00:00:44.033" out="00:00:46.000">
   <property name="kdenlive:id">31</property>
   <filter id="filter217" in="00:00:44.033" out="00:00:44.633">
    <property name="start">0</property>
    <property name="mlt_service">brightness</property>
    <property name="kdenlive_id">fade_from_black</property>
    <property name="end">1</property>
    <property name="alpha">-1</property>
    <property name="kdenlive:collapsed">0</property>
   </filter>
   <filter id="filter218" in="00:00:45.667" out="00:00:46.000">
    <property name="start">1</property>
    <property name="mlt_service">brightness</property>
    <property name="kdenlive_id">fade_to_black</property>
    <property name="end">0</property>
    <property name="alpha">-1</property>
    <property name="kdenlive:collapsed">0</property>
   </filter>
   <filter id="filter219">
    <property name="version">0.6</property>
    <property name="mlt_service">frei0r.select0r</property>
    <property name="kdenlive_id">frei0r.select0r</property>
    <property name="Color to select">0x50b26dff</property>
    <property name="Invert selection">1</property>
    <property name="Selection subspace">1</property>
    <property name="Subspace shape">0</property>
    <property name="Edge mode">0.9</property>
    <property name="Delta R / A / Hue">00:00:44.033=0.025</property>
    <property name="Delta G / B / Chroma">00:00:44.033=0.18</property>
    <property name="Delta B / I / I">00:00:44.033=0.4</property>
    <property name="Slope">00:00:44.033=0.236</property>
    <property name="Operation">0.5</property>
    <property name="kdenlive:collapsed">0</property>
   </filter>
   <filter id="filter220">
    <property name="mlt_service">avfilter.despill</property>
    <property name="kdenlive_id">avfilter.despill</property>
    <property name="av.type">green</property>
    <property name="av.mix">0.535</property>
    <property name="av.expand">0.073</property>
    <property name="av.red">0</property>
    <property name="av.green">-1</property>
    <property name="av.blue">0</property>
    <property name="av.brightness">0</property>
    <property name="kdenlive:collapsed">0</property>
   </filter>
  </entry>
  <entry producer="producer224" in="00:00:46.033" out="00:00:52.633">
   <property name="kdenlive:id">31</property>
  </entry>
  <entry producer="producer224" in="00:00:52.667" out="00:00:54.967">
   <property name="kdenlive:id">31</property>
   <filter id="filter221" in="00:00:52.667" out="00:00:53.267">
    <property name="start">0</property>
    <property name="mlt_service">brightness</property>
    <property name="kdenlive_id">fade_from_black</property>
    <property name="end">1</property>
    <property name="alpha">-1</property>
    <property name="kdenlive:collapsed">0</property>
   </filter>
   <filter id="filter222" in="00:00:54.633" out="00:00:54.967">
    <property name="start">1</property>
    <property name="mlt_service">brightness</property>
    <property name="kdenlive_id">fade_to_black</property>
    <property name="end">0</property>
    <property name="alpha">-1</property>
    <property name="kdenlive:collapsed">0</property>
   </filter>
   <filter id="filter223">
    <property name="version">0.6</property>
    <property name="mlt_service">frei0r.select0r</property>
    <property name="kdenlive_id">frei0r.select0r</property>
    <property name="Color to select">0x50b26dff</property>
    <property name="Invert selection">1</property>
    <property name="Selection subspace">1</property>
    <property name="Subspace shape">0</property>
    <property name="Edge mode">0.9</property>
    <property name="Delta R / A / Hue">00:00:52.667=0.025</property>
    <property name="Delta G / B / Chroma">00:00:52.667=0.18</property>
    <property name="Delta B / I / I">00:00:52.667=0.4</property>
    <property name="Slope">00:00:52.667=0.236</property>
    <property name="Operation">0.5</property>
    <property name="kdenlive:collapsed">0</property>
   </filter>
   <filter id="filter224">
    <property name="mlt_service">avfilter.despill</property>
    <property name="kdenlive_id">avfilter.despill</property>
    <property name="av.type">green</property>
    <property name="av.mix">0.535</property>
    <property name="av.expand">0.073</property>
    <property name="av.red">0</property>
    <property name="av.green">-1</property>
    <property name="av.blue">0</property>
    <property name="av.brightness">0</property>
    <property name="kdenlive:collapsed">0</property>
   </filter>
  </entry>
  <entry producer="producer224" in="00:00:55.000" out="00:01:14.333">
   <property name="kdenlive:id">31</property>
  </entry>
  <blank length="00:00:14.467"/>
  <entry producer="producer227" in="00:00:16.467" out="00:00:42.067">
   <property name="kdenlive:id">30</property>
   <property name="kdenlive:activeeffect">5</property>
   <filter id="filter225">
    <property name="version">0.6</property>
    <property name="mlt_service">frei0r.select0r</property>
    <property name="kdenlive_id">frei0r.select0r</property>
    <property name="Color to select">0x50b26dff</property>
    <property name="Invert selection">1</property>
    <property name="Selection subspace">1</property>
    <property name="Subspace shape">0</property>
    <property name="Edge mode">0.9</property>
    <property name="Delta R / A / Hue">00:00:16.467=0.025</property>
    <property name="Delta G / B / Chroma">00:00:16.467=0.18</property>
    <property name="Delta B / I / I">00:00:16.467=0.4</property>
    <property name="Slope">00:00:16.467=0.2</property>
    <property name="Operation">0.5</property>
    <property name="kdenlive:collapsed">0</property>
   </filter>
   <filter id="filter226">
    <property name="mlt_service">avfilter.despill</property>
    <property name="kdenlive_id">avfilter.despill</property>
    <property name="av.type">green</property>
    <property name="av.mix">0.535</property>
    <property name="av.expand">0.073</property>
    <property name="av.red">0</property>
    <property name="av.green">-1</property>
    <property name="av.blue">0</property>
    <property name="av.brightness">0</property>
    <property name="kdenlive:collapsed">0</property>
   </filter>
   <filter id="filter227">
    <property name="mode">alpha</property>
    <property name="alpha_operation">sub</property>
    <property name="invert">0</property>
    <property name="feather">10</property>
    <property name="feather_passes">1</property>
    <property name="mlt_service">rotoscoping</property>
    <property name="kdenlive_id">rotoscoping</property>
    <property name="spline">{
    "0494": [
        [
            [
                0.18259958071278828,
                1.0716417910447762
            ],
            [
                0.20859538784067086,
                1.0261194029850746
            ],
            [
                0.19308176100628935,
                0.9977611940298508
            ]
        ],
        [
            [
                0.06897274633123689,
                0.9574626865671643
            ],
            [
                0.05345911949685534,
                0.9291044776119404
            ],
            [
                0.04884696016771488,
                0.9171641791044777
            ]
        ],
        [
            [
                0.0350104821802935,
                0.8813432835820896
            ],
            [
                0.03039832285115304,
                0.8694029850746269
            ],
            [
                0.026205450733752623,
                0.8380597014925373
            ]
        ],
        [
            [
                0.013626834381551363,
                0.7440298507462687
            ],
            [
                0.009433962264150943,
                0.7126865671641791
            ],
            [
                -0.0006289308176100628,
                0.7111940298507463
            ]
        ],
        [
            [
                -0.030817610062893082,
                0.7067164179104477
            ],
            [
                -0.040880503144654086,
                0.7052238805970149
            ],
            [
                -0.04171907756813417,
                0.6783582089552239
            ]
        ],
        [
            [
                -0.04423480083857442,
                0.5977611940298507
            ],
            [
                -0.0450733752620545,
                0.5708955223880596
            ],
            [
                -0.012788259958071277,
                0.558955223880597
            ]
        ],
        [
            [
                0.0840670859538784,
                0.5231343283582089
            ],
            [
                0.11635220125786164,
                0.5111940298507462
            ],
            [
                0.1230607966457023,
                0.5276119402985074
            ]
        ],
        [
            [
                0.14318658280922433,
                0.576865671641791
            ],
            [
                0.149895178197065,
                0.5932835820895522
            ],
            [
                0.16540880503144656,
                0.5828358208955223
            ]
        ],
        [
            [
                0.21194968553459118,
                0.551492537313433
            ],
            [
                0.22746331236897274,
                0.541044776119403
            ],
            [
                0.22243186582809224,
                0.48880597014925375
            ]
        ],
        [
            [
                0.20733752620545073,
                0.332089552238806
            ],
            [
                0.20230607966457023,
                0.27985074626865675
            ],
            [
                0.2320754716981132,
                0.2388059701492537
            ]
        ],
        [
            [
                0.3213836477987421,
                0.11567164179104479
            ],
            [
                0.35115303983228513,
                0.07462686567164178
            ],
            [
                0.38385744234800845,
                0.06343283582089553
            ]
        ],
        [
            [
                0.4819706498951782,
                0.029850746268656712
            ],
            [
                0.5146750524109015,
                0.018656716417910446
            ],
            [
                0.5452830188679246,
                0.02835820895522388
            ]
        ],
        [
            [
                0.6371069182389937,
                0.057462686567164176
            ],
            [
                0.6677148846960167,
                0.06716417910447761
            ],
            [
                0.6836477987421383,
                0.12686567164179105
            ]
        ],
        [
            [
                0.7314465408805031,
                0.30597014925373134
            ],
            [
                0.7473794549266247,
                0.3656716417910448
            ],
            [
                0.7578616352201257,
                0.42761194029850746
            ]
        ],
        [
            [
                0.784947634722821,
                0.6121409394035626
            ],
            [
                0.795429815016322,
                0.6740812379110251
            ],
            [
                0.8291621327529924,
                0.6673114119922631
            ]
        ],
        [
            [
                0.8628944504896626,
                0.6702127659574467
            ],
            [
                0.8879216539717084,
                0.6827852998065764
            ],
            [
                0.9494015233949946,
                0.6334622823984526
            ]
        ],
        [
            [
                1.011111111111111,
                0.6507462686567164
            ],
            [
                1.0345911949685533,
                0.6492537313432836
            ],
            [
                1.062264150943396,
                0.5164179104477612
            ]
        ],
        [
            [
                1.1452830188679246,
                0.11791044776119403
            ],
            [
                1.1729559748427674,
                -0.014925373134328356
            ],
            [
                1.1507337526205452,
                -0.05895522388059701
            ]
        ],
        [
            [
                1.0840670859538784,
                -0.191044776119403
            ],
            [
                1.0618448637316562,
                -0.23507462686567163
            ],
            [
                0.8064989517819706,
                -0.23059701492537316
            ]
        ],
        [
            [
                0.04046121593291403,
                -0.2171641791044776
            ],
            [
                -0.2148846960167715,
                -0.2126865671641791
            ],
            [
                -0.21404612159329142,
                0.039552238805970134
            ]
        ],
        [
            [
                -0.21153039832285117,
                0.7962686567164179
            ],
            [
                -0.21069182389937108,
                1.0485074626865671
            ],
            [
                -0.16834381551362684,
                1.0985074626865672
            ]
        ],
        [
            [
                -0.041299790356394125,
                1.248507462686567
            ],
            [
                0.0010482180293501049,
                1.2985074626865671
            ],
            [
                0.027044025157232702,
                1.2529850746268656
            ]
        ]
    ]
}
</property>
    <property name="kdenlive:collapsed">0</property>
   </filter>
   <filter id="filter228">
    <property name="mode">alpha</property>
    <property name="alpha_operation">add</property>
    <property name="invert">0</property>
    <property name="feather">3</property>
    <property name="feather_passes">1</property>
    <property name="mlt_service">rotoscoping</property>
    <property name="kdenlive_id">rotoscoping</property>
    <property name="spline">{
    "0494": [
        [
            [
                0.05136268343815513,
                0.9514925373134329
            ],
            [
                0.0429769392033543,
                0.8787313432835822
            ],
            [
                0.0859538784067086,
                0.8246268656716418
            ]
        ],
        [
            [
                0.23941299790356388,
                0.832462686567164
            ],
            [
                0.2830188679245283,
                0.8246268656716418
            ],
            [
                0.33228511530398314,
                0.8432835820895523
            ]
        ],
        [
            [
                0.4989517819706499,
                0.8768656716417911
            ],
            [
                0.5073375262054507,
                0.9328358208955224
            ],
            [
                0.5167714884696016,
                0.9455223880597015
            ]
        ],
        [
            [
                0.5450733752620545,
                0.9835820895522387
            ],
            [
                0.5545073375262054,
                0.9962686567164178
            ],
            [
                0.5645702306079664,
                0.9888059701492538
            ]
        ],
        [
            [
                0.5947589098532494,
                0.966417910447761
            ],
            [
                0.6048218029350104,
                0.958955223880597
            ],
            [
                0.6247379454926624,
                0.9440298507462686
            ]
        ],
        [
            [
                0.6844863731656184,
                0.8992537313432837
            ],
            [
                0.7044025157232704,
                0.8843283582089553
            ],
            [
                0.7339622641509433,
                0.9044776119402985
            ]
        ],
        [
            [
                0.8226415094339622,
                0.9649253731343284
            ],
            [
                0.8522012578616351,
                0.9850746268656716
            ],
            [
                0.8561844863731655,
                0.9597014925373133
            ]
        ],
        [
            [
                0.8681341719077568,
                0.8835820895522388
            ],
            [
                0.8721174004192871,
                0.8582089552238806
            ],
            [
                0.8515723270440251,
                0.8380597014925373
            ]
        ],
        [
            [
                0.7851153039832285,
                0.8190298507462687
            ],
            [
                0.7693920335429769,
                0.7574626865671642
            ],
            [
                0.7641509433962264,
                0.6753731343283582
            ]
        ],
        [
            [
                0.8522012578616351,
                0.6809701492537314
            ],
            [
                0.8553459119496855,
                0.6865671641791045
            ],
            [
                0.8620545073375261,
                0.6876865671641791
            ]
        ],
        [
            [
                0.8821802935010481,
                0.691044776119403
            ],
            [
                0.8888888888888888,
                0.6921641791044776
            ],
            [
                0.9339622641509434,
                0.6492537313432836
            ]
        ],
        [
            [
                0.9727463312368972,
                0.6529850746268657
            ],
            [
                0.9989517819706498,
                0.6492537313432836
            ],
            [
                1.00272536687631,
                0.6895522388059703
            ]
        ],
        [
            [
                1.0580712788259958,
                0.8291044776119403
            ],
            [
                1.0618448637316562,
                0.8694029850746269
            ],
            [
                1.0259958071278825,
                0.866044776119403
            ]
        ],
        [
            [
                0.9184486373165619,
                0.8559701492537313
            ],
            [
                0.8825995807127883,
                0.8526119402985074
            ],
            [
                0.880083857442348,
                0.8805970149253731
            ]
        ],
        [
            [
                0.8725366876310273,
                0.9645522388059703
            ],
            [
                0.870020964360587,
                0.9925373134328359
            ],
            [
                0.8626834381551363,
                1.0395522388059704
            ]
        ],
        [
            [
                0.8406708595387841,
                1.180597014925373
            ],
            [
                0.8333333333333334,
                1.2276119402985075
            ],
            [
                0.7046121593291405,
                1.2119402985074628
            ]
        ],
        [
            [
                0.31844863731656187,
                1.1649253731343283
            ],
            [
                0.18972746331236898,
                1.1492537313432836
            ],
            [
                0.190146750524109,
                1.1223880597014926
            ]
        ],
        [
            [
                0.19140461215932916,
                1.0417910447761194
            ],
            [
                0.19182389937106917,
                1.0149253731343284
            ],
            [
                0.19433962264150942,
                1.0037313432835822
            ]
        ],
        [
            [
                0.19769392033542976,
                0.9776119402985075
            ],
            [
                0.20020964360587,
                0.9664179104477613
            ],
            [
                0.16771488469601675,
                0.9552238805970148
            ]
        ]
    ]
}
</property>
    <property name="kdenlive:collapsed">0</property>
   </filter>
   <filter id="filter229">
    <property name="lift_r">-0.403632</property>
    <property name="lift_g">-0.437507</property>
    <property name="lift_b">-0.388586</property>
    <property name="gamma_r">1.05</property>
    <property name="gamma_g">0.957198</property>
    <property name="gamma_b">0.864393</property>
    <property name="gain_r">1.07503</property>
    <property name="gain_g">0.914015</property>
    <property name="gain_b">0.789319</property>
    <property name="mlt_service">lift_gamma_gain</property>
    <property name="kdenlive_id">lift_gamma_gain</property>
    <property name="kdenlive:collapsed">0</property>
   </filter>
   <filter id="filter230">
    <property name="version">0.1</property>
    <property name="mlt_service">frei0r.mask0mate</property>
    <property name="kdenlive_id">frei0r.mask0mate</property>
    <property name="Left">00:00:16.467=0</property>
    <property name="Right">00:00:16.467=0</property>
    <property name="Top">00:00:16.467=0</property>
    <property name="Bottom">00:00:16.467=0.2</property>
    <property name="Invert">1</property>
    <property name="Blur">00:00:16.467=0.244</property>
    <property name="kdenlive:collapsed">0</property>
   </filter>
   <filter id="filter231" in="00:00:16.467" out="00:00:17.233">
    <property name="start">0</property>
    <property name="mlt_service">brightness</property>
    <property name="kdenlive_id">fade_from_black</property>
    <property name="end">1</property>
    <property name="alpha">-1</property>
    <property name="kdenlive:collapsed">0</property>
   </filter>
  </entry>
  <entry producer="producer227" in="00:00:47.267" out="00:00:59.667">
   <property name="kdenlive:id">30</property>
   <property name="kdenlive:activeeffect">0</property>
   <filter id="filter232">
    <property name="version">0.6</property>
    <property name="mlt_service">frei0r.select0r</property>
    <property name="kdenlive_id">frei0r.select0r</property>
    <property name="Color to select">0x50b26dff</property>
    <property name="Invert selection">1</property>
    <property name="Selection subspace">1</property>
    <property name="Subspace shape">0</property>
    <property name="Edge mode">0.9</property>
    <property name="Delta R / A / Hue">00:00:47.267=0.025</property>
    <property name="Delta G / B / Chroma">00:00:47.267=0.18</property>
    <property name="Delta B / I / I">00:00:47.267=0.4</property>
    <property name="Slope">00:00:47.267=0.2</property>
    <property name="Operation">0.5</property>
    <property name="kdenlive:collapsed">0</property>
   </filter>
   <filter id="filter233">
    <property name="mlt_service">avfilter.despill</property>
    <property name="kdenlive_id">avfilter.despill</property>
    <property name="av.type">green</property>
    <property name="av.mix">0.535</property>
    <property name="av.expand">0.073</property>
    <property name="av.red">0</property>
    <property name="av.green">-1</property>
    <property name="av.blue">0</property>
    <property name="av.brightness">0</property>
    <property name="kdenlive:collapsed">0</property>
   </filter>
   <filter id="filter234">
    <property name="mode">alpha</property>
    <property name="alpha_operation">sub</property>
    <property name="invert">0</property>
    <property name="feather">10</property>
    <property name="feather_passes">1</property>
    <property name="mlt_service">rotoscoping</property>
    <property name="kdenlive_id">rotoscoping</property>
    <property name="spline">{
    "1418": [
        [
            [
                0.18259958071278828,
                1.0716417910447762
            ],
            [
                0.20859538784067086,
                1.0261194029850746
            ],
            [
                0.19308176100628935,
                0.9977611940298508
            ]
        ],
        [
            [
                0.06897274633123689,
                0.9574626865671643
            ],
            [
                0.05345911949685534,
                0.9291044776119404
            ],
            [
                0.04884696016771488,
                0.9171641791044777
            ]
        ],
        [
            [
                0.0350104821802935,
                0.8813432835820896
            ],
            [
                0.03039832285115304,
                0.8694029850746269
            ],
            [
                0.026205450733752623,
                0.8380597014925373
            ]
        ],
        [
            [
                0.013626834381551363,
                0.7440298507462687
            ],
            [
                0.009433962264150943,
                0.7126865671641791
            ],
            [
                -0.0006289308176100628,
                0.7111940298507463
            ]
        ],
        [
            [
                -0.030817610062893082,
                0.7067164179104477
            ],
            [
                -0.040880503144654086,
                0.7052238805970149
            ],
            [
                -0.04171907756813417,
                0.6783582089552239
            ]
        ],
        [
            [
                -0.04423480083857442,
                0.5977611940298507
            ],
            [
                -0.0450733752620545,
                0.5708955223880596
            ],
            [
                -0.012788259958071277,
                0.558955223880597
            ]
        ],
        [
            [
                0.0840670859538784,
                0.5231343283582089
            ],
            [
                0.11635220125786164,
                0.5111940298507462
            ],
            [
                0.1230607966457023,
                0.5276119402985074
            ]
        ],
        [
            [
                0.14318658280922433,
                0.576865671641791
            ],
            [
                0.149895178197065,
                0.5932835820895522
            ],
            [
                0.16540880503144656,
                0.5828358208955223
            ]
        ],
        [
            [
                0.21194968553459118,
                0.551492537313433
            ],
            [
                0.22746331236897274,
                0.541044776119403
            ],
            [
                0.22243186582809224,
                0.48880597014925375
            ]
        ],
        [
            [
                0.20733752620545073,
                0.332089552238806
            ],
            [
                0.20230607966457023,
                0.27985074626865675
            ],
            [
                0.2320754716981132,
                0.2388059701492537
            ]
        ],
        [
            [
                0.3213836477987421,
                0.11567164179104479
            ],
            [
                0.35115303983228513,
                0.07462686567164178
            ],
            [
                0.38385744234800845,
                0.06343283582089553
            ]
        ],
        [
            [
                0.4819706498951782,
                0.029850746268656712
            ],
            [
                0.5146750524109015,
                0.018656716417910446
            ],
            [
                0.5452830188679246,
                0.02835820895522388
            ]
        ],
        [
            [
                0.6371069182389937,
                0.057462686567164176
            ],
            [
                0.6677148846960167,
                0.06716417910447761
            ],
            [
                0.6836477987421383,
                0.12686567164179105
            ]
        ],
        [
            [
                0.7314465408805031,
                0.30597014925373134
            ],
            [
                0.7473794549266247,
                0.3656716417910448
            ],
            [
                0.7578616352201257,
                0.42761194029850746
            ]
        ],
        [
            [
                0.784947634722821,
                0.6121409394035626
            ],
            [
                0.795429815016322,
                0.6740812379110251
            ],
            [
                0.8291621327529924,
                0.6673114119922631
            ]
        ],
        [
            [
                0.8628944504896626,
                0.6702127659574467
            ],
            [
                0.8879216539717084,
                0.6827852998065764
            ],
            [
                0.9494015233949946,
                0.6334622823984526
            ]
        ],
        [
            [
                1.011111111111111,
                0.6507462686567164
            ],
            [
                1.0345911949685533,
                0.6492537313432836
            ],
            [
                1.062264150943396,
                0.5164179104477612
            ]
        ],
        [
            [
                1.1452830188679246,
                0.11791044776119403
            ],
            [
                1.1729559748427674,
                -0.014925373134328356
            ],
            [
                1.1507337526205452,
                -0.05895522388059701
            ]
        ],
        [
            [
                1.0840670859538784,
                -0.191044776119403
            ],
            [
                1.0618448637316562,
                -0.23507462686567163
            ],
            [
                0.8064989517819706,
                -0.23059701492537316
            ]
        ],
        [
            [
                0.04046121593291403,
                -0.2171641791044776
            ],
            [
                -0.2148846960167715,
                -0.2126865671641791
            ],
            [
                -0.21404612159329142,
                0.039552238805970134
            ]
        ],
        [
            [
                -0.21153039832285117,
                0.7962686567164179
            ],
            [
                -0.21069182389937108,
                1.0485074626865671
            ],
            [
                -0.16834381551362684,
                1.0985074626865672
            ]
        ],
        [
            [
                -0.041299790356394125,
                1.248507462686567
            ],
            [
                0.0010482180293501049,
                1.2985074626865671
            ],
            [
                0.027044025157232702,
                1.2529850746268656
            ]
        ]
    ],
    "1586": [
        [
            [
                0.18259958071278828,
                1.0716417910447762
            ],
            [
                0.20859538784067086,
                1.0261194029850746
            ],
            [
                0.19308176100628935,
                0.9977611940298508
            ]
        ],
        [
            [
                0.06897274633123689,
                0.9574626865671643
            ],
            [
                0.05345911949685534,
                0.9291044776119404
            ],
            [
                0.04884696016771488,
                0.9171641791044777
            ]
        ],
        [
            [
                0.0350104821802935,
                0.8813432835820896
            ],
            [
                0.03039832285115304,
                0.8694029850746269
            ],
            [
                0.026205450733752623,
                0.8380597014925373
            ]
        ],
        [
            [
                0.013626834381551363,
                0.7440298507462687
            ],
            [
                0.009433962264150943,
                0.7126865671641791
            ],
            [
                -0.0006289308176100628,
                0.7111940298507463
            ]
        ],
        [
            [
                -0.030817610062893082,
                0.7067164179104477
            ],
            [
                -0.040880503144654086,
                0.7052238805970149
            ],
            [
                -0.04171907756813417,
                0.6783582089552239
            ]
        ],
        [
            [
                -0.04423480083857442,
                0.5977611940298507
            ],
            [
                -0.0450733752620545,
                0.5708955223880596
            ],
            [
                -0.012788259958071277,
                0.558955223880597
            ]
        ],
        [
            [
                0.0840670859538784,
                0.5231343283582089
            ],
            [
                0.11635220125786164,
                0.5111940298507462
            ],
            [
                0.1230607966457023,
                0.5276119402985074
            ]
        ],
        [
            [
                0.14318658280922433,
                0.576865671641791
            ],
            [
                0.149895178197065,
                0.5932835820895522
            ],
            [
                0.16540880503144656,
                0.5828358208955223
            ]
        ],
        [
            [
                0.21194968553459118,
                0.551492537313433
            ],
            [
                0.22746331236897274,
                0.541044776119403
            ],
            [
                0.22243186582809224,
                0.48880597014925375
            ]
        ],
        [
            [
                0.20733752620545073,
                0.332089552238806
            ],
            [
                0.20230607966457023,
                0.27985074626865675
            ],
            [
                0.2320754716981132,
                0.2388059701492537
            ]
        ],
        [
            [
                0.3213836477987421,
                0.11567164179104479
            ],
            [
                0.35115303983228513,
                0.07462686567164178
            ],
            [
                0.38385744234800845,
                0.06343283582089553
            ]
        ],
        [
            [
                0.4819706498951782,
                0.029850746268656712
            ],
            [
                0.5146750524109015,
                0.018656716417910446
            ],
            [
                0.5452830188679246,
                0.02835820895522388
            ]
        ],
        [
            [
                0.6371069182389937,
                0.057462686567164176
            ],
            [
                0.6677148846960167,
                0.06716417910447761
            ],
            [
                0.6836477987421383,
                0.12686567164179105
            ]
        ],
        [
            [
                0.7314465408805031,
                0.30597014925373134
            ],
            [
                0.7473794549266247,
                0.3656716417910448
            ],
            [
                0.7578616352201257,
                0.42761194029850746
            ]
        ],
        [
            [
                0.784947634722821,
                0.6121409394035626
            ],
            [
                0.795429815016322,
                0.6740812379110251
            ],
            [
                0.8291621327529924,
                0.6673114119922631
            ]
        ],
        [
            [
                0.8628944504896626,
                0.6702127659574467
            ],
            [
                0.8879216539717084,
                0.6827852998065764
            ],
            [
                0.9494015233949946,
                0.6334622823984526
            ]
        ],
        [
            [
                1.011111111111111,
                0.6507462686567164
            ],
            [
                1.0345911949685533,
                0.6492537313432836
            ],
            [
                1.062264150943396,
                0.5164179104477612
            ]
        ],
        [
            [
                1.1452830188679246,
                0.11791044776119403
            ],
            [
                1.1729559748427674,
                -0.014925373134328356
            ],
            [
                1.1507337526205452,
                -0.05895522388059701
            ]
        ],
        [
            [
                1.0840670859538784,
                -0.191044776119403
            ],
            [
                1.0618448637316562,
                -0.23507462686567163
            ],
            [
                0.8064989517819706,
                -0.23059701492537316
            ]
        ],
        [
            [
                0.04046121593291403,
                -0.2171641791044776
            ],
            [
                -0.2148846960167715,
                -0.2126865671641791
            ],
            [
                -0.21404612159329142,
                0.039552238805970134
            ]
        ],
        [
            [
                -0.21153039832285117,
                0.7962686567164179
            ],
            [
                -0.21069182389937108,
                1.0485074626865671
            ],
            [
                -0.16834381551362684,
                1.0985074626865672
            ]
        ],
        [
            [
                -0.041299790356394125,
                1.248507462686567
            ],
            [
                0.0010482180293501049,
                1.2985074626865671
            ],
            [
                0.027044025157232702,
                1.2529850746268656
            ]
        ]
    ],
    "1591": [
        [
            [
                0.18259958071278828,
                1.0716417910447762
            ],
            [
                0.20859538784067086,
                1.0261194029850746
            ],
            [
                0.19308176100628935,
                0.9977611940298508
            ]
        ],
        [
            [
                0.06897274633123689,
                0.9574626865671643
            ],
            [
                0.05345911949685534,
                0.9291044776119404
            ],
            [
                0.04884696016771488,
                0.9171641791044777
            ]
        ],
        [
            [
                0.0350104821802935,
                0.8813432835820896
            ],
            [
                0.03039832285115304,
                0.8694029850746269
            ],
            [
                0.026205450733752623,
                0.8380597014925373
            ]
        ],
        [
            [
                0.013626834381551363,
                0.7440298507462687
            ],
            [
                0.009433962264150943,
                0.7126865671641791
            ],
            [
                -0.0006289308176100628,
                0.7111940298507463
            ]
        ],
        [
            [
                -0.030817610062893082,
                0.7067164179104477
            ],
            [
                -0.040880503144654086,
                0.7052238805970149
            ],
            [
                -0.04171907756813417,
                0.6783582089552239
            ]
        ],
        [
            [
                -0.04423480083857442,
                0.5977611940298507
            ],
            [
                -0.0450733752620545,
                0.5708955223880596
            ],
            [
                -0.012788259958071277,
                0.558955223880597
            ]
        ],
        [
            [
                0.0840670859538784,
                0.5231343283582089
            ],
            [
                0.11635220125786164,
                0.5111940298507462
            ],
            [
                0.1230607966457023,
                0.5276119402985074
            ]
        ],
        [
            [
                0.14318658280922433,
                0.576865671641791
            ],
            [
                0.149895178197065,
                0.5932835820895522
            ],
            [
                0.16540880503144656,
                0.5828358208955223
            ]
        ],
        [
            [
                0.21194968553459118,
                0.551492537313433
            ],
            [
                0.22746331236897274,
                0.541044776119403
            ],
            [
                0.22243186582809224,
                0.48880597014925375
            ]
        ],
        [
            [
                0.20733752620545073,
                0.332089552238806
            ],
            [
                0.20230607966457023,
                0.27985074626865675
            ],
            [
                0.2320754716981132,
                0.2388059701492537
            ]
        ],
        [
            [
                0.2892819706498952,
                0.06203358208955223
            ],
            [
                0.31905136268343814,
                0.02098880597014925
            ],
            [
                0.35175576519916146,
                0.009794776119402984
            ]
        ],
        [
            [
                0.4819706498951783,
                -0.023787313432835827
            ],
            [
                0.5146750524109015,
                -0.03498134328358209
            ],
            [
                0.5452830188679246,
                -0.025279850746268668
            ]
        ],
        [
            [
                0.667898322851153,
                0.0014925373134328293
            ],
            [
                0.698506289308176,
                0.011194029850746263
            ],
            [
                0.7144392033542977,
                0.07089552238805971
            ]
        ],
        [
            [
                0.7377358490566037,
                0.291044776119403
            ],
            [
                0.7536687631027253,
                0.3507462686567164
            ],
            [
                0.8322851153039833,
                0.3246268656716418
            ]
        ],
        [
            [
                0.784947634722821,
                0.6121409394035626
            ],
            [
                0.795429815016322,
                0.6740812379110251
            ],
            [
                0.8291621327529924,
                0.6673114119922631
            ]
        ],
        [
            [
                0.8628944504896626,
                0.6702127659574467
            ],
            [
                0.8879216539717084,
                0.6827852998065764
            ],
            [
                0.9494015233949946,
                0.6334622823984526
            ]
        ],
        [
            [
                1.011111111111111,
                0.6507462686567164
            ],
            [
                1.0345911949685533,
                0.6492537313432836
            ],
            [
                1.062264150943396,
                0.5164179104477612
            ]
        ],
        [
            [
                1.1452830188679246,
                0.11791044776119403
            ],
            [
                1.1729559748427674,
                -0.014925373134328356
            ],
            [
                1.1507337526205452,
                -0.05895522388059701
            ]
        ],
        [
            [
                1.0840670859538784,
                -0.191044776119403
            ],
            [
                1.0618448637316562,
                -0.23507462686567163
            ],
            [
                0.8064989517819706,
                -0.23059701492537316
            ]
        ],
        [
            [
                0.04046121593291403,
                -0.2171641791044776
            ],
            [
                -0.2148846960167715,
                -0.2126865671641791
            ],
            [
                -0.21404612159329142,
                0.039552238805970134
            ]
        ],
        [
            [
                -0.21153039832285117,
                0.7962686567164179
            ],
            [
                -0.21069182389937108,
                1.0485074626865671
            ],
            [
                -0.16834381551362684,
                1.0985074626865672
            ]
        ],
        [
            [
                -0.041299790356394125,
                1.248507462686567
            ],
            [
                0.0010482180293501049,
                1.2985074626865671
            ],
            [
                0.027044025157232702,
                1.2529850746268656
            ]
        ]
    ],
    "1602": [
        [
            [
                0.18259958071278828,
                1.0716417910447762
            ],
            [
                0.20859538784067086,
                1.0261194029850746
            ],
            [
                0.19308176100628935,
                0.9977611940298508
            ]
        ],
        [
            [
                0.06897274633123689,
                0.9574626865671643
            ],
            [
                0.05345911949685534,
                0.9291044776119404
            ],
            [
                0.04884696016771488,
                0.9171641791044777
            ]
        ],
        [
            [
                0.0350104821802935,
                0.8813432835820896
            ],
            [
                0.03039832285115304,
                0.8694029850746269
            ],
            [
                0.026205450733752623,
                0.8380597014925373
            ]
        ],
        [
            [
                0.013626834381551363,
                0.7440298507462687
            ],
            [
                0.009433962264150943,
                0.7126865671641791
            ],
            [
                -0.0006289308176100628,
                0.7111940298507463
            ]
        ],
        [
            [
                -0.030817610062893082,
                0.7067164179104477
            ],
            [
                -0.040880503144654086,
                0.7052238805970149
            ],
            [
                -0.04171907756813417,
                0.6783582089552239
            ]
        ],
        [
            [
                -0.04423480083857442,
                0.5977611940298507
            ],
            [
                -0.0450733752620545,
                0.5708955223880596
            ],
            [
                -0.012788259958071277,
                0.558955223880597
            ]
        ],
        [
            [
                0.0840670859538784,
                0.5231343283582089
            ],
            [
                0.11635220125786164,
                0.5111940298507462
            ],
            [
                0.1230607966457023,
                0.5276119402985074
            ]
        ],
        [
            [
                0.14318658280922433,
                0.576865671641791
            ],
            [
                0.149895178197065,
                0.5932835820895522
            ],
            [
                0.16540880503144656,
                0.5828358208955223
            ]
        ],
        [
            [
                0.21194968553459118,
                0.551492537313433
            ],
            [
                0.22746331236897274,
                0.541044776119403
            ],
            [
                0.22243186582809224,
                0.48880597014925375
            ]
        ],
        [
            [
                0.20733752620545073,
                0.332089552238806
            ],
            [
                0.20230607966457023,
                0.27985074626865675
            ],
            [
                0.2320754716981132,
                0.2388059701492537
            ]
        ],
        [
            [
                0.2186582809224319,
                -0.05597014925373139
            ],
            [
                0.24842767295597484,
                -0.09701492537313433
            ],
            [
                0.2811320754716981,
                -0.1082089552238806
            ]
        ],
        [
            [
                0.4819706498951786,
                -0.1417910447761194
            ],
            [
                0.5146750524109015,
                -0.15298507462686567
            ],
            [
                0.5452830188679246,
                -0.14328358208955227
            ]
        ],
        [
            [
                0.7356394129979036,
                -0.12164179104477613
            ],
            [
                0.7662473794549266,
                -0.11194029850746269
            ],
            [
                0.7821802935010482,
                -0.05223880597014922
            ]
        ],
        [
            [
                0.7419287211740041,
                0.29477611940298526
            ],
            [
                0.7578616352201257,
                0.3544776119402985
            ],
            [
                0.7683438155136267,
                0.41641791044776116
            ]
        ],
        [
            [
                0.784947634722821,
                0.6121409394035626
            ],
            [
                0.795429815016322,
                0.6740812379110251
            ],
            [
                0.8291621327529924,
                0.6673114119922631
            ]
        ],
        [
            [
                0.8628944504896626,
                0.6702127659574467
            ],
            [
                0.8879216539717084,
                0.6827852998065764
            ],
            [
                0.9494015233949946,
                0.6334622823984526
            ]
        ],
        [
            [
                1.011111111111111,
                0.6507462686567164
            ],
            [
                1.0345911949685533,
                0.6492537313432836
            ],
            [
                1.062264150943396,
                0.5164179104477612
            ]
        ],
        [
            [
                1.1452830188679246,
                0.11791044776119403
            ],
            [
                1.1729559748427674,
                -0.014925373134328356
            ],
            [
                1.1507337526205452,
                -0.05895522388059701
            ]
        ],
        [
            [
                1.0840670859538784,
                -0.191044776119403
            ],
            [
                1.0618448637316562,
                -0.23507462686567163
            ],
            [
                0.8064989517819706,
                -0.23059701492537316
            ]
        ],
        [
            [
                0.04046121593291403,
                -0.2171641791044776
            ],
            [
                -0.2148846960167715,
                -0.2126865671641791
            ],
            [
                -0.21404612159329142,
                0.039552238805970134
            ]
        ],
        [
            [
                -0.21153039832285117,
                0.7962686567164179
            ],
            [
                -0.21069182389937108,
                1.0485074626865671
            ],
            [
                -0.16834381551362684,
                1.0985074626865672
            ]
        ],
        [
            [
                -0.041299790356394125,
                1.248507462686567
            ],
            [
                0.0010482180293501049,
                1.2985074626865671
            ],
            [
                0.027044025157232702,
                1.2529850746268656
            ]
        ]
    ],
    "1617": [
        [
            [
                0.18259958071278828,
                1.0716417910447762
            ],
            [
                0.20859538784067086,
                1.0261194029850746
            ],
            [
                0.19308176100628935,
                0.9977611940298508
            ]
        ],
        [
            [
                0.06897274633123689,
                0.9574626865671643
            ],
            [
                0.05345911949685534,
                0.9291044776119404
            ],
            [
                0.04884696016771488,
                0.9171641791044777
            ]
        ],
        [
            [
                0.0350104821802935,
                0.8813432835820896
            ],
            [
                0.03039832285115304,
                0.8694029850746269
            ],
            [
                0.026205450733752623,
                0.8380597014925373
            ]
        ],
        [
            [
                0.013626834381551363,
                0.7440298507462687
            ],
            [
                0.009433962264150943,
                0.7126865671641791
            ],
            [
                -0.0006289308176100628,
                0.7111940298507463
            ]
        ],
        [
            [
                -0.030817610062893082,
                0.7067164179104477
            ],
            [
                -0.040880503144654086,
                0.7052238805970149
            ],
            [
                -0.04171907756813417,
                0.6783582089552239
            ]
        ],
        [
            [
                -0.04423480083857442,
                0.5977611940298507
            ],
            [
                -0.0450733752620545,
                0.5708955223880596
            ],
            [
                -0.012788259958071277,
                0.558955223880597
            ]
        ],
        [
            [
                0.0840670859538784,
                0.5231343283582089
            ],
            [
                0.11635220125786164,
                0.5111940298507462
            ],
            [
                0.1230607966457023,
                0.5276119402985074
            ]
        ],
        [
            [
                0.14318658280922433,
                0.576865671641791
            ],
            [
                0.149895178197065,
                0.5932835820895522
            ],
            [
                0.16540880503144656,
                0.5828358208955223
            ]
        ],
        [
            [
                0.21194968553459118,
                0.551492537313433
            ],
            [
                0.22746331236897274,
                0.541044776119403
            ],
            [
                0.22243186582809224,
                0.48880597014925375
            ]
        ],
        [
            [
                0.20733752620545073,
                0.332089552238806
            ],
            [
                0.20230607966457023,
                0.27985074626865675
            ],
            [
                0.2320754716981132,
                0.2388059701492537
            ]
        ],
        [
            [
                0.3004192872117401,
                0.01865671641791044
            ],
            [
                0.330188679245283,
                -0.022388059701492536
            ],
            [
                0.3628930817610063,
                -0.03358208955223882
            ]
        ],
        [
            [
                0.4882599580712791,
                -0.0373134328358209
            ],
            [
                0.520964360587002,
                -0.048507462686567165
            ],
            [
                0.5515723270440253,
                -0.03880597014925375
            ]
        ],
        [
            [
                0.6433962264150943,
                -0.020895522388059713
            ],
            [
                0.6740041928721173,
                -0.011194029850746268
            ],
            [
                0.689937106918239,
                0.04850746268656717
            ]
        ],
        [
            [
                0.7326797385620915,
                0.30465320456540823
            ],
            [
                0.7486126526082131,
                0.3643546971027217
            ],
            [
                0.7590948329017142,
                0.4262949956101844
            ]
        ],
        [
            [
                0.784947634722821,
                0.6121409394035626
            ],
            [
                0.795429815016322,
                0.6740812379110251
            ],
            [
                0.8291621327529924,
                0.6673114119922631
            ]
        ],
        [
            [
                0.8628944504896626,
                0.6702127659574467
            ],
            [
                0.8879216539717084,
                0.6827852998065764
            ],
            [
                0.9494015233949946,
                0.6334622823984526
            ]
        ],
        [
            [
                1.011111111111111,
                0.6507462686567164
            ],
            [
                1.0345911949685533,
                0.6492537313432836
            ],
            [
                1.062264150943396,
                0.5164179104477612
            ]
        ],
        [
            [
                1.1452830188679246,
                0.11791044776119403
            ],
            [
                1.1729559748427674,
                -0.014925373134328356
            ],
            [
                1.1507337526205452,
                -0.05895522388059701
            ]
        ],
        [
            [
                1.0840670859538784,
                -0.191044776119403
            ],
            [
                1.0618448637316562,
                -0.23507462686567163
            ],
            [
                0.8064989517819706,
                -0.23059701492537316
            ]
        ],
        [
            [
                0.04046121593291403,
                -0.2171641791044776
            ],
            [
                -0.2148846960167715,
                -0.2126865671641791
            ],
            [
                -0.21404612159329142,
                0.039552238805970134
            ]
        ],
        [
            [
                -0.21153039832285117,
                0.7962686567164179
            ],
            [
                -0.21069182389937108,
                1.0485074626865671
            ],
            [
                -0.16834381551362684,
                1.0985074626865672
            ]
        ],
        [
            [
                -0.041299790356394125,
                1.248507462686567
            ],
            [
                0.0010482180293501049,
                1.2985074626865671
            ],
            [
                0.027044025157232702,
                1.2529850746268656
            ]
        ]
    ],
    "1619": [
        [
            [
                0.18259958071278828,
                1.0716417910447762
            ],
            [
                0.20859538784067086,
                1.0261194029850746
            ],
            [
                0.19308176100628935,
                0.9977611940298508
            ]
        ],
        [
            [
                0.06897274633123689,
                0.9574626865671643
            ],
            [
                0.05345911949685534,
                0.9291044776119404
            ],
            [
                0.04884696016771488,
                0.9171641791044777
            ]
        ],
        [
            [
                0.0350104821802935,
                0.8813432835820896
            ],
            [
                0.03039832285115304,
                0.8694029850746269
            ],
            [
                0.026205450733752623,
                0.8380597014925373
            ]
        ],
        [
            [
                0.013626834381551363,
                0.7440298507462687
            ],
            [
                0.009433962264150943,
                0.7126865671641791
            ],
            [
                -0.0006289308176100628,
                0.7111940298507463
            ]
        ],
        [
            [
                -0.030817610062893082,
                0.7067164179104477
            ],
            [
                -0.040880503144654086,
                0.7052238805970149
            ],
            [
                -0.04171907756813417,
                0.6783582089552239
            ]
        ],
        [
            [
                -0.04423480083857442,
                0.5977611940298507
            ],
            [
                -0.0450733752620545,
                0.5708955223880596
            ],
            [
                -0.012788259958071277,
                0.558955223880597
            ]
        ],
        [
            [
                0.0840670859538784,
                0.5231343283582089
            ],
            [
                0.11635220125786164,
                0.5111940298507462
            ],
            [
                0.1230607966457023,
                0.5276119402985074
            ]
        ],
        [
            [
                0.14318658280922433,
                0.576865671641791
            ],
            [
                0.149895178197065,
                0.5932835820895522
            ],
            [
                0.16540880503144656,
                0.5828358208955223
            ]
        ],
        [
            [
                0.21194968553459118,
                0.551492537313433
            ],
            [
                0.22746331236897274,
                0.541044776119403
            ],
            [
                0.22243186582809224,
                0.48880597014925375
            ]
        ],
        [
            [
                0.20733752620545073,
                0.332089552238806
            ],
            [
                0.20230607966457023,
                0.27985074626865675
            ],
            [
                0.2320754716981132,
                0.2388059701492537
            ]
        ],
        [
            [
                0.3213836477987421,
                0.11567164179104479
            ],
            [
                0.35115303983228513,
                0.07462686567164178
            ],
            [
                0.38385744234800845,
                0.06343283582089553
            ]
        ],
        [
            [
                0.4819706498951782,
                0.029850746268656712
            ],
            [
                0.5146750524109015,
                0.018656716417910446
            ],
            [
                0.5452830188679246,
                0.02835820895522388
            ]
        ],
        [
            [
                0.6371069182389937,
                0.057462686567164176
            ],
            [
                0.6677148846960167,
                0.06716417910447761
            ],
            [
                0.6836477987421383,
                0.12686567164179105
            ]
        ],
        [
            [
                0.7314465408805031,
                0.30597014925373134
            ],
            [
                0.7473794549266247,
                0.3656716417910448
            ],
            [
                0.7578616352201257,
                0.42761194029850746
            ]
        ],
        [
            [
                0.784947634722821,
                0.6121409394035626
            ],
            [
                0.795429815016322,
                0.6740812379110251
            ],
            [
                0.8291621327529924,
                0.6673114119922631
            ]
        ],
        [
            [
                0.8628944504896626,
                0.6702127659574467
            ],
            [
                0.8879216539717084,
                0.6827852998065764
            ],
            [
                0.9494015233949946,
                0.6334622823984526
            ]
        ],
        [
            [
                1.011111111111111,
                0.6507462686567164
            ],
            [
                1.0345911949685533,
                0.6492537313432836
            ],
            [
                1.062264150943396,
                0.5164179104477612
            ]
        ],
        [
            [
                1.1452830188679246,
                0.11791044776119403
            ],
            [
                1.1729559748427674,
                -0.014925373134328356
            ],
            [
                1.1507337526205452,
                -0.05895522388059701
            ]
        ],
        [
            [
                1.0840670859538784,
                -0.191044776119403
            ],
            [
                1.0618448637316562,
                -0.23507462686567163
            ],
            [
                0.8064989517819706,
                -0.23059701492537316
            ]
        ],
        [
            [
                0.04046121593291403,
                -0.2171641791044776
            ],
            [
                -0.2148846960167715,
                -0.2126865671641791
            ],
            [
                -0.21404612159329142,
                0.039552238805970134
            ]
        ],
        [
            [
                -0.21153039832285117,
                0.7962686567164179
            ],
            [
                -0.21069182389937108,
                1.0485074626865671
            ],
            [
                -0.16834381551362684,
                1.0985074626865672
            ]
        ],
        [
            [
                -0.041299790356394125,
                1.248507462686567
            ],
            [
                0.0010482180293501049,
                1.2985074626865671
            ],
            [
                0.027044025157232702,
                1.2529850746268656
            ]
        ]
    ],
    "1780": [
        [
            [
                0.18259958071278828,
                1.0716417910447762
            ],
            [
                0.20859538784067086,
                1.0261194029850746
            ],
            [
                0.19308176100628935,
                0.9977611940298508
            ]
        ],
        [
            [
                0.06897274633123689,
                0.9574626865671643
            ],
            [
                0.05345911949685534,
                0.9291044776119404
            ],
            [
                0.04884696016771488,
                0.9171641791044777
            ]
        ],
        [
            [
                0.0350104821802935,
                0.8813432835820896
            ],
            [
                0.03039832285115304,
                0.8694029850746269
            ],
            [
                0.026205450733752623,
                0.8380597014925373
            ]
        ],
        [
            [
                0.013626834381551363,
                0.7440298507462687
            ],
            [
                0.009433962264150943,
                0.7126865671641791
            ],
            [
                -0.0006289308176100628,
                0.7111940298507463
            ]
        ],
        [
            [
                -0.030817610062893082,
                0.7067164179104477
            ],
            [
                -0.040880503144654086,
                0.7052238805970149
            ],
            [
                -0.04171907756813417,
                0.6783582089552239
            ]
        ],
        [
            [
                -0.04423480083857442,
                0.5977611940298507
            ],
            [
                -0.0450733752620545,
                0.5708955223880596
            ],
            [
                -0.012788259958071277,
                0.558955223880597
            ]
        ],
        [
            [
                0.0840670859538784,
                0.5231343283582089
            ],
            [
                0.11635220125786164,
                0.5111940298507462
            ],
            [
                0.1230607966457023,
                0.5276119402985074
            ]
        ],
        [
            [
                0.14318658280922433,
                0.576865671641791
            ],
            [
                0.149895178197065,
                0.5932835820895522
            ],
            [
                0.16540880503144656,
                0.5828358208955223
            ]
        ],
        [
            [
                0.21194968553459118,
                0.551492537313433
            ],
            [
                0.22746331236897274,
                0.541044776119403
            ],
            [
                0.22243186582809224,
                0.48880597014925375
            ]
        ],
        [
            [
                0.20733752620545073,
                0.332089552238806
            ],
            [
                0.20230607966457023,
                0.27985074626865675
            ],
            [
                0.2320754716981132,
                0.2388059701492537
            ]
        ],
        [
            [
                0.3213836477987421,
                0.11567164179104479
            ],
            [
                0.35115303983228513,
                0.07462686567164178
            ],
            [
                0.38385744234800845,
                0.06343283582089553
            ]
        ],
        [
            [
                0.4819706498951782,
                0.029850746268656712
            ],
            [
                0.5146750524109015,
                0.018656716417910446
            ],
            [
                0.5452830188679246,
                0.02835820895522388
            ]
        ],
        [
            [
                0.6371069182389937,
                0.057462686567164176
            ],
            [
                0.6677148846960167,
                0.06716417910447761
            ],
            [
                0.6836477987421383,
                0.12686567164179105
            ]
        ],
        [
            [
                0.7314465408805031,
                0.30597014925373134
            ],
            [
                0.7473794549266247,
                0.3656716417910448
            ],
            [
                0.7578616352201257,
                0.42761194029850746
            ]
        ],
        [
            [
                0.784947634722821,
                0.6121409394035626
            ],
            [
                0.795429815016322,
                0.6740812379110251
            ],
            [
                0.8291621327529924,
                0.6673114119922631
            ]
        ],
        [
            [
                0.8628944504896626,
                0.6702127659574467
            ],
            [
                0.8879216539717084,
                0.6827852998065764
            ],
            [
                0.9494015233949946,
                0.6334622823984526
            ]
        ],
        [
            [
                1.011111111111111,
                0.6507462686567164
            ],
            [
                1.0345911949685533,
                0.6492537313432836
            ],
            [
                1.062264150943396,
                0.5164179104477612
            ]
        ],
        [
            [
                1.1452830188679246,
                0.11791044776119403
            ],
            [
                1.1729559748427674,
                -0.014925373134328356
            ],
            [
                1.1507337526205452,
                -0.05895522388059701
            ]
        ],
        [
            [
                1.0840670859538784,
                -0.191044776119403
            ],
            [
                1.0618448637316562,
                -0.23507462686567163
            ],
            [
                0.8064989517819706,
                -0.23059701492537316
            ]
        ],
        [
            [
                0.04046121593291403,
                -0.2171641791044776
            ],
            [
                -0.2148846960167715,
                -0.2126865671641791
            ],
            [
                -0.21404612159329142,
                0.039552238805970134
            ]
        ],
        [
            [
                -0.21153039832285117,
                0.7962686567164179
            ],
            [
                -0.21069182389937108,
                1.0485074626865671
            ],
            [
                -0.16834381551362684,
                1.0985074626865672
            ]
        ],
        [
            [
                -0.041299790356394125,
                1.248507462686567
            ],
            [
                0.0010482180293501049,
                1.2985074626865671
            ],
            [
                0.027044025157232702,
                1.2529850746268656
            ]
        ]
    ]
}
</property>
    <property name="kdenlive:collapsed">0</property>
   </filter>
   <filter id="filter235">
    <property name="mode">alpha</property>
    <property name="alpha_operation">add</property>
    <property name="invert">0</property>
    <property name="feather">3</property>
    <property name="feather_passes">1</property>
    <property name="mlt_service">rotoscoping</property>
    <property name="kdenlive_id">rotoscoping</property>
    <property name="spline">{
    "1418": [
        [
            [
                0.05136268343815513,
                0.9514925373134329
            ],
            [
                0.0429769392033543,
                0.8787313432835822
            ],
            [
                0.0859538784067086,
                0.8246268656716418
            ]
        ],
        [
            [
                0.23941299790356388,
                0.832462686567164
            ],
            [
                0.2830188679245283,
                0.8246268656716418
            ],
            [
                0.33228511530398314,
                0.8432835820895523
            ]
        ],
        [
            [
                0.4989517819706499,
                0.8768656716417911
            ],
            [
                0.5073375262054507,
                0.9328358208955224
            ],
            [
                0.5167714884696016,
                0.9455223880597015
            ]
        ],
        [
            [
                0.5450733752620545,
                0.9835820895522387
            ],
            [
                0.5545073375262054,
                0.9962686567164178
            ],
            [
                0.5645702306079664,
                0.9888059701492538
            ]
        ],
        [
            [
                0.5947589098532494,
                0.966417910447761
            ],
            [
                0.6048218029350104,
                0.958955223880597
            ],
            [
                0.6247379454926624,
                0.9440298507462686
            ]
        ],
        [
            [
                0.6844863731656184,
                0.8992537313432837
            ],
            [
                0.7044025157232704,
                0.8843283582089553
            ],
            [
                0.7339622641509433,
                0.9044776119402985
            ]
        ],
        [
            [
                0.8226415094339622,
                0.9649253731343284
            ],
            [
                0.8522012578616351,
                0.9850746268656716
            ],
            [
                0.8561844863731655,
                0.9597014925373133
            ]
        ],
        [
            [
                0.8681341719077568,
                0.8835820895522388
            ],
            [
                0.8721174004192871,
                0.8582089552238806
            ],
            [
                0.8515723270440251,
                0.8380597014925373
            ]
        ],
        [
            [
                0.7851153039832285,
                0.8190298507462687
            ],
            [
                0.7693920335429769,
                0.7574626865671642
            ],
            [
                0.7641509433962264,
                0.6753731343283582
            ]
        ],
        [
            [
                0.8522012578616351,
                0.6809701492537314
            ],
            [
                0.8553459119496855,
                0.6865671641791045
            ],
            [
                0.8620545073375261,
                0.6876865671641791
            ]
        ],
        [
            [
                0.8821802935010481,
                0.691044776119403
            ],
            [
                0.8888888888888888,
                0.6921641791044776
            ],
            [
                0.9339622641509434,
                0.6492537313432836
            ]
        ],
        [
            [
                0.9727463312368972,
                0.6529850746268657
            ],
            [
                0.9989517819706498,
                0.6492537313432836
            ],
            [
                1.00272536687631,
                0.6895522388059703
            ]
        ],
        [
            [
                1.0580712788259958,
                0.8291044776119403
            ],
            [
                1.0618448637316562,
                0.8694029850746269
            ],
            [
                1.0259958071278825,
                0.866044776119403
            ]
        ],
        [
            [
                0.9184486373165619,
                0.8559701492537313
            ],
            [
                0.8825995807127883,
                0.8526119402985074
            ],
            [
                0.880083857442348,
                0.8805970149253731
            ]
        ],
        [
            [
                0.8725366876310273,
                0.9645522388059703
            ],
            [
                0.870020964360587,
                0.9925373134328359
            ],
            [
                0.8626834381551363,
                1.0395522388059704
            ]
        ],
        [
            [
                0.8406708595387841,
                1.180597014925373
            ],
            [
                0.8333333333333334,
                1.2276119402985075
            ],
            [
                0.7046121593291405,
                1.2119402985074628
            ]
        ],
        [
            [
                0.31844863731656187,
                1.1649253731343283
            ],
            [
                0.18972746331236898,
                1.1492537313432836
            ],
            [
                0.190146750524109,
                1.1223880597014926
            ]
        ],
        [
            [
                0.19140461215932916,
                1.0417910447761194
            ],
            [
                0.19182389937106917,
                1.0149253731343284
            ],
            [
                0.19433962264150942,
                1.0037313432835822
            ]
        ],
        [
            [
                0.19769392033542976,
                0.9776119402985075
            ],
            [
                0.20020964360587,
                0.9664179104477613
            ],
            [
                0.16771488469601675,
                0.9552238805970148
            ]
        ]
    ],
    "1790": [
        [
            [
                0.05136268343815513,
                0.9514925373134329
            ],
            [
                0.0429769392033543,
                0.8787313432835822
            ],
            [
                0.0859538784067086,
                0.8246268656716418
            ]
        ],
        [
            [
                0.23941299790356388,
                0.832462686567164
            ],
            [
                0.2830188679245283,
                0.8246268656716418
            ],
            [
                0.33228511530398314,
                0.8432835820895523
            ]
        ],
        [
            [
                0.4989517819706499,
                0.8768656716417911
            ],
            [
                0.5073375262054507,
                0.9328358208955224
            ],
            [
                0.5167714884696016,
                0.9455223880597015
            ]
        ],
        [
            [
                0.5450733752620545,
                0.9835820895522387
            ],
            [
                0.5545073375262054,
                0.9962686567164178
            ],
            [
                0.5645702306079664,
                0.9888059701492538
            ]
        ],
        [
            [
                0.5947589098532494,
                0.966417910447761
            ],
            [
                0.6048218029350104,
                0.958955223880597
            ],
            [
                0.6247379454926624,
                0.9440298507462686
            ]
        ],
        [
            [
                0.6844863731656184,
                0.8992537313432837
            ],
            [
                0.7044025157232704,
                0.8843283582089553
            ],
            [
                0.7339622641509433,
                0.9044776119402985
            ]
        ],
        [
            [
                0.8226415094339622,
                0.9649253731343284
            ],
            [
                0.8522012578616351,
                0.9850746268656716
            ],
            [
                0.8561844863731655,
                0.9597014925373133
            ]
        ],
        [
            [
                0.8681341719077568,
                0.8835820895522388
            ],
            [
                0.8721174004192871,
                0.8582089552238806
            ],
            [
                0.8515723270440251,
                0.8380597014925373
            ]
        ],
        [
            [
                0.7851153039832285,
                0.8190298507462687
            ],
            [
                0.7693920335429769,
                0.7574626865671642
            ],
            [
                0.7641509433962264,
                0.6753731343283582
            ]
        ],
        [
            [
                0.8522012578616351,
                0.6809701492537314
            ],
            [
                0.8553459119496855,
                0.6865671641791045
            ],
            [
                0.8620545073375261,
                0.6876865671641791
            ]
        ],
        [
            [
                0.8821802935010481,
                0.691044776119403
            ],
            [
                0.8888888888888888,
                0.6921641791044776
            ],
            [
                0.9339622641509434,
                0.6492537313432836
            ]
        ],
        [
            [
                0.9727463312368972,
                0.6529850746268657
            ],
            [
                0.9989517819706498,
                0.6492537313432836
            ],
            [
                1.00272536687631,
                0.6895522388059703
            ]
        ],
        [
            [
                1.0580712788259958,
                0.8291044776119403
            ],
            [
                1.0618448637316562,
                0.8694029850746269
            ],
            [
                1.0259958071278825,
                0.866044776119403
            ]
        ],
        [
            [
                0.9184486373165619,
                0.8559701492537313
            ],
            [
                0.8825995807127883,
                0.8526119402985074
            ],
            [
                0.880083857442348,
                0.8805970149253731
            ]
        ],
        [
            [
                0.8725366876310273,
                0.9645522388059703
            ],
            [
                0.870020964360587,
                0.9925373134328359
            ],
            [
                0.8626834381551363,
                1.0395522388059704
            ]
        ],
        [
            [
                0.8406708595387841,
                1.180597014925373
            ],
            [
                0.8333333333333334,
                1.2276119402985075
            ],
            [
                0.7046121593291405,
                1.2119402985074628
            ]
        ],
        [
            [
                0.31844863731656187,
                1.1649253731343283
            ],
            [
                0.18972746331236898,
                1.1492537313432836
            ],
            [
                0.190146750524109,
                1.1223880597014926
            ]
        ],
        [
            [
                0.19140461215932916,
                1.0417910447761194
            ],
            [
                0.19182389937106917,
                1.0149253731343284
            ],
            [
                0.19433962264150942,
                1.0037313432835822
            ]
        ],
        [
            [
                0.19769392033542976,
                0.9776119402985075
            ],
            [
                0.20020964360587,
                0.9664179104477613
            ],
            [
                0.16771488469601675,
                0.9552238805970148
            ]
        ]
    ]
}
</property>
    <property name="kdenlive:collapsed">0</property>
   </filter>
   <filter id="filter236">
    <property name="lift_r">-0.403632</property>
    <property name="lift_g">-0.437507</property>
    <property name="lift_b">-0.388586</property>
    <property name="gamma_r">1.05</property>
    <property name="gamma_g">0.957198</property>
    <property name="gamma_b">0.864393</property>
    <property name="gain_r">1.07503</property>
    <property name="gain_g">0.914015</property>
    <property name="gain_b">0.789319</property>
    <property name="mlt_service">lift_gamma_gain</property>
    <property name="kdenlive_id">lift_gamma_gain</property>
    <property name="kdenlive:collapsed">0</property>
   </filter>
   <filter id="filter237">
    <property name="version">0.1</property>
    <property name="mlt_service">frei0r.mask0mate</property>
    <property name="kdenlive_id">frei0r.mask0mate</property>
    <property name="Left">00:00:47.267=0;00:00:59.667=0</property>
    <property name="Right">00:00:47.267=0;00:00:59.667=0</property>
    <property name="Top">00:00:47.267=0;00:00:59.667=0</property>
    <property name="Bottom">00:00:47.267=0.189511;00:00:59.667=0.047</property>
    <property name="Invert">1</property>
    <property name="Blur">00:00:47.267=0.233922;00:00:59.667=0.097</property>
    <property name="kdenlive:collapsed">0</property>
   </filter>
   <filter id="filter238" in="00:00:59.367" out="00:00:59.667">
    <property name="start">1</property>
    <property name="mlt_service">brightness</property>
    <property name="kdenlive_id">fade_to_black</property>
    <property name="end">0</property>
    <property name="alpha">-1</property>
   </filter>
  </entry>
 </playlist>
 <playlist id="playlist19"/>
 <tractor id="tractor9" in="00:00:00.000" out="00:05:25.100">
  <property name="kdenlive:trackheight">69</property>
  <property name="kdenlive:timeline_active">1</property>
  <property name="kdenlive:collapsed">28</property>
  <property name="kdenlive:track_name">sarah-ride_side</property>
  <property name="kdenlive:thumbs_format"/>
  <property name="kdenlive:audio_rec"/>
  <property name="kdenlive:locked_track"/>
  <track hide="audio" producer="playlist18"/>
  <track producer="playlist19"/>
 </tractor>
 <producer id="producer228" in="00:00:00.000" out="00:04:00.633">
  <property name="length">7220</property>
  <property name="eof">pause</property>
  <property name="resource">/home/ryankelln/.cache/kdenlive/proxy/6cc6aac066acb725bcb6d037e40393dc.mkv</property>
  <property name="audio_index">1</property>
  <property name="video_index">0</property>
  <property name="mute_on_pause">0</property>
  <property name="mlt_service">avformat-novalidate</property>
  <property name="seekable">1</property>
  <property name="aspect_ratio">1</property>
  <property name="kdenlive:clipname">2021-06-02_06-08-41_Sarah_kit_jackson_MVI_6065-take3_beginning.MP4</property>
  <property name="kdenlive:folderid">41</property>
  <property name="kdenlive:id">33</property>
  <property name="kdenlive:file_size">907786194</property>
  <property name="kdenlive:file_hash">6cc6aac066acb725bcb6d037e40393dc</property>
  <property name="kdenlive:proxy">/home/ryankelln/.cache/kdenlive/proxy/6cc6aac066acb725bcb6d037e40393dc.mkv</property>
  <property name="kdenlive:originalurl">content/musicians/2021-06-02_06-08-41_Sarah_kit_jackson_MVI_6065-take3_beginning.MP4</property>
  <property name="kdenlive:original.mlt_type">producer</property>
  <property name="kdenlive:original.in">0</property>
  <property name="kdenlive:original.out">7219</property>
  <property name="kdenlive:original.length">7220</property>
  <property name="kdenlive:original.eof">pause</property>
  <property name="kdenlive:original.resource">content/musicians/2021-06-02_06-08-41_Sarah_kit_jackson_MVI_6065-take3_beginning.MP4</property>
  <property name="kdenlive:original.meta.media.nb_streams">2</property>
  <property name="kdenlive:original.meta.media.0.stream.type">video</property>
  <property name="kdenlive:original.meta.media.0.stream.frame_rate">29.97</property>
  <property name="kdenlive:original.meta.media.0.stream.sample_aspect_ratio">0</property>
  <property name="kdenlive:original.meta.media.0.codec.width">1920</property>
  <property name="kdenlive:original.meta.media.0.codec.height">1080</property>
  <property name="kdenlive:original.meta.media.0.codec.rotate">0</property>
  <property name="kdenlive:original.meta.media.0.codec.frame_rate">30000</property>
  <property name="kdenlive:original.meta.media.0.codec.pix_fmt">yuvj420p</property>
  <property name="kdenlive:original.meta.media.0.codec.sample_aspect_ratio">0</property>
  <property name="kdenlive:original.meta.media.0.codec.colorspace">709</property>
  <property name="kdenlive:original.meta.media.0.codec.color_trc">1</property>
  <property name="kdenlive:original.meta.media.0.codec.name">h264</property>
  <property name="kdenlive:original.meta.media.0.codec.long_name">H.264 / AVC / MPEG-4 AVC / MPEG-4 part 10</property>
  <property name="kdenlive:original.meta.media.0.codec.bit_rate">29924092</property>
  <property name="kdenlive:original.meta.attr.0.stream.creation_time.markup">2021-06-02T06:08:41.000000Z</property>
  <property name="kdenlive:original.meta.attr.0.stream.language.markup">eng</property>
  <property name="kdenlive:original.meta.attr.0.stream.handler_name.markup">VideoHandler</property>
  <property name="kdenlive:original.meta.media.1.stream.type">audio</property>
  <property name="kdenlive:original.meta.media.1.codec.sample_fmt">fltp</property>
  <property name="kdenlive:original.meta.media.1.codec.sample_rate">48000</property>
  <property name="kdenlive:original.meta.media.1.codec.channels">2</property>
  <property name="kdenlive:original.meta.media.1.codec.name">aac</property>
  <property name="kdenlive:original.meta.media.1.codec.long_name">AAC (Advanced Audio Coding)</property>
  <property name="kdenlive:original.meta.media.1.codec.bit_rate">254680</property>
  <property name="kdenlive:original.meta.attr.1.stream.creation_time.markup">2021-06-02T06:08:41.000000Z</property>
  <property name="kdenlive:original.meta.attr.1.stream.language.markup">eng</property>
  <property name="kdenlive:original.meta.attr.1.stream.handler_name.markup">SoundHandler</property>
  <property name="kdenlive:original.meta.attr.major_brand.markup">isom</property>
  <property name="kdenlive:original.meta.attr.minor_version.markup">512</property>
  <property name="kdenlive:original.meta.attr.compatible_brands.markup">isomiso2avc1mp41</property>
  <property name="kdenlive:original.meta.attr.creation_time.markup">2021-06-02T06:08:41.000000Z</property>
  <property name="kdenlive:original.meta.attr.encoder.markup">Lavf58.45.100</property>
  <property name="kdenlive:original.seekable">1</property>
  <property name="kdenlive:original.width">1920</property>
  <property name="kdenlive:original.height">1080</property>
  <property name="kdenlive:original.meta.media.sample_aspect_num">1</property>
  <property name="kdenlive:original.meta.media.sample_aspect_den">1</property>
  <property name="kdenlive:original.aspect_ratio">1</property>
  <property name="kdenlive:original.audio_index">1</property>
  <property name="kdenlive:original.video_index">0</property>
  <property name="kdenlive:original.mute_on_pause">0</property>
  <property name="kdenlive:original.mlt_service">avformat-novalidate</property>
  <property name="kdenlive:original.kdenlive:folderid">41</property>
  <property name="kdenlive:original.meta.media.frame_rate_num">30000</property>
  <property name="kdenlive:original.meta.media.frame_rate_den">1001</property>
  <property name="kdenlive:original.meta.media.colorspace">709</property>
  <property name="kdenlive:original.meta.media.color_trc">1</property>
  <property name="kdenlive:original.meta.media.width">1920</property>
  <property name="kdenlive:original.meta.media.height">1080</property>
  <property name="kdenlive:original.meta.media.color_range">full</property>
  <property name="kdenlive:original.kdenlive:id">49</property>
  <property name="kdenlive:original.kdenlive:file_size">907786194</property>
  <property name="kdenlive:original.kdenlive:file_hash">6cc6aac066acb725bcb6d037e40393dc</property>
  <property name="kdenlive:original.backup">1</property>
  <property name="kdenlive:audio_max">1</property>
  <property name="global_feed">1</property>
  <property name="xml">was here</property>
  <property name="meta.media.nb_streams">2</property>
  <property name="meta.media.0.stream.type">video</property>
  <property name="meta.media.0.stream.frame_rate">29.97</property>
  <property name="meta.media.0.stream.sample_aspect_ratio">0</property>
  <property name="meta.media.0.codec.width">640</property>
  <property name="meta.media.0.codec.height">360</property>
  <property name="meta.media.0.codec.rotate">0</property>
  <property name="meta.media.0.codec.frame_rate">1000</property>
  <property name="meta.media.0.codec.pix_fmt">yuvj420p</property>
  <property name="meta.media.0.codec.sample_aspect_ratio">0</property>
  <property name="meta.media.0.codec.colorspace">601</property>
  <property name="meta.media.0.codec.name">mjpeg</property>
  <property name="meta.media.0.codec.long_name">MJPEG (Motion JPEG)</property>
  <property name="meta.media.0.codec.bit_rate">0</property>
  <property name="meta.attr.0.stream.language.markup">eng</property>
  <property name="meta.attr.0.stream.HANDLER_NAME.markup">VideoHandler</property>
  <property name="meta.attr.0.stream.ENCODER.markup">Lavc58.91.100 mjpeg</property>
  <property name="meta.attr.0.stream.DURATION.markup">00:04:00.707000000</property>
  <property name="meta.media.1.stream.type">audio</property>
  <property name="meta.media.1.codec.sample_fmt">s16</property>
  <property name="meta.media.1.codec.sample_rate">48000</property>
  <property name="meta.media.1.codec.channels">2</property>
  <property name="meta.media.1.codec.name">pcm_s16le</property>
  <property name="meta.media.1.codec.long_name">PCM signed 16-bit little-endian</property>
  <property name="meta.media.1.codec.bit_rate">1536000</property>
  <property name="meta.attr.1.stream.language.markup">eng</property>
  <property name="meta.attr.1.stream.HANDLER_NAME.markup">SoundHandler</property>
  <property name="meta.attr.1.stream.ENCODER.markup">Lavc58.91.100 pcm_s16le</property>
  <property name="meta.attr.1.stream.DURATION.markup">00:04:00.661000000</property>
  <property name="meta.attr.COMPATIBLE_BRANDS.markup">isomiso2avc1mp41</property>
  <property name="meta.attr.MAJOR_BRAND.markup">isom</property>
  <property name="meta.attr.MINOR_VERSION.markup">512</property>
  <property name="meta.attr.ENCODER.markup">Lavf58.45.100</property>
  <property name="meta.media.sample_aspect_num">1</property>
  <property name="meta.media.sample_aspect_den">1</property>
  <property name="meta.media.frame_rate_num">30000</property>
  <property name="meta.media.frame_rate_den">1001</property>
  <property name="meta.media.colorspace">601</property>
  <property name="meta.media.color_trc">2</property>
  <property name="meta.media.width">640</property>
  <property name="meta.media.height">360</property>
  <property name="meta.media.color_range">full</property>
  <property name="meta.media.top_field_first">0</property>
  <property name="meta.media.progressive">1</property>
  <property name="set.test_audio">1</property>
  <property name="set.test_image">1</property>
 </producer>
 <producer id="producer229" in="00:00:00.000" out="00:02:25.600">
  <property name="length">4369</property>
  <property name="eof">pause</property>
  <property name="resource">/home/ryankelln/.cache/kdenlive/proxy/d18eb62689895facb662cd2af8c4521b.mkv</property>
  <property name="audio_index">1</property>
  <property name="video_index">0</property>
  <property name="mute_on_pause">0</property>
  <property name="mlt_service">avformat-novalidate</property>
  <property name="seekable">1</property>
  <property name="aspect_ratio">1</property>
  <property name="kdenlive:clipname">2021-06-02_06-26-54_Sarah_kit_jackson_MVI_6066-take4_m44_to_end.MP4</property>
  <property name="kdenlive:folderid">41</property>
  <property name="kdenlive:id">34</property>
  <property name="kdenlive:file_size">549926658</property>
  <property name="kdenlive:file_hash">d18eb62689895facb662cd2af8c4521b</property>
  <property name="kdenlive:proxy">/home/ryankelln/.cache/kdenlive/proxy/d18eb62689895facb662cd2af8c4521b.mkv</property>
  <property name="kdenlive:originalurl">content/musicians/2021-06-02_06-26-54_Sarah_kit_jackson_MVI_6066-take4_m44_to_end.MP4</property>
  <property name="kdenlive:original.mlt_type">producer</property>
  <property name="kdenlive:original.in">0</property>
  <property name="kdenlive:original.out">4368</property>
  <property name="kdenlive:original.length">4369</property>
  <property name="kdenlive:original.eof">pause</property>
  <property name="kdenlive:original.resource">content/musicians/2021-06-02_06-26-54_Sarah_kit_jackson_MVI_6066-take4_m44_to_end.MP4</property>
  <property name="kdenlive:original.meta.media.nb_streams">2</property>
  <property name="kdenlive:original.meta.media.0.stream.type">video</property>
  <property name="kdenlive:original.meta.media.0.stream.frame_rate">29.97</property>
  <property name="kdenlive:original.meta.media.0.stream.sample_aspect_ratio">0</property>
  <property name="kdenlive:original.meta.media.0.codec.width">1920</property>
  <property name="kdenlive:original.meta.media.0.codec.height">1080</property>
  <property name="kdenlive:original.meta.media.0.codec.rotate">0</property>
  <property name="kdenlive:original.meta.media.0.codec.frame_rate">30000</property>
  <property name="kdenlive:original.meta.media.0.codec.pix_fmt">yuvj420p</property>
  <property name="kdenlive:original.meta.media.0.codec.sample_aspect_ratio">0</property>
  <property name="kdenlive:original.meta.media.0.codec.colorspace">709</property>
  <property name="kdenlive:original.meta.media.0.codec.color_trc">1</property>
  <property name="kdenlive:original.meta.media.0.codec.name">h264</property>
  <property name="kdenlive:original.meta.media.0.codec.long_name">H.264 / AVC / MPEG-4 AVC / MPEG-4 part 10</property>
  <property name="kdenlive:original.meta.media.0.codec.bit_rate">29956534</property>
  <property name="kdenlive:original.meta.attr.0.stream.creation_time.markup">2021-06-02T06:26:54.000000Z</property>
  <property name="kdenlive:original.meta.attr.0.stream.language.markup">eng</property>
  <property name="kdenlive:original.meta.attr.0.stream.handler_name.markup">VideoHandler</property>
  <property name="kdenlive:original.meta.media.1.stream.type">audio</property>
  <property name="kdenlive:original.meta.media.1.codec.sample_fmt">fltp</property>
  <property name="kdenlive:original.meta.media.1.codec.sample_rate">48000</property>
  <property name="kdenlive:original.meta.media.1.codec.channels">2</property>
  <property name="kdenlive:original.meta.media.1.codec.name">aac</property>
  <property name="kdenlive:original.meta.media.1.codec.long_name">AAC (Advanced Audio Coding)</property>
  <property name="kdenlive:original.meta.media.1.codec.bit_rate">255001</property>
  <property name="kdenlive:original.meta.attr.1.stream.creation_time.markup">2021-06-02T06:26:54.000000Z</property>
  <property name="kdenlive:original.meta.attr.1.stream.language.markup">eng</property>
  <property name="kdenlive:original.meta.attr.1.stream.handler_name.markup">SoundHandler</property>
  <property name="kdenlive:original.meta.attr.major_brand.markup">isom</property>
  <property name="kdenlive:original.meta.attr.minor_version.markup">512</property>
  <property name="kdenlive:original.meta.attr.compatible_brands.markup">isomiso2avc1mp41</property>
  <property name="kdenlive:original.meta.attr.creation_time.markup">2021-06-02T06:26:54.000000Z</property>
  <property name="kdenlive:original.meta.attr.encoder.markup">Lavf58.45.100</property>
  <property name="kdenlive:original.seekable">1</property>
  <property name="kdenlive:original.width">1920</property>
  <property name="kdenlive:original.height">1080</property>
  <property name="kdenlive:original.meta.media.sample_aspect_num">1</property>
  <property name="kdenlive:original.meta.media.sample_aspect_den">1</property>
  <property name="kdenlive:original.aspect_ratio">1</property>
  <property name="kdenlive:original.audio_index">1</property>
  <property name="kdenlive:original.video_index">0</property>
  <property name="kdenlive:original.mute_on_pause">0</property>
  <property name="kdenlive:original.mlt_service">avformat-novalidate</property>
  <property name="kdenlive:original.kdenlive:folderid">41</property>
  <property name="kdenlive:original.meta.media.frame_rate_num">30000</property>
  <property name="kdenlive:original.meta.media.frame_rate_den">1001</property>
  <property name="kdenlive:original.meta.media.colorspace">709</property>
  <property name="kdenlive:original.meta.media.color_trc">1</property>
  <property name="kdenlive:original.meta.media.width">1920</property>
  <property name="kdenlive:original.meta.media.height">1080</property>
  <property name="kdenlive:original.meta.media.color_range">full</property>
  <property name="kdenlive:original.kdenlive:id">50</property>
  <property name="kdenlive:original.kdenlive:file_size">549926658</property>
  <property name="kdenlive:original.kdenlive:file_hash">d18eb62689895facb662cd2af8c4521b</property>
  <property name="kdenlive:original.backup">1</property>
  <property name="kdenlive:audio_max">1</property>
  <property name="global_feed">1</property>
  <property name="xml">was here</property>
  <property name="meta.media.nb_streams">2</property>
  <property name="meta.media.0.stream.type">video</property>
  <property name="meta.media.0.stream.frame_rate">29.97</property>
  <property name="meta.media.0.stream.sample_aspect_ratio">0</property>
  <property name="meta.media.0.codec.width">640</property>
  <property name="meta.media.0.codec.height">360</property>
  <property name="meta.media.0.codec.rotate">0</property>
  <property name="meta.media.0.codec.frame_rate">1000</property>
  <property name="meta.media.0.codec.pix_fmt">yuvj420p</property>
  <property name="meta.media.0.codec.sample_aspect_ratio">0</property>
  <property name="meta.media.0.codec.colorspace">601</property>
  <property name="meta.media.0.codec.name">mjpeg</property>
  <property name="meta.media.0.codec.long_name">MJPEG (Motion JPEG)</property>
  <property name="meta.media.0.codec.bit_rate">0</property>
  <property name="meta.attr.0.stream.language.markup">eng</property>
  <property name="meta.attr.0.stream.HANDLER_NAME.markup">VideoHandler</property>
  <property name="meta.attr.0.stream.ENCODER.markup">Lavc58.91.100 mjpeg</property>
  <property name="meta.attr.0.stream.DURATION.markup">00:02:25.712000000</property>
  <property name="meta.media.1.stream.type">audio</property>
  <property name="meta.media.1.codec.sample_fmt">s16</property>
  <property name="meta.media.1.codec.sample_rate">48000</property>
  <property name="meta.media.1.codec.channels">2</property>
  <property name="meta.media.1.codec.name">pcm_s16le</property>
  <property name="meta.media.1.codec.long_name">PCM signed 16-bit little-endian</property>
  <property name="meta.media.1.codec.bit_rate">1536000</property>
  <property name="meta.attr.1.stream.language.markup">eng</property>
  <property name="meta.attr.1.stream.HANDLER_NAME.markup">SoundHandler</property>
  <property name="meta.attr.1.stream.ENCODER.markup">Lavc58.91.100 pcm_s16le</property>
  <property name="meta.attr.1.stream.DURATION.markup">00:02:25.621000000</property>
  <property name="meta.attr.COMPATIBLE_BRANDS.markup">isomiso2avc1mp41</property>
  <property name="meta.attr.MAJOR_BRAND.markup">isom</property>
  <property name="meta.attr.MINOR_VERSION.markup">512</property>
  <property name="meta.attr.ENCODER.markup">Lavf58.45.100</property>
  <property name="meta.media.sample_aspect_num">1</property>
  <property name="meta.media.sample_aspect_den">1</property>
  <property name="meta.media.frame_rate_num">30000</property>
  <property name="meta.media.frame_rate_den">1001</property>
  <property name="meta.media.colorspace">601</property>
  <property name="meta.media.color_trc">2</property>
  <property name="meta.media.width">640</property>
  <property name="meta.media.height">360</property>
  <property name="meta.media.color_range">full</property>
  <property name="meta.media.top_field_first">0</property>
  <property name="meta.media.progressive">1</property>
  <property name="set.test_audio">1</property>
  <property name="set.test_image">1</property>
 </producer>
 <producer id="producer230" in="00:00:00.000" out="00:02:25.600">
  <property name="length">4369</property>
  <property name="eof">pause</property>
  <property name="resource">/home/ryankelln/.cache/kdenlive/proxy/d18eb62689895facb662cd2af8c4521b.mkv</property>
  <property name="audio_index">1</property>
  <property name="video_index">0</property>
  <property name="mute_on_pause">0</property>
  <property name="mlt_service">avformat-novalidate</property>
  <property name="seekable">1</property>
  <property name="aspect_ratio">1</property>
  <property name="kdenlive:clipname">2021-06-02_06-26-54_Sarah_kit_jackson_MVI_6066-take4_m44_to_end.MP4</property>
  <property name="kdenlive:folderid">41</property>
  <property name="kdenlive:id">34</property>
  <property name="kdenlive:file_size">549926658</property>
  <property name="kdenlive:file_hash">d18eb62689895facb662cd2af8c4521b</property>
  <property name="kdenlive:proxy">/home/ryankelln/.cache/kdenlive/proxy/d18eb62689895facb662cd2af8c4521b.mkv</property>
  <property name="kdenlive:originalurl">content/musicians/2021-06-02_06-26-54_Sarah_kit_jackson_MVI_6066-take4_m44_to_end.MP4</property>
  <property name="kdenlive:original.mlt_type">producer</property>
  <property name="kdenlive:original.in">0</property>
  <property name="kdenlive:original.out">4368</property>
  <property name="kdenlive:original.length">4369</property>
  <property name="kdenlive:original.eof">pause</property>
  <property name="kdenlive:original.resource">content/musicians/2021-06-02_06-26-54_Sarah_kit_jackson_MVI_6066-take4_m44_to_end.MP4</property>
  <property name="kdenlive:original.meta.media.nb_streams">2</property>
  <property name="kdenlive:original.meta.media.0.stream.type">video</property>
  <property name="kdenlive:original.meta.media.0.stream.frame_rate">29.97</property>
  <property name="kdenlive:original.meta.media.0.stream.sample_aspect_ratio">0</property>
  <property name="kdenlive:original.meta.media.0.codec.width">1920</property>
  <property name="kdenlive:original.meta.media.0.codec.height">1080</property>
  <property name="kdenlive:original.meta.media.0.codec.rotate">0</property>
  <property name="kdenlive:original.meta.media.0.codec.frame_rate">30000</property>
  <property name="kdenlive:original.meta.media.0.codec.pix_fmt">yuvj420p</property>
  <property name="kdenlive:original.meta.media.0.codec.sample_aspect_ratio">0</property>
  <property name="kdenlive:original.meta.media.0.codec.colorspace">709</property>
  <property name="kdenlive:original.meta.media.0.codec.color_trc">1</property>
  <property name="kdenlive:original.meta.media.0.codec.name">h264</property>
  <property name="kdenlive:original.meta.media.0.codec.long_name">H.264 / AVC / MPEG-4 AVC / MPEG-4 part 10</property>
  <property name="kdenlive:original.meta.media.0.codec.bit_rate">29956534</property>
  <property name="kdenlive:original.meta.attr.0.stream.creation_time.markup">2021-06-02T06:26:54.000000Z</property>
  <property name="kdenlive:original.meta.attr.0.stream.language.markup">eng</property>
  <property name="kdenlive:original.meta.attr.0.stream.handler_name.markup">VideoHandler</property>
  <property name="kdenlive:original.meta.media.1.stream.type">audio</property>
  <property name="kdenlive:original.meta.media.1.codec.sample_fmt">fltp</property>
  <property name="kdenlive:original.meta.media.1.codec.sample_rate">48000</property>
  <property name="kdenlive:original.meta.media.1.codec.channels">2</property>
  <property name="kdenlive:original.meta.media.1.codec.name">aac</property>
  <property name="kdenlive:original.meta.media.1.codec.long_name">AAC (Advanced Audio Coding)</property>
  <property name="kdenlive:original.meta.media.1.codec.bit_rate">255001</property>
  <property name="kdenlive:original.meta.attr.1.stream.creation_time.markup">2021-06-02T06:26:54.000000Z</property>
  <property name="kdenlive:original.meta.attr.1.stream.language.markup">eng</property>
  <property name="kdenlive:original.meta.attr.1.stream.handler_name.markup">SoundHandler</property>
  <property name="kdenlive:original.meta.attr.major_brand.markup">isom</property>
  <property name="kdenlive:original.meta.attr.minor_version.markup">512</property>
  <property name="kdenlive:original.meta.attr.compatible_brands.markup">isomiso2avc1mp41</property>
  <property name="kdenlive:original.meta.attr.creation_time.markup">2021-06-02T06:26:54.000000Z</property>
  <property name="kdenlive:original.meta.attr.encoder.markup">Lavf58.45.100</property>
  <property name="kdenlive:original.seekable">1</property>
  <property name="kdenlive:original.width">1920</property>
  <property name="kdenlive:original.height">1080</property>
  <property name="kdenlive:original.meta.media.sample_aspect_num">1</property>
  <property name="kdenlive:original.meta.media.sample_aspect_den">1</property>
  <property name="kdenlive:original.aspect_ratio">1</property>
  <property name="kdenlive:original.audio_index">1</property>
  <property name="kdenlive:original.video_index">0</property>
  <property name="kdenlive:original.mute_on_pause">0</property>
  <property name="kdenlive:original.mlt_service">avformat-novalidate</property>
  <property name="kdenlive:original.kdenlive:folderid">41</property>
  <property name="kdenlive:original.meta.media.frame_rate_num">30000</property>
  <property name="kdenlive:original.meta.media.frame_rate_den">1001</property>
  <property name="kdenlive:original.meta.media.colorspace">709</property>
  <property name="kdenlive:original.meta.media.color_trc">1</property>
  <property name="kdenlive:original.meta.media.width">1920</property>
  <property name="kdenlive:original.meta.media.height">1080</property>
  <property name="kdenlive:original.meta.media.color_range">full</property>
  <property name="kdenlive:original.kdenlive:id">50</property>
  <property name="kdenlive:original.kdenlive:file_size">549926658</property>
  <property name="kdenlive:original.kdenlive:file_hash">d18eb62689895facb662cd2af8c4521b</property>
  <property name="kdenlive:original.backup">1</property>
  <property name="kdenlive:audio_max">1</property>
  <property name="global_feed">1</property>
  <property name="xml">was here</property>
  <property name="meta.media.nb_streams">2</property>
  <property name="meta.media.0.stream.type">video</property>
  <property name="meta.media.0.stream.frame_rate">29.97</property>
  <property name="meta.media.0.stream.sample_aspect_ratio">0</property>
  <property name="meta.media.0.codec.width">640</property>
  <property name="meta.media.0.codec.height">360</property>
  <property name="meta.media.0.codec.rotate">0</property>
  <property name="meta.media.0.codec.frame_rate">1000</property>
  <property name="meta.media.0.codec.pix_fmt">yuvj420p</property>
  <property name="meta.media.0.codec.sample_aspect_ratio">0</property>
  <property name="meta.media.0.codec.colorspace">601</property>
  <property name="meta.media.0.codec.name">mjpeg</property>
  <property name="meta.media.0.codec.long_name">MJPEG (Motion JPEG)</property>
  <property name="meta.media.0.codec.bit_rate">0</property>
  <property name="meta.attr.0.stream.language.markup">eng</property>
  <property name="meta.attr.0.stream.HANDLER_NAME.markup">VideoHandler</property>
  <property name="meta.attr.0.stream.ENCODER.markup">Lavc58.91.100 mjpeg</property>
  <property name="meta.attr.0.stream.DURATION.markup">00:02:25.712000000</property>
  <property name="meta.media.1.stream.type">audio</property>
  <property name="meta.media.1.codec.sample_fmt">s16</property>
  <property name="meta.media.1.codec.sample_rate">48000</property>
  <property name="meta.media.1.codec.channels">2</property>
  <property name="meta.media.1.codec.name">pcm_s16le</property>
  <property name="meta.media.1.codec.long_name">PCM signed 16-bit little-endian</property>
  <property name="meta.media.1.codec.bit_rate">1536000</property>
  <property name="meta.attr.1.stream.language.markup">eng</property>
  <property name="meta.attr.1.stream.HANDLER_NAME.markup">SoundHandler</property>
  <property name="meta.attr.1.stream.ENCODER.markup">Lavc58.91.100 pcm_s16le</property>
  <property name="meta.attr.1.stream.DURATION.markup">00:02:25.621000000</property>
  <property name="meta.attr.COMPATIBLE_BRANDS.markup">isomiso2avc1mp41</property>
  <property name="meta.attr.MAJOR_BRAND.markup">isom</property>
  <property name="meta.attr.MINOR_VERSION.markup">512</property>
  <property name="meta.attr.ENCODER.markup">Lavf58.45.100</property>
  <property name="meta.media.sample_aspect_num">1</property>
  <property name="meta.media.sample_aspect_den">1</property>
  <property name="meta.media.frame_rate_num">30000</property>
  <property name="meta.media.frame_rate_den">1001</property>
  <property name="meta.media.colorspace">601</property>
  <property name="meta.media.color_trc">2</property>
  <property name="meta.media.width">640</property>
  <property name="meta.media.height">360</property>
  <property name="meta.media.color_range">full</property>
  <property name="meta.media.top_field_first">0</property>
  <property name="meta.media.progressive">1</property>
  <property name="set.test_audio">1</property>
  <property name="set.test_image">0</property>
 </producer>
 <playlist id="playlist20">
  <blank length="00:00:12.267"/>
  <entry producer="producer228" in="00:00:00.000" out="00:01:13.700">
   <property name="kdenlive:id">33</property>
  </entry>
  <blank length="00:00:33.933"/>
  <entry producer="producer228" in="00:01:48.667" out="00:03:14.500">
   <property name="kdenlive:id">33</property>
  </entry>
  <entry producer="producer229" in="00:00:08.133" out="00:00:53.200">
   <property name="kdenlive:id">34</property>
  </entry>
  <entry producer="producer230" in="00:00:53.233" out="00:00:55.533">
   <property name="kdenlive:id">34</property>
   <property name="kdenlive:activeeffect">1</property>
   <filter id="filter239" in="00:00:53.233" out="00:00:53.833">
    <property name="start">0</property>
    <property name="mlt_service">brightness</property>
    <property name="kdenlive_id">fade_from_black</property>
    <property name="end">1</property>
    <property name="alpha">-1</property>
    <property name="kdenlive:collapsed">0</property>
    <property name="disable">0</property>
   </filter>
   <filter id="filter240" in="00:00:55.200" out="00:00:55.533">
    <property name="start">1</property>
    <property name="mlt_service">brightness</property>
    <property name="kdenlive_id">fade_to_black</property>
    <property name="end">0</property>
    <property name="alpha">-1</property>
    <property name="kdenlive:collapsed">0</property>
    <property name="disable">0</property>
   </filter>
   <filter id="filter241">
    <property name="version">0.6</property>
    <property name="mlt_service">frei0r.select0r</property>
    <property name="kdenlive_id">frei0r.select0r</property>
    <property name="Color to select">0x50b26dff</property>
    <property name="Invert selection">1</property>
    <property name="Selection subspace">1</property>
    <property name="Subspace shape">0</property>
    <property name="Edge mode">0.9</property>
    <property name="Delta R / A / Hue">00:00:53.233=0.025</property>
    <property name="Delta G / B / Chroma">00:00:53.233=0.18</property>
    <property name="Delta B / I / I">00:00:53.233=0.4</property>
    <property name="Slope">00:00:53.233=0.236</property>
    <property name="Operation">0.5</property>
    <property name="kdenlive:collapsed">0</property>
   </filter>
   <filter id="filter242">
    <property name="mlt_service">avfilter.despill</property>
    <property name="kdenlive_id">avfilter.despill</property>
    <property name="av.type">green</property>
    <property name="av.mix">0.535</property>
    <property name="av.expand">0.073</property>
    <property name="av.red">0</property>
    <property name="av.green">-1</property>
    <property name="av.blue">0</property>
    <property name="av.brightness">0</property>
    <property name="kdenlive:collapsed">0</property>
   </filter>
   <filter id="filter243">
    <property name="version">0.6</property>
    <property name="mlt_service">frei0r.select0r</property>
    <property name="kdenlive_id">frei0r.select0r</property>
    <property name="Color to select">0x232022ff</property>
    <property name="Invert selection">1</property>
    <property name="Selection subspace">1</property>
    <property name="Subspace shape">0</property>
    <property name="Edge mode">0.9</property>
    <property name="Delta R / A / Hue">00:00:53.233=0.144</property>
    <property name="Delta G / B / Chroma">00:00:53.233=0.202</property>
    <property name="Delta B / I / I">00:00:53.233=0.193</property>
    <property name="Slope">00:00:53.233=0.085</property>
    <property name="Operation">0.5</property>
    <property name="kdenlive:collapsed">0</property>
   </filter>
   <filter id="filter244">
    <property name="mode">alpha</property>
    <property name="alpha_operation">sub</property>
    <property name="invert">0</property>
    <property name="feather">16</property>
    <property name="feather_passes">1</property>
    <property name="mlt_service">rotoscoping</property>
    <property name="kdenlive_id">rotoscoping</property>
    <property name="spline">{
    "1597": [
        [
            [
                -0.07945492662473794,
                0.29477611940298504
            ],
            [
                -0.05555555555555555,
                0.332089552238806
            ],
            [
                -0.03249475890985325,
                0.3238805970149254
            ]
        ],
        [
            [
                0.03668763102725367,
                0.2992537313432836
            ],
            [
                0.059748427672955975,
                0.291044776119403
            ],
            [
                0.07232704402515724,
                0.30970149253731344
            ]
        ],
        [
            [
                0.11006289308176101,
                0.3656716417910448
            ],
            [
                0.12264150943396226,
                0.3843283582089552
            ],
            [
                0.14821802935010484,
                0.4291044776119403
            ]
        ],
        [
            [
                0.22494758909853246,
                0.5634328358208955
            ],
            [
                0.25052410901467503,
                0.6082089552238806
            ],
            [
                0.27190775681341717,
                0.6007462686567164
            ]
        ],
        [
            [
                0.33605870020964357,
                0.5783582089552238
            ],
            [
                0.3574423480083857,
                0.5708955223880596
            ],
            [
                0.36666666666666664,
                0.5208955223880597
            ]
        ],
        [
            [
                0.3943396226415094,
                0.37089552238805973
            ],
            [
                0.40356394129979034,
                0.32089552238805974
            ],
            [
                0.40482180293501047,
                0.2776119402985075
            ]
        ],
        [
            [
                0.40859538784067084,
                0.14776119402985075
            ],
            [
                0.40985324947589097,
                0.1044776119402985
            ],
            [
                0.43375262054507335,
                0.09179104477611941
            ]
        ],
        [
            [
                0.5054507337526205,
                0.05373134328358209
            ],
            [
                0.5293501048218029,
                0.041044776119402986
            ],
            [
                0.5540880503144654,
                0.06791044776119404
            ]
        ],
        [
            [
                0.6283018867924528,
                0.14850746268656714
            ],
            [
                0.6530398322851153,
                0.1753731343283582
            ],
            [
                0.6496855345911949,
                0.2134328358208955
            ]
        ],
        [
            [
                0.6396226415094339,
                0.3276119402985075
            ],
            [
                0.6362683438155137,
                0.3656716417910448
            ],
            [
                0.6429769392033543,
                0.4037313432835821
            ]
        ],
        [
            [
                0.6631027253668763,
                0.5179104477611941
            ],
            [
                0.6698113207547169,
                0.5559701492537314
            ],
            [
                0.6756813417190776,
                0.591044776119403
            ]
        ],
        [
            [
                0.6932914046121593,
                0.6962686567164179
            ],
            [
                0.69916142557652,
                0.7313432835820896
            ],
            [
                0.6903563941299791,
                0.796268656716418
            ]
        ],
        [
            [
                0.6639412997903563,
                0.991044776119403
            ],
            [
                0.6551362683438154,
                1.0559701492537314
            ],
            [
                0.7255765199161425,
                1.1044776119402986
            ]
        ],
        [
            [
                0.9368972746331237,
                1.25
            ],
            [
                1.0073375262054507,
                1.2985074626865671
            ],
            [
                1.051362683438155,
                1.1604477611940298
            ]
        ],
        [
            [
                1.1834381551362683,
                0.746268656716418
            ],
            [
                1.2274633123689727,
                0.6082089552238806
            ],
            [
                1.2102725366876308,
                0.4283582089552239
            ]
        ],
        [
            [
                1.1587002096436059,
                -0.11119402985074629
            ],
            [
                1.141509433962264,
                -0.291044776119403
            ],
            [
                0.9062893081761006,
                -0.2947761194029851
            ]
        ],
        [
            [
                0.20062893081761005,
                -0.30597014925373134
            ],
            [
                -0.03459119496855346,
                -0.30970149253731344
            ],
            [
                -0.06268343815513626,
                -0.21865671641791046
            ]
        ],
        [
            [
                -0.14696016771488468,
                0.05447761194029852
            ],
            [
                -0.1750524109014675,
                0.1455223880597015
            ],
            [
                -0.1511530398322851,
                0.1828358208955224
            ]
        ]
    ],
    "1644": [
        [
            [
                -0.07945492662473794,
                0.29477611940298504
            ],
            [
                -0.05555555555555555,
                0.332089552238806
            ],
            [
                -0.03249475890985325,
                0.3238805970149254
            ]
        ],
        [
            [
                0.03668763102725367,
                0.2992537313432836
            ],
            [
                0.059748427672955975,
                0.291044776119403
            ],
            [
                0.07232704402515724,
                0.30970149253731344
            ]
        ],
        [
            [
                0.11006289308176101,
                0.3656716417910448
            ],
            [
                0.12264150943396226,
                0.3843283582089552
            ],
            [
                0.14821802935010484,
                0.4291044776119403
            ]
        ],
        [
            [
                0.22494758909853246,
                0.5634328358208955
            ],
            [
                0.25052410901467503,
                0.6082089552238806
            ],
            [
                0.27190775681341717,
                0.6007462686567164
            ]
        ],
        [
            [
                0.33605870020964357,
                0.5783582089552238
            ],
            [
                0.3574423480083857,
                0.5708955223880596
            ],
            [
                0.36666666666666664,
                0.5208955223880597
            ]
        ],
        [
            [
                0.3943396226415094,
                0.37089552238805973
            ],
            [
                0.40356394129979034,
                0.32089552238805974
            ],
            [
                0.40482180293501047,
                0.2776119402985075
            ]
        ],
        [
            [
                0.40859538784067084,
                0.14776119402985075
            ],
            [
                0.40985324947589097,
                0.1044776119402985
            ],
            [
                0.43375262054507335,
                0.09179104477611941
            ]
        ],
        [
            [
                0.5054507337526205,
                0.05373134328358209
            ],
            [
                0.5293501048218029,
                0.041044776119402986
            ],
            [
                0.5540880503144654,
                0.06791044776119404
            ]
        ],
        [
            [
                0.6283018867924528,
                0.14850746268656714
            ],
            [
                0.6530398322851153,
                0.1753731343283582
            ],
            [
                0.6496855345911949,
                0.2134328358208955
            ]
        ],
        [
            [
                0.6396226415094339,
                0.3276119402985075
            ],
            [
                0.6362683438155137,
                0.3656716417910448
            ],
            [
                0.6429769392033543,
                0.4037313432835821
            ]
        ],
        [
            [
                0.6631027253668763,
                0.5179104477611941
            ],
            [
                0.6698113207547169,
                0.5559701492537314
            ],
            [
                0.6756813417190776,
                0.591044776119403
            ]
        ],
        [
            [
                0.6932914046121593,
                0.6962686567164179
            ],
            [
                0.69916142557652,
                0.7313432835820896
            ],
            [
                0.6903563941299791,
                0.796268656716418
            ]
        ],
        [
            [
                0.6639412997903563,
                0.991044776119403
            ],
            [
                0.6551362683438154,
                1.0559701492537314
            ],
            [
                0.7255765199161425,
                1.1044776119402986
            ]
        ],
        [
            [
                0.9368972746331237,
                1.25
            ],
            [
                1.0073375262054507,
                1.2985074626865671
            ],
            [
                1.051362683438155,
                1.1604477611940298
            ]
        ],
        [
            [
                1.1834381551362683,
                0.746268656716418
            ],
            [
                1.2274633123689727,
                0.6082089552238806
            ],
            [
                1.2102725366876308,
                0.4283582089552239
            ]
        ],
        [
            [
                1.1587002096436059,
                -0.11119402985074629
            ],
            [
                1.141509433962264,
                -0.291044776119403
            ],
            [
                0.9062893081761006,
                -0.2947761194029851
            ]
        ],
        [
            [
                0.20062893081761005,
                -0.30597014925373134
            ],
            [
                -0.03459119496855346,
                -0.30970149253731344
            ],
            [
                -0.06268343815513626,
                -0.21865671641791046
            ]
        ],
        [
            [
                -0.14696016771488468,
                0.05447761194029852
            ],
            [
                -0.1750524109014675,
                0.1455223880597015
            ],
            [
                -0.1511530398322851,
                0.1828358208955224
            ]
        ]
    ],
    "1645": [
        [
            [
                -0.07945492662473794,
                0.29477611940298504
            ],
            [
                -0.05555555555555555,
                0.332089552238806
            ],
            [
                -0.03249475890985325,
                0.3238805970149254
            ]
        ],
        [
            [
                0.03668763102725367,
                0.2992537313432836
            ],
            [
                0.059748427672955975,
                0.291044776119403
            ],
            [
                0.07232704402515724,
                0.30970149253731344
            ]
        ],
        [
            [
                0.11006289308176101,
                0.3656716417910448
            ],
            [
                0.12264150943396226,
                0.3843283582089552
            ],
            [
                0.14821802935010484,
                0.4291044776119403
            ]
        ],
        [
            [
                0.22494758909853246,
                0.5634328358208955
            ],
            [
                0.25052410901467503,
                0.6082089552238806
            ],
            [
                0.27190775681341717,
                0.6007462686567164
            ]
        ],
        [
            [
                0.33815513626834376,
                0.6082089552238805
            ],
            [
                0.35953878406708595,
                0.6007462686567164
            ],
            [
                0.36876310272536694,
                0.5507462686567163
            ]
        ],
        [
            [
                0.29580712788259955,
                0.21417910447761182
            ],
            [
                0.3050314465408805,
                0.16417910447761194
            ],
            [
                0.3062893081761006,
                0.12089552238805967
            ]
        ],
        [
            [
                0.4023060796645702,
                0.12164179104477613
            ],
            [
                0.40356394129979034,
                0.07835820895522388
            ],
            [
                0.4274633123689727,
                0.06567164179104479
            ]
        ],
        [
            [
                0.5054507337526205,
                0.05373134328358209
            ],
            [
                0.5293501048218029,
                0.041044776119402986
            ],
            [
                0.5540880503144654,
                0.06791044776119404
            ]
        ],
        [
            [
                0.6283018867924528,
                0.14850746268656714
            ],
            [
                0.6530398322851153,
                0.1753731343283582
            ],
            [
                0.6496855345911949,
                0.2134328358208955
            ]
        ],
        [
            [
                0.6396226415094339,
                0.3276119402985075
            ],
            [
                0.6362683438155137,
                0.3656716417910448
            ],
            [
                0.6429769392033543,
                0.4037313432835821
            ]
        ],
        [
            [
                0.6631027253668763,
                0.5179104477611941
            ],
            [
                0.6698113207547169,
                0.5559701492537314
            ],
            [
                0.6756813417190776,
                0.591044776119403
            ]
        ],
        [
            [
                0.6932914046121593,
                0.6962686567164179
            ],
            [
                0.69916142557652,
                0.7313432835820896
            ],
            [
                0.6903563941299791,
                0.796268656716418
            ]
        ],
        [
            [
                0.6639412997903563,
                0.991044776119403
            ],
            [
                0.6551362683438154,
                1.0559701492537314
            ],
            [
                0.7255765199161425,
                1.1044776119402986
            ]
        ],
        [
            [
                0.9368972746331237,
                1.25
            ],
            [
                1.0073375262054507,
                1.2985074626865671
            ],
            [
                1.051362683438155,
                1.1604477611940298
            ]
        ],
        [
            [
                1.1834381551362683,
                0.746268656716418
            ],
            [
                1.2274633123689727,
                0.6082089552238806
            ],
            [
                1.2102725366876308,
                0.4283582089552239
            ]
        ],
        [
            [
                1.1587002096436059,
                -0.11119402985074629
            ],
            [
                1.141509433962264,
                -0.291044776119403
            ],
            [
                0.9062893081761006,
                -0.2947761194029851
            ]
        ],
        [
            [
                0.20062893081761005,
                -0.30597014925373134
            ],
            [
                -0.03459119496855346,
                -0.30970149253731344
            ],
            [
                -0.06268343815513626,
                -0.21865671641791046
            ]
        ],
        [
            [
                -0.14696016771488468,
                0.05447761194029852
            ],
            [
                -0.1750524109014675,
                0.1455223880597015
            ],
            [
                -0.1511530398322851,
                0.1828358208955224
            ]
        ]
    ],
    "1647": [
        [
            [
                -0.07945492662473794,
                0.29477611940298504
            ],
            [
                -0.05555555555555555,
                0.332089552238806
            ],
            [
                -0.03249475890985325,
                0.3238805970149254
            ]
        ],
        [
            [
                0.03668763102725367,
                0.2992537313432836
            ],
            [
                0.059748427672955975,
                0.291044776119403
            ],
            [
                0.07232704402515724,
                0.30970149253731344
            ]
        ],
        [
            [
                0.11006289308176101,
                0.3656716417910448
            ],
            [
                0.12264150943396226,
                0.3843283582089552
            ],
            [
                0.14821802935010484,
                0.4291044776119403
            ]
        ],
        [
            [
                0.22494758909853246,
                0.5634328358208955
            ],
            [
                0.25052410901467503,
                0.6082089552238806
            ],
            [
                0.27190775681341717,
                0.6007462686567164
            ]
        ],
        [
            [
                0.260587002096436,
                0.42537313432835816
            ],
            [
                0.28197064989517817,
                0.417910447761194
            ],
            [
                0.291194968553459,
                0.3679104477611939
            ]
        ],
        [
            [
                0.33983228511530394,
                0.2626865671641791
            ],
            [
                0.3490566037735849,
                0.2126865671641791
            ],
            [
                0.350314465408805,
                0.16940298507462692
            ]
        ],
        [
            [
                0.3876310272536687,
                0.11044776119402983
            ],
            [
                0.3888888888888889,
                0.06716417910447761
            ],
            [
                0.4127882599580712,
                0.05447761194029851
            ]
        ],
        [
            [
                0.5054507337526205,
                0.05373134328358209
            ],
            [
                0.5293501048218029,
                0.041044776119402986
            ],
            [
                0.5540880503144654,
                0.06791044776119404
            ]
        ],
        [
            [
                0.6283018867924528,
                0.14850746268656714
            ],
            [
                0.6530398322851153,
                0.1753731343283582
            ],
            [
                0.6496855345911949,
                0.2134328358208955
            ]
        ],
        [
            [
                0.6396226415094339,
                0.3276119402985075
            ],
            [
                0.6362683438155137,
                0.3656716417910448
            ],
            [
                0.6429769392033543,
                0.4037313432835821
            ]
        ],
        [
            [
                0.6631027253668763,
                0.5179104477611941
            ],
            [
                0.6698113207547169,
                0.5559701492537314
            ],
            [
                0.6756813417190776,
                0.591044776119403
            ]
        ],
        [
            [
                0.6932914046121593,
                0.6962686567164179
            ],
            [
                0.69916142557652,
                0.7313432835820896
            ],
            [
                0.6903563941299791,
                0.796268656716418
            ]
        ],
        [
            [
                0.6639412997903563,
                0.991044776119403
            ],
            [
                0.6551362683438154,
                1.0559701492537314
            ],
            [
                0.7255765199161425,
                1.1044776119402986
            ]
        ],
        [
            [
                0.9368972746331237,
                1.25
            ],
            [
                1.0073375262054507,
                1.2985074626865671
            ],
            [
                1.051362683438155,
                1.1604477611940298
            ]
        ],
        [
            [
                1.1834381551362683,
                0.746268656716418
            ],
            [
                1.2274633123689727,
                0.6082089552238806
            ],
            [
                1.2102725366876308,
                0.4283582089552239
            ]
        ],
        [
            [
                1.1587002096436059,
                -0.11119402985074629
            ],
            [
                1.141509433962264,
                -0.291044776119403
            ],
            [
                0.9062893081761006,
                -0.2947761194029851
            ]
        ],
        [
            [
                0.20062893081761005,
                -0.30597014925373134
            ],
            [
                -0.03459119496855346,
                -0.30970149253731344
            ],
            [
                -0.06268343815513626,
                -0.21865671641791046
            ]
        ],
        [
            [
                -0.14696016771488468,
                0.05447761194029852
            ],
            [
                -0.1750524109014675,
                0.1455223880597015
            ],
            [
                -0.1511530398322851,
                0.1828358208955224
            ]
        ]
    ],
    "1648": [
        [
            [
                -0.07945492662473794,
                0.29477611940298504
            ],
            [
                -0.05555555555555555,
                0.332089552238806
            ],
            [
                -0.03249475890985325,
                0.3238805970149254
            ]
        ],
        [
            [
                0.03668763102725367,
                0.2992537313432836
            ],
            [
                0.059748427672955975,
                0.291044776119403
            ],
            [
                0.07232704402515724,
                0.30970149253731344
            ]
        ],
        [
            [
                0.11006289308176101,
                0.3656716417910448
            ],
            [
                0.12264150943396226,
                0.3843283582089552
            ],
            [
                0.14821802935010484,
                0.4291044776119403
            ]
        ],
        [
            [
                0.22494758909853246,
                0.5634328358208955
            ],
            [
                0.25052410901467503,
                0.6082089552238806
            ],
            [
                0.27190775681341717,
                0.6007462686567164
            ]
        ],
        [
            [
                0.3088050314465408,
                0.6156716417910445
            ],
            [
                0.330188679245283,
                0.6082089552238806
            ],
            [
                0.33941299790356383,
                0.5582089552238804
            ]
        ],
        [
            [
                0.21404612159329123,
                0.4791044776119402
            ],
            [
                0.22327044025157233,
                0.4291044776119403
            ],
            [
                0.22452830188679226,
                0.38582089552238774
            ]
        ],
        [
            [
                0.40859538784067084,
                0.14776119402985075
            ],
            [
                0.40985324947589097,
                0.1044776119402985
            ],
            [
                0.43375262054507335,
                0.09179104477611941
            ]
        ],
        [
            [
                0.5054507337526205,
                0.05373134328358209
            ],
            [
                0.5293501048218029,
                0.041044776119402986
            ],
            [
                0.5540880503144654,
                0.06791044776119404
            ]
        ],
        [
            [
                0.6283018867924528,
                0.14850746268656714
            ],
            [
                0.6530398322851153,
                0.1753731343283582
            ],
            [
                0.6496855345911949,
                0.2134328358208955
            ]
        ],
        [
            [
                0.6396226415094339,
                0.3276119402985075
            ],
            [
                0.6362683438155137,
                0.3656716417910448
            ],
            [
                0.6429769392033543,
                0.4037313432835821
            ]
        ],
        [
            [
                0.6631027253668763,
                0.5179104477611941
            ],
            [
                0.6698113207547169,
                0.5559701492537314
            ],
            [
                0.6756813417190776,
                0.591044776119403
            ]
        ],
        [
            [
                0.6932914046121593,
                0.6962686567164179
            ],
            [
                0.69916142557652,
                0.7313432835820896
            ],
            [
                0.6903563941299791,
                0.796268656716418
            ]
        ],
        [
            [
                0.6639412997903563,
                0.991044776119403
            ],
            [
                0.6551362683438154,
                1.0559701492537314
            ],
            [
                0.7255765199161425,
                1.1044776119402986
            ]
        ],
        [
            [
                0.9368972746331237,
                1.25
            ],
            [
                1.0073375262054507,
                1.2985074626865671
            ],
            [
                1.051362683438155,
                1.1604477611940298
            ]
        ],
        [
            [
                1.1834381551362683,
                0.746268656716418
            ],
            [
                1.2274633123689727,
                0.6082089552238806
            ],
            [
                1.2102725366876308,
                0.4283582089552239
            ]
        ],
        [
            [
                1.1587002096436059,
                -0.11119402985074629
            ],
            [
                1.141509433962264,
                -0.291044776119403
            ],
            [
                0.9062893081761006,
                -0.2947761194029851
            ]
        ],
        [
            [
                0.20062893081761005,
                -0.30597014925373134
            ],
            [
                -0.03459119496855346,
                -0.30970149253731344
            ],
            [
                -0.06268343815513626,
                -0.21865671641791046
            ]
        ],
        [
            [
                -0.14696016771488468,
                0.05447761194029852
            ],
            [
                -0.1750524109014675,
                0.1455223880597015
            ],
            [
                -0.1511530398322851,
                0.1828358208955224
            ]
        ]
    ],
    "1649": [
        [
            [
                -0.07945492662473794,
                0.29477611940298504
            ],
            [
                -0.05555555555555555,
                0.332089552238806
            ],
            [
                -0.03249475890985325,
                0.3238805970149254
            ]
        ],
        [
            [
                0.03668763102725367,
                0.2992537313432836
            ],
            [
                0.059748427672955975,
                0.291044776119403
            ],
            [
                0.07232704402515724,
                0.30970149253731344
            ]
        ],
        [
            [
                0.11006289308176101,
                0.3656716417910448
            ],
            [
                0.12264150943396226,
                0.3843283582089552
            ],
            [
                0.14821802935010484,
                0.4291044776119403
            ]
        ],
        [
            [
                0.22494758909853246,
                0.5634328358208955
            ],
            [
                0.25052410901467503,
                0.6082089552238806
            ],
            [
                0.27190775681341717,
                0.6007462686567164
            ]
        ],
        [
            [
                0.24800838574423478,
                0.6119402985074623
            ],
            [
                0.26939203354297697,
                0.6044776119402985
            ],
            [
                0.2786163522012578,
                0.5544776119402982
            ]
        ],
        [
            [
                0.17631027253668746,
                0.5014925373134327
            ],
            [
                0.18553459119496857,
                0.45149253731343286
            ],
            [
                0.1867924528301885,
                0.40820895522388007
            ]
        ],
        [
            [
                0.40859538784067084,
                0.14776119402985075
            ],
            [
                0.40985324947589097,
                0.1044776119402985
            ],
            [
                0.43375262054507335,
                0.09179104477611941
            ]
        ],
        [
            [
                0.5054507337526205,
                0.05373134328358209
            ],
            [
                0.5293501048218029,
                0.041044776119402986
            ],
            [
                0.5540880503144654,
                0.06791044776119404
            ]
        ],
        [
            [
                0.6283018867924528,
                0.14850746268656714
            ],
            [
                0.6530398322851153,
                0.1753731343283582
            ],
            [
                0.6496855345911949,
                0.2134328358208955
            ]
        ],
        [
            [
                0.6396226415094339,
                0.3276119402985075
            ],
            [
                0.6362683438155137,
                0.3656716417910448
            ],
            [
                0.6429769392033543,
                0.4037313432835821
            ]
        ],
        [
            [
                0.6631027253668763,
                0.5179104477611941
            ],
            [
                0.6698113207547169,
                0.5559701492537314
            ],
            [
                0.6756813417190776,
                0.591044776119403
            ]
        ],
        [
            [
                0.6932914046121593,
                0.6962686567164179
            ],
            [
                0.69916142557652,
                0.7313432835820896
            ],
            [
                0.6903563941299791,
                0.796268656716418
            ]
        ],
        [
            [
                0.6639412997903563,
                0.991044776119403
            ],
            [
                0.6551362683438154,
                1.0559701492537314
            ],
            [
                0.7255765199161425,
                1.1044776119402986
            ]
        ],
        [
            [
                0.9368972746331237,
                1.25
            ],
            [
                1.0073375262054507,
                1.2985074626865671
            ],
            [
                1.051362683438155,
                1.1604477611940298
            ]
        ],
        [
            [
                1.1834381551362683,
                0.746268656716418
            ],
            [
                1.2274633123689727,
                0.6082089552238806
            ],
            [
                1.2102725366876308,
                0.4283582089552239
            ]
        ],
        [
            [
                1.1587002096436059,
                -0.11119402985074629
            ],
            [
                1.141509433962264,
                -0.291044776119403
            ],
            [
                0.9062893081761006,
                -0.2947761194029851
            ]
        ],
        [
            [
                0.20062893081761005,
                -0.30597014925373134
            ],
            [
                -0.03459119496855346,
                -0.30970149253731344
            ],
            [
                -0.06268343815513626,
                -0.21865671641791046
            ]
        ],
        [
            [
                -0.14696016771488468,
                0.05447761194029852
            ],
            [
                -0.1750524109014675,
                0.1455223880597015
            ],
            [
                -0.1511530398322851,
                0.1828358208955224
            ]
        ]
    ],
    "1650": [
        [
            [
                -0.07945492662473794,
                0.29477611940298504
            ],
            [
                -0.05555555555555555,
                0.332089552238806
            ],
            [
                -0.03249475890985325,
                0.3238805970149254
            ]
        ],
        [
            [
                0.03668763102725367,
                0.2992537313432836
            ],
            [
                0.059748427672955975,
                0.291044776119403
            ],
            [
                0.07232704402515724,
                0.30970149253731344
            ]
        ],
        [
            [
                0.10167714884696016,
                0.29477611940298504
            ],
            [
                0.11425576519916142,
                0.31343283582089554
            ],
            [
                0.13983228511530404,
                0.35820895522388063
            ]
        ],
        [
            [
                0.1431865828092243,
                0.332089552238806
            ],
            [
                0.16876310272536685,
                0.3768656716417911
            ],
            [
                0.19014675052410895,
                0.36940298507462693
            ]
        ],
        [
            [
                0.21236897274633107,
                0.46268656716417883
            ],
            [
                0.23375262054507337,
                0.45522388059701496
            ],
            [
                0.24297693920335403,
                0.4052238805970147
            ]
        ],
        [
            [
                0.3440251572327042,
                0.49776119402985075
            ],
            [
                0.3532494758909853,
                0.44776119402985076
            ],
            [
                0.3545073375262052,
                0.40447761194029797
            ]
        ],
        [
            [
                0.40859538784067084,
                0.14776119402985075
            ],
            [
                0.40985324947589097,
                0.1044776119402985
            ],
            [
                0.43375262054507335,
                0.09179104477611941
            ]
        ],
        [
            [
                0.5054507337526205,
                0.05373134328358209
            ],
            [
                0.5293501048218029,
                0.041044776119402986
            ],
            [
                0.5540880503144654,
                0.06791044776119404
            ]
        ],
        [
            [
                0.6283018867924528,
                0.14850746268656714
            ],
            [
                0.6530398322851153,
                0.1753731343283582
            ],
            [
                0.6496855345911949,
                0.2134328358208955
            ]
        ],
        [
            [
                0.6396226415094339,
                0.3276119402985075
            ],
            [
                0.6362683438155137,
                0.3656716417910448
            ],
            [
                0.6429769392033543,
                0.4037313432835821
            ]
        ],
        [
            [
                0.6631027253668763,
                0.5179104477611941
            ],
            [
                0.6698113207547169,
                0.5559701492537314
            ],
            [
                0.6756813417190776,
                0.591044776119403
            ]
        ],
        [
            [
                0.6932914046121593,
                0.6962686567164179
            ],
            [
                0.69916142557652,
                0.7313432835820896
            ],
            [
                0.6903563941299791,
                0.796268656716418
            ]
        ],
        [
            [
                0.6639412997903563,
                0.991044776119403
            ],
            [
                0.6551362683438154,
                1.0559701492537314
            ],
            [
                0.7255765199161425,
                1.1044776119402986
            ]
        ],
        [
            [
                0.9368972746331237,
                1.25
            ],
            [
                1.0073375262054507,
                1.2985074626865671
            ],
            [
                1.051362683438155,
                1.1604477611940298
            ]
        ],
        [
            [
                1.1834381551362683,
                0.746268656716418
            ],
            [
                1.2274633123689727,
                0.6082089552238806
            ],
            [
                1.2102725366876308,
                0.4283582089552239
            ]
        ],
        [
            [
                1.1587002096436059,
                -0.11119402985074629
            ],
            [
                1.141509433962264,
                -0.291044776119403
            ],
            [
                0.9062893081761006,
                -0.2947761194029851
            ]
        ],
        [
            [
                0.20062893081761005,
                -0.30597014925373134
            ],
            [
                -0.03459119496855346,
                -0.30970149253731344
            ],
            [
                -0.06268343815513626,
                -0.21865671641791046
            ]
        ],
        [
            [
                -0.14696016771488468,
                0.05447761194029852
            ],
            [
                -0.1750524109014675,
                0.1455223880597015
            ],
            [
                -0.1511530398322851,
                0.1828358208955224
            ]
        ]
    ],
    "1651": [
        [
            [
                -0.07945492662473794,
                0.29477611940298504
            ],
            [
                -0.05555555555555555,
                0.332089552238806
            ],
            [
                -0.03249475890985325,
                0.3238805970149254
            ]
        ],
        [
            [
                0.03668763102725367,
                0.2992537313432836
            ],
            [
                0.059748427672955975,
                0.291044776119403
            ],
            [
                0.07232704402515724,
                0.30970149253731344
            ]
        ],
        [
            [
                0.10167714884696016,
                0.29477611940298504
            ],
            [
                0.11425576519916142,
                0.31343283582089554
            ],
            [
                0.13983228511530404,
                0.35820895522388063
            ]
        ],
        [
            [
                0.1431865828092243,
                0.332089552238806
            ],
            [
                0.16876310272536685,
                0.3768656716417911
            ],
            [
                0.19014675052410895,
                0.36940298507462693
            ]
        ],
        [
            [
                0.23123689727463276,
                0.4813432835820893
            ],
            [
                0.2526205450733753,
                0.47388059701492535
            ],
            [
                0.26184486373165566,
                0.42388059701492514
            ]
        ],
        [
            [
                0.3440251572327042,
                0.49776119402985075
            ],
            [
                0.3532494758909853,
                0.44776119402985076
            ],
            [
                0.3545073375262052,
                0.40447761194029797
            ]
        ],
        [
            [
                0.40859538784067084,
                0.14776119402985075
            ],
            [
                0.40985324947589097,
                0.1044776119402985
            ],
            [
                0.43375262054507335,
                0.09179104477611941
            ]
        ],
        [
            [
                0.5054507337526205,
                0.05373134328358209
            ],
            [
                0.5293501048218029,
                0.041044776119402986
            ],
            [
                0.5540880503144654,
                0.06791044776119404
            ]
        ],
        [
            [
                0.6283018867924528,
                0.14850746268656714
            ],
            [
                0.6530398322851153,
                0.1753731343283582
            ],
            [
                0.6496855345911949,
                0.2134328358208955
            ]
        ],
        [
            [
                0.6396226415094339,
                0.3276119402985075
            ],
            [
                0.6362683438155137,
                0.3656716417910448
            ],
            [
                0.6429769392033543,
                0.4037313432835821
            ]
        ],
        [
            [
                0.6631027253668763,
                0.5179104477611941
            ],
            [
                0.6698113207547169,
                0.5559701492537314
            ],
            [
                0.6756813417190776,
                0.591044776119403
            ]
        ],
        [
            [
                0.6932914046121593,
                0.6962686567164179
            ],
            [
                0.69916142557652,
                0.7313432835820896
            ],
            [
                0.6903563941299791,
                0.796268656716418
            ]
        ],
        [
            [
                0.6639412997903563,
                0.991044776119403
            ],
            [
                0.6551362683438154,
                1.0559701492537314
            ],
            [
                0.7255765199161425,
                1.1044776119402986
            ]
        ],
        [
            [
                0.9368972746331237,
                1.25
            ],
            [
                1.0073375262054507,
                1.2985074626865671
            ],
            [
                1.051362683438155,
                1.1604477611940298
            ]
        ],
        [
            [
                1.1834381551362683,
                0.746268656716418
            ],
            [
                1.2274633123689727,
                0.6082089552238806
            ],
            [
                1.2102725366876308,
                0.4283582089552239
            ]
        ],
        [
            [
                1.1587002096436059,
                -0.11119402985074629
            ],
            [
                1.141509433962264,
                -0.291044776119403
            ],
            [
                0.9062893081761006,
                -0.2947761194029851
            ]
        ],
        [
            [
                0.20062893081761005,
                -0.30597014925373134
            ],
            [
                -0.03459119496855346,
                -0.30970149253731344
            ],
            [
                -0.06268343815513626,
                -0.21865671641791046
            ]
        ],
        [
            [
                -0.14696016771488468,
                0.05447761194029852
            ],
            [
                -0.1750524109014675,
                0.1455223880597015
            ],
            [
                -0.1511530398322851,
                0.1828358208955224
            ]
        ]
    ],
    "1652": [
        [
            [
                -0.07945492662473794,
                0.29477611940298504
            ],
            [
                -0.05555555555555555,
                0.332089552238806
            ],
            [
                -0.03249475890985325,
                0.3238805970149254
            ]
        ],
        [
            [
                0.03668763102725367,
                0.2992537313432836
            ],
            [
                0.059748427672955975,
                0.291044776119403
            ],
            [
                0.07232704402515724,
                0.30970149253731344
            ]
        ],
        [
            [
                0.10167714884696016,
                0.26492537313432823
            ],
            [
                0.11425576519916142,
                0.2835820895522388
            ],
            [
                0.13983228511530404,
                0.32835820895522383
            ]
        ],
        [
            [
                0.1662473794549266,
                0.33582089552238803
            ],
            [
                0.19182389937106917,
                0.3805970149253731
            ],
            [
                0.21320754716981127,
                0.373134328358209
            ]
        ],
        [
            [
                0.23962264150943352,
                0.46268656716417883
            ],
            [
                0.2610062893081761,
                0.45522388059701496
            ],
            [
                0.2702306079664565,
                0.40522388059701475
            ]
        ],
        [
            [
                0.3440251572327042,
                0.49776119402985075
            ],
            [
                0.3532494758909853,
                0.44776119402985076
            ],
            [
                0.3545073375262052,
                0.40447761194029797
            ]
        ],
        [
            [
                0.40859538784067084,
                0.14776119402985075
            ],
            [
                0.40985324947589097,
                0.1044776119402985
            ],
            [
                0.43375262054507335,
                0.09179104477611941
            ]
        ],
        [
            [
                0.5054507337526205,
                0.05373134328358209
            ],
            [
                0.5293501048218029,
                0.041044776119402986
            ],
            [
                0.5540880503144654,
                0.06791044776119404
            ]
        ],
        [
            [
                0.6283018867924528,
                0.14850746268656714
            ],
            [
                0.6530398322851153,
                0.1753731343283582
            ],
            [
                0.6496855345911949,
                0.2134328358208955
            ]
        ],
        [
            [
                0.6459119496855347,
                0.3388059701492538
            ],
            [
                0.6425576519916143,
                0.3768656716417911
            ],
            [
                0.6492662473794549,
                0.41492537313432837
            ]
        ],
        [
            [
                0.6714884696016771,
                0.5104477611940299
            ],
            [
                0.6781970649895178,
                0.5485074626865672
            ],
            [
                0.6840670859538783,
                0.5835820895522388
            ]
        ],
        [
            [
                0.6932914046121593,
                0.6962686567164179
            ],
            [
                0.69916142557652,
                0.7313432835820896
            ],
            [
                0.6903563941299791,
                0.796268656716418
            ]
        ],
        [
            [
                0.6639412997903563,
                0.991044776119403
            ],
            [
                0.6551362683438154,
                1.0559701492537314
            ],
            [
                0.7255765199161425,
                1.1044776119402986
            ]
        ],
        [
            [
                0.9368972746331237,
                1.25
            ],
            [
                1.0073375262054507,
                1.2985074626865671
            ],
            [
                1.051362683438155,
                1.1604477611940298
            ]
        ],
        [
            [
                1.1834381551362683,
                0.746268656716418
            ],
            [
                1.2274633123689727,
                0.6082089552238806
            ],
            [
                1.2102725366876308,
                0.4283582089552239
            ]
        ],
        [
            [
                1.1587002096436059,
                -0.11119402985074629
            ],
            [
                1.141509433962264,
                -0.291044776119403
            ],
            [
                0.9062893081761006,
                -0.2947761194029851
            ]
        ],
        [
            [
                0.20062893081761005,
                -0.30597014925373134
            ],
            [
                -0.03459119496855346,
                -0.30970149253731344
            ],
            [
                -0.06268343815513626,
                -0.21865671641791046
            ]
        ],
        [
            [
                -0.14696016771488468,
                0.05447761194029852
            ],
            [
                -0.1750524109014675,
                0.1455223880597015
            ],
            [
                -0.1511530398322851,
                0.1828358208955224
            ]
        ]
    ],
    "1654": [
        [
            [
                -0.07945492662473794,
                0.29477611940298504
            ],
            [
                -0.05555555555555555,
                0.332089552238806
            ],
            [
                -0.03249475890985325,
                0.3238805970149254
            ]
        ],
        [
            [
                0.03668763102725367,
                0.2992537313432836
            ],
            [
                0.059748427672955975,
                0.291044776119403
            ],
            [
                0.07232704402515724,
                0.30970149253731344
            ]
        ],
        [
            [
                0.10167714884696016,
                0.26492537313432823
            ],
            [
                0.11425576519916142,
                0.2835820895522388
            ],
            [
                0.13983228511530404,
                0.32835820895522383
            ]
        ],
        [
            [
                0.1662473794549266,
                0.24253731343283585
            ],
            [
                0.19182389937106917,
                0.2873134328358209
            ],
            [
                0.21320754716981127,
                0.27985074626865686
            ]
        ],
        [
            [
                0.30461215932913993,
                0.5149253731343282
            ],
            [
                0.32599580712788256,
                0.5074626865671642
            ],
            [
                0.33522012578616295,
                0.457462686567164
            ]
        ],
        [
            [
                0.3691823899371067,
                0.5164179104477613
            ],
            [
                0.37840670859538783,
                0.4664179104477612
            ],
            [
                0.37966457023060773,
                0.4231343283582084
            ]
        ],
        [
            [
                0.40859538784067084,
                0.14776119402985075
            ],
            [
                0.40985324947589097,
                0.1044776119402985
            ],
            [
                0.43375262054507335,
                0.09179104477611941
            ]
        ],
        [
            [
                0.5054507337526205,
                0.05373134328358209
            ],
            [
                0.5293501048218029,
                0.041044776119402986
            ],
            [
                0.5540880503144654,
                0.06791044776119404
            ]
        ],
        [
            [
                0.6283018867924528,
                0.14850746268656714
            ],
            [
                0.6530398322851153,
                0.1753731343283582
            ],
            [
                0.6496855345911949,
                0.2134328358208955
            ]
        ],
        [
            [
                0.6459119496855347,
                0.3388059701492538
            ],
            [
                0.6425576519916143,
                0.3768656716417911
            ],
            [
                0.6492662473794549,
                0.41492537313432837
            ]
        ],
        [
            [
                0.6589098532494759,
                0.41716417910447756
            ],
            [
                0.6656184486373166,
                0.45522388059701496
            ],
            [
                0.6714884696016772,
                0.49029850746268666
            ]
        ],
        [
            [
                0.6932914046121593,
                0.6962686567164179
            ],
            [
                0.69916142557652,
                0.7313432835820896
            ],
            [
                0.6903563941299791,
                0.796268656716418
            ]
        ],
        [
            [
                0.6639412997903563,
                0.991044776119403
            ],
            [
                0.6551362683438154,
                1.0559701492537314
            ],
            [
                0.7255765199161425,
                1.1044776119402986
            ]
        ],
        [
            [
                0.9368972746331237,
                1.25
            ],
            [
                1.0073375262054507,
                1.2985074626865671
            ],
            [
                1.051362683438155,
                1.1604477611940298
            ]
        ],
        [
            [
                1.1834381551362683,
                0.746268656716418
            ],
            [
                1.2274633123689727,
                0.6082089552238806
            ],
            [
                1.2102725366876308,
                0.4283582089552239
            ]
        ],
        [
            [
                1.1587002096436059,
                -0.11119402985074629
            ],
            [
                1.141509433962264,
                -0.291044776119403
            ],
            [
                0.9062893081761006,
                -0.2947761194029851
            ]
        ],
        [
            [
                0.20062893081761005,
                -0.30597014925373134
            ],
            [
                -0.03459119496855346,
                -0.30970149253731344
            ],
            [
                -0.06268343815513626,
                -0.21865671641791046
            ]
        ],
        [
            [
                -0.14696016771488468,
                0.05447761194029852
            ],
            [
                -0.1750524109014675,
                0.1455223880597015
            ],
            [
                -0.1511530398322851,
                0.1828358208955224
            ]
        ]
    ],
    "1656": [
        [
            [
                -0.07945492662473794,
                0.29477611940298504
            ],
            [
                -0.05555555555555555,
                0.332089552238806
            ],
            [
                -0.03249475890985325,
                0.3238805970149254
            ]
        ],
        [
            [
                0.03668763102725367,
                0.2992537313432836
            ],
            [
                0.059748427672955975,
                0.291044776119403
            ],
            [
                0.07232704402515724,
                0.30970149253731344
            ]
        ],
        [
            [
                0.10167714884696016,
                0.26492537313432823
            ],
            [
                0.11425576519916142,
                0.2835820895522388
            ],
            [
                0.13983228511530404,
                0.32835820895522383
            ]
        ],
        [
            [
                0.19979035639412995,
                0.26492537313432807
            ],
            [
                0.22536687631027252,
                0.30970149253731344
            ],
            [
                0.2467505241090146,
                0.30223880597014907
            ]
        ],
        [
            [
                0.3318658280922427,
                0.5223880597014924
            ],
            [
                0.3532494758909853,
                0.5149253731343284
            ],
            [
                0.3624737945492657,
                0.4649253731343282
            ]
        ],
        [
            [
                0.38595387840670836,
                0.49029850746268644
            ],
            [
                0.3951781970649895,
                0.44029850746268656
            ],
            [
                0.3964360587002094,
                0.39701492537313376
            ]
        ],
        [
            [
                0.40859538784067084,
                0.14776119402985075
            ],
            [
                0.40985324947589097,
                0.1044776119402985
            ],
            [
                0.43375262054507335,
                0.09179104477611941
            ]
        ],
        [
            [
                0.5054507337526205,
                0.05373134328358209
            ],
            [
                0.5293501048218029,
                0.041044776119402986
            ],
            [
                0.5540880503144654,
                0.06791044776119404
            ]
        ],
        [
            [
                0.6283018867924528,
                0.14850746268656714
            ],
            [
                0.6530398322851153,
                0.1753731343283582
            ],
            [
                0.6496855345911949,
                0.2134328358208955
            ]
        ],
        [
            [
                0.6459119496855347,
                0.3388059701492538
            ],
            [
                0.6425576519916143,
                0.3768656716417911
            ],
            [
                0.6492662473794549,
                0.41492537313432837
            ]
        ],
        [
            [
                0.6589098532494759,
                0.41716417910447756
            ],
            [
                0.6656184486373166,
                0.45522388059701496
            ],
            [
                0.6714884696016772,
                0.49029850746268666
            ]
        ],
        [
            [
                0.6932914046121593,
                0.6962686567164179
            ],
            [
                0.69916142557652,
                0.7313432835820896
            ],
            [
                0.6903563941299791,
                0.796268656716418
            ]
        ],
        [
            [
                0.6639412997903563,
                0.991044776119403
            ],
            [
                0.6551362683438154,
                1.0559701492537314
            ],
            [
                0.7255765199161425,
                1.1044776119402986
            ]
        ],
        [
            [
                0.9368972746331237,
                1.25
            ],
            [
                1.0073375262054507,
                1.2985074626865671
            ],
            [
                1.051362683438155,
                1.1604477611940298
            ]
        ],
        [
            [
                1.1834381551362683,
                0.746268656716418
            ],
            [
                1.2274633123689727,
                0.6082089552238806
            ],
            [
                1.2102725366876308,
                0.4283582089552239
            ]
        ],
        [
            [
                1.1587002096436059,
                -0.11119402985074629
            ],
            [
                1.141509433962264,
                -0.291044776119403
            ],
            [
                0.9062893081761006,
                -0.2947761194029851
            ]
        ],
        [
            [
                0.20062893081761005,
                -0.30597014925373134
            ],
            [
                -0.03459119496855346,
                -0.30970149253731344
            ],
            [
                -0.06268343815513626,
                -0.21865671641791046
            ]
        ],
        [
            [
                -0.14696016771488468,
                0.05447761194029852
            ],
            [
                -0.1750524109014675,
                0.1455223880597015
            ],
            [
                -0.1511530398322851,
                0.1828358208955224
            ]
        ]
    ],
    "1658": [
        [
            [
                -0.07945492662473794,
                0.29477611940298504
            ],
            [
                -0.05555555555555555,
                0.332089552238806
            ],
            [
                -0.03249475890985325,
                0.3238805970149254
            ]
        ],
        [
            [
                0.03668763102725367,
                0.2992537313432836
            ],
            [
                0.059748427672955975,
                0.291044776119403
            ],
            [
                0.07232704402515724,
                0.30970149253731344
            ]
        ],
        [
            [
                0.10167714884696016,
                0.26492537313432823
            ],
            [
                0.11425576519916142,
                0.2835820895522388
            ],
            [
                0.13983228511530404,
                0.32835820895522383
            ]
        ],
        [
            [
                0.260587002096436,
                0.27238805970149227
            ],
            [
                0.2861635220125786,
                0.31716417910447764
            ],
            [
                0.3075471698113207,
                0.30970149253731327
            ]
        ],
        [
            [
                0.34444444444444394,
                0.4925373134328356
            ],
            [
                0.3658280922431866,
                0.4850746268656716
            ],
            [
                0.3750524109014669,
                0.4350746268656714
            ]
        ],
        [
            [
                0.38595387840670836,
                0.49029850746268644
            ],
            [
                0.3951781970649895,
                0.44029850746268656
            ],
            [
                0.3964360587002094,
                0.39701492537313376
            ]
        ],
        [
            [
                0.40859538784067084,
                0.14776119402985075
            ],
            [
                0.40985324947589097,
                0.1044776119402985
            ],
            [
                0.43375262054507335,
                0.09179104477611941
            ]
        ],
        [
            [
                0.5054507337526205,
                0.05373134328358209
            ],
            [
                0.5293501048218029,
                0.041044776119402986
            ],
            [
                0.5540880503144654,
                0.06791044776119404
            ]
        ],
        [
            [
                0.6283018867924528,
                0.14850746268656714
            ],
            [
                0.6530398322851153,
                0.1753731343283582
            ],
            [
                0.6496855345911949,
                0.2134328358208955
            ]
        ],
        [
            [
                0.6459119496855347,
                0.3388059701492538
            ],
            [
                0.6425576519916143,
                0.3768656716417911
            ],
            [
                0.6492662473794549,
                0.41492537313432837
            ]
        ],
        [
            [
                0.6589098532494759,
                0.41716417910447756
            ],
            [
                0.6656184486373166,
                0.45522388059701496
            ],
            [
                0.6714884696016772,
                0.49029850746268666
            ]
        ],
        [
            [
                0.6932914046121593,
                0.6962686567164179
            ],
            [
                0.69916142557652,
                0.7313432835820896
            ],
            [
                0.6903563941299791,
                0.796268656716418
            ]
        ],
        [
            [
                0.6639412997903563,
                0.991044776119403
            ],
            [
                0.6551362683438154,
                1.0559701492537314
            ],
            [
                0.7255765199161425,
                1.1044776119402986
            ]
        ],
        [
            [
                0.9368972746331237,
                1.25
            ],
            [
                1.0073375262054507,
                1.2985074626865671
            ],
            [
                1.051362683438155,
                1.1604477611940298
            ]
        ],
        [
            [
                1.1834381551362683,
                0.746268656716418
            ],
            [
                1.2274633123689727,
                0.6082089552238806
            ],
            [
                1.2102725366876308,
                0.4283582089552239
            ]
        ],
        [
            [
                1.1587002096436059,
                -0.11119402985074629
            ],
            [
                1.141509433962264,
                -0.291044776119403
            ],
            [
                0.9062893081761006,
                -0.2947761194029851
            ]
        ],
        [
            [
                0.20062893081761005,
                -0.30597014925373134
            ],
            [
                -0.03459119496855346,
                -0.30970149253731344
            ],
            [
                -0.06268343815513626,
                -0.21865671641791046
            ]
        ],
        [
            [
                -0.14696016771488468,
                0.05447761194029852
            ],
            [
                -0.1750524109014675,
                0.1455223880597015
            ],
            [
                -0.1511530398322851,
                0.1828358208955224
            ]
        ]
    ],
    "1659": [
        [
            [
                -0.07945492662473794,
                0.29477611940298504
            ],
            [
                -0.05555555555555555,
                0.332089552238806
            ],
            [
                -0.03249475890985325,
                0.3238805970149254
            ]
        ],
        [
            [
                0.03668763102725367,
                0.2992537313432836
            ],
            [
                0.059748427672955975,
                0.291044776119403
            ],
            [
                0.07232704402515724,
                0.30970149253731344
            ]
        ],
        [
            [
                0.2756813417190773,
                0.5149253731343282
            ],
            [
                0.28825995807127885,
                0.5335820895522388
            ],
            [
                0.3138364779874213,
                0.5783582089552238
            ]
        ],
        [
            [
                0.26939203354297697,
                0.3358208955223881
            ],
            [
                0.31761006289308175,
                0.30223880597014924
            ],
            [
                0.33899371069182377,
                0.29477611940298487
            ]
        ],
        [
            [
                0.354926624737945,
                0.47761194029850734
            ],
            [
                0.37631027253668764,
                0.47014925373134325
            ],
            [
                0.385534591194968,
                0.42014925373134304
            ]
        ],
        [
            [
                0.38595387840670836,
                0.49029850746268644
            ],
            [
                0.3951781970649895,
                0.44029850746268656
            ],
            [
                0.3964360587002094,
                0.39701492537313376
            ]
        ],
        [
            [
                0.40859538784067084,
                0.14776119402985075
            ],
            [
                0.40985324947589097,
                0.1044776119402985
            ],
            [
                0.43375262054507335,
                0.09179104477611941
            ]
        ],
        [
            [
                0.5054507337526205,
                0.05373134328358209
            ],
            [
                0.5293501048218029,
                0.041044776119402986
            ],
            [
                0.5540880503144654,
                0.06791044776119404
            ]
        ],
        [
            [
                0.6283018867924528,
                0.14850746268656714
            ],
            [
                0.6530398322851153,
                0.1753731343283582
            ],
            [
                0.6496855345911949,
                0.2134328358208955
            ]
        ],
        [
            [
                0.6459119496855347,
                0.3388059701492538
            ],
            [
                0.6425576519916143,
                0.3768656716417911
            ],
            [
                0.6492662473794549,
                0.41492537313432837
            ]
        ],
        [
            [
                0.6589098532494759,
                0.41716417910447756
            ],
            [
                0.6656184486373166,
                0.45522388059701496
            ],
            [
                0.6714884696016772,
                0.49029850746268666
            ]
        ],
        [
            [
                0.6932914046121593,
                0.6962686567164179
            ],
            [
                0.69916142557652,
                0.7313432835820896
            ],
            [
                0.6903563941299791,
                0.796268656716418
            ]
        ],
        [
            [
                0.6639412997903563,
                0.991044776119403
            ],
            [
                0.6551362683438154,
                1.0559701492537314
            ],
            [
                0.7255765199161425,
                1.1044776119402986
            ]
        ],
        [
            [
                0.9368972746331237,
                1.25
            ],
            [
                1.0073375262054507,
                1.2985074626865671
            ],
            [
                1.051362683438155,
                1.1604477611940298
            ]
        ],
        [
            [
                1.1834381551362683,
                0.746268656716418
            ],
            [
                1.2274633123689727,
                0.6082089552238806
            ],
            [
                1.2102725366876308,
                0.4283582089552239
            ]
        ],
        [
            [
                1.1587002096436059,
                -0.11119402985074629
            ],
            [
                1.141509433962264,
                -0.291044776119403
            ],
            [
                0.9062893081761006,
                -0.2947761194029851
            ]
        ],
        [
            [
                0.20062893081761005,
                -0.30597014925373134
            ],
            [
                -0.03459119496855346,
                -0.30970149253731344
            ],
            [
                -0.06268343815513626,
                -0.21865671641791046
            ]
        ],
        [
            [
                -0.14696016771488468,
                0.05447761194029852
            ],
            [
                -0.1750524109014675,
                0.1455223880597015
            ],
            [
                -0.1511530398322851,
                0.1828358208955224
            ]
        ]
    ],
    "1660": [
        [
            [
                -0.07945492662473794,
                0.29477611940298504
            ],
            [
                -0.05555555555555555,
                0.332089552238806
            ],
            [
                -0.03249475890985325,
                0.3238805970149254
            ]
        ],
        [
            [
                0.03668763102725367,
                0.2992537313432836
            ],
            [
                0.059748427672955975,
                0.291044776119403
            ],
            [
                0.07232704402515724,
                0.30970149253731344
            ]
        ],
        [
            [
                0.2756813417190773,
                0.5149253731343282
            ],
            [
                0.28825995807127885,
                0.5335820895522388
            ],
            [
                0.3138364779874213,
                0.5783582089552238
            ]
        ],
        [
            [
                0.35744234800838576,
                0.5354477611940298
            ],
            [
                0.3144654088050315,
                0.3656716417910448
            ],
            [
                0.3358490566037735,
                0.3582089552238805
            ]
        ],
        [
            [
                0.31404612159329093,
                0.3097014925373134
            ],
            [
                0.3354297693920335,
                0.30223880597014924
            ],
            [
                0.3446540880503139,
                0.252238805970149
            ]
        ],
        [
            [
                0.38595387840670836,
                0.49029850746268644
            ],
            [
                0.3951781970649895,
                0.44029850746268656
            ],
            [
                0.3964360587002094,
                0.39701492537313376
            ]
        ],
        [
            [
                0.40859538784067084,
                0.14776119402985075
            ],
            [
                0.40985324947589097,
                0.1044776119402985
            ],
            [
                0.43375262054507335,
                0.09179104477611941
            ]
        ],
        [
            [
                0.5054507337526205,
                0.05373134328358209
            ],
            [
                0.5293501048218029,
                0.041044776119402986
            ],
            [
                0.5540880503144654,
                0.06791044776119404
            ]
        ],
        [
            [
                0.6283018867924528,
                0.14850746268656714
            ],
            [
                0.6530398322851153,
                0.1753731343283582
            ],
            [
                0.6496855345911949,
                0.2134328358208955
            ]
        ],
        [
            [
                0.6459119496855347,
                0.3388059701492538
            ],
            [
                0.6425576519916143,
                0.3768656716417911
            ],
            [
                0.6492662473794549,
                0.41492537313432837
            ]
        ],
        [
            [
                0.6589098532494759,
                0.41716417910447756
            ],
            [
                0.6656184486373166,
                0.45522388059701496
            ],
            [
                0.6714884696016772,
                0.49029850746268666
            ]
        ],
        [
            [
                0.6932914046121593,
                0.6962686567164179
            ],
            [
                0.69916142557652,
                0.7313432835820896
            ],
            [
                0.6903563941299791,
                0.796268656716418
            ]
        ],
        [
            [
                0.6639412997903563,
                0.991044776119403
            ],
            [
                0.6551362683438154,
                1.0559701492537314
            ],
            [
                0.7255765199161425,
                1.1044776119402986
            ]
        ],
        [
            [
                0.9368972746331237,
                1.25
            ],
            [
                1.0073375262054507,
                1.2985074626865671
            ],
            [
                1.051362683438155,
                1.1604477611940298
            ]
        ],
        [
            [
                1.1834381551362683,
                0.746268656716418
            ],
            [
                1.2274633123689727,
                0.6082089552238806
            ],
            [
                1.2102725366876308,
                0.4283582089552239
            ]
        ],
        [
            [
                1.1587002096436059,
                -0.11119402985074629
            ],
            [
                1.141509433962264,
                -0.291044776119403
            ],
            [
                0.9062893081761006,
                -0.2947761194029851
            ]
        ],
        [
            [
                0.20062893081761005,
                -0.30597014925373134
            ],
            [
                -0.03459119496855346,
                -0.30970149253731344
            ],
            [
                -0.06268343815513626,
                -0.21865671641791046
            ]
        ],
        [
            [
                -0.14696016771488468,
                0.05447761194029852
            ],
            [
                -0.1750524109014675,
                0.1455223880597015
            ],
            [
                -0.1511530398322851,
                0.1828358208955224
            ]
        ]
    ],
    "1661": [
        [
            [
                -0.07945492662473794,
                0.29477611940298504
            ],
            [
                -0.05555555555555555,
                0.332089552238806
            ],
            [
                -0.03249475890985325,
                0.3238805970149254
            ]
        ],
        [
            [
                0.03668763102725367,
                0.2992537313432836
            ],
            [
                0.059748427672955975,
                0.291044776119403
            ],
            [
                0.07232704402515724,
                0.30970149253731344
            ]
        ],
        [
            [
                0.2756813417190773,
                0.5149253731343282
            ],
            [
                0.28825995807127885,
                0.5335820895522388
            ],
            [
                0.3138364779874213,
                0.5783582089552238
            ]
        ],
        [
            [
                0.370020964360587,
                0.5578358208955224
            ],
            [
                0.3270440251572327,
                0.3880597014925373
            ],
            [
                0.32599580712788256,
                0.32649253731343286
            ]
        ],
        [
            [
                0.33605870020964307,
                0.3022388059701492
            ],
            [
                0.3574423480083857,
                0.29477611940298504
            ],
            [
                0.3666666666666661,
                0.24477611940298485
            ]
        ],
        [
            [
                0.40587002096436037,
                0.4361940298507462
            ],
            [
                0.41509433962264153,
                0.3861940298507463
            ],
            [
                0.41635220125786143,
                0.3429104477611935
            ]
        ],
        [
            [
                0.40859538784067084,
                0.14776119402985075
            ],
            [
                0.40985324947589097,
                0.1044776119402985
            ],
            [
                0.43375262054507335,
                0.09179104477611941
            ]
        ],
        [
            [
                0.5054507337526205,
                0.05373134328358209
            ],
            [
                0.5293501048218029,
                0.041044776119402986
            ],
            [
                0.5540880503144654,
                0.06791044776119404
            ]
        ],
        [
            [
                0.6283018867924528,
                0.14850746268656714
            ],
            [
                0.6530398322851153,
                0.1753731343283582
            ],
            [
                0.6496855345911949,
                0.2134328358208955
            ]
        ],
        [
            [
                0.6459119496855347,
                0.3388059701492538
            ],
            [
                0.6425576519916143,
                0.3768656716417911
            ],
            [
                0.6492662473794549,
                0.41492537313432837
            ]
        ],
        [
            [
                0.6589098532494759,
                0.41716417910447756
            ],
            [
                0.6656184486373166,
                0.45522388059701496
            ],
            [
                0.6714884696016772,
                0.49029850746268666
            ]
        ],
        [
            [
                0.6932914046121593,
                0.6962686567164179
            ],
            [
                0.69916142557652,
                0.7313432835820896
            ],
            [
                0.6903563941299791,
                0.796268656716418
            ]
        ],
        [
            [
                0.6639412997903563,
                0.991044776119403
            ],
            [
                0.6551362683438154,
                1.0559701492537314
            ],
            [
                0.7255765199161425,
                1.1044776119402986
            ]
        ],
        [
            [
                0.9368972746331237,
                1.25
            ],
            [
                1.0073375262054507,
                1.2985074626865671
            ],
            [
                1.051362683438155,
                1.1604477611940298
            ]
        ],
        [
            [
                1.1834381551362683,
                0.746268656716418
            ],
            [
                1.2274633123689727,
                0.6082089552238806
            ],
            [
                1.2102725366876308,
                0.4283582089552239
            ]
        ],
        [
            [
                1.1587002096436059,
                -0.11119402985074629
            ],
            [
                1.141509433962264,
                -0.291044776119403
            ],
            [
                0.9062893081761006,
                -0.2947761194029851
            ]
        ],
        [
            [
                0.20062893081761005,
                -0.30597014925373134
            ],
            [
                -0.03459119496855346,
                -0.30970149253731344
            ],
            [
                -0.06268343815513626,
                -0.21865671641791046
            ]
        ],
        [
            [
                -0.14696016771488468,
                0.05447761194029852
            ],
            [
                -0.1750524109014675,
                0.1455223880597015
            ],
            [
                -0.1511530398322851,
                0.1828358208955224
            ]
        ]
    ]
}
</property>
    <property name="kdenlive:collapsed">0</property>
   </filter>
  </entry>
  <entry producer="producer229" in="00:00:55.567" out="00:01:14.900">
   <property name="kdenlive:id">34</property>
  </entry>
  <entry producer="producer229" in="00:01:25.333" out="00:02:05.900">
   <property name="kdenlive:id">34</property>
   <filter id="filter245">
    <property name="rotate_center">1</property>
    <property name="mlt_service">qtblend</property>
    <property name="kdenlive_id">qtblend</property>
    <property name="rect">00:01:25.333=-158 -2 1920 1080 1.000000</property>
    <property name="rotation">00:01:25.333=0</property>
    <property name="compositing">0</property>
    <property name="distort">0</property>
    <property name="kdenlive:collapsed">0</property>
   </filter>
  </entry>
  <entry producer="producer229" in="00:02:10.900" out="00:02:25.600">
   <property name="kdenlive:id">34</property>
  </entry>
 </playlist>
 <playlist id="playlist21"/>
 <tractor id="tractor10" in="00:00:00.000" out="00:05:27.900">
  <property name="kdenlive:trackheight">69</property>
  <property name="kdenlive:timeline_active">1</property>
  <property name="kdenlive:collapsed">28</property>
  <property name="kdenlive:track_name">sarah-snare</property>
  <property name="kdenlive:thumbs_format"/>
  <property name="kdenlive:audio_rec"/>
  <property name="kdenlive:locked_track"/>
  <track hide="audio" producer="playlist20"/>
  <track producer="playlist21"/>
 </tractor>
 <producer id="producer231" in="00:00:00.000" out="00:04:00.133">
  <property name="length">7205</property>
  <property name="eof">pause</property>
  <property name="resource">/home/ryankelln/.cache/kdenlive/proxy/16b37e57a80d9ba82f4eb411ec8e6e1e.mkv</property>
  <property name="audio_index">1</property>
  <property name="video_index">0</property>
  <property name="mute_on_pause">0</property>
  <property name="mlt_service">avformat-novalidate</property>
  <property name="seekable">1</property>
  <property name="aspect_ratio">1</property>
  <property name="kdenlive:clipname">2021-06-02_140918_Sarah_kit+handheld_jackson-take3_beginning_to_D.mp4</property>
  <property name="kdenlive:folderid">41</property>
  <property name="kdenlive:id">43</property>
  <property name="kdenlive:file_size">762359744</property>
  <property name="kdenlive:file_hash">16b37e57a80d9ba82f4eb411ec8e6e1e</property>
  <property name="kdenlive:proxy">/home/ryankelln/.cache/kdenlive/proxy/16b37e57a80d9ba82f4eb411ec8e6e1e.mkv</property>
  <property name="kdenlive:originalurl">content/musicians/2021-06-02_140918_Sarah_kit+handheld_jackson-take3_beginning_to_D.mp4</property>
  <property name="kdenlive:original.mlt_type">producer</property>
  <property name="kdenlive:original.in">0</property>
  <property name="kdenlive:original.out">7204</property>
  <property name="kdenlive:original.length">7205</property>
  <property name="kdenlive:original.eof">pause</property>
  <property name="kdenlive:original.resource">content/musicians/2021-06-02_140918_Sarah_kit+handheld_jackson-take3_beginning_to_D.mp4</property>
  <property name="kdenlive:original.meta.media.nb_streams">2</property>
  <property name="kdenlive:original.meta.media.0.stream.type">video</property>
  <property name="kdenlive:original.meta.media.0.stream.frame_rate">59.9401</property>
  <property name="kdenlive:original.meta.media.0.stream.sample_aspect_ratio">1</property>
  <property name="kdenlive:original.meta.media.0.codec.width">1920</property>
  <property name="kdenlive:original.meta.media.0.codec.height">1080</property>
  <property name="kdenlive:original.meta.media.0.codec.rotate">0</property>
  <property name="kdenlive:original.meta.media.0.codec.frame_rate">59.9401</property>
  <property name="kdenlive:original.meta.media.0.codec.pix_fmt">yuv420p</property>
  <property name="kdenlive:original.meta.media.0.codec.sample_aspect_ratio">1</property>
  <property name="kdenlive:original.meta.media.0.codec.colorspace">709</property>
  <property name="kdenlive:original.meta.media.0.codec.name">h264</property>
  <property name="kdenlive:original.meta.media.0.codec.long_name">H.264 / AVC / MPEG-4 AVC / MPEG-4 part 10</property>
  <property name="kdenlive:original.meta.media.0.codec.bit_rate">24939061</property>
  <property name="kdenlive:original.meta.attr.0.stream.handler_name.markup">VideoHandler</property>
  <property name="kdenlive:original.meta.media.1.stream.type">audio</property>
  <property name="kdenlive:original.meta.media.1.codec.sample_fmt">fltp</property>
  <property name="kdenlive:original.meta.media.1.codec.sample_rate">48000</property>
  <property name="kdenlive:original.meta.media.1.codec.channels">6</property>
  <property name="kdenlive:original.meta.media.1.codec.name">ac3</property>
  <property name="kdenlive:original.meta.media.1.codec.long_name">ATSC A/52A (AC-3)</property>
  <property name="kdenlive:original.meta.media.1.codec.bit_rate">448000</property>
  <property name="kdenlive:original.meta.attr.1.stream.handler_name.markup">SoundHandler</property>
  <property name="kdenlive:original.meta.attr.major_brand.markup">isom</property>
  <property name="kdenlive:original.meta.attr.minor_version.markup">512</property>
  <property name="kdenlive:original.meta.attr.compatible_brands.markup">isomiso2avc1mp41</property>
  <property name="kdenlive:original.meta.attr.encoder.markup">Lavf58.45.100</property>
  <property name="kdenlive:original.seekable">1</property>
  <property name="kdenlive:original.width">1920</property>
  <property name="kdenlive:original.height">1080</property>
  <property name="kdenlive:original.meta.media.sample_aspect_num">1</property>
  <property name="kdenlive:original.meta.media.sample_aspect_den">1</property>
  <property name="kdenlive:original.aspect_ratio">1</property>
  <property name="kdenlive:original.audio_index">1</property>
  <property name="kdenlive:original.video_index">0</property>
  <property name="kdenlive:original.mute_on_pause">0</property>
  <property name="kdenlive:original.mlt_service">avformat-novalidate</property>
  <property name="kdenlive:original.kdenlive:folderid">41</property>
  <property name="kdenlive:original.meta.media.frame_rate_num">323887500</property>
  <property name="kdenlive:original.meta.media.frame_rate_den">5403523</property>
  <property name="kdenlive:original.meta.media.colorspace">709</property>
  <property name="kdenlive:original.meta.media.color_trc">2</property>
  <property name="kdenlive:original.meta.media.width">1920</property>
  <property name="kdenlive:original.meta.media.height">1080</property>
  <property name="kdenlive:original.meta.media.color_range">mpeg</property>
  <property name="kdenlive:original.kdenlive:id">55</property>
  <property name="kdenlive:original.kdenlive:file_size">762359744</property>
  <property name="kdenlive:original.kdenlive:file_hash">16b37e57a80d9ba82f4eb411ec8e6e1e</property>
  <property name="kdenlive:original.backup">1</property>
  <property name="kdenlive:audio_max">4</property>
  <property name="global_feed">1</property>
  <property name="xml">was here</property>
  <property name="meta.media.nb_streams">2</property>
  <property name="meta.media.0.stream.type">video</property>
  <property name="meta.media.0.stream.frame_rate">59.9401</property>
  <property name="meta.media.0.stream.sample_aspect_ratio">1</property>
  <property name="meta.media.0.codec.width">640</property>
  <property name="meta.media.0.codec.height">360</property>
  <property name="meta.media.0.codec.rotate">0</property>
  <property name="meta.media.0.codec.frame_rate">1000</property>
  <property name="meta.media.0.codec.pix_fmt">yuvj420p</property>
  <property name="meta.media.0.codec.sample_aspect_ratio">1</property>
  <property name="meta.media.0.codec.colorspace">601</property>
  <property name="meta.media.0.codec.name">mjpeg</property>
  <property name="meta.media.0.codec.long_name">MJPEG (Motion JPEG)</property>
  <property name="meta.media.0.codec.bit_rate">0</property>
  <property name="meta.attr.0.stream.HANDLER_NAME.markup">VideoHandler</property>
  <property name="meta.attr.0.stream.ENCODER.markup">Lavc58.91.100 mjpeg</property>
  <property name="meta.attr.0.stream.DURATION.markup">00:04:00.157000000</property>
  <property name="meta.media.1.stream.type">audio</property>
  <property name="meta.media.1.codec.sample_fmt">s16</property>
  <property name="meta.media.1.codec.sample_rate">48000</property>
  <property name="meta.media.1.codec.channels">6</property>
  <property name="meta.media.1.codec.name">pcm_s16le</property>
  <property name="meta.media.1.codec.long_name">PCM signed 16-bit little-endian</property>
  <property name="meta.media.1.codec.bit_rate">4608000</property>
  <property name="meta.attr.1.stream.HANDLER_NAME.markup">SoundHandler</property>
  <property name="meta.attr.1.stream.ENCODER.markup">Lavc58.91.100 pcm_s16le</property>
  <property name="meta.attr.1.stream.DURATION.markup">00:04:00.160000000</property>
  <property name="meta.attr.COMPATIBLE_BRANDS.markup">isomiso2avc1mp41</property>
  <property name="meta.attr.MAJOR_BRAND.markup">isom</property>
  <property name="meta.attr.MINOR_VERSION.markup">512</property>
  <property name="meta.attr.ENCODER.markup">Lavf58.45.100</property>
  <property name="meta.media.sample_aspect_num">1</property>
  <property name="meta.media.sample_aspect_den">1</property>
  <property name="meta.media.frame_rate_num">19001</property>
  <property name="meta.media.frame_rate_den">317</property>
  <property name="meta.media.colorspace">601</property>
  <property name="meta.media.color_trc">2</property>
  <property name="meta.media.width">640</property>
  <property name="meta.media.height">360</property>
  <property name="meta.media.color_range">full</property>
  <property name="meta.media.top_field_first">0</property>
  <property name="meta.media.progressive">1</property>
  <property name="set.test_audio">1</property>
  <property name="set.test_image">1</property>
 </producer>
 <producer id="producer232" in="00:00:00.000" out="00:02:22.400">
  <property name="length">4273</property>
  <property name="eof">pause</property>
  <property name="resource">/home/ryankelln/.cache/kdenlive/proxy/06777305edbf49ffad5e7e8e6efaa2c4.mkv</property>
  <property name="audio_index">1</property>
  <property name="video_index">0</property>
  <property name="mute_on_pause">0</property>
  <property name="mlt_service">avformat-novalidate</property>
  <property name="seekable">1</property>
  <property name="aspect_ratio">1</property>
  <property name="kdenlive:clipname">2021-06-02_142358_Sarah_kit+handheld_jackson-take4_m44_to_end.mp4</property>
  <property name="kdenlive:folderid">41</property>
  <property name="kdenlive:id">44</property>
  <property name="kdenlive:file_size">450928904</property>
  <property name="kdenlive:file_hash">06777305edbf49ffad5e7e8e6efaa2c4</property>
  <property name="kdenlive:proxy">/home/ryankelln/.cache/kdenlive/proxy/06777305edbf49ffad5e7e8e6efaa2c4.mkv</property>
  <property name="kdenlive:originalurl">content/musicians/2021-06-02_142358_Sarah_kit+handheld_jackson-take4_m44_to_end.mp4</property>
  <property name="kdenlive:original.mlt_type">producer</property>
  <property name="kdenlive:original.in">0</property>
  <property name="kdenlive:original.out">4272</property>
  <property name="kdenlive:original.length">4273</property>
  <property name="kdenlive:original.eof">pause</property>
  <property name="kdenlive:original.resource">content/musicians/2021-06-02_142358_Sarah_kit+handheld_jackson-take4_m44_to_end.mp4</property>
  <property name="kdenlive:original.meta.media.nb_streams">2</property>
  <property name="kdenlive:original.meta.media.0.stream.type">video</property>
  <property name="kdenlive:original.meta.media.0.stream.frame_rate">59.9401</property>
  <property name="kdenlive:original.meta.media.0.stream.sample_aspect_ratio">1</property>
  <property name="kdenlive:original.meta.media.0.codec.width">1920</property>
  <property name="kdenlive:original.meta.media.0.codec.height">1080</property>
  <property name="kdenlive:original.meta.media.0.codec.rotate">0</property>
  <property name="kdenlive:original.meta.media.0.codec.frame_rate">59.9401</property>
  <property name="kdenlive:original.meta.media.0.codec.pix_fmt">yuv420p</property>
  <property name="kdenlive:original.meta.media.0.codec.sample_aspect_ratio">1</property>
  <property name="kdenlive:original.meta.media.0.codec.colorspace">709</property>
  <property name="kdenlive:original.meta.media.0.codec.name">h264</property>
  <property name="kdenlive:original.meta.media.0.codec.long_name">H.264 / AVC / MPEG-4 AVC / MPEG-4 part 10</property>
  <property name="kdenlive:original.meta.media.0.codec.bit_rate">24968671</property>
  <property name="kdenlive:original.meta.attr.0.stream.handler_name.markup">VideoHandler</property>
  <property name="kdenlive:original.meta.media.1.stream.type">audio</property>
  <property name="kdenlive:original.meta.media.1.codec.sample_fmt">fltp</property>
  <property name="kdenlive:original.meta.media.1.codec.sample_rate">48000</property>
  <property name="kdenlive:original.meta.media.1.codec.channels">6</property>
  <property name="kdenlive:original.meta.media.1.codec.name">ac3</property>
  <property name="kdenlive:original.meta.media.1.codec.long_name">ATSC A/52A (AC-3)</property>
  <property name="kdenlive:original.meta.media.1.codec.bit_rate">448000</property>
  <property name="kdenlive:original.meta.attr.1.stream.handler_name.markup">SoundHandler</property>
  <property name="kdenlive:original.meta.attr.major_brand.markup">isom</property>
  <property name="kdenlive:original.meta.attr.minor_version.markup">512</property>
  <property name="kdenlive:original.meta.attr.compatible_brands.markup">isomiso2avc1mp41</property>
  <property name="kdenlive:original.meta.attr.encoder.markup">Lavf58.45.100</property>
  <property name="kdenlive:original.seekable">1</property>
  <property name="kdenlive:original.width">1920</property>
  <property name="kdenlive:original.height">1080</property>
  <property name="kdenlive:original.meta.media.sample_aspect_num">1</property>
  <property name="kdenlive:original.meta.media.sample_aspect_den">1</property>
  <property name="kdenlive:original.aspect_ratio">1</property>
  <property name="kdenlive:original.audio_index">1</property>
  <property name="kdenlive:original.video_index">0</property>
  <property name="kdenlive:original.mute_on_pause">0</property>
  <property name="kdenlive:original.mlt_service">avformat-novalidate</property>
  <property name="kdenlive:original.kdenlive:folderid">41</property>
  <property name="kdenlive:original.meta.media.frame_rate_num">153072000</property>
  <property name="kdenlive:original.meta.media.frame_rate_den">2553751</property>
  <property name="kdenlive:original.meta.media.colorspace">709</property>
  <property name="kdenlive:original.meta.media.color_trc">2</property>
  <property name="kdenlive:original.meta.media.width">1920</property>
  <property name="kdenlive:original.meta.media.height">1080</property>
  <property name="kdenlive:original.meta.media.color_range">mpeg</property>
  <property name="kdenlive:original.kdenlive:id">56</property>
  <property name="kdenlive:original.kdenlive:file_size">450928904</property>
  <property name="kdenlive:original.kdenlive:file_hash">06777305edbf49ffad5e7e8e6efaa2c4</property>
  <property name="kdenlive:original.backup">1</property>
  <property name="kdenlive:audio_max">4</property>
  <property name="global_feed">1</property>
  <property name="xml">was here</property>
  <property name="meta.media.nb_streams">2</property>
  <property name="meta.media.0.stream.type">video</property>
  <property name="meta.media.0.stream.frame_rate">59.9401</property>
  <property name="meta.media.0.stream.sample_aspect_ratio">1</property>
  <property name="meta.media.0.codec.width">640</property>
  <property name="meta.media.0.codec.height">360</property>
  <property name="meta.media.0.codec.rotate">0</property>
  <property name="meta.media.0.codec.frame_rate">1000</property>
  <property name="meta.media.0.codec.pix_fmt">yuvj420p</property>
  <property name="meta.media.0.codec.sample_aspect_ratio">1</property>
  <property name="meta.media.0.codec.colorspace">601</property>
  <property name="meta.media.0.codec.name">mjpeg</property>
  <property name="meta.media.0.codec.long_name">MJPEG (Motion JPEG)</property>
  <property name="meta.media.0.codec.bit_rate">0</property>
  <property name="meta.attr.0.stream.HANDLER_NAME.markup">VideoHandler</property>
  <property name="meta.attr.0.stream.ENCODER.markup">Lavc58.91.100 mjpeg</property>
  <property name="meta.attr.0.stream.DURATION.markup">00:02:22.443000000</property>
  <property name="meta.media.1.stream.type">audio</property>
  <property name="meta.media.1.codec.sample_fmt">s16</property>
  <property name="meta.media.1.codec.sample_rate">48000</property>
  <property name="meta.media.1.codec.channels">6</property>
  <property name="meta.media.1.codec.name">pcm_s16le</property>
  <property name="meta.media.1.codec.long_name">PCM signed 16-bit little-endian</property>
  <property name="meta.media.1.codec.bit_rate">4608000</property>
  <property name="meta.attr.1.stream.HANDLER_NAME.markup">SoundHandler</property>
  <property name="meta.attr.1.stream.ENCODER.markup">Lavc58.91.100 pcm_s16le</property>
  <property name="meta.attr.1.stream.DURATION.markup">00:02:22.432000000</property>
  <property name="meta.attr.COMPATIBLE_BRANDS.markup">isomiso2avc1mp41</property>
  <property name="meta.attr.MAJOR_BRAND.markup">isom</property>
  <property name="meta.attr.MINOR_VERSION.markup">512</property>
  <property name="meta.attr.ENCODER.markup">Lavf58.45.100</property>
  <property name="meta.media.sample_aspect_num">1</property>
  <property name="meta.media.sample_aspect_den">1</property>
  <property name="meta.media.frame_rate_num">19001</property>
  <property name="meta.media.frame_rate_den">317</property>
  <property name="meta.media.colorspace">601</property>
  <property name="meta.media.color_trc">2</property>
  <property name="meta.media.width">640</property>
  <property name="meta.media.height">360</property>
  <property name="meta.media.color_range">full</property>
  <property name="meta.media.top_field_first">0</property>
  <property name="meta.media.progressive">1</property>
  <property name="set.test_audio">1</property>
  <property name="set.test_image">1</property>
 </producer>
 <producer id="producer233" in="00:00:00.000" out="00:02:22.400">
  <property name="length">4273</property>
  <property name="eof">pause</property>
  <property name="resource">/home/ryankelln/.cache/kdenlive/proxy/06777305edbf49ffad5e7e8e6efaa2c4.mkv</property>
  <property name="audio_index">1</property>
  <property name="video_index">0</property>
  <property name="mute_on_pause">0</property>
  <property name="mlt_service">avformat-novalidate</property>
  <property name="seekable">1</property>
  <property name="aspect_ratio">1</property>
  <property name="kdenlive:clipname">2021-06-02_142358_Sarah_kit+handheld_jackson-take4_m44_to_end.mp4</property>
  <property name="kdenlive:folderid">41</property>
  <property name="kdenlive:id">44</property>
  <property name="kdenlive:file_size">450928904</property>
  <property name="kdenlive:file_hash">06777305edbf49ffad5e7e8e6efaa2c4</property>
  <property name="kdenlive:proxy">/home/ryankelln/.cache/kdenlive/proxy/06777305edbf49ffad5e7e8e6efaa2c4.mkv</property>
  <property name="kdenlive:originalurl">content/musicians/2021-06-02_142358_Sarah_kit+handheld_jackson-take4_m44_to_end.mp4</property>
  <property name="kdenlive:original.mlt_type">producer</property>
  <property name="kdenlive:original.in">0</property>
  <property name="kdenlive:original.out">4272</property>
  <property name="kdenlive:original.length">4273</property>
  <property name="kdenlive:original.eof">pause</property>
  <property name="kdenlive:original.resource">content/musicians/2021-06-02_142358_Sarah_kit+handheld_jackson-take4_m44_to_end.mp4</property>
  <property name="kdenlive:original.meta.media.nb_streams">2</property>
  <property name="kdenlive:original.meta.media.0.stream.type">video</property>
  <property name="kdenlive:original.meta.media.0.stream.frame_rate">59.9401</property>
  <property name="kdenlive:original.meta.media.0.stream.sample_aspect_ratio">1</property>
  <property name="kdenlive:original.meta.media.0.codec.width">1920</property>
  <property name="kdenlive:original.meta.media.0.codec.height">1080</property>
  <property name="kdenlive:original.meta.media.0.codec.rotate">0</property>
  <property name="kdenlive:original.meta.media.0.codec.frame_rate">59.9401</property>
  <property name="kdenlive:original.meta.media.0.codec.pix_fmt">yuv420p</property>
  <property name="kdenlive:original.meta.media.0.codec.sample_aspect_ratio">1</property>
  <property name="kdenlive:original.meta.media.0.codec.colorspace">709</property>
  <property name="kdenlive:original.meta.media.0.codec.name">h264</property>
  <property name="kdenlive:original.meta.media.0.codec.long_name">H.264 / AVC / MPEG-4 AVC / MPEG-4 part 10</property>
  <property name="kdenlive:original.meta.media.0.codec.bit_rate">24968671</property>
  <property name="kdenlive:original.meta.attr.0.stream.handler_name.markup">VideoHandler</property>
  <property name="kdenlive:original.meta.media.1.stream.type">audio</property>
  <property name="kdenlive:original.meta.media.1.codec.sample_fmt">fltp</property>
  <property name="kdenlive:original.meta.media.1.codec.sample_rate">48000</property>
  <property name="kdenlive:original.meta.media.1.codec.channels">6</property>
  <property name="kdenlive:original.meta.media.1.codec.name">ac3</property>
  <property name="kdenlive:original.meta.media.1.codec.long_name">ATSC A/52A (AC-3)</property>
  <property name="kdenlive:original.meta.media.1.codec.bit_rate">448000</property>
  <property name="kdenlive:original.meta.attr.1.stream.handler_name.markup">SoundHandler</property>
  <property name="kdenlive:original.meta.attr.major_brand.markup">isom</property>
  <property name="kdenlive:original.meta.attr.minor_version.markup">512</property>
  <property name="kdenlive:original.meta.attr.compatible_brands.markup">isomiso2avc1mp41</property>
  <property name="kdenlive:original.meta.attr.encoder.markup">Lavf58.45.100</property>
  <property name="kdenlive:original.seekable">1</property>
  <property name="kdenlive:original.width">1920</property>
  <property name="kdenlive:original.height">1080</property>
  <property name="kdenlive:original.meta.media.sample_aspect_num">1</property>
  <property name="kdenlive:original.meta.media.sample_aspect_den">1</property>
  <property name="kdenlive:original.aspect_ratio">1</property>
  <property name="kdenlive:original.audio_index">1</property>
  <property name="kdenlive:original.video_index">0</property>
  <property name="kdenlive:original.mute_on_pause">0</property>
  <property name="kdenlive:original.mlt_service">avformat-novalidate</property>
  <property name="kdenlive:original.kdenlive:folderid">41</property>
  <property name="kdenlive:original.meta.media.frame_rate_num">153072000</property>
  <property name="kdenlive:original.meta.media.frame_rate_den">2553751</property>
  <property name="kdenlive:original.meta.media.colorspace">709</property>
  <property name="kdenlive:original.meta.media.color_trc">2</property>
  <property name="kdenlive:original.meta.media.width">1920</property>
  <property name="kdenlive:original.meta.media.height">1080</property>
  <property name="kdenlive:original.meta.media.color_range">mpeg</property>
  <property name="kdenlive:original.kdenlive:id">56</property>
  <property name="kdenlive:original.kdenlive:file_size">450928904</property>
  <property name="kdenlive:original.kdenlive:file_hash">06777305edbf49ffad5e7e8e6efaa2c4</property>
  <property name="kdenlive:original.backup">1</property>
  <property name="kdenlive:audio_max">4</property>
  <property name="global_feed">1</property>
  <property name="xml">was here</property>
  <property name="meta.media.nb_streams">2</property>
  <property name="meta.media.0.stream.type">video</property>
  <property name="meta.media.0.stream.frame_rate">59.9401</property>
  <property name="meta.media.0.stream.sample_aspect_ratio">1</property>
  <property name="meta.media.0.codec.width">640</property>
  <property name="meta.media.0.codec.height">360</property>
  <property name="meta.media.0.codec.rotate">0</property>
  <property name="meta.media.0.codec.frame_rate">1000</property>
  <property name="meta.media.0.codec.pix_fmt">yuvj420p</property>
  <property name="meta.media.0.codec.sample_aspect_ratio">1</property>
  <property name="meta.media.0.codec.colorspace">601</property>
  <property name="meta.media.0.codec.name">mjpeg</property>
  <property name="meta.media.0.codec.long_name">MJPEG (Motion JPEG)</property>
  <property name="meta.media.0.codec.bit_rate">0</property>
  <property name="meta.attr.0.stream.HANDLER_NAME.markup">VideoHandler</property>
  <property name="meta.attr.0.stream.ENCODER.markup">Lavc58.91.100 mjpeg</property>
  <property name="meta.attr.0.stream.DURATION.markup">00:02:22.443000000</property>
  <property name="meta.media.1.stream.type">audio</property>
  <property name="meta.media.1.codec.sample_fmt">s16</property>
  <property name="meta.media.1.codec.sample_rate">48000</property>
  <property name="meta.media.1.codec.channels">6</property>
  <property name="meta.media.1.codec.name">pcm_s16le</property>
  <property name="meta.media.1.codec.long_name">PCM signed 16-bit little-endian</property>
  <property name="meta.media.1.codec.bit_rate">4608000</property>
  <property name="meta.attr.1.stream.HANDLER_NAME.markup">SoundHandler</property>
  <property name="meta.attr.1.stream.ENCODER.markup">Lavc58.91.100 pcm_s16le</property>
  <property name="meta.attr.1.stream.DURATION.markup">00:02:22.432000000</property>
  <property name="meta.attr.COMPATIBLE_BRANDS.markup">isomiso2avc1mp41</property>
  <property name="meta.attr.MAJOR_BRAND.markup">isom</property>
  <property name="meta.attr.MINOR_VERSION.markup">512</property>
  <property name="meta.attr.ENCODER.markup">Lavf58.45.100</property>
  <property name="meta.media.sample_aspect_num">1</property>
  <property name="meta.media.sample_aspect_den">1</property>
  <property name="meta.media.frame_rate_num">19001</property>
  <property name="meta.media.frame_rate_den">317</property>
  <property name="meta.media.colorspace">601</property>
  <property name="meta.media.color_trc">2</property>
  <property name="meta.media.width">640</property>
  <property name="meta.media.height">360</property>
  <property name="meta.media.color_range">full</property>
  <property name="meta.media.top_field_first">0</property>
  <property name="meta.media.progressive">1</property>
  <property name="set.test_audio">1</property>
  <property name="set.test_image">0</property>
 </producer>
 <playlist id="playlist22">
  <blank length="00:00:13.500"/>
  <entry producer="producer231" in="00:00:00.000" out="00:01:12.467">
   <property name="kdenlive:id">43</property>
  </entry>
  <blank length="00:00:33.833"/>
  <entry producer="producer231" in="00:01:47.500" out="00:03:13.433">
   <property name="kdenlive:id">43</property>
  </entry>
  <entry producer="producer232" in="00:00:04.933" out="00:01:11.367">
   <property name="kdenlive:id">44</property>
  </entry>
  <entry producer="producer233" in="00:01:21.733" out="00:01:37.100">
   <property name="kdenlive:id">44</property>
   <property name="kdenlive:activeeffect">0</property>
   <filter id="filter246">
    <property name="lift_r">-0.205203</property>
    <property name="lift_g">-0.274998</property>
    <property name="lift_b">-0.142306</property>
    <property name="gamma_r">0.862501</property>
    <property name="gamma_g">0.662425</property>
    <property name="gamma_b">0.626047</property>
    <property name="gain_r">1.14998</property>
    <property name="gain_g">1.05287</property>
    <property name="gain_b">0.936294</property>
    <property name="mlt_service">lift_gamma_gain</property>
    <property name="kdenlive_id">lift_gamma_gain</property>
    <property name="kdenlive:collapsed">0</property>
   </filter>
   <filter id="filter247" in="00:01:21.733" out="00:01:22.167">
    <property name="start">0</property>
    <property name="mlt_service">brightness</property>
    <property name="kdenlive_id">fade_from_black</property>
    <property name="end">1</property>
    <property name="alpha">-1</property>
   </filter>
  </entry>
  <entry producer="producer232" in="00:01:37.133" out="00:02:02.633">
   <property name="kdenlive:id">44</property>
  </entry>
  <entry producer="producer232" in="00:02:07.800" out="00:02:22.400">
   <property name="kdenlive:id">44</property>
  </entry>
 </playlist>
 <playlist id="playlist23"/>
 <tractor id="tractor11" in="00:00:00.000" out="00:05:27.800">
  <property name="kdenlive:trackheight">69</property>
  <property name="kdenlive:timeline_active">1</property>
  <property name="kdenlive:collapsed">0</property>
  <property name="kdenlive:track_name">sarah-handheld</property>
  <property name="kdenlive:thumbs_format"/>
  <property name="kdenlive:audio_rec"/>
  <property name="kdenlive:locked_track"/>
  <track hide="audio" producer="playlist22"/>
  <track producer="playlist23"/>
 </tractor>
 <producer id="producer234" in="00:00:00.000" out="00:04:09.133">
  <property name="length">7475</property>
  <property name="eof">pause</property>
  <property name="resource">content/musicians/2021-02-06_Caleb+Chris_upright+piano+handheld_jackson_MVI_6038-take3_full.mkv</property>
  <property name="audio_index">1</property>
  <property name="video_index">0</property>
  <property name="mute_on_pause">0</property>
  <property name="mlt_service">avformat-novalidate</property>
  <property name="seekable">1</property>
  <property name="aspect_ratio">1</property>
  <property name="kdenlive:clipname"/>
  <property name="kdenlive:folderid">41</property>
  <property name="kdenlive:id">35</property>
  <property name="kdenlive:file_size">992524048</property>
  <property name="kdenlive:file_hash">92f1b50c08810b01da341e5a2f3b0c6c</property>
  <property name="kdenlive:audio_max">1</property>
  <property name="global_feed">1</property>
  <property name="xml">was here</property>
  <property name="meta.media.nb_streams">2</property>
  <property name="meta.media.0.stream.type">video</property>
  <property name="meta.media.0.stream.frame_rate">29.97</property>
  <property name="meta.media.0.stream.sample_aspect_ratio">0</property>
  <property name="meta.media.0.codec.width">1280</property>
  <property name="meta.media.0.codec.height">720</property>
  <property name="meta.media.0.codec.rotate">0</property>
  <property name="meta.media.0.codec.frame_rate">1000</property>
  <property name="meta.media.0.codec.pix_fmt">yuvj420p</property>
  <property name="meta.media.0.codec.sample_aspect_ratio">0</property>
  <property name="meta.media.0.codec.colorspace">601</property>
  <property name="meta.media.0.codec.color_trc">1</property>
  <property name="meta.media.0.codec.name">h264</property>
  <property name="meta.media.0.codec.long_name">H.264 / AVC / MPEG-4 AVC / MPEG-4 part 10</property>
  <property name="meta.media.0.codec.bit_rate">0</property>
  <property name="meta.attr.0.stream.language.markup">eng</property>
  <property name="meta.attr.0.stream.DURATION.markup">00:04:09.181000000</property>
  <property name="meta.media.1.stream.type">audio</property>
  <property name="meta.media.1.codec.sample_fmt">s16</property>
  <property name="meta.media.1.codec.sample_rate">48000</property>
  <property name="meta.media.1.codec.channels">1</property>
  <property name="meta.media.1.codec.name">pcm_s16le</property>
  <property name="meta.media.1.codec.long_name">PCM signed 16-bit little-endian</property>
  <property name="meta.media.1.codec.bit_rate">768000</property>
  <property name="meta.attr.1.stream.language.markup">eng</property>
  <property name="meta.attr.1.stream.DURATION.markup">00:04:09.165000000</property>
  <property name="meta.attr.COMPATIBLE_BRANDS.markup">qt  CAEP</property>
  <property name="meta.attr.creation_time.markup">2021-06-02T13:56:08.000000Z</property>
  <property name="meta.attr.MAJOR_BRAND.markup">qt  </property>
  <property name="meta.attr.MINOR_VERSION.markup">537331968</property>
  <property name="meta.attr.ENCODER.markup">Lavf58.45.100</property>
  <property name="meta.media.sample_aspect_num">1</property>
  <property name="meta.media.sample_aspect_den">1</property>
  <property name="meta.media.frame_rate_num">30000</property>
  <property name="meta.media.frame_rate_den">1001</property>
  <property name="meta.media.colorspace">601</property>
  <property name="meta.media.color_trc">1</property>
  <property name="meta.media.width">1280</property>
  <property name="meta.media.height">720</property>
  <property name="meta.media.color_range">full</property>
  <property name="meta.media.top_field_first">0</property>
  <property name="meta.media.progressive">1</property>
  <property name="set.test_audio">1</property>
  <property name="set.test_image">1</property>
 </producer>
 <producer id="producer235" in="00:00:00.000" out="00:04:09.133">
  <property name="length">7475</property>
  <property name="eof">pause</property>
  <property name="resource">content/musicians/2021-02-06_Caleb+Chris_upright+piano+handheld_jackson_MVI_6038-take3_full.mkv</property>
  <property name="audio_index">1</property>
  <property name="video_index">0</property>
  <property name="mute_on_pause">0</property>
  <property name="mlt_service">avformat-novalidate</property>
  <property name="seekable">1</property>
  <property name="aspect_ratio">1</property>
  <property name="kdenlive:clipname"/>
  <property name="kdenlive:folderid">41</property>
  <property name="kdenlive:id">35</property>
  <property name="kdenlive:file_size">992524048</property>
  <property name="kdenlive:file_hash">92f1b50c08810b01da341e5a2f3b0c6c</property>
  <property name="kdenlive:audio_max">1</property>
  <property name="global_feed">1</property>
  <property name="xml">was here</property>
  <property name="meta.media.nb_streams">2</property>
  <property name="meta.media.0.stream.type">video</property>
  <property name="meta.media.0.stream.frame_rate">29.97</property>
  <property name="meta.media.0.stream.sample_aspect_ratio">0</property>
  <property name="meta.media.0.codec.width">1280</property>
  <property name="meta.media.0.codec.height">720</property>
  <property name="meta.media.0.codec.rotate">0</property>
  <property name="meta.media.0.codec.frame_rate">1000</property>
  <property name="meta.media.0.codec.pix_fmt">yuvj420p</property>
  <property name="meta.media.0.codec.sample_aspect_ratio">0</property>
  <property name="meta.media.0.codec.colorspace">601</property>
  <property name="meta.media.0.codec.color_trc">1</property>
  <property name="meta.media.0.codec.name">h264</property>
  <property name="meta.media.0.codec.long_name">H.264 / AVC / MPEG-4 AVC / MPEG-4 part 10</property>
  <property name="meta.media.0.codec.bit_rate">0</property>
  <property name="meta.attr.0.stream.language.markup">eng</property>
  <property name="meta.attr.0.stream.DURATION.markup">00:04:09.181000000</property>
  <property name="meta.media.1.stream.type">audio</property>
  <property name="meta.media.1.codec.sample_fmt">s16</property>
  <property name="meta.media.1.codec.sample_rate">48000</property>
  <property name="meta.media.1.codec.channels">1</property>
  <property name="meta.media.1.codec.name">pcm_s16le</property>
  <property name="meta.media.1.codec.long_name">PCM signed 16-bit little-endian</property>
  <property name="meta.media.1.codec.bit_rate">768000</property>
  <property name="meta.attr.1.stream.language.markup">eng</property>
  <property name="meta.attr.1.stream.DURATION.markup">00:04:09.165000000</property>
  <property name="meta.attr.COMPATIBLE_BRANDS.markup">qt  CAEP</property>
  <property name="meta.attr.creation_time.markup">2021-06-02T13:56:08.000000Z</property>
  <property name="meta.attr.MAJOR_BRAND.markup">qt  </property>
  <property name="meta.attr.MINOR_VERSION.markup">537331968</property>
  <property name="meta.attr.ENCODER.markup">Lavf58.45.100</property>
  <property name="meta.media.sample_aspect_num">1</property>
  <property name="meta.media.sample_aspect_den">1</property>
  <property name="meta.media.frame_rate_num">30000</property>
  <property name="meta.media.frame_rate_den">1001</property>
  <property name="meta.media.colorspace">601</property>
  <property name="meta.media.color_trc">1</property>
  <property name="meta.media.width">1280</property>
  <property name="meta.media.height">720</property>
  <property name="meta.media.color_range">full</property>
  <property name="meta.media.top_field_first">0</property>
  <property name="meta.media.progressive">1</property>
  <property name="set.test_audio">1</property>
  <property name="set.test_image">0</property>
 </producer>
 <producer id="producer236" in="00:00:00.000" out="00:00:40.233">
  <property name="length">1208</property>
  <property name="eof">pause</property>
  <property name="resource">content/footage/bird shit.mp4</property>
  <property name="audio_index">1</property>
  <property name="video_index">0</property>
  <property name="mute_on_pause">0</property>
  <property name="mlt_service">avformat-novalidate</property>
  <property name="seekable">1</property>
  <property name="aspect_ratio">1</property>
  <property name="kdenlive:clipname">bird shit.mp4</property>
  <property name="kdenlive:folderid">55</property>
  <property name="kdenlive:id">64</property>
  <property name="kdenlive:file_size">13081500</property>
  <property name="kdenlive:file_hash">ff3d577e677fa7ef6ee919d871119c10</property>
  <property name="kdenlive:proxy">-</property>
  <property name="kdenlive:originalurl">content/footage/bird shit.mp4</property>
  <property name="kdenlive:audio_max">17</property>
  <property name="global_feed">1</property>
  <property name="kdenlive:active_streams">-1</property>
  <property name="kdenlive:zone_in">514</property>
  <property name="kdenlive:zone_out">770</property>
  <property name="kdenlive:clipzones">[
    {
        "in": 514,
        "name": "flying shit",
        "out": 770
    }
]
</property>
  <property name="xml">was here</property>
  <property name="meta.media.nb_streams">2</property>
  <property name="meta.media.0.stream.type">video</property>
  <property name="meta.media.0.stream.frame_rate">12</property>
  <property name="meta.media.0.stream.sample_aspect_ratio">1</property>
  <property name="meta.media.0.codec.width">1280</property>
  <property name="meta.media.0.codec.height">720</property>
  <property name="meta.media.0.codec.rotate">0</property>
  <property name="meta.media.0.codec.frame_rate">12</property>
  <property name="meta.media.0.codec.pix_fmt">yuv420p</property>
  <property name="meta.media.0.codec.sample_aspect_ratio">1</property>
  <property name="meta.media.0.codec.colorspace">709</property>
  <property name="meta.media.0.codec.name">h264</property>
  <property name="meta.media.0.codec.long_name">H.264 / AVC / MPEG-4 AVC / MPEG-4 part 10</property>
  <property name="meta.media.0.codec.bit_rate">2480920</property>
  <property name="meta.attr.0.stream.creation_time.markup">2013-02-05T14:31:58.000000Z</property>
  <property name="meta.attr.0.stream.handler_name.markup">L-SMASH Video Handler</property>
  <property name="meta.attr.0.stream.encoder.markup">AVC Coding</property>
  <property name="meta.media.1.stream.type">audio</property>
  <property name="meta.media.1.codec.sample_fmt">fltp</property>
  <property name="meta.media.1.codec.sample_rate">44100</property>
  <property name="meta.media.1.codec.channels">2</property>
  <property name="meta.media.1.codec.name">aac</property>
  <property name="meta.media.1.codec.long_name">AAC (Advanced Audio Coding)</property>
  <property name="meta.media.1.codec.bit_rate">157588</property>
  <property name="meta.attr.1.stream.creation_time.markup">2013-02-05T14:31:58.000000Z</property>
  <property name="meta.attr.1.stream.handler_name.markup">L-SMASH Audio Handler</property>
  <property name="meta.attr.major_brand.markup">mp42</property>
  <property name="meta.attr.minor_version.markup">0</property>
  <property name="meta.attr.compatible_brands.markup">mp42mp41isomavc1</property>
  <property name="meta.attr.creation_time.markup">2013-02-05T14:31:58.000000Z</property>
  <property name="meta.media.sample_aspect_num">1</property>
  <property name="meta.media.sample_aspect_den">1</property>
  <property name="meta.media.frame_rate_num">12</property>
  <property name="meta.media.frame_rate_den">1</property>
  <property name="meta.media.colorspace">709</property>
  <property name="meta.media.color_trc">2</property>
  <property name="meta.media.width">1280</property>
  <property name="meta.media.height">720</property>
  <property name="meta.media.color_range">mpeg</property>
  <property name="meta.media.top_field_first">0</property>
  <property name="meta.media.progressive">1</property>
  <property name="set.test_audio">1</property>
  <property name="set.test_image">0</property>
 </producer>
 <playlist id="playlist24">
  <blank length="00:00:07.000"/>
  <entry producer="producer234" in="00:00:01.467" out="00:01:12.167">
   <property name="kdenlive:id">35</property>
  </entry>
  <entry producer="producer235" in="00:01:12.200" out="00:01:20.433">
   <property name="kdenlive:id">35</property>
   <filter id="filter248" in="00:01:19.867" out="00:01:20.467">
    <property name="start">1</property>
    <property name="mlt_service">brightness</property>
    <property name="kdenlive_id">fade_to_black</property>
    <property name="end">0</property>
    <property name="alpha">-1</property>
    <property name="kdenlive:collapsed">0</property>
   </filter>
   <filter id="filter249" in="00:01:12.200" out="00:01:12.267">
    <property name="start">0</property>
    <property name="mlt_service">brightness</property>
    <property name="kdenlive_id">fade_from_black</property>
    <property name="end">1</property>
    <property name="alpha">-1</property>
   </filter>
  </entry>
  <blank length="00:03:06.600"/>
  <entry producer="producer236" in="00:00:18.133" out="00:00:33.167">
   <property name="kdenlive:id">64</property>
   <property name="kdenlive:activeeffect">2</property>
   <filter id="filter250">
    <property name="lift_r">-0.68751</property>
    <property name="lift_g">-0.263645</property>
    <property name="lift_b">-0.121492</property>
    <property name="gamma_r">0.68751</property>
    <property name="gamma_g">0.497871</property>
    <property name="gamma_b">0.489113</property>
    <property name="gain_r">1.05</property>
    <property name="gain_g">0.994339</property>
    <property name="gain_b">0.938613</property>
    <property name="mlt_service">lift_gamma_gain</property>
    <property name="kdenlive_id">lift_gamma_gain</property>
    <property name="kdenlive:collapsed">0</property>
   </filter>
   <filter id="filter251">
    <property name="rotate_center">1</property>
    <property name="mlt_service">qtblend</property>
    <property name="kdenlive_id">qtblend</property>
    <property name="rect">00:00:18.133=0 0 1920 1080 1.000000;00:00:25.200=0 0 1920 1080 1.000000;00:00:25.233|=-422 -33 2400 1350 1.000000;00:00:25.300|=-419 -102 2400 1350 1.000000;00:00:25.667|=-141 -174 2400 1350 1.000000;00:00:25.833|=233 -167 2400 1350 1.000000;00:00:26.067|=-94 231 2400 1350 1.000000;00:00:26.367|=-182 -258 2400 1350 1.000000;00:00:26.567|=240 -190 2400 1350 1.000000;00:00:26.733|=-112 206 2400 1350 1.000000;00:00:27.000=-439 -152 2400 1350 1.000000;00:00:27.333|=232 -113 1536 864 1.000000;00:00:27.500=180 -194 2496 1404 1.000000;00:00:27.733=367 408 768 432 1.000000;00:00:27.767=104 157 1536 864 1.000000;00:00:27.800=14 108 1536 864 1.000000;00:00:27.967|=-211 -338 2496 1404 1.000000;00:00:28.067|=105 -307 2496 1404 1.000000;00:00:28.133|=319 -239 2496 1404 1.000000;00:00:28.233|=-186 82 2496 1404 1.000000;00:00:28.400|=21 -283 2496 1404 1.000000;00:00:28.567|=-133 123 2496 1404 1.000000;00:00:28.733|=-109 -410 2496 1404 1.000000;00:00:28.900|=-637 174 2496 1404 1.000000;00:00:29.000=84 233 1344 756 1.000000;00:00:29.100|=-491 -320 2496 1404 1.000000;00:00:29.133|=-93 -565 2496 1404 1.000000;00:00:29.300|=210 -212 2496 1404 1.000000;00:00:29.567|=-178 -16 2496 1404 1.000000;00:00:29.633|=-130 138 2496 1404 1.000000;00:00:29.733|=64 -145 2496 1404 1.000000;00:00:29.900|=-258 -471 2496 1404 1.000000;00:00:30.067|=-121 0 2496 1404 1.000000;00:00:30.167=370 311 1152 648 1.000000;00:00:30.200=-102 -23 1920 1080 1.000000;00:00:30.367|=82 -204 1920 1080 1.000000;00:00:30.400=462 -220 1920 1080 1.000000;00:00:30.567|=299 181 1920 1080 1.000000;00:00:30.733|=500 135 1920 1080 1.000000;00:00:30.800|=278 247 1152 648 1.000000;00:00:30.900=-437 -203 2496 1404 1.000000;00:00:30.933=-850 -468 3360 1890 1.000000;00:00:30.967=-834 -397 3360 1890 1.000000;00:00:31.033=-2034 -1072 5760 3240 1.000000;00:00:31.067=50 -86 1920 1080 1.000000;00:00:31.133=-238 -248 2496 1404 1.000000</property>
    <property name="rotation">00:00:18.133=0;00:00:25.200=0;00:00:25.233|=0;00:00:25.300|=0;00:00:25.667|=0;00:00:25.833|=0;00:00:26.067|=0;00:00:26.367|=0;00:00:26.567|=0;00:00:26.733|=0;00:00:27.000=0;00:00:27.333|=0;00:00:27.500=0;00:00:27.733=0;00:00:27.767=0;00:00:27.800=0;00:00:27.967|=0;00:00:28.067|=0;00:00:28.133|=0;00:00:28.233|=0;00:00:28.400|=0;00:00:28.567|=0;00:00:28.733|=0;00:00:28.900|=0;00:00:29.000=-35;00:00:29.100|=0;00:00:29.133|=0;00:00:29.300|=0;00:00:29.567|=0;00:00:29.633|=0;00:00:29.733|=0;00:00:29.900|=0;00:00:30.067|=0;00:00:30.167=0;00:00:30.200=0;00:00:30.367|=0;00:00:30.400=0;00:00:30.567|=0;00:00:30.733|=0;00:00:30.800|=0;00:00:30.900=0;00:00:30.933=0;00:00:30.967=0;00:00:31.033=0;00:00:31.067=0;00:00:31.133=0</property>
    <property name="compositing">0</property>
    <property name="distort">0</property>
    <property name="kdenlive:collapsed">0</property>
   </filter>
   <filter id="filter252">
    <property name="mode">alpha</property>
    <property name="alpha_operation">sub</property>
    <property name="invert">0</property>
    <property name="feather">141</property>
    <property name="feather_passes">1</property>
    <property name="mlt_service">rotoscoping</property>
    <property name="kdenlive_id">rotoscoping</property>
    <property name="spline">{
    "544": [
        [
            [
                -0.09786096256684522,
                0.3328804347826082
            ],
            [
                -0.10580595874713539,
                0.4130434782608688
            ],
            [
                -0.11344537815126081,
                0.46331521739130416
            ]
        ],
        [
            [
                -0.1363636363636364,
                0.6141304347826078
            ],
            [
                -0.14400305576776173,
                0.6644021739130433
            ],
            [
                -0.15821237585943476,
                0.7138586956521733
            ]
        ],
        [
            [
                -0.20084033613445404,
                0.8622282608695649
            ],
            [
                -0.21504965622612698,
                0.9116847826086947
            ],
            [
                -0.20954927425515674,
                0.9554347826086952
            ]
        ],
        [
            [
                -0.19304812834224613,
                1.0866847826086952
            ],
            [
                -0.18754774637127591,
                1.1304347826086951
            ],
            [
                -0.14889228418640205,
                1.1491847826086954
            ]
        ],
        [
            [
                -0.03292589763178036,
                1.2054347826086949
            ],
            [
                0.005729564553093571,
                1.2241847826086951
            ],
            [
                0.033231474407944814,
                1.24320652173913
            ]
        ],
        [
            [
                0.11573720397249783,
                1.3002717391304344
            ],
            [
                0.14323911382734925,
                1.3192934782608703
            ],
            [
                0.11420932009167303,
                1.3823369565217383
            ]
        ],
        [
            [
                0.027119938884644732,
                1.571467391304348
            ],
            [
                -0.0019098548510317207,
                1.634510869565218
            ],
            [
                -0.12933537051184124,
                1.6285326086956522
            ]
        ],
        [
            [
                -0.5116119174942705,
                1.6105978260869567
            ],
            [
                -0.6390374331550804,
                1.6046195652173907
            ],
            [
                -0.6533995416348358,
                1.4067934782608698
            ]
        ],
        [
            [
                -0.6964858670741025,
                0.813315217391304
            ],
            [
                -0.7108479755538579,
                0.6154891304347817
            ],
            [
                -0.6842627960275022,
                0.4975543478260866
            ]
        ],
        [
            [
                -0.6045072574484339,
                0.14374999999999943
            ],
            [
                -0.5779220779220782,
                0.02581521739130361
            ],
            [
                -0.4755538579067992,
                0.02309782608695581
            ]
        ],
        [
            [
                -0.16844919786096266,
                0.014945652173912303
            ],
            [
                -0.066080977845684,
                0.012228260869564503
            ],
            [
                -0.07402597402597429,
                0.09239130434782535
            ]
        ]
    ],
    "858": [
        [
            [
                -0.11852735499794328,
                0.3591346153846155
            ],
            [
                -0.12647235117823363,
                0.4392976588628764
            ],
            [
                -0.13411177058235887,
                0.48956939799331123
            ]
        ],
        [
            [
                -0.15703002879473477,
                0.6403846153846151
            ],
            [
                -0.1646694481988601,
                0.6906563545150501
            ],
            [
                -0.17887876829053298,
                0.7401128762541803
            ]
        ],
        [
            [
                -0.22150672856555212,
                0.8884824414715716
            ],
            [
                -0.23571604865722506,
                0.9379389632107021
            ],
            [
                -0.23021566668625468,
                0.9816889632107021
            ]
        ],
        [
            [
                -0.21371452077334432,
                1.1129389632107027
            ],
            [
                -0.2082141388023741,
                1.1566889632107027
            ],
            [
                -0.16955867661750026,
                1.1754389632107018
            ]
        ],
        [
            [
                -0.05359229006287823,
                1.2316889632107024
            ],
            [
                -0.01493682787800433,
                1.250438963210702
            ],
            [
                0.012565081976846738,
                1.2694607023411375
            ]
        ],
        [
            [
                0.09507081154139978,
                1.3265259197324404
            ],
            [
                0.12257272139625089,
                1.3455476588628759
            ],
            [
                0.0935429276605749,
                1.4085911371237456
            ]
        ],
        [
            [
                0.006453546453546666,
                1.5977215719063544
            ],
            [
                -0.022576247282129636,
                1.660765050167224
            ],
            [
                -0.15000176294293943,
                1.6547867892976589
            ]
        ],
        [
            [
                -0.532278309925369,
                1.6368520066889634
            ],
            [
                -0.6597038255861783,
                1.6308737458193976
            ],
            [
                -0.6740659340659342,
                1.4330476588628764
            ]
        ],
        [
            [
                -0.7171522595052008,
                0.8395693979933109
            ],
            [
                -0.7315143679849563,
                0.6417433110367894
            ],
            [
                -0.7049291884586002,
                0.5238085284280938
            ]
        ],
        [
            [
                -0.6251736498795325,
                0.1700041806020067
            ],
            [
                -0.5985884703531763,
                0.052069397993311145
            ],
            [
                -0.4962202503378974,
                0.049352006688963314
            ]
        ],
        [
            [
                -0.18911559029206088,
                0.04119983277591977
            ],
            [
                -0.08674737027678206,
                0.03848244147157193
            ],
            [
                -0.09469236645707234,
                0.1186454849498328
            ]
        ]
    ],
    "859": [
        [
            [
                0.4430099312452251,
                0.29755434782608686
            ],
            [
                0.4350649350649348,
                0.3777173913043477
            ],
            [
                0.42742551566080955,
                0.42798913043478265
            ]
        ],
        [
            [
                0.40450725744843363,
                0.5788043478260866
            ],
            [
                0.3968678380443083,
                0.6290760869565218
            ],
            [
                0.3826585179526354,
                0.6785326086956519
            ]
        ],
        [
            [
                0.3400305576776163,
                0.826902173913043
            ],
            [
                0.32582123758594334,
                0.8763586956521735
            ],
            [
                0.3313216195569137,
                0.9201086956521735
            ]
        ],
        [
            [
                0.34782276546982405,
                1.051358695652175
            ],
            [
                0.35332314744079424,
                1.0951086956521747
            ],
            [
                0.3919786096256681,
                1.1138586956521739
            ]
        ],
        [
            [
                0.5079449961802901,
                1.1701086956521745
            ],
            [
                0.546600458365164,
                1.188858695652174
            ],
            [
                0.5741023682200151,
                1.2078804347826093
            ]
        ],
        [
            [
                0.6566080977845683,
                1.2649456521739126
            ],
            [
                0.6841100076394192,
                1.2839673913043477
            ],
            [
                0.6550802139037433,
                1.3470108695652177
            ]
        ],
        [
            [
                0.5679908326967151,
                1.5361413043478263
            ],
            [
                0.5389610389610388,
                1.599184782608696
            ],
            [
                0.411535523300229,
                1.5932065217391307
            ]
        ],
        [
            [
                0.029258976317799192,
                1.5752717391304354
            ],
            [
                -0.09816653934301003,
                1.5692934782608694
            ],
            [
                -0.11252864782276564,
                1.3714673913043482
            ]
        ],
        [
            [
                -0.15561497326203227,
                0.7779891304347823
            ],
            [
                -0.1699770817417877,
                0.5801630434782608
            ],
            [
                -0.1433919022154317,
                0.46222826086956514
            ]
        ],
        [
            [
                -0.06363636363636403,
                0.1084239130434781
            ],
            [
                -0.0370511841100079,
                -0.009510869565217404
            ],
            [
                0.06531703590527085,
                -0.012228260869565246
            ]
        ],
        [
            [
                0.37242169595110747,
                -0.02038043478260876
            ],
            [
                0.47478991596638637,
                -0.023097826086956614
            ],
            [
                0.4668449197860961,
                0.05706521739130425
            ]
        ]
    ],
    "862": [
        [
            [
                0.3757830404889227,
                0.28396739130434734
            ],
            [
                0.36783804430863243,
                0.3641304347826083
            ],
            [
                0.3601986249045072,
                0.4144021739130431
            ]
        ],
        [
            [
                0.3372803666921313,
                0.565217391304347
            ],
            [
                0.32964094728800597,
                0.6154891304347823
            ],
            [
                0.31543162719633305,
                0.6649456521739125
            ]
        ],
        [
            [
                0.27280366692131397,
                0.8133152173913037
            ],
            [
                0.258594346829641,
                0.862771739130434
            ],
            [
                0.2640947288006114,
                0.906521739130434
            ]
        ],
        [
            [
                0.2805958747135217,
                1.0377717391304344
            ],
            [
                0.28609625668449185,
                1.0815217391304346
            ],
            [
                0.32475171886936577,
                1.1002717391304344
            ]
        ],
        [
            [
                0.44071810542398776,
                1.1565217391304354
            ],
            [
                0.4793735676088617,
                1.1752717391304346
            ],
            [
                0.5068754774637129,
                1.1942934782608694
            ]
        ],
        [
            [
                0.5893812070282657,
                1.251358695652172
            ],
            [
                0.6168831168831168,
                1.270380434782608
            ],
            [
                0.5878533231474409,
                1.3334239130434773
            ]
        ],
        [
            [
                0.500763941940413,
                1.5225543478260863
            ],
            [
                0.47173414820473636,
                1.5855978260869572
            ],
            [
                0.3443086325439267,
                1.579619565217391
            ]
        ],
        [
            [
                -0.03796791443850311,
                1.5616847826086957
            ],
            [
                -0.16539343009931243,
                1.5557065217391295
            ],
            [
                -0.17975553857906815,
                1.3578804347826086
            ]
        ],
        [
            [
                -0.22284186401833483,
                0.7644021739130427
            ],
            [
                -0.23720397249809014,
                0.5665760869565213
            ],
            [
                -0.21061879297173422,
                0.44864130434782584
            ]
        ],
        [
            [
                -0.13086325439266647,
                0.0948369565217385
            ],
            [
                -0.10427807486631026,
                -0.023097826086957048
            ],
            [
                -0.0019098548510314943,
                -0.025815217391304886
            ]
        ],
        [
            [
                0.3051948051948052,
                -0.03396739130434839
            ],
            [
                0.407563025210084,
                -0.03668478260869627
            ],
            [
                0.39961802902979376,
                0.04347826086956457
            ]
        ]
    ],
    "869": [
        [
            [
                -0.11925133689839576,
                0.36005434782608714
            ],
            [
                -0.1271963330786861,
                0.440217391304348
            ],
            [
                -0.13483575248281138,
                0.49048913043478287
            ]
        ],
        [
            [
                -0.15775401069518724,
                0.6413043478260867
            ],
            [
                -0.16539343009931257,
                0.6915760869565217
            ],
            [
                -0.17960275019098546,
                0.741032608695652
            ]
        ],
        [
            [
                -0.2222307104660046,
                0.8894021739130432
            ],
            [
                -0.23644003055767757,
                0.9388586956521737
            ],
            [
                -0.23093964858670718,
                0.9826086956521737
            ]
        ],
        [
            [
                -0.2144385026737968,
                1.1138586956521743
            ],
            [
                -0.2089381207028266,
                1.1576086956521743
            ],
            [
                -0.17028265851795277,
                1.1763586956521734
            ]
        ],
        [
            [
                -0.0543162719633307,
                1.2326086956521738
            ],
            [
                -0.015660809778456807,
                1.2513586956521736
            ],
            [
                0.011841100076394254,
                1.270380434782609
            ]
        ],
        [
            [
                0.09434682964094729,
                1.327445652173912
            ],
            [
                0.1218487394957984,
                1.3464673913043472
            ],
            [
                0.09281894576012242,
                1.4095108695652172
            ]
        ],
        [
            [
                0.005729564553094187,
                1.598641304347826
            ],
            [
                -0.023300229182582115,
                1.6616847826086953
            ],
            [
                -0.1507257448433919,
                1.6557065217391302
            ]
        ],
        [
            [
                -0.5330022918258215,
                1.637771739130435
            ],
            [
                -0.6604278074866309,
                1.631793478260869
            ],
            [
                -0.6747899159663866,
                1.4339673913043478
            ]
        ],
        [
            [
                -0.7178762414056533,
                0.8404891304347826
            ],
            [
                -0.7322383498854087,
                0.642663043478261
            ],
            [
                -0.7056531703590527,
                0.5247282608695654
            ]
        ],
        [
            [
                -0.625897631779985,
                0.1709239130434783
            ],
            [
                -0.5993124522536288,
                0.05298913043478275
            ],
            [
                -0.4969442322383499,
                0.05027173913043491
            ]
        ],
        [
            [
                -0.18983957219251338,
                0.04211956521739137
            ],
            [
                -0.08747135217723453,
                0.03940217391304353
            ],
            [
                -0.09541634835752481,
                0.1195652173913044
            ]
        ]
    ],
    "870": [
        [
            [
                0.3765469824293354,
                0.03532608695652173
            ],
            [
                0.36860198624904505,
                0.11548913043478261
            ],
            [
                0.3609625668449198,
                0.1657608695652174
            ]
        ],
        [
            [
                0.3380443086325439,
                0.3165760869565218
            ],
            [
                0.33040488922841865,
                0.36684782608695654
            ],
            [
                0.3161955691367456,
                0.416304347826087
            ]
        ],
        [
            [
                0.2735676088617265,
                0.5646739130434782
            ],
            [
                0.2593582887700535,
                0.6141304347826086
            ],
            [
                0.2648586707410237,
                0.6578804347826087
            ]
        ],
        [
            [
                0.2813598166539343,
                0.7891304347826087
            ],
            [
                0.2868601986249045,
                0.8328804347826086
            ],
            [
                0.32551566080977845,
                0.8516304347826087
            ]
        ],
        [
            [
                0.44148204736440033,
                0.9078804347826087
            ],
            [
                0.48013750954927426,
                0.9266304347826086
            ],
            [
                0.5076394194041253,
                0.9456521739130436
            ]
        ],
        [
            [
                0.5901451489686784,
                1.002717391304348
            ],
            [
                0.6176470588235294,
                1.0217391304347827
            ],
            [
                0.5886172650878534,
                1.0847826086956522
            ]
        ],
        [
            [
                0.5015278838808251,
                1.2739130434782608
            ],
            [
                0.472498090145149,
                1.3369565217391306
            ],
            [
                0.3450725744843392,
                1.3309782608695653
            ]
        ],
        [
            [
                -0.03720397249809014,
                1.3130434782608698
            ],
            [
                -0.16462948815889994,
                1.3070652173913044
            ],
            [
                -0.17899159663865546,
                1.1092391304347826
            ]
        ],
        [
            [
                -0.22207792207792207,
                0.5157608695652174
            ],
            [
                -0.23644003055767762,
                0.3179347826086957
            ],
            [
                -0.2098548510313216,
                0.2
            ]
        ],
        [
            [
                -0.13009931245225365,
                -0.15380434782608698
            ],
            [
                -0.10351413292589765,
                -0.27173913043478265
            ],
            [
                -0.0011459129106187996,
                -0.27445652173913043
            ]
        ],
        [
            [
                0.30595874713521776,
                -0.28260869565217395
            ],
            [
                0.40832696715049654,
                -0.2853260869565218
            ],
            [
                0.4003819709702062,
                -0.2051630434782609
            ]
        ]
    ],
    "871": [
        [
            [
                0.3902979373567609,
                0.12907608695652167
            ],
            [
                0.3823529411764706,
                0.20923913043478262
            ],
            [
                0.3747135217723453,
                0.25951086956521735
            ]
        ],
        [
            [
                0.2815126050420169,
                0.3899456521739135
            ],
            [
                0.27387318563789154,
                0.44021739130434784
            ],
            [
                0.2596638655462186,
                0.48967391304347846
            ]
        ],
        [
            [
                0.2254392666157371,
                0.5510869565217396
            ],
            [
                0.21122994652406418,
                0.6005434782608695
            ],
            [
                0.21673032849503424,
                0.64429347826087
            ]
        ],
        [
            [
                0.2813598166539343,
                0.7891304347826087
            ],
            [
                0.2868601986249045,
                0.8328804347826086
            ],
            [
                0.32551566080977845,
                0.8516304347826087
            ]
        ],
        [
            [
                0.44148204736440033,
                0.9078804347826087
            ],
            [
                0.48013750954927426,
                0.9266304347826086
            ],
            [
                0.5076394194041253,
                0.9456521739130436
            ]
        ],
        [
            [
                0.5901451489686784,
                1.002717391304348
            ],
            [
                0.6176470588235294,
                1.0217391304347827
            ],
            [
                0.5886172650878534,
                1.0847826086956522
            ]
        ],
        [
            [
                0.5015278838808251,
                1.2739130434782608
            ],
            [
                0.472498090145149,
                1.3369565217391306
            ],
            [
                0.3450725744843392,
                1.3309782608695653
            ]
        ],
        [
            [
                -0.03720397249809014,
                1.3130434782608698
            ],
            [
                -0.16462948815889994,
                1.3070652173913044
            ],
            [
                -0.17899159663865546,
                1.1092391304347826
            ]
        ],
        [
            [
                -0.22207792207792207,
                0.5157608695652174
            ],
            [
                -0.23644003055767762,
                0.3179347826086957
            ],
            [
                -0.2098548510313216,
                0.2
            ]
        ],
        [
            [
                -0.13009931245225365,
                -0.15380434782608698
            ],
            [
                -0.10351413292589765,
                -0.27173913043478265
            ],
            [
                -0.0011459129106187996,
                -0.27445652173913043
            ]
        ],
        [
            [
                0.30595874713521776,
                -0.28260869565217395
            ],
            [
                0.40832696715049654,
                -0.2853260869565218
            ],
            [
                0.4003819709702062,
                -0.2051630434782609
            ]
        ]
    ],
    "872": [
        [
            [
                0.3223071046600459,
                0.260869565217391
            ],
            [
                0.31436210847975565,
                0.3410326086956519
            ],
            [
                0.30672268907563033,
                0.39130434782608675
            ]
        ],
        [
            [
                0.21352177234530176,
                0.5217391304347828
            ],
            [
                0.20588235294117635,
                0.572010869565217
            ],
            [
                0.19167303284950346,
                0.6214673913043477
            ]
        ],
        [
            [
                0.15744843391902194,
                0.6828804347826081
            ],
            [
                0.14323911382734916,
                0.7323369565217385
            ],
            [
                0.14873949579831913,
                0.7760869565217395
            ]
        ],
        [
            [
                0.21336898395721915,
                0.9209239130434774
            ],
            [
                0.21886936592818934,
                0.9646739130434778
            ],
            [
                0.2575248281130634,
                0.9834239130434779
            ]
        ],
        [
            [
                0.3734912146676853,
                1.0396739130434776
            ],
            [
                0.4121466768525593,
                1.0584239130434778
            ],
            [
                0.4396485867074102,
                1.0774456521739126
            ]
        ],
        [
            [
                0.5221543162719634,
                1.1345108695652166
            ],
            [
                0.5496562261268143,
                1.1535326086956517
            ],
            [
                0.5206264323911385,
                1.2165760869565219
            ]
        ],
        [
            [
                0.4335370511841102,
                1.4057065217391302
            ],
            [
                0.40450725744843385,
                1.4687500000000004
            ],
            [
                0.27708174178762424,
                1.4627717391304342
            ]
        ],
        [
            [
                -0.10519480519480519,
                1.444836956521739
            ],
            [
                -0.23262032085561482,
                1.4388586956521745
            ],
            [
                -0.24698242933537043,
                1.241032608695652
            ]
        ],
        [
            [
                -0.29006875477463706,
                0.6475543478260866
            ],
            [
                -0.30443086325439256,
                0.44972826086956497
            ],
            [
                -0.2778456837280366,
                0.33179347826086913
            ]
        ],
        [
            [
                -0.1980901451489685,
                -0.022010869565217733
            ],
            [
                -0.1715049656226125,
                -0.13994565217391342
            ],
            [
                -0.06913674560733386,
                -0.14266304347826125
            ]
        ],
        [
            [
                0.23796791443850257,
                -0.15081521739130463
            ],
            [
                0.3403361344537815,
                -0.1535326086956524
            ],
            [
                0.33239113827349126,
                -0.07336956521739163
            ]
        ]
    ],
    "874": [
        [
            [
                -0.13758594346829636,
                0.4402173913043474
            ],
            [
                -0.14553093964858663,
                0.5203804347826084
            ],
            [
                -0.15317035905271192,
                0.5706521739130433
            ]
        ],
        [
            [
                -0.24637127578304047,
                0.7010869565217394
            ],
            [
                -0.2540106951871659,
                0.751358695652173
            ],
            [
                -0.26822001527883876,
                0.8008152173913041
            ]
        ],
        [
            [
                -0.30244461420932023,
                0.8622282608695642
            ],
            [
                -0.316653934300993,
                0.9116847826086948
            ],
            [
                -0.31115355233002295,
                0.9554347826086956
            ]
        ],
        [
            [
                -0.2465240641711231,
                1.1002717391304333
            ],
            [
                -0.2410236822001529,
                1.1440217391304341
            ],
            [
                -0.20236822001527885,
                1.1627717391304344
            ]
        ],
        [
            [
                -0.08640183346065687,
                1.2190217391304334
            ],
            [
                -0.047746371275782955,
                1.2377717391304341
            ],
            [
                -0.020244461420931947,
                1.2567934782608687
            ]
        ],
        [
            [
                0.06226126814362135,
                1.3138586956521732
            ],
            [
                0.08976317799847214,
                1.332880434782608
            ],
            [
                0.06073338426279625,
                1.3959239130434782
            ]
        ],
        [
            [
                -0.02635599694423197,
                1.5850543478260866
            ],
            [
                -0.055385790679908335,
                1.648097826086957
            ],
            [
                -0.182811306340718,
                1.642119565217391
            ]
        ],
        [
            [
                -0.5650878533231474,
                1.6241847826086955
            ],
            [
                -0.6925133689839572,
                1.618206521739131
            ],
            [
                -0.7068754774637129,
                1.4203804347826083
            ]
        ],
        [
            [
                -0.7499618029029794,
                0.8269021739130429
            ],
            [
                -0.7643239113827349,
                0.6290760869565214
            ],
            [
                -0.7377387318563791,
                0.5111413043478257
            ]
        ],
        [
            [
                -0.6579831932773108,
                0.15733695652173882
            ],
            [
                -0.631398013750955,
                0.03940217391304312
            ],
            [
                -0.529029793735676,
                0.03668478260869529
            ]
        ],
        [
            [
                -0.22192513368983963,
                0.028532608695651912
            ],
            [
                -0.11955691367456074,
                0.025815217391304133
            ],
            [
                -0.12750190985485096,
                0.10597826086956491
            ]
        ]
    ]
}
</property>
    <property name="kdenlive:collapsed">0</property>
   </filter>
  </entry>
 </playlist>
 <playlist id="playlist25"/>
 <tractor id="tractor12" in="00:00:00.000" out="00:04:47.633">
  <property name="kdenlive:trackheight">69</property>
  <property name="kdenlive:timeline_active">1</property>
  <property name="kdenlive:collapsed">0</property>
  <property name="kdenlive:thumbs_format"/>
  <property name="kdenlive:audio_rec"/>
  <property name="kdenlive:locked_track"/>
  <track hide="audio" producer="playlist24"/>
  <track producer="playlist25"/>
 </tractor>
 <producer id="producer237" in="00:00:00.000" out="00:04:14.500">
  <property name="length">7636</property>
  <property name="eof">pause</property>
  <property name="resource">/home/ryankelln/.cache/kdenlive/proxy/9cec9d632787cb95f8eb310bff430b62.mkv</property>
  <property name="audio_index">1</property>
  <property name="video_index">0</property>
  <property name="mute_on_pause">0</property>
  <property name="mlt_service">avformat-novalidate</property>
  <property name="seekable">1</property>
  <property name="aspect_ratio">1</property>
  <property name="kdenlive:clipname">2021-06-02_Caleb_upright+4k+portrait_jackson_P1000536-take3_beginning_to_G.MP4</property>
  <property name="kdenlive:folderid">41</property>
  <property name="kdenlive:id">39</property>
  <property name="kdenlive:file_size">3052263565</property>
  <property name="kdenlive:file_hash">9cec9d632787cb95f8eb310bff430b62</property>
  <property name="kdenlive:proxy">/home/ryankelln/.cache/kdenlive/proxy/9cec9d632787cb95f8eb310bff430b62.mkv</property>
  <property name="kdenlive:originalurl">content/musicians/2021-06-02_Caleb_upright+4k+portrait_jackson_P1000536-take3_beginning_to_G.MP4</property>
  <property name="kdenlive:original.mlt_type">producer</property>
  <property name="kdenlive:original.in">0</property>
  <property name="kdenlive:original.out">7635</property>
  <property name="kdenlive:original.length">7636</property>
  <property name="kdenlive:original.eof">pause</property>
  <property name="kdenlive:original.resource">content/musicians/2021-06-02_Caleb_upright+4k+portrait_jackson_P1000536-take3_beginning_to_G.MP4</property>
  <property name="kdenlive:original.meta.media.nb_streams">2</property>
  <property name="kdenlive:original.meta.media.0.stream.type">video</property>
  <property name="kdenlive:original.meta.media.0.stream.frame_rate">29.97</property>
  <property name="kdenlive:original.meta.media.0.stream.sample_aspect_ratio">1</property>
  <property name="kdenlive:original.meta.media.0.codec.width">3328</property>
  <property name="kdenlive:original.meta.media.0.codec.height">2496</property>
  <property name="kdenlive:original.meta.media.0.codec.rotate">90</property>
  <property name="kdenlive:original.meta.media.0.codec.frame_rate">29.97</property>
  <property name="kdenlive:original.meta.media.0.codec.pix_fmt">yuvj420p</property>
  <property name="kdenlive:original.meta.media.0.codec.sample_aspect_ratio">1</property>
  <property name="kdenlive:original.meta.media.0.codec.colorspace">709</property>
  <property name="kdenlive:original.meta.media.0.codec.color_trc">1</property>
  <property name="kdenlive:original.meta.media.0.codec.name">h264</property>
  <property name="kdenlive:original.meta.media.0.codec.long_name">H.264 / AVC / MPEG-4 AVC / MPEG-4 part 10</property>
  <property name="kdenlive:original.meta.media.0.codec.bit_rate">95816171</property>
  <property name="kdenlive:original.meta.attr.0.stream.rotate.markup">90</property>
  <property name="kdenlive:original.meta.attr.0.stream.creation_time.markup">2021-06-02T13:56:16.000000Z</property>
  <property name="kdenlive:original.meta.attr.0.stream.handler_name.markup">VideoHandler</property>
  <property name="kdenlive:original.meta.media.1.stream.type">audio</property>
  <property name="kdenlive:original.meta.media.1.codec.sample_fmt">fltp</property>
  <property name="kdenlive:original.meta.media.1.codec.sample_rate">48000</property>
  <property name="kdenlive:original.meta.media.1.codec.channels">2</property>
  <property name="kdenlive:original.meta.media.1.codec.name">aac</property>
  <property name="kdenlive:original.meta.media.1.codec.long_name">AAC (Advanced Audio Coding)</property>
  <property name="kdenlive:original.meta.media.1.codec.bit_rate">125373</property>
  <property name="kdenlive:original.meta.attr.1.stream.creation_time.markup">2021-06-02T13:56:16.000000Z</property>
  <property name="kdenlive:original.meta.attr.1.stream.handler_name.markup">SoundHandler</property>
  <property name="kdenlive:original.meta.attr.major_brand.markup">isom</property>
  <property name="kdenlive:original.meta.attr.minor_version.markup">512</property>
  <property name="kdenlive:original.meta.attr.compatible_brands.markup">isomiso2avc1mp41</property>
  <property name="kdenlive:original.meta.attr.creation_time.markup">2021-06-02T13:56:16.000000Z</property>
  <property name="kdenlive:original.meta.attr.encoder.markup">Lavf58.45.100</property>
  <property name="kdenlive:original.seekable">1</property>
  <property name="kdenlive:original.width">3328</property>
  <property name="kdenlive:original.height">2496</property>
  <property name="kdenlive:original.meta.media.sample_aspect_num">1</property>
  <property name="kdenlive:original.meta.media.sample_aspect_den">1</property>
  <property name="kdenlive:original.aspect_ratio">1</property>
  <property name="kdenlive:original.audio_index">1</property>
  <property name="kdenlive:original.video_index">0</property>
  <property name="kdenlive:original.mute_on_pause">0</property>
  <property name="kdenlive:original.mlt_service">avformat-novalidate</property>
  <property name="kdenlive:original.kdenlive:folderid">41</property>
  <property name="kdenlive:original.meta.media.frame_rate_num">30000</property>
  <property name="kdenlive:original.meta.media.frame_rate_den">1001</property>
  <property name="kdenlive:original.meta.media.colorspace">709</property>
  <property name="kdenlive:original.meta.media.color_trc">1</property>
  <property name="kdenlive:original.meta.media.width">2496</property>
  <property name="kdenlive:original.meta.media.height">3328</property>
  <property name="kdenlive:original.meta.media.color_range">full</property>
  <property name="kdenlive:original.kdenlive:id">56</property>
  <property name="kdenlive:original.kdenlive:file_size">3052263565</property>
  <property name="kdenlive:original.kdenlive:file_hash">9cec9d632787cb95f8eb310bff430b62</property>
  <property name="kdenlive:original.backup">1</property>
  <property name="kdenlive:audio_max">1</property>
  <property name="global_feed">1</property>
  <property name="xml">was here</property>
  <property name="meta.media.nb_streams">2</property>
  <property name="meta.media.0.stream.type">video</property>
  <property name="meta.media.0.stream.frame_rate">29.97</property>
  <property name="meta.media.0.stream.sample_aspect_ratio">1</property>
  <property name="meta.media.0.codec.width">640</property>
  <property name="meta.media.0.codec.height">854</property>
  <property name="meta.media.0.codec.rotate">0</property>
  <property name="meta.media.0.codec.frame_rate">1000</property>
  <property name="meta.media.0.codec.pix_fmt">yuvj420p</property>
  <property name="meta.media.0.codec.sample_aspect_ratio">1.00078</property>
  <property name="meta.media.0.codec.colorspace">601</property>
  <property name="meta.media.0.codec.name">mjpeg</property>
  <property name="meta.media.0.codec.long_name">MJPEG (Motion JPEG)</property>
  <property name="meta.media.0.codec.bit_rate">0</property>
  <property name="meta.attr.0.stream.ENCODER.markup">Lavc58.91.100 mjpeg</property>
  <property name="meta.attr.0.stream.HANDLER_NAME.markup">VideoHandler</property>
  <property name="meta.attr.0.stream.DURATION.markup">00:04:14.587000000</property>
  <property name="meta.media.1.stream.type">audio</property>
  <property name="meta.media.1.codec.sample_fmt">s16</property>
  <property name="meta.media.1.codec.sample_rate">48000</property>
  <property name="meta.media.1.codec.channels">2</property>
  <property name="meta.media.1.codec.name">pcm_s16le</property>
  <property name="meta.media.1.codec.long_name">PCM signed 16-bit little-endian</property>
  <property name="meta.media.1.codec.bit_rate">1536000</property>
  <property name="meta.attr.1.stream.HANDLER_NAME.markup">SoundHandler</property>
  <property name="meta.attr.1.stream.ENCODER.markup">Lavc58.91.100 pcm_s16le</property>
  <property name="meta.attr.1.stream.DURATION.markup">00:04:14.549000000</property>
  <property name="meta.attr.COMPATIBLE_BRANDS.markup">isomiso2avc1mp41</property>
  <property name="meta.attr.MAJOR_BRAND.markup">isom</property>
  <property name="meta.attr.MINOR_VERSION.markup">512</property>
  <property name="meta.attr.ENCODER.markup">Lavf58.45.100</property>
  <property name="meta.media.sample_aspect_num">1</property>
  <property name="meta.media.sample_aspect_den">1</property>
  <property name="meta.media.frame_rate_num">30000</property>
  <property name="meta.media.frame_rate_den">1001</property>
  <property name="meta.media.colorspace">601</property>
  <property name="meta.media.color_trc">2</property>
  <property name="meta.media.width">640</property>
  <property name="meta.media.height">854</property>
  <property name="meta.media.color_range">full</property>
  <property name="meta.media.top_field_first">0</property>
  <property name="meta.media.progressive">1</property>
  <property name="set.test_audio">1</property>
  <property name="set.test_image">1</property>
 </producer>
 <producer id="producer238" in="00:00:00.000" out="00:00:59.367">
  <property name="length">1782</property>
  <property name="eof">pause</property>
  <property name="resource">/home/ryankelln/.cache/kdenlive/proxy/e7d3c892cf659b6a9653f2c2e83eea0f.mkv</property>
  <property name="audio_index">1</property>
  <property name="video_index">0</property>
  <property name="mute_on_pause">0</property>
  <property name="mlt_service">avformat-novalidate</property>
  <property name="seekable">1</property>
  <property name="aspect_ratio">1</property>
  <property name="kdenlive:clipname">2021-06-02_Caleb_upright+4k+portrait_jackson_P1000535-take2_bass_solo.MP4</property>
  <property name="kdenlive:folderid">41</property>
  <property name="kdenlive:id">37</property>
  <property name="kdenlive:file_size">712642983</property>
  <property name="kdenlive:file_hash">e7d3c892cf659b6a9653f2c2e83eea0f</property>
  <property name="kdenlive:proxy">/home/ryankelln/.cache/kdenlive/proxy/e7d3c892cf659b6a9653f2c2e83eea0f.mkv</property>
  <property name="kdenlive:originalurl">content/musicians/2021-06-02_Caleb_upright+4k+portrait_jackson_P1000535-take2_bass_solo.MP4</property>
  <property name="kdenlive:original.mlt_type">producer</property>
  <property name="kdenlive:original.in">0</property>
  <property name="kdenlive:original.out">1781</property>
  <property name="kdenlive:original.length">1782</property>
  <property name="kdenlive:original.eof">pause</property>
  <property name="kdenlive:original.resource">content/musicians/2021-06-02_Caleb_upright+4k+portrait_jackson_P1000535-take2_bass_solo.MP4</property>
  <property name="kdenlive:original.meta.media.nb_streams">2</property>
  <property name="kdenlive:original.meta.media.0.stream.type">video</property>
  <property name="kdenlive:original.meta.media.0.stream.frame_rate">29.97</property>
  <property name="kdenlive:original.meta.media.0.stream.sample_aspect_ratio">1</property>
  <property name="kdenlive:original.meta.media.0.codec.width">3328</property>
  <property name="kdenlive:original.meta.media.0.codec.height">2496</property>
  <property name="kdenlive:original.meta.media.0.codec.rotate">90</property>
  <property name="kdenlive:original.meta.media.0.codec.frame_rate">29.97</property>
  <property name="kdenlive:original.meta.media.0.codec.pix_fmt">yuvj420p</property>
  <property name="kdenlive:original.meta.media.0.codec.sample_aspect_ratio">1</property>
  <property name="kdenlive:original.meta.media.0.codec.colorspace">709</property>
  <property name="kdenlive:original.meta.media.0.codec.color_trc">1</property>
  <property name="kdenlive:original.meta.media.0.codec.name">h264</property>
  <property name="kdenlive:original.meta.media.0.codec.long_name">H.264 / AVC / MPEG-4 AVC / MPEG-4 part 10</property>
  <property name="kdenlive:original.meta.media.0.codec.bit_rate">95856555</property>
  <property name="kdenlive:original.meta.attr.0.stream.rotate.markup">90</property>
  <property name="kdenlive:original.meta.attr.0.stream.creation_time.markup">2021-06-02T13:56:16.000000Z</property>
  <property name="kdenlive:original.meta.attr.0.stream.handler_name.markup">VideoHandler</property>
  <property name="kdenlive:original.meta.media.1.stream.type">audio</property>
  <property name="kdenlive:original.meta.media.1.codec.sample_fmt">fltp</property>
  <property name="kdenlive:original.meta.media.1.codec.sample_rate">48000</property>
  <property name="kdenlive:original.meta.media.1.codec.channels">2</property>
  <property name="kdenlive:original.meta.media.1.codec.name">aac</property>
  <property name="kdenlive:original.meta.media.1.codec.long_name">AAC (Advanced Audio Coding)</property>
  <property name="kdenlive:original.meta.media.1.codec.bit_rate">125386</property>
  <property name="kdenlive:original.meta.attr.1.stream.creation_time.markup">2021-06-02T13:56:16.000000Z</property>
  <property name="kdenlive:original.meta.attr.1.stream.handler_name.markup">SoundHandler</property>
  <property name="kdenlive:original.meta.attr.major_brand.markup">isom</property>
  <property name="kdenlive:original.meta.attr.minor_version.markup">512</property>
  <property name="kdenlive:original.meta.attr.compatible_brands.markup">isomiso2avc1mp41</property>
  <property name="kdenlive:original.meta.attr.creation_time.markup">2021-06-02T13:56:16.000000Z</property>
  <property name="kdenlive:original.meta.attr.encoder.markup">Lavf58.45.100</property>
  <property name="kdenlive:original.seekable">1</property>
  <property name="kdenlive:original.width">3328</property>
  <property name="kdenlive:original.height">2496</property>
  <property name="kdenlive:original.meta.media.sample_aspect_num">1</property>
  <property name="kdenlive:original.meta.media.sample_aspect_den">1</property>
  <property name="kdenlive:original.aspect_ratio">1</property>
  <property name="kdenlive:original.audio_index">1</property>
  <property name="kdenlive:original.video_index">0</property>
  <property name="kdenlive:original.mute_on_pause">0</property>
  <property name="kdenlive:original.mlt_service">avformat-novalidate</property>
  <property name="kdenlive:original.kdenlive:folderid">41</property>
  <property name="kdenlive:original.meta.media.frame_rate_num">30000</property>
  <property name="kdenlive:original.meta.media.frame_rate_den">1001</property>
  <property name="kdenlive:original.meta.media.colorspace">709</property>
  <property name="kdenlive:original.meta.media.color_trc">1</property>
  <property name="kdenlive:original.meta.media.width">2496</property>
  <property name="kdenlive:original.meta.media.height">3328</property>
  <property name="kdenlive:original.meta.media.color_range">full</property>
  <property name="kdenlive:original.kdenlive:id">54</property>
  <property name="kdenlive:original.kdenlive:file_size">712642983</property>
  <property name="kdenlive:original.kdenlive:file_hash">e7d3c892cf659b6a9653f2c2e83eea0f</property>
  <property name="kdenlive:original.backup">1</property>
  <property name="kdenlive:audio_max">1</property>
  <property name="global_feed">1</property>
  <property name="xml">was here</property>
  <property name="meta.media.nb_streams">2</property>
  <property name="meta.media.0.stream.type">video</property>
  <property name="meta.media.0.stream.frame_rate">29.97</property>
  <property name="meta.media.0.stream.sample_aspect_ratio">1</property>
  <property name="meta.media.0.codec.width">640</property>
  <property name="meta.media.0.codec.height">854</property>
  <property name="meta.media.0.codec.rotate">0</property>
  <property name="meta.media.0.codec.frame_rate">1000</property>
  <property name="meta.media.0.codec.pix_fmt">yuvj420p</property>
  <property name="meta.media.0.codec.sample_aspect_ratio">1.00078</property>
  <property name="meta.media.0.codec.colorspace">601</property>
  <property name="meta.media.0.codec.name">mjpeg</property>
  <property name="meta.media.0.codec.long_name">MJPEG (Motion JPEG)</property>
  <property name="meta.media.0.codec.bit_rate">0</property>
  <property name="meta.attr.0.stream.ENCODER.markup">Lavc58.91.100 mjpeg</property>
  <property name="meta.attr.0.stream.HANDLER_NAME.markup">VideoHandler</property>
  <property name="meta.attr.0.stream.DURATION.markup">00:00:59.526000000</property>
  <property name="meta.media.1.stream.type">audio</property>
  <property name="meta.media.1.codec.sample_fmt">s16</property>
  <property name="meta.media.1.codec.sample_rate">48000</property>
  <property name="meta.media.1.codec.channels">2</property>
  <property name="meta.media.1.codec.name">pcm_s16le</property>
  <property name="meta.media.1.codec.long_name">PCM signed 16-bit little-endian</property>
  <property name="meta.media.1.codec.bit_rate">1536000</property>
  <property name="meta.attr.1.stream.HANDLER_NAME.markup">SoundHandler</property>
  <property name="meta.attr.1.stream.ENCODER.markup">Lavc58.91.100 pcm_s16le</property>
  <property name="meta.attr.1.stream.DURATION.markup">00:00:59.413000000</property>
  <property name="meta.attr.COMPATIBLE_BRANDS.markup">isomiso2avc1mp41</property>
  <property name="meta.attr.MAJOR_BRAND.markup">isom</property>
  <property name="meta.attr.MINOR_VERSION.markup">512</property>
  <property name="meta.attr.ENCODER.markup">Lavf58.45.100</property>
  <property name="meta.media.sample_aspect_num">1</property>
  <property name="meta.media.sample_aspect_den">1</property>
  <property name="meta.media.frame_rate_num">30000</property>
  <property name="meta.media.frame_rate_den">1001</property>
  <property name="meta.media.colorspace">601</property>
  <property name="meta.media.color_trc">2</property>
  <property name="meta.media.width">640</property>
  <property name="meta.media.height">854</property>
  <property name="meta.media.color_range">full</property>
  <property name="meta.media.top_field_first">0</property>
  <property name="meta.media.progressive">1</property>
  <property name="set.test_audio">1</property>
  <property name="set.test_image">0</property>
 </producer>
 <producer id="producer239" in="00:00:00.000" out="00:02:27.500">
  <property name="length">4426</property>
  <property name="eof">pause</property>
  <property name="resource">/home/ryankelln/.cache/kdenlive/proxy/00b9c2a45d419a9f345378ea35a006d0.mkv</property>
  <property name="audio_index">1</property>
  <property name="video_index">0</property>
  <property name="mute_on_pause">0</property>
  <property name="mlt_service">avformat-novalidate</property>
  <property name="seekable">1</property>
  <property name="aspect_ratio">1</property>
  <property name="kdenlive:clipname">2021-06-02_Caleb_upright+4k+portrait_jackson_P1000538-take4_m44-to-end.MP4</property>
  <property name="kdenlive:folderid">41</property>
  <property name="kdenlive:id">38</property>
  <property name="kdenlive:file_size">1768687009</property>
  <property name="kdenlive:file_hash">00b9c2a45d419a9f345378ea35a006d0</property>
  <property name="kdenlive:proxy">/home/ryankelln/.cache/kdenlive/proxy/00b9c2a45d419a9f345378ea35a006d0.mkv</property>
  <property name="kdenlive:originalurl">content/musicians/2021-06-02_Caleb_upright+4k+portrait_jackson_P1000538-take4_m44-to-end.MP4</property>
  <property name="kdenlive:original.mlt_type">producer</property>
  <property name="kdenlive:original.in">0</property>
  <property name="kdenlive:original.out">4425</property>
  <property name="kdenlive:original.length">4426</property>
  <property name="kdenlive:original.eof">pause</property>
  <property name="kdenlive:original.resource">content/musicians/2021-06-02_Caleb_upright+4k+portrait_jackson_P1000538-take4_m44-to-end.MP4</property>
  <property name="kdenlive:original.meta.media.nb_streams">2</property>
  <property name="kdenlive:original.meta.media.0.stream.type">video</property>
  <property name="kdenlive:original.meta.media.0.stream.frame_rate">29.9701</property>
  <property name="kdenlive:original.meta.media.0.stream.sample_aspect_ratio">1</property>
  <property name="kdenlive:original.meta.media.0.codec.width">3328</property>
  <property name="kdenlive:original.meta.media.0.codec.height">2496</property>
  <property name="kdenlive:original.meta.media.0.codec.rotate">90</property>
  <property name="kdenlive:original.meta.media.0.codec.frame_rate">29.97</property>
  <property name="kdenlive:original.meta.media.0.codec.pix_fmt">yuvj420p</property>
  <property name="kdenlive:original.meta.media.0.codec.sample_aspect_ratio">1</property>
  <property name="kdenlive:original.meta.media.0.codec.colorspace">709</property>
  <property name="kdenlive:original.meta.media.0.codec.color_trc">1</property>
  <property name="kdenlive:original.meta.media.0.codec.name">h264</property>
  <property name="kdenlive:original.meta.media.0.codec.long_name">H.264 / AVC / MPEG-4 AVC / MPEG-4 part 10</property>
  <property name="kdenlive:original.meta.media.0.codec.bit_rate">95807685</property>
  <property name="kdenlive:original.meta.attr.0.stream.rotate.markup">90</property>
  <property name="kdenlive:original.meta.attr.0.stream.handler_name.markup">VideoHandler</property>
  <property name="kdenlive:original.meta.media.1.stream.type">audio</property>
  <property name="kdenlive:original.meta.media.1.codec.sample_fmt">fltp</property>
  <property name="kdenlive:original.meta.media.1.codec.sample_rate">48000</property>
  <property name="kdenlive:original.meta.media.1.codec.channels">2</property>
  <property name="kdenlive:original.meta.media.1.codec.name">aac</property>
  <property name="kdenlive:original.meta.media.1.codec.long_name">AAC (Advanced Audio Coding)</property>
  <property name="kdenlive:original.meta.media.1.codec.bit_rate">125382</property>
  <property name="kdenlive:original.meta.attr.1.stream.handler_name.markup">SoundHandler</property>
  <property name="kdenlive:original.meta.attr.major_brand.markup">isom</property>
  <property name="kdenlive:original.meta.attr.minor_version.markup">512</property>
  <property name="kdenlive:original.meta.attr.compatible_brands.markup">isomiso2avc1mp41</property>
  <property name="kdenlive:original.meta.attr.encoder.markup">Lavf58.45.100</property>
  <property name="kdenlive:original.seekable">1</property>
  <property name="kdenlive:original.width">3328</property>
  <property name="kdenlive:original.height">2496</property>
  <property name="kdenlive:original.meta.media.sample_aspect_num">1</property>
  <property name="kdenlive:original.meta.media.sample_aspect_den">1</property>
  <property name="kdenlive:original.aspect_ratio">1</property>
  <property name="kdenlive:original.audio_index">1</property>
  <property name="kdenlive:original.video_index">0</property>
  <property name="kdenlive:original.mute_on_pause">0</property>
  <property name="kdenlive:original.mlt_service">avformat-novalidate</property>
  <property name="kdenlive:original.kdenlive:folderid">41</property>
  <property name="kdenlive:original.meta.media.frame_rate_num">66315000</property>
  <property name="kdenlive:original.meta.media.frame_rate_den">2212703</property>
  <property name="kdenlive:original.meta.media.colorspace">709</property>
  <property name="kdenlive:original.meta.media.color_trc">1</property>
  <property name="kdenlive:original.meta.media.width">2496</property>
  <property name="kdenlive:original.meta.media.height">3328</property>
  <property name="kdenlive:original.meta.media.color_range">full</property>
  <property name="kdenlive:original.kdenlive:id">55</property>
  <property name="kdenlive:original.kdenlive:file_size">1768687009</property>
  <property name="kdenlive:original.kdenlive:file_hash">00b9c2a45d419a9f345378ea35a006d0</property>
  <property name="kdenlive:original.backup">1</property>
  <property name="kdenlive:audio_max">1</property>
  <property name="global_feed">1</property>
  <property name="xml">was here</property>
  <property name="meta.media.nb_streams">2</property>
  <property name="meta.media.0.stream.type">video</property>
  <property name="meta.media.0.stream.frame_rate">29.97</property>
  <property name="meta.media.0.stream.sample_aspect_ratio">1</property>
  <property name="meta.media.0.codec.width">640</property>
  <property name="meta.media.0.codec.height">854</property>
  <property name="meta.media.0.codec.rotate">0</property>
  <property name="meta.media.0.codec.frame_rate">1000</property>
  <property name="meta.media.0.codec.pix_fmt">yuvj420p</property>
  <property name="meta.media.0.codec.sample_aspect_ratio">1.00078</property>
  <property name="meta.media.0.codec.colorspace">601</property>
  <property name="meta.media.0.codec.name">mjpeg</property>
  <property name="meta.media.0.codec.long_name">MJPEG (Motion JPEG)</property>
  <property name="meta.media.0.codec.bit_rate">0</property>
  <property name="meta.attr.0.stream.ENCODER.markup">Lavc58.91.100 mjpeg</property>
  <property name="meta.attr.0.stream.HANDLER_NAME.markup">VideoHandler</property>
  <property name="meta.attr.0.stream.DURATION.markup">00:02:27.614000000</property>
  <property name="meta.media.1.stream.type">audio</property>
  <property name="meta.media.1.codec.sample_fmt">s16</property>
  <property name="meta.media.1.codec.sample_rate">48000</property>
  <property name="meta.media.1.codec.channels">2</property>
  <property name="meta.media.1.codec.name">pcm_s16le</property>
  <property name="meta.media.1.codec.long_name">PCM signed 16-bit little-endian</property>
  <property name="meta.media.1.codec.bit_rate">1536000</property>
  <property name="meta.attr.1.stream.HANDLER_NAME.markup">SoundHandler</property>
  <property name="meta.attr.1.stream.ENCODER.markup">Lavc58.91.100 pcm_s16le</property>
  <property name="meta.attr.1.stream.DURATION.markup">00:02:27.535000000</property>
  <property name="meta.attr.COMPATIBLE_BRANDS.markup">isomiso2avc1mp41</property>
  <property name="meta.attr.MAJOR_BRAND.markup">isom</property>
  <property name="meta.attr.MINOR_VERSION.markup">512</property>
  <property name="meta.attr.ENCODER.markup">Lavf58.45.100</property>
  <property name="meta.media.sample_aspect_num">1</property>
  <property name="meta.media.sample_aspect_den">1</property>
  <property name="meta.media.frame_rate_num">30000</property>
  <property name="meta.media.frame_rate_den">1001</property>
  <property name="meta.media.colorspace">601</property>
  <property name="meta.media.color_trc">2</property>
  <property name="meta.media.width">640</property>
  <property name="meta.media.height">854</property>
  <property name="meta.media.color_range">full</property>
  <property name="meta.media.top_field_first">0</property>
  <property name="meta.media.progressive">1</property>
  <property name="set.test_audio">1</property>
  <property name="set.test_image">0</property>
 </producer>
 <producer id="producer240" in="00:00:00.000" out="00:02:27.500">
  <property name="length">4426</property>
  <property name="eof">pause</property>
  <property name="resource">/home/ryankelln/.cache/kdenlive/proxy/00b9c2a45d419a9f345378ea35a006d0.mkv</property>
  <property name="audio_index">1</property>
  <property name="video_index">0</property>
  <property name="mute_on_pause">0</property>
  <property name="mlt_service">avformat-novalidate</property>
  <property name="seekable">1</property>
  <property name="aspect_ratio">1</property>
  <property name="kdenlive:clipname">2021-06-02_Caleb_upright+4k+portrait_jackson_P1000538-take4_m44-to-end.MP4</property>
  <property name="kdenlive:folderid">41</property>
  <property name="kdenlive:id">38</property>
  <property name="kdenlive:file_size">1768687009</property>
  <property name="kdenlive:file_hash">00b9c2a45d419a9f345378ea35a006d0</property>
  <property name="kdenlive:proxy">/home/ryankelln/.cache/kdenlive/proxy/00b9c2a45d419a9f345378ea35a006d0.mkv</property>
  <property name="kdenlive:originalurl">content/musicians/2021-06-02_Caleb_upright+4k+portrait_jackson_P1000538-take4_m44-to-end.MP4</property>
  <property name="kdenlive:original.mlt_type">producer</property>
  <property name="kdenlive:original.in">0</property>
  <property name="kdenlive:original.out">4425</property>
  <property name="kdenlive:original.length">4426</property>
  <property name="kdenlive:original.eof">pause</property>
  <property name="kdenlive:original.resource">content/musicians/2021-06-02_Caleb_upright+4k+portrait_jackson_P1000538-take4_m44-to-end.MP4</property>
  <property name="kdenlive:original.meta.media.nb_streams">2</property>
  <property name="kdenlive:original.meta.media.0.stream.type">video</property>
  <property name="kdenlive:original.meta.media.0.stream.frame_rate">29.9701</property>
  <property name="kdenlive:original.meta.media.0.stream.sample_aspect_ratio">1</property>
  <property name="kdenlive:original.meta.media.0.codec.width">3328</property>
  <property name="kdenlive:original.meta.media.0.codec.height">2496</property>
  <property name="kdenlive:original.meta.media.0.codec.rotate">90</property>
  <property name="kdenlive:original.meta.media.0.codec.frame_rate">29.97</property>
  <property name="kdenlive:original.meta.media.0.codec.pix_fmt">yuvj420p</property>
  <property name="kdenlive:original.meta.media.0.codec.sample_aspect_ratio">1</property>
  <property name="kdenlive:original.meta.media.0.codec.colorspace">709</property>
  <property name="kdenlive:original.meta.media.0.codec.color_trc">1</property>
  <property name="kdenlive:original.meta.media.0.codec.name">h264</property>
  <property name="kdenlive:original.meta.media.0.codec.long_name">H.264 / AVC / MPEG-4 AVC / MPEG-4 part 10</property>
  <property name="kdenlive:original.meta.media.0.codec.bit_rate">95807685</property>
  <property name="kdenlive:original.meta.attr.0.stream.rotate.markup">90</property>
  <property name="kdenlive:original.meta.attr.0.stream.handler_name.markup">VideoHandler</property>
  <property name="kdenlive:original.meta.media.1.stream.type">audio</property>
  <property name="kdenlive:original.meta.media.1.codec.sample_fmt">fltp</property>
  <property name="kdenlive:original.meta.media.1.codec.sample_rate">48000</property>
  <property name="kdenlive:original.meta.media.1.codec.channels">2</property>
  <property name="kdenlive:original.meta.media.1.codec.name">aac</property>
  <property name="kdenlive:original.meta.media.1.codec.long_name">AAC (Advanced Audio Coding)</property>
  <property name="kdenlive:original.meta.media.1.codec.bit_rate">125382</property>
  <property name="kdenlive:original.meta.attr.1.stream.handler_name.markup">SoundHandler</property>
  <property name="kdenlive:original.meta.attr.major_brand.markup">isom</property>
  <property name="kdenlive:original.meta.attr.minor_version.markup">512</property>
  <property name="kdenlive:original.meta.attr.compatible_brands.markup">isomiso2avc1mp41</property>
  <property name="kdenlive:original.meta.attr.encoder.markup">Lavf58.45.100</property>
  <property name="kdenlive:original.seekable">1</property>
  <property name="kdenlive:original.width">3328</property>
  <property name="kdenlive:original.height">2496</property>
  <property name="kdenlive:original.meta.media.sample_aspect_num">1</property>
  <property name="kdenlive:original.meta.media.sample_aspect_den">1</property>
  <property name="kdenlive:original.aspect_ratio">1</property>
  <property name="kdenlive:original.audio_index">1</property>
  <property name="kdenlive:original.video_index">0</property>
  <property name="kdenlive:original.mute_on_pause">0</property>
  <property name="kdenlive:original.mlt_service">avformat-novalidate</property>
  <property name="kdenlive:original.kdenlive:folderid">41</property>
  <property name="kdenlive:original.meta.media.frame_rate_num">66315000</property>
  <property name="kdenlive:original.meta.media.frame_rate_den">2212703</property>
  <property name="kdenlive:original.meta.media.colorspace">709</property>
  <property name="kdenlive:original.meta.media.color_trc">1</property>
  <property name="kdenlive:original.meta.media.width">2496</property>
  <property name="kdenlive:original.meta.media.height">3328</property>
  <property name="kdenlive:original.meta.media.color_range">full</property>
  <property name="kdenlive:original.kdenlive:id">55</property>
  <property name="kdenlive:original.kdenlive:file_size">1768687009</property>
  <property name="kdenlive:original.kdenlive:file_hash">00b9c2a45d419a9f345378ea35a006d0</property>
  <property name="kdenlive:original.backup">1</property>
  <property name="kdenlive:audio_max">1</property>
  <property name="global_feed">1</property>
  <property name="xml">was here</property>
  <property name="meta.media.nb_streams">2</property>
  <property name="meta.media.0.stream.type">video</property>
  <property name="meta.media.0.stream.frame_rate">29.97</property>
  <property name="meta.media.0.stream.sample_aspect_ratio">1</property>
  <property name="meta.media.0.codec.width">640</property>
  <property name="meta.media.0.codec.height">854</property>
  <property name="meta.media.0.codec.rotate">0</property>
  <property name="meta.media.0.codec.frame_rate">1000</property>
  <property name="meta.media.0.codec.pix_fmt">yuvj420p</property>
  <property name="meta.media.0.codec.sample_aspect_ratio">1.00078</property>
  <property name="meta.media.0.codec.colorspace">601</property>
  <property name="meta.media.0.codec.name">mjpeg</property>
  <property name="meta.media.0.codec.long_name">MJPEG (Motion JPEG)</property>
  <property name="meta.media.0.codec.bit_rate">0</property>
  <property name="meta.attr.0.stream.ENCODER.markup">Lavc58.91.100 mjpeg</property>
  <property name="meta.attr.0.stream.HANDLER_NAME.markup">VideoHandler</property>
  <property name="meta.attr.0.stream.DURATION.markup">00:02:27.614000000</property>
  <property name="meta.media.1.stream.type">audio</property>
  <property name="meta.media.1.codec.sample_fmt">s16</property>
  <property name="meta.media.1.codec.sample_rate">48000</property>
  <property name="meta.media.1.codec.channels">2</property>
  <property name="meta.media.1.codec.name">pcm_s16le</property>
  <property name="meta.media.1.codec.long_name">PCM signed 16-bit little-endian</property>
  <property name="meta.media.1.codec.bit_rate">1536000</property>
  <property name="meta.attr.1.stream.HANDLER_NAME.markup">SoundHandler</property>
  <property name="meta.attr.1.stream.ENCODER.markup">Lavc58.91.100 pcm_s16le</property>
  <property name="meta.attr.1.stream.DURATION.markup">00:02:27.535000000</property>
  <property name="meta.attr.COMPATIBLE_BRANDS.markup">isomiso2avc1mp41</property>
  <property name="meta.attr.MAJOR_BRAND.markup">isom</property>
  <property name="meta.attr.MINOR_VERSION.markup">512</property>
  <property name="meta.attr.ENCODER.markup">Lavf58.45.100</property>
  <property name="meta.media.sample_aspect_num">1</property>
  <property name="meta.media.sample_aspect_den">1</property>
  <property name="meta.media.frame_rate_num">30000</property>
  <property name="meta.media.frame_rate_den">1001</property>
  <property name="meta.media.colorspace">601</property>
  <property name="meta.media.color_trc">2</property>
  <property name="meta.media.width">640</property>
  <property name="meta.media.height">854</property>
  <property name="meta.media.color_range">full</property>
  <property name="meta.media.top_field_first">0</property>
  <property name="meta.media.progressive">1</property>
  <property name="set.test_audio">1</property>
  <property name="set.test_image">1</property>
 </producer>
 <playlist id="playlist26">
  <blank length="00:00:07.000"/>
  <entry producer="producer237" in="00:00:03.400" out="00:01:21.567">
   <property name="kdenlive:id">39</property>
  </entry>
  <entry producer="producer238" in="00:00:08.700" out="00:00:43.867">
   <property name="kdenlive:id">37</property>
   <property name="kdenlive:activeeffect">2</property>
   <filter id="filter253">
    <property name="version">0.6</property>
    <property name="mlt_service">frei0r.select0r</property>
    <property name="kdenlive_id">frei0r.select0r</property>
    <property name="Color to select">0x3b9a48ff</property>
    <property name="Invert selection">1</property>
    <property name="Selection subspace">1</property>
    <property name="Subspace shape">0</property>
    <property name="Edge mode">0.9</property>
    <property name="Delta R / A / Hue">00:00:08.700=0.031</property>
    <property name="Delta G / B / Chroma">00:00:08.700=0.181</property>
    <property name="Delta B / I / I">00:00:08.700=0.415</property>
    <property name="Slope">00:00:08.700=0.126</property>
    <property name="Operation">0.5</property>
    <property name="kdenlive:collapsed">0</property>
   </filter>
   <filter id="filter254">
    <property name="mlt_service">avfilter.despill</property>
    <property name="kdenlive_id">avfilter.despill</property>
    <property name="av.type">green</property>
    <property name="av.mix">0.186</property>
    <property name="av.expand">0.043</property>
    <property name="av.red">0</property>
    <property name="av.green">-0.5</property>
    <property name="av.blue">0</property>
    <property name="av.brightness">0</property>
    <property name="kdenlive:collapsed">0</property>
   </filter>
   <filter id="filter255">
    <property name="rotate_center">1</property>
    <property name="mlt_service">qtblend</property>
    <property name="kdenlive_id">qtblend</property>
    <property name="rect">00:00:08.700=1025 -355 1080 1920 1.000000</property>
    <property name="rotation">00:00:08.700=0</property>
    <property name="compositing">0</property>
    <property name="distort">0</property>
    <property name="kdenlive:collapsed">0</property>
   </filter>
   <filter id="filter256">
    <property name="mode">alpha</property>
    <property name="alpha_operation">sub</property>
    <property name="invert">1</property>
    <property name="feather">40</property>
    <property name="feather_passes">1</property>
    <property name="mlt_service">rotoscoping</property>
    <property name="kdenlive_id">rotoscoping</property>
    <property name="spline">{
    "0261": [
        [
            [
                0.8016771488469601,
                1.0697761194029847
            ],
            [
                0.7568134171907758,
                1.0690298507462683
            ],
            [
                0.7513626834381549,
                1.0376865671641788
            ]
        ],
        [
            [
                0.7465408805031444,
                0.8298507462686563
            ],
            [
                0.7410901467505241,
                0.7985074626865672
            ],
            [
                0.7398322851153037,
                0.7432835820895518
            ]
        ],
        [
            [
                0.6920335429769394,
                0.6373134328358208
            ],
            [
                0.6907756813417191,
                0.582089552238806
            ],
            [
                0.6874213836477988,
                0.5261194029850748
            ]
        ],
        [
            [
                0.7098532494758909,
                0.4123134328358209
            ],
            [
                0.7064989517819706,
                0.3563432835820895
            ],
            [
                0.7111111111111109,
                0.31231343283582097
            ]
        ],
        [
            [
                0.7249475890985325,
                0.18022388059701488
            ],
            [
                0.7295597484276731,
                0.13619402985074625
            ],
            [
                0.7450733752620543,
                0.11231343283582089
            ]
        ],
        [
            [
                0.791614255765199,
                0.040671641791044766
            ],
            [
                0.8071278825995807,
                0.016791044776119403
            ],
            [
                0.8163522012578616,
                -0.008582089552238813
            ]
        ],
        [
            [
                0.8440251572327042,
                -0.08470149253731342
            ],
            [
                0.8532494758909853,
                -0.11007462686567163
            ],
            [
                0.8687631027253668,
                -0.09962686567164176
            ]
        ],
        [
            [
                0.9142557651991615,
                -0.11119402985074626
            ],
            [
                0.929769392033543,
                -0.10074626865671643
            ],
            [
                0.930607966457023,
                -0.06343283582089553
            ]
        ],
        [
            [
                0.9771488469601677,
                -0.082089552238806
            ],
            [
                0.9779874213836478,
                -0.04477611940298507
            ],
            [
                0.9825995807127881,
                -0.009701492537313516
            ]
        ],
        [
            [
                0.9702306079664571,
                0.1402985074626867
            ],
            [
                0.9748427672955974,
                0.1753731343283582
            ],
            [
                0.9777777777777779,
                0.23656716417910445
            ]
        ],
        [
            [
                1.067295597484276,
                0.38283582089552237
            ],
            [
                1.070230607966457,
                0.44402985074626866
            ],
            [
                1.0719077568134159,
                0.5365671641791048
            ]
        ],
        [
            [
                1.0538784067085951,
                1.0268656716417905
            ],
            [
                1.0555555555555556,
                1.119402985074627
            ],
            [
                1.0106918238993705,
                1.1186567164179106
            ]
        ]
    ],
    "0304": [
        [
            [
                0.7760672765389744,
                1.1007717096336498
            ],
            [
                0.7312035448827902,
                1.1000254409769334
            ],
            [
                0.7257528111301693,
                1.068682157394844
            ]
        ],
        [
            [
                0.7147846388412424,
                0.8353205563093619
            ],
            [
                0.709333905088622,
                0.8039772727272728
            ],
            [
                0.7080760434534017,
                0.7487533921302574
            ]
        ],
        [
            [
                0.6479845626072044,
                0.6555461329715059
            ],
            [
                0.646726700971984,
                0.6003222523744912
            ],
            [
                0.6433724032780639,
                0.5443521031207599
            ]
        ],
        [
            [
                0.6375262054507336,
                0.2705223880597015
            ],
            [
                0.6341719077568134,
                0.21455223880597016
            ],
            [
                0.6387840670859537,
                0.1705223880597016
            ]
        ],
        [
            [
                0.6436058700209644,
                0.13805970149253732
            ],
            [
                0.6645702306079664,
                0.11380597014925374
            ],
            [
                0.6800838574423477,
                0.08992537313432834
            ]
        ],
        [
            [
                0.791614255765199,
                0.040671641791044766
            ],
            [
                0.8071278825995807,
                0.016791044776119403
            ],
            [
                0.8163522012578616,
                -0.008582089552238813
            ]
        ],
        [
            [
                0.8440251572327042,
                -0.08470149253731342
            ],
            [
                0.8532494758909853,
                -0.11007462686567163
            ],
            [
                0.8687631027253668,
                -0.09962686567164176
            ]
        ],
        [
            [
                0.9142557651991615,
                -0.11119402985074626
            ],
            [
                0.929769392033543,
                -0.10074626865671643
            ],
            [
                0.930607966457023,
                -0.06343283582089553
            ]
        ],
        [
            [
                0.9771488469601677,
                -0.082089552238806
            ],
            [
                0.9779874213836478,
                -0.04477611940298507
            ],
            [
                0.9825995807127881,
                -0.009701492537313516
            ]
        ],
        [
            [
                0.9697727989841094,
                0.14266892683397434
            ],
            [
                0.9743849583132497,
                0.1777435536996458
            ],
            [
                0.97731996879543,
                0.2389375835503921
            ]
        ],
        [
            [
                1.067295597484276,
                0.38283582089552237
            ],
            [
                1.070230607966457,
                0.44402985074626866
            ],
            [
                1.0719077568134159,
                0.5365671641791048
            ]
        ],
        [
            [
                1.0538784067085951,
                1.0268656716417905
            ],
            [
                1.0555555555555556,
                1.119402985074627
            ],
            [
                1.0106918238993705,
                1.1186567164179106
            ]
        ]
    ],
    "0305": [
        [
            [
                0.7754716981132074,
                1.1014925373134328
            ],
            [
                0.7306079664570231,
                1.1007462686567164
            ],
            [
                0.7251572327044022,
                1.069402985074627
            ]
        ],
        [
            [
                0.7140461215932912,
                0.8354477611940294
            ],
            [
                0.7085953878406708,
                0.8041044776119404
            ],
            [
                0.7073375262054504,
                0.7488805970149249
            ]
        ],
        [
            [
                0.646960167714885,
                0.6559701492537312
            ],
            [
                0.6457023060796646,
                0.6007462686567164
            ],
            [
                0.6423480083857444,
                0.5447761194029852
            ]
        ],
        [
            [
                0.6501048218029349,
                0.2723880597014926
            ],
            [
                0.6467505241090147,
                0.2164179104477612
            ],
            [
                0.651362683438155,
                0.17238805970149265
            ]
        ],
        [
            [
                0.6589098532494758,
                0.16902985074626858
            ],
            [
                0.6635220125786163,
                0.125
            ],
            [
                0.6790356394129976,
                0.10111940298507462
            ]
        ],
        [
            [
                0.791614255765199,
                0.040671641791044766
            ],
            [
                0.8071278825995807,
                0.016791044776119403
            ],
            [
                0.8163522012578616,
                -0.008582089552238813
            ]
        ],
        [
            [
                0.8440251572327042,
                -0.08470149253731342
            ],
            [
                0.8532494758909853,
                -0.11007462686567163
            ],
            [
                0.8687631027253668,
                -0.09962686567164176
            ]
        ],
        [
            [
                0.9142557651991615,
                -0.11119402985074626
            ],
            [
                0.929769392033543,
                -0.10074626865671643
            ],
            [
                0.930607966457023,
                -0.06343283582089553
            ]
        ],
        [
            [
                0.9771488469601677,
                -0.082089552238806
            ],
            [
                0.9779874213836478,
                -0.04477611940298507
            ],
            [
                0.9825995807127881,
                -0.009701492537313516
            ]
        ],
        [
            [
                0.9697621522635896,
                0.14272405286586473
            ],
            [
                0.9743743115927299,
                0.1777986797315362
            ],
            [
                0.9773093220749104,
                0.2389927095822825
            ]
        ],
        [
            [
                1.067295597484276,
                0.38283582089552237
            ],
            [
                1.070230607966457,
                0.44402985074626866
            ],
            [
                1.0719077568134159,
                0.5365671641791048
            ]
        ],
        [
            [
                1.0538784067085951,
                1.0268656716417905
            ],
            [
                1.0555555555555556,
                1.119402985074627
            ],
            [
                1.0106918238993705,
                1.1186567164179106
            ]
        ]
    ],
    "0314": [
        [
            [
                0.7854297693920334,
                1.096828358208955
            ],
            [
                0.7405660377358491,
                1.0960820895522387
            ],
            [
                0.7351153039832282,
                1.0647388059701492
            ]
        ],
        [
            [
                0.710901467505241,
                0.8485074626865666
            ],
            [
                0.7054507337526206,
                0.8171641791044776
            ],
            [
                0.7041928721174002,
                0.7619402985074608
            ]
        ],
        [
            [
                0.6375262054507339,
                0.6764925373134328
            ],
            [
                0.6362683438155137,
                0.621268656716418
            ],
            [
                0.6329140461215934,
                0.5652985074626866
            ]
        ],
        [
            [
                0.6375262054507336,
                0.27985074626865675
            ],
            [
                0.6341719077568134,
                0.22388059701492538
            ],
            [
                0.6387840670859537,
                0.1798507462686568
            ]
        ],
        [
            [
                0.6551781970649895,
                0.14708955223880602
            ],
            [
                0.6645702306079664,
                0.1082089552238806
            ],
            [
                0.6800838574423477,
                0.08432835820895525
            ]
        ],
        [
            [
                0.791614255765199,
                0.040671641791044766
            ],
            [
                0.8071278825995807,
                0.016791044776119403
            ],
            [
                0.8163522012578616,
                -0.008582089552238813
            ]
        ],
        [
            [
                0.8440251572327042,
                -0.08470149253731342
            ],
            [
                0.8532494758909853,
                -0.11007462686567163
            ],
            [
                0.8687631027253668,
                -0.09962686567164176
            ]
        ],
        [
            [
                0.9142557651991615,
                -0.11119402985074626
            ],
            [
                0.929769392033543,
                -0.10074626865671643
            ],
            [
                0.930607966457023,
                -0.06343283582089553
            ]
        ],
        [
            [
                0.9771488469601677,
                -0.082089552238806
            ],
            [
                0.9779874213836478,
                -0.04477611940298507
            ],
            [
                0.9825995807127881,
                -0.009701492537313516
            ]
        ],
        [
            [
                0.9696663317789123,
                0.1432201871528784
            ],
            [
                0.9742784911080525,
                0.17829481401854988
            ],
            [
                0.977213501590233,
                0.23948884386929617
            ]
        ],
        [
            [
                1.067295597484276,
                0.38283582089552237
            ],
            [
                1.070230607966457,
                0.44402985074626866
            ],
            [
                1.0719077568134159,
                0.5365671641791048
            ]
        ],
        [
            [
                1.0538784067085951,
                1.0268656716417905
            ],
            [
                1.0555555555555556,
                1.119402985074627
            ],
            [
                1.0106918238993705,
                1.1186567164179106
            ]
        ]
    ],
    "0320": [
        [
            [
                0.7920684835779174,
                1.0937189054726368
            ],
            [
                0.7472047519217331,
                1.0929726368159205
            ],
            [
                0.7417540181691122,
                1.061629353233831
            ]
        ],
        [
            [
                0.7234800838574421,
                0.8466417910447755
            ],
            [
                0.7180293501048217,
                0.8152985074626865
            ],
            [
                0.7167714884696015,
                0.7600746268656711
            ]
        ],
        [
            [
                0.6542976939203357,
                0.6690298507462686
            ],
            [
                0.6530398322851153,
                0.6138059701492538
            ],
            [
                0.649685534591195,
                0.5578358208955225
            ]
        ],
        [
            [
                0.6490566037735849,
                0.27985074626865675
            ],
            [
                0.6457023060796646,
                0.22388059701492538
            ],
            [
                0.6503144654088049,
                0.17985074626865677
            ]
        ],
        [
            [
                0.6645702306079664,
                0.14365671641791047
            ],
            [
                0.6771488469601677,
                0.1082089552238806
            ],
            [
                0.6926624737945489,
                0.08432835820895525
            ]
        ],
        [
            [
                0.791614255765199,
                0.040671641791044766
            ],
            [
                0.8071278825995807,
                0.016791044776119403
            ],
            [
                0.8163522012578616,
                -0.008582089552238813
            ]
        ],
        [
            [
                0.8440251572327042,
                -0.08470149253731342
            ],
            [
                0.8532494758909853,
                -0.11007462686567163
            ],
            [
                0.8687631027253668,
                -0.09962686567164176
            ]
        ],
        [
            [
                0.9142557651991615,
                -0.11119402985074626
            ],
            [
                0.929769392033543,
                -0.10074626865671643
            ],
            [
                0.930607966457023,
                -0.06343283582089553
            ]
        ],
        [
            [
                0.9771488469601677,
                -0.082089552238806
            ],
            [
                0.9779874213836478,
                -0.04477611940298507
            ],
            [
                0.9825995807127881,
                -0.009701492537313516
            ]
        ],
        [
            [
                0.9696024514557939,
                0.14355094334422086
            ],
            [
                0.9742146107849342,
                0.17862557020989234
            ],
            [
                0.9771496212671147,
                0.23981960006063863
            ]
        ],
        [
            [
                1.067295597484276,
                0.38283582089552237
            ],
            [
                1.070230607966457,
                0.44402985074626866
            ],
            [
                1.0719077568134159,
                0.5365671641791048
            ]
        ],
        [
            [
                1.0538784067085951,
                1.0268656716417905
            ],
            [
                1.0555555555555556,
                1.119402985074627
            ],
            [
                1.0106918238993705,
                1.1186567164179106
            ]
        ]
    ],
    "0341": [
        [
            [
                0.8153039832285114,
                1.0828358208955224
            ],
            [
                0.770440251572327,
                1.082089552238806
            ],
            [
                0.7649895178197063,
                1.0507462686567166
            ]
        ],
        [
            [
                0.7570230607966455,
                0.8186567164179099
            ],
            [
                0.7515723270440251,
                0.7873134328358209
            ],
            [
                0.7503144654088048,
                0.7320895522388055
            ]
        ],
        [
            [
                0.69832285115304,
                0.648507462686567
            ],
            [
                0.6970649895178197,
                0.5932835820895522
            ],
            [
                0.6937106918238994,
                0.537313432835821
            ]
        ],
        [
            [
                0.7067085953878406,
                0.4291044776119403
            ],
            [
                0.7033542976939203,
                0.373134328358209
            ],
            [
                0.7079664570230606,
                0.3291044776119404
            ]
        ],
        [
            [
                0.7155136268343815,
                0.1597014925373134
            ],
            [
                0.720125786163522,
                0.11567164179104478
            ],
            [
                0.7356394129979033,
                0.09179104477611937
            ]
        ],
        [
            [
                0.791614255765199,
                0.040671641791044766
            ],
            [
                0.8071278825995807,
                0.016791044776119403
            ],
            [
                0.8163522012578616,
                -0.008582089552238813
            ]
        ],
        [
            [
                0.8440251572327042,
                -0.08470149253731342
            ],
            [
                0.8532494758909853,
                -0.11007462686567163
            ],
            [
                0.8687631027253668,
                -0.09962686567164176
            ]
        ],
        [
            [
                0.9142557651991615,
                -0.11119402985074626
            ],
            [
                0.929769392033543,
                -0.10074626865671643
            ],
            [
                0.930607966457023,
                -0.06343283582089553
            ]
        ],
        [
            [
                0.9771488469601677,
                -0.082089552238806
            ],
            [
                0.9779874213836478,
                -0.04477611940298507
            ],
            [
                0.9825995807127881,
                -0.009701492537313516
            ]
        ],
        [
            [
                0.9693788703248799,
                0.14470859001391947
            ],
            [
                0.9739910296540202,
                0.17978321687959095
            ],
            [
                0.9769260401362007,
                0.2409772467303372
            ]
        ],
        [
            [
                1.067295597484276,
                0.38283582089552237
            ],
            [
                1.070230607966457,
                0.44402985074626866
            ],
            [
                1.0719077568134159,
                0.5365671641791048
            ]
        ],
        [
            [
                1.0538784067085951,
                1.0268656716417905
            ],
            [
                1.0555555555555556,
                1.119402985074627
            ],
            [
                1.0106918238993705,
                1.1186567164179106
            ]
        ]
    ],
    "0371": [
        [
            [
                0.7901467505241088,
                1.0753731343283581
            ],
            [
                0.7452830188679245,
                1.0746268656716418
            ],
            [
                0.7398322851153036,
                1.0432835820895523
            ]
        ],
        [
            [
                0.7444444444444442,
                0.8149253731343279
            ],
            [
                0.738993710691824,
                0.7835820895522388
            ],
            [
                0.7377358490566036,
                0.7283582089552233
            ]
        ],
        [
            [
                0.6836477987421385,
                0.6634328358208954
            ],
            [
                0.6823899371069183,
                0.6082089552238806
            ],
            [
                0.679035639412998,
                0.5522388059701494
            ]
        ],
        [
            [
                0.7068026528381313,
                0.4286022529426646
            ],
            [
                0.703448355144211,
                0.37263210368893324
            ],
            [
                0.7080605144733513,
                0.3286022529426646
            ]
        ],
        [
            [
                0.7157957991852534,
                0.16031532268865042
            ],
            [
                0.720407958514394,
                0.1162854719423818
            ],
            [
                0.7359215853487752,
                0.0924048749274564
            ]
        ],
        [
            [
                0.791614255765199,
                0.040671641791044766
            ],
            [
                0.8071278825995807,
                0.016791044776119403
            ],
            [
                0.8163522012578616,
                -0.008582089552238813
            ]
        ],
        [
            [
                0.8440251572327042,
                -0.08470149253731342
            ],
            [
                0.8532494758909853,
                -0.11007462686567163
            ],
            [
                0.8687631027253668,
                -0.09962686567164176
            ]
        ],
        [
            [
                0.9142557651991615,
                -0.11119402985074626
            ],
            [
                0.929769392033543,
                -0.10074626865671643
            ],
            [
                0.930607966457023,
                -0.06343283582089553
            ]
        ],
        [
            [
                0.9771488469601677,
                -0.082089552238806
            ],
            [
                0.9779874213836478,
                -0.04477611940298507
            ],
            [
                0.9825995807127881,
                -0.009701492537313516
            ]
        ],
        [
            [
                0.9690594687092885,
                0.14636237097063176
            ],
            [
                0.9736716280384289,
                0.18143699783630324
            ],
            [
                0.9766066385206092,
                0.2426310276870495
            ]
        ],
        [
            [
                1.067295597484276,
                0.38283582089552237
            ],
            [
                1.070230607966457,
                0.44402985074626866
            ],
            [
                1.0719077568134159,
                0.5365671641791048
            ]
        ],
        [
            [
                1.0538784067085951,
                1.0268656716417905
            ],
            [
                1.0555555555555556,
                1.119402985074627
            ],
            [
                1.0106918238993705,
                1.1186567164179106
            ]
        ]
    ],
    "0420": [
        [
            [
                0.7907274180655474,
                1.075091270267368
            ],
            [
                0.7458636864093631,
                1.0743450016106517
            ],
            [
                0.7404129526567422,
                1.0430017180285622
            ]
        ],
        [
            [
                0.7287211740041927,
                0.8410447761194025
            ],
            [
                0.7232704402515723,
                0.8097014925373135
            ],
            [
                0.722012578616352,
                0.7544776119402974
            ]
        ],
        [
            [
                0.6752620545073377,
                0.6541044776119401
            ],
            [
                0.6740041928721173,
                0.5988805970149254
            ],
            [
                0.6706498951781972,
                0.5429104477611941
            ]
        ],
        [
            [
                0.6878406708595386,
                0.40671641791044777
            ],
            [
                0.6844863731656184,
                0.3507462686567164
            ],
            [
                0.6890985324947587,
                0.3067164179104478
            ]
        ],
        [
            [
                0.6777777777777777,
                0.18955223880597008
            ],
            [
                0.6823899371069183,
                0.1455223880597015
            ],
            [
                0.6979035639412995,
                0.12164179104477604
            ]
        ],
        [
            [
                0.791614255765199,
                0.040671641791044766
            ],
            [
                0.8071278825995807,
                0.016791044776119403
            ],
            [
                0.8163522012578616,
                -0.008582089552238813
            ]
        ],
        [
            [
                0.8440251572327042,
                -0.08470149253731342
            ],
            [
                0.8532494758909853,
                -0.11007462686567163
            ],
            [
                0.8687631027253668,
                -0.09962686567164176
            ]
        ],
        [
            [
                0.9142557651991615,
                -0.11119402985074626
            ],
            [
                0.929769392033543,
                -0.10074626865671643
            ],
            [
                0.930607966457023,
                -0.06343283582089553
            ]
        ],
        [
            [
                0.9771488469601677,
                -0.082089552238806
            ],
            [
                0.9779874213836478,
                -0.04477611940298507
            ],
            [
                0.9825995807127881,
                -0.009701492537313516
            ]
        ],
        [
            [
                0.9685377794038226,
                0.14906354653326181
            ],
            [
                0.9731499387329628,
                0.18413817339893332
            ],
            [
                0.9760849492151433,
                0.24533220324967958
            ]
        ],
        [
            [
                1.067295597484276,
                0.38283582089552237
            ],
            [
                1.070230607966457,
                0.44402985074626866
            ],
            [
                1.0719077568134159,
                0.5365671641791048
            ]
        ],
        [
            [
                1.0538784067085951,
                1.0268656716417905
            ],
            [
                1.0555555555555556,
                1.119402985074627
            ],
            [
                1.0106918238993705,
                1.1186567164179106
            ]
        ]
    ],
    "0459": [
        [
            [
                0.7911895820271005,
                1.074866929484131
            ],
            [
                0.7463258503709161,
                1.0741206608274148
            ],
            [
                0.7408751166182953,
                1.0427773772453253
            ]
        ],
        [
            [
                0.751781970649895,
                0.8447761194029846
            ],
            [
                0.7463312368972747,
                0.8134328358208955
            ],
            [
                0.7450733752620543,
                0.7582089552238792
            ]
        ],
        [
            [
                0.7098532494758911,
                0.5720149253731343
            ],
            [
                0.7085953878406708,
                0.5167910447761195
            ],
            [
                0.7052410901467506,
                0.46082089552238825
            ]
        ],
        [
            [
                0.7350104821802933,
                0.375
            ],
            [
                0.7316561844863732,
                0.31902985074626866
            ],
            [
                0.7362683438155134,
                0.275
            ]
        ],
        [
            [
                0.7333333333333332,
                0.17649253731343276
            ],
            [
                0.7379454926624738,
                0.1324626865671642
            ],
            [
                0.753459119496855,
                0.10858208955223868
            ]
        ],
        [
            [
                0.791614255765199,
                0.040671641791044766
            ],
            [
                0.8071278825995807,
                0.016791044776119403
            ],
            [
                0.8163522012578616,
                -0.008582089552238813
            ]
        ],
        [
            [
                0.8440251572327042,
                -0.08470149253731342
            ],
            [
                0.8532494758909853,
                -0.11007462686567163
            ],
            [
                0.8687631027253668,
                -0.09962686567164176
            ]
        ],
        [
            [
                0.9142557651991615,
                -0.11119402985074626
            ],
            [
                0.929769392033543,
                -0.10074626865671643
            ],
            [
                0.930607966457023,
                -0.06343283582089553
            ]
        ],
        [
            [
                0.9771488469601677,
                -0.082089552238806
            ],
            [
                0.9779874213836478,
                -0.04477611940298507
            ],
            [
                0.9825995807127881,
                -0.009701492537313516
            ]
        ],
        [
            [
                0.9681225573035537,
                0.1512134617769878
            ],
            [
                0.972734716632694,
                0.18628808864265928
            ],
            [
                0.9756697271148744,
                0.2474821184934055
            ]
        ],
        [
            [
                1.067295597484276,
                0.38283582089552237
            ],
            [
                1.070230607966457,
                0.44402985074626866
            ],
            [
                1.0719077568134159,
                0.5365671641791048
            ]
        ],
        [
            [
                1.0538784067085951,
                1.0268656716417905
            ],
            [
                1.0555555555555556,
                1.119402985074627
            ],
            [
                1.0106918238993705,
                1.1186567164179106
            ]
        ]
    ],
    "0586": [
        [
            [
                0.7926945774916453,
                1.074136383856667
            ],
            [
                0.747830845835461,
                1.0733901151999508
            ],
            [
                0.7423801120828402,
                1.0420468316178613
            ]
        ],
        [
            [
                0.7449076857112691,
                0.8182233743921702
            ],
            [
                0.7394569519586488,
                0.7868800908100811
            ],
            [
                0.7381990903234285,
                0.7316562102130657
            ]
        ],
        [
            [
                0.7109014675052413,
                0.5999999999999996
            ],
            [
                0.709643605870021,
                0.5447761194029851
            ],
            [
                0.7062893081761008,
                0.48880597014925364
            ]
        ],
        [
            [
                0.7287211740041927,
                0.4085820895522389
            ],
            [
                0.7253668763102724,
                0.35261194029850745
            ],
            [
                0.7299790356394128,
                0.3085820895522389
            ]
        ],
        [
            [
                0.740670859538784,
                0.15410447761194024
            ],
            [
                0.7452830188679245,
                0.11007462686567164
            ],
            [
                0.7607966457023057,
                0.08619402985074626
            ]
        ],
        [
            [
                0.791614255765199,
                0.040671641791044766
            ],
            [
                0.8071278825995807,
                0.016791044776119403
            ],
            [
                0.8163522012578616,
                -0.008582089552238813
            ]
        ],
        [
            [
                0.8440251572327042,
                -0.08470149253731342
            ],
            [
                0.8532494758909853,
                -0.11007462686567163
            ],
            [
                0.8687631027253668,
                -0.09962686567164176
            ]
        ],
        [
            [
                0.9142557651991615,
                -0.11119402985074626
            ],
            [
                0.929769392033543,
                -0.10074626865671643
            ],
            [
                0.930607966457023,
                -0.06343283582089553
            ]
        ],
        [
            [
                0.9771488469601677,
                -0.082089552238806
            ],
            [
                0.9779874213836478,
                -0.04477611940298507
            ],
            [
                0.9825995807127881,
                -0.009701492537313516
            ]
        ],
        [
            [
                0.9667704237975498,
                0.1582144678270698
            ],
            [
                0.9713825831266901,
                0.19328909469274128
            ],
            [
                0.9743175936088705,
                0.25448312454348754
            ]
        ],
        [
            [
                1.067295597484276,
                0.38283582089552237
            ],
            [
                1.070230607966457,
                0.44402985074626866
            ],
            [
                1.0719077568134159,
                0.5365671641791048
            ]
        ],
        [
            [
                1.0538784067085951,
                1.0268656716417905
            ],
            [
                1.0555555555555556,
                1.119402985074627
            ],
            [
                1.0106918238993705,
                1.1186567164179106
            ]
        ]
    ],
    "0626": [
        [
            [
                0.7838574423480082,
                1.0492537313432835
            ],
            [
                0.738993710691824,
                1.0485074626865671
            ],
            [
                0.7335429769392031,
                1.0171641791044777
            ]
        ],
        [
            [
                0.7255765199161424,
                0.8037313432835816
            ],
            [
                0.720125786163522,
                0.7723880597014926
            ],
            [
                0.7188679245283017,
                0.7171641791044773
            ]
        ],
        [
            [
                0.6626834381551364,
                0.6335820895522386
            ],
            [
                0.6614255765199161,
                0.5783582089552238
            ],
            [
                0.6580712788259959,
                0.5223880597014926
            ]
        ],
        [
            [
                0.6941299790356392,
                0.414179104477612
            ],
            [
                0.6907756813417191,
                0.3582089552238806
            ],
            [
                0.6953878406708593,
                0.31417910447761205
            ]
        ],
        [
            [
                0.6966457023060796,
                0.1634328358208955
            ],
            [
                0.7012578616352201,
                0.11940298507462685
            ],
            [
                0.7167714884696014,
                0.09552238805970147
            ]
        ],
        [
            [
                0.791614255765199,
                0.040671641791044766
            ],
            [
                0.8071278825995807,
                0.016791044776119403
            ],
            [
                0.8163522012578616,
                -0.008582089552238813
            ]
        ],
        [
            [
                0.8440251572327042,
                -0.08470149253731342
            ],
            [
                0.8532494758909853,
                -0.11007462686567163
            ],
            [
                0.8687631027253668,
                -0.09962686567164176
            ]
        ],
        [
            [
                0.9142557651991615,
                -0.11119402985074626
            ],
            [
                0.929769392033543,
                -0.10074626865671643
            ],
            [
                0.930607966457023,
                -0.06343283582089553
            ]
        ],
        [
            [
                0.9771488469601677,
                -0.082089552238806
            ],
            [
                0.9779874213836478,
                -0.04477611940298507
            ],
            [
                0.9825995807127881,
                -0.009701492537313516
            ]
        ],
        [
            [
                0.9663445549767612,
                0.16041950910268618
            ],
            [
                0.9709567143059015,
                0.19549413596835766
            ],
            [
                0.973891724788082,
                0.2566881658191039
            ]
        ],
        [
            [
                1.067295597484276,
                0.38283582089552237
            ],
            [
                1.070230607966457,
                0.44402985074626866
            ],
            [
                1.0719077568134159,
                0.5365671641791048
            ]
        ],
        [
            [
                1.0538784067085951,
                1.0268656716417905
            ],
            [
                1.0555555555555556,
                1.119402985074627
            ],
            [
                1.0106918238993705,
                1.1186567164179106
            ]
        ]
    ],
    "0739": [
        [
            [
                0.7866619365463112,
                1.0524835779320665
            ],
            [
                0.7417982048901269,
                1.0517373092753501
            ],
            [
                0.7363474711375061,
                1.0203940256932607
            ]
        ],
        [
            [
                0.7288759248553223,
                0.807842057123851
            ],
            [
                0.723425191102702,
                0.776498773541762
            ],
            [
                0.7221673294674816,
                0.7212748929447467
            ]
        ],
        [
            [
                0.7014675052410904,
                0.5999999999999998
            ],
            [
                0.70020964360587,
                0.5447761194029851
            ],
            [
                0.6968553459119498,
                0.48880597014925375
            ]
        ],
        [
            [
                0.7192872117400418,
                0.4085820895522389
            ],
            [
                0.7159329140461216,
                0.35261194029850745
            ],
            [
                0.720545073375262,
                0.3085820895522389
            ]
        ],
        [
            [
                0.731236897274633,
                0.12985074626865672
            ],
            [
                0.7358490566037736,
                0.08582089552238806
            ],
            [
                0.7513626834381548,
                0.0619402985074627
            ]
        ],
        [
            [
                0.791614255765199,
                0.040671641791044766
            ],
            [
                0.8071278825995807,
                0.016791044776119403
            ],
            [
                0.8163522012578616,
                -0.008582089552238813
            ]
        ],
        [
            [
                0.8440251572327042,
                -0.08470149253731342
            ],
            [
                0.8532494758909853,
                -0.11007462686567163
            ],
            [
                0.8687631027253668,
                -0.09962686567164176
            ]
        ],
        [
            [
                0.9142557651991615,
                -0.11119402985074626
            ],
            [
                0.929769392033543,
                -0.10074626865671643
            ],
            [
                0.930607966457023,
                -0.06343283582089553
            ]
        ],
        [
            [
                0.9771488469601677,
                -0.082089552238806
            ],
            [
                0.9779874213836478,
                -0.04477611940298507
            ],
            [
                0.9825995807127881,
                -0.009701492537313516
            ]
        ],
        [
            [
                0.9651414755580334,
                0.16664875070630242
            ],
            [
                0.9697536348871737,
                0.2017233775719739
            ],
            [
                0.9726886453693542,
                0.26291740742272013
            ]
        ],
        [
            [
                1.067295597484276,
                0.38283582089552237
            ],
            [
                1.070230607966457,
                0.44402985074626866
            ],
            [
                1.0719077568134159,
                0.5365671641791048
            ]
        ],
        [
            [
                1.0538784067085951,
                1.0268656716417905
            ],
            [
                1.0555555555555556,
                1.119402985074627
            ],
            [
                1.0106918238993705,
                1.1186567164179106
            ]
        ]
    ],
    "0797": [
        [
            [
                0.7881014114445553,
                1.0541413752962205
            ],
            [
                0.7432376797883709,
                1.0533951066395042
            ],
            [
                0.7377869460357501,
                1.0220518230574147
            ]
        ],
        [
            [
                0.7305694247356094,
                0.8099519810418655
            ],
            [
                0.725118690982989,
                0.7786086974597765
            ],
            [
                0.7238608293477687,
                0.7233848168627609
            ]
        ],
        [
            [
                0.688888888888889,
                0.5925373134328356
            ],
            [
                0.6876310272536688,
                0.5373134328358209
            ],
            [
                0.6842767295597485,
                0.48134328358208955
            ]
        ],
        [
            [
                0.70041928721174,
                0.3656716417910449
            ],
            [
                0.6970649895178197,
                0.30970149253731344
            ],
            [
                0.70167714884696,
                0.265671641791045
            ]
        ],
        [
            [
                0.7008385744234801,
                0.15783582089552237
            ],
            [
                0.7054507337526206,
                0.11380597014925374
            ],
            [
                0.7209643605870019,
                0.08992537313432838
            ]
        ],
        [
            [
                0.791614255765199,
                0.040671641791044766
            ],
            [
                0.8071278825995807,
                0.016791044776119403
            ],
            [
                0.8163522012578616,
                -0.008582089552238813
            ]
        ],
        [
            [
                0.8440251572327042,
                -0.08470149253731342
            ],
            [
                0.8532494758909853,
                -0.11007462686567163
            ],
            [
                0.8687631027253668,
                -0.09962686567164176
            ]
        ],
        [
            [
                0.9142557651991615,
                -0.11119402985074626
            ],
            [
                0.929769392033543,
                -0.10074626865671643
            ],
            [
                0.930607966457023,
                -0.06343283582089553
            ]
        ],
        [
            [
                0.9771488469601677,
                -0.082089552238806
            ],
            [
                0.9779874213836478,
                -0.04477611940298507
            ],
            [
                0.9825995807127881,
                -0.009701492537313516
            ]
        ],
        [
            [
                0.96452396576789,
                0.16984606055594617
            ],
            [
                0.9691361250970303,
                0.20492068742161765
            ],
            [
                0.9720711355792108,
                0.2661147172723639
            ]
        ],
        [
            [
                1.067295597484276,
                0.38283582089552237
            ],
            [
                1.070230607966457,
                0.44402985074626866
            ],
            [
                1.0719077568134159,
                0.5365671641791048
            ]
        ],
        [
            [
                1.0538784067085951,
                1.0268656716417905
            ],
            [
                1.0555555555555556,
                1.119402985074627
            ],
            [
                1.0106918238993705,
                1.1186567164179106
            ]
        ]
    ],
    "0864": [
        [
            [
                0.7897642531373544,
                1.0560564170789504
            ],
            [
                0.7449005214811701,
                1.055310148422234
            ],
            [
                0.7394497877285493,
                1.0239668648401445
            ]
        ],
        [
            [
                0.732525709080079,
                0.8123893069471579
            ],
            [
                0.7270749753274586,
                0.7810460233650689
            ],
            [
                0.7258171136922383,
                0.7258221427680535
            ]
        ],
        [
            [
                0.678406708595388,
                0.5999999999999996
            ],
            [
                0.6771488469601677,
                0.5447761194029851
            ],
            [
                0.6737945492662475,
                0.48880597014925364
            ]
        ],
        [
            [
                0.6930817610062892,
                0.3861940298507464
            ],
            [
                0.689727463312369,
                0.33022388059701496
            ],
            [
                0.6943396226415093,
                0.28619402985074655
            ]
        ],
        [
            [
                0.7008385744234801,
                0.1503731343283582
            ],
            [
                0.7054507337526206,
                0.10634328358208955
            ],
            [
                0.7209643605870019,
                0.0824626865671642
            ]
        ],
        [
            [
                0.791614255765199,
                0.040671641791044766
            ],
            [
                0.8071278825995807,
                0.016791044776119403
            ],
            [
                0.8163522012578616,
                -0.008582089552238813
            ]
        ],
        [
            [
                0.8440251572327042,
                -0.08470149253731342
            ],
            [
                0.8532494758909853,
                -0.11007462686567163
            ],
            [
                0.8687631027253668,
                -0.09962686567164176
            ]
        ],
        [
            [
                0.9142557651991615,
                -0.11119402985074626
            ],
            [
                0.929769392033543,
                -0.10074626865671643
            ],
            [
                0.930607966457023,
                -0.06343283582089553
            ]
        ],
        [
            [
                0.9771488469601677,
                -0.082089552238806
            ],
            [
                0.9779874213836478,
                -0.04477611940298507
            ],
            [
                0.9825995807127881,
                -0.009701492537313516
            ]
        ],
        [
            [
                0.9638106354930691,
                0.1735395046926036
            ],
            [
                0.9684227948222095,
                0.2086141315582751
            ],
            [
                0.9713578053043899,
                0.26980816140902136
            ]
        ],
        [
            [
                1.067295597484276,
                0.38283582089552237
            ],
            [
                1.070230607966457,
                0.44402985074626866
            ],
            [
                1.0719077568134159,
                0.5365671641791048
            ]
        ],
        [
            [
                1.0538784067085951,
                1.0268656716417905
            ],
            [
                1.0555555555555556,
                1.119402985074627
            ],
            [
                1.0106918238993705,
                1.1186567164179106
            ]
        ]
    ],
    "0886": [
        [
            [
                0.790310260857378,
                1.056685236768802
            ],
            [
                0.7454465292011937,
                1.0559389681120857
            ],
            [
                0.7399957954485729,
                1.0245956845299962
            ]
        ],
        [
            [
                0.7287211740041927,
                0.8074626865671637
            ],
            [
                0.7232704402515723,
                0.7761194029850746
            ],
            [
                0.722012578616352,
                0.7208955223880591
            ]
        ],
        [
            [
                0.6733116098176277,
                0.6349332723568784
            ],
            [
                0.6720537481824074,
                0.5797093917598637
            ],
            [
                0.6686994504884872,
                0.5237392425061324
            ]
        ],
        [
            [
                0.661635220125786,
                0.39179104477611953
            ],
            [
                0.6582809224318658,
                0.3358208955223881
            ],
            [
                0.662893081761006,
                0.29179104477611933
            ]
        ],
        [
            [
                0.6672955974842766,
                0.16156716417910447
            ],
            [
                0.6719077568134171,
                0.11753731343283581
            ],
            [
                0.6874213836477984,
                0.09365671641791046
            ]
        ],
        [
            [
                0.791614255765199,
                0.040671641791044766
            ],
            [
                0.8071278825995807,
                0.016791044776119403
            ],
            [
                0.8163522012578616,
                -0.008582089552238813
            ]
        ],
        [
            [
                0.8440251572327042,
                -0.08470149253731342
            ],
            [
                0.8532494758909853,
                -0.11007462686567163
            ],
            [
                0.8687631027253668,
                -0.09962686567164176
            ]
        ],
        [
            [
                0.9142557651991615,
                -0.11119402985074626
            ],
            [
                0.929769392033543,
                -0.10074626865671643
            ],
            [
                0.930607966457023,
                -0.06343283582089553
            ]
        ],
        [
            [
                0.9771488469601677,
                -0.082089552238806
            ],
            [
                0.9779874213836478,
                -0.04477611940298507
            ],
            [
                0.9825995807127881,
                -0.009701492537313516
            ]
        ],
        [
            [
                0.9635764076416354,
                0.1747522773941926
            ],
            [
                0.9681885669707757,
                0.2098269042598641
            ],
            [
                0.9711235774529562,
                0.27102093411061035
            ]
        ],
        [
            [
                1.067295597484276,
                0.38283582089552237
            ],
            [
                1.070230607966457,
                0.44402985074626866
            ],
            [
                1.0719077568134159,
                0.5365671641791048
            ]
        ],
        [
            [
                1.0538784067085951,
                1.0268656716417905
            ],
            [
                1.0555555555555556,
                1.119402985074627
            ],
            [
                1.0106918238993705,
                1.1186567164179106
            ]
        ]
    ],
    "0912": [
        [
            [
                0.7909555427083149,
                1.0574283873113537
            ],
            [
                0.7460918110521306,
                1.0566821186546376
            ],
            [
                0.7406410772995098,
                1.0253388350725479
            ]
        ],
        [
            [
                0.7454926624737943,
                0.8130597014925368
            ],
            [
                0.740041928721174,
                0.7817164179104478
            ],
            [
                0.7387840670859537,
                0.7264925373134321
            ]
        ],
        [
            [
                0.7109014675052413,
                0.6634328358208954
            ],
            [
                0.709643605870021,
                0.6082089552238806
            ],
            [
                0.7062893081761008,
                0.5522388059701494
            ]
        ],
        [
            [
                0.7046121593291403,
                0.3544776119402986
            ],
            [
                0.7012578616352201,
                0.29850746268656714
            ],
            [
                0.7058700209643604,
                0.2544776119402985
            ]
        ],
        [
            [
                0.7123689727463312,
                0.1485074626865672
            ],
            [
                0.7169811320754716,
                0.1044776119402985
            ],
            [
                0.7324947589098529,
                0.08059701492537318
            ]
        ],
        [
            [
                0.791614255765199,
                0.040671641791044766
            ],
            [
                0.8071278825995807,
                0.016791044776119403
            ],
            [
                0.8163522012578616,
                -0.008582089552238813
            ]
        ],
        [
            [
                0.8440251572327042,
                -0.08470149253731342
            ],
            [
                0.8532494758909853,
                -0.11007462686567163
            ],
            [
                0.8687631027253668,
                -0.09962686567164176
            ]
        ],
        [
            [
                0.9142557651991615,
                -0.11119402985074626
            ],
            [
                0.929769392033543,
                -0.10074626865671643
            ],
            [
                0.930607966457023,
                -0.06343283582089553
            ]
        ],
        [
            [
                0.9771488469601677,
                -0.082089552238806
            ],
            [
                0.9779874213836478,
                -0.04477611940298507
            ],
            [
                0.9825995807127881,
                -0.009701492537313516
            ]
        ],
        [
            [
                0.9632995929081228,
                0.17618555422334325
            ],
            [
                0.9679117522372631,
                0.21126018108901476
            ],
            [
                0.9708467627194435,
                0.27245421093976097
            ]
        ],
        [
            [
                1.067295597484276,
                0.38283582089552237
            ],
            [
                1.070230607966457,
                0.44402985074626866
            ],
            [
                1.0719077568134159,
                0.5365671641791048
            ]
        ],
        [
            [
                1.0538784067085951,
                1.0268656716417905
            ],
            [
                1.0555555555555556,
                1.119402985074627
            ],
            [
                1.0106918238993705,
                1.1186567164179106
            ]
        ]
    ],
    "0930": [
        [
            [
                0.7914022762974252,
                1.057942876148505
            ],
            [
                0.7465385446412409,
                1.057196607491789
            ],
            [
                0.7410878108886201,
                1.025853323909699
            ]
        ],
        [
            [
                0.7455363382250173,
                0.8137593283582084
            ],
            [
                0.7400856044723969,
                0.7824160447761194
            ],
            [
                0.7388277428371767,
                0.7271921641791037
            ]
        ],
        [
            [
                0.6836477987421385,
                0.5944029850746266
            ],
            [
                0.6823899371069183,
                0.539179104477612
            ],
            [
                0.679035639412998,
                0.48320895522388063
            ]
        ],
        [
            [
                0.704830538085255,
                0.3568874378109454
            ],
            [
                0.7014762403913347,
                0.30091728855721395
            ],
            [
                0.706088399720475,
                0.25688743781094525
            ]
        ],
        [
            [
                0.7128930817610062,
                0.14982898009950252
            ],
            [
                0.7175052410901467,
                0.10579912935323384
            ],
            [
                0.733018867924528,
                0.0819185323383085
            ]
        ],
        [
            [
                0.791614255765199,
                0.040671641791044766
            ],
            [
                0.8071278825995807,
                0.016791044776119403
            ],
            [
                0.8163522012578616,
                -0.008582089552238813
            ]
        ],
        [
            [
                0.8440251572327042,
                -0.08470149253731342
            ],
            [
                0.8532494758909853,
                -0.11007462686567163
            ],
            [
                0.8687631027253668,
                -0.09962686567164176
            ]
        ],
        [
            [
                0.9142557651991615,
                -0.11119402985074626
            ],
            [
                0.929769392033543,
                -0.10074626865671643
            ],
            [
                0.930607966457023,
                -0.06343283582089553
            ]
        ],
        [
            [
                0.9771488469601677,
                -0.082089552238806
            ],
            [
                0.9779874213836478,
                -0.04477611940298507
            ],
            [
                0.9825995807127881,
                -0.009701492537313516
            ]
        ],
        [
            [
                0.963107951938768,
                0.17717782279737063
            ],
            [
                0.9677201112679082,
                0.21225244966304213
            ],
            [
                0.9706551217500886,
                0.2734464795137883
            ]
        ],
        [
            [
                1.067295597484276,
                0.38283582089552237
            ],
            [
                1.070230607966457,
                0.44402985074626866
            ],
            [
                1.0719077568134159,
                0.5365671641791048
            ]
        ],
        [
            [
                1.0538784067085951,
                1.0268656716417905
            ],
            [
                1.0555555555555556,
                1.119402985074627
            ],
            [
                1.0106918238993705,
                1.1186567164179106
            ]
        ]
    ],
    "0995": [
        [
            [
                0.7930154809247676,
                1.0598007525048847
            ],
            [
                0.7481517492685833,
                1.0590544838481686
            ],
            [
                0.7427010155159625,
                1.0277112002660787
            ]
        ],
        [
            [
                0.7297693920335427,
                0.8242537313432832
            ],
            [
                0.7243186582809223,
                0.7929104477611941
            ],
            [
                0.7230607966457021,
                0.7376865671641786
            ]
        ],
        [
            [
                0.6731656184486374,
                0.6111940298507461
            ],
            [
                0.6719077568134171,
                0.5559701492537314
            ],
            [
                0.6685534591194969,
                0.5000000000000001
            ]
        ],
        [
            [
                0.7056191280378911,
                0.3655895867882809
            ],
            [
                0.7022648303439708,
                0.30961943753454946
            ],
            [
                0.7068769896731111,
                0.2655895867882808
            ]
        ],
        [
            [
                0.7039832285115303,
                0.15597014925373143
            ],
            [
                0.7085953878406708,
                0.11194029850746269
            ],
            [
                0.7241090146750521,
                0.08805970149253739
            ]
        ],
        [
            [
                0.791614255765199,
                0.040671641791044766
            ],
            [
                0.8071278825995807,
                0.016791044776119403
            ],
            [
                0.8163522012578616,
                -0.008582089552238813
            ]
        ],
        [
            [
                0.8440251572327042,
                -0.08470149253731342
            ],
            [
                0.8532494758909853,
                -0.11007462686567163
            ],
            [
                0.8687631027253668,
                -0.09962686567164176
            ]
        ],
        [
            [
                0.9142557651991615,
                -0.11119402985074626
            ],
            [
                0.929769392033543,
                -0.10074626865671643
            ],
            [
                0.930607966457023,
                -0.06343283582089553
            ]
        ],
        [
            [
                0.9771488469601677,
                -0.082089552238806
            ],
            [
                0.9779874213836478,
                -0.04477611940298507
            ],
            [
                0.9825995807127881,
                -0.009701492537313516
            ]
        ],
        [
            [
                0.9624159151049864,
                0.18076101487024723
            ],
            [
                0.9670280744341267,
                0.2158356417359187
            ],
            [
                0.9699630849163071,
                0.27702967158666497
            ]
        ],
        [
            [
                1.067295597484276,
                0.38283582089552237
            ],
            [
                1.070230607966457,
                0.44402985074626866
            ],
            [
                1.0719077568134159,
                0.5365671641791048
            ]
        ],
        [
            [
                1.0538784067085951,
                1.0268656716417905
            ],
            [
                1.0555555555555556,
                1.119402985074627
            ],
            [
                1.0106918238993705,
                1.1186567164179106
            ]
        ]
    ],
    "1058": [
        [
            [
                0.7838574423480082,
                1.0641791044776117
            ],
            [
                0.738993710691824,
                1.0634328358208955
            ],
            [
                0.7335429769392031,
                1.0320895522388056
            ]
        ],
        [
            [
                0.7266247379454924,
                0.8242537313432832
            ],
            [
                0.721174004192872,
                0.7929104477611941
            ],
            [
                0.7199161425576518,
                0.7376865671641786
            ]
        ],
        [
            [
                0.6647798742138367,
                0.6055970149253729
            ],
            [
                0.6635220125786163,
                0.5503731343283582
            ],
            [
                0.6601677148846962,
                0.4944029850746269
            ]
        ],
        [
            [
                0.6993710691823899,
                0.34328358208955234
            ],
            [
                0.6960167714884696,
                0.2873134328358209
            ],
            [
                0.7006289308176099,
                0.2432835820895523
            ]
        ],
        [
            [
                0.7077676259813902,
                0.16034832998332127
            ],
            [
                0.7123797853105308,
                0.11631847923705256
            ],
            [
                0.727893412144912,
                0.09243788222212725
            ]
        ],
        [
            [
                0.791614255765199,
                0.040671641791044766
            ],
            [
                0.8071278825995807,
                0.016791044776119403
            ],
            [
                0.8163522012578616,
                -0.008582089552238813
            ]
        ],
        [
            [
                0.8440251572327042,
                -0.08470149253731342
            ],
            [
                0.8532494758909853,
                -0.11007462686567163
            ],
            [
                0.8687631027253668,
                -0.09962686567164176
            ]
        ],
        [
            [
                0.9142557651991615,
                -0.11119402985074626
            ],
            [
                0.929769392033543,
                -0.10074626865671643
            ],
            [
                0.930607966457023,
                -0.06343283582089553
            ]
        ],
        [
            [
                0.9771488469601677,
                -0.082089552238806
            ],
            [
                0.9779874213836478,
                -0.04477611940298507
            ],
            [
                0.9825995807127881,
                -0.009701492537313516
            ]
        ],
        [
            [
                0.9617451717122444,
                0.18423395487934302
            ],
            [
                0.9663573310413847,
                0.2193085817450145
            ],
            [
                0.969292341523565,
                0.2805026115957608
            ]
        ],
        [
            [
                1.067295597484276,
                0.38283582089552237
            ],
            [
                1.070230607966457,
                0.44402985074626866
            ],
            [
                1.0719077568134159,
                0.5365671641791048
            ]
        ],
        [
            [
                1.0538784067085951,
                1.0268656716417905
            ],
            [
                1.0555555555555556,
                1.119402985074627
            ],
            [
                1.0106918238993705,
                1.1186567164179106
            ]
        ]
    ],
    "1221": [
        [
            [
                0.7940134289190891,
                1.067369011585429
            ],
            [
                0.7491496972629048,
                1.066622742928713
            ],
            [
                0.743698963510284,
                1.0352794593466232
            ]
        ],
        [
            [
                0.7379755464661123,
                0.8274436384511007
            ],
            [
                0.732524812713492,
                0.7961003548690117
            ],
            [
                0.7312669510782717,
                0.7408764742719962
            ]
        ],
        [
            [
                0.6803125595578428,
                0.6236731552030058
            ],
            [
                0.6790546979226224,
                0.568449274605991
            ],
            [
                0.6757004002287023,
                0.5124791253522598
            ]
        ],
        [
            [
                0.7053451789300845,
                0.38262576975263546
            ],
            [
                0.7019908812361643,
                0.32665562049890406
            ],
            [
                0.7066030405653047,
                0.2826257697526355
            ]
        ],
        [
            [
                0.7039832285115303,
                0.16343283582089557
            ],
            [
                0.7085953878406708,
                0.11940298507462685
            ],
            [
                0.7241090146750521,
                0.09552238805970154
            ]
        ],
        [
            [
                0.791614255765199,
                0.040671641791044766
            ],
            [
                0.8071278825995807,
                0.016791044776119403
            ],
            [
                0.8163522012578616,
                -0.008582089552238813
            ]
        ],
        [
            [
                0.8440251572327042,
                -0.08470149253731342
            ],
            [
                0.8532494758909853,
                -0.11007462686567163
            ],
            [
                0.8687631027253668,
                -0.09962686567164176
            ]
        ],
        [
            [
                0.9142557651991615,
                -0.11119402985074626
            ],
            [
                0.929769392033543,
                -0.10074626865671643
            ],
            [
                0.930607966457023,
                -0.06343283582089553
            ]
        ],
        [
            [
                0.9771488469601677,
                -0.082089552238806
            ],
            [
                0.9779874213836478,
                -0.04477611940298507
            ],
            [
                0.9825995807127881,
                -0.009701492537313516
            ]
        ],
        [
            [
                0.9600097562675309,
                0.19321949807747976
            ],
            [
                0.9646219155966712,
                0.22829412494315124
            ],
            [
                0.9675569260788516,
                0.28948815479389756
            ]
        ],
        [
            [
                1.067295597484276,
                0.38283582089552237
            ],
            [
                1.070230607966457,
                0.44402985074626866
            ],
            [
                1.0719077568134159,
                0.5365671641791048
            ]
        ],
        [
            [
                1.0538784067085951,
                1.0268656716417905
            ],
            [
                1.0555555555555556,
                1.119402985074627
            ],
            [
                1.0106918238993705,
                1.1186567164179106
            ]
        ]
    ],
    "1299": [
        [
            [
                0.7988733488733487,
                1.06889547020144
            ],
            [
                0.7540096172171644,
                1.0681492015447236
            ],
            [
                0.7485588834645436,
                1.0368059179626343
            ]
        ],
        [
            [
                0.737187720864772,
                0.8363953124279395
            ],
            [
                0.7317369871121516,
                0.8050520288458505
            ],
            [
                0.7304791254769313,
                0.7498281482488351
            ]
        ],
        [
            [
                0.6877453783114162,
                0.6323230873604007
            ],
            [
                0.686487516676196,
                0.5770992067633859
            ],
            [
                0.6831332189822757,
                0.5211290575096547
            ]
        ],
        [
            [
                0.7046803471989956,
                0.38755421947022095
            ],
            [
                0.7013260495050754,
                0.3315840702164895
            ],
            [
                0.7059382088342157,
                0.287554219470221
            ]
        ],
        [
            [
                0.7106381941397298,
                0.15835647344671996
            ],
            [
                0.7152503534688704,
                0.11432662270045123
            ],
            [
                0.7307639803032516,
                0.09044602568552594
            ]
        ],
        [
            [
                0.791614255765199,
                0.040671641791044766
            ],
            [
                0.8071278825995807,
                0.016791044776119403
            ],
            [
                0.8163522012578616,
                -0.008582089552238813
            ]
        ],
        [
            [
                0.8440251572327042,
                -0.08470149253731342
            ],
            [
                0.8532494758909853,
                -0.11007462686567163
            ],
            [
                0.8687631027253668,
                -0.09962686567164176
            ]
        ],
        [
            [
                0.9142557651991615,
                -0.11119402985074626
            ],
            [
                0.929769392033543,
                -0.10074626865671643
            ],
            [
                0.930607966457023,
                -0.06343283582089553
            ]
        ],
        [
            [
                0.9771488469601677,
                -0.082089552238806
            ],
            [
                0.9779874213836478,
                -0.04477611940298507
            ],
            [
                0.9825995807127881,
                -0.009701492537313516
            ]
        ],
        [
            [
                0.9616741560605749,
                0.13337654477083127
            ],
            [
                0.9662863153897152,
                0.16845117163650278
            ],
            [
                0.9692213258718957,
                0.22964520148724896
            ]
        ],
        [
            [
                1.067295597484276,
                0.38283582089552237
            ],
            [
                1.070230607966457,
                0.44402985074626866
            ],
            [
                1.0719077568134159,
                0.5365671641791048
            ]
        ],
        [
            [
                1.0538784067085951,
                1.0268656716417905
            ],
            [
                1.0555555555555556,
                1.119402985074627
            ],
            [
                1.0106918238993705,
                1.1186567164179106
            ]
        ]
    ]
}
</property>
    <property name="kdenlive:collapsed">0</property>
   </filter>
   <filter id="filter257" in="00:00:08.700" out="00:00:10.067">
    <property name="start">0</property>
    <property name="mlt_service">brightness</property>
    <property name="kdenlive_id">fade_from_black</property>
    <property name="end">1</property>
    <property name="alpha">-1</property>
    <property name="kdenlive:collapsed">0</property>
   </filter>
   <filter id="filter258">
    <property name="lift_r">-0.183047</property>
    <property name="lift_g">-0.231662</property>
    <property name="lift_b">-0.262486</property>
    <property name="gamma_r">0.796185</property>
    <property name="gamma_g">0.91249</property>
    <property name="gamma_b">0.861494</property>
    <property name="gain_r">0.909865</property>
    <property name="gain_g">1.00002</property>
    <property name="gain_b">0.926894</property>
    <property name="mlt_service">lift_gamma_gain</property>
    <property name="kdenlive_id">lift_gamma_gain</property>
    <property name="kdenlive:collapsed">0</property>
   </filter>
  </entry>
  <blank length="00:01:29.300"/>
  <entry producer="producer239" in="00:00:12.133" out="00:00:23.533">
   <property name="kdenlive:id">38</property>
   <property name="kdenlive:activeeffect">2</property>
   <filter id="filter259">
    <property name="version">0.6</property>
    <property name="mlt_service">frei0r.select0r</property>
    <property name="kdenlive_id">frei0r.select0r</property>
    <property name="Color to select">0x3b9a48ff</property>
    <property name="Invert selection">1</property>
    <property name="Selection subspace">1</property>
    <property name="Subspace shape">0</property>
    <property name="Edge mode">0.9</property>
    <property name="Delta R / A / Hue">00:00:12.133=0.031</property>
    <property name="Delta G / B / Chroma">00:00:12.133=0.181</property>
    <property name="Delta B / I / I">00:00:12.133=0.415</property>
    <property name="Slope">00:00:12.133=0.126</property>
    <property name="Operation">0.5</property>
    <property name="kdenlive:collapsed">0</property>
   </filter>
   <filter id="filter260">
    <property name="mlt_service">avfilter.despill</property>
    <property name="kdenlive_id">avfilter.despill</property>
    <property name="av.type">green</property>
    <property name="av.mix">0.186</property>
    <property name="av.expand">0.043</property>
    <property name="av.red">0</property>
    <property name="av.green">-0.5</property>
    <property name="av.blue">0</property>
    <property name="av.brightness">0</property>
    <property name="kdenlive:collapsed">0</property>
   </filter>
   <filter id="filter261" in="00:00:12.133" out="00:00:13.033">
    <property name="start">0</property>
    <property name="mlt_service">brightness</property>
    <property name="kdenlive_id">fade_from_black</property>
    <property name="end">1</property>
    <property name="alpha">-1</property>
    <property name="kdenlive:collapsed">0</property>
    <property name="disable">0</property>
   </filter>
   <filter id="filter262" in="00:00:22.867" out="00:00:23.533">
    <property name="start">1</property>
    <property name="mlt_service">brightness</property>
    <property name="kdenlive_id">fade_to_black</property>
    <property name="end">0</property>
    <property name="alpha">-1</property>
    <property name="kdenlive:collapsed">0</property>
    <property name="disable">0</property>
   </filter>
   <filter id="filter263">
    <property name="rotate_center">1</property>
    <property name="mlt_service">qtblend</property>
    <property name="kdenlive_id">qtblend</property>
    <property name="rect">00:00:12.133=1075 -212 1280 1708 1.000000</property>
    <property name="rotation">00:00:12.133=0</property>
    <property name="compositing">0</property>
    <property name="distort">0</property>
    <property name="kdenlive:collapsed">0</property>
   </filter>
   <filter id="filter264">
    <property name="mode">alpha</property>
    <property name="alpha_operation">sub</property>
    <property name="invert">1</property>
    <property name="feather">101</property>
    <property name="feather_passes">1</property>
    <property name="mlt_service">rotoscoping</property>
    <property name="kdenlive_id">rotoscoping</property>
    <property name="spline">{
    "364": [
        [
            [
                0.8205450733752621,
                1.0921641791044774
            ],
            [
                0.7756813417190772,
                1.091417910447761
            ],
            [
                0.7702306079664569,
                1.0600746268656716
            ]
        ],
        [
            [
                0.7958071278825997,
                1.0350746268656719
            ],
            [
                0.790356394129979,
                1.0037313432835822
            ],
            [
                0.7890985324947589,
                0.9485074626865677
            ]
        ],
        [
            [
                0.7433962264150942,
                0.7138059701492543
            ],
            [
                0.7421383647798742,
                0.6585820895522396
            ],
            [
                0.7387840670859538,
                0.6026119402985081
            ]
        ],
        [
            [
                0.7654088050314465,
                0.5055970149253731
            ],
            [
                0.7620545073375261,
                0.4496268656716418
            ],
            [
                0.7666666666666667,
                0.4055970149253731
            ]
        ],
        [
            [
                0.7438155136268344,
                0.1503731343283582
            ],
            [
                0.7484276729559748,
                0.10634328358208955
            ],
            [
                0.7639412997903565,
                0.08246268656716411
            ]
        ],
        [
            [
                0.8628930817610063,
                -0.06231343283582069
            ],
            [
                0.8721174004192872,
                -0.08768656716417883
            ],
            [
                0.8876310272536688,
                -0.07723880597014901
            ]
        ],
        [
            [
                1.027463312368973,
                -0.09626865671641797
            ],
            [
                1.0429769392033543,
                -0.08582089552238806
            ],
            [
                1.0438155136268346,
                -0.04850746268656721
            ]
        ],
        [
            [
                1.0853249475890983,
                1.0268656716417919
            ],
            [
                1.0870020964360587,
                1.119402985074627
            ],
            [
                1.0421383647798734,
                1.1186567164179106
            ]
        ]
    ]
}
</property>
    <property name="kdenlive:collapsed">0</property>
   </filter>
  </entry>
  <blank length="00:00:00.300"/>
  <entry producer="producer240" in="00:00:23.867" out="00:01:15.000">
   <property name="kdenlive:id">38</property>
   <filter id="filter265">
    <property name="version">0.6</property>
    <property name="mlt_service">frei0r.select0r</property>
    <property name="kdenlive_id">frei0r.select0r</property>
    <property name="Color to select">0x3b9a48ff</property>
    <property name="Invert selection">1</property>
    <property name="Selection subspace">1</property>
    <property name="Subspace shape">0</property>
    <property name="Edge mode">0.9</property>
    <property name="Delta R / A / Hue">00:00:23.867=0.031</property>
    <property name="Delta G / B / Chroma">00:00:23.867=0.181</property>
    <property name="Delta B / I / I">00:00:23.867=0.415</property>
    <property name="Slope">00:00:23.867=0.126</property>
    <property name="Operation">0.5</property>
    <property name="kdenlive:collapsed">0</property>
   </filter>
   <filter id="filter266">
    <property name="mlt_service">avfilter.despill</property>
    <property name="kdenlive_id">avfilter.despill</property>
    <property name="av.type">green</property>
    <property name="av.mix">0.186</property>
    <property name="av.expand">0.043</property>
    <property name="av.red">0</property>
    <property name="av.green">-0.5</property>
    <property name="av.blue">0</property>
    <property name="av.brightness">0</property>
    <property name="kdenlive:collapsed">0</property>
   </filter>
   <filter id="filter267">
    <property name="mode">alpha</property>
    <property name="alpha_operation">sub</property>
    <property name="invert">1</property>
    <property name="feather">40</property>
    <property name="feather_passes">1</property>
    <property name="mlt_service">rotoscoping</property>
    <property name="kdenlive_id">rotoscoping</property>
    <property name="spline">{
    "0716": [
        [
            [
                0.4945492662473795,
                1.0828358208955224
            ],
            [
                0.449685534591195,
                1.082089552238806
            ],
            [
                0.4442348008385745,
                1.0507462686567166
            ]
        ],
        [
            [
                0.42788259958071273,
                0.9567164179104477
            ],
            [
                0.4224318658280922,
                0.9253731343283582
            ],
            [
                0.4211740041928721,
                0.8701492537313432
            ]
        ],
        [
            [
                0.4174004192872118,
                0.7044776119402985
            ],
            [
                0.41614255765199165,
                0.6492537313432836
            ],
            [
                0.4127882599580713,
                0.5932835820895522
            ]
        ],
        [
            [
                0.4027253668763102,
                0.4253731343283582
            ],
            [
                0.3993710691823899,
                0.3694029850746269
            ],
            [
                0.4039832285115304,
                0.32537313432835824
            ]
        ],
        [
            [
                0.4178197064989517,
                0.19328358208955224
            ],
            [
                0.4224318658280922,
                0.14925373134328357
            ],
            [
                0.43794549266247373,
                0.1253731343283582
            ]
        ],
        [
            [
                0.4844863731656185,
                0.05373134328358208
            ],
            [
                0.5,
                0.029850746268656712
            ],
            [
                0.509224318658281,
                0.004477611940298505
            ]
        ],
        [
            [
                0.5368972746331236,
                -0.07164179104477611
            ],
            [
                0.5461215932914046,
                -0.09701492537313433
            ],
            [
                0.5616352201257863,
                -0.08656716417910447
            ]
        ],
        [
            [
                0.6081761006289308,
                -0.05522388059701493
            ],
            [
                0.6236897274633123,
                -0.04477611940298507
            ],
            [
                0.6245283018867924,
                -0.007462686567164174
            ]
        ],
        [
            [
                0.6270440251572327,
                0.1044776119402985
            ],
            [
                0.6278825995807128,
                0.1417910447761194
            ],
            [
                0.6324947589098532,
                0.17686567164179104
            ]
        ],
        [
            [
                0.6651991614255766,
                0.29328358208955213
            ],
            [
                0.6698113207547169,
                0.3283582089552239
            ],
            [
                0.6727463312368973,
                0.3895522388059701
            ]
        ],
        [
            [
                0.6626834381551363,
                0.5619402985074627
            ],
            [
                0.6656184486373166,
                0.6231343283582089
            ],
            [
                0.6672955974842767,
                0.7156716417910447
            ]
        ],
        [
            [
                0.6723270440251573,
                0.9932835820895523
            ],
            [
                0.6740041928721173,
                1.0858208955223883
            ],
            [
                0.6291404612159329,
                1.085074626865672
            ]
        ]
    ],
    "2717": [
        [
            [
                0.4945492662473795,
                1.0828358208955224
            ],
            [
                0.449685534591195,
                1.082089552238806
            ],
            [
                0.4442348008385745,
                1.0507462686567166
            ]
        ],
        [
            [
                0.42788259958071273,
                0.9567164179104477
            ],
            [
                0.4224318658280922,
                0.9253731343283582
            ],
            [
                0.4211740041928721,
                0.8701492537313432
            ]
        ],
        [
            [
                0.4174004192872118,
                0.7044776119402985
            ],
            [
                0.41614255765199165,
                0.6492537313432836
            ],
            [
                0.4127882599580713,
                0.5932835820895522
            ]
        ],
        [
            [
                0.4027253668763102,
                0.4253731343283582
            ],
            [
                0.3993710691823899,
                0.3694029850746269
            ],
            [
                0.4039832285115304,
                0.32537313432835824
            ]
        ],
        [
            [
                0.4178197064989517,
                0.19328358208955224
            ],
            [
                0.4224318658280922,
                0.14925373134328357
            ],
            [
                0.43794549266247373,
                0.1253731343283582
            ]
        ],
        [
            [
                0.4844863731656185,
                0.05373134328358208
            ],
            [
                0.5,
                0.029850746268656712
            ],
            [
                0.509224318658281,
                0.004477611940298505
            ]
        ],
        [
            [
                0.5368972746331236,
                -0.07164179104477611
            ],
            [
                0.5461215932914046,
                -0.09701492537313433
            ],
            [
                0.5616352201257863,
                -0.08656716417910447
            ]
        ],
        [
            [
                0.6081761006289308,
                -0.05522388059701493
            ],
            [
                0.6236897274633123,
                -0.04477611940298507
            ],
            [
                0.6245283018867924,
                -0.007462686567164174
            ]
        ],
        [
            [
                0.6270440251572327,
                0.1044776119402985
            ],
            [
                0.6278825995807128,
                0.1417910447761194
            ],
            [
                0.6324947589098532,
                0.17686567164179104
            ]
        ],
        [
            [
                0.6651991614255766,
                0.29328358208955213
            ],
            [
                0.6698113207547169,
                0.3283582089552239
            ],
            [
                0.6727463312368973,
                0.3895522388059701
            ]
        ],
        [
            [
                0.6626834381551363,
                0.5619402985074627
            ],
            [
                0.6656184486373166,
                0.6231343283582089
            ],
            [
                0.6672955974842767,
                0.7156716417910447
            ]
        ],
        [
            [
                0.6723270440251573,
                0.9932835820895523
            ],
            [
                0.6740041928721173,
                1.0858208955223883
            ],
            [
                0.6291404612159329,
                1.085074626865672
            ]
        ]
    ]
}
</property>
    <property name="kdenlive:collapsed">0</property>
   </filter>
  </entry>
  <entry producer="producer240" in="00:01:30.567" out="00:02:27.500">
   <property name="kdenlive:id">38</property>
   <filter id="filter268">
    <property name="version">0.6</property>
    <property name="mlt_service">frei0r.select0r</property>
    <property name="kdenlive_id">frei0r.select0r</property>
    <property name="Color to select">0x3b9a48ff</property>
    <property name="Invert selection">1</property>
    <property name="Selection subspace">1</property>
    <property name="Subspace shape">0</property>
    <property name="Edge mode">0.9</property>
    <property name="Delta R / A / Hue">00:01:30.567=0.031</property>
    <property name="Delta G / B / Chroma">00:01:30.567=0.181</property>
    <property name="Delta B / I / I">00:01:30.567=0.415</property>
    <property name="Slope">00:01:30.567=0.126</property>
    <property name="Operation">0.5</property>
    <property name="kdenlive:collapsed">0</property>
   </filter>
   <filter id="filter269">
    <property name="mlt_service">avfilter.despill</property>
    <property name="kdenlive_id">avfilter.despill</property>
    <property name="av.type">green</property>
    <property name="av.mix">0.186</property>
    <property name="av.expand">0.043</property>
    <property name="av.red">0</property>
    <property name="av.green">-0.5</property>
    <property name="av.blue">0</property>
    <property name="av.brightness">0</property>
    <property name="kdenlive:collapsed">0</property>
   </filter>
   <filter id="filter270">
    <property name="mode">alpha</property>
    <property name="alpha_operation">sub</property>
    <property name="invert">1</property>
    <property name="feather">40</property>
    <property name="feather_passes">1</property>
    <property name="mlt_service">rotoscoping</property>
    <property name="kdenlive_id">rotoscoping</property>
    <property name="spline">{
    "2717": [
        [
            [
                0.4945492662473795,
                1.0828358208955224
            ],
            [
                0.449685534591195,
                1.082089552238806
            ],
            [
                0.4442348008385745,
                1.0507462686567166
            ]
        ],
        [
            [
                0.42788259958071273,
                0.9567164179104477
            ],
            [
                0.4224318658280922,
                0.9253731343283582
            ],
            [
                0.4211740041928721,
                0.8701492537313432
            ]
        ],
        [
            [
                0.4174004192872118,
                0.7044776119402985
            ],
            [
                0.41614255765199165,
                0.6492537313432836
            ],
            [
                0.4127882599580713,
                0.5932835820895522
            ]
        ],
        [
            [
                0.4027253668763102,
                0.4253731343283582
            ],
            [
                0.3993710691823899,
                0.3694029850746269
            ],
            [
                0.4039832285115304,
                0.32537313432835824
            ]
        ],
        [
            [
                0.4178197064989517,
                0.19328358208955224
            ],
            [
                0.4224318658280922,
                0.14925373134328357
            ],
            [
                0.43794549266247373,
                0.1253731343283582
            ]
        ],
        [
            [
                0.4844863731656185,
                0.05373134328358208
            ],
            [
                0.5,
                0.029850746268656712
            ],
            [
                0.509224318658281,
                0.004477611940298505
            ]
        ],
        [
            [
                0.5368972746331236,
                -0.07164179104477611
            ],
            [
                0.5461215932914046,
                -0.09701492537313433
            ],
            [
                0.5616352201257863,
                -0.08656716417910447
            ]
        ],
        [
            [
                0.6081761006289308,
                -0.05522388059701493
            ],
            [
                0.6236897274633123,
                -0.04477611940298507
            ],
            [
                0.6245283018867924,
                -0.007462686567164174
            ]
        ],
        [
            [
                0.6270440251572327,
                0.1044776119402985
            ],
            [
                0.6278825995807128,
                0.1417910447761194
            ],
            [
                0.6324947589098532,
                0.17686567164179104
            ]
        ],
        [
            [
                0.6651991614255766,
                0.29328358208955213
            ],
            [
                0.6698113207547169,
                0.3283582089552239
            ],
            [
                0.6727463312368973,
                0.3895522388059701
            ]
        ],
        [
            [
                0.6626834381551363,
                0.5619402985074627
            ],
            [
                0.6656184486373166,
                0.6231343283582089
            ],
            [
                0.6672955974842767,
                0.7156716417910447
            ]
        ],
        [
            [
                0.6723270440251573,
                0.9932835820895523
            ],
            [
                0.6740041928721173,
                1.0858208955223883
            ],
            [
                0.6291404612159329,
                1.085074626865672
            ]
        ]
    ]
}
</property>
    <property name="kdenlive:collapsed">0</property>
   </filter>
  </entry>
 </playlist>
 <playlist id="playlist27"/>
 <tractor id="tractor13" in="00:00:00.000" out="00:05:29.533">
  <property name="kdenlive:trackheight">69</property>
  <property name="kdenlive:timeline_active">1</property>
  <property name="kdenlive:collapsed">28</property>
  <property name="kdenlive:track_name">caleb-4k portrait</property>
  <property name="kdenlive:thumbs_format"/>
  <property name="kdenlive:audio_rec"/>
  <property name="kdenlive:locked_track"/>
  <track hide="audio" producer="playlist26"/>
  <track producer="playlist27"/>
 </tractor>
 <producer id="producer241" in="00:00:00.000" out="00:04:14.500">
  <property name="length">7636</property>
  <property name="eof">pause</property>
  <property name="resource">/home/ryankelln/.cache/kdenlive/proxy/9cec9d632787cb95f8eb310bff430b62.mkv</property>
  <property name="audio_index">1</property>
  <property name="video_index">0</property>
  <property name="mute_on_pause">0</property>
  <property name="mlt_service">avformat-novalidate</property>
  <property name="seekable">1</property>
  <property name="aspect_ratio">1</property>
  <property name="kdenlive:clipname">2021-06-02_Caleb_upright+4k+portrait_jackson_P1000536-take3_beginning_to_G.MP4</property>
  <property name="kdenlive:folderid">41</property>
  <property name="kdenlive:id">39</property>
  <property name="kdenlive:file_size">3052263565</property>
  <property name="kdenlive:file_hash">9cec9d632787cb95f8eb310bff430b62</property>
  <property name="kdenlive:proxy">/home/ryankelln/.cache/kdenlive/proxy/9cec9d632787cb95f8eb310bff430b62.mkv</property>
  <property name="kdenlive:originalurl">content/musicians/2021-06-02_Caleb_upright+4k+portrait_jackson_P1000536-take3_beginning_to_G.MP4</property>
  <property name="kdenlive:original.mlt_type">producer</property>
  <property name="kdenlive:original.in">0</property>
  <property name="kdenlive:original.out">7635</property>
  <property name="kdenlive:original.length">7636</property>
  <property name="kdenlive:original.eof">pause</property>
  <property name="kdenlive:original.resource">content/musicians/2021-06-02_Caleb_upright+4k+portrait_jackson_P1000536-take3_beginning_to_G.MP4</property>
  <property name="kdenlive:original.meta.media.nb_streams">2</property>
  <property name="kdenlive:original.meta.media.0.stream.type">video</property>
  <property name="kdenlive:original.meta.media.0.stream.frame_rate">29.97</property>
  <property name="kdenlive:original.meta.media.0.stream.sample_aspect_ratio">1</property>
  <property name="kdenlive:original.meta.media.0.codec.width">3328</property>
  <property name="kdenlive:original.meta.media.0.codec.height">2496</property>
  <property name="kdenlive:original.meta.media.0.codec.rotate">90</property>
  <property name="kdenlive:original.meta.media.0.codec.frame_rate">29.97</property>
  <property name="kdenlive:original.meta.media.0.codec.pix_fmt">yuvj420p</property>
  <property name="kdenlive:original.meta.media.0.codec.sample_aspect_ratio">1</property>
  <property name="kdenlive:original.meta.media.0.codec.colorspace">709</property>
  <property name="kdenlive:original.meta.media.0.codec.color_trc">1</property>
  <property name="kdenlive:original.meta.media.0.codec.name">h264</property>
  <property name="kdenlive:original.meta.media.0.codec.long_name">H.264 / AVC / MPEG-4 AVC / MPEG-4 part 10</property>
  <property name="kdenlive:original.meta.media.0.codec.bit_rate">95816171</property>
  <property name="kdenlive:original.meta.attr.0.stream.rotate.markup">90</property>
  <property name="kdenlive:original.meta.attr.0.stream.creation_time.markup">2021-06-02T13:56:16.000000Z</property>
  <property name="kdenlive:original.meta.attr.0.stream.handler_name.markup">VideoHandler</property>
  <property name="kdenlive:original.meta.media.1.stream.type">audio</property>
  <property name="kdenlive:original.meta.media.1.codec.sample_fmt">fltp</property>
  <property name="kdenlive:original.meta.media.1.codec.sample_rate">48000</property>
  <property name="kdenlive:original.meta.media.1.codec.channels">2</property>
  <property name="kdenlive:original.meta.media.1.codec.name">aac</property>
  <property name="kdenlive:original.meta.media.1.codec.long_name">AAC (Advanced Audio Coding)</property>
  <property name="kdenlive:original.meta.media.1.codec.bit_rate">125373</property>
  <property name="kdenlive:original.meta.attr.1.stream.creation_time.markup">2021-06-02T13:56:16.000000Z</property>
  <property name="kdenlive:original.meta.attr.1.stream.handler_name.markup">SoundHandler</property>
  <property name="kdenlive:original.meta.attr.major_brand.markup">isom</property>
  <property name="kdenlive:original.meta.attr.minor_version.markup">512</property>
  <property name="kdenlive:original.meta.attr.compatible_brands.markup">isomiso2avc1mp41</property>
  <property name="kdenlive:original.meta.attr.creation_time.markup">2021-06-02T13:56:16.000000Z</property>
  <property name="kdenlive:original.meta.attr.encoder.markup">Lavf58.45.100</property>
  <property name="kdenlive:original.seekable">1</property>
  <property name="kdenlive:original.width">3328</property>
  <property name="kdenlive:original.height">2496</property>
  <property name="kdenlive:original.meta.media.sample_aspect_num">1</property>
  <property name="kdenlive:original.meta.media.sample_aspect_den">1</property>
  <property name="kdenlive:original.aspect_ratio">1</property>
  <property name="kdenlive:original.audio_index">1</property>
  <property name="kdenlive:original.video_index">0</property>
  <property name="kdenlive:original.mute_on_pause">0</property>
  <property name="kdenlive:original.mlt_service">avformat-novalidate</property>
  <property name="kdenlive:original.kdenlive:folderid">41</property>
  <property name="kdenlive:original.meta.media.frame_rate_num">30000</property>
  <property name="kdenlive:original.meta.media.frame_rate_den">1001</property>
  <property name="kdenlive:original.meta.media.colorspace">709</property>
  <property name="kdenlive:original.meta.media.color_trc">1</property>
  <property name="kdenlive:original.meta.media.width">2496</property>
  <property name="kdenlive:original.meta.media.height">3328</property>
  <property name="kdenlive:original.meta.media.color_range">full</property>
  <property name="kdenlive:original.kdenlive:id">56</property>
  <property name="kdenlive:original.kdenlive:file_size">3052263565</property>
  <property name="kdenlive:original.kdenlive:file_hash">9cec9d632787cb95f8eb310bff430b62</property>
  <property name="kdenlive:original.backup">1</property>
  <property name="kdenlive:audio_max">1</property>
  <property name="global_feed">1</property>
  <property name="xml">was here</property>
  <property name="meta.media.nb_streams">2</property>
  <property name="meta.media.0.stream.type">video</property>
  <property name="meta.media.0.stream.frame_rate">29.97</property>
  <property name="meta.media.0.stream.sample_aspect_ratio">1</property>
  <property name="meta.media.0.codec.width">640</property>
  <property name="meta.media.0.codec.height">854</property>
  <property name="meta.media.0.codec.rotate">0</property>
  <property name="meta.media.0.codec.frame_rate">1000</property>
  <property name="meta.media.0.codec.pix_fmt">yuvj420p</property>
  <property name="meta.media.0.codec.sample_aspect_ratio">1.00078</property>
  <property name="meta.media.0.codec.colorspace">601</property>
  <property name="meta.media.0.codec.name">mjpeg</property>
  <property name="meta.media.0.codec.long_name">MJPEG (Motion JPEG)</property>
  <property name="meta.media.0.codec.bit_rate">0</property>
  <property name="meta.attr.0.stream.ENCODER.markup">Lavc58.91.100 mjpeg</property>
  <property name="meta.attr.0.stream.HANDLER_NAME.markup">VideoHandler</property>
  <property name="meta.attr.0.stream.DURATION.markup">00:04:14.587000000</property>
  <property name="meta.media.1.stream.type">audio</property>
  <property name="meta.media.1.codec.sample_fmt">s16</property>
  <property name="meta.media.1.codec.sample_rate">48000</property>
  <property name="meta.media.1.codec.channels">2</property>
  <property name="meta.media.1.codec.name">pcm_s16le</property>
  <property name="meta.media.1.codec.long_name">PCM signed 16-bit little-endian</property>
  <property name="meta.media.1.codec.bit_rate">1536000</property>
  <property name="meta.attr.1.stream.HANDLER_NAME.markup">SoundHandler</property>
  <property name="meta.attr.1.stream.ENCODER.markup">Lavc58.91.100 pcm_s16le</property>
  <property name="meta.attr.1.stream.DURATION.markup">00:04:14.549000000</property>
  <property name="meta.attr.COMPATIBLE_BRANDS.markup">isomiso2avc1mp41</property>
  <property name="meta.attr.MAJOR_BRAND.markup">isom</property>
  <property name="meta.attr.MINOR_VERSION.markup">512</property>
  <property name="meta.attr.ENCODER.markup">Lavf58.45.100</property>
  <property name="meta.media.sample_aspect_num">1</property>
  <property name="meta.media.sample_aspect_den">1</property>
  <property name="meta.media.frame_rate_num">30000</property>
  <property name="meta.media.frame_rate_den">1001</property>
  <property name="meta.media.colorspace">601</property>
  <property name="meta.media.color_trc">2</property>
  <property name="meta.media.width">640</property>
  <property name="meta.media.height">854</property>
  <property name="meta.media.color_range">full</property>
  <property name="meta.media.top_field_first">0</property>
  <property name="meta.media.progressive">1</property>
  <property name="set.test_audio">1</property>
  <property name="set.test_image">0</property>
 </producer>
 <playlist id="playlist28">
  <blank length="00:02:00.400"/>
  <entry producer="producer241" in="00:01:56.667" out="00:02:00.000">
   <property name="kdenlive:id">39</property>
   <property name="kdenlive:activeeffect">3</property>
   <filter id="filter271">
    <property name="version">0.6</property>
    <property name="mlt_service">frei0r.select0r</property>
    <property name="kdenlive_id">frei0r.select0r</property>
    <property name="Color to select">0x3b9a48ff</property>
    <property name="Invert selection">1</property>
    <property name="Selection subspace">1</property>
    <property name="Subspace shape">0</property>
    <property name="Edge mode">0.9</property>
    <property name="Delta R / A / Hue">00:01:56.667=0.031</property>
    <property name="Delta G / B / Chroma">00:01:56.667=0.181</property>
    <property name="Delta B / I / I">00:01:56.667=0.415</property>
    <property name="Slope">00:01:56.667=0.126</property>
    <property name="Operation">0.5</property>
    <property name="kdenlive:collapsed">0</property>
   </filter>
   <filter id="filter272">
    <property name="mlt_service">avfilter.despill</property>
    <property name="kdenlive_id">avfilter.despill</property>
    <property name="av.type">green</property>
    <property name="av.mix">0.186</property>
    <property name="av.expand">0.043</property>
    <property name="av.red">0</property>
    <property name="av.green">-0.5</property>
    <property name="av.blue">0</property>
    <property name="av.brightness">0</property>
    <property name="kdenlive:collapsed">0</property>
   </filter>
   <filter id="filter273">
    <property name="rotate_center">1</property>
    <property name="mlt_service">qtblend</property>
    <property name="kdenlive_id">qtblend</property>
    <property name="rect">00:01:56.667=1025 -355 1080 1920 1.000000</property>
    <property name="rotation">00:01:56.667=0</property>
    <property name="compositing">0</property>
    <property name="distort">0</property>
    <property name="kdenlive:collapsed">0</property>
   </filter>
   <filter id="filter274" in="00:01:56.633" out="00:02:00.000">
    <property name="start">1</property>
    <property name="mlt_service">brightness</property>
    <property name="kdenlive_id">fade_to_black</property>
    <property name="end">0</property>
    <property name="alpha">-1</property>
    <property name="kdenlive:collapsed">0</property>
   </filter>
   <filter id="filter275">
    <property name="mode">alpha</property>
    <property name="alpha_operation">sub</property>
    <property name="invert">1</property>
    <property name="feather">50</property>
    <property name="feather_passes">1</property>
    <property name="mlt_service">rotoscoping</property>
    <property name="kdenlive_id">rotoscoping</property>
    <property name="spline">{
    "3500": [
        [
            [
                0.8056603773584905,
                1.1149253731343285
            ],
            [
                0.7410901467505241,
                1.1044776119402986
            ],
            [
                0.7368972746331237,
                1.0276119402985076
            ]
        ],
        [
            [
                0.7243186582809223,
                0.7970149253731345
            ],
            [
                0.720125786163522,
                0.7201492537313433
            ],
            [
                0.7113207547169811,
                0.6917910447761194
            ]
        ],
        [
            [
                0.6932914046121593,
                0.6253731343283582
            ],
            [
                0.6844863731656184,
                0.5970149253731343
            ],
            [
                0.6840670859538783,
                0.5492537313432836
            ]
        ],
        [
            [
                0.6849056603773584,
                0.383582089552239
            ],
            [
                0.6844863731656184,
                0.3358208955223881
            ],
            [
                0.6970649895178197,
                0.23134328358208955
            ]
        ],
        [
            [
                0.6832400804194886,
                0.15385915320901494
            ],
            [
                0.6933029735012496,
                0.10833676514931347
            ],
            [
                0.7029465793712705,
                0.05460542186573136
            ]
        ],
        [
            [
                0.7612159329140461,
                -0.060447761194029864
            ],
            [
                0.7830188679245284,
                -0.16044776119402987
            ],
            [
                0.8148846960167716,
                -0.15223880597014927
            ]
        ],
        [
            [
                0.910482180293501,
                -0.12761194029850745
            ],
            [
                0.9423480083857443,
                -0.11940298507462685
            ],
            [
                0.9628930817610063,
                -0.01716417910447761
            ]
        ],
        [
            [
                1.0245283018867923,
                0.28955223880597014
            ],
            [
                1.0450733752620545,
                0.3917910447761194
            ],
            [
                1.0488469601677148,
                0.5447761194029851
            ]
        ],
        [
            [
                1.060167714884696,
                1.0037313432835822
            ],
            [
                1.0639412997903563,
                1.1567164179104477
            ],
            [
                0.9993710691823899,
                1.1462686567164178
            ]
        ]
    ],
    "3514": [
        [
            [
                0.8056603773584905,
                1.1149253731343285
            ],
            [
                0.7410901467505241,
                1.1044776119402986
            ],
            [
                0.7368972746331237,
                1.0276119402985076
            ]
        ],
        [
            [
                0.7243186582809223,
                0.7970149253731345
            ],
            [
                0.720125786163522,
                0.7201492537313433
            ],
            [
                0.7113207547169811,
                0.6917910447761194
            ]
        ],
        [
            [
                0.6932914046121593,
                0.6253731343283582
            ],
            [
                0.6844863731656184,
                0.5970149253731343
            ],
            [
                0.6840670859538783,
                0.5492537313432836
            ]
        ],
        [
            [
                0.6849056603773584,
                0.383582089552239
            ],
            [
                0.6844863731656184,
                0.3358208955223881
            ],
            [
                0.6970649895178197,
                0.23134328358208955
            ]
        ],
        [
            [
                0.6828092243186583,
                0.1537313432835821
            ],
            [
                0.6928721174004193,
                0.1082089552238806
            ],
            [
                0.7025157232704403,
                0.05447761194029852
            ]
        ],
        [
            [
                0.7612159329140461,
                -0.060447761194029864
            ],
            [
                0.7830188679245284,
                -0.16044776119402987
            ],
            [
                0.8148846960167716,
                -0.15223880597014927
            ]
        ],
        [
            [
                0.910482180293501,
                -0.12761194029850745
            ],
            [
                0.9423480083857443,
                -0.11940298507462685
            ],
            [
                0.9628930817610063,
                -0.01716417910447761
            ]
        ],
        [
            [
                1.0245283018867923,
                0.28955223880597014
            ],
            [
                1.0450733752620545,
                0.3917910447761194
            ],
            [
                1.0488469601677148,
                0.5447761194029851
            ]
        ],
        [
            [
                1.060167714884696,
                1.0037313432835822
            ],
            [
                1.0639412997903563,
                1.1567164179104477
            ],
            [
                0.9993710691823899,
                1.1462686567164178
            ]
        ]
    ]
}
</property>
    <property name="kdenlive:collapsed">0</property>
   </filter>
  </entry>
  <blank length="00:00:07.300"/>
  <entry producer="producer237" in="00:02:07.333" out="00:03:22.033">
   <property name="kdenlive:id">39</property>
   <filter id="filter276">
    <property name="version">0.6</property>
    <property name="mlt_service">frei0r.select0r</property>
    <property name="kdenlive_id">frei0r.select0r</property>
    <property name="Color to select">0x3b9a48ff</property>
    <property name="Invert selection">1</property>
    <property name="Selection subspace">1</property>
    <property name="Subspace shape">0</property>
    <property name="Edge mode">0.9</property>
    <property name="Delta R / A / Hue">3820=0.031</property>
    <property name="Delta G / B / Chroma">3820=0.181</property>
    <property name="Delta B / I / I">3820=0.415</property>
    <property name="Slope">3820=0.126</property>
    <property name="Operation">0.5</property>
    <property name="kdenlive:collapsed">0</property>
   </filter>
   <filter id="filter277">
    <property name="mlt_service">avfilter.despill</property>
    <property name="kdenlive_id">avfilter.despill</property>
    <property name="av.type">green</property>
    <property name="av.mix">0.186</property>
    <property name="av.expand">0.043</property>
    <property name="av.red">0</property>
    <property name="av.green">-0.5</property>
    <property name="av.blue">0</property>
    <property name="av.brightness">0</property>
    <property name="kdenlive:collapsed">0</property>
   </filter>
   <filter id="filter278">
    <property name="rotate_center">1</property>
    <property name="mlt_service">qtblend</property>
    <property name="kdenlive_id">qtblend</property>
    <property name="rect">3820=1025 -355 1080 1920 1.000000</property>
    <property name="rotation">3820=0</property>
    <property name="compositing">0</property>
    <property name="distort">0</property>
    <property name="kdenlive:collapsed">0</property>
   </filter>
   <filter id="filter279" in="00:03:20.467" out="00:03:22.033">
    <property name="start">1</property>
    <property name="mlt_service">brightness</property>
    <property name="kdenlive_id">fade_to_black</property>
    <property name="end">0</property>
    <property name="alpha">-1</property>
    <property name="kdenlive:collapsed">0</property>
   </filter>
  </entry>
 </playlist>
 <playlist id="playlist29"/>
 <tractor id="tractor14" in="00:00:00.000" out="00:03:25.767">
  <property name="kdenlive:trackheight">69</property>
  <property name="kdenlive:timeline_active">1</property>
  <property name="kdenlive:collapsed">0</property>
  <property name="kdenlive:thumbs_format"/>
  <property name="kdenlive:audio_rec"/>
  <track hide="audio" producer="playlist28"/>
  <track producer="playlist29"/>
 </tractor>
 <producer id="producer242" in="00:00:00.000" out="00:00:21.300">
  <property name="length">640</property>
  <property name="eof">pause</property>
  <property name="resource">/home/ryankelln/.cache/kdenlive/proxy/6ada0294eac8e8ccd31a45c2565289e0.mkv</property>
  <property name="audio_index">1</property>
  <property name="video_index">0</property>
  <property name="mute_on_pause">0</property>
  <property name="mlt_service">avformat-novalidate</property>
  <property name="seekable">1</property>
  <property name="aspect_ratio">1</property>
  <property name="kdenlive:clipname">2021-02-06_Chris_piano_4k_jackson_P1180167-pickup.MP4</property>
  <property name="kdenlive:folderid">41</property>
  <property name="kdenlive:id">42</property>
  <property name="kdenlive:file_size">255742700</property>
  <property name="kdenlive:file_hash">6ada0294eac8e8ccd31a45c2565289e0</property>
  <property name="kdenlive:proxy">/home/ryankelln/.cache/kdenlive/proxy/6ada0294eac8e8ccd31a45c2565289e0.mkv</property>
  <property name="kdenlive:originalurl">content/musicians/2021-02-06_Chris_piano_4k_jackson_P1180167-pickup.MP4</property>
  <property name="kdenlive:original.mlt_type">producer</property>
  <property name="kdenlive:original.in">0</property>
  <property name="kdenlive:original.out">639</property>
  <property name="kdenlive:original.length">640</property>
  <property name="kdenlive:original.eof">pause</property>
  <property name="kdenlive:original.resource">content/musicians/2021-02-06_Chris_piano_4k_jackson_P1180167-pickup.MP4</property>
  <property name="kdenlive:original.meta.media.nb_streams">2</property>
  <property name="kdenlive:original.meta.media.0.stream.type">video</property>
  <property name="kdenlive:original.meta.media.0.stream.frame_rate">29.97</property>
  <property name="kdenlive:original.meta.media.0.stream.sample_aspect_ratio">1</property>
  <property name="kdenlive:original.meta.media.0.codec.width">3840</property>
  <property name="kdenlive:original.meta.media.0.codec.height">2160</property>
  <property name="kdenlive:original.meta.media.0.codec.rotate">0</property>
  <property name="kdenlive:original.meta.media.0.codec.frame_rate">29.97</property>
  <property name="kdenlive:original.meta.media.0.codec.pix_fmt">yuvj420p</property>
  <property name="kdenlive:original.meta.media.0.codec.sample_aspect_ratio">1</property>
  <property name="kdenlive:original.meta.media.0.codec.colorspace">709</property>
  <property name="kdenlive:original.meta.media.0.codec.color_trc">1</property>
  <property name="kdenlive:original.meta.media.0.codec.name">h264</property>
  <property name="kdenlive:original.meta.media.0.codec.long_name">H.264 / AVC / MPEG-4 AVC / MPEG-4 part 10</property>
  <property name="kdenlive:original.meta.media.0.codec.bit_rate">96123892</property>
  <property name="kdenlive:original.meta.attr.0.stream.creation_time.markup">2021-06-02T16:47:50.000000Z</property>
  <property name="kdenlive:original.meta.attr.0.stream.handler_name.markup">VideoHandler</property>
  <property name="kdenlive:original.meta.media.1.stream.type">audio</property>
  <property name="kdenlive:original.meta.media.1.codec.sample_fmt">fltp</property>
  <property name="kdenlive:original.meta.media.1.codec.sample_rate">48000</property>
  <property name="kdenlive:original.meta.media.1.codec.channels">2</property>
  <property name="kdenlive:original.meta.media.1.codec.name">aac</property>
  <property name="kdenlive:original.meta.media.1.codec.long_name">AAC (Advanced Audio Coding)</property>
  <property name="kdenlive:original.meta.media.1.codec.bit_rate">125375</property>
  <property name="kdenlive:original.meta.attr.1.stream.creation_time.markup">2021-06-02T16:47:50.000000Z</property>
  <property name="kdenlive:original.meta.attr.1.stream.handler_name.markup">SoundHandler</property>
  <property name="kdenlive:original.meta.attr.major_brand.markup">isom</property>
  <property name="kdenlive:original.meta.attr.minor_version.markup">512</property>
  <property name="kdenlive:original.meta.attr.compatible_brands.markup">isomiso2avc1mp41</property>
  <property name="kdenlive:original.meta.attr.creation_time.markup">2021-06-02T16:47:50.000000Z</property>
  <property name="kdenlive:original.meta.attr.encoder.markup">Lavf58.45.100</property>
  <property name="kdenlive:original.seekable">1</property>
  <property name="kdenlive:original.width">3840</property>
  <property name="kdenlive:original.height">2160</property>
  <property name="kdenlive:original.meta.media.sample_aspect_num">1</property>
  <property name="kdenlive:original.meta.media.sample_aspect_den">1</property>
  <property name="kdenlive:original.aspect_ratio">1</property>
  <property name="kdenlive:original.audio_index">1</property>
  <property name="kdenlive:original.video_index">0</property>
  <property name="kdenlive:original.mute_on_pause">0</property>
  <property name="kdenlive:original.mlt_service">avformat-novalidate</property>
  <property name="kdenlive:original.kdenlive:folderid">41</property>
  <property name="kdenlive:original.meta.media.frame_rate_num">30000</property>
  <property name="kdenlive:original.meta.media.frame_rate_den">1001</property>
  <property name="kdenlive:original.meta.media.colorspace">709</property>
  <property name="kdenlive:original.meta.media.color_trc">1</property>
  <property name="kdenlive:original.meta.media.width">3840</property>
  <property name="kdenlive:original.meta.media.height">2160</property>
  <property name="kdenlive:original.meta.media.color_range">full</property>
  <property name="kdenlive:original.kdenlive:id">57</property>
  <property name="kdenlive:original.kdenlive:file_size">255742700</property>
  <property name="kdenlive:original.kdenlive:file_hash">6ada0294eac8e8ccd31a45c2565289e0</property>
  <property name="kdenlive:original.backup">1</property>
  <property name="kdenlive:audio_max">2</property>
  <property name="global_feed">1</property>
  <property name="xml">was here</property>
  <property name="meta.media.nb_streams">2</property>
  <property name="meta.media.0.stream.type">video</property>
  <property name="meta.media.0.stream.frame_rate">29.97</property>
  <property name="meta.media.0.stream.sample_aspect_ratio">1</property>
  <property name="meta.media.0.codec.width">640</property>
  <property name="meta.media.0.codec.height">360</property>
  <property name="meta.media.0.codec.rotate">0</property>
  <property name="meta.media.0.codec.frame_rate">1000</property>
  <property name="meta.media.0.codec.pix_fmt">yuvj420p</property>
  <property name="meta.media.0.codec.sample_aspect_ratio">1</property>
  <property name="meta.media.0.codec.colorspace">601</property>
  <property name="meta.media.0.codec.name">mjpeg</property>
  <property name="meta.media.0.codec.long_name">MJPEG (Motion JPEG)</property>
  <property name="meta.media.0.codec.bit_rate">0</property>
  <property name="meta.attr.0.stream.HANDLER_NAME.markup">VideoHandler</property>
  <property name="meta.attr.0.stream.ENCODER.markup">Lavc58.91.100 mjpeg</property>
  <property name="meta.attr.0.stream.DURATION.markup">00:00:21.388000000</property>
  <property name="meta.media.1.stream.type">audio</property>
  <property name="meta.media.1.codec.sample_fmt">s16</property>
  <property name="meta.media.1.codec.sample_rate">48000</property>
  <property name="meta.media.1.codec.channels">2</property>
  <property name="meta.media.1.codec.name">pcm_s16le</property>
  <property name="meta.media.1.codec.long_name">PCM signed 16-bit little-endian</property>
  <property name="meta.media.1.codec.bit_rate">1536000</property>
  <property name="meta.attr.1.stream.HANDLER_NAME.markup">SoundHandler</property>
  <property name="meta.attr.1.stream.ENCODER.markup">Lavc58.91.100 pcm_s16le</property>
  <property name="meta.attr.1.stream.DURATION.markup">00:00:21.333000000</property>
  <property name="meta.attr.COMPATIBLE_BRANDS.markup">isomiso2avc1mp41</property>
  <property name="meta.attr.MAJOR_BRAND.markup">isom</property>
  <property name="meta.attr.MINOR_VERSION.markup">512</property>
  <property name="meta.attr.ENCODER.markup">Lavf58.45.100</property>
  <property name="meta.media.sample_aspect_num">1</property>
  <property name="meta.media.sample_aspect_den">1</property>
  <property name="meta.media.frame_rate_num">30000</property>
  <property name="meta.media.frame_rate_den">1001</property>
  <property name="meta.media.colorspace">601</property>
  <property name="meta.media.color_trc">2</property>
  <property name="meta.media.width">640</property>
  <property name="meta.media.height">360</property>
  <property name="meta.media.color_range">full</property>
  <property name="meta.media.top_field_first">0</property>
  <property name="meta.media.progressive">1</property>
  <property name="set.test_audio">1</property>
  <property name="set.test_image">1</property>
 </producer>
 <producer id="producer243" in="00:00:00.000" out="00:04:09.133">
  <property name="length">7475</property>
  <property name="eof">pause</property>
  <property name="resource">content/musicians/2021-02-06_Caleb+Chris_upright+piano+handheld_jackson_MVI_6038-take3_full.mkv</property>
  <property name="audio_index">1</property>
  <property name="video_index">0</property>
  <property name="mute_on_pause">0</property>
  <property name="mlt_service">avformat-novalidate</property>
  <property name="seekable">1</property>
  <property name="aspect_ratio">1</property>
  <property name="kdenlive:clipname"/>
  <property name="kdenlive:folderid">41</property>
  <property name="kdenlive:id">35</property>
  <property name="kdenlive:file_size">992524048</property>
  <property name="kdenlive:file_hash">92f1b50c08810b01da341e5a2f3b0c6c</property>
  <property name="kdenlive:audio_max">1</property>
  <property name="global_feed">1</property>
  <property name="xml">was here</property>
  <property name="meta.media.nb_streams">2</property>
  <property name="meta.media.0.stream.type">video</property>
  <property name="meta.media.0.stream.frame_rate">29.97</property>
  <property name="meta.media.0.stream.sample_aspect_ratio">0</property>
  <property name="meta.media.0.codec.width">1280</property>
  <property name="meta.media.0.codec.height">720</property>
  <property name="meta.media.0.codec.rotate">0</property>
  <property name="meta.media.0.codec.frame_rate">1000</property>
  <property name="meta.media.0.codec.pix_fmt">yuvj420p</property>
  <property name="meta.media.0.codec.sample_aspect_ratio">0</property>
  <property name="meta.media.0.codec.colorspace">601</property>
  <property name="meta.media.0.codec.color_trc">1</property>
  <property name="meta.media.0.codec.name">h264</property>
  <property name="meta.media.0.codec.long_name">H.264 / AVC / MPEG-4 AVC / MPEG-4 part 10</property>
  <property name="meta.media.0.codec.bit_rate">0</property>
  <property name="meta.attr.0.stream.language.markup">eng</property>
  <property name="meta.attr.0.stream.DURATION.markup">00:04:09.181000000</property>
  <property name="meta.media.1.stream.type">audio</property>
  <property name="meta.media.1.codec.sample_fmt">s16</property>
  <property name="meta.media.1.codec.sample_rate">48000</property>
  <property name="meta.media.1.codec.channels">1</property>
  <property name="meta.media.1.codec.name">pcm_s16le</property>
  <property name="meta.media.1.codec.long_name">PCM signed 16-bit little-endian</property>
  <property name="meta.media.1.codec.bit_rate">768000</property>
  <property name="meta.attr.1.stream.language.markup">eng</property>
  <property name="meta.attr.1.stream.DURATION.markup">00:04:09.165000000</property>
  <property name="meta.attr.COMPATIBLE_BRANDS.markup">qt  CAEP</property>
  <property name="meta.attr.creation_time.markup">2021-06-02T13:56:08.000000Z</property>
  <property name="meta.attr.MAJOR_BRAND.markup">qt  </property>
  <property name="meta.attr.MINOR_VERSION.markup">537331968</property>
  <property name="meta.attr.ENCODER.markup">Lavf58.45.100</property>
  <property name="meta.media.sample_aspect_num">1</property>
  <property name="meta.media.sample_aspect_den">1</property>
  <property name="meta.media.frame_rate_num">30000</property>
  <property name="meta.media.frame_rate_den">1001</property>
  <property name="meta.media.colorspace">601</property>
  <property name="meta.media.color_trc">1</property>
  <property name="meta.media.width">1280</property>
  <property name="meta.media.height">720</property>
  <property name="meta.media.color_range">full</property>
  <property name="meta.media.top_field_first">0</property>
  <property name="meta.media.progressive">1</property>
  <property name="set.test_audio">1</property>
  <property name="set.test_image">0</property>
 </producer>
 <playlist id="playlist30">
  <blank length="00:01:20.033"/>
  <entry producer="producer242" in="00:00:00.000" out="00:00:18.400">
   <property name="kdenlive:id">42</property>
  </entry>
  <blank length="00:00:31.700"/>
  <entry producer="producer243" in="00:02:05.633" out="00:03:21.233">
   <property name="kdenlive:id">35</property>
   <filter id="filter280">
    <property name="version">0.6</property>
    <property name="mlt_service">frei0r.select0r</property>
    <property name="kdenlive_id">frei0r.select0r</property>
    <property name="Color to select">0x2f985dff</property>
    <property name="Invert selection">1</property>
    <property name="Selection subspace">1</property>
    <property name="Subspace shape">0</property>
    <property name="Edge mode">0.9</property>
    <property name="Delta R / A / Hue">00:02:05.633=0.075</property>
    <property name="Delta G / B / Chroma">00:02:05.633=0.24</property>
    <property name="Delta B / I / I">00:02:05.633=0.26</property>
    <property name="Slope">00:02:05.633=0.1</property>
    <property name="Operation">0.5</property>
    <property name="kdenlive:collapsed">0</property>
   </filter>
   <filter id="filter281">
    <property name="mlt_service">avfilter.despill</property>
    <property name="kdenlive_id">avfilter.despill</property>
    <property name="av.type">green</property>
    <property name="av.mix">0.390244</property>
    <property name="av.expand">0.063</property>
    <property name="av.red">0</property>
    <property name="av.green">-1</property>
    <property name="av.blue">-0.4</property>
    <property name="av.brightness">0</property>
    <property name="kdenlive:collapsed">0</property>
   </filter>
  </entry>
 </playlist>
 <playlist id="playlist31"/>
 <tractor id="tractor15" in="00:00:00.000" out="00:03:25.767">
  <property name="kdenlive:trackheight">69</property>
  <property name="kdenlive:timeline_active">1</property>
  <property name="kdenlive:collapsed">0</property>
  <property name="kdenlive:thumbs_format"/>
  <property name="kdenlive:audio_rec"/>
  <track hide="both" producer="playlist30"/>
  <track producer="playlist31"/>
 </tractor>
 <tractor id="tractor16" global_feed="1" in="00:00:00.000" out="00:31:34.000">
  <track producer="black_track"/>
  <track producer="tractor0"/>
  <track producer="tractor1"/>
  <track producer="tractor2"/>
  <track producer="tractor3"/>
  <track producer="tractor4"/>
  <track producer="tractor5"/>
  <track producer="tractor6"/>
  <track producer="tractor7"/>
  <track producer="tractor8"/>
  <track producer="tractor9"/>
  <track producer="tractor10"/>
  <track producer="tractor11"/>
  <track producer="tractor12"/>
  <track producer="tractor13"/>
  <track producer="tractor14"/>
  <track producer="tractor15"/>
  <transition id="transition0">
   <property name="a_track">0</property>
   <property name="b_track">1</property>
   <property name="mlt_service">mix</property>
   <property name="kdenlive_id">mix</property>
   <property name="internal_added">237</property>
   <property name="always_active">1</property>
   <property name="accepts_blanks">1</property>
   <property name="sum">1</property>
  </transition>
  <transition id="transition1">
   <property name="a_track">0</property>
   <property name="b_track">2</property>
   <property name="mlt_service">mix</property>
   <property name="kdenlive_id">mix</property>
   <property name="internal_added">237</property>
   <property name="always_active">1</property>
   <property name="accepts_blanks">1</property>
   <property name="sum">1</property>
  </transition>
  <transition id="transition2" in="00:04:32.600" out="00:04:47.633">
   <property name="a_track">12</property>
   <property name="b_track">13</property>
   <property name="version">0.9</property>
   <property name="mlt_service">frei0r.cairoblend</property>
   <property name="kdenlive_id">frei0r.cairoblend</property>
   <property name="force_track">1</property>
   <property name="0">00:00:00.000=0.19;00:00:00.167=1;00:00:06.100=1;00:00:07.067=0.12;00:00:07.133|=1;00:00:07.267|=0.1;00:00:07.367|=1;00:00:07.400=1;00:00:07.433|=0.24;00:00:07.467=1;00:00:07.633|=0.25;00:00:08.867=1;00:00:09.200|=0.24;00:00:09.633=0.6;00:00:09.667=1;00:00:09.967|=0.27;00:00:10.867=1;00:00:11.100|=0.32;00:00:12.067=1;00:00:12.333|=0.23;00:00:12.667=1;00:00:13.000=0.47;00:00:13.033=1;00:00:13.267=0.51;00:00:13.300=1;00:00:14.067=0.27;00:00:14.100=1;00:00:14.433=0.37;00:00:14.467=1;00:00:14.533=0.55;00:00:14.567=1;00:00:15.033=0.43</property>
   <property name="1">lighten</property>
  </transition>
  <transition id="transition3" in="00:00:26.367" out="00:00:26.500">
   <property name="a_track">8</property>
   <property name="b_track">10</property>
   <property name="start">0/0:100%x100%</property>
   <property name="factory">loader</property>
   <property name="aligned">0</property>
   <property name="progressive">1</property>
   <property name="mlt_service">composite</property>
   <property name="kdenlive_id">wipe</property>
   <property name="force_track">1</property>
   <property name="softness">0</property>
   <property name="luma"/>
   <property name="luma_invert">0</property>
   <property name="geometry">0%/0%:100%x100%:0;-1=0%/0%:100%x100%:100</property>
   <property name="fill">1</property>
  </transition>
  <transition id="transition4" in="00:04:10.900" out="00:04:13.200">
   <property name="a_track">8</property>
   <property name="b_track">10</property>
   <property name="version">0.9</property>
   <property name="mlt_service">frei0r.cairoblend</property>
   <property name="kdenlive_id">frei0r.cairoblend</property>
   <property name="force_track">1</property>
   <property name="0">00:00:00.000=0.54;00:00:01.233=0.54;00:00:01.467=0.31</property>
   <property name="1">colordodge</property>
  </transition>
  <transition id="transition5" in="00:04:02.267" out="00:04:04.233">
   <property name="a_track">8</property>
   <property name="b_track">10</property>
   <property name="version">0.9</property>
   <property name="mlt_service">frei0r.cairoblend</property>
   <property name="kdenlive_id">frei0r.cairoblend</property>
   <property name="force_track">1</property>
   <property name="0">00:00:00.000=0.82</property>
   <property name="1">colordodge</property>
  </transition>
  <transition id="transition6" in="00:04:10.900" out="00:04:13.200">
   <property name="a_track">8</property>
   <property name="b_track">11</property>
   <property name="version">0.9</property>
   <property name="mlt_service">frei0r.cairoblend</property>
   <property name="kdenlive_id">frei0r.cairoblend</property>
   <property name="force_track">1</property>
   <property name="0">00:00:00.000=0.54;00:00:01.233=0.54;00:00:01.467=0.31</property>
   <property name="1">colordodge</property>
  </transition>
  <transition id="transition7" in="00:04:10.567" out="00:04:11.367">
   <property name="a_track">7</property>
   <property name="b_track">8</property>
   <property name="start">0/0:100%x100%</property>
   <property name="factory">loader</property>
   <property name="aligned">0</property>
   <property name="progressive">1</property>
   <property name="mlt_service">composite</property>
   <property name="kdenlive_id">wipe</property>
   <property name="softness">0</property>
   <property name="luma"/>
   <property name="luma_invert">0</property>
   <property name="geometry">0%/0%:100%x100%:0;-1=0%/0%:100%x100%:100</property>
   <property name="fill">1</property>
  </transition>
  <transition id="transition8" in="00:04:08.367" out="00:04:08.933">
   <property name="a_track">7</property>
   <property name="b_track">8</property>
   <property name="start">0/0:100%x100%</property>
   <property name="factory">loader</property>
   <property name="aligned">0</property>
   <property name="progressive">1</property>
   <property name="mlt_service">composite</property>
   <property name="kdenlive_id">wipe</property>
   <property name="softness">0</property>
   <property name="luma"/>
   <property name="luma_invert">0</property>
   <property name="geometry">0%/0%:100%x100%:100;-1=0%/0%:100%x100%:0</property>
   <property name="fill">1</property>
  </transition>
  <transition id="transition9" in="00:04:01.600" out="00:04:01.900">
   <property name="a_track">7</property>
   <property name="b_track">8</property>
   <property name="start">0/0:100%x100%</property>
   <property name="factory">loader</property>
   <property name="aligned">0</property>
   <property name="progressive">1</property>
   <property name="mlt_service">composite</property>
   <property name="kdenlive_id">wipe</property>
   <property name="softness">0</property>
   <property name="luma"/>
   <property name="luma_invert">0</property>
   <property name="geometry">0%/0%:100%x100%:0;-1=0%/0%:100%x100%:100</property>
   <property name="fill">1</property>
  </transition>
  <transition id="transition10" in="00:04:06.300" out="00:04:06.767">
   <property name="a_track">7</property>
   <property name="b_track">8</property>
   <property name="start">0/0:100%x100%</property>
   <property name="factory">loader</property>
   <property name="aligned">0</property>
   <property name="progressive">1</property>
   <property name="mlt_service">composite</property>
   <property name="kdenlive_id">wipe</property>
   <property name="softness">0</property>
   <property name="luma"/>
   <property name="luma_invert">0</property>
   <property name="geometry">0%/0%:100%x100%:0;-1=0%/0%:100%x100%:100</property>
   <property name="fill">1</property>
  </transition>
  <transition id="transition11" in="00:04:04.033" out="00:04:04.600">
   <property name="a_track">7</property>
   <property name="b_track">8</property>
   <property name="start">0/0:100%x100%</property>
   <property name="factory">loader</property>
   <property name="aligned">0</property>
   <property name="progressive">1</property>
   <property name="mlt_service">composite</property>
   <property name="kdenlive_id">wipe</property>
   <property name="softness">0</property>
   <property name="luma"/>
   <property name="luma_invert">0</property>
   <property name="geometry">0%/0%:100%x100%:100;-1=0%/0%:100%x100%:0</property>
   <property name="fill">1</property>
  </transition>
  <transition id="transition12" in="00:03:56.500" out="00:03:56.667">
   <property name="a_track">6</property>
   <property name="b_track">7</property>
   <property name="start">0/0:100%x100%</property>
   <property name="factory">loader</property>
   <property name="aligned">0</property>
   <property name="progressive">1</property>
   <property name="mlt_service">composite</property>
   <property name="kdenlive_id">wipe</property>
   <property name="softness">0</property>
   <property name="luma"/>
   <property name="luma_invert">0</property>
   <property name="geometry">0%/0%:100%x100%:100;-1=0%/0%:100%x100%:0</property>
   <property name="fill">1</property>
  </transition>
  <transition id="transition13" in="00:04:18.967" out="00:04:19.200">
   <property name="a_track">6</property>
   <property name="b_track">7</property>
   <property name="start">0/0:100%x100%</property>
   <property name="factory">loader</property>
   <property name="aligned">0</property>
   <property name="progressive">1</property>
   <property name="mlt_service">composite</property>
   <property name="kdenlive_id">wipe</property>
   <property name="softness">0</property>
   <property name="luma"/>
   <property name="luma_invert">0</property>
   <property name="geometry">0%/0%:100%x100%:100;-1=0%/0%:100%x100%:0</property>
   <property name="fill">1</property>
  </transition>
  <transition id="transition14" in="00:07:56.933" out="00:07:57.533">
   <property name="a_track">6</property>
   <property name="b_track">7</property>
   <property name="start">0/0:100%x100%</property>
   <property name="factory">loader</property>
   <property name="aligned">0</property>
   <property name="progressive">1</property>
   <property name="mlt_service">composite</property>
   <property name="kdenlive_id">wipe</property>
   <property name="softness">0</property>
   <property name="luma"/>
   <property name="luma_invert">0</property>
   <property name="geometry">0%/0%:100%x100%:0;-1=0%/0%:100%x100%:100</property>
   <property name="fill">1</property>
  </transition>
  <transition id="transition15" in="00:13:18.067" out="00:13:19.200">
   <property name="a_track">6</property>
   <property name="b_track">7</property>
   <property name="start">0/0:100%x100%</property>
   <property name="factory">loader</property>
   <property name="aligned">0</property>
   <property name="progressive">1</property>
   <property name="mlt_service">composite</property>
   <property name="kdenlive_id">wipe</property>
   <property name="softness">0</property>
   <property name="luma"/>
   <property name="luma_invert">0</property>
   <property name="geometry">0%/0%:100%x100%:100;-1=0%/0%:100%x100%:0</property>
   <property name="fill">1</property>
  </transition>
  <transition id="transition16" in="00:03:58.900" out="00:03:59.200">
   <property name="a_track">6</property>
   <property name="b_track">7</property>
   <property name="start">0/0:100%x100%</property>
   <property name="factory">loader</property>
   <property name="aligned">0</property>
   <property name="progressive">1</property>
   <property name="mlt_service">composite</property>
   <property name="kdenlive_id">wipe</property>
   <property name="softness">0</property>
   <property name="luma"/>
   <property name="luma_invert">0</property>
   <property name="geometry">0%/0%:100%x100%:0;-1=0%/0%:100%x100%:100</property>
   <property name="fill">1</property>
  </transition>
  <transition id="transition17" in="00:13:14.533" out="00:13:18.000">
   <property name="a_track">6</property>
   <property name="b_track">7</property>
   <property name="start">0/0:100%x100%</property>
   <property name="factory">loader</property>
   <property name="aligned">0</property>
   <property name="progressive">1</property>
   <property name="mlt_service">composite</property>
   <property name="kdenlive_id">wipe</property>
   <property name="softness">0</property>
   <property name="luma"/>
   <property name="luma_invert">0</property>
   <property name="geometry">0%/0%:100%x100%:0;-1=0%/0%:100%x100%:100</property>
   <property name="fill">1</property>
  </transition>
  <transition id="transition18" in="00:04:16.733" out="00:04:16.967">
   <property name="a_track">6</property>
   <property name="b_track">7</property>
   <property name="start">0/0:100%x100%</property>
   <property name="factory">loader</property>
   <property name="aligned">0</property>
   <property name="progressive">1</property>
   <property name="mlt_service">composite</property>
   <property name="kdenlive_id">wipe</property>
   <property name="softness">0</property>
   <property name="luma"/>
   <property name="luma_invert">0</property>
   <property name="geometry">0%/0%:100%x100%:0;-1=0%/0%:100%x100%:100</property>
   <property name="fill">1</property>
  </transition>
  <transition id="transition19" in="00:03:35.500" out="00:03:35.933">
   <property name="a_track">6</property>
   <property name="b_track">7</property>
   <property name="start">0/0:100%x100%</property>
   <property name="factory">loader</property>
   <property name="aligned">0</property>
   <property name="progressive">1</property>
   <property name="mlt_service">composite</property>
   <property name="kdenlive_id">wipe</property>
   <property name="softness">0</property>
   <property name="luma"/>
   <property name="luma_invert">0</property>
   <property name="geometry">0%/0%:100%x100%:100;-1=0%/0%:100%x100%:0</property>
   <property name="fill">1</property>
   <property name="force_track">1</property>
  </transition>
  <transition id="transition20" in="00:03:35.500" out="00:03:35.933">
   <property name="a_track">6</property>
   <property name="b_track">8</property>
   <property name="start">0/0:100%x100%</property>
   <property name="factory">loader</property>
   <property name="aligned">0</property>
   <property name="progressive">1</property>
   <property name="mlt_service">composite</property>
   <property name="kdenlive_id">wipe</property>
   <property name="softness">0</property>
   <property name="luma"/>
   <property name="luma_invert">0</property>
   <property name="geometry">0%/0%:100%x100%:100;-1=0%/0%:100%x100%:0</property>
   <property name="fill">1</property>
   <property name="force_track">1</property>
  </transition>
  <transition id="transition21" in="00:04:12.900" out="00:04:13.567">
   <property name="a_track">6</property>
   <property name="b_track">8</property>
   <property name="start">0/0:100%x100%</property>
   <property name="factory">loader</property>
   <property name="aligned">0</property>
   <property name="progressive">1</property>
   <property name="mlt_service">composite</property>
   <property name="kdenlive_id">wipe</property>
   <property name="force_track">1</property>
   <property name="softness">0</property>
   <property name="luma"/>
   <property name="luma_invert">0</property>
   <property name="geometry">0%/0%:100%x100%:100;-1=0%/0%:100%x100%:0</property>
   <property name="fill">1</property>
  </transition>
  <transition id="transition22" in="00:03:40.767" out="00:03:42.800">
   <property name="a_track">6</property>
   <property name="b_track">10</property>
   <property name="version">0.9</property>
   <property name="mlt_service">frei0r.cairoblend</property>
   <property name="kdenlive_id">frei0r.cairoblend</property>
   <property name="0">00:00:00.000=0.64</property>
   <property name="1">colordodge</property>
   <property name="force_track">1</property>
  </transition>
  <transition id="transition23" in="00:04:20.267" out="00:04:20.667">
   <property name="a_track">5</property>
   <property name="b_track">6</property>
   <property name="start">0/0:100%x100%</property>
   <property name="factory">loader</property>
   <property name="aligned">0</property>
   <property name="progressive">1</property>
   <property name="mlt_service">composite</property>
   <property name="kdenlive_id">wipe</property>
   <property name="softness">0</property>
   <property name="luma"/>
   <property name="luma_invert">0</property>
   <property name="geometry">0%/0%:100%x100%:100;-1=0%/0%:100%x100%:0</property>
   <property name="fill">1</property>
  </transition>
  <transition id="transition24" in="00:03:42.767" out="00:03:43.200">
   <property name="a_track">5</property>
   <property name="b_track">6</property>
   <property name="start">0/0:100%x100%</property>
   <property name="factory">loader</property>
   <property name="aligned">0</property>
   <property name="progressive">1</property>
   <property name="mlt_service">composite</property>
   <property name="kdenlive_id">wipe</property>
   <property name="softness">0</property>
   <property name="luma"/>
   <property name="luma_invert">0</property>
   <property name="geometry">0%/0%:100%x100%:100;-1=0%/0%:100%x100%:0</property>
   <property name="fill">1</property>
  </transition>
  <transition id="transition25" in="00:03:47.900" out="00:03:48.367">
   <property name="a_track">4</property>
   <property name="b_track">5</property>
   <property name="start">0/0:100%x100%</property>
   <property name="factory">loader</property>
   <property name="aligned">0</property>
   <property name="progressive">1</property>
   <property name="mlt_service">composite</property>
   <property name="kdenlive_id">wipe</property>
   <property name="softness">0</property>
   <property name="luma"/>
   <property name="luma_invert">0</property>
   <property name="geometry">0%/0%:100%x100%:0;-1=0%/0%:100%x100%:100</property>
   <property name="fill">1</property>
  </transition>
  <transition id="transition26" in="00:01:03.367" out="00:01:03.567">
   <property name="a_track">4</property>
   <property name="b_track">5</property>
   <property name="start">0/0:100%x100%</property>
   <property name="factory">loader</property>
   <property name="aligned">0</property>
   <property name="progressive">1</property>
   <property name="mlt_service">composite</property>
   <property name="kdenlive_id">wipe</property>
   <property name="softness">0</property>
   <property name="luma"/>
   <property name="luma_invert">0</property>
   <property name="geometry">0%/0%:100%x100%:100;-1=0%/0%:100%x100%:0</property>
   <property name="fill">1</property>
  </transition>
  <transition id="transition27" in="00:07:31.133" out="00:07:57.533">
   <property name="a_track">4</property>
   <property name="b_track">5</property>
   <property name="rect">00:00:00.000=0 0 1920 1080 1</property>
   <property name="compositing">13</property>
   <property name="distort">0</property>
   <property name="rotate_center">1</property>
   <property name="mlt_service">qtblend</property>
   <property name="kdenlive_id">qtblend</property>
   <property name="rotation">00:00:00.000=0</property>
  </transition>
  <transition id="transition28" in="00:09:42.933" out="00:10:15.333">
   <property name="a_track">4</property>
   <property name="b_track">5</property>
   <property name="rect">00:00:00.000=0 0 1920 1080 1</property>
   <property name="compositing">13</property>
   <property name="distort">0</property>
   <property name="rotate_center">1</property>
   <property name="mlt_service">qtblend</property>
   <property name="kdenlive_id">qtblend</property>
   <property name="force_track">1</property>
   <property name="rotation">00:00:00.000=0</property>
  </transition>
  <transition id="transition29" in="00:13:13.333" out="00:13:16.000">
   <property name="a_track">4</property>
   <property name="b_track">5</property>
   <property name="start">0/0:100%x100%</property>
   <property name="factory">loader</property>
   <property name="aligned">0</property>
   <property name="progressive">1</property>
   <property name="mlt_service">composite</property>
   <property name="kdenlive_id">wipe</property>
   <property name="softness">0</property>
   <property name="luma"/>
   <property name="luma_invert">0</property>
   <property name="geometry">0%/0%:100%x100%:0;-1=0%/0%:100%x100%:100</property>
   <property name="fill">1</property>
  </transition>
  <transition id="transition30" in="00:12:40.267" out="00:13:02.333">
   <property name="a_track">4</property>
   <property name="b_track">5</property>
   <property name="rect">00:00:00.000=0 0 1920 1080 1</property>
   <property name="compositing">18</property>
   <property name="distort">0</property>
   <property name="rotate_center">1</property>
   <property name="mlt_service">qtblend</property>
   <property name="kdenlive_id">qtblend</property>
   <property name="rotation">00:00:00.000=0</property>
  </transition>
  <transition id="transition31" in="00:10:15.400" out="00:10:44.533">
   <property name="a_track">4</property>
   <property name="b_track">5</property>
   <property name="rect">00:00:00.000=0 0 1920 1080 1</property>
   <property name="compositing">18</property>
   <property name="distort">0</property>
   <property name="rotate_center">1</property>
   <property name="mlt_service">qtblend</property>
   <property name="kdenlive_id">qtblend</property>
   <property name="rotation">00:00:00.000=0</property>
  </transition>
  <transition id="transition32" in="00:13:46.000" out="00:14:04.267">
   <property name="a_track">4</property>
   <property name="b_track">5</property>
   <property name="rect">00:00:00.000=0 0 1920 1080 1</property>
   <property name="compositing">14</property>
   <property name="distort">0</property>
   <property name="rotate_center">1</property>
   <property name="mlt_service">qtblend</property>
   <property name="kdenlive_id">qtblend</property>
   <property name="rotation">00:00:00.000=0</property>
  </transition>
  <transition id="transition33" in="00:00:18.333" out="00:00:23.533">
   <property name="a_track">4</property>
   <property name="b_track">5</property>
   <property name="version">0.9</property>
   <property name="mlt_service">frei0r.cairoblend</property>
   <property name="kdenlive_id">frei0r.cairoblend</property>
   <property name="force_track">1</property>
   <property name="0">00:00:00.000=100</property>
   <property name="1">overlay</property>
  </transition>
  <transition id="transition34" in="00:00:12.667" out="00:00:18.300">
   <property name="a_track">4</property>
   <property name="b_track">5</property>
   <property name="version">0.9</property>
   <property name="mlt_service">frei0r.cairoblend</property>
   <property name="kdenlive_id">frei0r.cairoblend</property>
   <property name="0">00:00:00.000=100</property>
   <property name="1">overlay</property>
  </transition>
  <transition id="transition35" in="00:00:23.567" out="00:00:27.200">
   <property name="a_track">4</property>
   <property name="b_track">5</property>
   <property name="version">0.9</property>
   <property name="mlt_service">frei0r.cairoblend</property>
   <property name="kdenlive_id">frei0r.cairoblend</property>
   <property name="force_track">1</property>
   <property name="0">00:00:00.000=100</property>
   <property name="1">overlay</property>
  </transition>
  <transition id="transition36" in="00:13:11.733" out="00:13:13.267">
   <property name="a_track">4</property>
   <property name="b_track">5</property>
   <property name="start">0/0:100%x100%</property>
   <property name="factory">loader</property>
   <property name="aligned">0</property>
   <property name="progressive">1</property>
   <property name="mlt_service">composite</property>
   <property name="kdenlive_id">wipe</property>
   <property name="softness">0</property>
   <property name="luma"/>
   <property name="luma_invert">0</property>
   <property name="geometry">0%/0%:100%x100%:100;-1=0%/0%:100%x100%:0</property>
   <property name="fill">1</property>
  </transition>
  <transition id="transition37" in="00:08:16.733" out="00:09:06.267">
   <property name="a_track">4</property>
   <property name="b_track">5</property>
   <property name="rect">00:00:00.000=0 0 1920 1080 1</property>
   <property name="compositing">16</property>
   <property name="distort">0</property>
   <property name="rotate_center">1</property>
   <property name="mlt_service">qtblend</property>
   <property name="kdenlive_id">qtblend</property>
   <property name="force_track">1</property>
   <property name="rotation">00:00:00.000=0</property>
  </transition>
  <transition id="transition38" in="00:01:01.633" out="00:01:01.800">
   <property name="a_track">4</property>
   <property name="b_track">5</property>
   <property name="start">0/0:100%x100%</property>
   <property name="factory">loader</property>
   <property name="aligned">0</property>
   <property name="progressive">1</property>
   <property name="mlt_service">composite</property>
   <property name="kdenlive_id">wipe</property>
   <property name="softness">0</property>
   <property name="luma"/>
   <property name="luma_invert">0</property>
   <property name="geometry">0%/0%:100%x100%:0;-1=0%/0%:100%x100%:100</property>
   <property name="fill">1</property>
  </transition>
  <transition id="transition39" in="00:13:22.800" out="00:13:37.000">
   <property name="a_track">4</property>
   <property name="b_track">5</property>
   <property name="rect">00:00:00.000=0 0 1920 1080 1</property>
   <property name="compositing">13</property>
   <property name="distort">0</property>
   <property name="rotate_center">1</property>
   <property name="mlt_service">qtblend</property>
   <property name="kdenlive_id">qtblend</property>
   <property name="rotation">00:00:00.000=0</property>
  </transition>
  <transition id="transition40" in="00:13:16.067" out="00:13:18.000">
   <property name="a_track">4</property>
   <property name="b_track">5</property>
   <property name="start">0/0:100%x100%</property>
   <property name="factory">loader</property>
   <property name="aligned">0</property>
   <property name="progressive">1</property>
   <property name="mlt_service">composite</property>
   <property name="kdenlive_id">wipe</property>
   <property name="softness">0</property>
   <property name="luma"/>
   <property name="luma_invert">0</property>
   <property name="geometry">0%/0%:100%x100%:100;-1=0%/0%:100%x100%:0</property>
   <property name="fill">1</property>
  </transition>
  <transition id="transition41" in="00:09:10.800" out="00:09:42.867">
   <property name="a_track">4</property>
   <property name="b_track">5</property>
   <property name="rect">00:00:00.000=0 0 1920 1080 1</property>
   <property name="compositing">16</property>
   <property name="distort">0</property>
   <property name="rotate_center">1</property>
   <property name="mlt_service">qtblend</property>
   <property name="kdenlive_id">qtblend</property>
   <property name="force_track">1</property>
   <property name="rotation">00:00:00.000=0</property>
  </transition>
  <transition id="transition42" in="00:03:45.367" out="00:03:45.767">
   <property name="a_track">4</property>
   <property name="b_track">5</property>
   <property name="start">0/0:100%x100%</property>
   <property name="factory">loader</property>
   <property name="aligned">0</property>
   <property name="progressive">1</property>
   <property name="mlt_service">composite</property>
   <property name="kdenlive_id">wipe</property>
   <property name="softness">0</property>
   <property name="luma"/>
   <property name="luma_invert">0</property>
   <property name="geometry">0%/0%:100%x100%:100;-1=0%/0%:100%x100%:0</property>
   <property name="fill">1</property>
  </transition>
  <transition id="transition43" in="00:13:18.067" out="00:13:20.733">
   <property name="a_track">4</property>
   <property name="b_track">5</property>
   <property name="start">0/0:100%x100%</property>
   <property name="factory">loader</property>
   <property name="aligned">0</property>
   <property name="progressive">1</property>
   <property name="mlt_service">composite</property>
   <property name="kdenlive_id">wipe</property>
   <property name="softness">0</property>
   <property name="luma"/>
   <property name="luma_invert">0</property>
   <property name="geometry">0%/0%:100%x100%:0;-1=0%/0%:100%x100%:100</property>
   <property name="fill">1</property>
  </transition>
  <transition id="transition44" in="00:14:04.333" out="00:14:12.933">
   <property name="a_track">4</property>
   <property name="b_track">5</property>
   <property name="rect">00:00:00.000=0 0 1920 1080 1</property>
   <property name="compositing">13</property>
   <property name="distort">0</property>
   <property name="rotate_center">1</property>
   <property name="mlt_service">qtblend</property>
   <property name="kdenlive_id">qtblend</property>
   <property name="rotation">00:00:00.000=0</property>
  </transition>
  <transition id="transition45" in="00:14:13.000" out="00:14:37.267">
   <property name="a_track">4</property>
   <property name="b_track">5</property>
   <property name="rect">00:00:00.000=0 0 1920 1080 1</property>
   <property name="compositing">13</property>
   <property name="distort">0</property>
   <property name="rotate_center">1</property>
   <property name="mlt_service">qtblend</property>
   <property name="kdenlive_id">qtblend</property>
   <property name="rotation">00:00:00.000=0</property>
  </transition>
  <transition id="transition46" in="00:14:37.333" out="00:14:54.467">
   <property name="a_track">4</property>
   <property name="b_track">5</property>
   <property name="rect">00:00:00.000=0 0 1920 1080 1</property>
   <property name="compositing">14</property>
   <property name="distort">0</property>
   <property name="rotate_center">1</property>
   <property name="mlt_service">qtblend</property>
   <property name="kdenlive_id">qtblend</property>
   <property name="rotation">00:00:00.000=0</property>
  </transition>
  <transition id="transition47" in="00:12:26.800" out="00:12:40.200">
   <property name="a_track">4</property>
   <property name="b_track">5</property>
   <property name="rect">00:00:00.000=0 0 1920 1080 1</property>
   <property name="compositing">13</property>
   <property name="distort">0</property>
   <property name="rotate_center">1</property>
   <property name="mlt_service">qtblend</property>
   <property name="kdenlive_id">qtblend</property>
   <property name="rotation">00:00:00.000=0</property>
  </transition>
  <transition id="transition48" in="00:00:18.333" out="00:00:23.533">
   <property name="a_track">4</property>
   <property name="b_track">6</property>
   <property name="version">0.9</property>
   <property name="mlt_service">frei0r.cairoblend</property>
   <property name="kdenlive_id">frei0r.cairoblend</property>
   <property name="force_track">1</property>
   <property name="0">00:00:00.000=100</property>
   <property name="1">darken</property>
  </transition>
  <transition id="transition49" in="00:00:23.567" out="00:00:27.200">
   <property name="a_track">4</property>
   <property name="b_track">6</property>
   <property name="version">0.9</property>
   <property name="mlt_service">frei0r.cairoblend</property>
   <property name="kdenlive_id">frei0r.cairoblend</property>
   <property name="force_track">1</property>
   <property name="0">00:00:00.000=100</property>
   <property name="1">darken</property>
  </transition>
  <transition id="transition50" in="00:08:42.100" out="00:09:06.267">
   <property name="a_track">4</property>
   <property name="b_track">6</property>
   <property name="rect">00:00:00.000=0 0 1920 1080 1</property>
   <property name="compositing">21</property>
   <property name="distort">0</property>
   <property name="rotate_center">1</property>
   <property name="mlt_service">qtblend</property>
   <property name="kdenlive_id">qtblend</property>
   <property name="force_track">1</property>
   <property name="rotation">00:00:00.000=0</property>
  </transition>
  <transition id="transition51" in="00:09:10.800" out="00:09:42.867">
   <property name="a_track">4</property>
   <property name="b_track">6</property>
   <property name="rect">00:00:00.000=-400 40 1920 1080 1.000000</property>
   <property name="compositing">17</property>
   <property name="distort">0</property>
   <property name="rotate_center">1</property>
   <property name="mlt_service">qtblend</property>
   <property name="kdenlive_id">qtblend</property>
   <property name="force_track">1</property>
   <property name="rotation">00:00:00.000=0</property>
  </transition>
  <transition id="transition52" in="00:08:16.733" out="00:08:42.067">
   <property name="a_track">4</property>
   <property name="b_track">6</property>
   <property name="rect">00:00:00.000=0 0 1920 1080 1</property>
   <property name="compositing">21</property>
   <property name="distort">0</property>
   <property name="rotate_center">1</property>
   <property name="mlt_service">qtblend</property>
   <property name="kdenlive_id">qtblend</property>
   <property name="force_track">1</property>
   <property name="rotation">00:00:00.000=0</property>
  </transition>
  <transition id="transition53" in="00:08:14.667" out="00:08:16.667">
   <property name="a_track">4</property>
   <property name="b_track">7</property>
   <property name="start">0/0:100%x100%</property>
   <property name="factory">loader</property>
   <property name="aligned">0</property>
   <property name="progressive">1</property>
   <property name="mlt_service">composite</property>
   <property name="kdenlive_id">wipe</property>
   <property name="force_track">1</property>
   <property name="softness">0</property>
   <property name="luma"/>
   <property name="luma_invert">0</property>
   <property name="geometry">0%/0%:100%x100%:100;-1=0%/0%:100%x100%:0</property>
   <property name="fill">1</property>
  </transition>
  <transition id="transition54" in="00:00:18.333" out="00:00:23.533">
   <property name="a_track">4</property>
   <property name="b_track">7</property>
   <property name="version">0.9</property>
   <property name="mlt_service">frei0r.cairoblend</property>
   <property name="kdenlive_id">frei0r.cairoblend</property>
   <property name="force_track">1</property>
   <property name="0">00:00:00.000=100</property>
   <property name="1">darken</property>
  </transition>
  <transition id="transition55" in="00:00:23.567" out="00:00:27.200">
   <property name="a_track">4</property>
   <property name="b_track">7</property>
   <property name="version">0.9</property>
   <property name="mlt_service">frei0r.cairoblend</property>
   <property name="kdenlive_id">frei0r.cairoblend</property>
   <property name="force_track">1</property>
   <property name="0">00:00:00.000=100</property>
   <property name="1">darken</property>
  </transition>
  <transition id="transition56" in="00:13:02.400" out="00:13:11.667">
   <property name="a_track">4</property>
   <property name="b_track">7</property>
   <property name="rect">00:00:00.000=0 0 1920 1080 1</property>
   <property name="compositing">16</property>
   <property name="distort">0</property>
   <property name="rotate_center">1</property>
   <property name="mlt_service">qtblend</property>
   <property name="kdenlive_id">qtblend</property>
   <property name="force_track">1</property>
   <property name="rotation">00:00:00.000=0</property>
  </transition>
  <transition id="transition57" in="00:03:29.700" out="00:03:30.433">
   <property name="a_track">4</property>
   <property name="b_track">7</property>
   <property name="start">0/0:100%x100%</property>
   <property name="factory">loader</property>
   <property name="aligned">0</property>
   <property name="progressive">1</property>
   <property name="mlt_service">composite</property>
   <property name="kdenlive_id">wipe</property>
   <property name="force_track">1</property>
   <property name="softness">0</property>
   <property name="luma"/>
   <property name="luma_invert">0</property>
   <property name="geometry">0%/0%:100%x100%:0;-1=0%/0%:100%x100%:100</property>
   <property name="fill">1</property>
  </transition>
  <transition id="transition58" in="00:00:12.400" out="00:00:26.500">
   <property name="a_track">4</property>
   <property name="b_track">8</property>
   <property name="version">0.9</property>
   <property name="mlt_service">frei0r.cairoblend</property>
   <property name="kdenlive_id">frei0r.cairoblend</property>
   <property name="force_track">1</property>
   <property name="0">00:00:00.000=100</property>
   <property name="1">softlight</property>
  </transition>
  <transition id="transition59" in="00:03:29.700" out="00:03:30.433">
   <property name="a_track">4</property>
   <property name="b_track">8</property>
   <property name="start">0/0:100%x100%</property>
   <property name="factory">loader</property>
   <property name="aligned">0</property>
   <property name="progressive">1</property>
   <property name="mlt_service">composite</property>
   <property name="kdenlive_id">wipe</property>
   <property name="softness">0</property>
   <property name="luma"/>
   <property name="luma_invert">0</property>
   <property name="geometry">0%/0%:100%x100%:0;-1=0%/0%:100%x100%:100</property>
   <property name="fill">1</property>
   <property name="force_track">1</property>
  </transition>
  <transition id="transition60" in="00:02:10.167" out="00:03:25.767">
   <property name="a_track">4</property>
   <property name="b_track">16</property>
   <property name="version">0.9</property>
   <property name="mlt_service">frei0r.cairoblend</property>
   <property name="kdenlive_id">frei0r.cairoblend</property>
   <property name="force_track">1</property>
   <property name="0">00:00:00.000=0.48;00:00:21.700=0.48;00:00:23.333=0;00:00:31.833=0;00:00:32.933=0.4;00:00:37.000=0.4;00:00:37.700=0;00:00:43.000=0;00:00:43.667=0.4;00:00:47.167=0.4;00:00:47.533=0;00:00:51.600=0;00:00:53.100=0.4;00:01:08.467=0.4;00:01:09.233=0</property>
   <property name="1">overlay</property>
  </transition>
  <transition id="transition61" in="00:01:59.833" out="00:02:00.367">
   <property name="a_track">3</property>
   <property name="b_track">4</property>
   <property name="start">0/0:100%x100%</property>
   <property name="factory">loader</property>
   <property name="aligned">0</property>
   <property name="progressive">1</property>
   <property name="mlt_service">composite</property>
   <property name="kdenlive_id">wipe</property>
   <property name="softness">0</property>
   <property name="luma"/>
   <property name="luma_invert">0</property>
   <property name="geometry">0%/0%:100%x100%:0;-1=0%/0%:100%x100%:100</property>
   <property name="fill">1</property>
  </transition>
  <transition id="transition62" in="00:01:09.767" out="00:01:12.133">
   <property name="a_track">3</property>
   <property name="b_track">4</property>
   <property name="start">0/0:100%x100%</property>
   <property name="factory">loader</property>
   <property name="aligned">0</property>
   <property name="progressive">1</property>
   <property name="mlt_service">composite</property>
   <property name="kdenlive_id">wipe</property>
   <property name="force_track">1</property>
   <property name="softness">0</property>
   <property name="luma"/>
   <property name="luma_invert">0</property>
   <property name="geometry">0%/0%:100%x100%:100;-1=0%/0%:100%x100%:0</property>
   <property name="fill">1</property>
  </transition>
  <transition id="transition63" in="00:00:40.233" out="00:00:59.867">
   <property name="a_track">3</property>
   <property name="b_track">4</property>
   <property name="version">0.9</property>
   <property name="mlt_service">frei0r.cairoblend</property>
   <property name="kdenlive_id">frei0r.cairoblend</property>
   <property name="force_track">1</property>
   <property name="0">00:00:00.000=100</property>
   <property name="1">darken</property>
  </transition>
  <transition id="transition64" in="00:00:31.200" out="00:00:40.200">
   <property name="a_track">3</property>
   <property name="b_track">4</property>
   <property name="version">0.9</property>
   <property name="mlt_service">frei0r.cairoblend</property>
   <property name="kdenlive_id">frei0r.cairoblend</property>
   <property name="force_track">1</property>
   <property name="0">00:00:00.000=1</property>
   <property name="1">darken</property>
  </transition>
  <transition id="transition65" in="00:00:40.233" out="00:00:59.867">
   <property name="a_track">3</property>
   <property name="b_track">5</property>
   <property name="version">0.9</property>
   <property name="mlt_service">frei0r.cairoblend</property>
   <property name="kdenlive_id">frei0r.cairoblend</property>
   <property name="force_track">1</property>
   <property name="0">00:00:00.000=100</property>
   <property name="1">darken</property>
  </transition>
  <transition id="transition66" in="00:00:32.500" out="00:00:40.200">
   <property name="a_track">3</property>
   <property name="b_track">5</property>
   <property name="version">0.9</property>
   <property name="mlt_service">frei0r.cairoblend</property>
   <property name="kdenlive_id">frei0r.cairoblend</property>
   <property name="force_track">1</property>
   <property name="0">00:00:00.000=1</property>
   <property name="1">darken</property>
  </transition>
  <transition id="transition67" in="00:01:25.200" out="00:02:03.733">
   <property name="a_track">3</property>
   <property name="b_track">5</property>
   <property name="version">0.9</property>
   <property name="mlt_service">frei0r.cairoblend</property>
   <property name="kdenlive_id">frei0r.cairoblend</property>
   <property name="0">00:00:00.000=0.87</property>
   <property name="1">darken</property>
   <property name="force_track">1</property>
  </transition>
  <transition id="transition68" in="00:01:25.200" out="00:02:00.367">
   <property name="a_track">3</property>
   <property name="b_track">6</property>
   <property name="version">0.9</property>
   <property name="mlt_service">frei0r.cairoblend</property>
   <property name="kdenlive_id">frei0r.cairoblend</property>
   <property name="force_track">1</property>
   <property name="0">00:00:00.000=0.37</property>
   <property name="1">darken</property>
  </transition>
  <transition id="transition69" in="00:00:40.233" out="00:00:59.867">
   <property name="a_track">3</property>
   <property name="b_track">6</property>
   <property name="version">0.9</property>
   <property name="mlt_service">frei0r.cairoblend</property>
   <property name="kdenlive_id">frei0r.cairoblend</property>
   <property name="force_track">1</property>
   <property name="0">00:00:00.000=100</property>
   <property name="1">darken</property>
  </transition>
  <transition id="transition70" in="00:00:34.433" out="00:00:40.200">
   <property name="a_track">3</property>
   <property name="b_track">6</property>
   <property name="version">0.9</property>
   <property name="mlt_service">frei0r.cairoblend</property>
   <property name="kdenlive_id">frei0r.cairoblend</property>
   <property name="force_track">1</property>
   <property name="0">00:00:00.000=1</property>
   <property name="1">darken</property>
  </transition>
  <transition id="transition71" in="00:00:40.233" out="00:00:59.867">
   <property name="a_track">3</property>
   <property name="b_track">7</property>
   <property name="version">0.9</property>
   <property name="mlt_service">frei0r.cairoblend</property>
   <property name="kdenlive_id">frei0r.cairoblend</property>
   <property name="force_track">1</property>
   <property name="0">00:00:00.000=100</property>
   <property name="1">darken</property>
  </transition>
  <transition id="transition72" in="00:00:35.200" out="00:00:40.200">
   <property name="a_track">3</property>
   <property name="b_track">7</property>
   <property name="version">0.9</property>
   <property name="mlt_service">frei0r.cairoblend</property>
   <property name="kdenlive_id">frei0r.cairoblend</property>
   <property name="force_track">1</property>
   <property name="0">00:00:00.000=1</property>
   <property name="1">darken</property>
  </transition>
  <transition id="transition73" in="00:00:40.233" out="00:00:59.867">
   <property name="a_track">3</property>
   <property name="b_track">8</property>
   <property name="version">0.9</property>
   <property name="mlt_service">frei0r.cairoblend</property>
   <property name="kdenlive_id">frei0r.cairoblend</property>
   <property name="force_track">1</property>
   <property name="0">00:00:00.000=100</property>
   <property name="1">darken</property>
  </transition>
  <transition id="transition74" in="00:00:36.367" out="00:00:40.200">
   <property name="a_track">3</property>
   <property name="b_track">8</property>
   <property name="version">0.9</property>
   <property name="mlt_service">frei0r.cairoblend</property>
   <property name="kdenlive_id">frei0r.cairoblend</property>
   <property name="force_track">1</property>
   <property name="0">00:00:00.000=1</property>
   <property name="1">darken</property>
  </transition>
  <transition id="transition75" in="00:00:40.233" out="00:00:59.867">
   <property name="a_track">3</property>
   <property name="b_track">9</property>
   <property name="version">0.9</property>
   <property name="mlt_service">frei0r.cairoblend</property>
   <property name="kdenlive_id">frei0r.cairoblend</property>
   <property name="force_track">1</property>
   <property name="0">00:00:00.000=100</property>
   <property name="1">darken</property>
  </transition>
  <transition id="transition76" in="00:04:43.800" out="00:04:47.633">
   <property name="a_track">3</property>
   <property name="b_track">12</property>
   <property name="version">0.9</property>
   <property name="mlt_service">frei0r.cairoblend</property>
   <property name="kdenlive_id">frei0r.cairoblend</property>
   <property name="0">00:00:00.000=1;00:00:03.433=0.66;00:00:03.833=0.2</property>
   <property name="1">normal</property>
   <property name="force_track">1</property>
  </transition>
  <transition id="transition77" in="00:01:17.733" out="00:01:25.967">
   <property name="a_track">3</property>
   <property name="b_track">13</property>
   <property name="version">0.9</property>
   <property name="mlt_service">frei0r.cairoblend</property>
   <property name="kdenlive_id">frei0r.cairoblend</property>
   <property name="force_track">1</property>
   <property name="0">00:00:00.000=0.17;00:00:00.100=0.17;00:00:07.600=0.17;00:00:08.133=0</property>
   <property name="1">hslluminosity</property>
  </transition>
  <transition id="transition78">
   <property name="a_track">0</property>
   <property name="b_track">3</property>
   <property name="compositing">0</property>
   <property name="distort">0</property>
   <property name="rotate_center">0</property>
   <property name="mlt_service">qtblend</property>
   <property name="kdenlive_id">qtblend</property>
   <property name="internal_added">237</property>
   <property name="always_active">1</property>
  </transition>
  <transition id="transition79">
   <property name="a_track">0</property>
   <property name="b_track">4</property>
   <property name="compositing">0</property>
   <property name="distort">0</property>
   <property name="rotate_center">0</property>
   <property name="mlt_service">qtblend</property>
   <property name="kdenlive_id">qtblend</property>
   <property name="internal_added">237</property>
   <property name="always_active">1</property>
  </transition>
  <transition id="transition80">
   <property name="a_track">0</property>
   <property name="b_track">5</property>
   <property name="compositing">0</property>
   <property name="distort">0</property>
   <property name="rotate_center">0</property>
   <property name="mlt_service">qtblend</property>
   <property name="kdenlive_id">qtblend</property>
   <property name="internal_added">237</property>
   <property name="always_active">1</property>
  </transition>
  <transition id="transition81">
   <property name="a_track">0</property>
   <property name="b_track">6</property>
   <property name="compositing">0</property>
   <property name="distort">0</property>
   <property name="rotate_center">0</property>
   <property name="mlt_service">qtblend</property>
   <property name="kdenlive_id">qtblend</property>
   <property name="internal_added">237</property>
   <property name="always_active">1</property>
  </transition>
  <transition id="transition82">
   <property name="a_track">0</property>
   <property name="b_track">7</property>
   <property name="compositing">0</property>
   <property name="distort">0</property>
   <property name="rotate_center">0</property>
   <property name="mlt_service">qtblend</property>
   <property name="kdenlive_id">qtblend</property>
   <property name="internal_added">237</property>
   <property name="always_active">1</property>
  </transition>
  <transition id="transition83">
   <property name="a_track">0</property>
   <property name="b_track">8</property>
   <property name="compositing">0</property>
   <property name="distort">0</property>
   <property name="rotate_center">0</property>
   <property name="mlt_service">qtblend</property>
   <property name="kdenlive_id">qtblend</property>
   <property name="internal_added">237</property>
   <property name="always_active">1</property>
  </transition>
  <transition id="transition84">
   <property name="a_track">0</property>
   <property name="b_track">9</property>
   <property name="compositing">0</property>
   <property name="distort">0</property>
   <property name="rotate_center">0</property>
   <property name="mlt_service">qtblend</property>
   <property name="kdenlive_id">qtblend</property>
   <property name="internal_added">237</property>
   <property name="always_active">1</property>
  </transition>
  <transition id="transition85">
   <property name="a_track">0</property>
   <property name="b_track">10</property>
   <property name="compositing">0</property>
   <property name="distort">0</property>
   <property name="rotate_center">0</property>
   <property name="mlt_service">qtblend</property>
   <property name="kdenlive_id">qtblend</property>
   <property name="internal_added">237</property>
   <property name="always_active">1</property>
  </transition>
  <transition id="transition86">
   <property name="a_track">0</property>
   <property name="b_track">11</property>
   <property name="compositing">0</property>
   <property name="distort">0</property>
   <property name="rotate_center">0</property>
   <property name="mlt_service">qtblend</property>
   <property name="kdenlive_id">qtblend</property>
   <property name="internal_added">237</property>
   <property name="always_active">1</property>
  </transition>
  <transition id="transition87">
   <property name="a_track">0</property>
   <property name="b_track">12</property>
   <property name="compositing">0</property>
   <property name="distort">0</property>
   <property name="rotate_center">0</property>
   <property name="mlt_service">qtblend</property>
   <property name="kdenlive_id">qtblend</property>
   <property name="internal_added">237</property>
   <property name="always_active">1</property>
  </transition>
  <transition id="transition88">
   <property name="a_track">0</property>
   <property name="b_track">13</property>
   <property name="compositing">0</property>
   <property name="distort">0</property>
   <property name="rotate_center">0</property>
   <property name="mlt_service">qtblend</property>
   <property name="kdenlive_id">qtblend</property>
   <property name="internal_added">237</property>
   <property name="always_active">1</property>
  </transition>
  <transition id="transition89">
   <property name="a_track">0</property>
   <property name="b_track">14</property>
   <property name="compositing">0</property>
   <property name="distort">0</property>
   <property name="rotate_center">0</property>
   <property name="mlt_service">qtblend</property>
   <property name="kdenlive_id">qtblend</property>
   <property name="internal_added">237</property>
   <property name="always_active">1</property>
  </transition>
  <transition id="transition90">
   <property name="a_track">0</property>
   <property name="b_track">15</property>
   <property name="compositing">0</property>
   <property name="distort">0</property>
   <property name="rotate_center">0</property>
   <property name="mlt_service">qtblend</property>
   <property name="kdenlive_id">qtblend</property>
   <property name="internal_added">237</property>
   <property name="always_active">1</property>
  </transition>
  <transition id="transition91">
   <property name="a_track">0</property>
   <property name="b_track">16</property>
   <property name="compositing">0</property>
   <property name="distort">0</property>
   <property name="rotate_center">0</property>
   <property name="mlt_service">qtblend</property>
   <property name="kdenlive_id">qtblend</property>
   <property name="internal_added">237</property>
   <property name="always_active">1</property>
  </transition>
  <filter id="filter282">
   <property name="window">75</property>
   <property name="max_gain">20dB</property>
   <property name="mlt_service">volume</property>
   <property name="internal_added">237</property>
   <property name="disable">1</property>
  </filter>
  <filter id="filter283">
   <property name="channel">-1</property>
   <property name="mlt_service">panner</property>
   <property name="internal_added">237</property>
   <property name="start">0.5</property>
   <property name="disable">1</property>
  </filter>
  <filter id="filter284">
   <property name="iec_scale">0</property>
   <property name="mlt_service">audiolevel</property>
   <property name="disable">1</property>
  </filter>
 </tractor>
</mlt>
