<?xml version='1.0' encoding='utf-8'?>
<mlt LC_NUMERIC="C" producer="main_bin" version="6.26.1" root="/home/ryankelln/Documents/Projects/Active/Sound_Escapes/Sarah/final">
 <profile frame_rate_num="30" sample_aspect_num="1" display_aspect_den="9" colorspace="709" progressive="1" description="HD 1080p 30 fps" display_aspect_num="16" frame_rate_den="1" width="1920" height="1080" sample_aspect_den="1"/>
 <producer id="producer3" in="00:00:00.000" out="00:00:37.300">
  <property name="length">1120</property>
  <property name="eof">pause</property>
  <property name="resource">/home/ryankelln/Documents/Projects/Active/Sound_Escapes/Sarah/Rhododenron/atlanticum truss.jpg</property>
  <property name="ttl">25</property>
  <property name="aspect_ratio">1</property>
  <property name="progressive">1</property>
  <property name="seekable">1</property>
  <property name="meta.media.width">1920</property>
  <property name="meta.media.height">1275</property>
  <property name="mlt_service">qimage</property>
  <property name="kdenlive:clipname"/>
  <property name="kdenlive:duration">00:00:05.000</property>
  <property name="kdenlive:folderid">20</property>
  <property name="kdenlive:id">2</property>
  <property name="kdenlive:file_size">198960</property>
  <property name="kdenlive:file_hash">18f0dfab7af8c639fbf2afbaf4a2d9af</property>
  <property name="global_feed">1</property>
 </producer>
 <producer id="producer0" in="00:00:00.000" out="00:00:23.633">
  <property name="length">710</property>
  <property name="eof">pause</property>
  <property name="resource">/home/ryankelln/Documents/Projects/Active/Sound_Escapes/Sarah/Rhododenron/nancy evans truss #1.jpg</property>
  <property name="ttl">25</property>
  <property name="aspect_ratio">1</property>
  <property name="progressive">1</property>
  <property name="seekable">1</property>
  <property name="meta.media.width">1920</property>
  <property name="meta.media.height">1275</property>
  <property name="mlt_service">qimage</property>
  <property name="kdenlive:clipname"/>
  <property name="kdenlive:duration">00:00:05.000</property>
  <property name="kdenlive:folderid">20</property>
  <property name="kdenlive:id">3</property>
  <property name="kdenlive:file_size">287904</property>
  <property name="kdenlive:file_hash">4e45de47930705c0d6ee294c99ec32ce</property>
  <property name="global_feed">1</property>
 </producer>
 <producer id="producer1" in="00:00:00.000" out="00:00:29.433">
  <property name="length">884</property>
  <property name="eof">pause</property>
  <property name="resource">/home/ryankelln/Documents/Projects/Active/Sound_Escapes/Sarah/Rhododenron/naselle truss #1.jpg</property>
  <property name="ttl">25</property>
  <property name="aspect_ratio">1</property>
  <property name="progressive">1</property>
  <property name="seekable">1</property>
  <property name="meta.media.width">1920</property>
  <property name="meta.media.height">1275</property>
  <property name="mlt_service">qimage</property>
  <property name="kdenlive:clipname"/>
  <property name="kdenlive:duration">00:00:05.000</property>
  <property name="kdenlive:folderid">20</property>
  <property name="kdenlive:id">4</property>
  <property name="kdenlive:file_size">270352</property>
  <property name="kdenlive:file_hash">7cb7c416903e6d98e32ba4641fbddd13</property>
  <property name="global_feed">1</property>
 </producer>
 <producer id="producer2" in="00:00:00.000" out="00:00:04.967">
  <property name="length">00:00:05.000</property>
  <property name="eof">pause</property>
  <property name="resource">/home/ryankelln/Documents/Projects/Active/Sound_Escapes/Sarah/Rhododenron/ruby hart truss.jpg</property>
  <property name="ttl">25</property>
  <property name="aspect_ratio">1</property>
  <property name="progressive">1</property>
  <property name="seekable">1</property>
  <property name="meta.media.width">1920</property>
  <property name="meta.media.height">1275</property>
  <property name="mlt_service">qimage</property>
  <property name="kdenlive:clipname"/>
  <property name="kdenlive:duration">00:00:05.000</property>
  <property name="kdenlive:folderid">20</property>
  <property name="kdenlive:id">5</property>
  <property name="kdenlive:file_size">164427</property>
  <property name="kdenlive:file_hash">b3dd1fe1dff7ea4528c0c98241f57312</property>
 </producer>
 <producer id="producer4" in="00:00:00.000" out="00:04:27.600">
  <property name="length">8029</property>
  <property name="eof">pause</property>
  <property name="resource">/home/ryankelln/Documents/Projects/Active/Sound_Escapes/rehearsals/1/SoundEscapes_SarahRehearsal1.mp3</property>
  <property name="meta.media.nb_streams">1</property>
  <property name="meta.media.0.stream.type">audio</property>
  <property name="meta.media.0.codec.sample_fmt">fltp</property>
  <property name="meta.media.0.codec.sample_rate">48000</property>
  <property name="meta.media.0.codec.channels">2</property>
  <property name="meta.media.0.codec.name">mp3float</property>
  <property name="meta.media.0.codec.long_name">MP3 (MPEG audio layer 3)</property>
  <property name="meta.media.0.codec.bit_rate">198235</property>
  <property name="meta.attr.0.stream.encoder.markup">LAME3.100</property>
  <property name="seekable">1</property>
  <property name="audio_index">0</property>
  <property name="video_index">-1</property>
  <property name="mute_on_pause">1</property>
  <property name="mlt_service">avformat</property>
  <property name="kdenlive:clipname"/>
  <property name="kdenlive:folderid">20</property>
  <property name="kdenlive:id">6</property>
  <property name="kdenlive:file_size">6632160</property>
  <property name="kdenlive:file_hash">999e51ce3d3384acbf494cd3496febd4</property>
  <property name="kdenlive:audio_max">1</property>
  <property name="global_feed">1</property>
 </producer>
 <producer id="producer5" in="00:00:00.000" out="00:00:37.300">
  <property name="length">1120</property>
  <property name="eof">pause</property>
  <property name="resource">/home/ryankelln/Documents/Projects/Active/Sound_Escapes/Sarah/storyboard/flower_start.mp4</property>
  <property name="audio_index">-1</property>
  <property name="video_index">0</property>
  <property name="mute_on_pause">0</property>
  <property name="mlt_service">avformat-novalidate</property>
  <property name="meta.media.nb_streams">1</property>
  <property name="meta.media.0.stream.type">video</property>
  <property name="meta.media.0.stream.frame_rate">30</property>
  <property name="meta.media.0.stream.sample_aspect_ratio">1</property>
  <property name="meta.media.0.codec.width">1920</property>
  <property name="meta.media.0.codec.height">1080</property>
  <property name="meta.media.0.codec.rotate">0</property>
  <property name="meta.media.0.codec.frame_rate">30</property>
  <property name="meta.media.0.codec.pix_fmt">yuv420p</property>
  <property name="meta.media.0.codec.sample_aspect_ratio">1</property>
  <property name="meta.media.0.codec.colorspace">709</property>
  <property name="meta.media.0.codec.color_trc">1</property>
  <property name="meta.media.0.codec.name">h264</property>
  <property name="meta.media.0.codec.long_name">H.264 / AVC / MPEG-4 AVC / MPEG-4 part 10</property>
  <property name="meta.media.0.codec.bit_rate">5490612</property>
  <property name="meta.attr.0.stream.handler_name.markup">VideoHandler</property>
  <property name="meta.attr.0.stream.vendor_id.markup">[0][0][0][0]</property>
  <property name="meta.attr.major_brand.markup">isom</property>
  <property name="meta.attr.minor_version.markup">512</property>
  <property name="meta.attr.compatible_brands.markup">isomiso2avc1mp41</property>
  <property name="meta.attr.encoder.markup">Lavf58.76.100</property>
  <property name="seekable">1</property>
  <property name="meta.media.sample_aspect_num">1</property>
  <property name="meta.media.sample_aspect_den">1</property>
  <property name="aspect_ratio">1</property>
  <property name="kdenlive:clipname"/>
  <property name="kdenlive:folderid">20</property>
  <property name="meta.media.frame_rate_num">30</property>
  <property name="meta.media.frame_rate_den">1</property>
  <property name="meta.media.colorspace">709</property>
  <property name="meta.media.color_trc">1</property>
  <property name="meta.media.width">1920</property>
  <property name="meta.media.height">1080</property>
  <property name="meta.media.color_range">mpeg</property>
  <property name="kdenlive:id">7</property>
  <property name="kdenlive:file_size">25635499</property>
  <property name="kdenlive:file_hash">2eb57f989340ff8ae87047abbf920d05</property>
  <property name="meta.media.top_field_first">0</property>
  <property name="meta.media.progressive">1</property>
  <property name="global_feed">1</property>
 </producer>
 <producer id="producer6" in="00:00:00.000" out="00:01:00.000">
  <property name="length">1801</property>
  <property name="eof">pause</property>
  <property name="resource">/home/ryankelln/Documents/Projects/Active/Sound_Escapes/Sarah/storyboard/sarah_rehearsal1_132000_efb0363b.mp4</property>
  <property name="audio_index">1</property>
  <property name="video_index">0</property>
  <property name="mute_on_pause">0</property>
  <property name="mlt_service">avformat-novalidate</property>
  <property name="meta.media.nb_streams">2</property>
  <property name="meta.media.0.stream.type">video</property>
  <property name="meta.media.0.stream.frame_rate">30</property>
  <property name="meta.media.0.stream.sample_aspect_ratio">0</property>
  <property name="meta.media.0.codec.width">896</property>
  <property name="meta.media.0.codec.height">512</property>
  <property name="meta.media.0.codec.rotate">0</property>
  <property name="meta.media.0.codec.frame_rate">30</property>
  <property name="meta.media.0.codec.pix_fmt">yuv420p</property>
  <property name="meta.media.0.codec.sample_aspect_ratio">0</property>
  <property name="meta.media.0.codec.colorspace">601</property>
  <property name="meta.media.0.codec.name">h264</property>
  <property name="meta.media.0.codec.long_name">H.264 / AVC / MPEG-4 AVC / MPEG-4 part 10</property>
  <property name="meta.media.0.codec.bit_rate">3026875</property>
  <property name="meta.attr.0.stream.handler_name.markup">VideoHandler</property>
  <property name="meta.attr.0.stream.vendor_id.markup">[0][0][0][0]</property>
  <property name="meta.media.1.stream.type">audio</property>
  <property name="meta.media.1.codec.sample_fmt">fltp</property>
  <property name="meta.media.1.codec.sample_rate">48000</property>
  <property name="meta.media.1.codec.channels">2</property>
  <property name="meta.media.1.codec.name">aac</property>
  <property name="meta.media.1.codec.long_name">AAC (Advanced Audio Coding)</property>
  <property name="meta.media.1.codec.bit_rate">321732</property>
  <property name="meta.attr.1.stream.handler_name.markup">SoundHandler</property>
  <property name="meta.attr.1.stream.vendor_id.markup">[0][0][0][0]</property>
  <property name="meta.attr.major_brand.markup">isom</property>
  <property name="meta.attr.minor_version.markup">512</property>
  <property name="meta.attr.compatible_brands.markup">isomiso2avc1mp41</property>
  <property name="meta.attr.encoder.markup">Lavf58.29.100</property>
  <property name="seekable">1</property>
  <property name="meta.media.sample_aspect_num">1</property>
  <property name="meta.media.sample_aspect_den">1</property>
  <property name="aspect_ratio">1</property>
  <property name="kdenlive:clipname"/>
  <property name="kdenlive:folderid">20</property>
  <property name="meta.media.frame_rate_num">30</property>
  <property name="meta.media.frame_rate_den">1</property>
  <property name="meta.media.colorspace">601</property>
  <property name="meta.media.color_trc">2</property>
  <property name="meta.media.width">896</property>
  <property name="meta.media.height">512</property>
  <property name="meta.media.color_range">mpeg</property>
  <property name="kdenlive:id">8</property>
  <property name="kdenlive:file_size">25180686</property>
  <property name="kdenlive:file_hash">92ed901aec54435ab38198af6187679e</property>
  <property name="kdenlive:audio_max">1</property>
  <property name="meta.media.top_field_first">0</property>
  <property name="meta.media.progressive">1</property>
  <property name="global_feed">1</property>
 </producer>
 <producer id="producer7" in="00:00:00.000" out="00:01:00.000">
  <property name="length">1801</property>
  <property name="eof">pause</property>
  <property name="resource">/home/ryankelln/Documents/Projects/Active/Sound_Escapes/Sarah/storyboard/chris_rehearsal1_078000_d00a71ef.mp4</property>
  <property name="audio_index">1</property>
  <property name="video_index">0</property>
  <property name="mute_on_pause">0</property>
  <property name="mlt_service">avformat-novalidate</property>
  <property name="meta.media.nb_streams">2</property>
  <property name="meta.media.0.stream.type">video</property>
  <property name="meta.media.0.stream.frame_rate">30</property>
  <property name="meta.media.0.stream.sample_aspect_ratio">0</property>
  <property name="meta.media.0.codec.width">896</property>
  <property name="meta.media.0.codec.height">512</property>
  <property name="meta.media.0.codec.rotate">0</property>
  <property name="meta.media.0.codec.frame_rate">30</property>
  <property name="meta.media.0.codec.pix_fmt">yuv420p</property>
  <property name="meta.media.0.codec.sample_aspect_ratio">0</property>
  <property name="meta.media.0.codec.colorspace">601</property>
  <property name="meta.media.0.codec.name">h264</property>
  <property name="meta.media.0.codec.long_name">H.264 / AVC / MPEG-4 AVC / MPEG-4 part 10</property>
  <property name="meta.media.0.codec.bit_rate">2675001</property>
  <property name="meta.attr.0.stream.handler_name.markup">VideoHandler</property>
  <property name="meta.attr.0.stream.vendor_id.markup">[0][0][0][0]</property>
  <property name="meta.media.1.stream.type">audio</property>
  <property name="meta.media.1.codec.sample_fmt">fltp</property>
  <property name="meta.media.1.codec.sample_rate">48000</property>
  <property name="meta.media.1.codec.channels">2</property>
  <property name="meta.media.1.codec.name">aac</property>
  <property name="meta.media.1.codec.long_name">AAC (Advanced Audio Coding)</property>
  <property name="meta.media.1.codec.bit_rate">321313</property>
  <property name="meta.attr.1.stream.handler_name.markup">SoundHandler</property>
  <property name="meta.attr.1.stream.vendor_id.markup">[0][0][0][0]</property>
  <property name="meta.attr.major_brand.markup">isom</property>
  <property name="meta.attr.minor_version.markup">512</property>
  <property name="meta.attr.compatible_brands.markup">isomiso2avc1mp41</property>
  <property name="meta.attr.encoder.markup">Lavf58.29.100</property>
  <property name="seekable">1</property>
  <property name="meta.media.sample_aspect_num">1</property>
  <property name="meta.media.sample_aspect_den">1</property>
  <property name="aspect_ratio">1</property>
  <property name="kdenlive:clipname"/>
  <property name="kdenlive:folderid">20</property>
  <property name="meta.media.frame_rate_num">30</property>
  <property name="meta.media.frame_rate_den">1</property>
  <property name="meta.media.colorspace">601</property>
  <property name="meta.media.color_trc">2</property>
  <property name="meta.media.width">896</property>
  <property name="meta.media.height">512</property>
  <property name="meta.media.color_range">mpeg</property>
  <property name="kdenlive:id">9</property>
  <property name="kdenlive:file_size">22536432</property>
  <property name="kdenlive:file_hash">e2a0ff9322a1212a8bd7ae05a20a8b5d</property>
  <property name="kdenlive:audio_max">1</property>
  <property name="meta.media.top_field_first">0</property>
  <property name="meta.media.progressive">1</property>
  <property name="global_feed">1</property>
 </producer>
 <producer id="producer8" in="00:00:00.000" out="00:02:27.967">
  <property name="length">4440</property>
  <property name="eof">pause</property>
  <property name="resource">/media/storage/media/Videos/mine/music_landscapes/2021-05-21/rehearsal1_Caleb_electricbass+closeup+hands_1.MP4</property>
  <property name="audio_index">1</property>
  <property name="video_index">0</property>
  <property name="mute_on_pause">0</property>
  <property name="mlt_service">avformat-novalidate</property>
  <property name="meta.media.nb_streams">3</property>
  <property name="meta.media.0.stream.type">video</property>
  <property name="meta.media.0.stream.frame_rate">24</property>
  <property name="meta.media.0.stream.sample_aspect_ratio">0</property>
  <property name="meta.media.0.codec.width">1920</property>
  <property name="meta.media.0.codec.height">1080</property>
  <property name="meta.media.0.codec.rotate">0</property>
  <property name="meta.media.0.codec.frame_rate">24</property>
  <property name="meta.media.0.codec.pix_fmt">yuv420p</property>
  <property name="meta.media.0.codec.sample_aspect_ratio">1</property>
  <property name="meta.media.0.codec.colorspace">709</property>
  <property name="meta.media.0.codec.color_trc">1</property>
  <property name="meta.media.0.codec.name">h264</property>
  <property name="meta.media.0.codec.long_name">H.264 / AVC / MPEG-4 AVC / MPEG-4 part 10</property>
  <property name="meta.media.0.codec.bit_rate">38376081</property>
  <property name="meta.attr.0.stream.creation_time.markup">2021-05-21T16:01:26.000000Z</property>
  <property name="meta.attr.0.stream.vendor_id.markup">[0][0][0][0]</property>
  <property name="meta.attr.0.stream.timecode.markup">10:19:53:03</property>
  <property name="meta.media.1.stream.type">audio</property>
  <property name="meta.media.1.codec.sample_fmt">s16</property>
  <property name="meta.media.1.codec.sample_rate">48000</property>
  <property name="meta.media.1.codec.channels">2</property>
  <property name="meta.media.1.codec.name">pcm_s16be</property>
  <property name="meta.media.1.codec.long_name">PCM signed 16-bit big-endian</property>
  <property name="meta.media.1.codec.bit_rate">1536000</property>
  <property name="meta.attr.1.stream.creation_time.markup">2021-05-21T16:01:26.000000Z</property>
  <property name="meta.attr.1.stream.vendor_id.markup">pana</property>
  <property name="meta.attr.1.stream.timecode.markup">10:19:53:03</property>
  <property name="meta.attr.major_brand.markup">mp42</property>
  <property name="meta.attr.minor_version.markup">1</property>
  <property name="meta.attr.compatible_brands.markup">mp42avc1</property>
  <property name="meta.attr.creation_time.markup">2021-05-21T16:01:26.000000Z</property>
  <property name="seekable">1</property>
  <property name="meta.media.sample_aspect_num">1</property>
  <property name="meta.media.sample_aspect_den">1</property>
  <property name="aspect_ratio">1</property>
  <property name="kdenlive:clipname"/>
  <property name="kdenlive:folderid">20</property>
  <property name="meta.media.frame_rate_num">24</property>
  <property name="meta.media.frame_rate_den">1</property>
  <property name="meta.media.colorspace">709</property>
  <property name="meta.media.color_trc">1</property>
  <property name="meta.media.width">1920</property>
  <property name="meta.media.height">1080</property>
  <property name="meta.media.color_range">mpeg</property>
  <property name="kdenlive:id">10</property>
  <property name="kdenlive:file_size">738649871</property>
  <property name="kdenlive:file_hash">f435fcd57f2bf5ddd574ec172b81fb7d</property>
  <property name="kdenlive:audio_max">91</property>
  <property name="meta.media.top_field_first">0</property>
  <property name="meta.media.progressive">1</property>
  <property name="global_feed">1</property>
 </producer>
 <producer id="producer9" in="00:00:00.000" out="00:01:26.467">
  <property name="length">2595</property>
  <property name="eof">pause</property>
  <property name="resource">/media/storage/media/Videos/mine/music_landscapes/2021-05-21/Chris/rehearsal1_Chris_synth+closeup+hands_1.MP4</property>
  <property name="audio_index">1</property>
  <property name="video_index">0</property>
  <property name="mute_on_pause">0</property>
  <property name="mlt_service">avformat-novalidate</property>
  <property name="meta.media.nb_streams">3</property>
  <property name="meta.media.0.stream.type">video</property>
  <property name="meta.media.0.stream.frame_rate">24</property>
  <property name="meta.media.0.stream.sample_aspect_ratio">0</property>
  <property name="meta.media.0.codec.width">1920</property>
  <property name="meta.media.0.codec.height">1080</property>
  <property name="meta.media.0.codec.rotate">0</property>
  <property name="meta.media.0.codec.frame_rate">24</property>
  <property name="meta.media.0.codec.pix_fmt">yuv420p</property>
  <property name="meta.media.0.codec.sample_aspect_ratio">1</property>
  <property name="meta.media.0.codec.colorspace">709</property>
  <property name="meta.media.0.codec.color_trc">1</property>
  <property name="meta.media.0.codec.name">h264</property>
  <property name="meta.media.0.codec.long_name">H.264 / AVC / MPEG-4 AVC / MPEG-4 part 10</property>
  <property name="meta.media.0.codec.bit_rate">38374341</property>
  <property name="meta.attr.0.stream.creation_time.markup">2021-05-21T16:03:03.000000Z</property>
  <property name="meta.attr.0.stream.vendor_id.markup">[0][0][0][0]</property>
  <property name="meta.attr.0.stream.timecode.markup">10:22:56:03</property>
  <property name="meta.media.1.stream.type">audio</property>
  <property name="meta.media.1.codec.sample_fmt">s16</property>
  <property name="meta.media.1.codec.sample_rate">48000</property>
  <property name="meta.media.1.codec.channels">2</property>
  <property name="meta.media.1.codec.name">pcm_s16be</property>
  <property name="meta.media.1.codec.long_name">PCM signed 16-bit big-endian</property>
  <property name="meta.media.1.codec.bit_rate">1536000</property>
  <property name="meta.attr.1.stream.creation_time.markup">2021-05-21T16:03:03.000000Z</property>
  <property name="meta.attr.1.stream.vendor_id.markup">pana</property>
  <property name="meta.attr.1.stream.timecode.markup">10:22:56:03</property>
  <property name="meta.attr.major_brand.markup">mp42</property>
  <property name="meta.attr.minor_version.markup">1</property>
  <property name="meta.attr.compatible_brands.markup">mp42avc1</property>
  <property name="meta.attr.creation_time.markup">2021-05-21T16:03:03.000000Z</property>
  <property name="seekable">1</property>
  <property name="meta.media.sample_aspect_num">1</property>
  <property name="meta.media.sample_aspect_den">1</property>
  <property name="aspect_ratio">1</property>
  <property name="kdenlive:clipname"/>
  <property name="kdenlive:folderid">20</property>
  <property name="meta.media.frame_rate_num">24</property>
  <property name="meta.media.frame_rate_den">1</property>
  <property name="meta.media.colorspace">709</property>
  <property name="meta.media.color_trc">1</property>
  <property name="meta.media.width">1920</property>
  <property name="meta.media.height">1080</property>
  <property name="meta.media.color_range">mpeg</property>
  <property name="kdenlive:id">11</property>
  <property name="kdenlive:file_size">431801023</property>
  <property name="kdenlive:file_hash">acf9045b960c4f90be246cfde975ebfa</property>
  <property name="kdenlive:audio_max">91</property>
  <property name="meta.media.top_field_first">0</property>
  <property name="meta.media.progressive">1</property>
  <property name="global_feed">1</property>
  <property name="kdenlive:active_streams">-1</property>
 </producer>
 <producer id="producer10" in="00:00:00.000" out="00:05:59.967">
  <property name="length">10800</property>
  <property name="eof">pause</property>
  <property name="resource">/media/storage/media/Videos/mine/music_landscapes/2021-05-21/Sarah/rehearsal1_Sarah_ride_2.MP4</property>
  <property name="audio_index">1</property>
  <property name="video_index">0</property>
  <property name="mute_on_pause">0</property>
  <property name="mlt_service">avformat-novalidate</property>
  <property name="meta.media.nb_streams">3</property>
  <property name="meta.media.0.stream.type">video</property>
  <property name="meta.media.0.stream.frame_rate">24</property>
  <property name="meta.media.0.stream.sample_aspect_ratio">0</property>
  <property name="meta.media.0.codec.width">1920</property>
  <property name="meta.media.0.codec.height">1080</property>
  <property name="meta.media.0.codec.rotate">0</property>
  <property name="meta.media.0.codec.frame_rate">24</property>
  <property name="meta.media.0.codec.pix_fmt">yuv420p</property>
  <property name="meta.media.0.codec.sample_aspect_ratio">1</property>
  <property name="meta.media.0.codec.colorspace">709</property>
  <property name="meta.media.0.codec.color_trc">1</property>
  <property name="meta.media.0.codec.name">h264</property>
  <property name="meta.media.0.codec.long_name">H.264 / AVC / MPEG-4 AVC / MPEG-4 part 10</property>
  <property name="meta.media.0.codec.bit_rate">38370568</property>
  <property name="meta.attr.0.stream.creation_time.markup">2021-05-21T14:03:00.000000Z</property>
  <property name="meta.attr.0.stream.vendor_id.markup">[0][0][0][0]</property>
  <property name="meta.attr.0.stream.timecode.markup">09:30:38:03</property>
  <property name="meta.media.1.stream.type">audio</property>
  <property name="meta.media.1.codec.sample_fmt">s16</property>
  <property name="meta.media.1.codec.sample_rate">48000</property>
  <property name="meta.media.1.codec.channels">2</property>
  <property name="meta.media.1.codec.name">pcm_s16be</property>
  <property name="meta.media.1.codec.long_name">PCM signed 16-bit big-endian</property>
  <property name="meta.media.1.codec.bit_rate">1536000</property>
  <property name="meta.attr.1.stream.creation_time.markup">2021-05-21T14:03:00.000000Z</property>
  <property name="meta.attr.1.stream.vendor_id.markup">pana</property>
  <property name="meta.attr.1.stream.timecode.markup">09:30:38:03</property>
  <property name="meta.attr.major_brand.markup">mp42</property>
  <property name="meta.attr.minor_version.markup">1</property>
  <property name="meta.attr.compatible_brands.markup">mp42avc1</property>
  <property name="meta.attr.creation_time.markup">2021-05-21T14:03:00.000000Z</property>
  <property name="seekable">1</property>
  <property name="meta.media.sample_aspect_num">1</property>
  <property name="meta.media.sample_aspect_den">1</property>
  <property name="aspect_ratio">1</property>
  <property name="kdenlive:clipname"/>
  <property name="kdenlive:folderid">20</property>
  <property name="meta.media.frame_rate_num">24</property>
  <property name="meta.media.frame_rate_den">1</property>
  <property name="meta.media.colorspace">709</property>
  <property name="meta.media.color_trc">1</property>
  <property name="meta.media.width">1920</property>
  <property name="meta.media.height">1080</property>
  <property name="meta.media.color_range">mpeg</property>
  <property name="kdenlive:id">12</property>
  <property name="kdenlive:file_size">1796092299</property>
  <property name="kdenlive:file_hash">9fa0947ed7e1c8ca148c024da999bbc8</property>
  <property name="meta.media.top_field_first">0</property>
  <property name="meta.media.progressive">1</property>
  <property name="kdenlive:audio_max">91</property>
  <property name="kdenlive:zone_in">5497</property>
  <property name="kdenlive:zone_out">7512</property>
  <property name="kdenlive:active_streams">-1</property>
  <property name="global_feed">1</property>
  <property name="kdenlive:clipzones">[
    {
        "in": 5497,
        "name": "Zone 1",
        "out": 7512
    }
]
</property>
  <property name="kdenlive:activeeffect">1</property>
  <filter id="filter0">
   <property name="mlt_service">avfilter.hflip</property>
   <property name="kdenlive_id">avfilter.hflip</property>
   <property name="kdenlive:collapsed">0</property>
  </filter>
  <filter id="filter1">
   <property name="rotate_center">1</property>
   <property name="mlt_service">qtblend</property>
   <property name="kdenlive_id">qtblend</property>
   <property name="rect">00:00:00.000=0 0 1920 1080 1.000000</property>
   <property name="rotation">00:00:00.000=0</property>
   <property name="compositing">0</property>
   <property name="distort">0</property>
   <property name="kdenlive:collapsed">0</property>
  </filter>
 </producer>
 <producer id="producer11" in="00:00:00.000" out="00:01:00.000">
  <property name="length">1801</property>
  <property name="eof">pause</property>
  <property name="resource">/home/ryankelln/Documents/Projects/Active/Sound_Escapes/Sarah/storyboard/sarah_rehearsal1_animal_drums_030000_bc99c710.mp4</property>
  <property name="audio_index">1</property>
  <property name="video_index">0</property>
  <property name="mute_on_pause">0</property>
  <property name="mlt_service">avformat-novalidate</property>
  <property name="meta.media.nb_streams">2</property>
  <property name="meta.media.0.stream.type">video</property>
  <property name="meta.media.0.stream.frame_rate">30</property>
  <property name="meta.media.0.stream.sample_aspect_ratio">0</property>
  <property name="meta.media.0.codec.width">896</property>
  <property name="meta.media.0.codec.height">512</property>
  <property name="meta.media.0.codec.rotate">0</property>
  <property name="meta.media.0.codec.frame_rate">30</property>
  <property name="meta.media.0.codec.pix_fmt">yuv420p</property>
  <property name="meta.media.0.codec.sample_aspect_ratio">0</property>
  <property name="meta.media.0.codec.colorspace">601</property>
  <property name="meta.media.0.codec.name">h264</property>
  <property name="meta.media.0.codec.long_name">H.264 / AVC / MPEG-4 AVC / MPEG-4 part 10</property>
  <property name="meta.media.0.codec.bit_rate">2652727</property>
  <property name="meta.attr.0.stream.handler_name.markup">VideoHandler</property>
  <property name="meta.attr.0.stream.vendor_id.markup">[0][0][0][0]</property>
  <property name="meta.media.1.stream.type">audio</property>
  <property name="meta.media.1.codec.sample_fmt">fltp</property>
  <property name="meta.media.1.codec.sample_rate">48000</property>
  <property name="meta.media.1.codec.channels">2</property>
  <property name="meta.media.1.codec.name">aac</property>
  <property name="meta.media.1.codec.long_name">AAC (Advanced Audio Coding)</property>
  <property name="meta.media.1.codec.bit_rate">321732</property>
  <property name="meta.attr.1.stream.handler_name.markup">SoundHandler</property>
  <property name="meta.attr.1.stream.vendor_id.markup">[0][0][0][0]</property>
  <property name="meta.attr.major_brand.markup">isom</property>
  <property name="meta.attr.minor_version.markup">512</property>
  <property name="meta.attr.compatible_brands.markup">isomiso2avc1mp41</property>
  <property name="meta.attr.encoder.markup">Lavf58.29.100</property>
  <property name="seekable">1</property>
  <property name="meta.media.sample_aspect_num">1</property>
  <property name="meta.media.sample_aspect_den">1</property>
  <property name="aspect_ratio">1</property>
  <property name="kdenlive:clipname"/>
  <property name="kdenlive:folderid">20</property>
  <property name="meta.media.frame_rate_num">30</property>
  <property name="meta.media.frame_rate_den">1</property>
  <property name="meta.media.colorspace">601</property>
  <property name="meta.media.color_trc">2</property>
  <property name="meta.media.width">896</property>
  <property name="meta.media.height">512</property>
  <property name="meta.media.color_range">mpeg</property>
  <property name="kdenlive:id">13</property>
  <property name="kdenlive:file_size">22369865</property>
  <property name="kdenlive:file_hash">a634494e777d4747b73011d6af3b3d75</property>
  <property name="kdenlive:audio_max">1</property>
  <property name="meta.media.top_field_first">0</property>
  <property name="meta.media.progressive">1</property>
  <property name="kdenlive:active_streams">-1</property>
  <property name="global_feed">1</property>
 </producer>
 <producer id="producer13" in="00:00:00.000" out="00:00:04.967">
  <property name="length">00:00:05.000</property>
  <property name="eof">pause</property>
  <property name="resource">/home/ryankelln/Documents/Projects/Active/Sound_Escapes/Sarah/storyboard/anemone2f_test_duo_anemone_strength0.04_pcahist_scale0.4_1920.png</property>
  <property name="ttl">25</property>
  <property name="aspect_ratio">1</property>
  <property name="progressive">1</property>
  <property name="seekable">1</property>
  <property name="meta.media.width">1920</property>
  <property name="meta.media.height">1088</property>
  <property name="mlt_service">qimage</property>
  <property name="kdenlive:clipname"/>
  <property name="kdenlive:duration">00:00:05.000</property>
  <property name="kdenlive:folderid">20</property>
  <property name="kdenlive:id">14</property>
  <property name="kdenlive:file_size">3105044</property>
  <property name="kdenlive:file_hash">76d7aa71157754ea5bd3bcac512a2895</property>
 </producer>
 <producer id="producer15" in="00:00:00.000" out="00:00:04.967">
  <property name="length">00:00:05.000</property>
  <property name="eof">pause</property>
  <property name="resource">/home/ryankelln/Documents/Projects/Active/Sound_Escapes/Sarah/storyboard/octopus1tv_test_duo_octopus_strength0.05_pcahist_scale0.45_1920.png</property>
  <property name="ttl">25</property>
  <property name="aspect_ratio">1</property>
  <property name="progressive">1</property>
  <property name="seekable">1</property>
  <property name="meta.media.width">1920</property>
  <property name="meta.media.height">1088</property>
  <property name="mlt_service">qimage</property>
  <property name="kdenlive:clipname"/>
  <property name="kdenlive:duration">00:00:05.000</property>
  <property name="kdenlive:folderid">20</property>
  <property name="kdenlive:id">15</property>
  <property name="kdenlive:file_size">3649048</property>
  <property name="kdenlive:file_hash">f99b06697039bc536c1fc2d8a08c7790</property>
 </producer>
 <producer id="producer14" in="00:00:00.000" out="00:00:04.967">
  <property name="length">00:00:05.000</property>
  <property name="eof">pause</property>
  <property name="resource">/home/ryankelln/Documents/Projects/Active/Sound_Escapes/Sarah/storyboard/parrot1f_test_duo_parrot_strength0.06_pcahist_scale0.2_1920.png</property>
  <property name="ttl">25</property>
  <property name="aspect_ratio">1</property>
  <property name="progressive">1</property>
  <property name="seekable">1</property>
  <property name="meta.media.width">1920</property>
  <property name="meta.media.height">1088</property>
  <property name="mlt_service">qimage</property>
  <property name="kdenlive:clipname"/>
  <property name="kdenlive:duration">00:00:05.000</property>
  <property name="kdenlive:folderid">20</property>
  <property name="kdenlive:id">16</property>
  <property name="kdenlive:file_size">3671887</property>
  <property name="kdenlive:file_hash">e260bd88aec9180ce40116445a0e9f25</property>
 </producer>
 <producer id="producer12" in="00:00:00.000" out="00:00:04.967">
  <property name="length">00:00:05.000</property>
  <property name="eof">pause</property>
  <property name="resource">/home/ryankelln/Documents/Projects/Active/Sound_Escapes/Sarah/storyboard/sea_slug1_test_duo_sea_slug_strength0.05_pcahist_scale0.5_1920.png</property>
  <property name="ttl">25</property>
  <property name="aspect_ratio">1</property>
  <property name="progressive">1</property>
  <property name="seekable">1</property>
  <property name="meta.media.width">1920</property>
  <property name="meta.media.height">1088</property>
  <property name="mlt_service">qimage</property>
  <property name="kdenlive:clipname"/>
  <property name="kdenlive:duration">00:00:05.000</property>
  <property name="kdenlive:folderid">20</property>
  <property name="kdenlive:id">17</property>
  <property name="kdenlive:file_size">4390791</property>
  <property name="kdenlive:file_hash">392a14e89cc2fbe0d58c3dd6a7219d40</property>
 </producer>
 <producer id="producer16" in="00:00:00.000" out="00:00:04.967">
  <property name="length">00:00:05.000</property>
  <property name="eof">pause</property>
  <property name="resource">/home/ryankelln/Documents/Projects/Active/Sound_Escapes/Sarah/storyboard/tiger2f_test_duo_tiger_strength0.06_pcahist_scale0.6_1920.png</property>
  <property name="ttl">25</property>
  <property name="aspect_ratio">1</property>
  <property name="progressive">1</property>
  <property name="seekable">1</property>
  <property name="meta.media.width">1920</property>
  <property name="meta.media.height">1088</property>
  <property name="mlt_service">qimage</property>
  <property name="kdenlive:clipname"/>
  <property name="kdenlive:duration">00:00:05.000</property>
  <property name="kdenlive:folderid">20</property>
  <property name="kdenlive:id">18</property>
  <property name="kdenlive:file_size">4552614</property>
  <property name="kdenlive:file_hash">ebe4d1d1e61180772fc2e3057a049dd6</property>
 </producer>
 <producer id="producer17" in="00:00:00.000" out="00:05:58.233">
  <property name="length">10748</property>
  <property name="eof">pause</property>
  <property name="resource">20210602_SpectrumMusic-SoundEscapesSARAH EDIT 1.wav</property>
  <property name="meta.media.nb_streams">1</property>
  <property name="meta.media.0.stream.type">audio</property>
  <property name="meta.media.0.codec.sample_fmt">s32</property>
  <property name="meta.media.0.codec.sample_rate">48000</property>
  <property name="meta.media.0.codec.channels">2</property>
  <property name="meta.media.0.codec.name">pcm_s24le</property>
  <property name="meta.media.0.codec.long_name">PCM signed 24-bit little-endian</property>
  <property name="meta.media.0.codec.bit_rate">2304000</property>
  <property name="meta.attr.encoded_by.markup">Pro Tools</property>
  <property name="meta.attr.originator_reference.markup">aui7NFOe1GVk</property>
  <property name="meta.attr.date.markup">2021-06-07</property>
  <property name="meta.attr.creation_time.markup">19:16:09</property>
  <property name="meta.attr.time_reference.markup">86947771</property>
  <property name="meta.attr.umid.markup">0x060A2B340101010501010F1013000000F8351287E7EC8500E892005056C00001</property>
  <property name="seekable">1</property>
  <property name="audio_index">0</property>
  <property name="video_index">-1</property>
  <property name="mute_on_pause">1</property>
  <property name="mlt_service">avformat</property>
  <property name="kdenlive:clipname"/>
  <property name="kdenlive:folderid">-1</property>
  <property name="kdenlive:id">19</property>
  <property name="kdenlive:file_size">103726800</property>
  <property name="kdenlive:file_hash">500fb44960db9c9a8d09a41d30a6a085</property>
  <property name="kdenlive:audio_max">2</property>
  <property name="global_feed">1</property>
 </producer>
 <producer id="producer21" in="00:00:00.000" out="00:01:34.567">
  <property name="length">2838</property>
  <property name="eof">pause</property>
  <property name="resource">/home/ryankelln/.cache/kdenlive/proxy/da970b83fbe60ca04de6e51c97c1f0e2.mkv</property>
  <property name="audio_index">1</property>
  <property name="video_index">0</property>
  <property name="mute_on_pause">0</property>
  <property name="mlt_service">avformat-novalidate</property>
  <property name="seekable">1</property>
  <property name="aspect_ratio">1</property>
  <property name="kdenlive:clipname">2021-02-06_Chris_synth+4k_sarah_P1180161-take2_start.MP4</property>
  <property name="kdenlive:folderid">22</property>
  <property name="kdenlive:id">21</property>
  <property name="kdenlive:file_size">1132989340</property>
  <property name="kdenlive:file_hash">da970b83fbe60ca04de6e51c97c1f0e2</property>
  <property name="kdenlive:audio_max">1</property>
  <property name="global_feed">1</property>
  <property name="kdenlive:proxy">/home/ryankelln/.cache/kdenlive/proxy/da970b83fbe60ca04de6e51c97c1f0e2.mkv</property>
  <property name="kdenlive:originalurl">content/musicians/2021-02-06_Chris_synth+4k_sarah_P1180161-take2_start.MP4</property>
  <property name="kdenlive:original.mlt_type">producer</property>
  <property name="kdenlive:original.in">00:00:00.000</property>
  <property name="kdenlive:original.out">00:01:34.567</property>
  <property name="kdenlive:original.length">2838</property>
  <property name="kdenlive:original.eof">pause</property>
  <property name="kdenlive:original.resource">content/musicians/2021-02-06_Chris_synth+4k_sarah_P1180161-take2_start.MP4</property>
  <property name="kdenlive:original.audio_index">1</property>
  <property name="kdenlive:original.video_index">0</property>
  <property name="kdenlive:original.mute_on_pause">0</property>
  <property name="kdenlive:original.mlt_service">avformat-novalidate</property>
  <property name="kdenlive:original.id">producer22</property>
  <property name="kdenlive:original.meta.media.nb_streams">2</property>
  <property name="kdenlive:original.meta.media.0.stream.type">video</property>
  <property name="kdenlive:original.meta.media.0.stream.frame_rate">29.97</property>
  <property name="kdenlive:original.meta.media.0.stream.sample_aspect_ratio">1</property>
  <property name="kdenlive:original.meta.media.0.codec.width">3840</property>
  <property name="kdenlive:original.meta.media.0.codec.height">2160</property>
  <property name="kdenlive:original.meta.media.0.codec.rotate">0</property>
  <property name="kdenlive:original.meta.media.0.codec.frame_rate">29.97</property>
  <property name="kdenlive:original.meta.media.0.codec.pix_fmt">yuvj420p</property>
  <property name="kdenlive:original.meta.media.0.codec.sample_aspect_ratio">1</property>
  <property name="kdenlive:original.meta.media.0.codec.colorspace">709</property>
  <property name="kdenlive:original.meta.media.0.codec.color_trc">1</property>
  <property name="kdenlive:original.meta.media.0.codec.name">h264</property>
  <property name="kdenlive:original.meta.media.0.codec.long_name">H.264 / AVC / MPEG-4 AVC / MPEG-4 part 10</property>
  <property name="kdenlive:original.meta.media.0.codec.bit_rate">95752163</property>
  <property name="kdenlive:original.meta.attr.0.stream.creation_time.markup">2021-06-02T15:49:21.000000Z</property>
  <property name="kdenlive:original.meta.attr.0.stream.handler_name.markup">VideoHandler</property>
  <property name="kdenlive:original.meta.media.1.stream.type">audio</property>
  <property name="kdenlive:original.meta.media.1.codec.sample_fmt">fltp</property>
  <property name="kdenlive:original.meta.media.1.codec.sample_rate">48000</property>
  <property name="kdenlive:original.meta.media.1.codec.channels">2</property>
  <property name="kdenlive:original.meta.media.1.codec.name">aac</property>
  <property name="kdenlive:original.meta.media.1.codec.long_name">AAC (Advanced Audio Coding)</property>
  <property name="kdenlive:original.meta.media.1.codec.bit_rate">125360</property>
  <property name="kdenlive:original.meta.attr.1.stream.creation_time.markup">2021-06-02T15:49:21.000000Z</property>
  <property name="kdenlive:original.meta.attr.1.stream.handler_name.markup">SoundHandler</property>
  <property name="kdenlive:original.meta.attr.major_brand.markup">isom</property>
  <property name="kdenlive:original.meta.attr.minor_version.markup">512</property>
  <property name="kdenlive:original.meta.attr.compatible_brands.markup">isomiso2avc1mp41</property>
  <property name="kdenlive:original.meta.attr.creation_time.markup">2021-06-02T15:49:21.000000Z</property>
  <property name="kdenlive:original.meta.attr.encoder.markup">Lavf58.45.100</property>
  <property name="kdenlive:original.seekable">1</property>
  <property name="kdenlive:original.meta.media.sample_aspect_num">1</property>
  <property name="kdenlive:original.meta.media.sample_aspect_den">1</property>
  <property name="kdenlive:original.aspect_ratio">1</property>
  <property name="kdenlive:original.kdenlive:folderid">22</property>
  <property name="kdenlive:original.meta.media.frame_rate_num">30000</property>
  <property name="kdenlive:original.meta.media.frame_rate_den">1001</property>
  <property name="kdenlive:original.meta.media.colorspace">709</property>
  <property name="kdenlive:original.meta.media.color_trc">1</property>
  <property name="kdenlive:original.meta.media.width">3840</property>
  <property name="kdenlive:original.meta.media.height">2160</property>
  <property name="kdenlive:original.meta.media.color_range">full</property>
  <property name="kdenlive:original.kdenlive:id">21</property>
  <property name="kdenlive:original.kdenlive:file_size">1132989340</property>
  <property name="kdenlive:original.kdenlive:file_hash">da970b83fbe60ca04de6e51c97c1f0e2</property>
  <property name="kdenlive:original.kdenlive:audio_max">1</property>
  <property name="kdenlive:original.meta.media.top_field_first">0</property>
  <property name="kdenlive:original.meta.media.progressive">1</property>
  <property name="kdenlive:original.global_feed">1</property>
  <property name="kdenlive:original.width">3840</property>
  <property name="kdenlive:original.height">2160</property>
  <property name="kdenlive:original.backup">1</property>
  <property name="meta.media.nb_streams">2</property>
  <property name="meta.media.0.stream.type">video</property>
  <property name="meta.media.0.stream.frame_rate">29.97</property>
  <property name="meta.media.0.stream.sample_aspect_ratio">1</property>
  <property name="meta.media.0.codec.width">640</property>
  <property name="meta.media.0.codec.height">360</property>
  <property name="meta.media.0.codec.rotate">0</property>
  <property name="meta.media.0.codec.frame_rate">1000</property>
  <property name="meta.media.0.codec.pix_fmt">yuvj420p</property>
  <property name="meta.media.0.codec.sample_aspect_ratio">1</property>
  <property name="meta.media.0.codec.colorspace">601</property>
  <property name="meta.media.0.codec.name">mjpeg</property>
  <property name="meta.media.0.codec.long_name">MJPEG (Motion JPEG)</property>
  <property name="meta.media.0.codec.bit_rate">0</property>
  <property name="meta.attr.0.stream.HANDLER_NAME.markup">VideoHandler</property>
  <property name="meta.attr.0.stream.ENCODER.markup">Lavc58.91.100 mjpeg</property>
  <property name="meta.attr.0.stream.DURATION.markup">00:01:34.628000000</property>
  <property name="meta.media.1.stream.type">audio</property>
  <property name="meta.media.1.codec.sample_fmt">s16</property>
  <property name="meta.media.1.codec.sample_rate">48000</property>
  <property name="meta.media.1.codec.channels">2</property>
  <property name="meta.media.1.codec.name">pcm_s16le</property>
  <property name="meta.media.1.codec.long_name">PCM signed 16-bit little-endian</property>
  <property name="meta.media.1.codec.bit_rate">1536000</property>
  <property name="meta.attr.1.stream.HANDLER_NAME.markup">SoundHandler</property>
  <property name="meta.attr.1.stream.ENCODER.markup">Lavc58.91.100 pcm_s16le</property>
  <property name="meta.attr.1.stream.DURATION.markup">00:01:34.613000000</property>
  <property name="meta.attr.COMPATIBLE_BRANDS.markup">isomiso2avc1mp41</property>
  <property name="meta.attr.MAJOR_BRAND.markup">isom</property>
  <property name="meta.attr.MINOR_VERSION.markup">512</property>
  <property name="meta.attr.ENCODER.markup">Lavf58.45.100</property>
  <property name="meta.media.sample_aspect_num">1</property>
  <property name="meta.media.sample_aspect_den">1</property>
  <property name="meta.media.frame_rate_num">30000</property>
  <property name="meta.media.frame_rate_den">1001</property>
  <property name="meta.media.colorspace">601</property>
  <property name="meta.media.color_trc">2</property>
  <property name="meta.media.width">640</property>
  <property name="meta.media.height">360</property>
  <property name="meta.media.color_range">full</property>
  <property name="meta.media.top_field_first">0</property>
  <property name="meta.media.progressive">1</property>
 </producer>
 <producer id="producer22" in="00:00:00.000" out="00:04:49.833">
  <property name="length">8696</property>
  <property name="eof">pause</property>
  <property name="resource">/home/ryankelln/.cache/kdenlive/proxy/a281898ead78dab9d417b8c3e676a6c8.mkv</property>
  <property name="audio_index">1</property>
  <property name="video_index">0</property>
  <property name="mute_on_pause">0</property>
  <property name="mlt_service">avformat-novalidate</property>
  <property name="seekable">1</property>
  <property name="aspect_ratio">1</property>
  <property name="kdenlive:clipname">2021-02-06_Chris_synth+4k_sarah_P1180162-take3_partial_from_bass_solo.MP4</property>
  <property name="kdenlive:folderid">22</property>
  <property name="kdenlive:id">23</property>
  <property name="kdenlive:file_size">3475788005</property>
  <property name="kdenlive:file_hash">a281898ead78dab9d417b8c3e676a6c8</property>
  <property name="kdenlive:audio_max">1</property>
  <property name="global_feed">1</property>
  <property name="kdenlive:proxy">/home/ryankelln/.cache/kdenlive/proxy/a281898ead78dab9d417b8c3e676a6c8.mkv</property>
  <property name="kdenlive:originalurl">content/musicians/2021-02-06_Chris_synth+4k_sarah_P1180162-take3_partial_from_bass_solo.MP4</property>
  <property name="kdenlive:original.mlt_type">producer</property>
  <property name="kdenlive:original.in">00:00:00.000</property>
  <property name="kdenlive:original.out">00:04:49.833</property>
  <property name="kdenlive:original.length">8696</property>
  <property name="kdenlive:original.eof">pause</property>
  <property name="kdenlive:original.resource">content/musicians/2021-02-06_Chris_synth+4k_sarah_P1180162-take3_partial_from_bass_solo.MP4</property>
  <property name="kdenlive:original.audio_index">1</property>
  <property name="kdenlive:original.video_index">0</property>
  <property name="kdenlive:original.mute_on_pause">0</property>
  <property name="kdenlive:original.mlt_service">avformat-novalidate</property>
  <property name="kdenlive:original.id">producer21</property>
  <property name="kdenlive:original.meta.media.nb_streams">2</property>
  <property name="kdenlive:original.meta.media.0.stream.type">video</property>
  <property name="kdenlive:original.meta.media.0.stream.frame_rate">29.9699</property>
  <property name="kdenlive:original.meta.media.0.stream.sample_aspect_ratio">1</property>
  <property name="kdenlive:original.meta.media.0.codec.width">3840</property>
  <property name="kdenlive:original.meta.media.0.codec.height">2160</property>
  <property name="kdenlive:original.meta.media.0.codec.rotate">0</property>
  <property name="kdenlive:original.meta.media.0.codec.frame_rate">29.97</property>
  <property name="kdenlive:original.meta.media.0.codec.pix_fmt">yuvj420p</property>
  <property name="kdenlive:original.meta.media.0.codec.sample_aspect_ratio">1</property>
  <property name="kdenlive:original.meta.media.0.codec.colorspace">709</property>
  <property name="kdenlive:original.meta.media.0.codec.color_trc">1</property>
  <property name="kdenlive:original.meta.media.0.codec.name">h264</property>
  <property name="kdenlive:original.meta.media.0.codec.long_name">H.264 / AVC / MPEG-4 AVC / MPEG-4 part 10</property>
  <property name="kdenlive:original.meta.media.0.codec.bit_rate">95808168</property>
  <property name="kdenlive:original.meta.attr.0.stream.handler_name.markup">VideoHandler</property>
  <property name="kdenlive:original.meta.media.1.stream.type">audio</property>
  <property name="kdenlive:original.meta.media.1.codec.sample_fmt">fltp</property>
  <property name="kdenlive:original.meta.media.1.codec.sample_rate">48000</property>
  <property name="kdenlive:original.meta.media.1.codec.channels">2</property>
  <property name="kdenlive:original.meta.media.1.codec.name">aac</property>
  <property name="kdenlive:original.meta.media.1.codec.long_name">AAC (Advanced Audio Coding)</property>
  <property name="kdenlive:original.meta.media.1.codec.bit_rate">125377</property>
  <property name="kdenlive:original.meta.attr.1.stream.handler_name.markup">SoundHandler</property>
  <property name="kdenlive:original.meta.attr.major_brand.markup">isom</property>
  <property name="kdenlive:original.meta.attr.minor_version.markup">512</property>
  <property name="kdenlive:original.meta.attr.compatible_brands.markup">isomiso2avc1mp41</property>
  <property name="kdenlive:original.meta.attr.encoder.markup">Lavf58.45.100</property>
  <property name="kdenlive:original.seekable">1</property>
  <property name="kdenlive:original.meta.media.sample_aspect_num">1</property>
  <property name="kdenlive:original.meta.media.sample_aspect_den">1</property>
  <property name="kdenlive:original.aspect_ratio">1</property>
  <property name="kdenlive:original.kdenlive:folderid">22</property>
  <property name="kdenlive:original.meta.media.frame_rate_num">65145000</property>
  <property name="kdenlive:original.meta.media.frame_rate_den">2173679</property>
  <property name="kdenlive:original.meta.media.colorspace">709</property>
  <property name="kdenlive:original.meta.media.color_trc">1</property>
  <property name="kdenlive:original.meta.media.width">3840</property>
  <property name="kdenlive:original.meta.media.height">2160</property>
  <property name="kdenlive:original.meta.media.color_range">full</property>
  <property name="kdenlive:original.kdenlive:id">23</property>
  <property name="kdenlive:original.kdenlive:file_size">3475788005</property>
  <property name="kdenlive:original.kdenlive:file_hash">a281898ead78dab9d417b8c3e676a6c8</property>
  <property name="kdenlive:original.kdenlive:audio_max">1</property>
  <property name="kdenlive:original.meta.media.top_field_first">0</property>
  <property name="kdenlive:original.meta.media.progressive">1</property>
  <property name="kdenlive:original.global_feed">1</property>
  <property name="kdenlive:original.width">3840</property>
  <property name="kdenlive:original.height">2160</property>
  <property name="kdenlive:original.backup">1</property>
  <property name="meta.media.nb_streams">2</property>
  <property name="meta.media.0.stream.type">video</property>
  <property name="meta.media.0.stream.frame_rate">29.97</property>
  <property name="meta.media.0.stream.sample_aspect_ratio">1</property>
  <property name="meta.media.0.codec.width">640</property>
  <property name="meta.media.0.codec.height">360</property>
  <property name="meta.media.0.codec.rotate">0</property>
  <property name="meta.media.0.codec.frame_rate">1000</property>
  <property name="meta.media.0.codec.pix_fmt">yuvj420p</property>
  <property name="meta.media.0.codec.sample_aspect_ratio">1</property>
  <property name="meta.media.0.codec.colorspace">601</property>
  <property name="meta.media.0.codec.name">mjpeg</property>
  <property name="meta.media.0.codec.long_name">MJPEG (Motion JPEG)</property>
  <property name="meta.media.0.codec.bit_rate">0</property>
  <property name="meta.attr.0.stream.HANDLER_NAME.markup">VideoHandler</property>
  <property name="meta.attr.0.stream.ENCODER.markup">Lavc58.91.100 mjpeg</property>
  <property name="meta.attr.0.stream.DURATION.markup">00:04:49.923000000</property>
  <property name="meta.media.1.stream.type">audio</property>
  <property name="meta.media.1.codec.sample_fmt">s16</property>
  <property name="meta.media.1.codec.sample_rate">48000</property>
  <property name="meta.media.1.codec.channels">2</property>
  <property name="meta.media.1.codec.name">pcm_s16le</property>
  <property name="meta.media.1.codec.long_name">PCM signed 16-bit little-endian</property>
  <property name="meta.media.1.codec.bit_rate">1536000</property>
  <property name="meta.attr.1.stream.HANDLER_NAME.markup">SoundHandler</property>
  <property name="meta.attr.1.stream.ENCODER.markup">Lavc58.91.100 pcm_s16le</property>
  <property name="meta.attr.1.stream.DURATION.markup">00:04:49.851000000</property>
  <property name="meta.attr.COMPATIBLE_BRANDS.markup">isomiso2avc1mp41</property>
  <property name="meta.attr.MAJOR_BRAND.markup">isom</property>
  <property name="meta.attr.MINOR_VERSION.markup">512</property>
  <property name="meta.attr.ENCODER.markup">Lavf58.45.100</property>
  <property name="meta.media.sample_aspect_num">1</property>
  <property name="meta.media.sample_aspect_den">1</property>
  <property name="meta.media.frame_rate_num">30000</property>
  <property name="meta.media.frame_rate_den">1001</property>
  <property name="meta.media.colorspace">601</property>
  <property name="meta.media.color_trc">2</property>
  <property name="meta.media.width">640</property>
  <property name="meta.media.height">360</property>
  <property name="meta.media.color_range">full</property>
  <property name="kdenlive:activeeffect">-1</property>
  <property name="meta.media.top_field_first">0</property>
  <property name="meta.media.progressive">1</property>
 </producer>
 <producer id="producer20" in="00:00:00.000" out="00:04:52.800">
  <property name="length">8785</property>
  <property name="eof">pause</property>
  <property name="resource">content/musicians/2021-06-02_162118_Sarah_kit+handheld_sarah-take3.mp4</property>
  <property name="audio_index">1</property>
  <property name="video_index">0</property>
  <property name="mute_on_pause">0</property>
  <property name="mlt_service">avformat-novalidate</property>
  <property name="meta.media.nb_streams">2</property>
  <property name="meta.media.0.stream.type">video</property>
  <property name="meta.media.0.stream.frame_rate">59.9401</property>
  <property name="meta.media.0.stream.sample_aspect_ratio">1</property>
  <property name="meta.media.0.codec.width">1920</property>
  <property name="meta.media.0.codec.height">1080</property>
  <property name="meta.media.0.codec.rotate">0</property>
  <property name="meta.media.0.codec.frame_rate">59.9401</property>
  <property name="meta.media.0.codec.pix_fmt">yuv420p</property>
  <property name="meta.media.0.codec.sample_aspect_ratio">1</property>
  <property name="meta.media.0.codec.colorspace">709</property>
  <property name="meta.media.0.codec.name">h264</property>
  <property name="meta.media.0.codec.long_name">H.264 / AVC / MPEG-4 AVC / MPEG-4 part 10</property>
  <property name="meta.media.0.codec.bit_rate">24946919</property>
  <property name="meta.attr.0.stream.handler_name.markup">VideoHandler</property>
  <property name="meta.media.1.stream.type">audio</property>
  <property name="meta.media.1.codec.sample_fmt">fltp</property>
  <property name="meta.media.1.codec.sample_rate">48000</property>
  <property name="meta.media.1.codec.channels">6</property>
  <property name="meta.media.1.codec.name">ac3</property>
  <property name="meta.media.1.codec.long_name">ATSC A/52A (AC-3)</property>
  <property name="meta.media.1.codec.bit_rate">448000</property>
  <property name="meta.attr.1.stream.handler_name.markup">SoundHandler</property>
  <property name="meta.attr.major_brand.markup">isom</property>
  <property name="meta.attr.minor_version.markup">512</property>
  <property name="meta.attr.compatible_brands.markup">isomiso2avc1mp41</property>
  <property name="meta.attr.encoder.markup">Lavf58.45.100</property>
  <property name="seekable">1</property>
  <property name="meta.media.sample_aspect_num">1</property>
  <property name="meta.media.sample_aspect_den">1</property>
  <property name="aspect_ratio">1</property>
  <property name="kdenlive:clipname"/>
  <property name="kdenlive:folderid">22</property>
  <property name="meta.media.frame_rate_num">1579770000</property>
  <property name="meta.media.frame_rate_den">26355829</property>
  <property name="meta.media.colorspace">709</property>
  <property name="meta.media.color_trc">2</property>
  <property name="meta.media.width">1920</property>
  <property name="meta.media.height">1080</property>
  <property name="meta.media.color_range">mpeg</property>
  <property name="kdenlive:id">24</property>
  <property name="kdenlive:file_size">929894063</property>
  <property name="kdenlive:file_hash">e273f21fe0e5f0a842788ae33423a32a</property>
  <property name="kdenlive:audio_max">4</property>
  <property name="meta.media.top_field_first">0</property>
  <property name="meta.media.progressive">1</property>
  <property name="global_feed">1</property>
 </producer>
 <producer id="producer19" in="00:00:00.000" out="00:04:48.267">
  <property name="length">8649</property>
  <property name="eof">pause</property>
  <property name="resource">content/musicians/2021-06-02_Caleb+Chris_electric+synth+handheld+portrait_sarah_MVI_6003-take3_from_bass_solo.mp4</property>
  <property name="audio_index">-1</property>
  <property name="video_index">0</property>
  <property name="mute_on_pause">0</property>
  <property name="mlt_service">avformat-novalidate</property>
  <property name="meta.media.nb_streams">1</property>
  <property name="meta.media.0.stream.type">video</property>
  <property name="meta.media.0.stream.frame_rate">29.97</property>
  <property name="meta.media.0.stream.sample_aspect_ratio">0</property>
  <property name="meta.media.0.codec.width">1920</property>
  <property name="meta.media.0.codec.height">1080</property>
  <property name="meta.media.0.codec.rotate">90</property>
  <property name="meta.media.0.codec.frame_rate">30000</property>
  <property name="meta.media.0.codec.pix_fmt">yuvj420p</property>
  <property name="meta.media.0.codec.sample_aspect_ratio">0</property>
  <property name="meta.media.0.codec.colorspace">601</property>
  <property name="meta.media.0.codec.color_trc">1</property>
  <property name="meta.media.0.codec.name">h264</property>
  <property name="meta.media.0.codec.long_name">H.264 / AVC / MPEG-4 AVC / MPEG-4 part 10</property>
  <property name="meta.media.0.codec.bit_rate">45476678</property>
  <property name="meta.attr.0.stream.rotate.markup">90</property>
  <property name="meta.attr.0.stream.creation_time.markup">2021-06-02T16:15:36.000000Z</property>
  <property name="meta.attr.0.stream.language.markup">eng</property>
  <property name="meta.attr.0.stream.handler_name.markup">VideoHandler</property>
  <property name="meta.attr.major_brand.markup">isom</property>
  <property name="meta.attr.minor_version.markup">512</property>
  <property name="meta.attr.compatible_brands.markup">isomiso2avc1mp41</property>
  <property name="meta.attr.creation_time.markup">2021-06-02T16:15:36.000000Z</property>
  <property name="meta.attr.encoder.markup">Lavf58.45.100</property>
  <property name="seekable">1</property>
  <property name="meta.media.sample_aspect_num">1</property>
  <property name="meta.media.sample_aspect_den">1</property>
  <property name="aspect_ratio">1</property>
  <property name="kdenlive:clipname"/>
  <property name="kdenlive:folderid">22</property>
  <property name="meta.media.frame_rate_num">30000</property>
  <property name="meta.media.frame_rate_den">1001</property>
  <property name="meta.media.colorspace">601</property>
  <property name="meta.media.color_trc">1</property>
  <property name="meta.media.width">1080</property>
  <property name="meta.media.height">1920</property>
  <property name="meta.media.color_range">full</property>
  <property name="kdenlive:id">25</property>
  <property name="kdenlive:file_size">1638843122</property>
  <property name="kdenlive:file_hash">5370f545878c3b9e987605c323045aa8</property>
  <property name="meta.media.top_field_first">0</property>
  <property name="meta.media.progressive">1</property>
  <property name="kdenlive:zone_in">2403</property>
  <property name="kdenlive:zone_out">8479</property>
  <property name="kdenlive:clipzones">[
    {
        "in": 650,
        "name": "Caleb-portrait-handheld",
        "out": 1845
    },
    {
        "in": 2403,
        "name": "Chris-portrait-handheld",
        "out": 8479
    }
]
</property>
  <property name="global_feed">1</property>
 </producer>
 <producer id="producer18" in="00:00:00.000" out="00:01:25.100">
  <property name="length">2554</property>
  <property name="eof">pause</property>
  <property name="resource">/home/ryankelln/.cache/kdenlive/proxy/ce779b7974f19632a07732a59b8bd64b.mkv</property>
  <property name="audio_index">1</property>
  <property name="video_index">0</property>
  <property name="mute_on_pause">0</property>
  <property name="mlt_service">avformat-novalidate</property>
  <property name="seekable">1</property>
  <property name="aspect_ratio">1</property>
  <property name="kdenlive:clipname">2021-06-02_Caleb_electric+4k_sarah_P1000551-take2_start.MP4</property>
  <property name="kdenlive:folderid">22</property>
  <property name="kdenlive:id">26</property>
  <property name="kdenlive:file_size">1019834394</property>
  <property name="kdenlive:file_hash">ce779b7974f19632a07732a59b8bd64b</property>
  <property name="kdenlive:audio_max">1</property>
  <property name="global_feed">1</property>
  <property name="kdenlive:proxy">/home/ryankelln/.cache/kdenlive/proxy/ce779b7974f19632a07732a59b8bd64b.mkv</property>
  <property name="kdenlive:originalurl">content/musicians/2021-06-02_Caleb_electric+4k_sarah_P1000551-take2_start.MP4</property>
  <property name="kdenlive:original.mlt_type">producer</property>
  <property name="kdenlive:original.in">00:00:00.000</property>
  <property name="kdenlive:original.out">00:01:25.100</property>
  <property name="kdenlive:original.length">2554</property>
  <property name="kdenlive:original.eof">pause</property>
  <property name="kdenlive:original.resource">content/musicians/2021-06-02_Caleb_electric+4k_sarah_P1000551-take2_start.MP4</property>
  <property name="kdenlive:original.audio_index">1</property>
  <property name="kdenlive:original.video_index">0</property>
  <property name="kdenlive:original.mute_on_pause">0</property>
  <property name="kdenlive:original.mlt_service">avformat-novalidate</property>
  <property name="kdenlive:original.id">producer24</property>
  <property name="kdenlive:original.meta.media.nb_streams">2</property>
  <property name="kdenlive:original.meta.media.0.stream.type">video</property>
  <property name="kdenlive:original.meta.media.0.stream.frame_rate">29.97</property>
  <property name="kdenlive:original.meta.media.0.stream.sample_aspect_ratio">1</property>
  <property name="kdenlive:original.meta.media.0.codec.width">3328</property>
  <property name="kdenlive:original.meta.media.0.codec.height">2496</property>
  <property name="kdenlive:original.meta.media.0.codec.rotate">0</property>
  <property name="kdenlive:original.meta.media.0.codec.frame_rate">29.97</property>
  <property name="kdenlive:original.meta.media.0.codec.pix_fmt">yuvj420p</property>
  <property name="kdenlive:original.meta.media.0.codec.sample_aspect_ratio">1</property>
  <property name="kdenlive:original.meta.media.0.codec.colorspace">709</property>
  <property name="kdenlive:original.meta.media.0.codec.color_trc">1</property>
  <property name="kdenlive:original.meta.media.0.codec.name">h264</property>
  <property name="kdenlive:original.meta.media.0.codec.long_name">H.264 / AVC / MPEG-4 AVC / MPEG-4 part 10</property>
  <property name="kdenlive:original.meta.media.0.codec.bit_rate">95829617</property>
  <property name="kdenlive:original.meta.attr.0.stream.creation_time.markup">2021-06-02T15:49:01.000000Z</property>
  <property name="kdenlive:original.meta.attr.0.stream.handler_name.markup">VideoHandler</property>
  <property name="kdenlive:original.meta.media.1.stream.type">audio</property>
  <property name="kdenlive:original.meta.media.1.codec.sample_fmt">fltp</property>
  <property name="kdenlive:original.meta.media.1.codec.sample_rate">48000</property>
  <property name="kdenlive:original.meta.media.1.codec.channels">2</property>
  <property name="kdenlive:original.meta.media.1.codec.name">aac</property>
  <property name="kdenlive:original.meta.media.1.codec.long_name">AAC (Advanced Audio Coding)</property>
  <property name="kdenlive:original.meta.media.1.codec.bit_rate">125374</property>
  <property name="kdenlive:original.meta.attr.1.stream.creation_time.markup">2021-06-02T15:49:01.000000Z</property>
  <property name="kdenlive:original.meta.attr.1.stream.handler_name.markup">SoundHandler</property>
  <property name="kdenlive:original.meta.attr.major_brand.markup">isom</property>
  <property name="kdenlive:original.meta.attr.minor_version.markup">512</property>
  <property name="kdenlive:original.meta.attr.compatible_brands.markup">isomiso2avc1mp41</property>
  <property name="kdenlive:original.meta.attr.creation_time.markup">2021-06-02T15:49:01.000000Z</property>
  <property name="kdenlive:original.meta.attr.encoder.markup">Lavf58.45.100</property>
  <property name="kdenlive:original.seekable">1</property>
  <property name="kdenlive:original.meta.media.sample_aspect_num">1</property>
  <property name="kdenlive:original.meta.media.sample_aspect_den">1</property>
  <property name="kdenlive:original.aspect_ratio">1</property>
  <property name="kdenlive:original.kdenlive:folderid">22</property>
  <property name="kdenlive:original.meta.media.frame_rate_num">30000</property>
  <property name="kdenlive:original.meta.media.frame_rate_den">1001</property>
  <property name="kdenlive:original.meta.media.colorspace">709</property>
  <property name="kdenlive:original.meta.media.color_trc">1</property>
  <property name="kdenlive:original.meta.media.width">3328</property>
  <property name="kdenlive:original.meta.media.height">2496</property>
  <property name="kdenlive:original.meta.media.color_range">full</property>
  <property name="kdenlive:original.kdenlive:id">26</property>
  <property name="kdenlive:original.kdenlive:file_size">1019834394</property>
  <property name="kdenlive:original.kdenlive:file_hash">ce779b7974f19632a07732a59b8bd64b</property>
  <property name="kdenlive:original.kdenlive:audio_max">1</property>
  <property name="kdenlive:original.meta.media.top_field_first">0</property>
  <property name="kdenlive:original.meta.media.progressive">1</property>
  <property name="kdenlive:original.global_feed">1</property>
  <property name="kdenlive:original.width">3328</property>
  <property name="kdenlive:original.height">2496</property>
  <property name="kdenlive:original.backup">1</property>
  <property name="meta.media.nb_streams">2</property>
  <property name="meta.media.0.stream.type">video</property>
  <property name="meta.media.0.stream.frame_rate">29.97</property>
  <property name="meta.media.0.stream.sample_aspect_ratio">1</property>
  <property name="meta.media.0.codec.width">640</property>
  <property name="meta.media.0.codec.height">480</property>
  <property name="meta.media.0.codec.rotate">0</property>
  <property name="meta.media.0.codec.frame_rate">1000</property>
  <property name="meta.media.0.codec.pix_fmt">yuvj420p</property>
  <property name="meta.media.0.codec.sample_aspect_ratio">1</property>
  <property name="meta.media.0.codec.colorspace">601</property>
  <property name="meta.media.0.codec.name">mjpeg</property>
  <property name="meta.media.0.codec.long_name">MJPEG (Motion JPEG)</property>
  <property name="meta.media.0.codec.bit_rate">0</property>
  <property name="meta.attr.0.stream.HANDLER_NAME.markup">VideoHandler</property>
  <property name="meta.attr.0.stream.ENCODER.markup">Lavc58.91.100 mjpeg</property>
  <property name="meta.attr.0.stream.DURATION.markup">00:01:25.151000000</property>
  <property name="meta.media.1.stream.type">audio</property>
  <property name="meta.media.1.codec.sample_fmt">s16</property>
  <property name="meta.media.1.codec.sample_rate">48000</property>
  <property name="meta.media.1.codec.channels">2</property>
  <property name="meta.media.1.codec.name">pcm_s16le</property>
  <property name="meta.media.1.codec.long_name">PCM signed 16-bit little-endian</property>
  <property name="meta.media.1.codec.bit_rate">1536000</property>
  <property name="meta.attr.1.stream.HANDLER_NAME.markup">SoundHandler</property>
  <property name="meta.attr.1.stream.ENCODER.markup">Lavc58.91.100 pcm_s16le</property>
  <property name="meta.attr.1.stream.DURATION.markup">00:01:25.120000000</property>
  <property name="meta.attr.COMPATIBLE_BRANDS.markup">isomiso2avc1mp41</property>
  <property name="meta.attr.MAJOR_BRAND.markup">isom</property>
  <property name="meta.attr.MINOR_VERSION.markup">512</property>
  <property name="meta.attr.ENCODER.markup">Lavf58.45.100</property>
  <property name="meta.media.sample_aspect_num">1</property>
  <property name="meta.media.sample_aspect_den">1</property>
  <property name="meta.media.frame_rate_num">30000</property>
  <property name="meta.media.frame_rate_den">1001</property>
  <property name="meta.media.colorspace">601</property>
  <property name="meta.media.color_trc">2</property>
  <property name="meta.media.width">640</property>
  <property name="meta.media.height">480</property>
  <property name="meta.media.color_range">full</property>
  <property name="meta.media.top_field_first">0</property>
  <property name="meta.media.progressive">1</property>
  <property name="kdenlive:activeeffect">0</property>
  <filter id="filter3">
   <property name="version">0.6</property>
   <property name="mlt_service">frei0r.select0r</property>
   <property name="kdenlive_id">frei0r.select0r</property>
   <property name="Color to select">0x2e7e2cff</property>
   <property name="Invert selection">1</property>
   <property name="Selection subspace">1</property>
   <property name="Subspace shape">0.5</property>
   <property name="Edge mode">0.9</property>
   <property name="Delta R / A / Hue">00:00:00.000=0.2</property>
   <property name="Delta G / B / Chroma">00:00:00.000=0.2</property>
   <property name="Delta B / I / I">00:00:00.000=0.2</property>
   <property name="Slope">00:00:00.000=0</property>
   <property name="Operation">0.5</property>
   <property name="kdenlive:collapsed">0</property>
  </filter>
 </producer>
 <producer id="producer24" in="00:00:00.000" out="00:04:51.800">
  <property name="length">8755</property>
  <property name="eof">pause</property>
  <property name="resource">/home/ryankelln/.cache/kdenlive/proxy/d744105bb6ea0a63ee18b489cf89062b.mkv</property>
  <property name="audio_index">1</property>
  <property name="video_index">0</property>
  <property name="mute_on_pause">0</property>
  <property name="mlt_service">avformat-novalidate</property>
  <property name="seekable">1</property>
  <property name="aspect_ratio">1</property>
  <property name="kdenlive:clipname">2021-06-02_Caleb_electric+4k_sarah_P1000552-take3_from-bass-solo.MP4</property>
  <property name="kdenlive:folderid">22</property>
  <property name="kdenlive:id">27</property>
  <property name="kdenlive:file_size">3501183214</property>
  <property name="kdenlive:file_hash">d744105bb6ea0a63ee18b489cf89062b</property>
  <property name="kdenlive:audio_max">1</property>
  <property name="global_feed">1</property>
  <property name="kdenlive:proxy">/home/ryankelln/.cache/kdenlive/proxy/d744105bb6ea0a63ee18b489cf89062b.mkv</property>
  <property name="kdenlive:originalurl">content/musicians/2021-06-02_Caleb_electric+4k_sarah_P1000552-take3_from-bass-solo.MP4</property>
  <property name="kdenlive:original.mlt_type">producer</property>
  <property name="kdenlive:original.in">00:00:00.000</property>
  <property name="kdenlive:original.out">00:04:51.800</property>
  <property name="kdenlive:original.length">8755</property>
  <property name="kdenlive:original.eof">pause</property>
  <property name="kdenlive:original.resource">content/musicians/2021-06-02_Caleb_electric+4k_sarah_P1000552-take3_from-bass-solo.MP4</property>
  <property name="kdenlive:original.audio_index">1</property>
  <property name="kdenlive:original.video_index">0</property>
  <property name="kdenlive:original.mute_on_pause">0</property>
  <property name="kdenlive:original.mlt_service">avformat-novalidate</property>
  <property name="kdenlive:original.id">producer26</property>
  <property name="kdenlive:original.meta.media.nb_streams">2</property>
  <property name="kdenlive:original.meta.media.0.stream.type">video</property>
  <property name="kdenlive:original.meta.media.0.stream.frame_rate">29.9701</property>
  <property name="kdenlive:original.meta.media.0.stream.sample_aspect_ratio">1</property>
  <property name="kdenlive:original.meta.media.0.codec.width">3328</property>
  <property name="kdenlive:original.meta.media.0.codec.height">2496</property>
  <property name="kdenlive:original.meta.media.0.codec.rotate">0</property>
  <property name="kdenlive:original.meta.media.0.codec.frame_rate">29.97</property>
  <property name="kdenlive:original.meta.media.0.codec.pix_fmt">yuvj420p</property>
  <property name="kdenlive:original.meta.media.0.codec.sample_aspect_ratio">1</property>
  <property name="kdenlive:original.meta.media.0.codec.colorspace">709</property>
  <property name="kdenlive:original.meta.media.0.codec.color_trc">1</property>
  <property name="kdenlive:original.meta.media.0.codec.name">h264</property>
  <property name="kdenlive:original.meta.media.0.codec.long_name">H.264 / AVC / MPEG-4 AVC / MPEG-4 part 10</property>
  <property name="kdenlive:original.meta.media.0.codec.bit_rate">95846667</property>
  <property name="kdenlive:original.meta.attr.0.stream.handler_name.markup">VideoHandler</property>
  <property name="kdenlive:original.meta.media.1.stream.type">audio</property>
  <property name="kdenlive:original.meta.media.1.codec.sample_fmt">fltp</property>
  <property name="kdenlive:original.meta.media.1.codec.sample_rate">48000</property>
  <property name="kdenlive:original.meta.media.1.codec.channels">2</property>
  <property name="kdenlive:original.meta.media.1.codec.name">aac</property>
  <property name="kdenlive:original.meta.media.1.codec.long_name">AAC (Advanced Audio Coding)</property>
  <property name="kdenlive:original.meta.media.1.codec.bit_rate">125377</property>
  <property name="kdenlive:original.meta.attr.1.stream.handler_name.markup">SoundHandler</property>
  <property name="kdenlive:original.meta.attr.major_brand.markup">isom</property>
  <property name="kdenlive:original.meta.attr.minor_version.markup">512</property>
  <property name="kdenlive:original.meta.attr.compatible_brands.markup">isomiso2avc1mp41</property>
  <property name="kdenlive:original.meta.attr.encoder.markup">Lavf58.45.100</property>
  <property name="kdenlive:original.seekable">1</property>
  <property name="kdenlive:original.meta.media.sample_aspect_num">1</property>
  <property name="kdenlive:original.meta.media.sample_aspect_den">1</property>
  <property name="kdenlive:original.aspect_ratio">1</property>
  <property name="kdenlive:original.kdenlive:folderid">22</property>
  <property name="kdenlive:original.meta.media.frame_rate_num">262380000</property>
  <property name="kdenlive:original.meta.media.frame_rate_den">8754731</property>
  <property name="kdenlive:original.meta.media.colorspace">709</property>
  <property name="kdenlive:original.meta.media.color_trc">1</property>
  <property name="kdenlive:original.meta.media.width">3328</property>
  <property name="kdenlive:original.meta.media.height">2496</property>
  <property name="kdenlive:original.meta.media.color_range">full</property>
  <property name="kdenlive:original.kdenlive:id">27</property>
  <property name="kdenlive:original.kdenlive:file_size">3501183214</property>
  <property name="kdenlive:original.kdenlive:file_hash">d744105bb6ea0a63ee18b489cf89062b</property>
  <property name="kdenlive:original.kdenlive:audio_max">1</property>
  <property name="kdenlive:original.meta.media.top_field_first">0</property>
  <property name="kdenlive:original.meta.media.progressive">1</property>
  <property name="kdenlive:original.global_feed">1</property>
  <property name="kdenlive:original.width">3328</property>
  <property name="kdenlive:original.height">2496</property>
  <property name="kdenlive:original.backup">1</property>
  <property name="meta.media.nb_streams">2</property>
  <property name="meta.media.0.stream.type">video</property>
  <property name="meta.media.0.stream.frame_rate">29.97</property>
  <property name="meta.media.0.stream.sample_aspect_ratio">1</property>
  <property name="meta.media.0.codec.width">640</property>
  <property name="meta.media.0.codec.height">480</property>
  <property name="meta.media.0.codec.rotate">0</property>
  <property name="meta.media.0.codec.frame_rate">1000</property>
  <property name="meta.media.0.codec.pix_fmt">yuvj420p</property>
  <property name="meta.media.0.codec.sample_aspect_ratio">1</property>
  <property name="meta.media.0.codec.colorspace">601</property>
  <property name="meta.media.0.codec.name">mjpeg</property>
  <property name="meta.media.0.codec.long_name">MJPEG (Motion JPEG)</property>
  <property name="meta.media.0.codec.bit_rate">0</property>
  <property name="meta.attr.0.stream.HANDLER_NAME.markup">VideoHandler</property>
  <property name="meta.attr.0.stream.ENCODER.markup">Lavc58.91.100 mjpeg</property>
  <property name="meta.attr.0.stream.DURATION.markup">00:04:51.925000000</property>
  <property name="meta.media.1.stream.type">audio</property>
  <property name="meta.media.1.codec.sample_fmt">s16</property>
  <property name="meta.media.1.codec.sample_rate">48000</property>
  <property name="meta.media.1.codec.channels">2</property>
  <property name="meta.media.1.codec.name">pcm_s16le</property>
  <property name="meta.media.1.codec.long_name">PCM signed 16-bit little-endian</property>
  <property name="meta.media.1.codec.bit_rate">1536000</property>
  <property name="meta.attr.1.stream.HANDLER_NAME.markup">SoundHandler</property>
  <property name="meta.attr.1.stream.ENCODER.markup">Lavc58.91.100 pcm_s16le</property>
  <property name="meta.attr.1.stream.DURATION.markup">00:04:51.813000000</property>
  <property name="meta.attr.COMPATIBLE_BRANDS.markup">isomiso2avc1mp41</property>
  <property name="meta.attr.MAJOR_BRAND.markup">isom</property>
  <property name="meta.attr.MINOR_VERSION.markup">512</property>
  <property name="meta.attr.ENCODER.markup">Lavf58.45.100</property>
  <property name="meta.media.sample_aspect_num">1</property>
  <property name="meta.media.sample_aspect_den">1</property>
  <property name="meta.media.frame_rate_num">30000</property>
  <property name="meta.media.frame_rate_den">1001</property>
  <property name="meta.media.colorspace">601</property>
  <property name="meta.media.color_trc">2</property>
  <property name="meta.media.width">640</property>
  <property name="meta.media.height">480</property>
  <property name="meta.media.color_range">full</property>
  <property name="meta.media.top_field_first">0</property>
  <property name="meta.media.progressive">1</property>
  <property name="kdenlive:activeeffect">3</property>
  <filter id="filter4">
   <property name="version">0.1</property>
   <property name="mlt_service">frei0r.hqdn3d</property>
   <property name="kdenlive_id">frei0r.hqdn3d</property>
   <property name="Spatial">00:00:00.000=0.096</property>
   <property name="Temporal">00:00:00.000=0.094</property>
   <property name="kdenlive:collapsed">0</property>
  </filter>
  <filter id="filter5">
   <property name="version">0.6</property>
   <property name="mlt_service">frei0r.select0r</property>
   <property name="kdenlive_id">frei0r.select0r</property>
   <property name="Color to select">0x65a65cff</property>
   <property name="Invert selection">1</property>
   <property name="Selection subspace">1</property>
   <property name="Subspace shape">1</property>
   <property name="Edge mode">0.9</property>
   <property name="Delta R / A / Hue">00:00:00.000=0.111</property>
   <property name="Delta G / B / Chroma">00:00:00.000=0.365</property>
   <property name="Delta B / I / I">00:00:00.000=0.317</property>
   <property name="Slope">00:00:00.000=0.129</property>
   <property name="Operation">0.5</property>
   <property name="kdenlive:collapsed">0</property>
  </filter>
  <filter id="filter2">
   <property name="version">0.4</property>
   <property name="mlt_service">frei0r.alpha0ps</property>
   <property name="kdenlive_id">frei0r.alpha0ps</property>
   <property name="Display">0</property>
   <property name="Display input alpha">0</property>
   <property name="Operation">1</property>
   <property name="Threshold">00:00:00.000=0.5</property>
   <property name="Shrink/Grow/Blur amount">00:00:00.000=0.087</property>
   <property name="Invert">0</property>
   <property name="kdenlive:collapsed">0</property>
  </filter>
  <filter id="filter6">
   <property name="version">0.3</property>
   <property name="mlt_service">frei0r.keyspillm0pup</property>
   <property name="kdenlive_id">frei0r.keyspillm0pup</property>
   <property name="Key color">0x44b95bff</property>
   <property name="Target color">0xC87F65ff</property>
   <property name="Mask type">0</property>
   <property name="Tolerance">00:00:00.000=0.27</property>
   <property name="Slope">00:00:00.000=0.283</property>
   <property name="Hue gate">00:00:00.000=0.183</property>
   <property name="Saturation threshold">00:00:00.000=0.15</property>
   <property name="Operation 1">1</property>
   <property name="Amount 1">00:00:00.000=0.5</property>
   <property name="Operation 2">4</property>
   <property name="Amount 2">00:00:00.000=0.131</property>
   <property name="Show mask">0</property>
   <property name="Mask to Alpha">0</property>
   <property name="kdenlive:collapsed">0</property>
  </filter>
 </producer>
 <producer id="producer23" in="00:00:00.000" out="00:03:25.633">
  <property name="length">6170</property>
  <property name="eof">pause</property>
  <property name="resource">content/musicians/2021-06-02_Sarah_kit_sarah_00049-take2.mp4</property>
  <property name="audio_index">1</property>
  <property name="video_index">0</property>
  <property name="mute_on_pause">0</property>
  <property name="mlt_service">avformat-novalidate</property>
  <property name="meta.media.nb_streams">2</property>
  <property name="meta.media.0.stream.type">video</property>
  <property name="meta.media.0.stream.frame_rate">59.9401</property>
  <property name="meta.media.0.stream.sample_aspect_ratio">1.33333</property>
  <property name="meta.media.0.codec.width">1440</property>
  <property name="meta.media.0.codec.height">1080</property>
  <property name="meta.media.0.codec.rotate">0</property>
  <property name="meta.media.0.codec.frame_rate">29.97</property>
  <property name="meta.media.0.codec.pix_fmt">yuv420p</property>
  <property name="meta.media.0.codec.sample_aspect_ratio">1.33333</property>
  <property name="meta.media.0.codec.colorspace">709</property>
  <property name="meta.media.0.codec.name">h264</property>
  <property name="meta.media.0.codec.long_name">H.264 / AVC / MPEG-4 AVC / MPEG-4 part 10</property>
  <property name="meta.media.0.codec.bit_rate">6688963</property>
  <property name="meta.attr.0.stream.handler_name.markup">VideoHandler</property>
  <property name="meta.media.1.stream.type">audio</property>
  <property name="meta.media.1.codec.sample_fmt">fltp</property>
  <property name="meta.media.1.codec.sample_rate">48000</property>
  <property name="meta.media.1.codec.channels">2</property>
  <property name="meta.media.1.codec.name">ac3</property>
  <property name="meta.media.1.codec.long_name">ATSC A/52A (AC-3)</property>
  <property name="meta.media.1.codec.bit_rate">256000</property>
  <property name="meta.attr.1.stream.handler_name.markup">SoundHandler</property>
  <property name="meta.attr.major_brand.markup">isom</property>
  <property name="meta.attr.minor_version.markup">512</property>
  <property name="meta.attr.compatible_brands.markup">isomiso2avc1mp41</property>
  <property name="meta.attr.encoder.markup">Lavf58.45.100</property>
  <property name="seekable">1</property>
  <property name="meta.media.sample_aspect_num">4</property>
  <property name="meta.media.sample_aspect_den">3</property>
  <property name="aspect_ratio">1.33333</property>
  <property name="kdenlive:clipname"/>
  <property name="kdenlive:folderid">22</property>
  <property name="meta.media.frame_rate_num">1109610000</property>
  <property name="meta.media.frame_rate_den">18511993</property>
  <property name="meta.media.colorspace">709</property>
  <property name="meta.media.color_trc">2</property>
  <property name="meta.media.width">1440</property>
  <property name="meta.media.height">1080</property>
  <property name="meta.media.color_range">mpeg</property>
  <property name="kdenlive:id">28</property>
  <property name="kdenlive:file_size">178767904</property>
  <property name="kdenlive:file_hash">92796865885541665f8f7a00441c12c2</property>
  <property name="kdenlive:audio_max">1</property>
  <property name="meta.media.top_field_first">1</property>
  <property name="meta.media.progressive">0</property>
  <property name="global_feed">1</property>
  <property name="kdenlive:activeeffect">0</property>
  <filter id="filter7">
   <property name="version">0.6</property>
   <property name="mlt_service">frei0r.select0r</property>
   <property name="kdenlive_id">frei0r.select0r</property>
   <property name="Color to select">0x3e9159ff</property>
   <property name="Invert selection">1</property>
   <property name="Selection subspace">1</property>
   <property name="Subspace shape">0</property>
   <property name="Edge mode">0.9</property>
   <property name="Delta R / A / Hue">0=0.016</property>
   <property name="Delta G / B / Chroma">0=0.189</property>
   <property name="Delta B / I / I">0=0.385</property>
   <property name="Slope">0=0.149</property>
   <property name="Operation">0.5</property>
   <property name="kdenlive:collapsed">0</property>
  </filter>
 </producer>
 <producer id="producer25" in="00:00:00.000" out="00:05:23.967">
  <property name="length">9720</property>
  <property name="eof">pause</property>
  <property name="resource">content/musicians/2021-06-02_Sarah_kit_sarah_00049-take3_from_bass_solo.mp4</property>
  <property name="audio_index">1</property>
  <property name="video_index">0</property>
  <property name="mute_on_pause">0</property>
  <property name="mlt_service">avformat-novalidate</property>
  <property name="meta.media.nb_streams">2</property>
  <property name="meta.media.0.stream.type">video</property>
  <property name="meta.media.0.stream.frame_rate">59.9401</property>
  <property name="meta.media.0.stream.sample_aspect_ratio">1.33333</property>
  <property name="meta.media.0.codec.width">1440</property>
  <property name="meta.media.0.codec.height">1080</property>
  <property name="meta.media.0.codec.rotate">0</property>
  <property name="meta.media.0.codec.frame_rate">29.97</property>
  <property name="meta.media.0.codec.pix_fmt">yuv420p</property>
  <property name="meta.media.0.codec.sample_aspect_ratio">1.33333</property>
  <property name="meta.media.0.codec.colorspace">709</property>
  <property name="meta.media.0.codec.name">h264</property>
  <property name="meta.media.0.codec.long_name">H.264 / AVC / MPEG-4 AVC / MPEG-4 part 10</property>
  <property name="meta.media.0.codec.bit_rate">6689533</property>
  <property name="meta.attr.0.stream.handler_name.markup">VideoHandler</property>
  <property name="meta.media.1.stream.type">audio</property>
  <property name="meta.media.1.codec.sample_fmt">fltp</property>
  <property name="meta.media.1.codec.sample_rate">48000</property>
  <property name="meta.media.1.codec.channels">2</property>
  <property name="meta.media.1.codec.name">ac3</property>
  <property name="meta.media.1.codec.long_name">ATSC A/52A (AC-3)</property>
  <property name="meta.media.1.codec.bit_rate">256000</property>
  <property name="meta.attr.1.stream.handler_name.markup">SoundHandler</property>
  <property name="meta.attr.major_brand.markup">isom</property>
  <property name="meta.attr.minor_version.markup">512</property>
  <property name="meta.attr.compatible_brands.markup">isomiso2avc1mp41</property>
  <property name="meta.attr.encoder.markup">Lavf58.45.100</property>
  <property name="seekable">1</property>
  <property name="meta.media.sample_aspect_num">4</property>
  <property name="meta.media.sample_aspect_den">3</property>
  <property name="aspect_ratio">1.33333</property>
  <property name="kdenlive:clipname"/>
  <property name="kdenlive:folderid">22</property>
  <property name="meta.media.frame_rate_num">60000</property>
  <property name="meta.media.frame_rate_den">1001</property>
  <property name="meta.media.colorspace">709</property>
  <property name="meta.media.color_trc">2</property>
  <property name="meta.media.width">1440</property>
  <property name="meta.media.height">1080</property>
  <property name="meta.media.color_range">mpeg</property>
  <property name="kdenlive:id">29</property>
  <property name="kdenlive:file_size">281647823</property>
  <property name="kdenlive:file_hash">6e134cdb05b535a713e603c3a0d812f5</property>
  <property name="kdenlive:audio_max">1</property>
  <property name="meta.media.top_field_first">1</property>
  <property name="meta.media.progressive">0</property>
  <property name="global_feed">1</property>
  <property name="kdenlive:activeeffect">4</property>
  <filter id="filter8">
   <property name="version">0.1</property>
   <property name="mlt_service">frei0r.hqdn3d</property>
   <property name="kdenlive_id">frei0r.hqdn3d</property>
   <property name="Spatial">00:00:00.000=0.025</property>
   <property name="Temporal">00:00:00.000=0.01</property>
   <property name="kdenlive:collapsed">0</property>
  </filter>
  <filter id="filter9">
   <property name="version">0.6</property>
   <property name="mlt_service">frei0r.select0r</property>
   <property name="kdenlive_id">frei0r.select0r</property>
   <property name="Color to select">0x43a153ff</property>
   <property name="Invert selection">1</property>
   <property name="Selection subspace">1</property>
   <property name="Subspace shape">0</property>
   <property name="Edge mode">0.9</property>
   <property name="Delta R / A / Hue">00:00:00.000=0.03</property>
   <property name="Delta G / B / Chroma">00:00:00.000=0.14</property>
   <property name="Delta B / I / I">00:00:00.000=0.4</property>
   <property name="Slope">00:00:00.000=0.31</property>
   <property name="Operation">0.5</property>
   <property name="kdenlive:collapsed">0</property>
  </filter>
  <filter id="filter10">
   <property name="version">0.4</property>
   <property name="mlt_service">frei0r.alpha0ps</property>
   <property name="kdenlive_id">frei0r.alpha0ps</property>
   <property name="Display">0</property>
   <property name="Display input alpha">0</property>
   <property name="Operation">1</property>
   <property name="Threshold">00:00:00.000=0.5</property>
   <property name="Shrink/Grow/Blur amount">00:00:00.000=0.1</property>
   <property name="Invert">0</property>
   <property name="kdenlive:collapsed">0</property>
  </filter>
  <filter id="filter11">
   <property name="version">0.3</property>
   <property name="mlt_service">frei0r.keyspillm0pup</property>
   <property name="kdenlive_id">frei0r.keyspillm0pup</property>
   <property name="Key color">0x43a153ff</property>
   <property name="Target color">0xC87F65ff</property>
   <property name="Mask type">0</property>
   <property name="Tolerance">00:00:00.000=0.136</property>
   <property name="Slope">00:00:00.000=0.162</property>
   <property name="Hue gate">00:00:00.000=0.113</property>
   <property name="Saturation threshold">00:00:00.000=0.08</property>
   <property name="Operation 1">1</property>
   <property name="Amount 1">00:00:00.000=0.618</property>
   <property name="Operation 2">4</property>
   <property name="Amount 2">00:00:00.000=0.42</property>
   <property name="Show mask">0</property>
   <property name="Mask to Alpha">0</property>
   <property name="kdenlive:collapsed">0</property>
  </filter>
  <filter id="filter12">
   <property name="mode">alpha</property>
   <property name="alpha_operation">sub</property>
   <property name="invert">0</property>
   <property name="feather">12</property>
   <property name="feather_passes">1</property>
   <property name="mlt_service">rotoscoping</property>
   <property name="kdenlive_id">rotoscoping</property>
   <property name="spline">{
    "0000": [
        [
            [
                0.06268343815513626,
                -0.06865671641791045
            ],
            [
                0.10796645702306079,
                -0.048507462686567165
            ],
            [
                0.12557651991614255,
                0.06417910447761195
            ]
        ],
        [
            [
                0.17840670859538785,
                0.40223880597014927
            ],
            [
                0.1960167714884696,
                0.5149253731343284
            ],
            [
                0.18888888888888886,
                0.5208955223880597
            ]
        ],
        [
            [
                0.16750524109014675,
                0.5388059701492538
            ],
            [
                0.16037735849056603,
                0.5447761194029851
            ],
            [
                0.15450733752620543,
                0.5276119402985074
            ]
        ],
        [
            [
                0.13689727463312368,
                0.4761194029850746
            ],
            [
                0.13102725366876308,
                0.45895522388059706
            ],
            [
                0.12075471698113206,
                0.4593283582089553
            ]
        ],
        [
            [
                0.089937106918239,
                0.46044776119402986
            ],
            [
                0.07966457023060797,
                0.4608208955223881
            ],
            [
                0.07735849056603773,
                0.46791044776119406
            ]
        ],
        [
            [
                0.07044025157232704,
                0.4891791044776119
            ],
            [
                0.06813417190775681,
                0.49626865671641796
            ],
            [
                0.06394129979035638,
                0.4970149253731344
            ]
        ],
        [
            [
                0.05136268343815513,
                0.49925373134328355
            ],
            [
                0.04716981132075471,
                0.5
            ],
            [
                0.04465408805031446,
                0.4944029850746269
            ]
        ],
        [
            [
                0.03710691823899371,
                0.4776119402985075
            ],
            [
                0.03459119496855346,
                0.47201492537313433
            ],
            [
                0.011111111111111108,
                0.47985074626865676
            ]
        ],
        [
            [
                -0.059329140461215936,
                0.5033582089552239
            ],
            [
                -0.08280922431865828,
                0.5111940298507462
            ],
            [
                -0.09412997903563941,
                0.4425373134328358
            ]
        ],
        [
            [
                -0.1280922431865828,
                0.23656716417910445
            ],
            [
                -0.13941299790356393,
                0.16791044776119404
            ],
            [
                -0.13522012578616352,
                0.1044776119402985
            ]
        ],
        [
            [
                -0.12264150943396226,
                -0.08582089552238806
            ],
            [
                -0.11844863731656184,
                -0.14925373134328357
            ],
            [
                -0.07316561844863731,
                -0.1291044776119403
            ]
        ]
    ]
}
</property>
   <property name="kdenlive:collapsed">0</property>
  </filter>
 </producer>
 <producer id="producer26" in="00:00:00.000" out="00:01:50.367">
  <property name="length">3312</property>
  <property name="eof">pause</property>
  <property name="resource">/home/ryankelln/.cache/kdenlive/proxy/b64ced2cf82c852365aec92ea8da5f55.mkv</property>
  <property name="audio_index">1</property>
  <property name="video_index">0</property>
  <property name="mute_on_pause">0</property>
  <property name="mlt_service">avformat-novalidate</property>
  <property name="seekable">1</property>
  <property name="aspect_ratio">1</property>
  <property name="kdenlive:clipname">2021-06-02_161425_Sarah_kit+handheld_sarah-take2_start.mp4</property>
  <property name="kdenlive:folderid">22</property>
  <property name="kdenlive:id">30</property>
  <property name="kdenlive:file_size">348056084</property>
  <property name="kdenlive:file_hash">b64ced2cf82c852365aec92ea8da5f55</property>
  <property name="kdenlive:proxy">/home/ryankelln/.cache/kdenlive/proxy/b64ced2cf82c852365aec92ea8da5f55.mkv</property>
  <property name="kdenlive:originalurl">content/musicians/2021-06-02_161425_Sarah_kit+handheld_sarah-take2_start.mp4</property>
  <property name="kdenlive:original.mlt_type">producer</property>
  <property name="kdenlive:original.in">0</property>
  <property name="kdenlive:original.out">3311</property>
  <property name="kdenlive:original.length">3312</property>
  <property name="kdenlive:original.eof">pause</property>
  <property name="kdenlive:original.resource">content/musicians/2021-06-02_161425_Sarah_kit+handheld_sarah-take2_start.mp4</property>
  <property name="kdenlive:original.meta.media.nb_streams">2</property>
  <property name="kdenlive:original.meta.media.0.stream.type">video</property>
  <property name="kdenlive:original.meta.media.0.stream.frame_rate">59.9401</property>
  <property name="kdenlive:original.meta.media.0.stream.sample_aspect_ratio">1</property>
  <property name="kdenlive:original.meta.media.0.codec.width">1920</property>
  <property name="kdenlive:original.meta.media.0.codec.height">1080</property>
  <property name="kdenlive:original.meta.media.0.codec.rotate">0</property>
  <property name="kdenlive:original.meta.media.0.codec.frame_rate">59.9401</property>
  <property name="kdenlive:original.meta.media.0.codec.pix_fmt">yuv420p</property>
  <property name="kdenlive:original.meta.media.0.codec.sample_aspect_ratio">1</property>
  <property name="kdenlive:original.meta.media.0.codec.colorspace">709</property>
  <property name="kdenlive:original.meta.media.0.codec.name">h264</property>
  <property name="kdenlive:original.meta.media.0.codec.long_name">H.264 / AVC / MPEG-4 AVC / MPEG-4 part 10</property>
  <property name="kdenlive:original.meta.media.0.codec.bit_rate">24996996</property>
  <property name="kdenlive:original.meta.attr.0.stream.handler_name.markup">VideoHandler</property>
  <property name="kdenlive:original.meta.media.1.stream.type">audio</property>
  <property name="kdenlive:original.meta.media.1.codec.sample_fmt">fltp</property>
  <property name="kdenlive:original.meta.media.1.codec.sample_rate">48000</property>
  <property name="kdenlive:original.meta.media.1.codec.channels">6</property>
  <property name="kdenlive:original.meta.media.1.codec.name">ac3</property>
  <property name="kdenlive:original.meta.media.1.codec.long_name">ATSC A/52A (AC-3)</property>
  <property name="kdenlive:original.meta.media.1.codec.bit_rate">448000</property>
  <property name="kdenlive:original.meta.attr.1.stream.handler_name.markup">SoundHandler</property>
  <property name="kdenlive:original.meta.attr.major_brand.markup">isom</property>
  <property name="kdenlive:original.meta.attr.minor_version.markup">512</property>
  <property name="kdenlive:original.meta.attr.compatible_brands.markup">isomiso2avc1mp41</property>
  <property name="kdenlive:original.meta.attr.encoder.markup">Lavf58.45.100</property>
  <property name="kdenlive:original.seekable">1</property>
  <property name="kdenlive:original.width">1920</property>
  <property name="kdenlive:original.height">1080</property>
  <property name="kdenlive:original.meta.media.sample_aspect_num">1</property>
  <property name="kdenlive:original.meta.media.sample_aspect_den">1</property>
  <property name="kdenlive:original.aspect_ratio">1</property>
  <property name="kdenlive:original.audio_index">1</property>
  <property name="kdenlive:original.video_index">0</property>
  <property name="kdenlive:original.mute_on_pause">0</property>
  <property name="kdenlive:original.mlt_service">avformat-novalidate</property>
  <property name="kdenlive:original.kdenlive:folderid">22</property>
  <property name="kdenlive:original.meta.media.frame_rate_num">590040000</property>
  <property name="kdenlive:original.meta.media.frame_rate_den">9843833</property>
  <property name="kdenlive:original.meta.media.colorspace">709</property>
  <property name="kdenlive:original.meta.media.color_trc">2</property>
  <property name="kdenlive:original.meta.media.width">1920</property>
  <property name="kdenlive:original.meta.media.height">1080</property>
  <property name="kdenlive:original.meta.media.color_range">mpeg</property>
  <property name="kdenlive:original.kdenlive:id">33</property>
  <property name="kdenlive:original.kdenlive:file_size">348056084</property>
  <property name="kdenlive:original.kdenlive:file_hash">b64ced2cf82c852365aec92ea8da5f55</property>
  <property name="kdenlive:original.backup">1</property>
  <property name="global_feed">1</property>
  <property name="meta.media.nb_streams">2</property>
  <property name="meta.media.0.stream.type">video</property>
  <property name="meta.media.0.stream.frame_rate">59.9401</property>
  <property name="meta.media.0.stream.sample_aspect_ratio">1</property>
  <property name="meta.media.0.codec.width">640</property>
  <property name="meta.media.0.codec.height">360</property>
  <property name="meta.media.0.codec.rotate">0</property>
  <property name="meta.media.0.codec.frame_rate">1000</property>
  <property name="meta.media.0.codec.pix_fmt">yuvj420p</property>
  <property name="meta.media.0.codec.sample_aspect_ratio">1</property>
  <property name="meta.media.0.codec.colorspace">601</property>
  <property name="meta.media.0.codec.name">mjpeg</property>
  <property name="meta.media.0.codec.long_name">MJPEG (Motion JPEG)</property>
  <property name="meta.media.0.codec.bit_rate">0</property>
  <property name="meta.attr.0.stream.HANDLER_NAME.markup">VideoHandler</property>
  <property name="meta.attr.0.stream.ENCODER.markup">Lavc58.91.100 mjpeg</property>
  <property name="meta.attr.0.stream.DURATION.markup">00:01:50.427000000</property>
  <property name="meta.media.1.stream.type">audio</property>
  <property name="meta.media.1.codec.sample_fmt">s16</property>
  <property name="meta.media.1.codec.sample_rate">48000</property>
  <property name="meta.media.1.codec.channels">6</property>
  <property name="meta.media.1.codec.name">pcm_s16le</property>
  <property name="meta.media.1.codec.long_name">PCM signed 16-bit little-endian</property>
  <property name="meta.media.1.codec.bit_rate">4608000</property>
  <property name="meta.attr.1.stream.HANDLER_NAME.markup">SoundHandler</property>
  <property name="meta.attr.1.stream.ENCODER.markup">Lavc58.91.100 pcm_s16le</property>
  <property name="meta.attr.1.stream.DURATION.markup">00:01:50.400000000</property>
  <property name="meta.attr.COMPATIBLE_BRANDS.markup">isomiso2avc1mp41</property>
  <property name="meta.attr.MAJOR_BRAND.markup">isom</property>
  <property name="meta.attr.MINOR_VERSION.markup">512</property>
  <property name="meta.attr.ENCODER.markup">Lavf58.45.100</property>
  <property name="meta.media.sample_aspect_num">1</property>
  <property name="meta.media.sample_aspect_den">1</property>
  <property name="meta.media.frame_rate_num">19001</property>
  <property name="meta.media.frame_rate_den">317</property>
  <property name="meta.media.colorspace">601</property>
  <property name="meta.media.color_trc">2</property>
  <property name="meta.media.width">640</property>
  <property name="meta.media.height">360</property>
  <property name="meta.media.color_range">full</property>
  <property name="meta.media.top_field_first">0</property>
  <property name="meta.media.progressive">1</property>
  <property name="kdenlive:activeeffect">1</property>
  <filter id="filter14">
   <property name="version">0.4</property>
   <property name="mlt_service">frei0r.alpha0ps</property>
   <property name="kdenlive_id">frei0r.alpha0ps</property>
   <property name="Display">0</property>
   <property name="Display input alpha">0</property>
   <property name="Operation">1</property>
   <property name="Threshold">00:00:00.000=0.5</property>
   <property name="Shrink/Grow/Blur amount">00:00:00.000=0.1</property>
   <property name="Invert">0</property>
   <property name="kdenlive:collapsed">0</property>
  </filter>
  <filter id="filter15">
   <property name="version">0.3</property>
   <property name="mlt_service">frei0r.keyspillm0pup</property>
   <property name="kdenlive_id">frei0r.keyspillm0pup</property>
   <property name="Key color">0x34a855ff</property>
   <property name="Target color">0xC87F65ff</property>
   <property name="Mask type">0</property>
   <property name="Tolerance">00:00:00.000=0.206</property>
   <property name="Slope">00:00:00.000=0.192</property>
   <property name="Hue gate">00:00:00.000=0.165</property>
   <property name="Saturation threshold">00:00:00.000=0.104</property>
   <property name="Operation 1">1</property>
   <property name="Amount 1">00:00:00.000=0.5</property>
   <property name="Operation 2">3</property>
   <property name="Amount 2">00:00:00.000=0.141</property>
   <property name="Show mask">0</property>
   <property name="Mask to Alpha">0</property>
   <property name="kdenlive:collapsed">0</property>
  </filter>
 </producer>
 <producer id="producer27" in="00:00:00.000" out="00:00:04.967">
  <property name="length">00:00:05.000</property>
  <property name="eof">pause</property>
  <property name="resource">/home/ryankelln/Documents/Projects/Active/Sound_Escapes/Sarah/texture_stills/content/opening_drums/good/00000_bee1f_opening_drums_08-566_strength0.02_pcahist_scale0.65_1920.png</property>
  <property name="ttl">25</property>
  <property name="aspect_ratio">1</property>
  <property name="progressive">1</property>
  <property name="seekable">1</property>
  <property name="meta.media.width">1920</property>
  <property name="meta.media.height">1088</property>
  <property name="mlt_service">qimage</property>
  <property name="kdenlive:clipname"/>
  <property name="kdenlive:duration">00:00:05.000</property>
  <property name="kdenlive:folderid">39</property>
  <property name="kdenlive:id">31</property>
  <property name="kdenlive:file_size">3973659</property>
  <property name="kdenlive:file_hash">1d664b025973cf9df516bf80df39a33e</property>
 </producer>
 <producer id="producer28" in="00:00:00.000" out="00:00:04.967">
  <property name="length">00:00:05.000</property>
  <property name="eof">pause</property>
  <property name="resource">/home/ryankelln/Documents/Projects/Active/Sound_Escapes/Sarah/texture_stills/content/opening_drums/good/00001_anemone2_opening_drums_10-566_strength0.04_pcahist_scale0.4_1920.png</property>
  <property name="ttl">25</property>
  <property name="aspect_ratio">1</property>
  <property name="progressive">1</property>
  <property name="seekable">1</property>
  <property name="meta.media.width">1920</property>
  <property name="meta.media.height">1088</property>
  <property name="mlt_service">qimage</property>
  <property name="kdenlive:clipname"/>
  <property name="kdenlive:duration">00:00:05.000</property>
  <property name="kdenlive:folderid">39</property>
  <property name="kdenlive:id">32</property>
  <property name="kdenlive:file_size">3156645</property>
  <property name="kdenlive:file_hash">b6456967fb5eb27f8cdd255f4acf5690</property>
 </producer>
 <producer id="producer29" in="00:00:00.000" out="00:00:04.967">
  <property name="length">00:00:05.000</property>
  <property name="eof">pause</property>
  <property name="resource">/home/ryankelln/Documents/Projects/Active/Sound_Escapes/Sarah/texture_stills/content/opening_drums/good/00002_cheetah1_opening_drums_12-598_strength0.06_pcahist_scale0.5_1920.png</property>
  <property name="ttl">25</property>
  <property name="aspect_ratio">1</property>
  <property name="progressive">1</property>
  <property name="seekable">1</property>
  <property name="meta.media.width">1920</property>
  <property name="meta.media.height">1088</property>
  <property name="mlt_service">qimage</property>
  <property name="kdenlive:clipname"/>
  <property name="kdenlive:duration">00:00:05.000</property>
  <property name="kdenlive:folderid">39</property>
  <property name="kdenlive:id">33</property>
  <property name="kdenlive:file_size">4478069</property>
  <property name="kdenlive:file_hash">d2ec459f6fd5394e0e2fe2a6c90364bf</property>
 </producer>
 <producer id="producer30" in="00:00:00.000" out="00:00:04.967">
  <property name="length">00:00:05.000</property>
  <property name="eof">pause</property>
  <property name="resource">/home/ryankelln/Documents/Projects/Active/Sound_Escapes/Sarah/texture_stills/content/opening_drums/good/00003_anenome1_opening_drums_13-938_strength0.04_pcahist_scale0.4_1920.png</property>
  <property name="ttl">25</property>
  <property name="aspect_ratio">1</property>
  <property name="progressive">1</property>
  <property name="seekable">1</property>
  <property name="meta.media.width">1920</property>
  <property name="meta.media.height">1088</property>
  <property name="mlt_service">qimage</property>
  <property name="kdenlive:clipname"/>
  <property name="kdenlive:duration">00:00:05.000</property>
  <property name="kdenlive:folderid">39</property>
  <property name="kdenlive:id">35</property>
  <property name="kdenlive:file_size">3382458</property>
  <property name="kdenlive:file_hash">51555982ac8d9ded8aacdb83c6f1f328</property>
  <property name="global_feed">1</property>
 </producer>
 <producer id="producer42" in="00:00:00.000" out="00:00:44.000">
  <property name="length">1321</property>
  <property name="eof">pause</property>
  <property name="resource">content/hot_bod_065000_63ca3a33_trusses.mp4</property>
  <property name="audio_index">1</property>
  <property name="video_index">0</property>
  <property name="mute_on_pause">0</property>
  <property name="mlt_service">avformat-novalidate</property>
  <property name="seekable">1</property>
  <property name="aspect_ratio">1</property>
  <property name="kdenlive:clipname">hot_bod_065000_63ca3a33_trusses.mp4</property>
  <property name="kdenlive:folderid">34</property>
  <property name="kdenlive:id">36</property>
  <property name="kdenlive:file_size">5449983</property>
  <property name="kdenlive:audio_max">5</property>
  <property name="kdenlive:active_streams">-1;1</property>
  <property name="global_feed">1</property>
  <property name="meta.media.nb_streams">2</property>
  <property name="meta.media.0.stream.type">video</property>
  <property name="meta.media.0.stream.frame_rate">30</property>
  <property name="meta.media.0.stream.sample_aspect_ratio">0</property>
  <property name="meta.media.0.codec.width">512</property>
  <property name="meta.media.0.codec.height">512</property>
  <property name="meta.media.0.codec.rotate">0</property>
  <property name="meta.media.0.codec.frame_rate">30</property>
  <property name="meta.media.0.codec.pix_fmt">yuv420p</property>
  <property name="meta.media.0.codec.sample_aspect_ratio">0</property>
  <property name="meta.media.0.codec.colorspace">601</property>
  <property name="meta.media.0.codec.name">h264</property>
  <property name="meta.media.0.codec.long_name">H.264 / AVC / MPEG-4 AVC / MPEG-4 part 10</property>
  <property name="meta.media.0.codec.bit_rate">645136</property>
  <property name="meta.attr.0.stream.handler_name.markup">VideoHandler</property>
  <property name="meta.media.1.stream.type">audio</property>
  <property name="meta.media.1.codec.sample_fmt">fltp</property>
  <property name="meta.media.1.codec.sample_rate">48000</property>
  <property name="meta.media.1.codec.channels">2</property>
  <property name="meta.media.1.codec.name">aac</property>
  <property name="meta.media.1.codec.long_name">AAC (Advanced Audio Coding)</property>
  <property name="meta.media.1.codec.bit_rate">336810</property>
  <property name="meta.attr.1.stream.handler_name.markup">SoundHandler</property>
  <property name="meta.attr.major_brand.markup">isom</property>
  <property name="meta.attr.minor_version.markup">512</property>
  <property name="meta.attr.compatible_brands.markup">isomiso2avc1mp41</property>
  <property name="meta.attr.encoder.markup">Lavf58.29.100</property>
  <property name="meta.media.sample_aspect_num">1</property>
  <property name="meta.media.sample_aspect_den">1</property>
  <property name="meta.media.frame_rate_num">30</property>
  <property name="meta.media.frame_rate_den">1</property>
  <property name="meta.media.colorspace">601</property>
  <property name="meta.media.color_trc">2</property>
  <property name="meta.media.width">512</property>
  <property name="meta.media.height">512</property>
  <property name="meta.media.color_range">mpeg</property>
  <property name="kdenlive:file_hash">e7c63f197d2b1594f1626febc3887c4b</property>
  <property name="meta.media.top_field_first">0</property>
  <property name="meta.media.progressive">1</property>
 </producer>
 <producer id="producer33" in="00:00:00.000" out="00:01:14.000">
  <property name="length">2221</property>
  <property name="eof">pause</property>
  <property name="resource">content/hot_bod_180000_97c282c6_synth_solo.mp4</property>
  <property name="audio_index">1</property>
  <property name="video_index">0</property>
  <property name="mute_on_pause">0</property>
  <property name="mlt_service">avformat-novalidate</property>
  <property name="meta.media.nb_streams">2</property>
  <property name="meta.media.0.stream.type">video</property>
  <property name="meta.media.0.stream.frame_rate">30</property>
  <property name="meta.media.0.stream.sample_aspect_ratio">0</property>
  <property name="meta.media.0.codec.width">896</property>
  <property name="meta.media.0.codec.height">512</property>
  <property name="meta.media.0.codec.rotate">0</property>
  <property name="meta.media.0.codec.frame_rate">30</property>
  <property name="meta.media.0.codec.pix_fmt">yuv420p</property>
  <property name="meta.media.0.codec.sample_aspect_ratio">0</property>
  <property name="meta.media.0.codec.colorspace">601</property>
  <property name="meta.media.0.codec.name">h264</property>
  <property name="meta.media.0.codec.long_name">H.264 / AVC / MPEG-4 AVC / MPEG-4 part 10</property>
  <property name="meta.media.0.codec.bit_rate">3868149</property>
  <property name="meta.attr.0.stream.handler_name.markup">VideoHandler</property>
  <property name="meta.media.1.stream.type">audio</property>
  <property name="meta.media.1.codec.sample_fmt">fltp</property>
  <property name="meta.media.1.codec.sample_rate">48000</property>
  <property name="meta.media.1.codec.channels">2</property>
  <property name="meta.media.1.codec.name">aac</property>
  <property name="meta.media.1.codec.long_name">AAC (Advanced Audio Coding)</property>
  <property name="meta.media.1.codec.bit_rate">326658</property>
  <property name="meta.attr.1.stream.handler_name.markup">SoundHandler</property>
  <property name="meta.attr.major_brand.markup">isom</property>
  <property name="meta.attr.minor_version.markup">512</property>
  <property name="meta.attr.compatible_brands.markup">isomiso2avc1mp41</property>
  <property name="meta.attr.encoder.markup">Lavf58.29.100</property>
  <property name="seekable">1</property>
  <property name="meta.media.sample_aspect_num">1</property>
  <property name="meta.media.sample_aspect_den">1</property>
  <property name="aspect_ratio">1</property>
  <property name="kdenlive:clipname"/>
  <property name="kdenlive:folderid">34</property>
  <property name="meta.media.frame_rate_num">30</property>
  <property name="meta.media.frame_rate_den">1</property>
  <property name="meta.media.colorspace">601</property>
  <property name="meta.media.color_trc">2</property>
  <property name="meta.media.width">896</property>
  <property name="meta.media.height">512</property>
  <property name="meta.media.color_range">mpeg</property>
  <property name="kdenlive:id">37</property>
  <property name="kdenlive:file_size">38882228</property>
  <property name="kdenlive:file_hash">93f786cce468b11782704dc07333adce</property>
  <property name="kdenlive:audio_max">2</property>
  <property name="meta.media.top_field_first">0</property>
  <property name="meta.media.progressive">1</property>
  <property name="global_feed">1</property>
 </producer>
 <producer id="producer34" in="00:00:00.000" out="00:01:27.000">
  <property name="length">2611</property>
  <property name="eof">pause</property>
  <property name="resource">content/hot_bod_120000_f34ec270_bass_solo_electric.mp4</property>
  <property name="audio_index">1</property>
  <property name="video_index">0</property>
  <property name="mute_on_pause">0</property>
  <property name="mlt_service">avformat-novalidate</property>
  <property name="meta.media.nb_streams">2</property>
  <property name="meta.media.0.stream.type">video</property>
  <property name="meta.media.0.stream.frame_rate">30</property>
  <property name="meta.media.0.stream.sample_aspect_ratio">0</property>
  <property name="meta.media.0.codec.width">896</property>
  <property name="meta.media.0.codec.height">512</property>
  <property name="meta.media.0.codec.rotate">0</property>
  <property name="meta.media.0.codec.frame_rate">30</property>
  <property name="meta.media.0.codec.pix_fmt">yuv420p</property>
  <property name="meta.media.0.codec.sample_aspect_ratio">0</property>
  <property name="meta.media.0.codec.colorspace">601</property>
  <property name="meta.media.0.codec.name">h264</property>
  <property name="meta.media.0.codec.long_name">H.264 / AVC / MPEG-4 AVC / MPEG-4 part 10</property>
  <property name="meta.media.0.codec.bit_rate">3535758</property>
  <property name="meta.attr.0.stream.handler_name.markup">VideoHandler</property>
  <property name="meta.media.1.stream.type">audio</property>
  <property name="meta.media.1.codec.sample_fmt">fltp</property>
  <property name="meta.media.1.codec.sample_rate">48000</property>
  <property name="meta.media.1.codec.channels">2</property>
  <property name="meta.media.1.codec.name">aac</property>
  <property name="meta.media.1.codec.long_name">AAC (Advanced Audio Coding)</property>
  <property name="meta.media.1.codec.bit_rate">336755</property>
  <property name="meta.attr.1.stream.handler_name.markup">SoundHandler</property>
  <property name="meta.attr.major_brand.markup">isom</property>
  <property name="meta.attr.minor_version.markup">512</property>
  <property name="meta.attr.compatible_brands.markup">isomiso2avc1mp41</property>
  <property name="meta.attr.encoder.markup">Lavf58.29.100</property>
  <property name="seekable">1</property>
  <property name="meta.media.sample_aspect_num">1</property>
  <property name="meta.media.sample_aspect_den">1</property>
  <property name="aspect_ratio">1</property>
  <property name="kdenlive:clipname"/>
  <property name="kdenlive:folderid">34</property>
  <property name="meta.media.frame_rate_num">30</property>
  <property name="meta.media.frame_rate_den">1</property>
  <property name="meta.media.colorspace">601</property>
  <property name="meta.media.color_trc">2</property>
  <property name="meta.media.width">896</property>
  <property name="meta.media.height">512</property>
  <property name="meta.media.color_range">mpeg</property>
  <property name="kdenlive:id">38</property>
  <property name="kdenlive:file_size">42205163</property>
  <property name="kdenlive:file_hash">171649c24b36ba48a3814e00fb965f33</property>
  <property name="kdenlive:audio_max">4</property>
  <property name="meta.media.top_field_first">0</property>
  <property name="meta.media.progressive">1</property>
  <property name="global_feed">1</property>
 </producer>
 <producer id="producer35" in="00:00:00.000" out="00:00:31.000">
  <property name="length">931</property>
  <property name="eof">pause</property>
  <property name="resource">content/hot_bod_112000_3c4edbf5_bass_solo_synth.mp4</property>
  <property name="audio_index">1</property>
  <property name="video_index">0</property>
  <property name="mute_on_pause">0</property>
  <property name="mlt_service">avformat-novalidate</property>
  <property name="meta.media.nb_streams">2</property>
  <property name="meta.media.0.stream.type">video</property>
  <property name="meta.media.0.stream.frame_rate">30</property>
  <property name="meta.media.0.stream.sample_aspect_ratio">0</property>
  <property name="meta.media.0.codec.width">896</property>
  <property name="meta.media.0.codec.height">512</property>
  <property name="meta.media.0.codec.rotate">0</property>
  <property name="meta.media.0.codec.frame_rate">30</property>
  <property name="meta.media.0.codec.pix_fmt">yuv420p</property>
  <property name="meta.media.0.codec.sample_aspect_ratio">0</property>
  <property name="meta.media.0.codec.colorspace">601</property>
  <property name="meta.media.0.codec.name">h264</property>
  <property name="meta.media.0.codec.long_name">H.264 / AVC / MPEG-4 AVC / MPEG-4 part 10</property>
  <property name="meta.media.0.codec.bit_rate">2780571</property>
  <property name="meta.attr.0.stream.handler_name.markup">VideoHandler</property>
  <property name="meta.media.1.stream.type">audio</property>
  <property name="meta.media.1.codec.sample_fmt">fltp</property>
  <property name="meta.media.1.codec.sample_rate">48000</property>
  <property name="meta.media.1.codec.channels">2</property>
  <property name="meta.media.1.codec.name">aac</property>
  <property name="meta.media.1.codec.long_name">AAC (Advanced Audio Coding)</property>
  <property name="meta.media.1.codec.bit_rate">334809</property>
  <property name="meta.attr.1.stream.handler_name.markup">SoundHandler</property>
  <property name="meta.attr.major_brand.markup">isom</property>
  <property name="meta.attr.minor_version.markup">512</property>
  <property name="meta.attr.compatible_brands.markup">isomiso2avc1mp41</property>
  <property name="meta.attr.encoder.markup">Lavf58.29.100</property>
  <property name="seekable">1</property>
  <property name="meta.media.sample_aspect_num">1</property>
  <property name="meta.media.sample_aspect_den">1</property>
  <property name="aspect_ratio">1</property>
  <property name="kdenlive:clipname"/>
  <property name="kdenlive:folderid">34</property>
  <property name="meta.media.frame_rate_num">30</property>
  <property name="meta.media.frame_rate_den">1</property>
  <property name="meta.media.colorspace">601</property>
  <property name="meta.media.color_trc">2</property>
  <property name="meta.media.width">896</property>
  <property name="meta.media.height">512</property>
  <property name="meta.media.color_range">mpeg</property>
  <property name="kdenlive:id">40</property>
  <property name="kdenlive:file_size">12106357</property>
  <property name="kdenlive:file_hash">50318244383a94b0e23f223a98601bbc</property>
  <property name="kdenlive:audio_max">4</property>
  <property name="meta.media.top_field_first">0</property>
  <property name="meta.media.progressive">1</property>
  <property name="global_feed">1</property>
 </producer>
 <producer id="producer31" in="00:00:00.000" out="00:01:14.000">
  <property name="length">2222</property>
  <property name="eof">pause</property>
  <property name="resource">/home/ryankelln/.cache/kdenlive/proxy/1f7b4775cbd33b10f9ca73a2148fe2db.mkv</property>
  <property name="audio_index">1</property>
  <property name="video_index">0</property>
  <property name="mute_on_pause">0</property>
  <property name="mlt_service">avformat-novalidate</property>
  <property name="seekable">1</property>
  <property name="aspect_ratio">1</property>
  <property name="kdenlive:clipname">synth_solo_background_mirror_1.mp4</property>
  <property name="kdenlive:folderid">34</property>
  <property name="kdenlive:id">41</property>
  <property name="kdenlive:file_size">129146049</property>
  <property name="kdenlive:file_hash">1f7b4775cbd33b10f9ca73a2148fe2db</property>
  <property name="kdenlive:proxy">/home/ryankelln/.cache/kdenlive/proxy/1f7b4775cbd33b10f9ca73a2148fe2db.mkv</property>
  <property name="kdenlive:originalurl">content/synth_solo_background_mirror_1.mp4</property>
  <property name="kdenlive:original.mlt_type">producer</property>
  <property name="kdenlive:original.in">0</property>
  <property name="kdenlive:original.out">2221</property>
  <property name="kdenlive:original.length">2222</property>
  <property name="kdenlive:original.eof">pause</property>
  <property name="kdenlive:original.resource">content/synth_solo_background_mirror_1.mp4</property>
  <property name="kdenlive:original.meta.media.nb_streams">2</property>
  <property name="kdenlive:original.meta.media.0.stream.type">video</property>
  <property name="kdenlive:original.meta.media.0.stream.frame_rate">30</property>
  <property name="kdenlive:original.meta.media.0.stream.sample_aspect_ratio">1</property>
  <property name="kdenlive:original.meta.media.0.codec.width">1920</property>
  <property name="kdenlive:original.meta.media.0.codec.height">1080</property>
  <property name="kdenlive:original.meta.media.0.codec.rotate">0</property>
  <property name="kdenlive:original.meta.media.0.codec.frame_rate">30</property>
  <property name="kdenlive:original.meta.media.0.codec.pix_fmt">yuv420p</property>
  <property name="kdenlive:original.meta.media.0.codec.sample_aspect_ratio">1</property>
  <property name="kdenlive:original.meta.media.0.codec.colorspace">709</property>
  <property name="kdenlive:original.meta.media.0.codec.color_trc">1</property>
  <property name="kdenlive:original.meta.media.0.codec.name">h264</property>
  <property name="kdenlive:original.meta.media.0.codec.long_name">H.264 / AVC / MPEG-4 AVC / MPEG-4 part 10</property>
  <property name="kdenlive:original.meta.media.0.codec.bit_rate">13753251</property>
  <property name="kdenlive:original.meta.attr.0.stream.handler_name.markup">VideoHandler</property>
  <property name="kdenlive:original.meta.media.1.stream.type">audio</property>
  <property name="kdenlive:original.meta.media.1.codec.sample_fmt">fltp</property>
  <property name="kdenlive:original.meta.media.1.codec.sample_rate">48000</property>
  <property name="kdenlive:original.meta.media.1.codec.channels">2</property>
  <property name="kdenlive:original.meta.media.1.codec.name">aac</property>
  <property name="kdenlive:original.meta.media.1.codec.long_name">AAC (Advanced Audio Coding)</property>
  <property name="kdenlive:original.meta.media.1.codec.bit_rate">193744</property>
  <property name="kdenlive:original.meta.attr.1.stream.handler_name.markup">SoundHandler</property>
  <property name="kdenlive:original.meta.attr.major_brand.markup">isom</property>
  <property name="kdenlive:original.meta.attr.minor_version.markup">512</property>
  <property name="kdenlive:original.meta.attr.compatible_brands.markup">isomiso2avc1mp41</property>
  <property name="kdenlive:original.meta.attr.encoder.markup">Lavf58.45.100</property>
  <property name="kdenlive:original.seekable">1</property>
  <property name="kdenlive:original.width">1920</property>
  <property name="kdenlive:original.height">1080</property>
  <property name="kdenlive:original.meta.media.sample_aspect_num">1</property>
  <property name="kdenlive:original.meta.media.sample_aspect_den">1</property>
  <property name="kdenlive:original.aspect_ratio">1</property>
  <property name="kdenlive:original.audio_index">1</property>
  <property name="kdenlive:original.video_index">0</property>
  <property name="kdenlive:original.mute_on_pause">0</property>
  <property name="kdenlive:original.mlt_service">avformat-novalidate</property>
  <property name="kdenlive:original.kdenlive:folderid">34</property>
  <property name="kdenlive:original.meta.media.frame_rate_num">30</property>
  <property name="kdenlive:original.meta.media.frame_rate_den">1</property>
  <property name="kdenlive:original.meta.media.colorspace">709</property>
  <property name="kdenlive:original.meta.media.color_trc">1</property>
  <property name="kdenlive:original.meta.media.width">1920</property>
  <property name="kdenlive:original.meta.media.height">1080</property>
  <property name="kdenlive:original.meta.media.color_range">mpeg</property>
  <property name="kdenlive:original.kdenlive:id">45</property>
  <property name="kdenlive:original.kdenlive:file_size">129146049</property>
  <property name="kdenlive:original.kdenlive:file_hash">1f7b4775cbd33b10f9ca73a2148fe2db</property>
  <property name="kdenlive:original.backup">1</property>
  <property name="kdenlive:audio_max">2</property>
  <property name="global_feed">1</property>
  <property name="meta.media.nb_streams">2</property>
  <property name="meta.media.0.stream.type">video</property>
  <property name="meta.media.0.stream.frame_rate">30</property>
  <property name="meta.media.0.stream.sample_aspect_ratio">1</property>
  <property name="meta.media.0.codec.width">640</property>
  <property name="meta.media.0.codec.height">360</property>
  <property name="meta.media.0.codec.rotate">0</property>
  <property name="meta.media.0.codec.frame_rate">1000</property>
  <property name="meta.media.0.codec.pix_fmt">yuvj420p</property>
  <property name="meta.media.0.codec.sample_aspect_ratio">1</property>
  <property name="meta.media.0.codec.colorspace">601</property>
  <property name="meta.media.0.codec.name">mjpeg</property>
  <property name="meta.media.0.codec.long_name">MJPEG (Motion JPEG)</property>
  <property name="meta.media.0.codec.bit_rate">0</property>
  <property name="meta.attr.0.stream.HANDLER_NAME.markup">VideoHandler</property>
  <property name="meta.attr.0.stream.ENCODER.markup">Lavc58.91.100 mjpeg</property>
  <property name="meta.attr.0.stream.DURATION.markup">00:01:14.033000000</property>
  <property name="meta.media.1.stream.type">audio</property>
  <property name="meta.media.1.codec.sample_fmt">s16</property>
  <property name="meta.media.1.codec.sample_rate">48000</property>
  <property name="meta.media.1.codec.channels">2</property>
  <property name="meta.media.1.codec.name">pcm_s16le</property>
  <property name="meta.media.1.codec.long_name">PCM signed 16-bit little-endian</property>
  <property name="meta.media.1.codec.bit_rate">1536000</property>
  <property name="meta.attr.1.stream.HANDLER_NAME.markup">SoundHandler</property>
  <property name="meta.attr.1.stream.ENCODER.markup">Lavc58.91.100 pcm_s16le</property>
  <property name="meta.attr.1.stream.DURATION.markup">00:01:14.048000000</property>
  <property name="meta.attr.COMPATIBLE_BRANDS.markup">isomiso2avc1mp41</property>
  <property name="meta.attr.MAJOR_BRAND.markup">isom</property>
  <property name="meta.attr.MINOR_VERSION.markup">512</property>
  <property name="meta.attr.ENCODER.markup">Lavf58.45.100</property>
  <property name="meta.media.sample_aspect_num">1</property>
  <property name="meta.media.sample_aspect_den">1</property>
  <property name="meta.media.frame_rate_num">30</property>
  <property name="meta.media.frame_rate_den">1</property>
  <property name="meta.media.colorspace">601</property>
  <property name="meta.media.color_trc">2</property>
  <property name="meta.media.width">640</property>
  <property name="meta.media.height">360</property>
  <property name="meta.media.color_range">full</property>
  <property name="meta.media.top_field_first">0</property>
  <property name="meta.media.progressive">1</property>
  <property name="kdenlive:clipzones">[
    {
        "in": 2131,
        "name": "Zone 1",
        "out": 2222
    }
]
</property>
 </producer>
 <producer id="producer36" in="00:00:00.000" out="00:00:11.000">
  <property name="length">331</property>
  <property name="eof">pause</property>
  <property name="resource">content/hot_bod_180000_53a16a2d_after_synth.mp4</property>
  <property name="audio_index">1</property>
  <property name="video_index">0</property>
  <property name="mute_on_pause">0</property>
  <property name="mlt_service">avformat-novalidate</property>
  <property name="meta.media.nb_streams">2</property>
  <property name="meta.media.0.stream.type">video</property>
  <property name="meta.media.0.stream.frame_rate">30</property>
  <property name="meta.media.0.stream.sample_aspect_ratio">0</property>
  <property name="meta.media.0.codec.width">896</property>
  <property name="meta.media.0.codec.height">512</property>
  <property name="meta.media.0.codec.rotate">0</property>
  <property name="meta.media.0.codec.frame_rate">30</property>
  <property name="meta.media.0.codec.pix_fmt">yuv420p</property>
  <property name="meta.media.0.codec.sample_aspect_ratio">0</property>
  <property name="meta.media.0.codec.colorspace">601</property>
  <property name="meta.media.0.codec.name">h264</property>
  <property name="meta.media.0.codec.long_name">H.264 / AVC / MPEG-4 AVC / MPEG-4 part 10</property>
  <property name="meta.media.0.codec.bit_rate">2911251</property>
  <property name="meta.attr.0.stream.handler_name.markup">VideoHandler</property>
  <property name="meta.media.1.stream.type">audio</property>
  <property name="meta.media.1.codec.sample_fmt">fltp</property>
  <property name="meta.media.1.codec.sample_rate">48000</property>
  <property name="meta.media.1.codec.channels">2</property>
  <property name="meta.media.1.codec.name">aac</property>
  <property name="meta.media.1.codec.long_name">AAC (Advanced Audio Coding)</property>
  <property name="meta.media.1.codec.bit_rate">320808</property>
  <property name="meta.attr.1.stream.handler_name.markup">SoundHandler</property>
  <property name="meta.attr.major_brand.markup">isom</property>
  <property name="meta.attr.minor_version.markup">512</property>
  <property name="meta.attr.compatible_brands.markup">isomiso2avc1mp41</property>
  <property name="meta.attr.encoder.markup">Lavf58.29.100</property>
  <property name="seekable">1</property>
  <property name="meta.media.sample_aspect_num">1</property>
  <property name="meta.media.sample_aspect_den">1</property>
  <property name="aspect_ratio">1</property>
  <property name="kdenlive:clipname"/>
  <property name="kdenlive:folderid">34</property>
  <property name="meta.media.frame_rate_num">30</property>
  <property name="meta.media.frame_rate_den">1</property>
  <property name="meta.media.colorspace">601</property>
  <property name="meta.media.color_trc">2</property>
  <property name="meta.media.width">896</property>
  <property name="meta.media.height">512</property>
  <property name="meta.media.color_range">mpeg</property>
  <property name="kdenlive:id">42</property>
  <property name="kdenlive:file_size">4457845</property>
  <property name="kdenlive:file_hash">2d8d167ad6e01b8b79d89451214523d7</property>
  <property name="kdenlive:audio_max">4</property>
  <property name="meta.media.top_field_first">0</property>
  <property name="meta.media.progressive">1</property>
  <property name="global_feed">1</property>
 </producer>
 <producer id="producer37" in="00:00:00.000" out="00:00:26.000">
  <property name="length">781</property>
  <property name="eof">pause</property>
  <property name="resource">content/hot_bod_132000_91b50e24_start_trip.mp4</property>
  <property name="audio_index">1</property>
  <property name="video_index">0</property>
  <property name="mute_on_pause">0</property>
  <property name="mlt_service">avformat-novalidate</property>
  <property name="seekable">1</property>
  <property name="aspect_ratio">1</property>
  <property name="kdenlive:clipname">hot_bod_132000_91b50e24_start_trip.mp4</property>
  <property name="kdenlive:folderid">34</property>
  <property name="kdenlive:id">43</property>
  <property name="kdenlive:file_size">10182916</property>
  <property name="kdenlive:audio_max">10</property>
  <property name="global_feed">1</property>
  <property name="meta.media.nb_streams">2</property>
  <property name="meta.media.0.stream.type">video</property>
  <property name="meta.media.0.stream.frame_rate">30</property>
  <property name="meta.media.0.stream.sample_aspect_ratio">0</property>
  <property name="meta.media.0.codec.width">896</property>
  <property name="meta.media.0.codec.height">512</property>
  <property name="meta.media.0.codec.rotate">0</property>
  <property name="meta.media.0.codec.frame_rate">30</property>
  <property name="meta.media.0.codec.pix_fmt">yuv420p</property>
  <property name="meta.media.0.codec.sample_aspect_ratio">0</property>
  <property name="meta.media.0.codec.colorspace">601</property>
  <property name="meta.media.0.codec.name">h264</property>
  <property name="meta.media.0.codec.long_name">H.264 / AVC / MPEG-4 AVC / MPEG-4 part 10</property>
  <property name="meta.media.0.codec.bit_rate">2794897</property>
  <property name="meta.attr.0.stream.handler_name.markup">VideoHandler</property>
  <property name="meta.media.1.stream.type">audio</property>
  <property name="meta.media.1.codec.sample_fmt">fltp</property>
  <property name="meta.media.1.codec.sample_rate">48000</property>
  <property name="meta.media.1.codec.channels">2</property>
  <property name="meta.media.1.codec.name">aac</property>
  <property name="meta.media.1.codec.long_name">AAC (Advanced Audio Coding)</property>
  <property name="meta.media.1.codec.bit_rate">329261</property>
  <property name="meta.attr.1.stream.handler_name.markup">SoundHandler</property>
  <property name="meta.attr.major_brand.markup">isom</property>
  <property name="meta.attr.minor_version.markup">512</property>
  <property name="meta.attr.compatible_brands.markup">isomiso2avc1mp41</property>
  <property name="meta.attr.encoder.markup">Lavf58.29.100</property>
  <property name="meta.media.sample_aspect_num">1</property>
  <property name="meta.media.sample_aspect_den">1</property>
  <property name="meta.media.frame_rate_num">30</property>
  <property name="meta.media.frame_rate_den">1</property>
  <property name="meta.media.colorspace">601</property>
  <property name="meta.media.color_trc">2</property>
  <property name="meta.media.width">896</property>
  <property name="meta.media.height">512</property>
  <property name="meta.media.color_range">mpeg</property>
  <property name="kdenlive:file_hash">734f80f03da799a358c3354d23a1d9a6</property>
  <property name="meta.media.top_field_first">0</property>
  <property name="meta.media.progressive">1</property>
 </producer>
 <producer id="producer38" in="00:00:00.000" out="00:01:13.000">
  <property name="length">2191</property>
  <property name="eof">pause</property>
  <property name="resource">content/hot_bod_132000_e3d1a1d9_drum_trip.mp4</property>
  <property name="audio_index">1</property>
  <property name="video_index">0</property>
  <property name="mute_on_pause">0</property>
  <property name="mlt_service">avformat-novalidate</property>
  <property name="meta.media.nb_streams">2</property>
  <property name="meta.media.0.stream.type">video</property>
  <property name="meta.media.0.stream.frame_rate">30</property>
  <property name="meta.media.0.stream.sample_aspect_ratio">0</property>
  <property name="meta.media.0.codec.width">896</property>
  <property name="meta.media.0.codec.height">512</property>
  <property name="meta.media.0.codec.rotate">0</property>
  <property name="meta.media.0.codec.frame_rate">30</property>
  <property name="meta.media.0.codec.pix_fmt">yuv420p</property>
  <property name="meta.media.0.codec.sample_aspect_ratio">0</property>
  <property name="meta.media.0.codec.colorspace">601</property>
  <property name="meta.media.0.codec.name">h264</property>
  <property name="meta.media.0.codec.long_name">H.264 / AVC / MPEG-4 AVC / MPEG-4 part 10</property>
  <property name="meta.media.0.codec.bit_rate">3639395</property>
  <property name="meta.attr.0.stream.handler_name.markup">VideoHandler</property>
  <property name="meta.media.1.stream.type">audio</property>
  <property name="meta.media.1.codec.sample_fmt">fltp</property>
  <property name="meta.media.1.codec.sample_rate">48000</property>
  <property name="meta.media.1.codec.channels">2</property>
  <property name="meta.media.1.codec.name">aac</property>
  <property name="meta.media.1.codec.long_name">AAC (Advanced Audio Coding)</property>
  <property name="meta.media.1.codec.bit_rate">328237</property>
  <property name="meta.attr.1.stream.handler_name.markup">SoundHandler</property>
  <property name="meta.attr.major_brand.markup">isom</property>
  <property name="meta.attr.minor_version.markup">512</property>
  <property name="meta.attr.compatible_brands.markup">isomiso2avc1mp41</property>
  <property name="meta.attr.encoder.markup">Lavf58.29.100</property>
  <property name="seekable">1</property>
  <property name="meta.media.sample_aspect_num">1</property>
  <property name="meta.media.sample_aspect_den">1</property>
  <property name="aspect_ratio">1</property>
  <property name="kdenlive:clipname"/>
  <property name="kdenlive:folderid">34</property>
  <property name="meta.media.frame_rate_num">30</property>
  <property name="meta.media.frame_rate_den">1</property>
  <property name="meta.media.colorspace">601</property>
  <property name="meta.media.color_trc">2</property>
  <property name="meta.media.width">896</property>
  <property name="meta.media.height">512</property>
  <property name="meta.media.color_range">mpeg</property>
  <property name="kdenlive:id">44</property>
  <property name="kdenlive:file_size">36280029</property>
  <property name="kdenlive:file_hash">88bfd6c9be010ca9189da24c28ab1e8f</property>
  <property name="kdenlive:audio_max">5</property>
  <property name="meta.media.top_field_first">0</property>
  <property name="meta.media.progressive">1</property>
  <property name="global_feed">1</property>
 </producer>
 <producer id="producer39" in="00:00:00.000" out="00:01:13.000">
  <property name="length">2191</property>
  <property name="eof">pause</property>
  <property name="resource">content/hot_bod_112000_8fdeacb7_synth_trip.mp4</property>
  <property name="audio_index">1</property>
  <property name="video_index">0</property>
  <property name="mute_on_pause">0</property>
  <property name="mlt_service">avformat-novalidate</property>
  <property name="meta.media.nb_streams">2</property>
  <property name="meta.media.0.stream.type">video</property>
  <property name="meta.media.0.stream.frame_rate">30</property>
  <property name="meta.media.0.stream.sample_aspect_ratio">0</property>
  <property name="meta.media.0.codec.width">896</property>
  <property name="meta.media.0.codec.height">512</property>
  <property name="meta.media.0.codec.rotate">0</property>
  <property name="meta.media.0.codec.frame_rate">30</property>
  <property name="meta.media.0.codec.pix_fmt">yuv420p</property>
  <property name="meta.media.0.codec.sample_aspect_ratio">0</property>
  <property name="meta.media.0.codec.colorspace">601</property>
  <property name="meta.media.0.codec.name">h264</property>
  <property name="meta.media.0.codec.long_name">H.264 / AVC / MPEG-4 AVC / MPEG-4 part 10</property>
  <property name="meta.media.0.codec.bit_rate">3613432</property>
  <property name="meta.attr.0.stream.handler_name.markup">VideoHandler</property>
  <property name="meta.media.1.stream.type">audio</property>
  <property name="meta.media.1.codec.sample_fmt">fltp</property>
  <property name="meta.media.1.codec.sample_rate">48000</property>
  <property name="meta.media.1.codec.channels">2</property>
  <property name="meta.media.1.codec.name">aac</property>
  <property name="meta.media.1.codec.long_name">AAC (Advanced Audio Coding)</property>
  <property name="meta.media.1.codec.bit_rate">328237</property>
  <property name="meta.attr.1.stream.handler_name.markup">SoundHandler</property>
  <property name="meta.attr.major_brand.markup">isom</property>
  <property name="meta.attr.minor_version.markup">512</property>
  <property name="meta.attr.compatible_brands.markup">isomiso2avc1mp41</property>
  <property name="meta.attr.encoder.markup">Lavf58.29.100</property>
  <property name="seekable">1</property>
  <property name="meta.media.sample_aspect_num">1</property>
  <property name="meta.media.sample_aspect_den">1</property>
  <property name="aspect_ratio">1</property>
  <property name="kdenlive:clipname"/>
  <property name="kdenlive:folderid">34</property>
  <property name="meta.media.frame_rate_num">30</property>
  <property name="meta.media.frame_rate_den">1</property>
  <property name="meta.media.colorspace">601</property>
  <property name="meta.media.color_trc">2</property>
  <property name="meta.media.width">896</property>
  <property name="meta.media.height">512</property>
  <property name="meta.media.color_range">mpeg</property>
  <property name="kdenlive:id">45</property>
  <property name="kdenlive:file_size">36043540</property>
  <property name="kdenlive:file_hash">01a6227e49a38ad9a87bf327daf078e6</property>
  <property name="kdenlive:audio_max">5</property>
  <property name="meta.media.top_field_first">0</property>
  <property name="meta.media.progressive">1</property>
  <property name="global_feed">1</property>
 </producer>
 <producer id="producer40" in="00:00:00.000" out="00:01:13.000">
  <property name="length">2191</property>
  <property name="eof">pause</property>
  <property name="resource">content/hot_bod_120000_9084fcf0_bass_trip.mp4</property>
  <property name="audio_index">1</property>
  <property name="video_index">0</property>
  <property name="mute_on_pause">0</property>
  <property name="mlt_service">avformat-novalidate</property>
  <property name="meta.media.nb_streams">2</property>
  <property name="meta.media.0.stream.type">video</property>
  <property name="meta.media.0.stream.frame_rate">30</property>
  <property name="meta.media.0.stream.sample_aspect_ratio">0</property>
  <property name="meta.media.0.codec.width">896</property>
  <property name="meta.media.0.codec.height">512</property>
  <property name="meta.media.0.codec.rotate">0</property>
  <property name="meta.media.0.codec.frame_rate">30</property>
  <property name="meta.media.0.codec.pix_fmt">yuv420p</property>
  <property name="meta.media.0.codec.sample_aspect_ratio">0</property>
  <property name="meta.media.0.codec.colorspace">601</property>
  <property name="meta.media.0.codec.name">h264</property>
  <property name="meta.media.0.codec.long_name">H.264 / AVC / MPEG-4 AVC / MPEG-4 part 10</property>
  <property name="meta.media.0.codec.bit_rate">3596498</property>
  <property name="meta.attr.0.stream.handler_name.markup">VideoHandler</property>
  <property name="meta.media.1.stream.type">audio</property>
  <property name="meta.media.1.codec.sample_fmt">fltp</property>
  <property name="meta.media.1.codec.sample_rate">48000</property>
  <property name="meta.media.1.codec.channels">2</property>
  <property name="meta.media.1.codec.name">aac</property>
  <property name="meta.media.1.codec.long_name">AAC (Advanced Audio Coding)</property>
  <property name="meta.media.1.codec.bit_rate">328237</property>
  <property name="meta.attr.1.stream.handler_name.markup">SoundHandler</property>
  <property name="meta.attr.major_brand.markup">isom</property>
  <property name="meta.attr.minor_version.markup">512</property>
  <property name="meta.attr.compatible_brands.markup">isomiso2avc1mp41</property>
  <property name="meta.attr.encoder.markup">Lavf58.29.100</property>
  <property name="seekable">1</property>
  <property name="meta.media.sample_aspect_num">1</property>
  <property name="meta.media.sample_aspect_den">1</property>
  <property name="aspect_ratio">1</property>
  <property name="kdenlive:clipname"/>
  <property name="kdenlive:folderid">34</property>
  <property name="meta.media.frame_rate_num">30</property>
  <property name="meta.media.frame_rate_den">1</property>
  <property name="meta.media.colorspace">601</property>
  <property name="meta.media.color_trc">2</property>
  <property name="meta.media.width">896</property>
  <property name="meta.media.height">512</property>
  <property name="meta.media.color_range">mpeg</property>
  <property name="kdenlive:id">46</property>
  <property name="kdenlive:file_size">35889185</property>
  <property name="kdenlive:file_hash">93fe18edb1d21011d9dfe6f48873c37a</property>
  <property name="kdenlive:audio_max">5</property>
  <property name="meta.media.top_field_first">0</property>
  <property name="meta.media.progressive">1</property>
  <property name="global_feed">1</property>
 </producer>
 <producer id="producer41" in="00:00:00.000" out="00:01:13.000">
  <property name="length">2192</property>
  <property name="eof">pause</property>
  <property name="resource">/home/ryankelln/.cache/kdenlive/proxy/8c962e8f224ca1462712ef210364f729.mkv</property>
  <property name="audio_index">1</property>
  <property name="video_index">0</property>
  <property name="mute_on_pause">0</property>
  <property name="mlt_service">avformat-novalidate</property>
  <property name="seekable">1</property>
  <property name="aspect_ratio">1</property>
  <property name="kdenlive:clipname">trip_mirror.mp4</property>
  <property name="kdenlive:folderid">34</property>
  <property name="kdenlive:id">47</property>
  <property name="kdenlive:file_size">134574168</property>
  <property name="kdenlive:file_hash">8c962e8f224ca1462712ef210364f729</property>
  <property name="kdenlive:proxy">/home/ryankelln/.cache/kdenlive/proxy/8c962e8f224ca1462712ef210364f729.mkv</property>
  <property name="kdenlive:originalurl">content/trip_mirror.mp4</property>
  <property name="kdenlive:original.mlt_type">producer</property>
  <property name="kdenlive:original.in">0</property>
  <property name="kdenlive:original.out">2191</property>
  <property name="kdenlive:original.length">2192</property>
  <property name="kdenlive:original.eof">pause</property>
  <property name="kdenlive:original.resource">content/trip_mirror.mp4</property>
  <property name="kdenlive:original.meta.media.nb_streams">2</property>
  <property name="kdenlive:original.meta.media.0.stream.type">video</property>
  <property name="kdenlive:original.meta.media.0.stream.frame_rate">30</property>
  <property name="kdenlive:original.meta.media.0.stream.sample_aspect_ratio">1</property>
  <property name="kdenlive:original.meta.media.0.codec.width">1920</property>
  <property name="kdenlive:original.meta.media.0.codec.height">1080</property>
  <property name="kdenlive:original.meta.media.0.codec.rotate">0</property>
  <property name="kdenlive:original.meta.media.0.codec.frame_rate">30</property>
  <property name="kdenlive:original.meta.media.0.codec.pix_fmt">yuv420p</property>
  <property name="kdenlive:original.meta.media.0.codec.sample_aspect_ratio">1</property>
  <property name="kdenlive:original.meta.media.0.codec.colorspace">709</property>
  <property name="kdenlive:original.meta.media.0.codec.color_trc">1</property>
  <property name="kdenlive:original.meta.media.0.codec.name">h264</property>
  <property name="kdenlive:original.meta.media.0.codec.long_name">H.264 / AVC / MPEG-4 AVC / MPEG-4 part 10</property>
  <property name="kdenlive:original.meta.media.0.codec.bit_rate">14730567</property>
  <property name="kdenlive:original.meta.attr.0.stream.handler_name.markup">VideoHandler</property>
  <property name="kdenlive:original.meta.media.1.stream.type">audio</property>
  <property name="kdenlive:original.meta.media.1.codec.sample_fmt">fltp</property>
  <property name="kdenlive:original.meta.media.1.codec.sample_rate">48000</property>
  <property name="kdenlive:original.meta.media.1.codec.channels">2</property>
  <property name="kdenlive:original.meta.media.1.codec.name">aac</property>
  <property name="kdenlive:original.meta.media.1.codec.long_name">AAC (Advanced Audio Coding)</property>
  <property name="kdenlive:original.meta.media.1.codec.bit_rate">2276</property>
  <property name="kdenlive:original.meta.attr.1.stream.handler_name.markup">SoundHandler</property>
  <property name="kdenlive:original.meta.attr.major_brand.markup">isom</property>
  <property name="kdenlive:original.meta.attr.minor_version.markup">512</property>
  <property name="kdenlive:original.meta.attr.compatible_brands.markup">isomiso2avc1mp41</property>
  <property name="kdenlive:original.meta.attr.encoder.markup">Lavf58.45.100</property>
  <property name="kdenlive:original.seekable">1</property>
  <property name="kdenlive:original.width">1920</property>
  <property name="kdenlive:original.height">1080</property>
  <property name="kdenlive:original.meta.media.sample_aspect_num">1</property>
  <property name="kdenlive:original.meta.media.sample_aspect_den">1</property>
  <property name="kdenlive:original.aspect_ratio">1</property>
  <property name="kdenlive:original.audio_index">1</property>
  <property name="kdenlive:original.video_index">0</property>
  <property name="kdenlive:original.mute_on_pause">0</property>
  <property name="kdenlive:original.mlt_service">avformat-novalidate</property>
  <property name="kdenlive:original.kdenlive:folderid">34</property>
  <property name="kdenlive:original.meta.media.frame_rate_num">30</property>
  <property name="kdenlive:original.meta.media.frame_rate_den">1</property>
  <property name="kdenlive:original.meta.media.colorspace">709</property>
  <property name="kdenlive:original.meta.media.color_trc">1</property>
  <property name="kdenlive:original.meta.media.width">1920</property>
  <property name="kdenlive:original.meta.media.height">1080</property>
  <property name="kdenlive:original.meta.media.color_range">mpeg</property>
  <property name="kdenlive:original.kdenlive:id">52</property>
  <property name="kdenlive:original.kdenlive:file_size">134574168</property>
  <property name="kdenlive:original.kdenlive:file_hash">8c962e8f224ca1462712ef210364f729</property>
  <property name="kdenlive:original.backup">1</property>
  <property name="kdenlive:audio_max">91</property>
  <property name="global_feed">1</property>
  <property name="meta.media.nb_streams">2</property>
  <property name="meta.media.0.stream.type">video</property>
  <property name="meta.media.0.stream.frame_rate">30</property>
  <property name="meta.media.0.stream.sample_aspect_ratio">1</property>
  <property name="meta.media.0.codec.width">640</property>
  <property name="meta.media.0.codec.height">360</property>
  <property name="meta.media.0.codec.rotate">0</property>
  <property name="meta.media.0.codec.frame_rate">1000</property>
  <property name="meta.media.0.codec.pix_fmt">yuvj420p</property>
  <property name="meta.media.0.codec.sample_aspect_ratio">1</property>
  <property name="meta.media.0.codec.colorspace">601</property>
  <property name="meta.media.0.codec.name">mjpeg</property>
  <property name="meta.media.0.codec.long_name">MJPEG (Motion JPEG)</property>
  <property name="meta.media.0.codec.bit_rate">0</property>
  <property name="meta.attr.0.stream.HANDLER_NAME.markup">VideoHandler</property>
  <property name="meta.attr.0.stream.ENCODER.markup">Lavc58.91.100 mjpeg</property>
  <property name="meta.attr.0.stream.DURATION.markup">00:01:13.033000000</property>
  <property name="meta.media.1.stream.type">audio</property>
  <property name="meta.media.1.codec.sample_fmt">s16</property>
  <property name="meta.media.1.codec.sample_rate">48000</property>
  <property name="meta.media.1.codec.channels">2</property>
  <property name="meta.media.1.codec.name">pcm_s16le</property>
  <property name="meta.media.1.codec.long_name">PCM signed 16-bit little-endian</property>
  <property name="meta.media.1.codec.bit_rate">1536000</property>
  <property name="meta.attr.1.stream.HANDLER_NAME.markup">SoundHandler</property>
  <property name="meta.attr.1.stream.ENCODER.markup">Lavc58.91.100 pcm_s16le</property>
  <property name="meta.attr.1.stream.DURATION.markup">00:01:13.045000000</property>
  <property name="meta.attr.COMPATIBLE_BRANDS.markup">isomiso2avc1mp41</property>
  <property name="meta.attr.MAJOR_BRAND.markup">isom</property>
  <property name="meta.attr.MINOR_VERSION.markup">512</property>
  <property name="meta.attr.ENCODER.markup">Lavf58.45.100</property>
  <property name="meta.media.sample_aspect_num">1</property>
  <property name="meta.media.sample_aspect_den">1</property>
  <property name="meta.media.frame_rate_num">30</property>
  <property name="meta.media.frame_rate_den">1</property>
  <property name="meta.media.colorspace">601</property>
  <property name="meta.media.color_trc">2</property>
  <property name="meta.media.width">640</property>
  <property name="meta.media.height">360</property>
  <property name="meta.media.color_range">full</property>
  <property name="meta.media.top_field_first">0</property>
  <property name="meta.media.progressive">1</property>
  <property name="kdenlive:active_streams">-1</property>
 </producer>
 <producer id="producer32" in="00:00:00.000" out="00:00:05.167">
  <property name="length">156</property>
  <property name="eof">pause</property>
  <property name="resource">0x000000ff</property>
  <property name="aspect_ratio">1</property>
  <property name="mlt_service">color</property>
  <property name="kdenlive:clipname">Black</property>
  <property name="kdenlive:duration">00:00:05.000</property>
  <property name="kdenlive:folderid">-1</property>
  <property name="kdenlive:id">48</property>
  <property name="mlt_image_format">rgb24</property>
  <property name="kdenlive:file_hash">9196813120dc5c505072516b15baf414</property>
  <property name="global_feed">1</property>
 </producer>
 <producer id="producer43" in="00:00:00.000" out="00:00:44.033">
  <property name="length">1322</property>
  <property name="eof">pause</property>
  <property name="resource">/home/ryankelln/.cache/kdenlive/proxy/c3f09fd208df8cdb6b8c693ff3c337b6.mkv</property>
  <property name="audio_index">1</property>
  <property name="video_index">0</property>
  <property name="mute_on_pause">0</property>
  <property name="mlt_service">avformat-novalidate</property>
  <property name="seekable">1</property>
  <property name="aspect_ratio">1</property>
  <property name="kdenlive:clipname">trusses_rotating.mp4</property>
  <property name="kdenlive:folderid">34</property>
  <property name="kdenlive:id">49</property>
  <property name="kdenlive:file_size">6095429</property>
  <property name="kdenlive:file_hash">c3f09fd208df8cdb6b8c693ff3c337b6</property>
  <property name="kdenlive:proxy">/home/ryankelln/.cache/kdenlive/proxy/c3f09fd208df8cdb6b8c693ff3c337b6.mkv</property>
  <property name="kdenlive:originalurl">content/trusses_rotating.mp4</property>
  <property name="kdenlive:original.mlt_type">producer</property>
  <property name="kdenlive:original.in">0</property>
  <property name="kdenlive:original.out">1321</property>
  <property name="kdenlive:original.length">1322</property>
  <property name="kdenlive:original.eof">pause</property>
  <property name="kdenlive:original.resource">content/trusses_rotating.mp4</property>
  <property name="kdenlive:original.meta.media.nb_streams">2</property>
  <property name="kdenlive:original.meta.media.0.stream.type">video</property>
  <property name="kdenlive:original.meta.media.0.stream.frame_rate">30</property>
  <property name="kdenlive:original.meta.media.0.stream.sample_aspect_ratio">1</property>
  <property name="kdenlive:original.meta.media.0.codec.width">1920</property>
  <property name="kdenlive:original.meta.media.0.codec.height">1080</property>
  <property name="kdenlive:original.meta.media.0.codec.rotate">0</property>
  <property name="kdenlive:original.meta.media.0.codec.frame_rate">30</property>
  <property name="kdenlive:original.meta.media.0.codec.pix_fmt">yuv420p</property>
  <property name="kdenlive:original.meta.media.0.codec.sample_aspect_ratio">1</property>
  <property name="kdenlive:original.meta.media.0.codec.colorspace">709</property>
  <property name="kdenlive:original.meta.media.0.codec.color_trc">1</property>
  <property name="kdenlive:original.meta.media.0.codec.name">h264</property>
  <property name="kdenlive:original.meta.media.0.codec.long_name">H.264 / AVC / MPEG-4 AVC / MPEG-4 part 10</property>
  <property name="kdenlive:original.meta.media.0.codec.bit_rate">842590</property>
  <property name="kdenlive:original.meta.attr.0.stream.handler_name.markup">VideoHandler</property>
  <property name="kdenlive:original.meta.media.1.stream.type">audio</property>
  <property name="kdenlive:original.meta.media.1.codec.sample_fmt">fltp</property>
  <property name="kdenlive:original.meta.media.1.codec.sample_rate">48000</property>
  <property name="kdenlive:original.meta.media.1.codec.channels">2</property>
  <property name="kdenlive:original.meta.media.1.codec.name">aac</property>
  <property name="kdenlive:original.meta.media.1.codec.long_name">AAC (Advanced Audio Coding)</property>
  <property name="kdenlive:original.meta.media.1.codec.bit_rate">255977</property>
  <property name="kdenlive:original.meta.attr.1.stream.handler_name.markup">SoundHandler</property>
  <property name="kdenlive:original.meta.attr.major_brand.markup">isom</property>
  <property name="kdenlive:original.meta.attr.minor_version.markup">512</property>
  <property name="kdenlive:original.meta.attr.compatible_brands.markup">isomiso2avc1mp41</property>
  <property name="kdenlive:original.meta.attr.encoder.markup">Lavf58.45.100</property>
  <property name="kdenlive:original.seekable">1</property>
  <property name="kdenlive:original.width">1920</property>
  <property name="kdenlive:original.height">1080</property>
  <property name="kdenlive:original.meta.media.sample_aspect_num">1</property>
  <property name="kdenlive:original.meta.media.sample_aspect_den">1</property>
  <property name="kdenlive:original.aspect_ratio">1</property>
  <property name="kdenlive:original.audio_index">1</property>
  <property name="kdenlive:original.video_index">0</property>
  <property name="kdenlive:original.mute_on_pause">0</property>
  <property name="kdenlive:original.mlt_service">avformat-novalidate</property>
  <property name="kdenlive:original.kdenlive:folderid">34</property>
  <property name="kdenlive:original.meta.media.frame_rate_num">30</property>
  <property name="kdenlive:original.meta.media.frame_rate_den">1</property>
  <property name="kdenlive:original.meta.media.colorspace">709</property>
  <property name="kdenlive:original.meta.media.color_trc">1</property>
  <property name="kdenlive:original.meta.media.width">1920</property>
  <property name="kdenlive:original.meta.media.height">1080</property>
  <property name="kdenlive:original.meta.media.color_range">mpeg</property>
  <property name="kdenlive:original.kdenlive:id">53</property>
  <property name="kdenlive:original.kdenlive:file_size">6095429</property>
  <property name="kdenlive:original.kdenlive:file_hash">c3f09fd208df8cdb6b8c693ff3c337b6</property>
  <property name="kdenlive:original.backup">1</property>
  <property name="kdenlive:audio_max">6</property>
  <property name="global_feed">1</property>
  <property name="meta.media.nb_streams">2</property>
  <property name="meta.media.0.stream.type">video</property>
  <property name="meta.media.0.stream.frame_rate">30</property>
  <property name="meta.media.0.stream.sample_aspect_ratio">1</property>
  <property name="meta.media.0.codec.width">640</property>
  <property name="meta.media.0.codec.height">360</property>
  <property name="meta.media.0.codec.rotate">0</property>
  <property name="meta.media.0.codec.frame_rate">1000</property>
  <property name="meta.media.0.codec.pix_fmt">yuvj420p</property>
  <property name="meta.media.0.codec.sample_aspect_ratio">1</property>
  <property name="meta.media.0.codec.colorspace">601</property>
  <property name="meta.media.0.codec.name">mjpeg</property>
  <property name="meta.media.0.codec.long_name">MJPEG (Motion JPEG)</property>
  <property name="meta.media.0.codec.bit_rate">0</property>
  <property name="meta.attr.0.stream.HANDLER_NAME.markup">VideoHandler</property>
  <property name="meta.attr.0.stream.ENCODER.markup">Lavc58.91.100 mjpeg</property>
  <property name="meta.attr.0.stream.DURATION.markup">00:00:44.033000000</property>
  <property name="meta.media.1.stream.type">audio</property>
  <property name="meta.media.1.codec.sample_fmt">s16</property>
  <property name="meta.media.1.codec.sample_rate">48000</property>
  <property name="meta.media.1.codec.channels">2</property>
  <property name="meta.media.1.codec.name">pcm_s16le</property>
  <property name="meta.media.1.codec.long_name">PCM signed 16-bit little-endian</property>
  <property name="meta.media.1.codec.bit_rate">1536000</property>
  <property name="meta.attr.1.stream.HANDLER_NAME.markup">SoundHandler</property>
  <property name="meta.attr.1.stream.ENCODER.markup">Lavc58.91.100 pcm_s16le</property>
  <property name="meta.attr.1.stream.DURATION.markup">00:00:44.053000000</property>
  <property name="meta.attr.COMPATIBLE_BRANDS.markup">isomiso2avc1mp41</property>
  <property name="meta.attr.MAJOR_BRAND.markup">isom</property>
  <property name="meta.attr.MINOR_VERSION.markup">512</property>
  <property name="meta.attr.ENCODER.markup">Lavf58.45.100</property>
  <property name="meta.media.sample_aspect_num">1</property>
  <property name="meta.media.sample_aspect_den">1</property>
  <property name="meta.media.frame_rate_num">30</property>
  <property name="meta.media.frame_rate_den">1</property>
  <property name="meta.media.colorspace">601</property>
  <property name="meta.media.color_trc">2</property>
  <property name="meta.media.width">640</property>
  <property name="meta.media.height">360</property>
  <property name="meta.media.color_range">full</property>
  <property name="meta.media.top_field_first">0</property>
  <property name="meta.media.progressive">1</property>
 </producer>
 <producer id="producer44" in="00:00:00.000" out="00:00:44.033">
  <property name="length">1323</property>
  <property name="eof">pause</property>
  <property name="resource">/home/ryankelln/.cache/kdenlive/proxy/798d1c3462c3415c362ab562d1bb0c39.mkv</property>
  <property name="audio_index">1</property>
  <property name="video_index">0</property>
  <property name="mute_on_pause">0</property>
  <property name="mlt_service">avformat-novalidate</property>
  <property name="seekable">1</property>
  <property name="aspect_ratio">1</property>
  <property name="kdenlive:clipname">trusses_rotating_mirror.mp4</property>
  <property name="kdenlive:folderid">34</property>
  <property name="kdenlive:id">50</property>
  <property name="kdenlive:file_size">8626700</property>
  <property name="kdenlive:file_hash">798d1c3462c3415c362ab562d1bb0c39</property>
  <property name="kdenlive:proxy">/home/ryankelln/.cache/kdenlive/proxy/798d1c3462c3415c362ab562d1bb0c39.mkv</property>
  <property name="kdenlive:originalurl">content/trusses_rotating_mirror.mp4</property>
  <property name="kdenlive:original.mlt_type">producer</property>
  <property name="kdenlive:original.in">0</property>
  <property name="kdenlive:original.out">1322</property>
  <property name="kdenlive:original.length">1323</property>
  <property name="kdenlive:original.eof">pause</property>
  <property name="kdenlive:original.resource">content/trusses_rotating_mirror.mp4</property>
  <property name="kdenlive:original.meta.media.nb_streams">2</property>
  <property name="kdenlive:original.meta.media.0.stream.type">video</property>
  <property name="kdenlive:original.meta.media.0.stream.frame_rate">30</property>
  <property name="kdenlive:original.meta.media.0.stream.sample_aspect_ratio">1</property>
  <property name="kdenlive:original.meta.media.0.codec.width">1920</property>
  <property name="kdenlive:original.meta.media.0.codec.height">1080</property>
  <property name="kdenlive:original.meta.media.0.codec.rotate">0</property>
  <property name="kdenlive:original.meta.media.0.codec.frame_rate">30</property>
  <property name="kdenlive:original.meta.media.0.codec.pix_fmt">yuv420p</property>
  <property name="kdenlive:original.meta.media.0.codec.sample_aspect_ratio">1</property>
  <property name="kdenlive:original.meta.media.0.codec.colorspace">709</property>
  <property name="kdenlive:original.meta.media.0.codec.color_trc">1</property>
  <property name="kdenlive:original.meta.media.0.codec.name">h264</property>
  <property name="kdenlive:original.meta.media.0.codec.long_name">H.264 / AVC / MPEG-4 AVC / MPEG-4 part 10</property>
  <property name="kdenlive:original.meta.media.0.codec.bit_rate">1301541</property>
  <property name="kdenlive:original.meta.attr.0.stream.handler_name.markup">VideoHandler</property>
  <property name="kdenlive:original.meta.media.1.stream.type">audio</property>
  <property name="kdenlive:original.meta.media.1.codec.sample_fmt">fltp</property>
  <property name="kdenlive:original.meta.media.1.codec.sample_rate">48000</property>
  <property name="kdenlive:original.meta.media.1.codec.channels">2</property>
  <property name="kdenlive:original.meta.media.1.codec.name">aac</property>
  <property name="kdenlive:original.meta.media.1.codec.long_name">AAC (Advanced Audio Coding)</property>
  <property name="kdenlive:original.meta.media.1.codec.bit_rate">255789</property>
  <property name="kdenlive:original.meta.attr.1.stream.handler_name.markup">SoundHandler</property>
  <property name="kdenlive:original.meta.attr.major_brand.markup">isom</property>
  <property name="kdenlive:original.meta.attr.minor_version.markup">512</property>
  <property name="kdenlive:original.meta.attr.compatible_brands.markup">isomiso2avc1mp41</property>
  <property name="kdenlive:original.meta.attr.encoder.markup">Lavf58.45.100</property>
  <property name="kdenlive:original.seekable">1</property>
  <property name="kdenlive:original.width">1920</property>
  <property name="kdenlive:original.height">1080</property>
  <property name="kdenlive:original.meta.media.sample_aspect_num">1</property>
  <property name="kdenlive:original.meta.media.sample_aspect_den">1</property>
  <property name="kdenlive:original.aspect_ratio">1</property>
  <property name="kdenlive:original.audio_index">1</property>
  <property name="kdenlive:original.video_index">0</property>
  <property name="kdenlive:original.mute_on_pause">0</property>
  <property name="kdenlive:original.mlt_service">avformat-novalidate</property>
  <property name="kdenlive:original.kdenlive:folderid">34</property>
  <property name="kdenlive:original.meta.media.frame_rate_num">30</property>
  <property name="kdenlive:original.meta.media.frame_rate_den">1</property>
  <property name="kdenlive:original.meta.media.colorspace">709</property>
  <property name="kdenlive:original.meta.media.color_trc">1</property>
  <property name="kdenlive:original.meta.media.width">1920</property>
  <property name="kdenlive:original.meta.media.height">1080</property>
  <property name="kdenlive:original.meta.media.color_range">mpeg</property>
  <property name="kdenlive:original.kdenlive:id">54</property>
  <property name="kdenlive:original.kdenlive:file_size">8626700</property>
  <property name="kdenlive:original.kdenlive:file_hash">798d1c3462c3415c362ab562d1bb0c39</property>
  <property name="kdenlive:original.backup">1</property>
  <property name="kdenlive:audio_max">6</property>
  <property name="global_feed">1</property>
  <property name="meta.media.nb_streams">2</property>
  <property name="meta.media.0.stream.type">video</property>
  <property name="meta.media.0.stream.frame_rate">30</property>
  <property name="meta.media.0.stream.sample_aspect_ratio">1</property>
  <property name="meta.media.0.codec.width">640</property>
  <property name="meta.media.0.codec.height">360</property>
  <property name="meta.media.0.codec.rotate">0</property>
  <property name="meta.media.0.codec.frame_rate">1000</property>
  <property name="meta.media.0.codec.pix_fmt">yuvj420p</property>
  <property name="meta.media.0.codec.sample_aspect_ratio">1</property>
  <property name="meta.media.0.codec.colorspace">601</property>
  <property name="meta.media.0.codec.name">mjpeg</property>
  <property name="meta.media.0.codec.long_name">MJPEG (Motion JPEG)</property>
  <property name="meta.media.0.codec.bit_rate">0</property>
  <property name="meta.attr.0.stream.HANDLER_NAME.markup">VideoHandler</property>
  <property name="meta.attr.0.stream.ENCODER.markup">Lavc58.91.100 mjpeg</property>
  <property name="meta.attr.0.stream.DURATION.markup">00:00:44.066000000</property>
  <property name="meta.media.1.stream.type">audio</property>
  <property name="meta.media.1.codec.sample_fmt">s16</property>
  <property name="meta.media.1.codec.sample_rate">48000</property>
  <property name="meta.media.1.codec.channels">2</property>
  <property name="meta.media.1.codec.name">pcm_s16le</property>
  <property name="meta.media.1.codec.long_name">PCM signed 16-bit little-endian</property>
  <property name="meta.media.1.codec.bit_rate">1536000</property>
  <property name="meta.attr.1.stream.HANDLER_NAME.markup">SoundHandler</property>
  <property name="meta.attr.1.stream.ENCODER.markup">Lavc58.91.100 pcm_s16le</property>
  <property name="meta.attr.1.stream.DURATION.markup">00:00:44.074000000</property>
  <property name="meta.attr.COMPATIBLE_BRANDS.markup">isomiso2avc1mp41</property>
  <property name="meta.attr.MAJOR_BRAND.markup">isom</property>
  <property name="meta.attr.MINOR_VERSION.markup">512</property>
  <property name="meta.attr.ENCODER.markup">Lavf58.45.100</property>
  <property name="meta.media.sample_aspect_num">1</property>
  <property name="meta.media.sample_aspect_den">1</property>
  <property name="meta.media.frame_rate_num">30</property>
  <property name="meta.media.frame_rate_den">1</property>
  <property name="meta.media.colorspace">601</property>
  <property name="meta.media.color_trc">2</property>
  <property name="meta.media.width">640</property>
  <property name="meta.media.height">360</property>
  <property name="meta.media.color_range">full</property>
  <property name="meta.media.top_field_first">0</property>
  <property name="meta.media.progressive">1</property>
 </producer>
 <producer id="producer105" in="00:00:00.000" out="00:00:11.833">
  <property name="length">356</property>
  <property name="eof">pause</property>
  <property name="resource">content/texture_stills/00006_tiger2f_naselle_truss_strength0.06_pcahist_scale0.6_1920.png</property>
  <property name="ttl">25</property>
  <property name="aspect_ratio">1</property>
  <property name="progressive">1</property>
  <property name="seekable">1</property>
  <property name="meta.media.width">1212</property>
  <property name="meta.media.height">1212</property>
  <property name="mlt_service">qimage</property>
  <property name="kdenlive:clipname">00006_tiger2f_naselle_truss_strength0.06_pcahist_scale0.6_1920.png</property>
  <property name="kdenlive:duration">00:00:05.000</property>
  <property name="kdenlive:folderid">34</property>
  <property name="kdenlive:id">51</property>
  <property name="kdenlive:file_size">1674729</property>
  <property name="global_feed">1</property>
  <property name="kdenlive:file_hash">11a2e2435fef2bcdb663e14360174c37</property>
 </producer>
 <producer id="producer45" in="00:00:00.000" out="00:00:04.967">
  <property name="length">00:00:05.000</property>
  <property name="eof">pause</property>
  <property name="resource">content/texture_stills/00000_pheasant1f_opening_drums_08-566_strength0.08_pcahist_scale0.35_1920.png</property>
  <property name="ttl">25</property>
  <property name="aspect_ratio">1</property>
  <property name="progressive">1</property>
  <property name="seekable">1</property>
  <property name="meta.media.width">1920</property>
  <property name="meta.media.height">1088</property>
  <property name="mlt_service">qimage</property>
  <property name="kdenlive:clipname"/>
  <property name="kdenlive:duration">00:00:05.000</property>
  <property name="kdenlive:folderid">56</property>
  <property name="kdenlive:id">52</property>
  <property name="kdenlive:file_size">4594105</property>
  <property name="kdenlive:file_hash">07afaa651a64606131012e54960a81cc</property>
 </producer>
 <producer id="producer46" in="00:00:00.000" out="00:00:04.967">
  <property name="length">00:00:05.000</property>
  <property name="eof">pause</property>
  <property name="resource">content/texture_stills/00001_bee1f_opening_drums_10-566_strength0.02_pcahist_scale0.65_1920.png</property>
  <property name="ttl">25</property>
  <property name="aspect_ratio">1</property>
  <property name="progressive">1</property>
  <property name="seekable">1</property>
  <property name="meta.media.width">1920</property>
  <property name="meta.media.height">1088</property>
  <property name="mlt_service">qimage</property>
  <property name="kdenlive:clipname"/>
  <property name="kdenlive:duration">00:00:05.000</property>
  <property name="kdenlive:folderid">56</property>
  <property name="kdenlive:id">53</property>
  <property name="kdenlive:file_size">3991222</property>
  <property name="kdenlive:file_hash">ff51f004e95ca4e574f310a52bf123f2</property>
 </producer>
 <producer id="producer47" in="00:00:00.000" out="00:00:04.967">
  <property name="length">00:00:05.000</property>
  <property name="eof">pause</property>
  <property name="resource">content/texture_stills/00002_clown1_opening_drums_12-598_strength0.05_pcahist_scale0.3_1920.png</property>
  <property name="ttl">25</property>
  <property name="aspect_ratio">1</property>
  <property name="progressive">1</property>
  <property name="seekable">1</property>
  <property name="meta.media.width">1920</property>
  <property name="meta.media.height">1088</property>
  <property name="mlt_service">qimage</property>
  <property name="kdenlive:clipname"/>
  <property name="kdenlive:duration">00:00:05.000</property>
  <property name="kdenlive:folderid">56</property>
  <property name="kdenlive:id">54</property>
  <property name="kdenlive:file_size">3384346</property>
  <property name="kdenlive:file_hash">1b00b08c0081e1d9dc6fedc59229ea23</property>
 </producer>
 <producer id="producer48" in="00:00:00.000" out="00:00:04.967">
  <property name="length">00:00:05.000</property>
  <property name="eof">pause</property>
  <property name="resource">content/texture_stills/00003_eagle1_opening_drums_13-938_strength0.04_pcahist_scale0.3_1920.png</property>
  <property name="ttl">25</property>
  <property name="aspect_ratio">1</property>
  <property name="progressive">1</property>
  <property name="seekable">1</property>
  <property name="meta.media.width">1920</property>
  <property name="meta.media.height">1088</property>
  <property name="mlt_service">qimage</property>
  <property name="kdenlive:clipname"/>
  <property name="kdenlive:duration">00:00:05.000</property>
  <property name="kdenlive:folderid">56</property>
  <property name="kdenlive:id">55</property>
  <property name="kdenlive:file_size">4033305</property>
  <property name="kdenlive:file_hash">f0aefa446899b31d5db4e0c970df7190</property>
 </producer>
 <producer id="producer49" in="00:00:00.000" out="00:00:04.967">
  <property name="length">00:00:05.000</property>
  <property name="eof">pause</property>
  <property name="resource">content/texture_stills/00004_anemone2_opening_drums_18-641_strength0.04_pcahist_scale0.4_1920.png</property>
  <property name="ttl">25</property>
  <property name="aspect_ratio">1</property>
  <property name="progressive">1</property>
  <property name="seekable">1</property>
  <property name="meta.media.width">1920</property>
  <property name="meta.media.height">1088</property>
  <property name="mlt_service">qimage</property>
  <property name="kdenlive:clipname"/>
  <property name="kdenlive:duration">00:00:05.000</property>
  <property name="kdenlive:folderid">56</property>
  <property name="kdenlive:id">57</property>
  <property name="kdenlive:file_size">3143688</property>
  <property name="kdenlive:file_hash">c9a00329bfcb51d7363b6b6200c32d7e</property>
 </producer>
 <producer id="producer50" in="00:00:00.000" out="00:00:04.967">
  <property name="length">00:00:05.000</property>
  <property name="eof">pause</property>
  <property name="resource">content/texture_stills/00004_pheasant2f_opening_drums_18-641_strength0.08_pcahist_scale0.35_1920.png</property>
  <property name="ttl">25</property>
  <property name="aspect_ratio">1</property>
  <property name="progressive">1</property>
  <property name="seekable">1</property>
  <property name="meta.media.width">1920</property>
  <property name="meta.media.height">1088</property>
  <property name="mlt_service">qimage</property>
  <property name="kdenlive:clipname"/>
  <property name="kdenlive:duration">00:00:05.000</property>
  <property name="kdenlive:folderid">56</property>
  <property name="kdenlive:id">58</property>
  <property name="kdenlive:file_size">4760117</property>
  <property name="kdenlive:file_hash">d8b2f5f81201a0f77b32bd83509a67d6</property>
 </producer>
 <producer id="producer51" in="00:00:00.000" out="00:00:04.967">
  <property name="length">00:00:05.000</property>
  <property name="eof">pause</property>
  <property name="resource">content/texture_stills/00005_anenome1_opening_drums_20-933_strength0.04_pcahist_scale0.4_1920.png</property>
  <property name="ttl">25</property>
  <property name="aspect_ratio">1</property>
  <property name="progressive">1</property>
  <property name="seekable">1</property>
  <property name="meta.media.width">1920</property>
  <property name="meta.media.height">1088</property>
  <property name="mlt_service">qimage</property>
  <property name="kdenlive:clipname"/>
  <property name="kdenlive:duration">00:00:05.000</property>
  <property name="kdenlive:folderid">56</property>
  <property name="kdenlive:id">59</property>
  <property name="kdenlive:file_size">3366387</property>
  <property name="kdenlive:file_hash">8fc5ebbb9e808d16d683d9771a4ddc66</property>
 </producer>
 <producer id="producer52" in="00:00:00.000" out="00:00:04.967">
  <property name="length">00:00:05.000</property>
  <property name="eof">pause</property>
  <property name="resource">content/texture_stills/00005_zebra2_opening_drums_20-933_strength0.07_pcahist_scale0.3_1920.png</property>
  <property name="ttl">25</property>
  <property name="aspect_ratio">1</property>
  <property name="progressive">1</property>
  <property name="seekable">1</property>
  <property name="meta.media.width">1920</property>
  <property name="meta.media.height">1088</property>
  <property name="mlt_service">qimage</property>
  <property name="kdenlive:clipname"/>
  <property name="kdenlive:duration">00:00:05.000</property>
  <property name="kdenlive:folderid">56</property>
  <property name="kdenlive:id">60</property>
  <property name="kdenlive:file_size">4790568</property>
  <property name="kdenlive:file_hash">0d99c02deb3de31fb5036ebdf61c97ac</property>
 </producer>
 <producer id="producer53" in="00:00:00.000" out="00:00:04.967">
  <property name="length">00:00:05.000</property>
  <property name="eof">pause</property>
  <property name="resource">content/texture_stills/00006_bee1f_opening_drums_22-600_strength0.02_pcahist_scale0.65_1920.png</property>
  <property name="ttl">25</property>
  <property name="aspect_ratio">1</property>
  <property name="progressive">1</property>
  <property name="seekable">1</property>
  <property name="meta.media.width">1920</property>
  <property name="meta.media.height">1088</property>
  <property name="mlt_service">qimage</property>
  <property name="kdenlive:clipname"/>
  <property name="kdenlive:duration">00:00:05.000</property>
  <property name="kdenlive:folderid">56</property>
  <property name="kdenlive:id">61</property>
  <property name="kdenlive:file_size">4003706</property>
  <property name="kdenlive:file_hash">f1a00b13bdb7c55be5ba12c975cdb775</property>
 </producer>
 <producer id="producer54" in="00:00:00.000" out="00:00:04.967">
  <property name="length">00:00:05.000</property>
  <property name="eof">pause</property>
  <property name="resource">content/texture_stills/00006_clown1_opening_drums_22-600_strength0.05_pcahist_scale0.3_1920.png</property>
  <property name="ttl">25</property>
  <property name="aspect_ratio">1</property>
  <property name="progressive">1</property>
  <property name="seekable">1</property>
  <property name="meta.media.width">1920</property>
  <property name="meta.media.height">1088</property>
  <property name="mlt_service">qimage</property>
  <property name="kdenlive:clipname"/>
  <property name="kdenlive:duration">00:00:05.000</property>
  <property name="kdenlive:folderid">56</property>
  <property name="kdenlive:id">62</property>
  <property name="kdenlive:file_size">3364011</property>
  <property name="kdenlive:file_hash">8122b6fbc531a9835c493c8336ac2995</property>
 </producer>
 <producer id="producer55" in="00:00:00.000" out="00:00:04.967">
  <property name="length">00:00:05.000</property>
  <property name="eof">pause</property>
  <property name="resource">content/texture_stills/00006_zebra2f_opening_drums_22-600_strength0.07_pcahist_scale0.3_1920.png</property>
  <property name="ttl">25</property>
  <property name="aspect_ratio">1</property>
  <property name="progressive">1</property>
  <property name="seekable">1</property>
  <property name="meta.media.width">1920</property>
  <property name="meta.media.height">1088</property>
  <property name="mlt_service">qimage</property>
  <property name="kdenlive:clipname"/>
  <property name="kdenlive:duration">00:00:05.000</property>
  <property name="kdenlive:folderid">56</property>
  <property name="kdenlive:id">63</property>
  <property name="kdenlive:file_size">4766590</property>
  <property name="kdenlive:file_hash">a89ceab0d83d97a3cb0038c7c73a16bb</property>
 </producer>
 <producer id="producer56" in="00:00:00.000" out="00:00:04.967">
  <property name="length">00:00:05.000</property>
  <property name="eof">pause</property>
  <property name="resource">content/texture_stills/00007_monarch1_opening_drums_24-666_strength0.08_pcahist_scale0.3_1920.png</property>
  <property name="ttl">25</property>
  <property name="aspect_ratio">1</property>
  <property name="progressive">1</property>
  <property name="seekable">1</property>
  <property name="meta.media.width">1920</property>
  <property name="meta.media.height">1088</property>
  <property name="mlt_service">qimage</property>
  <property name="kdenlive:clipname"/>
  <property name="kdenlive:duration">00:00:05.000</property>
  <property name="kdenlive:folderid">56</property>
  <property name="kdenlive:id">64</property>
  <property name="kdenlive:file_size">3853045</property>
  <property name="kdenlive:file_hash">c1e3ad7a6b78ff772f8f47be6c36b4d0</property>
 </producer>
 <producer id="producer57" in="00:00:00.000" out="00:00:04.967">
  <property name="length">00:00:05.000</property>
  <property name="eof">pause</property>
  <property name="resource">content/texture_stills/00008_anemone2f_opening_drums_26-899_strength0.04_pcahist_scale0.4_1920.png</property>
  <property name="ttl">25</property>
  <property name="aspect_ratio">1</property>
  <property name="progressive">1</property>
  <property name="seekable">1</property>
  <property name="meta.media.width">1920</property>
  <property name="meta.media.height">1088</property>
  <property name="mlt_service">qimage</property>
  <property name="kdenlive:clipname"/>
  <property name="kdenlive:duration">00:00:05.000</property>
  <property name="kdenlive:folderid">56</property>
  <property name="kdenlive:id">65</property>
  <property name="kdenlive:file_size">3153963</property>
  <property name="kdenlive:file_hash">b87b8b4ce97f90dd2c39cb23e637da1c</property>
 </producer>
 <producer id="producer58" in="00:00:00.000" out="00:00:04.967">
  <property name="length">00:00:05.000</property>
  <property name="eof">pause</property>
  <property name="resource">content/texture_stills/00008_sea_slug1f_opening_drums_26-899_strength0.05_pcahist_scale0.5_1920.png</property>
  <property name="ttl">25</property>
  <property name="aspect_ratio">1</property>
  <property name="progressive">1</property>
  <property name="seekable">1</property>
  <property name="meta.media.width">1920</property>
  <property name="meta.media.height">1088</property>
  <property name="mlt_service">qimage</property>
  <property name="kdenlive:clipname"/>
  <property name="kdenlive:duration">00:00:05.000</property>
  <property name="kdenlive:folderid">56</property>
  <property name="kdenlive:id">66</property>
  <property name="kdenlive:file_size">4423560</property>
  <property name="kdenlive:file_hash">0c47f3d1543875db38d5ced0718f742f</property>
 </producer>
 <producer id="producer59" in="00:00:00.000" out="00:00:04.967">
  <property name="length">00:00:05.000</property>
  <property name="eof">pause</property>
  <property name="resource">content/texture_stills/00008_tiger1_opening_drums_26-899_strength0.06_pcahist_scale0.6_1920.png</property>
  <property name="ttl">25</property>
  <property name="aspect_ratio">1</property>
  <property name="progressive">1</property>
  <property name="seekable">1</property>
  <property name="meta.media.width">1920</property>
  <property name="meta.media.height">1088</property>
  <property name="mlt_service">qimage</property>
  <property name="kdenlive:clipname"/>
  <property name="kdenlive:duration">00:00:05.000</property>
  <property name="kdenlive:folderid">56</property>
  <property name="kdenlive:id">67</property>
  <property name="kdenlive:file_size">4566974</property>
  <property name="kdenlive:file_hash">10dff3c90dd6b65394dab683cd88f27c</property>
 </producer>
 <producer id="producer60" in="00:00:00.000" out="00:00:04.967">
  <property name="length">00:00:05.000</property>
  <property name="eof">pause</property>
  <property name="resource">content/texture_stills/00008_zebra2_opening_drums_26-899_strength0.07_pcahist_scale0.3_1920.png</property>
  <property name="ttl">25</property>
  <property name="aspect_ratio">1</property>
  <property name="progressive">1</property>
  <property name="seekable">1</property>
  <property name="meta.media.width">1920</property>
  <property name="meta.media.height">1088</property>
  <property name="mlt_service">qimage</property>
  <property name="kdenlive:clipname"/>
  <property name="kdenlive:duration">00:00:05.000</property>
  <property name="kdenlive:folderid">56</property>
  <property name="kdenlive:id">68</property>
  <property name="kdenlive:file_size">4784435</property>
  <property name="kdenlive:file_hash">eb3c7be84b1c6586fc1a04dc1e8e3779</property>
 </producer>
 <producer id="producer61" in="00:00:00.000" out="00:00:04.967">
  <property name="length">00:00:05.000</property>
  <property name="eof">pause</property>
  <property name="resource">content/texture_stills/00009_parrot2_opening_drums_28-533_strength0.06_pcahist_scale0.2_1920.png</property>
  <property name="ttl">25</property>
  <property name="aspect_ratio">1</property>
  <property name="progressive">1</property>
  <property name="seekable">1</property>
  <property name="meta.media.width">1920</property>
  <property name="meta.media.height">1088</property>
  <property name="mlt_service">qimage</property>
  <property name="kdenlive:clipname"/>
  <property name="kdenlive:duration">00:00:05.000</property>
  <property name="kdenlive:folderid">56</property>
  <property name="kdenlive:id">69</property>
  <property name="kdenlive:file_size">3579171</property>
  <property name="kdenlive:file_hash">f7dc999388b4a1aec9c29ae20f6d7759</property>
 </producer>
 <producer id="producer62" in="00:00:00.000" out="00:00:04.967">
  <property name="length">00:00:05.000</property>
  <property name="eof">pause</property>
  <property name="resource">content/texture_stills/00009_tiger2f_opening_drums_28-533_strength0.06_pcahist_scale0.6_1920.png</property>
  <property name="ttl">25</property>
  <property name="aspect_ratio">1</property>
  <property name="progressive">1</property>
  <property name="seekable">1</property>
  <property name="meta.media.width">1920</property>
  <property name="meta.media.height">1088</property>
  <property name="mlt_service">qimage</property>
  <property name="kdenlive:clipname"/>
  <property name="kdenlive:duration">00:00:05.000</property>
  <property name="kdenlive:folderid">56</property>
  <property name="kdenlive:id">70</property>
  <property name="kdenlive:file_size">4547225</property>
  <property name="kdenlive:file_hash">4f627c8d225d868d3762a8546f8da226</property>
 </producer>
 <producer id="producer63" in="00:00:00.000" out="00:00:04.967">
  <property name="length">00:00:05.000</property>
  <property name="eof">pause</property>
  <property name="resource">content/texture_stills/00010_anenome1_opening_drums_30-533_strength0.04_pcahist_scale0.4_1920.png</property>
  <property name="ttl">25</property>
  <property name="aspect_ratio">1</property>
  <property name="progressive">1</property>
  <property name="seekable">1</property>
  <property name="meta.media.width">1920</property>
  <property name="meta.media.height">1088</property>
  <property name="mlt_service">qimage</property>
  <property name="kdenlive:clipname"/>
  <property name="kdenlive:duration">00:00:05.000</property>
  <property name="kdenlive:folderid">56</property>
  <property name="kdenlive:id">71</property>
  <property name="kdenlive:file_size">3357174</property>
  <property name="kdenlive:file_hash">f3c2a964720d7db29500b9bc2e50bc1a</property>
 </producer>
 <producer id="producer64" in="00:00:00.000" out="00:00:04.967">
  <property name="length">00:00:05.000</property>
  <property name="eof">pause</property>
  <property name="resource">content/texture_stills/00010_peacock1v_opening_drums_30-533_strength0.07_pcahist_scale0.3_1920.png</property>
  <property name="ttl">25</property>
  <property name="aspect_ratio">1</property>
  <property name="progressive">1</property>
  <property name="seekable">1</property>
  <property name="meta.media.width">1920</property>
  <property name="meta.media.height">1088</property>
  <property name="mlt_service">qimage</property>
  <property name="kdenlive:clipname"/>
  <property name="kdenlive:duration">00:00:05.000</property>
  <property name="kdenlive:folderid">56</property>
  <property name="kdenlive:id">72</property>
  <property name="kdenlive:file_size">5255259</property>
  <property name="kdenlive:file_hash">0aa0bec4a73a5d675b0ed2c23639551d</property>
 </producer>
 <producer id="producer65" in="00:00:00.000" out="00:00:04.967">
  <property name="length">00:00:05.000</property>
  <property name="eof">pause</property>
  <property name="resource">content/texture_stills/00011_anemone2f_opening_drums_30_strength0.04_pcahist_scale0.4_1920.png</property>
  <property name="ttl">25</property>
  <property name="aspect_ratio">1</property>
  <property name="progressive">1</property>
  <property name="seekable">1</property>
  <property name="meta.media.width">1920</property>
  <property name="meta.media.height">1088</property>
  <property name="mlt_service">qimage</property>
  <property name="kdenlive:clipname"/>
  <property name="kdenlive:duration">00:00:05.000</property>
  <property name="kdenlive:folderid">56</property>
  <property name="kdenlive:id">73</property>
  <property name="kdenlive:file_size">3160951</property>
  <property name="kdenlive:file_hash">b05f27dea9ca0622b6d12f09c71056e9</property>
 </producer>
 <producer id="producer66" in="00:00:00.000" out="00:00:04.967">
  <property name="length">00:00:05.000</property>
  <property name="eof">pause</property>
  <property name="resource">content/texture_stills/00011_leopard2_opening_drums_30_strength0.07_pcahist_scale0.5_1920.png</property>
  <property name="ttl">25</property>
  <property name="aspect_ratio">1</property>
  <property name="progressive">1</property>
  <property name="seekable">1</property>
  <property name="meta.media.width">1920</property>
  <property name="meta.media.height">1088</property>
  <property name="mlt_service">qimage</property>
  <property name="kdenlive:clipname"/>
  <property name="kdenlive:duration">00:00:05.000</property>
  <property name="kdenlive:folderid">56</property>
  <property name="kdenlive:id">74</property>
  <property name="kdenlive:file_size">4562248</property>
  <property name="kdenlive:file_hash">c52199e7eb2ce63671bacc954899727b</property>
 </producer>
 <producer id="producer67" in="00:00:00.000" out="00:00:04.967">
  <property name="length">00:00:05.000</property>
  <property name="eof">pause</property>
  <property name="resource">content/texture_stills/00011_peacock2v_opening_drums_30_strength0.07_pcahist_scale0.5_1920.png</property>
  <property name="ttl">25</property>
  <property name="aspect_ratio">1</property>
  <property name="progressive">1</property>
  <property name="seekable">1</property>
  <property name="meta.media.width">1920</property>
  <property name="meta.media.height">1088</property>
  <property name="mlt_service">qimage</property>
  <property name="kdenlive:clipname"/>
  <property name="kdenlive:duration">00:00:05.000</property>
  <property name="kdenlive:folderid">56</property>
  <property name="kdenlive:id">75</property>
  <property name="kdenlive:file_size">5545065</property>
  <property name="kdenlive:file_hash">9173d8205759e7f0137f59893b3fe539</property>
 </producer>
 <producer id="producer68" in="00:00:00.000" out="00:00:04.967">
  <property name="length">00:00:05.000</property>
  <property name="eof">pause</property>
  <property name="resource">content/texture_stills/00011_pheasant1f_opening_drums_30_strength0.08_pcahist_scale0.35_1920.png</property>
  <property name="ttl">25</property>
  <property name="aspect_ratio">1</property>
  <property name="progressive">1</property>
  <property name="seekable">1</property>
  <property name="meta.media.width">1920</property>
  <property name="meta.media.height">1088</property>
  <property name="mlt_service">qimage</property>
  <property name="kdenlive:clipname"/>
  <property name="kdenlive:duration">00:00:05.000</property>
  <property name="kdenlive:folderid">56</property>
  <property name="kdenlive:id">76</property>
  <property name="kdenlive:file_size">4585322</property>
  <property name="kdenlive:file_hash">48ff531d6a6bacaedc345a19b30f0139</property>
 </producer>
 <producer id="producer69" in="00:00:00.000" out="00:00:04.967">
  <property name="length">00:00:05.000</property>
  <property name="eof">pause</property>
  <property name="resource">content/texture_stills/00012_bee1f_opening_drums_32-533_strength0.02_pcahist_scale0.65_1920.png</property>
  <property name="ttl">25</property>
  <property name="aspect_ratio">1</property>
  <property name="progressive">1</property>
  <property name="seekable">1</property>
  <property name="meta.media.width">1920</property>
  <property name="meta.media.height">1088</property>
  <property name="mlt_service">qimage</property>
  <property name="kdenlive:clipname"/>
  <property name="kdenlive:duration">00:00:05.000</property>
  <property name="kdenlive:folderid">56</property>
  <property name="kdenlive:id">77</property>
  <property name="kdenlive:file_size">3996815</property>
  <property name="kdenlive:file_hash">f93bda68ca5954789c63eecda66a4e50</property>
 </producer>
 <producer id="producer70" in="00:00:00.000" out="00:00:04.967">
  <property name="length">00:00:05.000</property>
  <property name="eof">pause</property>
  <property name="resource">content/texture_stills/00012_zebra2f_opening_drums_32-533_strength0.07_pcahist_scale0.3_1920.png</property>
  <property name="ttl">25</property>
  <property name="aspect_ratio">1</property>
  <property name="progressive">1</property>
  <property name="seekable">1</property>
  <property name="meta.media.width">1920</property>
  <property name="meta.media.height">1088</property>
  <property name="mlt_service">qimage</property>
  <property name="kdenlive:clipname"/>
  <property name="kdenlive:duration">00:00:05.000</property>
  <property name="kdenlive:folderid">56</property>
  <property name="kdenlive:id">78</property>
  <property name="kdenlive:file_size">4765100</property>
  <property name="kdenlive:file_hash">851894092a9cf4f1d96518345ffa467f</property>
 </producer>
 <producer id="producer71" in="00:00:00.000" out="00:00:04.967">
  <property name="length">00:00:05.000</property>
  <property name="eof">pause</property>
  <property name="resource">content/texture_stills/00013_bee2_opening_drums_34-500_strength0.02_pcahist_scale0.65_1920.png</property>
  <property name="ttl">25</property>
  <property name="aspect_ratio">1</property>
  <property name="progressive">1</property>
  <property name="seekable">1</property>
  <property name="meta.media.width">1920</property>
  <property name="meta.media.height">1088</property>
  <property name="mlt_service">qimage</property>
  <property name="kdenlive:clipname"/>
  <property name="kdenlive:duration">00:00:05.000</property>
  <property name="kdenlive:folderid">56</property>
  <property name="kdenlive:id">79</property>
  <property name="kdenlive:file_size">3484639</property>
  <property name="kdenlive:file_hash">48d7798d9603abe627e864adbaf64b21</property>
 </producer>
 <producer id="producer72" in="00:00:00.000" out="00:00:04.967">
  <property name="length">00:00:05.000</property>
  <property name="eof">pause</property>
  <property name="resource">content/texture_stills/00013_octopus1tp_opening_drums_34-500_strength0.05_pcahist_scale0.45_1920.png</property>
  <property name="ttl">25</property>
  <property name="aspect_ratio">1</property>
  <property name="progressive">1</property>
  <property name="seekable">1</property>
  <property name="meta.media.width">1920</property>
  <property name="meta.media.height">1088</property>
  <property name="mlt_service">qimage</property>
  <property name="kdenlive:clipname"/>
  <property name="kdenlive:duration">00:00:05.000</property>
  <property name="kdenlive:folderid">56</property>
  <property name="kdenlive:id">80</property>
  <property name="kdenlive:file_size">3472976</property>
  <property name="kdenlive:file_hash">408581d0537a664dccdeb0c9f34db675</property>
 </producer>
 <producer id="producer73" in="00:00:00.000" out="00:00:04.967">
  <property name="length">00:00:05.000</property>
  <property name="eof">pause</property>
  <property name="resource">content/texture_stills/00014_anenome1f_opening_drums_36-433_strength0.04_pcahist_scale0.4_1920.png</property>
  <property name="ttl">25</property>
  <property name="aspect_ratio">1</property>
  <property name="progressive">1</property>
  <property name="seekable">1</property>
  <property name="meta.media.width">1920</property>
  <property name="meta.media.height">1088</property>
  <property name="mlt_service">qimage</property>
  <property name="kdenlive:clipname"/>
  <property name="kdenlive:duration">00:00:05.000</property>
  <property name="kdenlive:folderid">56</property>
  <property name="kdenlive:id">81</property>
  <property name="kdenlive:file_size">3358641</property>
  <property name="kdenlive:file_hash">9f6139029ee54c3445f304f9c36009f7</property>
 </producer>
 <producer id="producer74" in="00:00:00.000" out="00:00:04.967">
  <property name="length">00:00:05.000</property>
  <property name="eof">pause</property>
  <property name="resource">content/texture_stills/00014_parrot1_opening_drums_36-433_strength0.06_pcahist_scale0.2_1920.png</property>
  <property name="ttl">25</property>
  <property name="aspect_ratio">1</property>
  <property name="progressive">1</property>
  <property name="seekable">1</property>
  <property name="meta.media.width">1920</property>
  <property name="meta.media.height">1088</property>
  <property name="mlt_service">qimage</property>
  <property name="kdenlive:clipname"/>
  <property name="kdenlive:duration">00:00:05.000</property>
  <property name="kdenlive:folderid">56</property>
  <property name="kdenlive:id">82</property>
  <property name="kdenlive:file_size">3740517</property>
  <property name="kdenlive:file_hash">852b3e0a8296b61ff3a00e9337542ab1</property>
 </producer>
 <producer id="producer75" in="00:00:00.000" out="00:00:04.967">
  <property name="length">00:00:05.000</property>
  <property name="eof">pause</property>
  <property name="resource">content/texture_stills/00014_sea_slug1_opening_drums_36-433_strength0.05_pcahist_scale0.5_1920.png</property>
  <property name="ttl">25</property>
  <property name="aspect_ratio">1</property>
  <property name="progressive">1</property>
  <property name="seekable">1</property>
  <property name="meta.media.width">1920</property>
  <property name="meta.media.height">1088</property>
  <property name="mlt_service">qimage</property>
  <property name="kdenlive:clipname"/>
  <property name="kdenlive:duration">00:00:05.000</property>
  <property name="kdenlive:folderid">56</property>
  <property name="kdenlive:id">83</property>
  <property name="kdenlive:file_size">4421565</property>
  <property name="kdenlive:file_hash">e05ba3d7faaddf4cc9c4896593e20d6f</property>
 </producer>
 <producer id="producer76" in="00:00:00.000" out="00:00:04.967">
  <property name="length">00:00:05.000</property>
  <property name="eof">pause</property>
  <property name="resource">content/texture_stills/00015_bee1f_opening_drums_38-366_strength0.02_pcahist_scale0.65_1920.png</property>
  <property name="ttl">25</property>
  <property name="aspect_ratio">1</property>
  <property name="progressive">1</property>
  <property name="seekable">1</property>
  <property name="meta.media.width">1920</property>
  <property name="meta.media.height">1088</property>
  <property name="mlt_service">qimage</property>
  <property name="kdenlive:clipname"/>
  <property name="kdenlive:duration">00:00:05.000</property>
  <property name="kdenlive:folderid">56</property>
  <property name="kdenlive:id">84</property>
  <property name="kdenlive:file_size">4022887</property>
  <property name="kdenlive:file_hash">279825affe4d340d9021af19cf205c56</property>
 </producer>
 <producer id="producer77" in="00:00:00.000" out="00:00:04.967">
  <property name="length">00:00:05.000</property>
  <property name="eof">pause</property>
  <property name="resource">content/texture_stills/00015_eagle1f_opening_drums_38-366_strength0.04_pcahist_scale0.3_1920.png</property>
  <property name="ttl">25</property>
  <property name="aspect_ratio">1</property>
  <property name="progressive">1</property>
  <property name="seekable">1</property>
  <property name="meta.media.width">1920</property>
  <property name="meta.media.height">1088</property>
  <property name="mlt_service">qimage</property>
  <property name="kdenlive:clipname"/>
  <property name="kdenlive:duration">00:00:05.000</property>
  <property name="kdenlive:folderid">56</property>
  <property name="kdenlive:id">85</property>
  <property name="kdenlive:file_size">3987029</property>
  <property name="kdenlive:file_hash">60fea0c2215ffe7d874af035eb6c3033</property>
 </producer>
 <producer id="producer78" in="00:00:00.000" out="00:00:04.967">
  <property name="length">00:00:05.000</property>
  <property name="eof">pause</property>
  <property name="resource">content/texture_stills/00015_leopard1f_opening_drums_38-366_strength0.07_pcahist_scale0.5_1920.png</property>
  <property name="ttl">25</property>
  <property name="aspect_ratio">1</property>
  <property name="progressive">1</property>
  <property name="seekable">1</property>
  <property name="meta.media.width">1920</property>
  <property name="meta.media.height">1088</property>
  <property name="mlt_service">qimage</property>
  <property name="kdenlive:clipname"/>
  <property name="kdenlive:duration">00:00:05.000</property>
  <property name="kdenlive:folderid">56</property>
  <property name="kdenlive:id">86</property>
  <property name="kdenlive:file_size">4584048</property>
  <property name="kdenlive:file_hash">ee71cee8e4ca54cf17ac3a6fc580945b</property>
 </producer>
 <producer id="producer79" in="00:00:00.000" out="00:00:04.967">
  <property name="length">00:00:05.000</property>
  <property name="eof">pause</property>
  <property name="resource">content/texture_stills/00015_peacock2_opening_drums_38-366_strength0.07_pcahist_scale0.5_1920.png</property>
  <property name="ttl">25</property>
  <property name="aspect_ratio">1</property>
  <property name="progressive">1</property>
  <property name="seekable">1</property>
  <property name="meta.media.width">1920</property>
  <property name="meta.media.height">1088</property>
  <property name="mlt_service">qimage</property>
  <property name="kdenlive:clipname"/>
  <property name="kdenlive:duration">00:00:05.000</property>
  <property name="kdenlive:folderid">56</property>
  <property name="kdenlive:id">87</property>
  <property name="kdenlive:file_size">5629771</property>
  <property name="kdenlive:file_hash">d17079565ecd7bce45fad59fdc0a45d5</property>
 </producer>
 <producer id="producer80" in="00:00:00.000" out="00:00:04.967">
  <property name="length">00:00:05.000</property>
  <property name="eof">pause</property>
  <property name="resource">content/texture_stills/00015_sea_slug1f_opening_drums_38-366_strength0.05_pcahist_scale0.5_1920.png</property>
  <property name="ttl">25</property>
  <property name="aspect_ratio">1</property>
  <property name="progressive">1</property>
  <property name="seekable">1</property>
  <property name="meta.media.width">1920</property>
  <property name="meta.media.height">1088</property>
  <property name="mlt_service">qimage</property>
  <property name="kdenlive:clipname"/>
  <property name="kdenlive:duration">00:00:05.000</property>
  <property name="kdenlive:folderid">56</property>
  <property name="kdenlive:id">88</property>
  <property name="kdenlive:file_size">4410394</property>
  <property name="kdenlive:file_hash">1f40da84c9b828c309622be0bb73aa5b</property>
 </producer>
 <producer id="producer81" in="00:00:00.000" out="00:00:04.967">
  <property name="length">00:00:05.000</property>
  <property name="eof">pause</property>
  <property name="resource">content/texture_stills/00015_tiger1_opening_drums_38-366_strength0.06_pcahist_scale0.6_1920.png</property>
  <property name="ttl">25</property>
  <property name="aspect_ratio">1</property>
  <property name="progressive">1</property>
  <property name="seekable">1</property>
  <property name="meta.media.width">1920</property>
  <property name="meta.media.height">1088</property>
  <property name="mlt_service">qimage</property>
  <property name="kdenlive:clipname"/>
  <property name="kdenlive:duration">00:00:05.000</property>
  <property name="kdenlive:folderid">56</property>
  <property name="kdenlive:id">89</property>
  <property name="kdenlive:file_size">4556718</property>
  <property name="kdenlive:file_hash">8442db9e0d31a9a0aad49ef86e72cd09</property>
 </producer>
 <producer id="producer82" in="00:00:00.000" out="00:00:04.967">
  <property name="length">00:00:05.000</property>
  <property name="eof">pause</property>
  <property name="resource">content/texture_stills/00016_bee1f_opening_drums_39-299_strength0.02_pcahist_scale0.65_1920.png</property>
  <property name="ttl">25</property>
  <property name="aspect_ratio">1</property>
  <property name="progressive">1</property>
  <property name="seekable">1</property>
  <property name="meta.media.width">1920</property>
  <property name="meta.media.height">1088</property>
  <property name="mlt_service">qimage</property>
  <property name="kdenlive:clipname"/>
  <property name="kdenlive:duration">00:00:05.000</property>
  <property name="kdenlive:folderid">56</property>
  <property name="kdenlive:id">90</property>
  <property name="kdenlive:file_size">4047891</property>
  <property name="kdenlive:file_hash">e8cebaa3ff268f854efb9ecba472350e</property>
 </producer>
 <producer id="producer83" in="00:00:00.000" out="00:00:04.967">
  <property name="length">00:00:05.000</property>
  <property name="eof">pause</property>
  <property name="resource">content/texture_stills/00016_clown1_opening_drums_39-299_strength0.05_pcahist_scale0.3_1920.png</property>
  <property name="ttl">25</property>
  <property name="aspect_ratio">1</property>
  <property name="progressive">1</property>
  <property name="seekable">1</property>
  <property name="meta.media.width">1920</property>
  <property name="meta.media.height">1088</property>
  <property name="mlt_service">qimage</property>
  <property name="kdenlive:clipname"/>
  <property name="kdenlive:duration">00:00:05.000</property>
  <property name="kdenlive:folderid">56</property>
  <property name="kdenlive:id">91</property>
  <property name="kdenlive:file_size">3336515</property>
  <property name="kdenlive:file_hash">dbe0aabf212f612b5e7656a498f9ebad</property>
 </producer>
 <producer id="producer84" in="00:00:00.000" out="00:00:04.967">
  <property name="length">00:00:05.000</property>
  <property name="eof">pause</property>
  <property name="resource">content/texture_stills/00016_eagle1_opening_drums_39-299_strength0.04_pcahist_scale0.3_1920.png</property>
  <property name="ttl">25</property>
  <property name="aspect_ratio">1</property>
  <property name="progressive">1</property>
  <property name="seekable">1</property>
  <property name="meta.media.width">1920</property>
  <property name="meta.media.height">1088</property>
  <property name="mlt_service">qimage</property>
  <property name="kdenlive:clipname"/>
  <property name="kdenlive:duration">00:00:05.000</property>
  <property name="kdenlive:folderid">56</property>
  <property name="kdenlive:id">92</property>
  <property name="kdenlive:file_size">4024307</property>
  <property name="kdenlive:file_hash">1f209db6f7757a6453bb514d65a85c8d</property>
 </producer>
 <producer id="producer85" in="00:00:00.000" out="00:00:04.967">
  <property name="length">00:00:05.000</property>
  <property name="eof">pause</property>
  <property name="resource">content/texture_stills/00016_leopard2_opening_drums_39-299_strength0.07_pcahist_scale0.5_1920.png</property>
  <property name="ttl">25</property>
  <property name="aspect_ratio">1</property>
  <property name="progressive">1</property>
  <property name="seekable">1</property>
  <property name="meta.media.width">1920</property>
  <property name="meta.media.height">1088</property>
  <property name="mlt_service">qimage</property>
  <property name="kdenlive:clipname"/>
  <property name="kdenlive:duration">00:00:05.000</property>
  <property name="kdenlive:folderid">56</property>
  <property name="kdenlive:id">93</property>
  <property name="kdenlive:file_size">4555509</property>
  <property name="kdenlive:file_hash">bc2be6db79189a7c3177fa9749801797</property>
 </producer>
 <producer id="producer86" in="00:00:00.000" out="00:00:04.967">
  <property name="length">00:00:05.000</property>
  <property name="eof">pause</property>
  <property name="resource">content/texture_stills/00017_anemone2_opening_drums_40-299_strength0.04_pcahist_scale0.4_1920.png</property>
  <property name="ttl">25</property>
  <property name="aspect_ratio">1</property>
  <property name="progressive">1</property>
  <property name="seekable">1</property>
  <property name="meta.media.width">1920</property>
  <property name="meta.media.height">1088</property>
  <property name="mlt_service">qimage</property>
  <property name="kdenlive:clipname"/>
  <property name="kdenlive:duration">00:00:05.000</property>
  <property name="kdenlive:folderid">56</property>
  <property name="kdenlive:id">94</property>
  <property name="kdenlive:file_size">3103784</property>
  <property name="kdenlive:file_hash">e0813b918e4d105977387aaf5d355e8b</property>
 </producer>
 <producer id="producer87" in="00:00:00.000" out="00:00:04.967">
  <property name="length">00:00:05.000</property>
  <property name="eof">pause</property>
  <property name="resource">content/texture_stills/00017_bee1_opening_drums_40-299_strength0.02_pcahist_scale0.65_1920.png</property>
  <property name="ttl">25</property>
  <property name="aspect_ratio">1</property>
  <property name="progressive">1</property>
  <property name="seekable">1</property>
  <property name="meta.media.width">1920</property>
  <property name="meta.media.height">1088</property>
  <property name="mlt_service">qimage</property>
  <property name="kdenlive:clipname"/>
  <property name="kdenlive:duration">00:00:05.000</property>
  <property name="kdenlive:folderid">56</property>
  <property name="kdenlive:id">95</property>
  <property name="kdenlive:file_size">4012511</property>
  <property name="kdenlive:file_hash">8585255566148ab7aed7535e2f4bad55</property>
 </producer>
 <producer id="producer88" in="00:00:00.000" out="00:00:04.967">
  <property name="length">00:00:05.000</property>
  <property name="eof">pause</property>
  <property name="resource">content/texture_stills/00017_pheasant1f_opening_drums_40-299_strength0.08_pcahist_scale0.35_1920.png</property>
  <property name="ttl">25</property>
  <property name="aspect_ratio">1</property>
  <property name="progressive">1</property>
  <property name="seekable">1</property>
  <property name="meta.media.width">1920</property>
  <property name="meta.media.height">1088</property>
  <property name="mlt_service">qimage</property>
  <property name="kdenlive:clipname"/>
  <property name="kdenlive:duration">00:00:05.000</property>
  <property name="kdenlive:folderid">56</property>
  <property name="kdenlive:id">96</property>
  <property name="kdenlive:file_size">4575504</property>
  <property name="kdenlive:file_hash">178928ce9f6050196e01af5d61f05dd5</property>
 </producer>
 <producer id="producer89" in="00:00:00.000" out="00:00:04.967">
  <property name="length">00:00:05.000</property>
  <property name="eof">pause</property>
  <property name="resource">content/texture_stills/00018_anenome1f_opening_drums_41-899_strength0.04_pcahist_scale0.4_1920.png</property>
  <property name="ttl">25</property>
  <property name="aspect_ratio">1</property>
  <property name="progressive">1</property>
  <property name="seekable">1</property>
  <property name="meta.media.width">1920</property>
  <property name="meta.media.height">1088</property>
  <property name="mlt_service">qimage</property>
  <property name="kdenlive:clipname"/>
  <property name="kdenlive:duration">00:00:05.000</property>
  <property name="kdenlive:folderid">56</property>
  <property name="kdenlive:id">97</property>
  <property name="kdenlive:file_size">3312150</property>
  <property name="kdenlive:file_hash">fe5be14f71f877bac004847f7d4ee7c9</property>
  <property name="global_feed">1</property>
 </producer>
 <producer id="producer90" in="00:00:00.000" out="00:00:04.967">
  <property name="length">00:00:05.000</property>
  <property name="eof">pause</property>
  <property name="resource">content/texture_stills/00018_peacock2_opening_drums_41-899_strength0.07_pcahist_scale0.5_1920.png</property>
  <property name="ttl">25</property>
  <property name="aspect_ratio">1</property>
  <property name="progressive">1</property>
  <property name="seekable">1</property>
  <property name="meta.media.width">1920</property>
  <property name="meta.media.height">1088</property>
  <property name="mlt_service">qimage</property>
  <property name="kdenlive:clipname"/>
  <property name="kdenlive:duration">00:00:05.000</property>
  <property name="kdenlive:folderid">56</property>
  <property name="kdenlive:id">98</property>
  <property name="kdenlive:file_size">5622348</property>
  <property name="kdenlive:file_hash">6be56ea82759bda339d94ea2f4c2848d</property>
 </producer>
 <producer id="producer91" in="00:00:00.000" out="00:00:04.967">
  <property name="length">00:00:05.000</property>
  <property name="eof">pause</property>
  <property name="resource">content/texture_stills/00018_sea_slug2f_opening_drums_41-899_strength0.05_pcahist_scale0.5_1920.png</property>
  <property name="ttl">25</property>
  <property name="aspect_ratio">1</property>
  <property name="progressive">1</property>
  <property name="seekable">1</property>
  <property name="meta.media.width">1920</property>
  <property name="meta.media.height">1088</property>
  <property name="mlt_service">qimage</property>
  <property name="kdenlive:clipname"/>
  <property name="kdenlive:duration">00:00:05.000</property>
  <property name="kdenlive:folderid">56</property>
  <property name="kdenlive:id">99</property>
  <property name="kdenlive:file_size">3963625</property>
  <property name="kdenlive:file_hash">b8410700087663550e730d118d6d6aa9</property>
 </producer>
 <producer id="producer92" in="00:00:00.000" out="00:00:04.967">
  <property name="length">00:00:05.000</property>
  <property name="eof">pause</property>
  <property name="resource">content/texture_stills/00019_zebra1_opening_drums_42-299_strength0.07_pcahist_scale0.3_1920.png</property>
  <property name="ttl">25</property>
  <property name="aspect_ratio">1</property>
  <property name="progressive">1</property>
  <property name="seekable">1</property>
  <property name="meta.media.width">1920</property>
  <property name="meta.media.height">1088</property>
  <property name="mlt_service">qimage</property>
  <property name="kdenlive:clipname"/>
  <property name="kdenlive:duration">00:00:05.000</property>
  <property name="kdenlive:folderid">56</property>
  <property name="kdenlive:id">100</property>
  <property name="kdenlive:file_size">3825024</property>
  <property name="kdenlive:file_hash">fd92f82f154d55a0e0e833e1a51ecaa8</property>
 </producer>
 <producer id="producer93" in="00:00:00.000" out="00:00:04.967">
  <property name="length">00:00:05.000</property>
  <property name="eof">pause</property>
  <property name="resource">content/texture_stills/00020_monarch2_opening_drums_42-600_strength0.08_pcahist_scale0.3_1920.png</property>
  <property name="ttl">25</property>
  <property name="aspect_ratio">1</property>
  <property name="progressive">1</property>
  <property name="seekable">1</property>
  <property name="meta.media.width">1920</property>
  <property name="meta.media.height">1088</property>
  <property name="mlt_service">qimage</property>
  <property name="kdenlive:clipname"/>
  <property name="kdenlive:duration">00:00:05.000</property>
  <property name="kdenlive:folderid">56</property>
  <property name="kdenlive:id">101</property>
  <property name="kdenlive:file_size">3433589</property>
  <property name="kdenlive:file_hash">a7c22f5a839112d9a1c5632f84800118</property>
 </producer>
 <producer id="producer94" in="00:00:00.000" out="00:00:04.967">
  <property name="length">00:00:05.000</property>
  <property name="eof">pause</property>
  <property name="resource">content/texture_stills/00020_peacock1_opening_drums_42-600_strength0.07_pcahist_scale0.3_1920.png</property>
  <property name="ttl">25</property>
  <property name="aspect_ratio">1</property>
  <property name="progressive">1</property>
  <property name="seekable">1</property>
  <property name="meta.media.width">1920</property>
  <property name="meta.media.height">1088</property>
  <property name="mlt_service">qimage</property>
  <property name="kdenlive:clipname"/>
  <property name="kdenlive:duration">00:00:05.000</property>
  <property name="kdenlive:folderid">56</property>
  <property name="kdenlive:id">102</property>
  <property name="kdenlive:file_size">5258818</property>
  <property name="kdenlive:file_hash">7d6e29343bd727742d8de1f6f5b91e37</property>
 </producer>
 <producer id="producer95" in="00:00:00.000" out="00:00:04.967">
  <property name="length">00:00:05.000</property>
  <property name="eof">pause</property>
  <property name="resource">content/texture_stills/00020_peacock2_opening_drums_42-600_strength0.07_pcahist_scale0.5_1920.png</property>
  <property name="ttl">25</property>
  <property name="aspect_ratio">1</property>
  <property name="progressive">1</property>
  <property name="seekable">1</property>
  <property name="meta.media.width">1920</property>
  <property name="meta.media.height">1088</property>
  <property name="mlt_service">qimage</property>
  <property name="kdenlive:clipname"/>
  <property name="kdenlive:duration">00:00:05.000</property>
  <property name="kdenlive:folderid">56</property>
  <property name="kdenlive:id">103</property>
  <property name="kdenlive:file_size">5622101</property>
  <property name="kdenlive:file_hash">8e56f556489324d06fe4008cee45374f</property>
 </producer>
 <producer id="producer96" in="00:00:00.000" out="00:00:04.967">
  <property name="length">00:00:05.000</property>
  <property name="eof">pause</property>
  <property name="resource">content/texture_stills/00020_sea_slug1f_opening_drums_42-600_strength0.05_pcahist_scale0.5_1920.png</property>
  <property name="ttl">25</property>
  <property name="aspect_ratio">1</property>
  <property name="progressive">1</property>
  <property name="seekable">1</property>
  <property name="meta.media.width">1920</property>
  <property name="meta.media.height">1088</property>
  <property name="mlt_service">qimage</property>
  <property name="kdenlive:clipname"/>
  <property name="kdenlive:duration">00:00:05.000</property>
  <property name="kdenlive:folderid">56</property>
  <property name="kdenlive:id">104</property>
  <property name="kdenlive:file_size">4413053</property>
  <property name="kdenlive:file_hash">7f759ba3929efaf71ba82c695c069804</property>
 </producer>
 <producer id="producer97" in="00:00:00.000" out="00:00:04.967">
  <property name="length">00:00:05.000</property>
  <property name="eof">pause</property>
  <property name="resource">content/texture_stills/00020_tiger2f_opening_drums_42-600_strength0.06_pcahist_scale0.6_1920.png</property>
  <property name="ttl">25</property>
  <property name="aspect_ratio">1</property>
  <property name="progressive">1</property>
  <property name="seekable">1</property>
  <property name="meta.media.width">1920</property>
  <property name="meta.media.height">1088</property>
  <property name="mlt_service">qimage</property>
  <property name="kdenlive:clipname"/>
  <property name="kdenlive:duration">00:00:05.000</property>
  <property name="kdenlive:folderid">56</property>
  <property name="kdenlive:id">105</property>
  <property name="kdenlive:file_size">4540889</property>
  <property name="kdenlive:file_hash">2bf2ca6b47688fbb5916b633e6037ad7</property>
 </producer>
 <producer id="producer98" in="00:00:00.000" out="00:00:04.967">
  <property name="length">00:00:05.000</property>
  <property name="eof">pause</property>
  <property name="resource">content/texture_stills/00021_blue_ringed_octopus_f_opening_drums_44-133_strength0.03_pcahist_scale0.75_1920.png</property>
  <property name="ttl">25</property>
  <property name="aspect_ratio">1</property>
  <property name="progressive">1</property>
  <property name="seekable">1</property>
  <property name="meta.media.width">1920</property>
  <property name="meta.media.height">1088</property>
  <property name="mlt_service">qimage</property>
  <property name="kdenlive:clipname"/>
  <property name="kdenlive:duration">00:00:05.000</property>
  <property name="kdenlive:folderid">56</property>
  <property name="kdenlive:id">106</property>
  <property name="kdenlive:file_size">3054465</property>
  <property name="kdenlive:file_hash">c211767e49127211b699b09cba498831</property>
 </producer>
 <producer id="producer99" in="00:00:00.000" out="00:00:04.967">
  <property name="length">00:00:05.000</property>
  <property name="eof">pause</property>
  <property name="resource">content/texture_stills/00021_koy1f_opening_drums_44-133_strength0.065_pcahist_scale0.2_1920.png</property>
  <property name="ttl">25</property>
  <property name="aspect_ratio">1</property>
  <property name="progressive">1</property>
  <property name="seekable">1</property>
  <property name="meta.media.width">1920</property>
  <property name="meta.media.height">1088</property>
  <property name="mlt_service">qimage</property>
  <property name="kdenlive:clipname"/>
  <property name="kdenlive:duration">00:00:05.000</property>
  <property name="kdenlive:folderid">56</property>
  <property name="kdenlive:id">107</property>
  <property name="kdenlive:file_size">4127882</property>
  <property name="kdenlive:file_hash">f06bb215e748a5686f2d15391e31dcb3</property>
 </producer>
 <producer id="producer100" in="00:00:00.000" out="00:00:04.967">
  <property name="length">00:00:05.000</property>
  <property name="eof">pause</property>
  <property name="resource">content/texture_stills/00021_peacock2v_opening_drums_44-133_strength0.07_pcahist_scale0.5_1920.png</property>
  <property name="ttl">25</property>
  <property name="aspect_ratio">1</property>
  <property name="progressive">1</property>
  <property name="seekable">1</property>
  <property name="meta.media.width">1920</property>
  <property name="meta.media.height">1088</property>
  <property name="mlt_service">qimage</property>
  <property name="kdenlive:clipname"/>
  <property name="kdenlive:duration">00:00:05.000</property>
  <property name="kdenlive:folderid">56</property>
  <property name="kdenlive:id">108</property>
  <property name="kdenlive:file_size">5544908</property>
  <property name="kdenlive:file_hash">55800b16003564b0380dead9ed07b7ee</property>
 </producer>
 <producer id="producer101" in="00:00:00.000" out="00:00:04.967">
  <property name="length">00:00:05.000</property>
  <property name="eof">pause</property>
  <property name="resource">content/texture_stills/00021_zebra1f_opening_drums_44-133_strength0.07_pcahist_scale0.3_1920.png</property>
  <property name="ttl">25</property>
  <property name="aspect_ratio">1</property>
  <property name="progressive">1</property>
  <property name="seekable">1</property>
  <property name="meta.media.width">1920</property>
  <property name="meta.media.height">1088</property>
  <property name="mlt_service">qimage</property>
  <property name="kdenlive:clipname"/>
  <property name="kdenlive:duration">00:00:05.000</property>
  <property name="kdenlive:folderid">56</property>
  <property name="kdenlive:id">109</property>
  <property name="kdenlive:file_size">3859949</property>
  <property name="kdenlive:file_hash">ddcd01dfbe71f87c26248515e68936a6</property>
 </producer>
 <producer id="producer102" in="00:00:00.000" out="00:00:04.967">
  <property name="length">00:00:05.000</property>
  <property name="eof">pause</property>
  <property name="resource">content/texture_stills/00022_cheetah1f_opening_drums_46-633_strength0.06_pcahist_scale0.5_1920.png</property>
  <property name="ttl">25</property>
  <property name="aspect_ratio">1</property>
  <property name="progressive">1</property>
  <property name="seekable">1</property>
  <property name="meta.media.width">1920</property>
  <property name="meta.media.height">1088</property>
  <property name="mlt_service">qimage</property>
  <property name="kdenlive:clipname"/>
  <property name="kdenlive:duration">00:00:05.000</property>
  <property name="kdenlive:folderid">56</property>
  <property name="kdenlive:id">110</property>
  <property name="kdenlive:file_size">4402062</property>
  <property name="kdenlive:file_hash">6d0beb55a7d318f67d8d7833739eb27d</property>
 </producer>
 <producer id="producer103" in="00:00:00.000" out="00:00:04.967">
  <property name="length">00:00:05.000</property>
  <property name="eof">pause</property>
  <property name="resource">content/texture_stills/00022_koy1f_opening_drums_46-633_strength0.065_pcahist_scale0.2_1920.png</property>
  <property name="ttl">25</property>
  <property name="aspect_ratio">1</property>
  <property name="progressive">1</property>
  <property name="seekable">1</property>
  <property name="meta.media.width">1920</property>
  <property name="meta.media.height">1088</property>
  <property name="mlt_service">qimage</property>
  <property name="kdenlive:clipname"/>
  <property name="kdenlive:duration">00:00:05.000</property>
  <property name="kdenlive:folderid">56</property>
  <property name="kdenlive:id">111</property>
  <property name="kdenlive:file_size">4137842</property>
  <property name="kdenlive:file_hash">10dc12b1cd5d43b7d273f34738605b13</property>
 </producer>
 <producer id="producer104" in="00:00:00.000" out="00:00:04.967">
  <property name="length">00:00:05.000</property>
  <property name="eof">pause</property>
  <property name="resource">content/texture_stills/00022_zebra2f_opening_drums_46-633_strength0.07_pcahist_scale0.3_1920.png</property>
  <property name="ttl">25</property>
  <property name="aspect_ratio">1</property>
  <property name="progressive">1</property>
  <property name="seekable">1</property>
  <property name="meta.media.width">1920</property>
  <property name="meta.media.height">1088</property>
  <property name="mlt_service">qimage</property>
  <property name="kdenlive:clipname"/>
  <property name="kdenlive:duration">00:00:05.000</property>
  <property name="kdenlive:folderid">56</property>
  <property name="kdenlive:id">112</property>
  <property name="kdenlive:file_size">4785807</property>
  <property name="kdenlive:file_hash">589fbb5fa47fb99a1cfcf34bc9c18a29</property>
 </producer>
 <producer id="producer106" in="00:00:00.000" out="00:00:04.967">
  <property name="length">00:00:05.000</property>
  <property name="eof">pause</property>
  <property name="resource">content/texture_stills/00019_anenome1f_opening_drums_42-299_strength0.04_pcahist_scale0.4_1920.png</property>
  <property name="ttl">25</property>
  <property name="aspect_ratio">1</property>
  <property name="progressive">1</property>
  <property name="seekable">1</property>
  <property name="meta.media.width">1920</property>
  <property name="meta.media.height">1088</property>
  <property name="mlt_service">qimage</property>
  <property name="kdenlive:clipname"/>
  <property name="kdenlive:duration">00:00:05.000</property>
  <property name="kdenlive:folderid">56</property>
  <property name="kdenlive:id">113</property>
  <property name="kdenlive:file_size">3316771</property>
  <property name="kdenlive:file_hash">58a0c85d2087113ef5d80acba4f9c941</property>
  <property name="global_feed">1</property>
 </producer>
 <producer id="producer107" in="00:00:00.000" out="00:00:04.967">
  <property name="length">00:00:05.000</property>
  <property name="eof">pause</property>
  <property name="resource">/home/ryankelln/Documents/Projects/Active/Sound_Escapes/Sarah/texture_stills/content/opening_drums/good/00020_anenome1f_opening_drums_42-600_strength0.04_pcahist_scale0.4_1920.png</property>
  <property name="ttl">25</property>
  <property name="aspect_ratio">1</property>
  <property name="progressive">1</property>
  <property name="seekable">1</property>
  <property name="meta.media.width">1920</property>
  <property name="meta.media.height">1088</property>
  <property name="mlt_service">qimage</property>
  <property name="kdenlive:clipname"/>
  <property name="kdenlive:duration">00:00:05.000</property>
  <property name="kdenlive:folderid">56</property>
  <property name="kdenlive:id">114</property>
  <property name="kdenlive:file_size">3317965</property>
  <property name="kdenlive:file_hash">ad4f311b39dd300da2d698bdd52bd958</property>
 </producer>
 <playlist id="main_bin">
  <property name="kdenlive:docproperties.activeTrack">9</property>
  <property name="kdenlive:docproperties.audioChannels">2</property>
  <property name="kdenlive:docproperties.audioTarget">-1</property>
  <property name="kdenlive:docproperties.disablepreview">0</property>
  <property name="kdenlive:docproperties.documentid">1622300596310</property>
  <property name="kdenlive:docproperties.enableTimelineZone">0</property>
  <property name="kdenlive:docproperties.enableexternalproxy">0</property>
  <property name="kdenlive:docproperties.enableproxy">1</property>
  <property name="kdenlive:docproperties.externalproxyparams">../Sub;;S03.MP4;../Clip;;.MXF</property>
  <property name="kdenlive:docproperties.generateimageproxy">0</property>
  <property name="kdenlive:docproperties.generateproxy">1</property>
  <property name="kdenlive:docproperties.kdenliveversion">21.04.2</property>
  <property name="kdenlive:docproperties.position">11163</property>
  <property name="kdenlive:docproperties.previewextension">mov</property>
  <property name="kdenlive:docproperties.previewparameters">r=30 s=1920x1080 vb=45M threads=0 vcodec=dnxhd progressive=1</property>
  <property name="kdenlive:docproperties.profile">atsc_1080p_30</property>
  <property name="kdenlive:docproperties.proxyextension"/>
  <property name="kdenlive:docproperties.proxyimageminsize">2000</property>
  <property name="kdenlive:docproperties.proxyimagesize">800</property>
  <property name="kdenlive:docproperties.proxyminsize">1920</property>
  <property name="kdenlive:docproperties.proxyparams"/>
  <property name="kdenlive:docproperties.scrollPos">31672</property>
  <property name="kdenlive:docproperties.seekOffset">30000</property>
  <property name="kdenlive:docproperties.version">1</property>
  <property name="kdenlive:docproperties.verticalzoom">1</property>
  <property name="kdenlive:docproperties.videoTarget">-1</property>
  <property name="kdenlive:docproperties.zonein">10832</property>
  <property name="kdenlive:docproperties.zoneout">11188</property>
  <property name="kdenlive:docproperties.zoom">4</property>
  <property name="kdenlive:expandedFolders">56;34;20</property>
  <property name="kdenlive:documentnotes"/>
  <property name="kdenlive:docproperties.groups">[
]
</property>
  <property name="kdenlive:docproperties.disabletimelineeffects">1</property>
  <property name="kdenlive:folder.-1.20">storyboard</property>
  <property name="kdenlive:folder.-1.22">musicians</property>
  <property name="kdenlive:folder.-1.34">animal_textures</property>
  <property name="kdenlive:folder.34.39">old</property>
  <property name="kdenlive:folder.34.56">stills</property>
  <property name="kdenlive:docproperties.compositing">2</property>
  <property name="kdenlive:docproperties.dirtypreviewchunks"/>
  <property name="kdenlive:docproperties.guides">[
    {
        "comment": "end",
        "pos": 11188,
        "type": 2
    },
    {
        "comment": "section3",
        "pos": 1834,
        "type": 1
    },
    {
        "comment": "clap",
        "pos": 383,
        "type": 0
    },
    {
        "comment": "synth in",
        "pos": 1000,
        "type": 0
    },
    {
        "comment": "cymbol",
        "pos": 1185,
        "type": 0
    },
    {
        "comment": "section2",
        "pos": 1395,
        "type": 1
    },
    {
        "comment": "bass solo",
        "pos": 2293,
        "type": 4
    },
    {
        "comment": "synth solo",
        "pos": 5477,
        "type": 4
    },
    {
        "comment": "synth note",
        "pos": 7089,
        "type": 0
    },
    {
        "comment": "top note",
        "pos": 7217,
        "type": 0
    },
    {
        "comment": "cymbol",
        "pos": 7486,
        "type": 0
    },
    {
        "comment": "end_synth_solo",
        "pos": 7681,
        "type": 5
    },
    {
        "comment": "guide",
        "pos": 10958,
        "type": 0
    },
    {
        "comment": "fade_in_finish",
        "pos": 2933,
        "type": 0
    },
    {
        "comment": "flower_transition",
        "pos": 2760,
        "type": 0
    },
    {
        "comment": "start",
        "pos": 116,
        "type": 2
    },
    {
        "comment": "audio start",
        "pos": 210,
        "type": 4
    },
    {
        "comment": "handheld start",
        "pos": 2875,
        "type": 0
    },
    {
        "comment": "snare hit",
        "pos": 8682,
        "type": 0
    },
    {
        "comment": "trip start",
        "pos": 8640,
        "type": 0
    },
    {
        "comment": "trip mirror",
        "pos": 32400,
        "type": 8
    },
    {
        "comment": "guide",
        "pos": 2893,
        "type": 0
    },
    {
        "comment": "clap",
        "pos": 321,
        "type": 0
    },
    {
        "comment": "clap",
        "pos": 261,
        "type": 0
    },
    {
        "comment": "clap",
        "pos": 423,
        "type": 0
    },
    {
        "comment": "flower dance",
        "pos": 40011,
        "type": 8
    },
    {
        "comment": "clap",
        "pos": 40074,
        "type": 0
    },
    {
        "comment": "guide",
        "pos": 40112,
        "type": 0
    },
    {
        "comment": "guide",
        "pos": 40130,
        "type": 0
    },
    {
        "comment": "guide",
        "pos": 40187,
        "type": 0
    },
    {
        "comment": "guide",
        "pos": 40226,
        "type": 0
    },
    {
        "comment": "guide",
        "pos": 40245,
        "type": 0
    },
    {
        "comment": "guide",
        "pos": 40281,
        "type": 0
    },
    {
        "comment": "guide",
        "pos": 40310,
        "type": 0
    },
    {
        "comment": "guide",
        "pos": 40338,
        "type": 0
    },
    {
        "comment": "guide",
        "pos": 40357,
        "type": 0
    },
    {
        "comment": "guide",
        "pos": 40395,
        "type": 0
    },
    {
        "comment": "guide",
        "pos": 40451,
        "type": 0
    },
    {
        "comment": "guide",
        "pos": 40470,
        "type": 0
    },
    {
        "comment": "guide",
        "pos": 40507,
        "type": 0
    },
    {
        "comment": "guide",
        "pos": 40580,
        "type": 0
    },
    {
        "comment": "guide",
        "pos": 40637,
        "type": 0
    },
    {
        "comment": "guide",
        "pos": 40693,
        "type": 0
    },
    {
        "comment": "guide",
        "pos": 40749,
        "type": 0
    },
    {
        "comment": "guide",
        "pos": 40805,
        "type": 0
    },
    {
        "comment": "guide",
        "pos": 40861,
        "type": 0
    },
    {
        "comment": "guide",
        "pos": 40917,
        "type": 0
    },
    {
        "comment": "guide",
        "pos": 41031,
        "type": 0
    },
    {
        "comment": "guide",
        "pos": 41144,
        "type": 0
    },
    {
        "comment": "guide",
        "pos": 41200,
        "type": 0
    },
    {
        "comment": "guide",
        "pos": 41255,
        "type": 0
    },
    {
        "comment": "guide",
        "pos": 41311,
        "type": 0
    },
    {
        "comment": "guide",
        "pos": 1215,
        "type": 0
    },
    {
        "comment": "guide",
        "pos": 1330,
        "type": 0
    },
    {
        "comment": "guide",
        "pos": 1261,
        "type": 0
    },
    {
        "comment": "guide",
        "pos": 1274,
        "type": 0
    },
    {
        "comment": "guide",
        "pos": 1283,
        "type": 0
    }
]
</property>
  <property name="kdenlive:docproperties.previewchunks">40000,40025,40050,40075,40100,40125,40150,40175,40200,40225</property>
  <property name="kdenlive:docproperties.renderaudioquality">256</property>
  <property name="kdenlive:docproperties.rendercategory">Generic (HD for web, mobile devices...)</property>
  <property name="kdenlive:docproperties.renderendguide">0</property>
  <property name="kdenlive:docproperties.renderexportaudio">0</property>
  <property name="kdenlive:docproperties.renderfield">0</property>
  <property name="kdenlive:docproperties.renderguide">0</property>
  <property name="kdenlive:docproperties.renderplay">0</property>
  <property name="kdenlive:docproperties.renderprofile">MP4-H264/AAC</property>
  <property name="kdenlive:docproperties.renderquality">23</property>
  <property name="kdenlive:docproperties.renderratio">1</property>
  <property name="kdenlive:docproperties.renderrescale">0</property>
  <property name="kdenlive:docproperties.renderrescaleheight">540</property>
  <property name="kdenlive:docproperties.renderrescalewidth">960</property>
  <property name="kdenlive:docproperties.renderscanning">0</property>
  <property name="kdenlive:docproperties.renderspeed">2</property>
  <property name="kdenlive:docproperties.renderstartguide">0</property>
  <property name="kdenlive:docproperties.rendertcoverlay">0</property>
  <property name="kdenlive:docproperties.rendertctype">0</property>
  <property name="kdenlive:docproperties.rendertwopass">0</property>
  <property name="kdenlive:docproperties.renderurl">ending_test_4.mp4</property>
  <property name="kdenlive:docproperties.renderzone">1</property>
  <property name="xml_retain">1</property>
  <entry producer="producer3" in="00:00:00.000" out="00:00:37.300"/>
  <entry producer="producer0" in="00:00:00.000" out="00:00:23.633"/>
  <entry producer="producer1" in="00:00:00.000" out="00:00:29.433"/>
  <entry producer="producer2" in="00:00:00.000" out="00:00:04.967"/>
  <entry producer="producer4" in="00:00:00.000" out="00:04:27.600"/>
  <entry producer="producer5" in="00:00:00.000" out="00:00:37.300"/>
  <entry producer="producer6" in="00:00:00.000" out="00:01:00.000"/>
  <entry producer="producer7" in="00:00:00.000" out="00:01:00.000"/>
  <entry producer="producer8" in="00:00:00.000" out="00:02:27.967"/>
  <entry producer="producer9" in="00:00:00.000" out="00:01:26.467"/>
  <entry producer="producer10" in="00:00:00.000" out="00:05:59.967"/>
  <entry producer="producer11" in="00:00:00.000" out="00:01:00.000"/>
  <entry producer="producer13" in="00:00:00.000" out="00:00:04.967"/>
  <entry producer="producer15" in="00:00:00.000" out="00:00:04.967"/>
  <entry producer="producer14" in="00:00:00.000" out="00:00:04.967"/>
  <entry producer="producer12" in="00:00:00.000" out="00:00:04.967"/>
  <entry producer="producer16" in="00:00:00.000" out="00:00:04.967"/>
  <entry producer="producer17" in="00:00:00.000" out="00:05:58.233"/>
  <entry producer="producer21" in="00:00:00.000" out="00:01:34.567"/>
  <entry producer="producer22" in="00:00:00.000" out="00:04:49.833"/>
  <entry producer="producer20" in="00:00:00.000" out="00:04:52.800"/>
  <entry producer="producer19" in="00:00:00.000" out="00:04:48.267"/>
  <entry producer="producer18" in="00:00:00.000" out="00:01:25.100"/>
  <entry producer="producer24" in="00:00:00.000" out="00:04:51.800"/>
  <entry producer="producer23" in="00:00:00.000" out="00:03:25.633"/>
  <entry producer="producer25" in="00:00:00.000" out="00:05:23.967"/>
  <entry producer="producer26" in="00:00:00.000" out="00:01:50.367"/>
  <entry producer="producer27" in="00:00:00.000" out="00:00:04.967"/>
  <entry producer="producer28" in="00:00:00.000" out="00:00:04.967"/>
  <entry producer="producer29" in="00:00:00.000" out="00:00:04.967"/>
  <entry producer="producer30" in="00:00:00.000" out="00:00:04.967"/>
  <entry producer="producer42" in="00:00:00.000" out="00:00:44.000"/>
  <entry producer="producer33" in="00:00:00.000" out="00:01:14.000"/>
  <entry producer="producer34" in="00:00:00.000" out="00:01:27.000"/>
  <entry producer="producer35" in="00:00:00.000" out="00:00:31.000"/>
  <entry producer="producer31" in="00:00:00.000" out="00:01:14.000"/>
  <entry producer="producer36" in="00:00:00.000" out="00:00:11.000"/>
  <entry producer="producer37" in="00:00:00.000" out="00:00:26.000"/>
  <entry producer="producer38" in="00:00:00.000" out="00:01:13.000"/>
  <entry producer="producer39" in="00:00:00.000" out="00:01:13.000"/>
  <entry producer="producer40" in="00:00:00.000" out="00:01:13.000"/>
  <entry producer="producer41" in="00:00:00.000" out="00:01:13.000"/>
  <entry producer="producer32" in="00:00:00.000" out="00:00:05.167"/>
  <entry producer="producer43" in="00:00:00.000" out="00:00:44.033"/>
  <entry producer="producer44" in="00:00:00.000" out="00:00:44.033"/>
  <entry producer="producer105" in="00:00:00.000" out="00:00:09.967"/>
  <entry producer="producer45" in="00:00:00.000" out="00:00:04.967"/>
  <entry producer="producer46" in="00:00:00.000" out="00:00:04.967"/>
  <entry producer="producer47" in="00:00:00.000" out="00:00:04.967"/>
  <entry producer="producer48" in="00:00:00.000" out="00:00:04.967"/>
  <entry producer="producer49" in="00:00:00.000" out="00:00:04.967"/>
  <entry producer="producer50" in="00:00:00.000" out="00:00:04.967"/>
  <entry producer="producer51" in="00:00:00.000" out="00:00:04.967"/>
  <entry producer="producer52" in="00:00:00.000" out="00:00:04.967"/>
  <entry producer="producer53" in="00:00:00.000" out="00:00:04.967"/>
  <entry producer="producer54" in="00:00:00.000" out="00:00:04.967"/>
  <entry producer="producer55" in="00:00:00.000" out="00:00:04.967"/>
  <entry producer="producer56" in="00:00:00.000" out="00:00:04.967"/>
  <entry producer="producer57" in="00:00:00.000" out="00:00:04.967"/>
  <entry producer="producer58" in="00:00:00.000" out="00:00:04.967"/>
  <entry producer="producer59" in="00:00:00.000" out="00:00:04.967"/>
  <entry producer="producer60" in="00:00:00.000" out="00:00:04.967"/>
  <entry producer="producer61" in="00:00:00.000" out="00:00:04.967"/>
  <entry producer="producer62" in="00:00:00.000" out="00:00:04.967"/>
  <entry producer="producer63" in="00:00:00.000" out="00:00:04.967"/>
  <entry producer="producer64" in="00:00:00.000" out="00:00:04.967"/>
  <entry producer="producer65" in="00:00:00.000" out="00:00:04.967"/>
  <entry producer="producer66" in="00:00:00.000" out="00:00:04.967"/>
  <entry producer="producer67" in="00:00:00.000" out="00:00:04.967"/>
  <entry producer="producer68" in="00:00:00.000" out="00:00:04.967"/>
  <entry producer="producer69" in="00:00:00.000" out="00:00:04.967"/>
  <entry producer="producer70" in="00:00:00.000" out="00:00:04.967"/>
  <entry producer="producer71" in="00:00:00.000" out="00:00:04.967"/>
  <entry producer="producer72" in="00:00:00.000" out="00:00:04.967"/>
  <entry producer="producer73" in="00:00:00.000" out="00:00:04.967"/>
  <entry producer="producer74" in="00:00:00.000" out="00:00:04.967"/>
  <entry producer="producer75" in="00:00:00.000" out="00:00:04.967"/>
  <entry producer="producer76" in="00:00:00.000" out="00:00:04.967"/>
  <entry producer="producer77" in="00:00:00.000" out="00:00:04.967"/>
  <entry producer="producer78" in="00:00:00.000" out="00:00:04.967"/>
  <entry producer="producer79" in="00:00:00.000" out="00:00:04.967"/>
  <entry producer="producer80" in="00:00:00.000" out="00:00:04.967"/>
  <entry producer="producer81" in="00:00:00.000" out="00:00:04.967"/>
  <entry producer="producer82" in="00:00:00.000" out="00:00:04.967"/>
  <entry producer="producer83" in="00:00:00.000" out="00:00:04.967"/>
  <entry producer="producer84" in="00:00:00.000" out="00:00:04.967"/>
  <entry producer="producer85" in="00:00:00.000" out="00:00:04.967"/>
  <entry producer="producer86" in="00:00:00.000" out="00:00:04.967"/>
  <entry producer="producer87" in="00:00:00.000" out="00:00:04.967"/>
  <entry producer="producer88" in="00:00:00.000" out="00:00:04.967"/>
  <entry producer="producer89" in="00:00:00.000" out="00:00:04.967"/>
  <entry producer="producer90" in="00:00:00.000" out="00:00:04.967"/>
  <entry producer="producer91" in="00:00:00.000" out="00:00:04.967"/>
  <entry producer="producer92" in="00:00:00.000" out="00:00:04.967"/>
  <entry producer="producer93" in="00:00:00.000" out="00:00:04.967"/>
  <entry producer="producer94" in="00:00:00.000" out="00:00:04.967"/>
  <entry producer="producer95" in="00:00:00.000" out="00:00:04.967"/>
  <entry producer="producer96" in="00:00:00.000" out="00:00:04.967"/>
  <entry producer="producer97" in="00:00:00.000" out="00:00:04.967"/>
  <entry producer="producer98" in="00:00:00.000" out="00:00:04.967"/>
  <entry producer="producer99" in="00:00:00.000" out="00:00:04.967"/>
  <entry producer="producer100" in="00:00:00.000" out="00:00:04.967"/>
  <entry producer="producer101" in="00:00:00.000" out="00:00:04.967"/>
  <entry producer="producer102" in="00:00:00.000" out="00:00:04.967"/>
  <entry producer="producer103" in="00:00:00.000" out="00:00:04.967"/>
  <entry producer="producer104" in="00:00:00.000" out="00:00:04.967"/>
  <entry producer="producer106" in="00:00:00.000" out="00:00:04.967"/>
  <entry producer="producer107" in="00:00:00.000" out="00:00:04.967"/>
 </playlist>
 <producer id="black_track" in="00:00:00.000" out="00:39:37.733">
  <property name="length">2147483647</property>
  <property name="eof">continue</property>
  <property name="resource">black</property>
  <property name="aspect_ratio">1</property>
  <property name="mlt_service">color</property>
  <property name="mlt_image_format">rgb24a</property>
  <property name="set.test_audio">0</property>
 </producer>
 <producer id="producer108" in="00:00:00.000" out="00:05:58.233">
  <property name="length">10748</property>
  <property name="eof">pause</property>
  <property name="resource">20210602_SpectrumMusic-SoundEscapesSARAH EDIT 1.wav</property>
  <property name="audio_index">0</property>
  <property name="video_index">-1</property>
  <property name="mute_on_pause">0</property>
  <property name="mlt_service">avformat-novalidate</property>
  <property name="meta.media.nb_streams">1</property>
  <property name="meta.media.0.stream.type">audio</property>
  <property name="meta.media.0.codec.sample_fmt">s32</property>
  <property name="meta.media.0.codec.sample_rate">48000</property>
  <property name="meta.media.0.codec.channels">2</property>
  <property name="meta.media.0.codec.name">pcm_s24le</property>
  <property name="meta.media.0.codec.long_name">PCM signed 24-bit little-endian</property>
  <property name="meta.media.0.codec.bit_rate">2304000</property>
  <property name="meta.attr.encoded_by.markup">Pro Tools</property>
  <property name="meta.attr.originator_reference.markup">aui7NFOe1GVk</property>
  <property name="meta.attr.date.markup">2021-06-07</property>
  <property name="meta.attr.creation_time.markup">19:16:09</property>
  <property name="meta.attr.time_reference.markup">86947771</property>
  <property name="meta.attr.umid.markup">0x060A2B340101010501010F1013000000F8351287E7EC8500E892005056C00001</property>
  <property name="seekable">1</property>
  <property name="kdenlive:clipname"/>
  <property name="kdenlive:folderid">-1</property>
  <property name="kdenlive:id">19</property>
  <property name="kdenlive:file_size">103726800</property>
  <property name="kdenlive:file_hash">500fb44960db9c9a8d09a41d30a6a085</property>
  <property name="kdenlive:audio_max">2</property>
  <property name="global_feed">1</property>
  <property name="xml">was here</property>
  <property name="set.test_audio">0</property>
  <property name="set.test_image">1</property>
 </producer>
 <producer id="producer109" in="00:00:00.000" out="00:04:27.600">
  <property name="length">8029</property>
  <property name="eof">pause</property>
  <property name="resource">/home/ryankelln/Documents/Projects/Active/Sound_Escapes/rehearsals/1/SoundEscapes_SarahRehearsal1.mp3</property>
  <property name="audio_index">0</property>
  <property name="video_index">-1</property>
  <property name="mute_on_pause">0</property>
  <property name="mlt_service">avformat-novalidate</property>
  <property name="meta.media.nb_streams">1</property>
  <property name="meta.media.0.stream.type">audio</property>
  <property name="meta.media.0.codec.sample_fmt">fltp</property>
  <property name="meta.media.0.codec.sample_rate">48000</property>
  <property name="meta.media.0.codec.channels">2</property>
  <property name="meta.media.0.codec.name">mp3float</property>
  <property name="meta.media.0.codec.long_name">MP3 (MPEG audio layer 3)</property>
  <property name="meta.media.0.codec.bit_rate">198235</property>
  <property name="meta.attr.0.stream.encoder.markup">LAME3.100</property>
  <property name="seekable">1</property>
  <property name="kdenlive:clipname"/>
  <property name="kdenlive:folderid">20</property>
  <property name="kdenlive:id">6</property>
  <property name="kdenlive:file_size">6632160</property>
  <property name="kdenlive:file_hash">999e51ce3d3384acbf494cd3496febd4</property>
  <property name="kdenlive:audio_max">1</property>
  <property name="global_feed">1</property>
  <property name="xml">was here</property>
  <property name="set.test_audio">0</property>
  <property name="set.test_image">1</property>
 </producer>
 <playlist id="playlist0">
  <property name="kdenlive:audio_track">1</property>
  <blank length="00:00:07.000"/>
  <entry producer="producer108" in="00:00:00.000" out="00:05:58.233">
   <property name="kdenlive:id">19</property>
  </entry>
  <blank length="00:00:48.567"/>
  <entry producer="producer109" in="00:00:00.000" out="00:04:27.600">
   <property name="kdenlive:id">6</property>
  </entry>
  <blank length="00:10:52.233"/>
  <entry producer="producer108" in="00:01:25.000" out="00:02:09.000">
   <property name="kdenlive:id">19</property>
  </entry>
 </playlist>
 <playlist id="playlist1"/>
 <tractor id="tractor0" in="00:00:00.000" out="00:22:57.700">
  <property name="kdenlive:audio_track">1</property>
  <property name="kdenlive:trackheight">69</property>
  <property name="kdenlive:timeline_active">1</property>
  <property name="kdenlive:collapsed">0</property>
  <property name="kdenlive:thumbs_format"/>
  <property name="kdenlive:audio_rec"/>
  <track hide="video" producer="playlist0"/>
  <track hide="video" producer="playlist1"/>
  <filter id="filter16">
   <property name="window">75</property>
   <property name="max_gain">20dB</property>
   <property name="mlt_service">volume</property>
   <property name="internal_added">237</property>
  </filter>
  <filter id="filter17">
   <property name="channel">-1</property>
   <property name="mlt_service">panner</property>
   <property name="internal_added">237</property>
   <property name="start">0.5</property>
  </filter>
  <filter id="filter13">
   <property name="iec_scale">0</property>
   <property name="mlt_service">audiolevel</property>
   <property name="disable">1</property>
  </filter>
 </tractor>
 <playlist id="playlist2">
  <property name="kdenlive:audio_track">1</property>
 </playlist>
 <playlist id="playlist3"/>
 <tractor id="tractor1" in="00:00:00.000">
  <property name="kdenlive:audio_track">1</property>
  <property name="kdenlive:trackheight">69</property>
  <property name="kdenlive:timeline_active">1</property>
  <property name="kdenlive:collapsed">0</property>
  <property name="kdenlive:thumbs_format"/>
  <property name="kdenlive:audio_rec"/>
  <track hide="both" producer="playlist2"/>
  <track hide="video" producer="playlist3"/>
  <filter id="filter19">
   <property name="window">75</property>
   <property name="max_gain">20dB</property>
   <property name="mlt_service">volume</property>
   <property name="internal_added">237</property>
  </filter>
  <filter id="filter20">
   <property name="channel">-1</property>
   <property name="mlt_service">panner</property>
   <property name="internal_added">237</property>
   <property name="start">0.5</property>
  </filter>
  <filter id="filter18">
   <property name="iec_scale">0</property>
   <property name="mlt_service">audiolevel</property>
   <property name="disable">1</property>
  </filter>
 </tractor>
 <producer id="producer110" in="00:00:00.000" out="00:00:11.000">
  <property name="length">331</property>
  <property name="eof">pause</property>
  <property name="resource">content/hot_bod_180000_53a16a2d_after_synth.mp4</property>
  <property name="audio_index">1</property>
  <property name="video_index">0</property>
  <property name="mute_on_pause">0</property>
  <property name="mlt_service">avformat-novalidate</property>
  <property name="seekable">1</property>
  <property name="aspect_ratio">1</property>
  <property name="kdenlive:clipname"/>
  <property name="kdenlive:folderid">34</property>
  <property name="kdenlive:id">42</property>
  <property name="kdenlive:file_size">4457845</property>
  <property name="kdenlive:file_hash">2d8d167ad6e01b8b79d89451214523d7</property>
  <property name="kdenlive:audio_max">4</property>
  <property name="global_feed">1</property>
  <property name="xml">was here</property>
  <property name="meta.media.nb_streams">2</property>
  <property name="meta.media.0.stream.type">video</property>
  <property name="meta.media.0.stream.frame_rate">30</property>
  <property name="meta.media.0.stream.sample_aspect_ratio">0</property>
  <property name="meta.media.0.codec.width">896</property>
  <property name="meta.media.0.codec.height">512</property>
  <property name="meta.media.0.codec.rotate">0</property>
  <property name="meta.media.0.codec.frame_rate">30</property>
  <property name="meta.media.0.codec.pix_fmt">yuv420p</property>
  <property name="meta.media.0.codec.sample_aspect_ratio">0</property>
  <property name="meta.media.0.codec.colorspace">601</property>
  <property name="meta.media.0.codec.name">h264</property>
  <property name="meta.media.0.codec.long_name">H.264 / AVC / MPEG-4 AVC / MPEG-4 part 10</property>
  <property name="meta.media.0.codec.bit_rate">2911251</property>
  <property name="meta.attr.0.stream.handler_name.markup">VideoHandler</property>
  <property name="meta.media.1.stream.type">audio</property>
  <property name="meta.media.1.codec.sample_fmt">fltp</property>
  <property name="meta.media.1.codec.sample_rate">48000</property>
  <property name="meta.media.1.codec.channels">2</property>
  <property name="meta.media.1.codec.name">aac</property>
  <property name="meta.media.1.codec.long_name">AAC (Advanced Audio Coding)</property>
  <property name="meta.media.1.codec.bit_rate">320808</property>
  <property name="meta.attr.1.stream.handler_name.markup">SoundHandler</property>
  <property name="meta.attr.major_brand.markup">isom</property>
  <property name="meta.attr.minor_version.markup">512</property>
  <property name="meta.attr.compatible_brands.markup">isomiso2avc1mp41</property>
  <property name="meta.attr.encoder.markup">Lavf58.29.100</property>
  <property name="meta.media.sample_aspect_num">1</property>
  <property name="meta.media.sample_aspect_den">1</property>
  <property name="meta.media.frame_rate_num">30</property>
  <property name="meta.media.frame_rate_den">1</property>
  <property name="meta.media.colorspace">601</property>
  <property name="meta.media.color_trc">2</property>
  <property name="meta.media.width">896</property>
  <property name="meta.media.height">512</property>
  <property name="meta.media.color_range">mpeg</property>
  <property name="meta.media.top_field_first">0</property>
  <property name="meta.media.progressive">1</property>
  <property name="set.test_audio">1</property>
  <property name="set.test_image">0</property>
 </producer>
 <producer id="producer111" in="00:00:00.000" out="00:01:00.000">
  <property name="length">1801</property>
  <property name="eof">pause</property>
  <property name="resource">/home/ryankelln/Documents/Projects/Active/Sound_Escapes/Sarah/storyboard/sarah_rehearsal1_animal_drums_030000_bc99c710.mp4</property>
  <property name="audio_index">1</property>
  <property name="video_index">0</property>
  <property name="mute_on_pause">0</property>
  <property name="mlt_service">avformat-novalidate</property>
  <property name="seekable">1</property>
  <property name="aspect_ratio">1</property>
  <property name="kdenlive:clipname"/>
  <property name="kdenlive:folderid">-1</property>
  <property name="kdenlive:id">13</property>
  <property name="kdenlive:file_size">22369865</property>
  <property name="kdenlive:file_hash">a634494e777d4747b73011d6af3b3d75</property>
  <property name="kdenlive:audio_max">1</property>
  <property name="kdenlive:active_streams">-1</property>
  <property name="global_feed">1</property>
  <property name="xml">was here</property>
  <property name="meta.media.nb_streams">2</property>
  <property name="meta.media.0.stream.type">video</property>
  <property name="meta.media.0.stream.frame_rate">30</property>
  <property name="meta.media.0.stream.sample_aspect_ratio">0</property>
  <property name="meta.media.0.codec.width">896</property>
  <property name="meta.media.0.codec.height">512</property>
  <property name="meta.media.0.codec.rotate">0</property>
  <property name="meta.media.0.codec.frame_rate">30</property>
  <property name="meta.media.0.codec.pix_fmt">yuv420p</property>
  <property name="meta.media.0.codec.sample_aspect_ratio">0</property>
  <property name="meta.media.0.codec.colorspace">601</property>
  <property name="meta.media.0.codec.name">h264</property>
  <property name="meta.media.0.codec.long_name">H.264 / AVC / MPEG-4 AVC / MPEG-4 part 10</property>
  <property name="meta.media.0.codec.bit_rate">2652727</property>
  <property name="meta.attr.0.stream.handler_name.markup">VideoHandler</property>
  <property name="meta.attr.0.stream.vendor_id.markup">[0][0][0][0]</property>
  <property name="meta.media.1.stream.type">audio</property>
  <property name="meta.media.1.codec.sample_fmt">fltp</property>
  <property name="meta.media.1.codec.sample_rate">48000</property>
  <property name="meta.media.1.codec.channels">2</property>
  <property name="meta.media.1.codec.name">aac</property>
  <property name="meta.media.1.codec.long_name">AAC (Advanced Audio Coding)</property>
  <property name="meta.media.1.codec.bit_rate">321732</property>
  <property name="meta.attr.1.stream.handler_name.markup">SoundHandler</property>
  <property name="meta.attr.1.stream.vendor_id.markup">[0][0][0][0]</property>
  <property name="meta.attr.major_brand.markup">isom</property>
  <property name="meta.attr.minor_version.markup">512</property>
  <property name="meta.attr.compatible_brands.markup">isomiso2avc1mp41</property>
  <property name="meta.attr.encoder.markup">Lavf58.29.100</property>
  <property name="meta.media.sample_aspect_num">1</property>
  <property name="meta.media.sample_aspect_den">1</property>
  <property name="meta.media.frame_rate_num">30</property>
  <property name="meta.media.frame_rate_den">1</property>
  <property name="meta.media.colorspace">601</property>
  <property name="meta.media.color_trc">2</property>
  <property name="meta.media.width">896</property>
  <property name="meta.media.height">512</property>
  <property name="meta.media.color_range">mpeg</property>
  <property name="meta.media.top_field_first">0</property>
  <property name="meta.media.progressive">1</property>
  <property name="set.test_audio">1</property>
  <property name="set.test_image">0</property>
 </producer>
 <producer id="producer112" in="00:00:00.000" out="00:01:00.000">
  <property name="length">1801</property>
  <property name="eof">pause</property>
  <property name="resource">/home/ryankelln/Documents/Projects/Active/Sound_Escapes/Sarah/storyboard/sarah_rehearsal1_132000_efb0363b.mp4</property>
  <property name="audio_index">1</property>
  <property name="video_index">0</property>
  <property name="mute_on_pause">0</property>
  <property name="mlt_service">avformat-novalidate</property>
  <property name="seekable">1</property>
  <property name="aspect_ratio">1</property>
  <property name="kdenlive:clipname"/>
  <property name="kdenlive:folderid">20</property>
  <property name="kdenlive:id">8</property>
  <property name="kdenlive:file_size">25180686</property>
  <property name="kdenlive:file_hash">92ed901aec54435ab38198af6187679e</property>
  <property name="kdenlive:audio_max">1</property>
  <property name="global_feed">1</property>
  <property name="xml">was here</property>
  <property name="meta.media.nb_streams">2</property>
  <property name="meta.media.0.stream.type">video</property>
  <property name="meta.media.0.stream.frame_rate">30</property>
  <property name="meta.media.0.stream.sample_aspect_ratio">0</property>
  <property name="meta.media.0.codec.width">896</property>
  <property name="meta.media.0.codec.height">512</property>
  <property name="meta.media.0.codec.rotate">0</property>
  <property name="meta.media.0.codec.frame_rate">30</property>
  <property name="meta.media.0.codec.pix_fmt">yuv420p</property>
  <property name="meta.media.0.codec.sample_aspect_ratio">0</property>
  <property name="meta.media.0.codec.colorspace">601</property>
  <property name="meta.media.0.codec.name">h264</property>
  <property name="meta.media.0.codec.long_name">H.264 / AVC / MPEG-4 AVC / MPEG-4 part 10</property>
  <property name="meta.media.0.codec.bit_rate">3026875</property>
  <property name="meta.attr.0.stream.handler_name.markup">VideoHandler</property>
  <property name="meta.attr.0.stream.vendor_id.markup">[0][0][0][0]</property>
  <property name="meta.media.1.stream.type">audio</property>
  <property name="meta.media.1.codec.sample_fmt">fltp</property>
  <property name="meta.media.1.codec.sample_rate">48000</property>
  <property name="meta.media.1.codec.channels">2</property>
  <property name="meta.media.1.codec.name">aac</property>
  <property name="meta.media.1.codec.long_name">AAC (Advanced Audio Coding)</property>
  <property name="meta.media.1.codec.bit_rate">321732</property>
  <property name="meta.attr.1.stream.handler_name.markup">SoundHandler</property>
  <property name="meta.attr.1.stream.vendor_id.markup">[0][0][0][0]</property>
  <property name="meta.attr.major_brand.markup">isom</property>
  <property name="meta.attr.minor_version.markup">512</property>
  <property name="meta.attr.compatible_brands.markup">isomiso2avc1mp41</property>
  <property name="meta.attr.encoder.markup">Lavf58.29.100</property>
  <property name="meta.media.sample_aspect_num">1</property>
  <property name="meta.media.sample_aspect_den">1</property>
  <property name="meta.media.frame_rate_num">30</property>
  <property name="meta.media.frame_rate_den">1</property>
  <property name="meta.media.colorspace">601</property>
  <property name="meta.media.color_trc">2</property>
  <property name="meta.media.width">896</property>
  <property name="meta.media.height">512</property>
  <property name="meta.media.color_range">mpeg</property>
  <property name="meta.media.top_field_first">0</property>
  <property name="meta.media.progressive">1</property>
  <property name="set.test_audio">1</property>
  <property name="set.test_image">0</property>
 </producer>
 <producer id="producer113" in="00:00:00.000" out="00:00:44.033">
  <property name="length">1322</property>
  <property name="eof">pause</property>
  <property name="resource">/home/ryankelln/.cache/kdenlive/proxy/c3f09fd208df8cdb6b8c693ff3c337b6.mkv</property>
  <property name="audio_index">1</property>
  <property name="video_index">0</property>
  <property name="mute_on_pause">0</property>
  <property name="mlt_service">avformat-novalidate</property>
  <property name="seekable">1</property>
  <property name="aspect_ratio">1</property>
  <property name="kdenlive:clipname">trusses_rotating.mp4</property>
  <property name="kdenlive:folderid">34</property>
  <property name="kdenlive:id">49</property>
  <property name="kdenlive:file_size">6095429</property>
  <property name="kdenlive:file_hash">c3f09fd208df8cdb6b8c693ff3c337b6</property>
  <property name="kdenlive:proxy">/home/ryankelln/.cache/kdenlive/proxy/c3f09fd208df8cdb6b8c693ff3c337b6.mkv</property>
  <property name="kdenlive:originalurl">content/trusses_rotating.mp4</property>
  <property name="kdenlive:original.mlt_type">producer</property>
  <property name="kdenlive:original.in">0</property>
  <property name="kdenlive:original.out">1321</property>
  <property name="kdenlive:original.length">1322</property>
  <property name="kdenlive:original.eof">pause</property>
  <property name="kdenlive:original.resource">content/trusses_rotating.mp4</property>
  <property name="kdenlive:original.meta.media.nb_streams">2</property>
  <property name="kdenlive:original.meta.media.0.stream.type">video</property>
  <property name="kdenlive:original.meta.media.0.stream.frame_rate">30</property>
  <property name="kdenlive:original.meta.media.0.stream.sample_aspect_ratio">1</property>
  <property name="kdenlive:original.meta.media.0.codec.width">1920</property>
  <property name="kdenlive:original.meta.media.0.codec.height">1080</property>
  <property name="kdenlive:original.meta.media.0.codec.rotate">0</property>
  <property name="kdenlive:original.meta.media.0.codec.frame_rate">30</property>
  <property name="kdenlive:original.meta.media.0.codec.pix_fmt">yuv420p</property>
  <property name="kdenlive:original.meta.media.0.codec.sample_aspect_ratio">1</property>
  <property name="kdenlive:original.meta.media.0.codec.colorspace">709</property>
  <property name="kdenlive:original.meta.media.0.codec.color_trc">1</property>
  <property name="kdenlive:original.meta.media.0.codec.name">h264</property>
  <property name="kdenlive:original.meta.media.0.codec.long_name">H.264 / AVC / MPEG-4 AVC / MPEG-4 part 10</property>
  <property name="kdenlive:original.meta.media.0.codec.bit_rate">842590</property>
  <property name="kdenlive:original.meta.attr.0.stream.handler_name.markup">VideoHandler</property>
  <property name="kdenlive:original.meta.media.1.stream.type">audio</property>
  <property name="kdenlive:original.meta.media.1.codec.sample_fmt">fltp</property>
  <property name="kdenlive:original.meta.media.1.codec.sample_rate">48000</property>
  <property name="kdenlive:original.meta.media.1.codec.channels">2</property>
  <property name="kdenlive:original.meta.media.1.codec.name">aac</property>
  <property name="kdenlive:original.meta.media.1.codec.long_name">AAC (Advanced Audio Coding)</property>
  <property name="kdenlive:original.meta.media.1.codec.bit_rate">255977</property>
  <property name="kdenlive:original.meta.attr.1.stream.handler_name.markup">SoundHandler</property>
  <property name="kdenlive:original.meta.attr.major_brand.markup">isom</property>
  <property name="kdenlive:original.meta.attr.minor_version.markup">512</property>
  <property name="kdenlive:original.meta.attr.compatible_brands.markup">isomiso2avc1mp41</property>
  <property name="kdenlive:original.meta.attr.encoder.markup">Lavf58.45.100</property>
  <property name="kdenlive:original.seekable">1</property>
  <property name="kdenlive:original.width">1920</property>
  <property name="kdenlive:original.height">1080</property>
  <property name="kdenlive:original.meta.media.sample_aspect_num">1</property>
  <property name="kdenlive:original.meta.media.sample_aspect_den">1</property>
  <property name="kdenlive:original.aspect_ratio">1</property>
  <property name="kdenlive:original.audio_index">1</property>
  <property name="kdenlive:original.video_index">0</property>
  <property name="kdenlive:original.mute_on_pause">0</property>
  <property name="kdenlive:original.mlt_service">avformat-novalidate</property>
  <property name="kdenlive:original.kdenlive:folderid">34</property>
  <property name="kdenlive:original.meta.media.frame_rate_num">30</property>
  <property name="kdenlive:original.meta.media.frame_rate_den">1</property>
  <property name="kdenlive:original.meta.media.colorspace">709</property>
  <property name="kdenlive:original.meta.media.color_trc">1</property>
  <property name="kdenlive:original.meta.media.width">1920</property>
  <property name="kdenlive:original.meta.media.height">1080</property>
  <property name="kdenlive:original.meta.media.color_range">mpeg</property>
  <property name="kdenlive:original.kdenlive:id">53</property>
  <property name="kdenlive:original.kdenlive:file_size">6095429</property>
  <property name="kdenlive:original.kdenlive:file_hash">c3f09fd208df8cdb6b8c693ff3c337b6</property>
  <property name="kdenlive:original.backup">1</property>
  <property name="kdenlive:audio_max">6</property>
  <property name="global_feed">1</property>
  <property name="xml">was here</property>
  <property name="meta.media.nb_streams">2</property>
  <property name="meta.media.0.stream.type">video</property>
  <property name="meta.media.0.stream.frame_rate">30</property>
  <property name="meta.media.0.stream.sample_aspect_ratio">1</property>
  <property name="meta.media.0.codec.width">640</property>
  <property name="meta.media.0.codec.height">360</property>
  <property name="meta.media.0.codec.rotate">0</property>
  <property name="meta.media.0.codec.frame_rate">1000</property>
  <property name="meta.media.0.codec.pix_fmt">yuvj420p</property>
  <property name="meta.media.0.codec.sample_aspect_ratio">1</property>
  <property name="meta.media.0.codec.colorspace">601</property>
  <property name="meta.media.0.codec.name">mjpeg</property>
  <property name="meta.media.0.codec.long_name">MJPEG (Motion JPEG)</property>
  <property name="meta.media.0.codec.bit_rate">0</property>
  <property name="meta.attr.0.stream.HANDLER_NAME.markup">VideoHandler</property>
  <property name="meta.attr.0.stream.ENCODER.markup">Lavc58.91.100 mjpeg</property>
  <property name="meta.attr.0.stream.DURATION.markup">00:00:44.033000000</property>
  <property name="meta.media.1.stream.type">audio</property>
  <property name="meta.media.1.codec.sample_fmt">s16</property>
  <property name="meta.media.1.codec.sample_rate">48000</property>
  <property name="meta.media.1.codec.channels">2</property>
  <property name="meta.media.1.codec.name">pcm_s16le</property>
  <property name="meta.media.1.codec.long_name">PCM signed 16-bit little-endian</property>
  <property name="meta.media.1.codec.bit_rate">1536000</property>
  <property name="meta.attr.1.stream.HANDLER_NAME.markup">SoundHandler</property>
  <property name="meta.attr.1.stream.ENCODER.markup">Lavc58.91.100 pcm_s16le</property>
  <property name="meta.attr.1.stream.DURATION.markup">00:00:44.053000000</property>
  <property name="meta.attr.COMPATIBLE_BRANDS.markup">isomiso2avc1mp41</property>
  <property name="meta.attr.MAJOR_BRAND.markup">isom</property>
  <property name="meta.attr.MINOR_VERSION.markup">512</property>
  <property name="meta.attr.ENCODER.markup">Lavf58.45.100</property>
  <property name="meta.media.sample_aspect_num">1</property>
  <property name="meta.media.sample_aspect_den">1</property>
  <property name="meta.media.frame_rate_num">30</property>
  <property name="meta.media.frame_rate_den">1</property>
  <property name="meta.media.colorspace">601</property>
  <property name="meta.media.color_trc">2</property>
  <property name="meta.media.width">640</property>
  <property name="meta.media.height">360</property>
  <property name="meta.media.color_range">full</property>
  <property name="meta.media.top_field_first">0</property>
  <property name="meta.media.progressive">1</property>
  <property name="set.test_audio">1</property>
  <property name="set.test_image">0</property>
 </producer>
 <playlist id="playlist4">
  <blank length="00:04:14.000"/>
  <entry producer="producer110" in="00:00:00.000" out="00:00:10.833">
   <property name="kdenlive:id">42</property>
  </entry>
  <blank length="00:02:42.633"/>
  <entry producer="producer0" in="00:00:00.000" out="00:00:23.633">
   <property name="kdenlive:id">3</property>
   <filter id="filter28">
    <property name="rotate_center">1</property>
    <property name="mlt_service">qtblend</property>
    <property name="kdenlive_id">qtblend</property>
    <property name="rect">00:00:00.000=480 270 960 540 1.000000;00:00:00.100=-960 -540 3840 2160 1.000000;00:00:00.733|=-768 -432 3456 1944 1.000000;00:00:00.800|=-960 -540 3840 2160 1.000000;00:00:00.900=-1440 -810 4800 2700 1.000000;00:00:01.200|=-1152 -648 4224 2376 1.000000;00:00:01.267|=-1920 -1080 5760 3240 1.000000;00:00:01.667=-1920 -1080 5760 3240 1.000000;00:00:02.333|=-1920 -1080 5760 3240 1.000000;00:00:02.400=-2400 -1350 6720 3780 1.000000;00:00:02.800=-960 -540 3840 2160 1.000000;00:00:03.167=-480 -270 2880 1620 1.000000;00:00:03.500|=-478 -266 2880 1620 1.000000</property>
    <property name="rotation">00:00:00.000=0;00:00:00.100=0;00:00:00.733|=0;00:00:00.800|=0;00:00:00.900=0;00:00:01.200|=0;00:00:01.267|=0;00:00:01.667=0;00:00:02.333|=-21;00:00:02.400=18;00:00:02.800=53;00:00:03.167=94;00:00:03.500|=131</property>
    <property name="compositing">0</property>
    <property name="distort">0</property>
    <property name="kdenlive:collapsed">0</property>
   </filter>
  </entry>
  <blank length="00:01:28.300"/>
  <entry producer="producer111" in="00:00:00.000" out="00:01:00.000">
   <property name="kdenlive:id">13</property>
   <filter id="filter29">
    <property name="rotate_center">1</property>
    <property name="mlt_service">qtblend</property>
    <property name="kdenlive_id">qtblend</property>
    <property name="rect">00:00:00.000=0 0 960 549 1.000000</property>
    <property name="rotation">00:00:00.000=0</property>
    <property name="compositing">0</property>
    <property name="distort">0</property>
    <property name="kdenlive:collapsed">0</property>
   </filter>
   <filter id="filter30">
    <property name="version">0.1</property>
    <property name="mlt_service">frei0r.flippo</property>
    <property name="kdenlive_id">frei0r.flippo</property>
    <property name="X axis">1</property>
    <property name="Y axis">1</property>
    <property name="kdenlive:collapsed">0</property>
   </filter>
   <filter id="filter31">
    <property name="mirror">horizontal</property>
    <property name="mlt_service">mirror</property>
    <property name="kdenlive_id">mirror</property>
    <property name="reverse">0</property>
    <property name="kdenlive:collapsed">0</property>
   </filter>
   <filter id="filter32">
    <property name="mirror">vertical</property>
    <property name="mlt_service">mirror</property>
    <property name="kdenlive_id">mirror</property>
    <property name="reverse">0</property>
    <property name="kdenlive:collapsed">0</property>
   </filter>
  </entry>
  <entry producer="producer111" in="00:00:00.000" out="00:00:35.133">
   <property name="kdenlive:id">13</property>
   <filter id="filter33">
    <property name="rotate_center">1</property>
    <property name="mlt_service">qtblend</property>
    <property name="kdenlive_id">qtblend</property>
    <property name="rect">00:00:00.000=0 0 960 549 1.000000</property>
    <property name="rotation">00:00:00.000=0</property>
    <property name="compositing">0</property>
    <property name="distort">0</property>
    <property name="kdenlive:collapsed">0</property>
   </filter>
   <filter id="filter34">
    <property name="version">0.1</property>
    <property name="mlt_service">frei0r.flippo</property>
    <property name="kdenlive_id">frei0r.flippo</property>
    <property name="X axis">1</property>
    <property name="Y axis">1</property>
    <property name="kdenlive:collapsed">0</property>
   </filter>
   <filter id="filter35">
    <property name="mirror">horizontal</property>
    <property name="mlt_service">mirror</property>
    <property name="kdenlive_id">mirror</property>
    <property name="reverse">0</property>
    <property name="kdenlive:collapsed">0</property>
   </filter>
   <filter id="filter36">
    <property name="mirror">vertical</property>
    <property name="mlt_service">mirror</property>
    <property name="kdenlive_id">mirror</property>
    <property name="reverse">0</property>
    <property name="kdenlive:collapsed">0</property>
   </filter>
  </entry>
  <blank length="00:01:13.100"/>
  <entry producer="producer112" in="00:00:00.000" out="00:01:00.000">
   <property name="kdenlive:id">8</property>
   <filter id="filter37">
    <property name="rotate_center">1</property>
    <property name="mlt_service">qtblend</property>
    <property name="kdenlive_id">qtblend</property>
    <property name="rect">00:00:00.000=27 11 896 512 1.000000</property>
    <property name="rotation">00:00:00.000=0</property>
    <property name="compositing">0</property>
    <property name="distort">0</property>
    <property name="kdenlive:collapsed">0</property>
   </filter>
  </entry>
  <blank length="00:00:07.700"/>
  <entry producer="producer112" in="00:00:00.000" out="00:01:00.000">
   <property name="kdenlive:id">8</property>
   <filter id="filter26">
    <property name="rotate_center">1</property>
    <property name="mlt_service">qtblend</property>
    <property name="kdenlive_id">qtblend</property>
    <property name="rect">00:00:00.000=47 45 896 512 1.000000</property>
    <property name="rotation">00:00:00.000=0</property>
    <property name="compositing">0</property>
    <property name="distort">0</property>
    <property name="kdenlive:collapsed">0</property>
   </filter>
   <filter id="filter38">
    <property name="mirror">flip</property>
    <property name="mlt_service">mirror</property>
    <property name="kdenlive_id">mirror</property>
    <property name="reverse">0</property>
    <property name="kdenlive:collapsed">0</property>
   </filter>
  </entry>
  <blank length="00:00:17.400"/>
  <entry producer="producer112" in="00:00:00.000" out="00:01:00.000">
   <property name="kdenlive:id">8</property>
   <filter id="filter39">
    <property name="version">0.1</property>
    <property name="mlt_service">frei0r.alphaspot</property>
    <property name="kdenlive_id">frei0r.alphaspot</property>
    <property name="Shape">0</property>
    <property name="Position X">00:00:00.000=0.5</property>
    <property name="Position Y">00:00:00.000=0.5</property>
    <property name="Size X">00:00:00.000=0.178</property>
    <property name="Size Y">00:00:00.000=1</property>
    <property name="Tilt">00:00:00.000=0.5</property>
    <property name="Transition width">00:00:00.000=0</property>
    <property name="Min">00:00:00.000=0</property>
    <property name="Max">00:00:00.000=1</property>
    <property name="Operation">0</property>
    <property name="kdenlive:collapsed">0</property>
   </filter>
   <filter id="filter40">
    <property name="rotate_center">1</property>
    <property name="mlt_service">qtblend</property>
    <property name="kdenlive_id">qtblend</property>
    <property name="rect">00:00:00.000=-592 28 1820 1024 1.000000</property>
    <property name="rotation">00:00:00.000=0</property>
    <property name="compositing">0</property>
    <property name="distort">0</property>
    <property name="kdenlive:collapsed">0</property>
   </filter>
  </entry>
  <blank length="00:00:12.333"/>
  <entry producer="producer112" in="00:00:02.700" out="00:01:00.000">
   <property name="kdenlive:id">8</property>
   <filter id="filter41">
    <property name="rotate_center">1</property>
    <property name="mlt_service">qtblend</property>
    <property name="kdenlive_id">qtblend</property>
    <property name="rect">00:00:02.700=92 236 1080 608 1.000000</property>
    <property name="rotation">00:00:02.700=90</property>
    <property name="compositing">0</property>
    <property name="distort">1</property>
    <property name="kdenlive:collapsed">0</property>
   </filter>
  </entry>
  <entry producer="producer112" in="00:00:02.700" out="00:01:00.000">
   <property name="kdenlive:id">8</property>
   <filter id="filter42">
    <property name="rotate_center">1</property>
    <property name="mlt_service">qtblend</property>
    <property name="kdenlive_id">qtblend</property>
    <property name="rect">00:00:02.700=92 236 1080 608 1.000000</property>
    <property name="rotation">00:00:02.700=90</property>
    <property name="compositing">0</property>
    <property name="distort">1</property>
    <property name="kdenlive:collapsed">0</property>
   </filter>
  </entry>
  <blank length="00:04:53.733"/>
  <entry producer="producer113" in="00:00:00.000" out="00:00:44.033">
   <property name="kdenlive:id">49</property>
   <filter id="filter22">
    <property name="rotate_center">1</property>
    <property name="mlt_service">qtblend</property>
    <property name="kdenlive_id">qtblend</property>
    <property name="rect">00:00:00.000|=0 0 1920 1080 1.000000;00:00:02.100=-960 -540 3840 2160 1.000000;00:00:02.233|=0 0 1920 1080 1.000000;00:00:03.367=-960 -540 3840 2160 1.000000;00:00:03.500|=0 0 1920 1080 1.000000;00:00:44.033|=0 0 1920 1080 1.000000</property>
    <property name="rotation">00:00:00.000|=0;00:00:02.100=0;00:00:02.233|=0;00:00:03.367=0;00:00:03.500|=0;00:00:44.033|=0</property>
    <property name="compositing">0</property>
    <property name="distort">0</property>
    <property name="kdenlive:collapsed">0</property>
   </filter>
  </entry>
 </playlist>
 <playlist id="playlist5"/>
 <tractor id="tractor2" in="00:00:00.000" out="00:22:57.733">
  <property name="kdenlive:trackheight">69</property>
  <property name="kdenlive:timeline_active">1</property>
  <property name="kdenlive:collapsed">0</property>
  <property name="kdenlive:thumbs_format"/>
  <property name="kdenlive:audio_rec"/>
  <property name="kdenlive:locked_track"/>
  <track hide="audio" producer="playlist4"/>
  <track producer="playlist5"/>
 </tractor>
 <producer id="producer114" in="00:00:00.000" out="00:01:27.000">
  <property name="length">2611</property>
  <property name="eof">pause</property>
  <property name="resource">content/hot_bod_120000_f34ec270_bass_solo_electric.mp4</property>
  <property name="audio_index">1</property>
  <property name="video_index">0</property>
  <property name="mute_on_pause">0</property>
  <property name="mlt_service">avformat-novalidate</property>
  <property name="seekable">1</property>
  <property name="aspect_ratio">1</property>
  <property name="kdenlive:clipname"/>
  <property name="kdenlive:folderid">34</property>
  <property name="kdenlive:id">38</property>
  <property name="kdenlive:file_size">42205163</property>
  <property name="kdenlive:file_hash">171649c24b36ba48a3814e00fb965f33</property>
  <property name="kdenlive:audio_max">4</property>
  <property name="global_feed">1</property>
  <property name="xml">was here</property>
  <property name="meta.media.nb_streams">2</property>
  <property name="meta.media.0.stream.type">video</property>
  <property name="meta.media.0.stream.frame_rate">30</property>
  <property name="meta.media.0.stream.sample_aspect_ratio">0</property>
  <property name="meta.media.0.codec.width">896</property>
  <property name="meta.media.0.codec.height">512</property>
  <property name="meta.media.0.codec.rotate">0</property>
  <property name="meta.media.0.codec.frame_rate">30</property>
  <property name="meta.media.0.codec.pix_fmt">yuv420p</property>
  <property name="meta.media.0.codec.sample_aspect_ratio">0</property>
  <property name="meta.media.0.codec.colorspace">601</property>
  <property name="meta.media.0.codec.name">h264</property>
  <property name="meta.media.0.codec.long_name">H.264 / AVC / MPEG-4 AVC / MPEG-4 part 10</property>
  <property name="meta.media.0.codec.bit_rate">3535758</property>
  <property name="meta.attr.0.stream.handler_name.markup">VideoHandler</property>
  <property name="meta.media.1.stream.type">audio</property>
  <property name="meta.media.1.codec.sample_fmt">fltp</property>
  <property name="meta.media.1.codec.sample_rate">48000</property>
  <property name="meta.media.1.codec.channels">2</property>
  <property name="meta.media.1.codec.name">aac</property>
  <property name="meta.media.1.codec.long_name">AAC (Advanced Audio Coding)</property>
  <property name="meta.media.1.codec.bit_rate">336755</property>
  <property name="meta.attr.1.stream.handler_name.markup">SoundHandler</property>
  <property name="meta.attr.major_brand.markup">isom</property>
  <property name="meta.attr.minor_version.markup">512</property>
  <property name="meta.attr.compatible_brands.markup">isomiso2avc1mp41</property>
  <property name="meta.attr.encoder.markup">Lavf58.29.100</property>
  <property name="meta.media.sample_aspect_num">1</property>
  <property name="meta.media.sample_aspect_den">1</property>
  <property name="meta.media.frame_rate_num">30</property>
  <property name="meta.media.frame_rate_den">1</property>
  <property name="meta.media.colorspace">601</property>
  <property name="meta.media.color_trc">2</property>
  <property name="meta.media.width">896</property>
  <property name="meta.media.height">512</property>
  <property name="meta.media.color_range">mpeg</property>
  <property name="meta.media.top_field_first">0</property>
  <property name="meta.media.progressive">1</property>
  <property name="set.test_audio">1</property>
  <property name="set.test_image">0</property>
 </producer>
 <producer id="producer115" in="00:00:00.000" out="00:01:14.000">
  <property name="length">2221</property>
  <property name="eof">pause</property>
  <property name="resource">content/hot_bod_180000_97c282c6_synth_solo.mp4</property>
  <property name="audio_index">1</property>
  <property name="video_index">0</property>
  <property name="mute_on_pause">0</property>
  <property name="mlt_service">avformat-novalidate</property>
  <property name="seekable">1</property>
  <property name="aspect_ratio">1</property>
  <property name="kdenlive:clipname"/>
  <property name="kdenlive:folderid">34</property>
  <property name="kdenlive:id">37</property>
  <property name="kdenlive:file_size">38882228</property>
  <property name="kdenlive:file_hash">93f786cce468b11782704dc07333adce</property>
  <property name="kdenlive:audio_max">2</property>
  <property name="global_feed">1</property>
  <property name="xml">was here</property>
  <property name="meta.media.nb_streams">2</property>
  <property name="meta.media.0.stream.type">video</property>
  <property name="meta.media.0.stream.frame_rate">30</property>
  <property name="meta.media.0.stream.sample_aspect_ratio">0</property>
  <property name="meta.media.0.codec.width">896</property>
  <property name="meta.media.0.codec.height">512</property>
  <property name="meta.media.0.codec.rotate">0</property>
  <property name="meta.media.0.codec.frame_rate">30</property>
  <property name="meta.media.0.codec.pix_fmt">yuv420p</property>
  <property name="meta.media.0.codec.sample_aspect_ratio">0</property>
  <property name="meta.media.0.codec.colorspace">601</property>
  <property name="meta.media.0.codec.name">h264</property>
  <property name="meta.media.0.codec.long_name">H.264 / AVC / MPEG-4 AVC / MPEG-4 part 10</property>
  <property name="meta.media.0.codec.bit_rate">3868149</property>
  <property name="meta.attr.0.stream.handler_name.markup">VideoHandler</property>
  <property name="meta.media.1.stream.type">audio</property>
  <property name="meta.media.1.codec.sample_fmt">fltp</property>
  <property name="meta.media.1.codec.sample_rate">48000</property>
  <property name="meta.media.1.codec.channels">2</property>
  <property name="meta.media.1.codec.name">aac</property>
  <property name="meta.media.1.codec.long_name">AAC (Advanced Audio Coding)</property>
  <property name="meta.media.1.codec.bit_rate">326658</property>
  <property name="meta.attr.1.stream.handler_name.markup">SoundHandler</property>
  <property name="meta.attr.major_brand.markup">isom</property>
  <property name="meta.attr.minor_version.markup">512</property>
  <property name="meta.attr.compatible_brands.markup">isomiso2avc1mp41</property>
  <property name="meta.attr.encoder.markup">Lavf58.29.100</property>
  <property name="meta.media.sample_aspect_num">1</property>
  <property name="meta.media.sample_aspect_den">1</property>
  <property name="meta.media.frame_rate_num">30</property>
  <property name="meta.media.frame_rate_den">1</property>
  <property name="meta.media.colorspace">601</property>
  <property name="meta.media.color_trc">2</property>
  <property name="meta.media.width">896</property>
  <property name="meta.media.height">512</property>
  <property name="meta.media.color_range">mpeg</property>
  <property name="meta.media.top_field_first">0</property>
  <property name="meta.media.progressive">1</property>
  <property name="set.test_audio">1</property>
  <property name="set.test_image">1</property>
 </producer>
 <producer id="producer116" in="00:00:00.000" out="00:01:00.000">
  <property name="length">1801</property>
  <property name="eof">pause</property>
  <property name="resource">/home/ryankelln/Documents/Projects/Active/Sound_Escapes/Sarah/storyboard/chris_rehearsal1_078000_d00a71ef.mp4</property>
  <property name="audio_index">1</property>
  <property name="video_index">0</property>
  <property name="mute_on_pause">0</property>
  <property name="mlt_service">avformat-novalidate</property>
  <property name="seekable">1</property>
  <property name="aspect_ratio">1</property>
  <property name="kdenlive:clipname"/>
  <property name="kdenlive:folderid">-1</property>
  <property name="kdenlive:id">9</property>
  <property name="kdenlive:file_size">22536432</property>
  <property name="kdenlive:file_hash">e2a0ff9322a1212a8bd7ae05a20a8b5d</property>
  <property name="kdenlive:audio_max">1</property>
  <property name="global_feed">1</property>
  <property name="xml">was here</property>
  <property name="meta.media.nb_streams">2</property>
  <property name="meta.media.0.stream.type">video</property>
  <property name="meta.media.0.stream.frame_rate">30</property>
  <property name="meta.media.0.stream.sample_aspect_ratio">0</property>
  <property name="meta.media.0.codec.width">896</property>
  <property name="meta.media.0.codec.height">512</property>
  <property name="meta.media.0.codec.rotate">0</property>
  <property name="meta.media.0.codec.frame_rate">30</property>
  <property name="meta.media.0.codec.pix_fmt">yuv420p</property>
  <property name="meta.media.0.codec.sample_aspect_ratio">0</property>
  <property name="meta.media.0.codec.colorspace">601</property>
  <property name="meta.media.0.codec.name">h264</property>
  <property name="meta.media.0.codec.long_name">H.264 / AVC / MPEG-4 AVC / MPEG-4 part 10</property>
  <property name="meta.media.0.codec.bit_rate">2675001</property>
  <property name="meta.attr.0.stream.handler_name.markup">VideoHandler</property>
  <property name="meta.attr.0.stream.vendor_id.markup">[0][0][0][0]</property>
  <property name="meta.media.1.stream.type">audio</property>
  <property name="meta.media.1.codec.sample_fmt">fltp</property>
  <property name="meta.media.1.codec.sample_rate">48000</property>
  <property name="meta.media.1.codec.channels">2</property>
  <property name="meta.media.1.codec.name">aac</property>
  <property name="meta.media.1.codec.long_name">AAC (Advanced Audio Coding)</property>
  <property name="meta.media.1.codec.bit_rate">321313</property>
  <property name="meta.attr.1.stream.handler_name.markup">SoundHandler</property>
  <property name="meta.attr.1.stream.vendor_id.markup">[0][0][0][0]</property>
  <property name="meta.attr.major_brand.markup">isom</property>
  <property name="meta.attr.minor_version.markup">512</property>
  <property name="meta.attr.compatible_brands.markup">isomiso2avc1mp41</property>
  <property name="meta.attr.encoder.markup">Lavf58.29.100</property>
  <property name="meta.media.sample_aspect_num">1</property>
  <property name="meta.media.sample_aspect_den">1</property>
  <property name="meta.media.frame_rate_num">30</property>
  <property name="meta.media.frame_rate_den">1</property>
  <property name="meta.media.colorspace">601</property>
  <property name="meta.media.color_trc">2</property>
  <property name="meta.media.width">896</property>
  <property name="meta.media.height">512</property>
  <property name="meta.media.color_range">mpeg</property>
  <property name="meta.media.top_field_first">0</property>
  <property name="meta.media.progressive">1</property>
  <property name="set.test_audio">1</property>
  <property name="set.test_image">0</property>
 </producer>
 <producer id="producer117" in="00:00:00.000" out="00:01:24.533">
  <property name="length">2537</property>
  <property name="eof">pause</property>
  <property name="resource">1.750000:/media/storage/media/Videos/mine/music_landscapes/2021-05-21/rehearsal1_Caleb_electricbass+closeup+hands_1.MP4</property>
  <property name="aspect_ratio">1</property>
  <property name="meta.media.nb_streams">3</property>
  <property name="meta.media.0.stream.type">video</property>
  <property name="meta.media.0.stream.frame_rate">24</property>
  <property name="meta.media.0.stream.sample_aspect_ratio">0</property>
  <property name="meta.media.0.codec.width">1920</property>
  <property name="meta.media.0.codec.height">1080</property>
  <property name="meta.media.0.codec.rotate">0</property>
  <property name="meta.media.0.codec.frame_rate">24</property>
  <property name="meta.media.0.codec.pix_fmt">yuv420p</property>
  <property name="meta.media.0.codec.sample_aspect_ratio">1</property>
  <property name="meta.media.0.codec.colorspace">709</property>
  <property name="meta.media.0.codec.color_trc">1</property>
  <property name="meta.media.0.codec.name">h264</property>
  <property name="meta.media.0.codec.long_name">H.264 / AVC / MPEG-4 AVC / MPEG-4 part 10</property>
  <property name="meta.media.0.codec.bit_rate">38376081</property>
  <property name="meta.attr.0.stream.creation_time.markup">2021-05-21T16:01:26.000000Z</property>
  <property name="meta.attr.0.stream.timecode.markup">10:19:53:03</property>
  <property name="meta.media.1.stream.type">audio</property>
  <property name="meta.media.1.codec.sample_fmt">s16</property>
  <property name="meta.media.1.codec.sample_rate">48000</property>
  <property name="meta.media.1.codec.channels">2</property>
  <property name="meta.media.1.codec.name">pcm_s16be</property>
  <property name="meta.media.1.codec.long_name">PCM signed 16-bit big-endian</property>
  <property name="meta.media.1.codec.bit_rate">1536000</property>
  <property name="meta.attr.1.stream.creation_time.markup">2021-05-21T16:01:26.000000Z</property>
  <property name="meta.attr.1.stream.timecode.markup">10:19:53:03</property>
  <property name="meta.attr.major_brand.markup">mp42</property>
  <property name="meta.attr.minor_version.markup">1</property>
  <property name="meta.attr.compatible_brands.markup">mp42avc1</property>
  <property name="meta.attr.creation_time.markup">2021-05-21T16:01:26.000000Z</property>
  <property name="seekable">1</property>
  <property name="meta.media.sample_aspect_num">1</property>
  <property name="meta.media.sample_aspect_den">1</property>
  <property name="audio_index">1</property>
  <property name="video_index">0</property>
  <property name="mute_on_pause">1</property>
  <property name="warp_speed">1.75</property>
  <property name="warp_resource">/media/storage/media/Videos/mine/music_landscapes/2021-05-21/rehearsal1_Caleb_electricbass+closeup+hands_1.MP4</property>
  <property name="mlt_service">timewarp</property>
  <property name="meta.attr.0.stream.vendor_id.markup">[0][0][0][0]</property>
  <property name="meta.attr.1.stream.vendor_id.markup">pana</property>
  <property name="set.test_audio">1</property>
  <property name="set.test_image">0</property>
  <property name="kdenlive:id">10</property>
  <property name="warp_pitch">0</property>
  <property name="meta.media.frame_rate_num">24</property>
  <property name="meta.media.frame_rate_den">1</property>
  <property name="meta.media.colorspace">709</property>
  <property name="meta.media.color_trc">1</property>
  <property name="meta.media.width">1920</property>
  <property name="meta.media.height">1080</property>
  <property name="meta.media.color_range">mpeg</property>
  <property name="meta.media.top_field_first">0</property>
  <property name="meta.media.progressive">1</property>
 </producer>
 <producer id="producer118" in="00:00:00.000" out="00:01:00.000">
  <property name="length">1801</property>
  <property name="eof">pause</property>
  <property name="resource">/home/ryankelln/Documents/Projects/Active/Sound_Escapes/Sarah/storyboard/sarah_rehearsal1_132000_efb0363b.mp4</property>
  <property name="audio_index">1</property>
  <property name="video_index">0</property>
  <property name="mute_on_pause">0</property>
  <property name="mlt_service">avformat-novalidate</property>
  <property name="seekable">1</property>
  <property name="aspect_ratio">1</property>
  <property name="kdenlive:clipname"/>
  <property name="kdenlive:folderid">-1</property>
  <property name="kdenlive:id">8</property>
  <property name="kdenlive:file_size">25180686</property>
  <property name="kdenlive:file_hash">92ed901aec54435ab38198af6187679e</property>
  <property name="kdenlive:audio_max">1</property>
  <property name="global_feed">1</property>
  <property name="xml">was here</property>
  <property name="meta.media.nb_streams">2</property>
  <property name="meta.media.0.stream.type">video</property>
  <property name="meta.media.0.stream.frame_rate">30</property>
  <property name="meta.media.0.stream.sample_aspect_ratio">0</property>
  <property name="meta.media.0.codec.width">896</property>
  <property name="meta.media.0.codec.height">512</property>
  <property name="meta.media.0.codec.rotate">0</property>
  <property name="meta.media.0.codec.frame_rate">30</property>
  <property name="meta.media.0.codec.pix_fmt">yuv420p</property>
  <property name="meta.media.0.codec.sample_aspect_ratio">0</property>
  <property name="meta.media.0.codec.colorspace">601</property>
  <property name="meta.media.0.codec.name">h264</property>
  <property name="meta.media.0.codec.long_name">H.264 / AVC / MPEG-4 AVC / MPEG-4 part 10</property>
  <property name="meta.media.0.codec.bit_rate">3026875</property>
  <property name="meta.attr.0.stream.handler_name.markup">VideoHandler</property>
  <property name="meta.attr.0.stream.vendor_id.markup">[0][0][0][0]</property>
  <property name="meta.media.1.stream.type">audio</property>
  <property name="meta.media.1.codec.sample_fmt">fltp</property>
  <property name="meta.media.1.codec.sample_rate">48000</property>
  <property name="meta.media.1.codec.channels">2</property>
  <property name="meta.media.1.codec.name">aac</property>
  <property name="meta.media.1.codec.long_name">AAC (Advanced Audio Coding)</property>
  <property name="meta.media.1.codec.bit_rate">321732</property>
  <property name="meta.attr.1.stream.handler_name.markup">SoundHandler</property>
  <property name="meta.attr.1.stream.vendor_id.markup">[0][0][0][0]</property>
  <property name="meta.attr.major_brand.markup">isom</property>
  <property name="meta.attr.minor_version.markup">512</property>
  <property name="meta.attr.compatible_brands.markup">isomiso2avc1mp41</property>
  <property name="meta.attr.encoder.markup">Lavf58.29.100</property>
  <property name="meta.media.sample_aspect_num">1</property>
  <property name="meta.media.sample_aspect_den">1</property>
  <property name="meta.media.frame_rate_num">30</property>
  <property name="meta.media.frame_rate_den">1</property>
  <property name="meta.media.colorspace">601</property>
  <property name="meta.media.color_trc">2</property>
  <property name="meta.media.width">896</property>
  <property name="meta.media.height">512</property>
  <property name="meta.media.color_range">mpeg</property>
  <property name="meta.media.top_field_first">0</property>
  <property name="meta.media.progressive">1</property>
  <property name="set.test_audio">1</property>
  <property name="set.test_image">0</property>
 </producer>
 <producer id="producer119" in="00:00:00.000" out="00:00:44.000">
  <property name="length">1321</property>
  <property name="eof">pause</property>
  <property name="resource">content/hot_bod_065000_63ca3a33_trusses.mp4</property>
  <property name="audio_index">1</property>
  <property name="video_index">0</property>
  <property name="mute_on_pause">0</property>
  <property name="mlt_service">avformat-novalidate</property>
  <property name="seekable">1</property>
  <property name="aspect_ratio">1</property>
  <property name="kdenlive:clipname">hot_bod_065000_63ca3a33_trusses.mp4</property>
  <property name="kdenlive:folderid">34</property>
  <property name="kdenlive:id">36</property>
  <property name="kdenlive:file_size">5449983</property>
  <property name="kdenlive:audio_max">5</property>
  <property name="kdenlive:active_streams">-1;1</property>
  <property name="global_feed">1</property>
  <property name="kdenlive:file_hash">e7c63f197d2b1594f1626febc3887c4b</property>
  <property name="xml">was here</property>
  <property name="meta.media.nb_streams">2</property>
  <property name="meta.media.0.stream.type">video</property>
  <property name="meta.media.0.stream.frame_rate">30</property>
  <property name="meta.media.0.stream.sample_aspect_ratio">0</property>
  <property name="meta.media.0.codec.width">512</property>
  <property name="meta.media.0.codec.height">512</property>
  <property name="meta.media.0.codec.rotate">0</property>
  <property name="meta.media.0.codec.frame_rate">30</property>
  <property name="meta.media.0.codec.pix_fmt">yuv420p</property>
  <property name="meta.media.0.codec.sample_aspect_ratio">0</property>
  <property name="meta.media.0.codec.colorspace">601</property>
  <property name="meta.media.0.codec.name">h264</property>
  <property name="meta.media.0.codec.long_name">H.264 / AVC / MPEG-4 AVC / MPEG-4 part 10</property>
  <property name="meta.media.0.codec.bit_rate">645136</property>
  <property name="meta.attr.0.stream.handler_name.markup">VideoHandler</property>
  <property name="meta.media.1.stream.type">audio</property>
  <property name="meta.media.1.codec.sample_fmt">fltp</property>
  <property name="meta.media.1.codec.sample_rate">48000</property>
  <property name="meta.media.1.codec.channels">2</property>
  <property name="meta.media.1.codec.name">aac</property>
  <property name="meta.media.1.codec.long_name">AAC (Advanced Audio Coding)</property>
  <property name="meta.media.1.codec.bit_rate">336810</property>
  <property name="meta.attr.1.stream.handler_name.markup">SoundHandler</property>
  <property name="meta.attr.major_brand.markup">isom</property>
  <property name="meta.attr.minor_version.markup">512</property>
  <property name="meta.attr.compatible_brands.markup">isomiso2avc1mp41</property>
  <property name="meta.attr.encoder.markup">Lavf58.29.100</property>
  <property name="meta.media.sample_aspect_num">1</property>
  <property name="meta.media.sample_aspect_den">1</property>
  <property name="meta.media.frame_rate_num">30</property>
  <property name="meta.media.frame_rate_den">1</property>
  <property name="meta.media.colorspace">601</property>
  <property name="meta.media.color_trc">2</property>
  <property name="meta.media.width">512</property>
  <property name="meta.media.height">512</property>
  <property name="meta.media.color_range">mpeg</property>
  <property name="meta.media.top_field_first">0</property>
  <property name="meta.media.progressive">1</property>
  <property name="set.test_audio">1</property>
  <property name="set.test_image">0</property>
 </producer>
 <playlist id="playlist6">
  <blank length="00:01:34.967"/>
  <entry producer="producer114" in="00:00:00.000" out="00:01:27.000">
   <property name="kdenlive:id">38</property>
   <filter id="filter43">
    <property name="rotate_center">1</property>
    <property name="mlt_service">qtblend</property>
    <property name="kdenlive_id">qtblend</property>
    <property name="rect">00:00:00.000=0 0 1920 1080 1</property>
    <property name="rotation">00:00:00.000=0</property>
    <property name="compositing">0</property>
    <property name="distort">1</property>
    <property name="kdenlive:collapsed">0</property>
   </filter>
   <filter id="filter27" out="00:00:02.800">
    <property name="start">0</property>
    <property name="mlt_service">brightness</property>
    <property name="kdenlive_id">fade_from_black</property>
    <property name="end">1</property>
    <property name="alpha">-1</property>
   </filter>
  </entry>
  <entry producer="producer115" in="00:00:00.000" out="00:01:14.000">
   <property name="kdenlive:id">37</property>
   <filter id="filter44">
    <property name="mirror">horizontal</property>
    <property name="mlt_service">mirror</property>
    <property name="kdenlive_id">mirror</property>
    <property name="reverse">0</property>
    <property name="kdenlive:collapsed">0</property>
   </filter>
   <filter id="filter45">
    <property name="mirror">vertical</property>
    <property name="mlt_service">mirror</property>
    <property name="kdenlive_id">mirror</property>
    <property name="reverse">0</property>
    <property name="kdenlive:collapsed">0</property>
   </filter>
   <filter id="filter46">
    <property name="rotate_center">1</property>
    <property name="mlt_service">qtblend</property>
    <property name="kdenlive_id">qtblend</property>
    <property name="rect">00:00:00.000=1310 737 1310 737 1.000000</property>
    <property name="rotation">00:00:00.000=0</property>
    <property name="compositing">0</property>
    <property name="distort">1</property>
    <property name="kdenlive:collapsed">0</property>
   </filter>
  </entry>
  <blank length="00:02:37.800"/>
  <entry producer="producer3" in="00:00:00.000" out="00:00:37.300">
   <property name="kdenlive:id">2</property>
   <filter id="filter47">
    <property name="version">0.6</property>
    <property name="mlt_service">frei0r.select0r</property>
    <property name="kdenlive_id">frei0r.select0r</property>
    <property name="Color to select">0x000000ff</property>
    <property name="Invert selection">1</property>
    <property name="Selection subspace">0.5</property>
    <property name="Subspace shape">0.5</property>
    <property name="Edge mode">0.9</property>
    <property name="Delta R / A / Hue">00:00:00.000=0.229</property>
    <property name="Delta G / B / Chroma">00:00:00.000=0.033</property>
    <property name="Delta B / I / I">00:00:00.000=0.114</property>
    <property name="Slope">00:00:00.000=0.052</property>
    <property name="Operation">0.5</property>
    <property name="kdenlive:collapsed">0</property>
   </filter>
   <filter id="filter48">
    <property name="rotate_center">1</property>
    <property name="mlt_service">qtblend</property>
    <property name="kdenlive_id">qtblend</property>
    <property name="rect">00:00:00.000|=912 513 96 54 1.000000;00:00:00.300|=768 432 384 216 1.000000;00:00:00.500|=576 324 768 432 1.000000;00:00:00.700|=384 216 1152 648 1.000000;00:00:00.867|=192 108 1536 864 1.000000;00:00:01.033|=0 0 1920 1080 1.000000;00:00:01.233=-192 -108 2304 1296 1.000000;00:00:02.600=192 108 1536 864 1.000000;00:00:02.700|=-995 -525 3840 2160 1.000000;00:00:03.100|=-1977 -1045 5760 3240 1.000000;00:00:03.433=-3928 -2093 9600 5400 1.000000;00:00:04.867=-3928 -2093 9600 5400 1.000000;00:00:04.933=-3928 -2093 9600 5400 1.000000;00:00:05.667=-4888 -2633 11520 6480 1.000000;00:00:05.700|=-2968 -1553 7680 4320 1.000000;00:00:06.033|=-505 -240 2880 1620 1.000000;00:00:07.167=-505 -240 2880 1620 1.000000;00:00:37.300=-505 -240 2880 1620 1.000000</property>
    <property name="rotation">00:00:00.000|=0;00:00:00.300|=0;00:00:00.500|=0;00:00:00.700|=0;00:00:00.867|=0;00:00:01.033|=0;00:00:01.233=0;00:00:02.600=30;00:00:02.700|=0;00:00:03.100|=0;00:00:03.433=0;00:00:04.867=-27;00:00:04.933=0;00:00:05.667=0;00:00:05.700|=0;00:00:06.033|=0;00:00:07.167=-360;00:00:37.300=360</property>
    <property name="compositing">0</property>
    <property name="distort">0</property>
    <property name="kdenlive:collapsed">0</property>
   </filter>
  </entry>
  <blank length="00:00:30.767"/>
  <entry producer="producer116" in="00:00:02.100" out="00:00:59.600">
   <property name="kdenlive:id">9</property>
  </entry>
  <entry producer="producer117" in="00:00:00.000" out="00:01:24.533">
   <property name="kdenlive:id">10</property>
   <filter id="filter49">
    <property name="rotate_center">1</property>
    <property name="mlt_service">qtblend</property>
    <property name="kdenlive_id">qtblend</property>
    <property name="rect">00:00:00.000=737 185 1268 712 1.000000</property>
    <property name="rotation">00:00:00.000=0</property>
    <property name="compositing">0</property>
    <property name="distort">0</property>
    <property name="kdenlive:collapsed">0</property>
   </filter>
  </entry>
  <blank length="00:00:10.667"/>
  <entry producer="producer118" in="00:00:00.367" out="00:00:07.100">
   <property name="kdenlive:id">8</property>
   <filter id="filter50" in="00:00:00.367" out="00:00:01.200">
    <property name="start">0</property>
    <property name="mlt_service">brightness</property>
    <property name="kdenlive_id">fade_from_black</property>
    <property name="end">1</property>
    <property name="alpha">-1</property>
    <property name="kdenlive:collapsed">0</property>
   </filter>
  </entry>
  <entry producer="producer118" in="00:00:00.000" out="00:00:39.967">
   <property name="kdenlive:id">8</property>
   <filter id="filter51" in="00:00:38.033" out="00:00:39.967">
    <property name="start">1</property>
    <property name="mlt_service">brightness</property>
    <property name="kdenlive_id">fade_to_black</property>
    <property name="end">0</property>
    <property name="alpha">-1</property>
    <property name="kdenlive:collapsed">0</property>
   </filter>
  </entry>
  <blank length="00:00:26.300"/>
  <entry producer="producer118" in="00:00:07.567" out="00:01:00.000">
   <property name="kdenlive:id">8</property>
   <filter id="filter52">
    <property name="rotate_center">1</property>
    <property name="mlt_service">qtblend</property>
    <property name="kdenlive_id">qtblend</property>
    <property name="rect">00:00:07.567=506 545 896 512 1.000000</property>
    <property name="rotation">00:00:07.567=0</property>
    <property name="compositing">0</property>
    <property name="distort">0</property>
    <property name="kdenlive:collapsed">0</property>
   </filter>
  </entry>
  <blank length="00:00:15.267"/>
  <entry producer="producer118" in="00:00:00.000" out="00:01:00.000">
   <property name="kdenlive:id">8</property>
   <filter id="filter53">
    <property name="rotate_center">1</property>
    <property name="mlt_service">qtblend</property>
    <property name="kdenlive_id">qtblend</property>
    <property name="rect">00:00:00.000=81 45 896 512 1.000000</property>
    <property name="rotation">00:00:00.000=0</property>
    <property name="compositing">0</property>
    <property name="distort">0</property>
    <property name="kdenlive:collapsed">0</property>
   </filter>
  </entry>
  <blank length="00:00:17.400"/>
  <entry producer="producer118" in="00:00:07.567" out="00:01:00.000">
   <property name="kdenlive:id">8</property>
   <filter id="filter54">
    <property name="version">0.1</property>
    <property name="mlt_service">frei0r.alphaspot</property>
    <property name="kdenlive_id">frei0r.alphaspot</property>
    <property name="Shape">0</property>
    <property name="Position X">00:00:07.567=0.5</property>
    <property name="Position Y">00:00:07.567=0.5</property>
    <property name="Size X">00:00:07.567=0.18</property>
    <property name="Size Y">00:00:07.567=1</property>
    <property name="Tilt">00:00:07.567=0.5</property>
    <property name="Transition width">00:00:07.567=0</property>
    <property name="Min">00:00:07.567=0</property>
    <property name="Max">00:00:07.567=1</property>
    <property name="Operation">0</property>
    <property name="kdenlive:collapsed">0</property>
   </filter>
   <filter id="filter55">
    <property name="rotate_center">1</property>
    <property name="mlt_service">qtblend</property>
    <property name="kdenlive_id">qtblend</property>
    <property name="rect">00:00:07.567=47 30 1820 1024 1.000000</property>
    <property name="rotation">00:00:07.567=0</property>
    <property name="compositing">0</property>
    <property name="distort">0</property>
    <property name="kdenlive:collapsed">0</property>
   </filter>
  </entry>
  <blank length="00:00:19.900"/>
  <entry producer="producer118" in="00:00:00.000" out="00:01:00.000">
   <property name="kdenlive:id">8</property>
   <filter id="filter56">
    <property name="rotate_center">1</property>
    <property name="mlt_service">qtblend</property>
    <property name="kdenlive_id">qtblend</property>
    <property name="rect">00:00:00.000=0 0 1080 540 1.000000</property>
    <property name="rotation">00:00:00.000=0</property>
    <property name="compositing">0</property>
    <property name="distort">1</property>
    <property name="kdenlive:collapsed">0</property>
   </filter>
   <filter id="filter57">
    <property name="mirror">flip</property>
    <property name="mlt_service">mirror</property>
    <property name="kdenlive_id">mirror</property>
    <property name="reverse">0</property>
    <property name="kdenlive:collapsed">0</property>
   </filter>
   <filter id="filter58">
    <property name="mirror">flop</property>
    <property name="mlt_service">mirror</property>
    <property name="kdenlive_id">mirror</property>
    <property name="reverse">0</property>
    <property name="kdenlive:collapsed">0</property>
   </filter>
  </entry>
  <entry producer="producer118" in="00:00:00.000" out="00:01:00.000">
   <property name="kdenlive:id">8</property>
   <filter id="filter59">
    <property name="rotate_center">1</property>
    <property name="mlt_service">qtblend</property>
    <property name="kdenlive_id">qtblend</property>
    <property name="rect">00:00:00.000=0 0 1080 540 1.000000</property>
    <property name="rotation">00:00:00.000=0</property>
    <property name="compositing">0</property>
    <property name="distort">1</property>
    <property name="kdenlive:collapsed">0</property>
   </filter>
   <filter id="filter60">
    <property name="mirror">flip</property>
    <property name="mlt_service">mirror</property>
    <property name="kdenlive_id">mirror</property>
    <property name="reverse">0</property>
    <property name="kdenlive:collapsed">0</property>
   </filter>
   <filter id="filter61">
    <property name="mirror">flop</property>
    <property name="mlt_service">mirror</property>
    <property name="kdenlive_id">mirror</property>
    <property name="reverse">0</property>
    <property name="kdenlive:collapsed">0</property>
   </filter>
  </entry>
  <blank length="00:04:48.333"/>
  <entry producer="producer119" in="00:00:00.000" out="00:00:44.000">
   <property name="kdenlive:id">36</property>
   <filter id="filter23">
    <property name="rotate_center">1</property>
    <property name="mlt_service">qtblend</property>
    <property name="kdenlive_id">qtblend</property>
    <property name="rect">00:00:00.000=704 284 512 512 1.000000;00:00:44.000=704 284 512 512 1.000000</property>
    <property name="rotation">00:00:00.000=0;00:00:44.000=180</property>
    <property name="compositing">0</property>
    <property name="distort">1</property>
    <property name="kdenlive:collapsed">0</property>
   </filter>
  </entry>
 </playlist>
 <playlist id="playlist7"/>
 <tractor id="tractor3" in="00:00:00.000" out="00:22:57.700">
  <property name="kdenlive:trackheight">69</property>
  <property name="kdenlive:timeline_active">1</property>
  <property name="kdenlive:collapsed">28</property>
  <property name="kdenlive:thumbs_format"/>
  <property name="kdenlive:audio_rec"/>
  <property name="kdenlive:locked_track">1</property>
  <track hide="audio" producer="playlist6"/>
  <track producer="playlist7"/>
 </tractor>
 <producer id="producer120" in="00:00:00.000" out="00:01:00.000">
  <property name="length">1801</property>
  <property name="eof">pause</property>
  <property name="resource">/home/ryankelln/Documents/Projects/Active/Sound_Escapes/Sarah/storyboard/sarah_rehearsal1_132000_efb0363b.mp4</property>
  <property name="audio_index">1</property>
  <property name="video_index">0</property>
  <property name="mute_on_pause">0</property>
  <property name="mlt_service">avformat-novalidate</property>
  <property name="seekable">1</property>
  <property name="aspect_ratio">1</property>
  <property name="kdenlive:clipname"/>
  <property name="kdenlive:folderid">-1</property>
  <property name="kdenlive:id">8</property>
  <property name="kdenlive:file_size">25180686</property>
  <property name="kdenlive:file_hash">92ed901aec54435ab38198af6187679e</property>
  <property name="kdenlive:audio_max">1</property>
  <property name="global_feed">1</property>
  <property name="xml">was here</property>
  <property name="meta.media.nb_streams">2</property>
  <property name="meta.media.0.stream.type">video</property>
  <property name="meta.media.0.stream.frame_rate">30</property>
  <property name="meta.media.0.stream.sample_aspect_ratio">0</property>
  <property name="meta.media.0.codec.width">896</property>
  <property name="meta.media.0.codec.height">512</property>
  <property name="meta.media.0.codec.rotate">0</property>
  <property name="meta.media.0.codec.frame_rate">30</property>
  <property name="meta.media.0.codec.pix_fmt">yuv420p</property>
  <property name="meta.media.0.codec.sample_aspect_ratio">0</property>
  <property name="meta.media.0.codec.colorspace">601</property>
  <property name="meta.media.0.codec.name">h264</property>
  <property name="meta.media.0.codec.long_name">H.264 / AVC / MPEG-4 AVC / MPEG-4 part 10</property>
  <property name="meta.media.0.codec.bit_rate">3026875</property>
  <property name="meta.attr.0.stream.handler_name.markup">VideoHandler</property>
  <property name="meta.attr.0.stream.vendor_id.markup">[0][0][0][0]</property>
  <property name="meta.media.1.stream.type">audio</property>
  <property name="meta.media.1.codec.sample_fmt">fltp</property>
  <property name="meta.media.1.codec.sample_rate">48000</property>
  <property name="meta.media.1.codec.channels">2</property>
  <property name="meta.media.1.codec.name">aac</property>
  <property name="meta.media.1.codec.long_name">AAC (Advanced Audio Coding)</property>
  <property name="meta.media.1.codec.bit_rate">321732</property>
  <property name="meta.attr.1.stream.handler_name.markup">SoundHandler</property>
  <property name="meta.attr.1.stream.vendor_id.markup">[0][0][0][0]</property>
  <property name="meta.attr.major_brand.markup">isom</property>
  <property name="meta.attr.minor_version.markup">512</property>
  <property name="meta.attr.compatible_brands.markup">isomiso2avc1mp41</property>
  <property name="meta.attr.encoder.markup">Lavf58.29.100</property>
  <property name="meta.media.sample_aspect_num">1</property>
  <property name="meta.media.sample_aspect_den">1</property>
  <property name="meta.media.frame_rate_num">30</property>
  <property name="meta.media.frame_rate_den">1</property>
  <property name="meta.media.colorspace">601</property>
  <property name="meta.media.color_trc">2</property>
  <property name="meta.media.width">896</property>
  <property name="meta.media.height">512</property>
  <property name="meta.media.color_range">mpeg</property>
  <property name="meta.media.top_field_first">0</property>
  <property name="meta.media.progressive">1</property>
  <property name="set.test_audio">1</property>
  <property name="set.test_image">0</property>
 </producer>
 <producer id="producer121" in="00:00:00.000" out="00:00:49.400">
  <property name="length">1483</property>
  <property name="eof">pause</property>
  <property name="resource">1.750000:/media/storage/media/Videos/mine/music_landscapes/2021-05-21/Chris/rehearsal1_Chris_synth+closeup+hands_1.MP4</property>
  <property name="aspect_ratio">1</property>
  <property name="meta.media.nb_streams">3</property>
  <property name="meta.media.0.stream.type">video</property>
  <property name="meta.media.0.stream.frame_rate">24</property>
  <property name="meta.media.0.stream.sample_aspect_ratio">0</property>
  <property name="meta.media.0.codec.width">1920</property>
  <property name="meta.media.0.codec.height">1080</property>
  <property name="meta.media.0.codec.rotate">0</property>
  <property name="meta.media.0.codec.frame_rate">24</property>
  <property name="meta.media.0.codec.pix_fmt">yuv420p</property>
  <property name="meta.media.0.codec.sample_aspect_ratio">1</property>
  <property name="meta.media.0.codec.colorspace">709</property>
  <property name="meta.media.0.codec.color_trc">1</property>
  <property name="meta.media.0.codec.name">h264</property>
  <property name="meta.media.0.codec.long_name">H.264 / AVC / MPEG-4 AVC / MPEG-4 part 10</property>
  <property name="meta.media.0.codec.bit_rate">38374341</property>
  <property name="meta.attr.0.stream.creation_time.markup">2021-05-21T16:03:03.000000Z</property>
  <property name="meta.attr.0.stream.timecode.markup">10:22:56:03</property>
  <property name="meta.media.1.stream.type">audio</property>
  <property name="meta.media.1.codec.sample_fmt">s16</property>
  <property name="meta.media.1.codec.sample_rate">48000</property>
  <property name="meta.media.1.codec.channels">2</property>
  <property name="meta.media.1.codec.name">pcm_s16be</property>
  <property name="meta.media.1.codec.long_name">PCM signed 16-bit big-endian</property>
  <property name="meta.media.1.codec.bit_rate">1536000</property>
  <property name="meta.attr.1.stream.creation_time.markup">2021-05-21T16:03:03.000000Z</property>
  <property name="meta.attr.1.stream.timecode.markup">10:22:56:03</property>
  <property name="meta.attr.major_brand.markup">mp42</property>
  <property name="meta.attr.minor_version.markup">1</property>
  <property name="meta.attr.compatible_brands.markup">mp42avc1</property>
  <property name="meta.attr.creation_time.markup">2021-05-21T16:03:03.000000Z</property>
  <property name="seekable">1</property>
  <property name="meta.media.sample_aspect_num">1</property>
  <property name="meta.media.sample_aspect_den">1</property>
  <property name="audio_index">1</property>
  <property name="video_index">0</property>
  <property name="mute_on_pause">1</property>
  <property name="warp_speed">1.75</property>
  <property name="warp_resource">/media/storage/media/Videos/mine/music_landscapes/2021-05-21/Chris/rehearsal1_Chris_synth+closeup+hands_1.MP4</property>
  <property name="mlt_service">timewarp</property>
  <property name="meta.attr.0.stream.vendor_id.markup">[0][0][0][0]</property>
  <property name="meta.attr.1.stream.vendor_id.markup">pana</property>
  <property name="set.test_audio">1</property>
  <property name="set.test_image">0</property>
  <property name="kdenlive:id">11</property>
  <property name="warp_pitch">0</property>
  <property name="meta.media.frame_rate_num">24</property>
  <property name="meta.media.frame_rate_den">1</property>
  <property name="meta.media.colorspace">709</property>
  <property name="meta.media.color_trc">1</property>
  <property name="meta.media.width">1920</property>
  <property name="meta.media.height">1080</property>
  <property name="meta.media.color_range">mpeg</property>
  <property name="meta.media.top_field_first">0</property>
  <property name="meta.media.progressive">1</property>
 </producer>
 <producer id="producer122" in="00:00:00.000" out="00:00:49.400">
  <property name="length">1483</property>
  <property name="eof">pause</property>
  <property name="resource">1.750000:/media/storage/media/Videos/mine/music_landscapes/2021-05-21/Chris/rehearsal1_Chris_synth+closeup+hands_1.MP4</property>
  <property name="aspect_ratio">1</property>
  <property name="meta.media.nb_streams">3</property>
  <property name="meta.media.0.stream.type">video</property>
  <property name="meta.media.0.stream.frame_rate">24</property>
  <property name="meta.media.0.stream.sample_aspect_ratio">0</property>
  <property name="meta.media.0.codec.width">1920</property>
  <property name="meta.media.0.codec.height">1080</property>
  <property name="meta.media.0.codec.rotate">0</property>
  <property name="meta.media.0.codec.frame_rate">24</property>
  <property name="meta.media.0.codec.pix_fmt">yuv420p</property>
  <property name="meta.media.0.codec.sample_aspect_ratio">1</property>
  <property name="meta.media.0.codec.colorspace">709</property>
  <property name="meta.media.0.codec.color_trc">1</property>
  <property name="meta.media.0.codec.name">h264</property>
  <property name="meta.media.0.codec.long_name">H.264 / AVC / MPEG-4 AVC / MPEG-4 part 10</property>
  <property name="meta.media.0.codec.bit_rate">38374341</property>
  <property name="meta.attr.0.stream.creation_time.markup">2021-05-21T16:03:03.000000Z</property>
  <property name="meta.attr.0.stream.timecode.markup">10:22:56:03</property>
  <property name="meta.media.1.stream.type">audio</property>
  <property name="meta.media.1.codec.sample_fmt">s16</property>
  <property name="meta.media.1.codec.sample_rate">48000</property>
  <property name="meta.media.1.codec.channels">2</property>
  <property name="meta.media.1.codec.name">pcm_s16be</property>
  <property name="meta.media.1.codec.long_name">PCM signed 16-bit big-endian</property>
  <property name="meta.media.1.codec.bit_rate">1536000</property>
  <property name="meta.attr.1.stream.creation_time.markup">2021-05-21T16:03:03.000000Z</property>
  <property name="meta.attr.1.stream.timecode.markup">10:22:56:03</property>
  <property name="meta.attr.major_brand.markup">mp42</property>
  <property name="meta.attr.minor_version.markup">1</property>
  <property name="meta.attr.compatible_brands.markup">mp42avc1</property>
  <property name="meta.attr.creation_time.markup">2021-05-21T16:03:03.000000Z</property>
  <property name="seekable">1</property>
  <property name="meta.media.sample_aspect_num">1</property>
  <property name="meta.media.sample_aspect_den">1</property>
  <property name="audio_index">1</property>
  <property name="video_index">0</property>
  <property name="mute_on_pause">1</property>
  <property name="warp_speed">1.75</property>
  <property name="warp_resource">/media/storage/media/Videos/mine/music_landscapes/2021-05-21/Chris/rehearsal1_Chris_synth+closeup+hands_1.MP4</property>
  <property name="mlt_service">timewarp</property>
  <property name="meta.attr.0.stream.vendor_id.markup">[0][0][0][0]</property>
  <property name="meta.attr.1.stream.vendor_id.markup">pana</property>
  <property name="set.test_audio">1</property>
  <property name="set.test_image">0</property>
  <property name="kdenlive:id">11</property>
  <property name="warp_pitch">0</property>
  <property name="meta.media.frame_rate_num">24</property>
  <property name="meta.media.frame_rate_den">1</property>
  <property name="meta.media.colorspace">709</property>
  <property name="meta.media.color_trc">1</property>
  <property name="meta.media.width">1920</property>
  <property name="meta.media.height">1080</property>
  <property name="meta.media.color_range">mpeg</property>
  <property name="meta.media.top_field_first">0</property>
  <property name="meta.media.progressive">1</property>
 </producer>
 <producer id="producer123" in="00:00:00.000" out="00:01:13.000">
  <property name="length">2191</property>
  <property name="eof">pause</property>
  <property name="resource">content/hot_bod_120000_9084fcf0_bass_trip.mp4</property>
  <property name="audio_index">1</property>
  <property name="video_index">0</property>
  <property name="mute_on_pause">0</property>
  <property name="mlt_service">avformat-novalidate</property>
  <property name="seekable">1</property>
  <property name="aspect_ratio">1</property>
  <property name="kdenlive:clipname"/>
  <property name="kdenlive:folderid">34</property>
  <property name="kdenlive:id">46</property>
  <property name="kdenlive:file_size">35889185</property>
  <property name="kdenlive:file_hash">93fe18edb1d21011d9dfe6f48873c37a</property>
  <property name="kdenlive:audio_max">5</property>
  <property name="global_feed">1</property>
  <property name="xml">was here</property>
  <property name="meta.media.nb_streams">2</property>
  <property name="meta.media.0.stream.type">video</property>
  <property name="meta.media.0.stream.frame_rate">30</property>
  <property name="meta.media.0.stream.sample_aspect_ratio">0</property>
  <property name="meta.media.0.codec.width">896</property>
  <property name="meta.media.0.codec.height">512</property>
  <property name="meta.media.0.codec.rotate">0</property>
  <property name="meta.media.0.codec.frame_rate">30</property>
  <property name="meta.media.0.codec.pix_fmt">yuv420p</property>
  <property name="meta.media.0.codec.sample_aspect_ratio">0</property>
  <property name="meta.media.0.codec.colorspace">601</property>
  <property name="meta.media.0.codec.name">h264</property>
  <property name="meta.media.0.codec.long_name">H.264 / AVC / MPEG-4 AVC / MPEG-4 part 10</property>
  <property name="meta.media.0.codec.bit_rate">3596498</property>
  <property name="meta.attr.0.stream.handler_name.markup">VideoHandler</property>
  <property name="meta.media.1.stream.type">audio</property>
  <property name="meta.media.1.codec.sample_fmt">fltp</property>
  <property name="meta.media.1.codec.sample_rate">48000</property>
  <property name="meta.media.1.codec.channels">2</property>
  <property name="meta.media.1.codec.name">aac</property>
  <property name="meta.media.1.codec.long_name">AAC (Advanced Audio Coding)</property>
  <property name="meta.media.1.codec.bit_rate">328237</property>
  <property name="meta.attr.1.stream.handler_name.markup">SoundHandler</property>
  <property name="meta.attr.major_brand.markup">isom</property>
  <property name="meta.attr.minor_version.markup">512</property>
  <property name="meta.attr.compatible_brands.markup">isomiso2avc1mp41</property>
  <property name="meta.attr.encoder.markup">Lavf58.29.100</property>
  <property name="meta.media.sample_aspect_num">1</property>
  <property name="meta.media.sample_aspect_den">1</property>
  <property name="meta.media.frame_rate_num">30</property>
  <property name="meta.media.frame_rate_den">1</property>
  <property name="meta.media.colorspace">601</property>
  <property name="meta.media.color_trc">2</property>
  <property name="meta.media.width">896</property>
  <property name="meta.media.height">512</property>
  <property name="meta.media.color_range">mpeg</property>
  <property name="meta.media.top_field_first">0</property>
  <property name="meta.media.progressive">1</property>
  <property name="set.test_audio">1</property>
  <property name="set.test_image">0</property>
 </producer>
 <playlist id="playlist8">
  <blank length="00:03:02.000"/>
  <entry producer="producer115" in="00:00:00.000" out="00:01:14.000">
   <property name="kdenlive:id">37</property>
   <filter id="filter62">
    <property name="mirror">horizontal</property>
    <property name="mlt_service">mirror</property>
    <property name="kdenlive_id">mirror</property>
    <property name="reverse">0</property>
    <property name="kdenlive:collapsed">0</property>
   </filter>
   <filter id="filter63">
    <property name="rotate_center">1</property>
    <property name="mlt_service">qtblend</property>
    <property name="kdenlive_id">qtblend</property>
    <property name="rect">00:00:00.000=1310 0 1310 737 1.000000</property>
    <property name="rotation">00:00:00.000=0</property>
    <property name="compositing">0</property>
    <property name="distort">1</property>
    <property name="kdenlive:collapsed">0</property>
   </filter>
  </entry>
  <blank length="00:02:45.667"/>
  <entry producer="producer1" in="00:00:00.000" out="00:00:29.433">
   <property name="kdenlive:id">4</property>
   <filter id="filter64">
    <property name="version">0.6</property>
    <property name="mlt_service">frei0r.select0r</property>
    <property name="kdenlive_id">frei0r.select0r</property>
    <property name="Color to select">0x000000ff</property>
    <property name="Invert selection">1</property>
    <property name="Selection subspace">1</property>
    <property name="Subspace shape">0.5</property>
    <property name="Edge mode">0.9</property>
    <property name="Delta R / A / Hue">00:00:00.000=0.345</property>
    <property name="Delta G / B / Chroma">00:00:00.000=0.071</property>
    <property name="Delta B / I / I">00:00:00.000=0.081</property>
    <property name="Slope">00:00:00.000=0.189</property>
    <property name="Operation">0.5</property>
    <property name="kdenlive:collapsed">0</property>
   </filter>
   <filter id="filter65">
    <property name="rotate_center">1</property>
    <property name="mlt_service">qtblend</property>
    <property name="kdenlive_id">qtblend</property>
    <property name="rect">00:00:00.000=-969 -359 3840 2160 1.000000;00:00:01.433|=-4 93 1920 1080 1.000000;00:00:02.167|=-484 -177 2880 1620 1.000000;00:00:02.533=-1924 -987 5760 3240 1.000000;00:00:03.433|=-1924 -987 5760 3240 1.000000;00:00:03.533=-1924 -987 5760 3240 1.000000;00:00:03.633=-1924 -987 5760 3240 1.000000;00:00:03.700=-1924 -987 5760 3240 1.000000;00:00:03.967|=-1444 -717 4800 2700 1.000000;00:00:04.033|=-57 105 1920 1080 1.000000;00:00:04.400=341 261 1152 648 1.000000;00:00:29.433=339 271 1152 648 1.000000</property>
    <property name="rotation">00:00:00.000=0;00:00:01.433|=0;00:00:02.167|=0;00:00:02.533=0;00:00:03.433|=-21;00:00:03.533=7;00:00:03.633=-4;00:00:03.700=22;00:00:03.967|=22;00:00:04.033|=22;00:00:04.400=360;00:00:29.433=-360</property>
    <property name="compositing">0</property>
    <property name="distort">0</property>
    <property name="kdenlive:collapsed">0</property>
   </filter>
  </entry>
  <entry producer="producer120" in="00:00:00.367" out="00:00:34.667">
   <property name="kdenlive:id">8</property>
   <filter id="filter66" in="00:00:00.367" out="00:00:01.200">
    <property name="start">0</property>
    <property name="mlt_service">brightness</property>
    <property name="kdenlive_id">fade_from_black</property>
    <property name="end">1</property>
    <property name="alpha">-1</property>
    <property name="kdenlive:collapsed">0</property>
   </filter>
  </entry>
  <blank length="00:00:53.967"/>
  <entry producer="producer121" in="00:00:00.000" out="00:00:49.400">
   <property name="kdenlive:id">11</property>
   <filter id="filter67">
    <property name="rotate_center">1</property>
    <property name="mlt_service">qtblend</property>
    <property name="kdenlive_id">qtblend</property>
    <property name="rect">00:00:00.000=-238 185 1267 712 1.000000</property>
    <property name="rotation">00:00:00.000=0</property>
    <property name="compositing">0</property>
    <property name="distort">0</property>
    <property name="kdenlive:collapsed">0</property>
   </filter>
  </entry>
  <entry producer="producer122" in="00:00:00.000" out="00:00:45.767">
   <property name="kdenlive:id">11</property>
   <filter id="filter68">
    <property name="rotate_center">1</property>
    <property name="mlt_service">qtblend</property>
    <property name="kdenlive_id">qtblend</property>
    <property name="rect">00:00:00.000=-238 185 1267 712 1.000000</property>
    <property name="rotation">00:00:00.000=0</property>
    <property name="compositing">0</property>
    <property name="distort">0</property>
    <property name="kdenlive:collapsed">0</property>
   </filter>
   <filter id="filter69" in="00:00:42.533" out="00:00:45.767">
    <property name="start">1</property>
    <property name="mlt_service">brightness</property>
    <property name="kdenlive_id">fade_to_black</property>
    <property name="end">0</property>
    <property name="alpha">-1</property>
   </filter>
  </entry>
  <entry producer="producer120" in="00:00:00.367" out="00:00:47.100">
   <property name="kdenlive:id">8</property>
   <filter id="filter70" in="00:00:00.367" out="00:00:01.200">
    <property name="start">0</property>
    <property name="mlt_service">brightness</property>
    <property name="kdenlive_id">fade_from_black</property>
    <property name="end">1</property>
    <property name="alpha">-1</property>
    <property name="kdenlive:collapsed">0</property>
   </filter>
   <filter id="filter71">
    <property name="mlt_service">avfilter.hflip</property>
    <property name="kdenlive_id">avfilter.hflip</property>
    <property name="kdenlive:collapsed">0</property>
   </filter>
   <filter id="filter72">
    <property name="version">0.1</property>
    <property name="mlt_service">frei0r.alphaspot</property>
    <property name="kdenlive_id">frei0r.alphaspot</property>
    <property name="Shape">0</property>
    <property name="Position X">00:00:00.367=0.816;00:00:07.367=0.816;00:00:08.233|=0.993</property>
    <property name="Position Y">00:00:00.367=0.5;00:00:07.367=0.5;00:00:08.233|=0.5</property>
    <property name="Size X">00:00:00.367=0.341;00:00:07.367=0.341;00:00:08.233|=0.341</property>
    <property name="Size Y">00:00:00.367=1;00:00:07.367=1;00:00:08.233|=1</property>
    <property name="Tilt">00:00:00.367=0.5;00:00:07.367=0.5;00:00:08.233|=0.5</property>
    <property name="Transition width">00:00:00.367=0.115;00:00:07.367=0.115;00:00:08.233|=0.05</property>
    <property name="Min">00:00:00.367=0;00:00:07.367=0;00:00:08.233|=0</property>
    <property name="Max">00:00:00.367=1;00:00:07.367=1;00:00:08.233|=1</property>
    <property name="Operation">0</property>
    <property name="kdenlive:collapsed">0</property>
   </filter>
   <filter id="filter73" in="00:00:44.833" out="00:00:47.100">
    <property name="start">1</property>
    <property name="mlt_service">brightness</property>
    <property name="kdenlive_id">fade_to_black</property>
    <property name="end">0</property>
    <property name="alpha">-1</property>
   </filter>
  </entry>
  <blank length="00:00:26.300"/>
  <entry producer="producer120" in="00:00:16.667" out="00:01:00.000">
   <property name="kdenlive:id">8</property>
   <filter id="filter74">
    <property name="rotate_center">1</property>
    <property name="mlt_service">qtblend</property>
    <property name="kdenlive_id">qtblend</property>
    <property name="rect">00:00:16.667=968 14 896 512 1.000000</property>
    <property name="rotation">00:00:16.667=0</property>
    <property name="compositing">0</property>
    <property name="distort">0</property>
    <property name="kdenlive:collapsed">0</property>
   </filter>
  </entry>
  <blank length="00:00:24.367"/>
  <entry producer="producer120" in="00:00:00.000" out="00:01:00.000">
   <property name="kdenlive:id">8</property>
   <filter id="filter75">
    <property name="rotate_center">1</property>
    <property name="mlt_service">qtblend</property>
    <property name="kdenlive_id">qtblend</property>
    <property name="rect">00:00:00.000=47 11 896 512 1.000000</property>
    <property name="rotation">00:00:00.000=0</property>
    <property name="compositing">0</property>
    <property name="distort">0</property>
    <property name="kdenlive:collapsed">0</property>
   </filter>
   <filter id="filter76">
    <property name="mirror">flip</property>
    <property name="mlt_service">mirror</property>
    <property name="kdenlive_id">mirror</property>
    <property name="reverse">0</property>
    <property name="kdenlive:collapsed">0</property>
   </filter>
   <filter id="filter77">
    <property name="mirror">flop</property>
    <property name="mlt_service">mirror</property>
    <property name="kdenlive_id">mirror</property>
    <property name="reverse">0</property>
    <property name="kdenlive:collapsed">0</property>
   </filter>
  </entry>
  <blank length="00:00:17.400"/>
  <entry producer="producer120" in="00:00:16.667" out="00:01:00.000">
   <property name="kdenlive:id">8</property>
   <filter id="filter78">
    <property name="version">0.1</property>
    <property name="mlt_service">frei0r.alphaspot</property>
    <property name="kdenlive_id">frei0r.alphaspot</property>
    <property name="Shape">0</property>
    <property name="Position X">00:00:16.667=0.5</property>
    <property name="Position Y">00:00:16.667=0.5</property>
    <property name="Size X">00:00:16.667=0.178</property>
    <property name="Size Y">00:00:16.667=1</property>
    <property name="Tilt">00:00:16.667=0.5</property>
    <property name="Transition width">00:00:16.667=0</property>
    <property name="Min">00:00:16.667=0</property>
    <property name="Max">00:00:16.667=1</property>
    <property name="Operation">0</property>
    <property name="kdenlive:collapsed">0</property>
   </filter>
   <filter id="filter79">
    <property name="rotate_center">1</property>
    <property name="mlt_service">qtblend</property>
    <property name="kdenlive_id">qtblend</property>
    <property name="rect">00:00:16.667=687 28 1820 1024 1.000000</property>
    <property name="rotation">00:00:16.667=0</property>
    <property name="compositing">0</property>
    <property name="distort">0</property>
    <property name="kdenlive:collapsed">0</property>
   </filter>
  </entry>
  <blank length="00:00:29.000"/>
  <entry producer="producer120" in="00:00:00.000" out="00:01:00.000">
   <property name="kdenlive:id">8</property>
   <filter id="filter80">
    <property name="rotate_center">1</property>
    <property name="mlt_service">qtblend</property>
    <property name="kdenlive_id">qtblend</property>
    <property name="rect">00:00:00.000=-240 235 1080 615 1.000000</property>
    <property name="rotation">00:00:00.000=-90</property>
    <property name="compositing">0</property>
    <property name="distort">1</property>
    <property name="kdenlive:collapsed">0</property>
   </filter>
  </entry>
  <entry producer="producer120" in="00:00:00.000" out="00:01:00.000">
   <property name="kdenlive:id">8</property>
   <filter id="filter81">
    <property name="rotate_center">1</property>
    <property name="mlt_service">qtblend</property>
    <property name="kdenlive_id">qtblend</property>
    <property name="rect">00:00:00.000=-240 235 1080 615 1.000000</property>
    <property name="rotation">00:00:00.000=-90</property>
    <property name="compositing">0</property>
    <property name="distort">1</property>
    <property name="kdenlive:collapsed">0</property>
   </filter>
  </entry>
  <blank length="00:00:34.633"/>
  <entry producer="producer123" in="00:00:00.000" out="00:01:13.000">
   <property name="kdenlive:id">46</property>
   <property name="kdenlive:activeeffect">1</property>
   <filter id="filter82">
    <property name="rotate_center">1</property>
    <property name="mlt_service">qtblend</property>
    <property name="kdenlive_id">qtblend</property>
    <property name="rect">00:00:00.000=-126 28 896 512 1.000000</property>
    <property name="rotation">00:00:00.000=0</property>
    <property name="compositing">0</property>
    <property name="distort">1</property>
    <property name="kdenlive:collapsed">0</property>
   </filter>
   <filter id="filter83">
    <property name="mlt_service">avfilter.vflip</property>
    <property name="kdenlive_id">avfilter.vflip</property>
    <property name="kdenlive:collapsed">0</property>
   </filter>
  </entry>
  <blank length="00:00:20.300"/>
  <entry producer="producer123" in="00:00:00.000" out="00:01:13.000">
   <property name="kdenlive:id">46</property>
   <filter id="filter84">
    <property name="version">0.1</property>
    <property name="mlt_service">frei0r.alphaspot</property>
    <property name="kdenlive_id">frei0r.alphaspot</property>
    <property name="Shape">0</property>
    <property name="Position X">00:00:00.000=0.5</property>
    <property name="Position Y">00:00:00.000=0.5</property>
    <property name="Size X">00:00:00.000=0.167</property>
    <property name="Size Y">00:00:00.000=1</property>
    <property name="Tilt">00:00:00.000=0.5</property>
    <property name="Transition width">00:00:00.000=0</property>
    <property name="Min">00:00:00.000=0</property>
    <property name="Max">00:00:00.000=1</property>
    <property name="Operation">0</property>
   </filter>
   <filter id="filter85">
    <property name="rotate_center">1</property>
    <property name="mlt_service">qtblend</property>
    <property name="kdenlive_id">qtblend</property>
    <property name="rect">00:00:00.000=-643 0 1920 1080 1.000000</property>
    <property name="rotation">00:00:00.000=0</property>
    <property name="compositing">0</property>
    <property name="distort">1</property>
   </filter>
  </entry>
 </playlist>
 <playlist id="playlist9"/>
 <tractor id="tractor4" in="00:00:00.000" out="00:20:46.333">
  <property name="kdenlive:trackheight">69</property>
  <property name="kdenlive:timeline_active">1</property>
  <property name="kdenlive:collapsed">28</property>
  <property name="kdenlive:thumbs_format"/>
  <property name="kdenlive:audio_rec"/>
  <property name="kdenlive:locked_track"/>
  <track hide="audio" producer="playlist8"/>
  <track producer="playlist9"/>
 </tractor>
 <producer id="producer124" in="00:00:00.000" out="00:00:37.300">
  <property name="length">1120</property>
  <property name="eof">pause</property>
  <property name="resource">/home/ryankelln/Documents/Projects/Active/Sound_Escapes/Sarah/storyboard/flower_start.mp4</property>
  <property name="audio_index">-1</property>
  <property name="video_index">0</property>
  <property name="mute_on_pause">0</property>
  <property name="mlt_service">avformat-novalidate</property>
  <property name="seekable">1</property>
  <property name="aspect_ratio">1</property>
  <property name="kdenlive:clipname"/>
  <property name="kdenlive:folderid">-1</property>
  <property name="kdenlive:id">7</property>
  <property name="kdenlive:file_size">25635499</property>
  <property name="kdenlive:file_hash">2eb57f989340ff8ae87047abbf920d05</property>
  <property name="global_feed">1</property>
  <property name="xml">was here</property>
  <property name="meta.media.nb_streams">1</property>
  <property name="meta.media.0.stream.type">video</property>
  <property name="meta.media.0.stream.frame_rate">30</property>
  <property name="meta.media.0.stream.sample_aspect_ratio">1</property>
  <property name="meta.media.0.codec.width">1920</property>
  <property name="meta.media.0.codec.height">1080</property>
  <property name="meta.media.0.codec.rotate">0</property>
  <property name="meta.media.0.codec.frame_rate">30</property>
  <property name="meta.media.0.codec.pix_fmt">yuv420p</property>
  <property name="meta.media.0.codec.sample_aspect_ratio">1</property>
  <property name="meta.media.0.codec.colorspace">709</property>
  <property name="meta.media.0.codec.color_trc">1</property>
  <property name="meta.media.0.codec.name">h264</property>
  <property name="meta.media.0.codec.long_name">H.264 / AVC / MPEG-4 AVC / MPEG-4 part 10</property>
  <property name="meta.media.0.codec.bit_rate">5490612</property>
  <property name="meta.attr.0.stream.handler_name.markup">VideoHandler</property>
  <property name="meta.attr.0.stream.vendor_id.markup">[0][0][0][0]</property>
  <property name="meta.attr.major_brand.markup">isom</property>
  <property name="meta.attr.minor_version.markup">512</property>
  <property name="meta.attr.compatible_brands.markup">isomiso2avc1mp41</property>
  <property name="meta.attr.encoder.markup">Lavf58.76.100</property>
  <property name="meta.media.sample_aspect_num">1</property>
  <property name="meta.media.sample_aspect_den">1</property>
  <property name="meta.media.frame_rate_num">30</property>
  <property name="meta.media.frame_rate_den">1</property>
  <property name="meta.media.colorspace">709</property>
  <property name="meta.media.color_trc">1</property>
  <property name="meta.media.width">1920</property>
  <property name="meta.media.height">1080</property>
  <property name="meta.media.color_range">mpeg</property>
  <property name="meta.media.top_field_first">0</property>
  <property name="meta.media.progressive">1</property>
  <property name="set.test_audio">1</property>
  <property name="set.test_image">0</property>
 </producer>
 <producer id="producer125" in="00:00:00.000" out="00:03:25.667">
  <property name="length">6171</property>
  <property name="eof">pause</property>
  <property name="resource">1.750000:/media/storage/media/Videos/mine/music_landscapes/2021-05-21/Sarah/rehearsal1_Sarah_ride_2.MP4</property>
  <property name="aspect_ratio">1</property>
  <property name="meta.media.nb_streams">3</property>
  <property name="meta.media.0.stream.type">video</property>
  <property name="meta.media.0.stream.frame_rate">24</property>
  <property name="meta.media.0.stream.sample_aspect_ratio">0</property>
  <property name="meta.media.0.codec.width">1920</property>
  <property name="meta.media.0.codec.height">1080</property>
  <property name="meta.media.0.codec.rotate">0</property>
  <property name="meta.media.0.codec.frame_rate">24</property>
  <property name="meta.media.0.codec.pix_fmt">yuv420p</property>
  <property name="meta.media.0.codec.sample_aspect_ratio">1</property>
  <property name="meta.media.0.codec.colorspace">709</property>
  <property name="meta.media.0.codec.color_trc">1</property>
  <property name="meta.media.0.codec.name">h264</property>
  <property name="meta.media.0.codec.long_name">H.264 / AVC / MPEG-4 AVC / MPEG-4 part 10</property>
  <property name="meta.media.0.codec.bit_rate">38370568</property>
  <property name="meta.attr.0.stream.creation_time.markup">2021-05-21T14:03:00.000000Z</property>
  <property name="meta.attr.0.stream.timecode.markup">09:30:38:03</property>
  <property name="meta.media.1.stream.type">audio</property>
  <property name="meta.media.1.codec.sample_fmt">s16</property>
  <property name="meta.media.1.codec.sample_rate">48000</property>
  <property name="meta.media.1.codec.channels">2</property>
  <property name="meta.media.1.codec.name">pcm_s16be</property>
  <property name="meta.media.1.codec.long_name">PCM signed 16-bit big-endian</property>
  <property name="meta.media.1.codec.bit_rate">1536000</property>
  <property name="meta.attr.1.stream.creation_time.markup">2021-05-21T14:03:00.000000Z</property>
  <property name="meta.attr.1.stream.timecode.markup">09:30:38:03</property>
  <property name="meta.attr.major_brand.markup">mp42</property>
  <property name="meta.attr.minor_version.markup">1</property>
  <property name="meta.attr.compatible_brands.markup">mp42avc1</property>
  <property name="meta.attr.creation_time.markup">2021-05-21T14:03:00.000000Z</property>
  <property name="seekable">1</property>
  <property name="meta.media.sample_aspect_num">1</property>
  <property name="meta.media.sample_aspect_den">1</property>
  <property name="audio_index">1</property>
  <property name="video_index">0</property>
  <property name="mute_on_pause">1</property>
  <property name="warp_speed">1.75</property>
  <property name="warp_resource">/media/storage/media/Videos/mine/music_landscapes/2021-05-21/Sarah/rehearsal1_Sarah_ride_2.MP4</property>
  <property name="mlt_service">timewarp</property>
  <property name="meta.attr.0.stream.vendor_id.markup">[0][0][0][0]</property>
  <property name="meta.attr.1.stream.vendor_id.markup">pana</property>
  <property name="set.test_audio">1</property>
  <property name="set.test_image">0</property>
  <property name="kdenlive:id">12</property>
  <property name="warp_pitch">0</property>
  <property name="meta.media.frame_rate_num">24</property>
  <property name="meta.media.frame_rate_den">1</property>
  <property name="meta.media.colorspace">709</property>
  <property name="meta.media.color_trc">1</property>
  <property name="meta.media.width">1920</property>
  <property name="meta.media.height">1080</property>
  <property name="meta.media.color_range">mpeg</property>
  <property name="meta.media.top_field_first">0</property>
  <property name="meta.media.progressive">1</property>
  <filter id="filter21">
   <property name="mlt_service">avfilter.hflip</property>
   <property name="kdenlive_id">avfilter.hflip</property>
  </filter>
  <filter id="filter24">
   <property name="rotate_center">1</property>
   <property name="mlt_service">qtblend</property>
   <property name="kdenlive_id">qtblend</property>
   <property name="rect">00:00:00.000=0 0 1920 1080 1.000000</property>
   <property name="rotation">00:00:00.000=0</property>
   <property name="compositing">0</property>
   <property name="distort">0</property>
  </filter>
 </producer>
 <producer id="producer126" in="00:00:00.000" out="00:01:00.000">
  <property name="length">1801</property>
  <property name="eof">pause</property>
  <property name="resource">/home/ryankelln/Documents/Projects/Active/Sound_Escapes/Sarah/storyboard/chris_rehearsal1_078000_d00a71ef.mp4</property>
  <property name="audio_index">1</property>
  <property name="video_index">0</property>
  <property name="mute_on_pause">0</property>
  <property name="mlt_service">avformat-novalidate</property>
  <property name="seekable">1</property>
  <property name="aspect_ratio">1</property>
  <property name="kdenlive:clipname"/>
  <property name="kdenlive:folderid">-1</property>
  <property name="kdenlive:id">9</property>
  <property name="kdenlive:file_size">22536432</property>
  <property name="kdenlive:file_hash">e2a0ff9322a1212a8bd7ae05a20a8b5d</property>
  <property name="kdenlive:audio_max">1</property>
  <property name="global_feed">1</property>
  <property name="xml">was here</property>
  <property name="meta.media.nb_streams">2</property>
  <property name="meta.media.0.stream.type">video</property>
  <property name="meta.media.0.stream.frame_rate">30</property>
  <property name="meta.media.0.stream.sample_aspect_ratio">0</property>
  <property name="meta.media.0.codec.width">896</property>
  <property name="meta.media.0.codec.height">512</property>
  <property name="meta.media.0.codec.rotate">0</property>
  <property name="meta.media.0.codec.frame_rate">30</property>
  <property name="meta.media.0.codec.pix_fmt">yuv420p</property>
  <property name="meta.media.0.codec.sample_aspect_ratio">0</property>
  <property name="meta.media.0.codec.colorspace">601</property>
  <property name="meta.media.0.codec.name">h264</property>
  <property name="meta.media.0.codec.long_name">H.264 / AVC / MPEG-4 AVC / MPEG-4 part 10</property>
  <property name="meta.media.0.codec.bit_rate">2675001</property>
  <property name="meta.attr.0.stream.handler_name.markup">VideoHandler</property>
  <property name="meta.attr.0.stream.vendor_id.markup">[0][0][0][0]</property>
  <property name="meta.media.1.stream.type">audio</property>
  <property name="meta.media.1.codec.sample_fmt">fltp</property>
  <property name="meta.media.1.codec.sample_rate">48000</property>
  <property name="meta.media.1.codec.channels">2</property>
  <property name="meta.media.1.codec.name">aac</property>
  <property name="meta.media.1.codec.long_name">AAC (Advanced Audio Coding)</property>
  <property name="meta.media.1.codec.bit_rate">321313</property>
  <property name="meta.attr.1.stream.handler_name.markup">SoundHandler</property>
  <property name="meta.attr.1.stream.vendor_id.markup">[0][0][0][0]</property>
  <property name="meta.attr.major_brand.markup">isom</property>
  <property name="meta.attr.minor_version.markup">512</property>
  <property name="meta.attr.compatible_brands.markup">isomiso2avc1mp41</property>
  <property name="meta.attr.encoder.markup">Lavf58.29.100</property>
  <property name="meta.media.sample_aspect_num">1</property>
  <property name="meta.media.sample_aspect_den">1</property>
  <property name="meta.media.frame_rate_num">30</property>
  <property name="meta.media.frame_rate_den">1</property>
  <property name="meta.media.colorspace">601</property>
  <property name="meta.media.color_trc">2</property>
  <property name="meta.media.width">896</property>
  <property name="meta.media.height">512</property>
  <property name="meta.media.color_range">mpeg</property>
  <property name="meta.media.top_field_first">0</property>
  <property name="meta.media.progressive">1</property>
  <property name="set.test_audio">1</property>
  <property name="set.test_image">0</property>
 </producer>
 <producer id="producer127" in="00:00:00.000" out="00:01:00.000">
  <property name="length">1801</property>
  <property name="eof">pause</property>
  <property name="resource">/home/ryankelln/Documents/Projects/Active/Sound_Escapes/Sarah/storyboard/sarah_rehearsal1_132000_efb0363b.mp4</property>
  <property name="audio_index">1</property>
  <property name="video_index">0</property>
  <property name="mute_on_pause">0</property>
  <property name="mlt_service">avformat-novalidate</property>
  <property name="seekable">1</property>
  <property name="aspect_ratio">1</property>
  <property name="kdenlive:clipname"/>
  <property name="kdenlive:folderid">20</property>
  <property name="kdenlive:id">8</property>
  <property name="kdenlive:file_size">25180686</property>
  <property name="kdenlive:file_hash">92ed901aec54435ab38198af6187679e</property>
  <property name="kdenlive:audio_max">1</property>
  <property name="global_feed">1</property>
  <property name="xml">was here</property>
  <property name="meta.media.nb_streams">2</property>
  <property name="meta.media.0.stream.type">video</property>
  <property name="meta.media.0.stream.frame_rate">30</property>
  <property name="meta.media.0.stream.sample_aspect_ratio">0</property>
  <property name="meta.media.0.codec.width">896</property>
  <property name="meta.media.0.codec.height">512</property>
  <property name="meta.media.0.codec.rotate">0</property>
  <property name="meta.media.0.codec.frame_rate">30</property>
  <property name="meta.media.0.codec.pix_fmt">yuv420p</property>
  <property name="meta.media.0.codec.sample_aspect_ratio">0</property>
  <property name="meta.media.0.codec.colorspace">601</property>
  <property name="meta.media.0.codec.name">h264</property>
  <property name="meta.media.0.codec.long_name">H.264 / AVC / MPEG-4 AVC / MPEG-4 part 10</property>
  <property name="meta.media.0.codec.bit_rate">3026875</property>
  <property name="meta.attr.0.stream.handler_name.markup">VideoHandler</property>
  <property name="meta.attr.0.stream.vendor_id.markup">[0][0][0][0]</property>
  <property name="meta.media.1.stream.type">audio</property>
  <property name="meta.media.1.codec.sample_fmt">fltp</property>
  <property name="meta.media.1.codec.sample_rate">48000</property>
  <property name="meta.media.1.codec.channels">2</property>
  <property name="meta.media.1.codec.name">aac</property>
  <property name="meta.media.1.codec.long_name">AAC (Advanced Audio Coding)</property>
  <property name="meta.media.1.codec.bit_rate">321732</property>
  <property name="meta.attr.1.stream.handler_name.markup">SoundHandler</property>
  <property name="meta.attr.1.stream.vendor_id.markup">[0][0][0][0]</property>
  <property name="meta.attr.major_brand.markup">isom</property>
  <property name="meta.attr.minor_version.markup">512</property>
  <property name="meta.attr.compatible_brands.markup">isomiso2avc1mp41</property>
  <property name="meta.attr.encoder.markup">Lavf58.29.100</property>
  <property name="meta.media.sample_aspect_num">1</property>
  <property name="meta.media.sample_aspect_den">1</property>
  <property name="meta.media.frame_rate_num">30</property>
  <property name="meta.media.frame_rate_den">1</property>
  <property name="meta.media.colorspace">601</property>
  <property name="meta.media.color_trc">2</property>
  <property name="meta.media.width">896</property>
  <property name="meta.media.height">512</property>
  <property name="meta.media.color_range">mpeg</property>
  <property name="meta.media.top_field_first">0</property>
  <property name="meta.media.progressive">1</property>
  <property name="set.test_audio">1</property>
  <property name="set.test_image">0</property>
 </producer>
 <producer id="producer128" in="00:00:00.000" out="00:01:13.000">
  <property name="length">2191</property>
  <property name="eof">pause</property>
  <property name="resource">content/hot_bod_120000_9084fcf0_bass_trip.mp4</property>
  <property name="audio_index">1</property>
  <property name="video_index">0</property>
  <property name="mute_on_pause">0</property>
  <property name="mlt_service">avformat-novalidate</property>
  <property name="seekable">1</property>
  <property name="aspect_ratio">1</property>
  <property name="kdenlive:clipname"/>
  <property name="kdenlive:folderid">34</property>
  <property name="kdenlive:id">46</property>
  <property name="kdenlive:file_size">35889185</property>
  <property name="kdenlive:file_hash">93fe18edb1d21011d9dfe6f48873c37a</property>
  <property name="kdenlive:audio_max">5</property>
  <property name="global_feed">1</property>
  <property name="xml">was here</property>
  <property name="meta.media.nb_streams">2</property>
  <property name="meta.media.0.stream.type">video</property>
  <property name="meta.media.0.stream.frame_rate">30</property>
  <property name="meta.media.0.stream.sample_aspect_ratio">0</property>
  <property name="meta.media.0.codec.width">896</property>
  <property name="meta.media.0.codec.height">512</property>
  <property name="meta.media.0.codec.rotate">0</property>
  <property name="meta.media.0.codec.frame_rate">30</property>
  <property name="meta.media.0.codec.pix_fmt">yuv420p</property>
  <property name="meta.media.0.codec.sample_aspect_ratio">0</property>
  <property name="meta.media.0.codec.colorspace">601</property>
  <property name="meta.media.0.codec.name">h264</property>
  <property name="meta.media.0.codec.long_name">H.264 / AVC / MPEG-4 AVC / MPEG-4 part 10</property>
  <property name="meta.media.0.codec.bit_rate">3596498</property>
  <property name="meta.attr.0.stream.handler_name.markup">VideoHandler</property>
  <property name="meta.media.1.stream.type">audio</property>
  <property name="meta.media.1.codec.sample_fmt">fltp</property>
  <property name="meta.media.1.codec.sample_rate">48000</property>
  <property name="meta.media.1.codec.channels">2</property>
  <property name="meta.media.1.codec.name">aac</property>
  <property name="meta.media.1.codec.long_name">AAC (Advanced Audio Coding)</property>
  <property name="meta.media.1.codec.bit_rate">328237</property>
  <property name="meta.attr.1.stream.handler_name.markup">SoundHandler</property>
  <property name="meta.attr.major_brand.markup">isom</property>
  <property name="meta.attr.minor_version.markup">512</property>
  <property name="meta.attr.compatible_brands.markup">isomiso2avc1mp41</property>
  <property name="meta.attr.encoder.markup">Lavf58.29.100</property>
  <property name="meta.media.sample_aspect_num">1</property>
  <property name="meta.media.sample_aspect_den">1</property>
  <property name="meta.media.frame_rate_num">30</property>
  <property name="meta.media.frame_rate_den">1</property>
  <property name="meta.media.colorspace">601</property>
  <property name="meta.media.color_trc">2</property>
  <property name="meta.media.width">896</property>
  <property name="meta.media.height">512</property>
  <property name="meta.media.color_range">mpeg</property>
  <property name="meta.media.top_field_first">0</property>
  <property name="meta.media.progressive">1</property>
  <property name="set.test_audio">1</property>
  <property name="set.test_image">0</property>
 </producer>
 <producer id="producer129" in="00:00:00.000" out="00:01:13.000">
  <property name="length">2191</property>
  <property name="eof">pause</property>
  <property name="resource">content/hot_bod_112000_8fdeacb7_synth_trip.mp4</property>
  <property name="audio_index">1</property>
  <property name="video_index">0</property>
  <property name="mute_on_pause">0</property>
  <property name="mlt_service">avformat-novalidate</property>
  <property name="seekable">1</property>
  <property name="aspect_ratio">1</property>
  <property name="kdenlive:clipname"/>
  <property name="kdenlive:folderid">34</property>
  <property name="kdenlive:id">45</property>
  <property name="kdenlive:file_size">36043540</property>
  <property name="kdenlive:file_hash">01a6227e49a38ad9a87bf327daf078e6</property>
  <property name="kdenlive:audio_max">5</property>
  <property name="global_feed">1</property>
  <property name="xml">was here</property>
  <property name="meta.media.nb_streams">2</property>
  <property name="meta.media.0.stream.type">video</property>
  <property name="meta.media.0.stream.frame_rate">30</property>
  <property name="meta.media.0.stream.sample_aspect_ratio">0</property>
  <property name="meta.media.0.codec.width">896</property>
  <property name="meta.media.0.codec.height">512</property>
  <property name="meta.media.0.codec.rotate">0</property>
  <property name="meta.media.0.codec.frame_rate">30</property>
  <property name="meta.media.0.codec.pix_fmt">yuv420p</property>
  <property name="meta.media.0.codec.sample_aspect_ratio">0</property>
  <property name="meta.media.0.codec.colorspace">601</property>
  <property name="meta.media.0.codec.name">h264</property>
  <property name="meta.media.0.codec.long_name">H.264 / AVC / MPEG-4 AVC / MPEG-4 part 10</property>
  <property name="meta.media.0.codec.bit_rate">3613432</property>
  <property name="meta.attr.0.stream.handler_name.markup">VideoHandler</property>
  <property name="meta.media.1.stream.type">audio</property>
  <property name="meta.media.1.codec.sample_fmt">fltp</property>
  <property name="meta.media.1.codec.sample_rate">48000</property>
  <property name="meta.media.1.codec.channels">2</property>
  <property name="meta.media.1.codec.name">aac</property>
  <property name="meta.media.1.codec.long_name">AAC (Advanced Audio Coding)</property>
  <property name="meta.media.1.codec.bit_rate">328237</property>
  <property name="meta.attr.1.stream.handler_name.markup">SoundHandler</property>
  <property name="meta.attr.major_brand.markup">isom</property>
  <property name="meta.attr.minor_version.markup">512</property>
  <property name="meta.attr.compatible_brands.markup">isomiso2avc1mp41</property>
  <property name="meta.attr.encoder.markup">Lavf58.29.100</property>
  <property name="meta.media.sample_aspect_num">1</property>
  <property name="meta.media.sample_aspect_den">1</property>
  <property name="meta.media.frame_rate_num">30</property>
  <property name="meta.media.frame_rate_den">1</property>
  <property name="meta.media.colorspace">601</property>
  <property name="meta.media.color_trc">2</property>
  <property name="meta.media.width">896</property>
  <property name="meta.media.height">512</property>
  <property name="meta.media.color_range">mpeg</property>
  <property name="meta.media.top_field_first">0</property>
  <property name="meta.media.progressive">1</property>
  <property name="set.test_audio">1</property>
  <property name="set.test_image">0</property>
 </producer>
 <producer id="producer130" in="00:00:00.000" out="00:00:44.033">
  <property name="length">1322</property>
  <property name="eof">pause</property>
  <property name="resource">/home/ryankelln/.cache/kdenlive/proxy/c3f09fd208df8cdb6b8c693ff3c337b6.mkv</property>
  <property name="audio_index">1</property>
  <property name="video_index">0</property>
  <property name="mute_on_pause">0</property>
  <property name="mlt_service">avformat-novalidate</property>
  <property name="seekable">1</property>
  <property name="aspect_ratio">1</property>
  <property name="kdenlive:clipname">trusses_rotating.mp4</property>
  <property name="kdenlive:folderid">34</property>
  <property name="kdenlive:id">49</property>
  <property name="kdenlive:file_size">6095429</property>
  <property name="kdenlive:file_hash">c3f09fd208df8cdb6b8c693ff3c337b6</property>
  <property name="kdenlive:proxy">/home/ryankelln/.cache/kdenlive/proxy/c3f09fd208df8cdb6b8c693ff3c337b6.mkv</property>
  <property name="kdenlive:originalurl">content/trusses_rotating.mp4</property>
  <property name="kdenlive:original.mlt_type">producer</property>
  <property name="kdenlive:original.in">0</property>
  <property name="kdenlive:original.out">1321</property>
  <property name="kdenlive:original.length">1322</property>
  <property name="kdenlive:original.eof">pause</property>
  <property name="kdenlive:original.resource">content/trusses_rotating.mp4</property>
  <property name="kdenlive:original.meta.media.nb_streams">2</property>
  <property name="kdenlive:original.meta.media.0.stream.type">video</property>
  <property name="kdenlive:original.meta.media.0.stream.frame_rate">30</property>
  <property name="kdenlive:original.meta.media.0.stream.sample_aspect_ratio">1</property>
  <property name="kdenlive:original.meta.media.0.codec.width">1920</property>
  <property name="kdenlive:original.meta.media.0.codec.height">1080</property>
  <property name="kdenlive:original.meta.media.0.codec.rotate">0</property>
  <property name="kdenlive:original.meta.media.0.codec.frame_rate">30</property>
  <property name="kdenlive:original.meta.media.0.codec.pix_fmt">yuv420p</property>
  <property name="kdenlive:original.meta.media.0.codec.sample_aspect_ratio">1</property>
  <property name="kdenlive:original.meta.media.0.codec.colorspace">709</property>
  <property name="kdenlive:original.meta.media.0.codec.color_trc">1</property>
  <property name="kdenlive:original.meta.media.0.codec.name">h264</property>
  <property name="kdenlive:original.meta.media.0.codec.long_name">H.264 / AVC / MPEG-4 AVC / MPEG-4 part 10</property>
  <property name="kdenlive:original.meta.media.0.codec.bit_rate">842590</property>
  <property name="kdenlive:original.meta.attr.0.stream.handler_name.markup">VideoHandler</property>
  <property name="kdenlive:original.meta.media.1.stream.type">audio</property>
  <property name="kdenlive:original.meta.media.1.codec.sample_fmt">fltp</property>
  <property name="kdenlive:original.meta.media.1.codec.sample_rate">48000</property>
  <property name="kdenlive:original.meta.media.1.codec.channels">2</property>
  <property name="kdenlive:original.meta.media.1.codec.name">aac</property>
  <property name="kdenlive:original.meta.media.1.codec.long_name">AAC (Advanced Audio Coding)</property>
  <property name="kdenlive:original.meta.media.1.codec.bit_rate">255977</property>
  <property name="kdenlive:original.meta.attr.1.stream.handler_name.markup">SoundHandler</property>
  <property name="kdenlive:original.meta.attr.major_brand.markup">isom</property>
  <property name="kdenlive:original.meta.attr.minor_version.markup">512</property>
  <property name="kdenlive:original.meta.attr.compatible_brands.markup">isomiso2avc1mp41</property>
  <property name="kdenlive:original.meta.attr.encoder.markup">Lavf58.45.100</property>
  <property name="kdenlive:original.seekable">1</property>
  <property name="kdenlive:original.width">1920</property>
  <property name="kdenlive:original.height">1080</property>
  <property name="kdenlive:original.meta.media.sample_aspect_num">1</property>
  <property name="kdenlive:original.meta.media.sample_aspect_den">1</property>
  <property name="kdenlive:original.aspect_ratio">1</property>
  <property name="kdenlive:original.audio_index">1</property>
  <property name="kdenlive:original.video_index">0</property>
  <property name="kdenlive:original.mute_on_pause">0</property>
  <property name="kdenlive:original.mlt_service">avformat-novalidate</property>
  <property name="kdenlive:original.kdenlive:folderid">34</property>
  <property name="kdenlive:original.meta.media.frame_rate_num">30</property>
  <property name="kdenlive:original.meta.media.frame_rate_den">1</property>
  <property name="kdenlive:original.meta.media.colorspace">709</property>
  <property name="kdenlive:original.meta.media.color_trc">1</property>
  <property name="kdenlive:original.meta.media.width">1920</property>
  <property name="kdenlive:original.meta.media.height">1080</property>
  <property name="kdenlive:original.meta.media.color_range">mpeg</property>
  <property name="kdenlive:original.kdenlive:id">53</property>
  <property name="kdenlive:original.kdenlive:file_size">6095429</property>
  <property name="kdenlive:original.kdenlive:file_hash">c3f09fd208df8cdb6b8c693ff3c337b6</property>
  <property name="kdenlive:original.backup">1</property>
  <property name="kdenlive:audio_max">6</property>
  <property name="global_feed">1</property>
  <property name="xml">was here</property>
  <property name="meta.media.nb_streams">2</property>
  <property name="meta.media.0.stream.type">video</property>
  <property name="meta.media.0.stream.frame_rate">30</property>
  <property name="meta.media.0.stream.sample_aspect_ratio">1</property>
  <property name="meta.media.0.codec.width">640</property>
  <property name="meta.media.0.codec.height">360</property>
  <property name="meta.media.0.codec.rotate">0</property>
  <property name="meta.media.0.codec.frame_rate">1000</property>
  <property name="meta.media.0.codec.pix_fmt">yuvj420p</property>
  <property name="meta.media.0.codec.sample_aspect_ratio">1</property>
  <property name="meta.media.0.codec.colorspace">601</property>
  <property name="meta.media.0.codec.name">mjpeg</property>
  <property name="meta.media.0.codec.long_name">MJPEG (Motion JPEG)</property>
  <property name="meta.media.0.codec.bit_rate">0</property>
  <property name="meta.attr.0.stream.HANDLER_NAME.markup">VideoHandler</property>
  <property name="meta.attr.0.stream.ENCODER.markup">Lavc58.91.100 mjpeg</property>
  <property name="meta.attr.0.stream.DURATION.markup">00:00:44.033000000</property>
  <property name="meta.media.1.stream.type">audio</property>
  <property name="meta.media.1.codec.sample_fmt">s16</property>
  <property name="meta.media.1.codec.sample_rate">48000</property>
  <property name="meta.media.1.codec.channels">2</property>
  <property name="meta.media.1.codec.name">pcm_s16le</property>
  <property name="meta.media.1.codec.long_name">PCM signed 16-bit little-endian</property>
  <property name="meta.media.1.codec.bit_rate">1536000</property>
  <property name="meta.attr.1.stream.HANDLER_NAME.markup">SoundHandler</property>
  <property name="meta.attr.1.stream.ENCODER.markup">Lavc58.91.100 pcm_s16le</property>
  <property name="meta.attr.1.stream.DURATION.markup">00:00:44.053000000</property>
  <property name="meta.attr.COMPATIBLE_BRANDS.markup">isomiso2avc1mp41</property>
  <property name="meta.attr.MAJOR_BRAND.markup">isom</property>
  <property name="meta.attr.MINOR_VERSION.markup">512</property>
  <property name="meta.attr.ENCODER.markup">Lavf58.45.100</property>
  <property name="meta.media.sample_aspect_num">1</property>
  <property name="meta.media.sample_aspect_den">1</property>
  <property name="meta.media.frame_rate_num">30</property>
  <property name="meta.media.frame_rate_den">1</property>
  <property name="meta.media.colorspace">601</property>
  <property name="meta.media.color_trc">2</property>
  <property name="meta.media.width">640</property>
  <property name="meta.media.height">360</property>
  <property name="meta.media.color_range">full</property>
  <property name="meta.media.top_field_first">0</property>
  <property name="meta.media.progressive">1</property>
  <property name="set.test_audio">1</property>
  <property name="set.test_image">0</property>
 </producer>
 <playlist id="playlist10">
  <blank length="00:03:02.000"/>
  <entry producer="producer115" in="00:00:00.000" out="00:01:14.000">
   <property name="kdenlive:id">37</property>
   <filter id="filter88">
    <property name="mirror">vertical</property>
    <property name="mlt_service">mirror</property>
    <property name="kdenlive_id">mirror</property>
    <property name="reverse">0</property>
    <property name="kdenlive:collapsed">0</property>
   </filter>
   <filter id="filter89">
    <property name="rotate_center">1</property>
    <property name="mlt_service">qtblend</property>
    <property name="kdenlive_id">qtblend</property>
    <property name="rect">00:00:00.000=0 737 1310 737 1.000000</property>
    <property name="rotation">00:00:00.000=0</property>
    <property name="compositing">0</property>
    <property name="distort">1</property>
    <property name="kdenlive:collapsed">0</property>
   </filter>
  </entry>
  <blank length="00:02:37.800"/>
  <entry producer="producer124" in="00:00:00.000" out="00:00:18.100">
   <property name="kdenlive:id">7</property>
  </entry>
  <entry producer="producer124" in="00:00:18.133" out="00:00:19.800">
   <property name="kdenlive:id">7</property>
   <filter id="filter90">
    <property name="version">0.1</property>
    <property name="mlt_service">frei0r.glitch0r</property>
    <property name="kdenlive_id">frei0r.glitch0r</property>
    <property name="0">00:00:18.133=0.305866</property>
    <property name="1">00:00:18.133=0.240223</property>
    <property name="2">00:00:18.133=0.114525</property>
    <property name="3">00:00:18.133=0.139665</property>
    <property name="kdenlive:collapsed">0</property>
   </filter>
   <filter id="filter91">
    <property name="rotate_center">1</property>
    <property name="mlt_service">qtblend</property>
    <property name="kdenlive_id">qtblend</property>
    <property name="rect">00:00:18.133=0 0 1920 1080 1.000000;00:00:19.800=-540 0 3000 1080 0.300000</property>
    <property name="rotation">00:00:18.133=0;00:00:19.800=0</property>
    <property name="compositing">0</property>
    <property name="distort">1</property>
    <property name="kdenlive:collapsed">0</property>
   </filter>
  </entry>
  <entry producer="producer124" in="00:00:19.833" out="00:00:37.300">
   <property name="kdenlive:id">7</property>
   <filter id="filter92">
    <property name="version">0.1</property>
    <property name="mlt_service">frei0r.distort0r</property>
    <property name="kdenlive_id">frei0r.distort0r</property>
    <property name="Amplitude">00:00:19.833|=0.05;00:00:21.300=0.135;00:00:22.733|=0.001;00:00:22.800|=-0.11;00:00:23.167|=-0.226;00:00:26.500|=-0.226;00:00:27.033|=-0.226;00:00:27.267|=-0.226;00:00:27.467|=-0.226;00:00:27.667|=-0.226;00:00:27.833|=-0.226;00:00:28.033|=-0.593;00:00:28.400|=-0.593;00:00:29.333|=-0.158;00:00:29.533|=-0.158;00:00:29.933|=-0.528;00:00:30.300|=-0.886;00:00:31.800=-0.886;00:00:32.200|=-0.886;00:00:32.567|=-0.886;00:00:35.600|=-0.408;00:00:36.333=-0.408;00:00:37.300|=-0.408</property>
    <property name="Frequency">00:00:19.833|=0.151;00:00:21.300=0.151;00:00:22.733|=0.06;00:00:22.800|=-0.088;00:00:23.167|=0.02;00:00:26.500|=-0.043;00:00:27.033|=-0.145;00:00:27.267|=-0.185;00:00:27.467|=-0.276;00:00:27.667|=-0.356;00:00:27.833|=-0.418;00:00:28.033|=-0.418;00:00:28.400|=-0.031;00:00:29.333|=0.344;00:00:29.533|=0.481;00:00:29.933|=0.031;00:00:30.300|=0.003;00:00:31.800=-0.054;00:00:32.200|=-0.054;00:00:32.567|=-0.094;00:00:35.600|=-0.094;00:00:36.333=-0.094;00:00:37.300|=0.299</property>
    <property name="kdenlive:collapsed">0</property>
   </filter>
   <filter id="filter93">
    <property name="rotate_center">1</property>
    <property name="mlt_service">qtblend</property>
    <property name="kdenlive_id">qtblend</property>
    <property name="rect">00:00:19.833=-540 0 3000 1080 0.200000;00:00:20.567|=0 0 1920 1080 1.000000;00:00:32.967|=0 -400 1920 1920 1.000000;00:00:35.600|=-960 -520 3840 2160 1.000000</property>
    <property name="rotation">00:00:19.833=0;00:00:20.567|=0;00:00:32.967|=90;00:00:35.600|=90</property>
    <property name="compositing">0</property>
    <property name="distort">1</property>
    <property name="kdenlive:collapsed">0</property>
   </filter>
  </entry>
  <blank length="00:01:52.900"/>
  <entry producer="producer125" in="00:01:44.700" out="00:02:55.300">
   <property name="kdenlive:id">12</property>
   <filter id="filter94">
    <property name="rotate_center">1</property>
    <property name="mlt_service">qtblend</property>
    <property name="kdenlive_id">qtblend</property>
    <property name="rect">00:01:44.700=807 185 1268 712 1.000000;00:02:55.300=807 185 1268 712 1.000000</property>
    <property name="rotation">00:01:44.700=0;00:02:55.300=0</property>
    <property name="compositing">0</property>
    <property name="distort">0</property>
    <property name="kdenlive:collapsed">0</property>
   </filter>
   <filter id="filter95" in="00:02:51.400" out="00:02:55.300">
    <property name="start">1</property>
    <property name="mlt_service">brightness</property>
    <property name="kdenlive_id">fade_to_black</property>
    <property name="end">0</property>
    <property name="alpha">-1</property>
    <property name="kdenlive:collapsed">0</property>
   </filter>
  </entry>
  <blank length="00:00:06.767"/>
  <entry producer="producer126" in="00:00:02.100" out="00:00:42.067">
   <property name="kdenlive:id">9</property>
   <filter id="filter96">
    <property name="version">0.1</property>
    <property name="mlt_service">frei0r.alphaspot</property>
    <property name="kdenlive_id">frei0r.alphaspot</property>
    <property name="Shape">0</property>
    <property name="Position X">00:00:02.100=0.5</property>
    <property name="Position Y">00:00:02.100=0.5</property>
    <property name="Size X">00:00:02.100=0.191</property>
    <property name="Size Y">00:00:02.100=1</property>
    <property name="Tilt">00:00:02.100=0.5</property>
    <property name="Transition width">00:00:02.100=0.05</property>
    <property name="Min">00:00:02.100=0</property>
    <property name="Max">00:00:02.100=1</property>
    <property name="Operation">0</property>
    <property name="kdenlive:collapsed">0</property>
   </filter>
   <filter id="filter97" in="00:00:39.400" out="00:00:42.067">
    <property name="start">1</property>
    <property name="mlt_service">brightness</property>
    <property name="kdenlive_id">fade_to_black</property>
    <property name="end">0</property>
    <property name="alpha">-1</property>
   </filter>
  </entry>
  <blank length="00:01:34.033"/>
  <entry producer="producer127" in="00:00:00.000" out="00:01:00.000">
   <property name="kdenlive:id">8</property>
   <filter id="filter98">
    <property name="rotate_center">1</property>
    <property name="mlt_service">qtblend</property>
    <property name="kdenlive_id">qtblend</property>
    <property name="rect">00:00:00.000=81 11 896 512 1.000000</property>
    <property name="rotation">00:00:00.000=0</property>
    <property name="compositing">0</property>
    <property name="distort">0</property>
    <property name="kdenlive:collapsed">0</property>
   </filter>
   <filter id="filter99">
    <property name="mirror">flop</property>
    <property name="mlt_service">mirror</property>
    <property name="kdenlive_id">mirror</property>
    <property name="reverse">0</property>
    <property name="kdenlive:collapsed">0</property>
   </filter>
  </entry>
  <blank length="00:01:29.767"/>
  <entry producer="producer127" in="00:00:00.000" out="00:01:00.000">
   <property name="kdenlive:id">8</property>
   <filter id="filter100">
    <property name="rotate_center">1</property>
    <property name="mlt_service">qtblend</property>
    <property name="kdenlive_id">qtblend</property>
    <property name="rect">00:00:00.000=0 0 1080 540 1.000000</property>
    <property name="rotation">00:00:00.000=0</property>
    <property name="compositing">0</property>
    <property name="distort">1</property>
    <property name="kdenlive:collapsed">0</property>
   </filter>
   <filter id="filter101">
    <property name="mirror">flip</property>
    <property name="mlt_service">mirror</property>
    <property name="kdenlive_id">mirror</property>
    <property name="reverse">0</property>
    <property name="kdenlive:collapsed">0</property>
   </filter>
  </entry>
  <entry producer="producer127" in="00:00:00.000" out="00:01:00.000">
   <property name="kdenlive:id">8</property>
   <filter id="filter102">
    <property name="rotate_center">1</property>
    <property name="mlt_service">qtblend</property>
    <property name="kdenlive_id">qtblend</property>
    <property name="rect">00:00:00.000=0 0 1080 540 1.000000</property>
    <property name="rotation">00:00:00.000=0</property>
    <property name="compositing">0</property>
    <property name="distort">1</property>
    <property name="kdenlive:collapsed">0</property>
   </filter>
   <filter id="filter103">
    <property name="mirror">flip</property>
    <property name="mlt_service">mirror</property>
    <property name="kdenlive_id">mirror</property>
    <property name="reverse">0</property>
    <property name="kdenlive:collapsed">0</property>
   </filter>
  </entry>
  <blank length="00:00:34.633"/>
  <entry producer="producer128" in="00:00:00.000" out="00:01:13.000">
   <property name="kdenlive:id">46</property>
   <filter id="filter104">
    <property name="rotate_center">1</property>
    <property name="mlt_service">qtblend</property>
    <property name="kdenlive_id">qtblend</property>
    <property name="rect">00:00:00.000=-126 28 896 512 1.000000</property>
    <property name="rotation">00:00:00.000=0</property>
    <property name="compositing">0</property>
    <property name="distort">1</property>
    <property name="kdenlive:collapsed">0</property>
   </filter>
  </entry>
  <blank length="00:00:20.300"/>
  <entry producer="producer129" in="00:00:00.000" out="00:01:13.000">
   <property name="kdenlive:id">45</property>
   <filter id="filter105">
    <property name="version">0.1</property>
    <property name="mlt_service">frei0r.alphaspot</property>
    <property name="kdenlive_id">frei0r.alphaspot</property>
    <property name="Shape">0</property>
    <property name="Position X">00:00:00.000=0.5</property>
    <property name="Position Y">00:00:00.000=0.5</property>
    <property name="Size X">00:00:00.000=0.167</property>
    <property name="Size Y">00:00:00.000=1</property>
    <property name="Tilt">00:00:00.000=0.5</property>
    <property name="Transition width">00:00:00.000=0</property>
    <property name="Min">00:00:00.000=0</property>
    <property name="Max">00:00:00.000=1</property>
    <property name="Operation">0</property>
   </filter>
   <filter id="filter106">
    <property name="rotate_center">1</property>
    <property name="mlt_service">qtblend</property>
    <property name="kdenlive_id">qtblend</property>
    <property name="rect">00:00:00.000=640 0 1920 1080 1.000000</property>
    <property name="rotation">00:00:00.000=0</property>
    <property name="compositing">0</property>
    <property name="distort">1</property>
   </filter>
  </entry>
  <blank length="00:01:27.300"/>
  <entry producer="producer130" in="00:00:00.000" out="00:00:44.033">
   <property name="kdenlive:id">49</property>
   <filter id="filter87">
    <property name="rotate_center">1</property>
    <property name="mlt_service">qtblend</property>
    <property name="kdenlive_id">qtblend</property>
    <property name="rect">00:00:00.000|=0 0 1920 1080 1.000000;00:00:02.133|=0 -140 1920 1080 1.000000;00:00:03.400|=0 -300 1920 1080 1.000000;00:00:04.000|=0 -100 1920 1080 1.000000;00:00:05.900|=0 -400 1920 1080 1.000000;00:00:07.200|=0 -200 1920 1080 1.000000;00:00:07.833|=0 -300 1920 1080 1.000000;00:00:09.033|=0 -140 1920 1080 1.000000;00:00:10.000|=0 -60 1920 1080 1.000000;00:00:10.933|=0 50 1920 1080 1.000000;00:00:11.567|=0 -200 1920 1080 1.000000;00:00:12.833|=0 -350 1920 1080 1.000000;00:00:14.700|=0 -170 1920 1080 1.000000;00:00:15.333|=0 -80 1920 1080 1.000000;00:00:16.567|=0 -180 1920 1080 1.000000;00:00:19.000|=0 -260 1920 1080 1.000000;00:00:20.900|=0 -20 1920 1080 1.000000;00:00:22.767|=0 -160 1920 1080 1.000000;00:00:24.633|=0 -360 1920 1080 1.000000;00:00:26.500|=0 -200 1920 1080 1.000000;00:00:28.367|=0 -50 1920 1080 1.000000;00:00:30.233|=0 -140 1920 1080 1.000000;00:00:34.033|=0 -230 1920 1080 1.000000;00:00:37.800|=0 -140 1920 1080 1.000000;00:00:39.667|=0 -40 1920 1080 1.000000;00:00:41.500|=0 -330 1920 1080 1.000000;00:00:43.367|=0 -470 1920 1080 1.000000</property>
    <property name="rotation">00:00:00.000|=0;00:00:02.133|=0;00:00:03.400|=0;00:00:04.000|=0;00:00:05.900|=0;00:00:07.200|=0;00:00:07.833|=0;00:00:09.033|=0;00:00:10.000|=0;00:00:10.933|=0;00:00:11.567|=0;00:00:12.833|=0;00:00:14.700|=0;00:00:15.333|=0;00:00:16.567|=0;00:00:19.000|=0;00:00:20.900|=0;00:00:22.767|=0;00:00:24.633|=0;00:00:26.500|=0;00:00:28.367|=0;00:00:30.233|=0;00:00:34.033|=0;00:00:37.800|=0;00:00:39.667|=0;00:00:41.500|=0;00:00:43.367|=0</property>
    <property name="compositing">0</property>
    <property name="distort">0</property>
    <property name="kdenlive:collapsed">0</property>
   </filter>
   <filter id="filter107">
    <property name="mirror">vertical</property>
    <property name="mlt_service">mirror</property>
    <property name="kdenlive_id">mirror</property>
    <property name="reverse">1</property>
    <property name="kdenlive:collapsed">0</property>
   </filter>
  </entry>
 </playlist>
 <playlist id="playlist11"/>
 <tractor id="tractor5" in="00:00:00.000" out="00:22:57.700">
  <property name="kdenlive:trackheight">69</property>
  <property name="kdenlive:timeline_active">1</property>
  <property name="kdenlive:collapsed">28</property>
  <property name="kdenlive:thumbs_format"/>
  <property name="kdenlive:audio_rec"/>
  <property name="kdenlive:locked_track"/>
  <track hide="audio" producer="playlist10"/>
  <track producer="playlist11"/>
 </tractor>
 <producer id="producer131" in="00:00:00.000" out="00:01:13.000">
  <property name="length">2192</property>
  <property name="eof">pause</property>
  <property name="resource">/home/ryankelln/.cache/kdenlive/proxy/8c962e8f224ca1462712ef210364f729.mkv</property>
  <property name="audio_index">1</property>
  <property name="video_index">0</property>
  <property name="mute_on_pause">0</property>
  <property name="mlt_service">avformat-novalidate</property>
  <property name="seekable">1</property>
  <property name="aspect_ratio">1</property>
  <property name="kdenlive:clipname">trip_mirror.mp4</property>
  <property name="kdenlive:folderid">34</property>
  <property name="kdenlive:id">47</property>
  <property name="kdenlive:file_size">134574168</property>
  <property name="kdenlive:file_hash">8c962e8f224ca1462712ef210364f729</property>
  <property name="kdenlive:proxy">/home/ryankelln/.cache/kdenlive/proxy/8c962e8f224ca1462712ef210364f729.mkv</property>
  <property name="kdenlive:originalurl">content/trip_mirror.mp4</property>
  <property name="kdenlive:original.mlt_type">producer</property>
  <property name="kdenlive:original.in">0</property>
  <property name="kdenlive:original.out">2191</property>
  <property name="kdenlive:original.length">2192</property>
  <property name="kdenlive:original.eof">pause</property>
  <property name="kdenlive:original.resource">content/trip_mirror.mp4</property>
  <property name="kdenlive:original.meta.media.nb_streams">2</property>
  <property name="kdenlive:original.meta.media.0.stream.type">video</property>
  <property name="kdenlive:original.meta.media.0.stream.frame_rate">30</property>
  <property name="kdenlive:original.meta.media.0.stream.sample_aspect_ratio">1</property>
  <property name="kdenlive:original.meta.media.0.codec.width">1920</property>
  <property name="kdenlive:original.meta.media.0.codec.height">1080</property>
  <property name="kdenlive:original.meta.media.0.codec.rotate">0</property>
  <property name="kdenlive:original.meta.media.0.codec.frame_rate">30</property>
  <property name="kdenlive:original.meta.media.0.codec.pix_fmt">yuv420p</property>
  <property name="kdenlive:original.meta.media.0.codec.sample_aspect_ratio">1</property>
  <property name="kdenlive:original.meta.media.0.codec.colorspace">709</property>
  <property name="kdenlive:original.meta.media.0.codec.color_trc">1</property>
  <property name="kdenlive:original.meta.media.0.codec.name">h264</property>
  <property name="kdenlive:original.meta.media.0.codec.long_name">H.264 / AVC / MPEG-4 AVC / MPEG-4 part 10</property>
  <property name="kdenlive:original.meta.media.0.codec.bit_rate">14730567</property>
  <property name="kdenlive:original.meta.attr.0.stream.handler_name.markup">VideoHandler</property>
  <property name="kdenlive:original.meta.media.1.stream.type">audio</property>
  <property name="kdenlive:original.meta.media.1.codec.sample_fmt">fltp</property>
  <property name="kdenlive:original.meta.media.1.codec.sample_rate">48000</property>
  <property name="kdenlive:original.meta.media.1.codec.channels">2</property>
  <property name="kdenlive:original.meta.media.1.codec.name">aac</property>
  <property name="kdenlive:original.meta.media.1.codec.long_name">AAC (Advanced Audio Coding)</property>
  <property name="kdenlive:original.meta.media.1.codec.bit_rate">2276</property>
  <property name="kdenlive:original.meta.attr.1.stream.handler_name.markup">SoundHandler</property>
  <property name="kdenlive:original.meta.attr.major_brand.markup">isom</property>
  <property name="kdenlive:original.meta.attr.minor_version.markup">512</property>
  <property name="kdenlive:original.meta.attr.compatible_brands.markup">isomiso2avc1mp41</property>
  <property name="kdenlive:original.meta.attr.encoder.markup">Lavf58.45.100</property>
  <property name="kdenlive:original.seekable">1</property>
  <property name="kdenlive:original.width">1920</property>
  <property name="kdenlive:original.height">1080</property>
  <property name="kdenlive:original.meta.media.sample_aspect_num">1</property>
  <property name="kdenlive:original.meta.media.sample_aspect_den">1</property>
  <property name="kdenlive:original.aspect_ratio">1</property>
  <property name="kdenlive:original.audio_index">1</property>
  <property name="kdenlive:original.video_index">0</property>
  <property name="kdenlive:original.mute_on_pause">0</property>
  <property name="kdenlive:original.mlt_service">avformat-novalidate</property>
  <property name="kdenlive:original.kdenlive:folderid">34</property>
  <property name="kdenlive:original.meta.media.frame_rate_num">30</property>
  <property name="kdenlive:original.meta.media.frame_rate_den">1</property>
  <property name="kdenlive:original.meta.media.colorspace">709</property>
  <property name="kdenlive:original.meta.media.color_trc">1</property>
  <property name="kdenlive:original.meta.media.width">1920</property>
  <property name="kdenlive:original.meta.media.height">1080</property>
  <property name="kdenlive:original.meta.media.color_range">mpeg</property>
  <property name="kdenlive:original.kdenlive:id">52</property>
  <property name="kdenlive:original.kdenlive:file_size">134574168</property>
  <property name="kdenlive:original.kdenlive:file_hash">8c962e8f224ca1462712ef210364f729</property>
  <property name="kdenlive:original.backup">1</property>
  <property name="kdenlive:audio_max">91</property>
  <property name="global_feed">1</property>
  <property name="kdenlive:active_streams">-1</property>
  <property name="xml">was here</property>
  <property name="meta.media.nb_streams">2</property>
  <property name="meta.media.0.stream.type">video</property>
  <property name="meta.media.0.stream.frame_rate">30</property>
  <property name="meta.media.0.stream.sample_aspect_ratio">1</property>
  <property name="meta.media.0.codec.width">640</property>
  <property name="meta.media.0.codec.height">360</property>
  <property name="meta.media.0.codec.rotate">0</property>
  <property name="meta.media.0.codec.frame_rate">1000</property>
  <property name="meta.media.0.codec.pix_fmt">yuvj420p</property>
  <property name="meta.media.0.codec.sample_aspect_ratio">1</property>
  <property name="meta.media.0.codec.colorspace">601</property>
  <property name="meta.media.0.codec.name">mjpeg</property>
  <property name="meta.media.0.codec.long_name">MJPEG (Motion JPEG)</property>
  <property name="meta.media.0.codec.bit_rate">0</property>
  <property name="meta.attr.0.stream.HANDLER_NAME.markup">VideoHandler</property>
  <property name="meta.attr.0.stream.ENCODER.markup">Lavc58.91.100 mjpeg</property>
  <property name="meta.attr.0.stream.DURATION.markup">00:01:13.033000000</property>
  <property name="meta.media.1.stream.type">audio</property>
  <property name="meta.media.1.codec.sample_fmt">s16</property>
  <property name="meta.media.1.codec.sample_rate">48000</property>
  <property name="meta.media.1.codec.channels">2</property>
  <property name="meta.media.1.codec.name">pcm_s16le</property>
  <property name="meta.media.1.codec.long_name">PCM signed 16-bit little-endian</property>
  <property name="meta.media.1.codec.bit_rate">1536000</property>
  <property name="meta.attr.1.stream.HANDLER_NAME.markup">SoundHandler</property>
  <property name="meta.attr.1.stream.ENCODER.markup">Lavc58.91.100 pcm_s16le</property>
  <property name="meta.attr.1.stream.DURATION.markup">00:01:13.045000000</property>
  <property name="meta.attr.COMPATIBLE_BRANDS.markup">isomiso2avc1mp41</property>
  <property name="meta.attr.MAJOR_BRAND.markup">isom</property>
  <property name="meta.attr.MINOR_VERSION.markup">512</property>
  <property name="meta.attr.ENCODER.markup">Lavf58.45.100</property>
  <property name="meta.media.sample_aspect_num">1</property>
  <property name="meta.media.sample_aspect_den">1</property>
  <property name="meta.media.frame_rate_num">30</property>
  <property name="meta.media.frame_rate_den">1</property>
  <property name="meta.media.colorspace">601</property>
  <property name="meta.media.color_trc">2</property>
  <property name="meta.media.width">640</property>
  <property name="meta.media.height">360</property>
  <property name="meta.media.color_range">full</property>
  <property name="meta.media.top_field_first">0</property>
  <property name="meta.media.progressive">1</property>
  <property name="set.test_audio">1</property>
  <property name="set.test_image">0</property>
 </producer>
 <producer id="producer132" in="00:00:00.000" out="00:01:13.000">
  <property name="length">2191</property>
  <property name="eof">pause</property>
  <property name="resource">content/hot_bod_112000_8fdeacb7_synth_trip.mp4</property>
  <property name="audio_index">1</property>
  <property name="video_index">0</property>
  <property name="mute_on_pause">0</property>
  <property name="mlt_service">avformat-novalidate</property>
  <property name="seekable">1</property>
  <property name="aspect_ratio">1</property>
  <property name="kdenlive:clipname"/>
  <property name="kdenlive:folderid">34</property>
  <property name="kdenlive:id">45</property>
  <property name="kdenlive:file_size">36043540</property>
  <property name="kdenlive:file_hash">01a6227e49a38ad9a87bf327daf078e6</property>
  <property name="kdenlive:audio_max">5</property>
  <property name="global_feed">1</property>
  <property name="xml">was here</property>
  <property name="meta.media.nb_streams">2</property>
  <property name="meta.media.0.stream.type">video</property>
  <property name="meta.media.0.stream.frame_rate">30</property>
  <property name="meta.media.0.stream.sample_aspect_ratio">0</property>
  <property name="meta.media.0.codec.width">896</property>
  <property name="meta.media.0.codec.height">512</property>
  <property name="meta.media.0.codec.rotate">0</property>
  <property name="meta.media.0.codec.frame_rate">30</property>
  <property name="meta.media.0.codec.pix_fmt">yuv420p</property>
  <property name="meta.media.0.codec.sample_aspect_ratio">0</property>
  <property name="meta.media.0.codec.colorspace">601</property>
  <property name="meta.media.0.codec.name">h264</property>
  <property name="meta.media.0.codec.long_name">H.264 / AVC / MPEG-4 AVC / MPEG-4 part 10</property>
  <property name="meta.media.0.codec.bit_rate">3613432</property>
  <property name="meta.attr.0.stream.handler_name.markup">VideoHandler</property>
  <property name="meta.media.1.stream.type">audio</property>
  <property name="meta.media.1.codec.sample_fmt">fltp</property>
  <property name="meta.media.1.codec.sample_rate">48000</property>
  <property name="meta.media.1.codec.channels">2</property>
  <property name="meta.media.1.codec.name">aac</property>
  <property name="meta.media.1.codec.long_name">AAC (Advanced Audio Coding)</property>
  <property name="meta.media.1.codec.bit_rate">328237</property>
  <property name="meta.attr.1.stream.handler_name.markup">SoundHandler</property>
  <property name="meta.attr.major_brand.markup">isom</property>
  <property name="meta.attr.minor_version.markup">512</property>
  <property name="meta.attr.compatible_brands.markup">isomiso2avc1mp41</property>
  <property name="meta.attr.encoder.markup">Lavf58.29.100</property>
  <property name="meta.media.sample_aspect_num">1</property>
  <property name="meta.media.sample_aspect_den">1</property>
  <property name="meta.media.frame_rate_num">30</property>
  <property name="meta.media.frame_rate_den">1</property>
  <property name="meta.media.colorspace">601</property>
  <property name="meta.media.color_trc">2</property>
  <property name="meta.media.width">896</property>
  <property name="meta.media.height">512</property>
  <property name="meta.media.color_range">mpeg</property>
  <property name="meta.media.top_field_first">0</property>
  <property name="meta.media.progressive">1</property>
  <property name="set.test_audio">1</property>
  <property name="set.test_image">0</property>
 </producer>
 <producer id="producer133" in="00:00:00.000" out="00:01:13.000">
  <property name="length">2191</property>
  <property name="eof">pause</property>
  <property name="resource">content/hot_bod_132000_e3d1a1d9_drum_trip.mp4</property>
  <property name="audio_index">1</property>
  <property name="video_index">0</property>
  <property name="mute_on_pause">0</property>
  <property name="mlt_service">avformat-novalidate</property>
  <property name="seekable">1</property>
  <property name="aspect_ratio">1</property>
  <property name="kdenlive:clipname"/>
  <property name="kdenlive:folderid">34</property>
  <property name="kdenlive:id">44</property>
  <property name="kdenlive:file_size">36280029</property>
  <property name="kdenlive:file_hash">88bfd6c9be010ca9189da24c28ab1e8f</property>
  <property name="kdenlive:audio_max">5</property>
  <property name="global_feed">1</property>
  <property name="xml">was here</property>
  <property name="meta.media.nb_streams">2</property>
  <property name="meta.media.0.stream.type">video</property>
  <property name="meta.media.0.stream.frame_rate">30</property>
  <property name="meta.media.0.stream.sample_aspect_ratio">0</property>
  <property name="meta.media.0.codec.width">896</property>
  <property name="meta.media.0.codec.height">512</property>
  <property name="meta.media.0.codec.rotate">0</property>
  <property name="meta.media.0.codec.frame_rate">30</property>
  <property name="meta.media.0.codec.pix_fmt">yuv420p</property>
  <property name="meta.media.0.codec.sample_aspect_ratio">0</property>
  <property name="meta.media.0.codec.colorspace">601</property>
  <property name="meta.media.0.codec.name">h264</property>
  <property name="meta.media.0.codec.long_name">H.264 / AVC / MPEG-4 AVC / MPEG-4 part 10</property>
  <property name="meta.media.0.codec.bit_rate">3639395</property>
  <property name="meta.attr.0.stream.handler_name.markup">VideoHandler</property>
  <property name="meta.media.1.stream.type">audio</property>
  <property name="meta.media.1.codec.sample_fmt">fltp</property>
  <property name="meta.media.1.codec.sample_rate">48000</property>
  <property name="meta.media.1.codec.channels">2</property>
  <property name="meta.media.1.codec.name">aac</property>
  <property name="meta.media.1.codec.long_name">AAC (Advanced Audio Coding)</property>
  <property name="meta.media.1.codec.bit_rate">328237</property>
  <property name="meta.attr.1.stream.handler_name.markup">SoundHandler</property>
  <property name="meta.attr.major_brand.markup">isom</property>
  <property name="meta.attr.minor_version.markup">512</property>
  <property name="meta.attr.compatible_brands.markup">isomiso2avc1mp41</property>
  <property name="meta.attr.encoder.markup">Lavf58.29.100</property>
  <property name="meta.media.sample_aspect_num">1</property>
  <property name="meta.media.sample_aspect_den">1</property>
  <property name="meta.media.frame_rate_num">30</property>
  <property name="meta.media.frame_rate_den">1</property>
  <property name="meta.media.colorspace">601</property>
  <property name="meta.media.color_trc">2</property>
  <property name="meta.media.width">896</property>
  <property name="meta.media.height">512</property>
  <property name="meta.media.color_range">mpeg</property>
  <property name="meta.media.top_field_first">0</property>
  <property name="meta.media.progressive">1</property>
  <property name="set.test_audio">1</property>
  <property name="set.test_image">0</property>
 </producer>
 <playlist id="playlist12">
  <blank length="00:03:02.000"/>
  <entry producer="producer115" in="00:00:00.000" out="00:01:14.000">
   <property name="kdenlive:id">37</property>
   <filter id="filter108">
    <property name="rotate_center">1</property>
    <property name="mlt_service">qtblend</property>
    <property name="kdenlive_id">qtblend</property>
    <property name="rect">00:00:00.000=0 0 1310 737 1.000000</property>
    <property name="rotation">00:00:00.000=0</property>
    <property name="compositing">0</property>
    <property name="distort">1</property>
    <property name="kdenlive:collapsed">0</property>
   </filter>
  </entry>
  <blank length="00:00:31.967"/>
  <entry producer="producer131" in="00:00:00.000" out="00:00:15.267">
   <property name="kdenlive:id">47</property>
  </entry>
  <entry producer="producer131" in="00:00:15.300" out="00:00:22.167">
   <property name="kdenlive:id">47</property>
   <filter id="filter109">
    <property name="version">0.1</property>
    <property name="mlt_service">frei0r.distort0r</property>
    <property name="kdenlive_id">frei0r.distort0r</property>
    <property name="Amplitude">00:00:15.300=0;00:00:16.033=0.127;00:00:18.800|=0.069712;00:00:19.633=0.021;00:00:20.633=0.041;00:00:20.867=0;00:00:21.033=-0.047;00:00:21.367=-0.087;00:00:22.167=0</property>
    <property name="Frequency">00:00:15.300=0;00:00:16.033=0.025;00:00:18.800|=0.0137228;00:00:19.633=0.213;00:00:20.633=0.344;00:00:20.867=0;00:00:21.033=-0.237;00:00:21.367=0.014;00:00:22.167=0</property>
    <property name="kdenlive:collapsed">0</property>
   </filter>
  </entry>
  <entry producer="producer131" in="00:00:22.200" out="00:00:42.967">
   <property name="kdenlive:id">47</property>
  </entry>
  <entry producer="producer131" in="00:00:43.000" out="00:00:43.200">
   <property name="kdenlive:id">47</property>
   <filter id="filter110">
    <property name="version">0.1</property>
    <property name="mlt_service">frei0r.glitch0r</property>
    <property name="kdenlive_id">frei0r.glitch0r</property>
    <property name="0">00:00:43.000=0.139</property>
    <property name="1">00:00:43.000=0.122</property>
    <property name="2">00:00:43.000=0.104</property>
    <property name="3">00:00:43.000=0.045</property>
    <property name="kdenlive:collapsed">0</property>
   </filter>
  </entry>
  <entry producer="producer131" in="00:00:43.233" out="00:00:44.133">
   <property name="kdenlive:id">47</property>
  </entry>
  <entry producer="producer131" in="00:00:44.167" out="00:00:44.767">
   <property name="kdenlive:id">47</property>
   <filter id="filter111">
    <property name="version">0.1</property>
    <property name="mlt_service">frei0r.glitch0r</property>
    <property name="kdenlive_id">frei0r.glitch0r</property>
    <property name="0">00:00:44.167=0.115</property>
    <property name="1">00:00:44.167=0.426</property>
    <property name="2">00:00:44.167=0.042</property>
    <property name="3">00:00:44.167=0.06</property>
    <property name="kdenlive:collapsed">0</property>
   </filter>
  </entry>
  <entry producer="producer131" in="00:00:44.800" out="00:00:48.633">
   <property name="kdenlive:id">47</property>
   <filter id="filter112">
    <property name="version">0.1</property>
    <property name="mlt_service">frei0r.distort0r</property>
    <property name="kdenlive_id">frei0r.distort0r</property>
    <property name="Amplitude">00:00:44.800=0;00:00:45.067=0;00:00:45.333=0.137;00:00:48.633|=0</property>
    <property name="Frequency">00:00:44.800=0;00:00:45.067=0;00:00:45.333=0.043;00:00:48.633|=0</property>
    <property name="kdenlive:collapsed">0</property>
   </filter>
   <filter id="filter113">
    <property name="version">0.1</property>
    <property name="mlt_service">frei0r.glitch0r</property>
    <property name="kdenlive_id">frei0r.glitch0r</property>
    <property name="0">00:00:44.800=0;00:00:45.733=0;00:00:45.800|=0.128;00:00:46.700|=0.225;00:00:47.700|=0;00:00:48.633|=0</property>
    <property name="1">00:00:44.800=0.49913;00:00:45.733=0.49913;00:00:45.800|=0.309;00:00:46.700|=0.309;00:00:47.700|=0.309;00:00:48.633|=0.49913</property>
    <property name="2">00:00:44.800=0.499305;00:00:45.733=0.499305;00:00:45.800|=0.088;00:00:46.700|=0.088;00:00:47.700|=0.088;00:00:48.633|=0.499305</property>
    <property name="3">00:00:44.800=0;00:00:45.733=0;00:00:45.800|=0.12;00:00:46.700|=0.12;00:00:47.700|=0.12;00:00:48.633|=0</property>
    <property name="kdenlive:collapsed">0</property>
   </filter>
  </entry>
  <entry producer="producer131" in="00:00:48.667" out="00:01:08.067">
   <property name="kdenlive:id">47</property>
  </entry>
  <entry producer="producer131" in="00:01:08.100" out="00:01:11.033">
   <property name="kdenlive:id">47</property>
   <filter id="filter114">
    <property name="version">0.1</property>
    <property name="mlt_service">frei0r.distort0r</property>
    <property name="kdenlive_id">frei0r.distort0r</property>
    <property name="Amplitude">00:01:08.100=0.01;00:01:08.767=0.04;00:01:08.967=0.02;00:01:09.267=0.035;00:01:09.800=0</property>
    <property name="Frequency">00:01:08.100=0.3;00:01:08.767=0.4;00:01:08.967=0.40024;00:01:09.267=0.514;00:01:09.800=0.401</property>
    <property name="kdenlive:collapsed">0</property>
   </filter>
  </entry>
  <entry producer="producer131" in="00:01:11.067" out="00:01:13.033">
   <property name="kdenlive:id">47</property>
   <filter id="filter115" in="00:01:11.367" out="00:01:13.033">
    <property name="start">1</property>
    <property name="mlt_service">brightness</property>
    <property name="kdenlive_id">fade_to_black</property>
    <property name="end">0</property>
    <property name="alpha">-1</property>
    <property name="kdenlive:collapsed">0</property>
   </filter>
   <filter id="filter116">
    <property name="rotate_center">1</property>
    <property name="mlt_service">qtblend</property>
    <property name="kdenlive_id">qtblend</property>
    <property name="rect">00:01:11.067=-192 -108 2304 1296 1.000000;00:01:13.033=-1920 -1080 5760 3240 1.000000</property>
    <property name="rotation">00:01:11.067=0;00:01:13.033=0</property>
    <property name="compositing">0</property>
    <property name="distort">0</property>
    <property name="kdenlive:collapsed">0</property>
   </filter>
  </entry>
  <entry producer="producer105" in="00:00:00.000" out="00:00:11.833">
   <property name="kdenlive:id">51</property>
   <property name="kdenlive:activeeffect">0</property>
   <filter id="filter25">
    <property name="rotate_center">1</property>
    <property name="mlt_service">qtblend</property>
    <property name="kdenlive_id">qtblend</property>
    <property name="rect">00:00:00.000=768 432 384 216 0.000000;00:00:02.333=768 432 384 216 0.000000;00:00:02.867~=0 0 1920 1080 1.000000;00:00:03.033~=48 27 1824 1026 1.000000;00:00:04.167~=48 27 1824 1026 1.000000;00:00:04.967~=48 27 1824 1026 0.600000;00:00:06.767~=48 27 1824 1026 0.600000;00:00:07.400~=0 0 1920 1080 0.800000;00:00:08.067~=-576 -324 3072 1728 1.000000;00:00:08.267~=-480 -270 2880 1620 1.000000;00:00:09.967~=-432 -243 2784 1566 1.000000;00:00:10.533~=-944 -531 3808 2142 1.000000;00:00:11.833~=-2400 -1350 6720 3780 0.000000</property>
    <property name="rotation">00:00:00.000=0;00:00:02.333=0;00:00:02.867~=0;00:00:03.033~=0;00:00:04.167~=0;00:00:04.967~=0;00:00:06.767~=0;00:00:07.400~=0;00:00:08.067~=0;00:00:08.267~=0;00:00:09.967~=0;00:00:10.533~=11.7919;00:00:11.833~=45</property>
    <property name="compositing">0</property>
    <property name="distort">0</property>
    <property name="kdenlive:collapsed">0</property>
   </filter>
  </entry>
  <blank length="00:02:53.267"/>
  <entry producer="producer16" in="00:00:00.000" out="00:00:04.967">
   <property name="kdenlive:id">18</property>
   <filter id="filter118" in="00:00:01.633" out="00:00:04.967">
    <property name="start">1</property>
    <property name="mlt_service">brightness</property>
    <property name="kdenlive_id">fade_to_black</property>
    <property name="end">0</property>
    <property name="alpha">-1</property>
    <property name="kdenlive:collapsed">0</property>
   </filter>
  </entry>
  <blank length="00:00:02.267"/>
  <entry producer="producer15" in="00:00:00.000" out="00:00:04.967">
   <property name="kdenlive:id">15</property>
   <filter id="filter119" in="00:00:01.767" out="00:00:04.967">
    <property name="start">1</property>
    <property name="mlt_service">brightness</property>
    <property name="kdenlive_id">fade_to_black</property>
    <property name="end">0</property>
    <property name="alpha">-1</property>
   </filter>
  </entry>
  <blank length="00:00:02.467"/>
  <entry producer="producer13" in="00:00:00.000" out="00:00:04.967">
   <property name="kdenlive:id">14</property>
   <filter id="filter120" in="00:00:01.567" out="00:00:04.967">
    <property name="start">1</property>
    <property name="mlt_service">brightness</property>
    <property name="kdenlive_id">fade_to_black</property>
    <property name="end">0</property>
    <property name="alpha">-1</property>
   </filter>
  </entry>
  <blank length="00:00:14.967"/>
  <entry producer="producer14" in="00:00:00.000" out="00:00:04.967">
   <property name="kdenlive:id">16</property>
   <filter id="filter121" in="00:00:01.400" out="00:00:04.967">
    <property name="start">1</property>
    <property name="mlt_service">brightness</property>
    <property name="kdenlive_id">fade_to_black</property>
    <property name="end">0</property>
    <property name="alpha">-1</property>
   </filter>
  </entry>
  <blank length="00:00:40.600"/>
  <entry producer="producer12" in="00:00:00.000" out="00:00:04.967">
   <property name="kdenlive:id">17</property>
   <filter id="filter122" in="00:00:01.833" out="00:00:04.967">
    <property name="start">1</property>
    <property name="mlt_service">brightness</property>
    <property name="kdenlive_id">fade_to_black</property>
    <property name="end">0</property>
    <property name="alpha">-1</property>
   </filter>
  </entry>
  <blank length="00:07:28.500"/>
  <entry producer="producer132" in="00:00:00.000" out="00:01:13.000">
   <property name="kdenlive:id">45</property>
   <property name="kdenlive:activeeffect">1</property>
   <filter id="filter123">
    <property name="rotate_center">1</property>
    <property name="mlt_service">qtblend</property>
    <property name="kdenlive_id">qtblend</property>
    <property name="rect">00:00:00.000=1163 28 896 512 1.000000</property>
    <property name="rotation">00:00:00.000=0</property>
    <property name="compositing">0</property>
    <property name="distort">1</property>
    <property name="kdenlive:collapsed">0</property>
   </filter>
   <filter id="filter124">
    <property name="mlt_service">avfilter.vflip</property>
    <property name="kdenlive_id">avfilter.vflip</property>
    <property name="kdenlive:collapsed">0</property>
   </filter>
  </entry>
  <blank length="00:00:20.300"/>
  <entry producer="producer133" in="00:00:00.000" out="00:01:13.000">
   <property name="kdenlive:id">44</property>
   <filter id="filter125">
    <property name="version">0.1</property>
    <property name="mlt_service">frei0r.alphaspot</property>
    <property name="kdenlive_id">frei0r.alphaspot</property>
    <property name="Shape">0</property>
    <property name="Position X">00:00:00.000=0.5</property>
    <property name="Position Y">00:00:00.000=0.5</property>
    <property name="Size X">00:00:00.000=0.168</property>
    <property name="Size Y">00:00:00.000=1</property>
    <property name="Tilt">00:00:00.000=0.5</property>
    <property name="Transition width">00:00:00.000=0</property>
    <property name="Min">00:00:00.000=0</property>
    <property name="Max">00:00:00.000=1</property>
    <property name="Operation">0</property>
   </filter>
   <filter id="filter126">
    <property name="rotate_center">1</property>
    <property name="mlt_service">qtblend</property>
    <property name="kdenlive_id">qtblend</property>
    <property name="rect">00:00:00.000=0 0 1920 1080 1</property>
    <property name="rotation">00:00:00.000=0</property>
    <property name="compositing">0</property>
    <property name="distort">1</property>
   </filter>
  </entry>
 </playlist>
 <playlist id="playlist13"/>
 <tractor id="tractor6" in="00:00:00.000" out="00:20:46.333">
  <property name="kdenlive:trackheight">69</property>
  <property name="kdenlive:timeline_active">1</property>
  <property name="kdenlive:collapsed">28</property>
  <property name="kdenlive:thumbs_format"/>
  <property name="kdenlive:audio_rec"/>
  <property name="kdenlive:locked_track"/>
  <track hide="audio" producer="playlist12"/>
  <track producer="playlist13"/>
 </tractor>
 <producer id="producer134" in="00:00:00.000" out="00:00:31.000">
  <property name="length">931</property>
  <property name="eof">pause</property>
  <property name="resource">content/hot_bod_112000_3c4edbf5_bass_solo_synth.mp4</property>
  <property name="audio_index">1</property>
  <property name="video_index">0</property>
  <property name="mute_on_pause">0</property>
  <property name="mlt_service">avformat-novalidate</property>
  <property name="seekable">1</property>
  <property name="aspect_ratio">1</property>
  <property name="kdenlive:clipname"/>
  <property name="kdenlive:folderid">34</property>
  <property name="kdenlive:id">40</property>
  <property name="kdenlive:file_size">12106357</property>
  <property name="kdenlive:file_hash">50318244383a94b0e23f223a98601bbc</property>
  <property name="kdenlive:audio_max">4</property>
  <property name="global_feed">1</property>
  <property name="xml">was here</property>
  <property name="meta.media.nb_streams">2</property>
  <property name="meta.media.0.stream.type">video</property>
  <property name="meta.media.0.stream.frame_rate">30</property>
  <property name="meta.media.0.stream.sample_aspect_ratio">0</property>
  <property name="meta.media.0.codec.width">896</property>
  <property name="meta.media.0.codec.height">512</property>
  <property name="meta.media.0.codec.rotate">0</property>
  <property name="meta.media.0.codec.frame_rate">30</property>
  <property name="meta.media.0.codec.pix_fmt">yuv420p</property>
  <property name="meta.media.0.codec.sample_aspect_ratio">0</property>
  <property name="meta.media.0.codec.colorspace">601</property>
  <property name="meta.media.0.codec.name">h264</property>
  <property name="meta.media.0.codec.long_name">H.264 / AVC / MPEG-4 AVC / MPEG-4 part 10</property>
  <property name="meta.media.0.codec.bit_rate">2780571</property>
  <property name="meta.attr.0.stream.handler_name.markup">VideoHandler</property>
  <property name="meta.media.1.stream.type">audio</property>
  <property name="meta.media.1.codec.sample_fmt">fltp</property>
  <property name="meta.media.1.codec.sample_rate">48000</property>
  <property name="meta.media.1.codec.channels">2</property>
  <property name="meta.media.1.codec.name">aac</property>
  <property name="meta.media.1.codec.long_name">AAC (Advanced Audio Coding)</property>
  <property name="meta.media.1.codec.bit_rate">334809</property>
  <property name="meta.attr.1.stream.handler_name.markup">SoundHandler</property>
  <property name="meta.attr.major_brand.markup">isom</property>
  <property name="meta.attr.minor_version.markup">512</property>
  <property name="meta.attr.compatible_brands.markup">isomiso2avc1mp41</property>
  <property name="meta.attr.encoder.markup">Lavf58.29.100</property>
  <property name="meta.media.sample_aspect_num">1</property>
  <property name="meta.media.sample_aspect_den">1</property>
  <property name="meta.media.frame_rate_num">30</property>
  <property name="meta.media.frame_rate_den">1</property>
  <property name="meta.media.colorspace">601</property>
  <property name="meta.media.color_trc">2</property>
  <property name="meta.media.width">896</property>
  <property name="meta.media.height">512</property>
  <property name="meta.media.color_range">mpeg</property>
  <property name="meta.media.top_field_first">0</property>
  <property name="meta.media.progressive">1</property>
  <property name="set.test_audio">1</property>
  <property name="set.test_image">0</property>
 </producer>
 <producer id="producer135" in="00:00:00.000" out="00:01:14.000">
  <property name="length">2222</property>
  <property name="eof">pause</property>
  <property name="resource">/home/ryankelln/.cache/kdenlive/proxy/1f7b4775cbd33b10f9ca73a2148fe2db.mkv</property>
  <property name="audio_index">1</property>
  <property name="video_index">0</property>
  <property name="mute_on_pause">0</property>
  <property name="mlt_service">avformat-novalidate</property>
  <property name="seekable">1</property>
  <property name="aspect_ratio">1</property>
  <property name="kdenlive:clipname">synth_solo_background_mirror_1.mp4</property>
  <property name="kdenlive:folderid">34</property>
  <property name="kdenlive:id">41</property>
  <property name="kdenlive:file_size">129146049</property>
  <property name="kdenlive:file_hash">1f7b4775cbd33b10f9ca73a2148fe2db</property>
  <property name="kdenlive:proxy">/home/ryankelln/.cache/kdenlive/proxy/1f7b4775cbd33b10f9ca73a2148fe2db.mkv</property>
  <property name="kdenlive:originalurl">content/synth_solo_background_mirror_1.mp4</property>
  <property name="kdenlive:original.mlt_type">producer</property>
  <property name="kdenlive:original.in">0</property>
  <property name="kdenlive:original.out">2221</property>
  <property name="kdenlive:original.length">2222</property>
  <property name="kdenlive:original.eof">pause</property>
  <property name="kdenlive:original.resource">content/synth_solo_background_mirror_1.mp4</property>
  <property name="kdenlive:original.meta.media.nb_streams">2</property>
  <property name="kdenlive:original.meta.media.0.stream.type">video</property>
  <property name="kdenlive:original.meta.media.0.stream.frame_rate">30</property>
  <property name="kdenlive:original.meta.media.0.stream.sample_aspect_ratio">1</property>
  <property name="kdenlive:original.meta.media.0.codec.width">1920</property>
  <property name="kdenlive:original.meta.media.0.codec.height">1080</property>
  <property name="kdenlive:original.meta.media.0.codec.rotate">0</property>
  <property name="kdenlive:original.meta.media.0.codec.frame_rate">30</property>
  <property name="kdenlive:original.meta.media.0.codec.pix_fmt">yuv420p</property>
  <property name="kdenlive:original.meta.media.0.codec.sample_aspect_ratio">1</property>
  <property name="kdenlive:original.meta.media.0.codec.colorspace">709</property>
  <property name="kdenlive:original.meta.media.0.codec.color_trc">1</property>
  <property name="kdenlive:original.meta.media.0.codec.name">h264</property>
  <property name="kdenlive:original.meta.media.0.codec.long_name">H.264 / AVC / MPEG-4 AVC / MPEG-4 part 10</property>
  <property name="kdenlive:original.meta.media.0.codec.bit_rate">13753251</property>
  <property name="kdenlive:original.meta.attr.0.stream.handler_name.markup">VideoHandler</property>
  <property name="kdenlive:original.meta.media.1.stream.type">audio</property>
  <property name="kdenlive:original.meta.media.1.codec.sample_fmt">fltp</property>
  <property name="kdenlive:original.meta.media.1.codec.sample_rate">48000</property>
  <property name="kdenlive:original.meta.media.1.codec.channels">2</property>
  <property name="kdenlive:original.meta.media.1.codec.name">aac</property>
  <property name="kdenlive:original.meta.media.1.codec.long_name">AAC (Advanced Audio Coding)</property>
  <property name="kdenlive:original.meta.media.1.codec.bit_rate">193744</property>
  <property name="kdenlive:original.meta.attr.1.stream.handler_name.markup">SoundHandler</property>
  <property name="kdenlive:original.meta.attr.major_brand.markup">isom</property>
  <property name="kdenlive:original.meta.attr.minor_version.markup">512</property>
  <property name="kdenlive:original.meta.attr.compatible_brands.markup">isomiso2avc1mp41</property>
  <property name="kdenlive:original.meta.attr.encoder.markup">Lavf58.45.100</property>
  <property name="kdenlive:original.seekable">1</property>
  <property name="kdenlive:original.width">1920</property>
  <property name="kdenlive:original.height">1080</property>
  <property name="kdenlive:original.meta.media.sample_aspect_num">1</property>
  <property name="kdenlive:original.meta.media.sample_aspect_den">1</property>
  <property name="kdenlive:original.aspect_ratio">1</property>
  <property name="kdenlive:original.audio_index">1</property>
  <property name="kdenlive:original.video_index">0</property>
  <property name="kdenlive:original.mute_on_pause">0</property>
  <property name="kdenlive:original.mlt_service">avformat-novalidate</property>
  <property name="kdenlive:original.kdenlive:folderid">34</property>
  <property name="kdenlive:original.meta.media.frame_rate_num">30</property>
  <property name="kdenlive:original.meta.media.frame_rate_den">1</property>
  <property name="kdenlive:original.meta.media.colorspace">709</property>
  <property name="kdenlive:original.meta.media.color_trc">1</property>
  <property name="kdenlive:original.meta.media.width">1920</property>
  <property name="kdenlive:original.meta.media.height">1080</property>
  <property name="kdenlive:original.meta.media.color_range">mpeg</property>
  <property name="kdenlive:original.kdenlive:id">45</property>
  <property name="kdenlive:original.kdenlive:file_size">129146049</property>
  <property name="kdenlive:original.kdenlive:file_hash">1f7b4775cbd33b10f9ca73a2148fe2db</property>
  <property name="kdenlive:original.backup">1</property>
  <property name="kdenlive:audio_max">2</property>
  <property name="global_feed">1</property>
  <property name="xml">was here</property>
  <property name="meta.media.nb_streams">2</property>
  <property name="meta.media.0.stream.type">video</property>
  <property name="meta.media.0.stream.frame_rate">30</property>
  <property name="meta.media.0.stream.sample_aspect_ratio">1</property>
  <property name="meta.media.0.codec.width">640</property>
  <property name="meta.media.0.codec.height">360</property>
  <property name="meta.media.0.codec.rotate">0</property>
  <property name="meta.media.0.codec.frame_rate">1000</property>
  <property name="meta.media.0.codec.pix_fmt">yuvj420p</property>
  <property name="meta.media.0.codec.sample_aspect_ratio">1</property>
  <property name="meta.media.0.codec.colorspace">601</property>
  <property name="meta.media.0.codec.name">mjpeg</property>
  <property name="meta.media.0.codec.long_name">MJPEG (Motion JPEG)</property>
  <property name="meta.media.0.codec.bit_rate">0</property>
  <property name="meta.attr.0.stream.HANDLER_NAME.markup">VideoHandler</property>
  <property name="meta.attr.0.stream.ENCODER.markup">Lavc58.91.100 mjpeg</property>
  <property name="meta.attr.0.stream.DURATION.markup">00:01:14.033000000</property>
  <property name="meta.media.1.stream.type">audio</property>
  <property name="meta.media.1.codec.sample_fmt">s16</property>
  <property name="meta.media.1.codec.sample_rate">48000</property>
  <property name="meta.media.1.codec.channels">2</property>
  <property name="meta.media.1.codec.name">pcm_s16le</property>
  <property name="meta.media.1.codec.long_name">PCM signed 16-bit little-endian</property>
  <property name="meta.media.1.codec.bit_rate">1536000</property>
  <property name="meta.attr.1.stream.HANDLER_NAME.markup">SoundHandler</property>
  <property name="meta.attr.1.stream.ENCODER.markup">Lavc58.91.100 pcm_s16le</property>
  <property name="meta.attr.1.stream.DURATION.markup">00:01:14.048000000</property>
  <property name="meta.attr.COMPATIBLE_BRANDS.markup">isomiso2avc1mp41</property>
  <property name="meta.attr.MAJOR_BRAND.markup">isom</property>
  <property name="meta.attr.MINOR_VERSION.markup">512</property>
  <property name="meta.attr.ENCODER.markup">Lavf58.45.100</property>
  <property name="meta.media.sample_aspect_num">1</property>
  <property name="meta.media.sample_aspect_den">1</property>
  <property name="meta.media.frame_rate_num">30</property>
  <property name="meta.media.frame_rate_den">1</property>
  <property name="meta.media.colorspace">601</property>
  <property name="meta.media.color_trc">2</property>
  <property name="meta.media.width">640</property>
  <property name="meta.media.height">360</property>
  <property name="meta.media.color_range">full</property>
  <property name="meta.media.top_field_first">0</property>
  <property name="meta.media.progressive">1</property>
  <property name="set.test_audio">1</property>
  <property name="set.test_image">0</property>
 </producer>
 <producer id="producer136" in="00:00:00.000" out="00:00:26.000">
  <property name="length">781</property>
  <property name="eof">pause</property>
  <property name="resource">content/hot_bod_132000_91b50e24_start_trip.mp4</property>
  <property name="audio_index">1</property>
  <property name="video_index">0</property>
  <property name="mute_on_pause">0</property>
  <property name="mlt_service">avformat-novalidate</property>
  <property name="seekable">1</property>
  <property name="aspect_ratio">1</property>
  <property name="kdenlive:clipname">hot_bod_132000_91b50e24_start_trip.mp4</property>
  <property name="kdenlive:folderid">34</property>
  <property name="kdenlive:id">43</property>
  <property name="kdenlive:file_size">10182916</property>
  <property name="kdenlive:audio_max">10</property>
  <property name="global_feed">1</property>
  <property name="kdenlive:file_hash">734f80f03da799a358c3354d23a1d9a6</property>
  <property name="xml">was here</property>
  <property name="meta.media.nb_streams">2</property>
  <property name="meta.media.0.stream.type">video</property>
  <property name="meta.media.0.stream.frame_rate">30</property>
  <property name="meta.media.0.stream.sample_aspect_ratio">0</property>
  <property name="meta.media.0.codec.width">896</property>
  <property name="meta.media.0.codec.height">512</property>
  <property name="meta.media.0.codec.rotate">0</property>
  <property name="meta.media.0.codec.frame_rate">30</property>
  <property name="meta.media.0.codec.pix_fmt">yuv420p</property>
  <property name="meta.media.0.codec.sample_aspect_ratio">0</property>
  <property name="meta.media.0.codec.colorspace">601</property>
  <property name="meta.media.0.codec.name">h264</property>
  <property name="meta.media.0.codec.long_name">H.264 / AVC / MPEG-4 AVC / MPEG-4 part 10</property>
  <property name="meta.media.0.codec.bit_rate">2794897</property>
  <property name="meta.attr.0.stream.handler_name.markup">VideoHandler</property>
  <property name="meta.media.1.stream.type">audio</property>
  <property name="meta.media.1.codec.sample_fmt">fltp</property>
  <property name="meta.media.1.codec.sample_rate">48000</property>
  <property name="meta.media.1.codec.channels">2</property>
  <property name="meta.media.1.codec.name">aac</property>
  <property name="meta.media.1.codec.long_name">AAC (Advanced Audio Coding)</property>
  <property name="meta.media.1.codec.bit_rate">329261</property>
  <property name="meta.attr.1.stream.handler_name.markup">SoundHandler</property>
  <property name="meta.attr.major_brand.markup">isom</property>
  <property name="meta.attr.minor_version.markup">512</property>
  <property name="meta.attr.compatible_brands.markup">isomiso2avc1mp41</property>
  <property name="meta.attr.encoder.markup">Lavf58.29.100</property>
  <property name="meta.media.sample_aspect_num">1</property>
  <property name="meta.media.sample_aspect_den">1</property>
  <property name="meta.media.frame_rate_num">30</property>
  <property name="meta.media.frame_rate_den">1</property>
  <property name="meta.media.colorspace">601</property>
  <property name="meta.media.color_trc">2</property>
  <property name="meta.media.width">896</property>
  <property name="meta.media.height">512</property>
  <property name="meta.media.color_range">mpeg</property>
  <property name="meta.media.top_field_first">0</property>
  <property name="meta.media.progressive">1</property>
  <property name="set.test_audio">1</property>
  <property name="set.test_image">0</property>
 </producer>
 <producer id="producer137" in="00:00:00.000" out="00:01:13.000">
  <property name="length">2191</property>
  <property name="eof">pause</property>
  <property name="resource">content/hot_bod_112000_8fdeacb7_synth_trip.mp4</property>
  <property name="audio_index">1</property>
  <property name="video_index">0</property>
  <property name="mute_on_pause">0</property>
  <property name="mlt_service">avformat-novalidate</property>
  <property name="seekable">1</property>
  <property name="aspect_ratio">1</property>
  <property name="kdenlive:clipname"/>
  <property name="kdenlive:folderid">34</property>
  <property name="kdenlive:id">45</property>
  <property name="kdenlive:file_size">36043540</property>
  <property name="kdenlive:file_hash">01a6227e49a38ad9a87bf327daf078e6</property>
  <property name="kdenlive:audio_max">5</property>
  <property name="global_feed">1</property>
  <property name="xml">was here</property>
  <property name="meta.media.nb_streams">2</property>
  <property name="meta.media.0.stream.type">video</property>
  <property name="meta.media.0.stream.frame_rate">30</property>
  <property name="meta.media.0.stream.sample_aspect_ratio">0</property>
  <property name="meta.media.0.codec.width">896</property>
  <property name="meta.media.0.codec.height">512</property>
  <property name="meta.media.0.codec.rotate">0</property>
  <property name="meta.media.0.codec.frame_rate">30</property>
  <property name="meta.media.0.codec.pix_fmt">yuv420p</property>
  <property name="meta.media.0.codec.sample_aspect_ratio">0</property>
  <property name="meta.media.0.codec.colorspace">601</property>
  <property name="meta.media.0.codec.name">h264</property>
  <property name="meta.media.0.codec.long_name">H.264 / AVC / MPEG-4 AVC / MPEG-4 part 10</property>
  <property name="meta.media.0.codec.bit_rate">3613432</property>
  <property name="meta.attr.0.stream.handler_name.markup">VideoHandler</property>
  <property name="meta.media.1.stream.type">audio</property>
  <property name="meta.media.1.codec.sample_fmt">fltp</property>
  <property name="meta.media.1.codec.sample_rate">48000</property>
  <property name="meta.media.1.codec.channels">2</property>
  <property name="meta.media.1.codec.name">aac</property>
  <property name="meta.media.1.codec.long_name">AAC (Advanced Audio Coding)</property>
  <property name="meta.media.1.codec.bit_rate">328237</property>
  <property name="meta.attr.1.stream.handler_name.markup">SoundHandler</property>
  <property name="meta.attr.major_brand.markup">isom</property>
  <property name="meta.attr.minor_version.markup">512</property>
  <property name="meta.attr.compatible_brands.markup">isomiso2avc1mp41</property>
  <property name="meta.attr.encoder.markup">Lavf58.29.100</property>
  <property name="meta.media.sample_aspect_num">1</property>
  <property name="meta.media.sample_aspect_den">1</property>
  <property name="meta.media.frame_rate_num">30</property>
  <property name="meta.media.frame_rate_den">1</property>
  <property name="meta.media.colorspace">601</property>
  <property name="meta.media.color_trc">2</property>
  <property name="meta.media.width">896</property>
  <property name="meta.media.height">512</property>
  <property name="meta.media.color_range">mpeg</property>
  <property name="meta.media.top_field_first">0</property>
  <property name="meta.media.progressive">1</property>
  <property name="set.test_audio">1</property>
  <property name="set.test_image">0</property>
 </producer>
 <playlist id="playlist14">
  <blank length="00:02:31.500"/>
  <entry producer="producer134" in="00:00:00.533" out="00:00:31.000">
   <property name="kdenlive:id">40</property>
   <property name="kdenlive:activeeffect">1</property>
   <filter id="filter127">
    <property name="version">0.1</property>
    <property name="mlt_service">frei0r.alphaspot</property>
    <property name="kdenlive_id">frei0r.alphaspot</property>
    <property name="Shape">0</property>
    <property name="Position X">00:00:00.533=0.5</property>
    <property name="Position Y">00:00:00.533=0.5</property>
    <property name="Size X">00:00:00.533=0.162</property>
    <property name="Size Y">00:00:00.533=1</property>
    <property name="Tilt">00:00:00.533=0.5</property>
    <property name="Transition width">00:00:00.533=0</property>
    <property name="Min">00:00:00.533=0</property>
    <property name="Max">00:00:00.533=1</property>
    <property name="Operation">0</property>
    <property name="kdenlive:collapsed">0</property>
   </filter>
   <filter id="filter128">
    <property name="rotate_center">1</property>
    <property name="mlt_service">qtblend</property>
    <property name="kdenlive_id">qtblend</property>
    <property name="rect">00:00:00.533=-668 0 1920 1080 1.000000</property>
    <property name="rotation">00:00:00.533=0</property>
    <property name="compositing">0</property>
    <property name="distort">1</property>
    <property name="kdenlive:collapsed">0</property>
   </filter>
  </entry>
  <entry producer="producer135" in="00:00:00.000" out="00:01:14.000">
   <property name="kdenlive:id">41</property>
  </entry>
  <blank length="00:00:07.967"/>
  <entry producer="producer136" in="00:00:00.000" out="00:00:25.367">
   <property name="kdenlive:id">43</property>
   <filter id="filter129">
    <property name="version">0.1</property>
    <property name="mlt_service">frei0r.distort0r</property>
    <property name="kdenlive_id">frei0r.distort0r</property>
    <property name="Amplitude">00:00:00.000=0;00:00:09.367=0;00:00:10.800=0.018;00:00:13.000=0.089;00:00:14.000=0.001;00:00:14.867=0.257;00:00:16.667=0.01;00:00:18.633=0.025;00:00:19.700=0.025;00:00:20.000=0.183;00:00:21.333|=0.032</property>
    <property name="Frequency">00:00:00.000=0;00:00:09.367=0;00:00:10.800=0.045;00:00:13.000=0.122;00:00:14.000=-0.0566071;00:00:14.867=-0.123;00:00:16.667=0.01;00:00:18.633=0.401;00:00:19.700=0.036;00:00:20.000=0.065;00:00:21.333|=0.065</property>
    <property name="kdenlive:collapsed">0</property>
   </filter>
  </entry>
  <blank length="00:13:10.600"/>
  <entry producer="producer137" in="00:00:00.000" out="00:01:13.000">
   <property name="kdenlive:id">45</property>
   <filter id="filter130">
    <property name="rotate_center">1</property>
    <property name="mlt_service">qtblend</property>
    <property name="kdenlive_id">qtblend</property>
    <property name="rect">00:00:00.000=1163 28 896 512 1.000000</property>
    <property name="rotation">00:00:00.000=0</property>
    <property name="compositing">0</property>
    <property name="distort">1</property>
    <property name="kdenlive:collapsed">0</property>
   </filter>
  </entry>
 </playlist>
 <playlist id="playlist15"/>
 <tractor id="tractor7" in="00:00:00.000" out="00:19:13.000">
  <property name="kdenlive:trackheight">69</property>
  <property name="kdenlive:timeline_active">1</property>
  <property name="kdenlive:collapsed">28</property>
  <property name="kdenlive:track_name">sarah-test</property>
  <property name="kdenlive:thumbs_format"/>
  <property name="kdenlive:audio_rec"/>
  <property name="kdenlive:locked_track"/>
  <track hide="audio" producer="playlist14"/>
  <track producer="playlist15"/>
 </tractor>
 <producer id="producer138" in="00:00:00.000" out="00:03:25.633">
  <property name="length">6170</property>
  <property name="eof">pause</property>
  <property name="resource">content/musicians/2021-06-02_Sarah_kit_sarah_00049-take2.mp4</property>
  <property name="audio_index">1</property>
  <property name="video_index">0</property>
  <property name="mute_on_pause">0</property>
  <property name="mlt_service">avformat-novalidate</property>
  <property name="seekable">1</property>
  <property name="aspect_ratio">1.33333</property>
  <property name="kdenlive:clipname"/>
  <property name="kdenlive:folderid">22</property>
  <property name="kdenlive:id">28</property>
  <property name="kdenlive:file_size">178767904</property>
  <property name="kdenlive:file_hash">92796865885541665f8f7a00441c12c2</property>
  <property name="kdenlive:audio_max">1</property>
  <property name="global_feed">1</property>
  <property name="xml">was here</property>
  <property name="meta.media.nb_streams">2</property>
  <property name="meta.media.0.stream.type">video</property>
  <property name="meta.media.0.stream.frame_rate">59.9401</property>
  <property name="meta.media.0.stream.sample_aspect_ratio">1.33333</property>
  <property name="meta.media.0.codec.width">1440</property>
  <property name="meta.media.0.codec.height">1080</property>
  <property name="meta.media.0.codec.rotate">0</property>
  <property name="meta.media.0.codec.frame_rate">29.97</property>
  <property name="meta.media.0.codec.pix_fmt">yuv420p</property>
  <property name="meta.media.0.codec.sample_aspect_ratio">1.33333</property>
  <property name="meta.media.0.codec.colorspace">709</property>
  <property name="meta.media.0.codec.name">h264</property>
  <property name="meta.media.0.codec.long_name">H.264 / AVC / MPEG-4 AVC / MPEG-4 part 10</property>
  <property name="meta.media.0.codec.bit_rate">6688963</property>
  <property name="meta.attr.0.stream.handler_name.markup">VideoHandler</property>
  <property name="meta.media.1.stream.type">audio</property>
  <property name="meta.media.1.codec.sample_fmt">fltp</property>
  <property name="meta.media.1.codec.sample_rate">48000</property>
  <property name="meta.media.1.codec.channels">2</property>
  <property name="meta.media.1.codec.name">ac3</property>
  <property name="meta.media.1.codec.long_name">ATSC A/52A (AC-3)</property>
  <property name="meta.media.1.codec.bit_rate">256000</property>
  <property name="meta.attr.1.stream.handler_name.markup">SoundHandler</property>
  <property name="meta.attr.major_brand.markup">isom</property>
  <property name="meta.attr.minor_version.markup">512</property>
  <property name="meta.attr.compatible_brands.markup">isomiso2avc1mp41</property>
  <property name="meta.attr.encoder.markup">Lavf58.45.100</property>
  <property name="meta.media.sample_aspect_num">4</property>
  <property name="meta.media.sample_aspect_den">3</property>
  <property name="meta.media.frame_rate_num">1109610000</property>
  <property name="meta.media.frame_rate_den">18511993</property>
  <property name="meta.media.colorspace">709</property>
  <property name="meta.media.color_trc">2</property>
  <property name="meta.media.width">1440</property>
  <property name="meta.media.height">1080</property>
  <property name="meta.media.color_range">mpeg</property>
  <property name="meta.media.top_field_first">1</property>
  <property name="meta.media.progressive">0</property>
  <property name="set.test_audio">1</property>
  <property name="set.test_image">0</property>
  <filter id="filter131">
   <property name="version">0.6</property>
   <property name="mlt_service">frei0r.select0r</property>
   <property name="kdenlive_id">frei0r.select0r</property>
   <property name="Color to select">0x3e9159ff</property>
   <property name="Invert selection">1</property>
   <property name="Selection subspace">1</property>
   <property name="Subspace shape">0</property>
   <property name="Edge mode">0.9</property>
   <property name="Delta R / A / Hue">00:00:00.000=0.016</property>
   <property name="Delta G / B / Chroma">00:00:00.000=0.189</property>
   <property name="Delta B / I / I">00:00:00.000=0.385</property>
   <property name="Slope">00:00:00.000=0.149</property>
   <property name="Operation">0.5</property>
  </filter>
 </producer>
 <producer id="producer139" in="00:00:00.000" out="00:04:52.800">
  <property name="length">8785</property>
  <property name="eof">pause</property>
  <property name="resource">content/musicians/2021-06-02_162118_Sarah_kit+handheld_sarah-take3.mp4</property>
  <property name="audio_index">1</property>
  <property name="video_index">0</property>
  <property name="mute_on_pause">0</property>
  <property name="mlt_service">avformat-novalidate</property>
  <property name="seekable">1</property>
  <property name="aspect_ratio">1</property>
  <property name="kdenlive:clipname"/>
  <property name="kdenlive:folderid">22</property>
  <property name="kdenlive:id">24</property>
  <property name="kdenlive:file_size">929894063</property>
  <property name="kdenlive:file_hash">e273f21fe0e5f0a842788ae33423a32a</property>
  <property name="kdenlive:audio_max">4</property>
  <property name="global_feed">1</property>
  <property name="xml">was here</property>
  <property name="meta.media.nb_streams">2</property>
  <property name="meta.media.0.stream.type">video</property>
  <property name="meta.media.0.stream.frame_rate">59.9401</property>
  <property name="meta.media.0.stream.sample_aspect_ratio">1</property>
  <property name="meta.media.0.codec.width">1920</property>
  <property name="meta.media.0.codec.height">1080</property>
  <property name="meta.media.0.codec.rotate">0</property>
  <property name="meta.media.0.codec.frame_rate">59.9401</property>
  <property name="meta.media.0.codec.pix_fmt">yuv420p</property>
  <property name="meta.media.0.codec.sample_aspect_ratio">1</property>
  <property name="meta.media.0.codec.colorspace">709</property>
  <property name="meta.media.0.codec.name">h264</property>
  <property name="meta.media.0.codec.long_name">H.264 / AVC / MPEG-4 AVC / MPEG-4 part 10</property>
  <property name="meta.media.0.codec.bit_rate">24946919</property>
  <property name="meta.attr.0.stream.handler_name.markup">VideoHandler</property>
  <property name="meta.media.1.stream.type">audio</property>
  <property name="meta.media.1.codec.sample_fmt">fltp</property>
  <property name="meta.media.1.codec.sample_rate">48000</property>
  <property name="meta.media.1.codec.channels">6</property>
  <property name="meta.media.1.codec.name">ac3</property>
  <property name="meta.media.1.codec.long_name">ATSC A/52A (AC-3)</property>
  <property name="meta.media.1.codec.bit_rate">448000</property>
  <property name="meta.attr.1.stream.handler_name.markup">SoundHandler</property>
  <property name="meta.attr.major_brand.markup">isom</property>
  <property name="meta.attr.minor_version.markup">512</property>
  <property name="meta.attr.compatible_brands.markup">isomiso2avc1mp41</property>
  <property name="meta.attr.encoder.markup">Lavf58.45.100</property>
  <property name="meta.media.sample_aspect_num">1</property>
  <property name="meta.media.sample_aspect_den">1</property>
  <property name="meta.media.frame_rate_num">1579770000</property>
  <property name="meta.media.frame_rate_den">26355829</property>
  <property name="meta.media.colorspace">709</property>
  <property name="meta.media.color_trc">2</property>
  <property name="meta.media.width">1920</property>
  <property name="meta.media.height">1080</property>
  <property name="meta.media.color_range">mpeg</property>
  <property name="meta.media.top_field_first">0</property>
  <property name="meta.media.progressive">1</property>
  <property name="set.test_audio">1</property>
  <property name="set.test_image">0</property>
 </producer>
 <producer id="producer140" in="00:00:00.000" out="00:01:13.000">
  <property name="length">2191</property>
  <property name="eof">pause</property>
  <property name="resource">content/hot_bod_132000_e3d1a1d9_drum_trip.mp4</property>
  <property name="audio_index">1</property>
  <property name="video_index">0</property>
  <property name="mute_on_pause">0</property>
  <property name="mlt_service">avformat-novalidate</property>
  <property name="seekable">1</property>
  <property name="aspect_ratio">1</property>
  <property name="kdenlive:clipname"/>
  <property name="kdenlive:folderid">34</property>
  <property name="kdenlive:id">44</property>
  <property name="kdenlive:file_size">36280029</property>
  <property name="kdenlive:file_hash">88bfd6c9be010ca9189da24c28ab1e8f</property>
  <property name="kdenlive:audio_max">5</property>
  <property name="global_feed">1</property>
  <property name="xml">was here</property>
  <property name="meta.media.nb_streams">2</property>
  <property name="meta.media.0.stream.type">video</property>
  <property name="meta.media.0.stream.frame_rate">30</property>
  <property name="meta.media.0.stream.sample_aspect_ratio">0</property>
  <property name="meta.media.0.codec.width">896</property>
  <property name="meta.media.0.codec.height">512</property>
  <property name="meta.media.0.codec.rotate">0</property>
  <property name="meta.media.0.codec.frame_rate">30</property>
  <property name="meta.media.0.codec.pix_fmt">yuv420p</property>
  <property name="meta.media.0.codec.sample_aspect_ratio">0</property>
  <property name="meta.media.0.codec.colorspace">601</property>
  <property name="meta.media.0.codec.name">h264</property>
  <property name="meta.media.0.codec.long_name">H.264 / AVC / MPEG-4 AVC / MPEG-4 part 10</property>
  <property name="meta.media.0.codec.bit_rate">3639395</property>
  <property name="meta.attr.0.stream.handler_name.markup">VideoHandler</property>
  <property name="meta.media.1.stream.type">audio</property>
  <property name="meta.media.1.codec.sample_fmt">fltp</property>
  <property name="meta.media.1.codec.sample_rate">48000</property>
  <property name="meta.media.1.codec.channels">2</property>
  <property name="meta.media.1.codec.name">aac</property>
  <property name="meta.media.1.codec.long_name">AAC (Advanced Audio Coding)</property>
  <property name="meta.media.1.codec.bit_rate">328237</property>
  <property name="meta.attr.1.stream.handler_name.markup">SoundHandler</property>
  <property name="meta.attr.major_brand.markup">isom</property>
  <property name="meta.attr.minor_version.markup">512</property>
  <property name="meta.attr.compatible_brands.markup">isomiso2avc1mp41</property>
  <property name="meta.attr.encoder.markup">Lavf58.29.100</property>
  <property name="meta.media.sample_aspect_num">1</property>
  <property name="meta.media.sample_aspect_den">1</property>
  <property name="meta.media.frame_rate_num">30</property>
  <property name="meta.media.frame_rate_den">1</property>
  <property name="meta.media.colorspace">601</property>
  <property name="meta.media.color_trc">2</property>
  <property name="meta.media.width">896</property>
  <property name="meta.media.height">512</property>
  <property name="meta.media.color_range">mpeg</property>
  <property name="meta.media.top_field_first">0</property>
  <property name="meta.media.progressive">1</property>
  <property name="set.test_audio">1</property>
  <property name="set.test_image">0</property>
 </producer>
 <playlist id="playlist16">
  <blank length="00:00:07.000"/>
  <entry producer="producer138" in="00:00:08.333" out="00:01:15.100">
   <property name="kdenlive:id">28</property>
  </entry>
  <entry producer="producer139" in="00:00:00.000" out="00:04:52.800">
   <property name="kdenlive:id">24</property>
  </entry>
  <blank length="00:11:53.367"/>
  <entry producer="producer140" in="00:00:00.000" out="00:01:13.000">
   <property name="kdenlive:id">44</property>
   <property name="kdenlive:activeeffect">2</property>
   <filter id="filter132">
    <property name="mlt_service">avfilter.vflip</property>
    <property name="kdenlive_id">avfilter.vflip</property>
    <property name="kdenlive:collapsed">0</property>
   </filter>
   <filter id="filter133">
    <property name="rotate_center">1</property>
    <property name="mlt_service">qtblend</property>
    <property name="kdenlive_id">qtblend</property>
    <property name="rect">00:00:00.000=527 540 896 512 1.000000</property>
    <property name="rotation">00:00:00.000=0</property>
    <property name="compositing">0</property>
    <property name="distort">0</property>
    <property name="kdenlive:collapsed">0</property>
   </filter>
   <filter id="filter134">
    <property name="version">0.1</property>
    <property name="mlt_service">frei0r.mask0mate</property>
    <property name="kdenlive_id">frei0r.mask0mate</property>
    <property name="Left">00:00:00.000=0.333</property>
    <property name="Right">00:00:00.000=0.333</property>
    <property name="Top">00:00:00.000=0</property>
    <property name="Bottom">00:00:00.000=0</property>
    <property name="Invert">1</property>
    <property name="Blur">00:00:00.000=0</property>
    <property name="kdenlive:collapsed">0</property>
   </filter>
  </entry>
 </playlist>
 <playlist id="playlist17"/>
 <tractor id="tractor8" in="00:00:00.000" out="00:19:13.000">
  <property name="kdenlive:trackheight">69</property>
  <property name="kdenlive:timeline_active">1</property>
  <property name="kdenlive:collapsed">28</property>
  <property name="kdenlive:track_name">sarah2</property>
  <property name="kdenlive:thumbs_format"/>
  <property name="kdenlive:audio_rec"/>
  <property name="kdenlive:locked_track">1</property>
  <track hide="both" producer="playlist16"/>
  <track producer="playlist17"/>
 </tractor>
 <producer id="producer141" in="00:00:00.000" out="00:01:50.367">
  <property name="length">3312</property>
  <property name="eof">pause</property>
  <property name="resource">/home/ryankelln/.cache/kdenlive/proxy/b64ced2cf82c852365aec92ea8da5f55.mkv</property>
  <property name="audio_index">1</property>
  <property name="video_index">0</property>
  <property name="mute_on_pause">0</property>
  <property name="mlt_service">avformat-novalidate</property>
  <property name="seekable">1</property>
  <property name="aspect_ratio">1</property>
  <property name="kdenlive:clipname">2021-06-02_161425_Sarah_kit+handheld_sarah-take2_start.mp4</property>
  <property name="kdenlive:folderid">22</property>
  <property name="kdenlive:id">30</property>
  <property name="kdenlive:file_size">348056084</property>
  <property name="kdenlive:file_hash">b64ced2cf82c852365aec92ea8da5f55</property>
  <property name="kdenlive:proxy">/home/ryankelln/.cache/kdenlive/proxy/b64ced2cf82c852365aec92ea8da5f55.mkv</property>
  <property name="kdenlive:originalurl">content/musicians/2021-06-02_161425_Sarah_kit+handheld_sarah-take2_start.mp4</property>
  <property name="kdenlive:original.mlt_type">producer</property>
  <property name="kdenlive:original.in">0</property>
  <property name="kdenlive:original.out">3311</property>
  <property name="kdenlive:original.length">3312</property>
  <property name="kdenlive:original.eof">pause</property>
  <property name="kdenlive:original.resource">content/musicians/2021-06-02_161425_Sarah_kit+handheld_sarah-take2_start.mp4</property>
  <property name="kdenlive:original.meta.media.nb_streams">2</property>
  <property name="kdenlive:original.meta.media.0.stream.type">video</property>
  <property name="kdenlive:original.meta.media.0.stream.frame_rate">59.9401</property>
  <property name="kdenlive:original.meta.media.0.stream.sample_aspect_ratio">1</property>
  <property name="kdenlive:original.meta.media.0.codec.width">1920</property>
  <property name="kdenlive:original.meta.media.0.codec.height">1080</property>
  <property name="kdenlive:original.meta.media.0.codec.rotate">0</property>
  <property name="kdenlive:original.meta.media.0.codec.frame_rate">59.9401</property>
  <property name="kdenlive:original.meta.media.0.codec.pix_fmt">yuv420p</property>
  <property name="kdenlive:original.meta.media.0.codec.sample_aspect_ratio">1</property>
  <property name="kdenlive:original.meta.media.0.codec.colorspace">709</property>
  <property name="kdenlive:original.meta.media.0.codec.name">h264</property>
  <property name="kdenlive:original.meta.media.0.codec.long_name">H.264 / AVC / MPEG-4 AVC / MPEG-4 part 10</property>
  <property name="kdenlive:original.meta.media.0.codec.bit_rate">24996996</property>
  <property name="kdenlive:original.meta.attr.0.stream.handler_name.markup">VideoHandler</property>
  <property name="kdenlive:original.meta.media.1.stream.type">audio</property>
  <property name="kdenlive:original.meta.media.1.codec.sample_fmt">fltp</property>
  <property name="kdenlive:original.meta.media.1.codec.sample_rate">48000</property>
  <property name="kdenlive:original.meta.media.1.codec.channels">6</property>
  <property name="kdenlive:original.meta.media.1.codec.name">ac3</property>
  <property name="kdenlive:original.meta.media.1.codec.long_name">ATSC A/52A (AC-3)</property>
  <property name="kdenlive:original.meta.media.1.codec.bit_rate">448000</property>
  <property name="kdenlive:original.meta.attr.1.stream.handler_name.markup">SoundHandler</property>
  <property name="kdenlive:original.meta.attr.major_brand.markup">isom</property>
  <property name="kdenlive:original.meta.attr.minor_version.markup">512</property>
  <property name="kdenlive:original.meta.attr.compatible_brands.markup">isomiso2avc1mp41</property>
  <property name="kdenlive:original.meta.attr.encoder.markup">Lavf58.45.100</property>
  <property name="kdenlive:original.seekable">1</property>
  <property name="kdenlive:original.width">1920</property>
  <property name="kdenlive:original.height">1080</property>
  <property name="kdenlive:original.meta.media.sample_aspect_num">1</property>
  <property name="kdenlive:original.meta.media.sample_aspect_den">1</property>
  <property name="kdenlive:original.aspect_ratio">1</property>
  <property name="kdenlive:original.audio_index">1</property>
  <property name="kdenlive:original.video_index">0</property>
  <property name="kdenlive:original.mute_on_pause">0</property>
  <property name="kdenlive:original.mlt_service">avformat-novalidate</property>
  <property name="kdenlive:original.kdenlive:folderid">22</property>
  <property name="kdenlive:original.meta.media.frame_rate_num">590040000</property>
  <property name="kdenlive:original.meta.media.frame_rate_den">9843833</property>
  <property name="kdenlive:original.meta.media.colorspace">709</property>
  <property name="kdenlive:original.meta.media.color_trc">2</property>
  <property name="kdenlive:original.meta.media.width">1920</property>
  <property name="kdenlive:original.meta.media.height">1080</property>
  <property name="kdenlive:original.meta.media.color_range">mpeg</property>
  <property name="kdenlive:original.kdenlive:id">33</property>
  <property name="kdenlive:original.kdenlive:file_size">348056084</property>
  <property name="kdenlive:original.kdenlive:file_hash">b64ced2cf82c852365aec92ea8da5f55</property>
  <property name="kdenlive:original.backup">1</property>
  <property name="global_feed">1</property>
  <property name="kdenlive:activeeffect">1</property>
  <property name="xml">was here</property>
  <property name="meta.media.nb_streams">2</property>
  <property name="meta.media.0.stream.type">video</property>
  <property name="meta.media.0.stream.frame_rate">59.9401</property>
  <property name="meta.media.0.stream.sample_aspect_ratio">1</property>
  <property name="meta.media.0.codec.width">640</property>
  <property name="meta.media.0.codec.height">360</property>
  <property name="meta.media.0.codec.rotate">0</property>
  <property name="meta.media.0.codec.frame_rate">1000</property>
  <property name="meta.media.0.codec.pix_fmt">yuvj420p</property>
  <property name="meta.media.0.codec.sample_aspect_ratio">1</property>
  <property name="meta.media.0.codec.colorspace">601</property>
  <property name="meta.media.0.codec.name">mjpeg</property>
  <property name="meta.media.0.codec.long_name">MJPEG (Motion JPEG)</property>
  <property name="meta.media.0.codec.bit_rate">0</property>
  <property name="meta.attr.0.stream.HANDLER_NAME.markup">VideoHandler</property>
  <property name="meta.attr.0.stream.ENCODER.markup">Lavc58.91.100 mjpeg</property>
  <property name="meta.attr.0.stream.DURATION.markup">00:01:50.427000000</property>
  <property name="meta.media.1.stream.type">audio</property>
  <property name="meta.media.1.codec.sample_fmt">s16</property>
  <property name="meta.media.1.codec.sample_rate">48000</property>
  <property name="meta.media.1.codec.channels">6</property>
  <property name="meta.media.1.codec.name">pcm_s16le</property>
  <property name="meta.media.1.codec.long_name">PCM signed 16-bit little-endian</property>
  <property name="meta.media.1.codec.bit_rate">4608000</property>
  <property name="meta.attr.1.stream.HANDLER_NAME.markup">SoundHandler</property>
  <property name="meta.attr.1.stream.ENCODER.markup">Lavc58.91.100 pcm_s16le</property>
  <property name="meta.attr.1.stream.DURATION.markup">00:01:50.400000000</property>
  <property name="meta.attr.COMPATIBLE_BRANDS.markup">isomiso2avc1mp41</property>
  <property name="meta.attr.MAJOR_BRAND.markup">isom</property>
  <property name="meta.attr.MINOR_VERSION.markup">512</property>
  <property name="meta.attr.ENCODER.markup">Lavf58.45.100</property>
  <property name="meta.media.sample_aspect_num">1</property>
  <property name="meta.media.sample_aspect_den">1</property>
  <property name="meta.media.frame_rate_num">19001</property>
  <property name="meta.media.frame_rate_den">317</property>
  <property name="meta.media.colorspace">601</property>
  <property name="meta.media.color_trc">2</property>
  <property name="meta.media.width">640</property>
  <property name="meta.media.height">360</property>
  <property name="meta.media.color_range">full</property>
  <property name="meta.media.top_field_first">0</property>
  <property name="meta.media.progressive">1</property>
  <property name="set.test_audio">1</property>
  <property name="set.test_image">0</property>
  <filter id="filter135">
   <property name="version">0.1</property>
   <property name="mlt_service">frei0r.hqdn3d</property>
   <property name="kdenlive_id">frei0r.hqdn3d</property>
   <property name="Spatial">00:00:00.000=0.035</property>
   <property name="Temporal">00:00:00.000=0.01</property>
  </filter>
  <filter id="filter136">
   <property name="version">0.6</property>
   <property name="mlt_service">frei0r.select0r</property>
   <property name="kdenlive_id">frei0r.select0r</property>
   <property name="Color to select">0x177c3bff</property>
   <property name="Invert selection">1</property>
   <property name="Selection subspace">1</property>
   <property name="Subspace shape">0</property>
   <property name="Edge mode">0.9</property>
   <property name="Delta R / A / Hue">00:00:00.000=0.024</property>
   <property name="Delta G / B / Chroma">00:00:00.000=0.18</property>
   <property name="Delta B / I / I">00:00:00.000=0.2</property>
   <property name="Slope">00:00:00.000=0.08</property>
   <property name="Operation">0.5</property>
  </filter>
  <filter id="filter137">
   <property name="version">0.4</property>
   <property name="mlt_service">frei0r.alpha0ps</property>
   <property name="kdenlive_id">frei0r.alpha0ps</property>
   <property name="Display">0</property>
   <property name="Display input alpha">0</property>
   <property name="Operation">1</property>
   <property name="Threshold">00:00:00.000=0.5</property>
   <property name="Shrink/Grow/Blur amount">00:00:00.000=0.1</property>
   <property name="Invert">0</property>
  </filter>
  <filter id="filter138">
   <property name="version">0.3</property>
   <property name="mlt_service">frei0r.keyspillm0pup</property>
   <property name="kdenlive_id">frei0r.keyspillm0pup</property>
   <property name="Key color">0x34a855ff</property>
   <property name="Target color">0xC87F65ff</property>
   <property name="Mask type">0</property>
   <property name="Tolerance">00:00:00.000=0.206</property>
   <property name="Slope">00:00:00.000=0.192</property>
   <property name="Hue gate">00:00:00.000=0.165</property>
   <property name="Saturation threshold">00:00:00.000=0.104</property>
   <property name="Operation 1">1</property>
   <property name="Amount 1">00:00:00.000=0.5</property>
   <property name="Operation 2">3</property>
   <property name="Amount 2">00:00:00.000=0.141</property>
   <property name="Show mask">0</property>
   <property name="Mask to Alpha">0</property>
  </filter>
 </producer>
 <producer id="producer142" in="00:00:00.000" out="00:05:23.967">
  <property name="length">9720</property>
  <property name="eof">pause</property>
  <property name="resource">content/musicians/2021-06-02_Sarah_kit_sarah_00049-take3_from_bass_solo.mp4</property>
  <property name="audio_index">1</property>
  <property name="video_index">0</property>
  <property name="mute_on_pause">0</property>
  <property name="mlt_service">avformat-novalidate</property>
  <property name="seekable">1</property>
  <property name="aspect_ratio">1.33333</property>
  <property name="kdenlive:clipname"/>
  <property name="kdenlive:folderid">22</property>
  <property name="kdenlive:id">29</property>
  <property name="kdenlive:file_size">281647823</property>
  <property name="kdenlive:file_hash">6e134cdb05b535a713e603c3a0d812f5</property>
  <property name="kdenlive:audio_max">1</property>
  <property name="global_feed">1</property>
  <property name="kdenlive:activeeffect">3</property>
  <property name="xml">was here</property>
  <property name="meta.media.nb_streams">2</property>
  <property name="meta.media.0.stream.type">video</property>
  <property name="meta.media.0.stream.frame_rate">59.9401</property>
  <property name="meta.media.0.stream.sample_aspect_ratio">1.33333</property>
  <property name="meta.media.0.codec.width">1440</property>
  <property name="meta.media.0.codec.height">1080</property>
  <property name="meta.media.0.codec.rotate">0</property>
  <property name="meta.media.0.codec.frame_rate">29.97</property>
  <property name="meta.media.0.codec.pix_fmt">yuv420p</property>
  <property name="meta.media.0.codec.sample_aspect_ratio">1.33333</property>
  <property name="meta.media.0.codec.colorspace">709</property>
  <property name="meta.media.0.codec.name">h264</property>
  <property name="meta.media.0.codec.long_name">H.264 / AVC / MPEG-4 AVC / MPEG-4 part 10</property>
  <property name="meta.media.0.codec.bit_rate">6689533</property>
  <property name="meta.attr.0.stream.handler_name.markup">VideoHandler</property>
  <property name="meta.media.1.stream.type">audio</property>
  <property name="meta.media.1.codec.sample_fmt">fltp</property>
  <property name="meta.media.1.codec.sample_rate">48000</property>
  <property name="meta.media.1.codec.channels">2</property>
  <property name="meta.media.1.codec.name">ac3</property>
  <property name="meta.media.1.codec.long_name">ATSC A/52A (AC-3)</property>
  <property name="meta.media.1.codec.bit_rate">256000</property>
  <property name="meta.attr.1.stream.handler_name.markup">SoundHandler</property>
  <property name="meta.attr.major_brand.markup">isom</property>
  <property name="meta.attr.minor_version.markup">512</property>
  <property name="meta.attr.compatible_brands.markup">isomiso2avc1mp41</property>
  <property name="meta.attr.encoder.markup">Lavf58.45.100</property>
  <property name="meta.media.sample_aspect_num">4</property>
  <property name="meta.media.sample_aspect_den">3</property>
  <property name="meta.media.frame_rate_num">60000</property>
  <property name="meta.media.frame_rate_den">1001</property>
  <property name="meta.media.colorspace">709</property>
  <property name="meta.media.color_trc">2</property>
  <property name="meta.media.width">1440</property>
  <property name="meta.media.height">1080</property>
  <property name="meta.media.color_range">mpeg</property>
  <property name="meta.media.top_field_first">1</property>
  <property name="meta.media.progressive">0</property>
  <property name="set.test_audio">1</property>
  <property name="set.test_image">1</property>
  <filter id="filter86">
   <property name="version">0.1</property>
   <property name="mlt_service">frei0r.hqdn3d</property>
   <property name="kdenlive_id">frei0r.hqdn3d</property>
   <property name="Spatial">00:00:00.000=0.025</property>
   <property name="Temporal">00:00:00.000=0.01</property>
   <property name="kdenlive:collapsed">0</property>
  </filter>
  <filter id="filter117">
   <property name="version">0.6</property>
   <property name="mlt_service">frei0r.select0r</property>
   <property name="kdenlive_id">frei0r.select0r</property>
   <property name="Color to select">0x43a153ff</property>
   <property name="Invert selection">1</property>
   <property name="Selection subspace">1</property>
   <property name="Subspace shape">0</property>
   <property name="Edge mode">0.9</property>
   <property name="Delta R / A / Hue">00:00:00.000=0.03</property>
   <property name="Delta G / B / Chroma">00:00:00.000=0.14</property>
   <property name="Delta B / I / I">00:00:00.000=0.4</property>
   <property name="Slope">00:00:00.000=0.21</property>
   <property name="Operation">0.5</property>
   <property name="kdenlive:collapsed">0</property>
  </filter>
  <filter id="filter139">
   <property name="version">0.4</property>
   <property name="mlt_service">frei0r.alpha0ps</property>
   <property name="kdenlive_id">frei0r.alpha0ps</property>
   <property name="Display">0</property>
   <property name="Display input alpha">0</property>
   <property name="Operation">1</property>
   <property name="Threshold">00:00:00.000=0.5</property>
   <property name="Shrink/Grow/Blur amount">00:00:00.000=0.1</property>
   <property name="Invert">0</property>
   <property name="kdenlive:collapsed">0</property>
  </filter>
  <filter id="filter140">
   <property name="version">0.3</property>
   <property name="mlt_service">frei0r.keyspillm0pup</property>
   <property name="kdenlive_id">frei0r.keyspillm0pup</property>
   <property name="Key color">0x43a153ff</property>
   <property name="Target color">0xC87F65ff</property>
   <property name="Mask type">0</property>
   <property name="Tolerance">00:00:00.000=0.25</property>
   <property name="Slope">00:00:00.000=0.234</property>
   <property name="Hue gate">00:00:00.000=0.154</property>
   <property name="Saturation threshold">00:00:00.000=0.14</property>
   <property name="Operation 1">1</property>
   <property name="Amount 1">00:00:00.000=0.624</property>
   <property name="Operation 2">4</property>
   <property name="Amount 2">00:00:00.000=0.132</property>
   <property name="Show mask">0</property>
   <property name="Mask to Alpha">0</property>
   <property name="kdenlive:collapsed">0</property>
  </filter>
  <filter id="filter141">
   <property name="version">0.1</property>
   <property name="mlt_service">frei0r.hqdn3d</property>
   <property name="kdenlive_id">frei0r.hqdn3d</property>
   <property name="Spatial">00:00:00.000=0.025</property>
   <property name="Temporal">00:00:00.000=0.01</property>
  </filter>
  <filter id="filter142">
   <property name="version">0.6</property>
   <property name="mlt_service">frei0r.select0r</property>
   <property name="kdenlive_id">frei0r.select0r</property>
   <property name="Color to select">0x43a153ff</property>
   <property name="Invert selection">1</property>
   <property name="Selection subspace">1</property>
   <property name="Subspace shape">0</property>
   <property name="Edge mode">0.9</property>
   <property name="Delta R / A / Hue">00:00:00.000=0.03</property>
   <property name="Delta G / B / Chroma">00:00:00.000=0.14</property>
   <property name="Delta B / I / I">00:00:00.000=0.4</property>
   <property name="Slope">00:00:00.000=0.21</property>
   <property name="Operation">0.5</property>
  </filter>
  <filter id="filter143">
   <property name="version">0.4</property>
   <property name="mlt_service">frei0r.alpha0ps</property>
   <property name="kdenlive_id">frei0r.alpha0ps</property>
   <property name="Display">0</property>
   <property name="Display input alpha">0</property>
   <property name="Operation">1</property>
   <property name="Threshold">00:00:00.000=0.5</property>
   <property name="Shrink/Grow/Blur amount">00:00:00.000=0.1</property>
   <property name="Invert">0</property>
  </filter>
  <filter id="filter144">
   <property name="version">0.3</property>
   <property name="mlt_service">frei0r.keyspillm0pup</property>
   <property name="kdenlive_id">frei0r.keyspillm0pup</property>
   <property name="Key color">0x43a153ff</property>
   <property name="Target color">0xC87F65ff</property>
   <property name="Mask type">0</property>
   <property name="Tolerance">00:00:00.000=0.25</property>
   <property name="Slope">00:00:00.000=0.234</property>
   <property name="Hue gate">00:00:00.000=0.154</property>
   <property name="Saturation threshold">00:00:00.000=0.14</property>
   <property name="Operation 1">1</property>
   <property name="Amount 1">00:00:00.000=0.624</property>
   <property name="Operation 2">4</property>
   <property name="Amount 2">00:00:00.000=0.132</property>
   <property name="Show mask">0</property>
   <property name="Mask to Alpha">0</property>
  </filter>
 </producer>
 <producer id="producer143" in="00:00:00.000" out="00:05:23.967">
  <property name="length">9720</property>
  <property name="eof">pause</property>
  <property name="resource">content/musicians/2021-06-02_Sarah_kit_sarah_00049-take3_from_bass_solo.mp4</property>
  <property name="audio_index">1</property>
  <property name="video_index">0</property>
  <property name="mute_on_pause">0</property>
  <property name="mlt_service">avformat-novalidate</property>
  <property name="seekable">1</property>
  <property name="aspect_ratio">1.33333</property>
  <property name="kdenlive:clipname"/>
  <property name="kdenlive:folderid">22</property>
  <property name="kdenlive:id">29</property>
  <property name="kdenlive:file_size">281647823</property>
  <property name="kdenlive:file_hash">6e134cdb05b535a713e603c3a0d812f5</property>
  <property name="kdenlive:audio_max">1</property>
  <property name="global_feed">1</property>
  <property name="kdenlive:activeeffect">4</property>
  <property name="xml">was here</property>
  <property name="meta.media.nb_streams">2</property>
  <property name="meta.media.0.stream.type">video</property>
  <property name="meta.media.0.stream.frame_rate">59.9401</property>
  <property name="meta.media.0.stream.sample_aspect_ratio">1.33333</property>
  <property name="meta.media.0.codec.width">1440</property>
  <property name="meta.media.0.codec.height">1080</property>
  <property name="meta.media.0.codec.rotate">0</property>
  <property name="meta.media.0.codec.frame_rate">29.97</property>
  <property name="meta.media.0.codec.pix_fmt">yuv420p</property>
  <property name="meta.media.0.codec.sample_aspect_ratio">1.33333</property>
  <property name="meta.media.0.codec.colorspace">709</property>
  <property name="meta.media.0.codec.name">h264</property>
  <property name="meta.media.0.codec.long_name">H.264 / AVC / MPEG-4 AVC / MPEG-4 part 10</property>
  <property name="meta.media.0.codec.bit_rate">6689533</property>
  <property name="meta.attr.0.stream.handler_name.markup">VideoHandler</property>
  <property name="meta.media.1.stream.type">audio</property>
  <property name="meta.media.1.codec.sample_fmt">fltp</property>
  <property name="meta.media.1.codec.sample_rate">48000</property>
  <property name="meta.media.1.codec.channels">2</property>
  <property name="meta.media.1.codec.name">ac3</property>
  <property name="meta.media.1.codec.long_name">ATSC A/52A (AC-3)</property>
  <property name="meta.media.1.codec.bit_rate">256000</property>
  <property name="meta.attr.1.stream.handler_name.markup">SoundHandler</property>
  <property name="meta.attr.major_brand.markup">isom</property>
  <property name="meta.attr.minor_version.markup">512</property>
  <property name="meta.attr.compatible_brands.markup">isomiso2avc1mp41</property>
  <property name="meta.attr.encoder.markup">Lavf58.45.100</property>
  <property name="meta.media.sample_aspect_num">4</property>
  <property name="meta.media.sample_aspect_den">3</property>
  <property name="meta.media.frame_rate_num">60000</property>
  <property name="meta.media.frame_rate_den">1001</property>
  <property name="meta.media.colorspace">709</property>
  <property name="meta.media.color_trc">2</property>
  <property name="meta.media.width">1440</property>
  <property name="meta.media.height">1080</property>
  <property name="meta.media.color_range">mpeg</property>
  <property name="meta.media.top_field_first">1</property>
  <property name="meta.media.progressive">0</property>
  <property name="set.test_audio">1</property>
  <property name="set.test_image">0</property>
  <filter id="filter145">
   <property name="version">0.1</property>
   <property name="mlt_service">frei0r.hqdn3d</property>
   <property name="kdenlive_id">frei0r.hqdn3d</property>
   <property name="Spatial">00:00:00.000=0.025</property>
   <property name="Temporal">00:00:00.000=0.01</property>
  </filter>
  <filter id="filter146">
   <property name="version">0.6</property>
   <property name="mlt_service">frei0r.select0r</property>
   <property name="kdenlive_id">frei0r.select0r</property>
   <property name="Color to select">0x43a153ff</property>
   <property name="Invert selection">1</property>
   <property name="Selection subspace">1</property>
   <property name="Subspace shape">0</property>
   <property name="Edge mode">0.9</property>
   <property name="Delta R / A / Hue">00:00:00.000=0.03</property>
   <property name="Delta G / B / Chroma">00:00:00.000=0.14</property>
   <property name="Delta B / I / I">00:00:00.000=0.4</property>
   <property name="Slope">00:00:00.000=0.31</property>
   <property name="Operation">0.5</property>
  </filter>
  <filter id="filter147">
   <property name="version">0.4</property>
   <property name="mlt_service">frei0r.alpha0ps</property>
   <property name="kdenlive_id">frei0r.alpha0ps</property>
   <property name="Display">0</property>
   <property name="Display input alpha">0</property>
   <property name="Operation">1</property>
   <property name="Threshold">00:00:00.000=0.5</property>
   <property name="Shrink/Grow/Blur amount">00:00:00.000=0.1</property>
   <property name="Invert">0</property>
  </filter>
  <filter id="filter148">
   <property name="version">0.3</property>
   <property name="mlt_service">frei0r.keyspillm0pup</property>
   <property name="kdenlive_id">frei0r.keyspillm0pup</property>
   <property name="Key color">0x43a153ff</property>
   <property name="Target color">0xC87F65ff</property>
   <property name="Mask type">0</property>
   <property name="Tolerance">00:00:00.000=0.136</property>
   <property name="Slope">00:00:00.000=0.162</property>
   <property name="Hue gate">00:00:00.000=0.113</property>
   <property name="Saturation threshold">00:00:00.000=0.08</property>
   <property name="Operation 1">1</property>
   <property name="Amount 1">00:00:00.000=0.618</property>
   <property name="Operation 2">4</property>
   <property name="Amount 2">00:00:00.000=0.42</property>
   <property name="Show mask">0</property>
   <property name="Mask to Alpha">0</property>
  </filter>
  <filter id="filter149">
   <property name="mode">alpha</property>
   <property name="alpha_operation">sub</property>
   <property name="invert">0</property>
   <property name="feather">12</property>
   <property name="feather_passes">1</property>
   <property name="mlt_service">rotoscoping</property>
   <property name="kdenlive_id">rotoscoping</property>
   <property name="spline">{
    "0000": [
        [
            [
                0.06268343815513626,
                -0.06865671641791045
            ],
            [
                0.10796645702306079,
                -0.048507462686567165
            ],
            [
                0.12557651991614255,
                0.06417910447761195
            ]
        ],
        [
            [
                0.17840670859538785,
                0.40223880597014927
            ],
            [
                0.1960167714884696,
                0.5149253731343284
            ],
            [
                0.18888888888888886,
                0.5208955223880597
            ]
        ],
        [
            [
                0.16750524109014675,
                0.5388059701492538
            ],
            [
                0.16037735849056603,
                0.5447761194029851
            ],
            [
                0.15450733752620543,
                0.5276119402985074
            ]
        ],
        [
            [
                0.13689727463312368,
                0.4761194029850746
            ],
            [
                0.13102725366876308,
                0.45895522388059706
            ],
            [
                0.12075471698113206,
                0.4593283582089553
            ]
        ],
        [
            [
                0.089937106918239,
                0.46044776119402986
            ],
            [
                0.07966457023060797,
                0.4608208955223881
            ],
            [
                0.07735849056603773,
                0.46791044776119406
            ]
        ],
        [
            [
                0.07044025157232704,
                0.4891791044776119
            ],
            [
                0.06813417190775681,
                0.49626865671641796
            ],
            [
                0.06394129979035638,
                0.4970149253731344
            ]
        ],
        [
            [
                0.05136268343815513,
                0.49925373134328355
            ],
            [
                0.04716981132075471,
                0.5
            ],
            [
                0.04465408805031446,
                0.4944029850746269
            ]
        ],
        [
            [
                0.03710691823899371,
                0.4776119402985075
            ],
            [
                0.03459119496855346,
                0.47201492537313433
            ],
            [
                0.011111111111111108,
                0.47985074626865676
            ]
        ],
        [
            [
                -0.059329140461215936,
                0.5033582089552239
            ],
            [
                -0.08280922431865828,
                0.5111940298507462
            ],
            [
                -0.09412997903563941,
                0.4425373134328358
            ]
        ],
        [
            [
                -0.1280922431865828,
                0.23656716417910445
            ],
            [
                -0.13941299790356393,
                0.16791044776119404
            ],
            [
                -0.13522012578616352,
                0.1044776119402985
            ]
        ],
        [
            [
                -0.12264150943396226,
                -0.08582089552238806
            ],
            [
                -0.11844863731656184,
                -0.14925373134328357
            ],
            [
                -0.07316561844863731,
                -0.1291044776119403
            ]
        ]
    ]
}
</property>
  </filter>
 </producer>
 <producer id="producer145" in="00:00:00.000" out="00:01:13.000">
  <property name="length">2191</property>
  <property name="eof">pause</property>
  <property name="resource">content/hot_bod_132000_e3d1a1d9_drum_trip.mp4</property>
  <property name="audio_index">1</property>
  <property name="video_index">0</property>
  <property name="mute_on_pause">0</property>
  <property name="mlt_service">avformat-novalidate</property>
  <property name="seekable">1</property>
  <property name="aspect_ratio">1</property>
  <property name="kdenlive:clipname"/>
  <property name="kdenlive:folderid">34</property>
  <property name="kdenlive:id">44</property>
  <property name="kdenlive:file_size">36280029</property>
  <property name="kdenlive:file_hash">88bfd6c9be010ca9189da24c28ab1e8f</property>
  <property name="kdenlive:audio_max">5</property>
  <property name="global_feed">1</property>
  <property name="xml">was here</property>
  <property name="meta.media.nb_streams">2</property>
  <property name="meta.media.0.stream.type">video</property>
  <property name="meta.media.0.stream.frame_rate">30</property>
  <property name="meta.media.0.stream.sample_aspect_ratio">0</property>
  <property name="meta.media.0.codec.width">896</property>
  <property name="meta.media.0.codec.height">512</property>
  <property name="meta.media.0.codec.rotate">0</property>
  <property name="meta.media.0.codec.frame_rate">30</property>
  <property name="meta.media.0.codec.pix_fmt">yuv420p</property>
  <property name="meta.media.0.codec.sample_aspect_ratio">0</property>
  <property name="meta.media.0.codec.colorspace">601</property>
  <property name="meta.media.0.codec.name">h264</property>
  <property name="meta.media.0.codec.long_name">H.264 / AVC / MPEG-4 AVC / MPEG-4 part 10</property>
  <property name="meta.media.0.codec.bit_rate">3639395</property>
  <property name="meta.attr.0.stream.handler_name.markup">VideoHandler</property>
  <property name="meta.media.1.stream.type">audio</property>
  <property name="meta.media.1.codec.sample_fmt">fltp</property>
  <property name="meta.media.1.codec.sample_rate">48000</property>
  <property name="meta.media.1.codec.channels">2</property>
  <property name="meta.media.1.codec.name">aac</property>
  <property name="meta.media.1.codec.long_name">AAC (Advanced Audio Coding)</property>
  <property name="meta.media.1.codec.bit_rate">328237</property>
  <property name="meta.attr.1.stream.handler_name.markup">SoundHandler</property>
  <property name="meta.attr.major_brand.markup">isom</property>
  <property name="meta.attr.minor_version.markup">512</property>
  <property name="meta.attr.compatible_brands.markup">isomiso2avc1mp41</property>
  <property name="meta.attr.encoder.markup">Lavf58.29.100</property>
  <property name="meta.media.sample_aspect_num">1</property>
  <property name="meta.media.sample_aspect_den">1</property>
  <property name="meta.media.frame_rate_num">30</property>
  <property name="meta.media.frame_rate_den">1</property>
  <property name="meta.media.colorspace">601</property>
  <property name="meta.media.color_trc">2</property>
  <property name="meta.media.width">896</property>
  <property name="meta.media.height">512</property>
  <property name="meta.media.color_range">mpeg</property>
  <property name="meta.media.top_field_first">0</property>
  <property name="meta.media.progressive">1</property>
  <property name="set.test_audio">1</property>
  <property name="set.test_image">0</property>
 </producer>
 <playlist id="playlist18">
  <blank length="00:00:03.867"/>
  <entry producer="producer141" in="00:00:00.400" out="00:01:12.933">
   <property name="kdenlive:id">30</property>
   <property name="kdenlive:activeeffect">1</property>
   <filter id="filter152">
    <property name="rotate_center">1</property>
    <property name="mlt_service">qtblend</property>
    <property name="kdenlive_id">qtblend</property>
    <property name="rect">00:00:00.400=0 0 1920 1080 1.000000</property>
    <property name="rotation">00:00:00.400=0</property>
    <property name="compositing">0</property>
    <property name="distort">0</property>
    <property name="kdenlive:collapsed">0</property>
   </filter>
   <filter id="filter151">
    <property name="lift_r">-0.100008</property>
    <property name="lift_g">-0.100008</property>
    <property name="lift_b">-0.100008</property>
    <property name="gamma_r">0.775006</property>
    <property name="gamma_g">0.775006</property>
    <property name="gamma_b">0.775006</property>
    <property name="gain_r">3.47503</property>
    <property name="gain_g">3.47503</property>
    <property name="gain_b">3.47503</property>
    <property name="mlt_service">lift_gamma_gain</property>
    <property name="kdenlive_id">lift_gamma_gain</property>
    <property name="kdenlive:collapsed">0</property>
   </filter>
   <filter id="filter153">
    <property name="mlt_service">greyscale</property>
    <property name="kdenlive_id">greyscale</property>
    <property name="kdenlive:collapsed">0</property>
   </filter>
   <filter id="filter154">
    <property name="mlt_service">avfilter.edgedetect</property>
    <property name="kdenlive_id">avfilter.edgedetect</property>
    <property name="av.low">0.018</property>
    <property name="av.high">0.336</property>
    <property name="av.mode">wires</property>
    <property name="av.planes">7</property>
    <property name="kdenlive:collapsed">0</property>
   </filter>
   <filter id="filter155" in="00:01:11.033" out="00:01:12.933">
    <property name="start">1</property>
    <property name="mlt_service">brightness</property>
    <property name="kdenlive_id">fade_to_black</property>
    <property name="end">0</property>
    <property name="alpha">-1</property>
    <property name="kdenlive:collapsed">0</property>
   </filter>
   <filter id="filter156" in="00:00:00.400" out="00:00:00.967">
    <property name="start">0</property>
    <property name="mlt_service">brightness</property>
    <property name="kdenlive_id">fade_from_black</property>
    <property name="end">1</property>
    <property name="alpha">-1</property>
    <property name="kdenlive:collapsed">0</property>
   </filter>
  </entry>
  <entry producer="producer142" in="00:00:07.833" out="00:02:56.867">
   <property name="kdenlive:id">29</property>
  </entry>
  <entry producer="producer143" in="00:02:56.900" out="00:03:16.233">
   <property name="kdenlive:id">29</property>
   <filter id="filter157" in="00:03:14.000" out="00:03:16.233">
    <property name="start">1</property>
    <property name="mlt_service">brightness</property>
    <property name="kdenlive_id">fade_to_black</property>
    <property name="end">0</property>
    <property name="alpha">-1</property>
    <property name="kdenlive:collapsed">0</property>
   </filter>
   <filter id="filter158" in="00:02:56.900" out="00:03:00.933">
    <property name="start">0</property>
    <property name="mlt_service">brightness</property>
    <property name="kdenlive_id">fade_from_black</property>
    <property name="end">1</property>
    <property name="alpha">-1</property>
    <property name="kdenlive:collapsed">0</property>
   </filter>
  </entry>
  <entry producer="producer142" in="00:03:16.267" out="00:04:28.033">
   <property name="kdenlive:id">29</property>
  </entry>
  <entry producer="producer143" in="00:04:28.067" out="00:04:52.433">
   <property name="kdenlive:id">29</property>
   <filter id="filter159">
    <property name="mode">alpha</property>
    <property name="alpha_operation">sub</property>
    <property name="invert">0</property>
    <property name="feather">10</property>
    <property name="feather_passes">1</property>
    <property name="mlt_service">rotoscoping</property>
    <property name="kdenlive_id">rotoscoping</property>
    <property name="spline">{
    "8042": [
        [
            [
                -0.06499133448873483,
                0.3459167950693374
            ],
            [
                -0.049393414211438474,
                0.4722650231124807
            ],
            [
                -0.014038128249566724,
                0.46795069337442213
            ]
        ],
        [
            [
                0.09202772963604852,
                0.45500770416024644
            ],
            [
                0.12738301559792026,
                0.45069337442218793
            ],
            [
                0.13500866551126517,
                0.4704160246533127
            ]
        ],
        [
            [
                0.15788561525129982,
                0.5295839753466872
            ],
            [
                0.1655112651646447,
                0.5493066255778121
            ],
            [
                0.17209705372616982,
                0.5462249614791987
            ]
        ],
        [
            [
                0.19185441941074524,
                0.536979969183359
            ],
            [
                0.19844020797227035,
                0.5338983050847458
            ],
            [
                0.18180242634315424,
                0.44884437596302
            ]
        ],
        [
            [
                0.13188908145580588,
                0.19368258859784282
            ],
            [
                0.11525129982668976,
                0.10862865947611709
            ],
            [
                0.1797227036395147,
                0.0950693374422188
            ]
        ],
        [
            [
                0.37313691507798963,
                0.054391371340523874
            ],
            [
                0.43760831889081453,
                0.040832049306625574
            ],
            [
                0.451473136915078,
                0.03528505392912172
            ]
        ],
        [
            [
                0.4930675909878683,
                0.01864406779661017
            ],
            [
                0.5069324090121318,
                0.013097072419106317
            ],
            [
                0.5277296360485269,
                0.01802773497688752
            ]
        ],
        [
            [
                0.5901213171577123,
                0.03281972265023112
            ],
            [
                0.6109185441941075,
                0.03775038520801232
            ],
            [
                0.6421143847487002,
                0.09322033898305085
            ]
        ],
        [
            [
                0.7357019064124782,
                0.2596302003081664
            ],
            [
                0.766897746967071,
                0.3151001540832049
            ],
            [
                0.7675909878682842,
                0.32249614791987674
            ]
        ],
        [
            [
                0.7696707105719237,
                0.3446841294298921
            ],
            [
                0.7703639514731369,
                0.35208012326656396
            ],
            [
                0.7814558058925477,
                0.3613251155624037
            ]
        ],
        [
            [
                0.8147313691507798,
                0.3890600924499229
            ],
            [
                0.8258232235701907,
                0.39830508474576265
            ],
            [
                0.823050259965338,
                0.4439137134052388
            ]
        ],
        [
            [
                0.8147313691507798,
                0.5807395993836671
            ],
            [
                0.8119584055459271,
                0.6263482280431432
            ],
            [
                0.8175043327556325,
                0.6288135593220338
            ]
        ],
        [
            [
                0.8514731369150781,
                0.6469953775038513
            ],
            [
                0.8570190641247833,
                0.6494607087827426
            ],
            [
                0.8986135181975736,
                0.6325115562403697
            ]
        ],
        [
            [
                0.9133448873483535,
                0.6325115562403697
            ],
            [
                0.9306759098786829,
                0.6340523882896764
            ],
            [
                0.9566724436741768,
                0.6448382126348227
            ]
        ],
        [
            [
                1.0143847487001731,
                0.6781201848998458
            ],
            [
                1.035528596187175,
                0.6910631741140215
            ],
            [
                1.0438474870017331,
                0.5240369799691833
            ]
        ],
        [
            [
                1.0688041594454072,
                0.022958397534668717
            ],
            [
                1.0771230502599651,
                -0.14406779661016947
            ],
            [
                0.9627383015597919,
                -0.17426810477657934
            ]
        ],
        [
            [
                0.6195840554592721,
                -0.26486902927580896
            ],
            [
                0.5051993067590987,
                -0.2950693374422188
            ],
            [
                0.378682842287695,
                -0.2679506933744222
            ]
        ],
        [
            [
                -0.0008665511265164572,
                -0.18659476117103235
            ],
            [
                -0.12738301559792026,
                -0.15947611710323573
            ],
            [
                -0.1117850953206239,
                -0.03312788906009245
            ]
        ]
    ],
    "8773": [
        [
            [
                -0.06499133448873483,
                0.3459167950693374
            ],
            [
                -0.049393414211438474,
                0.4722650231124807
            ],
            [
                -0.014038128249566724,
                0.46795069337442213
            ]
        ],
        [
            [
                0.09202772963604852,
                0.45500770416024644
            ],
            [
                0.12738301559792026,
                0.45069337442218793
            ],
            [
                0.13500866551126517,
                0.4704160246533127
            ]
        ],
        [
            [
                0.15788561525129982,
                0.5295839753466872
            ],
            [
                0.1655112651646447,
                0.5493066255778121
            ],
            [
                0.17209705372616982,
                0.5462249614791987
            ]
        ],
        [
            [
                0.19185441941074524,
                0.536979969183359
            ],
            [
                0.19844020797227035,
                0.5338983050847458
            ],
            [
                0.18180242634315424,
                0.44884437596302
            ]
        ],
        [
            [
                0.13188908145580588,
                0.19368258859784282
            ],
            [
                0.11525129982668976,
                0.10862865947611709
            ],
            [
                0.1797227036395147,
                0.0950693374422188
            ]
        ],
        [
            [
                0.37313691507798963,
                0.054391371340523874
            ],
            [
                0.43760831889081453,
                0.040832049306625574
            ],
            [
                0.451473136915078,
                0.03528505392912172
            ]
        ],
        [
            [
                0.4930675909878683,
                0.01864406779661017
            ],
            [
                0.5069324090121318,
                0.013097072419106317
            ],
            [
                0.5277296360485269,
                0.01802773497688752
            ]
        ],
        [
            [
                0.5901213171577123,
                0.03281972265023112
            ],
            [
                0.6109185441941075,
                0.03775038520801232
            ],
            [
                0.6421143847487002,
                0.09322033898305085
            ]
        ],
        [
            [
                0.7357019064124782,
                0.2596302003081664
            ],
            [
                0.766897746967071,
                0.3151001540832049
            ],
            [
                0.7675909878682842,
                0.32249614791987674
            ]
        ],
        [
            [
                0.7696707105719237,
                0.3446841294298921
            ],
            [
                0.7703639514731369,
                0.35208012326656396
            ],
            [
                0.7814558058925477,
                0.3613251155624037
            ]
        ],
        [
            [
                0.8147313691507798,
                0.3890600924499229
            ],
            [
                0.8258232235701907,
                0.39830508474576265
            ],
            [
                0.823050259965338,
                0.4439137134052388
            ]
        ],
        [
            [
                0.8147313691507798,
                0.5807395993836671
            ],
            [
                0.8119584055459271,
                0.6263482280431432
            ],
            [
                0.8175043327556325,
                0.6288135593220338
            ]
        ],
        [
            [
                0.8474808120821985,
                0.6505447941888619
            ],
            [
                0.8530267392919039,
                0.6530101254677525
            ],
            [
                0.8826442188660558,
                0.6419766674003962
            ]
        ],
        [
            [
                0.9128125773706363,
                0.6367708562623815
            ],
            [
                0.9306759098786829,
                0.6352355271846796
            ],
            [
                0.952946273830156,
                0.6476777459828307
            ]
        ],
        [
            [
                1.0143847487001731,
                0.6781201848998458
            ],
            [
                1.035528596187175,
                0.6910631741140215
            ],
            [
                1.0438474870017331,
                0.5240369799691833
            ]
        ],
        [
            [
                1.0688041594454072,
                0.022958397534668717
            ],
            [
                1.0771230502599651,
                -0.14406779661016947
            ],
            [
                0.9627383015597919,
                -0.17426810477657934
            ]
        ],
        [
            [
                0.6195840554592721,
                -0.26486902927580896
            ],
            [
                0.5051993067590987,
                -0.2950693374422188
            ],
            [
                0.378682842287695,
                -0.2679506933744222
            ]
        ],
        [
            [
                -0.0008665511265164572,
                -0.18659476117103235
            ],
            [
                -0.12738301559792026,
                -0.15947611710323573
            ],
            [
                -0.1117850953206239,
                -0.03312788906009245
            ]
        ]
    ]
}
</property>
    <property name="kdenlive:collapsed">0</property>
    <property name="disable">1</property>
   </filter>
   <filter id="filter160" in="00:04:28.067" out="00:04:28.567">
    <property name="start">0</property>
    <property name="mlt_service">brightness</property>
    <property name="kdenlive_id">fade_from_black</property>
    <property name="end">1</property>
    <property name="alpha">-1</property>
    <property name="kdenlive:collapsed">0</property>
   </filter>
  </entry>
  <entry producer="producer143" in="00:04:52.467" out="00:05:04.300">
   <property name="kdenlive:id">29</property>
   <property name="kdenlive:activeeffect">1</property>
   <filter id="filter161" in="00:05:02.833" out="00:05:04.300">
    <property name="start">1</property>
    <property name="mlt_service">brightness</property>
    <property name="kdenlive_id">fade_to_black</property>
    <property name="end">0</property>
    <property name="alpha">-1</property>
    <property name="kdenlive:collapsed">0</property>
   </filter>
   <filter id="filter162">
    <property name="mode">alpha</property>
    <property name="alpha_operation">sub</property>
    <property name="invert">0</property>
    <property name="feather">10</property>
    <property name="feather_passes">1</property>
    <property name="mlt_service">rotoscoping</property>
    <property name="kdenlive_id">rotoscoping</property>
    <property name="spline">{
    "8774": [
        [
            [
                -0.06499133448873483,
                0.3459167950693374
            ],
            [
                -0.049393414211438474,
                0.4722650231124807
            ],
            [
                -0.014038128249566724,
                0.46795069337442213
            ]
        ],
        [
            [
                0.09202772963604852,
                0.45500770416024644
            ],
            [
                0.12738301559792026,
                0.45069337442218793
            ],
            [
                0.13500866551126517,
                0.4704160246533127
            ]
        ],
        [
            [
                0.15788561525129982,
                0.5295839753466872
            ],
            [
                0.1655112651646447,
                0.5493066255778121
            ],
            [
                0.17209705372616982,
                0.5462249614791987
            ]
        ],
        [
            [
                0.19185441941074524,
                0.536979969183359
            ],
            [
                0.19844020797227035,
                0.5338983050847458
            ],
            [
                0.18180242634315424,
                0.44884437596302
            ]
        ],
        [
            [
                0.13188908145580588,
                0.19368258859784282
            ],
            [
                0.11525129982668976,
                0.10862865947611709
            ],
            [
                0.1797227036395147,
                0.0950693374422188
            ]
        ],
        [
            [
                0.37313691507798963,
                0.054391371340523874
            ],
            [
                0.43760831889081453,
                0.040832049306625574
            ],
            [
                0.451473136915078,
                0.03528505392912172
            ]
        ],
        [
            [
                0.4930675909878683,
                0.01864406779661017
            ],
            [
                0.5069324090121318,
                0.013097072419106317
            ],
            [
                0.5277296360485269,
                0.01802773497688752
            ]
        ],
        [
            [
                0.5901213171577123,
                0.03281972265023112
            ],
            [
                0.6109185441941075,
                0.03775038520801232
            ],
            [
                0.6421143847487002,
                0.09322033898305085
            ]
        ],
        [
            [
                0.7357019064124782,
                0.2596302003081664
            ],
            [
                0.766897746967071,
                0.3151001540832049
            ],
            [
                0.7675909878682842,
                0.32249614791987674
            ]
        ],
        [
            [
                0.7696707105719237,
                0.3446841294298921
            ],
            [
                0.7703639514731369,
                0.35208012326656396
            ],
            [
                0.7814558058925477,
                0.3613251155624037
            ]
        ],
        [
            [
                0.8147313691507798,
                0.3890600924499229
            ],
            [
                0.8258232235701907,
                0.39830508474576265
            ],
            [
                0.823050259965338,
                0.4439137134052388
            ]
        ],
        [
            [
                0.8147313691507798,
                0.5807395993836671
            ],
            [
                0.8119584055459271,
                0.6263482280431432
            ],
            [
                0.8175043327556325,
                0.6288135593220338
            ]
        ],
        [
            [
                0.8474753506255188,
                0.6505496497520424
            ],
            [
                0.8530212778352241,
                0.653014981030933
            ],
            [
                0.8826223730393371,
                0.6419896155688777
            ]
        ],
        [
            [
                0.9128118491764123,
                0.6367766829381981
            ],
            [
                0.9306759098786829,
                0.6352371457057399
            ],
            [
                0.9529411764705882,
                0.6476816304333751
            ]
        ],
        [
            [
                1.0143847487001731,
                0.6781201848998458
            ],
            [
                1.035528596187175,
                0.6910631741140215
            ],
            [
                1.0438474870017331,
                0.5240369799691833
            ]
        ],
        [
            [
                1.0688041594454072,
                0.022958397534668717
            ],
            [
                1.0771230502599651,
                -0.14406779661016947
            ],
            [
                0.9627383015597919,
                -0.17426810477657934
            ]
        ],
        [
            [
                0.6195840554592721,
                -0.26486902927580896
            ],
            [
                0.5051993067590987,
                -0.2950693374422188
            ],
            [
                0.378682842287695,
                -0.2679506933744222
            ]
        ],
        [
            [
                -0.0008665511265164572,
                -0.18659476117103235
            ],
            [
                -0.12738301559792026,
                -0.15947611710323573
            ],
            [
                -0.1117850953206239,
                -0.03312788906009245
            ]
        ]
    ],
    "8960": [
        [
            [
                -0.06499133448873483,
                0.3459167950693374
            ],
            [
                -0.049393414211438474,
                0.4722650231124807
            ],
            [
                -0.014038128249566724,
                0.46795069337442213
            ]
        ],
        [
            [
                0.09202772963604852,
                0.45500770416024644
            ],
            [
                0.12738301559792026,
                0.45069337442218793
            ],
            [
                0.13500866551126517,
                0.4704160246533127
            ]
        ],
        [
            [
                0.15788561525129982,
                0.5295839753466872
            ],
            [
                0.1655112651646447,
                0.5493066255778121
            ],
            [
                0.17209705372616982,
                0.5462249614791987
            ]
        ],
        [
            [
                0.19185441941074524,
                0.536979969183359
            ],
            [
                0.19844020797227035,
                0.5338983050847458
            ],
            [
                0.18180242634315424,
                0.44884437596302
            ]
        ],
        [
            [
                0.13188908145580588,
                0.19368258859784282
            ],
            [
                0.11525129982668976,
                0.10862865947611709
            ],
            [
                0.1797227036395147,
                0.0950693374422188
            ]
        ],
        [
            [
                0.37313691507798963,
                0.054391371340523874
            ],
            [
                0.43760831889081453,
                0.040832049306625574
            ],
            [
                0.451473136915078,
                0.03528505392912172
            ]
        ],
        [
            [
                0.4930675909878683,
                0.01864406779661017
            ],
            [
                0.5069324090121318,
                0.013097072419106317
            ],
            [
                0.5277296360485269,
                0.01802773497688752
            ]
        ],
        [
            [
                0.5901213171577123,
                0.03281972265023112
            ],
            [
                0.6109185441941075,
                0.03775038520801232
            ],
            [
                0.6421143847487002,
                0.09322033898305085
            ]
        ],
        [
            [
                0.7357019064124782,
                0.2596302003081664
            ],
            [
                0.766897746967071,
                0.3151001540832049
            ],
            [
                0.7675909878682842,
                0.32249614791987674
            ]
        ],
        [
            [
                0.7696707105719237,
                0.3446841294298921
            ],
            [
                0.7703639514731369,
                0.35208012326656396
            ],
            [
                0.7814558058925477,
                0.3613251155624037
            ]
        ],
        [
            [
                0.8147313691507798,
                0.3890600924499229
            ],
            [
                0.8258232235701907,
                0.39830508474576265
            ],
            [
                0.823050259965338,
                0.4439137134052388
            ]
        ],
        [
            [
                0.8147313691507798,
                0.5807395993836671
            ],
            [
                0.8119584055459271,
                0.6263482280431432
            ],
            [
                0.8175043327556325,
                0.6288135593220338
            ]
        ],
        [
            [
                0.84645951968309,
                0.651452784503632
            ],
            [
                0.8520054468927952,
                0.6539181157825225
            ],
            [
                0.8785590492696211,
                0.6443979749064493
            ]
        ],
        [
            [
                0.9126764050507552,
                0.6378604446401055
            ],
            [
                0.9306759098786829,
                0.6355381906229363
            ],
            [
                0.9519930675909879,
                0.6484041382346466
            ]
        ],
        [
            [
                1.0143847487001731,
                0.6781201848998458
            ],
            [
                1.035528596187175,
                0.6910631741140215
            ],
            [
                1.0438474870017331,
                0.5240369799691833
            ]
        ],
        [
            [
                1.0688041594454072,
                0.022958397534668717
            ],
            [
                1.0771230502599651,
                -0.14406779661016947
            ],
            [
                0.9627383015597919,
                -0.17426810477657934
            ]
        ],
        [
            [
                0.6195840554592721,
                -0.26486902927580896
            ],
            [
                0.5051993067590987,
                -0.2950693374422188
            ],
            [
                0.378682842287695,
                -0.2679506933744222
            ]
        ],
        [
            [
                -0.0008665511265164572,
                -0.18659476117103235
            ],
            [
                -0.12738301559792026,
                -0.15947611710323573
            ],
            [
                -0.1117850953206239,
                -0.03312788906009245
            ]
        ]
    ],
    "8967": [
        [
            [
                -0.06499133448873483,
                0.3459167950693374
            ],
            [
                -0.049393414211438474,
                0.4722650231124807
            ],
            [
                -0.014038128249566724,
                0.46795069337442213
            ]
        ],
        [
            [
                0.09202772963604852,
                0.45500770416024644
            ],
            [
                0.12738301559792026,
                0.45069337442218793
            ],
            [
                0.13500866551126517,
                0.4704160246533127
            ]
        ],
        [
            [
                0.15788561525129982,
                0.5295839753466872
            ],
            [
                0.1655112651646447,
                0.5493066255778121
            ],
            [
                0.17209705372616982,
                0.5462249614791987
            ]
        ],
        [
            [
                0.19185441941074524,
                0.536979969183359
            ],
            [
                0.19844020797227035,
                0.5338983050847458
            ],
            [
                0.18180242634315424,
                0.44884437596302
            ]
        ],
        [
            [
                0.13188908145580588,
                0.19368258859784282
            ],
            [
                0.11525129982668976,
                0.10862865947611709
            ],
            [
                0.1797227036395147,
                0.0950693374422188
            ]
        ],
        [
            [
                0.37313691507798963,
                0.054391371340523874
            ],
            [
                0.43760831889081453,
                0.040832049306625574
            ],
            [
                0.451473136915078,
                0.03528505392912172
            ]
        ],
        [
            [
                0.4930675909878683,
                0.01864406779661017
            ],
            [
                0.5069324090121318,
                0.013097072419106317
            ],
            [
                0.5277296360485269,
                0.01802773497688752
            ]
        ],
        [
            [
                0.5901213171577123,
                0.03281972265023112
            ],
            [
                0.6109185441941075,
                0.03775038520801232
            ],
            [
                0.6421143847487002,
                0.09322033898305085
            ]
        ],
        [
            [
                0.7357019064124782,
                0.2596302003081664
            ],
            [
                0.766897746967071,
                0.3151001540832049
            ],
            [
                0.7675909878682842,
                0.32249614791987674
            ]
        ],
        [
            [
                0.7696707105719237,
                0.3446841294298921
            ],
            [
                0.7703639514731369,
                0.35208012326656396
            ],
            [
                0.7814558058925477,
                0.3613251155624037
            ]
        ],
        [
            [
                0.8147313691507798,
                0.3890600924499229
            ],
            [
                0.8258232235701907,
                0.39830508474576265
            ],
            [
                0.823050259965338,
                0.4439137134052388
            ]
        ],
        [
            [
                0.8591670935838883,
                0.5327495802957477
            ],
            [
                0.8563941299790356,
                0.5783582089552238
            ],
            [
                0.861940057188741,
                0.5808235402341144
            ]
        ],
        [
            [
                0.8464212894863318,
                0.6514867734458961
            ],
            [
                0.8519672166960371,
                0.6539521047247866
            ],
            [
                0.8784061284825888,
                0.6444886120858203
            ]
        ],
        [
            [
                0.9126713076911874,
                0.6379012313708223
            ],
            [
                0.9306759098786829,
                0.6355495202703576
            ],
            [
                0.9519573860740136,
                0.6484313293884579
            ]
        ],
        [
            [
                1.0143847487001731,
                0.6781201848998458
            ],
            [
                1.035528596187175,
                0.6910631741140215
            ],
            [
                1.0438474870017331,
                0.5240369799691833
            ]
        ],
        [
            [
                1.0688041594454072,
                0.022958397534668717
            ],
            [
                1.0771230502599651,
                -0.14406779661016947
            ],
            [
                0.9627383015597919,
                -0.17426810477657934
            ]
        ],
        [
            [
                0.6195840554592721,
                -0.26486902927580896
            ],
            [
                0.5051993067590987,
                -0.2950693374422188
            ],
            [
                0.378682842287695,
                -0.2679506933744222
            ]
        ],
        [
            [
                -0.0008665511265164572,
                -0.18659476117103235
            ],
            [
                -0.12738301559792026,
                -0.15947611710323573
            ],
            [
                -0.1117850953206239,
                -0.03312788906009245
            ]
        ]
    ],
    "8971": [
        [
            [
                -0.06499133448873483,
                0.3459167950693374
            ],
            [
                -0.049393414211438474,
                0.4722650231124807
            ],
            [
                -0.014038128249566724,
                0.46795069337442213
            ]
        ],
        [
            [
                0.09202772963604852,
                0.45500770416024644
            ],
            [
                0.12738301559792026,
                0.45069337442218793
            ],
            [
                0.13500866551126517,
                0.4704160246533127
            ]
        ],
        [
            [
                0.15788561525129982,
                0.5295839753466872
            ],
            [
                0.1655112651646447,
                0.5493066255778121
            ],
            [
                0.17209705372616982,
                0.5462249614791987
            ]
        ],
        [
            [
                0.19185441941074524,
                0.536979969183359
            ],
            [
                0.19844020797227035,
                0.5338983050847458
            ],
            [
                0.18180242634315424,
                0.44884437596302
            ]
        ],
        [
            [
                0.13188908145580588,
                0.19368258859784282
            ],
            [
                0.11525129982668976,
                0.10862865947611709
            ],
            [
                0.1797227036395147,
                0.0950693374422188
            ]
        ],
        [
            [
                0.37313691507798963,
                0.054391371340523874
            ],
            [
                0.43760831889081453,
                0.040832049306625574
            ],
            [
                0.451473136915078,
                0.03528505392912172
            ]
        ],
        [
            [
                0.4930675909878683,
                0.01864406779661017
            ],
            [
                0.5069324090121318,
                0.013097072419106317
            ],
            [
                0.5277296360485269,
                0.01802773497688752
            ]
        ],
        [
            [
                0.5901213171577123,
                0.03281972265023112
            ],
            [
                0.6109185441941075,
                0.03775038520801232
            ],
            [
                0.6421143847487002,
                0.09322033898305085
            ]
        ],
        [
            [
                0.7357019064124782,
                0.2596302003081664
            ],
            [
                0.766897746967071,
                0.3151001540832049
            ],
            [
                0.7675909878682842,
                0.32249614791987674
            ]
        ],
        [
            [
                0.7696707105719237,
                0.3446841294298921
            ],
            [
                0.7703639514731369,
                0.35208012326656396
            ],
            [
                0.7814558058925477,
                0.3613251155624037
            ]
        ],
        [
            [
                0.8147313691507798,
                0.3890600924499229
            ],
            [
                0.8258232235701907,
                0.39830508474576265
            ],
            [
                0.823050259965338,
                0.4439137134052388
            ]
        ],
        [
            [
                0.8895654164350414,
                0.5383465952211208
            ],
            [
                0.8867924528301887,
                0.583955223880597
            ],
            [
                0.892338380039894,
                0.5864205551594875
            ]
        ],
        [
            [
                0.8463994436596128,
                0.6515061956986186
            ],
            [
                0.8519453708693182,
                0.6539715269775089
            ],
            [
                0.8783187451757133,
                0.6445404047597466
            ]
        ],
        [
            [
                0.9126683949142915,
                0.6379245380740892
            ],
            [
                0.9306759098786829,
                0.6355559943545984
            ],
            [
                0.9519369966357426,
                0.6484468671906358
            ]
        ],
        [
            [
                1.0143847487001731,
                0.6781201848998458
            ],
            [
                1.035528596187175,
                0.6910631741140215
            ],
            [
                1.0438474870017331,
                0.5240369799691833
            ]
        ],
        [
            [
                1.0688041594454072,
                0.022958397534668717
            ],
            [
                1.0771230502599651,
                -0.14406779661016947
            ],
            [
                0.9627383015597919,
                -0.17426810477657934
            ]
        ],
        [
            [
                0.6195840554592721,
                -0.26486902927580896
            ],
            [
                0.5051993067590987,
                -0.2950693374422188
            ],
            [
                0.378682842287695,
                -0.2679506933744222
            ]
        ],
        [
            [
                -0.0008665511265164572,
                -0.18659476117103235
            ],
            [
                -0.12738301559792026,
                -0.15947611710323573
            ],
            [
                -0.1117850953206239,
                -0.03312788906009245
            ]
        ]
    ],
    "8976": [
        [
            [
                -0.06499133448873483,
                0.3459167950693374
            ],
            [
                -0.049393414211438474,
                0.4722650231124807
            ],
            [
                -0.014038128249566724,
                0.46795069337442213
            ]
        ],
        [
            [
                0.09202772963604852,
                0.45500770416024644
            ],
            [
                0.12738301559792026,
                0.45069337442218793
            ],
            [
                0.13500866551126517,
                0.4704160246533127
            ]
        ],
        [
            [
                0.15788561525129982,
                0.5295839753466872
            ],
            [
                0.1655112651646447,
                0.5493066255778121
            ],
            [
                0.17209705372616982,
                0.5462249614791987
            ]
        ],
        [
            [
                0.19185441941074524,
                0.536979969183359
            ],
            [
                0.19844020797227035,
                0.5338983050847458
            ],
            [
                0.18180242634315424,
                0.44884437596302
            ]
        ],
        [
            [
                0.13188908145580588,
                0.19368258859784282
            ],
            [
                0.11525129982668976,
                0.10862865947611709
            ],
            [
                0.1797227036395147,
                0.0950693374422188
            ]
        ],
        [
            [
                0.37313691507798963,
                0.054391371340523874
            ],
            [
                0.43760831889081453,
                0.040832049306625574
            ],
            [
                0.451473136915078,
                0.03528505392912172
            ]
        ],
        [
            [
                0.4930675909878683,
                0.01864406779661017
            ],
            [
                0.5069324090121318,
                0.013097072419106317
            ],
            [
                0.5277296360485269,
                0.01802773497688752
            ]
        ],
        [
            [
                0.5901213171577123,
                0.03281972265023112
            ],
            [
                0.6109185441941075,
                0.03775038520801232
            ],
            [
                0.6421143847487002,
                0.09322033898305085
            ]
        ],
        [
            [
                0.7357019064124782,
                0.2596302003081664
            ],
            [
                0.766897746967071,
                0.3151001540832049
            ],
            [
                0.7675909878682842,
                0.32249614791987674
            ]
        ],
        [
            [
                0.7696707105719237,
                0.3446841294298921
            ],
            [
                0.7703639514731369,
                0.35208012326656396
            ],
            [
                0.7814558058925477,
                0.3613251155624037
            ]
        ],
        [
            [
                0.8147313691507798,
                0.3890600924499229
            ],
            [
                0.8258232235701907,
                0.39830508474576265
            ],
            [
                0.823050259965338,
                0.4439137134052388
            ]
        ],
        [
            [
                0.8906136344643915,
                0.5234212220867925
            ],
            [
                0.8878406708595388,
                0.5690298507462687
            ],
            [
                0.893386598069244,
                0.5714951820251593
            ]
        ],
        [
            [
                0.8463721363762142,
                0.6515304735145214
            ],
            [
                0.8519180635859196,
                0.6539958047934118
            ],
            [
                0.8782095160421188,
                0.6446051456021544
            ]
        ],
        [
            [
                0.9126647539431717,
                0.6379536714531727
            ],
            [
                0.9306759098786829,
                0.6355640869598994
            ],
            [
                0.951911509837904,
                0.6484662894433582
            ]
        ],
        [
            [
                1.0143847487001731,
                0.6781201848998458
            ],
            [
                1.035528596187175,
                0.6910631741140215
            ],
            [
                1.0438474870017331,
                0.5240369799691833
            ]
        ],
        [
            [
                1.0688041594454072,
                0.022958397534668717
            ],
            [
                1.0771230502599651,
                -0.14406779661016947
            ],
            [
                0.9627383015597919,
                -0.17426810477657934
            ]
        ],
        [
            [
                0.6195840554592721,
                -0.26486902927580896
            ],
            [
                0.5051993067590987,
                -0.2950693374422188
            ],
            [
                0.378682842287695,
                -0.2679506933744222
            ]
        ],
        [
            [
                -0.0008665511265164572,
                -0.18659476117103235
            ],
            [
                -0.12738301559792026,
                -0.15947611710323573
            ],
            [
                -0.1117850953206239,
                -0.03312788906009245
            ]
        ]
    ],
    "8980": [
        [
            [
                -0.06499133448873483,
                0.3459167950693374
            ],
            [
                -0.049393414211438474,
                0.4722650231124807
            ],
            [
                -0.014038128249566724,
                0.46795069337442213
            ]
        ],
        [
            [
                0.09202772963604852,
                0.45500770416024644
            ],
            [
                0.12738301559792026,
                0.45069337442218793
            ],
            [
                0.13500866551126517,
                0.4704160246533127
            ]
        ],
        [
            [
                0.15788561525129982,
                0.5295839753466872
            ],
            [
                0.1655112651646447,
                0.5493066255778121
            ],
            [
                0.17209705372616982,
                0.5462249614791987
            ]
        ],
        [
            [
                0.19185441941074524,
                0.536979969183359
            ],
            [
                0.19844020797227035,
                0.5338983050847458
            ],
            [
                0.18180242634315424,
                0.44884437596302
            ]
        ],
        [
            [
                0.13188908145580588,
                0.19368258859784282
            ],
            [
                0.11525129982668976,
                0.10862865947611709
            ],
            [
                0.1797227036395147,
                0.0950693374422188
            ]
        ],
        [
            [
                0.37313691507798963,
                0.054391371340523874
            ],
            [
                0.43760831889081453,
                0.040832049306625574
            ],
            [
                0.451473136915078,
                0.03528505392912172
            ]
        ],
        [
            [
                0.4930675909878683,
                0.01864406779661017
            ],
            [
                0.5069324090121318,
                0.013097072419106317
            ],
            [
                0.5277296360485269,
                0.01802773497688752
            ]
        ],
        [
            [
                0.5901213171577123,
                0.03281972265023112
            ],
            [
                0.6109185441941075,
                0.03775038520801232
            ],
            [
                0.6421143847487002,
                0.09322033898305085
            ]
        ],
        [
            [
                0.7357019064124782,
                0.2596302003081664
            ],
            [
                0.766897746967071,
                0.3151001540832049
            ],
            [
                0.7675909878682842,
                0.32249614791987674
            ]
        ],
        [
            [
                0.7696707105719237,
                0.3446841294298921
            ],
            [
                0.7703639514731369,
                0.35208012326656396
            ],
            [
                0.7814558058925477,
                0.3613251155624037
            ]
        ],
        [
            [
                0.8147313691507798,
                0.3890600924499229
            ],
            [
                0.8258232235701907,
                0.39830508474576265
            ],
            [
                0.823050259965338,
                0.4439137134052388
            ]
        ],
        [
            [
                0.8843243262882907,
                0.5327495802957477
            ],
            [
                0.8815513626834381,
                0.5783582089552238
            ],
            [
                0.8870972898931434,
                0.5808235402341144
            ]
        ],
        [
            [
                0.8463502905494953,
                0.6515498957672438
            ],
            [
                0.8518962177592007,
                0.6540152270461341
            ],
            [
                0.8781221327352431,
                0.6446569382760806
            ]
        ],
        [
            [
                0.9126618411662758,
                0.6379769781564396
            ],
            [
                0.9306759098786829,
                0.6355705610441402
            ],
            [
                0.951891120399633,
                0.648481827245536
            ]
        ],
        [
            [
                1.0143847487001731,
                0.6781201848998458
            ],
            [
                1.035528596187175,
                0.6910631741140215
            ],
            [
                1.0438474870017331,
                0.5240369799691833
            ]
        ],
        [
            [
                1.0688041594454072,
                0.022958397534668717
            ],
            [
                1.0771230502599651,
                -0.14406779661016947
            ],
            [
                0.9627383015597919,
                -0.17426810477657934
            ]
        ],
        [
            [
                0.6195840554592721,
                -0.26486902927580896
            ],
            [
                0.5051993067590987,
                -0.2950693374422188
            ],
            [
                0.378682842287695,
                -0.2679506933744222
            ]
        ],
        [
            [
                -0.0008665511265164572,
                -0.18659476117103235
            ],
            [
                -0.12738301559792026,
                -0.15947611710323573
            ],
            [
                -0.1117850953206239,
                -0.03312788906009245
            ]
        ]
    ],
    "8994": [
        [
            [
                -0.06499133448873483,
                0.3459167950693374
            ],
            [
                -0.049393414211438474,
                0.4722650231124807
            ],
            [
                -0.014038128249566724,
                0.46795069337442213
            ]
        ],
        [
            [
                0.09202772963604852,
                0.45500770416024644
            ],
            [
                0.12738301559792026,
                0.45069337442218793
            ],
            [
                0.13500866551126517,
                0.4704160246533127
            ]
        ],
        [
            [
                0.15788561525129982,
                0.5295839753466872
            ],
            [
                0.1655112651646447,
                0.5493066255778121
            ],
            [
                0.17209705372616982,
                0.5462249614791987
            ]
        ],
        [
            [
                0.19185441941074524,
                0.536979969183359
            ],
            [
                0.19844020797227035,
                0.5338983050847458
            ],
            [
                0.18180242634315424,
                0.44884437596302
            ]
        ],
        [
            [
                0.13188908145580588,
                0.19368258859784282
            ],
            [
                0.11525129982668976,
                0.10862865947611709
            ],
            [
                0.1797227036395147,
                0.0950693374422188
            ]
        ],
        [
            [
                0.37313691507798963,
                0.054391371340523874
            ],
            [
                0.43760831889081453,
                0.040832049306625574
            ],
            [
                0.451473136915078,
                0.03528505392912172
            ]
        ],
        [
            [
                0.4930675909878683,
                0.01864406779661017
            ],
            [
                0.5069324090121318,
                0.013097072419106317
            ],
            [
                0.5277296360485269,
                0.01802773497688752
            ]
        ],
        [
            [
                0.5901213171577123,
                0.03281972265023112
            ],
            [
                0.6109185441941075,
                0.03775038520801232
            ],
            [
                0.6421143847487002,
                0.09322033898305085
            ]
        ],
        [
            [
                0.7357019064124782,
                0.2596302003081664
            ],
            [
                0.766897746967071,
                0.3151001540832049
            ],
            [
                0.7675909878682842,
                0.32249614791987674
            ]
        ],
        [
            [
                0.7696707105719237,
                0.3446841294298921
            ],
            [
                0.7703639514731369,
                0.35208012326656396
            ],
            [
                0.7814558058925477,
                0.3613251155624037
            ]
        ],
        [
            [
                0.8147313691507798,
                0.3890600924499229
            ],
            [
                0.8258232235701907,
                0.39830508474576265
            ],
            [
                0.823050259965338,
                0.4439137134052388
            ]
        ],
        [
            [
                0.8147313691507798,
                0.5807395993836671
            ],
            [
                0.8119584055459271,
                0.6263482280431432
            ],
            [
                0.8175043327556325,
                0.6288135593220338
            ]
        ],
        [
            [
                0.8462738301559792,
                0.651617873651772
            ],
            [
                0.8518197573656845,
                0.6540832049306624
            ],
            [
                0.8778162911611784,
                0.6448382126348227
            ]
        ],
        [
            [
                0.9126516464471404,
                0.6380585516178734
            ],
            [
                0.9306759098786829,
                0.6355932203389829
            ],
            [
                0.9518197573656846,
                0.6485362095531586
            ]
        ],
        [
            [
                1.0143847487001731,
                0.6781201848998458
            ],
            [
                1.035528596187175,
                0.6910631741140215
            ],
            [
                1.0438474870017331,
                0.5240369799691833
            ]
        ],
        [
            [
                1.0688041594454072,
                0.022958397534668717
            ],
            [
                1.0771230502599651,
                -0.14406779661016947
            ],
            [
                0.9627383015597919,
                -0.17426810477657934
            ]
        ],
        [
            [
                0.6195840554592721,
                -0.26486902927580896
            ],
            [
                0.5051993067590987,
                -0.2950693374422188
            ],
            [
                0.378682842287695,
                -0.2679506933744222
            ]
        ],
        [
            [
                -0.0008665511265164572,
                -0.18659476117103235
            ],
            [
                -0.12738301559792026,
                -0.15947611710323573
            ],
            [
                -0.1117850953206239,
                -0.03312788906009245
            ]
        ]
    ],
    "9003": [
        [
            [
                -0.06499133448873483,
                0.3459167950693374
            ],
            [
                -0.049393414211438474,
                0.4722650231124807
            ],
            [
                -0.014038128249566724,
                0.46795069337442213
            ]
        ],
        [
            [
                0.09202772963604852,
                0.45500770416024644
            ],
            [
                0.12738301559792026,
                0.45069337442218793
            ],
            [
                0.13500866551126517,
                0.4704160246533127
            ]
        ],
        [
            [
                0.15788561525129982,
                0.5295839753466872
            ],
            [
                0.1655112651646447,
                0.5493066255778121
            ],
            [
                0.17209705372616982,
                0.5462249614791987
            ]
        ],
        [
            [
                0.19185441941074524,
                0.536979969183359
            ],
            [
                0.19844020797227035,
                0.5338983050847458
            ],
            [
                0.18180242634315424,
                0.44884437596302
            ]
        ],
        [
            [
                0.13188908145580588,
                0.19368258859784282
            ],
            [
                0.11525129982668976,
                0.10862865947611709
            ],
            [
                0.1797227036395147,
                0.0950693374422188
            ]
        ],
        [
            [
                0.241421143847487,
                -0.02727272727272727
            ],
            [
                0.30589254766031193,
                -0.040832049306625574
            ],
            [
                0.31975736568457536,
                -0.046379044684129435
            ]
        ],
        [
            [
                0.4731369150779895,
                -0.030662557781201846
            ],
            [
                0.487001733102253,
                -0.0362095531587057
            ],
            [
                0.5077989601386481,
                -0.031278890600924494
            ]
        ],
        [
            [
                0.5849220103986136,
                -0.05038520801232666
            ],
            [
                0.6057192374350087,
                -0.04545454545454545
            ],
            [
                0.6369150779896013,
                0.010015408320493073
            ]
        ],
        [
            [
                0.7616984402079722,
                -0.13482280431432983
            ],
            [
                0.792894280762565,
                -0.07935285053929121
            ],
            [
                0.7935875216637781,
                -0.07195685670261942
            ]
        ],
        [
            [
                0.7696707105719237,
                0.3446841294298921
            ],
            [
                0.7703639514731369,
                0.35208012326656396
            ],
            [
                0.7814558058925477,
                0.3613251155624037
            ]
        ],
        [
            [
                0.8147313691507798,
                0.3890600924499229
            ],
            [
                0.8258232235701907,
                0.39830508474576265
            ],
            [
                0.823050259965338,
                0.4439137134052388
            ]
        ],
        [
            [
                0.8147313691507798,
                0.5807395993836671
            ],
            [
                0.8119584055459271,
                0.6263482280431432
            ],
            [
                0.8175043327556325,
                0.6288135593220338
            ]
        ],
        [
            [
                0.8506065857885615,
                0.6500770416024647
            ],
            [
                0.8561525129982669,
                0.6525423728813559
            ],
            [
                0.8795493934142115,
                0.6448382126348227
            ]
        ],
        [
            [
                0.9107452339688041,
                0.6386748844375962
            ],
            [
                0.9376083188908145,
                0.6386748844375962
            ],
            [
                0.9587521663778162,
                0.6516178736517716
            ]
        ],
        [
            [
                1.0143847487001731,
                0.6781201848998458
            ],
            [
                1.035528596187175,
                0.6910631741140215
            ],
            [
                1.0438474870017331,
                0.5240369799691833
            ]
        ],
        [
            [
                1.0688041594454072,
                0.022958397534668717
            ],
            [
                1.0771230502599651,
                -0.14406779661016947
            ],
            [
                0.9627383015597919,
                -0.17426810477657934
            ]
        ],
        [
            [
                0.6195840554592721,
                -0.26486902927580896
            ],
            [
                0.5051993067590987,
                -0.2950693374422188
            ],
            [
                0.378682842287695,
                -0.2679506933744222
            ]
        ],
        [
            [
                -0.0008665511265164572,
                -0.18659476117103235
            ],
            [
                -0.12738301559792026,
                -0.15947611710323573
            ],
            [
                -0.1117850953206239,
                -0.03312788906009245
            ]
        ]
    ],
    "9004": [
        [
            [
                -0.06499133448873483,
                0.3459167950693374
            ],
            [
                -0.049393414211438474,
                0.4722650231124807
            ],
            [
                -0.014038128249566724,
                0.46795069337442213
            ]
        ],
        [
            [
                0.09202772963604852,
                0.45500770416024644
            ],
            [
                0.12738301559792026,
                0.45069337442218793
            ],
            [
                0.13500866551126517,
                0.4704160246533127
            ]
        ],
        [
            [
                0.15788561525129982,
                0.5295839753466872
            ],
            [
                0.1655112651646447,
                0.5493066255778121
            ],
            [
                0.17209705372616982,
                0.5462249614791987
            ]
        ],
        [
            [
                0.19185441941074524,
                0.536979969183359
            ],
            [
                0.19844020797227035,
                0.5338983050847458
            ],
            [
                0.18180242634315424,
                0.44884437596302
            ]
        ],
        [
            [
                0.13188908145580588,
                0.19368258859784282
            ],
            [
                0.11525129982668976,
                0.10862865947611709
            ],
            [
                0.1797227036395147,
                0.0950693374422188
            ]
        ],
        [
            [
                0.241421143847487,
                -0.02727272727272727
            ],
            [
                0.30589254766031193,
                -0.040832049306625574
            ],
            [
                0.31975736568457536,
                -0.046379044684129435
            ]
        ],
        [
            [
                0.4731369150779895,
                -0.030662557781201846
            ],
            [
                0.487001733102253,
                -0.0362095531587057
            ],
            [
                0.5077989601386481,
                -0.031278890600924494
            ]
        ],
        [
            [
                0.5849220103986136,
                -0.05038520801232666
            ],
            [
                0.6057192374350087,
                -0.04545454545454545
            ],
            [
                0.6369150779896013,
                0.010015408320493073
            ]
        ],
        [
            [
                0.7924610051993066,
                -0.12018489984591688
            ],
            [
                0.8236568457538993,
                -0.06471494607087827
            ],
            [
                0.8243500866551126,
                -0.05731895223420647
            ]
        ],
        [
            [
                0.7791809729352648,
                0.3489472897454178
            ],
            [
                0.779874213836478,
                0.35634328358208955
            ],
            [
                0.7909660682558888,
                0.3655882758779292
            ]
        ],
        [
            [
                0.8147313691507798,
                0.3890600924499229
            ],
            [
                0.8258232235701907,
                0.39830508474576265
            ],
            [
                0.823050259965338,
                0.4439137134052388
            ]
        ],
        [
            [
                0.8147313691507798,
                0.5807395993836671
            ],
            [
                0.8119584055459271,
                0.6263482280431432
            ],
            [
                0.8175043327556325,
                0.6288135593220338
            ]
        ],
        [
            [
                0.8503899480069325,
                0.6500770416024648
            ],
            [
                0.8559358752166377,
                0.6525423728813559
            ],
            [
                0.8779896013864817,
                0.6461479198767334
            ]
        ],
        [
            [
                0.908578856152513,
                0.6394453004622495
            ],
            [
                0.9356585788561524,
                0.6390600924499229
            ],
            [
                0.957582322357019,
                0.6506933744221877
            ]
        ],
        [
            [
                1.0143847487001731,
                0.6781201848998458
            ],
            [
                1.035528596187175,
                0.6910631741140215
            ],
            [
                1.0438474870017331,
                0.5240369799691833
            ]
        ],
        [
            [
                1.0688041594454072,
                0.022958397534668717
            ],
            [
                1.0771230502599651,
                -0.14406779661016947
            ],
            [
                0.9627383015597919,
                -0.17426810477657934
            ]
        ],
        [
            [
                0.6195840554592721,
                -0.26486902927580896
            ],
            [
                0.5051993067590987,
                -0.2950693374422188
            ],
            [
                0.378682842287695,
                -0.2679506933744222
            ]
        ],
        [
            [
                -0.0008665511265164572,
                -0.18659476117103235
            ],
            [
                -0.12738301559792026,
                -0.15947611710323573
            ],
            [
                -0.1117850953206239,
                -0.03312788906009245
            ]
        ]
    ],
    "9007": [
        [
            [
                -0.06499133448873483,
                0.3459167950693374
            ],
            [
                -0.049393414211438474,
                0.4722650231124807
            ],
            [
                -0.014038128249566724,
                0.46795069337442213
            ]
        ],
        [
            [
                0.09202772963604852,
                0.45500770416024644
            ],
            [
                0.12738301559792026,
                0.45069337442218793
            ],
            [
                0.13500866551126517,
                0.4704160246533127
            ]
        ],
        [
            [
                0.15788561525129982,
                0.5295839753466872
            ],
            [
                0.1655112651646447,
                0.5493066255778121
            ],
            [
                0.17209705372616982,
                0.5462249614791987
            ]
        ],
        [
            [
                0.19185441941074524,
                0.536979969183359
            ],
            [
                0.19844020797227035,
                0.5338983050847458
            ],
            [
                0.18180242634315424,
                0.44884437596302
            ]
        ],
        [
            [
                0.13188908145580588,
                0.19368258859784282
            ],
            [
                0.11525129982668976,
                0.10862865947611709
            ],
            [
                0.1797227036395147,
                0.0950693374422188
            ]
        ],
        [
            [
                0.241421143847487,
                -0.02727272727272727
            ],
            [
                0.30589254766031193,
                -0.040832049306625574
            ],
            [
                0.31975736568457536,
                -0.046379044684129435
            ]
        ],
        [
            [
                0.4731369150779895,
                -0.030662557781201846
            ],
            [
                0.487001733102253,
                -0.0362095531587057
            ],
            [
                0.5077989601386481,
                -0.031278890600924494
            ]
        ],
        [
            [
                0.5849220103986136,
                -0.05038520801232666
            ],
            [
                0.6057192374350087,
                -0.04545454545454545
            ],
            [
                0.6369150779896013,
                0.010015408320493073
            ]
        ],
        [
            [
                0.8847487001733101,
                -0.07627118644067804
            ],
            [
                0.9159445407279029,
                -0.020801232665639442
            ],
            [
                0.9166377816291161,
                -0.013405238828967648
            ]
        ],
        [
            [
                0.7696707105719237,
                0.3446841294298921
            ],
            [
                0.7703639514731369,
                0.35208012326656396
            ],
            [
                0.7814558058925477,
                0.3613251155624037
            ]
        ],
        [
            [
                0.8147313691507798,
                0.3890600924499229
            ],
            [
                0.8258232235701907,
                0.39830508474576265
            ],
            [
                0.823050259965338,
                0.4439137134052388
            ]
        ],
        [
            [
                0.8147313691507798,
                0.5807395993836671
            ],
            [
                0.8119584055459271,
                0.6263482280431432
            ],
            [
                0.8175043327556325,
                0.6288135593220338
            ]
        ],
        [
            [
                0.8497400346620451,
                0.6500770416024652
            ],
            [
                0.8552859618717504,
                0.6525423728813559
            ],
            [
                0.8733102253032928,
                0.6500770416024652
            ]
        ],
        [
            [
                0.9020797227036395,
                0.6417565485362093
            ],
            [
                0.9298093587521663,
                0.6402157164869029
            ],
            [
                0.9540727902946273,
                0.6479198767334359
            ]
        ],
        [
            [
                1.0143847487001731,
                0.6781201848998458
            ],
            [
                1.035528596187175,
                0.6910631741140215
            ],
            [
                1.0438474870017331,
                0.5240369799691833
            ]
        ],
        [
            [
                1.0688041594454072,
                0.022958397534668717
            ],
            [
                1.0771230502599651,
                -0.14406779661016947
            ],
            [
                0.9627383015597919,
                -0.17426810477657934
            ]
        ],
        [
            [
                0.6195840554592721,
                -0.26486902927580896
            ],
            [
                0.5051993067590987,
                -0.2950693374422188
            ],
            [
                0.378682842287695,
                -0.2679506933744222
            ]
        ],
        [
            [
                -0.0008665511265164572,
                -0.18659476117103235
            ],
            [
                -0.12738301559792026,
                -0.15947611710323573
            ],
            [
                -0.1117850953206239,
                -0.03312788906009245
            ]
        ]
    ],
    "9015": [
        [
            [
                -0.06499133448873483,
                0.3459167950693374
            ],
            [
                -0.049393414211438474,
                0.4722650231124807
            ],
            [
                -0.014038128249566724,
                0.46795069337442213
            ]
        ],
        [
            [
                0.09202772963604852,
                0.45500770416024644
            ],
            [
                0.12738301559792026,
                0.45069337442218793
            ],
            [
                0.13500866551126517,
                0.4704160246533127
            ]
        ],
        [
            [
                0.15788561525129982,
                0.5295839753466872
            ],
            [
                0.1655112651646447,
                0.5493066255778121
            ],
            [
                0.17209705372616982,
                0.5462249614791987
            ]
        ],
        [
            [
                0.19185441941074524,
                0.536979969183359
            ],
            [
                0.19844020797227035,
                0.5338983050847458
            ],
            [
                0.18180242634315424,
                0.44884437596302
            ]
        ],
        [
            [
                0.13188908145580588,
                0.19368258859784282
            ],
            [
                0.11525129982668976,
                0.10862865947611709
            ],
            [
                0.1797227036395147,
                0.0950693374422188
            ]
        ],
        [
            [
                0.241421143847487,
                -0.02727272727272727
            ],
            [
                0.30589254766031193,
                -0.040832049306625574
            ],
            [
                0.31975736568457536,
                -0.046379044684129435
            ]
        ],
        [
            [
                0.4731369150779895,
                -0.030662557781201846
            ],
            [
                0.487001733102253,
                -0.0362095531587057
            ],
            [
                0.5077989601386481,
                -0.031278890600924494
            ]
        ],
        [
            [
                0.5849220103986136,
                -0.05038520801232666
            ],
            [
                0.6057192374350087,
                -0.04545454545454545
            ],
            [
                0.6369150779896013,
                0.010015408320493073
            ]
        ],
        [
            [
                0.8847487001733101,
                -0.07627118644067804
            ],
            [
                0.9159445407279029,
                -0.020801232665639442
            ],
            [
                0.9166377816291161,
                -0.013405238828967648
            ]
        ],
        [
            [
                0.7173361092036086,
                0.3676040061633282
            ],
            [
                0.7180293501048217,
                0.375
            ],
            [
                0.7291212045242326,
                0.3842449922958398
            ]
        ],
        [
            [
                0.7677341413877171,
                0.48329232113699594
            ],
            [
                0.778825995807128,
                0.4925373134328358
            ],
            [
                0.7760530322022753,
                0.5381459420923119
            ]
        ],
        [
            [
                0.8147313691507798,
                0.5807395993836671
            ],
            [
                0.8119584055459271,
                0.6263482280431432
            ],
            [
                0.8175043327556325,
                0.6288135593220338
            ]
        ],
        [
            [
                0.8497400346620451,
                0.6500770416024652
            ],
            [
                0.8552859618717504,
                0.6525423728813559
            ],
            [
                0.8733102253032928,
                0.6500770416024652
            ]
        ],
        [
            [
                0.9020797227036395,
                0.6417565485362093
            ],
            [
                0.9298093587521663,
                0.6402157164869029
            ],
            [
                0.9540727902946273,
                0.6479198767334359
            ]
        ],
        [
            [
                1.0143847487001731,
                0.6781201848998458
            ],
            [
                1.035528596187175,
                0.6910631741140215
            ],
            [
                1.0438474870017331,
                0.5240369799691833
            ]
        ],
        [
            [
                1.0688041594454072,
                0.022958397534668717
            ],
            [
                1.0771230502599651,
                -0.14406779661016947
            ],
            [
                0.9627383015597919,
                -0.17426810477657934
            ]
        ],
        [
            [
                0.6195840554592721,
                -0.26486902927580896
            ],
            [
                0.5051993067590987,
                -0.2950693374422188
            ],
            [
                0.378682842287695,
                -0.2679506933744222
            ]
        ],
        [
            [
                -0.0008665511265164572,
                -0.18659476117103235
            ],
            [
                -0.12738301559792026,
                -0.15947611710323573
            ],
            [
                -0.1117850953206239,
                -0.03312788906009245
            ]
        ]
    ],
    "9083": [
        [
            [
                -0.06499133448873483,
                0.3459167950693374
            ],
            [
                -0.049393414211438474,
                0.4722650231124807
            ],
            [
                -0.014038128249566724,
                0.46795069337442213
            ]
        ],
        [
            [
                0.09202772963604852,
                0.45500770416024644
            ],
            [
                0.12738301559792026,
                0.45069337442218793
            ],
            [
                0.13500866551126517,
                0.4704160246533127
            ]
        ],
        [
            [
                0.15788561525129982,
                0.5295839753466872
            ],
            [
                0.1655112651646447,
                0.5493066255778121
            ],
            [
                0.17209705372616982,
                0.5462249614791987
            ]
        ],
        [
            [
                0.19185441941074524,
                0.536979969183359
            ],
            [
                0.19844020797227035,
                0.5338983050847458
            ],
            [
                0.18180242634315424,
                0.44884437596302
            ]
        ],
        [
            [
                0.13188908145580588,
                0.19368258859784282
            ],
            [
                0.11525129982668976,
                0.10862865947611709
            ],
            [
                0.1797227036395147,
                0.0950693374422188
            ]
        ],
        [
            [
                0.241421143847487,
                -0.02727272727272727
            ],
            [
                0.30589254766031193,
                -0.040832049306625574
            ],
            [
                0.31975736568457536,
                -0.046379044684129435
            ]
        ],
        [
            [
                0.4731369150779895,
                -0.030662557781201846
            ],
            [
                0.487001733102253,
                -0.0362095531587057
            ],
            [
                0.5077989601386481,
                -0.031278890600924494
            ]
        ],
        [
            [
                0.5849220103986136,
                -0.05038520801232666
            ],
            [
                0.6057192374350087,
                -0.04545454545454545
            ],
            [
                0.6369150779896013,
                0.010015408320493073
            ]
        ],
        [
            [
                0.8847487001733101,
                -0.07627118644067804
            ],
            [
                0.9159445407279029,
                -0.020801232665639442
            ],
            [
                0.9166377816291161,
                -0.013405238828967648
            ]
        ],
        [
            [
                0.7456379959960614,
                0.356409976312582
            ],
            [
                0.7463312368972747,
                0.3638059701492537
            ],
            [
                0.7574230913166854,
                0.37305096244509345
            ]
        ],
        [
            [
                0.7698305774464173,
                0.4254565002414737
            ],
            [
                0.7809224318658281,
                0.43470149253731344
            ],
            [
                0.7781494682609754,
                0.48031012119678956
            ]
        ],
        [
            [
                0.8147313691507798,
                0.5807395993836671
            ],
            [
                0.8119584055459271,
                0.6263482280431432
            ],
            [
                0.8175043327556325,
                0.6288135593220338
            ]
        ],
        [
            [
                0.8497400346620451,
                0.6500770416024652
            ],
            [
                0.8552859618717504,
                0.6525423728813559
            ],
            [
                0.8733102253032928,
                0.6500770416024652
            ]
        ],
        [
            [
                0.9020797227036395,
                0.6417565485362093
            ],
            [
                0.9298093587521663,
                0.6402157164869029
            ],
            [
                0.9540727902946273,
                0.6479198767334359
            ]
        ],
        [
            [
                1.0143847487001731,
                0.6781201848998458
            ],
            [
                1.035528596187175,
                0.6910631741140215
            ],
            [
                1.0438474870017331,
                0.5240369799691833
            ]
        ],
        [
            [
                1.0688041594454072,
                0.022958397534668717
            ],
            [
                1.0771230502599651,
                -0.14406779661016947
            ],
            [
                0.9627383015597919,
                -0.17426810477657934
            ]
        ],
        [
            [
                0.6195840554592721,
                -0.26486902927580896
            ],
            [
                0.5051993067590987,
                -0.2950693374422188
            ],
            [
                0.378682842287695,
                -0.2679506933744222
            ]
        ],
        [
            [
                -0.0008665511265164572,
                -0.18659476117103235
            ],
            [
                -0.12738301559792026,
                -0.15947611710323573
            ],
            [
                -0.1117850953206239,
                -0.03312788906009245
            ]
        ]
    ],
    "9087": [
        [
            [
                -0.06499133448873483,
                0.3459167950693374
            ],
            [
                -0.049393414211438474,
                0.4722650231124807
            ],
            [
                -0.014038128249566724,
                0.46795069337442213
            ]
        ],
        [
            [
                0.09202772963604852,
                0.45500770416024644
            ],
            [
                0.12738301559792026,
                0.45069337442218793
            ],
            [
                0.13500866551126517,
                0.4704160246533127
            ]
        ],
        [
            [
                0.15788561525129982,
                0.5295839753466872
            ],
            [
                0.1655112651646447,
                0.5493066255778121
            ],
            [
                0.17209705372616982,
                0.5462249614791987
            ]
        ],
        [
            [
                0.19185441941074524,
                0.536979969183359
            ],
            [
                0.19844020797227035,
                0.5338983050847458
            ],
            [
                0.18180242634315424,
                0.44884437596302
            ]
        ],
        [
            [
                0.13188908145580588,
                0.19368258859784282
            ],
            [
                0.11525129982668976,
                0.10862865947611709
            ],
            [
                0.1797227036395147,
                0.0950693374422188
            ]
        ],
        [
            [
                0.241421143847487,
                -0.02727272727272727
            ],
            [
                0.30589254766031193,
                -0.040832049306625574
            ],
            [
                0.31975736568457536,
                -0.046379044684129435
            ]
        ],
        [
            [
                0.4731369150779895,
                -0.030662557781201846
            ],
            [
                0.487001733102253,
                -0.0362095531587057
            ],
            [
                0.5077989601386481,
                -0.031278890600924494
            ]
        ],
        [
            [
                0.5849220103986136,
                -0.05038520801232666
            ],
            [
                0.6057192374350087,
                -0.04545454545454545
            ],
            [
                0.6369150779896013,
                0.010015408320493073
            ]
        ],
        [
            [
                0.827294725483143,
                0.08632109100108089
            ],
            [
                0.8584905660377358,
                0.1417910447761194
            ],
            [
                0.859183806938949,
                0.14918703861279128
            ]
        ],
        [
            [
                0.7600290667044532,
                0.33919244302371043
            ],
            [
                0.7651991614255764,
                0.35261194029850745
            ],
            [
                0.7762910158449873,
                0.3618569325943472
            ]
        ],
        [
            [
                0.8057512108099073,
                0.39633937400823305
            ],
            [
                0.816843065229318,
                0.4055843663040728
            ],
            [
                0.8140701016244655,
                0.4511929949635489
            ]
        ],
        [
            [
                0.8147313691507798,
                0.5807395993836671
            ],
            [
                0.8119584055459271,
                0.6263482280431432
            ],
            [
                0.8175043327556325,
                0.6288135593220338
            ]
        ],
        [
            [
                0.8497400346620451,
                0.6500770416024652
            ],
            [
                0.8552859618717504,
                0.6525423728813559
            ],
            [
                0.8733102253032928,
                0.6500770416024652
            ]
        ],
        [
            [
                0.9020797227036395,
                0.6417565485362093
            ],
            [
                0.9298093587521663,
                0.6402157164869029
            ],
            [
                0.9540727902946273,
                0.6479198767334359
            ]
        ],
        [
            [
                1.0143847487001731,
                0.6781201848998458
            ],
            [
                1.035528596187175,
                0.6910631741140215
            ],
            [
                1.0438474870017331,
                0.5240369799691833
            ]
        ],
        [
            [
                1.0688041594454072,
                0.022958397534668717
            ],
            [
                1.0771230502599651,
                -0.14406779661016947
            ],
            [
                0.9627383015597919,
                -0.17426810477657934
            ]
        ],
        [
            [
                0.6195840554592721,
                -0.26486902927580896
            ],
            [
                0.5051993067590987,
                -0.2950693374422188
            ],
            [
                0.378682842287695,
                -0.2679506933744222
            ]
        ],
        [
            [
                -0.0008665511265164572,
                -0.18659476117103235
            ],
            [
                -0.12738301559792026,
                -0.15947611710323573
            ],
            [
                -0.1117850953206239,
                -0.03312788906009245
            ]
        ]
    ],
    "9088": [
        [
            [
                -0.06499133448873483,
                0.3459167950693374
            ],
            [
                -0.049393414211438474,
                0.4722650231124807
            ],
            [
                -0.014038128249566724,
                0.46795069337442213
            ]
        ],
        [
            [
                0.09202772963604852,
                0.45500770416024644
            ],
            [
                0.12738301559792026,
                0.45069337442218793
            ],
            [
                0.13500866551126517,
                0.4704160246533127
            ]
        ],
        [
            [
                0.15788561525129982,
                0.5295839753466872
            ],
            [
                0.1655112651646447,
                0.5493066255778121
            ],
            [
                0.17209705372616982,
                0.5462249614791987
            ]
        ],
        [
            [
                0.19185441941074524,
                0.536979969183359
            ],
            [
                0.19844020797227035,
                0.5338983050847458
            ],
            [
                0.18180242634315424,
                0.44884437596302
            ]
        ],
        [
            [
                0.13188908145580588,
                0.19368258859784282
            ],
            [
                0.11525129982668976,
                0.10862865947611709
            ],
            [
                0.1797227036395147,
                0.0950693374422188
            ]
        ],
        [
            [
                0.241421143847487,
                -0.02727272727272727
            ],
            [
                0.30589254766031193,
                -0.040832049306625574
            ],
            [
                0.31975736568457536,
                -0.046379044684129435
            ]
        ],
        [
            [
                0.4731369150779895,
                -0.030662557781201846
            ],
            [
                0.487001733102253,
                -0.0362095531587057
            ],
            [
                0.5077989601386481,
                -0.031278890600924494
            ]
        ],
        [
            [
                0.5849220103986136,
                -0.05038520801232666
            ],
            [
                0.6057192374350087,
                -0.04545454545454545
            ],
            [
                0.6369150779896013,
                0.010015408320493073
            ]
        ],
        [
            [
                0.8847487001733101,
                -0.07627118644067804
            ],
            [
                0.9159445407279029,
                -0.020801232665639442
            ],
            [
                0.9166377816291161,
                -0.013405238828967648
            ]
        ],
        [
            [
                0.7819706498951782,
                0.34888059701492535
            ],
            [
                0.7882599580712788,
                0.3638059701492537
            ],
            [
                0.7993518124906895,
                0.37305096244509345
            ]
        ],
        [
            [
                0.8147313691507798,
                0.3890600924499229
            ],
            [
                0.8258232235701907,
                0.39830508474576265
            ],
            [
                0.823050259965338,
                0.4439137134052388
            ]
        ],
        [
            [
                0.8147313691507798,
                0.5807395993836671
            ],
            [
                0.8119584055459271,
                0.6263482280431432
            ],
            [
                0.8175043327556325,
                0.6288135593220338
            ]
        ],
        [
            [
                0.8497400346620451,
                0.6500770416024652
            ],
            [
                0.8552859618717504,
                0.6525423728813559
            ],
            [
                0.8733102253032928,
                0.6500770416024652
            ]
        ],
        [
            [
                0.9020797227036395,
                0.6417565485362093
            ],
            [
                0.9298093587521663,
                0.6402157164869029
            ],
            [
                0.9540727902946273,
                0.6479198767334359
            ]
        ],
        [
            [
                1.0143847487001731,
                0.6781201848998458
            ],
            [
                1.035528596187175,
                0.6910631741140215
            ],
            [
                1.0438474870017331,
                0.5240369799691833
            ]
        ],
        [
            [
                1.0688041594454072,
                0.022958397534668717
            ],
            [
                1.0771230502599651,
                -0.14406779661016947
            ],
            [
                0.9627383015597919,
                -0.17426810477657934
            ]
        ],
        [
            [
                0.6195840554592721,
                -0.26486902927580896
            ],
            [
                0.5051993067590987,
                -0.2950693374422188
            ],
            [
                0.378682842287695,
                -0.2679506933744222
            ]
        ],
        [
            [
                -0.0008665511265164572,
                -0.18659476117103235
            ],
            [
                -0.12738301559792026,
                -0.15947611710323573
            ],
            [
                -0.1117850953206239,
                -0.03312788906009245
            ]
        ]
    ],
    "9089": [
        [
            [
                -0.06499133448873483,
                0.3459167950693374
            ],
            [
                -0.049393414211438474,
                0.4722650231124807
            ],
            [
                -0.014038128249566724,
                0.46795069337442213
            ]
        ],
        [
            [
                0.09202772963604852,
                0.45500770416024644
            ],
            [
                0.12738301559792026,
                0.45069337442218793
            ],
            [
                0.13500866551126517,
                0.4704160246533127
            ]
        ],
        [
            [
                0.15788561525129982,
                0.5295839753466872
            ],
            [
                0.1655112651646447,
                0.5493066255778121
            ],
            [
                0.17209705372616982,
                0.5462249614791987
            ]
        ],
        [
            [
                0.19185441941074524,
                0.536979969183359
            ],
            [
                0.19844020797227035,
                0.5338983050847458
            ],
            [
                0.18180242634315424,
                0.44884437596302
            ]
        ],
        [
            [
                0.13188908145580588,
                0.19368258859784282
            ],
            [
                0.11525129982668976,
                0.10862865947611709
            ],
            [
                0.1797227036395147,
                0.0950693374422188
            ]
        ],
        [
            [
                0.241421143847487,
                -0.02727272727272727
            ],
            [
                0.30589254766031193,
                -0.040832049306625574
            ],
            [
                0.31975736568457536,
                -0.046379044684129435
            ]
        ],
        [
            [
                0.4731369150779895,
                -0.030662557781201846
            ],
            [
                0.487001733102253,
                -0.0362095531587057
            ],
            [
                0.5077989601386481,
                -0.031278890600924494
            ]
        ],
        [
            [
                0.5849220103986136,
                -0.05038520801232666
            ],
            [
                0.6057192374350087,
                -0.04545454545454545
            ],
            [
                0.6369150779896013,
                0.010015408320493073
            ]
        ],
        [
            [
                0.8847487001733101,
                -0.07627118644067804
            ],
            [
                0.9159445407279029,
                -0.020801232665639442
            ],
            [
                0.9166377816291161,
                -0.013405238828967648
            ]
        ],
        [
            [
                0.751927304172162,
                0.32655923004392506
            ],
            [
                0.7526205450733753,
                0.33395522388059706
            ],
            [
                0.763712399492786,
                0.34320021617643665
            ]
        ],
        [
            [
                0.8147313691507798,
                0.3890600924499229
            ],
            [
                0.8258232235701907,
                0.39830508474576265
            ],
            [
                0.823050259965338,
                0.4439137134052388
            ]
        ],
        [
            [
                0.8147313691507798,
                0.5807395993836671
            ],
            [
                0.8119584055459271,
                0.6263482280431432
            ],
            [
                0.8175043327556325,
                0.6288135593220338
            ]
        ],
        [
            [
                0.8497400346620451,
                0.6500770416024652
            ],
            [
                0.8552859618717504,
                0.6525423728813559
            ],
            [
                0.8733102253032928,
                0.6500770416024652
            ]
        ],
        [
            [
                0.9020797227036395,
                0.6417565485362093
            ],
            [
                0.9298093587521663,
                0.6402157164869029
            ],
            [
                0.9540727902946273,
                0.6479198767334359
            ]
        ],
        [
            [
                1.0143847487001731,
                0.6781201848998458
            ],
            [
                1.035528596187175,
                0.6910631741140215
            ],
            [
                1.0438474870017331,
                0.5240369799691833
            ]
        ],
        [
            [
                1.0688041594454072,
                0.022958397534668717
            ],
            [
                1.0771230502599651,
                -0.14406779661016947
            ],
            [
                0.9627383015597919,
                -0.17426810477657934
            ]
        ],
        [
            [
                0.6195840554592721,
                -0.26486902927580896
            ],
            [
                0.5051993067590987,
                -0.2950693374422188
            ],
            [
                0.378682842287695,
                -0.2679506933744222
            ]
        ],
        [
            [
                -0.0008665511265164572,
                -0.18659476117103235
            ],
            [
                -0.12738301559792026,
                -0.15947611710323573
            ],
            [
                -0.1117850953206239,
                -0.03312788906009245
            ]
        ]
    ],
    "9090": [
        [
            [
                -0.06499133448873483,
                0.3459167950693374
            ],
            [
                -0.049393414211438474,
                0.4722650231124807
            ],
            [
                -0.014038128249566724,
                0.46795069337442213
            ]
        ],
        [
            [
                0.09202772963604852,
                0.45500770416024644
            ],
            [
                0.12738301559792026,
                0.45069337442218793
            ],
            [
                0.13500866551126517,
                0.4704160246533127
            ]
        ],
        [
            [
                0.15788561525129982,
                0.5295839753466872
            ],
            [
                0.1655112651646447,
                0.5493066255778121
            ],
            [
                0.17209705372616982,
                0.5462249614791987
            ]
        ],
        [
            [
                0.19185441941074524,
                0.536979969183359
            ],
            [
                0.19844020797227035,
                0.5338983050847458
            ],
            [
                0.18180242634315424,
                0.44884437596302
            ]
        ],
        [
            [
                0.13188908145580588,
                0.19368258859784282
            ],
            [
                0.11525129982668976,
                0.10862865947611709
            ],
            [
                0.1797227036395147,
                0.0950693374422188
            ]
        ],
        [
            [
                0.241421143847487,
                -0.02727272727272727
            ],
            [
                0.30589254766031193,
                -0.040832049306625574
            ],
            [
                0.31975736568457536,
                -0.046379044684129435
            ]
        ],
        [
            [
                0.4731369150779895,
                -0.030662557781201846
            ],
            [
                0.487001733102253,
                -0.0362095531587057
            ],
            [
                0.5077989601386481,
                -0.031278890600924494
            ]
        ],
        [
            [
                0.5849220103986136,
                -0.05038520801232666
            ],
            [
                0.6057192374350087,
                -0.04545454545454545
            ],
            [
                0.6369150779896013,
                0.010015408320493073
            ]
        ],
        [
            [
                0.8847487001733101,
                -0.07627118644067804
            ],
            [
                0.9159445407279029,
                -0.020801232665639442
            ],
            [
                0.9166377816291161,
                -0.013405238828967648
            ]
        ],
        [
            [
                0.7393486878199608,
                0.3526786330289996
            ],
            [
                0.740041928721174,
                0.36007462686567165
            ],
            [
                0.7511337831405848,
                0.36931961916151124
            ]
        ],
        [
            [
                0.7897467200040693,
                0.4235908285996827
            ],
            [
                0.80083857442348,
                0.4328358208955224
            ],
            [
                0.7980656108186274,
                0.4784444495549986
            ]
        ],
        [
            [
                0.8147313691507798,
                0.5807395993836671
            ],
            [
                0.8119584055459271,
                0.6263482280431432
            ],
            [
                0.8175043327556325,
                0.6288135593220338
            ]
        ],
        [
            [
                0.8497400346620451,
                0.6500770416024652
            ],
            [
                0.8552859618717504,
                0.6525423728813559
            ],
            [
                0.8733102253032928,
                0.6500770416024652
            ]
        ],
        [
            [
                0.9020797227036395,
                0.6417565485362093
            ],
            [
                0.9298093587521663,
                0.6402157164869029
            ],
            [
                0.9540727902946273,
                0.6479198767334359
            ]
        ],
        [
            [
                1.0143847487001731,
                0.6781201848998458
            ],
            [
                1.035528596187175,
                0.6910631741140215
            ],
            [
                1.0438474870017331,
                0.5240369799691833
            ]
        ],
        [
            [
                1.0688041594454072,
                0.022958397534668717
            ],
            [
                1.0771230502599651,
                -0.14406779661016947
            ],
            [
                0.9627383015597919,
                -0.17426810477657934
            ]
        ],
        [
            [
                0.6195840554592721,
                -0.26486902927580896
            ],
            [
                0.5051993067590987,
                -0.2950693374422188
            ],
            [
                0.378682842287695,
                -0.2679506933744222
            ]
        ],
        [
            [
                -0.0008665511265164572,
                -0.18659476117103235
            ],
            [
                -0.12738301559792026,
                -0.15947611710323573
            ],
            [
                -0.1117850953206239,
                -0.03312788906009245
            ]
        ]
    ],
    "9091": [
        [
            [
                -0.06499133448873483,
                0.3459167950693374
            ],
            [
                -0.049393414211438474,
                0.4722650231124807
            ],
            [
                -0.014038128249566724,
                0.46795069337442213
            ]
        ],
        [
            [
                0.09202772963604852,
                0.45500770416024644
            ],
            [
                0.12738301559792026,
                0.45069337442218793
            ],
            [
                0.13500866551126517,
                0.4704160246533127
            ]
        ],
        [
            [
                0.15788561525129982,
                0.5295839753466872
            ],
            [
                0.1655112651646447,
                0.5493066255778121
            ],
            [
                0.17209705372616982,
                0.5462249614791987
            ]
        ],
        [
            [
                0.19185441941074524,
                0.536979969183359
            ],
            [
                0.19844020797227035,
                0.5338983050847458
            ],
            [
                0.18180242634315424,
                0.44884437596302
            ]
        ],
        [
            [
                0.13188908145580588,
                0.19368258859784282
            ],
            [
                0.11525129982668976,
                0.10862865947611709
            ],
            [
                0.1797227036395147,
                0.0950693374422188
            ]
        ],
        [
            [
                0.241421143847487,
                -0.02727272727272727
            ],
            [
                0.30589254766031193,
                -0.040832049306625574
            ],
            [
                0.31975736568457536,
                -0.046379044684129435
            ]
        ],
        [
            [
                0.4731369150779895,
                -0.030662557781201846
            ],
            [
                0.487001733102253,
                -0.0362095531587057
            ],
            [
                0.5077989601386481,
                -0.031278890600924494
            ]
        ],
        [
            [
                0.5849220103986136,
                -0.05038520801232666
            ],
            [
                0.6057192374350087,
                -0.04545454545454545
            ],
            [
                0.6369150779896013,
                0.010015408320493073
            ]
        ],
        [
            [
                0.6805442013741284,
                0.04527631488167785
            ],
            [
                0.7117400419287211,
                0.10074626865671643
            ],
            [
                0.7124332828299343,
                0.10814226249338824
            ]
        ],
        [
            [
                0.7267700714677595,
                0.33775325989467125
            ],
            [
                0.7274633123689728,
                0.34514925373134325
            ],
            [
                0.7385551667883835,
                0.35439424602718295
            ]
        ],
        [
            [
                0.7520108709474655,
                0.44224754501759317
            ],
            [
                0.7631027253668763,
                0.45149253731343286
            ],
            [
                0.7603297617620236,
                0.4971011659729091
            ]
        ],
        [
            [
                0.8147313691507798,
                0.5807395993836671
            ],
            [
                0.8119584055459271,
                0.6263482280431432
            ],
            [
                0.8175043327556325,
                0.6288135593220338
            ]
        ],
        [
            [
                0.8497400346620451,
                0.6500770416024652
            ],
            [
                0.8552859618717504,
                0.6525423728813559
            ],
            [
                0.8733102253032928,
                0.6500770416024652
            ]
        ],
        [
            [
                0.9020797227036395,
                0.6417565485362093
            ],
            [
                0.9298093587521663,
                0.6402157164869029
            ],
            [
                0.9540727902946273,
                0.6479198767334359
            ]
        ],
        [
            [
                1.0143847487001731,
                0.6781201848998458
            ],
            [
                1.035528596187175,
                0.6910631741140215
            ],
            [
                1.0438474870017331,
                0.5240369799691833
            ]
        ],
        [
            [
                1.0688041594454072,
                0.022958397534668717
            ],
            [
                1.0771230502599651,
                -0.14406779661016947
            ],
            [
                0.9627383015597919,
                -0.17426810477657934
            ]
        ],
        [
            [
                0.6195840554592721,
                -0.26486902927580896
            ],
            [
                0.5051993067590987,
                -0.2950693374422188
            ],
            [
                0.378682842287695,
                -0.2679506933744222
            ]
        ],
        [
            [
                -0.0008665511265164572,
                -0.18659476117103235
            ],
            [
                -0.12738301559792026,
                -0.15947611710323573
            ],
            [
                -0.1117850953206239,
                -0.03312788906009245
            ]
        ]
    ]
}
</property>
    <property name="kdenlive:collapsed">0</property>
    <property name="disable">0</property>
   </filter>
   <filter id="filter150">
    <property name="version">0.2</property>
    <property name="mlt_service">frei0r.coloradj_RGB</property>
    <property name="kdenlive_id">frei0r.coloradj_RGB</property>
    <property name="R">00:04:52.467=0.558;00:04:59.400=0.558;00:05:00.567=0.703</property>
    <property name="G">00:04:52.467=0.427;00:04:59.400=0.427;00:05:00.567=0.471</property>
    <property name="B">00:04:52.467=0.468;00:04:59.400=0.468;00:05:00.567=0.515</property>
    <property name="Action">0.5</property>
    <property name="Keep luma">1</property>
    <property name="Alpha controlled">0</property>
    <property name="Luma formula">1</property>
    <property name="kdenlive:collapsed">0</property>
   </filter>
   <filter id="filter163">
    <property name="version">0.4</property>
    <property name="mlt_service">frei0r.levels</property>
    <property name="kdenlive_id">frei0r.levels</property>
    <property name="Channel">0.3</property>
    <property name="Input black level">00:04:52.467=0.072</property>
    <property name="Input white level">00:04:52.467=1</property>
    <property name="Gamma">00:04:52.467=0.26225</property>
    <property name="Black output">00:04:52.467=0</property>
    <property name="White output">00:04:52.467=1</property>
    <property name="Show histogram">0</property>
    <property name="Histogram position">0.3</property>
    <property name="kdenlive:collapsed">0</property>
   </filter>
   <filter id="filter164">
    <property name="version">0.3</property>
    <property name="mlt_service">frei0r.saturat0r</property>
    <property name="kdenlive_id">frei0r.saturat0r</property>
    <property name="Saturation">00:04:52.467=0.001;00:04:54.000=0.001;00:04:54.900=0.125</property>
    <property name="kdenlive:collapsed">0</property>
   </filter>
  </entry>
  <blank length="00:11:47.067"/>
  <entry producer="producer145" in="00:00:00.000" out="00:01:13.000">
   <property name="kdenlive:id">44</property>
   <property name="kdenlive:activeeffect">1</property>
   <filter id="filter165">
    <property name="rotate_center">1</property>
    <property name="mlt_service">qtblend</property>
    <property name="kdenlive_id">qtblend</property>
    <property name="rect">00:00:00.000=526 28 896 512 1.000000</property>
    <property name="rotation">00:00:00.000=0</property>
    <property name="compositing">0</property>
    <property name="distort">0</property>
    <property name="kdenlive:collapsed">0</property>
   </filter>
   <filter id="filter166">
    <property name="version">0.1</property>
    <property name="mlt_service">frei0r.mask0mate</property>
    <property name="kdenlive_id">frei0r.mask0mate</property>
    <property name="Left">00:00:00.000=0.333</property>
    <property name="Right">00:00:00.000=0.333</property>
    <property name="Top">00:00:00.000=0</property>
    <property name="Bottom">00:00:00.000=0</property>
    <property name="Invert">1</property>
    <property name="Blur">00:00:00.000=0</property>
    <property name="kdenlive:collapsed">0</property>
   </filter>
  </entry>
 </playlist>
 <playlist id="playlist19"/>
 <tractor id="tractor9" in="00:00:00.000" out="00:19:13.000">
  <property name="kdenlive:trackheight">69</property>
  <property name="kdenlive:timeline_active">1</property>
  <property name="kdenlive:collapsed">28</property>
  <property name="kdenlive:track_name">sarah1</property>
  <property name="kdenlive:thumbs_format"/>
  <property name="kdenlive:audio_rec"/>
  <property name="kdenlive:locked_track"/>
  <track hide="audio" producer="playlist18"/>
  <track producer="playlist19"/>
 </tractor>
 <producer id="producer144" in="00:00:00.000" out="00:01:25.100">
  <property name="length">2554</property>
  <property name="eof">pause</property>
  <property name="resource">/home/ryankelln/.cache/kdenlive/proxy/ce779b7974f19632a07732a59b8bd64b.mkv</property>
  <property name="audio_index">1</property>
  <property name="video_index">0</property>
  <property name="mute_on_pause">0</property>
  <property name="mlt_service">avformat-novalidate</property>
  <property name="seekable">1</property>
  <property name="aspect_ratio">1</property>
  <property name="kdenlive:clipname">2021-06-02_Caleb_electric+4k_sarah_P1000551-take2_start.MP4</property>
  <property name="kdenlive:folderid">22</property>
  <property name="kdenlive:id">26</property>
  <property name="kdenlive:file_size">1019834394</property>
  <property name="kdenlive:file_hash">ce779b7974f19632a07732a59b8bd64b</property>
  <property name="kdenlive:audio_max">1</property>
  <property name="global_feed">1</property>
  <property name="kdenlive:proxy">/home/ryankelln/.cache/kdenlive/proxy/ce779b7974f19632a07732a59b8bd64b.mkv</property>
  <property name="kdenlive:originalurl">content/musicians/2021-06-02_Caleb_electric+4k_sarah_P1000551-take2_start.MP4</property>
  <property name="kdenlive:original.mlt_type">producer</property>
  <property name="kdenlive:original.in">00:00:00.000</property>
  <property name="kdenlive:original.out">00:01:25.100</property>
  <property name="kdenlive:original.length">2554</property>
  <property name="kdenlive:original.eof">pause</property>
  <property name="kdenlive:original.resource">content/musicians/2021-06-02_Caleb_electric+4k_sarah_P1000551-take2_start.MP4</property>
  <property name="kdenlive:original.audio_index">1</property>
  <property name="kdenlive:original.video_index">0</property>
  <property name="kdenlive:original.mute_on_pause">0</property>
  <property name="kdenlive:original.mlt_service">avformat-novalidate</property>
  <property name="kdenlive:original.id">producer24</property>
  <property name="kdenlive:original.meta.media.nb_streams">2</property>
  <property name="kdenlive:original.meta.media.0.stream.type">video</property>
  <property name="kdenlive:original.meta.media.0.stream.frame_rate">29.97</property>
  <property name="kdenlive:original.meta.media.0.stream.sample_aspect_ratio">1</property>
  <property name="kdenlive:original.meta.media.0.codec.width">3328</property>
  <property name="kdenlive:original.meta.media.0.codec.height">2496</property>
  <property name="kdenlive:original.meta.media.0.codec.rotate">0</property>
  <property name="kdenlive:original.meta.media.0.codec.frame_rate">29.97</property>
  <property name="kdenlive:original.meta.media.0.codec.pix_fmt">yuvj420p</property>
  <property name="kdenlive:original.meta.media.0.codec.sample_aspect_ratio">1</property>
  <property name="kdenlive:original.meta.media.0.codec.colorspace">709</property>
  <property name="kdenlive:original.meta.media.0.codec.color_trc">1</property>
  <property name="kdenlive:original.meta.media.0.codec.name">h264</property>
  <property name="kdenlive:original.meta.media.0.codec.long_name">H.264 / AVC / MPEG-4 AVC / MPEG-4 part 10</property>
  <property name="kdenlive:original.meta.media.0.codec.bit_rate">95829617</property>
  <property name="kdenlive:original.meta.attr.0.stream.creation_time.markup">2021-06-02T15:49:01.000000Z</property>
  <property name="kdenlive:original.meta.attr.0.stream.handler_name.markup">VideoHandler</property>
  <property name="kdenlive:original.meta.media.1.stream.type">audio</property>
  <property name="kdenlive:original.meta.media.1.codec.sample_fmt">fltp</property>
  <property name="kdenlive:original.meta.media.1.codec.sample_rate">48000</property>
  <property name="kdenlive:original.meta.media.1.codec.channels">2</property>
  <property name="kdenlive:original.meta.media.1.codec.name">aac</property>
  <property name="kdenlive:original.meta.media.1.codec.long_name">AAC (Advanced Audio Coding)</property>
  <property name="kdenlive:original.meta.media.1.codec.bit_rate">125374</property>
  <property name="kdenlive:original.meta.attr.1.stream.creation_time.markup">2021-06-02T15:49:01.000000Z</property>
  <property name="kdenlive:original.meta.attr.1.stream.handler_name.markup">SoundHandler</property>
  <property name="kdenlive:original.meta.attr.major_brand.markup">isom</property>
  <property name="kdenlive:original.meta.attr.minor_version.markup">512</property>
  <property name="kdenlive:original.meta.attr.compatible_brands.markup">isomiso2avc1mp41</property>
  <property name="kdenlive:original.meta.attr.creation_time.markup">2021-06-02T15:49:01.000000Z</property>
  <property name="kdenlive:original.meta.attr.encoder.markup">Lavf58.45.100</property>
  <property name="kdenlive:original.seekable">1</property>
  <property name="kdenlive:original.meta.media.sample_aspect_num">1</property>
  <property name="kdenlive:original.meta.media.sample_aspect_den">1</property>
  <property name="kdenlive:original.aspect_ratio">1</property>
  <property name="kdenlive:original.kdenlive:folderid">22</property>
  <property name="kdenlive:original.meta.media.frame_rate_num">30000</property>
  <property name="kdenlive:original.meta.media.frame_rate_den">1001</property>
  <property name="kdenlive:original.meta.media.colorspace">709</property>
  <property name="kdenlive:original.meta.media.color_trc">1</property>
  <property name="kdenlive:original.meta.media.width">3328</property>
  <property name="kdenlive:original.meta.media.height">2496</property>
  <property name="kdenlive:original.meta.media.color_range">full</property>
  <property name="kdenlive:original.kdenlive:id">26</property>
  <property name="kdenlive:original.kdenlive:file_size">1019834394</property>
  <property name="kdenlive:original.kdenlive:file_hash">ce779b7974f19632a07732a59b8bd64b</property>
  <property name="kdenlive:original.kdenlive:audio_max">1</property>
  <property name="kdenlive:original.meta.media.top_field_first">0</property>
  <property name="kdenlive:original.meta.media.progressive">1</property>
  <property name="kdenlive:original.global_feed">1</property>
  <property name="kdenlive:original.width">3328</property>
  <property name="kdenlive:original.height">2496</property>
  <property name="kdenlive:original.backup">1</property>
  <property name="kdenlive:activeeffect">0</property>
  <property name="xml">was here</property>
  <property name="meta.media.nb_streams">2</property>
  <property name="meta.media.0.stream.type">video</property>
  <property name="meta.media.0.stream.frame_rate">29.97</property>
  <property name="meta.media.0.stream.sample_aspect_ratio">1</property>
  <property name="meta.media.0.codec.width">640</property>
  <property name="meta.media.0.codec.height">480</property>
  <property name="meta.media.0.codec.rotate">0</property>
  <property name="meta.media.0.codec.frame_rate">1000</property>
  <property name="meta.media.0.codec.pix_fmt">yuvj420p</property>
  <property name="meta.media.0.codec.sample_aspect_ratio">1</property>
  <property name="meta.media.0.codec.colorspace">601</property>
  <property name="meta.media.0.codec.name">mjpeg</property>
  <property name="meta.media.0.codec.long_name">MJPEG (Motion JPEG)</property>
  <property name="meta.media.0.codec.bit_rate">0</property>
  <property name="meta.attr.0.stream.HANDLER_NAME.markup">VideoHandler</property>
  <property name="meta.attr.0.stream.ENCODER.markup">Lavc58.91.100 mjpeg</property>
  <property name="meta.attr.0.stream.DURATION.markup">00:01:25.151000000</property>
  <property name="meta.media.1.stream.type">audio</property>
  <property name="meta.media.1.codec.sample_fmt">s16</property>
  <property name="meta.media.1.codec.sample_rate">48000</property>
  <property name="meta.media.1.codec.channels">2</property>
  <property name="meta.media.1.codec.name">pcm_s16le</property>
  <property name="meta.media.1.codec.long_name">PCM signed 16-bit little-endian</property>
  <property name="meta.media.1.codec.bit_rate">1536000</property>
  <property name="meta.attr.1.stream.HANDLER_NAME.markup">SoundHandler</property>
  <property name="meta.attr.1.stream.ENCODER.markup">Lavc58.91.100 pcm_s16le</property>
  <property name="meta.attr.1.stream.DURATION.markup">00:01:25.120000000</property>
  <property name="meta.attr.COMPATIBLE_BRANDS.markup">isomiso2avc1mp41</property>
  <property name="meta.attr.MAJOR_BRAND.markup">isom</property>
  <property name="meta.attr.MINOR_VERSION.markup">512</property>
  <property name="meta.attr.ENCODER.markup">Lavf58.45.100</property>
  <property name="meta.media.sample_aspect_num">1</property>
  <property name="meta.media.sample_aspect_den">1</property>
  <property name="meta.media.frame_rate_num">30000</property>
  <property name="meta.media.frame_rate_den">1001</property>
  <property name="meta.media.colorspace">601</property>
  <property name="meta.media.color_trc">2</property>
  <property name="meta.media.width">640</property>
  <property name="meta.media.height">480</property>
  <property name="meta.media.color_range">full</property>
  <property name="meta.media.top_field_first">0</property>
  <property name="meta.media.progressive">1</property>
  <property name="set.test_audio">1</property>
  <property name="set.test_image">1</property>
  <filter id="filter167">
   <property name="version">0.6</property>
   <property name="mlt_service">frei0r.select0r</property>
   <property name="kdenlive_id">frei0r.select0r</property>
   <property name="Color to select">0x2e7e2cff</property>
   <property name="Invert selection">1</property>
   <property name="Selection subspace">1</property>
   <property name="Subspace shape">0.5</property>
   <property name="Edge mode">0.9</property>
   <property name="Delta R / A / Hue">00:00:00.000=0.2</property>
   <property name="Delta G / B / Chroma">00:00:00.000=0.2</property>
   <property name="Delta B / I / I">00:00:00.000=0.2</property>
   <property name="Slope">00:00:00.000=0</property>
   <property name="Operation">0.5</property>
   <property name="kdenlive:collapsed">0</property>
  </filter>
  <filter id="filter168">
   <property name="version">0.6</property>
   <property name="mlt_service">frei0r.select0r</property>
   <property name="kdenlive_id">frei0r.select0r</property>
   <property name="Color to select">0x2e7e2cff</property>
   <property name="Invert selection">1</property>
   <property name="Selection subspace">1</property>
   <property name="Subspace shape">0.5</property>
   <property name="Edge mode">0.9</property>
   <property name="Delta R / A / Hue">00:00:00.000=0.2</property>
   <property name="Delta G / B / Chroma">00:00:00.000=0.2</property>
   <property name="Delta B / I / I">00:00:00.000=0.2</property>
   <property name="Slope">00:00:00.000=0</property>
   <property name="Operation">0.5</property>
  </filter>
 </producer>
 <playlist id="playlist20">
  <blank length="00:00:10.600"/>
  <entry producer="producer144" in="00:00:00.000" out="00:01:25.100">
   <property name="kdenlive:id">26</property>
  </entry>
 </playlist>
 <playlist id="playlist21"/>
 <tractor id="tractor10" in="00:00:00.000" out="00:01:35.700">
  <property name="kdenlive:trackheight">69</property>
  <property name="kdenlive:timeline_active">1</property>
  <property name="kdenlive:collapsed">28</property>
  <property name="kdenlive:track_name">caleb2</property>
  <property name="kdenlive:thumbs_format"/>
  <property name="kdenlive:audio_rec"/>
  <property name="kdenlive:locked_track">1</property>
  <track hide="both" producer="playlist20"/>
  <track producer="playlist21"/>
 </tractor>
 <producer id="producer146" in="00:00:00.000" out="00:04:51.800">
  <property name="length">8755</property>
  <property name="eof">pause</property>
  <property name="resource">/home/ryankelln/.cache/kdenlive/proxy/d744105bb6ea0a63ee18b489cf89062b.mkv</property>
  <property name="audio_index">1</property>
  <property name="video_index">0</property>
  <property name="mute_on_pause">0</property>
  <property name="mlt_service">avformat-novalidate</property>
  <property name="seekable">1</property>
  <property name="aspect_ratio">1</property>
  <property name="kdenlive:clipname">2021-06-02_Caleb_electric+4k_sarah_P1000552-take3_from-bass-solo.MP4</property>
  <property name="kdenlive:folderid">22</property>
  <property name="kdenlive:id">27</property>
  <property name="kdenlive:file_size">3501183214</property>
  <property name="kdenlive:file_hash">d744105bb6ea0a63ee18b489cf89062b</property>
  <property name="kdenlive:audio_max">1</property>
  <property name="global_feed">1</property>
  <property name="kdenlive:proxy">/home/ryankelln/.cache/kdenlive/proxy/d744105bb6ea0a63ee18b489cf89062b.mkv</property>
  <property name="kdenlive:originalurl">content/musicians/2021-06-02_Caleb_electric+4k_sarah_P1000552-take3_from-bass-solo.MP4</property>
  <property name="kdenlive:original.mlt_type">producer</property>
  <property name="kdenlive:original.in">00:00:00.000</property>
  <property name="kdenlive:original.out">00:04:51.800</property>
  <property name="kdenlive:original.length">8755</property>
  <property name="kdenlive:original.eof">pause</property>
  <property name="kdenlive:original.resource">content/musicians/2021-06-02_Caleb_electric+4k_sarah_P1000552-take3_from-bass-solo.MP4</property>
  <property name="kdenlive:original.audio_index">1</property>
  <property name="kdenlive:original.video_index">0</property>
  <property name="kdenlive:original.mute_on_pause">0</property>
  <property name="kdenlive:original.mlt_service">avformat-novalidate</property>
  <property name="kdenlive:original.id">producer26</property>
  <property name="kdenlive:original.meta.media.nb_streams">2</property>
  <property name="kdenlive:original.meta.media.0.stream.type">video</property>
  <property name="kdenlive:original.meta.media.0.stream.frame_rate">29.9701</property>
  <property name="kdenlive:original.meta.media.0.stream.sample_aspect_ratio">1</property>
  <property name="kdenlive:original.meta.media.0.codec.width">3328</property>
  <property name="kdenlive:original.meta.media.0.codec.height">2496</property>
  <property name="kdenlive:original.meta.media.0.codec.rotate">0</property>
  <property name="kdenlive:original.meta.media.0.codec.frame_rate">29.97</property>
  <property name="kdenlive:original.meta.media.0.codec.pix_fmt">yuvj420p</property>
  <property name="kdenlive:original.meta.media.0.codec.sample_aspect_ratio">1</property>
  <property name="kdenlive:original.meta.media.0.codec.colorspace">709</property>
  <property name="kdenlive:original.meta.media.0.codec.color_trc">1</property>
  <property name="kdenlive:original.meta.media.0.codec.name">h264</property>
  <property name="kdenlive:original.meta.media.0.codec.long_name">H.264 / AVC / MPEG-4 AVC / MPEG-4 part 10</property>
  <property name="kdenlive:original.meta.media.0.codec.bit_rate">95846667</property>
  <property name="kdenlive:original.meta.attr.0.stream.handler_name.markup">VideoHandler</property>
  <property name="kdenlive:original.meta.media.1.stream.type">audio</property>
  <property name="kdenlive:original.meta.media.1.codec.sample_fmt">fltp</property>
  <property name="kdenlive:original.meta.media.1.codec.sample_rate">48000</property>
  <property name="kdenlive:original.meta.media.1.codec.channels">2</property>
  <property name="kdenlive:original.meta.media.1.codec.name">aac</property>
  <property name="kdenlive:original.meta.media.1.codec.long_name">AAC (Advanced Audio Coding)</property>
  <property name="kdenlive:original.meta.media.1.codec.bit_rate">125377</property>
  <property name="kdenlive:original.meta.attr.1.stream.handler_name.markup">SoundHandler</property>
  <property name="kdenlive:original.meta.attr.major_brand.markup">isom</property>
  <property name="kdenlive:original.meta.attr.minor_version.markup">512</property>
  <property name="kdenlive:original.meta.attr.compatible_brands.markup">isomiso2avc1mp41</property>
  <property name="kdenlive:original.meta.attr.encoder.markup">Lavf58.45.100</property>
  <property name="kdenlive:original.seekable">1</property>
  <property name="kdenlive:original.meta.media.sample_aspect_num">1</property>
  <property name="kdenlive:original.meta.media.sample_aspect_den">1</property>
  <property name="kdenlive:original.aspect_ratio">1</property>
  <property name="kdenlive:original.kdenlive:folderid">22</property>
  <property name="kdenlive:original.meta.media.frame_rate_num">262380000</property>
  <property name="kdenlive:original.meta.media.frame_rate_den">8754731</property>
  <property name="kdenlive:original.meta.media.colorspace">709</property>
  <property name="kdenlive:original.meta.media.color_trc">1</property>
  <property name="kdenlive:original.meta.media.width">3328</property>
  <property name="kdenlive:original.meta.media.height">2496</property>
  <property name="kdenlive:original.meta.media.color_range">full</property>
  <property name="kdenlive:original.kdenlive:id">27</property>
  <property name="kdenlive:original.kdenlive:file_size">3501183214</property>
  <property name="kdenlive:original.kdenlive:file_hash">d744105bb6ea0a63ee18b489cf89062b</property>
  <property name="kdenlive:original.kdenlive:audio_max">1</property>
  <property name="kdenlive:original.meta.media.top_field_first">0</property>
  <property name="kdenlive:original.meta.media.progressive">1</property>
  <property name="kdenlive:original.global_feed">1</property>
  <property name="kdenlive:original.width">3328</property>
  <property name="kdenlive:original.height">2496</property>
  <property name="kdenlive:original.backup">1</property>
  <property name="kdenlive:activeeffect">3</property>
  <property name="xml">was here</property>
  <property name="meta.media.nb_streams">2</property>
  <property name="meta.media.0.stream.type">video</property>
  <property name="meta.media.0.stream.frame_rate">29.97</property>
  <property name="meta.media.0.stream.sample_aspect_ratio">1</property>
  <property name="meta.media.0.codec.width">640</property>
  <property name="meta.media.0.codec.height">480</property>
  <property name="meta.media.0.codec.rotate">0</property>
  <property name="meta.media.0.codec.frame_rate">1000</property>
  <property name="meta.media.0.codec.pix_fmt">yuvj420p</property>
  <property name="meta.media.0.codec.sample_aspect_ratio">1</property>
  <property name="meta.media.0.codec.colorspace">601</property>
  <property name="meta.media.0.codec.name">mjpeg</property>
  <property name="meta.media.0.codec.long_name">MJPEG (Motion JPEG)</property>
  <property name="meta.media.0.codec.bit_rate">0</property>
  <property name="meta.attr.0.stream.HANDLER_NAME.markup">VideoHandler</property>
  <property name="meta.attr.0.stream.ENCODER.markup">Lavc58.91.100 mjpeg</property>
  <property name="meta.attr.0.stream.DURATION.markup">00:04:51.925000000</property>
  <property name="meta.media.1.stream.type">audio</property>
  <property name="meta.media.1.codec.sample_fmt">s16</property>
  <property name="meta.media.1.codec.sample_rate">48000</property>
  <property name="meta.media.1.codec.channels">2</property>
  <property name="meta.media.1.codec.name">pcm_s16le</property>
  <property name="meta.media.1.codec.long_name">PCM signed 16-bit little-endian</property>
  <property name="meta.media.1.codec.bit_rate">1536000</property>
  <property name="meta.attr.1.stream.HANDLER_NAME.markup">SoundHandler</property>
  <property name="meta.attr.1.stream.ENCODER.markup">Lavc58.91.100 pcm_s16le</property>
  <property name="meta.attr.1.stream.DURATION.markup">00:04:51.813000000</property>
  <property name="meta.attr.COMPATIBLE_BRANDS.markup">isomiso2avc1mp41</property>
  <property name="meta.attr.MAJOR_BRAND.markup">isom</property>
  <property name="meta.attr.MINOR_VERSION.markup">512</property>
  <property name="meta.attr.ENCODER.markup">Lavf58.45.100</property>
  <property name="meta.media.sample_aspect_num">1</property>
  <property name="meta.media.sample_aspect_den">1</property>
  <property name="meta.media.frame_rate_num">30000</property>
  <property name="meta.media.frame_rate_den">1001</property>
  <property name="meta.media.colorspace">601</property>
  <property name="meta.media.color_trc">2</property>
  <property name="meta.media.width">640</property>
  <property name="meta.media.height">480</property>
  <property name="meta.media.color_range">full</property>
  <property name="meta.media.top_field_first">0</property>
  <property name="meta.media.progressive">1</property>
  <property name="set.test_audio">1</property>
  <property name="set.test_image">0</property>
  <filter id="filter169">
   <property name="version">0.1</property>
   <property name="mlt_service">frei0r.hqdn3d</property>
   <property name="kdenlive_id">frei0r.hqdn3d</property>
   <property name="Spatial">00:00:00.000=0.096</property>
   <property name="Temporal">00:00:00.000=0.094</property>
  </filter>
  <filter id="filter170">
   <property name="version">0.6</property>
   <property name="mlt_service">frei0r.select0r</property>
   <property name="kdenlive_id">frei0r.select0r</property>
   <property name="Color to select">0x65a65cff</property>
   <property name="Invert selection">1</property>
   <property name="Selection subspace">1</property>
   <property name="Subspace shape">1</property>
   <property name="Edge mode">0.9</property>
   <property name="Delta R / A / Hue">00:00:00.000=0.111</property>
   <property name="Delta G / B / Chroma">00:00:00.000=0.365</property>
   <property name="Delta B / I / I">00:00:00.000=0.317</property>
   <property name="Slope">00:00:00.000=0.129</property>
   <property name="Operation">0.5</property>
  </filter>
  <filter id="filter171">
   <property name="version">0.4</property>
   <property name="mlt_service">frei0r.alpha0ps</property>
   <property name="kdenlive_id">frei0r.alpha0ps</property>
   <property name="Display">0</property>
   <property name="Display input alpha">0</property>
   <property name="Operation">1</property>
   <property name="Threshold">00:00:00.000=0.5</property>
   <property name="Shrink/Grow/Blur amount">00:00:00.000=0.087</property>
   <property name="Invert">0</property>
  </filter>
  <filter id="filter172">
   <property name="version">0.3</property>
   <property name="mlt_service">frei0r.keyspillm0pup</property>
   <property name="kdenlive_id">frei0r.keyspillm0pup</property>
   <property name="Key color">0x44b95bff</property>
   <property name="Target color">0xC87F65ff</property>
   <property name="Mask type">0</property>
   <property name="Tolerance">00:00:00.000=0.27</property>
   <property name="Slope">00:00:00.000=0.283</property>
   <property name="Hue gate">00:00:00.000=0.183</property>
   <property name="Saturation threshold">00:00:00.000=0.15</property>
   <property name="Operation 1">1</property>
   <property name="Amount 1">00:00:00.000=0.5</property>
   <property name="Operation 2">4</property>
   <property name="Amount 2">00:00:00.000=0.131</property>
   <property name="Show mask">0</property>
   <property name="Mask to Alpha">0</property>
  </filter>
 </producer>
 <producer id="producer147" in="00:00:00.000" out="00:04:51.800">
  <property name="length">8755</property>
  <property name="eof">pause</property>
  <property name="resource">/home/ryankelln/.cache/kdenlive/proxy/d744105bb6ea0a63ee18b489cf89062b.mkv</property>
  <property name="audio_index">1</property>
  <property name="video_index">0</property>
  <property name="mute_on_pause">0</property>
  <property name="mlt_service">avformat-novalidate</property>
  <property name="seekable">1</property>
  <property name="aspect_ratio">1</property>
  <property name="kdenlive:clipname">2021-06-02_Caleb_electric+4k_sarah_P1000552-take3_from-bass-solo.MP4</property>
  <property name="kdenlive:folderid">22</property>
  <property name="kdenlive:id">27</property>
  <property name="kdenlive:file_size">3501183214</property>
  <property name="kdenlive:file_hash">d744105bb6ea0a63ee18b489cf89062b</property>
  <property name="kdenlive:audio_max">1</property>
  <property name="global_feed">1</property>
  <property name="kdenlive:proxy">/home/ryankelln/.cache/kdenlive/proxy/d744105bb6ea0a63ee18b489cf89062b.mkv</property>
  <property name="kdenlive:originalurl">content/musicians/2021-06-02_Caleb_electric+4k_sarah_P1000552-take3_from-bass-solo.MP4</property>
  <property name="kdenlive:original.mlt_type">producer</property>
  <property name="kdenlive:original.in">00:00:00.000</property>
  <property name="kdenlive:original.out">00:04:51.800</property>
  <property name="kdenlive:original.length">8755</property>
  <property name="kdenlive:original.eof">pause</property>
  <property name="kdenlive:original.resource">content/musicians/2021-06-02_Caleb_electric+4k_sarah_P1000552-take3_from-bass-solo.MP4</property>
  <property name="kdenlive:original.audio_index">1</property>
  <property name="kdenlive:original.video_index">0</property>
  <property name="kdenlive:original.mute_on_pause">0</property>
  <property name="kdenlive:original.mlt_service">avformat-novalidate</property>
  <property name="kdenlive:original.id">producer26</property>
  <property name="kdenlive:original.meta.media.nb_streams">2</property>
  <property name="kdenlive:original.meta.media.0.stream.type">video</property>
  <property name="kdenlive:original.meta.media.0.stream.frame_rate">29.9701</property>
  <property name="kdenlive:original.meta.media.0.stream.sample_aspect_ratio">1</property>
  <property name="kdenlive:original.meta.media.0.codec.width">3328</property>
  <property name="kdenlive:original.meta.media.0.codec.height">2496</property>
  <property name="kdenlive:original.meta.media.0.codec.rotate">0</property>
  <property name="kdenlive:original.meta.media.0.codec.frame_rate">29.97</property>
  <property name="kdenlive:original.meta.media.0.codec.pix_fmt">yuvj420p</property>
  <property name="kdenlive:original.meta.media.0.codec.sample_aspect_ratio">1</property>
  <property name="kdenlive:original.meta.media.0.codec.colorspace">709</property>
  <property name="kdenlive:original.meta.media.0.codec.color_trc">1</property>
  <property name="kdenlive:original.meta.media.0.codec.name">h264</property>
  <property name="kdenlive:original.meta.media.0.codec.long_name">H.264 / AVC / MPEG-4 AVC / MPEG-4 part 10</property>
  <property name="kdenlive:original.meta.media.0.codec.bit_rate">95846667</property>
  <property name="kdenlive:original.meta.attr.0.stream.handler_name.markup">VideoHandler</property>
  <property name="kdenlive:original.meta.media.1.stream.type">audio</property>
  <property name="kdenlive:original.meta.media.1.codec.sample_fmt">fltp</property>
  <property name="kdenlive:original.meta.media.1.codec.sample_rate">48000</property>
  <property name="kdenlive:original.meta.media.1.codec.channels">2</property>
  <property name="kdenlive:original.meta.media.1.codec.name">aac</property>
  <property name="kdenlive:original.meta.media.1.codec.long_name">AAC (Advanced Audio Coding)</property>
  <property name="kdenlive:original.meta.media.1.codec.bit_rate">125377</property>
  <property name="kdenlive:original.meta.attr.1.stream.handler_name.markup">SoundHandler</property>
  <property name="kdenlive:original.meta.attr.major_brand.markup">isom</property>
  <property name="kdenlive:original.meta.attr.minor_version.markup">512</property>
  <property name="kdenlive:original.meta.attr.compatible_brands.markup">isomiso2avc1mp41</property>
  <property name="kdenlive:original.meta.attr.encoder.markup">Lavf58.45.100</property>
  <property name="kdenlive:original.seekable">1</property>
  <property name="kdenlive:original.meta.media.sample_aspect_num">1</property>
  <property name="kdenlive:original.meta.media.sample_aspect_den">1</property>
  <property name="kdenlive:original.aspect_ratio">1</property>
  <property name="kdenlive:original.kdenlive:folderid">22</property>
  <property name="kdenlive:original.meta.media.frame_rate_num">262380000</property>
  <property name="kdenlive:original.meta.media.frame_rate_den">8754731</property>
  <property name="kdenlive:original.meta.media.colorspace">709</property>
  <property name="kdenlive:original.meta.media.color_trc">1</property>
  <property name="kdenlive:original.meta.media.width">3328</property>
  <property name="kdenlive:original.meta.media.height">2496</property>
  <property name="kdenlive:original.meta.media.color_range">full</property>
  <property name="kdenlive:original.kdenlive:id">27</property>
  <property name="kdenlive:original.kdenlive:file_size">3501183214</property>
  <property name="kdenlive:original.kdenlive:file_hash">d744105bb6ea0a63ee18b489cf89062b</property>
  <property name="kdenlive:original.kdenlive:audio_max">1</property>
  <property name="kdenlive:original.meta.media.top_field_first">0</property>
  <property name="kdenlive:original.meta.media.progressive">1</property>
  <property name="kdenlive:original.global_feed">1</property>
  <property name="kdenlive:original.width">3328</property>
  <property name="kdenlive:original.height">2496</property>
  <property name="kdenlive:original.backup">1</property>
  <property name="kdenlive:activeeffect">3</property>
  <property name="xml">was here</property>
  <property name="meta.media.nb_streams">2</property>
  <property name="meta.media.0.stream.type">video</property>
  <property name="meta.media.0.stream.frame_rate">29.97</property>
  <property name="meta.media.0.stream.sample_aspect_ratio">1</property>
  <property name="meta.media.0.codec.width">640</property>
  <property name="meta.media.0.codec.height">480</property>
  <property name="meta.media.0.codec.rotate">0</property>
  <property name="meta.media.0.codec.frame_rate">1000</property>
  <property name="meta.media.0.codec.pix_fmt">yuvj420p</property>
  <property name="meta.media.0.codec.sample_aspect_ratio">1</property>
  <property name="meta.media.0.codec.colorspace">601</property>
  <property name="meta.media.0.codec.name">mjpeg</property>
  <property name="meta.media.0.codec.long_name">MJPEG (Motion JPEG)</property>
  <property name="meta.media.0.codec.bit_rate">0</property>
  <property name="meta.attr.0.stream.HANDLER_NAME.markup">VideoHandler</property>
  <property name="meta.attr.0.stream.ENCODER.markup">Lavc58.91.100 mjpeg</property>
  <property name="meta.attr.0.stream.DURATION.markup">00:04:51.925000000</property>
  <property name="meta.media.1.stream.type">audio</property>
  <property name="meta.media.1.codec.sample_fmt">s16</property>
  <property name="meta.media.1.codec.sample_rate">48000</property>
  <property name="meta.media.1.codec.channels">2</property>
  <property name="meta.media.1.codec.name">pcm_s16le</property>
  <property name="meta.media.1.codec.long_name">PCM signed 16-bit little-endian</property>
  <property name="meta.media.1.codec.bit_rate">1536000</property>
  <property name="meta.attr.1.stream.HANDLER_NAME.markup">SoundHandler</property>
  <property name="meta.attr.1.stream.ENCODER.markup">Lavc58.91.100 pcm_s16le</property>
  <property name="meta.attr.1.stream.DURATION.markup">00:04:51.813000000</property>
  <property name="meta.attr.COMPATIBLE_BRANDS.markup">isomiso2avc1mp41</property>
  <property name="meta.attr.MAJOR_BRAND.markup">isom</property>
  <property name="meta.attr.MINOR_VERSION.markup">512</property>
  <property name="meta.attr.ENCODER.markup">Lavf58.45.100</property>
  <property name="meta.media.sample_aspect_num">1</property>
  <property name="meta.media.sample_aspect_den">1</property>
  <property name="meta.media.frame_rate_num">30000</property>
  <property name="meta.media.frame_rate_den">1001</property>
  <property name="meta.media.colorspace">601</property>
  <property name="meta.media.color_trc">2</property>
  <property name="meta.media.width">640</property>
  <property name="meta.media.height">480</property>
  <property name="meta.media.color_range">full</property>
  <property name="meta.media.top_field_first">0</property>
  <property name="meta.media.progressive">1</property>
  <property name="set.test_audio">1</property>
  <property name="set.test_image">1</property>
  <filter id="filter173">
   <property name="version">0.1</property>
   <property name="mlt_service">frei0r.hqdn3d</property>
   <property name="kdenlive_id">frei0r.hqdn3d</property>
   <property name="Spatial">00:00:00.000=0.096</property>
   <property name="Temporal">00:00:00.000=0.094</property>
   <property name="kdenlive:collapsed">0</property>
  </filter>
  <filter id="filter174">
   <property name="version">0.6</property>
   <property name="mlt_service">frei0r.select0r</property>
   <property name="kdenlive_id">frei0r.select0r</property>
   <property name="Color to select">0x65a65cff</property>
   <property name="Invert selection">1</property>
   <property name="Selection subspace">1</property>
   <property name="Subspace shape">1</property>
   <property name="Edge mode">0.9</property>
   <property name="Delta R / A / Hue">00:00:00.000=0.111</property>
   <property name="Delta G / B / Chroma">00:00:00.000=0.365</property>
   <property name="Delta B / I / I">00:00:00.000=0.317</property>
   <property name="Slope">00:00:00.000=0.129</property>
   <property name="Operation">0.5</property>
   <property name="kdenlive:collapsed">0</property>
  </filter>
  <filter id="filter175">
   <property name="version">0.4</property>
   <property name="mlt_service">frei0r.alpha0ps</property>
   <property name="kdenlive_id">frei0r.alpha0ps</property>
   <property name="Display">0</property>
   <property name="Display input alpha">0</property>
   <property name="Operation">1</property>
   <property name="Threshold">00:00:00.000=0.5</property>
   <property name="Shrink/Grow/Blur amount">00:00:00.000=0.087</property>
   <property name="Invert">0</property>
   <property name="kdenlive:collapsed">0</property>
  </filter>
  <filter id="filter176">
   <property name="version">0.3</property>
   <property name="mlt_service">frei0r.keyspillm0pup</property>
   <property name="kdenlive_id">frei0r.keyspillm0pup</property>
   <property name="Key color">0x44b95bff</property>
   <property name="Target color">0xC87F65ff</property>
   <property name="Mask type">0</property>
   <property name="Tolerance">00:00:00.000=0.27</property>
   <property name="Slope">00:00:00.000=0.283</property>
   <property name="Hue gate">00:00:00.000=0.183</property>
   <property name="Saturation threshold">00:00:00.000=0.15</property>
   <property name="Operation 1">1</property>
   <property name="Amount 1">00:00:00.000=0.5</property>
   <property name="Operation 2">4</property>
   <property name="Amount 2">00:00:00.000=0.131</property>
   <property name="Show mask">0</property>
   <property name="Mask to Alpha">0</property>
   <property name="kdenlive:collapsed">0</property>
  </filter>
 </producer>
 <playlist id="playlist22">
  <blank length="00:01:15.233"/>
  <entry producer="producer146" in="00:00:04.133" out="00:00:25.300">
   <property name="kdenlive:id">27</property>
   <filter id="filter180">
    <property name="rotate_center">1</property>
    <property name="mlt_service">qtblend</property>
    <property name="kdenlive_id">qtblend</property>
    <property name="rect">00:00:04.133=237 0 1920 1080 1.000000</property>
    <property name="rotation">00:00:04.133=0</property>
    <property name="compositing">0</property>
    <property name="distort">0</property>
    <property name="kdenlive:collapsed">0</property>
   </filter>
   <filter id="filter181">
    <property name="mode">alpha</property>
    <property name="alpha_operation">sub</property>
    <property name="invert">1</property>
    <property name="feather">60</property>
    <property name="feather_passes">2</property>
    <property name="mlt_service">rotoscoping</property>
    <property name="kdenlive_id">rotoscoping</property>
    <property name="spline">{
    "124": [
        [
            [
                0.5479202772963595,
                1.0767334360554695
            ],
            [
                0.4822357019064124,
                1.0832049306625582
            ],
            [
                0.4787694974003466,
                1.0625577812018492
            ]
        ],
        [
            [
                0.468370883882149,
                1.0006163328197226
            ],
            [
                0.46490467937608315,
                0.979969183359014
            ],
            [
                0.4635181975736568,
                0.9328197226502302
            ]
        ],
        [
            [
                0.4593587521663778,
                0.7913713405238821
            ],
            [
                0.45797227036395144,
                0.7442218798150992
            ],
            [
                0.45849220103986127,
                0.7278890600924487
            ]
        ],
        [
            [
                0.4600519930675909,
                0.6788906009244983
            ],
            [
                0.4605719237435008,
                0.662557781201848
            ],
            [
                0.4558925476603119,
                0.6385208012326645
            ]
        ],
        [
            [
                0.4418544194107452,
                0.5664098613251147
            ],
            [
                0.4371750433275563,
                0.5423728813559309
            ],
            [
                0.425736568457539,
                0.5303543913713394
            ]
        ],
        [
            [
                0.39142114384748694,
                0.4942989214175645
            ],
            [
                0.37998266897746963,
                0.48228043143297294
            ],
            [
                0.40043327556325814,
                0.4545454545454542
            ]
        ],
        [
            [
                0.4617850953206239,
                0.3713405238828963
            ],
            [
                0.4822357019064124,
                0.3436055469953771
            ],
            [
                0.4891681109185441,
                0.3013867488443755
            ]
        ],
        [
            [
                0.5099653379549391,
                0.174730354391371
            ],
            [
                0.5168977469670707,
                0.13251155624036948
            ],
            [
                0.5442807625649901,
                0.09183359013867451
            ]
        ],
        [
            [
                0.6264298093587513,
                -0.030200308166410204
            ],
            [
                0.6538128249566715,
                -0.07087827426810511
            ],
            [
                0.6820623916811083,
                -0.03266563944530081
            ]
        ],
        [
            [
                0.7668110918544184,
                0.08197226502311208
            ],
            [
                0.7950606585788552,
                0.12018489984591643
            ],
            [
                0.8070190641247824,
                0.1556240369799688
            ]
        ],
        [
            [
                0.8428942807625641,
                0.26194144838212596
            ],
            [
                0.8548526863084913,
                0.29738058551617846
            ],
            [
                0.8910745233968794,
                0.28844375963019986
            ]
        ],
        [
            [
                0.9997400346620442,
                0.2616332819722645
            ],
            [
                1.0359618717504333,
                0.2526964560862862
            ],
            [
                1.0318024263431542,
                0.2936825885978425
            ]
        ],
        [
            [
                1.0193240901213168,
                0.416640986132511
            ],
            [
                1.0151646447140374,
                0.4576271186440675
            ],
            [
                0.991421143847486,
                0.4887519260400608
            ]
        ],
        [
            [
                0.9201906412478327,
                0.5821263482280418
            ],
            [
                0.8964471403812816,
                0.613251155624036
            ],
            [
                0.8824090121317149,
                0.6440677966101683
            ]
        ],
        [
            [
                0.8402946273830146,
                0.7365177195685664
            ],
            [
                0.8262564991334479,
                0.7673343605546987
            ],
            [
                0.8231369150779886,
                0.8240369799691821
            ]
        ],
        [
            [
                0.8137781629116108,
                0.9941448382126348
            ],
            [
                0.8106585788561514,
                1.0508474576271183
            ],
            [
                0.7449740034662036,
                1.0573189522342064
            ]
        ]
    ],
    "236": [
        [
            [
                0.5479202772963595,
                1.0767334360554695
            ],
            [
                0.4822357019064124,
                1.0832049306625582
            ],
            [
                0.4787694974003466,
                1.0625577812018492
            ]
        ],
        [
            [
                0.468370883882149,
                1.0006163328197226
            ],
            [
                0.46490467937608315,
                0.979969183359014
            ],
            [
                0.4635181975736568,
                0.9328197226502302
            ]
        ],
        [
            [
                0.4593587521663778,
                0.7913713405238821
            ],
            [
                0.45797227036395144,
                0.7442218798150992
            ],
            [
                0.45849220103986127,
                0.7278890600924487
            ]
        ],
        [
            [
                0.4600519930675909,
                0.6788906009244983
            ],
            [
                0.4605719237435008,
                0.662557781201848
            ],
            [
                0.4558925476603119,
                0.6385208012326645
            ]
        ],
        [
            [
                0.4418544194107452,
                0.5664098613251147
            ],
            [
                0.4371750433275563,
                0.5423728813559309
            ],
            [
                0.425736568457539,
                0.5303543913713394
            ]
        ],
        [
            [
                0.39142114384748694,
                0.4942989214175645
            ],
            [
                0.37998266897746963,
                0.48228043143297294
            ],
            [
                0.40043327556325814,
                0.4545454545454542
            ]
        ],
        [
            [
                0.4617850953206239,
                0.3713405238828963
            ],
            [
                0.4822357019064124,
                0.3436055469953771
            ],
            [
                0.4891681109185441,
                0.3013867488443755
            ]
        ],
        [
            [
                0.5099653379549391,
                0.174730354391371
            ],
            [
                0.5168977469670707,
                0.13251155624036948
            ],
            [
                0.5442807625649901,
                0.09183359013867451
            ]
        ],
        [
            [
                0.5779896013864818,
                -0.0608628659476117
            ],
            [
                0.6538128249566715,
                -0.07087827426810511
            ],
            [
                0.7305025996533795,
                -0.0731895223420647
            ]
        ],
        [
            [
                0.745580589254766,
                0.10739599383667177
            ],
            [
                0.7738301559792028,
                0.1456086286594761
            ],
            [
                0.78578856152513,
                0.1810477657935285
            ]
        ],
        [
            [
                0.801733102253033,
                0.25192604006163305
            ],
            [
                0.8136915077989602,
                0.28736517719568566
            ],
            [
                0.8499133448873483,
                0.27842835130970706
            ]
        ],
        [
            [
                1.0045060658578846,
                0.16379044684129415
            ],
            [
                1.0407279029462737,
                0.15485362095531585
            ],
            [
                1.0365684575389946,
                0.19583975346687213
            ]
        ],
        [
            [
                1.0193240901213168,
                0.416640986132511
            ],
            [
                1.0151646447140374,
                0.4576271186440675
            ],
            [
                0.991421143847486,
                0.4887519260400608
            ]
        ],
        [
            [
                0.9201906412478327,
                0.5821263482280418
            ],
            [
                0.8964471403812816,
                0.613251155624036
            ],
            [
                0.8824090121317149,
                0.6440677966101683
            ]
        ],
        [
            [
                0.8402946273830146,
                0.7365177195685664
            ],
            [
                0.8262564991334479,
                0.7673343605546987
            ],
            [
                0.8231369150779886,
                0.8240369799691821
            ]
        ],
        [
            [
                0.8137781629116108,
                0.9941448382126348
            ],
            [
                0.8106585788561514,
                1.0508474576271183
            ],
            [
                0.7449740034662036,
                1.0573189522342064
            ]
        ]
    ],
    "318": [
        [
            [
                0.5479202772963595,
                1.0767334360554695
            ],
            [
                0.4822357019064124,
                1.0832049306625582
            ],
            [
                0.4787694974003466,
                1.0625577812018492
            ]
        ],
        [
            [
                0.468370883882149,
                1.0006163328197226
            ],
            [
                0.46490467937608315,
                0.979969183359014
            ],
            [
                0.4635181975736568,
                0.9328197226502302
            ]
        ],
        [
            [
                0.4593587521663778,
                0.7913713405238821
            ],
            [
                0.45797227036395144,
                0.7442218798150992
            ],
            [
                0.45849220103986127,
                0.7278890600924487
            ]
        ],
        [
            [
                0.4600519930675909,
                0.6788906009244983
            ],
            [
                0.4605719237435008,
                0.662557781201848
            ],
            [
                0.4558925476603119,
                0.6385208012326645
            ]
        ],
        [
            [
                0.4418544194107452,
                0.5664098613251147
            ],
            [
                0.4371750433275563,
                0.5423728813559309
            ],
            [
                0.425736568457539,
                0.5303543913713394
            ]
        ],
        [
            [
                0.39142114384748694,
                0.4942989214175645
            ],
            [
                0.37998266897746963,
                0.48228043143297294
            ],
            [
                0.40043327556325814,
                0.4545454545454542
            ]
        ],
        [
            [
                0.4617850953206239,
                0.3713405238828963
            ],
            [
                0.4822357019064124,
                0.3436055469953771
            ],
            [
                0.4891681109185441,
                0.3013867488443755
            ]
        ],
        [
            [
                0.5099653379549391,
                0.174730354391371
            ],
            [
                0.5168977469670707,
                0.13251155624036948
            ],
            [
                0.5442807625649901,
                0.09183359013867451
            ]
        ],
        [
            [
                0.5779896013864818,
                -0.0608628659476117
            ],
            [
                0.6538128249566715,
                -0.07087827426810511
            ],
            [
                0.7305025996533795,
                -0.0731895223420647
            ]
        ],
        [
            [
                0.745580589254766,
                0.10739599383667177
            ],
            [
                0.7738301559792028,
                0.1456086286594761
            ],
            [
                0.78578856152513,
                0.1810477657935285
            ]
        ],
        [
            [
                0.801733102253033,
                0.25192604006163305
            ],
            [
                0.8136915077989602,
                0.28736517719568566
            ],
            [
                0.8499133448873483,
                0.27842835130970706
            ]
        ],
        [
            [
                1.0045060658578846,
                0.16379044684129415
            ],
            [
                1.0407279029462737,
                0.15485362095531585
            ],
            [
                1.0365684575389946,
                0.19583975346687213
            ]
        ],
        [
            [
                1.0240901213171592,
                0.4590138674884435
            ],
            [
                1.0199306759098787,
                0.5
            ],
            [
                0.9961871750433288,
                0.5311248073959933
            ]
        ],
        [
            [
                0.9201906412478327,
                0.5821263482280418
            ],
            [
                0.8964471403812816,
                0.613251155624036
            ],
            [
                0.8824090121317149,
                0.6440677966101683
            ]
        ],
        [
            [
                0.8402946273830146,
                0.7365177195685664
            ],
            [
                0.8262564991334479,
                0.7673343605546987
            ],
            [
                0.8231369150779886,
                0.8240369799691821
            ]
        ],
        [
            [
                0.8137781629116108,
                0.9941448382126348
            ],
            [
                0.8106585788561514,
                1.0508474576271183
            ],
            [
                0.7449740034662036,
                1.0573189522342064
            ]
        ]
    ],
    "356": [
        [
            [
                0.5479202772963595,
                1.0767334360554695
            ],
            [
                0.4822357019064124,
                1.0832049306625582
            ],
            [
                0.4787694974003466,
                1.0625577812018492
            ]
        ],
        [
            [
                0.468370883882149,
                1.0006163328197226
            ],
            [
                0.46490467937608315,
                0.979969183359014
            ],
            [
                0.4635181975736568,
                0.9328197226502302
            ]
        ],
        [
            [
                0.4593587521663778,
                0.7913713405238821
            ],
            [
                0.45797227036395144,
                0.7442218798150992
            ],
            [
                0.45849220103986127,
                0.7278890600924487
            ]
        ],
        [
            [
                0.4600519930675909,
                0.6788906009244983
            ],
            [
                0.4605719237435008,
                0.662557781201848
            ],
            [
                0.4558925476603119,
                0.6385208012326645
            ]
        ],
        [
            [
                0.4418544194107452,
                0.5664098613251147
            ],
            [
                0.4371750433275563,
                0.5423728813559309
            ],
            [
                0.425736568457539,
                0.5303543913713394
            ]
        ],
        [
            [
                0.39142114384748694,
                0.4942989214175645
            ],
            [
                0.37998266897746963,
                0.48228043143297294
            ],
            [
                0.40043327556325814,
                0.4545454545454542
            ]
        ],
        [
            [
                0.4617850953206239,
                0.3713405238828963
            ],
            [
                0.4822357019064124,
                0.3436055469953771
            ],
            [
                0.4891681109185441,
                0.3013867488443755
            ]
        ],
        [
            [
                0.5099653379549391,
                0.174730354391371
            ],
            [
                0.5168977469670707,
                0.13251155624036948
            ],
            [
                0.5442807625649901,
                0.09183359013867451
            ]
        ],
        [
            [
                0.5779896013864818,
                -0.0608628659476117
            ],
            [
                0.6538128249566715,
                -0.07087827426810511
            ],
            [
                0.7305025996533795,
                -0.0731895223420647
            ]
        ],
        [
            [
                0.745580589254766,
                0.10739599383667177
            ],
            [
                0.7738301559792028,
                0.1456086286594761
            ],
            [
                0.78578856152513,
                0.1810477657935285
            ]
        ],
        [
            [
                0.7844020797227036,
                0.22727272727272704
            ],
            [
                0.7963604852686308,
                0.2627118644067796
            ],
            [
                0.832582322357019,
                0.253775038520801
            ]
        ],
        [
            [
                0.9975736568457528,
                0.11140215716486884
            ],
            [
                1.033795493934142,
                0.1024653312788906
            ],
            [
                1.0296360485268634,
                0.14345146379044685
            ]
        ],
        [
            [
                1.0240901213171592,
                0.4590138674884435
            ],
            [
                1.0199306759098787,
                0.5
            ],
            [
                0.9961871750433288,
                0.5311248073959933
            ]
        ],
        [
            [
                0.9201906412478327,
                0.5821263482280418
            ],
            [
                0.8964471403812816,
                0.613251155624036
            ],
            [
                0.8824090121317149,
                0.6440677966101683
            ]
        ],
        [
            [
                0.8402946273830146,
                0.7365177195685664
            ],
            [
                0.8262564991334479,
                0.7673343605546987
            ],
            [
                0.8231369150779886,
                0.8240369799691821
            ]
        ],
        [
            [
                0.8137781629116108,
                0.9941448382126348
            ],
            [
                0.8106585788561514,
                1.0508474576271183
            ],
            [
                0.7449740034662036,
                1.0573189522342064
            ]
        ]
    ],
    "731": [
        [
            [
                0.5479202772963595,
                1.0767334360554695
            ],
            [
                0.4822357019064124,
                1.0832049306625582
            ],
            [
                0.4787694974003466,
                1.0625577812018492
            ]
        ],
        [
            [
                0.468370883882149,
                1.0006163328197226
            ],
            [
                0.46490467937608315,
                0.979969183359014
            ],
            [
                0.4635181975736568,
                0.9328197226502302
            ]
        ],
        [
            [
                0.4593587521663778,
                0.7913713405238821
            ],
            [
                0.45797227036395144,
                0.7442218798150992
            ],
            [
                0.45849220103986127,
                0.7278890600924487
            ]
        ],
        [
            [
                0.4600519930675909,
                0.6788906009244983
            ],
            [
                0.4605719237435008,
                0.662557781201848
            ],
            [
                0.4558925476603119,
                0.6385208012326645
            ]
        ],
        [
            [
                0.4418544194107452,
                0.5664098613251147
            ],
            [
                0.4371750433275563,
                0.5423728813559309
            ],
            [
                0.425736568457539,
                0.5303543913713394
            ]
        ],
        [
            [
                0.39142114384748694,
                0.4942989214175645
            ],
            [
                0.37998266897746963,
                0.48228043143297294
            ],
            [
                0.40043327556325814,
                0.4545454545454542
            ]
        ],
        [
            [
                0.4617850953206239,
                0.3713405238828963
            ],
            [
                0.4822357019064124,
                0.3436055469953771
            ],
            [
                0.4891681109185441,
                0.3013867488443755
            ]
        ],
        [
            [
                0.5099653379549391,
                0.174730354391371
            ],
            [
                0.5168977469670707,
                0.13251155624036948
            ],
            [
                0.5442807625649901,
                0.09183359013867451
            ]
        ],
        [
            [
                0.5779896013864818,
                -0.0608628659476117
            ],
            [
                0.6538128249566715,
                -0.07087827426810511
            ],
            [
                0.7305025996533795,
                -0.0731895223420647
            ]
        ],
        [
            [
                0.7438474870017331,
                0.019568567026194163
            ],
            [
                0.7720970537261699,
                0.05778120184899845
            ],
            [
                0.784055459272097,
                0.09322033898305088
            ]
        ],
        [
            [
                0.7844020797227036,
                0.22727272727272704
            ],
            [
                0.7963604852686308,
                0.2627118644067796
            ],
            [
                0.832582322357019,
                0.253775038520801
            ]
        ],
        [
            [
                0.9975736568457528,
                0.11140215716486884
            ],
            [
                1.033795493934142,
                0.1024653312788906
            ],
            [
                1.0296360485268634,
                0.14345146379044685
            ]
        ],
        [
            [
                1.0240901213171592,
                0.4590138674884435
            ],
            [
                1.0199306759098787,
                0.5
            ],
            [
                0.9961871750433288,
                0.5311248073959933
            ]
        ],
        [
            [
                0.9201906412478327,
                0.5821263482280418
            ],
            [
                0.8964471403812816,
                0.613251155624036
            ],
            [
                0.8824090121317149,
                0.6440677966101683
            ]
        ],
        [
            [
                0.8402946273830146,
                0.7365177195685664
            ],
            [
                0.8262564991334479,
                0.7673343605546987
            ],
            [
                0.8231369150779886,
                0.8240369799691821
            ]
        ],
        [
            [
                0.8137781629116108,
                0.9941448382126348
            ],
            [
                0.8106585788561514,
                1.0508474576271183
            ],
            [
                0.7449740034662036,
                1.0573189522342064
            ]
        ]
    ],
    "759": [
        [
            [
                0.5479202772963595,
                1.0767334360554695
            ],
            [
                0.4822357019064124,
                1.0832049306625582
            ],
            [
                0.4787694974003466,
                1.0625577812018492
            ]
        ],
        [
            [
                0.468370883882149,
                1.0006163328197226
            ],
            [
                0.46490467937608315,
                0.979969183359014
            ],
            [
                0.4635181975736568,
                0.9328197226502302
            ]
        ],
        [
            [
                0.4593587521663778,
                0.7913713405238821
            ],
            [
                0.45797227036395144,
                0.7442218798150992
            ],
            [
                0.45849220103986127,
                0.7278890600924487
            ]
        ],
        [
            [
                0.4600519930675909,
                0.6788906009244983
            ],
            [
                0.4605719237435008,
                0.662557781201848
            ],
            [
                0.4558925476603119,
                0.6385208012326645
            ]
        ],
        [
            [
                0.4418544194107452,
                0.5664098613251147
            ],
            [
                0.4371750433275563,
                0.5423728813559309
            ],
            [
                0.425736568457539,
                0.5303543913713394
            ]
        ],
        [
            [
                0.39142114384748694,
                0.4942989214175645
            ],
            [
                0.37998266897746963,
                0.48228043143297294
            ],
            [
                0.40043327556325814,
                0.4545454545454542
            ]
        ],
        [
            [
                0.4617850953206239,
                0.3713405238828963
            ],
            [
                0.4822357019064124,
                0.3436055469953771
            ],
            [
                0.4891681109185441,
                0.3013867488443755
            ]
        ],
        [
            [
                0.5099653379549391,
                0.174730354391371
            ],
            [
                0.5168977469670707,
                0.13251155624036948
            ],
            [
                0.5442807625649901,
                0.09183359013867451
            ]
        ],
        [
            [
                0.5779896013864818,
                -0.0608628659476117
            ],
            [
                0.6538128249566715,
                -0.07087827426810511
            ],
            [
                0.7305025996533795,
                -0.0731895223420647
            ]
        ],
        [
            [
                0.7438474870017331,
                0.019568567026194163
            ],
            [
                0.7720970537261699,
                0.05778120184899845
            ],
            [
                0.784055459272097,
                0.09322033898305088
            ]
        ],
        [
            [
                0.7835034341100199,
                0.2288706271757117
            ],
            [
                0.7954618396559471,
                0.2643097643097643
            ],
            [
                0.8316836767443352,
                0.25537293842378567
            ]
        ],
        [
            [
                0.9975736568457528,
                0.11140215716486884
            ],
            [
                1.033795493934142,
                0.1024653312788906
            ],
            [
                1.0296360485268634,
                0.14345146379044685
            ]
        ],
        [
            [
                1.028134026574236,
                0.4366432688466584
            ],
            [
                1.0239745811669556,
                0.47762940135821497
            ],
            [
                1.0002310803004055,
                0.5087542087542082
            ]
        ],
        [
            [
                0.9196289877399055,
                0.5639502368315916
            ],
            [
                0.8958854868733545,
                0.5950750442275858
            ],
            [
                0.8818473586237877,
                0.6258916852137183
            ]
        ],
        [
            [
                0.8435522177289934,
                0.742709581692632
            ],
            [
                0.8295140894794266,
                0.7735262226787645
            ],
            [
                0.8263945054239674,
                0.8302288420932478
            ]
        ],
        [
            [
                0.8137781629116108,
                0.9941448382126348
            ],
            [
                0.8106585788561514,
                1.0508474576271183
            ],
            [
                0.7449740034662036,
                1.0573189522342064
            ]
        ]
    ]
}
</property>
    <property name="kdenlive:collapsed">0</property>
    <property name="disable">0</property>
   </filter>
   <filter id="filter182" in="00:00:04.133" out="00:00:05.233">
    <property name="start">0</property>
    <property name="mlt_service">brightness</property>
    <property name="kdenlive_id">fade_from_black</property>
    <property name="end">1</property>
    <property name="alpha">-1</property>
    <property name="kdenlive:collapsed">0</property>
   </filter>
   <filter id="filter183">
    <property name="mlt_service">greyscale</property>
    <property name="kdenlive_id">greyscale</property>
    <property name="kdenlive:collapsed">0</property>
   </filter>
   <filter id="filter184">
    <property name="version">0.2</property>
    <property name="mlt_service">frei0r.contrast0r</property>
    <property name="kdenlive_id">frei0r.contrast0r</property>
    <property name="Contrast">00:00:04.133=1.988;00:00:06.400=0.5</property>
    <property name="kdenlive:collapsed">0</property>
   </filter>
  </entry>
  <entry producer="producer146" in="00:00:25.333" out="00:02:02.467">
   <property name="kdenlive:id">27</property>
   <filter id="filter185">
    <property name="rotate_center">1</property>
    <property name="mlt_service">qtblend</property>
    <property name="kdenlive_id">qtblend</property>
    <property name="rect">00:00:25.333=237 0 1920 1080 1.000000</property>
    <property name="rotation">00:00:25.333=0</property>
    <property name="compositing">0</property>
    <property name="distort">0</property>
    <property name="kdenlive:collapsed">0</property>
   </filter>
   <filter id="filter186">
    <property name="mode">alpha</property>
    <property name="alpha_operation">sub</property>
    <property name="invert">1</property>
    <property name="feather">60</property>
    <property name="feather_passes">2</property>
    <property name="mlt_service">rotoscoping</property>
    <property name="kdenlive_id">rotoscoping</property>
    <property name="spline">{
    "0760": [
        [
            [
                0.5479202772963595,
                1.0767334360554695
            ],
            [
                0.4822357019064124,
                1.0832049306625582
            ],
            [
                0.4787694974003466,
                1.0625577812018492
            ]
        ],
        [
            [
                0.468370883882149,
                1.0006163328197226
            ],
            [
                0.46490467937608315,
                0.979969183359014
            ],
            [
                0.4635181975736568,
                0.9328197226502302
            ]
        ],
        [
            [
                0.4593587521663778,
                0.7913713405238821
            ],
            [
                0.45797227036395144,
                0.7442218798150992
            ],
            [
                0.45849220103986127,
                0.7278890600924487
            ]
        ],
        [
            [
                0.4600519930675909,
                0.6788906009244983
            ],
            [
                0.4605719237435008,
                0.662557781201848
            ],
            [
                0.4558925476603119,
                0.6385208012326645
            ]
        ],
        [
            [
                0.4418544194107452,
                0.5664098613251147
            ],
            [
                0.4371750433275563,
                0.5423728813559309
            ],
            [
                0.425736568457539,
                0.5303543913713394
            ]
        ],
        [
            [
                0.39142114384748694,
                0.4942989214175645
            ],
            [
                0.37998266897746963,
                0.48228043143297294
            ],
            [
                0.40043327556325814,
                0.4545454545454542
            ]
        ],
        [
            [
                0.4617850953206239,
                0.3713405238828963
            ],
            [
                0.4822357019064124,
                0.3436055469953771
            ],
            [
                0.4891681109185441,
                0.3013867488443755
            ]
        ],
        [
            [
                0.5099653379549391,
                0.174730354391371
            ],
            [
                0.5168977469670707,
                0.13251155624036948
            ],
            [
                0.5442807625649901,
                0.09183359013867451
            ]
        ],
        [
            [
                0.5779896013864818,
                -0.0608628659476117
            ],
            [
                0.6538128249566715,
                -0.07087827426810511
            ],
            [
                0.7305025996533795,
                -0.0731895223420647
            ]
        ],
        [
            [
                0.7438474870017331,
                0.019568567026194163
            ],
            [
                0.7720970537261699,
                0.05778120184899845
            ],
            [
                0.784055459272097,
                0.09322033898305088
            ]
        ],
        [
            [
                0.7834713396238526,
                0.22892769502938973
            ],
            [
                0.7954297451697798,
                0.2643668321634423
            ],
            [
                0.8316515822581679,
                0.2554300062774637
            ]
        ],
        [
            [
                0.9975736568457528,
                0.11140215716486884
            ],
            [
                1.033795493934142,
                0.1024653312788906
            ],
            [
                1.0296360485268634,
                0.14345146379044685
            ]
        ],
        [
            [
                1.0282784517619887,
                0.43584431889516606
            ],
            [
                1.0241190063547083,
                0.47683045140672253
            ],
            [
                1.0003755054881585,
                0.5079552588027159
            ]
        ],
        [
            [
                0.9196089286860509,
                0.5633010899960041
            ],
            [
                0.8958654278194998,
                0.5944258973919984
            ],
            [
                0.8818272995699331,
                0.6252425383781307
            ]
        ],
        [
            [
                0.8436685602413497,
                0.7429307196256344
            ],
            [
                0.829630431991783,
                0.7737473606117669
            ],
            [
                0.8265108479363238,
                0.8304499800262501
            ]
        ],
        [
            [
                0.8137781629116108,
                0.9941448382126348
            ],
            [
                0.8106585788561514,
                1.0508474576271183
            ],
            [
                0.7449740034662036,
                1.0573189522342064
            ]
        ]
    ],
    "0839": [
        [
            [
                0.5479202772963595,
                1.0767334360554695
            ],
            [
                0.4822357019064124,
                1.0832049306625582
            ],
            [
                0.4787694974003466,
                1.0625577812018492
            ]
        ],
        [
            [
                0.468370883882149,
                1.0006163328197226
            ],
            [
                0.46490467937608315,
                0.979969183359014
            ],
            [
                0.4635181975736568,
                0.9328197226502302
            ]
        ],
        [
            [
                0.4593587521663778,
                0.7913713405238821
            ],
            [
                0.45797227036395144,
                0.7442218798150992
            ],
            [
                0.45849220103986127,
                0.7278890600924487
            ]
        ],
        [
            [
                0.4600519930675909,
                0.6788906009244983
            ],
            [
                0.4605719237435008,
                0.662557781201848
            ],
            [
                0.4558925476603119,
                0.6385208012326645
            ]
        ],
        [
            [
                0.4418544194107452,
                0.5664098613251147
            ],
            [
                0.4371750433275563,
                0.5423728813559309
            ],
            [
                0.425736568457539,
                0.5303543913713394
            ]
        ],
        [
            [
                0.39142114384748694,
                0.4942989214175645
            ],
            [
                0.37998266897746963,
                0.48228043143297294
            ],
            [
                0.40043327556325814,
                0.4545454545454542
            ]
        ],
        [
            [
                0.4617850953206239,
                0.3713405238828963
            ],
            [
                0.4822357019064124,
                0.3436055469953771
            ],
            [
                0.4891681109185441,
                0.3013867488443755
            ]
        ],
        [
            [
                0.5099653379549391,
                0.174730354391371
            ],
            [
                0.5168977469670707,
                0.13251155624036948
            ],
            [
                0.5442807625649901,
                0.09183359013867451
            ]
        ],
        [
            [
                0.5779896013864818,
                -0.0608628659476117
            ],
            [
                0.6538128249566715,
                -0.07087827426810511
            ],
            [
                0.7305025996533795,
                -0.0731895223420647
            ]
        ],
        [
            [
                0.7438474870017331,
                0.019568567026194163
            ],
            [
                0.7720970537261699,
                0.05778120184899845
            ],
            [
                0.784055459272097,
                0.09322033898305088
            ]
        ],
        [
            [
                0.7809358752166378,
                0.23343605546995355
            ],
            [
                0.792894280762565,
                0.26887519260400616
            ],
            [
                0.8291161178509531,
                0.2599383667180275
            ]
        ],
        [
            [
                0.9975736568457528,
                0.11140215716486884
            ],
            [
                1.033795493934142,
                0.1024653312788906
            ],
            [
                1.0296360485268634,
                0.14345146379044685
            ]
        ],
        [
            [
                1.0396880415944556,
                0.37272727272727235
            ],
            [
                1.035528596187175,
                0.41371340523882894
            ],
            [
                1.011785095320625,
                0.4448382126348221
            ]
        ],
        [
            [
                0.9180242634315423,
                0.5120184899845912
            ],
            [
                0.8942807625649912,
                0.5431432973805855
            ],
            [
                0.8802426343154245,
                0.5739599383667179
            ]
        ],
        [
            [
                0.8528596187175043,
                0.7604006163328197
            ],
            [
                0.8388214904679375,
                0.7912172573189522
            ],
            [
                0.8357019064124782,
                0.8479198767334355
            ]
        ],
        [
            [
                0.8137781629116108,
                0.9941448382126348
            ],
            [
                0.8106585788561514,
                1.0508474576271183
            ],
            [
                0.7449740034662036,
                1.0573189522342064
            ]
        ]
    ],
    "1252": [
        [
            [
                0.5479202772963595,
                1.0767334360554695
            ],
            [
                0.4822357019064124,
                1.0832049306625582
            ],
            [
                0.4787694974003466,
                1.0625577812018492
            ]
        ],
        [
            [
                0.468370883882149,
                1.0006163328197226
            ],
            [
                0.46490467937608315,
                0.979969183359014
            ],
            [
                0.4635181975736568,
                0.9328197226502302
            ]
        ],
        [
            [
                0.4593587521663778,
                0.7913713405238821
            ],
            [
                0.45797227036395144,
                0.7442218798150992
            ],
            [
                0.45849220103986127,
                0.7278890600924487
            ]
        ],
        [
            [
                0.4600519930675909,
                0.6788906009244983
            ],
            [
                0.4605719237435008,
                0.662557781201848
            ],
            [
                0.4558925476603119,
                0.6385208012326645
            ]
        ],
        [
            [
                0.4418544194107452,
                0.5664098613251147
            ],
            [
                0.4371750433275563,
                0.5423728813559309
            ],
            [
                0.425736568457539,
                0.5303543913713394
            ]
        ],
        [
            [
                0.39142114384748694,
                0.4942989214175645
            ],
            [
                0.37998266897746963,
                0.48228043143297294
            ],
            [
                0.40043327556325814,
                0.4545454545454542
            ]
        ],
        [
            [
                0.4617850953206239,
                0.3713405238828963
            ],
            [
                0.4822357019064124,
                0.3436055469953771
            ],
            [
                0.4891681109185441,
                0.3013867488443755
            ]
        ],
        [
            [
                0.5658578856152514,
                0.18936825885978426
            ],
            [
                0.572790294627383,
                0.14714946070878274
            ],
            [
                0.6001733102253025,
                0.10647149460708778
            ]
        ],
        [
            [
                0.6182842287694984,
                -0.04314329738058518
            ],
            [
                0.6941074523396881,
                -0.05315870570107858
            ],
            [
                0.7707972270363962,
                -0.05546995377503816
            ]
        ],
        [
            [
                0.7724436741767763,
                0.01648690292758092
            ],
            [
                0.8006932409012131,
                0.054699537750385205
            ],
            [
                0.8126516464471403,
                0.09013867488443762
            ]
        ],
        [
            [
                0.822530329289428,
                0.24422187981509988
            ],
            [
                0.8344887348353552,
                0.2796610169491525
            ],
            [
                0.8707105719237433,
                0.2707241910631738
            ]
        ],
        [
            [
                0.9975736568457528,
                0.11140215716486884
            ],
            [
                1.033795493934142,
                0.1024653312788906
            ],
            [
                1.0296360485268634,
                0.14345146379044685
            ]
        ],
        [
            [
                1.0396880415944556,
                0.37272727272727235
            ],
            [
                1.035528596187175,
                0.41371340523882894
            ],
            [
                1.011785095320625,
                0.4448382126348221
            ]
        ],
        [
            [
                0.9180242634315423,
                0.5120184899845912
            ],
            [
                0.8942807625649912,
                0.5431432973805855
            ],
            [
                0.8802426343154245,
                0.5739599383667179
            ]
        ],
        [
            [
                0.8528596187175043,
                0.7604006163328197
            ],
            [
                0.8388214904679375,
                0.7912172573189522
            ],
            [
                0.8357019064124782,
                0.8479198767334355
            ]
        ],
        [
            [
                0.8137781629116108,
                0.9941448382126348
            ],
            [
                0.8106585788561514,
                1.0508474576271183
            ],
            [
                0.7449740034662036,
                1.0573189522342064
            ]
        ]
    ],
    "1468": [
        [
            [
                0.5479202772963595,
                1.0767334360554695
            ],
            [
                0.4822357019064124,
                1.0832049306625582
            ],
            [
                0.4787694974003466,
                1.0625577812018492
            ]
        ],
        [
            [
                0.468370883882149,
                1.0006163328197226
            ],
            [
                0.46490467937608315,
                0.979969183359014
            ],
            [
                0.4635181975736568,
                0.9328197226502302
            ]
        ],
        [
            [
                0.4593587521663778,
                0.7913713405238821
            ],
            [
                0.45797227036395144,
                0.7442218798150992
            ],
            [
                0.45849220103986127,
                0.7278890600924487
            ]
        ],
        [
            [
                0.4600519930675909,
                0.6788906009244983
            ],
            [
                0.4605719237435008,
                0.662557781201848
            ],
            [
                0.4558925476603119,
                0.6385208012326645
            ]
        ],
        [
            [
                0.4418544194107452,
                0.5664098613251147
            ],
            [
                0.4371750433275563,
                0.5423728813559309
            ],
            [
                0.425736568457539,
                0.5303543913713394
            ]
        ],
        [
            [
                0.39142114384748694,
                0.4942989214175645
            ],
            [
                0.37998266897746963,
                0.48228043143297294
            ],
            [
                0.40043327556325814,
                0.4545454545454542
            ]
        ],
        [
            [
                0.4617850953206239,
                0.3713405238828963
            ],
            [
                0.4822357019064124,
                0.3436055469953771
            ],
            [
                0.4891681109185441,
                0.3013867488443755
            ]
        ],
        [
            [
                0.5658578856152514,
                0.18936825885978426
            ],
            [
                0.572790294627383,
                0.14714946070878274
            ],
            [
                0.6001733102253025,
                0.10647149460708778
            ]
        ],
        [
            [
                0.6182842287694984,
                -0.04314329738058518
            ],
            [
                0.6941074523396881,
                -0.05315870570107858
            ],
            [
                0.7707972270363962,
                -0.05546995377503816
            ]
        ],
        [
            [
                0.7724436741767763,
                0.01648690292758092
            ],
            [
                0.8006932409012131,
                0.054699537750385205
            ],
            [
                0.8126516464471403,
                0.09013867488443762
            ]
        ],
        [
            [
                0.8216637781629116,
                0.21186440677966073
            ],
            [
                0.8336221837088388,
                0.2473035439137134
            ],
            [
                0.869844020797227,
                0.23836671802773465
            ]
        ],
        [
            [
                0.9975736568457528,
                0.11140215716486884
            ],
            [
                1.033795493934142,
                0.1024653312788906
            ],
            [
                1.0296360485268634,
                0.14345146379044685
            ]
        ],
        [
            [
                1.0396880415944556,
                0.37272727272727235
            ],
            [
                1.035528596187175,
                0.41371340523882894
            ],
            [
                1.011785095320625,
                0.4448382126348221
            ]
        ],
        [
            [
                0.9180242634315423,
                0.5120184899845912
            ],
            [
                0.8942807625649912,
                0.5431432973805855
            ],
            [
                0.8802426343154245,
                0.5739599383667179
            ]
        ],
        [
            [
                0.8528596187175043,
                0.7604006163328197
            ],
            [
                0.8388214904679375,
                0.7912172573189522
            ],
            [
                0.8357019064124782,
                0.8479198767334355
            ]
        ],
        [
            [
                0.8137781629116108,
                0.9941448382126348
            ],
            [
                0.8106585788561514,
                1.0508474576271183
            ],
            [
                0.7449740034662036,
                1.0573189522342064
            ]
        ]
    ],
    "1912": [
        [
            [
                0.5479202772963595,
                1.0767334360554695
            ],
            [
                0.4822357019064124,
                1.0832049306625582
            ],
            [
                0.4787694974003466,
                1.0625577812018492
            ]
        ],
        [
            [
                0.468370883882149,
                1.0006163328197226
            ],
            [
                0.46490467937608315,
                0.979969183359014
            ],
            [
                0.4635181975736568,
                0.9328197226502302
            ]
        ],
        [
            [
                0.4593587521663778,
                0.7913713405238821
            ],
            [
                0.45797227036395144,
                0.7442218798150992
            ],
            [
                0.45849220103986127,
                0.7278890600924487
            ]
        ],
        [
            [
                0.4600519930675909,
                0.6788906009244983
            ],
            [
                0.4605719237435008,
                0.662557781201848
            ],
            [
                0.4558925476603119,
                0.6385208012326645
            ]
        ],
        [
            [
                0.4418544194107452,
                0.5664098613251147
            ],
            [
                0.4371750433275563,
                0.5423728813559309
            ],
            [
                0.425736568457539,
                0.5303543913713394
            ]
        ],
        [
            [
                0.39142114384748694,
                0.4942989214175645
            ],
            [
                0.37998266897746963,
                0.48228043143297294
            ],
            [
                0.40043327556325814,
                0.4545454545454542
            ]
        ],
        [
            [
                0.4617850953206239,
                0.3713405238828963
            ],
            [
                0.4822357019064124,
                0.3436055469953771
            ],
            [
                0.4891681109185441,
                0.3013867488443755
            ]
        ],
        [
            [
                0.5658578856152514,
                0.18936825885978426
            ],
            [
                0.572790294627383,
                0.14714946070878274
            ],
            [
                0.6001733102253025,
                0.10647149460708778
            ]
        ],
        [
            [
                0.6182842287694984,
                -0.04314329738058518
            ],
            [
                0.6941074523396881,
                -0.05315870570107858
            ],
            [
                0.7707972270363962,
                -0.05546995377503816
            ]
        ],
        [
            [
                0.7724436741767763,
                0.01648690292758092
            ],
            [
                0.8006932409012131,
                0.054699537750385205
            ],
            [
                0.8126516464471403,
                0.09013867488443762
            ]
        ],
        [
            [
                0.8216637781629116,
                0.21186440677966073
            ],
            [
                0.8336221837088388,
                0.2473035439137134
            ],
            [
                0.869844020797227,
                0.23836671802773465
            ]
        ],
        [
            [
                0.9975736568457528,
                0.11140215716486884
            ],
            [
                1.033795493934142,
                0.1024653312788906
            ],
            [
                1.0296360485268634,
                0.14345146379044685
            ]
        ],
        [
            [
                1.0396880415944556,
                0.37272727272727235
            ],
            [
                1.035528596187175,
                0.41371340523882894
            ],
            [
                1.011785095320625,
                0.4448382126348221
            ]
        ],
        [
            [
                0.9180242634315423,
                0.5120184899845912
            ],
            [
                0.8942807625649912,
                0.5431432973805855
            ],
            [
                0.8802426343154245,
                0.5739599383667179
            ]
        ],
        [
            [
                0.8528596187175043,
                0.7604006163328197
            ],
            [
                0.8388214904679375,
                0.7912172573189522
            ],
            [
                0.8357019064124782,
                0.8479198767334355
            ]
        ],
        [
            [
                0.8137781629116108,
                0.9941448382126348
            ],
            [
                0.8106585788561514,
                1.0508474576271183
            ],
            [
                0.7449740034662036,
                1.0573189522342064
            ]
        ]
    ],
    "1953": [
        [
            [
                0.5479202772963595,
                1.0767334360554695
            ],
            [
                0.4822357019064124,
                1.0832049306625582
            ],
            [
                0.4787694974003466,
                1.0625577812018492
            ]
        ],
        [
            [
                0.468370883882149,
                1.0006163328197226
            ],
            [
                0.46490467937608315,
                0.979969183359014
            ],
            [
                0.4635181975736568,
                0.9328197226502302
            ]
        ],
        [
            [
                0.4593587521663778,
                0.7913713405238821
            ],
            [
                0.45797227036395144,
                0.7442218798150992
            ],
            [
                0.45849220103986127,
                0.7278890600924487
            ]
        ],
        [
            [
                0.4600519930675909,
                0.6788906009244983
            ],
            [
                0.4605719237435008,
                0.662557781201848
            ],
            [
                0.4558925476603119,
                0.6385208012326645
            ]
        ],
        [
            [
                0.4418544194107452,
                0.5664098613251147
            ],
            [
                0.4371750433275563,
                0.5423728813559309
            ],
            [
                0.425736568457539,
                0.5303543913713394
            ]
        ],
        [
            [
                0.39142114384748694,
                0.4942989214175645
            ],
            [
                0.37998266897746963,
                0.48228043143297294
            ],
            [
                0.40043327556325814,
                0.4545454545454542
            ]
        ],
        [
            [
                0.4617850953206239,
                0.3713405238828963
            ],
            [
                0.4822357019064124,
                0.3436055469953771
            ],
            [
                0.4891681109185441,
                0.3013867488443755
            ]
        ],
        [
            [
                0.5658578856152514,
                0.18936825885978426
            ],
            [
                0.572790294627383,
                0.14714946070878274
            ],
            [
                0.6001733102253025,
                0.10647149460708778
            ]
        ],
        [
            [
                0.6182842287694984,
                -0.04314329738058518
            ],
            [
                0.6941074523396881,
                -0.05315870570107858
            ],
            [
                0.7707972270363962,
                -0.05546995377503816
            ]
        ],
        [
            [
                0.7724436741767763,
                0.01648690292758092
            ],
            [
                0.8006932409012131,
                0.054699537750385205
            ],
            [
                0.8126516464471403,
                0.09013867488443762
            ]
        ],
        [
            [
                0.8216637781629116,
                0.21186440677966073
            ],
            [
                0.8336221837088388,
                0.2473035439137134
            ],
            [
                0.869844020797227,
                0.23836671802773465
            ]
        ],
        [
            [
                0.9975736568457528,
                0.11140215716486884
            ],
            [
                1.033795493934142,
                0.1024653312788906
            ],
            [
                1.0296360485268634,
                0.14345146379044685
            ]
        ],
        [
            [
                1.0396880415944556,
                0.477503852080123
            ],
            [
                1.035528596187175,
                0.5184899845916795
            ],
            [
                1.0117850953206255,
                0.5496147919876727
            ]
        ],
        [
            [
                0.9275563258232234,
                0.5890600924499225
            ],
            [
                0.9038128249566724,
                0.6201848998459167
            ],
            [
                0.8897746967071056,
                0.6510015408320489
            ]
        ],
        [
            [
                0.8528596187175043,
                0.7604006163328197
            ],
            [
                0.8388214904679375,
                0.7912172573189522
            ],
            [
                0.8357019064124782,
                0.8479198767334355
            ]
        ],
        [
            [
                0.8137781629116108,
                0.9941448382126348
            ],
            [
                0.8106585788561514,
                1.0508474576271183
            ],
            [
                0.7449740034662036,
                1.0573189522342064
            ]
        ]
    ],
    "1986": [
        [
            [
                0.5479202772963595,
                1.0767334360554695
            ],
            [
                0.4822357019064124,
                1.0832049306625582
            ],
            [
                0.4787694974003466,
                1.0625577812018492
            ]
        ],
        [
            [
                0.468370883882149,
                1.0006163328197226
            ],
            [
                0.46490467937608315,
                0.979969183359014
            ],
            [
                0.4635181975736568,
                0.9328197226502302
            ]
        ],
        [
            [
                0.4593587521663778,
                0.7913713405238821
            ],
            [
                0.45797227036395144,
                0.7442218798150992
            ],
            [
                0.45849220103986127,
                0.7278890600924487
            ]
        ],
        [
            [
                0.4600519930675909,
                0.6788906009244983
            ],
            [
                0.4605719237435008,
                0.662557781201848
            ],
            [
                0.4558925476603119,
                0.6385208012326645
            ]
        ],
        [
            [
                0.4418544194107452,
                0.5664098613251147
            ],
            [
                0.4371750433275563,
                0.5423728813559309
            ],
            [
                0.425736568457539,
                0.5303543913713394
            ]
        ],
        [
            [
                0.39142114384748694,
                0.4942989214175645
            ],
            [
                0.37998266897746963,
                0.48228043143297294
            ],
            [
                0.40043327556325814,
                0.4545454545454542
            ]
        ],
        [
            [
                0.4617850953206239,
                0.3713405238828963
            ],
            [
                0.4822357019064124,
                0.3436055469953771
            ],
            [
                0.4891681109185441,
                0.3013867488443755
            ]
        ],
        [
            [
                0.5658578856152514,
                0.18936825885978426
            ],
            [
                0.572790294627383,
                0.14714946070878274
            ],
            [
                0.6001733102253025,
                0.10647149460708778
            ]
        ],
        [
            [
                0.6182842287694984,
                -0.04314329738058518
            ],
            [
                0.6941074523396881,
                -0.05315870570107858
            ],
            [
                0.7707972270363962,
                -0.05546995377503816
            ]
        ],
        [
            [
                0.7724436741767763,
                0.01648690292758092
            ],
            [
                0.8006932409012131,
                0.054699537750385205
            ],
            [
                0.8126516464471403,
                0.09013867488443762
            ]
        ],
        [
            [
                0.8207972270363951,
                0.18721109399075472
            ],
            [
                0.8327556325823223,
                0.2226502311248074
            ],
            [
                0.8689774696707104,
                0.21371340523882865
            ]
        ],
        [
            [
                1.0114384748700165,
                0.0805855161787363
            ],
            [
                1.0476603119584056,
                0.07164869029275808
            ],
            [
                1.043500866551127,
                0.11263482280431435
            ]
        ],
        [
            [
                1.0396880415944556,
                0.477503852080123
            ],
            [
                1.035528596187175,
                0.5184899845916795
            ],
            [
                1.0117850953206255,
                0.5496147919876727
            ]
        ],
        [
            [
                0.9275563258232234,
                0.5890600924499225
            ],
            [
                0.9038128249566724,
                0.6201848998459167
            ],
            [
                0.8897746967071056,
                0.6510015408320489
            ]
        ],
        [
            [
                0.8528596187175043,
                0.7604006163328197
            ],
            [
                0.8388214904679375,
                0.7912172573189522
            ],
            [
                0.8357019064124782,
                0.8479198767334355
            ]
        ],
        [
            [
                0.8137781629116108,
                0.9941448382126348
            ],
            [
                0.8106585788561514,
                1.0508474576271183
            ],
            [
                0.7449740034662036,
                1.0573189522342064
            ]
        ]
    ],
    "2303": [
        [
            [
                0.5479202772963595,
                1.0767334360554695
            ],
            [
                0.4822357019064124,
                1.0832049306625582
            ],
            [
                0.4787694974003466,
                1.0625577812018492
            ]
        ],
        [
            [
                0.468370883882149,
                1.0006163328197226
            ],
            [
                0.46490467937608315,
                0.979969183359014
            ],
            [
                0.4635181975736568,
                0.9328197226502302
            ]
        ],
        [
            [
                0.4593587521663778,
                0.7913713405238821
            ],
            [
                0.45797227036395144,
                0.7442218798150992
            ],
            [
                0.45849220103986127,
                0.7278890600924487
            ]
        ],
        [
            [
                0.4600519930675909,
                0.6788906009244983
            ],
            [
                0.4605719237435008,
                0.662557781201848
            ],
            [
                0.4558925476603119,
                0.6385208012326645
            ]
        ],
        [
            [
                0.4418544194107452,
                0.5664098613251147
            ],
            [
                0.4371750433275563,
                0.5423728813559309
            ],
            [
                0.425736568457539,
                0.5303543913713394
            ]
        ],
        [
            [
                0.39142114384748694,
                0.4942989214175645
            ],
            [
                0.37998266897746963,
                0.48228043143297294
            ],
            [
                0.40043327556325814,
                0.4545454545454542
            ]
        ],
        [
            [
                0.4617850953206239,
                0.3713405238828963
            ],
            [
                0.4822357019064124,
                0.3436055469953771
            ],
            [
                0.4891681109185441,
                0.3013867488443755
            ]
        ],
        [
            [
                0.5658578856152514,
                0.18936825885978426
            ],
            [
                0.572790294627383,
                0.14714946070878274
            ],
            [
                0.6001733102253025,
                0.10647149460708778
            ]
        ],
        [
            [
                0.6182842287694984,
                -0.04314329738058518
            ],
            [
                0.6941074523396881,
                -0.05315870570107858
            ],
            [
                0.7707972270363962,
                -0.05546995377503816
            ]
        ],
        [
            [
                0.7724436741767763,
                0.01648690292758092
            ],
            [
                0.8006932409012131,
                0.054699537750385205
            ],
            [
                0.8126516464471403,
                0.09013867488443762
            ]
        ],
        [
            [
                0.7896013864818024,
                0.14098613251155595
            ],
            [
                0.8015597920277296,
                0.17642526964560862
            ],
            [
                0.8377816291161178,
                0.16748844375962985
            ]
        ],
        [
            [
                0.9923743500866541,
                0.009707241910631537
            ],
            [
                1.0285961871750433,
                0.0007704160246533127
            ],
            [
                1.0244367417677647,
                0.04175654853620956
            ]
        ],
        [
            [
                1.0362218370883893,
                0.31725731895223397
            ],
            [
                1.0320623916811091,
                0.35824345146379044
            ],
            [
                1.0083188908145593,
                0.38936825885978366
            ]
        ],
        [
            [
                0.926689774696707,
                0.4657935285053926
            ],
            [
                0.902946273830156,
                0.49691833590138673
            ],
            [
                0.8889081455805893,
                0.5277349768875188
            ]
        ],
        [
            [
                0.8528596187175043,
                0.7604006163328197
            ],
            [
                0.8388214904679375,
                0.7912172573189522
            ],
            [
                0.8357019064124782,
                0.8479198767334355
            ]
        ],
        [
            [
                0.8137781629116108,
                0.9941448382126348
            ],
            [
                0.8106585788561514,
                1.0508474576271183
            ],
            [
                0.7449740034662036,
                1.0573189522342064
            ]
        ]
    ],
    "2484": [
        [
            [
                0.5479202772963595,
                1.0767334360554695
            ],
            [
                0.4822357019064124,
                1.0832049306625582
            ],
            [
                0.4787694974003466,
                1.0625577812018492
            ]
        ],
        [
            [
                0.468370883882149,
                1.0006163328197226
            ],
            [
                0.46490467937608315,
                0.979969183359014
            ],
            [
                0.4635181975736568,
                0.9328197226502302
            ]
        ],
        [
            [
                0.4593587521663778,
                0.7913713405238821
            ],
            [
                0.45797227036395144,
                0.7442218798150992
            ],
            [
                0.45849220103986127,
                0.7278890600924487
            ]
        ],
        [
            [
                0.4600519930675909,
                0.6788906009244983
            ],
            [
                0.4605719237435008,
                0.662557781201848
            ],
            [
                0.4558925476603119,
                0.6385208012326645
            ]
        ],
        [
            [
                0.4418544194107452,
                0.5664098613251147
            ],
            [
                0.4371750433275563,
                0.5423728813559309
            ],
            [
                0.425736568457539,
                0.5303543913713394
            ]
        ],
        [
            [
                0.39142114384748694,
                0.4942989214175645
            ],
            [
                0.37998266897746963,
                0.48228043143297294
            ],
            [
                0.40043327556325814,
                0.4545454545454542
            ]
        ],
        [
            [
                0.4617850953206239,
                0.3713405238828963
            ],
            [
                0.4822357019064124,
                0.3436055469953771
            ],
            [
                0.4891681109185441,
                0.3013867488443755
            ]
        ],
        [
            [
                0.5658578856152514,
                0.18936825885978426
            ],
            [
                0.572790294627383,
                0.14714946070878274
            ],
            [
                0.6001733102253025,
                0.10647149460708778
            ]
        ],
        [
            [
                0.6182842287694984,
                -0.04314329738058518
            ],
            [
                0.6941074523396881,
                -0.05315870570107858
            ],
            [
                0.7707972270363962,
                -0.05546995377503816
            ]
        ],
        [
            [
                0.7724436741767763,
                0.01648690292758092
            ],
            [
                0.8006932409012131,
                0.054699537750385205
            ],
            [
                0.8126516464471403,
                0.09013867488443762
            ]
        ],
        [
            [
                0.8277296360485269,
                0.16872110939907523
            ],
            [
                0.8396880415944541,
                0.20416024653312786
            ],
            [
                0.8759098786828422,
                0.19522342064714912
            ]
        ],
        [
            [
                0.9923743500866541,
                0.009707241910631537
            ],
            [
                1.0285961871750433,
                0.0007704160246533127
            ],
            [
                1.0244367417677647,
                0.04175654853620956
            ]
        ],
        [
            [
                1.0362218370883896,
                0.3758089368258857
            ],
            [
                1.0320623916811091,
                0.41679506933744215
            ],
            [
                1.0083188908145595,
                0.4479198767334354
            ]
        ],
        [
            [
                0.926689774696707,
                0.4657935285053926
            ],
            [
                0.902946273830156,
                0.49691833590138673
            ],
            [
                0.8889081455805893,
                0.5277349768875188
            ]
        ],
        [
            [
                0.8528596187175043,
                0.7604006163328197
            ],
            [
                0.8388214904679375,
                0.7912172573189522
            ],
            [
                0.8357019064124782,
                0.8479198767334355
            ]
        ],
        [
            [
                0.8137781629116108,
                0.9941448382126348
            ],
            [
                0.8106585788561514,
                1.0508474576271183
            ],
            [
                0.7449740034662036,
                1.0573189522342064
            ]
        ]
    ],
    "2622": [
        [
            [
                0.5479202772963595,
                1.0767334360554695
            ],
            [
                0.4822357019064124,
                1.0832049306625582
            ],
            [
                0.4787694974003466,
                1.0625577812018492
            ]
        ],
        [
            [
                0.468370883882149,
                1.0006163328197226
            ],
            [
                0.46490467937608315,
                0.979969183359014
            ],
            [
                0.4635181975736568,
                0.9328197226502302
            ]
        ],
        [
            [
                0.4593587521663778,
                0.7913713405238821
            ],
            [
                0.45797227036395144,
                0.7442218798150992
            ],
            [
                0.45849220103986127,
                0.7278890600924487
            ]
        ],
        [
            [
                0.4600519930675909,
                0.6788906009244983
            ],
            [
                0.4605719237435008,
                0.662557781201848
            ],
            [
                0.4558925476603119,
                0.6385208012326645
            ]
        ],
        [
            [
                0.4418544194107452,
                0.5664098613251147
            ],
            [
                0.4371750433275563,
                0.5423728813559309
            ],
            [
                0.425736568457539,
                0.5303543913713394
            ]
        ],
        [
            [
                0.39142114384748694,
                0.4942989214175645
            ],
            [
                0.37998266897746963,
                0.48228043143297294
            ],
            [
                0.40043327556325814,
                0.4545454545454542
            ]
        ],
        [
            [
                0.4617850953206239,
                0.3713405238828963
            ],
            [
                0.4822357019064124,
                0.3436055469953771
            ],
            [
                0.4891681109185441,
                0.3013867488443755
            ]
        ],
        [
            [
                0.5658578856152514,
                0.18936825885978426
            ],
            [
                0.572790294627383,
                0.14714946070878274
            ],
            [
                0.6001733102253025,
                0.10647149460708778
            ]
        ],
        [
            [
                0.6182842287694984,
                -0.04314329738058518
            ],
            [
                0.6941074523396881,
                -0.05315870570107858
            ],
            [
                0.7707972270363962,
                -0.05546995377503816
            ]
        ],
        [
            [
                0.7724436741767763,
                0.01648690292758092
            ],
            [
                0.8006932409012131,
                0.054699537750385205
            ],
            [
                0.8126516464471403,
                0.09013867488443762
            ]
        ],
        [
            [
                0.8277296360485269,
                0.16872110939907523
            ],
            [
                0.8396880415944541,
                0.20416024653312786
            ],
            [
                0.8759098786828422,
                0.19522342064714912
            ]
        ],
        [
            [
                0.9923743500866541,
                0.009707241910631537
            ],
            [
                1.0285961871750433,
                0.0007704160246533127
            ],
            [
                1.0244367417677647,
                0.04175654853620956
            ]
        ],
        [
            [
                1.0362218370883896,
                0.3758089368258857
            ],
            [
                1.0320623916811091,
                0.41679506933744215
            ],
            [
                1.0083188908145595,
                0.4479198767334354
            ]
        ],
        [
            [
                0.9310225303292893,
                0.4966101694915251
            ],
            [
                0.9072790294627383,
                0.5277349768875192
            ],
            [
                0.8932409012131716,
                0.5585516178736514
            ]
        ],
        [
            [
                0.8528596187175043,
                0.7604006163328197
            ],
            [
                0.8388214904679375,
                0.7912172573189522
            ],
            [
                0.8357019064124782,
                0.8479198767334355
            ]
        ],
        [
            [
                0.8137781629116108,
                0.9941448382126348
            ],
            [
                0.8106585788561514,
                1.0508474576271183
            ],
            [
                0.7449740034662036,
                1.0573189522342064
            ]
        ]
    ],
    "2809": [
        [
            [
                0.5479202772963595,
                1.0767334360554695
            ],
            [
                0.4822357019064124,
                1.0832049306625582
            ],
            [
                0.4787694974003466,
                1.0625577812018492
            ]
        ],
        [
            [
                0.461095973588498,
                0.9937680396709997
            ],
            [
                0.4576297690824322,
                0.973120890210291
            ],
            [
                0.45624328728000585,
                0.9259714295015072
            ]
        ],
        [
            [
                0.4435251238801962,
                0.8063361292562767
            ],
            [
                0.4421386420777699,
                0.7591866685474938
            ],
            [
                0.44265857275367976,
                0.7428538488248434
            ]
        ],
        [
            [
                0.4353743561891278,
                0.6639258121921041
            ],
            [
                0.4358942868650377,
                0.647592992469454
            ],
            [
                0.43121491078184876,
                0.6235560125002705
            ]
        ],
        [
            [
                0.4418544194107452,
                0.5664098613251147
            ],
            [
                0.4371750433275563,
                0.5423728813559309
            ],
            [
                0.425736568457539,
                0.5303543913713394
            ]
        ],
        [
            [
                0.39142114384748694,
                0.4942989214175645
            ],
            [
                0.37998266897746963,
                0.48228043143297294
            ],
            [
                0.40043327556325814,
                0.4545454545454542
            ]
        ],
        [
            [
                0.45051611663045865,
                0.3589121400203994
            ],
            [
                0.4709667232162472,
                0.3311771631328802
            ],
            [
                0.47789913222837893,
                0.2889583649818786
            ]
        ],
        [
            [
                0.530481851246125,
                0.168569738926626
            ],
            [
                0.5374142602582566,
                0.12635094077562445
            ],
            [
                0.5647972758561761,
                0.08567297467392952
            ]
        ],
        [
            [
                0.5905545927209715,
                -0.02927580893682556
            ],
            [
                0.6663778162911612,
                -0.03929121725731895
            ],
            [
                0.7430675909878693,
                -0.04160246533127853
            ]
        ],
        [
            [
                0.7507798960138647,
                0.011864406779661045
            ],
            [
                0.7790294627383015,
                0.05007704160246533
            ],
            [
                0.7909878682842286,
                0.08551617873651775
            ]
        ],
        [
            [
                0.8043358068689432,
                0.12610950758479975
            ],
            [
                0.8162942124148704,
                0.16154864471885239
            ],
            [
                0.8525160495032585,
                0.15261181883287364
            ]
        ],
        [
            [
                0.9627041277125481,
                0.02695479502593352
            ],
            [
                0.9989259648009373,
                0.018017969139955292
            ],
            [
                0.9947665193936587,
                0.05900410165151155
            ]
        ],
        [
            [
                0.9985634779212551,
                0.3413138305952817
            ],
            [
                0.9944040325139747,
                0.3822999631068382
            ],
            [
                0.970660531647425,
                0.4134247705028315
            ]
        ],
        [
            [
                0.895646495960163,
                0.4864645500119356
            ],
            [
                0.8719029950936119,
                0.5175893574079299
            ],
            [
                0.8578648668440452,
                0.548405998394062
            ]
        ],
        [
            [
                0.818339456147631,
                0.7568496495149635
            ],
            [
                0.8043013278980643,
                0.7876662905010959
            ],
            [
                0.801181743842605,
                0.8443689099155792
            ]
        ],
        [
            [
                0.7862476200356378,
                0.9954130406475835
            ],
            [
                0.7831280359801784,
                1.0521156600620671
            ],
            [
                0.7174434605902305,
                1.058587154669155
            ]
        ]
    ],
    "2845": [
        [
            [
                0.5479202772963595,
                1.0767334360554695
            ],
            [
                0.4822357019064124,
                1.0832049306625582
            ],
            [
                0.4787694974003466,
                1.0625577812018492
            ]
        ],
        [
            [
                0.4596954560988112,
                0.9924496516851493
            ],
            [
                0.45622925159274536,
                0.9718025022244405
            ],
            [
                0.454842769790319,
                0.9246530415156569
            ]
        ],
        [
            [
                0.44047693875558375,
                0.8092170511512832
            ],
            [
                0.4390904569531574,
                0.7620675904425003
            ],
            [
                0.4396103876290673,
                0.7457347707198498
            ]
        ],
        [
            [
                0.4306235811750921,
                0.6610448902970978
            ],
            [
                0.43114351185100197,
                0.6447120705744476
            ],
            [
                0.42646413576781306,
                0.6206750906052642
            ]
        ],
        [
            [
                0.4418544194107452,
                0.5664098613251147
            ],
            [
                0.4371750433275563,
                0.5423728813559309
            ],
            [
                0.425736568457539,
                0.5303543913713394
            ]
        ],
        [
            [
                0.39142114384748694,
                0.4942989214175645
            ],
            [
                0.37998266897746963,
                0.48228043143297294
            ],
            [
                0.40043327556325814,
                0.4545454545454542
            ]
        ],
        [
            [
                0.4483466875778065,
                0.3565195099720043
            ],
            [
                0.46879729416359506,
                0.3287845330844851
            ],
            [
                0.47572970317572677,
                0.2865657349334835
            ]
        ],
        [
            [
                0.5236714916884322,
                0.16456574578441371
            ],
            [
                0.5306039007005638,
                0.12234694763341217
            ],
            [
                0.5579869162984834,
                0.08166898153171724
            ]
        ],
        [
            [
                0.5822029503677734,
                -0.031605255814517466
            ],
            [
                0.658026173937963,
                -0.04162066413501085
            ],
            [
                0.7347159486346712,
                -0.043931912208970435
            ]
        ],
        [
            [
                0.7646447140381282,
                0.024191063174114045
            ],
            [
                0.792894280762565,
                0.06240369799691833
            ],
            [
                0.804852686308492,
                0.09784283513097075
            ]
        ],
        [
            [
                0.8589254766031196,
                0.15023112480739573
            ],
            [
                0.8708838821490468,
                0.18567026194144837
            ],
            [
                0.907105719237435,
                0.17673343605546962
            ]
        ],
        [
            [
                1.0027729636048515,
                0.10832049306625556
            ],
            [
                1.0389948006932408,
                0.09938366718027734
            ],
            [
                1.0348353552859622,
                0.1403697996918336
            ]
        ],
        [
            [
                1.0379549393414225,
                0.4158705701078579
            ],
            [
                1.033795493934142,
                0.4568567026194144
            ],
            [
                1.0100519930675929,
                0.4879815100154077
            ]
        ],
        [
            [
                0.8998266897746966,
                0.5366718027734975
            ],
            [
                0.8760831889081455,
                0.5677966101694916
            ],
            [
                0.8620450606585788,
                0.5986132511556239
            ]
        ],
        [
            [
                0.8433275563258232,
                0.792758089368259
            ],
            [
                0.8292894280762565,
                0.8235747303543913
            ],
            [
                0.8261698440207972,
                0.8802773497688747
            ]
        ],
        [
            [
                0.8098786828422876,
                1.0288135593220338
            ],
            [
                0.8067590987868284,
                1.0855161787365175
            ],
            [
                0.7410745233968804,
                1.0919876733436054
            ]
        ]
    ],
    "2936": [
        [
            [
                0.5479202772963595,
                1.0767334360554695
            ],
            [
                0.4822357019064124,
                1.0832049306625582
            ],
            [
                0.4787694974003466,
                1.0625577812018492
            ]
        ],
        [
            [
                0.45615525911099175,
                0.9891170598320276
            ],
            [
                0.4526890546049259,
                0.9684699103713188
            ],
            [
                0.4513025728024996,
                0.921320449662535
            ]
        ],
        [
            [
                0.4327718041350355,
                0.8164993814969939
            ],
            [
                0.4313853223326092,
                0.7693499207882111
            ],
            [
                0.43190525300851906,
                0.7530171010655605
            ]
        ],
        [
            [
                0.41861467766739074,
                0.6537625599513873
            ],
            [
                0.41913460834330063,
                0.6374297402287371
            ],
            [
                0.4144552322601117,
                0.6133927602595537
            ]
        ],
        [
            [
                0.4418544194107452,
                0.5664098613251147
            ],
            [
                0.4371750433275563,
                0.5423728813559309
            ],
            [
                0.425736568457539,
                0.5303543913713394
            ]
        ],
        [
            [
                0.39142114384748694,
                0.4942989214175645
            ],
            [
                0.37998266897746963,
                0.48228043143297294
            ],
            [
                0.40043327556325814,
                0.4545454545454542
            ]
        ],
        [
            [
                0.44286285302804695,
                0.35047147290522773
            ],
            [
                0.46331345961383547,
                0.32273649601770854
            ],
            [
                0.4702458686259672,
                0.2805176978667069
            ]
        ],
        [
            [
                0.50645641613982,
                0.1544445408971549
            ],
            [
                0.5133888251519515,
                0.11222574274615334
            ],
            [
                0.5407718407498711,
                0.0715477766444584
            ]
        ],
        [
            [
                0.5610918544194117,
                -0.0374935798664609
            ],
            [
                0.6369150779896013,
                -0.04750898818695428
            ],
            [
                0.7136048526863095,
                -0.049820236260913864
            ]
        ],
        [
            [
                0.7767764298093586,
                0.014946070878274285
            ],
            [
                0.8050259965337954,
                0.05315870570107858
            ],
            [
                0.8169844020797226,
                0.088597842835131
            ]
        ],
        [
            [
                0.8319543867580941,
                0.12096871441012903
            ],
            [
                0.8439127923040213,
                0.15640785154418166
            ],
            [
                0.8801346293924095,
                0.14747102565820291
            ]
        ],
        [
            [
                1.0097053726169836,
                0.10523882896764226
            ],
            [
                1.0459272097053727,
                0.09630200308166409
            ],
            [
                1.041767764298094,
                0.13728813559322034
            ]
        ],
        [
            [
                1.0552859618717518,
                0.3942989214175651
            ],
            [
                1.0511265164644714,
                0.43528505392912165
            ],
            [
                1.0273830155979218,
                0.4664098613251149
            ]
        ],
        [
            [
                0.9050259965337955,
                0.5181818181818169
            ],
            [
                0.8812824956672444,
                0.5493066255778121
            ],
            [
                0.8672443674176776,
                0.5801232665639435
            ]
        ],
        [
            [
                0.8641247833622183,
                0.8081664098613248
            ],
            [
                0.8500866551126516,
                0.8389830508474575
            ],
            [
                0.8469670710571923,
                0.8956856702619407
            ]
        ],
        [
            [
                0.7888503755054881,
                1.0206851119894598
            ],
            [
                0.7857307914500288,
                1.0773877314039433
            ],
            [
                0.7200462160600808,
                1.0838592260110314
            ]
        ]
    ],
    "3015": [
        [
            [
                0.5479202772963595,
                1.0767334360554695
            ],
            [
                0.4822357019064124,
                1.0832049306625582
            ],
            [
                0.4787694974003466,
                1.0625577812018492
            ]
        ],
        [
            [
                0.4530819012864012,
                0.986223930640856
            ],
            [
                0.44961569678033536,
                0.9655767811801472
            ],
            [
                0.448229214977909,
                0.9184273204713632
            ]
        ],
        [
            [
                0.4260827312226914,
                0.8228214045443691
            ],
            [
                0.42469624942026507,
                0.7756719438355864
            ],
            [
                0.42521618009617496,
                0.7593391241129358
            ]
        ],
        [
            [
                0.4081893658310347,
                0.6474405369040123
            ],
            [
                0.40870929650694454,
                0.631107717181362
            ],
            [
                0.40402992042375563,
                0.6070707372121786
            ]
        ],
        [
            [
                0.4418544194107452,
                0.5664098613251147
            ],
            [
                0.4371750433275563,
                0.5423728813559309
            ],
            [
                0.425736568457539,
                0.5303543913713394
            ]
        ],
        [
            [
                0.39142114384748694,
                0.4942989214175645
            ],
            [
                0.37998266897746963,
                0.48228043143297294
            ],
            [
                0.40043327556325814,
                0.4545454545454542
            ]
        ],
        [
            [
                0.4381021614958381,
                0.3452209791879162
            ],
            [
                0.45855276808162665,
                0.31748600230039703
            ],
            [
                0.46548517709375836,
                0.2752672041493954
            ]
        ],
        [
            [
                0.5762564991334489,
                0.1816640986132512
            ],
            [
                0.5831889081455806,
                0.1394453004622496
            ],
            [
                0.6105719237435001,
                0.09876733436055468
            ]
        ],
        [
            [
                0.6217504332755641,
                -0.035439137134052105
            ],
            [
                0.6975736568457538,
                -0.04545454545454545
            ],
            [
                0.7742634315424619,
                -0.04776579352850503
            ]
        ],
        [
            [
                0.7906412478336221,
                -0.03127889060092447
            ],
            [
                0.8188908145580588,
                0.006933744221879814
            ],
            [
                0.830849220103986,
                0.04237288135593226
            ]
        ],
        [
            [
                0.8831889081455806,
                0.1594761171032355
            ],
            [
                0.8951473136915078,
                0.19491525423728812
            ],
            [
                0.9313691507798959,
                0.18597842835130937
            ]
        ],
        [
            [
                1.0166377816291152,
                0.10215716486902902
            ],
            [
                1.0528596187175043,
                0.09322033898305083
            ],
            [
                1.0487001733102257,
                0.1342064714946071
            ]
        ],
        [
            [
                1.0691507798960151,
                0.4497688751926037
            ],
            [
                1.0649913344887347,
                0.49075500770416025
            ],
            [
                1.0412478336221853,
                0.5218798151001536
            ]
        ],
        [
            [
                0.9171577123050259,
                0.5335901386748835
            ],
            [
                0.8934142114384749,
                0.5647149460708782
            ],
            [
                0.8793760831889081,
                0.5955315870570099
            ]
        ],
        [
            [
                0.8779896013864817,
                0.8297380585516176
            ],
            [
                0.863951473136915,
                0.8605546995377503
            ],
            [
                0.8608318890814558,
                0.9172573189522334
            ]
        ],
        [
            [
                0.8150779896013864,
                1.0349768875192604
            ],
            [
                0.8119584055459271,
                1.091679506933744
            ],
            [
                0.7462738301559793,
                1.0981510015408322
            ]
        ]
    ],
    "3085": [
        [
            [
                0.5479202772963595,
                1.0767334360554695
            ],
            [
                0.4822357019064124,
                1.0832049306625582
            ],
            [
                0.4787694974003466,
                1.0625577812018492
            ]
        ],
        [
            [
                0.45035867283423237,
                0.9836603984461467
            ],
            [
                0.44689246832816654,
                0.963013248985438
            ],
            [
                0.4455059865257402,
                0.9158637882766542
            ]
        ],
        [
            [
                0.4201557045915004,
                0.8284231971179927
            ],
            [
                0.41876922278907414,
                0.7812737364092099
            ],
            [
                0.41928915346498397,
                0.7649409166865594
            ]
        ],
        [
            [
                0.39895174774818754,
                0.6418387443303888
            ],
            [
                0.3994716784240974,
                0.6255059246077387
            ],
            [
                0.3947923023409085,
                0.6014689446385552
            ]
        ],
        [
            [
                0.4418544194107452,
                0.5664098613251147
            ],
            [
                0.4371750433275563,
                0.5423728813559309
            ],
            [
                0.425736568457539,
                0.5303543913713394
            ]
        ],
        [
            [
                0.39142114384748694,
                0.4942989214175645
            ],
            [
                0.37998266897746963,
                0.48228043143297294
            ],
            [
                0.40043327556325814,
                0.4545454545454542
            ]
        ],
        [
            [
                0.4338838272267923,
                0.34056864298270345
            ],
            [
                0.4543344338125808,
                0.31283366609518426
            ],
            [
                0.46126684282471253,
                0.27061486794418266
            ]
        ],
        [
            [
                0.5291161178509534,
                0.15947611710323575
            ],
            [
                0.536048526863085,
                0.1172573189522342
            ],
            [
                0.5634315424610044,
                0.07657935285053927
            ]
        ],
        [
            [
                0.5739168110918553,
                -0.0428351309707239
            ],
            [
                0.649740034662045,
                -0.05285053929121725
            ],
            [
                0.7264298093587531,
                -0.05516178736517683
            ]
        ],
        [
            [
                0.733795493934142,
                0.003235747303543939
            ],
            [
                0.7620450606585788,
                0.04144838212634822
            ],
            [
                0.774003466204506,
                0.07688751926040067
            ]
        ],
        [
            [
                0.8325823223570191,
                0.11140215716486876
            ],
            [
                0.8445407279029463,
                0.1468412942989214
            ],
            [
                0.8807625649913344,
                0.13790446841294265
            ]
        ],
        [
            [
                0.9708838821490459,
                0.08613251155624013
            ],
            [
                1.007105719237435,
                0.07719568567026194
            ],
            [
                1.0029462738301564,
                0.1181818181818182
            ]
        ],
        [
            [
                1.0396880415944556,
                0.4436055469953771
            ],
            [
                1.035528596187175,
                0.48459167950693377
            ],
            [
                1.0117850953206255,
                0.515716486902927
            ]
        ],
        [
            [
                0.891161178509532,
                0.582896764252696
            ],
            [
                0.8674176776429809,
                0.6140215716486902
            ],
            [
                0.8533795493934142,
                0.6448382126348223
            ]
        ],
        [
            [
                0.8259965337954939,
                0.7976887519260399
            ],
            [
                0.8119584055459271,
                0.8285053929121724
            ],
            [
                0.8088388214904679,
                0.8852080123266557
            ]
        ],
        [
            [
                0.7811091854419411,
                1.0201848998459166
            ],
            [
                0.7779896013864818,
                1.0768875192604004
            ],
            [
                0.7123050259965338,
                1.0833590138674885
            ]
        ]
    ],
    "3124": [
        [
            [
                0.5479202772963595,
                1.0767334360554695
            ],
            [
                0.4822357019064124,
                1.0832049306625582
            ],
            [
                0.4787694974003466,
                1.0625577812018492
            ]
        ],
        [
            [
                0.44884144555373834,
                0.9822321447948089
            ],
            [
                0.4453752410476725,
                0.9615849953341001
            ],
            [
                0.44398875924524617,
                0.9144355346253162
            ]
        ],
        [
            [
                0.41685350403983695,
                0.831544195837583
            ],
            [
                0.4154670222374106,
                0.7843947351288003
            ],
            [
                0.4159869529133205,
                0.7680619154061497
            ]
        ],
        [
            [
                0.39380507481631555,
                0.6387177456107986
            ],
            [
                0.39432500549222543,
                0.6223849258881485
            ],
            [
                0.3896456294090365,
                0.5983479459189649
            ]
        ],
        [
            [
                0.4418544194107452,
                0.5664098613251147
            ],
            [
                0.4371750433275563,
                0.5423728813559309
            ],
            [
                0.425736568457539,
                0.5303543913713394
            ]
        ],
        [
            [
                0.39142114384748694,
                0.4942989214175645
            ],
            [
                0.37998266897746963,
                0.48228043143297294
            ],
            [
                0.40043327556325814,
                0.4545454545454542
            ]
        ],
        [
            [
                0.43153361241975247,
                0.3379766270969421
            ],
            [
                0.45198421900554103,
                0.31024165020942285
            ],
            [
                0.45891662801767275,
                0.26802285205842125
            ]
        ],
        [
            [
                0.5028521911364201,
                0.14711424169051288
            ],
            [
                0.5097846001485516,
                0.10489544353951133
            ],
            [
                0.5371676157464711,
                0.06421747743781639
            ]
        ],
        [
            [
                0.5472666501609318,
                -0.046955756108298184
            ],
            [
                0.6230898737311215,
                -0.05697116442879154
            ],
            [
                0.6997796484278296,
                -0.059282412502751125
            ]
        ],
        [
            [
                0.7646447140381282,
                -0.01587057010785822
            ],
            [
                0.792894280762565,
                0.02234206471494607
            ],
            [
                0.804852686308492,
                0.05778120184899849
            ]
        ],
        [
            [
                0.8502599653379549,
                0.15947611710323548
            ],
            [
                0.8622183708838821,
                0.19491525423728812
            ],
            [
                0.8984402079722702,
                0.18597842835130937
            ]
        ],
        [
            [
                0.9923743500866542,
                0.10215716486902902
            ],
            [
                1.0285961871750433,
                0.09322033898305083
            ],
            [
                1.035528596187175,
                0.1456086286594761
            ]
        ],
        [
            [
                1.0708838821490485,
                0.3604006163328192
            ],
            [
                1.0667244367417679,
                0.4013867488443759
            ],
            [
                1.0429809358752185,
                0.4325115562403692
            ]
        ],
        [
            [
                0.9102253032928941,
                0.5243451463790443
            ],
            [
                0.8864818024263431,
                0.5554699537750385
            ],
            [
                0.8724436741767764,
                0.5862865947611705
            ]
        ],
        [
            [
                0.8415944540727903,
                0.8297380585516181
            ],
            [
                0.8275563258232236,
                0.8605546995377503
            ],
            [
                0.8244367417677643,
                0.9172573189522335
            ]
        ],
        [
            [
                0.8064124783362219,
                1.0688751926040063
            ],
            [
                0.8032928942807626,
                1.1255778120184898
            ],
            [
                0.7376083188908146,
                1.1320493066255781
            ]
        ]
    ],
    "3151": [
        [
            [
                0.5479202772963595,
                1.0767334360554695
            ],
            [
                0.4822357019064124,
                1.0832049306625582
            ],
            [
                0.4787694974003466,
                1.0625577812018492
            ]
        ],
        [
            [
                0.4477910574364732,
                0.9812433538054212
            ],
            [
                0.44432485293040735,
                0.9605962043447124
            ],
            [
                0.442938371127981,
                0.9134467436359285
            ]
        ],
        [
            [
                0.4145673651963776,
                0.8337048872588377
            ],
            [
                0.41318088339395126,
                0.7865554265500551
            ],
            [
                0.4137008140698611,
                0.7702226068274045
            ]
        ],
        [
            [
                0.39024199355578876,
                0.6365570541895439
            ],
            [
                0.39076192423169864,
                0.6202242344668938
            ],
            [
                0.38608254814850973,
                0.5961872544977102
            ]
        ],
        [
            [
                0.4418544194107452,
                0.5664098613251147
            ],
            [
                0.4371750433275563,
                0.5423728813559309
            ],
            [
                0.425736568457539,
                0.5303543913713394
            ]
        ],
        [
            [
                0.39142114384748694,
                0.4942989214175645
            ],
            [
                0.37998266897746963,
                0.48228043143297294
            ],
            [
                0.40043327556325814,
                0.4545454545454542
            ]
        ],
        [
            [
                0.42990654063026335,
                0.3361821545606457
            ],
            [
                0.4503571472160519,
                0.3084471776731265
            ],
            [
                0.4572895562281836,
                0.2662283795221249
            ]
        ],
        [
            [
                0.48466947264174315,
                0.1385560202509355
            ],
            [
                0.4916018816538747,
                0.09633722209993395
            ],
            [
                0.5189848972517942,
                0.05565925599823902
            ]
        ],
        [
            [
                0.5288165387472155,
                -0.04980849658815731
            ],
            [
                0.6046397623174051,
                -0.059823904908650666
            ],
            [
                0.6813295370141133,
                -0.06213515298261025
            ]
        ],
        [
            [
                0.7611785095320625,
                -0.022033898305084718
            ],
            [
                0.7894280762564991,
                0.016178736517719568
            ],
            [
                0.8013864818024264,
                0.051617873651771985
            ]
        ],
        [
            [
                0.8415944540727902,
                0.16872110939907523
            ],
            [
                0.8535528596187175,
                0.20416024653312786
            ],
            [
                0.8897746967071055,
                0.19522342064714915
            ]
        ],
        [
            [
                1.0045060658578846,
                0.12989214175654828
            ],
            [
                1.0407279029462737,
                0.12095531587057008
            ],
            [
                1.0431227351504648,
                0.16867908670682166
            ]
        ],
        [
            [
                1.0656845753899495,
                0.40662557781201814
            ],
            [
                1.061525129982669,
                0.44761171032357466
            ],
            [
                1.0377816291161193,
                0.47873651771956793
            ]
        ],
        [
            [
                0.9206239168110918,
                0.5520801232665632
            ],
            [
                0.8968804159445407,
                0.5832049306625577
            ],
            [
                0.882842287694974,
                0.6140215716486895
            ]
        ],
        [
            [
                0.848526863084922,
                0.8143297380585517
            ],
            [
                0.8344887348353552,
                0.845146379044684
            ],
            [
                0.8313691507798959,
                0.9018489984591672
            ]
        ],
        [
            [
                0.8202772963604853,
                1.0473035439137135
            ],
            [
                0.817157712305026,
                1.104006163328197
            ],
            [
                0.751473136915078,
                1.110477657935285
            ]
        ]
    ],
    "3173": [
        [
            [
                0.5479202772963595,
                1.0767334360554695
            ],
            [
                0.4822357019064124,
                1.0832049306625582
            ],
            [
                0.4787694974003466,
                1.0625577812018492
            ]
        ],
        [
            [
                0.4469351856372201,
                0.9804376722585124
            ],
            [
                0.4434689811311543,
                0.9597905227978037
            ],
            [
                0.44208249932872795,
                0.9126410620890198
            ]
        ],
        [
            [
                0.4127045853980033,
                0.8354654506391195
            ],
            [
                0.41131810359557697,
                0.7883159899303368
            ],
            [
                0.4118380342714868,
                0.7719831702076863
            ]
        ],
        [
            [
                0.3873387421583225,
                0.6347964908092623
            ],
            [
                0.38785867283423237,
                0.618463671086612
            ],
            [
                0.38317929675104345,
                0.5944266911174285
            ]
        ],
        [
            [
                0.4418544194107452,
                0.5664098613251147
            ],
            [
                0.4371750433275563,
                0.5423728813559309
            ],
            [
                0.425736568457539,
                0.5303543913713394
            ]
        ],
        [
            [
                0.39142114384748694,
                0.4942989214175645
            ],
            [
                0.37998266897746963,
                0.48228043143297294
            ],
            [
                0.40043327556325814,
                0.4545454545454542
            ]
        ],
        [
            [
                0.42858077843142045,
                0.3347199917532932
            ],
            [
                0.44903138501720896,
                0.306985014865774
            ],
            [
                0.4559637940293407,
                0.26476621671477235
            ]
        ],
        [
            [
                0.46985392423867306,
                0.1315826546335021
            ],
            [
                0.4767863332508046,
                0.08936385648250054
            ],
            [
                0.5041693488487241,
                0.0486858903808056
            ]
        ],
        [
            [
                0.5137831146323355,
                -0.052132951793968436
            ],
            [
                0.5896063382025253,
                -0.062148360114461794
            ],
            [
                0.6662961128992334,
                -0.06445960818842138
            ]
        ],
        [
            [
                0.7213171577123049,
                -0.01895223420647147
            ],
            [
                0.7495667244367417,
                0.01926040061633282
            ],
            [
                0.7615251299826689,
                0.05469953775038524
            ]
        ],
        [
            [
                0.7936897302581877,
                0.09570937537039205
            ],
            [
                0.8056481358041149,
                0.1311485125044447
            ],
            [
                0.8418699728925031,
                0.12221168661846596
            ]
        ],
        [
            [
                1.0062391681109175,
                0.08366718027734955
            ],
            [
                1.0424610051993066,
                0.07473035439137134
            ],
            [
                1.0411585525970275,
                0.11865340617266658
            ]
        ],
        [
            [
                1.0500866551126533,
                0.3819722650231121
            ],
            [
                1.0459272097053727,
                0.4229583975346687
            ],
            [
                1.022183708838823,
                0.45408320493066195
            ]
        ],
        [
            [
                0.8658756610229746,
                0.503405633914108
            ],
            [
                0.8421321601564237,
                0.5345304413101023
            ],
            [
                0.8280940319068569,
                0.5653470822962343
            ]
        ],
        [
            [
                0.7792027729636047,
                0.76502311248074
            ],
            [
                0.765164644714038,
                0.795839753466872
            ],
            [
                0.7620450606585788,
                0.8525423728813556
            ]
        ],
        [
            [
                0.7694396302715193,
                1.0194895499980245
            ],
            [
                0.7663200462160601,
                1.0761921694125083
            ],
            [
                0.7006354708261121,
                1.0826636640195961
            ]
        ]
    ],
    "3190": [
        [
            [
                0.5479202772963595,
                1.0767334360554695
            ],
            [
                0.4822357019064124,
                1.0832049306625582
            ],
            [
                0.4787694974003466,
                1.0625577812018492
            ]
        ],
        [
            [
                0.44627383015597916,
                0.9798151001540831
            ],
            [
                0.44280762564991333,
                0.9591679506933743
            ],
            [
                0.441421143847487,
                0.9120184899845906
            ]
        ],
        [
            [
                0.411265164644714,
                0.8368258859784281
            ],
            [
                0.4098786828422877,
                0.7896764252696455
            ],
            [
                0.41039861351819756,
                0.7733436055469949
            ]
        ],
        [
            [
                0.38509532062391677,
                0.6334360554699537
            ],
            [
                0.38561525129982666,
                0.6171032357473034
            ],
            [
                0.38093587521663774,
                0.5930662557781199
            ]
        ],
        [
            [
                0.4418544194107452,
                0.5664098613251147
            ],
            [
                0.4371750433275563,
                0.5423728813559309
            ],
            [
                0.425736568457539,
                0.5303543913713394
            ]
        ],
        [
            [
                0.39142114384748694,
                0.4942989214175645
            ],
            [
                0.37998266897746963,
                0.48228043143297294
            ],
            [
                0.40043327556325814,
                0.4545454545454542
            ]
        ],
        [
            [
                0.42755632582322356,
                0.33359013867488435
            ],
            [
                0.44800693240901207,
                0.30585516178736516
            ],
            [
                0.45493934142114384,
                0.26363636363636356
            ]
        ],
        [
            [
                0.4584055459272099,
                0.12619414483821265
            ],
            [
                0.46533795493934144,
                0.08397534668721109
            ],
            [
                0.4927209705372608,
                0.043297380585516146
            ]
        ],
        [
            [
                0.502166377816292,
                -0.05392912172573159
            ],
            [
                0.5779896013864818,
                -0.06394453004622495
            ],
            [
                0.6546793760831898,
                -0.06625577812018453
            ]
        ],
        [
            [
                0.6485268630849219,
                0.05500770416024655
            ],
            [
                0.6767764298093587,
                0.09322033898305083
            ],
            [
                0.6887348353552859,
                0.12865947611710327
            ]
        ],
        [
            [
                0.7566724436741767,
                0.03929121725731869
            ],
            [
                0.7686308492201039,
                0.07473035439137134
            ],
            [
                0.804852686308492,
                0.06579352850539259
            ]
        ],
        [
            [
                0.9022530329289417,
                0.06209553158705681
            ],
            [
                0.938474870017331,
                0.05315870570107858
            ],
            [
                0.9343154246100523,
                0.09414483821263485
            ]
        ],
        [
            [
                0.9218370883882163,
                0.2710323574730351
            ],
            [
                0.9176776429809358,
                0.3120184899845917
            ],
            [
                0.8939341421143862,
                0.34314329738058497
            ]
        ],
        [
            [
                0.8235701906412477,
                0.4657935285053925
            ],
            [
                0.7998266897746967,
                0.49691833590138673
            ],
            [
                0.78578856152513,
                0.5277349768875188
            ]
        ],
        [
            [
                0.7480069324090122,
                0.7496147919876733
            ],
            [
                0.7339688041594454,
                0.7804314329738058
            ],
            [
                0.7308492201039861,
                0.8371340523882891
            ]
        ],
        [
            [
                0.7301559792027729,
                0.9979969183359013
            ],
            [
                0.7270363951473137,
                1.054699537750385
            ],
            [
                0.6613518197573657,
                1.061171032357473
            ]
        ]
    ],
    "3200": [
        [
            [
                0.5479202772963595,
                1.0767334360554695
            ],
            [
                0.4822357019064124,
                1.0832049306625582
            ],
            [
                0.4787694974003466,
                1.0625577812018492
            ]
        ],
        [
            [
                0.44627383015597916,
                0.9798151001540831
            ],
            [
                0.44280762564991333,
                0.9591679506933743
            ],
            [
                0.441421143847487,
                0.9120184899845906
            ]
        ],
        [
            [
                0.411265164644714,
                0.8368258859784281
            ],
            [
                0.4098786828422877,
                0.7896764252696455
            ],
            [
                0.41039861351819756,
                0.7733436055469949
            ]
        ],
        [
            [
                0.38509532062391677,
                0.6334360554699537
            ],
            [
                0.38561525129982666,
                0.6171032357473034
            ],
            [
                0.38093587521663774,
                0.5930662557781199
            ]
        ],
        [
            [
                0.4418544194107452,
                0.5664098613251147
            ],
            [
                0.4371750433275563,
                0.5423728813559309
            ],
            [
                0.425736568457539,
                0.5303543913713394
            ]
        ],
        [
            [
                0.39142114384748694,
                0.4942989214175645
            ],
            [
                0.37998266897746963,
                0.48228043143297294
            ],
            [
                0.40043327556325814,
                0.4545454545454542
            ]
        ],
        [
            [
                0.3998266897746967,
                0.32742681047765787
            ],
            [
                0.4202772963604852,
                0.2996918335901387
            ],
            [
                0.42720970537261693,
                0.257473035439137
            ]
        ],
        [
            [
                0.43414211438474887,
                0.11078582434514637
            ],
            [
                0.44107452339688036,
                0.06856702619414483
            ],
            [
                0.4684575389947998,
                0.02788906009244989
            ]
        ],
        [
            [
                0.502166377816292,
                -0.05392912172573159
            ],
            [
                0.5779896013864818,
                -0.06394453004622495
            ],
            [
                0.6546793760831898,
                -0.06625577812018453
            ]
        ],
        [
            [
                0.6485268630849219,
                0.05500770416024655
            ],
            [
                0.6767764298093587,
                0.09322033898305083
            ],
            [
                0.6887348353552859,
                0.12865947611710327
            ]
        ],
        [
            [
                0.7461005199306759,
                0.046995377503852076
            ],
            [
                0.7720970537261699,
                0.046995377503852076
            ],
            [
                0.808318890814558,
                0.03805855161787334
            ]
        ],
        [
            [
                0.8745233968804148,
                -0.005701078582434731
            ],
            [
                0.9107452339688041,
                -0.014637904468412942
            ],
            [
                0.9065857885615255,
                0.026348228043143317
            ]
        ],
        [
            [
                0.9218370883882163,
                0.2710323574730351
            ],
            [
                0.9176776429809358,
                0.3120184899845917
            ],
            [
                0.8939341421143862,
                0.34314329738058497
            ]
        ],
        [
            [
                0.8235701906412477,
                0.4657935285053925
            ],
            [
                0.7998266897746967,
                0.49691833590138673
            ],
            [
                0.78578856152513,
                0.5277349768875188
            ]
        ],
        [
            [
                0.7480069324090122,
                0.7496147919876733
            ],
            [
                0.7339688041594454,
                0.7804314329738058
            ],
            [
                0.7308492201039861,
                0.8371340523882891
            ]
        ],
        [
            [
                0.7301559792027729,
                0.9979969183359013
            ],
            [
                0.7270363951473137,
                1.054699537750385
            ],
            [
                0.6613518197573657,
                1.061171032357473
            ]
        ]
    ],
    "3254": [
        [
            [
                0.5479202772963595,
                1.0767334360554695
            ],
            [
                0.4822357019064124,
                1.0832049306625582
            ],
            [
                0.4787694974003466,
                1.0625577812018492
            ]
        ],
        [
            [
                0.44627383015597916,
                0.9798151001540831
            ],
            [
                0.44280762564991333,
                0.9591679506933743
            ],
            [
                0.441421143847487,
                0.9120184899845906
            ]
        ],
        [
            [
                0.411265164644714,
                0.8368258859784281
            ],
            [
                0.4098786828422877,
                0.7896764252696455
            ],
            [
                0.41039861351819756,
                0.7733436055469949
            ]
        ],
        [
            [
                0.38509532062391677,
                0.6334360554699537
            ],
            [
                0.38561525129982666,
                0.6171032357473034
            ],
            [
                0.38093587521663774,
                0.5930662557781199
            ]
        ],
        [
            [
                0.4418544194107452,
                0.5664098613251147
            ],
            [
                0.4371750433275563,
                0.5423728813559309
            ],
            [
                0.425736568457539,
                0.5303543913713394
            ]
        ],
        [
            [
                0.39142114384748694,
                0.4942989214175645
            ],
            [
                0.37998266897746963,
                0.48228043143297294
            ],
            [
                0.40043327556325814,
                0.4545454545454542
            ]
        ],
        [
            [
                0.42062391681109185,
                0.27812018489984586
            ],
            [
                0.44107452339688036,
                0.25038520801232667
            ],
            [
                0.44800693240901207,
                0.20816640986132504
            ]
        ],
        [
            [
                0.4722703639514733,
                0.09845916795069337
            ],
            [
                0.47920277296360486,
                0.05624036979969183
            ],
            [
                0.5065857885615241,
                0.015562403697996892
            ]
        ],
        [
            [
                0.502166377816292,
                -0.05392912172573159
            ],
            [
                0.5779896013864818,
                -0.06394453004622495
            ],
            [
                0.6546793760831898,
                -0.06625577812018453
            ]
        ],
        [
            [
                0.7230502599653378,
                0.0919876733436057
            ],
            [
                0.7512998266897746,
                0.13020030816640984
            ],
            [
                0.7632582322357018,
                0.16563944530046243
            ]
        ],
        [
            [
                0.8188908145580588,
                0.10862865947611709
            ],
            [
                0.8448873483535527,
                0.10862865947611709
            ],
            [
                0.881109185441941,
                0.09969183359013835
            ]
        ],
        [
            [
                0.9577123050259954,
                0.0744221879815098
            ],
            [
                0.9939341421143848,
                0.06548536209553157
            ],
            [
                0.9897746967071062,
                0.10647149460708784
            ]
        ],
        [
            [
                1.0102253032928956,
                0.3265023112480737
            ],
            [
                1.0060658578856152,
                0.3674884437596302
            ],
            [
                0.9823223570190656,
                0.39861325115562357
            ]
        ],
        [
            [
                0.8686308492201038,
                0.48736517719568534
            ],
            [
                0.8448873483535527,
                0.5184899845916795
            ],
            [
                0.830849220103986,
                0.5493066255778116
            ]
        ],
        [
            [
                0.8294627383015598,
                0.7711864406779663
            ],
            [
                0.8154246100519931,
                0.8020030816640985
            ],
            [
                0.8123050259965338,
                0.858705701078582
            ]
        ],
        [
            [
                0.7856152512998267,
                1.050385208012327
            ],
            [
                0.7824956672443674,
                1.1070878274268103
            ],
            [
                0.7168110918544194,
                1.1135593220338986
            ]
        ]
    ],
    "3268": [
        [
            [
                0.5479202772963595,
                1.0767334360554695
            ],
            [
                0.4822357019064124,
                1.0832049306625582
            ],
            [
                0.4787694974003466,
                1.0625577812018492
            ]
        ],
        [
            [
                0.44627383015597916,
                0.9798151001540831
            ],
            [
                0.44280762564991333,
                0.9591679506933743
            ],
            [
                0.441421143847487,
                0.9120184899845906
            ]
        ],
        [
            [
                0.411265164644714,
                0.8368258859784281
            ],
            [
                0.4098786828422877,
                0.7896764252696455
            ],
            [
                0.41039861351819756,
                0.7733436055469949
            ]
        ],
        [
            [
                0.38509532062391677,
                0.6334360554699537
            ],
            [
                0.38561525129982666,
                0.6171032357473034
            ],
            [
                0.38093587521663774,
                0.5930662557781199
            ]
        ],
        [
            [
                0.4418544194107452,
                0.5664098613251147
            ],
            [
                0.4371750433275563,
                0.5423728813559309
            ],
            [
                0.425736568457539,
                0.5303543913713394
            ]
        ],
        [
            [
                0.39142114384748694,
                0.4942989214175645
            ],
            [
                0.37998266897746963,
                0.48228043143297294
            ],
            [
                0.40043327556325814,
                0.4545454545454542
            ]
        ],
        [
            [
                0.4535528596187175,
                0.2935285053929121
            ],
            [
                0.474003466204506,
                0.2657935285053929
            ],
            [
                0.4809358752166377,
                0.2235747303543913
            ]
        ],
        [
            [
                0.5069324090121318,
                0.11078582434514637
            ],
            [
                0.5138648180242634,
                0.06856702619414483
            ],
            [
                0.5412478336221824,
                0.02788906009244989
            ]
        ],
        [
            [
                0.5818890814558068,
                -0.050847457627118335
            ],
            [
                0.6577123050259964,
                -0.0608628659476117
            ],
            [
                0.7344020797227045,
                -0.06317411402157129
            ]
        ],
        [
            [
                0.7767764298093586,
                0.16594761171032374
            ],
            [
                0.8050259965337954,
                0.20416024653312786
            ],
            [
                0.8169844020797226,
                0.23959938366718053
            ]
        ],
        [
            [
                0.8899480069324089,
                0.12403697996918334
            ],
            [
                0.9159445407279029,
                0.12403697996918334
            ],
            [
                0.952166377816291,
                0.11510015408320463
            ]
        ],
        [
            [
                1.0218370883882135,
                0.12372881355932182
            ],
            [
                1.058058925476603,
                0.1147919876733436
            ],
            [
                1.0538994800693244,
                0.15577812018489987
            ]
        ],
        [
            [
                1.072616984402081,
                0.44976887519260383
            ],
            [
                1.0684575389948006,
                0.49075500770416025
            ],
            [
                1.044714038128251,
                0.5218798151001536
            ]
        ],
        [
            [
                0.9535528596187174,
                0.5520801232665635
            ],
            [
                0.9298093587521663,
                0.5832049306625577
            ],
            [
                0.9157712305025996,
                0.61402157164869
            ]
        ],
        [
            [
                0.8727902946273829,
                0.8020030816640987
            ],
            [
                0.8587521663778162,
                0.8328197226502311
            ],
            [
                0.855632582322357,
                0.8895223420647145
            ]
        ],
        [
            [
                0.8341421143847486,
                1.0473035439137135
            ],
            [
                0.8310225303292893,
                1.104006163328197
            ],
            [
                0.7653379549393413,
                1.1104776579352853
            ]
        ]
    ],
    "3290": [
        [
            [
                0.5479202772963595,
                1.0767334360554695
            ],
            [
                0.4822357019064124,
                1.0832049306625582
            ],
            [
                0.4787694974003466,
                1.0625577812018492
            ]
        ],
        [
            [
                0.44627383015597916,
                0.9798151001540831
            ],
            [
                0.44280762564991333,
                0.9591679506933743
            ],
            [
                0.441421143847487,
                0.9120184899845906
            ]
        ],
        [
            [
                0.411265164644714,
                0.8368258859784281
            ],
            [
                0.4098786828422877,
                0.7896764252696455
            ],
            [
                0.41039861351819756,
                0.7733436055469949
            ]
        ],
        [
            [
                0.38509532062391677,
                0.6334360554699537
            ],
            [
                0.38561525129982666,
                0.6171032357473034
            ],
            [
                0.38093587521663774,
                0.5930662557781199
            ]
        ],
        [
            [
                0.4418544194107452,
                0.5664098613251147
            ],
            [
                0.4371750433275563,
                0.5423728813559309
            ],
            [
                0.425736568457539,
                0.5303543913713394
            ]
        ],
        [
            [
                0.39142114384748694,
                0.4942989214175645
            ],
            [
                0.37998266897746963,
                0.48228043143297294
            ],
            [
                0.40043327556325814,
                0.4545454545454542
            ]
        ],
        [
            [
                0.4535528596187175,
                0.2935285053929121
            ],
            [
                0.474003466204506,
                0.2657935285053929
            ],
            [
                0.4809358752166377,
                0.2235747303543913
            ]
        ],
        [
            [
                0.5069324090121318,
                0.11078582434514637
            ],
            [
                0.5138648180242634,
                0.06856702619414483
            ],
            [
                0.5412478336221824,
                0.02788906009244989
            ]
        ],
        [
            [
                0.5818890814558068,
                -0.050847457627118335
            ],
            [
                0.6577123050259964,
                -0.0608628659476117
            ],
            [
                0.7344020797227045,
                -0.06317411402157129
            ]
        ],
        [
            [
                0.8027729636048525,
                0.12896764252696472
            ],
            [
                0.8310225303292893,
                0.16718027734976887
            ],
            [
                0.8429809358752165,
                0.20261941448382148
            ]
        ],
        [
            [
                0.8899480069324089,
                0.12403697996918334
            ],
            [
                0.9159445407279029,
                0.12403697996918334
            ],
            [
                0.952166377816291,
                0.11510015408320463
            ]
        ],
        [
            [
                1.0218370883882135,
                0.12372881355932182
            ],
            [
                1.058058925476603,
                0.1147919876733436
            ],
            [
                1.0538994800693244,
                0.15577812018489987
            ]
        ],
        [
            [
                1.072616984402081,
                0.44976887519260383
            ],
            [
                1.0684575389948006,
                0.49075500770416025
            ],
            [
                1.044714038128251,
                0.5218798151001536
            ]
        ],
        [
            [
                0.9535528596187174,
                0.5520801232665635
            ],
            [
                0.9298093587521663,
                0.5832049306625577
            ],
            [
                0.9157712305025996,
                0.61402157164869
            ]
        ],
        [
            [
                0.8727902946273829,
                0.8020030816640987
            ],
            [
                0.8587521663778162,
                0.8328197226502311
            ],
            [
                0.855632582322357,
                0.8895223420647145
            ]
        ],
        [
            [
                0.8341421143847486,
                1.0473035439137135
            ],
            [
                0.8310225303292893,
                1.104006163328197
            ],
            [
                0.7653379549393413,
                1.1104776579352853
            ]
        ]
    ],
    "3315": [
        [
            [
                0.5479202772963595,
                1.0767334360554695
            ],
            [
                0.4822357019064124,
                1.0832049306625582
            ],
            [
                0.4787694974003466,
                1.0625577812018492
            ]
        ],
        [
            [
                0.44627383015597916,
                0.9798151001540831
            ],
            [
                0.44280762564991333,
                0.9591679506933743
            ],
            [
                0.441421143847487,
                0.9120184899845906
            ]
        ],
        [
            [
                0.411265164644714,
                0.8368258859784281
            ],
            [
                0.4098786828422877,
                0.7896764252696455
            ],
            [
                0.41039861351819756,
                0.7733436055469949
            ]
        ],
        [
            [
                0.38509532062391677,
                0.6334360554699537
            ],
            [
                0.38561525129982666,
                0.6171032357473034
            ],
            [
                0.38093587521663774,
                0.5930662557781199
            ]
        ],
        [
            [
                0.4418544194107452,
                0.5664098613251147
            ],
            [
                0.4371750433275563,
                0.5423728813559309
            ],
            [
                0.425736568457539,
                0.5303543913713394
            ]
        ],
        [
            [
                0.39142114384748694,
                0.4942989214175645
            ],
            [
                0.37998266897746963,
                0.48228043143297294
            ],
            [
                0.40043327556325814,
                0.4545454545454542
            ]
        ],
        [
            [
                0.42928942807625653,
                0.27812018489984586
            ],
            [
                0.44974003466204504,
                0.25038520801232667
            ],
            [
                0.45667244367417675,
                0.20816640986132504
            ]
        ],
        [
            [
                0.4653379549393415,
                0.08613251155624035
            ],
            [
                0.47227036395147315,
                0.04391371340523882
            ],
            [
                0.4996533795493922,
                0.0032357473035438864
            ]
        ],
        [
            [
                0.5818890814558068,
                -0.050847457627118335
            ],
            [
                0.6577123050259964,
                -0.0608628659476117
            ],
            [
                0.7344020797227045,
                -0.06317411402157129
            ]
        ],
        [
            [
                0.8027729636048525,
                0.12896764252696472
            ],
            [
                0.8310225303292893,
                0.16718027734976887
            ],
            [
                0.8429809358752165,
                0.20261941448382148
            ]
        ],
        [
            [
                0.8899480069324089,
                0.12403697996918334
            ],
            [
                0.9159445407279029,
                0.12403697996918334
            ],
            [
                0.952166377816291,
                0.11510015408320463
            ]
        ],
        [
            [
                1.0218370883882135,
                0.12372881355932182
            ],
            [
                1.058058925476603,
                0.1147919876733436
            ],
            [
                1.0538994800693244,
                0.15577812018489987
            ]
        ],
        [
            [
                1.072616984402081,
                0.44976887519260383
            ],
            [
                1.0684575389948006,
                0.49075500770416025
            ],
            [
                1.044714038128251,
                0.5218798151001536
            ]
        ],
        [
            [
                0.8772963604852685,
                0.5489984591679503
            ],
            [
                0.8535528596187175,
                0.5801232665639445
            ],
            [
                0.8395147313691508,
                0.6109399075500768
            ]
        ],
        [
            [
                0.7445407279029462,
                0.7835130970724187
            ],
            [
                0.7305025996533795,
                0.8143297380585516
            ],
            [
                0.7273830155979203,
                0.8710323574730348
            ]
        ],
        [
            [
                0.7336221837088388,
                1.0318952234206478
            ],
            [
                0.7305025996533795,
                1.0885978428351308
            ],
            [
                0.6648180242634315,
                1.0950693374422193
            ]
        ]
    ],
    "3336": [
        [
            [
                0.5479202772963595,
                1.0767334360554695
            ],
            [
                0.4822357019064124,
                1.0832049306625582
            ],
            [
                0.4787694974003466,
                1.0625577812018492
            ]
        ],
        [
            [
                0.44627383015597916,
                0.9798151001540831
            ],
            [
                0.44280762564991333,
                0.9591679506933743
            ],
            [
                0.441421143847487,
                0.9120184899845906
            ]
        ],
        [
            [
                0.411265164644714,
                0.8368258859784281
            ],
            [
                0.4098786828422877,
                0.7896764252696455
            ],
            [
                0.41039861351819756,
                0.7733436055469949
            ]
        ],
        [
            [
                0.38509532062391677,
                0.6334360554699537
            ],
            [
                0.38561525129982666,
                0.6171032357473034
            ],
            [
                0.38093587521663774,
                0.5930662557781199
            ]
        ],
        [
            [
                0.4418544194107452,
                0.5664098613251147
            ],
            [
                0.4371750433275563,
                0.5423728813559309
            ],
            [
                0.425736568457539,
                0.5303543913713394
            ]
        ],
        [
            [
                0.39142114384748694,
                0.4942989214175645
            ],
            [
                0.37998266897746963,
                0.48228043143297294
            ],
            [
                0.40043327556325814,
                0.4545454545454542
            ]
        ],
        [
            [
                0.42928942807625653,
                0.27812018489984586
            ],
            [
                0.44974003466204504,
                0.25038520801232667
            ],
            [
                0.45667244367417675,
                0.20816640986132504
            ]
        ],
        [
            [
                0.4653379549393415,
                0.08613251155624035
            ],
            [
                0.47227036395147315,
                0.04391371340523882
            ],
            [
                0.4996533795493922,
                0.0032357473035438864
            ]
        ],
        [
            [
                0.5350953206239178,
                -0.06625577812018461
            ],
            [
                0.6109185441941075,
                -0.07627118644067796
            ],
            [
                0.6876083188908155,
                -0.07858243451463753
            ]
        ],
        [
            [
                0.7074523396880414,
                0.0734976887519262
            ],
            [
                0.7357019064124782,
                0.11171032357473035
            ],
            [
                0.7476603119584054,
                0.147149460708783
            ]
        ],
        [
            [
                0.8743500866551126,
                0.05932203389830507
            ],
            [
                0.9003466204506065,
                0.05932203389830507
            ],
            [
                0.9365684575389946,
                0.05038520801232637
            ]
        ],
        [
            [
                1.0218370883882135,
                0.12372881355932182
            ],
            [
                1.058058925476603,
                0.1147919876733436
            ],
            [
                1.0538994800693244,
                0.15577812018489987
            ]
        ],
        [
            [
                1.072616984402081,
                0.44976887519260383
            ],
            [
                1.0684575389948006,
                0.49075500770416025
            ],
            [
                1.044714038128251,
                0.5218798151001536
            ]
        ],
        [
            [
                0.8772963604852685,
                0.5489984591679503
            ],
            [
                0.8535528596187175,
                0.5801232665639445
            ],
            [
                0.8395147313691508,
                0.6109399075500768
            ]
        ],
        [
            [
                0.7445407279029462,
                0.7835130970724187
            ],
            [
                0.7305025996533795,
                0.8143297380585516
            ],
            [
                0.7273830155979203,
                0.8710323574730348
            ]
        ],
        [
            [
                0.7336221837088388,
                1.0318952234206478
            ],
            [
                0.7305025996533795,
                1.0885978428351308
            ],
            [
                0.6648180242634315,
                1.0950693374422193
            ]
        ]
    ],
    "3379": [
        [
            [
                0.5479202772963595,
                1.0767334360554695
            ],
            [
                0.4822357019064124,
                1.0832049306625582
            ],
            [
                0.4787694974003466,
                1.0625577812018492
            ]
        ],
        [
            [
                0.44627383015597916,
                0.9798151001540831
            ],
            [
                0.44280762564991333,
                0.9591679506933743
            ],
            [
                0.441421143847487,
                0.9120184899845906
            ]
        ],
        [
            [
                0.411265164644714,
                0.8368258859784281
            ],
            [
                0.4098786828422877,
                0.7896764252696455
            ],
            [
                0.41039861351819756,
                0.7733436055469949
            ]
        ],
        [
            [
                0.38509532062391677,
                0.6334360554699537
            ],
            [
                0.38561525129982666,
                0.6171032357473034
            ],
            [
                0.38093587521663774,
                0.5930662557781199
            ]
        ],
        [
            [
                0.4418544194107452,
                0.5664098613251147
            ],
            [
                0.4371750433275563,
                0.5423728813559309
            ],
            [
                0.425736568457539,
                0.5303543913713394
            ]
        ],
        [
            [
                0.39142114384748694,
                0.4942989214175645
            ],
            [
                0.37998266897746963,
                0.48228043143297294
            ],
            [
                0.40043327556325814,
                0.4545454545454542
            ]
        ],
        [
            [
                0.4812824956672443,
                0.28428351309707234
            ],
            [
                0.5017331022530329,
                0.25654853620955315
            ],
            [
                0.5086655112651646,
                0.21432973805855152
            ]
        ],
        [
            [
                0.5311958405545927,
                0.12311248073959936
            ],
            [
                0.5381282495667244,
                0.08089368258859783
            ],
            [
                0.5655112651646435,
                0.0402157164869029
            ]
        ],
        [
            [
                0.6096187175043337,
                -0.04776579352850514
            ],
            [
                0.6854419410745234,
                -0.05778120184899845
            ],
            [
                0.7621317157712314,
                -0.060092449922958036
            ]
        ],
        [
            [
                0.8235701906412477,
                0.11047765793528523
            ],
            [
                0.8518197573656845,
                0.14869029275808934
            ],
            [
                0.8637781629116117,
                0.18412942989214207
            ]
        ],
        [
            [
                0.9055459272097053,
                0.12711864406779658
            ],
            [
                0.9315424610051992,
                0.12711864406779658
            ],
            [
                0.9677642980935874,
                0.11818181818181786
            ]
        ],
        [
            [
                1.0218370883882135,
                0.12372881355932182
            ],
            [
                1.058058925476603,
                0.1147919876733436
            ],
            [
                1.0538994800693244,
                0.15577812018489987
            ]
        ],
        [
            [
                1.072616984402081,
                0.44976887519260383
            ],
            [
                1.0684575389948006,
                0.49075500770416025
            ],
            [
                1.044714038128251,
                0.5218798151001536
            ]
        ],
        [
            [
                0.9240901213171575,
                0.6137134052388287
            ],
            [
                0.9003466204506065,
                0.6448382126348227
            ],
            [
                0.8863084922010398,
                0.6756548536209549
            ]
        ],
        [
            [
                0.8571923743500867,
                0.8143297380585512
            ],
            [
                0.8431542461005199,
                0.845146379044684
            ],
            [
                0.8400346620450606,
                0.9018489984591673
            ]
        ],
        [
            [
                0.8289428076256499,
                1.034976887519261
            ],
            [
                0.8258232235701907,
                1.091679506933744
            ],
            [
                0.7601386481802427,
                1.0981510015408324
            ]
        ]
    ],
    "3413": [
        [
            [
                0.5479202772963595,
                1.0767334360554695
            ],
            [
                0.4822357019064124,
                1.0832049306625582
            ],
            [
                0.4787694974003466,
                1.0625577812018492
            ]
        ],
        [
            [
                0.44627383015597916,
                0.9798151001540831
            ],
            [
                0.44280762564991333,
                0.9591679506933743
            ],
            [
                0.441421143847487,
                0.9120184899845906
            ]
        ],
        [
            [
                0.411265164644714,
                0.8368258859784281
            ],
            [
                0.4098786828422877,
                0.7896764252696455
            ],
            [
                0.41039861351819756,
                0.7733436055469949
            ]
        ],
        [
            [
                0.38509532062391677,
                0.6334360554699537
            ],
            [
                0.38561525129982666,
                0.6171032357473034
            ],
            [
                0.38093587521663774,
                0.5930662557781199
            ]
        ],
        [
            [
                0.4418544194107452,
                0.5664098613251147
            ],
            [
                0.4371750433275563,
                0.5423728813559309
            ],
            [
                0.425736568457539,
                0.5303543913713394
            ]
        ],
        [
            [
                0.39142114384748694,
                0.4942989214175645
            ],
            [
                0.37998266897746963,
                0.48228043143297294
            ],
            [
                0.40043327556325814,
                0.4545454545454542
            ]
        ],
        [
            [
                0.463951473136915,
                0.28428351309707234
            ],
            [
                0.4844020797227036,
                0.25654853620955315
            ],
            [
                0.4913344887348352,
                0.21432973805855152
            ]
        ],
        [
            [
                0.5000000000000001,
                0.12003081664098611
            ],
            [
                0.5069324090121318,
                0.07781201848998458
            ],
            [
                0.5343154246100509,
                0.037134052388289644
            ]
        ],
        [
            [
                0.5385615251299836,
                -0.0508474576271184
            ],
            [
                0.6143847487001732,
                -0.0608628659476117
            ],
            [
                0.6910745233968814,
                -0.06317411402157129
            ]
        ],
        [
            [
                0.7594454072790294,
                0.0858243451463793
            ],
            [
                0.7876949740034662,
                0.12403697996918334
            ],
            [
                0.7996533795493934,
                0.15947611710323611
            ]
        ],
        [
            [
                0.8899480069324089,
                0.06856702619414483
            ],
            [
                0.9159445407279029,
                0.06856702619414483
            ],
            [
                0.952166377816291,
                0.05963020030816615
            ]
        ],
        [
            [
                1.0218370883882135,
                0.12372881355932182
            ],
            [
                1.058058925476603,
                0.1147919876733436
            ],
            [
                1.0538994800693244,
                0.15577812018489987
            ]
        ],
        [
            [
                1.072616984402081,
                0.44976887519260383
            ],
            [
                1.0684575389948006,
                0.49075500770416025
            ],
            [
                1.044714038128251,
                0.5218798151001536
            ]
        ],
        [
            [
                0.9240901213171575,
                0.6137134052388287
            ],
            [
                0.9003466204506065,
                0.6448382126348227
            ],
            [
                0.8863084922010398,
                0.6756548536209549
            ]
        ],
        [
            [
                0.7948006932409012,
                0.8020030816640982
            ],
            [
                0.7807625649913345,
                0.8328197226502311
            ],
            [
                0.7776429809358751,
                0.8895223420647141
            ]
        ],
        [
            [
                0.7561525129982668,
                1.0257318952234216
            ],
            [
                0.7530329289428076,
                1.0824345146379044
            ],
            [
                0.6873483535528596,
                1.088906009244993
            ]
        ]
    ],
    "3428": [
        [
            [
                0.5479202772963595,
                1.0767334360554695
            ],
            [
                0.4822357019064124,
                1.0832049306625582
            ],
            [
                0.4787694974003466,
                1.0625577812018492
            ]
        ],
        [
            [
                0.44627383015597916,
                0.9798151001540831
            ],
            [
                0.44280762564991333,
                0.9591679506933743
            ],
            [
                0.441421143847487,
                0.9120184899845906
            ]
        ],
        [
            [
                0.411265164644714,
                0.8368258859784281
            ],
            [
                0.4098786828422877,
                0.7896764252696455
            ],
            [
                0.41039861351819756,
                0.7733436055469949
            ]
        ],
        [
            [
                0.38509532062391677,
                0.6334360554699537
            ],
            [
                0.38561525129982666,
                0.6171032357473034
            ],
            [
                0.38093587521663774,
                0.5930662557781199
            ]
        ],
        [
            [
                0.4418544194107452,
                0.5664098613251147
            ],
            [
                0.4371750433275563,
                0.5423728813559309
            ],
            [
                0.425736568457539,
                0.5303543913713394
            ]
        ],
        [
            [
                0.39142114384748694,
                0.4942989214175645
            ],
            [
                0.37998266897746963,
                0.48228043143297294
            ],
            [
                0.40043327556325814,
                0.4545454545454542
            ]
        ],
        [
            [
                0.4327556325823222,
                0.30585516178736505
            ],
            [
                0.45320623916811087,
                0.2781201848998459
            ],
            [
                0.46013864818024247,
                0.23590138674884428
            ]
        ],
        [
            [
                0.4549393414211439,
                0.1138674884437596
            ],
            [
                0.46187175043327555,
                0.07164869029275808
            ],
            [
                0.4892547660311947,
                0.030970724191063143
            ]
        ],
        [
            [
                0.5021663778162923,
                -0.0385208012326654
            ],
            [
                0.5779896013864818,
                -0.0485362095531587
            ],
            [
                0.6546793760831898,
                -0.05084745762711829
            ]
        ],
        [
            [
                0.7594454072790294,
                0.0858243451463793
            ],
            [
                0.7876949740034662,
                0.12403697996918334
            ],
            [
                0.7996533795493934,
                0.15947611710323611
            ]
        ],
        [
            [
                0.8899480069324089,
                0.06856702619414483
            ],
            [
                0.9159445407279029,
                0.06856702619414483
            ],
            [
                0.952166377816291,
                0.05963020030816615
            ]
        ],
        [
            [
                1.0218370883882135,
                0.12372881355932182
            ],
            [
                1.058058925476603,
                0.1147919876733436
            ],
            [
                1.0538994800693244,
                0.15577812018489987
            ]
        ],
        [
            [
                1.072616984402081,
                0.44976887519260383
            ],
            [
                1.0684575389948006,
                0.49075500770416025
            ],
            [
                1.044714038128251,
                0.5218798151001536
            ]
        ],
        [
            [
                0.9240901213171575,
                0.6137134052388287
            ],
            [
                0.9003466204506065,
                0.6448382126348227
            ],
            [
                0.8863084922010398,
                0.6756548536209549
            ]
        ],
        [
            [
                0.7948006932409012,
                0.8020030816640982
            ],
            [
                0.7807625649913345,
                0.8328197226502311
            ],
            [
                0.7776429809358751,
                0.8895223420647141
            ]
        ],
        [
            [
                0.7561525129982668,
                1.0257318952234216
            ],
            [
                0.7530329289428076,
                1.0824345146379044
            ],
            [
                0.6873483535528596,
                1.088906009244993
            ]
        ]
    ],
    "3500": 0.782608695652174,
    "3582": [
        [
            [
                0.5479202772963595,
                1.0767334360554695
            ],
            [
                0.4822357019064124,
                1.0832049306625582
            ],
            [
                0.4787694974003466,
                1.0625577812018492
            ]
        ],
        [
            [
                0.4133448873483535,
                0.9952234206471494
            ],
            [
                0.4098786828422877,
                0.9745762711864407
            ],
            [
                0.40849220103986134,
                0.9274268104776568
            ]
        ],
        [
            [
                0.3974003466204506,
                0.8368258859784281
            ],
            [
                0.39601386481802425,
                0.7896764252696455
            ],
            [
                0.39653379549393414,
                0.7733436055469949
            ]
        ],
        [
            [
                0.38509532062391677,
                0.6334360554699537
            ],
            [
                0.38561525129982666,
                0.6171032357473034
            ],
            [
                0.38093587521663774,
                0.5930662557781199
            ]
        ],
        [
            [
                0.4232235701906413,
                0.5456086286594767
            ],
            [
                0.41854419410745236,
                0.5215716486902927
            ],
            [
                0.40710571923743505,
                0.5095531587057014
            ]
        ],
        [
            [
                0.39142114384748694,
                0.4942989214175645
            ],
            [
                0.37998266897746963,
                0.48228043143297294
            ],
            [
                0.40043327556325814,
                0.4545454545454542
            ]
        ],
        [
            [
                0.39636048526863077,
                0.2966101694915253
            ],
            [
                0.4168110918544194,
                0.26887519260400616
            ],
            [
                0.423743500866551,
                0.22665639445300453
            ]
        ],
        [
            [
                0.42201039861351825,
                0.1015408320493066
            ],
            [
                0.4289428076256499,
                0.05932203389830507
            ],
            [
                0.45632582322356907,
                0.018644067796610136
            ]
        ],
        [
            [
                0.5021663778162923,
                -0.0385208012326654
            ],
            [
                0.5779896013864818,
                -0.0485362095531587
            ],
            [
                0.6546793760831898,
                -0.05084745762711829
            ]
        ],
        [
            [
                0.7594454072790294,
                0.0858243451463793
            ],
            [
                0.7876949740034662,
                0.12403697996918334
            ],
            [
                0.7996533795493934,
                0.15947611710323611
            ]
        ],
        [
            [
                0.8899480069324089,
                0.06856702619414483
            ],
            [
                0.9159445407279029,
                0.06856702619414483
            ],
            [
                0.952166377816291,
                0.05963020030816615
            ]
        ],
        [
            [
                1.0218370883882135,
                0.12372881355932182
            ],
            [
                1.058058925476603,
                0.1147919876733436
            ],
            [
                1.0538994800693244,
                0.15577812018489987
            ]
        ],
        [
            [
                1.072616984402081,
                0.44976887519260383
            ],
            [
                1.0684575389948006,
                0.49075500770416025
            ],
            [
                1.044714038128251,
                0.5218798151001536
            ]
        ],
        [
            [
                0.9240901213171575,
                0.6137134052388287
            ],
            [
                0.9003466204506065,
                0.6448382126348227
            ],
            [
                0.8863084922010398,
                0.6756548536209549
            ]
        ],
        [
            [
                0.7462738301559793,
                0.7742681047765787
            ],
            [
                0.7322357019064125,
                0.8050847457627118
            ],
            [
                0.7291161178509532,
                0.8617873651771947
            ]
        ],
        [
            [
                0.6989601386481802,
                1.0288135593220347
            ],
            [
                0.6958405545927209,
                1.0855161787365175
            ],
            [
                0.6301559792027729,
                1.091987673343606
            ]
        ]
    ],
    "3621": [
        [
            [
                0.5479202772963595,
                1.0767334360554695
            ],
            [
                0.4822357019064124,
                1.0832049306625582
            ],
            [
                0.4787694974003466,
                1.0625577812018492
            ]
        ],
        [
            [
                0.4133448873483535,
                0.9952234206471494
            ],
            [
                0.4098786828422877,
                0.9745762711864407
            ],
            [
                0.40849220103986134,
                0.9274268104776568
            ]
        ],
        [
            [
                0.3974003466204506,
                0.8368258859784281
            ],
            [
                0.39601386481802425,
                0.7896764252696455
            ],
            [
                0.39653379549393414,
                0.7733436055469949
            ]
        ],
        [
            [
                0.4197573656845754,
                0.6673343605546994
            ],
            [
                0.4202772963604852,
                0.6510015408320492
            ],
            [
                0.4155979202772963,
                0.6269645608628656
            ]
        ],
        [
            [
                0.44402079722703636,
                0.588751926040062
            ],
            [
                0.43934142114384744,
                0.5647149460708782
            ],
            [
                0.42790294627383013,
                0.5526964560862868
            ]
        ],
        [
            [
                0.39142114384748694,
                0.4942989214175645
            ],
            [
                0.37998266897746963,
                0.48228043143297294
            ],
            [
                0.40043327556325814,
                0.4545454545454542
            ]
        ],
        [
            [
                0.39636048526863077,
                0.2966101694915253
            ],
            [
                0.4168110918544194,
                0.26887519260400616
            ],
            [
                0.423743500866551,
                0.22665639445300453
            ]
        ],
        [
            [
                0.42201039861351825,
                0.1015408320493066
            ],
            [
                0.4289428076256499,
                0.05932203389830507
            ],
            [
                0.45632582322356907,
                0.018644067796610136
            ]
        ],
        [
            [
                0.5021663778162923,
                -0.0385208012326654
            ],
            [
                0.5779896013864818,
                -0.0485362095531587
            ],
            [
                0.6546793760831898,
                -0.05084745762711829
            ]
        ],
        [
            [
                0.7594454072790294,
                0.0858243451463793
            ],
            [
                0.7876949740034662,
                0.12403697996918334
            ],
            [
                0.7996533795493934,
                0.15947611710323611
            ]
        ],
        [
            [
                0.8899480069324089,
                0.06856702619414483
            ],
            [
                0.9159445407279029,
                0.06856702619414483
            ],
            [
                0.952166377816291,
                0.05963020030816615
            ]
        ],
        [
            [
                1.0218370883882135,
                0.12372881355932182
            ],
            [
                1.058058925476603,
                0.1147919876733436
            ],
            [
                1.0538994800693244,
                0.15577812018489987
            ]
        ],
        [
            [
                1.072616984402081,
                0.44976887519260383
            ],
            [
                1.0684575389948006,
                0.49075500770416025
            ],
            [
                1.044714038128251,
                0.5218798151001536
            ]
        ],
        [
            [
                0.9240901213171575,
                0.6137134052388287
            ],
            [
                0.9003466204506065,
                0.6448382126348227
            ],
            [
                0.8863084922010398,
                0.6756548536209549
            ]
        ],
        [
            [
                0.8086655112651646,
                0.7711864406779653
            ],
            [
                0.7946273830155979,
                0.8020030816640985
            ],
            [
                0.7915077989601386,
                0.8587057010785812
            ]
        ],
        [
            [
                0.7717504332755633,
                1.0257318952234216
            ],
            [
                0.7686308492201039,
                1.0824345146379044
            ],
            [
                0.702946273830156,
                1.0889060092449931
            ]
        ]
    ],
    "3642": [
        [
            [
                0.5479202772963595,
                1.0767334360554695
            ],
            [
                0.4822357019064124,
                1.0832049306625582
            ],
            [
                0.4787694974003466,
                1.0625577812018492
            ]
        ],
        [
            [
                0.4133448873483535,
                0.9952234206471494
            ],
            [
                0.4098786828422877,
                0.9745762711864407
            ],
            [
                0.40849220103986134,
                0.9274268104776568
            ]
        ],
        [
            [
                0.3974003466204506,
                0.8368258859784281
            ],
            [
                0.39601386481802425,
                0.7896764252696455
            ],
            [
                0.39653379549393414,
                0.7733436055469949
            ]
        ],
        [
            [
                0.40242634315424614,
                0.6827426810477656
            ],
            [
                0.40294627383015597,
                0.6664098613251155
            ],
            [
                0.39826689774696705,
                0.6423728813559318
            ]
        ],
        [
            [
                0.41629116117850956,
                0.588751926040062
            ],
            [
                0.41161178509532065,
                0.5647149460708782
            ],
            [
                0.4001733102253033,
                0.5526964560862868
            ]
        ],
        [
            [
                0.39142114384748694,
                0.4942989214175645
            ],
            [
                0.37998266897746963,
                0.48228043143297294
            ],
            [
                0.40043327556325814,
                0.4545454545454542
            ]
        ],
        [
            [
                0.39636048526863077,
                0.2966101694915253
            ],
            [
                0.4168110918544194,
                0.26887519260400616
            ],
            [
                0.423743500866551,
                0.22665639445300453
            ]
        ],
        [
            [
                0.42201039861351825,
                0.1015408320493066
            ],
            [
                0.4289428076256499,
                0.05932203389830507
            ],
            [
                0.45632582322356907,
                0.018644067796610136
            ]
        ],
        [
            [
                0.5021663778162923,
                -0.0385208012326654
            ],
            [
                0.5779896013864818,
                -0.0485362095531587
            ],
            [
                0.6546793760831898,
                -0.05084745762711829
            ]
        ],
        [
            [
                0.7594454072790294,
                0.0858243451463793
            ],
            [
                0.7876949740034662,
                0.12403697996918334
            ],
            [
                0.7996533795493934,
                0.15947611710323611
            ]
        ],
        [
            [
                0.8899480069324089,
                0.06856702619414483
            ],
            [
                0.9159445407279029,
                0.06856702619414483
            ],
            [
                0.952166377816291,
                0.05963020030816615
            ]
        ],
        [
            [
                1.0218370883882135,
                0.12372881355932182
            ],
            [
                1.058058925476603,
                0.1147919876733436
            ],
            [
                1.0538994800693244,
                0.15577812018489987
            ]
        ],
        [
            [
                1.072616984402081,
                0.44976887519260383
            ],
            [
                1.0684575389948006,
                0.49075500770416025
            ],
            [
                1.044714038128251,
                0.5218798151001536
            ]
        ],
        [
            [
                0.9240901213171575,
                0.6137134052388287
            ],
            [
                0.9003466204506065,
                0.6448382126348227
            ],
            [
                0.8863084922010398,
                0.6756548536209549
            ]
        ],
        [
            [
                0.8086655112651646,
                0.7711864406779653
            ],
            [
                0.7946273830155979,
                0.8020030816640985
            ],
            [
                0.7915077989601386,
                0.8587057010785812
            ]
        ],
        [
            [
                0.7717504332755633,
                1.0257318952234216
            ],
            [
                0.7686308492201039,
                1.0824345146379044
            ],
            [
                0.702946273830156,
                1.0889060092449931
            ]
        ]
    ]
}
</property>
    <property name="kdenlive:collapsed">0</property>
    <property name="disable">1</property>
   </filter>
   <filter id="filter187" in="00:01:47.867" out="00:02:02.467">
    <property name="start">1</property>
    <property name="mlt_service">brightness</property>
    <property name="kdenlive_id">fade_to_black</property>
    <property name="end">0</property>
    <property name="alpha">-1</property>
    <property name="kdenlive:collapsed">0</property>
   </filter>
   <filter id="filter188">
    <property name="mlt_service">greyscale</property>
    <property name="kdenlive_id">greyscale</property>
    <property name="kdenlive:collapsed">0</property>
   </filter>
  </entry>
  <entry producer="producer147" in="00:02:02.500" out="00:04:51.800">
   <property name="kdenlive:id">27</property>
   <filter id="filter189">
    <property name="rotate_center">1</property>
    <property name="mlt_service">qtblend</property>
    <property name="kdenlive_id">qtblend</property>
    <property name="rect">00:02:02.500=237 0 1920 1080 1.000000</property>
    <property name="rotation">00:02:02.500=0</property>
    <property name="compositing">0</property>
    <property name="distort">0</property>
    <property name="kdenlive:collapsed">0</property>
   </filter>
   <filter id="filter190">
    <property name="mode">alpha</property>
    <property name="alpha_operation">sub</property>
    <property name="invert">1</property>
    <property name="feather">60</property>
    <property name="feather_passes">2</property>
    <property name="mlt_service">rotoscoping</property>
    <property name="kdenlive_id">rotoscoping</property>
    <property name="spline">{
    "3675": [
        [
            [
                0.5479202772963595,
                1.0767334360554695
            ],
            [
                0.4822357019064124,
                1.0832049306625582
            ],
            [
                0.4787694974003466,
                1.0625577812018492
            ]
        ],
        [
            [
                0.4133448873483535,
                0.9952234206471494
            ],
            [
                0.4098786828422877,
                0.9745762711864407
            ],
            [
                0.40849220103986134,
                0.9274268104776568
            ]
        ],
        [
            [
                0.3974003466204506,
                0.8368258859784281
            ],
            [
                0.39601386481802425,
                0.7896764252696455
            ],
            [
                0.39653379549393414,
                0.7733436055469949
            ]
        ],
        [
            [
                0.40242634315424614,
                0.6827426810477656
            ],
            [
                0.40294627383015597,
                0.6664098613251155
            ],
            [
                0.39826689774696705,
                0.6423728813559318
            ]
        ],
        [
            [
                0.41629116117850956,
                0.588751926040062
            ],
            [
                0.41161178509532065,
                0.5647149460708782
            ],
            [
                0.4001733102253033,
                0.5526964560862868
            ]
        ],
        [
            [
                0.39142114384748694,
                0.4942989214175645
            ],
            [
                0.37998266897746963,
                0.48228043143297294
            ],
            [
                0.40043327556325814,
                0.4545454545454542
            ]
        ],
        [
            [
                0.39636048526863077,
                0.2966101694915253
            ],
            [
                0.4168110918544194,
                0.26887519260400616
            ],
            [
                0.423743500866551,
                0.22665639445300453
            ]
        ],
        [
            [
                0.42201039861351825,
                0.1015408320493066
            ],
            [
                0.4289428076256499,
                0.05932203389830507
            ],
            [
                0.45632582322356907,
                0.018644067796610136
            ]
        ],
        [
            [
                0.5021663778162923,
                -0.0385208012326654
            ],
            [
                0.5779896013864818,
                -0.0485362095531587
            ],
            [
                0.6546793760831898,
                -0.05084745762711829
            ]
        ],
        [
            [
                0.7594454072790294,
                0.0858243451463793
            ],
            [
                0.7876949740034662,
                0.12403697996918334
            ],
            [
                0.7996533795493934,
                0.15947611710323611
            ]
        ],
        [
            [
                0.8899480069324089,
                0.06856702619414483
            ],
            [
                0.9159445407279029,
                0.06856702619414483
            ],
            [
                0.952166377816291,
                0.05963020030816615
            ]
        ],
        [
            [
                1.0218370883882135,
                0.12372881355932182
            ],
            [
                1.058058925476603,
                0.1147919876733436
            ],
            [
                1.0538994800693244,
                0.15577812018489987
            ]
        ],
        [
            [
                1.072616984402081,
                0.44976887519260383
            ],
            [
                1.0684575389948006,
                0.49075500770416025
            ],
            [
                1.044714038128251,
                0.5218798151001536
            ]
        ],
        [
            [
                0.9240901213171575,
                0.6137134052388287
            ],
            [
                0.9003466204506065,
                0.6448382126348227
            ],
            [
                0.8863084922010398,
                0.6756548536209549
            ]
        ],
        [
            [
                0.8086655112651646,
                0.7711864406779653
            ],
            [
                0.7946273830155979,
                0.8020030816640985
            ],
            [
                0.7915077989601386,
                0.8587057010785812
            ]
        ],
        [
            [
                0.7717504332755633,
                1.0257318952234216
            ],
            [
                0.7686308492201039,
                1.0824345146379044
            ],
            [
                0.702946273830156,
                1.0889060092449931
            ]
        ]
    ]
}
</property>
    <property name="kdenlive:collapsed">0</property>
    <property name="disable">1</property>
   </filter>
  </entry>
 </playlist>
 <playlist id="playlist23"/>
 <tractor id="tractor11" in="00:00:00.000" out="00:06:02.900">
  <property name="kdenlive:trackheight">69</property>
  <property name="kdenlive:timeline_active">1</property>
  <property name="kdenlive:collapsed">28</property>
  <property name="kdenlive:track_name">caleb1</property>
  <property name="kdenlive:thumbs_format">0</property>
  <property name="kdenlive:audio_rec"/>
  <property name="kdenlive:locked_track"/>
  <track hide="audio" producer="playlist22"/>
  <track producer="playlist23"/>
 </tractor>
 <producer id="producer148" in="00:00:00.000" out="00:04:48.267">
  <property name="length">8649</property>
  <property name="eof">pause</property>
  <property name="resource">content/musicians/2021-06-02_Caleb+Chris_electric+synth+handheld+portrait_sarah_MVI_6003-take3_from_bass_solo.mp4</property>
  <property name="audio_index">-1</property>
  <property name="video_index">0</property>
  <property name="mute_on_pause">0</property>
  <property name="mlt_service">avformat-novalidate</property>
  <property name="seekable">1</property>
  <property name="aspect_ratio">1</property>
  <property name="kdenlive:clipname"/>
  <property name="kdenlive:folderid">22</property>
  <property name="kdenlive:id">25</property>
  <property name="kdenlive:file_size">1638843122</property>
  <property name="kdenlive:file_hash">5370f545878c3b9e987605c323045aa8</property>
  <property name="kdenlive:zone_in">2403</property>
  <property name="kdenlive:zone_out">8479</property>
  <property name="kdenlive:clipzones">[
    {
        "in": 650,
        "name": "Caleb-portrait-handheld",
        "out": 1845
    },
    {
        "in": 2403,
        "name": "Chris-portrait-handheld",
        "out": 8479
    }
]
</property>
  <property name="global_feed">1</property>
  <property name="xml">was here</property>
  <property name="meta.media.nb_streams">1</property>
  <property name="meta.media.0.stream.type">video</property>
  <property name="meta.media.0.stream.frame_rate">29.97</property>
  <property name="meta.media.0.stream.sample_aspect_ratio">0</property>
  <property name="meta.media.0.codec.width">1920</property>
  <property name="meta.media.0.codec.height">1080</property>
  <property name="meta.media.0.codec.rotate">90</property>
  <property name="meta.media.0.codec.frame_rate">30000</property>
  <property name="meta.media.0.codec.pix_fmt">yuvj420p</property>
  <property name="meta.media.0.codec.sample_aspect_ratio">0</property>
  <property name="meta.media.0.codec.colorspace">601</property>
  <property name="meta.media.0.codec.color_trc">1</property>
  <property name="meta.media.0.codec.name">h264</property>
  <property name="meta.media.0.codec.long_name">H.264 / AVC / MPEG-4 AVC / MPEG-4 part 10</property>
  <property name="meta.media.0.codec.bit_rate">45476678</property>
  <property name="meta.attr.0.stream.rotate.markup">90</property>
  <property name="meta.attr.0.stream.creation_time.markup">2021-06-02T16:15:36.000000Z</property>
  <property name="meta.attr.0.stream.language.markup">eng</property>
  <property name="meta.attr.0.stream.handler_name.markup">VideoHandler</property>
  <property name="meta.attr.major_brand.markup">isom</property>
  <property name="meta.attr.minor_version.markup">512</property>
  <property name="meta.attr.compatible_brands.markup">isomiso2avc1mp41</property>
  <property name="meta.attr.creation_time.markup">2021-06-02T16:15:36.000000Z</property>
  <property name="meta.attr.encoder.markup">Lavf58.45.100</property>
  <property name="meta.media.sample_aspect_num">1</property>
  <property name="meta.media.sample_aspect_den">1</property>
  <property name="meta.media.frame_rate_num">30000</property>
  <property name="meta.media.frame_rate_den">1001</property>
  <property name="meta.media.colorspace">601</property>
  <property name="meta.media.color_trc">1</property>
  <property name="meta.media.width">1080</property>
  <property name="meta.media.height">1920</property>
  <property name="meta.media.color_range">full</property>
  <property name="meta.media.top_field_first">0</property>
  <property name="meta.media.progressive">1</property>
  <property name="set.test_audio">1</property>
  <property name="set.test_image">0</property>
 </producer>
 <playlist id="playlist24">
  <blank length="00:01:35.833"/>
  <entry producer="producer148" in="00:00:21.667" out="00:01:01.500">
   <property name="kdenlive:id">25</property>
   <filter id="filter191">
    <property name="mlt_service">avfilter.hflip</property>
    <property name="kdenlive_id">avfilter.hflip</property>
    <property name="kdenlive:collapsed">0</property>
   </filter>
   <filter id="filter192">
    <property name="rotate_center">1</property>
    <property name="mlt_service">qtblend</property>
    <property name="kdenlive_id">qtblend</property>
    <property name="rect">00:00:21.667=0 0 608 1080 1.000000</property>
    <property name="rotation">00:00:21.667=0</property>
    <property name="compositing">0</property>
    <property name="distort">0</property>
    <property name="kdenlive:collapsed">0</property>
   </filter>
   <filter id="filter193">
    <property name="version">0.6</property>
    <property name="mlt_service">frei0r.select0r</property>
    <property name="kdenlive_id">frei0r.select0r</property>
    <property name="Color to select">0x11683eff</property>
    <property name="Invert selection">1</property>
    <property name="Selection subspace">1</property>
    <property name="Subspace shape">0</property>
    <property name="Edge mode">0.9</property>
    <property name="Delta R / A / Hue">00:00:21.667=0.04</property>
    <property name="Delta G / B / Chroma">00:00:21.667=0.168</property>
    <property name="Delta B / I / I">00:00:21.667=0.168</property>
    <property name="Slope">00:00:21.667=0.055</property>
    <property name="Operation">0.5</property>
    <property name="kdenlive:collapsed">0</property>
   </filter>
   <filter id="filter194">
    <property name="version">0.4</property>
    <property name="mlt_service">frei0r.alpha0ps</property>
    <property name="kdenlive_id">frei0r.alpha0ps</property>
    <property name="Display">0</property>
    <property name="Display input alpha">0</property>
    <property name="Operation">1</property>
    <property name="Threshold">00:00:21.667=0.5</property>
    <property name="Shrink/Grow/Blur amount">00:00:21.667=0.068</property>
    <property name="Invert">0</property>
    <property name="kdenlive:collapsed">0</property>
   </filter>
   <filter id="filter195">
    <property name="version">0.3</property>
    <property name="mlt_service">frei0r.keyspillm0pup</property>
    <property name="kdenlive_id">frei0r.keyspillm0pup</property>
    <property name="Key color">0x11683eff</property>
    <property name="Target color">0xC87F65ff</property>
    <property name="Mask type">0</property>
    <property name="Tolerance">00:00:21.667=0.24</property>
    <property name="Slope">00:00:21.667=0.4</property>
    <property name="Hue gate">00:00:21.667=0.157</property>
    <property name="Saturation threshold">00:00:21.667=0.222</property>
    <property name="Operation 1">1</property>
    <property name="Amount 1">00:00:21.667=0.612</property>
    <property name="Operation 2">4</property>
    <property name="Amount 2">00:00:21.667=0.314</property>
    <property name="Show mask">0</property>
    <property name="Mask to Alpha">0</property>
    <property name="kdenlive:collapsed">0</property>
   </filter>
   <filter id="filter196" in="00:01:00.467" out="00:01:01.500">
    <property name="start">1</property>
    <property name="mlt_service">brightness</property>
    <property name="kdenlive_id">fade_to_black</property>
    <property name="end">0</property>
    <property name="alpha">-1</property>
    <property name="kdenlive:collapsed">0</property>
   </filter>
   <filter id="filter197" in="00:00:21.667" out="00:00:22.267">
    <property name="start">0</property>
    <property name="mlt_service">brightness</property>
    <property name="kdenlive_id">fade_from_black</property>
    <property name="end">1</property>
    <property name="alpha">-1</property>
    <property name="kdenlive:collapsed">0</property>
   </filter>
  </entry>
 </playlist>
 <playlist id="playlist25"/>
 <tractor id="tractor12" in="00:00:00.000" out="00:02:15.667">
  <property name="kdenlive:trackheight">69</property>
  <property name="kdenlive:timeline_active">1</property>
  <property name="kdenlive:collapsed">28</property>
  <property name="kdenlive:track_name">caleb-handheld</property>
  <property name="kdenlive:thumbs_format">0</property>
  <property name="kdenlive:audio_rec"/>
  <property name="kdenlive:locked_track"/>
  <track hide="audio" producer="playlist24"/>
  <track producer="playlist25"/>
 </tractor>
 <producer id="producer149" in="00:00:00.000" out="00:01:34.567">
  <property name="length">2838</property>
  <property name="eof">pause</property>
  <property name="resource">/home/ryankelln/.cache/kdenlive/proxy/da970b83fbe60ca04de6e51c97c1f0e2.mkv</property>
  <property name="audio_index">1</property>
  <property name="video_index">0</property>
  <property name="mute_on_pause">0</property>
  <property name="mlt_service">avformat-novalidate</property>
  <property name="seekable">1</property>
  <property name="aspect_ratio">1</property>
  <property name="kdenlive:clipname">2021-02-06_Chris_synth+4k_sarah_P1180161-take2_start.MP4</property>
  <property name="kdenlive:folderid">22</property>
  <property name="kdenlive:id">21</property>
  <property name="kdenlive:file_size">1132989340</property>
  <property name="kdenlive:file_hash">da970b83fbe60ca04de6e51c97c1f0e2</property>
  <property name="kdenlive:audio_max">1</property>
  <property name="global_feed">1</property>
  <property name="kdenlive:proxy">/home/ryankelln/.cache/kdenlive/proxy/da970b83fbe60ca04de6e51c97c1f0e2.mkv</property>
  <property name="kdenlive:originalurl">content/musicians/2021-02-06_Chris_synth+4k_sarah_P1180161-take2_start.MP4</property>
  <property name="kdenlive:original.mlt_type">producer</property>
  <property name="kdenlive:original.in">00:00:00.000</property>
  <property name="kdenlive:original.out">00:01:34.567</property>
  <property name="kdenlive:original.length">2838</property>
  <property name="kdenlive:original.eof">pause</property>
  <property name="kdenlive:original.resource">content/musicians/2021-02-06_Chris_synth+4k_sarah_P1180161-take2_start.MP4</property>
  <property name="kdenlive:original.audio_index">1</property>
  <property name="kdenlive:original.video_index">0</property>
  <property name="kdenlive:original.mute_on_pause">0</property>
  <property name="kdenlive:original.mlt_service">avformat-novalidate</property>
  <property name="kdenlive:original.id">producer22</property>
  <property name="kdenlive:original.meta.media.nb_streams">2</property>
  <property name="kdenlive:original.meta.media.0.stream.type">video</property>
  <property name="kdenlive:original.meta.media.0.stream.frame_rate">29.97</property>
  <property name="kdenlive:original.meta.media.0.stream.sample_aspect_ratio">1</property>
  <property name="kdenlive:original.meta.media.0.codec.width">3840</property>
  <property name="kdenlive:original.meta.media.0.codec.height">2160</property>
  <property name="kdenlive:original.meta.media.0.codec.rotate">0</property>
  <property name="kdenlive:original.meta.media.0.codec.frame_rate">29.97</property>
  <property name="kdenlive:original.meta.media.0.codec.pix_fmt">yuvj420p</property>
  <property name="kdenlive:original.meta.media.0.codec.sample_aspect_ratio">1</property>
  <property name="kdenlive:original.meta.media.0.codec.colorspace">709</property>
  <property name="kdenlive:original.meta.media.0.codec.color_trc">1</property>
  <property name="kdenlive:original.meta.media.0.codec.name">h264</property>
  <property name="kdenlive:original.meta.media.0.codec.long_name">H.264 / AVC / MPEG-4 AVC / MPEG-4 part 10</property>
  <property name="kdenlive:original.meta.media.0.codec.bit_rate">95752163</property>
  <property name="kdenlive:original.meta.attr.0.stream.creation_time.markup">2021-06-02T15:49:21.000000Z</property>
  <property name="kdenlive:original.meta.attr.0.stream.handler_name.markup">VideoHandler</property>
  <property name="kdenlive:original.meta.media.1.stream.type">audio</property>
  <property name="kdenlive:original.meta.media.1.codec.sample_fmt">fltp</property>
  <property name="kdenlive:original.meta.media.1.codec.sample_rate">48000</property>
  <property name="kdenlive:original.meta.media.1.codec.channels">2</property>
  <property name="kdenlive:original.meta.media.1.codec.name">aac</property>
  <property name="kdenlive:original.meta.media.1.codec.long_name">AAC (Advanced Audio Coding)</property>
  <property name="kdenlive:original.meta.media.1.codec.bit_rate">125360</property>
  <property name="kdenlive:original.meta.attr.1.stream.creation_time.markup">2021-06-02T15:49:21.000000Z</property>
  <property name="kdenlive:original.meta.attr.1.stream.handler_name.markup">SoundHandler</property>
  <property name="kdenlive:original.meta.attr.major_brand.markup">isom</property>
  <property name="kdenlive:original.meta.attr.minor_version.markup">512</property>
  <property name="kdenlive:original.meta.attr.compatible_brands.markup">isomiso2avc1mp41</property>
  <property name="kdenlive:original.meta.attr.creation_time.markup">2021-06-02T15:49:21.000000Z</property>
  <property name="kdenlive:original.meta.attr.encoder.markup">Lavf58.45.100</property>
  <property name="kdenlive:original.seekable">1</property>
  <property name="kdenlive:original.meta.media.sample_aspect_num">1</property>
  <property name="kdenlive:original.meta.media.sample_aspect_den">1</property>
  <property name="kdenlive:original.aspect_ratio">1</property>
  <property name="kdenlive:original.kdenlive:folderid">22</property>
  <property name="kdenlive:original.meta.media.frame_rate_num">30000</property>
  <property name="kdenlive:original.meta.media.frame_rate_den">1001</property>
  <property name="kdenlive:original.meta.media.colorspace">709</property>
  <property name="kdenlive:original.meta.media.color_trc">1</property>
  <property name="kdenlive:original.meta.media.width">3840</property>
  <property name="kdenlive:original.meta.media.height">2160</property>
  <property name="kdenlive:original.meta.media.color_range">full</property>
  <property name="kdenlive:original.kdenlive:id">21</property>
  <property name="kdenlive:original.kdenlive:file_size">1132989340</property>
  <property name="kdenlive:original.kdenlive:file_hash">da970b83fbe60ca04de6e51c97c1f0e2</property>
  <property name="kdenlive:original.kdenlive:audio_max">1</property>
  <property name="kdenlive:original.meta.media.top_field_first">0</property>
  <property name="kdenlive:original.meta.media.progressive">1</property>
  <property name="kdenlive:original.global_feed">1</property>
  <property name="kdenlive:original.width">3840</property>
  <property name="kdenlive:original.height">2160</property>
  <property name="kdenlive:original.backup">1</property>
  <property name="xml">was here</property>
  <property name="meta.media.nb_streams">2</property>
  <property name="meta.media.0.stream.type">video</property>
  <property name="meta.media.0.stream.frame_rate">29.97</property>
  <property name="meta.media.0.stream.sample_aspect_ratio">1</property>
  <property name="meta.media.0.codec.width">640</property>
  <property name="meta.media.0.codec.height">360</property>
  <property name="meta.media.0.codec.rotate">0</property>
  <property name="meta.media.0.codec.frame_rate">1000</property>
  <property name="meta.media.0.codec.pix_fmt">yuvj420p</property>
  <property name="meta.media.0.codec.sample_aspect_ratio">1</property>
  <property name="meta.media.0.codec.colorspace">601</property>
  <property name="meta.media.0.codec.name">mjpeg</property>
  <property name="meta.media.0.codec.long_name">MJPEG (Motion JPEG)</property>
  <property name="meta.media.0.codec.bit_rate">0</property>
  <property name="meta.attr.0.stream.HANDLER_NAME.markup">VideoHandler</property>
  <property name="meta.attr.0.stream.ENCODER.markup">Lavc58.91.100 mjpeg</property>
  <property name="meta.attr.0.stream.DURATION.markup">00:01:34.628000000</property>
  <property name="meta.media.1.stream.type">audio</property>
  <property name="meta.media.1.codec.sample_fmt">s16</property>
  <property name="meta.media.1.codec.sample_rate">48000</property>
  <property name="meta.media.1.codec.channels">2</property>
  <property name="meta.media.1.codec.name">pcm_s16le</property>
  <property name="meta.media.1.codec.long_name">PCM signed 16-bit little-endian</property>
  <property name="meta.media.1.codec.bit_rate">1536000</property>
  <property name="meta.attr.1.stream.HANDLER_NAME.markup">SoundHandler</property>
  <property name="meta.attr.1.stream.ENCODER.markup">Lavc58.91.100 pcm_s16le</property>
  <property name="meta.attr.1.stream.DURATION.markup">00:01:34.613000000</property>
  <property name="meta.attr.COMPATIBLE_BRANDS.markup">isomiso2avc1mp41</property>
  <property name="meta.attr.MAJOR_BRAND.markup">isom</property>
  <property name="meta.attr.MINOR_VERSION.markup">512</property>
  <property name="meta.attr.ENCODER.markup">Lavf58.45.100</property>
  <property name="meta.media.sample_aspect_num">1</property>
  <property name="meta.media.sample_aspect_den">1</property>
  <property name="meta.media.frame_rate_num">30000</property>
  <property name="meta.media.frame_rate_den">1001</property>
  <property name="meta.media.colorspace">601</property>
  <property name="meta.media.color_trc">2</property>
  <property name="meta.media.width">640</property>
  <property name="meta.media.height">360</property>
  <property name="meta.media.color_range">full</property>
  <property name="meta.media.top_field_first">0</property>
  <property name="meta.media.progressive">1</property>
  <property name="set.test_audio">1</property>
  <property name="set.test_image">1</property>
 </producer>
 <producer id="producer150" in="00:00:00.000" out="00:04:48.267">
  <property name="length">8649</property>
  <property name="eof">pause</property>
  <property name="resource">content/musicians/2021-06-02_Caleb+Chris_electric+synth+handheld+portrait_sarah_MVI_6003-take3_from_bass_solo.mp4</property>
  <property name="audio_index">-1</property>
  <property name="video_index">0</property>
  <property name="mute_on_pause">0</property>
  <property name="mlt_service">avformat-novalidate</property>
  <property name="seekable">1</property>
  <property name="aspect_ratio">1</property>
  <property name="kdenlive:clipname"/>
  <property name="kdenlive:folderid">22</property>
  <property name="kdenlive:id">25</property>
  <property name="kdenlive:file_size">1638843122</property>
  <property name="kdenlive:file_hash">5370f545878c3b9e987605c323045aa8</property>
  <property name="kdenlive:zone_in">2403</property>
  <property name="kdenlive:zone_out">8479</property>
  <property name="kdenlive:clipzones">[
    {
        "in": 650,
        "name": "Caleb-portrait-handheld",
        "out": 1845
    },
    {
        "in": 2403,
        "name": "Chris-portrait-handheld",
        "out": 8479
    }
]
</property>
  <property name="global_feed">1</property>
  <property name="xml">was here</property>
  <property name="meta.media.nb_streams">1</property>
  <property name="meta.media.0.stream.type">video</property>
  <property name="meta.media.0.stream.frame_rate">29.97</property>
  <property name="meta.media.0.stream.sample_aspect_ratio">0</property>
  <property name="meta.media.0.codec.width">1920</property>
  <property name="meta.media.0.codec.height">1080</property>
  <property name="meta.media.0.codec.rotate">90</property>
  <property name="meta.media.0.codec.frame_rate">30000</property>
  <property name="meta.media.0.codec.pix_fmt">yuvj420p</property>
  <property name="meta.media.0.codec.sample_aspect_ratio">0</property>
  <property name="meta.media.0.codec.colorspace">601</property>
  <property name="meta.media.0.codec.color_trc">1</property>
  <property name="meta.media.0.codec.name">h264</property>
  <property name="meta.media.0.codec.long_name">H.264 / AVC / MPEG-4 AVC / MPEG-4 part 10</property>
  <property name="meta.media.0.codec.bit_rate">45476678</property>
  <property name="meta.attr.0.stream.rotate.markup">90</property>
  <property name="meta.attr.0.stream.creation_time.markup">2021-06-02T16:15:36.000000Z</property>
  <property name="meta.attr.0.stream.language.markup">eng</property>
  <property name="meta.attr.0.stream.handler_name.markup">VideoHandler</property>
  <property name="meta.attr.major_brand.markup">isom</property>
  <property name="meta.attr.minor_version.markup">512</property>
  <property name="meta.attr.compatible_brands.markup">isomiso2avc1mp41</property>
  <property name="meta.attr.creation_time.markup">2021-06-02T16:15:36.000000Z</property>
  <property name="meta.attr.encoder.markup">Lavf58.45.100</property>
  <property name="meta.media.sample_aspect_num">1</property>
  <property name="meta.media.sample_aspect_den">1</property>
  <property name="meta.media.frame_rate_num">30000</property>
  <property name="meta.media.frame_rate_den">1001</property>
  <property name="meta.media.colorspace">601</property>
  <property name="meta.media.color_trc">1</property>
  <property name="meta.media.width">1080</property>
  <property name="meta.media.height">1920</property>
  <property name="meta.media.color_range">full</property>
  <property name="meta.media.top_field_first">0</property>
  <property name="meta.media.progressive">1</property>
  <property name="set.test_audio">1</property>
  <property name="set.test_image">0</property>
 </producer>
 <producer id="producer153" in="00:00:00.000" out="00:04:48.267">
  <property name="length">8649</property>
  <property name="eof">pause</property>
  <property name="resource">content/musicians/2021-06-02_Caleb+Chris_electric+synth+handheld+portrait_sarah_MVI_6003-take3_from_bass_solo.mp4</property>
  <property name="audio_index">-1</property>
  <property name="video_index">0</property>
  <property name="mute_on_pause">0</property>
  <property name="mlt_service">avformat-novalidate</property>
  <property name="seekable">1</property>
  <property name="aspect_ratio">1</property>
  <property name="kdenlive:clipname"/>
  <property name="kdenlive:folderid">22</property>
  <property name="kdenlive:id">25</property>
  <property name="kdenlive:file_size">1638843122</property>
  <property name="kdenlive:file_hash">5370f545878c3b9e987605c323045aa8</property>
  <property name="kdenlive:zone_in">2403</property>
  <property name="kdenlive:zone_out">8479</property>
  <property name="kdenlive:clipzones">[
    {
        "in": 650,
        "name": "Caleb-portrait-handheld",
        "out": 1845
    },
    {
        "in": 2403,
        "name": "Chris-portrait-handheld",
        "out": 8479
    }
]
</property>
  <property name="global_feed">1</property>
  <property name="xml">was here</property>
  <property name="meta.media.nb_streams">1</property>
  <property name="meta.media.0.stream.type">video</property>
  <property name="meta.media.0.stream.frame_rate">29.97</property>
  <property name="meta.media.0.stream.sample_aspect_ratio">0</property>
  <property name="meta.media.0.codec.width">1920</property>
  <property name="meta.media.0.codec.height">1080</property>
  <property name="meta.media.0.codec.rotate">90</property>
  <property name="meta.media.0.codec.frame_rate">30000</property>
  <property name="meta.media.0.codec.pix_fmt">yuvj420p</property>
  <property name="meta.media.0.codec.sample_aspect_ratio">0</property>
  <property name="meta.media.0.codec.colorspace">601</property>
  <property name="meta.media.0.codec.color_trc">1</property>
  <property name="meta.media.0.codec.name">h264</property>
  <property name="meta.media.0.codec.long_name">H.264 / AVC / MPEG-4 AVC / MPEG-4 part 10</property>
  <property name="meta.media.0.codec.bit_rate">45476678</property>
  <property name="meta.attr.0.stream.rotate.markup">90</property>
  <property name="meta.attr.0.stream.creation_time.markup">2021-06-02T16:15:36.000000Z</property>
  <property name="meta.attr.0.stream.language.markup">eng</property>
  <property name="meta.attr.0.stream.handler_name.markup">VideoHandler</property>
  <property name="meta.attr.major_brand.markup">isom</property>
  <property name="meta.attr.minor_version.markup">512</property>
  <property name="meta.attr.compatible_brands.markup">isomiso2avc1mp41</property>
  <property name="meta.attr.creation_time.markup">2021-06-02T16:15:36.000000Z</property>
  <property name="meta.attr.encoder.markup">Lavf58.45.100</property>
  <property name="meta.media.sample_aspect_num">1</property>
  <property name="meta.media.sample_aspect_den">1</property>
  <property name="meta.media.frame_rate_num">30000</property>
  <property name="meta.media.frame_rate_den">1001</property>
  <property name="meta.media.colorspace">601</property>
  <property name="meta.media.color_trc">1</property>
  <property name="meta.media.width">1080</property>
  <property name="meta.media.height">1920</property>
  <property name="meta.media.color_range">full</property>
  <property name="meta.media.top_field_first">0</property>
  <property name="meta.media.progressive">1</property>
  <property name="set.test_audio">1</property>
  <property name="set.test_image">0</property>
 </producer>
 <producer id="producer155" in="00:00:00.000" out="00:04:48.267">
  <property name="length">8649</property>
  <property name="eof">pause</property>
  <property name="resource">content/musicians/2021-06-02_Caleb+Chris_electric+synth+handheld+portrait_sarah_MVI_6003-take3_from_bass_solo.mp4</property>
  <property name="audio_index">-1</property>
  <property name="video_index">0</property>
  <property name="mute_on_pause">0</property>
  <property name="mlt_service">avformat-novalidate</property>
  <property name="seekable">1</property>
  <property name="aspect_ratio">1</property>
  <property name="kdenlive:clipname"/>
  <property name="kdenlive:folderid">22</property>
  <property name="kdenlive:id">25</property>
  <property name="kdenlive:file_size">1638843122</property>
  <property name="kdenlive:file_hash">5370f545878c3b9e987605c323045aa8</property>
  <property name="kdenlive:zone_in">2403</property>
  <property name="kdenlive:zone_out">8479</property>
  <property name="kdenlive:clipzones">[
    {
        "in": 650,
        "name": "Caleb-portrait-handheld",
        "out": 1845
    },
    {
        "in": 2403,
        "name": "Chris-portrait-handheld",
        "out": 8479
    }
]
</property>
  <property name="global_feed">1</property>
  <property name="xml">was here</property>
  <property name="meta.media.nb_streams">1</property>
  <property name="meta.media.0.stream.type">video</property>
  <property name="meta.media.0.stream.frame_rate">29.97</property>
  <property name="meta.media.0.stream.sample_aspect_ratio">0</property>
  <property name="meta.media.0.codec.width">1920</property>
  <property name="meta.media.0.codec.height">1080</property>
  <property name="meta.media.0.codec.rotate">90</property>
  <property name="meta.media.0.codec.frame_rate">30000</property>
  <property name="meta.media.0.codec.pix_fmt">yuvj420p</property>
  <property name="meta.media.0.codec.sample_aspect_ratio">0</property>
  <property name="meta.media.0.codec.colorspace">601</property>
  <property name="meta.media.0.codec.color_trc">1</property>
  <property name="meta.media.0.codec.name">h264</property>
  <property name="meta.media.0.codec.long_name">H.264 / AVC / MPEG-4 AVC / MPEG-4 part 10</property>
  <property name="meta.media.0.codec.bit_rate">45476678</property>
  <property name="meta.attr.0.stream.rotate.markup">90</property>
  <property name="meta.attr.0.stream.creation_time.markup">2021-06-02T16:15:36.000000Z</property>
  <property name="meta.attr.0.stream.language.markup">eng</property>
  <property name="meta.attr.0.stream.handler_name.markup">VideoHandler</property>
  <property name="meta.attr.major_brand.markup">isom</property>
  <property name="meta.attr.minor_version.markup">512</property>
  <property name="meta.attr.compatible_brands.markup">isomiso2avc1mp41</property>
  <property name="meta.attr.creation_time.markup">2021-06-02T16:15:36.000000Z</property>
  <property name="meta.attr.encoder.markup">Lavf58.45.100</property>
  <property name="meta.media.sample_aspect_num">1</property>
  <property name="meta.media.sample_aspect_den">1</property>
  <property name="meta.media.frame_rate_num">30000</property>
  <property name="meta.media.frame_rate_den">1001</property>
  <property name="meta.media.colorspace">601</property>
  <property name="meta.media.color_trc">1</property>
  <property name="meta.media.width">1080</property>
  <property name="meta.media.height">1920</property>
  <property name="meta.media.color_range">full</property>
  <property name="meta.media.top_field_first">0</property>
  <property name="meta.media.progressive">1</property>
  <property name="set.test_audio">1</property>
  <property name="set.test_image">0</property>
 </producer>
 <producer id="producer151" in="00:00:00.000" out="00:04:48.267">
  <property name="length">8649</property>
  <property name="eof">pause</property>
  <property name="resource">content/musicians/2021-06-02_Caleb+Chris_electric+synth+handheld+portrait_sarah_MVI_6003-take3_from_bass_solo.mp4</property>
  <property name="audio_index">-1</property>
  <property name="video_index">0</property>
  <property name="mute_on_pause">0</property>
  <property name="mlt_service">avformat-novalidate</property>
  <property name="seekable">1</property>
  <property name="aspect_ratio">1</property>
  <property name="kdenlive:clipname"/>
  <property name="kdenlive:folderid">22</property>
  <property name="kdenlive:id">25</property>
  <property name="kdenlive:file_size">1638843122</property>
  <property name="kdenlive:file_hash">5370f545878c3b9e987605c323045aa8</property>
  <property name="kdenlive:zone_in">2403</property>
  <property name="kdenlive:zone_out">8479</property>
  <property name="kdenlive:clipzones">[
    {
        "in": 650,
        "name": "Caleb-portrait-handheld",
        "out": 1845
    },
    {
        "in": 2403,
        "name": "Chris-portrait-handheld",
        "out": 8479
    }
]
</property>
  <property name="global_feed">1</property>
  <property name="xml">was here</property>
  <property name="meta.media.nb_streams">1</property>
  <property name="meta.media.0.stream.type">video</property>
  <property name="meta.media.0.stream.frame_rate">29.97</property>
  <property name="meta.media.0.stream.sample_aspect_ratio">0</property>
  <property name="meta.media.0.codec.width">1920</property>
  <property name="meta.media.0.codec.height">1080</property>
  <property name="meta.media.0.codec.rotate">90</property>
  <property name="meta.media.0.codec.frame_rate">30000</property>
  <property name="meta.media.0.codec.pix_fmt">yuvj420p</property>
  <property name="meta.media.0.codec.sample_aspect_ratio">0</property>
  <property name="meta.media.0.codec.colorspace">601</property>
  <property name="meta.media.0.codec.color_trc">1</property>
  <property name="meta.media.0.codec.name">h264</property>
  <property name="meta.media.0.codec.long_name">H.264 / AVC / MPEG-4 AVC / MPEG-4 part 10</property>
  <property name="meta.media.0.codec.bit_rate">45476678</property>
  <property name="meta.attr.0.stream.rotate.markup">90</property>
  <property name="meta.attr.0.stream.creation_time.markup">2021-06-02T16:15:36.000000Z</property>
  <property name="meta.attr.0.stream.language.markup">eng</property>
  <property name="meta.attr.0.stream.handler_name.markup">VideoHandler</property>
  <property name="meta.attr.major_brand.markup">isom</property>
  <property name="meta.attr.minor_version.markup">512</property>
  <property name="meta.attr.compatible_brands.markup">isomiso2avc1mp41</property>
  <property name="meta.attr.creation_time.markup">2021-06-02T16:15:36.000000Z</property>
  <property name="meta.attr.encoder.markup">Lavf58.45.100</property>
  <property name="meta.media.sample_aspect_num">1</property>
  <property name="meta.media.sample_aspect_den">1</property>
  <property name="meta.media.frame_rate_num">30000</property>
  <property name="meta.media.frame_rate_den">1001</property>
  <property name="meta.media.colorspace">601</property>
  <property name="meta.media.color_trc">1</property>
  <property name="meta.media.width">1080</property>
  <property name="meta.media.height">1920</property>
  <property name="meta.media.color_range">full</property>
  <property name="meta.media.top_field_first">0</property>
  <property name="meta.media.progressive">1</property>
  <property name="set.test_audio">1</property>
  <property name="set.test_image">1</property>
 </producer>
 <playlist id="playlist26">
  <blank length="00:00:28.433"/>
  <entry producer="producer149" in="00:00:13.167" out="00:00:59.933">
   <property name="kdenlive:id">21</property>
  </entry>
  <blank length="00:01:16.267"/>
  <entry producer="producer150" in="00:01:17.300" out="00:01:47.767">
   <property name="kdenlive:id">25</property>
   <filter id="filter198">
    <property name="rotate_center">1</property>
    <property name="mlt_service">qtblend</property>
    <property name="kdenlive_id">qtblend</property>
    <property name="rect">00:01:17.300=0 1 608 1080 1.000000</property>
    <property name="rotation">00:01:17.300=0</property>
    <property name="compositing">0</property>
    <property name="distort">1</property>
    <property name="kdenlive:collapsed">0</property>
   </filter>
   <filter id="filter199">
    <property name="version">0.6</property>
    <property name="mlt_service">frei0r.select0r</property>
    <property name="kdenlive_id">frei0r.select0r</property>
    <property name="Color to select">0x30674aff</property>
    <property name="Invert selection">1</property>
    <property name="Selection subspace">1</property>
    <property name="Subspace shape">0.5</property>
    <property name="Edge mode">0.9</property>
    <property name="Delta R / A / Hue">00:01:17.300=0.105</property>
    <property name="Delta G / B / Chroma">00:01:17.300=0.117</property>
    <property name="Delta B / I / I">00:01:17.300=0.139</property>
    <property name="Slope">00:01:17.300=0.124</property>
    <property name="Operation">0.5</property>
    <property name="kdenlive:collapsed">0</property>
   </filter>
   <filter id="filter200">
    <property name="version">0.3</property>
    <property name="mlt_service">frei0r.keyspillm0pup</property>
    <property name="kdenlive_id">frei0r.keyspillm0pup</property>
    <property name="Key color">0x439067ff</property>
    <property name="Target color">0xC87F65ff</property>
    <property name="Mask type">0</property>
    <property name="Tolerance">00:01:17.300=0.179</property>
    <property name="Slope">00:01:17.300=0.4</property>
    <property name="Hue gate">00:01:17.300=0.229</property>
    <property name="Saturation threshold">00:01:17.300=0.113</property>
    <property name="Operation 1">1</property>
    <property name="Amount 1">00:01:17.300=0.5</property>
    <property name="Operation 2">4</property>
    <property name="Amount 2">00:01:17.300=0.209</property>
    <property name="Show mask">0</property>
    <property name="Mask to Alpha">0</property>
    <property name="kdenlive:collapsed">0</property>
   </filter>
  </entry>
  <entry producer="producer153" in="00:01:47.800" out="00:01:48.333">
   <property name="kdenlive:id">25</property>
   <filter id="filter201">
    <property name="rotate_center">1</property>
    <property name="mlt_service">qtblend</property>
    <property name="kdenlive_id">qtblend</property>
    <property name="rect">00:01:47.800=0 1 608 1080 1.000000;00:01:48.333=1310 3 608 1080 1.000000</property>
    <property name="rotation">00:01:47.800=0;00:01:48.333=0</property>
    <property name="compositing">0</property>
    <property name="distort">1</property>
    <property name="kdenlive:collapsed">0</property>
   </filter>
   <filter id="filter202">
    <property name="version">0.6</property>
    <property name="mlt_service">frei0r.select0r</property>
    <property name="kdenlive_id">frei0r.select0r</property>
    <property name="Color to select">0x30674aff</property>
    <property name="Invert selection">1</property>
    <property name="Selection subspace">1</property>
    <property name="Subspace shape">0.5</property>
    <property name="Edge mode">0.9</property>
    <property name="Delta R / A / Hue">00:01:47.800=0.105</property>
    <property name="Delta G / B / Chroma">00:01:47.800=0.117</property>
    <property name="Delta B / I / I">00:01:47.800=0.139</property>
    <property name="Slope">00:01:47.800=0.124</property>
    <property name="Operation">0.5</property>
    <property name="kdenlive:collapsed">0</property>
   </filter>
   <filter id="filter203">
    <property name="version">0.3</property>
    <property name="mlt_service">frei0r.keyspillm0pup</property>
    <property name="kdenlive_id">frei0r.keyspillm0pup</property>
    <property name="Key color">0x439067ff</property>
    <property name="Target color">0xC87F65ff</property>
    <property name="Mask type">0</property>
    <property name="Tolerance">00:01:47.800=0.179</property>
    <property name="Slope">00:01:47.800=0.4</property>
    <property name="Hue gate">00:01:47.800=0.229</property>
    <property name="Saturation threshold">00:01:47.800=0.113</property>
    <property name="Operation 1">1</property>
    <property name="Amount 1">00:01:47.800=0.5</property>
    <property name="Operation 2">4</property>
    <property name="Amount 2">00:01:47.800=0.209</property>
    <property name="Show mask">0</property>
    <property name="Mask to Alpha">0</property>
    <property name="kdenlive:collapsed">0</property>
   </filter>
  </entry>
  <entry producer="producer150" in="00:01:48.367" out="00:02:53.833">
   <property name="kdenlive:id">25</property>
   <filter id="filter204">
    <property name="rotate_center">1</property>
    <property name="mlt_service">qtblend</property>
    <property name="kdenlive_id">qtblend</property>
    <property name="rect">00:01:48.367=1310 1 608 1080 1.000000</property>
    <property name="rotation">00:01:48.367=0</property>
    <property name="compositing">0</property>
    <property name="distort">0</property>
    <property name="kdenlive:collapsed">0</property>
   </filter>
   <filter id="filter205">
    <property name="version">0.6</property>
    <property name="mlt_service">frei0r.select0r</property>
    <property name="kdenlive_id">frei0r.select0r</property>
    <property name="Color to select">0x30674aff</property>
    <property name="Invert selection">1</property>
    <property name="Selection subspace">1</property>
    <property name="Subspace shape">0.5</property>
    <property name="Edge mode">0.9</property>
    <property name="Delta R / A / Hue">00:01:48.367=0.105</property>
    <property name="Delta G / B / Chroma">00:01:48.367=0.117</property>
    <property name="Delta B / I / I">00:01:48.367=0.139</property>
    <property name="Slope">00:01:48.367=0.124</property>
    <property name="Operation">0.5</property>
    <property name="kdenlive:collapsed">0</property>
   </filter>
   <filter id="filter206">
    <property name="version">0.3</property>
    <property name="mlt_service">frei0r.keyspillm0pup</property>
    <property name="kdenlive_id">frei0r.keyspillm0pup</property>
    <property name="Key color">0x439067ff</property>
    <property name="Target color">0xC87F65ff</property>
    <property name="Mask type">0</property>
    <property name="Tolerance">00:01:48.367=0.179</property>
    <property name="Slope">00:01:48.367=0.4</property>
    <property name="Hue gate">00:01:48.367=0.229</property>
    <property name="Saturation threshold">00:01:48.367=0.113</property>
    <property name="Operation 1">1</property>
    <property name="Amount 1">00:01:48.367=0.5</property>
    <property name="Operation 2">4</property>
    <property name="Amount 2">00:01:48.367=0.209</property>
    <property name="Show mask">0</property>
    <property name="Mask to Alpha">0</property>
    <property name="kdenlive:collapsed">0</property>
   </filter>
  </entry>
  <entry producer="producer155" in="00:02:53.867" out="00:02:55.000">
   <property name="kdenlive:id">25</property>
   <filter id="filter207">
    <property name="rotate_center">1</property>
    <property name="mlt_service">qtblend</property>
    <property name="kdenlive_id">qtblend</property>
    <property name="rect">00:02:53.867=1310 1 608 1080 1.000000</property>
    <property name="rotation">00:02:53.867=0</property>
    <property name="compositing">0</property>
    <property name="distort">0</property>
   </filter>
   <filter id="filter208">
    <property name="version">0.6</property>
    <property name="mlt_service">frei0r.select0r</property>
    <property name="kdenlive_id">frei0r.select0r</property>
    <property name="Color to select">0x30674aff</property>
    <property name="Invert selection">1</property>
    <property name="Selection subspace">1</property>
    <property name="Subspace shape">0.5</property>
    <property name="Edge mode">0.9</property>
    <property name="Delta R / A / Hue">00:02:53.867=0.105</property>
    <property name="Delta G / B / Chroma">00:02:53.867=0.117</property>
    <property name="Delta B / I / I">00:02:53.867=0.139</property>
    <property name="Slope">00:02:53.867=0.124</property>
    <property name="Operation">0.5</property>
   </filter>
   <filter id="filter209">
    <property name="version">0.3</property>
    <property name="mlt_service">frei0r.keyspillm0pup</property>
    <property name="kdenlive_id">frei0r.keyspillm0pup</property>
    <property name="Key color">0x439067ff</property>
    <property name="Target color">0xC87F65ff</property>
    <property name="Mask type">0</property>
    <property name="Tolerance">00:02:53.867=0.179</property>
    <property name="Slope">00:02:53.867=0.4</property>
    <property name="Hue gate">00:02:53.867=0.229</property>
    <property name="Saturation threshold">00:02:53.867=0.113</property>
    <property name="Operation 1">1</property>
    <property name="Amount 1">00:02:53.867=0.5</property>
    <property name="Operation 2">4</property>
    <property name="Amount 2">00:02:53.867=0.209</property>
    <property name="Show mask">0</property>
    <property name="Mask to Alpha">0</property>
   </filter>
  </entry>
  <entry producer="producer151" in="00:02:55.033" out="00:03:00.133">
   <property name="kdenlive:id">25</property>
   <filter id="filter210">
    <property name="rotate_center">1</property>
    <property name="mlt_service">qtblend</property>
    <property name="kdenlive_id">qtblend</property>
    <property name="rect">00:02:55.033=0 0 608 1080 1.000000</property>
    <property name="rotation">00:02:55.033=0</property>
    <property name="compositing">0</property>
    <property name="distort">0</property>
    <property name="kdenlive:collapsed">0</property>
   </filter>
  </entry>
  <entry producer="producer151" in="00:03:00.167" out="00:03:00.167">
   <property name="kdenlive:id">25</property>
   <filter id="filter211">
    <property name="rotate_center">1</property>
    <property name="mlt_service">qtblend</property>
    <property name="kdenlive_id">qtblend</property>
    <property name="rect">5405=0 0 608 1080 1.000000</property>
    <property name="rotation">5405=0</property>
    <property name="compositing">0</property>
    <property name="distort">0</property>
   </filter>
  </entry>
  <entry producer="producer151" in="00:03:00.200" out="00:04:48.267">
   <property name="kdenlive:id">25</property>
   <filter id="filter212">
    <property name="rotate_center">1</property>
    <property name="mlt_service">qtblend</property>
    <property name="kdenlive_id">qtblend</property>
    <property name="rect">5406=0 0 608 1080 1.000000</property>
    <property name="rotation">5406=0</property>
    <property name="compositing">0</property>
    <property name="distort">0</property>
   </filter>
  </entry>
 </playlist>
 <playlist id="playlist27"/>
 <tractor id="tractor13" in="00:00:00.000" out="00:06:02.467">
  <property name="kdenlive:trackheight">69</property>
  <property name="kdenlive:timeline_active">1</property>
  <property name="kdenlive:collapsed">0</property>
  <property name="kdenlive:track_name">chris2</property>
  <property name="kdenlive:thumbs_format"/>
  <property name="kdenlive:audio_rec"/>
  <property name="kdenlive:locked_track"/>
  <track hide="audio" producer="playlist26"/>
  <track producer="playlist27"/>
 </tractor>
 <producer id="producer152" in="00:00:00.000" out="00:04:49.833">
  <property name="length">8696</property>
  <property name="eof">pause</property>
  <property name="resource">/home/ryankelln/.cache/kdenlive/proxy/a281898ead78dab9d417b8c3e676a6c8.mkv</property>
  <property name="audio_index">1</property>
  <property name="video_index">0</property>
  <property name="mute_on_pause">0</property>
  <property name="mlt_service">avformat-novalidate</property>
  <property name="seekable">1</property>
  <property name="aspect_ratio">1</property>
  <property name="kdenlive:clipname">2021-02-06_Chris_synth+4k_sarah_P1180162-take3_partial_from_bass_solo.MP4</property>
  <property name="kdenlive:folderid">22</property>
  <property name="kdenlive:id">23</property>
  <property name="kdenlive:file_size">3475788005</property>
  <property name="kdenlive:file_hash">a281898ead78dab9d417b8c3e676a6c8</property>
  <property name="kdenlive:audio_max">1</property>
  <property name="global_feed">1</property>
  <property name="kdenlive:proxy">/home/ryankelln/.cache/kdenlive/proxy/a281898ead78dab9d417b8c3e676a6c8.mkv</property>
  <property name="kdenlive:originalurl">content/musicians/2021-02-06_Chris_synth+4k_sarah_P1180162-take3_partial_from_bass_solo.MP4</property>
  <property name="kdenlive:original.mlt_type">producer</property>
  <property name="kdenlive:original.in">00:00:00.000</property>
  <property name="kdenlive:original.out">00:04:49.833</property>
  <property name="kdenlive:original.length">8696</property>
  <property name="kdenlive:original.eof">pause</property>
  <property name="kdenlive:original.resource">content/musicians/2021-02-06_Chris_synth+4k_sarah_P1180162-take3_partial_from_bass_solo.MP4</property>
  <property name="kdenlive:original.audio_index">1</property>
  <property name="kdenlive:original.video_index">0</property>
  <property name="kdenlive:original.mute_on_pause">0</property>
  <property name="kdenlive:original.mlt_service">avformat-novalidate</property>
  <property name="kdenlive:original.id">producer21</property>
  <property name="kdenlive:original.meta.media.nb_streams">2</property>
  <property name="kdenlive:original.meta.media.0.stream.type">video</property>
  <property name="kdenlive:original.meta.media.0.stream.frame_rate">29.9699</property>
  <property name="kdenlive:original.meta.media.0.stream.sample_aspect_ratio">1</property>
  <property name="kdenlive:original.meta.media.0.codec.width">3840</property>
  <property name="kdenlive:original.meta.media.0.codec.height">2160</property>
  <property name="kdenlive:original.meta.media.0.codec.rotate">0</property>
  <property name="kdenlive:original.meta.media.0.codec.frame_rate">29.97</property>
  <property name="kdenlive:original.meta.media.0.codec.pix_fmt">yuvj420p</property>
  <property name="kdenlive:original.meta.media.0.codec.sample_aspect_ratio">1</property>
  <property name="kdenlive:original.meta.media.0.codec.colorspace">709</property>
  <property name="kdenlive:original.meta.media.0.codec.color_trc">1</property>
  <property name="kdenlive:original.meta.media.0.codec.name">h264</property>
  <property name="kdenlive:original.meta.media.0.codec.long_name">H.264 / AVC / MPEG-4 AVC / MPEG-4 part 10</property>
  <property name="kdenlive:original.meta.media.0.codec.bit_rate">95808168</property>
  <property name="kdenlive:original.meta.attr.0.stream.handler_name.markup">VideoHandler</property>
  <property name="kdenlive:original.meta.media.1.stream.type">audio</property>
  <property name="kdenlive:original.meta.media.1.codec.sample_fmt">fltp</property>
  <property name="kdenlive:original.meta.media.1.codec.sample_rate">48000</property>
  <property name="kdenlive:original.meta.media.1.codec.channels">2</property>
  <property name="kdenlive:original.meta.media.1.codec.name">aac</property>
  <property name="kdenlive:original.meta.media.1.codec.long_name">AAC (Advanced Audio Coding)</property>
  <property name="kdenlive:original.meta.media.1.codec.bit_rate">125377</property>
  <property name="kdenlive:original.meta.attr.1.stream.handler_name.markup">SoundHandler</property>
  <property name="kdenlive:original.meta.attr.major_brand.markup">isom</property>
  <property name="kdenlive:original.meta.attr.minor_version.markup">512</property>
  <property name="kdenlive:original.meta.attr.compatible_brands.markup">isomiso2avc1mp41</property>
  <property name="kdenlive:original.meta.attr.encoder.markup">Lavf58.45.100</property>
  <property name="kdenlive:original.seekable">1</property>
  <property name="kdenlive:original.meta.media.sample_aspect_num">1</property>
  <property name="kdenlive:original.meta.media.sample_aspect_den">1</property>
  <property name="kdenlive:original.aspect_ratio">1</property>
  <property name="kdenlive:original.kdenlive:folderid">22</property>
  <property name="kdenlive:original.meta.media.frame_rate_num">65145000</property>
  <property name="kdenlive:original.meta.media.frame_rate_den">2173679</property>
  <property name="kdenlive:original.meta.media.colorspace">709</property>
  <property name="kdenlive:original.meta.media.color_trc">1</property>
  <property name="kdenlive:original.meta.media.width">3840</property>
  <property name="kdenlive:original.meta.media.height">2160</property>
  <property name="kdenlive:original.meta.media.color_range">full</property>
  <property name="kdenlive:original.kdenlive:id">23</property>
  <property name="kdenlive:original.kdenlive:file_size">3475788005</property>
  <property name="kdenlive:original.kdenlive:file_hash">a281898ead78dab9d417b8c3e676a6c8</property>
  <property name="kdenlive:original.kdenlive:audio_max">1</property>
  <property name="kdenlive:original.meta.media.top_field_first">0</property>
  <property name="kdenlive:original.meta.media.progressive">1</property>
  <property name="kdenlive:original.global_feed">1</property>
  <property name="kdenlive:original.width">3840</property>
  <property name="kdenlive:original.height">2160</property>
  <property name="kdenlive:original.backup">1</property>
  <property name="kdenlive:activeeffect">-1</property>
  <property name="xml">was here</property>
  <property name="meta.media.nb_streams">2</property>
  <property name="meta.media.0.stream.type">video</property>
  <property name="meta.media.0.stream.frame_rate">29.97</property>
  <property name="meta.media.0.stream.sample_aspect_ratio">1</property>
  <property name="meta.media.0.codec.width">640</property>
  <property name="meta.media.0.codec.height">360</property>
  <property name="meta.media.0.codec.rotate">0</property>
  <property name="meta.media.0.codec.frame_rate">1000</property>
  <property name="meta.media.0.codec.pix_fmt">yuvj420p</property>
  <property name="meta.media.0.codec.sample_aspect_ratio">1</property>
  <property name="meta.media.0.codec.colorspace">601</property>
  <property name="meta.media.0.codec.name">mjpeg</property>
  <property name="meta.media.0.codec.long_name">MJPEG (Motion JPEG)</property>
  <property name="meta.media.0.codec.bit_rate">0</property>
  <property name="meta.attr.0.stream.HANDLER_NAME.markup">VideoHandler</property>
  <property name="meta.attr.0.stream.ENCODER.markup">Lavc58.91.100 mjpeg</property>
  <property name="meta.attr.0.stream.DURATION.markup">00:04:49.923000000</property>
  <property name="meta.media.1.stream.type">audio</property>
  <property name="meta.media.1.codec.sample_fmt">s16</property>
  <property name="meta.media.1.codec.sample_rate">48000</property>
  <property name="meta.media.1.codec.channels">2</property>
  <property name="meta.media.1.codec.name">pcm_s16le</property>
  <property name="meta.media.1.codec.long_name">PCM signed 16-bit little-endian</property>
  <property name="meta.media.1.codec.bit_rate">1536000</property>
  <property name="meta.attr.1.stream.HANDLER_NAME.markup">SoundHandler</property>
  <property name="meta.attr.1.stream.ENCODER.markup">Lavc58.91.100 pcm_s16le</property>
  <property name="meta.attr.1.stream.DURATION.markup">00:04:49.851000000</property>
  <property name="meta.attr.COMPATIBLE_BRANDS.markup">isomiso2avc1mp41</property>
  <property name="meta.attr.MAJOR_BRAND.markup">isom</property>
  <property name="meta.attr.MINOR_VERSION.markup">512</property>
  <property name="meta.attr.ENCODER.markup">Lavf58.45.100</property>
  <property name="meta.media.sample_aspect_num">1</property>
  <property name="meta.media.sample_aspect_den">1</property>
  <property name="meta.media.frame_rate_num">30000</property>
  <property name="meta.media.frame_rate_den">1001</property>
  <property name="meta.media.colorspace">601</property>
  <property name="meta.media.color_trc">2</property>
  <property name="meta.media.width">640</property>
  <property name="meta.media.height">360</property>
  <property name="meta.media.color_range">full</property>
  <property name="meta.media.top_field_first">0</property>
  <property name="meta.media.progressive">1</property>
  <property name="set.test_audio">1</property>
  <property name="set.test_image">1</property>
 </producer>
 <producer id="producer154" in="00:00:00.000" out="00:04:49.833">
  <property name="length">8696</property>
  <property name="eof">pause</property>
  <property name="resource">/home/ryankelln/.cache/kdenlive/proxy/a281898ead78dab9d417b8c3e676a6c8.mkv</property>
  <property name="audio_index">1</property>
  <property name="video_index">0</property>
  <property name="mute_on_pause">0</property>
  <property name="mlt_service">avformat-novalidate</property>
  <property name="seekable">1</property>
  <property name="aspect_ratio">1</property>
  <property name="kdenlive:clipname">2021-02-06_Chris_synth+4k_sarah_P1180162-take3_partial_from_bass_solo.MP4</property>
  <property name="kdenlive:folderid">22</property>
  <property name="kdenlive:id">23</property>
  <property name="kdenlive:file_size">3475788005</property>
  <property name="kdenlive:file_hash">a281898ead78dab9d417b8c3e676a6c8</property>
  <property name="kdenlive:audio_max">1</property>
  <property name="global_feed">1</property>
  <property name="kdenlive:proxy">/home/ryankelln/.cache/kdenlive/proxy/a281898ead78dab9d417b8c3e676a6c8.mkv</property>
  <property name="kdenlive:originalurl">content/musicians/2021-02-06_Chris_synth+4k_sarah_P1180162-take3_partial_from_bass_solo.MP4</property>
  <property name="kdenlive:original.mlt_type">producer</property>
  <property name="kdenlive:original.in">00:00:00.000</property>
  <property name="kdenlive:original.out">00:04:49.833</property>
  <property name="kdenlive:original.length">8696</property>
  <property name="kdenlive:original.eof">pause</property>
  <property name="kdenlive:original.resource">content/musicians/2021-02-06_Chris_synth+4k_sarah_P1180162-take3_partial_from_bass_solo.MP4</property>
  <property name="kdenlive:original.audio_index">1</property>
  <property name="kdenlive:original.video_index">0</property>
  <property name="kdenlive:original.mute_on_pause">0</property>
  <property name="kdenlive:original.mlt_service">avformat-novalidate</property>
  <property name="kdenlive:original.id">producer21</property>
  <property name="kdenlive:original.meta.media.nb_streams">2</property>
  <property name="kdenlive:original.meta.media.0.stream.type">video</property>
  <property name="kdenlive:original.meta.media.0.stream.frame_rate">29.9699</property>
  <property name="kdenlive:original.meta.media.0.stream.sample_aspect_ratio">1</property>
  <property name="kdenlive:original.meta.media.0.codec.width">3840</property>
  <property name="kdenlive:original.meta.media.0.codec.height">2160</property>
  <property name="kdenlive:original.meta.media.0.codec.rotate">0</property>
  <property name="kdenlive:original.meta.media.0.codec.frame_rate">29.97</property>
  <property name="kdenlive:original.meta.media.0.codec.pix_fmt">yuvj420p</property>
  <property name="kdenlive:original.meta.media.0.codec.sample_aspect_ratio">1</property>
  <property name="kdenlive:original.meta.media.0.codec.colorspace">709</property>
  <property name="kdenlive:original.meta.media.0.codec.color_trc">1</property>
  <property name="kdenlive:original.meta.media.0.codec.name">h264</property>
  <property name="kdenlive:original.meta.media.0.codec.long_name">H.264 / AVC / MPEG-4 AVC / MPEG-4 part 10</property>
  <property name="kdenlive:original.meta.media.0.codec.bit_rate">95808168</property>
  <property name="kdenlive:original.meta.attr.0.stream.handler_name.markup">VideoHandler</property>
  <property name="kdenlive:original.meta.media.1.stream.type">audio</property>
  <property name="kdenlive:original.meta.media.1.codec.sample_fmt">fltp</property>
  <property name="kdenlive:original.meta.media.1.codec.sample_rate">48000</property>
  <property name="kdenlive:original.meta.media.1.codec.channels">2</property>
  <property name="kdenlive:original.meta.media.1.codec.name">aac</property>
  <property name="kdenlive:original.meta.media.1.codec.long_name">AAC (Advanced Audio Coding)</property>
  <property name="kdenlive:original.meta.media.1.codec.bit_rate">125377</property>
  <property name="kdenlive:original.meta.attr.1.stream.handler_name.markup">SoundHandler</property>
  <property name="kdenlive:original.meta.attr.major_brand.markup">isom</property>
  <property name="kdenlive:original.meta.attr.minor_version.markup">512</property>
  <property name="kdenlive:original.meta.attr.compatible_brands.markup">isomiso2avc1mp41</property>
  <property name="kdenlive:original.meta.attr.encoder.markup">Lavf58.45.100</property>
  <property name="kdenlive:original.seekable">1</property>
  <property name="kdenlive:original.meta.media.sample_aspect_num">1</property>
  <property name="kdenlive:original.meta.media.sample_aspect_den">1</property>
  <property name="kdenlive:original.aspect_ratio">1</property>
  <property name="kdenlive:original.kdenlive:folderid">22</property>
  <property name="kdenlive:original.meta.media.frame_rate_num">65145000</property>
  <property name="kdenlive:original.meta.media.frame_rate_den">2173679</property>
  <property name="kdenlive:original.meta.media.colorspace">709</property>
  <property name="kdenlive:original.meta.media.color_trc">1</property>
  <property name="kdenlive:original.meta.media.width">3840</property>
  <property name="kdenlive:original.meta.media.height">2160</property>
  <property name="kdenlive:original.meta.media.color_range">full</property>
  <property name="kdenlive:original.kdenlive:id">23</property>
  <property name="kdenlive:original.kdenlive:file_size">3475788005</property>
  <property name="kdenlive:original.kdenlive:file_hash">a281898ead78dab9d417b8c3e676a6c8</property>
  <property name="kdenlive:original.kdenlive:audio_max">1</property>
  <property name="kdenlive:original.meta.media.top_field_first">0</property>
  <property name="kdenlive:original.meta.media.progressive">1</property>
  <property name="kdenlive:original.global_feed">1</property>
  <property name="kdenlive:original.width">3840</property>
  <property name="kdenlive:original.height">2160</property>
  <property name="kdenlive:original.backup">1</property>
  <property name="kdenlive:activeeffect">-1</property>
  <property name="xml">was here</property>
  <property name="meta.media.nb_streams">2</property>
  <property name="meta.media.0.stream.type">video</property>
  <property name="meta.media.0.stream.frame_rate">29.97</property>
  <property name="meta.media.0.stream.sample_aspect_ratio">1</property>
  <property name="meta.media.0.codec.width">640</property>
  <property name="meta.media.0.codec.height">360</property>
  <property name="meta.media.0.codec.rotate">0</property>
  <property name="meta.media.0.codec.frame_rate">1000</property>
  <property name="meta.media.0.codec.pix_fmt">yuvj420p</property>
  <property name="meta.media.0.codec.sample_aspect_ratio">1</property>
  <property name="meta.media.0.codec.colorspace">601</property>
  <property name="meta.media.0.codec.name">mjpeg</property>
  <property name="meta.media.0.codec.long_name">MJPEG (Motion JPEG)</property>
  <property name="meta.media.0.codec.bit_rate">0</property>
  <property name="meta.attr.0.stream.HANDLER_NAME.markup">VideoHandler</property>
  <property name="meta.attr.0.stream.ENCODER.markup">Lavc58.91.100 mjpeg</property>
  <property name="meta.attr.0.stream.DURATION.markup">00:04:49.923000000</property>
  <property name="meta.media.1.stream.type">audio</property>
  <property name="meta.media.1.codec.sample_fmt">s16</property>
  <property name="meta.media.1.codec.sample_rate">48000</property>
  <property name="meta.media.1.codec.channels">2</property>
  <property name="meta.media.1.codec.name">pcm_s16le</property>
  <property name="meta.media.1.codec.long_name">PCM signed 16-bit little-endian</property>
  <property name="meta.media.1.codec.bit_rate">1536000</property>
  <property name="meta.attr.1.stream.HANDLER_NAME.markup">SoundHandler</property>
  <property name="meta.attr.1.stream.ENCODER.markup">Lavc58.91.100 pcm_s16le</property>
  <property name="meta.attr.1.stream.DURATION.markup">00:04:49.851000000</property>
  <property name="meta.attr.COMPATIBLE_BRANDS.markup">isomiso2avc1mp41</property>
  <property name="meta.attr.MAJOR_BRAND.markup">isom</property>
  <property name="meta.attr.MINOR_VERSION.markup">512</property>
  <property name="meta.attr.ENCODER.markup">Lavf58.45.100</property>
  <property name="meta.media.sample_aspect_num">1</property>
  <property name="meta.media.sample_aspect_den">1</property>
  <property name="meta.media.frame_rate_num">30000</property>
  <property name="meta.media.frame_rate_den">1001</property>
  <property name="meta.media.colorspace">601</property>
  <property name="meta.media.color_trc">2</property>
  <property name="meta.media.width">640</property>
  <property name="meta.media.height">360</property>
  <property name="meta.media.color_range">full</property>
  <property name="meta.media.top_field_first">0</property>
  <property name="meta.media.progressive">1</property>
  <property name="set.test_audio">1</property>
  <property name="set.test_image">0</property>
 </producer>
 <playlist id="playlist28">
  <blank length="00:01:14.733"/>
  <entry producer="producer152" in="00:00:00.000" out="00:01:47.800">
   <property name="kdenlive:id">23</property>
  </entry>
  <entry producer="producer154" in="00:01:47.833" out="00:02:54.467">
   <property name="kdenlive:id">23</property>
   <filter id="filter213">
    <property name="version">0.1</property>
    <property name="mlt_service">frei0r.alphaspot</property>
    <property name="kdenlive_id">frei0r.alphaspot</property>
    <property name="Shape">0</property>
    <property name="Position X">00:01:47.833=0.698</property>
    <property name="Position Y">00:01:47.833=0.5</property>
    <property name="Size X">00:01:47.833=0.382</property>
    <property name="Size Y">00:01:47.833=1</property>
    <property name="Tilt">00:01:47.833=0.5</property>
    <property name="Transition width">00:01:47.833=0</property>
    <property name="Min">00:01:47.833=0</property>
    <property name="Max">00:01:47.833=1</property>
    <property name="Operation">0</property>
    <property name="kdenlive:collapsed">0</property>
   </filter>
   <filter id="filter214" in="00:01:47.833" out="00:01:48.967">
    <property name="start">0</property>
    <property name="mlt_service">brightness</property>
    <property name="kdenlive_id">fade_from_black</property>
    <property name="end">1</property>
    <property name="alpha">-1</property>
    <property name="kdenlive:collapsed">0</property>
   </filter>
   <filter id="filter215">
    <property name="version">0.1</property>
    <property name="mlt_service">frei0r.hqdn3d</property>
    <property name="kdenlive_id">frei0r.hqdn3d</property>
    <property name="Spatial">00:01:47.833=0.02</property>
    <property name="Temporal">00:01:47.833=0.01</property>
    <property name="kdenlive:collapsed">0</property>
   </filter>
   <filter id="filter216">
    <property name="version">0.6</property>
    <property name="mlt_service">frei0r.select0r</property>
    <property name="kdenlive_id">frei0r.select0r</property>
    <property name="Color to select">0x5f9f62ff</property>
    <property name="Invert selection">1</property>
    <property name="Selection subspace">1</property>
    <property name="Subspace shape">0</property>
    <property name="Edge mode">0.6</property>
    <property name="Delta R / A / Hue">00:01:47.833=0.07</property>
    <property name="Delta G / B / Chroma">00:01:47.833=0.19</property>
    <property name="Delta B / I / I">00:01:47.833=0.358</property>
    <property name="Slope">00:01:47.833=0.152</property>
    <property name="Operation">0.5</property>
    <property name="kdenlive:collapsed">0</property>
   </filter>
   <filter id="filter217">
    <property name="version">0.4</property>
    <property name="mlt_service">frei0r.alpha0ps</property>
    <property name="kdenlive_id">frei0r.alpha0ps</property>
    <property name="Display">0</property>
    <property name="Display input alpha">0</property>
    <property name="Operation">1</property>
    <property name="Threshold">00:01:47.833=0.5</property>
    <property name="Shrink/Grow/Blur amount">00:01:47.833=0.045</property>
    <property name="Invert">0</property>
    <property name="kdenlive:collapsed">0</property>
   </filter>
   <filter id="filter218">
    <property name="version">0.3</property>
    <property name="mlt_service">frei0r.keyspillm0pup</property>
    <property name="kdenlive_id">frei0r.keyspillm0pup</property>
    <property name="Key color">0x69b16cff</property>
    <property name="Target color">0xC87F65ff</property>
    <property name="Mask type">0</property>
    <property name="Tolerance">00:01:47.833=0.148</property>
    <property name="Slope">00:01:47.833=0.151</property>
    <property name="Hue gate">00:01:47.833=0.133</property>
    <property name="Saturation threshold">00:01:47.833=0.106</property>
    <property name="Operation 1">1</property>
    <property name="Amount 1">00:01:47.833=0.78</property>
    <property name="Operation 2">3</property>
    <property name="Amount 2">00:01:47.833=0.084</property>
    <property name="Show mask">0</property>
    <property name="Mask to Alpha">0</property>
    <property name="kdenlive:collapsed">0</property>
   </filter>
   <filter id="filter219">
    <property name="mlt_service">avfilter.hflip</property>
    <property name="kdenlive_id">avfilter.hflip</property>
    <property name="kdenlive:collapsed">0</property>
   </filter>
   <filter id="filter220">
    <property name="rotate_center">1</property>
    <property name="mlt_service">qtblend</property>
    <property name="kdenlive_id">qtblend</property>
    <property name="rect">00:01:47.833=0 0 1920 1080 1.000000</property>
    <property name="rotation">00:01:47.833=0</property>
    <property name="compositing">0</property>
    <property name="distort">0</property>
    <property name="kdenlive:collapsed">0</property>
   </filter>
  </entry>
  <entry producer="producer152" in="00:02:54.500" out="00:04:49.833">
   <property name="kdenlive:id">23</property>
   <filter id="filter221">
    <property name="version">0.1</property>
    <property name="mlt_service">frei0r.alphaspot</property>
    <property name="kdenlive_id">frei0r.alphaspot</property>
    <property name="Shape">0</property>
    <property name="Position X">00:02:54.500=0.698</property>
    <property name="Position Y">00:02:54.500=0.5</property>
    <property name="Size X">00:02:54.500=0.382</property>
    <property name="Size Y">00:02:54.500=1</property>
    <property name="Tilt">00:02:54.500=0.5</property>
    <property name="Transition width">00:02:54.500=0</property>
    <property name="Min">00:02:54.500=0</property>
    <property name="Max">00:02:54.500=1</property>
    <property name="Operation">0</property>
    <property name="kdenlive:collapsed">0</property>
   </filter>
  </entry>
 </playlist>
 <playlist id="playlist29"/>
 <tractor id="tractor14" in="00:00:00.000" out="00:06:04.567">
  <property name="kdenlive:trackheight">69</property>
  <property name="kdenlive:timeline_active">1</property>
  <property name="kdenlive:collapsed">28</property>
  <property name="kdenlive:track_name">chris1</property>
  <property name="kdenlive:thumbs_format"/>
  <property name="kdenlive:audio_rec"/>
  <property name="kdenlive:locked_track">1</property>
  <track hide="both" producer="playlist28"/>
  <track producer="playlist29"/>
 </tractor>
 <producer id="producer159" in="00:00:00.000" out="00:01:27.000">
  <property name="length">2611</property>
  <property name="eof">pause</property>
  <property name="resource">content/hot_bod_120000_f34ec270_bass_solo_electric.mp4</property>
  <property name="audio_index">1</property>
  <property name="video_index">0</property>
  <property name="mute_on_pause">0</property>
  <property name="mlt_service">avformat-novalidate</property>
  <property name="seekable">1</property>
  <property name="aspect_ratio">1</property>
  <property name="kdenlive:clipname"/>
  <property name="kdenlive:folderid">34</property>
  <property name="kdenlive:id">38</property>
  <property name="kdenlive:file_size">42205163</property>
  <property name="kdenlive:file_hash">171649c24b36ba48a3814e00fb965f33</property>
  <property name="kdenlive:audio_max">4</property>
  <property name="global_feed">1</property>
  <property name="xml">was here</property>
  <property name="meta.media.nb_streams">2</property>
  <property name="meta.media.0.stream.type">video</property>
  <property name="meta.media.0.stream.frame_rate">30</property>
  <property name="meta.media.0.stream.sample_aspect_ratio">0</property>
  <property name="meta.media.0.codec.width">896</property>
  <property name="meta.media.0.codec.height">512</property>
  <property name="meta.media.0.codec.rotate">0</property>
  <property name="meta.media.0.codec.frame_rate">30</property>
  <property name="meta.media.0.codec.pix_fmt">yuv420p</property>
  <property name="meta.media.0.codec.sample_aspect_ratio">0</property>
  <property name="meta.media.0.codec.colorspace">601</property>
  <property name="meta.media.0.codec.name">h264</property>
  <property name="meta.media.0.codec.long_name">H.264 / AVC / MPEG-4 AVC / MPEG-4 part 10</property>
  <property name="meta.media.0.codec.bit_rate">3535758</property>
  <property name="meta.attr.0.stream.handler_name.markup">VideoHandler</property>
  <property name="meta.media.1.stream.type">audio</property>
  <property name="meta.media.1.codec.sample_fmt">fltp</property>
  <property name="meta.media.1.codec.sample_rate">48000</property>
  <property name="meta.media.1.codec.channels">2</property>
  <property name="meta.media.1.codec.name">aac</property>
  <property name="meta.media.1.codec.long_name">AAC (Advanced Audio Coding)</property>
  <property name="meta.media.1.codec.bit_rate">336755</property>
  <property name="meta.attr.1.stream.handler_name.markup">SoundHandler</property>
  <property name="meta.attr.major_brand.markup">isom</property>
  <property name="meta.attr.minor_version.markup">512</property>
  <property name="meta.attr.compatible_brands.markup">isomiso2avc1mp41</property>
  <property name="meta.attr.encoder.markup">Lavf58.29.100</property>
  <property name="meta.media.sample_aspect_num">1</property>
  <property name="meta.media.sample_aspect_den">1</property>
  <property name="meta.media.frame_rate_num">30</property>
  <property name="meta.media.frame_rate_den">1</property>
  <property name="meta.media.colorspace">601</property>
  <property name="meta.media.color_trc">2</property>
  <property name="meta.media.width">896</property>
  <property name="meta.media.height">512</property>
  <property name="meta.media.color_range">mpeg</property>
  <property name="meta.media.top_field_first">0</property>
  <property name="meta.media.progressive">1</property>
  <property name="set.test_audio">1</property>
  <property name="set.test_image">0</property>
 </producer>
 <producer id="producer156" in="00:00:00.000" out="00:04:49.833">
  <property name="length">8696</property>
  <property name="eof">pause</property>
  <property name="resource">/home/ryankelln/.cache/kdenlive/proxy/a281898ead78dab9d417b8c3e676a6c8.mkv</property>
  <property name="audio_index">1</property>
  <property name="video_index">0</property>
  <property name="mute_on_pause">0</property>
  <property name="mlt_service">avformat-novalidate</property>
  <property name="seekable">1</property>
  <property name="aspect_ratio">1</property>
  <property name="kdenlive:clipname">2021-02-06_Chris_synth+4k_sarah_P1180162-take3_partial_from_bass_solo.MP4</property>
  <property name="kdenlive:folderid">22</property>
  <property name="kdenlive:id">23</property>
  <property name="kdenlive:file_size">3475788005</property>
  <property name="kdenlive:file_hash">a281898ead78dab9d417b8c3e676a6c8</property>
  <property name="kdenlive:audio_max">1</property>
  <property name="global_feed">1</property>
  <property name="kdenlive:proxy">/home/ryankelln/.cache/kdenlive/proxy/a281898ead78dab9d417b8c3e676a6c8.mkv</property>
  <property name="kdenlive:originalurl">content/musicians/2021-02-06_Chris_synth+4k_sarah_P1180162-take3_partial_from_bass_solo.MP4</property>
  <property name="kdenlive:original.mlt_type">producer</property>
  <property name="kdenlive:original.in">00:00:00.000</property>
  <property name="kdenlive:original.out">00:04:49.833</property>
  <property name="kdenlive:original.length">8696</property>
  <property name="kdenlive:original.eof">pause</property>
  <property name="kdenlive:original.resource">content/musicians/2021-02-06_Chris_synth+4k_sarah_P1180162-take3_partial_from_bass_solo.MP4</property>
  <property name="kdenlive:original.audio_index">1</property>
  <property name="kdenlive:original.video_index">0</property>
  <property name="kdenlive:original.mute_on_pause">0</property>
  <property name="kdenlive:original.mlt_service">avformat-novalidate</property>
  <property name="kdenlive:original.id">producer21</property>
  <property name="kdenlive:original.meta.media.nb_streams">2</property>
  <property name="kdenlive:original.meta.media.0.stream.type">video</property>
  <property name="kdenlive:original.meta.media.0.stream.frame_rate">29.9699</property>
  <property name="kdenlive:original.meta.media.0.stream.sample_aspect_ratio">1</property>
  <property name="kdenlive:original.meta.media.0.codec.width">3840</property>
  <property name="kdenlive:original.meta.media.0.codec.height">2160</property>
  <property name="kdenlive:original.meta.media.0.codec.rotate">0</property>
  <property name="kdenlive:original.meta.media.0.codec.frame_rate">29.97</property>
  <property name="kdenlive:original.meta.media.0.codec.pix_fmt">yuvj420p</property>
  <property name="kdenlive:original.meta.media.0.codec.sample_aspect_ratio">1</property>
  <property name="kdenlive:original.meta.media.0.codec.colorspace">709</property>
  <property name="kdenlive:original.meta.media.0.codec.color_trc">1</property>
  <property name="kdenlive:original.meta.media.0.codec.name">h264</property>
  <property name="kdenlive:original.meta.media.0.codec.long_name">H.264 / AVC / MPEG-4 AVC / MPEG-4 part 10</property>
  <property name="kdenlive:original.meta.media.0.codec.bit_rate">95808168</property>
  <property name="kdenlive:original.meta.attr.0.stream.handler_name.markup">VideoHandler</property>
  <property name="kdenlive:original.meta.media.1.stream.type">audio</property>
  <property name="kdenlive:original.meta.media.1.codec.sample_fmt">fltp</property>
  <property name="kdenlive:original.meta.media.1.codec.sample_rate">48000</property>
  <property name="kdenlive:original.meta.media.1.codec.channels">2</property>
  <property name="kdenlive:original.meta.media.1.codec.name">aac</property>
  <property name="kdenlive:original.meta.media.1.codec.long_name">AAC (Advanced Audio Coding)</property>
  <property name="kdenlive:original.meta.media.1.codec.bit_rate">125377</property>
  <property name="kdenlive:original.meta.attr.1.stream.handler_name.markup">SoundHandler</property>
  <property name="kdenlive:original.meta.attr.major_brand.markup">isom</property>
  <property name="kdenlive:original.meta.attr.minor_version.markup">512</property>
  <property name="kdenlive:original.meta.attr.compatible_brands.markup">isomiso2avc1mp41</property>
  <property name="kdenlive:original.meta.attr.encoder.markup">Lavf58.45.100</property>
  <property name="kdenlive:original.seekable">1</property>
  <property name="kdenlive:original.meta.media.sample_aspect_num">1</property>
  <property name="kdenlive:original.meta.media.sample_aspect_den">1</property>
  <property name="kdenlive:original.aspect_ratio">1</property>
  <property name="kdenlive:original.kdenlive:folderid">22</property>
  <property name="kdenlive:original.meta.media.frame_rate_num">65145000</property>
  <property name="kdenlive:original.meta.media.frame_rate_den">2173679</property>
  <property name="kdenlive:original.meta.media.colorspace">709</property>
  <property name="kdenlive:original.meta.media.color_trc">1</property>
  <property name="kdenlive:original.meta.media.width">3840</property>
  <property name="kdenlive:original.meta.media.height">2160</property>
  <property name="kdenlive:original.meta.media.color_range">full</property>
  <property name="kdenlive:original.kdenlive:id">23</property>
  <property name="kdenlive:original.kdenlive:file_size">3475788005</property>
  <property name="kdenlive:original.kdenlive:file_hash">a281898ead78dab9d417b8c3e676a6c8</property>
  <property name="kdenlive:original.kdenlive:audio_max">1</property>
  <property name="kdenlive:original.meta.media.top_field_first">0</property>
  <property name="kdenlive:original.meta.media.progressive">1</property>
  <property name="kdenlive:original.global_feed">1</property>
  <property name="kdenlive:original.width">3840</property>
  <property name="kdenlive:original.height">2160</property>
  <property name="kdenlive:original.backup">1</property>
  <property name="kdenlive:activeeffect">-1</property>
  <property name="xml">was here</property>
  <property name="meta.media.nb_streams">2</property>
  <property name="meta.media.0.stream.type">video</property>
  <property name="meta.media.0.stream.frame_rate">29.97</property>
  <property name="meta.media.0.stream.sample_aspect_ratio">1</property>
  <property name="meta.media.0.codec.width">640</property>
  <property name="meta.media.0.codec.height">360</property>
  <property name="meta.media.0.codec.rotate">0</property>
  <property name="meta.media.0.codec.frame_rate">1000</property>
  <property name="meta.media.0.codec.pix_fmt">yuvj420p</property>
  <property name="meta.media.0.codec.sample_aspect_ratio">1</property>
  <property name="meta.media.0.codec.colorspace">601</property>
  <property name="meta.media.0.codec.name">mjpeg</property>
  <property name="meta.media.0.codec.long_name">MJPEG (Motion JPEG)</property>
  <property name="meta.media.0.codec.bit_rate">0</property>
  <property name="meta.attr.0.stream.HANDLER_NAME.markup">VideoHandler</property>
  <property name="meta.attr.0.stream.ENCODER.markup">Lavc58.91.100 mjpeg</property>
  <property name="meta.attr.0.stream.DURATION.markup">00:04:49.923000000</property>
  <property name="meta.media.1.stream.type">audio</property>
  <property name="meta.media.1.codec.sample_fmt">s16</property>
  <property name="meta.media.1.codec.sample_rate">48000</property>
  <property name="meta.media.1.codec.channels">2</property>
  <property name="meta.media.1.codec.name">pcm_s16le</property>
  <property name="meta.media.1.codec.long_name">PCM signed 16-bit little-endian</property>
  <property name="meta.media.1.codec.bit_rate">1536000</property>
  <property name="meta.attr.1.stream.HANDLER_NAME.markup">SoundHandler</property>
  <property name="meta.attr.1.stream.ENCODER.markup">Lavc58.91.100 pcm_s16le</property>
  <property name="meta.attr.1.stream.DURATION.markup">00:04:49.851000000</property>
  <property name="meta.attr.COMPATIBLE_BRANDS.markup">isomiso2avc1mp41</property>
  <property name="meta.attr.MAJOR_BRAND.markup">isom</property>
  <property name="meta.attr.MINOR_VERSION.markup">512</property>
  <property name="meta.attr.ENCODER.markup">Lavf58.45.100</property>
  <property name="meta.media.sample_aspect_num">1</property>
  <property name="meta.media.sample_aspect_den">1</property>
  <property name="meta.media.frame_rate_num">30000</property>
  <property name="meta.media.frame_rate_den">1001</property>
  <property name="meta.media.colorspace">601</property>
  <property name="meta.media.color_trc">2</property>
  <property name="meta.media.width">640</property>
  <property name="meta.media.height">360</property>
  <property name="meta.media.color_range">full</property>
  <property name="meta.media.top_field_first">0</property>
  <property name="meta.media.progressive">1</property>
  <property name="set.test_audio">1</property>
  <property name="set.test_image">0</property>
 </producer>
 <playlist id="playlist30">
  <blank length="00:00:08.700"/>
  <entry producer="producer32" in="00:00:00.000" out="00:00:00.467">
   <property name="kdenlive:id">48</property>
   <filter id="filter222">
    <property name="rotate_center">1</property>
    <property name="mlt_service">qtblend</property>
    <property name="kdenlive_id">qtblend</property>
    <property name="rect">00:00:00.000=0 0 1920 1080 0.000000;00:00:00.033=0 0 1920 1080 0.978571;00:00:00.467=0 0 1920 1080 0.700000</property>
    <property name="rotation">00:00:00.000=0;00:00:00.033=0;00:00:00.467=0</property>
    <property name="compositing">0</property>
    <property name="distort">0</property>
    <property name="kdenlive:collapsed">0</property>
   </filter>
  </entry>
  <blank length="00:00:03.567"/>
  <entry producer="producer32" in="00:00:00.000" out="00:00:00.467">
   <property name="kdenlive:id">48</property>
   <filter id="filter223">
    <property name="rotate_center">1</property>
    <property name="mlt_service">qtblend</property>
    <property name="kdenlive_id">qtblend</property>
    <property name="rect">00:00:00.000=0 0 1920 1080 0.000000;00:00:00.033=0 0 1920 1080 0.978571;00:00:00.467=0 0 1920 1080 0.700000</property>
    <property name="rotation">00:00:00.000=0;00:00:00.033=0;00:00:00.467=0</property>
    <property name="compositing">0</property>
    <property name="distort">0</property>
    <property name="kdenlive:collapsed">0</property>
   </filter>
  </entry>
  <blank length="00:00:00.833"/>
  <entry producer="producer32" in="00:00:00.000" out="00:00:00.467">
   <property name="kdenlive:id">48</property>
   <filter id="filter224">
    <property name="rotate_center">1</property>
    <property name="mlt_service">qtblend</property>
    <property name="kdenlive_id">qtblend</property>
    <property name="rect">00:00:00.000=0 0 1920 1080 0.000000;00:00:00.033=0 0 1920 1080 0.978571;00:00:00.467=0 0 1920 1080 0.700000</property>
    <property name="rotation">00:00:00.000=0;00:00:00.033=0;00:00:00.467=0</property>
    <property name="compositing">0</property>
    <property name="distort">0</property>
    <property name="kdenlive:collapsed">0</property>
   </filter>
  </entry>
  <blank length="00:01:20.367"/>
  <entry producer="producer159" in="00:00:00.000" out="00:01:27.000">
   <property name="kdenlive:id">38</property>
   <filter id="filter225">
    <property name="rotate_center">1</property>
    <property name="mlt_service">qtblend</property>
    <property name="kdenlive_id">qtblend</property>
    <property name="rect">00:00:00.000=0 0 1920 1080 0.100000</property>
    <property name="rotation">00:00:00.000=0</property>
    <property name="compositing">15</property>
    <property name="distort">1</property>
    <property name="kdenlive:collapsed">0</property>
   </filter>
   <filter id="filter226" out="00:00:01.467">
    <property name="start">0</property>
    <property name="mlt_service">brightness</property>
    <property name="kdenlive_id">fade_from_black</property>
    <property name="end">1</property>
    <property name="alpha">-1</property>
    <property name="kdenlive:collapsed">0</property>
   </filter>
  </entry>
  <blank length="00:00:00.500"/>
  <entry producer="producer156" in="00:01:47.833" out="00:02:54.467">
   <property name="kdenlive:id">23</property>
   <filter id="filter227">
    <property name="version">0.1</property>
    <property name="mlt_service">frei0r.alphaspot</property>
    <property name="kdenlive_id">frei0r.alphaspot</property>
    <property name="Shape">0</property>
    <property name="Position X">00:01:47.833=0.698</property>
    <property name="Position Y">00:01:47.833=0.5</property>
    <property name="Size X">00:01:47.833=0.382</property>
    <property name="Size Y">00:01:47.833=1</property>
    <property name="Tilt">00:01:47.833=0.5</property>
    <property name="Transition width">00:01:47.833=0</property>
    <property name="Min">00:01:47.833=0</property>
    <property name="Max">00:01:47.833=1</property>
    <property name="Operation">0</property>
    <property name="kdenlive:collapsed">0</property>
   </filter>
   <filter id="filter228" in="00:01:47.833" out="00:01:48.967">
    <property name="start">0</property>
    <property name="mlt_service">brightness</property>
    <property name="kdenlive_id">fade_from_black</property>
    <property name="end">1</property>
    <property name="alpha">-1</property>
    <property name="kdenlive:collapsed">0</property>
   </filter>
   <filter id="filter229">
    <property name="version">0.1</property>
    <property name="mlt_service">frei0r.hqdn3d</property>
    <property name="kdenlive_id">frei0r.hqdn3d</property>
    <property name="Spatial">00:01:47.833=0.02</property>
    <property name="Temporal">00:01:47.833=0.01</property>
    <property name="kdenlive:collapsed">0</property>
   </filter>
   <filter id="filter230">
    <property name="version">0.6</property>
    <property name="mlt_service">frei0r.select0r</property>
    <property name="kdenlive_id">frei0r.select0r</property>
    <property name="Color to select">0x5f9f62ff</property>
    <property name="Invert selection">1</property>
    <property name="Selection subspace">1</property>
    <property name="Subspace shape">0</property>
    <property name="Edge mode">0.6</property>
    <property name="Delta R / A / Hue">00:01:47.833=0.07</property>
    <property name="Delta G / B / Chroma">00:01:47.833=0.19</property>
    <property name="Delta B / I / I">00:01:47.833=0.358</property>
    <property name="Slope">00:01:47.833=0.152</property>
    <property name="Operation">0.5</property>
    <property name="kdenlive:collapsed">0</property>
    <property name="disable">0</property>
   </filter>
   <filter id="filter231">
    <property name="version">0.4</property>
    <property name="mlt_service">frei0r.alpha0ps</property>
    <property name="kdenlive_id">frei0r.alpha0ps</property>
    <property name="Display">0</property>
    <property name="Display input alpha">0</property>
    <property name="Operation">1</property>
    <property name="Threshold">00:01:47.833=0.5</property>
    <property name="Shrink/Grow/Blur amount">00:01:47.833=0.045</property>
    <property name="Invert">0</property>
    <property name="kdenlive:collapsed">0</property>
   </filter>
   <filter id="filter232">
    <property name="version">0.3</property>
    <property name="mlt_service">frei0r.keyspillm0pup</property>
    <property name="kdenlive_id">frei0r.keyspillm0pup</property>
    <property name="Key color">0x69b16cff</property>
    <property name="Target color">0xC87F65ff</property>
    <property name="Mask type">0</property>
    <property name="Tolerance">00:01:47.833=0.148</property>
    <property name="Slope">00:01:47.833=0.151</property>
    <property name="Hue gate">00:01:47.833=0.133</property>
    <property name="Saturation threshold">00:01:47.833=0.106</property>
    <property name="Operation 1">1</property>
    <property name="Amount 1">00:01:47.833=0.78</property>
    <property name="Operation 2">3</property>
    <property name="Amount 2">00:01:47.833=0.084</property>
    <property name="Show mask">0</property>
    <property name="Mask to Alpha">0</property>
    <property name="kdenlive:collapsed">0</property>
   </filter>
   <filter id="filter233">
    <property name="mlt_service">avfilter.hflip</property>
    <property name="kdenlive_id">avfilter.hflip</property>
    <property name="kdenlive:collapsed">0</property>
   </filter>
   <filter id="filter234">
    <property name="rotate_center">1</property>
    <property name="mlt_service">qtblend</property>
    <property name="kdenlive_id">qtblend</property>
    <property name="rect">00:01:47.833=0 0 1920 1080 1.000000</property>
    <property name="rotation">00:01:47.833=0</property>
    <property name="compositing">0</property>
    <property name="distort">0</property>
    <property name="kdenlive:collapsed">0</property>
   </filter>
   <filter id="filter235">
    <property name="lift_r">-0.4</property>
    <property name="lift_g">-0.4</property>
    <property name="lift_b">-0.4</property>
    <property name="gamma_r">1.15001</property>
    <property name="gamma_g">1.15001</property>
    <property name="gamma_b">1.15001</property>
    <property name="gain_r">1.17501</property>
    <property name="gain_g">1.17501</property>
    <property name="gain_b">1.17501</property>
    <property name="mlt_service">lift_gamma_gain</property>
    <property name="kdenlive_id">lift_gamma_gain</property>
    <property name="kdenlive:collapsed">0</property>
   </filter>
  </entry>
 </playlist>
 <playlist id="playlist31"/>
 <tractor id="tractor15" in="00:00:00.000" out="00:04:09.133">
  <property name="kdenlive:trackheight">69</property>
  <property name="kdenlive:timeline_active">1</property>
  <property name="kdenlive:collapsed">0</property>
  <property name="kdenlive:track_name">lighting</property>
  <property name="kdenlive:thumbs_format"/>
  <property name="kdenlive:audio_rec"/>
  <track hide="audio" producer="playlist30"/>
  <track producer="playlist31"/>
 </tractor>
 <producer id="producer161" in="00:00:00.000" out="00:00:44.033">
  <property name="length">1323</property>
  <property name="eof">pause</property>
  <property name="resource">/home/ryankelln/.cache/kdenlive/proxy/798d1c3462c3415c362ab562d1bb0c39.mkv</property>
  <property name="audio_index">1</property>
  <property name="video_index">0</property>
  <property name="mute_on_pause">0</property>
  <property name="mlt_service">avformat-novalidate</property>
  <property name="seekable">1</property>
  <property name="aspect_ratio">1</property>
  <property name="kdenlive:clipname">trusses_rotating_mirror.mp4</property>
  <property name="kdenlive:folderid">34</property>
  <property name="kdenlive:id">50</property>
  <property name="kdenlive:file_size">8626700</property>
  <property name="kdenlive:file_hash">798d1c3462c3415c362ab562d1bb0c39</property>
  <property name="kdenlive:proxy">/home/ryankelln/.cache/kdenlive/proxy/798d1c3462c3415c362ab562d1bb0c39.mkv</property>
  <property name="kdenlive:originalurl">content/trusses_rotating_mirror.mp4</property>
  <property name="kdenlive:original.mlt_type">producer</property>
  <property name="kdenlive:original.in">0</property>
  <property name="kdenlive:original.out">1322</property>
  <property name="kdenlive:original.length">1323</property>
  <property name="kdenlive:original.eof">pause</property>
  <property name="kdenlive:original.resource">content/trusses_rotating_mirror.mp4</property>
  <property name="kdenlive:original.meta.media.nb_streams">2</property>
  <property name="kdenlive:original.meta.media.0.stream.type">video</property>
  <property name="kdenlive:original.meta.media.0.stream.frame_rate">30</property>
  <property name="kdenlive:original.meta.media.0.stream.sample_aspect_ratio">1</property>
  <property name="kdenlive:original.meta.media.0.codec.width">1920</property>
  <property name="kdenlive:original.meta.media.0.codec.height">1080</property>
  <property name="kdenlive:original.meta.media.0.codec.rotate">0</property>
  <property name="kdenlive:original.meta.media.0.codec.frame_rate">30</property>
  <property name="kdenlive:original.meta.media.0.codec.pix_fmt">yuv420p</property>
  <property name="kdenlive:original.meta.media.0.codec.sample_aspect_ratio">1</property>
  <property name="kdenlive:original.meta.media.0.codec.colorspace">709</property>
  <property name="kdenlive:original.meta.media.0.codec.color_trc">1</property>
  <property name="kdenlive:original.meta.media.0.codec.name">h264</property>
  <property name="kdenlive:original.meta.media.0.codec.long_name">H.264 / AVC / MPEG-4 AVC / MPEG-4 part 10</property>
  <property name="kdenlive:original.meta.media.0.codec.bit_rate">1301541</property>
  <property name="kdenlive:original.meta.attr.0.stream.handler_name.markup">VideoHandler</property>
  <property name="kdenlive:original.meta.media.1.stream.type">audio</property>
  <property name="kdenlive:original.meta.media.1.codec.sample_fmt">fltp</property>
  <property name="kdenlive:original.meta.media.1.codec.sample_rate">48000</property>
  <property name="kdenlive:original.meta.media.1.codec.channels">2</property>
  <property name="kdenlive:original.meta.media.1.codec.name">aac</property>
  <property name="kdenlive:original.meta.media.1.codec.long_name">AAC (Advanced Audio Coding)</property>
  <property name="kdenlive:original.meta.media.1.codec.bit_rate">255789</property>
  <property name="kdenlive:original.meta.attr.1.stream.handler_name.markup">SoundHandler</property>
  <property name="kdenlive:original.meta.attr.major_brand.markup">isom</property>
  <property name="kdenlive:original.meta.attr.minor_version.markup">512</property>
  <property name="kdenlive:original.meta.attr.compatible_brands.markup">isomiso2avc1mp41</property>
  <property name="kdenlive:original.meta.attr.encoder.markup">Lavf58.45.100</property>
  <property name="kdenlive:original.seekable">1</property>
  <property name="kdenlive:original.width">1920</property>
  <property name="kdenlive:original.height">1080</property>
  <property name="kdenlive:original.meta.media.sample_aspect_num">1</property>
  <property name="kdenlive:original.meta.media.sample_aspect_den">1</property>
  <property name="kdenlive:original.aspect_ratio">1</property>
  <property name="kdenlive:original.audio_index">1</property>
  <property name="kdenlive:original.video_index">0</property>
  <property name="kdenlive:original.mute_on_pause">0</property>
  <property name="kdenlive:original.mlt_service">avformat-novalidate</property>
  <property name="kdenlive:original.kdenlive:folderid">34</property>
  <property name="kdenlive:original.meta.media.frame_rate_num">30</property>
  <property name="kdenlive:original.meta.media.frame_rate_den">1</property>
  <property name="kdenlive:original.meta.media.colorspace">709</property>
  <property name="kdenlive:original.meta.media.color_trc">1</property>
  <property name="kdenlive:original.meta.media.width">1920</property>
  <property name="kdenlive:original.meta.media.height">1080</property>
  <property name="kdenlive:original.meta.media.color_range">mpeg</property>
  <property name="kdenlive:original.kdenlive:id">54</property>
  <property name="kdenlive:original.kdenlive:file_size">8626700</property>
  <property name="kdenlive:original.kdenlive:file_hash">798d1c3462c3415c362ab562d1bb0c39</property>
  <property name="kdenlive:original.backup">1</property>
  <property name="kdenlive:audio_max">6</property>
  <property name="global_feed">1</property>
  <property name="xml">was here</property>
  <property name="meta.media.nb_streams">2</property>
  <property name="meta.media.0.stream.type">video</property>
  <property name="meta.media.0.stream.frame_rate">30</property>
  <property name="meta.media.0.stream.sample_aspect_ratio">1</property>
  <property name="meta.media.0.codec.width">640</property>
  <property name="meta.media.0.codec.height">360</property>
  <property name="meta.media.0.codec.rotate">0</property>
  <property name="meta.media.0.codec.frame_rate">1000</property>
  <property name="meta.media.0.codec.pix_fmt">yuvj420p</property>
  <property name="meta.media.0.codec.sample_aspect_ratio">1</property>
  <property name="meta.media.0.codec.colorspace">601</property>
  <property name="meta.media.0.codec.name">mjpeg</property>
  <property name="meta.media.0.codec.long_name">MJPEG (Motion JPEG)</property>
  <property name="meta.media.0.codec.bit_rate">0</property>
  <property name="meta.attr.0.stream.HANDLER_NAME.markup">VideoHandler</property>
  <property name="meta.attr.0.stream.ENCODER.markup">Lavc58.91.100 mjpeg</property>
  <property name="meta.attr.0.stream.DURATION.markup">00:00:44.066000000</property>
  <property name="meta.media.1.stream.type">audio</property>
  <property name="meta.media.1.codec.sample_fmt">s16</property>
  <property name="meta.media.1.codec.sample_rate">48000</property>
  <property name="meta.media.1.codec.channels">2</property>
  <property name="meta.media.1.codec.name">pcm_s16le</property>
  <property name="meta.media.1.codec.long_name">PCM signed 16-bit little-endian</property>
  <property name="meta.media.1.codec.bit_rate">1536000</property>
  <property name="meta.attr.1.stream.HANDLER_NAME.markup">SoundHandler</property>
  <property name="meta.attr.1.stream.ENCODER.markup">Lavc58.91.100 pcm_s16le</property>
  <property name="meta.attr.1.stream.DURATION.markup">00:00:44.074000000</property>
  <property name="meta.attr.COMPATIBLE_BRANDS.markup">isomiso2avc1mp41</property>
  <property name="meta.attr.MAJOR_BRAND.markup">isom</property>
  <property name="meta.attr.MINOR_VERSION.markup">512</property>
  <property name="meta.attr.ENCODER.markup">Lavf58.45.100</property>
  <property name="meta.media.sample_aspect_num">1</property>
  <property name="meta.media.sample_aspect_den">1</property>
  <property name="meta.media.frame_rate_num">30</property>
  <property name="meta.media.frame_rate_den">1</property>
  <property name="meta.media.colorspace">601</property>
  <property name="meta.media.color_trc">2</property>
  <property name="meta.media.width">640</property>
  <property name="meta.media.height">360</property>
  <property name="meta.media.color_range">full</property>
  <property name="meta.media.top_field_first">0</property>
  <property name="meta.media.progressive">1</property>
  <property name="set.test_audio">1</property>
  <property name="set.test_image">0</property>
 </producer>
 <playlist id="playlist32">
  <blank length="00:00:08.700"/>
  <entry producer="producer27" in="00:00:00.000" out="00:00:00.467">
   <property name="kdenlive:id">31</property>
   <filter id="filter236">
    <property name="rotate_center">1</property>
    <property name="mlt_service">qtblend</property>
    <property name="kdenlive_id">qtblend</property>
    <property name="rect">00:00:00.000=0 0 1920 1080 0.300000;00:00:00.033=0 0 1920 1080 1.000000;00:00:00.467=0 0 1920 1080 0.200000</property>
    <property name="rotation">00:00:00.000=0;00:00:00.033=0;00:00:00.467=0</property>
    <property name="compositing">0</property>
    <property name="distort">0</property>
    <property name="kdenlive:collapsed">0</property>
   </filter>
  </entry>
  <blank length="00:00:01.500"/>
  <entry producer="producer28" in="00:00:00.000" out="00:00:00.467">
   <property name="kdenlive:id">32</property>
   <filter id="filter237">
    <property name="rotate_center">1</property>
    <property name="mlt_service">qtblend</property>
    <property name="kdenlive_id">qtblend</property>
    <property name="rect">00:00:00.000=0 0 1920 1080 0.300000;00:00:00.033=0 0 1920 1080 1.000000;00:00:00.467=0 0 1920 1080 0.200000</property>
    <property name="rotation">00:00:00.000=0;00:00:00.033=0;00:00:00.467=0</property>
    <property name="compositing">0</property>
    <property name="distort">0</property>
    <property name="kdenlive:collapsed">0</property>
   </filter>
  </entry>
  <blank length="00:00:01.567"/>
  <entry producer="producer29" in="00:00:00.000" out="00:00:00.467">
   <property name="kdenlive:id">33</property>
   <filter id="filter238">
    <property name="rotate_center">1</property>
    <property name="mlt_service">qtblend</property>
    <property name="kdenlive_id">qtblend</property>
    <property name="rect">00:00:00.000=0 0 1920 1080 0.500000;00:00:00.033=0 0 1920 1080 1.000000;00:00:00.467=0 0 1920 1080 0.200000</property>
    <property name="rotation">00:00:00.000=0;00:00:00.033=0;00:00:00.467=0</property>
    <property name="compositing">0</property>
    <property name="distort">0</property>
    <property name="kdenlive:collapsed">0</property>
   </filter>
  </entry>
  <blank length="00:00:00.833"/>
  <entry producer="producer30" in="00:00:00.000" out="00:00:00.467">
   <property name="kdenlive:id">35</property>
   <filter id="filter239">
    <property name="rotate_center">1</property>
    <property name="mlt_service">qtblend</property>
    <property name="kdenlive_id">qtblend</property>
    <property name="rect">00:00:00.000=0 0 1920 1080 0.500000;00:00:00.033=0 0 1920 1080 1.000000;00:00:00.467=0 0 1920 1080 0.200000</property>
    <property name="rotation">00:00:00.000=0;00:00:00.033=0;00:00:00.467=0</property>
    <property name="compositing">0</property>
    <property name="distort">0</property>
    <property name="kdenlive:collapsed">0</property>
   </filter>
  </entry>
  <blank length="00:01:17.400"/>
  <entry producer="producer161" in="00:00:00.000" out="00:00:44.067">
   <property name="kdenlive:id">50</property>
   <filter id="filter240">
    <property name="version">0.1</property>
    <property name="mlt_service">frei0r.mask0mate</property>
    <property name="kdenlive_id">frei0r.mask0mate</property>
    <property name="Left">00:00:00.000=0.292;00:00:02.833=0.382913;00:00:03.833=0.415;00:00:43.067=0.415;00:00:44.067|=0.131</property>
    <property name="Right">00:00:00.000=0.368;00:00:02.833=0.396;00:00:03.833=0.43;00:00:43.067=0.43;00:00:44.067|=0.43</property>
    <property name="Top">00:00:00.000=0;00:00:02.833=0;00:00:03.833=0;00:00:43.067=0;00:00:44.067|=0</property>
    <property name="Bottom">00:00:00.000=0;00:00:02.833=0;00:00:03.833=0;00:00:43.067=0;00:00:44.067|=0</property>
    <property name="Invert">1</property>
    <property name="Blur">00:00:00.000=0;00:00:02.833=0;00:00:03.833=0;00:00:43.067=0;00:00:44.067|=0</property>
    <property name="kdenlive:collapsed">0</property>
   </filter>
   <filter id="filter241">
    <property name="rotate_center">1</property>
    <property name="mlt_service">qtblend</property>
    <property name="kdenlive_id">qtblend</property>
    <property name="rect">00:00:00.000=-800 0 1920 1080 1.000000;00:00:03.833=-220 0 1920 1080 1.000000</property>
    <property name="rotation">00:00:00.000=0;00:00:03.833=0</property>
    <property name="compositing">0</property>
    <property name="distort">0</property>
    <property name="kdenlive:collapsed">0</property>
   </filter>
   <filter id="filter242" in="00:00:42.967" out="00:00:44.067">
    <property name="start">1</property>
    <property name="mlt_service">brightness</property>
    <property name="kdenlive_id">fade_to_black</property>
    <property name="end">0</property>
    <property name="alpha">-1</property>
    <property name="kdenlive:collapsed">0</property>
   </filter>
  </entry>
 </playlist>
 <playlist id="playlist33"/>
 <tractor id="tractor16" in="00:00:00.000" out="00:02:16.067">
  <property name="kdenlive:trackheight">69</property>
  <property name="kdenlive:timeline_active">1</property>
  <property name="kdenlive:collapsed">0</property>
  <property name="kdenlive:track_name">panels</property>
  <property name="kdenlive:thumbs_format"/>
  <property name="kdenlive:audio_rec"/>
  <track hide="audio" producer="playlist32"/>
  <track producer="playlist33"/>
 </tractor>
 <producer id="producer157" in="00:00:00.000" out="00:00:00.800">
  <property name="length">25</property>
  <property name="eof">pause</property>
  <property name="resource">/home/ryankelln/.cache/kdenlive/1622300596310/preview/40000.mov</property>
  <property name="meta.media.nb_streams">1</property>
  <property name="meta.media.0.stream.type">video</property>
  <property name="meta.media.0.stream.frame_rate">30</property>
  <property name="meta.media.0.stream.sample_aspect_ratio">1</property>
  <property name="meta.media.0.codec.width">1920</property>
  <property name="meta.media.0.codec.height">1080</property>
  <property name="meta.media.0.codec.rotate">0</property>
  <property name="meta.media.0.codec.frame_rate">15360</property>
  <property name="meta.media.0.codec.pix_fmt">yuv422p</property>
  <property name="meta.media.0.codec.sample_aspect_ratio">0</property>
  <property name="meta.media.0.codec.colorspace">709</property>
  <property name="meta.media.0.codec.name">dnxhd</property>
  <property name="meta.media.0.codec.long_name">VC3/DNxHD</property>
  <property name="meta.media.0.codec.bit_rate">45219840</property>
  <property name="meta.attr.0.stream.handler_name.markup">VideoHandler</property>
  <property name="meta.attr.major_brand.markup">qt  </property>
  <property name="meta.attr.minor_version.markup">512</property>
  <property name="meta.attr.compatible_brands.markup">qt  </property>
  <property name="meta.attr.encoder.markup">Lavf58.45.100</property>
  <property name="seekable">1</property>
  <property name="meta.media.sample_aspect_num">1</property>
  <property name="meta.media.sample_aspect_den">1</property>
  <property name="aspect_ratio">1</property>
  <property name="audio_index">-1</property>
  <property name="video_index">0</property>
  <property name="mute_on_pause">1</property>
  <property name="mlt_service">avformat-novalidate</property>
 </producer>
 <producer id="producer158" in="00:00:00.000" out="00:00:00.800">
  <property name="length">25</property>
  <property name="eof">pause</property>
  <property name="resource">/home/ryankelln/.cache/kdenlive/1622300596310/preview/40025.mov</property>
  <property name="meta.media.nb_streams">1</property>
  <property name="meta.media.0.stream.type">video</property>
  <property name="meta.media.0.stream.frame_rate">30</property>
  <property name="meta.media.0.stream.sample_aspect_ratio">1</property>
  <property name="meta.media.0.codec.width">1920</property>
  <property name="meta.media.0.codec.height">1080</property>
  <property name="meta.media.0.codec.rotate">0</property>
  <property name="meta.media.0.codec.frame_rate">15360</property>
  <property name="meta.media.0.codec.pix_fmt">yuv422p</property>
  <property name="meta.media.0.codec.sample_aspect_ratio">0</property>
  <property name="meta.media.0.codec.colorspace">709</property>
  <property name="meta.media.0.codec.name">dnxhd</property>
  <property name="meta.media.0.codec.long_name">VC3/DNxHD</property>
  <property name="meta.media.0.codec.bit_rate">45219840</property>
  <property name="meta.attr.0.stream.handler_name.markup">VideoHandler</property>
  <property name="meta.attr.major_brand.markup">qt  </property>
  <property name="meta.attr.minor_version.markup">512</property>
  <property name="meta.attr.compatible_brands.markup">qt  </property>
  <property name="meta.attr.encoder.markup">Lavf58.45.100</property>
  <property name="seekable">1</property>
  <property name="meta.media.sample_aspect_num">1</property>
  <property name="meta.media.sample_aspect_den">1</property>
  <property name="aspect_ratio">1</property>
  <property name="audio_index">-1</property>
  <property name="video_index">0</property>
  <property name="mute_on_pause">1</property>
  <property name="mlt_service">avformat-novalidate</property>
 </producer>
 <producer id="producer160" in="00:00:00.000" out="00:00:00.800">
  <property name="length">25</property>
  <property name="eof">pause</property>
  <property name="resource">/home/ryankelln/.cache/kdenlive/1622300596310/preview/40050.mov</property>
  <property name="meta.media.nb_streams">1</property>
  <property name="meta.media.0.stream.type">video</property>
  <property name="meta.media.0.stream.frame_rate">30</property>
  <property name="meta.media.0.stream.sample_aspect_ratio">1</property>
  <property name="meta.media.0.codec.width">1920</property>
  <property name="meta.media.0.codec.height">1080</property>
  <property name="meta.media.0.codec.rotate">0</property>
  <property name="meta.media.0.codec.frame_rate">15360</property>
  <property name="meta.media.0.codec.pix_fmt">yuv422p</property>
  <property name="meta.media.0.codec.sample_aspect_ratio">0</property>
  <property name="meta.media.0.codec.colorspace">709</property>
  <property name="meta.media.0.codec.name">dnxhd</property>
  <property name="meta.media.0.codec.long_name">VC3/DNxHD</property>
  <property name="meta.media.0.codec.bit_rate">45219840</property>
  <property name="meta.attr.0.stream.handler_name.markup">VideoHandler</property>
  <property name="meta.attr.major_brand.markup">qt  </property>
  <property name="meta.attr.minor_version.markup">512</property>
  <property name="meta.attr.compatible_brands.markup">qt  </property>
  <property name="meta.attr.encoder.markup">Lavf58.45.100</property>
  <property name="seekable">1</property>
  <property name="meta.media.sample_aspect_num">1</property>
  <property name="meta.media.sample_aspect_den">1</property>
  <property name="aspect_ratio">1</property>
  <property name="audio_index">-1</property>
  <property name="video_index">0</property>
  <property name="mute_on_pause">1</property>
  <property name="mlt_service">avformat-novalidate</property>
 </producer>
 <producer id="producer162" in="00:00:00.000" out="00:00:00.800">
  <property name="length">25</property>
  <property name="eof">pause</property>
  <property name="resource">/home/ryankelln/.cache/kdenlive/1622300596310/preview/40075.mov</property>
  <property name="meta.media.nb_streams">1</property>
  <property name="meta.media.0.stream.type">video</property>
  <property name="meta.media.0.stream.frame_rate">30</property>
  <property name="meta.media.0.stream.sample_aspect_ratio">1</property>
  <property name="meta.media.0.codec.width">1920</property>
  <property name="meta.media.0.codec.height">1080</property>
  <property name="meta.media.0.codec.rotate">0</property>
  <property name="meta.media.0.codec.frame_rate">15360</property>
  <property name="meta.media.0.codec.pix_fmt">yuv422p</property>
  <property name="meta.media.0.codec.sample_aspect_ratio">0</property>
  <property name="meta.media.0.codec.colorspace">709</property>
  <property name="meta.media.0.codec.name">dnxhd</property>
  <property name="meta.media.0.codec.long_name">VC3/DNxHD</property>
  <property name="meta.media.0.codec.bit_rate">45219840</property>
  <property name="meta.attr.0.stream.handler_name.markup">VideoHandler</property>
  <property name="meta.attr.major_brand.markup">qt  </property>
  <property name="meta.attr.minor_version.markup">512</property>
  <property name="meta.attr.compatible_brands.markup">qt  </property>
  <property name="meta.attr.encoder.markup">Lavf58.45.100</property>
  <property name="seekable">1</property>
  <property name="meta.media.sample_aspect_num">1</property>
  <property name="meta.media.sample_aspect_den">1</property>
  <property name="aspect_ratio">1</property>
  <property name="audio_index">-1</property>
  <property name="video_index">0</property>
  <property name="mute_on_pause">1</property>
  <property name="mlt_service">avformat-novalidate</property>
 </producer>
 <producer id="producer163" in="00:00:00.000" out="00:00:00.800">
  <property name="length">25</property>
  <property name="eof">pause</property>
  <property name="resource">/home/ryankelln/.cache/kdenlive/1622300596310/preview/40100.mov</property>
  <property name="meta.media.nb_streams">1</property>
  <property name="meta.media.0.stream.type">video</property>
  <property name="meta.media.0.stream.frame_rate">30</property>
  <property name="meta.media.0.stream.sample_aspect_ratio">1</property>
  <property name="meta.media.0.codec.width">1920</property>
  <property name="meta.media.0.codec.height">1080</property>
  <property name="meta.media.0.codec.rotate">0</property>
  <property name="meta.media.0.codec.frame_rate">15360</property>
  <property name="meta.media.0.codec.pix_fmt">yuv422p</property>
  <property name="meta.media.0.codec.sample_aspect_ratio">0</property>
  <property name="meta.media.0.codec.colorspace">709</property>
  <property name="meta.media.0.codec.name">dnxhd</property>
  <property name="meta.media.0.codec.long_name">VC3/DNxHD</property>
  <property name="meta.media.0.codec.bit_rate">45219840</property>
  <property name="meta.attr.0.stream.handler_name.markup">VideoHandler</property>
  <property name="meta.attr.major_brand.markup">qt  </property>
  <property name="meta.attr.minor_version.markup">512</property>
  <property name="meta.attr.compatible_brands.markup">qt  </property>
  <property name="meta.attr.encoder.markup">Lavf58.45.100</property>
  <property name="seekable">1</property>
  <property name="meta.media.sample_aspect_num">1</property>
  <property name="meta.media.sample_aspect_den">1</property>
  <property name="aspect_ratio">1</property>
  <property name="audio_index">-1</property>
  <property name="video_index">0</property>
  <property name="mute_on_pause">1</property>
  <property name="mlt_service">avformat-novalidate</property>
 </producer>
 <producer id="producer164" in="00:00:00.000" out="00:00:00.800">
  <property name="length">25</property>
  <property name="eof">pause</property>
  <property name="resource">/home/ryankelln/.cache/kdenlive/1622300596310/preview/40125.mov</property>
  <property name="meta.media.nb_streams">1</property>
  <property name="meta.media.0.stream.type">video</property>
  <property name="meta.media.0.stream.frame_rate">30</property>
  <property name="meta.media.0.stream.sample_aspect_ratio">1</property>
  <property name="meta.media.0.codec.width">1920</property>
  <property name="meta.media.0.codec.height">1080</property>
  <property name="meta.media.0.codec.rotate">0</property>
  <property name="meta.media.0.codec.frame_rate">15360</property>
  <property name="meta.media.0.codec.pix_fmt">yuv422p</property>
  <property name="meta.media.0.codec.sample_aspect_ratio">0</property>
  <property name="meta.media.0.codec.colorspace">709</property>
  <property name="meta.media.0.codec.name">dnxhd</property>
  <property name="meta.media.0.codec.long_name">VC3/DNxHD</property>
  <property name="meta.media.0.codec.bit_rate">45219840</property>
  <property name="meta.attr.0.stream.handler_name.markup">VideoHandler</property>
  <property name="meta.attr.major_brand.markup">qt  </property>
  <property name="meta.attr.minor_version.markup">512</property>
  <property name="meta.attr.compatible_brands.markup">qt  </property>
  <property name="meta.attr.encoder.markup">Lavf58.45.100</property>
  <property name="seekable">1</property>
  <property name="meta.media.sample_aspect_num">1</property>
  <property name="meta.media.sample_aspect_den">1</property>
  <property name="aspect_ratio">1</property>
  <property name="audio_index">-1</property>
  <property name="video_index">0</property>
  <property name="mute_on_pause">1</property>
  <property name="mlt_service">avformat-novalidate</property>
 </producer>
 <producer id="producer165" in="00:00:00.000" out="00:00:00.800">
  <property name="length">25</property>
  <property name="eof">pause</property>
  <property name="resource">/home/ryankelln/.cache/kdenlive/1622300596310/preview/40150.mov</property>
  <property name="meta.media.nb_streams">1</property>
  <property name="meta.media.0.stream.type">video</property>
  <property name="meta.media.0.stream.frame_rate">30</property>
  <property name="meta.media.0.stream.sample_aspect_ratio">1</property>
  <property name="meta.media.0.codec.width">1920</property>
  <property name="meta.media.0.codec.height">1080</property>
  <property name="meta.media.0.codec.rotate">0</property>
  <property name="meta.media.0.codec.frame_rate">15360</property>
  <property name="meta.media.0.codec.pix_fmt">yuv422p</property>
  <property name="meta.media.0.codec.sample_aspect_ratio">0</property>
  <property name="meta.media.0.codec.colorspace">709</property>
  <property name="meta.media.0.codec.name">dnxhd</property>
  <property name="meta.media.0.codec.long_name">VC3/DNxHD</property>
  <property name="meta.media.0.codec.bit_rate">45219840</property>
  <property name="meta.attr.0.stream.handler_name.markup">VideoHandler</property>
  <property name="meta.attr.major_brand.markup">qt  </property>
  <property name="meta.attr.minor_version.markup">512</property>
  <property name="meta.attr.compatible_brands.markup">qt  </property>
  <property name="meta.attr.encoder.markup">Lavf58.45.100</property>
  <property name="seekable">1</property>
  <property name="meta.media.sample_aspect_num">1</property>
  <property name="meta.media.sample_aspect_den">1</property>
  <property name="aspect_ratio">1</property>
  <property name="audio_index">-1</property>
  <property name="video_index">0</property>
  <property name="mute_on_pause">1</property>
  <property name="mlt_service">avformat-novalidate</property>
 </producer>
 <producer id="producer166" in="00:00:00.000" out="00:00:00.800">
  <property name="length">25</property>
  <property name="eof">pause</property>
  <property name="resource">/home/ryankelln/.cache/kdenlive/1622300596310/preview/40175.mov</property>
  <property name="meta.media.nb_streams">1</property>
  <property name="meta.media.0.stream.type">video</property>
  <property name="meta.media.0.stream.frame_rate">30</property>
  <property name="meta.media.0.stream.sample_aspect_ratio">1</property>
  <property name="meta.media.0.codec.width">1920</property>
  <property name="meta.media.0.codec.height">1080</property>
  <property name="meta.media.0.codec.rotate">0</property>
  <property name="meta.media.0.codec.frame_rate">15360</property>
  <property name="meta.media.0.codec.pix_fmt">yuv422p</property>
  <property name="meta.media.0.codec.sample_aspect_ratio">0</property>
  <property name="meta.media.0.codec.colorspace">709</property>
  <property name="meta.media.0.codec.name">dnxhd</property>
  <property name="meta.media.0.codec.long_name">VC3/DNxHD</property>
  <property name="meta.media.0.codec.bit_rate">45219840</property>
  <property name="meta.attr.0.stream.handler_name.markup">VideoHandler</property>
  <property name="meta.attr.major_brand.markup">qt  </property>
  <property name="meta.attr.minor_version.markup">512</property>
  <property name="meta.attr.compatible_brands.markup">qt  </property>
  <property name="meta.attr.encoder.markup">Lavf58.45.100</property>
  <property name="seekable">1</property>
  <property name="meta.media.sample_aspect_num">1</property>
  <property name="meta.media.sample_aspect_den">1</property>
  <property name="aspect_ratio">1</property>
  <property name="audio_index">-1</property>
  <property name="video_index">0</property>
  <property name="mute_on_pause">1</property>
  <property name="mlt_service">avformat-novalidate</property>
 </producer>
 <producer id="producer167" in="00:00:00.000" out="00:00:00.800">
  <property name="length">25</property>
  <property name="eof">pause</property>
  <property name="resource">/home/ryankelln/.cache/kdenlive/1622300596310/preview/40200.mov</property>
  <property name="meta.media.nb_streams">1</property>
  <property name="meta.media.0.stream.type">video</property>
  <property name="meta.media.0.stream.frame_rate">30</property>
  <property name="meta.media.0.stream.sample_aspect_ratio">1</property>
  <property name="meta.media.0.codec.width">1920</property>
  <property name="meta.media.0.codec.height">1080</property>
  <property name="meta.media.0.codec.rotate">0</property>
  <property name="meta.media.0.codec.frame_rate">15360</property>
  <property name="meta.media.0.codec.pix_fmt">yuv422p</property>
  <property name="meta.media.0.codec.sample_aspect_ratio">0</property>
  <property name="meta.media.0.codec.colorspace">709</property>
  <property name="meta.media.0.codec.name">dnxhd</property>
  <property name="meta.media.0.codec.long_name">VC3/DNxHD</property>
  <property name="meta.media.0.codec.bit_rate">45219840</property>
  <property name="meta.attr.0.stream.handler_name.markup">VideoHandler</property>
  <property name="meta.attr.major_brand.markup">qt  </property>
  <property name="meta.attr.minor_version.markup">512</property>
  <property name="meta.attr.compatible_brands.markup">qt  </property>
  <property name="meta.attr.encoder.markup">Lavf58.45.100</property>
  <property name="seekable">1</property>
  <property name="meta.media.sample_aspect_num">1</property>
  <property name="meta.media.sample_aspect_den">1</property>
  <property name="aspect_ratio">1</property>
  <property name="audio_index">-1</property>
  <property name="video_index">0</property>
  <property name="mute_on_pause">1</property>
  <property name="mlt_service">avformat-novalidate</property>
 </producer>
 <producer id="producer168" in="00:00:00.000" out="00:00:00.800">
  <property name="length">25</property>
  <property name="eof">pause</property>
  <property name="resource">/home/ryankelln/.cache/kdenlive/1622300596310/preview/40225.mov</property>
  <property name="meta.media.nb_streams">1</property>
  <property name="meta.media.0.stream.type">video</property>
  <property name="meta.media.0.stream.frame_rate">30</property>
  <property name="meta.media.0.stream.sample_aspect_ratio">1</property>
  <property name="meta.media.0.codec.width">1920</property>
  <property name="meta.media.0.codec.height">1080</property>
  <property name="meta.media.0.codec.rotate">0</property>
  <property name="meta.media.0.codec.frame_rate">15360</property>
  <property name="meta.media.0.codec.pix_fmt">yuv422p</property>
  <property name="meta.media.0.codec.sample_aspect_ratio">0</property>
  <property name="meta.media.0.codec.colorspace">709</property>
  <property name="meta.media.0.codec.name">dnxhd</property>
  <property name="meta.media.0.codec.long_name">VC3/DNxHD</property>
  <property name="meta.media.0.codec.bit_rate">45219840</property>
  <property name="meta.attr.0.stream.handler_name.markup">VideoHandler</property>
  <property name="meta.attr.major_brand.markup">qt  </property>
  <property name="meta.attr.minor_version.markup">512</property>
  <property name="meta.attr.compatible_brands.markup">qt  </property>
  <property name="meta.attr.encoder.markup">Lavf58.45.100</property>
  <property name="seekable">1</property>
  <property name="meta.media.sample_aspect_num">1</property>
  <property name="meta.media.sample_aspect_den">1</property>
  <property name="aspect_ratio">1</property>
  <property name="audio_index">-1</property>
  <property name="video_index">0</property>
  <property name="mute_on_pause">1</property>
  <property name="mlt_service">avformat-novalidate</property>
 </producer>
 <playlist id="timeline_preview">
  <blank length="00:22:13.333"/>
  <entry producer="producer157" in="00:00:00.000" out="00:00:00.800"/>
  <entry producer="producer158" in="00:00:00.000" out="00:00:00.800"/>
  <entry producer="producer160" in="00:00:00.000" out="00:00:00.800"/>
  <entry producer="producer162" in="00:00:00.000" out="00:00:00.800"/>
  <entry producer="producer163" in="00:00:00.000" out="00:00:00.800"/>
  <entry producer="producer164" in="00:00:00.000" out="00:00:00.800"/>
  <entry producer="producer165" in="00:00:00.000" out="00:00:00.800"/>
  <entry producer="producer166" in="00:00:00.000" out="00:00:00.800"/>
  <entry producer="producer167" in="00:00:00.000" out="00:00:00.800"/>
  <entry producer="producer168" in="00:00:00.000" out="00:00:00.800"/>
 </playlist>
 <tractor id="tractor17" global_feed="1" in="00:00:00.000" out="00:39:37.733">
  <track producer="black_track"/>
  <track producer="tractor0"/>
  <track producer="tractor1"/>
  <track producer="tractor2"/>
  <track producer="tractor3"/>
  <track producer="tractor4"/>
  <track producer="tractor5"/>
  <track producer="tractor6"/>
  <track producer="tractor7"/>
  <track producer="tractor8"/>
  <track producer="tractor9"/>
  <track producer="tractor10"/>
  <track producer="tractor11"/>
  <track producer="tractor12"/>
  <track producer="tractor13"/>
  <track producer="tractor14"/>
  <track producer="tractor15"/>
  <track producer="tractor16"/>
  <track hide="both" producer="timeline_preview"/>
  <transition id="transition0" in="00:03:02.500" out="00:03:02.533">
   <property name="a_track">15</property>
   <property name="b_track">16</property>
   <property name="start">0/0:100%x100%</property>
   <property name="factory">loader</property>
   <property name="aligned">0</property>
   <property name="progressive">1</property>
   <property name="mlt_service">composite</property>
   <property name="kdenlive_id">wipe</property>
   <property name="softness">0</property>
   <property name="luma"/>
   <property name="luma_invert">0</property>
   <property name="geometry">0%/0%:100%x100%:0;-1=0%/0%:100%x100%:100</property>
   <property name="fill">1</property>
  </transition>
  <transition id="transition1" in="00:04:08.433" out="00:04:09.200">
   <property name="a_track">10</property>
   <property name="b_track">14</property>
   <property name="start">0/0:100%x100%</property>
   <property name="factory">loader</property>
   <property name="aligned">0</property>
   <property name="progressive">1</property>
   <property name="mlt_service">composite</property>
   <property name="kdenlive_id">wipe</property>
   <property name="force_track">1</property>
   <property name="softness">0</property>
   <property name="luma"/>
   <property name="luma_invert">0</property>
   <property name="geometry">0%/0%:100%x100%:100;-1=0%/0%:100%x100%:0</property>
   <property name="fill">1</property>
  </transition>
  <transition id="transition2" in="00:04:08.433" out="00:04:09.200">
   <property name="a_track">10</property>
   <property name="b_track">15</property>
   <property name="start">0/0:100%x100%</property>
   <property name="factory">loader</property>
   <property name="aligned">0</property>
   <property name="progressive">1</property>
   <property name="mlt_service">composite</property>
   <property name="kdenlive_id">wipe</property>
   <property name="force_track">1</property>
   <property name="softness">0</property>
   <property name="luma"/>
   <property name="luma_invert">0</property>
   <property name="geometry">0%/0%:100%x100%:100;-1=0%/0%:100%x100%:0</property>
   <property name="fill">1</property>
  </transition>
  <transition id="transition3" in="00:04:24.000" out="00:04:24.833">
   <property name="a_track">7</property>
   <property name="b_track">8</property>
   <property name="start">0/0:100%x100%</property>
   <property name="factory">loader</property>
   <property name="aligned">0</property>
   <property name="progressive">1</property>
   <property name="mlt_service">composite</property>
   <property name="kdenlive_id">wipe</property>
   <property name="softness">0</property>
   <property name="luma"/>
   <property name="luma_invert">0</property>
   <property name="geometry">0%/0%:100%x100%:0;-1=0%/0%:100%x100%:100</property>
   <property name="fill">1</property>
  </transition>
  <transition id="transition4" in="00:05:36.667" out="00:06:01.033">
   <property name="a_track">7</property>
   <property name="b_track">10</property>
   <property name="version">0.9</property>
   <property name="mlt_service">frei0r.cairoblend</property>
   <property name="kdenlive_id">frei0r.cairoblend</property>
   <property name="force_track">1</property>
   <property name="0">00:00:00.000=0.68;00:00:19.233=0.68;00:00:20.367=0.91;00:00:22.700=0.91;00:00:24.367=1</property>
   <property name="1">hslluminosity</property>
  </transition>
  <transition id="transition5" in="00:08:01.933" out="00:08:05.467">
   <property name="a_track">4</property>
   <property name="b_track">5</property>
   <property name="start">0/0:100%x100%</property>
   <property name="factory">loader</property>
   <property name="aligned">0</property>
   <property name="progressive">1</property>
   <property name="mlt_service">composite</property>
   <property name="kdenlive_id">wipe</property>
   <property name="softness">0</property>
   <property name="luma"/>
   <property name="luma_invert">0</property>
   <property name="geometry">0%/0%:100%x100%:100;-1=0%/0%:100%x100%:0</property>
   <property name="fill">1</property>
  </transition>
  <transition id="transition6" in="00:04:14.000" out="00:04:16.000">
   <property name="a_track">3</property>
   <property name="b_track">8</property>
   <property name="start">0/0:100%x100%</property>
   <property name="factory">loader</property>
   <property name="aligned">0</property>
   <property name="progressive">1</property>
   <property name="mlt_service">composite</property>
   <property name="kdenlive_id">wipe</property>
   <property name="force_track">1</property>
   <property name="softness">0</property>
   <property name="luma"/>
   <property name="luma_invert">0</property>
   <property name="geometry">0%/0%:100%x100%:100;-1=0%/0%:100%x100%:0</property>
   <property name="fill">1</property>
  </transition>
  <transition id="transition7" in="00:04:05.500" out="00:04:24.833">
   <property name="a_track">3</property>
   <property name="b_track">10</property>
   <property name="version">0.9</property>
   <property name="mlt_service">frei0r.cairoblend</property>
   <property name="kdenlive_id">frei0r.cairoblend</property>
   <property name="force_track">1</property>
   <property name="0">00:00:00.000=100</property>
   <property name="1">hslluminosity</property>
  </transition>
  <transition id="transition8" in="00:01:15.233" out="00:03:13.567">
   <property name="a_track">3</property>
   <property name="b_track">12</property>
   <property name="version">0.9</property>
   <property name="mlt_service">frei0r.cairoblend</property>
   <property name="kdenlive_id">frei0r.cairoblend</property>
   <property name="force_track">1</property>
   <property name="0">00:00:00.000=100</property>
   <property name="1">hslluminosity</property>
  </transition>
  <transition id="transition9" in="00:03:02.567" out="00:04:09.133">
   <property name="a_track">3</property>
   <property name="b_track">16</property>
   <property name="version">0.9</property>
   <property name="mlt_service">frei0r.cairoblend</property>
   <property name="kdenlive_id">frei0r.cairoblend</property>
   <property name="force_track">1</property>
   <property name="0">00:00:00.000=100</property>
   <property name="1">hslluminosity</property>
  </transition>
  <transition id="transition10">
   <property name="a_track">0</property>
   <property name="b_track">1</property>
   <property name="mlt_service">mix</property>
   <property name="kdenlive_id">mix</property>
   <property name="internal_added">237</property>
   <property name="always_active">1</property>
   <property name="accepts_blanks">1</property>
   <property name="sum">1</property>
  </transition>
  <transition id="transition11">
   <property name="a_track">0</property>
   <property name="b_track">2</property>
   <property name="mlt_service">mix</property>
   <property name="kdenlive_id">mix</property>
   <property name="internal_added">237</property>
   <property name="always_active">1</property>
   <property name="accepts_blanks">1</property>
   <property name="sum">1</property>
  </transition>
  <transition id="transition12">
   <property name="a_track">0</property>
   <property name="b_track">3</property>
   <property name="compositing">0</property>
   <property name="distort">0</property>
   <property name="rotate_center">0</property>
   <property name="mlt_service">qtblend</property>
   <property name="kdenlive_id">qtblend</property>
   <property name="internal_added">237</property>
   <property name="always_active">1</property>
  </transition>
  <transition id="transition13">
   <property name="a_track">0</property>
   <property name="b_track">4</property>
   <property name="compositing">0</property>
   <property name="distort">0</property>
   <property name="rotate_center">0</property>
   <property name="mlt_service">qtblend</property>
   <property name="kdenlive_id">qtblend</property>
   <property name="internal_added">237</property>
   <property name="always_active">1</property>
  </transition>
  <transition id="transition14">
   <property name="a_track">0</property>
   <property name="b_track">5</property>
   <property name="compositing">0</property>
   <property name="distort">0</property>
   <property name="rotate_center">0</property>
   <property name="mlt_service">qtblend</property>
   <property name="kdenlive_id">qtblend</property>
   <property name="internal_added">237</property>
   <property name="always_active">1</property>
  </transition>
  <transition id="transition15">
   <property name="a_track">0</property>
   <property name="b_track">6</property>
   <property name="compositing">0</property>
   <property name="distort">0</property>
   <property name="rotate_center">0</property>
   <property name="mlt_service">qtblend</property>
   <property name="kdenlive_id">qtblend</property>
   <property name="internal_added">237</property>
   <property name="always_active">1</property>
  </transition>
  <transition id="transition16">
   <property name="a_track">0</property>
   <property name="b_track">7</property>
   <property name="compositing">0</property>
   <property name="distort">0</property>
   <property name="rotate_center">0</property>
   <property name="mlt_service">qtblend</property>
   <property name="kdenlive_id">qtblend</property>
   <property name="internal_added">237</property>
   <property name="always_active">1</property>
  </transition>
  <transition id="transition17">
   <property name="a_track">0</property>
   <property name="b_track">8</property>
   <property name="compositing">0</property>
   <property name="distort">0</property>
   <property name="rotate_center">0</property>
   <property name="mlt_service">qtblend</property>
   <property name="kdenlive_id">qtblend</property>
   <property name="internal_added">237</property>
   <property name="always_active">1</property>
  </transition>
  <transition id="transition18">
   <property name="a_track">0</property>
   <property name="b_track">9</property>
   <property name="compositing">0</property>
   <property name="distort">0</property>
   <property name="rotate_center">0</property>
   <property name="mlt_service">qtblend</property>
   <property name="kdenlive_id">qtblend</property>
   <property name="internal_added">237</property>
   <property name="always_active">1</property>
  </transition>
  <transition id="transition19">
   <property name="a_track">0</property>
   <property name="b_track">10</property>
   <property name="compositing">0</property>
   <property name="distort">0</property>
   <property name="rotate_center">0</property>
   <property name="mlt_service">qtblend</property>
   <property name="kdenlive_id">qtblend</property>
   <property name="internal_added">237</property>
   <property name="always_active">1</property>
  </transition>
  <transition id="transition20">
   <property name="a_track">0</property>
   <property name="b_track">11</property>
   <property name="compositing">0</property>
   <property name="distort">0</property>
   <property name="rotate_center">0</property>
   <property name="mlt_service">qtblend</property>
   <property name="kdenlive_id">qtblend</property>
   <property name="internal_added">237</property>
   <property name="always_active">1</property>
  </transition>
  <transition id="transition21">
   <property name="a_track">0</property>
   <property name="b_track">12</property>
   <property name="compositing">0</property>
   <property name="distort">0</property>
   <property name="rotate_center">0</property>
   <property name="mlt_service">qtblend</property>
   <property name="kdenlive_id">qtblend</property>
   <property name="internal_added">237</property>
   <property name="always_active">1</property>
  </transition>
  <transition id="transition22">
   <property name="a_track">0</property>
   <property name="b_track">13</property>
   <property name="compositing">0</property>
   <property name="distort">0</property>
   <property name="rotate_center">0</property>
   <property name="mlt_service">qtblend</property>
   <property name="kdenlive_id">qtblend</property>
   <property name="internal_added">237</property>
   <property name="always_active">1</property>
  </transition>
  <transition id="transition23">
   <property name="a_track">0</property>
   <property name="b_track">14</property>
   <property name="compositing">0</property>
   <property name="distort">0</property>
   <property name="rotate_center">0</property>
   <property name="mlt_service">qtblend</property>
   <property name="kdenlive_id">qtblend</property>
   <property name="internal_added">237</property>
   <property name="always_active">1</property>
  </transition>
  <transition id="transition24">
   <property name="a_track">0</property>
   <property name="b_track">15</property>
   <property name="compositing">0</property>
   <property name="distort">0</property>
   <property name="rotate_center">0</property>
   <property name="mlt_service">qtblend</property>
   <property name="kdenlive_id">qtblend</property>
   <property name="internal_added">237</property>
   <property name="always_active">1</property>
  </transition>
  <transition id="transition25">
   <property name="a_track">0</property>
   <property name="b_track">16</property>
   <property name="compositing">0</property>
   <property name="distort">0</property>
   <property name="rotate_center">0</property>
   <property name="mlt_service">qtblend</property>
   <property name="kdenlive_id">qtblend</property>
   <property name="internal_added">237</property>
   <property name="always_active">1</property>
  </transition>
  <transition id="transition26">
   <property name="a_track">0</property>
   <property name="b_track">17</property>
   <property name="compositing">0</property>
   <property name="distort">0</property>
   <property name="rotate_center">0</property>
   <property name="mlt_service">qtblend</property>
   <property name="kdenlive_id">qtblend</property>
   <property name="internal_added">237</property>
   <property name="always_active">1</property>
  </transition>
  <filter id="filter243">
   <property name="window">75</property>
   <property name="max_gain">20dB</property>
   <property name="level">0</property>
   <property name="mlt_service">volume</property>
   <property name="internal_added">237</property>
  </filter>
  <filter id="filter244">
   <property name="channel">-1</property>
   <property name="mlt_service">panner</property>
   <property name="internal_added">237</property>
   <property name="start">0.5</property>
  </filter>
  <filter id="filter177">
   <property name="iec_scale">0</property>
   <property name="mlt_service">audiolevel</property>
   <property name="disable">1</property>
  </filter>
 </tractor>
</mlt>
