<?xml version='1.0' encoding='utf-8'?>
<mlt LC_NUMERIC="C" producer="main_bin" version="6.26.1" root="/home/ryankelln/Documents/Projects/Active/Sound_Escapes/Sarah/final">
 <profile frame_rate_num="30" sample_aspect_num="1" display_aspect_den="9" colorspace="709" progressive="1" description="HD 1080p 30 fps" display_aspect_num="16" frame_rate_den="1" width="1920" height="1080" sample_aspect_den="1"/>
 <producer id="producer20" in="00:00:00.000" out="00:04:52.800">
  <property name="length">8785</property>
  <property name="eof">pause</property>
  <property name="resource">content/musicians/2021-06-02_162118_Sarah_kit+handheld_sarah-take3.mp4</property>
  <property name="audio_index">1</property>
  <property name="video_index">0</property>
  <property name="mute_on_pause">0</property>
  <property name="mlt_service">avformat-novalidate</property>
  <property name="meta.media.nb_streams">2</property>
  <property name="meta.media.0.stream.type">video</property>
  <property name="meta.media.0.stream.frame_rate">59.9401</property>
  <property name="meta.media.0.stream.sample_aspect_ratio">1</property>
  <property name="meta.media.0.codec.width">1920</property>
  <property name="meta.media.0.codec.height">1080</property>
  <property name="meta.media.0.codec.rotate">0</property>
  <property name="meta.media.0.codec.frame_rate">59.9401</property>
  <property name="meta.media.0.codec.pix_fmt">yuv420p</property>
  <property name="meta.media.0.codec.sample_aspect_ratio">1</property>
  <property name="meta.media.0.codec.colorspace">709</property>
  <property name="meta.media.0.codec.name">h264</property>
  <property name="meta.media.0.codec.long_name">H.264 / AVC / MPEG-4 AVC / MPEG-4 part 10</property>
  <property name="meta.media.0.codec.bit_rate">24946919</property>
  <property name="meta.attr.0.stream.handler_name.markup">VideoHandler</property>
  <property name="meta.media.1.stream.type">audio</property>
  <property name="meta.media.1.codec.sample_fmt">fltp</property>
  <property name="meta.media.1.codec.sample_rate">48000</property>
  <property name="meta.media.1.codec.channels">6</property>
  <property name="meta.media.1.codec.name">ac3</property>
  <property name="meta.media.1.codec.long_name">ATSC A/52A (AC-3)</property>
  <property name="meta.media.1.codec.bit_rate">448000</property>
  <property name="meta.attr.1.stream.handler_name.markup">SoundHandler</property>
  <property name="meta.attr.major_brand.markup">isom</property>
  <property name="meta.attr.minor_version.markup">512</property>
  <property name="meta.attr.compatible_brands.markup">isomiso2avc1mp41</property>
  <property name="meta.attr.encoder.markup">Lavf58.45.100</property>
  <property name="seekable">1</property>
  <property name="meta.media.sample_aspect_num">1</property>
  <property name="meta.media.sample_aspect_den">1</property>
  <property name="aspect_ratio">1</property>
  <property name="kdenlive:clipname"/>
  <property name="kdenlive:folderid">22</property>
  <property name="meta.media.frame_rate_num">1579770000</property>
  <property name="meta.media.frame_rate_den">26355829</property>
  <property name="meta.media.colorspace">709</property>
  <property name="meta.media.color_trc">2</property>
  <property name="meta.media.width">1920</property>
  <property name="meta.media.height">1080</property>
  <property name="meta.media.color_range">mpeg</property>
  <property name="kdenlive:id">4</property>
  <property name="kdenlive:file_size">929894063</property>
  <property name="kdenlive:file_hash">e273f21fe0e5f0a842788ae33423a32a</property>
  <property name="kdenlive:audio_max">4</property>
  <property name="meta.media.top_field_first">0</property>
  <property name="meta.media.progressive">1</property>
  <property name="global_feed">1</property>
 </producer>
 <producer id="producer19" in="00:00:00.000" out="00:04:48.267">
  <property name="length">8649</property>
  <property name="eof">pause</property>
  <property name="resource">content/musicians/2021-06-02_Caleb+Chris_electric+synth+handheld+portrait_sarah_MVI_6003-take3_from_bass_solo.mp4</property>
  <property name="audio_index">-1</property>
  <property name="video_index">0</property>
  <property name="mute_on_pause">0</property>
  <property name="mlt_service">avformat-novalidate</property>
  <property name="meta.media.nb_streams">1</property>
  <property name="meta.media.0.stream.type">video</property>
  <property name="meta.media.0.stream.frame_rate">29.97</property>
  <property name="meta.media.0.stream.sample_aspect_ratio">0</property>
  <property name="meta.media.0.codec.width">1920</property>
  <property name="meta.media.0.codec.height">1080</property>
  <property name="meta.media.0.codec.rotate">90</property>
  <property name="meta.media.0.codec.frame_rate">30000</property>
  <property name="meta.media.0.codec.pix_fmt">yuvj420p</property>
  <property name="meta.media.0.codec.sample_aspect_ratio">0</property>
  <property name="meta.media.0.codec.colorspace">601</property>
  <property name="meta.media.0.codec.color_trc">1</property>
  <property name="meta.media.0.codec.name">h264</property>
  <property name="meta.media.0.codec.long_name">H.264 / AVC / MPEG-4 AVC / MPEG-4 part 10</property>
  <property name="meta.media.0.codec.bit_rate">45476678</property>
  <property name="meta.attr.0.stream.rotate.markup">90</property>
  <property name="meta.attr.0.stream.creation_time.markup">2021-06-02T16:15:36.000000Z</property>
  <property name="meta.attr.0.stream.language.markup">eng</property>
  <property name="meta.attr.0.stream.handler_name.markup">VideoHandler</property>
  <property name="meta.attr.major_brand.markup">isom</property>
  <property name="meta.attr.minor_version.markup">512</property>
  <property name="meta.attr.compatible_brands.markup">isomiso2avc1mp41</property>
  <property name="meta.attr.creation_time.markup">2021-06-02T16:15:36.000000Z</property>
  <property name="meta.attr.encoder.markup">Lavf58.45.100</property>
  <property name="seekable">1</property>
  <property name="meta.media.sample_aspect_num">1</property>
  <property name="meta.media.sample_aspect_den">1</property>
  <property name="aspect_ratio">1</property>
  <property name="kdenlive:clipname"/>
  <property name="kdenlive:folderid">22</property>
  <property name="meta.media.frame_rate_num">30000</property>
  <property name="meta.media.frame_rate_den">1001</property>
  <property name="meta.media.colorspace">601</property>
  <property name="meta.media.color_trc">1</property>
  <property name="meta.media.width">1080</property>
  <property name="meta.media.height">1920</property>
  <property name="meta.media.color_range">full</property>
  <property name="kdenlive:id">5</property>
  <property name="kdenlive:file_size">1638843122</property>
  <property name="kdenlive:file_hash">5370f545878c3b9e987605c323045aa8</property>
  <property name="meta.media.top_field_first">0</property>
  <property name="meta.media.progressive">1</property>
  <property name="kdenlive:zone_in">2403</property>
  <property name="kdenlive:zone_out">8479</property>
  <property name="kdenlive:clipzones">[
    {
        "in": 650,
        "name": "Caleb-portrait-handheld",
        "out": 1845
    },
    {
        "in": 2403,
        "name": "Chris-portrait-handheld",
        "out": 8479
    }
]
</property>
  <property name="global_feed">1</property>
 </producer>
 <producer id="producer23" in="00:00:00.000" out="00:03:25.633">
  <property name="length">6170</property>
  <property name="eof">pause</property>
  <property name="resource">content/musicians/2021-06-02_Sarah_kit_sarah_00049-take2.mp4</property>
  <property name="audio_index">1</property>
  <property name="video_index">0</property>
  <property name="mute_on_pause">0</property>
  <property name="mlt_service">avformat-novalidate</property>
  <property name="meta.media.nb_streams">2</property>
  <property name="meta.media.0.stream.type">video</property>
  <property name="meta.media.0.stream.frame_rate">59.9401</property>
  <property name="meta.media.0.stream.sample_aspect_ratio">1.33333</property>
  <property name="meta.media.0.codec.width">1440</property>
  <property name="meta.media.0.codec.height">1080</property>
  <property name="meta.media.0.codec.rotate">0</property>
  <property name="meta.media.0.codec.frame_rate">29.97</property>
  <property name="meta.media.0.codec.pix_fmt">yuv420p</property>
  <property name="meta.media.0.codec.sample_aspect_ratio">1.33333</property>
  <property name="meta.media.0.codec.colorspace">709</property>
  <property name="meta.media.0.codec.name">h264</property>
  <property name="meta.media.0.codec.long_name">H.264 / AVC / MPEG-4 AVC / MPEG-4 part 10</property>
  <property name="meta.media.0.codec.bit_rate">6688963</property>
  <property name="meta.attr.0.stream.handler_name.markup">VideoHandler</property>
  <property name="meta.media.1.stream.type">audio</property>
  <property name="meta.media.1.codec.sample_fmt">fltp</property>
  <property name="meta.media.1.codec.sample_rate">48000</property>
  <property name="meta.media.1.codec.channels">2</property>
  <property name="meta.media.1.codec.name">ac3</property>
  <property name="meta.media.1.codec.long_name">ATSC A/52A (AC-3)</property>
  <property name="meta.media.1.codec.bit_rate">256000</property>
  <property name="meta.attr.1.stream.handler_name.markup">SoundHandler</property>
  <property name="meta.attr.major_brand.markup">isom</property>
  <property name="meta.attr.minor_version.markup">512</property>
  <property name="meta.attr.compatible_brands.markup">isomiso2avc1mp41</property>
  <property name="meta.attr.encoder.markup">Lavf58.45.100</property>
  <property name="seekable">1</property>
  <property name="meta.media.sample_aspect_num">4</property>
  <property name="meta.media.sample_aspect_den">3</property>
  <property name="aspect_ratio">1.33333</property>
  <property name="kdenlive:clipname"/>
  <property name="kdenlive:folderid">22</property>
  <property name="meta.media.frame_rate_num">1109610000</property>
  <property name="meta.media.frame_rate_den">18511993</property>
  <property name="meta.media.colorspace">709</property>
  <property name="meta.media.color_trc">2</property>
  <property name="meta.media.width">1440</property>
  <property name="meta.media.height">1080</property>
  <property name="meta.media.color_range">mpeg</property>
  <property name="kdenlive:id">8</property>
  <property name="kdenlive:file_size">178767904</property>
  <property name="kdenlive:file_hash">92796865885541665f8f7a00441c12c2</property>
  <property name="kdenlive:audio_max">1</property>
  <property name="meta.media.top_field_first">1</property>
  <property name="meta.media.progressive">0</property>
  <property name="global_feed">1</property>
  <property name="kdenlive:activeeffect">0</property>
  <filter id="filter7">
   <property name="version">0.6</property>
   <property name="mlt_service">frei0r.select0r</property>
   <property name="kdenlive_id">frei0r.select0r</property>
   <property name="Color to select">0x3e9159ff</property>
   <property name="Invert selection">1</property>
   <property name="Selection subspace">1</property>
   <property name="Subspace shape">0</property>
   <property name="Edge mode">0.9</property>
   <property name="Delta R / A / Hue">0=0.016</property>
   <property name="Delta G / B / Chroma">0=0.189</property>
   <property name="Delta B / I / I">0=0.385</property>
   <property name="Slope">0=0.149</property>
   <property name="Operation">0.5</property>
   <property name="kdenlive:collapsed">0</property>
  </filter>
 </producer>
 <producer id="producer25" in="00:00:00.000" out="00:05:23.967">
  <property name="length">9720</property>
  <property name="eof">pause</property>
  <property name="resource">content/musicians/2021-06-02_Sarah_kit_sarah_00049-take3_from_bass_solo.mp4</property>
  <property name="audio_index">1</property>
  <property name="video_index">0</property>
  <property name="mute_on_pause">0</property>
  <property name="mlt_service">avformat-novalidate</property>
  <property name="meta.media.nb_streams">2</property>
  <property name="meta.media.0.stream.type">video</property>
  <property name="meta.media.0.stream.frame_rate">59.9401</property>
  <property name="meta.media.0.stream.sample_aspect_ratio">1.33333</property>
  <property name="meta.media.0.codec.width">1440</property>
  <property name="meta.media.0.codec.height">1080</property>
  <property name="meta.media.0.codec.rotate">0</property>
  <property name="meta.media.0.codec.frame_rate">29.97</property>
  <property name="meta.media.0.codec.pix_fmt">yuv420p</property>
  <property name="meta.media.0.codec.sample_aspect_ratio">1.33333</property>
  <property name="meta.media.0.codec.colorspace">709</property>
  <property name="meta.media.0.codec.name">h264</property>
  <property name="meta.media.0.codec.long_name">H.264 / AVC / MPEG-4 AVC / MPEG-4 part 10</property>
  <property name="meta.media.0.codec.bit_rate">6689533</property>
  <property name="meta.attr.0.stream.handler_name.markup">VideoHandler</property>
  <property name="meta.media.1.stream.type">audio</property>
  <property name="meta.media.1.codec.sample_fmt">fltp</property>
  <property name="meta.media.1.codec.sample_rate">48000</property>
  <property name="meta.media.1.codec.channels">2</property>
  <property name="meta.media.1.codec.name">ac3</property>
  <property name="meta.media.1.codec.long_name">ATSC A/52A (AC-3)</property>
  <property name="meta.media.1.codec.bit_rate">256000</property>
  <property name="meta.attr.1.stream.handler_name.markup">SoundHandler</property>
  <property name="meta.attr.major_brand.markup">isom</property>
  <property name="meta.attr.minor_version.markup">512</property>
  <property name="meta.attr.compatible_brands.markup">isomiso2avc1mp41</property>
  <property name="meta.attr.encoder.markup">Lavf58.45.100</property>
  <property name="seekable">1</property>
  <property name="meta.media.sample_aspect_num">4</property>
  <property name="meta.media.sample_aspect_den">3</property>
  <property name="aspect_ratio">1.33333</property>
  <property name="kdenlive:clipname"/>
  <property name="kdenlive:folderid">22</property>
  <property name="meta.media.frame_rate_num">60000</property>
  <property name="meta.media.frame_rate_den">1001</property>
  <property name="meta.media.colorspace">709</property>
  <property name="meta.media.color_trc">2</property>
  <property name="meta.media.width">1440</property>
  <property name="meta.media.height">1080</property>
  <property name="meta.media.color_range">mpeg</property>
  <property name="kdenlive:id">9</property>
  <property name="kdenlive:file_size">281647823</property>
  <property name="kdenlive:file_hash">6e134cdb05b535a713e603c3a0d812f5</property>
  <property name="kdenlive:audio_max">1</property>
  <property name="meta.media.top_field_first">1</property>
  <property name="meta.media.progressive">0</property>
  <property name="global_feed">1</property>
  <property name="kdenlive:activeeffect">4</property>
  <filter id="filter8">
   <property name="version">0.1</property>
   <property name="mlt_service">frei0r.hqdn3d</property>
   <property name="kdenlive_id">frei0r.hqdn3d</property>
   <property name="Spatial">00:00:00.000=0.025</property>
   <property name="Temporal">00:00:00.000=0.01</property>
   <property name="kdenlive:collapsed">0</property>
  </filter>
  <filter id="filter9">
   <property name="version">0.6</property>
   <property name="mlt_service">frei0r.select0r</property>
   <property name="kdenlive_id">frei0r.select0r</property>
   <property name="Color to select">0x43a153ff</property>
   <property name="Invert selection">1</property>
   <property name="Selection subspace">1</property>
   <property name="Subspace shape">0</property>
   <property name="Edge mode">0.9</property>
   <property name="Delta R / A / Hue">00:00:00.000=0.03</property>
   <property name="Delta G / B / Chroma">00:00:00.000=0.14</property>
   <property name="Delta B / I / I">00:00:00.000=0.4</property>
   <property name="Slope">00:00:00.000=0.31</property>
   <property name="Operation">0.5</property>
   <property name="kdenlive:collapsed">0</property>
  </filter>
  <filter id="filter10">
   <property name="version">0.4</property>
   <property name="mlt_service">frei0r.alpha0ps</property>
   <property name="kdenlive_id">frei0r.alpha0ps</property>
   <property name="Display">0</property>
   <property name="Display input alpha">0</property>
   <property name="Operation">1</property>
   <property name="Threshold">00:00:00.000=0.5</property>
   <property name="Shrink/Grow/Blur amount">00:00:00.000=0.1</property>
   <property name="Invert">0</property>
   <property name="kdenlive:collapsed">0</property>
  </filter>
  <filter id="filter11">
   <property name="version">0.3</property>
   <property name="mlt_service">frei0r.keyspillm0pup</property>
   <property name="kdenlive_id">frei0r.keyspillm0pup</property>
   <property name="Key color">0x43a153ff</property>
   <property name="Target color">0xC87F65ff</property>
   <property name="Mask type">0</property>
   <property name="Tolerance">00:00:00.000=0.136</property>
   <property name="Slope">00:00:00.000=0.162</property>
   <property name="Hue gate">00:00:00.000=0.113</property>
   <property name="Saturation threshold">00:00:00.000=0.08</property>
   <property name="Operation 1">1</property>
   <property name="Amount 1">00:00:00.000=0.618</property>
   <property name="Operation 2">4</property>
   <property name="Amount 2">00:00:00.000=0.42</property>
   <property name="Show mask">0</property>
   <property name="Mask to Alpha">0</property>
   <property name="kdenlive:collapsed">0</property>
  </filter>
  <filter id="filter12">
   <property name="mode">alpha</property>
   <property name="alpha_operation">sub</property>
   <property name="invert">0</property>
   <property name="feather">12</property>
   <property name="feather_passes">1</property>
   <property name="mlt_service">rotoscoping</property>
   <property name="kdenlive_id">rotoscoping</property>
   <property name="spline">{
    "0000": [
        [
            [
                0.06268343815513626,
                -0.06865671641791045
            ],
            [
                0.10796645702306079,
                -0.048507462686567165
            ],
            [
                0.12557651991614255,
                0.06417910447761195
            ]
        ],
        [
            [
                0.17840670859538785,
                0.40223880597014927
            ],
            [
                0.1960167714884696,
                0.5149253731343284
            ],
            [
                0.18888888888888886,
                0.5208955223880597
            ]
        ],
        [
            [
                0.16750524109014675,
                0.5388059701492538
            ],
            [
                0.16037735849056603,
                0.5447761194029851
            ],
            [
                0.15450733752620543,
                0.5276119402985074
            ]
        ],
        [
            [
                0.13689727463312368,
                0.4761194029850746
            ],
            [
                0.13102725366876308,
                0.45895522388059706
            ],
            [
                0.12075471698113206,
                0.4593283582089553
            ]
        ],
        [
            [
                0.089937106918239,
                0.46044776119402986
            ],
            [
                0.07966457023060797,
                0.4608208955223881
            ],
            [
                0.07735849056603773,
                0.46791044776119406
            ]
        ],
        [
            [
                0.07044025157232704,
                0.4891791044776119
            ],
            [
                0.06813417190775681,
                0.49626865671641796
            ],
            [
                0.06394129979035638,
                0.4970149253731344
            ]
        ],
        [
            [
                0.05136268343815513,
                0.49925373134328355
            ],
            [
                0.04716981132075471,
                0.5
            ],
            [
                0.04465408805031446,
                0.4944029850746269
            ]
        ],
        [
            [
                0.03710691823899371,
                0.4776119402985075
            ],
            [
                0.03459119496855346,
                0.47201492537313433
            ],
            [
                0.011111111111111108,
                0.47985074626865676
            ]
        ],
        [
            [
                -0.059329140461215936,
                0.5033582089552239
            ],
            [
                -0.08280922431865828,
                0.5111940298507462
            ],
            [
                -0.09412997903563941,
                0.4425373134328358
            ]
        ],
        [
            [
                -0.1280922431865828,
                0.23656716417910445
            ],
            [
                -0.13941299790356393,
                0.16791044776119404
            ],
            [
                -0.13522012578616352,
                0.1044776119402985
            ]
        ],
        [
            [
                -0.12264150943396226,
                -0.08582089552238806
            ],
            [
                -0.11844863731656184,
                -0.14925373134328357
            ],
            [
                -0.07316561844863731,
                -0.1291044776119403
            ]
        ]
    ]
}
</property>
   <property name="kdenlive:collapsed">0</property>
  </filter>
 </producer>
 <producer id="producer42" in="00:00:00.000" out="00:00:44.000">
  <property name="length">1321</property>
  <property name="eof">pause</property>
  <property name="resource">content/hot_bod_065000_63ca3a33_trusses.mp4</property>
  <property name="audio_index">1</property>
  <property name="video_index">0</property>
  <property name="mute_on_pause">0</property>
  <property name="mlt_service">avformat-novalidate</property>
  <property name="seekable">1</property>
  <property name="aspect_ratio">1</property>
  <property name="kdenlive:clipname">hot_bod_065000_63ca3a33_trusses.mp4</property>
  <property name="kdenlive:folderid">34</property>
  <property name="kdenlive:id">11</property>
  <property name="kdenlive:file_size">5449983</property>
  <property name="kdenlive:audio_max">5</property>
  <property name="kdenlive:active_streams">-1;1</property>
  <property name="global_feed">1</property>
  <property name="meta.media.nb_streams">2</property>
  <property name="meta.media.0.stream.type">video</property>
  <property name="meta.media.0.stream.frame_rate">30</property>
  <property name="meta.media.0.stream.sample_aspect_ratio">0</property>
  <property name="meta.media.0.codec.width">512</property>
  <property name="meta.media.0.codec.height">512</property>
  <property name="meta.media.0.codec.rotate">0</property>
  <property name="meta.media.0.codec.frame_rate">30</property>
  <property name="meta.media.0.codec.pix_fmt">yuv420p</property>
  <property name="meta.media.0.codec.sample_aspect_ratio">0</property>
  <property name="meta.media.0.codec.colorspace">601</property>
  <property name="meta.media.0.codec.name">h264</property>
  <property name="meta.media.0.codec.long_name">H.264 / AVC / MPEG-4 AVC / MPEG-4 part 10</property>
  <property name="meta.media.0.codec.bit_rate">645136</property>
  <property name="meta.attr.0.stream.handler_name.markup">VideoHandler</property>
  <property name="meta.media.1.stream.type">audio</property>
  <property name="meta.media.1.codec.sample_fmt">fltp</property>
  <property name="meta.media.1.codec.sample_rate">48000</property>
  <property name="meta.media.1.codec.channels">2</property>
  <property name="meta.media.1.codec.name">aac</property>
  <property name="meta.media.1.codec.long_name">AAC (Advanced Audio Coding)</property>
  <property name="meta.media.1.codec.bit_rate">336810</property>
  <property name="meta.attr.1.stream.handler_name.markup">SoundHandler</property>
  <property name="meta.attr.major_brand.markup">isom</property>
  <property name="meta.attr.minor_version.markup">512</property>
  <property name="meta.attr.compatible_brands.markup">isomiso2avc1mp41</property>
  <property name="meta.attr.encoder.markup">Lavf58.29.100</property>
  <property name="meta.media.sample_aspect_num">1</property>
  <property name="meta.media.sample_aspect_den">1</property>
  <property name="meta.media.frame_rate_num">30</property>
  <property name="meta.media.frame_rate_den">1</property>
  <property name="meta.media.colorspace">601</property>
  <property name="meta.media.color_trc">2</property>
  <property name="meta.media.width">512</property>
  <property name="meta.media.height">512</property>
  <property name="meta.media.color_range">mpeg</property>
  <property name="kdenlive:file_hash">e7c63f197d2b1594f1626febc3887c4b</property>
  <property name="meta.media.top_field_first">0</property>
  <property name="meta.media.progressive">1</property>
 </producer>
 <producer id="producer33" in="00:00:00.000" out="00:01:14.000">
  <property name="length">2221</property>
  <property name="eof">pause</property>
  <property name="resource">content/hot_bod_180000_97c282c6_synth_solo.mp4</property>
  <property name="audio_index">1</property>
  <property name="video_index">0</property>
  <property name="mute_on_pause">0</property>
  <property name="mlt_service">avformat-novalidate</property>
  <property name="meta.media.nb_streams">2</property>
  <property name="meta.media.0.stream.type">video</property>
  <property name="meta.media.0.stream.frame_rate">30</property>
  <property name="meta.media.0.stream.sample_aspect_ratio">0</property>
  <property name="meta.media.0.codec.width">896</property>
  <property name="meta.media.0.codec.height">512</property>
  <property name="meta.media.0.codec.rotate">0</property>
  <property name="meta.media.0.codec.frame_rate">30</property>
  <property name="meta.media.0.codec.pix_fmt">yuv420p</property>
  <property name="meta.media.0.codec.sample_aspect_ratio">0</property>
  <property name="meta.media.0.codec.colorspace">601</property>
  <property name="meta.media.0.codec.name">h264</property>
  <property name="meta.media.0.codec.long_name">H.264 / AVC / MPEG-4 AVC / MPEG-4 part 10</property>
  <property name="meta.media.0.codec.bit_rate">3868149</property>
  <property name="meta.attr.0.stream.handler_name.markup">VideoHandler</property>
  <property name="meta.media.1.stream.type">audio</property>
  <property name="meta.media.1.codec.sample_fmt">fltp</property>
  <property name="meta.media.1.codec.sample_rate">48000</property>
  <property name="meta.media.1.codec.channels">2</property>
  <property name="meta.media.1.codec.name">aac</property>
  <property name="meta.media.1.codec.long_name">AAC (Advanced Audio Coding)</property>
  <property name="meta.media.1.codec.bit_rate">326658</property>
  <property name="meta.attr.1.stream.handler_name.markup">SoundHandler</property>
  <property name="meta.attr.major_brand.markup">isom</property>
  <property name="meta.attr.minor_version.markup">512</property>
  <property name="meta.attr.compatible_brands.markup">isomiso2avc1mp41</property>
  <property name="meta.attr.encoder.markup">Lavf58.29.100</property>
  <property name="seekable">1</property>
  <property name="meta.media.sample_aspect_num">1</property>
  <property name="meta.media.sample_aspect_den">1</property>
  <property name="aspect_ratio">1</property>
  <property name="kdenlive:clipname"/>
  <property name="kdenlive:folderid">34</property>
  <property name="meta.media.frame_rate_num">30</property>
  <property name="meta.media.frame_rate_den">1</property>
  <property name="meta.media.colorspace">601</property>
  <property name="meta.media.color_trc">2</property>
  <property name="meta.media.width">896</property>
  <property name="meta.media.height">512</property>
  <property name="meta.media.color_range">mpeg</property>
  <property name="kdenlive:id">12</property>
  <property name="kdenlive:file_size">38882228</property>
  <property name="kdenlive:file_hash">93f786cce468b11782704dc07333adce</property>
  <property name="kdenlive:audio_max">2</property>
  <property name="meta.media.top_field_first">0</property>
  <property name="meta.media.progressive">1</property>
  <property name="global_feed">1</property>
 </producer>
 <producer id="producer34" in="00:00:00.000" out="00:01:27.000">
  <property name="length">2611</property>
  <property name="eof">pause</property>
  <property name="resource">content/hot_bod_120000_f34ec270_bass_solo_electric.mp4</property>
  <property name="audio_index">1</property>
  <property name="video_index">0</property>
  <property name="mute_on_pause">0</property>
  <property name="mlt_service">avformat-novalidate</property>
  <property name="meta.media.nb_streams">2</property>
  <property name="meta.media.0.stream.type">video</property>
  <property name="meta.media.0.stream.frame_rate">30</property>
  <property name="meta.media.0.stream.sample_aspect_ratio">0</property>
  <property name="meta.media.0.codec.width">896</property>
  <property name="meta.media.0.codec.height">512</property>
  <property name="meta.media.0.codec.rotate">0</property>
  <property name="meta.media.0.codec.frame_rate">30</property>
  <property name="meta.media.0.codec.pix_fmt">yuv420p</property>
  <property name="meta.media.0.codec.sample_aspect_ratio">0</property>
  <property name="meta.media.0.codec.colorspace">601</property>
  <property name="meta.media.0.codec.name">h264</property>
  <property name="meta.media.0.codec.long_name">H.264 / AVC / MPEG-4 AVC / MPEG-4 part 10</property>
  <property name="meta.media.0.codec.bit_rate">3535758</property>
  <property name="meta.attr.0.stream.handler_name.markup">VideoHandler</property>
  <property name="meta.media.1.stream.type">audio</property>
  <property name="meta.media.1.codec.sample_fmt">fltp</property>
  <property name="meta.media.1.codec.sample_rate">48000</property>
  <property name="meta.media.1.codec.channels">2</property>
  <property name="meta.media.1.codec.name">aac</property>
  <property name="meta.media.1.codec.long_name">AAC (Advanced Audio Coding)</property>
  <property name="meta.media.1.codec.bit_rate">336755</property>
  <property name="meta.attr.1.stream.handler_name.markup">SoundHandler</property>
  <property name="meta.attr.major_brand.markup">isom</property>
  <property name="meta.attr.minor_version.markup">512</property>
  <property name="meta.attr.compatible_brands.markup">isomiso2avc1mp41</property>
  <property name="meta.attr.encoder.markup">Lavf58.29.100</property>
  <property name="seekable">1</property>
  <property name="meta.media.sample_aspect_num">1</property>
  <property name="meta.media.sample_aspect_den">1</property>
  <property name="aspect_ratio">1</property>
  <property name="kdenlive:clipname"/>
  <property name="kdenlive:folderid">34</property>
  <property name="meta.media.frame_rate_num">30</property>
  <property name="meta.media.frame_rate_den">1</property>
  <property name="meta.media.colorspace">601</property>
  <property name="meta.media.color_trc">2</property>
  <property name="meta.media.width">896</property>
  <property name="meta.media.height">512</property>
  <property name="meta.media.color_range">mpeg</property>
  <property name="kdenlive:id">13</property>
  <property name="kdenlive:file_size">42205163</property>
  <property name="kdenlive:file_hash">171649c24b36ba48a3814e00fb965f33</property>
  <property name="kdenlive:audio_max">4</property>
  <property name="meta.media.top_field_first">0</property>
  <property name="meta.media.progressive">1</property>
  <property name="global_feed">1</property>
 </producer>
 <producer id="producer35" in="00:00:00.000" out="00:00:31.000">
  <property name="length">931</property>
  <property name="eof">pause</property>
  <property name="resource">content/hot_bod_112000_3c4edbf5_bass_solo_synth.mp4</property>
  <property name="audio_index">1</property>
  <property name="video_index">0</property>
  <property name="mute_on_pause">0</property>
  <property name="mlt_service">avformat-novalidate</property>
  <property name="meta.media.nb_streams">2</property>
  <property name="meta.media.0.stream.type">video</property>
  <property name="meta.media.0.stream.frame_rate">30</property>
  <property name="meta.media.0.stream.sample_aspect_ratio">0</property>
  <property name="meta.media.0.codec.width">896</property>
  <property name="meta.media.0.codec.height">512</property>
  <property name="meta.media.0.codec.rotate">0</property>
  <property name="meta.media.0.codec.frame_rate">30</property>
  <property name="meta.media.0.codec.pix_fmt">yuv420p</property>
  <property name="meta.media.0.codec.sample_aspect_ratio">0</property>
  <property name="meta.media.0.codec.colorspace">601</property>
  <property name="meta.media.0.codec.name">h264</property>
  <property name="meta.media.0.codec.long_name">H.264 / AVC / MPEG-4 AVC / MPEG-4 part 10</property>
  <property name="meta.media.0.codec.bit_rate">2780571</property>
  <property name="meta.attr.0.stream.handler_name.markup">VideoHandler</property>
  <property name="meta.media.1.stream.type">audio</property>
  <property name="meta.media.1.codec.sample_fmt">fltp</property>
  <property name="meta.media.1.codec.sample_rate">48000</property>
  <property name="meta.media.1.codec.channels">2</property>
  <property name="meta.media.1.codec.name">aac</property>
  <property name="meta.media.1.codec.long_name">AAC (Advanced Audio Coding)</property>
  <property name="meta.media.1.codec.bit_rate">334809</property>
  <property name="meta.attr.1.stream.handler_name.markup">SoundHandler</property>
  <property name="meta.attr.major_brand.markup">isom</property>
  <property name="meta.attr.minor_version.markup">512</property>
  <property name="meta.attr.compatible_brands.markup">isomiso2avc1mp41</property>
  <property name="meta.attr.encoder.markup">Lavf58.29.100</property>
  <property name="seekable">1</property>
  <property name="meta.media.sample_aspect_num">1</property>
  <property name="meta.media.sample_aspect_den">1</property>
  <property name="aspect_ratio">1</property>
  <property name="kdenlive:clipname"/>
  <property name="kdenlive:folderid">34</property>
  <property name="meta.media.frame_rate_num">30</property>
  <property name="meta.media.frame_rate_den">1</property>
  <property name="meta.media.colorspace">601</property>
  <property name="meta.media.color_trc">2</property>
  <property name="meta.media.width">896</property>
  <property name="meta.media.height">512</property>
  <property name="meta.media.color_range">mpeg</property>
  <property name="kdenlive:id">14</property>
  <property name="kdenlive:file_size">12106357</property>
  <property name="kdenlive:file_hash">50318244383a94b0e23f223a98601bbc</property>
  <property name="kdenlive:audio_max">4</property>
  <property name="meta.media.top_field_first">0</property>
  <property name="meta.media.progressive">1</property>
  <property name="global_feed">1</property>
 </producer>
 <producer id="producer36" in="00:00:00.000" out="00:00:11.000">
  <property name="length">331</property>
  <property name="eof">pause</property>
  <property name="resource">content/hot_bod_180000_53a16a2d_after_synth.mp4</property>
  <property name="audio_index">1</property>
  <property name="video_index">0</property>
  <property name="mute_on_pause">0</property>
  <property name="mlt_service">avformat-novalidate</property>
  <property name="meta.media.nb_streams">2</property>
  <property name="meta.media.0.stream.type">video</property>
  <property name="meta.media.0.stream.frame_rate">30</property>
  <property name="meta.media.0.stream.sample_aspect_ratio">0</property>
  <property name="meta.media.0.codec.width">896</property>
  <property name="meta.media.0.codec.height">512</property>
  <property name="meta.media.0.codec.rotate">0</property>
  <property name="meta.media.0.codec.frame_rate">30</property>
  <property name="meta.media.0.codec.pix_fmt">yuv420p</property>
  <property name="meta.media.0.codec.sample_aspect_ratio">0</property>
  <property name="meta.media.0.codec.colorspace">601</property>
  <property name="meta.media.0.codec.name">h264</property>
  <property name="meta.media.0.codec.long_name">H.264 / AVC / MPEG-4 AVC / MPEG-4 part 10</property>
  <property name="meta.media.0.codec.bit_rate">2911251</property>
  <property name="meta.attr.0.stream.handler_name.markup">VideoHandler</property>
  <property name="meta.media.1.stream.type">audio</property>
  <property name="meta.media.1.codec.sample_fmt">fltp</property>
  <property name="meta.media.1.codec.sample_rate">48000</property>
  <property name="meta.media.1.codec.channels">2</property>
  <property name="meta.media.1.codec.name">aac</property>
  <property name="meta.media.1.codec.long_name">AAC (Advanced Audio Coding)</property>
  <property name="meta.media.1.codec.bit_rate">320808</property>
  <property name="meta.attr.1.stream.handler_name.markup">SoundHandler</property>
  <property name="meta.attr.major_brand.markup">isom</property>
  <property name="meta.attr.minor_version.markup">512</property>
  <property name="meta.attr.compatible_brands.markup">isomiso2avc1mp41</property>
  <property name="meta.attr.encoder.markup">Lavf58.29.100</property>
  <property name="seekable">1</property>
  <property name="meta.media.sample_aspect_num">1</property>
  <property name="meta.media.sample_aspect_den">1</property>
  <property name="aspect_ratio">1</property>
  <property name="kdenlive:clipname"/>
  <property name="kdenlive:folderid">34</property>
  <property name="meta.media.frame_rate_num">30</property>
  <property name="meta.media.frame_rate_den">1</property>
  <property name="meta.media.colorspace">601</property>
  <property name="meta.media.color_trc">2</property>
  <property name="meta.media.width">896</property>
  <property name="meta.media.height">512</property>
  <property name="meta.media.color_range">mpeg</property>
  <property name="kdenlive:id">16</property>
  <property name="kdenlive:file_size">4457845</property>
  <property name="kdenlive:file_hash">2d8d167ad6e01b8b79d89451214523d7</property>
  <property name="kdenlive:audio_max">4</property>
  <property name="meta.media.top_field_first">0</property>
  <property name="meta.media.progressive">1</property>
  <property name="global_feed">1</property>
 </producer>
 <producer id="producer37" in="00:00:00.000" out="00:00:26.000">
  <property name="length">781</property>
  <property name="eof">pause</property>
  <property name="resource">content/hot_bod_132000_91b50e24_start_trip.mp4</property>
  <property name="audio_index">1</property>
  <property name="video_index">0</property>
  <property name="mute_on_pause">0</property>
  <property name="mlt_service">avformat-novalidate</property>
  <property name="seekable">1</property>
  <property name="aspect_ratio">1</property>
  <property name="kdenlive:clipname">hot_bod_132000_91b50e24_start_trip.mp4</property>
  <property name="kdenlive:folderid">34</property>
  <property name="kdenlive:id">17</property>
  <property name="kdenlive:file_size">10182916</property>
  <property name="kdenlive:audio_max">10</property>
  <property name="global_feed">1</property>
  <property name="meta.media.nb_streams">2</property>
  <property name="meta.media.0.stream.type">video</property>
  <property name="meta.media.0.stream.frame_rate">30</property>
  <property name="meta.media.0.stream.sample_aspect_ratio">0</property>
  <property name="meta.media.0.codec.width">896</property>
  <property name="meta.media.0.codec.height">512</property>
  <property name="meta.media.0.codec.rotate">0</property>
  <property name="meta.media.0.codec.frame_rate">30</property>
  <property name="meta.media.0.codec.pix_fmt">yuv420p</property>
  <property name="meta.media.0.codec.sample_aspect_ratio">0</property>
  <property name="meta.media.0.codec.colorspace">601</property>
  <property name="meta.media.0.codec.name">h264</property>
  <property name="meta.media.0.codec.long_name">H.264 / AVC / MPEG-4 AVC / MPEG-4 part 10</property>
  <property name="meta.media.0.codec.bit_rate">2794897</property>
  <property name="meta.attr.0.stream.handler_name.markup">VideoHandler</property>
  <property name="meta.media.1.stream.type">audio</property>
  <property name="meta.media.1.codec.sample_fmt">fltp</property>
  <property name="meta.media.1.codec.sample_rate">48000</property>
  <property name="meta.media.1.codec.channels">2</property>
  <property name="meta.media.1.codec.name">aac</property>
  <property name="meta.media.1.codec.long_name">AAC (Advanced Audio Coding)</property>
  <property name="meta.media.1.codec.bit_rate">329261</property>
  <property name="meta.attr.1.stream.handler_name.markup">SoundHandler</property>
  <property name="meta.attr.major_brand.markup">isom</property>
  <property name="meta.attr.minor_version.markup">512</property>
  <property name="meta.attr.compatible_brands.markup">isomiso2avc1mp41</property>
  <property name="meta.attr.encoder.markup">Lavf58.29.100</property>
  <property name="meta.media.sample_aspect_num">1</property>
  <property name="meta.media.sample_aspect_den">1</property>
  <property name="meta.media.frame_rate_num">30</property>
  <property name="meta.media.frame_rate_den">1</property>
  <property name="meta.media.colorspace">601</property>
  <property name="meta.media.color_trc">2</property>
  <property name="meta.media.width">896</property>
  <property name="meta.media.height">512</property>
  <property name="meta.media.color_range">mpeg</property>
  <property name="kdenlive:file_hash">734f80f03da799a358c3354d23a1d9a6</property>
  <property name="meta.media.top_field_first">0</property>
  <property name="meta.media.progressive">1</property>
 </producer>
 <producer id="producer38" in="00:00:00.000" out="00:01:13.000">
  <property name="length">2191</property>
  <property name="eof">pause</property>
  <property name="resource">content/hot_bod_132000_e3d1a1d9_drum_trip.mp4</property>
  <property name="audio_index">1</property>
  <property name="video_index">0</property>
  <property name="mute_on_pause">0</property>
  <property name="mlt_service">avformat-novalidate</property>
  <property name="meta.media.nb_streams">2</property>
  <property name="meta.media.0.stream.type">video</property>
  <property name="meta.media.0.stream.frame_rate">30</property>
  <property name="meta.media.0.stream.sample_aspect_ratio">0</property>
  <property name="meta.media.0.codec.width">896</property>
  <property name="meta.media.0.codec.height">512</property>
  <property name="meta.media.0.codec.rotate">0</property>
  <property name="meta.media.0.codec.frame_rate">30</property>
  <property name="meta.media.0.codec.pix_fmt">yuv420p</property>
  <property name="meta.media.0.codec.sample_aspect_ratio">0</property>
  <property name="meta.media.0.codec.colorspace">601</property>
  <property name="meta.media.0.codec.name">h264</property>
  <property name="meta.media.0.codec.long_name">H.264 / AVC / MPEG-4 AVC / MPEG-4 part 10</property>
  <property name="meta.media.0.codec.bit_rate">3639395</property>
  <property name="meta.attr.0.stream.handler_name.markup">VideoHandler</property>
  <property name="meta.media.1.stream.type">audio</property>
  <property name="meta.media.1.codec.sample_fmt">fltp</property>
  <property name="meta.media.1.codec.sample_rate">48000</property>
  <property name="meta.media.1.codec.channels">2</property>
  <property name="meta.media.1.codec.name">aac</property>
  <property name="meta.media.1.codec.long_name">AAC (Advanced Audio Coding)</property>
  <property name="meta.media.1.codec.bit_rate">328237</property>
  <property name="meta.attr.1.stream.handler_name.markup">SoundHandler</property>
  <property name="meta.attr.major_brand.markup">isom</property>
  <property name="meta.attr.minor_version.markup">512</property>
  <property name="meta.attr.compatible_brands.markup">isomiso2avc1mp41</property>
  <property name="meta.attr.encoder.markup">Lavf58.29.100</property>
  <property name="seekable">1</property>
  <property name="meta.media.sample_aspect_num">1</property>
  <property name="meta.media.sample_aspect_den">1</property>
  <property name="aspect_ratio">1</property>
  <property name="kdenlive:clipname"/>
  <property name="kdenlive:folderid">34</property>
  <property name="meta.media.frame_rate_num">30</property>
  <property name="meta.media.frame_rate_den">1</property>
  <property name="meta.media.colorspace">601</property>
  <property name="meta.media.color_trc">2</property>
  <property name="meta.media.width">896</property>
  <property name="meta.media.height">512</property>
  <property name="meta.media.color_range">mpeg</property>
  <property name="kdenlive:id">18</property>
  <property name="kdenlive:file_size">36280029</property>
  <property name="kdenlive:file_hash">88bfd6c9be010ca9189da24c28ab1e8f</property>
  <property name="kdenlive:audio_max">5</property>
  <property name="meta.media.top_field_first">0</property>
  <property name="meta.media.progressive">1</property>
  <property name="global_feed">1</property>
 </producer>
 <producer id="producer39" in="00:00:00.000" out="00:01:13.000">
  <property name="length">2191</property>
  <property name="eof">pause</property>
  <property name="resource">content/hot_bod_112000_8fdeacb7_synth_trip.mp4</property>
  <property name="audio_index">1</property>
  <property name="video_index">0</property>
  <property name="mute_on_pause">0</property>
  <property name="mlt_service">avformat-novalidate</property>
  <property name="meta.media.nb_streams">2</property>
  <property name="meta.media.0.stream.type">video</property>
  <property name="meta.media.0.stream.frame_rate">30</property>
  <property name="meta.media.0.stream.sample_aspect_ratio">0</property>
  <property name="meta.media.0.codec.width">896</property>
  <property name="meta.media.0.codec.height">512</property>
  <property name="meta.media.0.codec.rotate">0</property>
  <property name="meta.media.0.codec.frame_rate">30</property>
  <property name="meta.media.0.codec.pix_fmt">yuv420p</property>
  <property name="meta.media.0.codec.sample_aspect_ratio">0</property>
  <property name="meta.media.0.codec.colorspace">601</property>
  <property name="meta.media.0.codec.name">h264</property>
  <property name="meta.media.0.codec.long_name">H.264 / AVC / MPEG-4 AVC / MPEG-4 part 10</property>
  <property name="meta.media.0.codec.bit_rate">3613432</property>
  <property name="meta.attr.0.stream.handler_name.markup">VideoHandler</property>
  <property name="meta.media.1.stream.type">audio</property>
  <property name="meta.media.1.codec.sample_fmt">fltp</property>
  <property name="meta.media.1.codec.sample_rate">48000</property>
  <property name="meta.media.1.codec.channels">2</property>
  <property name="meta.media.1.codec.name">aac</property>
  <property name="meta.media.1.codec.long_name">AAC (Advanced Audio Coding)</property>
  <property name="meta.media.1.codec.bit_rate">328237</property>
  <property name="meta.attr.1.stream.handler_name.markup">SoundHandler</property>
  <property name="meta.attr.major_brand.markup">isom</property>
  <property name="meta.attr.minor_version.markup">512</property>
  <property name="meta.attr.compatible_brands.markup">isomiso2avc1mp41</property>
  <property name="meta.attr.encoder.markup">Lavf58.29.100</property>
  <property name="seekable">1</property>
  <property name="meta.media.sample_aspect_num">1</property>
  <property name="meta.media.sample_aspect_den">1</property>
  <property name="aspect_ratio">1</property>
  <property name="kdenlive:clipname"/>
  <property name="kdenlive:folderid">34</property>
  <property name="meta.media.frame_rate_num">30</property>
  <property name="meta.media.frame_rate_den">1</property>
  <property name="meta.media.colorspace">601</property>
  <property name="meta.media.color_trc">2</property>
  <property name="meta.media.width">896</property>
  <property name="meta.media.height">512</property>
  <property name="meta.media.color_range">mpeg</property>
  <property name="kdenlive:id">19</property>
  <property name="kdenlive:file_size">36043540</property>
  <property name="kdenlive:file_hash">01a6227e49a38ad9a87bf327daf078e6</property>
  <property name="kdenlive:audio_max">5</property>
  <property name="meta.media.top_field_first">0</property>
  <property name="meta.media.progressive">1</property>
  <property name="global_feed">1</property>
 </producer>
 <producer id="producer40" in="00:00:00.000" out="00:01:13.000">
  <property name="length">2191</property>
  <property name="eof">pause</property>
  <property name="resource">content/hot_bod_120000_9084fcf0_bass_trip.mp4</property>
  <property name="audio_index">1</property>
  <property name="video_index">0</property>
  <property name="mute_on_pause">0</property>
  <property name="mlt_service">avformat-novalidate</property>
  <property name="meta.media.nb_streams">2</property>
  <property name="meta.media.0.stream.type">video</property>
  <property name="meta.media.0.stream.frame_rate">30</property>
  <property name="meta.media.0.stream.sample_aspect_ratio">0</property>
  <property name="meta.media.0.codec.width">896</property>
  <property name="meta.media.0.codec.height">512</property>
  <property name="meta.media.0.codec.rotate">0</property>
  <property name="meta.media.0.codec.frame_rate">30</property>
  <property name="meta.media.0.codec.pix_fmt">yuv420p</property>
  <property name="meta.media.0.codec.sample_aspect_ratio">0</property>
  <property name="meta.media.0.codec.colorspace">601</property>
  <property name="meta.media.0.codec.name">h264</property>
  <property name="meta.media.0.codec.long_name">H.264 / AVC / MPEG-4 AVC / MPEG-4 part 10</property>
  <property name="meta.media.0.codec.bit_rate">3596498</property>
  <property name="meta.attr.0.stream.handler_name.markup">VideoHandler</property>
  <property name="meta.media.1.stream.type">audio</property>
  <property name="meta.media.1.codec.sample_fmt">fltp</property>
  <property name="meta.media.1.codec.sample_rate">48000</property>
  <property name="meta.media.1.codec.channels">2</property>
  <property name="meta.media.1.codec.name">aac</property>
  <property name="meta.media.1.codec.long_name">AAC (Advanced Audio Coding)</property>
  <property name="meta.media.1.codec.bit_rate">328237</property>
  <property name="meta.attr.1.stream.handler_name.markup">SoundHandler</property>
  <property name="meta.attr.major_brand.markup">isom</property>
  <property name="meta.attr.minor_version.markup">512</property>
  <property name="meta.attr.compatible_brands.markup">isomiso2avc1mp41</property>
  <property name="meta.attr.encoder.markup">Lavf58.29.100</property>
  <property name="seekable">1</property>
  <property name="meta.media.sample_aspect_num">1</property>
  <property name="meta.media.sample_aspect_den">1</property>
  <property name="aspect_ratio">1</property>
  <property name="kdenlive:clipname"/>
  <property name="kdenlive:folderid">34</property>
  <property name="meta.media.frame_rate_num">30</property>
  <property name="meta.media.frame_rate_den">1</property>
  <property name="meta.media.colorspace">601</property>
  <property name="meta.media.color_trc">2</property>
  <property name="meta.media.width">896</property>
  <property name="meta.media.height">512</property>
  <property name="meta.media.color_range">mpeg</property>
  <property name="kdenlive:id">20</property>
  <property name="kdenlive:file_size">35889185</property>
  <property name="kdenlive:file_hash">93fe18edb1d21011d9dfe6f48873c37a</property>
  <property name="kdenlive:audio_max">5</property>
  <property name="meta.media.top_field_first">0</property>
  <property name="meta.media.progressive">1</property>
  <property name="global_feed">1</property>
 </producer>
 <producer id="producer105" in="00:00:00.000" out="00:00:11.833">
  <property name="length">356</property>
  <property name="eof">pause</property>
  <property name="resource">content/texture_stills/00006_tiger2f_naselle_truss_strength0.06_pcahist_scale0.6_1920.png</property>
  <property name="ttl">25</property>
  <property name="aspect_ratio">1</property>
  <property name="progressive">1</property>
  <property name="seekable">1</property>
  <property name="meta.media.width">1212</property>
  <property name="meta.media.height">1212</property>
  <property name="mlt_service">qimage</property>
  <property name="kdenlive:clipname">00006_tiger2f_naselle_truss_strength0.06_pcahist_scale0.6_1920.png</property>
  <property name="kdenlive:duration">00:00:05.000</property>
  <property name="kdenlive:folderid">34</property>
  <property name="kdenlive:id">25</property>
  <property name="kdenlive:file_size">1674729</property>
  <property name="global_feed">1</property>
  <property name="kdenlive:file_hash">11a2e2435fef2bcdb663e14360174c37</property>
 </producer>
 <producer id="producer46" in="00:00:00.000" out="00:00:04.967">
  <property name="length">00:00:05.000</property>
  <property name="eof">pause</property>
  <property name="resource">content/texture_stills/00001_bee1f_opening_drums_10-566_strength0.02_pcahist_scale0.65_1920.png</property>
  <property name="ttl">25</property>
  <property name="aspect_ratio">1</property>
  <property name="progressive">1</property>
  <property name="seekable">1</property>
  <property name="meta.media.width">1920</property>
  <property name="meta.media.height">1088</property>
  <property name="mlt_service">qimage</property>
  <property name="kdenlive:clipname"/>
  <property name="kdenlive:duration">00:00:05.000</property>
  <property name="kdenlive:folderid">56</property>
  <property name="kdenlive:id">26</property>
  <property name="kdenlive:file_size">3991222</property>
  <property name="kdenlive:file_hash">ff51f004e95ca4e574f310a52bf123f2</property>
  <property name="global_feed">1</property>
 </producer>
 <producer id="producer48" in="00:00:00.000" out="00:00:04.967">
  <property name="length">00:00:05.000</property>
  <property name="eof">pause</property>
  <property name="resource">content/texture_stills/00003_eagle1_opening_drums_13-938_strength0.04_pcahist_scale0.3_1920.png</property>
  <property name="ttl">25</property>
  <property name="aspect_ratio">1</property>
  <property name="progressive">1</property>
  <property name="seekable">1</property>
  <property name="meta.media.width">1920</property>
  <property name="meta.media.height">1088</property>
  <property name="mlt_service">qimage</property>
  <property name="kdenlive:clipname"/>
  <property name="kdenlive:duration">00:00:05.000</property>
  <property name="kdenlive:folderid">56</property>
  <property name="kdenlive:id">27</property>
  <property name="kdenlive:file_size">4033305</property>
  <property name="kdenlive:file_hash">f0aefa446899b31d5db4e0c970df7190</property>
  <property name="global_feed">1</property>
 </producer>
 <producer id="producer54" in="00:00:00.000" out="00:00:04.967">
  <property name="length">00:00:05.000</property>
  <property name="eof">pause</property>
  <property name="resource">content/texture_stills/00006_clown1_opening_drums_22-600_strength0.05_pcahist_scale0.3_1920.png</property>
  <property name="ttl">25</property>
  <property name="aspect_ratio">1</property>
  <property name="progressive">1</property>
  <property name="seekable">1</property>
  <property name="meta.media.width">1920</property>
  <property name="meta.media.height">1088</property>
  <property name="mlt_service">qimage</property>
  <property name="kdenlive:clipname"/>
  <property name="kdenlive:duration">00:00:05.000</property>
  <property name="kdenlive:folderid">56</property>
  <property name="kdenlive:id">28</property>
  <property name="kdenlive:file_size">3364011</property>
  <property name="kdenlive:file_hash">8122b6fbc531a9835c493c8336ac2995</property>
  <property name="global_feed">1</property>
 </producer>
 <producer id="producer56" in="00:00:00.000" out="00:00:04.967">
  <property name="length">00:00:05.000</property>
  <property name="eof">pause</property>
  <property name="resource">content/texture_stills/00007_monarch1_opening_drums_24-666_strength0.08_pcahist_scale0.3_1920.png</property>
  <property name="ttl">25</property>
  <property name="aspect_ratio">1</property>
  <property name="progressive">1</property>
  <property name="seekable">1</property>
  <property name="meta.media.width">1920</property>
  <property name="meta.media.height">1088</property>
  <property name="mlt_service">qimage</property>
  <property name="kdenlive:clipname"/>
  <property name="kdenlive:duration">00:00:05.000</property>
  <property name="kdenlive:folderid">56</property>
  <property name="kdenlive:id">29</property>
  <property name="kdenlive:file_size">3853045</property>
  <property name="kdenlive:file_hash">c1e3ad7a6b78ff772f8f47be6c36b4d0</property>
 </producer>
 <producer id="producer59" in="00:00:00.000" out="00:00:04.967">
  <property name="length">00:00:05.000</property>
  <property name="eof">pause</property>
  <property name="resource">content/texture_stills/00008_tiger1_opening_drums_26-899_strength0.06_pcahist_scale0.6_1920.png</property>
  <property name="ttl">25</property>
  <property name="aspect_ratio">1</property>
  <property name="progressive">1</property>
  <property name="seekable">1</property>
  <property name="meta.media.width">1920</property>
  <property name="meta.media.height">1088</property>
  <property name="mlt_service">qimage</property>
  <property name="kdenlive:clipname"/>
  <property name="kdenlive:duration">00:00:05.000</property>
  <property name="kdenlive:folderid">56</property>
  <property name="kdenlive:id">30</property>
  <property name="kdenlive:file_size">4566974</property>
  <property name="kdenlive:file_hash">10dff3c90dd6b65394dab683cd88f27c</property>
  <property name="global_feed">1</property>
 </producer>
 <producer id="producer61" in="00:00:00.000" out="00:00:04.967">
  <property name="length">00:00:05.000</property>
  <property name="eof">pause</property>
  <property name="resource">content/texture_stills/00009_parrot2_opening_drums_28-533_strength0.06_pcahist_scale0.2_1920.png</property>
  <property name="ttl">25</property>
  <property name="aspect_ratio">1</property>
  <property name="progressive">1</property>
  <property name="seekable">1</property>
  <property name="meta.media.width">1920</property>
  <property name="meta.media.height">1088</property>
  <property name="mlt_service">qimage</property>
  <property name="kdenlive:clipname"/>
  <property name="kdenlive:duration">00:00:05.000</property>
  <property name="kdenlive:folderid">56</property>
  <property name="kdenlive:id">31</property>
  <property name="kdenlive:file_size">3579171</property>
  <property name="kdenlive:file_hash">f7dc999388b4a1aec9c29ae20f6d7759</property>
  <property name="global_feed">1</property>
 </producer>
 <producer id="producer64" in="00:00:00.000" out="00:00:04.967">
  <property name="length">00:00:05.000</property>
  <property name="eof">pause</property>
  <property name="resource">content/texture_stills/00010_peacock1v_opening_drums_30-533_strength0.07_pcahist_scale0.3_1920.png</property>
  <property name="ttl">25</property>
  <property name="aspect_ratio">1</property>
  <property name="progressive">1</property>
  <property name="seekable">1</property>
  <property name="meta.media.width">1920</property>
  <property name="meta.media.height">1088</property>
  <property name="mlt_service">qimage</property>
  <property name="kdenlive:clipname"/>
  <property name="kdenlive:duration">00:00:05.000</property>
  <property name="kdenlive:folderid">56</property>
  <property name="kdenlive:id">32</property>
  <property name="kdenlive:file_size">5255259</property>
  <property name="kdenlive:file_hash">0aa0bec4a73a5d675b0ed2c23639551d</property>
  <property name="global_feed">1</property>
 </producer>
 <producer id="producer70" in="00:00:00.000" out="00:00:04.967">
  <property name="length">00:00:05.000</property>
  <property name="eof">pause</property>
  <property name="resource">content/texture_stills/00012_zebra2f_opening_drums_32-533_strength0.07_pcahist_scale0.3_1920.png</property>
  <property name="ttl">25</property>
  <property name="aspect_ratio">1</property>
  <property name="progressive">1</property>
  <property name="seekable">1</property>
  <property name="meta.media.width">1920</property>
  <property name="meta.media.height">1088</property>
  <property name="mlt_service">qimage</property>
  <property name="kdenlive:clipname"/>
  <property name="kdenlive:duration">00:00:05.000</property>
  <property name="kdenlive:folderid">56</property>
  <property name="kdenlive:id">33</property>
  <property name="kdenlive:file_size">4765100</property>
  <property name="kdenlive:file_hash">851894092a9cf4f1d96518345ffa467f</property>
  <property name="global_feed">1</property>
 </producer>
 <producer id="producer71" in="00:00:00.000" out="00:00:04.967">
  <property name="length">00:00:05.000</property>
  <property name="eof">pause</property>
  <property name="resource">content/texture_stills/00013_bee2_opening_drums_34-500_strength0.02_pcahist_scale0.65_1920.png</property>
  <property name="ttl">25</property>
  <property name="aspect_ratio">1</property>
  <property name="progressive">1</property>
  <property name="seekable">1</property>
  <property name="meta.media.width">1920</property>
  <property name="meta.media.height">1088</property>
  <property name="mlt_service">qimage</property>
  <property name="kdenlive:clipname"/>
  <property name="kdenlive:duration">00:00:05.000</property>
  <property name="kdenlive:folderid">56</property>
  <property name="kdenlive:id">35</property>
  <property name="kdenlive:file_size">3484639</property>
  <property name="kdenlive:file_hash">48d7798d9603abe627e864adbaf64b21</property>
  <property name="global_feed">1</property>
 </producer>
 <producer id="producer74" in="00:00:00.000" out="00:00:04.967">
  <property name="length">00:00:05.000</property>
  <property name="eof">pause</property>
  <property name="resource">content/texture_stills/00014_parrot1_opening_drums_36-433_strength0.06_pcahist_scale0.2_1920.png</property>
  <property name="ttl">25</property>
  <property name="aspect_ratio">1</property>
  <property name="progressive">1</property>
  <property name="seekable">1</property>
  <property name="meta.media.width">1920</property>
  <property name="meta.media.height">1088</property>
  <property name="mlt_service">qimage</property>
  <property name="kdenlive:clipname"/>
  <property name="kdenlive:duration">00:00:05.000</property>
  <property name="kdenlive:folderid">56</property>
  <property name="kdenlive:id">36</property>
  <property name="kdenlive:file_size">3740517</property>
  <property name="kdenlive:file_hash">852b3e0a8296b61ff3a00e9337542ab1</property>
  <property name="global_feed">1</property>
 </producer>
 <producer id="producer80" in="00:00:00.000" out="00:00:04.967">
  <property name="length">00:00:05.000</property>
  <property name="eof">pause</property>
  <property name="resource">content/texture_stills/00015_sea_slug1f_opening_drums_38-366_strength0.05_pcahist_scale0.5_1920.png</property>
  <property name="ttl">25</property>
  <property name="aspect_ratio">1</property>
  <property name="progressive">1</property>
  <property name="seekable">1</property>
  <property name="meta.media.width">1920</property>
  <property name="meta.media.height">1088</property>
  <property name="mlt_service">qimage</property>
  <property name="kdenlive:clipname"/>
  <property name="kdenlive:duration">00:00:05.000</property>
  <property name="kdenlive:folderid">56</property>
  <property name="kdenlive:id">37</property>
  <property name="kdenlive:file_size">4410394</property>
  <property name="kdenlive:file_hash">1f40da84c9b828c309622be0bb73aa5b</property>
  <property name="global_feed">1</property>
 </producer>
 <producer id="producer84" in="00:00:00.000" out="00:00:04.967">
  <property name="length">00:00:05.000</property>
  <property name="eof">pause</property>
  <property name="resource">content/texture_stills/00016_eagle1_opening_drums_39-299_strength0.04_pcahist_scale0.3_1920.png</property>
  <property name="ttl">25</property>
  <property name="aspect_ratio">1</property>
  <property name="progressive">1</property>
  <property name="seekable">1</property>
  <property name="meta.media.width">1920</property>
  <property name="meta.media.height">1088</property>
  <property name="mlt_service">qimage</property>
  <property name="kdenlive:clipname"/>
  <property name="kdenlive:duration">00:00:05.000</property>
  <property name="kdenlive:folderid">56</property>
  <property name="kdenlive:id">38</property>
  <property name="kdenlive:file_size">4024307</property>
  <property name="kdenlive:file_hash">1f209db6f7757a6453bb514d65a85c8d</property>
  <property name="global_feed">1</property>
 </producer>
 <producer id="producer86" in="00:00:00.000" out="00:00:04.967">
  <property name="length">00:00:05.000</property>
  <property name="eof">pause</property>
  <property name="resource">content/texture_stills/00017_anemone2_opening_drums_40-299_strength0.04_pcahist_scale0.4_1920.png</property>
  <property name="ttl">25</property>
  <property name="aspect_ratio">1</property>
  <property name="progressive">1</property>
  <property name="seekable">1</property>
  <property name="meta.media.width">1920</property>
  <property name="meta.media.height">1088</property>
  <property name="mlt_service">qimage</property>
  <property name="kdenlive:clipname"/>
  <property name="kdenlive:duration">00:00:05.000</property>
  <property name="kdenlive:folderid">56</property>
  <property name="kdenlive:id">39</property>
  <property name="kdenlive:file_size">3103784</property>
  <property name="kdenlive:file_hash">e0813b918e4d105977387aaf5d355e8b</property>
  <property name="global_feed">1</property>
 </producer>
 <producer id="producer89" in="00:00:00.000" out="00:00:04.967">
  <property name="length">00:00:05.000</property>
  <property name="eof">pause</property>
  <property name="resource">content/texture_stills/00018_anenome1f_opening_drums_41-899_strength0.04_pcahist_scale0.4_1920.png</property>
  <property name="ttl">25</property>
  <property name="aspect_ratio">1</property>
  <property name="progressive">1</property>
  <property name="seekable">1</property>
  <property name="meta.media.width">1920</property>
  <property name="meta.media.height">1088</property>
  <property name="mlt_service">qimage</property>
  <property name="kdenlive:clipname"/>
  <property name="kdenlive:duration">00:00:05.000</property>
  <property name="kdenlive:folderid">56</property>
  <property name="kdenlive:id">40</property>
  <property name="kdenlive:file_size">3312150</property>
  <property name="kdenlive:file_hash">fe5be14f71f877bac004847f7d4ee7c9</property>
  <property name="global_feed">1</property>
 </producer>
 <producer id="producer101" in="00:00:00.000" out="00:00:04.967">
  <property name="length">00:00:05.000</property>
  <property name="eof">pause</property>
  <property name="resource">content/texture_stills/00021_zebra1f_opening_drums_44-133_strength0.07_pcahist_scale0.3_1920.png</property>
  <property name="ttl">25</property>
  <property name="aspect_ratio">1</property>
  <property name="progressive">1</property>
  <property name="seekable">1</property>
  <property name="meta.media.width">1920</property>
  <property name="meta.media.height">1088</property>
  <property name="mlt_service">qimage</property>
  <property name="kdenlive:clipname"/>
  <property name="kdenlive:duration">00:00:05.000</property>
  <property name="kdenlive:folderid">56</property>
  <property name="kdenlive:id">41</property>
  <property name="kdenlive:file_size">3859949</property>
  <property name="kdenlive:file_hash">ddcd01dfbe71f87c26248515e68936a6</property>
  <property name="global_feed">1</property>
 </producer>
 <producer id="producer103" in="00:00:00.000" out="00:00:04.967">
  <property name="length">00:00:05.000</property>
  <property name="eof">pause</property>
  <property name="resource">content/texture_stills/00022_koy1f_opening_drums_46-633_strength0.065_pcahist_scale0.2_1920.png</property>
  <property name="ttl">25</property>
  <property name="aspect_ratio">1</property>
  <property name="progressive">1</property>
  <property name="seekable">1</property>
  <property name="meta.media.width">1920</property>
  <property name="meta.media.height">1088</property>
  <property name="mlt_service">qimage</property>
  <property name="kdenlive:clipname"/>
  <property name="kdenlive:duration">00:00:05.000</property>
  <property name="kdenlive:folderid">56</property>
  <property name="kdenlive:id">42</property>
  <property name="kdenlive:file_size">4137842</property>
  <property name="kdenlive:file_hash">10dc12b1cd5d43b7d273f34738605b13</property>
 </producer>
 <producer id="producer106" in="00:00:00.000" out="00:00:04.967">
  <property name="length">00:00:05.000</property>
  <property name="eof">pause</property>
  <property name="resource">content/texture_stills/00019_anenome1f_opening_drums_42-299_strength0.04_pcahist_scale0.4_1920.png</property>
  <property name="ttl">25</property>
  <property name="aspect_ratio">1</property>
  <property name="progressive">1</property>
  <property name="seekable">1</property>
  <property name="meta.media.width">1920</property>
  <property name="meta.media.height">1088</property>
  <property name="mlt_service">qimage</property>
  <property name="kdenlive:clipname"/>
  <property name="kdenlive:duration">00:00:05.000</property>
  <property name="kdenlive:folderid">56</property>
  <property name="kdenlive:id">43</property>
  <property name="kdenlive:file_size">3316771</property>
  <property name="kdenlive:file_hash">58a0c85d2087113ef5d80acba4f9c941</property>
  <property name="global_feed">1</property>
 </producer>
 <producer id="producer2" in="00:00:00.000" out="00:00:04.967">
  <property name="length">00:00:05.000</property>
  <property name="eof">pause</property>
  <property name="resource">content/texture_stills/00020_anenome1f_opening_drums_42-600_strength0.04_pcahist_scale0.4_1920.png</property>
  <property name="ttl">25</property>
  <property name="aspect_ratio">1</property>
  <property name="progressive">1</property>
  <property name="seekable">1</property>
  <property name="meta.media.width">1920</property>
  <property name="meta.media.height">1088</property>
  <property name="mlt_service">qimage</property>
  <property name="kdenlive:clipname">00020_anenome1f_opening_drums_42-600_strength0.04_pcahist_scale0.4_1920.png</property>
  <property name="kdenlive:duration">00:00:05.000</property>
  <property name="kdenlive:folderid">56</property>
  <property name="kdenlive:id">44</property>
  <property name="kdenlive:file_size">3317965</property>
  <property name="global_feed">1</property>
  <property name="kdenlive:file_hash">ad4f311b39dd300da2d698bdd52bd958</property>
 </producer>
 <producer id="producer1" in="00:00:00.000" out="00:00:04.967">
  <property name="length">00:00:05.000</property>
  <property name="eof">pause</property>
  <property name="resource">content/texture_stills/00005_pheasant2_opening_drums_20-933_strength0.08_pcahist_scale0.35_1920.png</property>
  <property name="ttl">25</property>
  <property name="aspect_ratio">1</property>
  <property name="progressive">1</property>
  <property name="seekable">1</property>
  <property name="meta.media.width">1920</property>
  <property name="meta.media.height">1088</property>
  <property name="mlt_service">qimage</property>
  <property name="kdenlive:clipname">00005_pheasant2_opening_drums_20-933_strength0.08_pcahist_scale0.35_1920.png</property>
  <property name="kdenlive:duration">00:00:05.000</property>
  <property name="kdenlive:folderid">56</property>
  <property name="kdenlive:id">45</property>
  <property name="kdenlive:file_size">4698537</property>
  <property name="global_feed">1</property>
  <property name="kdenlive:file_hash">954757c1b6a8c0c066005a2b2b6be98d</property>
 </producer>
 <producer id="producer0" in="00:00:00.000" out="00:00:04.967">
  <property name="length">00:00:05.000</property>
  <property name="eof">pause</property>
  <property name="resource">content/texture_stills/00004_pheasant1f_opening_drums_18-641_strength0.08_pcahist_scale0.35_1920.png</property>
  <property name="ttl">25</property>
  <property name="aspect_ratio">1</property>
  <property name="progressive">1</property>
  <property name="seekable">1</property>
  <property name="meta.media.width">1920</property>
  <property name="meta.media.height">1088</property>
  <property name="mlt_service">qimage</property>
  <property name="kdenlive:clipname">00004_pheasant1f_opening_drums_18-641_strength0.08_pcahist_scale0.35_1920.png</property>
  <property name="kdenlive:duration">00:00:05.000</property>
  <property name="kdenlive:folderid">56</property>
  <property name="kdenlive:id">46</property>
  <property name="kdenlive:file_size">4590441</property>
  <property name="global_feed">1</property>
  <property name="kdenlive:file_hash">0bfb1c96a4450bf02c2d2f346f749964</property>
 </producer>
 <producer id="producer3" in="00:00:00.000" out="00:00:04.967">
  <property name="length">00:00:05.000</property>
  <property name="eof">pause</property>
  <property name="resource">content/texture_stills/00002_peacock2v_opening_drums_12-598_strength0.07_pcahist_scale0.5_1920.png</property>
  <property name="ttl">25</property>
  <property name="aspect_ratio">1</property>
  <property name="progressive">1</property>
  <property name="seekable">1</property>
  <property name="meta.media.width">1920</property>
  <property name="meta.media.height">1088</property>
  <property name="mlt_service">qimage</property>
  <property name="kdenlive:clipname">00002_peacock2v_opening_drums_12-598_strength0.07_pcahist_scale0.5_1920.png</property>
  <property name="kdenlive:duration">00:00:05.000</property>
  <property name="kdenlive:folderid">56</property>
  <property name="kdenlive:id">47</property>
  <property name="kdenlive:file_size">5550613</property>
  <property name="global_feed">1</property>
  <property name="kdenlive:file_hash">da2f234c22261b1a0437aa62b513fa6b</property>
 </producer>
 <producer id="producer4" in="00:00:00.000" out="00:00:04.967">
  <property name="length">00:00:05.000</property>
  <property name="eof">pause</property>
  <property name="resource">content/texture_stills/00000_monarch2_opening_drums_08-566_strength0.08_pcahist_scale0.3_1920.png</property>
  <property name="ttl">25</property>
  <property name="aspect_ratio">1</property>
  <property name="progressive">1</property>
  <property name="seekable">1</property>
  <property name="meta.media.width">1920</property>
  <property name="meta.media.height">1088</property>
  <property name="mlt_service">qimage</property>
  <property name="kdenlive:clipname">00000_monarch2_opening_drums_08-566_strength0.08_pcahist_scale0.3_1920.png</property>
  <property name="kdenlive:duration">00:00:05.000</property>
  <property name="kdenlive:folderid">56</property>
  <property name="kdenlive:id">48</property>
  <property name="kdenlive:file_size">3515434</property>
  <property name="global_feed">1</property>
  <property name="kdenlive:file_hash">520f016179b2be0daef83f613793e373</property>
 </producer>
 <producer id="producer112" in="00:00:00.000" out="00:00:04.967">
  <property name="length">00:00:05.000</property>
  <property name="eof">pause</property>
  <property name="resource">content/texture_stills/koy1f_opening_drums_15-966_strength0.065_pcahist_scale0.2_1920.png</property>
  <property name="ttl">25</property>
  <property name="aspect_ratio">1</property>
  <property name="progressive">1</property>
  <property name="seekable">1</property>
  <property name="meta.media.width">1920</property>
  <property name="meta.media.height">1088</property>
  <property name="mlt_service">qimage</property>
  <property name="kdenlive:clipname"/>
  <property name="kdenlive:duration">00:00:05.000</property>
  <property name="kdenlive:folderid">56</property>
  <property name="kdenlive:id">49</property>
  <property name="kdenlive:file_size">4138492</property>
  <property name="kdenlive:file_hash">fdee4d129eeba9f3c8741ce60c545f47</property>
 </producer>
 <producer id="producer10" in="00:00:00.000" out="00:00:04.967">
  <property name="length">00:00:05.000</property>
  <property name="eof">pause</property>
  <property name="resource">content/flowers/bergie larson truss.jpg</property>
  <property name="ttl">25</property>
  <property name="aspect_ratio">1</property>
  <property name="progressive">1</property>
  <property name="seekable">1</property>
  <property name="meta.media.width">4288</property>
  <property name="meta.media.height">2848</property>
  <property name="mlt_service">qimage</property>
  <property name="kdenlive:clipname"/>
  <property name="kdenlive:duration">00:00:05.000</property>
  <property name="kdenlive:folderid">121</property>
  <property name="kdenlive:id">50</property>
  <property name="kdenlive:file_size">1686952</property>
  <property name="kdenlive:file_hash">2d61c868c5d0c4824da7c7055c045db9</property>
  <property name="global_feed">1</property>
 </producer>
 <producer id="producer129" in="00:00:00.000" out="00:00:05.133">
  <property name="length">155</property>
  <property name="eof">pause</property>
  <property name="resource">content/flowers/bureauvii truss #2.jpg</property>
  <property name="ttl">25</property>
  <property name="aspect_ratio">1</property>
  <property name="progressive">1</property>
  <property name="seekable">1</property>
  <property name="meta.media.width">4288</property>
  <property name="meta.media.height">2848</property>
  <property name="mlt_service">qimage</property>
  <property name="kdenlive:clipname"/>
  <property name="kdenlive:duration">00:00:05.000</property>
  <property name="kdenlive:folderid">121</property>
  <property name="kdenlive:id">51</property>
  <property name="kdenlive:file_size">1089496</property>
  <property name="kdenlive:file_hash">dd01d3aad461586ee70a46d721254543</property>
  <property name="global_feed">1</property>
 </producer>
 <producer id="producer114" in="00:00:00.000" out="00:00:04.967">
  <property name="length">00:00:05.000</property>
  <property name="eof">pause</property>
  <property name="resource">content/flowers/campylgynum truss.jpg</property>
  <property name="ttl">25</property>
  <property name="aspect_ratio">1</property>
  <property name="progressive">1</property>
  <property name="seekable">1</property>
  <property name="meta.media.width">4288</property>
  <property name="meta.media.height">2848</property>
  <property name="mlt_service">qimage</property>
  <property name="kdenlive:clipname"/>
  <property name="kdenlive:duration">00:00:05.000</property>
  <property name="kdenlive:folderid">121</property>
  <property name="kdenlive:id">52</property>
  <property name="kdenlive:file_size">802343</property>
  <property name="kdenlive:file_hash">99d3737fd96f04bf4a98e1f3012b2792</property>
  <property name="global_feed">1</property>
 </producer>
 <producer id="producer118" in="00:00:00.000" out="00:00:04.967">
  <property name="length">00:00:05.000</property>
  <property name="eof">pause</property>
  <property name="resource">content/flowers/ever red truss.jpg</property>
  <property name="ttl">25</property>
  <property name="aspect_ratio">1</property>
  <property name="progressive">1</property>
  <property name="seekable">1</property>
  <property name="meta.media.width">4288</property>
  <property name="meta.media.height">2848</property>
  <property name="mlt_service">qimage</property>
  <property name="kdenlive:clipname"/>
  <property name="kdenlive:duration">00:00:05.000</property>
  <property name="kdenlive:folderid">121</property>
  <property name="kdenlive:id">53</property>
  <property name="kdenlive:file_size">800301</property>
  <property name="kdenlive:file_hash">f46ecc015a753c3477d4593224af88b6</property>
  <property name="global_feed">1</property>
 </producer>
 <producer id="producer120" in="00:00:00.000" out="00:00:04.967">
  <property name="length">00:00:05.000</property>
  <property name="eof">pause</property>
  <property name="resource">content/flowers/goldstrike truss.jpg</property>
  <property name="ttl">25</property>
  <property name="aspect_ratio">1</property>
  <property name="progressive">1</property>
  <property name="seekable">1</property>
  <property name="meta.media.width">4288</property>
  <property name="meta.media.height">2848</property>
  <property name="mlt_service">qimage</property>
  <property name="kdenlive:clipname"/>
  <property name="kdenlive:duration">00:00:05.000</property>
  <property name="kdenlive:folderid">121</property>
  <property name="kdenlive:id">54</property>
  <property name="kdenlive:file_size">766796</property>
  <property name="kdenlive:file_hash">6283c91d7ba0d7a20263be291a9d0928</property>
  <property name="global_feed">1</property>
 </producer>
 <producer id="producer121" in="00:00:00.000" out="00:00:04.967">
  <property name="length">00:00:05.000</property>
  <property name="eof">pause</property>
  <property name="resource">content/flowers/harry carter truss.jpg</property>
  <property name="ttl">25</property>
  <property name="aspect_ratio">1</property>
  <property name="progressive">1</property>
  <property name="seekable">1</property>
  <property name="meta.media.width">4288</property>
  <property name="meta.media.height">2848</property>
  <property name="mlt_service">qimage</property>
  <property name="kdenlive:clipname"/>
  <property name="kdenlive:duration">00:00:05.000</property>
  <property name="kdenlive:folderid">121</property>
  <property name="kdenlive:id">55</property>
  <property name="kdenlive:file_size">791224</property>
  <property name="kdenlive:file_hash">92eaf9a9cea1f4accae943f35770a49e</property>
 </producer>
 <producer id="producer123" in="00:00:00.000" out="00:00:04.967">
  <property name="length">00:00:05.000</property>
  <property name="eof">pause</property>
  <property name="resource">content/flowers/impeditum truss #2.jpg</property>
  <property name="ttl">25</property>
  <property name="aspect_ratio">1</property>
  <property name="progressive">1</property>
  <property name="seekable">1</property>
  <property name="meta.media.width">4288</property>
  <property name="meta.media.height">2848</property>
  <property name="mlt_service">qimage</property>
  <property name="kdenlive:clipname"/>
  <property name="kdenlive:duration">00:00:05.000</property>
  <property name="kdenlive:folderid">121</property>
  <property name="kdenlive:id">57</property>
  <property name="kdenlive:file_size">293190</property>
  <property name="kdenlive:file_hash">d96ee7f1f5d92ed9d503e01f56c63eff</property>
  <property name="global_feed">1</property>
 </producer>
 <producer id="producer124" in="00:00:00.000" out="00:00:04.967">
  <property name="length">00:00:05.000</property>
  <property name="eof">pause</property>
  <property name="resource">content/flowers/karin truss #2.jpg</property>
  <property name="ttl">25</property>
  <property name="aspect_ratio">1</property>
  <property name="progressive">1</property>
  <property name="seekable">1</property>
  <property name="meta.media.width">4288</property>
  <property name="meta.media.height">2848</property>
  <property name="mlt_service">qimage</property>
  <property name="kdenlive:clipname"/>
  <property name="kdenlive:duration">00:00:05.000</property>
  <property name="kdenlive:folderid">121</property>
  <property name="kdenlive:id">58</property>
  <property name="kdenlive:file_size">1113906</property>
  <property name="kdenlive:file_hash">1317e2047eb98d7916dda9956ba0342b</property>
  <property name="global_feed">1</property>
 </producer>
 <producer id="producer127" in="00:00:00.000" out="00:00:04.967">
  <property name="length">00:00:05.000</property>
  <property name="eof">pause</property>
  <property name="resource">content/flowers/kiusianum benichidori truss.jpg</property>
  <property name="ttl">25</property>
  <property name="aspect_ratio">1</property>
  <property name="progressive">1</property>
  <property name="seekable">1</property>
  <property name="meta.media.width">4288</property>
  <property name="meta.media.height">2848</property>
  <property name="mlt_service">qimage</property>
  <property name="kdenlive:clipname"/>
  <property name="kdenlive:duration">00:00:05.000</property>
  <property name="kdenlive:folderid">121</property>
  <property name="kdenlive:id">59</property>
  <property name="kdenlive:file_size">493372</property>
  <property name="kdenlive:file_hash">df11c96000691f31c6899c8b7c799822</property>
  <property name="global_feed">1</property>
 </producer>
 <producer id="producer128" in="00:00:00.000" out="00:00:04.967">
  <property name="length">00:00:05.000</property>
  <property name="eof">pause</property>
  <property name="resource">content/flowers/laramie truss #1.jpg</property>
  <property name="ttl">25</property>
  <property name="aspect_ratio">1</property>
  <property name="progressive">1</property>
  <property name="seekable">1</property>
  <property name="meta.media.width">4288</property>
  <property name="meta.media.height">2848</property>
  <property name="mlt_service">qimage</property>
  <property name="kdenlive:clipname"/>
  <property name="kdenlive:duration">00:00:05.000</property>
  <property name="kdenlive:folderid">121</property>
  <property name="kdenlive:id">60</property>
  <property name="kdenlive:file_size">876773</property>
  <property name="kdenlive:file_hash">d289754b353bcca0c733ea2d6c116073</property>
  <property name="global_feed">1</property>
 </producer>
 <producer id="producer134" in="00:00:00.000" out="00:00:04.967">
  <property name="length">00:00:05.000</property>
  <property name="eof">pause</property>
  <property name="resource">content/flowers/lems cameo truss.jpg</property>
  <property name="ttl">25</property>
  <property name="aspect_ratio">1</property>
  <property name="progressive">1</property>
  <property name="seekable">1</property>
  <property name="meta.media.width">4288</property>
  <property name="meta.media.height">2848</property>
  <property name="mlt_service">qimage</property>
  <property name="kdenlive:clipname"/>
  <property name="kdenlive:duration">00:00:05.000</property>
  <property name="kdenlive:folderid">121</property>
  <property name="kdenlive:id">61</property>
  <property name="kdenlive:file_size">1313965</property>
  <property name="kdenlive:file_hash">97046c636a8bf5cdb3d0ffc33ec9836d</property>
 </producer>
 <producer id="producer132" in="00:00:00.000" out="00:00:04.967">
  <property name="length">00:00:05.000</property>
  <property name="eof">pause</property>
  <property name="resource">content/flowers/len living truss #2.jpg</property>
  <property name="ttl">25</property>
  <property name="aspect_ratio">1</property>
  <property name="progressive">1</property>
  <property name="seekable">1</property>
  <property name="meta.media.width">4288</property>
  <property name="meta.media.height">2848</property>
  <property name="mlt_service">qimage</property>
  <property name="kdenlive:clipname"/>
  <property name="kdenlive:duration">00:00:05.000</property>
  <property name="kdenlive:folderid">121</property>
  <property name="kdenlive:id">62</property>
  <property name="kdenlive:file_size">820199</property>
  <property name="kdenlive:file_hash">bb9f775a1d5dcbc0a348fb6057feeb36</property>
 </producer>
 <producer id="producer133" in="00:00:00.000" out="00:00:05.800">
  <property name="length">175</property>
  <property name="eof">pause</property>
  <property name="resource">content/flowers/lindy lou truss.jpg</property>
  <property name="ttl">25</property>
  <property name="aspect_ratio">1</property>
  <property name="progressive">1</property>
  <property name="seekable">1</property>
  <property name="meta.media.width">4288</property>
  <property name="meta.media.height">2848</property>
  <property name="mlt_service">qimage</property>
  <property name="kdenlive:clipname"/>
  <property name="kdenlive:duration">00:00:05.000</property>
  <property name="kdenlive:folderid">121</property>
  <property name="kdenlive:id">63</property>
  <property name="kdenlive:file_size">947079</property>
  <property name="kdenlive:file_hash">abf44fb5bbbb06cdb0351ed39c3dfe26</property>
  <property name="global_feed">1</property>
 </producer>
 <producer id="producer137" in="00:00:00.000" out="00:00:04.967">
  <property name="length">00:00:05.000</property>
  <property name="eof">pause</property>
  <property name="resource">content/flowers/maxine childers truss #1.jpg</property>
  <property name="ttl">25</property>
  <property name="aspect_ratio">1</property>
  <property name="progressive">1</property>
  <property name="seekable">1</property>
  <property name="meta.media.width">4288</property>
  <property name="meta.media.height">2848</property>
  <property name="mlt_service">qimage</property>
  <property name="kdenlive:clipname"/>
  <property name="kdenlive:duration">00:00:05.000</property>
  <property name="kdenlive:folderid">121</property>
  <property name="kdenlive:id">64</property>
  <property name="kdenlive:file_size">1114409</property>
  <property name="kdenlive:file_hash">9f6f6acdc5dccadce7b4c53c13cfe388</property>
  <property name="global_feed">1</property>
 </producer>
 <producer id="producer135" in="00:00:00.000" out="00:00:04.967">
  <property name="length">00:00:05.000</property>
  <property name="eof">pause</property>
  <property name="resource">content/flowers/nancy evans truss #1.jpg</property>
  <property name="ttl">25</property>
  <property name="aspect_ratio">1</property>
  <property name="progressive">1</property>
  <property name="seekable">1</property>
  <property name="meta.media.width">4288</property>
  <property name="meta.media.height">2848</property>
  <property name="mlt_service">qimage</property>
  <property name="kdenlive:clipname"/>
  <property name="kdenlive:duration">00:00:05.000</property>
  <property name="kdenlive:folderid">121</property>
  <property name="kdenlive:id">65</property>
  <property name="kdenlive:file_size">1345206</property>
  <property name="kdenlive:file_hash">1276093703f4be31038aac6789d726f4</property>
  <property name="global_feed">1</property>
 </producer>
 <producer id="producer138" in="00:00:00.000" out="00:00:04.967">
  <property name="length">00:00:05.000</property>
  <property name="eof">pause</property>
  <property name="resource">content/flowers/naselle truss #1.jpg</property>
  <property name="ttl">25</property>
  <property name="aspect_ratio">1</property>
  <property name="progressive">1</property>
  <property name="seekable">1</property>
  <property name="meta.media.width">4288</property>
  <property name="meta.media.height">2848</property>
  <property name="mlt_service">qimage</property>
  <property name="kdenlive:clipname"/>
  <property name="kdenlive:duration">00:00:05.000</property>
  <property name="kdenlive:folderid">121</property>
  <property name="kdenlive:id">66</property>
  <property name="kdenlive:file_size">1261664</property>
  <property name="kdenlive:file_hash">c3ac036d5e0ef56c1eee60f98c92fbd3</property>
  <property name="global_feed">1</property>
 </producer>
 <producer id="producer136" in="00:00:00.000" out="00:00:04.967">
  <property name="length">00:00:05.000</property>
  <property name="eof">pause</property>
  <property name="resource">content/flowers/oreotrephes truss.jpg</property>
  <property name="ttl">25</property>
  <property name="aspect_ratio">1</property>
  <property name="progressive">1</property>
  <property name="seekable">1</property>
  <property name="meta.media.width">4288</property>
  <property name="meta.media.height">2848</property>
  <property name="mlt_service">qimage</property>
  <property name="kdenlive:clipname"/>
  <property name="kdenlive:duration">00:00:05.000</property>
  <property name="kdenlive:folderid">121</property>
  <property name="kdenlive:id">67</property>
  <property name="kdenlive:file_size">981462</property>
  <property name="kdenlive:file_hash">d218ab05673884fbc05c21ee7750cb64</property>
  <property name="global_feed">1</property>
 </producer>
 <producer id="producer144" in="00:00:00.000" out="00:00:04.967">
  <property name="length">00:00:05.000</property>
  <property name="eof">pause</property>
  <property name="resource">content/flowers/rubicon truss #1.jpg</property>
  <property name="ttl">25</property>
  <property name="aspect_ratio">1</property>
  <property name="progressive">1</property>
  <property name="seekable">1</property>
  <property name="meta.media.width">4288</property>
  <property name="meta.media.height">2848</property>
  <property name="mlt_service">qimage</property>
  <property name="kdenlive:clipname"/>
  <property name="kdenlive:duration">00:00:05.000</property>
  <property name="kdenlive:folderid">121</property>
  <property name="kdenlive:id">68</property>
  <property name="kdenlive:file_size">1488343</property>
  <property name="kdenlive:file_hash">233af3de0bccd14db1e7af3d3dccb924</property>
 </producer>
 <producer id="producer149" in="00:00:00.000" out="00:00:04.967">
  <property name="length">00:00:05.000</property>
  <property name="eof">pause</property>
  <property name="resource">content/flowers/september song truss.jpg</property>
  <property name="ttl">25</property>
  <property name="aspect_ratio">1</property>
  <property name="progressive">1</property>
  <property name="seekable">1</property>
  <property name="meta.media.width">4288</property>
  <property name="meta.media.height">2848</property>
  <property name="mlt_service">qimage</property>
  <property name="kdenlive:clipname"/>
  <property name="kdenlive:duration">00:00:05.000</property>
  <property name="kdenlive:folderid">121</property>
  <property name="kdenlive:id">69</property>
  <property name="kdenlive:file_size">1255479</property>
  <property name="kdenlive:file_hash">cf791bd01fb8066d7356123a6a4b10c8</property>
  <property name="global_feed">1</property>
 </producer>
 <producer id="producer147" in="00:00:00.000" out="00:00:04.967">
  <property name="length">00:00:05.000</property>
  <property name="eof">pause</property>
  <property name="resource">content/flowers/stenopetalum flower.jpg</property>
  <property name="ttl">25</property>
  <property name="aspect_ratio">1</property>
  <property name="progressive">1</property>
  <property name="seekable">1</property>
  <property name="meta.media.width">4288</property>
  <property name="meta.media.height">2848</property>
  <property name="mlt_service">qimage</property>
  <property name="kdenlive:clipname"/>
  <property name="kdenlive:duration">00:00:05.000</property>
  <property name="kdenlive:folderid">121</property>
  <property name="kdenlive:id">70</property>
  <property name="kdenlive:file_size">866047</property>
  <property name="kdenlive:file_hash">6b9910dfcd939507b0e82a6a8300c348</property>
  <property name="global_feed">1</property>
 </producer>
 <producer id="producer152" in="00:00:00.000" out="00:00:04.967">
  <property name="length">00:00:05.000</property>
  <property name="eof">pause</property>
  <property name="resource">#ff000000</property>
  <property name="aspect_ratio">1</property>
  <property name="mlt_service">color</property>
  <property name="kdenlive:clipname">sarah line hider</property>
  <property name="kdenlive:duration">00:00:05.000</property>
  <property name="kdenlive:folderid">-1</property>
  <property name="kdenlive:id">71</property>
  <property name="mlt_image_format">rgb24</property>
  <property name="kdenlive:file_hash">039b56a692cd66eefeea44a17539e5a2</property>
 </producer>
 <producer id="producer5" in="00:00:00.000" out="00:01:34.567">
  <property name="length">2838</property>
  <property name="eof">pause</property>
  <property name="resource">content/musicians/2021-02-06_Chris_synth+4k_sarah_P1180161-take2_start.MP4</property>
  <property name="audio_index">1</property>
  <property name="video_index">0</property>
  <property name="mute_on_pause">0</property>
  <property name="mlt_service">avformat-novalidate</property>
  <property name="seekable">1</property>
  <property name="aspect_ratio">1</property>
  <property name="kdenlive:clipname">2021-02-06_Chris_synth+4k_sarah_P1180161-take2_start.MP4</property>
  <property name="kdenlive:folderid">22</property>
  <property name="kdenlive:id">2</property>
  <property name="kdenlive:file_size">1132989340</property>
  <property name="kdenlive:file_hash">da970b83fbe60ca04de6e51c97c1f0e2</property>
  <property name="kdenlive:audio_max">1</property>
  <property name="global_feed">1</property>
  <property name="kdenlive:proxy">-</property>
  <property name="kdenlive:originalurl">content/musicians/2021-02-06_Chris_synth+4k_sarah_P1180161-take2_start.MP4</property>
  <property name="meta.media.nb_streams">2</property>
  <property name="meta.media.0.stream.type">video</property>
  <property name="meta.media.0.stream.frame_rate">29.97</property>
  <property name="meta.media.0.stream.sample_aspect_ratio">1</property>
  <property name="meta.media.0.codec.width">3840</property>
  <property name="meta.media.0.codec.height">2160</property>
  <property name="meta.media.0.codec.rotate">0</property>
  <property name="meta.media.0.codec.frame_rate">29.97</property>
  <property name="meta.media.0.codec.pix_fmt">yuvj420p</property>
  <property name="meta.media.0.codec.sample_aspect_ratio">1</property>
  <property name="meta.media.0.codec.colorspace">709</property>
  <property name="meta.media.0.codec.color_trc">1</property>
  <property name="meta.media.0.codec.name">h264</property>
  <property name="meta.media.0.codec.long_name">H.264 / AVC / MPEG-4 AVC / MPEG-4 part 10</property>
  <property name="meta.media.0.codec.bit_rate">95752163</property>
  <property name="meta.attr.0.stream.creation_time.markup">2021-06-02T15:49:21.000000Z</property>
  <property name="meta.attr.0.stream.handler_name.markup">VideoHandler</property>
  <property name="meta.media.1.stream.type">audio</property>
  <property name="meta.media.1.codec.sample_fmt">fltp</property>
  <property name="meta.media.1.codec.sample_rate">48000</property>
  <property name="meta.media.1.codec.channels">2</property>
  <property name="meta.media.1.codec.name">aac</property>
  <property name="meta.media.1.codec.long_name">AAC (Advanced Audio Coding)</property>
  <property name="meta.media.1.codec.bit_rate">125360</property>
  <property name="meta.attr.1.stream.creation_time.markup">2021-06-02T15:49:21.000000Z</property>
  <property name="meta.attr.1.stream.handler_name.markup">SoundHandler</property>
  <property name="meta.attr.major_brand.markup">isom</property>
  <property name="meta.attr.minor_version.markup">512</property>
  <property name="meta.attr.compatible_brands.markup">isomiso2avc1mp41</property>
  <property name="meta.attr.creation_time.markup">2021-06-02T15:49:21.000000Z</property>
  <property name="meta.attr.encoder.markup">Lavf58.45.100</property>
  <property name="meta.media.sample_aspect_num">1</property>
  <property name="meta.media.sample_aspect_den">1</property>
  <property name="meta.media.frame_rate_num">30000</property>
  <property name="meta.media.frame_rate_den">1001</property>
  <property name="meta.media.colorspace">709</property>
  <property name="meta.media.color_trc">1</property>
  <property name="meta.media.width">3840</property>
  <property name="meta.media.height">2160</property>
  <property name="meta.media.color_range">full</property>
 </producer>
 <producer id="producer6" in="00:00:00.000" out="00:04:49.833">
  <property name="length">8696</property>
  <property name="eof">pause</property>
  <property name="resource">content/musicians/2021-02-06_Chris_synth+4k_sarah_P1180162-take3_partial_from_bass_solo.MP4</property>
  <property name="audio_index">1</property>
  <property name="video_index">0</property>
  <property name="mute_on_pause">0</property>
  <property name="mlt_service">avformat-novalidate</property>
  <property name="seekable">1</property>
  <property name="aspect_ratio">1</property>
  <property name="kdenlive:clipname">2021-02-06_Chris_synth+4k_sarah_P1180162-take3_partial_from_bass_solo.MP4</property>
  <property name="kdenlive:folderid">22</property>
  <property name="kdenlive:id">3</property>
  <property name="kdenlive:file_size">3475788005</property>
  <property name="kdenlive:file_hash">a281898ead78dab9d417b8c3e676a6c8</property>
  <property name="kdenlive:audio_max">1</property>
  <property name="global_feed">1</property>
  <property name="kdenlive:proxy">-</property>
  <property name="kdenlive:originalurl">content/musicians/2021-02-06_Chris_synth+4k_sarah_P1180162-take3_partial_from_bass_solo.MP4</property>
  <property name="kdenlive:activeeffect">-1</property>
  <property name="meta.media.nb_streams">2</property>
  <property name="meta.media.0.stream.type">video</property>
  <property name="meta.media.0.stream.frame_rate">29.9699</property>
  <property name="meta.media.0.stream.sample_aspect_ratio">1</property>
  <property name="meta.media.0.codec.width">3840</property>
  <property name="meta.media.0.codec.height">2160</property>
  <property name="meta.media.0.codec.rotate">0</property>
  <property name="meta.media.0.codec.frame_rate">29.97</property>
  <property name="meta.media.0.codec.pix_fmt">yuvj420p</property>
  <property name="meta.media.0.codec.sample_aspect_ratio">1</property>
  <property name="meta.media.0.codec.colorspace">709</property>
  <property name="meta.media.0.codec.color_trc">1</property>
  <property name="meta.media.0.codec.name">h264</property>
  <property name="meta.media.0.codec.long_name">H.264 / AVC / MPEG-4 AVC / MPEG-4 part 10</property>
  <property name="meta.media.0.codec.bit_rate">95808168</property>
  <property name="meta.attr.0.stream.handler_name.markup">VideoHandler</property>
  <property name="meta.media.1.stream.type">audio</property>
  <property name="meta.media.1.codec.sample_fmt">fltp</property>
  <property name="meta.media.1.codec.sample_rate">48000</property>
  <property name="meta.media.1.codec.channels">2</property>
  <property name="meta.media.1.codec.name">aac</property>
  <property name="meta.media.1.codec.long_name">AAC (Advanced Audio Coding)</property>
  <property name="meta.media.1.codec.bit_rate">125377</property>
  <property name="meta.attr.1.stream.handler_name.markup">SoundHandler</property>
  <property name="meta.attr.major_brand.markup">isom</property>
  <property name="meta.attr.minor_version.markup">512</property>
  <property name="meta.attr.compatible_brands.markup">isomiso2avc1mp41</property>
  <property name="meta.attr.encoder.markup">Lavf58.45.100</property>
  <property name="meta.media.sample_aspect_num">1</property>
  <property name="meta.media.sample_aspect_den">1</property>
  <property name="meta.media.frame_rate_num">65145000</property>
  <property name="meta.media.frame_rate_den">2173679</property>
  <property name="meta.media.colorspace">709</property>
  <property name="meta.media.color_trc">1</property>
  <property name="meta.media.width">3840</property>
  <property name="meta.media.height">2160</property>
  <property name="meta.media.color_range">full</property>
 </producer>
 <producer id="producer7" in="00:00:00.000" out="00:01:25.100">
  <property name="length">2554</property>
  <property name="eof">pause</property>
  <property name="resource">content/musicians/2021-06-02_Caleb_electric+4k_sarah_P1000551-take2_start.MP4</property>
  <property name="audio_index">1</property>
  <property name="video_index">0</property>
  <property name="mute_on_pause">0</property>
  <property name="mlt_service">avformat-novalidate</property>
  <property name="seekable">1</property>
  <property name="aspect_ratio">1</property>
  <property name="kdenlive:clipname">2021-06-02_Caleb_electric+4k_sarah_P1000551-take2_start.MP4</property>
  <property name="kdenlive:folderid">22</property>
  <property name="kdenlive:id">6</property>
  <property name="kdenlive:file_size">1019834394</property>
  <property name="kdenlive:file_hash">ce779b7974f19632a07732a59b8bd64b</property>
  <property name="kdenlive:audio_max">1</property>
  <property name="global_feed">1</property>
  <property name="kdenlive:proxy">-</property>
  <property name="kdenlive:originalurl">content/musicians/2021-06-02_Caleb_electric+4k_sarah_P1000551-take2_start.MP4</property>
  <property name="kdenlive:activeeffect">0</property>
  <property name="meta.media.nb_streams">2</property>
  <property name="meta.media.0.stream.type">video</property>
  <property name="meta.media.0.stream.frame_rate">29.97</property>
  <property name="meta.media.0.stream.sample_aspect_ratio">1</property>
  <property name="meta.media.0.codec.width">3328</property>
  <property name="meta.media.0.codec.height">2496</property>
  <property name="meta.media.0.codec.rotate">0</property>
  <property name="meta.media.0.codec.frame_rate">29.97</property>
  <property name="meta.media.0.codec.pix_fmt">yuvj420p</property>
  <property name="meta.media.0.codec.sample_aspect_ratio">1</property>
  <property name="meta.media.0.codec.colorspace">709</property>
  <property name="meta.media.0.codec.color_trc">1</property>
  <property name="meta.media.0.codec.name">h264</property>
  <property name="meta.media.0.codec.long_name">H.264 / AVC / MPEG-4 AVC / MPEG-4 part 10</property>
  <property name="meta.media.0.codec.bit_rate">95829617</property>
  <property name="meta.attr.0.stream.creation_time.markup">2021-06-02T15:49:01.000000Z</property>
  <property name="meta.attr.0.stream.handler_name.markup">VideoHandler</property>
  <property name="meta.media.1.stream.type">audio</property>
  <property name="meta.media.1.codec.sample_fmt">fltp</property>
  <property name="meta.media.1.codec.sample_rate">48000</property>
  <property name="meta.media.1.codec.channels">2</property>
  <property name="meta.media.1.codec.name">aac</property>
  <property name="meta.media.1.codec.long_name">AAC (Advanced Audio Coding)</property>
  <property name="meta.media.1.codec.bit_rate">125374</property>
  <property name="meta.attr.1.stream.creation_time.markup">2021-06-02T15:49:01.000000Z</property>
  <property name="meta.attr.1.stream.handler_name.markup">SoundHandler</property>
  <property name="meta.attr.major_brand.markup">isom</property>
  <property name="meta.attr.minor_version.markup">512</property>
  <property name="meta.attr.compatible_brands.markup">isomiso2avc1mp41</property>
  <property name="meta.attr.creation_time.markup">2021-06-02T15:49:01.000000Z</property>
  <property name="meta.attr.encoder.markup">Lavf58.45.100</property>
  <property name="meta.media.sample_aspect_num">1</property>
  <property name="meta.media.sample_aspect_den">1</property>
  <property name="meta.media.frame_rate_num">30000</property>
  <property name="meta.media.frame_rate_den">1001</property>
  <property name="meta.media.colorspace">709</property>
  <property name="meta.media.color_trc">1</property>
  <property name="meta.media.width">3328</property>
  <property name="meta.media.height">2496</property>
  <property name="meta.media.color_range">full</property>
  <filter id="filter3">
   <property name="version">0.6</property>
   <property name="mlt_service">frei0r.select0r</property>
   <property name="kdenlive_id">frei0r.select0r</property>
   <property name="Color to select">0x2e7e2cff</property>
   <property name="Invert selection">1</property>
   <property name="Selection subspace">1</property>
   <property name="Subspace shape">0.5</property>
   <property name="Edge mode">0.9</property>
   <property name="Delta R / A / Hue">00:00:00.000=0.2</property>
   <property name="Delta G / B / Chroma">00:00:00.000=0.2</property>
   <property name="Delta B / I / I">00:00:00.000=0.2</property>
   <property name="Slope">00:00:00.000=0</property>
   <property name="Operation">0.5</property>
   <property name="kdenlive:collapsed">0</property>
  </filter>
 </producer>
 <producer id="producer8" in="00:00:00.000" out="00:04:51.800">
  <property name="length">8755</property>
  <property name="eof">pause</property>
  <property name="resource">content/musicians/2021-06-02_Caleb_electric+4k_sarah_P1000552-take3_from-bass-solo.MP4</property>
  <property name="audio_index">1</property>
  <property name="video_index">0</property>
  <property name="mute_on_pause">0</property>
  <property name="mlt_service">avformat-novalidate</property>
  <property name="seekable">1</property>
  <property name="aspect_ratio">1</property>
  <property name="kdenlive:clipname">2021-06-02_Caleb_electric+4k_sarah_P1000552-take3_from-bass-solo.MP4</property>
  <property name="kdenlive:folderid">22</property>
  <property name="kdenlive:id">7</property>
  <property name="kdenlive:file_size">3501183214</property>
  <property name="kdenlive:file_hash">d744105bb6ea0a63ee18b489cf89062b</property>
  <property name="kdenlive:audio_max">1</property>
  <property name="global_feed">1</property>
  <property name="kdenlive:proxy">-</property>
  <property name="kdenlive:originalurl">content/musicians/2021-06-02_Caleb_electric+4k_sarah_P1000552-take3_from-bass-solo.MP4</property>
  <property name="kdenlive:activeeffect">3</property>
  <property name="meta.media.nb_streams">2</property>
  <property name="meta.media.0.stream.type">video</property>
  <property name="meta.media.0.stream.frame_rate">29.9701</property>
  <property name="meta.media.0.stream.sample_aspect_ratio">1</property>
  <property name="meta.media.0.codec.width">3328</property>
  <property name="meta.media.0.codec.height">2496</property>
  <property name="meta.media.0.codec.rotate">0</property>
  <property name="meta.media.0.codec.frame_rate">29.97</property>
  <property name="meta.media.0.codec.pix_fmt">yuvj420p</property>
  <property name="meta.media.0.codec.sample_aspect_ratio">1</property>
  <property name="meta.media.0.codec.colorspace">709</property>
  <property name="meta.media.0.codec.color_trc">1</property>
  <property name="meta.media.0.codec.name">h264</property>
  <property name="meta.media.0.codec.long_name">H.264 / AVC / MPEG-4 AVC / MPEG-4 part 10</property>
  <property name="meta.media.0.codec.bit_rate">95846667</property>
  <property name="meta.attr.0.stream.handler_name.markup">VideoHandler</property>
  <property name="meta.media.1.stream.type">audio</property>
  <property name="meta.media.1.codec.sample_fmt">fltp</property>
  <property name="meta.media.1.codec.sample_rate">48000</property>
  <property name="meta.media.1.codec.channels">2</property>
  <property name="meta.media.1.codec.name">aac</property>
  <property name="meta.media.1.codec.long_name">AAC (Advanced Audio Coding)</property>
  <property name="meta.media.1.codec.bit_rate">125377</property>
  <property name="meta.attr.1.stream.handler_name.markup">SoundHandler</property>
  <property name="meta.attr.major_brand.markup">isom</property>
  <property name="meta.attr.minor_version.markup">512</property>
  <property name="meta.attr.compatible_brands.markup">isomiso2avc1mp41</property>
  <property name="meta.attr.encoder.markup">Lavf58.45.100</property>
  <property name="meta.media.sample_aspect_num">1</property>
  <property name="meta.media.sample_aspect_den">1</property>
  <property name="meta.media.frame_rate_num">262380000</property>
  <property name="meta.media.frame_rate_den">8754731</property>
  <property name="meta.media.colorspace">709</property>
  <property name="meta.media.color_trc">1</property>
  <property name="meta.media.width">3328</property>
  <property name="meta.media.height">2496</property>
  <property name="meta.media.color_range">full</property>
  <filter id="filter4">
   <property name="version">0.1</property>
   <property name="mlt_service">frei0r.hqdn3d</property>
   <property name="kdenlive_id">frei0r.hqdn3d</property>
   <property name="Spatial">00:00:00.000=0.096</property>
   <property name="Temporal">00:00:00.000=0.094</property>
   <property name="kdenlive:collapsed">0</property>
  </filter>
  <filter id="filter5">
   <property name="version">0.6</property>
   <property name="mlt_service">frei0r.select0r</property>
   <property name="kdenlive_id">frei0r.select0r</property>
   <property name="Color to select">0x65a65cff</property>
   <property name="Invert selection">1</property>
   <property name="Selection subspace">1</property>
   <property name="Subspace shape">1</property>
   <property name="Edge mode">0.9</property>
   <property name="Delta R / A / Hue">00:00:00.000=0.111</property>
   <property name="Delta G / B / Chroma">00:00:00.000=0.365</property>
   <property name="Delta B / I / I">00:00:00.000=0.317</property>
   <property name="Slope">00:00:00.000=0.129</property>
   <property name="Operation">0.5</property>
   <property name="kdenlive:collapsed">0</property>
  </filter>
  <filter id="filter2">
   <property name="version">0.4</property>
   <property name="mlt_service">frei0r.alpha0ps</property>
   <property name="kdenlive_id">frei0r.alpha0ps</property>
   <property name="Display">0</property>
   <property name="Display input alpha">0</property>
   <property name="Operation">1</property>
   <property name="Threshold">00:00:00.000=0.5</property>
   <property name="Shrink/Grow/Blur amount">00:00:00.000=0.087</property>
   <property name="Invert">0</property>
   <property name="kdenlive:collapsed">0</property>
  </filter>
  <filter id="filter6">
   <property name="version">0.3</property>
   <property name="mlt_service">frei0r.keyspillm0pup</property>
   <property name="kdenlive_id">frei0r.keyspillm0pup</property>
   <property name="Key color">0x44b95bff</property>
   <property name="Target color">0xC87F65ff</property>
   <property name="Mask type">0</property>
   <property name="Tolerance">00:00:00.000=0.27</property>
   <property name="Slope">00:00:00.000=0.283</property>
   <property name="Hue gate">00:00:00.000=0.183</property>
   <property name="Saturation threshold">00:00:00.000=0.15</property>
   <property name="Operation 1">1</property>
   <property name="Amount 1">00:00:00.000=0.5</property>
   <property name="Operation 2">4</property>
   <property name="Amount 2">00:00:00.000=0.131</property>
   <property name="Show mask">0</property>
   <property name="Mask to Alpha">0</property>
   <property name="kdenlive:collapsed">0</property>
  </filter>
 </producer>
 <producer id="producer9" in="00:00:00.000" out="00:01:50.367">
  <property name="length">3312</property>
  <property name="eof">pause</property>
  <property name="resource">content/musicians/2021-06-02_161425_Sarah_kit+handheld_sarah-take2_start.mp4</property>
  <property name="audio_index">1</property>
  <property name="video_index">0</property>
  <property name="mute_on_pause">0</property>
  <property name="mlt_service">avformat-novalidate</property>
  <property name="seekable">1</property>
  <property name="aspect_ratio">1</property>
  <property name="kdenlive:clipname">2021-06-02_161425_Sarah_kit+handheld_sarah-take2_start.mp4</property>
  <property name="kdenlive:folderid">22</property>
  <property name="kdenlive:id">10</property>
  <property name="kdenlive:file_size">348056084</property>
  <property name="kdenlive:file_hash">b64ced2cf82c852365aec92ea8da5f55</property>
  <property name="kdenlive:proxy">-</property>
  <property name="kdenlive:originalurl">content/musicians/2021-06-02_161425_Sarah_kit+handheld_sarah-take2_start.mp4</property>
  <property name="global_feed">1</property>
  <property name="kdenlive:activeeffect">0</property>
  <property name="meta.media.nb_streams">2</property>
  <property name="meta.media.0.stream.type">video</property>
  <property name="meta.media.0.stream.frame_rate">59.9401</property>
  <property name="meta.media.0.stream.sample_aspect_ratio">1</property>
  <property name="meta.media.0.codec.width">1920</property>
  <property name="meta.media.0.codec.height">1080</property>
  <property name="meta.media.0.codec.rotate">0</property>
  <property name="meta.media.0.codec.frame_rate">59.9401</property>
  <property name="meta.media.0.codec.pix_fmt">yuv420p</property>
  <property name="meta.media.0.codec.sample_aspect_ratio">1</property>
  <property name="meta.media.0.codec.colorspace">709</property>
  <property name="meta.media.0.codec.name">h264</property>
  <property name="meta.media.0.codec.long_name">H.264 / AVC / MPEG-4 AVC / MPEG-4 part 10</property>
  <property name="meta.media.0.codec.bit_rate">24996996</property>
  <property name="meta.attr.0.stream.handler_name.markup">VideoHandler</property>
  <property name="meta.media.1.stream.type">audio</property>
  <property name="meta.media.1.codec.sample_fmt">fltp</property>
  <property name="meta.media.1.codec.sample_rate">48000</property>
  <property name="meta.media.1.codec.channels">6</property>
  <property name="meta.media.1.codec.name">ac3</property>
  <property name="meta.media.1.codec.long_name">ATSC A/52A (AC-3)</property>
  <property name="meta.media.1.codec.bit_rate">448000</property>
  <property name="meta.attr.1.stream.handler_name.markup">SoundHandler</property>
  <property name="meta.attr.major_brand.markup">isom</property>
  <property name="meta.attr.minor_version.markup">512</property>
  <property name="meta.attr.compatible_brands.markup">isomiso2avc1mp41</property>
  <property name="meta.attr.encoder.markup">Lavf58.45.100</property>
  <property name="meta.media.sample_aspect_num">1</property>
  <property name="meta.media.sample_aspect_den">1</property>
  <property name="meta.media.frame_rate_num">590040000</property>
  <property name="meta.media.frame_rate_den">9843833</property>
  <property name="meta.media.colorspace">709</property>
  <property name="meta.media.color_trc">2</property>
  <property name="meta.media.width">1920</property>
  <property name="meta.media.height">1080</property>
  <property name="meta.media.color_range">mpeg</property>
  <filter id="filter13">
   <property name="version">0.1</property>
   <property name="mlt_service">frei0r.hqdn3d</property>
   <property name="kdenlive_id">frei0r.hqdn3d</property>
   <property name="Spatial">00:00:00.000=0.056</property>
   <property name="Temporal">00:00:00.000=0.06</property>
   <property name="kdenlive:collapsed">0</property>
  </filter>
  <filter id="filter14">
   <property name="version">0.4</property>
   <property name="mlt_service">frei0r.alpha0ps</property>
   <property name="kdenlive_id">frei0r.alpha0ps</property>
   <property name="Display">0</property>
   <property name="Display input alpha">0</property>
   <property name="Operation">1</property>
   <property name="Threshold">00:00:00.000=0.5</property>
   <property name="Shrink/Grow/Blur amount">00:00:00.000=0.1</property>
   <property name="Invert">0</property>
   <property name="kdenlive:collapsed">0</property>
  </filter>
  <filter id="filter15">
   <property name="version">0.3</property>
   <property name="mlt_service">frei0r.keyspillm0pup</property>
   <property name="kdenlive_id">frei0r.keyspillm0pup</property>
   <property name="Key color">0x34a855ff</property>
   <property name="Target color">0xC87F65ff</property>
   <property name="Mask type">0</property>
   <property name="Tolerance">00:00:00.000=0.206</property>
   <property name="Slope">00:00:00.000=0.192</property>
   <property name="Hue gate">00:00:00.000=0.165</property>
   <property name="Saturation threshold">00:00:00.000=0.104</property>
   <property name="Operation 1">1</property>
   <property name="Amount 1">00:00:00.000=0.5</property>
   <property name="Operation 2">3</property>
   <property name="Amount 2">00:00:00.000=0.141</property>
   <property name="Show mask">0</property>
   <property name="Mask to Alpha">0</property>
   <property name="kdenlive:collapsed">0</property>
  </filter>
 </producer>
 <producer id="producer11" in="00:00:00.000" out="00:01:14.033">
  <property name="length">2222</property>
  <property name="eof">pause</property>
  <property name="resource">content/synth_solo_background_mirror_1.mp4</property>
  <property name="audio_index">1</property>
  <property name="video_index">0</property>
  <property name="mute_on_pause">0</property>
  <property name="mlt_service">avformat-novalidate</property>
  <property name="seekable">1</property>
  <property name="aspect_ratio">1</property>
  <property name="kdenlive:clipname">synth_solo_background_mirror_1.mp4</property>
  <property name="kdenlive:folderid">34</property>
  <property name="kdenlive:id">15</property>
  <property name="kdenlive:file_size">129146049</property>
  <property name="kdenlive:file_hash">1f7b4775cbd33b10f9ca73a2148fe2db</property>
  <property name="kdenlive:proxy">-</property>
  <property name="kdenlive:originalurl">content/synth_solo_background_mirror_1.mp4</property>
  <property name="kdenlive:audio_max">2</property>
  <property name="global_feed">1</property>
  <property name="kdenlive:clipzones">[
    {
        "in": 2131,
        "name": "Zone 1",
        "out": 2222
    }
]
</property>
  <property name="meta.media.nb_streams">2</property>
  <property name="meta.media.0.stream.type">video</property>
  <property name="meta.media.0.stream.frame_rate">30</property>
  <property name="meta.media.0.stream.sample_aspect_ratio">1</property>
  <property name="meta.media.0.codec.width">1920</property>
  <property name="meta.media.0.codec.height">1080</property>
  <property name="meta.media.0.codec.rotate">0</property>
  <property name="meta.media.0.codec.frame_rate">30</property>
  <property name="meta.media.0.codec.pix_fmt">yuv420p</property>
  <property name="meta.media.0.codec.sample_aspect_ratio">1</property>
  <property name="meta.media.0.codec.colorspace">709</property>
  <property name="meta.media.0.codec.color_trc">1</property>
  <property name="meta.media.0.codec.name">h264</property>
  <property name="meta.media.0.codec.long_name">H.264 / AVC / MPEG-4 AVC / MPEG-4 part 10</property>
  <property name="meta.media.0.codec.bit_rate">13753251</property>
  <property name="meta.attr.0.stream.handler_name.markup">VideoHandler</property>
  <property name="meta.media.1.stream.type">audio</property>
  <property name="meta.media.1.codec.sample_fmt">fltp</property>
  <property name="meta.media.1.codec.sample_rate">48000</property>
  <property name="meta.media.1.codec.channels">2</property>
  <property name="meta.media.1.codec.name">aac</property>
  <property name="meta.media.1.codec.long_name">AAC (Advanced Audio Coding)</property>
  <property name="meta.media.1.codec.bit_rate">193744</property>
  <property name="meta.attr.1.stream.handler_name.markup">SoundHandler</property>
  <property name="meta.attr.major_brand.markup">isom</property>
  <property name="meta.attr.minor_version.markup">512</property>
  <property name="meta.attr.compatible_brands.markup">isomiso2avc1mp41</property>
  <property name="meta.attr.encoder.markup">Lavf58.45.100</property>
  <property name="meta.media.sample_aspect_num">1</property>
  <property name="meta.media.sample_aspect_den">1</property>
  <property name="meta.media.frame_rate_num">30</property>
  <property name="meta.media.frame_rate_den">1</property>
  <property name="meta.media.colorspace">709</property>
  <property name="meta.media.color_trc">1</property>
  <property name="meta.media.width">1920</property>
  <property name="meta.media.height">1080</property>
  <property name="meta.media.color_range">mpeg</property>
 </producer>
 <producer id="producer12" in="00:00:00.000" out="00:01:13.033">
  <property name="length">2192</property>
  <property name="eof">pause</property>
  <property name="resource">content/trip_mirror.mp4</property>
  <property name="audio_index">1</property>
  <property name="video_index">0</property>
  <property name="mute_on_pause">0</property>
  <property name="mlt_service">avformat-novalidate</property>
  <property name="seekable">1</property>
  <property name="aspect_ratio">1</property>
  <property name="kdenlive:clipname">trip_mirror.mp4</property>
  <property name="kdenlive:folderid">34</property>
  <property name="kdenlive:id">21</property>
  <property name="kdenlive:file_size">134574168</property>
  <property name="kdenlive:file_hash">8c962e8f224ca1462712ef210364f729</property>
  <property name="kdenlive:proxy">-</property>
  <property name="kdenlive:originalurl">content/trip_mirror.mp4</property>
  <property name="kdenlive:audio_max">91</property>
  <property name="global_feed">1</property>
  <property name="kdenlive:active_streams">-1</property>
  <property name="meta.media.nb_streams">2</property>
  <property name="meta.media.0.stream.type">video</property>
  <property name="meta.media.0.stream.frame_rate">30</property>
  <property name="meta.media.0.stream.sample_aspect_ratio">1</property>
  <property name="meta.media.0.codec.width">1920</property>
  <property name="meta.media.0.codec.height">1080</property>
  <property name="meta.media.0.codec.rotate">0</property>
  <property name="meta.media.0.codec.frame_rate">30</property>
  <property name="meta.media.0.codec.pix_fmt">yuv420p</property>
  <property name="meta.media.0.codec.sample_aspect_ratio">1</property>
  <property name="meta.media.0.codec.colorspace">709</property>
  <property name="meta.media.0.codec.color_trc">1</property>
  <property name="meta.media.0.codec.name">h264</property>
  <property name="meta.media.0.codec.long_name">H.264 / AVC / MPEG-4 AVC / MPEG-4 part 10</property>
  <property name="meta.media.0.codec.bit_rate">14730567</property>
  <property name="meta.attr.0.stream.handler_name.markup">VideoHandler</property>
  <property name="meta.media.1.stream.type">audio</property>
  <property name="meta.media.1.codec.sample_fmt">fltp</property>
  <property name="meta.media.1.codec.sample_rate">48000</property>
  <property name="meta.media.1.codec.channels">2</property>
  <property name="meta.media.1.codec.name">aac</property>
  <property name="meta.media.1.codec.long_name">AAC (Advanced Audio Coding)</property>
  <property name="meta.media.1.codec.bit_rate">2276</property>
  <property name="meta.attr.1.stream.handler_name.markup">SoundHandler</property>
  <property name="meta.attr.major_brand.markup">isom</property>
  <property name="meta.attr.minor_version.markup">512</property>
  <property name="meta.attr.compatible_brands.markup">isomiso2avc1mp41</property>
  <property name="meta.attr.encoder.markup">Lavf58.45.100</property>
  <property name="meta.media.sample_aspect_num">1</property>
  <property name="meta.media.sample_aspect_den">1</property>
  <property name="meta.media.frame_rate_num">30</property>
  <property name="meta.media.frame_rate_den">1</property>
  <property name="meta.media.colorspace">709</property>
  <property name="meta.media.color_trc">1</property>
  <property name="meta.media.width">1920</property>
  <property name="meta.media.height">1080</property>
  <property name="meta.media.color_range">mpeg</property>
 </producer>
 <producer id="producer13" in="00:00:00.000" out="00:00:44.033">
  <property name="length">1322</property>
  <property name="eof">pause</property>
  <property name="resource">content/trusses_rotating.mp4</property>
  <property name="audio_index">1</property>
  <property name="video_index">0</property>
  <property name="mute_on_pause">0</property>
  <property name="mlt_service">avformat-novalidate</property>
  <property name="seekable">1</property>
  <property name="aspect_ratio">1</property>
  <property name="kdenlive:clipname">trusses_rotating.mp4</property>
  <property name="kdenlive:folderid">34</property>
  <property name="kdenlive:id">23</property>
  <property name="kdenlive:file_size">6095429</property>
  <property name="kdenlive:file_hash">c3f09fd208df8cdb6b8c693ff3c337b6</property>
  <property name="kdenlive:proxy">-</property>
  <property name="kdenlive:originalurl">content/trusses_rotating.mp4</property>
  <property name="kdenlive:audio_max">6</property>
  <property name="global_feed">1</property>
  <property name="meta.media.nb_streams">2</property>
  <property name="meta.media.0.stream.type">video</property>
  <property name="meta.media.0.stream.frame_rate">30</property>
  <property name="meta.media.0.stream.sample_aspect_ratio">1</property>
  <property name="meta.media.0.codec.width">1920</property>
  <property name="meta.media.0.codec.height">1080</property>
  <property name="meta.media.0.codec.rotate">0</property>
  <property name="meta.media.0.codec.frame_rate">30</property>
  <property name="meta.media.0.codec.pix_fmt">yuv420p</property>
  <property name="meta.media.0.codec.sample_aspect_ratio">1</property>
  <property name="meta.media.0.codec.colorspace">709</property>
  <property name="meta.media.0.codec.color_trc">1</property>
  <property name="meta.media.0.codec.name">h264</property>
  <property name="meta.media.0.codec.long_name">H.264 / AVC / MPEG-4 AVC / MPEG-4 part 10</property>
  <property name="meta.media.0.codec.bit_rate">842590</property>
  <property name="meta.attr.0.stream.handler_name.markup">VideoHandler</property>
  <property name="meta.media.1.stream.type">audio</property>
  <property name="meta.media.1.codec.sample_fmt">fltp</property>
  <property name="meta.media.1.codec.sample_rate">48000</property>
  <property name="meta.media.1.codec.channels">2</property>
  <property name="meta.media.1.codec.name">aac</property>
  <property name="meta.media.1.codec.long_name">AAC (Advanced Audio Coding)</property>
  <property name="meta.media.1.codec.bit_rate">255977</property>
  <property name="meta.attr.1.stream.handler_name.markup">SoundHandler</property>
  <property name="meta.attr.major_brand.markup">isom</property>
  <property name="meta.attr.minor_version.markup">512</property>
  <property name="meta.attr.compatible_brands.markup">isomiso2avc1mp41</property>
  <property name="meta.attr.encoder.markup">Lavf58.45.100</property>
  <property name="meta.media.sample_aspect_num">1</property>
  <property name="meta.media.sample_aspect_den">1</property>
  <property name="meta.media.frame_rate_num">30</property>
  <property name="meta.media.frame_rate_den">1</property>
  <property name="meta.media.colorspace">709</property>
  <property name="meta.media.color_trc">1</property>
  <property name="meta.media.width">1920</property>
  <property name="meta.media.height">1080</property>
  <property name="meta.media.color_range">mpeg</property>
 </producer>
 <producer id="producer14" in="00:00:00.000" out="00:00:44.067">
  <property name="length">1323</property>
  <property name="eof">pause</property>
  <property name="resource">content/trusses_rotating_mirror.mp4</property>
  <property name="audio_index">1</property>
  <property name="video_index">0</property>
  <property name="mute_on_pause">0</property>
  <property name="mlt_service">avformat-novalidate</property>
  <property name="seekable">1</property>
  <property name="aspect_ratio">1</property>
  <property name="kdenlive:clipname">trusses_rotating_mirror.mp4</property>
  <property name="kdenlive:folderid">34</property>
  <property name="kdenlive:id">24</property>
  <property name="kdenlive:file_size">8626700</property>
  <property name="kdenlive:file_hash">798d1c3462c3415c362ab562d1bb0c39</property>
  <property name="kdenlive:proxy">-</property>
  <property name="kdenlive:originalurl">content/trusses_rotating_mirror.mp4</property>
  <property name="kdenlive:audio_max">6</property>
  <property name="global_feed">1</property>
  <property name="meta.media.nb_streams">2</property>
  <property name="meta.media.0.stream.type">video</property>
  <property name="meta.media.0.stream.frame_rate">30</property>
  <property name="meta.media.0.stream.sample_aspect_ratio">1</property>
  <property name="meta.media.0.codec.width">1920</property>
  <property name="meta.media.0.codec.height">1080</property>
  <property name="meta.media.0.codec.rotate">0</property>
  <property name="meta.media.0.codec.frame_rate">30</property>
  <property name="meta.media.0.codec.pix_fmt">yuv420p</property>
  <property name="meta.media.0.codec.sample_aspect_ratio">1</property>
  <property name="meta.media.0.codec.colorspace">709</property>
  <property name="meta.media.0.codec.color_trc">1</property>
  <property name="meta.media.0.codec.name">h264</property>
  <property name="meta.media.0.codec.long_name">H.264 / AVC / MPEG-4 AVC / MPEG-4 part 10</property>
  <property name="meta.media.0.codec.bit_rate">1301541</property>
  <property name="meta.attr.0.stream.handler_name.markup">VideoHandler</property>
  <property name="meta.media.1.stream.type">audio</property>
  <property name="meta.media.1.codec.sample_fmt">fltp</property>
  <property name="meta.media.1.codec.sample_rate">48000</property>
  <property name="meta.media.1.codec.channels">2</property>
  <property name="meta.media.1.codec.name">aac</property>
  <property name="meta.media.1.codec.long_name">AAC (Advanced Audio Coding)</property>
  <property name="meta.media.1.codec.bit_rate">255789</property>
  <property name="meta.attr.1.stream.handler_name.markup">SoundHandler</property>
  <property name="meta.attr.major_brand.markup">isom</property>
  <property name="meta.attr.minor_version.markup">512</property>
  <property name="meta.attr.compatible_brands.markup">isomiso2avc1mp41</property>
  <property name="meta.attr.encoder.markup">Lavf58.45.100</property>
  <property name="meta.media.sample_aspect_num">1</property>
  <property name="meta.media.sample_aspect_den">1</property>
  <property name="meta.media.frame_rate_num">30</property>
  <property name="meta.media.frame_rate_den">1</property>
  <property name="meta.media.colorspace">709</property>
  <property name="meta.media.color_trc">1</property>
  <property name="meta.media.width">1920</property>
  <property name="meta.media.height">1080</property>
  <property name="meta.media.color_range">mpeg</property>
 </producer>
 <playlist id="main_bin">
  <property name="kdenlive:folder.-1.22">musicians</property>
  <property name="kdenlive:folder.-1.34">animal_textures</property>
  <property name="kdenlive:folder.-1.121">flowers</property>
  <property name="kdenlive:folder.34.56">stills</property>
  <property name="kdenlive:docproperties.activeTrack">1</property>
  <property name="kdenlive:docproperties.audioChannels">2</property>
  <property name="kdenlive:docproperties.audioTarget">-1</property>
  <property name="kdenlive:docproperties.compositing">2</property>
  <property name="kdenlive:docproperties.dirtypreviewchunks"/>
  <property name="kdenlive:docproperties.disablepreview">0</property>
  <property name="kdenlive:docproperties.disabletimelineeffects">1</property>
  <property name="kdenlive:docproperties.documentid">1622300596310</property>
  <property name="kdenlive:docproperties.enableTimelineZone">0</property>
  <property name="kdenlive:docproperties.enableexternalproxy">0</property>
  <property name="kdenlive:docproperties.enableproxy">0</property>
  <property name="kdenlive:docproperties.externalproxyparams">../Sub;;S03.MP4;../Clip;;.MXF</property>
  <property name="kdenlive:docproperties.generateimageproxy">0</property>
  <property name="kdenlive:docproperties.generateproxy">1</property>
  <property name="kdenlive:docproperties.groups">[
]
</property>
  <property name="kdenlive:docproperties.guides">[
    {
        "comment": "clap",
        "pos": 383,
        "type": 0
    },
    {
        "comment": "start",
        "pos": 116,
        "type": 2
    },
    {
        "comment": "audio start",
        "pos": 210,
        "type": 4
    },
    {
        "comment": "flower dance",
        "pos": 40011,
        "type": 8
    },
    {
        "comment": "clap",
        "pos": 40074,
        "type": 0
    },
    {
        "comment": "guide",
        "pos": 40112,
        "type": 0
    },
    {
        "comment": "guide",
        "pos": 40130,
        "type": 0
    },
    {
        "comment": "guide",
        "pos": 40187,
        "type": 0
    },
    {
        "comment": "guide",
        "pos": 40226,
        "type": 0
    },
    {
        "comment": "guide",
        "pos": 40245,
        "type": 0
    },
    {
        "comment": "guide",
        "pos": 40281,
        "type": 0
    },
    {
        "comment": "guide",
        "pos": 40310,
        "type": 0
    },
    {
        "comment": "guide",
        "pos": 40338,
        "type": 0
    },
    {
        "comment": "guide",
        "pos": 40357,
        "type": 0
    },
    {
        "comment": "guide",
        "pos": 40395,
        "type": 0
    },
    {
        "comment": "guide",
        "pos": 40451,
        "type": 0
    },
    {
        "comment": "guide",
        "pos": 40470,
        "type": 0
    },
    {
        "comment": "guide",
        "pos": 40507,
        "type": 0
    },
    {
        "comment": "guide",
        "pos": 40580,
        "type": 0
    },
    {
        "comment": "guide",
        "pos": 40637,
        "type": 0
    },
    {
        "comment": "guide",
        "pos": 40693,
        "type": 0
    },
    {
        "comment": "guide",
        "pos": 40749,
        "type": 0
    },
    {
        "comment": "guide",
        "pos": 40805,
        "type": 0
    },
    {
        "comment": "guide",
        "pos": 40861,
        "type": 0
    },
    {
        "comment": "guide",
        "pos": 40917,
        "type": 0
    },
    {
        "comment": "guide",
        "pos": 41031,
        "type": 0
    },
    {
        "comment": "guide",
        "pos": 41144,
        "type": 0
    },
    {
        "comment": "guide",
        "pos": 41200,
        "type": 0
    },
    {
        "comment": "guide",
        "pos": 41255,
        "type": 0
    },
    {
        "comment": "guide",
        "pos": 41311,
        "type": 0
    },
    {
        "comment": "guide",
        "pos": 1261,
        "type": 0
    },
    {
        "comment": "guide",
        "pos": 1274,
        "type": 0
    },
    {
        "comment": "guide",
        "pos": 1283,
        "type": 0
    },
    {
        "comment": "guide",
        "pos": 1329,
        "type": 0
    },
    {
        "comment": "guide",
        "pos": 1214,
        "type": 0
    },
    {
        "comment": "cymbol",
        "pos": 1184,
        "type": 0
    },
    {
        "comment": "guide",
        "pos": 1156,
        "type": 0
    },
    {
        "comment": "guide",
        "pos": 981,
        "type": 0
    },
    {
        "comment": "guide",
        "pos": 921,
        "type": 0
    },
    {
        "comment": "guide",
        "pos": 861,
        "type": 0
    },
    {
        "comment": "guide",
        "pos": 812,
        "type": 0
    },
    {
        "comment": "guide",
        "pos": 683,
        "type": 0
    },
    {
        "comment": "guide",
        "pos": 743,
        "type": 0
    },
    {
        "comment": "guide",
        "pos": 633,
        "type": 0
    },
    {
        "comment": "guide",
        "pos": 564,
        "type": 0
    },
    {
        "comment": "clap",
        "pos": 424,
        "type": 0
    },
    {
        "comment": "clap",
        "pos": 322,
        "type": 0
    },
    {
        "comment": "clap",
        "pos": 262,
        "type": 0
    },
    {
        "comment": "guide",
        "pos": 484,
        "type": 0
    },
    {
        "comment": "bass solo",
        "pos": 1427,
        "type": 4
    },
    {
        "comment": "synth solo",
        "pos": 4594,
        "type": 4
    },
    {
        "comment": "end_synth_solo",
        "pos": 6609,
        "type": 5
    },
    {
        "comment": "trip start",
        "pos": 7080,
        "type": 0
    },
    {
        "comment": "snare hit",
        "pos": 7816,
        "type": 0
    },
    {
        "comment": "end",
        "pos": 10322,
        "type": 2
    },
    {
        "comment": "flowers start",
        "pos": 432,
        "type": 1
    },
    {
        "comment": "guide",
        "pos": 1402,
        "type": 1
    },
    {
        "comment": "guide",
        "pos": 1501,
        "type": 0
    },
    {
        "comment": "guide",
        "pos": 1444,
        "type": 0
    },
    {
        "comment": "guide",
        "pos": 1439,
        "type": 0
    },
    {
        "comment": "guide",
        "pos": 1559,
        "type": 0
    },
    {
        "comment": "guide",
        "pos": 1673,
        "type": 0
    },
    {
        "comment": "guide",
        "pos": 1616,
        "type": 0
    },
    {
        "comment": "guide",
        "pos": 1577,
        "type": 1
    },
    {
        "comment": "guide",
        "pos": 1692,
        "type": 1
    },
    {
        "comment": "guide",
        "pos": 1739,
        "type": 1
    },
    {
        "comment": "guide",
        "pos": 1803,
        "type": 1
    },
    {
        "comment": "guide",
        "pos": 1830,
        "type": 1
    },
    {
        "comment": "guide",
        "pos": 1854,
        "type": 1
    },
    {
        "comment": "guide",
        "pos": 1880,
        "type": 1
    },
    {
        "comment": "guide",
        "pos": 1947,
        "type": 1
    },
    {
        "comment": "guide",
        "pos": 1787,
        "type": 0
    },
    {
        "comment": "guide",
        "pos": 1834,
        "type": 0
    },
    {
        "comment": "guide",
        "pos": 1853,
        "type": 0
    },
    {
        "comment": "guide",
        "pos": 1901,
        "type": 0
    },
    {
        "comment": "guide",
        "pos": 1957,
        "type": 0
    },
    {
        "comment": "guide",
        "pos": 1995,
        "type": 0
    },
    {
        "comment": "guide",
        "pos": 2014,
        "type": 0
    },
    {
        "comment": "guide",
        "pos": 1894,
        "type": 2
    },
    {
        "comment": "guide",
        "pos": 1040,
        "type": 0
    },
    {
        "comment": "guide",
        "pos": 1098,
        "type": 0
    },
    {
        "comment": "trip mirror",
        "pos": 12600,
        "type": 8
    }
]
</property>
  <property name="kdenlive:docproperties.kdenliveversion">21.04.3</property>
  <property name="kdenlive:docproperties.position">10001</property>
  <property name="kdenlive:docproperties.previewchunks"/>
  <property name="kdenlive:docproperties.previewextension">mov</property>
  <property name="kdenlive:docproperties.previewparameters">r=30 s=1920x1080 vb=45M threads=0 vcodec=dnxhd progressive=1</property>
  <property name="kdenlive:docproperties.profile">atsc_1080p_30</property>
  <property name="kdenlive:docproperties.proxyextension"/>
  <property name="kdenlive:docproperties.proxyimageminsize">2000</property>
  <property name="kdenlive:docproperties.proxyimagesize">800</property>
  <property name="kdenlive:docproperties.proxyminsize">1920</property>
  <property name="kdenlive:docproperties.proxyparams"/>
  <property name="kdenlive:docproperties.renderaudioquality">192</property>
  <property name="kdenlive:docproperties.rendercategory">Generic (HD for web, mobile devices...)</property>
  <property name="kdenlive:docproperties.renderendguide">0</property>
  <property name="kdenlive:docproperties.renderexportaudio">0</property>
  <property name="kdenlive:docproperties.renderfield">0</property>
  <property name="kdenlive:docproperties.renderguide">0</property>
  <property name="kdenlive:docproperties.renderplay">0</property>
  <property name="kdenlive:docproperties.renderprofile">MP4-H264/AAC</property>
  <property name="kdenlive:docproperties.renderquality">21</property>
  <property name="kdenlive:docproperties.renderratio">1</property>
  <property name="kdenlive:docproperties.renderrescale">0</property>
  <property name="kdenlive:docproperties.renderrescaleheight">540</property>
  <property name="kdenlive:docproperties.renderrescalewidth">960</property>
  <property name="kdenlive:docproperties.renderscanning">0</property>
  <property name="kdenlive:docproperties.renderspeed">2</property>
  <property name="kdenlive:docproperties.renderstartguide">0</property>
  <property name="kdenlive:docproperties.rendertcoverlay">0</property>
  <property name="kdenlive:docproperties.rendertctype">0</property>
  <property name="kdenlive:docproperties.rendertwopass">0</property>
  <property name="kdenlive:docproperties.renderurl">hot_bod_v2.mp4</property>
  <property name="kdenlive:docproperties.renderzone">1</property>
  <property name="kdenlive:docproperties.scrollPos">1045</property>
  <property name="kdenlive:docproperties.seekOffset">30000</property>
  <property name="kdenlive:docproperties.version">1</property>
  <property name="kdenlive:docproperties.verticalzoom">1</property>
  <property name="kdenlive:docproperties.videoTarget">-1</property>
  <property name="kdenlive:docproperties.zonein">116</property>
  <property name="kdenlive:docproperties.zoneout">10322</property>
  <property name="kdenlive:docproperties.zoom">9</property>
  <property name="kdenlive:expandedFolders">56</property>
  <property name="kdenlive:documentnotes"/>
  <property name="xml_retain">1</property>
  <entry producer="producer20" in="00:00:00.000" out="00:04:52.800"/>
  <entry producer="producer19" in="00:00:00.000" out="00:04:48.267"/>
  <entry producer="producer23" in="00:00:00.000" out="00:03:25.633"/>
  <entry producer="producer25" in="00:00:00.000" out="00:05:23.967"/>
  <entry producer="producer42" in="00:00:00.000" out="00:00:44.000"/>
  <entry producer="producer33" in="00:00:00.000" out="00:01:14.000"/>
  <entry producer="producer34" in="00:00:00.000" out="00:01:27.000"/>
  <entry producer="producer35" in="00:00:00.000" out="00:00:31.000"/>
  <entry producer="producer36" in="00:00:00.000" out="00:00:11.000"/>
  <entry producer="producer37" in="00:00:00.000" out="00:00:26.000"/>
  <entry producer="producer38" in="00:00:00.000" out="00:01:13.000"/>
  <entry producer="producer39" in="00:00:00.000" out="00:01:13.000"/>
  <entry producer="producer40" in="00:00:00.000" out="00:01:13.000"/>
  <entry producer="producer105" in="00:00:00.000" out="00:00:11.833"/>
  <entry producer="producer46" in="00:00:00.000" out="00:00:04.967"/>
  <entry producer="producer48" in="00:00:00.000" out="00:00:04.967"/>
  <entry producer="producer54" in="00:00:00.000" out="00:00:04.967"/>
  <entry producer="producer56" in="00:00:00.000" out="00:00:04.967"/>
  <entry producer="producer59" in="00:00:00.000" out="00:00:04.967"/>
  <entry producer="producer61" in="00:00:00.000" out="00:00:04.967"/>
  <entry producer="producer64" in="00:00:00.000" out="00:00:04.967"/>
  <entry producer="producer70" in="00:00:00.000" out="00:00:04.967"/>
  <entry producer="producer71" in="00:00:00.000" out="00:00:04.967"/>
  <entry producer="producer74" in="00:00:00.000" out="00:00:04.967"/>
  <entry producer="producer80" in="00:00:00.000" out="00:00:04.967"/>
  <entry producer="producer84" in="00:00:00.000" out="00:00:04.967"/>
  <entry producer="producer86" in="00:00:00.000" out="00:00:04.967"/>
  <entry producer="producer89" in="00:00:00.000" out="00:00:04.967"/>
  <entry producer="producer101" in="00:00:00.000" out="00:00:04.967"/>
  <entry producer="producer103" in="00:00:00.000" out="00:00:04.967"/>
  <entry producer="producer106" in="00:00:00.000" out="00:00:04.967"/>
  <entry producer="producer2" in="00:00:00.000" out="00:00:04.967"/>
  <entry producer="producer1" in="00:00:00.000" out="00:00:04.967"/>
  <entry producer="producer0" in="00:00:00.000" out="00:00:04.967"/>
  <entry producer="producer3" in="00:00:00.000" out="00:00:04.967"/>
  <entry producer="producer4" in="00:00:00.000" out="00:00:04.967"/>
  <entry producer="producer112" in="00:00:00.000" out="00:00:04.967"/>
  <entry producer="producer10" in="00:00:00.000" out="00:00:04.967"/>
  <entry producer="producer129" in="00:00:00.000" out="00:00:05.133"/>
  <entry producer="producer114" in="00:00:00.000" out="00:00:04.967"/>
  <entry producer="producer118" in="00:00:00.000" out="00:00:04.967"/>
  <entry producer="producer120" in="00:00:00.000" out="00:00:04.967"/>
  <entry producer="producer121" in="00:00:00.000" out="00:00:04.967"/>
  <entry producer="producer123" in="00:00:00.000" out="00:00:04.967"/>
  <entry producer="producer124" in="00:00:00.000" out="00:00:04.967"/>
  <entry producer="producer127" in="00:00:00.000" out="00:00:04.967"/>
  <entry producer="producer128" in="00:00:00.000" out="00:00:04.967"/>
  <entry producer="producer134" in="00:00:00.000" out="00:00:04.967"/>
  <entry producer="producer132" in="00:00:00.000" out="00:00:04.967"/>
  <entry producer="producer133" in="00:00:00.000" out="00:00:05.800"/>
  <entry producer="producer137" in="00:00:00.000" out="00:00:04.967"/>
  <entry producer="producer135" in="00:00:00.000" out="00:00:04.967"/>
  <entry producer="producer138" in="00:00:00.000" out="00:00:04.967"/>
  <entry producer="producer136" in="00:00:00.000" out="00:00:04.967"/>
  <entry producer="producer144" in="00:00:00.000" out="00:00:04.967"/>
  <entry producer="producer149" in="00:00:00.000" out="00:00:04.967"/>
  <entry producer="producer147" in="00:00:00.000" out="00:00:04.967"/>
  <entry producer="producer152" in="00:00:00.000" out="00:00:04.967"/>
  <entry producer="producer5" in="00:00:00.000" out="00:01:34.567"/>
  <entry producer="producer6" in="00:00:00.000" out="00:04:49.833"/>
  <entry producer="producer7" in="00:00:00.000" out="00:01:25.100"/>
  <entry producer="producer8" in="00:00:00.000" out="00:04:51.800"/>
  <entry producer="producer9" in="00:00:00.000" out="00:01:50.367"/>
  <entry producer="producer11" in="00:00:00.000" out="00:01:14.033"/>
  <entry producer="producer12" in="00:00:00.000" out="00:01:13.033"/>
  <entry producer="producer13" in="00:00:00.000" out="00:00:44.033"/>
  <entry producer="producer14" in="00:00:00.000" out="00:00:44.067"/>
 </playlist>
 <producer id="black_track" in="00:00:00.000" out="00:39:37.733">
  <property name="length">2147483647</property>
  <property name="eof">continue</property>
  <property name="resource">black</property>
  <property name="aspect_ratio">1</property>
  <property name="mlt_service">color</property>
  <property name="mlt_image_format">rgb24a</property>
  <property name="set.test_audio">0</property>
 </producer>
 <playlist id="playlist0">
  <property name="kdenlive:audio_track">1</property>
 </playlist>
 <playlist id="playlist1"/>
 <tractor id="tractor0" in="00:00:00.000">
  <property name="kdenlive:audio_track">1</property>
  <property name="kdenlive:trackheight">69</property>
  <property name="kdenlive:timeline_active">1</property>
  <property name="kdenlive:collapsed">0</property>
  <property name="kdenlive:thumbs_format"/>
  <property name="kdenlive:audio_rec"/>
  <property name="kdenlive:locked_track">1</property>
  <track hide="both" producer="playlist0"/>
  <track hide="video" producer="playlist1"/>
  <filter id="filter16">
   <property name="window">75</property>
   <property name="max_gain">20dB</property>
   <property name="mlt_service">volume</property>
   <property name="internal_added">237</property>
  </filter>
  <filter id="filter17">
   <property name="channel">-1</property>
   <property name="mlt_service">panner</property>
   <property name="internal_added">237</property>
   <property name="start">0.5</property>
  </filter>
  <filter id="filter0">
   <property name="iec_scale">0</property>
   <property name="mlt_service">audiolevel</property>
   <property name="disable">1</property>
  </filter>
 </tractor>
 <playlist id="playlist2">
  <property name="kdenlive:audio_track">1</property>
 </playlist>
 <playlist id="playlist3"/>
 <tractor id="tractor1" in="00:00:00.000">
  <property name="kdenlive:audio_track">1</property>
  <property name="kdenlive:trackheight">69</property>
  <property name="kdenlive:timeline_active">1</property>
  <property name="kdenlive:collapsed">0</property>
  <property name="kdenlive:thumbs_format"/>
  <property name="kdenlive:audio_rec"/>
  <property name="kdenlive:locked_track">1</property>
  <track hide="video" producer="playlist2"/>
  <track hide="video" producer="playlist3"/>
  <filter id="filter19">
   <property name="window">75</property>
   <property name="max_gain">20dB</property>
   <property name="mlt_service">volume</property>
   <property name="internal_added">237</property>
  </filter>
  <filter id="filter20">
   <property name="channel">-1</property>
   <property name="mlt_service">panner</property>
   <property name="internal_added">237</property>
   <property name="start">0.5</property>
  </filter>
  <filter id="filter1">
   <property name="iec_scale">0</property>
   <property name="mlt_service">audiolevel</property>
   <property name="disable">1</property>
  </filter>
 </tractor>
 <producer id="producer155" in="00:00:00.000" out="00:00:11.000">
  <property name="length">331</property>
  <property name="eof">pause</property>
  <property name="resource">content/hot_bod_180000_53a16a2d_after_synth.mp4</property>
  <property name="audio_index">1</property>
  <property name="video_index">0</property>
  <property name="mute_on_pause">0</property>
  <property name="mlt_service">avformat-novalidate</property>
  <property name="seekable">1</property>
  <property name="aspect_ratio">1</property>
  <property name="kdenlive:clipname"/>
  <property name="kdenlive:folderid">34</property>
  <property name="kdenlive:id">16</property>
  <property name="kdenlive:file_size">4457845</property>
  <property name="kdenlive:file_hash">2d8d167ad6e01b8b79d89451214523d7</property>
  <property name="kdenlive:audio_max">4</property>
  <property name="global_feed">1</property>
  <property name="xml">was here</property>
  <property name="meta.media.nb_streams">2</property>
  <property name="meta.media.0.stream.type">video</property>
  <property name="meta.media.0.stream.frame_rate">30</property>
  <property name="meta.media.0.stream.sample_aspect_ratio">0</property>
  <property name="meta.media.0.codec.width">896</property>
  <property name="meta.media.0.codec.height">512</property>
  <property name="meta.media.0.codec.rotate">0</property>
  <property name="meta.media.0.codec.frame_rate">30</property>
  <property name="meta.media.0.codec.pix_fmt">yuv420p</property>
  <property name="meta.media.0.codec.sample_aspect_ratio">0</property>
  <property name="meta.media.0.codec.colorspace">601</property>
  <property name="meta.media.0.codec.name">h264</property>
  <property name="meta.media.0.codec.long_name">H.264 / AVC / MPEG-4 AVC / MPEG-4 part 10</property>
  <property name="meta.media.0.codec.bit_rate">2911251</property>
  <property name="meta.attr.0.stream.handler_name.markup">VideoHandler</property>
  <property name="meta.media.1.stream.type">audio</property>
  <property name="meta.media.1.codec.sample_fmt">fltp</property>
  <property name="meta.media.1.codec.sample_rate">48000</property>
  <property name="meta.media.1.codec.channels">2</property>
  <property name="meta.media.1.codec.name">aac</property>
  <property name="meta.media.1.codec.long_name">AAC (Advanced Audio Coding)</property>
  <property name="meta.media.1.codec.bit_rate">320808</property>
  <property name="meta.attr.1.stream.handler_name.markup">SoundHandler</property>
  <property name="meta.attr.major_brand.markup">isom</property>
  <property name="meta.attr.minor_version.markup">512</property>
  <property name="meta.attr.compatible_brands.markup">isomiso2avc1mp41</property>
  <property name="meta.attr.encoder.markup">Lavf58.29.100</property>
  <property name="meta.media.sample_aspect_num">1</property>
  <property name="meta.media.sample_aspect_den">1</property>
  <property name="meta.media.frame_rate_num">30</property>
  <property name="meta.media.frame_rate_den">1</property>
  <property name="meta.media.colorspace">601</property>
  <property name="meta.media.color_trc">2</property>
  <property name="meta.media.width">896</property>
  <property name="meta.media.height">512</property>
  <property name="meta.media.color_range">mpeg</property>
  <property name="meta.media.top_field_first">0</property>
  <property name="meta.media.progressive">1</property>
  <property name="set.test_audio">1</property>
  <property name="set.test_image">0</property>
 </producer>
 <producer id="producer17" in="00:00:00.000" out="00:01:13.000">
  <property name="length">2191</property>
  <property name="eof">pause</property>
  <property name="resource">content/hot_bod_120000_9084fcf0_bass_trip.mp4</property>
  <property name="audio_index">1</property>
  <property name="video_index">0</property>
  <property name="mute_on_pause">0</property>
  <property name="mlt_service">avformat-novalidate</property>
  <property name="seekable">1</property>
  <property name="aspect_ratio">1</property>
  <property name="kdenlive:clipname"/>
  <property name="kdenlive:folderid">34</property>
  <property name="kdenlive:id">20</property>
  <property name="kdenlive:file_size">35889185</property>
  <property name="kdenlive:file_hash">93fe18edb1d21011d9dfe6f48873c37a</property>
  <property name="kdenlive:audio_max">5</property>
  <property name="global_feed">1</property>
  <property name="xml">was here</property>
  <property name="meta.media.nb_streams">2</property>
  <property name="meta.media.0.stream.type">video</property>
  <property name="meta.media.0.stream.frame_rate">30</property>
  <property name="meta.media.0.stream.sample_aspect_ratio">0</property>
  <property name="meta.media.0.codec.width">896</property>
  <property name="meta.media.0.codec.height">512</property>
  <property name="meta.media.0.codec.rotate">0</property>
  <property name="meta.media.0.codec.frame_rate">30</property>
  <property name="meta.media.0.codec.pix_fmt">yuv420p</property>
  <property name="meta.media.0.codec.sample_aspect_ratio">0</property>
  <property name="meta.media.0.codec.colorspace">601</property>
  <property name="meta.media.0.codec.name">h264</property>
  <property name="meta.media.0.codec.long_name">H.264 / AVC / MPEG-4 AVC / MPEG-4 part 10</property>
  <property name="meta.media.0.codec.bit_rate">3596498</property>
  <property name="meta.attr.0.stream.handler_name.markup">VideoHandler</property>
  <property name="meta.media.1.stream.type">audio</property>
  <property name="meta.media.1.codec.sample_fmt">fltp</property>
  <property name="meta.media.1.codec.sample_rate">48000</property>
  <property name="meta.media.1.codec.channels">2</property>
  <property name="meta.media.1.codec.name">aac</property>
  <property name="meta.media.1.codec.long_name">AAC (Advanced Audio Coding)</property>
  <property name="meta.media.1.codec.bit_rate">328237</property>
  <property name="meta.attr.1.stream.handler_name.markup">SoundHandler</property>
  <property name="meta.attr.major_brand.markup">isom</property>
  <property name="meta.attr.minor_version.markup">512</property>
  <property name="meta.attr.compatible_brands.markup">isomiso2avc1mp41</property>
  <property name="meta.attr.encoder.markup">Lavf58.29.100</property>
  <property name="meta.media.sample_aspect_num">1</property>
  <property name="meta.media.sample_aspect_den">1</property>
  <property name="meta.media.frame_rate_num">30</property>
  <property name="meta.media.frame_rate_den">1</property>
  <property name="meta.media.colorspace">601</property>
  <property name="meta.media.color_trc">2</property>
  <property name="meta.media.width">896</property>
  <property name="meta.media.height">512</property>
  <property name="meta.media.color_range">mpeg</property>
  <property name="meta.media.top_field_first">0</property>
  <property name="meta.media.progressive">1</property>
  <property name="set.test_audio">1</property>
  <property name="set.test_image">0</property>
 </producer>
 <producer id="producer15" in="00:00:00.000" out="00:00:44.033">
  <property name="length">1322</property>
  <property name="eof">pause</property>
  <property name="resource">content/trusses_rotating.mp4</property>
  <property name="audio_index">1</property>
  <property name="video_index">0</property>
  <property name="mute_on_pause">0</property>
  <property name="mlt_service">avformat-novalidate</property>
  <property name="seekable">1</property>
  <property name="aspect_ratio">1</property>
  <property name="kdenlive:clipname">trusses_rotating.mp4</property>
  <property name="kdenlive:folderid">34</property>
  <property name="kdenlive:id">23</property>
  <property name="kdenlive:file_size">6095429</property>
  <property name="kdenlive:file_hash">c3f09fd208df8cdb6b8c693ff3c337b6</property>
  <property name="kdenlive:proxy">-</property>
  <property name="kdenlive:originalurl">content/trusses_rotating.mp4</property>
  <property name="kdenlive:audio_max">6</property>
  <property name="global_feed">1</property>
  <property name="xml">was here</property>
  <property name="meta.media.nb_streams">2</property>
  <property name="meta.media.0.stream.type">video</property>
  <property name="meta.media.0.stream.frame_rate">30</property>
  <property name="meta.media.0.stream.sample_aspect_ratio">1</property>
  <property name="meta.media.0.codec.width">1920</property>
  <property name="meta.media.0.codec.height">1080</property>
  <property name="meta.media.0.codec.rotate">0</property>
  <property name="meta.media.0.codec.frame_rate">30</property>
  <property name="meta.media.0.codec.pix_fmt">yuv420p</property>
  <property name="meta.media.0.codec.sample_aspect_ratio">1</property>
  <property name="meta.media.0.codec.colorspace">709</property>
  <property name="meta.media.0.codec.color_trc">1</property>
  <property name="meta.media.0.codec.name">h264</property>
  <property name="meta.media.0.codec.long_name">H.264 / AVC / MPEG-4 AVC / MPEG-4 part 10</property>
  <property name="meta.media.0.codec.bit_rate">842590</property>
  <property name="meta.attr.0.stream.handler_name.markup">VideoHandler</property>
  <property name="meta.media.1.stream.type">audio</property>
  <property name="meta.media.1.codec.sample_fmt">fltp</property>
  <property name="meta.media.1.codec.sample_rate">48000</property>
  <property name="meta.media.1.codec.channels">2</property>
  <property name="meta.media.1.codec.name">aac</property>
  <property name="meta.media.1.codec.long_name">AAC (Advanced Audio Coding)</property>
  <property name="meta.media.1.codec.bit_rate">255977</property>
  <property name="meta.attr.1.stream.handler_name.markup">SoundHandler</property>
  <property name="meta.attr.major_brand.markup">isom</property>
  <property name="meta.attr.minor_version.markup">512</property>
  <property name="meta.attr.compatible_brands.markup">isomiso2avc1mp41</property>
  <property name="meta.attr.encoder.markup">Lavf58.45.100</property>
  <property name="meta.media.sample_aspect_num">1</property>
  <property name="meta.media.sample_aspect_den">1</property>
  <property name="meta.media.frame_rate_num">30</property>
  <property name="meta.media.frame_rate_den">1</property>
  <property name="meta.media.colorspace">709</property>
  <property name="meta.media.color_trc">1</property>
  <property name="meta.media.width">1920</property>
  <property name="meta.media.height">1080</property>
  <property name="meta.media.color_range">mpeg</property>
  <property name="set.test_audio">1</property>
  <property name="set.test_image">0</property>
 </producer>
 <playlist id="playlist4">
  <blank length="00:03:45.133"/>
  <entry producer="producer155" in="00:00:00.000" out="00:00:10.833">
   <property name="kdenlive:id">16</property>
  </entry>
  <blank length="00:03:04.000"/>
  <entry producer="producer17" in="00:00:00.000" out="00:01:13.000">
   <property name="kdenlive:id">20</property>
   <filter id="filter125">
    <property name="rotate_center">1</property>
    <property name="mlt_service">qtblend</property>
    <property name="kdenlive_id">qtblend</property>
    <property name="rect">00:00:00.000=-126 28 896 512 1.000000</property>
    <property name="rotation">00:00:00.000=0</property>
    <property name="compositing">0</property>
    <property name="distort">1</property>
    <property name="kdenlive:collapsed">0</property>
   </filter>
   <filter id="filter126">
    <property name="mlt_service">avfilter.vflip</property>
    <property name="kdenlive_id">avfilter.vflip</property>
    <property name="kdenlive:collapsed">0</property>
   </filter>
  </entry>
  <blank length="00:14:00.667"/>
  <entry producer="producer15" in="00:00:00.000" out="00:00:44.033">
   <property name="kdenlive:id">23</property>
   <filter id="filter22">
    <property name="rotate_center">1</property>
    <property name="mlt_service">qtblend</property>
    <property name="kdenlive_id">qtblend</property>
    <property name="rect">00:00:00.000|=0 0 1920 1080 1.000000;00:00:02.100=-960 -540 3840 2160 1.000000;00:00:02.233|=0 0 1920 1080 1.000000;00:00:03.367=-960 -540 3840 2160 1.000000;00:00:03.500|=0 0 1920 1080 1.000000;00:00:44.033|=0 0 1920 1080 1.000000</property>
    <property name="rotation">00:00:00.000|=0;00:00:02.100=0;00:00:02.233|=0;00:00:03.367=0;00:00:03.500|=0;00:00:44.033|=0</property>
    <property name="compositing">0</property>
    <property name="distort">0</property>
    <property name="kdenlive:collapsed">0</property>
   </filter>
  </entry>
 </playlist>
 <playlist id="playlist5"/>
 <tractor id="tractor2" in="00:00:00.000" out="00:22:57.733">
  <property name="kdenlive:trackheight">69</property>
  <property name="kdenlive:timeline_active">1</property>
  <property name="kdenlive:collapsed">0</property>
  <property name="kdenlive:thumbs_format"/>
  <property name="kdenlive:audio_rec"/>
  <track hide="audio" producer="playlist4"/>
  <track producer="playlist5"/>
 </tractor>
 <producer id="producer159" in="00:00:00.000" out="00:01:27.000">
  <property name="length">2611</property>
  <property name="eof">pause</property>
  <property name="resource">content/hot_bod_120000_f34ec270_bass_solo_electric.mp4</property>
  <property name="audio_index">1</property>
  <property name="video_index">0</property>
  <property name="mute_on_pause">0</property>
  <property name="mlt_service">avformat-novalidate</property>
  <property name="seekable">1</property>
  <property name="aspect_ratio">1</property>
  <property name="kdenlive:clipname"/>
  <property name="kdenlive:folderid">34</property>
  <property name="kdenlive:id">13</property>
  <property name="kdenlive:file_size">42205163</property>
  <property name="kdenlive:file_hash">171649c24b36ba48a3814e00fb965f33</property>
  <property name="kdenlive:audio_max">4</property>
  <property name="global_feed">1</property>
  <property name="xml">was here</property>
  <property name="meta.media.nb_streams">2</property>
  <property name="meta.media.0.stream.type">video</property>
  <property name="meta.media.0.stream.frame_rate">30</property>
  <property name="meta.media.0.stream.sample_aspect_ratio">0</property>
  <property name="meta.media.0.codec.width">896</property>
  <property name="meta.media.0.codec.height">512</property>
  <property name="meta.media.0.codec.rotate">0</property>
  <property name="meta.media.0.codec.frame_rate">30</property>
  <property name="meta.media.0.codec.pix_fmt">yuv420p</property>
  <property name="meta.media.0.codec.sample_aspect_ratio">0</property>
  <property name="meta.media.0.codec.colorspace">601</property>
  <property name="meta.media.0.codec.name">h264</property>
  <property name="meta.media.0.codec.long_name">H.264 / AVC / MPEG-4 AVC / MPEG-4 part 10</property>
  <property name="meta.media.0.codec.bit_rate">3535758</property>
  <property name="meta.attr.0.stream.handler_name.markup">VideoHandler</property>
  <property name="meta.media.1.stream.type">audio</property>
  <property name="meta.media.1.codec.sample_fmt">fltp</property>
  <property name="meta.media.1.codec.sample_rate">48000</property>
  <property name="meta.media.1.codec.channels">2</property>
  <property name="meta.media.1.codec.name">aac</property>
  <property name="meta.media.1.codec.long_name">AAC (Advanced Audio Coding)</property>
  <property name="meta.media.1.codec.bit_rate">336755</property>
  <property name="meta.attr.1.stream.handler_name.markup">SoundHandler</property>
  <property name="meta.attr.major_brand.markup">isom</property>
  <property name="meta.attr.minor_version.markup">512</property>
  <property name="meta.attr.compatible_brands.markup">isomiso2avc1mp41</property>
  <property name="meta.attr.encoder.markup">Lavf58.29.100</property>
  <property name="meta.media.sample_aspect_num">1</property>
  <property name="meta.media.sample_aspect_den">1</property>
  <property name="meta.media.frame_rate_num">30</property>
  <property name="meta.media.frame_rate_den">1</property>
  <property name="meta.media.colorspace">601</property>
  <property name="meta.media.color_trc">2</property>
  <property name="meta.media.width">896</property>
  <property name="meta.media.height">512</property>
  <property name="meta.media.color_range">mpeg</property>
  <property name="meta.media.top_field_first">0</property>
  <property name="meta.media.progressive">1</property>
  <property name="set.test_audio">1</property>
  <property name="set.test_image">0</property>
 </producer>
 <producer id="producer16" in="00:00:00.000" out="00:01:14.000">
  <property name="length">2221</property>
  <property name="eof">pause</property>
  <property name="resource">content/hot_bod_180000_97c282c6_synth_solo.mp4</property>
  <property name="audio_index">1</property>
  <property name="video_index">0</property>
  <property name="mute_on_pause">0</property>
  <property name="mlt_service">avformat-novalidate</property>
  <property name="seekable">1</property>
  <property name="aspect_ratio">1</property>
  <property name="kdenlive:clipname"/>
  <property name="kdenlive:folderid">34</property>
  <property name="kdenlive:id">12</property>
  <property name="kdenlive:file_size">38882228</property>
  <property name="kdenlive:file_hash">93f786cce468b11782704dc07333adce</property>
  <property name="kdenlive:audio_max">2</property>
  <property name="global_feed">1</property>
  <property name="xml">was here</property>
  <property name="meta.media.nb_streams">2</property>
  <property name="meta.media.0.stream.type">video</property>
  <property name="meta.media.0.stream.frame_rate">30</property>
  <property name="meta.media.0.stream.sample_aspect_ratio">0</property>
  <property name="meta.media.0.codec.width">896</property>
  <property name="meta.media.0.codec.height">512</property>
  <property name="meta.media.0.codec.rotate">0</property>
  <property name="meta.media.0.codec.frame_rate">30</property>
  <property name="meta.media.0.codec.pix_fmt">yuv420p</property>
  <property name="meta.media.0.codec.sample_aspect_ratio">0</property>
  <property name="meta.media.0.codec.colorspace">601</property>
  <property name="meta.media.0.codec.name">h264</property>
  <property name="meta.media.0.codec.long_name">H.264 / AVC / MPEG-4 AVC / MPEG-4 part 10</property>
  <property name="meta.media.0.codec.bit_rate">3868149</property>
  <property name="meta.attr.0.stream.handler_name.markup">VideoHandler</property>
  <property name="meta.media.1.stream.type">audio</property>
  <property name="meta.media.1.codec.sample_fmt">fltp</property>
  <property name="meta.media.1.codec.sample_rate">48000</property>
  <property name="meta.media.1.codec.channels">2</property>
  <property name="meta.media.1.codec.name">aac</property>
  <property name="meta.media.1.codec.long_name">AAC (Advanced Audio Coding)</property>
  <property name="meta.media.1.codec.bit_rate">326658</property>
  <property name="meta.attr.1.stream.handler_name.markup">SoundHandler</property>
  <property name="meta.attr.major_brand.markup">isom</property>
  <property name="meta.attr.minor_version.markup">512</property>
  <property name="meta.attr.compatible_brands.markup">isomiso2avc1mp41</property>
  <property name="meta.attr.encoder.markup">Lavf58.29.100</property>
  <property name="meta.media.sample_aspect_num">1</property>
  <property name="meta.media.sample_aspect_den">1</property>
  <property name="meta.media.frame_rate_num">30</property>
  <property name="meta.media.frame_rate_den">1</property>
  <property name="meta.media.colorspace">601</property>
  <property name="meta.media.color_trc">2</property>
  <property name="meta.media.width">896</property>
  <property name="meta.media.height">512</property>
  <property name="meta.media.color_range">mpeg</property>
  <property name="meta.media.top_field_first">0</property>
  <property name="meta.media.progressive">1</property>
  <property name="set.test_audio">1</property>
  <property name="set.test_image">1</property>
 </producer>
 <producer id="producer153" in="00:00:00.000" out="00:01:13.000">
  <property name="length">2191</property>
  <property name="eof">pause</property>
  <property name="resource">content/hot_bod_120000_9084fcf0_bass_trip.mp4</property>
  <property name="audio_index">1</property>
  <property name="video_index">0</property>
  <property name="mute_on_pause">0</property>
  <property name="mlt_service">avformat-novalidate</property>
  <property name="seekable">1</property>
  <property name="aspect_ratio">1</property>
  <property name="kdenlive:clipname"/>
  <property name="kdenlive:folderid">34</property>
  <property name="kdenlive:id">20</property>
  <property name="kdenlive:file_size">35889185</property>
  <property name="kdenlive:file_hash">93fe18edb1d21011d9dfe6f48873c37a</property>
  <property name="kdenlive:audio_max">5</property>
  <property name="global_feed">1</property>
  <property name="xml">was here</property>
  <property name="meta.media.nb_streams">2</property>
  <property name="meta.media.0.stream.type">video</property>
  <property name="meta.media.0.stream.frame_rate">30</property>
  <property name="meta.media.0.stream.sample_aspect_ratio">0</property>
  <property name="meta.media.0.codec.width">896</property>
  <property name="meta.media.0.codec.height">512</property>
  <property name="meta.media.0.codec.rotate">0</property>
  <property name="meta.media.0.codec.frame_rate">30</property>
  <property name="meta.media.0.codec.pix_fmt">yuv420p</property>
  <property name="meta.media.0.codec.sample_aspect_ratio">0</property>
  <property name="meta.media.0.codec.colorspace">601</property>
  <property name="meta.media.0.codec.name">h264</property>
  <property name="meta.media.0.codec.long_name">H.264 / AVC / MPEG-4 AVC / MPEG-4 part 10</property>
  <property name="meta.media.0.codec.bit_rate">3596498</property>
  <property name="meta.attr.0.stream.handler_name.markup">VideoHandler</property>
  <property name="meta.media.1.stream.type">audio</property>
  <property name="meta.media.1.codec.sample_fmt">fltp</property>
  <property name="meta.media.1.codec.sample_rate">48000</property>
  <property name="meta.media.1.codec.channels">2</property>
  <property name="meta.media.1.codec.name">aac</property>
  <property name="meta.media.1.codec.long_name">AAC (Advanced Audio Coding)</property>
  <property name="meta.media.1.codec.bit_rate">328237</property>
  <property name="meta.attr.1.stream.handler_name.markup">SoundHandler</property>
  <property name="meta.attr.major_brand.markup">isom</property>
  <property name="meta.attr.minor_version.markup">512</property>
  <property name="meta.attr.compatible_brands.markup">isomiso2avc1mp41</property>
  <property name="meta.attr.encoder.markup">Lavf58.29.100</property>
  <property name="meta.media.sample_aspect_num">1</property>
  <property name="meta.media.sample_aspect_den">1</property>
  <property name="meta.media.frame_rate_num">30</property>
  <property name="meta.media.frame_rate_den">1</property>
  <property name="meta.media.colorspace">601</property>
  <property name="meta.media.color_trc">2</property>
  <property name="meta.media.width">896</property>
  <property name="meta.media.height">512</property>
  <property name="meta.media.color_range">mpeg</property>
  <property name="meta.media.top_field_first">0</property>
  <property name="meta.media.progressive">1</property>
  <property name="set.test_audio">1</property>
  <property name="set.test_image">0</property>
 </producer>
 <producer id="producer163" in="00:00:00.000" out="00:00:44.000">
  <property name="length">1321</property>
  <property name="eof">pause</property>
  <property name="resource">content/hot_bod_065000_63ca3a33_trusses.mp4</property>
  <property name="audio_index">1</property>
  <property name="video_index">0</property>
  <property name="mute_on_pause">0</property>
  <property name="mlt_service">avformat-novalidate</property>
  <property name="seekable">1</property>
  <property name="aspect_ratio">1</property>
  <property name="kdenlive:clipname">hot_bod_065000_63ca3a33_trusses.mp4</property>
  <property name="kdenlive:folderid">34</property>
  <property name="kdenlive:id">11</property>
  <property name="kdenlive:file_size">5449983</property>
  <property name="kdenlive:audio_max">5</property>
  <property name="kdenlive:active_streams">-1;1</property>
  <property name="global_feed">1</property>
  <property name="kdenlive:file_hash">e7c63f197d2b1594f1626febc3887c4b</property>
  <property name="xml">was here</property>
  <property name="meta.media.nb_streams">2</property>
  <property name="meta.media.0.stream.type">video</property>
  <property name="meta.media.0.stream.frame_rate">30</property>
  <property name="meta.media.0.stream.sample_aspect_ratio">0</property>
  <property name="meta.media.0.codec.width">512</property>
  <property name="meta.media.0.codec.height">512</property>
  <property name="meta.media.0.codec.rotate">0</property>
  <property name="meta.media.0.codec.frame_rate">30</property>
  <property name="meta.media.0.codec.pix_fmt">yuv420p</property>
  <property name="meta.media.0.codec.sample_aspect_ratio">0</property>
  <property name="meta.media.0.codec.colorspace">601</property>
  <property name="meta.media.0.codec.name">h264</property>
  <property name="meta.media.0.codec.long_name">H.264 / AVC / MPEG-4 AVC / MPEG-4 part 10</property>
  <property name="meta.media.0.codec.bit_rate">645136</property>
  <property name="meta.attr.0.stream.handler_name.markup">VideoHandler</property>
  <property name="meta.media.1.stream.type">audio</property>
  <property name="meta.media.1.codec.sample_fmt">fltp</property>
  <property name="meta.media.1.codec.sample_rate">48000</property>
  <property name="meta.media.1.codec.channels">2</property>
  <property name="meta.media.1.codec.name">aac</property>
  <property name="meta.media.1.codec.long_name">AAC (Advanced Audio Coding)</property>
  <property name="meta.media.1.codec.bit_rate">336810</property>
  <property name="meta.attr.1.stream.handler_name.markup">SoundHandler</property>
  <property name="meta.attr.major_brand.markup">isom</property>
  <property name="meta.attr.minor_version.markup">512</property>
  <property name="meta.attr.compatible_brands.markup">isomiso2avc1mp41</property>
  <property name="meta.attr.encoder.markup">Lavf58.29.100</property>
  <property name="meta.media.sample_aspect_num">1</property>
  <property name="meta.media.sample_aspect_den">1</property>
  <property name="meta.media.frame_rate_num">30</property>
  <property name="meta.media.frame_rate_den">1</property>
  <property name="meta.media.colorspace">601</property>
  <property name="meta.media.color_trc">2</property>
  <property name="meta.media.width">512</property>
  <property name="meta.media.height">512</property>
  <property name="meta.media.color_range">mpeg</property>
  <property name="meta.media.top_field_first">0</property>
  <property name="meta.media.progressive">1</property>
  <property name="set.test_audio">1</property>
  <property name="set.test_image">0</property>
 </producer>
 <playlist id="playlist6">
  <blank length="00:01:06.100"/>
  <entry producer="producer159" in="00:00:00.000" out="00:01:27.000">
   <property name="kdenlive:id">13</property>
   <filter id="filter56">
    <property name="rotate_center">1</property>
    <property name="mlt_service">qtblend</property>
    <property name="kdenlive_id">qtblend</property>
    <property name="rect">00:00:00.000=0 0 1920 1080 1</property>
    <property name="rotation">00:00:00.000=0</property>
    <property name="compositing">0</property>
    <property name="distort">1</property>
    <property name="kdenlive:collapsed">0</property>
   </filter>
   <filter id="filter57" out="00:00:02.800">
    <property name="start">0</property>
    <property name="mlt_service">brightness</property>
    <property name="kdenlive_id">fade_from_black</property>
    <property name="end">1</property>
    <property name="alpha">-1</property>
   </filter>
  </entry>
  <entry producer="producer16" in="00:00:00.000" out="00:01:14.000">
   <property name="kdenlive:id">12</property>
   <filter id="filter58">
    <property name="mirror">horizontal</property>
    <property name="mlt_service">mirror</property>
    <property name="kdenlive_id">mirror</property>
    <property name="reverse">0</property>
    <property name="kdenlive:collapsed">0</property>
   </filter>
   <filter id="filter59">
    <property name="mirror">vertical</property>
    <property name="mlt_service">mirror</property>
    <property name="kdenlive_id">mirror</property>
    <property name="reverse">0</property>
    <property name="kdenlive:collapsed">0</property>
   </filter>
   <filter id="filter60">
    <property name="rotate_center">1</property>
    <property name="mlt_service">qtblend</property>
    <property name="kdenlive_id">qtblend</property>
    <property name="rect">00:00:00.000=1310 737 1310 737 1.000000</property>
    <property name="rotation">00:00:00.000=0</property>
    <property name="compositing">0</property>
    <property name="distort">1</property>
    <property name="kdenlive:collapsed">0</property>
   </filter>
  </entry>
  <blank length="00:03:12.833"/>
  <entry producer="producer153" in="00:00:00.000" out="00:01:13.000">
   <property name="kdenlive:id">20</property>
   <filter id="filter149">
    <property name="rotate_center">1</property>
    <property name="mlt_service">qtblend</property>
    <property name="kdenlive_id">qtblend</property>
    <property name="rect">00:00:00.000=-126 28 896 512 1.000000</property>
    <property name="rotation">00:00:00.000=0</property>
    <property name="compositing">0</property>
    <property name="distort">1</property>
    <property name="kdenlive:collapsed">0</property>
   </filter>
  </entry>
  <blank length="00:14:00.667"/>
  <entry producer="producer163" in="00:00:00.000" out="00:00:44.000">
   <property name="kdenlive:id">11</property>
   <filter id="filter83">
    <property name="rotate_center">1</property>
    <property name="mlt_service">qtblend</property>
    <property name="kdenlive_id">qtblend</property>
    <property name="rect">00:00:00.000=704 284 512 512 1.000000;00:00:44.000=704 284 512 512 1.000000</property>
    <property name="rotation">00:00:00.000=0;00:00:44.000=180</property>
    <property name="compositing">0</property>
    <property name="distort">1</property>
    <property name="kdenlive:collapsed">0</property>
   </filter>
  </entry>
 </playlist>
 <playlist id="playlist7"/>
 <tractor id="tractor3" in="00:00:00.000" out="00:22:57.700">
  <property name="kdenlive:trackheight">69</property>
  <property name="kdenlive:timeline_active">1</property>
  <property name="kdenlive:collapsed">0</property>
  <property name="kdenlive:thumbs_format"/>
  <property name="kdenlive:audio_rec"/>
  <track hide="audio" producer="playlist6"/>
  <track producer="playlist7"/>
 </tractor>
 <producer id="producer156" in="00:00:00.000" out="00:01:13.000">
  <property name="length">2191</property>
  <property name="eof">pause</property>
  <property name="resource">content/hot_bod_112000_8fdeacb7_synth_trip.mp4</property>
  <property name="audio_index">1</property>
  <property name="video_index">0</property>
  <property name="mute_on_pause">0</property>
  <property name="mlt_service">avformat-novalidate</property>
  <property name="seekable">1</property>
  <property name="aspect_ratio">1</property>
  <property name="kdenlive:clipname"/>
  <property name="kdenlive:folderid">34</property>
  <property name="kdenlive:id">19</property>
  <property name="kdenlive:file_size">36043540</property>
  <property name="kdenlive:file_hash">01a6227e49a38ad9a87bf327daf078e6</property>
  <property name="kdenlive:audio_max">5</property>
  <property name="global_feed">1</property>
  <property name="xml">was here</property>
  <property name="meta.media.nb_streams">2</property>
  <property name="meta.media.0.stream.type">video</property>
  <property name="meta.media.0.stream.frame_rate">30</property>
  <property name="meta.media.0.stream.sample_aspect_ratio">0</property>
  <property name="meta.media.0.codec.width">896</property>
  <property name="meta.media.0.codec.height">512</property>
  <property name="meta.media.0.codec.rotate">0</property>
  <property name="meta.media.0.codec.frame_rate">30</property>
  <property name="meta.media.0.codec.pix_fmt">yuv420p</property>
  <property name="meta.media.0.codec.sample_aspect_ratio">0</property>
  <property name="meta.media.0.codec.colorspace">601</property>
  <property name="meta.media.0.codec.name">h264</property>
  <property name="meta.media.0.codec.long_name">H.264 / AVC / MPEG-4 AVC / MPEG-4 part 10</property>
  <property name="meta.media.0.codec.bit_rate">3613432</property>
  <property name="meta.attr.0.stream.handler_name.markup">VideoHandler</property>
  <property name="meta.media.1.stream.type">audio</property>
  <property name="meta.media.1.codec.sample_fmt">fltp</property>
  <property name="meta.media.1.codec.sample_rate">48000</property>
  <property name="meta.media.1.codec.channels">2</property>
  <property name="meta.media.1.codec.name">aac</property>
  <property name="meta.media.1.codec.long_name">AAC (Advanced Audio Coding)</property>
  <property name="meta.media.1.codec.bit_rate">328237</property>
  <property name="meta.attr.1.stream.handler_name.markup">SoundHandler</property>
  <property name="meta.attr.major_brand.markup">isom</property>
  <property name="meta.attr.minor_version.markup">512</property>
  <property name="meta.attr.compatible_brands.markup">isomiso2avc1mp41</property>
  <property name="meta.attr.encoder.markup">Lavf58.29.100</property>
  <property name="meta.media.sample_aspect_num">1</property>
  <property name="meta.media.sample_aspect_den">1</property>
  <property name="meta.media.frame_rate_num">30</property>
  <property name="meta.media.frame_rate_den">1</property>
  <property name="meta.media.colorspace">601</property>
  <property name="meta.media.color_trc">2</property>
  <property name="meta.media.width">896</property>
  <property name="meta.media.height">512</property>
  <property name="meta.media.color_range">mpeg</property>
  <property name="meta.media.top_field_first">0</property>
  <property name="meta.media.progressive">1</property>
  <property name="set.test_audio">1</property>
  <property name="set.test_image">0</property>
 </producer>
 <playlist id="playlist8">
  <blank length="00:00:52.567"/>
  <entry producer="producer134" in="00:00:00.000" out="00:00:04.100">
   <property name="kdenlive:id">61</property>
   <property name="kdenlive:activeeffect">2</property>
   <filter id="filter102">
    <property name="threshold">1</property>
    <property name="slope">5</property>
    <property name="prelevel">0</property>
    <property name="postlevel">255</property>
    <property name="mlt_service">lumakey</property>
    <property name="kdenlive_id">lumakey</property>
    <property name="kdenlive:collapsed">0</property>
   </filter>
   <filter id="filter103">
    <property name="rotate_center">1</property>
    <property name="mlt_service">qtblend</property>
    <property name="kdenlive_id">qtblend</property>
    <property name="rect">00:00:00.000=0 0 1920 1080 1.000000;00:00:04.100~=0 0 1920 1080 1.000000</property>
    <property name="rotation">00:00:00.000=0;00:00:04.100~=28</property>
    <property name="compositing">0</property>
    <property name="distort">0</property>
    <property name="kdenlive:collapsed">0</property>
   </filter>
   <filter id="filter104">
    <property name="rotate_center">1</property>
    <property name="mlt_service">qtblend</property>
    <property name="kdenlive_id">qtblend</property>
    <property name="rect">00:00:00.000=-769 422 1920 1080 0.000000;00:00:00.933~=-769 422 1920 1080 0.700000;00:00:01.633~=-1249 152 2880 1620 1.000000;00:00:03.800~=-769 422 1920 1080 1.000000</property>
    <property name="rotation">00:00:00.000=0;00:00:00.933~=0;00:00:01.633~=0;00:00:03.800~=0</property>
    <property name="compositing">0</property>
    <property name="distort">0</property>
    <property name="kdenlive:collapsed">0</property>
   </filter>
  </entry>
  <blank length="00:00:03.400"/>
  <entry producer="producer136" in="00:00:00.000" out="00:00:02.300">
   <property name="kdenlive:id">67</property>
   <filter id="filter105">
    <property name="threshold">1</property>
    <property name="slope">5</property>
    <property name="prelevel">0</property>
    <property name="postlevel">255</property>
    <property name="mlt_service">lumakey</property>
    <property name="kdenlive_id">lumakey</property>
    <property name="kdenlive:collapsed">0</property>
   </filter>
   <filter id="filter106">
    <property name="rotate_center">1</property>
    <property name="mlt_service">qtblend</property>
    <property name="kdenlive_id">qtblend</property>
    <property name="rect">00:00:00.000=-1011 120 2688 1512 1.000000;00:00:00.900~=-920 208 2480 1395 1.000000;00:00:01.033~=-795 218 2445 1375 1.000000;00:00:01.667~=-843 283 2304 1296 1.000000;00:00:03.000~=-740 501 1747 982 1.000000</property>
    <property name="rotation">00:00:00.000=0;00:00:00.900~=15.12;00:00:01.033~=17.6538;00:00:01.667~=28;00:00:03.000~=52.4698</property>
    <property name="compositing">0</property>
    <property name="distort">0</property>
    <property name="kdenlive:collapsed">0</property>
   </filter>
   <filter id="filter107" in="00:00:01.967" out="00:00:02.300">
    <property name="start">1</property>
    <property name="mlt_service">brightness</property>
    <property name="kdenlive_id">fade_to_black</property>
    <property name="end">0</property>
    <property name="alpha">-1</property>
    <property name="kdenlive:collapsed">0</property>
   </filter>
  </entry>
  <blank length="00:01:30.700"/>
  <entry producer="producer16" in="00:00:00.000" out="00:01:14.000">
   <property name="kdenlive:id">12</property>
   <filter id="filter108">
    <property name="mirror">horizontal</property>
    <property name="mlt_service">mirror</property>
    <property name="kdenlive_id">mirror</property>
    <property name="reverse">0</property>
    <property name="kdenlive:collapsed">0</property>
   </filter>
   <filter id="filter109">
    <property name="rotate_center">1</property>
    <property name="mlt_service">qtblend</property>
    <property name="kdenlive_id">qtblend</property>
    <property name="rect">00:00:00.000=1310 0 1310 737 1.000000</property>
    <property name="rotation">00:00:00.000=0</property>
    <property name="compositing">0</property>
    <property name="distort">1</property>
    <property name="kdenlive:collapsed">0</property>
   </filter>
  </entry>
  <blank length="00:03:12.833"/>
  <entry producer="producer156" in="00:00:00.000" out="00:01:13.000">
   <property name="kdenlive:id">19</property>
   <filter id="filter176">
    <property name="rotate_center">1</property>
    <property name="mlt_service">qtblend</property>
    <property name="kdenlive_id">qtblend</property>
    <property name="rect">00:00:00.000=1163 28 896 512 1.000000</property>
    <property name="rotation">00:00:00.000=0</property>
    <property name="compositing">0</property>
    <property name="distort">1</property>
    <property name="kdenlive:collapsed">0</property>
   </filter>
   <filter id="filter177">
    <property name="mlt_service">avfilter.vflip</property>
    <property name="kdenlive_id">avfilter.vflip</property>
    <property name="kdenlive:collapsed">0</property>
   </filter>
  </entry>
 </playlist>
 <playlist id="playlist9"/>
 <tractor id="tractor4" in="00:00:00.000" out="00:08:13.000">
  <property name="kdenlive:trackheight">69</property>
  <property name="kdenlive:timeline_active">1</property>
  <property name="kdenlive:collapsed">28</property>
  <property name="kdenlive:thumbs_format"/>
  <property name="kdenlive:audio_rec"/>
  <track hide="audio" producer="playlist8"/>
  <track producer="playlist9"/>
 </tractor>
 <producer id="producer170" in="00:00:00.000" out="00:01:13.000">
  <property name="length">2191</property>
  <property name="eof">pause</property>
  <property name="resource">content/hot_bod_112000_8fdeacb7_synth_trip.mp4</property>
  <property name="audio_index">1</property>
  <property name="video_index">0</property>
  <property name="mute_on_pause">0</property>
  <property name="mlt_service">avformat-novalidate</property>
  <property name="seekable">1</property>
  <property name="aspect_ratio">1</property>
  <property name="kdenlive:clipname"/>
  <property name="kdenlive:folderid">34</property>
  <property name="kdenlive:id">19</property>
  <property name="kdenlive:file_size">36043540</property>
  <property name="kdenlive:file_hash">01a6227e49a38ad9a87bf327daf078e6</property>
  <property name="kdenlive:audio_max">5</property>
  <property name="global_feed">1</property>
  <property name="xml">was here</property>
  <property name="meta.media.nb_streams">2</property>
  <property name="meta.media.0.stream.type">video</property>
  <property name="meta.media.0.stream.frame_rate">30</property>
  <property name="meta.media.0.stream.sample_aspect_ratio">0</property>
  <property name="meta.media.0.codec.width">896</property>
  <property name="meta.media.0.codec.height">512</property>
  <property name="meta.media.0.codec.rotate">0</property>
  <property name="meta.media.0.codec.frame_rate">30</property>
  <property name="meta.media.0.codec.pix_fmt">yuv420p</property>
  <property name="meta.media.0.codec.sample_aspect_ratio">0</property>
  <property name="meta.media.0.codec.colorspace">601</property>
  <property name="meta.media.0.codec.name">h264</property>
  <property name="meta.media.0.codec.long_name">H.264 / AVC / MPEG-4 AVC / MPEG-4 part 10</property>
  <property name="meta.media.0.codec.bit_rate">3613432</property>
  <property name="meta.attr.0.stream.handler_name.markup">VideoHandler</property>
  <property name="meta.media.1.stream.type">audio</property>
  <property name="meta.media.1.codec.sample_fmt">fltp</property>
  <property name="meta.media.1.codec.sample_rate">48000</property>
  <property name="meta.media.1.codec.channels">2</property>
  <property name="meta.media.1.codec.name">aac</property>
  <property name="meta.media.1.codec.long_name">AAC (Advanced Audio Coding)</property>
  <property name="meta.media.1.codec.bit_rate">328237</property>
  <property name="meta.attr.1.stream.handler_name.markup">SoundHandler</property>
  <property name="meta.attr.major_brand.markup">isom</property>
  <property name="meta.attr.minor_version.markup">512</property>
  <property name="meta.attr.compatible_brands.markup">isomiso2avc1mp41</property>
  <property name="meta.attr.encoder.markup">Lavf58.29.100</property>
  <property name="meta.media.sample_aspect_num">1</property>
  <property name="meta.media.sample_aspect_den">1</property>
  <property name="meta.media.frame_rate_num">30</property>
  <property name="meta.media.frame_rate_den">1</property>
  <property name="meta.media.colorspace">601</property>
  <property name="meta.media.color_trc">2</property>
  <property name="meta.media.width">896</property>
  <property name="meta.media.height">512</property>
  <property name="meta.media.color_range">mpeg</property>
  <property name="meta.media.top_field_first">0</property>
  <property name="meta.media.progressive">1</property>
  <property name="set.test_audio">1</property>
  <property name="set.test_image">0</property>
 </producer>
 <producer id="producer18" in="00:00:00.000" out="00:00:44.033">
  <property name="length">1322</property>
  <property name="eof">pause</property>
  <property name="resource">content/trusses_rotating.mp4</property>
  <property name="audio_index">1</property>
  <property name="video_index">0</property>
  <property name="mute_on_pause">0</property>
  <property name="mlt_service">avformat-novalidate</property>
  <property name="seekable">1</property>
  <property name="aspect_ratio">1</property>
  <property name="kdenlive:clipname">trusses_rotating.mp4</property>
  <property name="kdenlive:folderid">34</property>
  <property name="kdenlive:id">23</property>
  <property name="kdenlive:file_size">6095429</property>
  <property name="kdenlive:file_hash">c3f09fd208df8cdb6b8c693ff3c337b6</property>
  <property name="kdenlive:proxy">-</property>
  <property name="kdenlive:originalurl">content/trusses_rotating.mp4</property>
  <property name="kdenlive:audio_max">6</property>
  <property name="global_feed">1</property>
  <property name="xml">was here</property>
  <property name="meta.media.nb_streams">2</property>
  <property name="meta.media.0.stream.type">video</property>
  <property name="meta.media.0.stream.frame_rate">30</property>
  <property name="meta.media.0.stream.sample_aspect_ratio">1</property>
  <property name="meta.media.0.codec.width">1920</property>
  <property name="meta.media.0.codec.height">1080</property>
  <property name="meta.media.0.codec.rotate">0</property>
  <property name="meta.media.0.codec.frame_rate">30</property>
  <property name="meta.media.0.codec.pix_fmt">yuv420p</property>
  <property name="meta.media.0.codec.sample_aspect_ratio">1</property>
  <property name="meta.media.0.codec.colorspace">709</property>
  <property name="meta.media.0.codec.color_trc">1</property>
  <property name="meta.media.0.codec.name">h264</property>
  <property name="meta.media.0.codec.long_name">H.264 / AVC / MPEG-4 AVC / MPEG-4 part 10</property>
  <property name="meta.media.0.codec.bit_rate">842590</property>
  <property name="meta.attr.0.stream.handler_name.markup">VideoHandler</property>
  <property name="meta.media.1.stream.type">audio</property>
  <property name="meta.media.1.codec.sample_fmt">fltp</property>
  <property name="meta.media.1.codec.sample_rate">48000</property>
  <property name="meta.media.1.codec.channels">2</property>
  <property name="meta.media.1.codec.name">aac</property>
  <property name="meta.media.1.codec.long_name">AAC (Advanced Audio Coding)</property>
  <property name="meta.media.1.codec.bit_rate">255977</property>
  <property name="meta.attr.1.stream.handler_name.markup">SoundHandler</property>
  <property name="meta.attr.major_brand.markup">isom</property>
  <property name="meta.attr.minor_version.markup">512</property>
  <property name="meta.attr.compatible_brands.markup">isomiso2avc1mp41</property>
  <property name="meta.attr.encoder.markup">Lavf58.45.100</property>
  <property name="meta.media.sample_aspect_num">1</property>
  <property name="meta.media.sample_aspect_den">1</property>
  <property name="meta.media.frame_rate_num">30</property>
  <property name="meta.media.frame_rate_den">1</property>
  <property name="meta.media.colorspace">709</property>
  <property name="meta.media.color_trc">1</property>
  <property name="meta.media.width">1920</property>
  <property name="meta.media.height">1080</property>
  <property name="meta.media.color_range">mpeg</property>
  <property name="set.test_audio">1</property>
  <property name="set.test_image">0</property>
 </producer>
 <playlist id="playlist10">
  <blank length="00:00:14.833"/>
  <entry producer="producer123" in="00:00:00.000" out="00:00:01.300">
   <property name="kdenlive:id">57</property>
   <filter id="filter21">
    <property name="rotate_center">1</property>
    <property name="mlt_service">qtblend</property>
    <property name="kdenlive_id">qtblend</property>
    <property name="rect">00:00:00.000|=518 345 768 432 0.300000;00:00:00.167|=326 237 1152 648 0.400000;00:00:00.333|=134 129 1536 864 0.300000;00:00:00.500|=-58 21 1920 1080 0.300000;00:00:00.667|=-442 -195 2688 1512 0.300000;00:00:01.000=-1018 -519 3840 2160 0.400000;00:00:01.300=-826 -411 3456 1944 0.200000</property>
    <property name="rotation">00:00:00.000|=0;00:00:00.167|=0;00:00:00.333|=0;00:00:00.500|=0;00:00:00.667|=0;00:00:01.000=0;00:00:01.300=0</property>
    <property name="compositing">0</property>
    <property name="distort">0</property>
    <property name="kdenlive:collapsed">0</property>
   </filter>
  </entry>
  <entry producer="producer10" in="00:00:00.000" out="00:00:02.633">
   <property name="kdenlive:id">50</property>
   <filter id="filter23">
    <property name="rotate_center">1</property>
    <property name="mlt_service">qtblend</property>
    <property name="kdenlive_id">qtblend</property>
    <property name="rect">00:00:00.000=-445 -197 2688 1512 0.400000;00:00:00.933=-253 -89 2304 1296 0.200000;00:00:01.033~=-349 -143 2496 1404 0.300000;00:00:01.300=-253 -89 2304 1296 0.200000;00:00:01.367~=-445 -197 2688 1512 0.300000;00:00:02.467~=-253 -89 2304 1296 0.200000;00:00:02.633~=-349 -143 2496 1404 0.200000</property>
    <property name="rotation">00:00:00.000=0;00:00:00.933=0;00:00:01.033~=0;00:00:01.300=0;00:00:01.367~=0;00:00:02.467~=0;00:00:02.633~=0</property>
    <property name="compositing">0</property>
    <property name="distort">0</property>
    <property name="kdenlive:collapsed">0</property>
   </filter>
  </entry>
  <entry producer="producer147" in="00:00:00.000" out="00:00:02.267">
   <property name="kdenlive:id">70</property>
   <filter id="filter24">
    <property name="rotate_center">1</property>
    <property name="mlt_service">qtblend</property>
    <property name="kdenlive_id">qtblend</property>
    <property name="rect">00:00:00.000=-985 -450 3840 2160 0.400000;00:00:00.433~=-781 -369 3456 1944 0.200000;00:00:00.500~=-974 -475 3840 2160 0.300000;00:00:00.733~=-781 -352 3456 1944 0.200000;00:00:00.800~=-964 -474 3840 2160 0.300000;00:00:02.267~=-779 -355 3456 1944 0.200000</property>
    <property name="rotation">00:00:00.000=0;00:00:00.433~=0;00:00:00.500~=0;00:00:00.733~=0;00:00:00.800~=0;00:00:02.267~=0</property>
    <property name="compositing">0</property>
    <property name="distort">0</property>
    <property name="kdenlive:collapsed">0</property>
   </filter>
  </entry>
  <entry producer="producer127" in="00:00:00.000" out="00:00:01.633">
   <property name="kdenlive:id">59</property>
   <filter id="filter25">
    <property name="rotate_center">1</property>
    <property name="mlt_service">qtblend</property>
    <property name="kdenlive_id">qtblend</property>
    <property name="rect">00:00:00.000=-4672 -2553 11520 6480 0.300000;00:00:00.200~=-4587 -2511 11520 6480 0.400000;00:00:01.633~=-3696 -1974 9600 5400 0.200000</property>
    <property name="rotation">00:00:00.000=0;00:00:00.200~=0;00:00:01.633~=0</property>
    <property name="compositing">0</property>
    <property name="distort">0</property>
    <property name="kdenlive:collapsed">0</property>
   </filter>
  </entry>
  <entry producer="producer121" in="00:00:00.000" out="00:00:01.967">
   <property name="kdenlive:id">55</property>
   <filter id="filter26">
    <property name="rotate_center">1</property>
    <property name="mlt_service">qtblend</property>
    <property name="kdenlive_id">qtblend</property>
    <property name="rect">00:00:00.000=-3099 -1247 7680 4320 0.300000;00:00:00.400|=-2871 -1200 7296 4104 0.246154;00:00:00.600|=-2712 -1092 6912 3888 0.300000;00:00:00.800|=-2519 -1006 6528 3672 0.300000;00:00:01.000~=-2331 -863 6144 3456 0.300000;00:00:01.967~=-2238 -810 5952 3348 0.200000</property>
    <property name="rotation">00:00:00.000=0;00:00:00.400|=0;00:00:00.600|=0;00:00:00.800|=0;00:00:01.000~=0;00:00:01.967~=0</property>
    <property name="compositing">0</property>
    <property name="distort">0</property>
    <property name="kdenlive:collapsed">0</property>
   </filter>
  </entry>
  <entry producer="producer120" in="00:00:00.000" out="00:00:02.267">
   <property name="kdenlive:id">54</property>
   <filter id="filter27">
    <property name="rotate_center">1</property>
    <property name="mlt_service">qtblend</property>
    <property name="kdenlive_id">qtblend</property>
    <property name="rect">00:00:00.000=-2195 -1171 6144 3456 0.300000;00:00:00.300=-2011 -1063 5760 3240 0.200000;00:00:00.333~=-2202 -1170 6144 3456 0.300000;00:00:00.600=-2015 -1062 5760 3240 0.200000;00:00:00.667~=-2208 -1170 6144 3456 0.300000;00:00:01.933~=-1674 -846 4992 2808 0.200000;00:00:01.967~=-1868 -954 5376 3024 0.300000;00:00:02.267~=-1682 -847 4992 2808 0.200000</property>
    <property name="rotation">00:00:00.000=0;00:00:00.300=0;00:00:00.333~=0;00:00:00.600=0;00:00:00.667~=0;00:00:01.933~=0;00:00:01.967~=0;00:00:02.267~=0</property>
    <property name="compositing">0</property>
    <property name="distort">0</property>
    <property name="kdenlive:collapsed">0</property>
   </filter>
  </entry>
  <entry producer="producer138" in="00:00:00.000" out="00:00:01.600">
   <property name="kdenlive:id">66</property>
   <filter id="filter28">
    <property name="rotate_center">1</property>
    <property name="mlt_service">qtblend</property>
    <property name="kdenlive_id">qtblend</property>
    <property name="rect">00:00:00.000=-1500 -649 4800 2700 0.400000;00:00:00.133=-1308 -541 4416 2484 0.200000;00:00:00.167~=-1499 -648 4800 2700 0.300000;00:00:00.500=-1307 -540 4416 2484 0.200000;00:00:00.600|=-1116 -432 4032 2268 0.300000;00:00:00.667~=-1308 -540 4416 2484 0.300000;00:00:01.600~=-1308 -541 4416 2484 0.200000</property>
    <property name="rotation">00:00:00.000=0;00:00:00.133=0;00:00:00.167~=0;00:00:00.500=0;00:00:00.600|=0;00:00:00.667~=0;00:00:01.600~=0</property>
    <property name="compositing">0</property>
    <property name="distort">0</property>
    <property name="kdenlive:collapsed">0</property>
   </filter>
  </entry>
  <entry producer="producer149" in="00:00:00.000" out="00:00:01.967">
   <property name="kdenlive:id">69</property>
   <filter id="filter29">
    <property name="rotate_center">1</property>
    <property name="mlt_service">qtblend</property>
    <property name="kdenlive_id">qtblend</property>
    <property name="rect">00:00:00.000=-1033 -641 3840 2160 0.500000;00:00:00.600~=-969 -602 3709 2086 0.200000;00:00:00.633~=-1130 -692 4032 2268 0.300000;00:00:01.967~=-845 -527 3456 1944 0.200000</property>
    <property name="rotation">00:00:00.000=0;00:00:00.600~=0;00:00:00.633~=0;00:00:01.967~=0</property>
    <property name="compositing">0</property>
    <property name="distort">0</property>
    <property name="kdenlive:collapsed">0</property>
   </filter>
  </entry>
  <entry producer="producer114" in="00:00:00.000" out="00:00:01.967">
   <property name="kdenlive:id">52</property>
   <filter id="filter30">
    <property name="rotate_center">1</property>
    <property name="mlt_service">qtblend</property>
    <property name="kdenlive_id">qtblend</property>
    <property name="rect">00:00:00.000=-1838 -829 5760 3240 0.400000;00:00:00.400=-1664 -724 5376 3024 0.300000;00:00:00.467~=-1851 -844 5760 3240 0.300000;00:00:00.667=-1462 -614 4992 2808 0.200000;00:00:00.733~=-1651 -715 5376 3024 0.300000;00:00:01.967~=-1655 -722 5376 3024 0.200000</property>
    <property name="rotation">00:00:00.000=0;00:00:00.400=0;00:00:00.467~=0;00:00:00.667=0;00:00:00.733~=0;00:00:01.967~=0</property>
    <property name="compositing">0</property>
    <property name="distort">0</property>
    <property name="kdenlive:collapsed">0</property>
   </filter>
  </entry>
  <entry producer="producer133" in="00:00:00.000" out="00:00:01.900">
   <property name="kdenlive:id">63</property>
   <filter id="filter31">
    <property name="rotate_center">1</property>
    <property name="mlt_service">qtblend</property>
    <property name="kdenlive_id">qtblend</property>
    <property name="rect">00:00:00.000=-1440 -810 4800 2700 0.400000;00:00:00.233=-1248 -702 4416 2484 0.200000;00:00:00.300~=-1440 -809 4800 2700 0.300000;00:00:00.567=-1152 -647 4224 2376 0.200000;00:00:00.633~=-1727 -970 5376 3024 0.300000;00:00:01.900~=-1440 -810 4800 2700 0.200000</property>
    <property name="rotation">00:00:00.000=0;00:00:00.233=0;00:00:00.300~=0;00:00:00.567=0;00:00:00.633~=0;00:00:01.900~=0</property>
    <property name="compositing">0</property>
    <property name="distort">0</property>
    <property name="kdenlive:collapsed">0</property>
   </filter>
  </entry>
  <entry producer="producer135" in="00:00:00.000" out="00:00:01.933">
   <property name="kdenlive:id">65</property>
   <filter id="filter32">
    <property name="rotate_center">1</property>
    <property name="mlt_service">qtblend</property>
    <property name="kdenlive_id">qtblend</property>
    <property name="rect">00:00:00.000=-960 -540 3840 2160 0.400000;00:00:00.467=-768 -432 3456 1944 0.200000;00:00:00.533~=-959 -539 3840 2160 0.300000;00:00:00.833=-767 -431 3456 1944 0.200000;00:00:00.900|=-959 -539 3840 2160 0.300000;00:00:01.033~=-767 -431 3456 1944 0.300000;00:00:01.933~=-672 -378 3264 1836 0.200000</property>
    <property name="rotation">00:00:00.000=0;00:00:00.467=0;00:00:00.533~=0;00:00:00.833=0;00:00:00.900|=0;00:00:01.033~=0;00:00:01.933~=0</property>
    <property name="compositing">0</property>
    <property name="distort">0</property>
    <property name="kdenlive:collapsed">0</property>
   </filter>
  </entry>
  <entry producer="producer137" in="00:00:00.000" out="00:00:01.900">
   <property name="kdenlive:id">64</property>
   <filter id="filter33">
    <property name="rotate_center">1</property>
    <property name="mlt_service">qtblend</property>
    <property name="kdenlive_id">qtblend</property>
    <property name="rect">00:00:00.000=-1128 -484 3840 2160 0.400000;00:00:00.200=-936 -376 3456 1944 0.200000;00:00:00.267~=-1127 -483 3840 2160 0.300000;00:00:00.400=-935 -375 3456 1944 0.200000;00:00:00.467~=-1127 -484 3840 2160 0.300000;00:00:00.667~=-935 -375 3456 1944 0.300000;00:00:01.900~=-744 -268 3072 1728 0.200000</property>
    <property name="rotation">00:00:00.000=0;00:00:00.200=0;00:00:00.267~=0;00:00:00.400=0;00:00:00.467~=0;00:00:00.667~=0;00:00:01.900~=0</property>
    <property name="compositing">0</property>
    <property name="distort">0</property>
    <property name="kdenlive:collapsed">0</property>
   </filter>
  </entry>
  <entry producer="producer136" in="00:00:00.000" out="00:00:00.900">
   <property name="kdenlive:id">67</property>
   <filter id="filter34">
    <property name="rotate_center">1</property>
    <property name="mlt_service">qtblend</property>
    <property name="kdenlive_id">qtblend</property>
    <property name="rect">00:00:00.000=-1063 -510 3840 2160 0.400000;00:00:00.900~=-871 -402 3456 1944 0.200000</property>
    <property name="rotation">00:00:00.000=0;00:00:00.900~=0</property>
    <property name="compositing">0</property>
    <property name="distort">0</property>
    <property name="kdenlive:collapsed">0</property>
   </filter>
  </entry>
  <entry producer="producer118" in="00:00:00.000" out="00:00:00.967">
   <property name="kdenlive:id">53</property>
   <filter id="filter35">
    <property name="rotate_center">1</property>
    <property name="mlt_service">qtblend</property>
    <property name="kdenlive_id">qtblend</property>
    <property name="rect">00:00:00.000=-794 -644 3840 2160 0.600000;00:00:00.967~=-602 -536 3456 1944 0.200000</property>
    <property name="rotation">00:00:00.000=0;00:00:00.967~=0</property>
    <property name="compositing">0</property>
    <property name="distort">0</property>
    <property name="kdenlive:collapsed">0</property>
   </filter>
  </entry>
  <entry producer="producer124" in="00:00:00.000" out="00:00:01.533">
   <property name="kdenlive:id">58</property>
   <property name="kdenlive:activeeffect">1</property>
   <filter id="filter36">
    <property name="mlt_service">avfilter.hflip</property>
    <property name="kdenlive_id">avfilter.hflip</property>
    <property name="kdenlive:collapsed">0</property>
   </filter>
   <filter id="filter37">
    <property name="rotate_center">1</property>
    <property name="mlt_service">qtblend</property>
    <property name="kdenlive_id">qtblend</property>
    <property name="rect">00:00:00.000=-789 -428 3840 2160 0.600000;00:00:00.267=-755 -409 3773 2122 0.530435;00:00:00.333~=-501 -266 3264 1836 0.520000;00:00:00.633=-404 -212 3072 1728 0.460000;00:00:00.667~=-788 -428 3840 2160 0.440000;00:00:01.533~=-597 -320 3456 1944 0.200000</property>
    <property name="rotation">00:00:00.000=0;00:00:00.267=0;00:00:00.333~=0;00:00:00.633=0;00:00:00.667~=0;00:00:01.533~=0</property>
    <property name="compositing">0</property>
    <property name="distort">0</property>
    <property name="kdenlive:collapsed">0</property>
   </filter>
  </entry>
  <entry producer="producer129" in="00:00:00.000" out="00:00:02.233">
   <property name="kdenlive:id">51</property>
   <filter id="filter38">
    <property name="rotate_center">1</property>
    <property name="mlt_service">qtblend</property>
    <property name="kdenlive_id">qtblend</property>
    <property name="rect">00:00:00.000=-829 -232 3456 1944 0.600000;00:00:02.233~=-637 -124 3072 1728 0.200000</property>
    <property name="rotation">00:00:00.000=0;00:00:02.233~=0</property>
    <property name="compositing">0</property>
    <property name="distort">0</property>
    <property name="kdenlive:collapsed">0</property>
   </filter>
  </entry>
  <entry producer="producer128" in="00:00:00.000" out="00:00:02.367">
   <property name="kdenlive:id">60</property>
   <filter id="filter39">
    <property name="rotate_center">1</property>
    <property name="mlt_service">qtblend</property>
    <property name="kdenlive_id">qtblend</property>
    <property name="rect">00:00:00.000=-757 -311 3840 2160 0.600000;00:00:00.733~=-912 -223 3483 1959 0.400000;00:00:01.367~=-1048 -146 3169 1782 0.450000;00:00:02.367~=-1258 -29 2688 1512 0.800000</property>
    <property name="rotation">00:00:00.000=0;00:00:00.733~=0;00:00:01.367~=0;00:00:02.367~=0</property>
    <property name="compositing">0</property>
    <property name="distort">0</property>
    <property name="kdenlive:collapsed">0</property>
   </filter>
  </entry>
  <blank length="00:00:03.267"/>
  <entry producer="producer144" in="00:00:00.000" out="00:00:03.900">
   <property name="kdenlive:id">68</property>
   <property name="kdenlive:activeeffect">1</property>
   <filter id="filter129">
    <property name="threshold">1</property>
    <property name="slope">5</property>
    <property name="prelevel">0</property>
    <property name="postlevel">255</property>
    <property name="mlt_service">lumakey</property>
    <property name="kdenlive_id">lumakey</property>
    <property name="kdenlive:collapsed">0</property>
   </filter>
   <filter id="filter132">
    <property name="rotate_center">1</property>
    <property name="mlt_service">qtblend</property>
    <property name="kdenlive_id">qtblend</property>
    <property name="rect">00:00:00.000~=-628 -236 1728 972 1.000000;00:00:00.600=-483 -223 1809 1017 1.000000;00:00:00.700~=-562 -275 2016 1134 1.000000;00:00:00.867~=-437 -193 1824 1026 1.000000;00:00:01.400~=-448 -199 1920 1080 1.000000;00:00:01.933|=-443 -220 1920 1080 1.000000;00:00:01.967~=-484 -245 2016 1134 1.000000;00:00:02.133~=-243 -179 1536 864 1.000000;00:00:03.800~=-425 -185 1873 1053 1.000000</property>
    <property name="rotation">00:00:00.000~=5;00:00:00.600=29;00:00:00.700~=31;00:00:00.867~=36;00:00:01.400~=41.6667;00:00:01.933|=44;00:00:01.967~=45.8879;00:00:02.133~=30;00:00:03.800~=0</property>
    <property name="compositing">0</property>
    <property name="distort">0</property>
    <property name="kdenlive:collapsed">0</property>
   </filter>
  </entry>
  <blank length="00:00:02.467"/>
  <entry producer="producer135" in="00:00:00.000" out="00:00:03.800">
   <property name="kdenlive:id">65</property>
   <filter id="filter133">
    <property name="rotate_center">1</property>
    <property name="mlt_service">qtblend</property>
    <property name="kdenlive_id">qtblend</property>
    <property name="rect">00:00:00.000=0 0 1920 1080 1.000000;00:00:03.800~=0 0 1920 1080 1.000000</property>
    <property name="rotation">00:00:00.000=149;00:00:03.800~=192</property>
    <property name="compositing">0</property>
    <property name="distort">0</property>
    <property name="kdenlive:collapsed">0</property>
    <property name="disable">0</property>
   </filter>
   <filter id="filter134">
    <property name="rotate_center">1</property>
    <property name="mlt_service">qtblend</property>
    <property name="kdenlive_id">qtblend</property>
    <property name="rect">00:00:00.000=-643 408 1920 1080 1.000000;00:00:01.533~=-575 489 1728 972 1.000000;00:00:01.667~=-1010 93 2880 1620 1.000000;00:00:01.833~=-1058 66 2976 1674 1.000000;00:00:01.933~=-1010 93 2880 1620 1.000000;00:00:03.800~=-907 226 2592 1458 1.000000</property>
    <property name="rotation">00:00:00.000=0;00:00:01.533~=0;00:00:01.667~=0;00:00:01.833~=0;00:00:01.933~=0;00:00:03.800~=0</property>
    <property name="compositing">0</property>
    <property name="distort">0</property>
    <property name="kdenlive:collapsed">0</property>
    <property name="disable">0</property>
   </filter>
  </entry>
  <blank length="00:01:32.900"/>
  <entry producer="producer16" in="00:00:00.000" out="00:01:14.000">
   <property name="kdenlive:id">12</property>
   <filter id="filter135">
    <property name="mirror">vertical</property>
    <property name="mlt_service">mirror</property>
    <property name="kdenlive_id">mirror</property>
    <property name="reverse">0</property>
    <property name="kdenlive:collapsed">0</property>
   </filter>
   <filter id="filter136">
    <property name="rotate_center">1</property>
    <property name="mlt_service">qtblend</property>
    <property name="kdenlive_id">qtblend</property>
    <property name="rect">00:00:00.000=0 737 1310 737 1.000000</property>
    <property name="rotation">00:00:00.000=0</property>
    <property name="compositing">0</property>
    <property name="distort">1</property>
    <property name="kdenlive:collapsed">0</property>
   </filter>
  </entry>
  <blank length="00:03:12.833"/>
  <entry producer="producer170" in="00:00:00.000" out="00:01:13.000">
   <property name="kdenlive:id">19</property>
   <filter id="filter186">
    <property name="rotate_center">1</property>
    <property name="mlt_service">qtblend</property>
    <property name="kdenlive_id">qtblend</property>
    <property name="rect">00:00:00.000=1163 28 896 512 1.000000</property>
    <property name="rotation">00:00:00.000=0</property>
    <property name="compositing">0</property>
    <property name="distort">1</property>
    <property name="kdenlive:collapsed">0</property>
   </filter>
  </entry>
  <blank length="00:14:00.633"/>
  <entry producer="producer18" in="00:00:00.000" out="00:00:44.033">
   <property name="kdenlive:id">23</property>
   <filter id="filter152">
    <property name="rotate_center">1</property>
    <property name="mlt_service">qtblend</property>
    <property name="kdenlive_id">qtblend</property>
    <property name="rect">0|=0 0 1920 1080 1.000000;64|=0 -140 1920 1080 1.000000;102|=0 -300 1920 1080 1.000000;120|=0 -100 1920 1080 1.000000;177|=0 -400 1920 1080 1.000000;216|=0 -200 1920 1080 1.000000;235|=0 -300 1920 1080 1.000000;271|=0 -140 1920 1080 1.000000;300|=0 -60 1920 1080 1.000000;328|=0 50 1920 1080 1.000000;347|=0 -200 1920 1080 1.000000;385|=0 -350 1920 1080 1.000000;441|=0 -170 1920 1080 1.000000;460|=0 -80 1920 1080 1.000000;497|=0 -180 1920 1080 1.000000;570|=0 -260 1920 1080 1.000000;627|=0 -20 1920 1080 1.000000;683|=0 -160 1920 1080 1.000000;739|=0 -360 1920 1080 1.000000;795|=0 -200 1920 1080 1.000000;851|=0 -50 1920 1080 1.000000;907|=0 -140 1920 1080 1.000000;1021|=0 -230 1920 1080 1.000000;1134|=0 -140 1920 1080 1.000000;1190|=0 -40 1920 1080 1.000000;1245|=0 -330 1920 1080 1.000000;1301|=0 -470 1920 1080 1.000000</property>
    <property name="rotation">0|=0;64|=0;102|=0;120|=0;177|=0;216|=0;235|=0;271|=0;300|=0;328|=0;347|=0;385|=0;441|=0;460|=0;497|=0;570|=0;627|=0;683|=0;739|=0;795|=0;851|=0;907|=0;1021|=0;1134|=0;1190|=0;1245|=0;1301|=0</property>
    <property name="compositing">0</property>
    <property name="distort">0</property>
    <property name="kdenlive:collapsed">0</property>
   </filter>
   <filter id="filter153">
    <property name="mirror">vertical</property>
    <property name="mlt_service">mirror</property>
    <property name="kdenlive_id">mirror</property>
    <property name="reverse">1</property>
    <property name="kdenlive:collapsed">0</property>
   </filter>
  </entry>
 </playlist>
 <playlist id="playlist11"/>
 <tractor id="tractor5" in="00:00:00.000" out="00:22:57.700">
  <property name="kdenlive:trackheight">69</property>
  <property name="kdenlive:timeline_active">1</property>
  <property name="kdenlive:collapsed">0</property>
  <property name="kdenlive:thumbs_format"/>
  <property name="kdenlive:audio_rec"/>
  <track hide="audio" producer="playlist10"/>
  <track producer="playlist11"/>
 </tractor>
 <producer id="producer21" in="00:00:00.000" out="00:01:13.033">
  <property name="length">2192</property>
  <property name="eof">pause</property>
  <property name="resource">content/trip_mirror.mp4</property>
  <property name="audio_index">1</property>
  <property name="video_index">0</property>
  <property name="mute_on_pause">0</property>
  <property name="mlt_service">avformat-novalidate</property>
  <property name="seekable">1</property>
  <property name="aspect_ratio">1</property>
  <property name="kdenlive:clipname">trip_mirror.mp4</property>
  <property name="kdenlive:folderid">34</property>
  <property name="kdenlive:id">21</property>
  <property name="kdenlive:file_size">134574168</property>
  <property name="kdenlive:file_hash">8c962e8f224ca1462712ef210364f729</property>
  <property name="kdenlive:proxy">-</property>
  <property name="kdenlive:originalurl">content/trip_mirror.mp4</property>
  <property name="kdenlive:audio_max">91</property>
  <property name="global_feed">1</property>
  <property name="kdenlive:active_streams">-1</property>
  <property name="xml">was here</property>
  <property name="meta.media.nb_streams">2</property>
  <property name="meta.media.0.stream.type">video</property>
  <property name="meta.media.0.stream.frame_rate">30</property>
  <property name="meta.media.0.stream.sample_aspect_ratio">1</property>
  <property name="meta.media.0.codec.width">1920</property>
  <property name="meta.media.0.codec.height">1080</property>
  <property name="meta.media.0.codec.rotate">0</property>
  <property name="meta.media.0.codec.frame_rate">30</property>
  <property name="meta.media.0.codec.pix_fmt">yuv420p</property>
  <property name="meta.media.0.codec.sample_aspect_ratio">1</property>
  <property name="meta.media.0.codec.colorspace">709</property>
  <property name="meta.media.0.codec.color_trc">1</property>
  <property name="meta.media.0.codec.name">h264</property>
  <property name="meta.media.0.codec.long_name">H.264 / AVC / MPEG-4 AVC / MPEG-4 part 10</property>
  <property name="meta.media.0.codec.bit_rate">14730567</property>
  <property name="meta.attr.0.stream.handler_name.markup">VideoHandler</property>
  <property name="meta.media.1.stream.type">audio</property>
  <property name="meta.media.1.codec.sample_fmt">fltp</property>
  <property name="meta.media.1.codec.sample_rate">48000</property>
  <property name="meta.media.1.codec.channels">2</property>
  <property name="meta.media.1.codec.name">aac</property>
  <property name="meta.media.1.codec.long_name">AAC (Advanced Audio Coding)</property>
  <property name="meta.media.1.codec.bit_rate">2276</property>
  <property name="meta.attr.1.stream.handler_name.markup">SoundHandler</property>
  <property name="meta.attr.major_brand.markup">isom</property>
  <property name="meta.attr.minor_version.markup">512</property>
  <property name="meta.attr.compatible_brands.markup">isomiso2avc1mp41</property>
  <property name="meta.attr.encoder.markup">Lavf58.45.100</property>
  <property name="meta.media.sample_aspect_num">1</property>
  <property name="meta.media.sample_aspect_den">1</property>
  <property name="meta.media.frame_rate_num">30</property>
  <property name="meta.media.frame_rate_den">1</property>
  <property name="meta.media.colorspace">709</property>
  <property name="meta.media.color_trc">1</property>
  <property name="meta.media.width">1920</property>
  <property name="meta.media.height">1080</property>
  <property name="meta.media.color_range">mpeg</property>
  <property name="set.test_audio">1</property>
  <property name="set.test_image">0</property>
 </producer>
 <producer id="producer174" in="00:00:00.000" out="00:01:13.000">
  <property name="length">2191</property>
  <property name="eof">pause</property>
  <property name="resource">content/hot_bod_132000_e3d1a1d9_drum_trip.mp4</property>
  <property name="audio_index">1</property>
  <property name="video_index">0</property>
  <property name="mute_on_pause">0</property>
  <property name="mlt_service">avformat-novalidate</property>
  <property name="seekable">1</property>
  <property name="aspect_ratio">1</property>
  <property name="kdenlive:clipname"/>
  <property name="kdenlive:folderid">34</property>
  <property name="kdenlive:id">18</property>
  <property name="kdenlive:file_size">36280029</property>
  <property name="kdenlive:file_hash">88bfd6c9be010ca9189da24c28ab1e8f</property>
  <property name="kdenlive:audio_max">5</property>
  <property name="global_feed">1</property>
  <property name="xml">was here</property>
  <property name="meta.media.nb_streams">2</property>
  <property name="meta.media.0.stream.type">video</property>
  <property name="meta.media.0.stream.frame_rate">30</property>
  <property name="meta.media.0.stream.sample_aspect_ratio">0</property>
  <property name="meta.media.0.codec.width">896</property>
  <property name="meta.media.0.codec.height">512</property>
  <property name="meta.media.0.codec.rotate">0</property>
  <property name="meta.media.0.codec.frame_rate">30</property>
  <property name="meta.media.0.codec.pix_fmt">yuv420p</property>
  <property name="meta.media.0.codec.sample_aspect_ratio">0</property>
  <property name="meta.media.0.codec.colorspace">601</property>
  <property name="meta.media.0.codec.name">h264</property>
  <property name="meta.media.0.codec.long_name">H.264 / AVC / MPEG-4 AVC / MPEG-4 part 10</property>
  <property name="meta.media.0.codec.bit_rate">3639395</property>
  <property name="meta.attr.0.stream.handler_name.markup">VideoHandler</property>
  <property name="meta.media.1.stream.type">audio</property>
  <property name="meta.media.1.codec.sample_fmt">fltp</property>
  <property name="meta.media.1.codec.sample_rate">48000</property>
  <property name="meta.media.1.codec.channels">2</property>
  <property name="meta.media.1.codec.name">aac</property>
  <property name="meta.media.1.codec.long_name">AAC (Advanced Audio Coding)</property>
  <property name="meta.media.1.codec.bit_rate">328237</property>
  <property name="meta.attr.1.stream.handler_name.markup">SoundHandler</property>
  <property name="meta.attr.major_brand.markup">isom</property>
  <property name="meta.attr.minor_version.markup">512</property>
  <property name="meta.attr.compatible_brands.markup">isomiso2avc1mp41</property>
  <property name="meta.attr.encoder.markup">Lavf58.29.100</property>
  <property name="meta.media.sample_aspect_num">1</property>
  <property name="meta.media.sample_aspect_den">1</property>
  <property name="meta.media.frame_rate_num">30</property>
  <property name="meta.media.frame_rate_den">1</property>
  <property name="meta.media.colorspace">601</property>
  <property name="meta.media.color_trc">2</property>
  <property name="meta.media.width">896</property>
  <property name="meta.media.height">512</property>
  <property name="meta.media.color_range">mpeg</property>
  <property name="meta.media.top_field_first">0</property>
  <property name="meta.media.progressive">1</property>
  <property name="set.test_audio">1</property>
  <property name="set.test_image">0</property>
 </producer>
 <playlist id="playlist12">
  <blank length="00:00:46.733"/>
  <entry producer="producer132" in="00:00:00.000" out="00:00:03.333">
   <property name="kdenlive:id">62</property>
   <filter id="filter154">
    <property name="rotate_center">1</property>
    <property name="mlt_service">qtblend</property>
    <property name="kdenlive_id">qtblend</property>
    <property name="rect">00:00:00.000=0 0 1920 1080 1.000000;00:00:01.367=0 0 1920 1080 1.000000;00:00:01.567~=0 0 1920 1080 1.000000;00:00:01.900~=0 0 1920 1080 1.000000;00:00:03.067=0 0 1920 1080 1.000000;00:00:03.333~=0 0 1920 1080 1.000000</property>
    <property name="rotation">00:00:00.000=-10;00:00:01.367=25;00:00:01.567~=27.102;00:00:01.900~=88;00:00:03.067=260;00:00:03.333~=265</property>
    <property name="compositing">0</property>
    <property name="distort">0</property>
    <property name="kdenlive:collapsed">0</property>
   </filter>
   <filter id="filter155">
    <property name="rotate_center">1</property>
    <property name="mlt_service">qtblend</property>
    <property name="kdenlive_id">qtblend</property>
    <property name="rect">00:00:00.000~=-1449 -118 2692 1514 1.000000;00:00:01.200~=-1349 -585 2880 1620 1.000000;00:00:01.367~=-1290 -612 2880 1620 1.000000;00:00:01.967~=-1243 -594 2880 1620 1.000000;00:00:02.433~=-1127 -587 2880 1620 1.000000;00:00:02.933~=-1048 -519 2880 1620 1.000000;00:00:03.333~=-1017 -441 2880 1620 1.000000</property>
    <property name="rotation">00:00:00.000~=0;00:00:01.200~=0;00:00:01.367~=0;00:00:01.967~=0;00:00:02.433~=0;00:00:02.933~=0;00:00:03.333~=0</property>
    <property name="compositing">0</property>
    <property name="distort">0</property>
    <property name="kdenlive:collapsed">0</property>
   </filter>
  </entry>
  <blank length="00:00:03.733"/>
  <entry producer="producer137" in="00:00:00.000" out="00:00:04.500">
   <property name="kdenlive:id">64</property>
   <filter id="filter156">
    <property name="threshold">1</property>
    <property name="slope">5</property>
    <property name="prelevel">0</property>
    <property name="postlevel">255</property>
    <property name="mlt_service">lumakey</property>
    <property name="kdenlive_id">lumakey</property>
    <property name="kdenlive:collapsed">0</property>
   </filter>
   <filter id="filter157">
    <property name="rotate_center">1</property>
    <property name="mlt_service">qtblend</property>
    <property name="kdenlive_id">qtblend</property>
    <property name="rect">00:00:00.000=-379 -62 1689 950 1.000000;00:00:00.667~=-281 -198 1689 950 1.000000;00:00:01.200~=-272 -244 1688 949 1.000000;00:00:01.533~=-389 -332 1920 1080 1.000000;00:00:01.933|=-278 -290 1689 950 1.000000;00:00:02.100~=-278 -290 1688 949 1.000000;00:00:04.133~=-784 -270 2304 1296 1.000000;00:00:04.233~=-639 -287 2192 1233 1.000000;00:00:04.500~=-457 -325 1920 1080 1.000000</property>
    <property name="rotation">00:00:00.000=0;00:00:00.667~=10;00:00:01.200~=32.959;00:00:01.533~=48.8835;00:00:01.933|=65;00:00:02.100~=62;00:00:04.133~=40;00:00:04.233~=0;00:00:04.500~=-44</property>
    <property name="compositing">0</property>
    <property name="distort">0</property>
    <property name="kdenlive:collapsed">0</property>
   </filter>
   <filter id="filter158" in="00:00:04.133" out="00:00:04.500">
    <property name="start">1</property>
    <property name="mlt_service">brightness</property>
    <property name="kdenlive_id">fade_to_black</property>
    <property name="end">0</property>
    <property name="alpha">-1</property>
    <property name="kdenlive:collapsed">0</property>
    <property name="disable">0</property>
   </filter>
  </entry>
  <blank length="00:00:03.400"/>
  <entry producer="producer10" in="00:00:00.000" out="00:00:01.567">
   <property name="kdenlive:id">50</property>
   <filter id="filter159">
    <property name="threshold">1</property>
    <property name="slope">5</property>
    <property name="prelevel">0</property>
    <property name="postlevel">255</property>
    <property name="mlt_service">lumakey</property>
    <property name="kdenlive_id">lumakey</property>
    <property name="kdenlive:collapsed">0</property>
   </filter>
   <filter id="filter160">
    <property name="rotate_center">1</property>
    <property name="mlt_service">qtblend</property>
    <property name="kdenlive_id">qtblend</property>
    <property name="rect">00:00:00.000=-1378 -396 2880 1620 1.000000;00:00:00.833~=-934 -23 1858 1045 1.000000;00:00:01.133~=-1061 -173 2304 1296 1.000000;00:00:01.367~=-538 170 1205 677 1.000000;00:00:01.500~=-339 257 970 545 1.000000;00:00:01.567~=-416 253 960 540 1.000000</property>
    <property name="rotation">00:00:00.000=128;00:00:00.833~=112;00:00:01.133~=162;00:00:01.367~=128;00:00:01.500~=104;00:00:01.567~=83</property>
    <property name="compositing">0</property>
    <property name="distort">0</property>
    <property name="kdenlive:collapsed">0</property>
   </filter>
  </entry>
  <blank length="00:01:29.767"/>
  <entry producer="producer16" in="00:00:00.000" out="00:01:14.000">
   <property name="kdenlive:id">12</property>
   <filter id="filter161">
    <property name="rotate_center">1</property>
    <property name="mlt_service">qtblend</property>
    <property name="kdenlive_id">qtblend</property>
    <property name="rect">00:00:00.000=0 0 1310 737 1.000000</property>
    <property name="rotation">00:00:00.000=0</property>
    <property name="compositing">0</property>
    <property name="distort">1</property>
    <property name="kdenlive:collapsed">0</property>
   </filter>
  </entry>
  <blank length="00:00:33.367"/>
  <entry producer="producer21" in="00:00:01.400" out="00:00:15.267">
   <property name="kdenlive:id">21</property>
  </entry>
  <entry producer="producer21" in="00:00:15.300" out="00:00:22.167">
   <property name="kdenlive:id">21</property>
   <filter id="filter162">
    <property name="version">0.1</property>
    <property name="mlt_service">frei0r.distort0r</property>
    <property name="kdenlive_id">frei0r.distort0r</property>
    <property name="Amplitude">00:00:15.300=0;00:00:16.033=0.127;00:00:18.800|=0.069712;00:00:19.633=0.021;00:00:20.633=0.041;00:00:20.867=0;00:00:21.033=-0.047;00:00:21.367=-0.087;00:00:22.167=0</property>
    <property name="Frequency">00:00:15.300=0;00:00:16.033=0.025;00:00:18.800|=0.0137228;00:00:19.633=0.213;00:00:20.633=0.344;00:00:20.867=0;00:00:21.033=-0.237;00:00:21.367=0.014;00:00:22.167=0</property>
    <property name="kdenlive:collapsed">0</property>
   </filter>
  </entry>
  <entry producer="producer21" in="00:00:22.200" out="00:00:42.967">
   <property name="kdenlive:id">21</property>
  </entry>
  <entry producer="producer21" in="00:00:43.000" out="00:00:43.200">
   <property name="kdenlive:id">21</property>
   <filter id="filter163">
    <property name="version">0.3</property>
    <property name="mlt_service">frei0r.saturat0r</property>
    <property name="kdenlive_id">frei0r.saturat0r</property>
    <property name="Saturation">00:00:43.000=0.125;00:00:43.067=0.27;00:00:43.200=0.125</property>
    <property name="kdenlive:collapsed">0</property>
   </filter>
  </entry>
  <entry producer="producer21" in="00:00:43.233" out="00:00:44.133">
   <property name="kdenlive:id">21</property>
  </entry>
  <entry producer="producer21" in="00:00:44.167" out="00:00:44.767">
   <property name="kdenlive:id">21</property>
   <filter id="filter164">
    <property name="version">0.3</property>
    <property name="mlt_service">frei0r.saturat0r</property>
    <property name="kdenlive_id">frei0r.saturat0r</property>
    <property name="Saturation">00:00:44.167=0.125;00:00:44.233=0.125;00:00:44.300=0.27;00:00:44.467=0.125;00:00:44.567=0.125;00:00:44.633=0.27;00:00:44.767=0.125</property>
    <property name="kdenlive:collapsed">0</property>
   </filter>
  </entry>
  <entry producer="producer21" in="00:00:44.800" out="00:00:48.633">
   <property name="kdenlive:id">21</property>
   <filter id="filter165">
    <property name="version">0.1</property>
    <property name="mlt_service">frei0r.distort0r</property>
    <property name="kdenlive_id">frei0r.distort0r</property>
    <property name="Amplitude">00:00:44.800=0;00:00:45.067=0;00:00:45.333=0.137;00:00:48.633|=0</property>
    <property name="Frequency">00:00:44.800=0;00:00:45.067=0;00:00:45.333=0.043;00:00:48.633|=0</property>
    <property name="kdenlive:collapsed">0</property>
   </filter>
   <filter id="filter166">
    <property name="version">0.3</property>
    <property name="mlt_service">frei0r.saturat0r</property>
    <property name="kdenlive_id">frei0r.saturat0r</property>
    <property name="Saturation">00:00:44.800=0.125;00:00:45.800=0.125;00:00:45.933=0.251;00:00:46.067=0.125;00:00:46.767=0.125;00:00:46.900=0.253;00:00:47.033=0.125;00:00:48.633=0.125</property>
    <property name="kdenlive:collapsed">0</property>
   </filter>
  </entry>
  <entry producer="producer21" in="00:00:48.667" out="00:01:08.067">
   <property name="kdenlive:id">21</property>
  </entry>
  <entry producer="producer21" in="00:01:08.100" out="00:01:11.033">
   <property name="kdenlive:id">21</property>
   <filter id="filter167">
    <property name="version">0.1</property>
    <property name="mlt_service">frei0r.distort0r</property>
    <property name="kdenlive_id">frei0r.distort0r</property>
    <property name="Amplitude">00:01:08.100=0.01;00:01:08.767=0.04;00:01:08.967=0.02;00:01:09.267=0.035;00:01:09.800=0</property>
    <property name="Frequency">00:01:08.100=0.3;00:01:08.767=0.4;00:01:08.967=0.40024;00:01:09.267=0.514;00:01:09.800=0.401</property>
    <property name="kdenlive:collapsed">0</property>
   </filter>
  </entry>
  <entry producer="producer21" in="00:01:11.067" out="00:01:13.033">
   <property name="kdenlive:id">21</property>
   <filter id="filter168" in="00:01:11.367" out="00:01:13.033">
    <property name="start">1</property>
    <property name="mlt_service">brightness</property>
    <property name="kdenlive_id">fade_to_black</property>
    <property name="end">0</property>
    <property name="alpha">-1</property>
    <property name="kdenlive:collapsed">0</property>
   </filter>
   <filter id="filter169">
    <property name="rotate_center">1</property>
    <property name="mlt_service">qtblend</property>
    <property name="kdenlive_id">qtblend</property>
    <property name="rect">00:01:11.067=-192 -108 2304 1296 1.000000;00:01:13.033=-1920 -1080 5760 3240 1.000000</property>
    <property name="rotation">00:01:11.067=0;00:01:13.033=0</property>
    <property name="compositing">0</property>
    <property name="distort">0</property>
    <property name="kdenlive:collapsed">0</property>
   </filter>
  </entry>
  <entry producer="producer105" in="00:00:00.000" out="00:00:11.833">
   <property name="kdenlive:id">25</property>
   <filter id="filter170">
    <property name="rotate_center">1</property>
    <property name="mlt_service">qtblend</property>
    <property name="kdenlive_id">qtblend</property>
    <property name="rect">00:00:00.000=768 432 384 216 0.000000;00:00:02.333=768 432 384 216 0.000000;00:00:02.867~=0 0 1920 1080 1.000000;00:00:03.033~=48 27 1824 1026 1.000000;00:00:04.167~=48 27 1824 1026 1.000000;00:00:04.967~=48 27 1824 1026 0.600000;00:00:06.767~=48 27 1824 1026 0.600000;00:00:07.400~=0 0 1920 1080 0.800000;00:00:08.067~=-576 -324 3072 1728 1.000000;00:00:08.267~=-480 -270 2880 1620 1.000000;00:00:09.967~=-432 -243 2784 1566 1.000000;00:00:10.533~=-944 -531 3808 2142 1.000000;00:00:11.833~=-2400 -1350 6720 3780 0.000000</property>
    <property name="rotation">00:00:00.000=0;00:00:02.333=0;00:00:02.867~=0;00:00:03.033~=0;00:00:04.167~=0;00:00:04.967~=0;00:00:06.767~=0;00:00:07.400~=0;00:00:08.067~=0;00:00:08.267~=0;00:00:09.967~=0;00:00:10.533~=11.7919;00:00:11.833~=45</property>
    <property name="compositing">0</property>
    <property name="distort">0</property>
    <property name="kdenlive:collapsed">0</property>
   </filter>
  </entry>
  <blank length="00:01:15.933"/>
  <entry producer="producer174" in="00:00:00.000" out="00:01:13.000">
   <property name="kdenlive:id">18</property>
   <filter id="filter188">
    <property name="mlt_service">avfilter.vflip</property>
    <property name="kdenlive_id">avfilter.vflip</property>
    <property name="kdenlive:collapsed">0</property>
   </filter>
   <filter id="filter189">
    <property name="rotate_center">1</property>
    <property name="mlt_service">qtblend</property>
    <property name="kdenlive_id">qtblend</property>
    <property name="rect">00:00:00.000=527 540 896 512 1.000000</property>
    <property name="rotation">00:00:00.000=0</property>
    <property name="compositing">0</property>
    <property name="distort">0</property>
    <property name="kdenlive:collapsed">0</property>
   </filter>
   <filter id="filter190">
    <property name="version">0.1</property>
    <property name="mlt_service">frei0r.mask0mate</property>
    <property name="kdenlive_id">frei0r.mask0mate</property>
    <property name="Left">00:00:00.000=0.333</property>
    <property name="Right">00:00:00.000=0.333</property>
    <property name="Top">00:00:00.000=0</property>
    <property name="Bottom">00:00:00.000=0</property>
    <property name="Invert">1</property>
    <property name="Blur">00:00:00.000=0</property>
    <property name="kdenlive:collapsed">0</property>
   </filter>
  </entry>
 </playlist>
 <playlist id="playlist13"/>
 <tractor id="tractor6" in="00:00:00.000" out="00:08:13.000">
  <property name="kdenlive:trackheight">69</property>
  <property name="kdenlive:timeline_active">1</property>
  <property name="kdenlive:collapsed">0</property>
  <property name="kdenlive:thumbs_format"/>
  <property name="kdenlive:audio_rec"/>
  <track hide="audio" producer="playlist12"/>
  <track producer="playlist13"/>
 </tractor>
 <producer id="producer175" in="00:00:00.000" out="00:00:31.000">
  <property name="length">931</property>
  <property name="eof">pause</property>
  <property name="resource">content/hot_bod_112000_3c4edbf5_bass_solo_synth.mp4</property>
  <property name="audio_index">1</property>
  <property name="video_index">0</property>
  <property name="mute_on_pause">0</property>
  <property name="mlt_service">avformat-novalidate</property>
  <property name="seekable">1</property>
  <property name="aspect_ratio">1</property>
  <property name="kdenlive:clipname"/>
  <property name="kdenlive:folderid">34</property>
  <property name="kdenlive:id">14</property>
  <property name="kdenlive:file_size">12106357</property>
  <property name="kdenlive:file_hash">50318244383a94b0e23f223a98601bbc</property>
  <property name="kdenlive:audio_max">4</property>
  <property name="global_feed">1</property>
  <property name="xml">was here</property>
  <property name="meta.media.nb_streams">2</property>
  <property name="meta.media.0.stream.type">video</property>
  <property name="meta.media.0.stream.frame_rate">30</property>
  <property name="meta.media.0.stream.sample_aspect_ratio">0</property>
  <property name="meta.media.0.codec.width">896</property>
  <property name="meta.media.0.codec.height">512</property>
  <property name="meta.media.0.codec.rotate">0</property>
  <property name="meta.media.0.codec.frame_rate">30</property>
  <property name="meta.media.0.codec.pix_fmt">yuv420p</property>
  <property name="meta.media.0.codec.sample_aspect_ratio">0</property>
  <property name="meta.media.0.codec.colorspace">601</property>
  <property name="meta.media.0.codec.name">h264</property>
  <property name="meta.media.0.codec.long_name">H.264 / AVC / MPEG-4 AVC / MPEG-4 part 10</property>
  <property name="meta.media.0.codec.bit_rate">2780571</property>
  <property name="meta.attr.0.stream.handler_name.markup">VideoHandler</property>
  <property name="meta.media.1.stream.type">audio</property>
  <property name="meta.media.1.codec.sample_fmt">fltp</property>
  <property name="meta.media.1.codec.sample_rate">48000</property>
  <property name="meta.media.1.codec.channels">2</property>
  <property name="meta.media.1.codec.name">aac</property>
  <property name="meta.media.1.codec.long_name">AAC (Advanced Audio Coding)</property>
  <property name="meta.media.1.codec.bit_rate">334809</property>
  <property name="meta.attr.1.stream.handler_name.markup">SoundHandler</property>
  <property name="meta.attr.major_brand.markup">isom</property>
  <property name="meta.attr.minor_version.markup">512</property>
  <property name="meta.attr.compatible_brands.markup">isomiso2avc1mp41</property>
  <property name="meta.attr.encoder.markup">Lavf58.29.100</property>
  <property name="meta.media.sample_aspect_num">1</property>
  <property name="meta.media.sample_aspect_den">1</property>
  <property name="meta.media.frame_rate_num">30</property>
  <property name="meta.media.frame_rate_den">1</property>
  <property name="meta.media.colorspace">601</property>
  <property name="meta.media.color_trc">2</property>
  <property name="meta.media.width">896</property>
  <property name="meta.media.height">512</property>
  <property name="meta.media.color_range">mpeg</property>
  <property name="meta.media.top_field_first">0</property>
  <property name="meta.media.progressive">1</property>
  <property name="set.test_audio">1</property>
  <property name="set.test_image">0</property>
 </producer>
 <producer id="producer22" in="00:00:00.000" out="00:01:14.033">
  <property name="length">2222</property>
  <property name="eof">pause</property>
  <property name="resource">content/synth_solo_background_mirror_1.mp4</property>
  <property name="audio_index">1</property>
  <property name="video_index">0</property>
  <property name="mute_on_pause">0</property>
  <property name="mlt_service">avformat-novalidate</property>
  <property name="seekable">1</property>
  <property name="aspect_ratio">1</property>
  <property name="kdenlive:clipname">synth_solo_background_mirror_1.mp4</property>
  <property name="kdenlive:folderid">34</property>
  <property name="kdenlive:id">15</property>
  <property name="kdenlive:file_size">129146049</property>
  <property name="kdenlive:file_hash">1f7b4775cbd33b10f9ca73a2148fe2db</property>
  <property name="kdenlive:proxy">-</property>
  <property name="kdenlive:originalurl">content/synth_solo_background_mirror_1.mp4</property>
  <property name="kdenlive:audio_max">2</property>
  <property name="global_feed">1</property>
  <property name="kdenlive:clipzones">[
    {
        "in": 2131,
        "name": "Zone 1",
        "out": 2222
    }
]
</property>
  <property name="xml">was here</property>
  <property name="meta.media.nb_streams">2</property>
  <property name="meta.media.0.stream.type">video</property>
  <property name="meta.media.0.stream.frame_rate">30</property>
  <property name="meta.media.0.stream.sample_aspect_ratio">1</property>
  <property name="meta.media.0.codec.width">1920</property>
  <property name="meta.media.0.codec.height">1080</property>
  <property name="meta.media.0.codec.rotate">0</property>
  <property name="meta.media.0.codec.frame_rate">30</property>
  <property name="meta.media.0.codec.pix_fmt">yuv420p</property>
  <property name="meta.media.0.codec.sample_aspect_ratio">1</property>
  <property name="meta.media.0.codec.colorspace">709</property>
  <property name="meta.media.0.codec.color_trc">1</property>
  <property name="meta.media.0.codec.name">h264</property>
  <property name="meta.media.0.codec.long_name">H.264 / AVC / MPEG-4 AVC / MPEG-4 part 10</property>
  <property name="meta.media.0.codec.bit_rate">13753251</property>
  <property name="meta.attr.0.stream.handler_name.markup">VideoHandler</property>
  <property name="meta.media.1.stream.type">audio</property>
  <property name="meta.media.1.codec.sample_fmt">fltp</property>
  <property name="meta.media.1.codec.sample_rate">48000</property>
  <property name="meta.media.1.codec.channels">2</property>
  <property name="meta.media.1.codec.name">aac</property>
  <property name="meta.media.1.codec.long_name">AAC (Advanced Audio Coding)</property>
  <property name="meta.media.1.codec.bit_rate">193744</property>
  <property name="meta.attr.1.stream.handler_name.markup">SoundHandler</property>
  <property name="meta.attr.major_brand.markup">isom</property>
  <property name="meta.attr.minor_version.markup">512</property>
  <property name="meta.attr.compatible_brands.markup">isomiso2avc1mp41</property>
  <property name="meta.attr.encoder.markup">Lavf58.45.100</property>
  <property name="meta.media.sample_aspect_num">1</property>
  <property name="meta.media.sample_aspect_den">1</property>
  <property name="meta.media.frame_rate_num">30</property>
  <property name="meta.media.frame_rate_den">1</property>
  <property name="meta.media.colorspace">709</property>
  <property name="meta.media.color_trc">1</property>
  <property name="meta.media.width">1920</property>
  <property name="meta.media.height">1080</property>
  <property name="meta.media.color_range">mpeg</property>
  <property name="set.test_audio">1</property>
  <property name="set.test_image">0</property>
 </producer>
 <producer id="producer177" in="00:00:00.000" out="00:00:26.000">
  <property name="length">781</property>
  <property name="eof">pause</property>
  <property name="resource">content/hot_bod_132000_91b50e24_start_trip.mp4</property>
  <property name="audio_index">1</property>
  <property name="video_index">0</property>
  <property name="mute_on_pause">0</property>
  <property name="mlt_service">avformat-novalidate</property>
  <property name="seekable">1</property>
  <property name="aspect_ratio">1</property>
  <property name="kdenlive:clipname">hot_bod_132000_91b50e24_start_trip.mp4</property>
  <property name="kdenlive:folderid">34</property>
  <property name="kdenlive:id">17</property>
  <property name="kdenlive:file_size">10182916</property>
  <property name="kdenlive:audio_max">10</property>
  <property name="global_feed">1</property>
  <property name="kdenlive:file_hash">734f80f03da799a358c3354d23a1d9a6</property>
  <property name="xml">was here</property>
  <property name="meta.media.nb_streams">2</property>
  <property name="meta.media.0.stream.type">video</property>
  <property name="meta.media.0.stream.frame_rate">30</property>
  <property name="meta.media.0.stream.sample_aspect_ratio">0</property>
  <property name="meta.media.0.codec.width">896</property>
  <property name="meta.media.0.codec.height">512</property>
  <property name="meta.media.0.codec.rotate">0</property>
  <property name="meta.media.0.codec.frame_rate">30</property>
  <property name="meta.media.0.codec.pix_fmt">yuv420p</property>
  <property name="meta.media.0.codec.sample_aspect_ratio">0</property>
  <property name="meta.media.0.codec.colorspace">601</property>
  <property name="meta.media.0.codec.name">h264</property>
  <property name="meta.media.0.codec.long_name">H.264 / AVC / MPEG-4 AVC / MPEG-4 part 10</property>
  <property name="meta.media.0.codec.bit_rate">2794897</property>
  <property name="meta.attr.0.stream.handler_name.markup">VideoHandler</property>
  <property name="meta.media.1.stream.type">audio</property>
  <property name="meta.media.1.codec.sample_fmt">fltp</property>
  <property name="meta.media.1.codec.sample_rate">48000</property>
  <property name="meta.media.1.codec.channels">2</property>
  <property name="meta.media.1.codec.name">aac</property>
  <property name="meta.media.1.codec.long_name">AAC (Advanced Audio Coding)</property>
  <property name="meta.media.1.codec.bit_rate">329261</property>
  <property name="meta.attr.1.stream.handler_name.markup">SoundHandler</property>
  <property name="meta.attr.major_brand.markup">isom</property>
  <property name="meta.attr.minor_version.markup">512</property>
  <property name="meta.attr.compatible_brands.markup">isomiso2avc1mp41</property>
  <property name="meta.attr.encoder.markup">Lavf58.29.100</property>
  <property name="meta.media.sample_aspect_num">1</property>
  <property name="meta.media.sample_aspect_den">1</property>
  <property name="meta.media.frame_rate_num">30</property>
  <property name="meta.media.frame_rate_den">1</property>
  <property name="meta.media.colorspace">601</property>
  <property name="meta.media.color_trc">2</property>
  <property name="meta.media.width">896</property>
  <property name="meta.media.height">512</property>
  <property name="meta.media.color_range">mpeg</property>
  <property name="meta.media.top_field_first">0</property>
  <property name="meta.media.progressive">1</property>
  <property name="set.test_audio">1</property>
  <property name="set.test_image">0</property>
 </producer>
 <producer id="producer157" in="00:00:00.000" out="00:01:13.000">
  <property name="length">2191</property>
  <property name="eof">pause</property>
  <property name="resource">content/hot_bod_132000_e3d1a1d9_drum_trip.mp4</property>
  <property name="audio_index">1</property>
  <property name="video_index">0</property>
  <property name="mute_on_pause">0</property>
  <property name="mlt_service">avformat-novalidate</property>
  <property name="seekable">1</property>
  <property name="aspect_ratio">1</property>
  <property name="kdenlive:clipname"/>
  <property name="kdenlive:folderid">34</property>
  <property name="kdenlive:id">18</property>
  <property name="kdenlive:file_size">36280029</property>
  <property name="kdenlive:file_hash">88bfd6c9be010ca9189da24c28ab1e8f</property>
  <property name="kdenlive:audio_max">5</property>
  <property name="global_feed">1</property>
  <property name="xml">was here</property>
  <property name="meta.media.nb_streams">2</property>
  <property name="meta.media.0.stream.type">video</property>
  <property name="meta.media.0.stream.frame_rate">30</property>
  <property name="meta.media.0.stream.sample_aspect_ratio">0</property>
  <property name="meta.media.0.codec.width">896</property>
  <property name="meta.media.0.codec.height">512</property>
  <property name="meta.media.0.codec.rotate">0</property>
  <property name="meta.media.0.codec.frame_rate">30</property>
  <property name="meta.media.0.codec.pix_fmt">yuv420p</property>
  <property name="meta.media.0.codec.sample_aspect_ratio">0</property>
  <property name="meta.media.0.codec.colorspace">601</property>
  <property name="meta.media.0.codec.name">h264</property>
  <property name="meta.media.0.codec.long_name">H.264 / AVC / MPEG-4 AVC / MPEG-4 part 10</property>
  <property name="meta.media.0.codec.bit_rate">3639395</property>
  <property name="meta.attr.0.stream.handler_name.markup">VideoHandler</property>
  <property name="meta.media.1.stream.type">audio</property>
  <property name="meta.media.1.codec.sample_fmt">fltp</property>
  <property name="meta.media.1.codec.sample_rate">48000</property>
  <property name="meta.media.1.codec.channels">2</property>
  <property name="meta.media.1.codec.name">aac</property>
  <property name="meta.media.1.codec.long_name">AAC (Advanced Audio Coding)</property>
  <property name="meta.media.1.codec.bit_rate">328237</property>
  <property name="meta.attr.1.stream.handler_name.markup">SoundHandler</property>
  <property name="meta.attr.major_brand.markup">isom</property>
  <property name="meta.attr.minor_version.markup">512</property>
  <property name="meta.attr.compatible_brands.markup">isomiso2avc1mp41</property>
  <property name="meta.attr.encoder.markup">Lavf58.29.100</property>
  <property name="meta.media.sample_aspect_num">1</property>
  <property name="meta.media.sample_aspect_den">1</property>
  <property name="meta.media.frame_rate_num">30</property>
  <property name="meta.media.frame_rate_den">1</property>
  <property name="meta.media.colorspace">601</property>
  <property name="meta.media.color_trc">2</property>
  <property name="meta.media.width">896</property>
  <property name="meta.media.height">512</property>
  <property name="meta.media.color_range">mpeg</property>
  <property name="meta.media.top_field_first">0</property>
  <property name="meta.media.progressive">1</property>
  <property name="set.test_audio">1</property>
  <property name="set.test_image">0</property>
 </producer>
 <playlist id="playlist14">
  <blank length="00:00:57.967"/>
  <entry producer="producer138" in="00:00:00.000" out="00:00:04.633">
   <property name="kdenlive:id">66</property>
   <filter id="filter180">
    <property name="threshold">1</property>
    <property name="slope">40</property>
    <property name="prelevel">0</property>
    <property name="postlevel">255</property>
    <property name="mlt_service">lumakey</property>
    <property name="kdenlive_id">lumakey</property>
    <property name="kdenlive:collapsed">0</property>
   </filter>
   <filter id="filter181">
    <property name="rotate_center">1</property>
    <property name="mlt_service">qtblend</property>
    <property name="kdenlive_id">qtblend</property>
    <property name="rect">00:00:00.000=-497 -462 2112 1188 1.000000;00:00:00.367~=-371 -460 1920 1080 1.000000;00:00:00.833~=-258 -463 1858 1045 1.000000;00:00:01.133~=-400 -535 2112 1188 1.000000;00:00:01.367~=-371 -460 1920 1080 1.000000;00:00:02.600~=-1117 -578 2880 1620 1.000000;00:00:03.300~=-1597 -848 3840 2160 1.000000;00:00:04.200=-1724 -787 3846 2163 1.000000</property>
    <property name="rotation">00:00:00.000=190;00:00:00.367~=177;00:00:00.833~=161.766;00:00:01.133~=151.33;00:00:01.367~=124;00:00:02.600~=-4;00:00:03.300~=-137;00:00:04.200=-169.341</property>
    <property name="compositing">0</property>
    <property name="distort">0</property>
    <property name="kdenlive:collapsed">0</property>
   </filter>
  </entry>
  <blank length="00:01:00.867"/>
  <entry producer="producer175" in="00:00:01.400" out="00:00:31.000">
   <property name="kdenlive:id">14</property>
   <property name="kdenlive:activeeffect">1</property>
   <filter id="filter182">
    <property name="version">0.1</property>
    <property name="mlt_service">frei0r.alphaspot</property>
    <property name="kdenlive_id">frei0r.alphaspot</property>
    <property name="Shape">0</property>
    <property name="Position X">00:00:01.400=0.5</property>
    <property name="Position Y">00:00:01.400=0.5</property>
    <property name="Size X">00:00:01.400=0.162</property>
    <property name="Size Y">00:00:01.400=1</property>
    <property name="Tilt">00:00:01.400=0.5</property>
    <property name="Transition width">00:00:01.400=0</property>
    <property name="Min">00:00:01.400=0</property>
    <property name="Max">00:00:01.400=1</property>
    <property name="Operation">0</property>
    <property name="kdenlive:collapsed">0</property>
   </filter>
   <filter id="filter183">
    <property name="rotate_center">1</property>
    <property name="mlt_service">qtblend</property>
    <property name="kdenlive_id">qtblend</property>
    <property name="rect">00:00:01.400=-668 0 1920 1080 1.000000</property>
    <property name="rotation">00:00:01.400=0</property>
    <property name="compositing">0</property>
    <property name="distort">1</property>
    <property name="kdenlive:collapsed">0</property>
   </filter>
  </entry>
  <entry producer="producer22" in="00:00:00.000" out="00:01:14.000">
   <property name="kdenlive:id">15</property>
  </entry>
  <blank length="00:00:07.967"/>
  <entry producer="producer177" in="00:00:00.000" out="00:00:25.367">
   <property name="kdenlive:id">17</property>
   <filter id="filter184">
    <property name="version">0.1</property>
    <property name="mlt_service">frei0r.distort0r</property>
    <property name="kdenlive_id">frei0r.distort0r</property>
    <property name="Amplitude">00:00:00.000=0;00:00:12.767=0;00:00:13.167=0.089;00:00:14.000=0.07;00:00:14.867=0.167;00:00:16.667=0.01;00:00:18.633=0.025;00:00:19.700=0.025;00:00:20.000=0.183;00:00:21.333|=0.032</property>
    <property name="Frequency">00:00:00.000=0;00:00:12.767=0;00:00:13.167=0.122;00:00:14.000=0.291;00:00:14.867=0.05;00:00:16.667=-0.105;00:00:18.633=0.401;00:00:19.700=0.036;00:00:20.000=0.065;00:00:21.333|=0.065</property>
    <property name="kdenlive:collapsed">0</property>
   </filter>
   <filter id="filter185">
    <property name="rotate_center">1</property>
    <property name="mlt_service">qtblend</property>
    <property name="kdenlive_id">qtblend</property>
    <property name="rect">00:00:00.000=0 0 1920 1080 1</property>
    <property name="rotation">00:00:00.000=0</property>
    <property name="compositing">0</property>
    <property name="distort">1</property>
    <property name="kdenlive:collapsed">0</property>
   </filter>
  </entry>
  <blank length="00:02:39.467"/>
  <entry producer="producer157" in="00:00:00.000" out="00:01:13.000">
   <property name="kdenlive:id">18</property>
   <filter id="filter224">
    <property name="rotate_center">1</property>
    <property name="mlt_service">qtblend</property>
    <property name="kdenlive_id">qtblend</property>
    <property name="rect">00:00:00.000=526 28 896 512 1.000000</property>
    <property name="rotation">00:00:00.000=0</property>
    <property name="compositing">0</property>
    <property name="distort">0</property>
    <property name="kdenlive:collapsed">0</property>
   </filter>
   <filter id="filter225">
    <property name="version">0.1</property>
    <property name="mlt_service">frei0r.mask0mate</property>
    <property name="kdenlive_id">frei0r.mask0mate</property>
    <property name="Left">00:00:00.000=0.333</property>
    <property name="Right">00:00:00.000=0.333</property>
    <property name="Top">00:00:00.000=0</property>
    <property name="Bottom">00:00:00.000=0</property>
    <property name="Invert">1</property>
    <property name="Blur">00:00:00.000=0</property>
    <property name="kdenlive:collapsed">0</property>
   </filter>
  </entry>
 </playlist>
 <playlist id="playlist15"/>
 <tractor id="tractor7" in="00:00:00.000" out="00:08:13.000">
  <property name="kdenlive:trackheight">69</property>
  <property name="kdenlive:timeline_active">1</property>
  <property name="kdenlive:collapsed">28</property>
  <property name="kdenlive:track_name">sarah-test</property>
  <property name="kdenlive:thumbs_format"/>
  <property name="kdenlive:audio_rec"/>
  <track hide="audio" producer="playlist14"/>
  <track producer="playlist15"/>
 </tractor>
 <producer id="producer24" in="00:00:00.000" out="00:03:25.633">
  <property name="length">6170</property>
  <property name="eof">pause</property>
  <property name="resource">content/musicians/2021-06-02_Sarah_kit_sarah_00049-take2.mp4</property>
  <property name="audio_index">1</property>
  <property name="video_index">0</property>
  <property name="mute_on_pause">0</property>
  <property name="mlt_service">avformat-novalidate</property>
  <property name="seekable">1</property>
  <property name="aspect_ratio">1.33333</property>
  <property name="kdenlive:clipname"/>
  <property name="kdenlive:folderid">22</property>
  <property name="kdenlive:id">8</property>
  <property name="kdenlive:file_size">178767904</property>
  <property name="kdenlive:file_hash">92796865885541665f8f7a00441c12c2</property>
  <property name="kdenlive:audio_max">1</property>
  <property name="global_feed">1</property>
  <property name="kdenlive:activeeffect">0</property>
  <property name="xml">was here</property>
  <property name="meta.media.nb_streams">2</property>
  <property name="meta.media.0.stream.type">video</property>
  <property name="meta.media.0.stream.frame_rate">59.9401</property>
  <property name="meta.media.0.stream.sample_aspect_ratio">1.33333</property>
  <property name="meta.media.0.codec.width">1440</property>
  <property name="meta.media.0.codec.height">1080</property>
  <property name="meta.media.0.codec.rotate">0</property>
  <property name="meta.media.0.codec.frame_rate">29.97</property>
  <property name="meta.media.0.codec.pix_fmt">yuv420p</property>
  <property name="meta.media.0.codec.sample_aspect_ratio">1.33333</property>
  <property name="meta.media.0.codec.colorspace">709</property>
  <property name="meta.media.0.codec.name">h264</property>
  <property name="meta.media.0.codec.long_name">H.264 / AVC / MPEG-4 AVC / MPEG-4 part 10</property>
  <property name="meta.media.0.codec.bit_rate">6688963</property>
  <property name="meta.attr.0.stream.handler_name.markup">VideoHandler</property>
  <property name="meta.media.1.stream.type">audio</property>
  <property name="meta.media.1.codec.sample_fmt">fltp</property>
  <property name="meta.media.1.codec.sample_rate">48000</property>
  <property name="meta.media.1.codec.channels">2</property>
  <property name="meta.media.1.codec.name">ac3</property>
  <property name="meta.media.1.codec.long_name">ATSC A/52A (AC-3)</property>
  <property name="meta.media.1.codec.bit_rate">256000</property>
  <property name="meta.attr.1.stream.handler_name.markup">SoundHandler</property>
  <property name="meta.attr.major_brand.markup">isom</property>
  <property name="meta.attr.minor_version.markup">512</property>
  <property name="meta.attr.compatible_brands.markup">isomiso2avc1mp41</property>
  <property name="meta.attr.encoder.markup">Lavf58.45.100</property>
  <property name="meta.media.sample_aspect_num">4</property>
  <property name="meta.media.sample_aspect_den">3</property>
  <property name="meta.media.frame_rate_num">1109610000</property>
  <property name="meta.media.frame_rate_den">18511993</property>
  <property name="meta.media.colorspace">709</property>
  <property name="meta.media.color_trc">2</property>
  <property name="meta.media.width">1440</property>
  <property name="meta.media.height">1080</property>
  <property name="meta.media.color_range">mpeg</property>
  <property name="meta.media.top_field_first">1</property>
  <property name="meta.media.progressive">0</property>
  <property name="set.test_audio">1</property>
  <property name="set.test_image">1</property>
  <filter id="filter18">
   <property name="version">0.6</property>
   <property name="mlt_service">frei0r.select0r</property>
   <property name="kdenlive_id">frei0r.select0r</property>
   <property name="Color to select">0x3e9159ff</property>
   <property name="Invert selection">1</property>
   <property name="Selection subspace">1</property>
   <property name="Subspace shape">0</property>
   <property name="Edge mode">0.9</property>
   <property name="Delta R / A / Hue">0=0.016</property>
   <property name="Delta G / B / Chroma">0=0.189</property>
   <property name="Delta B / I / I">0=0.385</property>
   <property name="Slope">0=0.149</property>
   <property name="Operation">0.5</property>
   <property name="kdenlive:collapsed">0</property>
  </filter>
  <filter id="filter40">
   <property name="version">0.6</property>
   <property name="mlt_service">frei0r.select0r</property>
   <property name="kdenlive_id">frei0r.select0r</property>
   <property name="Color to select">0x3e9159ff</property>
   <property name="Invert selection">1</property>
   <property name="Selection subspace">1</property>
   <property name="Subspace shape">0</property>
   <property name="Edge mode">0.9</property>
   <property name="Delta R / A / Hue">0=0.016</property>
   <property name="Delta G / B / Chroma">0=0.189</property>
   <property name="Delta B / I / I">0=0.385</property>
   <property name="Slope">0=0.149</property>
   <property name="Operation">0.5</property>
  </filter>
 </producer>
 <producer id="producer26" in="00:00:00.000" out="00:04:52.800">
  <property name="length">8785</property>
  <property name="eof">pause</property>
  <property name="resource">content/musicians/2021-06-02_162118_Sarah_kit+handheld_sarah-take3.mp4</property>
  <property name="audio_index">1</property>
  <property name="video_index">0</property>
  <property name="mute_on_pause">0</property>
  <property name="mlt_service">avformat-novalidate</property>
  <property name="seekable">1</property>
  <property name="aspect_ratio">1</property>
  <property name="kdenlive:clipname"/>
  <property name="kdenlive:folderid">22</property>
  <property name="kdenlive:id">4</property>
  <property name="kdenlive:file_size">929894063</property>
  <property name="kdenlive:file_hash">e273f21fe0e5f0a842788ae33423a32a</property>
  <property name="kdenlive:audio_max">4</property>
  <property name="global_feed">1</property>
  <property name="xml">was here</property>
  <property name="meta.media.nb_streams">2</property>
  <property name="meta.media.0.stream.type">video</property>
  <property name="meta.media.0.stream.frame_rate">59.9401</property>
  <property name="meta.media.0.stream.sample_aspect_ratio">1</property>
  <property name="meta.media.0.codec.width">1920</property>
  <property name="meta.media.0.codec.height">1080</property>
  <property name="meta.media.0.codec.rotate">0</property>
  <property name="meta.media.0.codec.frame_rate">59.9401</property>
  <property name="meta.media.0.codec.pix_fmt">yuv420p</property>
  <property name="meta.media.0.codec.sample_aspect_ratio">1</property>
  <property name="meta.media.0.codec.colorspace">709</property>
  <property name="meta.media.0.codec.name">h264</property>
  <property name="meta.media.0.codec.long_name">H.264 / AVC / MPEG-4 AVC / MPEG-4 part 10</property>
  <property name="meta.media.0.codec.bit_rate">24946919</property>
  <property name="meta.attr.0.stream.handler_name.markup">VideoHandler</property>
  <property name="meta.media.1.stream.type">audio</property>
  <property name="meta.media.1.codec.sample_fmt">fltp</property>
  <property name="meta.media.1.codec.sample_rate">48000</property>
  <property name="meta.media.1.codec.channels">6</property>
  <property name="meta.media.1.codec.name">ac3</property>
  <property name="meta.media.1.codec.long_name">ATSC A/52A (AC-3)</property>
  <property name="meta.media.1.codec.bit_rate">448000</property>
  <property name="meta.attr.1.stream.handler_name.markup">SoundHandler</property>
  <property name="meta.attr.major_brand.markup">isom</property>
  <property name="meta.attr.minor_version.markup">512</property>
  <property name="meta.attr.compatible_brands.markup">isomiso2avc1mp41</property>
  <property name="meta.attr.encoder.markup">Lavf58.45.100</property>
  <property name="meta.media.sample_aspect_num">1</property>
  <property name="meta.media.sample_aspect_den">1</property>
  <property name="meta.media.frame_rate_num">1579770000</property>
  <property name="meta.media.frame_rate_den">26355829</property>
  <property name="meta.media.colorspace">709</property>
  <property name="meta.media.color_trc">2</property>
  <property name="meta.media.width">1920</property>
  <property name="meta.media.height">1080</property>
  <property name="meta.media.color_range">mpeg</property>
  <property name="meta.media.top_field_first">0</property>
  <property name="meta.media.progressive">1</property>
  <property name="set.test_audio">1</property>
  <property name="set.test_image">1</property>
 </producer>
 <playlist id="playlist16">
  <blank length="00:00:07.000"/>
  <entry producer="producer24" in="00:00:08.333" out="00:00:47.800">
   <property name="kdenlive:id">8</property>
  </entry>
  <blank length="00:00:01.067"/>
  <entry producer="producer26" in="00:00:02.633" out="00:04:52.800">
   <property name="kdenlive:id">4</property>
  </entry>
 </playlist>
 <playlist id="playlist17"/>
 <tractor id="tractor8" in="00:00:00.000" out="00:05:37.733">
  <property name="kdenlive:trackheight">69</property>
  <property name="kdenlive:timeline_active">1</property>
  <property name="kdenlive:collapsed">28</property>
  <property name="kdenlive:track_name">sarah2</property>
  <property name="kdenlive:thumbs_format"/>
  <property name="kdenlive:audio_rec"/>
  <property name="kdenlive:locked_track">1</property>
  <track hide="both" producer="playlist16"/>
  <track producer="playlist17"/>
 </tractor>
 <producer id="producer27" in="00:00:00.000" out="00:01:50.367">
  <property name="length">3312</property>
  <property name="eof">pause</property>
  <property name="resource">content/musicians/2021-06-02_161425_Sarah_kit+handheld_sarah-take2_start.mp4</property>
  <property name="audio_index">1</property>
  <property name="video_index">0</property>
  <property name="mute_on_pause">0</property>
  <property name="mlt_service">avformat-novalidate</property>
  <property name="seekable">1</property>
  <property name="aspect_ratio">1</property>
  <property name="kdenlive:clipname">2021-06-02_161425_Sarah_kit+handheld_sarah-take2_start.mp4</property>
  <property name="kdenlive:folderid">22</property>
  <property name="kdenlive:id">10</property>
  <property name="kdenlive:file_size">348056084</property>
  <property name="kdenlive:file_hash">b64ced2cf82c852365aec92ea8da5f55</property>
  <property name="kdenlive:proxy">-</property>
  <property name="kdenlive:originalurl">content/musicians/2021-06-02_161425_Sarah_kit+handheld_sarah-take2_start.mp4</property>
  <property name="global_feed">1</property>
  <property name="kdenlive:activeeffect">0</property>
  <property name="xml">was here</property>
  <property name="meta.media.nb_streams">2</property>
  <property name="meta.media.0.stream.type">video</property>
  <property name="meta.media.0.stream.frame_rate">59.9401</property>
  <property name="meta.media.0.stream.sample_aspect_ratio">1</property>
  <property name="meta.media.0.codec.width">1920</property>
  <property name="meta.media.0.codec.height">1080</property>
  <property name="meta.media.0.codec.rotate">0</property>
  <property name="meta.media.0.codec.frame_rate">59.9401</property>
  <property name="meta.media.0.codec.pix_fmt">yuv420p</property>
  <property name="meta.media.0.codec.sample_aspect_ratio">1</property>
  <property name="meta.media.0.codec.colorspace">709</property>
  <property name="meta.media.0.codec.name">h264</property>
  <property name="meta.media.0.codec.long_name">H.264 / AVC / MPEG-4 AVC / MPEG-4 part 10</property>
  <property name="meta.media.0.codec.bit_rate">24996996</property>
  <property name="meta.attr.0.stream.handler_name.markup">VideoHandler</property>
  <property name="meta.media.1.stream.type">audio</property>
  <property name="meta.media.1.codec.sample_fmt">fltp</property>
  <property name="meta.media.1.codec.sample_rate">48000</property>
  <property name="meta.media.1.codec.channels">6</property>
  <property name="meta.media.1.codec.name">ac3</property>
  <property name="meta.media.1.codec.long_name">ATSC A/52A (AC-3)</property>
  <property name="meta.media.1.codec.bit_rate">448000</property>
  <property name="meta.attr.1.stream.handler_name.markup">SoundHandler</property>
  <property name="meta.attr.major_brand.markup">isom</property>
  <property name="meta.attr.minor_version.markup">512</property>
  <property name="meta.attr.compatible_brands.markup">isomiso2avc1mp41</property>
  <property name="meta.attr.encoder.markup">Lavf58.45.100</property>
  <property name="meta.media.sample_aspect_num">1</property>
  <property name="meta.media.sample_aspect_den">1</property>
  <property name="meta.media.frame_rate_num">590040000</property>
  <property name="meta.media.frame_rate_den">9843833</property>
  <property name="meta.media.colorspace">709</property>
  <property name="meta.media.color_trc">2</property>
  <property name="meta.media.width">1920</property>
  <property name="meta.media.height">1080</property>
  <property name="meta.media.color_range">mpeg</property>
  <property name="set.test_audio">1</property>
  <property name="set.test_image">0</property>
  <filter id="filter41">
   <property name="version">0.1</property>
   <property name="mlt_service">frei0r.hqdn3d</property>
   <property name="kdenlive_id">frei0r.hqdn3d</property>
   <property name="Spatial">00:00:00.000=0.056</property>
   <property name="Temporal">00:00:00.000=0.06</property>
  </filter>
  <filter id="filter42">
   <property name="version">0.4</property>
   <property name="mlt_service">frei0r.alpha0ps</property>
   <property name="kdenlive_id">frei0r.alpha0ps</property>
   <property name="Display">0</property>
   <property name="Display input alpha">0</property>
   <property name="Operation">1</property>
   <property name="Threshold">00:00:00.000=0.5</property>
   <property name="Shrink/Grow/Blur amount">00:00:00.000=0.1</property>
   <property name="Invert">0</property>
  </filter>
  <filter id="filter43">
   <property name="version">0.3</property>
   <property name="mlt_service">frei0r.keyspillm0pup</property>
   <property name="kdenlive_id">frei0r.keyspillm0pup</property>
   <property name="Key color">0x34a855ff</property>
   <property name="Target color">0xC87F65ff</property>
   <property name="Mask type">0</property>
   <property name="Tolerance">00:00:00.000=0.206</property>
   <property name="Slope">00:00:00.000=0.192</property>
   <property name="Hue gate">00:00:00.000=0.165</property>
   <property name="Saturation threshold">00:00:00.000=0.104</property>
   <property name="Operation 1">1</property>
   <property name="Amount 1">00:00:00.000=0.5</property>
   <property name="Operation 2">3</property>
   <property name="Amount 2">00:00:00.000=0.141</property>
   <property name="Show mask">0</property>
   <property name="Mask to Alpha">0</property>
  </filter>
 </producer>
 <producer id="producer28" in="00:00:00.000" out="00:05:23.967">
  <property name="length">9720</property>
  <property name="eof">pause</property>
  <property name="resource">content/musicians/2021-06-02_Sarah_kit_sarah_00049-take3_from_bass_solo.mp4</property>
  <property name="audio_index">1</property>
  <property name="video_index">0</property>
  <property name="mute_on_pause">0</property>
  <property name="mlt_service">avformat-novalidate</property>
  <property name="seekable">1</property>
  <property name="aspect_ratio">1.33333</property>
  <property name="kdenlive:clipname"/>
  <property name="kdenlive:folderid">22</property>
  <property name="kdenlive:id">9</property>
  <property name="kdenlive:file_size">281647823</property>
  <property name="kdenlive:file_hash">6e134cdb05b535a713e603c3a0d812f5</property>
  <property name="kdenlive:audio_max">1</property>
  <property name="global_feed">1</property>
  <property name="kdenlive:activeeffect">4</property>
  <property name="xml">was here</property>
  <property name="meta.media.nb_streams">2</property>
  <property name="meta.media.0.stream.type">video</property>
  <property name="meta.media.0.stream.frame_rate">59.9401</property>
  <property name="meta.media.0.stream.sample_aspect_ratio">1.33333</property>
  <property name="meta.media.0.codec.width">1440</property>
  <property name="meta.media.0.codec.height">1080</property>
  <property name="meta.media.0.codec.rotate">0</property>
  <property name="meta.media.0.codec.frame_rate">29.97</property>
  <property name="meta.media.0.codec.pix_fmt">yuv420p</property>
  <property name="meta.media.0.codec.sample_aspect_ratio">1.33333</property>
  <property name="meta.media.0.codec.colorspace">709</property>
  <property name="meta.media.0.codec.name">h264</property>
  <property name="meta.media.0.codec.long_name">H.264 / AVC / MPEG-4 AVC / MPEG-4 part 10</property>
  <property name="meta.media.0.codec.bit_rate">6689533</property>
  <property name="meta.attr.0.stream.handler_name.markup">VideoHandler</property>
  <property name="meta.media.1.stream.type">audio</property>
  <property name="meta.media.1.codec.sample_fmt">fltp</property>
  <property name="meta.media.1.codec.sample_rate">48000</property>
  <property name="meta.media.1.codec.channels">2</property>
  <property name="meta.media.1.codec.name">ac3</property>
  <property name="meta.media.1.codec.long_name">ATSC A/52A (AC-3)</property>
  <property name="meta.media.1.codec.bit_rate">256000</property>
  <property name="meta.attr.1.stream.handler_name.markup">SoundHandler</property>
  <property name="meta.attr.major_brand.markup">isom</property>
  <property name="meta.attr.minor_version.markup">512</property>
  <property name="meta.attr.compatible_brands.markup">isomiso2avc1mp41</property>
  <property name="meta.attr.encoder.markup">Lavf58.45.100</property>
  <property name="meta.media.sample_aspect_num">4</property>
  <property name="meta.media.sample_aspect_den">3</property>
  <property name="meta.media.frame_rate_num">60000</property>
  <property name="meta.media.frame_rate_den">1001</property>
  <property name="meta.media.colorspace">709</property>
  <property name="meta.media.color_trc">2</property>
  <property name="meta.media.width">1440</property>
  <property name="meta.media.height">1080</property>
  <property name="meta.media.color_range">mpeg</property>
  <property name="meta.media.top_field_first">1</property>
  <property name="meta.media.progressive">0</property>
  <property name="set.test_audio">1</property>
  <property name="set.test_image">1</property>
  <filter id="filter44">
   <property name="version">0.1</property>
   <property name="mlt_service">frei0r.hqdn3d</property>
   <property name="kdenlive_id">frei0r.hqdn3d</property>
   <property name="Spatial">00:00:00.000=0.025</property>
   <property name="Temporal">00:00:00.000=0.01</property>
   <property name="kdenlive:collapsed">0</property>
  </filter>
  <filter id="filter45">
   <property name="version">0.6</property>
   <property name="mlt_service">frei0r.select0r</property>
   <property name="kdenlive_id">frei0r.select0r</property>
   <property name="Color to select">0x43a153ff</property>
   <property name="Invert selection">1</property>
   <property name="Selection subspace">1</property>
   <property name="Subspace shape">0</property>
   <property name="Edge mode">0.9</property>
   <property name="Delta R / A / Hue">00:00:00.000=0.03</property>
   <property name="Delta G / B / Chroma">00:00:00.000=0.14</property>
   <property name="Delta B / I / I">00:00:00.000=0.4</property>
   <property name="Slope">00:00:00.000=0.31</property>
   <property name="Operation">0.5</property>
   <property name="kdenlive:collapsed">0</property>
  </filter>
  <filter id="filter46">
   <property name="version">0.4</property>
   <property name="mlt_service">frei0r.alpha0ps</property>
   <property name="kdenlive_id">frei0r.alpha0ps</property>
   <property name="Display">0</property>
   <property name="Display input alpha">0</property>
   <property name="Operation">1</property>
   <property name="Threshold">00:00:00.000=0.5</property>
   <property name="Shrink/Grow/Blur amount">00:00:00.000=0.1</property>
   <property name="Invert">0</property>
   <property name="kdenlive:collapsed">0</property>
  </filter>
  <filter id="filter47">
   <property name="version">0.3</property>
   <property name="mlt_service">frei0r.keyspillm0pup</property>
   <property name="kdenlive_id">frei0r.keyspillm0pup</property>
   <property name="Key color">0x43a153ff</property>
   <property name="Target color">0xC87F65ff</property>
   <property name="Mask type">0</property>
   <property name="Tolerance">00:00:00.000=0.136</property>
   <property name="Slope">00:00:00.000=0.162</property>
   <property name="Hue gate">00:00:00.000=0.113</property>
   <property name="Saturation threshold">00:00:00.000=0.08</property>
   <property name="Operation 1">1</property>
   <property name="Amount 1">00:00:00.000=0.618</property>
   <property name="Operation 2">4</property>
   <property name="Amount 2">00:00:00.000=0.42</property>
   <property name="Show mask">0</property>
   <property name="Mask to Alpha">0</property>
   <property name="kdenlive:collapsed">0</property>
  </filter>
  <filter id="filter48">
   <property name="mode">alpha</property>
   <property name="alpha_operation">sub</property>
   <property name="invert">0</property>
   <property name="feather">12</property>
   <property name="feather_passes">1</property>
   <property name="mlt_service">rotoscoping</property>
   <property name="kdenlive_id">rotoscoping</property>
   <property name="spline">{
    "0000": [
        [
            [
                0.06268343815513626,
                -0.06865671641791045
            ],
            [
                0.10796645702306079,
                -0.048507462686567165
            ],
            [
                0.12557651991614255,
                0.06417910447761195
            ]
        ],
        [
            [
                0.17840670859538785,
                0.40223880597014927
            ],
            [
                0.1960167714884696,
                0.5149253731343284
            ],
            [
                0.18888888888888886,
                0.5208955223880597
            ]
        ],
        [
            [
                0.16750524109014675,
                0.5388059701492538
            ],
            [
                0.16037735849056603,
                0.5447761194029851
            ],
            [
                0.15450733752620543,
                0.5276119402985074
            ]
        ],
        [
            [
                0.13689727463312368,
                0.4761194029850746
            ],
            [
                0.13102725366876308,
                0.45895522388059706
            ],
            [
                0.12075471698113206,
                0.4593283582089553
            ]
        ],
        [
            [
                0.089937106918239,
                0.46044776119402986
            ],
            [
                0.07966457023060797,
                0.4608208955223881
            ],
            [
                0.07735849056603773,
                0.46791044776119406
            ]
        ],
        [
            [
                0.07044025157232704,
                0.4891791044776119
            ],
            [
                0.06813417190775681,
                0.49626865671641796
            ],
            [
                0.06394129979035638,
                0.4970149253731344
            ]
        ],
        [
            [
                0.05136268343815513,
                0.49925373134328355
            ],
            [
                0.04716981132075471,
                0.5
            ],
            [
                0.04465408805031446,
                0.4944029850746269
            ]
        ],
        [
            [
                0.03710691823899371,
                0.4776119402985075
            ],
            [
                0.03459119496855346,
                0.47201492537313433
            ],
            [
                0.011111111111111108,
                0.47985074626865676
            ]
        ],
        [
            [
                -0.059329140461215936,
                0.5033582089552239
            ],
            [
                -0.08280922431865828,
                0.5111940298507462
            ],
            [
                -0.09412997903563941,
                0.4425373134328358
            ]
        ],
        [
            [
                -0.1280922431865828,
                0.23656716417910445
            ],
            [
                -0.13941299790356393,
                0.16791044776119404
            ],
            [
                -0.13522012578616352,
                0.1044776119402985
            ]
        ],
        [
            [
                -0.12264150943396226,
                -0.08582089552238806
            ],
            [
                -0.11844863731656184,
                -0.14925373134328357
            ],
            [
                -0.07316561844863731,
                -0.1291044776119403
            ]
        ]
    ]
}
</property>
   <property name="kdenlive:collapsed">0</property>
  </filter>
  <filter id="filter49">
   <property name="version">0.1</property>
   <property name="mlt_service">frei0r.hqdn3d</property>
   <property name="kdenlive_id">frei0r.hqdn3d</property>
   <property name="Spatial">00:00:00.000=0.025</property>
   <property name="Temporal">00:00:00.000=0.01</property>
  </filter>
  <filter id="filter50">
   <property name="version">0.6</property>
   <property name="mlt_service">frei0r.select0r</property>
   <property name="kdenlive_id">frei0r.select0r</property>
   <property name="Color to select">0x43a153ff</property>
   <property name="Invert selection">1</property>
   <property name="Selection subspace">1</property>
   <property name="Subspace shape">0</property>
   <property name="Edge mode">0.9</property>
   <property name="Delta R / A / Hue">00:00:00.000=0.03</property>
   <property name="Delta G / B / Chroma">00:00:00.000=0.14</property>
   <property name="Delta B / I / I">00:00:00.000=0.4</property>
   <property name="Slope">00:00:00.000=0.31</property>
   <property name="Operation">0.5</property>
  </filter>
  <filter id="filter51">
   <property name="version">0.4</property>
   <property name="mlt_service">frei0r.alpha0ps</property>
   <property name="kdenlive_id">frei0r.alpha0ps</property>
   <property name="Display">0</property>
   <property name="Display input alpha">0</property>
   <property name="Operation">1</property>
   <property name="Threshold">00:00:00.000=0.5</property>
   <property name="Shrink/Grow/Blur amount">00:00:00.000=0.1</property>
   <property name="Invert">0</property>
  </filter>
  <filter id="filter52">
   <property name="version">0.3</property>
   <property name="mlt_service">frei0r.keyspillm0pup</property>
   <property name="kdenlive_id">frei0r.keyspillm0pup</property>
   <property name="Key color">0x43a153ff</property>
   <property name="Target color">0xC87F65ff</property>
   <property name="Mask type">0</property>
   <property name="Tolerance">00:00:00.000=0.136</property>
   <property name="Slope">00:00:00.000=0.162</property>
   <property name="Hue gate">00:00:00.000=0.113</property>
   <property name="Saturation threshold">00:00:00.000=0.08</property>
   <property name="Operation 1">1</property>
   <property name="Amount 1">00:00:00.000=0.618</property>
   <property name="Operation 2">4</property>
   <property name="Amount 2">00:00:00.000=0.42</property>
   <property name="Show mask">0</property>
   <property name="Mask to Alpha">0</property>
  </filter>
  <filter id="filter53">
   <property name="mode">alpha</property>
   <property name="alpha_operation">sub</property>
   <property name="invert">0</property>
   <property name="feather">12</property>
   <property name="feather_passes">1</property>
   <property name="mlt_service">rotoscoping</property>
   <property name="kdenlive_id">rotoscoping</property>
   <property name="spline">{
    "0000": [
        [
            [
                0.06268343815513626,
                -0.06865671641791045
            ],
            [
                0.10796645702306079,
                -0.048507462686567165
            ],
            [
                0.12557651991614255,
                0.06417910447761195
            ]
        ],
        [
            [
                0.17840670859538785,
                0.40223880597014927
            ],
            [
                0.1960167714884696,
                0.5149253731343284
            ],
            [
                0.18888888888888886,
                0.5208955223880597
            ]
        ],
        [
            [
                0.16750524109014675,
                0.5388059701492538
            ],
            [
                0.16037735849056603,
                0.5447761194029851
            ],
            [
                0.15450733752620543,
                0.5276119402985074
            ]
        ],
        [
            [
                0.13689727463312368,
                0.4761194029850746
            ],
            [
                0.13102725366876308,
                0.45895522388059706
            ],
            [
                0.12075471698113206,
                0.4593283582089553
            ]
        ],
        [
            [
                0.089937106918239,
                0.46044776119402986
            ],
            [
                0.07966457023060797,
                0.4608208955223881
            ],
            [
                0.07735849056603773,
                0.46791044776119406
            ]
        ],
        [
            [
                0.07044025157232704,
                0.4891791044776119
            ],
            [
                0.06813417190775681,
                0.49626865671641796
            ],
            [
                0.06394129979035638,
                0.4970149253731344
            ]
        ],
        [
            [
                0.05136268343815513,
                0.49925373134328355
            ],
            [
                0.04716981132075471,
                0.5
            ],
            [
                0.04465408805031446,
                0.4944029850746269
            ]
        ],
        [
            [
                0.03710691823899371,
                0.4776119402985075
            ],
            [
                0.03459119496855346,
                0.47201492537313433
            ],
            [
                0.011111111111111108,
                0.47985074626865676
            ]
        ],
        [
            [
                -0.059329140461215936,
                0.5033582089552239
            ],
            [
                -0.08280922431865828,
                0.5111940298507462
            ],
            [
                -0.09412997903563941,
                0.4425373134328358
            ]
        ],
        [
            [
                -0.1280922431865828,
                0.23656716417910445
            ],
            [
                -0.13941299790356393,
                0.16791044776119404
            ],
            [
                -0.13522012578616352,
                0.1044776119402985
            ]
        ],
        [
            [
                -0.12264150943396226,
                -0.08582089552238806
            ],
            [
                -0.11844863731656184,
                -0.14925373134328357
            ],
            [
                -0.07316561844863731,
                -0.1291044776119403
            ]
        ]
    ]
}
</property>
  </filter>
 </producer>
 <producer id="producer165" in="00:00:00.000" out="00:05:23.967">
  <property name="length">9720</property>
  <property name="eof">pause</property>
  <property name="resource">content/musicians/2021-06-02_Sarah_kit_sarah_00049-take3_from_bass_solo.mp4</property>
  <property name="audio_index">1</property>
  <property name="video_index">0</property>
  <property name="mute_on_pause">0</property>
  <property name="mlt_service">avformat-novalidate</property>
  <property name="seekable">1</property>
  <property name="aspect_ratio">1.33333</property>
  <property name="kdenlive:clipname"/>
  <property name="kdenlive:folderid">22</property>
  <property name="kdenlive:id">9</property>
  <property name="kdenlive:file_size">281647823</property>
  <property name="kdenlive:file_hash">6e134cdb05b535a713e603c3a0d812f5</property>
  <property name="kdenlive:audio_max">1</property>
  <property name="global_feed">1</property>
  <property name="kdenlive:activeeffect">4</property>
  <property name="xml">was here</property>
  <property name="meta.media.nb_streams">2</property>
  <property name="meta.media.0.stream.type">video</property>
  <property name="meta.media.0.stream.frame_rate">59.9401</property>
  <property name="meta.media.0.stream.sample_aspect_ratio">1.33333</property>
  <property name="meta.media.0.codec.width">1440</property>
  <property name="meta.media.0.codec.height">1080</property>
  <property name="meta.media.0.codec.rotate">0</property>
  <property name="meta.media.0.codec.frame_rate">29.97</property>
  <property name="meta.media.0.codec.pix_fmt">yuv420p</property>
  <property name="meta.media.0.codec.sample_aspect_ratio">1.33333</property>
  <property name="meta.media.0.codec.colorspace">709</property>
  <property name="meta.media.0.codec.name">h264</property>
  <property name="meta.media.0.codec.long_name">H.264 / AVC / MPEG-4 AVC / MPEG-4 part 10</property>
  <property name="meta.media.0.codec.bit_rate">6689533</property>
  <property name="meta.attr.0.stream.handler_name.markup">VideoHandler</property>
  <property name="meta.media.1.stream.type">audio</property>
  <property name="meta.media.1.codec.sample_fmt">fltp</property>
  <property name="meta.media.1.codec.sample_rate">48000</property>
  <property name="meta.media.1.codec.channels">2</property>
  <property name="meta.media.1.codec.name">ac3</property>
  <property name="meta.media.1.codec.long_name">ATSC A/52A (AC-3)</property>
  <property name="meta.media.1.codec.bit_rate">256000</property>
  <property name="meta.attr.1.stream.handler_name.markup">SoundHandler</property>
  <property name="meta.attr.major_brand.markup">isom</property>
  <property name="meta.attr.minor_version.markup">512</property>
  <property name="meta.attr.compatible_brands.markup">isomiso2avc1mp41</property>
  <property name="meta.attr.encoder.markup">Lavf58.45.100</property>
  <property name="meta.media.sample_aspect_num">4</property>
  <property name="meta.media.sample_aspect_den">3</property>
  <property name="meta.media.frame_rate_num">60000</property>
  <property name="meta.media.frame_rate_den">1001</property>
  <property name="meta.media.colorspace">709</property>
  <property name="meta.media.color_trc">2</property>
  <property name="meta.media.width">1440</property>
  <property name="meta.media.height">1080</property>
  <property name="meta.media.color_range">mpeg</property>
  <property name="meta.media.top_field_first">1</property>
  <property name="meta.media.progressive">0</property>
  <property name="set.test_audio">1</property>
  <property name="set.test_image">0</property>
 </producer>
 <producer id="producer29" in="00:00:00.000" out="00:05:23.967">
  <property name="length">9720</property>
  <property name="eof">pause</property>
  <property name="resource">content/musicians/2021-06-02_Sarah_kit_sarah_00049-take3_from_bass_solo.mp4</property>
  <property name="audio_index">1</property>
  <property name="video_index">0</property>
  <property name="mute_on_pause">0</property>
  <property name="mlt_service">avformat-novalidate</property>
  <property name="seekable">1</property>
  <property name="aspect_ratio">1.33333</property>
  <property name="kdenlive:clipname"/>
  <property name="kdenlive:folderid">22</property>
  <property name="kdenlive:id">9</property>
  <property name="kdenlive:file_size">281647823</property>
  <property name="kdenlive:file_hash">6e134cdb05b535a713e603c3a0d812f5</property>
  <property name="kdenlive:audio_max">1</property>
  <property name="global_feed">1</property>
  <property name="kdenlive:activeeffect">4</property>
  <property name="xml">was here</property>
  <property name="meta.media.nb_streams">2</property>
  <property name="meta.media.0.stream.type">video</property>
  <property name="meta.media.0.stream.frame_rate">59.9401</property>
  <property name="meta.media.0.stream.sample_aspect_ratio">1.33333</property>
  <property name="meta.media.0.codec.width">1440</property>
  <property name="meta.media.0.codec.height">1080</property>
  <property name="meta.media.0.codec.rotate">0</property>
  <property name="meta.media.0.codec.frame_rate">29.97</property>
  <property name="meta.media.0.codec.pix_fmt">yuv420p</property>
  <property name="meta.media.0.codec.sample_aspect_ratio">1.33333</property>
  <property name="meta.media.0.codec.colorspace">709</property>
  <property name="meta.media.0.codec.name">h264</property>
  <property name="meta.media.0.codec.long_name">H.264 / AVC / MPEG-4 AVC / MPEG-4 part 10</property>
  <property name="meta.media.0.codec.bit_rate">6689533</property>
  <property name="meta.attr.0.stream.handler_name.markup">VideoHandler</property>
  <property name="meta.media.1.stream.type">audio</property>
  <property name="meta.media.1.codec.sample_fmt">fltp</property>
  <property name="meta.media.1.codec.sample_rate">48000</property>
  <property name="meta.media.1.codec.channels">2</property>
  <property name="meta.media.1.codec.name">ac3</property>
  <property name="meta.media.1.codec.long_name">ATSC A/52A (AC-3)</property>
  <property name="meta.media.1.codec.bit_rate">256000</property>
  <property name="meta.attr.1.stream.handler_name.markup">SoundHandler</property>
  <property name="meta.attr.major_brand.markup">isom</property>
  <property name="meta.attr.minor_version.markup">512</property>
  <property name="meta.attr.compatible_brands.markup">isomiso2avc1mp41</property>
  <property name="meta.attr.encoder.markup">Lavf58.45.100</property>
  <property name="meta.media.sample_aspect_num">4</property>
  <property name="meta.media.sample_aspect_den">3</property>
  <property name="meta.media.frame_rate_num">60000</property>
  <property name="meta.media.frame_rate_den">1001</property>
  <property name="meta.media.colorspace">709</property>
  <property name="meta.media.color_trc">2</property>
  <property name="meta.media.width">1440</property>
  <property name="meta.media.height">1080</property>
  <property name="meta.media.color_range">mpeg</property>
  <property name="meta.media.top_field_first">1</property>
  <property name="meta.media.progressive">0</property>
  <property name="set.test_audio">1</property>
  <property name="set.test_image">0</property>
  <filter id="filter54">
   <property name="version">0.1</property>
   <property name="mlt_service">frei0r.hqdn3d</property>
   <property name="kdenlive_id">frei0r.hqdn3d</property>
   <property name="Spatial">00:00:00.000=0.025</property>
   <property name="Temporal">00:00:00.000=0.01</property>
  </filter>
  <filter id="filter55">
   <property name="version">0.6</property>
   <property name="mlt_service">frei0r.select0r</property>
   <property name="kdenlive_id">frei0r.select0r</property>
   <property name="Color to select">0x43a153ff</property>
   <property name="Invert selection">1</property>
   <property name="Selection subspace">1</property>
   <property name="Subspace shape">0</property>
   <property name="Edge mode">0.9</property>
   <property name="Delta R / A / Hue">00:00:00.000=0.03</property>
   <property name="Delta G / B / Chroma">00:00:00.000=0.14</property>
   <property name="Delta B / I / I">00:00:00.000=0.4</property>
   <property name="Slope">00:00:00.000=0.31</property>
   <property name="Operation">0.5</property>
  </filter>
  <filter id="filter61">
   <property name="version">0.4</property>
   <property name="mlt_service">frei0r.alpha0ps</property>
   <property name="kdenlive_id">frei0r.alpha0ps</property>
   <property name="Display">0</property>
   <property name="Display input alpha">0</property>
   <property name="Operation">1</property>
   <property name="Threshold">00:00:00.000=0.5</property>
   <property name="Shrink/Grow/Blur amount">00:00:00.000=0.1</property>
   <property name="Invert">0</property>
  </filter>
  <filter id="filter62">
   <property name="version">0.3</property>
   <property name="mlt_service">frei0r.keyspillm0pup</property>
   <property name="kdenlive_id">frei0r.keyspillm0pup</property>
   <property name="Key color">0x43a153ff</property>
   <property name="Target color">0xC87F65ff</property>
   <property name="Mask type">0</property>
   <property name="Tolerance">00:00:00.000=0.136</property>
   <property name="Slope">00:00:00.000=0.162</property>
   <property name="Hue gate">00:00:00.000=0.113</property>
   <property name="Saturation threshold">00:00:00.000=0.08</property>
   <property name="Operation 1">1</property>
   <property name="Amount 1">00:00:00.000=0.618</property>
   <property name="Operation 2">4</property>
   <property name="Amount 2">00:00:00.000=0.42</property>
   <property name="Show mask">0</property>
   <property name="Mask to Alpha">0</property>
  </filter>
  <filter id="filter63">
   <property name="mode">alpha</property>
   <property name="alpha_operation">sub</property>
   <property name="invert">0</property>
   <property name="feather">12</property>
   <property name="feather_passes">1</property>
   <property name="mlt_service">rotoscoping</property>
   <property name="kdenlive_id">rotoscoping</property>
   <property name="spline">{
    "0000": [
        [
            [
                0.06268343815513626,
                -0.06865671641791045
            ],
            [
                0.10796645702306079,
                -0.048507462686567165
            ],
            [
                0.12557651991614255,
                0.06417910447761195
            ]
        ],
        [
            [
                0.17840670859538785,
                0.40223880597014927
            ],
            [
                0.1960167714884696,
                0.5149253731343284
            ],
            [
                0.18888888888888886,
                0.5208955223880597
            ]
        ],
        [
            [
                0.16750524109014675,
                0.5388059701492538
            ],
            [
                0.16037735849056603,
                0.5447761194029851
            ],
            [
                0.15450733752620543,
                0.5276119402985074
            ]
        ],
        [
            [
                0.13689727463312368,
                0.4761194029850746
            ],
            [
                0.13102725366876308,
                0.45895522388059706
            ],
            [
                0.12075471698113206,
                0.4593283582089553
            ]
        ],
        [
            [
                0.089937106918239,
                0.46044776119402986
            ],
            [
                0.07966457023060797,
                0.4608208955223881
            ],
            [
                0.07735849056603773,
                0.46791044776119406
            ]
        ],
        [
            [
                0.07044025157232704,
                0.4891791044776119
            ],
            [
                0.06813417190775681,
                0.49626865671641796
            ],
            [
                0.06394129979035638,
                0.4970149253731344
            ]
        ],
        [
            [
                0.05136268343815513,
                0.49925373134328355
            ],
            [
                0.04716981132075471,
                0.5
            ],
            [
                0.04465408805031446,
                0.4944029850746269
            ]
        ],
        [
            [
                0.03710691823899371,
                0.4776119402985075
            ],
            [
                0.03459119496855346,
                0.47201492537313433
            ],
            [
                0.011111111111111108,
                0.47985074626865676
            ]
        ],
        [
            [
                -0.059329140461215936,
                0.5033582089552239
            ],
            [
                -0.08280922431865828,
                0.5111940298507462
            ],
            [
                -0.09412997903563941,
                0.4425373134328358
            ]
        ],
        [
            [
                -0.1280922431865828,
                0.23656716417910445
            ],
            [
                -0.13941299790356393,
                0.16791044776119404
            ],
            [
                -0.13522012578616352,
                0.1044776119402985
            ]
        ],
        [
            [
                -0.12264150943396226,
                -0.08582089552238806
            ],
            [
                -0.11844863731656184,
                -0.14925373134328357
            ],
            [
                -0.07316561844863731,
                -0.1291044776119403
            ]
        ]
    ]
}
</property>
  </filter>
 </producer>
 <playlist id="playlist18">
  <blank length="00:00:03.867"/>
  <entry producer="producer27" in="00:00:00.400" out="00:00:43.233">
   <property name="kdenlive:id">10</property>
   <filter id="filter209">
    <property name="lift_r">-0.100008</property>
    <property name="lift_g">-0.100008</property>
    <property name="lift_b">-0.100008</property>
    <property name="gamma_r">0.775006</property>
    <property name="gamma_g">0.775006</property>
    <property name="gamma_b">0.775006</property>
    <property name="gain_r">3.47503</property>
    <property name="gain_g">3.47503</property>
    <property name="gain_b">3.47503</property>
    <property name="mlt_service">lift_gamma_gain</property>
    <property name="kdenlive_id">lift_gamma_gain</property>
    <property name="kdenlive:collapsed">0</property>
    <property name="disable">0</property>
   </filter>
   <filter id="filter210">
    <property name="mlt_service">avfilter.smartblur</property>
    <property name="kdenlive_id">avfilter.smartblur</property>
    <property name="av.lr">2.5598</property>
    <property name="av.ls">0.456</property>
    <property name="av.lt">0</property>
    <property name="av.cr">1</property>
    <property name="av.cs">-1</property>
    <property name="av.ct">0</property>
    <property name="kdenlive:collapsed">0</property>
    <property name="disable">0</property>
   </filter>
   <filter id="filter211">
    <property name="mlt_service">greyscale</property>
    <property name="kdenlive_id">greyscale</property>
    <property name="kdenlive:collapsed">0</property>
    <property name="disable">0</property>
   </filter>
   <filter id="filter212">
    <property name="mlt_service">avfilter.edgedetect</property>
    <property name="kdenlive_id">avfilter.edgedetect</property>
    <property name="av.low">0.018</property>
    <property name="av.high">0.76</property>
    <property name="av.mode">wires</property>
    <property name="av.planes">7</property>
    <property name="kdenlive:collapsed">0</property>
    <property name="disable">0</property>
   </filter>
   <filter id="filter213" in="00:00:00.400" out="00:00:03.167">
    <property name="start">0</property>
    <property name="mlt_service">brightness</property>
    <property name="kdenlive_id">fade_from_black</property>
    <property name="end">1</property>
    <property name="alpha">-1</property>
    <property name="kdenlive:collapsed">0</property>
   </filter>
   <filter id="filter214" in="00:00:42.800" out="00:00:43.233">
    <property name="start">1</property>
    <property name="mlt_service">brightness</property>
    <property name="kdenlive_id">fade_to_black</property>
    <property name="end">0</property>
    <property name="alpha">-1</property>
   </filter>
  </entry>
  <blank length="00:00:00.833"/>
  <entry producer="producer28" in="00:00:07.833" out="00:02:56.867">
   <property name="kdenlive:id">9</property>
  </entry>
  <entry producer="producer165" in="00:02:56.900" out="00:03:16.233">
   <property name="kdenlive:id">9</property>
   <filter id="filter215" in="00:03:14.000" out="00:03:16.233">
    <property name="start">1</property>
    <property name="mlt_service">brightness</property>
    <property name="kdenlive_id">fade_to_black</property>
    <property name="end">0</property>
    <property name="alpha">-1</property>
    <property name="kdenlive:collapsed">0</property>
   </filter>
   <filter id="filter216" in="00:02:56.900" out="00:03:00.933">
    <property name="start">0</property>
    <property name="mlt_service">brightness</property>
    <property name="kdenlive_id">fade_from_black</property>
    <property name="end">1</property>
    <property name="alpha">-1</property>
    <property name="kdenlive:collapsed">0</property>
   </filter>
  </entry>
  <entry producer="producer28" in="00:03:16.267" out="00:04:28.033">
   <property name="kdenlive:id">9</property>
  </entry>
  <entry producer="producer29" in="00:04:28.067" out="00:04:52.433">
   <property name="kdenlive:id">9</property>
   <filter id="filter217">
    <property name="mode">alpha</property>
    <property name="alpha_operation">sub</property>
    <property name="invert">0</property>
    <property name="feather">10</property>
    <property name="feather_passes">1</property>
    <property name="mlt_service">rotoscoping</property>
    <property name="kdenlive_id">rotoscoping</property>
    <property name="spline">{
    "8042": [
        [
            [
                -0.06499133448873483,
                0.3459167950693374
            ],
            [
                -0.049393414211438474,
                0.4722650231124807
            ],
            [
                -0.014038128249566724,
                0.46795069337442213
            ]
        ],
        [
            [
                0.09202772963604852,
                0.45500770416024644
            ],
            [
                0.12738301559792026,
                0.45069337442218793
            ],
            [
                0.13500866551126517,
                0.4704160246533127
            ]
        ],
        [
            [
                0.15788561525129982,
                0.5295839753466872
            ],
            [
                0.1655112651646447,
                0.5493066255778121
            ],
            [
                0.17209705372616982,
                0.5462249614791987
            ]
        ],
        [
            [
                0.19185441941074524,
                0.536979969183359
            ],
            [
                0.19844020797227035,
                0.5338983050847458
            ],
            [
                0.18180242634315424,
                0.44884437596302
            ]
        ],
        [
            [
                0.13188908145580588,
                0.19368258859784282
            ],
            [
                0.11525129982668976,
                0.10862865947611709
            ],
            [
                0.1797227036395147,
                0.0950693374422188
            ]
        ],
        [
            [
                0.37313691507798963,
                0.054391371340523874
            ],
            [
                0.43760831889081453,
                0.040832049306625574
            ],
            [
                0.451473136915078,
                0.03528505392912172
            ]
        ],
        [
            [
                0.4930675909878683,
                0.01864406779661017
            ],
            [
                0.5069324090121318,
                0.013097072419106317
            ],
            [
                0.5277296360485269,
                0.01802773497688752
            ]
        ],
        [
            [
                0.5901213171577123,
                0.03281972265023112
            ],
            [
                0.6109185441941075,
                0.03775038520801232
            ],
            [
                0.6421143847487002,
                0.09322033898305085
            ]
        ],
        [
            [
                0.7357019064124782,
                0.2596302003081664
            ],
            [
                0.766897746967071,
                0.3151001540832049
            ],
            [
                0.7675909878682842,
                0.32249614791987674
            ]
        ],
        [
            [
                0.7696707105719237,
                0.3446841294298921
            ],
            [
                0.7703639514731369,
                0.35208012326656396
            ],
            [
                0.7814558058925477,
                0.3613251155624037
            ]
        ],
        [
            [
                0.8147313691507798,
                0.3890600924499229
            ],
            [
                0.8258232235701907,
                0.39830508474576265
            ],
            [
                0.823050259965338,
                0.4439137134052388
            ]
        ],
        [
            [
                0.8147313691507798,
                0.5807395993836671
            ],
            [
                0.8119584055459271,
                0.6263482280431432
            ],
            [
                0.8175043327556325,
                0.6288135593220338
            ]
        ],
        [
            [
                0.8514731369150781,
                0.6469953775038513
            ],
            [
                0.8570190641247833,
                0.6494607087827426
            ],
            [
                0.8986135181975736,
                0.6325115562403697
            ]
        ],
        [
            [
                0.9133448873483535,
                0.6325115562403697
            ],
            [
                0.9306759098786829,
                0.6340523882896764
            ],
            [
                0.9566724436741768,
                0.6448382126348227
            ]
        ],
        [
            [
                1.0143847487001731,
                0.6781201848998458
            ],
            [
                1.035528596187175,
                0.6910631741140215
            ],
            [
                1.0438474870017331,
                0.5240369799691833
            ]
        ],
        [
            [
                1.0688041594454072,
                0.022958397534668717
            ],
            [
                1.0771230502599651,
                -0.14406779661016947
            ],
            [
                0.9627383015597919,
                -0.17426810477657934
            ]
        ],
        [
            [
                0.6195840554592721,
                -0.26486902927580896
            ],
            [
                0.5051993067590987,
                -0.2950693374422188
            ],
            [
                0.378682842287695,
                -0.2679506933744222
            ]
        ],
        [
            [
                -0.0008665511265164572,
                -0.18659476117103235
            ],
            [
                -0.12738301559792026,
                -0.15947611710323573
            ],
            [
                -0.1117850953206239,
                -0.03312788906009245
            ]
        ]
    ],
    "8773": [
        [
            [
                -0.06499133448873483,
                0.3459167950693374
            ],
            [
                -0.049393414211438474,
                0.4722650231124807
            ],
            [
                -0.014038128249566724,
                0.46795069337442213
            ]
        ],
        [
            [
                0.09202772963604852,
                0.45500770416024644
            ],
            [
                0.12738301559792026,
                0.45069337442218793
            ],
            [
                0.13500866551126517,
                0.4704160246533127
            ]
        ],
        [
            [
                0.15788561525129982,
                0.5295839753466872
            ],
            [
                0.1655112651646447,
                0.5493066255778121
            ],
            [
                0.17209705372616982,
                0.5462249614791987
            ]
        ],
        [
            [
                0.19185441941074524,
                0.536979969183359
            ],
            [
                0.19844020797227035,
                0.5338983050847458
            ],
            [
                0.18180242634315424,
                0.44884437596302
            ]
        ],
        [
            [
                0.13188908145580588,
                0.19368258859784282
            ],
            [
                0.11525129982668976,
                0.10862865947611709
            ],
            [
                0.1797227036395147,
                0.0950693374422188
            ]
        ],
        [
            [
                0.37313691507798963,
                0.054391371340523874
            ],
            [
                0.43760831889081453,
                0.040832049306625574
            ],
            [
                0.451473136915078,
                0.03528505392912172
            ]
        ],
        [
            [
                0.4930675909878683,
                0.01864406779661017
            ],
            [
                0.5069324090121318,
                0.013097072419106317
            ],
            [
                0.5277296360485269,
                0.01802773497688752
            ]
        ],
        [
            [
                0.5901213171577123,
                0.03281972265023112
            ],
            [
                0.6109185441941075,
                0.03775038520801232
            ],
            [
                0.6421143847487002,
                0.09322033898305085
            ]
        ],
        [
            [
                0.7357019064124782,
                0.2596302003081664
            ],
            [
                0.766897746967071,
                0.3151001540832049
            ],
            [
                0.7675909878682842,
                0.32249614791987674
            ]
        ],
        [
            [
                0.7696707105719237,
                0.3446841294298921
            ],
            [
                0.7703639514731369,
                0.35208012326656396
            ],
            [
                0.7814558058925477,
                0.3613251155624037
            ]
        ],
        [
            [
                0.8147313691507798,
                0.3890600924499229
            ],
            [
                0.8258232235701907,
                0.39830508474576265
            ],
            [
                0.823050259965338,
                0.4439137134052388
            ]
        ],
        [
            [
                0.8147313691507798,
                0.5807395993836671
            ],
            [
                0.8119584055459271,
                0.6263482280431432
            ],
            [
                0.8175043327556325,
                0.6288135593220338
            ]
        ],
        [
            [
                0.8474808120821985,
                0.6505447941888619
            ],
            [
                0.8530267392919039,
                0.6530101254677525
            ],
            [
                0.8826442188660558,
                0.6419766674003962
            ]
        ],
        [
            [
                0.9128125773706363,
                0.6367708562623815
            ],
            [
                0.9306759098786829,
                0.6352355271846796
            ],
            [
                0.952946273830156,
                0.6476777459828307
            ]
        ],
        [
            [
                1.0143847487001731,
                0.6781201848998458
            ],
            [
                1.035528596187175,
                0.6910631741140215
            ],
            [
                1.0438474870017331,
                0.5240369799691833
            ]
        ],
        [
            [
                1.0688041594454072,
                0.022958397534668717
            ],
            [
                1.0771230502599651,
                -0.14406779661016947
            ],
            [
                0.9627383015597919,
                -0.17426810477657934
            ]
        ],
        [
            [
                0.6195840554592721,
                -0.26486902927580896
            ],
            [
                0.5051993067590987,
                -0.2950693374422188
            ],
            [
                0.378682842287695,
                -0.2679506933744222
            ]
        ],
        [
            [
                -0.0008665511265164572,
                -0.18659476117103235
            ],
            [
                -0.12738301559792026,
                -0.15947611710323573
            ],
            [
                -0.1117850953206239,
                -0.03312788906009245
            ]
        ]
    ]
}
</property>
    <property name="kdenlive:collapsed">0</property>
    <property name="disable">1</property>
   </filter>
   <filter id="filter218" in="00:04:28.067" out="00:04:28.567">
    <property name="start">0</property>
    <property name="mlt_service">brightness</property>
    <property name="kdenlive_id">fade_from_black</property>
    <property name="end">1</property>
    <property name="alpha">-1</property>
    <property name="kdenlive:collapsed">0</property>
   </filter>
  </entry>
  <entry producer="producer29" in="00:04:52.467" out="00:05:04.300">
   <property name="kdenlive:id">9</property>
   <filter id="filter219" in="00:05:02.833" out="00:05:04.300">
    <property name="start">1</property>
    <property name="mlt_service">brightness</property>
    <property name="kdenlive_id">fade_to_black</property>
    <property name="end">0</property>
    <property name="alpha">-1</property>
    <property name="kdenlive:collapsed">0</property>
   </filter>
   <filter id="filter220">
    <property name="mode">alpha</property>
    <property name="alpha_operation">sub</property>
    <property name="invert">0</property>
    <property name="feather">10</property>
    <property name="feather_passes">1</property>
    <property name="mlt_service">rotoscoping</property>
    <property name="kdenlive_id">rotoscoping</property>
    <property name="spline">{
    "8774": [
        [
            [
                -0.06499133448873483,
                0.3459167950693374
            ],
            [
                -0.049393414211438474,
                0.4722650231124807
            ],
            [
                -0.014038128249566724,
                0.46795069337442213
            ]
        ],
        [
            [
                0.09202772963604852,
                0.45500770416024644
            ],
            [
                0.12738301559792026,
                0.45069337442218793
            ],
            [
                0.13500866551126517,
                0.4704160246533127
            ]
        ],
        [
            [
                0.15788561525129982,
                0.5295839753466872
            ],
            [
                0.1655112651646447,
                0.5493066255778121
            ],
            [
                0.17209705372616982,
                0.5462249614791987
            ]
        ],
        [
            [
                0.2198293057780975,
                0.7232309178299567
            ],
            [
                0.22641509433962265,
                0.7201492537313433
            ],
            [
                0.28092243186582805,
                0.6977611940298507
            ]
        ],
        [
            [
                0.279874213836478,
                0.44029850746268656
            ],
            [
                0.3092243186582809,
                0.39365671641791045
            ],
            [
                0.3427672955974843,
                0.2779850746268657
            ]
        ],
        [
            [
                0.37313691507798963,
                0.054391371340523874
            ],
            [
                0.43760831889081453,
                0.040832049306625574
            ],
            [
                0.451473136915078,
                0.03528505392912172
            ]
        ],
        [
            [
                0.4930675909878683,
                0.01864406779661017
            ],
            [
                0.5069324090121318,
                0.013097072419106317
            ],
            [
                0.5277296360485269,
                0.01802773497688752
            ]
        ],
        [
            [
                0.5777352677225147,
                0.07715888968102479
            ],
            [
                0.5985324947589098,
                0.08208955223880597
            ],
            [
                0.6297283353135026,
                0.13755950601384448
            ]
        ],
        [
            [
                0.627085081877273,
                0.31206735965779736
            ],
            [
                0.6582809224318658,
                0.3675373134328358
            ],
            [
                0.658974163333079,
                0.3749333072695077
            ]
        ],
        [
            [
                0.6502501553252018,
                0.5970816181036267
            ],
            [
                0.6509433962264151,
                0.6044776119402985
            ],
            [
                0.6620352506458258,
                0.6137226042361381
            ]
        ],
        [
            [
                0.7058892776560609,
                0.6791878435250562
            ],
            [
                0.7169811320754716,
                0.6884328358208955
            ],
            [
                0.7142081684706191,
                0.7340414644803718
            ]
        ],
        [
            [
                0.8147313691507798,
                0.5807395993836671
            ],
            [
                0.8119584055459271,
                0.6263482280431432
            ],
            [
                0.8175043327556325,
                0.6288135593220338
            ]
        ],
        [
            [
                0.8474753506255188,
                0.6505496497520424
            ],
            [
                0.8530212778352241,
                0.653014981030933
            ],
            [
                0.8826223730393371,
                0.6419896155688777
            ]
        ],
        [
            [
                0.9128118491764123,
                0.6367766829381981
            ],
            [
                0.9306759098786829,
                0.6352371457057399
            ],
            [
                0.9529411764705882,
                0.6476816304333751
            ]
        ],
        [
            [
                1.0143847487001731,
                0.6781201848998458
            ],
            [
                1.035528596187175,
                0.6910631741140215
            ],
            [
                1.0438474870017331,
                0.5240369799691833
            ]
        ],
        [
            [
                1.0688041594454072,
                0.022958397534668717
            ],
            [
                1.0771230502599651,
                -0.14406779661016947
            ],
            [
                0.9627383015597919,
                -0.17426810477657934
            ]
        ],
        [
            [
                0.6195840554592721,
                -0.26486902927580896
            ],
            [
                0.5051993067590987,
                -0.2950693374422188
            ],
            [
                0.378682842287695,
                -0.2679506933744222
            ]
        ],
        [
            [
                -0.0008665511265164572,
                -0.18659476117103235
            ],
            [
                -0.12738301559792026,
                -0.15947611710323573
            ],
            [
                -0.1117850953206239,
                -0.03312788906009245
            ]
        ]
    ],
    "8860": [
        [
            [
                -0.06499133448873483,
                0.3459167950693374
            ],
            [
                -0.049393414211438474,
                0.4722650231124807
            ],
            [
                -0.014038128249566724,
                0.46795069337442213
            ]
        ],
        [
            [
                0.09202772963604852,
                0.45500770416024644
            ],
            [
                0.12738301559792026,
                0.45069337442218793
            ],
            [
                0.13500866551126517,
                0.4704160246533127
            ]
        ],
        [
            [
                0.15788561525129982,
                0.5295839753466872
            ],
            [
                0.1655112651646447,
                0.5493066255778121
            ],
            [
                0.17209705372616982,
                0.5462249614791987
            ]
        ],
        [
            [
                0.20689468089856905,
                0.6371148878105621
            ],
            [
                0.21348046946009416,
                0.6340332237119488
            ],
            [
                0.23509275189297887,
                0.5826706222355097
            ]
        ],
        [
            [
                0.29484812197639365,
                0.37037239123731214
            ],
            [
                0.3029350104821803,
                0.30597014925373134
            ],
            [
                0.3507782278038109,
                0.2375117305762059
            ]
        ],
        [
            [
                0.37313691507798963,
                0.054391371340523874
            ],
            [
                0.43760831889081453,
                0.040832049306625574
            ],
            [
                0.451473136915078,
                0.03528505392912172
            ]
        ],
        [
            [
                0.4930675909878683,
                0.01864406779661017
            ],
            [
                0.5069324090121318,
                0.013097072419106317
            ],
            [
                0.5277296360485269,
                0.01802773497688752
            ]
        ],
        [
            [
                0.5834621507947028,
                0.056657984494743845
            ],
            [
                0.604259377831098,
                0.061588647052525036
            ],
            [
                0.6354552183856906,
                0.11705860082756356
            ]
        ],
        [
            [
                0.6773057641892496,
                0.287822221463882
            ],
            [
                0.7085016047438424,
                0.34329217523892047
            ],
            [
                0.7091948456450556,
                0.35068816907559236
            ]
        ],
        [
            [
                0.7054661109769119,
                0.4803817039856634
            ],
            [
                0.7061593518781251,
                0.4877776978223352
            ],
            [
                0.7172512062975359,
                0.49702269011817496
            ]
        ],
        [
            [
                0.7562141156589954,
                0.5450427543182742
            ],
            [
                0.7673059700784062,
                0.5542877466141137
            ],
            [
                0.7645330064735536,
                0.5998963752735899
            ]
        ],
        [
            [
                0.8147313691507798,
                0.5807395993836671
            ],
            [
                0.8119584055459271,
                0.6263482280431432
            ],
            [
                0.8175043327556325,
                0.6288135593220338
            ]
        ],
        [
            [
                0.8470056653510625,
                0.6509672281855732
            ],
            [
                0.8525515925607678,
                0.6534325594644637
            ],
            [
                0.8807436319415114,
                0.6431031580582924
            ]
        ],
        [
            [
                0.9127492244731514,
                0.6372777770584348
            ],
            [
                0.9306759098786829,
                0.6353763385169168
            ],
            [
                0.9525028035477622,
                0.6480156931801996
            ]
        ],
        [
            [
                1.0143847487001731,
                0.6781201848998458
            ],
            [
                1.035528596187175,
                0.6910631741140215
            ],
            [
                1.0438474870017331,
                0.5240369799691833
            ]
        ],
        [
            [
                1.0688041594454072,
                0.022958397534668717
            ],
            [
                1.0771230502599651,
                -0.14406779661016947
            ],
            [
                0.9627383015597919,
                -0.17426810477657934
            ]
        ],
        [
            [
                0.6195840554592721,
                -0.26486902927580896
            ],
            [
                0.5051993067590987,
                -0.2950693374422188
            ],
            [
                0.378682842287695,
                -0.2679506933744222
            ]
        ],
        [
            [
                -0.0008665511265164572,
                -0.18659476117103235
            ],
            [
                -0.12738301559792026,
                -0.15947611710323573
            ],
            [
                -0.1117850953206239,
                -0.03312788906009245
            ]
        ]
    ],
    "8896": [
        [
            [
                -0.06499133448873483,
                0.3459167950693374
            ],
            [
                -0.049393414211438474,
                0.4722650231124807
            ],
            [
                -0.014038128249566724,
                0.46795069337442213
            ]
        ],
        [
            [
                0.09202772963604852,
                0.45500770416024644
            ],
            [
                0.12738301559792026,
                0.45069337442218793
            ],
            [
                0.13500866551126517,
                0.4704160246533127
            ]
        ],
        [
            [
                0.15788561525129982,
                0.5295839753466872
            ],
            [
                0.1655112651646447,
                0.5493066255778121
            ],
            [
                0.17209705372616982,
                0.5462249614791987
            ]
        ],
        [
            [
                0.2900599137445546,
                0.6672607685762251
            ],
            [
                0.2966457023060797,
                0.664179104477612
            ],
            [
                0.30448796167664416,
                0.6006876250488696
            ]
        ],
        [
            [
                0.33309910804676157,
                0.374075655323462
            ],
            [
                0.3322851153039832,
                0.30223880597014924
            ],
            [
                0.38611447976244384,
                0.25354406208432934
            ]
        ],
        [
            [
                0.37313691507798963,
                0.054391371340523874
            ],
            [
                0.43760831889081453,
                0.040832049306625574
            ],
            [
                0.451473136915078,
                0.03528505392912172
            ]
        ],
        [
            [
                0.4930675909878683,
                0.01864406779661017
            ],
            [
                0.5069324090121318,
                0.013097072419106317
            ],
            [
                0.5277296360485269,
                0.01802773497688752
            ]
        ],
        [
            [
                0.5858594506853863,
                0.048076210230719264
            ],
            [
                0.6066566777217813,
                0.05300687278850046
            ],
            [
                0.637852518276374,
                0.10847682656353899
            ]
        ],
        [
            [
                0.6207957737011723,
                0.2896792999563049
            ],
            [
                0.6519916142557651,
                0.34514925373134325
            ],
            [
                0.6526848551569784,
                0.3525452475680153
            ]
        ],
        [
            [
                0.7285797668311161,
                0.43153057714558574
            ],
            [
                0.7292730077323294,
                0.4389265709822575
            ],
            [
                0.7403648621517401,
                0.44817156327809726
            ]
        ],
        [
            [
                0.7772803269160379,
                0.4888889960456677
            ],
            [
                0.7883721813354486,
                0.49813398834150735
            ],
            [
                0.7855992177305959,
                0.5437426170009835
            ]
        ],
        [
            [
                0.8147313691507798,
                0.5807395993836671
            ],
            [
                0.8119584055459271,
                0.6263482280431432
            ],
            [
                0.8175043327556325,
                0.6288135593220338
            ]
        ],
        [
            [
                0.8468090529105923,
                0.6511420284600744
            ],
            [
                0.8523549801202976,
                0.6536073597389649
            ],
            [
                0.8799571821796309,
                0.6435692921236289
            ]
        ],
        [
            [
                0.9127230094810889,
                0.6374875373878363
            ],
            [
                0.9306759098786829,
                0.6354346052750838
            ],
            [
                0.9523192986033233,
                0.6481555333998005
            ]
        ],
        [
            [
                1.0143847487001731,
                0.6781201848998458
            ],
            [
                1.035528596187175,
                0.6910631741140215
            ],
            [
                1.0438474870017331,
                0.5240369799691833
            ]
        ],
        [
            [
                1.0688041594454072,
                0.022958397534668717
            ],
            [
                1.0771230502599651,
                -0.14406779661016947
            ],
            [
                0.9627383015597919,
                -0.17426810477657934
            ]
        ],
        [
            [
                0.6195840554592721,
                -0.26486902927580896
            ],
            [
                0.5051993067590987,
                -0.2950693374422188
            ],
            [
                0.378682842287695,
                -0.2679506933744222
            ]
        ],
        [
            [
                -0.0008665511265164572,
                -0.18659476117103235
            ],
            [
                -0.12738301559792026,
                -0.15947611710323573
            ],
            [
                -0.1117850953206239,
                -0.03312788906009245
            ]
        ]
    ],
    "8919": [
        [
            [
                -0.06499133448873483,
                0.3459167950693374
            ],
            [
                -0.049393414211438474,
                0.4722650231124807
            ],
            [
                -0.014038128249566724,
                0.46795069337442213
            ]
        ],
        [
            [
                0.09202772963604852,
                0.45500770416024644
            ],
            [
                0.12738301559792026,
                0.45069337442218793
            ],
            [
                0.13500866551126517,
                0.4704160246533127
            ]
        ],
        [
            [
                0.15788561525129982,
                0.5295839753466872
            ],
            [
                0.1655112651646447,
                0.5493066255778121
            ],
            [
                0.17209705372616982,
                0.5462249614791987
            ]
        ],
        [
            [
                0.25476731421834187,
                0.6204411062944138
            ],
            [
                0.26135310277986695,
                0.6173594421958006
            ],
            [
                0.2603978474161712,
                0.5461189574086425
            ]
        ],
        [
            [
                0.3349790956501494,
                0.3645220607781707
            ],
            [
                0.3284784287763434,
                0.2879353233830846
            ],
            [
                0.3861322761277786,
                0.251867371725299
            ]
        ],
        [
            [
                0.37313691507798963,
                0.054391371340523874
            ],
            [
                0.43760831889081453,
                0.040832049306625574
            ],
            [
                0.451473136915078,
                0.03528505392912172
            ]
        ],
        [
            [
                0.4930675909878683,
                0.01864406779661017
            ],
            [
                0.5069324090121318,
                0.013097072419106317
            ],
            [
                0.5277296360485269,
                0.01802773497688752
            ]
        ],
        [
            [
                0.5873910589488784,
                0.04259341000648134
            ],
            [
                0.6081882859852735,
                0.04752407256426254
            ],
            [
                0.6393841265398663,
                0.10299402633930108
            ]
        ],
        [
            [
                0.6512492659222912,
                0.2783870768612538
            ],
            [
                0.682445106476884,
                0.3338570306362922
            ],
            [
                0.6831383473780972,
                0.3412530244729642
            ]
        ],
        [
            [
                0.6796002601470048,
                0.48514131959616397
            ],
            [
                0.6802935010482181,
                0.4925373134328358
            ],
            [
                0.6913853554676288,
                0.5017823057286754
            ]
        ],
        [
            [
                0.7163714579495619,
                0.6064266494952051
            ],
            [
                0.7274633123689728,
                0.6156716417910447
            ],
            [
                0.7246903487641201,
                0.661280270450521
            ]
        ],
        [
            [
                0.8147313691507798,
                0.5807395993836671
            ],
            [
                0.8119584055459271,
                0.6263482280431432
            ],
            [
                0.8175043327556325,
                0.6288135593220338
            ]
        ],
        [
            [
                0.8466834394069587,
                0.6512537064132279
            ],
            [
                0.8522293666166639,
                0.6537190376921184
            ],
            [
                0.8794547281650963,
                0.6438670999987051
            ]
        ],
        [
            [
                0.9127062610139377,
                0.6376215509316205
            ],
            [
                0.9306759098786829,
                0.6354718312594683
            ],
            [
                0.9522020593332653,
                0.6482448757623233
            ]
        ],
        [
            [
                1.0143847487001731,
                0.6781201848998458
            ],
            [
                1.035528596187175,
                0.6910631741140215
            ],
            [
                1.0438474870017331,
                0.5240369799691833
            ]
        ],
        [
            [
                1.0688041594454072,
                0.022958397534668717
            ],
            [
                1.0771230502599651,
                -0.14406779661016947
            ],
            [
                0.9627383015597919,
                -0.17426810477657934
            ]
        ],
        [
            [
                0.6195840554592721,
                -0.26486902927580896
            ],
            [
                0.5051993067590987,
                -0.2950693374422188
            ],
            [
                0.378682842287695,
                -0.2679506933744222
            ]
        ],
        [
            [
                -0.0008665511265164572,
                -0.18659476117103235
            ],
            [
                -0.12738301559792026,
                -0.15947611710323573
            ],
            [
                -0.1117850953206239,
                -0.03312788906009245
            ]
        ]
    ],
    "8950": [
        [
            [
                -0.06499133448873483,
                0.3459167950693374
            ],
            [
                -0.049393414211438474,
                0.4722650231124807
            ],
            [
                -0.014038128249566724,
                0.46795069337442213
            ]
        ],
        [
            [
                0.09202772963604852,
                0.45500770416024644
            ],
            [
                0.12738301559792026,
                0.45069337442218793
            ],
            [
                0.13500866551126517,
                0.4704160246533127
            ]
        ],
        [
            [
                0.15788561525129982,
                0.5295839753466872
            ],
            [
                0.1655112651646447,
                0.5493066255778121
            ],
            [
                0.17209705372616982,
                0.5462249614791987
            ]
        ],
        [
            [
                0.20719902790040295,
                0.5573363440884944
            ],
            [
                0.21378481646192807,
                0.554254679989881
            ],
            [
                0.20097204123901205,
                0.47256988363268404
            ]
        ],
        [
            [
                0.3375129919851503,
                0.35164547682582153
            ],
            [
                0.3233476773695244,
                0.26865671641791045
            ],
            [
                0.38615626253322993,
                0.24960748471964936
            ]
        ],
        [
            [
                0.37313691507798963,
                0.054391371340523874
            ],
            [
                0.43760831889081453,
                0.040832049306625574
            ],
            [
                0.451473136915078,
                0.03528505392912172
            ]
        ],
        [
            [
                0.4930675909878683,
                0.01864406779661017
            ],
            [
                0.5069324090121318,
                0.013097072419106317
            ],
            [
                0.5277296360485269,
                0.01802773497688752
            ]
        ],
        [
            [
                0.5894554005214114,
                0.035203548834682394
            ],
            [
                0.6102526275578065,
                0.04013421139246359
            ],
            [
                0.6414484681123993,
                0.09560416516750213
            ]
        ],
        [
            [
                0.6922952771768427,
                0.263167123994011
            ],
            [
                0.7234911177314355,
                0.31863707776904954
            ],
            [
                0.7327044025157233,
                0.373134328358209
            ]
        ],
        [
            [
                0.7341075976732102,
                0.4235741554170595
            ],
            [
                0.7348008385744235,
                0.43097014925373134
            ],
            [
                0.7458926929938342,
                0.4402151415495711
            ]
        ],
        [
            [
                0.7666859233583669,
                0.46836694800266776
            ],
            [
                0.7777777777777778,
                0.4776119402985074
            ],
            [
                0.7750048141729251,
                0.5232205689579837
            ]
        ],
        [
            [
                0.8147313691507798,
                0.5807395993836671
            ],
            [
                0.8119584055459271,
                0.6263482280431432
            ],
            [
                0.8175043327556325,
                0.6288135593220338
            ]
        ],
        [
            [
                0.8465141342498872,
                0.6514042288718261
            ],
            [
                0.8520600614595926,
                0.6538695601507166
            ],
            [
                0.8787775075368103,
                0.6442684932216337
            ]
        ],
        [
            [
                0.9126836869929948,
                0.6378021778819384
            ],
            [
                0.9306759098786829,
                0.6355220054123343
            ],
            [
                0.9520440411866652,
                0.6483652937292019
            ]
        ],
        [
            [
                1.0143847487001731,
                0.6781201848998458
            ],
            [
                1.035528596187175,
                0.6910631741140215
            ],
            [
                1.0438474870017331,
                0.5240369799691833
            ]
        ],
        [
            [
                1.0688041594454072,
                0.022958397534668717
            ],
            [
                1.0771230502599651,
                -0.14406779661016947
            ],
            [
                0.9627383015597919,
                -0.17426810477657934
            ]
        ],
        [
            [
                0.6195840554592721,
                -0.26486902927580896
            ],
            [
                0.5051993067590987,
                -0.2950693374422188
            ],
            [
                0.378682842287695,
                -0.2679506933744222
            ]
        ],
        [
            [
                -0.0008665511265164572,
                -0.18659476117103235
            ],
            [
                -0.12738301559792026,
                -0.15947611710323573
            ],
            [
                -0.1117850953206239,
                -0.03312788906009245
            ]
        ]
    ],
    "8953": [
        [
            [
                -0.06499133448873483,
                0.3459167950693374
            ],
            [
                -0.049393414211438474,
                0.4722650231124807
            ],
            [
                -0.014038128249566724,
                0.46795069337442213
            ]
        ],
        [
            [
                0.09202772963604852,
                0.45500770416024644
            ],
            [
                0.12738301559792026,
                0.45069337442218793
            ],
            [
                0.13500866551126517,
                0.4704160246533127
            ]
        ],
        [
            [
                0.15788561525129982,
                0.5295839753466872
            ],
            [
                0.1655112651646447,
                0.5493066255778121
            ],
            [
                0.17209705372616982,
                0.5462249614791987
            ]
        ],
        [
            [
                0.20259564535350563,
                0.5512294316169537
            ],
            [
                0.20918143391503075,
                0.5481477675183405
            ],
            [
                0.1952211567702547,
                0.4654522313317848
            ]
        ],
        [
            [
                0.3377582077595052,
                0.3503993557981749
            ],
            [
                0.3228511530398323,
                0.2667910447761194
            ],
            [
                0.3861585837982736,
                0.24938878597716715
            ]
        ],
        [
            [
                0.37313691507798963,
                0.054391371340523874
            ],
            [
                0.43760831889081453,
                0.040832049306625574
            ],
            [
                0.451473136915078,
                0.03528505392912172
            ]
        ],
        [
            [
                0.4930675909878683,
                0.01864406779661017
            ],
            [
                0.5069324090121318,
                0.013097072419106317
            ],
            [
                0.5277296360485269,
                0.01802773497688752
            ]
        ],
        [
            [
                0.5896551755123017,
                0.034488400979347016
            ],
            [
                0.6104524025486968,
                0.039419063537128214
            ],
            [
                0.6416482431032896,
                0.09488901731216674
            ]
        ],
        [
            [
                0.69626747181438,
                0.2616942253294391
            ],
            [
                0.7274633123689728,
                0.31716417910447764
            ],
            [
                0.7281565532701859,
                0.32456017294114947
            ]
        ],
        [
            [
                0.7651763886002728,
                0.35418295964879615
            ],
            [
                0.7658696295014861,
                0.3615789534854679
            ],
            [
                0.7769614839208968,
                0.3708239457813077
            ]
        ],
        [
            [
                0.8106351614063549,
                0.3999788787807075
            ],
            [
                0.8217270158257658,
                0.40922387107654723
            ],
            [
                0.8189540522209131,
                0.45483249973602335
            ]
        ],
        [
            [
                0.8147313691507798,
                0.5807395993836671
            ],
            [
                0.8119584055459271,
                0.6263482280431432
            ],
            [
                0.8175043327556325,
                0.6288135593220338
            ]
        ],
        [
            [
                0.846497749879848,
                0.651418795561368
            ],
            [
                0.8520436770895533,
                0.6538841268402584
            ],
            [
                0.8787119700566535,
                0.6443073377270784
            ]
        ],
        [
            [
                0.9126815024103229,
                0.6378196579093885
            ],
            [
                0.9306759098786829,
                0.6355268609755149
            ],
            [
                0.952028749107962,
                0.6483769470808353
            ]
        ],
        [
            [
                1.0143847487001731,
                0.6781201848998458
            ],
            [
                1.035528596187175,
                0.6910631741140215
            ],
            [
                1.0438474870017331,
                0.5240369799691833
            ]
        ],
        [
            [
                1.0688041594454072,
                0.022958397534668717
            ],
            [
                1.0771230502599651,
                -0.14406779661016947
            ],
            [
                0.9627383015597919,
                -0.17426810477657934
            ]
        ],
        [
            [
                0.6195840554592721,
                -0.26486902927580896
            ],
            [
                0.5051993067590987,
                -0.2950693374422188
            ],
            [
                0.378682842287695,
                -0.2679506933744222
            ]
        ],
        [
            [
                -0.0008665511265164572,
                -0.18659476117103235
            ],
            [
                -0.12738301559792026,
                -0.15947611710323573
            ],
            [
                -0.1117850953206239,
                -0.03312788906009245
            ]
        ]
    ],
    "8960": [
        [
            [
                -0.06499133448873483,
                0.3459167950693374
            ],
            [
                -0.049393414211438474,
                0.4722650231124807
            ],
            [
                -0.014038128249566724,
                0.46795069337442213
            ]
        ],
        [
            [
                0.09202772963604852,
                0.45500770416024644
            ],
            [
                0.12738301559792026,
                0.45069337442218793
            ],
            [
                0.13500866551126517,
                0.4704160246533127
            ]
        ],
        [
            [
                0.15788561525129982,
                0.5295839753466872
            ],
            [
                0.1655112651646447,
                0.5493066255778121
            ],
            [
                0.17209705372616982,
                0.5462249614791987
            ]
        ],
        [
            [
                0.19185441941074524,
                0.536979969183359
            ],
            [
                0.19844020797227035,
                0.5338983050847458
            ],
            [
                0.18180242634315424,
                0.44884437596302
            ]
        ],
        [
            [
                0.13188908145580588,
                0.19368258859784282
            ],
            [
                0.11525129982668976,
                0.10862865947611709
            ],
            [
                0.1797227036395147,
                0.0950693374422188
            ]
        ],
        [
            [
                0.37313691507798963,
                0.054391371340523874
            ],
            [
                0.43760831889081453,
                0.040832049306625574
            ],
            [
                0.451473136915078,
                0.03528505392912172
            ]
        ],
        [
            [
                0.4930675909878683,
                0.01864406779661017
            ],
            [
                0.5069324090121318,
                0.013097072419106317
            ],
            [
                0.5277296360485269,
                0.01802773497688752
            ]
        ],
        [
            [
                0.5901213171577123,
                0.03281972265023112
            ],
            [
                0.6109185441941075,
                0.03775038520801232
            ],
            [
                0.6421143847487002,
                0.09322033898305085
            ]
        ],
        [
            [
                0.7357019064124782,
                0.2596302003081664
            ],
            [
                0.766897746967071,
                0.3151001540832049
            ],
            [
                0.7675909878682842,
                0.32249614791987674
            ]
        ],
        [
            [
                0.7696707105719237,
                0.3446841294298921
            ],
            [
                0.7703639514731369,
                0.35208012326656396
            ],
            [
                0.7814558058925477,
                0.3613251155624037
            ]
        ],
        [
            [
                0.8147313691507798,
                0.3890600924499229
            ],
            [
                0.8258232235701907,
                0.39830508474576265
            ],
            [
                0.823050259965338,
                0.4439137134052388
            ]
        ],
        [
            [
                0.8147313691507798,
                0.5807395993836671
            ],
            [
                0.8119584055459271,
                0.6263482280431432
            ],
            [
                0.8175043327556325,
                0.6288135593220338
            ]
        ],
        [
            [
                0.84645951968309,
                0.651452784503632
            ],
            [
                0.8520054468927952,
                0.6539181157825225
            ],
            [
                0.8785590492696211,
                0.6443979749064493
            ]
        ],
        [
            [
                0.9126764050507552,
                0.6378604446401055
            ],
            [
                0.9306759098786829,
                0.6355381906229363
            ],
            [
                0.9519930675909879,
                0.6484041382346466
            ]
        ],
        [
            [
                1.0143847487001731,
                0.6781201848998458
            ],
            [
                1.035528596187175,
                0.6910631741140215
            ],
            [
                1.0438474870017331,
                0.5240369799691833
            ]
        ],
        [
            [
                1.0688041594454072,
                0.022958397534668717
            ],
            [
                1.0771230502599651,
                -0.14406779661016947
            ],
            [
                0.9627383015597919,
                -0.17426810477657934
            ]
        ],
        [
            [
                0.6195840554592721,
                -0.26486902927580896
            ],
            [
                0.5051993067590987,
                -0.2950693374422188
            ],
            [
                0.378682842287695,
                -0.2679506933744222
            ]
        ],
        [
            [
                -0.0008665511265164572,
                -0.18659476117103235
            ],
            [
                -0.12738301559792026,
                -0.15947611710323573
            ],
            [
                -0.1117850953206239,
                -0.03312788906009245
            ]
        ]
    ],
    "8967": [
        [
            [
                -0.06499133448873483,
                0.3459167950693374
            ],
            [
                -0.049393414211438474,
                0.4722650231124807
            ],
            [
                -0.014038128249566724,
                0.46795069337442213
            ]
        ],
        [
            [
                0.09202772963604852,
                0.45500770416024644
            ],
            [
                0.12738301559792026,
                0.45069337442218793
            ],
            [
                0.13500866551126517,
                0.4704160246533127
            ]
        ],
        [
            [
                0.15788561525129982,
                0.5295839753466872
            ],
            [
                0.1655112651646447,
                0.5493066255778121
            ],
            [
                0.17209705372616982,
                0.5462249614791987
            ]
        ],
        [
            [
                0.19185441941074524,
                0.536979969183359
            ],
            [
                0.19844020797227035,
                0.5338983050847458
            ],
            [
                0.18180242634315424,
                0.44884437596302
            ]
        ],
        [
            [
                0.13188908145580588,
                0.19368258859784282
            ],
            [
                0.11525129982668976,
                0.10862865947611709
            ],
            [
                0.1797227036395147,
                0.0950693374422188
            ]
        ],
        [
            [
                0.37313691507798963,
                0.054391371340523874
            ],
            [
                0.43760831889081453,
                0.040832049306625574
            ],
            [
                0.451473136915078,
                0.03528505392912172
            ]
        ],
        [
            [
                0.4930675909878683,
                0.01864406779661017
            ],
            [
                0.5069324090121318,
                0.013097072419106317
            ],
            [
                0.5277296360485269,
                0.01802773497688752
            ]
        ],
        [
            [
                0.5901213171577123,
                0.03281972265023112
            ],
            [
                0.6109185441941075,
                0.03775038520801232
            ],
            [
                0.6421143847487002,
                0.09322033898305085
            ]
        ],
        [
            [
                0.7357019064124782,
                0.2596302003081664
            ],
            [
                0.766897746967071,
                0.3151001540832049
            ],
            [
                0.7675909878682842,
                0.32249614791987674
            ]
        ],
        [
            [
                0.7696707105719237,
                0.3446841294298921
            ],
            [
                0.7703639514731369,
                0.35208012326656396
            ],
            [
                0.7814558058925477,
                0.3613251155624037
            ]
        ],
        [
            [
                0.8147313691507798,
                0.3890600924499229
            ],
            [
                0.8258232235701907,
                0.39830508474576265
            ],
            [
                0.823050259965338,
                0.4439137134052388
            ]
        ],
        [
            [
                0.8591670935838883,
                0.5327495802957477
            ],
            [
                0.8563941299790356,
                0.5783582089552238
            ],
            [
                0.861940057188741,
                0.5808235402341144
            ]
        ],
        [
            [
                0.8464212894863318,
                0.6514867734458961
            ],
            [
                0.8519672166960371,
                0.6539521047247866
            ],
            [
                0.8784061284825888,
                0.6444886120858203
            ]
        ],
        [
            [
                0.9126713076911874,
                0.6379012313708223
            ],
            [
                0.9306759098786829,
                0.6355495202703576
            ],
            [
                0.9519573860740136,
                0.6484313293884579
            ]
        ],
        [
            [
                1.0143847487001731,
                0.6781201848998458
            ],
            [
                1.035528596187175,
                0.6910631741140215
            ],
            [
                1.0438474870017331,
                0.5240369799691833
            ]
        ],
        [
            [
                1.0688041594454072,
                0.022958397534668717
            ],
            [
                1.0771230502599651,
                -0.14406779661016947
            ],
            [
                0.9627383015597919,
                -0.17426810477657934
            ]
        ],
        [
            [
                0.6195840554592721,
                -0.26486902927580896
            ],
            [
                0.5051993067590987,
                -0.2950693374422188
            ],
            [
                0.378682842287695,
                -0.2679506933744222
            ]
        ],
        [
            [
                -0.0008665511265164572,
                -0.18659476117103235
            ],
            [
                -0.12738301559792026,
                -0.15947611710323573
            ],
            [
                -0.1117850953206239,
                -0.03312788906009245
            ]
        ]
    ],
    "8971": [
        [
            [
                -0.06499133448873483,
                0.3459167950693374
            ],
            [
                -0.049393414211438474,
                0.4722650231124807
            ],
            [
                -0.014038128249566724,
                0.46795069337442213
            ]
        ],
        [
            [
                0.09202772963604852,
                0.45500770416024644
            ],
            [
                0.12738301559792026,
                0.45069337442218793
            ],
            [
                0.13500866551126517,
                0.4704160246533127
            ]
        ],
        [
            [
                0.15788561525129982,
                0.5295839753466872
            ],
            [
                0.1655112651646447,
                0.5493066255778121
            ],
            [
                0.17209705372616982,
                0.5462249614791987
            ]
        ],
        [
            [
                0.19185441941074524,
                0.536979969183359
            ],
            [
                0.19844020797227035,
                0.5338983050847458
            ],
            [
                0.18180242634315424,
                0.44884437596302
            ]
        ],
        [
            [
                0.13188908145580588,
                0.19368258859784282
            ],
            [
                0.11525129982668976,
                0.10862865947611709
            ],
            [
                0.1797227036395147,
                0.0950693374422188
            ]
        ],
        [
            [
                0.37313691507798963,
                0.054391371340523874
            ],
            [
                0.43760831889081453,
                0.040832049306625574
            ],
            [
                0.451473136915078,
                0.03528505392912172
            ]
        ],
        [
            [
                0.4930675909878683,
                0.01864406779661017
            ],
            [
                0.5069324090121318,
                0.013097072419106317
            ],
            [
                0.5277296360485269,
                0.01802773497688752
            ]
        ],
        [
            [
                0.5901213171577123,
                0.03281972265023112
            ],
            [
                0.6109185441941075,
                0.03775038520801232
            ],
            [
                0.6421143847487002,
                0.09322033898305085
            ]
        ],
        [
            [
                0.7357019064124782,
                0.2596302003081664
            ],
            [
                0.766897746967071,
                0.3151001540832049
            ],
            [
                0.7675909878682842,
                0.32249614791987674
            ]
        ],
        [
            [
                0.7696707105719237,
                0.3446841294298921
            ],
            [
                0.7703639514731369,
                0.35208012326656396
            ],
            [
                0.7814558058925477,
                0.3613251155624037
            ]
        ],
        [
            [
                0.8147313691507798,
                0.3890600924499229
            ],
            [
                0.8258232235701907,
                0.39830508474576265
            ],
            [
                0.823050259965338,
                0.4439137134052388
            ]
        ],
        [
            [
                0.8895654164350414,
                0.5383465952211208
            ],
            [
                0.8867924528301887,
                0.583955223880597
            ],
            [
                0.892338380039894,
                0.5864205551594875
            ]
        ],
        [
            [
                0.8463994436596128,
                0.6515061956986186
            ],
            [
                0.8519453708693182,
                0.6539715269775089
            ],
            [
                0.8783187451757133,
                0.6445404047597466
            ]
        ],
        [
            [
                0.9126683949142915,
                0.6379245380740892
            ],
            [
                0.9306759098786829,
                0.6355559943545984
            ],
            [
                0.9519369966357426,
                0.6484468671906358
            ]
        ],
        [
            [
                1.0143847487001731,
                0.6781201848998458
            ],
            [
                1.035528596187175,
                0.6910631741140215
            ],
            [
                1.0438474870017331,
                0.5240369799691833
            ]
        ],
        [
            [
                1.0688041594454072,
                0.022958397534668717
            ],
            [
                1.0771230502599651,
                -0.14406779661016947
            ],
            [
                0.9627383015597919,
                -0.17426810477657934
            ]
        ],
        [
            [
                0.6195840554592721,
                -0.26486902927580896
            ],
            [
                0.5051993067590987,
                -0.2950693374422188
            ],
            [
                0.378682842287695,
                -0.2679506933744222
            ]
        ],
        [
            [
                -0.0008665511265164572,
                -0.18659476117103235
            ],
            [
                -0.12738301559792026,
                -0.15947611710323573
            ],
            [
                -0.1117850953206239,
                -0.03312788906009245
            ]
        ]
    ],
    "8976": [
        [
            [
                -0.06499133448873483,
                0.3459167950693374
            ],
            [
                -0.049393414211438474,
                0.4722650231124807
            ],
            [
                -0.014038128249566724,
                0.46795069337442213
            ]
        ],
        [
            [
                0.09202772963604852,
                0.45500770416024644
            ],
            [
                0.12738301559792026,
                0.45069337442218793
            ],
            [
                0.13500866551126517,
                0.4704160246533127
            ]
        ],
        [
            [
                0.15788561525129982,
                0.5295839753466872
            ],
            [
                0.1655112651646447,
                0.5493066255778121
            ],
            [
                0.17209705372616982,
                0.5462249614791987
            ]
        ],
        [
            [
                0.19185441941074524,
                0.536979969183359
            ],
            [
                0.19844020797227035,
                0.5338983050847458
            ],
            [
                0.18180242634315424,
                0.44884437596302
            ]
        ],
        [
            [
                0.13188908145580588,
                0.19368258859784282
            ],
            [
                0.11525129982668976,
                0.10862865947611709
            ],
            [
                0.1797227036395147,
                0.0950693374422188
            ]
        ],
        [
            [
                0.37313691507798963,
                0.054391371340523874
            ],
            [
                0.43760831889081453,
                0.040832049306625574
            ],
            [
                0.451473136915078,
                0.03528505392912172
            ]
        ],
        [
            [
                0.4930675909878683,
                0.01864406779661017
            ],
            [
                0.5069324090121318,
                0.013097072419106317
            ],
            [
                0.5277296360485269,
                0.01802773497688752
            ]
        ],
        [
            [
                0.5901213171577123,
                0.03281972265023112
            ],
            [
                0.6109185441941075,
                0.03775038520801232
            ],
            [
                0.6421143847487002,
                0.09322033898305085
            ]
        ],
        [
            [
                0.7357019064124782,
                0.2596302003081664
            ],
            [
                0.766897746967071,
                0.3151001540832049
            ],
            [
                0.7675909878682842,
                0.32249614791987674
            ]
        ],
        [
            [
                0.7696707105719237,
                0.3446841294298921
            ],
            [
                0.7703639514731369,
                0.35208012326656396
            ],
            [
                0.7814558058925477,
                0.3613251155624037
            ]
        ],
        [
            [
                0.8147313691507798,
                0.3890600924499229
            ],
            [
                0.8258232235701907,
                0.39830508474576265
            ],
            [
                0.823050259965338,
                0.4439137134052388
            ]
        ],
        [
            [
                0.8906136344643915,
                0.5234212220867925
            ],
            [
                0.8878406708595388,
                0.5690298507462687
            ],
            [
                0.893386598069244,
                0.5714951820251593
            ]
        ],
        [
            [
                0.8463721363762142,
                0.6515304735145214
            ],
            [
                0.8519180635859196,
                0.6539958047934118
            ],
            [
                0.8782095160421188,
                0.6446051456021544
            ]
        ],
        [
            [
                0.9126647539431717,
                0.6379536714531727
            ],
            [
                0.9306759098786829,
                0.6355640869598994
            ],
            [
                0.951911509837904,
                0.6484662894433582
            ]
        ],
        [
            [
                1.0143847487001731,
                0.6781201848998458
            ],
            [
                1.035528596187175,
                0.6910631741140215
            ],
            [
                1.0438474870017331,
                0.5240369799691833
            ]
        ],
        [
            [
                1.0688041594454072,
                0.022958397534668717
            ],
            [
                1.0771230502599651,
                -0.14406779661016947
            ],
            [
                0.9627383015597919,
                -0.17426810477657934
            ]
        ],
        [
            [
                0.6195840554592721,
                -0.26486902927580896
            ],
            [
                0.5051993067590987,
                -0.2950693374422188
            ],
            [
                0.378682842287695,
                -0.2679506933744222
            ]
        ],
        [
            [
                -0.0008665511265164572,
                -0.18659476117103235
            ],
            [
                -0.12738301559792026,
                -0.15947611710323573
            ],
            [
                -0.1117850953206239,
                -0.03312788906009245
            ]
        ]
    ],
    "8980": [
        [
            [
                -0.06499133448873483,
                0.3459167950693374
            ],
            [
                -0.049393414211438474,
                0.4722650231124807
            ],
            [
                -0.014038128249566724,
                0.46795069337442213
            ]
        ],
        [
            [
                0.09202772963604852,
                0.45500770416024644
            ],
            [
                0.12738301559792026,
                0.45069337442218793
            ],
            [
                0.13500866551126517,
                0.4704160246533127
            ]
        ],
        [
            [
                0.15788561525129982,
                0.5295839753466872
            ],
            [
                0.1655112651646447,
                0.5493066255778121
            ],
            [
                0.17209705372616982,
                0.5462249614791987
            ]
        ],
        [
            [
                0.19185441941074524,
                0.536979969183359
            ],
            [
                0.19844020797227035,
                0.5338983050847458
            ],
            [
                0.18180242634315424,
                0.44884437596302
            ]
        ],
        [
            [
                0.13188908145580588,
                0.19368258859784282
            ],
            [
                0.11525129982668976,
                0.10862865947611709
            ],
            [
                0.1797227036395147,
                0.0950693374422188
            ]
        ],
        [
            [
                0.37313691507798963,
                0.054391371340523874
            ],
            [
                0.43760831889081453,
                0.040832049306625574
            ],
            [
                0.451473136915078,
                0.03528505392912172
            ]
        ],
        [
            [
                0.4930675909878683,
                0.01864406779661017
            ],
            [
                0.5069324090121318,
                0.013097072419106317
            ],
            [
                0.5277296360485269,
                0.01802773497688752
            ]
        ],
        [
            [
                0.5901213171577123,
                0.03281972265023112
            ],
            [
                0.6109185441941075,
                0.03775038520801232
            ],
            [
                0.6421143847487002,
                0.09322033898305085
            ]
        ],
        [
            [
                0.7357019064124782,
                0.2596302003081664
            ],
            [
                0.766897746967071,
                0.3151001540832049
            ],
            [
                0.7675909878682842,
                0.32249614791987674
            ]
        ],
        [
            [
                0.7696707105719237,
                0.3446841294298921
            ],
            [
                0.7703639514731369,
                0.35208012326656396
            ],
            [
                0.7814558058925477,
                0.3613251155624037
            ]
        ],
        [
            [
                0.8147313691507798,
                0.3890600924499229
            ],
            [
                0.8258232235701907,
                0.39830508474576265
            ],
            [
                0.823050259965338,
                0.4439137134052388
            ]
        ],
        [
            [
                0.8843243262882907,
                0.5327495802957477
            ],
            [
                0.8815513626834381,
                0.5783582089552238
            ],
            [
                0.8870972898931434,
                0.5808235402341144
            ]
        ],
        [
            [
                0.8463502905494953,
                0.6515498957672438
            ],
            [
                0.8518962177592007,
                0.6540152270461341
            ],
            [
                0.8781221327352431,
                0.6446569382760806
            ]
        ],
        [
            [
                0.9126618411662758,
                0.6379769781564396
            ],
            [
                0.9306759098786829,
                0.6355705610441402
            ],
            [
                0.951891120399633,
                0.648481827245536
            ]
        ],
        [
            [
                1.0143847487001731,
                0.6781201848998458
            ],
            [
                1.035528596187175,
                0.6910631741140215
            ],
            [
                1.0438474870017331,
                0.5240369799691833
            ]
        ],
        [
            [
                1.0688041594454072,
                0.022958397534668717
            ],
            [
                1.0771230502599651,
                -0.14406779661016947
            ],
            [
                0.9627383015597919,
                -0.17426810477657934
            ]
        ],
        [
            [
                0.6195840554592721,
                -0.26486902927580896
            ],
            [
                0.5051993067590987,
                -0.2950693374422188
            ],
            [
                0.378682842287695,
                -0.2679506933744222
            ]
        ],
        [
            [
                -0.0008665511265164572,
                -0.18659476117103235
            ],
            [
                -0.12738301559792026,
                -0.15947611710323573
            ],
            [
                -0.1117850953206239,
                -0.03312788906009245
            ]
        ]
    ],
    "8994": [
        [
            [
                -0.06499133448873483,
                0.3459167950693374
            ],
            [
                -0.049393414211438474,
                0.4722650231124807
            ],
            [
                -0.014038128249566724,
                0.46795069337442213
            ]
        ],
        [
            [
                0.09202772963604852,
                0.45500770416024644
            ],
            [
                0.12738301559792026,
                0.45069337442218793
            ],
            [
                0.13500866551126517,
                0.4704160246533127
            ]
        ],
        [
            [
                0.15788561525129982,
                0.5295839753466872
            ],
            [
                0.1655112651646447,
                0.5493066255778121
            ],
            [
                0.17209705372616982,
                0.5462249614791987
            ]
        ],
        [
            [
                0.19185441941074524,
                0.536979969183359
            ],
            [
                0.19844020797227035,
                0.5338983050847458
            ],
            [
                0.18180242634315424,
                0.44884437596302
            ]
        ],
        [
            [
                0.13188908145580588,
                0.19368258859784282
            ],
            [
                0.11525129982668976,
                0.10862865947611709
            ],
            [
                0.1797227036395147,
                0.0950693374422188
            ]
        ],
        [
            [
                0.37313691507798963,
                0.054391371340523874
            ],
            [
                0.43760831889081453,
                0.040832049306625574
            ],
            [
                0.451473136915078,
                0.03528505392912172
            ]
        ],
        [
            [
                0.4930675909878683,
                0.01864406779661017
            ],
            [
                0.5069324090121318,
                0.013097072419106317
            ],
            [
                0.5277296360485269,
                0.01802773497688752
            ]
        ],
        [
            [
                0.5901213171577123,
                0.03281972265023112
            ],
            [
                0.6109185441941075,
                0.03775038520801232
            ],
            [
                0.6421143847487002,
                0.09322033898305085
            ]
        ],
        [
            [
                0.7357019064124782,
                0.2596302003081664
            ],
            [
                0.766897746967071,
                0.3151001540832049
            ],
            [
                0.7675909878682842,
                0.32249614791987674
            ]
        ],
        [
            [
                0.7696707105719237,
                0.3446841294298921
            ],
            [
                0.7703639514731369,
                0.35208012326656396
            ],
            [
                0.7814558058925477,
                0.3613251155624037
            ]
        ],
        [
            [
                0.8147313691507798,
                0.3890600924499229
            ],
            [
                0.8258232235701907,
                0.39830508474576265
            ],
            [
                0.823050259965338,
                0.4439137134052388
            ]
        ],
        [
            [
                0.8147313691507798,
                0.5807395993836671
            ],
            [
                0.8119584055459271,
                0.6263482280431432
            ],
            [
                0.8175043327556325,
                0.6288135593220338
            ]
        ],
        [
            [
                0.8462738301559792,
                0.651617873651772
            ],
            [
                0.8518197573656845,
                0.6540832049306624
            ],
            [
                0.8778162911611784,
                0.6448382126348227
            ]
        ],
        [
            [
                0.9126516464471404,
                0.6380585516178734
            ],
            [
                0.9306759098786829,
                0.6355932203389829
            ],
            [
                0.9518197573656846,
                0.6485362095531586
            ]
        ],
        [
            [
                1.0143847487001731,
                0.6781201848998458
            ],
            [
                1.035528596187175,
                0.6910631741140215
            ],
            [
                1.0438474870017331,
                0.5240369799691833
            ]
        ],
        [
            [
                1.0688041594454072,
                0.022958397534668717
            ],
            [
                1.0771230502599651,
                -0.14406779661016947
            ],
            [
                0.9627383015597919,
                -0.17426810477657934
            ]
        ],
        [
            [
                0.6195840554592721,
                -0.26486902927580896
            ],
            [
                0.5051993067590987,
                -0.2950693374422188
            ],
            [
                0.378682842287695,
                -0.2679506933744222
            ]
        ],
        [
            [
                -0.0008665511265164572,
                -0.18659476117103235
            ],
            [
                -0.12738301559792026,
                -0.15947611710323573
            ],
            [
                -0.1117850953206239,
                -0.03312788906009245
            ]
        ]
    ],
    "9003": [
        [
            [
                -0.06499133448873483,
                0.3459167950693374
            ],
            [
                -0.049393414211438474,
                0.4722650231124807
            ],
            [
                -0.014038128249566724,
                0.46795069337442213
            ]
        ],
        [
            [
                0.09202772963604852,
                0.45500770416024644
            ],
            [
                0.12738301559792026,
                0.45069337442218793
            ],
            [
                0.13500866551126517,
                0.4704160246533127
            ]
        ],
        [
            [
                0.15788561525129982,
                0.5295839753466872
            ],
            [
                0.1655112651646447,
                0.5493066255778121
            ],
            [
                0.17209705372616982,
                0.5462249614791987
            ]
        ],
        [
            [
                0.19185441941074524,
                0.536979969183359
            ],
            [
                0.19844020797227035,
                0.5338983050847458
            ],
            [
                0.18180242634315424,
                0.44884437596302
            ]
        ],
        [
            [
                0.13188908145580588,
                0.19368258859784282
            ],
            [
                0.11525129982668976,
                0.10862865947611709
            ],
            [
                0.1797227036395147,
                0.0950693374422188
            ]
        ],
        [
            [
                0.241421143847487,
                -0.02727272727272727
            ],
            [
                0.30589254766031193,
                -0.040832049306625574
            ],
            [
                0.31975736568457536,
                -0.046379044684129435
            ]
        ],
        [
            [
                0.4731369150779895,
                -0.030662557781201846
            ],
            [
                0.487001733102253,
                -0.0362095531587057
            ],
            [
                0.5077989601386481,
                -0.031278890600924494
            ]
        ],
        [
            [
                0.5849220103986136,
                -0.05038520801232666
            ],
            [
                0.6057192374350087,
                -0.04545454545454545
            ],
            [
                0.6369150779896013,
                0.010015408320493073
            ]
        ],
        [
            [
                0.7616984402079722,
                -0.13482280431432983
            ],
            [
                0.792894280762565,
                -0.07935285053929121
            ],
            [
                0.7935875216637781,
                -0.07195685670261942
            ]
        ],
        [
            [
                0.7696707105719237,
                0.3446841294298921
            ],
            [
                0.7703639514731369,
                0.35208012326656396
            ],
            [
                0.7814558058925477,
                0.3613251155624037
            ]
        ],
        [
            [
                0.8147313691507798,
                0.3890600924499229
            ],
            [
                0.8258232235701907,
                0.39830508474576265
            ],
            [
                0.823050259965338,
                0.4439137134052388
            ]
        ],
        [
            [
                0.8147313691507798,
                0.5807395993836671
            ],
            [
                0.8119584055459271,
                0.6263482280431432
            ],
            [
                0.8175043327556325,
                0.6288135593220338
            ]
        ],
        [
            [
                0.8506065857885615,
                0.6500770416024647
            ],
            [
                0.8561525129982669,
                0.6525423728813559
            ],
            [
                0.8795493934142115,
                0.6448382126348227
            ]
        ],
        [
            [
                0.9107452339688041,
                0.6386748844375962
            ],
            [
                0.9376083188908145,
                0.6386748844375962
            ],
            [
                0.9587521663778162,
                0.6516178736517716
            ]
        ],
        [
            [
                1.0143847487001731,
                0.6781201848998458
            ],
            [
                1.035528596187175,
                0.6910631741140215
            ],
            [
                1.0438474870017331,
                0.5240369799691833
            ]
        ],
        [
            [
                1.0688041594454072,
                0.022958397534668717
            ],
            [
                1.0771230502599651,
                -0.14406779661016947
            ],
            [
                0.9627383015597919,
                -0.17426810477657934
            ]
        ],
        [
            [
                0.6195840554592721,
                -0.26486902927580896
            ],
            [
                0.5051993067590987,
                -0.2950693374422188
            ],
            [
                0.378682842287695,
                -0.2679506933744222
            ]
        ],
        [
            [
                -0.0008665511265164572,
                -0.18659476117103235
            ],
            [
                -0.12738301559792026,
                -0.15947611710323573
            ],
            [
                -0.1117850953206239,
                -0.03312788906009245
            ]
        ]
    ],
    "9004": [
        [
            [
                -0.06499133448873483,
                0.3459167950693374
            ],
            [
                -0.049393414211438474,
                0.4722650231124807
            ],
            [
                -0.014038128249566724,
                0.46795069337442213
            ]
        ],
        [
            [
                0.09202772963604852,
                0.45500770416024644
            ],
            [
                0.12738301559792026,
                0.45069337442218793
            ],
            [
                0.13500866551126517,
                0.4704160246533127
            ]
        ],
        [
            [
                0.15788561525129982,
                0.5295839753466872
            ],
            [
                0.1655112651646447,
                0.5493066255778121
            ],
            [
                0.17209705372616982,
                0.5462249614791987
            ]
        ],
        [
            [
                0.19185441941074524,
                0.536979969183359
            ],
            [
                0.19844020797227035,
                0.5338983050847458
            ],
            [
                0.18180242634315424,
                0.44884437596302
            ]
        ],
        [
            [
                0.13188908145580588,
                0.19368258859784282
            ],
            [
                0.11525129982668976,
                0.10862865947611709
            ],
            [
                0.1797227036395147,
                0.0950693374422188
            ]
        ],
        [
            [
                0.241421143847487,
                -0.02727272727272727
            ],
            [
                0.30589254766031193,
                -0.040832049306625574
            ],
            [
                0.31975736568457536,
                -0.046379044684129435
            ]
        ],
        [
            [
                0.4731369150779895,
                -0.030662557781201846
            ],
            [
                0.487001733102253,
                -0.0362095531587057
            ],
            [
                0.5077989601386481,
                -0.031278890600924494
            ]
        ],
        [
            [
                0.5849220103986136,
                -0.05038520801232666
            ],
            [
                0.6057192374350087,
                -0.04545454545454545
            ],
            [
                0.6369150779896013,
                0.010015408320493073
            ]
        ],
        [
            [
                0.7924610051993066,
                -0.12018489984591688
            ],
            [
                0.8236568457538993,
                -0.06471494607087827
            ],
            [
                0.8243500866551126,
                -0.05731895223420647
            ]
        ],
        [
            [
                0.7791809729352648,
                0.3489472897454178
            ],
            [
                0.779874213836478,
                0.35634328358208955
            ],
            [
                0.7909660682558888,
                0.3655882758779292
            ]
        ],
        [
            [
                0.8147313691507798,
                0.3890600924499229
            ],
            [
                0.8258232235701907,
                0.39830508474576265
            ],
            [
                0.823050259965338,
                0.4439137134052388
            ]
        ],
        [
            [
                0.8147313691507798,
                0.5807395993836671
            ],
            [
                0.8119584055459271,
                0.6263482280431432
            ],
            [
                0.8175043327556325,
                0.6288135593220338
            ]
        ],
        [
            [
                0.8503899480069325,
                0.6500770416024648
            ],
            [
                0.8559358752166377,
                0.6525423728813559
            ],
            [
                0.8779896013864817,
                0.6461479198767334
            ]
        ],
        [
            [
                0.908578856152513,
                0.6394453004622495
            ],
            [
                0.9356585788561524,
                0.6390600924499229
            ],
            [
                0.957582322357019,
                0.6506933744221877
            ]
        ],
        [
            [
                1.0143847487001731,
                0.6781201848998458
            ],
            [
                1.035528596187175,
                0.6910631741140215
            ],
            [
                1.0438474870017331,
                0.5240369799691833
            ]
        ],
        [
            [
                1.0688041594454072,
                0.022958397534668717
            ],
            [
                1.0771230502599651,
                -0.14406779661016947
            ],
            [
                0.9627383015597919,
                -0.17426810477657934
            ]
        ],
        [
            [
                0.6195840554592721,
                -0.26486902927580896
            ],
            [
                0.5051993067590987,
                -0.2950693374422188
            ],
            [
                0.378682842287695,
                -0.2679506933744222
            ]
        ],
        [
            [
                -0.0008665511265164572,
                -0.18659476117103235
            ],
            [
                -0.12738301559792026,
                -0.15947611710323573
            ],
            [
                -0.1117850953206239,
                -0.03312788906009245
            ]
        ]
    ],
    "9007": [
        [
            [
                -0.06499133448873483,
                0.3459167950693374
            ],
            [
                -0.049393414211438474,
                0.4722650231124807
            ],
            [
                -0.014038128249566724,
                0.46795069337442213
            ]
        ],
        [
            [
                0.09202772963604852,
                0.45500770416024644
            ],
            [
                0.12738301559792026,
                0.45069337442218793
            ],
            [
                0.13500866551126517,
                0.4704160246533127
            ]
        ],
        [
            [
                0.15788561525129982,
                0.5295839753466872
            ],
            [
                0.1655112651646447,
                0.5493066255778121
            ],
            [
                0.17209705372616982,
                0.5462249614791987
            ]
        ],
        [
            [
                0.19185441941074524,
                0.536979969183359
            ],
            [
                0.19844020797227035,
                0.5338983050847458
            ],
            [
                0.18180242634315424,
                0.44884437596302
            ]
        ],
        [
            [
                0.13188908145580588,
                0.19368258859784282
            ],
            [
                0.11525129982668976,
                0.10862865947611709
            ],
            [
                0.1797227036395147,
                0.0950693374422188
            ]
        ],
        [
            [
                0.241421143847487,
                -0.02727272727272727
            ],
            [
                0.30589254766031193,
                -0.040832049306625574
            ],
            [
                0.31975736568457536,
                -0.046379044684129435
            ]
        ],
        [
            [
                0.4731369150779895,
                -0.030662557781201846
            ],
            [
                0.487001733102253,
                -0.0362095531587057
            ],
            [
                0.5077989601386481,
                -0.031278890600924494
            ]
        ],
        [
            [
                0.5849220103986136,
                -0.05038520801232666
            ],
            [
                0.6057192374350087,
                -0.04545454545454545
            ],
            [
                0.6369150779896013,
                0.010015408320493073
            ]
        ],
        [
            [
                0.8847487001733101,
                -0.07627118644067804
            ],
            [
                0.9159445407279029,
                -0.020801232665639442
            ],
            [
                0.9166377816291161,
                -0.013405238828967648
            ]
        ],
        [
            [
                0.7696707105719237,
                0.3446841294298921
            ],
            [
                0.7703639514731369,
                0.35208012326656396
            ],
            [
                0.7814558058925477,
                0.3613251155624037
            ]
        ],
        [
            [
                0.8147313691507798,
                0.3890600924499229
            ],
            [
                0.8258232235701907,
                0.39830508474576265
            ],
            [
                0.823050259965338,
                0.4439137134052388
            ]
        ],
        [
            [
                0.8147313691507798,
                0.5807395993836671
            ],
            [
                0.8119584055459271,
                0.6263482280431432
            ],
            [
                0.8175043327556325,
                0.6288135593220338
            ]
        ],
        [
            [
                0.8497400346620451,
                0.6500770416024652
            ],
            [
                0.8552859618717504,
                0.6525423728813559
            ],
            [
                0.8733102253032928,
                0.6500770416024652
            ]
        ],
        [
            [
                0.9020797227036395,
                0.6417565485362093
            ],
            [
                0.9298093587521663,
                0.6402157164869029
            ],
            [
                0.9540727902946273,
                0.6479198767334359
            ]
        ],
        [
            [
                1.0143847487001731,
                0.6781201848998458
            ],
            [
                1.035528596187175,
                0.6910631741140215
            ],
            [
                1.0438474870017331,
                0.5240369799691833
            ]
        ],
        [
            [
                1.0688041594454072,
                0.022958397534668717
            ],
            [
                1.0771230502599651,
                -0.14406779661016947
            ],
            [
                0.9627383015597919,
                -0.17426810477657934
            ]
        ],
        [
            [
                0.6195840554592721,
                -0.26486902927580896
            ],
            [
                0.5051993067590987,
                -0.2950693374422188
            ],
            [
                0.378682842287695,
                -0.2679506933744222
            ]
        ],
        [
            [
                -0.0008665511265164572,
                -0.18659476117103235
            ],
            [
                -0.12738301559792026,
                -0.15947611710323573
            ],
            [
                -0.1117850953206239,
                -0.03312788906009245
            ]
        ]
    ],
    "9015": [
        [
            [
                -0.06499133448873483,
                0.3459167950693374
            ],
            [
                -0.049393414211438474,
                0.4722650231124807
            ],
            [
                -0.014038128249566724,
                0.46795069337442213
            ]
        ],
        [
            [
                0.09202772963604852,
                0.45500770416024644
            ],
            [
                0.12738301559792026,
                0.45069337442218793
            ],
            [
                0.13500866551126517,
                0.4704160246533127
            ]
        ],
        [
            [
                0.15788561525129982,
                0.5295839753466872
            ],
            [
                0.1655112651646447,
                0.5493066255778121
            ],
            [
                0.17209705372616982,
                0.5462249614791987
            ]
        ],
        [
            [
                0.19185441941074524,
                0.536979969183359
            ],
            [
                0.19844020797227035,
                0.5338983050847458
            ],
            [
                0.18180242634315424,
                0.44884437596302
            ]
        ],
        [
            [
                0.13188908145580588,
                0.19368258859784282
            ],
            [
                0.11525129982668976,
                0.10862865947611709
            ],
            [
                0.1797227036395147,
                0.0950693374422188
            ]
        ],
        [
            [
                0.241421143847487,
                -0.02727272727272727
            ],
            [
                0.30589254766031193,
                -0.040832049306625574
            ],
            [
                0.31975736568457536,
                -0.046379044684129435
            ]
        ],
        [
            [
                0.4731369150779895,
                -0.030662557781201846
            ],
            [
                0.487001733102253,
                -0.0362095531587057
            ],
            [
                0.5077989601386481,
                -0.031278890600924494
            ]
        ],
        [
            [
                0.5849220103986136,
                -0.05038520801232666
            ],
            [
                0.6057192374350087,
                -0.04545454545454545
            ],
            [
                0.6369150779896013,
                0.010015408320493073
            ]
        ],
        [
            [
                0.8847487001733101,
                -0.07627118644067804
            ],
            [
                0.9159445407279029,
                -0.020801232665639442
            ],
            [
                0.9166377816291161,
                -0.013405238828967648
            ]
        ],
        [
            [
                0.7173361092036086,
                0.3676040061633282
            ],
            [
                0.7180293501048217,
                0.375
            ],
            [
                0.7291212045242326,
                0.3842449922958398
            ]
        ],
        [
            [
                0.7677341413877171,
                0.48329232113699594
            ],
            [
                0.778825995807128,
                0.4925373134328358
            ],
            [
                0.7760530322022753,
                0.5381459420923119
            ]
        ],
        [
            [
                0.8147313691507798,
                0.5807395993836671
            ],
            [
                0.8119584055459271,
                0.6263482280431432
            ],
            [
                0.8175043327556325,
                0.6288135593220338
            ]
        ],
        [
            [
                0.8497400346620451,
                0.6500770416024652
            ],
            [
                0.8552859618717504,
                0.6525423728813559
            ],
            [
                0.8733102253032928,
                0.6500770416024652
            ]
        ],
        [
            [
                0.9020797227036395,
                0.6417565485362093
            ],
            [
                0.9298093587521663,
                0.6402157164869029
            ],
            [
                0.9540727902946273,
                0.6479198767334359
            ]
        ],
        [
            [
                1.0143847487001731,
                0.6781201848998458
            ],
            [
                1.035528596187175,
                0.6910631741140215
            ],
            [
                1.0438474870017331,
                0.5240369799691833
            ]
        ],
        [
            [
                1.0688041594454072,
                0.022958397534668717
            ],
            [
                1.0771230502599651,
                -0.14406779661016947
            ],
            [
                0.9627383015597919,
                -0.17426810477657934
            ]
        ],
        [
            [
                0.6195840554592721,
                -0.26486902927580896
            ],
            [
                0.5051993067590987,
                -0.2950693374422188
            ],
            [
                0.378682842287695,
                -0.2679506933744222
            ]
        ],
        [
            [
                -0.0008665511265164572,
                -0.18659476117103235
            ],
            [
                -0.12738301559792026,
                -0.15947611710323573
            ],
            [
                -0.1117850953206239,
                -0.03312788906009245
            ]
        ]
    ],
    "9083": [
        [
            [
                -0.06499133448873483,
                0.3459167950693374
            ],
            [
                -0.049393414211438474,
                0.4722650231124807
            ],
            [
                -0.014038128249566724,
                0.46795069337442213
            ]
        ],
        [
            [
                0.09202772963604852,
                0.45500770416024644
            ],
            [
                0.12738301559792026,
                0.45069337442218793
            ],
            [
                0.13500866551126517,
                0.4704160246533127
            ]
        ],
        [
            [
                0.15788561525129982,
                0.5295839753466872
            ],
            [
                0.1655112651646447,
                0.5493066255778121
            ],
            [
                0.17209705372616982,
                0.5462249614791987
            ]
        ],
        [
            [
                0.19185441941074524,
                0.536979969183359
            ],
            [
                0.19844020797227035,
                0.5338983050847458
            ],
            [
                0.18180242634315424,
                0.44884437596302
            ]
        ],
        [
            [
                0.13188908145580588,
                0.19368258859784282
            ],
            [
                0.11525129982668976,
                0.10862865947611709
            ],
            [
                0.1797227036395147,
                0.0950693374422188
            ]
        ],
        [
            [
                0.241421143847487,
                -0.02727272727272727
            ],
            [
                0.30589254766031193,
                -0.040832049306625574
            ],
            [
                0.31975736568457536,
                -0.046379044684129435
            ]
        ],
        [
            [
                0.4731369150779895,
                -0.030662557781201846
            ],
            [
                0.487001733102253,
                -0.0362095531587057
            ],
            [
                0.5077989601386481,
                -0.031278890600924494
            ]
        ],
        [
            [
                0.5849220103986136,
                -0.05038520801232666
            ],
            [
                0.6057192374350087,
                -0.04545454545454545
            ],
            [
                0.6369150779896013,
                0.010015408320493073
            ]
        ],
        [
            [
                0.8847487001733101,
                -0.07627118644067804
            ],
            [
                0.9159445407279029,
                -0.020801232665639442
            ],
            [
                0.9166377816291161,
                -0.013405238828967648
            ]
        ],
        [
            [
                0.7456379959960614,
                0.356409976312582
            ],
            [
                0.7463312368972747,
                0.3638059701492537
            ],
            [
                0.7574230913166854,
                0.37305096244509345
            ]
        ],
        [
            [
                0.7698305774464173,
                0.4254565002414737
            ],
            [
                0.7809224318658281,
                0.43470149253731344
            ],
            [
                0.7781494682609754,
                0.48031012119678956
            ]
        ],
        [
            [
                0.8147313691507798,
                0.5807395993836671
            ],
            [
                0.8119584055459271,
                0.6263482280431432
            ],
            [
                0.8175043327556325,
                0.6288135593220338
            ]
        ],
        [
            [
                0.8497400346620451,
                0.6500770416024652
            ],
            [
                0.8552859618717504,
                0.6525423728813559
            ],
            [
                0.8733102253032928,
                0.6500770416024652
            ]
        ],
        [
            [
                0.9020797227036395,
                0.6417565485362093
            ],
            [
                0.9298093587521663,
                0.6402157164869029
            ],
            [
                0.9540727902946273,
                0.6479198767334359
            ]
        ],
        [
            [
                1.0143847487001731,
                0.6781201848998458
            ],
            [
                1.035528596187175,
                0.6910631741140215
            ],
            [
                1.0438474870017331,
                0.5240369799691833
            ]
        ],
        [
            [
                1.0688041594454072,
                0.022958397534668717
            ],
            [
                1.0771230502599651,
                -0.14406779661016947
            ],
            [
                0.9627383015597919,
                -0.17426810477657934
            ]
        ],
        [
            [
                0.6195840554592721,
                -0.26486902927580896
            ],
            [
                0.5051993067590987,
                -0.2950693374422188
            ],
            [
                0.378682842287695,
                -0.2679506933744222
            ]
        ],
        [
            [
                -0.0008665511265164572,
                -0.18659476117103235
            ],
            [
                -0.12738301559792026,
                -0.15947611710323573
            ],
            [
                -0.1117850953206239,
                -0.03312788906009245
            ]
        ]
    ],
    "9087": [
        [
            [
                -0.06499133448873483,
                0.3459167950693374
            ],
            [
                -0.049393414211438474,
                0.4722650231124807
            ],
            [
                -0.014038128249566724,
                0.46795069337442213
            ]
        ],
        [
            [
                0.09202772963604852,
                0.45500770416024644
            ],
            [
                0.12738301559792026,
                0.45069337442218793
            ],
            [
                0.13500866551126517,
                0.4704160246533127
            ]
        ],
        [
            [
                0.15788561525129982,
                0.5295839753466872
            ],
            [
                0.1655112651646447,
                0.5493066255778121
            ],
            [
                0.17209705372616982,
                0.5462249614791987
            ]
        ],
        [
            [
                0.19185441941074524,
                0.536979969183359
            ],
            [
                0.19844020797227035,
                0.5338983050847458
            ],
            [
                0.18180242634315424,
                0.44884437596302
            ]
        ],
        [
            [
                0.13188908145580588,
                0.19368258859784282
            ],
            [
                0.11525129982668976,
                0.10862865947611709
            ],
            [
                0.1797227036395147,
                0.0950693374422188
            ]
        ],
        [
            [
                0.241421143847487,
                -0.02727272727272727
            ],
            [
                0.30589254766031193,
                -0.040832049306625574
            ],
            [
                0.31975736568457536,
                -0.046379044684129435
            ]
        ],
        [
            [
                0.4731369150779895,
                -0.030662557781201846
            ],
            [
                0.487001733102253,
                -0.0362095531587057
            ],
            [
                0.5077989601386481,
                -0.031278890600924494
            ]
        ],
        [
            [
                0.5849220103986136,
                -0.05038520801232666
            ],
            [
                0.6057192374350087,
                -0.04545454545454545
            ],
            [
                0.6369150779896013,
                0.010015408320493073
            ]
        ],
        [
            [
                0.827294725483143,
                0.08632109100108089
            ],
            [
                0.8584905660377358,
                0.1417910447761194
            ],
            [
                0.859183806938949,
                0.14918703861279128
            ]
        ],
        [
            [
                0.7600290667044532,
                0.33919244302371043
            ],
            [
                0.7651991614255764,
                0.35261194029850745
            ],
            [
                0.7762910158449873,
                0.3618569325943472
            ]
        ],
        [
            [
                0.8057512108099073,
                0.39633937400823305
            ],
            [
                0.816843065229318,
                0.4055843663040728
            ],
            [
                0.8140701016244655,
                0.4511929949635489
            ]
        ],
        [
            [
                0.8147313691507798,
                0.5807395993836671
            ],
            [
                0.8119584055459271,
                0.6263482280431432
            ],
            [
                0.8175043327556325,
                0.6288135593220338
            ]
        ],
        [
            [
                0.8497400346620451,
                0.6500770416024652
            ],
            [
                0.8552859618717504,
                0.6525423728813559
            ],
            [
                0.8733102253032928,
                0.6500770416024652
            ]
        ],
        [
            [
                0.9020797227036395,
                0.6417565485362093
            ],
            [
                0.9298093587521663,
                0.6402157164869029
            ],
            [
                0.9540727902946273,
                0.6479198767334359
            ]
        ],
        [
            [
                1.0143847487001731,
                0.6781201848998458
            ],
            [
                1.035528596187175,
                0.6910631741140215
            ],
            [
                1.0438474870017331,
                0.5240369799691833
            ]
        ],
        [
            [
                1.0688041594454072,
                0.022958397534668717
            ],
            [
                1.0771230502599651,
                -0.14406779661016947
            ],
            [
                0.9627383015597919,
                -0.17426810477657934
            ]
        ],
        [
            [
                0.6195840554592721,
                -0.26486902927580896
            ],
            [
                0.5051993067590987,
                -0.2950693374422188
            ],
            [
                0.378682842287695,
                -0.2679506933744222
            ]
        ],
        [
            [
                -0.0008665511265164572,
                -0.18659476117103235
            ],
            [
                -0.12738301559792026,
                -0.15947611710323573
            ],
            [
                -0.1117850953206239,
                -0.03312788906009245
            ]
        ]
    ],
    "9088": [
        [
            [
                -0.06499133448873483,
                0.3459167950693374
            ],
            [
                -0.049393414211438474,
                0.4722650231124807
            ],
            [
                -0.014038128249566724,
                0.46795069337442213
            ]
        ],
        [
            [
                0.09202772963604852,
                0.45500770416024644
            ],
            [
                0.12738301559792026,
                0.45069337442218793
            ],
            [
                0.13500866551126517,
                0.4704160246533127
            ]
        ],
        [
            [
                0.15788561525129982,
                0.5295839753466872
            ],
            [
                0.1655112651646447,
                0.5493066255778121
            ],
            [
                0.17209705372616982,
                0.5462249614791987
            ]
        ],
        [
            [
                0.19185441941074524,
                0.536979969183359
            ],
            [
                0.19844020797227035,
                0.5338983050847458
            ],
            [
                0.18180242634315424,
                0.44884437596302
            ]
        ],
        [
            [
                0.13188908145580588,
                0.19368258859784282
            ],
            [
                0.11525129982668976,
                0.10862865947611709
            ],
            [
                0.1797227036395147,
                0.0950693374422188
            ]
        ],
        [
            [
                0.241421143847487,
                -0.02727272727272727
            ],
            [
                0.30589254766031193,
                -0.040832049306625574
            ],
            [
                0.31975736568457536,
                -0.046379044684129435
            ]
        ],
        [
            [
                0.4731369150779895,
                -0.030662557781201846
            ],
            [
                0.487001733102253,
                -0.0362095531587057
            ],
            [
                0.5077989601386481,
                -0.031278890600924494
            ]
        ],
        [
            [
                0.5849220103986136,
                -0.05038520801232666
            ],
            [
                0.6057192374350087,
                -0.04545454545454545
            ],
            [
                0.6369150779896013,
                0.010015408320493073
            ]
        ],
        [
            [
                0.8847487001733101,
                -0.07627118644067804
            ],
            [
                0.9159445407279029,
                -0.020801232665639442
            ],
            [
                0.9166377816291161,
                -0.013405238828967648
            ]
        ],
        [
            [
                0.7819706498951782,
                0.34888059701492535
            ],
            [
                0.7882599580712788,
                0.3638059701492537
            ],
            [
                0.7993518124906895,
                0.37305096244509345
            ]
        ],
        [
            [
                0.8147313691507798,
                0.3890600924499229
            ],
            [
                0.8258232235701907,
                0.39830508474576265
            ],
            [
                0.823050259965338,
                0.4439137134052388
            ]
        ],
        [
            [
                0.8147313691507798,
                0.5807395993836671
            ],
            [
                0.8119584055459271,
                0.6263482280431432
            ],
            [
                0.8175043327556325,
                0.6288135593220338
            ]
        ],
        [
            [
                0.8497400346620451,
                0.6500770416024652
            ],
            [
                0.8552859618717504,
                0.6525423728813559
            ],
            [
                0.8733102253032928,
                0.6500770416024652
            ]
        ],
        [
            [
                0.9020797227036395,
                0.6417565485362093
            ],
            [
                0.9298093587521663,
                0.6402157164869029
            ],
            [
                0.9540727902946273,
                0.6479198767334359
            ]
        ],
        [
            [
                1.0143847487001731,
                0.6781201848998458
            ],
            [
                1.035528596187175,
                0.6910631741140215
            ],
            [
                1.0438474870017331,
                0.5240369799691833
            ]
        ],
        [
            [
                1.0688041594454072,
                0.022958397534668717
            ],
            [
                1.0771230502599651,
                -0.14406779661016947
            ],
            [
                0.9627383015597919,
                -0.17426810477657934
            ]
        ],
        [
            [
                0.6195840554592721,
                -0.26486902927580896
            ],
            [
                0.5051993067590987,
                -0.2950693374422188
            ],
            [
                0.378682842287695,
                -0.2679506933744222
            ]
        ],
        [
            [
                -0.0008665511265164572,
                -0.18659476117103235
            ],
            [
                -0.12738301559792026,
                -0.15947611710323573
            ],
            [
                -0.1117850953206239,
                -0.03312788906009245
            ]
        ]
    ],
    "9089": [
        [
            [
                -0.06499133448873483,
                0.3459167950693374
            ],
            [
                -0.049393414211438474,
                0.4722650231124807
            ],
            [
                -0.014038128249566724,
                0.46795069337442213
            ]
        ],
        [
            [
                0.09202772963604852,
                0.45500770416024644
            ],
            [
                0.12738301559792026,
                0.45069337442218793
            ],
            [
                0.13500866551126517,
                0.4704160246533127
            ]
        ],
        [
            [
                0.15788561525129982,
                0.5295839753466872
            ],
            [
                0.1655112651646447,
                0.5493066255778121
            ],
            [
                0.17209705372616982,
                0.5462249614791987
            ]
        ],
        [
            [
                0.19185441941074524,
                0.536979969183359
            ],
            [
                0.19844020797227035,
                0.5338983050847458
            ],
            [
                0.18180242634315424,
                0.44884437596302
            ]
        ],
        [
            [
                0.13188908145580588,
                0.19368258859784282
            ],
            [
                0.11525129982668976,
                0.10862865947611709
            ],
            [
                0.1797227036395147,
                0.0950693374422188
            ]
        ],
        [
            [
                0.241421143847487,
                -0.02727272727272727
            ],
            [
                0.30589254766031193,
                -0.040832049306625574
            ],
            [
                0.31975736568457536,
                -0.046379044684129435
            ]
        ],
        [
            [
                0.4731369150779895,
                -0.030662557781201846
            ],
            [
                0.487001733102253,
                -0.0362095531587057
            ],
            [
                0.5077989601386481,
                -0.031278890600924494
            ]
        ],
        [
            [
                0.5849220103986136,
                -0.05038520801232666
            ],
            [
                0.6057192374350087,
                -0.04545454545454545
            ],
            [
                0.6369150779896013,
                0.010015408320493073
            ]
        ],
        [
            [
                0.8847487001733101,
                -0.07627118644067804
            ],
            [
                0.9159445407279029,
                -0.020801232665639442
            ],
            [
                0.9166377816291161,
                -0.013405238828967648
            ]
        ],
        [
            [
                0.751927304172162,
                0.32655923004392506
            ],
            [
                0.7526205450733753,
                0.33395522388059706
            ],
            [
                0.763712399492786,
                0.34320021617643665
            ]
        ],
        [
            [
                0.8147313691507798,
                0.3890600924499229
            ],
            [
                0.8258232235701907,
                0.39830508474576265
            ],
            [
                0.823050259965338,
                0.4439137134052388
            ]
        ],
        [
            [
                0.8147313691507798,
                0.5807395993836671
            ],
            [
                0.8119584055459271,
                0.6263482280431432
            ],
            [
                0.8175043327556325,
                0.6288135593220338
            ]
        ],
        [
            [
                0.8497400346620451,
                0.6500770416024652
            ],
            [
                0.8552859618717504,
                0.6525423728813559
            ],
            [
                0.8733102253032928,
                0.6500770416024652
            ]
        ],
        [
            [
                0.9020797227036395,
                0.6417565485362093
            ],
            [
                0.9298093587521663,
                0.6402157164869029
            ],
            [
                0.9540727902946273,
                0.6479198767334359
            ]
        ],
        [
            [
                1.0143847487001731,
                0.6781201848998458
            ],
            [
                1.035528596187175,
                0.6910631741140215
            ],
            [
                1.0438474870017331,
                0.5240369799691833
            ]
        ],
        [
            [
                1.0688041594454072,
                0.022958397534668717
            ],
            [
                1.0771230502599651,
                -0.14406779661016947
            ],
            [
                0.9627383015597919,
                -0.17426810477657934
            ]
        ],
        [
            [
                0.6195840554592721,
                -0.26486902927580896
            ],
            [
                0.5051993067590987,
                -0.2950693374422188
            ],
            [
                0.378682842287695,
                -0.2679506933744222
            ]
        ],
        [
            [
                -0.0008665511265164572,
                -0.18659476117103235
            ],
            [
                -0.12738301559792026,
                -0.15947611710323573
            ],
            [
                -0.1117850953206239,
                -0.03312788906009245
            ]
        ]
    ],
    "9090": [
        [
            [
                -0.06499133448873483,
                0.3459167950693374
            ],
            [
                -0.049393414211438474,
                0.4722650231124807
            ],
            [
                -0.014038128249566724,
                0.46795069337442213
            ]
        ],
        [
            [
                0.09202772963604852,
                0.45500770416024644
            ],
            [
                0.12738301559792026,
                0.45069337442218793
            ],
            [
                0.13500866551126517,
                0.4704160246533127
            ]
        ],
        [
            [
                0.15788561525129982,
                0.5295839753466872
            ],
            [
                0.1655112651646447,
                0.5493066255778121
            ],
            [
                0.17209705372616982,
                0.5462249614791987
            ]
        ],
        [
            [
                0.19185441941074524,
                0.536979969183359
            ],
            [
                0.19844020797227035,
                0.5338983050847458
            ],
            [
                0.18180242634315424,
                0.44884437596302
            ]
        ],
        [
            [
                0.13188908145580588,
                0.19368258859784282
            ],
            [
                0.11525129982668976,
                0.10862865947611709
            ],
            [
                0.1797227036395147,
                0.0950693374422188
            ]
        ],
        [
            [
                0.241421143847487,
                -0.02727272727272727
            ],
            [
                0.30589254766031193,
                -0.040832049306625574
            ],
            [
                0.31975736568457536,
                -0.046379044684129435
            ]
        ],
        [
            [
                0.4731369150779895,
                -0.030662557781201846
            ],
            [
                0.487001733102253,
                -0.0362095531587057
            ],
            [
                0.5077989601386481,
                -0.031278890600924494
            ]
        ],
        [
            [
                0.5849220103986136,
                -0.05038520801232666
            ],
            [
                0.6057192374350087,
                -0.04545454545454545
            ],
            [
                0.6369150779896013,
                0.010015408320493073
            ]
        ],
        [
            [
                0.8847487001733101,
                -0.07627118644067804
            ],
            [
                0.9159445407279029,
                -0.020801232665639442
            ],
            [
                0.9166377816291161,
                -0.013405238828967648
            ]
        ],
        [
            [
                0.7393486878199608,
                0.3526786330289996
            ],
            [
                0.740041928721174,
                0.36007462686567165
            ],
            [
                0.7511337831405848,
                0.36931961916151124
            ]
        ],
        [
            [
                0.7897467200040693,
                0.4235908285996827
            ],
            [
                0.80083857442348,
                0.4328358208955224
            ],
            [
                0.7980656108186274,
                0.4784444495549986
            ]
        ],
        [
            [
                0.8147313691507798,
                0.5807395993836671
            ],
            [
                0.8119584055459271,
                0.6263482280431432
            ],
            [
                0.8175043327556325,
                0.6288135593220338
            ]
        ],
        [
            [
                0.8497400346620451,
                0.6500770416024652
            ],
            [
                0.8552859618717504,
                0.6525423728813559
            ],
            [
                0.8733102253032928,
                0.6500770416024652
            ]
        ],
        [
            [
                0.9020797227036395,
                0.6417565485362093
            ],
            [
                0.9298093587521663,
                0.6402157164869029
            ],
            [
                0.9540727902946273,
                0.6479198767334359
            ]
        ],
        [
            [
                1.0143847487001731,
                0.6781201848998458
            ],
            [
                1.035528596187175,
                0.6910631741140215
            ],
            [
                1.0438474870017331,
                0.5240369799691833
            ]
        ],
        [
            [
                1.0688041594454072,
                0.022958397534668717
            ],
            [
                1.0771230502599651,
                -0.14406779661016947
            ],
            [
                0.9627383015597919,
                -0.17426810477657934
            ]
        ],
        [
            [
                0.6195840554592721,
                -0.26486902927580896
            ],
            [
                0.5051993067590987,
                -0.2950693374422188
            ],
            [
                0.378682842287695,
                -0.2679506933744222
            ]
        ],
        [
            [
                -0.0008665511265164572,
                -0.18659476117103235
            ],
            [
                -0.12738301559792026,
                -0.15947611710323573
            ],
            [
                -0.1117850953206239,
                -0.03312788906009245
            ]
        ]
    ],
    "9091": [
        [
            [
                -0.06499133448873483,
                0.3459167950693374
            ],
            [
                -0.049393414211438474,
                0.4722650231124807
            ],
            [
                -0.014038128249566724,
                0.46795069337442213
            ]
        ],
        [
            [
                0.09202772963604852,
                0.45500770416024644
            ],
            [
                0.12738301559792026,
                0.45069337442218793
            ],
            [
                0.13500866551126517,
                0.4704160246533127
            ]
        ],
        [
            [
                0.15788561525129982,
                0.5295839753466872
            ],
            [
                0.1655112651646447,
                0.5493066255778121
            ],
            [
                0.17209705372616982,
                0.5462249614791987
            ]
        ],
        [
            [
                0.19185441941074524,
                0.536979969183359
            ],
            [
                0.19844020797227035,
                0.5338983050847458
            ],
            [
                0.18180242634315424,
                0.44884437596302
            ]
        ],
        [
            [
                0.13188908145580588,
                0.19368258859784282
            ],
            [
                0.11525129982668976,
                0.10862865947611709
            ],
            [
                0.1797227036395147,
                0.0950693374422188
            ]
        ],
        [
            [
                0.241421143847487,
                -0.02727272727272727
            ],
            [
                0.30589254766031193,
                -0.040832049306625574
            ],
            [
                0.31975736568457536,
                -0.046379044684129435
            ]
        ],
        [
            [
                0.4731369150779895,
                -0.030662557781201846
            ],
            [
                0.487001733102253,
                -0.0362095531587057
            ],
            [
                0.5077989601386481,
                -0.031278890600924494
            ]
        ],
        [
            [
                0.5849220103986136,
                -0.05038520801232666
            ],
            [
                0.6057192374350087,
                -0.04545454545454545
            ],
            [
                0.6369150779896013,
                0.010015408320493073
            ]
        ],
        [
            [
                0.6805442013741284,
                0.04527631488167785
            ],
            [
                0.7117400419287211,
                0.10074626865671643
            ],
            [
                0.7124332828299343,
                0.10814226249338824
            ]
        ],
        [
            [
                0.7267700714677595,
                0.33775325989467125
            ],
            [
                0.7274633123689728,
                0.34514925373134325
            ],
            [
                0.7385551667883835,
                0.35439424602718295
            ]
        ],
        [
            [
                0.7520108709474655,
                0.44224754501759317
            ],
            [
                0.7631027253668763,
                0.45149253731343286
            ],
            [
                0.7603297617620236,
                0.4971011659729091
            ]
        ],
        [
            [
                0.8147313691507798,
                0.5807395993836671
            ],
            [
                0.8119584055459271,
                0.6263482280431432
            ],
            [
                0.8175043327556325,
                0.6288135593220338
            ]
        ],
        [
            [
                0.8497400346620451,
                0.6500770416024652
            ],
            [
                0.8552859618717504,
                0.6525423728813559
            ],
            [
                0.8733102253032928,
                0.6500770416024652
            ]
        ],
        [
            [
                0.9020797227036395,
                0.6417565485362093
            ],
            [
                0.9298093587521663,
                0.6402157164869029
            ],
            [
                0.9540727902946273,
                0.6479198767334359
            ]
        ],
        [
            [
                1.0143847487001731,
                0.6781201848998458
            ],
            [
                1.035528596187175,
                0.6910631741140215
            ],
            [
                1.0438474870017331,
                0.5240369799691833
            ]
        ],
        [
            [
                1.0688041594454072,
                0.022958397534668717
            ],
            [
                1.0771230502599651,
                -0.14406779661016947
            ],
            [
                0.9627383015597919,
                -0.17426810477657934
            ]
        ],
        [
            [
                0.6195840554592721,
                -0.26486902927580896
            ],
            [
                0.5051993067590987,
                -0.2950693374422188
            ],
            [
                0.378682842287695,
                -0.2679506933744222
            ]
        ],
        [
            [
                -0.0008665511265164572,
                -0.18659476117103235
            ],
            [
                -0.12738301559792026,
                -0.15947611710323573
            ],
            [
                -0.1117850953206239,
                -0.03312788906009245
            ]
        ]
    ]
}
</property>
    <property name="kdenlive:collapsed">0</property>
    <property name="disable">0</property>
   </filter>
   <filter id="filter221">
    <property name="version">0.2</property>
    <property name="mlt_service">frei0r.coloradj_RGB</property>
    <property name="kdenlive_id">frei0r.coloradj_RGB</property>
    <property name="R">00:04:52.467=0.558;00:04:59.400=0.558;00:05:00.567=0.703</property>
    <property name="G">00:04:52.467=0.427;00:04:59.400=0.427;00:05:00.567=0.471</property>
    <property name="B">00:04:52.467=0.468;00:04:59.400=0.468;00:05:00.567=0.515</property>
    <property name="Action">0.5</property>
    <property name="Keep luma">1</property>
    <property name="Alpha controlled">0</property>
    <property name="Luma formula">1</property>
    <property name="kdenlive:collapsed">0</property>
   </filter>
   <filter id="filter222">
    <property name="version">0.4</property>
    <property name="mlt_service">frei0r.levels</property>
    <property name="kdenlive_id">frei0r.levels</property>
    <property name="Channel">0.3</property>
    <property name="Input black level">00:04:52.467=0.072</property>
    <property name="Input white level">00:04:52.467=1</property>
    <property name="Gamma">00:04:52.467=0.26225</property>
    <property name="Black output">00:04:52.467=0</property>
    <property name="White output">00:04:52.467=1</property>
    <property name="Show histogram">0</property>
    <property name="Histogram position">0.3</property>
    <property name="kdenlive:collapsed">0</property>
   </filter>
   <filter id="filter223">
    <property name="version">0.3</property>
    <property name="mlt_service">frei0r.saturat0r</property>
    <property name="kdenlive_id">frei0r.saturat0r</property>
    <property name="Saturation">00:04:52.467=0.001;00:04:54.000=0.001;00:04:54.900=0.125</property>
    <property name="kdenlive:collapsed">0</property>
   </filter>
  </entry>
 </playlist>
 <playlist id="playlist19"/>
 <tractor id="tractor9" in="00:00:00.000" out="00:05:44.033">
  <property name="kdenlive:trackheight">69</property>
  <property name="kdenlive:timeline_active">1</property>
  <property name="kdenlive:collapsed">28</property>
  <property name="kdenlive:track_name">sarah1</property>
  <property name="kdenlive:thumbs_format"/>
  <property name="kdenlive:audio_rec"/>
  <track hide="audio" producer="playlist18"/>
  <track producer="playlist19"/>
 </tractor>
 <producer id="producer30" in="00:00:00.000" out="00:01:25.100">
  <property name="length">2554</property>
  <property name="eof">pause</property>
  <property name="resource">/home/ryankelln/.cache/kdenlive/proxy/ce779b7974f19632a07732a59b8bd64b.mkv</property>
  <property name="audio_index">1</property>
  <property name="video_index">0</property>
  <property name="mute_on_pause">0</property>
  <property name="mlt_service">avformat-novalidate</property>
  <property name="seekable">1</property>
  <property name="aspect_ratio">1</property>
  <property name="kdenlive:clipname">2021-06-02_Caleb_electric+4k_sarah_P1000551-take2_start.MP4</property>
  <property name="kdenlive:folderid">22</property>
  <property name="kdenlive:id">6</property>
  <property name="kdenlive:file_size">1019834394</property>
  <property name="kdenlive:file_hash">ce779b7974f19632a07732a59b8bd64b</property>
  <property name="kdenlive:audio_max">1</property>
  <property name="global_feed">1</property>
  <property name="kdenlive:proxy">/home/ryankelln/.cache/kdenlive/proxy/ce779b7974f19632a07732a59b8bd64b.mkv</property>
  <property name="kdenlive:originalurl">content/musicians/2021-06-02_Caleb_electric+4k_sarah_P1000551-take2_start.MP4</property>
  <property name="kdenlive:original.mlt_type">producer</property>
  <property name="kdenlive:original.in">00:00:00.000</property>
  <property name="kdenlive:original.out">00:01:25.100</property>
  <property name="kdenlive:original.length">2554</property>
  <property name="kdenlive:original.eof">pause</property>
  <property name="kdenlive:original.resource">content/musicians/2021-06-02_Caleb_electric+4k_sarah_P1000551-take2_start.MP4</property>
  <property name="kdenlive:original.audio_index">1</property>
  <property name="kdenlive:original.video_index">0</property>
  <property name="kdenlive:original.mute_on_pause">0</property>
  <property name="kdenlive:original.mlt_service">avformat-novalidate</property>
  <property name="kdenlive:original.id">producer24</property>
  <property name="kdenlive:original.meta.media.nb_streams">2</property>
  <property name="kdenlive:original.meta.media.0.stream.type">video</property>
  <property name="kdenlive:original.meta.media.0.stream.frame_rate">29.97</property>
  <property name="kdenlive:original.meta.media.0.stream.sample_aspect_ratio">1</property>
  <property name="kdenlive:original.meta.media.0.codec.width">3328</property>
  <property name="kdenlive:original.meta.media.0.codec.height">2496</property>
  <property name="kdenlive:original.meta.media.0.codec.rotate">0</property>
  <property name="kdenlive:original.meta.media.0.codec.frame_rate">29.97</property>
  <property name="kdenlive:original.meta.media.0.codec.pix_fmt">yuvj420p</property>
  <property name="kdenlive:original.meta.media.0.codec.sample_aspect_ratio">1</property>
  <property name="kdenlive:original.meta.media.0.codec.colorspace">709</property>
  <property name="kdenlive:original.meta.media.0.codec.color_trc">1</property>
  <property name="kdenlive:original.meta.media.0.codec.name">h264</property>
  <property name="kdenlive:original.meta.media.0.codec.long_name">H.264 / AVC / MPEG-4 AVC / MPEG-4 part 10</property>
  <property name="kdenlive:original.meta.media.0.codec.bit_rate">95829617</property>
  <property name="kdenlive:original.meta.attr.0.stream.creation_time.markup">2021-06-02T15:49:01.000000Z</property>
  <property name="kdenlive:original.meta.attr.0.stream.handler_name.markup">VideoHandler</property>
  <property name="kdenlive:original.meta.media.1.stream.type">audio</property>
  <property name="kdenlive:original.meta.media.1.codec.sample_fmt">fltp</property>
  <property name="kdenlive:original.meta.media.1.codec.sample_rate">48000</property>
  <property name="kdenlive:original.meta.media.1.codec.channels">2</property>
  <property name="kdenlive:original.meta.media.1.codec.name">aac</property>
  <property name="kdenlive:original.meta.media.1.codec.long_name">AAC (Advanced Audio Coding)</property>
  <property name="kdenlive:original.meta.media.1.codec.bit_rate">125374</property>
  <property name="kdenlive:original.meta.attr.1.stream.creation_time.markup">2021-06-02T15:49:01.000000Z</property>
  <property name="kdenlive:original.meta.attr.1.stream.handler_name.markup">SoundHandler</property>
  <property name="kdenlive:original.meta.attr.major_brand.markup">isom</property>
  <property name="kdenlive:original.meta.attr.minor_version.markup">512</property>
  <property name="kdenlive:original.meta.attr.compatible_brands.markup">isomiso2avc1mp41</property>
  <property name="kdenlive:original.meta.attr.creation_time.markup">2021-06-02T15:49:01.000000Z</property>
  <property name="kdenlive:original.meta.attr.encoder.markup">Lavf58.45.100</property>
  <property name="kdenlive:original.seekable">1</property>
  <property name="kdenlive:original.meta.media.sample_aspect_num">1</property>
  <property name="kdenlive:original.meta.media.sample_aspect_den">1</property>
  <property name="kdenlive:original.aspect_ratio">1</property>
  <property name="kdenlive:original.kdenlive:folderid">22</property>
  <property name="kdenlive:original.meta.media.frame_rate_num">30000</property>
  <property name="kdenlive:original.meta.media.frame_rate_den">1001</property>
  <property name="kdenlive:original.meta.media.colorspace">709</property>
  <property name="kdenlive:original.meta.media.color_trc">1</property>
  <property name="kdenlive:original.meta.media.width">3328</property>
  <property name="kdenlive:original.meta.media.height">2496</property>
  <property name="kdenlive:original.meta.media.color_range">full</property>
  <property name="kdenlive:original.kdenlive:id">26</property>
  <property name="kdenlive:original.kdenlive:file_size">1019834394</property>
  <property name="kdenlive:original.kdenlive:file_hash">ce779b7974f19632a07732a59b8bd64b</property>
  <property name="kdenlive:original.kdenlive:audio_max">1</property>
  <property name="kdenlive:original.meta.media.top_field_first">0</property>
  <property name="kdenlive:original.meta.media.progressive">1</property>
  <property name="kdenlive:original.global_feed">1</property>
  <property name="kdenlive:original.width">3328</property>
  <property name="kdenlive:original.height">2496</property>
  <property name="kdenlive:original.backup">1</property>
  <property name="kdenlive:activeeffect">0</property>
  <property name="xml">was here</property>
  <property name="meta.media.nb_streams">2</property>
  <property name="meta.media.0.stream.type">video</property>
  <property name="meta.media.0.stream.frame_rate">29.97</property>
  <property name="meta.media.0.stream.sample_aspect_ratio">1</property>
  <property name="meta.media.0.codec.width">640</property>
  <property name="meta.media.0.codec.height">480</property>
  <property name="meta.media.0.codec.rotate">0</property>
  <property name="meta.media.0.codec.frame_rate">1000</property>
  <property name="meta.media.0.codec.pix_fmt">yuvj420p</property>
  <property name="meta.media.0.codec.sample_aspect_ratio">1</property>
  <property name="meta.media.0.codec.colorspace">601</property>
  <property name="meta.media.0.codec.name">mjpeg</property>
  <property name="meta.media.0.codec.long_name">MJPEG (Motion JPEG)</property>
  <property name="meta.media.0.codec.bit_rate">0</property>
  <property name="meta.attr.0.stream.HANDLER_NAME.markup">VideoHandler</property>
  <property name="meta.attr.0.stream.ENCODER.markup">Lavc58.91.100 mjpeg</property>
  <property name="meta.attr.0.stream.DURATION.markup">00:01:25.151000000</property>
  <property name="meta.media.1.stream.type">audio</property>
  <property name="meta.media.1.codec.sample_fmt">s16</property>
  <property name="meta.media.1.codec.sample_rate">48000</property>
  <property name="meta.media.1.codec.channels">2</property>
  <property name="meta.media.1.codec.name">pcm_s16le</property>
  <property name="meta.media.1.codec.long_name">PCM signed 16-bit little-endian</property>
  <property name="meta.media.1.codec.bit_rate">1536000</property>
  <property name="meta.attr.1.stream.HANDLER_NAME.markup">SoundHandler</property>
  <property name="meta.attr.1.stream.ENCODER.markup">Lavc58.91.100 pcm_s16le</property>
  <property name="meta.attr.1.stream.DURATION.markup">00:01:25.120000000</property>
  <property name="meta.attr.COMPATIBLE_BRANDS.markup">isomiso2avc1mp41</property>
  <property name="meta.attr.MAJOR_BRAND.markup">isom</property>
  <property name="meta.attr.MINOR_VERSION.markup">512</property>
  <property name="meta.attr.ENCODER.markup">Lavf58.45.100</property>
  <property name="meta.media.sample_aspect_num">1</property>
  <property name="meta.media.sample_aspect_den">1</property>
  <property name="meta.media.frame_rate_num">30000</property>
  <property name="meta.media.frame_rate_den">1001</property>
  <property name="meta.media.colorspace">601</property>
  <property name="meta.media.color_trc">2</property>
  <property name="meta.media.width">640</property>
  <property name="meta.media.height">480</property>
  <property name="meta.media.color_range">full</property>
  <property name="meta.media.top_field_first">0</property>
  <property name="meta.media.progressive">1</property>
  <property name="set.test_audio">1</property>
  <property name="set.test_image">1</property>
  <filter id="filter64">
   <property name="version">0.6</property>
   <property name="mlt_service">frei0r.select0r</property>
   <property name="kdenlive_id">frei0r.select0r</property>
   <property name="Color to select">0x2e7e2cff</property>
   <property name="Invert selection">1</property>
   <property name="Selection subspace">1</property>
   <property name="Subspace shape">0.5</property>
   <property name="Edge mode">0.9</property>
   <property name="Delta R / A / Hue">00:00:00.000=0.2</property>
   <property name="Delta G / B / Chroma">00:00:00.000=0.2</property>
   <property name="Delta B / I / I">00:00:00.000=0.2</property>
   <property name="Slope">00:00:00.000=0</property>
   <property name="Operation">0.5</property>
   <property name="kdenlive:collapsed">0</property>
  </filter>
  <filter id="filter65">
   <property name="version">0.6</property>
   <property name="mlt_service">frei0r.select0r</property>
   <property name="kdenlive_id">frei0r.select0r</property>
   <property name="Color to select">0x2e7e2cff</property>
   <property name="Invert selection">1</property>
   <property name="Selection subspace">1</property>
   <property name="Subspace shape">0.5</property>
   <property name="Edge mode">0.9</property>
   <property name="Delta R / A / Hue">00:00:00.000=0.2</property>
   <property name="Delta G / B / Chroma">00:00:00.000=0.2</property>
   <property name="Delta B / I / I">00:00:00.000=0.2</property>
   <property name="Slope">00:00:00.000=0</property>
   <property name="Operation">0.5</property>
  </filter>
 </producer>
 <playlist id="playlist20">
  <blank length="00:00:10.600"/>
  <entry producer="producer30" in="00:00:00.000" out="00:00:35.867">
   <property name="kdenlive:id">6</property>
  </entry>
 </playlist>
 <playlist id="playlist21"/>
 <tractor id="tractor10" in="00:00:00.000" out="00:00:46.467">
  <property name="kdenlive:trackheight">69</property>
  <property name="kdenlive:timeline_active">1</property>
  <property name="kdenlive:collapsed">28</property>
  <property name="kdenlive:track_name">caleb2</property>
  <property name="kdenlive:thumbs_format"/>
  <property name="kdenlive:audio_rec"/>
  <property name="kdenlive:locked_track">1</property>
  <track hide="both" producer="playlist20"/>
  <track producer="playlist21"/>
 </tractor>
 <producer id="producer31" in="00:00:00.000" out="00:04:51.800">
  <property name="length">8755</property>
  <property name="eof">pause</property>
  <property name="resource">content/musicians/2021-06-02_Caleb_electric+4k_sarah_P1000552-take3_from-bass-solo.MP4</property>
  <property name="audio_index">1</property>
  <property name="video_index">0</property>
  <property name="mute_on_pause">0</property>
  <property name="mlt_service">avformat-novalidate</property>
  <property name="seekable">1</property>
  <property name="aspect_ratio">1</property>
  <property name="kdenlive:clipname">2021-06-02_Caleb_electric+4k_sarah_P1000552-take3_from-bass-solo.MP4</property>
  <property name="kdenlive:folderid">22</property>
  <property name="kdenlive:id">7</property>
  <property name="kdenlive:file_size">3501183214</property>
  <property name="kdenlive:file_hash">d744105bb6ea0a63ee18b489cf89062b</property>
  <property name="kdenlive:audio_max">1</property>
  <property name="global_feed">1</property>
  <property name="kdenlive:proxy">-</property>
  <property name="kdenlive:originalurl">content/musicians/2021-06-02_Caleb_electric+4k_sarah_P1000552-take3_from-bass-solo.MP4</property>
  <property name="kdenlive:activeeffect">3</property>
  <property name="xml">was here</property>
  <property name="meta.media.nb_streams">2</property>
  <property name="meta.media.0.stream.type">video</property>
  <property name="meta.media.0.stream.frame_rate">29.9701</property>
  <property name="meta.media.0.stream.sample_aspect_ratio">1</property>
  <property name="meta.media.0.codec.width">3328</property>
  <property name="meta.media.0.codec.height">2496</property>
  <property name="meta.media.0.codec.rotate">0</property>
  <property name="meta.media.0.codec.frame_rate">29.97</property>
  <property name="meta.media.0.codec.pix_fmt">yuvj420p</property>
  <property name="meta.media.0.codec.sample_aspect_ratio">1</property>
  <property name="meta.media.0.codec.colorspace">709</property>
  <property name="meta.media.0.codec.color_trc">1</property>
  <property name="meta.media.0.codec.name">h264</property>
  <property name="meta.media.0.codec.long_name">H.264 / AVC / MPEG-4 AVC / MPEG-4 part 10</property>
  <property name="meta.media.0.codec.bit_rate">95846667</property>
  <property name="meta.attr.0.stream.handler_name.markup">VideoHandler</property>
  <property name="meta.media.1.stream.type">audio</property>
  <property name="meta.media.1.codec.sample_fmt">fltp</property>
  <property name="meta.media.1.codec.sample_rate">48000</property>
  <property name="meta.media.1.codec.channels">2</property>
  <property name="meta.media.1.codec.name">aac</property>
  <property name="meta.media.1.codec.long_name">AAC (Advanced Audio Coding)</property>
  <property name="meta.media.1.codec.bit_rate">125377</property>
  <property name="meta.attr.1.stream.handler_name.markup">SoundHandler</property>
  <property name="meta.attr.major_brand.markup">isom</property>
  <property name="meta.attr.minor_version.markup">512</property>
  <property name="meta.attr.compatible_brands.markup">isomiso2avc1mp41</property>
  <property name="meta.attr.encoder.markup">Lavf58.45.100</property>
  <property name="meta.media.sample_aspect_num">1</property>
  <property name="meta.media.sample_aspect_den">1</property>
  <property name="meta.media.frame_rate_num">262380000</property>
  <property name="meta.media.frame_rate_den">8754731</property>
  <property name="meta.media.colorspace">709</property>
  <property name="meta.media.color_trc">1</property>
  <property name="meta.media.width">3328</property>
  <property name="meta.media.height">2496</property>
  <property name="meta.media.color_range">full</property>
  <property name="set.test_audio">1</property>
  <property name="set.test_image">0</property>
 </producer>
 <producer id="producer32" in="00:00:00.000" out="00:04:51.800">
  <property name="length">8755</property>
  <property name="eof">pause</property>
  <property name="resource">/home/ryankelln/.cache/kdenlive/proxy/d744105bb6ea0a63ee18b489cf89062b.mkv</property>
  <property name="audio_index">1</property>
  <property name="video_index">0</property>
  <property name="mute_on_pause">0</property>
  <property name="mlt_service">avformat-novalidate</property>
  <property name="seekable">1</property>
  <property name="aspect_ratio">1</property>
  <property name="kdenlive:clipname">2021-06-02_Caleb_electric+4k_sarah_P1000552-take3_from-bass-solo.MP4</property>
  <property name="kdenlive:folderid">22</property>
  <property name="kdenlive:id">7</property>
  <property name="kdenlive:file_size">3501183214</property>
  <property name="kdenlive:file_hash">d744105bb6ea0a63ee18b489cf89062b</property>
  <property name="kdenlive:audio_max">1</property>
  <property name="global_feed">1</property>
  <property name="kdenlive:proxy">/home/ryankelln/.cache/kdenlive/proxy/d744105bb6ea0a63ee18b489cf89062b.mkv</property>
  <property name="kdenlive:originalurl">content/musicians/2021-06-02_Caleb_electric+4k_sarah_P1000552-take3_from-bass-solo.MP4</property>
  <property name="kdenlive:original.mlt_type">producer</property>
  <property name="kdenlive:original.in">00:00:00.000</property>
  <property name="kdenlive:original.out">00:04:51.800</property>
  <property name="kdenlive:original.length">8755</property>
  <property name="kdenlive:original.eof">pause</property>
  <property name="kdenlive:original.resource">content/musicians/2021-06-02_Caleb_electric+4k_sarah_P1000552-take3_from-bass-solo.MP4</property>
  <property name="kdenlive:original.audio_index">1</property>
  <property name="kdenlive:original.video_index">0</property>
  <property name="kdenlive:original.mute_on_pause">0</property>
  <property name="kdenlive:original.mlt_service">avformat-novalidate</property>
  <property name="kdenlive:original.id">producer26</property>
  <property name="kdenlive:original.meta.media.nb_streams">2</property>
  <property name="kdenlive:original.meta.media.0.stream.type">video</property>
  <property name="kdenlive:original.meta.media.0.stream.frame_rate">29.9701</property>
  <property name="kdenlive:original.meta.media.0.stream.sample_aspect_ratio">1</property>
  <property name="kdenlive:original.meta.media.0.codec.width">3328</property>
  <property name="kdenlive:original.meta.media.0.codec.height">2496</property>
  <property name="kdenlive:original.meta.media.0.codec.rotate">0</property>
  <property name="kdenlive:original.meta.media.0.codec.frame_rate">29.97</property>
  <property name="kdenlive:original.meta.media.0.codec.pix_fmt">yuvj420p</property>
  <property name="kdenlive:original.meta.media.0.codec.sample_aspect_ratio">1</property>
  <property name="kdenlive:original.meta.media.0.codec.colorspace">709</property>
  <property name="kdenlive:original.meta.media.0.codec.color_trc">1</property>
  <property name="kdenlive:original.meta.media.0.codec.name">h264</property>
  <property name="kdenlive:original.meta.media.0.codec.long_name">H.264 / AVC / MPEG-4 AVC / MPEG-4 part 10</property>
  <property name="kdenlive:original.meta.media.0.codec.bit_rate">95846667</property>
  <property name="kdenlive:original.meta.attr.0.stream.handler_name.markup">VideoHandler</property>
  <property name="kdenlive:original.meta.media.1.stream.type">audio</property>
  <property name="kdenlive:original.meta.media.1.codec.sample_fmt">fltp</property>
  <property name="kdenlive:original.meta.media.1.codec.sample_rate">48000</property>
  <property name="kdenlive:original.meta.media.1.codec.channels">2</property>
  <property name="kdenlive:original.meta.media.1.codec.name">aac</property>
  <property name="kdenlive:original.meta.media.1.codec.long_name">AAC (Advanced Audio Coding)</property>
  <property name="kdenlive:original.meta.media.1.codec.bit_rate">125377</property>
  <property name="kdenlive:original.meta.attr.1.stream.handler_name.markup">SoundHandler</property>
  <property name="kdenlive:original.meta.attr.major_brand.markup">isom</property>
  <property name="kdenlive:original.meta.attr.minor_version.markup">512</property>
  <property name="kdenlive:original.meta.attr.compatible_brands.markup">isomiso2avc1mp41</property>
  <property name="kdenlive:original.meta.attr.encoder.markup">Lavf58.45.100</property>
  <property name="kdenlive:original.seekable">1</property>
  <property name="kdenlive:original.meta.media.sample_aspect_num">1</property>
  <property name="kdenlive:original.meta.media.sample_aspect_den">1</property>
  <property name="kdenlive:original.aspect_ratio">1</property>
  <property name="kdenlive:original.kdenlive:folderid">22</property>
  <property name="kdenlive:original.meta.media.frame_rate_num">262380000</property>
  <property name="kdenlive:original.meta.media.frame_rate_den">8754731</property>
  <property name="kdenlive:original.meta.media.colorspace">709</property>
  <property name="kdenlive:original.meta.media.color_trc">1</property>
  <property name="kdenlive:original.meta.media.width">3328</property>
  <property name="kdenlive:original.meta.media.height">2496</property>
  <property name="kdenlive:original.meta.media.color_range">full</property>
  <property name="kdenlive:original.kdenlive:id">27</property>
  <property name="kdenlive:original.kdenlive:file_size">3501183214</property>
  <property name="kdenlive:original.kdenlive:file_hash">d744105bb6ea0a63ee18b489cf89062b</property>
  <property name="kdenlive:original.kdenlive:audio_max">1</property>
  <property name="kdenlive:original.meta.media.top_field_first">0</property>
  <property name="kdenlive:original.meta.media.progressive">1</property>
  <property name="kdenlive:original.global_feed">1</property>
  <property name="kdenlive:original.width">3328</property>
  <property name="kdenlive:original.height">2496</property>
  <property name="kdenlive:original.backup">1</property>
  <property name="kdenlive:activeeffect">3</property>
  <property name="xml">was here</property>
  <property name="meta.media.nb_streams">2</property>
  <property name="meta.media.0.stream.type">video</property>
  <property name="meta.media.0.stream.frame_rate">29.97</property>
  <property name="meta.media.0.stream.sample_aspect_ratio">1</property>
  <property name="meta.media.0.codec.width">640</property>
  <property name="meta.media.0.codec.height">480</property>
  <property name="meta.media.0.codec.rotate">0</property>
  <property name="meta.media.0.codec.frame_rate">1000</property>
  <property name="meta.media.0.codec.pix_fmt">yuvj420p</property>
  <property name="meta.media.0.codec.sample_aspect_ratio">1</property>
  <property name="meta.media.0.codec.colorspace">601</property>
  <property name="meta.media.0.codec.name">mjpeg</property>
  <property name="meta.media.0.codec.long_name">MJPEG (Motion JPEG)</property>
  <property name="meta.media.0.codec.bit_rate">0</property>
  <property name="meta.attr.0.stream.HANDLER_NAME.markup">VideoHandler</property>
  <property name="meta.attr.0.stream.ENCODER.markup">Lavc58.91.100 mjpeg</property>
  <property name="meta.attr.0.stream.DURATION.markup">00:04:51.925000000</property>
  <property name="meta.media.1.stream.type">audio</property>
  <property name="meta.media.1.codec.sample_fmt">s16</property>
  <property name="meta.media.1.codec.sample_rate">48000</property>
  <property name="meta.media.1.codec.channels">2</property>
  <property name="meta.media.1.codec.name">pcm_s16le</property>
  <property name="meta.media.1.codec.long_name">PCM signed 16-bit little-endian</property>
  <property name="meta.media.1.codec.bit_rate">1536000</property>
  <property name="meta.attr.1.stream.HANDLER_NAME.markup">SoundHandler</property>
  <property name="meta.attr.1.stream.ENCODER.markup">Lavc58.91.100 pcm_s16le</property>
  <property name="meta.attr.1.stream.DURATION.markup">00:04:51.813000000</property>
  <property name="meta.attr.COMPATIBLE_BRANDS.markup">isomiso2avc1mp41</property>
  <property name="meta.attr.MAJOR_BRAND.markup">isom</property>
  <property name="meta.attr.MINOR_VERSION.markup">512</property>
  <property name="meta.attr.ENCODER.markup">Lavf58.45.100</property>
  <property name="meta.media.sample_aspect_num">1</property>
  <property name="meta.media.sample_aspect_den">1</property>
  <property name="meta.media.frame_rate_num">30000</property>
  <property name="meta.media.frame_rate_den">1001</property>
  <property name="meta.media.colorspace">601</property>
  <property name="meta.media.color_trc">2</property>
  <property name="meta.media.width">640</property>
  <property name="meta.media.height">480</property>
  <property name="meta.media.color_range">full</property>
  <property name="meta.media.top_field_first">0</property>
  <property name="meta.media.progressive">1</property>
  <property name="set.test_audio">1</property>
  <property name="set.test_image">1</property>
  <filter id="filter66">
   <property name="version">0.1</property>
   <property name="mlt_service">frei0r.hqdn3d</property>
   <property name="kdenlive_id">frei0r.hqdn3d</property>
   <property name="Spatial">00:00:00.000=0.096</property>
   <property name="Temporal">00:00:00.000=0.094</property>
   <property name="kdenlive:collapsed">0</property>
  </filter>
  <filter id="filter67">
   <property name="version">0.6</property>
   <property name="mlt_service">frei0r.select0r</property>
   <property name="kdenlive_id">frei0r.select0r</property>
   <property name="Color to select">0x65a65cff</property>
   <property name="Invert selection">1</property>
   <property name="Selection subspace">1</property>
   <property name="Subspace shape">1</property>
   <property name="Edge mode">0.9</property>
   <property name="Delta R / A / Hue">00:00:00.000=0.111</property>
   <property name="Delta G / B / Chroma">00:00:00.000=0.365</property>
   <property name="Delta B / I / I">00:00:00.000=0.317</property>
   <property name="Slope">00:00:00.000=0.129</property>
   <property name="Operation">0.5</property>
   <property name="kdenlive:collapsed">0</property>
  </filter>
  <filter id="filter68">
   <property name="version">0.4</property>
   <property name="mlt_service">frei0r.alpha0ps</property>
   <property name="kdenlive_id">frei0r.alpha0ps</property>
   <property name="Display">0</property>
   <property name="Display input alpha">0</property>
   <property name="Operation">1</property>
   <property name="Threshold">00:00:00.000=0.5</property>
   <property name="Shrink/Grow/Blur amount">00:00:00.000=0.087</property>
   <property name="Invert">0</property>
   <property name="kdenlive:collapsed">0</property>
  </filter>
  <filter id="filter69">
   <property name="version">0.3</property>
   <property name="mlt_service">frei0r.keyspillm0pup</property>
   <property name="kdenlive_id">frei0r.keyspillm0pup</property>
   <property name="Key color">0x44b95bff</property>
   <property name="Target color">0xC87F65ff</property>
   <property name="Mask type">0</property>
   <property name="Tolerance">00:00:00.000=0.27</property>
   <property name="Slope">00:00:00.000=0.283</property>
   <property name="Hue gate">00:00:00.000=0.183</property>
   <property name="Saturation threshold">00:00:00.000=0.15</property>
   <property name="Operation 1">1</property>
   <property name="Amount 1">00:00:00.000=0.5</property>
   <property name="Operation 2">4</property>
   <property name="Amount 2">00:00:00.000=0.131</property>
   <property name="Show mask">0</property>
   <property name="Mask to Alpha">0</property>
   <property name="kdenlive:collapsed">0</property>
  </filter>
 </producer>
 <playlist id="playlist22">
  <blank length="00:00:46.700"/>
  <entry producer="producer31" in="00:00:04.467" out="00:00:25.300">
   <property name="kdenlive:id">7</property>
   <filter id="filter236">
    <property name="rotate_center">1</property>
    <property name="mlt_service">qtblend</property>
    <property name="kdenlive_id">qtblend</property>
    <property name="rect">00:00:04.467=406 0 1920 1080 1.000000;00:00:20.900~=406 0 1920 1080 1.000000;00:00:25.300~=270 0 1920 1080 1.000000</property>
    <property name="rotation">00:00:04.467=0;00:00:20.900~=0;00:00:25.300~=-5</property>
    <property name="compositing">0</property>
    <property name="distort">0</property>
    <property name="kdenlive:collapsed">0</property>
   </filter>
   <filter id="filter237">
    <property name="mode">alpha</property>
    <property name="alpha_operation">sub</property>
    <property name="invert">1</property>
    <property name="feather">60</property>
    <property name="feather_passes">2</property>
    <property name="mlt_service">rotoscoping</property>
    <property name="kdenlive_id">rotoscoping</property>
    <property name="spline">{
    "134": [
        [
            [
                0.5479202772963595,
                1.0767334360554695
            ],
            [
                0.4822357019064124,
                1.0832049306625582
            ],
            [
                0.4787694974003466,
                1.0625577812018492
            ]
        ],
        [
            [
                0.468370883882149,
                1.0006163328197226
            ],
            [
                0.46490467937608315,
                0.979969183359014
            ],
            [
                0.4635181975736568,
                0.9328197226502302
            ]
        ],
        [
            [
                0.4593587521663778,
                0.7913713405238821
            ],
            [
                0.45797227036395144,
                0.7442218798150992
            ],
            [
                0.45849220103986127,
                0.7278890600924487
            ]
        ],
        [
            [
                0.4600519930675909,
                0.6788906009244983
            ],
            [
                0.4605719237435008,
                0.662557781201848
            ],
            [
                0.4558925476603119,
                0.6385208012326645
            ]
        ],
        [
            [
                0.4418544194107452,
                0.5664098613251147
            ],
            [
                0.4371750433275563,
                0.5423728813559309
            ],
            [
                0.425736568457539,
                0.5303543913713394
            ]
        ],
        [
            [
                0.39142114384748694,
                0.4942989214175645
            ],
            [
                0.37998266897746963,
                0.48228043143297294
            ],
            [
                0.40043327556325814,
                0.4545454545454542
            ]
        ],
        [
            [
                0.4617850953206239,
                0.3713405238828963
            ],
            [
                0.4822357019064124,
                0.3436055469953771
            ],
            [
                0.4891681109185441,
                0.3013867488443755
            ]
        ],
        [
            [
                0.5099653379549391,
                0.174730354391371
            ],
            [
                0.5168977469670707,
                0.13251155624036948
            ],
            [
                0.5442807625649901,
                0.09183359013867451
            ]
        ],
        [
            [
                0.5919899808745688,
                -0.052000652860955086
            ],
            [
                0.6538128249566715,
                -0.07087827426810511
            ],
            [
                0.7165022201652921,
                -0.06147715027276473
            ]
        ],
        [
            [
                0.7517167126439989,
                0.10004792770954425
            ],
            [
                0.7799662793684357,
                0.13826056253234859
            ],
            [
                0.7919246849143629,
                0.17369969966640098
            ]
        ],
        [
            [
                0.8136296680076687,
                0.25482073277838024
            ],
            [
                0.8255880735535958,
                0.29025986991243274
            ],
            [
                0.861809910641984,
                0.2813230440264541
            ]
        ],
        [
            [
                1.0031285687705058,
                0.19206936799720864
            ],
            [
                1.0393504058588952,
                0.18313254211123037
            ],
            [
                1.035190960451616,
                0.22411867462278665
            ]
        ],
        [
            [
                1.0193240901213168,
                0.416640986132511
            ],
            [
                1.0151646447140374,
                0.4576271186440675
            ],
            [
                0.991421143847486,
                0.4887519260400608
            ]
        ],
        [
            [
                0.9201906412478327,
                0.5821263482280418
            ],
            [
                0.8964471403812816,
                0.613251155624036
            ],
            [
                0.8824090121317149,
                0.6440677966101683
            ]
        ],
        [
            [
                0.8402946273830146,
                0.7365177195685664
            ],
            [
                0.8262564991334479,
                0.7673343605546987
            ],
            [
                0.8231369150779886,
                0.8240369799691821
            ]
        ],
        [
            [
                0.8137781629116108,
                0.9941448382126348
            ],
            [
                0.8106585788561514,
                1.0508474576271183
            ],
            [
                0.7449740034662036,
                1.0573189522342064
            ]
        ]
    ],
    "236": [
        [
            [
                0.6332105222741357,
                1.0597005426408517
            ],
            [
                0.5675259468841886,
                1.0661720372479402
            ],
            [
                0.5640597423781227,
                1.0455248877872314
            ]
        ],
        [
            [
                0.5536611288599252,
                0.9835834394051047
            ],
            [
                0.5501949243538594,
                0.962936289944396
            ],
            [
                0.5488084425514332,
                0.9157868292356124
            ]
        ],
        [
            [
                0.5446489971441544,
                0.7743384471092641
            ],
            [
                0.5432625153417278,
                0.7271889864004816
            ],
            [
                0.5437824460176379,
                0.7108561666778309
            ]
        ],
        [
            [
                0.5453422380453676,
                0.6618577075098803
            ],
            [
                0.5458621687212774,
                0.64552488778723
            ],
            [
                0.5411827926380883,
                0.6214879078180467
            ]
        ],
        [
            [
                0.5271446643885217,
                0.5493769679104967
            ],
            [
                0.5224652883053328,
                0.5253399879413128
            ],
            [
                0.5110268134353155,
                0.5133214979567214
            ]
        ],
        [
            [
                0.47671138882526365,
                0.4772660280029467
            ],
            [
                0.46527291395524634,
                0.4652475380183553
            ],
            [
                0.4857235205410349,
                0.4375125611308363
            ]
        ],
        [
            [
                0.5470753402984005,
                0.35430763046827857
            ],
            [
                0.5675259468841886,
                0.3265726535807593
            ],
            [
                0.5744583558963204,
                0.28435385542975766
            ]
        ],
        [
            [
                0.5952555829327154,
                0.1576974609767535
            ],
            [
                0.6021879919448468,
                0.11547866282575178
            ],
            [
                0.6295710075427664,
                0.0748006967240568
            ]
        ],
        [
            [
                0.663279846364258,
                -0.07789575936222941
            ],
            [
                0.7391030699344476,
                -0.08791116768272285
            ],
            [
                0.8157928446311558,
                -0.09022241575668243
            ]
        ],
        [
            [
                0.8308708342325422,
                0.09036310042205405
            ],
            [
                0.859120400956979,
                0.12857573524485838
            ],
            [
                0.8710788065029061,
                0.16401487237891083
            ]
        ],
        [
            [
                0.8870233472308091,
                0.23489314664701527
            ],
            [
                0.8989817527767363,
                0.27033228378106794
            ],
            [
                0.9352035898651245,
                0.2613954578950892
            ]
        ],
        [
            [
                1.0897963108356605,
                0.14675755342667637
            ],
            [
                1.126018147924051,
                0.13782072754069816
            ],
            [
                1.1218587025167719,
                0.17880686005225452
            ]
        ],
        [
            [
                1.1046143350990938,
                0.39960809271789316
            ],
            [
                1.1004548896918147,
                0.4405942252294497
            ],
            [
                1.0767113888252633,
                0.47171903262544307
            ]
        ],
        [
            [
                1.0054808862256086,
                0.565093454813424
            ],
            [
                0.9817373853590577,
                0.596218262209418
            ],
            [
                0.967699257109491,
                0.6270349031955507
            ]
        ],
        [
            [
                0.9255848723607908,
                0.7194848261539487
            ],
            [
                0.911546744111224,
                0.750301467140081
            ],
            [
                0.9084271600557648,
                0.8070040865545641
            ]
        ],
        [
            [
                0.899068407889387,
                0.9771119447980168
            ],
            [
                0.8959488238339277,
                1.0338145642125005
            ],
            [
                0.8302642484439797,
                1.0402860588195884
            ]
        ]
    ],
    "318": [
        [
            [
                0.6377941739166112,
                1.0678527165538951
            ],
            [
                0.5721095985266642,
                1.0743242111609836
            ],
            [
                0.5686433940205985,
                1.0536770617002749
            ]
        ],
        [
            [
                0.5582447805024008,
                0.9917356133181483
            ],
            [
                0.554778575996335,
                0.9710884638574395
            ],
            [
                0.5533920941939086,
                0.9239390031486561
            ]
        ],
        [
            [
                0.5492326487866294,
                0.7824906210223078
            ],
            [
                0.547846166984203,
                0.7353411603135253
            ],
            [
                0.5483660976601127,
                0.7190083405908746
            ]
        ],
        [
            [
                0.5499258896878427,
                0.6700098814229242
            ],
            [
                0.5504458203637523,
                0.6536770617002736
            ],
            [
                0.5457664442805635,
                0.6296400817310904
            ]
        ],
        [
            [
                0.5317283160309973,
                0.5575291418235406
            ],
            [
                0.5270489399478084,
                0.5334921618543568
            ],
            [
                0.5156104650777908,
                0.5214736718697651
            ]
        ],
        [
            [
                0.4812950404677388,
                0.4854182019159904
            ],
            [
                0.4698565655977215,
                0.47339971193139874
            ],
            [
                0.49030717218351,
                0.44566473504388
            ]
        ],
        [
            [
                0.5516589919408752,
                0.36245980438132214
            ],
            [
                0.5721095985266642,
                0.33472482749380295
            ],
            [
                0.5790420075387959,
                0.29250602934280134
            ]
        ],
        [
            [
                0.599839234575191,
                0.16584963488979684
            ],
            [
                0.6067716435873225,
                0.1236308367387953
            ],
            [
                0.6341546591852419,
                0.08295287063710036
            ]
        ],
        [
            [
                0.6678634980067335,
                -0.06974358544918588
            ],
            [
                0.7436867215769232,
                -0.07975899376967928
            ],
            [
                0.8203764962736313,
                -0.08207024184363887
            ]
        ],
        [
            [
                0.8354544858750177,
                0.09851527433509763
            ],
            [
                0.8637040525994545,
                0.13672790915790192
            ],
            [
                0.8756624581453817,
                0.1721670462919543
            ]
        ],
        [
            [
                0.8916069988732847,
                0.24304532056005887
            ],
            [
                0.9035654044192118,
                0.27848445769411145
            ],
            [
                0.9397872415076001,
                0.2695476318081329
            ]
        ],
        [
            [
                1.0943799624781365,
                0.15490972733971994
            ],
            [
                1.1306017995665263,
                0.14597290145374175
            ],
            [
                1.1264423541592472,
                0.18695903396529792
            ]
        ],
        [
            [
                1.1139640179374117,
                0.4501331479868694
            ],
            [
                1.1098045725301309,
                0.4911192804984259
            ],
            [
                1.0860610716635806,
                0.5222440878944192
            ]
        ],
        [
            [
                1.0100645378680844,
                0.5732456287264677
            ],
            [
                0.9863210370015333,
                0.6043704361224619
            ],
            [
                0.9722829087519665,
                0.6351870771085943
            ]
        ],
        [
            [
                0.9301685240032663,
                0.7276370000669924
            ],
            [
                0.9161303957536996,
                0.7584536410531246
            ],
            [
                0.9130108116982404,
                0.8151562604676077
            ]
        ],
        [
            [
                0.9036520595318626,
                0.9852641187110603
            ],
            [
                0.9005324754764032,
                1.041966738125544
            ],
            [
                0.8348479000864553,
                1.0484382327326318
            ]
        ]
    ],
    "356": [
        [
            [
                0.6412603784226775,
                1.0692114122060694
            ],
            [
                0.5755758030327303,
                1.075682906813158
            ],
            [
                0.5721095985266642,
                1.0550357573524491
            ]
        ],
        [
            [
                0.5617109850084667,
                0.9930943089703226
            ],
            [
                0.5582447805024007,
                0.9724471595096138
            ],
            [
                0.5568582986999744,
                0.9252976988008293
            ]
        ],
        [
            [
                0.5526988532926952,
                0.7838493166744813
            ],
            [
                0.5513123714902689,
                0.7366998559656983
            ],
            [
                0.5518323021661787,
                0.720367036243048
            ]
        ],
        [
            [
                0.5533920941939082,
                0.6713685770750973
            ],
            [
                0.5539120248698183,
                0.6550357573524472
            ],
            [
                0.5492326487866294,
                0.6309987773832639
            ]
        ],
        [
            [
                0.535194520537063,
                0.5588878374757138
            ],
            [
                0.5305151444538742,
                0.53485085750653
            ],
            [
                0.519076669583857,
                0.5228323675219384
            ]
        ],
        [
            [
                0.48476124497380507,
                0.4867768975681636
            ],
            [
                0.4733227701037877,
                0.4747584075835721
            ],
            [
                0.49377337668957627,
                0.4470234306960536
            ]
        ],
        [
            [
                0.5551251964469414,
                0.3638185000334957
            ],
            [
                0.5755758030327303,
                0.3360835231459765
            ],
            [
                0.582508212044862,
                0.2938647249949748
            ]
        ],
        [
            [
                0.6033054390812571,
                0.16720833054197046
            ],
            [
                0.6102378480933888,
                0.1249895323909688
            ],
            [
                0.6376208636913082,
                0.08431156628927378
            ]
        ],
        [
            [
                0.6713297025127998,
                -0.06838488979701243
            ],
            [
                0.7471529260829894,
                -0.07840029811750585
            ],
            [
                0.8238427007796976,
                -0.08071154619146544
            ]
        ],
        [
            [
                0.838920690381084,
                0.09987396998727105
            ],
            [
                0.8671702571055208,
                0.1380866048100754
            ],
            [
                0.879128662651448,
                0.17352574194412784
            ]
        ],
        [
            [
                0.8777421808490217,
                0.21975070342332637
            ],
            [
                0.8897005863949488,
                0.25518984055737903
            ],
            [
                0.925922423483337,
                0.2462530146714004
            ]
        ],
        [
            [
                1.0909137579720714,
                0.10388013331546812
            ],
            [
                1.12713559506046,
                0.09494330742948986
            ],
            [
                1.1229761496531814,
                0.13592943994104617
            ]
        ],
        [
            [
                1.1174302224434771,
                0.4514918436390428
            ],
            [
                1.1132707770361974,
                0.49247797615059913
            ],
            [
                1.0895272761696475,
                0.5236027835465923
            ]
        ],
        [
            [
                1.0135307423741506,
                0.5746043243786411
            ],
            [
                0.9897872415075996,
                0.605729131774635
            ],
            [
                0.9757491132580328,
                0.6365457727607675
            ]
        ],
        [
            [
                0.9336347285093326,
                0.7289956957191654
            ],
            [
                0.9195966002597659,
                0.7598123367052981
            ],
            [
                0.9164770162043065,
                0.8165149561197812
            ]
        ],
        [
            [
                0.9071182640379287,
                0.9866228143632346
            ],
            [
                0.9039986799824695,
                1.0433254337777182
            ],
            [
                0.8383141045925215,
                1.0497969283848059
            ]
        ]
    ],
    "627": [
        [
            [
                0.6320930751377265,
                1.063776629597373
            ],
            [
                0.5664084997477794,
                1.0702481242044621
            ],
            [
                0.5629422952417136,
                1.0496009747437536
            ]
        ],
        [
            [
                0.5525436817235161,
                0.9876595263616267
            ],
            [
                0.54907747721745,
                0.967012376900918
            ],
            [
                0.5476909954150238,
                0.919862916192134
            ]
        ],
        [
            [
                0.5435315500077447,
                0.778414534065786
            ],
            [
                0.5421450682053184,
                0.731265073357003
            ],
            [
                0.5426649988812281,
                0.7149322536343525
            ]
        ],
        [
            [
                0.5442247909089577,
                0.6659337944664022
            ],
            [
                0.5447447215848679,
                0.649600974743752
            ],
            [
                0.5400653455016792,
                0.625563994774568
            ]
        ],
        [
            [
                0.5260272172521124,
                0.5534530548670185
            ],
            [
                0.5213478411689235,
                0.5294160748978346
            ],
            [
                0.5099093662989064,
                0.5173975849132434
            ]
        ],
        [
            [
                0.47559394168885444,
                0.4813421149594683
            ],
            [
                0.46415546681883707,
                0.4693236249748767
            ],
            [
                0.48460607340462564,
                0.4415886480873583
            ]
        ],
        [
            [
                0.5459578931619908,
                0.35838371742480046
            ],
            [
                0.5664084997477794,
                0.3306487405372813
            ],
            [
                0.5733409087599113,
                0.28842994238627984
            ]
        ],
        [
            [
                0.5941381357963063,
                0.16177354793327525
            ],
            [
                0.6010705448084378,
                0.11955474978227369
            ],
            [
                0.6284535604063571,
                0.07887678368057861
            ]
        ],
        [
            [
                0.6621623992278488,
                -0.07381967240570765
            ],
            [
                0.7379856227980385,
                -0.08383508072620104
            ],
            [
                0.8146753974947465,
                -0.08614632880016064
            ]
        ],
        [
            [
                0.8285009318679412,
                0.030969233603537365
            ],
            [
                0.856750498592378,
                0.06918186842634165
            ],
            [
                0.8687089041383051,
                0.10462100556039414
            ]
        ],
        [
            [
                0.8685748775640706,
                0.21431592081463124
            ],
            [
                0.8805332831099978,
                0.2497550579486838
            ],
            [
                0.916755120198386,
                0.2408182320627051
            ]
        ],
        [
            [
                1.08174645468712,
                0.09844535070677292
            ],
            [
                1.11796829177551,
                0.08950852482079469
            ],
            [
                1.1138088463682307,
                0.13049465733235094
            ]
        ],
        [
            [
                1.1082629191585265,
                0.4460570610303475
            ],
            [
                1.1041034737512467,
                0.48704319354190384
            ],
            [
                1.0803599728846962,
                0.5181680009378969
            ]
        ],
        [
            [
                1.0043634390891996,
                0.5691695417699456
            ],
            [
                0.9806199382226486,
                0.6002943491659399
            ],
            [
                0.9665818099730819,
                0.6311109901520721
            ]
        ],
        [
            [
                0.9244674252243816,
                0.7235609131104701
            ],
            [
                0.9104292969748149,
                0.7543775540966022
            ],
            [
                0.9073097129193556,
                0.811080173511086
            ]
        ],
        [
            [
                0.8979509607529778,
                0.9811880317545387
            ],
            [
                0.8948313766975186,
                1.0378906511690227
            ],
            [
                0.8291468013075706,
                1.0443621457761103
            ]
        ]
    ],
    "731": [
        [
            [
                0.5709777199047238,
                1.0664940209017204
            ],
            [
                0.505293144514777,
                1.0729655155088096
            ],
            [
                0.5018269400087111,
                1.0523183660481013
            ]
        ],
        [
            [
                0.4914283264905137,
                0.990376917665974
            ],
            [
                0.48796212198444755,
                0.9697297682052652
            ],
            [
                0.4865756401820215,
                0.9225803074964828
            ]
        ],
        [
            [
                0.48241619477474257,
                0.7811319253701344
            ],
            [
                0.4810297129723163,
                0.7339824646613519
            ],
            [
                0.4815496436482258,
                0.7176496449387011
            ]
        ],
        [
            [
                0.4831094356759556,
                0.6686511857707503
            ],
            [
                0.4836293663518651,
                0.6523183660481002
            ],
            [
                0.47894999026867624,
                0.6282813860789169
            ]
        ],
        [
            [
                0.4649118620191095,
                0.5561704461713672
            ],
            [
                0.4602324859359206,
                0.5321334662021836
            ],
            [
                0.4487940110659037,
                0.5201149762175923
            ]
        ],
        [
            [
                0.4144785864558516,
                0.4840595062638169
            ],
            [
                0.40304011158583425,
                0.4720410162792251
            ],
            [
                0.4234907181716228,
                0.4443060393917058
            ]
        ],
        [
            [
                0.4848425379289881,
                0.36110110872914786
            ],
            [
                0.505293144514777,
                0.3333661318416289
            ],
            [
                0.5122255535269085,
                0.2911473336906271
            ]
        ],
        [
            [
                0.5330227805633034,
                0.16449093923762295
            ],
            [
                0.539955189575435,
                0.12227214108662145
            ],
            [
                0.5673382051733545,
                0.08159417498492652
            ]
        ],
        [
            [
                0.6010470439948461,
                -0.07110228110135966
            ],
            [
                0.6768702675650358,
                -0.08111768942185311
            ],
            [
                0.753560042261744,
                -0.08342893749581264
            ]
        ],
        [
            [
                0.7669049296100975,
                0.009329151872446158
            ],
            [
                0.7951544963345342,
                0.04754178669525044
            ],
            [
                0.8071129018804615,
                0.0829809238293029
            ]
        ],
        [
            [
                0.8074595223310681,
                0.21703331211897894
            ],
            [
                0.8194179278769951,
                0.2524724492530312
            ],
            [
                0.8556397649653834,
                0.24353562336705276
            ]
        ],
        [
            [
                1.0206310994541175,
                0.10116274201112088
            ],
            [
                1.0568529365425077,
                0.09222591612514261
            ],
            [
                1.052693491135229,
                0.13321204863669875
            ]
        ],
        [
            [
                1.047147563925525,
                0.44877445233469515
            ],
            [
                1.0429881185182444,
                0.48976058484625246
            ],
            [
                1.0192446176516936,
                0.5208853922422457
            ]
        ],
        [
            [
                0.943248083856197,
                0.5718869330742942
            ],
            [
                0.919504582989646,
                0.603011740470288
            ],
            [
                0.9054664547400793,
                0.6338283814564198
            ]
        ],
        [
            [
                0.863352069991379,
                0.726278304414819
            ],
            [
                0.8493139417418123,
                0.7570949454009511
            ],
            [
                0.846194357686353,
                0.8137975648154347
            ]
        ],
        [
            [
                0.8368356055199752,
                0.9839054230588861
            ],
            [
                0.833716021464516,
                1.04060804247337
            ],
            [
                0.768031446074568,
                1.047079537080458
            ]
        ]
    ],
    "759": [
        [
            [
                0.5534070552752365,
                1.0230157600321554
            ],
            [
                0.48772247988528966,
                1.0294872546392446
            ],
            [
                0.48425627537922394,
                1.0088401051785356
            ]
        ],
        [
            [
                0.47385766186102596,
                0.9468986567964086
            ],
            [
                0.47039145735495996,
                0.9262515073357
            ],
            [
                0.46900497555253434,
                0.8791020466269177
            ]
        ],
        [
            [
                0.4648455301452549,
                0.7376536645005695
            ],
            [
                0.4634590483428285,
                0.6905042037917865
            ],
            [
                0.4639789790187386,
                0.674171384069136
            ]
        ],
        [
            [
                0.4655387710464678,
                0.6251729249011856
            ],
            [
                0.4660587017223779,
                0.6088401051785354
            ],
            [
                0.461379325639189,
                0.5848031252093515
            ]
        ],
        [
            [
                0.44734119738962247,
                0.5126921853018019
            ],
            [
                0.44266182130643356,
                0.4886552053326182
            ],
            [
                0.43122334643641624,
                0.4766367153480266
            ]
        ],
        [
            [
                0.3969079218263642,
                0.44058124539425153
            ],
            [
                0.3854694469563469,
                0.4285627554096599
            ],
            [
                0.4059200535421354,
                0.40082777852214074
            ]
        ],
        [
            [
                0.467271873299501,
                0.3176228478595827
            ],
            [
                0.48772247988528966,
                0.28988787097206364
            ],
            [
                0.49465488889742126,
                0.24766907282106185
            ]
        ],
        [
            [
                0.5154521159338163,
                0.12101267836805756
            ],
            [
                0.522384524945948,
                0.07879388021705608
            ],
            [
                0.5497675405438671,
                0.038115914115361145
            ]
        ],
        [
            [
                0.5834763793653587,
                -0.11458054197092507
            ],
            [
                0.6592996029355483,
                -0.12459595029141853
            ],
            [
                0.7359893776322565,
                -0.12690719836537814
            ]
        ],
        [
            [
                0.74933426498061,
                -0.0341491089971192
            ],
            [
                0.7775838317050467,
                0.004063525825685065
            ],
            [
                0.7895422372509739,
                0.039502662959737526
            ]
        ],
        [
            [
                0.7898888577015806,
                0.1735550512494136
            ],
            [
                0.8018472632475078,
                0.2089941883834661
            ],
            [
                0.8380691003358959,
                0.2000573624974875
            ]
        ],
        [
            [
                1.0030604348246301,
                0.05768448114155547
            ],
            [
                1.039282271913019,
                0.04874765525557723
            ],
            [
                1.0351228265057424,
                0.08973378776713344
            ]
        ],
        [
            [
                1.029576899296038,
                0.40529619146513
            ],
            [
                1.0254174538887577,
                0.446282323976687
            ],
            [
                1.0016739530222063,
                0.4774071313726809
            ]
        ],
        [
            [
                0.9256774192267095,
                0.5284086722047291
            ],
            [
                0.9019339183601586,
                0.5595334796007233
            ],
            [
                0.8878957901105918,
                0.5903501205868557
            ]
        ],
        [
            [
                0.8457814053618916,
                0.6828000435452536
            ],
            [
                0.8317432771123249,
                0.7136166845313857
            ],
            [
                0.8286236930568656,
                0.7703193039458693
            ]
        ],
        [
            [
                0.8178636635054211,
                0.9731886849333435
            ],
            [
                0.8147440794499619,
                1.0298913043478262
            ],
            [
                0.7490595040600139,
                1.0363627989549147
            ]
        ]
    ]
}
</property>
    <property name="kdenlive:collapsed">0</property>
    <property name="disable">0</property>
   </filter>
   <filter id="filter238" in="00:00:04.467" out="00:00:05.567">
    <property name="start">0</property>
    <property name="mlt_service">brightness</property>
    <property name="kdenlive_id">fade_from_black</property>
    <property name="end">1</property>
    <property name="alpha">-1</property>
    <property name="kdenlive:collapsed">0</property>
   </filter>
   <filter id="filter239">
    <property name="mlt_service">greyscale</property>
    <property name="kdenlive_id">greyscale</property>
    <property name="kdenlive:collapsed">0</property>
   </filter>
   <filter id="filter240">
    <property name="version">0.2</property>
    <property name="mlt_service">frei0r.contrast0r</property>
    <property name="kdenlive_id">frei0r.contrast0r</property>
    <property name="Contrast">00:00:04.467=0.635318;00:00:06.400=0.5</property>
    <property name="kdenlive:collapsed">0</property>
   </filter>
  </entry>
  <entry producer="producer31" in="00:00:25.333" out="00:02:02.467">
   <property name="kdenlive:id">7</property>
   <filter id="filter241">
    <property name="rotate_center">1</property>
    <property name="mlt_service">qtblend</property>
    <property name="kdenlive_id">qtblend</property>
    <property name="rect">00:00:25.333=270 0 1920 1080 1.000000</property>
    <property name="rotation">00:00:25.333=-5</property>
    <property name="compositing">0</property>
    <property name="distort">0</property>
    <property name="kdenlive:collapsed">0</property>
   </filter>
   <filter id="filter242">
    <property name="mode">alpha</property>
    <property name="alpha_operation">sub</property>
    <property name="invert">1</property>
    <property name="feather">60</property>
    <property name="feather_passes">2</property>
    <property name="mlt_service">rotoscoping</property>
    <property name="kdenlive_id">rotoscoping</property>
    <property name="spline">{
    "0760": [
        [
            [
                0.5479202772963595,
                1.0767334360554695
            ],
            [
                0.4822357019064124,
                1.0832049306625582
            ],
            [
                0.4787694974003466,
                1.0625577812018492
            ]
        ],
        [
            [
                0.468370883882149,
                1.0006163328197226
            ],
            [
                0.46490467937608315,
                0.979969183359014
            ],
            [
                0.4635181975736568,
                0.9328197226502302
            ]
        ],
        [
            [
                0.4593587521663778,
                0.7913713405238821
            ],
            [
                0.45797227036395144,
                0.7442218798150992
            ],
            [
                0.45849220103986127,
                0.7278890600924487
            ]
        ],
        [
            [
                0.4600519930675909,
                0.6788906009244983
            ],
            [
                0.4605719237435008,
                0.662557781201848
            ],
            [
                0.4558925476603119,
                0.6385208012326645
            ]
        ],
        [
            [
                0.4418544194107452,
                0.5664098613251147
            ],
            [
                0.4371750433275563,
                0.5423728813559309
            ],
            [
                0.425736568457539,
                0.5303543913713394
            ]
        ],
        [
            [
                0.39142114384748694,
                0.4942989214175645
            ],
            [
                0.37998266897746963,
                0.48228043143297294
            ],
            [
                0.40043327556325814,
                0.4545454545454542
            ]
        ],
        [
            [
                0.4617850953206239,
                0.3713405238828963
            ],
            [
                0.4822357019064124,
                0.3436055469953771
            ],
            [
                0.4891681109185441,
                0.3013867488443755
            ]
        ],
        [
            [
                0.5099653379549391,
                0.174730354391371
            ],
            [
                0.5168977469670707,
                0.13251155624036948
            ],
            [
                0.5442807625649901,
                0.09183359013867451
            ]
        ],
        [
            [
                0.5779896013864818,
                -0.0608628659476117
            ],
            [
                0.6538128249566715,
                -0.07087827426810511
            ],
            [
                0.7305025996533795,
                -0.0731895223420647
            ]
        ],
        [
            [
                0.7438474870017331,
                0.019568567026194163
            ],
            [
                0.7720970537261699,
                0.05778120184899845
            ],
            [
                0.784055459272097,
                0.09322033898305088
            ]
        ],
        [
            [
                0.7834713396238526,
                0.22892769502938973
            ],
            [
                0.7954297451697798,
                0.2643668321634423
            ],
            [
                0.8316515822581679,
                0.2554300062774637
            ]
        ],
        [
            [
                0.9975736568457528,
                0.11140215716486884
            ],
            [
                1.033795493934142,
                0.1024653312788906
            ],
            [
                1.0296360485268634,
                0.14345146379044685
            ]
        ],
        [
            [
                1.0282784517619887,
                0.43584431889516606
            ],
            [
                1.0241190063547083,
                0.47683045140672253
            ],
            [
                1.0003755054881585,
                0.5079552588027159
            ]
        ],
        [
            [
                0.9196089286860509,
                0.5633010899960041
            ],
            [
                0.8958654278194998,
                0.5944258973919984
            ],
            [
                0.8818272995699331,
                0.6252425383781307
            ]
        ],
        [
            [
                0.8436685602413497,
                0.7429307196256344
            ],
            [
                0.829630431991783,
                0.7737473606117669
            ],
            [
                0.8265108479363238,
                0.8304499800262501
            ]
        ],
        [
            [
                0.8137781629116108,
                0.9941448382126348
            ],
            [
                0.8106585788561514,
                1.0508474576271183
            ],
            [
                0.7449740034662036,
                1.0573189522342064
            ]
        ]
    ],
    "0839": [
        [
            [
                0.5479202772963595,
                1.0767334360554695
            ],
            [
                0.4822357019064124,
                1.0832049306625582
            ],
            [
                0.4787694974003466,
                1.0625577812018492
            ]
        ],
        [
            [
                0.468370883882149,
                1.0006163328197226
            ],
            [
                0.46490467937608315,
                0.979969183359014
            ],
            [
                0.4635181975736568,
                0.9328197226502302
            ]
        ],
        [
            [
                0.4593587521663778,
                0.7913713405238821
            ],
            [
                0.45797227036395144,
                0.7442218798150992
            ],
            [
                0.45849220103986127,
                0.7278890600924487
            ]
        ],
        [
            [
                0.4600519930675909,
                0.6788906009244983
            ],
            [
                0.4605719237435008,
                0.662557781201848
            ],
            [
                0.4558925476603119,
                0.6385208012326645
            ]
        ],
        [
            [
                0.4418544194107452,
                0.5664098613251147
            ],
            [
                0.4371750433275563,
                0.5423728813559309
            ],
            [
                0.425736568457539,
                0.5303543913713394
            ]
        ],
        [
            [
                0.39142114384748694,
                0.4942989214175645
            ],
            [
                0.37998266897746963,
                0.48228043143297294
            ],
            [
                0.40043327556325814,
                0.4545454545454542
            ]
        ],
        [
            [
                0.4617850953206239,
                0.3713405238828963
            ],
            [
                0.4822357019064124,
                0.3436055469953771
            ],
            [
                0.4891681109185441,
                0.3013867488443755
            ]
        ],
        [
            [
                0.5099653379549391,
                0.174730354391371
            ],
            [
                0.5168977469670707,
                0.13251155624036948
            ],
            [
                0.5442807625649901,
                0.09183359013867451
            ]
        ],
        [
            [
                0.5779896013864818,
                -0.0608628659476117
            ],
            [
                0.6538128249566715,
                -0.07087827426810511
            ],
            [
                0.7305025996533795,
                -0.0731895223420647
            ]
        ],
        [
            [
                0.7438474870017331,
                0.019568567026194163
            ],
            [
                0.7720970537261699,
                0.05778120184899845
            ],
            [
                0.784055459272097,
                0.09322033898305088
            ]
        ],
        [
            [
                0.7809358752166378,
                0.23343605546995355
            ],
            [
                0.792894280762565,
                0.26887519260400616
            ],
            [
                0.8291161178509531,
                0.2599383667180275
            ]
        ],
        [
            [
                0.9975736568457528,
                0.11140215716486884
            ],
            [
                1.033795493934142,
                0.1024653312788906
            ],
            [
                1.0296360485268634,
                0.14345146379044685
            ]
        ],
        [
            [
                1.0396880415944556,
                0.37272727272727235
            ],
            [
                1.035528596187175,
                0.41371340523882894
            ],
            [
                1.011785095320625,
                0.4448382126348221
            ]
        ],
        [
            [
                0.9180242634315423,
                0.5120184899845912
            ],
            [
                0.8942807625649912,
                0.5431432973805855
            ],
            [
                0.8802426343154245,
                0.5739599383667179
            ]
        ],
        [
            [
                0.8528596187175043,
                0.7604006163328197
            ],
            [
                0.8388214904679375,
                0.7912172573189522
            ],
            [
                0.8357019064124782,
                0.8479198767334355
            ]
        ],
        [
            [
                0.8137781629116108,
                0.9941448382126348
            ],
            [
                0.8106585788561514,
                1.0508474576271183
            ],
            [
                0.7449740034662036,
                1.0573189522342064
            ]
        ]
    ],
    "0883": [
        [
            [
                0.5479202772963595,
                1.0767334360554695
            ],
            [
                0.4822357019064124,
                1.0832049306625582
            ],
            [
                0.4787694974003466,
                1.0625577812018492
            ]
        ],
        [
            [
                0.468370883882149,
                1.0006163328197226
            ],
            [
                0.46490467937608315,
                0.979969183359014
            ],
            [
                0.4635181975736568,
                0.9328197226502302
            ]
        ],
        [
            [
                0.4593587521663778,
                0.7913713405238821
            ],
            [
                0.45797227036395144,
                0.7442218798150992
            ],
            [
                0.45849220103986127,
                0.7278890600924487
            ]
        ],
        [
            [
                0.4600519930675909,
                0.6788906009244983
            ],
            [
                0.4605719237435008,
                0.662557781201848
            ],
            [
                0.4558925476603119,
                0.6385208012326645
            ]
        ],
        [
            [
                0.4418544194107452,
                0.5664098613251147
            ],
            [
                0.4371750433275563,
                0.5423728813559309
            ],
            [
                0.425736568457539,
                0.5303543913713394
            ]
        ],
        [
            [
                0.39142114384748694,
                0.4942989214175645
            ],
            [
                0.37998266897746963,
                0.48228043143297294
            ],
            [
                0.40043327556325814,
                0.4545454545454542
            ]
        ],
        [
            [
                0.4617850953206239,
                0.3713405238828963
            ],
            [
                0.4822357019064124,
                0.3436055469953771
            ],
            [
                0.4891681109185441,
                0.3013867488443755
            ]
        ],
        [
            [
                0.5159199919429628,
                0.17628984058171043
            ],
            [
                0.5228524009550942,
                0.1340710424307089
            ],
            [
                0.5502354165530138,
                0.09339307632901395
            ]
        ],
        [
            [
                0.582282491470871,
                -0.05897506687509556
            ],
            [
                0.6581057150410606,
                -0.06899047519558897
            ],
            [
                0.7347954897377688,
                -0.07130172326954856
            ]
        ],
        [
            [
                0.7468940541583963,
                0.01924025414401745
            ],
            [
                0.7751436208828331,
                0.057452888966821734
            ],
            [
                0.7871020264287603,
                0.09289202610087416
            ]
        ],
        [
            [
                0.7853672456263296,
                0.23458515055757206
            ],
            [
                0.7973256511722568,
                0.2700242876916247
            ],
            [
                0.8335474882606451,
                0.261087461805646
            ]
        ],
        [
            [
                0.9975736568457528,
                0.11140215716486884
            ],
            [
                1.033795493934142,
                0.1024653312788906
            ],
            [
                1.0296360485268634,
                0.14345146379044685
            ]
        ],
        [
            [
                1.0396880415944556,
                0.37272727272727235
            ],
            [
                1.035528596187175,
                0.41371340523882894
            ],
            [
                1.011785095320625,
                0.4448382126348221
            ]
        ],
        [
            [
                0.9180242634315423,
                0.5120184899845912
            ],
            [
                0.8942807625649912,
                0.5431432973805855
            ],
            [
                0.8802426343154245,
                0.5739599383667179
            ]
        ],
        [
            [
                0.8528596187175043,
                0.7604006163328197
            ],
            [
                0.8388214904679375,
                0.7912172573189522
            ],
            [
                0.8357019064124782,
                0.8479198767334355
            ]
        ],
        [
            [
                0.8167841803287512,
                1.0289327397015382
            ],
            [
                0.8136645962732919,
                1.0856353591160222
            ],
            [
                0.7479800208833439,
                1.0921068537231098
            ]
        ]
    ],
    "1252": [
        [
            [
                0.5479202772963595,
                1.0767334360554695
            ],
            [
                0.4822357019064124,
                1.0832049306625582
            ],
            [
                0.4787694974003466,
                1.0625577812018492
            ]
        ],
        [
            [
                0.468370883882149,
                1.0006163328197226
            ],
            [
                0.46490467937608315,
                0.979969183359014
            ],
            [
                0.4635181975736568,
                0.9328197226502302
            ]
        ],
        [
            [
                0.4593587521663778,
                0.7913713405238821
            ],
            [
                0.45797227036395144,
                0.7442218798150992
            ],
            [
                0.45849220103986127,
                0.7278890600924487
            ]
        ],
        [
            [
                0.4600519930675909,
                0.6788906009244983
            ],
            [
                0.4605719237435008,
                0.662557781201848
            ],
            [
                0.4558925476603119,
                0.6385208012326645
            ]
        ],
        [
            [
                0.4418544194107452,
                0.5664098613251147
            ],
            [
                0.4371750433275563,
                0.5423728813559309
            ],
            [
                0.425736568457539,
                0.5303543913713394
            ]
        ],
        [
            [
                0.39142114384748694,
                0.4942989214175645
            ],
            [
                0.37998266897746963,
                0.48228043143297294
            ],
            [
                0.40043327556325814,
                0.4545454545454542
            ]
        ],
        [
            [
                0.4617850953206239,
                0.3713405238828963
            ],
            [
                0.4822357019064124,
                0.3436055469953771
            ],
            [
                0.4891681109185441,
                0.3013867488443755
            ]
        ],
        [
            [
                0.5658578856152514,
                0.18936825885978426
            ],
            [
                0.572790294627383,
                0.14714946070878274
            ],
            [
                0.6001733102253025,
                0.10647149460708778
            ]
        ],
        [
            [
                0.6182842287694984,
                -0.04314329738058518
            ],
            [
                0.6941074523396881,
                -0.05315870570107858
            ],
            [
                0.7707972270363962,
                -0.05546995377503816
            ]
        ],
        [
            [
                0.7724436741767763,
                0.01648690292758092
            ],
            [
                0.8006932409012131,
                0.054699537750385205
            ],
            [
                0.8126516464471403,
                0.09013867488443762
            ]
        ],
        [
            [
                0.822530329289428,
                0.24422187981509988
            ],
            [
                0.8344887348353552,
                0.2796610169491525
            ],
            [
                0.8707105719237433,
                0.2707241910631738
            ]
        ],
        [
            [
                0.9975736568457528,
                0.11140215716486884
            ],
            [
                1.033795493934142,
                0.1024653312788906
            ],
            [
                1.0296360485268634,
                0.14345146379044685
            ]
        ],
        [
            [
                1.0396880415944556,
                0.37272727272727235
            ],
            [
                1.035528596187175,
                0.41371340523882894
            ],
            [
                1.011785095320625,
                0.4448382126348221
            ]
        ],
        [
            [
                0.9180242634315423,
                0.5120184899845912
            ],
            [
                0.8942807625649912,
                0.5431432973805855
            ],
            [
                0.8802426343154245,
                0.5739599383667179
            ]
        ],
        [
            [
                0.8528596187175043,
                0.7604006163328197
            ],
            [
                0.8388214904679375,
                0.7912172573189522
            ],
            [
                0.8357019064124782,
                0.8479198767334355
            ]
        ],
        [
            [
                0.8137781629116108,
                0.9941448382126348
            ],
            [
                0.8106585788561514,
                1.0508474576271183
            ],
            [
                0.7449740034662036,
                1.0573189522342064
            ]
        ]
    ],
    "1468": [
        [
            [
                0.5479202772963595,
                1.0767334360554695
            ],
            [
                0.4822357019064124,
                1.0832049306625582
            ],
            [
                0.4787694974003466,
                1.0625577812018492
            ]
        ],
        [
            [
                0.468370883882149,
                1.0006163328197226
            ],
            [
                0.46490467937608315,
                0.979969183359014
            ],
            [
                0.4635181975736568,
                0.9328197226502302
            ]
        ],
        [
            [
                0.4593587521663778,
                0.7913713405238821
            ],
            [
                0.45797227036395144,
                0.7442218798150992
            ],
            [
                0.45849220103986127,
                0.7278890600924487
            ]
        ],
        [
            [
                0.4600519930675909,
                0.6788906009244983
            ],
            [
                0.4605719237435008,
                0.662557781201848
            ],
            [
                0.4558925476603119,
                0.6385208012326645
            ]
        ],
        [
            [
                0.4418544194107452,
                0.5664098613251147
            ],
            [
                0.4371750433275563,
                0.5423728813559309
            ],
            [
                0.425736568457539,
                0.5303543913713394
            ]
        ],
        [
            [
                0.39142114384748694,
                0.4942989214175645
            ],
            [
                0.37998266897746963,
                0.48228043143297294
            ],
            [
                0.40043327556325814,
                0.4545454545454542
            ]
        ],
        [
            [
                0.4617850953206239,
                0.3713405238828963
            ],
            [
                0.4822357019064124,
                0.3436055469953771
            ],
            [
                0.4891681109185441,
                0.3013867488443755
            ]
        ],
        [
            [
                0.5658578856152514,
                0.18936825885978426
            ],
            [
                0.572790294627383,
                0.14714946070878274
            ],
            [
                0.6001733102253025,
                0.10647149460708778
            ]
        ],
        [
            [
                0.6182842287694984,
                -0.04314329738058518
            ],
            [
                0.6941074523396881,
                -0.05315870570107858
            ],
            [
                0.7707972270363962,
                -0.05546995377503816
            ]
        ],
        [
            [
                0.7724436741767763,
                0.01648690292758092
            ],
            [
                0.8006932409012131,
                0.054699537750385205
            ],
            [
                0.8126516464471403,
                0.09013867488443762
            ]
        ],
        [
            [
                0.8216637781629116,
                0.21186440677966073
            ],
            [
                0.8336221837088388,
                0.2473035439137134
            ],
            [
                0.869844020797227,
                0.23836671802773465
            ]
        ],
        [
            [
                0.9975736568457528,
                0.11140215716486884
            ],
            [
                1.033795493934142,
                0.1024653312788906
            ],
            [
                1.0296360485268634,
                0.14345146379044685
            ]
        ],
        [
            [
                1.0396880415944556,
                0.37272727272727235
            ],
            [
                1.035528596187175,
                0.41371340523882894
            ],
            [
                1.011785095320625,
                0.4448382126348221
            ]
        ],
        [
            [
                0.9180242634315423,
                0.5120184899845912
            ],
            [
                0.8942807625649912,
                0.5431432973805855
            ],
            [
                0.8802426343154245,
                0.5739599383667179
            ]
        ],
        [
            [
                0.8528596187175043,
                0.7604006163328197
            ],
            [
                0.8388214904679375,
                0.7912172573189522
            ],
            [
                0.8357019064124782,
                0.8479198767334355
            ]
        ],
        [
            [
                0.8137781629116108,
                0.9941448382126348
            ],
            [
                0.8106585788561514,
                1.0508474576271183
            ],
            [
                0.7449740034662036,
                1.0573189522342064
            ]
        ]
    ],
    "1912": [
        [
            [
                0.5479202772963595,
                1.0767334360554695
            ],
            [
                0.4822357019064124,
                1.0832049306625582
            ],
            [
                0.4787694974003466,
                1.0625577812018492
            ]
        ],
        [
            [
                0.468370883882149,
                1.0006163328197226
            ],
            [
                0.46490467937608315,
                0.979969183359014
            ],
            [
                0.4635181975736568,
                0.9328197226502302
            ]
        ],
        [
            [
                0.4593587521663778,
                0.7913713405238821
            ],
            [
                0.45797227036395144,
                0.7442218798150992
            ],
            [
                0.45849220103986127,
                0.7278890600924487
            ]
        ],
        [
            [
                0.4600519930675909,
                0.6788906009244983
            ],
            [
                0.4605719237435008,
                0.662557781201848
            ],
            [
                0.4558925476603119,
                0.6385208012326645
            ]
        ],
        [
            [
                0.4418544194107452,
                0.5664098613251147
            ],
            [
                0.4371750433275563,
                0.5423728813559309
            ],
            [
                0.425736568457539,
                0.5303543913713394
            ]
        ],
        [
            [
                0.39142114384748694,
                0.4942989214175645
            ],
            [
                0.37998266897746963,
                0.48228043143297294
            ],
            [
                0.40043327556325814,
                0.4545454545454542
            ]
        ],
        [
            [
                0.4617850953206239,
                0.3713405238828963
            ],
            [
                0.4822357019064124,
                0.3436055469953771
            ],
            [
                0.4891681109185441,
                0.3013867488443755
            ]
        ],
        [
            [
                0.5658578856152514,
                0.18936825885978426
            ],
            [
                0.572790294627383,
                0.14714946070878274
            ],
            [
                0.6001733102253025,
                0.10647149460708778
            ]
        ],
        [
            [
                0.6182842287694984,
                -0.04314329738058518
            ],
            [
                0.6941074523396881,
                -0.05315870570107858
            ],
            [
                0.7707972270363962,
                -0.05546995377503816
            ]
        ],
        [
            [
                0.7724436741767763,
                0.01648690292758092
            ],
            [
                0.8006932409012131,
                0.054699537750385205
            ],
            [
                0.8126516464471403,
                0.09013867488443762
            ]
        ],
        [
            [
                0.8216637781629116,
                0.21186440677966073
            ],
            [
                0.8336221837088388,
                0.2473035439137134
            ],
            [
                0.869844020797227,
                0.23836671802773465
            ]
        ],
        [
            [
                0.9975736568457528,
                0.11140215716486884
            ],
            [
                1.033795493934142,
                0.1024653312788906
            ],
            [
                1.0296360485268634,
                0.14345146379044685
            ]
        ],
        [
            [
                1.0396880415944556,
                0.37272727272727235
            ],
            [
                1.035528596187175,
                0.41371340523882894
            ],
            [
                1.011785095320625,
                0.4448382126348221
            ]
        ],
        [
            [
                0.9180242634315423,
                0.5120184899845912
            ],
            [
                0.8942807625649912,
                0.5431432973805855
            ],
            [
                0.8802426343154245,
                0.5739599383667179
            ]
        ],
        [
            [
                0.8528596187175043,
                0.7604006163328197
            ],
            [
                0.8388214904679375,
                0.7912172573189522
            ],
            [
                0.8357019064124782,
                0.8479198767334355
            ]
        ],
        [
            [
                0.8137781629116108,
                0.9941448382126348
            ],
            [
                0.8106585788561514,
                1.0508474576271183
            ],
            [
                0.7449740034662036,
                1.0573189522342064
            ]
        ]
    ],
    "1953": [
        [
            [
                0.5479202772963595,
                1.0767334360554695
            ],
            [
                0.4822357019064124,
                1.0832049306625582
            ],
            [
                0.4787694974003466,
                1.0625577812018492
            ]
        ],
        [
            [
                0.468370883882149,
                1.0006163328197226
            ],
            [
                0.46490467937608315,
                0.979969183359014
            ],
            [
                0.4635181975736568,
                0.9328197226502302
            ]
        ],
        [
            [
                0.4593587521663778,
                0.7913713405238821
            ],
            [
                0.45797227036395144,
                0.7442218798150992
            ],
            [
                0.45849220103986127,
                0.7278890600924487
            ]
        ],
        [
            [
                0.4600519930675909,
                0.6788906009244983
            ],
            [
                0.4605719237435008,
                0.662557781201848
            ],
            [
                0.4558925476603119,
                0.6385208012326645
            ]
        ],
        [
            [
                0.4418544194107452,
                0.5664098613251147
            ],
            [
                0.4371750433275563,
                0.5423728813559309
            ],
            [
                0.425736568457539,
                0.5303543913713394
            ]
        ],
        [
            [
                0.39142114384748694,
                0.4942989214175645
            ],
            [
                0.37998266897746963,
                0.48228043143297294
            ],
            [
                0.40043327556325814,
                0.4545454545454542
            ]
        ],
        [
            [
                0.4617850953206239,
                0.3713405238828963
            ],
            [
                0.4822357019064124,
                0.3436055469953771
            ],
            [
                0.4891681109185441,
                0.3013867488443755
            ]
        ],
        [
            [
                0.5658578856152514,
                0.18936825885978426
            ],
            [
                0.572790294627383,
                0.14714946070878274
            ],
            [
                0.6001733102253025,
                0.10647149460708778
            ]
        ],
        [
            [
                0.6182842287694984,
                -0.04314329738058518
            ],
            [
                0.6941074523396881,
                -0.05315870570107858
            ],
            [
                0.7707972270363962,
                -0.05546995377503816
            ]
        ],
        [
            [
                0.7724436741767763,
                0.01648690292758092
            ],
            [
                0.8006932409012131,
                0.054699537750385205
            ],
            [
                0.8126516464471403,
                0.09013867488443762
            ]
        ],
        [
            [
                0.8216637781629116,
                0.21186440677966073
            ],
            [
                0.8336221837088388,
                0.2473035439137134
            ],
            [
                0.869844020797227,
                0.23836671802773465
            ]
        ],
        [
            [
                0.9975736568457528,
                0.11140215716486884
            ],
            [
                1.033795493934142,
                0.1024653312788906
            ],
            [
                1.0296360485268634,
                0.14345146379044685
            ]
        ],
        [
            [
                1.0396880415944556,
                0.477503852080123
            ],
            [
                1.035528596187175,
                0.5184899845916795
            ],
            [
                1.0117850953206255,
                0.5496147919876727
            ]
        ],
        [
            [
                0.9275563258232234,
                0.5890600924499225
            ],
            [
                0.9038128249566724,
                0.6201848998459167
            ],
            [
                0.8897746967071056,
                0.6510015408320489
            ]
        ],
        [
            [
                0.8528596187175043,
                0.7604006163328197
            ],
            [
                0.8388214904679375,
                0.7912172573189522
            ],
            [
                0.8357019064124782,
                0.8479198767334355
            ]
        ],
        [
            [
                0.8137781629116108,
                0.9941448382126348
            ],
            [
                0.8106585788561514,
                1.0508474576271183
            ],
            [
                0.7449740034662036,
                1.0573189522342064
            ]
        ]
    ],
    "1986": [
        [
            [
                0.5479202772963595,
                1.0767334360554695
            ],
            [
                0.4822357019064124,
                1.0832049306625582
            ],
            [
                0.4787694974003466,
                1.0625577812018492
            ]
        ],
        [
            [
                0.468370883882149,
                1.0006163328197226
            ],
            [
                0.46490467937608315,
                0.979969183359014
            ],
            [
                0.4635181975736568,
                0.9328197226502302
            ]
        ],
        [
            [
                0.4593587521663778,
                0.7913713405238821
            ],
            [
                0.45797227036395144,
                0.7442218798150992
            ],
            [
                0.45849220103986127,
                0.7278890600924487
            ]
        ],
        [
            [
                0.4600519930675909,
                0.6788906009244983
            ],
            [
                0.4605719237435008,
                0.662557781201848
            ],
            [
                0.4558925476603119,
                0.6385208012326645
            ]
        ],
        [
            [
                0.4418544194107452,
                0.5664098613251147
            ],
            [
                0.4371750433275563,
                0.5423728813559309
            ],
            [
                0.425736568457539,
                0.5303543913713394
            ]
        ],
        [
            [
                0.39142114384748694,
                0.4942989214175645
            ],
            [
                0.37998266897746963,
                0.48228043143297294
            ],
            [
                0.40043327556325814,
                0.4545454545454542
            ]
        ],
        [
            [
                0.4617850953206239,
                0.3713405238828963
            ],
            [
                0.4822357019064124,
                0.3436055469953771
            ],
            [
                0.4891681109185441,
                0.3013867488443755
            ]
        ],
        [
            [
                0.5658578856152514,
                0.18936825885978426
            ],
            [
                0.572790294627383,
                0.14714946070878274
            ],
            [
                0.6001733102253025,
                0.10647149460708778
            ]
        ],
        [
            [
                0.6182842287694984,
                -0.04314329738058518
            ],
            [
                0.6941074523396881,
                -0.05315870570107858
            ],
            [
                0.7707972270363962,
                -0.05546995377503816
            ]
        ],
        [
            [
                0.7724436741767763,
                0.01648690292758092
            ],
            [
                0.8006932409012131,
                0.054699537750385205
            ],
            [
                0.8126516464471403,
                0.09013867488443762
            ]
        ],
        [
            [
                0.8207972270363951,
                0.18721109399075472
            ],
            [
                0.8327556325823223,
                0.2226502311248074
            ],
            [
                0.8689774696707104,
                0.21371340523882865
            ]
        ],
        [
            [
                1.0114384748700165,
                0.0805855161787363
            ],
            [
                1.0476603119584056,
                0.07164869029275808
            ],
            [
                1.043500866551127,
                0.11263482280431435
            ]
        ],
        [
            [
                1.0396880415944556,
                0.477503852080123
            ],
            [
                1.035528596187175,
                0.5184899845916795
            ],
            [
                1.0117850953206255,
                0.5496147919876727
            ]
        ],
        [
            [
                0.9275563258232234,
                0.5890600924499225
            ],
            [
                0.9038128249566724,
                0.6201848998459167
            ],
            [
                0.8897746967071056,
                0.6510015408320489
            ]
        ],
        [
            [
                0.8528596187175043,
                0.7604006163328197
            ],
            [
                0.8388214904679375,
                0.7912172573189522
            ],
            [
                0.8357019064124782,
                0.8479198767334355
            ]
        ],
        [
            [
                0.8137781629116108,
                0.9941448382126348
            ],
            [
                0.8106585788561514,
                1.0508474576271183
            ],
            [
                0.7449740034662036,
                1.0573189522342064
            ]
        ]
    ],
    "2303": [
        [
            [
                0.5479202772963595,
                1.0767334360554695
            ],
            [
                0.4822357019064124,
                1.0832049306625582
            ],
            [
                0.4787694974003466,
                1.0625577812018492
            ]
        ],
        [
            [
                0.468370883882149,
                1.0006163328197226
            ],
            [
                0.46490467937608315,
                0.979969183359014
            ],
            [
                0.4635181975736568,
                0.9328197226502302
            ]
        ],
        [
            [
                0.4593587521663778,
                0.7913713405238821
            ],
            [
                0.45797227036395144,
                0.7442218798150992
            ],
            [
                0.45849220103986127,
                0.7278890600924487
            ]
        ],
        [
            [
                0.4600519930675909,
                0.6788906009244983
            ],
            [
                0.4605719237435008,
                0.662557781201848
            ],
            [
                0.4558925476603119,
                0.6385208012326645
            ]
        ],
        [
            [
                0.4418544194107452,
                0.5664098613251147
            ],
            [
                0.4371750433275563,
                0.5423728813559309
            ],
            [
                0.425736568457539,
                0.5303543913713394
            ]
        ],
        [
            [
                0.39142114384748694,
                0.4942989214175645
            ],
            [
                0.37998266897746963,
                0.48228043143297294
            ],
            [
                0.40043327556325814,
                0.4545454545454542
            ]
        ],
        [
            [
                0.4617850953206239,
                0.3713405238828963
            ],
            [
                0.4822357019064124,
                0.3436055469953771
            ],
            [
                0.4891681109185441,
                0.3013867488443755
            ]
        ],
        [
            [
                0.5658578856152514,
                0.18936825885978426
            ],
            [
                0.572790294627383,
                0.14714946070878274
            ],
            [
                0.6001733102253025,
                0.10647149460708778
            ]
        ],
        [
            [
                0.6182842287694984,
                -0.04314329738058518
            ],
            [
                0.6941074523396881,
                -0.05315870570107858
            ],
            [
                0.7707972270363962,
                -0.05546995377503816
            ]
        ],
        [
            [
                0.7724436741767763,
                0.01648690292758092
            ],
            [
                0.8006932409012131,
                0.054699537750385205
            ],
            [
                0.8126516464471403,
                0.09013867488443762
            ]
        ],
        [
            [
                0.7896013864818024,
                0.14098613251155595
            ],
            [
                0.8015597920277296,
                0.17642526964560862
            ],
            [
                0.8377816291161178,
                0.16748844375962985
            ]
        ],
        [
            [
                0.9923743500866541,
                0.009707241910631537
            ],
            [
                1.0285961871750433,
                0.0007704160246533127
            ],
            [
                1.0244367417677647,
                0.04175654853620956
            ]
        ],
        [
            [
                1.0362218370883893,
                0.31725731895223397
            ],
            [
                1.0320623916811091,
                0.35824345146379044
            ],
            [
                1.0083188908145593,
                0.38936825885978366
            ]
        ],
        [
            [
                0.926689774696707,
                0.4657935285053926
            ],
            [
                0.902946273830156,
                0.49691833590138673
            ],
            [
                0.8889081455805893,
                0.5277349768875188
            ]
        ],
        [
            [
                0.8528596187175043,
                0.7604006163328197
            ],
            [
                0.8388214904679375,
                0.7912172573189522
            ],
            [
                0.8357019064124782,
                0.8479198767334355
            ]
        ],
        [
            [
                0.8137781629116108,
                0.9941448382126348
            ],
            [
                0.8106585788561514,
                1.0508474576271183
            ],
            [
                0.7449740034662036,
                1.0573189522342064
            ]
        ]
    ],
    "2484": [
        [
            [
                0.5479202772963595,
                1.0767334360554695
            ],
            [
                0.4822357019064124,
                1.0832049306625582
            ],
            [
                0.4787694974003466,
                1.0625577812018492
            ]
        ],
        [
            [
                0.468370883882149,
                1.0006163328197226
            ],
            [
                0.46490467937608315,
                0.979969183359014
            ],
            [
                0.4635181975736568,
                0.9328197226502302
            ]
        ],
        [
            [
                0.4593587521663778,
                0.7913713405238821
            ],
            [
                0.45797227036395144,
                0.7442218798150992
            ],
            [
                0.45849220103986127,
                0.7278890600924487
            ]
        ],
        [
            [
                0.4600519930675909,
                0.6788906009244983
            ],
            [
                0.4605719237435008,
                0.662557781201848
            ],
            [
                0.4558925476603119,
                0.6385208012326645
            ]
        ],
        [
            [
                0.4418544194107452,
                0.5664098613251147
            ],
            [
                0.4371750433275563,
                0.5423728813559309
            ],
            [
                0.425736568457539,
                0.5303543913713394
            ]
        ],
        [
            [
                0.39142114384748694,
                0.4942989214175645
            ],
            [
                0.37998266897746963,
                0.48228043143297294
            ],
            [
                0.40043327556325814,
                0.4545454545454542
            ]
        ],
        [
            [
                0.4617850953206239,
                0.3713405238828963
            ],
            [
                0.4822357019064124,
                0.3436055469953771
            ],
            [
                0.4891681109185441,
                0.3013867488443755
            ]
        ],
        [
            [
                0.5658578856152514,
                0.18936825885978426
            ],
            [
                0.572790294627383,
                0.14714946070878274
            ],
            [
                0.6001733102253025,
                0.10647149460708778
            ]
        ],
        [
            [
                0.6182842287694984,
                -0.04314329738058518
            ],
            [
                0.6941074523396881,
                -0.05315870570107858
            ],
            [
                0.7707972270363962,
                -0.05546995377503816
            ]
        ],
        [
            [
                0.7724436741767763,
                0.01648690292758092
            ],
            [
                0.8006932409012131,
                0.054699537750385205
            ],
            [
                0.8126516464471403,
                0.09013867488443762
            ]
        ],
        [
            [
                0.8277296360485269,
                0.16872110939907523
            ],
            [
                0.8396880415944541,
                0.20416024653312786
            ],
            [
                0.8759098786828422,
                0.19522342064714912
            ]
        ],
        [
            [
                0.9923743500866541,
                0.009707241910631537
            ],
            [
                1.0285961871750433,
                0.0007704160246533127
            ],
            [
                1.0244367417677647,
                0.04175654853620956
            ]
        ],
        [
            [
                1.0362218370883896,
                0.3758089368258857
            ],
            [
                1.0320623916811091,
                0.41679506933744215
            ],
            [
                1.0083188908145595,
                0.4479198767334354
            ]
        ],
        [
            [
                0.926689774696707,
                0.4657935285053926
            ],
            [
                0.902946273830156,
                0.49691833590138673
            ],
            [
                0.8889081455805893,
                0.5277349768875188
            ]
        ],
        [
            [
                0.8528596187175043,
                0.7604006163328197
            ],
            [
                0.8388214904679375,
                0.7912172573189522
            ],
            [
                0.8357019064124782,
                0.8479198767334355
            ]
        ],
        [
            [
                0.8137781629116108,
                0.9941448382126348
            ],
            [
                0.8106585788561514,
                1.0508474576271183
            ],
            [
                0.7449740034662036,
                1.0573189522342064
            ]
        ]
    ],
    "2622": [
        [
            [
                0.5479202772963595,
                1.0767334360554695
            ],
            [
                0.4822357019064124,
                1.0832049306625582
            ],
            [
                0.4787694974003466,
                1.0625577812018492
            ]
        ],
        [
            [
                0.468370883882149,
                1.0006163328197226
            ],
            [
                0.46490467937608315,
                0.979969183359014
            ],
            [
                0.4635181975736568,
                0.9328197226502302
            ]
        ],
        [
            [
                0.4593587521663778,
                0.7913713405238821
            ],
            [
                0.45797227036395144,
                0.7442218798150992
            ],
            [
                0.45849220103986127,
                0.7278890600924487
            ]
        ],
        [
            [
                0.4600519930675909,
                0.6788906009244983
            ],
            [
                0.4605719237435008,
                0.662557781201848
            ],
            [
                0.4558925476603119,
                0.6385208012326645
            ]
        ],
        [
            [
                0.4418544194107452,
                0.5664098613251147
            ],
            [
                0.4371750433275563,
                0.5423728813559309
            ],
            [
                0.425736568457539,
                0.5303543913713394
            ]
        ],
        [
            [
                0.39142114384748694,
                0.4942989214175645
            ],
            [
                0.37998266897746963,
                0.48228043143297294
            ],
            [
                0.40043327556325814,
                0.4545454545454542
            ]
        ],
        [
            [
                0.4617850953206239,
                0.3713405238828963
            ],
            [
                0.4822357019064124,
                0.3436055469953771
            ],
            [
                0.4891681109185441,
                0.3013867488443755
            ]
        ],
        [
            [
                0.5658578856152514,
                0.18936825885978426
            ],
            [
                0.572790294627383,
                0.14714946070878274
            ],
            [
                0.6001733102253025,
                0.10647149460708778
            ]
        ],
        [
            [
                0.6182842287694984,
                -0.04314329738058518
            ],
            [
                0.6941074523396881,
                -0.05315870570107858
            ],
            [
                0.7707972270363962,
                -0.05546995377503816
            ]
        ],
        [
            [
                0.7724436741767763,
                0.01648690292758092
            ],
            [
                0.8006932409012131,
                0.054699537750385205
            ],
            [
                0.8126516464471403,
                0.09013867488443762
            ]
        ],
        [
            [
                0.8277296360485269,
                0.16872110939907523
            ],
            [
                0.8396880415944541,
                0.20416024653312786
            ],
            [
                0.8759098786828422,
                0.19522342064714912
            ]
        ],
        [
            [
                0.9923743500866541,
                0.009707241910631537
            ],
            [
                1.0285961871750433,
                0.0007704160246533127
            ],
            [
                1.0244367417677647,
                0.04175654853620956
            ]
        ],
        [
            [
                1.0362218370883896,
                0.3758089368258857
            ],
            [
                1.0320623916811091,
                0.41679506933744215
            ],
            [
                1.0083188908145595,
                0.4479198767334354
            ]
        ],
        [
            [
                0.9310225303292893,
                0.4966101694915251
            ],
            [
                0.9072790294627383,
                0.5277349768875192
            ],
            [
                0.8932409012131716,
                0.5585516178736514
            ]
        ],
        [
            [
                0.8528596187175043,
                0.7604006163328197
            ],
            [
                0.8388214904679375,
                0.7912172573189522
            ],
            [
                0.8357019064124782,
                0.8479198767334355
            ]
        ],
        [
            [
                0.8137781629116108,
                0.9941448382126348
            ],
            [
                0.8106585788561514,
                1.0508474576271183
            ],
            [
                0.7449740034662036,
                1.0573189522342064
            ]
        ]
    ],
    "2809": [
        [
            [
                0.5479202772963595,
                1.0767334360554695
            ],
            [
                0.4822357019064124,
                1.0832049306625582
            ],
            [
                0.4787694974003466,
                1.0625577812018492
            ]
        ],
        [
            [
                0.461095973588498,
                0.9937680396709997
            ],
            [
                0.4576297690824322,
                0.973120890210291
            ],
            [
                0.45624328728000585,
                0.9259714295015072
            ]
        ],
        [
            [
                0.4435251238801962,
                0.8063361292562767
            ],
            [
                0.4421386420777699,
                0.7591866685474938
            ],
            [
                0.44265857275367976,
                0.7428538488248434
            ]
        ],
        [
            [
                0.4353743561891278,
                0.6639258121921041
            ],
            [
                0.4358942868650377,
                0.647592992469454
            ],
            [
                0.43121491078184876,
                0.6235560125002705
            ]
        ],
        [
            [
                0.4418544194107452,
                0.5664098613251147
            ],
            [
                0.4371750433275563,
                0.5423728813559309
            ],
            [
                0.425736568457539,
                0.5303543913713394
            ]
        ],
        [
            [
                0.39142114384748694,
                0.4942989214175645
            ],
            [
                0.37998266897746963,
                0.48228043143297294
            ],
            [
                0.40043327556325814,
                0.4545454545454542
            ]
        ],
        [
            [
                0.45051611663045865,
                0.3589121400203994
            ],
            [
                0.4709667232162472,
                0.3311771631328802
            ],
            [
                0.47789913222837893,
                0.2889583649818786
            ]
        ],
        [
            [
                0.530481851246125,
                0.168569738926626
            ],
            [
                0.5374142602582566,
                0.12635094077562445
            ],
            [
                0.5647972758561761,
                0.08567297467392952
            ]
        ],
        [
            [
                0.5905545927209715,
                -0.02927580893682556
            ],
            [
                0.6663778162911612,
                -0.03929121725731895
            ],
            [
                0.7430675909878693,
                -0.04160246533127853
            ]
        ],
        [
            [
                0.7507798960138647,
                0.011864406779661045
            ],
            [
                0.7790294627383015,
                0.05007704160246533
            ],
            [
                0.7909878682842286,
                0.08551617873651775
            ]
        ],
        [
            [
                0.8043358068689432,
                0.12610950758479975
            ],
            [
                0.8162942124148704,
                0.16154864471885239
            ],
            [
                0.8525160495032585,
                0.15261181883287364
            ]
        ],
        [
            [
                0.9627041277125481,
                0.02695479502593352
            ],
            [
                0.9989259648009373,
                0.018017969139955292
            ],
            [
                0.9947665193936587,
                0.05900410165151155
            ]
        ],
        [
            [
                0.9985634779212551,
                0.3413138305952817
            ],
            [
                0.9944040325139747,
                0.3822999631068382
            ],
            [
                0.970660531647425,
                0.4134247705028315
            ]
        ],
        [
            [
                0.895646495960163,
                0.4864645500119356
            ],
            [
                0.8719029950936119,
                0.5175893574079299
            ],
            [
                0.8578648668440452,
                0.548405998394062
            ]
        ],
        [
            [
                0.818339456147631,
                0.7568496495149635
            ],
            [
                0.8043013278980643,
                0.7876662905010959
            ],
            [
                0.801181743842605,
                0.8443689099155792
            ]
        ],
        [
            [
                0.7862476200356378,
                0.9954130406475835
            ],
            [
                0.7831280359801784,
                1.0521156600620671
            ],
            [
                0.7174434605902305,
                1.058587154669155
            ]
        ]
    ],
    "2845": [
        [
            [
                0.5479202772963595,
                1.0767334360554695
            ],
            [
                0.4822357019064124,
                1.0832049306625582
            ],
            [
                0.4787694974003466,
                1.0625577812018492
            ]
        ],
        [
            [
                0.4596954560988112,
                0.9924496516851493
            ],
            [
                0.45622925159274536,
                0.9718025022244405
            ],
            [
                0.454842769790319,
                0.9246530415156569
            ]
        ],
        [
            [
                0.44047693875558375,
                0.8092170511512832
            ],
            [
                0.4390904569531574,
                0.7620675904425003
            ],
            [
                0.4396103876290673,
                0.7457347707198498
            ]
        ],
        [
            [
                0.4306235811750921,
                0.6610448902970978
            ],
            [
                0.43114351185100197,
                0.6447120705744476
            ],
            [
                0.42646413576781306,
                0.6206750906052642
            ]
        ],
        [
            [
                0.4418544194107452,
                0.5664098613251147
            ],
            [
                0.4371750433275563,
                0.5423728813559309
            ],
            [
                0.425736568457539,
                0.5303543913713394
            ]
        ],
        [
            [
                0.39142114384748694,
                0.4942989214175645
            ],
            [
                0.37998266897746963,
                0.48228043143297294
            ],
            [
                0.40043327556325814,
                0.4545454545454542
            ]
        ],
        [
            [
                0.4483466875778065,
                0.3565195099720043
            ],
            [
                0.46879729416359506,
                0.3287845330844851
            ],
            [
                0.47572970317572677,
                0.2865657349334835
            ]
        ],
        [
            [
                0.5236714916884322,
                0.16456574578441371
            ],
            [
                0.5306039007005638,
                0.12234694763341217
            ],
            [
                0.5579869162984834,
                0.08166898153171724
            ]
        ],
        [
            [
                0.5822029503677734,
                -0.031605255814517466
            ],
            [
                0.658026173937963,
                -0.04162066413501085
            ],
            [
                0.7347159486346712,
                -0.043931912208970435
            ]
        ],
        [
            [
                0.7646447140381282,
                0.024191063174114045
            ],
            [
                0.792894280762565,
                0.06240369799691833
            ],
            [
                0.804852686308492,
                0.09784283513097075
            ]
        ],
        [
            [
                0.8589254766031196,
                0.15023112480739573
            ],
            [
                0.8708838821490468,
                0.18567026194144837
            ],
            [
                0.907105719237435,
                0.17673343605546962
            ]
        ],
        [
            [
                1.0027729636048515,
                0.10832049306625556
            ],
            [
                1.0389948006932408,
                0.09938366718027734
            ],
            [
                1.0348353552859622,
                0.1403697996918336
            ]
        ],
        [
            [
                1.0379549393414225,
                0.4158705701078579
            ],
            [
                1.033795493934142,
                0.4568567026194144
            ],
            [
                1.0100519930675929,
                0.4879815100154077
            ]
        ],
        [
            [
                0.8998266897746966,
                0.5366718027734975
            ],
            [
                0.8760831889081455,
                0.5677966101694916
            ],
            [
                0.8620450606585788,
                0.5986132511556239
            ]
        ],
        [
            [
                0.8433275563258232,
                0.792758089368259
            ],
            [
                0.8292894280762565,
                0.8235747303543913
            ],
            [
                0.8261698440207972,
                0.8802773497688747
            ]
        ],
        [
            [
                0.8098786828422876,
                1.0288135593220338
            ],
            [
                0.8067590987868284,
                1.0855161787365175
            ],
            [
                0.7410745233968804,
                1.0919876733436054
            ]
        ]
    ],
    "2936": [
        [
            [
                0.5479202772963595,
                1.0767334360554695
            ],
            [
                0.4822357019064124,
                1.0832049306625582
            ],
            [
                0.4787694974003466,
                1.0625577812018492
            ]
        ],
        [
            [
                0.45615525911099175,
                0.9891170598320276
            ],
            [
                0.4526890546049259,
                0.9684699103713188
            ],
            [
                0.4513025728024996,
                0.921320449662535
            ]
        ],
        [
            [
                0.4327718041350355,
                0.8164993814969939
            ],
            [
                0.4313853223326092,
                0.7693499207882111
            ],
            [
                0.43190525300851906,
                0.7530171010655605
            ]
        ],
        [
            [
                0.41861467766739074,
                0.6537625599513873
            ],
            [
                0.41913460834330063,
                0.6374297402287371
            ],
            [
                0.4144552322601117,
                0.6133927602595537
            ]
        ],
        [
            [
                0.4418544194107452,
                0.5664098613251147
            ],
            [
                0.4371750433275563,
                0.5423728813559309
            ],
            [
                0.425736568457539,
                0.5303543913713394
            ]
        ],
        [
            [
                0.39142114384748694,
                0.4942989214175645
            ],
            [
                0.37998266897746963,
                0.48228043143297294
            ],
            [
                0.40043327556325814,
                0.4545454545454542
            ]
        ],
        [
            [
                0.44286285302804695,
                0.35047147290522773
            ],
            [
                0.46331345961383547,
                0.32273649601770854
            ],
            [
                0.4702458686259672,
                0.2805176978667069
            ]
        ],
        [
            [
                0.50645641613982,
                0.1544445408971549
            ],
            [
                0.5133888251519515,
                0.11222574274615334
            ],
            [
                0.5407718407498711,
                0.0715477766444584
            ]
        ],
        [
            [
                0.5610918544194117,
                -0.0374935798664609
            ],
            [
                0.6369150779896013,
                -0.04750898818695428
            ],
            [
                0.7136048526863095,
                -0.049820236260913864
            ]
        ],
        [
            [
                0.7767764298093586,
                0.014946070878274285
            ],
            [
                0.8050259965337954,
                0.05315870570107858
            ],
            [
                0.8169844020797226,
                0.088597842835131
            ]
        ],
        [
            [
                0.8319543867580941,
                0.12096871441012903
            ],
            [
                0.8439127923040213,
                0.15640785154418166
            ],
            [
                0.8801346293924095,
                0.14747102565820291
            ]
        ],
        [
            [
                1.0097053726169836,
                0.10523882896764226
            ],
            [
                1.0459272097053727,
                0.09630200308166409
            ],
            [
                1.041767764298094,
                0.13728813559322034
            ]
        ],
        [
            [
                1.0552859618717518,
                0.3942989214175651
            ],
            [
                1.0511265164644714,
                0.43528505392912165
            ],
            [
                1.0273830155979218,
                0.4664098613251149
            ]
        ],
        [
            [
                0.9050259965337955,
                0.5181818181818169
            ],
            [
                0.8812824956672444,
                0.5493066255778121
            ],
            [
                0.8672443674176776,
                0.5801232665639435
            ]
        ],
        [
            [
                0.8641247833622183,
                0.8081664098613248
            ],
            [
                0.8500866551126516,
                0.8389830508474575
            ],
            [
                0.8469670710571923,
                0.8956856702619407
            ]
        ],
        [
            [
                0.7888503755054881,
                1.0206851119894598
            ],
            [
                0.7857307914500288,
                1.0773877314039433
            ],
            [
                0.7200462160600808,
                1.0838592260110314
            ]
        ]
    ],
    "3015": [
        [
            [
                0.5479202772963595,
                1.0767334360554695
            ],
            [
                0.4822357019064124,
                1.0832049306625582
            ],
            [
                0.4787694974003466,
                1.0625577812018492
            ]
        ],
        [
            [
                0.4530819012864012,
                0.986223930640856
            ],
            [
                0.44961569678033536,
                0.9655767811801472
            ],
            [
                0.448229214977909,
                0.9184273204713632
            ]
        ],
        [
            [
                0.4260827312226914,
                0.8228214045443691
            ],
            [
                0.42469624942026507,
                0.7756719438355864
            ],
            [
                0.42521618009617496,
                0.7593391241129358
            ]
        ],
        [
            [
                0.4081893658310347,
                0.6474405369040123
            ],
            [
                0.40870929650694454,
                0.631107717181362
            ],
            [
                0.40402992042375563,
                0.6070707372121786
            ]
        ],
        [
            [
                0.4418544194107452,
                0.5664098613251147
            ],
            [
                0.4371750433275563,
                0.5423728813559309
            ],
            [
                0.425736568457539,
                0.5303543913713394
            ]
        ],
        [
            [
                0.39142114384748694,
                0.4942989214175645
            ],
            [
                0.37998266897746963,
                0.48228043143297294
            ],
            [
                0.40043327556325814,
                0.4545454545454542
            ]
        ],
        [
            [
                0.4381021614958381,
                0.3452209791879162
            ],
            [
                0.45855276808162665,
                0.31748600230039703
            ],
            [
                0.46548517709375836,
                0.2752672041493954
            ]
        ],
        [
            [
                0.5762564991334489,
                0.1816640986132512
            ],
            [
                0.5831889081455806,
                0.1394453004622496
            ],
            [
                0.6105719237435001,
                0.09876733436055468
            ]
        ],
        [
            [
                0.6217504332755641,
                -0.035439137134052105
            ],
            [
                0.6975736568457538,
                -0.04545454545454545
            ],
            [
                0.7742634315424619,
                -0.04776579352850503
            ]
        ],
        [
            [
                0.7906412478336221,
                -0.03127889060092447
            ],
            [
                0.8188908145580588,
                0.006933744221879814
            ],
            [
                0.830849220103986,
                0.04237288135593226
            ]
        ],
        [
            [
                0.8831889081455806,
                0.1594761171032355
            ],
            [
                0.8951473136915078,
                0.19491525423728812
            ],
            [
                0.9313691507798959,
                0.18597842835130937
            ]
        ],
        [
            [
                1.0166377816291152,
                0.10215716486902902
            ],
            [
                1.0528596187175043,
                0.09322033898305083
            ],
            [
                1.0487001733102257,
                0.1342064714946071
            ]
        ],
        [
            [
                1.0691507798960151,
                0.4497688751926037
            ],
            [
                1.0649913344887347,
                0.49075500770416025
            ],
            [
                1.0412478336221853,
                0.5218798151001536
            ]
        ],
        [
            [
                0.9171577123050259,
                0.5335901386748835
            ],
            [
                0.8934142114384749,
                0.5647149460708782
            ],
            [
                0.8793760831889081,
                0.5955315870570099
            ]
        ],
        [
            [
                0.8779896013864817,
                0.8297380585516176
            ],
            [
                0.863951473136915,
                0.8605546995377503
            ],
            [
                0.8608318890814558,
                0.9172573189522334
            ]
        ],
        [
            [
                0.8150779896013864,
                1.0349768875192604
            ],
            [
                0.8119584055459271,
                1.091679506933744
            ],
            [
                0.7462738301559793,
                1.0981510015408322
            ]
        ]
    ],
    "3085": [
        [
            [
                0.5479202772963595,
                1.0767334360554695
            ],
            [
                0.4822357019064124,
                1.0832049306625582
            ],
            [
                0.4787694974003466,
                1.0625577812018492
            ]
        ],
        [
            [
                0.45035867283423237,
                0.9836603984461467
            ],
            [
                0.44689246832816654,
                0.963013248985438
            ],
            [
                0.4455059865257402,
                0.9158637882766542
            ]
        ],
        [
            [
                0.4201557045915004,
                0.8284231971179927
            ],
            [
                0.41876922278907414,
                0.7812737364092099
            ],
            [
                0.41928915346498397,
                0.7649409166865594
            ]
        ],
        [
            [
                0.39895174774818754,
                0.6418387443303888
            ],
            [
                0.3994716784240974,
                0.6255059246077387
            ],
            [
                0.3947923023409085,
                0.6014689446385552
            ]
        ],
        [
            [
                0.4418544194107452,
                0.5664098613251147
            ],
            [
                0.4371750433275563,
                0.5423728813559309
            ],
            [
                0.425736568457539,
                0.5303543913713394
            ]
        ],
        [
            [
                0.39142114384748694,
                0.4942989214175645
            ],
            [
                0.37998266897746963,
                0.48228043143297294
            ],
            [
                0.40043327556325814,
                0.4545454545454542
            ]
        ],
        [
            [
                0.4338838272267923,
                0.34056864298270345
            ],
            [
                0.4543344338125808,
                0.31283366609518426
            ],
            [
                0.46126684282471253,
                0.27061486794418266
            ]
        ],
        [
            [
                0.5291161178509534,
                0.15947611710323575
            ],
            [
                0.536048526863085,
                0.1172573189522342
            ],
            [
                0.5634315424610044,
                0.07657935285053927
            ]
        ],
        [
            [
                0.5739168110918553,
                -0.0428351309707239
            ],
            [
                0.649740034662045,
                -0.05285053929121725
            ],
            [
                0.7264298093587531,
                -0.05516178736517683
            ]
        ],
        [
            [
                0.733795493934142,
                0.003235747303543939
            ],
            [
                0.7620450606585788,
                0.04144838212634822
            ],
            [
                0.774003466204506,
                0.07688751926040067
            ]
        ],
        [
            [
                0.8325823223570191,
                0.11140215716486876
            ],
            [
                0.8445407279029463,
                0.1468412942989214
            ],
            [
                0.8807625649913344,
                0.13790446841294265
            ]
        ],
        [
            [
                0.9708838821490459,
                0.08613251155624013
            ],
            [
                1.007105719237435,
                0.07719568567026194
            ],
            [
                1.0029462738301564,
                0.1181818181818182
            ]
        ],
        [
            [
                1.0396880415944556,
                0.4436055469953771
            ],
            [
                1.035528596187175,
                0.48459167950693377
            ],
            [
                1.0117850953206255,
                0.515716486902927
            ]
        ],
        [
            [
                0.891161178509532,
                0.582896764252696
            ],
            [
                0.8674176776429809,
                0.6140215716486902
            ],
            [
                0.8533795493934142,
                0.6448382126348223
            ]
        ],
        [
            [
                0.8259965337954939,
                0.7976887519260399
            ],
            [
                0.8119584055459271,
                0.8285053929121724
            ],
            [
                0.8088388214904679,
                0.8852080123266557
            ]
        ],
        [
            [
                0.7811091854419411,
                1.0201848998459166
            ],
            [
                0.7779896013864818,
                1.0768875192604004
            ],
            [
                0.7123050259965338,
                1.0833590138674885
            ]
        ]
    ],
    "3124": [
        [
            [
                0.5479202772963595,
                1.0767334360554695
            ],
            [
                0.4822357019064124,
                1.0832049306625582
            ],
            [
                0.4787694974003466,
                1.0625577812018492
            ]
        ],
        [
            [
                0.44884144555373834,
                0.9822321447948089
            ],
            [
                0.4453752410476725,
                0.9615849953341001
            ],
            [
                0.44398875924524617,
                0.9144355346253162
            ]
        ],
        [
            [
                0.41685350403983695,
                0.831544195837583
            ],
            [
                0.4154670222374106,
                0.7843947351288003
            ],
            [
                0.4159869529133205,
                0.7680619154061497
            ]
        ],
        [
            [
                0.39380507481631555,
                0.6387177456107986
            ],
            [
                0.39432500549222543,
                0.6223849258881485
            ],
            [
                0.3896456294090365,
                0.5983479459189649
            ]
        ],
        [
            [
                0.4418544194107452,
                0.5664098613251147
            ],
            [
                0.4371750433275563,
                0.5423728813559309
            ],
            [
                0.425736568457539,
                0.5303543913713394
            ]
        ],
        [
            [
                0.39142114384748694,
                0.4942989214175645
            ],
            [
                0.37998266897746963,
                0.48228043143297294
            ],
            [
                0.40043327556325814,
                0.4545454545454542
            ]
        ],
        [
            [
                0.43153361241975247,
                0.3379766270969421
            ],
            [
                0.45198421900554103,
                0.31024165020942285
            ],
            [
                0.45891662801767275,
                0.26802285205842125
            ]
        ],
        [
            [
                0.5028521911364201,
                0.14711424169051288
            ],
            [
                0.5097846001485516,
                0.10489544353951133
            ],
            [
                0.5371676157464711,
                0.06421747743781639
            ]
        ],
        [
            [
                0.5472666501609318,
                -0.046955756108298184
            ],
            [
                0.6230898737311215,
                -0.05697116442879154
            ],
            [
                0.6997796484278296,
                -0.059282412502751125
            ]
        ],
        [
            [
                0.7646447140381282,
                -0.01587057010785822
            ],
            [
                0.792894280762565,
                0.02234206471494607
            ],
            [
                0.804852686308492,
                0.05778120184899849
            ]
        ],
        [
            [
                0.8502599653379549,
                0.15947611710323548
            ],
            [
                0.8622183708838821,
                0.19491525423728812
            ],
            [
                0.8984402079722702,
                0.18597842835130937
            ]
        ],
        [
            [
                0.9923743500866542,
                0.10215716486902902
            ],
            [
                1.0285961871750433,
                0.09322033898305083
            ],
            [
                1.035528596187175,
                0.1456086286594761
            ]
        ],
        [
            [
                1.0708838821490485,
                0.3604006163328192
            ],
            [
                1.0667244367417679,
                0.4013867488443759
            ],
            [
                1.0429809358752185,
                0.4325115562403692
            ]
        ],
        [
            [
                0.9102253032928941,
                0.5243451463790443
            ],
            [
                0.8864818024263431,
                0.5554699537750385
            ],
            [
                0.8724436741767764,
                0.5862865947611705
            ]
        ],
        [
            [
                0.8415944540727903,
                0.8297380585516181
            ],
            [
                0.8275563258232236,
                0.8605546995377503
            ],
            [
                0.8244367417677643,
                0.9172573189522335
            ]
        ],
        [
            [
                0.8064124783362219,
                1.0688751926040063
            ],
            [
                0.8032928942807626,
                1.1255778120184898
            ],
            [
                0.7376083188908146,
                1.1320493066255781
            ]
        ]
    ],
    "3151": [
        [
            [
                0.5479202772963595,
                1.0767334360554695
            ],
            [
                0.4822357019064124,
                1.0832049306625582
            ],
            [
                0.4787694974003466,
                1.0625577812018492
            ]
        ],
        [
            [
                0.4477910574364732,
                0.9812433538054212
            ],
            [
                0.44432485293040735,
                0.9605962043447124
            ],
            [
                0.442938371127981,
                0.9134467436359285
            ]
        ],
        [
            [
                0.4145673651963776,
                0.8337048872588377
            ],
            [
                0.41318088339395126,
                0.7865554265500551
            ],
            [
                0.4137008140698611,
                0.7702226068274045
            ]
        ],
        [
            [
                0.39024199355578876,
                0.6365570541895439
            ],
            [
                0.39076192423169864,
                0.6202242344668938
            ],
            [
                0.38608254814850973,
                0.5961872544977102
            ]
        ],
        [
            [
                0.4418544194107452,
                0.5664098613251147
            ],
            [
                0.4371750433275563,
                0.5423728813559309
            ],
            [
                0.425736568457539,
                0.5303543913713394
            ]
        ],
        [
            [
                0.39142114384748694,
                0.4942989214175645
            ],
            [
                0.37998266897746963,
                0.48228043143297294
            ],
            [
                0.40043327556325814,
                0.4545454545454542
            ]
        ],
        [
            [
                0.42990654063026335,
                0.3361821545606457
            ],
            [
                0.4503571472160519,
                0.3084471776731265
            ],
            [
                0.4572895562281836,
                0.2662283795221249
            ]
        ],
        [
            [
                0.48466947264174315,
                0.1385560202509355
            ],
            [
                0.4916018816538747,
                0.09633722209993395
            ],
            [
                0.5189848972517942,
                0.05565925599823902
            ]
        ],
        [
            [
                0.5288165387472155,
                -0.04980849658815731
            ],
            [
                0.6046397623174051,
                -0.059823904908650666
            ],
            [
                0.6813295370141133,
                -0.06213515298261025
            ]
        ],
        [
            [
                0.7611785095320625,
                -0.022033898305084718
            ],
            [
                0.7894280762564991,
                0.016178736517719568
            ],
            [
                0.8013864818024264,
                0.051617873651771985
            ]
        ],
        [
            [
                0.8415944540727902,
                0.16872110939907523
            ],
            [
                0.8535528596187175,
                0.20416024653312786
            ],
            [
                0.8897746967071055,
                0.19522342064714915
            ]
        ],
        [
            [
                1.0045060658578846,
                0.12989214175654828
            ],
            [
                1.0407279029462737,
                0.12095531587057008
            ],
            [
                1.0431227351504648,
                0.16867908670682166
            ]
        ],
        [
            [
                1.0656845753899495,
                0.40662557781201814
            ],
            [
                1.061525129982669,
                0.44761171032357466
            ],
            [
                1.0377816291161193,
                0.47873651771956793
            ]
        ],
        [
            [
                0.9206239168110918,
                0.5520801232665632
            ],
            [
                0.8968804159445407,
                0.5832049306625577
            ],
            [
                0.882842287694974,
                0.6140215716486895
            ]
        ],
        [
            [
                0.848526863084922,
                0.8143297380585517
            ],
            [
                0.8344887348353552,
                0.845146379044684
            ],
            [
                0.8313691507798959,
                0.9018489984591672
            ]
        ],
        [
            [
                0.8202772963604853,
                1.0473035439137135
            ],
            [
                0.817157712305026,
                1.104006163328197
            ],
            [
                0.751473136915078,
                1.110477657935285
            ]
        ]
    ],
    "3173": [
        [
            [
                0.5479202772963595,
                1.0767334360554695
            ],
            [
                0.4822357019064124,
                1.0832049306625582
            ],
            [
                0.4787694974003466,
                1.0625577812018492
            ]
        ],
        [
            [
                0.4469351856372201,
                0.9804376722585124
            ],
            [
                0.4434689811311543,
                0.9597905227978037
            ],
            [
                0.44208249932872795,
                0.9126410620890198
            ]
        ],
        [
            [
                0.4127045853980033,
                0.8354654506391195
            ],
            [
                0.41131810359557697,
                0.7883159899303368
            ],
            [
                0.4118380342714868,
                0.7719831702076863
            ]
        ],
        [
            [
                0.3873387421583225,
                0.6347964908092623
            ],
            [
                0.38785867283423237,
                0.618463671086612
            ],
            [
                0.38317929675104345,
                0.5944266911174285
            ]
        ],
        [
            [
                0.4418544194107452,
                0.5664098613251147
            ],
            [
                0.4371750433275563,
                0.5423728813559309
            ],
            [
                0.425736568457539,
                0.5303543913713394
            ]
        ],
        [
            [
                0.39142114384748694,
                0.4942989214175645
            ],
            [
                0.37998266897746963,
                0.48228043143297294
            ],
            [
                0.40043327556325814,
                0.4545454545454542
            ]
        ],
        [
            [
                0.42858077843142045,
                0.3347199917532932
            ],
            [
                0.44903138501720896,
                0.306985014865774
            ],
            [
                0.4559637940293407,
                0.26476621671477235
            ]
        ],
        [
            [
                0.46985392423867306,
                0.1315826546335021
            ],
            [
                0.4767863332508046,
                0.08936385648250054
            ],
            [
                0.5041693488487241,
                0.0486858903808056
            ]
        ],
        [
            [
                0.5137831146323355,
                -0.052132951793968436
            ],
            [
                0.5896063382025253,
                -0.062148360114461794
            ],
            [
                0.6662961128992334,
                -0.06445960818842138
            ]
        ],
        [
            [
                0.7213171577123049,
                -0.01895223420647147
            ],
            [
                0.7495667244367417,
                0.01926040061633282
            ],
            [
                0.7615251299826689,
                0.05469953775038524
            ]
        ],
        [
            [
                0.7936897302581877,
                0.09570937537039205
            ],
            [
                0.8056481358041149,
                0.1311485125044447
            ],
            [
                0.8418699728925031,
                0.12221168661846596
            ]
        ],
        [
            [
                1.0062391681109175,
                0.08366718027734955
            ],
            [
                1.0424610051993066,
                0.07473035439137134
            ],
            [
                1.0411585525970275,
                0.11865340617266658
            ]
        ],
        [
            [
                1.0500866551126533,
                0.3819722650231121
            ],
            [
                1.0459272097053727,
                0.4229583975346687
            ],
            [
                1.022183708838823,
                0.45408320493066195
            ]
        ],
        [
            [
                0.8658756610229746,
                0.503405633914108
            ],
            [
                0.8421321601564237,
                0.5345304413101023
            ],
            [
                0.8280940319068569,
                0.5653470822962343
            ]
        ],
        [
            [
                0.7792027729636047,
                0.76502311248074
            ],
            [
                0.765164644714038,
                0.795839753466872
            ],
            [
                0.7620450606585788,
                0.8525423728813556
            ]
        ],
        [
            [
                0.7694396302715193,
                1.0194895499980245
            ],
            [
                0.7663200462160601,
                1.0761921694125083
            ],
            [
                0.7006354708261121,
                1.0826636640195961
            ]
        ]
    ],
    "3190": [
        [
            [
                0.5479202772963595,
                1.0767334360554695
            ],
            [
                0.4822357019064124,
                1.0832049306625582
            ],
            [
                0.4787694974003466,
                1.0625577812018492
            ]
        ],
        [
            [
                0.44627383015597916,
                0.9798151001540831
            ],
            [
                0.44280762564991333,
                0.9591679506933743
            ],
            [
                0.441421143847487,
                0.9120184899845906
            ]
        ],
        [
            [
                0.411265164644714,
                0.8368258859784281
            ],
            [
                0.4098786828422877,
                0.7896764252696455
            ],
            [
                0.41039861351819756,
                0.7733436055469949
            ]
        ],
        [
            [
                0.38509532062391677,
                0.6334360554699537
            ],
            [
                0.38561525129982666,
                0.6171032357473034
            ],
            [
                0.38093587521663774,
                0.5930662557781199
            ]
        ],
        [
            [
                0.4418544194107452,
                0.5664098613251147
            ],
            [
                0.4371750433275563,
                0.5423728813559309
            ],
            [
                0.425736568457539,
                0.5303543913713394
            ]
        ],
        [
            [
                0.39142114384748694,
                0.4942989214175645
            ],
            [
                0.37998266897746963,
                0.48228043143297294
            ],
            [
                0.40043327556325814,
                0.4545454545454542
            ]
        ],
        [
            [
                0.42755632582322356,
                0.33359013867488435
            ],
            [
                0.44800693240901207,
                0.30585516178736516
            ],
            [
                0.45493934142114384,
                0.26363636363636356
            ]
        ],
        [
            [
                0.4584055459272099,
                0.12619414483821265
            ],
            [
                0.46533795493934144,
                0.08397534668721109
            ],
            [
                0.4927209705372608,
                0.043297380585516146
            ]
        ],
        [
            [
                0.502166377816292,
                -0.05392912172573159
            ],
            [
                0.5779896013864818,
                -0.06394453004622495
            ],
            [
                0.6546793760831898,
                -0.06625577812018453
            ]
        ],
        [
            [
                0.6485268630849219,
                0.05500770416024655
            ],
            [
                0.6767764298093587,
                0.09322033898305083
            ],
            [
                0.6887348353552859,
                0.12865947611710327
            ]
        ],
        [
            [
                0.7566724436741767,
                0.03929121725731869
            ],
            [
                0.7686308492201039,
                0.07473035439137134
            ],
            [
                0.804852686308492,
                0.06579352850539259
            ]
        ],
        [
            [
                0.9022530329289417,
                0.06209553158705681
            ],
            [
                0.938474870017331,
                0.05315870570107858
            ],
            [
                0.9343154246100523,
                0.09414483821263485
            ]
        ],
        [
            [
                0.9218370883882163,
                0.2710323574730351
            ],
            [
                0.9176776429809358,
                0.3120184899845917
            ],
            [
                0.8939341421143862,
                0.34314329738058497
            ]
        ],
        [
            [
                0.8235701906412477,
                0.4657935285053925
            ],
            [
                0.7998266897746967,
                0.49691833590138673
            ],
            [
                0.78578856152513,
                0.5277349768875188
            ]
        ],
        [
            [
                0.7480069324090122,
                0.7496147919876733
            ],
            [
                0.7339688041594454,
                0.7804314329738058
            ],
            [
                0.7308492201039861,
                0.8371340523882891
            ]
        ],
        [
            [
                0.7301559792027729,
                0.9979969183359013
            ],
            [
                0.7270363951473137,
                1.054699537750385
            ],
            [
                0.6613518197573657,
                1.061171032357473
            ]
        ]
    ],
    "3200": [
        [
            [
                0.5479202772963595,
                1.0767334360554695
            ],
            [
                0.4822357019064124,
                1.0832049306625582
            ],
            [
                0.4787694974003466,
                1.0625577812018492
            ]
        ],
        [
            [
                0.44627383015597916,
                0.9798151001540831
            ],
            [
                0.44280762564991333,
                0.9591679506933743
            ],
            [
                0.441421143847487,
                0.9120184899845906
            ]
        ],
        [
            [
                0.411265164644714,
                0.8368258859784281
            ],
            [
                0.4098786828422877,
                0.7896764252696455
            ],
            [
                0.41039861351819756,
                0.7733436055469949
            ]
        ],
        [
            [
                0.38509532062391677,
                0.6334360554699537
            ],
            [
                0.38561525129982666,
                0.6171032357473034
            ],
            [
                0.38093587521663774,
                0.5930662557781199
            ]
        ],
        [
            [
                0.4418544194107452,
                0.5664098613251147
            ],
            [
                0.4371750433275563,
                0.5423728813559309
            ],
            [
                0.425736568457539,
                0.5303543913713394
            ]
        ],
        [
            [
                0.39142114384748694,
                0.4942989214175645
            ],
            [
                0.37998266897746963,
                0.48228043143297294
            ],
            [
                0.40043327556325814,
                0.4545454545454542
            ]
        ],
        [
            [
                0.3998266897746967,
                0.32742681047765787
            ],
            [
                0.4202772963604852,
                0.2996918335901387
            ],
            [
                0.42720970537261693,
                0.257473035439137
            ]
        ],
        [
            [
                0.43414211438474887,
                0.11078582434514637
            ],
            [
                0.44107452339688036,
                0.06856702619414483
            ],
            [
                0.4684575389947998,
                0.02788906009244989
            ]
        ],
        [
            [
                0.502166377816292,
                -0.05392912172573159
            ],
            [
                0.5779896013864818,
                -0.06394453004622495
            ],
            [
                0.6546793760831898,
                -0.06625577812018453
            ]
        ],
        [
            [
                0.6485268630849219,
                0.05500770416024655
            ],
            [
                0.6767764298093587,
                0.09322033898305083
            ],
            [
                0.6887348353552859,
                0.12865947611710327
            ]
        ],
        [
            [
                0.7461005199306759,
                0.046995377503852076
            ],
            [
                0.7720970537261699,
                0.046995377503852076
            ],
            [
                0.808318890814558,
                0.03805855161787334
            ]
        ],
        [
            [
                0.8745233968804148,
                -0.005701078582434731
            ],
            [
                0.9107452339688041,
                -0.014637904468412942
            ],
            [
                0.9065857885615255,
                0.026348228043143317
            ]
        ],
        [
            [
                0.9218370883882163,
                0.2710323574730351
            ],
            [
                0.9176776429809358,
                0.3120184899845917
            ],
            [
                0.8939341421143862,
                0.34314329738058497
            ]
        ],
        [
            [
                0.8235701906412477,
                0.4657935285053925
            ],
            [
                0.7998266897746967,
                0.49691833590138673
            ],
            [
                0.78578856152513,
                0.5277349768875188
            ]
        ],
        [
            [
                0.7480069324090122,
                0.7496147919876733
            ],
            [
                0.7339688041594454,
                0.7804314329738058
            ],
            [
                0.7308492201039861,
                0.8371340523882891
            ]
        ],
        [
            [
                0.7301559792027729,
                0.9979969183359013
            ],
            [
                0.7270363951473137,
                1.054699537750385
            ],
            [
                0.6613518197573657,
                1.061171032357473
            ]
        ]
    ],
    "3254": [
        [
            [
                0.5479202772963595,
                1.0767334360554695
            ],
            [
                0.4822357019064124,
                1.0832049306625582
            ],
            [
                0.4787694974003466,
                1.0625577812018492
            ]
        ],
        [
            [
                0.44627383015597916,
                0.9798151001540831
            ],
            [
                0.44280762564991333,
                0.9591679506933743
            ],
            [
                0.441421143847487,
                0.9120184899845906
            ]
        ],
        [
            [
                0.411265164644714,
                0.8368258859784281
            ],
            [
                0.4098786828422877,
                0.7896764252696455
            ],
            [
                0.41039861351819756,
                0.7733436055469949
            ]
        ],
        [
            [
                0.38509532062391677,
                0.6334360554699537
            ],
            [
                0.38561525129982666,
                0.6171032357473034
            ],
            [
                0.38093587521663774,
                0.5930662557781199
            ]
        ],
        [
            [
                0.4418544194107452,
                0.5664098613251147
            ],
            [
                0.4371750433275563,
                0.5423728813559309
            ],
            [
                0.425736568457539,
                0.5303543913713394
            ]
        ],
        [
            [
                0.39142114384748694,
                0.4942989214175645
            ],
            [
                0.37998266897746963,
                0.48228043143297294
            ],
            [
                0.40043327556325814,
                0.4545454545454542
            ]
        ],
        [
            [
                0.42062391681109185,
                0.27812018489984586
            ],
            [
                0.44107452339688036,
                0.25038520801232667
            ],
            [
                0.44800693240901207,
                0.20816640986132504
            ]
        ],
        [
            [
                0.4722703639514733,
                0.09845916795069337
            ],
            [
                0.47920277296360486,
                0.05624036979969183
            ],
            [
                0.5065857885615241,
                0.015562403697996892
            ]
        ],
        [
            [
                0.502166377816292,
                -0.05392912172573159
            ],
            [
                0.5779896013864818,
                -0.06394453004622495
            ],
            [
                0.6546793760831898,
                -0.06625577812018453
            ]
        ],
        [
            [
                0.7230502599653378,
                0.0919876733436057
            ],
            [
                0.7512998266897746,
                0.13020030816640984
            ],
            [
                0.7632582322357018,
                0.16563944530046243
            ]
        ],
        [
            [
                0.8188908145580588,
                0.10862865947611709
            ],
            [
                0.8448873483535527,
                0.10862865947611709
            ],
            [
                0.881109185441941,
                0.09969183359013835
            ]
        ],
        [
            [
                0.9577123050259954,
                0.0744221879815098
            ],
            [
                0.9939341421143848,
                0.06548536209553157
            ],
            [
                0.9897746967071062,
                0.10647149460708784
            ]
        ],
        [
            [
                1.0102253032928956,
                0.3265023112480737
            ],
            [
                1.0060658578856152,
                0.3674884437596302
            ],
            [
                0.9823223570190656,
                0.39861325115562357
            ]
        ],
        [
            [
                0.8686308492201038,
                0.48736517719568534
            ],
            [
                0.8448873483535527,
                0.5184899845916795
            ],
            [
                0.830849220103986,
                0.5493066255778116
            ]
        ],
        [
            [
                0.8294627383015598,
                0.7711864406779663
            ],
            [
                0.8154246100519931,
                0.8020030816640985
            ],
            [
                0.8123050259965338,
                0.858705701078582
            ]
        ],
        [
            [
                0.7856152512998267,
                1.050385208012327
            ],
            [
                0.7824956672443674,
                1.1070878274268103
            ],
            [
                0.7168110918544194,
                1.1135593220338986
            ]
        ]
    ],
    "3268": [
        [
            [
                0.5479202772963595,
                1.0767334360554695
            ],
            [
                0.4822357019064124,
                1.0832049306625582
            ],
            [
                0.4787694974003466,
                1.0625577812018492
            ]
        ],
        [
            [
                0.44627383015597916,
                0.9798151001540831
            ],
            [
                0.44280762564991333,
                0.9591679506933743
            ],
            [
                0.441421143847487,
                0.9120184899845906
            ]
        ],
        [
            [
                0.411265164644714,
                0.8368258859784281
            ],
            [
                0.4098786828422877,
                0.7896764252696455
            ],
            [
                0.41039861351819756,
                0.7733436055469949
            ]
        ],
        [
            [
                0.38509532062391677,
                0.6334360554699537
            ],
            [
                0.38561525129982666,
                0.6171032357473034
            ],
            [
                0.38093587521663774,
                0.5930662557781199
            ]
        ],
        [
            [
                0.4418544194107452,
                0.5664098613251147
            ],
            [
                0.4371750433275563,
                0.5423728813559309
            ],
            [
                0.425736568457539,
                0.5303543913713394
            ]
        ],
        [
            [
                0.39142114384748694,
                0.4942989214175645
            ],
            [
                0.37998266897746963,
                0.48228043143297294
            ],
            [
                0.40043327556325814,
                0.4545454545454542
            ]
        ],
        [
            [
                0.4535528596187175,
                0.2935285053929121
            ],
            [
                0.474003466204506,
                0.2657935285053929
            ],
            [
                0.4809358752166377,
                0.2235747303543913
            ]
        ],
        [
            [
                0.5069324090121318,
                0.11078582434514637
            ],
            [
                0.5138648180242634,
                0.06856702619414483
            ],
            [
                0.5412478336221824,
                0.02788906009244989
            ]
        ],
        [
            [
                0.5818890814558068,
                -0.050847457627118335
            ],
            [
                0.6577123050259964,
                -0.0608628659476117
            ],
            [
                0.7344020797227045,
                -0.06317411402157129
            ]
        ],
        [
            [
                0.7767764298093586,
                0.16594761171032374
            ],
            [
                0.8050259965337954,
                0.20416024653312786
            ],
            [
                0.8169844020797226,
                0.23959938366718053
            ]
        ],
        [
            [
                0.8899480069324089,
                0.12403697996918334
            ],
            [
                0.9159445407279029,
                0.12403697996918334
            ],
            [
                0.952166377816291,
                0.11510015408320463
            ]
        ],
        [
            [
                1.0218370883882135,
                0.12372881355932182
            ],
            [
                1.058058925476603,
                0.1147919876733436
            ],
            [
                1.0538994800693244,
                0.15577812018489987
            ]
        ],
        [
            [
                1.072616984402081,
                0.44976887519260383
            ],
            [
                1.0684575389948006,
                0.49075500770416025
            ],
            [
                1.044714038128251,
                0.5218798151001536
            ]
        ],
        [
            [
                0.9535528596187174,
                0.5520801232665635
            ],
            [
                0.9298093587521663,
                0.5832049306625577
            ],
            [
                0.9157712305025996,
                0.61402157164869
            ]
        ],
        [
            [
                0.8727902946273829,
                0.8020030816640987
            ],
            [
                0.8587521663778162,
                0.8328197226502311
            ],
            [
                0.855632582322357,
                0.8895223420647145
            ]
        ],
        [
            [
                0.8341421143847486,
                1.0473035439137135
            ],
            [
                0.8310225303292893,
                1.104006163328197
            ],
            [
                0.7653379549393413,
                1.1104776579352853
            ]
        ]
    ],
    "3290": [
        [
            [
                0.5479202772963595,
                1.0767334360554695
            ],
            [
                0.4822357019064124,
                1.0832049306625582
            ],
            [
                0.4787694974003466,
                1.0625577812018492
            ]
        ],
        [
            [
                0.44627383015597916,
                0.9798151001540831
            ],
            [
                0.44280762564991333,
                0.9591679506933743
            ],
            [
                0.441421143847487,
                0.9120184899845906
            ]
        ],
        [
            [
                0.411265164644714,
                0.8368258859784281
            ],
            [
                0.4098786828422877,
                0.7896764252696455
            ],
            [
                0.41039861351819756,
                0.7733436055469949
            ]
        ],
        [
            [
                0.38509532062391677,
                0.6334360554699537
            ],
            [
                0.38561525129982666,
                0.6171032357473034
            ],
            [
                0.38093587521663774,
                0.5930662557781199
            ]
        ],
        [
            [
                0.4418544194107452,
                0.5664098613251147
            ],
            [
                0.4371750433275563,
                0.5423728813559309
            ],
            [
                0.425736568457539,
                0.5303543913713394
            ]
        ],
        [
            [
                0.39142114384748694,
                0.4942989214175645
            ],
            [
                0.37998266897746963,
                0.48228043143297294
            ],
            [
                0.40043327556325814,
                0.4545454545454542
            ]
        ],
        [
            [
                0.4535528596187175,
                0.2935285053929121
            ],
            [
                0.474003466204506,
                0.2657935285053929
            ],
            [
                0.4809358752166377,
                0.2235747303543913
            ]
        ],
        [
            [
                0.5069324090121318,
                0.11078582434514637
            ],
            [
                0.5138648180242634,
                0.06856702619414483
            ],
            [
                0.5412478336221824,
                0.02788906009244989
            ]
        ],
        [
            [
                0.5818890814558068,
                -0.050847457627118335
            ],
            [
                0.6577123050259964,
                -0.0608628659476117
            ],
            [
                0.7344020797227045,
                -0.06317411402157129
            ]
        ],
        [
            [
                0.8027729636048525,
                0.12896764252696472
            ],
            [
                0.8310225303292893,
                0.16718027734976887
            ],
            [
                0.8429809358752165,
                0.20261941448382148
            ]
        ],
        [
            [
                0.8899480069324089,
                0.12403697996918334
            ],
            [
                0.9159445407279029,
                0.12403697996918334
            ],
            [
                0.952166377816291,
                0.11510015408320463
            ]
        ],
        [
            [
                1.0218370883882135,
                0.12372881355932182
            ],
            [
                1.058058925476603,
                0.1147919876733436
            ],
            [
                1.0538994800693244,
                0.15577812018489987
            ]
        ],
        [
            [
                1.072616984402081,
                0.44976887519260383
            ],
            [
                1.0684575389948006,
                0.49075500770416025
            ],
            [
                1.044714038128251,
                0.5218798151001536
            ]
        ],
        [
            [
                0.9535528596187174,
                0.5520801232665635
            ],
            [
                0.9298093587521663,
                0.5832049306625577
            ],
            [
                0.9157712305025996,
                0.61402157164869
            ]
        ],
        [
            [
                0.8727902946273829,
                0.8020030816640987
            ],
            [
                0.8587521663778162,
                0.8328197226502311
            ],
            [
                0.855632582322357,
                0.8895223420647145
            ]
        ],
        [
            [
                0.8341421143847486,
                1.0473035439137135
            ],
            [
                0.8310225303292893,
                1.104006163328197
            ],
            [
                0.7653379549393413,
                1.1104776579352853
            ]
        ]
    ],
    "3315": [
        [
            [
                0.5479202772963595,
                1.0767334360554695
            ],
            [
                0.4822357019064124,
                1.0832049306625582
            ],
            [
                0.4787694974003466,
                1.0625577812018492
            ]
        ],
        [
            [
                0.44627383015597916,
                0.9798151001540831
            ],
            [
                0.44280762564991333,
                0.9591679506933743
            ],
            [
                0.441421143847487,
                0.9120184899845906
            ]
        ],
        [
            [
                0.411265164644714,
                0.8368258859784281
            ],
            [
                0.4098786828422877,
                0.7896764252696455
            ],
            [
                0.41039861351819756,
                0.7733436055469949
            ]
        ],
        [
            [
                0.38509532062391677,
                0.6334360554699537
            ],
            [
                0.38561525129982666,
                0.6171032357473034
            ],
            [
                0.38093587521663774,
                0.5930662557781199
            ]
        ],
        [
            [
                0.4418544194107452,
                0.5664098613251147
            ],
            [
                0.4371750433275563,
                0.5423728813559309
            ],
            [
                0.425736568457539,
                0.5303543913713394
            ]
        ],
        [
            [
                0.39142114384748694,
                0.4942989214175645
            ],
            [
                0.37998266897746963,
                0.48228043143297294
            ],
            [
                0.40043327556325814,
                0.4545454545454542
            ]
        ],
        [
            [
                0.42928942807625653,
                0.27812018489984586
            ],
            [
                0.44974003466204504,
                0.25038520801232667
            ],
            [
                0.45667244367417675,
                0.20816640986132504
            ]
        ],
        [
            [
                0.4653379549393415,
                0.08613251155624035
            ],
            [
                0.47227036395147315,
                0.04391371340523882
            ],
            [
                0.4996533795493922,
                0.0032357473035438864
            ]
        ],
        [
            [
                0.5818890814558068,
                -0.050847457627118335
            ],
            [
                0.6577123050259964,
                -0.0608628659476117
            ],
            [
                0.7344020797227045,
                -0.06317411402157129
            ]
        ],
        [
            [
                0.8027729636048525,
                0.12896764252696472
            ],
            [
                0.8310225303292893,
                0.16718027734976887
            ],
            [
                0.8429809358752165,
                0.20261941448382148
            ]
        ],
        [
            [
                0.8899480069324089,
                0.12403697996918334
            ],
            [
                0.9159445407279029,
                0.12403697996918334
            ],
            [
                0.952166377816291,
                0.11510015408320463
            ]
        ],
        [
            [
                1.0218370883882135,
                0.12372881355932182
            ],
            [
                1.058058925476603,
                0.1147919876733436
            ],
            [
                1.0538994800693244,
                0.15577812018489987
            ]
        ],
        [
            [
                1.072616984402081,
                0.44976887519260383
            ],
            [
                1.0684575389948006,
                0.49075500770416025
            ],
            [
                1.044714038128251,
                0.5218798151001536
            ]
        ],
        [
            [
                0.8772963604852685,
                0.5489984591679503
            ],
            [
                0.8535528596187175,
                0.5801232665639445
            ],
            [
                0.8395147313691508,
                0.6109399075500768
            ]
        ],
        [
            [
                0.7445407279029462,
                0.7835130970724187
            ],
            [
                0.7305025996533795,
                0.8143297380585516
            ],
            [
                0.7273830155979203,
                0.8710323574730348
            ]
        ],
        [
            [
                0.7336221837088388,
                1.0318952234206478
            ],
            [
                0.7305025996533795,
                1.0885978428351308
            ],
            [
                0.6648180242634315,
                1.0950693374422193
            ]
        ]
    ],
    "3336": [
        [
            [
                0.5479202772963595,
                1.0767334360554695
            ],
            [
                0.4822357019064124,
                1.0832049306625582
            ],
            [
                0.4787694974003466,
                1.0625577812018492
            ]
        ],
        [
            [
                0.44627383015597916,
                0.9798151001540831
            ],
            [
                0.44280762564991333,
                0.9591679506933743
            ],
            [
                0.441421143847487,
                0.9120184899845906
            ]
        ],
        [
            [
                0.411265164644714,
                0.8368258859784281
            ],
            [
                0.4098786828422877,
                0.7896764252696455
            ],
            [
                0.41039861351819756,
                0.7733436055469949
            ]
        ],
        [
            [
                0.38509532062391677,
                0.6334360554699537
            ],
            [
                0.38561525129982666,
                0.6171032357473034
            ],
            [
                0.38093587521663774,
                0.5930662557781199
            ]
        ],
        [
            [
                0.4418544194107452,
                0.5664098613251147
            ],
            [
                0.4371750433275563,
                0.5423728813559309
            ],
            [
                0.425736568457539,
                0.5303543913713394
            ]
        ],
        [
            [
                0.39142114384748694,
                0.4942989214175645
            ],
            [
                0.37998266897746963,
                0.48228043143297294
            ],
            [
                0.40043327556325814,
                0.4545454545454542
            ]
        ],
        [
            [
                0.42928942807625653,
                0.27812018489984586
            ],
            [
                0.44974003466204504,
                0.25038520801232667
            ],
            [
                0.45667244367417675,
                0.20816640986132504
            ]
        ],
        [
            [
                0.4653379549393415,
                0.08613251155624035
            ],
            [
                0.47227036395147315,
                0.04391371340523882
            ],
            [
                0.4996533795493922,
                0.0032357473035438864
            ]
        ],
        [
            [
                0.5350953206239178,
                -0.06625577812018461
            ],
            [
                0.6109185441941075,
                -0.07627118644067796
            ],
            [
                0.6876083188908155,
                -0.07858243451463753
            ]
        ],
        [
            [
                0.7074523396880414,
                0.0734976887519262
            ],
            [
                0.7357019064124782,
                0.11171032357473035
            ],
            [
                0.7476603119584054,
                0.147149460708783
            ]
        ],
        [
            [
                0.8743500866551126,
                0.05932203389830507
            ],
            [
                0.9003466204506065,
                0.05932203389830507
            ],
            [
                0.9365684575389946,
                0.05038520801232637
            ]
        ],
        [
            [
                1.0218370883882135,
                0.12372881355932182
            ],
            [
                1.058058925476603,
                0.1147919876733436
            ],
            [
                1.0538994800693244,
                0.15577812018489987
            ]
        ],
        [
            [
                1.072616984402081,
                0.44976887519260383
            ],
            [
                1.0684575389948006,
                0.49075500770416025
            ],
            [
                1.044714038128251,
                0.5218798151001536
            ]
        ],
        [
            [
                0.8772963604852685,
                0.5489984591679503
            ],
            [
                0.8535528596187175,
                0.5801232665639445
            ],
            [
                0.8395147313691508,
                0.6109399075500768
            ]
        ],
        [
            [
                0.7445407279029462,
                0.7835130970724187
            ],
            [
                0.7305025996533795,
                0.8143297380585516
            ],
            [
                0.7273830155979203,
                0.8710323574730348
            ]
        ],
        [
            [
                0.7336221837088388,
                1.0318952234206478
            ],
            [
                0.7305025996533795,
                1.0885978428351308
            ],
            [
                0.6648180242634315,
                1.0950693374422193
            ]
        ]
    ],
    "3379": [
        [
            [
                0.5479202772963595,
                1.0767334360554695
            ],
            [
                0.4822357019064124,
                1.0832049306625582
            ],
            [
                0.4787694974003466,
                1.0625577812018492
            ]
        ],
        [
            [
                0.44627383015597916,
                0.9798151001540831
            ],
            [
                0.44280762564991333,
                0.9591679506933743
            ],
            [
                0.441421143847487,
                0.9120184899845906
            ]
        ],
        [
            [
                0.411265164644714,
                0.8368258859784281
            ],
            [
                0.4098786828422877,
                0.7896764252696455
            ],
            [
                0.41039861351819756,
                0.7733436055469949
            ]
        ],
        [
            [
                0.38509532062391677,
                0.6334360554699537
            ],
            [
                0.38561525129982666,
                0.6171032357473034
            ],
            [
                0.38093587521663774,
                0.5930662557781199
            ]
        ],
        [
            [
                0.4418544194107452,
                0.5664098613251147
            ],
            [
                0.4371750433275563,
                0.5423728813559309
            ],
            [
                0.425736568457539,
                0.5303543913713394
            ]
        ],
        [
            [
                0.39142114384748694,
                0.4942989214175645
            ],
            [
                0.37998266897746963,
                0.48228043143297294
            ],
            [
                0.40043327556325814,
                0.4545454545454542
            ]
        ],
        [
            [
                0.4812824956672443,
                0.28428351309707234
            ],
            [
                0.5017331022530329,
                0.25654853620955315
            ],
            [
                0.5086655112651646,
                0.21432973805855152
            ]
        ],
        [
            [
                0.5311958405545927,
                0.12311248073959936
            ],
            [
                0.5381282495667244,
                0.08089368258859783
            ],
            [
                0.5655112651646435,
                0.0402157164869029
            ]
        ],
        [
            [
                0.6096187175043337,
                -0.04776579352850514
            ],
            [
                0.6854419410745234,
                -0.05778120184899845
            ],
            [
                0.7621317157712314,
                -0.060092449922958036
            ]
        ],
        [
            [
                0.8235701906412477,
                0.11047765793528523
            ],
            [
                0.8518197573656845,
                0.14869029275808934
            ],
            [
                0.8637781629116117,
                0.18412942989214207
            ]
        ],
        [
            [
                0.9055459272097053,
                0.12711864406779658
            ],
            [
                0.9315424610051992,
                0.12711864406779658
            ],
            [
                0.9677642980935874,
                0.11818181818181786
            ]
        ],
        [
            [
                1.0218370883882135,
                0.12372881355932182
            ],
            [
                1.058058925476603,
                0.1147919876733436
            ],
            [
                1.0538994800693244,
                0.15577812018489987
            ]
        ],
        [
            [
                1.072616984402081,
                0.44976887519260383
            ],
            [
                1.0684575389948006,
                0.49075500770416025
            ],
            [
                1.044714038128251,
                0.5218798151001536
            ]
        ],
        [
            [
                0.9240901213171575,
                0.6137134052388287
            ],
            [
                0.9003466204506065,
                0.6448382126348227
            ],
            [
                0.8863084922010398,
                0.6756548536209549
            ]
        ],
        [
            [
                0.8571923743500867,
                0.8143297380585512
            ],
            [
                0.8431542461005199,
                0.845146379044684
            ],
            [
                0.8400346620450606,
                0.9018489984591673
            ]
        ],
        [
            [
                0.8289428076256499,
                1.034976887519261
            ],
            [
                0.8258232235701907,
                1.091679506933744
            ],
            [
                0.7601386481802427,
                1.0981510015408324
            ]
        ]
    ],
    "3413": [
        [
            [
                0.5479202772963595,
                1.0767334360554695
            ],
            [
                0.4822357019064124,
                1.0832049306625582
            ],
            [
                0.4787694974003466,
                1.0625577812018492
            ]
        ],
        [
            [
                0.44627383015597916,
                0.9798151001540831
            ],
            [
                0.44280762564991333,
                0.9591679506933743
            ],
            [
                0.441421143847487,
                0.9120184899845906
            ]
        ],
        [
            [
                0.411265164644714,
                0.8368258859784281
            ],
            [
                0.4098786828422877,
                0.7896764252696455
            ],
            [
                0.41039861351819756,
                0.7733436055469949
            ]
        ],
        [
            [
                0.38509532062391677,
                0.6334360554699537
            ],
            [
                0.38561525129982666,
                0.6171032357473034
            ],
            [
                0.38093587521663774,
                0.5930662557781199
            ]
        ],
        [
            [
                0.4418544194107452,
                0.5664098613251147
            ],
            [
                0.4371750433275563,
                0.5423728813559309
            ],
            [
                0.425736568457539,
                0.5303543913713394
            ]
        ],
        [
            [
                0.39142114384748694,
                0.4942989214175645
            ],
            [
                0.37998266897746963,
                0.48228043143297294
            ],
            [
                0.40043327556325814,
                0.4545454545454542
            ]
        ],
        [
            [
                0.463951473136915,
                0.28428351309707234
            ],
            [
                0.4844020797227036,
                0.25654853620955315
            ],
            [
                0.4913344887348352,
                0.21432973805855152
            ]
        ],
        [
            [
                0.5000000000000001,
                0.12003081664098611
            ],
            [
                0.5069324090121318,
                0.07781201848998458
            ],
            [
                0.5343154246100509,
                0.037134052388289644
            ]
        ],
        [
            [
                0.5385615251299836,
                -0.0508474576271184
            ],
            [
                0.6143847487001732,
                -0.0608628659476117
            ],
            [
                0.6910745233968814,
                -0.06317411402157129
            ]
        ],
        [
            [
                0.7594454072790294,
                0.0858243451463793
            ],
            [
                0.7876949740034662,
                0.12403697996918334
            ],
            [
                0.7996533795493934,
                0.15947611710323611
            ]
        ],
        [
            [
                0.8899480069324089,
                0.06856702619414483
            ],
            [
                0.9159445407279029,
                0.06856702619414483
            ],
            [
                0.952166377816291,
                0.05963020030816615
            ]
        ],
        [
            [
                1.0218370883882135,
                0.12372881355932182
            ],
            [
                1.058058925476603,
                0.1147919876733436
            ],
            [
                1.0538994800693244,
                0.15577812018489987
            ]
        ],
        [
            [
                1.072616984402081,
                0.44976887519260383
            ],
            [
                1.0684575389948006,
                0.49075500770416025
            ],
            [
                1.044714038128251,
                0.5218798151001536
            ]
        ],
        [
            [
                0.9240901213171575,
                0.6137134052388287
            ],
            [
                0.9003466204506065,
                0.6448382126348227
            ],
            [
                0.8863084922010398,
                0.6756548536209549
            ]
        ],
        [
            [
                0.7948006932409012,
                0.8020030816640982
            ],
            [
                0.7807625649913345,
                0.8328197226502311
            ],
            [
                0.7776429809358751,
                0.8895223420647141
            ]
        ],
        [
            [
                0.7561525129982668,
                1.0257318952234216
            ],
            [
                0.7530329289428076,
                1.0824345146379044
            ],
            [
                0.6873483535528596,
                1.088906009244993
            ]
        ]
    ],
    "3428": [
        [
            [
                0.5479202772963595,
                1.0767334360554695
            ],
            [
                0.4822357019064124,
                1.0832049306625582
            ],
            [
                0.4787694974003466,
                1.0625577812018492
            ]
        ],
        [
            [
                0.44627383015597916,
                0.9798151001540831
            ],
            [
                0.44280762564991333,
                0.9591679506933743
            ],
            [
                0.441421143847487,
                0.9120184899845906
            ]
        ],
        [
            [
                0.411265164644714,
                0.8368258859784281
            ],
            [
                0.4098786828422877,
                0.7896764252696455
            ],
            [
                0.41039861351819756,
                0.7733436055469949
            ]
        ],
        [
            [
                0.38509532062391677,
                0.6334360554699537
            ],
            [
                0.38561525129982666,
                0.6171032357473034
            ],
            [
                0.38093587521663774,
                0.5930662557781199
            ]
        ],
        [
            [
                0.4418544194107452,
                0.5664098613251147
            ],
            [
                0.4371750433275563,
                0.5423728813559309
            ],
            [
                0.425736568457539,
                0.5303543913713394
            ]
        ],
        [
            [
                0.39142114384748694,
                0.4942989214175645
            ],
            [
                0.37998266897746963,
                0.48228043143297294
            ],
            [
                0.40043327556325814,
                0.4545454545454542
            ]
        ],
        [
            [
                0.4327556325823222,
                0.30585516178736505
            ],
            [
                0.45320623916811087,
                0.2781201848998459
            ],
            [
                0.46013864818024247,
                0.23590138674884428
            ]
        ],
        [
            [
                0.4549393414211439,
                0.1138674884437596
            ],
            [
                0.46187175043327555,
                0.07164869029275808
            ],
            [
                0.4892547660311947,
                0.030970724191063143
            ]
        ],
        [
            [
                0.5021663778162923,
                -0.0385208012326654
            ],
            [
                0.5779896013864818,
                -0.0485362095531587
            ],
            [
                0.6546793760831898,
                -0.05084745762711829
            ]
        ],
        [
            [
                0.7594454072790294,
                0.0858243451463793
            ],
            [
                0.7876949740034662,
                0.12403697996918334
            ],
            [
                0.7996533795493934,
                0.15947611710323611
            ]
        ],
        [
            [
                0.8899480069324089,
                0.06856702619414483
            ],
            [
                0.9159445407279029,
                0.06856702619414483
            ],
            [
                0.952166377816291,
                0.05963020030816615
            ]
        ],
        [
            [
                1.0218370883882135,
                0.12372881355932182
            ],
            [
                1.058058925476603,
                0.1147919876733436
            ],
            [
                1.0538994800693244,
                0.15577812018489987
            ]
        ],
        [
            [
                1.072616984402081,
                0.44976887519260383
            ],
            [
                1.0684575389948006,
                0.49075500770416025
            ],
            [
                1.044714038128251,
                0.5218798151001536
            ]
        ],
        [
            [
                0.9240901213171575,
                0.6137134052388287
            ],
            [
                0.9003466204506065,
                0.6448382126348227
            ],
            [
                0.8863084922010398,
                0.6756548536209549
            ]
        ],
        [
            [
                0.7948006932409012,
                0.8020030816640982
            ],
            [
                0.7807625649913345,
                0.8328197226502311
            ],
            [
                0.7776429809358751,
                0.8895223420647141
            ]
        ],
        [
            [
                0.7561525129982668,
                1.0257318952234216
            ],
            [
                0.7530329289428076,
                1.0824345146379044
            ],
            [
                0.6873483535528596,
                1.088906009244993
            ]
        ]
    ],
    "3500": 0.782608695652174,
    "3582": [
        [
            [
                0.5479202772963595,
                1.0767334360554695
            ],
            [
                0.4822357019064124,
                1.0832049306625582
            ],
            [
                0.4787694974003466,
                1.0625577812018492
            ]
        ],
        [
            [
                0.4133448873483535,
                0.9952234206471494
            ],
            [
                0.4098786828422877,
                0.9745762711864407
            ],
            [
                0.40849220103986134,
                0.9274268104776568
            ]
        ],
        [
            [
                0.3974003466204506,
                0.8368258859784281
            ],
            [
                0.39601386481802425,
                0.7896764252696455
            ],
            [
                0.39653379549393414,
                0.7733436055469949
            ]
        ],
        [
            [
                0.38509532062391677,
                0.6334360554699537
            ],
            [
                0.38561525129982666,
                0.6171032357473034
            ],
            [
                0.38093587521663774,
                0.5930662557781199
            ]
        ],
        [
            [
                0.4232235701906413,
                0.5456086286594767
            ],
            [
                0.41854419410745236,
                0.5215716486902927
            ],
            [
                0.40710571923743505,
                0.5095531587057014
            ]
        ],
        [
            [
                0.39142114384748694,
                0.4942989214175645
            ],
            [
                0.37998266897746963,
                0.48228043143297294
            ],
            [
                0.40043327556325814,
                0.4545454545454542
            ]
        ],
        [
            [
                0.39636048526863077,
                0.2966101694915253
            ],
            [
                0.4168110918544194,
                0.26887519260400616
            ],
            [
                0.423743500866551,
                0.22665639445300453
            ]
        ],
        [
            [
                0.42201039861351825,
                0.1015408320493066
            ],
            [
                0.4289428076256499,
                0.05932203389830507
            ],
            [
                0.45632582322356907,
                0.018644067796610136
            ]
        ],
        [
            [
                0.5021663778162923,
                -0.0385208012326654
            ],
            [
                0.5779896013864818,
                -0.0485362095531587
            ],
            [
                0.6546793760831898,
                -0.05084745762711829
            ]
        ],
        [
            [
                0.7594454072790294,
                0.0858243451463793
            ],
            [
                0.7876949740034662,
                0.12403697996918334
            ],
            [
                0.7996533795493934,
                0.15947611710323611
            ]
        ],
        [
            [
                0.8899480069324089,
                0.06856702619414483
            ],
            [
                0.9159445407279029,
                0.06856702619414483
            ],
            [
                0.952166377816291,
                0.05963020030816615
            ]
        ],
        [
            [
                1.0218370883882135,
                0.12372881355932182
            ],
            [
                1.058058925476603,
                0.1147919876733436
            ],
            [
                1.0538994800693244,
                0.15577812018489987
            ]
        ],
        [
            [
                1.072616984402081,
                0.44976887519260383
            ],
            [
                1.0684575389948006,
                0.49075500770416025
            ],
            [
                1.044714038128251,
                0.5218798151001536
            ]
        ],
        [
            [
                0.9240901213171575,
                0.6137134052388287
            ],
            [
                0.9003466204506065,
                0.6448382126348227
            ],
            [
                0.8863084922010398,
                0.6756548536209549
            ]
        ],
        [
            [
                0.7462738301559793,
                0.7742681047765787
            ],
            [
                0.7322357019064125,
                0.8050847457627118
            ],
            [
                0.7291161178509532,
                0.8617873651771947
            ]
        ],
        [
            [
                0.6989601386481802,
                1.0288135593220347
            ],
            [
                0.6958405545927209,
                1.0855161787365175
            ],
            [
                0.6301559792027729,
                1.091987673343606
            ]
        ]
    ],
    "3621": [
        [
            [
                0.5479202772963595,
                1.0767334360554695
            ],
            [
                0.4822357019064124,
                1.0832049306625582
            ],
            [
                0.4787694974003466,
                1.0625577812018492
            ]
        ],
        [
            [
                0.4133448873483535,
                0.9952234206471494
            ],
            [
                0.4098786828422877,
                0.9745762711864407
            ],
            [
                0.40849220103986134,
                0.9274268104776568
            ]
        ],
        [
            [
                0.3974003466204506,
                0.8368258859784281
            ],
            [
                0.39601386481802425,
                0.7896764252696455
            ],
            [
                0.39653379549393414,
                0.7733436055469949
            ]
        ],
        [
            [
                0.4197573656845754,
                0.6673343605546994
            ],
            [
                0.4202772963604852,
                0.6510015408320492
            ],
            [
                0.4155979202772963,
                0.6269645608628656
            ]
        ],
        [
            [
                0.44402079722703636,
                0.588751926040062
            ],
            [
                0.43934142114384744,
                0.5647149460708782
            ],
            [
                0.42790294627383013,
                0.5526964560862868
            ]
        ],
        [
            [
                0.39142114384748694,
                0.4942989214175645
            ],
            [
                0.37998266897746963,
                0.48228043143297294
            ],
            [
                0.40043327556325814,
                0.4545454545454542
            ]
        ],
        [
            [
                0.39636048526863077,
                0.2966101694915253
            ],
            [
                0.4168110918544194,
                0.26887519260400616
            ],
            [
                0.423743500866551,
                0.22665639445300453
            ]
        ],
        [
            [
                0.42201039861351825,
                0.1015408320493066
            ],
            [
                0.4289428076256499,
                0.05932203389830507
            ],
            [
                0.45632582322356907,
                0.018644067796610136
            ]
        ],
        [
            [
                0.5021663778162923,
                -0.0385208012326654
            ],
            [
                0.5779896013864818,
                -0.0485362095531587
            ],
            [
                0.6546793760831898,
                -0.05084745762711829
            ]
        ],
        [
            [
                0.7594454072790294,
                0.0858243451463793
            ],
            [
                0.7876949740034662,
                0.12403697996918334
            ],
            [
                0.7996533795493934,
                0.15947611710323611
            ]
        ],
        [
            [
                0.8899480069324089,
                0.06856702619414483
            ],
            [
                0.9159445407279029,
                0.06856702619414483
            ],
            [
                0.952166377816291,
                0.05963020030816615
            ]
        ],
        [
            [
                1.0218370883882135,
                0.12372881355932182
            ],
            [
                1.058058925476603,
                0.1147919876733436
            ],
            [
                1.0538994800693244,
                0.15577812018489987
            ]
        ],
        [
            [
                1.072616984402081,
                0.44976887519260383
            ],
            [
                1.0684575389948006,
                0.49075500770416025
            ],
            [
                1.044714038128251,
                0.5218798151001536
            ]
        ],
        [
            [
                0.9240901213171575,
                0.6137134052388287
            ],
            [
                0.9003466204506065,
                0.6448382126348227
            ],
            [
                0.8863084922010398,
                0.6756548536209549
            ]
        ],
        [
            [
                0.8086655112651646,
                0.7711864406779653
            ],
            [
                0.7946273830155979,
                0.8020030816640985
            ],
            [
                0.7915077989601386,
                0.8587057010785812
            ]
        ],
        [
            [
                0.7717504332755633,
                1.0257318952234216
            ],
            [
                0.7686308492201039,
                1.0824345146379044
            ],
            [
                0.702946273830156,
                1.0889060092449931
            ]
        ]
    ],
    "3642": [
        [
            [
                0.5479202772963595,
                1.0767334360554695
            ],
            [
                0.4822357019064124,
                1.0832049306625582
            ],
            [
                0.4787694974003466,
                1.0625577812018492
            ]
        ],
        [
            [
                0.4133448873483535,
                0.9952234206471494
            ],
            [
                0.4098786828422877,
                0.9745762711864407
            ],
            [
                0.40849220103986134,
                0.9274268104776568
            ]
        ],
        [
            [
                0.3974003466204506,
                0.8368258859784281
            ],
            [
                0.39601386481802425,
                0.7896764252696455
            ],
            [
                0.39653379549393414,
                0.7733436055469949
            ]
        ],
        [
            [
                0.40242634315424614,
                0.6827426810477656
            ],
            [
                0.40294627383015597,
                0.6664098613251155
            ],
            [
                0.39826689774696705,
                0.6423728813559318
            ]
        ],
        [
            [
                0.41629116117850956,
                0.588751926040062
            ],
            [
                0.41161178509532065,
                0.5647149460708782
            ],
            [
                0.4001733102253033,
                0.5526964560862868
            ]
        ],
        [
            [
                0.39142114384748694,
                0.4942989214175645
            ],
            [
                0.37998266897746963,
                0.48228043143297294
            ],
            [
                0.40043327556325814,
                0.4545454545454542
            ]
        ],
        [
            [
                0.39636048526863077,
                0.2966101694915253
            ],
            [
                0.4168110918544194,
                0.26887519260400616
            ],
            [
                0.423743500866551,
                0.22665639445300453
            ]
        ],
        [
            [
                0.42201039861351825,
                0.1015408320493066
            ],
            [
                0.4289428076256499,
                0.05932203389830507
            ],
            [
                0.45632582322356907,
                0.018644067796610136
            ]
        ],
        [
            [
                0.5021663778162923,
                -0.0385208012326654
            ],
            [
                0.5779896013864818,
                -0.0485362095531587
            ],
            [
                0.6546793760831898,
                -0.05084745762711829
            ]
        ],
        [
            [
                0.7594454072790294,
                0.0858243451463793
            ],
            [
                0.7876949740034662,
                0.12403697996918334
            ],
            [
                0.7996533795493934,
                0.15947611710323611
            ]
        ],
        [
            [
                0.8899480069324089,
                0.06856702619414483
            ],
            [
                0.9159445407279029,
                0.06856702619414483
            ],
            [
                0.952166377816291,
                0.05963020030816615
            ]
        ],
        [
            [
                1.0218370883882135,
                0.12372881355932182
            ],
            [
                1.058058925476603,
                0.1147919876733436
            ],
            [
                1.0538994800693244,
                0.15577812018489987
            ]
        ],
        [
            [
                1.072616984402081,
                0.44976887519260383
            ],
            [
                1.0684575389948006,
                0.49075500770416025
            ],
            [
                1.044714038128251,
                0.5218798151001536
            ]
        ],
        [
            [
                0.9240901213171575,
                0.6137134052388287
            ],
            [
                0.9003466204506065,
                0.6448382126348227
            ],
            [
                0.8863084922010398,
                0.6756548536209549
            ]
        ],
        [
            [
                0.8086655112651646,
                0.7711864406779653
            ],
            [
                0.7946273830155979,
                0.8020030816640985
            ],
            [
                0.7915077989601386,
                0.8587057010785812
            ]
        ],
        [
            [
                0.7717504332755633,
                1.0257318952234216
            ],
            [
                0.7686308492201039,
                1.0824345146379044
            ],
            [
                0.702946273830156,
                1.0889060092449931
            ]
        ]
    ]
}
</property>
    <property name="kdenlive:collapsed">0</property>
    <property name="disable">0</property>
   </filter>
   <filter id="filter243" in="00:01:47.867" out="00:02:02.467">
    <property name="start">1</property>
    <property name="mlt_service">brightness</property>
    <property name="kdenlive_id">fade_to_black</property>
    <property name="end">0</property>
    <property name="alpha">-1</property>
    <property name="kdenlive:collapsed">0</property>
   </filter>
   <filter id="filter244">
    <property name="mlt_service">greyscale</property>
    <property name="kdenlive_id">greyscale</property>
    <property name="kdenlive:collapsed">0</property>
   </filter>
   <filter id="filter245">
    <property name="version">0.1</property>
    <property name="mlt_service">frei0r.colorize</property>
    <property name="kdenlive_id">frei0r.colorize</property>
    <property name="hue">00:00:25.333=0.158333;00:00:28.300~=0.00277778;00:00:31.000~=0.0944444;00:00:32.833~=0.025;00:00:34.800~=0.0388889;00:00:35.800~=0.0472222;00:00:38.433~=0.116667;00:00:41.233~=0.0555556;00:00:43.167~=0.0555556;00:00:44.400~=0.194444;00:00:45.667~=0.375;00:00:47.033~=0.833333;00:00:48.033~=0.536111;00:00:49.233~=0.0666667;00:00:52.733~=0.0166667;00:00:53.600~=0.302778;00:00:54.767~=0.480556;00:00:56.667~=0.816667;00:00:58.367~=0.877778;00:01:00.967~=0.277778;00:01:02.633~=0.361111;00:01:05.467~=0.286111;00:01:05.900~=0.122222;00:01:06.400~=0.0722222;00:01:06.567~=0.166667;00:01:09.500~=0.0194444;00:01:12.167~=0.0527778;00:01:12.867~=0.0527778;00:01:13.733~=0.186111;00:01:16.100~=0.105556;00:01:19.933~=0.0472222;00:01:22.467~=0.0555556;00:01:26.333~=0.0916667;00:01:28.233~=0.244444;00:01:31.333~=0.433333;00:01:32.233~=0.288889;00:01:32.867~=0.105556;00:01:34.733~=0.0416667;00:01:35.667~=0.025;00:01:37.067~=0.0333333;00:01:41.367~=0.0833333;00:01:45.567~=0.111111;00:01:47.300~=0.111111;00:01:48.767~=0.111111;00:01:50.200~=0.0222222;00:01:51.833~=0.255556;00:02:02.467~=0.255556</property>
    <property name="saturation">00:00:25.333=0;00:00:28.300~=0.0944444;00:00:31.000~=0.333333;00:00:32.833~=0.0833333;00:00:34.800~=0.0833333;00:00:35.800~=0.177778;00:00:38.433~=0.127778;00:00:41.233~=0.177778;00:00:43.167~=0.177778;00:00:44.400~=0.127778;00:00:45.667~=0.0888889;00:00:47.033~=0.0888889;00:00:48.033~=0.0888889;00:00:49.233~=0.0888889;00:00:52.733~=0.0888889;00:00:53.600~=0.0888889;00:00:54.767~=0.0888889;00:00:56.667~=0.0888889;00:00:58.367~=0.2;00:01:00.967~=0.075;00:01:02.633~=0.127778;00:01:05.467~=0.0805556;00:01:05.900~=0.0805556;00:01:06.400~=0.0805556;00:01:06.567~=0.175;00:01:09.500~=0.175;00:01:12.167~=0.130556;00:01:12.867~=0.130556;00:01:13.733~=0.130556;00:01:16.100~=0.130556;00:01:19.933~=0.130556;00:01:22.467~=0.130556;00:01:26.333~=0.0944444;00:01:28.233~=0.0944444;00:01:31.333~=0.0944444;00:01:32.233~=0.0944444;00:01:32.867~=0.0944444;00:01:34.733~=0.0944444;00:01:35.667~=0.0944444;00:01:37.067~=0.138889;00:01:41.367~=0.138889;00:01:45.567~=0.0722222;00:01:47.300~=0.0361111;00:01:48.767~=0;00:01:50.200~=0.05;00:01:51.833~=0.05;00:02:02.467~=0</property>
    <property name="lightness">00:00:25.333=0.5;00:00:28.300~=0.5;00:00:31.000~=0.5;00:00:32.833~=0.5;00:00:34.800~=0.391667;00:00:35.800~=0.416667;00:00:38.433~=0.416667;00:00:41.233~=0.416667;00:00:43.167~=0.416667;00:00:44.400~=0.416667;00:00:45.667~=0.416667;00:00:47.033~=0.416667;00:00:48.033~=0.416667;00:00:49.233~=0.416667;00:00:52.733~=0.416667;00:00:53.600~=0.416667;00:00:54.767~=0.416667;00:00:56.667~=0.416667;00:00:58.367~=0.416667;00:01:00.967~=0.416667;00:01:02.633~=0.416667;00:01:05.467~=0.416667;00:01:05.900~=0.416667;00:01:06.400~=0.416667;00:01:06.567~=0.416667;00:01:09.500~=0.416667;00:01:12.167~=0.416667;00:01:12.867~=0.416667;00:01:13.733~=0.416667;00:01:16.100~=0.416667;00:01:19.933~=0.416667;00:01:22.467~=0.416667;00:01:26.333~=0.416667;00:01:28.233~=0.416667;00:01:31.333~=0.416667;00:01:32.233~=0.416667;00:01:32.867~=0.416667;00:01:34.733~=0.416667;00:01:35.667~=0.416667;00:01:37.067~=0.416667;00:01:41.367~=0.416667;00:01:45.567~=0.416667;00:01:47.300~=0.416667;00:01:48.767~=0.483333;00:01:50.200~=0.483333;00:01:51.833~=0.416667;00:02:02.467~=0.416667</property>
    <property name="kdenlive:collapsed">0</property>
   </filter>
  </entry>
  <entry producer="producer32" in="00:02:02.500" out="00:04:51.800">
   <property name="kdenlive:id">7</property>
   <filter id="filter246">
    <property name="rotate_center">1</property>
    <property name="mlt_service">qtblend</property>
    <property name="kdenlive_id">qtblend</property>
    <property name="rect">00:02:02.500=237 0 1920 1080 1.000000</property>
    <property name="rotation">00:02:02.500=0</property>
    <property name="compositing">0</property>
    <property name="distort">0</property>
    <property name="kdenlive:collapsed">0</property>
   </filter>
   <filter id="filter247">
    <property name="mode">alpha</property>
    <property name="alpha_operation">sub</property>
    <property name="invert">1</property>
    <property name="feather">60</property>
    <property name="feather_passes">2</property>
    <property name="mlt_service">rotoscoping</property>
    <property name="kdenlive_id">rotoscoping</property>
    <property name="spline">{
    "3675": [
        [
            [
                0.5479202772963595,
                1.0767334360554695
            ],
            [
                0.4822357019064124,
                1.0832049306625582
            ],
            [
                0.4787694974003466,
                1.0625577812018492
            ]
        ],
        [
            [
                0.4133448873483535,
                0.9952234206471494
            ],
            [
                0.4098786828422877,
                0.9745762711864407
            ],
            [
                0.40849220103986134,
                0.9274268104776568
            ]
        ],
        [
            [
                0.3974003466204506,
                0.8368258859784281
            ],
            [
                0.39601386481802425,
                0.7896764252696455
            ],
            [
                0.39653379549393414,
                0.7733436055469949
            ]
        ],
        [
            [
                0.40242634315424614,
                0.6827426810477656
            ],
            [
                0.40294627383015597,
                0.6664098613251155
            ],
            [
                0.39826689774696705,
                0.6423728813559318
            ]
        ],
        [
            [
                0.41629116117850956,
                0.588751926040062
            ],
            [
                0.41161178509532065,
                0.5647149460708782
            ],
            [
                0.4001733102253033,
                0.5526964560862868
            ]
        ],
        [
            [
                0.39142114384748694,
                0.4942989214175645
            ],
            [
                0.37998266897746963,
                0.48228043143297294
            ],
            [
                0.40043327556325814,
                0.4545454545454542
            ]
        ],
        [
            [
                0.39636048526863077,
                0.2966101694915253
            ],
            [
                0.4168110918544194,
                0.26887519260400616
            ],
            [
                0.423743500866551,
                0.22665639445300453
            ]
        ],
        [
            [
                0.42201039861351825,
                0.1015408320493066
            ],
            [
                0.4289428076256499,
                0.05932203389830507
            ],
            [
                0.45632582322356907,
                0.018644067796610136
            ]
        ],
        [
            [
                0.5021663778162923,
                -0.0385208012326654
            ],
            [
                0.5779896013864818,
                -0.0485362095531587
            ],
            [
                0.6546793760831898,
                -0.05084745762711829
            ]
        ],
        [
            [
                0.7594454072790294,
                0.0858243451463793
            ],
            [
                0.7876949740034662,
                0.12403697996918334
            ],
            [
                0.7996533795493934,
                0.15947611710323611
            ]
        ],
        [
            [
                0.8899480069324089,
                0.06856702619414483
            ],
            [
                0.9159445407279029,
                0.06856702619414483
            ],
            [
                0.952166377816291,
                0.05963020030816615
            ]
        ],
        [
            [
                1.0218370883882135,
                0.12372881355932182
            ],
            [
                1.058058925476603,
                0.1147919876733436
            ],
            [
                1.0538994800693244,
                0.15577812018489987
            ]
        ],
        [
            [
                1.072616984402081,
                0.44976887519260383
            ],
            [
                1.0684575389948006,
                0.49075500770416025
            ],
            [
                1.044714038128251,
                0.5218798151001536
            ]
        ],
        [
            [
                0.9240901213171575,
                0.6137134052388287
            ],
            [
                0.9003466204506065,
                0.6448382126348227
            ],
            [
                0.8863084922010398,
                0.6756548536209549
            ]
        ],
        [
            [
                0.8086655112651646,
                0.7711864406779653
            ],
            [
                0.7946273830155979,
                0.8020030816640985
            ],
            [
                0.7915077989601386,
                0.8587057010785812
            ]
        ],
        [
            [
                0.7717504332755633,
                1.0257318952234216
            ],
            [
                0.7686308492201039,
                1.0824345146379044
            ],
            [
                0.702946273830156,
                1.0889060092449931
            ]
        ]
    ]
}
</property>
    <property name="kdenlive:collapsed">0</property>
    <property name="disable">1</property>
   </filter>
  </entry>
 </playlist>
 <playlist id="playlist23"/>
 <tractor id="tractor11" in="00:00:00.000" out="00:05:34.033">
  <property name="kdenlive:trackheight">69</property>
  <property name="kdenlive:timeline_active">1</property>
  <property name="kdenlive:collapsed">28</property>
  <property name="kdenlive:track_name">caleb1</property>
  <property name="kdenlive:thumbs_format">0</property>
  <property name="kdenlive:audio_rec"/>
  <track hide="audio" producer="playlist22"/>
  <track producer="playlist23"/>
 </tractor>
 <producer id="producer190" in="00:00:00.000" out="00:04:48.267">
  <property name="length">8649</property>
  <property name="eof">pause</property>
  <property name="resource">content/musicians/2021-06-02_Caleb+Chris_electric+synth+handheld+portrait_sarah_MVI_6003-take3_from_bass_solo.mp4</property>
  <property name="audio_index">-1</property>
  <property name="video_index">0</property>
  <property name="mute_on_pause">0</property>
  <property name="mlt_service">avformat-novalidate</property>
  <property name="seekable">1</property>
  <property name="aspect_ratio">1</property>
  <property name="kdenlive:clipname"/>
  <property name="kdenlive:folderid">22</property>
  <property name="kdenlive:id">5</property>
  <property name="kdenlive:file_size">1638843122</property>
  <property name="kdenlive:file_hash">5370f545878c3b9e987605c323045aa8</property>
  <property name="kdenlive:zone_in">2403</property>
  <property name="kdenlive:zone_out">8479</property>
  <property name="kdenlive:clipzones">[
    {
        "in": 650,
        "name": "Caleb-portrait-handheld",
        "out": 1845
    },
    {
        "in": 2403,
        "name": "Chris-portrait-handheld",
        "out": 8479
    }
]
</property>
  <property name="global_feed">1</property>
  <property name="xml">was here</property>
  <property name="meta.media.nb_streams">1</property>
  <property name="meta.media.0.stream.type">video</property>
  <property name="meta.media.0.stream.frame_rate">29.97</property>
  <property name="meta.media.0.stream.sample_aspect_ratio">0</property>
  <property name="meta.media.0.codec.width">1920</property>
  <property name="meta.media.0.codec.height">1080</property>
  <property name="meta.media.0.codec.rotate">90</property>
  <property name="meta.media.0.codec.frame_rate">30000</property>
  <property name="meta.media.0.codec.pix_fmt">yuvj420p</property>
  <property name="meta.media.0.codec.sample_aspect_ratio">0</property>
  <property name="meta.media.0.codec.colorspace">601</property>
  <property name="meta.media.0.codec.color_trc">1</property>
  <property name="meta.media.0.codec.name">h264</property>
  <property name="meta.media.0.codec.long_name">H.264 / AVC / MPEG-4 AVC / MPEG-4 part 10</property>
  <property name="meta.media.0.codec.bit_rate">45476678</property>
  <property name="meta.attr.0.stream.rotate.markup">90</property>
  <property name="meta.attr.0.stream.creation_time.markup">2021-06-02T16:15:36.000000Z</property>
  <property name="meta.attr.0.stream.language.markup">eng</property>
  <property name="meta.attr.0.stream.handler_name.markup">VideoHandler</property>
  <property name="meta.attr.major_brand.markup">isom</property>
  <property name="meta.attr.minor_version.markup">512</property>
  <property name="meta.attr.compatible_brands.markup">isomiso2avc1mp41</property>
  <property name="meta.attr.creation_time.markup">2021-06-02T16:15:36.000000Z</property>
  <property name="meta.attr.encoder.markup">Lavf58.45.100</property>
  <property name="meta.media.sample_aspect_num">1</property>
  <property name="meta.media.sample_aspect_den">1</property>
  <property name="meta.media.frame_rate_num">30000</property>
  <property name="meta.media.frame_rate_den">1001</property>
  <property name="meta.media.colorspace">601</property>
  <property name="meta.media.color_trc">1</property>
  <property name="meta.media.width">1080</property>
  <property name="meta.media.height">1920</property>
  <property name="meta.media.color_range">full</property>
  <property name="meta.media.top_field_first">0</property>
  <property name="meta.media.progressive">1</property>
  <property name="set.test_audio">1</property>
  <property name="set.test_image">0</property>
 </producer>
 <playlist id="playlist24">
  <blank length="00:01:06.967"/>
  <entry producer="producer190" in="00:00:21.667" out="00:01:01.500">
   <property name="kdenlive:id">5</property>
   <filter id="filter248">
    <property name="mlt_service">avfilter.hflip</property>
    <property name="kdenlive_id">avfilter.hflip</property>
    <property name="kdenlive:collapsed">0</property>
   </filter>
   <filter id="filter249">
    <property name="rotate_center">1</property>
    <property name="mlt_service">qtblend</property>
    <property name="kdenlive_id">qtblend</property>
    <property name="rect">00:00:21.667=0 0 608 1080 1.000000</property>
    <property name="rotation">00:00:21.667=0</property>
    <property name="compositing">0</property>
    <property name="distort">0</property>
    <property name="kdenlive:collapsed">0</property>
   </filter>
   <filter id="filter250">
    <property name="version">0.6</property>
    <property name="mlt_service">frei0r.select0r</property>
    <property name="kdenlive_id">frei0r.select0r</property>
    <property name="Color to select">0x11683eff</property>
    <property name="Invert selection">1</property>
    <property name="Selection subspace">1</property>
    <property name="Subspace shape">0</property>
    <property name="Edge mode">0.9</property>
    <property name="Delta R / A / Hue">00:00:21.667=0.04</property>
    <property name="Delta G / B / Chroma">00:00:21.667=0.168</property>
    <property name="Delta B / I / I">00:00:21.667=0.168</property>
    <property name="Slope">00:00:21.667=0.055</property>
    <property name="Operation">0.5</property>
    <property name="kdenlive:collapsed">0</property>
   </filter>
   <filter id="filter251">
    <property name="version">0.4</property>
    <property name="mlt_service">frei0r.alpha0ps</property>
    <property name="kdenlive_id">frei0r.alpha0ps</property>
    <property name="Display">0</property>
    <property name="Display input alpha">0</property>
    <property name="Operation">1</property>
    <property name="Threshold">00:00:21.667=0.5</property>
    <property name="Shrink/Grow/Blur amount">00:00:21.667=0.068</property>
    <property name="Invert">0</property>
    <property name="kdenlive:collapsed">0</property>
   </filter>
   <filter id="filter252">
    <property name="version">0.3</property>
    <property name="mlt_service">frei0r.keyspillm0pup</property>
    <property name="kdenlive_id">frei0r.keyspillm0pup</property>
    <property name="Key color">0x11683eff</property>
    <property name="Target color">0xC87F65ff</property>
    <property name="Mask type">0</property>
    <property name="Tolerance">00:00:21.667=0.24</property>
    <property name="Slope">00:00:21.667=0.4</property>
    <property name="Hue gate">00:00:21.667=0.157</property>
    <property name="Saturation threshold">00:00:21.667=0.222</property>
    <property name="Operation 1">1</property>
    <property name="Amount 1">00:00:21.667=0.612</property>
    <property name="Operation 2">4</property>
    <property name="Amount 2">00:00:21.667=0.314</property>
    <property name="Show mask">0</property>
    <property name="Mask to Alpha">0</property>
    <property name="kdenlive:collapsed">0</property>
   </filter>
   <filter id="filter253" in="00:01:00.467" out="00:01:01.500">
    <property name="start">1</property>
    <property name="mlt_service">brightness</property>
    <property name="kdenlive_id">fade_to_black</property>
    <property name="end">0</property>
    <property name="alpha">-1</property>
    <property name="kdenlive:collapsed">0</property>
   </filter>
   <filter id="filter254" in="00:00:21.667" out="00:00:22.267">
    <property name="start">0</property>
    <property name="mlt_service">brightness</property>
    <property name="kdenlive_id">fade_from_black</property>
    <property name="end">1</property>
    <property name="alpha">-1</property>
    <property name="kdenlive:collapsed">0</property>
   </filter>
  </entry>
 </playlist>
 <playlist id="playlist25"/>
 <tractor id="tractor12" in="00:00:00.000" out="00:01:46.800">
  <property name="kdenlive:trackheight">69</property>
  <property name="kdenlive:timeline_active">1</property>
  <property name="kdenlive:collapsed">28</property>
  <property name="kdenlive:track_name">caleb-handheld</property>
  <property name="kdenlive:thumbs_format">0</property>
  <property name="kdenlive:audio_rec"/>
  <track hide="audio" producer="playlist24"/>
  <track producer="playlist25"/>
 </tractor>
 <producer id="producer41" in="00:00:00.000" out="00:01:34.567">
  <property name="length">2838</property>
  <property name="eof">pause</property>
  <property name="resource">/home/ryankelln/.cache/kdenlive/proxy/da970b83fbe60ca04de6e51c97c1f0e2.mkv</property>
  <property name="audio_index">1</property>
  <property name="video_index">0</property>
  <property name="mute_on_pause">0</property>
  <property name="mlt_service">avformat-novalidate</property>
  <property name="seekable">1</property>
  <property name="aspect_ratio">1</property>
  <property name="kdenlive:clipname">2021-02-06_Chris_synth+4k_sarah_P1180161-take2_start.MP4</property>
  <property name="kdenlive:folderid">22</property>
  <property name="kdenlive:id">2</property>
  <property name="kdenlive:file_size">1132989340</property>
  <property name="kdenlive:file_hash">da970b83fbe60ca04de6e51c97c1f0e2</property>
  <property name="kdenlive:audio_max">1</property>
  <property name="global_feed">1</property>
  <property name="kdenlive:proxy">/home/ryankelln/.cache/kdenlive/proxy/da970b83fbe60ca04de6e51c97c1f0e2.mkv</property>
  <property name="kdenlive:originalurl">content/musicians/2021-02-06_Chris_synth+4k_sarah_P1180161-take2_start.MP4</property>
  <property name="kdenlive:original.mlt_type">producer</property>
  <property name="kdenlive:original.in">00:00:00.000</property>
  <property name="kdenlive:original.out">00:01:34.567</property>
  <property name="kdenlive:original.length">2838</property>
  <property name="kdenlive:original.eof">pause</property>
  <property name="kdenlive:original.resource">content/musicians/2021-02-06_Chris_synth+4k_sarah_P1180161-take2_start.MP4</property>
  <property name="kdenlive:original.audio_index">1</property>
  <property name="kdenlive:original.video_index">0</property>
  <property name="kdenlive:original.mute_on_pause">0</property>
  <property name="kdenlive:original.mlt_service">avformat-novalidate</property>
  <property name="kdenlive:original.id">producer22</property>
  <property name="kdenlive:original.meta.media.nb_streams">2</property>
  <property name="kdenlive:original.meta.media.0.stream.type">video</property>
  <property name="kdenlive:original.meta.media.0.stream.frame_rate">29.97</property>
  <property name="kdenlive:original.meta.media.0.stream.sample_aspect_ratio">1</property>
  <property name="kdenlive:original.meta.media.0.codec.width">3840</property>
  <property name="kdenlive:original.meta.media.0.codec.height">2160</property>
  <property name="kdenlive:original.meta.media.0.codec.rotate">0</property>
  <property name="kdenlive:original.meta.media.0.codec.frame_rate">29.97</property>
  <property name="kdenlive:original.meta.media.0.codec.pix_fmt">yuvj420p</property>
  <property name="kdenlive:original.meta.media.0.codec.sample_aspect_ratio">1</property>
  <property name="kdenlive:original.meta.media.0.codec.colorspace">709</property>
  <property name="kdenlive:original.meta.media.0.codec.color_trc">1</property>
  <property name="kdenlive:original.meta.media.0.codec.name">h264</property>
  <property name="kdenlive:original.meta.media.0.codec.long_name">H.264 / AVC / MPEG-4 AVC / MPEG-4 part 10</property>
  <property name="kdenlive:original.meta.media.0.codec.bit_rate">95752163</property>
  <property name="kdenlive:original.meta.attr.0.stream.creation_time.markup">2021-06-02T15:49:21.000000Z</property>
  <property name="kdenlive:original.meta.attr.0.stream.handler_name.markup">VideoHandler</property>
  <property name="kdenlive:original.meta.media.1.stream.type">audio</property>
  <property name="kdenlive:original.meta.media.1.codec.sample_fmt">fltp</property>
  <property name="kdenlive:original.meta.media.1.codec.sample_rate">48000</property>
  <property name="kdenlive:original.meta.media.1.codec.channels">2</property>
  <property name="kdenlive:original.meta.media.1.codec.name">aac</property>
  <property name="kdenlive:original.meta.media.1.codec.long_name">AAC (Advanced Audio Coding)</property>
  <property name="kdenlive:original.meta.media.1.codec.bit_rate">125360</property>
  <property name="kdenlive:original.meta.attr.1.stream.creation_time.markup">2021-06-02T15:49:21.000000Z</property>
  <property name="kdenlive:original.meta.attr.1.stream.handler_name.markup">SoundHandler</property>
  <property name="kdenlive:original.meta.attr.major_brand.markup">isom</property>
  <property name="kdenlive:original.meta.attr.minor_version.markup">512</property>
  <property name="kdenlive:original.meta.attr.compatible_brands.markup">isomiso2avc1mp41</property>
  <property name="kdenlive:original.meta.attr.creation_time.markup">2021-06-02T15:49:21.000000Z</property>
  <property name="kdenlive:original.meta.attr.encoder.markup">Lavf58.45.100</property>
  <property name="kdenlive:original.seekable">1</property>
  <property name="kdenlive:original.meta.media.sample_aspect_num">1</property>
  <property name="kdenlive:original.meta.media.sample_aspect_den">1</property>
  <property name="kdenlive:original.aspect_ratio">1</property>
  <property name="kdenlive:original.kdenlive:folderid">22</property>
  <property name="kdenlive:original.meta.media.frame_rate_num">30000</property>
  <property name="kdenlive:original.meta.media.frame_rate_den">1001</property>
  <property name="kdenlive:original.meta.media.colorspace">709</property>
  <property name="kdenlive:original.meta.media.color_trc">1</property>
  <property name="kdenlive:original.meta.media.width">3840</property>
  <property name="kdenlive:original.meta.media.height">2160</property>
  <property name="kdenlive:original.meta.media.color_range">full</property>
  <property name="kdenlive:original.kdenlive:id">21</property>
  <property name="kdenlive:original.kdenlive:file_size">1132989340</property>
  <property name="kdenlive:original.kdenlive:file_hash">da970b83fbe60ca04de6e51c97c1f0e2</property>
  <property name="kdenlive:original.kdenlive:audio_max">1</property>
  <property name="kdenlive:original.meta.media.top_field_first">0</property>
  <property name="kdenlive:original.meta.media.progressive">1</property>
  <property name="kdenlive:original.global_feed">1</property>
  <property name="kdenlive:original.width">3840</property>
  <property name="kdenlive:original.height">2160</property>
  <property name="kdenlive:original.backup">1</property>
  <property name="xml">was here</property>
  <property name="meta.media.nb_streams">2</property>
  <property name="meta.media.0.stream.type">video</property>
  <property name="meta.media.0.stream.frame_rate">29.97</property>
  <property name="meta.media.0.stream.sample_aspect_ratio">1</property>
  <property name="meta.media.0.codec.width">640</property>
  <property name="meta.media.0.codec.height">360</property>
  <property name="meta.media.0.codec.rotate">0</property>
  <property name="meta.media.0.codec.frame_rate">1000</property>
  <property name="meta.media.0.codec.pix_fmt">yuvj420p</property>
  <property name="meta.media.0.codec.sample_aspect_ratio">1</property>
  <property name="meta.media.0.codec.colorspace">601</property>
  <property name="meta.media.0.codec.name">mjpeg</property>
  <property name="meta.media.0.codec.long_name">MJPEG (Motion JPEG)</property>
  <property name="meta.media.0.codec.bit_rate">0</property>
  <property name="meta.attr.0.stream.HANDLER_NAME.markup">VideoHandler</property>
  <property name="meta.attr.0.stream.ENCODER.markup">Lavc58.91.100 mjpeg</property>
  <property name="meta.attr.0.stream.DURATION.markup">00:01:34.628000000</property>
  <property name="meta.media.1.stream.type">audio</property>
  <property name="meta.media.1.codec.sample_fmt">s16</property>
  <property name="meta.media.1.codec.sample_rate">48000</property>
  <property name="meta.media.1.codec.channels">2</property>
  <property name="meta.media.1.codec.name">pcm_s16le</property>
  <property name="meta.media.1.codec.long_name">PCM signed 16-bit little-endian</property>
  <property name="meta.media.1.codec.bit_rate">1536000</property>
  <property name="meta.attr.1.stream.HANDLER_NAME.markup">SoundHandler</property>
  <property name="meta.attr.1.stream.ENCODER.markup">Lavc58.91.100 pcm_s16le</property>
  <property name="meta.attr.1.stream.DURATION.markup">00:01:34.613000000</property>
  <property name="meta.attr.COMPATIBLE_BRANDS.markup">isomiso2avc1mp41</property>
  <property name="meta.attr.MAJOR_BRAND.markup">isom</property>
  <property name="meta.attr.MINOR_VERSION.markup">512</property>
  <property name="meta.attr.ENCODER.markup">Lavf58.45.100</property>
  <property name="meta.media.sample_aspect_num">1</property>
  <property name="meta.media.sample_aspect_den">1</property>
  <property name="meta.media.frame_rate_num">30000</property>
  <property name="meta.media.frame_rate_den">1001</property>
  <property name="meta.media.colorspace">601</property>
  <property name="meta.media.color_trc">2</property>
  <property name="meta.media.width">640</property>
  <property name="meta.media.height">360</property>
  <property name="meta.media.color_range">full</property>
  <property name="meta.media.top_field_first">0</property>
  <property name="meta.media.progressive">1</property>
  <property name="set.test_audio">1</property>
  <property name="set.test_image">1</property>
 </producer>
 <producer id="producer192" in="00:00:00.000" out="00:04:48.267">
  <property name="length">8649</property>
  <property name="eof">pause</property>
  <property name="resource">content/musicians/2021-06-02_Caleb+Chris_electric+synth+handheld+portrait_sarah_MVI_6003-take3_from_bass_solo.mp4</property>
  <property name="audio_index">-1</property>
  <property name="video_index">0</property>
  <property name="mute_on_pause">0</property>
  <property name="mlt_service">avformat-novalidate</property>
  <property name="seekable">1</property>
  <property name="aspect_ratio">1</property>
  <property name="kdenlive:clipname"/>
  <property name="kdenlive:folderid">22</property>
  <property name="kdenlive:id">5</property>
  <property name="kdenlive:file_size">1638843122</property>
  <property name="kdenlive:file_hash">5370f545878c3b9e987605c323045aa8</property>
  <property name="kdenlive:zone_in">2403</property>
  <property name="kdenlive:zone_out">8479</property>
  <property name="kdenlive:clipzones">[
    {
        "in": 650,
        "name": "Caleb-portrait-handheld",
        "out": 1845
    },
    {
        "in": 2403,
        "name": "Chris-portrait-handheld",
        "out": 8479
    }
]
</property>
  <property name="global_feed">1</property>
  <property name="xml">was here</property>
  <property name="meta.media.nb_streams">1</property>
  <property name="meta.media.0.stream.type">video</property>
  <property name="meta.media.0.stream.frame_rate">29.97</property>
  <property name="meta.media.0.stream.sample_aspect_ratio">0</property>
  <property name="meta.media.0.codec.width">1920</property>
  <property name="meta.media.0.codec.height">1080</property>
  <property name="meta.media.0.codec.rotate">90</property>
  <property name="meta.media.0.codec.frame_rate">30000</property>
  <property name="meta.media.0.codec.pix_fmt">yuvj420p</property>
  <property name="meta.media.0.codec.sample_aspect_ratio">0</property>
  <property name="meta.media.0.codec.colorspace">601</property>
  <property name="meta.media.0.codec.color_trc">1</property>
  <property name="meta.media.0.codec.name">h264</property>
  <property name="meta.media.0.codec.long_name">H.264 / AVC / MPEG-4 AVC / MPEG-4 part 10</property>
  <property name="meta.media.0.codec.bit_rate">45476678</property>
  <property name="meta.attr.0.stream.rotate.markup">90</property>
  <property name="meta.attr.0.stream.creation_time.markup">2021-06-02T16:15:36.000000Z</property>
  <property name="meta.attr.0.stream.language.markup">eng</property>
  <property name="meta.attr.0.stream.handler_name.markup">VideoHandler</property>
  <property name="meta.attr.major_brand.markup">isom</property>
  <property name="meta.attr.minor_version.markup">512</property>
  <property name="meta.attr.compatible_brands.markup">isomiso2avc1mp41</property>
  <property name="meta.attr.creation_time.markup">2021-06-02T16:15:36.000000Z</property>
  <property name="meta.attr.encoder.markup">Lavf58.45.100</property>
  <property name="meta.media.sample_aspect_num">1</property>
  <property name="meta.media.sample_aspect_den">1</property>
  <property name="meta.media.frame_rate_num">30000</property>
  <property name="meta.media.frame_rate_den">1001</property>
  <property name="meta.media.colorspace">601</property>
  <property name="meta.media.color_trc">1</property>
  <property name="meta.media.width">1080</property>
  <property name="meta.media.height">1920</property>
  <property name="meta.media.color_range">full</property>
  <property name="meta.media.top_field_first">0</property>
  <property name="meta.media.progressive">1</property>
  <property name="set.test_audio">1</property>
  <property name="set.test_image">0</property>
 </producer>
 <producer id="producer193" in="00:00:00.000" out="00:04:48.267">
  <property name="length">8649</property>
  <property name="eof">pause</property>
  <property name="resource">content/musicians/2021-06-02_Caleb+Chris_electric+synth+handheld+portrait_sarah_MVI_6003-take3_from_bass_solo.mp4</property>
  <property name="audio_index">-1</property>
  <property name="video_index">0</property>
  <property name="mute_on_pause">0</property>
  <property name="mlt_service">avformat-novalidate</property>
  <property name="seekable">1</property>
  <property name="aspect_ratio">1</property>
  <property name="kdenlive:clipname"/>
  <property name="kdenlive:folderid">22</property>
  <property name="kdenlive:id">5</property>
  <property name="kdenlive:file_size">1638843122</property>
  <property name="kdenlive:file_hash">5370f545878c3b9e987605c323045aa8</property>
  <property name="kdenlive:zone_in">2403</property>
  <property name="kdenlive:zone_out">8479</property>
  <property name="kdenlive:clipzones">[
    {
        "in": 650,
        "name": "Caleb-portrait-handheld",
        "out": 1845
    },
    {
        "in": 2403,
        "name": "Chris-portrait-handheld",
        "out": 8479
    }
]
</property>
  <property name="global_feed">1</property>
  <property name="xml">was here</property>
  <property name="meta.media.nb_streams">1</property>
  <property name="meta.media.0.stream.type">video</property>
  <property name="meta.media.0.stream.frame_rate">29.97</property>
  <property name="meta.media.0.stream.sample_aspect_ratio">0</property>
  <property name="meta.media.0.codec.width">1920</property>
  <property name="meta.media.0.codec.height">1080</property>
  <property name="meta.media.0.codec.rotate">90</property>
  <property name="meta.media.0.codec.frame_rate">30000</property>
  <property name="meta.media.0.codec.pix_fmt">yuvj420p</property>
  <property name="meta.media.0.codec.sample_aspect_ratio">0</property>
  <property name="meta.media.0.codec.colorspace">601</property>
  <property name="meta.media.0.codec.color_trc">1</property>
  <property name="meta.media.0.codec.name">h264</property>
  <property name="meta.media.0.codec.long_name">H.264 / AVC / MPEG-4 AVC / MPEG-4 part 10</property>
  <property name="meta.media.0.codec.bit_rate">45476678</property>
  <property name="meta.attr.0.stream.rotate.markup">90</property>
  <property name="meta.attr.0.stream.creation_time.markup">2021-06-02T16:15:36.000000Z</property>
  <property name="meta.attr.0.stream.language.markup">eng</property>
  <property name="meta.attr.0.stream.handler_name.markup">VideoHandler</property>
  <property name="meta.attr.major_brand.markup">isom</property>
  <property name="meta.attr.minor_version.markup">512</property>
  <property name="meta.attr.compatible_brands.markup">isomiso2avc1mp41</property>
  <property name="meta.attr.creation_time.markup">2021-06-02T16:15:36.000000Z</property>
  <property name="meta.attr.encoder.markup">Lavf58.45.100</property>
  <property name="meta.media.sample_aspect_num">1</property>
  <property name="meta.media.sample_aspect_den">1</property>
  <property name="meta.media.frame_rate_num">30000</property>
  <property name="meta.media.frame_rate_den">1001</property>
  <property name="meta.media.colorspace">601</property>
  <property name="meta.media.color_trc">1</property>
  <property name="meta.media.width">1080</property>
  <property name="meta.media.height">1920</property>
  <property name="meta.media.color_range">full</property>
  <property name="meta.media.top_field_first">0</property>
  <property name="meta.media.progressive">1</property>
  <property name="set.test_audio">1</property>
  <property name="set.test_image">0</property>
 </producer>
 <producer id="producer194" in="00:00:00.000" out="00:04:48.267">
  <property name="length">8649</property>
  <property name="eof">pause</property>
  <property name="resource">content/musicians/2021-06-02_Caleb+Chris_electric+synth+handheld+portrait_sarah_MVI_6003-take3_from_bass_solo.mp4</property>
  <property name="audio_index">-1</property>
  <property name="video_index">0</property>
  <property name="mute_on_pause">0</property>
  <property name="mlt_service">avformat-novalidate</property>
  <property name="seekable">1</property>
  <property name="aspect_ratio">1</property>
  <property name="kdenlive:clipname"/>
  <property name="kdenlive:folderid">22</property>
  <property name="kdenlive:id">5</property>
  <property name="kdenlive:file_size">1638843122</property>
  <property name="kdenlive:file_hash">5370f545878c3b9e987605c323045aa8</property>
  <property name="kdenlive:zone_in">2403</property>
  <property name="kdenlive:zone_out">8479</property>
  <property name="kdenlive:clipzones">[
    {
        "in": 650,
        "name": "Caleb-portrait-handheld",
        "out": 1845
    },
    {
        "in": 2403,
        "name": "Chris-portrait-handheld",
        "out": 8479
    }
]
</property>
  <property name="global_feed">1</property>
  <property name="xml">was here</property>
  <property name="meta.media.nb_streams">1</property>
  <property name="meta.media.0.stream.type">video</property>
  <property name="meta.media.0.stream.frame_rate">29.97</property>
  <property name="meta.media.0.stream.sample_aspect_ratio">0</property>
  <property name="meta.media.0.codec.width">1920</property>
  <property name="meta.media.0.codec.height">1080</property>
  <property name="meta.media.0.codec.rotate">90</property>
  <property name="meta.media.0.codec.frame_rate">30000</property>
  <property name="meta.media.0.codec.pix_fmt">yuvj420p</property>
  <property name="meta.media.0.codec.sample_aspect_ratio">0</property>
  <property name="meta.media.0.codec.colorspace">601</property>
  <property name="meta.media.0.codec.color_trc">1</property>
  <property name="meta.media.0.codec.name">h264</property>
  <property name="meta.media.0.codec.long_name">H.264 / AVC / MPEG-4 AVC / MPEG-4 part 10</property>
  <property name="meta.media.0.codec.bit_rate">45476678</property>
  <property name="meta.attr.0.stream.rotate.markup">90</property>
  <property name="meta.attr.0.stream.creation_time.markup">2021-06-02T16:15:36.000000Z</property>
  <property name="meta.attr.0.stream.language.markup">eng</property>
  <property name="meta.attr.0.stream.handler_name.markup">VideoHandler</property>
  <property name="meta.attr.major_brand.markup">isom</property>
  <property name="meta.attr.minor_version.markup">512</property>
  <property name="meta.attr.compatible_brands.markup">isomiso2avc1mp41</property>
  <property name="meta.attr.creation_time.markup">2021-06-02T16:15:36.000000Z</property>
  <property name="meta.attr.encoder.markup">Lavf58.45.100</property>
  <property name="meta.media.sample_aspect_num">1</property>
  <property name="meta.media.sample_aspect_den">1</property>
  <property name="meta.media.frame_rate_num">30000</property>
  <property name="meta.media.frame_rate_den">1001</property>
  <property name="meta.media.colorspace">601</property>
  <property name="meta.media.color_trc">1</property>
  <property name="meta.media.width">1080</property>
  <property name="meta.media.height">1920</property>
  <property name="meta.media.color_range">full</property>
  <property name="meta.media.top_field_first">0</property>
  <property name="meta.media.progressive">1</property>
  <property name="set.test_audio">1</property>
  <property name="set.test_image">0</property>
 </producer>
 <producer id="producer43" in="00:00:00.000" out="00:04:48.267">
  <property name="length">8649</property>
  <property name="eof">pause</property>
  <property name="resource">content/musicians/2021-06-02_Caleb+Chris_electric+synth+handheld+portrait_sarah_MVI_6003-take3_from_bass_solo.mp4</property>
  <property name="audio_index">-1</property>
  <property name="video_index">0</property>
  <property name="mute_on_pause">0</property>
  <property name="mlt_service">avformat-novalidate</property>
  <property name="seekable">1</property>
  <property name="aspect_ratio">1</property>
  <property name="kdenlive:clipname"/>
  <property name="kdenlive:folderid">22</property>
  <property name="kdenlive:id">5</property>
  <property name="kdenlive:file_size">1638843122</property>
  <property name="kdenlive:file_hash">5370f545878c3b9e987605c323045aa8</property>
  <property name="kdenlive:zone_in">2403</property>
  <property name="kdenlive:zone_out">8479</property>
  <property name="kdenlive:clipzones">[
    {
        "in": 650,
        "name": "Caleb-portrait-handheld",
        "out": 1845
    },
    {
        "in": 2403,
        "name": "Chris-portrait-handheld",
        "out": 8479
    }
]
</property>
  <property name="global_feed">1</property>
  <property name="xml">was here</property>
  <property name="meta.media.nb_streams">1</property>
  <property name="meta.media.0.stream.type">video</property>
  <property name="meta.media.0.stream.frame_rate">29.97</property>
  <property name="meta.media.0.stream.sample_aspect_ratio">0</property>
  <property name="meta.media.0.codec.width">1920</property>
  <property name="meta.media.0.codec.height">1080</property>
  <property name="meta.media.0.codec.rotate">90</property>
  <property name="meta.media.0.codec.frame_rate">30000</property>
  <property name="meta.media.0.codec.pix_fmt">yuvj420p</property>
  <property name="meta.media.0.codec.sample_aspect_ratio">0</property>
  <property name="meta.media.0.codec.colorspace">601</property>
  <property name="meta.media.0.codec.color_trc">1</property>
  <property name="meta.media.0.codec.name">h264</property>
  <property name="meta.media.0.codec.long_name">H.264 / AVC / MPEG-4 AVC / MPEG-4 part 10</property>
  <property name="meta.media.0.codec.bit_rate">45476678</property>
  <property name="meta.attr.0.stream.rotate.markup">90</property>
  <property name="meta.attr.0.stream.creation_time.markup">2021-06-02T16:15:36.000000Z</property>
  <property name="meta.attr.0.stream.language.markup">eng</property>
  <property name="meta.attr.0.stream.handler_name.markup">VideoHandler</property>
  <property name="meta.attr.major_brand.markup">isom</property>
  <property name="meta.attr.minor_version.markup">512</property>
  <property name="meta.attr.compatible_brands.markup">isomiso2avc1mp41</property>
  <property name="meta.attr.creation_time.markup">2021-06-02T16:15:36.000000Z</property>
  <property name="meta.attr.encoder.markup">Lavf58.45.100</property>
  <property name="meta.media.sample_aspect_num">1</property>
  <property name="meta.media.sample_aspect_den">1</property>
  <property name="meta.media.frame_rate_num">30000</property>
  <property name="meta.media.frame_rate_den">1001</property>
  <property name="meta.media.colorspace">601</property>
  <property name="meta.media.color_trc">1</property>
  <property name="meta.media.width">1080</property>
  <property name="meta.media.height">1920</property>
  <property name="meta.media.color_range">full</property>
  <property name="meta.media.top_field_first">0</property>
  <property name="meta.media.progressive">1</property>
  <property name="set.test_audio">1</property>
  <property name="set.test_image">1</property>
 </producer>
 <playlist id="playlist26">
  <blank length="00:00:28.433"/>
  <entry producer="producer41" in="00:00:13.167" out="00:00:31.200">
   <property name="kdenlive:id">2</property>
  </entry>
  <blank length="00:01:17.000"/>
  <entry producer="producer192" in="00:01:18.167" out="00:01:47.767">
   <property name="kdenlive:id">5</property>
   <filter id="filter255">
    <property name="rotate_center">1</property>
    <property name="mlt_service">qtblend</property>
    <property name="kdenlive_id">qtblend</property>
    <property name="rect">00:01:18.167=0 1 608 1080 1.000000</property>
    <property name="rotation">00:01:18.167=0</property>
    <property name="compositing">0</property>
    <property name="distort">1</property>
    <property name="kdenlive:collapsed">0</property>
   </filter>
   <filter id="filter256">
    <property name="version">0.6</property>
    <property name="mlt_service">frei0r.select0r</property>
    <property name="kdenlive_id">frei0r.select0r</property>
    <property name="Color to select">0x30674aff</property>
    <property name="Invert selection">1</property>
    <property name="Selection subspace">1</property>
    <property name="Subspace shape">0.5</property>
    <property name="Edge mode">0.9</property>
    <property name="Delta R / A / Hue">00:01:18.167=0.105</property>
    <property name="Delta G / B / Chroma">00:01:18.167=0.117</property>
    <property name="Delta B / I / I">00:01:18.167=0.139</property>
    <property name="Slope">00:01:18.167=0.124</property>
    <property name="Operation">0.5</property>
    <property name="kdenlive:collapsed">0</property>
   </filter>
   <filter id="filter257">
    <property name="version">0.3</property>
    <property name="mlt_service">frei0r.keyspillm0pup</property>
    <property name="kdenlive_id">frei0r.keyspillm0pup</property>
    <property name="Key color">0x439067ff</property>
    <property name="Target color">0xC87F65ff</property>
    <property name="Mask type">0</property>
    <property name="Tolerance">00:01:18.167=0.179</property>
    <property name="Slope">00:01:18.167=0.4</property>
    <property name="Hue gate">00:01:18.167=0.229</property>
    <property name="Saturation threshold">00:01:18.167=0.113</property>
    <property name="Operation 1">1</property>
    <property name="Amount 1">00:01:18.167=0.5</property>
    <property name="Operation 2">4</property>
    <property name="Amount 2">00:01:18.167=0.209</property>
    <property name="Show mask">0</property>
    <property name="Mask to Alpha">0</property>
    <property name="kdenlive:collapsed">0</property>
   </filter>
  </entry>
  <entry producer="producer193" in="00:01:47.800" out="00:01:48.333">
   <property name="kdenlive:id">5</property>
   <filter id="filter258">
    <property name="rotate_center">1</property>
    <property name="mlt_service">qtblend</property>
    <property name="kdenlive_id">qtblend</property>
    <property name="rect">00:01:47.800=0 1 608 1080 1.000000;00:01:48.333=1310 3 608 1080 1.000000</property>
    <property name="rotation">00:01:47.800=0;00:01:48.333=0</property>
    <property name="compositing">0</property>
    <property name="distort">1</property>
    <property name="kdenlive:collapsed">0</property>
   </filter>
   <filter id="filter259">
    <property name="version">0.6</property>
    <property name="mlt_service">frei0r.select0r</property>
    <property name="kdenlive_id">frei0r.select0r</property>
    <property name="Color to select">0x30674aff</property>
    <property name="Invert selection">1</property>
    <property name="Selection subspace">1</property>
    <property name="Subspace shape">0.5</property>
    <property name="Edge mode">0.9</property>
    <property name="Delta R / A / Hue">00:01:47.800=0.105</property>
    <property name="Delta G / B / Chroma">00:01:47.800=0.117</property>
    <property name="Delta B / I / I">00:01:47.800=0.139</property>
    <property name="Slope">00:01:47.800=0.124</property>
    <property name="Operation">0.5</property>
    <property name="kdenlive:collapsed">0</property>
   </filter>
   <filter id="filter260">
    <property name="version">0.3</property>
    <property name="mlt_service">frei0r.keyspillm0pup</property>
    <property name="kdenlive_id">frei0r.keyspillm0pup</property>
    <property name="Key color">0x439067ff</property>
    <property name="Target color">0xC87F65ff</property>
    <property name="Mask type">0</property>
    <property name="Tolerance">00:01:47.800=0.179</property>
    <property name="Slope">00:01:47.800=0.4</property>
    <property name="Hue gate">00:01:47.800=0.229</property>
    <property name="Saturation threshold">00:01:47.800=0.113</property>
    <property name="Operation 1">1</property>
    <property name="Amount 1">00:01:47.800=0.5</property>
    <property name="Operation 2">4</property>
    <property name="Amount 2">00:01:47.800=0.209</property>
    <property name="Show mask">0</property>
    <property name="Mask to Alpha">0</property>
    <property name="kdenlive:collapsed">0</property>
   </filter>
  </entry>
  <entry producer="producer193" in="00:01:48.367" out="00:02:53.833">
   <property name="kdenlive:id">5</property>
   <filter id="filter261">
    <property name="rotate_center">1</property>
    <property name="mlt_service">qtblend</property>
    <property name="kdenlive_id">qtblend</property>
    <property name="rect">00:01:48.367=1310 1 608 1080 1.000000</property>
    <property name="rotation">00:01:48.367=0</property>
    <property name="compositing">0</property>
    <property name="distort">0</property>
    <property name="kdenlive:collapsed">0</property>
   </filter>
   <filter id="filter262">
    <property name="version">0.6</property>
    <property name="mlt_service">frei0r.select0r</property>
    <property name="kdenlive_id">frei0r.select0r</property>
    <property name="Color to select">0x30674aff</property>
    <property name="Invert selection">1</property>
    <property name="Selection subspace">1</property>
    <property name="Subspace shape">0.5</property>
    <property name="Edge mode">0.9</property>
    <property name="Delta R / A / Hue">00:01:48.367=0.105</property>
    <property name="Delta G / B / Chroma">00:01:48.367=0.117</property>
    <property name="Delta B / I / I">00:01:48.367=0.139</property>
    <property name="Slope">00:01:48.367=0.124</property>
    <property name="Operation">0.5</property>
    <property name="kdenlive:collapsed">0</property>
   </filter>
   <filter id="filter263">
    <property name="version">0.3</property>
    <property name="mlt_service">frei0r.keyspillm0pup</property>
    <property name="kdenlive_id">frei0r.keyspillm0pup</property>
    <property name="Key color">0x439067ff</property>
    <property name="Target color">0xC87F65ff</property>
    <property name="Mask type">0</property>
    <property name="Tolerance">00:01:48.367=0.179</property>
    <property name="Slope">00:01:48.367=0.4</property>
    <property name="Hue gate">00:01:48.367=0.229</property>
    <property name="Saturation threshold">00:01:48.367=0.113</property>
    <property name="Operation 1">1</property>
    <property name="Amount 1">00:01:48.367=0.5</property>
    <property name="Operation 2">4</property>
    <property name="Amount 2">00:01:48.367=0.209</property>
    <property name="Show mask">0</property>
    <property name="Mask to Alpha">0</property>
    <property name="kdenlive:collapsed">0</property>
   </filter>
  </entry>
  <entry producer="producer194" in="00:02:53.867" out="00:02:55.000">
   <property name="kdenlive:id">5</property>
   <filter id="filter264">
    <property name="rotate_center">1</property>
    <property name="mlt_service">qtblend</property>
    <property name="kdenlive_id">qtblend</property>
    <property name="rect">00:02:53.867=1310 1 608 1080 1.000000</property>
    <property name="rotation">00:02:53.867=0</property>
    <property name="compositing">0</property>
    <property name="distort">0</property>
   </filter>
   <filter id="filter265">
    <property name="version">0.6</property>
    <property name="mlt_service">frei0r.select0r</property>
    <property name="kdenlive_id">frei0r.select0r</property>
    <property name="Color to select">0x30674aff</property>
    <property name="Invert selection">1</property>
    <property name="Selection subspace">1</property>
    <property name="Subspace shape">0.5</property>
    <property name="Edge mode">0.9</property>
    <property name="Delta R / A / Hue">00:02:53.867=0.105</property>
    <property name="Delta G / B / Chroma">00:02:53.867=0.117</property>
    <property name="Delta B / I / I">00:02:53.867=0.139</property>
    <property name="Slope">00:02:53.867=0.124</property>
    <property name="Operation">0.5</property>
   </filter>
   <filter id="filter266">
    <property name="version">0.3</property>
    <property name="mlt_service">frei0r.keyspillm0pup</property>
    <property name="kdenlive_id">frei0r.keyspillm0pup</property>
    <property name="Key color">0x439067ff</property>
    <property name="Target color">0xC87F65ff</property>
    <property name="Mask type">0</property>
    <property name="Tolerance">00:02:53.867=0.179</property>
    <property name="Slope">00:02:53.867=0.4</property>
    <property name="Hue gate">00:02:53.867=0.229</property>
    <property name="Saturation threshold">00:02:53.867=0.113</property>
    <property name="Operation 1">1</property>
    <property name="Amount 1">00:02:53.867=0.5</property>
    <property name="Operation 2">4</property>
    <property name="Amount 2">00:02:53.867=0.209</property>
    <property name="Show mask">0</property>
    <property name="Mask to Alpha">0</property>
   </filter>
  </entry>
  <entry producer="producer43" in="00:02:55.033" out="00:03:00.133">
   <property name="kdenlive:id">5</property>
   <filter id="filter267">
    <property name="rotate_center">1</property>
    <property name="mlt_service">qtblend</property>
    <property name="kdenlive_id">qtblend</property>
    <property name="rect">00:02:55.033=0 0 608 1080 1.000000</property>
    <property name="rotation">00:02:55.033=0</property>
    <property name="compositing">0</property>
    <property name="distort">0</property>
    <property name="kdenlive:collapsed">0</property>
   </filter>
  </entry>
  <entry producer="producer43" in="00:03:00.167" out="00:03:00.167">
   <property name="kdenlive:id">5</property>
   <filter id="filter268">
    <property name="rotate_center">1</property>
    <property name="mlt_service">qtblend</property>
    <property name="kdenlive_id">qtblend</property>
    <property name="rect">5405=0 0 608 1080 1.000000</property>
    <property name="rotation">5405=0</property>
    <property name="compositing">0</property>
    <property name="distort">0</property>
   </filter>
  </entry>
  <entry producer="producer43" in="00:03:00.200" out="00:04:48.267">
   <property name="kdenlive:id">5</property>
   <filter id="filter269">
    <property name="rotate_center">1</property>
    <property name="mlt_service">qtblend</property>
    <property name="kdenlive_id">qtblend</property>
    <property name="rect">5406=0 0 608 1080 1.000000</property>
    <property name="rotation">5406=0</property>
    <property name="compositing">0</property>
    <property name="distort">0</property>
   </filter>
  </entry>
 </playlist>
 <playlist id="playlist27"/>
 <tractor id="tractor13" in="00:00:00.000" out="00:05:33.600">
  <property name="kdenlive:trackheight">69</property>
  <property name="kdenlive:timeline_active">1</property>
  <property name="kdenlive:collapsed">0</property>
  <property name="kdenlive:track_name">chris2</property>
  <property name="kdenlive:thumbs_format"/>
  <property name="kdenlive:audio_rec"/>
  <track hide="audio" producer="playlist26"/>
  <track producer="playlist27"/>
 </tractor>
 <producer id="producer44" in="00:00:00.000" out="00:04:49.833">
  <property name="length">8696</property>
  <property name="eof">pause</property>
  <property name="resource">/home/ryankelln/.cache/kdenlive/proxy/a281898ead78dab9d417b8c3e676a6c8.mkv</property>
  <property name="audio_index">1</property>
  <property name="video_index">0</property>
  <property name="mute_on_pause">0</property>
  <property name="mlt_service">avformat-novalidate</property>
  <property name="seekable">1</property>
  <property name="aspect_ratio">1</property>
  <property name="kdenlive:clipname">2021-02-06_Chris_synth+4k_sarah_P1180162-take3_partial_from_bass_solo.MP4</property>
  <property name="kdenlive:folderid">22</property>
  <property name="kdenlive:id">3</property>
  <property name="kdenlive:file_size">3475788005</property>
  <property name="kdenlive:file_hash">a281898ead78dab9d417b8c3e676a6c8</property>
  <property name="kdenlive:audio_max">1</property>
  <property name="global_feed">1</property>
  <property name="kdenlive:proxy">/home/ryankelln/.cache/kdenlive/proxy/a281898ead78dab9d417b8c3e676a6c8.mkv</property>
  <property name="kdenlive:originalurl">content/musicians/2021-02-06_Chris_synth+4k_sarah_P1180162-take3_partial_from_bass_solo.MP4</property>
  <property name="kdenlive:original.mlt_type">producer</property>
  <property name="kdenlive:original.in">00:00:00.000</property>
  <property name="kdenlive:original.out">00:04:49.833</property>
  <property name="kdenlive:original.length">8696</property>
  <property name="kdenlive:original.eof">pause</property>
  <property name="kdenlive:original.resource">content/musicians/2021-02-06_Chris_synth+4k_sarah_P1180162-take3_partial_from_bass_solo.MP4</property>
  <property name="kdenlive:original.audio_index">1</property>
  <property name="kdenlive:original.video_index">0</property>
  <property name="kdenlive:original.mute_on_pause">0</property>
  <property name="kdenlive:original.mlt_service">avformat-novalidate</property>
  <property name="kdenlive:original.id">producer21</property>
  <property name="kdenlive:original.meta.media.nb_streams">2</property>
  <property name="kdenlive:original.meta.media.0.stream.type">video</property>
  <property name="kdenlive:original.meta.media.0.stream.frame_rate">29.9699</property>
  <property name="kdenlive:original.meta.media.0.stream.sample_aspect_ratio">1</property>
  <property name="kdenlive:original.meta.media.0.codec.width">3840</property>
  <property name="kdenlive:original.meta.media.0.codec.height">2160</property>
  <property name="kdenlive:original.meta.media.0.codec.rotate">0</property>
  <property name="kdenlive:original.meta.media.0.codec.frame_rate">29.97</property>
  <property name="kdenlive:original.meta.media.0.codec.pix_fmt">yuvj420p</property>
  <property name="kdenlive:original.meta.media.0.codec.sample_aspect_ratio">1</property>
  <property name="kdenlive:original.meta.media.0.codec.colorspace">709</property>
  <property name="kdenlive:original.meta.media.0.codec.color_trc">1</property>
  <property name="kdenlive:original.meta.media.0.codec.name">h264</property>
  <property name="kdenlive:original.meta.media.0.codec.long_name">H.264 / AVC / MPEG-4 AVC / MPEG-4 part 10</property>
  <property name="kdenlive:original.meta.media.0.codec.bit_rate">95808168</property>
  <property name="kdenlive:original.meta.attr.0.stream.handler_name.markup">VideoHandler</property>
  <property name="kdenlive:original.meta.media.1.stream.type">audio</property>
  <property name="kdenlive:original.meta.media.1.codec.sample_fmt">fltp</property>
  <property name="kdenlive:original.meta.media.1.codec.sample_rate">48000</property>
  <property name="kdenlive:original.meta.media.1.codec.channels">2</property>
  <property name="kdenlive:original.meta.media.1.codec.name">aac</property>
  <property name="kdenlive:original.meta.media.1.codec.long_name">AAC (Advanced Audio Coding)</property>
  <property name="kdenlive:original.meta.media.1.codec.bit_rate">125377</property>
  <property name="kdenlive:original.meta.attr.1.stream.handler_name.markup">SoundHandler</property>
  <property name="kdenlive:original.meta.attr.major_brand.markup">isom</property>
  <property name="kdenlive:original.meta.attr.minor_version.markup">512</property>
  <property name="kdenlive:original.meta.attr.compatible_brands.markup">isomiso2avc1mp41</property>
  <property name="kdenlive:original.meta.attr.encoder.markup">Lavf58.45.100</property>
  <property name="kdenlive:original.seekable">1</property>
  <property name="kdenlive:original.meta.media.sample_aspect_num">1</property>
  <property name="kdenlive:original.meta.media.sample_aspect_den">1</property>
  <property name="kdenlive:original.aspect_ratio">1</property>
  <property name="kdenlive:original.kdenlive:folderid">22</property>
  <property name="kdenlive:original.meta.media.frame_rate_num">65145000</property>
  <property name="kdenlive:original.meta.media.frame_rate_den">2173679</property>
  <property name="kdenlive:original.meta.media.colorspace">709</property>
  <property name="kdenlive:original.meta.media.color_trc">1</property>
  <property name="kdenlive:original.meta.media.width">3840</property>
  <property name="kdenlive:original.meta.media.height">2160</property>
  <property name="kdenlive:original.meta.media.color_range">full</property>
  <property name="kdenlive:original.kdenlive:id">23</property>
  <property name="kdenlive:original.kdenlive:file_size">3475788005</property>
  <property name="kdenlive:original.kdenlive:file_hash">a281898ead78dab9d417b8c3e676a6c8</property>
  <property name="kdenlive:original.kdenlive:audio_max">1</property>
  <property name="kdenlive:original.meta.media.top_field_first">0</property>
  <property name="kdenlive:original.meta.media.progressive">1</property>
  <property name="kdenlive:original.global_feed">1</property>
  <property name="kdenlive:original.width">3840</property>
  <property name="kdenlive:original.height">2160</property>
  <property name="kdenlive:original.backup">1</property>
  <property name="kdenlive:activeeffect">-1</property>
  <property name="xml">was here</property>
  <property name="meta.media.nb_streams">2</property>
  <property name="meta.media.0.stream.type">video</property>
  <property name="meta.media.0.stream.frame_rate">29.97</property>
  <property name="meta.media.0.stream.sample_aspect_ratio">1</property>
  <property name="meta.media.0.codec.width">640</property>
  <property name="meta.media.0.codec.height">360</property>
  <property name="meta.media.0.codec.rotate">0</property>
  <property name="meta.media.0.codec.frame_rate">1000</property>
  <property name="meta.media.0.codec.pix_fmt">yuvj420p</property>
  <property name="meta.media.0.codec.sample_aspect_ratio">1</property>
  <property name="meta.media.0.codec.colorspace">601</property>
  <property name="meta.media.0.codec.name">mjpeg</property>
  <property name="meta.media.0.codec.long_name">MJPEG (Motion JPEG)</property>
  <property name="meta.media.0.codec.bit_rate">0</property>
  <property name="meta.attr.0.stream.HANDLER_NAME.markup">VideoHandler</property>
  <property name="meta.attr.0.stream.ENCODER.markup">Lavc58.91.100 mjpeg</property>
  <property name="meta.attr.0.stream.DURATION.markup">00:04:49.923000000</property>
  <property name="meta.media.1.stream.type">audio</property>
  <property name="meta.media.1.codec.sample_fmt">s16</property>
  <property name="meta.media.1.codec.sample_rate">48000</property>
  <property name="meta.media.1.codec.channels">2</property>
  <property name="meta.media.1.codec.name">pcm_s16le</property>
  <property name="meta.media.1.codec.long_name">PCM signed 16-bit little-endian</property>
  <property name="meta.media.1.codec.bit_rate">1536000</property>
  <property name="meta.attr.1.stream.HANDLER_NAME.markup">SoundHandler</property>
  <property name="meta.attr.1.stream.ENCODER.markup">Lavc58.91.100 pcm_s16le</property>
  <property name="meta.attr.1.stream.DURATION.markup">00:04:49.851000000</property>
  <property name="meta.attr.COMPATIBLE_BRANDS.markup">isomiso2avc1mp41</property>
  <property name="meta.attr.MAJOR_BRAND.markup">isom</property>
  <property name="meta.attr.MINOR_VERSION.markup">512</property>
  <property name="meta.attr.ENCODER.markup">Lavf58.45.100</property>
  <property name="meta.media.sample_aspect_num">1</property>
  <property name="meta.media.sample_aspect_den">1</property>
  <property name="meta.media.frame_rate_num">30000</property>
  <property name="meta.media.frame_rate_den">1001</property>
  <property name="meta.media.colorspace">601</property>
  <property name="meta.media.color_trc">2</property>
  <property name="meta.media.width">640</property>
  <property name="meta.media.height">360</property>
  <property name="meta.media.color_range">full</property>
  <property name="meta.media.top_field_first">0</property>
  <property name="meta.media.progressive">1</property>
  <property name="set.test_audio">1</property>
  <property name="set.test_image">1</property>
 </producer>
 <playlist id="playlist28">
  <blank length="00:00:47.567"/>
  <entry producer="producer44" in="00:00:01.700" out="00:01:47.800">
   <property name="kdenlive:id">3</property>
  </entry>
  <entry producer="producer44" in="00:01:47.833" out="00:02:54.467">
   <property name="kdenlive:id">3</property>
   <filter id="filter270">
    <property name="version">0.1</property>
    <property name="mlt_service">frei0r.alphaspot</property>
    <property name="kdenlive_id">frei0r.alphaspot</property>
    <property name="Shape">0</property>
    <property name="Position X">00:01:47.833=0.698</property>
    <property name="Position Y">00:01:47.833=0.5</property>
    <property name="Size X">00:01:47.833=0.382</property>
    <property name="Size Y">00:01:47.833=1</property>
    <property name="Tilt">00:01:47.833=0.5</property>
    <property name="Transition width">00:01:47.833=0</property>
    <property name="Min">00:01:47.833=0</property>
    <property name="Max">00:01:47.833=1</property>
    <property name="Operation">0</property>
    <property name="kdenlive:collapsed">0</property>
   </filter>
   <filter id="filter271" in="00:01:47.833" out="00:01:48.967">
    <property name="start">0</property>
    <property name="mlt_service">brightness</property>
    <property name="kdenlive_id">fade_from_black</property>
    <property name="end">1</property>
    <property name="alpha">-1</property>
    <property name="kdenlive:collapsed">0</property>
   </filter>
   <filter id="filter272">
    <property name="version">0.1</property>
    <property name="mlt_service">frei0r.hqdn3d</property>
    <property name="kdenlive_id">frei0r.hqdn3d</property>
    <property name="Spatial">00:01:47.833=0.02</property>
    <property name="Temporal">00:01:47.833=0.01</property>
    <property name="kdenlive:collapsed">0</property>
   </filter>
   <filter id="filter273">
    <property name="version">0.6</property>
    <property name="mlt_service">frei0r.select0r</property>
    <property name="kdenlive_id">frei0r.select0r</property>
    <property name="Color to select">0x5f9f62ff</property>
    <property name="Invert selection">1</property>
    <property name="Selection subspace">1</property>
    <property name="Subspace shape">0</property>
    <property name="Edge mode">0.6</property>
    <property name="Delta R / A / Hue">00:01:47.833=0.07</property>
    <property name="Delta G / B / Chroma">00:01:47.833=0.19</property>
    <property name="Delta B / I / I">00:01:47.833=0.358</property>
    <property name="Slope">00:01:47.833=0.152</property>
    <property name="Operation">0.5</property>
    <property name="kdenlive:collapsed">0</property>
   </filter>
   <filter id="filter274">
    <property name="version">0.4</property>
    <property name="mlt_service">frei0r.alpha0ps</property>
    <property name="kdenlive_id">frei0r.alpha0ps</property>
    <property name="Display">0</property>
    <property name="Display input alpha">0</property>
    <property name="Operation">1</property>
    <property name="Threshold">00:01:47.833=0.5</property>
    <property name="Shrink/Grow/Blur amount">00:01:47.833=0.045</property>
    <property name="Invert">0</property>
    <property name="kdenlive:collapsed">0</property>
   </filter>
   <filter id="filter275">
    <property name="version">0.3</property>
    <property name="mlt_service">frei0r.keyspillm0pup</property>
    <property name="kdenlive_id">frei0r.keyspillm0pup</property>
    <property name="Key color">0x69b16cff</property>
    <property name="Target color">0xC87F65ff</property>
    <property name="Mask type">0</property>
    <property name="Tolerance">00:01:47.833=0.148</property>
    <property name="Slope">00:01:47.833=0.151</property>
    <property name="Hue gate">00:01:47.833=0.133</property>
    <property name="Saturation threshold">00:01:47.833=0.106</property>
    <property name="Operation 1">1</property>
    <property name="Amount 1">00:01:47.833=0.78</property>
    <property name="Operation 2">3</property>
    <property name="Amount 2">00:01:47.833=0.084</property>
    <property name="Show mask">0</property>
    <property name="Mask to Alpha">0</property>
    <property name="kdenlive:collapsed">0</property>
   </filter>
   <filter id="filter276">
    <property name="mlt_service">avfilter.hflip</property>
    <property name="kdenlive_id">avfilter.hflip</property>
    <property name="kdenlive:collapsed">0</property>
   </filter>
   <filter id="filter277">
    <property name="rotate_center">1</property>
    <property name="mlt_service">qtblend</property>
    <property name="kdenlive_id">qtblend</property>
    <property name="rect">00:01:47.833=0 0 1920 1080 0.400000</property>
    <property name="rotation">00:01:47.833=0</property>
    <property name="compositing">0</property>
    <property name="distort">0</property>
    <property name="kdenlive:collapsed">0</property>
   </filter>
  </entry>
  <entry producer="producer44" in="00:02:54.500" out="00:04:49.833">
   <property name="kdenlive:id">3</property>
   <filter id="filter278">
    <property name="version">0.1</property>
    <property name="mlt_service">frei0r.alphaspot</property>
    <property name="kdenlive_id">frei0r.alphaspot</property>
    <property name="Shape">0</property>
    <property name="Position X">00:02:54.500=0.698</property>
    <property name="Position Y">00:02:54.500=0.5</property>
    <property name="Size X">00:02:54.500=0.382</property>
    <property name="Size Y">00:02:54.500=1</property>
    <property name="Tilt">00:02:54.500=0.5</property>
    <property name="Transition width">00:02:54.500=0</property>
    <property name="Min">00:02:54.500=0</property>
    <property name="Max">00:02:54.500=1</property>
    <property name="Operation">0</property>
    <property name="kdenlive:collapsed">0</property>
   </filter>
  </entry>
 </playlist>
 <playlist id="playlist29"/>
 <tractor id="tractor14" in="00:00:00.000" out="00:05:35.700">
  <property name="kdenlive:trackheight">69</property>
  <property name="kdenlive:timeline_active">1</property>
  <property name="kdenlive:collapsed">28</property>
  <property name="kdenlive:track_name">chris1</property>
  <property name="kdenlive:thumbs_format"/>
  <property name="kdenlive:audio_rec"/>
  <property name="kdenlive:locked_track">1</property>
  <track hide="both" producer="playlist28"/>
  <track producer="playlist29"/>
 </tractor>
 <producer id="producer45" in="00:00:00.000" out="00:01:27.000">
  <property name="length">2611</property>
  <property name="eof">pause</property>
  <property name="resource">content/hot_bod_120000_f34ec270_bass_solo_electric.mp4</property>
  <property name="audio_index">1</property>
  <property name="video_index">0</property>
  <property name="mute_on_pause">0</property>
  <property name="mlt_service">avformat-novalidate</property>
  <property name="seekable">1</property>
  <property name="aspect_ratio">1</property>
  <property name="kdenlive:clipname"/>
  <property name="kdenlive:folderid">34</property>
  <property name="kdenlive:id">13</property>
  <property name="kdenlive:file_size">42205163</property>
  <property name="kdenlive:file_hash">171649c24b36ba48a3814e00fb965f33</property>
  <property name="kdenlive:audio_max">4</property>
  <property name="global_feed">1</property>
  <property name="xml">was here</property>
  <property name="meta.media.nb_streams">2</property>
  <property name="meta.media.0.stream.type">video</property>
  <property name="meta.media.0.stream.frame_rate">30</property>
  <property name="meta.media.0.stream.sample_aspect_ratio">0</property>
  <property name="meta.media.0.codec.width">896</property>
  <property name="meta.media.0.codec.height">512</property>
  <property name="meta.media.0.codec.rotate">0</property>
  <property name="meta.media.0.codec.frame_rate">30</property>
  <property name="meta.media.0.codec.pix_fmt">yuv420p</property>
  <property name="meta.media.0.codec.sample_aspect_ratio">0</property>
  <property name="meta.media.0.codec.colorspace">601</property>
  <property name="meta.media.0.codec.name">h264</property>
  <property name="meta.media.0.codec.long_name">H.264 / AVC / MPEG-4 AVC / MPEG-4 part 10</property>
  <property name="meta.media.0.codec.bit_rate">3535758</property>
  <property name="meta.attr.0.stream.handler_name.markup">VideoHandler</property>
  <property name="meta.media.1.stream.type">audio</property>
  <property name="meta.media.1.codec.sample_fmt">fltp</property>
  <property name="meta.media.1.codec.sample_rate">48000</property>
  <property name="meta.media.1.codec.channels">2</property>
  <property name="meta.media.1.codec.name">aac</property>
  <property name="meta.media.1.codec.long_name">AAC (Advanced Audio Coding)</property>
  <property name="meta.media.1.codec.bit_rate">336755</property>
  <property name="meta.attr.1.stream.handler_name.markup">SoundHandler</property>
  <property name="meta.attr.major_brand.markup">isom</property>
  <property name="meta.attr.minor_version.markup">512</property>
  <property name="meta.attr.compatible_brands.markup">isomiso2avc1mp41</property>
  <property name="meta.attr.encoder.markup">Lavf58.29.100</property>
  <property name="meta.media.sample_aspect_num">1</property>
  <property name="meta.media.sample_aspect_den">1</property>
  <property name="meta.media.frame_rate_num">30</property>
  <property name="meta.media.frame_rate_den">1</property>
  <property name="meta.media.colorspace">601</property>
  <property name="meta.media.color_trc">2</property>
  <property name="meta.media.width">896</property>
  <property name="meta.media.height">512</property>
  <property name="meta.media.color_range">mpeg</property>
  <property name="meta.media.top_field_first">0</property>
  <property name="meta.media.progressive">1</property>
  <property name="set.test_audio">1</property>
  <property name="set.test_image">1</property>
 </producer>
 <producer id="producer47" in="00:00:00.000" out="00:04:49.833">
  <property name="length">8696</property>
  <property name="eof">pause</property>
  <property name="resource">content/musicians/2021-02-06_Chris_synth+4k_sarah_P1180162-take3_partial_from_bass_solo.MP4</property>
  <property name="audio_index">1</property>
  <property name="video_index">0</property>
  <property name="mute_on_pause">0</property>
  <property name="mlt_service">avformat-novalidate</property>
  <property name="seekable">1</property>
  <property name="aspect_ratio">1</property>
  <property name="kdenlive:clipname">2021-02-06_Chris_synth+4k_sarah_P1180162-take3_partial_from_bass_solo.MP4</property>
  <property name="kdenlive:folderid">22</property>
  <property name="kdenlive:id">3</property>
  <property name="kdenlive:file_size">3475788005</property>
  <property name="kdenlive:file_hash">a281898ead78dab9d417b8c3e676a6c8</property>
  <property name="kdenlive:audio_max">1</property>
  <property name="global_feed">1</property>
  <property name="kdenlive:proxy">-</property>
  <property name="kdenlive:originalurl">content/musicians/2021-02-06_Chris_synth+4k_sarah_P1180162-take3_partial_from_bass_solo.MP4</property>
  <property name="kdenlive:activeeffect">-1</property>
  <property name="xml">was here</property>
  <property name="meta.media.nb_streams">2</property>
  <property name="meta.media.0.stream.type">video</property>
  <property name="meta.media.0.stream.frame_rate">29.9699</property>
  <property name="meta.media.0.stream.sample_aspect_ratio">1</property>
  <property name="meta.media.0.codec.width">3840</property>
  <property name="meta.media.0.codec.height">2160</property>
  <property name="meta.media.0.codec.rotate">0</property>
  <property name="meta.media.0.codec.frame_rate">29.97</property>
  <property name="meta.media.0.codec.pix_fmt">yuvj420p</property>
  <property name="meta.media.0.codec.sample_aspect_ratio">1</property>
  <property name="meta.media.0.codec.colorspace">709</property>
  <property name="meta.media.0.codec.color_trc">1</property>
  <property name="meta.media.0.codec.name">h264</property>
  <property name="meta.media.0.codec.long_name">H.264 / AVC / MPEG-4 AVC / MPEG-4 part 10</property>
  <property name="meta.media.0.codec.bit_rate">95808168</property>
  <property name="meta.attr.0.stream.handler_name.markup">VideoHandler</property>
  <property name="meta.media.1.stream.type">audio</property>
  <property name="meta.media.1.codec.sample_fmt">fltp</property>
  <property name="meta.media.1.codec.sample_rate">48000</property>
  <property name="meta.media.1.codec.channels">2</property>
  <property name="meta.media.1.codec.name">aac</property>
  <property name="meta.media.1.codec.long_name">AAC (Advanced Audio Coding)</property>
  <property name="meta.media.1.codec.bit_rate">125377</property>
  <property name="meta.attr.1.stream.handler_name.markup">SoundHandler</property>
  <property name="meta.attr.major_brand.markup">isom</property>
  <property name="meta.attr.minor_version.markup">512</property>
  <property name="meta.attr.compatible_brands.markup">isomiso2avc1mp41</property>
  <property name="meta.attr.encoder.markup">Lavf58.45.100</property>
  <property name="meta.media.sample_aspect_num">1</property>
  <property name="meta.media.sample_aspect_den">1</property>
  <property name="meta.media.frame_rate_num">65145000</property>
  <property name="meta.media.frame_rate_den">2173679</property>
  <property name="meta.media.colorspace">709</property>
  <property name="meta.media.color_trc">1</property>
  <property name="meta.media.width">3840</property>
  <property name="meta.media.height">2160</property>
  <property name="meta.media.color_range">full</property>
  <property name="set.test_audio">1</property>
  <property name="set.test_image">0</property>
 </producer>
 <playlist id="playlist30">
  <blank length="00:00:08.733"/>
  <entry producer="producer152" in="00:00:00.000" out="00:00:00.467">
   <property name="kdenlive:id">71</property>
   <filter id="filter279">
    <property name="rotate_center">1</property>
    <property name="mlt_service">qtblend</property>
    <property name="kdenlive_id">qtblend</property>
    <property name="rect">00:00:00.000=0 0 1920 1080 0.000000;00:00:00.033=0 0 1920 1080 0.978571;00:00:00.467=0 0 1920 1080 0.553846</property>
    <property name="rotation">00:00:00.000=0;00:00:00.033=0;00:00:00.467=0</property>
    <property name="compositing">0</property>
    <property name="distort">0</property>
    <property name="kdenlive:collapsed">0</property>
   </filter>
  </entry>
  <blank length="00:00:01.500"/>
  <entry producer="producer152" in="00:00:00.000" out="00:00:00.467">
   <property name="kdenlive:id">71</property>
   <filter id="filter280">
    <property name="rotate_center">1</property>
    <property name="mlt_service">qtblend</property>
    <property name="kdenlive_id">qtblend</property>
    <property name="rect">00:00:00.000=0 0 1920 1080 0.000000;00:00:00.033=0 0 1920 1080 0.978571;00:00:00.467=0 0 1920 1080 0.553846</property>
    <property name="rotation">00:00:00.000=0;00:00:00.033=0;00:00:00.467=0</property>
    <property name="compositing">0</property>
    <property name="distort">0</property>
    <property name="kdenlive:collapsed">0</property>
   </filter>
  </entry>
  <blank length="00:00:01.533"/>
  <entry producer="producer152" in="00:00:00.000" out="00:00:00.467">
   <property name="kdenlive:id">71</property>
   <filter id="filter281">
    <property name="rotate_center">1</property>
    <property name="mlt_service">qtblend</property>
    <property name="kdenlive_id">qtblend</property>
    <property name="rect">00:00:00.000=0 0 1920 1080 0.000000;00:00:00.033=0 0 1920 1080 0.978571;00:00:00.467=0 0 1920 1080 0.553846</property>
    <property name="rotation">00:00:00.000=0;00:00:00.033=0;00:00:00.467=0</property>
    <property name="compositing">0</property>
    <property name="distort">0</property>
    <property name="kdenlive:collapsed">0</property>
   </filter>
  </entry>
  <blank length="00:00:00.867"/>
  <entry producer="producer152" in="00:00:00.000" out="00:00:00.467">
   <property name="kdenlive:id">71</property>
   <filter id="filter282">
    <property name="rotate_center">1</property>
    <property name="mlt_service">qtblend</property>
    <property name="kdenlive_id">qtblend</property>
    <property name="rect">00:00:00.000=0 0 1920 1080 0.000000;00:00:00.033=0 0 1920 1080 0.978571;00:00:00.467=0 0 1920 1080 0.553846</property>
    <property name="rotation">00:00:00.000=0;00:00:00.033=0;00:00:00.467=0</property>
    <property name="compositing">0</property>
    <property name="distort">0</property>
    <property name="kdenlive:collapsed">0</property>
   </filter>
  </entry>
  <blank length="00:00:01.500"/>
  <entry producer="producer152" in="00:00:00.000" out="00:00:00.467">
   <property name="kdenlive:id">71</property>
   <filter id="filter283">
    <property name="rotate_center">1</property>
    <property name="mlt_service">qtblend</property>
    <property name="kdenlive_id">qtblend</property>
    <property name="rect">00:00:00.000=0 0 1920 1080 0.000000;00:00:00.033=0 0 1920 1080 0.978571;00:00:00.467=0 0 1920 1080 0.553846</property>
    <property name="rotation">00:00:00.000=0;00:00:00.033=0;00:00:00.467=0</property>
    <property name="compositing">0</property>
    <property name="distort">0</property>
    <property name="kdenlive:collapsed">0</property>
   </filter>
  </entry>
  <blank length="00:00:02.167"/>
  <entry producer="producer152" in="00:00:00.000" out="00:00:00.467">
   <property name="kdenlive:id">71</property>
   <filter id="filter284">
    <property name="rotate_center">1</property>
    <property name="mlt_service">qtblend</property>
    <property name="kdenlive_id">qtblend</property>
    <property name="rect">00:00:00.000=0 0 1920 1080 0.000000;00:00:00.033=0 0 1920 1080 0.978571;00:00:00.467=0 0 1920 1080 0.553846</property>
    <property name="rotation">00:00:00.000=0;00:00:00.033=0;00:00:00.467=0</property>
    <property name="compositing">0</property>
    <property name="distort">0</property>
    <property name="kdenlive:collapsed">0</property>
   </filter>
  </entry>
  <blank length="00:00:01.800"/>
  <entry producer="producer152" in="00:00:00.000" out="00:00:00.467">
   <property name="kdenlive:id">71</property>
   <filter id="filter285">
    <property name="rotate_center">1</property>
    <property name="mlt_service">qtblend</property>
    <property name="kdenlive_id">qtblend</property>
    <property name="rect">00:00:00.000=0 0 1920 1080 0.000000;00:00:00.033=0 0 1920 1080 0.978571;00:00:00.467=0 0 1920 1080 0.553846</property>
    <property name="rotation">00:00:00.000=0;00:00:00.033=0;00:00:00.467=0</property>
    <property name="compositing">0</property>
    <property name="distort">0</property>
    <property name="kdenlive:collapsed">0</property>
   </filter>
  </entry>
  <blank length="00:00:01.167"/>
  <entry producer="producer152" in="00:00:00.000" out="00:00:00.467">
   <property name="kdenlive:id">71</property>
   <filter id="filter286">
    <property name="rotate_center">1</property>
    <property name="mlt_service">qtblend</property>
    <property name="kdenlive_id">qtblend</property>
    <property name="rect">00:00:00.000=0 0 1920 1080 0.000000;00:00:00.033=0 0 1920 1080 0.978571;00:00:00.467=0 0 1920 1080 0.553846</property>
    <property name="rotation">00:00:00.000=0;00:00:00.033=0;00:00:00.467=0</property>
    <property name="compositing">0</property>
    <property name="distort">0</property>
    <property name="kdenlive:collapsed">0</property>
   </filter>
  </entry>
  <blank length="00:00:01.500"/>
  <entry producer="producer152" in="00:00:00.000" out="00:00:00.467">
   <property name="kdenlive:id">71</property>
   <filter id="filter287">
    <property name="rotate_center">1</property>
    <property name="mlt_service">qtblend</property>
    <property name="kdenlive_id">qtblend</property>
    <property name="rect">00:00:00.000=0 0 1920 1080 0.000000;00:00:00.033=0 0 1920 1080 0.978571;00:00:00.467=0 0 1920 1080 0.553846</property>
    <property name="rotation">00:00:00.000=0;00:00:00.033=0;00:00:00.467=0</property>
    <property name="compositing">0</property>
    <property name="distort">0</property>
    <property name="kdenlive:collapsed">0</property>
   </filter>
  </entry>
  <blank length="00:00:01.800"/>
  <entry producer="producer152" in="00:00:00.000" out="00:00:00.467">
   <property name="kdenlive:id">71</property>
   <filter id="filter288">
    <property name="rotate_center">1</property>
    <property name="mlt_service">qtblend</property>
    <property name="kdenlive_id">qtblend</property>
    <property name="rect">00:00:00.000=0 0 1920 1080 0.000000;00:00:00.033=0 0 1920 1080 0.978571;00:00:00.467=0 0 1920 1080 0.553846</property>
    <property name="rotation">00:00:00.000=0;00:00:00.033=0;00:00:00.467=0</property>
    <property name="compositing">0</property>
    <property name="distort">0</property>
    <property name="kdenlive:collapsed">0</property>
   </filter>
  </entry>
  <blank length="00:00:01.133"/>
  <entry producer="producer152" in="00:00:00.000" out="00:00:00.467">
   <property name="kdenlive:id">71</property>
   <filter id="filter289">
    <property name="rotate_center">1</property>
    <property name="mlt_service">qtblend</property>
    <property name="kdenlive_id">qtblend</property>
    <property name="rect">00:00:00.000=0 0 1920 1080 0.000000;00:00:00.033=0 0 1920 1080 0.978571;00:00:00.467=0 0 1920 1080 0.553846</property>
    <property name="rotation">00:00:00.000=0;00:00:00.033=0;00:00:00.467=0</property>
    <property name="compositing">0</property>
    <property name="distort">0</property>
    <property name="kdenlive:collapsed">0</property>
   </filter>
  </entry>
  <blank length="00:00:01.500"/>
  <entry producer="producer152" in="00:00:00.000" out="00:00:00.467">
   <property name="kdenlive:id">71</property>
   <filter id="filter290">
    <property name="rotate_center">1</property>
    <property name="mlt_service">qtblend</property>
    <property name="kdenlive_id">qtblend</property>
    <property name="rect">00:00:00.000=0 0 1920 1080 0.000000;00:00:00.033=0 0 1920 1080 0.978571;00:00:00.467=0 0 1920 1080 0.553846</property>
    <property name="rotation">00:00:00.000=0;00:00:00.033=0;00:00:00.467=0</property>
    <property name="compositing">0</property>
    <property name="distort">0</property>
    <property name="kdenlive:collapsed">0</property>
   </filter>
  </entry>
  <blank length="00:00:01.500"/>
  <entry producer="producer152" in="00:00:00.000" out="00:00:00.467">
   <property name="kdenlive:id">71</property>
   <filter id="filter291">
    <property name="rotate_center">1</property>
    <property name="mlt_service">qtblend</property>
    <property name="kdenlive_id">qtblend</property>
    <property name="rect">00:00:00.000=0 0 1920 1080 0.000000;00:00:00.033=0 0 1920 1080 0.978571;00:00:00.467=0 0 1920 1080 0.553846</property>
    <property name="rotation">00:00:00.000=0;00:00:00.033=0;00:00:00.467=0</property>
    <property name="compositing">0</property>
    <property name="distort">0</property>
    <property name="kdenlive:collapsed">0</property>
   </filter>
  </entry>
  <blank length="00:00:01.467"/>
  <entry producer="producer152" in="00:00:00.000" out="00:00:00.467">
   <property name="kdenlive:id">71</property>
   <filter id="filter292">
    <property name="rotate_center">1</property>
    <property name="mlt_service">qtblend</property>
    <property name="kdenlive_id">qtblend</property>
    <property name="rect">00:00:00.000=0 0 1920 1080 0.000000;00:00:00.033=0 0 1920 1080 0.978571;00:00:00.467=0 0 1920 1080 0.553846</property>
    <property name="rotation">00:00:00.000=0;00:00:00.033=0;00:00:00.467=0</property>
    <property name="compositing">0</property>
    <property name="distort">0</property>
    <property name="kdenlive:collapsed">0</property>
   </filter>
  </entry>
  <blank length="00:00:01.433"/>
  <entry producer="producer152" in="00:00:00.000" out="00:00:00.467">
   <property name="kdenlive:id">71</property>
   <filter id="filter293">
    <property name="rotate_center">1</property>
    <property name="mlt_service">qtblend</property>
    <property name="kdenlive_id">qtblend</property>
    <property name="rect">00:00:00.000=0 0 1920 1080 0.000000;00:00:00.033=0 0 1920 1080 0.978571;00:00:00.467=0 0 1920 1080 0.553846</property>
    <property name="rotation">00:00:00.000=0;00:00:00.033=0;00:00:00.467=0</property>
    <property name="compositing">0</property>
    <property name="distort">0</property>
    <property name="kdenlive:collapsed">0</property>
   </filter>
  </entry>
  <blank length="00:00:01.433"/>
  <entry producer="producer152" in="00:00:00.000" out="00:00:00.467">
   <property name="kdenlive:id">71</property>
   <filter id="filter294">
    <property name="rotate_center">1</property>
    <property name="mlt_service">qtblend</property>
    <property name="kdenlive_id">qtblend</property>
    <property name="rect">00:00:00.000=0 0 1920 1080 0.000000;00:00:00.033=0 0 1920 1080 0.978571;00:00:00.467=0 0 1920 1080 0.553846</property>
    <property name="rotation">00:00:00.000=0;00:00:00.033=0;00:00:00.467=0</property>
    <property name="compositing">0</property>
    <property name="distort">0</property>
    <property name="kdenlive:collapsed">0</property>
   </filter>
  </entry>
  <blank length="00:00:00.433"/>
  <entry producer="producer152" in="00:00:00.000" out="00:00:00.467">
   <property name="kdenlive:id">71</property>
   <filter id="filter295">
    <property name="rotate_center">1</property>
    <property name="mlt_service">qtblend</property>
    <property name="kdenlive_id">qtblend</property>
    <property name="rect">00:00:00.000=0 0 1920 1080 0.000000;00:00:00.033=0 0 1920 1080 0.978571;00:00:00.467=0 0 1920 1080 0.553846</property>
    <property name="rotation">00:00:00.000=0;00:00:00.033=0;00:00:00.467=0</property>
    <property name="compositing">0</property>
    <property name="distort">0</property>
    <property name="kdenlive:collapsed">0</property>
   </filter>
  </entry>
  <blank length="00:00:00.500"/>
  <entry producer="producer152" in="00:00:00.000" out="00:00:00.467">
   <property name="kdenlive:id">71</property>
   <filter id="filter296">
    <property name="rotate_center">1</property>
    <property name="mlt_service">qtblend</property>
    <property name="kdenlive_id">qtblend</property>
    <property name="rect">00:00:00.000=0 0 1920 1080 0.000000;00:00:00.033=0 0 1920 1080 0.978571;00:00:00.467=0 0 1920 1080 0.553846</property>
    <property name="rotation">00:00:00.000=0;00:00:00.033=0;00:00:00.467=0</property>
    <property name="compositing">0</property>
    <property name="distort">0</property>
    <property name="kdenlive:collapsed">0</property>
   </filter>
  </entry>
  <blank length="00:00:01.067"/>
  <entry producer="producer152" in="00:00:00.000" out="00:00:00.400">
   <property name="kdenlive:id">71</property>
   <filter id="filter297">
    <property name="rotate_center">1</property>
    <property name="mlt_service">qtblend</property>
    <property name="kdenlive_id">qtblend</property>
    <property name="rect">00:00:00.000=0 0 1920 1080 0.000000;00:00:00.033=0 0 1920 1080 0.978571;00:00:00.400=0 0 1920 1080 0.553846</property>
    <property name="rotation">00:00:00.000=0;00:00:00.033=0;00:00:00.400=0</property>
    <property name="compositing">0</property>
    <property name="distort">0</property>
    <property name="kdenlive:collapsed">0</property>
   </filter>
  </entry>
  <entry producer="producer152" in="00:00:00.000" out="00:00:00.267">
   <property name="kdenlive:id">71</property>
   <filter id="filter298">
    <property name="rotate_center">1</property>
    <property name="mlt_service">qtblend</property>
    <property name="kdenlive_id">qtblend</property>
    <property name="rect">00:00:00.000=0 0 1920 1080 0.000000;00:00:00.033=0 0 1920 1080 0.978571;00:00:00.267=0 0 1920 1080 0.553846</property>
    <property name="rotation">00:00:00.000=0;00:00:00.033=0;00:00:00.267=0</property>
    <property name="compositing">0</property>
    <property name="distort">0</property>
    <property name="kdenlive:collapsed">0</property>
   </filter>
  </entry>
  <entry producer="producer152" in="00:00:00.000" out="00:00:00.467">
   <property name="kdenlive:id">71</property>
   <filter id="filter299">
    <property name="rotate_center">1</property>
    <property name="mlt_service">qtblend</property>
    <property name="kdenlive_id">qtblend</property>
    <property name="rect">00:00:00.000=0 0 1920 1080 0.000000;00:00:00.033=0 0 1920 1080 0.978571;00:00:00.467=0 0 1920 1080 0.553846</property>
    <property name="rotation">00:00:00.000=0;00:00:00.033=0;00:00:00.467=0</property>
    <property name="compositing">0</property>
    <property name="distort">0</property>
    <property name="kdenlive:collapsed">0</property>
   </filter>
  </entry>
  <blank length="00:00:01.033"/>
  <entry producer="producer152" in="00:00:00.000" out="00:00:00.467">
   <property name="kdenlive:id">71</property>
   <filter id="filter300">
    <property name="rotate_center">1</property>
    <property name="mlt_service">qtblend</property>
    <property name="kdenlive_id">qtblend</property>
    <property name="rect">00:00:00.000=0 0 1920 1080 0.000000;00:00:00.033=0 0 1920 1080 0.978571;00:00:00.467=0 0 1920 1080 0.553846</property>
    <property name="rotation">00:00:00.000=0;00:00:00.033=0;00:00:00.467=0</property>
    <property name="compositing">0</property>
    <property name="distort">0</property>
    <property name="kdenlive:collapsed">0</property>
   </filter>
  </entry>
  <blank length="00:00:01.900"/>
  <entry producer="producer152" in="00:00:00.000" out="00:00:00.467">
   <property name="kdenlive:id">71</property>
   <filter id="filter301">
    <property name="rotate_center">1</property>
    <property name="mlt_service">qtblend</property>
    <property name="kdenlive_id">qtblend</property>
    <property name="rect">00:00:00.000=0 0 1920 1080 0.000000;00:00:00.033=0 0 1920 1080 0.978571;00:00:00.467=0 0 1920 1080 0.553846</property>
    <property name="rotation">00:00:00.000=0;00:00:00.033=0;00:00:00.467=0</property>
    <property name="compositing">0</property>
    <property name="distort">0</property>
    <property name="kdenlive:collapsed">0</property>
   </filter>
  </entry>
  <blank length="00:00:18.900"/>
  <entry producer="producer45" in="00:00:00.000" out="00:01:27.000">
   <property name="kdenlive:id">13</property>
   <filter id="filter302">
    <property name="rotate_center">1</property>
    <property name="mlt_service">qtblend</property>
    <property name="kdenlive_id">qtblend</property>
    <property name="rect">00:00:00.000=0 0 1920 1080 0.100000</property>
    <property name="rotation">00:00:00.000=0</property>
    <property name="compositing">15</property>
    <property name="distort">1</property>
    <property name="kdenlive:collapsed">0</property>
   </filter>
   <filter id="filter303" out="00:00:01.467">
    <property name="start">0</property>
    <property name="mlt_service">brightness</property>
    <property name="kdenlive_id">fade_from_black</property>
    <property name="end">1</property>
    <property name="alpha">-1</property>
    <property name="kdenlive:collapsed">0</property>
   </filter>
  </entry>
  <blank length="00:00:00.500"/>
  <entry producer="producer47" in="00:01:47.833" out="00:02:54.467">
   <property name="kdenlive:id">3</property>
   <filter id="filter304">
    <property name="version">0.1</property>
    <property name="mlt_service">frei0r.alphaspot</property>
    <property name="kdenlive_id">frei0r.alphaspot</property>
    <property name="Shape">0</property>
    <property name="Position X">00:01:47.833=0.698</property>
    <property name="Position Y">00:01:47.833=0.5</property>
    <property name="Size X">00:01:47.833=0.382</property>
    <property name="Size Y">00:01:47.833=1</property>
    <property name="Tilt">00:01:47.833=0.5</property>
    <property name="Transition width">00:01:47.833=0</property>
    <property name="Min">00:01:47.833=0</property>
    <property name="Max">00:01:47.833=1</property>
    <property name="Operation">0</property>
    <property name="kdenlive:collapsed">0</property>
   </filter>
   <filter id="filter305" in="00:01:47.833" out="00:01:48.967">
    <property name="start">0</property>
    <property name="mlt_service">brightness</property>
    <property name="kdenlive_id">fade_from_black</property>
    <property name="end">1</property>
    <property name="alpha">-1</property>
    <property name="kdenlive:collapsed">0</property>
   </filter>
   <filter id="filter306">
    <property name="version">0.1</property>
    <property name="mlt_service">frei0r.hqdn3d</property>
    <property name="kdenlive_id">frei0r.hqdn3d</property>
    <property name="Spatial">00:01:47.833=0.02</property>
    <property name="Temporal">00:01:47.833=0.01</property>
    <property name="kdenlive:collapsed">0</property>
   </filter>
   <filter id="filter307">
    <property name="version">0.6</property>
    <property name="mlt_service">frei0r.select0r</property>
    <property name="kdenlive_id">frei0r.select0r</property>
    <property name="Color to select">0x5f9f62ff</property>
    <property name="Invert selection">1</property>
    <property name="Selection subspace">1</property>
    <property name="Subspace shape">0</property>
    <property name="Edge mode">0.6</property>
    <property name="Delta R / A / Hue">00:01:47.833=0.07</property>
    <property name="Delta G / B / Chroma">00:01:47.833=0.19</property>
    <property name="Delta B / I / I">00:01:47.833=0.358</property>
    <property name="Slope">00:01:47.833=0.152</property>
    <property name="Operation">0.5</property>
    <property name="kdenlive:collapsed">0</property>
    <property name="disable">0</property>
   </filter>
   <filter id="filter308">
    <property name="version">0.4</property>
    <property name="mlt_service">frei0r.alpha0ps</property>
    <property name="kdenlive_id">frei0r.alpha0ps</property>
    <property name="Display">0</property>
    <property name="Display input alpha">0</property>
    <property name="Operation">1</property>
    <property name="Threshold">00:01:47.833=0.5</property>
    <property name="Shrink/Grow/Blur amount">00:01:47.833=0.045</property>
    <property name="Invert">0</property>
    <property name="kdenlive:collapsed">0</property>
   </filter>
   <filter id="filter309">
    <property name="version">0.3</property>
    <property name="mlt_service">frei0r.keyspillm0pup</property>
    <property name="kdenlive_id">frei0r.keyspillm0pup</property>
    <property name="Key color">0x69b16cff</property>
    <property name="Target color">0xC87F65ff</property>
    <property name="Mask type">0</property>
    <property name="Tolerance">00:01:47.833=0.148</property>
    <property name="Slope">00:01:47.833=0.151</property>
    <property name="Hue gate">00:01:47.833=0.133</property>
    <property name="Saturation threshold">00:01:47.833=0.106</property>
    <property name="Operation 1">1</property>
    <property name="Amount 1">00:01:47.833=0.78</property>
    <property name="Operation 2">3</property>
    <property name="Amount 2">00:01:47.833=0.084</property>
    <property name="Show mask">0</property>
    <property name="Mask to Alpha">0</property>
    <property name="kdenlive:collapsed">0</property>
   </filter>
   <filter id="filter310">
    <property name="mlt_service">avfilter.hflip</property>
    <property name="kdenlive_id">avfilter.hflip</property>
    <property name="kdenlive:collapsed">0</property>
   </filter>
   <filter id="filter311">
    <property name="rotate_center">1</property>
    <property name="mlt_service">qtblend</property>
    <property name="kdenlive_id">qtblend</property>
    <property name="rect">00:01:47.833=0 0 1920 1080 1.000000</property>
    <property name="rotation">00:01:47.833=0</property>
    <property name="compositing">0</property>
    <property name="distort">0</property>
    <property name="kdenlive:collapsed">0</property>
   </filter>
   <filter id="filter312">
    <property name="lift_r">-0.4</property>
    <property name="lift_g">-0.4</property>
    <property name="lift_b">-0.4</property>
    <property name="gamma_r">1.15001</property>
    <property name="gamma_g">1.15001</property>
    <property name="gamma_b">1.15001</property>
    <property name="gain_r">1.17501</property>
    <property name="gain_g">1.17501</property>
    <property name="gain_b">1.17501</property>
    <property name="mlt_service">lift_gamma_gain</property>
    <property name="kdenlive_id">lift_gamma_gain</property>
    <property name="kdenlive:collapsed">0</property>
   </filter>
  </entry>
 </playlist>
 <playlist id="playlist31"/>
 <tractor id="tractor15" in="00:00:00.000" out="00:03:40.267">
  <property name="kdenlive:trackheight">69</property>
  <property name="kdenlive:timeline_active">1</property>
  <property name="kdenlive:collapsed">0</property>
  <property name="kdenlive:track_name">lighting</property>
  <property name="kdenlive:thumbs_format"/>
  <property name="kdenlive:audio_rec"/>
  <track hide="audio" producer="playlist30"/>
  <track producer="playlist31"/>
 </tractor>
 <producer id="producer49" in="00:00:00.000" out="00:00:44.067">
  <property name="length">1323</property>
  <property name="eof">pause</property>
  <property name="resource">content/trusses_rotating_mirror.mp4</property>
  <property name="audio_index">1</property>
  <property name="video_index">0</property>
  <property name="mute_on_pause">0</property>
  <property name="mlt_service">avformat-novalidate</property>
  <property name="seekable">1</property>
  <property name="aspect_ratio">1</property>
  <property name="kdenlive:clipname">trusses_rotating_mirror.mp4</property>
  <property name="kdenlive:folderid">34</property>
  <property name="kdenlive:id">24</property>
  <property name="kdenlive:file_size">8626700</property>
  <property name="kdenlive:file_hash">798d1c3462c3415c362ab562d1bb0c39</property>
  <property name="kdenlive:proxy">-</property>
  <property name="kdenlive:originalurl">content/trusses_rotating_mirror.mp4</property>
  <property name="kdenlive:audio_max">6</property>
  <property name="global_feed">1</property>
  <property name="xml">was here</property>
  <property name="meta.media.nb_streams">2</property>
  <property name="meta.media.0.stream.type">video</property>
  <property name="meta.media.0.stream.frame_rate">30</property>
  <property name="meta.media.0.stream.sample_aspect_ratio">1</property>
  <property name="meta.media.0.codec.width">1920</property>
  <property name="meta.media.0.codec.height">1080</property>
  <property name="meta.media.0.codec.rotate">0</property>
  <property name="meta.media.0.codec.frame_rate">30</property>
  <property name="meta.media.0.codec.pix_fmt">yuv420p</property>
  <property name="meta.media.0.codec.sample_aspect_ratio">1</property>
  <property name="meta.media.0.codec.colorspace">709</property>
  <property name="meta.media.0.codec.color_trc">1</property>
  <property name="meta.media.0.codec.name">h264</property>
  <property name="meta.media.0.codec.long_name">H.264 / AVC / MPEG-4 AVC / MPEG-4 part 10</property>
  <property name="meta.media.0.codec.bit_rate">1301541</property>
  <property name="meta.attr.0.stream.handler_name.markup">VideoHandler</property>
  <property name="meta.media.1.stream.type">audio</property>
  <property name="meta.media.1.codec.sample_fmt">fltp</property>
  <property name="meta.media.1.codec.sample_rate">48000</property>
  <property name="meta.media.1.codec.channels">2</property>
  <property name="meta.media.1.codec.name">aac</property>
  <property name="meta.media.1.codec.long_name">AAC (Advanced Audio Coding)</property>
  <property name="meta.media.1.codec.bit_rate">255789</property>
  <property name="meta.attr.1.stream.handler_name.markup">SoundHandler</property>
  <property name="meta.attr.major_brand.markup">isom</property>
  <property name="meta.attr.minor_version.markup">512</property>
  <property name="meta.attr.compatible_brands.markup">isomiso2avc1mp41</property>
  <property name="meta.attr.encoder.markup">Lavf58.45.100</property>
  <property name="meta.media.sample_aspect_num">1</property>
  <property name="meta.media.sample_aspect_den">1</property>
  <property name="meta.media.frame_rate_num">30</property>
  <property name="meta.media.frame_rate_den">1</property>
  <property name="meta.media.colorspace">709</property>
  <property name="meta.media.color_trc">1</property>
  <property name="meta.media.width">1920</property>
  <property name="meta.media.height">1080</property>
  <property name="meta.media.color_range">mpeg</property>
  <property name="set.test_audio">1</property>
  <property name="set.test_image">0</property>
 </producer>
 <playlist id="playlist32">
  <blank length="00:00:08.733"/>
  <entry producer="producer4" in="00:00:00.000" out="00:00:00.467">
   <property name="kdenlive:id">48</property>
   <filter id="filter313">
    <property name="rotate_center">1</property>
    <property name="mlt_service">qtblend</property>
    <property name="kdenlive_id">qtblend</property>
    <property name="rect">00:00:00.000=0 0 1920 1080 0.300000;00:00:00.033=0 0 1920 1080 1.000000;00:00:00.400=0 0 1920 1080 0.500000</property>
    <property name="rotation">00:00:00.000=0;00:00:00.033=0;00:00:00.400=0</property>
    <property name="compositing">0</property>
    <property name="distort">1</property>
    <property name="kdenlive:collapsed">0</property>
   </filter>
  </entry>
  <blank length="00:00:01.500"/>
  <entry producer="producer46" in="00:00:00.000" out="00:00:00.467">
   <property name="kdenlive:id">26</property>
   <filter id="filter314">
    <property name="rotate_center">1</property>
    <property name="mlt_service">qtblend</property>
    <property name="kdenlive_id">qtblend</property>
    <property name="rect">00:00:00.000=0 0 1920 1080 0.300000;00:00:00.033=0 0 1920 1080 1.000000;00:00:00.400=0 0 1920 1080 0.500000</property>
    <property name="rotation">00:00:00.000=0;00:00:00.033=0;00:00:00.400=0</property>
    <property name="compositing">0</property>
    <property name="distort">1</property>
    <property name="kdenlive:collapsed">0</property>
   </filter>
  </entry>
  <blank length="00:00:01.533"/>
  <entry producer="producer3" in="00:00:00.000" out="00:00:00.467">
   <property name="kdenlive:id">47</property>
   <filter id="filter315">
    <property name="rotate_center">1</property>
    <property name="mlt_service">qtblend</property>
    <property name="kdenlive_id">qtblend</property>
    <property name="rect">00:00:00.000=0 0 1920 1080 0.300000;00:00:00.033=0 0 1920 1080 1.000000;00:00:00.400=0 0 1920 1080 0.500000</property>
    <property name="rotation">00:00:00.000=0;00:00:00.033=0;00:00:00.400=0</property>
    <property name="compositing">0</property>
    <property name="distort">1</property>
    <property name="kdenlive:collapsed">0</property>
   </filter>
  </entry>
  <blank length="00:00:00.867"/>
  <entry producer="producer48" in="00:00:00.000" out="00:00:00.467">
   <property name="kdenlive:id">27</property>
   <filter id="filter316">
    <property name="rotate_center">1</property>
    <property name="mlt_service">qtblend</property>
    <property name="kdenlive_id">qtblend</property>
    <property name="rect">00:00:00.000=0 0 1920 1080 0.300000;00:00:00.033=0 0 1920 1080 1.000000;00:00:00.400=0 0 1920 1080 0.500000</property>
    <property name="rotation">00:00:00.000=0;00:00:00.033=0;00:00:00.400=0</property>
    <property name="compositing">0</property>
    <property name="distort">1</property>
    <property name="kdenlive:collapsed">0</property>
   </filter>
  </entry>
  <blank length="00:00:01.500"/>
  <entry producer="producer112" in="00:00:00.000" out="00:00:00.467">
   <property name="kdenlive:id">49</property>
   <filter id="filter317">
    <property name="rotate_center">1</property>
    <property name="mlt_service">qtblend</property>
    <property name="kdenlive_id">qtblend</property>
    <property name="rect">00:00:00.000=0 0 1920 1080 0.300000;00:00:00.033=0 0 1920 1080 1.000000;00:00:00.400=0 0 1920 1080 0.500000</property>
    <property name="rotation">00:00:00.000=0;00:00:00.033=0;00:00:00.400=0</property>
    <property name="compositing">0</property>
    <property name="distort">1</property>
    <property name="kdenlive:collapsed">0</property>
   </filter>
  </entry>
  <blank length="00:00:02.167"/>
  <entry producer="producer0" in="00:00:00.000" out="00:00:00.467">
   <property name="kdenlive:id">46</property>
   <filter id="filter318">
    <property name="rotate_center">1</property>
    <property name="mlt_service">qtblend</property>
    <property name="kdenlive_id">qtblend</property>
    <property name="rect">00:00:00.000=0 0 1920 1080 0.300000;00:00:00.033=0 0 1920 1080 1.000000;00:00:00.400=0 0 1920 1080 0.500000</property>
    <property name="rotation">00:00:00.000=0;00:00:00.033=0;00:00:00.400=0</property>
    <property name="compositing">0</property>
    <property name="distort">1</property>
    <property name="kdenlive:collapsed">0</property>
   </filter>
  </entry>
  <blank length="00:00:01.800"/>
  <entry producer="producer1" in="00:00:00.000" out="00:00:00.467">
   <property name="kdenlive:id">45</property>
   <filter id="filter319">
    <property name="rotate_center">1</property>
    <property name="mlt_service">qtblend</property>
    <property name="kdenlive_id">qtblend</property>
    <property name="rect">00:00:00.000=0 0 1920 1080 0.300000;00:00:00.033=0 0 1920 1080 1.000000;00:00:00.400=0 0 1920 1080 0.500000</property>
    <property name="rotation">00:00:00.000=0;00:00:00.033=0;00:00:00.400=0</property>
    <property name="compositing">0</property>
    <property name="distort">1</property>
    <property name="kdenlive:collapsed">0</property>
   </filter>
  </entry>
  <blank length="00:00:01.167"/>
  <entry producer="producer54" in="00:00:00.000" out="00:00:00.467">
   <property name="kdenlive:id">28</property>
   <filter id="filter320">
    <property name="rotate_center">1</property>
    <property name="mlt_service">qtblend</property>
    <property name="kdenlive_id">qtblend</property>
    <property name="rect">00:00:00.000=0 0 1920 1080 0.300000;00:00:00.033=0 0 1920 1080 1.000000;00:00:00.400=0 0 1920 1080 0.500000</property>
    <property name="rotation">00:00:00.000=0;00:00:00.033=0;00:00:00.400=0</property>
    <property name="compositing">0</property>
    <property name="distort">1</property>
    <property name="kdenlive:collapsed">0</property>
   </filter>
  </entry>
  <blank length="00:00:01.500"/>
  <entry producer="producer56" in="00:00:00.000" out="00:00:00.467">
   <property name="kdenlive:id">29</property>
   <filter id="filter321">
    <property name="rotate_center">1</property>
    <property name="mlt_service">qtblend</property>
    <property name="kdenlive_id">qtblend</property>
    <property name="rect">00:00:00.000=0 0 1920 1080 0.300000;00:00:00.033=0 0 1920 1080 1.000000;00:00:00.400=0 0 1920 1080 0.500000</property>
    <property name="rotation">00:00:00.000=0;00:00:00.033=0;00:00:00.400=0</property>
    <property name="compositing">0</property>
    <property name="distort">1</property>
    <property name="kdenlive:collapsed">0</property>
   </filter>
  </entry>
  <blank length="00:00:01.800"/>
  <entry producer="producer59" in="00:00:00.000" out="00:00:00.467">
   <property name="kdenlive:id">30</property>
   <filter id="filter322">
    <property name="rotate_center">1</property>
    <property name="mlt_service">qtblend</property>
    <property name="kdenlive_id">qtblend</property>
    <property name="rect">00:00:00.000=0 0 1920 1080 0.300000;00:00:00.033=0 0 1920 1080 1.000000;00:00:00.400=0 0 1920 1080 0.500000</property>
    <property name="rotation">00:00:00.000=0;00:00:00.033=0;00:00:00.400=0</property>
    <property name="compositing">0</property>
    <property name="distort">1</property>
    <property name="kdenlive:collapsed">0</property>
   </filter>
  </entry>
  <blank length="00:00:01.133"/>
  <entry producer="producer61" in="00:00:00.000" out="00:00:00.467">
   <property name="kdenlive:id">31</property>
   <filter id="filter323">
    <property name="rotate_center">1</property>
    <property name="mlt_service">qtblend</property>
    <property name="kdenlive_id">qtblend</property>
    <property name="rect">00:00:00.000=0 0 1920 1080 0.300000;00:00:00.033=0 0 1920 1080 1.000000;00:00:00.400=0 0 1920 1080 0.500000</property>
    <property name="rotation">00:00:00.000=0;00:00:00.033=0;00:00:00.400=0</property>
    <property name="compositing">0</property>
    <property name="distort">1</property>
    <property name="kdenlive:collapsed">0</property>
   </filter>
  </entry>
  <blank length="00:00:01.500"/>
  <entry producer="producer64" in="00:00:00.000" out="00:00:00.467">
   <property name="kdenlive:id">32</property>
   <filter id="filter324">
    <property name="rotate_center">1</property>
    <property name="mlt_service">qtblend</property>
    <property name="kdenlive_id">qtblend</property>
    <property name="rect">00:00:00.000=0 0 1920 1080 0.300000;00:00:00.033=0 0 1920 1080 1.000000;00:00:00.400=0 0 1920 1080 0.500000</property>
    <property name="rotation">00:00:00.000=0;00:00:00.033=0;00:00:00.400=0</property>
    <property name="compositing">0</property>
    <property name="distort">1</property>
    <property name="kdenlive:collapsed">0</property>
   </filter>
  </entry>
  <blank length="00:00:01.500"/>
  <entry producer="producer70" in="00:00:00.000" out="00:00:00.467">
   <property name="kdenlive:id">33</property>
   <filter id="filter325">
    <property name="rotate_center">1</property>
    <property name="mlt_service">qtblend</property>
    <property name="kdenlive_id">qtblend</property>
    <property name="rect">00:00:00.000=0 0 1920 1080 0.300000;00:00:00.033=0 0 1920 1080 1.000000;00:00:00.400=0 0 1920 1080 0.500000</property>
    <property name="rotation">00:00:00.000=0;00:00:00.033=0;00:00:00.400=0</property>
    <property name="compositing">0</property>
    <property name="distort">1</property>
    <property name="kdenlive:collapsed">0</property>
   </filter>
  </entry>
  <blank length="00:00:01.467"/>
  <entry producer="producer71" in="00:00:00.000" out="00:00:00.467">
   <property name="kdenlive:id">35</property>
   <filter id="filter326">
    <property name="rotate_center">1</property>
    <property name="mlt_service">qtblend</property>
    <property name="kdenlive_id">qtblend</property>
    <property name="rect">00:00:00.000=0 0 1920 1080 0.300000;00:00:00.033=0 0 1920 1080 1.000000;00:00:00.400=0 0 1920 1080 0.500000</property>
    <property name="rotation">00:00:00.000=0;00:00:00.033=0;00:00:00.400=0</property>
    <property name="compositing">0</property>
    <property name="distort">1</property>
    <property name="kdenlive:collapsed">0</property>
   </filter>
  </entry>
  <blank length="00:00:01.433"/>
  <entry producer="producer74" in="00:00:00.000" out="00:00:00.467">
   <property name="kdenlive:id">36</property>
   <filter id="filter327">
    <property name="rotate_center">1</property>
    <property name="mlt_service">qtblend</property>
    <property name="kdenlive_id">qtblend</property>
    <property name="rect">00:00:00.000=0 0 1920 1080 0.300000;00:00:00.033=0 0 1920 1080 1.000000;00:00:00.400=0 0 1920 1080 0.500000</property>
    <property name="rotation">00:00:00.000=0;00:00:00.033=0;00:00:00.400=0</property>
    <property name="compositing">0</property>
    <property name="distort">1</property>
    <property name="kdenlive:collapsed">0</property>
   </filter>
  </entry>
  <blank length="00:00:01.433"/>
  <entry producer="producer80" in="00:00:00.000" out="00:00:00.467">
   <property name="kdenlive:id">37</property>
   <filter id="filter328">
    <property name="rotate_center">1</property>
    <property name="mlt_service">qtblend</property>
    <property name="kdenlive_id">qtblend</property>
    <property name="rect">00:00:00.000=0 0 1920 1080 0.300000;00:00:00.033=0 0 1920 1080 1.000000;00:00:00.400=0 0 1920 1080 0.500000</property>
    <property name="rotation">00:00:00.000=0;00:00:00.033=0;00:00:00.400=0</property>
    <property name="compositing">0</property>
    <property name="distort">1</property>
    <property name="kdenlive:collapsed">0</property>
   </filter>
  </entry>
  <blank length="00:00:00.433"/>
  <entry producer="producer84" in="00:00:00.000" out="00:00:00.467">
   <property name="kdenlive:id">38</property>
   <filter id="filter329">
    <property name="rotate_center">1</property>
    <property name="mlt_service">qtblend</property>
    <property name="kdenlive_id">qtblend</property>
    <property name="rect">00:00:00.000=0 0 1920 1080 0.300000;00:00:00.033=0 0 1920 1080 1.000000;00:00:00.400=0 0 1920 1080 0.500000</property>
    <property name="rotation">00:00:00.000=0;00:00:00.033=0;00:00:00.400=0</property>
    <property name="compositing">0</property>
    <property name="distort">1</property>
    <property name="kdenlive:collapsed">0</property>
   </filter>
  </entry>
  <blank length="00:00:00.500"/>
  <entry producer="producer86" in="00:00:00.000" out="00:00:00.467">
   <property name="kdenlive:id">39</property>
   <filter id="filter330">
    <property name="rotate_center">1</property>
    <property name="mlt_service">qtblend</property>
    <property name="kdenlive_id">qtblend</property>
    <property name="rect">00:00:00.000=0 0 1920 1080 0.300000;00:00:00.033=0 0 1920 1080 1.000000;00:00:00.400=0 0 1920 1080 0.500000</property>
    <property name="rotation">00:00:00.000=0;00:00:00.033=0;00:00:00.400=0</property>
    <property name="compositing">0</property>
    <property name="distort">1</property>
    <property name="kdenlive:collapsed">0</property>
   </filter>
  </entry>
  <blank length="00:00:01.067"/>
  <entry producer="producer89" in="00:00:00.000" out="00:00:00.400">
   <property name="kdenlive:id">40</property>
   <filter id="filter331">
    <property name="rotate_center">1</property>
    <property name="mlt_service">qtblend</property>
    <property name="kdenlive_id">qtblend</property>
    <property name="rect">00:00:00.000=0 0 1920 1080 0.300000;00:00:00.033=0 0 1920 1080 1.000000;00:00:00.400=0 0 1920 1080 0.500000</property>
    <property name="rotation">00:00:00.000=0;00:00:00.033=0;00:00:00.400=0</property>
    <property name="compositing">0</property>
    <property name="distort">1</property>
    <property name="kdenlive:collapsed">0</property>
   </filter>
  </entry>
  <entry producer="producer106" in="00:00:00.000" out="00:00:00.267">
   <property name="kdenlive:id">43</property>
   <filter id="filter332">
    <property name="rotate_center">1</property>
    <property name="mlt_service">qtblend</property>
    <property name="kdenlive_id">qtblend</property>
    <property name="rect">00:00:00.000=0 0 1920 1080 0.300000;00:00:00.033=0 0 1920 1080 1.000000;00:00:00.267|=0 0 1920 1080 0.500000;00:00:00.400=0 0 1920 1080 0.323077</property>
    <property name="rotation">00:00:00.000=0;00:00:00.033=0;00:00:00.267|=0;00:00:00.400=0</property>
    <property name="compositing">0</property>
    <property name="distort">1</property>
    <property name="kdenlive:collapsed">0</property>
   </filter>
  </entry>
  <entry producer="producer2" in="00:00:00.000" out="00:00:00.467">
   <property name="kdenlive:id">44</property>
   <filter id="filter333">
    <property name="rotate_center">1</property>
    <property name="mlt_service">qtblend</property>
    <property name="kdenlive_id">qtblend</property>
    <property name="rect">00:00:00.000=0 0 1920 1080 0.300000;00:00:00.033=0 0 1920 1080 1.000000;00:00:00.400=0 0 1920 1080 0.500000</property>
    <property name="rotation">00:00:00.000=0;00:00:00.033=0;00:00:00.400=0</property>
    <property name="compositing">0</property>
    <property name="distort">1</property>
    <property name="kdenlive:collapsed">0</property>
   </filter>
  </entry>
  <blank length="00:00:01.033"/>
  <entry producer="producer101" in="00:00:00.000" out="00:00:00.467">
   <property name="kdenlive:id">41</property>
   <filter id="filter334">
    <property name="rotate_center">1</property>
    <property name="mlt_service">qtblend</property>
    <property name="kdenlive_id">qtblend</property>
    <property name="rect">00:00:00.000=0 0 1920 1080 0.300000;00:00:00.033=0 0 1920 1080 1.000000;00:00:00.400=0 0 1920 1080 0.500000</property>
    <property name="rotation">00:00:00.000=0;00:00:00.033=0;00:00:00.400=0</property>
    <property name="compositing">0</property>
    <property name="distort">1</property>
    <property name="kdenlive:collapsed">0</property>
   </filter>
  </entry>
  <blank length="00:00:01.900"/>
  <entry producer="producer103" in="00:00:00.000" out="00:00:00.467">
   <property name="kdenlive:id">42</property>
   <filter id="filter335">
    <property name="rotate_center">1</property>
    <property name="mlt_service">qtblend</property>
    <property name="kdenlive_id">qtblend</property>
    <property name="rect">00:00:00.000=0 0 1920 1080 0.300000;00:00:00.033=0 0 1920 1080 1.000000;00:00:00.400=0 0 1920 1080 0.500000</property>
    <property name="rotation">00:00:00.000=0;00:00:00.033=0;00:00:00.400=0</property>
    <property name="compositing">0</property>
    <property name="distort">1</property>
    <property name="kdenlive:collapsed">0</property>
   </filter>
  </entry>
  <blank length="00:00:15.933"/>
  <entry producer="producer49" in="00:00:00.000" out="00:00:44.067">
   <property name="kdenlive:id">24</property>
   <filter id="filter336">
    <property name="version">0.1</property>
    <property name="mlt_service">frei0r.mask0mate</property>
    <property name="kdenlive_id">frei0r.mask0mate</property>
    <property name="Left">00:00:00.000=0.292;00:00:02.833=0.382913;00:00:03.833=0.415;00:00:43.067=0.415;00:00:44.067|=0.131</property>
    <property name="Right">00:00:00.000=0.368;00:00:02.833=0.396;00:00:03.833=0.43;00:00:43.067=0.43;00:00:44.067|=0.43</property>
    <property name="Top">00:00:00.000=0;00:00:02.833=0;00:00:03.833=0;00:00:43.067=0;00:00:44.067|=0</property>
    <property name="Bottom">00:00:00.000=0;00:00:02.833=0;00:00:03.833=0;00:00:43.067=0;00:00:44.067|=0</property>
    <property name="Invert">1</property>
    <property name="Blur">00:00:00.000=0;00:00:02.833=0;00:00:03.833=0;00:00:43.067=0;00:00:44.067|=0</property>
    <property name="kdenlive:collapsed">0</property>
   </filter>
   <filter id="filter337">
    <property name="rotate_center">1</property>
    <property name="mlt_service">qtblend</property>
    <property name="kdenlive_id">qtblend</property>
    <property name="rect">00:00:00.000=-800 0 1920 1080 1.000000;00:00:03.833=-220 0 1920 1080 1.000000</property>
    <property name="rotation">00:00:00.000=0;00:00:03.833=0</property>
    <property name="compositing">0</property>
    <property name="distort">0</property>
    <property name="kdenlive:collapsed">0</property>
   </filter>
   <filter id="filter338" in="00:00:42.967" out="00:00:44.067">
    <property name="start">1</property>
    <property name="mlt_service">brightness</property>
    <property name="kdenlive_id">fade_to_black</property>
    <property name="end">0</property>
    <property name="alpha">-1</property>
    <property name="kdenlive:collapsed">0</property>
   </filter>
  </entry>
 </playlist>
 <playlist id="playlist33"/>
 <tractor id="tractor16" in="00:00:00.000" out="00:01:47.200">
  <property name="kdenlive:trackheight">69</property>
  <property name="kdenlive:timeline_active">1</property>
  <property name="kdenlive:collapsed">0</property>
  <property name="kdenlive:track_name">panels</property>
  <property name="kdenlive:thumbs_format"/>
  <property name="kdenlive:audio_rec"/>
  <track hide="audio" producer="playlist32"/>
  <track producer="playlist33"/>
 </tractor>
 <tractor id="tractor17" global_feed="1" in="00:00:00.000" out="00:39:37.733">
  <track producer="black_track"/>
  <track producer="tractor0"/>
  <track producer="tractor1"/>
  <track producer="tractor2"/>
  <track producer="tractor3"/>
  <track producer="tractor4"/>
  <track producer="tractor5"/>
  <track producer="tractor6"/>
  <track producer="tractor7"/>
  <track producer="tractor8"/>
  <track producer="tractor9"/>
  <track producer="tractor10"/>
  <track producer="tractor11"/>
  <track producer="tractor12"/>
  <track producer="tractor13"/>
  <track producer="tractor14"/>
  <track producer="tractor15"/>
  <track producer="tractor16"/>
  <transition id="transition0" in="00:02:33.633" out="00:02:33.667">
   <property name="a_track">15</property>
   <property name="b_track">16</property>
   <property name="start">0/0:100%x100%</property>
   <property name="factory">loader</property>
   <property name="aligned">0</property>
   <property name="progressive">1</property>
   <property name="mlt_service">composite</property>
   <property name="kdenlive_id">wipe</property>
   <property name="softness">0</property>
   <property name="luma"/>
   <property name="luma_invert">0</property>
   <property name="geometry">0%/0%:100%x100%:0;-1=0%/0%:100%x100%:100</property>
   <property name="fill">1</property>
  </transition>
  <transition id="transition1" in="00:03:39.567" out="00:03:40.333">
   <property name="a_track">10</property>
   <property name="b_track">14</property>
   <property name="start">0/0:100%x100%</property>
   <property name="factory">loader</property>
   <property name="aligned">0</property>
   <property name="progressive">1</property>
   <property name="mlt_service">composite</property>
   <property name="kdenlive_id">wipe</property>
   <property name="force_track">1</property>
   <property name="softness">0</property>
   <property name="luma"/>
   <property name="luma_invert">0</property>
   <property name="geometry">0%/0%:100%x100%:100;-1=0%/0%:100%x100%:0</property>
   <property name="fill">1</property>
  </transition>
  <transition id="transition2" in="00:03:39.567" out="00:03:40.333">
   <property name="a_track">10</property>
   <property name="b_track">15</property>
   <property name="start">0/0:100%x100%</property>
   <property name="factory">loader</property>
   <property name="aligned">0</property>
   <property name="progressive">1</property>
   <property name="mlt_service">composite</property>
   <property name="kdenlive_id">wipe</property>
   <property name="force_track">1</property>
   <property name="softness">0</property>
   <property name="luma"/>
   <property name="luma_invert">0</property>
   <property name="geometry">0%/0%:100%x100%:100;-1=0%/0%:100%x100%:0</property>
   <property name="fill">1</property>
  </transition>
  <transition id="transition3" in="00:01:01.767" out="00:01:02.600">
   <property name="a_track">7</property>
   <property name="b_track">8</property>
   <property name="start">0/0:100%x100%</property>
   <property name="factory">loader</property>
   <property name="aligned">0</property>
   <property name="progressive">1</property>
   <property name="mlt_service">composite</property>
   <property name="kdenlive_id">wipe</property>
   <property name="softness">0</property>
   <property name="luma"/>
   <property name="luma_invert">0</property>
   <property name="geometry">0%/0%:100%x100%:100;-1=0%/0%:100%x100%:0</property>
   <property name="fill">1</property>
  </transition>
  <transition id="transition4" in="00:00:57.967" out="00:00:58.333">
   <property name="a_track">7</property>
   <property name="b_track">8</property>
   <property name="start">0/0:100%x100%</property>
   <property name="factory">loader</property>
   <property name="aligned">0</property>
   <property name="progressive">1</property>
   <property name="mlt_service">composite</property>
   <property name="kdenlive_id">wipe</property>
   <property name="softness">0</property>
   <property name="luma"/>
   <property name="luma_invert">0</property>
   <property name="geometry">0%/0%:100%x100%:0;-1=0%/0%:100%x100%:100</property>
   <property name="fill">1</property>
  </transition>
  <transition id="transition5" in="00:05:07.800" out="00:05:32.167">
   <property name="a_track">7</property>
   <property name="b_track">10</property>
   <property name="version">0.9</property>
   <property name="mlt_service">frei0r.cairoblend</property>
   <property name="kdenlive_id">frei0r.cairoblend</property>
   <property name="force_track">1</property>
   <property name="0">00:00:00.000=0.68;00:00:19.233=0.68;00:00:20.367=0.91;00:00:22.700=0.91;00:00:24.367=1</property>
   <property name="1">hslluminosity</property>
  </transition>
  <transition id="transition6" in="00:01:03.133" out="00:01:03.333">
   <property name="a_track">7</property>
   <property name="b_track">17</property>
   <property name="start">0/0:100%x100%</property>
   <property name="factory">loader</property>
   <property name="aligned">0</property>
   <property name="progressive">1</property>
   <property name="mlt_service">composite</property>
   <property name="kdenlive_id">wipe</property>
   <property name="force_track">1</property>
   <property name="softness">0</property>
   <property name="luma"/>
   <property name="luma_invert">0</property>
   <property name="geometry">0%/0%:100%x100%:0;-1=0%/0%:100%x100%:100</property>
   <property name="fill">1</property>
  </transition>
  <transition id="transition7" in="00:00:50.000" out="00:00:50.100">
   <property name="a_track">6</property>
   <property name="b_track">7</property>
   <property name="start">0/0:100%x100%</property>
   <property name="factory">loader</property>
   <property name="aligned">0</property>
   <property name="progressive">1</property>
   <property name="mlt_service">composite</property>
   <property name="kdenlive_id">wipe</property>
   <property name="softness">0</property>
   <property name="luma"/>
   <property name="luma_invert">0</property>
   <property name="geometry">0%/0%:100%x100%:100;-1=0%/0%:100%x100%:0</property>
   <property name="fill">1</property>
  </transition>
  <transition id="transition8" in="00:00:53.833" out="00:00:53.900">
   <property name="a_track">6</property>
   <property name="b_track">7</property>
   <property name="start">0/0:100%x100%</property>
   <property name="factory">loader</property>
   <property name="aligned">0</property>
   <property name="progressive">1</property>
   <property name="mlt_service">composite</property>
   <property name="kdenlive_id">wipe</property>
   <property name="softness">0</property>
   <property name="luma"/>
   <property name="luma_invert">0</property>
   <property name="geometry">0%/0%:100%x100%:0;-1=0%/0%:100%x100%:100</property>
   <property name="fill">1</property>
  </transition>
  <transition id="transition9" in="00:00:12.167" out="00:00:46.700">
   <property name="a_track">6</property>
   <property name="b_track">10</property>
   <property name="version">0.9</property>
   <property name="mlt_service">frei0r.cairoblend</property>
   <property name="kdenlive_id">frei0r.cairoblend</property>
   <property name="force_track">1</property>
   <property name="0">00:00:00.000=100</property>
   <property name="1">lighten</property>
  </transition>
  <transition id="transition10" in="00:01:00.100" out="00:01:00.200">
   <property name="a_track">5</property>
   <property name="b_track">6</property>
   <property name="start">0/0:100%x100%</property>
   <property name="factory">loader</property>
   <property name="aligned">0</property>
   <property name="progressive">1</property>
   <property name="mlt_service">composite</property>
   <property name="kdenlive_id">wipe</property>
   <property name="softness">0</property>
   <property name="luma"/>
   <property name="luma_invert">0</property>
   <property name="geometry">0%/0%:100%x100%:100;-1=0%/0%:100%x100%:0</property>
   <property name="fill">1</property>
  </transition>
  <transition id="transition11" in="00:00:56.400" out="00:00:56.667">
   <property name="a_track">5</property>
   <property name="b_track">6</property>
   <property name="start">0/0:100%x100%</property>
   <property name="factory">loader</property>
   <property name="aligned">0</property>
   <property name="progressive">1</property>
   <property name="mlt_service">composite</property>
   <property name="kdenlive_id">wipe</property>
   <property name="softness">0</property>
   <property name="luma"/>
   <property name="luma_invert">0</property>
   <property name="geometry">0%/0%:100%x100%:0;-1=0%/0%:100%x100%:100</property>
   <property name="fill">1</property>
  </transition>
  <transition id="transition12" in="00:02:33.700" out="00:03:40.267">
   <property name="a_track">4</property>
   <property name="b_track">16</property>
   <property name="version">0.9</property>
   <property name="mlt_service">frei0r.cairoblend</property>
   <property name="kdenlive_id">frei0r.cairoblend</property>
   <property name="force_track">1</property>
   <property name="0">00:00:00.000=100</property>
   <property name="1">hslluminosity</property>
  </transition>
  <transition id="transition13" in="00:03:55.133" out="00:03:55.967">
   <property name="a_track">3</property>
   <property name="b_track">8</property>
   <property name="start">0/0:100%x100%</property>
   <property name="factory">loader</property>
   <property name="aligned">0</property>
   <property name="progressive">1</property>
   <property name="mlt_service">composite</property>
   <property name="kdenlive_id">wipe</property>
   <property name="force_track">1</property>
   <property name="softness">0</property>
   <property name="luma"/>
   <property name="luma_invert">0</property>
   <property name="geometry">0%/0%:100%x100%:0;-1=0%/0%:100%x100%:100</property>
   <property name="fill">1</property>
  </transition>
  <transition id="transition14" in="00:03:45.133" out="00:03:47.133">
   <property name="a_track">3</property>
   <property name="b_track">8</property>
   <property name="start">0/0:100%x100%</property>
   <property name="factory">loader</property>
   <property name="aligned">0</property>
   <property name="progressive">1</property>
   <property name="mlt_service">composite</property>
   <property name="kdenlive_id">wipe</property>
   <property name="force_track">1</property>
   <property name="softness">0</property>
   <property name="luma"/>
   <property name="luma_invert">0</property>
   <property name="geometry">0%/0%:100%x100%:100;-1=0%/0%:100%x100%:0</property>
   <property name="fill">1</property>
  </transition>
  <transition id="transition15" in="00:03:36.633" out="00:03:55.967">
   <property name="a_track">3</property>
   <property name="b_track">10</property>
   <property name="version">0.9</property>
   <property name="mlt_service">frei0r.cairoblend</property>
   <property name="kdenlive_id">frei0r.cairoblend</property>
   <property name="force_track">1</property>
   <property name="0">00:00:00.000=0.83</property>
   <property name="1">hslluminosity</property>
  </transition>
  <transition id="transition16">
   <property name="a_track">0</property>
   <property name="b_track">1</property>
   <property name="mlt_service">mix</property>
   <property name="kdenlive_id">mix</property>
   <property name="internal_added">237</property>
   <property name="always_active">1</property>
   <property name="accepts_blanks">1</property>
   <property name="sum">1</property>
  </transition>
  <transition id="transition17">
   <property name="a_track">0</property>
   <property name="b_track">2</property>
   <property name="mlt_service">mix</property>
   <property name="kdenlive_id">mix</property>
   <property name="internal_added">237</property>
   <property name="always_active">1</property>
   <property name="accepts_blanks">1</property>
   <property name="sum">1</property>
  </transition>
  <transition id="transition18">
   <property name="a_track">0</property>
   <property name="b_track">3</property>
   <property name="compositing">0</property>
   <property name="distort">0</property>
   <property name="rotate_center">0</property>
   <property name="mlt_service">qtblend</property>
   <property name="kdenlive_id">qtblend</property>
   <property name="internal_added">237</property>
   <property name="always_active">1</property>
  </transition>
  <transition id="transition19">
   <property name="a_track">0</property>
   <property name="b_track">4</property>
   <property name="compositing">0</property>
   <property name="distort">0</property>
   <property name="rotate_center">0</property>
   <property name="mlt_service">qtblend</property>
   <property name="kdenlive_id">qtblend</property>
   <property name="internal_added">237</property>
   <property name="always_active">1</property>
  </transition>
  <transition id="transition20">
   <property name="a_track">0</property>
   <property name="b_track">5</property>
   <property name="compositing">0</property>
   <property name="distort">0</property>
   <property name="rotate_center">0</property>
   <property name="mlt_service">qtblend</property>
   <property name="kdenlive_id">qtblend</property>
   <property name="internal_added">237</property>
   <property name="always_active">1</property>
  </transition>
  <transition id="transition21">
   <property name="a_track">0</property>
   <property name="b_track">6</property>
   <property name="compositing">0</property>
   <property name="distort">0</property>
   <property name="rotate_center">0</property>
   <property name="mlt_service">qtblend</property>
   <property name="kdenlive_id">qtblend</property>
   <property name="internal_added">237</property>
   <property name="always_active">1</property>
  </transition>
  <transition id="transition22">
   <property name="a_track">0</property>
   <property name="b_track">7</property>
   <property name="compositing">0</property>
   <property name="distort">0</property>
   <property name="rotate_center">0</property>
   <property name="mlt_service">qtblend</property>
   <property name="kdenlive_id">qtblend</property>
   <property name="internal_added">237</property>
   <property name="always_active">1</property>
  </transition>
  <transition id="transition23">
   <property name="a_track">0</property>
   <property name="b_track">8</property>
   <property name="compositing">0</property>
   <property name="distort">0</property>
   <property name="rotate_center">0</property>
   <property name="mlt_service">qtblend</property>
   <property name="kdenlive_id">qtblend</property>
   <property name="internal_added">237</property>
   <property name="always_active">1</property>
  </transition>
  <transition id="transition24">
   <property name="a_track">0</property>
   <property name="b_track">9</property>
   <property name="compositing">0</property>
   <property name="distort">0</property>
   <property name="rotate_center">0</property>
   <property name="mlt_service">qtblend</property>
   <property name="kdenlive_id">qtblend</property>
   <property name="internal_added">237</property>
   <property name="always_active">1</property>
  </transition>
  <transition id="transition25">
   <property name="a_track">0</property>
   <property name="b_track">10</property>
   <property name="compositing">0</property>
   <property name="distort">0</property>
   <property name="rotate_center">0</property>
   <property name="mlt_service">qtblend</property>
   <property name="kdenlive_id">qtblend</property>
   <property name="internal_added">237</property>
   <property name="always_active">1</property>
  </transition>
  <transition id="transition26">
   <property name="a_track">0</property>
   <property name="b_track">11</property>
   <property name="compositing">0</property>
   <property name="distort">0</property>
   <property name="rotate_center">0</property>
   <property name="mlt_service">qtblend</property>
   <property name="kdenlive_id">qtblend</property>
   <property name="internal_added">237</property>
   <property name="always_active">1</property>
  </transition>
  <transition id="transition27">
   <property name="a_track">0</property>
   <property name="b_track">12</property>
   <property name="compositing">0</property>
   <property name="distort">0</property>
   <property name="rotate_center">0</property>
   <property name="mlt_service">qtblend</property>
   <property name="kdenlive_id">qtblend</property>
   <property name="internal_added">237</property>
   <property name="always_active">1</property>
  </transition>
  <transition id="transition28">
   <property name="a_track">0</property>
   <property name="b_track">13</property>
   <property name="compositing">0</property>
   <property name="distort">0</property>
   <property name="rotate_center">0</property>
   <property name="mlt_service">qtblend</property>
   <property name="kdenlive_id">qtblend</property>
   <property name="internal_added">237</property>
   <property name="always_active">1</property>
  </transition>
  <transition id="transition29">
   <property name="a_track">0</property>
   <property name="b_track">14</property>
   <property name="compositing">0</property>
   <property name="distort">0</property>
   <property name="rotate_center">0</property>
   <property name="mlt_service">qtblend</property>
   <property name="kdenlive_id">qtblend</property>
   <property name="internal_added">237</property>
   <property name="always_active">1</property>
  </transition>
  <transition id="transition30">
   <property name="a_track">0</property>
   <property name="b_track">15</property>
   <property name="compositing">0</property>
   <property name="distort">0</property>
   <property name="rotate_center">0</property>
   <property name="mlt_service">qtblend</property>
   <property name="kdenlive_id">qtblend</property>
   <property name="internal_added">237</property>
   <property name="always_active">1</property>
  </transition>
  <transition id="transition31">
   <property name="a_track">0</property>
   <property name="b_track">16</property>
   <property name="compositing">0</property>
   <property name="distort">0</property>
   <property name="rotate_center">0</property>
   <property name="mlt_service">qtblend</property>
   <property name="kdenlive_id">qtblend</property>
   <property name="internal_added">237</property>
   <property name="always_active">1</property>
  </transition>
  <transition id="transition32">
   <property name="a_track">0</property>
   <property name="b_track">17</property>
   <property name="compositing">0</property>
   <property name="distort">0</property>
   <property name="rotate_center">0</property>
   <property name="mlt_service">qtblend</property>
   <property name="kdenlive_id">qtblend</property>
   <property name="internal_added">237</property>
   <property name="always_active">1</property>
  </transition>
  <filter id="filter339">
   <property name="window">75</property>
   <property name="max_gain">20dB</property>
   <property name="level">0</property>
   <property name="mlt_service">volume</property>
   <property name="internal_added">237</property>
  </filter>
  <filter id="filter340">
   <property name="channel">-1</property>
   <property name="mlt_service">panner</property>
   <property name="internal_added">237</property>
   <property name="start">0.5</property>
  </filter>
  <filter id="filter70">
   <property name="iec_scale">0</property>
   <property name="mlt_service">audiolevel</property>
   <property name="disable">1</property>
  </filter>
 </tractor>
</mlt>
