<?xml version='1.0' encoding='utf-8'?>
<mlt LC_NUMERIC="C" producer="main_bin" version="6.26.1" root="/home/ryankelln/Documents/sound_escapes/Dhaivat">
 <profile frame_rate_num="30" sample_aspect_num="1" display_aspect_den="9" colorspace="709" progressive="1" description="HD 1080p 30 fps" display_aspect_num="16" frame_rate_den="1" width="1920" height="1080" sample_aspect_den="1"/>
 <producer id="producer17" in="00:00:00.000" out="00:08:06.933">
  <property name="length">14609</property>
  <property name="eof">pause</property>
  <property name="resource">content/tree_clock_mask.mp4</property>
  <property name="audio_index">-1</property>
  <property name="video_index">0</property>
  <property name="mute_on_pause">0</property>
  <property name="mlt_service">avformat-novalidate</property>
  <property name="seekable">1</property>
  <property name="aspect_ratio">1</property>
  <property name="kdenlive:clipname">tree_clock_mask.mp4</property>
  <property name="kdenlive:folderid">144</property>
  <property name="kdenlive:id">2</property>
  <property name="kdenlive:file_size">955585541</property>
  <property name="kdenlive:file_hash">ed659d2b80173b8c6dd5199b6281dbec</property>
  <property name="global_feed">1</property>
  <property name="kdenlive:zone_in">183</property>
  <property name="kdenlive:zone_out">14609</property>
  <property name="kdenlive:clipzones">[
    {
        "in": 183,
        "name": "Zone 1",
        "out": 14609
    }
]
</property>
  <property name="kdenlive:proxy">-</property>
  <property name="kdenlive:originalurl">content/tree_clock_mask.mp4</property>
  <property name="meta.media.nb_streams">1</property>
  <property name="meta.media.0.stream.type">video</property>
  <property name="meta.media.0.stream.frame_rate">29.97</property>
  <property name="meta.media.0.stream.sample_aspect_ratio">1</property>
  <property name="meta.media.0.codec.width">1920</property>
  <property name="meta.media.0.codec.height">1080</property>
  <property name="meta.media.0.codec.rotate">0</property>
  <property name="meta.media.0.codec.frame_rate">29.97</property>
  <property name="meta.media.0.codec.pix_fmt">yuv420p</property>
  <property name="meta.media.0.codec.sample_aspect_ratio">1</property>
  <property name="meta.media.0.codec.colorspace">709</property>
  <property name="meta.media.0.codec.color_trc">1</property>
  <property name="meta.media.0.codec.name">h264</property>
  <property name="meta.media.0.codec.long_name">H.264 / AVC / MPEG-4 AVC / MPEG-4 part 10</property>
  <property name="meta.media.0.codec.bit_rate">15695930</property>
  <property name="meta.attr.0.stream.handler_name.markup">VideoHandler</property>
  <property name="meta.attr.major_brand.markup">isom</property>
  <property name="meta.attr.minor_version.markup">512</property>
  <property name="meta.attr.compatible_brands.markup">isomiso2avc1mp41</property>
  <property name="meta.attr.encoder.markup">Lavf57.83.100</property>
  <property name="meta.media.sample_aspect_num">1</property>
  <property name="meta.media.sample_aspect_den">1</property>
  <property name="meta.media.frame_rate_num">30000</property>
  <property name="meta.media.frame_rate_den">1001</property>
  <property name="meta.media.colorspace">709</property>
  <property name="meta.media.color_trc">1</property>
  <property name="meta.media.width">1920</property>
  <property name="meta.media.height">1080</property>
  <property name="meta.media.color_range">mpeg</property>
 </producer>
 <producer id="producer0" in="00:00:00.000" out="00:02:47.467">
  <property name="length">5025</property>
  <property name="eof">pause</property>
  <property name="resource">content/footage/2021-04-24_Toronto_tree+magnolia+movement+macro.MP4</property>
  <property name="audio_index">1</property>
  <property name="video_index">0</property>
  <property name="mute_on_pause">0</property>
  <property name="mlt_service">avformat-novalidate</property>
  <property name="seekable">1</property>
  <property name="aspect_ratio">1</property>
  <property name="kdenlive:clipname">2021-04-24_Toronto_tree+magnolia+movement+macro.MP4</property>
  <property name="kdenlive:folderid">84</property>
  <property name="kdenlive:id">3</property>
  <property name="kdenlive:file_size">835733363</property>
  <property name="kdenlive:audio_max">91</property>
  <property name="kdenlive:zone_in">51</property>
  <property name="kdenlive:zone_out">1025</property>
  <property name="kdenlive:clipzones">[
    {
        "in": 51,
        "name": "Magnolia close-up",
        "out": 1025
    }
]
</property>
  <property name="global_feed">1</property>
  <property name="kdenlive:active_streams">-1</property>
  <property name="kdenlive:proxy">-</property>
  <property name="kdenlive:originalurl">content/footage/2021-04-24_Toronto_tree+magnolia+movement+macro.MP4</property>
  <property name="meta.media.nb_streams">3</property>
  <property name="meta.media.0.stream.type">video</property>
  <property name="meta.media.0.stream.frame_rate">24</property>
  <property name="meta.media.0.stream.sample_aspect_ratio">0</property>
  <property name="meta.media.0.codec.width">1920</property>
  <property name="meta.media.0.codec.height">1080</property>
  <property name="meta.media.0.codec.rotate">0</property>
  <property name="meta.media.0.codec.frame_rate">24</property>
  <property name="meta.media.0.codec.pix_fmt">yuv420p</property>
  <property name="meta.media.0.codec.sample_aspect_ratio">1</property>
  <property name="meta.media.0.codec.colorspace">709</property>
  <property name="meta.media.0.codec.color_trc">1</property>
  <property name="meta.media.0.codec.name">h264</property>
  <property name="meta.media.0.codec.long_name">H.264 / AVC / MPEG-4 AVC / MPEG-4 part 10</property>
  <property name="meta.media.0.codec.bit_rate">38366334</property>
  <property name="meta.attr.0.stream.creation_time.markup">2021-04-24T14:30:53.000000Z</property>
  <property name="meta.attr.0.stream.timecode.markup">05:45:17:03</property>
  <property name="meta.media.1.stream.type">audio</property>
  <property name="meta.media.1.codec.sample_fmt">s16</property>
  <property name="meta.media.1.codec.sample_rate">48000</property>
  <property name="meta.media.1.codec.channels">2</property>
  <property name="meta.media.1.codec.name">pcm_s16be</property>
  <property name="meta.media.1.codec.long_name">PCM signed 16-bit big-endian</property>
  <property name="meta.media.1.codec.bit_rate">1536000</property>
  <property name="meta.attr.1.stream.creation_time.markup">2021-04-24T14:30:53.000000Z</property>
  <property name="meta.attr.1.stream.timecode.markup">05:45:17:03</property>
  <property name="meta.attr.major_brand.markup">mp42</property>
  <property name="meta.attr.minor_version.markup">1</property>
  <property name="meta.attr.compatible_brands.markup">mp42avc1</property>
  <property name="meta.attr.creation_time.markup">2021-04-24T14:30:53.000000Z</property>
  <property name="meta.media.sample_aspect_num">1</property>
  <property name="meta.media.sample_aspect_den">1</property>
  <property name="meta.media.frame_rate_num">24</property>
  <property name="meta.media.frame_rate_den">1</property>
  <property name="meta.media.colorspace">709</property>
  <property name="meta.media.color_trc">1</property>
  <property name="meta.media.width">1920</property>
  <property name="meta.media.height">1080</property>
  <property name="meta.media.color_range">mpeg</property>
  <property name="kdenlive:file_hash">16a034a0362eb6219c2b9586df72cc5c</property>
  <property name="meta.media.top_field_first">0</property>
  <property name="meta.media.progressive">1</property>
 </producer>
 <producer id="producer24" in="00:00:00.000" out="00:00:51.833">
  <property name="length">1556</property>
  <property name="eof">pause</property>
  <property name="resource">content/footage/FroggerHighway.mp4</property>
  <property name="audio_index">1</property>
  <property name="video_index">0</property>
  <property name="mute_on_pause">0</property>
  <property name="mlt_service">avformat-novalidate</property>
  <property name="seekable">1</property>
  <property name="aspect_ratio">1</property>
  <property name="kdenlive:clipname">FroggerHighway.mp4</property>
  <property name="kdenlive:folderid">84</property>
  <property name="kdenlive:id">4</property>
  <property name="kdenlive:file_size">287798706</property>
  <property name="kdenlive:audio_max">1</property>
  <property name="kdenlive:active_streams">-1</property>
  <property name="global_feed">1</property>
  <property name="kdenlive:proxy">-</property>
  <property name="kdenlive:originalurl">content/footage/FroggerHighway.mp4</property>
  <property name="kdenlive:file_hash">0bb82dae4964b034f7725bef8ca5cacc</property>
  <property name="meta.media.nb_streams">2</property>
  <property name="meta.media.0.stream.type">video</property>
  <property name="meta.media.0.stream.frame_rate">24</property>
  <property name="meta.media.0.stream.sample_aspect_ratio">0</property>
  <property name="meta.media.0.codec.width">1920</property>
  <property name="meta.media.0.codec.height">1080</property>
  <property name="meta.media.0.codec.rotate">0</property>
  <property name="meta.media.0.codec.frame_rate">24</property>
  <property name="meta.media.0.codec.pix_fmt">yuv420p</property>
  <property name="meta.media.0.codec.sample_aspect_ratio">1</property>
  <property name="meta.media.0.codec.colorspace">709</property>
  <property name="meta.media.0.codec.name">h264</property>
  <property name="meta.media.0.codec.long_name">H.264 / AVC / MPEG-4 AVC / MPEG-4 part 10</property>
  <property name="meta.media.0.codec.bit_rate">44255861</property>
  <property name="meta.attr.0.stream.creation_time.markup">2012-01-24T12:09:19.000000Z</property>
  <property name="meta.attr.0.stream.language.markup">eng</property>
  <property name="meta.attr.0.stream.handler_name.markup">Mainconcept MP4 Video Media Handler</property>
  <property name="meta.attr.0.stream.encoder.markup">AVC Coding</property>
  <property name="meta.media.1.stream.type">audio</property>
  <property name="meta.media.1.codec.sample_fmt">fltp</property>
  <property name="meta.media.1.codec.sample_rate">48000</property>
  <property name="meta.media.1.codec.channels">2</property>
  <property name="meta.media.1.codec.name">aac</property>
  <property name="meta.media.1.codec.long_name">AAC (Advanced Audio Coding)</property>
  <property name="meta.media.1.codec.bit_rate">157375</property>
  <property name="meta.attr.1.stream.creation_time.markup">2012-01-24T12:09:19.000000Z</property>
  <property name="meta.attr.1.stream.language.markup">eng</property>
  <property name="meta.attr.1.stream.handler_name.markup">Mainconcept MP4 Sound Media Handler</property>
  <property name="meta.attr.major_brand.markup">mp42</property>
  <property name="meta.attr.minor_version.markup">0</property>
  <property name="meta.attr.compatible_brands.markup">mp42mp41</property>
  <property name="meta.attr.creation_time.markup">2012-01-24T12:09:19.000000Z</property>
  <property name="meta.media.sample_aspect_num">1</property>
  <property name="meta.media.sample_aspect_den">1</property>
  <property name="meta.media.frame_rate_num">24</property>
  <property name="meta.media.frame_rate_den">1</property>
  <property name="meta.media.colorspace">709</property>
  <property name="meta.media.color_trc">2</property>
  <property name="meta.media.width">1920</property>
  <property name="meta.media.height">1080</property>
  <property name="meta.media.color_range">mpeg</property>
  <property name="meta.media.top_field_first">0</property>
  <property name="meta.media.progressive">1</property>
 </producer>
 <producer id="producer28" in="00:00:00.000" out="00:01:53.200">
  <property name="length">3397</property>
  <property name="eof">pause</property>
  <property name="resource">content/footage/Pollution Crime (English)-rIBEn5WsugE.mkv</property>
  <property name="audio_index">1</property>
  <property name="video_index">0</property>
  <property name="mute_on_pause">0</property>
  <property name="mlt_service">avformat-novalidate</property>
  <property name="seekable">1</property>
  <property name="aspect_ratio">1</property>
  <property name="kdenlive:clipname">Pollution Crime (English)-rIBEn5WsugE.mkv</property>
  <property name="kdenlive:folderid">84</property>
  <property name="kdenlive:id">5</property>
  <property name="kdenlive:file_size">62236476</property>
  <property name="kdenlive:audio_max">1</property>
  <property name="kdenlive:active_streams">-1</property>
  <property name="kdenlive:zone_in">2454</property>
  <property name="kdenlive:zone_out">2549</property>
  <property name="kdenlive:clipzones">[
    {
        "in": 719,
        "name": "Zone 1",
        "out": 813
    },
    {
        "in": 991,
        "name": "Zone 2",
        "out": 1146
    },
    {
        "in": 2843,
        "name": "Zone 3",
        "out": 2936
    },
    {
        "in": 2454,
        "name": "surveillance",
        "out": 2549
    }
]
</property>
  <property name="global_feed">1</property>
  <property name="kdenlive:proxy">-</property>
  <property name="kdenlive:originalurl">content/footage/Pollution Crime (English)-rIBEn5WsugE.mkv</property>
  <property name="kdenlive:thumbnailFrame">2865</property>
  <property name="kdenlive:file_hash">b0319ab52772360ca5e70bd1bc11c090</property>
  <property name="meta.media.nb_streams">2</property>
  <property name="meta.media.0.stream.type">video</property>
  <property name="meta.media.0.stream.frame_rate">29.97</property>
  <property name="meta.media.0.stream.sample_aspect_ratio">1</property>
  <property name="meta.media.0.codec.width">1920</property>
  <property name="meta.media.0.codec.height">1080</property>
  <property name="meta.media.0.codec.rotate">0</property>
  <property name="meta.media.0.codec.frame_rate">29.97</property>
  <property name="meta.media.0.codec.pix_fmt">yuv420p</property>
  <property name="meta.media.0.codec.sample_aspect_ratio">1</property>
  <property name="meta.media.0.codec.colorspace">709</property>
  <property name="meta.media.0.codec.color_trc">1</property>
  <property name="meta.media.0.codec.name">h264</property>
  <property name="meta.media.0.codec.long_name">H.264 / AVC / MPEG-4 AVC / MPEG-4 part 10</property>
  <property name="meta.media.0.codec.bit_rate">0</property>
  <property name="meta.attr.0.stream.HANDLER_NAME.markup">ISO Media file produced by Google Inc.</property>
  <property name="meta.attr.0.stream.DURATION.markup">00:01:53.179000000</property>
  <property name="meta.media.1.stream.type">audio</property>
  <property name="meta.media.1.codec.sample_fmt">fltp</property>
  <property name="meta.media.1.codec.sample_rate">48000</property>
  <property name="meta.media.1.codec.channels">2</property>
  <property name="meta.media.1.codec.name">opus</property>
  <property name="meta.media.1.codec.long_name">Opus</property>
  <property name="meta.media.1.codec.bit_rate">0</property>
  <property name="meta.attr.1.stream.language.markup">eng</property>
  <property name="meta.attr.1.stream.DURATION.markup">00:01:53.221000000</property>
  <property name="meta.attr.COMPATIBLE_BRANDS.markup">iso6avc1mp41</property>
  <property name="meta.attr.MAJOR_BRAND.markup">dash</property>
  <property name="meta.attr.MINOR_VERSION.markup">0</property>
  <property name="meta.attr.ENCODER.markup">Lavf58.45.100</property>
  <property name="meta.media.sample_aspect_num">1</property>
  <property name="meta.media.sample_aspect_den">1</property>
  <property name="meta.media.frame_rate_num">30000</property>
  <property name="meta.media.frame_rate_den">1001</property>
  <property name="meta.media.colorspace">709</property>
  <property name="meta.media.color_trc">1</property>
  <property name="meta.media.width">1920</property>
  <property name="meta.media.height">1080</property>
  <property name="meta.media.color_range">mpeg</property>
  <property name="meta.media.top_field_first">0</property>
  <property name="meta.media.progressive">1</property>
 </producer>
 <producer id="producer25" in="00:00:00.000" out="00:08:19.067">
  <property name="length">14973</property>
  <property name="eof">pause</property>
  <property name="resource">content/footage/Rare Footage of 9_11 WTC Attack   Military videos-rHPZ0ue2chQ.mkv</property>
  <property name="audio_index">1</property>
  <property name="video_index">0</property>
  <property name="mute_on_pause">0</property>
  <property name="mlt_service">avformat-novalidate</property>
  <property name="seekable">1</property>
  <property name="aspect_ratio">1</property>
  <property name="kdenlive:clipname">Rare Footage of 9_11 WTC Attack   Military videos-rHPZ0ue2chQ.mkv</property>
  <property name="kdenlive:folderid">84</property>
  <property name="kdenlive:id">6</property>
  <property name="kdenlive:file_size">979289726</property>
  <property name="kdenlive:audio_max">1</property>
  <property name="kdenlive:active_streams">-1</property>
  <property name="kdenlive:zone_in">11136</property>
  <property name="kdenlive:zone_out">11426</property>
  <property name="kdenlive:clipzones">[
    {
        "in": 11136,
        "name": "Zone 1",
        "out": 11426
    }
]
</property>
  <property name="global_feed">1</property>
  <property name="kdenlive:proxy">-</property>
  <property name="kdenlive:originalurl">content/footage/Rare Footage of 9_11 WTC Attack   Military videos-rHPZ0ue2chQ.mkv</property>
  <property name="kdenlive:file_hash">4b889bc63195f63c736a034b5ff14f3c</property>
  <property name="meta.media.nb_streams">2</property>
  <property name="meta.media.0.stream.type">video</property>
  <property name="meta.media.0.stream.frame_rate">29.97</property>
  <property name="meta.media.0.stream.sample_aspect_ratio">1</property>
  <property name="meta.media.0.codec.width">3840</property>
  <property name="meta.media.0.codec.height">2160</property>
  <property name="meta.media.0.codec.rotate">0</property>
  <property name="meta.media.0.codec.frame_rate">1000</property>
  <property name="meta.media.0.codec.pix_fmt">yuv420p</property>
  <property name="meta.media.0.codec.sample_aspect_ratio">0</property>
  <property name="meta.media.0.codec.colorspace">709</property>
  <property name="meta.media.0.codec.color_trc">1</property>
  <property name="meta.media.0.codec.name">vp9</property>
  <property name="meta.media.0.codec.long_name">Google VP9</property>
  <property name="meta.media.0.codec.bit_rate">0</property>
  <property name="meta.attr.0.stream.language.markup">eng</property>
  <property name="meta.attr.0.stream.DURATION.markup">00:08:18.564000000</property>
  <property name="meta.media.1.stream.type">audio</property>
  <property name="meta.media.1.codec.sample_fmt">fltp</property>
  <property name="meta.media.1.codec.sample_rate">44100</property>
  <property name="meta.media.1.codec.channels">2</property>
  <property name="meta.media.1.codec.name">aac</property>
  <property name="meta.media.1.codec.long_name">AAC (Advanced Audio Coding)</property>
  <property name="meta.media.1.codec.bit_rate">0</property>
  <property name="meta.attr.1.stream.HANDLER_NAME.markup">ISO Media file produced by Google Inc. Created on: 03/16/2019.</property>
  <property name="meta.attr.1.stream.DURATION.markup">00:08:19.113000000</property>
  <property name="meta.attr.ENCODER.markup">Lavf58.45.100</property>
  <property name="meta.media.sample_aspect_num">1</property>
  <property name="meta.media.sample_aspect_den">1</property>
  <property name="meta.media.frame_rate_num">30000</property>
  <property name="meta.media.frame_rate_den">1001</property>
  <property name="meta.media.colorspace">709</property>
  <property name="meta.media.color_trc">1</property>
  <property name="meta.media.width">3840</property>
  <property name="meta.media.height">2160</property>
  <property name="meta.media.color_range">mpeg</property>
  <property name="meta.media.top_field_first">0</property>
  <property name="meta.media.progressive">1</property>
 </producer>
 <producer id="producer21" in="00:00:00.000" out="00:08:26.400">
  <property name="length">15193</property>
  <property name="eof">pause</property>
  <property name="resource">content/footage/Air Pollution HD Stock Video _ Free stock footage _ Free HD Videos - No Copyright _ Channel PMI-lq4ivmk9llM.mkv</property>
  <property name="audio_index">1</property>
  <property name="video_index">0</property>
  <property name="mute_on_pause">0</property>
  <property name="mlt_service">avformat-novalidate</property>
  <property name="seekable">1</property>
  <property name="aspect_ratio">1</property>
  <property name="kdenlive:clipname">Air Pollution HD Stock Video _ Free stock footage _ Free HD Videos - No Copyright _ Channel PMI-lq4ivmk9llM.mkv</property>
  <property name="kdenlive:folderid">84</property>
  <property name="kdenlive:id">7</property>
  <property name="kdenlive:file_size">716063831</property>
  <property name="kdenlive:audio_max">1</property>
  <property name="kdenlive:active_streams">-1</property>
  <property name="global_feed">1</property>
  <property name="kdenlive:proxy">-</property>
  <property name="kdenlive:originalurl">content/footage/Air Pollution HD Stock Video _ Free stock footage _ Free HD Videos - No Copyright _ Channel PMI-lq4ivmk9llM.mkv</property>
  <property name="kdenlive:zone_in">13193</property>
  <property name="kdenlive:zone_out">15107</property>
  <property name="kdenlive:clipzones">[
    {
        "in": 0,
        "name": "city1",
        "out": 500
    },
    {
        "in": 501,
        "name": "smoke from above",
        "out": 690
    },
    {
        "in": 691,
        "name": "night smoke",
        "out": 1085
    },
    {
        "in": 1086,
        "name": "highway pollution",
        "out": 1646
    },
    {
        "in": 1652,
        "name": "grey smog",
        "out": 2704
    },
    {
        "in": 2858,
        "name": "smokestack",
        "out": 3868
    },
    {
        "in": 5218,
        "name": "sunrise smoke and rice",
        "out": 6576
    },
    {
        "in": 6577,
        "name": "traffic timelapse",
        "out": 7883
    },
    {
        "in": 11270,
        "name": "drone factory 1",
        "out": 13183
    },
    {
        "in": 13193,
        "name": "drone factory 2",
        "out": 15107
    }
]
</property>
  <property name="kdenlive:file_hash">4feab2e10d8a80a2d2087eba7f4c2a96</property>
  <property name="meta.media.nb_streams">2</property>
  <property name="meta.media.0.stream.type">video</property>
  <property name="meta.media.0.stream.frame_rate">29.939</property>
  <property name="meta.media.0.stream.sample_aspect_ratio">1</property>
  <property name="meta.media.0.codec.width">3840</property>
  <property name="meta.media.0.codec.height">2160</property>
  <property name="meta.media.0.codec.rotate">0</property>
  <property name="meta.media.0.codec.frame_rate">1000</property>
  <property name="meta.media.0.codec.pix_fmt">yuv420p</property>
  <property name="meta.media.0.codec.sample_aspect_ratio">0</property>
  <property name="meta.media.0.codec.colorspace">709</property>
  <property name="meta.media.0.codec.color_trc">1</property>
  <property name="meta.media.0.codec.name">vp9</property>
  <property name="meta.media.0.codec.long_name">Google VP9</property>
  <property name="meta.media.0.codec.bit_rate">0</property>
  <property name="meta.attr.0.stream.language.markup">eng</property>
  <property name="meta.attr.0.stream.DURATION.markup">00:08:26.363000000</property>
  <property name="meta.media.1.stream.type">audio</property>
  <property name="meta.media.1.codec.sample_fmt">fltp</property>
  <property name="meta.media.1.codec.sample_rate">44100</property>
  <property name="meta.media.1.codec.channels">2</property>
  <property name="meta.media.1.codec.name">aac</property>
  <property name="meta.media.1.codec.long_name">AAC (Advanced Audio Coding)</property>
  <property name="meta.media.1.codec.bit_rate">0</property>
  <property name="meta.attr.1.stream.HANDLER_NAME.markup">ISO Media file produced by Google Inc.</property>
  <property name="meta.attr.1.stream.DURATION.markup">00:08:26.427000000</property>
  <property name="meta.attr.ENCODER.markup">Lavf58.45.100</property>
  <property name="meta.media.sample_aspect_num">1</property>
  <property name="meta.media.sample_aspect_den">1</property>
  <property name="meta.media.frame_rate_num">29939</property>
  <property name="meta.media.frame_rate_den">1000</property>
  <property name="meta.media.colorspace">709</property>
  <property name="meta.media.color_trc">1</property>
  <property name="meta.media.width">3840</property>
  <property name="meta.media.height">2160</property>
  <property name="meta.media.color_range">mpeg</property>
  <property name="meta.media.top_field_first">0</property>
  <property name="meta.media.progressive">1</property>
 </producer>
 <producer id="producer32" in="00:00:00.000" out="00:02:00.700">
  <property name="length">3622</property>
  <property name="eof">pause</property>
  <property name="resource">content/footage/Water Pollution HD Stock Video _ Free stock footage _ Free HD Videos - No Copyright _ Channel PMI-T8wQ6y_AQGE.webm</property>
  <property name="audio_index">1</property>
  <property name="video_index">0</property>
  <property name="mute_on_pause">0</property>
  <property name="mlt_service">avformat-novalidate</property>
  <property name="seekable">1</property>
  <property name="aspect_ratio">1</property>
  <property name="kdenlive:clipname">Water Pollution HD Stock Video _ Free stock footage _ Free HD Videos - No Copyright _ Channel PMI-T8wQ6y_AQGE.webm</property>
  <property name="kdenlive:folderid">84</property>
  <property name="kdenlive:id">8</property>
  <property name="kdenlive:file_size">140629286</property>
  <property name="kdenlive:audio_max">1</property>
  <property name="kdenlive:active_streams">-1</property>
  <property name="kdenlive:zone_in">1471</property>
  <property name="kdenlive:zone_out">2042</property>
  <property name="kdenlive:clipzones">[
    {
        "in": 652,
        "name": "throwing",
        "out": 1078
    },
    {
        "in": 1132,
        "name": "orange",
        "out": 1456
    },
    {
        "in": 1471,
        "name": "sludge",
        "out": 2042
    }
]
</property>
  <property name="global_feed">1</property>
  <property name="kdenlive:proxy">-</property>
  <property name="kdenlive:originalurl">content/footage/Water Pollution HD Stock Video _ Free stock footage _ Free HD Videos - No Copyright _ Channel PMI-T8wQ6y_AQGE.webm</property>
  <property name="kdenlive:file_hash">c551e4017b4fcc35602ab945d913e16d</property>
  <property name="meta.media.nb_streams">2</property>
  <property name="meta.media.0.stream.type">video</property>
  <property name="meta.media.0.stream.frame_rate">29.917</property>
  <property name="meta.media.0.stream.sample_aspect_ratio">1</property>
  <property name="meta.media.0.codec.width">3840</property>
  <property name="meta.media.0.codec.height">2160</property>
  <property name="meta.media.0.codec.rotate">0</property>
  <property name="meta.media.0.codec.frame_rate">1000</property>
  <property name="meta.media.0.codec.pix_fmt">yuv420p</property>
  <property name="meta.media.0.codec.sample_aspect_ratio">0</property>
  <property name="meta.media.0.codec.colorspace">709</property>
  <property name="meta.media.0.codec.color_trc">1</property>
  <property name="meta.media.0.codec.name">vp9</property>
  <property name="meta.media.0.codec.long_name">Google VP9</property>
  <property name="meta.media.0.codec.bit_rate">0</property>
  <property name="meta.attr.0.stream.language.markup">eng</property>
  <property name="meta.attr.0.stream.DURATION.markup">00:02:00.700000000</property>
  <property name="meta.media.1.stream.type">audio</property>
  <property name="meta.media.1.codec.sample_fmt">fltp</property>
  <property name="meta.media.1.codec.sample_rate">48000</property>
  <property name="meta.media.1.codec.channels">2</property>
  <property name="meta.media.1.codec.name">opus</property>
  <property name="meta.media.1.codec.long_name">Opus</property>
  <property name="meta.media.1.codec.bit_rate">0</property>
  <property name="meta.attr.1.stream.language.markup">eng</property>
  <property name="meta.attr.1.stream.DURATION.markup">00:02:00.721000000</property>
  <property name="meta.attr.ENCODER.markup">Lavf58.45.100</property>
  <property name="meta.media.sample_aspect_num">1</property>
  <property name="meta.media.sample_aspect_den">1</property>
  <property name="meta.media.frame_rate_num">29917</property>
  <property name="meta.media.frame_rate_den">1000</property>
  <property name="meta.media.colorspace">709</property>
  <property name="meta.media.color_trc">1</property>
  <property name="meta.media.width">3840</property>
  <property name="meta.media.height">2160</property>
  <property name="meta.media.color_range">mpeg</property>
  <property name="meta.media.top_field_first">0</property>
  <property name="meta.media.progressive">1</property>
 </producer>
 <producer id="producer23" in="00:00:00.000" out="00:08:59.600">
  <property name="length">16189</property>
  <property name="eof">pause</property>
  <property name="resource">content/footage/Fire Behaviour - Observation &amp; Training-p1iZPR6aIBc.mkv</property>
  <property name="audio_index">1</property>
  <property name="video_index">0</property>
  <property name="mute_on_pause">0</property>
  <property name="mlt_service">avformat-novalidate</property>
  <property name="seekable">1</property>
  <property name="aspect_ratio">1</property>
  <property name="kdenlive:clipname">Fire Behaviour - Observation &amp; Training-p1iZPR6aIBc.mkv</property>
  <property name="kdenlive:folderid">84</property>
  <property name="kdenlive:id">9</property>
  <property name="kdenlive:file_size">129628201</property>
  <property name="kdenlive:audio_max">2</property>
  <property name="kdenlive:zone_in">608</property>
  <property name="kdenlive:zone_out">682</property>
  <property name="kdenlive:clipzones">[
    {
        "in": 873,
        "name": "Zone 1",
        "out": 1625
    },
    {
        "in": 13238,
        "name": "Zone 2",
        "out": 13540
    },
    {
        "in": 873,
        "name": "Zone 3",
        "out": 992
    },
    {
        "in": 992,
        "name": "Zone 4",
        "out": 1238
    },
    {
        "in": 1239,
        "name": "Zone 5",
        "out": 1628
    },
    {
        "in": 1745,
        "name": "Zone 6",
        "out": 1954
    },
    {
        "in": 11198,
        "name": "Zone 7",
        "out": 11502
    },
    {
        "in": 608,
        "name": "Zone 8",
        "out": 682
    }
]
</property>
  <property name="kdenlive:active_streams">-1</property>
  <property name="global_feed">1</property>
  <property name="kdenlive:proxy">-</property>
  <property name="kdenlive:originalurl">content/footage/Fire Behaviour - Observation &amp; Training-p1iZPR6aIBc.mkv</property>
  <property name="kdenlive:file_hash">2cf87f7d8e63a09c6d378f999df2c886</property>
  <property name="meta.media.nb_streams">2</property>
  <property name="meta.media.0.stream.type">video</property>
  <property name="meta.media.0.stream.frame_rate">25</property>
  <property name="meta.media.0.stream.sample_aspect_ratio">1</property>
  <property name="meta.media.0.codec.width">1280</property>
  <property name="meta.media.0.codec.height">720</property>
  <property name="meta.media.0.codec.rotate">0</property>
  <property name="meta.media.0.codec.frame_rate">25</property>
  <property name="meta.media.0.codec.pix_fmt">yuv420p</property>
  <property name="meta.media.0.codec.sample_aspect_ratio">1</property>
  <property name="meta.media.0.codec.colorspace">709</property>
  <property name="meta.media.0.codec.color_trc">1</property>
  <property name="meta.media.0.codec.name">h264</property>
  <property name="meta.media.0.codec.long_name">H.264 / AVC / MPEG-4 AVC / MPEG-4 part 10</property>
  <property name="meta.media.0.codec.bit_rate">0</property>
  <property name="meta.attr.0.stream.HANDLER_NAME.markup">VideoHandler</property>
  <property name="meta.attr.0.stream.DURATION.markup">00:08:59.600000000</property>
  <property name="meta.media.1.stream.type">audio</property>
  <property name="meta.media.1.codec.sample_fmt">fltp</property>
  <property name="meta.media.1.codec.sample_rate">48000</property>
  <property name="meta.media.1.codec.channels">2</property>
  <property name="meta.media.1.codec.name">opus</property>
  <property name="meta.media.1.codec.long_name">Opus</property>
  <property name="meta.media.1.codec.bit_rate">0</property>
  <property name="meta.attr.1.stream.language.markup">eng</property>
  <property name="meta.attr.1.stream.DURATION.markup">00:08:59.641000000</property>
  <property name="meta.attr.COMPATIBLE_BRANDS.markup">iso6avc1mp41</property>
  <property name="meta.attr.MAJOR_BRAND.markup">dash</property>
  <property name="meta.attr.MINOR_VERSION.markup">0</property>
  <property name="meta.attr.ENCODER.markup">Lavf58.45.100</property>
  <property name="meta.media.sample_aspect_num">1</property>
  <property name="meta.media.sample_aspect_den">1</property>
  <property name="meta.media.frame_rate_num">25</property>
  <property name="meta.media.frame_rate_den">1</property>
  <property name="meta.media.colorspace">709</property>
  <property name="meta.media.color_trc">1</property>
  <property name="meta.media.width">1280</property>
  <property name="meta.media.height">720</property>
  <property name="meta.media.color_range">mpeg</property>
  <property name="meta.media.top_field_first">0</property>
  <property name="meta.media.progressive">1</property>
 </producer>
 <producer id="producer1" in="00:00:00.000" out="00:05:05.533">
  <property name="length">9167</property>
  <property name="eof">pause</property>
  <property name="resource">content/20210602_SpectrumMusic-SoundEscapesDHAIVAT EDIT 1.wav</property>
  <property name="meta.media.nb_streams">1</property>
  <property name="meta.media.0.stream.type">audio</property>
  <property name="meta.media.0.codec.sample_fmt">s32</property>
  <property name="meta.media.0.codec.sample_rate">44100</property>
  <property name="meta.media.0.codec.channels">2</property>
  <property name="meta.media.0.codec.name">pcm_s24le</property>
  <property name="meta.media.0.codec.long_name">PCM signed 24-bit little-endian</property>
  <property name="meta.media.0.codec.bit_rate">2116800</property>
  <property name="meta.attr.encoded_by.markup">Pro Tools</property>
  <property name="meta.attr.originator_reference.markup">aui7NJzx4vHk</property>
  <property name="meta.attr.date.markup">2021-06-06</property>
  <property name="meta.attr.creation_time.markup">22:00:46</property>
  <property name="meta.attr.time_reference.markup">13398016</property>
  <property name="meta.attr.umid.markup">0x060A2B340101010501010F101300000015785D98E7EC8500728E005056C00001</property>
  <property name="seekable">1</property>
  <property name="audio_index">0</property>
  <property name="video_index">-1</property>
  <property name="mute_on_pause">1</property>
  <property name="mlt_service">avformat</property>
  <property name="kdenlive:clipname"/>
  <property name="kdenlive:folderid">-1</property>
  <property name="kdenlive:id">10</property>
  <property name="kdenlive:file_size">81284674</property>
  <property name="kdenlive:file_hash">fd2b797ba192f1627941de5184093cc1</property>
  <property name="kdenlive:audio_max">1</property>
  <property name="global_feed">1</property>
 </producer>
 <producer id="producer2" in="00:00:00.000" out="00:05:23.333">
  <property name="length">9701</property>
  <property name="eof">pause</property>
  <property name="resource">content/2021-02-06_20-14-08_Chris_piano+synth_dhaivat_C0018.MP4</property>
  <property name="audio_index">-1</property>
  <property name="video_index">0</property>
  <property name="mute_on_pause">0</property>
  <property name="mlt_service">avformat-novalidate</property>
  <property name="seekable">1</property>
  <property name="aspect_ratio">1</property>
  <property name="kdenlive:clipname">2021-02-06_20-14-08_Chris_piano+synth_dhaivat_C0018.MP4</property>
  <property name="kdenlive:folderid">65</property>
  <property name="kdenlive:id">11</property>
  <property name="kdenlive:file_size">1950593737</property>
  <property name="kdenlive:file_hash">2f4faf307d5f1fd5a04bac712f640e90</property>
  <property name="kdenlive:zone_in">1578</property>
  <property name="kdenlive:zone_out">5019</property>
  <property name="kdenlive:clipzones">[
    {
        "in": 1578,
        "name": "piano solo",
        "out": 5019
    }
]
</property>
  <property name="global_feed">1</property>
  <property name="kdenlive:proxy">-</property>
  <property name="kdenlive:originalurl">content/2021-02-06_20-14-08_Chris_piano+synth_dhaivat_C0018.MP4</property>
  <property name="kdenlive:activeeffect">0</property>
  <property name="meta.media.nb_streams">1</property>
  <property name="meta.media.0.stream.type">video</property>
  <property name="meta.media.0.stream.frame_rate">29.97</property>
  <property name="meta.media.0.stream.sample_aspect_ratio">1</property>
  <property name="meta.media.0.codec.width">1920</property>
  <property name="meta.media.0.codec.height">1080</property>
  <property name="meta.media.0.codec.rotate">0</property>
  <property name="meta.media.0.codec.frame_rate">29.97</property>
  <property name="meta.media.0.codec.pix_fmt">yuv420p</property>
  <property name="meta.media.0.codec.sample_aspect_ratio">1</property>
  <property name="meta.media.0.codec.colorspace">709</property>
  <property name="meta.media.0.codec.color_trc">1</property>
  <property name="meta.media.0.codec.name">h264</property>
  <property name="meta.media.0.codec.long_name">H.264 / AVC / MPEG-4 AVC / MPEG-4 part 10</property>
  <property name="meta.media.0.codec.bit_rate">48256015</property>
  <property name="meta.attr.0.stream.creation_time.markup">2021-06-03T20:14:08.000000Z</property>
  <property name="meta.attr.0.stream.handler_name.markup">Video Media Handler</property>
  <property name="meta.attr.major_brand.markup">isom</property>
  <property name="meta.attr.minor_version.markup">512</property>
  <property name="meta.attr.compatible_brands.markup">isomiso2avc1mp41</property>
  <property name="meta.attr.creation_time.markup">2021-06-03T20:14:08.000000Z</property>
  <property name="meta.attr.encoder.markup">Lavf58.45.100</property>
  <property name="meta.media.sample_aspect_num">1</property>
  <property name="meta.media.sample_aspect_den">1</property>
  <property name="meta.media.frame_rate_num">30000</property>
  <property name="meta.media.frame_rate_den">1001</property>
  <property name="meta.media.colorspace">709</property>
  <property name="meta.media.color_trc">1</property>
  <property name="meta.media.width">1920</property>
  <property name="meta.media.height">1080</property>
  <property name="meta.media.color_range">mpeg</property>
  <filter id="filter0">
   <property name="version">0.6</property>
   <property name="mlt_service">frei0r.select0r</property>
   <property name="kdenlive_id">frei0r.select0r</property>
   <property name="Color to select">0x6cba82ff</property>
   <property name="Invert selection">1</property>
   <property name="Selection subspace">1</property>
   <property name="Subspace shape">0.5</property>
   <property name="Edge mode">0.35</property>
   <property name="Delta R / A / Hue">00:00:00.000=0.126</property>
   <property name="Delta G / B / Chroma">00:00:00.000=0.285</property>
   <property name="Delta B / I / I">00:00:00.000=0.331</property>
   <property name="Slope">00:00:00.000=0.068</property>
   <property name="Operation">0.5</property>
   <property name="kdenlive:collapsed">0</property>
  </filter>
 </producer>
 <producer id="producer3" in="00:00:00.000" out="00:05:04.367">
  <property name="length">9132</property>
  <property name="eof">pause</property>
  <property name="resource">content/2021-02-06_Caleb_electric+handheld_dhaivat_MVI_6044-take3.MOV</property>
  <property name="audio_index">1</property>
  <property name="video_index">0</property>
  <property name="mute_on_pause">0</property>
  <property name="mlt_service">avformat-novalidate</property>
  <property name="seekable">1</property>
  <property name="aspect_ratio">1</property>
  <property name="kdenlive:clipname">2021-02-06_Caleb_electric+handheld_dhaivat_MVI_6044-take3.MOV</property>
  <property name="kdenlive:folderid">65</property>
  <property name="kdenlive:id">12</property>
  <property name="kdenlive:file_size">1232897294</property>
  <property name="kdenlive:file_hash">6eaa6d2422217289142c5656b81e0405</property>
  <property name="kdenlive:audio_max">1</property>
  <property name="kdenlive:zone_in">493</property>
  <property name="kdenlive:zone_out">1131</property>
  <property name="kdenlive:clipzones">[
    {
        "in": 493,
        "name": "bass second entry",
        "out": 1131
    }
]
</property>
  <property name="global_feed">1</property>
  <property name="kdenlive:proxy">-</property>
  <property name="kdenlive:originalurl">content/2021-02-06_Caleb_electric+handheld_dhaivat_MVI_6044-take3.MOV</property>
  <property name="kdenlive:activeeffect">2</property>
  <property name="kdenlive:active_streams">-1</property>
  <property name="meta.media.nb_streams">2</property>
  <property name="meta.media.0.stream.type">video</property>
  <property name="meta.media.0.stream.frame_rate">29.97</property>
  <property name="meta.media.0.stream.sample_aspect_ratio">0</property>
  <property name="meta.media.0.codec.width">1280</property>
  <property name="meta.media.0.codec.height">720</property>
  <property name="meta.media.0.codec.rotate">0</property>
  <property name="meta.media.0.codec.frame_rate">30000</property>
  <property name="meta.media.0.codec.pix_fmt">yuvj420p</property>
  <property name="meta.media.0.codec.sample_aspect_ratio">0</property>
  <property name="meta.media.0.codec.colorspace">601</property>
  <property name="meta.media.0.codec.color_trc">1</property>
  <property name="meta.media.0.codec.name">h264</property>
  <property name="meta.media.0.codec.long_name">H.264 / AVC / MPEG-4 AVC / MPEG-4 part 10</property>
  <property name="meta.media.0.codec.bit_rate">31631631</property>
  <property name="meta.attr.0.stream.creation_time.markup">2021-06-02T15:23:31.000000Z</property>
  <property name="meta.attr.0.stream.language.markup">eng</property>
  <property name="meta.attr.0.stream.handler_name.markup">VideoHandler</property>
  <property name="meta.media.1.stream.type">audio</property>
  <property name="meta.media.1.codec.sample_fmt">s16</property>
  <property name="meta.media.1.codec.sample_rate">48000</property>
  <property name="meta.media.1.codec.channels">1</property>
  <property name="meta.media.1.codec.name">pcm_s16le</property>
  <property name="meta.media.1.codec.long_name">PCM signed 16-bit little-endian</property>
  <property name="meta.media.1.codec.bit_rate">768000</property>
  <property name="meta.attr.1.stream.creation_time.markup">2021-06-02T15:23:31.000000Z</property>
  <property name="meta.attr.1.stream.language.markup">eng</property>
  <property name="meta.attr.1.stream.handler_name.markup">SoundHandler</property>
  <property name="meta.attr.major_brand.markup">qt  </property>
  <property name="meta.attr.minor_version.markup">512</property>
  <property name="meta.attr.compatible_brands.markup">qt  </property>
  <property name="meta.attr.creation_time.markup">2021-06-02T15:23:31.000000Z</property>
  <property name="meta.attr.encoder.markup">Lavf58.45.100</property>
  <property name="meta.media.sample_aspect_num">1</property>
  <property name="meta.media.sample_aspect_den">1</property>
  <property name="meta.media.frame_rate_num">30000</property>
  <property name="meta.media.frame_rate_den">1001</property>
  <property name="meta.media.colorspace">601</property>
  <property name="meta.media.color_trc">1</property>
  <property name="meta.media.width">1280</property>
  <property name="meta.media.height">720</property>
  <property name="meta.media.color_range">full</property>
  <filter id="filter1">
   <property name="version">0.6</property>
   <property name="mlt_service">frei0r.select0r</property>
   <property name="kdenlive_id">frei0r.select0r</property>
   <property name="Color to select">0x58e4b5ff</property>
   <property name="Invert selection">1</property>
   <property name="Selection subspace">1</property>
   <property name="Subspace shape">0</property>
   <property name="Edge mode">0.9</property>
   <property name="Delta R / A / Hue">00:00:00.000=0.083</property>
   <property name="Delta G / B / Chroma">00:00:00.000=0.303</property>
   <property name="Delta B / I / I">00:00:00.000=0.377</property>
   <property name="Slope">00:00:00.000=0.087</property>
   <property name="Operation">0.5</property>
   <property name="kdenlive:collapsed">0</property>
   <property name="kdenlive:force_in_out">0</property>
  </filter>
  <filter id="filter2">
   <property name="version">0.4</property>
   <property name="mlt_service">frei0r.alpha0ps</property>
   <property name="kdenlive_id">frei0r.alpha0ps</property>
   <property name="Display">0</property>
   <property name="Display input alpha">0</property>
   <property name="Operation">1</property>
   <property name="Threshold">00:00:00.000=0.045</property>
   <property name="Shrink/Grow/Blur amount">00:00:00.000=0.205</property>
   <property name="Invert">0</property>
   <property name="kdenlive:collapsed">0</property>
  </filter>
  <filter id="filter3">
   <property name="version">0.3</property>
   <property name="mlt_service">frei0r.keyspillm0pup</property>
   <property name="kdenlive_id">frei0r.keyspillm0pup</property>
   <property name="Key color">0x52d067ff</property>
   <property name="Target color">0xC87F65ff</property>
   <property name="Mask type">0</property>
   <property name="Tolerance">00:00:00.000=0.323</property>
   <property name="Slope">00:00:00.000=0.243</property>
   <property name="Hue gate">00:00:00.000=0.179</property>
   <property name="Saturation threshold">00:00:00.000=0.199</property>
   <property name="Operation 1">1</property>
   <property name="Amount 1">00:00:00.000=0.5</property>
   <property name="Operation 2">3</property>
   <property name="Amount 2">00:00:00.000=0.328</property>
   <property name="Show mask">0</property>
   <property name="Mask to Alpha">0</property>
   <property name="kdenlive:collapsed">0</property>
  </filter>
 </producer>
 <producer id="producer4" in="00:00:00.000" out="00:02:22.233">
  <property name="length">4268</property>
  <property name="eof">pause</property>
  <property name="resource">content/2021-02-06_Chris_synth+4k_dhaivat_P1180156-take3_ending.MP4</property>
  <property name="audio_index">1</property>
  <property name="video_index">0</property>
  <property name="mute_on_pause">0</property>
  <property name="mlt_service">avformat-novalidate</property>
  <property name="seekable">1</property>
  <property name="aspect_ratio">1</property>
  <property name="kdenlive:clipname">2021-02-06_Chris_synth+4k_dhaivat_P1180156-take3_ending.MP4</property>
  <property name="kdenlive:folderid">65</property>
  <property name="kdenlive:id">13</property>
  <property name="kdenlive:file_size">1707894758</property>
  <property name="kdenlive:file_hash">4a65ba6c4d5a23a4e3c848bc95eb6a5b</property>
  <property name="kdenlive:audio_max">1</property>
  <property name="kdenlive:zone_in">49</property>
  <property name="kdenlive:zone_out">4164</property>
  <property name="kdenlive:clipzones">[
    {
        "in": 49,
        "name": "synth ending",
        "out": 4164
    }
]
</property>
  <property name="global_feed">1</property>
  <property name="kdenlive:proxy">-</property>
  <property name="kdenlive:originalurl">content/2021-02-06_Chris_synth+4k_dhaivat_P1180156-take3_ending.MP4</property>
  <property name="kdenlive:activeeffect">0</property>
  <property name="kdenlive:active_streams">-1</property>
  <property name="meta.media.nb_streams">2</property>
  <property name="meta.media.0.stream.type">video</property>
  <property name="meta.media.0.stream.frame_rate">29.97</property>
  <property name="meta.media.0.stream.sample_aspect_ratio">1</property>
  <property name="meta.media.0.codec.width">3840</property>
  <property name="meta.media.0.codec.height">2160</property>
  <property name="meta.media.0.codec.rotate">0</property>
  <property name="meta.media.0.codec.frame_rate">29.97</property>
  <property name="meta.media.0.codec.pix_fmt">yuvj420p</property>
  <property name="meta.media.0.codec.sample_aspect_ratio">1</property>
  <property name="meta.media.0.codec.colorspace">709</property>
  <property name="meta.media.0.codec.color_trc">1</property>
  <property name="meta.media.0.codec.name">h264</property>
  <property name="meta.media.0.codec.long_name">H.264 / AVC / MPEG-4 AVC / MPEG-4 part 10</property>
  <property name="meta.media.0.codec.bit_rate">95899185</property>
  <property name="meta.attr.0.stream.creation_time.markup">2021-06-02T15:25:09.000000Z</property>
  <property name="meta.attr.0.stream.handler_name.markup">VideoHandler</property>
  <property name="meta.media.1.stream.type">audio</property>
  <property name="meta.media.1.codec.sample_fmt">fltp</property>
  <property name="meta.media.1.codec.sample_rate">48000</property>
  <property name="meta.media.1.codec.channels">2</property>
  <property name="meta.media.1.codec.name">aac</property>
  <property name="meta.media.1.codec.long_name">AAC (Advanced Audio Coding)</property>
  <property name="meta.media.1.codec.bit_rate">125373</property>
  <property name="meta.attr.1.stream.creation_time.markup">2021-06-02T15:25:09.000000Z</property>
  <property name="meta.attr.1.stream.handler_name.markup">SoundHandler</property>
  <property name="meta.attr.major_brand.markup">isom</property>
  <property name="meta.attr.minor_version.markup">512</property>
  <property name="meta.attr.compatible_brands.markup">isomiso2avc1mp41</property>
  <property name="meta.attr.creation_time.markup">2021-06-02T15:25:09.000000Z</property>
  <property name="meta.attr.encoder.markup">Lavf58.45.100</property>
  <property name="meta.media.sample_aspect_num">1</property>
  <property name="meta.media.sample_aspect_den">1</property>
  <property name="meta.media.frame_rate_num">30000</property>
  <property name="meta.media.frame_rate_den">1001</property>
  <property name="meta.media.colorspace">709</property>
  <property name="meta.media.color_trc">1</property>
  <property name="meta.media.width">3840</property>
  <property name="meta.media.height">2160</property>
  <property name="meta.media.color_range">full</property>
  <filter id="filter4">
   <property name="version">0.6</property>
   <property name="mlt_service">frei0r.select0r</property>
   <property name="kdenlive_id">frei0r.select0r</property>
   <property name="Color to select">0x568754ff</property>
   <property name="Invert selection">1</property>
   <property name="Selection subspace">1</property>
   <property name="Subspace shape">1</property>
   <property name="Edge mode">0.9</property>
   <property name="Delta R / A / Hue">00:00:00.000=0.083</property>
   <property name="Delta G / B / Chroma">00:00:00.000=0.278</property>
   <property name="Delta B / I / I">00:00:00.000=0.373</property>
   <property name="Slope">00:00:00.000=0.106</property>
   <property name="Operation">0.5</property>
   <property name="kdenlive:collapsed">0</property>
   <property name="disable">0</property>
  </filter>
  <filter id="filter5">
   <property name="version">0.4</property>
   <property name="mlt_service">frei0r.alpha0ps</property>
   <property name="kdenlive_id">frei0r.alpha0ps</property>
   <property name="Display">0</property>
   <property name="Display input alpha">0</property>
   <property name="Operation">1</property>
   <property name="Threshold">00:00:00.000=0.5</property>
   <property name="Shrink/Grow/Blur amount">00:00:00.000=0.227</property>
   <property name="Invert">0</property>
   <property name="kdenlive:collapsed">0</property>
  </filter>
  <filter id="filter6">
   <property name="mode">alpha</property>
   <property name="alpha_operation">add</property>
   <property name="invert">0</property>
   <property name="feather">3</property>
   <property name="feather_passes">1</property>
   <property name="mlt_service">rotoscoping</property>
   <property name="kdenlive_id">rotoscoping</property>
   <property name="spline">{
    "000": [
        [
            [
                0.06568457538994801,
                0.40724191063174114
            ],
            [
                0.0684575389948007,
                0.37673343605546994
            ],
            [
                0.10485268630849219,
                0.3850539291217257
            ]
        ],
        [
            [
                0.21403812824956672,
                0.41001540832049305
            ],
            [
                0.25043327556325823,
                0.4183359013867488
            ],
            [
                0.25649913344887343,
                0.4186440677966101
            ]
        ],
        [
            [
                0.27469670710571925,
                0.41956856702619405
            ],
            [
                0.2807625649913345,
                0.4198767334360554
            ],
            [
                0.3233968804159445,
                0.48120184899845914
            ]
        ],
        [
            [
                0.4512998266897747,
                0.6651771956856702
            ],
            [
                0.4939341421143847,
                0.726502311248074
            ],
            [
                0.4935875216637781,
                0.7305084745762712
            ]
        ],
        [
            [
                0.49254766031195835,
                0.7425269645608628
            ],
            [
                0.49220103986135183,
                0.74653312788906
            ],
            [
                0.4942807625649913,
                0.7499229583975345
            ]
        ],
        [
            [
                0.5005199306759098,
                0.7600924499229583
            ],
            [
                0.5025996533795494,
                0.763482280431433
            ],
            [
                0.5025996533795494,
                0.773035439137134
            ]
        ],
        [
            [
                0.5025996533795494,
                0.8016949152542372
            ],
            [
                0.5025996533795494,
                0.8112480739599383
            ],
            [
                0.4996533795493934,
                0.8121725731895223
            ]
        ],
        [
            [
                0.49081455805892543,
                0.8149460708782742
            ],
            [
                0.48786828422876943,
                0.8158705701078582
            ],
            [
                0.5152512998266897,
                0.8580893682588597
            ]
        ],
        [
            [
                0.5974003466204506,
                0.9847457627118642
            ],
            [
                0.6247833622183709,
                1.026964560862866
            ],
            [
                0.5625649913344887,
                1.0285053929121724
            ]
        ],
        [
            [
                0.37590987868284226,
                1.0331278890600923
            ],
            [
                0.3136915077989601,
                1.034668721109399
            ],
            [
                0.30329289428076256,
                1.009090909090909
            ]
        ],
        [
            [
                0.2720970537261698,
                0.932357473035439
            ],
            [
                0.2616984402079722,
                0.9067796610169491
            ],
            [
                0.26152512998266897,
                0.8987673343605547
            ]
        ],
        [
            [
                0.2610051993067591,
                0.8747303543913713
            ],
            [
                0.26083188908145577,
                0.8667180277349767
            ],
            [
                0.24471403812824954,
                0.8676425269645608
            ]
        ],
        [
            [
                0.19636048526863084,
                0.8704160246533127
            ],
            [
                0.1802426343154246,
                0.8713405238828967
            ],
            [
                0.1551126516464471,
                0.8029275808936825
            ]
        ],
        [
            [
                0.07972270363951472,
                0.59768875192604
            ],
            [
                0.05459272097053726,
                0.5292758089368258
            ],
            [
                0.057365684575389944,
                0.49876733436055465
            ]
        ]
    ],
    "4267": [
        [
            [
                0.06568457538994801,
                0.40724191063174114
            ],
            [
                0.0684575389948007,
                0.37673343605546994
            ],
            [
                0.10485268630849219,
                0.3850539291217257
            ]
        ],
        [
            [
                0.21403812824956672,
                0.41001540832049305
            ],
            [
                0.25043327556325823,
                0.4183359013867488
            ],
            [
                0.25649913344887343,
                0.4186440677966101
            ]
        ],
        [
            [
                0.27469670710571925,
                0.41956856702619405
            ],
            [
                0.2807625649913345,
                0.4198767334360554
            ],
            [
                0.3233968804159445,
                0.48120184899845914
            ]
        ],
        [
            [
                0.4512998266897747,
                0.6651771956856702
            ],
            [
                0.4939341421143847,
                0.726502311248074
            ],
            [
                0.4935875216637781,
                0.7305084745762712
            ]
        ],
        [
            [
                0.49254766031195835,
                0.7425269645608628
            ],
            [
                0.49220103986135183,
                0.74653312788906
            ],
            [
                0.4942807625649913,
                0.7499229583975345
            ]
        ],
        [
            [
                0.5005199306759098,
                0.7600924499229583
            ],
            [
                0.5025996533795494,
                0.763482280431433
            ],
            [
                0.5025996533795494,
                0.773035439137134
            ]
        ],
        [
            [
                0.5025996533795494,
                0.8016949152542372
            ],
            [
                0.5025996533795494,
                0.8112480739599383
            ],
            [
                0.4996533795493934,
                0.8121725731895223
            ]
        ],
        [
            [
                0.49081455805892543,
                0.8149460708782742
            ],
            [
                0.48786828422876943,
                0.8158705701078582
            ],
            [
                0.5152512998266897,
                0.8580893682588597
            ]
        ],
        [
            [
                0.5974003466204506,
                0.9847457627118642
            ],
            [
                0.6247833622183709,
                1.026964560862866
            ],
            [
                0.5625649913344887,
                1.0285053929121724
            ]
        ],
        [
            [
                0.37590987868284226,
                1.0331278890600923
            ],
            [
                0.3136915077989601,
                1.034668721109399
            ],
            [
                0.30329289428076256,
                1.009090909090909
            ]
        ],
        [
            [
                0.2720970537261698,
                0.932357473035439
            ],
            [
                0.2616984402079722,
                0.9067796610169491
            ],
            [
                0.26152512998266897,
                0.8987673343605547
            ]
        ],
        [
            [
                0.2610051993067591,
                0.8747303543913713
            ],
            [
                0.26083188908145577,
                0.8667180277349767
            ],
            [
                0.24471403812824954,
                0.8676425269645608
            ]
        ],
        [
            [
                0.19636048526863084,
                0.8704160246533127
            ],
            [
                0.1802426343154246,
                0.8713405238828967
            ],
            [
                0.1551126516464471,
                0.8029275808936825
            ]
        ],
        [
            [
                0.07972270363951472,
                0.59768875192604
            ],
            [
                0.05459272097053726,
                0.5292758089368258
            ],
            [
                0.057365684575389944,
                0.49876733436055465
            ]
        ]
    ]
}
</property>
   <property name="kdenlive:collapsed">0</property>
  </filter>
  <filter id="filter7">
   <property name="version">0.3</property>
   <property name="mlt_service">frei0r.keyspillm0pup</property>
   <property name="kdenlive_id">frei0r.keyspillm0pup</property>
   <property name="Key color">0x6eab6bff</property>
   <property name="Target color">0xC87F65ff</property>
   <property name="Mask type">0</property>
   <property name="Tolerance">00:00:00.000=0.304</property>
   <property name="Slope">00:00:00.000=0.294</property>
   <property name="Hue gate">00:00:00.000=0.185</property>
   <property name="Saturation threshold">00:00:00.000=0.189</property>
   <property name="Operation 1">1</property>
   <property name="Amount 1">00:00:00.000=0.5</property>
   <property name="Operation 2">3</property>
   <property name="Amount 2">00:00:00.000=0.256</property>
   <property name="Show mask">0</property>
   <property name="Mask to Alpha">0</property>
   <property name="kdenlive:collapsed">0</property>
  </filter>
 </producer>
 <producer id="producer5" in="00:00:00.000" out="00:00:52.633">
  <property name="length">1580</property>
  <property name="eof">pause</property>
  <property name="resource">content/2021-02-06_Chris_synth+4k_dhaivat_P1180156-take3_opening.MP4</property>
  <property name="audio_index">1</property>
  <property name="video_index">0</property>
  <property name="mute_on_pause">0</property>
  <property name="mlt_service">avformat-novalidate</property>
  <property name="seekable">1</property>
  <property name="aspect_ratio">1</property>
  <property name="kdenlive:clipname">2021-02-06_Chris_synth+4k_dhaivat_P1180156-take3_opening.MP4</property>
  <property name="kdenlive:folderid">65</property>
  <property name="kdenlive:id">14</property>
  <property name="kdenlive:file_size">631052450</property>
  <property name="kdenlive:file_hash">0efd61042eb59ca6e960e19739c2c895</property>
  <property name="kdenlive:audio_max">5</property>
  <property name="kdenlive:zone_in">8</property>
  <property name="kdenlive:zone_out">617</property>
  <property name="kdenlive:clipzones">[
    {
        "in": 8,
        "name": "opening",
        "out": 617
    }
]
</property>
  <property name="global_feed">1</property>
  <property name="kdenlive:active_streams">-1</property>
  <property name="kdenlive:proxy">-</property>
  <property name="kdenlive:originalurl">content/2021-02-06_Chris_synth+4k_dhaivat_P1180156-take3_opening.MP4</property>
  <property name="kdenlive:activeeffect">0</property>
  <property name="meta.media.nb_streams">2</property>
  <property name="meta.media.0.stream.type">video</property>
  <property name="meta.media.0.stream.frame_rate">29.97</property>
  <property name="meta.media.0.stream.sample_aspect_ratio">1</property>
  <property name="meta.media.0.codec.width">3840</property>
  <property name="meta.media.0.codec.height">2160</property>
  <property name="meta.media.0.codec.rotate">0</property>
  <property name="meta.media.0.codec.frame_rate">29.97</property>
  <property name="meta.media.0.codec.pix_fmt">yuvj420p</property>
  <property name="meta.media.0.codec.sample_aspect_ratio">1</property>
  <property name="meta.media.0.codec.colorspace">709</property>
  <property name="meta.media.0.codec.color_trc">1</property>
  <property name="meta.media.0.codec.name">h264</property>
  <property name="meta.media.0.codec.long_name">H.264 / AVC / MPEG-4 AVC / MPEG-4 part 10</property>
  <property name="meta.media.0.codec.bit_rate">95869016</property>
  <property name="meta.attr.0.stream.creation_time.markup">2021-06-02T15:25:09.000000Z</property>
  <property name="meta.attr.0.stream.handler_name.markup">VideoHandler</property>
  <property name="meta.media.1.stream.type">audio</property>
  <property name="meta.media.1.codec.sample_fmt">fltp</property>
  <property name="meta.media.1.codec.sample_rate">48000</property>
  <property name="meta.media.1.codec.channels">2</property>
  <property name="meta.media.1.codec.name">aac</property>
  <property name="meta.media.1.codec.long_name">AAC (Advanced Audio Coding)</property>
  <property name="meta.media.1.codec.bit_rate">125373</property>
  <property name="meta.attr.1.stream.creation_time.markup">2021-06-02T15:25:09.000000Z</property>
  <property name="meta.attr.1.stream.handler_name.markup">SoundHandler</property>
  <property name="meta.attr.major_brand.markup">isom</property>
  <property name="meta.attr.minor_version.markup">512</property>
  <property name="meta.attr.compatible_brands.markup">isomiso2avc1mp41</property>
  <property name="meta.attr.creation_time.markup">2021-06-02T15:25:09.000000Z</property>
  <property name="meta.attr.encoder.markup">Lavf58.45.100</property>
  <property name="meta.media.sample_aspect_num">1</property>
  <property name="meta.media.sample_aspect_den">1</property>
  <property name="meta.media.frame_rate_num">30000</property>
  <property name="meta.media.frame_rate_den">1001</property>
  <property name="meta.media.colorspace">709</property>
  <property name="meta.media.color_trc">1</property>
  <property name="meta.media.width">3840</property>
  <property name="meta.media.height">2160</property>
  <property name="meta.media.color_range">full</property>
  <filter id="filter8">
   <property name="version">0.6</property>
   <property name="mlt_service">frei0r.select0r</property>
   <property name="kdenlive_id">frei0r.select0r</property>
   <property name="Color to select">0x568754ff</property>
   <property name="Invert selection">1</property>
   <property name="Selection subspace">1</property>
   <property name="Subspace shape">0.5</property>
   <property name="Edge mode">0.9</property>
   <property name="Delta R / A / Hue">00:00:00.000=0.07</property>
   <property name="Delta G / B / Chroma">00:00:00.000=0.227</property>
   <property name="Delta B / I / I">00:00:00.000=0.227</property>
   <property name="Slope">00:00:00.000=0.22</property>
   <property name="Operation">0.5</property>
   <property name="kdenlive:collapsed">0</property>
  </filter>
  <filter id="filter9">
   <property name="version">0.4</property>
   <property name="mlt_service">frei0r.alpha0ps</property>
   <property name="kdenlive_id">frei0r.alpha0ps</property>
   <property name="Display">0</property>
   <property name="Display input alpha">0</property>
   <property name="Operation">1</property>
   <property name="Threshold">00:00:00.000=0.5</property>
   <property name="Shrink/Grow/Blur amount">00:00:00.000=0.179</property>
   <property name="Invert">0</property>
   <property name="kdenlive:collapsed">0</property>
  </filter>
  <filter id="filter10">
   <property name="mode">alpha</property>
   <property name="alpha_operation">add</property>
   <property name="invert">0</property>
   <property name="feather">0</property>
   <property name="feather_passes">1</property>
   <property name="mlt_service">rotoscoping</property>
   <property name="kdenlive_id">rotoscoping</property>
   <property name="spline">{
    "000": [
        [
            [
                0.06256499133448873,
                0.39645608628659473
            ],
            [
                0.06412478336221837,
                0.37057010785824346
            ],
            [
                0.10121317157712305,
                0.38073959938366714
            ]
        ],
        [
            [
                0.2124783362218371,
                0.41124807395993834
            ],
            [
                0.24956672443674177,
                0.421417565485362
            ],
            [
                0.255632582322357,
                0.421417565485362
            ]
        ],
        [
            [
                0.2738301559792028,
                0.421417565485362
            ],
            [
                0.279896013864818,
                0.421417565485362
            ],
            [
                0.3225303292894281,
                0.48274268104776574
            ]
        ],
        [
            [
                0.4504332755632582,
                0.6667180277349768
            ],
            [
                0.4930675909878683,
                0.7280431432973805
            ],
            [
                0.4930675909878683,
                0.731432973805855
            ]
        ],
        [
            [
                0.4930675909878683,
                0.7416024653312788
            ],
            [
                0.4930675909878683,
                0.7449922958397535
            ],
            [
                0.4954939341421144,
                0.7477657935285054
            ]
        ],
        [
            [
                0.5027729636048527,
                0.7560862865947611
            ],
            [
                0.5051993067590987,
                0.758859784283513
            ],
            [
                0.504159445407279,
                0.7705701078582433
            ]
        ],
        [
            [
                0.5010398613518198,
                0.8057010785824344
            ],
            [
                0.5,
                0.8174114021571648
            ],
            [
                0.4974003466204506,
                0.8186440677966101
            ]
        ],
        [
            [
                0.4896013864818024,
                0.822342064714946
            ],
            [
                0.487001733102253,
                0.8235747303543913
            ],
            [
                0.5135181975736568,
                0.8617873651771957
            ]
        ],
        [
            [
                0.5930675909878682,
                0.9764252696456085
            ],
            [
                0.6195840554592721,
                1.0146379044684128
            ],
            [
                0.5584055459272097,
                1.0183359013867488
            ]
        ],
        [
            [
                0.3748700173310225,
                1.0294298921417566
            ],
            [
                0.3136915077989601,
                1.0331278890600923
            ],
            [
                0.30381282495667244,
                1.009090909090909
            ]
        ],
        [
            [
                0.2741767764298093,
                0.9369799691833589
            ],
            [
                0.26429809358752165,
                0.9129429892141756
            ],
            [
                0.24783362218370883,
                0.9049306625577812
            ]
        ],
        [
            [
                0.19844020797227035,
                0.8808936825885977
            ],
            [
                0.18197573656845753,
                0.8728813559322033
            ],
            [
                0.15684575389948005,
                0.7983050847457626
            ]
        ],
        [
            [
                0.08145580589254765,
                0.5745762711864407
            ],
            [
                0.05632582322357019,
                0.5
            ],
            [
                0.05788561525129983,
                0.47411402157164867
            ]
        ]
    ]
}
</property>
   <property name="kdenlive:collapsed">0</property>
  </filter>
  <filter id="filter11">
   <property name="version">0.3</property>
   <property name="mlt_service">frei0r.keyspillm0pup</property>
   <property name="kdenlive_id">frei0r.keyspillm0pup</property>
   <property name="Key color">0x59ad67ff</property>
   <property name="Target color">0xC87F65ff</property>
   <property name="Mask type">0</property>
   <property name="Tolerance">00:00:00.000=0.162</property>
   <property name="Slope">00:00:00.000=0.079</property>
   <property name="Hue gate">00:00:00.000=0.214</property>
   <property name="Saturation threshold">00:00:00.000=0.064</property>
   <property name="Operation 1">1</property>
   <property name="Amount 1">00:00:00.000=0.333</property>
   <property name="Operation 2">3</property>
   <property name="Amount 2">00:00:00.000=0.218</property>
   <property name="Show mask">0</property>
   <property name="Mask to Alpha">0</property>
   <property name="kdenlive:collapsed">0</property>
   <property name="disable">0</property>
  </filter>
 </producer>
 <producer id="producer6" in="00:00:00.000" out="00:04:49.267">
  <property name="length">8679</property>
  <property name="eof">pause</property>
  <property name="resource">content/2021-06-02_Caleb_electric+4k_dhaivat_P1000546-take3.MP4</property>
  <property name="audio_index">1</property>
  <property name="video_index">0</property>
  <property name="mute_on_pause">0</property>
  <property name="mlt_service">avformat-novalidate</property>
  <property name="seekable">1</property>
  <property name="aspect_ratio">1</property>
  <property name="kdenlive:clipname">2021-06-02_Caleb_electric+4k_dhaivat_P1000546-take3.MP4</property>
  <property name="kdenlive:folderid">65</property>
  <property name="kdenlive:id">15</property>
  <property name="kdenlive:file_size">3468421141</property>
  <property name="kdenlive:file_hash">2dea69c1a8c589a964ddc7161f50d232</property>
  <property name="kdenlive:audio_max">1</property>
  <property name="global_feed">1</property>
  <property name="kdenlive:zone_in">44</property>
  <property name="kdenlive:zone_out">368</property>
  <property name="kdenlive:clipzones">[
    {
        "in": 44,
        "name": "opening",
        "out": 368
    }
]
</property>
  <property name="kdenlive:proxy">-</property>
  <property name="kdenlive:originalurl">content/2021-06-02_Caleb_electric+4k_dhaivat_P1000546-take3.MP4</property>
  <property name="kdenlive:activeeffect">3</property>
  <property name="meta.media.nb_streams">2</property>
  <property name="meta.media.0.stream.type">video</property>
  <property name="meta.media.0.stream.frame_rate">29.97</property>
  <property name="meta.media.0.stream.sample_aspect_ratio">1</property>
  <property name="meta.media.0.codec.width">3328</property>
  <property name="meta.media.0.codec.height">2496</property>
  <property name="meta.media.0.codec.rotate">0</property>
  <property name="meta.media.0.codec.frame_rate">29.97</property>
  <property name="meta.media.0.codec.pix_fmt">yuvj420p</property>
  <property name="meta.media.0.codec.sample_aspect_ratio">1</property>
  <property name="meta.media.0.codec.colorspace">709</property>
  <property name="meta.media.0.codec.color_trc">1</property>
  <property name="meta.media.0.codec.name">h264</property>
  <property name="meta.media.0.codec.long_name">H.264 / AVC / MPEG-4 AVC / MPEG-4 part 10</property>
  <property name="meta.media.0.codec.bit_rate">95803943</property>
  <property name="meta.attr.0.stream.creation_time.markup">2021-06-02T15:25:14.000000Z</property>
  <property name="meta.attr.0.stream.handler_name.markup">VideoHandler</property>
  <property name="meta.media.1.stream.type">audio</property>
  <property name="meta.media.1.codec.sample_fmt">fltp</property>
  <property name="meta.media.1.codec.sample_rate">48000</property>
  <property name="meta.media.1.codec.channels">2</property>
  <property name="meta.media.1.codec.name">aac</property>
  <property name="meta.media.1.codec.long_name">AAC (Advanced Audio Coding)</property>
  <property name="meta.media.1.codec.bit_rate">125375</property>
  <property name="meta.attr.1.stream.creation_time.markup">2021-06-02T15:25:14.000000Z</property>
  <property name="meta.attr.1.stream.handler_name.markup">SoundHandler</property>
  <property name="meta.attr.major_brand.markup">isom</property>
  <property name="meta.attr.minor_version.markup">512</property>
  <property name="meta.attr.compatible_brands.markup">isomiso2avc1mp41</property>
  <property name="meta.attr.creation_time.markup">2021-06-02T15:25:14.000000Z</property>
  <property name="meta.attr.encoder.markup">Lavf58.45.100</property>
  <property name="meta.media.sample_aspect_num">1</property>
  <property name="meta.media.sample_aspect_den">1</property>
  <property name="meta.media.frame_rate_num">30000</property>
  <property name="meta.media.frame_rate_den">1001</property>
  <property name="meta.media.colorspace">709</property>
  <property name="meta.media.color_trc">1</property>
  <property name="meta.media.width">3328</property>
  <property name="meta.media.height">2496</property>
  <property name="meta.media.color_range">full</property>
  <filter id="filter12">
   <property name="version">0.6</property>
   <property name="mlt_service">frei0r.select0r</property>
   <property name="kdenlive_id">frei0r.select0r</property>
   <property name="Color to select">0x549d55ff</property>
   <property name="Invert selection">1</property>
   <property name="Selection subspace">1</property>
   <property name="Subspace shape">0.5</property>
   <property name="Edge mode">0.9</property>
   <property name="Delta R / A / Hue">00:00:00.000=0.06</property>
   <property name="Delta G / B / Chroma">00:00:00.000=0.263</property>
   <property name="Delta B / I / I">00:00:00.000=0.291</property>
   <property name="Slope">00:00:00.000=0.158</property>
   <property name="Operation">0.5</property>
   <property name="kdenlive:collapsed">0</property>
  </filter>
  <filter id="filter13">
   <property name="version">0.4</property>
   <property name="mlt_service">frei0r.alpha0ps</property>
   <property name="kdenlive_id">frei0r.alpha0ps</property>
   <property name="Display">0</property>
   <property name="Display input alpha">0</property>
   <property name="Operation">1</property>
   <property name="Threshold">00:00:00.000=0.5</property>
   <property name="Shrink/Grow/Blur amount">00:00:00.000=0.051</property>
   <property name="Invert">0</property>
   <property name="kdenlive:collapsed">0</property>
  </filter>
  <filter id="filter14">
   <property name="mode">alpha</property>
   <property name="alpha_operation">sub</property>
   <property name="invert">0</property>
   <property name="feather">60</property>
   <property name="feather_passes">1</property>
   <property name="mlt_service">rotoscoping</property>
   <property name="kdenlive_id">rotoscoping</property>
   <property name="spline">{
    "000": [
        [
            [
                0.31594454072790285,
                1.2500770416024651
            ],
            [
                0.38908145580589254,
                1.2395993836671801
            ],
            [
                0.3818024263431542,
                1.226040061633282
            ]
        ],
        [
            [
                0.29930675909878685,
                0.9819722650231125
            ],
            [
                0.2920277296360485,
                0.9684129429892142
            ],
            [
                0.2726169844020797,
                0.961633281972265
            ]
        ],
        [
            [
                0.22478336221837086,
                0.7348228043143299
            ],
            [
                0.20537261698440207,
                0.7280431432973805
            ],
            [
                0.1949740034662045,
                0.7169491525423729
            ]
        ],
        [
            [
                0.24176776429809363,
                -0.09291217257318966
            ],
            [
                0.231369150779896,
                -0.10400616332819722
            ],
            [
                0.19497400346620453,
                -0.11263482280431433
            ]
        ],
        [
            [
                -0.08232235701906414,
                -0.18166409861325114
            ],
            [
                -0.11871750433275562,
                -0.19029275808936824
            ],
            [
                -0.11837088388214907,
                -0.13975346687211107
            ]
        ],
        [
            [
                -0.13292894280762566,
                1.201386748844376
            ],
            [
                -0.13258232235701906,
                1.2519260400616332
            ],
            [
                -0.05944540727902947,
                1.2414483821263484
            ]
        ]
    ]
}
</property>
   <property name="kdenlive:collapsed">0</property>
  </filter>
  <filter id="filter15">
   <property name="version">0.3</property>
   <property name="mlt_service">frei0r.keyspillm0pup</property>
   <property name="kdenlive_id">frei0r.keyspillm0pup</property>
   <property name="Key color">0x549d55ff</property>
   <property name="Target color">0xC87F65ff</property>
   <property name="Mask type">0</property>
   <property name="Tolerance">00:00:00.000=0.179</property>
   <property name="Slope">00:00:00.000=0.246</property>
   <property name="Hue gate">00:00:00.000=0.159</property>
   <property name="Saturation threshold">00:00:00.000=0.185</property>
   <property name="Operation 1">1</property>
   <property name="Amount 1">00:00:00.000=0.53</property>
   <property name="Operation 2">3</property>
   <property name="Amount 2">00:00:00.000=0.311</property>
   <property name="Show mask">0</property>
   <property name="Mask to Alpha">0</property>
   <property name="kdenlive:collapsed">0</property>
  </filter>
 </producer>
 <producer id="producer7" in="00:00:00.000" out="00:01:07.533">
  <property name="length">2027</property>
  <property name="eof">pause</property>
  <property name="resource">content/2021-06-02_Chris_synth+handheld_dhaivat_MVI_5996.MOV</property>
  <property name="audio_index">1</property>
  <property name="video_index">0</property>
  <property name="mute_on_pause">0</property>
  <property name="mlt_service">avformat-novalidate</property>
  <property name="seekable">1</property>
  <property name="aspect_ratio">1</property>
  <property name="kdenlive:clipname">2021-06-02_Chris_synth+handheld_dhaivat_MVI_5996.MOV</property>
  <property name="kdenlive:folderid">65</property>
  <property name="kdenlive:id">16</property>
  <property name="kdenlive:file_size">404841018</property>
  <property name="kdenlive:file_hash">545a096fa7298220f69d6ce050892a72</property>
  <property name="kdenlive:audio_max">1</property>
  <property name="kdenlive:zone_in">244</property>
  <property name="kdenlive:zone_out">553</property>
  <property name="kdenlive:clipzones">[
    {
        "in": 244,
        "name": "bass enterance",
        "out": 553
    }
]
</property>
  <property name="global_feed">1</property>
  <property name="kdenlive:proxy">-</property>
  <property name="kdenlive:originalurl">content/2021-06-02_Chris_synth+handheld_dhaivat_MVI_5996.MOV</property>
  <property name="kdenlive:active_streams">-1</property>
  <property name="kdenlive:activeeffect">2</property>
  <property name="meta.media.nb_streams">2</property>
  <property name="meta.media.0.stream.type">video</property>
  <property name="meta.media.0.stream.frame_rate">29.97</property>
  <property name="meta.media.0.stream.sample_aspect_ratio">0</property>
  <property name="meta.media.0.codec.width">1920</property>
  <property name="meta.media.0.codec.height">1080</property>
  <property name="meta.media.0.codec.rotate">0</property>
  <property name="meta.media.0.codec.frame_rate">30000</property>
  <property name="meta.media.0.codec.pix_fmt">yuvj420p</property>
  <property name="meta.media.0.codec.sample_aspect_ratio">0</property>
  <property name="meta.media.0.codec.colorspace">601</property>
  <property name="meta.media.0.codec.color_trc">1</property>
  <property name="meta.media.0.codec.name">h264</property>
  <property name="meta.media.0.codec.long_name">H.264 / AVC / MPEG-4 AVC / MPEG-4 part 10</property>
  <property name="meta.media.0.codec.bit_rate">46391413</property>
  <property name="meta.attr.0.stream.creation_time.markup">2021-06-02T15:26:38.000000Z</property>
  <property name="meta.attr.0.stream.language.markup">eng</property>
  <property name="meta.attr.0.stream.handler_name.markup">VideoHandler</property>
  <property name="meta.media.1.stream.type">audio</property>
  <property name="meta.media.1.codec.sample_fmt">s16</property>
  <property name="meta.media.1.codec.sample_rate">48000</property>
  <property name="meta.media.1.codec.channels">2</property>
  <property name="meta.media.1.codec.name">pcm_s16le</property>
  <property name="meta.media.1.codec.long_name">PCM signed 16-bit little-endian</property>
  <property name="meta.media.1.codec.bit_rate">1536000</property>
  <property name="meta.attr.1.stream.creation_time.markup">2021-06-02T15:26:38.000000Z</property>
  <property name="meta.attr.1.stream.language.markup">eng</property>
  <property name="meta.attr.1.stream.handler_name.markup">SoundHandler</property>
  <property name="meta.attr.major_brand.markup">qt  </property>
  <property name="meta.attr.minor_version.markup">512</property>
  <property name="meta.attr.compatible_brands.markup">qt  </property>
  <property name="meta.attr.creation_time.markup">2021-06-02T15:26:38.000000Z</property>
  <property name="meta.attr.encoder.markup">Lavf58.45.100</property>
  <property name="meta.media.sample_aspect_num">1</property>
  <property name="meta.media.sample_aspect_den">1</property>
  <property name="meta.media.frame_rate_num">30000</property>
  <property name="meta.media.frame_rate_den">1001</property>
  <property name="meta.media.colorspace">601</property>
  <property name="meta.media.color_trc">1</property>
  <property name="meta.media.width">1920</property>
  <property name="meta.media.height">1080</property>
  <property name="meta.media.color_range">full</property>
  <filter id="filter16">
   <property name="version">0.6</property>
   <property name="mlt_service">frei0r.select0r</property>
   <property name="kdenlive_id">frei0r.select0r</property>
   <property name="Color to select">0x245a36ff</property>
   <property name="Invert selection">1</property>
   <property name="Selection subspace">1</property>
   <property name="Subspace shape">0.5</property>
   <property name="Edge mode">0.9</property>
   <property name="Delta R / A / Hue">00:00:00.000=0.079</property>
   <property name="Delta G / B / Chroma">00:00:00.000=0.133</property>
   <property name="Delta B / I / I">00:00:00.000=0.236</property>
   <property name="Slope">00:00:00.000=0.03</property>
   <property name="Operation">0.5</property>
   <property name="kdenlive:collapsed">0</property>
  </filter>
  <filter id="filter17">
   <property name="version">0.4</property>
   <property name="mlt_service">frei0r.alpha0ps</property>
   <property name="kdenlive_id">frei0r.alpha0ps</property>
   <property name="Display">0</property>
   <property name="Display input alpha">0</property>
   <property name="Operation">1</property>
   <property name="Threshold">00:00:00.000=0.5</property>
   <property name="Shrink/Grow/Blur amount">00:00:00.000=0.11</property>
   <property name="Invert">0</property>
   <property name="kdenlive:collapsed">0</property>
  </filter>
  <filter id="filter18">
   <property name="version">0.3</property>
   <property name="mlt_service">frei0r.keyspillm0pup</property>
   <property name="kdenlive_id">frei0r.keyspillm0pup</property>
   <property name="Key color">0x479d47ff</property>
   <property name="Target color">0xC87F65ff</property>
   <property name="Mask type">0</property>
   <property name="Tolerance">00:00:00.000=0.178</property>
   <property name="Slope">00:00:00.000=0.293</property>
   <property name="Hue gate">00:00:00.000=0.186</property>
   <property name="Saturation threshold">00:00:00.000=0.217</property>
   <property name="Operation 1">1</property>
   <property name="Amount 1">00:00:00.000=0.5</property>
   <property name="Operation 2">3</property>
   <property name="Amount 2">00:00:00.000=0.229</property>
   <property name="Show mask">0</property>
   <property name="Mask to Alpha">0</property>
   <property name="kdenlive:collapsed">0</property>
  </filter>
 </producer>
 <producer id="producer8" in="00:00:00.000" out="00:04:43.367">
  <property name="length">8502</property>
  <property name="eof">pause</property>
  <property name="resource">content/2021-06-02_Sarah_kit_dhaivat_00047-take3.mp4</property>
  <property name="audio_index">1</property>
  <property name="video_index">0</property>
  <property name="mute_on_pause">0</property>
  <property name="mlt_service">avformat-novalidate</property>
  <property name="seekable">1</property>
  <property name="aspect_ratio">1.33333</property>
  <property name="kdenlive:clipname">2021-06-02_Sarah_kit_dhaivat_00047-take3.mp4</property>
  <property name="kdenlive:folderid">65</property>
  <property name="kdenlive:id">17</property>
  <property name="kdenlive:file_size">246213435</property>
  <property name="kdenlive:file_hash">8e0fee6ab252be9858879a9b0e052dc2</property>
  <property name="kdenlive:audio_max">1</property>
  <property name="kdenlive:zone_in">299</property>
  <property name="kdenlive:zone_out">581</property>
  <property name="kdenlive:clipzones">[
    {
        "in": 299,
        "name": "opening fill",
        "out": 581
    }
]
</property>
  <property name="global_feed">1</property>
  <property name="kdenlive:proxy">-</property>
  <property name="kdenlive:originalurl">content/2021-06-02_Sarah_kit_dhaivat_00047-take3.mp4</property>
  <property name="kdenlive:activeeffect">0</property>
  <property name="meta.media.nb_streams">2</property>
  <property name="meta.media.0.stream.type">video</property>
  <property name="meta.media.0.stream.frame_rate">59.9401</property>
  <property name="meta.media.0.stream.sample_aspect_ratio">1.33333</property>
  <property name="meta.media.0.codec.width">1440</property>
  <property name="meta.media.0.codec.height">1080</property>
  <property name="meta.media.0.codec.rotate">0</property>
  <property name="meta.media.0.codec.frame_rate">29.97</property>
  <property name="meta.media.0.codec.pix_fmt">yuv420p</property>
  <property name="meta.media.0.codec.sample_aspect_ratio">1.33333</property>
  <property name="meta.media.0.codec.colorspace">709</property>
  <property name="meta.media.0.codec.name">h264</property>
  <property name="meta.media.0.codec.long_name">H.264 / AVC / MPEG-4 AVC / MPEG-4 part 10</property>
  <property name="meta.media.0.codec.bit_rate">6688996</property>
  <property name="meta.attr.0.stream.handler_name.markup">VideoHandler</property>
  <property name="meta.media.1.stream.type">audio</property>
  <property name="meta.media.1.codec.sample_fmt">fltp</property>
  <property name="meta.media.1.codec.sample_rate">48000</property>
  <property name="meta.media.1.codec.channels">2</property>
  <property name="meta.media.1.codec.name">ac3</property>
  <property name="meta.media.1.codec.long_name">ATSC A/52A (AC-3)</property>
  <property name="meta.media.1.codec.bit_rate">256000</property>
  <property name="meta.attr.1.stream.handler_name.markup">SoundHandler</property>
  <property name="meta.attr.major_brand.markup">isom</property>
  <property name="meta.attr.minor_version.markup">512</property>
  <property name="meta.attr.compatible_brands.markup">isomiso2avc1mp41</property>
  <property name="meta.attr.encoder.markup">Lavf58.45.100</property>
  <property name="meta.media.sample_aspect_num">4</property>
  <property name="meta.media.sample_aspect_den">3</property>
  <property name="meta.media.frame_rate_num">60000</property>
  <property name="meta.media.frame_rate_den">1001</property>
  <property name="meta.media.colorspace">709</property>
  <property name="meta.media.color_trc">2</property>
  <property name="meta.media.width">1440</property>
  <property name="meta.media.height">1080</property>
  <property name="meta.media.color_range">mpeg</property>
  <filter id="filter19">
   <property name="version">0.6</property>
   <property name="mlt_service">frei0r.select0r</property>
   <property name="kdenlive_id">frei0r.select0r</property>
   <property name="Color to select">0x3cb955ff</property>
   <property name="Invert selection">1</property>
   <property name="Selection subspace">1</property>
   <property name="Subspace shape">0.5</property>
   <property name="Edge mode">0.7</property>
   <property name="Delta R / A / Hue">00:00:00.000=0.092</property>
   <property name="Delta G / B / Chroma">00:00:00.000=0.434</property>
   <property name="Delta B / I / I">00:00:00.000=0.596</property>
   <property name="Slope">00:00:00.000=0.034</property>
   <property name="Operation">0</property>
   <property name="kdenlive:collapsed">0</property>
  </filter>
  <filter id="filter20">
   <property name="version">0.4</property>
   <property name="mlt_service">frei0r.alpha0ps</property>
   <property name="kdenlive_id">frei0r.alpha0ps</property>
   <property name="Display">0</property>
   <property name="Display input alpha">0</property>
   <property name="Operation">1</property>
   <property name="Threshold">00:00:00.000=0.5</property>
   <property name="Shrink/Grow/Blur amount">00:00:00.000=0.147</property>
   <property name="Invert">0</property>
   <property name="kdenlive:collapsed">0</property>
  </filter>
  <filter id="filter21">
   <property name="mode">alpha</property>
   <property name="alpha_operation">sub</property>
   <property name="invert">0</property>
   <property name="feather">10</property>
   <property name="feather_passes">1</property>
   <property name="mlt_service">rotoscoping</property>
   <property name="kdenlive_id">rotoscoping</property>
   <property name="spline">{
    "000": [
        [
            [
                -0.06464471403812824,
                0.37550077041602464
            ],
            [
                -0.04419410745233968,
                0.536979969183359
            ],
            [
                -0.03344887348353553,
                0.5258859784283514
            ]
        ],
        [
            [
                -0.001213171577123051,
                0.49260400616332817
            ],
            [
                0.009532062391681109,
                0.4815100154083205
            ],
            [
                0.020277296360485267,
                0.4839753466872111
            ]
        ],
        [
            [
                0.04384748700173312,
                0.49599383667180275
            ],
            [
                0.05459272097053726,
                0.49845916795069334
            ],
            [
                0.05667244367417679,
                0.4922958397534668
            ]
        ],
        [
            [
                0.07764298093587521,
                0.4861325115562403
            ],
            [
                0.07972270363951472,
                0.47996918335901384
            ],
            [
                0.09098786828422875,
                0.47503852080123254
            ]
        ],
        [
            [
                0.11611785095320629,
                0.45408320493066245
            ],
            [
                0.12738301559792026,
                0.4491525423728813
            ],
            [
                0.1337954939341421,
                0.46579352850539274
            ]
        ],
        [
            [
                0.15996533795493934,
                0.5203389830508475
            ],
            [
                0.16637781629116116,
                0.536979969183359
            ],
            [
                0.17088388214904676,
                0.5348228043143298
            ]
        ],
        [
            [
                0.20866551126516464,
                0.5252696456086285
            ],
            [
                0.21317157712305024,
                0.5231124807395994
            ],
            [
                0.19410745233968804,
                0.44360554699537746
            ]
        ],
        [
            [
                0.14124783362218374,
                0.20046224961479212
            ],
            [
                0.12218370883882149,
                0.12095531587057008
            ],
            [
                0.1329289428076256,
                0.09198767334360566
            ]
        ],
        [
            [
                0.13223570190641248,
                -0.002619414483821261
            ],
            [
                0.14298093587521662,
                -0.03158705701078582
            ],
            [
                0.2847487001733102,
                -0.03466872110939907
            ]
        ],
        [
            [
                0.7100519930675909,
                -0.04391371340523882
            ],
            [
                0.8518197573656845,
                -0.046995377503852076
            ],
            [
                0.8499133448873483,
                -0.008166409861325111
            ]
        ],
        [
            [
                0.8441941074523397,
                0.10832049306625575
            ],
            [
                0.8422876949740034,
                0.14714946070878274
            ],
            [
                0.8374350086655112,
                0.1727272727272727
            ]
        ],
        [
            [
                0.8228769497400347,
                0.24946070878274268
            ],
            [
                0.8180242634315424,
                0.27503852080123264
            ],
            [
                0.8081455805892547,
                0.2836671802773497
            ]
        ],
        [
            [
                0.7785095320623917,
                0.3095531587057011
            ],
            [
                0.7686308492201039,
                0.3181818181818182
            ],
            [
                0.7686308492201039,
                0.32434514637904466
            ]
        ],
        [
            [
                0.7686308492201039,
                0.34283513097072416
            ],
            [
                0.7686308492201039,
                0.3489984591679507
            ],
            [
                0.779376083188908,
                0.35762711864406777
            ]
        ],
        [
            [
                0.8116117850953206,
                0.3835130970724191
            ],
            [
                0.8223570190641247,
                0.3921417565485362
            ],
            [
                0.8206239168110918,
                0.4377503852080123
            ]
        ],
        [
            [
                0.8154246100519931,
                0.5745762711864406
            ],
            [
                0.8136915077989602,
                0.6201848998459167
            ],
            [
                0.8563258232235701,
                0.5665639445300462
            ]
        ],
        [
            [
                0.9842287694974003,
                0.4057010785824345
            ],
            [
                1.0268630849220104,
                0.35208012326656396
            ],
            [
                1.035528596187175,
                0.23374422187981508
            ]
        ],
        [
            [
                1.061525129982669,
                -0.12126348228043142
            ],
            [
                1.0701906412478335,
                -0.23959938366718025
            ],
            [
                0.8268630849220102,
                -0.24576271186440676
            ]
        ],
        [
            [
                0.0968804159445407,
                -0.2642526964560863
            ],
            [
                -0.14644714038128248,
                -0.27041602465331277
            ],
            [
                -0.12599653379549391,
                -0.10893682588597842
            ]
        ]
    ]
}
</property>
   <property name="kdenlive:collapsed">0</property>
  </filter>
  <filter id="filter22">
   <property name="version">0.3</property>
   <property name="mlt_service">frei0r.keyspillm0pup</property>
   <property name="kdenlive_id">frei0r.keyspillm0pup</property>
   <property name="Key color">0x84c867ff</property>
   <property name="Target color">0xC87F65ff</property>
   <property name="Mask type">0</property>
   <property name="Tolerance">00:00:00.000=0.246</property>
   <property name="Slope">00:00:00.000=0.243</property>
   <property name="Hue gate">00:00:00.000=0.183</property>
   <property name="Saturation threshold">00:00:00.000=0.131</property>
   <property name="Operation 1">1</property>
   <property name="Amount 1">00:00:00.000=0.5</property>
   <property name="Operation 2">3</property>
   <property name="Amount 2">00:00:00.000=0.365</property>
   <property name="Show mask">0</property>
   <property name="Mask to Alpha">0</property>
   <property name="kdenlive:collapsed">0</property>
  </filter>
 </producer>
 <producer id="producer22" in="00:00:00.000" out="00:02:01.633">
  <property name="length">3650</property>
  <property name="eof">pause</property>
  <property name="resource">content/footage/Black Lives Matters - George Floyd protests videos-d4HKXLks-VA.mkv</property>
  <property name="audio_index">1</property>
  <property name="video_index">0</property>
  <property name="mute_on_pause">0</property>
  <property name="mlt_service">avformat-novalidate</property>
  <property name="seekable">1</property>
  <property name="aspect_ratio">1</property>
  <property name="kdenlive:clipname">Black Lives Matters - George Floyd protests videos-d4HKXLks-VA.mkv</property>
  <property name="kdenlive:folderid">84</property>
  <property name="kdenlive:id">18</property>
  <property name="kdenlive:file_size">50326608</property>
  <property name="kdenlive:proxy">-</property>
  <property name="kdenlive:originalurl">content/footage/Black Lives Matters - George Floyd protests videos-d4HKXLks-VA.mkv</property>
  <property name="kdenlive:audio_max">1</property>
  <property name="global_feed">1</property>
  <property name="kdenlive:zone_in">2378</property>
  <property name="kdenlive:zone_out">2829</property>
  <property name="kdenlive:clipzones">[
    {
        "in": 122,
        "name": "Selma bridge",
        "out": 561
    },
    {
        "in": 2378,
        "name": "drone with police",
        "out": 2829
    }
]
</property>
  <property name="kdenlive:active_streams">-1</property>
  <property name="kdenlive:file_hash">918d049cf9c8678ccf9fd488be96b978</property>
  <property name="meta.media.nb_streams">2</property>
  <property name="meta.media.0.stream.type">video</property>
  <property name="meta.media.0.stream.frame_rate">29.97</property>
  <property name="meta.media.0.stream.sample_aspect_ratio">1</property>
  <property name="meta.media.0.codec.width">1920</property>
  <property name="meta.media.0.codec.height">1080</property>
  <property name="meta.media.0.codec.rotate">0</property>
  <property name="meta.media.0.codec.frame_rate">29.97</property>
  <property name="meta.media.0.codec.pix_fmt">yuv420p</property>
  <property name="meta.media.0.codec.sample_aspect_ratio">1</property>
  <property name="meta.media.0.codec.colorspace">709</property>
  <property name="meta.media.0.codec.color_trc">1</property>
  <property name="meta.media.0.codec.name">h264</property>
  <property name="meta.media.0.codec.long_name">H.264 / AVC / MPEG-4 AVC / MPEG-4 part 10</property>
  <property name="meta.media.0.codec.bit_rate">0</property>
  <property name="meta.attr.0.stream.HANDLER_NAME.markup">ISO Media file produced by Google Inc.</property>
  <property name="meta.attr.0.stream.DURATION.markup">00:02:01.655000000</property>
  <property name="meta.media.1.stream.type">audio</property>
  <property name="meta.media.1.codec.sample_fmt">fltp</property>
  <property name="meta.media.1.codec.sample_rate">48000</property>
  <property name="meta.media.1.codec.channels">2</property>
  <property name="meta.media.1.codec.name">opus</property>
  <property name="meta.media.1.codec.long_name">Opus</property>
  <property name="meta.media.1.codec.bit_rate">0</property>
  <property name="meta.attr.1.stream.language.markup">eng</property>
  <property name="meta.attr.1.stream.DURATION.markup">00:02:01.681000000</property>
  <property name="meta.attr.COMPATIBLE_BRANDS.markup">iso6avc1mp41</property>
  <property name="meta.attr.MAJOR_BRAND.markup">dash</property>
  <property name="meta.attr.MINOR_VERSION.markup">0</property>
  <property name="meta.attr.ENCODER.markup">Lavf58.45.100</property>
  <property name="meta.media.sample_aspect_num">1</property>
  <property name="meta.media.sample_aspect_den">1</property>
  <property name="meta.media.frame_rate_num">30000</property>
  <property name="meta.media.frame_rate_den">1001</property>
  <property name="meta.media.colorspace">709</property>
  <property name="meta.media.color_trc">1</property>
  <property name="meta.media.width">1920</property>
  <property name="meta.media.height">1080</property>
  <property name="meta.media.color_range">mpeg</property>
  <property name="meta.media.top_field_first">0</property>
  <property name="meta.media.progressive">1</property>
 </producer>
 <producer id="producer29" in="00:00:00.000" out="00:00:20.933">
  <property name="length">629</property>
  <property name="eof">pause</property>
  <property name="resource">content/footage/Newyork Night View Free Footage Clip-3iasQGbmGYg.mp4</property>
  <property name="audio_index">1</property>
  <property name="video_index">0</property>
  <property name="mute_on_pause">0</property>
  <property name="mlt_service">avformat-novalidate</property>
  <property name="seekable">1</property>
  <property name="aspect_ratio">1</property>
  <property name="kdenlive:clipname">Newyork Night View Free Footage Clip-3iasQGbmGYg.mp4</property>
  <property name="kdenlive:folderid">84</property>
  <property name="kdenlive:id">19</property>
  <property name="kdenlive:file_size">6265928</property>
  <property name="kdenlive:proxy">-</property>
  <property name="kdenlive:originalurl">content/footage/Newyork Night View Free Footage Clip-3iasQGbmGYg.mp4</property>
  <property name="kdenlive:audio_max">91</property>
  <property name="global_feed">1</property>
  <property name="kdenlive:active_streams">-1</property>
  <property name="kdenlive:zone_in">76</property>
  <property name="kdenlive:zone_out">192</property>
  <property name="kdenlive:clipzones">[
    {
        "in": 76,
        "name": "Zone 1",
        "out": 192
    }
]
</property>
  <property name="kdenlive:file_hash">a5ec45f07650056dfda921022248f127</property>
  <property name="meta.media.nb_streams">2</property>
  <property name="meta.media.0.stream.type">video</property>
  <property name="meta.media.0.stream.frame_rate">30</property>
  <property name="meta.media.0.stream.sample_aspect_ratio">1</property>
  <property name="meta.media.0.codec.width">1280</property>
  <property name="meta.media.0.codec.height">720</property>
  <property name="meta.media.0.codec.rotate">0</property>
  <property name="meta.media.0.codec.frame_rate">30</property>
  <property name="meta.media.0.codec.pix_fmt">yuv420p</property>
  <property name="meta.media.0.codec.sample_aspect_ratio">1</property>
  <property name="meta.media.0.codec.colorspace">709</property>
  <property name="meta.media.0.codec.color_trc">1</property>
  <property name="meta.media.0.codec.name">h264</property>
  <property name="meta.media.0.codec.long_name">H.264 / AVC / MPEG-4 AVC / MPEG-4 part 10</property>
  <property name="meta.media.0.codec.bit_rate">2261882</property>
  <property name="meta.attr.0.stream.handler_name.markup">ISO Media file produced by Google Inc.</property>
  <property name="meta.media.1.stream.type">audio</property>
  <property name="meta.media.1.codec.sample_fmt">fltp</property>
  <property name="meta.media.1.codec.sample_rate">44100</property>
  <property name="meta.media.1.codec.channels">2</property>
  <property name="meta.media.1.codec.name">aac</property>
  <property name="meta.media.1.codec.long_name">AAC (Advanced Audio Coding)</property>
  <property name="meta.media.1.codec.bit_rate">127999</property>
  <property name="meta.attr.1.stream.language.markup">eng</property>
  <property name="meta.attr.1.stream.handler_name.markup">ISO Media file produced by Google Inc.</property>
  <property name="meta.attr.major_brand.markup">isom</property>
  <property name="meta.attr.minor_version.markup">512</property>
  <property name="meta.attr.compatible_brands.markup">isomiso2avc1mp41</property>
  <property name="meta.attr.encoder.markup">Lavf58.45.100</property>
  <property name="meta.media.sample_aspect_num">1</property>
  <property name="meta.media.sample_aspect_den">1</property>
  <property name="meta.media.frame_rate_num">30</property>
  <property name="meta.media.frame_rate_den">1</property>
  <property name="meta.media.colorspace">709</property>
  <property name="meta.media.color_trc">1</property>
  <property name="meta.media.width">1280</property>
  <property name="meta.media.height">720</property>
  <property name="meta.media.color_range">mpeg</property>
  <property name="meta.media.top_field_first">0</property>
  <property name="meta.media.progressive">1</property>
 </producer>
 <producer id="producer31" in="00:00:00.000" out="00:00:38.500">
  <property name="length">1156</property>
  <property name="eof">pause</property>
  <property name="resource">content/footage/Survival1951_edit-cut-merged-1623165713135.mp4</property>
  <property name="audio_index">-1</property>
  <property name="video_index">0</property>
  <property name="mute_on_pause">0</property>
  <property name="mlt_service">avformat-novalidate</property>
  <property name="seekable">1</property>
  <property name="aspect_ratio">1</property>
  <property name="kdenlive:clipname">Survival1951_edit-cut-merged-1623165713135.mp4</property>
  <property name="kdenlive:folderid">84</property>
  <property name="kdenlive:id">20</property>
  <property name="kdenlive:file_size">4481095</property>
  <property name="kdenlive:zone_in">685</property>
  <property name="kdenlive:zone_out">1150</property>
  <property name="kdenlive:clipzones">[
    {
        "in": 685,
        "name": "nuke",
        "out": 1150
    }
]
</property>
  <property name="global_feed">1</property>
  <property name="kdenlive:file_hash">a3863c513d688ec93050702fa23637cb</property>
  <property name="meta.media.nb_streams">1</property>
  <property name="meta.media.0.stream.type">video</property>
  <property name="meta.media.0.stream.frame_rate">29.9691</property>
  <property name="meta.media.0.stream.sample_aspect_ratio">1</property>
  <property name="meta.media.0.codec.width">320</property>
  <property name="meta.media.0.codec.height">240</property>
  <property name="meta.media.0.codec.rotate">0</property>
  <property name="meta.media.0.codec.frame_rate">2997</property>
  <property name="meta.media.0.codec.pix_fmt">yuv420p</property>
  <property name="meta.media.0.codec.sample_aspect_ratio">1</property>
  <property name="meta.media.0.codec.colorspace">601</property>
  <property name="meta.media.0.codec.name">mpeg4</property>
  <property name="meta.media.0.codec.long_name">MPEG-4 part 2</property>
  <property name="meta.media.0.codec.bit_rate">928935</property>
  <property name="meta.attr.0.stream.language.markup">eng</property>
  <property name="meta.attr.0.stream.handler_name.markup">VideoHandler</property>
  <property name="meta.attr.major_brand.markup">isom</property>
  <property name="meta.attr.minor_version.markup">512</property>
  <property name="meta.attr.compatible_brands.markup">isomiso2mp41</property>
  <property name="meta.attr.encoder.markup">Lavf58.45.100</property>
  <property name="meta.media.sample_aspect_num">1</property>
  <property name="meta.media.sample_aspect_den">1</property>
  <property name="meta.media.frame_rate_num">34650000</property>
  <property name="meta.media.frame_rate_den">1156189</property>
  <property name="meta.media.colorspace">601</property>
  <property name="meta.media.color_trc">2</property>
  <property name="meta.media.width">320</property>
  <property name="meta.media.height">240</property>
  <property name="meta.media.color_range">mpeg</property>
  <property name="meta.media.top_field_first">0</property>
  <property name="meta.media.progressive">1</property>
 </producer>
 <producer id="producer33" in="00:00:00.000" out="00:07:39.900">
  <property name="length">13798</property>
  <property name="eof">pause</property>
  <property name="resource">content/footage/Wheelsof1950_edit-cut-merged-1623166332367.mp4</property>
  <property name="audio_index">-1</property>
  <property name="video_index">0</property>
  <property name="mute_on_pause">0</property>
  <property name="mlt_service">avformat-novalidate</property>
  <property name="seekable">1</property>
  <property name="aspect_ratio">1</property>
  <property name="kdenlive:clipname">Wheelsof1950_edit-cut-merged-1623166332367.mp4</property>
  <property name="kdenlive:folderid">84</property>
  <property name="kdenlive:id">21</property>
  <property name="kdenlive:file_size">132221478</property>
  <property name="kdenlive:thumbnailFrame">115</property>
  <property name="kdenlive:zone_in">1311</property>
  <property name="kdenlive:zone_out">1538</property>
  <property name="kdenlive:clipzones">[
    {
        "in": 759,
        "name": "horse and plow",
        "out": 1011
    },
    {
        "in": 2040,
        "name": "tractor and plow",
        "out": 2333
    },
    {
        "in": 3551,
        "name": "tractors",
        "out": 3701
    },
    {
        "in": 4840,
        "name": "open pit mine",
        "out": 4989
    },
    {
        "in": 7182,
        "name": "open pit mine 2",
        "out": 7478
    },
    {
        "in": 5496,
        "name": "smokey train",
        "out": 5809
    },
    {
        "in": 7480,
        "name": "conveyor and extraction",
        "out": 8035
    },
    {
        "in": 1311,
        "name": "train emgine",
        "out": 1538
    }
]
</property>
  <property name="global_feed">1</property>
  <property name="kdenlive:file_hash">0e0f79cb48cbe60acee6e0f93c95ac98</property>
  <property name="meta.media.nb_streams">1</property>
  <property name="meta.media.0.stream.type">video</property>
  <property name="meta.media.0.stream.frame_rate">29.9699</property>
  <property name="meta.media.0.stream.sample_aspect_ratio">1</property>
  <property name="meta.media.0.codec.width">320</property>
  <property name="meta.media.0.codec.height">240</property>
  <property name="meta.media.0.codec.rotate">0</property>
  <property name="meta.media.0.codec.frame_rate">2997</property>
  <property name="meta.media.0.codec.pix_fmt">yuv420p</property>
  <property name="meta.media.0.codec.sample_aspect_ratio">1</property>
  <property name="meta.media.0.codec.colorspace">601</property>
  <property name="meta.media.0.codec.name">mpeg4</property>
  <property name="meta.media.0.codec.long_name">MPEG-4 part 2</property>
  <property name="meta.media.0.codec.bit_rate">2298771</property>
  <property name="meta.attr.0.stream.language.markup">eng</property>
  <property name="meta.attr.0.stream.handler_name.markup">VideoHandler</property>
  <property name="meta.attr.major_brand.markup">isom</property>
  <property name="meta.attr.minor_version.markup">512</property>
  <property name="meta.attr.compatible_brands.markup">isomiso2mp41</property>
  <property name="meta.attr.encoder.markup">Lavf58.45.100</property>
  <property name="meta.media.sample_aspect_num">1</property>
  <property name="meta.media.sample_aspect_den">1</property>
  <property name="meta.media.frame_rate_num">68920000</property>
  <property name="meta.media.frame_rate_den">2299639</property>
  <property name="meta.media.colorspace">601</property>
  <property name="meta.media.color_trc">2</property>
  <property name="meta.media.width">320</property>
  <property name="meta.media.height">240</property>
  <property name="meta.media.color_range">mpeg</property>
  <property name="meta.media.top_field_first">0</property>
  <property name="meta.media.progressive">1</property>
 </producer>
 <producer id="producer34" in="00:00:00.000" out="00:02:00.367">
  <property name="length">3612</property>
  <property name="eof">pause</property>
  <property name="resource">content/footage/WorldatW1942_2_edit-cut-merged-1623167308187.mp4</property>
  <property name="audio_index">-1</property>
  <property name="video_index">0</property>
  <property name="mute_on_pause">0</property>
  <property name="mlt_service">avformat-novalidate</property>
  <property name="seekable">1</property>
  <property name="aspect_ratio">1</property>
  <property name="kdenlive:clipname">WorldatW1942_2_edit-cut-merged-1623167308187.mp4</property>
  <property name="kdenlive:folderid">84</property>
  <property name="kdenlive:id">22</property>
  <property name="kdenlive:file_size">53795215</property>
  <property name="kdenlive:thumbnailFrame">56</property>
  <property name="kdenlive:zone_in">1998</property>
  <property name="kdenlive:zone_out">2293</property>
  <property name="kdenlive:clipzones">[
    {
        "in": 1114,
        "name": "weapons manufacture",
        "out": 1270
    },
    {
        "in": 1998,
        "name": "march to war",
        "out": 2293
    }
]
</property>
  <property name="global_feed">1</property>
  <property name="meta.media.nb_streams">1</property>
  <property name="meta.media.0.stream.type">video</property>
  <property name="meta.media.0.stream.frame_rate">29.9693</property>
  <property name="meta.media.0.stream.sample_aspect_ratio">1</property>
  <property name="meta.media.0.codec.width">320</property>
  <property name="meta.media.0.codec.height">240</property>
  <property name="meta.media.0.codec.rotate">0</property>
  <property name="meta.media.0.codec.frame_rate">2997</property>
  <property name="meta.media.0.codec.pix_fmt">yuv420p</property>
  <property name="meta.media.0.codec.sample_aspect_ratio">1</property>
  <property name="meta.media.0.codec.colorspace">601</property>
  <property name="meta.media.0.codec.name">mpeg4</property>
  <property name="meta.media.0.codec.long_name">MPEG-4 part 2</property>
  <property name="meta.media.0.codec.bit_rate">3573523</property>
  <property name="meta.attr.0.stream.language.markup">eng</property>
  <property name="meta.attr.0.stream.handler_name.markup">VideoHandler</property>
  <property name="meta.attr.major_brand.markup">isom</property>
  <property name="meta.attr.minor_version.markup">512</property>
  <property name="meta.attr.compatible_brands.markup">isomiso2mp41</property>
  <property name="meta.attr.encoder.markup">Lavf58.45.100</property>
  <property name="meta.media.sample_aspect_num">1</property>
  <property name="meta.media.sample_aspect_den">1</property>
  <property name="meta.media.frame_rate_num">36080000</property>
  <property name="meta.media.frame_rate_den">1203899</property>
  <property name="meta.media.colorspace">601</property>
  <property name="meta.media.color_trc">2</property>
  <property name="meta.media.width">320</property>
  <property name="meta.media.height">240</property>
  <property name="meta.media.color_range">mpeg</property>
  <property name="kdenlive:file_hash">2273bd3034e0f17cb8cb4c38518b841f</property>
  <property name="meta.media.top_field_first">0</property>
  <property name="meta.media.progressive">1</property>
 </producer>
 <producer id="producer27" in="00:00:00.000" out="00:06:48.833">
  <property name="length">12266</property>
  <property name="eof">pause</property>
  <property name="resource">content/footage/Protest HD Stock Video _ Free stock footage _ Free HD Videos - No Copyright _ Channel PMI-JiaMhAWHkzg.mkv</property>
  <property name="audio_index">1</property>
  <property name="video_index">0</property>
  <property name="mute_on_pause">0</property>
  <property name="mlt_service">avformat-novalidate</property>
  <property name="seekable">1</property>
  <property name="aspect_ratio">1</property>
  <property name="kdenlive:clipname">Protest HD Stock Video _ Free stock footage _ Free HD Videos - No Copyright _ Channel PMI-JiaMhAWHkzg.mkv</property>
  <property name="kdenlive:folderid">84</property>
  <property name="kdenlive:id">23</property>
  <property name="kdenlive:file_size">196665014</property>
  <property name="kdenlive:proxy">-</property>
  <property name="kdenlive:originalurl">content/footage/Protest HD Stock Video _ Free stock footage _ Free HD Videos - No Copyright _ Channel PMI-JiaMhAWHkzg.mkv</property>
  <property name="kdenlive:audio_max">1</property>
  <property name="kdenlive:zone_in">6769</property>
  <property name="kdenlive:zone_out">7253</property>
  <property name="kdenlive:clipzones">[
    {
        "in": 6769,
        "name": "cops with gas masks",
        "out": 7253
    }
]
</property>
  <property name="global_feed">1</property>
  <property name="kdenlive:active_streams">-1</property>
  <property name="kdenlive:file_hash">54d4bd847d26e010f6d375524d901513</property>
  <property name="meta.media.nb_streams">2</property>
  <property name="meta.media.0.stream.type">video</property>
  <property name="meta.media.0.stream.frame_rate">29.86</property>
  <property name="meta.media.0.stream.sample_aspect_ratio">1</property>
  <property name="meta.media.0.codec.width">1920</property>
  <property name="meta.media.0.codec.height">1080</property>
  <property name="meta.media.0.codec.rotate">0</property>
  <property name="meta.media.0.codec.frame_rate">29.86</property>
  <property name="meta.media.0.codec.pix_fmt">yuv420p</property>
  <property name="meta.media.0.codec.sample_aspect_ratio">1</property>
  <property name="meta.media.0.codec.colorspace">709</property>
  <property name="meta.media.0.codec.color_trc">1</property>
  <property name="meta.media.0.codec.name">h264</property>
  <property name="meta.media.0.codec.long_name">H.264 / AVC / MPEG-4 AVC / MPEG-4 part 10</property>
  <property name="meta.media.0.codec.bit_rate">0</property>
  <property name="meta.attr.0.stream.HANDLER_NAME.markup">ISO Media file produced by Google Inc.</property>
  <property name="meta.attr.0.stream.DURATION.markup">00:06:48.841000000</property>
  <property name="meta.media.1.stream.type">audio</property>
  <property name="meta.media.1.codec.sample_fmt">fltp</property>
  <property name="meta.media.1.codec.sample_rate">48000</property>
  <property name="meta.media.1.codec.channels">2</property>
  <property name="meta.media.1.codec.name">opus</property>
  <property name="meta.media.1.codec.long_name">Opus</property>
  <property name="meta.media.1.codec.bit_rate">0</property>
  <property name="meta.attr.1.stream.language.markup">eng</property>
  <property name="meta.attr.1.stream.DURATION.markup">00:06:48.861000000</property>
  <property name="meta.attr.COMPATIBLE_BRANDS.markup">iso6avc1mp41</property>
  <property name="meta.attr.MAJOR_BRAND.markup">dash</property>
  <property name="meta.attr.MINOR_VERSION.markup">0</property>
  <property name="meta.attr.ENCODER.markup">Lavf58.45.100</property>
  <property name="meta.media.sample_aspect_num">1</property>
  <property name="meta.media.sample_aspect_den">1</property>
  <property name="meta.media.frame_rate_num">1493</property>
  <property name="meta.media.frame_rate_den">50</property>
  <property name="meta.media.colorspace">709</property>
  <property name="meta.media.color_trc">1</property>
  <property name="meta.media.width">1920</property>
  <property name="meta.media.height">1080</property>
  <property name="meta.media.color_range">mpeg</property>
  <property name="meta.media.top_field_first">0</property>
  <property name="meta.media.progressive">1</property>
 </producer>
 <producer id="producer26" in="00:00:00.000" out="00:03:49.533">
  <property name="length">6887</property>
  <property name="eof">pause</property>
  <property name="resource">content/footage/PROTEST - Youth Global Warming Strike, London 2019-h8o_YP0YKLc.mp4</property>
  <property name="audio_index">1</property>
  <property name="video_index">0</property>
  <property name="mute_on_pause">0</property>
  <property name="mlt_service">avformat-novalidate</property>
  <property name="seekable">1</property>
  <property name="aspect_ratio">1</property>
  <property name="kdenlive:clipname">PROTEST - Youth Global Warming Strike, London 2019-h8o_YP0YKLc.mp4</property>
  <property name="kdenlive:folderid">84</property>
  <property name="kdenlive:id">24</property>
  <property name="kdenlive:file_size">127859649</property>
  <property name="kdenlive:proxy">-</property>
  <property name="kdenlive:originalurl">content/footage/PROTEST - Youth Global Warming Strike, London 2019-h8o_YP0YKLc.mp4</property>
  <property name="kdenlive:audio_max">1</property>
  <property name="kdenlive:active_streams">-1</property>
  <property name="kdenlive:zone_in">3304</property>
  <property name="kdenlive:zone_out">3557</property>
  <property name="kdenlive:clipzones">[
    {
        "in": 3304,
        "name": "child climate protest",
        "out": 3557
    }
]
</property>
  <property name="global_feed">1</property>
  <property name="kdenlive:file_hash">3618d2dfed397f329eab83ec679ad7a5</property>
  <property name="meta.media.nb_streams">2</property>
  <property name="meta.media.0.stream.type">video</property>
  <property name="meta.media.0.stream.frame_rate">25</property>
  <property name="meta.media.0.stream.sample_aspect_ratio">1</property>
  <property name="meta.media.0.codec.width">1920</property>
  <property name="meta.media.0.codec.height">1080</property>
  <property name="meta.media.0.codec.rotate">0</property>
  <property name="meta.media.0.codec.frame_rate">25</property>
  <property name="meta.media.0.codec.pix_fmt">yuv420p</property>
  <property name="meta.media.0.codec.sample_aspect_ratio">1</property>
  <property name="meta.media.0.codec.colorspace">709</property>
  <property name="meta.media.0.codec.color_trc">1</property>
  <property name="meta.media.0.codec.name">h264</property>
  <property name="meta.media.0.codec.long_name">H.264 / AVC / MPEG-4 AVC / MPEG-4 part 10</property>
  <property name="meta.media.0.codec.bit_rate">4322783</property>
  <property name="meta.attr.0.stream.handler_name.markup">ISO Media file produced by Google Inc. Created on: 05/25/2019.</property>
  <property name="meta.media.1.stream.type">audio</property>
  <property name="meta.media.1.codec.sample_fmt">fltp</property>
  <property name="meta.media.1.codec.sample_rate">44100</property>
  <property name="meta.media.1.codec.channels">2</property>
  <property name="meta.media.1.codec.name">aac</property>
  <property name="meta.media.1.codec.long_name">AAC (Advanced Audio Coding)</property>
  <property name="meta.media.1.codec.bit_rate">127999</property>
  <property name="meta.attr.1.stream.language.markup">eng</property>
  <property name="meta.attr.1.stream.handler_name.markup">ISO Media file produced by Google Inc. Created on: 05/25/2019.</property>
  <property name="meta.attr.major_brand.markup">isom</property>
  <property name="meta.attr.minor_version.markup">512</property>
  <property name="meta.attr.compatible_brands.markup">isomiso2avc1mp41</property>
  <property name="meta.attr.encoder.markup">Lavf58.45.100</property>
  <property name="meta.media.sample_aspect_num">1</property>
  <property name="meta.media.sample_aspect_den">1</property>
  <property name="meta.media.frame_rate_num">25</property>
  <property name="meta.media.frame_rate_den">1</property>
  <property name="meta.media.colorspace">709</property>
  <property name="meta.media.color_trc">1</property>
  <property name="meta.media.width">1920</property>
  <property name="meta.media.height">1080</property>
  <property name="meta.media.color_range">mpeg</property>
 </producer>
 <producer id="producer30" in="00:00:00.000" out="00:00:42.667">
  <property name="length">1281</property>
  <property name="eof">pause</property>
  <property name="resource">content/footage/Full Earth Video - April 1st 2018-UZOOL3kYU9k.mp4</property>
  <property name="audio_index">-1</property>
  <property name="video_index">0</property>
  <property name="mute_on_pause">0</property>
  <property name="mlt_service">avformat-novalidate</property>
  <property name="seekable">1</property>
  <property name="aspect_ratio">1</property>
  <property name="kdenlive:clipname">Full Earth Video - April 1st 2018-UZOOL3kYU9k.mp4</property>
  <property name="kdenlive:folderid">84</property>
  <property name="kdenlive:id">25</property>
  <property name="kdenlive:file_size">31968696</property>
  <property name="kdenlive:proxy">-</property>
  <property name="kdenlive:originalurl">content/footage/Full Earth Video - April 1st 2018-UZOOL3kYU9k.mp4</property>
  <property name="global_feed">1</property>
  <property name="kdenlive:activeeffect">-1</property>
  <property name="kdenlive:file_hash">8ac2d0cd0fd090c3c54b0d5f5db93738</property>
  <property name="meta.media.nb_streams">1</property>
  <property name="meta.media.0.stream.type">video</property>
  <property name="meta.media.0.stream.frame_rate">30.0007</property>
  <property name="meta.media.0.stream.sample_aspect_ratio">1</property>
  <property name="meta.media.0.codec.width">2048</property>
  <property name="meta.media.0.codec.height">2048</property>
  <property name="meta.media.0.codec.rotate">0</property>
  <property name="meta.media.0.codec.frame_rate">16000</property>
  <property name="meta.media.0.codec.pix_fmt">yuv420p</property>
  <property name="meta.media.0.codec.sample_aspect_ratio">0</property>
  <property name="meta.media.0.codec.colorspace">709</property>
  <property name="meta.media.0.codec.color_trc">1</property>
  <property name="meta.media.0.codec.name">vp9</property>
  <property name="meta.media.0.codec.long_name">Google VP9</property>
  <property name="meta.media.0.codec.bit_rate">5987101</property>
  <property name="meta.attr.0.stream.language.markup">eng</property>
  <property name="meta.attr.0.stream.handler_name.markup">VideoHandler</property>
  <property name="meta.attr.major_brand.markup">isom</property>
  <property name="meta.attr.minor_version.markup">512</property>
  <property name="meta.attr.compatible_brands.markup">isomiso2mp41</property>
  <property name="meta.attr.encoder.markup">Lavf58.45.100</property>
  <property name="meta.media.sample_aspect_num">1</property>
  <property name="meta.media.sample_aspect_den">1</property>
  <property name="meta.media.frame_rate_num">427000</property>
  <property name="meta.media.frame_rate_den">14233</property>
  <property name="meta.media.colorspace">709</property>
  <property name="meta.media.color_trc">1</property>
  <property name="meta.media.width">2048</property>
  <property name="meta.media.height">2048</property>
  <property name="meta.media.color_range">mpeg</property>
  <property name="meta.media.top_field_first">0</property>
  <property name="meta.media.progressive">1</property>
 </producer>
 <producer id="producer16" in="00:00:00.000" out="00:04:48.100">
  <property name="length">8644</property>
  <property name="eof">pause</property>
  <property name="resource">content/technology_dhaivat_5min.mp4</property>
  <property name="audio_index">-1</property>
  <property name="video_index">0</property>
  <property name="mute_on_pause">0</property>
  <property name="mlt_service">avformat-novalidate</property>
  <property name="seekable">1</property>
  <property name="aspect_ratio">1</property>
  <property name="kdenlive:clipname">technology_dhaivat_5min.mp4</property>
  <property name="kdenlive:folderid">129</property>
  <property name="kdenlive:id">26</property>
  <property name="kdenlive:file_size">225585698</property>
  <property name="kdenlive:proxy">-</property>
  <property name="kdenlive:originalurl">content/technology_dhaivat_5min.mp4</property>
  <property name="global_feed">1</property>
  <property name="kdenlive:file_hash">73f94df5e097467476a07de5ded61de2</property>
  <property name="meta.media.nb_streams">1</property>
  <property name="meta.media.0.stream.type">video</property>
  <property name="meta.media.0.stream.frame_rate">25</property>
  <property name="meta.media.0.stream.sample_aspect_ratio">1</property>
  <property name="meta.media.0.codec.width">1280</property>
  <property name="meta.media.0.codec.height">720</property>
  <property name="meta.media.0.codec.rotate">0</property>
  <property name="meta.media.0.codec.frame_rate">25</property>
  <property name="meta.media.0.codec.pix_fmt">yuvj420p</property>
  <property name="meta.media.0.codec.sample_aspect_ratio">1</property>
  <property name="meta.media.0.codec.colorspace">601</property>
  <property name="meta.media.0.codec.name">h264</property>
  <property name="meta.media.0.codec.long_name">H.264 / AVC / MPEG-4 AVC / MPEG-4 part 10</property>
  <property name="meta.media.0.codec.bit_rate">6262444</property>
  <property name="meta.attr.0.stream.handler_name.markup">VideoHandler</property>
  <property name="meta.attr.major_brand.markup">isom</property>
  <property name="meta.attr.minor_version.markup">512</property>
  <property name="meta.attr.compatible_brands.markup">isomiso2avc1mp41</property>
  <property name="meta.attr.encoder.markup">Lavf58.76.100</property>
  <property name="meta.media.sample_aspect_num">1</property>
  <property name="meta.media.sample_aspect_den">1</property>
  <property name="meta.media.frame_rate_num">25</property>
  <property name="meta.media.frame_rate_den">1</property>
  <property name="meta.media.colorspace">601</property>
  <property name="meta.media.color_trc">2</property>
  <property name="meta.media.width">1280</property>
  <property name="meta.media.height">720</property>
  <property name="meta.media.color_range">full</property>
 </producer>
 <producer id="producer9" in="00:00:00.000" out="00:04:50.600">
  <property name="length">8719</property>
  <property name="eof">pause</property>
  <property name="resource">content/2021-06-02_153524_Sarah_kit+handheld_dhaivat-take3.mp4</property>
  <property name="audio_index">1</property>
  <property name="video_index">0</property>
  <property name="mute_on_pause">0</property>
  <property name="mlt_service">avformat-novalidate</property>
  <property name="seekable">1</property>
  <property name="aspect_ratio">1</property>
  <property name="kdenlive:clipname">2021-06-02_153524_Sarah_kit+handheld_dhaivat-take3.mp4</property>
  <property name="kdenlive:folderid">65</property>
  <property name="kdenlive:id">27</property>
  <property name="kdenlive:file_size">920565421</property>
  <property name="kdenlive:file_hash">22894985720761a019cfbc8ecf6432e1</property>
  <property name="kdenlive:proxy">-</property>
  <property name="kdenlive:originalurl">content/2021-06-02_153524_Sarah_kit+handheld_dhaivat-take3.mp4</property>
  <property name="kdenlive:audio_max">4</property>
  <property name="global_feed">1</property>
  <property name="kdenlive:activeeffect">0</property>
  <property name="meta.media.nb_streams">2</property>
  <property name="meta.media.0.stream.type">video</property>
  <property name="meta.media.0.stream.frame_rate">59.9401</property>
  <property name="meta.media.0.stream.sample_aspect_ratio">1</property>
  <property name="meta.media.0.codec.width">1920</property>
  <property name="meta.media.0.codec.height">1080</property>
  <property name="meta.media.0.codec.rotate">0</property>
  <property name="meta.media.0.codec.frame_rate">59.9401</property>
  <property name="meta.media.0.codec.pix_fmt">yuv420p</property>
  <property name="meta.media.0.codec.sample_aspect_ratio">1</property>
  <property name="meta.media.0.codec.colorspace">709</property>
  <property name="meta.media.0.codec.name">h264</property>
  <property name="meta.media.0.codec.long_name">H.264 / AVC / MPEG-4 AVC / MPEG-4 part 10</property>
  <property name="meta.media.0.codec.bit_rate">24980173</property>
  <property name="meta.attr.0.stream.handler_name.markup">VideoHandler</property>
  <property name="meta.media.1.stream.type">audio</property>
  <property name="meta.media.1.codec.sample_fmt">fltp</property>
  <property name="meta.media.1.codec.sample_rate">48000</property>
  <property name="meta.media.1.codec.channels">6</property>
  <property name="meta.media.1.codec.name">ac3</property>
  <property name="meta.media.1.codec.long_name">ATSC A/52A (AC-3)</property>
  <property name="meta.media.1.codec.bit_rate">448000</property>
  <property name="meta.attr.1.stream.handler_name.markup">SoundHandler</property>
  <property name="meta.attr.major_brand.markup">isom</property>
  <property name="meta.attr.minor_version.markup">512</property>
  <property name="meta.attr.compatible_brands.markup">isomiso2avc1mp41</property>
  <property name="meta.attr.encoder.markup">Lavf58.45.100</property>
  <property name="meta.media.sample_aspect_num">1</property>
  <property name="meta.media.sample_aspect_den">1</property>
  <property name="meta.media.frame_rate_num">1561770000</property>
  <property name="meta.media.frame_rate_den">26055529</property>
  <property name="meta.media.colorspace">709</property>
  <property name="meta.media.color_trc">2</property>
  <property name="meta.media.width">1920</property>
  <property name="meta.media.height">1080</property>
  <property name="meta.media.color_range">mpeg</property>
 </producer>
 <producer id="producer11" in="00:00:00.000" out="00:01:32.100">
  <property name="length">2764</property>
  <property name="eof">pause</property>
  <property name="resource">content/Chris_piano_on_black_v2.mp4</property>
  <property name="audio_index">-1</property>
  <property name="video_index">0</property>
  <property name="mute_on_pause">0</property>
  <property name="mlt_service">avformat-novalidate</property>
  <property name="seekable">1</property>
  <property name="aspect_ratio">1</property>
  <property name="kdenlive:clipname">Chris_piano_on_black_v2.mp4</property>
  <property name="kdenlive:folderid">65</property>
  <property name="kdenlive:id">28</property>
  <property name="kdenlive:file_size">29271579</property>
  <property name="kdenlive:file_hash">86c2e51a4b5218f3f82ee84239f84983</property>
  <property name="kdenlive:proxy">-</property>
  <property name="kdenlive:originalurl">content/Chris_piano_on_black_v2.mp4</property>
  <property name="global_feed">1</property>
  <property name="kdenlive:activeeffect">0</property>
  <property name="meta.media.nb_streams">1</property>
  <property name="meta.media.0.stream.type">video</property>
  <property name="meta.media.0.stream.frame_rate">29.97</property>
  <property name="meta.media.0.stream.sample_aspect_ratio">1</property>
  <property name="meta.media.0.codec.width">1920</property>
  <property name="meta.media.0.codec.height">1080</property>
  <property name="meta.media.0.codec.rotate">0</property>
  <property name="meta.media.0.codec.frame_rate">29.97</property>
  <property name="meta.media.0.codec.pix_fmt">yuv422p</property>
  <property name="meta.media.0.codec.sample_aspect_ratio">1</property>
  <property name="meta.media.0.codec.colorspace">709</property>
  <property name="meta.media.0.codec.color_trc">1</property>
  <property name="meta.media.0.codec.name">h264</property>
  <property name="meta.media.0.codec.long_name">H.264 / AVC / MPEG-4 AVC / MPEG-4 part 10</property>
  <property name="meta.media.0.codec.bit_rate">2540812</property>
  <property name="meta.attr.0.stream.handler_name.markup">VideoHandler</property>
  <property name="meta.attr.major_brand.markup">isom</property>
  <property name="meta.attr.minor_version.markup">512</property>
  <property name="meta.attr.compatible_brands.markup">isomiso2avc1mp41</property>
  <property name="meta.attr.encoder.markup">Lavf58.76.100</property>
  <property name="meta.media.sample_aspect_num">1</property>
  <property name="meta.media.sample_aspect_den">1</property>
  <property name="meta.media.frame_rate_num">30000</property>
  <property name="meta.media.frame_rate_den">1001</property>
  <property name="meta.media.colorspace">709</property>
  <property name="meta.media.color_trc">1</property>
  <property name="meta.media.width">1920</property>
  <property name="meta.media.height">1080</property>
  <property name="meta.media.color_range">mpeg</property>
  <filter id="filter27">
   <property name="version">0.3</property>
   <property name="mlt_service">frei0r.keyspillm0pup</property>
   <property name="kdenlive_id">frei0r.keyspillm0pup</property>
   <property name="Key color">0x26b371ff</property>
   <property name="Target color">0xC87F65ff</property>
   <property name="Mask type">0</property>
   <property name="Tolerance">00:00:00.000=0.288</property>
   <property name="Slope">00:00:00.000=0.305</property>
   <property name="Hue gate">00:00:00.000=0.164</property>
   <property name="Saturation threshold">00:00:00.000=0.073</property>
   <property name="Operation 1">1</property>
   <property name="Amount 1">00:00:00.000=0.5</property>
   <property name="Operation 2">3</property>
   <property name="Amount 2">00:00:00.000=0.294</property>
   <property name="Show mask">0</property>
   <property name="Mask to Alpha">0</property>
   <property name="kdenlive:collapsed">0</property>
  </filter>
 </producer>
 <producer id="producer57" in="00:00:00.000" out="00:01:34.000">
  <property name="length">2821</property>
  <property name="eof">pause</property>
  <property name="resource">content/fade_to_black_fall_030000_3f96c4de.mp4</property>
  <property name="audio_index">1</property>
  <property name="video_index">0</property>
  <property name="mute_on_pause">0</property>
  <property name="mlt_service">avformat-novalidate</property>
  <property name="meta.media.nb_streams">2</property>
  <property name="meta.media.0.stream.type">video</property>
  <property name="meta.media.0.stream.frame_rate">30</property>
  <property name="meta.media.0.stream.sample_aspect_ratio">0</property>
  <property name="meta.media.0.codec.width">512</property>
  <property name="meta.media.0.codec.height">512</property>
  <property name="meta.media.0.codec.rotate">0</property>
  <property name="meta.media.0.codec.frame_rate">30</property>
  <property name="meta.media.0.codec.pix_fmt">yuv420p</property>
  <property name="meta.media.0.codec.sample_aspect_ratio">0</property>
  <property name="meta.media.0.codec.colorspace">601</property>
  <property name="meta.media.0.codec.name">h264</property>
  <property name="meta.media.0.codec.long_name">H.264 / AVC / MPEG-4 AVC / MPEG-4 part 10</property>
  <property name="meta.media.0.codec.bit_rate">3744056</property>
  <property name="meta.attr.0.stream.handler_name.markup">VideoHandler</property>
  <property name="meta.attr.0.stream.vendor_id.markup">[0][0][0][0]</property>
  <property name="meta.media.1.stream.type">audio</property>
  <property name="meta.media.1.codec.sample_fmt">fltp</property>
  <property name="meta.media.1.codec.sample_rate">44100</property>
  <property name="meta.media.1.codec.channels">2</property>
  <property name="meta.media.1.codec.name">aac</property>
  <property name="meta.media.1.codec.long_name">AAC (Advanced Audio Coding)</property>
  <property name="meta.media.1.codec.bit_rate">321850</property>
  <property name="meta.attr.1.stream.handler_name.markup">SoundHandler</property>
  <property name="meta.attr.1.stream.vendor_id.markup">[0][0][0][0]</property>
  <property name="meta.attr.major_brand.markup">isom</property>
  <property name="meta.attr.minor_version.markup">512</property>
  <property name="meta.attr.compatible_brands.markup">isomiso2avc1mp41</property>
  <property name="meta.attr.encoder.markup">Lavf58.29.100</property>
  <property name="seekable">1</property>
  <property name="meta.media.sample_aspect_num">1</property>
  <property name="meta.media.sample_aspect_den">1</property>
  <property name="aspect_ratio">1</property>
  <property name="kdenlive:clipname"/>
  <property name="kdenlive:folderid">129</property>
  <property name="meta.media.frame_rate_num">30</property>
  <property name="meta.media.frame_rate_den">1</property>
  <property name="meta.media.colorspace">601</property>
  <property name="meta.media.color_trc">2</property>
  <property name="meta.media.width">512</property>
  <property name="meta.media.height">512</property>
  <property name="meta.media.color_range">mpeg</property>
  <property name="kdenlive:id">29</property>
  <property name="kdenlive:file_size">47861548</property>
  <property name="kdenlive:file_hash">48b177ec69ca71c81736d5abba4e2fef</property>
  <property name="kdenlive:audio_max">1</property>
  <property name="meta.media.top_field_first">0</property>
  <property name="meta.media.progressive">1</property>
  <property name="kdenlive:active_streams">;1</property>
  <property name="global_feed">1</property>
 </producer>
 <producer id="producer62" in="00:00:00.000" out="00:01:16.000">
  <property name="length">2281</property>
  <property name="eof">pause</property>
  <property name="resource">content/fade_to_black_spring_020000_be23161a.mp4</property>
  <property name="audio_index">1</property>
  <property name="video_index">0</property>
  <property name="mute_on_pause">0</property>
  <property name="mlt_service">avformat-novalidate</property>
  <property name="meta.media.nb_streams">2</property>
  <property name="meta.media.0.stream.type">video</property>
  <property name="meta.media.0.stream.frame_rate">30</property>
  <property name="meta.media.0.stream.sample_aspect_ratio">0</property>
  <property name="meta.media.0.codec.width">512</property>
  <property name="meta.media.0.codec.height">512</property>
  <property name="meta.media.0.codec.rotate">0</property>
  <property name="meta.media.0.codec.frame_rate">30</property>
  <property name="meta.media.0.codec.pix_fmt">yuv420p</property>
  <property name="meta.media.0.codec.sample_aspect_ratio">0</property>
  <property name="meta.media.0.codec.colorspace">601</property>
  <property name="meta.media.0.codec.name">h264</property>
  <property name="meta.media.0.codec.long_name">H.264 / AVC / MPEG-4 AVC / MPEG-4 part 10</property>
  <property name="meta.media.0.codec.bit_rate">1545028</property>
  <property name="meta.attr.0.stream.handler_name.markup">VideoHandler</property>
  <property name="meta.attr.0.stream.vendor_id.markup">[0][0][0][0]</property>
  <property name="meta.media.1.stream.type">audio</property>
  <property name="meta.media.1.codec.sample_fmt">fltp</property>
  <property name="meta.media.1.codec.sample_rate">44100</property>
  <property name="meta.media.1.codec.channels">2</property>
  <property name="meta.media.1.codec.name">aac</property>
  <property name="meta.media.1.codec.long_name">AAC (Advanced Audio Coding)</property>
  <property name="meta.media.1.codec.bit_rate">323037</property>
  <property name="meta.attr.1.stream.handler_name.markup">SoundHandler</property>
  <property name="meta.attr.1.stream.vendor_id.markup">[0][0][0][0]</property>
  <property name="meta.attr.major_brand.markup">isom</property>
  <property name="meta.attr.minor_version.markup">512</property>
  <property name="meta.attr.compatible_brands.markup">isomiso2avc1mp41</property>
  <property name="meta.attr.encoder.markup">Lavf58.29.100</property>
  <property name="seekable">1</property>
  <property name="meta.media.sample_aspect_num">1</property>
  <property name="meta.media.sample_aspect_den">1</property>
  <property name="aspect_ratio">1</property>
  <property name="kdenlive:clipname"/>
  <property name="kdenlive:folderid">129</property>
  <property name="meta.media.frame_rate_num">30</property>
  <property name="meta.media.frame_rate_den">1</property>
  <property name="meta.media.colorspace">601</property>
  <property name="meta.media.color_trc">2</property>
  <property name="meta.media.width">512</property>
  <property name="meta.media.height">512</property>
  <property name="meta.media.color_range">mpeg</property>
  <property name="kdenlive:id">30</property>
  <property name="kdenlive:file_size">17823717</property>
  <property name="kdenlive:file_hash">0c463d4311a62c4ff435f561da02d363</property>
  <property name="kdenlive:audio_max">1</property>
  <property name="meta.media.top_field_first">0</property>
  <property name="meta.media.progressive">1</property>
  <property name="global_feed">1</property>
  <property name="kdenlive:active_streams">-1</property>
 </producer>
 <producer id="producer63" in="00:00:00.000" out="00:02:05.000">
  <property name="length">3751</property>
  <property name="eof">pause</property>
  <property name="resource">content/fade_to_black_winter_026000_0267152b.mp4</property>
  <property name="audio_index">1</property>
  <property name="video_index">0</property>
  <property name="mute_on_pause">0</property>
  <property name="mlt_service">avformat-novalidate</property>
  <property name="meta.media.nb_streams">2</property>
  <property name="meta.media.0.stream.type">video</property>
  <property name="meta.media.0.stream.frame_rate">30</property>
  <property name="meta.media.0.stream.sample_aspect_ratio">0</property>
  <property name="meta.media.0.codec.width">512</property>
  <property name="meta.media.0.codec.height">512</property>
  <property name="meta.media.0.codec.rotate">0</property>
  <property name="meta.media.0.codec.frame_rate">30</property>
  <property name="meta.media.0.codec.pix_fmt">yuv420p</property>
  <property name="meta.media.0.codec.sample_aspect_ratio">0</property>
  <property name="meta.media.0.codec.colorspace">601</property>
  <property name="meta.media.0.codec.name">h264</property>
  <property name="meta.media.0.codec.long_name">H.264 / AVC / MPEG-4 AVC / MPEG-4 part 10</property>
  <property name="meta.media.0.codec.bit_rate">2669132</property>
  <property name="meta.attr.0.stream.handler_name.markup">VideoHandler</property>
  <property name="meta.attr.0.stream.vendor_id.markup">[0][0][0][0]</property>
  <property name="meta.media.1.stream.type">audio</property>
  <property name="meta.media.1.codec.sample_fmt">fltp</property>
  <property name="meta.media.1.codec.sample_rate">44100</property>
  <property name="meta.media.1.codec.channels">2</property>
  <property name="meta.media.1.codec.name">aac</property>
  <property name="meta.media.1.codec.long_name">AAC (Advanced Audio Coding)</property>
  <property name="meta.media.1.codec.bit_rate">322447</property>
  <property name="meta.attr.1.stream.handler_name.markup">SoundHandler</property>
  <property name="meta.attr.1.stream.vendor_id.markup">[0][0][0][0]</property>
  <property name="meta.attr.major_brand.markup">isom</property>
  <property name="meta.attr.minor_version.markup">512</property>
  <property name="meta.attr.compatible_brands.markup">isomiso2avc1mp41</property>
  <property name="meta.attr.encoder.markup">Lavf58.29.100</property>
  <property name="seekable">1</property>
  <property name="meta.media.sample_aspect_num">1</property>
  <property name="meta.media.sample_aspect_den">1</property>
  <property name="aspect_ratio">1</property>
  <property name="kdenlive:clipname"/>
  <property name="kdenlive:folderid">129</property>
  <property name="meta.media.frame_rate_num">30</property>
  <property name="meta.media.frame_rate_den">1</property>
  <property name="meta.media.colorspace">601</property>
  <property name="meta.media.color_trc">2</property>
  <property name="meta.media.width">512</property>
  <property name="meta.media.height">512</property>
  <property name="meta.media.color_range">mpeg</property>
  <property name="kdenlive:id">31</property>
  <property name="kdenlive:file_size">46866528</property>
  <property name="kdenlive:file_hash">a28b5d80ab4d1d3ae6977e70dd507b24</property>
  <property name="kdenlive:audio_max">1</property>
  <property name="meta.media.top_field_first">0</property>
  <property name="meta.media.progressive">1</property>
  <property name="kdenlive:active_streams">;1</property>
  <property name="global_feed">1</property>
 </producer>
 <producer id="producer18" in="00:00:00.000" out="00:05:07.133">
  <property name="length">9215</property>
  <property name="eof">pause</property>
  <property name="resource">content/musicians_all_v1.mp4</property>
  <property name="audio_index">-1</property>
  <property name="video_index">0</property>
  <property name="mute_on_pause">0</property>
  <property name="mlt_service">avformat-novalidate</property>
  <property name="seekable">1</property>
  <property name="aspect_ratio">1</property>
  <property name="kdenlive:clipname">musicians_all_v1.mp4</property>
  <property name="kdenlive:folderid">144</property>
  <property name="kdenlive:id">32</property>
  <property name="kdenlive:file_size">192792163</property>
  <property name="kdenlive:file_hash">2fd395bd8bbdc1142afac6660fa5df7a</property>
  <property name="kdenlive:proxy">-</property>
  <property name="kdenlive:originalurl">content/musicians_all_v1.mp4</property>
  <property name="global_feed">1</property>
  <property name="meta.media.nb_streams">1</property>
  <property name="meta.media.0.stream.type">video</property>
  <property name="meta.media.0.stream.frame_rate">30</property>
  <property name="meta.media.0.stream.sample_aspect_ratio">1</property>
  <property name="meta.media.0.codec.width">1920</property>
  <property name="meta.media.0.codec.height">1080</property>
  <property name="meta.media.0.codec.rotate">0</property>
  <property name="meta.media.0.codec.frame_rate">30</property>
  <property name="meta.media.0.codec.pix_fmt">yuv420p</property>
  <property name="meta.media.0.codec.sample_aspect_ratio">1</property>
  <property name="meta.media.0.codec.colorspace">709</property>
  <property name="meta.media.0.codec.color_trc">1</property>
  <property name="meta.media.0.codec.name">h264</property>
  <property name="meta.media.0.codec.long_name">H.264 / AVC / MPEG-4 AVC / MPEG-4 part 10</property>
  <property name="meta.media.0.codec.bit_rate">5018663</property>
  <property name="meta.attr.0.stream.handler_name.markup">VideoHandler</property>
  <property name="meta.attr.major_brand.markup">isom</property>
  <property name="meta.attr.minor_version.markup">512</property>
  <property name="meta.attr.compatible_brands.markup">isomiso2avc1mp41</property>
  <property name="meta.attr.encoder.markup">Lavf58.76.100</property>
  <property name="meta.media.sample_aspect_num">1</property>
  <property name="meta.media.sample_aspect_den">1</property>
  <property name="meta.media.frame_rate_num">30</property>
  <property name="meta.media.frame_rate_den">1</property>
  <property name="meta.media.colorspace">709</property>
  <property name="meta.media.color_trc">1</property>
  <property name="meta.media.width">1920</property>
  <property name="meta.media.height">1080</property>
  <property name="meta.media.color_range">mpeg</property>
 </producer>
 <producer id="producer10" in="00:00:00.000" out="00:00:11.000">
  <property name="length">331</property>
  <property name="eof">pause</property>
  <property name="resource">content/footage/P1000463.MP4</property>
  <property name="audio_index">-1</property>
  <property name="video_index">0</property>
  <property name="mute_on_pause">0</property>
  <property name="mlt_service">avformat-novalidate</property>
  <property name="seekable">1</property>
  <property name="aspect_ratio">1</property>
  <property name="kdenlive:clipname">P1000463.MP4</property>
  <property name="kdenlive:folderid">138</property>
  <property name="kdenlive:id">33</property>
  <property name="kdenlive:file_size">52720151</property>
  <property name="kdenlive:file_hash">3012fa459f0e0b0a0c89bb8ac2aed072</property>
  <property name="kdenlive:proxy">-</property>
  <property name="kdenlive:originalurl">content/footage/P1000463.MP4</property>
  <property name="global_feed">1</property>
  <property name="meta.media.nb_streams">2</property>
  <property name="meta.media.0.stream.type">video</property>
  <property name="meta.media.0.stream.frame_rate">24</property>
  <property name="meta.media.0.stream.sample_aspect_ratio">1</property>
  <property name="meta.media.0.codec.width">1920</property>
  <property name="meta.media.0.codec.height">1080</property>
  <property name="meta.media.0.codec.rotate">0</property>
  <property name="meta.media.0.codec.frame_rate">24</property>
  <property name="meta.media.0.codec.pix_fmt">yuv420p</property>
  <property name="meta.media.0.codec.sample_aspect_ratio">1</property>
  <property name="meta.media.0.codec.colorspace">709</property>
  <property name="meta.media.0.codec.color_trc">1</property>
  <property name="meta.media.0.codec.name">h264</property>
  <property name="meta.media.0.codec.long_name">H.264 / AVC / MPEG-4 AVC / MPEG-4 part 10</property>
  <property name="meta.media.0.codec.bit_rate">38193358</property>
  <property name="meta.attr.0.stream.creation_time.markup">2021-05-16T16:44:39.000000Z</property>
  <property name="meta.attr.0.stream.handler_name.markup">VideoHandler</property>
  <property name="meta.attr.0.stream.timecode.markup">08:42:47:15</property>
  <property name="meta.attr.major_brand.markup">isom</property>
  <property name="meta.attr.minor_version.markup">512</property>
  <property name="meta.attr.compatible_brands.markup">isomiso2avc1mp41</property>
  <property name="meta.attr.creation_time.markup">2021-05-16T16:44:39.000000Z</property>
  <property name="meta.attr.encoder.markup">Lavf58.45.100</property>
  <property name="meta.media.sample_aspect_num">1</property>
  <property name="meta.media.sample_aspect_den">1</property>
  <property name="meta.media.frame_rate_num">24</property>
  <property name="meta.media.frame_rate_den">1</property>
  <property name="meta.media.colorspace">709</property>
  <property name="meta.media.color_trc">1</property>
  <property name="meta.media.width">1920</property>
  <property name="meta.media.height">1080</property>
  <property name="meta.media.color_range">mpeg</property>
 </producer>
 <producer id="producer12" in="00:00:00.000" out="00:00:18.000">
  <property name="length">541</property>
  <property name="eof">pause</property>
  <property name="resource">content/footage/P1000462.MP4</property>
  <property name="audio_index">-1</property>
  <property name="video_index">0</property>
  <property name="mute_on_pause">0</property>
  <property name="mlt_service">avformat-novalidate</property>
  <property name="seekable">1</property>
  <property name="aspect_ratio">1</property>
  <property name="kdenlive:clipname">P1000462.MP4</property>
  <property name="kdenlive:folderid">138</property>
  <property name="kdenlive:id">34</property>
  <property name="kdenlive:file_size">86403147</property>
  <property name="kdenlive:file_hash">2fac55c6e73921c8f546abcd3bc52709</property>
  <property name="kdenlive:proxy">-</property>
  <property name="kdenlive:originalurl">content/footage/P1000462.MP4</property>
  <property name="global_feed">1</property>
  <property name="meta.media.nb_streams">2</property>
  <property name="meta.media.0.stream.type">video</property>
  <property name="meta.media.0.stream.frame_rate">24</property>
  <property name="meta.media.0.stream.sample_aspect_ratio">1</property>
  <property name="meta.media.0.codec.width">1920</property>
  <property name="meta.media.0.codec.height">1080</property>
  <property name="meta.media.0.codec.rotate">0</property>
  <property name="meta.media.0.codec.frame_rate">24</property>
  <property name="meta.media.0.codec.pix_fmt">yuv420p</property>
  <property name="meta.media.0.codec.sample_aspect_ratio">1</property>
  <property name="meta.media.0.codec.colorspace">709</property>
  <property name="meta.media.0.codec.color_trc">1</property>
  <property name="meta.media.0.codec.name">h264</property>
  <property name="meta.media.0.codec.long_name">H.264 / AVC / MPEG-4 AVC / MPEG-4 part 10</property>
  <property name="meta.media.0.codec.bit_rate">38309254</property>
  <property name="meta.attr.0.stream.creation_time.markup">2021-05-16T16:43:21.000000Z</property>
  <property name="meta.attr.0.stream.handler_name.markup">VideoHandler</property>
  <property name="meta.attr.0.stream.timecode.markup">08:40:44:15</property>
  <property name="meta.attr.major_brand.markup">isom</property>
  <property name="meta.attr.minor_version.markup">512</property>
  <property name="meta.attr.compatible_brands.markup">isomiso2avc1mp41</property>
  <property name="meta.attr.creation_time.markup">2021-05-16T16:43:21.000000Z</property>
  <property name="meta.attr.encoder.markup">Lavf58.45.100</property>
  <property name="meta.media.sample_aspect_num">1</property>
  <property name="meta.media.sample_aspect_den">1</property>
  <property name="meta.media.frame_rate_num">24</property>
  <property name="meta.media.frame_rate_den">1</property>
  <property name="meta.media.colorspace">709</property>
  <property name="meta.media.color_trc">1</property>
  <property name="meta.media.width">1920</property>
  <property name="meta.media.height">1080</property>
  <property name="meta.media.color_range">mpeg</property>
 </producer>
 <producer id="producer13" in="00:00:00.000" out="00:00:40.433">
  <property name="length">1214</property>
  <property name="eof">pause</property>
  <property name="resource">content/footage/P1000452-cut-merged-1623351198696.MP4</property>
  <property name="audio_index">-1</property>
  <property name="video_index">0</property>
  <property name="mute_on_pause">0</property>
  <property name="mlt_service">avformat-novalidate</property>
  <property name="seekable">1</property>
  <property name="aspect_ratio">1</property>
  <property name="kdenlive:clipname">P1000452-cut-merged-1623351198696.MP4</property>
  <property name="kdenlive:folderid">138</property>
  <property name="kdenlive:id">35</property>
  <property name="kdenlive:file_size">194845871</property>
  <property name="kdenlive:file_hash">30da6f7a6ce177acd9a7e0dc32aa5977</property>
  <property name="kdenlive:proxy">-</property>
  <property name="kdenlive:originalurl">content/footage/P1000452-cut-merged-1623351198696.MP4</property>
  <property name="global_feed">1</property>
  <property name="meta.media.nb_streams">2</property>
  <property name="meta.media.0.stream.type">video</property>
  <property name="meta.media.0.stream.frame_rate">24.0245</property>
  <property name="meta.media.0.stream.sample_aspect_ratio">1</property>
  <property name="meta.media.0.codec.width">1920</property>
  <property name="meta.media.0.codec.height">1080</property>
  <property name="meta.media.0.codec.rotate">0</property>
  <property name="meta.media.0.codec.frame_rate">24</property>
  <property name="meta.media.0.codec.pix_fmt">yuv420p</property>
  <property name="meta.media.0.codec.sample_aspect_ratio">1</property>
  <property name="meta.media.0.codec.colorspace">709</property>
  <property name="meta.media.0.codec.color_trc">1</property>
  <property name="meta.media.0.codec.name">h264</property>
  <property name="meta.media.0.codec.long_name">H.264 / AVC / MPEG-4 AVC / MPEG-4 part 10</property>
  <property name="meta.media.0.codec.bit_rate">38524246</property>
  <property name="meta.attr.0.stream.handler_name.markup">VideoHandler</property>
  <property name="meta.attr.0.stream.timecode.markup">06:57:38:03</property>
  <property name="meta.attr.major_brand.markup">isom</property>
  <property name="meta.attr.minor_version.markup">512</property>
  <property name="meta.attr.compatible_brands.markup">isomiso2avc1mp41</property>
  <property name="meta.attr.encoder.markup">Lavf58.45.100</property>
  <property name="meta.media.sample_aspect_num">1</property>
  <property name="meta.media.sample_aspect_den">1</property>
  <property name="meta.media.frame_rate_num">91125</property>
  <property name="meta.media.frame_rate_den">3793</property>
  <property name="meta.media.colorspace">709</property>
  <property name="meta.media.color_trc">1</property>
  <property name="meta.media.width">1920</property>
  <property name="meta.media.height">1080</property>
  <property name="meta.media.color_range">mpeg</property>
 </producer>
 <producer id="producer14" in="00:00:00.000" out="00:00:08.400">
  <property name="length">253</property>
  <property name="eof">pause</property>
  <property name="resource">content/footage/2021-04-24_Toronto_flowers.mp4</property>
  <property name="audio_index">1</property>
  <property name="video_index">0</property>
  <property name="mute_on_pause">0</property>
  <property name="mlt_service">avformat-novalidate</property>
  <property name="seekable">1</property>
  <property name="aspect_ratio">1</property>
  <property name="kdenlive:clipname">2021-04-24_Toronto_flowers.mp4</property>
  <property name="kdenlive:folderid">138</property>
  <property name="kdenlive:id">36</property>
  <property name="kdenlive:file_size">18271081</property>
  <property name="kdenlive:file_hash">86a5714cf8ad4847880130b54aca20f4</property>
  <property name="kdenlive:proxy">-</property>
  <property name="kdenlive:originalurl">content/footage/2021-04-24_Toronto_flowers.mp4</property>
  <property name="kdenlive:audio_max">27</property>
  <property name="global_feed">1</property>
  <property name="kdenlive:active_streams">-1</property>
  <property name="meta.media.nb_streams">2</property>
  <property name="meta.media.0.stream.type">video</property>
  <property name="meta.media.0.stream.frame_rate">29.9191</property>
  <property name="meta.media.0.stream.sample_aspect_ratio">1</property>
  <property name="meta.media.0.codec.width">1920</property>
  <property name="meta.media.0.codec.height">1080</property>
  <property name="meta.media.0.codec.rotate">0</property>
  <property name="meta.media.0.codec.frame_rate">90000</property>
  <property name="meta.media.0.codec.pix_fmt">yuv420p</property>
  <property name="meta.media.0.codec.sample_aspect_ratio">0</property>
  <property name="meta.media.0.codec.colorspace">709</property>
  <property name="meta.media.0.codec.name">h264</property>
  <property name="meta.media.0.codec.long_name">H.264 / AVC / MPEG-4 AVC / MPEG-4 part 10</property>
  <property name="meta.media.0.codec.bit_rate">17089582</property>
  <property name="meta.attr.0.stream.creation_time.markup">2021-04-24T16:35:48.000000Z</property>
  <property name="meta.attr.0.stream.language.markup">eng</property>
  <property name="meta.attr.0.stream.handler_name.markup">VideoHandle</property>
  <property name="meta.media.1.stream.type">audio</property>
  <property name="meta.media.1.codec.sample_fmt">fltp</property>
  <property name="meta.media.1.codec.sample_rate">48000</property>
  <property name="meta.media.1.codec.channels">2</property>
  <property name="meta.media.1.codec.name">aac</property>
  <property name="meta.media.1.codec.long_name">AAC (Advanced Audio Coding)</property>
  <property name="meta.media.1.codec.bit_rate">256009</property>
  <property name="meta.attr.1.stream.creation_time.markup">2021-04-24T16:35:48.000000Z</property>
  <property name="meta.attr.1.stream.language.markup">eng</property>
  <property name="meta.attr.1.stream.handler_name.markup">SoundHandle</property>
  <property name="meta.attr.major_brand.markup">isom</property>
  <property name="meta.attr.minor_version.markup">512</property>
  <property name="meta.attr.compatible_brands.markup">isomiso2avc1mp41</property>
  <property name="meta.attr.creation_time.markup">2021-04-24T16:35:48.000000Z</property>
  <property name="meta.attr.encoder.markup">Lavf58.45.100</property>
  <property name="meta.attr.location-eng.markup">+43.6433-079.4404/</property>
  <property name="meta.attr.location.markup">+43.6433-079.4404/</property>
  <property name="meta.media.sample_aspect_num">1</property>
  <property name="meta.media.sample_aspect_den">1</property>
  <property name="meta.media.frame_rate_num">2520000</property>
  <property name="meta.media.frame_rate_den">84227</property>
  <property name="meta.media.colorspace">709</property>
  <property name="meta.media.color_trc">2</property>
  <property name="meta.media.width">1920</property>
  <property name="meta.media.height">1080</property>
  <property name="meta.media.color_range">mpeg</property>
 </producer>
 <producer id="producer15" in="00:00:00.000" out="00:00:23.000">
  <property name="length">691</property>
  <property name="eof">pause</property>
  <property name="resource">content/footage/2020-10-17_AshbridgesBay_sunrise+clouds+waves_2.MP4</property>
  <property name="audio_index">-1</property>
  <property name="video_index">0</property>
  <property name="mute_on_pause">0</property>
  <property name="mlt_service">avformat-novalidate</property>
  <property name="seekable">1</property>
  <property name="aspect_ratio">1</property>
  <property name="kdenlive:clipname">2020-10-17_AshbridgesBay_sunrise+clouds+waves_2.MP4</property>
  <property name="kdenlive:folderid">138</property>
  <property name="kdenlive:id">37</property>
  <property name="kdenlive:file_size">111570460</property>
  <property name="kdenlive:file_hash">0a99fb75f57218d5139e09e67b05f0f8</property>
  <property name="kdenlive:proxy">-</property>
  <property name="kdenlive:originalurl">content/footage/2020-10-17_AshbridgesBay_sunrise+clouds+waves_2.MP4</property>
  <property name="global_feed">1</property>
  <property name="meta.media.nb_streams">2</property>
  <property name="meta.media.0.stream.type">video</property>
  <property name="meta.media.0.stream.frame_rate">24</property>
  <property name="meta.media.0.stream.sample_aspect_ratio">1</property>
  <property name="meta.media.0.codec.width">1920</property>
  <property name="meta.media.0.codec.height">1080</property>
  <property name="meta.media.0.codec.rotate">0</property>
  <property name="meta.media.0.codec.frame_rate">24</property>
  <property name="meta.media.0.codec.pix_fmt">yuv420p</property>
  <property name="meta.media.0.codec.sample_aspect_ratio">1</property>
  <property name="meta.media.0.codec.colorspace">709</property>
  <property name="meta.media.0.codec.color_trc">1</property>
  <property name="meta.media.0.codec.name">h264</property>
  <property name="meta.media.0.codec.long_name">H.264 / AVC / MPEG-4 AVC / MPEG-4 part 10</property>
  <property name="meta.media.0.codec.bit_rate">38733598</property>
  <property name="meta.attr.0.stream.creation_time.markup">2020-10-17T07:36:40.000000Z</property>
  <property name="meta.attr.0.stream.handler_name.markup">VideoHandler</property>
  <property name="meta.attr.0.stream.timecode.markup">08:44:31:15</property>
  <property name="meta.attr.major_brand.markup">isom</property>
  <property name="meta.attr.minor_version.markup">512</property>
  <property name="meta.attr.compatible_brands.markup">isomiso2avc1mp41</property>
  <property name="meta.attr.creation_time.markup">2020-10-17T07:36:40.000000Z</property>
  <property name="meta.attr.encoder.markup">Lavf58.45.100</property>
  <property name="meta.media.sample_aspect_num">1</property>
  <property name="meta.media.sample_aspect_den">1</property>
  <property name="meta.media.frame_rate_num">24</property>
  <property name="meta.media.frame_rate_den">1</property>
  <property name="meta.media.colorspace">709</property>
  <property name="meta.media.color_trc">1</property>
  <property name="meta.media.width">1920</property>
  <property name="meta.media.height">1080</property>
  <property name="meta.media.color_range">mpeg</property>
 </producer>
 <producer id="producer19" in="00:00:00.000" out="00:03:36.733">
  <property name="length">6503</property>
  <property name="eof">pause</property>
  <property name="resource">content/tree_with_leaves_mask_2.mp4</property>
  <property name="audio_index">-1</property>
  <property name="video_index">0</property>
  <property name="mute_on_pause">0</property>
  <property name="mlt_service">avformat-novalidate</property>
  <property name="seekable">1</property>
  <property name="aspect_ratio">1</property>
  <property name="kdenlive:clipname">tree_with_leaves_mask_2.mp4</property>
  <property name="kdenlive:folderid">144</property>
  <property name="kdenlive:id">38</property>
  <property name="kdenlive:file_size">622274263</property>
  <property name="kdenlive:file_hash">33758f0fc6f0d709ca4a59d84cc4d860</property>
  <property name="kdenlive:proxy">-</property>
  <property name="kdenlive:originalurl">content/tree_with_leaves_mask_2.mp4</property>
  <property name="global_feed">1</property>
  <property name="kdenlive:zone_in">0</property>
  <property name="kdenlive:zone_out">900</property>
  <property name="kdenlive:clipzones">[
    {
        "in": 0,
        "name": "Zone 1",
        "out": 900
    }
]
</property>
  <property name="meta.media.nb_streams">1</property>
  <property name="meta.media.0.stream.type">video</property>
  <property name="meta.media.0.stream.frame_rate">30</property>
  <property name="meta.media.0.stream.sample_aspect_ratio">1</property>
  <property name="meta.media.0.codec.width">1920</property>
  <property name="meta.media.0.codec.height">1080</property>
  <property name="meta.media.0.codec.rotate">0</property>
  <property name="meta.media.0.codec.frame_rate">30</property>
  <property name="meta.media.0.codec.pix_fmt">yuv420p</property>
  <property name="meta.media.0.codec.sample_aspect_ratio">1</property>
  <property name="meta.media.0.codec.colorspace">709</property>
  <property name="meta.media.0.codec.color_trc">1</property>
  <property name="meta.media.0.codec.name">h264</property>
  <property name="meta.media.0.codec.long_name">H.264 / AVC / MPEG-4 AVC / MPEG-4 part 10</property>
  <property name="meta.media.0.codec.bit_rate">22963007</property>
  <property name="meta.attr.0.stream.handler_name.markup">VideoHandler</property>
  <property name="meta.attr.major_brand.markup">isom</property>
  <property name="meta.attr.minor_version.markup">512</property>
  <property name="meta.attr.compatible_brands.markup">isomiso2avc1mp41</property>
  <property name="meta.attr.encoder.markup">Lavf58.76.100</property>
  <property name="meta.media.sample_aspect_num">1</property>
  <property name="meta.media.sample_aspect_den">1</property>
  <property name="meta.media.frame_rate_num">30</property>
  <property name="meta.media.frame_rate_den">1</property>
  <property name="meta.media.colorspace">709</property>
  <property name="meta.media.color_trc">1</property>
  <property name="meta.media.width">1920</property>
  <property name="meta.media.height">1080</property>
  <property name="meta.media.color_range">mpeg</property>
 </producer>
 <producer id="producer78" in="00:00:00.000" out="00:01:54.100">
  <property name="length">3424</property>
  <property name="eof">pause</property>
  <property name="resource">0x000000ff</property>
  <property name="aspect_ratio">1</property>
  <property name="mlt_service">color</property>
  <property name="kdenlive:clipname">Black</property>
  <property name="kdenlive:duration">00:00:05.000</property>
  <property name="kdenlive:folderid">-1</property>
  <property name="kdenlive:id">39</property>
  <property name="mlt_image_format">rgb24</property>
  <property name="kdenlive:file_hash">9196813120dc5c505072516b15baf414</property>
 </producer>
 <producer id="producer20" in="00:00:00.000" out="00:05:07.133">
  <property name="length">9215</property>
  <property name="eof">pause</property>
  <property name="resource">content/humanity_with_musician_v1.mp4</property>
  <property name="audio_index">-1</property>
  <property name="video_index">0</property>
  <property name="mute_on_pause">0</property>
  <property name="mlt_service">avformat-novalidate</property>
  <property name="seekable">1</property>
  <property name="aspect_ratio">1</property>
  <property name="kdenlive:clipname">humanity_with_musician_v1.mp4</property>
  <property name="kdenlive:folderid">144</property>
  <property name="kdenlive:id">40</property>
  <property name="kdenlive:file_size">321321213</property>
  <property name="kdenlive:file_hash">ca39eef9cbaf87eafaaa17672d7b943f</property>
  <property name="kdenlive:proxy">-</property>
  <property name="kdenlive:originalurl">content/humanity_with_musician_v1.mp4</property>
  <property name="global_feed">1</property>
  <property name="meta.media.nb_streams">1</property>
  <property name="meta.media.0.stream.type">video</property>
  <property name="meta.media.0.stream.frame_rate">30</property>
  <property name="meta.media.0.stream.sample_aspect_ratio">1</property>
  <property name="meta.media.0.codec.width">1920</property>
  <property name="meta.media.0.codec.height">1080</property>
  <property name="meta.media.0.codec.rotate">0</property>
  <property name="meta.media.0.codec.frame_rate">30</property>
  <property name="meta.media.0.codec.pix_fmt">yuv420p</property>
  <property name="meta.media.0.codec.sample_aspect_ratio">1</property>
  <property name="meta.media.0.codec.colorspace">709</property>
  <property name="meta.media.0.codec.color_trc">1</property>
  <property name="meta.media.0.codec.name">h264</property>
  <property name="meta.media.0.codec.long_name">H.264 / AVC / MPEG-4 AVC / MPEG-4 part 10</property>
  <property name="meta.media.0.codec.bit_rate">8366108</property>
  <property name="meta.attr.0.stream.handler_name.markup">VideoHandler</property>
  <property name="meta.attr.major_brand.markup">isom</property>
  <property name="meta.attr.minor_version.markup">512</property>
  <property name="meta.attr.compatible_brands.markup">isomiso2avc1mp41</property>
  <property name="meta.attr.encoder.markup">Lavf58.76.100</property>
  <property name="meta.media.sample_aspect_num">1</property>
  <property name="meta.media.sample_aspect_den">1</property>
  <property name="meta.media.frame_rate_num">30</property>
  <property name="meta.media.frame_rate_den">1</property>
  <property name="meta.media.colorspace">709</property>
  <property name="meta.media.color_trc">1</property>
  <property name="meta.media.width">1920</property>
  <property name="meta.media.height">1080</property>
  <property name="meta.media.color_range">mpeg</property>
 </producer>
 <producer id="producer67" in="00:00:00.000" out="00:02:25.100">
  <property name="length">4354</property>
  <property name="eof">pause</property>
  <property name="resource">0xffffffff</property>
  <property name="aspect_ratio">1</property>
  <property name="mlt_service">color</property>
  <property name="kdenlive:clipname">White</property>
  <property name="kdenlive:duration">00:00:05.000</property>
  <property name="kdenlive:folderid">-1</property>
  <property name="kdenlive:id">41</property>
  <property name="mlt_image_format">rgb24</property>
  <property name="kdenlive:file_hash">039b56a692cd66eefeea44a17539e5a2</property>
  <property name="global_feed">1</property>
 </producer>
 <playlist id="main_bin">
  <property name="kdenlive:docproperties.activeTrack">5</property>
  <property name="kdenlive:docproperties.audioChannels">2</property>
  <property name="kdenlive:docproperties.audioTarget">-1</property>
  <property name="kdenlive:docproperties.disablepreview">0</property>
  <property name="kdenlive:docproperties.documentid">1620763706617</property>
  <property name="kdenlive:docproperties.enableTimelineZone">0</property>
  <property name="kdenlive:docproperties.enableexternalproxy">0</property>
  <property name="kdenlive:docproperties.enableproxy">0</property>
  <property name="kdenlive:docproperties.externalproxyparams">../Sub;;S03.MP4;../Clip;;.MXF</property>
  <property name="kdenlive:docproperties.generateimageproxy">0</property>
  <property name="kdenlive:docproperties.generateproxy">1</property>
  <property name="kdenlive:docproperties.groups">[
]
</property>
  <property name="kdenlive:docproperties.guides">[
    {
        "comment": "synth restarts",
        "pos": 6028,
        "type": 0
    },
    {
        "comment": "guide",
        "pos": 6323,
        "type": 0
    },
    {
        "comment": "guide",
        "pos": 6468,
        "type": 0
    },
    {
        "comment": "guide",
        "pos": 6565,
        "type": 0
    },
    {
        "comment": "guide",
        "pos": 6659,
        "type": 0
    },
    {
        "comment": "guide",
        "pos": 6753,
        "type": 0
    },
    {
        "comment": "guide",
        "pos": 6126,
        "type": 0
    },
    {
        "comment": "guide",
        "pos": 6229,
        "type": 0
    },
    {
        "comment": "guide",
        "pos": 1026,
        "type": 0
    },
    {
        "comment": "guide",
        "pos": 1739,
        "type": 0
    },
    {
        "comment": "guide",
        "pos": 1227,
        "type": 0
    },
    {
        "comment": "guide",
        "pos": 1421,
        "type": 0
    },
    {
        "comment": "guide",
        "pos": 2073,
        "type": 0
    },
    {
        "comment": "guide",
        "pos": 1924,
        "type": 0
    },
    {
        "comment": "guide",
        "pos": 596,
        "type": 0
    },
    {
        "comment": "piano solo",
        "pos": 1556,
        "type": 1
    },
    {
        "comment": "guide",
        "pos": 315,
        "type": 0
    },
    {
        "comment": "fall start",
        "pos": 2275,
        "type": 5
    },
    {
        "comment": "spring tree",
        "pos": 887,
        "type": 0
    },
    {
        "comment": "winter start",
        "pos": 5050,
        "type": 5
    },
    {
        "comment": "end",
        "pos": 9215,
        "type": 5
    }
]
</property>
  <property name="kdenlive:docproperties.kdenliveversion">21.04.3</property>
  <property name="kdenlive:docproperties.position">9160</property>
  <property name="kdenlive:docproperties.previewextension"/>
  <property name="kdenlive:docproperties.previewparameters"/>
  <property name="kdenlive:docproperties.profile">atsc_1080p_30</property>
  <property name="kdenlive:docproperties.proxyextension"/>
  <property name="kdenlive:docproperties.proxyimageminsize">2000</property>
  <property name="kdenlive:docproperties.proxyimagesize">800</property>
  <property name="kdenlive:docproperties.proxyminsize">1000</property>
  <property name="kdenlive:docproperties.proxyparams"/>
  <property name="kdenlive:docproperties.renderaudioquality">256</property>
  <property name="kdenlive:docproperties.rendercategory">Generic (HD for web, mobile devices...)</property>
  <property name="kdenlive:docproperties.renderendguide">0</property>
  <property name="kdenlive:docproperties.renderexportaudio">0</property>
  <property name="kdenlive:docproperties.renderfield">0</property>
  <property name="kdenlive:docproperties.renderguide">0</property>
  <property name="kdenlive:docproperties.renderplay">0</property>
  <property name="kdenlive:docproperties.renderprofile">MP4-H264/AAC</property>
  <property name="kdenlive:docproperties.renderquality">24</property>
  <property name="kdenlive:docproperties.renderratio">1</property>
  <property name="kdenlive:docproperties.renderrescale">0</property>
  <property name="kdenlive:docproperties.renderrescaleheight">540</property>
  <property name="kdenlive:docproperties.renderrescalewidth">960</property>
  <property name="kdenlive:docproperties.renderscanning">0</property>
  <property name="kdenlive:docproperties.renderspeed">2</property>
  <property name="kdenlive:docproperties.renderstartguide">0</property>
  <property name="kdenlive:docproperties.rendertcoverlay">0</property>
  <property name="kdenlive:docproperties.rendertctype">0</property>
  <property name="kdenlive:docproperties.rendertwopass">0</property>
  <property name="kdenlive:docproperties.renderurl">fade_to_black_v2.mp4</property>
  <property name="kdenlive:docproperties.renderzone">1</property>
  <property name="kdenlive:docproperties.scrollPos">179</property>
  <property name="kdenlive:docproperties.seekOffset">30000</property>
  <property name="kdenlive:docproperties.version">1</property>
  <property name="kdenlive:docproperties.verticalzoom">1</property>
  <property name="kdenlive:docproperties.videoTarget">-1</property>
  <property name="kdenlive:docproperties.zonein">0</property>
  <property name="kdenlive:docproperties.zoneout">9215</property>
  <property name="kdenlive:docproperties.zoom">11</property>
  <property name="kdenlive:expandedFolders">84</property>
  <property name="kdenlive:documentnotes"/>
  <property name="kdenlive:folder.-1.65">musicians</property>
  <property name="kdenlive:folder.-1.84">humanity</property>
  <property name="kdenlive:folder.-1.129">AI</property>
  <property name="kdenlive:folder.-1.144">rendered</property>
  <property name="kdenlive:folder.84.138">spring</property>
  <property name="kdenlive:docmetadata.meta.attr.title.markup">Fade to Black</property>
  <property name="kdenlive:docmetadata.meta.attr.year.markup">2021</property>
  <property name="xml_retain">1</property>
  <entry producer="producer17" in="00:00:00.000" out="00:08:06.933"/>
  <entry producer="producer0" in="00:00:00.000" out="00:02:47.467"/>
  <entry producer="producer24" in="00:00:00.000" out="00:00:51.833"/>
  <entry producer="producer28" in="00:00:00.000" out="00:01:53.200"/>
  <entry producer="producer25" in="00:00:00.000" out="00:08:19.067"/>
  <entry producer="producer21" in="00:00:00.000" out="00:08:26.400"/>
  <entry producer="producer32" in="00:00:00.000" out="00:02:00.700"/>
  <entry producer="producer23" in="00:00:00.000" out="00:08:59.600"/>
  <entry producer="producer1" in="00:00:00.000" out="00:05:05.533"/>
  <entry producer="producer2" in="00:00:00.000" out="00:05:23.333"/>
  <entry producer="producer3" in="00:00:00.000" out="00:05:04.367"/>
  <entry producer="producer4" in="00:00:00.000" out="00:02:22.233"/>
  <entry producer="producer5" in="00:00:00.000" out="00:00:52.633"/>
  <entry producer="producer6" in="00:00:00.000" out="00:04:49.267"/>
  <entry producer="producer7" in="00:00:00.000" out="00:01:07.533"/>
  <entry producer="producer8" in="00:00:00.000" out="00:04:43.367"/>
  <entry producer="producer22" in="00:00:00.000" out="00:02:01.633"/>
  <entry producer="producer29" in="00:00:00.000" out="00:00:20.933"/>
  <entry producer="producer31" in="00:00:00.000" out="00:00:38.500"/>
  <entry producer="producer33" in="00:00:00.000" out="00:07:39.900"/>
  <entry producer="producer34" in="00:00:00.000" out="00:02:00.367"/>
  <entry producer="producer27" in="00:00:00.000" out="00:06:48.833"/>
  <entry producer="producer26" in="00:00:00.000" out="00:03:49.533"/>
  <entry producer="producer30" in="00:00:00.000" out="00:00:42.667"/>
  <entry producer="producer16" in="00:00:00.000" out="00:04:48.100"/>
  <entry producer="producer9" in="00:00:00.000" out="00:04:50.600"/>
  <entry producer="producer11" in="00:00:00.000" out="00:01:32.100"/>
  <entry producer="producer57" in="00:00:00.000" out="00:01:34.000"/>
  <entry producer="producer62" in="00:00:00.000" out="00:01:16.000"/>
  <entry producer="producer63" in="00:00:00.000" out="00:02:05.000"/>
  <entry producer="producer18" in="00:00:00.000" out="00:05:07.133"/>
  <entry producer="producer10" in="00:00:00.000" out="00:00:11.000"/>
  <entry producer="producer12" in="00:00:00.000" out="00:00:18.000"/>
  <entry producer="producer13" in="00:00:00.000" out="00:00:40.433"/>
  <entry producer="producer14" in="00:00:00.000" out="00:00:08.400"/>
  <entry producer="producer15" in="00:00:00.000" out="00:00:23.000"/>
  <entry producer="producer19" in="00:00:00.000" out="00:03:36.733"/>
  <entry producer="producer78" in="00:00:00.000" out="00:01:54.100"/>
  <entry producer="producer20" in="00:00:00.000" out="00:05:07.133"/>
  <entry producer="producer67" in="00:00:00.000" out="00:02:25.100"/>
 </playlist>
 <producer id="black_track" in="00:00:00.000" out="00:22:01.067">
  <property name="length">2147483647</property>
  <property name="eof">continue</property>
  <property name="resource">black</property>
  <property name="aspect_ratio">1</property>
  <property name="mlt_service">color</property>
  <property name="mlt_image_format">rgb24a</property>
  <property name="set.test_audio">0</property>
 </producer>
 <playlist id="playlist0">
  <property name="kdenlive:audio_track">1</property>
 </playlist>
 <playlist id="playlist1"/>
 <tractor id="tractor0" in="00:00:00.000">
  <property name="kdenlive:audio_track">1</property>
  <property name="kdenlive:trackheight">69</property>
  <property name="kdenlive:timeline_active">0</property>
  <property name="kdenlive:collapsed">0</property>
  <property name="kdenlive:thumbs_format"/>
  <property name="kdenlive:audio_rec"/>
  <track hide="video" producer="playlist0"/>
  <track hide="video" producer="playlist1"/>
  <filter id="filter28">
   <property name="window">75</property>
   <property name="max_gain">20dB</property>
   <property name="mlt_service">volume</property>
   <property name="internal_added">237</property>
   <property name="disable">1</property>
  </filter>
  <filter id="filter29">
   <property name="channel">-1</property>
   <property name="mlt_service">panner</property>
   <property name="internal_added">237</property>
   <property name="start">0.5</property>
   <property name="disable">1</property>
  </filter>
  <filter id="filter23">
   <property name="iec_scale">0</property>
   <property name="mlt_service">audiolevel</property>
   <property name="disable">1</property>
  </filter>
 </tractor>
 <producer id="producer79" in="00:00:00.000" out="00:05:05.533">
  <property name="length">9167</property>
  <property name="eof">pause</property>
  <property name="resource">content/20210602_SpectrumMusic-SoundEscapesDHAIVAT EDIT 1.wav</property>
  <property name="audio_index">0</property>
  <property name="video_index">-1</property>
  <property name="mute_on_pause">0</property>
  <property name="mlt_service">avformat-novalidate</property>
  <property name="meta.media.nb_streams">1</property>
  <property name="meta.media.0.stream.type">audio</property>
  <property name="meta.media.0.codec.sample_fmt">s32</property>
  <property name="meta.media.0.codec.sample_rate">44100</property>
  <property name="meta.media.0.codec.channels">2</property>
  <property name="meta.media.0.codec.name">pcm_s24le</property>
  <property name="meta.media.0.codec.long_name">PCM signed 24-bit little-endian</property>
  <property name="meta.media.0.codec.bit_rate">2116800</property>
  <property name="meta.attr.encoded_by.markup">Pro Tools</property>
  <property name="meta.attr.originator_reference.markup">aui7NJzx4vHk</property>
  <property name="meta.attr.date.markup">2021-06-06</property>
  <property name="meta.attr.creation_time.markup">22:00:46</property>
  <property name="meta.attr.time_reference.markup">13398016</property>
  <property name="meta.attr.umid.markup">0x060A2B340101010501010F101300000015785D98E7EC8500728E005056C00001</property>
  <property name="seekable">1</property>
  <property name="kdenlive:clipname"/>
  <property name="kdenlive:folderid">-1</property>
  <property name="kdenlive:id">10</property>
  <property name="kdenlive:file_size">81284674</property>
  <property name="kdenlive:file_hash">fd2b797ba192f1627941de5184093cc1</property>
  <property name="kdenlive:audio_max">1</property>
  <property name="global_feed">1</property>
  <property name="xml">was here</property>
  <property name="set.test_audio">0</property>
  <property name="set.test_image">1</property>
 </producer>
 <playlist id="playlist2">
  <property name="kdenlive:audio_track">1</property>
  <entry producer="producer79" in="00:00:00.000" out="00:05:05.533">
   <property name="kdenlive:id">10</property>
  </entry>
 </playlist>
 <playlist id="playlist3"/>
 <tractor id="tractor1" in="00:00:00.000" out="00:05:05.533">
  <property name="kdenlive:audio_track">1</property>
  <property name="kdenlive:trackheight">69</property>
  <property name="kdenlive:timeline_active">1</property>
  <property name="kdenlive:collapsed">0</property>
  <property name="kdenlive:thumbs_format"/>
  <property name="kdenlive:audio_rec"/>
  <track hide="video" producer="playlist2"/>
  <track hide="video" producer="playlist3"/>
  <filter id="filter31">
   <property name="window">75</property>
   <property name="max_gain">20dB</property>
   <property name="mlt_service">volume</property>
   <property name="internal_added">237</property>
   <property name="disable">1</property>
  </filter>
  <filter id="filter32">
   <property name="channel">-1</property>
   <property name="mlt_service">panner</property>
   <property name="internal_added">237</property>
   <property name="start">0.5</property>
   <property name="disable">1</property>
  </filter>
  <filter id="filter24">
   <property name="iec_scale">0</property>
   <property name="mlt_service">audiolevel</property>
   <property name="disable">1</property>
  </filter>
 </tractor>
 <producer id="producer81" in="00:00:00.000" out="00:01:16.000">
  <property name="length">2281</property>
  <property name="eof">pause</property>
  <property name="resource">content/fade_to_black_spring_020000_be23161a.mp4</property>
  <property name="audio_index">1</property>
  <property name="video_index">0</property>
  <property name="mute_on_pause">0</property>
  <property name="mlt_service">avformat-novalidate</property>
  <property name="seekable">1</property>
  <property name="aspect_ratio">1</property>
  <property name="kdenlive:clipname"/>
  <property name="kdenlive:folderid">129</property>
  <property name="kdenlive:id">30</property>
  <property name="kdenlive:file_size">17823717</property>
  <property name="kdenlive:file_hash">0c463d4311a62c4ff435f561da02d363</property>
  <property name="kdenlive:audio_max">1</property>
  <property name="global_feed">1</property>
  <property name="xml">was here</property>
  <property name="meta.media.nb_streams">2</property>
  <property name="meta.media.0.stream.type">video</property>
  <property name="meta.media.0.stream.frame_rate">30</property>
  <property name="meta.media.0.stream.sample_aspect_ratio">0</property>
  <property name="meta.media.0.codec.width">512</property>
  <property name="meta.media.0.codec.height">512</property>
  <property name="meta.media.0.codec.rotate">0</property>
  <property name="meta.media.0.codec.frame_rate">30</property>
  <property name="meta.media.0.codec.pix_fmt">yuv420p</property>
  <property name="meta.media.0.codec.sample_aspect_ratio">0</property>
  <property name="meta.media.0.codec.colorspace">601</property>
  <property name="meta.media.0.codec.name">h264</property>
  <property name="meta.media.0.codec.long_name">H.264 / AVC / MPEG-4 AVC / MPEG-4 part 10</property>
  <property name="meta.media.0.codec.bit_rate">1545028</property>
  <property name="meta.attr.0.stream.handler_name.markup">VideoHandler</property>
  <property name="meta.attr.0.stream.vendor_id.markup">[0][0][0][0]</property>
  <property name="meta.media.1.stream.type">audio</property>
  <property name="meta.media.1.codec.sample_fmt">fltp</property>
  <property name="meta.media.1.codec.sample_rate">44100</property>
  <property name="meta.media.1.codec.channels">2</property>
  <property name="meta.media.1.codec.name">aac</property>
  <property name="meta.media.1.codec.long_name">AAC (Advanced Audio Coding)</property>
  <property name="meta.media.1.codec.bit_rate">323037</property>
  <property name="meta.attr.1.stream.handler_name.markup">SoundHandler</property>
  <property name="meta.attr.1.stream.vendor_id.markup">[0][0][0][0]</property>
  <property name="meta.attr.major_brand.markup">isom</property>
  <property name="meta.attr.minor_version.markup">512</property>
  <property name="meta.attr.compatible_brands.markup">isomiso2avc1mp41</property>
  <property name="meta.attr.encoder.markup">Lavf58.29.100</property>
  <property name="meta.media.sample_aspect_num">1</property>
  <property name="meta.media.sample_aspect_den">1</property>
  <property name="meta.media.frame_rate_num">30</property>
  <property name="meta.media.frame_rate_den">1</property>
  <property name="meta.media.colorspace">601</property>
  <property name="meta.media.color_trc">2</property>
  <property name="meta.media.width">512</property>
  <property name="meta.media.height">512</property>
  <property name="meta.media.color_range">mpeg</property>
  <property name="meta.media.top_field_first">0</property>
  <property name="meta.media.progressive">1</property>
  <property name="set.test_audio">1</property>
  <property name="set.test_image">0</property>
 </producer>
 <producer id="producer82" in="00:00:00.000" out="00:02:05.000">
  <property name="length">3751</property>
  <property name="eof">pause</property>
  <property name="resource">content/fade_to_black_winter_026000_0267152b.mp4</property>
  <property name="audio_index">1</property>
  <property name="video_index">0</property>
  <property name="mute_on_pause">0</property>
  <property name="mlt_service">avformat-novalidate</property>
  <property name="seekable">1</property>
  <property name="aspect_ratio">1</property>
  <property name="kdenlive:clipname"/>
  <property name="kdenlive:folderid">129</property>
  <property name="kdenlive:id">31</property>
  <property name="kdenlive:file_size">46866528</property>
  <property name="kdenlive:file_hash">a28b5d80ab4d1d3ae6977e70dd507b24</property>
  <property name="kdenlive:audio_max">1</property>
  <property name="kdenlive:active_streams">-1</property>
  <property name="global_feed">1</property>
  <property name="xml">was here</property>
  <property name="meta.media.nb_streams">2</property>
  <property name="meta.media.0.stream.type">video</property>
  <property name="meta.media.0.stream.frame_rate">30</property>
  <property name="meta.media.0.stream.sample_aspect_ratio">0</property>
  <property name="meta.media.0.codec.width">512</property>
  <property name="meta.media.0.codec.height">512</property>
  <property name="meta.media.0.codec.rotate">0</property>
  <property name="meta.media.0.codec.frame_rate">30</property>
  <property name="meta.media.0.codec.pix_fmt">yuv420p</property>
  <property name="meta.media.0.codec.sample_aspect_ratio">0</property>
  <property name="meta.media.0.codec.colorspace">601</property>
  <property name="meta.media.0.codec.name">h264</property>
  <property name="meta.media.0.codec.long_name">H.264 / AVC / MPEG-4 AVC / MPEG-4 part 10</property>
  <property name="meta.media.0.codec.bit_rate">2669132</property>
  <property name="meta.attr.0.stream.handler_name.markup">VideoHandler</property>
  <property name="meta.attr.0.stream.vendor_id.markup">[0][0][0][0]</property>
  <property name="meta.media.1.stream.type">audio</property>
  <property name="meta.media.1.codec.sample_fmt">fltp</property>
  <property name="meta.media.1.codec.sample_rate">44100</property>
  <property name="meta.media.1.codec.channels">2</property>
  <property name="meta.media.1.codec.name">aac</property>
  <property name="meta.media.1.codec.long_name">AAC (Advanced Audio Coding)</property>
  <property name="meta.media.1.codec.bit_rate">322447</property>
  <property name="meta.attr.1.stream.handler_name.markup">SoundHandler</property>
  <property name="meta.attr.1.stream.vendor_id.markup">[0][0][0][0]</property>
  <property name="meta.attr.major_brand.markup">isom</property>
  <property name="meta.attr.minor_version.markup">512</property>
  <property name="meta.attr.compatible_brands.markup">isomiso2avc1mp41</property>
  <property name="meta.attr.encoder.markup">Lavf58.29.100</property>
  <property name="meta.media.sample_aspect_num">1</property>
  <property name="meta.media.sample_aspect_den">1</property>
  <property name="meta.media.frame_rate_num">30</property>
  <property name="meta.media.frame_rate_den">1</property>
  <property name="meta.media.colorspace">601</property>
  <property name="meta.media.color_trc">2</property>
  <property name="meta.media.width">512</property>
  <property name="meta.media.height">512</property>
  <property name="meta.media.color_range">mpeg</property>
  <property name="meta.media.top_field_first">0</property>
  <property name="meta.media.progressive">1</property>
  <property name="set.test_audio">1</property>
  <property name="set.test_image">0</property>
 </producer>
 <producer id="producer35" in="00:00:00.000" out="00:02:01.633">
  <property name="length">3650</property>
  <property name="eof">pause</property>
  <property name="resource">content/footage/Black Lives Matters - George Floyd protests videos-d4HKXLks-VA.mkv</property>
  <property name="audio_index">1</property>
  <property name="video_index">0</property>
  <property name="mute_on_pause">0</property>
  <property name="mlt_service">avformat-novalidate</property>
  <property name="seekable">1</property>
  <property name="aspect_ratio">1</property>
  <property name="kdenlive:clipname">Black Lives Matters - George Floyd protests videos-d4HKXLks-VA.mkv</property>
  <property name="kdenlive:folderid">84</property>
  <property name="kdenlive:id">18</property>
  <property name="kdenlive:file_size">50326608</property>
  <property name="kdenlive:proxy">-</property>
  <property name="kdenlive:originalurl">content/footage/Black Lives Matters - George Floyd protests videos-d4HKXLks-VA.mkv</property>
  <property name="kdenlive:audio_max">1</property>
  <property name="global_feed">1</property>
  <property name="kdenlive:zone_in">2378</property>
  <property name="kdenlive:zone_out">2829</property>
  <property name="kdenlive:clipzones">[
    {
        "in": 122,
        "name": "Selma bridge",
        "out": 561
    },
    {
        "in": 2378,
        "name": "drone with police",
        "out": 2829
    }
]
</property>
  <property name="kdenlive:active_streams">-1</property>
  <property name="kdenlive:file_hash">918d049cf9c8678ccf9fd488be96b978</property>
  <property name="xml">was here</property>
  <property name="meta.media.nb_streams">2</property>
  <property name="meta.media.0.stream.type">video</property>
  <property name="meta.media.0.stream.frame_rate">29.97</property>
  <property name="meta.media.0.stream.sample_aspect_ratio">1</property>
  <property name="meta.media.0.codec.width">1920</property>
  <property name="meta.media.0.codec.height">1080</property>
  <property name="meta.media.0.codec.rotate">0</property>
  <property name="meta.media.0.codec.frame_rate">29.97</property>
  <property name="meta.media.0.codec.pix_fmt">yuv420p</property>
  <property name="meta.media.0.codec.sample_aspect_ratio">1</property>
  <property name="meta.media.0.codec.colorspace">709</property>
  <property name="meta.media.0.codec.color_trc">1</property>
  <property name="meta.media.0.codec.name">h264</property>
  <property name="meta.media.0.codec.long_name">H.264 / AVC / MPEG-4 AVC / MPEG-4 part 10</property>
  <property name="meta.media.0.codec.bit_rate">0</property>
  <property name="meta.attr.0.stream.HANDLER_NAME.markup">ISO Media file produced by Google Inc.</property>
  <property name="meta.attr.0.stream.DURATION.markup">00:02:01.655000000</property>
  <property name="meta.media.1.stream.type">audio</property>
  <property name="meta.media.1.codec.sample_fmt">fltp</property>
  <property name="meta.media.1.codec.sample_rate">48000</property>
  <property name="meta.media.1.codec.channels">2</property>
  <property name="meta.media.1.codec.name">opus</property>
  <property name="meta.media.1.codec.long_name">Opus</property>
  <property name="meta.media.1.codec.bit_rate">0</property>
  <property name="meta.attr.1.stream.language.markup">eng</property>
  <property name="meta.attr.1.stream.DURATION.markup">00:02:01.681000000</property>
  <property name="meta.attr.COMPATIBLE_BRANDS.markup">iso6avc1mp41</property>
  <property name="meta.attr.MAJOR_BRAND.markup">dash</property>
  <property name="meta.attr.MINOR_VERSION.markup">0</property>
  <property name="meta.attr.ENCODER.markup">Lavf58.45.100</property>
  <property name="meta.media.sample_aspect_num">1</property>
  <property name="meta.media.sample_aspect_den">1</property>
  <property name="meta.media.frame_rate_num">30000</property>
  <property name="meta.media.frame_rate_den">1001</property>
  <property name="meta.media.colorspace">709</property>
  <property name="meta.media.color_trc">1</property>
  <property name="meta.media.width">1920</property>
  <property name="meta.media.height">1080</property>
  <property name="meta.media.color_range">mpeg</property>
  <property name="meta.media.top_field_first">0</property>
  <property name="meta.media.progressive">1</property>
  <property name="set.test_audio">1</property>
  <property name="set.test_image">0</property>
 </producer>
 <playlist id="playlist4">
  <entry producer="producer81" in="00:00:00.000" out="00:01:16.000">
   <property name="kdenlive:id">30</property>
   <property name="kdenlive:activeeffect">3</property>
   <filter id="filter25">
    <property name="rotate_center">1</property>
    <property name="mlt_service">qtblend</property>
    <property name="kdenlive_id">qtblend</property>
    <property name="rect">00:00:00.000=-192 -108 2304 1296 1.000000</property>
    <property name="rotation">00:00:00.000=0</property>
    <property name="compositing">0</property>
    <property name="distort">1</property>
    <property name="kdenlive:collapsed">0</property>
   </filter>
   <filter id="filter26">
    <property name="mlt_service">avfilter.gblur</property>
    <property name="kdenlive_id">avfilter.gblur</property>
    <property name="av.sigma">7</property>
    <property name="av.steps">1</property>
    <property name="av.planes">7</property>
    <property name="av.sigmaV">-1</property>
    <property name="kdenlive:collapsed">0</property>
   </filter>
   <filter id="filter30">
    <property name="version">0.3</property>
    <property name="mlt_service">frei0r.saturat0r</property>
    <property name="kdenlive_id">frei0r.saturat0r</property>
    <property name="Saturation">00:00:00.000=0.244</property>
    <property name="kdenlive:collapsed">0</property>
   </filter>
   <filter id="filter33">
    <property name="lift_r">0.375006</property>
    <property name="lift_g">0.375006</property>
    <property name="lift_b">0.375006</property>
    <property name="gamma_r">1.27501</property>
    <property name="gamma_g">1.27501</property>
    <property name="gamma_b">1.27501</property>
    <property name="gain_r">1.05</property>
    <property name="gain_g">1.05</property>
    <property name="gain_b">1.05</property>
    <property name="mlt_service">lift_gamma_gain</property>
    <property name="kdenlive_id">lift_gamma_gain</property>
    <property name="kdenlive:collapsed">0</property>
   </filter>
   <filter id="filter34" out="00:00:03.233">
    <property name="start">0</property>
    <property name="mlt_service">brightness</property>
    <property name="kdenlive_id">fade_from_black</property>
    <property name="end">1</property>
    <property name="alpha">-1</property>
   </filter>
  </entry>
  <blank length="00:01:31.967"/>
  <entry producer="producer82" in="00:00:00.000" out="00:02:05.000">
   <property name="kdenlive:id">31</property>
   <property name="kdenlive:activeeffect">1</property>
   <filter id="filter35">
    <property name="rotate_center">1</property>
    <property name="mlt_service">qtblend</property>
    <property name="kdenlive_id">qtblend</property>
    <property name="rect">00:00:00.000=-192 -108 2304 1296 1.000000</property>
    <property name="rotation">00:00:00.000=0</property>
    <property name="compositing">0</property>
    <property name="distort">1</property>
    <property name="kdenlive:collapsed">0</property>
   </filter>
   <filter id="filter36">
    <property name="mlt_service">avfilter.gblur</property>
    <property name="kdenlive_id">avfilter.gblur</property>
    <property name="av.sigma">4</property>
    <property name="av.steps">1</property>
    <property name="av.planes">7</property>
    <property name="av.sigmaV">-1</property>
    <property name="kdenlive:collapsed">0</property>
   </filter>
   <filter id="filter37" in="00:01:59.233" out="00:02:05.000">
    <property name="start">1</property>
    <property name="mlt_service">brightness</property>
    <property name="kdenlive_id">fade_to_black</property>
    <property name="end">0</property>
    <property name="alpha">1</property>
    <property name="kdenlive:collapsed">0</property>
   </filter>
  </entry>
  <entry producer="producer78" in="00:00:00.000" out="00:00:00.700">
   <property name="kdenlive:id">39</property>
  </entry>
  <entry producer="producer35" in="00:00:11.933" out="00:00:18.700">
   <property name="kdenlive:id">18</property>
   <filter id="filter38" in="00:00:16.733" out="00:00:18.700">
    <property name="start">1</property>
    <property name="mlt_service">brightness</property>
    <property name="kdenlive_id">fade_to_black</property>
    <property name="end">0</property>
    <property name="alpha">-1</property>
    <property name="kdenlive:collapsed">0</property>
   </filter>
  </entry>
  <entry producer="producer78" in="00:00:00.000" out="00:00:07.500">
   <property name="kdenlive:id">39</property>
  </entry>
 </playlist>
 <playlist id="playlist5"/>
 <tractor id="tractor2" in="00:00:00.000" out="00:05:08.067">
  <property name="kdenlive:trackheight">69</property>
  <property name="kdenlive:timeline_active">1</property>
  <property name="kdenlive:collapsed">0</property>
  <property name="kdenlive:track_name">AI2</property>
  <property name="kdenlive:thumbs_format"/>
  <property name="kdenlive:audio_rec"/>
  <track hide="audio" producer="playlist4"/>
  <track producer="playlist5"/>
 </tractor>
 <producer id="producer85" in="00:00:00.000" out="00:01:34.000">
  <property name="length">2821</property>
  <property name="eof">pause</property>
  <property name="resource">content/fade_to_black_fall_030000_3f96c4de.mp4</property>
  <property name="audio_index">1</property>
  <property name="video_index">0</property>
  <property name="mute_on_pause">0</property>
  <property name="mlt_service">avformat-novalidate</property>
  <property name="seekable">1</property>
  <property name="aspect_ratio">1</property>
  <property name="kdenlive:clipname"/>
  <property name="kdenlive:folderid">129</property>
  <property name="kdenlive:id">29</property>
  <property name="kdenlive:file_size">47861548</property>
  <property name="kdenlive:file_hash">48b177ec69ca71c81736d5abba4e2fef</property>
  <property name="kdenlive:audio_max">1</property>
  <property name="kdenlive:active_streams">-1</property>
  <property name="global_feed">1</property>
  <property name="xml">was here</property>
  <property name="meta.media.nb_streams">2</property>
  <property name="meta.media.0.stream.type">video</property>
  <property name="meta.media.0.stream.frame_rate">30</property>
  <property name="meta.media.0.stream.sample_aspect_ratio">0</property>
  <property name="meta.media.0.codec.width">512</property>
  <property name="meta.media.0.codec.height">512</property>
  <property name="meta.media.0.codec.rotate">0</property>
  <property name="meta.media.0.codec.frame_rate">30</property>
  <property name="meta.media.0.codec.pix_fmt">yuv420p</property>
  <property name="meta.media.0.codec.sample_aspect_ratio">0</property>
  <property name="meta.media.0.codec.colorspace">601</property>
  <property name="meta.media.0.codec.name">h264</property>
  <property name="meta.media.0.codec.long_name">H.264 / AVC / MPEG-4 AVC / MPEG-4 part 10</property>
  <property name="meta.media.0.codec.bit_rate">3744056</property>
  <property name="meta.attr.0.stream.handler_name.markup">VideoHandler</property>
  <property name="meta.attr.0.stream.vendor_id.markup">[0][0][0][0]</property>
  <property name="meta.media.1.stream.type">audio</property>
  <property name="meta.media.1.codec.sample_fmt">fltp</property>
  <property name="meta.media.1.codec.sample_rate">44100</property>
  <property name="meta.media.1.codec.channels">2</property>
  <property name="meta.media.1.codec.name">aac</property>
  <property name="meta.media.1.codec.long_name">AAC (Advanced Audio Coding)</property>
  <property name="meta.media.1.codec.bit_rate">321850</property>
  <property name="meta.attr.1.stream.handler_name.markup">SoundHandler</property>
  <property name="meta.attr.1.stream.vendor_id.markup">[0][0][0][0]</property>
  <property name="meta.attr.major_brand.markup">isom</property>
  <property name="meta.attr.minor_version.markup">512</property>
  <property name="meta.attr.compatible_brands.markup">isomiso2avc1mp41</property>
  <property name="meta.attr.encoder.markup">Lavf58.29.100</property>
  <property name="meta.media.sample_aspect_num">1</property>
  <property name="meta.media.sample_aspect_den">1</property>
  <property name="meta.media.frame_rate_num">30</property>
  <property name="meta.media.frame_rate_den">1</property>
  <property name="meta.media.colorspace">601</property>
  <property name="meta.media.color_trc">2</property>
  <property name="meta.media.width">512</property>
  <property name="meta.media.height">512</property>
  <property name="meta.media.color_range">mpeg</property>
  <property name="meta.media.top_field_first">0</property>
  <property name="meta.media.progressive">1</property>
  <property name="set.test_audio">1</property>
  <property name="set.test_image">0</property>
 </producer>
 <producer id="producer36" in="00:00:00.000" out="00:01:12.233">
  <property name="length">2168</property>
  <property name="eof">pause</property>
  <property name="resource">3.000000:content/tree_with_leaves_mask_2.mp4</property>
  <property name="aspect_ratio">1</property>
  <property name="meta.media.nb_streams">1</property>
  <property name="meta.media.0.stream.type">video</property>
  <property name="meta.media.0.stream.frame_rate">30</property>
  <property name="meta.media.0.stream.sample_aspect_ratio">1</property>
  <property name="meta.media.0.codec.width">1920</property>
  <property name="meta.media.0.codec.height">1080</property>
  <property name="meta.media.0.codec.rotate">0</property>
  <property name="meta.media.0.codec.frame_rate">30</property>
  <property name="meta.media.0.codec.pix_fmt">yuv420p</property>
  <property name="meta.media.0.codec.sample_aspect_ratio">1</property>
  <property name="meta.media.0.codec.colorspace">709</property>
  <property name="meta.media.0.codec.color_trc">1</property>
  <property name="meta.media.0.codec.name">h264</property>
  <property name="meta.media.0.codec.long_name">H.264 / AVC / MPEG-4 AVC / MPEG-4 part 10</property>
  <property name="meta.media.0.codec.bit_rate">22963007</property>
  <property name="meta.attr.0.stream.handler_name.markup">VideoHandler</property>
  <property name="meta.attr.major_brand.markup">isom</property>
  <property name="meta.attr.minor_version.markup">512</property>
  <property name="meta.attr.compatible_brands.markup">isomiso2avc1mp41</property>
  <property name="meta.attr.encoder.markup">Lavf58.76.100</property>
  <property name="seekable">1</property>
  <property name="meta.media.sample_aspect_num">1</property>
  <property name="meta.media.sample_aspect_den">1</property>
  <property name="audio_index">-1</property>
  <property name="video_index">0</property>
  <property name="mute_on_pause">1</property>
  <property name="warp_speed">3</property>
  <property name="warp_resource">content/tree_with_leaves_mask_2.mp4</property>
  <property name="mlt_service">timewarp</property>
  <property name="kdenlive:proxy">-</property>
  <property name="kdenlive:originalurl">content/tree_with_leaves_mask_2.mp4</property>
  <property name="set.test_audio">1</property>
  <property name="set.test_image">0</property>
  <property name="kdenlive:id">38</property>
  <property name="warp_pitch">0</property>
  <property name="meta.media.frame_rate_num">30</property>
  <property name="meta.media.frame_rate_den">1</property>
  <property name="meta.media.colorspace">709</property>
  <property name="meta.media.color_trc">1</property>
  <property name="meta.media.width">1920</property>
  <property name="meta.media.height">1080</property>
  <property name="meta.media.color_range">mpeg</property>
  <property name="meta.media.top_field_first">0</property>
  <property name="meta.media.progressive">1</property>
 </producer>
 <playlist id="playlist6">
  <blank length="00:01:14.967"/>
  <entry producer="producer85" in="00:00:00.000" out="00:01:34.000">
   <property name="kdenlive:id">29</property>
   <property name="kdenlive:activeeffect">1</property>
   <filter id="filter48">
    <property name="rotate_center">1</property>
    <property name="mlt_service">qtblend</property>
    <property name="kdenlive_id">qtblend</property>
    <property name="rect">00:00:00.000=-192 -108 2304 1296 1.000000</property>
    <property name="rotation">00:00:00.000=0</property>
    <property name="compositing">0</property>
    <property name="distort">1</property>
    <property name="kdenlive:collapsed">0</property>
   </filter>
   <filter id="filter49">
    <property name="mlt_service">avfilter.gblur</property>
    <property name="kdenlive_id">avfilter.gblur</property>
    <property name="av.sigma">5</property>
    <property name="av.steps">1</property>
    <property name="av.planes">7</property>
    <property name="av.sigmaV">-1</property>
    <property name="kdenlive:collapsed">0</property>
   </filter>
  </entry>
  <blank length="00:02:04.767"/>
  <entry producer="producer36" in="00:00:00.000" out="00:00:13.333">
   <property name="kdenlive:id">38</property>
   <filter id="filter39">
    <property name="mlt_service">invert</property>
    <property name="kdenlive_id">invert</property>
    <property name="kdenlive:collapsed">0</property>
   </filter>
   <filter id="filter40">
    <property name="version">0.1</property>
    <property name="mlt_service">frei0r.colorize</property>
    <property name="kdenlive_id">frei0r.colorize</property>
    <property name="hue">00:00:00.000=1;00:00:06.033=1;00:00:08.167=0.272222</property>
    <property name="saturation">00:00:00.000=0.786111;00:00:06.033=0.786111;00:00:08.167=0.786111</property>
    <property name="lightness">00:00:00.000=0.308333;00:00:06.033=0.308333;00:00:08.167=0.308333</property>
    <property name="kdenlive:collapsed">0</property>
   </filter>
  </entry>
 </playlist>
 <playlist id="playlist7"/>
 <tractor id="tractor3" in="00:00:00.000" out="00:05:07.100">
  <property name="kdenlive:trackheight">69</property>
  <property name="kdenlive:timeline_active">1</property>
  <property name="kdenlive:collapsed">0</property>
  <property name="kdenlive:track_name">AI blend</property>
  <property name="kdenlive:thumbs_format"/>
  <property name="kdenlive:audio_rec"/>
  <track hide="audio" producer="playlist6"/>
  <track producer="playlist7"/>
 </tractor>
 <producer id="producer37" in="00:00:00.000" out="00:04:48.100">
  <property name="length">8644</property>
  <property name="eof">pause</property>
  <property name="resource">content/technology_dhaivat_5min.mp4</property>
  <property name="audio_index">-1</property>
  <property name="video_index">0</property>
  <property name="mute_on_pause">0</property>
  <property name="mlt_service">avformat-novalidate</property>
  <property name="seekable">1</property>
  <property name="aspect_ratio">1</property>
  <property name="kdenlive:clipname">technology_dhaivat_5min.mp4</property>
  <property name="kdenlive:folderid">129</property>
  <property name="kdenlive:id">26</property>
  <property name="kdenlive:file_size">225585698</property>
  <property name="kdenlive:proxy">-</property>
  <property name="kdenlive:originalurl">content/technology_dhaivat_5min.mp4</property>
  <property name="global_feed">1</property>
  <property name="kdenlive:file_hash">73f94df5e097467476a07de5ded61de2</property>
  <property name="xml">was here</property>
  <property name="meta.media.nb_streams">1</property>
  <property name="meta.media.0.stream.type">video</property>
  <property name="meta.media.0.stream.frame_rate">25</property>
  <property name="meta.media.0.stream.sample_aspect_ratio">1</property>
  <property name="meta.media.0.codec.width">1280</property>
  <property name="meta.media.0.codec.height">720</property>
  <property name="meta.media.0.codec.rotate">0</property>
  <property name="meta.media.0.codec.frame_rate">25</property>
  <property name="meta.media.0.codec.pix_fmt">yuvj420p</property>
  <property name="meta.media.0.codec.sample_aspect_ratio">1</property>
  <property name="meta.media.0.codec.colorspace">601</property>
  <property name="meta.media.0.codec.name">h264</property>
  <property name="meta.media.0.codec.long_name">H.264 / AVC / MPEG-4 AVC / MPEG-4 part 10</property>
  <property name="meta.media.0.codec.bit_rate">6262444</property>
  <property name="meta.attr.0.stream.handler_name.markup">VideoHandler</property>
  <property name="meta.attr.major_brand.markup">isom</property>
  <property name="meta.attr.minor_version.markup">512</property>
  <property name="meta.attr.compatible_brands.markup">isomiso2avc1mp41</property>
  <property name="meta.attr.encoder.markup">Lavf58.76.100</property>
  <property name="meta.media.sample_aspect_num">1</property>
  <property name="meta.media.sample_aspect_den">1</property>
  <property name="meta.media.frame_rate_num">25</property>
  <property name="meta.media.frame_rate_den">1</property>
  <property name="meta.media.colorspace">601</property>
  <property name="meta.media.color_trc">2</property>
  <property name="meta.media.width">1280</property>
  <property name="meta.media.height">720</property>
  <property name="meta.media.color_range">full</property>
  <property name="set.test_audio">1</property>
  <property name="set.test_image">0</property>
 </producer>
 <playlist id="playlist8">
  <entry producer="producer37" in="00:00:00.000" out="00:04:48.100">
   <property name="kdenlive:id">26</property>
   <filter id="filter41" in="00:04:42.000" out="00:04:48.100">
    <property name="start">1</property>
    <property name="mlt_service">brightness</property>
    <property name="kdenlive_id">fade_to_black</property>
    <property name="end">0</property>
    <property name="alpha">1</property>
    <property name="kdenlive:collapsed">0</property>
   </filter>
   <filter id="filter42" out="00:00:03.067">
    <property name="start">0</property>
    <property name="mlt_service">brightness</property>
    <property name="kdenlive_id">fade_from_black</property>
    <property name="end">1</property>
    <property name="alpha">-1</property>
   </filter>
  </entry>
 </playlist>
 <playlist id="playlist9"/>
 <tractor id="tractor4" in="00:00:00.000" out="00:04:48.100">
  <property name="kdenlive:trackheight">69</property>
  <property name="kdenlive:timeline_active">1</property>
  <property name="kdenlive:collapsed">0</property>
  <property name="kdenlive:track_name">AI</property>
  <property name="kdenlive:thumbs_format"/>
  <property name="kdenlive:audio_rec"/>
  <track hide="audio" producer="playlist8"/>
  <track producer="playlist9"/>
 </tractor>
 <producer id="producer38" in="00:00:00.000" out="00:05:07.133">
  <property name="length">9215</property>
  <property name="eof">pause</property>
  <property name="resource">content/humanity_with_musician_v1.mp4</property>
  <property name="audio_index">-1</property>
  <property name="video_index">0</property>
  <property name="mute_on_pause">0</property>
  <property name="mlt_service">avformat-novalidate</property>
  <property name="seekable">1</property>
  <property name="aspect_ratio">1</property>
  <property name="kdenlive:clipname">humanity_with_musician_v1.mp4</property>
  <property name="kdenlive:folderid">144</property>
  <property name="kdenlive:id">40</property>
  <property name="kdenlive:file_size">321321213</property>
  <property name="kdenlive:file_hash">ca39eef9cbaf87eafaaa17672d7b943f</property>
  <property name="kdenlive:proxy">-</property>
  <property name="kdenlive:originalurl">content/humanity_with_musician_v1.mp4</property>
  <property name="global_feed">1</property>
  <property name="xml">was here</property>
  <property name="meta.media.nb_streams">1</property>
  <property name="meta.media.0.stream.type">video</property>
  <property name="meta.media.0.stream.frame_rate">30</property>
  <property name="meta.media.0.stream.sample_aspect_ratio">1</property>
  <property name="meta.media.0.codec.width">1920</property>
  <property name="meta.media.0.codec.height">1080</property>
  <property name="meta.media.0.codec.rotate">0</property>
  <property name="meta.media.0.codec.frame_rate">30</property>
  <property name="meta.media.0.codec.pix_fmt">yuv420p</property>
  <property name="meta.media.0.codec.sample_aspect_ratio">1</property>
  <property name="meta.media.0.codec.colorspace">709</property>
  <property name="meta.media.0.codec.color_trc">1</property>
  <property name="meta.media.0.codec.name">h264</property>
  <property name="meta.media.0.codec.long_name">H.264 / AVC / MPEG-4 AVC / MPEG-4 part 10</property>
  <property name="meta.media.0.codec.bit_rate">8366108</property>
  <property name="meta.attr.0.stream.handler_name.markup">VideoHandler</property>
  <property name="meta.attr.major_brand.markup">isom</property>
  <property name="meta.attr.minor_version.markup">512</property>
  <property name="meta.attr.compatible_brands.markup">isomiso2avc1mp41</property>
  <property name="meta.attr.encoder.markup">Lavf58.76.100</property>
  <property name="meta.media.sample_aspect_num">1</property>
  <property name="meta.media.sample_aspect_den">1</property>
  <property name="meta.media.frame_rate_num">30</property>
  <property name="meta.media.frame_rate_den">1</property>
  <property name="meta.media.colorspace">709</property>
  <property name="meta.media.color_trc">1</property>
  <property name="meta.media.width">1920</property>
  <property name="meta.media.height">1080</property>
  <property name="meta.media.color_range">mpeg</property>
  <property name="set.test_audio">1</property>
  <property name="set.test_image">0</property>
 </producer>
 <playlist id="playlist10">
  <entry producer="producer38" in="00:00:00.000" out="00:04:54.300">
   <property name="kdenlive:id">40</property>
   <filter id="filter43" out="00:00:01.767">
    <property name="start">0</property>
    <property name="mlt_service">brightness</property>
    <property name="kdenlive_id">fade_from_black</property>
    <property name="end">1</property>
    <property name="alpha">-1</property>
   </filter>
  </entry>
 </playlist>
 <playlist id="playlist11"/>
 <tractor id="tractor5" in="00:00:00.000" out="00:04:54.300">
  <property name="kdenlive:trackheight">69</property>
  <property name="kdenlive:timeline_active">1</property>
  <property name="kdenlive:collapsed">0</property>
  <property name="kdenlive:track_name">Humanity w musicians</property>
  <property name="kdenlive:thumbs_format"/>
  <property name="kdenlive:audio_rec"/>
  <track hide="audio" producer="playlist10"/>
  <track producer="playlist11"/>
 </tractor>
 <producer id="producer89" in="00:00:00.000" out="00:00:40.433">
  <property name="length">1214</property>
  <property name="eof">pause</property>
  <property name="resource">content/footage/P1000452-cut-merged-1623351198696.MP4</property>
  <property name="audio_index">-1</property>
  <property name="video_index">0</property>
  <property name="mute_on_pause">0</property>
  <property name="mlt_service">avformat-novalidate</property>
  <property name="seekable">1</property>
  <property name="aspect_ratio">1</property>
  <property name="kdenlive:clipname">P1000452-cut-merged-1623351198696.MP4</property>
  <property name="kdenlive:folderid">138</property>
  <property name="kdenlive:id">35</property>
  <property name="kdenlive:file_size">194845871</property>
  <property name="kdenlive:file_hash">30da6f7a6ce177acd9a7e0dc32aa5977</property>
  <property name="kdenlive:proxy">-</property>
  <property name="kdenlive:originalurl">content/footage/P1000452-cut-merged-1623351198696.MP4</property>
  <property name="kdenlive:original.mlt_type">producer</property>
  <property name="kdenlive:original.in">0</property>
  <property name="kdenlive:original.out">1213</property>
  <property name="kdenlive:original.length">1214</property>
  <property name="kdenlive:original.eof">pause</property>
  <property name="kdenlive:original.resource">/home/ryankelln/Documents/Projects/Active/Sound_Escapes/Dhaivat/footage/P1000452-cut-merged-1623351198696.MP4</property>
  <property name="kdenlive:original.meta.media.nb_streams">2</property>
  <property name="kdenlive:original.meta.media.0.stream.type">video</property>
  <property name="kdenlive:original.meta.media.0.stream.frame_rate">24.0245</property>
  <property name="kdenlive:original.meta.media.0.stream.sample_aspect_ratio">1</property>
  <property name="kdenlive:original.meta.media.0.codec.width">1920</property>
  <property name="kdenlive:original.meta.media.0.codec.height">1080</property>
  <property name="kdenlive:original.meta.media.0.codec.rotate">0</property>
  <property name="kdenlive:original.meta.media.0.codec.frame_rate">24</property>
  <property name="kdenlive:original.meta.media.0.codec.pix_fmt">yuv420p</property>
  <property name="kdenlive:original.meta.media.0.codec.sample_aspect_ratio">1</property>
  <property name="kdenlive:original.meta.media.0.codec.colorspace">709</property>
  <property name="kdenlive:original.meta.media.0.codec.color_trc">1</property>
  <property name="kdenlive:original.meta.media.0.codec.name">h264</property>
  <property name="kdenlive:original.meta.media.0.codec.long_name">H.264 / AVC / MPEG-4 AVC / MPEG-4 part 10</property>
  <property name="kdenlive:original.meta.media.0.codec.bit_rate">38524246</property>
  <property name="kdenlive:original.meta.attr.0.stream.handler_name.markup">VideoHandler</property>
  <property name="kdenlive:original.meta.attr.0.stream.vendor_id.markup">[0][0][0][0]</property>
  <property name="kdenlive:original.meta.attr.0.stream.timecode.markup">06:57:38:03</property>
  <property name="kdenlive:original.meta.attr.major_brand.markup">isom</property>
  <property name="kdenlive:original.meta.attr.minor_version.markup">512</property>
  <property name="kdenlive:original.meta.attr.compatible_brands.markup">isomiso2avc1mp41</property>
  <property name="kdenlive:original.meta.attr.encoder.markup">Lavf58.45.100</property>
  <property name="kdenlive:original.seekable">1</property>
  <property name="kdenlive:original.width">1920</property>
  <property name="kdenlive:original.height">1080</property>
  <property name="kdenlive:original.meta.media.sample_aspect_num">1</property>
  <property name="kdenlive:original.meta.media.sample_aspect_den">1</property>
  <property name="kdenlive:original.aspect_ratio">1</property>
  <property name="kdenlive:original.audio_index">-1</property>
  <property name="kdenlive:original.video_index">0</property>
  <property name="kdenlive:original.mute_on_pause">0</property>
  <property name="kdenlive:original.mlt_service">avformat-novalidate</property>
  <property name="kdenlive:original.kdenlive:folderid">138</property>
  <property name="kdenlive:original.meta.media.frame_rate_num">91125</property>
  <property name="kdenlive:original.meta.media.frame_rate_den">3793</property>
  <property name="kdenlive:original.meta.media.colorspace">709</property>
  <property name="kdenlive:original.meta.media.color_trc">1</property>
  <property name="kdenlive:original.meta.media.width">1920</property>
  <property name="kdenlive:original.meta.media.height">1080</property>
  <property name="kdenlive:original.meta.media.color_range">mpeg</property>
  <property name="kdenlive:original.kdenlive:id">141</property>
  <property name="kdenlive:original.kdenlive:file_size">194845871</property>
  <property name="kdenlive:original.kdenlive:file_hash">30da6f7a6ce177acd9a7e0dc32aa5977</property>
  <property name="kdenlive:original.backup">1</property>
  <property name="global_feed">1</property>
  <property name="xml">was here</property>
  <property name="meta.media.nb_streams">1</property>
  <property name="meta.media.0.stream.type">video</property>
  <property name="meta.media.0.stream.frame_rate">24</property>
  <property name="meta.media.0.stream.sample_aspect_ratio">1</property>
  <property name="meta.media.0.codec.width">640</property>
  <property name="meta.media.0.codec.height">360</property>
  <property name="meta.media.0.codec.rotate">0</property>
  <property name="meta.media.0.codec.frame_rate">1000</property>
  <property name="meta.media.0.codec.pix_fmt">yuvj420p</property>
  <property name="meta.media.0.codec.sample_aspect_ratio">1</property>
  <property name="meta.media.0.codec.colorspace">601</property>
  <property name="meta.media.0.codec.color_trc">1</property>
  <property name="meta.media.0.codec.name">mjpeg</property>
  <property name="meta.media.0.codec.long_name">MJPEG (Motion JPEG)</property>
  <property name="meta.media.0.codec.bit_rate">0</property>
  <property name="meta.attr.0.stream.HANDLER_NAME.markup">VideoHandler</property>
  <property name="meta.attr.0.stream.VENDOR_ID.markup">[0][0][0][0]</property>
  <property name="meta.attr.0.stream.TIMECODE.markup">06:57:38:03</property>
  <property name="meta.attr.0.stream.ENCODER.markup">Lavc58.134.100 mjpeg</property>
  <property name="meta.attr.0.stream.DURATION.markup">00:00:40.584000000</property>
  <property name="meta.attr.COMPATIBLE_BRANDS.markup">isomiso2avc1mp41</property>
  <property name="meta.attr.MAJOR_BRAND.markup">isom</property>
  <property name="meta.attr.MINOR_VERSION.markup">512</property>
  <property name="meta.attr.ENCODER.markup">Lavf58.76.100</property>
  <property name="meta.media.sample_aspect_num">1</property>
  <property name="meta.media.sample_aspect_den">1</property>
  <property name="meta.media.frame_rate_num">24</property>
  <property name="meta.media.frame_rate_den">1</property>
  <property name="meta.media.colorspace">601</property>
  <property name="meta.media.color_trc">1</property>
  <property name="meta.media.width">640</property>
  <property name="meta.media.height">360</property>
  <property name="meta.media.color_range">full</property>
  <property name="meta.media.top_field_first">0</property>
  <property name="meta.media.progressive">1</property>
  <property name="set.test_audio">1</property>
  <property name="set.test_image">0</property>
 </producer>
 <producer id="producer90" in="00:00:00.000" out="00:00:18.000">
  <property name="length">541</property>
  <property name="eof">pause</property>
  <property name="resource">content/footage/P1000462.MP4</property>
  <property name="audio_index">-1</property>
  <property name="video_index">0</property>
  <property name="mute_on_pause">0</property>
  <property name="mlt_service">avformat-novalidate</property>
  <property name="seekable">1</property>
  <property name="aspect_ratio">1</property>
  <property name="kdenlive:clipname">P1000462.MP4</property>
  <property name="kdenlive:folderid">138</property>
  <property name="kdenlive:id">34</property>
  <property name="kdenlive:file_size">86403147</property>
  <property name="kdenlive:file_hash">2fac55c6e73921c8f546abcd3bc52709</property>
  <property name="kdenlive:proxy">-</property>
  <property name="kdenlive:originalurl">content/footage/P1000462.MP4</property>
  <property name="kdenlive:original.mlt_type">producer</property>
  <property name="kdenlive:original.in">0</property>
  <property name="kdenlive:original.out">540</property>
  <property name="kdenlive:original.length">541</property>
  <property name="kdenlive:original.eof">pause</property>
  <property name="kdenlive:original.resource">/home/ryankelln/Documents/Projects/Active/Sound_Escapes/Dhaivat/footage/P1000462.MP4</property>
  <property name="kdenlive:original.meta.media.nb_streams">2</property>
  <property name="kdenlive:original.meta.media.0.stream.type">video</property>
  <property name="kdenlive:original.meta.media.0.stream.frame_rate">24</property>
  <property name="kdenlive:original.meta.media.0.stream.sample_aspect_ratio">1</property>
  <property name="kdenlive:original.meta.media.0.codec.width">1920</property>
  <property name="kdenlive:original.meta.media.0.codec.height">1080</property>
  <property name="kdenlive:original.meta.media.0.codec.rotate">0</property>
  <property name="kdenlive:original.meta.media.0.codec.frame_rate">24</property>
  <property name="kdenlive:original.meta.media.0.codec.pix_fmt">yuv420p</property>
  <property name="kdenlive:original.meta.media.0.codec.sample_aspect_ratio">1</property>
  <property name="kdenlive:original.meta.media.0.codec.colorspace">709</property>
  <property name="kdenlive:original.meta.media.0.codec.color_trc">1</property>
  <property name="kdenlive:original.meta.media.0.codec.name">h264</property>
  <property name="kdenlive:original.meta.media.0.codec.long_name">H.264 / AVC / MPEG-4 AVC / MPEG-4 part 10</property>
  <property name="kdenlive:original.meta.media.0.codec.bit_rate">38309254</property>
  <property name="kdenlive:original.meta.attr.0.stream.creation_time.markup">2021-05-16T16:43:21.000000Z</property>
  <property name="kdenlive:original.meta.attr.0.stream.handler_name.markup">VideoHandler</property>
  <property name="kdenlive:original.meta.attr.0.stream.vendor_id.markup">[0][0][0][0]</property>
  <property name="kdenlive:original.meta.attr.0.stream.timecode.markup">08:40:44:15</property>
  <property name="kdenlive:original.meta.attr.major_brand.markup">isom</property>
  <property name="kdenlive:original.meta.attr.minor_version.markup">512</property>
  <property name="kdenlive:original.meta.attr.compatible_brands.markup">isomiso2avc1mp41</property>
  <property name="kdenlive:original.meta.attr.creation_time.markup">2021-05-16T16:43:21.000000Z</property>
  <property name="kdenlive:original.meta.attr.encoder.markup">Lavf58.45.100</property>
  <property name="kdenlive:original.seekable">1</property>
  <property name="kdenlive:original.width">1920</property>
  <property name="kdenlive:original.height">1080</property>
  <property name="kdenlive:original.meta.media.sample_aspect_num">1</property>
  <property name="kdenlive:original.meta.media.sample_aspect_den">1</property>
  <property name="kdenlive:original.aspect_ratio">1</property>
  <property name="kdenlive:original.audio_index">-1</property>
  <property name="kdenlive:original.video_index">0</property>
  <property name="kdenlive:original.mute_on_pause">0</property>
  <property name="kdenlive:original.mlt_service">avformat-novalidate</property>
  <property name="kdenlive:original.kdenlive:folderid">138</property>
  <property name="kdenlive:original.meta.media.frame_rate_num">24</property>
  <property name="kdenlive:original.meta.media.frame_rate_den">1</property>
  <property name="kdenlive:original.meta.media.colorspace">709</property>
  <property name="kdenlive:original.meta.media.color_trc">1</property>
  <property name="kdenlive:original.meta.media.width">1920</property>
  <property name="kdenlive:original.meta.media.height">1080</property>
  <property name="kdenlive:original.meta.media.color_range">mpeg</property>
  <property name="kdenlive:original.kdenlive:id">140</property>
  <property name="kdenlive:original.kdenlive:file_size">86403147</property>
  <property name="kdenlive:original.kdenlive:file_hash">2fac55c6e73921c8f546abcd3bc52709</property>
  <property name="kdenlive:original.backup">1</property>
  <property name="global_feed">1</property>
  <property name="xml">was here</property>
  <property name="meta.media.nb_streams">1</property>
  <property name="meta.media.0.stream.type">video</property>
  <property name="meta.media.0.stream.frame_rate">24</property>
  <property name="meta.media.0.stream.sample_aspect_ratio">1</property>
  <property name="meta.media.0.codec.width">640</property>
  <property name="meta.media.0.codec.height">360</property>
  <property name="meta.media.0.codec.rotate">0</property>
  <property name="meta.media.0.codec.frame_rate">1000</property>
  <property name="meta.media.0.codec.pix_fmt">yuvj420p</property>
  <property name="meta.media.0.codec.sample_aspect_ratio">1</property>
  <property name="meta.media.0.codec.colorspace">601</property>
  <property name="meta.media.0.codec.color_trc">1</property>
  <property name="meta.media.0.codec.name">mjpeg</property>
  <property name="meta.media.0.codec.long_name">MJPEG (Motion JPEG)</property>
  <property name="meta.media.0.codec.bit_rate">0</property>
  <property name="meta.attr.0.stream.HANDLER_NAME.markup">VideoHandler</property>
  <property name="meta.attr.0.stream.VENDOR_ID.markup">[0][0][0][0]</property>
  <property name="meta.attr.0.stream.TIMECODE.markup">08:40:44:15</property>
  <property name="meta.attr.0.stream.ENCODER.markup">Lavc58.134.100 mjpeg</property>
  <property name="meta.attr.0.stream.DURATION.markup">00:00:18.167000000</property>
  <property name="meta.attr.COMPATIBLE_BRANDS.markup">isomiso2avc1mp41</property>
  <property name="meta.attr.MAJOR_BRAND.markup">isom</property>
  <property name="meta.attr.MINOR_VERSION.markup">512</property>
  <property name="meta.attr.ENCODER.markup">Lavf58.76.100</property>
  <property name="meta.media.sample_aspect_num">1</property>
  <property name="meta.media.sample_aspect_den">1</property>
  <property name="meta.media.frame_rate_num">24</property>
  <property name="meta.media.frame_rate_den">1</property>
  <property name="meta.media.colorspace">601</property>
  <property name="meta.media.color_trc">1</property>
  <property name="meta.media.width">640</property>
  <property name="meta.media.height">360</property>
  <property name="meta.media.color_range">full</property>
  <property name="meta.media.top_field_first">0</property>
  <property name="meta.media.progressive">1</property>
  <property name="set.test_audio">1</property>
  <property name="set.test_image">0</property>
 </producer>
 <producer id="producer91" in="00:00:00.000" out="00:07:39.900">
  <property name="length">13798</property>
  <property name="eof">pause</property>
  <property name="resource">content/footage/Wheelsof1950_edit-cut-merged-1623166332367.mp4</property>
  <property name="audio_index">-1</property>
  <property name="video_index">0</property>
  <property name="mute_on_pause">0</property>
  <property name="mlt_service">avformat-novalidate</property>
  <property name="seekable">1</property>
  <property name="aspect_ratio">1</property>
  <property name="kdenlive:clipname"/>
  <property name="kdenlive:folderid">84</property>
  <property name="kdenlive:id">21</property>
  <property name="kdenlive:file_size">132221478</property>
  <property name="kdenlive:file_hash">0e0f79cb48cbe60acee6e0f93c95ac98</property>
  <property name="kdenlive:thumbnailFrame">115</property>
  <property name="kdenlive:zone_in">7182</property>
  <property name="kdenlive:zone_out">7478</property>
  <property name="kdenlive:clipzones">[
    {
        "in": 759,
        "name": "horse and plow",
        "out": 1011
    },
    {
        "in": 2040,
        "name": "tractor and plow",
        "out": 2333
    },
    {
        "in": 3551,
        "name": "tractors",
        "out": 3701
    },
    {
        "in": 4840,
        "name": "open pit mine",
        "out": 4989
    },
    {
        "in": 7182,
        "name": "open pit mine 2",
        "out": 7478
    }
]
</property>
  <property name="global_feed">1</property>
  <property name="xml">was here</property>
  <property name="meta.media.nb_streams">1</property>
  <property name="meta.media.0.stream.type">video</property>
  <property name="meta.media.0.stream.frame_rate">29.9699</property>
  <property name="meta.media.0.stream.sample_aspect_ratio">1</property>
  <property name="meta.media.0.codec.width">320</property>
  <property name="meta.media.0.codec.height">240</property>
  <property name="meta.media.0.codec.rotate">0</property>
  <property name="meta.media.0.codec.frame_rate">2997</property>
  <property name="meta.media.0.codec.pix_fmt">yuv420p</property>
  <property name="meta.media.0.codec.sample_aspect_ratio">1</property>
  <property name="meta.media.0.codec.colorspace">601</property>
  <property name="meta.media.0.codec.name">mpeg4</property>
  <property name="meta.media.0.codec.long_name">MPEG-4 part 2</property>
  <property name="meta.media.0.codec.bit_rate">2298771</property>
  <property name="meta.attr.0.stream.language.markup">eng</property>
  <property name="meta.attr.0.stream.handler_name.markup">VideoHandler</property>
  <property name="meta.attr.0.stream.vendor_id.markup">[0][0][0][0]</property>
  <property name="meta.attr.major_brand.markup">isom</property>
  <property name="meta.attr.minor_version.markup">512</property>
  <property name="meta.attr.compatible_brands.markup">isomiso2mp41</property>
  <property name="meta.attr.encoder.markup">Lavf58.45.100</property>
  <property name="meta.media.sample_aspect_num">1</property>
  <property name="meta.media.sample_aspect_den">1</property>
  <property name="meta.media.frame_rate_num">68920000</property>
  <property name="meta.media.frame_rate_den">2299639</property>
  <property name="meta.media.colorspace">601</property>
  <property name="meta.media.color_trc">2</property>
  <property name="meta.media.width">320</property>
  <property name="meta.media.height">240</property>
  <property name="meta.media.color_range">mpeg</property>
  <property name="meta.media.top_field_first">0</property>
  <property name="meta.media.progressive">1</property>
  <property name="set.test_audio">1</property>
  <property name="set.test_image">0</property>
 </producer>
 <producer id="producer92" in="00:00:00.000" out="00:00:51.833">
  <property name="length">1556</property>
  <property name="eof">pause</property>
  <property name="resource">content/footage/FroggerHighway.mp4</property>
  <property name="audio_index">1</property>
  <property name="video_index">0</property>
  <property name="mute_on_pause">0</property>
  <property name="mlt_service">avformat-novalidate</property>
  <property name="seekable">1</property>
  <property name="aspect_ratio">1</property>
  <property name="kdenlive:clipname">FroggerHighway.mp4</property>
  <property name="kdenlive:folderid">84</property>
  <property name="kdenlive:id">4</property>
  <property name="kdenlive:file_size">287798706</property>
  <property name="kdenlive:file_hash">0bb82dae4964b034f7725bef8ca5cacc</property>
  <property name="kdenlive:audio_max">1</property>
  <property name="kdenlive:active_streams">-1</property>
  <property name="global_feed">1</property>
  <property name="kdenlive:proxy">-</property>
  <property name="kdenlive:originalurl">content/footage/FroggerHighway.mp4</property>
  <property name="xml">was here</property>
  <property name="meta.media.nb_streams">2</property>
  <property name="meta.media.0.stream.type">video</property>
  <property name="meta.media.0.stream.frame_rate">24</property>
  <property name="meta.media.0.stream.sample_aspect_ratio">0</property>
  <property name="meta.media.0.codec.width">1920</property>
  <property name="meta.media.0.codec.height">1080</property>
  <property name="meta.media.0.codec.rotate">0</property>
  <property name="meta.media.0.codec.frame_rate">24</property>
  <property name="meta.media.0.codec.pix_fmt">yuv420p</property>
  <property name="meta.media.0.codec.sample_aspect_ratio">1</property>
  <property name="meta.media.0.codec.colorspace">709</property>
  <property name="meta.media.0.codec.name">h264</property>
  <property name="meta.media.0.codec.long_name">H.264 / AVC / MPEG-4 AVC / MPEG-4 part 10</property>
  <property name="meta.media.0.codec.bit_rate">44255861</property>
  <property name="meta.attr.0.stream.creation_time.markup">2012-01-24T12:09:19.000000Z</property>
  <property name="meta.attr.0.stream.language.markup">eng</property>
  <property name="meta.attr.0.stream.handler_name.markup">Mainconcept MP4 Video Media Handler</property>
  <property name="meta.attr.0.stream.vendor_id.markup">[0][0][0][0]</property>
  <property name="meta.attr.0.stream.encoder.markup">AVC Coding</property>
  <property name="meta.media.1.stream.type">audio</property>
  <property name="meta.media.1.codec.sample_fmt">fltp</property>
  <property name="meta.media.1.codec.sample_rate">48000</property>
  <property name="meta.media.1.codec.channels">2</property>
  <property name="meta.media.1.codec.name">aac</property>
  <property name="meta.media.1.codec.long_name">AAC (Advanced Audio Coding)</property>
  <property name="meta.media.1.codec.bit_rate">157375</property>
  <property name="meta.attr.1.stream.creation_time.markup">2012-01-24T12:09:19.000000Z</property>
  <property name="meta.attr.1.stream.language.markup">eng</property>
  <property name="meta.attr.1.stream.handler_name.markup">Mainconcept MP4 Sound Media Handler</property>
  <property name="meta.attr.1.stream.vendor_id.markup">[0][0][0][0]</property>
  <property name="meta.attr.major_brand.markup">mp42</property>
  <property name="meta.attr.minor_version.markup">0</property>
  <property name="meta.attr.compatible_brands.markup">mp42mp41</property>
  <property name="meta.attr.creation_time.markup">2012-01-24T12:09:19.000000Z</property>
  <property name="meta.media.sample_aspect_num">1</property>
  <property name="meta.media.sample_aspect_den">1</property>
  <property name="meta.media.frame_rate_num">24</property>
  <property name="meta.media.frame_rate_den">1</property>
  <property name="meta.media.colorspace">709</property>
  <property name="meta.media.color_trc">2</property>
  <property name="meta.media.width">1920</property>
  <property name="meta.media.height">1080</property>
  <property name="meta.media.color_range">mpeg</property>
  <property name="meta.media.top_field_first">0</property>
  <property name="meta.media.progressive">1</property>
  <property name="set.test_audio">1</property>
  <property name="set.test_image">0</property>
 </producer>
 <producer id="producer93" in="00:00:00.000" out="00:06:01.700">
  <property name="length">10852</property>
  <property name="eof">pause</property>
  <property name="resource">1.4:content/footage/Air Pollution HD Stock Video _ Free stock footage _ Free HD Videos - No Copyright _ Channel PMI-lq4ivmk9llM.mkv</property>
  <property name="aspect_ratio">1</property>
  <property name="meta.media.nb_streams">2</property>
  <property name="meta.media.0.stream.type">video</property>
  <property name="meta.media.0.stream.frame_rate">29.939</property>
  <property name="meta.media.0.stream.sample_aspect_ratio">1</property>
  <property name="meta.media.0.codec.width">640</property>
  <property name="meta.media.0.codec.height">360</property>
  <property name="meta.media.0.codec.rotate">0</property>
  <property name="meta.media.0.codec.frame_rate">1000</property>
  <property name="meta.media.0.codec.pix_fmt">yuvj420p</property>
  <property name="meta.media.0.codec.sample_aspect_ratio">1</property>
  <property name="meta.media.0.codec.colorspace">601</property>
  <property name="meta.media.0.codec.color_trc">1</property>
  <property name="meta.media.0.codec.name">mjpeg</property>
  <property name="meta.media.0.codec.long_name">MJPEG (Motion JPEG)</property>
  <property name="meta.media.0.codec.bit_rate">0</property>
  <property name="meta.attr.0.stream.language.markup">eng</property>
  <property name="meta.attr.0.stream.DURATION.markup">00:08:26.363000000</property>
  <property name="meta.media.1.stream.type">audio</property>
  <property name="meta.media.1.codec.sample_fmt">s16</property>
  <property name="meta.media.1.codec.sample_rate">44100</property>
  <property name="meta.media.1.codec.channels">2</property>
  <property name="meta.media.1.codec.name">pcm_s16le</property>
  <property name="meta.media.1.codec.long_name">PCM signed 16-bit little-endian</property>
  <property name="meta.media.1.codec.bit_rate">1411200</property>
  <property name="meta.attr.1.stream.HANDLER_NAME.markup">ISO Media file produced by Google Inc.</property>
  <property name="meta.attr.1.stream.DURATION.markup">00:08:26.427000000</property>
  <property name="meta.attr.ENCODER.markup">Lavf58.76.100</property>
  <property name="seekable">1</property>
  <property name="meta.media.sample_aspect_num">1</property>
  <property name="meta.media.sample_aspect_den">1</property>
  <property name="audio_index">1</property>
  <property name="video_index">0</property>
  <property name="mute_on_pause">1</property>
  <property name="warp_speed">1.4</property>
  <property name="warp_resource">content/footage/Air Pollution HD Stock Video _ Free stock footage _ Free HD Videos - No Copyright _ Channel PMI-lq4ivmk9llM.mkv</property>
  <property name="mlt_service">timewarp</property>
  <property name="meta.attr.0.stream.ENCODER.markup">Lavc58.134.100 mjpeg</property>
  <property name="meta.attr.1.stream.ENCODER.markup">Lavc58.134.100 pcm_s16le</property>
  <property name="kdenlive:proxy">-</property>
  <property name="kdenlive:originalurl">content/footage/Air Pollution HD Stock Video _ Free stock footage _ Free HD Videos - No Copyright _ Channel PMI-lq4ivmk9llM.mkv</property>
  <property name="set.test_audio">1</property>
  <property name="set.test_image">0</property>
  <property name="kdenlive:id">7</property>
  <property name="warp_pitch">0</property>
  <property name="meta.media.frame_rate_num">29939</property>
  <property name="meta.media.frame_rate_den">1000</property>
  <property name="meta.media.colorspace">601</property>
  <property name="meta.media.color_trc">1</property>
  <property name="meta.media.width">640</property>
  <property name="meta.media.height">360</property>
  <property name="meta.media.color_range">full</property>
  <property name="meta.media.top_field_first">0</property>
  <property name="meta.media.progressive">1</property>
 </producer>
 <producer id="producer94" in="00:00:00.000" out="00:04:13.167">
  <property name="length">7597</property>
  <property name="eof">pause</property>
  <property name="resource">2:content/footage/Air Pollution HD Stock Video _ Free stock footage _ Free HD Videos - No Copyright _ Channel PMI-lq4ivmk9llM.mkv</property>
  <property name="aspect_ratio">1</property>
  <property name="meta.media.nb_streams">2</property>
  <property name="meta.media.0.stream.type">video</property>
  <property name="meta.media.0.stream.frame_rate">29.939</property>
  <property name="meta.media.0.stream.sample_aspect_ratio">1</property>
  <property name="meta.media.0.codec.width">640</property>
  <property name="meta.media.0.codec.height">360</property>
  <property name="meta.media.0.codec.rotate">0</property>
  <property name="meta.media.0.codec.frame_rate">1000</property>
  <property name="meta.media.0.codec.pix_fmt">yuvj420p</property>
  <property name="meta.media.0.codec.sample_aspect_ratio">1</property>
  <property name="meta.media.0.codec.colorspace">601</property>
  <property name="meta.media.0.codec.color_trc">1</property>
  <property name="meta.media.0.codec.name">mjpeg</property>
  <property name="meta.media.0.codec.long_name">MJPEG (Motion JPEG)</property>
  <property name="meta.media.0.codec.bit_rate">0</property>
  <property name="meta.attr.0.stream.language.markup">eng</property>
  <property name="meta.attr.0.stream.DURATION.markup">00:08:26.363000000</property>
  <property name="meta.media.1.stream.type">audio</property>
  <property name="meta.media.1.codec.sample_fmt">s16</property>
  <property name="meta.media.1.codec.sample_rate">44100</property>
  <property name="meta.media.1.codec.channels">2</property>
  <property name="meta.media.1.codec.name">pcm_s16le</property>
  <property name="meta.media.1.codec.long_name">PCM signed 16-bit little-endian</property>
  <property name="meta.media.1.codec.bit_rate">1411200</property>
  <property name="meta.attr.1.stream.HANDLER_NAME.markup">ISO Media file produced by Google Inc.</property>
  <property name="meta.attr.1.stream.DURATION.markup">00:08:26.427000000</property>
  <property name="meta.attr.ENCODER.markup">Lavf58.76.100</property>
  <property name="seekable">1</property>
  <property name="meta.media.sample_aspect_num">1</property>
  <property name="meta.media.sample_aspect_den">1</property>
  <property name="audio_index">1</property>
  <property name="video_index">0</property>
  <property name="mute_on_pause">1</property>
  <property name="warp_speed">2</property>
  <property name="warp_resource">content/footage/Air Pollution HD Stock Video _ Free stock footage _ Free HD Videos - No Copyright _ Channel PMI-lq4ivmk9llM.mkv</property>
  <property name="mlt_service">timewarp</property>
  <property name="meta.attr.0.stream.ENCODER.markup">Lavc58.134.100 mjpeg</property>
  <property name="meta.attr.1.stream.ENCODER.markup">Lavc58.134.100 pcm_s16le</property>
  <property name="kdenlive:proxy">-</property>
  <property name="kdenlive:originalurl">content/footage/Air Pollution HD Stock Video _ Free stock footage _ Free HD Videos - No Copyright _ Channel PMI-lq4ivmk9llM.mkv</property>
  <property name="set.test_audio">1</property>
  <property name="set.test_image">0</property>
  <property name="kdenlive:id">7</property>
  <property name="warp_pitch">0</property>
  <property name="meta.media.frame_rate_num">29939</property>
  <property name="meta.media.frame_rate_den">1000</property>
  <property name="meta.media.colorspace">601</property>
  <property name="meta.media.color_trc">1</property>
  <property name="meta.media.width">640</property>
  <property name="meta.media.height">360</property>
  <property name="meta.media.color_range">full</property>
  <property name="meta.media.top_field_first">0</property>
  <property name="meta.media.progressive">1</property>
 </producer>
 <producer id="producer95" in="00:00:00.000" out="00:03:22.533">
  <property name="length">6077</property>
  <property name="eof">pause</property>
  <property name="resource">2.5:content/footage/Air Pollution HD Stock Video _ Free stock footage _ Free HD Videos - No Copyright _ Channel PMI-lq4ivmk9llM.mkv</property>
  <property name="aspect_ratio">1</property>
  <property name="meta.media.nb_streams">2</property>
  <property name="meta.media.0.stream.type">video</property>
  <property name="meta.media.0.stream.frame_rate">29.939</property>
  <property name="meta.media.0.stream.sample_aspect_ratio">1</property>
  <property name="meta.media.0.codec.width">640</property>
  <property name="meta.media.0.codec.height">360</property>
  <property name="meta.media.0.codec.rotate">0</property>
  <property name="meta.media.0.codec.frame_rate">1000</property>
  <property name="meta.media.0.codec.pix_fmt">yuvj420p</property>
  <property name="meta.media.0.codec.sample_aspect_ratio">1</property>
  <property name="meta.media.0.codec.colorspace">601</property>
  <property name="meta.media.0.codec.color_trc">1</property>
  <property name="meta.media.0.codec.name">mjpeg</property>
  <property name="meta.media.0.codec.long_name">MJPEG (Motion JPEG)</property>
  <property name="meta.media.0.codec.bit_rate">0</property>
  <property name="meta.attr.0.stream.language.markup">eng</property>
  <property name="meta.attr.0.stream.DURATION.markup">00:08:26.363000000</property>
  <property name="meta.media.1.stream.type">audio</property>
  <property name="meta.media.1.codec.sample_fmt">s16</property>
  <property name="meta.media.1.codec.sample_rate">44100</property>
  <property name="meta.media.1.codec.channels">2</property>
  <property name="meta.media.1.codec.name">pcm_s16le</property>
  <property name="meta.media.1.codec.long_name">PCM signed 16-bit little-endian</property>
  <property name="meta.media.1.codec.bit_rate">1411200</property>
  <property name="meta.attr.1.stream.HANDLER_NAME.markup">ISO Media file produced by Google Inc.</property>
  <property name="meta.attr.1.stream.DURATION.markup">00:08:26.427000000</property>
  <property name="meta.attr.ENCODER.markup">Lavf58.76.100</property>
  <property name="seekable">1</property>
  <property name="meta.media.sample_aspect_num">1</property>
  <property name="meta.media.sample_aspect_den">1</property>
  <property name="audio_index">1</property>
  <property name="video_index">0</property>
  <property name="mute_on_pause">1</property>
  <property name="warp_speed">2.5</property>
  <property name="warp_resource">content/footage/Air Pollution HD Stock Video _ Free stock footage _ Free HD Videos - No Copyright _ Channel PMI-lq4ivmk9llM.mkv</property>
  <property name="mlt_service">timewarp</property>
  <property name="meta.attr.0.stream.ENCODER.markup">Lavc58.134.100 mjpeg</property>
  <property name="meta.attr.1.stream.ENCODER.markup">Lavc58.134.100 pcm_s16le</property>
  <property name="kdenlive:proxy">-</property>
  <property name="kdenlive:originalurl">content/footage/Air Pollution HD Stock Video _ Free stock footage _ Free HD Videos - No Copyright _ Channel PMI-lq4ivmk9llM.mkv</property>
  <property name="set.test_audio">1</property>
  <property name="set.test_image">0</property>
  <property name="kdenlive:id">7</property>
  <property name="warp_pitch">0</property>
  <property name="meta.media.frame_rate_num">29939</property>
  <property name="meta.media.frame_rate_den">1000</property>
  <property name="meta.media.colorspace">601</property>
  <property name="meta.media.color_trc">1</property>
  <property name="meta.media.width">640</property>
  <property name="meta.media.height">360</property>
  <property name="meta.media.color_range">full</property>
  <property name="meta.media.top_field_first">0</property>
  <property name="meta.media.progressive">1</property>
 </producer>
 <producer id="producer96" in="00:00:00.000" out="00:02:48.767">
  <property name="length">5064</property>
  <property name="eof">pause</property>
  <property name="resource">3:content/footage/Air Pollution HD Stock Video _ Free stock footage _ Free HD Videos - No Copyright _ Channel PMI-lq4ivmk9llM.mkv</property>
  <property name="aspect_ratio">1</property>
  <property name="meta.media.nb_streams">2</property>
  <property name="meta.media.0.stream.type">video</property>
  <property name="meta.media.0.stream.frame_rate">29.939</property>
  <property name="meta.media.0.stream.sample_aspect_ratio">1</property>
  <property name="meta.media.0.codec.width">640</property>
  <property name="meta.media.0.codec.height">360</property>
  <property name="meta.media.0.codec.rotate">0</property>
  <property name="meta.media.0.codec.frame_rate">1000</property>
  <property name="meta.media.0.codec.pix_fmt">yuvj420p</property>
  <property name="meta.media.0.codec.sample_aspect_ratio">1</property>
  <property name="meta.media.0.codec.colorspace">601</property>
  <property name="meta.media.0.codec.color_trc">1</property>
  <property name="meta.media.0.codec.name">mjpeg</property>
  <property name="meta.media.0.codec.long_name">MJPEG (Motion JPEG)</property>
  <property name="meta.media.0.codec.bit_rate">0</property>
  <property name="meta.attr.0.stream.language.markup">eng</property>
  <property name="meta.attr.0.stream.DURATION.markup">00:08:26.363000000</property>
  <property name="meta.media.1.stream.type">audio</property>
  <property name="meta.media.1.codec.sample_fmt">s16</property>
  <property name="meta.media.1.codec.sample_rate">44100</property>
  <property name="meta.media.1.codec.channels">2</property>
  <property name="meta.media.1.codec.name">pcm_s16le</property>
  <property name="meta.media.1.codec.long_name">PCM signed 16-bit little-endian</property>
  <property name="meta.media.1.codec.bit_rate">1411200</property>
  <property name="meta.attr.1.stream.HANDLER_NAME.markup">ISO Media file produced by Google Inc.</property>
  <property name="meta.attr.1.stream.DURATION.markup">00:08:26.427000000</property>
  <property name="meta.attr.ENCODER.markup">Lavf58.76.100</property>
  <property name="seekable">1</property>
  <property name="meta.media.sample_aspect_num">1</property>
  <property name="meta.media.sample_aspect_den">1</property>
  <property name="audio_index">1</property>
  <property name="video_index">0</property>
  <property name="mute_on_pause">1</property>
  <property name="warp_speed">3</property>
  <property name="warp_resource">content/footage/Air Pollution HD Stock Video _ Free stock footage _ Free HD Videos - No Copyright _ Channel PMI-lq4ivmk9llM.mkv</property>
  <property name="mlt_service">timewarp</property>
  <property name="meta.attr.0.stream.ENCODER.markup">Lavc58.134.100 mjpeg</property>
  <property name="meta.attr.1.stream.ENCODER.markup">Lavc58.134.100 pcm_s16le</property>
  <property name="kdenlive:proxy">-</property>
  <property name="kdenlive:originalurl">content/footage/Air Pollution HD Stock Video _ Free stock footage _ Free HD Videos - No Copyright _ Channel PMI-lq4ivmk9llM.mkv</property>
  <property name="set.test_audio">1</property>
  <property name="set.test_image">0</property>
  <property name="kdenlive:id">7</property>
  <property name="warp_pitch">0</property>
  <property name="meta.media.frame_rate_num">29939</property>
  <property name="meta.media.frame_rate_den">1000</property>
  <property name="meta.media.colorspace">601</property>
  <property name="meta.media.color_trc">1</property>
  <property name="meta.media.width">640</property>
  <property name="meta.media.height">360</property>
  <property name="meta.media.color_range">full</property>
  <property name="meta.media.top_field_first">0</property>
  <property name="meta.media.progressive">1</property>
 </producer>
 <producer id="producer97" in="00:00:00.000" out="00:02:24.667">
  <property name="length">4341</property>
  <property name="eof">pause</property>
  <property name="resource">3.5:content/footage/Air Pollution HD Stock Video _ Free stock footage _ Free HD Videos - No Copyright _ Channel PMI-lq4ivmk9llM.mkv</property>
  <property name="aspect_ratio">1</property>
  <property name="meta.media.nb_streams">2</property>
  <property name="meta.media.0.stream.type">video</property>
  <property name="meta.media.0.stream.frame_rate">29.939</property>
  <property name="meta.media.0.stream.sample_aspect_ratio">1</property>
  <property name="meta.media.0.codec.width">640</property>
  <property name="meta.media.0.codec.height">360</property>
  <property name="meta.media.0.codec.rotate">0</property>
  <property name="meta.media.0.codec.frame_rate">1000</property>
  <property name="meta.media.0.codec.pix_fmt">yuvj420p</property>
  <property name="meta.media.0.codec.sample_aspect_ratio">1</property>
  <property name="meta.media.0.codec.colorspace">601</property>
  <property name="meta.media.0.codec.color_trc">1</property>
  <property name="meta.media.0.codec.name">mjpeg</property>
  <property name="meta.media.0.codec.long_name">MJPEG (Motion JPEG)</property>
  <property name="meta.media.0.codec.bit_rate">0</property>
  <property name="meta.attr.0.stream.language.markup">eng</property>
  <property name="meta.attr.0.stream.DURATION.markup">00:08:26.363000000</property>
  <property name="meta.media.1.stream.type">audio</property>
  <property name="meta.media.1.codec.sample_fmt">s16</property>
  <property name="meta.media.1.codec.sample_rate">44100</property>
  <property name="meta.media.1.codec.channels">2</property>
  <property name="meta.media.1.codec.name">pcm_s16le</property>
  <property name="meta.media.1.codec.long_name">PCM signed 16-bit little-endian</property>
  <property name="meta.media.1.codec.bit_rate">1411200</property>
  <property name="meta.attr.1.stream.HANDLER_NAME.markup">ISO Media file produced by Google Inc.</property>
  <property name="meta.attr.1.stream.DURATION.markup">00:08:26.427000000</property>
  <property name="meta.attr.ENCODER.markup">Lavf58.76.100</property>
  <property name="seekable">1</property>
  <property name="meta.media.sample_aspect_num">1</property>
  <property name="meta.media.sample_aspect_den">1</property>
  <property name="audio_index">1</property>
  <property name="video_index">0</property>
  <property name="mute_on_pause">1</property>
  <property name="warp_speed">3.5</property>
  <property name="warp_resource">content/footage/Air Pollution HD Stock Video _ Free stock footage _ Free HD Videos - No Copyright _ Channel PMI-lq4ivmk9llM.mkv</property>
  <property name="mlt_service">timewarp</property>
  <property name="meta.attr.0.stream.ENCODER.markup">Lavc58.134.100 mjpeg</property>
  <property name="meta.attr.1.stream.ENCODER.markup">Lavc58.134.100 pcm_s16le</property>
  <property name="kdenlive:proxy">-</property>
  <property name="kdenlive:originalurl">content/footage/Air Pollution HD Stock Video _ Free stock footage _ Free HD Videos - No Copyright _ Channel PMI-lq4ivmk9llM.mkv</property>
  <property name="set.test_audio">1</property>
  <property name="set.test_image">0</property>
  <property name="kdenlive:id">7</property>
  <property name="warp_pitch">0</property>
  <property name="meta.media.frame_rate_num">29939</property>
  <property name="meta.media.frame_rate_den">1000</property>
  <property name="meta.media.colorspace">601</property>
  <property name="meta.media.color_trc">1</property>
  <property name="meta.media.width">640</property>
  <property name="meta.media.height">360</property>
  <property name="meta.media.color_range">full</property>
  <property name="meta.media.top_field_first">0</property>
  <property name="meta.media.progressive">1</property>
 </producer>
 <producer id="producer98" in="00:00:00.000" out="00:05:37.600">
  <property name="length">10129</property>
  <property name="eof">pause</property>
  <property name="resource">1.5:content/footage/Air Pollution HD Stock Video _ Free stock footage _ Free HD Videos - No Copyright _ Channel PMI-lq4ivmk9llM.mkv</property>
  <property name="aspect_ratio">1</property>
  <property name="meta.media.nb_streams">2</property>
  <property name="meta.media.0.stream.type">video</property>
  <property name="meta.media.0.stream.frame_rate">29.939</property>
  <property name="meta.media.0.stream.sample_aspect_ratio">1</property>
  <property name="meta.media.0.codec.width">640</property>
  <property name="meta.media.0.codec.height">360</property>
  <property name="meta.media.0.codec.rotate">0</property>
  <property name="meta.media.0.codec.frame_rate">1000</property>
  <property name="meta.media.0.codec.pix_fmt">yuvj420p</property>
  <property name="meta.media.0.codec.sample_aspect_ratio">1</property>
  <property name="meta.media.0.codec.colorspace">601</property>
  <property name="meta.media.0.codec.color_trc">1</property>
  <property name="meta.media.0.codec.name">mjpeg</property>
  <property name="meta.media.0.codec.long_name">MJPEG (Motion JPEG)</property>
  <property name="meta.media.0.codec.bit_rate">0</property>
  <property name="meta.attr.0.stream.language.markup">eng</property>
  <property name="meta.attr.0.stream.DURATION.markup">00:08:26.363000000</property>
  <property name="meta.media.1.stream.type">audio</property>
  <property name="meta.media.1.codec.sample_fmt">s16</property>
  <property name="meta.media.1.codec.sample_rate">44100</property>
  <property name="meta.media.1.codec.channels">2</property>
  <property name="meta.media.1.codec.name">pcm_s16le</property>
  <property name="meta.media.1.codec.long_name">PCM signed 16-bit little-endian</property>
  <property name="meta.media.1.codec.bit_rate">1411200</property>
  <property name="meta.attr.1.stream.HANDLER_NAME.markup">ISO Media file produced by Google Inc.</property>
  <property name="meta.attr.1.stream.DURATION.markup">00:08:26.427000000</property>
  <property name="meta.attr.ENCODER.markup">Lavf58.76.100</property>
  <property name="seekable">1</property>
  <property name="meta.media.sample_aspect_num">1</property>
  <property name="meta.media.sample_aspect_den">1</property>
  <property name="audio_index">1</property>
  <property name="video_index">0</property>
  <property name="mute_on_pause">1</property>
  <property name="warp_speed">1.5</property>
  <property name="warp_resource">content/footage/Air Pollution HD Stock Video _ Free stock footage _ Free HD Videos - No Copyright _ Channel PMI-lq4ivmk9llM.mkv</property>
  <property name="mlt_service">timewarp</property>
  <property name="meta.attr.0.stream.ENCODER.markup">Lavc58.134.100 mjpeg</property>
  <property name="meta.attr.1.stream.ENCODER.markup">Lavc58.134.100 pcm_s16le</property>
  <property name="kdenlive:proxy">-</property>
  <property name="kdenlive:originalurl">content/footage/Air Pollution HD Stock Video _ Free stock footage _ Free HD Videos - No Copyright _ Channel PMI-lq4ivmk9llM.mkv</property>
  <property name="set.test_audio">1</property>
  <property name="set.test_image">0</property>
  <property name="kdenlive:id">7</property>
  <property name="warp_pitch">0</property>
  <property name="meta.media.frame_rate_num">29939</property>
  <property name="meta.media.frame_rate_den">1000</property>
  <property name="meta.media.colorspace">601</property>
  <property name="meta.media.color_trc">1</property>
  <property name="meta.media.width">640</property>
  <property name="meta.media.height">360</property>
  <property name="meta.media.color_range">full</property>
  <property name="meta.media.top_field_first">0</property>
  <property name="meta.media.progressive">1</property>
 </producer>
 <producer id="producer99" in="00:00:00.000" out="00:03:22.533">
  <property name="length">6077</property>
  <property name="eof">pause</property>
  <property name="resource">2.5:content/footage/Air Pollution HD Stock Video _ Free stock footage _ Free HD Videos - No Copyright _ Channel PMI-lq4ivmk9llM.mkv</property>
  <property name="aspect_ratio">1</property>
  <property name="meta.media.nb_streams">2</property>
  <property name="meta.media.0.stream.type">video</property>
  <property name="meta.media.0.stream.frame_rate">29.939</property>
  <property name="meta.media.0.stream.sample_aspect_ratio">1</property>
  <property name="meta.media.0.codec.width">640</property>
  <property name="meta.media.0.codec.height">360</property>
  <property name="meta.media.0.codec.rotate">0</property>
  <property name="meta.media.0.codec.frame_rate">1000</property>
  <property name="meta.media.0.codec.pix_fmt">yuvj420p</property>
  <property name="meta.media.0.codec.sample_aspect_ratio">1</property>
  <property name="meta.media.0.codec.colorspace">601</property>
  <property name="meta.media.0.codec.color_trc">1</property>
  <property name="meta.media.0.codec.name">mjpeg</property>
  <property name="meta.media.0.codec.long_name">MJPEG (Motion JPEG)</property>
  <property name="meta.media.0.codec.bit_rate">0</property>
  <property name="meta.attr.0.stream.language.markup">eng</property>
  <property name="meta.attr.0.stream.DURATION.markup">00:08:26.363000000</property>
  <property name="meta.media.1.stream.type">audio</property>
  <property name="meta.media.1.codec.sample_fmt">s16</property>
  <property name="meta.media.1.codec.sample_rate">44100</property>
  <property name="meta.media.1.codec.channels">2</property>
  <property name="meta.media.1.codec.name">pcm_s16le</property>
  <property name="meta.media.1.codec.long_name">PCM signed 16-bit little-endian</property>
  <property name="meta.media.1.codec.bit_rate">1411200</property>
  <property name="meta.attr.1.stream.HANDLER_NAME.markup">ISO Media file produced by Google Inc.</property>
  <property name="meta.attr.1.stream.DURATION.markup">00:08:26.427000000</property>
  <property name="meta.attr.ENCODER.markup">Lavf58.76.100</property>
  <property name="seekable">1</property>
  <property name="meta.media.sample_aspect_num">1</property>
  <property name="meta.media.sample_aspect_den">1</property>
  <property name="audio_index">1</property>
  <property name="video_index">0</property>
  <property name="mute_on_pause">1</property>
  <property name="warp_speed">2.5</property>
  <property name="warp_resource">content/footage/Air Pollution HD Stock Video _ Free stock footage _ Free HD Videos - No Copyright _ Channel PMI-lq4ivmk9llM.mkv</property>
  <property name="mlt_service">timewarp</property>
  <property name="meta.attr.0.stream.ENCODER.markup">Lavc58.134.100 mjpeg</property>
  <property name="meta.attr.1.stream.ENCODER.markup">Lavc58.134.100 pcm_s16le</property>
  <property name="kdenlive:proxy">-</property>
  <property name="kdenlive:originalurl">content/footage/Air Pollution HD Stock Video _ Free stock footage _ Free HD Videos - No Copyright _ Channel PMI-lq4ivmk9llM.mkv</property>
  <property name="set.test_audio">1</property>
  <property name="set.test_image">0</property>
  <property name="kdenlive:id">7</property>
  <property name="warp_pitch">0</property>
  <property name="meta.media.frame_rate_num">29939</property>
  <property name="meta.media.frame_rate_den">1000</property>
  <property name="meta.media.colorspace">601</property>
  <property name="meta.media.color_trc">1</property>
  <property name="meta.media.width">640</property>
  <property name="meta.media.height">360</property>
  <property name="meta.media.color_range">full</property>
  <property name="meta.media.top_field_first">0</property>
  <property name="meta.media.progressive">1</property>
 </producer>
 <producer id="producer100" in="00:00:00.000" out="00:02:48.767">
  <property name="length">5064</property>
  <property name="eof">pause</property>
  <property name="resource">3:content/footage/Air Pollution HD Stock Video _ Free stock footage _ Free HD Videos - No Copyright _ Channel PMI-lq4ivmk9llM.mkv</property>
  <property name="aspect_ratio">1</property>
  <property name="meta.media.nb_streams">2</property>
  <property name="meta.media.0.stream.type">video</property>
  <property name="meta.media.0.stream.frame_rate">29.939</property>
  <property name="meta.media.0.stream.sample_aspect_ratio">1</property>
  <property name="meta.media.0.codec.width">640</property>
  <property name="meta.media.0.codec.height">360</property>
  <property name="meta.media.0.codec.rotate">0</property>
  <property name="meta.media.0.codec.frame_rate">1000</property>
  <property name="meta.media.0.codec.pix_fmt">yuvj420p</property>
  <property name="meta.media.0.codec.sample_aspect_ratio">1</property>
  <property name="meta.media.0.codec.colorspace">601</property>
  <property name="meta.media.0.codec.color_trc">1</property>
  <property name="meta.media.0.codec.name">mjpeg</property>
  <property name="meta.media.0.codec.long_name">MJPEG (Motion JPEG)</property>
  <property name="meta.media.0.codec.bit_rate">0</property>
  <property name="meta.attr.0.stream.language.markup">eng</property>
  <property name="meta.attr.0.stream.DURATION.markup">00:08:26.363000000</property>
  <property name="meta.media.1.stream.type">audio</property>
  <property name="meta.media.1.codec.sample_fmt">s16</property>
  <property name="meta.media.1.codec.sample_rate">44100</property>
  <property name="meta.media.1.codec.channels">2</property>
  <property name="meta.media.1.codec.name">pcm_s16le</property>
  <property name="meta.media.1.codec.long_name">PCM signed 16-bit little-endian</property>
  <property name="meta.media.1.codec.bit_rate">1411200</property>
  <property name="meta.attr.1.stream.HANDLER_NAME.markup">ISO Media file produced by Google Inc.</property>
  <property name="meta.attr.1.stream.DURATION.markup">00:08:26.427000000</property>
  <property name="meta.attr.ENCODER.markup">Lavf58.76.100</property>
  <property name="seekable">1</property>
  <property name="meta.media.sample_aspect_num">1</property>
  <property name="meta.media.sample_aspect_den">1</property>
  <property name="audio_index">1</property>
  <property name="video_index">0</property>
  <property name="mute_on_pause">1</property>
  <property name="warp_speed">3</property>
  <property name="warp_resource">content/footage/Air Pollution HD Stock Video _ Free stock footage _ Free HD Videos - No Copyright _ Channel PMI-lq4ivmk9llM.mkv</property>
  <property name="mlt_service">timewarp</property>
  <property name="meta.attr.0.stream.ENCODER.markup">Lavc58.134.100 mjpeg</property>
  <property name="meta.attr.1.stream.ENCODER.markup">Lavc58.134.100 pcm_s16le</property>
  <property name="kdenlive:proxy">-</property>
  <property name="kdenlive:originalurl">content/footage/Air Pollution HD Stock Video _ Free stock footage _ Free HD Videos - No Copyright _ Channel PMI-lq4ivmk9llM.mkv</property>
  <property name="set.test_audio">1</property>
  <property name="set.test_image">0</property>
  <property name="kdenlive:id">7</property>
  <property name="warp_pitch">0</property>
  <property name="meta.media.frame_rate_num">29939</property>
  <property name="meta.media.frame_rate_den">1000</property>
  <property name="meta.media.colorspace">601</property>
  <property name="meta.media.color_trc">1</property>
  <property name="meta.media.width">640</property>
  <property name="meta.media.height">360</property>
  <property name="meta.media.color_range">full</property>
  <property name="meta.media.top_field_first">0</property>
  <property name="meta.media.progressive">1</property>
 </producer>
 <producer id="producer101" in="00:00:00.000" out="00:02:06.567">
  <property name="length">3798</property>
  <property name="eof">pause</property>
  <property name="resource">4:content/footage/Air Pollution HD Stock Video _ Free stock footage _ Free HD Videos - No Copyright _ Channel PMI-lq4ivmk9llM.mkv</property>
  <property name="aspect_ratio">1</property>
  <property name="meta.media.nb_streams">2</property>
  <property name="meta.media.0.stream.type">video</property>
  <property name="meta.media.0.stream.frame_rate">29.939</property>
  <property name="meta.media.0.stream.sample_aspect_ratio">1</property>
  <property name="meta.media.0.codec.width">640</property>
  <property name="meta.media.0.codec.height">360</property>
  <property name="meta.media.0.codec.rotate">0</property>
  <property name="meta.media.0.codec.frame_rate">1000</property>
  <property name="meta.media.0.codec.pix_fmt">yuvj420p</property>
  <property name="meta.media.0.codec.sample_aspect_ratio">1</property>
  <property name="meta.media.0.codec.colorspace">601</property>
  <property name="meta.media.0.codec.color_trc">1</property>
  <property name="meta.media.0.codec.name">mjpeg</property>
  <property name="meta.media.0.codec.long_name">MJPEG (Motion JPEG)</property>
  <property name="meta.media.0.codec.bit_rate">0</property>
  <property name="meta.attr.0.stream.language.markup">eng</property>
  <property name="meta.attr.0.stream.DURATION.markup">00:08:26.363000000</property>
  <property name="meta.media.1.stream.type">audio</property>
  <property name="meta.media.1.codec.sample_fmt">s16</property>
  <property name="meta.media.1.codec.sample_rate">44100</property>
  <property name="meta.media.1.codec.channels">2</property>
  <property name="meta.media.1.codec.name">pcm_s16le</property>
  <property name="meta.media.1.codec.long_name">PCM signed 16-bit little-endian</property>
  <property name="meta.media.1.codec.bit_rate">1411200</property>
  <property name="meta.attr.1.stream.HANDLER_NAME.markup">ISO Media file produced by Google Inc.</property>
  <property name="meta.attr.1.stream.DURATION.markup">00:08:26.427000000</property>
  <property name="meta.attr.ENCODER.markup">Lavf58.76.100</property>
  <property name="seekable">1</property>
  <property name="meta.media.sample_aspect_num">1</property>
  <property name="meta.media.sample_aspect_den">1</property>
  <property name="audio_index">1</property>
  <property name="video_index">0</property>
  <property name="mute_on_pause">1</property>
  <property name="warp_speed">4</property>
  <property name="warp_resource">content/footage/Air Pollution HD Stock Video _ Free stock footage _ Free HD Videos - No Copyright _ Channel PMI-lq4ivmk9llM.mkv</property>
  <property name="mlt_service">timewarp</property>
  <property name="meta.attr.0.stream.ENCODER.markup">Lavc58.134.100 mjpeg</property>
  <property name="meta.attr.1.stream.ENCODER.markup">Lavc58.134.100 pcm_s16le</property>
  <property name="kdenlive:proxy">-</property>
  <property name="kdenlive:originalurl">content/footage/Air Pollution HD Stock Video _ Free stock footage _ Free HD Videos - No Copyright _ Channel PMI-lq4ivmk9llM.mkv</property>
  <property name="set.test_audio">1</property>
  <property name="set.test_image">0</property>
  <property name="kdenlive:id">7</property>
  <property name="warp_pitch">0</property>
  <property name="meta.media.frame_rate_num">29939</property>
  <property name="meta.media.frame_rate_den">1000</property>
  <property name="meta.media.colorspace">601</property>
  <property name="meta.media.color_trc">1</property>
  <property name="meta.media.width">640</property>
  <property name="meta.media.height">360</property>
  <property name="meta.media.color_range">full</property>
  <property name="meta.media.top_field_first">0</property>
  <property name="meta.media.progressive">1</property>
 </producer>
 <producer id="producer102" in="00:00:00.000" out="00:02:48.767">
  <property name="length">5064</property>
  <property name="eof">pause</property>
  <property name="resource">3:content/footage/Air Pollution HD Stock Video _ Free stock footage _ Free HD Videos - No Copyright _ Channel PMI-lq4ivmk9llM.mkv</property>
  <property name="aspect_ratio">1</property>
  <property name="meta.media.nb_streams">2</property>
  <property name="meta.media.0.stream.type">video</property>
  <property name="meta.media.0.stream.frame_rate">29.939</property>
  <property name="meta.media.0.stream.sample_aspect_ratio">1</property>
  <property name="meta.media.0.codec.width">640</property>
  <property name="meta.media.0.codec.height">360</property>
  <property name="meta.media.0.codec.rotate">0</property>
  <property name="meta.media.0.codec.frame_rate">1000</property>
  <property name="meta.media.0.codec.pix_fmt">yuvj420p</property>
  <property name="meta.media.0.codec.sample_aspect_ratio">1</property>
  <property name="meta.media.0.codec.colorspace">601</property>
  <property name="meta.media.0.codec.color_trc">1</property>
  <property name="meta.media.0.codec.name">mjpeg</property>
  <property name="meta.media.0.codec.long_name">MJPEG (Motion JPEG)</property>
  <property name="meta.media.0.codec.bit_rate">0</property>
  <property name="meta.attr.0.stream.language.markup">eng</property>
  <property name="meta.attr.0.stream.DURATION.markup">00:08:26.363000000</property>
  <property name="meta.media.1.stream.type">audio</property>
  <property name="meta.media.1.codec.sample_fmt">s16</property>
  <property name="meta.media.1.codec.sample_rate">44100</property>
  <property name="meta.media.1.codec.channels">2</property>
  <property name="meta.media.1.codec.name">pcm_s16le</property>
  <property name="meta.media.1.codec.long_name">PCM signed 16-bit little-endian</property>
  <property name="meta.media.1.codec.bit_rate">1411200</property>
  <property name="meta.attr.1.stream.HANDLER_NAME.markup">ISO Media file produced by Google Inc.</property>
  <property name="meta.attr.1.stream.DURATION.markup">00:08:26.427000000</property>
  <property name="meta.attr.ENCODER.markup">Lavf58.76.100</property>
  <property name="seekable">1</property>
  <property name="meta.media.sample_aspect_num">1</property>
  <property name="meta.media.sample_aspect_den">1</property>
  <property name="audio_index">1</property>
  <property name="video_index">0</property>
  <property name="mute_on_pause">1</property>
  <property name="warp_speed">3</property>
  <property name="warp_resource">content/footage/Air Pollution HD Stock Video _ Free stock footage _ Free HD Videos - No Copyright _ Channel PMI-lq4ivmk9llM.mkv</property>
  <property name="mlt_service">timewarp</property>
  <property name="meta.attr.0.stream.ENCODER.markup">Lavc58.134.100 mjpeg</property>
  <property name="meta.attr.1.stream.ENCODER.markup">Lavc58.134.100 pcm_s16le</property>
  <property name="kdenlive:proxy">-</property>
  <property name="kdenlive:originalurl">content/footage/Air Pollution HD Stock Video _ Free stock footage _ Free HD Videos - No Copyright _ Channel PMI-lq4ivmk9llM.mkv</property>
  <property name="set.test_audio">1</property>
  <property name="set.test_image">0</property>
  <property name="kdenlive:id">7</property>
  <property name="warp_pitch">0</property>
  <property name="meta.media.frame_rate_num">29939</property>
  <property name="meta.media.frame_rate_den">1000</property>
  <property name="meta.media.colorspace">601</property>
  <property name="meta.media.color_trc">1</property>
  <property name="meta.media.width">640</property>
  <property name="meta.media.height">360</property>
  <property name="meta.media.color_range">full</property>
  <property name="meta.media.top_field_first">0</property>
  <property name="meta.media.progressive">1</property>
 </producer>
 <producer id="producer103" in="00:00:00.000" out="00:04:13.167">
  <property name="length">7597</property>
  <property name="eof">pause</property>
  <property name="resource">2:content/footage/Air Pollution HD Stock Video _ Free stock footage _ Free HD Videos - No Copyright _ Channel PMI-lq4ivmk9llM.mkv</property>
  <property name="aspect_ratio">1</property>
  <property name="meta.media.nb_streams">2</property>
  <property name="meta.media.0.stream.type">video</property>
  <property name="meta.media.0.stream.frame_rate">29.939</property>
  <property name="meta.media.0.stream.sample_aspect_ratio">1</property>
  <property name="meta.media.0.codec.width">640</property>
  <property name="meta.media.0.codec.height">360</property>
  <property name="meta.media.0.codec.rotate">0</property>
  <property name="meta.media.0.codec.frame_rate">1000</property>
  <property name="meta.media.0.codec.pix_fmt">yuvj420p</property>
  <property name="meta.media.0.codec.sample_aspect_ratio">1</property>
  <property name="meta.media.0.codec.colorspace">601</property>
  <property name="meta.media.0.codec.color_trc">1</property>
  <property name="meta.media.0.codec.name">mjpeg</property>
  <property name="meta.media.0.codec.long_name">MJPEG (Motion JPEG)</property>
  <property name="meta.media.0.codec.bit_rate">0</property>
  <property name="meta.attr.0.stream.language.markup">eng</property>
  <property name="meta.attr.0.stream.DURATION.markup">00:08:26.363000000</property>
  <property name="meta.media.1.stream.type">audio</property>
  <property name="meta.media.1.codec.sample_fmt">s16</property>
  <property name="meta.media.1.codec.sample_rate">44100</property>
  <property name="meta.media.1.codec.channels">2</property>
  <property name="meta.media.1.codec.name">pcm_s16le</property>
  <property name="meta.media.1.codec.long_name">PCM signed 16-bit little-endian</property>
  <property name="meta.media.1.codec.bit_rate">1411200</property>
  <property name="meta.attr.1.stream.HANDLER_NAME.markup">ISO Media file produced by Google Inc.</property>
  <property name="meta.attr.1.stream.DURATION.markup">00:08:26.427000000</property>
  <property name="meta.attr.ENCODER.markup">Lavf58.76.100</property>
  <property name="seekable">1</property>
  <property name="meta.media.sample_aspect_num">1</property>
  <property name="meta.media.sample_aspect_den">1</property>
  <property name="audio_index">1</property>
  <property name="video_index">0</property>
  <property name="mute_on_pause">1</property>
  <property name="warp_speed">2</property>
  <property name="warp_resource">content/footage/Air Pollution HD Stock Video _ Free stock footage _ Free HD Videos - No Copyright _ Channel PMI-lq4ivmk9llM.mkv</property>
  <property name="mlt_service">timewarp</property>
  <property name="meta.attr.0.stream.ENCODER.markup">Lavc58.134.100 mjpeg</property>
  <property name="meta.attr.1.stream.ENCODER.markup">Lavc58.134.100 pcm_s16le</property>
  <property name="kdenlive:proxy">-</property>
  <property name="kdenlive:originalurl">content/footage/Air Pollution HD Stock Video _ Free stock footage _ Free HD Videos - No Copyright _ Channel PMI-lq4ivmk9llM.mkv</property>
  <property name="set.test_audio">1</property>
  <property name="set.test_image">0</property>
  <property name="kdenlive:id">7</property>
  <property name="warp_pitch">0</property>
  <property name="meta.media.frame_rate_num">29939</property>
  <property name="meta.media.frame_rate_den">1000</property>
  <property name="meta.media.colorspace">601</property>
  <property name="meta.media.color_trc">1</property>
  <property name="meta.media.width">640</property>
  <property name="meta.media.height">360</property>
  <property name="meta.media.color_range">full</property>
  <property name="meta.media.top_field_first">0</property>
  <property name="meta.media.progressive">1</property>
 </producer>
 <producer id="producer104" in="00:00:00.000" out="00:01:53.167">
  <property name="length">3397</property>
  <property name="eof">pause</property>
  <property name="resource">content/footage/Pollution Crime (English)-rIBEn5WsugE.mkv</property>
  <property name="audio_index">1</property>
  <property name="video_index">0</property>
  <property name="mute_on_pause">0</property>
  <property name="mlt_service">avformat-novalidate</property>
  <property name="seekable">1</property>
  <property name="aspect_ratio">1</property>
  <property name="kdenlive:clipname">Pollution Crime (English)-rIBEn5WsugE.mkv</property>
  <property name="kdenlive:folderid">84</property>
  <property name="kdenlive:id">5</property>
  <property name="kdenlive:file_size">62236476</property>
  <property name="kdenlive:file_hash">b0319ab52772360ca5e70bd1bc11c090</property>
  <property name="kdenlive:audio_max">1</property>
  <property name="kdenlive:active_streams">-1</property>
  <property name="kdenlive:zone_in">2843</property>
  <property name="kdenlive:zone_out">2936</property>
  <property name="kdenlive:clipzones">[
    {
        "in": 719,
        "name": "Zone 1",
        "out": 813
    },
    {
        "in": 991,
        "name": "Zone 2",
        "out": 1146
    },
    {
        "in": 2843,
        "name": "Zone 3",
        "out": 2936
    }
]
</property>
  <property name="global_feed">1</property>
  <property name="kdenlive:proxy">-</property>
  <property name="kdenlive:originalurl">content/footage/Pollution Crime (English)-rIBEn5WsugE.mkv</property>
  <property name="kdenlive:original.mlt_type">mlt_producer</property>
  <property name="kdenlive:original.in">00:00:00.000</property>
  <property name="kdenlive:original.out">00:01:53.200</property>
  <property name="kdenlive:original.length">3397</property>
  <property name="kdenlive:original.eof">pause</property>
  <property name="kdenlive:original.resource">/home/ryankelln/Documents/Projects/Active/Sound_Escapes/Dhaivat/footage/Pollution Crime (English)-rIBEn5WsugE.mkv</property>
  <property name="kdenlive:original.audio_index">1</property>
  <property name="kdenlive:original.video_index">0</property>
  <property name="kdenlive:original.mute_on_pause">0</property>
  <property name="kdenlive:original.mlt_service">avformat-novalidate</property>
  <property name="kdenlive:original.seekable">1</property>
  <property name="kdenlive:original.aspect_ratio">1</property>
  <property name="kdenlive:original.kdenlive:folderid">84</property>
  <property name="kdenlive:original.kdenlive:id">14</property>
  <property name="kdenlive:original.kdenlive:file_size">62236476</property>
  <property name="kdenlive:original.kdenlive:file_hash">b0319ab52772360ca5e70bd1bc11c090</property>
  <property name="kdenlive:original.kdenlive:audio_max">1</property>
  <property name="kdenlive:original.kdenlive:active_streams">-1</property>
  <property name="kdenlive:original.kdenlive:zone_in">2843</property>
  <property name="kdenlive:original.kdenlive:zone_out">2936</property>
  <property name="kdenlive:original.kdenlive:clipzones">[
    {
        "in": 719,
        "name": "Zone 1",
        "out": 813
    },
    {
        "in": 991,
        "name": "Zone 2",
        "out": 1146
    },
    {
        "in": 2843,
        "name": "Zone 3",
        "out": 2936
    }
]
</property>
  <property name="kdenlive:original.global_feed">1</property>
  <property name="kdenlive:original.meta.media.nb_streams">2</property>
  <property name="kdenlive:original.meta.media.0.stream.type">video</property>
  <property name="kdenlive:original.meta.media.0.stream.frame_rate">29.97</property>
  <property name="kdenlive:original.meta.media.0.stream.sample_aspect_ratio">1</property>
  <property name="kdenlive:original.meta.media.0.codec.width">1920</property>
  <property name="kdenlive:original.meta.media.0.codec.height">1080</property>
  <property name="kdenlive:original.meta.media.0.codec.rotate">0</property>
  <property name="kdenlive:original.meta.media.0.codec.frame_rate">29.97</property>
  <property name="kdenlive:original.meta.media.0.codec.pix_fmt">yuv420p</property>
  <property name="kdenlive:original.meta.media.0.codec.sample_aspect_ratio">1</property>
  <property name="kdenlive:original.meta.media.0.codec.colorspace">709</property>
  <property name="kdenlive:original.meta.media.0.codec.color_trc">1</property>
  <property name="kdenlive:original.meta.media.0.codec.name">h264</property>
  <property name="kdenlive:original.meta.media.0.codec.long_name">H.264 / AVC / MPEG-4 AVC / MPEG-4 part 10</property>
  <property name="kdenlive:original.meta.media.0.codec.bit_rate">0</property>
  <property name="kdenlive:original.meta.attr.0.stream.HANDLER_NAME.markup">ISO Media file produced by Google Inc.</property>
  <property name="kdenlive:original.meta.attr.0.stream.DURATION.markup">00:01:53.179000000</property>
  <property name="kdenlive:original.meta.media.1.stream.type">audio</property>
  <property name="kdenlive:original.meta.media.1.codec.sample_fmt">fltp</property>
  <property name="kdenlive:original.meta.media.1.codec.sample_rate">48000</property>
  <property name="kdenlive:original.meta.media.1.codec.channels">2</property>
  <property name="kdenlive:original.meta.media.1.codec.name">opus</property>
  <property name="kdenlive:original.meta.media.1.codec.long_name">Opus</property>
  <property name="kdenlive:original.meta.media.1.codec.bit_rate">0</property>
  <property name="kdenlive:original.meta.attr.1.stream.language.markup">eng</property>
  <property name="kdenlive:original.meta.attr.1.stream.DURATION.markup">00:01:53.221000000</property>
  <property name="kdenlive:original.meta.attr.COMPATIBLE_BRANDS.markup">iso6avc1mp41</property>
  <property name="kdenlive:original.meta.attr.MAJOR_BRAND.markup">dash</property>
  <property name="kdenlive:original.meta.attr.MINOR_VERSION.markup">0</property>
  <property name="kdenlive:original.meta.attr.ENCODER.markup">Lavf58.45.100</property>
  <property name="kdenlive:original.width">1920</property>
  <property name="kdenlive:original.height">1080</property>
  <property name="kdenlive:original.meta.media.sample_aspect_num">1</property>
  <property name="kdenlive:original.meta.media.sample_aspect_den">1</property>
  <property name="kdenlive:original.meta.media.frame_rate_num">30000</property>
  <property name="kdenlive:original.meta.media.frame_rate_den">1001</property>
  <property name="kdenlive:original.meta.media.colorspace">709</property>
  <property name="kdenlive:original.meta.media.color_trc">1</property>
  <property name="kdenlive:original.meta.media.width">1920</property>
  <property name="kdenlive:original.meta.media.height">1080</property>
  <property name="kdenlive:original.meta.media.color_range">mpeg</property>
  <property name="kdenlive:original.root">/</property>
  <property name="kdenlive:original.meta.media.top_field_first">0</property>
  <property name="kdenlive:original.meta.media.progressive">1</property>
  <property name="kdenlive:original.backup">1</property>
  <property name="xml">was here</property>
  <property name="meta.media.nb_streams">2</property>
  <property name="meta.media.0.stream.type">video</property>
  <property name="meta.media.0.stream.frame_rate">29.97</property>
  <property name="meta.media.0.stream.sample_aspect_ratio">1</property>
  <property name="meta.media.0.codec.width">640</property>
  <property name="meta.media.0.codec.height">360</property>
  <property name="meta.media.0.codec.rotate">0</property>
  <property name="meta.media.0.codec.frame_rate">1000</property>
  <property name="meta.media.0.codec.pix_fmt">yuvj420p</property>
  <property name="meta.media.0.codec.sample_aspect_ratio">1</property>
  <property name="meta.media.0.codec.colorspace">601</property>
  <property name="meta.media.0.codec.color_trc">1</property>
  <property name="meta.media.0.codec.name">mjpeg</property>
  <property name="meta.media.0.codec.long_name">MJPEG (Motion JPEG)</property>
  <property name="meta.media.0.codec.bit_rate">0</property>
  <property name="meta.attr.0.stream.HANDLER_NAME.markup">ISO Media file produced by Google Inc.</property>
  <property name="meta.attr.0.stream.ENCODER.markup">Lavc58.134.100 mjpeg</property>
  <property name="meta.attr.0.stream.DURATION.markup">00:01:53.179000000</property>
  <property name="meta.media.1.stream.type">audio</property>
  <property name="meta.media.1.codec.sample_fmt">s16</property>
  <property name="meta.media.1.codec.sample_rate">48000</property>
  <property name="meta.media.1.codec.channels">2</property>
  <property name="meta.media.1.codec.name">pcm_s16le</property>
  <property name="meta.media.1.codec.long_name">PCM signed 16-bit little-endian</property>
  <property name="meta.media.1.codec.bit_rate">1536000</property>
  <property name="meta.attr.1.stream.language.markup">eng</property>
  <property name="meta.attr.1.stream.ENCODER.markup">Lavc58.134.100 pcm_s16le</property>
  <property name="meta.attr.1.stream.DURATION.markup">00:01:53.216000000</property>
  <property name="meta.attr.MINOR_VERSION.markup">0</property>
  <property name="meta.attr.COMPATIBLE_BRANDS.markup">iso6avc1mp41</property>
  <property name="meta.attr.MAJOR_BRAND.markup">dash</property>
  <property name="meta.attr.ENCODER.markup">Lavf58.76.100</property>
  <property name="meta.media.sample_aspect_num">1</property>
  <property name="meta.media.sample_aspect_den">1</property>
  <property name="meta.media.frame_rate_num">30000</property>
  <property name="meta.media.frame_rate_den">1001</property>
  <property name="meta.media.colorspace">601</property>
  <property name="meta.media.color_trc">1</property>
  <property name="meta.media.width">640</property>
  <property name="meta.media.height">360</property>
  <property name="meta.media.color_range">full</property>
  <property name="meta.media.top_field_first">0</property>
  <property name="meta.media.progressive">1</property>
  <property name="set.test_audio">1</property>
  <property name="set.test_image">0</property>
 </producer>
 <producer id="producer105" in="00:00:00.000" out="00:02:00.667">
  <property name="length">3622</property>
  <property name="eof">pause</property>
  <property name="resource">content/footage/Water Pollution HD Stock Video _ Free stock footage _ Free HD Videos - No Copyright _ Channel PMI-T8wQ6y_AQGE.webm</property>
  <property name="audio_index">1</property>
  <property name="video_index">0</property>
  <property name="mute_on_pause">0</property>
  <property name="mlt_service">avformat-novalidate</property>
  <property name="seekable">1</property>
  <property name="aspect_ratio">1</property>
  <property name="kdenlive:clipname">Water Pollution HD Stock Video _ Free stock footage _ Free HD Videos - No Copyright _ Channel PMI-T8wQ6y_AQGE.webm</property>
  <property name="kdenlive:folderid">84</property>
  <property name="kdenlive:id">8</property>
  <property name="kdenlive:file_size">140629286</property>
  <property name="kdenlive:file_hash">c551e4017b4fcc35602ab945d913e16d</property>
  <property name="kdenlive:audio_max">1</property>
  <property name="kdenlive:active_streams">-1</property>
  <property name="kdenlive:zone_in">1471</property>
  <property name="kdenlive:zone_out">2042</property>
  <property name="kdenlive:clipzones">[
    {
        "in": 652,
        "name": "throwing",
        "out": 1078
    },
    {
        "in": 1132,
        "name": "orange",
        "out": 1456
    },
    {
        "in": 1471,
        "name": "sludge",
        "out": 2042
    }
]
</property>
  <property name="global_feed">1</property>
  <property name="kdenlive:proxy">-</property>
  <property name="kdenlive:originalurl">content/footage/Water Pollution HD Stock Video _ Free stock footage _ Free HD Videos - No Copyright _ Channel PMI-T8wQ6y_AQGE.webm</property>
  <property name="kdenlive:original.mlt_type">mlt_producer</property>
  <property name="kdenlive:original.in">00:00:00.000</property>
  <property name="kdenlive:original.out">00:02:00.700</property>
  <property name="kdenlive:original.length">3622</property>
  <property name="kdenlive:original.eof">pause</property>
  <property name="kdenlive:original.resource">/home/ryankelln/Documents/Projects/Active/Sound_Escapes/Dhaivat/footage/Water Pollution HD Stock Video _ Free stock footage _ Free HD Videos - No Copyright _ Channel PMI-T8wQ6y_AQGE.webm</property>
  <property name="kdenlive:original.audio_index">1</property>
  <property name="kdenlive:original.video_index">0</property>
  <property name="kdenlive:original.mute_on_pause">0</property>
  <property name="kdenlive:original.mlt_service">avformat-novalidate</property>
  <property name="kdenlive:original.id">producer14</property>
  <property name="kdenlive:original.meta.media.nb_streams">2</property>
  <property name="kdenlive:original.meta.media.0.stream.type">video</property>
  <property name="kdenlive:original.meta.media.0.stream.frame_rate">29.917</property>
  <property name="kdenlive:original.meta.media.0.stream.sample_aspect_ratio">1</property>
  <property name="kdenlive:original.meta.media.0.codec.width">3840</property>
  <property name="kdenlive:original.meta.media.0.codec.height">2160</property>
  <property name="kdenlive:original.meta.media.0.codec.rotate">0</property>
  <property name="kdenlive:original.meta.media.0.codec.frame_rate">1000</property>
  <property name="kdenlive:original.meta.media.0.codec.pix_fmt">yuv420p</property>
  <property name="kdenlive:original.meta.media.0.codec.sample_aspect_ratio">0</property>
  <property name="kdenlive:original.meta.media.0.codec.colorspace">709</property>
  <property name="kdenlive:original.meta.media.0.codec.color_trc">1</property>
  <property name="kdenlive:original.meta.media.0.codec.name">vp9</property>
  <property name="kdenlive:original.meta.media.0.codec.long_name">Google VP9</property>
  <property name="kdenlive:original.meta.media.0.codec.bit_rate">0</property>
  <property name="kdenlive:original.meta.attr.0.stream.language.markup">eng</property>
  <property name="kdenlive:original.meta.attr.0.stream.DURATION.markup">00:02:00.700000000</property>
  <property name="kdenlive:original.meta.media.1.stream.type">audio</property>
  <property name="kdenlive:original.meta.media.1.codec.sample_fmt">fltp</property>
  <property name="kdenlive:original.meta.media.1.codec.sample_rate">48000</property>
  <property name="kdenlive:original.meta.media.1.codec.channels">2</property>
  <property name="kdenlive:original.meta.media.1.codec.name">opus</property>
  <property name="kdenlive:original.meta.media.1.codec.long_name">Opus</property>
  <property name="kdenlive:original.meta.media.1.codec.bit_rate">0</property>
  <property name="kdenlive:original.meta.attr.1.stream.language.markup">eng</property>
  <property name="kdenlive:original.meta.attr.1.stream.DURATION.markup">00:02:00.721000000</property>
  <property name="kdenlive:original.meta.attr.ENCODER.markup">Lavf58.45.100</property>
  <property name="kdenlive:original.seekable">1</property>
  <property name="kdenlive:original.meta.media.sample_aspect_num">1</property>
  <property name="kdenlive:original.meta.media.sample_aspect_den">1</property>
  <property name="kdenlive:original.aspect_ratio">1</property>
  <property name="kdenlive:original.kdenlive:folderid">63</property>
  <property name="kdenlive:original.meta.media.frame_rate_num">29917</property>
  <property name="kdenlive:original.meta.media.frame_rate_den">1000</property>
  <property name="kdenlive:original.meta.media.colorspace">709</property>
  <property name="kdenlive:original.meta.media.color_trc">1</property>
  <property name="kdenlive:original.meta.media.width">3840</property>
  <property name="kdenlive:original.meta.media.height">2160</property>
  <property name="kdenlive:original.meta.media.color_range">mpeg</property>
  <property name="kdenlive:original.kdenlive:id">17</property>
  <property name="kdenlive:original.kdenlive:file_size">140629286</property>
  <property name="kdenlive:original.kdenlive:file_hash">c551e4017b4fcc35602ab945d913e16d</property>
  <property name="kdenlive:original.kdenlive:audio_max">1</property>
  <property name="kdenlive:original.meta.media.top_field_first">0</property>
  <property name="kdenlive:original.meta.media.progressive">1</property>
  <property name="kdenlive:original.kdenlive:active_streams">-1</property>
  <property name="kdenlive:original.kdenlive:zone_in">652</property>
  <property name="kdenlive:original.kdenlive:zone_out">1078</property>
  <property name="kdenlive:original.kdenlive:clipzones">[
    {
        "in": 652,
        "name": "Zone 1",
        "out": 1078
    }
]
</property>
  <property name="kdenlive:original.global_feed">1</property>
  <property name="kdenlive:original.width">3840</property>
  <property name="kdenlive:original.height">2160</property>
  <property name="kdenlive:original.root">/</property>
  <property name="kdenlive:original.backup">1</property>
  <property name="xml">was here</property>
  <property name="meta.media.nb_streams">2</property>
  <property name="meta.media.0.stream.type">video</property>
  <property name="meta.media.0.stream.frame_rate">29.917</property>
  <property name="meta.media.0.stream.sample_aspect_ratio">1</property>
  <property name="meta.media.0.codec.width">640</property>
  <property name="meta.media.0.codec.height">360</property>
  <property name="meta.media.0.codec.rotate">0</property>
  <property name="meta.media.0.codec.frame_rate">1000</property>
  <property name="meta.media.0.codec.pix_fmt">yuvj420p</property>
  <property name="meta.media.0.codec.sample_aspect_ratio">1</property>
  <property name="meta.media.0.codec.colorspace">601</property>
  <property name="meta.media.0.codec.color_trc">1</property>
  <property name="meta.media.0.codec.name">mjpeg</property>
  <property name="meta.media.0.codec.long_name">MJPEG (Motion JPEG)</property>
  <property name="meta.media.0.codec.bit_rate">0</property>
  <property name="meta.attr.0.stream.language.markup">eng</property>
  <property name="meta.attr.0.stream.ENCODER.markup">Lavc58.134.100 mjpeg</property>
  <property name="meta.attr.0.stream.DURATION.markup">00:02:00.700000000</property>
  <property name="meta.media.1.stream.type">audio</property>
  <property name="meta.media.1.codec.sample_fmt">s16</property>
  <property name="meta.media.1.codec.sample_rate">48000</property>
  <property name="meta.media.1.codec.channels">2</property>
  <property name="meta.media.1.codec.name">pcm_s16le</property>
  <property name="meta.media.1.codec.long_name">PCM signed 16-bit little-endian</property>
  <property name="meta.media.1.codec.bit_rate">1536000</property>
  <property name="meta.attr.1.stream.language.markup">eng</property>
  <property name="meta.attr.1.stream.ENCODER.markup">Lavc58.134.100 pcm_s16le</property>
  <property name="meta.attr.1.stream.DURATION.markup">00:02:00.716000000</property>
  <property name="meta.attr.ENCODER.markup">Lavf58.76.100</property>
  <property name="meta.media.sample_aspect_num">1</property>
  <property name="meta.media.sample_aspect_den">1</property>
  <property name="meta.media.frame_rate_num">29917</property>
  <property name="meta.media.frame_rate_den">1000</property>
  <property name="meta.media.colorspace">601</property>
  <property name="meta.media.color_trc">1</property>
  <property name="meta.media.width">640</property>
  <property name="meta.media.height">360</property>
  <property name="meta.media.color_range">full</property>
  <property name="meta.media.top_field_first">0</property>
  <property name="meta.media.progressive">1</property>
  <property name="set.test_audio">1</property>
  <property name="set.test_image">0</property>
 </producer>
 <producer id="producer106" in="00:00:00.000" out="00:08:19.067">
  <property name="length">14973</property>
  <property name="eof">pause</property>
  <property name="resource">content/footage/Rare Footage of 9_11 WTC Attack   Military videos-rHPZ0ue2chQ.mkv</property>
  <property name="audio_index">1</property>
  <property name="video_index">0</property>
  <property name="mute_on_pause">0</property>
  <property name="mlt_service">avformat-novalidate</property>
  <property name="seekable">1</property>
  <property name="aspect_ratio">1</property>
  <property name="kdenlive:clipname"/>
  <property name="kdenlive:folderid">84</property>
  <property name="kdenlive:id">6</property>
  <property name="kdenlive:file_size">979289726</property>
  <property name="kdenlive:file_hash">4b889bc63195f63c736a034b5ff14f3c</property>
  <property name="kdenlive:audio_max">1</property>
  <property name="kdenlive:active_streams">-1</property>
  <property name="kdenlive:zone_in">11136</property>
  <property name="kdenlive:zone_out">11426</property>
  <property name="kdenlive:clipzones">[
    {
        "in": 11136,
        "name": "Zone 1",
        "out": 11426
    }
]
</property>
  <property name="global_feed">1</property>
  <property name="kdenlive:proxy">-</property>
  <property name="kdenlive:originalurl">content/footage/Rare Footage of 9_11 WTC Attack   Military videos-rHPZ0ue2chQ.mkv</property>
  <property name="kdenlive:original.mlt_type">mlt_producer</property>
  <property name="kdenlive:original.in">00:00:00.000</property>
  <property name="kdenlive:original.out">00:08:19.067</property>
  <property name="kdenlive:original.length">14973</property>
  <property name="kdenlive:original.eof">pause</property>
  <property name="kdenlive:original.resource">/home/ryankelln/Documents/Projects/Active/Sound_Escapes/Dhaivat/footage/Rare Footage of 9_11 WTC Attack   Military videos-rHPZ0ue2chQ.mkv</property>
  <property name="kdenlive:original.audio_index">1</property>
  <property name="kdenlive:original.video_index">0</property>
  <property name="kdenlive:original.mute_on_pause">0</property>
  <property name="kdenlive:original.mlt_service">avformat-novalidate</property>
  <property name="kdenlive:original.id">producer13</property>
  <property name="kdenlive:original.meta.media.nb_streams">2</property>
  <property name="kdenlive:original.meta.media.0.stream.type">video</property>
  <property name="kdenlive:original.meta.media.0.stream.frame_rate">29.97</property>
  <property name="kdenlive:original.meta.media.0.stream.sample_aspect_ratio">1</property>
  <property name="kdenlive:original.meta.media.0.codec.width">3840</property>
  <property name="kdenlive:original.meta.media.0.codec.height">2160</property>
  <property name="kdenlive:original.meta.media.0.codec.rotate">0</property>
  <property name="kdenlive:original.meta.media.0.codec.frame_rate">1000</property>
  <property name="kdenlive:original.meta.media.0.codec.pix_fmt">yuv420p</property>
  <property name="kdenlive:original.meta.media.0.codec.sample_aspect_ratio">0</property>
  <property name="kdenlive:original.meta.media.0.codec.colorspace">709</property>
  <property name="kdenlive:original.meta.media.0.codec.color_trc">1</property>
  <property name="kdenlive:original.meta.media.0.codec.name">vp9</property>
  <property name="kdenlive:original.meta.media.0.codec.long_name">Google VP9</property>
  <property name="kdenlive:original.meta.media.0.codec.bit_rate">0</property>
  <property name="kdenlive:original.meta.attr.0.stream.language.markup">eng</property>
  <property name="kdenlive:original.meta.attr.0.stream.DURATION.markup">00:08:18.564000000</property>
  <property name="kdenlive:original.meta.media.1.stream.type">audio</property>
  <property name="kdenlive:original.meta.media.1.codec.sample_fmt">fltp</property>
  <property name="kdenlive:original.meta.media.1.codec.sample_rate">44100</property>
  <property name="kdenlive:original.meta.media.1.codec.channels">2</property>
  <property name="kdenlive:original.meta.media.1.codec.name">aac</property>
  <property name="kdenlive:original.meta.media.1.codec.long_name">AAC (Advanced Audio Coding)</property>
  <property name="kdenlive:original.meta.media.1.codec.bit_rate">0</property>
  <property name="kdenlive:original.meta.attr.1.stream.HANDLER_NAME.markup">ISO Media file produced by Google Inc. Created on: 03/16/2019.</property>
  <property name="kdenlive:original.meta.attr.1.stream.DURATION.markup">00:08:19.113000000</property>
  <property name="kdenlive:original.meta.attr.ENCODER.markup">Lavf58.45.100</property>
  <property name="kdenlive:original.seekable">1</property>
  <property name="kdenlive:original.meta.media.sample_aspect_num">1</property>
  <property name="kdenlive:original.meta.media.sample_aspect_den">1</property>
  <property name="kdenlive:original.aspect_ratio">1</property>
  <property name="kdenlive:original.kdenlive:folderid">63</property>
  <property name="kdenlive:original.meta.media.frame_rate_num">30000</property>
  <property name="kdenlive:original.meta.media.frame_rate_den">1001</property>
  <property name="kdenlive:original.meta.media.colorspace">709</property>
  <property name="kdenlive:original.meta.media.color_trc">1</property>
  <property name="kdenlive:original.meta.media.width">3840</property>
  <property name="kdenlive:original.meta.media.height">2160</property>
  <property name="kdenlive:original.meta.media.color_range">mpeg</property>
  <property name="kdenlive:original.kdenlive:id">15</property>
  <property name="kdenlive:original.kdenlive:file_size">979289726</property>
  <property name="kdenlive:original.kdenlive:file_hash">4b889bc63195f63c736a034b5ff14f3c</property>
  <property name="kdenlive:original.kdenlive:audio_max">1</property>
  <property name="kdenlive:original.meta.media.top_field_first">0</property>
  <property name="kdenlive:original.meta.media.progressive">1</property>
  <property name="kdenlive:original.kdenlive:active_streams">-1</property>
  <property name="kdenlive:original.kdenlive:zone_in">11136</property>
  <property name="kdenlive:original.kdenlive:zone_out">11426</property>
  <property name="kdenlive:original.kdenlive:clipzones">[
    {
        "in": 11136,
        "name": "Zone 1",
        "out": 11426
    }
]
</property>
  <property name="kdenlive:original.global_feed">1</property>
  <property name="kdenlive:original.width">3840</property>
  <property name="kdenlive:original.height">2160</property>
  <property name="kdenlive:original.root">/</property>
  <property name="kdenlive:original.backup">1</property>
  <property name="xml">was here</property>
  <property name="meta.media.nb_streams">2</property>
  <property name="meta.media.0.stream.type">video</property>
  <property name="meta.media.0.stream.frame_rate">29.97</property>
  <property name="meta.media.0.stream.sample_aspect_ratio">1</property>
  <property name="meta.media.0.codec.width">3840</property>
  <property name="meta.media.0.codec.height">2160</property>
  <property name="meta.media.0.codec.rotate">0</property>
  <property name="meta.media.0.codec.frame_rate">1000</property>
  <property name="meta.media.0.codec.pix_fmt">yuv420p</property>
  <property name="meta.media.0.codec.sample_aspect_ratio">0</property>
  <property name="meta.media.0.codec.colorspace">709</property>
  <property name="meta.media.0.codec.color_trc">1</property>
  <property name="meta.media.0.codec.name">vp9</property>
  <property name="meta.media.0.codec.long_name">Google VP9</property>
  <property name="meta.media.0.codec.bit_rate">0</property>
  <property name="meta.attr.0.stream.language.markup">eng</property>
  <property name="meta.attr.0.stream.DURATION.markup">00:08:18.564000000</property>
  <property name="meta.media.1.stream.type">audio</property>
  <property name="meta.media.1.codec.sample_fmt">fltp</property>
  <property name="meta.media.1.codec.sample_rate">44100</property>
  <property name="meta.media.1.codec.channels">2</property>
  <property name="meta.media.1.codec.name">aac</property>
  <property name="meta.media.1.codec.long_name">AAC (Advanced Audio Coding)</property>
  <property name="meta.media.1.codec.bit_rate">0</property>
  <property name="meta.attr.1.stream.HANDLER_NAME.markup">ISO Media file produced by Google Inc. Created on: 03/16/2019.</property>
  <property name="meta.attr.1.stream.DURATION.markup">00:08:19.113000000</property>
  <property name="meta.attr.ENCODER.markup">Lavf58.45.100</property>
  <property name="meta.media.sample_aspect_num">1</property>
  <property name="meta.media.sample_aspect_den">1</property>
  <property name="meta.media.frame_rate_num">30000</property>
  <property name="meta.media.frame_rate_den">1001</property>
  <property name="meta.media.colorspace">709</property>
  <property name="meta.media.color_trc">1</property>
  <property name="meta.media.width">3840</property>
  <property name="meta.media.height">2160</property>
  <property name="meta.media.color_range">mpeg</property>
  <property name="meta.media.top_field_first">0</property>
  <property name="meta.media.progressive">1</property>
  <property name="set.test_audio">1</property>
  <property name="set.test_image">0</property>
 </producer>
 <producer id="producer107" in="00:00:00.000" out="00:02:00.367">
  <property name="length">3612</property>
  <property name="eof">pause</property>
  <property name="resource">content/footage/WorldatW1942_2_edit-cut-merged-1623167308187.mp4</property>
  <property name="audio_index">-1</property>
  <property name="video_index">0</property>
  <property name="mute_on_pause">0</property>
  <property name="mlt_service">avformat-novalidate</property>
  <property name="seekable">1</property>
  <property name="aspect_ratio">1</property>
  <property name="kdenlive:clipname"/>
  <property name="kdenlive:folderid">84</property>
  <property name="kdenlive:id">22</property>
  <property name="kdenlive:file_size">53795215</property>
  <property name="kdenlive:file_hash">2273bd3034e0f17cb8cb4c38518b841f</property>
  <property name="kdenlive:thumbnailFrame">56</property>
  <property name="kdenlive:zone_in">1998</property>
  <property name="kdenlive:zone_out">2293</property>
  <property name="kdenlive:clipzones">[
    {
        "in": 1114,
        "name": "weapons manufacture",
        "out": 1270
    },
    {
        "in": 1998,
        "name": "march to war",
        "out": 2293
    }
]
</property>
  <property name="global_feed">1</property>
  <property name="xml">was here</property>
  <property name="meta.media.nb_streams">1</property>
  <property name="meta.media.0.stream.type">video</property>
  <property name="meta.media.0.stream.frame_rate">29.9693</property>
  <property name="meta.media.0.stream.sample_aspect_ratio">1</property>
  <property name="meta.media.0.codec.width">320</property>
  <property name="meta.media.0.codec.height">240</property>
  <property name="meta.media.0.codec.rotate">0</property>
  <property name="meta.media.0.codec.frame_rate">2997</property>
  <property name="meta.media.0.codec.pix_fmt">yuv420p</property>
  <property name="meta.media.0.codec.sample_aspect_ratio">1</property>
  <property name="meta.media.0.codec.colorspace">601</property>
  <property name="meta.media.0.codec.name">mpeg4</property>
  <property name="meta.media.0.codec.long_name">MPEG-4 part 2</property>
  <property name="meta.media.0.codec.bit_rate">3573523</property>
  <property name="meta.attr.0.stream.language.markup">eng</property>
  <property name="meta.attr.0.stream.handler_name.markup">VideoHandler</property>
  <property name="meta.attr.0.stream.vendor_id.markup">[0][0][0][0]</property>
  <property name="meta.attr.major_brand.markup">isom</property>
  <property name="meta.attr.minor_version.markup">512</property>
  <property name="meta.attr.compatible_brands.markup">isomiso2mp41</property>
  <property name="meta.attr.encoder.markup">Lavf58.45.100</property>
  <property name="meta.media.sample_aspect_num">1</property>
  <property name="meta.media.sample_aspect_den">1</property>
  <property name="meta.media.frame_rate_num">36080000</property>
  <property name="meta.media.frame_rate_den">1203899</property>
  <property name="meta.media.colorspace">601</property>
  <property name="meta.media.color_trc">2</property>
  <property name="meta.media.width">320</property>
  <property name="meta.media.height">240</property>
  <property name="meta.media.color_range">mpeg</property>
  <property name="meta.media.top_field_first">0</property>
  <property name="meta.media.progressive">1</property>
  <property name="set.test_audio">1</property>
  <property name="set.test_image">0</property>
 </producer>
 <producer id="producer108" in="00:00:00.000" out="00:04:00.733">
  <property name="length">7224</property>
  <property name="eof">pause</property>
  <property name="resource">0.5:content/footage/WorldatW1942_2_edit-cut-merged-1623167308187.mp4</property>
  <property name="aspect_ratio">1</property>
  <property name="meta.media.nb_streams">1</property>
  <property name="meta.media.0.stream.type">video</property>
  <property name="meta.media.0.stream.frame_rate">29.9693</property>
  <property name="meta.media.0.stream.sample_aspect_ratio">1</property>
  <property name="meta.media.0.codec.width">320</property>
  <property name="meta.media.0.codec.height">240</property>
  <property name="meta.media.0.codec.rotate">0</property>
  <property name="meta.media.0.codec.frame_rate">2997</property>
  <property name="meta.media.0.codec.pix_fmt">yuv420p</property>
  <property name="meta.media.0.codec.sample_aspect_ratio">1</property>
  <property name="meta.media.0.codec.colorspace">601</property>
  <property name="meta.media.0.codec.name">mpeg4</property>
  <property name="meta.media.0.codec.long_name">MPEG-4 part 2</property>
  <property name="meta.media.0.codec.bit_rate">3573523</property>
  <property name="meta.attr.0.stream.language.markup">eng</property>
  <property name="meta.attr.0.stream.handler_name.markup">VideoHandler</property>
  <property name="meta.attr.major_brand.markup">isom</property>
  <property name="meta.attr.minor_version.markup">512</property>
  <property name="meta.attr.compatible_brands.markup">isomiso2mp41</property>
  <property name="meta.attr.encoder.markup">Lavf58.45.100</property>
  <property name="seekable">1</property>
  <property name="meta.media.sample_aspect_num">1</property>
  <property name="meta.media.sample_aspect_den">1</property>
  <property name="audio_index">-1</property>
  <property name="video_index">0</property>
  <property name="mute_on_pause">1</property>
  <property name="warp_speed">0.5</property>
  <property name="warp_resource">content/footage/WorldatW1942_2_edit-cut-merged-1623167308187.mp4</property>
  <property name="mlt_service">timewarp</property>
  <property name="meta.attr.0.stream.vendor_id.markup">[0][0][0][0]</property>
  <property name="set.test_audio">1</property>
  <property name="set.test_image">0</property>
  <property name="kdenlive:id">22</property>
  <property name="warp_pitch">0</property>
  <property name="meta.media.frame_rate_num">36080000</property>
  <property name="meta.media.frame_rate_den">1203899</property>
  <property name="meta.media.colorspace">601</property>
  <property name="meta.media.color_trc">2</property>
  <property name="meta.media.width">320</property>
  <property name="meta.media.height">240</property>
  <property name="meta.media.color_range">mpeg</property>
  <property name="meta.media.top_field_first">0</property>
  <property name="meta.media.progressive">1</property>
 </producer>
 <producer id="producer109" in="00:00:00.000" out="00:04:00.733">
  <property name="length">7224</property>
  <property name="eof">pause</property>
  <property name="resource">0.5:content/footage/WorldatW1942_2_edit-cut-merged-1623167308187.mp4</property>
  <property name="aspect_ratio">1</property>
  <property name="meta.media.nb_streams">1</property>
  <property name="meta.media.0.stream.type">video</property>
  <property name="meta.media.0.stream.frame_rate">29.9693</property>
  <property name="meta.media.0.stream.sample_aspect_ratio">1</property>
  <property name="meta.media.0.codec.width">320</property>
  <property name="meta.media.0.codec.height">240</property>
  <property name="meta.media.0.codec.rotate">0</property>
  <property name="meta.media.0.codec.frame_rate">2997</property>
  <property name="meta.media.0.codec.pix_fmt">yuv420p</property>
  <property name="meta.media.0.codec.sample_aspect_ratio">1</property>
  <property name="meta.media.0.codec.colorspace">601</property>
  <property name="meta.media.0.codec.name">mpeg4</property>
  <property name="meta.media.0.codec.long_name">MPEG-4 part 2</property>
  <property name="meta.media.0.codec.bit_rate">3573523</property>
  <property name="meta.attr.0.stream.language.markup">eng</property>
  <property name="meta.attr.0.stream.handler_name.markup">VideoHandler</property>
  <property name="meta.attr.major_brand.markup">isom</property>
  <property name="meta.attr.minor_version.markup">512</property>
  <property name="meta.attr.compatible_brands.markup">isomiso2mp41</property>
  <property name="meta.attr.encoder.markup">Lavf58.45.100</property>
  <property name="seekable">1</property>
  <property name="meta.media.sample_aspect_num">1</property>
  <property name="meta.media.sample_aspect_den">1</property>
  <property name="audio_index">-1</property>
  <property name="video_index">0</property>
  <property name="mute_on_pause">1</property>
  <property name="warp_speed">0.5</property>
  <property name="warp_resource">content/footage/WorldatW1942_2_edit-cut-merged-1623167308187.mp4</property>
  <property name="mlt_service">timewarp</property>
  <property name="meta.attr.0.stream.vendor_id.markup">[0][0][0][0]</property>
  <property name="set.test_audio">1</property>
  <property name="set.test_image">0</property>
  <property name="kdenlive:id">22</property>
  <property name="warp_pitch">0</property>
  <property name="meta.media.frame_rate_num">36080000</property>
  <property name="meta.media.frame_rate_den">1203899</property>
  <property name="meta.media.colorspace">601</property>
  <property name="meta.media.color_trc">2</property>
  <property name="meta.media.width">320</property>
  <property name="meta.media.height">240</property>
  <property name="meta.media.color_range">mpeg</property>
  <property name="meta.media.top_field_first">0</property>
  <property name="meta.media.progressive">1</property>
 </producer>
 <producer id="producer110" in="00:00:00.000" out="00:00:38.500">
  <property name="length">1156</property>
  <property name="eof">pause</property>
  <property name="resource">content/footage/Survival1951_edit-cut-merged-1623165713135.mp4</property>
  <property name="audio_index">-1</property>
  <property name="video_index">0</property>
  <property name="mute_on_pause">0</property>
  <property name="mlt_service">avformat-novalidate</property>
  <property name="seekable">1</property>
  <property name="aspect_ratio">1</property>
  <property name="kdenlive:clipname"/>
  <property name="kdenlive:folderid">84</property>
  <property name="kdenlive:id">20</property>
  <property name="kdenlive:file_size">4481095</property>
  <property name="kdenlive:file_hash">a3863c513d688ec93050702fa23637cb</property>
  <property name="kdenlive:zone_in">685</property>
  <property name="kdenlive:zone_out">1150</property>
  <property name="kdenlive:clipzones">[
    {
        "in": 685,
        "name": "nuke",
        "out": 1150
    }
]
</property>
  <property name="global_feed">1</property>
  <property name="xml">was here</property>
  <property name="meta.media.nb_streams">1</property>
  <property name="meta.media.0.stream.type">video</property>
  <property name="meta.media.0.stream.frame_rate">29.9691</property>
  <property name="meta.media.0.stream.sample_aspect_ratio">1</property>
  <property name="meta.media.0.codec.width">320</property>
  <property name="meta.media.0.codec.height">240</property>
  <property name="meta.media.0.codec.rotate">0</property>
  <property name="meta.media.0.codec.frame_rate">2997</property>
  <property name="meta.media.0.codec.pix_fmt">yuv420p</property>
  <property name="meta.media.0.codec.sample_aspect_ratio">1</property>
  <property name="meta.media.0.codec.colorspace">601</property>
  <property name="meta.media.0.codec.name">mpeg4</property>
  <property name="meta.media.0.codec.long_name">MPEG-4 part 2</property>
  <property name="meta.media.0.codec.bit_rate">928935</property>
  <property name="meta.attr.0.stream.language.markup">eng</property>
  <property name="meta.attr.0.stream.handler_name.markup">VideoHandler</property>
  <property name="meta.attr.0.stream.vendor_id.markup">[0][0][0][0]</property>
  <property name="meta.attr.major_brand.markup">isom</property>
  <property name="meta.attr.minor_version.markup">512</property>
  <property name="meta.attr.compatible_brands.markup">isomiso2mp41</property>
  <property name="meta.attr.encoder.markup">Lavf58.45.100</property>
  <property name="meta.media.sample_aspect_num">1</property>
  <property name="meta.media.sample_aspect_den">1</property>
  <property name="meta.media.frame_rate_num">34650000</property>
  <property name="meta.media.frame_rate_den">1156189</property>
  <property name="meta.media.colorspace">601</property>
  <property name="meta.media.color_trc">2</property>
  <property name="meta.media.width">320</property>
  <property name="meta.media.height">240</property>
  <property name="meta.media.color_range">mpeg</property>
  <property name="meta.media.top_field_first">0</property>
  <property name="meta.media.progressive">1</property>
  <property name="set.test_audio">1</property>
  <property name="set.test_image">0</property>
 </producer>
 <producer id="producer111" in="00:00:00.000" out="00:06:48.833">
  <property name="length">12266</property>
  <property name="eof">pause</property>
  <property name="resource">content/footage/Protest HD Stock Video _ Free stock footage _ Free HD Videos - No Copyright _ Channel PMI-JiaMhAWHkzg.mkv</property>
  <property name="audio_index">1</property>
  <property name="video_index">0</property>
  <property name="mute_on_pause">0</property>
  <property name="mlt_service">avformat-novalidate</property>
  <property name="seekable">1</property>
  <property name="aspect_ratio">1</property>
  <property name="kdenlive:clipname">Protest HD Stock Video _ Free stock footage _ Free HD Videos - No Copyright _ Channel PMI-JiaMhAWHkzg.mkv</property>
  <property name="kdenlive:folderid">84</property>
  <property name="kdenlive:id">23</property>
  <property name="kdenlive:file_size">196665014</property>
  <property name="kdenlive:file_hash">54d4bd847d26e010f6d375524d901513</property>
  <property name="kdenlive:proxy">-</property>
  <property name="kdenlive:originalurl">content/footage/Protest HD Stock Video _ Free stock footage _ Free HD Videos - No Copyright _ Channel PMI-JiaMhAWHkzg.mkv</property>
  <property name="kdenlive:original.mlt_type">producer</property>
  <property name="kdenlive:original.in">0</property>
  <property name="kdenlive:original.out">12265</property>
  <property name="kdenlive:original.length">12266</property>
  <property name="kdenlive:original.eof">pause</property>
  <property name="kdenlive:original.resource">/home/ryankelln/Documents/Projects/Active/Sound_Escapes/Dhaivat/footage/Protest HD Stock Video _ Free stock footage _ Free HD Videos - No Copyright _ Channel PMI-JiaMhAWHkzg.mkv</property>
  <property name="kdenlive:original.meta.media.nb_streams">2</property>
  <property name="kdenlive:original.meta.media.0.stream.type">video</property>
  <property name="kdenlive:original.meta.media.0.stream.frame_rate">29.86</property>
  <property name="kdenlive:original.meta.media.0.stream.sample_aspect_ratio">1</property>
  <property name="kdenlive:original.meta.media.0.codec.width">1920</property>
  <property name="kdenlive:original.meta.media.0.codec.height">1080</property>
  <property name="kdenlive:original.meta.media.0.codec.rotate">0</property>
  <property name="kdenlive:original.meta.media.0.codec.frame_rate">29.86</property>
  <property name="kdenlive:original.meta.media.0.codec.pix_fmt">yuv420p</property>
  <property name="kdenlive:original.meta.media.0.codec.sample_aspect_ratio">1</property>
  <property name="kdenlive:original.meta.media.0.codec.colorspace">709</property>
  <property name="kdenlive:original.meta.media.0.codec.color_trc">1</property>
  <property name="kdenlive:original.meta.media.0.codec.name">h264</property>
  <property name="kdenlive:original.meta.media.0.codec.long_name">H.264 / AVC / MPEG-4 AVC / MPEG-4 part 10</property>
  <property name="kdenlive:original.meta.media.0.codec.bit_rate">0</property>
  <property name="kdenlive:original.meta.attr.0.stream.HANDLER_NAME.markup">ISO Media file produced by Google Inc.</property>
  <property name="kdenlive:original.meta.attr.0.stream.DURATION.markup">00:06:48.841000000</property>
  <property name="kdenlive:original.meta.media.1.stream.type">audio</property>
  <property name="kdenlive:original.meta.media.1.codec.sample_fmt">fltp</property>
  <property name="kdenlive:original.meta.media.1.codec.sample_rate">48000</property>
  <property name="kdenlive:original.meta.media.1.codec.channels">2</property>
  <property name="kdenlive:original.meta.media.1.codec.name">opus</property>
  <property name="kdenlive:original.meta.media.1.codec.long_name">Opus</property>
  <property name="kdenlive:original.meta.media.1.codec.bit_rate">0</property>
  <property name="kdenlive:original.meta.attr.1.stream.language.markup">eng</property>
  <property name="kdenlive:original.meta.attr.1.stream.DURATION.markup">00:06:48.861000000</property>
  <property name="kdenlive:original.meta.attr.COMPATIBLE_BRANDS.markup">iso6avc1mp41</property>
  <property name="kdenlive:original.meta.attr.MAJOR_BRAND.markup">dash</property>
  <property name="kdenlive:original.meta.attr.MINOR_VERSION.markup">0</property>
  <property name="kdenlive:original.meta.attr.ENCODER.markup">Lavf58.45.100</property>
  <property name="kdenlive:original.seekable">1</property>
  <property name="kdenlive:original.width">1920</property>
  <property name="kdenlive:original.height">1080</property>
  <property name="kdenlive:original.meta.media.sample_aspect_num">1</property>
  <property name="kdenlive:original.meta.media.sample_aspect_den">1</property>
  <property name="kdenlive:original.aspect_ratio">1</property>
  <property name="kdenlive:original.audio_index">1</property>
  <property name="kdenlive:original.video_index">0</property>
  <property name="kdenlive:original.mute_on_pause">0</property>
  <property name="kdenlive:original.mlt_service">avformat-novalidate</property>
  <property name="kdenlive:original.kdenlive:folderid">84</property>
  <property name="kdenlive:original.meta.media.frame_rate_num">1493</property>
  <property name="kdenlive:original.meta.media.frame_rate_den">50</property>
  <property name="kdenlive:original.meta.media.colorspace">709</property>
  <property name="kdenlive:original.meta.media.color_trc">1</property>
  <property name="kdenlive:original.meta.media.width">1920</property>
  <property name="kdenlive:original.meta.media.height">1080</property>
  <property name="kdenlive:original.meta.media.color_range">mpeg</property>
  <property name="kdenlive:original.kdenlive:id">115</property>
  <property name="kdenlive:original.kdenlive:file_size">196665014</property>
  <property name="kdenlive:original.kdenlive:file_hash">54d4bd847d26e010f6d375524d901513</property>
  <property name="kdenlive:original.backup">1</property>
  <property name="kdenlive:audio_max">1</property>
  <property name="kdenlive:zone_in">6769</property>
  <property name="kdenlive:zone_out">7253</property>
  <property name="kdenlive:clipzones">[
    {
        "in": 6769,
        "name": "cops with gas masks",
        "out": 7253
    }
]
</property>
  <property name="global_feed">1</property>
  <property name="kdenlive:active_streams">-1</property>
  <property name="xml">was here</property>
  <property name="meta.media.nb_streams">2</property>
  <property name="meta.media.0.stream.type">video</property>
  <property name="meta.media.0.stream.frame_rate">29.86</property>
  <property name="meta.media.0.stream.sample_aspect_ratio">1</property>
  <property name="meta.media.0.codec.width">640</property>
  <property name="meta.media.0.codec.height">360</property>
  <property name="meta.media.0.codec.rotate">0</property>
  <property name="meta.media.0.codec.frame_rate">1000</property>
  <property name="meta.media.0.codec.pix_fmt">yuvj420p</property>
  <property name="meta.media.0.codec.sample_aspect_ratio">1</property>
  <property name="meta.media.0.codec.colorspace">601</property>
  <property name="meta.media.0.codec.color_trc">1</property>
  <property name="meta.media.0.codec.name">mjpeg</property>
  <property name="meta.media.0.codec.long_name">MJPEG (Motion JPEG)</property>
  <property name="meta.media.0.codec.bit_rate">0</property>
  <property name="meta.attr.0.stream.HANDLER_NAME.markup">ISO Media file produced by Google Inc.</property>
  <property name="meta.attr.0.stream.ENCODER.markup">Lavc58.134.100 mjpeg</property>
  <property name="meta.attr.0.stream.DURATION.markup">00:06:48.841000000</property>
  <property name="meta.media.1.stream.type">audio</property>
  <property name="meta.media.1.codec.sample_fmt">s16</property>
  <property name="meta.media.1.codec.sample_rate">48000</property>
  <property name="meta.media.1.codec.channels">2</property>
  <property name="meta.media.1.codec.name">pcm_s16le</property>
  <property name="meta.media.1.codec.long_name">PCM signed 16-bit little-endian</property>
  <property name="meta.media.1.codec.bit_rate">1536000</property>
  <property name="meta.attr.1.stream.language.markup">eng</property>
  <property name="meta.attr.1.stream.ENCODER.markup">Lavc58.134.100 pcm_s16le</property>
  <property name="meta.attr.1.stream.DURATION.markup">00:06:48.853000000</property>
  <property name="meta.attr.MINOR_VERSION.markup">0</property>
  <property name="meta.attr.COMPATIBLE_BRANDS.markup">iso6avc1mp41</property>
  <property name="meta.attr.MAJOR_BRAND.markup">dash</property>
  <property name="meta.attr.ENCODER.markup">Lavf58.76.100</property>
  <property name="meta.media.sample_aspect_num">1</property>
  <property name="meta.media.sample_aspect_den">1</property>
  <property name="meta.media.frame_rate_num">1493</property>
  <property name="meta.media.frame_rate_den">50</property>
  <property name="meta.media.colorspace">601</property>
  <property name="meta.media.color_trc">1</property>
  <property name="meta.media.width">640</property>
  <property name="meta.media.height">360</property>
  <property name="meta.media.color_range">full</property>
  <property name="set.test_audio">1</property>
  <property name="set.test_image">0</property>
  <property name="meta.media.top_field_first">0</property>
  <property name="meta.media.progressive">1</property>
 </producer>
 <producer id="producer112" in="00:00:00.000" out="00:03:49.533">
  <property name="length">6887</property>
  <property name="eof">pause</property>
  <property name="resource">content/footage/PROTEST - Youth Global Warming Strike, London 2019-h8o_YP0YKLc.mp4</property>
  <property name="audio_index">1</property>
  <property name="video_index">0</property>
  <property name="mute_on_pause">0</property>
  <property name="mlt_service">avformat-novalidate</property>
  <property name="seekable">1</property>
  <property name="aspect_ratio">1</property>
  <property name="kdenlive:clipname">PROTEST - Youth Global Warming Strike, London 2019-h8o_YP0YKLc.mp4</property>
  <property name="kdenlive:folderid">84</property>
  <property name="kdenlive:id">24</property>
  <property name="kdenlive:file_size">127859649</property>
  <property name="kdenlive:file_hash">3618d2dfed397f329eab83ec679ad7a5</property>
  <property name="kdenlive:proxy">-</property>
  <property name="kdenlive:originalurl">content/footage/PROTEST - Youth Global Warming Strike, London 2019-h8o_YP0YKLc.mp4</property>
  <property name="kdenlive:original.mlt_type">producer</property>
  <property name="kdenlive:original.in">0</property>
  <property name="kdenlive:original.out">6886</property>
  <property name="kdenlive:original.length">6887</property>
  <property name="kdenlive:original.eof">pause</property>
  <property name="kdenlive:original.resource">/home/ryankelln/Documents/Projects/Active/Sound_Escapes/Dhaivat/footage/PROTEST - Youth Global Warming Strike, London 2019-h8o_YP0YKLc.mp4</property>
  <property name="kdenlive:original.meta.media.nb_streams">2</property>
  <property name="kdenlive:original.meta.media.0.stream.type">video</property>
  <property name="kdenlive:original.meta.media.0.stream.frame_rate">25</property>
  <property name="kdenlive:original.meta.media.0.stream.sample_aspect_ratio">1</property>
  <property name="kdenlive:original.meta.media.0.codec.width">1920</property>
  <property name="kdenlive:original.meta.media.0.codec.height">1080</property>
  <property name="kdenlive:original.meta.media.0.codec.rotate">0</property>
  <property name="kdenlive:original.meta.media.0.codec.frame_rate">25</property>
  <property name="kdenlive:original.meta.media.0.codec.pix_fmt">yuv420p</property>
  <property name="kdenlive:original.meta.media.0.codec.sample_aspect_ratio">1</property>
  <property name="kdenlive:original.meta.media.0.codec.colorspace">709</property>
  <property name="kdenlive:original.meta.media.0.codec.color_trc">1</property>
  <property name="kdenlive:original.meta.media.0.codec.name">h264</property>
  <property name="kdenlive:original.meta.media.0.codec.long_name">H.264 / AVC / MPEG-4 AVC / MPEG-4 part 10</property>
  <property name="kdenlive:original.meta.media.0.codec.bit_rate">4322783</property>
  <property name="kdenlive:original.meta.attr.0.stream.handler_name.markup">ISO Media file produced by Google Inc. Created on: 05/25/2019.</property>
  <property name="kdenlive:original.meta.attr.0.stream.vendor_id.markup">[0][0][0][0]</property>
  <property name="kdenlive:original.meta.media.1.stream.type">audio</property>
  <property name="kdenlive:original.meta.media.1.codec.sample_fmt">fltp</property>
  <property name="kdenlive:original.meta.media.1.codec.sample_rate">44100</property>
  <property name="kdenlive:original.meta.media.1.codec.channels">2</property>
  <property name="kdenlive:original.meta.media.1.codec.name">aac</property>
  <property name="kdenlive:original.meta.media.1.codec.long_name">AAC (Advanced Audio Coding)</property>
  <property name="kdenlive:original.meta.media.1.codec.bit_rate">127999</property>
  <property name="kdenlive:original.meta.attr.1.stream.language.markup">eng</property>
  <property name="kdenlive:original.meta.attr.1.stream.handler_name.markup">ISO Media file produced by Google Inc. Created on: 05/25/2019.</property>
  <property name="kdenlive:original.meta.attr.1.stream.vendor_id.markup">[0][0][0][0]</property>
  <property name="kdenlive:original.meta.attr.major_brand.markup">isom</property>
  <property name="kdenlive:original.meta.attr.minor_version.markup">512</property>
  <property name="kdenlive:original.meta.attr.compatible_brands.markup">isomiso2avc1mp41</property>
  <property name="kdenlive:original.meta.attr.encoder.markup">Lavf58.45.100</property>
  <property name="kdenlive:original.seekable">1</property>
  <property name="kdenlive:original.width">1920</property>
  <property name="kdenlive:original.height">1080</property>
  <property name="kdenlive:original.meta.media.sample_aspect_num">1</property>
  <property name="kdenlive:original.meta.media.sample_aspect_den">1</property>
  <property name="kdenlive:original.aspect_ratio">1</property>
  <property name="kdenlive:original.audio_index">1</property>
  <property name="kdenlive:original.video_index">0</property>
  <property name="kdenlive:original.mute_on_pause">0</property>
  <property name="kdenlive:original.mlt_service">avformat-novalidate</property>
  <property name="kdenlive:original.kdenlive:folderid">84</property>
  <property name="kdenlive:original.meta.media.frame_rate_num">25</property>
  <property name="kdenlive:original.meta.media.frame_rate_den">1</property>
  <property name="kdenlive:original.meta.media.colorspace">709</property>
  <property name="kdenlive:original.meta.media.color_trc">1</property>
  <property name="kdenlive:original.meta.media.width">1920</property>
  <property name="kdenlive:original.meta.media.height">1080</property>
  <property name="kdenlive:original.meta.media.color_range">mpeg</property>
  <property name="kdenlive:original.kdenlive:id">121</property>
  <property name="kdenlive:original.kdenlive:file_size">127859649</property>
  <property name="kdenlive:original.kdenlive:file_hash">3618d2dfed397f329eab83ec679ad7a5</property>
  <property name="kdenlive:original.backup">1</property>
  <property name="kdenlive:audio_max">1</property>
  <property name="kdenlive:active_streams">-1</property>
  <property name="kdenlive:zone_in">3304</property>
  <property name="kdenlive:zone_out">3557</property>
  <property name="kdenlive:clipzones">[
    {
        "in": 3304,
        "name": "child climate protest",
        "out": 3557
    }
]
</property>
  <property name="global_feed">1</property>
  <property name="xml">was here</property>
  <property name="meta.media.nb_streams">2</property>
  <property name="meta.media.0.stream.type">video</property>
  <property name="meta.media.0.stream.frame_rate">25</property>
  <property name="meta.media.0.stream.sample_aspect_ratio">1</property>
  <property name="meta.media.0.codec.width">640</property>
  <property name="meta.media.0.codec.height">360</property>
  <property name="meta.media.0.codec.rotate">0</property>
  <property name="meta.media.0.codec.frame_rate">1000</property>
  <property name="meta.media.0.codec.pix_fmt">yuvj420p</property>
  <property name="meta.media.0.codec.sample_aspect_ratio">1</property>
  <property name="meta.media.0.codec.colorspace">601</property>
  <property name="meta.media.0.codec.color_trc">1</property>
  <property name="meta.media.0.codec.name">mjpeg</property>
  <property name="meta.media.0.codec.long_name">MJPEG (Motion JPEG)</property>
  <property name="meta.media.0.codec.bit_rate">0</property>
  <property name="meta.attr.0.stream.HANDLER_NAME.markup">ISO Media file produced by Google Inc. Created on: 05/25/2019.</property>
  <property name="meta.attr.0.stream.VENDOR_ID.markup">[0][0][0][0]</property>
  <property name="meta.attr.0.stream.ENCODER.markup">Lavc58.134.100 mjpeg</property>
  <property name="meta.attr.0.stream.DURATION.markup">00:03:49.520000000</property>
  <property name="meta.media.1.stream.type">audio</property>
  <property name="meta.media.1.codec.sample_fmt">s16</property>
  <property name="meta.media.1.codec.sample_rate">44100</property>
  <property name="meta.media.1.codec.channels">2</property>
  <property name="meta.media.1.codec.name">pcm_s16le</property>
  <property name="meta.media.1.codec.long_name">PCM signed 16-bit little-endian</property>
  <property name="meta.media.1.codec.bit_rate">1411200</property>
  <property name="meta.attr.1.stream.language.markup">eng</property>
  <property name="meta.attr.1.stream.HANDLER_NAME.markup">ISO Media file produced by Google Inc. Created on: 05/25/2019.</property>
  <property name="meta.attr.1.stream.VENDOR_ID.markup">[0][0][0][0]</property>
  <property name="meta.attr.1.stream.ENCODER.markup">Lavc58.134.100 pcm_s16le</property>
  <property name="meta.attr.1.stream.DURATION.markup">00:03:49.575000000</property>
  <property name="meta.attr.COMPATIBLE_BRANDS.markup">isomiso2avc1mp41</property>
  <property name="meta.attr.MAJOR_BRAND.markup">isom</property>
  <property name="meta.attr.MINOR_VERSION.markup">512</property>
  <property name="meta.attr.ENCODER.markup">Lavf58.76.100</property>
  <property name="meta.media.sample_aspect_num">1</property>
  <property name="meta.media.sample_aspect_den">1</property>
  <property name="meta.media.frame_rate_num">25</property>
  <property name="meta.media.frame_rate_den">1</property>
  <property name="meta.media.colorspace">601</property>
  <property name="meta.media.color_trc">1</property>
  <property name="meta.media.width">640</property>
  <property name="meta.media.height">360</property>
  <property name="meta.media.color_range">full</property>
  <property name="set.test_audio">1</property>
  <property name="set.test_image">0</property>
  <property name="meta.media.top_field_first">0</property>
  <property name="meta.media.progressive">1</property>
 </producer>
 <producer id="producer113" in="00:00:00.000" out="00:02:01.633">
  <property name="length">3650</property>
  <property name="eof">pause</property>
  <property name="resource">content/footage/Black Lives Matters - George Floyd protests videos-d4HKXLks-VA.mkv</property>
  <property name="audio_index">1</property>
  <property name="video_index">0</property>
  <property name="mute_on_pause">0</property>
  <property name="mlt_service">avformat-novalidate</property>
  <property name="seekable">1</property>
  <property name="aspect_ratio">1</property>
  <property name="kdenlive:clipname">Black Lives Matters - George Floyd protests videos-d4HKXLks-VA.mkv</property>
  <property name="kdenlive:folderid">84</property>
  <property name="kdenlive:id">18</property>
  <property name="kdenlive:file_size">50326608</property>
  <property name="kdenlive:file_hash">918d049cf9c8678ccf9fd488be96b978</property>
  <property name="kdenlive:proxy">-</property>
  <property name="kdenlive:originalurl">content/footage/Black Lives Matters - George Floyd protests videos-d4HKXLks-VA.mkv</property>
  <property name="kdenlive:original.mlt_type">producer</property>
  <property name="kdenlive:original.in">0</property>
  <property name="kdenlive:original.out">3649</property>
  <property name="kdenlive:original.length">3650</property>
  <property name="kdenlive:original.eof">pause</property>
  <property name="kdenlive:original.resource">/home/ryankelln/Documents/Projects/Active/Sound_Escapes/Dhaivat/footage/Black Lives Matters - George Floyd protests videos-d4HKXLks-VA.mkv</property>
  <property name="kdenlive:original.meta.media.nb_streams">2</property>
  <property name="kdenlive:original.meta.media.0.stream.type">video</property>
  <property name="kdenlive:original.meta.media.0.stream.frame_rate">29.97</property>
  <property name="kdenlive:original.meta.media.0.stream.sample_aspect_ratio">1</property>
  <property name="kdenlive:original.meta.media.0.codec.width">1920</property>
  <property name="kdenlive:original.meta.media.0.codec.height">1080</property>
  <property name="kdenlive:original.meta.media.0.codec.rotate">0</property>
  <property name="kdenlive:original.meta.media.0.codec.frame_rate">29.97</property>
  <property name="kdenlive:original.meta.media.0.codec.pix_fmt">yuv420p</property>
  <property name="kdenlive:original.meta.media.0.codec.sample_aspect_ratio">1</property>
  <property name="kdenlive:original.meta.media.0.codec.colorspace">709</property>
  <property name="kdenlive:original.meta.media.0.codec.color_trc">1</property>
  <property name="kdenlive:original.meta.media.0.codec.name">h264</property>
  <property name="kdenlive:original.meta.media.0.codec.long_name">H.264 / AVC / MPEG-4 AVC / MPEG-4 part 10</property>
  <property name="kdenlive:original.meta.media.0.codec.bit_rate">0</property>
  <property name="kdenlive:original.meta.attr.0.stream.HANDLER_NAME.markup">ISO Media file produced by Google Inc.</property>
  <property name="kdenlive:original.meta.attr.0.stream.DURATION.markup">00:02:01.655000000</property>
  <property name="kdenlive:original.meta.media.1.stream.type">audio</property>
  <property name="kdenlive:original.meta.media.1.codec.sample_fmt">fltp</property>
  <property name="kdenlive:original.meta.media.1.codec.sample_rate">48000</property>
  <property name="kdenlive:original.meta.media.1.codec.channels">2</property>
  <property name="kdenlive:original.meta.media.1.codec.name">opus</property>
  <property name="kdenlive:original.meta.media.1.codec.long_name">Opus</property>
  <property name="kdenlive:original.meta.media.1.codec.bit_rate">0</property>
  <property name="kdenlive:original.meta.attr.1.stream.language.markup">eng</property>
  <property name="kdenlive:original.meta.attr.1.stream.DURATION.markup">00:02:01.681000000</property>
  <property name="kdenlive:original.meta.attr.COMPATIBLE_BRANDS.markup">iso6avc1mp41</property>
  <property name="kdenlive:original.meta.attr.MAJOR_BRAND.markup">dash</property>
  <property name="kdenlive:original.meta.attr.MINOR_VERSION.markup">0</property>
  <property name="kdenlive:original.meta.attr.ENCODER.markup">Lavf58.45.100</property>
  <property name="kdenlive:original.seekable">1</property>
  <property name="kdenlive:original.width">1920</property>
  <property name="kdenlive:original.height">1080</property>
  <property name="kdenlive:original.meta.media.sample_aspect_num">1</property>
  <property name="kdenlive:original.meta.media.sample_aspect_den">1</property>
  <property name="kdenlive:original.aspect_ratio">1</property>
  <property name="kdenlive:original.audio_index">1</property>
  <property name="kdenlive:original.video_index">0</property>
  <property name="kdenlive:original.mute_on_pause">0</property>
  <property name="kdenlive:original.mlt_service">avformat-novalidate</property>
  <property name="kdenlive:original.kdenlive:folderid">84</property>
  <property name="kdenlive:original.meta.media.frame_rate_num">30000</property>
  <property name="kdenlive:original.meta.media.frame_rate_den">1001</property>
  <property name="kdenlive:original.meta.media.colorspace">709</property>
  <property name="kdenlive:original.meta.media.color_trc">1</property>
  <property name="kdenlive:original.meta.media.width">1920</property>
  <property name="kdenlive:original.meta.media.height">1080</property>
  <property name="kdenlive:original.meta.media.color_range">mpeg</property>
  <property name="kdenlive:original.kdenlive:id">100</property>
  <property name="kdenlive:original.kdenlive:file_size">50326608</property>
  <property name="kdenlive:original.kdenlive:file_hash">918d049cf9c8678ccf9fd488be96b978</property>
  <property name="kdenlive:original.backup">1</property>
  <property name="kdenlive:audio_max">1</property>
  <property name="global_feed">1</property>
  <property name="kdenlive:zone_in">2378</property>
  <property name="kdenlive:zone_out">2829</property>
  <property name="kdenlive:clipzones">[
    {
        "in": 122,
        "name": "Selma bridge",
        "out": 561
    },
    {
        "in": 2378,
        "name": "drone with police",
        "out": 2829
    }
]
</property>
  <property name="kdenlive:active_streams">-1</property>
  <property name="xml">was here</property>
  <property name="meta.media.nb_streams">2</property>
  <property name="meta.media.0.stream.type">video</property>
  <property name="meta.media.0.stream.frame_rate">29.97</property>
  <property name="meta.media.0.stream.sample_aspect_ratio">1</property>
  <property name="meta.media.0.codec.width">640</property>
  <property name="meta.media.0.codec.height">360</property>
  <property name="meta.media.0.codec.rotate">0</property>
  <property name="meta.media.0.codec.frame_rate">1000</property>
  <property name="meta.media.0.codec.pix_fmt">yuvj420p</property>
  <property name="meta.media.0.codec.sample_aspect_ratio">1</property>
  <property name="meta.media.0.codec.colorspace">601</property>
  <property name="meta.media.0.codec.color_trc">1</property>
  <property name="meta.media.0.codec.name">mjpeg</property>
  <property name="meta.media.0.codec.long_name">MJPEG (Motion JPEG)</property>
  <property name="meta.media.0.codec.bit_rate">0</property>
  <property name="meta.attr.0.stream.HANDLER_NAME.markup">ISO Media file produced by Google Inc.</property>
  <property name="meta.attr.0.stream.ENCODER.markup">Lavc58.134.100 mjpeg</property>
  <property name="meta.attr.0.stream.DURATION.markup">00:02:01.655000000</property>
  <property name="meta.media.1.stream.type">audio</property>
  <property name="meta.media.1.codec.sample_fmt">s16</property>
  <property name="meta.media.1.codec.sample_rate">48000</property>
  <property name="meta.media.1.codec.channels">2</property>
  <property name="meta.media.1.codec.name">pcm_s16le</property>
  <property name="meta.media.1.codec.long_name">PCM signed 16-bit little-endian</property>
  <property name="meta.media.1.codec.bit_rate">1536000</property>
  <property name="meta.attr.1.stream.language.markup">eng</property>
  <property name="meta.attr.1.stream.ENCODER.markup">Lavc58.134.100 pcm_s16le</property>
  <property name="meta.attr.1.stream.DURATION.markup">00:02:01.668000000</property>
  <property name="meta.attr.MINOR_VERSION.markup">0</property>
  <property name="meta.attr.COMPATIBLE_BRANDS.markup">iso6avc1mp41</property>
  <property name="meta.attr.MAJOR_BRAND.markup">dash</property>
  <property name="meta.attr.ENCODER.markup">Lavf58.76.100</property>
  <property name="meta.media.sample_aspect_num">1</property>
  <property name="meta.media.sample_aspect_den">1</property>
  <property name="meta.media.frame_rate_num">30000</property>
  <property name="meta.media.frame_rate_den">1001</property>
  <property name="meta.media.colorspace">601</property>
  <property name="meta.media.color_trc">1</property>
  <property name="meta.media.width">640</property>
  <property name="meta.media.height">360</property>
  <property name="meta.media.color_range">full</property>
  <property name="meta.media.top_field_first">0</property>
  <property name="meta.media.progressive">1</property>
  <property name="set.test_audio">1</property>
  <property name="set.test_image">0</property>
 </producer>
 <playlist id="playlist12">
  <blank length="00:00:09.833"/>
  <entry producer="producer89" in="00:00:00.000" out="00:00:10.700">
   <property name="kdenlive:id">35</property>
   <filter id="filter54">
    <property name="mlt_service">avfilter.hflip</property>
    <property name="kdenlive_id">avfilter.hflip</property>
    <property name="kdenlive:collapsed">0</property>
   </filter>
  </entry>
  <blank length="00:00:03.133"/>
  <entry producer="producer90" in="00:00:00.367" out="00:00:06.600">
   <property name="kdenlive:id">34</property>
  </entry>
  <blank length="00:00:39.133"/>
  <entry producer="producer91" in="00:00:43.700" out="00:00:51.100">
   <property name="kdenlive:id">21</property>
   <filter id="filter55">
    <property name="rotate_center">1</property>
    <property name="mlt_service">qtblend</property>
    <property name="kdenlive_id">qtblend</property>
    <property name="rect">00:00:43.700=-535 0 1920 1080 1.000000</property>
    <property name="rotation">00:00:43.700=0</property>
    <property name="compositing">0</property>
    <property name="distort">0</property>
    <property name="kdenlive:collapsed">0</property>
   </filter>
   <filter id="filter56">
    <property name="mirror">horizontal</property>
    <property name="mlt_service">mirror</property>
    <property name="kdenlive_id">mirror</property>
    <property name="reverse">1</property>
    <property name="kdenlive:collapsed">0</property>
   </filter>
  </entry>
  <blank length="00:00:08.667"/>
  <entry producer="producer92" in="00:00:05.767" out="00:00:15.933">
   <property name="kdenlive:id">4</property>
  </entry>
  <blank length="00:00:14.900"/>
  <entry producer="producer93" in="00:00:29.100" out="00:00:39.367">
   <property name="kdenlive:id">7</property>
  </entry>
  <blank length="00:00:22.467"/>
  <entry producer="producer94" in="00:03:53.333" out="00:03:53.567">
   <property name="kdenlive:id">7</property>
  </entry>
  <entry producer="producer95" in="00:03:06.767" out="00:03:07.000">
   <property name="kdenlive:id">7</property>
  </entry>
  <entry producer="producer96" in="00:02:35.733" out="00:02:35.967">
   <property name="kdenlive:id">7</property>
  </entry>
  <entry producer="producer97" in="00:02:13.567" out="00:02:13.767">
   <property name="kdenlive:id">7</property>
  </entry>
  <entry producer="producer98" in="00:05:13.433" out="00:05:14.600">
   <property name="kdenlive:id">7</property>
  </entry>
  <entry producer="producer99" in="00:03:08.533" out="00:03:09.600">
   <property name="kdenlive:id">7</property>
  </entry>
  <entry producer="producer100" in="00:02:37.833" out="00:02:38.967">
   <property name="kdenlive:id">7</property>
  </entry>
  <entry producer="producer101" in="00:01:58.967" out="00:02:02.633">
   <property name="kdenlive:id">7</property>
  </entry>
  <entry producer="producer102" in="00:02:41.067" out="00:02:43.300">
   <property name="kdenlive:id">7</property>
  </entry>
  <entry producer="producer103" in="00:04:03.900" out="00:04:12.333">
   <property name="kdenlive:id">7</property>
  </entry>
  <blank length="00:00:06.333"/>
  <entry producer="producer104" in="00:00:23.967" out="00:00:27.100">
   <property name="kdenlive:id">5</property>
   <filter id="filter57">
    <property name="rotate_center">1</property>
    <property name="mlt_service">qtblend</property>
    <property name="kdenlive_id">qtblend</property>
    <property name="rect">00:00:23.967=0 0 2281 1283 1.000000</property>
    <property name="rotation">00:00:23.967=0</property>
    <property name="compositing">0</property>
    <property name="distort">0</property>
    <property name="kdenlive:collapsed">0</property>
   </filter>
  </entry>
  <blank length="00:00:14.667"/>
  <entry producer="producer105" in="00:00:21.733" out="00:00:34.500">
   <property name="kdenlive:id">8</property>
  </entry>
  <entry producer="producer105" in="00:00:34.533" out="00:00:36.467">
   <property name="kdenlive:id">8</property>
  </entry>
  <blank length="00:00:30.333"/>
  <entry producer="producer106" in="00:06:11.200" out="00:06:20.867">
   <property name="kdenlive:id">6</property>
  </entry>
  <entry producer="producer107" in="00:00:37.133" out="00:00:42.333">
   <property name="kdenlive:id">22</property>
   <filter id="filter58">
    <property name="rotate_center">1</property>
    <property name="mlt_service">qtblend</property>
    <property name="kdenlive_id">qtblend</property>
    <property name="rect">00:00:37.133=716 0 1920 1080 1.000000</property>
    <property name="rotation">00:00:37.133=0</property>
    <property name="compositing">0</property>
    <property name="distort">0</property>
    <property name="kdenlive:collapsed">0</property>
   </filter>
   <filter id="filter59">
    <property name="mirror">horizontal</property>
    <property name="mlt_service">mirror</property>
    <property name="kdenlive_id">mirror</property>
    <property name="reverse">0</property>
    <property name="kdenlive:collapsed">0</property>
   </filter>
  </entry>
  <entry producer="producer107" in="00:01:06.600" out="00:01:09.400">
   <property name="kdenlive:id">22</property>
   <filter id="filter60">
    <property name="version">0.2</property>
    <property name="mlt_service">frei0r.contrast0r</property>
    <property name="kdenlive_id">frei0r.contrast0r</property>
    <property name="Contrast">00:01:06.600=0.546</property>
    <property name="kdenlive:collapsed">0</property>
   </filter>
   <filter id="filter61">
    <property name="rotate_center">1</property>
    <property name="mlt_service">qtblend</property>
    <property name="kdenlive_id">qtblend</property>
    <property name="rect">00:01:06.600=302 0 1920 1080 1.000000</property>
    <property name="rotation">00:01:06.600=0</property>
    <property name="compositing">0</property>
    <property name="distort">0</property>
    <property name="kdenlive:collapsed">0</property>
   </filter>
   <filter id="filter62">
    <property name="mirror">horizontal</property>
    <property name="mlt_service">mirror</property>
    <property name="kdenlive_id">mirror</property>
    <property name="reverse">0</property>
    <property name="kdenlive:collapsed">0</property>
   </filter>
  </entry>
  <entry producer="producer108" in="00:02:18.867" out="00:02:25.867">
   <property name="kdenlive:id">22</property>
   <filter id="filter63">
    <property name="version">0.2</property>
    <property name="mlt_service">frei0r.contrast0r</property>
    <property name="kdenlive_id">frei0r.contrast0r</property>
    <property name="Contrast">00:02:18.867=0.546</property>
    <property name="kdenlive:collapsed">0</property>
   </filter>
   <filter id="filter64">
    <property name="rotate_center">1</property>
    <property name="mlt_service">qtblend</property>
    <property name="kdenlive_id">qtblend</property>
    <property name="rect">00:02:18.867=-712 0 1920 1080 1.000000</property>
    <property name="rotation">00:02:18.867=0</property>
    <property name="compositing">0</property>
    <property name="distort">0</property>
    <property name="kdenlive:collapsed">0</property>
   </filter>
   <filter id="filter65">
    <property name="mirror">horizontal</property>
    <property name="mlt_service">mirror</property>
    <property name="kdenlive_id">mirror</property>
    <property name="reverse">1</property>
    <property name="kdenlive:collapsed">0</property>
   </filter>
  </entry>
  <entry producer="producer109" in="00:02:32.933" out="00:02:37.667">
   <property name="kdenlive:id">22</property>
   <filter id="filter66">
    <property name="version">0.2</property>
    <property name="mlt_service">frei0r.contrast0r</property>
    <property name="kdenlive_id">frei0r.contrast0r</property>
    <property name="Contrast">00:02:32.933=0.546</property>
    <property name="kdenlive:collapsed">0</property>
   </filter>
   <filter id="filter67">
    <property name="rotate_center">1</property>
    <property name="mlt_service">qtblend</property>
    <property name="kdenlive_id">qtblend</property>
    <property name="rect">00:02:32.933=578 0 1920 1080 1.000000</property>
    <property name="rotation">00:02:32.933=0</property>
    <property name="compositing">0</property>
    <property name="distort">0</property>
    <property name="kdenlive:collapsed">0</property>
   </filter>
   <filter id="filter68">
    <property name="mirror">horizontal</property>
    <property name="mlt_service">mirror</property>
    <property name="kdenlive_id">mirror</property>
    <property name="reverse">0</property>
    <property name="kdenlive:collapsed">0</property>
   </filter>
  </entry>
  <entry producer="producer110" in="00:00:22.833" out="00:00:38.500">
   <property name="kdenlive:id">20</property>
   <filter id="filter69">
    <property name="version">0.2</property>
    <property name="mlt_service">frei0r.contrast0r</property>
    <property name="kdenlive_id">frei0r.contrast0r</property>
    <property name="Contrast">00:00:22.833=0.724</property>
    <property name="kdenlive:collapsed">0</property>
   </filter>
   <filter id="filter70">
    <property name="rotate_center">1</property>
    <property name="mlt_service">qtblend</property>
    <property name="kdenlive_id">qtblend</property>
    <property name="rect">00:00:22.833=0 0 1920 1183 1.000000</property>
    <property name="rotation">00:00:22.833=0</property>
    <property name="compositing">0</property>
    <property name="distort">1</property>
    <property name="kdenlive:collapsed">0</property>
   </filter>
  </entry>
  <entry producer="producer111" in="00:03:56.633" out="00:04:00.967">
   <property name="kdenlive:id">23</property>
  </entry>
  <entry producer="producer112" in="00:01:55.567" out="00:02:00.533">
   <property name="kdenlive:id">24</property>
   <filter id="filter71" in="00:01:59.767" out="00:02:00.533">
    <property name="start">1</property>
    <property name="mlt_service">brightness</property>
    <property name="kdenlive_id">fade_to_black</property>
    <property name="end">0</property>
    <property name="alpha">-1</property>
    <property name="kdenlive:collapsed">0</property>
   </filter>
   <filter id="filter72" in="00:01:55.567" out="00:01:56.000">
    <property name="start">0</property>
    <property name="mlt_service">brightness</property>
    <property name="kdenlive_id">fade_from_black</property>
    <property name="end">1</property>
    <property name="alpha">-1</property>
    <property name="kdenlive:collapsed">0</property>
   </filter>
  </entry>
  <entry producer="producer113" in="00:00:04.067" out="00:00:18.700">
   <property name="kdenlive:id">18</property>
   <filter id="filter73" in="00:00:11.767" out="00:00:18.700">
    <property name="start">1</property>
    <property name="mlt_service">brightness</property>
    <property name="kdenlive_id">fade_to_black</property>
    <property name="end">0</property>
    <property name="alpha">-1</property>
    <property name="kdenlive:collapsed">0</property>
   </filter>
   <filter id="filter74" in="00:00:04.067" out="00:00:04.600">
    <property name="start">0</property>
    <property name="mlt_service">brightness</property>
    <property name="kdenlive_id">fade_from_black</property>
    <property name="end">1</property>
    <property name="alpha">-1</property>
    <property name="kdenlive:collapsed">0</property>
   </filter>
  </entry>
 </playlist>
 <playlist id="playlist13"/>
 <tractor id="tractor6" in="00:00:00.000" out="00:05:00.533">
  <property name="kdenlive:trackheight">69</property>
  <property name="kdenlive:timeline_active">0</property>
  <property name="kdenlive:collapsed">28</property>
  <property name="kdenlive:track_name">Humanity2</property>
  <property name="kdenlive:thumbs_format"/>
  <property name="kdenlive:audio_rec"/>
  <property name="kdenlive:locked_track">1</property>
  <track hide="both" producer="playlist12"/>
  <track producer="playlist13"/>
 </tractor>
 <producer id="producer117" in="00:00:00.000" out="00:00:23.000">
  <property name="length">691</property>
  <property name="eof">pause</property>
  <property name="resource">content/footage/2020-10-17_AshbridgesBay_sunrise+clouds+waves_2.MP4</property>
  <property name="audio_index">-1</property>
  <property name="video_index">0</property>
  <property name="mute_on_pause">0</property>
  <property name="mlt_service">avformat-novalidate</property>
  <property name="seekable">1</property>
  <property name="aspect_ratio">1</property>
  <property name="kdenlive:clipname">2020-10-17_AshbridgesBay_sunrise+clouds+waves_2.MP4</property>
  <property name="kdenlive:folderid">138</property>
  <property name="kdenlive:id">37</property>
  <property name="kdenlive:file_size">111570460</property>
  <property name="kdenlive:file_hash">0a99fb75f57218d5139e09e67b05f0f8</property>
  <property name="kdenlive:proxy">-</property>
  <property name="kdenlive:originalurl">content/footage/2020-10-17_AshbridgesBay_sunrise+clouds+waves_2.MP4</property>
  <property name="kdenlive:original.mlt_type">producer</property>
  <property name="kdenlive:original.in">0</property>
  <property name="kdenlive:original.out">690</property>
  <property name="kdenlive:original.length">691</property>
  <property name="kdenlive:original.eof">pause</property>
  <property name="kdenlive:original.resource">/home/ryankelln/Documents/Projects/Active/Sound_Escapes/Dhaivat/footage/2020-10-17_AshbridgesBay_sunrise+clouds+waves_2.MP4</property>
  <property name="kdenlive:original.meta.media.nb_streams">2</property>
  <property name="kdenlive:original.meta.media.0.stream.type">video</property>
  <property name="kdenlive:original.meta.media.0.stream.frame_rate">24</property>
  <property name="kdenlive:original.meta.media.0.stream.sample_aspect_ratio">1</property>
  <property name="kdenlive:original.meta.media.0.codec.width">1920</property>
  <property name="kdenlive:original.meta.media.0.codec.height">1080</property>
  <property name="kdenlive:original.meta.media.0.codec.rotate">0</property>
  <property name="kdenlive:original.meta.media.0.codec.frame_rate">24</property>
  <property name="kdenlive:original.meta.media.0.codec.pix_fmt">yuv420p</property>
  <property name="kdenlive:original.meta.media.0.codec.sample_aspect_ratio">1</property>
  <property name="kdenlive:original.meta.media.0.codec.colorspace">709</property>
  <property name="kdenlive:original.meta.media.0.codec.color_trc">1</property>
  <property name="kdenlive:original.meta.media.0.codec.name">h264</property>
  <property name="kdenlive:original.meta.media.0.codec.long_name">H.264 / AVC / MPEG-4 AVC / MPEG-4 part 10</property>
  <property name="kdenlive:original.meta.media.0.codec.bit_rate">38733598</property>
  <property name="kdenlive:original.meta.attr.0.stream.creation_time.markup">2020-10-17T07:36:40.000000Z</property>
  <property name="kdenlive:original.meta.attr.0.stream.handler_name.markup">VideoHandler</property>
  <property name="kdenlive:original.meta.attr.0.stream.vendor_id.markup">[0][0][0][0]</property>
  <property name="kdenlive:original.meta.attr.0.stream.timecode.markup">08:44:31:15</property>
  <property name="kdenlive:original.meta.attr.major_brand.markup">isom</property>
  <property name="kdenlive:original.meta.attr.minor_version.markup">512</property>
  <property name="kdenlive:original.meta.attr.compatible_brands.markup">isomiso2avc1mp41</property>
  <property name="kdenlive:original.meta.attr.creation_time.markup">2020-10-17T07:36:40.000000Z</property>
  <property name="kdenlive:original.meta.attr.encoder.markup">Lavf58.45.100</property>
  <property name="kdenlive:original.seekable">1</property>
  <property name="kdenlive:original.width">1920</property>
  <property name="kdenlive:original.height">1080</property>
  <property name="kdenlive:original.meta.media.sample_aspect_num">1</property>
  <property name="kdenlive:original.meta.media.sample_aspect_den">1</property>
  <property name="kdenlive:original.aspect_ratio">1</property>
  <property name="kdenlive:original.audio_index">-1</property>
  <property name="kdenlive:original.video_index">0</property>
  <property name="kdenlive:original.mute_on_pause">0</property>
  <property name="kdenlive:original.mlt_service">avformat-novalidate</property>
  <property name="kdenlive:original.kdenlive:folderid">138</property>
  <property name="kdenlive:original.meta.media.frame_rate_num">24</property>
  <property name="kdenlive:original.meta.media.frame_rate_den">1</property>
  <property name="kdenlive:original.meta.media.colorspace">709</property>
  <property name="kdenlive:original.meta.media.color_trc">1</property>
  <property name="kdenlive:original.meta.media.width">1920</property>
  <property name="kdenlive:original.meta.media.height">1080</property>
  <property name="kdenlive:original.meta.media.color_range">mpeg</property>
  <property name="kdenlive:original.kdenlive:id">146</property>
  <property name="kdenlive:original.kdenlive:file_size">111570460</property>
  <property name="kdenlive:original.kdenlive:file_hash">0a99fb75f57218d5139e09e67b05f0f8</property>
  <property name="kdenlive:original.backup">1</property>
  <property name="global_feed">1</property>
  <property name="xml">was here</property>
  <property name="meta.media.nb_streams">1</property>
  <property name="meta.media.0.stream.type">video</property>
  <property name="meta.media.0.stream.frame_rate">24</property>
  <property name="meta.media.0.stream.sample_aspect_ratio">1</property>
  <property name="meta.media.0.codec.width">640</property>
  <property name="meta.media.0.codec.height">360</property>
  <property name="meta.media.0.codec.rotate">0</property>
  <property name="meta.media.0.codec.frame_rate">1000</property>
  <property name="meta.media.0.codec.pix_fmt">yuvj420p</property>
  <property name="meta.media.0.codec.sample_aspect_ratio">1</property>
  <property name="meta.media.0.codec.colorspace">601</property>
  <property name="meta.media.0.codec.color_trc">1</property>
  <property name="meta.media.0.codec.name">mjpeg</property>
  <property name="meta.media.0.codec.long_name">MJPEG (Motion JPEG)</property>
  <property name="meta.media.0.codec.bit_rate">0</property>
  <property name="meta.attr.0.stream.HANDLER_NAME.markup">VideoHandler</property>
  <property name="meta.attr.0.stream.VENDOR_ID.markup">[0][0][0][0]</property>
  <property name="meta.attr.0.stream.TIMECODE.markup">08:44:31:15</property>
  <property name="meta.attr.0.stream.ENCODER.markup">Lavc58.134.100 mjpeg</property>
  <property name="meta.attr.0.stream.DURATION.markup">00:00:23.125000000</property>
  <property name="meta.attr.COMPATIBLE_BRANDS.markup">isomiso2avc1mp41</property>
  <property name="meta.attr.MAJOR_BRAND.markup">isom</property>
  <property name="meta.attr.MINOR_VERSION.markup">512</property>
  <property name="meta.attr.ENCODER.markup">Lavf58.76.100</property>
  <property name="meta.media.sample_aspect_num">1</property>
  <property name="meta.media.sample_aspect_den">1</property>
  <property name="meta.media.frame_rate_num">24</property>
  <property name="meta.media.frame_rate_den">1</property>
  <property name="meta.media.colorspace">601</property>
  <property name="meta.media.color_trc">1</property>
  <property name="meta.media.width">640</property>
  <property name="meta.media.height">360</property>
  <property name="meta.media.color_range">full</property>
  <property name="meta.media.top_field_first">0</property>
  <property name="meta.media.progressive">1</property>
  <property name="set.test_audio">1</property>
  <property name="set.test_image">0</property>
 </producer>
 <producer id="producer118" in="00:00:00.000" out="00:00:11.000">
  <property name="length">331</property>
  <property name="eof">pause</property>
  <property name="resource">content/footage/P1000463.MP4</property>
  <property name="audio_index">-1</property>
  <property name="video_index">0</property>
  <property name="mute_on_pause">0</property>
  <property name="mlt_service">avformat-novalidate</property>
  <property name="seekable">1</property>
  <property name="aspect_ratio">1</property>
  <property name="kdenlive:clipname">P1000463.MP4</property>
  <property name="kdenlive:folderid">138</property>
  <property name="kdenlive:id">33</property>
  <property name="kdenlive:file_size">52720151</property>
  <property name="kdenlive:file_hash">3012fa459f0e0b0a0c89bb8ac2aed072</property>
  <property name="kdenlive:proxy">-</property>
  <property name="kdenlive:originalurl">content/footage/P1000463.MP4</property>
  <property name="kdenlive:original.mlt_type">producer</property>
  <property name="kdenlive:original.in">0</property>
  <property name="kdenlive:original.out">330</property>
  <property name="kdenlive:original.length">331</property>
  <property name="kdenlive:original.eof">pause</property>
  <property name="kdenlive:original.resource">/home/ryankelln/Documents/Projects/Active/Sound_Escapes/Dhaivat/footage/P1000463.MP4</property>
  <property name="kdenlive:original.meta.media.nb_streams">2</property>
  <property name="kdenlive:original.meta.media.0.stream.type">video</property>
  <property name="kdenlive:original.meta.media.0.stream.frame_rate">24</property>
  <property name="kdenlive:original.meta.media.0.stream.sample_aspect_ratio">1</property>
  <property name="kdenlive:original.meta.media.0.codec.width">1920</property>
  <property name="kdenlive:original.meta.media.0.codec.height">1080</property>
  <property name="kdenlive:original.meta.media.0.codec.rotate">0</property>
  <property name="kdenlive:original.meta.media.0.codec.frame_rate">24</property>
  <property name="kdenlive:original.meta.media.0.codec.pix_fmt">yuv420p</property>
  <property name="kdenlive:original.meta.media.0.codec.sample_aspect_ratio">1</property>
  <property name="kdenlive:original.meta.media.0.codec.colorspace">709</property>
  <property name="kdenlive:original.meta.media.0.codec.color_trc">1</property>
  <property name="kdenlive:original.meta.media.0.codec.name">h264</property>
  <property name="kdenlive:original.meta.media.0.codec.long_name">H.264 / AVC / MPEG-4 AVC / MPEG-4 part 10</property>
  <property name="kdenlive:original.meta.media.0.codec.bit_rate">38193358</property>
  <property name="kdenlive:original.meta.attr.0.stream.creation_time.markup">2021-05-16T16:44:39.000000Z</property>
  <property name="kdenlive:original.meta.attr.0.stream.handler_name.markup">VideoHandler</property>
  <property name="kdenlive:original.meta.attr.0.stream.vendor_id.markup">[0][0][0][0]</property>
  <property name="kdenlive:original.meta.attr.0.stream.timecode.markup">08:42:47:15</property>
  <property name="kdenlive:original.meta.attr.major_brand.markup">isom</property>
  <property name="kdenlive:original.meta.attr.minor_version.markup">512</property>
  <property name="kdenlive:original.meta.attr.compatible_brands.markup">isomiso2avc1mp41</property>
  <property name="kdenlive:original.meta.attr.creation_time.markup">2021-05-16T16:44:39.000000Z</property>
  <property name="kdenlive:original.meta.attr.encoder.markup">Lavf58.45.100</property>
  <property name="kdenlive:original.seekable">1</property>
  <property name="kdenlive:original.width">1920</property>
  <property name="kdenlive:original.height">1080</property>
  <property name="kdenlive:original.meta.media.sample_aspect_num">1</property>
  <property name="kdenlive:original.meta.media.sample_aspect_den">1</property>
  <property name="kdenlive:original.aspect_ratio">1</property>
  <property name="kdenlive:original.audio_index">-1</property>
  <property name="kdenlive:original.video_index">0</property>
  <property name="kdenlive:original.mute_on_pause">0</property>
  <property name="kdenlive:original.mlt_service">avformat-novalidate</property>
  <property name="kdenlive:original.kdenlive:folderid">138</property>
  <property name="kdenlive:original.meta.media.frame_rate_num">24</property>
  <property name="kdenlive:original.meta.media.frame_rate_den">1</property>
  <property name="kdenlive:original.meta.media.colorspace">709</property>
  <property name="kdenlive:original.meta.media.color_trc">1</property>
  <property name="kdenlive:original.meta.media.width">1920</property>
  <property name="kdenlive:original.meta.media.height">1080</property>
  <property name="kdenlive:original.meta.media.color_range">mpeg</property>
  <property name="kdenlive:original.kdenlive:id">139</property>
  <property name="kdenlive:original.kdenlive:file_size">52720151</property>
  <property name="kdenlive:original.kdenlive:file_hash">3012fa459f0e0b0a0c89bb8ac2aed072</property>
  <property name="kdenlive:original.backup">1</property>
  <property name="global_feed">1</property>
  <property name="xml">was here</property>
  <property name="meta.media.nb_streams">1</property>
  <property name="meta.media.0.stream.type">video</property>
  <property name="meta.media.0.stream.frame_rate">24</property>
  <property name="meta.media.0.stream.sample_aspect_ratio">1</property>
  <property name="meta.media.0.codec.width">640</property>
  <property name="meta.media.0.codec.height">360</property>
  <property name="meta.media.0.codec.rotate">0</property>
  <property name="meta.media.0.codec.frame_rate">1000</property>
  <property name="meta.media.0.codec.pix_fmt">yuvj420p</property>
  <property name="meta.media.0.codec.sample_aspect_ratio">1</property>
  <property name="meta.media.0.codec.colorspace">601</property>
  <property name="meta.media.0.codec.color_trc">1</property>
  <property name="meta.media.0.codec.name">mjpeg</property>
  <property name="meta.media.0.codec.long_name">MJPEG (Motion JPEG)</property>
  <property name="meta.media.0.codec.bit_rate">0</property>
  <property name="meta.attr.0.stream.HANDLER_NAME.markup">VideoHandler</property>
  <property name="meta.attr.0.stream.VENDOR_ID.markup">[0][0][0][0]</property>
  <property name="meta.attr.0.stream.TIMECODE.markup">08:42:47:15</property>
  <property name="meta.attr.0.stream.ENCODER.markup">Lavc58.134.100 mjpeg</property>
  <property name="meta.attr.0.stream.DURATION.markup">00:00:11.167000000</property>
  <property name="meta.attr.COMPATIBLE_BRANDS.markup">isomiso2avc1mp41</property>
  <property name="meta.attr.MAJOR_BRAND.markup">isom</property>
  <property name="meta.attr.MINOR_VERSION.markup">512</property>
  <property name="meta.attr.ENCODER.markup">Lavf58.76.100</property>
  <property name="meta.media.sample_aspect_num">1</property>
  <property name="meta.media.sample_aspect_den">1</property>
  <property name="meta.media.frame_rate_num">24</property>
  <property name="meta.media.frame_rate_den">1</property>
  <property name="meta.media.colorspace">601</property>
  <property name="meta.media.color_trc">1</property>
  <property name="meta.media.width">640</property>
  <property name="meta.media.height">360</property>
  <property name="meta.media.color_range">full</property>
  <property name="meta.media.top_field_first">0</property>
  <property name="meta.media.progressive">1</property>
  <property name="set.test_audio">1</property>
  <property name="set.test_image">0</property>
 </producer>
 <producer id="producer119" in="00:00:00.000" out="00:00:08.400">
  <property name="length">253</property>
  <property name="eof">pause</property>
  <property name="resource">content/footage/2021-04-24_Toronto_flowers.mp4</property>
  <property name="audio_index">1</property>
  <property name="video_index">0</property>
  <property name="mute_on_pause">0</property>
  <property name="mlt_service">avformat-novalidate</property>
  <property name="seekable">1</property>
  <property name="aspect_ratio">1</property>
  <property name="kdenlive:clipname">2021-04-24_Toronto_flowers.mp4</property>
  <property name="kdenlive:folderid">138</property>
  <property name="kdenlive:id">36</property>
  <property name="kdenlive:file_size">18271081</property>
  <property name="kdenlive:file_hash">86a5714cf8ad4847880130b54aca20f4</property>
  <property name="kdenlive:proxy">-</property>
  <property name="kdenlive:originalurl">content/footage/2021-04-24_Toronto_flowers.mp4</property>
  <property name="kdenlive:original.mlt_type">producer</property>
  <property name="kdenlive:original.in">0</property>
  <property name="kdenlive:original.out">252</property>
  <property name="kdenlive:original.length">253</property>
  <property name="kdenlive:original.eof">pause</property>
  <property name="kdenlive:original.resource">/home/ryankelln/Documents/Projects/Active/Sound_Escapes/Dhaivat/footage/2021-04-24_Toronto_flowers.mp4</property>
  <property name="kdenlive:original.meta.media.nb_streams">2</property>
  <property name="kdenlive:original.meta.media.0.stream.type">video</property>
  <property name="kdenlive:original.meta.media.0.stream.frame_rate">29.9191</property>
  <property name="kdenlive:original.meta.media.0.stream.sample_aspect_ratio">1</property>
  <property name="kdenlive:original.meta.media.0.codec.width">1920</property>
  <property name="kdenlive:original.meta.media.0.codec.height">1080</property>
  <property name="kdenlive:original.meta.media.0.codec.rotate">0</property>
  <property name="kdenlive:original.meta.media.0.codec.frame_rate">90000</property>
  <property name="kdenlive:original.meta.media.0.codec.pix_fmt">yuv420p</property>
  <property name="kdenlive:original.meta.media.0.codec.sample_aspect_ratio">0</property>
  <property name="kdenlive:original.meta.media.0.codec.colorspace">709</property>
  <property name="kdenlive:original.meta.media.0.codec.name">h264</property>
  <property name="kdenlive:original.meta.media.0.codec.long_name">H.264 / AVC / MPEG-4 AVC / MPEG-4 part 10</property>
  <property name="kdenlive:original.meta.media.0.codec.bit_rate">17089582</property>
  <property name="kdenlive:original.meta.attr.0.stream.creation_time.markup">2021-04-24T16:35:48.000000Z</property>
  <property name="kdenlive:original.meta.attr.0.stream.language.markup">eng</property>
  <property name="kdenlive:original.meta.attr.0.stream.handler_name.markup">VideoHandle</property>
  <property name="kdenlive:original.meta.attr.0.stream.vendor_id.markup">[0][0][0][0]</property>
  <property name="kdenlive:original.meta.media.1.stream.type">audio</property>
  <property name="kdenlive:original.meta.media.1.codec.sample_fmt">fltp</property>
  <property name="kdenlive:original.meta.media.1.codec.sample_rate">48000</property>
  <property name="kdenlive:original.meta.media.1.codec.channels">2</property>
  <property name="kdenlive:original.meta.media.1.codec.name">aac</property>
  <property name="kdenlive:original.meta.media.1.codec.long_name">AAC (Advanced Audio Coding)</property>
  <property name="kdenlive:original.meta.media.1.codec.bit_rate">256009</property>
  <property name="kdenlive:original.meta.attr.1.stream.creation_time.markup">2021-04-24T16:35:48.000000Z</property>
  <property name="kdenlive:original.meta.attr.1.stream.language.markup">eng</property>
  <property name="kdenlive:original.meta.attr.1.stream.handler_name.markup">SoundHandle</property>
  <property name="kdenlive:original.meta.attr.1.stream.vendor_id.markup">[0][0][0][0]</property>
  <property name="kdenlive:original.meta.attr.major_brand.markup">isom</property>
  <property name="kdenlive:original.meta.attr.minor_version.markup">512</property>
  <property name="kdenlive:original.meta.attr.compatible_brands.markup">isomiso2avc1mp41</property>
  <property name="kdenlive:original.meta.attr.creation_time.markup">2021-04-24T16:35:48.000000Z</property>
  <property name="kdenlive:original.meta.attr.encoder.markup">Lavf58.45.100</property>
  <property name="kdenlive:original.meta.attr.location-eng.markup">+43.6433-079.4404/</property>
  <property name="kdenlive:original.meta.attr.location.markup">+43.6433-079.4404/</property>
  <property name="kdenlive:original.seekable">1</property>
  <property name="kdenlive:original.width">1920</property>
  <property name="kdenlive:original.height">1080</property>
  <property name="kdenlive:original.meta.media.sample_aspect_num">1</property>
  <property name="kdenlive:original.meta.media.sample_aspect_den">1</property>
  <property name="kdenlive:original.aspect_ratio">1</property>
  <property name="kdenlive:original.audio_index">1</property>
  <property name="kdenlive:original.video_index">0</property>
  <property name="kdenlive:original.mute_on_pause">0</property>
  <property name="kdenlive:original.mlt_service">avformat-novalidate</property>
  <property name="kdenlive:original.kdenlive:folderid">138</property>
  <property name="kdenlive:original.meta.media.frame_rate_num">2520000</property>
  <property name="kdenlive:original.meta.media.frame_rate_den">84227</property>
  <property name="kdenlive:original.meta.media.colorspace">709</property>
  <property name="kdenlive:original.meta.media.color_trc">2</property>
  <property name="kdenlive:original.meta.media.width">1920</property>
  <property name="kdenlive:original.meta.media.height">1080</property>
  <property name="kdenlive:original.meta.media.color_range">mpeg</property>
  <property name="kdenlive:original.kdenlive:id">143</property>
  <property name="kdenlive:original.kdenlive:file_size">18271081</property>
  <property name="kdenlive:original.kdenlive:file_hash">86a5714cf8ad4847880130b54aca20f4</property>
  <property name="kdenlive:original.backup">1</property>
  <property name="kdenlive:audio_max">27</property>
  <property name="global_feed">1</property>
  <property name="kdenlive:active_streams">-1</property>
  <property name="xml">was here</property>
  <property name="meta.media.nb_streams">2</property>
  <property name="meta.media.0.stream.type">video</property>
  <property name="meta.media.0.stream.frame_rate">30</property>
  <property name="meta.media.0.stream.sample_aspect_ratio">1</property>
  <property name="meta.media.0.codec.width">640</property>
  <property name="meta.media.0.codec.height">360</property>
  <property name="meta.media.0.codec.rotate">0</property>
  <property name="meta.media.0.codec.frame_rate">1000</property>
  <property name="meta.media.0.codec.pix_fmt">yuvj420p</property>
  <property name="meta.media.0.codec.sample_aspect_ratio">1</property>
  <property name="meta.media.0.codec.colorspace">601</property>
  <property name="meta.media.0.codec.name">mjpeg</property>
  <property name="meta.media.0.codec.long_name">MJPEG (Motion JPEG)</property>
  <property name="meta.media.0.codec.bit_rate">0</property>
  <property name="meta.attr.0.stream.language.markup">eng</property>
  <property name="meta.attr.0.stream.HANDLER_NAME.markup">VideoHandle</property>
  <property name="meta.attr.0.stream.VENDOR_ID.markup">[0][0][0][0]</property>
  <property name="meta.attr.0.stream.ENCODER.markup">Lavc58.134.100 mjpeg</property>
  <property name="meta.attr.0.stream.DURATION.markup">00:00:08.433000000</property>
  <property name="meta.media.1.stream.type">audio</property>
  <property name="meta.media.1.codec.sample_fmt">s16</property>
  <property name="meta.media.1.codec.sample_rate">48000</property>
  <property name="meta.media.1.codec.channels">2</property>
  <property name="meta.media.1.codec.name">pcm_s16le</property>
  <property name="meta.media.1.codec.long_name">PCM signed 16-bit little-endian</property>
  <property name="meta.media.1.codec.bit_rate">1536000</property>
  <property name="meta.attr.1.stream.language.markup">eng</property>
  <property name="meta.attr.1.stream.HANDLER_NAME.markup">SoundHandle</property>
  <property name="meta.attr.1.stream.VENDOR_ID.markup">[0][0][0][0]</property>
  <property name="meta.attr.1.stream.ENCODER.markup">Lavc58.134.100 pcm_s16le</property>
  <property name="meta.attr.1.stream.DURATION.markup">00:00:08.384000000</property>
  <property name="meta.attr.LOCATION-eng.markup">+43.6433-079.4404/</property>
  <property name="meta.attr.MAJOR_BRAND.markup">isom</property>
  <property name="meta.attr.MINOR_VERSION.markup">512</property>
  <property name="meta.attr.COMPATIBLE_BRANDS.markup">isomiso2avc1mp41</property>
  <property name="meta.attr.LOCATION.markup">+43.6433-079.4404/</property>
  <property name="meta.attr.ENCODER.markup">Lavf58.76.100</property>
  <property name="meta.media.sample_aspect_num">1</property>
  <property name="meta.media.sample_aspect_den">1</property>
  <property name="meta.media.frame_rate_num">30</property>
  <property name="meta.media.frame_rate_den">1</property>
  <property name="meta.media.colorspace">601</property>
  <property name="meta.media.color_trc">2</property>
  <property name="meta.media.width">640</property>
  <property name="meta.media.height">360</property>
  <property name="meta.media.color_range">full</property>
  <property name="meta.media.top_field_first">0</property>
  <property name="meta.media.progressive">1</property>
  <property name="set.test_audio">1</property>
  <property name="set.test_image">0</property>
 </producer>
 <producer id="producer120" in="00:00:00.000" out="00:07:39.900">
  <property name="length">13798</property>
  <property name="eof">pause</property>
  <property name="resource">content/footage/Wheelsof1950_edit-cut-merged-1623166332367.mp4</property>
  <property name="audio_index">-1</property>
  <property name="video_index">0</property>
  <property name="mute_on_pause">0</property>
  <property name="mlt_service">avformat-novalidate</property>
  <property name="seekable">1</property>
  <property name="aspect_ratio">1</property>
  <property name="kdenlive:clipname"/>
  <property name="kdenlive:folderid">84</property>
  <property name="kdenlive:id">21</property>
  <property name="kdenlive:file_size">132221478</property>
  <property name="kdenlive:file_hash">0e0f79cb48cbe60acee6e0f93c95ac98</property>
  <property name="kdenlive:thumbnailFrame">115</property>
  <property name="kdenlive:zone_in">759</property>
  <property name="kdenlive:zone_out">1011</property>
  <property name="kdenlive:clipzones">[
    {
        "in": 759,
        "name": "horse and plow",
        "out": 1011
    }
]
</property>
  <property name="global_feed">1</property>
  <property name="xml">was here</property>
  <property name="meta.media.nb_streams">1</property>
  <property name="meta.media.0.stream.type">video</property>
  <property name="meta.media.0.stream.frame_rate">29.9699</property>
  <property name="meta.media.0.stream.sample_aspect_ratio">1</property>
  <property name="meta.media.0.codec.width">320</property>
  <property name="meta.media.0.codec.height">240</property>
  <property name="meta.media.0.codec.rotate">0</property>
  <property name="meta.media.0.codec.frame_rate">2997</property>
  <property name="meta.media.0.codec.pix_fmt">yuv420p</property>
  <property name="meta.media.0.codec.sample_aspect_ratio">1</property>
  <property name="meta.media.0.codec.colorspace">601</property>
  <property name="meta.media.0.codec.name">mpeg4</property>
  <property name="meta.media.0.codec.long_name">MPEG-4 part 2</property>
  <property name="meta.media.0.codec.bit_rate">2298771</property>
  <property name="meta.attr.0.stream.language.markup">eng</property>
  <property name="meta.attr.0.stream.handler_name.markup">VideoHandler</property>
  <property name="meta.attr.0.stream.vendor_id.markup">[0][0][0][0]</property>
  <property name="meta.attr.major_brand.markup">isom</property>
  <property name="meta.attr.minor_version.markup">512</property>
  <property name="meta.attr.compatible_brands.markup">isomiso2mp41</property>
  <property name="meta.attr.encoder.markup">Lavf58.45.100</property>
  <property name="meta.media.sample_aspect_num">1</property>
  <property name="meta.media.sample_aspect_den">1</property>
  <property name="meta.media.frame_rate_num">68920000</property>
  <property name="meta.media.frame_rate_den">2299639</property>
  <property name="meta.media.colorspace">601</property>
  <property name="meta.media.color_trc">2</property>
  <property name="meta.media.width">320</property>
  <property name="meta.media.height">240</property>
  <property name="meta.media.color_range">mpeg</property>
  <property name="meta.media.top_field_first">0</property>
  <property name="meta.media.progressive">1</property>
  <property name="set.test_audio">1</property>
  <property name="set.test_image">0</property>
 </producer>
 <producer id="producer121" in="00:00:00.000" out="00:03:08.700">
  <property name="length">5662</property>
  <property name="eof">pause</property>
  <property name="resource">2.43704:content/footage/Wheelsof1950_edit-cut-merged-1623166332367.mp4</property>
  <property name="aspect_ratio">1</property>
  <property name="meta.media.nb_streams">1</property>
  <property name="meta.media.0.stream.type">video</property>
  <property name="meta.media.0.stream.frame_rate">29.9699</property>
  <property name="meta.media.0.stream.sample_aspect_ratio">1</property>
  <property name="meta.media.0.codec.width">320</property>
  <property name="meta.media.0.codec.height">240</property>
  <property name="meta.media.0.codec.rotate">0</property>
  <property name="meta.media.0.codec.frame_rate">2997</property>
  <property name="meta.media.0.codec.pix_fmt">yuv420p</property>
  <property name="meta.media.0.codec.sample_aspect_ratio">1</property>
  <property name="meta.media.0.codec.colorspace">601</property>
  <property name="meta.media.0.codec.name">mpeg4</property>
  <property name="meta.media.0.codec.long_name">MPEG-4 part 2</property>
  <property name="meta.media.0.codec.bit_rate">2298771</property>
  <property name="meta.attr.0.stream.language.markup">eng</property>
  <property name="meta.attr.0.stream.handler_name.markup">VideoHandler</property>
  <property name="meta.attr.major_brand.markup">isom</property>
  <property name="meta.attr.minor_version.markup">512</property>
  <property name="meta.attr.compatible_brands.markup">isomiso2mp41</property>
  <property name="meta.attr.encoder.markup">Lavf58.45.100</property>
  <property name="seekable">1</property>
  <property name="meta.media.sample_aspect_num">1</property>
  <property name="meta.media.sample_aspect_den">1</property>
  <property name="audio_index">-1</property>
  <property name="video_index">0</property>
  <property name="mute_on_pause">1</property>
  <property name="warp_speed">2.43704</property>
  <property name="warp_resource">content/footage/Wheelsof1950_edit-cut-merged-1623166332367.mp4</property>
  <property name="mlt_service">timewarp</property>
  <property name="meta.attr.0.stream.vendor_id.markup">[0][0][0][0]</property>
  <property name="set.test_audio">1</property>
  <property name="set.test_image">0</property>
  <property name="kdenlive:id">21</property>
  <property name="warp_pitch">0</property>
  <property name="meta.media.frame_rate_num">68920000</property>
  <property name="meta.media.frame_rate_den">2299639</property>
  <property name="meta.media.colorspace">601</property>
  <property name="meta.media.color_trc">2</property>
  <property name="meta.media.width">320</property>
  <property name="meta.media.height">240</property>
  <property name="meta.media.color_range">mpeg</property>
 </producer>
 <producer id="producer122" in="00:00:00.000" out="00:09:42.133">
  <property name="length">17466</property>
  <property name="eof">pause</property>
  <property name="resource">0.79:content/footage/Wheelsof1950_edit-cut-merged-1623166332367.mp4</property>
  <property name="aspect_ratio">1</property>
  <property name="meta.media.nb_streams">1</property>
  <property name="meta.media.0.stream.type">video</property>
  <property name="meta.media.0.stream.frame_rate">29.9699</property>
  <property name="meta.media.0.stream.sample_aspect_ratio">1</property>
  <property name="meta.media.0.codec.width">320</property>
  <property name="meta.media.0.codec.height">240</property>
  <property name="meta.media.0.codec.rotate">0</property>
  <property name="meta.media.0.codec.frame_rate">2997</property>
  <property name="meta.media.0.codec.pix_fmt">yuv420p</property>
  <property name="meta.media.0.codec.sample_aspect_ratio">1</property>
  <property name="meta.media.0.codec.colorspace">601</property>
  <property name="meta.media.0.codec.name">mpeg4</property>
  <property name="meta.media.0.codec.long_name">MPEG-4 part 2</property>
  <property name="meta.media.0.codec.bit_rate">2298771</property>
  <property name="meta.attr.0.stream.language.markup">eng</property>
  <property name="meta.attr.0.stream.handler_name.markup">VideoHandler</property>
  <property name="meta.attr.major_brand.markup">isom</property>
  <property name="meta.attr.minor_version.markup">512</property>
  <property name="meta.attr.compatible_brands.markup">isomiso2mp41</property>
  <property name="meta.attr.encoder.markup">Lavf58.45.100</property>
  <property name="seekable">1</property>
  <property name="meta.media.sample_aspect_num">1</property>
  <property name="meta.media.sample_aspect_den">1</property>
  <property name="audio_index">-1</property>
  <property name="video_index">0</property>
  <property name="mute_on_pause">1</property>
  <property name="warp_speed">0.79</property>
  <property name="warp_resource">content/footage/Wheelsof1950_edit-cut-merged-1623166332367.mp4</property>
  <property name="mlt_service">timewarp</property>
  <property name="meta.attr.0.stream.vendor_id.markup">[0][0][0][0]</property>
  <property name="set.test_audio">1</property>
  <property name="set.test_image">0</property>
  <property name="kdenlive:id">21</property>
  <property name="warp_pitch">0</property>
  <property name="meta.media.frame_rate_num">68920000</property>
  <property name="meta.media.frame_rate_den">2299639</property>
  <property name="meta.media.colorspace">601</property>
  <property name="meta.media.color_trc">2</property>
  <property name="meta.media.width">320</property>
  <property name="meta.media.height">240</property>
  <property name="meta.media.color_range">mpeg</property>
  <property name="meta.media.top_field_first">0</property>
  <property name="meta.media.progressive">1</property>
 </producer>
 <producer id="producer123" in="00:00:00.000" out="00:08:26.400">
  <property name="length">15193</property>
  <property name="eof">pause</property>
  <property name="resource">content/footage/Air Pollution HD Stock Video _ Free stock footage _ Free HD Videos - No Copyright _ Channel PMI-lq4ivmk9llM.mkv</property>
  <property name="audio_index">1</property>
  <property name="video_index">0</property>
  <property name="mute_on_pause">0</property>
  <property name="mlt_service">avformat-novalidate</property>
  <property name="seekable">1</property>
  <property name="aspect_ratio">1</property>
  <property name="kdenlive:clipname">Air Pollution HD Stock Video _ Free stock footage _ Free HD Videos - No Copyright _ Channel PMI-lq4ivmk9llM.mkv</property>
  <property name="kdenlive:folderid">84</property>
  <property name="kdenlive:id">7</property>
  <property name="kdenlive:file_size">716063831</property>
  <property name="kdenlive:file_hash">4feab2e10d8a80a2d2087eba7f4c2a96</property>
  <property name="kdenlive:audio_max">1</property>
  <property name="kdenlive:active_streams">-1</property>
  <property name="global_feed">1</property>
  <property name="kdenlive:proxy">-</property>
  <property name="kdenlive:originalurl">content/footage/Air Pollution HD Stock Video _ Free stock footage _ Free HD Videos - No Copyright _ Channel PMI-lq4ivmk9llM.mkv</property>
  <property name="kdenlive:original.mlt_type">mlt_producer</property>
  <property name="kdenlive:original.in">00:00:00.000</property>
  <property name="kdenlive:original.out">00:08:26.400</property>
  <property name="kdenlive:original.length">15193</property>
  <property name="kdenlive:original.eof">pause</property>
  <property name="kdenlive:original.resource">/home/ryankelln/Documents/Projects/Active/Sound_Escapes/Dhaivat/footage/Air Pollution HD Stock Video _ Free stock footage _ Free HD Videos - No Copyright _ Channel PMI-lq4ivmk9llM.mkv</property>
  <property name="kdenlive:original.audio_index">1</property>
  <property name="kdenlive:original.video_index">0</property>
  <property name="kdenlive:original.mute_on_pause">0</property>
  <property name="kdenlive:original.mlt_service">avformat-novalidate</property>
  <property name="kdenlive:original.id">producer15</property>
  <property name="kdenlive:original.meta.media.nb_streams">2</property>
  <property name="kdenlive:original.meta.media.0.stream.type">video</property>
  <property name="kdenlive:original.meta.media.0.stream.frame_rate">29.939</property>
  <property name="kdenlive:original.meta.media.0.stream.sample_aspect_ratio">1</property>
  <property name="kdenlive:original.meta.media.0.codec.width">3840</property>
  <property name="kdenlive:original.meta.media.0.codec.height">2160</property>
  <property name="kdenlive:original.meta.media.0.codec.rotate">0</property>
  <property name="kdenlive:original.meta.media.0.codec.frame_rate">1000</property>
  <property name="kdenlive:original.meta.media.0.codec.pix_fmt">yuv420p</property>
  <property name="kdenlive:original.meta.media.0.codec.sample_aspect_ratio">0</property>
  <property name="kdenlive:original.meta.media.0.codec.colorspace">709</property>
  <property name="kdenlive:original.meta.media.0.codec.color_trc">1</property>
  <property name="kdenlive:original.meta.media.0.codec.name">vp9</property>
  <property name="kdenlive:original.meta.media.0.codec.long_name">Google VP9</property>
  <property name="kdenlive:original.meta.media.0.codec.bit_rate">0</property>
  <property name="kdenlive:original.meta.attr.0.stream.language.markup">eng</property>
  <property name="kdenlive:original.meta.attr.0.stream.DURATION.markup">00:08:26.363000000</property>
  <property name="kdenlive:original.meta.media.1.stream.type">audio</property>
  <property name="kdenlive:original.meta.media.1.codec.sample_fmt">fltp</property>
  <property name="kdenlive:original.meta.media.1.codec.sample_rate">44100</property>
  <property name="kdenlive:original.meta.media.1.codec.channels">2</property>
  <property name="kdenlive:original.meta.media.1.codec.name">aac</property>
  <property name="kdenlive:original.meta.media.1.codec.long_name">AAC (Advanced Audio Coding)</property>
  <property name="kdenlive:original.meta.media.1.codec.bit_rate">0</property>
  <property name="kdenlive:original.meta.attr.1.stream.HANDLER_NAME.markup">ISO Media file produced by Google Inc.</property>
  <property name="kdenlive:original.meta.attr.1.stream.DURATION.markup">00:08:26.427000000</property>
  <property name="kdenlive:original.meta.attr.ENCODER.markup">Lavf58.45.100</property>
  <property name="kdenlive:original.seekable">1</property>
  <property name="kdenlive:original.meta.media.sample_aspect_num">1</property>
  <property name="kdenlive:original.meta.media.sample_aspect_den">1</property>
  <property name="kdenlive:original.aspect_ratio">1</property>
  <property name="kdenlive:original.kdenlive:folderid">63</property>
  <property name="kdenlive:original.meta.media.frame_rate_num">29939</property>
  <property name="kdenlive:original.meta.media.frame_rate_den">1000</property>
  <property name="kdenlive:original.meta.media.colorspace">709</property>
  <property name="kdenlive:original.meta.media.color_trc">1</property>
  <property name="kdenlive:original.meta.media.width">3840</property>
  <property name="kdenlive:original.meta.media.height">2160</property>
  <property name="kdenlive:original.meta.media.color_range">mpeg</property>
  <property name="kdenlive:original.kdenlive:id">16</property>
  <property name="kdenlive:original.kdenlive:file_size">716063831</property>
  <property name="kdenlive:original.kdenlive:file_hash">4feab2e10d8a80a2d2087eba7f4c2a96</property>
  <property name="kdenlive:original.kdenlive:audio_max">1</property>
  <property name="kdenlive:original.meta.media.top_field_first">0</property>
  <property name="kdenlive:original.meta.media.progressive">1</property>
  <property name="kdenlive:original.kdenlive:active_streams">-1</property>
  <property name="kdenlive:original.global_feed">1</property>
  <property name="kdenlive:original.width">3840</property>
  <property name="kdenlive:original.height">2160</property>
  <property name="kdenlive:original.root">/</property>
  <property name="kdenlive:original.backup">1</property>
  <property name="kdenlive:zone_in">13193</property>
  <property name="kdenlive:zone_out">15107</property>
  <property name="kdenlive:clipzones">[
    {
        "in": 0,
        "name": "city1",
        "out": 500
    },
    {
        "in": 501,
        "name": "smoke from above",
        "out": 690
    },
    {
        "in": 691,
        "name": "night smoke",
        "out": 1085
    },
    {
        "in": 1086,
        "name": "highway pollution",
        "out": 1646
    },
    {
        "in": 1652,
        "name": "grey smog",
        "out": 2704
    },
    {
        "in": 2858,
        "name": "smokestack",
        "out": 3868
    },
    {
        "in": 5218,
        "name": "sunrise smoke and rice",
        "out": 6576
    },
    {
        "in": 6577,
        "name": "traffic timelapse",
        "out": 7883
    },
    {
        "in": 11270,
        "name": "drone factory 1",
        "out": 13183
    },
    {
        "in": 13193,
        "name": "drone factory 2",
        "out": 15107
    }
]
</property>
  <property name="xml">was here</property>
  <property name="meta.media.nb_streams">2</property>
  <property name="meta.media.0.stream.type">video</property>
  <property name="meta.media.0.stream.frame_rate">29.939</property>
  <property name="meta.media.0.stream.sample_aspect_ratio">1</property>
  <property name="meta.media.0.codec.width">640</property>
  <property name="meta.media.0.codec.height">360</property>
  <property name="meta.media.0.codec.rotate">0</property>
  <property name="meta.media.0.codec.frame_rate">1000</property>
  <property name="meta.media.0.codec.pix_fmt">yuvj420p</property>
  <property name="meta.media.0.codec.sample_aspect_ratio">1</property>
  <property name="meta.media.0.codec.colorspace">601</property>
  <property name="meta.media.0.codec.color_trc">1</property>
  <property name="meta.media.0.codec.name">mjpeg</property>
  <property name="meta.media.0.codec.long_name">MJPEG (Motion JPEG)</property>
  <property name="meta.media.0.codec.bit_rate">0</property>
  <property name="meta.attr.0.stream.language.markup">eng</property>
  <property name="meta.attr.0.stream.ENCODER.markup">Lavc58.134.100 mjpeg</property>
  <property name="meta.attr.0.stream.DURATION.markup">00:08:26.363000000</property>
  <property name="meta.media.1.stream.type">audio</property>
  <property name="meta.media.1.codec.sample_fmt">s16</property>
  <property name="meta.media.1.codec.sample_rate">44100</property>
  <property name="meta.media.1.codec.channels">2</property>
  <property name="meta.media.1.codec.name">pcm_s16le</property>
  <property name="meta.media.1.codec.long_name">PCM signed 16-bit little-endian</property>
  <property name="meta.media.1.codec.bit_rate">1411200</property>
  <property name="meta.attr.1.stream.HANDLER_NAME.markup">ISO Media file produced by Google Inc.</property>
  <property name="meta.attr.1.stream.ENCODER.markup">Lavc58.134.100 pcm_s16le</property>
  <property name="meta.attr.1.stream.DURATION.markup">00:08:26.427000000</property>
  <property name="meta.attr.ENCODER.markup">Lavf58.76.100</property>
  <property name="meta.media.sample_aspect_num">1</property>
  <property name="meta.media.sample_aspect_den">1</property>
  <property name="meta.media.frame_rate_num">29939</property>
  <property name="meta.media.frame_rate_den">1000</property>
  <property name="meta.media.colorspace">601</property>
  <property name="meta.media.color_trc">1</property>
  <property name="meta.media.width">640</property>
  <property name="meta.media.height">360</property>
  <property name="meta.media.color_range">full</property>
  <property name="meta.media.top_field_first">0</property>
  <property name="meta.media.progressive">1</property>
  <property name="set.test_audio">1</property>
  <property name="set.test_image">0</property>
 </producer>
 <producer id="producer124" in="00:00:00.000" out="00:02:06.567">
  <property name="length">3798</property>
  <property name="eof">pause</property>
  <property name="resource">4:content/footage/Air Pollution HD Stock Video _ Free stock footage _ Free HD Videos - No Copyright _ Channel PMI-lq4ivmk9llM.mkv</property>
  <property name="aspect_ratio">1</property>
  <property name="meta.media.nb_streams">2</property>
  <property name="meta.media.0.stream.type">video</property>
  <property name="meta.media.0.stream.frame_rate">29.939</property>
  <property name="meta.media.0.stream.sample_aspect_ratio">1</property>
  <property name="meta.media.0.codec.width">640</property>
  <property name="meta.media.0.codec.height">360</property>
  <property name="meta.media.0.codec.rotate">0</property>
  <property name="meta.media.0.codec.frame_rate">1000</property>
  <property name="meta.media.0.codec.pix_fmt">yuvj420p</property>
  <property name="meta.media.0.codec.sample_aspect_ratio">1</property>
  <property name="meta.media.0.codec.colorspace">601</property>
  <property name="meta.media.0.codec.color_trc">1</property>
  <property name="meta.media.0.codec.name">mjpeg</property>
  <property name="meta.media.0.codec.long_name">MJPEG (Motion JPEG)</property>
  <property name="meta.media.0.codec.bit_rate">0</property>
  <property name="meta.attr.0.stream.language.markup">eng</property>
  <property name="meta.attr.0.stream.DURATION.markup">00:08:26.363000000</property>
  <property name="meta.media.1.stream.type">audio</property>
  <property name="meta.media.1.codec.sample_fmt">s16</property>
  <property name="meta.media.1.codec.sample_rate">44100</property>
  <property name="meta.media.1.codec.channels">2</property>
  <property name="meta.media.1.codec.name">pcm_s16le</property>
  <property name="meta.media.1.codec.long_name">PCM signed 16-bit little-endian</property>
  <property name="meta.media.1.codec.bit_rate">1411200</property>
  <property name="meta.attr.1.stream.HANDLER_NAME.markup">ISO Media file produced by Google Inc.</property>
  <property name="meta.attr.1.stream.DURATION.markup">00:08:26.427000000</property>
  <property name="meta.attr.ENCODER.markup">Lavf58.76.100</property>
  <property name="seekable">1</property>
  <property name="meta.media.sample_aspect_num">1</property>
  <property name="meta.media.sample_aspect_den">1</property>
  <property name="audio_index">1</property>
  <property name="video_index">0</property>
  <property name="mute_on_pause">1</property>
  <property name="warp_speed">4</property>
  <property name="warp_resource">content/footage/Air Pollution HD Stock Video _ Free stock footage _ Free HD Videos - No Copyright _ Channel PMI-lq4ivmk9llM.mkv</property>
  <property name="mlt_service">timewarp</property>
  <property name="meta.attr.0.stream.ENCODER.markup">Lavc58.134.100 mjpeg</property>
  <property name="meta.attr.1.stream.ENCODER.markup">Lavc58.134.100 pcm_s16le</property>
  <property name="kdenlive:proxy">-</property>
  <property name="kdenlive:originalurl">content/footage/Air Pollution HD Stock Video _ Free stock footage _ Free HD Videos - No Copyright _ Channel PMI-lq4ivmk9llM.mkv</property>
  <property name="set.test_audio">1</property>
  <property name="set.test_image">0</property>
  <property name="kdenlive:id">7</property>
  <property name="warp_pitch">0</property>
  <property name="meta.media.frame_rate_num">29939</property>
  <property name="meta.media.frame_rate_den">1000</property>
  <property name="meta.media.colorspace">601</property>
  <property name="meta.media.color_trc">1</property>
  <property name="meta.media.width">640</property>
  <property name="meta.media.height">360</property>
  <property name="meta.media.color_range">full</property>
  <property name="meta.media.top_field_first">0</property>
  <property name="meta.media.progressive">1</property>
 </producer>
 <producer id="producer125" in="00:00:00.000" out="00:00:20.933">
  <property name="length">629</property>
  <property name="eof">pause</property>
  <property name="resource">content/footage/Newyork Night View Free Footage Clip-3iasQGbmGYg.mp4</property>
  <property name="audio_index">1</property>
  <property name="video_index">0</property>
  <property name="mute_on_pause">0</property>
  <property name="mlt_service">avformat-novalidate</property>
  <property name="seekable">1</property>
  <property name="aspect_ratio">1</property>
  <property name="kdenlive:clipname">Newyork Night View Free Footage Clip-3iasQGbmGYg.mp4</property>
  <property name="kdenlive:folderid">84</property>
  <property name="kdenlive:id">19</property>
  <property name="kdenlive:file_size">6265928</property>
  <property name="kdenlive:file_hash">a5ec45f07650056dfda921022248f127</property>
  <property name="kdenlive:proxy">-</property>
  <property name="kdenlive:originalurl">content/footage/Newyork Night View Free Footage Clip-3iasQGbmGYg.mp4</property>
  <property name="kdenlive:original.mlt_type">producer</property>
  <property name="kdenlive:original.in">0</property>
  <property name="kdenlive:original.out">628</property>
  <property name="kdenlive:original.length">629</property>
  <property name="kdenlive:original.eof">pause</property>
  <property name="kdenlive:original.resource">/home/ryankelln/Documents/Projects/Active/Sound_Escapes/Dhaivat/footage/Newyork Night View Free Footage Clip-3iasQGbmGYg.mp4</property>
  <property name="kdenlive:original.meta.media.nb_streams">2</property>
  <property name="kdenlive:original.meta.media.0.stream.type">video</property>
  <property name="kdenlive:original.meta.media.0.stream.frame_rate">30</property>
  <property name="kdenlive:original.meta.media.0.stream.sample_aspect_ratio">1</property>
  <property name="kdenlive:original.meta.media.0.codec.width">1280</property>
  <property name="kdenlive:original.meta.media.0.codec.height">720</property>
  <property name="kdenlive:original.meta.media.0.codec.rotate">0</property>
  <property name="kdenlive:original.meta.media.0.codec.frame_rate">30</property>
  <property name="kdenlive:original.meta.media.0.codec.pix_fmt">yuv420p</property>
  <property name="kdenlive:original.meta.media.0.codec.sample_aspect_ratio">1</property>
  <property name="kdenlive:original.meta.media.0.codec.colorspace">709</property>
  <property name="kdenlive:original.meta.media.0.codec.color_trc">1</property>
  <property name="kdenlive:original.meta.media.0.codec.name">h264</property>
  <property name="kdenlive:original.meta.media.0.codec.long_name">H.264 / AVC / MPEG-4 AVC / MPEG-4 part 10</property>
  <property name="kdenlive:original.meta.media.0.codec.bit_rate">2261882</property>
  <property name="kdenlive:original.meta.attr.0.stream.handler_name.markup">ISO Media file produced by Google Inc.</property>
  <property name="kdenlive:original.meta.attr.0.stream.vendor_id.markup">[0][0][0][0]</property>
  <property name="kdenlive:original.meta.media.1.stream.type">audio</property>
  <property name="kdenlive:original.meta.media.1.codec.sample_fmt">fltp</property>
  <property name="kdenlive:original.meta.media.1.codec.sample_rate">44100</property>
  <property name="kdenlive:original.meta.media.1.codec.channels">2</property>
  <property name="kdenlive:original.meta.media.1.codec.name">aac</property>
  <property name="kdenlive:original.meta.media.1.codec.long_name">AAC (Advanced Audio Coding)</property>
  <property name="kdenlive:original.meta.media.1.codec.bit_rate">127999</property>
  <property name="kdenlive:original.meta.attr.1.stream.language.markup">eng</property>
  <property name="kdenlive:original.meta.attr.1.stream.handler_name.markup">ISO Media file produced by Google Inc.</property>
  <property name="kdenlive:original.meta.attr.1.stream.vendor_id.markup">[0][0][0][0]</property>
  <property name="kdenlive:original.meta.attr.major_brand.markup">isom</property>
  <property name="kdenlive:original.meta.attr.minor_version.markup">512</property>
  <property name="kdenlive:original.meta.attr.compatible_brands.markup">isomiso2avc1mp41</property>
  <property name="kdenlive:original.meta.attr.encoder.markup">Lavf58.45.100</property>
  <property name="kdenlive:original.seekable">1</property>
  <property name="kdenlive:original.width">1280</property>
  <property name="kdenlive:original.height">720</property>
  <property name="kdenlive:original.meta.media.sample_aspect_num">1</property>
  <property name="kdenlive:original.meta.media.sample_aspect_den">1</property>
  <property name="kdenlive:original.aspect_ratio">1</property>
  <property name="kdenlive:original.audio_index">1</property>
  <property name="kdenlive:original.video_index">0</property>
  <property name="kdenlive:original.mute_on_pause">0</property>
  <property name="kdenlive:original.mlt_service">avformat-novalidate</property>
  <property name="kdenlive:original.kdenlive:folderid">84</property>
  <property name="kdenlive:original.meta.media.frame_rate_num">30</property>
  <property name="kdenlive:original.meta.media.frame_rate_den">1</property>
  <property name="kdenlive:original.meta.media.colorspace">709</property>
  <property name="kdenlive:original.meta.media.color_trc">1</property>
  <property name="kdenlive:original.meta.media.width">1280</property>
  <property name="kdenlive:original.meta.media.height">720</property>
  <property name="kdenlive:original.meta.media.color_range">mpeg</property>
  <property name="kdenlive:original.kdenlive:id">101</property>
  <property name="kdenlive:original.kdenlive:file_size">6265928</property>
  <property name="kdenlive:original.kdenlive:file_hash">a5ec45f07650056dfda921022248f127</property>
  <property name="kdenlive:original.backup">1</property>
  <property name="kdenlive:audio_max">91</property>
  <property name="global_feed">1</property>
  <property name="kdenlive:active_streams">-1</property>
  <property name="kdenlive:zone_in">76</property>
  <property name="kdenlive:zone_out">192</property>
  <property name="kdenlive:clipzones">[
    {
        "in": 76,
        "name": "Zone 1",
        "out": 192
    }
]
</property>
  <property name="xml">was here</property>
  <property name="meta.media.nb_streams">2</property>
  <property name="meta.media.0.stream.type">video</property>
  <property name="meta.media.0.stream.frame_rate">30</property>
  <property name="meta.media.0.stream.sample_aspect_ratio">1</property>
  <property name="meta.media.0.codec.width">640</property>
  <property name="meta.media.0.codec.height">360</property>
  <property name="meta.media.0.codec.rotate">0</property>
  <property name="meta.media.0.codec.frame_rate">1000</property>
  <property name="meta.media.0.codec.pix_fmt">yuvj420p</property>
  <property name="meta.media.0.codec.sample_aspect_ratio">1</property>
  <property name="meta.media.0.codec.colorspace">601</property>
  <property name="meta.media.0.codec.color_trc">1</property>
  <property name="meta.media.0.codec.name">mjpeg</property>
  <property name="meta.media.0.codec.long_name">MJPEG (Motion JPEG)</property>
  <property name="meta.media.0.codec.bit_rate">0</property>
  <property name="meta.attr.0.stream.HANDLER_NAME.markup">ISO Media file produced by Google Inc.</property>
  <property name="meta.attr.0.stream.VENDOR_ID.markup">[0][0][0][0]</property>
  <property name="meta.attr.0.stream.ENCODER.markup">Lavc58.134.100 mjpeg</property>
  <property name="meta.attr.0.stream.DURATION.markup">00:00:20.900000000</property>
  <property name="meta.media.1.stream.type">audio</property>
  <property name="meta.media.1.codec.sample_fmt">s16</property>
  <property name="meta.media.1.codec.sample_rate">44100</property>
  <property name="meta.media.1.codec.channels">2</property>
  <property name="meta.media.1.codec.name">pcm_s16le</property>
  <property name="meta.media.1.codec.long_name">PCM signed 16-bit little-endian</property>
  <property name="meta.media.1.codec.bit_rate">1411200</property>
  <property name="meta.attr.1.stream.language.markup">eng</property>
  <property name="meta.attr.1.stream.HANDLER_NAME.markup">ISO Media file produced by Google Inc.</property>
  <property name="meta.attr.1.stream.VENDOR_ID.markup">[0][0][0][0]</property>
  <property name="meta.attr.1.stream.ENCODER.markup">Lavc58.134.100 pcm_s16le</property>
  <property name="meta.attr.1.stream.DURATION.markup">00:00:20.967000000</property>
  <property name="meta.attr.COMPATIBLE_BRANDS.markup">isomiso2avc1mp41</property>
  <property name="meta.attr.MAJOR_BRAND.markup">isom</property>
  <property name="meta.attr.MINOR_VERSION.markup">512</property>
  <property name="meta.attr.ENCODER.markup">Lavf58.76.100</property>
  <property name="meta.media.sample_aspect_num">1</property>
  <property name="meta.media.sample_aspect_den">1</property>
  <property name="meta.media.frame_rate_num">30</property>
  <property name="meta.media.frame_rate_den">1</property>
  <property name="meta.media.colorspace">601</property>
  <property name="meta.media.color_trc">1</property>
  <property name="meta.media.width">640</property>
  <property name="meta.media.height">360</property>
  <property name="meta.media.color_range">full</property>
  <property name="meta.media.top_field_first">0</property>
  <property name="meta.media.progressive">1</property>
  <property name="set.test_audio">1</property>
  <property name="set.test_image">0</property>
 </producer>
 <producer id="producer126" in="00:00:00.000" out="00:08:26.400">
  <property name="length">15193</property>
  <property name="eof">pause</property>
  <property name="resource">-1:content/footage/Air Pollution HD Stock Video _ Free stock footage _ Free HD Videos - No Copyright _ Channel PMI-lq4ivmk9llM.mkv</property>
  <property name="aspect_ratio">1</property>
  <property name="meta.media.nb_streams">2</property>
  <property name="meta.media.0.stream.type">video</property>
  <property name="meta.media.0.stream.frame_rate">29.939</property>
  <property name="meta.media.0.stream.sample_aspect_ratio">1</property>
  <property name="meta.media.0.codec.width">640</property>
  <property name="meta.media.0.codec.height">360</property>
  <property name="meta.media.0.codec.rotate">0</property>
  <property name="meta.media.0.codec.frame_rate">1000</property>
  <property name="meta.media.0.codec.pix_fmt">yuvj420p</property>
  <property name="meta.media.0.codec.sample_aspect_ratio">1</property>
  <property name="meta.media.0.codec.colorspace">601</property>
  <property name="meta.media.0.codec.color_trc">1</property>
  <property name="meta.media.0.codec.name">mjpeg</property>
  <property name="meta.media.0.codec.long_name">MJPEG (Motion JPEG)</property>
  <property name="meta.media.0.codec.bit_rate">0</property>
  <property name="meta.attr.0.stream.language.markup">eng</property>
  <property name="meta.attr.0.stream.DURATION.markup">00:08:26.363000000</property>
  <property name="meta.media.1.stream.type">audio</property>
  <property name="meta.media.1.codec.sample_fmt">s16</property>
  <property name="meta.media.1.codec.sample_rate">44100</property>
  <property name="meta.media.1.codec.channels">2</property>
  <property name="meta.media.1.codec.name">pcm_s16le</property>
  <property name="meta.media.1.codec.long_name">PCM signed 16-bit little-endian</property>
  <property name="meta.media.1.codec.bit_rate">1411200</property>
  <property name="meta.attr.1.stream.HANDLER_NAME.markup">ISO Media file produced by Google Inc.</property>
  <property name="meta.attr.1.stream.DURATION.markup">00:08:26.427000000</property>
  <property name="meta.attr.ENCODER.markup">Lavf58.76.100</property>
  <property name="seekable">1</property>
  <property name="meta.media.sample_aspect_num">1</property>
  <property name="meta.media.sample_aspect_den">1</property>
  <property name="audio_index">1</property>
  <property name="video_index">0</property>
  <property name="mute_on_pause">1</property>
  <property name="warp_speed">-1</property>
  <property name="warp_resource">content/footage/Air Pollution HD Stock Video _ Free stock footage _ Free HD Videos - No Copyright _ Channel PMI-lq4ivmk9llM.mkv</property>
  <property name="mlt_service">timewarp</property>
  <property name="meta.attr.0.stream.ENCODER.markup">Lavc58.134.100 mjpeg</property>
  <property name="meta.attr.1.stream.ENCODER.markup">Lavc58.134.100 pcm_s16le</property>
  <property name="kdenlive:proxy">-</property>
  <property name="kdenlive:originalurl">content/footage/Air Pollution HD Stock Video _ Free stock footage _ Free HD Videos - No Copyright _ Channel PMI-lq4ivmk9llM.mkv</property>
  <property name="set.test_audio">1</property>
  <property name="set.test_image">0</property>
  <property name="kdenlive:id">7</property>
  <property name="warp_pitch">0</property>
  <property name="meta.media.frame_rate_num">29939</property>
  <property name="meta.media.frame_rate_den">1000</property>
  <property name="meta.media.colorspace">601</property>
  <property name="meta.media.color_trc">1</property>
  <property name="meta.media.width">640</property>
  <property name="meta.media.height">360</property>
  <property name="meta.media.color_range">full</property>
  <property name="meta.media.top_field_first">0</property>
  <property name="meta.media.progressive">1</property>
 </producer>
 <producer id="producer127" in="00:00:00.000" out="00:05:37.600">
  <property name="length">10129</property>
  <property name="eof">pause</property>
  <property name="resource">1.5:content/footage/Air Pollution HD Stock Video _ Free stock footage _ Free HD Videos - No Copyright _ Channel PMI-lq4ivmk9llM.mkv</property>
  <property name="aspect_ratio">1</property>
  <property name="meta.media.nb_streams">2</property>
  <property name="meta.media.0.stream.type">video</property>
  <property name="meta.media.0.stream.frame_rate">29.939</property>
  <property name="meta.media.0.stream.sample_aspect_ratio">1</property>
  <property name="meta.media.0.codec.width">640</property>
  <property name="meta.media.0.codec.height">360</property>
  <property name="meta.media.0.codec.rotate">0</property>
  <property name="meta.media.0.codec.frame_rate">1000</property>
  <property name="meta.media.0.codec.pix_fmt">yuvj420p</property>
  <property name="meta.media.0.codec.sample_aspect_ratio">1</property>
  <property name="meta.media.0.codec.colorspace">601</property>
  <property name="meta.media.0.codec.color_trc">1</property>
  <property name="meta.media.0.codec.name">mjpeg</property>
  <property name="meta.media.0.codec.long_name">MJPEG (Motion JPEG)</property>
  <property name="meta.media.0.codec.bit_rate">0</property>
  <property name="meta.attr.0.stream.language.markup">eng</property>
  <property name="meta.attr.0.stream.DURATION.markup">00:08:26.363000000</property>
  <property name="meta.media.1.stream.type">audio</property>
  <property name="meta.media.1.codec.sample_fmt">s16</property>
  <property name="meta.media.1.codec.sample_rate">44100</property>
  <property name="meta.media.1.codec.channels">2</property>
  <property name="meta.media.1.codec.name">pcm_s16le</property>
  <property name="meta.media.1.codec.long_name">PCM signed 16-bit little-endian</property>
  <property name="meta.media.1.codec.bit_rate">1411200</property>
  <property name="meta.attr.1.stream.HANDLER_NAME.markup">ISO Media file produced by Google Inc.</property>
  <property name="meta.attr.1.stream.DURATION.markup">00:08:26.427000000</property>
  <property name="meta.attr.ENCODER.markup">Lavf58.76.100</property>
  <property name="seekable">1</property>
  <property name="meta.media.sample_aspect_num">1</property>
  <property name="meta.media.sample_aspect_den">1</property>
  <property name="audio_index">1</property>
  <property name="video_index">0</property>
  <property name="mute_on_pause">1</property>
  <property name="warp_speed">1.5</property>
  <property name="warp_resource">content/footage/Air Pollution HD Stock Video _ Free stock footage _ Free HD Videos - No Copyright _ Channel PMI-lq4ivmk9llM.mkv</property>
  <property name="mlt_service">timewarp</property>
  <property name="meta.attr.0.stream.ENCODER.markup">Lavc58.134.100 mjpeg</property>
  <property name="meta.attr.1.stream.ENCODER.markup">Lavc58.134.100 pcm_s16le</property>
  <property name="kdenlive:proxy">-</property>
  <property name="kdenlive:originalurl">content/footage/Air Pollution HD Stock Video _ Free stock footage _ Free HD Videos - No Copyright _ Channel PMI-lq4ivmk9llM.mkv</property>
  <property name="set.test_audio">1</property>
  <property name="set.test_image">0</property>
  <property name="kdenlive:id">7</property>
  <property name="warp_pitch">0</property>
  <property name="meta.media.frame_rate_num">29939</property>
  <property name="meta.media.frame_rate_den">1000</property>
  <property name="meta.media.colorspace">601</property>
  <property name="meta.media.color_trc">1</property>
  <property name="meta.media.width">640</property>
  <property name="meta.media.height">360</property>
  <property name="meta.media.color_range">full</property>
  <property name="meta.media.top_field_first">0</property>
  <property name="meta.media.progressive">1</property>
 </producer>
 <producer id="producer128" in="00:00:00.000" out="00:04:13.167">
  <property name="length">7597</property>
  <property name="eof">pause</property>
  <property name="resource">2:content/footage/Air Pollution HD Stock Video _ Free stock footage _ Free HD Videos - No Copyright _ Channel PMI-lq4ivmk9llM.mkv</property>
  <property name="aspect_ratio">1</property>
  <property name="meta.media.nb_streams">2</property>
  <property name="meta.media.0.stream.type">video</property>
  <property name="meta.media.0.stream.frame_rate">29.939</property>
  <property name="meta.media.0.stream.sample_aspect_ratio">1</property>
  <property name="meta.media.0.codec.width">640</property>
  <property name="meta.media.0.codec.height">360</property>
  <property name="meta.media.0.codec.rotate">0</property>
  <property name="meta.media.0.codec.frame_rate">1000</property>
  <property name="meta.media.0.codec.pix_fmt">yuvj420p</property>
  <property name="meta.media.0.codec.sample_aspect_ratio">1</property>
  <property name="meta.media.0.codec.colorspace">601</property>
  <property name="meta.media.0.codec.color_trc">1</property>
  <property name="meta.media.0.codec.name">mjpeg</property>
  <property name="meta.media.0.codec.long_name">MJPEG (Motion JPEG)</property>
  <property name="meta.media.0.codec.bit_rate">0</property>
  <property name="meta.attr.0.stream.language.markup">eng</property>
  <property name="meta.attr.0.stream.DURATION.markup">00:08:26.363000000</property>
  <property name="meta.media.1.stream.type">audio</property>
  <property name="meta.media.1.codec.sample_fmt">s16</property>
  <property name="meta.media.1.codec.sample_rate">44100</property>
  <property name="meta.media.1.codec.channels">2</property>
  <property name="meta.media.1.codec.name">pcm_s16le</property>
  <property name="meta.media.1.codec.long_name">PCM signed 16-bit little-endian</property>
  <property name="meta.media.1.codec.bit_rate">1411200</property>
  <property name="meta.attr.1.stream.HANDLER_NAME.markup">ISO Media file produced by Google Inc.</property>
  <property name="meta.attr.1.stream.DURATION.markup">00:08:26.427000000</property>
  <property name="meta.attr.ENCODER.markup">Lavf58.76.100</property>
  <property name="seekable">1</property>
  <property name="meta.media.sample_aspect_num">1</property>
  <property name="meta.media.sample_aspect_den">1</property>
  <property name="audio_index">1</property>
  <property name="video_index">0</property>
  <property name="mute_on_pause">1</property>
  <property name="warp_speed">2</property>
  <property name="warp_resource">content/footage/Air Pollution HD Stock Video _ Free stock footage _ Free HD Videos - No Copyright _ Channel PMI-lq4ivmk9llM.mkv</property>
  <property name="mlt_service">timewarp</property>
  <property name="meta.attr.0.stream.ENCODER.markup">Lavc58.134.100 mjpeg</property>
  <property name="meta.attr.1.stream.ENCODER.markup">Lavc58.134.100 pcm_s16le</property>
  <property name="kdenlive:proxy">-</property>
  <property name="kdenlive:originalurl">content/footage/Air Pollution HD Stock Video _ Free stock footage _ Free HD Videos - No Copyright _ Channel PMI-lq4ivmk9llM.mkv</property>
  <property name="set.test_audio">1</property>
  <property name="set.test_image">0</property>
  <property name="kdenlive:id">7</property>
  <property name="warp_pitch">0</property>
  <property name="meta.media.frame_rate_num">29939</property>
  <property name="meta.media.frame_rate_den">1000</property>
  <property name="meta.media.colorspace">601</property>
  <property name="meta.media.color_trc">1</property>
  <property name="meta.media.width">640</property>
  <property name="meta.media.height">360</property>
  <property name="meta.media.color_range">full</property>
  <property name="meta.media.top_field_first">0</property>
  <property name="meta.media.progressive">1</property>
 </producer>
 <producer id="producer129" in="00:00:00.000" out="00:03:22.533">
  <property name="length">6077</property>
  <property name="eof">pause</property>
  <property name="resource">2.5:content/footage/Air Pollution HD Stock Video _ Free stock footage _ Free HD Videos - No Copyright _ Channel PMI-lq4ivmk9llM.mkv</property>
  <property name="aspect_ratio">1</property>
  <property name="meta.media.nb_streams">2</property>
  <property name="meta.media.0.stream.type">video</property>
  <property name="meta.media.0.stream.frame_rate">29.939</property>
  <property name="meta.media.0.stream.sample_aspect_ratio">1</property>
  <property name="meta.media.0.codec.width">640</property>
  <property name="meta.media.0.codec.height">360</property>
  <property name="meta.media.0.codec.rotate">0</property>
  <property name="meta.media.0.codec.frame_rate">1000</property>
  <property name="meta.media.0.codec.pix_fmt">yuvj420p</property>
  <property name="meta.media.0.codec.sample_aspect_ratio">1</property>
  <property name="meta.media.0.codec.colorspace">601</property>
  <property name="meta.media.0.codec.color_trc">1</property>
  <property name="meta.media.0.codec.name">mjpeg</property>
  <property name="meta.media.0.codec.long_name">MJPEG (Motion JPEG)</property>
  <property name="meta.media.0.codec.bit_rate">0</property>
  <property name="meta.attr.0.stream.language.markup">eng</property>
  <property name="meta.attr.0.stream.DURATION.markup">00:08:26.363000000</property>
  <property name="meta.media.1.stream.type">audio</property>
  <property name="meta.media.1.codec.sample_fmt">s16</property>
  <property name="meta.media.1.codec.sample_rate">44100</property>
  <property name="meta.media.1.codec.channels">2</property>
  <property name="meta.media.1.codec.name">pcm_s16le</property>
  <property name="meta.media.1.codec.long_name">PCM signed 16-bit little-endian</property>
  <property name="meta.media.1.codec.bit_rate">1411200</property>
  <property name="meta.attr.1.stream.HANDLER_NAME.markup">ISO Media file produced by Google Inc.</property>
  <property name="meta.attr.1.stream.DURATION.markup">00:08:26.427000000</property>
  <property name="meta.attr.ENCODER.markup">Lavf58.76.100</property>
  <property name="seekable">1</property>
  <property name="meta.media.sample_aspect_num">1</property>
  <property name="meta.media.sample_aspect_den">1</property>
  <property name="audio_index">1</property>
  <property name="video_index">0</property>
  <property name="mute_on_pause">1</property>
  <property name="warp_speed">2.5</property>
  <property name="warp_resource">content/footage/Air Pollution HD Stock Video _ Free stock footage _ Free HD Videos - No Copyright _ Channel PMI-lq4ivmk9llM.mkv</property>
  <property name="mlt_service">timewarp</property>
  <property name="meta.attr.0.stream.ENCODER.markup">Lavc58.134.100 mjpeg</property>
  <property name="meta.attr.1.stream.ENCODER.markup">Lavc58.134.100 pcm_s16le</property>
  <property name="kdenlive:proxy">-</property>
  <property name="kdenlive:originalurl">content/footage/Air Pollution HD Stock Video _ Free stock footage _ Free HD Videos - No Copyright _ Channel PMI-lq4ivmk9llM.mkv</property>
  <property name="set.test_audio">1</property>
  <property name="set.test_image">0</property>
  <property name="kdenlive:id">7</property>
  <property name="warp_pitch">0</property>
  <property name="meta.media.frame_rate_num">29939</property>
  <property name="meta.media.frame_rate_den">1000</property>
  <property name="meta.media.colorspace">601</property>
  <property name="meta.media.color_trc">1</property>
  <property name="meta.media.width">640</property>
  <property name="meta.media.height">360</property>
  <property name="meta.media.color_range">full</property>
  <property name="meta.media.top_field_first">0</property>
  <property name="meta.media.progressive">1</property>
 </producer>
 <producer id="producer130" in="00:00:00.000" out="00:02:48.767">
  <property name="length">5064</property>
  <property name="eof">pause</property>
  <property name="resource">3:content/footage/Air Pollution HD Stock Video _ Free stock footage _ Free HD Videos - No Copyright _ Channel PMI-lq4ivmk9llM.mkv</property>
  <property name="aspect_ratio">1</property>
  <property name="meta.media.nb_streams">2</property>
  <property name="meta.media.0.stream.type">video</property>
  <property name="meta.media.0.stream.frame_rate">29.939</property>
  <property name="meta.media.0.stream.sample_aspect_ratio">1</property>
  <property name="meta.media.0.codec.width">640</property>
  <property name="meta.media.0.codec.height">360</property>
  <property name="meta.media.0.codec.rotate">0</property>
  <property name="meta.media.0.codec.frame_rate">1000</property>
  <property name="meta.media.0.codec.pix_fmt">yuvj420p</property>
  <property name="meta.media.0.codec.sample_aspect_ratio">1</property>
  <property name="meta.media.0.codec.colorspace">601</property>
  <property name="meta.media.0.codec.color_trc">1</property>
  <property name="meta.media.0.codec.name">mjpeg</property>
  <property name="meta.media.0.codec.long_name">MJPEG (Motion JPEG)</property>
  <property name="meta.media.0.codec.bit_rate">0</property>
  <property name="meta.attr.0.stream.language.markup">eng</property>
  <property name="meta.attr.0.stream.DURATION.markup">00:08:26.363000000</property>
  <property name="meta.media.1.stream.type">audio</property>
  <property name="meta.media.1.codec.sample_fmt">s16</property>
  <property name="meta.media.1.codec.sample_rate">44100</property>
  <property name="meta.media.1.codec.channels">2</property>
  <property name="meta.media.1.codec.name">pcm_s16le</property>
  <property name="meta.media.1.codec.long_name">PCM signed 16-bit little-endian</property>
  <property name="meta.media.1.codec.bit_rate">1411200</property>
  <property name="meta.attr.1.stream.HANDLER_NAME.markup">ISO Media file produced by Google Inc.</property>
  <property name="meta.attr.1.stream.DURATION.markup">00:08:26.427000000</property>
  <property name="meta.attr.ENCODER.markup">Lavf58.76.100</property>
  <property name="seekable">1</property>
  <property name="meta.media.sample_aspect_num">1</property>
  <property name="meta.media.sample_aspect_den">1</property>
  <property name="audio_index">1</property>
  <property name="video_index">0</property>
  <property name="mute_on_pause">1</property>
  <property name="warp_speed">3</property>
  <property name="warp_resource">content/footage/Air Pollution HD Stock Video _ Free stock footage _ Free HD Videos - No Copyright _ Channel PMI-lq4ivmk9llM.mkv</property>
  <property name="mlt_service">timewarp</property>
  <property name="meta.attr.0.stream.ENCODER.markup">Lavc58.134.100 mjpeg</property>
  <property name="meta.attr.1.stream.ENCODER.markup">Lavc58.134.100 pcm_s16le</property>
  <property name="kdenlive:proxy">-</property>
  <property name="kdenlive:originalurl">content/footage/Air Pollution HD Stock Video _ Free stock footage _ Free HD Videos - No Copyright _ Channel PMI-lq4ivmk9llM.mkv</property>
  <property name="set.test_audio">1</property>
  <property name="set.test_image">0</property>
  <property name="kdenlive:id">7</property>
  <property name="warp_pitch">0</property>
  <property name="meta.media.frame_rate_num">29939</property>
  <property name="meta.media.frame_rate_den">1000</property>
  <property name="meta.media.colorspace">601</property>
  <property name="meta.media.color_trc">1</property>
  <property name="meta.media.width">640</property>
  <property name="meta.media.height">360</property>
  <property name="meta.media.color_range">full</property>
  <property name="meta.media.top_field_first">0</property>
  <property name="meta.media.progressive">1</property>
 </producer>
 <producer id="producer131" in="00:00:00.000" out="00:02:24.667">
  <property name="length">4341</property>
  <property name="eof">pause</property>
  <property name="resource">3.5:content/footage/Air Pollution HD Stock Video _ Free stock footage _ Free HD Videos - No Copyright _ Channel PMI-lq4ivmk9llM.mkv</property>
  <property name="aspect_ratio">1</property>
  <property name="meta.media.nb_streams">2</property>
  <property name="meta.media.0.stream.type">video</property>
  <property name="meta.media.0.stream.frame_rate">29.939</property>
  <property name="meta.media.0.stream.sample_aspect_ratio">1</property>
  <property name="meta.media.0.codec.width">640</property>
  <property name="meta.media.0.codec.height">360</property>
  <property name="meta.media.0.codec.rotate">0</property>
  <property name="meta.media.0.codec.frame_rate">1000</property>
  <property name="meta.media.0.codec.pix_fmt">yuvj420p</property>
  <property name="meta.media.0.codec.sample_aspect_ratio">1</property>
  <property name="meta.media.0.codec.colorspace">601</property>
  <property name="meta.media.0.codec.color_trc">1</property>
  <property name="meta.media.0.codec.name">mjpeg</property>
  <property name="meta.media.0.codec.long_name">MJPEG (Motion JPEG)</property>
  <property name="meta.media.0.codec.bit_rate">0</property>
  <property name="meta.attr.0.stream.language.markup">eng</property>
  <property name="meta.attr.0.stream.DURATION.markup">00:08:26.363000000</property>
  <property name="meta.media.1.stream.type">audio</property>
  <property name="meta.media.1.codec.sample_fmt">s16</property>
  <property name="meta.media.1.codec.sample_rate">44100</property>
  <property name="meta.media.1.codec.channels">2</property>
  <property name="meta.media.1.codec.name">pcm_s16le</property>
  <property name="meta.media.1.codec.long_name">PCM signed 16-bit little-endian</property>
  <property name="meta.media.1.codec.bit_rate">1411200</property>
  <property name="meta.attr.1.stream.HANDLER_NAME.markup">ISO Media file produced by Google Inc.</property>
  <property name="meta.attr.1.stream.DURATION.markup">00:08:26.427000000</property>
  <property name="meta.attr.ENCODER.markup">Lavf58.76.100</property>
  <property name="seekable">1</property>
  <property name="meta.media.sample_aspect_num">1</property>
  <property name="meta.media.sample_aspect_den">1</property>
  <property name="audio_index">1</property>
  <property name="video_index">0</property>
  <property name="mute_on_pause">1</property>
  <property name="warp_speed">3.5</property>
  <property name="warp_resource">content/footage/Air Pollution HD Stock Video _ Free stock footage _ Free HD Videos - No Copyright _ Channel PMI-lq4ivmk9llM.mkv</property>
  <property name="mlt_service">timewarp</property>
  <property name="meta.attr.0.stream.ENCODER.markup">Lavc58.134.100 mjpeg</property>
  <property name="meta.attr.1.stream.ENCODER.markup">Lavc58.134.100 pcm_s16le</property>
  <property name="kdenlive:proxy">-</property>
  <property name="kdenlive:originalurl">content/footage/Air Pollution HD Stock Video _ Free stock footage _ Free HD Videos - No Copyright _ Channel PMI-lq4ivmk9llM.mkv</property>
  <property name="set.test_audio">1</property>
  <property name="set.test_image">0</property>
  <property name="kdenlive:id">7</property>
  <property name="warp_pitch">0</property>
  <property name="meta.media.frame_rate_num">29939</property>
  <property name="meta.media.frame_rate_den">1000</property>
  <property name="meta.media.colorspace">601</property>
  <property name="meta.media.color_trc">1</property>
  <property name="meta.media.width">640</property>
  <property name="meta.media.height">360</property>
  <property name="meta.media.color_range">full</property>
  <property name="meta.media.top_field_first">0</property>
  <property name="meta.media.progressive">1</property>
 </producer>
 <producer id="producer132" in="00:00:00.000" out="00:05:37.600">
  <property name="length">10129</property>
  <property name="eof">pause</property>
  <property name="resource">1.5:content/footage/Air Pollution HD Stock Video _ Free stock footage _ Free HD Videos - No Copyright _ Channel PMI-lq4ivmk9llM.mkv</property>
  <property name="aspect_ratio">1</property>
  <property name="meta.media.nb_streams">2</property>
  <property name="meta.media.0.stream.type">video</property>
  <property name="meta.media.0.stream.frame_rate">29.939</property>
  <property name="meta.media.0.stream.sample_aspect_ratio">1</property>
  <property name="meta.media.0.codec.width">640</property>
  <property name="meta.media.0.codec.height">360</property>
  <property name="meta.media.0.codec.rotate">0</property>
  <property name="meta.media.0.codec.frame_rate">1000</property>
  <property name="meta.media.0.codec.pix_fmt">yuvj420p</property>
  <property name="meta.media.0.codec.sample_aspect_ratio">1</property>
  <property name="meta.media.0.codec.colorspace">601</property>
  <property name="meta.media.0.codec.color_trc">1</property>
  <property name="meta.media.0.codec.name">mjpeg</property>
  <property name="meta.media.0.codec.long_name">MJPEG (Motion JPEG)</property>
  <property name="meta.media.0.codec.bit_rate">0</property>
  <property name="meta.attr.0.stream.language.markup">eng</property>
  <property name="meta.attr.0.stream.DURATION.markup">00:08:26.363000000</property>
  <property name="meta.media.1.stream.type">audio</property>
  <property name="meta.media.1.codec.sample_fmt">s16</property>
  <property name="meta.media.1.codec.sample_rate">44100</property>
  <property name="meta.media.1.codec.channels">2</property>
  <property name="meta.media.1.codec.name">pcm_s16le</property>
  <property name="meta.media.1.codec.long_name">PCM signed 16-bit little-endian</property>
  <property name="meta.media.1.codec.bit_rate">1411200</property>
  <property name="meta.attr.1.stream.HANDLER_NAME.markup">ISO Media file produced by Google Inc.</property>
  <property name="meta.attr.1.stream.DURATION.markup">00:08:26.427000000</property>
  <property name="meta.attr.ENCODER.markup">Lavf58.76.100</property>
  <property name="seekable">1</property>
  <property name="meta.media.sample_aspect_num">1</property>
  <property name="meta.media.sample_aspect_den">1</property>
  <property name="audio_index">1</property>
  <property name="video_index">0</property>
  <property name="mute_on_pause">1</property>
  <property name="warp_speed">1.5</property>
  <property name="warp_resource">content/footage/Air Pollution HD Stock Video _ Free stock footage _ Free HD Videos - No Copyright _ Channel PMI-lq4ivmk9llM.mkv</property>
  <property name="mlt_service">timewarp</property>
  <property name="meta.attr.0.stream.ENCODER.markup">Lavc58.134.100 mjpeg</property>
  <property name="meta.attr.1.stream.ENCODER.markup">Lavc58.134.100 pcm_s16le</property>
  <property name="kdenlive:proxy">-</property>
  <property name="kdenlive:originalurl">content/footage/Air Pollution HD Stock Video _ Free stock footage _ Free HD Videos - No Copyright _ Channel PMI-lq4ivmk9llM.mkv</property>
  <property name="set.test_audio">1</property>
  <property name="set.test_image">0</property>
  <property name="kdenlive:id">7</property>
  <property name="warp_pitch">0</property>
  <property name="meta.media.frame_rate_num">29939</property>
  <property name="meta.media.frame_rate_den">1000</property>
  <property name="meta.media.colorspace">601</property>
  <property name="meta.media.color_trc">1</property>
  <property name="meta.media.width">640</property>
  <property name="meta.media.height">360</property>
  <property name="meta.media.color_range">full</property>
  <property name="meta.media.top_field_first">0</property>
  <property name="meta.media.progressive">1</property>
 </producer>
 <producer id="producer133" in="00:00:00.000" out="00:01:53.167">
  <property name="length">3397</property>
  <property name="eof">pause</property>
  <property name="resource">content/footage/Pollution Crime (English)-rIBEn5WsugE.mkv</property>
  <property name="audio_index">1</property>
  <property name="video_index">0</property>
  <property name="mute_on_pause">0</property>
  <property name="mlt_service">avformat-novalidate</property>
  <property name="seekable">1</property>
  <property name="aspect_ratio">1</property>
  <property name="kdenlive:clipname">Pollution Crime (English)-rIBEn5WsugE.mkv</property>
  <property name="kdenlive:folderid">84</property>
  <property name="kdenlive:id">5</property>
  <property name="kdenlive:file_size">62236476</property>
  <property name="kdenlive:file_hash">b0319ab52772360ca5e70bd1bc11c090</property>
  <property name="kdenlive:audio_max">1</property>
  <property name="kdenlive:active_streams">-1</property>
  <property name="kdenlive:zone_in">2843</property>
  <property name="kdenlive:zone_out">2936</property>
  <property name="kdenlive:clipzones">[
    {
        "in": 719,
        "name": "Zone 1",
        "out": 813
    },
    {
        "in": 991,
        "name": "Zone 2",
        "out": 1146
    },
    {
        "in": 2843,
        "name": "Zone 3",
        "out": 2936
    }
]
</property>
  <property name="global_feed">1</property>
  <property name="kdenlive:proxy">-</property>
  <property name="kdenlive:originalurl">content/footage/Pollution Crime (English)-rIBEn5WsugE.mkv</property>
  <property name="kdenlive:original.mlt_type">mlt_producer</property>
  <property name="kdenlive:original.in">00:00:00.000</property>
  <property name="kdenlive:original.out">00:01:53.200</property>
  <property name="kdenlive:original.length">3397</property>
  <property name="kdenlive:original.eof">pause</property>
  <property name="kdenlive:original.resource">/home/ryankelln/Documents/Projects/Active/Sound_Escapes/Dhaivat/footage/Pollution Crime (English)-rIBEn5WsugE.mkv</property>
  <property name="kdenlive:original.audio_index">1</property>
  <property name="kdenlive:original.video_index">0</property>
  <property name="kdenlive:original.mute_on_pause">0</property>
  <property name="kdenlive:original.mlt_service">avformat-novalidate</property>
  <property name="kdenlive:original.seekable">1</property>
  <property name="kdenlive:original.aspect_ratio">1</property>
  <property name="kdenlive:original.kdenlive:folderid">84</property>
  <property name="kdenlive:original.kdenlive:id">14</property>
  <property name="kdenlive:original.kdenlive:file_size">62236476</property>
  <property name="kdenlive:original.kdenlive:file_hash">b0319ab52772360ca5e70bd1bc11c090</property>
  <property name="kdenlive:original.kdenlive:audio_max">1</property>
  <property name="kdenlive:original.kdenlive:active_streams">-1</property>
  <property name="kdenlive:original.kdenlive:zone_in">2843</property>
  <property name="kdenlive:original.kdenlive:zone_out">2936</property>
  <property name="kdenlive:original.kdenlive:clipzones">[
    {
        "in": 719,
        "name": "Zone 1",
        "out": 813
    },
    {
        "in": 991,
        "name": "Zone 2",
        "out": 1146
    },
    {
        "in": 2843,
        "name": "Zone 3",
        "out": 2936
    }
]
</property>
  <property name="kdenlive:original.global_feed">1</property>
  <property name="kdenlive:original.meta.media.nb_streams">2</property>
  <property name="kdenlive:original.meta.media.0.stream.type">video</property>
  <property name="kdenlive:original.meta.media.0.stream.frame_rate">29.97</property>
  <property name="kdenlive:original.meta.media.0.stream.sample_aspect_ratio">1</property>
  <property name="kdenlive:original.meta.media.0.codec.width">1920</property>
  <property name="kdenlive:original.meta.media.0.codec.height">1080</property>
  <property name="kdenlive:original.meta.media.0.codec.rotate">0</property>
  <property name="kdenlive:original.meta.media.0.codec.frame_rate">29.97</property>
  <property name="kdenlive:original.meta.media.0.codec.pix_fmt">yuv420p</property>
  <property name="kdenlive:original.meta.media.0.codec.sample_aspect_ratio">1</property>
  <property name="kdenlive:original.meta.media.0.codec.colorspace">709</property>
  <property name="kdenlive:original.meta.media.0.codec.color_trc">1</property>
  <property name="kdenlive:original.meta.media.0.codec.name">h264</property>
  <property name="kdenlive:original.meta.media.0.codec.long_name">H.264 / AVC / MPEG-4 AVC / MPEG-4 part 10</property>
  <property name="kdenlive:original.meta.media.0.codec.bit_rate">0</property>
  <property name="kdenlive:original.meta.attr.0.stream.HANDLER_NAME.markup">ISO Media file produced by Google Inc.</property>
  <property name="kdenlive:original.meta.attr.0.stream.DURATION.markup">00:01:53.179000000</property>
  <property name="kdenlive:original.meta.media.1.stream.type">audio</property>
  <property name="kdenlive:original.meta.media.1.codec.sample_fmt">fltp</property>
  <property name="kdenlive:original.meta.media.1.codec.sample_rate">48000</property>
  <property name="kdenlive:original.meta.media.1.codec.channels">2</property>
  <property name="kdenlive:original.meta.media.1.codec.name">opus</property>
  <property name="kdenlive:original.meta.media.1.codec.long_name">Opus</property>
  <property name="kdenlive:original.meta.media.1.codec.bit_rate">0</property>
  <property name="kdenlive:original.meta.attr.1.stream.language.markup">eng</property>
  <property name="kdenlive:original.meta.attr.1.stream.DURATION.markup">00:01:53.221000000</property>
  <property name="kdenlive:original.meta.attr.COMPATIBLE_BRANDS.markup">iso6avc1mp41</property>
  <property name="kdenlive:original.meta.attr.MAJOR_BRAND.markup">dash</property>
  <property name="kdenlive:original.meta.attr.MINOR_VERSION.markup">0</property>
  <property name="kdenlive:original.meta.attr.ENCODER.markup">Lavf58.45.100</property>
  <property name="kdenlive:original.width">1920</property>
  <property name="kdenlive:original.height">1080</property>
  <property name="kdenlive:original.meta.media.sample_aspect_num">1</property>
  <property name="kdenlive:original.meta.media.sample_aspect_den">1</property>
  <property name="kdenlive:original.meta.media.frame_rate_num">30000</property>
  <property name="kdenlive:original.meta.media.frame_rate_den">1001</property>
  <property name="kdenlive:original.meta.media.colorspace">709</property>
  <property name="kdenlive:original.meta.media.color_trc">1</property>
  <property name="kdenlive:original.meta.media.width">1920</property>
  <property name="kdenlive:original.meta.media.height">1080</property>
  <property name="kdenlive:original.meta.media.color_range">mpeg</property>
  <property name="kdenlive:original.root">/</property>
  <property name="kdenlive:original.meta.media.top_field_first">0</property>
  <property name="kdenlive:original.meta.media.progressive">1</property>
  <property name="kdenlive:original.backup">1</property>
  <property name="kdenlive:thumbnailFrame">2865</property>
  <property name="xml">was here</property>
  <property name="meta.media.nb_streams">2</property>
  <property name="meta.media.0.stream.type">video</property>
  <property name="meta.media.0.stream.frame_rate">29.97</property>
  <property name="meta.media.0.stream.sample_aspect_ratio">1</property>
  <property name="meta.media.0.codec.width">640</property>
  <property name="meta.media.0.codec.height">360</property>
  <property name="meta.media.0.codec.rotate">0</property>
  <property name="meta.media.0.codec.frame_rate">1000</property>
  <property name="meta.media.0.codec.pix_fmt">yuvj420p</property>
  <property name="meta.media.0.codec.sample_aspect_ratio">1</property>
  <property name="meta.media.0.codec.colorspace">601</property>
  <property name="meta.media.0.codec.color_trc">1</property>
  <property name="meta.media.0.codec.name">mjpeg</property>
  <property name="meta.media.0.codec.long_name">MJPEG (Motion JPEG)</property>
  <property name="meta.media.0.codec.bit_rate">0</property>
  <property name="meta.attr.0.stream.HANDLER_NAME.markup">ISO Media file produced by Google Inc.</property>
  <property name="meta.attr.0.stream.ENCODER.markup">Lavc58.134.100 mjpeg</property>
  <property name="meta.attr.0.stream.DURATION.markup">00:01:53.179000000</property>
  <property name="meta.media.1.stream.type">audio</property>
  <property name="meta.media.1.codec.sample_fmt">s16</property>
  <property name="meta.media.1.codec.sample_rate">48000</property>
  <property name="meta.media.1.codec.channels">2</property>
  <property name="meta.media.1.codec.name">pcm_s16le</property>
  <property name="meta.media.1.codec.long_name">PCM signed 16-bit little-endian</property>
  <property name="meta.media.1.codec.bit_rate">1536000</property>
  <property name="meta.attr.1.stream.language.markup">eng</property>
  <property name="meta.attr.1.stream.ENCODER.markup">Lavc58.134.100 pcm_s16le</property>
  <property name="meta.attr.1.stream.DURATION.markup">00:01:53.216000000</property>
  <property name="meta.attr.MINOR_VERSION.markup">0</property>
  <property name="meta.attr.COMPATIBLE_BRANDS.markup">iso6avc1mp41</property>
  <property name="meta.attr.MAJOR_BRAND.markup">dash</property>
  <property name="meta.attr.ENCODER.markup">Lavf58.76.100</property>
  <property name="meta.media.sample_aspect_num">1</property>
  <property name="meta.media.sample_aspect_den">1</property>
  <property name="meta.media.frame_rate_num">30000</property>
  <property name="meta.media.frame_rate_den">1001</property>
  <property name="meta.media.colorspace">601</property>
  <property name="meta.media.color_trc">1</property>
  <property name="meta.media.width">640</property>
  <property name="meta.media.height">360</property>
  <property name="meta.media.color_range">full</property>
  <property name="meta.media.top_field_first">0</property>
  <property name="meta.media.progressive">1</property>
  <property name="set.test_audio">1</property>
  <property name="set.test_image">0</property>
 </producer>
 <producer id="producer134" in="00:00:00.000" out="00:02:00.667">
  <property name="length">3622</property>
  <property name="eof">pause</property>
  <property name="resource">content/footage/Water Pollution HD Stock Video _ Free stock footage _ Free HD Videos - No Copyright _ Channel PMI-T8wQ6y_AQGE.webm</property>
  <property name="audio_index">1</property>
  <property name="video_index">0</property>
  <property name="mute_on_pause">0</property>
  <property name="mlt_service">avformat-novalidate</property>
  <property name="seekable">1</property>
  <property name="aspect_ratio">1</property>
  <property name="kdenlive:clipname">Water Pollution HD Stock Video _ Free stock footage _ Free HD Videos - No Copyright _ Channel PMI-T8wQ6y_AQGE.webm</property>
  <property name="kdenlive:folderid">84</property>
  <property name="kdenlive:id">8</property>
  <property name="kdenlive:file_size">140629286</property>
  <property name="kdenlive:file_hash">c551e4017b4fcc35602ab945d913e16d</property>
  <property name="kdenlive:audio_max">1</property>
  <property name="kdenlive:active_streams">-1</property>
  <property name="kdenlive:zone_in">652</property>
  <property name="kdenlive:zone_out">1078</property>
  <property name="kdenlive:clipzones">[
    {
        "in": 652,
        "name": "Zone 1",
        "out": 1078
    }
]
</property>
  <property name="global_feed">1</property>
  <property name="kdenlive:proxy">-</property>
  <property name="kdenlive:originalurl">content/footage/Water Pollution HD Stock Video _ Free stock footage _ Free HD Videos - No Copyright _ Channel PMI-T8wQ6y_AQGE.webm</property>
  <property name="kdenlive:original.mlt_type">mlt_producer</property>
  <property name="kdenlive:original.in">00:00:00.000</property>
  <property name="kdenlive:original.out">00:02:00.700</property>
  <property name="kdenlive:original.length">3622</property>
  <property name="kdenlive:original.eof">pause</property>
  <property name="kdenlive:original.resource">/home/ryankelln/Documents/Projects/Active/Sound_Escapes/Dhaivat/footage/Water Pollution HD Stock Video _ Free stock footage _ Free HD Videos - No Copyright _ Channel PMI-T8wQ6y_AQGE.webm</property>
  <property name="kdenlive:original.audio_index">1</property>
  <property name="kdenlive:original.video_index">0</property>
  <property name="kdenlive:original.mute_on_pause">0</property>
  <property name="kdenlive:original.mlt_service">avformat-novalidate</property>
  <property name="kdenlive:original.id">producer14</property>
  <property name="kdenlive:original.meta.media.nb_streams">2</property>
  <property name="kdenlive:original.meta.media.0.stream.type">video</property>
  <property name="kdenlive:original.meta.media.0.stream.frame_rate">29.917</property>
  <property name="kdenlive:original.meta.media.0.stream.sample_aspect_ratio">1</property>
  <property name="kdenlive:original.meta.media.0.codec.width">3840</property>
  <property name="kdenlive:original.meta.media.0.codec.height">2160</property>
  <property name="kdenlive:original.meta.media.0.codec.rotate">0</property>
  <property name="kdenlive:original.meta.media.0.codec.frame_rate">1000</property>
  <property name="kdenlive:original.meta.media.0.codec.pix_fmt">yuv420p</property>
  <property name="kdenlive:original.meta.media.0.codec.sample_aspect_ratio">0</property>
  <property name="kdenlive:original.meta.media.0.codec.colorspace">709</property>
  <property name="kdenlive:original.meta.media.0.codec.color_trc">1</property>
  <property name="kdenlive:original.meta.media.0.codec.name">vp9</property>
  <property name="kdenlive:original.meta.media.0.codec.long_name">Google VP9</property>
  <property name="kdenlive:original.meta.media.0.codec.bit_rate">0</property>
  <property name="kdenlive:original.meta.attr.0.stream.language.markup">eng</property>
  <property name="kdenlive:original.meta.attr.0.stream.DURATION.markup">00:02:00.700000000</property>
  <property name="kdenlive:original.meta.media.1.stream.type">audio</property>
  <property name="kdenlive:original.meta.media.1.codec.sample_fmt">fltp</property>
  <property name="kdenlive:original.meta.media.1.codec.sample_rate">48000</property>
  <property name="kdenlive:original.meta.media.1.codec.channels">2</property>
  <property name="kdenlive:original.meta.media.1.codec.name">opus</property>
  <property name="kdenlive:original.meta.media.1.codec.long_name">Opus</property>
  <property name="kdenlive:original.meta.media.1.codec.bit_rate">0</property>
  <property name="kdenlive:original.meta.attr.1.stream.language.markup">eng</property>
  <property name="kdenlive:original.meta.attr.1.stream.DURATION.markup">00:02:00.721000000</property>
  <property name="kdenlive:original.meta.attr.ENCODER.markup">Lavf58.45.100</property>
  <property name="kdenlive:original.seekable">1</property>
  <property name="kdenlive:original.meta.media.sample_aspect_num">1</property>
  <property name="kdenlive:original.meta.media.sample_aspect_den">1</property>
  <property name="kdenlive:original.aspect_ratio">1</property>
  <property name="kdenlive:original.kdenlive:folderid">63</property>
  <property name="kdenlive:original.meta.media.frame_rate_num">29917</property>
  <property name="kdenlive:original.meta.media.frame_rate_den">1000</property>
  <property name="kdenlive:original.meta.media.colorspace">709</property>
  <property name="kdenlive:original.meta.media.color_trc">1</property>
  <property name="kdenlive:original.meta.media.width">3840</property>
  <property name="kdenlive:original.meta.media.height">2160</property>
  <property name="kdenlive:original.meta.media.color_range">mpeg</property>
  <property name="kdenlive:original.kdenlive:id">17</property>
  <property name="kdenlive:original.kdenlive:file_size">140629286</property>
  <property name="kdenlive:original.kdenlive:file_hash">c551e4017b4fcc35602ab945d913e16d</property>
  <property name="kdenlive:original.kdenlive:audio_max">1</property>
  <property name="kdenlive:original.meta.media.top_field_first">0</property>
  <property name="kdenlive:original.meta.media.progressive">1</property>
  <property name="kdenlive:original.kdenlive:active_streams">-1</property>
  <property name="kdenlive:original.kdenlive:zone_in">652</property>
  <property name="kdenlive:original.kdenlive:zone_out">1078</property>
  <property name="kdenlive:original.kdenlive:clipzones">[
    {
        "in": 652,
        "name": "Zone 1",
        "out": 1078
    }
]
</property>
  <property name="kdenlive:original.global_feed">1</property>
  <property name="kdenlive:original.width">3840</property>
  <property name="kdenlive:original.height">2160</property>
  <property name="kdenlive:original.root">/</property>
  <property name="kdenlive:original.backup">1</property>
  <property name="xml">was here</property>
  <property name="meta.media.nb_streams">2</property>
  <property name="meta.media.0.stream.type">video</property>
  <property name="meta.media.0.stream.frame_rate">29.917</property>
  <property name="meta.media.0.stream.sample_aspect_ratio">1</property>
  <property name="meta.media.0.codec.width">640</property>
  <property name="meta.media.0.codec.height">360</property>
  <property name="meta.media.0.codec.rotate">0</property>
  <property name="meta.media.0.codec.frame_rate">1000</property>
  <property name="meta.media.0.codec.pix_fmt">yuvj420p</property>
  <property name="meta.media.0.codec.sample_aspect_ratio">1</property>
  <property name="meta.media.0.codec.colorspace">601</property>
  <property name="meta.media.0.codec.color_trc">1</property>
  <property name="meta.media.0.codec.name">mjpeg</property>
  <property name="meta.media.0.codec.long_name">MJPEG (Motion JPEG)</property>
  <property name="meta.media.0.codec.bit_rate">0</property>
  <property name="meta.attr.0.stream.language.markup">eng</property>
  <property name="meta.attr.0.stream.ENCODER.markup">Lavc58.134.100 mjpeg</property>
  <property name="meta.attr.0.stream.DURATION.markup">00:02:00.700000000</property>
  <property name="meta.media.1.stream.type">audio</property>
  <property name="meta.media.1.codec.sample_fmt">s16</property>
  <property name="meta.media.1.codec.sample_rate">48000</property>
  <property name="meta.media.1.codec.channels">2</property>
  <property name="meta.media.1.codec.name">pcm_s16le</property>
  <property name="meta.media.1.codec.long_name">PCM signed 16-bit little-endian</property>
  <property name="meta.media.1.codec.bit_rate">1536000</property>
  <property name="meta.attr.1.stream.language.markup">eng</property>
  <property name="meta.attr.1.stream.ENCODER.markup">Lavc58.134.100 pcm_s16le</property>
  <property name="meta.attr.1.stream.DURATION.markup">00:02:00.716000000</property>
  <property name="meta.attr.ENCODER.markup">Lavf58.76.100</property>
  <property name="meta.media.sample_aspect_num">1</property>
  <property name="meta.media.sample_aspect_den">1</property>
  <property name="meta.media.frame_rate_num">29917</property>
  <property name="meta.media.frame_rate_den">1000</property>
  <property name="meta.media.colorspace">601</property>
  <property name="meta.media.color_trc">1</property>
  <property name="meta.media.width">640</property>
  <property name="meta.media.height">360</property>
  <property name="meta.media.color_range">full</property>
  <property name="set.test_audio">1</property>
  <property name="set.test_image">0</property>
  <property name="meta.media.top_field_first">0</property>
  <property name="meta.media.progressive">1</property>
 </producer>
 <producer id="producer135" in="00:00:00.000" out="00:08:59.600">
  <property name="length">16189</property>
  <property name="eof">pause</property>
  <property name="resource">content/footage/Fire Behaviour - Observation &amp; Training-p1iZPR6aIBc.mkv</property>
  <property name="audio_index">1</property>
  <property name="video_index">0</property>
  <property name="mute_on_pause">0</property>
  <property name="mlt_service">avformat-novalidate</property>
  <property name="seekable">1</property>
  <property name="aspect_ratio">1</property>
  <property name="kdenlive:clipname">Fire Behaviour - Observation &amp; Training-p1iZPR6aIBc.mkv</property>
  <property name="kdenlive:folderid">84</property>
  <property name="kdenlive:id">9</property>
  <property name="kdenlive:file_size">129628201</property>
  <property name="kdenlive:file_hash">2cf87f7d8e63a09c6d378f999df2c886</property>
  <property name="kdenlive:audio_max">2</property>
  <property name="kdenlive:zone_in">13238</property>
  <property name="kdenlive:zone_out">13540</property>
  <property name="kdenlive:clipzones">[
    {
        "in": 873,
        "name": "Zone 1",
        "out": 1625
    },
    {
        "in": 13238,
        "name": "Zone 2",
        "out": 13540
    }
]
</property>
  <property name="kdenlive:active_streams">-1</property>
  <property name="global_feed">1</property>
  <property name="kdenlive:proxy">-</property>
  <property name="kdenlive:originalurl">content/footage/Fire Behaviour - Observation &amp; Training-p1iZPR6aIBc.mkv</property>
  <property name="kdenlive:original.mlt_type">mlt_producer</property>
  <property name="kdenlive:original.in">00:00:00.000</property>
  <property name="kdenlive:original.out">00:08:59.600</property>
  <property name="kdenlive:original.length">16189</property>
  <property name="kdenlive:original.eof">pause</property>
  <property name="kdenlive:original.resource">/home/ryankelln/Documents/Projects/Active/Sound_Escapes/Dhaivat/footage/Fire Behaviour - Observation &amp; Training-p1iZPR6aIBc.mkv</property>
  <property name="kdenlive:original.audio_index">1</property>
  <property name="kdenlive:original.video_index">0</property>
  <property name="kdenlive:original.mute_on_pause">0</property>
  <property name="kdenlive:original.mlt_service">avformat-novalidate</property>
  <property name="kdenlive:original.seekable">1</property>
  <property name="kdenlive:original.aspect_ratio">1</property>
  <property name="kdenlive:original.kdenlive:folderid">84</property>
  <property name="kdenlive:original.kdenlive:id">18</property>
  <property name="kdenlive:original.kdenlive:file_size">129628201</property>
  <property name="kdenlive:original.kdenlive:file_hash">2cf87f7d8e63a09c6d378f999df2c886</property>
  <property name="kdenlive:original.kdenlive:audio_max">2</property>
  <property name="kdenlive:original.kdenlive:zone_in">13238</property>
  <property name="kdenlive:original.kdenlive:zone_out">13540</property>
  <property name="kdenlive:original.kdenlive:clipzones">[
    {
        "in": 873,
        "name": "Zone 1",
        "out": 1625
    },
    {
        "in": 13238,
        "name": "Zone 2",
        "out": 13540
    }
]
</property>
  <property name="kdenlive:original.kdenlive:active_streams">-1</property>
  <property name="kdenlive:original.global_feed">1</property>
  <property name="kdenlive:original.meta.media.nb_streams">2</property>
  <property name="kdenlive:original.meta.media.0.stream.type">video</property>
  <property name="kdenlive:original.meta.media.0.stream.frame_rate">25</property>
  <property name="kdenlive:original.meta.media.0.stream.sample_aspect_ratio">1</property>
  <property name="kdenlive:original.meta.media.0.codec.width">1280</property>
  <property name="kdenlive:original.meta.media.0.codec.height">720</property>
  <property name="kdenlive:original.meta.media.0.codec.rotate">0</property>
  <property name="kdenlive:original.meta.media.0.codec.frame_rate">25</property>
  <property name="kdenlive:original.meta.media.0.codec.pix_fmt">yuv420p</property>
  <property name="kdenlive:original.meta.media.0.codec.sample_aspect_ratio">1</property>
  <property name="kdenlive:original.meta.media.0.codec.colorspace">709</property>
  <property name="kdenlive:original.meta.media.0.codec.color_trc">1</property>
  <property name="kdenlive:original.meta.media.0.codec.name">h264</property>
  <property name="kdenlive:original.meta.media.0.codec.long_name">H.264 / AVC / MPEG-4 AVC / MPEG-4 part 10</property>
  <property name="kdenlive:original.meta.media.0.codec.bit_rate">0</property>
  <property name="kdenlive:original.meta.attr.0.stream.HANDLER_NAME.markup">VideoHandler</property>
  <property name="kdenlive:original.meta.attr.0.stream.DURATION.markup">00:08:59.600000000</property>
  <property name="kdenlive:original.meta.media.1.stream.type">audio</property>
  <property name="kdenlive:original.meta.media.1.codec.sample_fmt">fltp</property>
  <property name="kdenlive:original.meta.media.1.codec.sample_rate">48000</property>
  <property name="kdenlive:original.meta.media.1.codec.channels">2</property>
  <property name="kdenlive:original.meta.media.1.codec.name">opus</property>
  <property name="kdenlive:original.meta.media.1.codec.long_name">Opus</property>
  <property name="kdenlive:original.meta.media.1.codec.bit_rate">0</property>
  <property name="kdenlive:original.meta.attr.1.stream.language.markup">eng</property>
  <property name="kdenlive:original.meta.attr.1.stream.DURATION.markup">00:08:59.641000000</property>
  <property name="kdenlive:original.meta.attr.COMPATIBLE_BRANDS.markup">iso6avc1mp41</property>
  <property name="kdenlive:original.meta.attr.MAJOR_BRAND.markup">dash</property>
  <property name="kdenlive:original.meta.attr.MINOR_VERSION.markup">0</property>
  <property name="kdenlive:original.meta.attr.ENCODER.markup">Lavf58.45.100</property>
  <property name="kdenlive:original.width">1280</property>
  <property name="kdenlive:original.height">720</property>
  <property name="kdenlive:original.meta.media.sample_aspect_num">1</property>
  <property name="kdenlive:original.meta.media.sample_aspect_den">1</property>
  <property name="kdenlive:original.meta.media.frame_rate_num">25</property>
  <property name="kdenlive:original.meta.media.frame_rate_den">1</property>
  <property name="kdenlive:original.meta.media.colorspace">709</property>
  <property name="kdenlive:original.meta.media.color_trc">1</property>
  <property name="kdenlive:original.meta.media.width">1280</property>
  <property name="kdenlive:original.meta.media.height">720</property>
  <property name="kdenlive:original.meta.media.color_range">mpeg</property>
  <property name="kdenlive:original.root">/</property>
  <property name="kdenlive:original.meta.media.top_field_first">0</property>
  <property name="kdenlive:original.meta.media.progressive">1</property>
  <property name="kdenlive:original.backup">1</property>
  <property name="xml">was here</property>
  <property name="meta.media.nb_streams">2</property>
  <property name="meta.media.0.stream.type">video</property>
  <property name="meta.media.0.stream.frame_rate">25</property>
  <property name="meta.media.0.stream.sample_aspect_ratio">1</property>
  <property name="meta.media.0.codec.width">640</property>
  <property name="meta.media.0.codec.height">360</property>
  <property name="meta.media.0.codec.rotate">0</property>
  <property name="meta.media.0.codec.frame_rate">1000</property>
  <property name="meta.media.0.codec.pix_fmt">yuvj420p</property>
  <property name="meta.media.0.codec.sample_aspect_ratio">1</property>
  <property name="meta.media.0.codec.colorspace">601</property>
  <property name="meta.media.0.codec.color_trc">1</property>
  <property name="meta.media.0.codec.name">mjpeg</property>
  <property name="meta.media.0.codec.long_name">MJPEG (Motion JPEG)</property>
  <property name="meta.media.0.codec.bit_rate">0</property>
  <property name="meta.attr.0.stream.HANDLER_NAME.markup">VideoHandler</property>
  <property name="meta.attr.0.stream.ENCODER.markup">Lavc58.134.100 mjpeg</property>
  <property name="meta.attr.0.stream.DURATION.markup">00:08:59.600000000</property>
  <property name="meta.media.1.stream.type">audio</property>
  <property name="meta.media.1.codec.sample_fmt">s16</property>
  <property name="meta.media.1.codec.sample_rate">48000</property>
  <property name="meta.media.1.codec.channels">2</property>
  <property name="meta.media.1.codec.name">pcm_s16le</property>
  <property name="meta.media.1.codec.long_name">PCM signed 16-bit little-endian</property>
  <property name="meta.media.1.codec.bit_rate">1536000</property>
  <property name="meta.attr.1.stream.language.markup">eng</property>
  <property name="meta.attr.1.stream.ENCODER.markup">Lavc58.134.100 pcm_s16le</property>
  <property name="meta.attr.1.stream.DURATION.markup">00:08:59.628000000</property>
  <property name="meta.attr.MINOR_VERSION.markup">0</property>
  <property name="meta.attr.COMPATIBLE_BRANDS.markup">iso6avc1mp41</property>
  <property name="meta.attr.MAJOR_BRAND.markup">dash</property>
  <property name="meta.attr.ENCODER.markup">Lavf58.76.100</property>
  <property name="meta.media.sample_aspect_num">1</property>
  <property name="meta.media.sample_aspect_den">1</property>
  <property name="meta.media.frame_rate_num">25</property>
  <property name="meta.media.frame_rate_den">1</property>
  <property name="meta.media.colorspace">601</property>
  <property name="meta.media.color_trc">1</property>
  <property name="meta.media.width">640</property>
  <property name="meta.media.height">360</property>
  <property name="meta.media.color_range">full</property>
  <property name="meta.media.top_field_first">0</property>
  <property name="meta.media.progressive">1</property>
  <property name="set.test_audio">1</property>
  <property name="set.test_image">0</property>
 </producer>
 <producer id="producer136" in="00:00:00.000" out="00:02:47.467">
  <property name="length">5025</property>
  <property name="eof">pause</property>
  <property name="resource">content/footage/2021-04-24_Toronto_tree+magnolia+movement+macro.MP4</property>
  <property name="audio_index">1</property>
  <property name="video_index">0</property>
  <property name="mute_on_pause">0</property>
  <property name="mlt_service">avformat-novalidate</property>
  <property name="seekable">1</property>
  <property name="aspect_ratio">1</property>
  <property name="kdenlive:clipname">2021-04-24_Toronto_tree+magnolia+movement+macro.MP4</property>
  <property name="kdenlive:folderid">63</property>
  <property name="kdenlive:id">3</property>
  <property name="kdenlive:file_size">835733363</property>
  <property name="kdenlive:file_hash">16a034a0362eb6219c2b9586df72cc5c</property>
  <property name="kdenlive:audio_max">91</property>
  <property name="kdenlive:zone_in">51</property>
  <property name="kdenlive:zone_out">1025</property>
  <property name="kdenlive:clipzones">[
    {
        "in": 51,
        "name": "Magnolia close-up",
        "out": 1025
    }
]
</property>
  <property name="global_feed">1</property>
  <property name="kdenlive:active_streams">-1</property>
  <property name="kdenlive:proxy">-</property>
  <property name="kdenlive:originalurl">content/footage/2021-04-24_Toronto_tree+magnolia+movement+macro.MP4</property>
  <property name="xml">was here</property>
  <property name="meta.media.nb_streams">3</property>
  <property name="meta.media.0.stream.type">video</property>
  <property name="meta.media.0.stream.frame_rate">24</property>
  <property name="meta.media.0.stream.sample_aspect_ratio">0</property>
  <property name="meta.media.0.codec.width">1920</property>
  <property name="meta.media.0.codec.height">1080</property>
  <property name="meta.media.0.codec.rotate">0</property>
  <property name="meta.media.0.codec.frame_rate">24</property>
  <property name="meta.media.0.codec.pix_fmt">yuv420p</property>
  <property name="meta.media.0.codec.sample_aspect_ratio">1</property>
  <property name="meta.media.0.codec.colorspace">709</property>
  <property name="meta.media.0.codec.color_trc">1</property>
  <property name="meta.media.0.codec.name">h264</property>
  <property name="meta.media.0.codec.long_name">H.264 / AVC / MPEG-4 AVC / MPEG-4 part 10</property>
  <property name="meta.media.0.codec.bit_rate">38366334</property>
  <property name="meta.attr.0.stream.creation_time.markup">2021-04-24T14:30:53.000000Z</property>
  <property name="meta.attr.0.stream.vendor_id.markup">[0][0][0][0]</property>
  <property name="meta.attr.0.stream.timecode.markup">05:45:17:03</property>
  <property name="meta.media.1.stream.type">audio</property>
  <property name="meta.media.1.codec.sample_fmt">s16</property>
  <property name="meta.media.1.codec.sample_rate">48000</property>
  <property name="meta.media.1.codec.channels">2</property>
  <property name="meta.media.1.codec.name">pcm_s16be</property>
  <property name="meta.media.1.codec.long_name">PCM signed 16-bit big-endian</property>
  <property name="meta.media.1.codec.bit_rate">1536000</property>
  <property name="meta.attr.1.stream.creation_time.markup">2021-04-24T14:30:53.000000Z</property>
  <property name="meta.attr.1.stream.vendor_id.markup">pana</property>
  <property name="meta.attr.1.stream.timecode.markup">05:45:17:03</property>
  <property name="meta.attr.major_brand.markup">mp42</property>
  <property name="meta.attr.minor_version.markup">1</property>
  <property name="meta.attr.compatible_brands.markup">mp42avc1</property>
  <property name="meta.attr.creation_time.markup">2021-04-24T14:30:53.000000Z</property>
  <property name="meta.media.sample_aspect_num">1</property>
  <property name="meta.media.sample_aspect_den">1</property>
  <property name="meta.media.frame_rate_num">24</property>
  <property name="meta.media.frame_rate_den">1</property>
  <property name="meta.media.colorspace">709</property>
  <property name="meta.media.color_trc">1</property>
  <property name="meta.media.width">1920</property>
  <property name="meta.media.height">1080</property>
  <property name="meta.media.color_range">mpeg</property>
  <property name="meta.media.top_field_first">0</property>
  <property name="meta.media.progressive">1</property>
  <property name="set.test_audio">1</property>
  <property name="set.test_image">0</property>
 </producer>
 <playlist id="playlist14">
  <entry producer="producer117" in="00:00:00.000" out="00:00:10.533">
   <property name="kdenlive:id">37</property>
  </entry>
  <blank length="00:00:09.300"/>
  <entry producer="producer118" in="00:00:00.000" out="00:00:04.933">
   <property name="kdenlive:id">33</property>
  </entry>
  <blank length="00:00:04.733"/>
  <entry producer="producer119" in="00:00:00.000" out="00:00:04.600">
   <property name="kdenlive:id">36</property>
  </entry>
  <entry producer="producer120" in="00:00:25.300" out="00:00:31.967">
   <property name="kdenlive:id">21</property>
   <filter id="filter82">
    <property name="rotate_center">1</property>
    <property name="mlt_service">qtblend</property>
    <property name="kdenlive_id">qtblend</property>
    <property name="rect">00:00:25.300=-246 0 1920 1080 1.000000</property>
    <property name="rotation">00:00:25.300=0</property>
    <property name="compositing">0</property>
    <property name="distort">0</property>
    <property name="kdenlive:collapsed">0</property>
   </filter>
   <filter id="filter83">
    <property name="mirror">horizontal</property>
    <property name="mlt_service">mirror</property>
    <property name="kdenlive_id">mirror</property>
    <property name="reverse">1</property>
    <property name="kdenlive:collapsed">0</property>
   </filter>
  </entry>
  <blank length="00:00:06.467"/>
  <entry producer="producer121" in="00:00:27.900" out="00:00:32.367">
   <property name="kdenlive:id">21</property>
   <filter id="filter84">
    <property name="rotate_center">1</property>
    <property name="mlt_service">qtblend</property>
    <property name="kdenlive_id">qtblend</property>
    <property name="rect">837=649 0 1920 1080 1.000000;971=649 0 1920 1080 1.000000</property>
    <property name="rotation">837=0;971=0</property>
    <property name="compositing">0</property>
    <property name="distort">0</property>
    <property name="kdenlive:collapsed">0</property>
   </filter>
   <filter id="filter85">
    <property name="mirror">horizontal</property>
    <property name="mlt_service">mirror</property>
    <property name="kdenlive_id">mirror</property>
    <property name="reverse">0</property>
    <property name="kdenlive:collapsed">0</property>
   </filter>
  </entry>
  <entry producer="producer120" in="00:04:09.333" out="00:04:15.400">
   <property name="kdenlive:id">21</property>
   <filter id="filter86">
    <property name="rotate_center">1</property>
    <property name="mlt_service">qtblend</property>
    <property name="kdenlive_id">qtblend</property>
    <property name="rect">00:04:09.333=448 0 1920 1080 1.000000</property>
    <property name="rotation">00:04:09.333=0</property>
    <property name="compositing">0</property>
    <property name="distort">0</property>
    <property name="kdenlive:collapsed">0</property>
   </filter>
   <filter id="filter87">
    <property name="mirror">horizontal</property>
    <property name="mlt_service">mirror</property>
    <property name="kdenlive_id">mirror</property>
    <property name="reverse">0</property>
    <property name="kdenlive:collapsed">0</property>
   </filter>
  </entry>
  <entry producer="producer122" in="00:02:29.833" out="00:02:35.967">
   <property name="kdenlive:id">21</property>
   <filter id="filter88">
    <property name="rotate_center">1</property>
    <property name="mlt_service">qtblend</property>
    <property name="kdenlive_id">qtblend</property>
    <property name="rect">00:02:29.833=233 0 1920 1080 1.000000</property>
    <property name="rotation">00:02:29.833=0</property>
    <property name="compositing">0</property>
    <property name="distort">0</property>
    <property name="kdenlive:collapsed">0</property>
   </filter>
   <filter id="filter89">
    <property name="mirror">horizontal</property>
    <property name="mlt_service">mirror</property>
    <property name="kdenlive_id">mirror</property>
    <property name="reverse">0</property>
    <property name="kdenlive:collapsed">0</property>
   </filter>
  </entry>
  <entry producer="producer120" in="00:04:21.433" out="00:04:26.367">
   <property name="kdenlive:id">21</property>
   <filter id="filter90">
    <property name="rotate_center">1</property>
    <property name="mlt_service">qtblend</property>
    <property name="kdenlive_id">qtblend</property>
    <property name="rect">00:04:21.433=356 0 1920 1080 1.000000</property>
    <property name="rotation">00:04:21.433=0</property>
    <property name="compositing">0</property>
    <property name="distort">0</property>
    <property name="kdenlive:collapsed">0</property>
   </filter>
   <filter id="filter91">
    <property name="mirror">horizontal</property>
    <property name="mlt_service">mirror</property>
    <property name="kdenlive_id">mirror</property>
    <property name="reverse">0</property>
    <property name="kdenlive:collapsed">0</property>
   </filter>
  </entry>
  <blank length="00:00:06.733"/>
  <entry producer="producer120" in="00:03:03.433" out="00:03:13.633">
   <property name="kdenlive:id">21</property>
   <filter id="filter92">
    <property name="rotate_center">1</property>
    <property name="mlt_service">qtblend</property>
    <property name="kdenlive_id">qtblend</property>
    <property name="rect">00:03:03.433=-622 0 1920 1080 1.000000</property>
    <property name="rotation">00:03:03.433=0</property>
    <property name="compositing">0</property>
    <property name="distort">0</property>
    <property name="kdenlive:collapsed">0</property>
   </filter>
   <filter id="filter93">
    <property name="mirror">horizontal</property>
    <property name="mlt_service">mirror</property>
    <property name="kdenlive_id">mirror</property>
    <property name="reverse">1</property>
    <property name="kdenlive:collapsed">0</property>
   </filter>
  </entry>
  <blank length="00:00:08.200"/>
  <entry producer="producer123" in="00:03:39.233" out="00:03:50.267">
   <property name="kdenlive:id">7</property>
  </entry>
  <entry producer="producer123" in="00:01:35.267" out="00:01:41.300">
   <property name="kdenlive:id">7</property>
  </entry>
  <blank length="00:00:08.500"/>
  <entry producer="producer124" in="00:00:13.767" out="00:00:18.233">
   <property name="kdenlive:id">7</property>
  </entry>
  <entry producer="producer123" in="00:02:53.933" out="00:02:58.967">
   <property name="kdenlive:id">7</property>
  </entry>
  <entry producer="producer123" in="00:00:16.700" out="00:00:19.033">
   <property name="kdenlive:id">7</property>
   <filter id="filter94">
    <property name="rotate_center">1</property>
    <property name="mlt_service">qtblend</property>
    <property name="kdenlive_id">qtblend</property>
    <property name="rect">00:00:16.700=0 0 1920 1080 1.000000;00:00:19.033|=-384 -216 2688 1512 1.000000</property>
    <property name="rotation">00:00:16.700=0;00:00:19.033|=0</property>
    <property name="compositing">0</property>
    <property name="distort">0</property>
    <property name="kdenlive:collapsed">0</property>
   </filter>
  </entry>
  <entry producer="producer125" in="00:00:02.533" out="00:00:04.900">
   <property name="kdenlive:id">19</property>
  </entry>
  <entry producer="producer123" in="00:07:19.767" out="00:07:22.233">
   <property name="kdenlive:id">7</property>
  </entry>
  <entry producer="producer123" in="00:07:27.467" out="00:07:28.533">
   <property name="kdenlive:id">7</property>
  </entry>
  <entry producer="producer123" in="00:07:34.733" out="00:07:36.000">
   <property name="kdenlive:id">7</property>
  </entry>
  <entry producer="producer123" in="00:07:35.367" out="00:07:36.400">
   <property name="kdenlive:id">7</property>
  </entry>
  <entry producer="producer123" in="00:07:42.567" out="00:07:43.467">
   <property name="kdenlive:id">7</property>
  </entry>
  <entry producer="producer126" in="00:00:42.433" out="00:00:42.867">
   <property name="kdenlive:id">7</property>
  </entry>
  <entry producer="producer123" in="00:07:43.967" out="00:07:44.333">
   <property name="kdenlive:id">7</property>
  </entry>
  <entry producer="producer123" in="00:07:45.633" out="00:07:46.433">
   <property name="kdenlive:id">7</property>
  </entry>
  <entry producer="producer127" in="00:05:10.967" out="00:05:11.167">
   <property name="kdenlive:id">7</property>
  </entry>
  <entry producer="producer128" in="00:03:53.333" out="00:03:53.567">
   <property name="kdenlive:id">7</property>
   <property name="kdenlive:activeeffect">1</property>
   <filter id="filter95">
    <property name="mlt_service">avfilter.vflip</property>
    <property name="kdenlive_id">avfilter.vflip</property>
    <property name="kdenlive:collapsed">0</property>
   </filter>
   <filter id="filter96">
    <property name="background">colour:0</property>
    <property name="mlt_service">affine</property>
    <property name="kdenlive_id">pan_zoom</property>
    <property name="transition.geometry">7000=0 -1080 1920 1080;7007=0 -668 1920 1080</property>
    <property name="transition.distort">0</property>
    <property name="use_normalised">0</property>
    <property name="producer.resource">0xffffffff</property>
    <property name="kdenlive:collapsed">0</property>
   </filter>
  </entry>
  <entry producer="producer129" in="00:03:06.767" out="00:03:07.000">
   <property name="kdenlive:id">7</property>
   <property name="kdenlive:activeeffect">1</property>
   <filter id="filter97">
    <property name="mlt_service">avfilter.vflip</property>
    <property name="kdenlive_id">avfilter.vflip</property>
    <property name="kdenlive:collapsed">0</property>
   </filter>
   <filter id="filter98">
    <property name="background">colour:0</property>
    <property name="mlt_service">affine</property>
    <property name="kdenlive_id">pan_zoom</property>
    <property name="transition.geometry">5603=0 -668 1920 1080;5610=0 -468 1920 1080</property>
    <property name="transition.distort">0</property>
    <property name="use_normalised">0</property>
    <property name="producer.resource">0xffffffff</property>
    <property name="kdenlive:collapsed">0</property>
   </filter>
  </entry>
  <entry producer="producer130" in="00:02:35.733" out="00:02:35.967">
   <property name="kdenlive:id">7</property>
   <property name="kdenlive:activeeffect">1</property>
   <filter id="filter99">
    <property name="mlt_service">avfilter.vflip</property>
    <property name="kdenlive_id">avfilter.vflip</property>
    <property name="kdenlive:collapsed">0</property>
   </filter>
   <filter id="filter100">
    <property name="background">colour:0</property>
    <property name="mlt_service">affine</property>
    <property name="kdenlive_id">pan_zoom</property>
    <property name="transition.geometry">4672=0 -468 1920 1080;4679=0 -268 1920 1080</property>
    <property name="transition.distort">0</property>
    <property name="use_normalised">0</property>
    <property name="producer.resource">0xffffffff</property>
    <property name="kdenlive:collapsed">0</property>
   </filter>
  </entry>
  <entry producer="producer131" in="00:02:13.567" out="00:02:13.767">
   <property name="kdenlive:id">7</property>
   <property name="kdenlive:activeeffect">1</property>
   <filter id="filter101">
    <property name="mlt_service">avfilter.vflip</property>
    <property name="kdenlive_id">avfilter.vflip</property>
    <property name="kdenlive:collapsed">0</property>
   </filter>
   <filter id="filter102">
    <property name="background">colour:0</property>
    <property name="mlt_service">affine</property>
    <property name="kdenlive_id">pan_zoom</property>
    <property name="transition.geometry">4007=0 -268 1920 1080;4013=0 -168 1920 1080;4014|=0 -668 1920 1080</property>
    <property name="transition.distort">0</property>
    <property name="use_normalised">0</property>
    <property name="producer.resource">0xffffffff</property>
    <property name="kdenlive:collapsed">0</property>
   </filter>
  </entry>
  <entry producer="producer132" in="00:05:13.433" out="00:05:22.833">
   <property name="kdenlive:id">7</property>
   <property name="kdenlive:activeeffect">1</property>
   <filter id="filter103">
    <property name="mlt_service">avfilter.vflip</property>
    <property name="kdenlive_id">avfilter.vflip</property>
    <property name="kdenlive:collapsed">0</property>
   </filter>
   <filter id="filter104">
    <property name="background">colour:0</property>
    <property name="mlt_service">affine</property>
    <property name="kdenlive_id">pan_zoom</property>
    <property name="transition.geometry">9403=0 -268 1920 1080</property>
    <property name="transition.distort">0</property>
    <property name="use_normalised">0</property>
    <property name="producer.resource">0xffffffff</property>
    <property name="kdenlive:collapsed">0</property>
   </filter>
  </entry>
  <blank length="00:00:08.467"/>
  <entry producer="producer123" in="00:00:26.700" out="00:00:36.167">
   <property name="kdenlive:id">7</property>
  </entry>
  <entry producer="producer133" in="00:00:33.033" out="00:00:38.200">
   <property name="kdenlive:id">5</property>
   <filter id="filter105">
    <property name="rotate_center">1</property>
    <property name="mlt_service">qtblend</property>
    <property name="kdenlive_id">qtblend</property>
    <property name="rect">00:00:33.033=0 0 2272 1278 1.000000</property>
    <property name="rotation">00:00:33.033=0</property>
    <property name="compositing">0</property>
    <property name="distort">0</property>
    <property name="kdenlive:collapsed">0</property>
   </filter>
  </entry>
  <entry producer="producer133" in="00:01:34.767" out="00:01:41.067">
   <property name="kdenlive:id">5</property>
   <filter id="filter106">
    <property name="rotate_center">1</property>
    <property name="mlt_service">qtblend</property>
    <property name="kdenlive_id">qtblend</property>
    <property name="rect">00:01:34.767=0 0 2240 1260 1.000000</property>
    <property name="rotation">00:01:34.767=0</property>
    <property name="compositing">0</property>
    <property name="distort">0</property>
    <property name="kdenlive:collapsed">0</property>
   </filter>
  </entry>
  <entry producer="producer133" in="00:01:21.800" out="00:01:26.667">
   <property name="kdenlive:id">5</property>
   <filter id="filter107">
    <property name="rotate_center">1</property>
    <property name="mlt_service">qtblend</property>
    <property name="kdenlive_id">qtblend</property>
    <property name="rect">00:01:21.800=-8 1 2265 1274 1.000000</property>
    <property name="rotation">00:01:21.800=0</property>
    <property name="compositing">0</property>
    <property name="distort">0</property>
    <property name="kdenlive:collapsed">0</property>
   </filter>
  </entry>
  <blank length="00:00:11.033"/>
  <entry producer="producer134" in="00:00:32.933" out="00:00:34.867">
   <property name="kdenlive:id">8</property>
   <filter id="filter108">
    <property name="mlt_service">avfilter.hflip</property>
    <property name="kdenlive_id">avfilter.hflip</property>
    <property name="kdenlive:collapsed">0</property>
   </filter>
   <filter id="filter109">
    <property name="version">0.1</property>
    <property name="mlt_service">frei0r.alphaspot</property>
    <property name="kdenlive_id">frei0r.alphaspot</property>
    <property name="Shape">0</property>
    <property name="Position X">00:00:32.933=0.788</property>
    <property name="Position Y">00:00:32.933=0.5</property>
    <property name="Size X">00:00:32.933=0.24</property>
    <property name="Size Y">00:00:32.933=1</property>
    <property name="Tilt">00:00:32.933=0.5</property>
    <property name="Transition width">00:00:32.933=0.028</property>
    <property name="Min">00:00:32.933=0</property>
    <property name="Max">00:00:32.933=1</property>
    <property name="Operation">0</property>
    <property name="kdenlive:collapsed">0</property>
   </filter>
  </entry>
  <entry producer="producer135" in="00:00:29.100" out="00:00:32.333">
   <property name="kdenlive:id">9</property>
  </entry>
  <entry producer="producer135" in="00:00:41.300" out="00:00:44.700">
   <property name="kdenlive:id">9</property>
  </entry>
  <entry producer="producer135" in="00:00:20.267" out="00:00:23.367">
   <property name="kdenlive:id">9</property>
  </entry>
  <entry producer="producer135" in="00:00:33.067" out="00:00:37.867">
   <property name="kdenlive:id">9</property>
  </entry>
  <entry producer="producer135" in="00:00:58.167" out="00:01:01.367">
   <property name="kdenlive:id">9</property>
  </entry>
  <entry producer="producer135" in="00:06:13.267" out="00:06:16.367">
   <property name="kdenlive:id">9</property>
   <filter id="filter110">
    <property name="rotate_center">1</property>
    <property name="mlt_service">qtblend</property>
    <property name="kdenlive_id">qtblend</property>
    <property name="rect">00:06:13.267=-288 -162 2496 1404 1.000000</property>
    <property name="rotation">00:06:13.267=0</property>
    <property name="compositing">0</property>
    <property name="distort">0</property>
    <property name="kdenlive:collapsed">0</property>
   </filter>
  </entry>
  <entry producer="producer135" in="00:07:21.267" out="00:07:34.100">
   <property name="kdenlive:id">9</property>
   <filter id="filter111">
    <property name="rotate_center">1</property>
    <property name="mlt_service">qtblend</property>
    <property name="kdenlive_id">qtblend</property>
    <property name="rect">00:07:21.267=-185 -81 2307 1298 1.000000</property>
    <property name="rotation">00:07:21.267=0</property>
    <property name="compositing">0</property>
    <property name="distort">0</property>
    <property name="kdenlive:collapsed">0</property>
   </filter>
  </entry>
  <blank length="00:00:33.867"/>
  <entry producer="producer136" in="00:00:01.700" out="00:00:17.367">
   <property name="kdenlive:id">3</property>
   <filter id="filter112">
    <property name="rotate_center">1</property>
    <property name="mlt_service">qtblend</property>
    <property name="kdenlive_id">qtblend</property>
    <property name="rect">00:00:01.700=0 0 1920 1080 1.000000</property>
    <property name="rotation">00:00:01.700=0</property>
    <property name="compositing">0</property>
    <property name="distort">0</property>
    <property name="kdenlive:collapsed">0</property>
   </filter>
  </entry>
 </playlist>
 <playlist id="playlist15"/>
 <tractor id="tractor7" in="00:00:00.000" out="00:04:44.367">
  <property name="kdenlive:trackheight">69</property>
  <property name="kdenlive:timeline_active">0</property>
  <property name="kdenlive:collapsed">28</property>
  <property name="kdenlive:track_name">Humanity</property>
  <property name="kdenlive:thumbs_format"/>
  <property name="kdenlive:audio_rec"/>
  <property name="kdenlive:locked_track">1</property>
  <track hide="both" producer="playlist14"/>
  <track producer="playlist15"/>
 </tractor>
 <producer id="producer138" in="00:00:00.000" out="00:02:38.233">
  <property name="length">4748</property>
  <property name="eof">pause</property>
  <property name="resource">3.2:content/footage/Air Pollution HD Stock Video _ Free stock footage _ Free HD Videos - No Copyright _ Channel PMI-lq4ivmk9llM.mkv</property>
  <property name="aspect_ratio">1</property>
  <property name="meta.media.nb_streams">2</property>
  <property name="meta.media.0.stream.type">video</property>
  <property name="meta.media.0.stream.frame_rate">29.939</property>
  <property name="meta.media.0.stream.sample_aspect_ratio">1</property>
  <property name="meta.media.0.codec.width">640</property>
  <property name="meta.media.0.codec.height">360</property>
  <property name="meta.media.0.codec.rotate">0</property>
  <property name="meta.media.0.codec.frame_rate">1000</property>
  <property name="meta.media.0.codec.pix_fmt">yuvj420p</property>
  <property name="meta.media.0.codec.sample_aspect_ratio">1</property>
  <property name="meta.media.0.codec.colorspace">601</property>
  <property name="meta.media.0.codec.color_trc">1</property>
  <property name="meta.media.0.codec.name">mjpeg</property>
  <property name="meta.media.0.codec.long_name">MJPEG (Motion JPEG)</property>
  <property name="meta.media.0.codec.bit_rate">0</property>
  <property name="meta.attr.0.stream.language.markup">eng</property>
  <property name="meta.attr.0.stream.DURATION.markup">00:08:26.363000000</property>
  <property name="meta.media.1.stream.type">audio</property>
  <property name="meta.media.1.codec.sample_fmt">s16</property>
  <property name="meta.media.1.codec.sample_rate">44100</property>
  <property name="meta.media.1.codec.channels">2</property>
  <property name="meta.media.1.codec.name">pcm_s16le</property>
  <property name="meta.media.1.codec.long_name">PCM signed 16-bit little-endian</property>
  <property name="meta.media.1.codec.bit_rate">1411200</property>
  <property name="meta.attr.1.stream.HANDLER_NAME.markup">ISO Media file produced by Google Inc.</property>
  <property name="meta.attr.1.stream.DURATION.markup">00:08:26.427000000</property>
  <property name="meta.attr.ENCODER.markup">Lavf58.76.100</property>
  <property name="seekable">1</property>
  <property name="meta.media.sample_aspect_num">1</property>
  <property name="meta.media.sample_aspect_den">1</property>
  <property name="audio_index">1</property>
  <property name="video_index">0</property>
  <property name="mute_on_pause">1</property>
  <property name="warp_speed">3.2</property>
  <property name="warp_resource">content/footage/Air Pollution HD Stock Video _ Free stock footage _ Free HD Videos - No Copyright _ Channel PMI-lq4ivmk9llM.mkv</property>
  <property name="mlt_service">timewarp</property>
  <property name="meta.attr.0.stream.ENCODER.markup">Lavc58.134.100 mjpeg</property>
  <property name="meta.attr.1.stream.ENCODER.markup">Lavc58.134.100 pcm_s16le</property>
  <property name="kdenlive:proxy">-</property>
  <property name="kdenlive:originalurl">content/footage/Air Pollution HD Stock Video _ Free stock footage _ Free HD Videos - No Copyright _ Channel PMI-lq4ivmk9llM.mkv</property>
  <property name="set.test_audio">1</property>
  <property name="set.test_image">0</property>
  <property name="kdenlive:id">7</property>
  <property name="warp_pitch">0</property>
  <property name="meta.media.frame_rate_num">29939</property>
  <property name="meta.media.frame_rate_den">1000</property>
  <property name="meta.media.colorspace">601</property>
  <property name="meta.media.color_trc">1</property>
  <property name="meta.media.width">640</property>
  <property name="meta.media.height">360</property>
  <property name="meta.media.color_range">full</property>
  <property name="meta.media.top_field_first">0</property>
  <property name="meta.media.progressive">1</property>
 </producer>
 <producer id="producer139" in="00:00:00.000" out="00:00:28.433">
  <property name="length">854</property>
  <property name="eof">pause</property>
  <property name="resource">1.5:content/footage/Full Earth Video - April 1st 2018-UZOOL3kYU9k.mp4</property>
  <property name="aspect_ratio">1</property>
  <property name="meta.media.nb_streams">1</property>
  <property name="meta.media.0.stream.type">video</property>
  <property name="meta.media.0.stream.frame_rate">30</property>
  <property name="meta.media.0.stream.sample_aspect_ratio">1</property>
  <property name="meta.media.0.codec.width">640</property>
  <property name="meta.media.0.codec.height">640</property>
  <property name="meta.media.0.codec.rotate">0</property>
  <property name="meta.media.0.codec.frame_rate">1000</property>
  <property name="meta.media.0.codec.pix_fmt">yuvj420p</property>
  <property name="meta.media.0.codec.sample_aspect_ratio">1</property>
  <property name="meta.media.0.codec.colorspace">601</property>
  <property name="meta.media.0.codec.color_trc">1</property>
  <property name="meta.media.0.codec.name">mjpeg</property>
  <property name="meta.media.0.codec.long_name">MJPEG (Motion JPEG)</property>
  <property name="meta.media.0.codec.bit_rate">0</property>
  <property name="meta.attr.0.stream.language.markup">eng</property>
  <property name="meta.attr.0.stream.handler_name.markup">VideoHandler</property>
  <property name="meta.attr.major_brand.markup">isom</property>
  <property name="meta.attr.minor_version.markup">512</property>
  <property name="meta.attr.compatible_brands.markup">isomiso2mp41</property>
  <property name="meta.attr.encoder.markup">Lavf58.45.100</property>
  <property name="seekable">1</property>
  <property name="meta.media.sample_aspect_num">1</property>
  <property name="meta.media.sample_aspect_den">1</property>
  <property name="audio_index">-1</property>
  <property name="video_index">0</property>
  <property name="mute_on_pause">1</property>
  <property name="warp_speed">1.5</property>
  <property name="warp_resource">content/footage/Full Earth Video - April 1st 2018-UZOOL3kYU9k.mp4</property>
  <property name="mlt_service">timewarp</property>
  <property name="meta.attr.0.stream.HANDLER_NAME.markup">VideoHandler</property>
  <property name="meta.attr.0.stream.VENDOR_ID.markup">[0][0][0][0]</property>
  <property name="meta.attr.0.stream.ENCODER.markup">Lavc58.134.100 mjpeg</property>
  <property name="meta.attr.0.stream.DURATION.markup">00:00:42.700000000</property>
  <property name="meta.attr.COMPATIBLE_BRANDS.markup">isomiso2mp41</property>
  <property name="meta.attr.MAJOR_BRAND.markup">isom</property>
  <property name="meta.attr.MINOR_VERSION.markup">512</property>
  <property name="meta.attr.ENCODER.markup">Lavf58.76.100</property>
  <property name="kdenlive:proxy">-</property>
  <property name="kdenlive:originalurl">content/footage/Full Earth Video - April 1st 2018-UZOOL3kYU9k.mp4</property>
  <property name="set.test_audio">1</property>
  <property name="set.test_image">0</property>
  <property name="kdenlive:id">25</property>
  <property name="warp_pitch">0</property>
  <property name="meta.media.frame_rate_num">30</property>
  <property name="meta.media.frame_rate_den">1</property>
  <property name="meta.media.colorspace">601</property>
  <property name="meta.media.color_trc">1</property>
  <property name="meta.media.width">640</property>
  <property name="meta.media.height">640</property>
  <property name="meta.media.color_range">full</property>
  <property name="meta.media.top_field_first">0</property>
  <property name="meta.media.progressive">1</property>
 </producer>
 <playlist id="playlist16">
  <blank length="00:02:24.100"/>
  <entry producer="producer138" in="00:01:57.333" out="00:02:16.867">
   <property name="kdenlive:id">7</property>
   <filter id="filter116">
    <property name="version">0.2</property>
    <property name="mlt_service">frei0r.coloradj_RGB</property>
    <property name="kdenlive_id">frei0r.coloradj_RGB</property>
    <property name="R">00:01:57.333~=0.375427;00:02:05.167~=0.284</property>
    <property name="G">00:01:57.333~=0.318908;00:02:05.167~=0.186</property>
    <property name="B">00:01:57.333~=0.351789;00:02:05.167~=0.068</property>
    <property name="Action">0.5</property>
    <property name="Keep luma">0</property>
    <property name="Alpha controlled">0</property>
    <property name="Luma formula">1</property>
    <property name="kdenlive:collapsed">0</property>
   </filter>
  </entry>
  <blank length="00:01:43.167"/>
  <entry producer="producer139" in="00:00:00.000" out="00:00:28.433">
   <property name="kdenlive:id">25</property>
   <filter id="filter118">
    <property name="version">0.1</property>
    <property name="mlt_service">frei0r.alphaspot</property>
    <property name="kdenlive_id">frei0r.alphaspot</property>
    <property name="Shape">0.38</property>
    <property name="Position X">00:00:00.000=0.5</property>
    <property name="Position Y">00:00:00.000=0.5</property>
    <property name="Size X">00:00:00.000=0.23</property>
    <property name="Size Y">00:00:00.000=0.41</property>
    <property name="Tilt">00:00:00.000=0.5</property>
    <property name="Transition width">00:00:00.000=0.01</property>
    <property name="Min">00:00:00.000=0</property>
    <property name="Max">00:00:00.000=1</property>
    <property name="Operation">0</property>
    <property name="kdenlive:collapsed">0</property>
   </filter>
  </entry>
 </playlist>
 <playlist id="playlist17"/>
 <tractor id="tractor8" in="00:00:00.000" out="00:04:55.267">
  <property name="kdenlive:trackheight">69</property>
  <property name="kdenlive:timeline_active">0</property>
  <property name="kdenlive:collapsed">28</property>
  <property name="kdenlive:track_name">Humanity blend</property>
  <property name="kdenlive:thumbs_format"/>
  <property name="kdenlive:audio_rec"/>
  <property name="kdenlive:locked_track">1</property>
  <track hide="both" producer="playlist16"/>
  <track producer="playlist17"/>
 </tractor>
 <producer id="producer39" in="00:00:00.000" out="00:05:14.133">
  <property name="length">9425</property>
  <property name="eof">pause</property>
  <property name="resource">1.55:content/tree_clock_mask.mp4</property>
  <property name="aspect_ratio">1</property>
  <property name="meta.media.nb_streams">1</property>
  <property name="meta.media.0.stream.type">video</property>
  <property name="meta.media.0.stream.frame_rate">29.97</property>
  <property name="meta.media.0.stream.sample_aspect_ratio">1</property>
  <property name="meta.media.0.codec.width">1920</property>
  <property name="meta.media.0.codec.height">1080</property>
  <property name="meta.media.0.codec.rotate">0</property>
  <property name="meta.media.0.codec.frame_rate">29.97</property>
  <property name="meta.media.0.codec.pix_fmt">yuv420p</property>
  <property name="meta.media.0.codec.sample_aspect_ratio">1</property>
  <property name="meta.media.0.codec.colorspace">709</property>
  <property name="meta.media.0.codec.color_trc">1</property>
  <property name="meta.media.0.codec.name">h264</property>
  <property name="meta.media.0.codec.long_name">H.264 / AVC / MPEG-4 AVC / MPEG-4 part 10</property>
  <property name="meta.media.0.codec.bit_rate">15695930</property>
  <property name="meta.attr.0.stream.handler_name.markup">VideoHandler</property>
  <property name="meta.attr.major_brand.markup">isom</property>
  <property name="meta.attr.minor_version.markup">512</property>
  <property name="meta.attr.compatible_brands.markup">isomiso2avc1mp41</property>
  <property name="meta.attr.encoder.markup">Lavf57.83.100</property>
  <property name="seekable">1</property>
  <property name="meta.media.sample_aspect_num">1</property>
  <property name="meta.media.sample_aspect_den">1</property>
  <property name="audio_index">-1</property>
  <property name="video_index">0</property>
  <property name="mute_on_pause">1</property>
  <property name="warp_speed">1.55</property>
  <property name="warp_resource">content/tree_clock_mask.mp4</property>
  <property name="mlt_service">timewarp</property>
  <property name="kdenlive:proxy">-</property>
  <property name="kdenlive:originalurl">content/tree_clock_mask.mp4</property>
  <property name="set.test_audio">1</property>
  <property name="set.test_image">0</property>
  <property name="kdenlive:id">2</property>
  <property name="warp_pitch">0</property>
 </producer>
 <producer id="producer40" in="00:00:00.000" out="00:05:14.133">
  <property name="length">9425</property>
  <property name="eof">pause</property>
  <property name="resource">1.55:content/tree_clock_mask.mp4</property>
  <property name="aspect_ratio">1</property>
  <property name="meta.media.nb_streams">1</property>
  <property name="meta.media.0.stream.type">video</property>
  <property name="meta.media.0.stream.frame_rate">29.97</property>
  <property name="meta.media.0.stream.sample_aspect_ratio">1</property>
  <property name="meta.media.0.codec.width">1920</property>
  <property name="meta.media.0.codec.height">1080</property>
  <property name="meta.media.0.codec.rotate">0</property>
  <property name="meta.media.0.codec.frame_rate">29.97</property>
  <property name="meta.media.0.codec.pix_fmt">yuv420p</property>
  <property name="meta.media.0.codec.sample_aspect_ratio">1</property>
  <property name="meta.media.0.codec.colorspace">709</property>
  <property name="meta.media.0.codec.color_trc">1</property>
  <property name="meta.media.0.codec.name">h264</property>
  <property name="meta.media.0.codec.long_name">H.264 / AVC / MPEG-4 AVC / MPEG-4 part 10</property>
  <property name="meta.media.0.codec.bit_rate">15695930</property>
  <property name="meta.attr.0.stream.handler_name.markup">VideoHandler</property>
  <property name="meta.attr.major_brand.markup">isom</property>
  <property name="meta.attr.minor_version.markup">512</property>
  <property name="meta.attr.compatible_brands.markup">isomiso2avc1mp41</property>
  <property name="meta.attr.encoder.markup">Lavf57.83.100</property>
  <property name="seekable">1</property>
  <property name="meta.media.sample_aspect_num">1</property>
  <property name="meta.media.sample_aspect_den">1</property>
  <property name="audio_index">-1</property>
  <property name="video_index">0</property>
  <property name="mute_on_pause">1</property>
  <property name="warp_speed">1.55</property>
  <property name="warp_resource">content/tree_clock_mask.mp4</property>
  <property name="mlt_service">timewarp</property>
  <property name="kdenlive:proxy">-</property>
  <property name="kdenlive:originalurl">content/tree_clock_mask.mp4</property>
  <property name="set.test_audio">1</property>
  <property name="set.test_image">0</property>
  <property name="kdenlive:id">2</property>
  <property name="warp_pitch">0</property>
 </producer>
 <playlist id="playlist18">
  <entry producer="producer39" in="00:00:01.467" out="00:00:31.400">
   <property name="kdenlive:id">2</property>
   <filter id="filter121">
    <property name="mlt_service">invert</property>
    <property name="kdenlive_id">invert</property>
    <property name="kdenlive:collapsed">0</property>
   </filter>
   <filter id="filter122" in="00:00:31.000" out="00:00:31.400">
    <property name="start">1</property>
    <property name="mlt_service">brightness</property>
    <property name="kdenlive_id">fade_to_black</property>
    <property name="end">0</property>
    <property name="alpha">-1</property>
    <property name="kdenlive:collapsed">0</property>
   </filter>
  </entry>
  <entry producer="producer78" in="00:00:00.000" out="00:01:54.100">
   <property name="kdenlive:id">39</property>
  </entry>
  <entry producer="producer40" in="00:02:25.567" out="00:04:55.767">
   <property name="kdenlive:id">2</property>
   <filter id="filter123">
    <property name="mlt_service">invert</property>
    <property name="kdenlive_id">invert</property>
    <property name="kdenlive:collapsed">0</property>
   </filter>
   <filter id="filter124" in="00:02:25.567" out="00:02:43.533">
    <property name="start">0</property>
    <property name="mlt_service">brightness</property>
    <property name="kdenlive_id">fade_from_black</property>
    <property name="end">1</property>
    <property name="alpha">-1</property>
    <property name="kdenlive:collapsed">0</property>
   </filter>
  </entry>
 </playlist>
 <playlist id="playlist19"/>
 <tractor id="tractor9" in="00:00:00.000" out="00:04:54.300">
  <property name="kdenlive:trackheight">64</property>
  <property name="kdenlive:timeline_active">0</property>
  <property name="kdenlive:collapsed">0</property>
  <property name="kdenlive:track_name">Tree mask</property>
  <property name="kdenlive:thumbs_format"/>
  <property name="kdenlive:audio_rec"/>
  <track hide="audio" producer="playlist18"/>
  <track producer="playlist19"/>
 </tractor>
 <producer id="producer41" in="00:00:00.000" out="00:03:36.733">
  <property name="length">6503</property>
  <property name="eof">pause</property>
  <property name="resource">content/tree_with_leaves_mask_2.mp4</property>
  <property name="audio_index">-1</property>
  <property name="video_index">0</property>
  <property name="mute_on_pause">0</property>
  <property name="mlt_service">avformat-novalidate</property>
  <property name="seekable">1</property>
  <property name="aspect_ratio">1</property>
  <property name="kdenlive:clipname">tree_with_leaves_mask_2.mp4</property>
  <property name="kdenlive:folderid">144</property>
  <property name="kdenlive:id">38</property>
  <property name="kdenlive:file_size">622274263</property>
  <property name="kdenlive:file_hash">33758f0fc6f0d709ca4a59d84cc4d860</property>
  <property name="kdenlive:proxy">-</property>
  <property name="kdenlive:originalurl">content/tree_with_leaves_mask_2.mp4</property>
  <property name="global_feed">1</property>
  <property name="kdenlive:zone_in">0</property>
  <property name="kdenlive:zone_out">900</property>
  <property name="kdenlive:clipzones">[
    {
        "in": 0,
        "name": "Zone 1",
        "out": 900
    }
]
</property>
  <property name="xml">was here</property>
  <property name="meta.media.nb_streams">1</property>
  <property name="meta.media.0.stream.type">video</property>
  <property name="meta.media.0.stream.frame_rate">30</property>
  <property name="meta.media.0.stream.sample_aspect_ratio">1</property>
  <property name="meta.media.0.codec.width">1920</property>
  <property name="meta.media.0.codec.height">1080</property>
  <property name="meta.media.0.codec.rotate">0</property>
  <property name="meta.media.0.codec.frame_rate">30</property>
  <property name="meta.media.0.codec.pix_fmt">yuv420p</property>
  <property name="meta.media.0.codec.sample_aspect_ratio">1</property>
  <property name="meta.media.0.codec.colorspace">709</property>
  <property name="meta.media.0.codec.color_trc">1</property>
  <property name="meta.media.0.codec.name">h264</property>
  <property name="meta.media.0.codec.long_name">H.264 / AVC / MPEG-4 AVC / MPEG-4 part 10</property>
  <property name="meta.media.0.codec.bit_rate">22963007</property>
  <property name="meta.attr.0.stream.handler_name.markup">VideoHandler</property>
  <property name="meta.attr.major_brand.markup">isom</property>
  <property name="meta.attr.minor_version.markup">512</property>
  <property name="meta.attr.compatible_brands.markup">isomiso2avc1mp41</property>
  <property name="meta.attr.encoder.markup">Lavf58.76.100</property>
  <property name="meta.media.sample_aspect_num">1</property>
  <property name="meta.media.sample_aspect_den">1</property>
  <property name="meta.media.frame_rate_num">30</property>
  <property name="meta.media.frame_rate_den">1</property>
  <property name="meta.media.colorspace">709</property>
  <property name="meta.media.color_trc">1</property>
  <property name="meta.media.width">1920</property>
  <property name="meta.media.height">1080</property>
  <property name="meta.media.color_range">mpeg</property>
  <property name="set.test_audio">1</property>
  <property name="set.test_image">0</property>
 </producer>
 <playlist id="playlist20">
  <blank length="00:00:29.567"/>
  <entry producer="producer41" in="00:00:00.000" out="00:02:12.433">
   <property name="kdenlive:id">38</property>
   <filter id="filter134" out="00:00:00.367">
    <property name="start">0</property>
    <property name="mlt_service">brightness</property>
    <property name="kdenlive_id">fade_from_black</property>
    <property name="end">1</property>
    <property name="alpha">-1</property>
    <property name="kdenlive:collapsed">0</property>
   </filter>
   <filter id="filter135" in="00:02:03.200" out="00:02:12.433">
    <property name="start">1</property>
    <property name="mlt_service">brightness</property>
    <property name="kdenlive_id">fade_to_black</property>
    <property name="end">0</property>
    <property name="alpha">-1</property>
    <property name="kdenlive:collapsed">0</property>
   </filter>
   <filter id="filter136">
    <property name="mlt_service">invert</property>
    <property name="kdenlive_id">invert</property>
    <property name="kdenlive:collapsed">0</property>
   </filter>
   <filter id="filter137">
    <property name="version">0.4</property>
    <property name="mlt_service">frei0r.levels</property>
    <property name="kdenlive_id">frei0r.levels</property>
    <property name="Channel">0.3</property>
    <property name="Input black level">00:00:00.000=0</property>
    <property name="Input white level">00:00:00.000=1</property>
    <property name="Gamma">00:00:00.000=0.5365</property>
    <property name="Black output">00:00:00.000=0</property>
    <property name="White output">00:00:00.000=1</property>
    <property name="Show histogram">0</property>
    <property name="Histogram position">0.3</property>
    <property name="kdenlive:collapsed">0</property>
   </filter>
  </entry>
  <entry producer="producer67" in="00:00:00.000" out="00:00:38.900">
   <property name="kdenlive:id">41</property>
   <property name="kdenlive:activeeffect">1</property>
   <filter id="filter44">
    <property name="version">0.2</property>
    <property name="mlt_service">frei0r.alphagrad</property>
    <property name="kdenlive_id">frei0r.alphagrad</property>
    <property name="Position">00:00:00.000=0.5</property>
    <property name="Transition width">00:00:00.000=0.5</property>
    <property name="Tilt">00:00:00.000=0</property>
    <property name="Min">00:00:00.000=0</property>
    <property name="Max">00:00:00.000=1</property>
    <property name="Operation">0</property>
    <property name="kdenlive:collapsed">0</property>
   </filter>
   <filter id="filter45">
    <property name="smooth">00:00:00.000=6.243</property>
    <property name="radius">00:00:00.000=0.434</property>
    <property name="x">00:00:00.000=0.5</property>
    <property name="y">00:00:00.000=0.966</property>
    <property name="opacity">00:00:00.000=0</property>
    <property name="mode">1</property>
    <property name="mlt_service">vignette</property>
    <property name="kdenlive_id">vignette</property>
    <property name="kdenlive:collapsed">0</property>
   </filter>
   <filter id="filter46" out="00:00:03.067">
    <property name="start">0</property>
    <property name="mlt_service">brightness</property>
    <property name="kdenlive_id">fade_from_black</property>
    <property name="end">1</property>
    <property name="alpha">-1</property>
    <property name="kdenlive:collapsed">0</property>
   </filter>
  </entry>
  <blank length="00:00:30.867"/>
  <entry producer="producer67" in="00:00:00.000" out="00:00:10.667">
   <property name="kdenlive:id">41</property>
   <filter id="filter50">
    <property name="smooth">00:00:00.000=4.171</property>
    <property name="radius">00:00:00.000=0.258</property>
    <property name="x">00:00:00.000=0.393</property>
    <property name="y">00:00:00.000=0.356</property>
    <property name="opacity">00:00:00.000=0</property>
    <property name="mode">1</property>
    <property name="mlt_service">vignette</property>
    <property name="kdenlive_id">vignette</property>
    <property name="kdenlive:collapsed">0</property>
   </filter>
   <filter id="filter51" out="00:00:00.967">
    <property name="start">0</property>
    <property name="mlt_service">brightness</property>
    <property name="kdenlive_id">fade_from_black</property>
    <property name="end">1</property>
    <property name="alpha">-1</property>
    <property name="kdenlive:collapsed">0</property>
   </filter>
   <filter id="filter53" in="00:00:09.033" out="00:00:10.667">
    <property name="start">1</property>
    <property name="mlt_service">brightness</property>
    <property name="kdenlive_id">fade_to_black</property>
    <property name="end">0</property>
    <property name="alpha">-1</property>
    <property name="kdenlive:collapsed">0</property>
   </filter>
  </entry>
  <blank length="00:00:03.667"/>
  <entry producer="producer67" in="00:00:00.000" out="00:00:14.600">
   <property name="kdenlive:id">41</property>
   <filter id="filter117">
    <property name="version">0.2</property>
    <property name="mlt_service">frei0r.alphagrad</property>
    <property name="kdenlive_id">frei0r.alphagrad</property>
    <property name="Position">00:00:00.000=0.5</property>
    <property name="Transition width">00:00:00.000=0.5</property>
    <property name="Tilt">00:00:00.000=0</property>
    <property name="Min">00:00:00.000=0</property>
    <property name="Max">00:00:00.000=1</property>
    <property name="Operation">0</property>
    <property name="kdenlive:collapsed">0</property>
   </filter>
   <filter id="filter119">
    <property name="smooth">00:00:00.000=6.243</property>
    <property name="radius">00:00:00.000=0.434</property>
    <property name="x">00:00:00.000=0.5</property>
    <property name="y">00:00:00.000=0.966</property>
    <property name="opacity">00:00:00.000=0</property>
    <property name="mode">1</property>
    <property name="mlt_service">vignette</property>
    <property name="kdenlive_id">vignette</property>
    <property name="kdenlive:collapsed">0</property>
   </filter>
   <filter id="filter120" out="00:00:00.600">
    <property name="start">0</property>
    <property name="mlt_service">brightness</property>
    <property name="kdenlive_id">fade_from_black</property>
    <property name="end">1</property>
    <property name="alpha">-1</property>
    <property name="kdenlive:collapsed">0</property>
   </filter>
  </entry>
  <entry producer="producer67" in="00:00:00.000" out="00:00:05.967">
   <property name="kdenlive:id">41</property>
   <filter id="filter132">
    <property name="smooth">00:00:00.000=6.243;00:00:00.133=6.243;00:00:05.967|=9.371</property>
    <property name="radius">00:00:00.000=0.34;00:00:00.133=0.71;00:00:05.967|=0.282</property>
    <property name="x">00:00:00.000=0.5;00:00:00.133=0.5;00:00:05.967|=0.5</property>
    <property name="y">00:00:00.000=0.692;00:00:00.133=0.573;00:00:05.967|=0.573</property>
    <property name="opacity">00:00:00.000=0;00:00:00.133=0;00:00:05.967|=0</property>
    <property name="mode">1</property>
    <property name="mlt_service">vignette</property>
    <property name="kdenlive_id">vignette</property>
    <property name="kdenlive:collapsed">0</property>
   </filter>
  </entry>
  <entry producer="producer67" in="00:00:00.000" out="00:00:19.033">
   <property name="kdenlive:id">41</property>
   <filter id="filter133">
    <property name="version">0.2</property>
    <property name="mlt_service">frei0r.alphagrad</property>
    <property name="kdenlive_id">frei0r.alphagrad</property>
    <property name="Position">00:00:00.000=0.5</property>
    <property name="Transition width">00:00:00.000=0.5</property>
    <property name="Tilt">00:00:00.000=0</property>
    <property name="Min">00:00:00.000=0</property>
    <property name="Max">00:00:00.000=1</property>
    <property name="Operation">0</property>
    <property name="kdenlive:collapsed">0</property>
   </filter>
   <filter id="filter138">
    <property name="smooth">00:00:00.000=6.243</property>
    <property name="radius">00:00:00.000=0.434</property>
    <property name="x">00:00:00.000=0.5</property>
    <property name="y">00:00:00.000=0.966</property>
    <property name="opacity">00:00:00.000=0</property>
    <property name="mode">1</property>
    <property name="mlt_service">vignette</property>
    <property name="kdenlive_id">vignette</property>
    <property name="kdenlive:collapsed">0</property>
   </filter>
  </entry>
  <entry producer="producer67" in="00:00:00.000" out="00:00:08.400">
   <property name="kdenlive:id">41</property>
   <filter id="filter139">
    <property name="smooth">00:00:00.000=6.243;00:00:07.267=6.64722;00:00:08.400|=6.64722</property>
    <property name="radius">00:00:00.000=0.205;00:00:07.267=0.543288;00:00:08.400|=0.163</property>
    <property name="x">00:00:00.000=0.5;00:00:07.267=0.5;00:00:08.400|=0.5</property>
    <property name="y">00:00:00.000=0.549;00:00:07.267=0.549;00:00:08.400|=0.549</property>
    <property name="opacity">00:00:00.000=0;00:00:07.267=0;00:00:08.400|=0</property>
    <property name="mode">1</property>
    <property name="mlt_service">vignette</property>
    <property name="kdenlive_id">vignette</property>
    <property name="kdenlive:collapsed">0</property>
   </filter>
  </entry>
 </playlist>
 <playlist id="playlist21"/>
 <tractor id="tractor10" in="00:00:00.000" out="00:04:54.300">
  <property name="kdenlive:trackheight">69</property>
  <property name="kdenlive:timeline_active">1</property>
  <property name="kdenlive:collapsed">0</property>
  <property name="kdenlive:track_name">Tree leaves</property>
  <property name="kdenlive:thumbs_format"/>
  <property name="kdenlive:audio_rec"/>
  <track hide="audio" producer="playlist20"/>
  <track producer="playlist21"/>
 </tractor>
 <producer id="producer158" in="00:00:00.000" out="00:05:07.133">
  <property name="length">9215</property>
  <property name="eof">pause</property>
  <property name="resource">content/musicians_all_v1.mp4</property>
  <property name="audio_index">-1</property>
  <property name="video_index">0</property>
  <property name="mute_on_pause">0</property>
  <property name="mlt_service">avformat-novalidate</property>
  <property name="seekable">1</property>
  <property name="aspect_ratio">1</property>
  <property name="kdenlive:clipname">musicians_all_v1.mp4</property>
  <property name="kdenlive:folderid">144</property>
  <property name="kdenlive:id">32</property>
  <property name="kdenlive:file_size">192792163</property>
  <property name="kdenlive:file_hash">2fd395bd8bbdc1142afac6660fa5df7a</property>
  <property name="kdenlive:proxy">-</property>
  <property name="kdenlive:originalurl">content/musicians_all_v1.mp4</property>
  <property name="kdenlive:original.mlt_type">producer</property>
  <property name="kdenlive:original.in">0</property>
  <property name="kdenlive:original.out">9214</property>
  <property name="kdenlive:original.length">9215</property>
  <property name="kdenlive:original.eof">pause</property>
  <property name="kdenlive:original.resource">content/musicians_all_v1.mp4</property>
  <property name="kdenlive:original.meta.media.nb_streams">1</property>
  <property name="kdenlive:original.meta.media.0.stream.type">video</property>
  <property name="kdenlive:original.meta.media.0.stream.frame_rate">30</property>
  <property name="kdenlive:original.meta.media.0.stream.sample_aspect_ratio">1</property>
  <property name="kdenlive:original.meta.media.0.codec.width">1920</property>
  <property name="kdenlive:original.meta.media.0.codec.height">1080</property>
  <property name="kdenlive:original.meta.media.0.codec.rotate">0</property>
  <property name="kdenlive:original.meta.media.0.codec.frame_rate">30</property>
  <property name="kdenlive:original.meta.media.0.codec.pix_fmt">yuv420p</property>
  <property name="kdenlive:original.meta.media.0.codec.sample_aspect_ratio">1</property>
  <property name="kdenlive:original.meta.media.0.codec.colorspace">709</property>
  <property name="kdenlive:original.meta.media.0.codec.color_trc">1</property>
  <property name="kdenlive:original.meta.media.0.codec.name">h264</property>
  <property name="kdenlive:original.meta.media.0.codec.long_name">H.264 / AVC / MPEG-4 AVC / MPEG-4 part 10</property>
  <property name="kdenlive:original.meta.media.0.codec.bit_rate">5018663</property>
  <property name="kdenlive:original.meta.attr.0.stream.handler_name.markup">VideoHandler</property>
  <property name="kdenlive:original.meta.attr.0.stream.vendor_id.markup">[0][0][0][0]</property>
  <property name="kdenlive:original.meta.attr.major_brand.markup">isom</property>
  <property name="kdenlive:original.meta.attr.minor_version.markup">512</property>
  <property name="kdenlive:original.meta.attr.compatible_brands.markup">isomiso2avc1mp41</property>
  <property name="kdenlive:original.meta.attr.encoder.markup">Lavf58.76.100</property>
  <property name="kdenlive:original.seekable">1</property>
  <property name="kdenlive:original.width">1920</property>
  <property name="kdenlive:original.height">1080</property>
  <property name="kdenlive:original.meta.media.sample_aspect_num">1</property>
  <property name="kdenlive:original.meta.media.sample_aspect_den">1</property>
  <property name="kdenlive:original.aspect_ratio">1</property>
  <property name="kdenlive:original.audio_index">-1</property>
  <property name="kdenlive:original.video_index">0</property>
  <property name="kdenlive:original.mute_on_pause">0</property>
  <property name="kdenlive:original.mlt_service">avformat-novalidate</property>
  <property name="kdenlive:original.kdenlive:folderid">144</property>
  <property name="kdenlive:original.meta.media.frame_rate_num">30</property>
  <property name="kdenlive:original.meta.media.frame_rate_den">1</property>
  <property name="kdenlive:original.meta.media.colorspace">709</property>
  <property name="kdenlive:original.meta.media.color_trc">1</property>
  <property name="kdenlive:original.meta.media.width">1920</property>
  <property name="kdenlive:original.meta.media.height">1080</property>
  <property name="kdenlive:original.meta.media.color_range">mpeg</property>
  <property name="kdenlive:original.kdenlive:id">137</property>
  <property name="kdenlive:original.kdenlive:file_size">192792163</property>
  <property name="kdenlive:original.kdenlive:file_hash">2fd395bd8bbdc1142afac6660fa5df7a</property>
  <property name="kdenlive:original.backup">1</property>
  <property name="global_feed">1</property>
  <property name="xml">was here</property>
  <property name="meta.media.nb_streams">1</property>
  <property name="meta.media.0.stream.type">video</property>
  <property name="meta.media.0.stream.frame_rate">30</property>
  <property name="meta.media.0.stream.sample_aspect_ratio">1</property>
  <property name="meta.media.0.codec.width">640</property>
  <property name="meta.media.0.codec.height">360</property>
  <property name="meta.media.0.codec.rotate">0</property>
  <property name="meta.media.0.codec.frame_rate">1000</property>
  <property name="meta.media.0.codec.pix_fmt">yuvj420p</property>
  <property name="meta.media.0.codec.sample_aspect_ratio">1</property>
  <property name="meta.media.0.codec.colorspace">601</property>
  <property name="meta.media.0.codec.color_trc">1</property>
  <property name="meta.media.0.codec.name">mjpeg</property>
  <property name="meta.media.0.codec.long_name">MJPEG (Motion JPEG)</property>
  <property name="meta.media.0.codec.bit_rate">0</property>
  <property name="meta.attr.0.stream.HANDLER_NAME.markup">VideoHandler</property>
  <property name="meta.attr.0.stream.VENDOR_ID.markup">[0][0][0][0]</property>
  <property name="meta.attr.0.stream.ENCODER.markup">Lavc58.134.100 mjpeg</property>
  <property name="meta.attr.0.stream.DURATION.markup">00:05:07.166000000</property>
  <property name="meta.attr.COMPATIBLE_BRANDS.markup">isomiso2avc1mp41</property>
  <property name="meta.attr.MAJOR_BRAND.markup">isom</property>
  <property name="meta.attr.MINOR_VERSION.markup">512</property>
  <property name="meta.attr.ENCODER.markup">Lavf58.76.100</property>
  <property name="meta.media.sample_aspect_num">1</property>
  <property name="meta.media.sample_aspect_den">1</property>
  <property name="meta.media.frame_rate_num">30</property>
  <property name="meta.media.frame_rate_den">1</property>
  <property name="meta.media.colorspace">601</property>
  <property name="meta.media.color_trc">1</property>
  <property name="meta.media.width">640</property>
  <property name="meta.media.height">360</property>
  <property name="meta.media.color_range">full</property>
  <property name="meta.media.top_field_first">0</property>
  <property name="meta.media.progressive">1</property>
  <property name="set.test_audio">1</property>
  <property name="set.test_image">0</property>
 </producer>
 <playlist id="playlist22">
  <entry producer="producer158" in="00:00:00.000" out="00:03:31.033">
   <property name="kdenlive:id">32</property>
   <property name="kdenlive:activeeffect">2</property>
   <filter id="filter140">
    <property name="mlt_service">greyscale</property>
    <property name="kdenlive_id">greyscale</property>
    <property name="kdenlive:collapsed">0</property>
   </filter>
   <filter id="filter141" in="00:03:30.800" out="00:03:31.033">
    <property name="start">1</property>
    <property name="mlt_service">brightness</property>
    <property name="kdenlive_id">fade_to_black</property>
    <property name="end">0</property>
    <property name="alpha">-1</property>
    <property name="kdenlive:collapsed">0</property>
   </filter>
   <filter id="filter142">
    <property name="version">0.2</property>
    <property name="mlt_service">frei0r.brightness</property>
    <property name="kdenlive_id">frei0r.brightness</property>
    <property name="Brightness">00:00:00.000=0.55</property>
    <property name="kdenlive:collapsed">0</property>
   </filter>
   <filter id="filter143">
    <property name="version">0.2</property>
    <property name="mlt_service">frei0r.contrast0r</property>
    <property name="kdenlive_id">frei0r.contrast0r</property>
    <property name="Contrast">00:00:00.000=0.8</property>
    <property name="kdenlive:collapsed">0</property>
    <property name="disable">0</property>
   </filter>
  </entry>
  <entry producer="producer158" in="00:03:31.067" out="00:03:43.200">
   <property name="kdenlive:id">32</property>
   <filter id="filter144">
    <property name="mlt_service">greyscale</property>
    <property name="kdenlive_id">greyscale</property>
    <property name="kdenlive:collapsed">0</property>
   </filter>
   <filter id="filter145">
    <property name="background">colour:0</property>
    <property name="mlt_service">affine</property>
    <property name="kdenlive_id">pan_zoom</property>
    <property name="transition.geometry">6332=455 0 1920 1080;6696=643 0 1920 1080</property>
    <property name="transition.distort">0</property>
    <property name="use_normalised">0</property>
    <property name="producer.resource">0x000000ff</property>
    <property name="kdenlive:collapsed">0</property>
   </filter>
   <filter id="filter146" in="00:03:31.067" out="00:03:31.233">
    <property name="start">0</property>
    <property name="mlt_service">brightness</property>
    <property name="kdenlive_id">fade_from_black</property>
    <property name="end">1</property>
    <property name="alpha">-1</property>
    <property name="kdenlive:collapsed">0</property>
   </filter>
   <filter id="filter147">
    <property name="version">0.2</property>
    <property name="mlt_service">frei0r.brightness</property>
    <property name="kdenlive_id">frei0r.brightness</property>
    <property name="Brightness">00:03:31.067=0.52</property>
    <property name="kdenlive:collapsed">0</property>
   </filter>
   <filter id="filter148">
    <property name="version">0.2</property>
    <property name="mlt_service">frei0r.contrast0r</property>
    <property name="kdenlive_id">frei0r.contrast0r</property>
    <property name="Contrast">00:03:31.067=0.6</property>
    <property name="kdenlive:collapsed">0</property>
    <property name="disable">0</property>
   </filter>
  </entry>
  <entry producer="producer158" in="00:03:43.233" out="00:04:40.900">
   <property name="kdenlive:id">32</property>
   <filter id="filter149">
    <property name="mlt_service">greyscale</property>
    <property name="kdenlive_id">greyscale</property>
    <property name="kdenlive:collapsed">0</property>
   </filter>
   <filter id="filter150">
    <property name="version">0.2</property>
    <property name="mlt_service">frei0r.brightness</property>
    <property name="kdenlive_id">frei0r.brightness</property>
    <property name="Brightness">00:03:43.233=0.53</property>
    <property name="kdenlive:collapsed">0</property>
   </filter>
   <filter id="filter151">
    <property name="version">0.2</property>
    <property name="mlt_service">frei0r.contrast0r</property>
    <property name="kdenlive_id">frei0r.contrast0r</property>
    <property name="Contrast">00:03:43.233=0.8</property>
    <property name="kdenlive:collapsed">0</property>
   </filter>
  </entry>
  <entry producer="producer158" in="00:04:40.933" out="00:04:54.300">
   <property name="kdenlive:id">32</property>
   <filter id="filter152">
    <property name="mlt_service">greyscale</property>
    <property name="kdenlive_id">greyscale</property>
    <property name="kdenlive:collapsed">0</property>
   </filter>
   <filter id="filter153">
    <property name="version">0.2</property>
    <property name="mlt_service">frei0r.brightness</property>
    <property name="kdenlive_id">frei0r.brightness</property>
    <property name="Brightness">00:04:40.933=0.53</property>
    <property name="kdenlive:collapsed">0</property>
   </filter>
   <filter id="filter154">
    <property name="version">0.2</property>
    <property name="mlt_service">frei0r.contrast0r</property>
    <property name="kdenlive_id">frei0r.contrast0r</property>
    <property name="Contrast">00:04:40.933=0.8</property>
    <property name="kdenlive:collapsed">0</property>
   </filter>
   <filter id="filter155">
    <property name="mode">rgb</property>
    <property name="alpha_operation">sub</property>
    <property name="invert">1</property>
    <property name="feather">12</property>
    <property name="feather_passes">1</property>
    <property name="mlt_service">rotoscoping</property>
    <property name="kdenlive_id">rotoscoping</property>
    <property name="spline">{
    "8428": [
        [
            [
                1.0667244367417679,
                0.1517719568567026
            ],
            [
                1.0788561525129983,
                0.3181818181818182
            ],
            [
                0.9904679376083189,
                0.4075500770416024
            ]
        ],
        [
            [
                0.40814558058925476,
                0.06733436055469953
            ],
            [
                0.3977469670710572,
                0.11171032357473035
            ],
            [
                0.3651646447140381,
                0.12773497688751925
            ]
        ],
        [
            [
                0.2674176776429809,
                0.17580893682588597
            ],
            [
                0.23483535528596186,
                0.19183359013867488
            ],
            [
                0.22027729636048526,
                0.21833590138674883
            ]
        ],
        [
            [
                0.17660311958405545,
                0.2978428351309707
            ],
            [
                0.16204506065857885,
                0.32434514637904466
            ],
            [
                0.15684575389948005,
                0.3668721109399075
            ]
        ],
        [
            [
                0.14124783362218368,
                0.4944530046224962
            ],
            [
                0.1360485268630849,
                0.536979969183359
            ],
            [
                0.10034662045060658,
                0.5647149460708782
            ]
        ],
        [
            [
                -0.006759098786828417,
                0.647919876733436
            ],
            [
                -0.042461005199306755,
                0.6756548536209552
            ],
            [
                -0.054246100519930666,
                0.5215716486902926
            ]
        ],
        [
            [
                -0.08960138648180241,
                0.05932203389830507
            ],
            [
                -0.10138648180242633,
                -0.09476117103235747
            ],
            [
                0.008838821490467951,
                -0.09784283513097071
            ]
        ],
        [
            [
                0.9419410745233968,
                -0.13913713405238826
            ],
            [
                1.0684575389948006,
                -0.14406779661016947
            ],
            [
                1.0719237435008666,
                0.02850539291217257
            ]
        ]
    ],
    "8537": [
        [
            [
                1.0667244367417679,
                0.1517719568567026
            ],
            [
                1.0788561525129983,
                0.3181818181818182
            ],
            [
                0.9904679376083189,
                0.4075500770416024
            ]
        ],
        [
            [
                0.40814558058925476,
                0.06733436055469953
            ],
            [
                0.3977469670710572,
                0.11171032357473035
            ],
            [
                0.3651646447140381,
                0.12773497688751925
            ]
        ],
        [
            [
                0.2674176776429809,
                0.17580893682588597
            ],
            [
                0.23483535528596186,
                0.19183359013867488
            ],
            [
                0.22027729636048526,
                0.21833590138674883
            ]
        ],
        [
            [
                0.17660311958405545,
                0.2978428351309707
            ],
            [
                0.16204506065857885,
                0.32434514637904466
            ],
            [
                0.15684575389948005,
                0.3668721109399075
            ]
        ],
        [
            [
                0.13604852686308486,
                0.5036979969183359
            ],
            [
                0.1308492201039861,
                0.5462249614791987
            ],
            [
                0.09514731369150782,
                0.5739599383667179
            ]
        ],
        [
            [
                -0.006759098786828417,
                0.647919876733436
            ],
            [
                -0.042461005199306755,
                0.6756548536209552
            ],
            [
                -0.054246100519930666,
                0.5215716486902926
            ]
        ],
        [
            [
                -0.08960138648180241,
                0.05932203389830507
            ],
            [
                -0.10138648180242633,
                -0.09476117103235747
            ],
            [
                0.008838821490467951,
                -0.09784283513097071
            ]
        ],
        [
            [
                0.9419410745233968,
                -0.13913713405238826
            ],
            [
                1.0684575389948006,
                -0.14406779661016947
            ],
            [
                1.0719237435008666,
                0.02850539291217257
            ]
        ]
    ]
}
</property>
    <property name="kdenlive:collapsed">0</property>
   </filter>
  </entry>
 </playlist>
 <playlist id="playlist23"/>
 <tractor id="tractor11" in="00:00:00.000" out="00:04:54.300">
  <property name="kdenlive:trackheight">69</property>
  <property name="kdenlive:timeline_active">1</property>
  <property name="kdenlive:collapsed">0</property>
  <property name="kdenlive:track_name">Musicianmask</property>
  <property name="kdenlive:thumbs_format"/>
  <property name="kdenlive:audio_rec"/>
  <property name="kdenlive:locked_track">1</property>
  <track hide="both" producer="playlist22"/>
  <track producer="playlist23"/>
 </tractor>
 <producer id="producer42" in="00:00:00.000" out="00:04:50.600">
  <property name="length">8719</property>
  <property name="eof">pause</property>
  <property name="resource">content/2021-06-02_153524_Sarah_kit+handheld_dhaivat-take3.mp4</property>
  <property name="audio_index">1</property>
  <property name="video_index">0</property>
  <property name="mute_on_pause">0</property>
  <property name="mlt_service">avformat-novalidate</property>
  <property name="seekable">1</property>
  <property name="aspect_ratio">1</property>
  <property name="kdenlive:clipname">2021-06-02_153524_Sarah_kit+handheld_dhaivat-take3.mp4</property>
  <property name="kdenlive:folderid">65</property>
  <property name="kdenlive:id">27</property>
  <property name="kdenlive:file_size">920565421</property>
  <property name="kdenlive:file_hash">22894985720761a019cfbc8ecf6432e1</property>
  <property name="kdenlive:proxy">-</property>
  <property name="kdenlive:originalurl">content/2021-06-02_153524_Sarah_kit+handheld_dhaivat-take3.mp4</property>
  <property name="kdenlive:audio_max">4</property>
  <property name="global_feed">1</property>
  <property name="kdenlive:activeeffect">0</property>
  <property name="xml">was here</property>
  <property name="meta.media.nb_streams">2</property>
  <property name="meta.media.0.stream.type">video</property>
  <property name="meta.media.0.stream.frame_rate">59.9401</property>
  <property name="meta.media.0.stream.sample_aspect_ratio">1</property>
  <property name="meta.media.0.codec.width">1920</property>
  <property name="meta.media.0.codec.height">1080</property>
  <property name="meta.media.0.codec.rotate">0</property>
  <property name="meta.media.0.codec.frame_rate">59.9401</property>
  <property name="meta.media.0.codec.pix_fmt">yuv420p</property>
  <property name="meta.media.0.codec.sample_aspect_ratio">1</property>
  <property name="meta.media.0.codec.colorspace">709</property>
  <property name="meta.media.0.codec.name">h264</property>
  <property name="meta.media.0.codec.long_name">H.264 / AVC / MPEG-4 AVC / MPEG-4 part 10</property>
  <property name="meta.media.0.codec.bit_rate">24980173</property>
  <property name="meta.attr.0.stream.handler_name.markup">VideoHandler</property>
  <property name="meta.media.1.stream.type">audio</property>
  <property name="meta.media.1.codec.sample_fmt">fltp</property>
  <property name="meta.media.1.codec.sample_rate">48000</property>
  <property name="meta.media.1.codec.channels">6</property>
  <property name="meta.media.1.codec.name">ac3</property>
  <property name="meta.media.1.codec.long_name">ATSC A/52A (AC-3)</property>
  <property name="meta.media.1.codec.bit_rate">448000</property>
  <property name="meta.attr.1.stream.handler_name.markup">SoundHandler</property>
  <property name="meta.attr.major_brand.markup">isom</property>
  <property name="meta.attr.minor_version.markup">512</property>
  <property name="meta.attr.compatible_brands.markup">isomiso2avc1mp41</property>
  <property name="meta.attr.encoder.markup">Lavf58.45.100</property>
  <property name="meta.media.sample_aspect_num">1</property>
  <property name="meta.media.sample_aspect_den">1</property>
  <property name="meta.media.frame_rate_num">1561770000</property>
  <property name="meta.media.frame_rate_den">26055529</property>
  <property name="meta.media.colorspace">709</property>
  <property name="meta.media.color_trc">2</property>
  <property name="meta.media.width">1920</property>
  <property name="meta.media.height">1080</property>
  <property name="meta.media.color_range">mpeg</property>
  <property name="set.test_audio">1</property>
  <property name="set.test_image">1</property>
 </producer>
 <producer id="producer161" in="00:00:00.000" out="00:04:50.600">
  <property name="length">8719</property>
  <property name="eof">pause</property>
  <property name="resource">content/2021-06-02_153524_Sarah_kit+handheld_dhaivat-take3.mp4</property>
  <property name="audio_index">1</property>
  <property name="video_index">0</property>
  <property name="mute_on_pause">0</property>
  <property name="mlt_service">avformat-novalidate</property>
  <property name="seekable">1</property>
  <property name="aspect_ratio">1</property>
  <property name="kdenlive:clipname">2021-06-02_153524_Sarah_kit+handheld_dhaivat-take3.mp4</property>
  <property name="kdenlive:folderid">65</property>
  <property name="kdenlive:id">27</property>
  <property name="kdenlive:file_size">920565421</property>
  <property name="kdenlive:file_hash">22894985720761a019cfbc8ecf6432e1</property>
  <property name="kdenlive:proxy">-</property>
  <property name="kdenlive:originalurl">content/2021-06-02_153524_Sarah_kit+handheld_dhaivat-take3.mp4</property>
  <property name="kdenlive:original.mlt_type">producer</property>
  <property name="kdenlive:original.in">0</property>
  <property name="kdenlive:original.out">8718</property>
  <property name="kdenlive:original.length">8719</property>
  <property name="kdenlive:original.eof">pause</property>
  <property name="kdenlive:original.resource">content/2021-06-02_153524_Sarah_kit+handheld_dhaivat-take3.mp4</property>
  <property name="kdenlive:original.meta.media.nb_streams">2</property>
  <property name="kdenlive:original.meta.media.0.stream.type">video</property>
  <property name="kdenlive:original.meta.media.0.stream.frame_rate">59.9401</property>
  <property name="kdenlive:original.meta.media.0.stream.sample_aspect_ratio">1</property>
  <property name="kdenlive:original.meta.media.0.codec.width">1920</property>
  <property name="kdenlive:original.meta.media.0.codec.height">1080</property>
  <property name="kdenlive:original.meta.media.0.codec.rotate">0</property>
  <property name="kdenlive:original.meta.media.0.codec.frame_rate">59.9401</property>
  <property name="kdenlive:original.meta.media.0.codec.pix_fmt">yuv420p</property>
  <property name="kdenlive:original.meta.media.0.codec.sample_aspect_ratio">1</property>
  <property name="kdenlive:original.meta.media.0.codec.colorspace">709</property>
  <property name="kdenlive:original.meta.media.0.codec.name">h264</property>
  <property name="kdenlive:original.meta.media.0.codec.long_name">H.264 / AVC / MPEG-4 AVC / MPEG-4 part 10</property>
  <property name="kdenlive:original.meta.media.0.codec.bit_rate">24980173</property>
  <property name="kdenlive:original.meta.attr.0.stream.handler_name.markup">VideoHandler</property>
  <property name="kdenlive:original.meta.attr.0.stream.vendor_id.markup">[0][0][0][0]</property>
  <property name="kdenlive:original.meta.media.1.stream.type">audio</property>
  <property name="kdenlive:original.meta.media.1.codec.sample_fmt">fltp</property>
  <property name="kdenlive:original.meta.media.1.codec.sample_rate">48000</property>
  <property name="kdenlive:original.meta.media.1.codec.channels">6</property>
  <property name="kdenlive:original.meta.media.1.codec.name">ac3</property>
  <property name="kdenlive:original.meta.media.1.codec.long_name">ATSC A/52A (AC-3)</property>
  <property name="kdenlive:original.meta.media.1.codec.bit_rate">448000</property>
  <property name="kdenlive:original.meta.attr.1.stream.handler_name.markup">SoundHandler</property>
  <property name="kdenlive:original.meta.attr.1.stream.vendor_id.markup">[0][0][0][0]</property>
  <property name="kdenlive:original.meta.attr.major_brand.markup">isom</property>
  <property name="kdenlive:original.meta.attr.minor_version.markup">512</property>
  <property name="kdenlive:original.meta.attr.compatible_brands.markup">isomiso2avc1mp41</property>
  <property name="kdenlive:original.meta.attr.encoder.markup">Lavf58.45.100</property>
  <property name="kdenlive:original.seekable">1</property>
  <property name="kdenlive:original.width">1920</property>
  <property name="kdenlive:original.height">1080</property>
  <property name="kdenlive:original.meta.media.sample_aspect_num">1</property>
  <property name="kdenlive:original.meta.media.sample_aspect_den">1</property>
  <property name="kdenlive:original.aspect_ratio">1</property>
  <property name="kdenlive:original.audio_index">1</property>
  <property name="kdenlive:original.video_index">0</property>
  <property name="kdenlive:original.mute_on_pause">0</property>
  <property name="kdenlive:original.mlt_service">avformat-novalidate</property>
  <property name="kdenlive:original.kdenlive:folderid">65</property>
  <property name="kdenlive:original.meta.media.frame_rate_num">1561770000</property>
  <property name="kdenlive:original.meta.media.frame_rate_den">26055529</property>
  <property name="kdenlive:original.meta.media.colorspace">709</property>
  <property name="kdenlive:original.meta.media.color_trc">2</property>
  <property name="kdenlive:original.meta.media.width">1920</property>
  <property name="kdenlive:original.meta.media.height">1080</property>
  <property name="kdenlive:original.meta.media.color_range">mpeg</property>
  <property name="kdenlive:original.kdenlive:id">129</property>
  <property name="kdenlive:original.kdenlive:file_size">920565421</property>
  <property name="kdenlive:original.kdenlive:file_hash">22894985720761a019cfbc8ecf6432e1</property>
  <property name="kdenlive:original.backup">1</property>
  <property name="kdenlive:audio_max">4</property>
  <property name="global_feed">1</property>
  <property name="kdenlive:activeeffect">0</property>
  <property name="xml">was here</property>
  <property name="meta.media.nb_streams">2</property>
  <property name="meta.media.0.stream.type">video</property>
  <property name="meta.media.0.stream.frame_rate">59.9401</property>
  <property name="meta.media.0.stream.sample_aspect_ratio">1</property>
  <property name="meta.media.0.codec.width">640</property>
  <property name="meta.media.0.codec.height">360</property>
  <property name="meta.media.0.codec.rotate">0</property>
  <property name="meta.media.0.codec.frame_rate">1000</property>
  <property name="meta.media.0.codec.pix_fmt">yuvj420p</property>
  <property name="meta.media.0.codec.sample_aspect_ratio">1</property>
  <property name="meta.media.0.codec.colorspace">601</property>
  <property name="meta.media.0.codec.name">mjpeg</property>
  <property name="meta.media.0.codec.long_name">MJPEG (Motion JPEG)</property>
  <property name="meta.media.0.codec.bit_rate">0</property>
  <property name="meta.attr.0.stream.HANDLER_NAME.markup">VideoHandler</property>
  <property name="meta.attr.0.stream.VENDOR_ID.markup">[0][0][0][0]</property>
  <property name="meta.attr.0.stream.ENCODER.markup">Lavc58.134.100 mjpeg</property>
  <property name="meta.attr.0.stream.DURATION.markup">00:04:50.624000000</property>
  <property name="meta.media.1.stream.type">audio</property>
  <property name="meta.media.1.codec.sample_fmt">s16</property>
  <property name="meta.media.1.codec.sample_rate">48000</property>
  <property name="meta.media.1.codec.channels">6</property>
  <property name="meta.media.1.codec.name">pcm_s16le</property>
  <property name="meta.media.1.codec.long_name">PCM signed 16-bit little-endian</property>
  <property name="meta.media.1.codec.bit_rate">4608000</property>
  <property name="meta.attr.1.stream.HANDLER_NAME.markup">SoundHandler</property>
  <property name="meta.attr.1.stream.VENDOR_ID.markup">[0][0][0][0]</property>
  <property name="meta.attr.1.stream.ENCODER.markup">Lavc58.134.100 pcm_s16le</property>
  <property name="meta.attr.1.stream.DURATION.markup">00:04:50.624000000</property>
  <property name="meta.attr.COMPATIBLE_BRANDS.markup">isomiso2avc1mp41</property>
  <property name="meta.attr.MAJOR_BRAND.markup">isom</property>
  <property name="meta.attr.MINOR_VERSION.markup">512</property>
  <property name="meta.attr.ENCODER.markup">Lavf58.76.100</property>
  <property name="meta.media.sample_aspect_num">1</property>
  <property name="meta.media.sample_aspect_den">1</property>
  <property name="meta.media.frame_rate_num">19001</property>
  <property name="meta.media.frame_rate_den">317</property>
  <property name="meta.media.colorspace">601</property>
  <property name="meta.media.color_trc">2</property>
  <property name="meta.media.width">640</property>
  <property name="meta.media.height">360</property>
  <property name="meta.media.color_range">full</property>
  <property name="meta.media.top_field_first">0</property>
  <property name="meta.media.progressive">1</property>
  <property name="set.test_audio">1</property>
  <property name="set.test_image">0</property>
 </producer>
 <producer id="producer162" in="00:00:00.000" out="00:04:50.600">
  <property name="length">8719</property>
  <property name="eof">pause</property>
  <property name="resource">content/2021-06-02_153524_Sarah_kit+handheld_dhaivat-take3.mp4</property>
  <property name="audio_index">1</property>
  <property name="video_index">0</property>
  <property name="mute_on_pause">0</property>
  <property name="mlt_service">avformat-novalidate</property>
  <property name="seekable">1</property>
  <property name="aspect_ratio">1</property>
  <property name="kdenlive:clipname">2021-06-02_153524_Sarah_kit+handheld_dhaivat-take3.mp4</property>
  <property name="kdenlive:folderid">65</property>
  <property name="kdenlive:id">27</property>
  <property name="kdenlive:file_size">920565421</property>
  <property name="kdenlive:file_hash">22894985720761a019cfbc8ecf6432e1</property>
  <property name="kdenlive:proxy">-</property>
  <property name="kdenlive:originalurl">content/2021-06-02_153524_Sarah_kit+handheld_dhaivat-take3.mp4</property>
  <property name="kdenlive:original.mlt_type">producer</property>
  <property name="kdenlive:original.in">0</property>
  <property name="kdenlive:original.out">8718</property>
  <property name="kdenlive:original.length">8719</property>
  <property name="kdenlive:original.eof">pause</property>
  <property name="kdenlive:original.resource">content/2021-06-02_153524_Sarah_kit+handheld_dhaivat-take3.mp4</property>
  <property name="kdenlive:original.meta.media.nb_streams">2</property>
  <property name="kdenlive:original.meta.media.0.stream.type">video</property>
  <property name="kdenlive:original.meta.media.0.stream.frame_rate">59.9401</property>
  <property name="kdenlive:original.meta.media.0.stream.sample_aspect_ratio">1</property>
  <property name="kdenlive:original.meta.media.0.codec.width">1920</property>
  <property name="kdenlive:original.meta.media.0.codec.height">1080</property>
  <property name="kdenlive:original.meta.media.0.codec.rotate">0</property>
  <property name="kdenlive:original.meta.media.0.codec.frame_rate">59.9401</property>
  <property name="kdenlive:original.meta.media.0.codec.pix_fmt">yuv420p</property>
  <property name="kdenlive:original.meta.media.0.codec.sample_aspect_ratio">1</property>
  <property name="kdenlive:original.meta.media.0.codec.colorspace">709</property>
  <property name="kdenlive:original.meta.media.0.codec.name">h264</property>
  <property name="kdenlive:original.meta.media.0.codec.long_name">H.264 / AVC / MPEG-4 AVC / MPEG-4 part 10</property>
  <property name="kdenlive:original.meta.media.0.codec.bit_rate">24980173</property>
  <property name="kdenlive:original.meta.attr.0.stream.handler_name.markup">VideoHandler</property>
  <property name="kdenlive:original.meta.attr.0.stream.vendor_id.markup">[0][0][0][0]</property>
  <property name="kdenlive:original.meta.media.1.stream.type">audio</property>
  <property name="kdenlive:original.meta.media.1.codec.sample_fmt">fltp</property>
  <property name="kdenlive:original.meta.media.1.codec.sample_rate">48000</property>
  <property name="kdenlive:original.meta.media.1.codec.channels">6</property>
  <property name="kdenlive:original.meta.media.1.codec.name">ac3</property>
  <property name="kdenlive:original.meta.media.1.codec.long_name">ATSC A/52A (AC-3)</property>
  <property name="kdenlive:original.meta.media.1.codec.bit_rate">448000</property>
  <property name="kdenlive:original.meta.attr.1.stream.handler_name.markup">SoundHandler</property>
  <property name="kdenlive:original.meta.attr.1.stream.vendor_id.markup">[0][0][0][0]</property>
  <property name="kdenlive:original.meta.attr.major_brand.markup">isom</property>
  <property name="kdenlive:original.meta.attr.minor_version.markup">512</property>
  <property name="kdenlive:original.meta.attr.compatible_brands.markup">isomiso2avc1mp41</property>
  <property name="kdenlive:original.meta.attr.encoder.markup">Lavf58.45.100</property>
  <property name="kdenlive:original.seekable">1</property>
  <property name="kdenlive:original.width">1920</property>
  <property name="kdenlive:original.height">1080</property>
  <property name="kdenlive:original.meta.media.sample_aspect_num">1</property>
  <property name="kdenlive:original.meta.media.sample_aspect_den">1</property>
  <property name="kdenlive:original.aspect_ratio">1</property>
  <property name="kdenlive:original.audio_index">1</property>
  <property name="kdenlive:original.video_index">0</property>
  <property name="kdenlive:original.mute_on_pause">0</property>
  <property name="kdenlive:original.mlt_service">avformat-novalidate</property>
  <property name="kdenlive:original.kdenlive:folderid">65</property>
  <property name="kdenlive:original.meta.media.frame_rate_num">1561770000</property>
  <property name="kdenlive:original.meta.media.frame_rate_den">26055529</property>
  <property name="kdenlive:original.meta.media.colorspace">709</property>
  <property name="kdenlive:original.meta.media.color_trc">2</property>
  <property name="kdenlive:original.meta.media.width">1920</property>
  <property name="kdenlive:original.meta.media.height">1080</property>
  <property name="kdenlive:original.meta.media.color_range">mpeg</property>
  <property name="kdenlive:original.kdenlive:id">129</property>
  <property name="kdenlive:original.kdenlive:file_size">920565421</property>
  <property name="kdenlive:original.kdenlive:file_hash">22894985720761a019cfbc8ecf6432e1</property>
  <property name="kdenlive:original.backup">1</property>
  <property name="kdenlive:audio_max">4</property>
  <property name="global_feed">1</property>
  <property name="kdenlive:activeeffect">0</property>
  <property name="xml">was here</property>
  <property name="meta.media.nb_streams">2</property>
  <property name="meta.media.0.stream.type">video</property>
  <property name="meta.media.0.stream.frame_rate">59.9401</property>
  <property name="meta.media.0.stream.sample_aspect_ratio">1</property>
  <property name="meta.media.0.codec.width">640</property>
  <property name="meta.media.0.codec.height">360</property>
  <property name="meta.media.0.codec.rotate">0</property>
  <property name="meta.media.0.codec.frame_rate">1000</property>
  <property name="meta.media.0.codec.pix_fmt">yuvj420p</property>
  <property name="meta.media.0.codec.sample_aspect_ratio">1</property>
  <property name="meta.media.0.codec.colorspace">601</property>
  <property name="meta.media.0.codec.name">mjpeg</property>
  <property name="meta.media.0.codec.long_name">MJPEG (Motion JPEG)</property>
  <property name="meta.media.0.codec.bit_rate">0</property>
  <property name="meta.attr.0.stream.HANDLER_NAME.markup">VideoHandler</property>
  <property name="meta.attr.0.stream.VENDOR_ID.markup">[0][0][0][0]</property>
  <property name="meta.attr.0.stream.ENCODER.markup">Lavc58.134.100 mjpeg</property>
  <property name="meta.attr.0.stream.DURATION.markup">00:04:50.624000000</property>
  <property name="meta.media.1.stream.type">audio</property>
  <property name="meta.media.1.codec.sample_fmt">s16</property>
  <property name="meta.media.1.codec.sample_rate">48000</property>
  <property name="meta.media.1.codec.channels">6</property>
  <property name="meta.media.1.codec.name">pcm_s16le</property>
  <property name="meta.media.1.codec.long_name">PCM signed 16-bit little-endian</property>
  <property name="meta.media.1.codec.bit_rate">4608000</property>
  <property name="meta.attr.1.stream.HANDLER_NAME.markup">SoundHandler</property>
  <property name="meta.attr.1.stream.VENDOR_ID.markup">[0][0][0][0]</property>
  <property name="meta.attr.1.stream.ENCODER.markup">Lavc58.134.100 pcm_s16le</property>
  <property name="meta.attr.1.stream.DURATION.markup">00:04:50.624000000</property>
  <property name="meta.attr.COMPATIBLE_BRANDS.markup">isomiso2avc1mp41</property>
  <property name="meta.attr.MAJOR_BRAND.markup">isom</property>
  <property name="meta.attr.MINOR_VERSION.markup">512</property>
  <property name="meta.attr.ENCODER.markup">Lavf58.76.100</property>
  <property name="meta.media.sample_aspect_num">1</property>
  <property name="meta.media.sample_aspect_den">1</property>
  <property name="meta.media.frame_rate_num">19001</property>
  <property name="meta.media.frame_rate_den">317</property>
  <property name="meta.media.colorspace">601</property>
  <property name="meta.media.color_trc">2</property>
  <property name="meta.media.width">640</property>
  <property name="meta.media.height">360</property>
  <property name="meta.media.color_range">full</property>
  <property name="meta.media.top_field_first">0</property>
  <property name="meta.media.progressive">1</property>
  <property name="set.test_audio">1</property>
  <property name="set.test_image">0</property>
 </producer>
 <playlist id="playlist24">
  <blank length="00:00:10.567"/>
  <entry producer="producer42" in="00:00:00.000" out="00:00:29.967">
   <property name="kdenlive:id">27</property>
  </entry>
  <entry producer="producer161" in="00:00:30.000" out="00:00:41.267">
   <property name="kdenlive:id">27</property>
   <property name="kdenlive:activeeffect">2</property>
   <filter id="filter156">
    <property name="mode">alpha</property>
    <property name="alpha_operation">sub</property>
    <property name="invert">0</property>
    <property name="feather">20</property>
    <property name="feather_passes">1</property>
    <property name="mlt_service">rotoscoping</property>
    <property name="kdenlive_id">rotoscoping</property>
    <property name="spline">{
    "1096": [
        [
            [
                0.6500866551126516,
                -0.0781201848998459
            ],
            [
                0.5363951473136914,
                -0.04545454545454545
            ],
            [
                0.5559792027729635,
                -0.012172573189522345
            ]
        ],
        [
            [
                0.6147313691507799,
                0.08767334360554699
            ],
            [
                0.6343154246100519,
                0.12095531587057008
            ],
            [
                0.6514731369150779,
                0.16009244992295837
            ]
        ],
        [
            [
                0.702946273830156,
                0.27750385208012324
            ],
            [
                0.720103986135182,
                0.31664098613251157
            ],
            [
                0.75736568457539,
                0.3175654853620955
            ]
        ],
        [
            [
                0.8691507798960137,
                0.32033898305084746
            ],
            [
                0.9064124783362217,
                0.32126348228043144
            ],
            [
                0.9384748700173309,
                0.3181818181818182
            ]
        ],
        [
            [
                1.0346620450606587,
                0.3089368258859784
            ],
            [
                1.0667244367417679,
                0.30585516178736516
            ],
            [
                1.0743500866551126,
                0.2029275808936826
            ]
        ],
        [
            [
                1.0972270363951473,
                -0.10585516178736518
            ],
            [
                1.1048526863084922,
                -0.20878274268104774
            ],
            [
                0.991161178509532,
                -0.17611710323574728
            ]
        ]
    ],
    "900": [
        [
            [
                0.6500866551126516,
                -0.0781201848998459
            ],
            [
                0.5363951473136914,
                -0.04545454545454545
            ],
            [
                0.5559792027729635,
                -0.012172573189522345
            ]
        ],
        [
            [
                0.6147313691507799,
                0.08767334360554699
            ],
            [
                0.6343154246100519,
                0.12095531587057008
            ],
            [
                0.6514731369150779,
                0.16009244992295837
            ]
        ],
        [
            [
                0.702946273830156,
                0.27750385208012324
            ],
            [
                0.720103986135182,
                0.31664098613251157
            ],
            [
                0.75736568457539,
                0.3175654853620955
            ]
        ],
        [
            [
                0.8691507798960137,
                0.32033898305084746
            ],
            [
                0.9064124783362217,
                0.32126348228043144
            ],
            [
                0.9384748700173309,
                0.3181818181818182
            ]
        ],
        [
            [
                1.0346620450606587,
                0.3089368258859784
            ],
            [
                1.0667244367417679,
                0.30585516178736516
            ],
            [
                1.0743500866551126,
                0.2029275808936826
            ]
        ],
        [
            [
                1.0972270363951473,
                -0.10585516178736518
            ],
            [
                1.1048526863084922,
                -0.20878274268104774
            ],
            [
                0.991161178509532,
                -0.17611710323574728
            ]
        ]
    ]
}
</property>
    <property name="kdenlive:collapsed">0</property>
   </filter>
   <filter id="filter157" in="00:00:30.000" out="00:00:31.033">
    <property name="start">0</property>
    <property name="mlt_service">brightness</property>
    <property name="kdenlive_id">fade_from_black</property>
    <property name="end">1</property>
    <property name="alpha">-1</property>
    <property name="kdenlive:collapsed">0</property>
   </filter>
   <filter id="filter158">
    <property name="version">0.6</property>
    <property name="mlt_service">frei0r.select0r</property>
    <property name="kdenlive_id">frei0r.select0r</property>
    <property name="Color to select">0x268b4dff</property>
    <property name="Invert selection">1</property>
    <property name="Selection subspace">1</property>
    <property name="Subspace shape">0.5</property>
    <property name="Edge mode">0.9</property>
    <property name="Delta R / A / Hue">00:00:30.000=0.045</property>
    <property name="Delta G / B / Chroma">00:00:30.000=0.189</property>
    <property name="Delta B / I / I">00:00:30.000=0.192</property>
    <property name="Slope">00:00:30.000=0.246</property>
    <property name="Operation">0.5</property>
    <property name="kdenlive:collapsed">0</property>
   </filter>
   <filter id="filter159">
    <property name="mode">alpha</property>
    <property name="alpha_operation">clear</property>
    <property name="invert">0</property>
    <property name="feather">0</property>
    <property name="feather_passes">1</property>
    <property name="mlt_service">rotoscoping</property>
    <property name="kdenlive_id">rotoscoping</property>
    <property name="spline"/>
    <property name="kdenlive:collapsed">0</property>
   </filter>
  </entry>
  <entry producer="producer42" in="00:00:41.300" out="00:02:39.000">
   <property name="kdenlive:id">27</property>
  </entry>
  <entry producer="producer162" in="00:02:39.033" out="00:02:53.433">
   <property name="kdenlive:id">27</property>
   <property name="kdenlive:activeeffect">3</property>
   <filter id="filter160" in="00:02:39.033" out="00:02:39.800">
    <property name="start">0</property>
    <property name="mlt_service">brightness</property>
    <property name="kdenlive_id">fade_from_black</property>
    <property name="end">1</property>
    <property name="alpha">-1</property>
    <property name="kdenlive:collapsed">0</property>
   </filter>
   <filter id="filter161" in="00:02:52.733" out="00:02:53.433">
    <property name="start">1</property>
    <property name="mlt_service">brightness</property>
    <property name="kdenlive_id">fade_to_black</property>
    <property name="end">0</property>
    <property name="alpha">-1</property>
    <property name="kdenlive:collapsed">0</property>
   </filter>
   <filter id="filter162">
    <property name="mode">alpha</property>
    <property name="alpha_operation">sub</property>
    <property name="invert">0</property>
    <property name="feather">37</property>
    <property name="feather_passes">1</property>
    <property name="mlt_service">rotoscoping</property>
    <property name="kdenlive_id">rotoscoping</property>
    <property name="spline">{
    "4771": [
        [
            [
                0.6410745233968804,
                -0.0386748844375963
            ],
            [
                0.7079722703639515,
                -0.03929121725731895
            ],
            [
                0.6871750433275563,
                -0.018335901386748843
            ]
        ],
        [
            [
                0.6247833622183709,
                0.04453004622496148
            ],
            [
                0.6039861351819756,
                0.06548536209553157
            ],
            [
                0.5731369150779896,
                0.07349768875192603
            ]
        ],
        [
            [
                0.4805892547660312,
                0.0975346687211094
            ],
            [
                0.44974003466204504,
                0.10554699537750384
            ],
            [
                0.44107452339688036,
                0.09815100154083203
            ]
        ],
        [
            [
                0.4150779896013865,
                0.07596302003081663
            ],
            [
                0.4064124783362218,
                0.06856702619414483
            ],
            [
                0.3998266897746967,
                0.04761171032357473
            ]
        ],
        [
            [
                0.3800693240901213,
                -0.015254237288135592
            ],
            [
                0.37348353552859614,
                -0.0362095531587057
            ],
            [
                0.4403812824956672,
                -0.03682588597842835
            ]
        ]
    ],
    "4841": [
        [
            [
                0.6410745233968804,
                -0.0386748844375963
            ],
            [
                0.7079722703639515,
                -0.03929121725731895
            ],
            [
                0.6871750433275563,
                -0.018335901386748843
            ]
        ],
        [
            [
                0.6247833622183709,
                0.04453004622496148
            ],
            [
                0.6039861351819756,
                0.06548536209553157
            ],
            [
                0.5731369150779896,
                0.07349768875192603
            ]
        ],
        [
            [
                0.49851110760989437,
                0.08037540271746742
            ],
            [
                0.4676618875059083,
                0.08838772937386187
            ],
            [
                0.45899637624074363,
                0.08099173553719007
            ]
        ],
        [
            [
                0.40814558058925476,
                0.0636363636363636
            ],
            [
                0.3994800693240901,
                0.05624036979969183
            ],
            [
                0.392894280762565,
                0.035285053929121735
            ]
        ],
        [
            [
                0.3800693240901213,
                -0.015254237288135592
            ],
            [
                0.37348353552859614,
                -0.0362095531587057
            ],
            [
                0.4403812824956672,
                -0.03682588597842835
            ]
        ]
    ],
    "4857": [
        [
            [
                0.6410745233968804,
                -0.0386748844375963
            ],
            [
                0.7079722703639515,
                -0.03929121725731895
            ],
            [
                0.6871750433275563,
                -0.018335901386748843
            ]
        ],
        [
            [
                0.6247833622183709,
                0.04453004622496148
            ],
            [
                0.6039861351819756,
                0.06548536209553157
            ],
            [
                0.5731369150779896,
                0.07349768875192603
            ]
        ],
        [
            [
                0.5230502599653378,
                0.07442218798151
            ],
            [
                0.49220103986135183,
                0.08243451463790447
            ],
            [
                0.48353552859618715,
                0.07503852080123266
            ]
        ],
        [
            [
                0.451473136915078,
                0.03744221879815098
            ],
            [
                0.44280762564991333,
                0.030046224961479195
            ],
            [
                0.43622183708838824,
                0.009090909090909096
            ]
        ],
        [
            [
                0.3800693240901213,
                -0.015254237288135592
            ],
            [
                0.37348353552859614,
                -0.0362095531587057
            ],
            [
                0.4403812824956672,
                -0.03682588597842835
            ]
        ]
    ],
    "4859": [
        [
            [
                0.6410745233968804,
                -0.0386748844375963
            ],
            [
                0.7079722703639515,
                -0.03929121725731895
            ],
            [
                0.6871750433275563,
                -0.018335901386748843
            ]
        ],
        [
            [
                0.6247833622183709,
                0.04453004622496148
            ],
            [
                0.6039861351819756,
                0.06548536209553157
            ],
            [
                0.5731369150779896,
                0.07349768875192603
            ]
        ],
        [
            [
                0.5031195840554592,
                0.07596302003081662
            ],
            [
                0.47227036395147315,
                0.08397534668721109
            ],
            [
                0.46360485268630847,
                0.07657935285053928
            ]
        ],
        [
            [
                0.44020797227036396,
                0.04052388289676423
            ],
            [
                0.43154246100519933,
                0.033127889060092446
            ],
            [
                0.4249566724436742,
                0.012172573189522357
            ]
        ],
        [
            [
                0.3800693240901213,
                -0.015254237288135592
            ],
            [
                0.37348353552859614,
                -0.0362095531587057
            ],
            [
                0.4403812824956672,
                -0.03682588597842835
            ]
        ]
    ],
    "4880": [
        [
            [
                0.6410745233968804,
                -0.0386748844375963
            ],
            [
                0.7079722703639515,
                -0.03929121725731895
            ],
            [
                0.6871750433275563,
                -0.018335901386748843
            ]
        ],
        [
            [
                0.6247833622183709,
                0.04453004622496148
            ],
            [
                0.6039861351819756,
                0.06548536209553157
            ],
            [
                0.5731369150779896,
                0.07349768875192603
            ]
        ],
        [
            [
                0.4805892547660312,
                0.0975346687211094
            ],
            [
                0.44974003466204504,
                0.10554699537750384
            ],
            [
                0.44107452339688036,
                0.09815100154083203
            ]
        ],
        [
            [
                0.43154246100519933,
                0.03436055469953773
            ],
            [
                0.42287694974003465,
                0.026964560862865947
            ],
            [
                0.41629116117850956,
                0.006009244992295867
            ]
        ],
        [
            [
                0.3800693240901213,
                -0.015254237288135592
            ],
            [
                0.37348353552859614,
                -0.0362095531587057
            ],
            [
                0.4403812824956672,
                -0.03682588597842835
            ]
        ]
    ],
    "4905": [
        [
            [
                0.6410745233968804,
                -0.0386748844375963
            ],
            [
                0.7079722703639515,
                -0.03929121725731895
            ],
            [
                0.6871750433275563,
                -0.018335901386748843
            ]
        ],
        [
            [
                0.6247833622183709,
                0.04453004622496148
            ],
            [
                0.6039861351819756,
                0.06548536209553157
            ],
            [
                0.5731369150779896,
                0.07349768875192603
            ]
        ],
        [
            [
                0.4805892547660312,
                0.0975346687211094
            ],
            [
                0.44974003466204504,
                0.10554699537750384
            ],
            [
                0.44107452339688036,
                0.09815100154083203
            ]
        ],
        [
            [
                0.4254766031195841,
                0.05747303543913713
            ],
            [
                0.4168110918544194,
                0.05007704160246533
            ],
            [
                0.4102253032928943,
                0.029121725731895233
            ]
        ],
        [
            [
                0.3800693240901213,
                -0.015254237288135592
            ],
            [
                0.37348353552859614,
                -0.0362095531587057
            ],
            [
                0.4403812824956672,
                -0.03682588597842835
            ]
        ]
    ],
    "4912": [
        [
            [
                0.6410745233968804,
                -0.0386748844375963
            ],
            [
                0.7079722703639515,
                -0.03929121725731895
            ],
            [
                0.6871750433275563,
                -0.018335901386748843
            ]
        ],
        [
            [
                0.6247833622183709,
                0.04453004622496148
            ],
            [
                0.6039861351819756,
                0.06548536209553157
            ],
            [
                0.5731369150779896,
                0.07349768875192603
            ]
        ],
        [
            [
                0.5031195840554592,
                0.09445300462249615
            ],
            [
                0.47227036395147315,
                0.1024653312788906
            ],
            [
                0.46360485268630847,
                0.0950693374422188
            ]
        ],
        [
            [
                0.4393414211438475,
                0.05130970724191063
            ],
            [
                0.4306759098786828,
                0.04391371340523882
            ],
            [
                0.42409012131715773,
                0.02295839753466874
            ]
        ],
        [
            [
                0.3800693240901213,
                -0.015254237288135592
            ],
            [
                0.37348353552859614,
                -0.0362095531587057
            ],
            [
                0.4403812824956672,
                -0.03682588597842835
            ]
        ]
    ],
    "4917": [
        [
            [
                0.6410745233968804,
                -0.0386748844375963
            ],
            [
                0.7079722703639515,
                -0.03929121725731895
            ],
            [
                0.6871750433275563,
                -0.018335901386748843
            ]
        ],
        [
            [
                0.6247833622183709,
                0.04453004622496148
            ],
            [
                0.6039861351819756,
                0.06548536209553157
            ],
            [
                0.5731369150779896,
                0.07349768875192603
            ]
        ],
        [
            [
                0.4937319468515309,
                0.09573703133025166
            ],
            [
                0.4628827267475447,
                0.10374935798664611
            ],
            [
                0.4542172154823801,
                0.09635336414997431
            ]
        ],
        [
            [
                0.43674176776429807,
                0.046687211093990745
            ],
            [
                0.42807625649913345,
                0.03929121725731895
            ],
            [
                0.4214904679376083,
                0.018335901386748853
            ]
        ],
        [
            [
                0.3800693240901213,
                -0.015254237288135592
            ],
            [
                0.37348353552859614,
                -0.0362095531587057
            ],
            [
                0.4403812824956672,
                -0.03682588597842835
            ]
        ]
    ],
    "4924": [
        [
            [
                0.6410745233968804,
                -0.0386748844375963
            ],
            [
                0.7079722703639515,
                -0.03929121725731895
            ],
            [
                0.6871750433275563,
                -0.018335901386748843
            ]
        ],
        [
            [
                0.6247833622183709,
                0.04453004622496148
            ],
            [
                0.6039861351819756,
                0.06548536209553157
            ],
            [
                0.5731369150779896,
                0.07349768875192603
            ]
        ],
        [
            [
                0.4805892547660312,
                0.0975346687211094
            ],
            [
                0.44974003466204504,
                0.10554699537750384
            ],
            [
                0.44107452339688036,
                0.09815100154083203
            ]
        ],
        [
            [
                0.4150779896013865,
                0.07596302003081663
            ],
            [
                0.4064124783362218,
                0.06856702619414483
            ],
            [
                0.3998266897746967,
                0.04761171032357473
            ]
        ],
        [
            [
                0.3800693240901213,
                -0.015254237288135592
            ],
            [
                0.37348353552859614,
                -0.0362095531587057
            ],
            [
                0.4403812824956672,
                -0.03682588597842835
            ]
        ]
    ],
    "4939": [
        [
            [
                0.6410745233968804,
                -0.0386748844375963
            ],
            [
                0.7079722703639515,
                -0.03929121725731895
            ],
            [
                0.6871750433275563,
                -0.018335901386748843
            ]
        ],
        [
            [
                0.6247833622183709,
                0.04453004622496148
            ],
            [
                0.6039861351819756,
                0.06548536209553157
            ],
            [
                0.5731369150779896,
                0.07349768875192603
            ]
        ],
        [
            [
                0.4970081182158168,
                0.06469061714378394
            ],
            [
                0.46615889811183064,
                0.0727029438001784
            ],
            [
                0.457493386846666,
                0.06530694996350658
            ]
        ],
        [
            [
                0.44194107452339687,
                0.02973805855161785
            ],
            [
                0.4332755632582322,
                0.02234206471494607
            ],
            [
                0.4266897746967071,
                0.0013867488443759595
            ]
        ],
        [
            [
                0.3800693240901213,
                -0.015254237288135592
            ],
            [
                0.37348353552859614,
                -0.0362095531587057
            ],
            [
                0.4403812824956672,
                -0.03682588597842835
            ]
        ]
    ],
    "4943": [
        [
            [
                0.6410745233968804,
                -0.0386748844375963
            ],
            [
                0.7079722703639515,
                -0.03929121725731895
            ],
            [
                0.6871750433275563,
                -0.018335901386748843
            ]
        ],
        [
            [
                0.6247833622183709,
                0.04453004622496148
            ],
            [
                0.6039861351819756,
                0.06548536209553157
            ],
            [
                0.5731369150779896,
                0.07349768875192603
            ]
        ],
        [
            [
                0.5013864818024263,
                0.05593220338983049
            ],
            [
                0.4705372616984402,
                0.06394453004622495
            ],
            [
                0.46187175043327555,
                0.056548536209553135
            ]
        ],
        [
            [
                0.43327556325823224,
                0.025115562403697975
            ],
            [
                0.4246100519930676,
                0.01771956856702619
            ],
            [
                0.4180242634315425,
                -0.00323574730354391
            ]
        ],
        [
            [
                0.3800693240901213,
                -0.015254237288135592
            ],
            [
                0.37348353552859614,
                -0.0362095531587057
            ],
            [
                0.4403812824956672,
                -0.03682588597842835
            ]
        ]
    ],
    "4945": [
        [
            [
                0.6410745233968804,
                -0.0386748844375963
            ],
            [
                0.7079722703639515,
                -0.03929121725731895
            ],
            [
                0.6871750433275563,
                -0.018335901386748843
            ]
        ],
        [
            [
                0.6247833622183709,
                0.04453004622496148
            ],
            [
                0.6039861351819756,
                0.06548536209553157
            ],
            [
                0.5731369150779896,
                0.07349768875192603
            ]
        ],
        [
            [
                0.5395147313691501,
                0.03898305084745761
            ],
            [
                0.5086655112651646,
                0.046995377503852076
            ],
            [
                0.4999999999999995,
                0.039599383667180264
            ]
        ],
        [
            [
                0.46360485268630847,
                0.005084745762711841
            ],
            [
                0.45493934142114384,
                -0.002311248073959938
            ],
            [
                0.4483535528596187,
                -0.023266563944530038
            ]
        ],
        [
            [
                0.3800693240901213,
                -0.015254237288135592
            ],
            [
                0.37348353552859614,
                -0.0362095531587057
            ],
            [
                0.4403812824956672,
                -0.03682588597842835
            ]
        ]
    ],
    "4960": [
        [
            [
                0.6410745233968804,
                -0.0386748844375963
            ],
            [
                0.7079722703639515,
                -0.03929121725731895
            ],
            [
                0.6871750433275563,
                -0.018335901386748843
            ]
        ],
        [
            [
                0.6247833622183709,
                0.04453004622496148
            ],
            [
                0.6039861351819756,
                0.06548536209553157
            ],
            [
                0.5731369150779896,
                0.07349768875192603
            ]
        ],
        [
            [
                0.5100519930675902,
                0.07442218798151001
            ],
            [
                0.47920277296360486,
                0.08243451463790447
            ],
            [
                0.47053726169843973,
                0.07503852080123265
            ]
        ],
        [
            [
                0.44280762564991333,
                0.02665639445300459
            ],
            [
                0.43414211438474865,
                0.01926040061633282
            ],
            [
                0.42755632582322356,
                -0.0016949152542372903
            ]
        ],
        [
            [
                0.3800693240901213,
                -0.015254237288135592
            ],
            [
                0.37348353552859614,
                -0.0362095531587057
            ],
            [
                0.4403812824956672,
                -0.03682588597842835
            ]
        ]
    ],
    "4975": [
        [
            [
                0.6410745233968804,
                -0.0386748844375963
            ],
            [
                0.7079722703639515,
                -0.03929121725731895
            ],
            [
                0.6871750433275563,
                -0.018335901386748843
            ]
        ],
        [
            [
                0.6247833622183709,
                0.04453004622496148
            ],
            [
                0.6039861351819756,
                0.06548536209553157
            ],
            [
                0.5731369150779896,
                0.07349768875192603
            ]
        ],
        [
            [
                0.5100519930675902,
                0.07442218798151001
            ],
            [
                0.47920277296360486,
                0.08243451463790447
            ],
            [
                0.47053726169843973,
                0.07503852080123265
            ]
        ],
        [
            [
                0.44800693240901207,
                0.014329738058551582
            ],
            [
                0.43934142114384744,
                0.006933744221879814
            ],
            [
                0.43275563258232236,
                -0.014021571648690292
            ]
        ],
        [
            [
                0.3800693240901213,
                -0.015254237288135592
            ],
            [
                0.37348353552859614,
                -0.0362095531587057
            ],
            [
                0.4403812824956672,
                -0.03682588597842835
            ]
        ]
    ],
    "4980": [
        [
            [
                0.6410745233968804,
                -0.0386748844375963
            ],
            [
                0.7079722703639515,
                -0.03929121725731895
            ],
            [
                0.6871750433275563,
                -0.018335901386748843
            ]
        ],
        [
            [
                0.6247833622183709,
                0.04453004622496148
            ],
            [
                0.6039861351819756,
                0.06548536209553157
            ],
            [
                0.5731369150779896,
                0.07349768875192603
            ]
        ],
        [
            [
                0.5100519930675902,
                0.07442218798151001
            ],
            [
                0.47920277296360486,
                0.08243451463790447
            ],
            [
                0.47053726169843973,
                0.07503852080123265
            ]
        ],
        [
            [
                0.43760831889081453,
                0.040523882896764216
            ],
            [
                0.4289428076256499,
                0.033127889060092446
            ],
            [
                0.42235701906412476,
                0.012172573189522336
            ]
        ],
        [
            [
                0.3800693240901213,
                -0.015254237288135592
            ],
            [
                0.37348353552859614,
                -0.0362095531587057
            ],
            [
                0.4403812824956672,
                -0.03682588597842835
            ]
        ]
    ],
    "4995": [
        [
            [
                0.6410745233968804,
                -0.0386748844375963
            ],
            [
                0.7079722703639515,
                -0.03929121725731895
            ],
            [
                0.6871750433275563,
                -0.018335901386748843
            ]
        ],
        [
            [
                0.6247833622183709,
                0.04453004622496148
            ],
            [
                0.6039861351819756,
                0.06548536209553157
            ],
            [
                0.5731369150779896,
                0.07349768875192603
            ]
        ],
        [
            [
                0.5100519930675902,
                0.07442218798151001
            ],
            [
                0.47920277296360486,
                0.08243451463790447
            ],
            [
                0.47053726169843973,
                0.07503852080123265
            ]
        ],
        [
            [
                0.44800693240901207,
                0.02511556240369796
            ],
            [
                0.43934142114384744,
                0.01771956856702619
            ],
            [
                0.43275563258232236,
                -0.003235747303543916
            ]
        ],
        [
            [
                0.3800693240901213,
                -0.015254237288135592
            ],
            [
                0.37348353552859614,
                -0.0362095531587057
            ],
            [
                0.4403812824956672,
                -0.03682588597842835
            ]
        ]
    ],
    "5001": [
        [
            [
                0.6410745233968804,
                -0.0386748844375963
            ],
            [
                0.7079722703639515,
                -0.03929121725731895
            ],
            [
                0.6871750433275563,
                -0.018335901386748843
            ]
        ],
        [
            [
                0.6247833622183709,
                0.04453004622496148
            ],
            [
                0.6039861351819756,
                0.06548536209553157
            ],
            [
                0.5731369150779896,
                0.07349768875192603
            ]
        ],
        [
            [
                0.5100519930675902,
                0.07442218798151001
            ],
            [
                0.47920277296360486,
                0.08243451463790447
            ],
            [
                0.47053726169843973,
                0.07503852080123265
            ]
        ],
        [
            [
                0.4410745233968804,
                0.05439137134052384
            ],
            [
                0.4324090121317158,
                0.046995377503852076
            ],
            [
                0.4258232235701907,
                0.02604006163328197
            ]
        ],
        [
            [
                0.3800693240901213,
                -0.015254237288135592
            ],
            [
                0.37348353552859614,
                -0.0362095531587057
            ],
            [
                0.4403812824956672,
                -0.03682588597842835
            ]
        ]
    ],
    "5010": [
        [
            [
                0.6410745233968804,
                -0.0386748844375963
            ],
            [
                0.7079722703639515,
                -0.03929121725731895
            ],
            [
                0.6871750433275563,
                -0.018335901386748843
            ]
        ],
        [
            [
                0.6143847487001733,
                -0.02942989214175653
            ],
            [
                0.5935875216637782,
                -0.008474576271186439
            ],
            [
                0.562738301559792,
                -0.00046224961479198704
            ]
        ],
        [
            [
                0.5303292894280757,
                -0.021263482280431435
            ],
            [
                0.4994800693240901,
                -0.013251155624036986
            ],
            [
                0.49081455805892493,
                -0.020647149460708804
            ]
        ],
        [
            [
                0.42079722703639516,
                0.04884437596301999
            ],
            [
                0.4121317157712305,
                0.04144838212634822
            ],
            [
                0.4055459272097054,
                0.020493066255778094
            ]
        ],
        [
            [
                0.3800693240901213,
                -0.015254237288135592
            ],
            [
                0.37348353552859614,
                -0.0362095531587057
            ],
            [
                0.4403812824956672,
                -0.03682588597842835
            ]
        ]
    ],
    "5011": [
        [
            [
                0.6410745233968804,
                -0.0386748844375963
            ],
            [
                0.7079722703639515,
                -0.03929121725731895
            ],
            [
                0.6871750433275563,
                -0.018335901386748843
            ]
        ],
        [
            [
                0.6247833622183709,
                0.04453004622496148
            ],
            [
                0.6039861351819756,
                0.06548536209553157
            ],
            [
                0.5731369150779896,
                0.07349768875192603
            ]
        ],
        [
            [
                0.5325823223570185,
                -0.03189522342064715
            ],
            [
                0.5017331022530329,
                -0.023882896764252693
            ],
            [
                0.49306759098786773,
                -0.031278890600924515
            ]
        ],
        [
            [
                0.41854419410745236,
                0.04822804314329734
            ],
            [
                0.4098786828422877,
                0.040832049306625574
            ],
            [
                0.4032928942807626,
                0.019876733436055442
            ]
        ],
        [
            [
                0.3800693240901213,
                -0.015254237288135592
            ],
            [
                0.37348353552859614,
                -0.0362095531587057
            ],
            [
                0.4403812824956672,
                -0.03682588597842835
            ]
        ]
    ],
    "5012": [
        [
            [
                0.6410745233968804,
                -0.0386748844375963
            ],
            [
                0.7079722703639515,
                -0.03929121725731895
            ],
            [
                0.6871750433275563,
                -0.018335901386748843
            ]
        ],
        [
            [
                0.6247833622183709,
                0.04453004622496148
            ],
            [
                0.6039861351819756,
                0.06548536209553157
            ],
            [
                0.5731369150779896,
                0.07349768875192603
            ]
        ],
        [
            [
                0.5325823223570185,
                -0.03189522342064715
            ],
            [
                0.5017331022530329,
                -0.023882896764252693
            ],
            [
                0.49306759098786773,
                -0.031278890600924515
            ]
        ],
        [
            [
                0.42287694974003465,
                0.009707241910631706
            ],
            [
                0.41421143847486996,
                0.002311248073959938
            ],
            [
                0.4076256499133449,
                -0.01864406779661019
            ]
        ],
        [
            [
                0.3800693240901213,
                -0.015254237288135592
            ],
            [
                0.37348353552859614,
                -0.0362095531587057
            ],
            [
                0.4403812824956672,
                -0.03682588597842835
            ]
        ]
    ],
    "5015": [
        [
            [
                0.6410745233968804,
                -0.0386748844375963
            ],
            [
                0.7079722703639515,
                -0.03929121725731895
            ],
            [
                0.6871750433275563,
                -0.018335901386748843
            ]
        ],
        [
            [
                0.6239168110918545,
                -0.015562403697996914
            ],
            [
                0.6031195840554593,
                0.005392912172573189
            ],
            [
                0.5722703639514731,
                0.013405238828967653
            ]
        ],
        [
            [
                0.5325823223570185,
                -0.03189522342064715
            ],
            [
                0.5017331022530329,
                -0.023882896764252693
            ],
            [
                0.49306759098786773,
                -0.031278890600924515
            ]
        ],
        [
            [
                0.42287694974003465,
                0.009707241910631706
            ],
            [
                0.41421143847486996,
                0.002311248073959938
            ],
            [
                0.4076256499133449,
                -0.01864406779661019
            ]
        ],
        [
            [
                0.3800693240901213,
                -0.015254237288135592
            ],
            [
                0.37348353552859614,
                -0.0362095531587057
            ],
            [
                0.4403812824956672,
                -0.03682588597842835
            ]
        ]
    ],
    "5022": [
        [
            [
                0.6410745233968804,
                -0.0386748844375963
            ],
            [
                0.7079722703639515,
                -0.03929121725731895
            ],
            [
                0.6871750433275563,
                -0.018335901386748843
            ]
        ],
        [
            [
                0.6178509532062393,
                -0.026348228043143306
            ],
            [
                0.597053726169844,
                -0.005392912172573189
            ],
            [
                0.5662045060658579,
                0.002619414483821275
            ]
        ],
        [
            [
                0.5325823223570185,
                -0.03189522342064715
            ],
            [
                0.5017331022530329,
                -0.023882896764252693
            ],
            [
                0.49306759098786773,
                -0.031278890600924515
            ]
        ],
        [
            [
                0.42287694974003465,
                0.009707241910631706
            ],
            [
                0.41421143847486996,
                0.002311248073959938
            ],
            [
                0.4076256499133449,
                -0.01864406779661019
            ]
        ],
        [
            [
                0.3800693240901213,
                -0.015254237288135592
            ],
            [
                0.37348353552859614,
                -0.0362095531587057
            ],
            [
                0.4403812824956672,
                -0.03682588597842835
            ]
        ]
    ],
    "5053": [
        [
            [
                0.6410745233968804,
                -0.0386748844375963
            ],
            [
                0.7079722703639515,
                -0.03929121725731895
            ],
            [
                0.6871750433275563,
                -0.018335901386748843
            ]
        ],
        [
            [
                0.6369150779896013,
                0.06764252696456083
            ],
            [
                0.6161178509532061,
                0.08859784283513096
            ],
            [
                0.58526863084922,
                0.09661016949152541
            ]
        ],
        [
            [
                0.5195840554592716,
                0.0682588597842835
            ],
            [
                0.48873483535528595,
                0.07627118644067796
            ],
            [
                0.4800693240901214,
                0.06887519260400612
            ]
        ],
        [
            [
                0.42287694974003465,
                0.009707241910631706
            ],
            [
                0.41421143847486996,
                0.002311248073959938
            ],
            [
                0.4076256499133449,
                -0.01864406779661019
            ]
        ],
        [
            [
                0.3800693240901213,
                -0.015254237288135592
            ],
            [
                0.37348353552859614,
                -0.0362095531587057
            ],
            [
                0.4403812824956672,
                -0.03682588597842835
            ]
        ]
    ],
    "5063": [
        [
            [
                0.6410745233968804,
                -0.0386748844375963
            ],
            [
                0.7079722703639515,
                -0.03929121725731895
            ],
            [
                0.6871750433275563,
                -0.018335901386748843
            ]
        ],
        [
            [
                0.6334488734835356,
                0.030662557781201825
            ],
            [
                0.6126516464471404,
                0.05161787365177195
            ],
            [
                0.5818024263431543,
                0.059630200308166396
            ]
        ],
        [
            [
                0.5143847487001728,
                0.05285053929121725
            ],
            [
                0.48353552859618715,
                0.0608628659476117
            ],
            [
                0.47487001733102263,
                0.05346687211093987
            ]
        ],
        [
            [
                0.42287694974003465,
                0.009707241910631706
            ],
            [
                0.41421143847486996,
                0.002311248073959938
            ],
            [
                0.4076256499133449,
                -0.01864406779661019
            ]
        ],
        [
            [
                0.3800693240901213,
                -0.015254237288135592
            ],
            [
                0.37348353552859614,
                -0.0362095531587057
            ],
            [
                0.4403812824956672,
                -0.03682588597842835
            ]
        ]
    ],
    "5065": [
        [
            [
                0.6410745233968804,
                -0.0386748844375963
            ],
            [
                0.7079722703639515,
                -0.03929121725731895
            ],
            [
                0.6871750433275563,
                -0.018335901386748843
            ]
        ],
        [
            [
                0.6343154246100521,
                0.061479198767334334
            ],
            [
                0.6135181975736568,
                0.08243451463790447
            ],
            [
                0.5826689774696707,
                0.0904468412942989
            ]
        ],
        [
            [
                0.5195840554592716,
                0.0682588597842835
            ],
            [
                0.48873483535528595,
                0.07627118644067796
            ],
            [
                0.4800693240901214,
                0.06887519260400612
            ]
        ],
        [
            [
                0.42287694974003465,
                0.009707241910631706
            ],
            [
                0.41421143847486996,
                0.002311248073959938
            ],
            [
                0.4076256499133449,
                -0.01864406779661019
            ]
        ],
        [
            [
                0.3800693240901213,
                -0.015254237288135592
            ],
            [
                0.37348353552859614,
                -0.0362095531587057
            ],
            [
                0.4403812824956672,
                -0.03682588597842835
            ]
        ]
    ],
    "5073": [
        [
            [
                0.6410745233968804,
                -0.0386748844375963
            ],
            [
                0.7079722703639515,
                -0.03929121725731895
            ],
            [
                0.6871750433275563,
                -0.018335901386748843
            ]
        ],
        [
            [
                0.6221837088388216,
                0.007550077041602431
            ],
            [
                0.6013864818024264,
                0.02850539291217257
            ],
            [
                0.5705372616984402,
                0.03651771956856701
            ]
        ],
        [
            [
                0.5195840554592716,
                0.0682588597842835
            ],
            [
                0.48873483535528595,
                0.07627118644067796
            ],
            [
                0.4800693240901214,
                0.06887519260400612
            ]
        ],
        [
            [
                0.42287694974003465,
                0.009707241910631706
            ],
            [
                0.41421143847486996,
                0.002311248073959938
            ],
            [
                0.4076256499133449,
                -0.01864406779661019
            ]
        ],
        [
            [
                0.3800693240901213,
                -0.015254237288135592
            ],
            [
                0.37348353552859614,
                -0.0362095531587057
            ],
            [
                0.4403812824956672,
                -0.03682588597842835
            ]
        ]
    ],
    "5094": [
        [
            [
                0.6410745233968804,
                -0.0386748844375963
            ],
            [
                0.7079722703639515,
                -0.03929121725731895
            ],
            [
                0.6871750433275563,
                -0.018335901386748843
            ]
        ],
        [
            [
                0.6221837088388216,
                0.007550077041602431
            ],
            [
                0.6013864818024264,
                0.02850539291217257
            ],
            [
                0.5705372616984402,
                0.03651771956856701
            ]
        ],
        [
            [
                0.531715771230502,
                0.05285053929121725
            ],
            [
                0.5008665511265165,
                0.0608628659476117
            ],
            [
                0.49220103986135183,
                0.05346687211093987
            ]
        ],
        [
            [
                0.44280762564991333,
                0.002003081664098577
            ],
            [
                0.43414211438474865,
                -0.005392912172573189
            ],
            [
                0.42755632582322356,
                -0.02634822804314332
            ]
        ],
        [
            [
                0.3800693240901213,
                -0.015254237288135592
            ],
            [
                0.37348353552859614,
                -0.0362095531587057
            ],
            [
                0.4403812824956672,
                -0.03682588597842835
            ]
        ]
    ],
    "5114": [
        [
            [
                0.6410745233968804,
                -0.0386748844375963
            ],
            [
                0.7079722703639515,
                -0.03929121725731895
            ],
            [
                0.6871750433275563,
                -0.018335901386748843
            ]
        ],
        [
            [
                0.6221837088388216,
                0.007550077041602431
            ],
            [
                0.6013864818024264,
                0.02850539291217257
            ],
            [
                0.5705372616984402,
                0.03651771956856701
            ]
        ],
        [
            [
                0.5230502599653374,
                0.0805855161787365
            ],
            [
                0.49220103986135183,
                0.08859784283513096
            ],
            [
                0.48353552859618715,
                0.08120184899845913
            ]
        ],
        [
            [
                0.427209705372617,
                0.020493066255778083
            ],
            [
                0.41854419410745236,
                0.013097072419106317
            ],
            [
                0.4119584055459272,
                -0.007858243451463813
            ]
        ],
        [
            [
                0.3800693240901213,
                -0.015254237288135592
            ],
            [
                0.37348353552859614,
                -0.0362095531587057
            ],
            [
                0.4403812824956672,
                -0.03682588597842835
            ]
        ]
    ],
    "5119": [
        [
            [
                0.6410745233968804,
                -0.0386748844375963
            ],
            [
                0.7079722703639515,
                -0.03929121725731895
            ],
            [
                0.6871750433275563,
                -0.018335901386748843
            ]
        ],
        [
            [
                0.6221837088388216,
                0.007550077041602431
            ],
            [
                0.6013864818024264,
                0.02850539291217257
            ],
            [
                0.5705372616984402,
                0.03651771956856701
            ]
        ],
        [
            [
                0.5230502599653374,
                0.0805855161787365
            ],
            [
                0.49220103986135183,
                0.08859784283513096
            ],
            [
                0.48353552859618715,
                0.08120184899845913
            ]
        ],
        [
            [
                0.39948006932409014,
                0.04360554699537747
            ],
            [
                0.39081455805892545,
                0.0362095531587057
            ],
            [
                0.38422876949740037,
                0.01525423728813557
            ]
        ],
        [
            [
                0.3800693240901213,
                -0.015254237288135592
            ],
            [
                0.37348353552859614,
                -0.0362095531587057
            ],
            [
                0.4403812824956672,
                -0.03682588597842835
            ]
        ]
    ],
    "5124": [
        [
            [
                0.6410745233968804,
                -0.0386748844375963
            ],
            [
                0.7079722703639515,
                -0.03929121725731895
            ],
            [
                0.6871750433275563,
                -0.018335901386748843
            ]
        ],
        [
            [
                0.6221837088388216,
                0.007550077041602431
            ],
            [
                0.6013864818024264,
                0.02850539291217257
            ],
            [
                0.5705372616984402,
                0.03651771956856701
            ]
        ],
        [
            [
                0.5178509532062386,
                0.1268104776579353
            ],
            [
                0.487001733102253,
                0.13482280431432972
            ],
            [
                0.4783362218370883,
                0.1274268104776579
            ]
        ],
        [
            [
                0.36568457538994803,
                0.06363636363636357
            ],
            [
                0.35701906412478335,
                0.05624036979969183
            ],
            [
                0.35043327556325826,
                0.035285053929121686
            ]
        ],
        [
            [
                0.3800693240901213,
                -0.015254237288135592
            ],
            [
                0.37348353552859614,
                -0.0362095531587057
            ],
            [
                0.4403812824956672,
                -0.03682588597842835
            ]
        ]
    ],
    "5125": [
        [
            [
                0.6410745233968804,
                -0.0386748844375963
            ],
            [
                0.7079722703639515,
                -0.03929121725731895
            ],
            [
                0.6871750433275563,
                -0.018335901386748843
            ]
        ],
        [
            [
                0.6577123050259966,
                0.08305084745762707
            ],
            [
                0.6369150779896013,
                0.10400616332819722
            ],
            [
                0.6060658578856153,
                0.11201848998459168
            ]
        ],
        [
            [
                0.5178509532062386,
                0.1268104776579353
            ],
            [
                0.487001733102253,
                0.13482280431432972
            ],
            [
                0.4783362218370883,
                0.1274268104776579
            ]
        ],
        [
            [
                0.36568457538994803,
                0.06363636363636357
            ],
            [
                0.35701906412478335,
                0.05624036979969183
            ],
            [
                0.35043327556325826,
                0.035285053929121686
            ]
        ],
        [
            [
                0.3332755632582322,
                -0.06764252696456084
            ],
            [
                0.32668977469670707,
                -0.08859784283513096
            ],
            [
                0.39358752166377814,
                -0.0892141756548536
            ]
        ]
    ],
    "5147": [
        [
            [
                0.6410745233968804,
                -0.0386748844375963
            ],
            [
                0.7079722703639515,
                -0.03929121725731895
            ],
            [
                0.6871750433275563,
                -0.018335901386748843
            ]
        ],
        [
            [
                0.6577123050259966,
                0.08305084745762707
            ],
            [
                0.6369150779896013,
                0.10400616332819722
            ],
            [
                0.6060658578856153,
                0.11201848998459168
            ]
        ],
        [
            [
                0.5178509532062386,
                0.1268104776579353
            ],
            [
                0.487001733102253,
                0.13482280431432972
            ],
            [
                0.4783362218370883,
                0.1274268104776579
            ]
        ],
        [
            [
                0.3925476603119584,
                0.05130970724191059
            ],
            [
                0.38388214904679374,
                0.04391371340523882
            ],
            [
                0.37729636048526866,
                0.02295839753466868
            ]
        ],
        [
            [
                0.3332755632582322,
                -0.06764252696456084
            ],
            [
                0.32668977469670707,
                -0.08859784283513096
            ],
            [
                0.39358752166377814,
                -0.0892141756548536
            ]
        ]
    ],
    "5152": [
        [
            [
                0.6410745233968804,
                -0.0386748844375963
            ],
            [
                0.7079722703639515,
                -0.03929121725731895
            ],
            [
                0.6871750433275563,
                -0.018335901386748843
            ]
        ],
        [
            [
                0.6577123050259966,
                0.08305084745762707
            ],
            [
                0.6369150779896013,
                0.10400616332819722
            ],
            [
                0.6060658578856153,
                0.11201848998459168
            ]
        ],
        [
            [
                0.5178509532062386,
                0.1268104776579353
            ],
            [
                0.487001733102253,
                0.13482280431432972
            ],
            [
                0.4783362218370883,
                0.1274268104776579
            ]
        ],
        [
            [
                0.40294627383015597,
                0.03898305084745759
            ],
            [
                0.3942807625649913,
                0.03158705701078582
            ],
            [
                0.3876949740034662,
                0.010631741140215676
            ]
        ],
        [
            [
                0.3332755632582322,
                -0.06764252696456084
            ],
            [
                0.32668977469670707,
                -0.08859784283513096
            ],
            [
                0.39358752166377814,
                -0.0892141756548536
            ]
        ]
    ],
    "5167": [
        [
            [
                0.6410745233968804,
                -0.0386748844375963
            ],
            [
                0.7079722703639515,
                -0.03929121725731895
            ],
            [
                0.6871750433275563,
                -0.018335901386748843
            ]
        ],
        [
            [
                0.6577123050259966,
                0.08305084745762707
            ],
            [
                0.6369150779896013,
                0.10400616332819722
            ],
            [
                0.6060658578856153,
                0.11201848998459168
            ]
        ],
        [
            [
                0.5178509532062386,
                0.1268104776579353
            ],
            [
                0.487001733102253,
                0.13482280431432972
            ],
            [
                0.4783362218370883,
                0.1274268104776579
            ]
        ],
        [
            [
                0.3977469670710572,
                0.07288135593220335
            ],
            [
                0.38908145580589254,
                0.06548536209553157
            ],
            [
                0.38249566724436745,
                0.04453004622496143
            ]
        ],
        [
            [
                0.3332755632582322,
                -0.06764252696456084
            ],
            [
                0.32668977469670707,
                -0.08859784283513096
            ],
            [
                0.39358752166377814,
                -0.0892141756548536
            ]
        ]
    ],
    "5171": [
        [
            [
                0.6410745233968804,
                -0.0386748844375963
            ],
            [
                0.7079722703639515,
                -0.03929121725731895
            ],
            [
                0.6871750433275563,
                -0.018335901386748843
            ]
        ],
        [
            [
                0.6577123050259966,
                0.08305084745762707
            ],
            [
                0.6369150779896013,
                0.10400616332819722
            ],
            [
                0.6060658578856153,
                0.11201848998459168
            ]
        ],
        [
            [
                0.5178509532062386,
                0.1268104776579353
            ],
            [
                0.487001733102253,
                0.13482280431432972
            ],
            [
                0.4783362218370883,
                0.1274268104776579
            ]
        ],
        [
            [
                0.4098786828422877,
                0.0636363636363636
            ],
            [
                0.40121317157712305,
                0.05624036979969183
            ],
            [
                0.3946273830155979,
                0.035285053929121686
            ]
        ],
        [
            [
                0.3332755632582322,
                -0.06764252696456084
            ],
            [
                0.32668977469670707,
                -0.08859784283513096
            ],
            [
                0.39358752166377814,
                -0.0892141756548536
            ]
        ]
    ],
    "5178": [
        [
            [
                0.6410745233968804,
                -0.0386748844375963
            ],
            [
                0.7079722703639515,
                -0.03929121725731895
            ],
            [
                0.6871750433275563,
                -0.018335901386748843
            ]
        ],
        [
            [
                0.6577123050259966,
                0.08305084745762707
            ],
            [
                0.6369150779896013,
                0.10400616332819722
            ],
            [
                0.6060658578856153,
                0.11201848998459168
            ]
        ],
        [
            [
                0.5178509532062386,
                0.1268104776579353
            ],
            [
                0.487001733102253,
                0.13482280431432972
            ],
            [
                0.4783362218370883,
                0.1274268104776579
            ]
        ],
        [
            [
                0.4237435008665511,
                0.054391371340523846
            ],
            [
                0.4150779896013865,
                0.046995377503852076
            ],
            [
                0.40849220103986134,
                0.026040061633281934
            ]
        ],
        [
            [
                0.3332755632582322,
                -0.06764252696456084
            ],
            [
                0.32668977469670707,
                -0.08859784283513096
            ],
            [
                0.39358752166377814,
                -0.0892141756548536
            ]
        ]
    ]
}
</property>
    <property name="kdenlive:collapsed">0</property>
   </filter>
   <filter id="filter163">
    <property name="version">0.6</property>
    <property name="mlt_service">frei0r.select0r</property>
    <property name="kdenlive_id">frei0r.select0r</property>
    <property name="Color to select">0x3f9f43ff</property>
    <property name="Invert selection">1</property>
    <property name="Selection subspace">1</property>
    <property name="Subspace shape">0.5</property>
    <property name="Edge mode">0.9</property>
    <property name="Delta R / A / Hue">00:02:39.033=0.089</property>
    <property name="Delta G / B / Chroma">00:02:39.033=0.271</property>
    <property name="Delta B / I / I">00:02:39.033=0.257</property>
    <property name="Slope">00:02:39.033=0.025</property>
    <property name="Operation">0.5</property>
    <property name="kdenlive:collapsed">0</property>
   </filter>
  </entry>
  <entry producer="producer42" in="00:02:53.467" out="00:03:40.967">
   <property name="kdenlive:id">27</property>
  </entry>
 </playlist>
 <playlist id="playlist25"/>
 <tractor id="tractor12" in="00:00:00.000" out="00:03:51.533">
  <property name="kdenlive:trackheight">69</property>
  <property name="kdenlive:timeline_active">1</property>
  <property name="kdenlive:collapsed">28</property>
  <property name="kdenlive:track_name">Sarah-handheld</property>
  <property name="kdenlive:thumbs_format"/>
  <property name="kdenlive:audio_rec"/>
  <property name="kdenlive:locked_track">1</property>
  <track hide="both" producer="playlist24"/>
  <track producer="playlist25"/>
 </tractor>
 <producer id="producer43" in="00:00:00.000" out="00:04:43.367">
  <property name="length">8502</property>
  <property name="eof">pause</property>
  <property name="resource">content/2021-06-02_Sarah_kit_dhaivat_00047-take3.mp4</property>
  <property name="audio_index">1</property>
  <property name="video_index">0</property>
  <property name="mute_on_pause">0</property>
  <property name="mlt_service">avformat-novalidate</property>
  <property name="seekable">1</property>
  <property name="aspect_ratio">1.33333</property>
  <property name="kdenlive:clipname">2021-06-02_Sarah_kit_dhaivat_00047-take3.mp4</property>
  <property name="kdenlive:folderid">65</property>
  <property name="kdenlive:id">17</property>
  <property name="kdenlive:file_size">246213435</property>
  <property name="kdenlive:file_hash">8e0fee6ab252be9858879a9b0e052dc2</property>
  <property name="kdenlive:audio_max">1</property>
  <property name="kdenlive:zone_in">299</property>
  <property name="kdenlive:zone_out">581</property>
  <property name="kdenlive:clipzones">[
    {
        "in": 299,
        "name": "opening fill",
        "out": 581
    }
]
</property>
  <property name="global_feed">1</property>
  <property name="kdenlive:proxy">-</property>
  <property name="kdenlive:originalurl">content/2021-06-02_Sarah_kit_dhaivat_00047-take3.mp4</property>
  <property name="kdenlive:activeeffect">0</property>
  <property name="xml">was here</property>
  <property name="meta.media.nb_streams">2</property>
  <property name="meta.media.0.stream.type">video</property>
  <property name="meta.media.0.stream.frame_rate">59.9401</property>
  <property name="meta.media.0.stream.sample_aspect_ratio">1.33333</property>
  <property name="meta.media.0.codec.width">1440</property>
  <property name="meta.media.0.codec.height">1080</property>
  <property name="meta.media.0.codec.rotate">0</property>
  <property name="meta.media.0.codec.frame_rate">29.97</property>
  <property name="meta.media.0.codec.pix_fmt">yuv420p</property>
  <property name="meta.media.0.codec.sample_aspect_ratio">1.33333</property>
  <property name="meta.media.0.codec.colorspace">709</property>
  <property name="meta.media.0.codec.name">h264</property>
  <property name="meta.media.0.codec.long_name">H.264 / AVC / MPEG-4 AVC / MPEG-4 part 10</property>
  <property name="meta.media.0.codec.bit_rate">6688996</property>
  <property name="meta.attr.0.stream.handler_name.markup">VideoHandler</property>
  <property name="meta.media.1.stream.type">audio</property>
  <property name="meta.media.1.codec.sample_fmt">fltp</property>
  <property name="meta.media.1.codec.sample_rate">48000</property>
  <property name="meta.media.1.codec.channels">2</property>
  <property name="meta.media.1.codec.name">ac3</property>
  <property name="meta.media.1.codec.long_name">ATSC A/52A (AC-3)</property>
  <property name="meta.media.1.codec.bit_rate">256000</property>
  <property name="meta.attr.1.stream.handler_name.markup">SoundHandler</property>
  <property name="meta.attr.major_brand.markup">isom</property>
  <property name="meta.attr.minor_version.markup">512</property>
  <property name="meta.attr.compatible_brands.markup">isomiso2avc1mp41</property>
  <property name="meta.attr.encoder.markup">Lavf58.45.100</property>
  <property name="meta.media.sample_aspect_num">4</property>
  <property name="meta.media.sample_aspect_den">3</property>
  <property name="meta.media.frame_rate_num">60000</property>
  <property name="meta.media.frame_rate_den">1001</property>
  <property name="meta.media.colorspace">709</property>
  <property name="meta.media.color_trc">2</property>
  <property name="meta.media.width">1440</property>
  <property name="meta.media.height">1080</property>
  <property name="meta.media.color_range">mpeg</property>
  <property name="set.test_audio">1</property>
  <property name="set.test_image">1</property>
  <filter id="filter47">
   <property name="version">0.6</property>
   <property name="mlt_service">frei0r.select0r</property>
   <property name="kdenlive_id">frei0r.select0r</property>
   <property name="Color to select">0x3cb955ff</property>
   <property name="Invert selection">1</property>
   <property name="Selection subspace">1</property>
   <property name="Subspace shape">0.5</property>
   <property name="Edge mode">0.7</property>
   <property name="Delta R / A / Hue">00:00:00.000=0.092</property>
   <property name="Delta G / B / Chroma">00:00:00.000=0.434</property>
   <property name="Delta B / I / I">00:00:00.000=0.596</property>
   <property name="Slope">00:00:00.000=0.034</property>
   <property name="Operation">0</property>
   <property name="kdenlive:collapsed">0</property>
  </filter>
  <filter id="filter52">
   <property name="version">0.4</property>
   <property name="mlt_service">frei0r.alpha0ps</property>
   <property name="kdenlive_id">frei0r.alpha0ps</property>
   <property name="Display">0</property>
   <property name="Display input alpha">0</property>
   <property name="Operation">1</property>
   <property name="Threshold">00:00:00.000=0.5</property>
   <property name="Shrink/Grow/Blur amount">00:00:00.000=0.147</property>
   <property name="Invert">0</property>
   <property name="kdenlive:collapsed">0</property>
  </filter>
  <filter id="filter75">
   <property name="mode">alpha</property>
   <property name="alpha_operation">sub</property>
   <property name="invert">0</property>
   <property name="feather">10</property>
   <property name="feather_passes">1</property>
   <property name="mlt_service">rotoscoping</property>
   <property name="kdenlive_id">rotoscoping</property>
   <property name="spline">{
    "000": [
        [
            [
                -0.06464471403812824,
                0.37550077041602464
            ],
            [
                -0.04419410745233968,
                0.536979969183359
            ],
            [
                -0.03344887348353553,
                0.5258859784283514
            ]
        ],
        [
            [
                -0.001213171577123051,
                0.49260400616332817
            ],
            [
                0.009532062391681109,
                0.4815100154083205
            ],
            [
                0.020277296360485267,
                0.4839753466872111
            ]
        ],
        [
            [
                0.04384748700173312,
                0.49599383667180275
            ],
            [
                0.05459272097053726,
                0.49845916795069334
            ],
            [
                0.05667244367417679,
                0.4922958397534668
            ]
        ],
        [
            [
                0.07764298093587521,
                0.4861325115562403
            ],
            [
                0.07972270363951472,
                0.47996918335901384
            ],
            [
                0.09098786828422875,
                0.47503852080123254
            ]
        ],
        [
            [
                0.11611785095320629,
                0.45408320493066245
            ],
            [
                0.12738301559792026,
                0.4491525423728813
            ],
            [
                0.1337954939341421,
                0.46579352850539274
            ]
        ],
        [
            [
                0.15996533795493934,
                0.5203389830508475
            ],
            [
                0.16637781629116116,
                0.536979969183359
            ],
            [
                0.17088388214904676,
                0.5348228043143298
            ]
        ],
        [
            [
                0.20866551126516464,
                0.5252696456086285
            ],
            [
                0.21317157712305024,
                0.5231124807395994
            ],
            [
                0.19410745233968804,
                0.44360554699537746
            ]
        ],
        [
            [
                0.14124783362218374,
                0.20046224961479212
            ],
            [
                0.12218370883882149,
                0.12095531587057008
            ],
            [
                0.1329289428076256,
                0.09198767334360566
            ]
        ],
        [
            [
                0.13223570190641248,
                -0.002619414483821261
            ],
            [
                0.14298093587521662,
                -0.03158705701078582
            ],
            [
                0.2847487001733102,
                -0.03466872110939907
            ]
        ],
        [
            [
                0.7100519930675909,
                -0.04391371340523882
            ],
            [
                0.8518197573656845,
                -0.046995377503852076
            ],
            [
                0.8499133448873483,
                -0.008166409861325111
            ]
        ],
        [
            [
                0.8441941074523397,
                0.10832049306625575
            ],
            [
                0.8422876949740034,
                0.14714946070878274
            ],
            [
                0.8374350086655112,
                0.1727272727272727
            ]
        ],
        [
            [
                0.8228769497400347,
                0.24946070878274268
            ],
            [
                0.8180242634315424,
                0.27503852080123264
            ],
            [
                0.8081455805892547,
                0.2836671802773497
            ]
        ],
        [
            [
                0.7785095320623917,
                0.3095531587057011
            ],
            [
                0.7686308492201039,
                0.3181818181818182
            ],
            [
                0.7686308492201039,
                0.32434514637904466
            ]
        ],
        [
            [
                0.7686308492201039,
                0.34283513097072416
            ],
            [
                0.7686308492201039,
                0.3489984591679507
            ],
            [
                0.779376083188908,
                0.35762711864406777
            ]
        ],
        [
            [
                0.8116117850953206,
                0.3835130970724191
            ],
            [
                0.8223570190641247,
                0.3921417565485362
            ],
            [
                0.8206239168110918,
                0.4377503852080123
            ]
        ],
        [
            [
                0.8154246100519931,
                0.5745762711864406
            ],
            [
                0.8136915077989602,
                0.6201848998459167
            ],
            [
                0.8563258232235701,
                0.5665639445300462
            ]
        ],
        [
            [
                0.9842287694974003,
                0.4057010785824345
            ],
            [
                1.0268630849220104,
                0.35208012326656396
            ],
            [
                1.035528596187175,
                0.23374422187981508
            ]
        ],
        [
            [
                1.061525129982669,
                -0.12126348228043142
            ],
            [
                1.0701906412478335,
                -0.23959938366718025
            ],
            [
                0.8268630849220102,
                -0.24576271186440676
            ]
        ],
        [
            [
                0.0968804159445407,
                -0.2642526964560863
            ],
            [
                -0.14644714038128248,
                -0.27041602465331277
            ],
            [
                -0.12599653379549391,
                -0.10893682588597842
            ]
        ]
    ]
}
</property>
   <property name="kdenlive:collapsed">0</property>
  </filter>
  <filter id="filter76">
   <property name="version">0.3</property>
   <property name="mlt_service">frei0r.keyspillm0pup</property>
   <property name="kdenlive_id">frei0r.keyspillm0pup</property>
   <property name="Key color">0x84c867ff</property>
   <property name="Target color">0xC87F65ff</property>
   <property name="Mask type">0</property>
   <property name="Tolerance">00:00:00.000=0.246</property>
   <property name="Slope">00:00:00.000=0.243</property>
   <property name="Hue gate">00:00:00.000=0.183</property>
   <property name="Saturation threshold">00:00:00.000=0.131</property>
   <property name="Operation 1">1</property>
   <property name="Amount 1">00:00:00.000=0.5</property>
   <property name="Operation 2">3</property>
   <property name="Amount 2">00:00:00.000=0.365</property>
   <property name="Show mask">0</property>
   <property name="Mask to Alpha">0</property>
   <property name="kdenlive:collapsed">0</property>
  </filter>
  <filter id="filter77">
   <property name="version">0.6</property>
   <property name="mlt_service">frei0r.select0r</property>
   <property name="kdenlive_id">frei0r.select0r</property>
   <property name="Color to select">0x3cb955ff</property>
   <property name="Invert selection">1</property>
   <property name="Selection subspace">1</property>
   <property name="Subspace shape">0.5</property>
   <property name="Edge mode">0.7</property>
   <property name="Delta R / A / Hue">00:00:00.000=0.092</property>
   <property name="Delta G / B / Chroma">00:00:00.000=0.434</property>
   <property name="Delta B / I / I">00:00:00.000=0.596</property>
   <property name="Slope">00:00:00.000=0.034</property>
   <property name="Operation">0</property>
  </filter>
  <filter id="filter78">
   <property name="version">0.4</property>
   <property name="mlt_service">frei0r.alpha0ps</property>
   <property name="kdenlive_id">frei0r.alpha0ps</property>
   <property name="Display">0</property>
   <property name="Display input alpha">0</property>
   <property name="Operation">1</property>
   <property name="Threshold">00:00:00.000=0.5</property>
   <property name="Shrink/Grow/Blur amount">00:00:00.000=0.147</property>
   <property name="Invert">0</property>
  </filter>
  <filter id="filter79">
   <property name="mode">alpha</property>
   <property name="alpha_operation">sub</property>
   <property name="invert">0</property>
   <property name="feather">10</property>
   <property name="feather_passes">1</property>
   <property name="mlt_service">rotoscoping</property>
   <property name="kdenlive_id">rotoscoping</property>
   <property name="spline">{
    "000": [
        [
            [
                -0.06464471403812824,
                0.37550077041602464
            ],
            [
                -0.04419410745233968,
                0.536979969183359
            ],
            [
                -0.03344887348353553,
                0.5258859784283514
            ]
        ],
        [
            [
                -0.001213171577123051,
                0.49260400616332817
            ],
            [
                0.009532062391681109,
                0.4815100154083205
            ],
            [
                0.020277296360485267,
                0.4839753466872111
            ]
        ],
        [
            [
                0.04384748700173312,
                0.49599383667180275
            ],
            [
                0.05459272097053726,
                0.49845916795069334
            ],
            [
                0.05667244367417679,
                0.4922958397534668
            ]
        ],
        [
            [
                0.07764298093587521,
                0.4861325115562403
            ],
            [
                0.07972270363951472,
                0.47996918335901384
            ],
            [
                0.09098786828422875,
                0.47503852080123254
            ]
        ],
        [
            [
                0.11611785095320629,
                0.45408320493066245
            ],
            [
                0.12738301559792026,
                0.4491525423728813
            ],
            [
                0.1337954939341421,
                0.46579352850539274
            ]
        ],
        [
            [
                0.15996533795493934,
                0.5203389830508475
            ],
            [
                0.16637781629116116,
                0.536979969183359
            ],
            [
                0.17088388214904676,
                0.5348228043143298
            ]
        ],
        [
            [
                0.20866551126516464,
                0.5252696456086285
            ],
            [
                0.21317157712305024,
                0.5231124807395994
            ],
            [
                0.19410745233968804,
                0.44360554699537746
            ]
        ],
        [
            [
                0.14124783362218374,
                0.20046224961479212
            ],
            [
                0.12218370883882149,
                0.12095531587057008
            ],
            [
                0.1329289428076256,
                0.09198767334360566
            ]
        ],
        [
            [
                0.13223570190641248,
                -0.002619414483821261
            ],
            [
                0.14298093587521662,
                -0.03158705701078582
            ],
            [
                0.2847487001733102,
                -0.03466872110939907
            ]
        ],
        [
            [
                0.7100519930675909,
                -0.04391371340523882
            ],
            [
                0.8518197573656845,
                -0.046995377503852076
            ],
            [
                0.8499133448873483,
                -0.008166409861325111
            ]
        ],
        [
            [
                0.8441941074523397,
                0.10832049306625575
            ],
            [
                0.8422876949740034,
                0.14714946070878274
            ],
            [
                0.8374350086655112,
                0.1727272727272727
            ]
        ],
        [
            [
                0.8228769497400347,
                0.24946070878274268
            ],
            [
                0.8180242634315424,
                0.27503852080123264
            ],
            [
                0.8081455805892547,
                0.2836671802773497
            ]
        ],
        [
            [
                0.7785095320623917,
                0.3095531587057011
            ],
            [
                0.7686308492201039,
                0.3181818181818182
            ],
            [
                0.7686308492201039,
                0.32434514637904466
            ]
        ],
        [
            [
                0.7686308492201039,
                0.34283513097072416
            ],
            [
                0.7686308492201039,
                0.3489984591679507
            ],
            [
                0.779376083188908,
                0.35762711864406777
            ]
        ],
        [
            [
                0.8116117850953206,
                0.3835130970724191
            ],
            [
                0.8223570190641247,
                0.3921417565485362
            ],
            [
                0.8206239168110918,
                0.4377503852080123
            ]
        ],
        [
            [
                0.8154246100519931,
                0.5745762711864406
            ],
            [
                0.8136915077989602,
                0.6201848998459167
            ],
            [
                0.8563258232235701,
                0.5665639445300462
            ]
        ],
        [
            [
                0.9842287694974003,
                0.4057010785824345
            ],
            [
                1.0268630849220104,
                0.35208012326656396
            ],
            [
                1.035528596187175,
                0.23374422187981508
            ]
        ],
        [
            [
                1.061525129982669,
                -0.12126348228043142
            ],
            [
                1.0701906412478335,
                -0.23959938366718025
            ],
            [
                0.8268630849220102,
                -0.24576271186440676
            ]
        ],
        [
            [
                0.0968804159445407,
                -0.2642526964560863
            ],
            [
                -0.14644714038128248,
                -0.27041602465331277
            ],
            [
                -0.12599653379549391,
                -0.10893682588597842
            ]
        ]
    ]
}
</property>
  </filter>
  <filter id="filter80">
   <property name="version">0.3</property>
   <property name="mlt_service">frei0r.keyspillm0pup</property>
   <property name="kdenlive_id">frei0r.keyspillm0pup</property>
   <property name="Key color">0x84c867ff</property>
   <property name="Target color">0xC87F65ff</property>
   <property name="Mask type">0</property>
   <property name="Tolerance">00:00:00.000=0.246</property>
   <property name="Slope">00:00:00.000=0.243</property>
   <property name="Hue gate">00:00:00.000=0.183</property>
   <property name="Saturation threshold">00:00:00.000=0.131</property>
   <property name="Operation 1">1</property>
   <property name="Amount 1">00:00:00.000=0.5</property>
   <property name="Operation 2">3</property>
   <property name="Amount 2">00:00:00.000=0.365</property>
   <property name="Show mask">0</property>
   <property name="Mask to Alpha">0</property>
  </filter>
 </producer>
 <producer id="producer164" in="00:00:00.000" out="00:04:43.367">
  <property name="length">8502</property>
  <property name="eof">pause</property>
  <property name="resource">content/2021-06-02_Sarah_kit_dhaivat_00047-take3.mp4</property>
  <property name="audio_index">1</property>
  <property name="video_index">0</property>
  <property name="mute_on_pause">0</property>
  <property name="mlt_service">avformat-novalidate</property>
  <property name="seekable">1</property>
  <property name="aspect_ratio">1.33333</property>
  <property name="kdenlive:clipname">2021-06-02_Sarah_kit_dhaivat_00047-take3.mp4</property>
  <property name="kdenlive:folderid">65</property>
  <property name="kdenlive:id">17</property>
  <property name="kdenlive:file_size">246213435</property>
  <property name="kdenlive:file_hash">8e0fee6ab252be9858879a9b0e052dc2</property>
  <property name="kdenlive:audio_max">1</property>
  <property name="kdenlive:zone_in">299</property>
  <property name="kdenlive:zone_out">581</property>
  <property name="kdenlive:clipzones">[
    {
        "in": 299,
        "name": "opening fill",
        "out": 581
    }
]
</property>
  <property name="global_feed">1</property>
  <property name="kdenlive:proxy">-</property>
  <property name="kdenlive:originalurl">content/2021-06-02_Sarah_kit_dhaivat_00047-take3.mp4</property>
  <property name="kdenlive:original.mlt_type">mlt_producer</property>
  <property name="kdenlive:original.in">00:00:00.000</property>
  <property name="kdenlive:original.out">00:04:43.367</property>
  <property name="kdenlive:original.length">8502</property>
  <property name="kdenlive:original.eof">pause</property>
  <property name="kdenlive:original.resource">content/2021-06-02_Sarah_kit_dhaivat_00047-take3.mp4</property>
  <property name="kdenlive:original.meta.media.nb_streams">2</property>
  <property name="kdenlive:original.meta.media.0.stream.type">video</property>
  <property name="kdenlive:original.meta.media.0.stream.frame_rate">59.9401</property>
  <property name="kdenlive:original.meta.media.0.stream.sample_aspect_ratio">1.33333</property>
  <property name="kdenlive:original.meta.media.0.codec.width">1440</property>
  <property name="kdenlive:original.meta.media.0.codec.height">1080</property>
  <property name="kdenlive:original.meta.media.0.codec.rotate">0</property>
  <property name="kdenlive:original.meta.media.0.codec.frame_rate">29.97</property>
  <property name="kdenlive:original.meta.media.0.codec.pix_fmt">yuv420p</property>
  <property name="kdenlive:original.meta.media.0.codec.sample_aspect_ratio">1.33333</property>
  <property name="kdenlive:original.meta.media.0.codec.colorspace">709</property>
  <property name="kdenlive:original.meta.media.0.codec.name">h264</property>
  <property name="kdenlive:original.meta.media.0.codec.long_name">H.264 / AVC / MPEG-4 AVC / MPEG-4 part 10</property>
  <property name="kdenlive:original.meta.media.0.codec.bit_rate">6688996</property>
  <property name="kdenlive:original.meta.attr.0.stream.handler_name.markup">VideoHandler</property>
  <property name="kdenlive:original.meta.attr.0.stream.vendor_id.markup">[0][0][0][0]</property>
  <property name="kdenlive:original.meta.media.1.stream.type">audio</property>
  <property name="kdenlive:original.meta.media.1.codec.sample_fmt">fltp</property>
  <property name="kdenlive:original.meta.media.1.codec.sample_rate">48000</property>
  <property name="kdenlive:original.meta.media.1.codec.channels">2</property>
  <property name="kdenlive:original.meta.media.1.codec.name">ac3</property>
  <property name="kdenlive:original.meta.media.1.codec.long_name">ATSC A/52A (AC-3)</property>
  <property name="kdenlive:original.meta.media.1.codec.bit_rate">256000</property>
  <property name="kdenlive:original.meta.attr.1.stream.handler_name.markup">SoundHandler</property>
  <property name="kdenlive:original.meta.attr.1.stream.vendor_id.markup">[0][0][0][0]</property>
  <property name="kdenlive:original.meta.attr.major_brand.markup">isom</property>
  <property name="kdenlive:original.meta.attr.minor_version.markup">512</property>
  <property name="kdenlive:original.meta.attr.compatible_brands.markup">isomiso2avc1mp41</property>
  <property name="kdenlive:original.meta.attr.encoder.markup">Lavf58.45.100</property>
  <property name="kdenlive:original.seekable">1</property>
  <property name="kdenlive:original.width">1440</property>
  <property name="kdenlive:original.height">1080</property>
  <property name="kdenlive:original.meta.media.sample_aspect_num">4</property>
  <property name="kdenlive:original.meta.media.sample_aspect_den">3</property>
  <property name="kdenlive:original.aspect_ratio">1.33333</property>
  <property name="kdenlive:original.audio_index">1</property>
  <property name="kdenlive:original.video_index">0</property>
  <property name="kdenlive:original.mute_on_pause">0</property>
  <property name="kdenlive:original.mlt_service">avformat-novalidate</property>
  <property name="kdenlive:original.kdenlive:folderid">65</property>
  <property name="kdenlive:original.meta.media.frame_rate_num">60000</property>
  <property name="kdenlive:original.meta.media.frame_rate_den">1001</property>
  <property name="kdenlive:original.meta.media.colorspace">709</property>
  <property name="kdenlive:original.meta.media.color_trc">2</property>
  <property name="kdenlive:original.meta.media.width">1440</property>
  <property name="kdenlive:original.meta.media.height">1080</property>
  <property name="kdenlive:original.meta.media.color_range">mpeg</property>
  <property name="kdenlive:original.kdenlive:id">76</property>
  <property name="kdenlive:original.kdenlive:file_size">246213435</property>
  <property name="kdenlive:original.kdenlive:file_hash">8e0fee6ab252be9858879a9b0e052dc2</property>
  <property name="kdenlive:original.kdenlive:audio_max">1</property>
  <property name="kdenlive:original.meta.media.top_field_first">1</property>
  <property name="kdenlive:original.meta.media.progressive">0</property>
  <property name="kdenlive:original.kdenlive:zone_in">299</property>
  <property name="kdenlive:original.kdenlive:zone_out">581</property>
  <property name="kdenlive:original.kdenlive:clipzones">[
    {
        "in": 299,
        "name": "opening fill",
        "out": 581
    }
]
</property>
  <property name="kdenlive:original.root">/</property>
  <property name="kdenlive:original.global_feed">1</property>
  <property name="kdenlive:original.backup">1</property>
  <property name="kdenlive:activeeffect">0</property>
  <property name="xml">was here</property>
  <property name="meta.media.nb_streams">2</property>
  <property name="meta.media.0.stream.type">video</property>
  <property name="meta.media.0.stream.frame_rate">59.9401</property>
  <property name="meta.media.0.stream.sample_aspect_ratio">1.33333</property>
  <property name="meta.media.0.codec.width">640</property>
  <property name="meta.media.0.codec.height">480</property>
  <property name="meta.media.0.codec.rotate">0</property>
  <property name="meta.media.0.codec.frame_rate">1000</property>
  <property name="meta.media.0.codec.pix_fmt">yuvj420p</property>
  <property name="meta.media.0.codec.sample_aspect_ratio">1.33333</property>
  <property name="meta.media.0.codec.colorspace">601</property>
  <property name="meta.media.0.codec.name">mjpeg</property>
  <property name="meta.media.0.codec.long_name">MJPEG (Motion JPEG)</property>
  <property name="meta.media.0.codec.bit_rate">0</property>
  <property name="meta.attr.0.stream.HANDLER_NAME.markup">VideoHandler</property>
  <property name="meta.attr.0.stream.VENDOR_ID.markup">[0][0][0][0]</property>
  <property name="meta.attr.0.stream.ENCODER.markup">Lavc58.134.100 mjpeg</property>
  <property name="meta.attr.0.stream.DURATION.markup">00:04:43.467000000</property>
  <property name="meta.media.1.stream.type">audio</property>
  <property name="meta.media.1.codec.sample_fmt">s16</property>
  <property name="meta.media.1.codec.sample_rate">48000</property>
  <property name="meta.media.1.codec.channels">2</property>
  <property name="meta.media.1.codec.name">pcm_s16le</property>
  <property name="meta.media.1.codec.long_name">PCM signed 16-bit little-endian</property>
  <property name="meta.media.1.codec.bit_rate">1536000</property>
  <property name="meta.attr.1.stream.HANDLER_NAME.markup">SoundHandler</property>
  <property name="meta.attr.1.stream.VENDOR_ID.markup">[0][0][0][0]</property>
  <property name="meta.attr.1.stream.ENCODER.markup">Lavc58.134.100 pcm_s16le</property>
  <property name="meta.attr.1.stream.DURATION.markup">00:04:43.392000000</property>
  <property name="meta.attr.COMPATIBLE_BRANDS.markup">isomiso2avc1mp41</property>
  <property name="meta.attr.MAJOR_BRAND.markup">isom</property>
  <property name="meta.attr.MINOR_VERSION.markup">512</property>
  <property name="meta.attr.ENCODER.markup">Lavf58.76.100</property>
  <property name="meta.media.sample_aspect_num">4</property>
  <property name="meta.media.sample_aspect_den">3</property>
  <property name="meta.media.frame_rate_num">19001</property>
  <property name="meta.media.frame_rate_den">317</property>
  <property name="meta.media.colorspace">601</property>
  <property name="meta.media.color_trc">2</property>
  <property name="meta.media.width">640</property>
  <property name="meta.media.height">480</property>
  <property name="meta.media.color_range">full</property>
  <property name="meta.media.top_field_first">0</property>
  <property name="meta.media.progressive">1</property>
  <property name="set.test_audio">1</property>
  <property name="set.test_image">0</property>
 </producer>
 <producer id="producer155" in="00:00:00.000" out="00:04:43.367">
  <property name="length">8502</property>
  <property name="eof">pause</property>
  <property name="resource">content/2021-06-02_Sarah_kit_dhaivat_00047-take3.mp4</property>
  <property name="audio_index">1</property>
  <property name="video_index">0</property>
  <property name="mute_on_pause">0</property>
  <property name="mlt_service">avformat-novalidate</property>
  <property name="seekable">1</property>
  <property name="aspect_ratio">1.33333</property>
  <property name="kdenlive:clipname">2021-06-02_Sarah_kit_dhaivat_00047-take3.mp4</property>
  <property name="kdenlive:folderid">65</property>
  <property name="kdenlive:id">17</property>
  <property name="kdenlive:file_size">246213435</property>
  <property name="kdenlive:file_hash">8e0fee6ab252be9858879a9b0e052dc2</property>
  <property name="kdenlive:audio_max">1</property>
  <property name="kdenlive:zone_in">299</property>
  <property name="kdenlive:zone_out">581</property>
  <property name="kdenlive:clipzones">[
    {
        "in": 299,
        "name": "opening fill",
        "out": 581
    }
]
</property>
  <property name="global_feed">1</property>
  <property name="kdenlive:proxy">-</property>
  <property name="kdenlive:originalurl">content/2021-06-02_Sarah_kit_dhaivat_00047-take3.mp4</property>
  <property name="kdenlive:original.mlt_type">mlt_producer</property>
  <property name="kdenlive:original.in">00:00:00.000</property>
  <property name="kdenlive:original.out">00:04:43.367</property>
  <property name="kdenlive:original.length">8502</property>
  <property name="kdenlive:original.eof">pause</property>
  <property name="kdenlive:original.resource">content/2021-06-02_Sarah_kit_dhaivat_00047-take3.mp4</property>
  <property name="kdenlive:original.meta.media.nb_streams">2</property>
  <property name="kdenlive:original.meta.media.0.stream.type">video</property>
  <property name="kdenlive:original.meta.media.0.stream.frame_rate">59.9401</property>
  <property name="kdenlive:original.meta.media.0.stream.sample_aspect_ratio">1.33333</property>
  <property name="kdenlive:original.meta.media.0.codec.width">1440</property>
  <property name="kdenlive:original.meta.media.0.codec.height">1080</property>
  <property name="kdenlive:original.meta.media.0.codec.rotate">0</property>
  <property name="kdenlive:original.meta.media.0.codec.frame_rate">29.97</property>
  <property name="kdenlive:original.meta.media.0.codec.pix_fmt">yuv420p</property>
  <property name="kdenlive:original.meta.media.0.codec.sample_aspect_ratio">1.33333</property>
  <property name="kdenlive:original.meta.media.0.codec.colorspace">709</property>
  <property name="kdenlive:original.meta.media.0.codec.name">h264</property>
  <property name="kdenlive:original.meta.media.0.codec.long_name">H.264 / AVC / MPEG-4 AVC / MPEG-4 part 10</property>
  <property name="kdenlive:original.meta.media.0.codec.bit_rate">6688996</property>
  <property name="kdenlive:original.meta.attr.0.stream.handler_name.markup">VideoHandler</property>
  <property name="kdenlive:original.meta.attr.0.stream.vendor_id.markup">[0][0][0][0]</property>
  <property name="kdenlive:original.meta.media.1.stream.type">audio</property>
  <property name="kdenlive:original.meta.media.1.codec.sample_fmt">fltp</property>
  <property name="kdenlive:original.meta.media.1.codec.sample_rate">48000</property>
  <property name="kdenlive:original.meta.media.1.codec.channels">2</property>
  <property name="kdenlive:original.meta.media.1.codec.name">ac3</property>
  <property name="kdenlive:original.meta.media.1.codec.long_name">ATSC A/52A (AC-3)</property>
  <property name="kdenlive:original.meta.media.1.codec.bit_rate">256000</property>
  <property name="kdenlive:original.meta.attr.1.stream.handler_name.markup">SoundHandler</property>
  <property name="kdenlive:original.meta.attr.1.stream.vendor_id.markup">[0][0][0][0]</property>
  <property name="kdenlive:original.meta.attr.major_brand.markup">isom</property>
  <property name="kdenlive:original.meta.attr.minor_version.markup">512</property>
  <property name="kdenlive:original.meta.attr.compatible_brands.markup">isomiso2avc1mp41</property>
  <property name="kdenlive:original.meta.attr.encoder.markup">Lavf58.45.100</property>
  <property name="kdenlive:original.seekable">1</property>
  <property name="kdenlive:original.width">1440</property>
  <property name="kdenlive:original.height">1080</property>
  <property name="kdenlive:original.meta.media.sample_aspect_num">4</property>
  <property name="kdenlive:original.meta.media.sample_aspect_den">3</property>
  <property name="kdenlive:original.aspect_ratio">1.33333</property>
  <property name="kdenlive:original.audio_index">1</property>
  <property name="kdenlive:original.video_index">0</property>
  <property name="kdenlive:original.mute_on_pause">0</property>
  <property name="kdenlive:original.mlt_service">avformat-novalidate</property>
  <property name="kdenlive:original.kdenlive:folderid">65</property>
  <property name="kdenlive:original.meta.media.frame_rate_num">60000</property>
  <property name="kdenlive:original.meta.media.frame_rate_den">1001</property>
  <property name="kdenlive:original.meta.media.colorspace">709</property>
  <property name="kdenlive:original.meta.media.color_trc">2</property>
  <property name="kdenlive:original.meta.media.width">1440</property>
  <property name="kdenlive:original.meta.media.height">1080</property>
  <property name="kdenlive:original.meta.media.color_range">mpeg</property>
  <property name="kdenlive:original.kdenlive:id">76</property>
  <property name="kdenlive:original.kdenlive:file_size">246213435</property>
  <property name="kdenlive:original.kdenlive:file_hash">8e0fee6ab252be9858879a9b0e052dc2</property>
  <property name="kdenlive:original.kdenlive:audio_max">1</property>
  <property name="kdenlive:original.meta.media.top_field_first">1</property>
  <property name="kdenlive:original.meta.media.progressive">0</property>
  <property name="kdenlive:original.kdenlive:zone_in">299</property>
  <property name="kdenlive:original.kdenlive:zone_out">581</property>
  <property name="kdenlive:original.kdenlive:clipzones">[
    {
        "in": 299,
        "name": "opening fill",
        "out": 581
    }
]
</property>
  <property name="kdenlive:original.root">/</property>
  <property name="kdenlive:original.global_feed">1</property>
  <property name="kdenlive:original.backup">1</property>
  <property name="kdenlive:activeeffect">0</property>
  <property name="xml">was here</property>
  <property name="meta.media.nb_streams">2</property>
  <property name="meta.media.0.stream.type">video</property>
  <property name="meta.media.0.stream.frame_rate">59.9401</property>
  <property name="meta.media.0.stream.sample_aspect_ratio">1.33333</property>
  <property name="meta.media.0.codec.width">640</property>
  <property name="meta.media.0.codec.height">480</property>
  <property name="meta.media.0.codec.rotate">0</property>
  <property name="meta.media.0.codec.frame_rate">1000</property>
  <property name="meta.media.0.codec.pix_fmt">yuvj420p</property>
  <property name="meta.media.0.codec.sample_aspect_ratio">1.33333</property>
  <property name="meta.media.0.codec.colorspace">601</property>
  <property name="meta.media.0.codec.name">mjpeg</property>
  <property name="meta.media.0.codec.long_name">MJPEG (Motion JPEG)</property>
  <property name="meta.media.0.codec.bit_rate">0</property>
  <property name="meta.attr.0.stream.HANDLER_NAME.markup">VideoHandler</property>
  <property name="meta.attr.0.stream.VENDOR_ID.markup">[0][0][0][0]</property>
  <property name="meta.attr.0.stream.ENCODER.markup">Lavc58.134.100 mjpeg</property>
  <property name="meta.attr.0.stream.DURATION.markup">00:04:43.467000000</property>
  <property name="meta.media.1.stream.type">audio</property>
  <property name="meta.media.1.codec.sample_fmt">s16</property>
  <property name="meta.media.1.codec.sample_rate">48000</property>
  <property name="meta.media.1.codec.channels">2</property>
  <property name="meta.media.1.codec.name">pcm_s16le</property>
  <property name="meta.media.1.codec.long_name">PCM signed 16-bit little-endian</property>
  <property name="meta.media.1.codec.bit_rate">1536000</property>
  <property name="meta.attr.1.stream.HANDLER_NAME.markup">SoundHandler</property>
  <property name="meta.attr.1.stream.VENDOR_ID.markup">[0][0][0][0]</property>
  <property name="meta.attr.1.stream.ENCODER.markup">Lavc58.134.100 pcm_s16le</property>
  <property name="meta.attr.1.stream.DURATION.markup">00:04:43.392000000</property>
  <property name="meta.attr.COMPATIBLE_BRANDS.markup">isomiso2avc1mp41</property>
  <property name="meta.attr.MAJOR_BRAND.markup">isom</property>
  <property name="meta.attr.MINOR_VERSION.markup">512</property>
  <property name="meta.attr.ENCODER.markup">Lavf58.76.100</property>
  <property name="meta.media.sample_aspect_num">4</property>
  <property name="meta.media.sample_aspect_den">3</property>
  <property name="meta.media.frame_rate_num">19001</property>
  <property name="meta.media.frame_rate_den">317</property>
  <property name="meta.media.colorspace">601</property>
  <property name="meta.media.color_trc">2</property>
  <property name="meta.media.width">640</property>
  <property name="meta.media.height">480</property>
  <property name="meta.media.color_range">full</property>
  <property name="meta.media.top_field_first">0</property>
  <property name="meta.media.progressive">1</property>
  <property name="set.test_audio">1</property>
  <property name="set.test_image">0</property>
 </producer>
 <playlist id="playlist26">
  <blank length="00:00:18.600"/>
  <entry producer="producer43" in="00:00:00.000" out="00:00:10.267">
   <property name="kdenlive:id">17</property>
  </entry>
  <entry producer="producer164" in="00:00:10.300" out="00:00:16.500">
   <property name="kdenlive:id">17</property>
  </entry>
  <entry producer="producer43" in="00:00:16.533" out="00:00:36.300">
   <property name="kdenlive:id">17</property>
  </entry>
  <entry producer="producer155" in="00:00:36.333" out="00:00:39.233">
   <property name="kdenlive:id">17</property>
   <filter id="filter172" in="00:00:38.467" out="00:00:39.233">
    <property name="start">1</property>
    <property name="mlt_service">brightness</property>
    <property name="kdenlive_id">fade_to_black</property>
    <property name="end">0</property>
    <property name="alpha">-1</property>
    <property name="kdenlive:collapsed">0</property>
   </filter>
  </entry>
  <entry producer="producer43" in="00:00:39.267" out="00:04:43.367">
   <property name="kdenlive:id">17</property>
  </entry>
 </playlist>
 <playlist id="playlist27"/>
 <tractor id="tractor13" in="00:00:00.000" out="00:05:01.967">
  <property name="kdenlive:trackheight">69</property>
  <property name="kdenlive:timeline_active">0</property>
  <property name="kdenlive:collapsed">28</property>
  <property name="kdenlive:track_name">Sarah1</property>
  <property name="kdenlive:thumbs_format"/>
  <property name="kdenlive:audio_rec"/>
  <property name="kdenlive:locked_track">1</property>
  <track hide="both" producer="playlist26"/>
  <track producer="playlist27"/>
 </tractor>
 <producer id="producer44" in="00:00:00.000" out="00:05:04.367">
  <property name="length">9132</property>
  <property name="eof">pause</property>
  <property name="resource">content/2021-02-06_Caleb_electric+handheld_dhaivat_MVI_6044-take3.MOV</property>
  <property name="audio_index">1</property>
  <property name="video_index">0</property>
  <property name="mute_on_pause">0</property>
  <property name="mlt_service">avformat-novalidate</property>
  <property name="seekable">1</property>
  <property name="aspect_ratio">1</property>
  <property name="kdenlive:clipname">2021-02-06_Caleb_electric+handheld_dhaivat_MVI_6044-take3.MOV</property>
  <property name="kdenlive:folderid">65</property>
  <property name="kdenlive:id">12</property>
  <property name="kdenlive:file_size">1232897294</property>
  <property name="kdenlive:file_hash">6eaa6d2422217289142c5656b81e0405</property>
  <property name="kdenlive:audio_max">1</property>
  <property name="kdenlive:zone_in">493</property>
  <property name="kdenlive:zone_out">1131</property>
  <property name="kdenlive:clipzones">[
    {
        "in": 493,
        "name": "bass second entry",
        "out": 1131
    }
]
</property>
  <property name="global_feed">1</property>
  <property name="kdenlive:proxy">-</property>
  <property name="kdenlive:originalurl">content/2021-02-06_Caleb_electric+handheld_dhaivat_MVI_6044-take3.MOV</property>
  <property name="kdenlive:activeeffect">2</property>
  <property name="kdenlive:active_streams">-1</property>
  <property name="xml">was here</property>
  <property name="meta.media.nb_streams">2</property>
  <property name="meta.media.0.stream.type">video</property>
  <property name="meta.media.0.stream.frame_rate">29.97</property>
  <property name="meta.media.0.stream.sample_aspect_ratio">0</property>
  <property name="meta.media.0.codec.width">1280</property>
  <property name="meta.media.0.codec.height">720</property>
  <property name="meta.media.0.codec.rotate">0</property>
  <property name="meta.media.0.codec.frame_rate">30000</property>
  <property name="meta.media.0.codec.pix_fmt">yuvj420p</property>
  <property name="meta.media.0.codec.sample_aspect_ratio">0</property>
  <property name="meta.media.0.codec.colorspace">601</property>
  <property name="meta.media.0.codec.color_trc">1</property>
  <property name="meta.media.0.codec.name">h264</property>
  <property name="meta.media.0.codec.long_name">H.264 / AVC / MPEG-4 AVC / MPEG-4 part 10</property>
  <property name="meta.media.0.codec.bit_rate">31631631</property>
  <property name="meta.attr.0.stream.creation_time.markup">2021-06-02T15:23:31.000000Z</property>
  <property name="meta.attr.0.stream.language.markup">eng</property>
  <property name="meta.attr.0.stream.handler_name.markup">VideoHandler</property>
  <property name="meta.media.1.stream.type">audio</property>
  <property name="meta.media.1.codec.sample_fmt">s16</property>
  <property name="meta.media.1.codec.sample_rate">48000</property>
  <property name="meta.media.1.codec.channels">1</property>
  <property name="meta.media.1.codec.name">pcm_s16le</property>
  <property name="meta.media.1.codec.long_name">PCM signed 16-bit little-endian</property>
  <property name="meta.media.1.codec.bit_rate">768000</property>
  <property name="meta.attr.1.stream.creation_time.markup">2021-06-02T15:23:31.000000Z</property>
  <property name="meta.attr.1.stream.language.markup">eng</property>
  <property name="meta.attr.1.stream.handler_name.markup">SoundHandler</property>
  <property name="meta.attr.major_brand.markup">qt  </property>
  <property name="meta.attr.minor_version.markup">512</property>
  <property name="meta.attr.compatible_brands.markup">qt  </property>
  <property name="meta.attr.creation_time.markup">2021-06-02T15:23:31.000000Z</property>
  <property name="meta.attr.encoder.markup">Lavf58.45.100</property>
  <property name="meta.media.sample_aspect_num">1</property>
  <property name="meta.media.sample_aspect_den">1</property>
  <property name="meta.media.frame_rate_num">30000</property>
  <property name="meta.media.frame_rate_den">1001</property>
  <property name="meta.media.colorspace">601</property>
  <property name="meta.media.color_trc">1</property>
  <property name="meta.media.width">1280</property>
  <property name="meta.media.height">720</property>
  <property name="meta.media.color_range">full</property>
  <property name="set.test_audio">1</property>
  <property name="set.test_image">1</property>
  <filter id="filter81">
   <property name="version">0.6</property>
   <property name="mlt_service">frei0r.select0r</property>
   <property name="kdenlive_id">frei0r.select0r</property>
   <property name="Color to select">0x58e4b5ff</property>
   <property name="Invert selection">1</property>
   <property name="Selection subspace">1</property>
   <property name="Subspace shape">0</property>
   <property name="Edge mode">0.9</property>
   <property name="Delta R / A / Hue">00:00:00.000=0.083</property>
   <property name="Delta G / B / Chroma">00:00:00.000=0.303</property>
   <property name="Delta B / I / I">00:00:00.000=0.377</property>
   <property name="Slope">00:00:00.000=0.087</property>
   <property name="Operation">0.5</property>
   <property name="kdenlive:collapsed">0</property>
   <property name="kdenlive:force_in_out">0</property>
  </filter>
  <filter id="filter113">
   <property name="version">0.4</property>
   <property name="mlt_service">frei0r.alpha0ps</property>
   <property name="kdenlive_id">frei0r.alpha0ps</property>
   <property name="Display">0</property>
   <property name="Display input alpha">0</property>
   <property name="Operation">1</property>
   <property name="Threshold">00:00:00.000=0.045</property>
   <property name="Shrink/Grow/Blur amount">00:00:00.000=0.205</property>
   <property name="Invert">0</property>
   <property name="kdenlive:collapsed">0</property>
  </filter>
  <filter id="filter114">
   <property name="version">0.3</property>
   <property name="mlt_service">frei0r.keyspillm0pup</property>
   <property name="kdenlive_id">frei0r.keyspillm0pup</property>
   <property name="Key color">0x52d067ff</property>
   <property name="Target color">0xC87F65ff</property>
   <property name="Mask type">0</property>
   <property name="Tolerance">00:00:00.000=0.323</property>
   <property name="Slope">00:00:00.000=0.243</property>
   <property name="Hue gate">00:00:00.000=0.179</property>
   <property name="Saturation threshold">00:00:00.000=0.199</property>
   <property name="Operation 1">1</property>
   <property name="Amount 1">00:00:00.000=0.5</property>
   <property name="Operation 2">3</property>
   <property name="Amount 2">00:00:00.000=0.328</property>
   <property name="Show mask">0</property>
   <property name="Mask to Alpha">0</property>
   <property name="kdenlive:collapsed">0</property>
  </filter>
  <filter id="filter115">
   <property name="version">0.6</property>
   <property name="mlt_service">frei0r.select0r</property>
   <property name="kdenlive_id">frei0r.select0r</property>
   <property name="Color to select">0x58e4b5ff</property>
   <property name="Invert selection">1</property>
   <property name="Selection subspace">1</property>
   <property name="Subspace shape">0</property>
   <property name="Edge mode">0.9</property>
   <property name="Delta R / A / Hue">00:00:00.000=0.083</property>
   <property name="Delta G / B / Chroma">00:00:00.000=0.303</property>
   <property name="Delta B / I / I">00:00:00.000=0.377</property>
   <property name="Slope">00:00:00.000=0.087</property>
   <property name="Operation">0.5</property>
  </filter>
  <filter id="filter125">
   <property name="version">0.4</property>
   <property name="mlt_service">frei0r.alpha0ps</property>
   <property name="kdenlive_id">frei0r.alpha0ps</property>
   <property name="Display">0</property>
   <property name="Display input alpha">0</property>
   <property name="Operation">1</property>
   <property name="Threshold">00:00:00.000=0.045</property>
   <property name="Shrink/Grow/Blur amount">00:00:00.000=0.205</property>
   <property name="Invert">0</property>
  </filter>
  <filter id="filter126">
   <property name="version">0.3</property>
   <property name="mlt_service">frei0r.keyspillm0pup</property>
   <property name="kdenlive_id">frei0r.keyspillm0pup</property>
   <property name="Key color">0x52d067ff</property>
   <property name="Target color">0xC87F65ff</property>
   <property name="Mask type">0</property>
   <property name="Tolerance">00:00:00.000=0.323</property>
   <property name="Slope">00:00:00.000=0.243</property>
   <property name="Hue gate">00:00:00.000=0.179</property>
   <property name="Saturation threshold">00:00:00.000=0.199</property>
   <property name="Operation 1">1</property>
   <property name="Amount 1">00:00:00.000=0.5</property>
   <property name="Operation 2">3</property>
   <property name="Amount 2">00:00:00.000=0.328</property>
   <property name="Show mask">0</property>
   <property name="Mask to Alpha">0</property>
  </filter>
 </producer>
 <producer id="producer167" in="00:00:00.000" out="00:05:04.367">
  <property name="length">9132</property>
  <property name="eof">pause</property>
  <property name="resource">content/2021-02-06_Caleb_electric+handheld_dhaivat_MVI_6044-take3.MOV</property>
  <property name="audio_index">1</property>
  <property name="video_index">0</property>
  <property name="mute_on_pause">0</property>
  <property name="mlt_service">avformat-novalidate</property>
  <property name="seekable">1</property>
  <property name="aspect_ratio">1</property>
  <property name="kdenlive:clipname">2021-02-06_Caleb_electric+handheld_dhaivat_MVI_6044-take3.MOV</property>
  <property name="kdenlive:folderid">65</property>
  <property name="kdenlive:id">12</property>
  <property name="kdenlive:file_size">1232897294</property>
  <property name="kdenlive:file_hash">6eaa6d2422217289142c5656b81e0405</property>
  <property name="kdenlive:audio_max">1</property>
  <property name="kdenlive:zone_in">493</property>
  <property name="kdenlive:zone_out">1131</property>
  <property name="kdenlive:clipzones">[
    {
        "in": 493,
        "name": "bass second entry",
        "out": 1131
    }
]
</property>
  <property name="global_feed">1</property>
  <property name="kdenlive:proxy">-</property>
  <property name="kdenlive:originalurl">content/2021-02-06_Caleb_electric+handheld_dhaivat_MVI_6044-take3.MOV</property>
  <property name="kdenlive:original.mlt_type">mlt_producer</property>
  <property name="kdenlive:original.in">00:00:00.000</property>
  <property name="kdenlive:original.out">00:05:04.367</property>
  <property name="kdenlive:original.length">9132</property>
  <property name="kdenlive:original.eof">pause</property>
  <property name="kdenlive:original.resource">content/2021-02-06_Caleb_electric+handheld_dhaivat_MVI_6044-take3.MOV</property>
  <property name="kdenlive:original.meta.media.nb_streams">2</property>
  <property name="kdenlive:original.meta.media.0.stream.type">video</property>
  <property name="kdenlive:original.meta.media.0.stream.frame_rate">29.97</property>
  <property name="kdenlive:original.meta.media.0.stream.sample_aspect_ratio">0</property>
  <property name="kdenlive:original.meta.media.0.codec.width">1280</property>
  <property name="kdenlive:original.meta.media.0.codec.height">720</property>
  <property name="kdenlive:original.meta.media.0.codec.rotate">0</property>
  <property name="kdenlive:original.meta.media.0.codec.frame_rate">30000</property>
  <property name="kdenlive:original.meta.media.0.codec.pix_fmt">yuvj420p</property>
  <property name="kdenlive:original.meta.media.0.codec.sample_aspect_ratio">0</property>
  <property name="kdenlive:original.meta.media.0.codec.colorspace">601</property>
  <property name="kdenlive:original.meta.media.0.codec.color_trc">1</property>
  <property name="kdenlive:original.meta.media.0.codec.name">h264</property>
  <property name="kdenlive:original.meta.media.0.codec.long_name">H.264 / AVC / MPEG-4 AVC / MPEG-4 part 10</property>
  <property name="kdenlive:original.meta.media.0.codec.bit_rate">31631631</property>
  <property name="kdenlive:original.meta.attr.0.stream.creation_time.markup">2021-06-02T15:23:31.000000Z</property>
  <property name="kdenlive:original.meta.attr.0.stream.language.markup">eng</property>
  <property name="kdenlive:original.meta.attr.0.stream.handler_name.markup">VideoHandler</property>
  <property name="kdenlive:original.meta.attr.0.stream.vendor_id.markup">FFMP</property>
  <property name="kdenlive:original.meta.media.1.stream.type">audio</property>
  <property name="kdenlive:original.meta.media.1.codec.sample_fmt">s16</property>
  <property name="kdenlive:original.meta.media.1.codec.sample_rate">48000</property>
  <property name="kdenlive:original.meta.media.1.codec.channels">1</property>
  <property name="kdenlive:original.meta.media.1.codec.name">pcm_s16le</property>
  <property name="kdenlive:original.meta.media.1.codec.long_name">PCM signed 16-bit little-endian</property>
  <property name="kdenlive:original.meta.media.1.codec.bit_rate">768000</property>
  <property name="kdenlive:original.meta.attr.1.stream.creation_time.markup">2021-06-02T15:23:31.000000Z</property>
  <property name="kdenlive:original.meta.attr.1.stream.language.markup">eng</property>
  <property name="kdenlive:original.meta.attr.1.stream.handler_name.markup">SoundHandler</property>
  <property name="kdenlive:original.meta.attr.1.stream.vendor_id.markup">[0][0][0][0]</property>
  <property name="kdenlive:original.meta.attr.major_brand.markup">qt  </property>
  <property name="kdenlive:original.meta.attr.minor_version.markup">512</property>
  <property name="kdenlive:original.meta.attr.compatible_brands.markup">qt  </property>
  <property name="kdenlive:original.meta.attr.creation_time.markup">2021-06-02T15:23:31.000000Z</property>
  <property name="kdenlive:original.meta.attr.encoder.markup">Lavf58.45.100</property>
  <property name="kdenlive:original.seekable">1</property>
  <property name="kdenlive:original.width">1280</property>
  <property name="kdenlive:original.height">720</property>
  <property name="kdenlive:original.meta.media.sample_aspect_num">1</property>
  <property name="kdenlive:original.meta.media.sample_aspect_den">1</property>
  <property name="kdenlive:original.aspect_ratio">1</property>
  <property name="kdenlive:original.audio_index">1</property>
  <property name="kdenlive:original.video_index">0</property>
  <property name="kdenlive:original.mute_on_pause">0</property>
  <property name="kdenlive:original.mlt_service">avformat-novalidate</property>
  <property name="kdenlive:original.kdenlive:folderid">65</property>
  <property name="kdenlive:original.meta.media.frame_rate_num">30000</property>
  <property name="kdenlive:original.meta.media.frame_rate_den">1001</property>
  <property name="kdenlive:original.meta.media.colorspace">601</property>
  <property name="kdenlive:original.meta.media.color_trc">1</property>
  <property name="kdenlive:original.meta.media.width">1280</property>
  <property name="kdenlive:original.meta.media.height">720</property>
  <property name="kdenlive:original.meta.media.color_range">full</property>
  <property name="kdenlive:original.kdenlive:id">67</property>
  <property name="kdenlive:original.kdenlive:file_size">1232897294</property>
  <property name="kdenlive:original.kdenlive:file_hash">6eaa6d2422217289142c5656b81e0405</property>
  <property name="kdenlive:original.kdenlive:audio_max">1</property>
  <property name="kdenlive:original.meta.media.top_field_first">0</property>
  <property name="kdenlive:original.meta.media.progressive">1</property>
  <property name="kdenlive:original.kdenlive:zone_in">493</property>
  <property name="kdenlive:original.kdenlive:zone_out">1131</property>
  <property name="kdenlive:original.kdenlive:clipzones">[
    {
        "in": 493,
        "name": "bass second entry",
        "out": 1131
    }
]
</property>
  <property name="kdenlive:original.root">/</property>
  <property name="kdenlive:original.global_feed">1</property>
  <property name="kdenlive:original.backup">1</property>
  <property name="kdenlive:activeeffect">2</property>
  <property name="kdenlive:active_streams">-1</property>
  <property name="xml">was here</property>
  <property name="meta.media.nb_streams">2</property>
  <property name="meta.media.0.stream.type">video</property>
  <property name="meta.media.0.stream.frame_rate">29.97</property>
  <property name="meta.media.0.stream.sample_aspect_ratio">0</property>
  <property name="meta.media.0.codec.width">640</property>
  <property name="meta.media.0.codec.height">360</property>
  <property name="meta.media.0.codec.rotate">0</property>
  <property name="meta.media.0.codec.frame_rate">1000</property>
  <property name="meta.media.0.codec.pix_fmt">yuvj420p</property>
  <property name="meta.media.0.codec.sample_aspect_ratio">0</property>
  <property name="meta.media.0.codec.colorspace">601</property>
  <property name="meta.media.0.codec.color_trc">1</property>
  <property name="meta.media.0.codec.name">mjpeg</property>
  <property name="meta.media.0.codec.long_name">MJPEG (Motion JPEG)</property>
  <property name="meta.media.0.codec.bit_rate">0</property>
  <property name="meta.attr.0.stream.language.markup">eng</property>
  <property name="meta.attr.0.stream.HANDLER_NAME.markup">VideoHandler</property>
  <property name="meta.attr.0.stream.VENDOR_ID.markup">FFMP</property>
  <property name="meta.attr.0.stream.ENCODER.markup">Lavc58.134.100 mjpeg</property>
  <property name="meta.attr.0.stream.DURATION.markup">00:05:04.370000000</property>
  <property name="meta.media.1.stream.type">audio</property>
  <property name="meta.media.1.codec.sample_fmt">s16</property>
  <property name="meta.media.1.codec.sample_rate">48000</property>
  <property name="meta.media.1.codec.channels">1</property>
  <property name="meta.media.1.codec.name">pcm_s16le</property>
  <property name="meta.media.1.codec.long_name">PCM signed 16-bit little-endian</property>
  <property name="meta.media.1.codec.bit_rate">768000</property>
  <property name="meta.attr.1.stream.language.markup">eng</property>
  <property name="meta.attr.1.stream.HANDLER_NAME.markup">SoundHandler</property>
  <property name="meta.attr.1.stream.VENDOR_ID.markup">[0][0][0][0]</property>
  <property name="meta.attr.1.stream.ENCODER.markup">Lavc58.134.100 pcm_s16le</property>
  <property name="meta.attr.1.stream.DURATION.markup">00:05:04.389000000</property>
  <property name="meta.attr.COMPATIBLE_BRANDS.markup">qt  </property>
  <property name="meta.attr.MAJOR_BRAND.markup">qt  </property>
  <property name="meta.attr.MINOR_VERSION.markup">512</property>
  <property name="meta.attr.ENCODER.markup">Lavf58.76.100</property>
  <property name="meta.media.sample_aspect_num">1</property>
  <property name="meta.media.sample_aspect_den">1</property>
  <property name="meta.media.frame_rate_num">30000</property>
  <property name="meta.media.frame_rate_den">1001</property>
  <property name="meta.media.colorspace">601</property>
  <property name="meta.media.color_trc">1</property>
  <property name="meta.media.width">640</property>
  <property name="meta.media.height">360</property>
  <property name="meta.media.color_range">full</property>
  <property name="meta.media.top_field_first">0</property>
  <property name="meta.media.progressive">1</property>
  <property name="set.test_audio">1</property>
  <property name="set.test_image">0</property>
 </producer>
 <producer id="producer163" in="00:00:00.000" out="00:05:04.367">
  <property name="length">9132</property>
  <property name="eof">pause</property>
  <property name="resource">content/2021-02-06_Caleb_electric+handheld_dhaivat_MVI_6044-take3.MOV</property>
  <property name="audio_index">1</property>
  <property name="video_index">0</property>
  <property name="mute_on_pause">0</property>
  <property name="mlt_service">avformat-novalidate</property>
  <property name="seekable">1</property>
  <property name="aspect_ratio">1</property>
  <property name="kdenlive:clipname">2021-02-06_Caleb_electric+handheld_dhaivat_MVI_6044-take3.MOV</property>
  <property name="kdenlive:folderid">65</property>
  <property name="kdenlive:id">12</property>
  <property name="kdenlive:file_size">1232897294</property>
  <property name="kdenlive:file_hash">6eaa6d2422217289142c5656b81e0405</property>
  <property name="kdenlive:audio_max">1</property>
  <property name="kdenlive:zone_in">493</property>
  <property name="kdenlive:zone_out">1131</property>
  <property name="kdenlive:clipzones">[
    {
        "in": 493,
        "name": "bass second entry",
        "out": 1131
    }
]
</property>
  <property name="global_feed">1</property>
  <property name="kdenlive:proxy">-</property>
  <property name="kdenlive:originalurl">content/2021-02-06_Caleb_electric+handheld_dhaivat_MVI_6044-take3.MOV</property>
  <property name="kdenlive:original.mlt_type">mlt_producer</property>
  <property name="kdenlive:original.in">00:00:00.000</property>
  <property name="kdenlive:original.out">00:05:04.367</property>
  <property name="kdenlive:original.length">9132</property>
  <property name="kdenlive:original.eof">pause</property>
  <property name="kdenlive:original.resource">content/2021-02-06_Caleb_electric+handheld_dhaivat_MVI_6044-take3.MOV</property>
  <property name="kdenlive:original.meta.media.nb_streams">2</property>
  <property name="kdenlive:original.meta.media.0.stream.type">video</property>
  <property name="kdenlive:original.meta.media.0.stream.frame_rate">29.97</property>
  <property name="kdenlive:original.meta.media.0.stream.sample_aspect_ratio">0</property>
  <property name="kdenlive:original.meta.media.0.codec.width">1280</property>
  <property name="kdenlive:original.meta.media.0.codec.height">720</property>
  <property name="kdenlive:original.meta.media.0.codec.rotate">0</property>
  <property name="kdenlive:original.meta.media.0.codec.frame_rate">30000</property>
  <property name="kdenlive:original.meta.media.0.codec.pix_fmt">yuvj420p</property>
  <property name="kdenlive:original.meta.media.0.codec.sample_aspect_ratio">0</property>
  <property name="kdenlive:original.meta.media.0.codec.colorspace">601</property>
  <property name="kdenlive:original.meta.media.0.codec.color_trc">1</property>
  <property name="kdenlive:original.meta.media.0.codec.name">h264</property>
  <property name="kdenlive:original.meta.media.0.codec.long_name">H.264 / AVC / MPEG-4 AVC / MPEG-4 part 10</property>
  <property name="kdenlive:original.meta.media.0.codec.bit_rate">31631631</property>
  <property name="kdenlive:original.meta.attr.0.stream.creation_time.markup">2021-06-02T15:23:31.000000Z</property>
  <property name="kdenlive:original.meta.attr.0.stream.language.markup">eng</property>
  <property name="kdenlive:original.meta.attr.0.stream.handler_name.markup">VideoHandler</property>
  <property name="kdenlive:original.meta.attr.0.stream.vendor_id.markup">FFMP</property>
  <property name="kdenlive:original.meta.media.1.stream.type">audio</property>
  <property name="kdenlive:original.meta.media.1.codec.sample_fmt">s16</property>
  <property name="kdenlive:original.meta.media.1.codec.sample_rate">48000</property>
  <property name="kdenlive:original.meta.media.1.codec.channels">1</property>
  <property name="kdenlive:original.meta.media.1.codec.name">pcm_s16le</property>
  <property name="kdenlive:original.meta.media.1.codec.long_name">PCM signed 16-bit little-endian</property>
  <property name="kdenlive:original.meta.media.1.codec.bit_rate">768000</property>
  <property name="kdenlive:original.meta.attr.1.stream.creation_time.markup">2021-06-02T15:23:31.000000Z</property>
  <property name="kdenlive:original.meta.attr.1.stream.language.markup">eng</property>
  <property name="kdenlive:original.meta.attr.1.stream.handler_name.markup">SoundHandler</property>
  <property name="kdenlive:original.meta.attr.1.stream.vendor_id.markup">[0][0][0][0]</property>
  <property name="kdenlive:original.meta.attr.major_brand.markup">qt  </property>
  <property name="kdenlive:original.meta.attr.minor_version.markup">512</property>
  <property name="kdenlive:original.meta.attr.compatible_brands.markup">qt  </property>
  <property name="kdenlive:original.meta.attr.creation_time.markup">2021-06-02T15:23:31.000000Z</property>
  <property name="kdenlive:original.meta.attr.encoder.markup">Lavf58.45.100</property>
  <property name="kdenlive:original.seekable">1</property>
  <property name="kdenlive:original.width">1280</property>
  <property name="kdenlive:original.height">720</property>
  <property name="kdenlive:original.meta.media.sample_aspect_num">1</property>
  <property name="kdenlive:original.meta.media.sample_aspect_den">1</property>
  <property name="kdenlive:original.aspect_ratio">1</property>
  <property name="kdenlive:original.audio_index">1</property>
  <property name="kdenlive:original.video_index">0</property>
  <property name="kdenlive:original.mute_on_pause">0</property>
  <property name="kdenlive:original.mlt_service">avformat-novalidate</property>
  <property name="kdenlive:original.kdenlive:folderid">65</property>
  <property name="kdenlive:original.meta.media.frame_rate_num">30000</property>
  <property name="kdenlive:original.meta.media.frame_rate_den">1001</property>
  <property name="kdenlive:original.meta.media.colorspace">601</property>
  <property name="kdenlive:original.meta.media.color_trc">1</property>
  <property name="kdenlive:original.meta.media.width">1280</property>
  <property name="kdenlive:original.meta.media.height">720</property>
  <property name="kdenlive:original.meta.media.color_range">full</property>
  <property name="kdenlive:original.kdenlive:id">67</property>
  <property name="kdenlive:original.kdenlive:file_size">1232897294</property>
  <property name="kdenlive:original.kdenlive:file_hash">6eaa6d2422217289142c5656b81e0405</property>
  <property name="kdenlive:original.kdenlive:audio_max">1</property>
  <property name="kdenlive:original.meta.media.top_field_first">0</property>
  <property name="kdenlive:original.meta.media.progressive">1</property>
  <property name="kdenlive:original.kdenlive:zone_in">493</property>
  <property name="kdenlive:original.kdenlive:zone_out">1131</property>
  <property name="kdenlive:original.kdenlive:clipzones">[
    {
        "in": 493,
        "name": "bass second entry",
        "out": 1131
    }
]
</property>
  <property name="kdenlive:original.root">/</property>
  <property name="kdenlive:original.global_feed">1</property>
  <property name="kdenlive:original.backup">1</property>
  <property name="kdenlive:activeeffect">2</property>
  <property name="kdenlive:active_streams">-1</property>
  <property name="xml">was here</property>
  <property name="meta.media.nb_streams">2</property>
  <property name="meta.media.0.stream.type">video</property>
  <property name="meta.media.0.stream.frame_rate">29.97</property>
  <property name="meta.media.0.stream.sample_aspect_ratio">0</property>
  <property name="meta.media.0.codec.width">640</property>
  <property name="meta.media.0.codec.height">360</property>
  <property name="meta.media.0.codec.rotate">0</property>
  <property name="meta.media.0.codec.frame_rate">1000</property>
  <property name="meta.media.0.codec.pix_fmt">yuvj420p</property>
  <property name="meta.media.0.codec.sample_aspect_ratio">0</property>
  <property name="meta.media.0.codec.colorspace">601</property>
  <property name="meta.media.0.codec.color_trc">1</property>
  <property name="meta.media.0.codec.name">mjpeg</property>
  <property name="meta.media.0.codec.long_name">MJPEG (Motion JPEG)</property>
  <property name="meta.media.0.codec.bit_rate">0</property>
  <property name="meta.attr.0.stream.language.markup">eng</property>
  <property name="meta.attr.0.stream.HANDLER_NAME.markup">VideoHandler</property>
  <property name="meta.attr.0.stream.VENDOR_ID.markup">FFMP</property>
  <property name="meta.attr.0.stream.ENCODER.markup">Lavc58.134.100 mjpeg</property>
  <property name="meta.attr.0.stream.DURATION.markup">00:05:04.370000000</property>
  <property name="meta.media.1.stream.type">audio</property>
  <property name="meta.media.1.codec.sample_fmt">s16</property>
  <property name="meta.media.1.codec.sample_rate">48000</property>
  <property name="meta.media.1.codec.channels">1</property>
  <property name="meta.media.1.codec.name">pcm_s16le</property>
  <property name="meta.media.1.codec.long_name">PCM signed 16-bit little-endian</property>
  <property name="meta.media.1.codec.bit_rate">768000</property>
  <property name="meta.attr.1.stream.language.markup">eng</property>
  <property name="meta.attr.1.stream.HANDLER_NAME.markup">SoundHandler</property>
  <property name="meta.attr.1.stream.VENDOR_ID.markup">[0][0][0][0]</property>
  <property name="meta.attr.1.stream.ENCODER.markup">Lavc58.134.100 pcm_s16le</property>
  <property name="meta.attr.1.stream.DURATION.markup">00:05:04.389000000</property>
  <property name="meta.attr.COMPATIBLE_BRANDS.markup">qt  </property>
  <property name="meta.attr.MAJOR_BRAND.markup">qt  </property>
  <property name="meta.attr.MINOR_VERSION.markup">512</property>
  <property name="meta.attr.ENCODER.markup">Lavf58.76.100</property>
  <property name="meta.media.sample_aspect_num">1</property>
  <property name="meta.media.sample_aspect_den">1</property>
  <property name="meta.media.frame_rate_num">30000</property>
  <property name="meta.media.frame_rate_den">1001</property>
  <property name="meta.media.colorspace">601</property>
  <property name="meta.media.color_trc">1</property>
  <property name="meta.media.width">640</property>
  <property name="meta.media.height">360</property>
  <property name="meta.media.color_range">full</property>
  <property name="meta.media.top_field_first">0</property>
  <property name="meta.media.progressive">1</property>
  <property name="set.test_audio">1</property>
  <property name="set.test_image">0</property>
 </producer>
 <playlist id="playlist28">
  <blank length="00:00:16.667"/>
  <entry producer="producer44" in="00:00:00.000" out="00:00:03.167">
   <property name="kdenlive:id">12</property>
  </entry>
  <entry producer="producer167" in="00:00:03.200" out="00:00:07.533">
   <property name="kdenlive:id">12</property>
   <filter id="filter180" in="00:00:03.200" out="00:00:03.267">
    <property name="start">0</property>
    <property name="mlt_service">brightness</property>
    <property name="kdenlive_id">fade_from_black</property>
    <property name="end">1</property>
    <property name="alpha">-1</property>
    <property name="kdenlive:collapsed">0</property>
   </filter>
  </entry>
  <entry producer="producer44" in="00:00:07.567" out="00:02:03.500">
   <property name="kdenlive:id">12</property>
   <filter id="filter181">
    <property name="rotate_center">1</property>
    <property name="mlt_service">qtblend</property>
    <property name="kdenlive_id">qtblend</property>
    <property name="rect">00:00:07.567|=0 0 1920 1080 0.000000;00:02:03.500|=0 0 1920 1080 0.000000</property>
    <property name="rotation">00:00:07.567|=0;00:02:03.500|=0</property>
    <property name="compositing">0</property>
    <property name="distort">0</property>
    <property name="kdenlive:collapsed">0</property>
   </filter>
  </entry>
  <entry producer="producer44" in="00:02:03.533" out="00:03:34.600">
   <property name="kdenlive:id">12</property>
  </entry>
  <entry producer="producer163" in="00:03:34.633" out="00:04:00.500">
   <property name="kdenlive:id">12</property>
   <filter id="filter182" in="00:03:34.633" out="00:03:38.200">
    <property name="start">0</property>
    <property name="mlt_service">brightness</property>
    <property name="kdenlive_id">fade_from_black</property>
    <property name="end">1</property>
    <property name="alpha">-1</property>
    <property name="kdenlive:collapsed">0</property>
   </filter>
   <filter id="filter183" in="00:03:59.000" out="00:04:00.500">
    <property name="start">1</property>
    <property name="mlt_service">brightness</property>
    <property name="kdenlive_id">fade_to_black</property>
    <property name="end">0</property>
    <property name="alpha">-1</property>
    <property name="kdenlive:collapsed">0</property>
   </filter>
  </entry>
  <entry producer="producer44" in="00:04:00.533" out="00:05:04.367">
   <property name="kdenlive:id">12</property>
  </entry>
 </playlist>
 <playlist id="playlist29"/>
 <tractor id="tractor14" in="00:00:00.000" out="00:05:21.033">
  <property name="kdenlive:trackheight">69</property>
  <property name="kdenlive:timeline_active">0</property>
  <property name="kdenlive:collapsed">28</property>
  <property name="kdenlive:track_name">Caleb-closeup</property>
  <property name="kdenlive:thumbs_format"/>
  <property name="kdenlive:audio_rec"/>
  <property name="kdenlive:locked_track">1</property>
  <track hide="both" producer="playlist28"/>
  <track producer="playlist29"/>
 </tractor>
 <producer id="producer45" in="00:00:00.000" out="00:04:49.267">
  <property name="length">8679</property>
  <property name="eof">pause</property>
  <property name="resource">content/2021-06-02_Caleb_electric+4k_dhaivat_P1000546-take3.MP4</property>
  <property name="audio_index">1</property>
  <property name="video_index">0</property>
  <property name="mute_on_pause">0</property>
  <property name="mlt_service">avformat-novalidate</property>
  <property name="seekable">1</property>
  <property name="aspect_ratio">1</property>
  <property name="kdenlive:clipname">2021-06-02_Caleb_electric+4k_dhaivat_P1000546-take3.MP4</property>
  <property name="kdenlive:folderid">65</property>
  <property name="kdenlive:id">15</property>
  <property name="kdenlive:file_size">3468421141</property>
  <property name="kdenlive:file_hash">2dea69c1a8c589a964ddc7161f50d232</property>
  <property name="kdenlive:audio_max">1</property>
  <property name="global_feed">1</property>
  <property name="kdenlive:zone_in">44</property>
  <property name="kdenlive:zone_out">368</property>
  <property name="kdenlive:clipzones">[
    {
        "in": 44,
        "name": "opening",
        "out": 368
    }
]
</property>
  <property name="kdenlive:proxy">-</property>
  <property name="kdenlive:originalurl">content/2021-06-02_Caleb_electric+4k_dhaivat_P1000546-take3.MP4</property>
  <property name="kdenlive:activeeffect">3</property>
  <property name="xml">was here</property>
  <property name="meta.media.nb_streams">2</property>
  <property name="meta.media.0.stream.type">video</property>
  <property name="meta.media.0.stream.frame_rate">29.97</property>
  <property name="meta.media.0.stream.sample_aspect_ratio">1</property>
  <property name="meta.media.0.codec.width">3328</property>
  <property name="meta.media.0.codec.height">2496</property>
  <property name="meta.media.0.codec.rotate">0</property>
  <property name="meta.media.0.codec.frame_rate">29.97</property>
  <property name="meta.media.0.codec.pix_fmt">yuvj420p</property>
  <property name="meta.media.0.codec.sample_aspect_ratio">1</property>
  <property name="meta.media.0.codec.colorspace">709</property>
  <property name="meta.media.0.codec.color_trc">1</property>
  <property name="meta.media.0.codec.name">h264</property>
  <property name="meta.media.0.codec.long_name">H.264 / AVC / MPEG-4 AVC / MPEG-4 part 10</property>
  <property name="meta.media.0.codec.bit_rate">95803943</property>
  <property name="meta.attr.0.stream.creation_time.markup">2021-06-02T15:25:14.000000Z</property>
  <property name="meta.attr.0.stream.handler_name.markup">VideoHandler</property>
  <property name="meta.media.1.stream.type">audio</property>
  <property name="meta.media.1.codec.sample_fmt">fltp</property>
  <property name="meta.media.1.codec.sample_rate">48000</property>
  <property name="meta.media.1.codec.channels">2</property>
  <property name="meta.media.1.codec.name">aac</property>
  <property name="meta.media.1.codec.long_name">AAC (Advanced Audio Coding)</property>
  <property name="meta.media.1.codec.bit_rate">125375</property>
  <property name="meta.attr.1.stream.creation_time.markup">2021-06-02T15:25:14.000000Z</property>
  <property name="meta.attr.1.stream.handler_name.markup">SoundHandler</property>
  <property name="meta.attr.major_brand.markup">isom</property>
  <property name="meta.attr.minor_version.markup">512</property>
  <property name="meta.attr.compatible_brands.markup">isomiso2avc1mp41</property>
  <property name="meta.attr.creation_time.markup">2021-06-02T15:25:14.000000Z</property>
  <property name="meta.attr.encoder.markup">Lavf58.45.100</property>
  <property name="meta.media.sample_aspect_num">1</property>
  <property name="meta.media.sample_aspect_den">1</property>
  <property name="meta.media.frame_rate_num">30000</property>
  <property name="meta.media.frame_rate_den">1001</property>
  <property name="meta.media.colorspace">709</property>
  <property name="meta.media.color_trc">1</property>
  <property name="meta.media.width">3328</property>
  <property name="meta.media.height">2496</property>
  <property name="meta.media.color_range">full</property>
  <property name="set.test_audio">1</property>
  <property name="set.test_image">1</property>
  <filter id="filter127">
   <property name="version">0.6</property>
   <property name="mlt_service">frei0r.select0r</property>
   <property name="kdenlive_id">frei0r.select0r</property>
   <property name="Color to select">0x549d55ff</property>
   <property name="Invert selection">1</property>
   <property name="Selection subspace">1</property>
   <property name="Subspace shape">0.5</property>
   <property name="Edge mode">0.9</property>
   <property name="Delta R / A / Hue">00:00:00.000=0.06</property>
   <property name="Delta G / B / Chroma">00:00:00.000=0.263</property>
   <property name="Delta B / I / I">00:00:00.000=0.291</property>
   <property name="Slope">00:00:00.000=0.158</property>
   <property name="Operation">0.5</property>
   <property name="kdenlive:collapsed">0</property>
  </filter>
  <filter id="filter128">
   <property name="version">0.4</property>
   <property name="mlt_service">frei0r.alpha0ps</property>
   <property name="kdenlive_id">frei0r.alpha0ps</property>
   <property name="Display">0</property>
   <property name="Display input alpha">0</property>
   <property name="Operation">1</property>
   <property name="Threshold">00:00:00.000=0.5</property>
   <property name="Shrink/Grow/Blur amount">00:00:00.000=0.051</property>
   <property name="Invert">0</property>
   <property name="kdenlive:collapsed">0</property>
  </filter>
  <filter id="filter129">
   <property name="mode">alpha</property>
   <property name="alpha_operation">sub</property>
   <property name="invert">0</property>
   <property name="feather">60</property>
   <property name="feather_passes">1</property>
   <property name="mlt_service">rotoscoping</property>
   <property name="kdenlive_id">rotoscoping</property>
   <property name="spline">{
    "000": [
        [
            [
                0.31594454072790285,
                1.2500770416024651
            ],
            [
                0.38908145580589254,
                1.2395993836671801
            ],
            [
                0.3818024263431542,
                1.226040061633282
            ]
        ],
        [
            [
                0.29930675909878685,
                0.9819722650231125
            ],
            [
                0.2920277296360485,
                0.9684129429892142
            ],
            [
                0.2726169844020797,
                0.961633281972265
            ]
        ],
        [
            [
                0.22478336221837086,
                0.7348228043143299
            ],
            [
                0.20537261698440207,
                0.7280431432973805
            ],
            [
                0.1949740034662045,
                0.7169491525423729
            ]
        ],
        [
            [
                0.24176776429809363,
                -0.09291217257318966
            ],
            [
                0.231369150779896,
                -0.10400616332819722
            ],
            [
                0.19497400346620453,
                -0.11263482280431433
            ]
        ],
        [
            [
                -0.08232235701906414,
                -0.18166409861325114
            ],
            [
                -0.11871750433275562,
                -0.19029275808936824
            ],
            [
                -0.11837088388214907,
                -0.13975346687211107
            ]
        ],
        [
            [
                -0.13292894280762566,
                1.201386748844376
            ],
            [
                -0.13258232235701906,
                1.2519260400616332
            ],
            [
                -0.05944540727902947,
                1.2414483821263484
            ]
        ]
    ]
}
</property>
   <property name="kdenlive:collapsed">0</property>
  </filter>
  <filter id="filter130">
   <property name="version">0.3</property>
   <property name="mlt_service">frei0r.keyspillm0pup</property>
   <property name="kdenlive_id">frei0r.keyspillm0pup</property>
   <property name="Key color">0x549d55ff</property>
   <property name="Target color">0xC87F65ff</property>
   <property name="Mask type">0</property>
   <property name="Tolerance">00:00:00.000=0.179</property>
   <property name="Slope">00:00:00.000=0.246</property>
   <property name="Hue gate">00:00:00.000=0.159</property>
   <property name="Saturation threshold">00:00:00.000=0.185</property>
   <property name="Operation 1">1</property>
   <property name="Amount 1">00:00:00.000=0.53</property>
   <property name="Operation 2">3</property>
   <property name="Amount 2">00:00:00.000=0.311</property>
   <property name="Show mask">0</property>
   <property name="Mask to Alpha">0</property>
   <property name="kdenlive:collapsed">0</property>
  </filter>
  <filter id="filter131">
   <property name="version">0.6</property>
   <property name="mlt_service">frei0r.select0r</property>
   <property name="kdenlive_id">frei0r.select0r</property>
   <property name="Color to select">0x549d55ff</property>
   <property name="Invert selection">1</property>
   <property name="Selection subspace">1</property>
   <property name="Subspace shape">0.5</property>
   <property name="Edge mode">0.9</property>
   <property name="Delta R / A / Hue">00:00:00.000=0.06</property>
   <property name="Delta G / B / Chroma">00:00:00.000=0.263</property>
   <property name="Delta B / I / I">00:00:00.000=0.291</property>
   <property name="Slope">00:00:00.000=0.158</property>
   <property name="Operation">0.5</property>
  </filter>
  <filter id="filter164">
   <property name="version">0.4</property>
   <property name="mlt_service">frei0r.alpha0ps</property>
   <property name="kdenlive_id">frei0r.alpha0ps</property>
   <property name="Display">0</property>
   <property name="Display input alpha">0</property>
   <property name="Operation">1</property>
   <property name="Threshold">00:00:00.000=0.5</property>
   <property name="Shrink/Grow/Blur amount">00:00:00.000=0.051</property>
   <property name="Invert">0</property>
  </filter>
  <filter id="filter165">
   <property name="mode">alpha</property>
   <property name="alpha_operation">sub</property>
   <property name="invert">0</property>
   <property name="feather">60</property>
   <property name="feather_passes">1</property>
   <property name="mlt_service">rotoscoping</property>
   <property name="kdenlive_id">rotoscoping</property>
   <property name="spline">{
    "000": [
        [
            [
                0.31594454072790285,
                1.2500770416024651
            ],
            [
                0.38908145580589254,
                1.2395993836671801
            ],
            [
                0.3818024263431542,
                1.226040061633282
            ]
        ],
        [
            [
                0.29930675909878685,
                0.9819722650231125
            ],
            [
                0.2920277296360485,
                0.9684129429892142
            ],
            [
                0.2726169844020797,
                0.961633281972265
            ]
        ],
        [
            [
                0.22478336221837086,
                0.7348228043143299
            ],
            [
                0.20537261698440207,
                0.7280431432973805
            ],
            [
                0.1949740034662045,
                0.7169491525423729
            ]
        ],
        [
            [
                0.24176776429809363,
                -0.09291217257318966
            ],
            [
                0.231369150779896,
                -0.10400616332819722
            ],
            [
                0.19497400346620453,
                -0.11263482280431433
            ]
        ],
        [
            [
                -0.08232235701906414,
                -0.18166409861325114
            ],
            [
                -0.11871750433275562,
                -0.19029275808936824
            ],
            [
                -0.11837088388214907,
                -0.13975346687211107
            ]
        ],
        [
            [
                -0.13292894280762566,
                1.201386748844376
            ],
            [
                -0.13258232235701906,
                1.2519260400616332
            ],
            [
                -0.05944540727902947,
                1.2414483821263484
            ]
        ]
    ]
}
</property>
  </filter>
  <filter id="filter166">
   <property name="version">0.3</property>
   <property name="mlt_service">frei0r.keyspillm0pup</property>
   <property name="kdenlive_id">frei0r.keyspillm0pup</property>
   <property name="Key color">0x549d55ff</property>
   <property name="Target color">0xC87F65ff</property>
   <property name="Mask type">0</property>
   <property name="Tolerance">00:00:00.000=0.179</property>
   <property name="Slope">00:00:00.000=0.246</property>
   <property name="Hue gate">00:00:00.000=0.159</property>
   <property name="Saturation threshold">00:00:00.000=0.185</property>
   <property name="Operation 1">1</property>
   <property name="Amount 1">00:00:00.000=0.53</property>
   <property name="Operation 2">3</property>
   <property name="Amount 2">00:00:00.000=0.311</property>
   <property name="Show mask">0</property>
   <property name="Mask to Alpha">0</property>
  </filter>
 </producer>
 <producer id="producer169" in="00:00:00.000" out="00:04:49.267">
  <property name="length">8679</property>
  <property name="eof">pause</property>
  <property name="resource">content/2021-06-02_Caleb_electric+4k_dhaivat_P1000546-take3.MP4</property>
  <property name="audio_index">1</property>
  <property name="video_index">0</property>
  <property name="mute_on_pause">0</property>
  <property name="mlt_service">avformat-novalidate</property>
  <property name="seekable">1</property>
  <property name="aspect_ratio">1</property>
  <property name="kdenlive:clipname">2021-06-02_Caleb_electric+4k_dhaivat_P1000546-take3.MP4</property>
  <property name="kdenlive:folderid">65</property>
  <property name="kdenlive:id">15</property>
  <property name="kdenlive:file_size">3468421141</property>
  <property name="kdenlive:file_hash">2dea69c1a8c589a964ddc7161f50d232</property>
  <property name="kdenlive:audio_max">1</property>
  <property name="global_feed">1</property>
  <property name="kdenlive:zone_in">44</property>
  <property name="kdenlive:zone_out">368</property>
  <property name="kdenlive:clipzones">[
    {
        "in": 44,
        "name": "opening",
        "out": 368
    }
]
</property>
  <property name="kdenlive:proxy">-</property>
  <property name="kdenlive:originalurl">content/2021-06-02_Caleb_electric+4k_dhaivat_P1000546-take3.MP4</property>
  <property name="kdenlive:original.mlt_type">mlt_producer</property>
  <property name="kdenlive:original.in">00:00:00.000</property>
  <property name="kdenlive:original.out">00:04:49.267</property>
  <property name="kdenlive:original.length">8679</property>
  <property name="kdenlive:original.eof">pause</property>
  <property name="kdenlive:original.resource">content/2021-06-02_Caleb_electric+4k_dhaivat_P1000546-take3.MP4</property>
  <property name="kdenlive:original.meta.media.nb_streams">2</property>
  <property name="kdenlive:original.meta.media.0.stream.type">video</property>
  <property name="kdenlive:original.meta.media.0.stream.frame_rate">29.97</property>
  <property name="kdenlive:original.meta.media.0.stream.sample_aspect_ratio">1</property>
  <property name="kdenlive:original.meta.media.0.codec.width">3328</property>
  <property name="kdenlive:original.meta.media.0.codec.height">2496</property>
  <property name="kdenlive:original.meta.media.0.codec.rotate">0</property>
  <property name="kdenlive:original.meta.media.0.codec.frame_rate">29.97</property>
  <property name="kdenlive:original.meta.media.0.codec.pix_fmt">yuvj420p</property>
  <property name="kdenlive:original.meta.media.0.codec.sample_aspect_ratio">1</property>
  <property name="kdenlive:original.meta.media.0.codec.colorspace">709</property>
  <property name="kdenlive:original.meta.media.0.codec.color_trc">1</property>
  <property name="kdenlive:original.meta.media.0.codec.name">h264</property>
  <property name="kdenlive:original.meta.media.0.codec.long_name">H.264 / AVC / MPEG-4 AVC / MPEG-4 part 10</property>
  <property name="kdenlive:original.meta.media.0.codec.bit_rate">95803943</property>
  <property name="kdenlive:original.meta.attr.0.stream.creation_time.markup">2021-06-02T15:25:14.000000Z</property>
  <property name="kdenlive:original.meta.attr.0.stream.handler_name.markup">VideoHandler</property>
  <property name="kdenlive:original.meta.attr.0.stream.vendor_id.markup">[0][0][0][0]</property>
  <property name="kdenlive:original.meta.media.1.stream.type">audio</property>
  <property name="kdenlive:original.meta.media.1.codec.sample_fmt">fltp</property>
  <property name="kdenlive:original.meta.media.1.codec.sample_rate">48000</property>
  <property name="kdenlive:original.meta.media.1.codec.channels">2</property>
  <property name="kdenlive:original.meta.media.1.codec.name">aac</property>
  <property name="kdenlive:original.meta.media.1.codec.long_name">AAC (Advanced Audio Coding)</property>
  <property name="kdenlive:original.meta.media.1.codec.bit_rate">125375</property>
  <property name="kdenlive:original.meta.attr.1.stream.creation_time.markup">2021-06-02T15:25:14.000000Z</property>
  <property name="kdenlive:original.meta.attr.1.stream.handler_name.markup">SoundHandler</property>
  <property name="kdenlive:original.meta.attr.1.stream.vendor_id.markup">[0][0][0][0]</property>
  <property name="kdenlive:original.meta.attr.major_brand.markup">isom</property>
  <property name="kdenlive:original.meta.attr.minor_version.markup">512</property>
  <property name="kdenlive:original.meta.attr.compatible_brands.markup">isomiso2avc1mp41</property>
  <property name="kdenlive:original.meta.attr.creation_time.markup">2021-06-02T15:25:14.000000Z</property>
  <property name="kdenlive:original.meta.attr.encoder.markup">Lavf58.45.100</property>
  <property name="kdenlive:original.seekable">1</property>
  <property name="kdenlive:original.width">3328</property>
  <property name="kdenlive:original.height">2496</property>
  <property name="kdenlive:original.meta.media.sample_aspect_num">1</property>
  <property name="kdenlive:original.meta.media.sample_aspect_den">1</property>
  <property name="kdenlive:original.aspect_ratio">1</property>
  <property name="kdenlive:original.audio_index">1</property>
  <property name="kdenlive:original.video_index">0</property>
  <property name="kdenlive:original.mute_on_pause">0</property>
  <property name="kdenlive:original.mlt_service">avformat-novalidate</property>
  <property name="kdenlive:original.kdenlive:folderid">65</property>
  <property name="kdenlive:original.meta.media.frame_rate_num">30000</property>
  <property name="kdenlive:original.meta.media.frame_rate_den">1001</property>
  <property name="kdenlive:original.meta.media.colorspace">709</property>
  <property name="kdenlive:original.meta.media.color_trc">1</property>
  <property name="kdenlive:original.meta.media.width">3328</property>
  <property name="kdenlive:original.meta.media.height">2496</property>
  <property name="kdenlive:original.meta.media.color_range">full</property>
  <property name="kdenlive:original.kdenlive:id">70</property>
  <property name="kdenlive:original.kdenlive:file_size">3468421141</property>
  <property name="kdenlive:original.kdenlive:file_hash">2dea69c1a8c589a964ddc7161f50d232</property>
  <property name="kdenlive:original.kdenlive:audio_max">1</property>
  <property name="kdenlive:original.meta.media.top_field_first">0</property>
  <property name="kdenlive:original.meta.media.progressive">1</property>
  <property name="kdenlive:original.root">/</property>
  <property name="kdenlive:original.global_feed">1</property>
  <property name="kdenlive:original.kdenlive:zone_in">44</property>
  <property name="kdenlive:original.kdenlive:zone_out">368</property>
  <property name="kdenlive:original.kdenlive:clipzones">[
    {
        "in": 44,
        "name": "opening",
        "out": 368
    }
]
</property>
  <property name="kdenlive:original.backup">1</property>
  <property name="kdenlive:activeeffect">3</property>
  <property name="xml">was here</property>
  <property name="meta.media.nb_streams">2</property>
  <property name="meta.media.0.stream.type">video</property>
  <property name="meta.media.0.stream.frame_rate">29.97</property>
  <property name="meta.media.0.stream.sample_aspect_ratio">1</property>
  <property name="meta.media.0.codec.width">640</property>
  <property name="meta.media.0.codec.height">480</property>
  <property name="meta.media.0.codec.rotate">0</property>
  <property name="meta.media.0.codec.frame_rate">1000</property>
  <property name="meta.media.0.codec.pix_fmt">yuvj420p</property>
  <property name="meta.media.0.codec.sample_aspect_ratio">1</property>
  <property name="meta.media.0.codec.colorspace">601</property>
  <property name="meta.media.0.codec.color_trc">1</property>
  <property name="meta.media.0.codec.name">mjpeg</property>
  <property name="meta.media.0.codec.long_name">MJPEG (Motion JPEG)</property>
  <property name="meta.media.0.codec.bit_rate">0</property>
  <property name="meta.attr.0.stream.HANDLER_NAME.markup">VideoHandler</property>
  <property name="meta.attr.0.stream.VENDOR_ID.markup">[0][0][0][0]</property>
  <property name="meta.attr.0.stream.ENCODER.markup">Lavc58.134.100 mjpeg</property>
  <property name="meta.attr.0.stream.DURATION.markup">00:04:49.355000000</property>
  <property name="meta.media.1.stream.type">audio</property>
  <property name="meta.media.1.codec.sample_fmt">s16</property>
  <property name="meta.media.1.codec.sample_rate">48000</property>
  <property name="meta.media.1.codec.channels">2</property>
  <property name="meta.media.1.codec.name">pcm_s16le</property>
  <property name="meta.media.1.codec.long_name">PCM signed 16-bit little-endian</property>
  <property name="meta.media.1.codec.bit_rate">1536000</property>
  <property name="meta.attr.1.stream.HANDLER_NAME.markup">SoundHandler</property>
  <property name="meta.attr.1.stream.VENDOR_ID.markup">[0][0][0][0]</property>
  <property name="meta.attr.1.stream.ENCODER.markup">Lavc58.134.100 pcm_s16le</property>
  <property name="meta.attr.1.stream.DURATION.markup">00:04:49.301000000</property>
  <property name="meta.attr.COMPATIBLE_BRANDS.markup">isomiso2avc1mp41</property>
  <property name="meta.attr.MAJOR_BRAND.markup">isom</property>
  <property name="meta.attr.MINOR_VERSION.markup">512</property>
  <property name="meta.attr.ENCODER.markup">Lavf58.76.100</property>
  <property name="meta.media.sample_aspect_num">1</property>
  <property name="meta.media.sample_aspect_den">1</property>
  <property name="meta.media.frame_rate_num">30000</property>
  <property name="meta.media.frame_rate_den">1001</property>
  <property name="meta.media.colorspace">601</property>
  <property name="meta.media.color_trc">1</property>
  <property name="meta.media.width">640</property>
  <property name="meta.media.height">480</property>
  <property name="meta.media.color_range">full</property>
  <property name="meta.media.top_field_first">0</property>
  <property name="meta.media.progressive">1</property>
  <property name="set.test_audio">1</property>
  <property name="set.test_image">0</property>
 </producer>
 <producer id="producer168" in="00:00:00.000" out="00:04:49.267">
  <property name="length">8679</property>
  <property name="eof">pause</property>
  <property name="resource">content/2021-06-02_Caleb_electric+4k_dhaivat_P1000546-take3.MP4</property>
  <property name="audio_index">1</property>
  <property name="video_index">0</property>
  <property name="mute_on_pause">0</property>
  <property name="mlt_service">avformat-novalidate</property>
  <property name="seekable">1</property>
  <property name="aspect_ratio">1</property>
  <property name="kdenlive:clipname">2021-06-02_Caleb_electric+4k_dhaivat_P1000546-take3.MP4</property>
  <property name="kdenlive:folderid">65</property>
  <property name="kdenlive:id">15</property>
  <property name="kdenlive:file_size">3468421141</property>
  <property name="kdenlive:file_hash">2dea69c1a8c589a964ddc7161f50d232</property>
  <property name="kdenlive:audio_max">1</property>
  <property name="global_feed">1</property>
  <property name="kdenlive:zone_in">44</property>
  <property name="kdenlive:zone_out">368</property>
  <property name="kdenlive:clipzones">[
    {
        "in": 44,
        "name": "opening",
        "out": 368
    }
]
</property>
  <property name="kdenlive:proxy">-</property>
  <property name="kdenlive:originalurl">content/2021-06-02_Caleb_electric+4k_dhaivat_P1000546-take3.MP4</property>
  <property name="kdenlive:original.mlt_type">mlt_producer</property>
  <property name="kdenlive:original.in">00:00:00.000</property>
  <property name="kdenlive:original.out">00:04:49.267</property>
  <property name="kdenlive:original.length">8679</property>
  <property name="kdenlive:original.eof">pause</property>
  <property name="kdenlive:original.resource">content/2021-06-02_Caleb_electric+4k_dhaivat_P1000546-take3.MP4</property>
  <property name="kdenlive:original.meta.media.nb_streams">2</property>
  <property name="kdenlive:original.meta.media.0.stream.type">video</property>
  <property name="kdenlive:original.meta.media.0.stream.frame_rate">29.97</property>
  <property name="kdenlive:original.meta.media.0.stream.sample_aspect_ratio">1</property>
  <property name="kdenlive:original.meta.media.0.codec.width">3328</property>
  <property name="kdenlive:original.meta.media.0.codec.height">2496</property>
  <property name="kdenlive:original.meta.media.0.codec.rotate">0</property>
  <property name="kdenlive:original.meta.media.0.codec.frame_rate">29.97</property>
  <property name="kdenlive:original.meta.media.0.codec.pix_fmt">yuvj420p</property>
  <property name="kdenlive:original.meta.media.0.codec.sample_aspect_ratio">1</property>
  <property name="kdenlive:original.meta.media.0.codec.colorspace">709</property>
  <property name="kdenlive:original.meta.media.0.codec.color_trc">1</property>
  <property name="kdenlive:original.meta.media.0.codec.name">h264</property>
  <property name="kdenlive:original.meta.media.0.codec.long_name">H.264 / AVC / MPEG-4 AVC / MPEG-4 part 10</property>
  <property name="kdenlive:original.meta.media.0.codec.bit_rate">95803943</property>
  <property name="kdenlive:original.meta.attr.0.stream.creation_time.markup">2021-06-02T15:25:14.000000Z</property>
  <property name="kdenlive:original.meta.attr.0.stream.handler_name.markup">VideoHandler</property>
  <property name="kdenlive:original.meta.attr.0.stream.vendor_id.markup">[0][0][0][0]</property>
  <property name="kdenlive:original.meta.media.1.stream.type">audio</property>
  <property name="kdenlive:original.meta.media.1.codec.sample_fmt">fltp</property>
  <property name="kdenlive:original.meta.media.1.codec.sample_rate">48000</property>
  <property name="kdenlive:original.meta.media.1.codec.channels">2</property>
  <property name="kdenlive:original.meta.media.1.codec.name">aac</property>
  <property name="kdenlive:original.meta.media.1.codec.long_name">AAC (Advanced Audio Coding)</property>
  <property name="kdenlive:original.meta.media.1.codec.bit_rate">125375</property>
  <property name="kdenlive:original.meta.attr.1.stream.creation_time.markup">2021-06-02T15:25:14.000000Z</property>
  <property name="kdenlive:original.meta.attr.1.stream.handler_name.markup">SoundHandler</property>
  <property name="kdenlive:original.meta.attr.1.stream.vendor_id.markup">[0][0][0][0]</property>
  <property name="kdenlive:original.meta.attr.major_brand.markup">isom</property>
  <property name="kdenlive:original.meta.attr.minor_version.markup">512</property>
  <property name="kdenlive:original.meta.attr.compatible_brands.markup">isomiso2avc1mp41</property>
  <property name="kdenlive:original.meta.attr.creation_time.markup">2021-06-02T15:25:14.000000Z</property>
  <property name="kdenlive:original.meta.attr.encoder.markup">Lavf58.45.100</property>
  <property name="kdenlive:original.seekable">1</property>
  <property name="kdenlive:original.width">3328</property>
  <property name="kdenlive:original.height">2496</property>
  <property name="kdenlive:original.meta.media.sample_aspect_num">1</property>
  <property name="kdenlive:original.meta.media.sample_aspect_den">1</property>
  <property name="kdenlive:original.aspect_ratio">1</property>
  <property name="kdenlive:original.audio_index">1</property>
  <property name="kdenlive:original.video_index">0</property>
  <property name="kdenlive:original.mute_on_pause">0</property>
  <property name="kdenlive:original.mlt_service">avformat-novalidate</property>
  <property name="kdenlive:original.kdenlive:folderid">65</property>
  <property name="kdenlive:original.meta.media.frame_rate_num">30000</property>
  <property name="kdenlive:original.meta.media.frame_rate_den">1001</property>
  <property name="kdenlive:original.meta.media.colorspace">709</property>
  <property name="kdenlive:original.meta.media.color_trc">1</property>
  <property name="kdenlive:original.meta.media.width">3328</property>
  <property name="kdenlive:original.meta.media.height">2496</property>
  <property name="kdenlive:original.meta.media.color_range">full</property>
  <property name="kdenlive:original.kdenlive:id">70</property>
  <property name="kdenlive:original.kdenlive:file_size">3468421141</property>
  <property name="kdenlive:original.kdenlive:file_hash">2dea69c1a8c589a964ddc7161f50d232</property>
  <property name="kdenlive:original.kdenlive:audio_max">1</property>
  <property name="kdenlive:original.meta.media.top_field_first">0</property>
  <property name="kdenlive:original.meta.media.progressive">1</property>
  <property name="kdenlive:original.root">/</property>
  <property name="kdenlive:original.global_feed">1</property>
  <property name="kdenlive:original.kdenlive:zone_in">44</property>
  <property name="kdenlive:original.kdenlive:zone_out">368</property>
  <property name="kdenlive:original.kdenlive:clipzones">[
    {
        "in": 44,
        "name": "opening",
        "out": 368
    }
]
</property>
  <property name="kdenlive:original.backup">1</property>
  <property name="kdenlive:activeeffect">3</property>
  <property name="xml">was here</property>
  <property name="meta.media.nb_streams">2</property>
  <property name="meta.media.0.stream.type">video</property>
  <property name="meta.media.0.stream.frame_rate">29.97</property>
  <property name="meta.media.0.stream.sample_aspect_ratio">1</property>
  <property name="meta.media.0.codec.width">640</property>
  <property name="meta.media.0.codec.height">480</property>
  <property name="meta.media.0.codec.rotate">0</property>
  <property name="meta.media.0.codec.frame_rate">1000</property>
  <property name="meta.media.0.codec.pix_fmt">yuvj420p</property>
  <property name="meta.media.0.codec.sample_aspect_ratio">1</property>
  <property name="meta.media.0.codec.colorspace">601</property>
  <property name="meta.media.0.codec.color_trc">1</property>
  <property name="meta.media.0.codec.name">mjpeg</property>
  <property name="meta.media.0.codec.long_name">MJPEG (Motion JPEG)</property>
  <property name="meta.media.0.codec.bit_rate">0</property>
  <property name="meta.attr.0.stream.HANDLER_NAME.markup">VideoHandler</property>
  <property name="meta.attr.0.stream.VENDOR_ID.markup">[0][0][0][0]</property>
  <property name="meta.attr.0.stream.ENCODER.markup">Lavc58.134.100 mjpeg</property>
  <property name="meta.attr.0.stream.DURATION.markup">00:04:49.355000000</property>
  <property name="meta.media.1.stream.type">audio</property>
  <property name="meta.media.1.codec.sample_fmt">s16</property>
  <property name="meta.media.1.codec.sample_rate">48000</property>
  <property name="meta.media.1.codec.channels">2</property>
  <property name="meta.media.1.codec.name">pcm_s16le</property>
  <property name="meta.media.1.codec.long_name">PCM signed 16-bit little-endian</property>
  <property name="meta.media.1.codec.bit_rate">1536000</property>
  <property name="meta.attr.1.stream.HANDLER_NAME.markup">SoundHandler</property>
  <property name="meta.attr.1.stream.VENDOR_ID.markup">[0][0][0][0]</property>
  <property name="meta.attr.1.stream.ENCODER.markup">Lavc58.134.100 pcm_s16le</property>
  <property name="meta.attr.1.stream.DURATION.markup">00:04:49.301000000</property>
  <property name="meta.attr.COMPATIBLE_BRANDS.markup">isomiso2avc1mp41</property>
  <property name="meta.attr.MAJOR_BRAND.markup">isom</property>
  <property name="meta.attr.MINOR_VERSION.markup">512</property>
  <property name="meta.attr.ENCODER.markup">Lavf58.76.100</property>
  <property name="meta.media.sample_aspect_num">1</property>
  <property name="meta.media.sample_aspect_den">1</property>
  <property name="meta.media.frame_rate_num">30000</property>
  <property name="meta.media.frame_rate_den">1001</property>
  <property name="meta.media.colorspace">601</property>
  <property name="meta.media.color_trc">1</property>
  <property name="meta.media.width">640</property>
  <property name="meta.media.height">480</property>
  <property name="meta.media.color_range">full</property>
  <property name="meta.media.top_field_first">0</property>
  <property name="meta.media.progressive">1</property>
  <property name="set.test_audio">1</property>
  <property name="set.test_image">0</property>
 </producer>
 <producer id="producer170" in="00:00:00.000" out="00:04:49.267">
  <property name="length">8679</property>
  <property name="eof">pause</property>
  <property name="resource">content/2021-06-02_Caleb_electric+4k_dhaivat_P1000546-take3.MP4</property>
  <property name="audio_index">1</property>
  <property name="video_index">0</property>
  <property name="mute_on_pause">0</property>
  <property name="mlt_service">avformat-novalidate</property>
  <property name="seekable">1</property>
  <property name="aspect_ratio">1</property>
  <property name="kdenlive:clipname">2021-06-02_Caleb_electric+4k_dhaivat_P1000546-take3.MP4</property>
  <property name="kdenlive:folderid">65</property>
  <property name="kdenlive:id">15</property>
  <property name="kdenlive:file_size">3468421141</property>
  <property name="kdenlive:file_hash">2dea69c1a8c589a964ddc7161f50d232</property>
  <property name="kdenlive:audio_max">1</property>
  <property name="global_feed">1</property>
  <property name="kdenlive:zone_in">44</property>
  <property name="kdenlive:zone_out">368</property>
  <property name="kdenlive:clipzones">[
    {
        "in": 44,
        "name": "opening",
        "out": 368
    }
]
</property>
  <property name="kdenlive:proxy">-</property>
  <property name="kdenlive:originalurl">content/2021-06-02_Caleb_electric+4k_dhaivat_P1000546-take3.MP4</property>
  <property name="kdenlive:original.mlt_type">mlt_producer</property>
  <property name="kdenlive:original.in">00:00:00.000</property>
  <property name="kdenlive:original.out">00:04:49.267</property>
  <property name="kdenlive:original.length">8679</property>
  <property name="kdenlive:original.eof">pause</property>
  <property name="kdenlive:original.resource">content/2021-06-02_Caleb_electric+4k_dhaivat_P1000546-take3.MP4</property>
  <property name="kdenlive:original.meta.media.nb_streams">2</property>
  <property name="kdenlive:original.meta.media.0.stream.type">video</property>
  <property name="kdenlive:original.meta.media.0.stream.frame_rate">29.97</property>
  <property name="kdenlive:original.meta.media.0.stream.sample_aspect_ratio">1</property>
  <property name="kdenlive:original.meta.media.0.codec.width">3328</property>
  <property name="kdenlive:original.meta.media.0.codec.height">2496</property>
  <property name="kdenlive:original.meta.media.0.codec.rotate">0</property>
  <property name="kdenlive:original.meta.media.0.codec.frame_rate">29.97</property>
  <property name="kdenlive:original.meta.media.0.codec.pix_fmt">yuvj420p</property>
  <property name="kdenlive:original.meta.media.0.codec.sample_aspect_ratio">1</property>
  <property name="kdenlive:original.meta.media.0.codec.colorspace">709</property>
  <property name="kdenlive:original.meta.media.0.codec.color_trc">1</property>
  <property name="kdenlive:original.meta.media.0.codec.name">h264</property>
  <property name="kdenlive:original.meta.media.0.codec.long_name">H.264 / AVC / MPEG-4 AVC / MPEG-4 part 10</property>
  <property name="kdenlive:original.meta.media.0.codec.bit_rate">95803943</property>
  <property name="kdenlive:original.meta.attr.0.stream.creation_time.markup">2021-06-02T15:25:14.000000Z</property>
  <property name="kdenlive:original.meta.attr.0.stream.handler_name.markup">VideoHandler</property>
  <property name="kdenlive:original.meta.attr.0.stream.vendor_id.markup">[0][0][0][0]</property>
  <property name="kdenlive:original.meta.media.1.stream.type">audio</property>
  <property name="kdenlive:original.meta.media.1.codec.sample_fmt">fltp</property>
  <property name="kdenlive:original.meta.media.1.codec.sample_rate">48000</property>
  <property name="kdenlive:original.meta.media.1.codec.channels">2</property>
  <property name="kdenlive:original.meta.media.1.codec.name">aac</property>
  <property name="kdenlive:original.meta.media.1.codec.long_name">AAC (Advanced Audio Coding)</property>
  <property name="kdenlive:original.meta.media.1.codec.bit_rate">125375</property>
  <property name="kdenlive:original.meta.attr.1.stream.creation_time.markup">2021-06-02T15:25:14.000000Z</property>
  <property name="kdenlive:original.meta.attr.1.stream.handler_name.markup">SoundHandler</property>
  <property name="kdenlive:original.meta.attr.1.stream.vendor_id.markup">[0][0][0][0]</property>
  <property name="kdenlive:original.meta.attr.major_brand.markup">isom</property>
  <property name="kdenlive:original.meta.attr.minor_version.markup">512</property>
  <property name="kdenlive:original.meta.attr.compatible_brands.markup">isomiso2avc1mp41</property>
  <property name="kdenlive:original.meta.attr.creation_time.markup">2021-06-02T15:25:14.000000Z</property>
  <property name="kdenlive:original.meta.attr.encoder.markup">Lavf58.45.100</property>
  <property name="kdenlive:original.seekable">1</property>
  <property name="kdenlive:original.width">3328</property>
  <property name="kdenlive:original.height">2496</property>
  <property name="kdenlive:original.meta.media.sample_aspect_num">1</property>
  <property name="kdenlive:original.meta.media.sample_aspect_den">1</property>
  <property name="kdenlive:original.aspect_ratio">1</property>
  <property name="kdenlive:original.audio_index">1</property>
  <property name="kdenlive:original.video_index">0</property>
  <property name="kdenlive:original.mute_on_pause">0</property>
  <property name="kdenlive:original.mlt_service">avformat-novalidate</property>
  <property name="kdenlive:original.kdenlive:folderid">65</property>
  <property name="kdenlive:original.meta.media.frame_rate_num">30000</property>
  <property name="kdenlive:original.meta.media.frame_rate_den">1001</property>
  <property name="kdenlive:original.meta.media.colorspace">709</property>
  <property name="kdenlive:original.meta.media.color_trc">1</property>
  <property name="kdenlive:original.meta.media.width">3328</property>
  <property name="kdenlive:original.meta.media.height">2496</property>
  <property name="kdenlive:original.meta.media.color_range">full</property>
  <property name="kdenlive:original.kdenlive:id">70</property>
  <property name="kdenlive:original.kdenlive:file_size">3468421141</property>
  <property name="kdenlive:original.kdenlive:file_hash">2dea69c1a8c589a964ddc7161f50d232</property>
  <property name="kdenlive:original.kdenlive:audio_max">1</property>
  <property name="kdenlive:original.meta.media.top_field_first">0</property>
  <property name="kdenlive:original.meta.media.progressive">1</property>
  <property name="kdenlive:original.root">/</property>
  <property name="kdenlive:original.global_feed">1</property>
  <property name="kdenlive:original.kdenlive:zone_in">44</property>
  <property name="kdenlive:original.kdenlive:zone_out">368</property>
  <property name="kdenlive:original.kdenlive:clipzones">[
    {
        "in": 44,
        "name": "opening",
        "out": 368
    }
]
</property>
  <property name="kdenlive:original.backup">1</property>
  <property name="kdenlive:activeeffect">3</property>
  <property name="xml">was here</property>
  <property name="meta.media.nb_streams">2</property>
  <property name="meta.media.0.stream.type">video</property>
  <property name="meta.media.0.stream.frame_rate">29.97</property>
  <property name="meta.media.0.stream.sample_aspect_ratio">1</property>
  <property name="meta.media.0.codec.width">640</property>
  <property name="meta.media.0.codec.height">480</property>
  <property name="meta.media.0.codec.rotate">0</property>
  <property name="meta.media.0.codec.frame_rate">1000</property>
  <property name="meta.media.0.codec.pix_fmt">yuvj420p</property>
  <property name="meta.media.0.codec.sample_aspect_ratio">1</property>
  <property name="meta.media.0.codec.colorspace">601</property>
  <property name="meta.media.0.codec.color_trc">1</property>
  <property name="meta.media.0.codec.name">mjpeg</property>
  <property name="meta.media.0.codec.long_name">MJPEG (Motion JPEG)</property>
  <property name="meta.media.0.codec.bit_rate">0</property>
  <property name="meta.attr.0.stream.HANDLER_NAME.markup">VideoHandler</property>
  <property name="meta.attr.0.stream.VENDOR_ID.markup">[0][0][0][0]</property>
  <property name="meta.attr.0.stream.ENCODER.markup">Lavc58.134.100 mjpeg</property>
  <property name="meta.attr.0.stream.DURATION.markup">00:04:49.355000000</property>
  <property name="meta.media.1.stream.type">audio</property>
  <property name="meta.media.1.codec.sample_fmt">s16</property>
  <property name="meta.media.1.codec.sample_rate">48000</property>
  <property name="meta.media.1.codec.channels">2</property>
  <property name="meta.media.1.codec.name">pcm_s16le</property>
  <property name="meta.media.1.codec.long_name">PCM signed 16-bit little-endian</property>
  <property name="meta.media.1.codec.bit_rate">1536000</property>
  <property name="meta.attr.1.stream.HANDLER_NAME.markup">SoundHandler</property>
  <property name="meta.attr.1.stream.VENDOR_ID.markup">[0][0][0][0]</property>
  <property name="meta.attr.1.stream.ENCODER.markup">Lavc58.134.100 pcm_s16le</property>
  <property name="meta.attr.1.stream.DURATION.markup">00:04:49.301000000</property>
  <property name="meta.attr.COMPATIBLE_BRANDS.markup">isomiso2avc1mp41</property>
  <property name="meta.attr.MAJOR_BRAND.markup">isom</property>
  <property name="meta.attr.MINOR_VERSION.markup">512</property>
  <property name="meta.attr.ENCODER.markup">Lavf58.76.100</property>
  <property name="meta.media.sample_aspect_num">1</property>
  <property name="meta.media.sample_aspect_den">1</property>
  <property name="meta.media.frame_rate_num">30000</property>
  <property name="meta.media.frame_rate_den">1001</property>
  <property name="meta.media.colorspace">601</property>
  <property name="meta.media.color_trc">1</property>
  <property name="meta.media.width">640</property>
  <property name="meta.media.height">480</property>
  <property name="meta.media.color_range">full</property>
  <property name="meta.media.top_field_first">0</property>
  <property name="meta.media.progressive">1</property>
  <property name="set.test_audio">1</property>
  <property name="set.test_image">0</property>
 </producer>
 <producer id="producer171" in="00:00:00.000" out="00:04:49.267">
  <property name="length">8679</property>
  <property name="eof">pause</property>
  <property name="resource">content/2021-06-02_Caleb_electric+4k_dhaivat_P1000546-take3.MP4</property>
  <property name="audio_index">1</property>
  <property name="video_index">0</property>
  <property name="mute_on_pause">0</property>
  <property name="mlt_service">avformat-novalidate</property>
  <property name="seekable">1</property>
  <property name="aspect_ratio">1</property>
  <property name="kdenlive:clipname">2021-06-02_Caleb_electric+4k_dhaivat_P1000546-take3.MP4</property>
  <property name="kdenlive:folderid">65</property>
  <property name="kdenlive:id">15</property>
  <property name="kdenlive:file_size">3468421141</property>
  <property name="kdenlive:file_hash">2dea69c1a8c589a964ddc7161f50d232</property>
  <property name="kdenlive:audio_max">1</property>
  <property name="global_feed">1</property>
  <property name="kdenlive:zone_in">44</property>
  <property name="kdenlive:zone_out">368</property>
  <property name="kdenlive:clipzones">[
    {
        "in": 44,
        "name": "opening",
        "out": 368
    }
]
</property>
  <property name="kdenlive:proxy">-</property>
  <property name="kdenlive:originalurl">content/2021-06-02_Caleb_electric+4k_dhaivat_P1000546-take3.MP4</property>
  <property name="kdenlive:original.mlt_type">mlt_producer</property>
  <property name="kdenlive:original.in">00:00:00.000</property>
  <property name="kdenlive:original.out">00:04:49.267</property>
  <property name="kdenlive:original.length">8679</property>
  <property name="kdenlive:original.eof">pause</property>
  <property name="kdenlive:original.resource">content/2021-06-02_Caleb_electric+4k_dhaivat_P1000546-take3.MP4</property>
  <property name="kdenlive:original.meta.media.nb_streams">2</property>
  <property name="kdenlive:original.meta.media.0.stream.type">video</property>
  <property name="kdenlive:original.meta.media.0.stream.frame_rate">29.97</property>
  <property name="kdenlive:original.meta.media.0.stream.sample_aspect_ratio">1</property>
  <property name="kdenlive:original.meta.media.0.codec.width">3328</property>
  <property name="kdenlive:original.meta.media.0.codec.height">2496</property>
  <property name="kdenlive:original.meta.media.0.codec.rotate">0</property>
  <property name="kdenlive:original.meta.media.0.codec.frame_rate">29.97</property>
  <property name="kdenlive:original.meta.media.0.codec.pix_fmt">yuvj420p</property>
  <property name="kdenlive:original.meta.media.0.codec.sample_aspect_ratio">1</property>
  <property name="kdenlive:original.meta.media.0.codec.colorspace">709</property>
  <property name="kdenlive:original.meta.media.0.codec.color_trc">1</property>
  <property name="kdenlive:original.meta.media.0.codec.name">h264</property>
  <property name="kdenlive:original.meta.media.0.codec.long_name">H.264 / AVC / MPEG-4 AVC / MPEG-4 part 10</property>
  <property name="kdenlive:original.meta.media.0.codec.bit_rate">95803943</property>
  <property name="kdenlive:original.meta.attr.0.stream.creation_time.markup">2021-06-02T15:25:14.000000Z</property>
  <property name="kdenlive:original.meta.attr.0.stream.handler_name.markup">VideoHandler</property>
  <property name="kdenlive:original.meta.attr.0.stream.vendor_id.markup">[0][0][0][0]</property>
  <property name="kdenlive:original.meta.media.1.stream.type">audio</property>
  <property name="kdenlive:original.meta.media.1.codec.sample_fmt">fltp</property>
  <property name="kdenlive:original.meta.media.1.codec.sample_rate">48000</property>
  <property name="kdenlive:original.meta.media.1.codec.channels">2</property>
  <property name="kdenlive:original.meta.media.1.codec.name">aac</property>
  <property name="kdenlive:original.meta.media.1.codec.long_name">AAC (Advanced Audio Coding)</property>
  <property name="kdenlive:original.meta.media.1.codec.bit_rate">125375</property>
  <property name="kdenlive:original.meta.attr.1.stream.creation_time.markup">2021-06-02T15:25:14.000000Z</property>
  <property name="kdenlive:original.meta.attr.1.stream.handler_name.markup">SoundHandler</property>
  <property name="kdenlive:original.meta.attr.1.stream.vendor_id.markup">[0][0][0][0]</property>
  <property name="kdenlive:original.meta.attr.major_brand.markup">isom</property>
  <property name="kdenlive:original.meta.attr.minor_version.markup">512</property>
  <property name="kdenlive:original.meta.attr.compatible_brands.markup">isomiso2avc1mp41</property>
  <property name="kdenlive:original.meta.attr.creation_time.markup">2021-06-02T15:25:14.000000Z</property>
  <property name="kdenlive:original.meta.attr.encoder.markup">Lavf58.45.100</property>
  <property name="kdenlive:original.seekable">1</property>
  <property name="kdenlive:original.width">3328</property>
  <property name="kdenlive:original.height">2496</property>
  <property name="kdenlive:original.meta.media.sample_aspect_num">1</property>
  <property name="kdenlive:original.meta.media.sample_aspect_den">1</property>
  <property name="kdenlive:original.aspect_ratio">1</property>
  <property name="kdenlive:original.audio_index">1</property>
  <property name="kdenlive:original.video_index">0</property>
  <property name="kdenlive:original.mute_on_pause">0</property>
  <property name="kdenlive:original.mlt_service">avformat-novalidate</property>
  <property name="kdenlive:original.kdenlive:folderid">65</property>
  <property name="kdenlive:original.meta.media.frame_rate_num">30000</property>
  <property name="kdenlive:original.meta.media.frame_rate_den">1001</property>
  <property name="kdenlive:original.meta.media.colorspace">709</property>
  <property name="kdenlive:original.meta.media.color_trc">1</property>
  <property name="kdenlive:original.meta.media.width">3328</property>
  <property name="kdenlive:original.meta.media.height">2496</property>
  <property name="kdenlive:original.meta.media.color_range">full</property>
  <property name="kdenlive:original.kdenlive:id">70</property>
  <property name="kdenlive:original.kdenlive:file_size">3468421141</property>
  <property name="kdenlive:original.kdenlive:file_hash">2dea69c1a8c589a964ddc7161f50d232</property>
  <property name="kdenlive:original.kdenlive:audio_max">1</property>
  <property name="kdenlive:original.meta.media.top_field_first">0</property>
  <property name="kdenlive:original.meta.media.progressive">1</property>
  <property name="kdenlive:original.root">/</property>
  <property name="kdenlive:original.global_feed">1</property>
  <property name="kdenlive:original.kdenlive:zone_in">44</property>
  <property name="kdenlive:original.kdenlive:zone_out">368</property>
  <property name="kdenlive:original.kdenlive:clipzones">[
    {
        "in": 44,
        "name": "opening",
        "out": 368
    }
]
</property>
  <property name="kdenlive:original.backup">1</property>
  <property name="kdenlive:activeeffect">3</property>
  <property name="xml">was here</property>
  <property name="meta.media.nb_streams">2</property>
  <property name="meta.media.0.stream.type">video</property>
  <property name="meta.media.0.stream.frame_rate">29.97</property>
  <property name="meta.media.0.stream.sample_aspect_ratio">1</property>
  <property name="meta.media.0.codec.width">640</property>
  <property name="meta.media.0.codec.height">480</property>
  <property name="meta.media.0.codec.rotate">0</property>
  <property name="meta.media.0.codec.frame_rate">1000</property>
  <property name="meta.media.0.codec.pix_fmt">yuvj420p</property>
  <property name="meta.media.0.codec.sample_aspect_ratio">1</property>
  <property name="meta.media.0.codec.colorspace">601</property>
  <property name="meta.media.0.codec.color_trc">1</property>
  <property name="meta.media.0.codec.name">mjpeg</property>
  <property name="meta.media.0.codec.long_name">MJPEG (Motion JPEG)</property>
  <property name="meta.media.0.codec.bit_rate">0</property>
  <property name="meta.attr.0.stream.HANDLER_NAME.markup">VideoHandler</property>
  <property name="meta.attr.0.stream.VENDOR_ID.markup">[0][0][0][0]</property>
  <property name="meta.attr.0.stream.ENCODER.markup">Lavc58.134.100 mjpeg</property>
  <property name="meta.attr.0.stream.DURATION.markup">00:04:49.355000000</property>
  <property name="meta.media.1.stream.type">audio</property>
  <property name="meta.media.1.codec.sample_fmt">s16</property>
  <property name="meta.media.1.codec.sample_rate">48000</property>
  <property name="meta.media.1.codec.channels">2</property>
  <property name="meta.media.1.codec.name">pcm_s16le</property>
  <property name="meta.media.1.codec.long_name">PCM signed 16-bit little-endian</property>
  <property name="meta.media.1.codec.bit_rate">1536000</property>
  <property name="meta.attr.1.stream.HANDLER_NAME.markup">SoundHandler</property>
  <property name="meta.attr.1.stream.VENDOR_ID.markup">[0][0][0][0]</property>
  <property name="meta.attr.1.stream.ENCODER.markup">Lavc58.134.100 pcm_s16le</property>
  <property name="meta.attr.1.stream.DURATION.markup">00:04:49.301000000</property>
  <property name="meta.attr.COMPATIBLE_BRANDS.markup">isomiso2avc1mp41</property>
  <property name="meta.attr.MAJOR_BRAND.markup">isom</property>
  <property name="meta.attr.MINOR_VERSION.markup">512</property>
  <property name="meta.attr.ENCODER.markup">Lavf58.76.100</property>
  <property name="meta.media.sample_aspect_num">1</property>
  <property name="meta.media.sample_aspect_den">1</property>
  <property name="meta.media.frame_rate_num">30000</property>
  <property name="meta.media.frame_rate_den">1001</property>
  <property name="meta.media.colorspace">601</property>
  <property name="meta.media.color_trc">1</property>
  <property name="meta.media.width">640</property>
  <property name="meta.media.height">480</property>
  <property name="meta.media.color_range">full</property>
  <property name="meta.media.top_field_first">0</property>
  <property name="meta.media.progressive">1</property>
  <property name="set.test_audio">1</property>
  <property name="set.test_image">0</property>
 </producer>
 <playlist id="playlist30">
  <blank length="00:00:19.133"/>
  <entry producer="producer45" in="00:00:01.467" out="00:00:16.900">
   <property name="kdenlive:id">15</property>
   <filter id="filter192" in="00:00:01.467" out="00:00:13.033">
    <property name="start">0</property>
    <property name="mlt_service">brightness</property>
    <property name="kdenlive_id">fade_from_black</property>
    <property name="end">1</property>
    <property name="alpha">-1</property>
   </filter>
  </entry>
  <entry producer="producer169" in="00:00:16.933" out="00:00:24.100">
   <property name="kdenlive:id">15</property>
   <filter id="filter193" in="00:00:16.933" out="00:00:17.467">
    <property name="start">0</property>
    <property name="mlt_service">brightness</property>
    <property name="kdenlive_id">fade_from_black</property>
    <property name="end">1</property>
    <property name="alpha">-1</property>
    <property name="kdenlive:collapsed">0</property>
   </filter>
   <filter id="filter194" in="00:00:22.967" out="00:00:24.100">
    <property name="start">1</property>
    <property name="mlt_service">brightness</property>
    <property name="kdenlive_id">fade_to_black</property>
    <property name="end">0</property>
    <property name="alpha">-1</property>
    <property name="kdenlive:collapsed">0</property>
   </filter>
  </entry>
  <entry producer="producer45" in="00:00:24.133" out="00:01:31.567">
   <property name="kdenlive:id">15</property>
  </entry>
  <entry producer="producer45" in="00:01:31.600" out="00:01:52.833">
   <property name="kdenlive:id">15</property>
   <filter id="filter195">
    <property name="rotate_center">1</property>
    <property name="mlt_service">qtblend</property>
    <property name="kdenlive_id">qtblend</property>
    <property name="rect">00:01:31.600=-542 0 1920 1080 1.000000</property>
    <property name="rotation">00:01:31.600=0</property>
    <property name="compositing">0</property>
    <property name="distort">0</property>
    <property name="kdenlive:collapsed">0</property>
   </filter>
  </entry>
  <entry producer="producer168" in="00:01:52.867" out="00:02:30.533">
   <property name="kdenlive:id">15</property>
   <filter id="filter196">
    <property name="rotate_center">1</property>
    <property name="mlt_service">qtblend</property>
    <property name="kdenlive_id">qtblend</property>
    <property name="rect">00:01:52.867=-542 0 1920 1080 1.000000</property>
    <property name="rotation">00:01:52.867=0</property>
    <property name="compositing">0</property>
    <property name="distort">0</property>
    <property name="kdenlive:collapsed">0</property>
   </filter>
   <filter id="filter197" in="00:02:24.700" out="00:02:30.533">
    <property name="start">1</property>
    <property name="mlt_service">brightness</property>
    <property name="kdenlive_id">fade_to_black</property>
    <property name="end">0</property>
    <property name="alpha">-1</property>
    <property name="kdenlive:collapsed">0</property>
   </filter>
   <filter id="filter198" in="00:01:52.867" out="00:01:55.133">
    <property name="start">0</property>
    <property name="mlt_service">brightness</property>
    <property name="kdenlive_id">fade_from_black</property>
    <property name="end">1</property>
    <property name="alpha">-1</property>
    <property name="kdenlive:collapsed">0</property>
   </filter>
  </entry>
  <entry producer="producer45" in="00:02:30.567" out="00:02:48.667">
   <property name="kdenlive:id">15</property>
   <filter id="filter199">
    <property name="rotate_center">1</property>
    <property name="mlt_service">qtblend</property>
    <property name="kdenlive_id">qtblend</property>
    <property name="rect">00:02:30.567=-542 0 1920 1080 1.000000</property>
    <property name="rotation">00:02:30.567=0</property>
    <property name="compositing">0</property>
    <property name="distort">0</property>
    <property name="kdenlive:collapsed">0</property>
   </filter>
  </entry>
  <entry producer="producer45" in="00:02:48.700" out="00:03:12.900">
   <property name="kdenlive:id">15</property>
   <filter id="filter200" in="00:02:48.700" out="00:02:49.467">
    <property name="start">0</property>
    <property name="mlt_service">brightness</property>
    <property name="kdenlive_id">fade_from_black</property>
    <property name="end">1</property>
    <property name="alpha">-1</property>
    <property name="kdenlive:collapsed">0</property>
   </filter>
  </entry>
  <entry producer="producer170" in="00:03:12.933" out="00:03:26.200">
   <property name="kdenlive:id">15</property>
   <filter id="filter201" in="00:03:12.933" out="00:03:13.367">
    <property name="start">0</property>
    <property name="mlt_service">brightness</property>
    <property name="kdenlive_id">fade_from_black</property>
    <property name="end">1</property>
    <property name="alpha">-1</property>
    <property name="kdenlive:collapsed">0</property>
   </filter>
   <filter id="filter202" in="00:03:25.400" out="00:03:26.200">
    <property name="start">1</property>
    <property name="mlt_service">brightness</property>
    <property name="kdenlive_id">fade_to_black</property>
    <property name="end">0</property>
    <property name="alpha">-1</property>
   </filter>
  </entry>
  <entry producer="producer45" in="00:03:26.233" out="00:03:58.467">
   <property name="kdenlive:id">15</property>
  </entry>
  <entry producer="producer171" in="00:03:58.500" out="00:04:12.267">
   <property name="kdenlive:id">15</property>
   <filter id="filter203" in="00:03:58.500" out="00:03:59.733">
    <property name="start">0</property>
    <property name="mlt_service">brightness</property>
    <property name="kdenlive_id">fade_from_black</property>
    <property name="end">1</property>
    <property name="alpha">-1</property>
    <property name="kdenlive:collapsed">0</property>
   </filter>
   <filter id="filter204" in="00:04:11.867" out="00:04:12.267">
    <property name="start">1</property>
    <property name="mlt_service">brightness</property>
    <property name="kdenlive_id">fade_to_black</property>
    <property name="end">0</property>
    <property name="alpha">-1</property>
   </filter>
  </entry>
  <entry producer="producer45" in="00:04:12.300" out="00:04:49.267">
   <property name="kdenlive:id">15</property>
  </entry>
 </playlist>
 <playlist id="playlist31"/>
 <tractor id="tractor15" in="00:00:00.000" out="00:05:06.933">
  <property name="kdenlive:trackheight">69</property>
  <property name="kdenlive:timeline_active">0</property>
  <property name="kdenlive:collapsed">28</property>
  <property name="kdenlive:track_name">Caleb</property>
  <property name="kdenlive:thumbs_format"/>
  <property name="kdenlive:audio_rec"/>
  <property name="kdenlive:locked_track">1</property>
  <track hide="both" producer="playlist30"/>
  <track producer="playlist31"/>
 </tractor>
 <producer id="producer46" in="00:00:00.000" out="00:05:23.333">
  <property name="length">9701</property>
  <property name="eof">pause</property>
  <property name="resource">content/2021-02-06_20-14-08_Chris_piano+synth_dhaivat_C0018.MP4</property>
  <property name="audio_index">-1</property>
  <property name="video_index">0</property>
  <property name="mute_on_pause">0</property>
  <property name="mlt_service">avformat-novalidate</property>
  <property name="seekable">1</property>
  <property name="aspect_ratio">1</property>
  <property name="kdenlive:clipname">2021-02-06_20-14-08_Chris_piano+synth_dhaivat_C0018.MP4</property>
  <property name="kdenlive:folderid">65</property>
  <property name="kdenlive:id">11</property>
  <property name="kdenlive:file_size">1950593737</property>
  <property name="kdenlive:file_hash">2f4faf307d5f1fd5a04bac712f640e90</property>
  <property name="kdenlive:zone_in">1578</property>
  <property name="kdenlive:zone_out">5019</property>
  <property name="kdenlive:clipzones">[
    {
        "in": 1578,
        "name": "piano solo",
        "out": 5019
    }
]
</property>
  <property name="global_feed">1</property>
  <property name="kdenlive:proxy">-</property>
  <property name="kdenlive:originalurl">content/2021-02-06_20-14-08_Chris_piano+synth_dhaivat_C0018.MP4</property>
  <property name="kdenlive:activeeffect">0</property>
  <property name="xml">was here</property>
  <property name="meta.media.nb_streams">1</property>
  <property name="meta.media.0.stream.type">video</property>
  <property name="meta.media.0.stream.frame_rate">29.97</property>
  <property name="meta.media.0.stream.sample_aspect_ratio">1</property>
  <property name="meta.media.0.codec.width">1920</property>
  <property name="meta.media.0.codec.height">1080</property>
  <property name="meta.media.0.codec.rotate">0</property>
  <property name="meta.media.0.codec.frame_rate">29.97</property>
  <property name="meta.media.0.codec.pix_fmt">yuv420p</property>
  <property name="meta.media.0.codec.sample_aspect_ratio">1</property>
  <property name="meta.media.0.codec.colorspace">709</property>
  <property name="meta.media.0.codec.color_trc">1</property>
  <property name="meta.media.0.codec.name">h264</property>
  <property name="meta.media.0.codec.long_name">H.264 / AVC / MPEG-4 AVC / MPEG-4 part 10</property>
  <property name="meta.media.0.codec.bit_rate">48256015</property>
  <property name="meta.attr.0.stream.creation_time.markup">2021-06-03T20:14:08.000000Z</property>
  <property name="meta.attr.0.stream.handler_name.markup">Video Media Handler</property>
  <property name="meta.attr.major_brand.markup">isom</property>
  <property name="meta.attr.minor_version.markup">512</property>
  <property name="meta.attr.compatible_brands.markup">isomiso2avc1mp41</property>
  <property name="meta.attr.creation_time.markup">2021-06-03T20:14:08.000000Z</property>
  <property name="meta.attr.encoder.markup">Lavf58.45.100</property>
  <property name="meta.media.sample_aspect_num">1</property>
  <property name="meta.media.sample_aspect_den">1</property>
  <property name="meta.media.frame_rate_num">30000</property>
  <property name="meta.media.frame_rate_den">1001</property>
  <property name="meta.media.colorspace">709</property>
  <property name="meta.media.color_trc">1</property>
  <property name="meta.media.width">1920</property>
  <property name="meta.media.height">1080</property>
  <property name="meta.media.color_range">mpeg</property>
  <property name="set.test_audio">1</property>
  <property name="set.test_image">1</property>
  <filter id="filter167">
   <property name="version">0.6</property>
   <property name="mlt_service">frei0r.select0r</property>
   <property name="kdenlive_id">frei0r.select0r</property>
   <property name="Color to select">0x6cba82ff</property>
   <property name="Invert selection">1</property>
   <property name="Selection subspace">1</property>
   <property name="Subspace shape">0.5</property>
   <property name="Edge mode">0.35</property>
   <property name="Delta R / A / Hue">00:00:00.000=0.126</property>
   <property name="Delta G / B / Chroma">00:00:00.000=0.285</property>
   <property name="Delta B / I / I">00:00:00.000=0.331</property>
   <property name="Slope">00:00:00.000=0.068</property>
   <property name="Operation">0.5</property>
   <property name="kdenlive:collapsed">0</property>
  </filter>
  <filter id="filter168">
   <property name="version">0.6</property>
   <property name="mlt_service">frei0r.select0r</property>
   <property name="kdenlive_id">frei0r.select0r</property>
   <property name="Color to select">0x6cba82ff</property>
   <property name="Invert selection">1</property>
   <property name="Selection subspace">1</property>
   <property name="Subspace shape">0.5</property>
   <property name="Edge mode">0.35</property>
   <property name="Delta R / A / Hue">00:00:00.000=0.126</property>
   <property name="Delta G / B / Chroma">00:00:00.000=0.285</property>
   <property name="Delta B / I / I">00:00:00.000=0.331</property>
   <property name="Slope">00:00:00.000=0.068</property>
   <property name="Operation">0.5</property>
  </filter>
 </producer>
 <producer id="producer173" in="00:00:00.000" out="00:05:23.333">
  <property name="length">9701</property>
  <property name="eof">pause</property>
  <property name="resource">content/2021-02-06_20-14-08_Chris_piano+synth_dhaivat_C0018.MP4</property>
  <property name="audio_index">-1</property>
  <property name="video_index">0</property>
  <property name="mute_on_pause">0</property>
  <property name="mlt_service">avformat-novalidate</property>
  <property name="seekable">1</property>
  <property name="aspect_ratio">1</property>
  <property name="kdenlive:clipname">2021-02-06_20-14-08_Chris_piano+synth_dhaivat_C0018.MP4</property>
  <property name="kdenlive:folderid">65</property>
  <property name="kdenlive:id">11</property>
  <property name="kdenlive:file_size">1950593737</property>
  <property name="kdenlive:file_hash">2f4faf307d5f1fd5a04bac712f640e90</property>
  <property name="kdenlive:zone_in">1578</property>
  <property name="kdenlive:zone_out">5019</property>
  <property name="kdenlive:clipzones">[
    {
        "in": 1578,
        "name": "piano solo",
        "out": 5019
    }
]
</property>
  <property name="global_feed">1</property>
  <property name="kdenlive:proxy">-</property>
  <property name="kdenlive:originalurl">content/2021-02-06_20-14-08_Chris_piano+synth_dhaivat_C0018.MP4</property>
  <property name="kdenlive:original.mlt_type">mlt_producer</property>
  <property name="kdenlive:original.in">00:00:00.000</property>
  <property name="kdenlive:original.out">00:05:23.333</property>
  <property name="kdenlive:original.length">9701</property>
  <property name="kdenlive:original.eof">pause</property>
  <property name="kdenlive:original.resource">content/2021-02-06_20-14-08_Chris_piano+synth_dhaivat_C0018.MP4</property>
  <property name="kdenlive:original.meta.media.nb_streams">1</property>
  <property name="kdenlive:original.meta.media.0.stream.type">video</property>
  <property name="kdenlive:original.meta.media.0.stream.frame_rate">29.97</property>
  <property name="kdenlive:original.meta.media.0.stream.sample_aspect_ratio">1</property>
  <property name="kdenlive:original.meta.media.0.codec.width">1920</property>
  <property name="kdenlive:original.meta.media.0.codec.height">1080</property>
  <property name="kdenlive:original.meta.media.0.codec.rotate">0</property>
  <property name="kdenlive:original.meta.media.0.codec.frame_rate">29.97</property>
  <property name="kdenlive:original.meta.media.0.codec.pix_fmt">yuv420p</property>
  <property name="kdenlive:original.meta.media.0.codec.sample_aspect_ratio">1</property>
  <property name="kdenlive:original.meta.media.0.codec.colorspace">709</property>
  <property name="kdenlive:original.meta.media.0.codec.color_trc">1</property>
  <property name="kdenlive:original.meta.media.0.codec.name">h264</property>
  <property name="kdenlive:original.meta.media.0.codec.long_name">H.264 / AVC / MPEG-4 AVC / MPEG-4 part 10</property>
  <property name="kdenlive:original.meta.media.0.codec.bit_rate">48256015</property>
  <property name="kdenlive:original.meta.attr.0.stream.creation_time.markup">2021-06-03T20:14:08.000000Z</property>
  <property name="kdenlive:original.meta.attr.0.stream.handler_name.markup">Video Media Handler</property>
  <property name="kdenlive:original.meta.attr.0.stream.vendor_id.markup">[0][0][0][0]</property>
  <property name="kdenlive:original.meta.attr.major_brand.markup">isom</property>
  <property name="kdenlive:original.meta.attr.minor_version.markup">512</property>
  <property name="kdenlive:original.meta.attr.compatible_brands.markup">isomiso2avc1mp41</property>
  <property name="kdenlive:original.meta.attr.creation_time.markup">2021-06-03T20:14:08.000000Z</property>
  <property name="kdenlive:original.meta.attr.encoder.markup">Lavf58.45.100</property>
  <property name="kdenlive:original.seekable">1</property>
  <property name="kdenlive:original.width">1920</property>
  <property name="kdenlive:original.height">1080</property>
  <property name="kdenlive:original.meta.media.sample_aspect_num">1</property>
  <property name="kdenlive:original.meta.media.sample_aspect_den">1</property>
  <property name="kdenlive:original.aspect_ratio">1</property>
  <property name="kdenlive:original.audio_index">-1</property>
  <property name="kdenlive:original.video_index">0</property>
  <property name="kdenlive:original.mute_on_pause">0</property>
  <property name="kdenlive:original.mlt_service">avformat-novalidate</property>
  <property name="kdenlive:original.kdenlive:folderid">65</property>
  <property name="kdenlive:original.meta.media.frame_rate_num">30000</property>
  <property name="kdenlive:original.meta.media.frame_rate_den">1001</property>
  <property name="kdenlive:original.meta.media.colorspace">709</property>
  <property name="kdenlive:original.meta.media.color_trc">1</property>
  <property name="kdenlive:original.meta.media.width">1920</property>
  <property name="kdenlive:original.meta.media.height">1080</property>
  <property name="kdenlive:original.meta.media.color_range">mpeg</property>
  <property name="kdenlive:original.kdenlive:id">66</property>
  <property name="kdenlive:original.kdenlive:file_size">1950593737</property>
  <property name="kdenlive:original.kdenlive:file_hash">2f4faf307d5f1fd5a04bac712f640e90</property>
  <property name="kdenlive:original.meta.media.top_field_first">0</property>
  <property name="kdenlive:original.meta.media.progressive">1</property>
  <property name="kdenlive:original.kdenlive:zone_in">1578</property>
  <property name="kdenlive:original.kdenlive:zone_out">5019</property>
  <property name="kdenlive:original.kdenlive:clipzones">[
    {
        "in": 1578,
        "name": "piano solo",
        "out": 5019
    }
]
</property>
  <property name="kdenlive:original.root">/</property>
  <property name="kdenlive:original.global_feed">1</property>
  <property name="kdenlive:original.backup">1</property>
  <property name="kdenlive:activeeffect">0</property>
  <property name="xml">was here</property>
  <property name="meta.media.nb_streams">1</property>
  <property name="meta.media.0.stream.type">video</property>
  <property name="meta.media.0.stream.frame_rate">29.97</property>
  <property name="meta.media.0.stream.sample_aspect_ratio">1</property>
  <property name="meta.media.0.codec.width">640</property>
  <property name="meta.media.0.codec.height">360</property>
  <property name="meta.media.0.codec.rotate">0</property>
  <property name="meta.media.0.codec.frame_rate">1000</property>
  <property name="meta.media.0.codec.pix_fmt">yuvj420p</property>
  <property name="meta.media.0.codec.sample_aspect_ratio">1</property>
  <property name="meta.media.0.codec.colorspace">601</property>
  <property name="meta.media.0.codec.color_trc">1</property>
  <property name="meta.media.0.codec.name">mjpeg</property>
  <property name="meta.media.0.codec.long_name">MJPEG (Motion JPEG)</property>
  <property name="meta.media.0.codec.bit_rate">0</property>
  <property name="meta.attr.0.stream.HANDLER_NAME.markup">Video Media Handler</property>
  <property name="meta.attr.0.stream.VENDOR_ID.markup">[0][0][0][0]</property>
  <property name="meta.attr.0.stream.ENCODER.markup">Lavc58.134.100 mjpeg</property>
  <property name="meta.attr.0.stream.DURATION.markup">00:05:23.356000000</property>
  <property name="meta.attr.COMPATIBLE_BRANDS.markup">isomiso2avc1mp41</property>
  <property name="meta.attr.MAJOR_BRAND.markup">isom</property>
  <property name="meta.attr.MINOR_VERSION.markup">512</property>
  <property name="meta.attr.ENCODER.markup">Lavf58.76.100</property>
  <property name="meta.media.sample_aspect_num">1</property>
  <property name="meta.media.sample_aspect_den">1</property>
  <property name="meta.media.frame_rate_num">30000</property>
  <property name="meta.media.frame_rate_den">1001</property>
  <property name="meta.media.colorspace">601</property>
  <property name="meta.media.color_trc">1</property>
  <property name="meta.media.width">640</property>
  <property name="meta.media.height">360</property>
  <property name="meta.media.color_range">full</property>
  <property name="meta.media.top_field_first">0</property>
  <property name="meta.media.progressive">1</property>
  <property name="set.test_audio">1</property>
  <property name="set.test_image">0</property>
  <filter id="filter207">
   <property name="version">0.6</property>
   <property name="mlt_service">frei0r.select0r</property>
   <property name="kdenlive_id">frei0r.select0r</property>
   <property name="Color to select">0x6cba82ff</property>
   <property name="Invert selection">1</property>
   <property name="Selection subspace">1</property>
   <property name="Subspace shape">0.5</property>
   <property name="Edge mode">0.35</property>
   <property name="Delta R / A / Hue">00:00:00.000=0.126</property>
   <property name="Delta G / B / Chroma">00:00:00.000=0.285</property>
   <property name="Delta B / I / I">00:00:00.000=0.331</property>
   <property name="Slope">00:00:00.000=0.068</property>
   <property name="Operation">0.5</property>
  </filter>
 </producer>
 <producer id="producer174" in="00:00:00.000" out="00:04:50.600">
  <property name="length">8719</property>
  <property name="eof">pause</property>
  <property name="resource">content/2021-06-02_153524_Sarah_kit+handheld_dhaivat-take3.mp4</property>
  <property name="audio_index">1</property>
  <property name="video_index">0</property>
  <property name="mute_on_pause">0</property>
  <property name="mlt_service">avformat-novalidate</property>
  <property name="seekable">1</property>
  <property name="aspect_ratio">1</property>
  <property name="kdenlive:clipname">2021-06-02_153524_Sarah_kit+handheld_dhaivat-take3.mp4</property>
  <property name="kdenlive:folderid">65</property>
  <property name="kdenlive:id">27</property>
  <property name="kdenlive:file_size">920565421</property>
  <property name="kdenlive:file_hash">22894985720761a019cfbc8ecf6432e1</property>
  <property name="kdenlive:proxy">-</property>
  <property name="kdenlive:originalurl">content/2021-06-02_153524_Sarah_kit+handheld_dhaivat-take3.mp4</property>
  <property name="kdenlive:original.mlt_type">producer</property>
  <property name="kdenlive:original.in">0</property>
  <property name="kdenlive:original.out">8718</property>
  <property name="kdenlive:original.length">8719</property>
  <property name="kdenlive:original.eof">pause</property>
  <property name="kdenlive:original.resource">content/2021-06-02_153524_Sarah_kit+handheld_dhaivat-take3.mp4</property>
  <property name="kdenlive:original.meta.media.nb_streams">2</property>
  <property name="kdenlive:original.meta.media.0.stream.type">video</property>
  <property name="kdenlive:original.meta.media.0.stream.frame_rate">59.9401</property>
  <property name="kdenlive:original.meta.media.0.stream.sample_aspect_ratio">1</property>
  <property name="kdenlive:original.meta.media.0.codec.width">1920</property>
  <property name="kdenlive:original.meta.media.0.codec.height">1080</property>
  <property name="kdenlive:original.meta.media.0.codec.rotate">0</property>
  <property name="kdenlive:original.meta.media.0.codec.frame_rate">59.9401</property>
  <property name="kdenlive:original.meta.media.0.codec.pix_fmt">yuv420p</property>
  <property name="kdenlive:original.meta.media.0.codec.sample_aspect_ratio">1</property>
  <property name="kdenlive:original.meta.media.0.codec.colorspace">709</property>
  <property name="kdenlive:original.meta.media.0.codec.name">h264</property>
  <property name="kdenlive:original.meta.media.0.codec.long_name">H.264 / AVC / MPEG-4 AVC / MPEG-4 part 10</property>
  <property name="kdenlive:original.meta.media.0.codec.bit_rate">24980173</property>
  <property name="kdenlive:original.meta.attr.0.stream.handler_name.markup">VideoHandler</property>
  <property name="kdenlive:original.meta.attr.0.stream.vendor_id.markup">[0][0][0][0]</property>
  <property name="kdenlive:original.meta.media.1.stream.type">audio</property>
  <property name="kdenlive:original.meta.media.1.codec.sample_fmt">fltp</property>
  <property name="kdenlive:original.meta.media.1.codec.sample_rate">48000</property>
  <property name="kdenlive:original.meta.media.1.codec.channels">6</property>
  <property name="kdenlive:original.meta.media.1.codec.name">ac3</property>
  <property name="kdenlive:original.meta.media.1.codec.long_name">ATSC A/52A (AC-3)</property>
  <property name="kdenlive:original.meta.media.1.codec.bit_rate">448000</property>
  <property name="kdenlive:original.meta.attr.1.stream.handler_name.markup">SoundHandler</property>
  <property name="kdenlive:original.meta.attr.1.stream.vendor_id.markup">[0][0][0][0]</property>
  <property name="kdenlive:original.meta.attr.major_brand.markup">isom</property>
  <property name="kdenlive:original.meta.attr.minor_version.markup">512</property>
  <property name="kdenlive:original.meta.attr.compatible_brands.markup">isomiso2avc1mp41</property>
  <property name="kdenlive:original.meta.attr.encoder.markup">Lavf58.45.100</property>
  <property name="kdenlive:original.seekable">1</property>
  <property name="kdenlive:original.width">1920</property>
  <property name="kdenlive:original.height">1080</property>
  <property name="kdenlive:original.meta.media.sample_aspect_num">1</property>
  <property name="kdenlive:original.meta.media.sample_aspect_den">1</property>
  <property name="kdenlive:original.aspect_ratio">1</property>
  <property name="kdenlive:original.audio_index">1</property>
  <property name="kdenlive:original.video_index">0</property>
  <property name="kdenlive:original.mute_on_pause">0</property>
  <property name="kdenlive:original.mlt_service">avformat-novalidate</property>
  <property name="kdenlive:original.kdenlive:folderid">65</property>
  <property name="kdenlive:original.meta.media.frame_rate_num">1561770000</property>
  <property name="kdenlive:original.meta.media.frame_rate_den">26055529</property>
  <property name="kdenlive:original.meta.media.colorspace">709</property>
  <property name="kdenlive:original.meta.media.color_trc">2</property>
  <property name="kdenlive:original.meta.media.width">1920</property>
  <property name="kdenlive:original.meta.media.height">1080</property>
  <property name="kdenlive:original.meta.media.color_range">mpeg</property>
  <property name="kdenlive:original.kdenlive:id">129</property>
  <property name="kdenlive:original.kdenlive:file_size">920565421</property>
  <property name="kdenlive:original.kdenlive:file_hash">22894985720761a019cfbc8ecf6432e1</property>
  <property name="kdenlive:original.backup">1</property>
  <property name="kdenlive:audio_max">4</property>
  <property name="global_feed">1</property>
  <property name="kdenlive:activeeffect">0</property>
  <property name="xml">was here</property>
  <property name="meta.media.nb_streams">2</property>
  <property name="meta.media.0.stream.type">video</property>
  <property name="meta.media.0.stream.frame_rate">59.9401</property>
  <property name="meta.media.0.stream.sample_aspect_ratio">1</property>
  <property name="meta.media.0.codec.width">640</property>
  <property name="meta.media.0.codec.height">360</property>
  <property name="meta.media.0.codec.rotate">0</property>
  <property name="meta.media.0.codec.frame_rate">1000</property>
  <property name="meta.media.0.codec.pix_fmt">yuvj420p</property>
  <property name="meta.media.0.codec.sample_aspect_ratio">1</property>
  <property name="meta.media.0.codec.colorspace">601</property>
  <property name="meta.media.0.codec.name">mjpeg</property>
  <property name="meta.media.0.codec.long_name">MJPEG (Motion JPEG)</property>
  <property name="meta.media.0.codec.bit_rate">0</property>
  <property name="meta.attr.0.stream.HANDLER_NAME.markup">VideoHandler</property>
  <property name="meta.attr.0.stream.VENDOR_ID.markup">[0][0][0][0]</property>
  <property name="meta.attr.0.stream.ENCODER.markup">Lavc58.134.100 mjpeg</property>
  <property name="meta.attr.0.stream.DURATION.markup">00:04:50.624000000</property>
  <property name="meta.media.1.stream.type">audio</property>
  <property name="meta.media.1.codec.sample_fmt">s16</property>
  <property name="meta.media.1.codec.sample_rate">48000</property>
  <property name="meta.media.1.codec.channels">6</property>
  <property name="meta.media.1.codec.name">pcm_s16le</property>
  <property name="meta.media.1.codec.long_name">PCM signed 16-bit little-endian</property>
  <property name="meta.media.1.codec.bit_rate">4608000</property>
  <property name="meta.attr.1.stream.HANDLER_NAME.markup">SoundHandler</property>
  <property name="meta.attr.1.stream.VENDOR_ID.markup">[0][0][0][0]</property>
  <property name="meta.attr.1.stream.ENCODER.markup">Lavc58.134.100 pcm_s16le</property>
  <property name="meta.attr.1.stream.DURATION.markup">00:04:50.624000000</property>
  <property name="meta.attr.COMPATIBLE_BRANDS.markup">isomiso2avc1mp41</property>
  <property name="meta.attr.MAJOR_BRAND.markup">isom</property>
  <property name="meta.attr.MINOR_VERSION.markup">512</property>
  <property name="meta.attr.ENCODER.markup">Lavf58.76.100</property>
  <property name="meta.media.sample_aspect_num">1</property>
  <property name="meta.media.sample_aspect_den">1</property>
  <property name="meta.media.frame_rate_num">19001</property>
  <property name="meta.media.frame_rate_den">317</property>
  <property name="meta.media.colorspace">601</property>
  <property name="meta.media.color_trc">2</property>
  <property name="meta.media.width">640</property>
  <property name="meta.media.height">360</property>
  <property name="meta.media.color_range">full</property>
  <property name="meta.media.top_field_first">0</property>
  <property name="meta.media.progressive">1</property>
  <property name="set.test_audio">1</property>
  <property name="set.test_image">0</property>
  <filter id="filter208">
   <property name="version">0.6</property>
   <property name="mlt_service">frei0r.select0r</property>
   <property name="kdenlive_id">frei0r.select0r</property>
   <property name="Color to select">0x22884aff</property>
   <property name="Invert selection">1</property>
   <property name="Selection subspace">1</property>
   <property name="Subspace shape">0.5</property>
   <property name="Edge mode">0.9</property>
   <property name="Delta R / A / Hue">00:00:00.000=0.047</property>
   <property name="Delta G / B / Chroma">00:00:00.000=0.243</property>
   <property name="Delta B / I / I">00:00:00.000=0.246</property>
   <property name="Slope">00:00:00.000=0.051</property>
   <property name="Operation">0.5</property>
  </filter>
  <filter id="filter209">
   <property name="version">0.4</property>
   <property name="mlt_service">frei0r.alpha0ps</property>
   <property name="kdenlive_id">frei0r.alpha0ps</property>
   <property name="Display">0</property>
   <property name="Display input alpha">0</property>
   <property name="Operation">1</property>
   <property name="Threshold">00:00:00.000=0.5</property>
   <property name="Shrink/Grow/Blur amount">00:00:00.000=0.153</property>
   <property name="Invert">0</property>
  </filter>
  <filter id="filter210">
   <property name="version">0.3</property>
   <property name="mlt_service">frei0r.keyspillm0pup</property>
   <property name="kdenlive_id">frei0r.keyspillm0pup</property>
   <property name="Key color">0x419d49ff</property>
   <property name="Target color">0xC87F65ff</property>
   <property name="Mask type">0</property>
   <property name="Tolerance">00:00:00.000=0.22</property>
   <property name="Slope">00:00:00.000=0.169</property>
   <property name="Hue gate">00:00:00.000=0.229</property>
   <property name="Saturation threshold">00:00:00.000=0.172</property>
   <property name="Operation 1">1</property>
   <property name="Amount 1">00:00:00.000=0.335</property>
   <property name="Operation 2">3</property>
   <property name="Amount 2">00:00:00.000=0.339</property>
   <property name="Show mask">0</property>
   <property name="Mask to Alpha">0</property>
  </filter>
 </producer>
 <producer id="producer175" in="00:00:00.000" out="00:04:50.600">
  <property name="length">8719</property>
  <property name="eof">pause</property>
  <property name="resource">content/2021-06-02_153524_Sarah_kit+handheld_dhaivat-take3.mp4</property>
  <property name="audio_index">1</property>
  <property name="video_index">0</property>
  <property name="mute_on_pause">0</property>
  <property name="mlt_service">avformat-novalidate</property>
  <property name="seekable">1</property>
  <property name="aspect_ratio">1</property>
  <property name="kdenlive:clipname">2021-06-02_153524_Sarah_kit+handheld_dhaivat-take3.mp4</property>
  <property name="kdenlive:folderid">65</property>
  <property name="kdenlive:id">27</property>
  <property name="kdenlive:file_size">920565421</property>
  <property name="kdenlive:file_hash">22894985720761a019cfbc8ecf6432e1</property>
  <property name="kdenlive:proxy">-</property>
  <property name="kdenlive:originalurl">content/2021-06-02_153524_Sarah_kit+handheld_dhaivat-take3.mp4</property>
  <property name="kdenlive:original.mlt_type">producer</property>
  <property name="kdenlive:original.in">0</property>
  <property name="kdenlive:original.out">8718</property>
  <property name="kdenlive:original.length">8719</property>
  <property name="kdenlive:original.eof">pause</property>
  <property name="kdenlive:original.resource">content/2021-06-02_153524_Sarah_kit+handheld_dhaivat-take3.mp4</property>
  <property name="kdenlive:original.meta.media.nb_streams">2</property>
  <property name="kdenlive:original.meta.media.0.stream.type">video</property>
  <property name="kdenlive:original.meta.media.0.stream.frame_rate">59.9401</property>
  <property name="kdenlive:original.meta.media.0.stream.sample_aspect_ratio">1</property>
  <property name="kdenlive:original.meta.media.0.codec.width">1920</property>
  <property name="kdenlive:original.meta.media.0.codec.height">1080</property>
  <property name="kdenlive:original.meta.media.0.codec.rotate">0</property>
  <property name="kdenlive:original.meta.media.0.codec.frame_rate">59.9401</property>
  <property name="kdenlive:original.meta.media.0.codec.pix_fmt">yuv420p</property>
  <property name="kdenlive:original.meta.media.0.codec.sample_aspect_ratio">1</property>
  <property name="kdenlive:original.meta.media.0.codec.colorspace">709</property>
  <property name="kdenlive:original.meta.media.0.codec.name">h264</property>
  <property name="kdenlive:original.meta.media.0.codec.long_name">H.264 / AVC / MPEG-4 AVC / MPEG-4 part 10</property>
  <property name="kdenlive:original.meta.media.0.codec.bit_rate">24980173</property>
  <property name="kdenlive:original.meta.attr.0.stream.handler_name.markup">VideoHandler</property>
  <property name="kdenlive:original.meta.attr.0.stream.vendor_id.markup">[0][0][0][0]</property>
  <property name="kdenlive:original.meta.media.1.stream.type">audio</property>
  <property name="kdenlive:original.meta.media.1.codec.sample_fmt">fltp</property>
  <property name="kdenlive:original.meta.media.1.codec.sample_rate">48000</property>
  <property name="kdenlive:original.meta.media.1.codec.channels">6</property>
  <property name="kdenlive:original.meta.media.1.codec.name">ac3</property>
  <property name="kdenlive:original.meta.media.1.codec.long_name">ATSC A/52A (AC-3)</property>
  <property name="kdenlive:original.meta.media.1.codec.bit_rate">448000</property>
  <property name="kdenlive:original.meta.attr.1.stream.handler_name.markup">SoundHandler</property>
  <property name="kdenlive:original.meta.attr.1.stream.vendor_id.markup">[0][0][0][0]</property>
  <property name="kdenlive:original.meta.attr.major_brand.markup">isom</property>
  <property name="kdenlive:original.meta.attr.minor_version.markup">512</property>
  <property name="kdenlive:original.meta.attr.compatible_brands.markup">isomiso2avc1mp41</property>
  <property name="kdenlive:original.meta.attr.encoder.markup">Lavf58.45.100</property>
  <property name="kdenlive:original.seekable">1</property>
  <property name="kdenlive:original.width">1920</property>
  <property name="kdenlive:original.height">1080</property>
  <property name="kdenlive:original.meta.media.sample_aspect_num">1</property>
  <property name="kdenlive:original.meta.media.sample_aspect_den">1</property>
  <property name="kdenlive:original.aspect_ratio">1</property>
  <property name="kdenlive:original.audio_index">1</property>
  <property name="kdenlive:original.video_index">0</property>
  <property name="kdenlive:original.mute_on_pause">0</property>
  <property name="kdenlive:original.mlt_service">avformat-novalidate</property>
  <property name="kdenlive:original.kdenlive:folderid">65</property>
  <property name="kdenlive:original.meta.media.frame_rate_num">1561770000</property>
  <property name="kdenlive:original.meta.media.frame_rate_den">26055529</property>
  <property name="kdenlive:original.meta.media.colorspace">709</property>
  <property name="kdenlive:original.meta.media.color_trc">2</property>
  <property name="kdenlive:original.meta.media.width">1920</property>
  <property name="kdenlive:original.meta.media.height">1080</property>
  <property name="kdenlive:original.meta.media.color_range">mpeg</property>
  <property name="kdenlive:original.kdenlive:id">129</property>
  <property name="kdenlive:original.kdenlive:file_size">920565421</property>
  <property name="kdenlive:original.kdenlive:file_hash">22894985720761a019cfbc8ecf6432e1</property>
  <property name="kdenlive:original.backup">1</property>
  <property name="kdenlive:audio_max">4</property>
  <property name="global_feed">1</property>
  <property name="kdenlive:activeeffect">0</property>
  <property name="xml">was here</property>
  <property name="meta.media.nb_streams">2</property>
  <property name="meta.media.0.stream.type">video</property>
  <property name="meta.media.0.stream.frame_rate">59.9401</property>
  <property name="meta.media.0.stream.sample_aspect_ratio">1</property>
  <property name="meta.media.0.codec.width">640</property>
  <property name="meta.media.0.codec.height">360</property>
  <property name="meta.media.0.codec.rotate">0</property>
  <property name="meta.media.0.codec.frame_rate">1000</property>
  <property name="meta.media.0.codec.pix_fmt">yuvj420p</property>
  <property name="meta.media.0.codec.sample_aspect_ratio">1</property>
  <property name="meta.media.0.codec.colorspace">601</property>
  <property name="meta.media.0.codec.name">mjpeg</property>
  <property name="meta.media.0.codec.long_name">MJPEG (Motion JPEG)</property>
  <property name="meta.media.0.codec.bit_rate">0</property>
  <property name="meta.attr.0.stream.HANDLER_NAME.markup">VideoHandler</property>
  <property name="meta.attr.0.stream.VENDOR_ID.markup">[0][0][0][0]</property>
  <property name="meta.attr.0.stream.ENCODER.markup">Lavc58.134.100 mjpeg</property>
  <property name="meta.attr.0.stream.DURATION.markup">00:04:50.624000000</property>
  <property name="meta.media.1.stream.type">audio</property>
  <property name="meta.media.1.codec.sample_fmt">s16</property>
  <property name="meta.media.1.codec.sample_rate">48000</property>
  <property name="meta.media.1.codec.channels">6</property>
  <property name="meta.media.1.codec.name">pcm_s16le</property>
  <property name="meta.media.1.codec.long_name">PCM signed 16-bit little-endian</property>
  <property name="meta.media.1.codec.bit_rate">4608000</property>
  <property name="meta.attr.1.stream.HANDLER_NAME.markup">SoundHandler</property>
  <property name="meta.attr.1.stream.VENDOR_ID.markup">[0][0][0][0]</property>
  <property name="meta.attr.1.stream.ENCODER.markup">Lavc58.134.100 pcm_s16le</property>
  <property name="meta.attr.1.stream.DURATION.markup">00:04:50.624000000</property>
  <property name="meta.attr.COMPATIBLE_BRANDS.markup">isomiso2avc1mp41</property>
  <property name="meta.attr.MAJOR_BRAND.markup">isom</property>
  <property name="meta.attr.MINOR_VERSION.markup">512</property>
  <property name="meta.attr.ENCODER.markup">Lavf58.76.100</property>
  <property name="meta.media.sample_aspect_num">1</property>
  <property name="meta.media.sample_aspect_den">1</property>
  <property name="meta.media.frame_rate_num">19001</property>
  <property name="meta.media.frame_rate_den">317</property>
  <property name="meta.media.colorspace">601</property>
  <property name="meta.media.color_trc">2</property>
  <property name="meta.media.width">640</property>
  <property name="meta.media.height">360</property>
  <property name="meta.media.color_range">full</property>
  <property name="meta.media.top_field_first">0</property>
  <property name="meta.media.progressive">1</property>
  <property name="set.test_audio">1</property>
  <property name="set.test_image">0</property>
 </producer>
 <producer id="producer176" in="00:00:00.000" out="00:04:50.600">
  <property name="length">8719</property>
  <property name="eof">pause</property>
  <property name="resource">content/2021-06-02_153524_Sarah_kit+handheld_dhaivat-take3.mp4</property>
  <property name="audio_index">1</property>
  <property name="video_index">0</property>
  <property name="mute_on_pause">0</property>
  <property name="mlt_service">avformat-novalidate</property>
  <property name="seekable">1</property>
  <property name="aspect_ratio">1</property>
  <property name="kdenlive:clipname">2021-06-02_153524_Sarah_kit+handheld_dhaivat-take3.mp4</property>
  <property name="kdenlive:folderid">65</property>
  <property name="kdenlive:id">27</property>
  <property name="kdenlive:file_size">920565421</property>
  <property name="kdenlive:file_hash">22894985720761a019cfbc8ecf6432e1</property>
  <property name="kdenlive:proxy">-</property>
  <property name="kdenlive:originalurl">content/2021-06-02_153524_Sarah_kit+handheld_dhaivat-take3.mp4</property>
  <property name="kdenlive:original.mlt_type">producer</property>
  <property name="kdenlive:original.in">0</property>
  <property name="kdenlive:original.out">8718</property>
  <property name="kdenlive:original.length">8719</property>
  <property name="kdenlive:original.eof">pause</property>
  <property name="kdenlive:original.resource">content/2021-06-02_153524_Sarah_kit+handheld_dhaivat-take3.mp4</property>
  <property name="kdenlive:original.meta.media.nb_streams">2</property>
  <property name="kdenlive:original.meta.media.0.stream.type">video</property>
  <property name="kdenlive:original.meta.media.0.stream.frame_rate">59.9401</property>
  <property name="kdenlive:original.meta.media.0.stream.sample_aspect_ratio">1</property>
  <property name="kdenlive:original.meta.media.0.codec.width">1920</property>
  <property name="kdenlive:original.meta.media.0.codec.height">1080</property>
  <property name="kdenlive:original.meta.media.0.codec.rotate">0</property>
  <property name="kdenlive:original.meta.media.0.codec.frame_rate">59.9401</property>
  <property name="kdenlive:original.meta.media.0.codec.pix_fmt">yuv420p</property>
  <property name="kdenlive:original.meta.media.0.codec.sample_aspect_ratio">1</property>
  <property name="kdenlive:original.meta.media.0.codec.colorspace">709</property>
  <property name="kdenlive:original.meta.media.0.codec.name">h264</property>
  <property name="kdenlive:original.meta.media.0.codec.long_name">H.264 / AVC / MPEG-4 AVC / MPEG-4 part 10</property>
  <property name="kdenlive:original.meta.media.0.codec.bit_rate">24980173</property>
  <property name="kdenlive:original.meta.attr.0.stream.handler_name.markup">VideoHandler</property>
  <property name="kdenlive:original.meta.attr.0.stream.vendor_id.markup">[0][0][0][0]</property>
  <property name="kdenlive:original.meta.media.1.stream.type">audio</property>
  <property name="kdenlive:original.meta.media.1.codec.sample_fmt">fltp</property>
  <property name="kdenlive:original.meta.media.1.codec.sample_rate">48000</property>
  <property name="kdenlive:original.meta.media.1.codec.channels">6</property>
  <property name="kdenlive:original.meta.media.1.codec.name">ac3</property>
  <property name="kdenlive:original.meta.media.1.codec.long_name">ATSC A/52A (AC-3)</property>
  <property name="kdenlive:original.meta.media.1.codec.bit_rate">448000</property>
  <property name="kdenlive:original.meta.attr.1.stream.handler_name.markup">SoundHandler</property>
  <property name="kdenlive:original.meta.attr.1.stream.vendor_id.markup">[0][0][0][0]</property>
  <property name="kdenlive:original.meta.attr.major_brand.markup">isom</property>
  <property name="kdenlive:original.meta.attr.minor_version.markup">512</property>
  <property name="kdenlive:original.meta.attr.compatible_brands.markup">isomiso2avc1mp41</property>
  <property name="kdenlive:original.meta.attr.encoder.markup">Lavf58.45.100</property>
  <property name="kdenlive:original.seekable">1</property>
  <property name="kdenlive:original.width">1920</property>
  <property name="kdenlive:original.height">1080</property>
  <property name="kdenlive:original.meta.media.sample_aspect_num">1</property>
  <property name="kdenlive:original.meta.media.sample_aspect_den">1</property>
  <property name="kdenlive:original.aspect_ratio">1</property>
  <property name="kdenlive:original.audio_index">1</property>
  <property name="kdenlive:original.video_index">0</property>
  <property name="kdenlive:original.mute_on_pause">0</property>
  <property name="kdenlive:original.mlt_service">avformat-novalidate</property>
  <property name="kdenlive:original.kdenlive:folderid">65</property>
  <property name="kdenlive:original.meta.media.frame_rate_num">1561770000</property>
  <property name="kdenlive:original.meta.media.frame_rate_den">26055529</property>
  <property name="kdenlive:original.meta.media.colorspace">709</property>
  <property name="kdenlive:original.meta.media.color_trc">2</property>
  <property name="kdenlive:original.meta.media.width">1920</property>
  <property name="kdenlive:original.meta.media.height">1080</property>
  <property name="kdenlive:original.meta.media.color_range">mpeg</property>
  <property name="kdenlive:original.kdenlive:id">129</property>
  <property name="kdenlive:original.kdenlive:file_size">920565421</property>
  <property name="kdenlive:original.kdenlive:file_hash">22894985720761a019cfbc8ecf6432e1</property>
  <property name="kdenlive:original.backup">1</property>
  <property name="kdenlive:audio_max">4</property>
  <property name="global_feed">1</property>
  <property name="kdenlive:activeeffect">0</property>
  <property name="xml">was here</property>
  <property name="meta.media.nb_streams">2</property>
  <property name="meta.media.0.stream.type">video</property>
  <property name="meta.media.0.stream.frame_rate">59.9401</property>
  <property name="meta.media.0.stream.sample_aspect_ratio">1</property>
  <property name="meta.media.0.codec.width">640</property>
  <property name="meta.media.0.codec.height">360</property>
  <property name="meta.media.0.codec.rotate">0</property>
  <property name="meta.media.0.codec.frame_rate">1000</property>
  <property name="meta.media.0.codec.pix_fmt">yuvj420p</property>
  <property name="meta.media.0.codec.sample_aspect_ratio">1</property>
  <property name="meta.media.0.codec.colorspace">601</property>
  <property name="meta.media.0.codec.name">mjpeg</property>
  <property name="meta.media.0.codec.long_name">MJPEG (Motion JPEG)</property>
  <property name="meta.media.0.codec.bit_rate">0</property>
  <property name="meta.attr.0.stream.HANDLER_NAME.markup">VideoHandler</property>
  <property name="meta.attr.0.stream.VENDOR_ID.markup">[0][0][0][0]</property>
  <property name="meta.attr.0.stream.ENCODER.markup">Lavc58.134.100 mjpeg</property>
  <property name="meta.attr.0.stream.DURATION.markup">00:04:50.624000000</property>
  <property name="meta.media.1.stream.type">audio</property>
  <property name="meta.media.1.codec.sample_fmt">s16</property>
  <property name="meta.media.1.codec.sample_rate">48000</property>
  <property name="meta.media.1.codec.channels">6</property>
  <property name="meta.media.1.codec.name">pcm_s16le</property>
  <property name="meta.media.1.codec.long_name">PCM signed 16-bit little-endian</property>
  <property name="meta.media.1.codec.bit_rate">4608000</property>
  <property name="meta.attr.1.stream.HANDLER_NAME.markup">SoundHandler</property>
  <property name="meta.attr.1.stream.VENDOR_ID.markup">[0][0][0][0]</property>
  <property name="meta.attr.1.stream.ENCODER.markup">Lavc58.134.100 pcm_s16le</property>
  <property name="meta.attr.1.stream.DURATION.markup">00:04:50.624000000</property>
  <property name="meta.attr.COMPATIBLE_BRANDS.markup">isomiso2avc1mp41</property>
  <property name="meta.attr.MAJOR_BRAND.markup">isom</property>
  <property name="meta.attr.MINOR_VERSION.markup">512</property>
  <property name="meta.attr.ENCODER.markup">Lavf58.76.100</property>
  <property name="meta.media.sample_aspect_num">1</property>
  <property name="meta.media.sample_aspect_den">1</property>
  <property name="meta.media.frame_rate_num">19001</property>
  <property name="meta.media.frame_rate_den">317</property>
  <property name="meta.media.colorspace">601</property>
  <property name="meta.media.color_trc">2</property>
  <property name="meta.media.width">640</property>
  <property name="meta.media.height">360</property>
  <property name="meta.media.color_range">full</property>
  <property name="meta.media.top_field_first">0</property>
  <property name="meta.media.progressive">1</property>
  <property name="set.test_audio">1</property>
  <property name="set.test_image">0</property>
 </producer>
 <playlist id="playlist32">
  <blank length="00:00:51.233"/>
  <entry producer="producer46" in="00:00:52.600" out="00:00:57.267">
   <property name="kdenlive:id">11</property>
   <filter id="filter211" in="00:00:52.600" out="00:00:53.233">
    <property name="start">0</property>
    <property name="mlt_service">brightness</property>
    <property name="kdenlive_id">fade_from_black</property>
    <property name="end">1</property>
    <property name="alpha">-1</property>
    <property name="kdenlive:collapsed">0</property>
   </filter>
  </entry>
  <entry producer="producer46" in="00:00:57.300" out="00:00:58.533">
   <property name="kdenlive:id">11</property>
  </entry>
  <entry producer="producer46" in="00:00:58.567" out="00:02:11.333">
   <property name="kdenlive:id">11</property>
  </entry>
  <entry producer="producer173" in="00:02:11.367" out="00:02:47.300">
   <property name="kdenlive:id">11</property>
   <filter id="filter212">
    <property name="version">0.2</property>
    <property name="mlt_service">frei0r.alphagrad</property>
    <property name="kdenlive_id">frei0r.alphagrad</property>
    <property name="Position">00:02:11.367=0.657</property>
    <property name="Transition width">00:02:11.367=0.058</property>
    <property name="Tilt">00:02:11.367=0.194</property>
    <property name="Min">00:02:11.367=0</property>
    <property name="Max">00:02:11.367=1</property>
    <property name="Operation">0.5</property>
    <property name="kdenlive:collapsed">0</property>
   </filter>
   <filter id="filter213">
    <property name="rotate_center">1</property>
    <property name="mlt_service">qtblend</property>
    <property name="kdenlive_id">qtblend</property>
    <property name="rect">00:02:11.367=769 -112 1728 972 1.000000</property>
    <property name="rotation">00:02:11.367=0</property>
    <property name="compositing">0</property>
    <property name="distort">0</property>
    <property name="kdenlive:collapsed">0</property>
   </filter>
   <filter id="filter214" in="00:02:43.667" out="00:02:47.300">
    <property name="start">1</property>
    <property name="mlt_service">brightness</property>
    <property name="kdenlive_id">fade_to_black</property>
    <property name="end">0</property>
    <property name="alpha">-1</property>
    <property name="kdenlive:collapsed">0</property>
   </filter>
  </entry>
  <blank length="00:01:05.600"/>
  <entry producer="producer174" in="00:03:41.000" out="00:03:49.433">
   <property name="kdenlive:id">27</property>
   <filter id="filter215" in="00:03:41.000" out="00:03:42.233">
    <property name="start">0</property>
    <property name="mlt_service">brightness</property>
    <property name="kdenlive_id">fade_from_black</property>
    <property name="end">1</property>
    <property name="alpha">-1</property>
   </filter>
   <filter id="filter216" in="00:03:48.433" out="00:03:49.433">
    <property name="start">1</property>
    <property name="mlt_service">brightness</property>
    <property name="kdenlive_id">fade_to_black</property>
    <property name="end">0</property>
    <property name="alpha">-1</property>
   </filter>
  </entry>
  <entry producer="producer42" in="00:03:49.467" out="00:04:02.300">
   <property name="kdenlive:id">27</property>
  </entry>
  <entry producer="producer175" in="00:04:02.333" out="00:04:06.000">
   <property name="kdenlive:id">27</property>
   <filter id="filter217" in="00:04:02.333" out="00:04:03.400">
    <property name="start">0</property>
    <property name="mlt_service">brightness</property>
    <property name="kdenlive_id">fade_from_black</property>
    <property name="end">1</property>
    <property name="alpha">-1</property>
    <property name="kdenlive:collapsed">0</property>
   </filter>
   <filter id="filter218" in="00:04:05.700" out="00:04:06.000">
    <property name="start">1</property>
    <property name="mlt_service">brightness</property>
    <property name="kdenlive_id">fade_to_black</property>
    <property name="end">0</property>
    <property name="alpha">-1</property>
   </filter>
  </entry>
  <entry producer="producer42" in="00:04:06.033" out="00:04:18.300">
   <property name="kdenlive:id">27</property>
  </entry>
  <entry producer="producer176" in="00:04:18.333" out="00:04:43.167">
   <property name="kdenlive:id">27</property>
   <filter id="filter219" in="00:04:18.333" out="00:04:19.733">
    <property name="start">0</property>
    <property name="mlt_service">brightness</property>
    <property name="kdenlive_id">fade_from_black</property>
    <property name="end">1</property>
    <property name="alpha">-1</property>
   </filter>
   <filter id="filter220" in="00:04:42.100" out="00:04:43.167">
    <property name="start">1</property>
    <property name="mlt_service">brightness</property>
    <property name="kdenlive_id">fade_to_black</property>
    <property name="end">0</property>
    <property name="alpha">-1</property>
   </filter>
  </entry>
  <entry producer="producer42" in="00:04:43.200" out="00:04:50.600">
   <property name="kdenlive:id">27</property>
  </entry>
 </playlist>
 <playlist id="playlist33"/>
 <tractor id="tractor16" in="00:00:00.000" out="00:05:01.167">
  <property name="kdenlive:trackheight">69</property>
  <property name="kdenlive:timeline_active">0</property>
  <property name="kdenlive:collapsed">28</property>
  <property name="kdenlive:track_name">Chris-piano</property>
  <property name="kdenlive:thumbs_format"/>
  <property name="kdenlive:audio_rec"/>
  <property name="kdenlive:locked_track">1</property>
  <track hide="both" producer="playlist32"/>
  <track producer="playlist33"/>
 </tractor>
 <producer id="producer177" in="00:00:00.000" out="00:01:32.100">
  <property name="length">2764</property>
  <property name="eof">pause</property>
  <property name="resource">content/Chris_piano_on_black_v2.mp4</property>
  <property name="audio_index">-1</property>
  <property name="video_index">0</property>
  <property name="mute_on_pause">0</property>
  <property name="mlt_service">avformat-novalidate</property>
  <property name="seekable">1</property>
  <property name="aspect_ratio">1</property>
  <property name="kdenlive:clipname">Chris_piano_on_black_v2.mp4</property>
  <property name="kdenlive:folderid">65</property>
  <property name="kdenlive:id">28</property>
  <property name="kdenlive:file_size">29271579</property>
  <property name="kdenlive:file_hash">86c2e51a4b5218f3f82ee84239f84983</property>
  <property name="kdenlive:proxy">-</property>
  <property name="kdenlive:originalurl">content/Chris_piano_on_black_v2.mp4</property>
  <property name="kdenlive:original.mlt_type">producer</property>
  <property name="kdenlive:original.in">0</property>
  <property name="kdenlive:original.out">2763</property>
  <property name="kdenlive:original.length">2764</property>
  <property name="kdenlive:original.eof">pause</property>
  <property name="kdenlive:original.resource">content/Chris_piano_on_black_v2.mp4</property>
  <property name="kdenlive:original.meta.media.nb_streams">1</property>
  <property name="kdenlive:original.meta.media.0.stream.type">video</property>
  <property name="kdenlive:original.meta.media.0.stream.frame_rate">29.97</property>
  <property name="kdenlive:original.meta.media.0.stream.sample_aspect_ratio">1</property>
  <property name="kdenlive:original.meta.media.0.codec.width">1920</property>
  <property name="kdenlive:original.meta.media.0.codec.height">1080</property>
  <property name="kdenlive:original.meta.media.0.codec.rotate">0</property>
  <property name="kdenlive:original.meta.media.0.codec.frame_rate">29.97</property>
  <property name="kdenlive:original.meta.media.0.codec.pix_fmt">yuv422p</property>
  <property name="kdenlive:original.meta.media.0.codec.sample_aspect_ratio">1</property>
  <property name="kdenlive:original.meta.media.0.codec.colorspace">709</property>
  <property name="kdenlive:original.meta.media.0.codec.color_trc">1</property>
  <property name="kdenlive:original.meta.media.0.codec.name">h264</property>
  <property name="kdenlive:original.meta.media.0.codec.long_name">H.264 / AVC / MPEG-4 AVC / MPEG-4 part 10</property>
  <property name="kdenlive:original.meta.media.0.codec.bit_rate">2540812</property>
  <property name="kdenlive:original.meta.attr.0.stream.handler_name.markup">VideoHandler</property>
  <property name="kdenlive:original.meta.attr.0.stream.vendor_id.markup">[0][0][0][0]</property>
  <property name="kdenlive:original.meta.attr.major_brand.markup">isom</property>
  <property name="kdenlive:original.meta.attr.minor_version.markup">512</property>
  <property name="kdenlive:original.meta.attr.compatible_brands.markup">isomiso2avc1mp41</property>
  <property name="kdenlive:original.meta.attr.encoder.markup">Lavf58.76.100</property>
  <property name="kdenlive:original.seekable">1</property>
  <property name="kdenlive:original.width">1920</property>
  <property name="kdenlive:original.height">1080</property>
  <property name="kdenlive:original.meta.media.sample_aspect_num">1</property>
  <property name="kdenlive:original.meta.media.sample_aspect_den">1</property>
  <property name="kdenlive:original.aspect_ratio">1</property>
  <property name="kdenlive:original.audio_index">-1</property>
  <property name="kdenlive:original.video_index">0</property>
  <property name="kdenlive:original.mute_on_pause">0</property>
  <property name="kdenlive:original.mlt_service">avformat-novalidate</property>
  <property name="kdenlive:original.kdenlive:folderid">65</property>
  <property name="kdenlive:original.meta.media.frame_rate_num">30000</property>
  <property name="kdenlive:original.meta.media.frame_rate_den">1001</property>
  <property name="kdenlive:original.meta.media.colorspace">709</property>
  <property name="kdenlive:original.meta.media.color_trc">1</property>
  <property name="kdenlive:original.meta.media.width">1920</property>
  <property name="kdenlive:original.meta.media.height">1080</property>
  <property name="kdenlive:original.meta.media.color_range">mpeg</property>
  <property name="kdenlive:original.kdenlive:id">128</property>
  <property name="kdenlive:original.kdenlive:file_size">29271579</property>
  <property name="kdenlive:original.kdenlive:file_hash">86c2e51a4b5218f3f82ee84239f84983</property>
  <property name="kdenlive:original.backup">1</property>
  <property name="global_feed">1</property>
  <property name="kdenlive:activeeffect">0</property>
  <property name="xml">was here</property>
  <property name="meta.media.nb_streams">1</property>
  <property name="meta.media.0.stream.type">video</property>
  <property name="meta.media.0.stream.frame_rate">29.97</property>
  <property name="meta.media.0.stream.sample_aspect_ratio">1</property>
  <property name="meta.media.0.codec.width">640</property>
  <property name="meta.media.0.codec.height">360</property>
  <property name="meta.media.0.codec.rotate">0</property>
  <property name="meta.media.0.codec.frame_rate">1000</property>
  <property name="meta.media.0.codec.pix_fmt">yuvj422p</property>
  <property name="meta.media.0.codec.sample_aspect_ratio">1</property>
  <property name="meta.media.0.codec.colorspace">601</property>
  <property name="meta.media.0.codec.color_trc">1</property>
  <property name="meta.media.0.codec.name">mjpeg</property>
  <property name="meta.media.0.codec.long_name">MJPEG (Motion JPEG)</property>
  <property name="meta.media.0.codec.bit_rate">0</property>
  <property name="meta.attr.0.stream.HANDLER_NAME.markup">VideoHandler</property>
  <property name="meta.attr.0.stream.VENDOR_ID.markup">[0][0][0][0]</property>
  <property name="meta.attr.0.stream.ENCODER.markup">Lavc58.134.100 mjpeg</property>
  <property name="meta.attr.0.stream.DURATION.markup">00:01:32.125000000</property>
  <property name="meta.attr.COMPATIBLE_BRANDS.markup">isomiso2avc1mp41</property>
  <property name="meta.attr.MAJOR_BRAND.markup">isom</property>
  <property name="meta.attr.MINOR_VERSION.markup">512</property>
  <property name="meta.attr.ENCODER.markup">Lavf58.76.100</property>
  <property name="meta.media.sample_aspect_num">1</property>
  <property name="meta.media.sample_aspect_den">1</property>
  <property name="meta.media.frame_rate_num">30000</property>
  <property name="meta.media.frame_rate_den">1001</property>
  <property name="meta.media.colorspace">601</property>
  <property name="meta.media.color_trc">1</property>
  <property name="meta.media.width">640</property>
  <property name="meta.media.height">360</property>
  <property name="meta.media.color_range">full</property>
  <property name="meta.media.top_field_first">0</property>
  <property name="meta.media.progressive">1</property>
  <property name="set.test_audio">1</property>
  <property name="set.test_image">0</property>
 </producer>
 <producer id="producer47" in="00:00:00.000" out="00:01:32.100">
  <property name="length">2764</property>
  <property name="eof">pause</property>
  <property name="resource">content/Chris_piano_on_black_v2.mp4</property>
  <property name="audio_index">-1</property>
  <property name="video_index">0</property>
  <property name="mute_on_pause">0</property>
  <property name="mlt_service">avformat-novalidate</property>
  <property name="seekable">1</property>
  <property name="aspect_ratio">1</property>
  <property name="kdenlive:clipname">Chris_piano_on_black_v2.mp4</property>
  <property name="kdenlive:folderid">65</property>
  <property name="kdenlive:id">28</property>
  <property name="kdenlive:file_size">29271579</property>
  <property name="kdenlive:file_hash">86c2e51a4b5218f3f82ee84239f84983</property>
  <property name="kdenlive:proxy">-</property>
  <property name="kdenlive:originalurl">content/Chris_piano_on_black_v2.mp4</property>
  <property name="global_feed">1</property>
  <property name="kdenlive:activeeffect">0</property>
  <property name="xml">was here</property>
  <property name="meta.media.nb_streams">1</property>
  <property name="meta.media.0.stream.type">video</property>
  <property name="meta.media.0.stream.frame_rate">29.97</property>
  <property name="meta.media.0.stream.sample_aspect_ratio">1</property>
  <property name="meta.media.0.codec.width">1920</property>
  <property name="meta.media.0.codec.height">1080</property>
  <property name="meta.media.0.codec.rotate">0</property>
  <property name="meta.media.0.codec.frame_rate">29.97</property>
  <property name="meta.media.0.codec.pix_fmt">yuv422p</property>
  <property name="meta.media.0.codec.sample_aspect_ratio">1</property>
  <property name="meta.media.0.codec.colorspace">709</property>
  <property name="meta.media.0.codec.color_trc">1</property>
  <property name="meta.media.0.codec.name">h264</property>
  <property name="meta.media.0.codec.long_name">H.264 / AVC / MPEG-4 AVC / MPEG-4 part 10</property>
  <property name="meta.media.0.codec.bit_rate">2540812</property>
  <property name="meta.attr.0.stream.handler_name.markup">VideoHandler</property>
  <property name="meta.attr.major_brand.markup">isom</property>
  <property name="meta.attr.minor_version.markup">512</property>
  <property name="meta.attr.compatible_brands.markup">isomiso2avc1mp41</property>
  <property name="meta.attr.encoder.markup">Lavf58.76.100</property>
  <property name="meta.media.sample_aspect_num">1</property>
  <property name="meta.media.sample_aspect_den">1</property>
  <property name="meta.media.frame_rate_num">30000</property>
  <property name="meta.media.frame_rate_den">1001</property>
  <property name="meta.media.colorspace">709</property>
  <property name="meta.media.color_trc">1</property>
  <property name="meta.media.width">1920</property>
  <property name="meta.media.height">1080</property>
  <property name="meta.media.color_range">mpeg</property>
  <property name="set.test_audio">1</property>
  <property name="set.test_image">1</property>
  <filter id="filter169">
   <property name="version">0.3</property>
   <property name="mlt_service">frei0r.keyspillm0pup</property>
   <property name="kdenlive_id">frei0r.keyspillm0pup</property>
   <property name="Key color">0x26b371ff</property>
   <property name="Target color">0xC87F65ff</property>
   <property name="Mask type">0</property>
   <property name="Tolerance">00:00:00.000=0.288</property>
   <property name="Slope">00:00:00.000=0.305</property>
   <property name="Hue gate">00:00:00.000=0.164</property>
   <property name="Saturation threshold">00:00:00.000=0.073</property>
   <property name="Operation 1">1</property>
   <property name="Amount 1">00:00:00.000=0.5</property>
   <property name="Operation 2">3</property>
   <property name="Amount 2">00:00:00.000=0.294</property>
   <property name="Show mask">0</property>
   <property name="Mask to Alpha">0</property>
   <property name="kdenlive:collapsed">0</property>
  </filter>
 </producer>
 <producer id="producer179" in="00:00:00.000" out="00:01:32.100">
  <property name="length">2764</property>
  <property name="eof">pause</property>
  <property name="resource">content/Chris_piano_on_black_v2.mp4</property>
  <property name="audio_index">-1</property>
  <property name="video_index">0</property>
  <property name="mute_on_pause">0</property>
  <property name="mlt_service">avformat-novalidate</property>
  <property name="seekable">1</property>
  <property name="aspect_ratio">1</property>
  <property name="kdenlive:clipname">Chris_piano_on_black_v2.mp4</property>
  <property name="kdenlive:folderid">65</property>
  <property name="kdenlive:id">28</property>
  <property name="kdenlive:file_size">29271579</property>
  <property name="kdenlive:file_hash">86c2e51a4b5218f3f82ee84239f84983</property>
  <property name="kdenlive:proxy">-</property>
  <property name="kdenlive:originalurl">content/Chris_piano_on_black_v2.mp4</property>
  <property name="kdenlive:original.mlt_type">producer</property>
  <property name="kdenlive:original.in">0</property>
  <property name="kdenlive:original.out">2763</property>
  <property name="kdenlive:original.length">2764</property>
  <property name="kdenlive:original.eof">pause</property>
  <property name="kdenlive:original.resource">content/Chris_piano_on_black_v2.mp4</property>
  <property name="kdenlive:original.meta.media.nb_streams">1</property>
  <property name="kdenlive:original.meta.media.0.stream.type">video</property>
  <property name="kdenlive:original.meta.media.0.stream.frame_rate">29.97</property>
  <property name="kdenlive:original.meta.media.0.stream.sample_aspect_ratio">1</property>
  <property name="kdenlive:original.meta.media.0.codec.width">1920</property>
  <property name="kdenlive:original.meta.media.0.codec.height">1080</property>
  <property name="kdenlive:original.meta.media.0.codec.rotate">0</property>
  <property name="kdenlive:original.meta.media.0.codec.frame_rate">29.97</property>
  <property name="kdenlive:original.meta.media.0.codec.pix_fmt">yuv422p</property>
  <property name="kdenlive:original.meta.media.0.codec.sample_aspect_ratio">1</property>
  <property name="kdenlive:original.meta.media.0.codec.colorspace">709</property>
  <property name="kdenlive:original.meta.media.0.codec.color_trc">1</property>
  <property name="kdenlive:original.meta.media.0.codec.name">h264</property>
  <property name="kdenlive:original.meta.media.0.codec.long_name">H.264 / AVC / MPEG-4 AVC / MPEG-4 part 10</property>
  <property name="kdenlive:original.meta.media.0.codec.bit_rate">2540812</property>
  <property name="kdenlive:original.meta.attr.0.stream.handler_name.markup">VideoHandler</property>
  <property name="kdenlive:original.meta.attr.0.stream.vendor_id.markup">[0][0][0][0]</property>
  <property name="kdenlive:original.meta.attr.major_brand.markup">isom</property>
  <property name="kdenlive:original.meta.attr.minor_version.markup">512</property>
  <property name="kdenlive:original.meta.attr.compatible_brands.markup">isomiso2avc1mp41</property>
  <property name="kdenlive:original.meta.attr.encoder.markup">Lavf58.76.100</property>
  <property name="kdenlive:original.seekable">1</property>
  <property name="kdenlive:original.width">1920</property>
  <property name="kdenlive:original.height">1080</property>
  <property name="kdenlive:original.meta.media.sample_aspect_num">1</property>
  <property name="kdenlive:original.meta.media.sample_aspect_den">1</property>
  <property name="kdenlive:original.aspect_ratio">1</property>
  <property name="kdenlive:original.audio_index">-1</property>
  <property name="kdenlive:original.video_index">0</property>
  <property name="kdenlive:original.mute_on_pause">0</property>
  <property name="kdenlive:original.mlt_service">avformat-novalidate</property>
  <property name="kdenlive:original.kdenlive:folderid">65</property>
  <property name="kdenlive:original.meta.media.frame_rate_num">30000</property>
  <property name="kdenlive:original.meta.media.frame_rate_den">1001</property>
  <property name="kdenlive:original.meta.media.colorspace">709</property>
  <property name="kdenlive:original.meta.media.color_trc">1</property>
  <property name="kdenlive:original.meta.media.width">1920</property>
  <property name="kdenlive:original.meta.media.height">1080</property>
  <property name="kdenlive:original.meta.media.color_range">mpeg</property>
  <property name="kdenlive:original.kdenlive:id">128</property>
  <property name="kdenlive:original.kdenlive:file_size">29271579</property>
  <property name="kdenlive:original.kdenlive:file_hash">86c2e51a4b5218f3f82ee84239f84983</property>
  <property name="kdenlive:original.backup">1</property>
  <property name="global_feed">1</property>
  <property name="kdenlive:activeeffect">0</property>
  <property name="xml">was here</property>
  <property name="meta.media.nb_streams">1</property>
  <property name="meta.media.0.stream.type">video</property>
  <property name="meta.media.0.stream.frame_rate">29.97</property>
  <property name="meta.media.0.stream.sample_aspect_ratio">1</property>
  <property name="meta.media.0.codec.width">640</property>
  <property name="meta.media.0.codec.height">360</property>
  <property name="meta.media.0.codec.rotate">0</property>
  <property name="meta.media.0.codec.frame_rate">1000</property>
  <property name="meta.media.0.codec.pix_fmt">yuvj422p</property>
  <property name="meta.media.0.codec.sample_aspect_ratio">1</property>
  <property name="meta.media.0.codec.colorspace">601</property>
  <property name="meta.media.0.codec.color_trc">1</property>
  <property name="meta.media.0.codec.name">mjpeg</property>
  <property name="meta.media.0.codec.long_name">MJPEG (Motion JPEG)</property>
  <property name="meta.media.0.codec.bit_rate">0</property>
  <property name="meta.attr.0.stream.HANDLER_NAME.markup">VideoHandler</property>
  <property name="meta.attr.0.stream.VENDOR_ID.markup">[0][0][0][0]</property>
  <property name="meta.attr.0.stream.ENCODER.markup">Lavc58.134.100 mjpeg</property>
  <property name="meta.attr.0.stream.DURATION.markup">00:01:32.125000000</property>
  <property name="meta.attr.COMPATIBLE_BRANDS.markup">isomiso2avc1mp41</property>
  <property name="meta.attr.MAJOR_BRAND.markup">isom</property>
  <property name="meta.attr.MINOR_VERSION.markup">512</property>
  <property name="meta.attr.ENCODER.markup">Lavf58.76.100</property>
  <property name="meta.media.sample_aspect_num">1</property>
  <property name="meta.media.sample_aspect_den">1</property>
  <property name="meta.media.frame_rate_num">30000</property>
  <property name="meta.media.frame_rate_den">1001</property>
  <property name="meta.media.colorspace">601</property>
  <property name="meta.media.color_trc">1</property>
  <property name="meta.media.width">640</property>
  <property name="meta.media.height">360</property>
  <property name="meta.media.color_range">full</property>
  <property name="meta.media.top_field_first">0</property>
  <property name="meta.media.progressive">1</property>
  <property name="set.test_audio">1</property>
  <property name="set.test_image">0</property>
  <filter id="filter222">
   <property name="version">0.3</property>
   <property name="mlt_service">frei0r.keyspillm0pup</property>
   <property name="kdenlive_id">frei0r.keyspillm0pup</property>
   <property name="Key color">0x26b371ff</property>
   <property name="Target color">0xC87F65ff</property>
   <property name="Mask type">0</property>
   <property name="Tolerance">00:00:00.000=0.288</property>
   <property name="Slope">00:00:00.000=0.305</property>
   <property name="Hue gate">00:00:00.000=0.164</property>
   <property name="Saturation threshold">00:00:00.000=0.073</property>
   <property name="Operation 1">1</property>
   <property name="Amount 1">00:00:00.000=0.5</property>
   <property name="Operation 2">3</property>
   <property name="Amount 2">00:00:00.000=0.294</property>
   <property name="Show mask">0</property>
   <property name="Mask to Alpha">0</property>
  </filter>
 </producer>
 <playlist id="playlist34">
  <blank length="00:00:51.233"/>
  <entry producer="producer177" in="00:00:11.300" out="00:00:15.967">
   <property name="kdenlive:id">28</property>
   <filter id="filter223" in="00:00:15.267" out="00:00:15.967">
    <property name="start">1</property>
    <property name="mlt_service">brightness</property>
    <property name="kdenlive_id">fade_to_black</property>
    <property name="end">0</property>
    <property name="alpha">-1</property>
    <property name="kdenlive:collapsed">0</property>
   </filter>
   <filter id="filter224" in="00:00:11.300" out="00:00:12.867">
    <property name="start">0</property>
    <property name="mlt_service">brightness</property>
    <property name="kdenlive_id">fade_from_black</property>
    <property name="end">1</property>
    <property name="alpha">-1</property>
    <property name="kdenlive:collapsed">0</property>
   </filter>
   <filter id="filter225">
    <property name="smooth">00:00:11.300=1.23</property>
    <property name="radius">00:00:11.300=0.39</property>
    <property name="x">00:00:11.300=0.47</property>
    <property name="y">00:00:11.300=0.5</property>
    <property name="opacity">00:00:11.300=0</property>
    <property name="mode">0</property>
    <property name="mlt_service">vignette</property>
    <property name="kdenlive_id">vignette</property>
    <property name="kdenlive:collapsed">0</property>
   </filter>
  </entry>
  <entry producer="producer47" in="00:00:16.000" out="00:00:17.233">
   <property name="kdenlive:id">28</property>
  </entry>
  <entry producer="producer179" in="00:00:17.267" out="00:01:31.867">
   <property name="kdenlive:id">28</property>
   <filter id="filter226" in="00:00:17.267" out="00:00:17.767">
    <property name="start">0</property>
    <property name="mlt_service">brightness</property>
    <property name="kdenlive_id">fade_from_black</property>
    <property name="end">1</property>
    <property name="alpha">-1</property>
    <property name="kdenlive:collapsed">0</property>
   </filter>
   <filter id="filter227">
    <property name="smooth">00:00:17.267=1.23</property>
    <property name="radius">00:00:17.267=0.39</property>
    <property name="x">00:00:17.267=0.47</property>
    <property name="y">00:00:17.267=0.5</property>
    <property name="opacity">00:00:17.267=0</property>
    <property name="mode">0</property>
    <property name="mlt_service">vignette</property>
    <property name="kdenlive_id">vignette</property>
    <property name="kdenlive:collapsed">0</property>
   </filter>
   <filter id="filter228" in="00:01:30.667" out="00:01:31.867">
    <property name="start">1</property>
    <property name="mlt_service">brightness</property>
    <property name="kdenlive_id">fade_to_black</property>
    <property name="end">0</property>
    <property name="alpha">-1</property>
   </filter>
  </entry>
 </playlist>
 <playlist id="playlist35"/>
 <tractor id="tractor17" in="00:00:00.000" out="00:02:11.800">
  <property name="kdenlive:trackheight">69</property>
  <property name="kdenlive:timeline_active">1</property>
  <property name="kdenlive:collapsed">28</property>
  <property name="kdenlive:track_name">Chris-solo</property>
  <property name="kdenlive:thumbs_format"/>
  <property name="kdenlive:audio_rec"/>
  <property name="kdenlive:locked_track">1</property>
  <track hide="both" producer="playlist34"/>
  <track producer="playlist35"/>
 </tractor>
 <producer id="producer48" in="00:00:00.000" out="00:01:07.533">
  <property name="length">2027</property>
  <property name="eof">pause</property>
  <property name="resource">content/2021-06-02_Chris_synth+handheld_dhaivat_MVI_5996.MOV</property>
  <property name="audio_index">1</property>
  <property name="video_index">0</property>
  <property name="mute_on_pause">0</property>
  <property name="mlt_service">avformat-novalidate</property>
  <property name="seekable">1</property>
  <property name="aspect_ratio">1</property>
  <property name="kdenlive:clipname">2021-06-02_Chris_synth+handheld_dhaivat_MVI_5996.MOV</property>
  <property name="kdenlive:folderid">65</property>
  <property name="kdenlive:id">16</property>
  <property name="kdenlive:file_size">404841018</property>
  <property name="kdenlive:file_hash">545a096fa7298220f69d6ce050892a72</property>
  <property name="kdenlive:audio_max">1</property>
  <property name="kdenlive:zone_in">244</property>
  <property name="kdenlive:zone_out">553</property>
  <property name="kdenlive:clipzones">[
    {
        "in": 244,
        "name": "bass enterance",
        "out": 553
    }
]
</property>
  <property name="global_feed">1</property>
  <property name="kdenlive:proxy">-</property>
  <property name="kdenlive:originalurl">content/2021-06-02_Chris_synth+handheld_dhaivat_MVI_5996.MOV</property>
  <property name="kdenlive:active_streams">-1</property>
  <property name="kdenlive:activeeffect">2</property>
  <property name="xml">was here</property>
  <property name="meta.media.nb_streams">2</property>
  <property name="meta.media.0.stream.type">video</property>
  <property name="meta.media.0.stream.frame_rate">29.97</property>
  <property name="meta.media.0.stream.sample_aspect_ratio">0</property>
  <property name="meta.media.0.codec.width">1920</property>
  <property name="meta.media.0.codec.height">1080</property>
  <property name="meta.media.0.codec.rotate">0</property>
  <property name="meta.media.0.codec.frame_rate">30000</property>
  <property name="meta.media.0.codec.pix_fmt">yuvj420p</property>
  <property name="meta.media.0.codec.sample_aspect_ratio">0</property>
  <property name="meta.media.0.codec.colorspace">601</property>
  <property name="meta.media.0.codec.color_trc">1</property>
  <property name="meta.media.0.codec.name">h264</property>
  <property name="meta.media.0.codec.long_name">H.264 / AVC / MPEG-4 AVC / MPEG-4 part 10</property>
  <property name="meta.media.0.codec.bit_rate">46391413</property>
  <property name="meta.attr.0.stream.creation_time.markup">2021-06-02T15:26:38.000000Z</property>
  <property name="meta.attr.0.stream.language.markup">eng</property>
  <property name="meta.attr.0.stream.handler_name.markup">VideoHandler</property>
  <property name="meta.media.1.stream.type">audio</property>
  <property name="meta.media.1.codec.sample_fmt">s16</property>
  <property name="meta.media.1.codec.sample_rate">48000</property>
  <property name="meta.media.1.codec.channels">2</property>
  <property name="meta.media.1.codec.name">pcm_s16le</property>
  <property name="meta.media.1.codec.long_name">PCM signed 16-bit little-endian</property>
  <property name="meta.media.1.codec.bit_rate">1536000</property>
  <property name="meta.attr.1.stream.creation_time.markup">2021-06-02T15:26:38.000000Z</property>
  <property name="meta.attr.1.stream.language.markup">eng</property>
  <property name="meta.attr.1.stream.handler_name.markup">SoundHandler</property>
  <property name="meta.attr.major_brand.markup">qt  </property>
  <property name="meta.attr.minor_version.markup">512</property>
  <property name="meta.attr.compatible_brands.markup">qt  </property>
  <property name="meta.attr.creation_time.markup">2021-06-02T15:26:38.000000Z</property>
  <property name="meta.attr.encoder.markup">Lavf58.45.100</property>
  <property name="meta.media.sample_aspect_num">1</property>
  <property name="meta.media.sample_aspect_den">1</property>
  <property name="meta.media.frame_rate_num">30000</property>
  <property name="meta.media.frame_rate_den">1001</property>
  <property name="meta.media.colorspace">601</property>
  <property name="meta.media.color_trc">1</property>
  <property name="meta.media.width">1920</property>
  <property name="meta.media.height">1080</property>
  <property name="meta.media.color_range">full</property>
  <property name="set.test_audio">1</property>
  <property name="set.test_image">1</property>
  <filter id="filter170">
   <property name="version">0.6</property>
   <property name="mlt_service">frei0r.select0r</property>
   <property name="kdenlive_id">frei0r.select0r</property>
   <property name="Color to select">0x245a36ff</property>
   <property name="Invert selection">1</property>
   <property name="Selection subspace">1</property>
   <property name="Subspace shape">0.5</property>
   <property name="Edge mode">0.9</property>
   <property name="Delta R / A / Hue">00:00:00.000=0.079</property>
   <property name="Delta G / B / Chroma">00:00:00.000=0.133</property>
   <property name="Delta B / I / I">00:00:00.000=0.236</property>
   <property name="Slope">00:00:00.000=0.03</property>
   <property name="Operation">0.5</property>
   <property name="kdenlive:collapsed">0</property>
  </filter>
  <filter id="filter171">
   <property name="version">0.4</property>
   <property name="mlt_service">frei0r.alpha0ps</property>
   <property name="kdenlive_id">frei0r.alpha0ps</property>
   <property name="Display">0</property>
   <property name="Display input alpha">0</property>
   <property name="Operation">1</property>
   <property name="Threshold">00:00:00.000=0.5</property>
   <property name="Shrink/Grow/Blur amount">00:00:00.000=0.11</property>
   <property name="Invert">0</property>
   <property name="kdenlive:collapsed">0</property>
  </filter>
  <filter id="filter173">
   <property name="version">0.3</property>
   <property name="mlt_service">frei0r.keyspillm0pup</property>
   <property name="kdenlive_id">frei0r.keyspillm0pup</property>
   <property name="Key color">0x479d47ff</property>
   <property name="Target color">0xC87F65ff</property>
   <property name="Mask type">0</property>
   <property name="Tolerance">00:00:00.000=0.178</property>
   <property name="Slope">00:00:00.000=0.293</property>
   <property name="Hue gate">00:00:00.000=0.186</property>
   <property name="Saturation threshold">00:00:00.000=0.217</property>
   <property name="Operation 1">1</property>
   <property name="Amount 1">00:00:00.000=0.5</property>
   <property name="Operation 2">3</property>
   <property name="Amount 2">00:00:00.000=0.229</property>
   <property name="Show mask">0</property>
   <property name="Mask to Alpha">0</property>
   <property name="kdenlive:collapsed">0</property>
  </filter>
  <filter id="filter174">
   <property name="version">0.6</property>
   <property name="mlt_service">frei0r.select0r</property>
   <property name="kdenlive_id">frei0r.select0r</property>
   <property name="Color to select">0x245a36ff</property>
   <property name="Invert selection">1</property>
   <property name="Selection subspace">1</property>
   <property name="Subspace shape">0.5</property>
   <property name="Edge mode">0.9</property>
   <property name="Delta R / A / Hue">00:00:00.000=0.079</property>
   <property name="Delta G / B / Chroma">00:00:00.000=0.133</property>
   <property name="Delta B / I / I">00:00:00.000=0.236</property>
   <property name="Slope">00:00:00.000=0.03</property>
   <property name="Operation">0.5</property>
  </filter>
  <filter id="filter175">
   <property name="version">0.4</property>
   <property name="mlt_service">frei0r.alpha0ps</property>
   <property name="kdenlive_id">frei0r.alpha0ps</property>
   <property name="Display">0</property>
   <property name="Display input alpha">0</property>
   <property name="Operation">1</property>
   <property name="Threshold">00:00:00.000=0.5</property>
   <property name="Shrink/Grow/Blur amount">00:00:00.000=0.11</property>
   <property name="Invert">0</property>
  </filter>
  <filter id="filter176">
   <property name="version">0.3</property>
   <property name="mlt_service">frei0r.keyspillm0pup</property>
   <property name="kdenlive_id">frei0r.keyspillm0pup</property>
   <property name="Key color">0x479d47ff</property>
   <property name="Target color">0xC87F65ff</property>
   <property name="Mask type">0</property>
   <property name="Tolerance">00:00:00.000=0.178</property>
   <property name="Slope">00:00:00.000=0.293</property>
   <property name="Hue gate">00:00:00.000=0.186</property>
   <property name="Saturation threshold">00:00:00.000=0.217</property>
   <property name="Operation 1">1</property>
   <property name="Amount 1">00:00:00.000=0.5</property>
   <property name="Operation 2">3</property>
   <property name="Amount 2">00:00:00.000=0.229</property>
   <property name="Show mask">0</property>
   <property name="Mask to Alpha">0</property>
  </filter>
 </producer>
 <producer id="producer181" in="00:00:00.000" out="00:01:07.533">
  <property name="length">2027</property>
  <property name="eof">pause</property>
  <property name="resource">content/2021-06-02_Chris_synth+handheld_dhaivat_MVI_5996.MOV</property>
  <property name="audio_index">1</property>
  <property name="video_index">0</property>
  <property name="mute_on_pause">0</property>
  <property name="mlt_service">avformat-novalidate</property>
  <property name="seekable">1</property>
  <property name="aspect_ratio">1</property>
  <property name="kdenlive:clipname">2021-06-02_Chris_synth+handheld_dhaivat_MVI_5996.MOV</property>
  <property name="kdenlive:folderid">65</property>
  <property name="kdenlive:id">16</property>
  <property name="kdenlive:file_size">404841018</property>
  <property name="kdenlive:file_hash">545a096fa7298220f69d6ce050892a72</property>
  <property name="kdenlive:audio_max">1</property>
  <property name="kdenlive:zone_in">244</property>
  <property name="kdenlive:zone_out">553</property>
  <property name="kdenlive:clipzones">[
    {
        "in": 244,
        "name": "bass enterance",
        "out": 553
    }
]
</property>
  <property name="global_feed">1</property>
  <property name="kdenlive:proxy">-</property>
  <property name="kdenlive:originalurl">content/2021-06-02_Chris_synth+handheld_dhaivat_MVI_5996.MOV</property>
  <property name="kdenlive:original.mlt_type">mlt_producer</property>
  <property name="kdenlive:original.in">00:00:00.000</property>
  <property name="kdenlive:original.out">00:01:07.533</property>
  <property name="kdenlive:original.length">2027</property>
  <property name="kdenlive:original.eof">pause</property>
  <property name="kdenlive:original.resource">content/2021-06-02_Chris_synth+handheld_dhaivat_MVI_5996.MOV</property>
  <property name="kdenlive:original.meta.media.nb_streams">2</property>
  <property name="kdenlive:original.meta.media.0.stream.type">video</property>
  <property name="kdenlive:original.meta.media.0.stream.frame_rate">29.97</property>
  <property name="kdenlive:original.meta.media.0.stream.sample_aspect_ratio">0</property>
  <property name="kdenlive:original.meta.media.0.codec.width">1920</property>
  <property name="kdenlive:original.meta.media.0.codec.height">1080</property>
  <property name="kdenlive:original.meta.media.0.codec.rotate">0</property>
  <property name="kdenlive:original.meta.media.0.codec.frame_rate">30000</property>
  <property name="kdenlive:original.meta.media.0.codec.pix_fmt">yuvj420p</property>
  <property name="kdenlive:original.meta.media.0.codec.sample_aspect_ratio">0</property>
  <property name="kdenlive:original.meta.media.0.codec.colorspace">601</property>
  <property name="kdenlive:original.meta.media.0.codec.color_trc">1</property>
  <property name="kdenlive:original.meta.media.0.codec.name">h264</property>
  <property name="kdenlive:original.meta.media.0.codec.long_name">H.264 / AVC / MPEG-4 AVC / MPEG-4 part 10</property>
  <property name="kdenlive:original.meta.media.0.codec.bit_rate">46391413</property>
  <property name="kdenlive:original.meta.attr.0.stream.creation_time.markup">2021-06-02T15:26:38.000000Z</property>
  <property name="kdenlive:original.meta.attr.0.stream.language.markup">eng</property>
  <property name="kdenlive:original.meta.attr.0.stream.handler_name.markup">VideoHandler</property>
  <property name="kdenlive:original.meta.attr.0.stream.vendor_id.markup">FFMP</property>
  <property name="kdenlive:original.meta.media.1.stream.type">audio</property>
  <property name="kdenlive:original.meta.media.1.codec.sample_fmt">s16</property>
  <property name="kdenlive:original.meta.media.1.codec.sample_rate">48000</property>
  <property name="kdenlive:original.meta.media.1.codec.channels">2</property>
  <property name="kdenlive:original.meta.media.1.codec.name">pcm_s16le</property>
  <property name="kdenlive:original.meta.media.1.codec.long_name">PCM signed 16-bit little-endian</property>
  <property name="kdenlive:original.meta.media.1.codec.bit_rate">1536000</property>
  <property name="kdenlive:original.meta.attr.1.stream.creation_time.markup">2021-06-02T15:26:38.000000Z</property>
  <property name="kdenlive:original.meta.attr.1.stream.language.markup">eng</property>
  <property name="kdenlive:original.meta.attr.1.stream.handler_name.markup">SoundHandler</property>
  <property name="kdenlive:original.meta.attr.1.stream.vendor_id.markup">[0][0][0][0]</property>
  <property name="kdenlive:original.meta.attr.major_brand.markup">qt  </property>
  <property name="kdenlive:original.meta.attr.minor_version.markup">512</property>
  <property name="kdenlive:original.meta.attr.compatible_brands.markup">qt  </property>
  <property name="kdenlive:original.meta.attr.creation_time.markup">2021-06-02T15:26:38.000000Z</property>
  <property name="kdenlive:original.meta.attr.encoder.markup">Lavf58.45.100</property>
  <property name="kdenlive:original.seekable">1</property>
  <property name="kdenlive:original.width">1920</property>
  <property name="kdenlive:original.height">1080</property>
  <property name="kdenlive:original.meta.media.sample_aspect_num">1</property>
  <property name="kdenlive:original.meta.media.sample_aspect_den">1</property>
  <property name="kdenlive:original.aspect_ratio">1</property>
  <property name="kdenlive:original.audio_index">1</property>
  <property name="kdenlive:original.video_index">0</property>
  <property name="kdenlive:original.mute_on_pause">0</property>
  <property name="kdenlive:original.mlt_service">avformat-novalidate</property>
  <property name="kdenlive:original.kdenlive:folderid">65</property>
  <property name="kdenlive:original.meta.media.frame_rate_num">30000</property>
  <property name="kdenlive:original.meta.media.frame_rate_den">1001</property>
  <property name="kdenlive:original.meta.media.colorspace">601</property>
  <property name="kdenlive:original.meta.media.color_trc">1</property>
  <property name="kdenlive:original.meta.media.width">1920</property>
  <property name="kdenlive:original.meta.media.height">1080</property>
  <property name="kdenlive:original.meta.media.color_range">full</property>
  <property name="kdenlive:original.kdenlive:id">71</property>
  <property name="kdenlive:original.kdenlive:file_size">404841018</property>
  <property name="kdenlive:original.kdenlive:file_hash">545a096fa7298220f69d6ce050892a72</property>
  <property name="kdenlive:original.kdenlive:audio_max">1</property>
  <property name="kdenlive:original.meta.media.top_field_first">0</property>
  <property name="kdenlive:original.meta.media.progressive">1</property>
  <property name="kdenlive:original.kdenlive:zone_in">244</property>
  <property name="kdenlive:original.kdenlive:zone_out">553</property>
  <property name="kdenlive:original.kdenlive:clipzones">[
    {
        "in": 244,
        "name": "bass enterance",
        "out": 553
    }
]
</property>
  <property name="kdenlive:original.root">/</property>
  <property name="kdenlive:original.global_feed">1</property>
  <property name="kdenlive:original.backup">1</property>
  <property name="kdenlive:active_streams">-1</property>
  <property name="kdenlive:activeeffect">2</property>
  <property name="xml">was here</property>
  <property name="meta.media.nb_streams">2</property>
  <property name="meta.media.0.stream.type">video</property>
  <property name="meta.media.0.stream.frame_rate">29.97</property>
  <property name="meta.media.0.stream.sample_aspect_ratio">0</property>
  <property name="meta.media.0.codec.width">640</property>
  <property name="meta.media.0.codec.height">360</property>
  <property name="meta.media.0.codec.rotate">0</property>
  <property name="meta.media.0.codec.frame_rate">1000</property>
  <property name="meta.media.0.codec.pix_fmt">yuvj420p</property>
  <property name="meta.media.0.codec.sample_aspect_ratio">0</property>
  <property name="meta.media.0.codec.colorspace">601</property>
  <property name="meta.media.0.codec.color_trc">1</property>
  <property name="meta.media.0.codec.name">mjpeg</property>
  <property name="meta.media.0.codec.long_name">MJPEG (Motion JPEG)</property>
  <property name="meta.media.0.codec.bit_rate">0</property>
  <property name="meta.attr.0.stream.language.markup">eng</property>
  <property name="meta.attr.0.stream.HANDLER_NAME.markup">VideoHandler</property>
  <property name="meta.attr.0.stream.VENDOR_ID.markup">FFMP</property>
  <property name="meta.attr.0.stream.ENCODER.markup">Lavc58.134.100 mjpeg</property>
  <property name="meta.attr.0.stream.DURATION.markup">00:01:07.567000000</property>
  <property name="meta.media.1.stream.type">audio</property>
  <property name="meta.media.1.codec.sample_fmt">s16</property>
  <property name="meta.media.1.codec.sample_rate">48000</property>
  <property name="meta.media.1.codec.channels">2</property>
  <property name="meta.media.1.codec.name">pcm_s16le</property>
  <property name="meta.media.1.codec.long_name">PCM signed 16-bit little-endian</property>
  <property name="meta.media.1.codec.bit_rate">1536000</property>
  <property name="meta.attr.1.stream.language.markup">eng</property>
  <property name="meta.attr.1.stream.HANDLER_NAME.markup">SoundHandler</property>
  <property name="meta.attr.1.stream.VENDOR_ID.markup">[0][0][0][0]</property>
  <property name="meta.attr.1.stream.ENCODER.markup">Lavc58.134.100 pcm_s16le</property>
  <property name="meta.attr.1.stream.DURATION.markup">00:01:07.578000000</property>
  <property name="meta.attr.COMPATIBLE_BRANDS.markup">qt  </property>
  <property name="meta.attr.MAJOR_BRAND.markup">qt  </property>
  <property name="meta.attr.MINOR_VERSION.markup">512</property>
  <property name="meta.attr.ENCODER.markup">Lavf58.76.100</property>
  <property name="meta.media.sample_aspect_num">1</property>
  <property name="meta.media.sample_aspect_den">1</property>
  <property name="meta.media.frame_rate_num">30000</property>
  <property name="meta.media.frame_rate_den">1001</property>
  <property name="meta.media.colorspace">601</property>
  <property name="meta.media.color_trc">1</property>
  <property name="meta.media.width">640</property>
  <property name="meta.media.height">360</property>
  <property name="meta.media.color_range">full</property>
  <property name="meta.media.top_field_first">0</property>
  <property name="meta.media.progressive">1</property>
  <property name="set.test_audio">1</property>
  <property name="set.test_image">0</property>
 </producer>
 <producer id="producer182" in="00:00:00.000" out="00:04:43.367">
  <property name="length">8502</property>
  <property name="eof">pause</property>
  <property name="resource">content/2021-06-02_Sarah_kit_dhaivat_00047-take3.mp4</property>
  <property name="audio_index">1</property>
  <property name="video_index">0</property>
  <property name="mute_on_pause">0</property>
  <property name="mlt_service">avformat-novalidate</property>
  <property name="seekable">1</property>
  <property name="aspect_ratio">1.33333</property>
  <property name="kdenlive:clipname">2021-06-02_Sarah_kit_dhaivat_00047-take3.mp4</property>
  <property name="kdenlive:folderid">65</property>
  <property name="kdenlive:id">17</property>
  <property name="kdenlive:file_size">246213435</property>
  <property name="kdenlive:file_hash">8e0fee6ab252be9858879a9b0e052dc2</property>
  <property name="kdenlive:audio_max">1</property>
  <property name="kdenlive:zone_in">299</property>
  <property name="kdenlive:zone_out">581</property>
  <property name="kdenlive:clipzones">[
    {
        "in": 299,
        "name": "opening fill",
        "out": 581
    }
]
</property>
  <property name="global_feed">1</property>
  <property name="kdenlive:proxy">-</property>
  <property name="kdenlive:originalurl">content/2021-06-02_Sarah_kit_dhaivat_00047-take3.mp4</property>
  <property name="kdenlive:original.mlt_type">mlt_producer</property>
  <property name="kdenlive:original.in">00:00:00.000</property>
  <property name="kdenlive:original.out">00:04:43.367</property>
  <property name="kdenlive:original.length">8502</property>
  <property name="kdenlive:original.eof">pause</property>
  <property name="kdenlive:original.resource">content/2021-06-02_Sarah_kit_dhaivat_00047-take3.mp4</property>
  <property name="kdenlive:original.meta.media.nb_streams">2</property>
  <property name="kdenlive:original.meta.media.0.stream.type">video</property>
  <property name="kdenlive:original.meta.media.0.stream.frame_rate">59.9401</property>
  <property name="kdenlive:original.meta.media.0.stream.sample_aspect_ratio">1.33333</property>
  <property name="kdenlive:original.meta.media.0.codec.width">1440</property>
  <property name="kdenlive:original.meta.media.0.codec.height">1080</property>
  <property name="kdenlive:original.meta.media.0.codec.rotate">0</property>
  <property name="kdenlive:original.meta.media.0.codec.frame_rate">29.97</property>
  <property name="kdenlive:original.meta.media.0.codec.pix_fmt">yuv420p</property>
  <property name="kdenlive:original.meta.media.0.codec.sample_aspect_ratio">1.33333</property>
  <property name="kdenlive:original.meta.media.0.codec.colorspace">709</property>
  <property name="kdenlive:original.meta.media.0.codec.name">h264</property>
  <property name="kdenlive:original.meta.media.0.codec.long_name">H.264 / AVC / MPEG-4 AVC / MPEG-4 part 10</property>
  <property name="kdenlive:original.meta.media.0.codec.bit_rate">6688996</property>
  <property name="kdenlive:original.meta.attr.0.stream.handler_name.markup">VideoHandler</property>
  <property name="kdenlive:original.meta.attr.0.stream.vendor_id.markup">[0][0][0][0]</property>
  <property name="kdenlive:original.meta.media.1.stream.type">audio</property>
  <property name="kdenlive:original.meta.media.1.codec.sample_fmt">fltp</property>
  <property name="kdenlive:original.meta.media.1.codec.sample_rate">48000</property>
  <property name="kdenlive:original.meta.media.1.codec.channels">2</property>
  <property name="kdenlive:original.meta.media.1.codec.name">ac3</property>
  <property name="kdenlive:original.meta.media.1.codec.long_name">ATSC A/52A (AC-3)</property>
  <property name="kdenlive:original.meta.media.1.codec.bit_rate">256000</property>
  <property name="kdenlive:original.meta.attr.1.stream.handler_name.markup">SoundHandler</property>
  <property name="kdenlive:original.meta.attr.1.stream.vendor_id.markup">[0][0][0][0]</property>
  <property name="kdenlive:original.meta.attr.major_brand.markup">isom</property>
  <property name="kdenlive:original.meta.attr.minor_version.markup">512</property>
  <property name="kdenlive:original.meta.attr.compatible_brands.markup">isomiso2avc1mp41</property>
  <property name="kdenlive:original.meta.attr.encoder.markup">Lavf58.45.100</property>
  <property name="kdenlive:original.seekable">1</property>
  <property name="kdenlive:original.width">1440</property>
  <property name="kdenlive:original.height">1080</property>
  <property name="kdenlive:original.meta.media.sample_aspect_num">4</property>
  <property name="kdenlive:original.meta.media.sample_aspect_den">3</property>
  <property name="kdenlive:original.aspect_ratio">1.33333</property>
  <property name="kdenlive:original.audio_index">1</property>
  <property name="kdenlive:original.video_index">0</property>
  <property name="kdenlive:original.mute_on_pause">0</property>
  <property name="kdenlive:original.mlt_service">avformat-novalidate</property>
  <property name="kdenlive:original.kdenlive:folderid">65</property>
  <property name="kdenlive:original.meta.media.frame_rate_num">60000</property>
  <property name="kdenlive:original.meta.media.frame_rate_den">1001</property>
  <property name="kdenlive:original.meta.media.colorspace">709</property>
  <property name="kdenlive:original.meta.media.color_trc">2</property>
  <property name="kdenlive:original.meta.media.width">1440</property>
  <property name="kdenlive:original.meta.media.height">1080</property>
  <property name="kdenlive:original.meta.media.color_range">mpeg</property>
  <property name="kdenlive:original.kdenlive:id">76</property>
  <property name="kdenlive:original.kdenlive:file_size">246213435</property>
  <property name="kdenlive:original.kdenlive:file_hash">8e0fee6ab252be9858879a9b0e052dc2</property>
  <property name="kdenlive:original.kdenlive:audio_max">1</property>
  <property name="kdenlive:original.meta.media.top_field_first">1</property>
  <property name="kdenlive:original.meta.media.progressive">0</property>
  <property name="kdenlive:original.kdenlive:zone_in">299</property>
  <property name="kdenlive:original.kdenlive:zone_out">581</property>
  <property name="kdenlive:original.kdenlive:clipzones">[
    {
        "in": 299,
        "name": "opening fill",
        "out": 581
    }
]
</property>
  <property name="kdenlive:original.root">/</property>
  <property name="kdenlive:original.global_feed">1</property>
  <property name="kdenlive:original.backup">1</property>
  <property name="kdenlive:activeeffect">0</property>
  <property name="xml">was here</property>
  <property name="meta.media.nb_streams">2</property>
  <property name="meta.media.0.stream.type">video</property>
  <property name="meta.media.0.stream.frame_rate">59.9401</property>
  <property name="meta.media.0.stream.sample_aspect_ratio">1.33333</property>
  <property name="meta.media.0.codec.width">640</property>
  <property name="meta.media.0.codec.height">480</property>
  <property name="meta.media.0.codec.rotate">0</property>
  <property name="meta.media.0.codec.frame_rate">1000</property>
  <property name="meta.media.0.codec.pix_fmt">yuvj420p</property>
  <property name="meta.media.0.codec.sample_aspect_ratio">1.33333</property>
  <property name="meta.media.0.codec.colorspace">601</property>
  <property name="meta.media.0.codec.name">mjpeg</property>
  <property name="meta.media.0.codec.long_name">MJPEG (Motion JPEG)</property>
  <property name="meta.media.0.codec.bit_rate">0</property>
  <property name="meta.attr.0.stream.HANDLER_NAME.markup">VideoHandler</property>
  <property name="meta.attr.0.stream.VENDOR_ID.markup">[0][0][0][0]</property>
  <property name="meta.attr.0.stream.ENCODER.markup">Lavc58.134.100 mjpeg</property>
  <property name="meta.attr.0.stream.DURATION.markup">00:04:43.467000000</property>
  <property name="meta.media.1.stream.type">audio</property>
  <property name="meta.media.1.codec.sample_fmt">s16</property>
  <property name="meta.media.1.codec.sample_rate">48000</property>
  <property name="meta.media.1.codec.channels">2</property>
  <property name="meta.media.1.codec.name">pcm_s16le</property>
  <property name="meta.media.1.codec.long_name">PCM signed 16-bit little-endian</property>
  <property name="meta.media.1.codec.bit_rate">1536000</property>
  <property name="meta.attr.1.stream.HANDLER_NAME.markup">SoundHandler</property>
  <property name="meta.attr.1.stream.VENDOR_ID.markup">[0][0][0][0]</property>
  <property name="meta.attr.1.stream.ENCODER.markup">Lavc58.134.100 pcm_s16le</property>
  <property name="meta.attr.1.stream.DURATION.markup">00:04:43.392000000</property>
  <property name="meta.attr.COMPATIBLE_BRANDS.markup">isomiso2avc1mp41</property>
  <property name="meta.attr.MAJOR_BRAND.markup">isom</property>
  <property name="meta.attr.MINOR_VERSION.markup">512</property>
  <property name="meta.attr.ENCODER.markup">Lavf58.76.100</property>
  <property name="meta.media.sample_aspect_num">4</property>
  <property name="meta.media.sample_aspect_den">3</property>
  <property name="meta.media.frame_rate_num">19001</property>
  <property name="meta.media.frame_rate_den">317</property>
  <property name="meta.media.colorspace">601</property>
  <property name="meta.media.color_trc">2</property>
  <property name="meta.media.width">640</property>
  <property name="meta.media.height">480</property>
  <property name="meta.media.color_range">full</property>
  <property name="meta.media.top_field_first">0</property>
  <property name="meta.media.progressive">1</property>
  <property name="set.test_audio">1</property>
  <property name="set.test_image">0</property>
 </producer>
 <producer id="producer183" in="00:00:00.000" out="00:04:43.367">
  <property name="length">8502</property>
  <property name="eof">pause</property>
  <property name="resource">content/2021-06-02_Sarah_kit_dhaivat_00047-take3.mp4</property>
  <property name="audio_index">1</property>
  <property name="video_index">0</property>
  <property name="mute_on_pause">0</property>
  <property name="mlt_service">avformat-novalidate</property>
  <property name="seekable">1</property>
  <property name="aspect_ratio">1.33333</property>
  <property name="kdenlive:clipname">2021-06-02_Sarah_kit_dhaivat_00047-take3.mp4</property>
  <property name="kdenlive:folderid">65</property>
  <property name="kdenlive:id">17</property>
  <property name="kdenlive:file_size">246213435</property>
  <property name="kdenlive:file_hash">8e0fee6ab252be9858879a9b0e052dc2</property>
  <property name="kdenlive:audio_max">1</property>
  <property name="kdenlive:zone_in">299</property>
  <property name="kdenlive:zone_out">581</property>
  <property name="kdenlive:clipzones">[
    {
        "in": 299,
        "name": "opening fill",
        "out": 581
    }
]
</property>
  <property name="global_feed">1</property>
  <property name="kdenlive:proxy">-</property>
  <property name="kdenlive:originalurl">content/2021-06-02_Sarah_kit_dhaivat_00047-take3.mp4</property>
  <property name="kdenlive:original.mlt_type">mlt_producer</property>
  <property name="kdenlive:original.in">00:00:00.000</property>
  <property name="kdenlive:original.out">00:04:43.367</property>
  <property name="kdenlive:original.length">8502</property>
  <property name="kdenlive:original.eof">pause</property>
  <property name="kdenlive:original.resource">content/2021-06-02_Sarah_kit_dhaivat_00047-take3.mp4</property>
  <property name="kdenlive:original.meta.media.nb_streams">2</property>
  <property name="kdenlive:original.meta.media.0.stream.type">video</property>
  <property name="kdenlive:original.meta.media.0.stream.frame_rate">59.9401</property>
  <property name="kdenlive:original.meta.media.0.stream.sample_aspect_ratio">1.33333</property>
  <property name="kdenlive:original.meta.media.0.codec.width">1440</property>
  <property name="kdenlive:original.meta.media.0.codec.height">1080</property>
  <property name="kdenlive:original.meta.media.0.codec.rotate">0</property>
  <property name="kdenlive:original.meta.media.0.codec.frame_rate">29.97</property>
  <property name="kdenlive:original.meta.media.0.codec.pix_fmt">yuv420p</property>
  <property name="kdenlive:original.meta.media.0.codec.sample_aspect_ratio">1.33333</property>
  <property name="kdenlive:original.meta.media.0.codec.colorspace">709</property>
  <property name="kdenlive:original.meta.media.0.codec.name">h264</property>
  <property name="kdenlive:original.meta.media.0.codec.long_name">H.264 / AVC / MPEG-4 AVC / MPEG-4 part 10</property>
  <property name="kdenlive:original.meta.media.0.codec.bit_rate">6688996</property>
  <property name="kdenlive:original.meta.attr.0.stream.handler_name.markup">VideoHandler</property>
  <property name="kdenlive:original.meta.attr.0.stream.vendor_id.markup">[0][0][0][0]</property>
  <property name="kdenlive:original.meta.media.1.stream.type">audio</property>
  <property name="kdenlive:original.meta.media.1.codec.sample_fmt">fltp</property>
  <property name="kdenlive:original.meta.media.1.codec.sample_rate">48000</property>
  <property name="kdenlive:original.meta.media.1.codec.channels">2</property>
  <property name="kdenlive:original.meta.media.1.codec.name">ac3</property>
  <property name="kdenlive:original.meta.media.1.codec.long_name">ATSC A/52A (AC-3)</property>
  <property name="kdenlive:original.meta.media.1.codec.bit_rate">256000</property>
  <property name="kdenlive:original.meta.attr.1.stream.handler_name.markup">SoundHandler</property>
  <property name="kdenlive:original.meta.attr.1.stream.vendor_id.markup">[0][0][0][0]</property>
  <property name="kdenlive:original.meta.attr.major_brand.markup">isom</property>
  <property name="kdenlive:original.meta.attr.minor_version.markup">512</property>
  <property name="kdenlive:original.meta.attr.compatible_brands.markup">isomiso2avc1mp41</property>
  <property name="kdenlive:original.meta.attr.encoder.markup">Lavf58.45.100</property>
  <property name="kdenlive:original.seekable">1</property>
  <property name="kdenlive:original.width">1440</property>
  <property name="kdenlive:original.height">1080</property>
  <property name="kdenlive:original.meta.media.sample_aspect_num">4</property>
  <property name="kdenlive:original.meta.media.sample_aspect_den">3</property>
  <property name="kdenlive:original.aspect_ratio">1.33333</property>
  <property name="kdenlive:original.audio_index">1</property>
  <property name="kdenlive:original.video_index">0</property>
  <property name="kdenlive:original.mute_on_pause">0</property>
  <property name="kdenlive:original.mlt_service">avformat-novalidate</property>
  <property name="kdenlive:original.kdenlive:folderid">65</property>
  <property name="kdenlive:original.meta.media.frame_rate_num">60000</property>
  <property name="kdenlive:original.meta.media.frame_rate_den">1001</property>
  <property name="kdenlive:original.meta.media.colorspace">709</property>
  <property name="kdenlive:original.meta.media.color_trc">2</property>
  <property name="kdenlive:original.meta.media.width">1440</property>
  <property name="kdenlive:original.meta.media.height">1080</property>
  <property name="kdenlive:original.meta.media.color_range">mpeg</property>
  <property name="kdenlive:original.kdenlive:id">76</property>
  <property name="kdenlive:original.kdenlive:file_size">246213435</property>
  <property name="kdenlive:original.kdenlive:file_hash">8e0fee6ab252be9858879a9b0e052dc2</property>
  <property name="kdenlive:original.kdenlive:audio_max">1</property>
  <property name="kdenlive:original.meta.media.top_field_first">1</property>
  <property name="kdenlive:original.meta.media.progressive">0</property>
  <property name="kdenlive:original.kdenlive:zone_in">299</property>
  <property name="kdenlive:original.kdenlive:zone_out">581</property>
  <property name="kdenlive:original.kdenlive:clipzones">[
    {
        "in": 299,
        "name": "opening fill",
        "out": 581
    }
]
</property>
  <property name="kdenlive:original.root">/</property>
  <property name="kdenlive:original.global_feed">1</property>
  <property name="kdenlive:original.backup">1</property>
  <property name="kdenlive:activeeffect">0</property>
  <property name="xml">was here</property>
  <property name="meta.media.nb_streams">2</property>
  <property name="meta.media.0.stream.type">video</property>
  <property name="meta.media.0.stream.frame_rate">59.9401</property>
  <property name="meta.media.0.stream.sample_aspect_ratio">1.33333</property>
  <property name="meta.media.0.codec.width">640</property>
  <property name="meta.media.0.codec.height">480</property>
  <property name="meta.media.0.codec.rotate">0</property>
  <property name="meta.media.0.codec.frame_rate">1000</property>
  <property name="meta.media.0.codec.pix_fmt">yuvj420p</property>
  <property name="meta.media.0.codec.sample_aspect_ratio">1.33333</property>
  <property name="meta.media.0.codec.colorspace">601</property>
  <property name="meta.media.0.codec.name">mjpeg</property>
  <property name="meta.media.0.codec.long_name">MJPEG (Motion JPEG)</property>
  <property name="meta.media.0.codec.bit_rate">0</property>
  <property name="meta.attr.0.stream.HANDLER_NAME.markup">VideoHandler</property>
  <property name="meta.attr.0.stream.VENDOR_ID.markup">[0][0][0][0]</property>
  <property name="meta.attr.0.stream.ENCODER.markup">Lavc58.134.100 mjpeg</property>
  <property name="meta.attr.0.stream.DURATION.markup">00:04:43.467000000</property>
  <property name="meta.media.1.stream.type">audio</property>
  <property name="meta.media.1.codec.sample_fmt">s16</property>
  <property name="meta.media.1.codec.sample_rate">48000</property>
  <property name="meta.media.1.codec.channels">2</property>
  <property name="meta.media.1.codec.name">pcm_s16le</property>
  <property name="meta.media.1.codec.long_name">PCM signed 16-bit little-endian</property>
  <property name="meta.media.1.codec.bit_rate">1536000</property>
  <property name="meta.attr.1.stream.HANDLER_NAME.markup">SoundHandler</property>
  <property name="meta.attr.1.stream.VENDOR_ID.markup">[0][0][0][0]</property>
  <property name="meta.attr.1.stream.ENCODER.markup">Lavc58.134.100 pcm_s16le</property>
  <property name="meta.attr.1.stream.DURATION.markup">00:04:43.392000000</property>
  <property name="meta.attr.COMPATIBLE_BRANDS.markup">isomiso2avc1mp41</property>
  <property name="meta.attr.MAJOR_BRAND.markup">isom</property>
  <property name="meta.attr.MINOR_VERSION.markup">512</property>
  <property name="meta.attr.ENCODER.markup">Lavf58.76.100</property>
  <property name="meta.media.sample_aspect_num">4</property>
  <property name="meta.media.sample_aspect_den">3</property>
  <property name="meta.media.frame_rate_num">19001</property>
  <property name="meta.media.frame_rate_den">317</property>
  <property name="meta.media.colorspace">601</property>
  <property name="meta.media.color_trc">2</property>
  <property name="meta.media.width">640</property>
  <property name="meta.media.height">480</property>
  <property name="meta.media.color_range">full</property>
  <property name="meta.media.top_field_first">0</property>
  <property name="meta.media.progressive">1</property>
  <property name="set.test_audio">1</property>
  <property name="set.test_image">0</property>
 </producer>
 <producer id="producer184" in="00:00:00.000" out="00:04:43.367">
  <property name="length">8502</property>
  <property name="eof">pause</property>
  <property name="resource">content/2021-06-02_Sarah_kit_dhaivat_00047-take3.mp4</property>
  <property name="audio_index">1</property>
  <property name="video_index">0</property>
  <property name="mute_on_pause">0</property>
  <property name="mlt_service">avformat-novalidate</property>
  <property name="seekable">1</property>
  <property name="aspect_ratio">1.33333</property>
  <property name="kdenlive:clipname">2021-06-02_Sarah_kit_dhaivat_00047-take3.mp4</property>
  <property name="kdenlive:folderid">65</property>
  <property name="kdenlive:id">17</property>
  <property name="kdenlive:file_size">246213435</property>
  <property name="kdenlive:file_hash">8e0fee6ab252be9858879a9b0e052dc2</property>
  <property name="kdenlive:audio_max">1</property>
  <property name="kdenlive:zone_in">299</property>
  <property name="kdenlive:zone_out">581</property>
  <property name="kdenlive:clipzones">[
    {
        "in": 299,
        "name": "opening fill",
        "out": 581
    }
]
</property>
  <property name="global_feed">1</property>
  <property name="kdenlive:proxy">-</property>
  <property name="kdenlive:originalurl">content/2021-06-02_Sarah_kit_dhaivat_00047-take3.mp4</property>
  <property name="kdenlive:original.mlt_type">mlt_producer</property>
  <property name="kdenlive:original.in">00:00:00.000</property>
  <property name="kdenlive:original.out">00:04:43.367</property>
  <property name="kdenlive:original.length">8502</property>
  <property name="kdenlive:original.eof">pause</property>
  <property name="kdenlive:original.resource">content/2021-06-02_Sarah_kit_dhaivat_00047-take3.mp4</property>
  <property name="kdenlive:original.meta.media.nb_streams">2</property>
  <property name="kdenlive:original.meta.media.0.stream.type">video</property>
  <property name="kdenlive:original.meta.media.0.stream.frame_rate">59.9401</property>
  <property name="kdenlive:original.meta.media.0.stream.sample_aspect_ratio">1.33333</property>
  <property name="kdenlive:original.meta.media.0.codec.width">1440</property>
  <property name="kdenlive:original.meta.media.0.codec.height">1080</property>
  <property name="kdenlive:original.meta.media.0.codec.rotate">0</property>
  <property name="kdenlive:original.meta.media.0.codec.frame_rate">29.97</property>
  <property name="kdenlive:original.meta.media.0.codec.pix_fmt">yuv420p</property>
  <property name="kdenlive:original.meta.media.0.codec.sample_aspect_ratio">1.33333</property>
  <property name="kdenlive:original.meta.media.0.codec.colorspace">709</property>
  <property name="kdenlive:original.meta.media.0.codec.name">h264</property>
  <property name="kdenlive:original.meta.media.0.codec.long_name">H.264 / AVC / MPEG-4 AVC / MPEG-4 part 10</property>
  <property name="kdenlive:original.meta.media.0.codec.bit_rate">6688996</property>
  <property name="kdenlive:original.meta.attr.0.stream.handler_name.markup">VideoHandler</property>
  <property name="kdenlive:original.meta.attr.0.stream.vendor_id.markup">[0][0][0][0]</property>
  <property name="kdenlive:original.meta.media.1.stream.type">audio</property>
  <property name="kdenlive:original.meta.media.1.codec.sample_fmt">fltp</property>
  <property name="kdenlive:original.meta.media.1.codec.sample_rate">48000</property>
  <property name="kdenlive:original.meta.media.1.codec.channels">2</property>
  <property name="kdenlive:original.meta.media.1.codec.name">ac3</property>
  <property name="kdenlive:original.meta.media.1.codec.long_name">ATSC A/52A (AC-3)</property>
  <property name="kdenlive:original.meta.media.1.codec.bit_rate">256000</property>
  <property name="kdenlive:original.meta.attr.1.stream.handler_name.markup">SoundHandler</property>
  <property name="kdenlive:original.meta.attr.1.stream.vendor_id.markup">[0][0][0][0]</property>
  <property name="kdenlive:original.meta.attr.major_brand.markup">isom</property>
  <property name="kdenlive:original.meta.attr.minor_version.markup">512</property>
  <property name="kdenlive:original.meta.attr.compatible_brands.markup">isomiso2avc1mp41</property>
  <property name="kdenlive:original.meta.attr.encoder.markup">Lavf58.45.100</property>
  <property name="kdenlive:original.seekable">1</property>
  <property name="kdenlive:original.width">1440</property>
  <property name="kdenlive:original.height">1080</property>
  <property name="kdenlive:original.meta.media.sample_aspect_num">4</property>
  <property name="kdenlive:original.meta.media.sample_aspect_den">3</property>
  <property name="kdenlive:original.aspect_ratio">1.33333</property>
  <property name="kdenlive:original.audio_index">1</property>
  <property name="kdenlive:original.video_index">0</property>
  <property name="kdenlive:original.mute_on_pause">0</property>
  <property name="kdenlive:original.mlt_service">avformat-novalidate</property>
  <property name="kdenlive:original.kdenlive:folderid">65</property>
  <property name="kdenlive:original.meta.media.frame_rate_num">60000</property>
  <property name="kdenlive:original.meta.media.frame_rate_den">1001</property>
  <property name="kdenlive:original.meta.media.colorspace">709</property>
  <property name="kdenlive:original.meta.media.color_trc">2</property>
  <property name="kdenlive:original.meta.media.width">1440</property>
  <property name="kdenlive:original.meta.media.height">1080</property>
  <property name="kdenlive:original.meta.media.color_range">mpeg</property>
  <property name="kdenlive:original.kdenlive:id">76</property>
  <property name="kdenlive:original.kdenlive:file_size">246213435</property>
  <property name="kdenlive:original.kdenlive:file_hash">8e0fee6ab252be9858879a9b0e052dc2</property>
  <property name="kdenlive:original.kdenlive:audio_max">1</property>
  <property name="kdenlive:original.meta.media.top_field_first">1</property>
  <property name="kdenlive:original.meta.media.progressive">0</property>
  <property name="kdenlive:original.kdenlive:zone_in">299</property>
  <property name="kdenlive:original.kdenlive:zone_out">581</property>
  <property name="kdenlive:original.kdenlive:clipzones">[
    {
        "in": 299,
        "name": "opening fill",
        "out": 581
    }
]
</property>
  <property name="kdenlive:original.root">/</property>
  <property name="kdenlive:original.global_feed">1</property>
  <property name="kdenlive:original.backup">1</property>
  <property name="kdenlive:activeeffect">0</property>
  <property name="xml">was here</property>
  <property name="meta.media.nb_streams">2</property>
  <property name="meta.media.0.stream.type">video</property>
  <property name="meta.media.0.stream.frame_rate">59.9401</property>
  <property name="meta.media.0.stream.sample_aspect_ratio">1.33333</property>
  <property name="meta.media.0.codec.width">640</property>
  <property name="meta.media.0.codec.height">480</property>
  <property name="meta.media.0.codec.rotate">0</property>
  <property name="meta.media.0.codec.frame_rate">1000</property>
  <property name="meta.media.0.codec.pix_fmt">yuvj420p</property>
  <property name="meta.media.0.codec.sample_aspect_ratio">1.33333</property>
  <property name="meta.media.0.codec.colorspace">601</property>
  <property name="meta.media.0.codec.name">mjpeg</property>
  <property name="meta.media.0.codec.long_name">MJPEG (Motion JPEG)</property>
  <property name="meta.media.0.codec.bit_rate">0</property>
  <property name="meta.attr.0.stream.HANDLER_NAME.markup">VideoHandler</property>
  <property name="meta.attr.0.stream.VENDOR_ID.markup">[0][0][0][0]</property>
  <property name="meta.attr.0.stream.ENCODER.markup">Lavc58.134.100 mjpeg</property>
  <property name="meta.attr.0.stream.DURATION.markup">00:04:43.467000000</property>
  <property name="meta.media.1.stream.type">audio</property>
  <property name="meta.media.1.codec.sample_fmt">s16</property>
  <property name="meta.media.1.codec.sample_rate">48000</property>
  <property name="meta.media.1.codec.channels">2</property>
  <property name="meta.media.1.codec.name">pcm_s16le</property>
  <property name="meta.media.1.codec.long_name">PCM signed 16-bit little-endian</property>
  <property name="meta.media.1.codec.bit_rate">1536000</property>
  <property name="meta.attr.1.stream.HANDLER_NAME.markup">SoundHandler</property>
  <property name="meta.attr.1.stream.VENDOR_ID.markup">[0][0][0][0]</property>
  <property name="meta.attr.1.stream.ENCODER.markup">Lavc58.134.100 pcm_s16le</property>
  <property name="meta.attr.1.stream.DURATION.markup">00:04:43.392000000</property>
  <property name="meta.attr.COMPATIBLE_BRANDS.markup">isomiso2avc1mp41</property>
  <property name="meta.attr.MAJOR_BRAND.markup">isom</property>
  <property name="meta.attr.MINOR_VERSION.markup">512</property>
  <property name="meta.attr.ENCODER.markup">Lavf58.76.100</property>
  <property name="meta.media.sample_aspect_num">4</property>
  <property name="meta.media.sample_aspect_den">3</property>
  <property name="meta.media.frame_rate_num">19001</property>
  <property name="meta.media.frame_rate_den">317</property>
  <property name="meta.media.colorspace">601</property>
  <property name="meta.media.color_trc">2</property>
  <property name="meta.media.width">640</property>
  <property name="meta.media.height">480</property>
  <property name="meta.media.color_range">full</property>
  <property name="meta.media.top_field_first">0</property>
  <property name="meta.media.progressive">1</property>
  <property name="set.test_audio">1</property>
  <property name="set.test_image">0</property>
 </producer>
 <producer id="producer185" in="00:00:00.000" out="00:04:43.367">
  <property name="length">8502</property>
  <property name="eof">pause</property>
  <property name="resource">content/2021-06-02_Sarah_kit_dhaivat_00047-take3.mp4</property>
  <property name="audio_index">1</property>
  <property name="video_index">0</property>
  <property name="mute_on_pause">0</property>
  <property name="mlt_service">avformat-novalidate</property>
  <property name="seekable">1</property>
  <property name="aspect_ratio">1.33333</property>
  <property name="kdenlive:clipname">2021-06-02_Sarah_kit_dhaivat_00047-take3.mp4</property>
  <property name="kdenlive:folderid">65</property>
  <property name="kdenlive:id">17</property>
  <property name="kdenlive:file_size">246213435</property>
  <property name="kdenlive:file_hash">8e0fee6ab252be9858879a9b0e052dc2</property>
  <property name="kdenlive:audio_max">1</property>
  <property name="kdenlive:zone_in">299</property>
  <property name="kdenlive:zone_out">581</property>
  <property name="kdenlive:clipzones">[
    {
        "in": 299,
        "name": "opening fill",
        "out": 581
    }
]
</property>
  <property name="global_feed">1</property>
  <property name="kdenlive:proxy">-</property>
  <property name="kdenlive:originalurl">content/2021-06-02_Sarah_kit_dhaivat_00047-take3.mp4</property>
  <property name="kdenlive:original.mlt_type">mlt_producer</property>
  <property name="kdenlive:original.in">00:00:00.000</property>
  <property name="kdenlive:original.out">00:04:43.367</property>
  <property name="kdenlive:original.length">8502</property>
  <property name="kdenlive:original.eof">pause</property>
  <property name="kdenlive:original.resource">content/2021-06-02_Sarah_kit_dhaivat_00047-take3.mp4</property>
  <property name="kdenlive:original.meta.media.nb_streams">2</property>
  <property name="kdenlive:original.meta.media.0.stream.type">video</property>
  <property name="kdenlive:original.meta.media.0.stream.frame_rate">59.9401</property>
  <property name="kdenlive:original.meta.media.0.stream.sample_aspect_ratio">1.33333</property>
  <property name="kdenlive:original.meta.media.0.codec.width">1440</property>
  <property name="kdenlive:original.meta.media.0.codec.height">1080</property>
  <property name="kdenlive:original.meta.media.0.codec.rotate">0</property>
  <property name="kdenlive:original.meta.media.0.codec.frame_rate">29.97</property>
  <property name="kdenlive:original.meta.media.0.codec.pix_fmt">yuv420p</property>
  <property name="kdenlive:original.meta.media.0.codec.sample_aspect_ratio">1.33333</property>
  <property name="kdenlive:original.meta.media.0.codec.colorspace">709</property>
  <property name="kdenlive:original.meta.media.0.codec.name">h264</property>
  <property name="kdenlive:original.meta.media.0.codec.long_name">H.264 / AVC / MPEG-4 AVC / MPEG-4 part 10</property>
  <property name="kdenlive:original.meta.media.0.codec.bit_rate">6688996</property>
  <property name="kdenlive:original.meta.attr.0.stream.handler_name.markup">VideoHandler</property>
  <property name="kdenlive:original.meta.attr.0.stream.vendor_id.markup">[0][0][0][0]</property>
  <property name="kdenlive:original.meta.media.1.stream.type">audio</property>
  <property name="kdenlive:original.meta.media.1.codec.sample_fmt">fltp</property>
  <property name="kdenlive:original.meta.media.1.codec.sample_rate">48000</property>
  <property name="kdenlive:original.meta.media.1.codec.channels">2</property>
  <property name="kdenlive:original.meta.media.1.codec.name">ac3</property>
  <property name="kdenlive:original.meta.media.1.codec.long_name">ATSC A/52A (AC-3)</property>
  <property name="kdenlive:original.meta.media.1.codec.bit_rate">256000</property>
  <property name="kdenlive:original.meta.attr.1.stream.handler_name.markup">SoundHandler</property>
  <property name="kdenlive:original.meta.attr.1.stream.vendor_id.markup">[0][0][0][0]</property>
  <property name="kdenlive:original.meta.attr.major_brand.markup">isom</property>
  <property name="kdenlive:original.meta.attr.minor_version.markup">512</property>
  <property name="kdenlive:original.meta.attr.compatible_brands.markup">isomiso2avc1mp41</property>
  <property name="kdenlive:original.meta.attr.encoder.markup">Lavf58.45.100</property>
  <property name="kdenlive:original.seekable">1</property>
  <property name="kdenlive:original.width">1440</property>
  <property name="kdenlive:original.height">1080</property>
  <property name="kdenlive:original.meta.media.sample_aspect_num">4</property>
  <property name="kdenlive:original.meta.media.sample_aspect_den">3</property>
  <property name="kdenlive:original.aspect_ratio">1.33333</property>
  <property name="kdenlive:original.audio_index">1</property>
  <property name="kdenlive:original.video_index">0</property>
  <property name="kdenlive:original.mute_on_pause">0</property>
  <property name="kdenlive:original.mlt_service">avformat-novalidate</property>
  <property name="kdenlive:original.kdenlive:folderid">65</property>
  <property name="kdenlive:original.meta.media.frame_rate_num">60000</property>
  <property name="kdenlive:original.meta.media.frame_rate_den">1001</property>
  <property name="kdenlive:original.meta.media.colorspace">709</property>
  <property name="kdenlive:original.meta.media.color_trc">2</property>
  <property name="kdenlive:original.meta.media.width">1440</property>
  <property name="kdenlive:original.meta.media.height">1080</property>
  <property name="kdenlive:original.meta.media.color_range">mpeg</property>
  <property name="kdenlive:original.kdenlive:id">76</property>
  <property name="kdenlive:original.kdenlive:file_size">246213435</property>
  <property name="kdenlive:original.kdenlive:file_hash">8e0fee6ab252be9858879a9b0e052dc2</property>
  <property name="kdenlive:original.kdenlive:audio_max">1</property>
  <property name="kdenlive:original.meta.media.top_field_first">1</property>
  <property name="kdenlive:original.meta.media.progressive">0</property>
  <property name="kdenlive:original.kdenlive:zone_in">299</property>
  <property name="kdenlive:original.kdenlive:zone_out">581</property>
  <property name="kdenlive:original.kdenlive:clipzones">[
    {
        "in": 299,
        "name": "opening fill",
        "out": 581
    }
]
</property>
  <property name="kdenlive:original.root">/</property>
  <property name="kdenlive:original.global_feed">1</property>
  <property name="kdenlive:original.backup">1</property>
  <property name="kdenlive:activeeffect">0</property>
  <property name="xml">was here</property>
  <property name="meta.media.nb_streams">2</property>
  <property name="meta.media.0.stream.type">video</property>
  <property name="meta.media.0.stream.frame_rate">59.9401</property>
  <property name="meta.media.0.stream.sample_aspect_ratio">1.33333</property>
  <property name="meta.media.0.codec.width">640</property>
  <property name="meta.media.0.codec.height">480</property>
  <property name="meta.media.0.codec.rotate">0</property>
  <property name="meta.media.0.codec.frame_rate">1000</property>
  <property name="meta.media.0.codec.pix_fmt">yuvj420p</property>
  <property name="meta.media.0.codec.sample_aspect_ratio">1.33333</property>
  <property name="meta.media.0.codec.colorspace">601</property>
  <property name="meta.media.0.codec.name">mjpeg</property>
  <property name="meta.media.0.codec.long_name">MJPEG (Motion JPEG)</property>
  <property name="meta.media.0.codec.bit_rate">0</property>
  <property name="meta.attr.0.stream.HANDLER_NAME.markup">VideoHandler</property>
  <property name="meta.attr.0.stream.VENDOR_ID.markup">[0][0][0][0]</property>
  <property name="meta.attr.0.stream.ENCODER.markup">Lavc58.134.100 mjpeg</property>
  <property name="meta.attr.0.stream.DURATION.markup">00:04:43.467000000</property>
  <property name="meta.media.1.stream.type">audio</property>
  <property name="meta.media.1.codec.sample_fmt">s16</property>
  <property name="meta.media.1.codec.sample_rate">48000</property>
  <property name="meta.media.1.codec.channels">2</property>
  <property name="meta.media.1.codec.name">pcm_s16le</property>
  <property name="meta.media.1.codec.long_name">PCM signed 16-bit little-endian</property>
  <property name="meta.media.1.codec.bit_rate">1536000</property>
  <property name="meta.attr.1.stream.HANDLER_NAME.markup">SoundHandler</property>
  <property name="meta.attr.1.stream.VENDOR_ID.markup">[0][0][0][0]</property>
  <property name="meta.attr.1.stream.ENCODER.markup">Lavc58.134.100 pcm_s16le</property>
  <property name="meta.attr.1.stream.DURATION.markup">00:04:43.392000000</property>
  <property name="meta.attr.COMPATIBLE_BRANDS.markup">isomiso2avc1mp41</property>
  <property name="meta.attr.MAJOR_BRAND.markup">isom</property>
  <property name="meta.attr.MINOR_VERSION.markup">512</property>
  <property name="meta.attr.ENCODER.markup">Lavf58.76.100</property>
  <property name="meta.media.sample_aspect_num">4</property>
  <property name="meta.media.sample_aspect_den">3</property>
  <property name="meta.media.frame_rate_num">19001</property>
  <property name="meta.media.frame_rate_den">317</property>
  <property name="meta.media.colorspace">601</property>
  <property name="meta.media.color_trc">2</property>
  <property name="meta.media.width">640</property>
  <property name="meta.media.height">480</property>
  <property name="meta.media.color_range">full</property>
  <property name="meta.media.top_field_first">0</property>
  <property name="meta.media.progressive">1</property>
  <property name="set.test_audio">1</property>
  <property name="set.test_image">0</property>
 </producer>
 <playlist id="playlist36">
  <blank length="00:00:19.600"/>
  <entry producer="producer48" in="00:00:08.133" out="00:00:11.233">
   <property name="kdenlive:id">16</property>
  </entry>
  <entry producer="producer181" in="00:00:11.267" out="00:00:18.100">
   <property name="kdenlive:id">16</property>
   <filter id="filter238" in="00:00:11.267" out="00:00:12.967">
    <property name="start">0</property>
    <property name="mlt_service">brightness</property>
    <property name="kdenlive_id">fade_from_black</property>
    <property name="end">1</property>
    <property name="alpha">-1</property>
    <property name="kdenlive:collapsed">0</property>
   </filter>
   <filter id="filter239" in="00:00:17.567" out="00:00:18.100">
    <property name="start">1</property>
    <property name="mlt_service">brightness</property>
    <property name="kdenlive_id">fade_to_black</property>
    <property name="end">0</property>
    <property name="alpha">-1</property>
    <property name="kdenlive:collapsed">0</property>
   </filter>
  </entry>
  <entry producer="producer48" in="00:00:18.133" out="00:01:07.533">
   <property name="kdenlive:id">16</property>
  </entry>
  <blank length="00:00:51.500"/>
  <entry producer="producer182" in="00:01:51.933" out="00:02:28.033">
   <property name="kdenlive:id">17</property>
   <filter id="filter240">
    <property name="mode">alpha</property>
    <property name="alpha_operation">sub</property>
    <property name="invert">0</property>
    <property name="feather">4</property>
    <property name="feather_passes">1</property>
    <property name="mlt_service">rotoscoping</property>
    <property name="kdenlive_id">rotoscoping</property>
    <property name="spline">{
    "3358": [
        [
            [
                1.0205390972877637,
                0.4024279594497516
            ],
            [
                1.0227456286205086,
                0.3399475826836606
            ],
            [
                0.96555233647576,
                0.35705904265226335
            ]
        ],
        [
            [
                0.7939724600415144,
                0.4083934225580719
            ],
            [
                0.7367791678967665,
                0.42550488252667457
            ],
            [
                0.727335213792618,
                0.4509365936726713
            ]
        ],
        [
            [
                0.6990033514801731,
                0.527231727110662
            ],
            [
                0.6895593973760249,
                0.552663438256659
            ],
            [
                0.6820571908446921,
                0.5974044115690601
            ]
        ],
        [
            [
                0.7110951431836153,
                0.6342960913178826
            ],
            [
                0.7164790796355128,
                0.6547042545831893
            ],
            [
                0.7257465112330418,
                0.6861014288375069
            ]
        ],
        [
            [
                0.7613157963168898,
                0.6861014288375069
            ],
            [
                0.772524975487234,
                0.6939507224010851
            ],
            [
                0.785940685990323,
                0.6872003299364082
            ]
        ],
        [
            [
                0.7941489825481339,
                0.6641234068594841
            ],
            [
                0.8396035280026797,
                0.6601987600776947
            ],
            [
                0.8599036162639329,
                0.6617686187904107
            ]
        ],
        [
            [
                0.8802037045251863,
                0.6625535481467681
            ],
            [
                0.9075646930512232,
                0.6735425591357801
            ],
            [
                0.9219512773407204,
                0.6683620253838178
            ]
        ],
        [
            [
                0.9543431573054159,
                0.6515645371577573
            ],
            [
                0.979497614498708,
                0.6476398903759679
            ],
            [
                0.9859406859903231,
                0.6485818056035976
            ]
        ],
        [
            [
                1.0052699004651688,
                0.651407551286486
            ],
            [
                1.0117129719567841,
                0.6523494665141158
            ],
            [
                1.013919503289529,
                0.5898690897480245
            ]
        ]
    ],
    "4128": [
        [
            [
                1.0205390972877637,
                0.4024279594497516
            ],
            [
                1.0227456286205086,
                0.3399475826836606
            ],
            [
                0.96555233647576,
                0.35705904265226335
            ]
        ],
        [
            [
                0.7939724600415144,
                0.4083934225580719
            ],
            [
                0.7367791678967665,
                0.42550488252667457
            ],
            [
                0.727335213792618,
                0.4509365936726713
            ]
        ],
        [
            [
                0.6990033514801731,
                0.527231727110662
            ],
            [
                0.6895593973760249,
                0.552663438256659
            ],
            [
                0.6820571908446921,
                0.5974044115690601
            ]
        ],
        [
            [
                0.7110951431836153,
                0.6342960913178826
            ],
            [
                0.7164790796355128,
                0.6547042545831893
            ],
            [
                0.7257465112330418,
                0.6861014288375069
            ]
        ],
        [
            [
                0.7613157963168898,
                0.6861014288375069
            ],
            [
                0.772524975487234,
                0.6939507224010851
            ],
            [
                0.785940685990323,
                0.6872003299364082
            ]
        ],
        [
            [
                0.7941489825481339,
                0.6641234068594841
            ],
            [
                0.8396035280026797,
                0.6601987600776947
            ],
            [
                0.8599036162639329,
                0.6617686187904107
            ]
        ],
        [
            [
                0.8802037045251863,
                0.6625535481467681
            ],
            [
                0.9075646930512232,
                0.6735425591357801
            ],
            [
                0.9219512773407204,
                0.6683620253838178
            ]
        ],
        [
            [
                0.9543431573054159,
                0.6515645371577573
            ],
            [
                0.979497614498708,
                0.6476398903759679
            ],
            [
                0.9859406859903231,
                0.6485818056035976
            ]
        ],
        [
            [
                1.0052699004651688,
                0.651407551286486
            ],
            [
                1.0117129719567841,
                0.6523494665141158
            ],
            [
                1.013919503289529,
                0.5898690897480245
            ]
        ]
    ],
    "4147": [
        [
            [
                1.0205390972877637,
                0.4024279594497516
            ],
            [
                1.0227456286205086,
                0.3399475826836606
            ],
            [
                0.96555233647576,
                0.35705904265226335
            ]
        ],
        [
            [
                0.7939724600415144,
                0.4083934225580719
            ],
            [
                0.7367791678967665,
                0.42550488252667457
            ],
            [
                0.727335213792618,
                0.4509365936726713
            ]
        ],
        [
            [
                0.7200158778476491,
                0.5392832349248813
            ],
            [
                0.7105719237435009,
                0.5647149460708782
            ],
            [
                0.703069717212168,
                0.6094559193832795
            ]
        ],
        [
            [
                0.7110951431836153,
                0.6342960913178826
            ],
            [
                0.7164790796355128,
                0.6547042545831893
            ],
            [
                0.7257465112330418,
                0.6861014288375069
            ]
        ],
        [
            [
                0.7613157963168898,
                0.6861014288375069
            ],
            [
                0.772524975487234,
                0.6939507224010851
            ],
            [
                0.785940685990323,
                0.6872003299364082
            ]
        ],
        [
            [
                0.7941489825481339,
                0.6641234068594841
            ],
            [
                0.8396035280026797,
                0.6601987600776947
            ],
            [
                0.8599036162639329,
                0.6617686187904107
            ]
        ],
        [
            [
                0.8802037045251863,
                0.6625535481467681
            ],
            [
                0.9075646930512232,
                0.6735425591357801
            ],
            [
                0.9219512773407204,
                0.6683620253838178
            ]
        ],
        [
            [
                0.9543431573054159,
                0.6515645371577573
            ],
            [
                0.979497614498708,
                0.6476398903759679
            ],
            [
                0.9859406859903231,
                0.6485818056035976
            ]
        ],
        [
            [
                1.0052699004651688,
                0.651407551286486
            ],
            [
                1.0117129719567841,
                0.6523494665141158
            ],
            [
                1.013919503289529,
                0.5898690897480245
            ]
        ]
    ],
    "4176": [
        [
            [
                1.0205390972877637,
                0.4024279594497516
            ],
            [
                1.0227456286205086,
                0.3399475826836606
            ],
            [
                0.96555233647576,
                0.35705904265226335
            ]
        ],
        [
            [
                0.7939724600415144,
                0.4083934225580719
            ],
            [
                0.7367791678967665,
                0.42550488252667457
            ],
            [
                0.727335213792618,
                0.4509365936726713
            ]
        ],
        [
            [
                0.7356137981249454,
                0.5454465631221077
            ],
            [
                0.7261698440207972,
                0.5708782742681048
            ],
            [
                0.7186676374894644,
                0.6156192475805059
            ]
        ],
        [
            [
                0.7110951431836153,
                0.6342960913178826
            ],
            [
                0.7164790796355128,
                0.6547042545831893
            ],
            [
                0.7257465112330418,
                0.6861014288375069
            ]
        ],
        [
            [
                0.7613157963168898,
                0.6861014288375069
            ],
            [
                0.772524975487234,
                0.6939507224010851
            ],
            [
                0.785940685990323,
                0.6872003299364082
            ]
        ],
        [
            [
                0.7941489825481339,
                0.6641234068594841
            ],
            [
                0.8396035280026797,
                0.6601987600776947
            ],
            [
                0.8599036162639329,
                0.6617686187904107
            ]
        ],
        [
            [
                0.8802037045251863,
                0.6625535481467681
            ],
            [
                0.9075646930512232,
                0.6735425591357801
            ],
            [
                0.9219512773407204,
                0.6683620253838178
            ]
        ],
        [
            [
                0.9543431573054159,
                0.6515645371577573
            ],
            [
                0.979497614498708,
                0.6476398903759679
            ],
            [
                0.9859406859903231,
                0.6485818056035976
            ]
        ],
        [
            [
                1.0052699004651688,
                0.651407551286486
            ],
            [
                1.0117129719567841,
                0.6523494665141158
            ],
            [
                1.013919503289529,
                0.5898690897480245
            ]
        ]
    ],
    "4218": [
        [
            [
                1.0205390972877637,
                0.4024279594497516
            ],
            [
                1.0227456286205086,
                0.3399475826836606
            ],
            [
                0.96555233647576,
                0.35705904265226335
            ]
        ],
        [
            [
                0.7939724600415144,
                0.4083934225580719
            ],
            [
                0.7367791678967665,
                0.42550488252667457
            ],
            [
                0.727335213792618,
                0.4509365936726713
            ]
        ],
        [
            [
                0.6966189974317045,
                0.560854883615174
            ],
            [
                0.6871750433275563,
                0.5862865947611711
            ],
            [
                0.6796728367962235,
                0.6310275680735721
            ]
        ],
        [
            [
                0.7110951431836153,
                0.6342960913178826
            ],
            [
                0.7164790796355128,
                0.6547042545831893
            ],
            [
                0.7257465112330418,
                0.6861014288375069
            ]
        ],
        [
            [
                0.7613157963168898,
                0.6861014288375069
            ],
            [
                0.772524975487234,
                0.6939507224010851
            ],
            [
                0.785940685990323,
                0.6872003299364082
            ]
        ],
        [
            [
                0.7941489825481339,
                0.6641234068594841
            ],
            [
                0.8396035280026797,
                0.6601987600776947
            ],
            [
                0.8599036162639329,
                0.6617686187904107
            ]
        ],
        [
            [
                0.8802037045251863,
                0.6625535481467681
            ],
            [
                0.9075646930512232,
                0.6735425591357801
            ],
            [
                0.9219512773407204,
                0.6683620253838178
            ]
        ],
        [
            [
                0.9543431573054159,
                0.6515645371577573
            ],
            [
                0.979497614498708,
                0.6476398903759679
            ],
            [
                0.9859406859903231,
                0.6485818056035976
            ]
        ],
        [
            [
                1.0052699004651688,
                0.651407551286486
            ],
            [
                1.0117129719567841,
                0.6523494665141158
            ],
            [
                1.013919503289529,
                0.5898690897480245
            ]
        ]
    ],
    "4289": [
        [
            [
                1.0205390972877637,
                0.4024279594497516
            ],
            [
                1.0227456286205086,
                0.3399475826836606
            ],
            [
                0.96555233647576,
                0.35705904265226335
            ]
        ],
        [
            [
                0.830961199226469,
                0.39198133253176437
            ],
            [
                0.773767907081721,
                0.409092792500367
            ],
            [
                0.7643239529775727,
                0.4345245036463638
            ]
        ],
        [
            [
                0.7312810424923631,
                0.49459910549498903
            ],
            [
                0.7218370883882149,
                0.520030816640986
            ],
            [
                0.7143348818568821,
                0.5647717899533871
            ]
        ],
        [
            [
                0.6869904136347577,
                0.6259708814188227
            ],
            [
                0.6923743500866552,
                0.6463790446841294
            ],
            [
                0.701641781684184,
                0.6777762189384469
            ]
        ],
        [
            [
                0.7392240963929141,
                0.7063263612900427
            ],
            [
                0.7504332755632582,
                0.7141756548536209
            ],
            [
                0.7638489860663473,
                0.7074252623889442
            ]
        ],
        [
            [
                0.7941489825481339,
                0.6641234068594841
            ],
            [
                0.8396035280026797,
                0.6601987600776947
            ],
            [
                0.8599036162639329,
                0.6617686187904107
            ]
        ],
        [
            [
                0.8802037045251863,
                0.6625535481467681
            ],
            [
                0.9075646930512232,
                0.6735425591357801
            ],
            [
                0.9219512773407204,
                0.6683620253838178
            ]
        ],
        [
            [
                0.9543431573054159,
                0.6515645371577573
            ],
            [
                0.979497614498708,
                0.6476398903759679
            ],
            [
                0.9859406859903231,
                0.6485818056035976
            ]
        ],
        [
            [
                1.0052699004651688,
                0.651407551286486
            ],
            [
                1.0117129719567841,
                0.6523494665141158
            ],
            [
                1.013919503289529,
                0.5898690897480245
            ]
        ]
    ],
    "4349": [
        [
            [
                1.0205390972877637,
                0.4024279594497516
            ],
            [
                1.0227456286205086,
                0.3399475826836606
            ],
            [
                0.96555233647576,
                0.35705904265226335
            ]
        ],
        [
            [
                0.8622192886785435,
                0.3781119606785468
            ],
            [
                0.8050259965337954,
                0.3952234206471494
            ],
            [
                0.795582042429647,
                0.42065513179314623
            ]
        ],
        [
            [
                0.7728754965651533,
                0.4468333119664837
            ],
            [
                0.7634315424610051,
                0.4722650231124807
            ],
            [
                0.7559293359296723,
                0.5170059964248818
            ]
        ],
        [
            [
                0.775378628539437,
                0.510408477720826
            ],
            [
                0.7807625649913345,
                0.5308166409861325
            ],
            [
                0.7900299965888633,
                0.5622138152404502
            ]
        ],
        [
            [
                0.7972830218695173,
                0.5907639575920457
            ],
            [
                0.8084922010398613,
                0.5986132511556239
            ],
            [
                0.8219079115429504,
                0.591862858690947
            ]
        ],
        [
            [
                0.7941489825481339,
                0.6641234068594841
            ],
            [
                0.8396035280026797,
                0.6601987600776947
            ],
            [
                0.8599036162639329,
                0.6617686187904107
            ]
        ],
        [
            [
                0.8802037045251863,
                0.6625535481467681
            ],
            [
                0.9075646930512232,
                0.6735425591357801
            ],
            [
                0.9219512773407204,
                0.6683620253838178
            ]
        ],
        [
            [
                0.9543431573054159,
                0.6515645371577573
            ],
            [
                0.979497614498708,
                0.6476398903759679
            ],
            [
                0.9859406859903231,
                0.6485818056035976
            ]
        ],
        [
            [
                1.0052699004651688,
                0.651407551286486
            ],
            [
                1.0117129719567841,
                0.6523494665141158
            ],
            [
                1.013919503289529,
                0.5898690897480245
            ]
        ]
    ]
}
</property>
    <property name="kdenlive:collapsed">0</property>
   </filter>
   <filter id="filter241" in="00:02:23.000" out="00:02:28.033">
    <property name="start">1</property>
    <property name="mlt_service">brightness</property>
    <property name="kdenlive_id">fade_to_black</property>
    <property name="end">0</property>
    <property name="alpha">-1</property>
    <property name="kdenlive:collapsed">0</property>
   </filter>
   <filter id="filter242" in="00:01:51.933" out="00:01:52.933">
    <property name="start">0</property>
    <property name="mlt_service">brightness</property>
    <property name="kdenlive_id">fade_from_black</property>
    <property name="end">1</property>
    <property name="alpha">-1</property>
    <property name="kdenlive:collapsed">0</property>
   </filter>
  </entry>
  <entry producer="producer43" in="00:02:28.067" out="00:02:47.733">
   <property name="kdenlive:id">17</property>
   <filter id="filter243">
    <property name="mode">alpha</property>
    <property name="alpha_operation">sub</property>
    <property name="invert">0</property>
    <property name="feather">4</property>
    <property name="feather_passes">1</property>
    <property name="mlt_service">rotoscoping</property>
    <property name="kdenlive_id">rotoscoping</property>
    <property name="spline">{
    "4442": [
        [
            [
                1.0205390972877637,
                0.4024279594497516
            ],
            [
                1.0227456286205086,
                0.3399475826836606
            ],
            [
                0.96555233647576,
                0.35705904265226335
            ]
        ],
        [
            [
                0.8622192886785435,
                0.3781119606785468
            ],
            [
                0.8050259965337954,
                0.3952234206471494
            ],
            [
                0.795582042429647,
                0.42065513179314623
            ]
        ],
        [
            [
                0.7728754965651533,
                0.4468333119664837
            ],
            [
                0.7634315424610051,
                0.4722650231124807
            ],
            [
                0.7559293359296723,
                0.5170059964248818
            ]
        ],
        [
            [
                0.775378628539437,
                0.510408477720826
            ],
            [
                0.7807625649913345,
                0.5308166409861325
            ],
            [
                0.7900299965888633,
                0.5622138152404502
            ]
        ],
        [
            [
                0.7972830218695173,
                0.5907639575920457
            ],
            [
                0.8084922010398613,
                0.5986132511556239
            ],
            [
                0.8219079115429504,
                0.591862858690947
            ]
        ],
        [
            [
                0.7941489825481339,
                0.6641234068594841
            ],
            [
                0.8396035280026797,
                0.6601987600776947
            ],
            [
                0.8599036162639329,
                0.6617686187904107
            ]
        ],
        [
            [
                0.8802037045251863,
                0.6625535481467681
            ],
            [
                0.9075646930512232,
                0.6735425591357801
            ],
            [
                0.9219512773407204,
                0.6683620253838178
            ]
        ],
        [
            [
                0.9543431573054159,
                0.6515645371577573
            ],
            [
                0.979497614498708,
                0.6476398903759679
            ],
            [
                0.9859406859903231,
                0.6485818056035976
            ]
        ],
        [
            [
                1.0052699004651688,
                0.651407551286486
            ],
            [
                1.0117129719567841,
                0.6523494665141158
            ],
            [
                1.013919503289529,
                0.5898690897480245
            ]
        ]
    ]
}
</property>
    <property name="kdenlive:collapsed">0</property>
   </filter>
  </entry>
  <entry producer="producer183" in="00:02:47.767" out="00:03:02.967">
   <property name="kdenlive:id">17</property>
   <filter id="filter244" in="00:02:47.767" out="00:02:48.633">
    <property name="start">0</property>
    <property name="mlt_service">brightness</property>
    <property name="kdenlive_id">fade_from_black</property>
    <property name="end">1</property>
    <property name="alpha">-1</property>
    <property name="kdenlive:collapsed">0</property>
   </filter>
   <filter id="filter245" in="00:03:02.067" out="00:03:02.967">
    <property name="start">1</property>
    <property name="mlt_service">brightness</property>
    <property name="kdenlive_id">fade_to_black</property>
    <property name="end">0</property>
    <property name="alpha">-1</property>
    <property name="kdenlive:collapsed">0</property>
   </filter>
  </entry>
  <entry producer="producer43" in="00:03:03.000" out="00:03:08.733">
   <property name="kdenlive:id">17</property>
  </entry>
  <entry producer="producer184" in="00:03:08.767" out="00:03:12.467">
   <property name="kdenlive:id">17</property>
   <filter id="filter246" in="00:03:08.767" out="00:03:09.200">
    <property name="start">0</property>
    <property name="mlt_service">brightness</property>
    <property name="kdenlive_id">fade_from_black</property>
    <property name="end">1</property>
    <property name="alpha">-1</property>
    <property name="kdenlive:collapsed">0</property>
   </filter>
   <filter id="filter247" in="00:03:12.233" out="00:03:12.467">
    <property name="start">1</property>
    <property name="mlt_service">brightness</property>
    <property name="kdenlive_id">fade_to_black</property>
    <property name="end">0</property>
    <property name="alpha">-1</property>
   </filter>
  </entry>
  <entry producer="producer43" in="00:03:12.500" out="00:03:24.300">
   <property name="kdenlive:id">17</property>
  </entry>
  <entry producer="producer185" in="00:03:24.333" out="00:03:35.000">
   <property name="kdenlive:id">17</property>
   <filter id="filter248" in="00:03:24.333" out="00:03:25.267">
    <property name="start">0</property>
    <property name="mlt_service">brightness</property>
    <property name="kdenlive_id">fade_from_black</property>
    <property name="end">1</property>
    <property name="alpha">-1</property>
    <property name="kdenlive:collapsed">0</property>
   </filter>
   <filter id="filter249" in="00:03:34.233" out="00:03:35.000">
    <property name="start">1</property>
    <property name="mlt_service">brightness</property>
    <property name="kdenlive_id">fade_to_black</property>
    <property name="end">0</property>
    <property name="alpha">-1</property>
   </filter>
  </entry>
  <entry producer="producer43" in="00:03:35.033" out="00:04:43.367">
   <property name="kdenlive:id">17</property>
  </entry>
 </playlist>
 <playlist id="playlist37"/>
 <tractor id="tractor18" in="00:00:00.000" out="00:05:01.967">
  <property name="kdenlive:trackheight">69</property>
  <property name="kdenlive:timeline_active">0</property>
  <property name="kdenlive:collapsed">28</property>
  <property name="kdenlive:track_name">Chris-synth-handheld</property>
  <property name="kdenlive:thumbs_format"/>
  <property name="kdenlive:audio_rec"/>
  <property name="kdenlive:locked_track">1</property>
  <track hide="both" producer="playlist36"/>
  <track producer="playlist37"/>
 </tractor>
 <producer id="producer186" in="00:00:00.000" out="00:00:52.633">
  <property name="length">1580</property>
  <property name="eof">pause</property>
  <property name="resource">content/2021-02-06_Chris_synth+4k_dhaivat_P1180156-take3_opening.MP4</property>
  <property name="audio_index">1</property>
  <property name="video_index">0</property>
  <property name="mute_on_pause">0</property>
  <property name="mlt_service">avformat-novalidate</property>
  <property name="seekable">1</property>
  <property name="aspect_ratio">1</property>
  <property name="kdenlive:clipname">2021-02-06_Chris_synth+4k_dhaivat_P1180156-take3_opening.MP4</property>
  <property name="kdenlive:folderid">65</property>
  <property name="kdenlive:id">14</property>
  <property name="kdenlive:file_size">631052450</property>
  <property name="kdenlive:file_hash">0efd61042eb59ca6e960e19739c2c895</property>
  <property name="kdenlive:audio_max">5</property>
  <property name="kdenlive:zone_in">8</property>
  <property name="kdenlive:zone_out">617</property>
  <property name="kdenlive:clipzones">[
    {
        "in": 8,
        "name": "opening",
        "out": 617
    }
]
</property>
  <property name="global_feed">1</property>
  <property name="kdenlive:active_streams">-1</property>
  <property name="kdenlive:proxy">-</property>
  <property name="kdenlive:originalurl">content/2021-02-06_Chris_synth+4k_dhaivat_P1180156-take3_opening.MP4</property>
  <property name="kdenlive:original.mlt_type">mlt_producer</property>
  <property name="kdenlive:original.in">00:00:00.000</property>
  <property name="kdenlive:original.out">00:00:52.633</property>
  <property name="kdenlive:original.length">1580</property>
  <property name="kdenlive:original.eof">pause</property>
  <property name="kdenlive:original.resource">content/2021-02-06_Chris_synth+4k_dhaivat_P1180156-take3_opening.MP4</property>
  <property name="kdenlive:original.meta.media.nb_streams">2</property>
  <property name="kdenlive:original.meta.media.0.stream.type">video</property>
  <property name="kdenlive:original.meta.media.0.stream.frame_rate">29.97</property>
  <property name="kdenlive:original.meta.media.0.stream.sample_aspect_ratio">1</property>
  <property name="kdenlive:original.meta.media.0.codec.width">3840</property>
  <property name="kdenlive:original.meta.media.0.codec.height">2160</property>
  <property name="kdenlive:original.meta.media.0.codec.rotate">0</property>
  <property name="kdenlive:original.meta.media.0.codec.frame_rate">29.97</property>
  <property name="kdenlive:original.meta.media.0.codec.pix_fmt">yuvj420p</property>
  <property name="kdenlive:original.meta.media.0.codec.sample_aspect_ratio">1</property>
  <property name="kdenlive:original.meta.media.0.codec.colorspace">709</property>
  <property name="kdenlive:original.meta.media.0.codec.color_trc">1</property>
  <property name="kdenlive:original.meta.media.0.codec.name">h264</property>
  <property name="kdenlive:original.meta.media.0.codec.long_name">H.264 / AVC / MPEG-4 AVC / MPEG-4 part 10</property>
  <property name="kdenlive:original.meta.media.0.codec.bit_rate">95869016</property>
  <property name="kdenlive:original.meta.attr.0.stream.creation_time.markup">2021-06-02T15:25:09.000000Z</property>
  <property name="kdenlive:original.meta.attr.0.stream.handler_name.markup">VideoHandler</property>
  <property name="kdenlive:original.meta.attr.0.stream.vendor_id.markup">[0][0][0][0]</property>
  <property name="kdenlive:original.meta.media.1.stream.type">audio</property>
  <property name="kdenlive:original.meta.media.1.codec.sample_fmt">fltp</property>
  <property name="kdenlive:original.meta.media.1.codec.sample_rate">48000</property>
  <property name="kdenlive:original.meta.media.1.codec.channels">2</property>
  <property name="kdenlive:original.meta.media.1.codec.name">aac</property>
  <property name="kdenlive:original.meta.media.1.codec.long_name">AAC (Advanced Audio Coding)</property>
  <property name="kdenlive:original.meta.media.1.codec.bit_rate">125373</property>
  <property name="kdenlive:original.meta.attr.1.stream.creation_time.markup">2021-06-02T15:25:09.000000Z</property>
  <property name="kdenlive:original.meta.attr.1.stream.handler_name.markup">SoundHandler</property>
  <property name="kdenlive:original.meta.attr.1.stream.vendor_id.markup">[0][0][0][0]</property>
  <property name="kdenlive:original.meta.attr.major_brand.markup">isom</property>
  <property name="kdenlive:original.meta.attr.minor_version.markup">512</property>
  <property name="kdenlive:original.meta.attr.compatible_brands.markup">isomiso2avc1mp41</property>
  <property name="kdenlive:original.meta.attr.creation_time.markup">2021-06-02T15:25:09.000000Z</property>
  <property name="kdenlive:original.meta.attr.encoder.markup">Lavf58.45.100</property>
  <property name="kdenlive:original.seekable">1</property>
  <property name="kdenlive:original.width">3840</property>
  <property name="kdenlive:original.height">2160</property>
  <property name="kdenlive:original.meta.media.sample_aspect_num">1</property>
  <property name="kdenlive:original.meta.media.sample_aspect_den">1</property>
  <property name="kdenlive:original.aspect_ratio">1</property>
  <property name="kdenlive:original.audio_index">1</property>
  <property name="kdenlive:original.video_index">0</property>
  <property name="kdenlive:original.mute_on_pause">0</property>
  <property name="kdenlive:original.mlt_service">avformat-novalidate</property>
  <property name="kdenlive:original.kdenlive:folderid">65</property>
  <property name="kdenlive:original.meta.media.frame_rate_num">30000</property>
  <property name="kdenlive:original.meta.media.frame_rate_den">1001</property>
  <property name="kdenlive:original.meta.media.colorspace">709</property>
  <property name="kdenlive:original.meta.media.color_trc">1</property>
  <property name="kdenlive:original.meta.media.width">3840</property>
  <property name="kdenlive:original.meta.media.height">2160</property>
  <property name="kdenlive:original.meta.media.color_range">full</property>
  <property name="kdenlive:original.kdenlive:id">69</property>
  <property name="kdenlive:original.kdenlive:file_size">631052450</property>
  <property name="kdenlive:original.kdenlive:file_hash">0efd61042eb59ca6e960e19739c2c895</property>
  <property name="kdenlive:original.kdenlive:audio_max">5</property>
  <property name="kdenlive:original.meta.media.top_field_first">0</property>
  <property name="kdenlive:original.meta.media.progressive">1</property>
  <property name="kdenlive:original.kdenlive:zone_in">8</property>
  <property name="kdenlive:original.kdenlive:zone_out">617</property>
  <property name="kdenlive:original.kdenlive:clipzones">[
    {
        "in": 8,
        "name": "opening",
        "out": 617
    }
]
</property>
  <property name="kdenlive:original.root">/</property>
  <property name="kdenlive:original.global_feed">1</property>
  <property name="kdenlive:original.kdenlive:active_streams">-1</property>
  <property name="kdenlive:original.backup">1</property>
  <property name="kdenlive:activeeffect">0</property>
  <property name="xml">was here</property>
  <property name="meta.media.nb_streams">2</property>
  <property name="meta.media.0.stream.type">video</property>
  <property name="meta.media.0.stream.frame_rate">29.97</property>
  <property name="meta.media.0.stream.sample_aspect_ratio">1</property>
  <property name="meta.media.0.codec.width">640</property>
  <property name="meta.media.0.codec.height">360</property>
  <property name="meta.media.0.codec.rotate">0</property>
  <property name="meta.media.0.codec.frame_rate">1000</property>
  <property name="meta.media.0.codec.pix_fmt">yuvj420p</property>
  <property name="meta.media.0.codec.sample_aspect_ratio">1</property>
  <property name="meta.media.0.codec.colorspace">601</property>
  <property name="meta.media.0.codec.color_trc">1</property>
  <property name="meta.media.0.codec.name">mjpeg</property>
  <property name="meta.media.0.codec.long_name">MJPEG (Motion JPEG)</property>
  <property name="meta.media.0.codec.bit_rate">0</property>
  <property name="meta.attr.0.stream.HANDLER_NAME.markup">VideoHandler</property>
  <property name="meta.attr.0.stream.VENDOR_ID.markup">[0][0][0][0]</property>
  <property name="meta.attr.0.stream.ENCODER.markup">Lavc58.134.100 mjpeg</property>
  <property name="meta.attr.0.stream.DURATION.markup">00:00:52.686000000</property>
  <property name="meta.media.1.stream.type">audio</property>
  <property name="meta.media.1.codec.sample_fmt">s16</property>
  <property name="meta.media.1.codec.sample_rate">48000</property>
  <property name="meta.media.1.codec.channels">2</property>
  <property name="meta.media.1.codec.name">pcm_s16le</property>
  <property name="meta.media.1.codec.long_name">PCM signed 16-bit little-endian</property>
  <property name="meta.media.1.codec.bit_rate">1536000</property>
  <property name="meta.attr.1.stream.HANDLER_NAME.markup">SoundHandler</property>
  <property name="meta.attr.1.stream.VENDOR_ID.markup">[0][0][0][0]</property>
  <property name="meta.attr.1.stream.ENCODER.markup">Lavc58.134.100 pcm_s16le</property>
  <property name="meta.attr.1.stream.DURATION.markup">00:00:52.672000000</property>
  <property name="meta.attr.COMPATIBLE_BRANDS.markup">isomiso2avc1mp41</property>
  <property name="meta.attr.MAJOR_BRAND.markup">isom</property>
  <property name="meta.attr.MINOR_VERSION.markup">512</property>
  <property name="meta.attr.ENCODER.markup">Lavf58.76.100</property>
  <property name="meta.media.sample_aspect_num">1</property>
  <property name="meta.media.sample_aspect_den">1</property>
  <property name="meta.media.frame_rate_num">30000</property>
  <property name="meta.media.frame_rate_den">1001</property>
  <property name="meta.media.colorspace">601</property>
  <property name="meta.media.color_trc">1</property>
  <property name="meta.media.width">640</property>
  <property name="meta.media.height">360</property>
  <property name="meta.media.color_range">full</property>
  <property name="meta.media.top_field_first">0</property>
  <property name="meta.media.progressive">1</property>
  <property name="set.test_audio">1</property>
  <property name="set.test_image">0</property>
  <filter id="filter250">
   <property name="version">0.6</property>
   <property name="mlt_service">frei0r.select0r</property>
   <property name="kdenlive_id">frei0r.select0r</property>
   <property name="Color to select">0x568754ff</property>
   <property name="Invert selection">1</property>
   <property name="Selection subspace">1</property>
   <property name="Subspace shape">0.5</property>
   <property name="Edge mode">0.9</property>
   <property name="Delta R / A / Hue">00:00:00.000=0.07</property>
   <property name="Delta G / B / Chroma">00:00:00.000=0.227</property>
   <property name="Delta B / I / I">00:00:00.000=0.227</property>
   <property name="Slope">00:00:00.000=0.22</property>
   <property name="Operation">0.5</property>
  </filter>
  <filter id="filter251">
   <property name="version">0.4</property>
   <property name="mlt_service">frei0r.alpha0ps</property>
   <property name="kdenlive_id">frei0r.alpha0ps</property>
   <property name="Display">0</property>
   <property name="Display input alpha">0</property>
   <property name="Operation">1</property>
   <property name="Threshold">00:00:00.000=0.5</property>
   <property name="Shrink/Grow/Blur amount">00:00:00.000=0.179</property>
   <property name="Invert">0</property>
  </filter>
  <filter id="filter252">
   <property name="mode">alpha</property>
   <property name="alpha_operation">add</property>
   <property name="invert">0</property>
   <property name="feather">0</property>
   <property name="feather_passes">1</property>
   <property name="mlt_service">rotoscoping</property>
   <property name="kdenlive_id">rotoscoping</property>
   <property name="spline">{
    "000": [
        [
            [
                0.06256499133448873,
                0.39645608628659473
            ],
            [
                0.06412478336221837,
                0.37057010785824346
            ],
            [
                0.10121317157712305,
                0.38073959938366714
            ]
        ],
        [
            [
                0.2124783362218371,
                0.41124807395993834
            ],
            [
                0.24956672443674177,
                0.421417565485362
            ],
            [
                0.255632582322357,
                0.421417565485362
            ]
        ],
        [
            [
                0.2738301559792028,
                0.421417565485362
            ],
            [
                0.279896013864818,
                0.421417565485362
            ],
            [
                0.3225303292894281,
                0.48274268104776574
            ]
        ],
        [
            [
                0.4504332755632582,
                0.6667180277349768
            ],
            [
                0.4930675909878683,
                0.7280431432973805
            ],
            [
                0.4930675909878683,
                0.731432973805855
            ]
        ],
        [
            [
                0.4930675909878683,
                0.7416024653312788
            ],
            [
                0.4930675909878683,
                0.7449922958397535
            ],
            [
                0.4954939341421144,
                0.7477657935285054
            ]
        ],
        [
            [
                0.5027729636048527,
                0.7560862865947611
            ],
            [
                0.5051993067590987,
                0.758859784283513
            ],
            [
                0.504159445407279,
                0.7705701078582433
            ]
        ],
        [
            [
                0.5010398613518198,
                0.8057010785824344
            ],
            [
                0.5,
                0.8174114021571648
            ],
            [
                0.4974003466204506,
                0.8186440677966101
            ]
        ],
        [
            [
                0.4896013864818024,
                0.822342064714946
            ],
            [
                0.487001733102253,
                0.8235747303543913
            ],
            [
                0.5135181975736568,
                0.8617873651771957
            ]
        ],
        [
            [
                0.5930675909878682,
                0.9764252696456085
            ],
            [
                0.6195840554592721,
                1.0146379044684128
            ],
            [
                0.5584055459272097,
                1.0183359013867488
            ]
        ],
        [
            [
                0.3748700173310225,
                1.0294298921417566
            ],
            [
                0.3136915077989601,
                1.0331278890600923
            ],
            [
                0.30381282495667244,
                1.009090909090909
            ]
        ],
        [
            [
                0.2741767764298093,
                0.9369799691833589
            ],
            [
                0.26429809358752165,
                0.9129429892141756
            ],
            [
                0.24783362218370883,
                0.9049306625577812
            ]
        ],
        [
            [
                0.19844020797227035,
                0.8808936825885977
            ],
            [
                0.18197573656845753,
                0.8728813559322033
            ],
            [
                0.15684575389948005,
                0.7983050847457626
            ]
        ],
        [
            [
                0.08145580589254765,
                0.5745762711864407
            ],
            [
                0.05632582322357019,
                0.5
            ],
            [
                0.05788561525129983,
                0.47411402157164867
            ]
        ]
    ]
}
</property>
  </filter>
  <filter id="filter253">
   <property name="version">0.3</property>
   <property name="mlt_service">frei0r.keyspillm0pup</property>
   <property name="kdenlive_id">frei0r.keyspillm0pup</property>
   <property name="Key color">0x59ad67ff</property>
   <property name="Target color">0xC87F65ff</property>
   <property name="Mask type">0</property>
   <property name="Tolerance">00:00:00.000=0.162</property>
   <property name="Slope">00:00:00.000=0.079</property>
   <property name="Hue gate">00:00:00.000=0.214</property>
   <property name="Saturation threshold">00:00:00.000=0.064</property>
   <property name="Operation 1">1</property>
   <property name="Amount 1">00:00:00.000=0.333</property>
   <property name="Operation 2">3</property>
   <property name="Amount 2">00:00:00.000=0.218</property>
   <property name="Show mask">0</property>
   <property name="Mask to Alpha">0</property>
  </filter>
 </producer>
 <producer id="producer187" in="00:00:00.000" out="00:02:22.233">
  <property name="length">4268</property>
  <property name="eof">pause</property>
  <property name="resource">content/2021-02-06_Chris_synth+4k_dhaivat_P1180156-take3_ending.MP4</property>
  <property name="audio_index">1</property>
  <property name="video_index">0</property>
  <property name="mute_on_pause">0</property>
  <property name="mlt_service">avformat-novalidate</property>
  <property name="seekable">1</property>
  <property name="aspect_ratio">1</property>
  <property name="kdenlive:clipname">2021-02-06_Chris_synth+4k_dhaivat_P1180156-take3_ending.MP4</property>
  <property name="kdenlive:folderid">65</property>
  <property name="kdenlive:id">13</property>
  <property name="kdenlive:file_size">1707894758</property>
  <property name="kdenlive:file_hash">4a65ba6c4d5a23a4e3c848bc95eb6a5b</property>
  <property name="kdenlive:audio_max">1</property>
  <property name="kdenlive:zone_in">49</property>
  <property name="kdenlive:zone_out">4164</property>
  <property name="kdenlive:clipzones">[
    {
        "in": 49,
        "name": "synth ending",
        "out": 4164
    }
]
</property>
  <property name="global_feed">1</property>
  <property name="kdenlive:proxy">-</property>
  <property name="kdenlive:originalurl">content/2021-02-06_Chris_synth+4k_dhaivat_P1180156-take3_ending.MP4</property>
  <property name="kdenlive:original.mlt_type">mlt_producer</property>
  <property name="kdenlive:original.in">00:00:00.000</property>
  <property name="kdenlive:original.out">00:02:22.233</property>
  <property name="kdenlive:original.length">4268</property>
  <property name="kdenlive:original.eof">pause</property>
  <property name="kdenlive:original.resource">content/2021-02-06_Chris_synth+4k_dhaivat_P1180156-take3_ending.MP4</property>
  <property name="kdenlive:original.meta.media.nb_streams">2</property>
  <property name="kdenlive:original.meta.media.0.stream.type">video</property>
  <property name="kdenlive:original.meta.media.0.stream.frame_rate">29.97</property>
  <property name="kdenlive:original.meta.media.0.stream.sample_aspect_ratio">1</property>
  <property name="kdenlive:original.meta.media.0.codec.width">3840</property>
  <property name="kdenlive:original.meta.media.0.codec.height">2160</property>
  <property name="kdenlive:original.meta.media.0.codec.rotate">0</property>
  <property name="kdenlive:original.meta.media.0.codec.frame_rate">29.97</property>
  <property name="kdenlive:original.meta.media.0.codec.pix_fmt">yuvj420p</property>
  <property name="kdenlive:original.meta.media.0.codec.sample_aspect_ratio">1</property>
  <property name="kdenlive:original.meta.media.0.codec.colorspace">709</property>
  <property name="kdenlive:original.meta.media.0.codec.color_trc">1</property>
  <property name="kdenlive:original.meta.media.0.codec.name">h264</property>
  <property name="kdenlive:original.meta.media.0.codec.long_name">H.264 / AVC / MPEG-4 AVC / MPEG-4 part 10</property>
  <property name="kdenlive:original.meta.media.0.codec.bit_rate">95899185</property>
  <property name="kdenlive:original.meta.attr.0.stream.creation_time.markup">2021-06-02T15:25:09.000000Z</property>
  <property name="kdenlive:original.meta.attr.0.stream.handler_name.markup">VideoHandler</property>
  <property name="kdenlive:original.meta.attr.0.stream.vendor_id.markup">[0][0][0][0]</property>
  <property name="kdenlive:original.meta.media.1.stream.type">audio</property>
  <property name="kdenlive:original.meta.media.1.codec.sample_fmt">fltp</property>
  <property name="kdenlive:original.meta.media.1.codec.sample_rate">48000</property>
  <property name="kdenlive:original.meta.media.1.codec.channels">2</property>
  <property name="kdenlive:original.meta.media.1.codec.name">aac</property>
  <property name="kdenlive:original.meta.media.1.codec.long_name">AAC (Advanced Audio Coding)</property>
  <property name="kdenlive:original.meta.media.1.codec.bit_rate">125373</property>
  <property name="kdenlive:original.meta.attr.1.stream.creation_time.markup">2021-06-02T15:25:09.000000Z</property>
  <property name="kdenlive:original.meta.attr.1.stream.handler_name.markup">SoundHandler</property>
  <property name="kdenlive:original.meta.attr.1.stream.vendor_id.markup">[0][0][0][0]</property>
  <property name="kdenlive:original.meta.attr.major_brand.markup">isom</property>
  <property name="kdenlive:original.meta.attr.minor_version.markup">512</property>
  <property name="kdenlive:original.meta.attr.compatible_brands.markup">isomiso2avc1mp41</property>
  <property name="kdenlive:original.meta.attr.creation_time.markup">2021-06-02T15:25:09.000000Z</property>
  <property name="kdenlive:original.meta.attr.encoder.markup">Lavf58.45.100</property>
  <property name="kdenlive:original.seekable">1</property>
  <property name="kdenlive:original.width">3840</property>
  <property name="kdenlive:original.height">2160</property>
  <property name="kdenlive:original.meta.media.sample_aspect_num">1</property>
  <property name="kdenlive:original.meta.media.sample_aspect_den">1</property>
  <property name="kdenlive:original.aspect_ratio">1</property>
  <property name="kdenlive:original.audio_index">1</property>
  <property name="kdenlive:original.video_index">0</property>
  <property name="kdenlive:original.mute_on_pause">0</property>
  <property name="kdenlive:original.mlt_service">avformat-novalidate</property>
  <property name="kdenlive:original.kdenlive:folderid">65</property>
  <property name="kdenlive:original.meta.media.frame_rate_num">30000</property>
  <property name="kdenlive:original.meta.media.frame_rate_den">1001</property>
  <property name="kdenlive:original.meta.media.colorspace">709</property>
  <property name="kdenlive:original.meta.media.color_trc">1</property>
  <property name="kdenlive:original.meta.media.width">3840</property>
  <property name="kdenlive:original.meta.media.height">2160</property>
  <property name="kdenlive:original.meta.media.color_range">full</property>
  <property name="kdenlive:original.kdenlive:id">68</property>
  <property name="kdenlive:original.kdenlive:file_size">1707894758</property>
  <property name="kdenlive:original.kdenlive:file_hash">4a65ba6c4d5a23a4e3c848bc95eb6a5b</property>
  <property name="kdenlive:original.kdenlive:audio_max">1</property>
  <property name="kdenlive:original.meta.media.top_field_first">0</property>
  <property name="kdenlive:original.meta.media.progressive">1</property>
  <property name="kdenlive:original.kdenlive:zone_in">49</property>
  <property name="kdenlive:original.kdenlive:zone_out">4164</property>
  <property name="kdenlive:original.kdenlive:clipzones">[
    {
        "in": 49,
        "name": "synth ending",
        "out": 4164
    }
]
</property>
  <property name="kdenlive:original.root">/</property>
  <property name="kdenlive:original.global_feed">1</property>
  <property name="kdenlive:original.backup">1</property>
  <property name="kdenlive:activeeffect">0</property>
  <property name="kdenlive:active_streams">-1</property>
  <property name="xml">was here</property>
  <property name="meta.media.nb_streams">2</property>
  <property name="meta.media.0.stream.type">video</property>
  <property name="meta.media.0.stream.frame_rate">29.97</property>
  <property name="meta.media.0.stream.sample_aspect_ratio">1</property>
  <property name="meta.media.0.codec.width">640</property>
  <property name="meta.media.0.codec.height">360</property>
  <property name="meta.media.0.codec.rotate">0</property>
  <property name="meta.media.0.codec.frame_rate">1000</property>
  <property name="meta.media.0.codec.pix_fmt">yuvj420p</property>
  <property name="meta.media.0.codec.sample_aspect_ratio">1</property>
  <property name="meta.media.0.codec.colorspace">601</property>
  <property name="meta.media.0.codec.color_trc">1</property>
  <property name="meta.media.0.codec.name">mjpeg</property>
  <property name="meta.media.0.codec.long_name">MJPEG (Motion JPEG)</property>
  <property name="meta.media.0.codec.bit_rate">0</property>
  <property name="meta.attr.0.stream.HANDLER_NAME.markup">VideoHandler</property>
  <property name="meta.attr.0.stream.VENDOR_ID.markup">[0][0][0][0]</property>
  <property name="meta.attr.0.stream.ENCODER.markup">Lavc58.134.100 mjpeg</property>
  <property name="meta.attr.0.stream.DURATION.markup">00:02:22.409000000</property>
  <property name="meta.media.1.stream.type">audio</property>
  <property name="meta.media.1.codec.sample_fmt">s16</property>
  <property name="meta.media.1.codec.sample_rate">48000</property>
  <property name="meta.media.1.codec.channels">2</property>
  <property name="meta.media.1.codec.name">pcm_s16le</property>
  <property name="meta.media.1.codec.long_name">PCM signed 16-bit little-endian</property>
  <property name="meta.media.1.codec.bit_rate">1536000</property>
  <property name="meta.attr.1.stream.HANDLER_NAME.markup">SoundHandler</property>
  <property name="meta.attr.1.stream.VENDOR_ID.markup">[0][0][0][0]</property>
  <property name="meta.attr.1.stream.ENCODER.markup">Lavc58.134.100 pcm_s16le</property>
  <property name="meta.attr.1.stream.DURATION.markup">00:02:22.272000000</property>
  <property name="meta.attr.COMPATIBLE_BRANDS.markup">isomiso2avc1mp41</property>
  <property name="meta.attr.MAJOR_BRAND.markup">isom</property>
  <property name="meta.attr.MINOR_VERSION.markup">512</property>
  <property name="meta.attr.ENCODER.markup">Lavf58.76.100</property>
  <property name="meta.media.sample_aspect_num">1</property>
  <property name="meta.media.sample_aspect_den">1</property>
  <property name="meta.media.frame_rate_num">30000</property>
  <property name="meta.media.frame_rate_den">1001</property>
  <property name="meta.media.colorspace">601</property>
  <property name="meta.media.color_trc">1</property>
  <property name="meta.media.width">640</property>
  <property name="meta.media.height">360</property>
  <property name="meta.media.color_range">full</property>
  <property name="meta.media.top_field_first">0</property>
  <property name="meta.media.progressive">1</property>
  <property name="set.test_audio">1</property>
  <property name="set.test_image">0</property>
 </producer>
 <producer id="producer49" in="00:00:00.000" out="00:02:22.233">
  <property name="length">4268</property>
  <property name="eof">pause</property>
  <property name="resource">content/2021-02-06_Chris_synth+4k_dhaivat_P1180156-take3_ending.MP4</property>
  <property name="audio_index">1</property>
  <property name="video_index">0</property>
  <property name="mute_on_pause">0</property>
  <property name="mlt_service">avformat-novalidate</property>
  <property name="seekable">1</property>
  <property name="aspect_ratio">1</property>
  <property name="kdenlive:clipname">2021-02-06_Chris_synth+4k_dhaivat_P1180156-take3_ending.MP4</property>
  <property name="kdenlive:folderid">65</property>
  <property name="kdenlive:id">13</property>
  <property name="kdenlive:file_size">1707894758</property>
  <property name="kdenlive:file_hash">4a65ba6c4d5a23a4e3c848bc95eb6a5b</property>
  <property name="kdenlive:audio_max">1</property>
  <property name="kdenlive:zone_in">49</property>
  <property name="kdenlive:zone_out">4164</property>
  <property name="kdenlive:clipzones">[
    {
        "in": 49,
        "name": "synth ending",
        "out": 4164
    }
]
</property>
  <property name="global_feed">1</property>
  <property name="kdenlive:proxy">-</property>
  <property name="kdenlive:originalurl">content/2021-02-06_Chris_synth+4k_dhaivat_P1180156-take3_ending.MP4</property>
  <property name="kdenlive:activeeffect">0</property>
  <property name="kdenlive:active_streams">-1</property>
  <property name="xml">was here</property>
  <property name="meta.media.nb_streams">2</property>
  <property name="meta.media.0.stream.type">video</property>
  <property name="meta.media.0.stream.frame_rate">29.97</property>
  <property name="meta.media.0.stream.sample_aspect_ratio">1</property>
  <property name="meta.media.0.codec.width">3840</property>
  <property name="meta.media.0.codec.height">2160</property>
  <property name="meta.media.0.codec.rotate">0</property>
  <property name="meta.media.0.codec.frame_rate">29.97</property>
  <property name="meta.media.0.codec.pix_fmt">yuvj420p</property>
  <property name="meta.media.0.codec.sample_aspect_ratio">1</property>
  <property name="meta.media.0.codec.colorspace">709</property>
  <property name="meta.media.0.codec.color_trc">1</property>
  <property name="meta.media.0.codec.name">h264</property>
  <property name="meta.media.0.codec.long_name">H.264 / AVC / MPEG-4 AVC / MPEG-4 part 10</property>
  <property name="meta.media.0.codec.bit_rate">95899185</property>
  <property name="meta.attr.0.stream.creation_time.markup">2021-06-02T15:25:09.000000Z</property>
  <property name="meta.attr.0.stream.handler_name.markup">VideoHandler</property>
  <property name="meta.media.1.stream.type">audio</property>
  <property name="meta.media.1.codec.sample_fmt">fltp</property>
  <property name="meta.media.1.codec.sample_rate">48000</property>
  <property name="meta.media.1.codec.channels">2</property>
  <property name="meta.media.1.codec.name">aac</property>
  <property name="meta.media.1.codec.long_name">AAC (Advanced Audio Coding)</property>
  <property name="meta.media.1.codec.bit_rate">125373</property>
  <property name="meta.attr.1.stream.creation_time.markup">2021-06-02T15:25:09.000000Z</property>
  <property name="meta.attr.1.stream.handler_name.markup">SoundHandler</property>
  <property name="meta.attr.major_brand.markup">isom</property>
  <property name="meta.attr.minor_version.markup">512</property>
  <property name="meta.attr.compatible_brands.markup">isomiso2avc1mp41</property>
  <property name="meta.attr.creation_time.markup">2021-06-02T15:25:09.000000Z</property>
  <property name="meta.attr.encoder.markup">Lavf58.45.100</property>
  <property name="meta.media.sample_aspect_num">1</property>
  <property name="meta.media.sample_aspect_den">1</property>
  <property name="meta.media.frame_rate_num">30000</property>
  <property name="meta.media.frame_rate_den">1001</property>
  <property name="meta.media.colorspace">709</property>
  <property name="meta.media.color_trc">1</property>
  <property name="meta.media.width">3840</property>
  <property name="meta.media.height">2160</property>
  <property name="meta.media.color_range">full</property>
  <property name="set.test_audio">1</property>
  <property name="set.test_image">1</property>
  <filter id="filter177">
   <property name="version">0.6</property>
   <property name="mlt_service">frei0r.select0r</property>
   <property name="kdenlive_id">frei0r.select0r</property>
   <property name="Color to select">0x568754ff</property>
   <property name="Invert selection">1</property>
   <property name="Selection subspace">1</property>
   <property name="Subspace shape">1</property>
   <property name="Edge mode">0.9</property>
   <property name="Delta R / A / Hue">00:00:00.000=0.083</property>
   <property name="Delta G / B / Chroma">00:00:00.000=0.278</property>
   <property name="Delta B / I / I">00:00:00.000=0.373</property>
   <property name="Slope">00:00:00.000=0.106</property>
   <property name="Operation">0.5</property>
   <property name="kdenlive:collapsed">0</property>
   <property name="disable">0</property>
  </filter>
  <filter id="filter178">
   <property name="version">0.4</property>
   <property name="mlt_service">frei0r.alpha0ps</property>
   <property name="kdenlive_id">frei0r.alpha0ps</property>
   <property name="Display">0</property>
   <property name="Display input alpha">0</property>
   <property name="Operation">1</property>
   <property name="Threshold">00:00:00.000=0.5</property>
   <property name="Shrink/Grow/Blur amount">00:00:00.000=0.227</property>
   <property name="Invert">0</property>
   <property name="kdenlive:collapsed">0</property>
  </filter>
  <filter id="filter179">
   <property name="mode">alpha</property>
   <property name="alpha_operation">add</property>
   <property name="invert">0</property>
   <property name="feather">3</property>
   <property name="feather_passes">1</property>
   <property name="mlt_service">rotoscoping</property>
   <property name="kdenlive_id">rotoscoping</property>
   <property name="spline">{
    "000": [
        [
            [
                0.06568457538994801,
                0.40724191063174114
            ],
            [
                0.0684575389948007,
                0.37673343605546994
            ],
            [
                0.10485268630849219,
                0.3850539291217257
            ]
        ],
        [
            [
                0.21403812824956672,
                0.41001540832049305
            ],
            [
                0.25043327556325823,
                0.4183359013867488
            ],
            [
                0.25649913344887343,
                0.4186440677966101
            ]
        ],
        [
            [
                0.27469670710571925,
                0.41956856702619405
            ],
            [
                0.2807625649913345,
                0.4198767334360554
            ],
            [
                0.3233968804159445,
                0.48120184899845914
            ]
        ],
        [
            [
                0.4512998266897747,
                0.6651771956856702
            ],
            [
                0.4939341421143847,
                0.726502311248074
            ],
            [
                0.4935875216637781,
                0.7305084745762712
            ]
        ],
        [
            [
                0.49254766031195835,
                0.7425269645608628
            ],
            [
                0.49220103986135183,
                0.74653312788906
            ],
            [
                0.4942807625649913,
                0.7499229583975345
            ]
        ],
        [
            [
                0.5005199306759098,
                0.7600924499229583
            ],
            [
                0.5025996533795494,
                0.763482280431433
            ],
            [
                0.5025996533795494,
                0.773035439137134
            ]
        ],
        [
            [
                0.5025996533795494,
                0.8016949152542372
            ],
            [
                0.5025996533795494,
                0.8112480739599383
            ],
            [
                0.4996533795493934,
                0.8121725731895223
            ]
        ],
        [
            [
                0.49081455805892543,
                0.8149460708782742
            ],
            [
                0.48786828422876943,
                0.8158705701078582
            ],
            [
                0.5152512998266897,
                0.8580893682588597
            ]
        ],
        [
            [
                0.5974003466204506,
                0.9847457627118642
            ],
            [
                0.6247833622183709,
                1.026964560862866
            ],
            [
                0.5625649913344887,
                1.0285053929121724
            ]
        ],
        [
            [
                0.37590987868284226,
                1.0331278890600923
            ],
            [
                0.3136915077989601,
                1.034668721109399
            ],
            [
                0.30329289428076256,
                1.009090909090909
            ]
        ],
        [
            [
                0.2720970537261698,
                0.932357473035439
            ],
            [
                0.2616984402079722,
                0.9067796610169491
            ],
            [
                0.26152512998266897,
                0.8987673343605547
            ]
        ],
        [
            [
                0.2610051993067591,
                0.8747303543913713
            ],
            [
                0.26083188908145577,
                0.8667180277349767
            ],
            [
                0.24471403812824954,
                0.8676425269645608
            ]
        ],
        [
            [
                0.19636048526863084,
                0.8704160246533127
            ],
            [
                0.1802426343154246,
                0.8713405238828967
            ],
            [
                0.1551126516464471,
                0.8029275808936825
            ]
        ],
        [
            [
                0.07972270363951472,
                0.59768875192604
            ],
            [
                0.05459272097053726,
                0.5292758089368258
            ],
            [
                0.057365684575389944,
                0.49876733436055465
            ]
        ]
    ],
    "4267": [
        [
            [
                0.06568457538994801,
                0.40724191063174114
            ],
            [
                0.0684575389948007,
                0.37673343605546994
            ],
            [
                0.10485268630849219,
                0.3850539291217257
            ]
        ],
        [
            [
                0.21403812824956672,
                0.41001540832049305
            ],
            [
                0.25043327556325823,
                0.4183359013867488
            ],
            [
                0.25649913344887343,
                0.4186440677966101
            ]
        ],
        [
            [
                0.27469670710571925,
                0.41956856702619405
            ],
            [
                0.2807625649913345,
                0.4198767334360554
            ],
            [
                0.3233968804159445,
                0.48120184899845914
            ]
        ],
        [
            [
                0.4512998266897747,
                0.6651771956856702
            ],
            [
                0.4939341421143847,
                0.726502311248074
            ],
            [
                0.4935875216637781,
                0.7305084745762712
            ]
        ],
        [
            [
                0.49254766031195835,
                0.7425269645608628
            ],
            [
                0.49220103986135183,
                0.74653312788906
            ],
            [
                0.4942807625649913,
                0.7499229583975345
            ]
        ],
        [
            [
                0.5005199306759098,
                0.7600924499229583
            ],
            [
                0.5025996533795494,
                0.763482280431433
            ],
            [
                0.5025996533795494,
                0.773035439137134
            ]
        ],
        [
            [
                0.5025996533795494,
                0.8016949152542372
            ],
            [
                0.5025996533795494,
                0.8112480739599383
            ],
            [
                0.4996533795493934,
                0.8121725731895223
            ]
        ],
        [
            [
                0.49081455805892543,
                0.8149460708782742
            ],
            [
                0.48786828422876943,
                0.8158705701078582
            ],
            [
                0.5152512998266897,
                0.8580893682588597
            ]
        ],
        [
            [
                0.5974003466204506,
                0.9847457627118642
            ],
            [
                0.6247833622183709,
                1.026964560862866
            ],
            [
                0.5625649913344887,
                1.0285053929121724
            ]
        ],
        [
            [
                0.37590987868284226,
                1.0331278890600923
            ],
            [
                0.3136915077989601,
                1.034668721109399
            ],
            [
                0.30329289428076256,
                1.009090909090909
            ]
        ],
        [
            [
                0.2720970537261698,
                0.932357473035439
            ],
            [
                0.2616984402079722,
                0.9067796610169491
            ],
            [
                0.26152512998266897,
                0.8987673343605547
            ]
        ],
        [
            [
                0.2610051993067591,
                0.8747303543913713
            ],
            [
                0.26083188908145577,
                0.8667180277349767
            ],
            [
                0.24471403812824954,
                0.8676425269645608
            ]
        ],
        [
            [
                0.19636048526863084,
                0.8704160246533127
            ],
            [
                0.1802426343154246,
                0.8713405238828967
            ],
            [
                0.1551126516464471,
                0.8029275808936825
            ]
        ],
        [
            [
                0.07972270363951472,
                0.59768875192604
            ],
            [
                0.05459272097053726,
                0.5292758089368258
            ],
            [
                0.057365684575389944,
                0.49876733436055465
            ]
        ]
    ]
}
</property>
   <property name="kdenlive:collapsed">0</property>
  </filter>
  <filter id="filter184">
   <property name="version">0.3</property>
   <property name="mlt_service">frei0r.keyspillm0pup</property>
   <property name="kdenlive_id">frei0r.keyspillm0pup</property>
   <property name="Key color">0x6eab6bff</property>
   <property name="Target color">0xC87F65ff</property>
   <property name="Mask type">0</property>
   <property name="Tolerance">00:00:00.000=0.304</property>
   <property name="Slope">00:00:00.000=0.294</property>
   <property name="Hue gate">00:00:00.000=0.185</property>
   <property name="Saturation threshold">00:00:00.000=0.189</property>
   <property name="Operation 1">1</property>
   <property name="Amount 1">00:00:00.000=0.5</property>
   <property name="Operation 2">3</property>
   <property name="Amount 2">00:00:00.000=0.256</property>
   <property name="Show mask">0</property>
   <property name="Mask to Alpha">0</property>
   <property name="kdenlive:collapsed">0</property>
  </filter>
 </producer>
 <producer id="producer189" in="00:00:00.000" out="00:02:22.233">
  <property name="length">4268</property>
  <property name="eof">pause</property>
  <property name="resource">content/2021-02-06_Chris_synth+4k_dhaivat_P1180156-take3_ending.MP4</property>
  <property name="audio_index">1</property>
  <property name="video_index">0</property>
  <property name="mute_on_pause">0</property>
  <property name="mlt_service">avformat-novalidate</property>
  <property name="seekable">1</property>
  <property name="aspect_ratio">1</property>
  <property name="kdenlive:clipname">2021-02-06_Chris_synth+4k_dhaivat_P1180156-take3_ending.MP4</property>
  <property name="kdenlive:folderid">65</property>
  <property name="kdenlive:id">13</property>
  <property name="kdenlive:file_size">1707894758</property>
  <property name="kdenlive:file_hash">4a65ba6c4d5a23a4e3c848bc95eb6a5b</property>
  <property name="kdenlive:audio_max">1</property>
  <property name="kdenlive:zone_in">49</property>
  <property name="kdenlive:zone_out">4164</property>
  <property name="kdenlive:clipzones">[
    {
        "in": 49,
        "name": "synth ending",
        "out": 4164
    }
]
</property>
  <property name="global_feed">1</property>
  <property name="kdenlive:proxy">-</property>
  <property name="kdenlive:originalurl">content/2021-02-06_Chris_synth+4k_dhaivat_P1180156-take3_ending.MP4</property>
  <property name="kdenlive:original.mlt_type">mlt_producer</property>
  <property name="kdenlive:original.in">00:00:00.000</property>
  <property name="kdenlive:original.out">00:02:22.233</property>
  <property name="kdenlive:original.length">4268</property>
  <property name="kdenlive:original.eof">pause</property>
  <property name="kdenlive:original.resource">content/2021-02-06_Chris_synth+4k_dhaivat_P1180156-take3_ending.MP4</property>
  <property name="kdenlive:original.meta.media.nb_streams">2</property>
  <property name="kdenlive:original.meta.media.0.stream.type">video</property>
  <property name="kdenlive:original.meta.media.0.stream.frame_rate">29.97</property>
  <property name="kdenlive:original.meta.media.0.stream.sample_aspect_ratio">1</property>
  <property name="kdenlive:original.meta.media.0.codec.width">3840</property>
  <property name="kdenlive:original.meta.media.0.codec.height">2160</property>
  <property name="kdenlive:original.meta.media.0.codec.rotate">0</property>
  <property name="kdenlive:original.meta.media.0.codec.frame_rate">29.97</property>
  <property name="kdenlive:original.meta.media.0.codec.pix_fmt">yuvj420p</property>
  <property name="kdenlive:original.meta.media.0.codec.sample_aspect_ratio">1</property>
  <property name="kdenlive:original.meta.media.0.codec.colorspace">709</property>
  <property name="kdenlive:original.meta.media.0.codec.color_trc">1</property>
  <property name="kdenlive:original.meta.media.0.codec.name">h264</property>
  <property name="kdenlive:original.meta.media.0.codec.long_name">H.264 / AVC / MPEG-4 AVC / MPEG-4 part 10</property>
  <property name="kdenlive:original.meta.media.0.codec.bit_rate">95899185</property>
  <property name="kdenlive:original.meta.attr.0.stream.creation_time.markup">2021-06-02T15:25:09.000000Z</property>
  <property name="kdenlive:original.meta.attr.0.stream.handler_name.markup">VideoHandler</property>
  <property name="kdenlive:original.meta.attr.0.stream.vendor_id.markup">[0][0][0][0]</property>
  <property name="kdenlive:original.meta.media.1.stream.type">audio</property>
  <property name="kdenlive:original.meta.media.1.codec.sample_fmt">fltp</property>
  <property name="kdenlive:original.meta.media.1.codec.sample_rate">48000</property>
  <property name="kdenlive:original.meta.media.1.codec.channels">2</property>
  <property name="kdenlive:original.meta.media.1.codec.name">aac</property>
  <property name="kdenlive:original.meta.media.1.codec.long_name">AAC (Advanced Audio Coding)</property>
  <property name="kdenlive:original.meta.media.1.codec.bit_rate">125373</property>
  <property name="kdenlive:original.meta.attr.1.stream.creation_time.markup">2021-06-02T15:25:09.000000Z</property>
  <property name="kdenlive:original.meta.attr.1.stream.handler_name.markup">SoundHandler</property>
  <property name="kdenlive:original.meta.attr.1.stream.vendor_id.markup">[0][0][0][0]</property>
  <property name="kdenlive:original.meta.attr.major_brand.markup">isom</property>
  <property name="kdenlive:original.meta.attr.minor_version.markup">512</property>
  <property name="kdenlive:original.meta.attr.compatible_brands.markup">isomiso2avc1mp41</property>
  <property name="kdenlive:original.meta.attr.creation_time.markup">2021-06-02T15:25:09.000000Z</property>
  <property name="kdenlive:original.meta.attr.encoder.markup">Lavf58.45.100</property>
  <property name="kdenlive:original.seekable">1</property>
  <property name="kdenlive:original.width">3840</property>
  <property name="kdenlive:original.height">2160</property>
  <property name="kdenlive:original.meta.media.sample_aspect_num">1</property>
  <property name="kdenlive:original.meta.media.sample_aspect_den">1</property>
  <property name="kdenlive:original.aspect_ratio">1</property>
  <property name="kdenlive:original.audio_index">1</property>
  <property name="kdenlive:original.video_index">0</property>
  <property name="kdenlive:original.mute_on_pause">0</property>
  <property name="kdenlive:original.mlt_service">avformat-novalidate</property>
  <property name="kdenlive:original.kdenlive:folderid">65</property>
  <property name="kdenlive:original.meta.media.frame_rate_num">30000</property>
  <property name="kdenlive:original.meta.media.frame_rate_den">1001</property>
  <property name="kdenlive:original.meta.media.colorspace">709</property>
  <property name="kdenlive:original.meta.media.color_trc">1</property>
  <property name="kdenlive:original.meta.media.width">3840</property>
  <property name="kdenlive:original.meta.media.height">2160</property>
  <property name="kdenlive:original.meta.media.color_range">full</property>
  <property name="kdenlive:original.kdenlive:id">68</property>
  <property name="kdenlive:original.kdenlive:file_size">1707894758</property>
  <property name="kdenlive:original.kdenlive:file_hash">4a65ba6c4d5a23a4e3c848bc95eb6a5b</property>
  <property name="kdenlive:original.kdenlive:audio_max">1</property>
  <property name="kdenlive:original.meta.media.top_field_first">0</property>
  <property name="kdenlive:original.meta.media.progressive">1</property>
  <property name="kdenlive:original.kdenlive:zone_in">49</property>
  <property name="kdenlive:original.kdenlive:zone_out">4164</property>
  <property name="kdenlive:original.kdenlive:clipzones">[
    {
        "in": 49,
        "name": "synth ending",
        "out": 4164
    }
]
</property>
  <property name="kdenlive:original.root">/</property>
  <property name="kdenlive:original.global_feed">1</property>
  <property name="kdenlive:original.backup">1</property>
  <property name="kdenlive:activeeffect">0</property>
  <property name="kdenlive:active_streams">-1</property>
  <property name="xml">was here</property>
  <property name="meta.media.nb_streams">2</property>
  <property name="meta.media.0.stream.type">video</property>
  <property name="meta.media.0.stream.frame_rate">29.97</property>
  <property name="meta.media.0.stream.sample_aspect_ratio">1</property>
  <property name="meta.media.0.codec.width">640</property>
  <property name="meta.media.0.codec.height">360</property>
  <property name="meta.media.0.codec.rotate">0</property>
  <property name="meta.media.0.codec.frame_rate">1000</property>
  <property name="meta.media.0.codec.pix_fmt">yuvj420p</property>
  <property name="meta.media.0.codec.sample_aspect_ratio">1</property>
  <property name="meta.media.0.codec.colorspace">601</property>
  <property name="meta.media.0.codec.color_trc">1</property>
  <property name="meta.media.0.codec.name">mjpeg</property>
  <property name="meta.media.0.codec.long_name">MJPEG (Motion JPEG)</property>
  <property name="meta.media.0.codec.bit_rate">0</property>
  <property name="meta.attr.0.stream.HANDLER_NAME.markup">VideoHandler</property>
  <property name="meta.attr.0.stream.VENDOR_ID.markup">[0][0][0][0]</property>
  <property name="meta.attr.0.stream.ENCODER.markup">Lavc58.134.100 mjpeg</property>
  <property name="meta.attr.0.stream.DURATION.markup">00:02:22.409000000</property>
  <property name="meta.media.1.stream.type">audio</property>
  <property name="meta.media.1.codec.sample_fmt">s16</property>
  <property name="meta.media.1.codec.sample_rate">48000</property>
  <property name="meta.media.1.codec.channels">2</property>
  <property name="meta.media.1.codec.name">pcm_s16le</property>
  <property name="meta.media.1.codec.long_name">PCM signed 16-bit little-endian</property>
  <property name="meta.media.1.codec.bit_rate">1536000</property>
  <property name="meta.attr.1.stream.HANDLER_NAME.markup">SoundHandler</property>
  <property name="meta.attr.1.stream.VENDOR_ID.markup">[0][0][0][0]</property>
  <property name="meta.attr.1.stream.ENCODER.markup">Lavc58.134.100 pcm_s16le</property>
  <property name="meta.attr.1.stream.DURATION.markup">00:02:22.272000000</property>
  <property name="meta.attr.COMPATIBLE_BRANDS.markup">isomiso2avc1mp41</property>
  <property name="meta.attr.MAJOR_BRAND.markup">isom</property>
  <property name="meta.attr.MINOR_VERSION.markup">512</property>
  <property name="meta.attr.ENCODER.markup">Lavf58.76.100</property>
  <property name="meta.media.sample_aspect_num">1</property>
  <property name="meta.media.sample_aspect_den">1</property>
  <property name="meta.media.frame_rate_num">30000</property>
  <property name="meta.media.frame_rate_den">1001</property>
  <property name="meta.media.colorspace">601</property>
  <property name="meta.media.color_trc">1</property>
  <property name="meta.media.width">640</property>
  <property name="meta.media.height">360</property>
  <property name="meta.media.color_range">full</property>
  <property name="meta.media.top_field_first">0</property>
  <property name="meta.media.progressive">1</property>
  <property name="set.test_audio">1</property>
  <property name="set.test_image">0</property>
 </producer>
 <producer id="producer190" in="00:00:00.000" out="00:02:22.233">
  <property name="length">4268</property>
  <property name="eof">pause</property>
  <property name="resource">content/2021-02-06_Chris_synth+4k_dhaivat_P1180156-take3_ending.MP4</property>
  <property name="audio_index">1</property>
  <property name="video_index">0</property>
  <property name="mute_on_pause">0</property>
  <property name="mlt_service">avformat-novalidate</property>
  <property name="seekable">1</property>
  <property name="aspect_ratio">1</property>
  <property name="kdenlive:clipname">2021-02-06_Chris_synth+4k_dhaivat_P1180156-take3_ending.MP4</property>
  <property name="kdenlive:folderid">65</property>
  <property name="kdenlive:id">13</property>
  <property name="kdenlive:file_size">1707894758</property>
  <property name="kdenlive:file_hash">4a65ba6c4d5a23a4e3c848bc95eb6a5b</property>
  <property name="kdenlive:audio_max">1</property>
  <property name="kdenlive:zone_in">49</property>
  <property name="kdenlive:zone_out">4164</property>
  <property name="kdenlive:clipzones">[
    {
        "in": 49,
        "name": "synth ending",
        "out": 4164
    }
]
</property>
  <property name="global_feed">1</property>
  <property name="kdenlive:proxy">-</property>
  <property name="kdenlive:originalurl">content/2021-02-06_Chris_synth+4k_dhaivat_P1180156-take3_ending.MP4</property>
  <property name="kdenlive:original.mlt_type">mlt_producer</property>
  <property name="kdenlive:original.in">00:00:00.000</property>
  <property name="kdenlive:original.out">00:02:22.233</property>
  <property name="kdenlive:original.length">4268</property>
  <property name="kdenlive:original.eof">pause</property>
  <property name="kdenlive:original.resource">content/2021-02-06_Chris_synth+4k_dhaivat_P1180156-take3_ending.MP4</property>
  <property name="kdenlive:original.meta.media.nb_streams">2</property>
  <property name="kdenlive:original.meta.media.0.stream.type">video</property>
  <property name="kdenlive:original.meta.media.0.stream.frame_rate">29.97</property>
  <property name="kdenlive:original.meta.media.0.stream.sample_aspect_ratio">1</property>
  <property name="kdenlive:original.meta.media.0.codec.width">3840</property>
  <property name="kdenlive:original.meta.media.0.codec.height">2160</property>
  <property name="kdenlive:original.meta.media.0.codec.rotate">0</property>
  <property name="kdenlive:original.meta.media.0.codec.frame_rate">29.97</property>
  <property name="kdenlive:original.meta.media.0.codec.pix_fmt">yuvj420p</property>
  <property name="kdenlive:original.meta.media.0.codec.sample_aspect_ratio">1</property>
  <property name="kdenlive:original.meta.media.0.codec.colorspace">709</property>
  <property name="kdenlive:original.meta.media.0.codec.color_trc">1</property>
  <property name="kdenlive:original.meta.media.0.codec.name">h264</property>
  <property name="kdenlive:original.meta.media.0.codec.long_name">H.264 / AVC / MPEG-4 AVC / MPEG-4 part 10</property>
  <property name="kdenlive:original.meta.media.0.codec.bit_rate">95899185</property>
  <property name="kdenlive:original.meta.attr.0.stream.creation_time.markup">2021-06-02T15:25:09.000000Z</property>
  <property name="kdenlive:original.meta.attr.0.stream.handler_name.markup">VideoHandler</property>
  <property name="kdenlive:original.meta.attr.0.stream.vendor_id.markup">[0][0][0][0]</property>
  <property name="kdenlive:original.meta.media.1.stream.type">audio</property>
  <property name="kdenlive:original.meta.media.1.codec.sample_fmt">fltp</property>
  <property name="kdenlive:original.meta.media.1.codec.sample_rate">48000</property>
  <property name="kdenlive:original.meta.media.1.codec.channels">2</property>
  <property name="kdenlive:original.meta.media.1.codec.name">aac</property>
  <property name="kdenlive:original.meta.media.1.codec.long_name">AAC (Advanced Audio Coding)</property>
  <property name="kdenlive:original.meta.media.1.codec.bit_rate">125373</property>
  <property name="kdenlive:original.meta.attr.1.stream.creation_time.markup">2021-06-02T15:25:09.000000Z</property>
  <property name="kdenlive:original.meta.attr.1.stream.handler_name.markup">SoundHandler</property>
  <property name="kdenlive:original.meta.attr.1.stream.vendor_id.markup">[0][0][0][0]</property>
  <property name="kdenlive:original.meta.attr.major_brand.markup">isom</property>
  <property name="kdenlive:original.meta.attr.minor_version.markup">512</property>
  <property name="kdenlive:original.meta.attr.compatible_brands.markup">isomiso2avc1mp41</property>
  <property name="kdenlive:original.meta.attr.creation_time.markup">2021-06-02T15:25:09.000000Z</property>
  <property name="kdenlive:original.meta.attr.encoder.markup">Lavf58.45.100</property>
  <property name="kdenlive:original.seekable">1</property>
  <property name="kdenlive:original.width">3840</property>
  <property name="kdenlive:original.height">2160</property>
  <property name="kdenlive:original.meta.media.sample_aspect_num">1</property>
  <property name="kdenlive:original.meta.media.sample_aspect_den">1</property>
  <property name="kdenlive:original.aspect_ratio">1</property>
  <property name="kdenlive:original.audio_index">1</property>
  <property name="kdenlive:original.video_index">0</property>
  <property name="kdenlive:original.mute_on_pause">0</property>
  <property name="kdenlive:original.mlt_service">avformat-novalidate</property>
  <property name="kdenlive:original.kdenlive:folderid">65</property>
  <property name="kdenlive:original.meta.media.frame_rate_num">30000</property>
  <property name="kdenlive:original.meta.media.frame_rate_den">1001</property>
  <property name="kdenlive:original.meta.media.colorspace">709</property>
  <property name="kdenlive:original.meta.media.color_trc">1</property>
  <property name="kdenlive:original.meta.media.width">3840</property>
  <property name="kdenlive:original.meta.media.height">2160</property>
  <property name="kdenlive:original.meta.media.color_range">full</property>
  <property name="kdenlive:original.kdenlive:id">68</property>
  <property name="kdenlive:original.kdenlive:file_size">1707894758</property>
  <property name="kdenlive:original.kdenlive:file_hash">4a65ba6c4d5a23a4e3c848bc95eb6a5b</property>
  <property name="kdenlive:original.kdenlive:audio_max">1</property>
  <property name="kdenlive:original.meta.media.top_field_first">0</property>
  <property name="kdenlive:original.meta.media.progressive">1</property>
  <property name="kdenlive:original.kdenlive:zone_in">49</property>
  <property name="kdenlive:original.kdenlive:zone_out">4164</property>
  <property name="kdenlive:original.kdenlive:clipzones">[
    {
        "in": 49,
        "name": "synth ending",
        "out": 4164
    }
]
</property>
  <property name="kdenlive:original.root">/</property>
  <property name="kdenlive:original.global_feed">1</property>
  <property name="kdenlive:original.backup">1</property>
  <property name="kdenlive:activeeffect">0</property>
  <property name="kdenlive:active_streams">-1</property>
  <property name="xml">was here</property>
  <property name="meta.media.nb_streams">2</property>
  <property name="meta.media.0.stream.type">video</property>
  <property name="meta.media.0.stream.frame_rate">29.97</property>
  <property name="meta.media.0.stream.sample_aspect_ratio">1</property>
  <property name="meta.media.0.codec.width">640</property>
  <property name="meta.media.0.codec.height">360</property>
  <property name="meta.media.0.codec.rotate">0</property>
  <property name="meta.media.0.codec.frame_rate">1000</property>
  <property name="meta.media.0.codec.pix_fmt">yuvj420p</property>
  <property name="meta.media.0.codec.sample_aspect_ratio">1</property>
  <property name="meta.media.0.codec.colorspace">601</property>
  <property name="meta.media.0.codec.color_trc">1</property>
  <property name="meta.media.0.codec.name">mjpeg</property>
  <property name="meta.media.0.codec.long_name">MJPEG (Motion JPEG)</property>
  <property name="meta.media.0.codec.bit_rate">0</property>
  <property name="meta.attr.0.stream.HANDLER_NAME.markup">VideoHandler</property>
  <property name="meta.attr.0.stream.VENDOR_ID.markup">[0][0][0][0]</property>
  <property name="meta.attr.0.stream.ENCODER.markup">Lavc58.134.100 mjpeg</property>
  <property name="meta.attr.0.stream.DURATION.markup">00:02:22.409000000</property>
  <property name="meta.media.1.stream.type">audio</property>
  <property name="meta.media.1.codec.sample_fmt">s16</property>
  <property name="meta.media.1.codec.sample_rate">48000</property>
  <property name="meta.media.1.codec.channels">2</property>
  <property name="meta.media.1.codec.name">pcm_s16le</property>
  <property name="meta.media.1.codec.long_name">PCM signed 16-bit little-endian</property>
  <property name="meta.media.1.codec.bit_rate">1536000</property>
  <property name="meta.attr.1.stream.HANDLER_NAME.markup">SoundHandler</property>
  <property name="meta.attr.1.stream.VENDOR_ID.markup">[0][0][0][0]</property>
  <property name="meta.attr.1.stream.ENCODER.markup">Lavc58.134.100 pcm_s16le</property>
  <property name="meta.attr.1.stream.DURATION.markup">00:02:22.272000000</property>
  <property name="meta.attr.COMPATIBLE_BRANDS.markup">isomiso2avc1mp41</property>
  <property name="meta.attr.MAJOR_BRAND.markup">isom</property>
  <property name="meta.attr.MINOR_VERSION.markup">512</property>
  <property name="meta.attr.ENCODER.markup">Lavf58.76.100</property>
  <property name="meta.media.sample_aspect_num">1</property>
  <property name="meta.media.sample_aspect_den">1</property>
  <property name="meta.media.frame_rate_num">30000</property>
  <property name="meta.media.frame_rate_den">1001</property>
  <property name="meta.media.colorspace">601</property>
  <property name="meta.media.color_trc">1</property>
  <property name="meta.media.width">640</property>
  <property name="meta.media.height">360</property>
  <property name="meta.media.color_range">full</property>
  <property name="meta.media.top_field_first">0</property>
  <property name="meta.media.progressive">1</property>
  <property name="set.test_audio">1</property>
  <property name="set.test_image">0</property>
 </producer>
 <playlist id="playlist38">
  <entry producer="producer186" in="00:00:00.267" out="00:00:20.500">
   <property name="kdenlive:id">14</property>
   <filter id="filter262">
    <property name="background">colour:0</property>
    <property name="mlt_service">affine</property>
    <property name="kdenlive_id">pan_zoom</property>
    <property name="transition.geometry">8=-550 -438 3840 2160</property>
    <property name="transition.distort">0</property>
    <property name="use_normalised">0</property>
    <property name="producer.resource">0x00000000</property>
    <property name="kdenlive:collapsed">0</property>
   </filter>
  </entry>
  <blank length="00:02:23.733"/>
  <entry producer="producer187" in="00:00:01.633" out="00:00:08.200">
   <property name="kdenlive:id">13</property>
   <filter id="filter263" in="00:00:01.633" out="00:00:04.867">
    <property name="start">0</property>
    <property name="mlt_service">brightness</property>
    <property name="kdenlive_id">fade_from_black</property>
    <property name="end">1</property>
    <property name="alpha">-1</property>
    <property name="kdenlive:collapsed">0</property>
   </filter>
   <filter id="filter264" in="00:00:07.167" out="00:00:08.200">
    <property name="start">1</property>
    <property name="mlt_service">brightness</property>
    <property name="kdenlive_id">fade_to_black</property>
    <property name="end">0</property>
    <property name="alpha">-1</property>
    <property name="kdenlive:collapsed">0</property>
   </filter>
  </entry>
  <entry producer="producer49" in="00:00:08.233" out="00:00:20.633">
   <property name="kdenlive:id">13</property>
  </entry>
  <entry producer="producer189" in="00:00:20.667" out="00:00:24.767">
   <property name="kdenlive:id">13</property>
   <filter id="filter265" in="00:00:20.667" out="00:00:21.900">
    <property name="start">0</property>
    <property name="mlt_service">brightness</property>
    <property name="kdenlive_id">fade_from_black</property>
    <property name="end">1</property>
    <property name="alpha">-1</property>
    <property name="kdenlive:collapsed">0</property>
   </filter>
   <filter id="filter266" in="00:00:24.200" out="00:00:24.767">
    <property name="start">1</property>
    <property name="mlt_service">brightness</property>
    <property name="kdenlive_id">fade_to_black</property>
    <property name="end">0</property>
    <property name="alpha">-1</property>
    <property name="kdenlive:collapsed">0</property>
   </filter>
  </entry>
  <entry producer="producer49" in="00:00:24.800" out="00:00:38.533">
   <property name="kdenlive:id">13</property>
  </entry>
  <entry producer="producer190" in="00:00:38.567" out="00:00:45.433">
   <property name="kdenlive:id">13</property>
   <filter id="filter267" in="00:00:45.000" out="00:00:45.433">
    <property name="start">1</property>
    <property name="mlt_service">brightness</property>
    <property name="kdenlive_id">fade_to_black</property>
    <property name="end">0</property>
    <property name="alpha">-1</property>
    <property name="kdenlive:collapsed">0</property>
   </filter>
   <filter id="filter268" in="00:00:38.567" out="00:00:39.100">
    <property name="start">0</property>
    <property name="mlt_service">brightness</property>
    <property name="kdenlive_id">fade_from_black</property>
    <property name="end">1</property>
    <property name="alpha">-1</property>
    <property name="kdenlive:collapsed">0</property>
   </filter>
  </entry>
  <entry producer="producer49" in="00:00:45.467" out="00:02:18.800">
   <property name="kdenlive:id">13</property>
  </entry>
 </playlist>
 <playlist id="playlist39"/>
 <tractor id="tractor19" in="00:00:00.000" out="00:05:01.167">
  <property name="kdenlive:trackheight">69</property>
  <property name="kdenlive:timeline_active">0</property>
  <property name="kdenlive:collapsed">28</property>
  <property name="kdenlive:track_name">Chris-synth</property>
  <property name="kdenlive:thumbs_format"/>
  <property name="kdenlive:audio_rec"/>
  <property name="kdenlive:locked_track">1</property>
  <track hide="both" producer="playlist38"/>
  <track producer="playlist39"/>
 </tractor>
 <tractor id="tractor20" global_feed="1" in="00:00:00.000" out="00:22:01.067">
  <track producer="black_track"/>
  <track producer="tractor0"/>
  <track producer="tractor1"/>
  <track producer="tractor2"/>
  <track producer="tractor3"/>
  <track producer="tractor4"/>
  <track producer="tractor5"/>
  <track producer="tractor6"/>
  <track producer="tractor7"/>
  <track producer="tractor8"/>
  <track producer="tractor9"/>
  <track producer="tractor10"/>
  <track producer="tractor11"/>
  <track producer="tractor12"/>
  <track producer="tractor13"/>
  <track producer="tractor14"/>
  <track producer="tractor15"/>
  <track producer="tractor16"/>
  <track producer="tractor17"/>
  <track producer="tractor18"/>
  <track producer="tractor19"/>
  <transition id="transition0" in="00:08:35.533" out="00:08:36.933">
   <property name="a_track">19</property>
   <property name="b_track">20</property>
   <property name="rect">0=0 0 1920 1080 1</property>
   <property name="compositing">0</property>
   <property name="distort">0</property>
   <property name="rotate_center">1</property>
   <property name="mlt_service">qtblend</property>
   <property name="kdenlive_id">qtblend</property>
   <property name="rotation">0=0</property>
  </transition>
  <transition id="transition1" in="00:08:37.233" out="00:08:41.600">
   <property name="a_track">19</property>
   <property name="b_track">20</property>
   <property name="rect">00:00:00.000=0 0 1920 1080 1</property>
   <property name="compositing">0</property>
   <property name="distort">0</property>
   <property name="rotate_center">1</property>
   <property name="mlt_service">qtblend</property>
   <property name="kdenlive_id">qtblend</property>
   <property name="rotation">00:00:00.000=0</property>
  </transition>
  <transition id="transition2" in="00:08:42.733" out="00:08:54.500">
   <property name="a_track">19</property>
   <property name="b_track">20</property>
   <property name="rect">00:00:00.000=0 0 1920 1080 1</property>
   <property name="compositing">14</property>
   <property name="distort">0</property>
   <property name="rotate_center">1</property>
   <property name="mlt_service">qtblend</property>
   <property name="kdenlive_id">qtblend</property>
   <property name="rotation">00:00:00.000=0</property>
  </transition>
  <transition id="transition3" in="00:07:25.300" out="00:08:06.300">
   <property name="a_track">19</property>
   <property name="b_track">20</property>
   <property name="rect">00:00:00.000=0 0 1920 1080 1</property>
   <property name="compositing">0</property>
   <property name="distort">0</property>
   <property name="rotate_center">1</property>
   <property name="mlt_service">qtblend</property>
   <property name="kdenlive_id">qtblend</property>
   <property name="rotation">00:00:00.000=0</property>
  </transition>
  <transition id="transition4" in="00:00:19.867" out="00:00:20.233">
   <property name="a_track">15</property>
   <property name="b_track">20</property>
   <property name="start">0/0:100%x100%</property>
   <property name="factory">loader</property>
   <property name="aligned">0</property>
   <property name="progressive">1</property>
   <property name="mlt_service">composite</property>
   <property name="kdenlive_id">wipe</property>
   <property name="force_track">1</property>
   <property name="softness">0</property>
   <property name="luma"/>
   <property name="luma_invert">0</property>
   <property name="geometry">0%/0%:100%x100%:100;-1=0%/0%:100%x100%:0</property>
   <property name="fill">1</property>
  </transition>
  <transition id="transition5" in="00:00:29.567" out="00:04:54.300">
   <property name="a_track">10</property>
   <property name="b_track">11</property>
   <property name="rect">00:00:00.000=0 0 1920 1080 1</property>
   <property name="compositing">12</property>
   <property name="distort">0</property>
   <property name="rotate_center">1</property>
   <property name="mlt_service">qtblend</property>
   <property name="kdenlive_id">qtblend</property>
   <property name="force_track">1</property>
   <property name="rotation">00:00:00.000=0</property>
  </transition>
  <transition id="transition6" out="00:04:54.300">
   <property name="a_track">10</property>
   <property name="b_track">12</property>
   <property name="rect">00:00:00.000=0 0 1920 1080 1</property>
   <property name="compositing">12</property>
   <property name="distort">0</property>
   <property name="rotate_center">1</property>
   <property name="mlt_service">qtblend</property>
   <property name="kdenlive_id">qtblend</property>
   <property name="force_track">1</property>
   <property name="rotation">00:00:00.000=0</property>
  </transition>
  <transition id="transition7" in="00:02:42.000" out="00:02:43.633">
   <property name="a_track">8</property>
   <property name="b_track">9</property>
   <property name="start">0/0:100%x100%</property>
   <property name="factory">loader</property>
   <property name="aligned">0</property>
   <property name="progressive">1</property>
   <property name="mlt_service">composite</property>
   <property name="kdenlive_id">wipe</property>
   <property name="softness">0</property>
   <property name="luma"/>
   <property name="luma_invert">0</property>
   <property name="geometry">0%/0%:100%x100%:100;-1=0%/0%:100%x100%:0</property>
   <property name="fill">1</property>
  </transition>
  <transition id="transition8" in="00:03:06.167" out="00:03:07.900">
   <property name="a_track">7</property>
   <property name="b_track">8</property>
   <property name="start">0/0:100%x100%</property>
   <property name="factory">loader</property>
   <property name="aligned">0</property>
   <property name="progressive">1</property>
   <property name="mlt_service">composite</property>
   <property name="kdenlive_id">wipe</property>
   <property name="softness">0</property>
   <property name="luma"/>
   <property name="luma_invert">0</property>
   <property name="geometry">0%/0%:100%x100%:100;-1=0%/0%:100%x100%:0</property>
   <property name="fill">1</property>
  </transition>
  <transition id="transition9" in="00:01:59.900" out="00:02:00.567">
   <property name="a_track">7</property>
   <property name="b_track">8</property>
   <property name="start">0/0:100%x100%</property>
   <property name="factory">loader</property>
   <property name="aligned">0</property>
   <property name="progressive">1</property>
   <property name="mlt_service">composite</property>
   <property name="kdenlive_id">wipe</property>
   <property name="softness">0</property>
   <property name="luma"/>
   <property name="luma_invert">0</property>
   <property name="geometry">0%/0%:100%x100%:0;-1=0%/0%:100%x100%:100</property>
   <property name="fill">1</property>
  </transition>
  <transition id="transition10" in="00:00:29.567" out="00:00:29.933">
   <property name="a_track">7</property>
   <property name="b_track">8</property>
   <property name="start">0/0:100%x100%</property>
   <property name="factory">loader</property>
   <property name="aligned">0</property>
   <property name="progressive">1</property>
   <property name="mlt_service">composite</property>
   <property name="kdenlive_id">wipe</property>
   <property name="softness">0</property>
   <property name="luma"/>
   <property name="luma_invert">0</property>
   <property name="geometry">0%/0%:100%x100%:0;-1=0%/0%:100%x100%:100</property>
   <property name="fill">1</property>
  </transition>
  <transition id="transition11" in="00:01:15.833" out="00:01:16.500">
   <property name="a_track">7</property>
   <property name="b_track">8</property>
   <property name="start">0/0:100%x100%</property>
   <property name="factory">loader</property>
   <property name="aligned">0</property>
   <property name="progressive">1</property>
   <property name="mlt_service">composite</property>
   <property name="kdenlive_id">wipe</property>
   <property name="softness">0</property>
   <property name="luma"/>
   <property name="luma_invert">0</property>
   <property name="geometry">0%/0%:100%x100%:0;-1=0%/0%:100%x100%:100</property>
   <property name="fill">1</property>
  </transition>
  <transition id="transition12" in="00:01:34.267" out="00:01:35.367">
   <property name="a_track">7</property>
   <property name="b_track">8</property>
   <property name="start">0/0:100%x100%</property>
   <property name="factory">loader</property>
   <property name="aligned">0</property>
   <property name="progressive">1</property>
   <property name="mlt_service">composite</property>
   <property name="kdenlive_id">wipe</property>
   <property name="softness">0</property>
   <property name="luma"/>
   <property name="luma_invert">0</property>
   <property name="geometry">0%/0%:100%x100%:0;-1=0%/0%:100%x100%:100</property>
   <property name="fill">1</property>
  </transition>
  <transition id="transition13" in="00:00:19.867" out="00:00:20.533">
   <property name="a_track">7</property>
   <property name="b_track">8</property>
   <property name="start">0/0:100%x100%</property>
   <property name="factory">loader</property>
   <property name="aligned">0</property>
   <property name="progressive">1</property>
   <property name="mlt_service">composite</property>
   <property name="kdenlive_id">wipe</property>
   <property name="softness">0</property>
   <property name="luma"/>
   <property name="luma_invert">0</property>
   <property name="geometry">0%/0%:100%x100%:0;-1=0%/0%:100%x100%:100</property>
   <property name="fill">1</property>
  </transition>
  <transition id="transition14" in="00:00:23.700" out="00:00:24.800">
   <property name="a_track">7</property>
   <property name="b_track">8</property>
   <property name="start">0/0:100%x100%</property>
   <property name="factory">loader</property>
   <property name="aligned">0</property>
   <property name="progressive">1</property>
   <property name="mlt_service">composite</property>
   <property name="kdenlive_id">wipe</property>
   <property name="softness">0</property>
   <property name="luma"/>
   <property name="luma_invert">0</property>
   <property name="geometry">0%/0%:100%x100%:100;-1=0%/0%:100%x100%:0</property>
   <property name="fill">1</property>
  </transition>
  <transition id="transition15" in="00:00:09.833" out="00:00:10.533">
   <property name="a_track">7</property>
   <property name="b_track">8</property>
   <property name="start">0/0:100%x100%</property>
   <property name="factory">loader</property>
   <property name="aligned">0</property>
   <property name="progressive">1</property>
   <property name="mlt_service">composite</property>
   <property name="kdenlive_id">wipe</property>
   <property name="softness">0</property>
   <property name="luma"/>
   <property name="luma_invert">0</property>
   <property name="geometry">0%/0%:100%x100%:100;-1=0%/0%:100%x100%:0</property>
   <property name="fill">1</property>
  </transition>
  <transition id="transition16" in="00:02:48.333" out="00:02:51.467">
   <property name="a_track">7</property>
   <property name="b_track">8</property>
   <property name="start">0/0:100%x100%</property>
   <property name="factory">loader</property>
   <property name="aligned">0</property>
   <property name="progressive">1</property>
   <property name="mlt_service">composite</property>
   <property name="kdenlive_id">wipe</property>
   <property name="softness">0</property>
   <property name="luma"/>
   <property name="luma_invert">0</property>
   <property name="geometry">0%/0%:100%x100%:100;-1=0%/0%:100%x100%:0</property>
   <property name="fill">1</property>
  </transition>
  <transition id="transition17" in="00:03:51.267" out="00:03:54.800">
   <property name="a_track">7</property>
   <property name="b_track">8</property>
   <property name="start">0/0:100%x100%</property>
   <property name="factory">loader</property>
   <property name="aligned">0</property>
   <property name="progressive">1</property>
   <property name="mlt_service">composite</property>
   <property name="kdenlive_id">wipe</property>
   <property name="softness">0</property>
   <property name="luma"/>
   <property name="luma_invert">0</property>
   <property name="geometry">0%/0%:100%x100%:100;-1=0%/0%:100%x100%:0</property>
   <property name="fill">1</property>
  </transition>
  <transition id="transition18" in="00:02:23.067" out="00:02:33.500">
   <property name="a_track">7</property>
   <property name="b_track">8</property>
   <property name="version">0.2</property>
   <property name="mlt_service">frei0r.darken</property>
   <property name="kdenlive_id">frei0r.darken</property>
  </transition>
  <transition id="transition19" in="00:04:28.700" out="00:04:36.500">
   <property name="a_track">7</property>
   <property name="b_track">8</property>
   <property name="rect">00:00:00.000=0 0 1920 1080 0.090000;00:00:07.800|=0 0 1920 1080 1.000000</property>
   <property name="compositing">14</property>
   <property name="distort">0</property>
   <property name="rotate_center">1</property>
   <property name="mlt_service">qtblend</property>
   <property name="kdenlive_id">qtblend</property>
   <property name="rotation">00:00:00.000=0;00:00:07.800|=0</property>
  </transition>
  <transition id="transition20" in="00:01:25.200" out="00:01:26.033">
   <property name="a_track">7</property>
   <property name="b_track">8</property>
   <property name="start">0/0:100%x100%</property>
   <property name="factory">loader</property>
   <property name="aligned">0</property>
   <property name="progressive">1</property>
   <property name="mlt_service">composite</property>
   <property name="kdenlive_id">wipe</property>
   <property name="softness">0</property>
   <property name="luma"/>
   <property name="luma_invert">0</property>
   <property name="geometry">0%/0%:100%x100%:100;-1=0%/0%:100%x100%:0</property>
   <property name="fill">1</property>
  </transition>
  <transition id="transition21" in="00:01:50.300" out="00:01:51.367">
   <property name="a_track">7</property>
   <property name="b_track">8</property>
   <property name="start">0/0:100%x100%</property>
   <property name="factory">loader</property>
   <property name="aligned">0</property>
   <property name="progressive">1</property>
   <property name="mlt_service">composite</property>
   <property name="kdenlive_id">wipe</property>
   <property name="softness">0</property>
   <property name="luma"/>
   <property name="luma_invert">0</property>
   <property name="geometry">0%/0%:100%x100%:100;-1=0%/0%:100%x100%:0</property>
   <property name="fill">1</property>
  </transition>
  <transition id="transition22" in="00:04:36.533" out="00:04:44.367">
   <property name="a_track">7</property>
   <property name="b_track">8</property>
   <property name="rect">00:00:00.000=0 0 1920 1080 1.000000;00:00:07.833=0 0 1920 1080 0.000000</property>
   <property name="compositing">14</property>
   <property name="distort">0</property>
   <property name="rotate_center">1</property>
   <property name="mlt_service">qtblend</property>
   <property name="kdenlive_id">qtblend</property>
   <property name="rotation">00:00:00.000=0;00:00:07.833=0</property>
  </transition>
  <transition id="transition23" in="00:02:24.100" out="00:02:41.967">
   <property name="a_track">7</property>
   <property name="b_track">9</property>
   <property name="factory">loader</property>
   <property name="resource"/>
   <property name="mlt_service">luma</property>
   <property name="kdenlive_id">dissolve</property>
   <property name="force_track">1</property>
   <property name="softness">0.21</property>
   <property name="reverse">0</property>
  </transition>
  <transition id="transition24" in="00:04:26.833" out="00:04:55.267">
   <property name="a_track">7</property>
   <property name="b_track">9</property>
   <property name="version">0.9</property>
   <property name="mlt_service">frei0r.cairoblend</property>
   <property name="kdenlive_id">frei0r.cairoblend</property>
   <property name="force_track">1</property>
   <property name="0">00:00:00.000=0.38;00:00:02.867|=0.351316;00:00:03.767=0.976316;00:00:09.600=0.34;00:00:14.233=0.151316;00:00:16.833=0.851316;00:00:22.600=0.87;00:00:28.433|=0</property>
   <property name="1">screen</property>
  </transition>
  <transition id="transition25" out="00:04:54.300">
   <property name="a_track">6</property>
   <property name="b_track">10</property>
   <property name="mlt_service">matte</property>
   <property name="kdenlive_id">matte</property>
   <property name="force_track">1</property>
  </transition>
  <transition id="transition26" in="00:04:53.767" out="00:05:07.100">
   <property name="a_track">3</property>
   <property name="b_track">4</property>
   <property name="rect">00:00:00.000=0 0 1920 1080 0.000000;00:00:01.433=0 0 1920 1080 0.250000;00:00:05.633=0 0 1920 1080 0.200000;00:00:10.800=0 0 1920 1080 0.000000</property>
   <property name="compositing">17</property>
   <property name="distort">0</property>
   <property name="rotate_center">1</property>
   <property name="mlt_service">qtblend</property>
   <property name="kdenlive_id">qtblend</property>
   <property name="rotation">00:00:00.000=0;00:00:01.433=0;00:00:05.633=0;00:00:10.800=0</property>
  </transition>
  <transition id="transition27" in="00:01:14.967" out="00:01:16.000">
   <property name="a_track">3</property>
   <property name="b_track">4</property>
   <property name="start">0/0:100%x100%</property>
   <property name="factory">loader</property>
   <property name="aligned">0</property>
   <property name="progressive">1</property>
   <property name="mlt_service">composite</property>
   <property name="kdenlive_id">wipe</property>
   <property name="softness">0</property>
   <property name="luma"/>
   <property name="luma_invert">0</property>
   <property name="geometry">0%/0%:100%x100%:0;-1=0%/0%:100%x100%:100</property>
   <property name="fill">1</property>
  </transition>
  <transition id="transition28" in="00:02:48.000" out="00:02:48.967">
   <property name="a_track">3</property>
   <property name="b_track">4</property>
   <property name="start">0/0:100%x100%</property>
   <property name="factory">loader</property>
   <property name="aligned">0</property>
   <property name="progressive">1</property>
   <property name="mlt_service">composite</property>
   <property name="kdenlive_id">wipe</property>
   <property name="softness">0</property>
   <property name="luma"/>
   <property name="luma_invert">0</property>
   <property name="geometry">0%/0%:100%x100%:100;-1=0%/0%:100%x100%:0</property>
   <property name="fill">1</property>
  </transition>
  <transition id="transition29" out="00:02:48.967">
   <property name="a_track">3</property>
   <property name="b_track">5</property>
   <property name="rect">00:00:00.000=0 0 1920 1080 0.960000</property>
   <property name="compositing">15</property>
   <property name="distort">0</property>
   <property name="rotate_center">1</property>
   <property name="mlt_service">qtblend</property>
   <property name="kdenlive_id">qtblend</property>
   <property name="force_track">1</property>
   <property name="rotation">00:00:00.000=0</property>
  </transition>
  <transition id="transition30" in="00:02:49.000" out="00:04:49.433">
   <property name="a_track">3</property>
   <property name="b_track">5</property>
   <property name="rect">00:00:00.000=0 0 1920 1080 0.610000</property>
   <property name="compositing">20</property>
   <property name="distort">0</property>
   <property name="rotate_center">1</property>
   <property name="mlt_service">qtblend</property>
   <property name="kdenlive_id">qtblend</property>
   <property name="force_track">1</property>
   <property name="rotation">00:00:00.000=0</property>
  </transition>
  <transition id="transition31">
   <property name="a_track">0</property>
   <property name="b_track">1</property>
   <property name="mlt_service">mix</property>
   <property name="kdenlive_id">mix</property>
   <property name="internal_added">237</property>
   <property name="always_active">1</property>
   <property name="accepts_blanks">1</property>
   <property name="sum">1</property>
  </transition>
  <transition id="transition32">
   <property name="a_track">0</property>
   <property name="b_track">2</property>
   <property name="mlt_service">mix</property>
   <property name="kdenlive_id">mix</property>
   <property name="internal_added">237</property>
   <property name="always_active">1</property>
   <property name="accepts_blanks">1</property>
   <property name="sum">1</property>
  </transition>
  <transition id="transition33">
   <property name="a_track">0</property>
   <property name="b_track">3</property>
   <property name="compositing">0</property>
   <property name="distort">0</property>
   <property name="rotate_center">0</property>
   <property name="mlt_service">qtblend</property>
   <property name="kdenlive_id">qtblend</property>
   <property name="internal_added">237</property>
   <property name="always_active">1</property>
  </transition>
  <transition id="transition34">
   <property name="a_track">0</property>
   <property name="b_track">4</property>
   <property name="compositing">0</property>
   <property name="distort">0</property>
   <property name="rotate_center">0</property>
   <property name="mlt_service">qtblend</property>
   <property name="kdenlive_id">qtblend</property>
   <property name="internal_added">237</property>
   <property name="always_active">1</property>
  </transition>
  <transition id="transition35">
   <property name="a_track">0</property>
   <property name="b_track">5</property>
   <property name="compositing">0</property>
   <property name="distort">0</property>
   <property name="rotate_center">0</property>
   <property name="mlt_service">qtblend</property>
   <property name="kdenlive_id">qtblend</property>
   <property name="internal_added">237</property>
   <property name="always_active">1</property>
  </transition>
  <transition id="transition36">
   <property name="a_track">0</property>
   <property name="b_track">6</property>
   <property name="compositing">0</property>
   <property name="distort">0</property>
   <property name="rotate_center">0</property>
   <property name="mlt_service">qtblend</property>
   <property name="kdenlive_id">qtblend</property>
   <property name="internal_added">237</property>
   <property name="always_active">1</property>
  </transition>
  <transition id="transition37">
   <property name="a_track">0</property>
   <property name="b_track">7</property>
   <property name="compositing">0</property>
   <property name="distort">0</property>
   <property name="rotate_center">0</property>
   <property name="mlt_service">qtblend</property>
   <property name="kdenlive_id">qtblend</property>
   <property name="internal_added">237</property>
   <property name="always_active">1</property>
  </transition>
  <transition id="transition38">
   <property name="a_track">0</property>
   <property name="b_track">8</property>
   <property name="compositing">0</property>
   <property name="distort">0</property>
   <property name="rotate_center">0</property>
   <property name="mlt_service">qtblend</property>
   <property name="kdenlive_id">qtblend</property>
   <property name="internal_added">237</property>
   <property name="always_active">1</property>
  </transition>
  <transition id="transition39">
   <property name="a_track">0</property>
   <property name="b_track">9</property>
   <property name="compositing">0</property>
   <property name="distort">0</property>
   <property name="rotate_center">0</property>
   <property name="mlt_service">qtblend</property>
   <property name="kdenlive_id">qtblend</property>
   <property name="internal_added">237</property>
   <property name="always_active">1</property>
  </transition>
  <transition id="transition40">
   <property name="a_track">0</property>
   <property name="b_track">10</property>
   <property name="compositing">0</property>
   <property name="distort">0</property>
   <property name="rotate_center">0</property>
   <property name="mlt_service">qtblend</property>
   <property name="kdenlive_id">qtblend</property>
   <property name="internal_added">237</property>
   <property name="always_active">1</property>
  </transition>
  <transition id="transition41">
   <property name="a_track">0</property>
   <property name="b_track">11</property>
   <property name="compositing">0</property>
   <property name="distort">0</property>
   <property name="rotate_center">0</property>
   <property name="mlt_service">qtblend</property>
   <property name="kdenlive_id">qtblend</property>
   <property name="internal_added">237</property>
   <property name="always_active">1</property>
  </transition>
  <transition id="transition42">
   <property name="a_track">0</property>
   <property name="b_track">12</property>
   <property name="compositing">0</property>
   <property name="distort">0</property>
   <property name="rotate_center">0</property>
   <property name="mlt_service">qtblend</property>
   <property name="kdenlive_id">qtblend</property>
   <property name="internal_added">237</property>
   <property name="always_active">1</property>
  </transition>
  <transition id="transition43">
   <property name="a_track">0</property>
   <property name="b_track">13</property>
   <property name="compositing">0</property>
   <property name="distort">0</property>
   <property name="rotate_center">0</property>
   <property name="mlt_service">qtblend</property>
   <property name="kdenlive_id">qtblend</property>
   <property name="internal_added">237</property>
   <property name="always_active">1</property>
  </transition>
  <transition id="transition44">
   <property name="a_track">0</property>
   <property name="b_track">14</property>
   <property name="compositing">0</property>
   <property name="distort">0</property>
   <property name="rotate_center">0</property>
   <property name="mlt_service">qtblend</property>
   <property name="kdenlive_id">qtblend</property>
   <property name="internal_added">237</property>
   <property name="always_active">1</property>
  </transition>
  <transition id="transition45">
   <property name="a_track">0</property>
   <property name="b_track">15</property>
   <property name="compositing">0</property>
   <property name="distort">0</property>
   <property name="rotate_center">0</property>
   <property name="mlt_service">qtblend</property>
   <property name="kdenlive_id">qtblend</property>
   <property name="internal_added">237</property>
   <property name="always_active">1</property>
  </transition>
  <transition id="transition46">
   <property name="a_track">0</property>
   <property name="b_track">16</property>
   <property name="compositing">0</property>
   <property name="distort">0</property>
   <property name="rotate_center">0</property>
   <property name="mlt_service">qtblend</property>
   <property name="kdenlive_id">qtblend</property>
   <property name="internal_added">237</property>
   <property name="always_active">1</property>
  </transition>
  <transition id="transition47">
   <property name="a_track">0</property>
   <property name="b_track">17</property>
   <property name="compositing">0</property>
   <property name="distort">0</property>
   <property name="rotate_center">0</property>
   <property name="mlt_service">qtblend</property>
   <property name="kdenlive_id">qtblend</property>
   <property name="internal_added">237</property>
   <property name="always_active">1</property>
  </transition>
  <transition id="transition48">
   <property name="a_track">0</property>
   <property name="b_track">18</property>
   <property name="compositing">0</property>
   <property name="distort">0</property>
   <property name="rotate_center">0</property>
   <property name="mlt_service">qtblend</property>
   <property name="kdenlive_id">qtblend</property>
   <property name="internal_added">237</property>
   <property name="always_active">1</property>
  </transition>
  <transition id="transition49">
   <property name="a_track">0</property>
   <property name="b_track">19</property>
   <property name="compositing">0</property>
   <property name="distort">0</property>
   <property name="rotate_center">0</property>
   <property name="mlt_service">qtblend</property>
   <property name="kdenlive_id">qtblend</property>
   <property name="internal_added">237</property>
   <property name="always_active">1</property>
  </transition>
  <transition id="transition50">
   <property name="a_track">0</property>
   <property name="b_track">20</property>
   <property name="compositing">0</property>
   <property name="distort">0</property>
   <property name="rotate_center">0</property>
   <property name="mlt_service">qtblend</property>
   <property name="kdenlive_id">qtblend</property>
   <property name="internal_added">237</property>
   <property name="always_active">1</property>
  </transition>
  <filter id="filter269">
   <property name="window">75</property>
   <property name="max_gain">20dB</property>
   <property name="mlt_service">volume</property>
   <property name="internal_added">237</property>
   <property name="disable">1</property>
  </filter>
  <filter id="filter270">
   <property name="channel">-1</property>
   <property name="mlt_service">panner</property>
   <property name="internal_added">237</property>
   <property name="start">0.5</property>
   <property name="disable">1</property>
  </filter>
  <filter id="filter185">
   <property name="iec_scale">0</property>
   <property name="mlt_service">audiolevel</property>
   <property name="disable">1</property>
  </filter>
 </tractor>
</mlt>
