<?xml version='1.0' encoding='utf-8'?>
<mlt LC_NUMERIC="C" producer="main_bin" version="6.26.1" root="/home/ryankelln/Documents/Projects/Active/Sound_Escapes/Mac/final">
 <profile frame_rate_num="30" sample_aspect_num="1" display_aspect_den="9" colorspace="709" progressive="1" description="HD 1080p 30 fps" display_aspect_num="16" frame_rate_den="1" width="1920" height="1080" sample_aspect_den="1"/>
 <producer title="Anonymous Submission" id="1" in="00:00:00.000" out="00:04:08.067">
  <property name="length">7443</property>
  <property name="eof">pause</property>
  <property name="resource">/home/ryankelln/Documents/Projects/Active/Sound_Escapes/Mac/i am a strange loop (section 2 on).mp3</property>
  <property name="audio_index">0</property>
  <property name="video_index">-1</property>
  <property name="mute_on_pause">1</property>
  <property name="mlt_service">avformat-novalidate</property>
  <property name="meta.media.nb_streams">1</property>
  <property name="meta.media.0.stream.type">audio</property>
  <property name="meta.media.0.codec.sample_fmt">fltp</property>
  <property name="meta.media.0.codec.sample_rate">44100</property>
  <property name="meta.media.0.codec.channels">2</property>
  <property name="meta.media.0.codec.name">mp3float</property>
  <property name="meta.media.0.codec.long_name">MP3 (MPEG audio layer 3)</property>
  <property name="meta.media.0.codec.bit_rate">128000</property>
  <property name="meta.attr.title.markup">i am a strange loop </property>
  <property name="meta.attr.comment.markup">Created with Sibelius.</property>
  <property name="meta.attr.track.markup">1</property>
  <property name="meta.attr.date.markup">2021</property>
  <property name="seekable">1</property>
  <property name="kdenlive:file_size">3970552</property>
  <property name="kdenlive:file_hash">6dc760205f72d3dd150b55b3f9e23867</property>
  <property name="global_feed">1</property>
  <property name="kdenlive:id">2</property>
  <property name="kdenlive:folderid">63</property>
  <property name="kdenlive:audio_max">7</property>
 </producer>
 <producer id="producer18" in="00:00:00.000" out="00:00:14.567">
  <property name="length">438</property>
  <property name="eof">pause</property>
  <property name="resource">/home/ryankelln/Documents/Projects/Active/Sound_Escapes/Mac/stories/banff_hike.mp4</property>
  <property name="audio_index">-1</property>
  <property name="video_index">0</property>
  <property name="mute_on_pause">0</property>
  <property name="mlt_service">avformat-novalidate</property>
  <property name="meta.media.nb_streams">1</property>
  <property name="meta.media.0.stream.type">video</property>
  <property name="meta.media.0.stream.frame_rate">10</property>
  <property name="meta.media.0.stream.sample_aspect_ratio">0</property>
  <property name="meta.media.0.codec.width">512</property>
  <property name="meta.media.0.codec.height">512</property>
  <property name="meta.media.0.codec.rotate">0</property>
  <property name="meta.media.0.codec.frame_rate">10</property>
  <property name="meta.media.0.codec.pix_fmt">yuv444p</property>
  <property name="meta.media.0.codec.sample_aspect_ratio">0</property>
  <property name="meta.media.0.codec.colorspace">601</property>
  <property name="meta.media.0.codec.name">h264</property>
  <property name="meta.media.0.codec.long_name">H.264 / AVC / MPEG-4 AVC / MPEG-4 part 10</property>
  <property name="meta.media.0.codec.bit_rate">4744849</property>
  <property name="meta.attr.0.stream.handler_name.markup">VideoHandler</property>
  <property name="meta.attr.0.stream.vendor_id.markup">[0][0][0][0]</property>
  <property name="meta.attr.major_brand.markup">isom</property>
  <property name="meta.attr.minor_version.markup">512</property>
  <property name="meta.attr.compatible_brands.markup">isomiso2avc1mp41</property>
  <property name="meta.attr.encoder.markup">Lavf58.29.100</property>
  <property name="seekable">1</property>
  <property name="meta.media.sample_aspect_num">1</property>
  <property name="meta.media.sample_aspect_den">1</property>
  <property name="aspect_ratio">1</property>
  <property name="kdenlive:clipname"/>
  <property name="kdenlive:folderid">63</property>
  <property name="meta.media.frame_rate_num">10</property>
  <property name="meta.media.frame_rate_den">1</property>
  <property name="meta.media.colorspace">601</property>
  <property name="meta.media.color_trc">2</property>
  <property name="meta.media.width">512</property>
  <property name="meta.media.height">512</property>
  <property name="meta.media.color_range">mpeg</property>
  <property name="kdenlive:id">3</property>
  <property name="kdenlive:file_size">8662056</property>
  <property name="kdenlive:file_hash">77ec75db7e6a1b8a40e9925b74e3272d</property>
  <property name="meta.media.top_field_first">0</property>
  <property name="meta.media.progressive">1</property>
  <property name="global_feed">1</property>
 </producer>
 <producer id="producer19" in="00:00:00.000" out="00:00:15.333">
  <property name="length">461</property>
  <property name="eof">pause</property>
  <property name="resource">/home/ryankelln/Documents/Projects/Active/Sound_Escapes/Mac/stories/George Island.m4a</property>
  <property name="meta.media.nb_streams">1</property>
  <property name="meta.media.0.stream.type">audio</property>
  <property name="meta.media.0.codec.sample_fmt">fltp</property>
  <property name="meta.media.0.codec.sample_rate">48000</property>
  <property name="meta.media.0.codec.channels">1</property>
  <property name="meta.media.0.codec.name">aac</property>
  <property name="meta.media.0.codec.long_name">AAC (Advanced Audio Coding)</property>
  <property name="meta.media.0.codec.bit_rate">65015</property>
  <property name="meta.attr.0.stream.creation_time.markup">2021-05-17T19:50:09.000000Z</property>
  <property name="meta.attr.0.stream.handler_name.markup">Core Media Audio</property>
  <property name="meta.attr.major_brand.markup">M4A </property>
  <property name="meta.attr.minor_version.markup">0</property>
  <property name="meta.attr.compatible_brands.markup">M4A isommp42</property>
  <property name="meta.attr.creation_time.markup">2021-05-17T19:50:08.000000Z</property>
  <property name="meta.attr.title.markup">George Island</property>
  <property name="meta.attr.voice-memo-uuid.markup">CC019AD0-12C1-46FB-82CB-60A825FC8D49</property>
  <property name="meta.attr.encoder.markup">com.apple.VoiceMemos (Maddy Rogersâ€™s iPhone (null))</property>
  <property name="seekable">1</property>
  <property name="audio_index">0</property>
  <property name="video_index">-1</property>
  <property name="mute_on_pause">1</property>
  <property name="mlt_service">avformat</property>
  <property name="meta.attr.0.stream.vendor_id.markup">[0][0][0][0]</property>
  <property name="kdenlive:clipname"/>
  <property name="kdenlive:folderid">63</property>
  <property name="kdenlive:id">4</property>
  <property name="kdenlive:file_size">129257</property>
  <property name="kdenlive:file_hash">8ab2bdd3653329cc0a9ec2942aa8aec3</property>
  <property name="kdenlive:audio_max">6</property>
  <property name="global_feed">1</property>
 </producer>
 <producer id="producer20" in="00:00:00.000" out="00:00:09.367">
  <property name="length">282</property>
  <property name="eof">pause</property>
  <property name="resource">/home/ryankelln/Documents/Projects/Active/Sound_Escapes/Mac/stories/georgian_rocks.mp4</property>
  <property name="audio_index">-1</property>
  <property name="video_index">0</property>
  <property name="mute_on_pause">0</property>
  <property name="mlt_service">avformat-novalidate</property>
  <property name="meta.media.nb_streams">1</property>
  <property name="meta.media.0.stream.type">video</property>
  <property name="meta.media.0.stream.frame_rate">10</property>
  <property name="meta.media.0.stream.sample_aspect_ratio">0</property>
  <property name="meta.media.0.codec.width">512</property>
  <property name="meta.media.0.codec.height">512</property>
  <property name="meta.media.0.codec.rotate">0</property>
  <property name="meta.media.0.codec.frame_rate">10</property>
  <property name="meta.media.0.codec.pix_fmt">yuv444p</property>
  <property name="meta.media.0.codec.sample_aspect_ratio">0</property>
  <property name="meta.media.0.codec.colorspace">601</property>
  <property name="meta.media.0.codec.name">h264</property>
  <property name="meta.media.0.codec.long_name">H.264 / AVC / MPEG-4 AVC / MPEG-4 part 10</property>
  <property name="meta.media.0.codec.bit_rate">3074788</property>
  <property name="meta.attr.0.stream.handler_name.markup">VideoHandler</property>
  <property name="meta.attr.0.stream.vendor_id.markup">[0][0][0][0]</property>
  <property name="meta.attr.major_brand.markup">isom</property>
  <property name="meta.attr.minor_version.markup">512</property>
  <property name="meta.attr.compatible_brands.markup">isomiso2avc1mp41</property>
  <property name="meta.attr.encoder.markup">Lavf58.29.100</property>
  <property name="seekable">1</property>
  <property name="meta.media.sample_aspect_num">1</property>
  <property name="meta.media.sample_aspect_den">1</property>
  <property name="aspect_ratio">1</property>
  <property name="kdenlive:clipname"/>
  <property name="kdenlive:folderid">63</property>
  <property name="meta.media.frame_rate_num">10</property>
  <property name="meta.media.frame_rate_den">1</property>
  <property name="meta.media.colorspace">601</property>
  <property name="meta.media.color_trc">2</property>
  <property name="meta.media.width">512</property>
  <property name="meta.media.height">512</property>
  <property name="meta.media.color_range">mpeg</property>
  <property name="kdenlive:id">5</property>
  <property name="kdenlive:file_size">3614894</property>
  <property name="kdenlive:file_hash">c3961f93df4f834a2e7d4147a4a48d96</property>
  <property name="meta.media.top_field_first">0</property>
  <property name="meta.media.progressive">1</property>
  <property name="global_feed">1</property>
 </producer>
 <producer id="producer21" in="00:00:00.000" out="00:00:15.667">
  <property name="length">471</property>
  <property name="eof">pause</property>
  <property name="resource">/home/ryankelln/Documents/Projects/Active/Sound_Escapes/Mac/stories/mexican_beach.mp4</property>
  <property name="audio_index">-1</property>
  <property name="video_index">0</property>
  <property name="mute_on_pause">0</property>
  <property name="mlt_service">avformat-novalidate</property>
  <property name="meta.media.nb_streams">1</property>
  <property name="meta.media.0.stream.type">video</property>
  <property name="meta.media.0.stream.frame_rate">10</property>
  <property name="meta.media.0.stream.sample_aspect_ratio">0</property>
  <property name="meta.media.0.codec.width">512</property>
  <property name="meta.media.0.codec.height">512</property>
  <property name="meta.media.0.codec.rotate">0</property>
  <property name="meta.media.0.codec.frame_rate">10</property>
  <property name="meta.media.0.codec.pix_fmt">yuv444p</property>
  <property name="meta.media.0.codec.sample_aspect_ratio">0</property>
  <property name="meta.media.0.codec.colorspace">601</property>
  <property name="meta.media.0.codec.name">h264</property>
  <property name="meta.media.0.codec.long_name">H.264 / AVC / MPEG-4 AVC / MPEG-4 part 10</property>
  <property name="meta.media.0.codec.bit_rate">2530587</property>
  <property name="meta.attr.0.stream.handler_name.markup">VideoHandler</property>
  <property name="meta.attr.0.stream.vendor_id.markup">[0][0][0][0]</property>
  <property name="meta.attr.major_brand.markup">isom</property>
  <property name="meta.attr.minor_version.markup">512</property>
  <property name="meta.attr.compatible_brands.markup">isomiso2avc1mp41</property>
  <property name="meta.attr.encoder.markup">Lavf58.29.100</property>
  <property name="seekable">1</property>
  <property name="meta.media.sample_aspect_num">1</property>
  <property name="meta.media.sample_aspect_den">1</property>
  <property name="aspect_ratio">1</property>
  <property name="kdenlive:clipname"/>
  <property name="kdenlive:folderid">63</property>
  <property name="meta.media.frame_rate_num">10</property>
  <property name="meta.media.frame_rate_den">1</property>
  <property name="meta.media.colorspace">601</property>
  <property name="meta.media.color_trc">2</property>
  <property name="meta.media.width">512</property>
  <property name="meta.media.height">512</property>
  <property name="meta.media.color_range">mpeg</property>
  <property name="kdenlive:id">6</property>
  <property name="kdenlive:file_size">4969023</property>
  <property name="kdenlive:file_hash">982b8b3c0aae78509b57e4f5acd74d04</property>
  <property name="meta.media.top_field_first">0</property>
  <property name="meta.media.progressive">1</property>
  <property name="global_feed">1</property>
 </producer>
 <producer id="producer23" in="00:00:00.000" out="00:00:19.867">
  <property name="length">597</property>
  <property name="eof">pause</property>
  <property name="resource">/home/ryankelln/Documents/Projects/Active/Sound_Escapes/Mac/stories/siwash_rock_seven_sisters.mp4</property>
  <property name="audio_index">-1</property>
  <property name="video_index">0</property>
  <property name="mute_on_pause">0</property>
  <property name="mlt_service">avformat-novalidate</property>
  <property name="meta.media.nb_streams">1</property>
  <property name="meta.media.0.stream.type">video</property>
  <property name="meta.media.0.stream.frame_rate">10</property>
  <property name="meta.media.0.stream.sample_aspect_ratio">0</property>
  <property name="meta.media.0.codec.width">512</property>
  <property name="meta.media.0.codec.height">512</property>
  <property name="meta.media.0.codec.rotate">0</property>
  <property name="meta.media.0.codec.frame_rate">10</property>
  <property name="meta.media.0.codec.pix_fmt">yuv444p</property>
  <property name="meta.media.0.codec.sample_aspect_ratio">0</property>
  <property name="meta.media.0.codec.colorspace">601</property>
  <property name="meta.media.0.codec.name">h264</property>
  <property name="meta.media.0.codec.long_name">H.264 / AVC / MPEG-4 AVC / MPEG-4 part 10</property>
  <property name="meta.media.0.codec.bit_rate">3015662</property>
  <property name="meta.attr.0.stream.handler_name.markup">VideoHandler</property>
  <property name="meta.attr.0.stream.vendor_id.markup">[0][0][0][0]</property>
  <property name="meta.attr.major_brand.markup">isom</property>
  <property name="meta.attr.minor_version.markup">512</property>
  <property name="meta.attr.compatible_brands.markup">isomiso2avc1mp41</property>
  <property name="meta.attr.encoder.markup">Lavf58.45.100</property>
  <property name="seekable">1</property>
  <property name="meta.media.sample_aspect_num">1</property>
  <property name="meta.media.sample_aspect_den">1</property>
  <property name="aspect_ratio">1</property>
  <property name="kdenlive:clipname"/>
  <property name="kdenlive:folderid">63</property>
  <property name="meta.media.frame_rate_num">10</property>
  <property name="meta.media.frame_rate_den">1</property>
  <property name="meta.media.colorspace">601</property>
  <property name="meta.media.color_trc">2</property>
  <property name="meta.media.width">512</property>
  <property name="meta.media.height">512</property>
  <property name="meta.media.color_range">mpeg</property>
  <property name="kdenlive:id">7</property>
  <property name="kdenlive:file_size">7504795</property>
  <property name="kdenlive:file_hash">531278844a05df6fab31861c508394a9</property>
 </producer>
 <producer id="producer22" in="00:00:00.000" out="00:01:04.633">
  <property name="length">1940</property>
  <property name="eof">pause</property>
  <property name="resource">content/stories/summer_grass.m4a</property>
  <property name="meta.media.nb_streams">1</property>
  <property name="meta.media.0.stream.type">audio</property>
  <property name="meta.media.0.codec.sample_fmt">fltp</property>
  <property name="meta.media.0.codec.sample_rate">48000</property>
  <property name="meta.media.0.codec.channels">1</property>
  <property name="meta.media.0.codec.name">aac</property>
  <property name="meta.media.0.codec.long_name">AAC (Advanced Audio Coding)</property>
  <property name="meta.media.0.codec.bit_rate">64606</property>
  <property name="meta.attr.0.stream.creation_time.markup">2021-05-17T23:59:40.000000Z</property>
  <property name="meta.attr.0.stream.handler_name.markup">Core Media Audio</property>
  <property name="meta.attr.major_brand.markup">M4A </property>
  <property name="meta.attr.minor_version.markup">0</property>
  <property name="meta.attr.compatible_brands.markup">M4A isommp42</property>
  <property name="meta.attr.creation_time.markup">2021-05-17T23:59:40.000000Z</property>
  <property name="meta.attr.title.markup">Spectrum Kate take 1</property>
  <property name="meta.attr.voice-memo-uuid.markup">9930D883-BAC5-45B7-8B9E-006E5DF71CF0</property>
  <property name="meta.attr.encoder.markup">com.apple.VoiceMemos (iPhone (null))</property>
  <property name="seekable">1</property>
  <property name="audio_index">0</property>
  <property name="video_index">-1</property>
  <property name="mute_on_pause">1</property>
  <property name="mlt_service">avformat</property>
  <property name="kdenlive:clipname">summer_grass.m4a</property>
  <property name="kdenlive:folderid">84</property>
  <property name="kdenlive:id">8</property>
  <property name="kdenlive:file_size">554059</property>
  <property name="kdenlive:audio_max">15</property>
  <property name="global_feed">1</property>
  <property name="kdenlive:file_hash">c1af9e059fcbfe6dc4417c2ddb55dc7a</property>
 </producer>
 <producer id="producer24" in="00:00:00.000" out="00:00:18.767">
  <property name="length">564</property>
  <property name="eof">pause</property>
  <property name="resource">/home/ryankelln/Documents/Projects/Active/Sound_Escapes/Mac/stories/summer_grass.mp4</property>
  <property name="audio_index">-1</property>
  <property name="video_index">0</property>
  <property name="mute_on_pause">0</property>
  <property name="mlt_service">avformat-novalidate</property>
  <property name="meta.media.nb_streams">1</property>
  <property name="meta.media.0.stream.type">video</property>
  <property name="meta.media.0.stream.frame_rate">10</property>
  <property name="meta.media.0.stream.sample_aspect_ratio">0</property>
  <property name="meta.media.0.codec.width">512</property>
  <property name="meta.media.0.codec.height">512</property>
  <property name="meta.media.0.codec.rotate">0</property>
  <property name="meta.media.0.codec.frame_rate">10</property>
  <property name="meta.media.0.codec.pix_fmt">yuv444p</property>
  <property name="meta.media.0.codec.sample_aspect_ratio">0</property>
  <property name="meta.media.0.codec.colorspace">601</property>
  <property name="meta.media.0.codec.name">h264</property>
  <property name="meta.media.0.codec.long_name">H.264 / AVC / MPEG-4 AVC / MPEG-4 part 10</property>
  <property name="meta.media.0.codec.bit_rate">3415574</property>
  <property name="meta.attr.0.stream.handler_name.markup">VideoHandler</property>
  <property name="meta.attr.0.stream.vendor_id.markup">[0][0][0][0]</property>
  <property name="meta.attr.major_brand.markup">isom</property>
  <property name="meta.attr.minor_version.markup">512</property>
  <property name="meta.attr.compatible_brands.markup">isomiso2avc1mp41</property>
  <property name="meta.attr.encoder.markup">Lavf58.29.100</property>
  <property name="seekable">1</property>
  <property name="meta.media.sample_aspect_num">1</property>
  <property name="meta.media.sample_aspect_den">1</property>
  <property name="aspect_ratio">1</property>
  <property name="kdenlive:clipname"/>
  <property name="kdenlive:folderid">63</property>
  <property name="meta.media.frame_rate_num">10</property>
  <property name="meta.media.frame_rate_den">1</property>
  <property name="meta.media.colorspace">601</property>
  <property name="meta.media.color_trc">2</property>
  <property name="meta.media.width">512</property>
  <property name="meta.media.height">512</property>
  <property name="meta.media.color_range">mpeg</property>
  <property name="kdenlive:id">9</property>
  <property name="kdenlive:file_size">8029771</property>
  <property name="kdenlive:file_hash">c3dc5dc2a34fb70af21ac541863f02cc</property>
  <property name="meta.media.top_field_first">0</property>
  <property name="meta.media.progressive">1</property>
  <property name="global_feed">1</property>
 </producer>
 <producer id="producer25" in="00:00:00.000" out="00:00:07.967">
  <property name="length">240</property>
  <property name="eof">pause</property>
  <property name="resource">/home/ryankelln/Documents/Projects/Active/Sound_Escapes/Mac/stories/The Island.wav</property>
  <property name="meta.media.nb_streams">1</property>
  <property name="meta.media.0.stream.type">audio</property>
  <property name="meta.media.0.codec.sample_fmt">s32</property>
  <property name="meta.media.0.codec.sample_rate">48000</property>
  <property name="meta.media.0.codec.channels">2</property>
  <property name="meta.media.0.codec.name">pcm_s24le</property>
  <property name="meta.media.0.codec.long_name">PCM signed 24-bit little-endian</property>
  <property name="meta.media.0.codec.bit_rate">2304000</property>
  <property name="meta.attr.encoded_by.markup">Logic Pro X</property>
  <property name="meta.attr.date.markup">2021-05-17</property>
  <property name="meta.attr.creation_time.markup">16:22:16</property>
  <property name="meta.attr.time_reference.markup">172800000</property>
  <property name="meta.attr.umid.markup">0x0000000000000000000000000000000000000000000000000000000000000000000000000000000000000000183ECD6B01000000000000000000000000000000</property>
  <property name="seekable">1</property>
  <property name="audio_index">0</property>
  <property name="video_index">-1</property>
  <property name="mute_on_pause">1</property>
  <property name="mlt_service">avformat</property>
  <property name="kdenlive:clipname"/>
  <property name="kdenlive:folderid">84</property>
  <property name="kdenlive:id">10</property>
  <property name="kdenlive:file_size">2308136</property>
  <property name="kdenlive:file_hash">6b286b1e1f70ca074030140755d92587</property>
  <property name="kdenlive:audio_max">1</property>
  <property name="global_feed">1</property>
 </producer>
 <producer id="producer62" in="00:00:00.000" out="00:00:12.100">
  <property name="length">364</property>
  <property name="eof">pause</property>
  <property name="resource">/home/ryankelln/.cache/kdenlive/proxy/0ceb144da0cd9898241a427c77330dda.mkv</property>
  <property name="audio_index">-1</property>
  <property name="video_index">0</property>
  <property name="mute_on_pause">0</property>
  <property name="mlt_service">avformat-novalidate</property>
  <property name="seekable">1</property>
  <property name="aspect_ratio">1</property>
  <property name="kdenlive:clipname">zoom_banff_hike.mp4</property>
  <property name="kdenlive:folderid">63</property>
  <property name="kdenlive:id">11</property>
  <property name="kdenlive:file_size">56626989</property>
  <property name="kdenlive:file_hash">0ceb144da0cd9898241a427c77330dda</property>
  <property name="global_feed">1</property>
  <property name="kdenlive:proxy">/home/ryankelln/.cache/kdenlive/proxy/0ceb144da0cd9898241a427c77330dda.mkv</property>
  <property name="kdenlive:originalurl">/home/ryankelln/Documents/Projects/Active/Sound_Escapes/Mac/stories/zoom_banff_hike.mp4</property>
  <property name="kdenlive:original.mlt_type">producer</property>
  <property name="kdenlive:original.in">00:00:00.000</property>
  <property name="kdenlive:original.out">00:00:12.100</property>
  <property name="kdenlive:original.length">364</property>
  <property name="kdenlive:original.eof">pause</property>
  <property name="kdenlive:original.resource">/home/ryankelln/Documents/Projects/Active/Sound_Escapes/Mac/stories/zoom_banff_hike.mp4</property>
  <property name="kdenlive:original.audio_index">-1</property>
  <property name="kdenlive:original.video_index">0</property>
  <property name="kdenlive:original.mute_on_pause">0</property>
  <property name="kdenlive:original.mlt_service">avformat-novalidate</property>
  <property name="kdenlive:original.id">producer26</property>
  <property name="kdenlive:original.meta.media.nb_streams">1</property>
  <property name="kdenlive:original.meta.media.0.stream.type">video</property>
  <property name="kdenlive:original.meta.media.0.stream.frame_rate">24</property>
  <property name="kdenlive:original.meta.media.0.stream.sample_aspect_ratio">0</property>
  <property name="kdenlive:original.meta.media.0.codec.width">2048</property>
  <property name="kdenlive:original.meta.media.0.codec.height">2048</property>
  <property name="kdenlive:original.meta.media.0.codec.rotate">0</property>
  <property name="kdenlive:original.meta.media.0.codec.frame_rate">24</property>
  <property name="kdenlive:original.meta.media.0.codec.pix_fmt">yuv444p</property>
  <property name="kdenlive:original.meta.media.0.codec.sample_aspect_ratio">0</property>
  <property name="kdenlive:original.meta.media.0.codec.colorspace">709</property>
  <property name="kdenlive:original.meta.media.0.codec.name">h264</property>
  <property name="kdenlive:original.meta.media.0.codec.long_name">H.264 / AVC / MPEG-4 AVC / MPEG-4 part 10</property>
  <property name="kdenlive:original.meta.media.0.codec.bit_rate">37359123</property>
  <property name="kdenlive:original.meta.attr.0.stream.handler_name.markup">VideoHandler</property>
  <property name="kdenlive:original.meta.attr.0.stream.vendor_id.markup">[0][0][0][0]</property>
  <property name="kdenlive:original.meta.attr.major_brand.markup">isom</property>
  <property name="kdenlive:original.meta.attr.minor_version.markup">512</property>
  <property name="kdenlive:original.meta.attr.compatible_brands.markup">isomiso2avc1mp41</property>
  <property name="kdenlive:original.meta.attr.encoder.markup">Lavf57.83.100</property>
  <property name="kdenlive:original.seekable">1</property>
  <property name="kdenlive:original.meta.media.sample_aspect_num">1</property>
  <property name="kdenlive:original.meta.media.sample_aspect_den">1</property>
  <property name="kdenlive:original.aspect_ratio">1</property>
  <property name="kdenlive:original.kdenlive:folderid">63</property>
  <property name="kdenlive:original.meta.media.frame_rate_num">24</property>
  <property name="kdenlive:original.meta.media.frame_rate_den">1</property>
  <property name="kdenlive:original.meta.media.colorspace">709</property>
  <property name="kdenlive:original.meta.media.color_trc">2</property>
  <property name="kdenlive:original.meta.media.width">2048</property>
  <property name="kdenlive:original.meta.media.height">2048</property>
  <property name="kdenlive:original.meta.media.color_range">mpeg</property>
  <property name="kdenlive:original.kdenlive:id">29</property>
  <property name="kdenlive:original.kdenlive:file_size">56626989</property>
  <property name="kdenlive:original.kdenlive:file_hash">0ceb144da0cd9898241a427c77330dda</property>
  <property name="kdenlive:original.meta.media.top_field_first">0</property>
  <property name="kdenlive:original.meta.media.progressive">1</property>
  <property name="kdenlive:original.global_feed">1</property>
  <property name="kdenlive:original.width">2048</property>
  <property name="kdenlive:original.height">2048</property>
  <property name="kdenlive:original.backup">1</property>
  <property name="meta.media.nb_streams">1</property>
  <property name="meta.media.0.stream.type">video</property>
  <property name="meta.media.0.stream.frame_rate">24</property>
  <property name="meta.media.0.stream.sample_aspect_ratio">0</property>
  <property name="meta.media.0.codec.width">960</property>
  <property name="meta.media.0.codec.height">960</property>
  <property name="meta.media.0.codec.rotate">0</property>
  <property name="meta.media.0.codec.frame_rate">1000</property>
  <property name="meta.media.0.codec.pix_fmt">yuvj444p</property>
  <property name="meta.media.0.codec.sample_aspect_ratio">0</property>
  <property name="meta.media.0.codec.colorspace">601</property>
  <property name="meta.media.0.codec.name">mjpeg</property>
  <property name="meta.media.0.codec.long_name">MJPEG (Motion JPEG)</property>
  <property name="meta.media.0.codec.bit_rate">0</property>
  <property name="meta.attr.0.stream.HANDLER_NAME.markup">VideoHandler</property>
  <property name="meta.attr.0.stream.ENCODER.markup">Lavc58.91.100 mjpeg</property>
  <property name="meta.attr.0.stream.DURATION.markup">00:00:12.125000000</property>
  <property name="meta.attr.COMPATIBLE_BRANDS.markup">isomiso2avc1mp41</property>
  <property name="meta.attr.MAJOR_BRAND.markup">isom</property>
  <property name="meta.attr.MINOR_VERSION.markup">512</property>
  <property name="meta.attr.ENCODER.markup">Lavf58.45.100</property>
  <property name="meta.media.sample_aspect_num">1</property>
  <property name="meta.media.sample_aspect_den">1</property>
  <property name="meta.media.frame_rate_num">24</property>
  <property name="meta.media.frame_rate_den">1</property>
  <property name="meta.media.colorspace">601</property>
  <property name="meta.media.color_trc">2</property>
  <property name="meta.media.width">960</property>
  <property name="meta.media.height">960</property>
  <property name="meta.media.color_range">full</property>
 </producer>
 <producer id="producer61" in="00:00:00.000" out="00:00:07.767">
  <property name="length">234</property>
  <property name="eof">pause</property>
  <property name="resource">/home/ryankelln/.cache/kdenlive/proxy/4543b5b1659d0e2111b8e0fab27544c4.mkv</property>
  <property name="audio_index">-1</property>
  <property name="video_index">0</property>
  <property name="mute_on_pause">0</property>
  <property name="mlt_service">avformat-novalidate</property>
  <property name="seekable">1</property>
  <property name="aspect_ratio">1</property>
  <property name="kdenlive:clipname">zoom_georgian_rocks.mp4</property>
  <property name="kdenlive:folderid">63</property>
  <property name="kdenlive:id">12</property>
  <property name="kdenlive:file_size">23350809</property>
  <property name="kdenlive:file_hash">4543b5b1659d0e2111b8e0fab27544c4</property>
  <property name="global_feed">1</property>
  <property name="kdenlive:proxy">/home/ryankelln/.cache/kdenlive/proxy/4543b5b1659d0e2111b8e0fab27544c4.mkv</property>
  <property name="kdenlive:originalurl">/home/ryankelln/Documents/Projects/Active/Sound_Escapes/Mac/stories/zoom_georgian_rocks.mp4</property>
  <property name="kdenlive:original.mlt_type">producer</property>
  <property name="kdenlive:original.in">00:00:00.000</property>
  <property name="kdenlive:original.out">00:00:07.767</property>
  <property name="kdenlive:original.length">234</property>
  <property name="kdenlive:original.eof">pause</property>
  <property name="kdenlive:original.resource">/home/ryankelln/Documents/Projects/Active/Sound_Escapes/Mac/stories/zoom_georgian_rocks.mp4</property>
  <property name="kdenlive:original.audio_index">-1</property>
  <property name="kdenlive:original.video_index">0</property>
  <property name="kdenlive:original.mute_on_pause">0</property>
  <property name="kdenlive:original.mlt_service">avformat-novalidate</property>
  <property name="kdenlive:original.id">producer27</property>
  <property name="kdenlive:original.meta.media.nb_streams">1</property>
  <property name="kdenlive:original.meta.media.0.stream.type">video</property>
  <property name="kdenlive:original.meta.media.0.stream.frame_rate">24</property>
  <property name="kdenlive:original.meta.media.0.stream.sample_aspect_ratio">0</property>
  <property name="kdenlive:original.meta.media.0.codec.width">2048</property>
  <property name="kdenlive:original.meta.media.0.codec.height">2048</property>
  <property name="kdenlive:original.meta.media.0.codec.rotate">0</property>
  <property name="kdenlive:original.meta.media.0.codec.frame_rate">24</property>
  <property name="kdenlive:original.meta.media.0.codec.pix_fmt">yuv444p</property>
  <property name="kdenlive:original.meta.media.0.codec.sample_aspect_ratio">0</property>
  <property name="kdenlive:original.meta.media.0.codec.colorspace">709</property>
  <property name="kdenlive:original.meta.media.0.codec.name">h264</property>
  <property name="kdenlive:original.meta.media.0.codec.long_name">H.264 / AVC / MPEG-4 AVC / MPEG-4 part 10</property>
  <property name="kdenlive:original.meta.media.0.codec.bit_rate">23971742</property>
  <property name="kdenlive:original.meta.attr.0.stream.handler_name.markup">VideoHandler</property>
  <property name="kdenlive:original.meta.attr.0.stream.vendor_id.markup">[0][0][0][0]</property>
  <property name="kdenlive:original.meta.attr.major_brand.markup">isom</property>
  <property name="kdenlive:original.meta.attr.minor_version.markup">512</property>
  <property name="kdenlive:original.meta.attr.compatible_brands.markup">isomiso2avc1mp41</property>
  <property name="kdenlive:original.meta.attr.encoder.markup">Lavf57.83.100</property>
  <property name="kdenlive:original.seekable">1</property>
  <property name="kdenlive:original.meta.media.sample_aspect_num">1</property>
  <property name="kdenlive:original.meta.media.sample_aspect_den">1</property>
  <property name="kdenlive:original.aspect_ratio">1</property>
  <property name="kdenlive:original.kdenlive:folderid">63</property>
  <property name="kdenlive:original.meta.media.frame_rate_num">24</property>
  <property name="kdenlive:original.meta.media.frame_rate_den">1</property>
  <property name="kdenlive:original.meta.media.colorspace">709</property>
  <property name="kdenlive:original.meta.media.color_trc">2</property>
  <property name="kdenlive:original.meta.media.width">2048</property>
  <property name="kdenlive:original.meta.media.height">2048</property>
  <property name="kdenlive:original.meta.media.color_range">mpeg</property>
  <property name="kdenlive:original.kdenlive:id">30</property>
  <property name="kdenlive:original.kdenlive:file_size">23350809</property>
  <property name="kdenlive:original.kdenlive:file_hash">4543b5b1659d0e2111b8e0fab27544c4</property>
  <property name="kdenlive:original.meta.media.top_field_first">0</property>
  <property name="kdenlive:original.meta.media.progressive">1</property>
  <property name="kdenlive:original.global_feed">1</property>
  <property name="kdenlive:original.width">2048</property>
  <property name="kdenlive:original.height">2048</property>
  <property name="kdenlive:original.backup">1</property>
  <property name="meta.media.nb_streams">1</property>
  <property name="meta.media.0.stream.type">video</property>
  <property name="meta.media.0.stream.frame_rate">24</property>
  <property name="meta.media.0.stream.sample_aspect_ratio">0</property>
  <property name="meta.media.0.codec.width">960</property>
  <property name="meta.media.0.codec.height">960</property>
  <property name="meta.media.0.codec.rotate">0</property>
  <property name="meta.media.0.codec.frame_rate">1000</property>
  <property name="meta.media.0.codec.pix_fmt">yuvj444p</property>
  <property name="meta.media.0.codec.sample_aspect_ratio">0</property>
  <property name="meta.media.0.codec.colorspace">601</property>
  <property name="meta.media.0.codec.name">mjpeg</property>
  <property name="meta.media.0.codec.long_name">MJPEG (Motion JPEG)</property>
  <property name="meta.media.0.codec.bit_rate">0</property>
  <property name="meta.attr.0.stream.HANDLER_NAME.markup">VideoHandler</property>
  <property name="meta.attr.0.stream.ENCODER.markup">Lavc58.91.100 mjpeg</property>
  <property name="meta.attr.0.stream.DURATION.markup">00:00:07.792000000</property>
  <property name="meta.attr.COMPATIBLE_BRANDS.markup">isomiso2avc1mp41</property>
  <property name="meta.attr.MAJOR_BRAND.markup">isom</property>
  <property name="meta.attr.MINOR_VERSION.markup">512</property>
  <property name="meta.attr.ENCODER.markup">Lavf58.45.100</property>
  <property name="meta.media.sample_aspect_num">1</property>
  <property name="meta.media.sample_aspect_den">1</property>
  <property name="meta.media.frame_rate_num">24</property>
  <property name="meta.media.frame_rate_den">1</property>
  <property name="meta.media.colorspace">601</property>
  <property name="meta.media.color_trc">2</property>
  <property name="meta.media.width">960</property>
  <property name="meta.media.height">960</property>
  <property name="meta.media.color_range">full</property>
 </producer>
 <producer id="producer64" in="00:00:00.000" out="00:00:16.500">
  <property name="length">496</property>
  <property name="eof">pause</property>
  <property name="resource">/home/ryankelln/.cache/kdenlive/proxy/a21ba4e776e9de575da220ba1bf6fef5.mkv</property>
  <property name="audio_index">-1</property>
  <property name="video_index">0</property>
  <property name="mute_on_pause">0</property>
  <property name="mlt_service">avformat-novalidate</property>
  <property name="seekable">1</property>
  <property name="aspect_ratio">1</property>
  <property name="kdenlive:clipname">zoom_Siwash_Roch_Seven_Sisters.mp4</property>
  <property name="kdenlive:folderid">63</property>
  <property name="kdenlive:id">13</property>
  <property name="kdenlive:file_size">49666152</property>
  <property name="kdenlive:file_hash">a21ba4e776e9de575da220ba1bf6fef5</property>
  <property name="kdenlive:proxy">/home/ryankelln/.cache/kdenlive/proxy/a21ba4e776e9de575da220ba1bf6fef5.mkv</property>
  <property name="kdenlive:originalurl">/home/ryankelln/Documents/Projects/Active/Sound_Escapes/Mac/stories/zoom_Siwash_Roch_Seven_Sisters.mp4</property>
  <property name="kdenlive:original.mlt_type">producer</property>
  <property name="kdenlive:original.in">00:00:00.000</property>
  <property name="kdenlive:original.out">00:00:16.500</property>
  <property name="kdenlive:original.length">496</property>
  <property name="kdenlive:original.eof">pause</property>
  <property name="kdenlive:original.resource">/home/ryankelln/Documents/Projects/Active/Sound_Escapes/Mac/stories/zoom_Siwash_Roch_Seven_Sisters.mp4</property>
  <property name="kdenlive:original.audio_index">-1</property>
  <property name="kdenlive:original.video_index">0</property>
  <property name="kdenlive:original.mute_on_pause">0</property>
  <property name="kdenlive:original.mlt_service">avformat-novalidate</property>
  <property name="kdenlive:original.id">producer28</property>
  <property name="kdenlive:original.meta.media.nb_streams">1</property>
  <property name="kdenlive:original.meta.media.0.stream.type">video</property>
  <property name="kdenlive:original.meta.media.0.stream.frame_rate">24</property>
  <property name="kdenlive:original.meta.media.0.stream.sample_aspect_ratio">0</property>
  <property name="kdenlive:original.meta.media.0.codec.width">2048</property>
  <property name="kdenlive:original.meta.media.0.codec.height">2048</property>
  <property name="kdenlive:original.meta.media.0.codec.rotate">0</property>
  <property name="kdenlive:original.meta.media.0.codec.frame_rate">24</property>
  <property name="kdenlive:original.meta.media.0.codec.pix_fmt">yuv444p</property>
  <property name="kdenlive:original.meta.media.0.codec.sample_aspect_ratio">0</property>
  <property name="kdenlive:original.meta.media.0.codec.colorspace">709</property>
  <property name="kdenlive:original.meta.media.0.codec.name">h264</property>
  <property name="kdenlive:original.meta.media.0.codec.long_name">H.264 / AVC / MPEG-4 AVC / MPEG-4 part 10</property>
  <property name="kdenlive:original.meta.media.0.codec.bit_rate">24016999</property>
  <property name="kdenlive:original.meta.attr.0.stream.handler_name.markup">VideoHandler</property>
  <property name="kdenlive:original.meta.attr.0.stream.vendor_id.markup">[0][0][0][0]</property>
  <property name="kdenlive:original.meta.attr.major_brand.markup">isom</property>
  <property name="kdenlive:original.meta.attr.minor_version.markup">512</property>
  <property name="kdenlive:original.meta.attr.compatible_brands.markup">isomiso2avc1mp41</property>
  <property name="kdenlive:original.meta.attr.encoder.markup">Lavf57.83.100</property>
  <property name="kdenlive:original.seekable">1</property>
  <property name="kdenlive:original.meta.media.sample_aspect_num">1</property>
  <property name="kdenlive:original.meta.media.sample_aspect_den">1</property>
  <property name="kdenlive:original.aspect_ratio">1</property>
  <property name="kdenlive:original.kdenlive:folderid">63</property>
  <property name="kdenlive:original.meta.media.frame_rate_num">24</property>
  <property name="kdenlive:original.meta.media.frame_rate_den">1</property>
  <property name="kdenlive:original.meta.media.colorspace">709</property>
  <property name="kdenlive:original.meta.media.color_trc">2</property>
  <property name="kdenlive:original.meta.media.width">2048</property>
  <property name="kdenlive:original.meta.media.height">2048</property>
  <property name="kdenlive:original.meta.media.color_range">mpeg</property>
  <property name="kdenlive:original.kdenlive:id">31</property>
  <property name="kdenlive:original.kdenlive:file_size">49666152</property>
  <property name="kdenlive:original.kdenlive:file_hash">a21ba4e776e9de575da220ba1bf6fef5</property>
  <property name="kdenlive:original.meta.media.top_field_first">0</property>
  <property name="kdenlive:original.meta.media.progressive">1</property>
  <property name="kdenlive:original.width">2048</property>
  <property name="kdenlive:original.height">2048</property>
  <property name="kdenlive:original.backup">1</property>
  <property name="global_feed">1</property>
  <property name="meta.media.nb_streams">1</property>
  <property name="meta.media.0.stream.type">video</property>
  <property name="meta.media.0.stream.frame_rate">24</property>
  <property name="meta.media.0.stream.sample_aspect_ratio">0</property>
  <property name="meta.media.0.codec.width">960</property>
  <property name="meta.media.0.codec.height">960</property>
  <property name="meta.media.0.codec.rotate">0</property>
  <property name="meta.media.0.codec.frame_rate">1000</property>
  <property name="meta.media.0.codec.pix_fmt">yuvj444p</property>
  <property name="meta.media.0.codec.sample_aspect_ratio">0</property>
  <property name="meta.media.0.codec.colorspace">601</property>
  <property name="meta.media.0.codec.name">mjpeg</property>
  <property name="meta.media.0.codec.long_name">MJPEG (Motion JPEG)</property>
  <property name="meta.media.0.codec.bit_rate">0</property>
  <property name="meta.attr.0.stream.HANDLER_NAME.markup">VideoHandler</property>
  <property name="meta.attr.0.stream.ENCODER.markup">Lavc58.91.100 mjpeg</property>
  <property name="meta.attr.0.stream.DURATION.markup">00:00:16.542000000</property>
  <property name="meta.attr.COMPATIBLE_BRANDS.markup">isomiso2avc1mp41</property>
  <property name="meta.attr.MAJOR_BRAND.markup">isom</property>
  <property name="meta.attr.MINOR_VERSION.markup">512</property>
  <property name="meta.attr.ENCODER.markup">Lavf58.45.100</property>
  <property name="meta.media.sample_aspect_num">1</property>
  <property name="meta.media.sample_aspect_den">1</property>
  <property name="meta.media.frame_rate_num">24</property>
  <property name="meta.media.frame_rate_den">1</property>
  <property name="meta.media.colorspace">601</property>
  <property name="meta.media.color_trc">2</property>
  <property name="meta.media.width">960</property>
  <property name="meta.media.height">960</property>
  <property name="meta.media.color_range">full</property>
 </producer>
 <producer id="producer63" in="00:00:00.000" out="00:00:15.600">
  <property name="length">469</property>
  <property name="eof">pause</property>
  <property name="resource">/home/ryankelln/.cache/kdenlive/proxy/8771f86ff1d9454c279e7d973ee46168.mkv</property>
  <property name="audio_index">-1</property>
  <property name="video_index">0</property>
  <property name="mute_on_pause">0</property>
  <property name="mlt_service">avformat-novalidate</property>
  <property name="seekable">1</property>
  <property name="aspect_ratio">1</property>
  <property name="kdenlive:clipname">zoom_summer_grass.mp4</property>
  <property name="kdenlive:folderid">63</property>
  <property name="kdenlive:id">14</property>
  <property name="kdenlive:file_size">51260468</property>
  <property name="kdenlive:file_hash">8771f86ff1d9454c279e7d973ee46168</property>
  <property name="kdenlive:proxy">/home/ryankelln/.cache/kdenlive/proxy/8771f86ff1d9454c279e7d973ee46168.mkv</property>
  <property name="kdenlive:originalurl">/home/ryankelln/Documents/Projects/Active/Sound_Escapes/Mac/stories/zoom_summer_grass.mp4</property>
  <property name="kdenlive:original.mlt_type">producer</property>
  <property name="kdenlive:original.in">00:00:00.000</property>
  <property name="kdenlive:original.out">00:00:15.600</property>
  <property name="kdenlive:original.length">469</property>
  <property name="kdenlive:original.eof">pause</property>
  <property name="kdenlive:original.resource">/home/ryankelln/Documents/Projects/Active/Sound_Escapes/Mac/stories/zoom_summer_grass.mp4</property>
  <property name="kdenlive:original.audio_index">-1</property>
  <property name="kdenlive:original.video_index">0</property>
  <property name="kdenlive:original.mute_on_pause">0</property>
  <property name="kdenlive:original.mlt_service">avformat-novalidate</property>
  <property name="kdenlive:original.id">producer29</property>
  <property name="kdenlive:original.meta.media.nb_streams">1</property>
  <property name="kdenlive:original.meta.media.0.stream.type">video</property>
  <property name="kdenlive:original.meta.media.0.stream.frame_rate">24</property>
  <property name="kdenlive:original.meta.media.0.stream.sample_aspect_ratio">0</property>
  <property name="kdenlive:original.meta.media.0.codec.width">2048</property>
  <property name="kdenlive:original.meta.media.0.codec.height">2048</property>
  <property name="kdenlive:original.meta.media.0.codec.rotate">0</property>
  <property name="kdenlive:original.meta.media.0.codec.frame_rate">24</property>
  <property name="kdenlive:original.meta.media.0.codec.pix_fmt">yuv444p</property>
  <property name="kdenlive:original.meta.media.0.codec.sample_aspect_ratio">0</property>
  <property name="kdenlive:original.meta.media.0.codec.colorspace">709</property>
  <property name="kdenlive:original.meta.media.0.codec.name">h264</property>
  <property name="kdenlive:original.meta.media.0.codec.long_name">H.264 / AVC / MPEG-4 AVC / MPEG-4 part 10</property>
  <property name="kdenlive:original.meta.media.0.codec.bit_rate">26242427</property>
  <property name="kdenlive:original.meta.attr.0.stream.handler_name.markup">VideoHandler</property>
  <property name="kdenlive:original.meta.attr.0.stream.vendor_id.markup">[0][0][0][0]</property>
  <property name="kdenlive:original.meta.attr.major_brand.markup">isom</property>
  <property name="kdenlive:original.meta.attr.minor_version.markup">512</property>
  <property name="kdenlive:original.meta.attr.compatible_brands.markup">isomiso2avc1mp41</property>
  <property name="kdenlive:original.meta.attr.encoder.markup">Lavf57.83.100</property>
  <property name="kdenlive:original.seekable">1</property>
  <property name="kdenlive:original.meta.media.sample_aspect_num">1</property>
  <property name="kdenlive:original.meta.media.sample_aspect_den">1</property>
  <property name="kdenlive:original.aspect_ratio">1</property>
  <property name="kdenlive:original.kdenlive:folderid">63</property>
  <property name="kdenlive:original.meta.media.frame_rate_num">24</property>
  <property name="kdenlive:original.meta.media.frame_rate_den">1</property>
  <property name="kdenlive:original.meta.media.colorspace">709</property>
  <property name="kdenlive:original.meta.media.color_trc">2</property>
  <property name="kdenlive:original.meta.media.width">2048</property>
  <property name="kdenlive:original.meta.media.height">2048</property>
  <property name="kdenlive:original.meta.media.color_range">mpeg</property>
  <property name="kdenlive:original.kdenlive:id">32</property>
  <property name="kdenlive:original.kdenlive:file_size">51260468</property>
  <property name="kdenlive:original.kdenlive:file_hash">8771f86ff1d9454c279e7d973ee46168</property>
  <property name="kdenlive:original.width">2048</property>
  <property name="kdenlive:original.height">2048</property>
  <property name="kdenlive:original.meta.media.top_field_first">0</property>
  <property name="kdenlive:original.meta.media.progressive">1</property>
  <property name="kdenlive:original.backup">1</property>
  <property name="global_feed">1</property>
  <property name="meta.media.nb_streams">1</property>
  <property name="meta.media.0.stream.type">video</property>
  <property name="meta.media.0.stream.frame_rate">24</property>
  <property name="meta.media.0.stream.sample_aspect_ratio">0</property>
  <property name="meta.media.0.codec.width">960</property>
  <property name="meta.media.0.codec.height">960</property>
  <property name="meta.media.0.codec.rotate">0</property>
  <property name="meta.media.0.codec.frame_rate">1000</property>
  <property name="meta.media.0.codec.pix_fmt">yuvj444p</property>
  <property name="meta.media.0.codec.sample_aspect_ratio">0</property>
  <property name="meta.media.0.codec.colorspace">601</property>
  <property name="meta.media.0.codec.name">mjpeg</property>
  <property name="meta.media.0.codec.long_name">MJPEG (Motion JPEG)</property>
  <property name="meta.media.0.codec.bit_rate">0</property>
  <property name="meta.attr.0.stream.HANDLER_NAME.markup">VideoHandler</property>
  <property name="meta.attr.0.stream.ENCODER.markup">Lavc58.91.100 mjpeg</property>
  <property name="meta.attr.0.stream.DURATION.markup">00:00:15.625000000</property>
  <property name="meta.attr.COMPATIBLE_BRANDS.markup">isomiso2avc1mp41</property>
  <property name="meta.attr.MAJOR_BRAND.markup">isom</property>
  <property name="meta.attr.MINOR_VERSION.markup">512</property>
  <property name="meta.attr.ENCODER.markup">Lavf58.45.100</property>
  <property name="meta.media.sample_aspect_num">1</property>
  <property name="meta.media.sample_aspect_den">1</property>
  <property name="meta.media.frame_rate_num">24</property>
  <property name="meta.media.frame_rate_den">1</property>
  <property name="meta.media.colorspace">601</property>
  <property name="meta.media.color_trc">2</property>
  <property name="meta.media.width">960</property>
  <property name="meta.media.height">960</property>
  <property name="meta.media.color_range">full</property>
 </producer>
 <producer id="producer30" in="00:00:00.000" out="00:01:04.000">
  <property name="length">1921</property>
  <property name="eof">pause</property>
  <property name="resource">/home/ryankelln/Documents/Projects/Active/Sound_Escapes/Mac/stories/slomo_summer_grass.mp4</property>
  <property name="audio_index">-1</property>
  <property name="video_index">0</property>
  <property name="mute_on_pause">0</property>
  <property name="mlt_service">avformat-novalidate</property>
  <property name="meta.media.nb_streams">1</property>
  <property name="meta.media.0.stream.type">video</property>
  <property name="meta.media.0.stream.frame_rate">30</property>
  <property name="meta.media.0.stream.sample_aspect_ratio">1</property>
  <property name="meta.media.0.codec.width">512</property>
  <property name="meta.media.0.codec.height">512</property>
  <property name="meta.media.0.codec.rotate">0</property>
  <property name="meta.media.0.codec.frame_rate">30</property>
  <property name="meta.media.0.codec.pix_fmt">yuv444p</property>
  <property name="meta.media.0.codec.sample_aspect_ratio">1</property>
  <property name="meta.media.0.codec.colorspace">601</property>
  <property name="meta.media.0.codec.name">h264</property>
  <property name="meta.media.0.codec.long_name">H.264 / AVC / MPEG-4 AVC / MPEG-4 part 10</property>
  <property name="meta.media.0.codec.bit_rate">2025137</property>
  <property name="meta.attr.0.stream.handler_name.markup">VideoHandler</property>
  <property name="meta.attr.0.stream.vendor_id.markup">[0][0][0][0]</property>
  <property name="meta.attr.major_brand.markup">isom</property>
  <property name="meta.attr.minor_version.markup">512</property>
  <property name="meta.attr.compatible_brands.markup">isomiso2avc1mp41</property>
  <property name="meta.attr.encoder.markup">Lavf58.45.100</property>
  <property name="seekable">1</property>
  <property name="meta.media.sample_aspect_num">1</property>
  <property name="meta.media.sample_aspect_den">1</property>
  <property name="aspect_ratio">1</property>
  <property name="kdenlive:clipname"/>
  <property name="kdenlive:folderid">63</property>
  <property name="meta.media.frame_rate_num">30</property>
  <property name="meta.media.frame_rate_den">1</property>
  <property name="meta.media.colorspace">601</property>
  <property name="meta.media.color_trc">2</property>
  <property name="meta.media.width">512</property>
  <property name="meta.media.height">512</property>
  <property name="meta.media.color_range">mpeg</property>
  <property name="kdenlive:id">15</property>
  <property name="kdenlive:file_size">16222148</property>
  <property name="kdenlive:file_hash">46ae7ef903171d0c89f1d79666e27b80</property>
  <property name="meta.media.top_field_first">0</property>
  <property name="meta.media.progressive">1</property>
  <property name="global_feed">1</property>
 </producer>
 <producer id="producer31" in="00:00:00.000" out="00:00:18.767">
  <property name="length">564</property>
  <property name="eof">pause</property>
  <property name="resource">/home/ryankelln/Documents/Projects/Active/Sound_Escapes/Mac/stories/summer_1_In_the_summer_the_grass_grows_tall_enough_to_fold_over_on_itself,_and_the_riv.mp4</property>
  <property name="audio_index">-1</property>
  <property name="video_index">0</property>
  <property name="mute_on_pause">0</property>
  <property name="mlt_service">avformat-novalidate</property>
  <property name="meta.media.nb_streams">1</property>
  <property name="meta.media.0.stream.type">video</property>
  <property name="meta.media.0.stream.frame_rate">10</property>
  <property name="meta.media.0.stream.sample_aspect_ratio">0</property>
  <property name="meta.media.0.codec.width">512</property>
  <property name="meta.media.0.codec.height">512</property>
  <property name="meta.media.0.codec.rotate">0</property>
  <property name="meta.media.0.codec.frame_rate">10</property>
  <property name="meta.media.0.codec.pix_fmt">yuv420p</property>
  <property name="meta.media.0.codec.sample_aspect_ratio">0</property>
  <property name="meta.media.0.codec.colorspace">601</property>
  <property name="meta.media.0.codec.name">h264</property>
  <property name="meta.media.0.codec.long_name">H.264 / AVC / MPEG-4 AVC / MPEG-4 part 10</property>
  <property name="meta.media.0.codec.bit_rate">2066545</property>
  <property name="meta.attr.0.stream.handler_name.markup">VideoHandler</property>
  <property name="meta.attr.0.stream.vendor_id.markup">[0][0][0][0]</property>
  <property name="meta.attr.major_brand.markup">isom</property>
  <property name="meta.attr.minor_version.markup">512</property>
  <property name="meta.attr.compatible_brands.markup">isomiso2avc1mp41</property>
  <property name="meta.attr.encoder.markup">Lavf58.29.100</property>
  <property name="seekable">1</property>
  <property name="meta.media.sample_aspect_num">1</property>
  <property name="meta.media.sample_aspect_den">1</property>
  <property name="aspect_ratio">1</property>
  <property name="kdenlive:clipname"/>
  <property name="kdenlive:folderid">63</property>
  <property name="meta.media.frame_rate_num">10</property>
  <property name="meta.media.frame_rate_den">1</property>
  <property name="meta.media.colorspace">601</property>
  <property name="meta.media.color_trc">2</property>
  <property name="meta.media.width">512</property>
  <property name="meta.media.height">512</property>
  <property name="meta.media.color_range">mpeg</property>
  <property name="kdenlive:id">16</property>
  <property name="kdenlive:file_size">4859538</property>
  <property name="kdenlive:file_hash">be5c761740be28935a7e1d62373e5050</property>
  <property name="meta.media.top_field_first">0</property>
  <property name="meta.media.progressive">1</property>
  <property name="global_feed">1</property>
 </producer>
 <producer id="producer32" in="00:00:00.000" out="00:00:25.067">
  <property name="length">753</property>
  <property name="eof">pause</property>
  <property name="resource">/home/ryankelln/Documents/Projects/Active/Sound_Escapes/Mac/stories/summer_2_This_place_is_a_secret_safe,_tucked_away,_but_close_enough_to_the_town_that_y.mp4</property>
  <property name="audio_index">-1</property>
  <property name="video_index">0</property>
  <property name="mute_on_pause">0</property>
  <property name="mlt_service">avformat-novalidate</property>
  <property name="meta.media.nb_streams">1</property>
  <property name="meta.media.0.stream.type">video</property>
  <property name="meta.media.0.stream.frame_rate">10</property>
  <property name="meta.media.0.stream.sample_aspect_ratio">0</property>
  <property name="meta.media.0.codec.width">512</property>
  <property name="meta.media.0.codec.height">512</property>
  <property name="meta.media.0.codec.rotate">0</property>
  <property name="meta.media.0.codec.frame_rate">10</property>
  <property name="meta.media.0.codec.pix_fmt">yuv420p</property>
  <property name="meta.media.0.codec.sample_aspect_ratio">0</property>
  <property name="meta.media.0.codec.colorspace">601</property>
  <property name="meta.media.0.codec.name">h264</property>
  <property name="meta.media.0.codec.long_name">H.264 / AVC / MPEG-4 AVC / MPEG-4 part 10</property>
  <property name="meta.media.0.codec.bit_rate">1179862</property>
  <property name="meta.attr.0.stream.handler_name.markup">VideoHandler</property>
  <property name="meta.attr.0.stream.vendor_id.markup">[0][0][0][0]</property>
  <property name="meta.attr.major_brand.markup">isom</property>
  <property name="meta.attr.minor_version.markup">512</property>
  <property name="meta.attr.compatible_brands.markup">isomiso2avc1mp41</property>
  <property name="meta.attr.encoder.markup">Lavf58.29.100</property>
  <property name="seekable">1</property>
  <property name="meta.media.sample_aspect_num">1</property>
  <property name="meta.media.sample_aspect_den">1</property>
  <property name="aspect_ratio">1</property>
  <property name="kdenlive:clipname"/>
  <property name="kdenlive:folderid">63</property>
  <property name="meta.media.frame_rate_num">10</property>
  <property name="meta.media.frame_rate_den">1</property>
  <property name="meta.media.colorspace">601</property>
  <property name="meta.media.color_trc">2</property>
  <property name="meta.media.width">512</property>
  <property name="meta.media.height">512</property>
  <property name="meta.media.color_range">mpeg</property>
  <property name="kdenlive:id">17</property>
  <property name="kdenlive:file_size">3705709</property>
  <property name="kdenlive:file_hash">10c3c8cd5b176b6f58064bf6349e6edb</property>
  <property name="meta.media.top_field_first">0</property>
  <property name="meta.media.progressive">1</property>
  <property name="global_feed">1</property>
 </producer>
 <producer id="producer33" in="00:00:00.000" out="00:00:10.367">
  <property name="length">312</property>
  <property name="eof">pause</property>
  <property name="resource">/home/ryankelln/Documents/Projects/Active/Sound_Escapes/Mac/stories/summer_3_I_remember_having_quiet_reflections_while_watching_the_water_flow_over_the_da.mp4</property>
  <property name="audio_index">-1</property>
  <property name="video_index">0</property>
  <property name="mute_on_pause">0</property>
  <property name="mlt_service">avformat-novalidate</property>
  <property name="meta.media.nb_streams">1</property>
  <property name="meta.media.0.stream.type">video</property>
  <property name="meta.media.0.stream.frame_rate">10</property>
  <property name="meta.media.0.stream.sample_aspect_ratio">0</property>
  <property name="meta.media.0.codec.width">512</property>
  <property name="meta.media.0.codec.height">512</property>
  <property name="meta.media.0.codec.rotate">0</property>
  <property name="meta.media.0.codec.frame_rate">10</property>
  <property name="meta.media.0.codec.pix_fmt">yuv420p</property>
  <property name="meta.media.0.codec.sample_aspect_ratio">0</property>
  <property name="meta.media.0.codec.colorspace">601</property>
  <property name="meta.media.0.codec.name">h264</property>
  <property name="meta.media.0.codec.long_name">H.264 / AVC / MPEG-4 AVC / MPEG-4 part 10</property>
  <property name="meta.media.0.codec.bit_rate">985605</property>
  <property name="meta.attr.0.stream.handler_name.markup">VideoHandler</property>
  <property name="meta.attr.0.stream.vendor_id.markup">[0][0][0][0]</property>
  <property name="meta.attr.major_brand.markup">isom</property>
  <property name="meta.attr.minor_version.markup">512</property>
  <property name="meta.attr.compatible_brands.markup">isomiso2avc1mp41</property>
  <property name="meta.attr.encoder.markup">Lavf58.29.100</property>
  <property name="seekable">1</property>
  <property name="meta.media.sample_aspect_num">1</property>
  <property name="meta.media.sample_aspect_den">1</property>
  <property name="aspect_ratio">1</property>
  <property name="kdenlive:clipname"/>
  <property name="kdenlive:folderid">63</property>
  <property name="meta.media.frame_rate_num">10</property>
  <property name="meta.media.frame_rate_den">1</property>
  <property name="meta.media.colorspace">601</property>
  <property name="meta.media.color_trc">2</property>
  <property name="meta.media.width">512</property>
  <property name="meta.media.height">512</property>
  <property name="meta.media.color_range">mpeg</property>
  <property name="kdenlive:id">18</property>
  <property name="kdenlive:file_size">1283376</property>
  <property name="kdenlive:file_hash">a005ec3d8c971222734387d56369d437</property>
  <property name="meta.media.top_field_first">0</property>
  <property name="meta.media.progressive">1</property>
  <property name="global_feed">1</property>
 </producer>
 <producer id="producer34" in="00:00:00.000" out="00:00:14.567">
  <property name="length">438</property>
  <property name="eof">pause</property>
  <property name="resource">/home/ryankelln/Documents/Projects/Active/Sound_Escapes/Mac/stories/summer_4_My_mind_was_balancing_the_vivid_imagination_of_a_child_while_exploring_new_an.mp4</property>
  <property name="audio_index">-1</property>
  <property name="video_index">0</property>
  <property name="mute_on_pause">0</property>
  <property name="mlt_service">avformat-novalidate</property>
  <property name="meta.media.nb_streams">1</property>
  <property name="meta.media.0.stream.type">video</property>
  <property name="meta.media.0.stream.frame_rate">10</property>
  <property name="meta.media.0.stream.sample_aspect_ratio">0</property>
  <property name="meta.media.0.codec.width">512</property>
  <property name="meta.media.0.codec.height">512</property>
  <property name="meta.media.0.codec.rotate">0</property>
  <property name="meta.media.0.codec.frame_rate">10</property>
  <property name="meta.media.0.codec.pix_fmt">yuv420p</property>
  <property name="meta.media.0.codec.sample_aspect_ratio">0</property>
  <property name="meta.media.0.codec.colorspace">601</property>
  <property name="meta.media.0.codec.name">h264</property>
  <property name="meta.media.0.codec.long_name">H.264 / AVC / MPEG-4 AVC / MPEG-4 part 10</property>
  <property name="meta.media.0.codec.bit_rate">1155554</property>
  <property name="meta.attr.0.stream.handler_name.markup">VideoHandler</property>
  <property name="meta.attr.0.stream.vendor_id.markup">[0][0][0][0]</property>
  <property name="meta.attr.major_brand.markup">isom</property>
  <property name="meta.attr.minor_version.markup">512</property>
  <property name="meta.attr.compatible_brands.markup">isomiso2avc1mp41</property>
  <property name="meta.attr.encoder.markup">Lavf58.29.100</property>
  <property name="seekable">1</property>
  <property name="meta.media.sample_aspect_num">1</property>
  <property name="meta.media.sample_aspect_den">1</property>
  <property name="aspect_ratio">1</property>
  <property name="kdenlive:clipname"/>
  <property name="kdenlive:folderid">63</property>
  <property name="meta.media.frame_rate_num">10</property>
  <property name="meta.media.frame_rate_den">1</property>
  <property name="meta.media.colorspace">601</property>
  <property name="meta.media.color_trc">2</property>
  <property name="meta.media.width">512</property>
  <property name="meta.media.height">512</property>
  <property name="meta.media.color_range">mpeg</property>
  <property name="kdenlive:id">19</property>
  <property name="kdenlive:file_size">2111504</property>
  <property name="kdenlive:file_hash">558b46bcda34a9f34b1cbaea3232c2e0</property>
  <property name="meta.media.top_field_first">0</property>
  <property name="meta.media.progressive">1</property>
  <property name="global_feed">1</property>
 </producer>
 <producer id="producer35" in="00:00:00.000" out="00:00:20.867">
  <property name="length">627</property>
  <property name="eof">pause</property>
  <property name="resource">/home/ryankelln/Documents/Projects/Active/Sound_Escapes/Mac/stories/summer_0_There_is_something_about_the_spot_along_the_Humber_River_in_my_home_town_of_B.mp4</property>
  <property name="audio_index">-1</property>
  <property name="video_index">0</property>
  <property name="mute_on_pause">0</property>
  <property name="mlt_service">avformat-novalidate</property>
  <property name="meta.media.nb_streams">1</property>
  <property name="meta.media.0.stream.type">video</property>
  <property name="meta.media.0.stream.frame_rate">10</property>
  <property name="meta.media.0.stream.sample_aspect_ratio">0</property>
  <property name="meta.media.0.codec.width">512</property>
  <property name="meta.media.0.codec.height">512</property>
  <property name="meta.media.0.codec.rotate">0</property>
  <property name="meta.media.0.codec.frame_rate">10</property>
  <property name="meta.media.0.codec.pix_fmt">yuv420p</property>
  <property name="meta.media.0.codec.sample_aspect_ratio">0</property>
  <property name="meta.media.0.codec.colorspace">601</property>
  <property name="meta.media.0.codec.name">h264</property>
  <property name="meta.media.0.codec.long_name">H.264 / AVC / MPEG-4 AVC / MPEG-4 part 10</property>
  <property name="meta.media.0.codec.bit_rate">1772728</property>
  <property name="meta.attr.0.stream.handler_name.markup">VideoHandler</property>
  <property name="meta.attr.0.stream.vendor_id.markup">[0][0][0][0]</property>
  <property name="meta.attr.major_brand.markup">isom</property>
  <property name="meta.attr.minor_version.markup">512</property>
  <property name="meta.attr.compatible_brands.markup">isomiso2avc1mp41</property>
  <property name="meta.attr.encoder.markup">Lavf58.29.100</property>
  <property name="seekable">1</property>
  <property name="meta.media.sample_aspect_num">1</property>
  <property name="meta.media.sample_aspect_den">1</property>
  <property name="aspect_ratio">1</property>
  <property name="kdenlive:clipname"/>
  <property name="kdenlive:folderid">63</property>
  <property name="meta.media.frame_rate_num">10</property>
  <property name="meta.media.frame_rate_den">1</property>
  <property name="meta.media.colorspace">601</property>
  <property name="meta.media.color_trc">2</property>
  <property name="meta.media.width">512</property>
  <property name="meta.media.height">512</property>
  <property name="meta.media.color_range">mpeg</property>
  <property name="kdenlive:id">20</property>
  <property name="kdenlive:file_size">4634621</property>
  <property name="kdenlive:file_hash">df6334dea4748644238f25015c42d5b6</property>
  <property name="meta.media.top_field_first">0</property>
  <property name="meta.media.progressive">1</property>
  <property name="global_feed">1</property>
 </producer>
 <producer id="producer36" in="00:00:00.000" out="00:01:05.367">
  <property name="length">1962</property>
  <property name="eof">pause</property>
  <property name="resource">/home/ryankelln/Documents/Projects/Active/Sound_Escapes/Mac/stories/summer_grass_aphantasia_1.mp4</property>
  <property name="audio_index">-1</property>
  <property name="video_index">0</property>
  <property name="mute_on_pause">0</property>
  <property name="mlt_service">avformat-novalidate</property>
  <property name="meta.media.nb_streams">1</property>
  <property name="meta.media.0.stream.type">video</property>
  <property name="meta.media.0.stream.frame_rate">10</property>
  <property name="meta.media.0.stream.sample_aspect_ratio">1</property>
  <property name="meta.media.0.codec.width">1280</property>
  <property name="meta.media.0.codec.height">720</property>
  <property name="meta.media.0.codec.rotate">0</property>
  <property name="meta.media.0.codec.frame_rate">10</property>
  <property name="meta.media.0.codec.pix_fmt">yuvj420p</property>
  <property name="meta.media.0.codec.sample_aspect_ratio">1</property>
  <property name="meta.media.0.codec.colorspace">601</property>
  <property name="meta.media.0.codec.name">h264</property>
  <property name="meta.media.0.codec.long_name">H.264 / AVC / MPEG-4 AVC / MPEG-4 part 10</property>
  <property name="meta.media.0.codec.bit_rate">5021290</property>
  <property name="meta.attr.0.stream.handler_name.markup">VideoHandler</property>
  <property name="meta.attr.0.stream.vendor_id.markup">[0][0][0][0]</property>
  <property name="meta.attr.major_brand.markup">isom</property>
  <property name="meta.attr.minor_version.markup">512</property>
  <property name="meta.attr.compatible_brands.markup">isomiso2avc1mp41</property>
  <property name="meta.attr.encoder.markup">Lavf58.76.100</property>
  <property name="seekable">1</property>
  <property name="meta.media.sample_aspect_num">1</property>
  <property name="meta.media.sample_aspect_den">1</property>
  <property name="aspect_ratio">1</property>
  <property name="kdenlive:clipname"/>
  <property name="kdenlive:folderid">63</property>
  <property name="meta.media.frame_rate_num">10</property>
  <property name="meta.media.frame_rate_den">1</property>
  <property name="meta.media.colorspace">601</property>
  <property name="meta.media.color_trc">2</property>
  <property name="meta.media.width">1280</property>
  <property name="meta.media.height">720</property>
  <property name="meta.media.color_range">full</property>
  <property name="kdenlive:id">21</property>
  <property name="kdenlive:file_size">41053892</property>
  <property name="kdenlive:file_hash">e1f3f6ca3334c714aa44ccdc9fd09a6f</property>
  <property name="meta.media.top_field_first">0</property>
  <property name="meta.media.progressive">1</property>
  <property name="global_feed">1</property>
 </producer>
 <producer id="producer37" in="00:00:00.000" out="00:01:05.367">
  <property name="length">1962</property>
  <property name="eof">pause</property>
  <property name="resource">/home/ryankelln/Documents/Projects/Active/Sound_Escapes/Mac/stories/summer_grass_aphantasia_2.mp4</property>
  <property name="audio_index">-1</property>
  <property name="video_index">0</property>
  <property name="mute_on_pause">0</property>
  <property name="mlt_service">avformat-novalidate</property>
  <property name="meta.media.nb_streams">1</property>
  <property name="meta.media.0.stream.type">video</property>
  <property name="meta.media.0.stream.frame_rate">10</property>
  <property name="meta.media.0.stream.sample_aspect_ratio">1</property>
  <property name="meta.media.0.codec.width">1280</property>
  <property name="meta.media.0.codec.height">720</property>
  <property name="meta.media.0.codec.rotate">0</property>
  <property name="meta.media.0.codec.frame_rate">10</property>
  <property name="meta.media.0.codec.pix_fmt">yuvj420p</property>
  <property name="meta.media.0.codec.sample_aspect_ratio">1</property>
  <property name="meta.media.0.codec.colorspace">601</property>
  <property name="meta.media.0.codec.name">h264</property>
  <property name="meta.media.0.codec.long_name">H.264 / AVC / MPEG-4 AVC / MPEG-4 part 10</property>
  <property name="meta.media.0.codec.bit_rate">6110061</property>
  <property name="meta.attr.0.stream.handler_name.markup">VideoHandler</property>
  <property name="meta.attr.0.stream.vendor_id.markup">[0][0][0][0]</property>
  <property name="meta.attr.major_brand.markup">isom</property>
  <property name="meta.attr.minor_version.markup">512</property>
  <property name="meta.attr.compatible_brands.markup">isomiso2avc1mp41</property>
  <property name="meta.attr.encoder.markup">Lavf58.76.100</property>
  <property name="seekable">1</property>
  <property name="meta.media.sample_aspect_num">1</property>
  <property name="meta.media.sample_aspect_den">1</property>
  <property name="aspect_ratio">1</property>
  <property name="kdenlive:clipname"/>
  <property name="kdenlive:folderid">63</property>
  <property name="meta.media.frame_rate_num">10</property>
  <property name="meta.media.frame_rate_den">1</property>
  <property name="meta.media.colorspace">601</property>
  <property name="meta.media.color_trc">2</property>
  <property name="meta.media.width">1280</property>
  <property name="meta.media.height">720</property>
  <property name="meta.media.color_range">full</property>
  <property name="kdenlive:id">22</property>
  <property name="kdenlive:file_size">49954890</property>
  <property name="kdenlive:file_hash">1a54f5110a851002c396c7eebcd86bdb</property>
  <property name="meta.media.top_field_first">0</property>
  <property name="meta.media.progressive">1</property>
  <property name="global_feed">1</property>
 </producer>
 <producer id="producer38" in="00:00:00.000" out="00:01:09.133">
  <property name="length">2075</property>
  <property name="eof">pause</property>
  <property name="resource">/home/ryankelln/Documents/Projects/Active/Sound_Escapes/Mac/stories/summer_grass_aphantasia_4.mp4</property>
  <property name="audio_index">-1</property>
  <property name="video_index">0</property>
  <property name="mute_on_pause">0</property>
  <property name="mlt_service">avformat-novalidate</property>
  <property name="meta.media.nb_streams">1</property>
  <property name="meta.media.0.stream.type">video</property>
  <property name="meta.media.0.stream.frame_rate">25</property>
  <property name="meta.media.0.stream.sample_aspect_ratio">1</property>
  <property name="meta.media.0.codec.width">1920</property>
  <property name="meta.media.0.codec.height">1080</property>
  <property name="meta.media.0.codec.rotate">0</property>
  <property name="meta.media.0.codec.frame_rate">25</property>
  <property name="meta.media.0.codec.pix_fmt">yuvj420p</property>
  <property name="meta.media.0.codec.sample_aspect_ratio">1</property>
  <property name="meta.media.0.codec.colorspace">601</property>
  <property name="meta.media.0.codec.name">h264</property>
  <property name="meta.media.0.codec.long_name">H.264 / AVC / MPEG-4 AVC / MPEG-4 part 10</property>
  <property name="meta.media.0.codec.bit_rate">11483024</property>
  <property name="meta.attr.0.stream.handler_name.markup">VideoHandler</property>
  <property name="meta.attr.0.stream.vendor_id.markup">[0][0][0][0]</property>
  <property name="meta.attr.major_brand.markup">isom</property>
  <property name="meta.attr.minor_version.markup">512</property>
  <property name="meta.attr.compatible_brands.markup">isomiso2avc1mp41</property>
  <property name="meta.attr.encoder.markup">Lavf58.76.100</property>
  <property name="seekable">1</property>
  <property name="meta.media.sample_aspect_num">1</property>
  <property name="meta.media.sample_aspect_den">1</property>
  <property name="aspect_ratio">1</property>
  <property name="kdenlive:clipname"/>
  <property name="kdenlive:folderid">63</property>
  <property name="meta.media.frame_rate_num">25</property>
  <property name="meta.media.frame_rate_den">1</property>
  <property name="meta.media.colorspace">601</property>
  <property name="meta.media.color_trc">2</property>
  <property name="meta.media.width">1920</property>
  <property name="meta.media.height">1080</property>
  <property name="meta.media.color_range">full</property>
  <property name="kdenlive:id">23</property>
  <property name="kdenlive:file_size">99284582</property>
  <property name="kdenlive:file_hash">0efd5bba5147fe1d4d33599c34bf62a0</property>
  <property name="meta.media.top_field_first">0</property>
  <property name="meta.media.progressive">1</property>
  <property name="global_feed">1</property>
  <property name="kdenlive:zone_in">125</property>
  <property name="kdenlive:zone_out">2060</property>
  <property name="kdenlive:clipzones">[
    {
        "in": 125,
        "name": "Zone 1",
        "out": 2060
    }
]
</property>
 </producer>
 <producer id="producer39" in="00:00:00.000" out="00:01:04.767">
  <property name="length">1944</property>
  <property name="eof">pause</property>
  <property name="resource">/home/ryankelln/Documents/Projects/Active/Sound_Escapes/Mac/stories/summer_grass_aphantasia_5.mp4</property>
  <property name="audio_index">-1</property>
  <property name="video_index">0</property>
  <property name="mute_on_pause">0</property>
  <property name="mlt_service">avformat-novalidate</property>
  <property name="meta.media.nb_streams">1</property>
  <property name="meta.media.0.stream.type">video</property>
  <property name="meta.media.0.stream.frame_rate">25</property>
  <property name="meta.media.0.stream.sample_aspect_ratio">1</property>
  <property name="meta.media.0.codec.width">1920</property>
  <property name="meta.media.0.codec.height">1080</property>
  <property name="meta.media.0.codec.rotate">0</property>
  <property name="meta.media.0.codec.frame_rate">25</property>
  <property name="meta.media.0.codec.pix_fmt">yuvj420p</property>
  <property name="meta.media.0.codec.sample_aspect_ratio">1</property>
  <property name="meta.media.0.codec.colorspace">601</property>
  <property name="meta.media.0.codec.name">h264</property>
  <property name="meta.media.0.codec.long_name">H.264 / AVC / MPEG-4 AVC / MPEG-4 part 10</property>
  <property name="meta.media.0.codec.bit_rate">11323000</property>
  <property name="meta.attr.0.stream.handler_name.markup">VideoHandler</property>
  <property name="meta.attr.0.stream.vendor_id.markup">[0][0][0][0]</property>
  <property name="meta.attr.major_brand.markup">isom</property>
  <property name="meta.attr.minor_version.markup">512</property>
  <property name="meta.attr.compatible_brands.markup">isomiso2avc1mp41</property>
  <property name="meta.attr.encoder.markup">Lavf58.76.100</property>
  <property name="seekable">1</property>
  <property name="meta.media.sample_aspect_num">1</property>
  <property name="meta.media.sample_aspect_den">1</property>
  <property name="aspect_ratio">1</property>
  <property name="kdenlive:clipname"/>
  <property name="kdenlive:folderid">63</property>
  <property name="meta.media.frame_rate_num">25</property>
  <property name="meta.media.frame_rate_den">1</property>
  <property name="meta.media.colorspace">601</property>
  <property name="meta.media.color_trc">2</property>
  <property name="meta.media.width">1920</property>
  <property name="meta.media.height">1080</property>
  <property name="meta.media.color_range">full</property>
  <property name="kdenlive:id">24</property>
  <property name="kdenlive:file_size">91728611</property>
  <property name="kdenlive:file_hash">4ae3e8ad715a0ff271fa122c32eb5343</property>
  <property name="meta.media.top_field_first">0</property>
  <property name="meta.media.progressive">1</property>
  <property name="global_feed">1</property>
 </producer>
 <producer id="producer40" in="00:00:00.000" out="00:05:25.733">
  <property name="length">9773</property>
  <property name="eof">pause</property>
  <property name="resource">/home/ryankelln/Documents/Projects/Active/Sound_Escapes/rehearsals/1/SoundEscapes_MacRehearsal1.mp3</property>
  <property name="meta.media.nb_streams">1</property>
  <property name="meta.media.0.stream.type">audio</property>
  <property name="meta.media.0.codec.sample_fmt">fltp</property>
  <property name="meta.media.0.codec.sample_rate">48000</property>
  <property name="meta.media.0.codec.channels">2</property>
  <property name="meta.media.0.codec.name">mp3float</property>
  <property name="meta.media.0.codec.long_name">MP3 (MPEG audio layer 3)</property>
  <property name="meta.media.0.codec.bit_rate">191083</property>
  <property name="meta.attr.0.stream.encoder.markup">LAME3.100</property>
  <property name="seekable">1</property>
  <property name="audio_index">0</property>
  <property name="video_index">-1</property>
  <property name="mute_on_pause">1</property>
  <property name="mlt_service">avformat</property>
  <property name="kdenlive:clipname"/>
  <property name="kdenlive:folderid">63</property>
  <property name="kdenlive:id">25</property>
  <property name="kdenlive:file_size">7781280</property>
  <property name="kdenlive:file_hash">9068d0ebc29c31607d2536dca469e9d4</property>
  <property name="kdenlive:audio_max">1</property>
  <property name="global_feed">1</property>
 </producer>
 <producer id="producer44" in="00:00:00.000" out="00:00:23.133">
  <property name="length">695</property>
  <property name="eof">pause</property>
  <property name="resource">/home/ryankelln/Documents/Projects/Active/Sound_Escapes/Mac/Siwash.mp4</property>
  <property name="audio_index">-1</property>
  <property name="video_index">0</property>
  <property name="mute_on_pause">0</property>
  <property name="mlt_service">avformat-novalidate</property>
  <property name="meta.media.nb_streams">1</property>
  <property name="meta.media.0.stream.type">video</property>
  <property name="meta.media.0.stream.frame_rate">24</property>
  <property name="meta.media.0.stream.sample_aspect_ratio">1</property>
  <property name="meta.media.0.codec.width">512</property>
  <property name="meta.media.0.codec.height">512</property>
  <property name="meta.media.0.codec.rotate">0</property>
  <property name="meta.media.0.codec.frame_rate">24</property>
  <property name="meta.media.0.codec.pix_fmt">yuv444p</property>
  <property name="meta.media.0.codec.sample_aspect_ratio">1</property>
  <property name="meta.media.0.codec.colorspace">601</property>
  <property name="meta.media.0.codec.name">h264</property>
  <property name="meta.media.0.codec.long_name">H.264 / AVC / MPEG-4 AVC / MPEG-4 part 10</property>
  <property name="meta.media.0.codec.bit_rate">2436206</property>
  <property name="meta.attr.0.stream.handler_name.markup">VideoHandler</property>
  <property name="meta.attr.0.stream.vendor_id.markup">[0][0][0][0]</property>
  <property name="meta.attr.major_brand.markup">isom</property>
  <property name="meta.attr.minor_version.markup">512</property>
  <property name="meta.attr.compatible_brands.markup">isomiso2avc1mp41</property>
  <property name="meta.attr.encoder.markup">Lavf58.45.100</property>
  <property name="seekable">1</property>
  <property name="meta.media.sample_aspect_num">1</property>
  <property name="meta.media.sample_aspect_den">1</property>
  <property name="aspect_ratio">1</property>
  <property name="kdenlive:clipname"/>
  <property name="kdenlive:folderid">63</property>
  <property name="meta.media.frame_rate_num">24</property>
  <property name="meta.media.frame_rate_den">1</property>
  <property name="meta.media.colorspace">601</property>
  <property name="meta.media.color_trc">2</property>
  <property name="meta.media.width">512</property>
  <property name="meta.media.height">512</property>
  <property name="meta.media.color_range">mpeg</property>
  <property name="kdenlive:id">26</property>
  <property name="kdenlive:file_size">7061591</property>
  <property name="kdenlive:file_hash">554bdb9effc384c67048d842ef3c8d32</property>
  <property name="meta.media.top_field_first">0</property>
  <property name="meta.media.progressive">1</property>
  <property name="global_feed">1</property>
 </producer>
 <producer id="producer47" in="00:00:00.000" out="00:00:17.533">
  <property name="length">527</property>
  <property name="eof">pause</property>
  <property name="resource">/home/ryankelln/Documents/Projects/Active/Sound_Escapes/Mac/footage/Drone Footage of Waves Rushing to the Shore - Copyright Free Reusable Stock Video HD-923JpepN7U4.mp4</property>
  <property name="audio_index">1</property>
  <property name="video_index">0</property>
  <property name="mute_on_pause">0</property>
  <property name="mlt_service">avformat-novalidate</property>
  <property name="meta.media.nb_streams">2</property>
  <property name="meta.media.0.stream.type">video</property>
  <property name="meta.media.0.stream.frame_rate">29.97</property>
  <property name="meta.media.0.stream.sample_aspect_ratio">1</property>
  <property name="meta.media.0.codec.width">1920</property>
  <property name="meta.media.0.codec.height">1080</property>
  <property name="meta.media.0.codec.rotate">0</property>
  <property name="meta.media.0.codec.frame_rate">29.97</property>
  <property name="meta.media.0.codec.pix_fmt">yuv420p</property>
  <property name="meta.media.0.codec.sample_aspect_ratio">1</property>
  <property name="meta.media.0.codec.colorspace">709</property>
  <property name="meta.media.0.codec.color_trc">1</property>
  <property name="meta.media.0.codec.name">h264</property>
  <property name="meta.media.0.codec.long_name">H.264 / AVC / MPEG-4 AVC / MPEG-4 part 10</property>
  <property name="meta.media.0.codec.bit_rate">4671311</property>
  <property name="meta.attr.0.stream.handler_name.markup">ISO Media file produced by Google Inc.</property>
  <property name="meta.attr.0.stream.vendor_id.markup">[0][0][0][0]</property>
  <property name="meta.media.1.stream.type">audio</property>
  <property name="meta.media.1.codec.sample_fmt">fltp</property>
  <property name="meta.media.1.codec.sample_rate">44100</property>
  <property name="meta.media.1.codec.channels">2</property>
  <property name="meta.media.1.codec.name">aac</property>
  <property name="meta.media.1.codec.long_name">AAC (Advanced Audio Coding)</property>
  <property name="meta.media.1.codec.bit_rate">127999</property>
  <property name="meta.attr.1.stream.handler_name.markup">ISO Media file produced by Google Inc.</property>
  <property name="meta.attr.1.stream.vendor_id.markup">[0][0][0][0]</property>
  <property name="meta.attr.major_brand.markup">isom</property>
  <property name="meta.attr.minor_version.markup">512</property>
  <property name="meta.attr.compatible_brands.markup">isomiso2avc1mp41</property>
  <property name="meta.attr.encoder.markup">Lavf58.45.100</property>
  <property name="seekable">1</property>
  <property name="meta.media.sample_aspect_num">1</property>
  <property name="meta.media.sample_aspect_den">1</property>
  <property name="aspect_ratio">1</property>
  <property name="kdenlive:clipname"/>
  <property name="kdenlive:folderid">63</property>
  <property name="meta.media.frame_rate_num">30000</property>
  <property name="meta.media.frame_rate_den">1001</property>
  <property name="meta.media.colorspace">709</property>
  <property name="meta.media.color_trc">1</property>
  <property name="meta.media.width">1920</property>
  <property name="meta.media.height">1080</property>
  <property name="meta.media.color_range">mpeg</property>
  <property name="kdenlive:id">27</property>
  <property name="kdenlive:file_size">10528370</property>
  <property name="kdenlive:file_hash">a6db6e9a56c67bc34e9222b1f2f66552</property>
  <property name="kdenlive:audio_max">91</property>
  <property name="meta.media.top_field_first">0</property>
  <property name="meta.media.progressive">1</property>
  <property name="global_feed">1</property>
  <property name="kdenlive:active_streams">-1</property>
 </producer>
 <producer id="producer48" in="00:00:00.000" out="00:00:10.433">
  <property name="length">314</property>
  <property name="eof">pause</property>
  <property name="resource">/home/ryankelln/Documents/Projects/Active/Sound_Escapes/Mac/footage/Thunder - Copyright Free Reusable Stock Video HD-03m4TpKUI0A.mkv</property>
  <property name="audio_index">1</property>
  <property name="video_index">0</property>
  <property name="mute_on_pause">0</property>
  <property name="mlt_service">avformat-novalidate</property>
  <property name="meta.media.nb_streams">2</property>
  <property name="meta.media.0.stream.type">video</property>
  <property name="meta.media.0.stream.frame_rate">29.97</property>
  <property name="meta.media.0.stream.sample_aspect_ratio">1</property>
  <property name="meta.media.0.codec.width">1920</property>
  <property name="meta.media.0.codec.height">1080</property>
  <property name="meta.media.0.codec.rotate">0</property>
  <property name="meta.media.0.codec.frame_rate">1000</property>
  <property name="meta.media.0.codec.pix_fmt">yuv420p</property>
  <property name="meta.media.0.codec.sample_aspect_ratio">0</property>
  <property name="meta.media.0.codec.colorspace">709</property>
  <property name="meta.media.0.codec.name">vp9</property>
  <property name="meta.media.0.codec.long_name">Google VP9</property>
  <property name="meta.media.0.codec.bit_rate">0</property>
  <property name="meta.attr.0.stream.language.markup">eng</property>
  <property name="meta.attr.0.stream.DURATION.markup">00:00:10.410000000</property>
  <property name="meta.media.1.stream.type">audio</property>
  <property name="meta.media.1.codec.sample_fmt">fltp</property>
  <property name="meta.media.1.codec.sample_rate">44100</property>
  <property name="meta.media.1.codec.channels">2</property>
  <property name="meta.media.1.codec.name">aac</property>
  <property name="meta.media.1.codec.long_name">AAC (Advanced Audio Coding)</property>
  <property name="meta.media.1.codec.bit_rate">0</property>
  <property name="meta.attr.1.stream.HANDLER_NAME.markup">ISO Media file produced by Google Inc.</property>
  <property name="meta.attr.1.stream.DURATION.markup">00:00:10.472000000</property>
  <property name="meta.attr.HTTP://YOUTUBE.COM/STREAMING/OTF/DURATIONS/112015.markup">Segment-Count: 2&#xd;
Segment-Durations-Ms: 5339,5072,&#xd;
&#xd;
</property>
  <property name="meta.attr.ENCODER.markup">Lavf58.45.100</property>
  <property name="seekable">1</property>
  <property name="meta.media.sample_aspect_num">1</property>
  <property name="meta.media.sample_aspect_den">1</property>
  <property name="aspect_ratio">1</property>
  <property name="kdenlive:clipname"/>
  <property name="kdenlive:folderid">63</property>
  <property name="meta.media.frame_rate_num">30000</property>
  <property name="meta.media.frame_rate_den">1001</property>
  <property name="meta.media.colorspace">709</property>
  <property name="meta.media.color_trc">2</property>
  <property name="meta.media.width">1920</property>
  <property name="meta.media.height">1080</property>
  <property name="meta.media.color_range">mpeg</property>
  <property name="kdenlive:id">28</property>
  <property name="kdenlive:file_size">1410300</property>
  <property name="kdenlive:file_hash">29f80f3da10626e5777f357644f79843</property>
  <property name="kdenlive:audio_max">91</property>
  <property name="meta.media.top_field_first">0</property>
  <property name="meta.media.progressive">1</property>
  <property name="global_feed">1</property>
  <property name="kdenlive:active_streams">-1</property>
 </producer>
 <producer id="producer49" in="00:00:00.000" out="00:00:44.833">
  <property name="length">1346</property>
  <property name="eof">pause</property>
  <property name="resource">/home/ryankelln/Documents/Projects/Active/Sound_Escapes/Mac/footage/Cell through Microscope Free Footage Clip-_Rww1olT3HA.mkv</property>
  <property name="audio_index">1</property>
  <property name="video_index">0</property>
  <property name="mute_on_pause">0</property>
  <property name="mlt_service">avformat-novalidate</property>
  <property name="meta.media.nb_streams">2</property>
  <property name="meta.media.0.stream.type">video</property>
  <property name="meta.media.0.stream.frame_rate">30</property>
  <property name="meta.media.0.stream.sample_aspect_ratio">1</property>
  <property name="meta.media.0.codec.width">1280</property>
  <property name="meta.media.0.codec.height">720</property>
  <property name="meta.media.0.codec.rotate">0</property>
  <property name="meta.media.0.codec.frame_rate">1000</property>
  <property name="meta.media.0.codec.pix_fmt">yuv420p</property>
  <property name="meta.media.0.codec.sample_aspect_ratio">0</property>
  <property name="meta.media.0.codec.colorspace">709</property>
  <property name="meta.media.0.codec.name">vp9</property>
  <property name="meta.media.0.codec.long_name">Google VP9</property>
  <property name="meta.media.0.codec.bit_rate">0</property>
  <property name="meta.attr.0.stream.language.markup">eng</property>
  <property name="meta.attr.0.stream.DURATION.markup">00:00:44.800000000</property>
  <property name="meta.media.1.stream.type">audio</property>
  <property name="meta.media.1.codec.sample_fmt">fltp</property>
  <property name="meta.media.1.codec.sample_rate">44100</property>
  <property name="meta.media.1.codec.channels">2</property>
  <property name="meta.media.1.codec.name">aac</property>
  <property name="meta.media.1.codec.long_name">AAC (Advanced Audio Coding)</property>
  <property name="meta.media.1.codec.bit_rate">0</property>
  <property name="meta.attr.1.stream.language.markup">eng</property>
  <property name="meta.attr.1.stream.HANDLER_NAME.markup">ISO Media file produced by Google Inc.</property>
  <property name="meta.attr.1.stream.DURATION.markup">00:00:44.861000000</property>
  <property name="meta.attr.HTTP://YOUTUBE.COM/STREAMING/OTF/DURATIONS/112015.markup">Segment-Count: 9&#xd;
Segment-Durations-Ms: 5333,5334,5333(r=1),5334,5333(r=1),5334,2133,&#xd;
&#xd;
</property>
  <property name="meta.attr.ENCODER.markup">Lavf58.45.100</property>
  <property name="seekable">1</property>
  <property name="meta.media.sample_aspect_num">1</property>
  <property name="meta.media.sample_aspect_den">1</property>
  <property name="aspect_ratio">1</property>
  <property name="kdenlive:clipname"/>
  <property name="kdenlive:folderid">63</property>
  <property name="meta.media.frame_rate_num">30</property>
  <property name="meta.media.frame_rate_den">1</property>
  <property name="meta.media.colorspace">709</property>
  <property name="meta.media.color_trc">2</property>
  <property name="meta.media.width">1280</property>
  <property name="meta.media.height">720</property>
  <property name="meta.media.color_range">mpeg</property>
  <property name="kdenlive:id">29</property>
  <property name="kdenlive:file_size">5481224</property>
  <property name="kdenlive:file_hash">d36267c91a7a07d4705900c3d4f90169</property>
  <property name="kdenlive:audio_max">91</property>
  <property name="meta.media.top_field_first">0</property>
  <property name="meta.media.progressive">1</property>
  <property name="kdenlive:zone_in">954</property>
  <property name="kdenlive:zone_out">1152</property>
  <property name="kdenlive:clipzones">[
    {
        "in": 0,
        "name": "Zone 1",
        "out": 895
    },
    {
        "in": 954,
        "name": "Zone 2",
        "out": 1152
    }
]
</property>
  <property name="global_feed">1</property>
  <property name="kdenlive:active_streams">-1</property>
 </producer>
 <producer id="producer50" in="00:00:00.000" out="00:00:27.400">
  <property name="length">823</property>
  <property name="eof">pause</property>
  <property name="resource">/home/ryankelln/Documents/Projects/Active/Sound_Escapes/Mac/footage/Massive Sun Free Footage Video-Sl457JKlyX8.mkv</property>
  <property name="audio_index">1</property>
  <property name="video_index">0</property>
  <property name="mute_on_pause">0</property>
  <property name="mlt_service">avformat-novalidate</property>
  <property name="meta.media.nb_streams">2</property>
  <property name="meta.media.0.stream.type">video</property>
  <property name="meta.media.0.stream.frame_rate">25</property>
  <property name="meta.media.0.stream.sample_aspect_ratio">1</property>
  <property name="meta.media.0.codec.width">1280</property>
  <property name="meta.media.0.codec.height">720</property>
  <property name="meta.media.0.codec.rotate">0</property>
  <property name="meta.media.0.codec.frame_rate">1000</property>
  <property name="meta.media.0.codec.pix_fmt">yuv420p</property>
  <property name="meta.media.0.codec.sample_aspect_ratio">0</property>
  <property name="meta.media.0.codec.colorspace">709</property>
  <property name="meta.media.0.codec.name">vp9</property>
  <property name="meta.media.0.codec.long_name">Google VP9</property>
  <property name="meta.media.0.codec.bit_rate">0</property>
  <property name="meta.attr.0.stream.language.markup">eng</property>
  <property name="meta.attr.0.stream.DURATION.markup">00:00:27.360000000</property>
  <property name="meta.media.1.stream.type">audio</property>
  <property name="meta.media.1.codec.sample_fmt">fltp</property>
  <property name="meta.media.1.codec.sample_rate">44100</property>
  <property name="meta.media.1.codec.channels">2</property>
  <property name="meta.media.1.codec.name">aac</property>
  <property name="meta.media.1.codec.long_name">AAC (Advanced Audio Coding)</property>
  <property name="meta.media.1.codec.bit_rate">0</property>
  <property name="meta.attr.1.stream.language.markup">eng</property>
  <property name="meta.attr.1.stream.HANDLER_NAME.markup">ISO Media file produced by Google Inc.</property>
  <property name="meta.attr.1.stream.DURATION.markup">00:00:27.423000000</property>
  <property name="meta.attr.HTTP://YOUTUBE.COM/STREAMING/OTF/DURATIONS/112015.markup">Segment-Count: 6&#xd;
Segment-Durations-Ms: 5120(r=4),1760,&#xd;
&#xd;
</property>
  <property name="meta.attr.ENCODER.markup">Lavf58.45.100</property>
  <property name="seekable">1</property>
  <property name="meta.media.sample_aspect_num">1</property>
  <property name="meta.media.sample_aspect_den">1</property>
  <property name="aspect_ratio">1</property>
  <property name="kdenlive:clipname"/>
  <property name="kdenlive:folderid">63</property>
  <property name="meta.media.frame_rate_num">25</property>
  <property name="meta.media.frame_rate_den">1</property>
  <property name="meta.media.colorspace">709</property>
  <property name="meta.media.color_trc">2</property>
  <property name="meta.media.width">1280</property>
  <property name="meta.media.height">720</property>
  <property name="meta.media.color_range">mpeg</property>
  <property name="kdenlive:id">30</property>
  <property name="kdenlive:file_size">3593165</property>
  <property name="kdenlive:file_hash">8f9fb0d8b60aea0907ba0ef63aaf5add</property>
  <property name="kdenlive:audio_max">91</property>
  <property name="meta.media.top_field_first">0</property>
  <property name="meta.media.progressive">1</property>
  <property name="global_feed">1</property>
  <property name="kdenlive:active_streams">-1</property>
  <property name="kdenlive:zone_in">263</property>
  <property name="kdenlive:zone_out">460</property>
  <property name="kdenlive:clipzones">[
    {
        "in": 263,
        "name": "Zone 2",
        "out": 460
    }
]
</property>
 </producer>
 <producer id="producer26" in="00:00:00.000" out="00:07:11.767">
  <property name="length">12954</property>
  <property name="eof">pause</property>
  <property name="resource">20210602_SpectrumMusic-SoundEscapes-Mac EDIT1.wav</property>
  <property name="meta.media.nb_streams">1</property>
  <property name="meta.media.0.stream.type">audio</property>
  <property name="meta.media.0.codec.sample_fmt">s32</property>
  <property name="meta.media.0.codec.sample_rate">48000</property>
  <property name="meta.media.0.codec.channels">2</property>
  <property name="meta.media.0.codec.name">pcm_s24le</property>
  <property name="meta.media.0.codec.long_name">PCM signed 24-bit little-endian</property>
  <property name="meta.media.0.codec.bit_rate">2304000</property>
  <property name="meta.attr.encoded_by.markup">Pro Tools</property>
  <property name="meta.attr.originator_reference.markup">aui8NdZasvRk</property>
  <property name="meta.attr.date.markup">2021-06-11</property>
  <property name="meta.attr.creation_time.markup">12:59:55</property>
  <property name="meta.attr.time_reference.markup">91273370</property>
  <property name="meta.attr.umid.markup">0x060A2B340101010501010F1013000000B5520330E7F08500D4B7005056C00001</property>
  <property name="seekable">1</property>
  <property name="audio_index">0</property>
  <property name="video_index">-1</property>
  <property name="mute_on_pause">1</property>
  <property name="mlt_service">avformat</property>
  <property name="kdenlive:clipname"/>
  <property name="kdenlive:folderid">-1</property>
  <property name="kdenlive:id">31</property>
  <property name="kdenlive:file_size">125017670</property>
  <property name="kdenlive:file_hash">a0cb16de5cfde151f2b8650533f64d21</property>
  <property name="kdenlive:audio_max">1</property>
  <property name="global_feed">1</property>
 </producer>
 <producer id="producer27" in="00:00:00.000" out="00:04:53.133">
  <property name="length">8795</property>
  <property name="eof">pause</property>
  <property name="resource">content/musicians/2021-06-02_155932_Sarah_kit+handheld_mac-take2_from_section2.mp4</property>
  <property name="audio_index">1</property>
  <property name="video_index">0</property>
  <property name="mute_on_pause">0</property>
  <property name="mlt_service">avformat-novalidate</property>
  <property name="meta.media.nb_streams">2</property>
  <property name="meta.media.0.stream.type">video</property>
  <property name="meta.media.0.stream.frame_rate">59.9401</property>
  <property name="meta.media.0.stream.sample_aspect_ratio">1</property>
  <property name="meta.media.0.codec.width">1920</property>
  <property name="meta.media.0.codec.height">1080</property>
  <property name="meta.media.0.codec.rotate">0</property>
  <property name="meta.media.0.codec.frame_rate">59.9401</property>
  <property name="meta.media.0.codec.pix_fmt">yuv420p</property>
  <property name="meta.media.0.codec.sample_aspect_ratio">1</property>
  <property name="meta.media.0.codec.colorspace">709</property>
  <property name="meta.media.0.codec.name">h264</property>
  <property name="meta.media.0.codec.long_name">H.264 / AVC / MPEG-4 AVC / MPEG-4 part 10</property>
  <property name="meta.media.0.codec.bit_rate">24976885</property>
  <property name="meta.attr.0.stream.handler_name.markup">VideoHandler</property>
  <property name="meta.media.1.stream.type">audio</property>
  <property name="meta.media.1.codec.sample_fmt">fltp</property>
  <property name="meta.media.1.codec.sample_rate">48000</property>
  <property name="meta.media.1.codec.channels">6</property>
  <property name="meta.media.1.codec.name">ac3</property>
  <property name="meta.media.1.codec.long_name">ATSC A/52A (AC-3)</property>
  <property name="meta.media.1.codec.bit_rate">448000</property>
  <property name="meta.attr.1.stream.handler_name.markup">SoundHandler</property>
  <property name="meta.attr.major_brand.markup">isom</property>
  <property name="meta.attr.minor_version.markup">512</property>
  <property name="meta.attr.compatible_brands.markup">isomiso2avc1mp41</property>
  <property name="meta.attr.encoder.markup">Lavf58.45.100</property>
  <property name="seekable">1</property>
  <property name="meta.media.sample_aspect_num">1</property>
  <property name="meta.media.sample_aspect_den">1</property>
  <property name="aspect_ratio">1</property>
  <property name="kdenlive:clipname"/>
  <property name="kdenlive:folderid">65</property>
  <property name="meta.media.frame_rate_num">1577610000</property>
  <property name="meta.media.frame_rate_den">26319793</property>
  <property name="meta.media.colorspace">709</property>
  <property name="meta.media.color_trc">2</property>
  <property name="meta.media.width">1920</property>
  <property name="meta.media.height">1080</property>
  <property name="meta.media.color_range">mpeg</property>
  <property name="kdenlive:id">32</property>
  <property name="kdenlive:file_size">929758399</property>
  <property name="kdenlive:file_hash">09da2a0eb79256ea5bbec7651979130e</property>
  <property name="kdenlive:audio_max">3</property>
  <property name="meta.media.top_field_first">0</property>
  <property name="meta.media.progressive">1</property>
  <property name="global_feed">1</property>
 </producer>
 <producer id="producer28" in="00:00:00.000" out="00:02:03.400">
  <property name="length">3703</property>
  <property name="eof">pause</property>
  <property name="resource">content/musicians/2021-06-02_160526_Sarah_kit+handheld_mac-take3_end.mp4</property>
  <property name="audio_index">1</property>
  <property name="video_index">0</property>
  <property name="mute_on_pause">0</property>
  <property name="mlt_service">avformat-novalidate</property>
  <property name="meta.media.nb_streams">2</property>
  <property name="meta.media.0.stream.type">video</property>
  <property name="meta.media.0.stream.frame_rate">59.9401</property>
  <property name="meta.media.0.stream.sample_aspect_ratio">1</property>
  <property name="meta.media.0.codec.width">1920</property>
  <property name="meta.media.0.codec.height">1080</property>
  <property name="meta.media.0.codec.rotate">0</property>
  <property name="meta.media.0.codec.frame_rate">59.9401</property>
  <property name="meta.media.0.codec.pix_fmt">yuv420p</property>
  <property name="meta.media.0.codec.sample_aspect_ratio">1</property>
  <property name="meta.media.0.codec.colorspace">709</property>
  <property name="meta.media.0.codec.name">h264</property>
  <property name="meta.media.0.codec.long_name">H.264 / AVC / MPEG-4 AVC / MPEG-4 part 10</property>
  <property name="meta.media.0.codec.bit_rate">24967733</property>
  <property name="meta.attr.0.stream.handler_name.markup">VideoHandler</property>
  <property name="meta.media.1.stream.type">audio</property>
  <property name="meta.media.1.codec.sample_fmt">fltp</property>
  <property name="meta.media.1.codec.sample_rate">48000</property>
  <property name="meta.media.1.codec.channels">6</property>
  <property name="meta.media.1.codec.name">ac3</property>
  <property name="meta.media.1.codec.long_name">ATSC A/52A (AC-3)</property>
  <property name="meta.media.1.codec.bit_rate">448000</property>
  <property name="meta.attr.1.stream.handler_name.markup">SoundHandler</property>
  <property name="meta.attr.major_brand.markup">isom</property>
  <property name="meta.attr.minor_version.markup">512</property>
  <property name="meta.attr.compatible_brands.markup">isomiso2avc1mp41</property>
  <property name="meta.attr.encoder.markup">Lavf58.45.100</property>
  <property name="seekable">1</property>
  <property name="meta.media.sample_aspect_num">1</property>
  <property name="meta.media.sample_aspect_den">1</property>
  <property name="aspect_ratio">1</property>
  <property name="kdenlive:clipname"/>
  <property name="kdenlive:folderid">65</property>
  <property name="meta.media.frame_rate_num">661320000</property>
  <property name="meta.media.frame_rate_den">11033021</property>
  <property name="meta.media.colorspace">709</property>
  <property name="meta.media.color_trc">2</property>
  <property name="meta.media.width">1920</property>
  <property name="meta.media.height">1080</property>
  <property name="meta.media.color_range">mpeg</property>
  <property name="kdenlive:id">33</property>
  <property name="kdenlive:file_size">389637058</property>
  <property name="kdenlive:file_hash">2d6ee61718869f81d2ba70da572529df</property>
  <property name="kdenlive:audio_max">4</property>
  <property name="meta.media.top_field_first">0</property>
  <property name="meta.media.progressive">1</property>
  <property name="global_feed">1</property>
 </producer>
 <producer id="producer29" in="00:00:00.000" out="00:02:43.867">
  <property name="length">4917</property>
  <property name="eof">pause</property>
  <property name="resource">content/musicians/2021-06-02_07-59-19_Sarah_kit_mac_MVI_6068-take1.MP4</property>
  <property name="audio_index">1</property>
  <property name="video_index">0</property>
  <property name="mute_on_pause">0</property>
  <property name="mlt_service">avformat-novalidate</property>
  <property name="meta.media.nb_streams">2</property>
  <property name="meta.media.0.stream.type">video</property>
  <property name="meta.media.0.stream.frame_rate">29.97</property>
  <property name="meta.media.0.stream.sample_aspect_ratio">0</property>
  <property name="meta.media.0.codec.width">1920</property>
  <property name="meta.media.0.codec.height">1080</property>
  <property name="meta.media.0.codec.rotate">0</property>
  <property name="meta.media.0.codec.frame_rate">30000</property>
  <property name="meta.media.0.codec.pix_fmt">yuvj420p</property>
  <property name="meta.media.0.codec.sample_aspect_ratio">0</property>
  <property name="meta.media.0.codec.colorspace">709</property>
  <property name="meta.media.0.codec.color_trc">1</property>
  <property name="meta.media.0.codec.name">h264</property>
  <property name="meta.media.0.codec.long_name">H.264 / AVC / MPEG-4 AVC / MPEG-4 part 10</property>
  <property name="meta.media.0.codec.bit_rate">29860072</property>
  <property name="meta.attr.0.stream.creation_time.markup">2021-06-02T07:59:19.000000Z</property>
  <property name="meta.attr.0.stream.language.markup">eng</property>
  <property name="meta.attr.0.stream.handler_name.markup">VideoHandler</property>
  <property name="meta.media.1.stream.type">audio</property>
  <property name="meta.media.1.codec.sample_fmt">fltp</property>
  <property name="meta.media.1.codec.sample_rate">48000</property>
  <property name="meta.media.1.codec.channels">2</property>
  <property name="meta.media.1.codec.name">aac</property>
  <property name="meta.media.1.codec.long_name">AAC (Advanced Audio Coding)</property>
  <property name="meta.media.1.codec.bit_rate">254996</property>
  <property name="meta.attr.1.stream.creation_time.markup">2021-06-02T07:59:19.000000Z</property>
  <property name="meta.attr.1.stream.language.markup">eng</property>
  <property name="meta.attr.1.stream.handler_name.markup">SoundHandler</property>
  <property name="meta.attr.major_brand.markup">isom</property>
  <property name="meta.attr.minor_version.markup">512</property>
  <property name="meta.attr.compatible_brands.markup">isomiso2avc1mp41</property>
  <property name="meta.attr.creation_time.markup">2021-06-02T07:59:19.000000Z</property>
  <property name="meta.attr.encoder.markup">Lavf58.45.100</property>
  <property name="seekable">1</property>
  <property name="meta.media.sample_aspect_num">1</property>
  <property name="meta.media.sample_aspect_den">1</property>
  <property name="aspect_ratio">1</property>
  <property name="kdenlive:clipname"/>
  <property name="kdenlive:folderid">65</property>
  <property name="meta.media.frame_rate_num">30000</property>
  <property name="meta.media.frame_rate_den">1001</property>
  <property name="meta.media.colorspace">709</property>
  <property name="meta.media.color_trc">1</property>
  <property name="meta.media.width">1920</property>
  <property name="meta.media.height">1080</property>
  <property name="meta.media.color_range">full</property>
  <property name="kdenlive:id">34</property>
  <property name="kdenlive:file_size">617146523</property>
  <property name="kdenlive:file_hash">afac6fb3f60872e9d4bce991c8ada7f7</property>
  <property name="kdenlive:audio_max">1</property>
  <property name="meta.media.top_field_first">0</property>
  <property name="meta.media.progressive">1</property>
  <property name="global_feed">1</property>
 </producer>
 <producer id="producer54" in="00:00:00.000" out="00:03:09.233">
  <property name="length">5678</property>
  <property name="eof">pause</property>
  <property name="resource">content/musicians/2021-06-02_Sarah_kit_mac_00048-take1_beginnng.mp4</property>
  <property name="audio_index">1</property>
  <property name="video_index">0</property>
  <property name="mute_on_pause">0</property>
  <property name="mlt_service">avformat-novalidate</property>
  <property name="meta.media.nb_streams">2</property>
  <property name="meta.media.0.stream.type">video</property>
  <property name="meta.media.0.stream.frame_rate">59.9401</property>
  <property name="meta.media.0.stream.sample_aspect_ratio">1.33333</property>
  <property name="meta.media.0.codec.width">1440</property>
  <property name="meta.media.0.codec.height">1080</property>
  <property name="meta.media.0.codec.rotate">0</property>
  <property name="meta.media.0.codec.frame_rate">29.97</property>
  <property name="meta.media.0.codec.pix_fmt">yuv420p</property>
  <property name="meta.media.0.codec.sample_aspect_ratio">1.33333</property>
  <property name="meta.media.0.codec.colorspace">709</property>
  <property name="meta.media.0.codec.name">h264</property>
  <property name="meta.media.0.codec.long_name">H.264 / AVC / MPEG-4 AVC / MPEG-4 part 10</property>
  <property name="meta.media.0.codec.bit_rate">6693839</property>
  <property name="meta.attr.0.stream.handler_name.markup">VideoHandler</property>
  <property name="meta.media.1.stream.type">audio</property>
  <property name="meta.media.1.codec.sample_fmt">fltp</property>
  <property name="meta.media.1.codec.sample_rate">48000</property>
  <property name="meta.media.1.codec.channels">2</property>
  <property name="meta.media.1.codec.name">ac3</property>
  <property name="meta.media.1.codec.long_name">ATSC A/52A (AC-3)</property>
  <property name="meta.media.1.codec.bit_rate">256000</property>
  <property name="meta.attr.1.stream.handler_name.markup">SoundHandler</property>
  <property name="meta.attr.major_brand.markup">isom</property>
  <property name="meta.attr.minor_version.markup">512</property>
  <property name="meta.attr.compatible_brands.markup">isomiso2avc1mp41</property>
  <property name="meta.attr.encoder.markup">Lavf58.45.100</property>
  <property name="seekable">1</property>
  <property name="meta.media.sample_aspect_num">4</property>
  <property name="meta.media.sample_aspect_den">3</property>
  <property name="aspect_ratio">1.33333</property>
  <property name="kdenlive:clipname"/>
  <property name="kdenlive:folderid">65</property>
  <property name="meta.media.frame_rate_num">509355000</property>
  <property name="meta.media.frame_rate_den">8497739</property>
  <property name="meta.media.colorspace">709</property>
  <property name="meta.media.color_trc">2</property>
  <property name="meta.media.width">1440</property>
  <property name="meta.media.height">1080</property>
  <property name="meta.media.color_range">mpeg</property>
  <property name="kdenlive:id">35</property>
  <property name="kdenlive:file_size">164277639</property>
  <property name="kdenlive:file_hash">d78bfd8bc2452bdd5f256eab9325fb6d</property>
  <property name="kdenlive:audio_max">1</property>
  <property name="meta.media.top_field_first">1</property>
  <property name="meta.media.progressive">0</property>
  <property name="global_feed">1</property>
 </producer>
 <producer id="producer55" in="00:00:00.000" out="00:04:52.700">
  <property name="length">8782</property>
  <property name="eof">pause</property>
  <property name="resource">content/musicians/2021-06-02_Sarah_kit_mac_00048-take2_from14.mp4</property>
  <property name="audio_index">1</property>
  <property name="video_index">0</property>
  <property name="mute_on_pause">0</property>
  <property name="mlt_service">avformat-novalidate</property>
  <property name="meta.media.nb_streams">2</property>
  <property name="meta.media.0.stream.type">video</property>
  <property name="meta.media.0.stream.frame_rate">59.9401</property>
  <property name="meta.media.0.stream.sample_aspect_ratio">1.33333</property>
  <property name="meta.media.0.codec.width">1440</property>
  <property name="meta.media.0.codec.height">1080</property>
  <property name="meta.media.0.codec.rotate">0</property>
  <property name="meta.media.0.codec.frame_rate">29.97</property>
  <property name="meta.media.0.codec.pix_fmt">yuv420p</property>
  <property name="meta.media.0.codec.sample_aspect_ratio">1.33333</property>
  <property name="meta.media.0.codec.colorspace">709</property>
  <property name="meta.media.0.codec.name">h264</property>
  <property name="meta.media.0.codec.long_name">H.264 / AVC / MPEG-4 AVC / MPEG-4 part 10</property>
  <property name="meta.media.0.codec.bit_rate">6690719</property>
  <property name="meta.attr.0.stream.handler_name.markup">VideoHandler</property>
  <property name="meta.media.1.stream.type">audio</property>
  <property name="meta.media.1.codec.sample_fmt">fltp</property>
  <property name="meta.media.1.codec.sample_rate">48000</property>
  <property name="meta.media.1.codec.channels">2</property>
  <property name="meta.media.1.codec.name">ac3</property>
  <property name="meta.media.1.codec.long_name">ATSC A/52A (AC-3)</property>
  <property name="meta.media.1.codec.bit_rate">256000</property>
  <property name="meta.attr.1.stream.handler_name.markup">SoundHandler</property>
  <property name="meta.attr.major_brand.markup">isom</property>
  <property name="meta.attr.minor_version.markup">512</property>
  <property name="meta.attr.compatible_brands.markup">isomiso2avc1mp41</property>
  <property name="meta.attr.encoder.markup">Lavf58.45.100</property>
  <property name="seekable">1</property>
  <property name="meta.media.sample_aspect_num">4</property>
  <property name="meta.media.sample_aspect_den">3</property>
  <property name="aspect_ratio">1.33333</property>
  <property name="kdenlive:clipname"/>
  <property name="kdenlive:folderid">65</property>
  <property name="meta.media.frame_rate_num">60000</property>
  <property name="meta.media.frame_rate_den">1001</property>
  <property name="meta.media.colorspace">709</property>
  <property name="meta.media.color_trc">2</property>
  <property name="meta.media.width">1440</property>
  <property name="meta.media.height">1080</property>
  <property name="meta.media.color_range">mpeg</property>
  <property name="kdenlive:id">36</property>
  <property name="kdenlive:file_size">254454287</property>
  <property name="kdenlive:file_hash">1cc2880d6f1c485ab826f9cbb3cd87b3</property>
  <property name="kdenlive:audio_max">1</property>
  <property name="meta.media.top_field_first">1</property>
  <property name="meta.media.progressive">0</property>
  <property name="global_feed">1</property>
  <property name="kdenlive:activeeffect">-1</property>
 </producer>
 <producer id="producer53" in="00:00:00.000" out="00:02:02.533">
  <property name="length">3677</property>
  <property name="eof">pause</property>
  <property name="resource">content/musicians/2021-06-02_Sarah_kit_mac_00048-take3_end.mp4</property>
  <property name="audio_index">1</property>
  <property name="video_index">0</property>
  <property name="mute_on_pause">0</property>
  <property name="mlt_service">avformat-novalidate</property>
  <property name="meta.media.nb_streams">2</property>
  <property name="meta.media.0.stream.type">video</property>
  <property name="meta.media.0.stream.frame_rate">59.9401</property>
  <property name="meta.media.0.stream.sample_aspect_ratio">1.33333</property>
  <property name="meta.media.0.codec.width">1440</property>
  <property name="meta.media.0.codec.height">1080</property>
  <property name="meta.media.0.codec.rotate">0</property>
  <property name="meta.media.0.codec.frame_rate">29.97</property>
  <property name="meta.media.0.codec.pix_fmt">yuv420p</property>
  <property name="meta.media.0.codec.sample_aspect_ratio">1.33333</property>
  <property name="meta.media.0.codec.colorspace">709</property>
  <property name="meta.media.0.codec.name">h264</property>
  <property name="meta.media.0.codec.long_name">H.264 / AVC / MPEG-4 AVC / MPEG-4 part 10</property>
  <property name="meta.media.0.codec.bit_rate">6693721</property>
  <property name="meta.attr.0.stream.handler_name.markup">VideoHandler</property>
  <property name="meta.media.1.stream.type">audio</property>
  <property name="meta.media.1.codec.sample_fmt">fltp</property>
  <property name="meta.media.1.codec.sample_rate">48000</property>
  <property name="meta.media.1.codec.channels">2</property>
  <property name="meta.media.1.codec.name">ac3</property>
  <property name="meta.media.1.codec.long_name">ATSC A/52A (AC-3)</property>
  <property name="meta.media.1.codec.bit_rate">256000</property>
  <property name="meta.attr.1.stream.handler_name.markup">SoundHandler</property>
  <property name="meta.attr.major_brand.markup">isom</property>
  <property name="meta.attr.minor_version.markup">512</property>
  <property name="meta.attr.compatible_brands.markup">isomiso2avc1mp41</property>
  <property name="meta.attr.encoder.markup">Lavf58.45.100</property>
  <property name="seekable">1</property>
  <property name="meta.media.sample_aspect_num">4</property>
  <property name="meta.media.sample_aspect_den">3</property>
  <property name="aspect_ratio">1.33333</property>
  <property name="kdenlive:clipname"/>
  <property name="kdenlive:folderid">65</property>
  <property name="meta.media.frame_rate_num">659250000</property>
  <property name="meta.media.frame_rate_den">10998487</property>
  <property name="meta.media.colorspace">709</property>
  <property name="meta.media.color_trc">2</property>
  <property name="meta.media.width">1440</property>
  <property name="meta.media.height">1080</property>
  <property name="meta.media.color_range">mpeg</property>
  <property name="kdenlive:id">37</property>
  <property name="kdenlive:file_size">106278992</property>
  <property name="kdenlive:file_hash">aeb2276b65c072705937c66678af8033</property>
  <property name="kdenlive:audio_max">1</property>
  <property name="meta.media.top_field_first">1</property>
  <property name="meta.media.progressive">0</property>
  <property name="global_feed">1</property>
 </producer>
 <producer id="producer56" in="00:00:00.000" out="00:02:27.067">
  <property name="length">4413</property>
  <property name="eof">pause</property>
  <property name="resource">content/musicians/2021-06-02_Caleb+Chris_electric+piano+handheld_mac_MVI_6000-take2_piano_entry.mkv</property>
  <property name="audio_index">1</property>
  <property name="video_index">0</property>
  <property name="mute_on_pause">0</property>
  <property name="mlt_service">avformat-novalidate</property>
  <property name="meta.media.nb_streams">2</property>
  <property name="meta.media.0.stream.type">video</property>
  <property name="meta.media.0.stream.frame_rate">29.97</property>
  <property name="meta.media.0.stream.sample_aspect_ratio">0</property>
  <property name="meta.media.0.codec.width">1920</property>
  <property name="meta.media.0.codec.height">1080</property>
  <property name="meta.media.0.codec.rotate">0</property>
  <property name="meta.media.0.codec.frame_rate">1000</property>
  <property name="meta.media.0.codec.pix_fmt">yuvj420p</property>
  <property name="meta.media.0.codec.sample_aspect_ratio">0</property>
  <property name="meta.media.0.codec.colorspace">601</property>
  <property name="meta.media.0.codec.color_trc">1</property>
  <property name="meta.media.0.codec.name">h264</property>
  <property name="meta.media.0.codec.long_name">H.264 / AVC / MPEG-4 AVC / MPEG-4 part 10</property>
  <property name="meta.media.0.codec.bit_rate">0</property>
  <property name="meta.attr.0.stream.language.markup">eng</property>
  <property name="meta.attr.0.stream.DURATION.markup">00:02:27.090000000</property>
  <property name="meta.media.1.stream.type">audio</property>
  <property name="meta.media.1.codec.sample_fmt">s16</property>
  <property name="meta.media.1.codec.sample_rate">48000</property>
  <property name="meta.media.1.codec.channels">2</property>
  <property name="meta.media.1.codec.name">pcm_s16le</property>
  <property name="meta.media.1.codec.long_name">PCM signed 16-bit little-endian</property>
  <property name="meta.media.1.codec.bit_rate">1536000</property>
  <property name="meta.attr.1.stream.language.markup">eng</property>
  <property name="meta.attr.1.stream.DURATION.markup">00:02:27.083000000</property>
  <property name="meta.attr.COMPATIBLE_BRANDS.markup">qt  CAEP</property>
  <property name="meta.attr.creation_time.markup">2021-06-02T15:54:00.000000Z</property>
  <property name="meta.attr.MAJOR_BRAND.markup">qt  </property>
  <property name="meta.attr.MINOR_VERSION.markup">537331968</property>
  <property name="meta.attr.ENCODER.markup">Lavf58.45.100</property>
  <property name="seekable">1</property>
  <property name="meta.media.sample_aspect_num">1</property>
  <property name="meta.media.sample_aspect_den">1</property>
  <property name="aspect_ratio">1</property>
  <property name="kdenlive:clipname"/>
  <property name="kdenlive:folderid">65</property>
  <property name="meta.media.frame_rate_num">30000</property>
  <property name="meta.media.frame_rate_den">1001</property>
  <property name="meta.media.colorspace">601</property>
  <property name="meta.media.color_trc">1</property>
  <property name="meta.media.width">1920</property>
  <property name="meta.media.height">1080</property>
  <property name="meta.media.color_range">full</property>
  <property name="kdenlive:id">38</property>
  <property name="kdenlive:file_size">862319521</property>
  <property name="kdenlive:file_hash">3febb490813df0c6328fed2b88abb536</property>
  <property name="kdenlive:audio_max">1</property>
  <property name="meta.media.top_field_first">0</property>
  <property name="meta.media.progressive">1</property>
  <property name="global_feed">1</property>
  <property name="kdenlive:markers">[
    {
        "comment": "Marker",
        "pos": 822,
        "type": 0
    },
    {
        "comment": "Marker",
        "pos": 3576,
        "type": 0
    }
]
</property>
  <property name="kdenlive:activeeffect">2</property>
  <filter id="filter0">
   <property name="version">0.1</property>
   <property name="mlt_service">frei0r.hqdn3d</property>
   <property name="kdenlive_id">frei0r.hqdn3d</property>
   <property name="Spatial">00:00:00.000=0.01</property>
   <property name="Temporal">00:00:00.000=0.01</property>
   <property name="kdenlive:collapsed">0</property>
  </filter>
  <filter id="filter1">
   <property name="version">0.6</property>
   <property name="mlt_service">frei0r.select0r</property>
   <property name="kdenlive_id">frei0r.select0r</property>
   <property name="Color to select">0x286b44ff</property>
   <property name="Invert selection">1</property>
   <property name="Selection subspace">1</property>
   <property name="Subspace shape">0</property>
   <property name="Edge mode">0.9</property>
   <property name="Delta R / A / Hue">00:00:00.000=0.025</property>
   <property name="Delta G / B / Chroma">00:00:00.000=0.11</property>
   <property name="Delta B / I / I">00:00:00.000=0.281</property>
   <property name="Slope">00:00:00.000=0.071</property>
   <property name="Operation">0.5</property>
   <property name="kdenlive:collapsed">0</property>
  </filter>
  <filter id="filter2">
   <property name="mlt_service">avfilter.despill</property>
   <property name="kdenlive_id">avfilter.despill</property>
   <property name="av.type">green</property>
   <property name="av.mix">0.071</property>
   <property name="av.expand">0.022</property>
   <property name="av.red">0</property>
   <property name="av.green">-1</property>
   <property name="av.blue">-0.7</property>
   <property name="av.brightness">0</property>
   <property name="kdenlive:collapsed">0</property>
  </filter>
 </producer>
 <producer id="producer57" in="00:00:00.000" out="00:00:35.700">
  <property name="length">1072</property>
  <property name="eof">pause</property>
  <property name="resource">content/musicians/2021-06-02_Caleb+Chris_electric+piano+handheld_mac_MVI_6000-take2_piano_solo_ending_portrait.mkv</property>
  <property name="audio_index">1</property>
  <property name="video_index">0</property>
  <property name="mute_on_pause">0</property>
  <property name="mlt_service">avformat-novalidate</property>
  <property name="meta.media.nb_streams">2</property>
  <property name="meta.media.0.stream.type">video</property>
  <property name="meta.media.0.stream.frame_rate">29.97</property>
  <property name="meta.media.0.stream.sample_aspect_ratio">0</property>
  <property name="meta.media.0.codec.width">1920</property>
  <property name="meta.media.0.codec.height">1080</property>
  <property name="meta.media.0.codec.rotate">0</property>
  <property name="meta.media.0.codec.frame_rate">1000</property>
  <property name="meta.media.0.codec.pix_fmt">yuvj420p</property>
  <property name="meta.media.0.codec.sample_aspect_ratio">0</property>
  <property name="meta.media.0.codec.colorspace">601</property>
  <property name="meta.media.0.codec.color_trc">1</property>
  <property name="meta.media.0.codec.name">h264</property>
  <property name="meta.media.0.codec.long_name">H.264 / AVC / MPEG-4 AVC / MPEG-4 part 10</property>
  <property name="meta.media.0.codec.bit_rate">0</property>
  <property name="meta.attr.0.stream.language.markup">eng</property>
  <property name="meta.attr.0.stream.DURATION.markup">00:00:35.736000000</property>
  <property name="meta.media.1.stream.type">audio</property>
  <property name="meta.media.1.codec.sample_fmt">s16</property>
  <property name="meta.media.1.codec.sample_rate">48000</property>
  <property name="meta.media.1.codec.channels">2</property>
  <property name="meta.media.1.codec.name">pcm_s16le</property>
  <property name="meta.media.1.codec.long_name">PCM signed 16-bit little-endian</property>
  <property name="meta.media.1.codec.bit_rate">1536000</property>
  <property name="meta.attr.1.stream.language.markup">eng</property>
  <property name="meta.attr.1.stream.DURATION.markup">00:00:35.739000000</property>
  <property name="meta.attr.COMPATIBLE_BRANDS.markup">qt  CAEP</property>
  <property name="meta.attr.creation_time.markup">2021-06-02T15:54:00.000000Z</property>
  <property name="meta.attr.MAJOR_BRAND.markup">qt  </property>
  <property name="meta.attr.MINOR_VERSION.markup">537331968</property>
  <property name="meta.attr.ENCODER.markup">Lavf58.45.100</property>
  <property name="seekable">1</property>
  <property name="meta.media.sample_aspect_num">1</property>
  <property name="meta.media.sample_aspect_den">1</property>
  <property name="aspect_ratio">1</property>
  <property name="kdenlive:clipname"/>
  <property name="kdenlive:folderid">65</property>
  <property name="meta.media.frame_rate_num">30000</property>
  <property name="meta.media.frame_rate_den">1001</property>
  <property name="meta.media.colorspace">601</property>
  <property name="meta.media.color_trc">1</property>
  <property name="meta.media.width">1920</property>
  <property name="meta.media.height">1080</property>
  <property name="meta.media.color_range">full</property>
  <property name="kdenlive:id">39</property>
  <property name="kdenlive:file_size">209585039</property>
  <property name="kdenlive:file_hash">9682b34a573e828a0d13c9517db69a06</property>
  <property name="kdenlive:audio_max">1</property>
  <property name="meta.media.top_field_first">0</property>
  <property name="meta.media.progressive">1</property>
  <property name="global_feed">1</property>
 </producer>
 <producer id="producer58" in="00:00:00.000" out="00:03:11.667">
  <property name="length">5751</property>
  <property name="eof">pause</property>
  <property name="resource">content/musicians/2021-02-06_Caleb_electric_mac_MVI_6045-take1_beginning.mkv</property>
  <property name="audio_index">1</property>
  <property name="video_index">0</property>
  <property name="mute_on_pause">0</property>
  <property name="mlt_service">avformat-novalidate</property>
  <property name="meta.media.nb_streams">2</property>
  <property name="meta.media.0.stream.type">video</property>
  <property name="meta.media.0.stream.frame_rate">29.97</property>
  <property name="meta.media.0.stream.sample_aspect_ratio">0</property>
  <property name="meta.media.0.codec.width">1280</property>
  <property name="meta.media.0.codec.height">720</property>
  <property name="meta.media.0.codec.rotate">0</property>
  <property name="meta.media.0.codec.frame_rate">1000</property>
  <property name="meta.media.0.codec.pix_fmt">yuvj420p</property>
  <property name="meta.media.0.codec.sample_aspect_ratio">0</property>
  <property name="meta.media.0.codec.colorspace">601</property>
  <property name="meta.media.0.codec.color_trc">1</property>
  <property name="meta.media.0.codec.name">h264</property>
  <property name="meta.media.0.codec.long_name">H.264 / AVC / MPEG-4 AVC / MPEG-4 part 10</property>
  <property name="meta.media.0.codec.bit_rate">0</property>
  <property name="meta.attr.0.stream.language.markup">eng</property>
  <property name="meta.attr.0.stream.DURATION.markup">00:03:11.691000000</property>
  <property name="meta.media.1.stream.type">audio</property>
  <property name="meta.media.1.codec.sample_fmt">s16</property>
  <property name="meta.media.1.codec.sample_rate">48000</property>
  <property name="meta.media.1.codec.channels">1</property>
  <property name="meta.media.1.codec.name">pcm_s16le</property>
  <property name="meta.media.1.codec.long_name">PCM signed 16-bit little-endian</property>
  <property name="meta.media.1.codec.bit_rate">768000</property>
  <property name="meta.attr.1.stream.language.markup">eng</property>
  <property name="meta.attr.1.stream.DURATION.markup">00:03:11.703000000</property>
  <property name="meta.attr.COMPATIBLE_BRANDS.markup">qt  CAEP</property>
  <property name="meta.attr.creation_time.markup">2021-06-02T15:47:37.000000Z</property>
  <property name="meta.attr.MAJOR_BRAND.markup">qt  </property>
  <property name="meta.attr.MINOR_VERSION.markup">537331968</property>
  <property name="meta.attr.ENCODER.markup">Lavf58.45.100</property>
  <property name="seekable">1</property>
  <property name="meta.media.sample_aspect_num">1</property>
  <property name="meta.media.sample_aspect_den">1</property>
  <property name="aspect_ratio">1</property>
  <property name="kdenlive:clipname"/>
  <property name="kdenlive:folderid">65</property>
  <property name="meta.media.frame_rate_num">30000</property>
  <property name="meta.media.frame_rate_den">1001</property>
  <property name="meta.media.colorspace">601</property>
  <property name="meta.media.color_trc">1</property>
  <property name="meta.media.width">1280</property>
  <property name="meta.media.height">720</property>
  <property name="meta.media.color_range">full</property>
  <property name="kdenlive:id">40</property>
  <property name="kdenlive:file_size">777267331</property>
  <property name="kdenlive:file_hash">b2aa46889a4a516e62018580cde338da</property>
  <property name="meta.media.top_field_first">0</property>
  <property name="meta.media.progressive">1</property>
  <property name="kdenlive:audio_max">1</property>
  <property name="global_feed">1</property>
 </producer>
 <producer id="producer60" in="00:00:00.000" out="00:04:57.333">
  <property name="length">8921</property>
  <property name="eof">pause</property>
  <property name="resource">content/musicians/2021-02-06_Caleb_electric_mac_MVI_6045-take2_piano_to_end.mkv</property>
  <property name="audio_index">1</property>
  <property name="video_index">0</property>
  <property name="mute_on_pause">0</property>
  <property name="mlt_service">avformat-novalidate</property>
  <property name="meta.media.nb_streams">2</property>
  <property name="meta.media.0.stream.type">video</property>
  <property name="meta.media.0.stream.frame_rate">29.97</property>
  <property name="meta.media.0.stream.sample_aspect_ratio">0</property>
  <property name="meta.media.0.codec.width">1280</property>
  <property name="meta.media.0.codec.height">720</property>
  <property name="meta.media.0.codec.rotate">0</property>
  <property name="meta.media.0.codec.frame_rate">1000</property>
  <property name="meta.media.0.codec.pix_fmt">yuvj420p</property>
  <property name="meta.media.0.codec.sample_aspect_ratio">0</property>
  <property name="meta.media.0.codec.colorspace">601</property>
  <property name="meta.media.0.codec.color_trc">1</property>
  <property name="meta.media.0.codec.name">h264</property>
  <property name="meta.media.0.codec.long_name">H.264 / AVC / MPEG-4 AVC / MPEG-4 part 10</property>
  <property name="meta.media.0.codec.bit_rate">0</property>
  <property name="meta.attr.0.stream.language.markup">eng</property>
  <property name="meta.attr.0.stream.DURATION.markup">00:04:57.374000000</property>
  <property name="meta.media.1.stream.type">audio</property>
  <property name="meta.media.1.codec.sample_fmt">s16</property>
  <property name="meta.media.1.codec.sample_rate">48000</property>
  <property name="meta.media.1.codec.channels">1</property>
  <property name="meta.media.1.codec.name">pcm_s16le</property>
  <property name="meta.media.1.codec.long_name">PCM signed 16-bit little-endian</property>
  <property name="meta.media.1.codec.bit_rate">768000</property>
  <property name="meta.attr.1.stream.language.markup">eng</property>
  <property name="meta.attr.1.stream.DURATION.markup">00:04:57.382000000</property>
  <property name="meta.attr.COMPATIBLE_BRANDS.markup">qt  CAEP</property>
  <property name="meta.attr.creation_time.markup">2021-06-02T15:47:37.000000Z</property>
  <property name="meta.attr.MAJOR_BRAND.markup">qt  </property>
  <property name="meta.attr.MINOR_VERSION.markup">537331968</property>
  <property name="meta.attr.ENCODER.markup">Lavf58.45.100</property>
  <property name="seekable">1</property>
  <property name="meta.media.sample_aspect_num">1</property>
  <property name="meta.media.sample_aspect_den">1</property>
  <property name="aspect_ratio">1</property>
  <property name="kdenlive:clipname"/>
  <property name="kdenlive:folderid">65</property>
  <property name="meta.media.frame_rate_num">30000</property>
  <property name="meta.media.frame_rate_den">1001</property>
  <property name="meta.media.colorspace">601</property>
  <property name="meta.media.color_trc">1</property>
  <property name="meta.media.width">1280</property>
  <property name="meta.media.height">720</property>
  <property name="meta.media.color_range">full</property>
  <property name="kdenlive:id">41</property>
  <property name="kdenlive:file_size">1201157265</property>
  <property name="kdenlive:file_hash">64977837141acc18cb20bcc4930e479b</property>
  <property name="kdenlive:audio_max">1</property>
  <property name="meta.media.top_field_first">0</property>
  <property name="meta.media.progressive">1</property>
  <property name="global_feed">1</property>
 </producer>
 <producer id="producer59" in="00:00:00.000" out="00:01:47.700">
  <property name="length">3232</property>
  <property name="eof">pause</property>
  <property name="resource">content/musicians/2021-02-06_Caleb_electric_mac_MVI_6045-take3_ending.mkv</property>
  <property name="audio_index">1</property>
  <property name="video_index">0</property>
  <property name="mute_on_pause">0</property>
  <property name="mlt_service">avformat-novalidate</property>
  <property name="meta.media.nb_streams">2</property>
  <property name="meta.media.0.stream.type">video</property>
  <property name="meta.media.0.stream.frame_rate">29.97</property>
  <property name="meta.media.0.stream.sample_aspect_ratio">0</property>
  <property name="meta.media.0.codec.width">1280</property>
  <property name="meta.media.0.codec.height">720</property>
  <property name="meta.media.0.codec.rotate">0</property>
  <property name="meta.media.0.codec.frame_rate">1000</property>
  <property name="meta.media.0.codec.pix_fmt">yuvj420p</property>
  <property name="meta.media.0.codec.sample_aspect_ratio">0</property>
  <property name="meta.media.0.codec.colorspace">601</property>
  <property name="meta.media.0.codec.color_trc">1</property>
  <property name="meta.media.0.codec.name">h264</property>
  <property name="meta.media.0.codec.long_name">H.264 / AVC / MPEG-4 AVC / MPEG-4 part 10</property>
  <property name="meta.media.0.codec.bit_rate">0</property>
  <property name="meta.attr.0.stream.language.markup">eng</property>
  <property name="meta.attr.0.stream.DURATION.markup">00:01:47.750000000</property>
  <property name="meta.media.1.stream.type">audio</property>
  <property name="meta.media.1.codec.sample_fmt">s16</property>
  <property name="meta.media.1.codec.sample_rate">48000</property>
  <property name="meta.media.1.codec.channels">1</property>
  <property name="meta.media.1.codec.name">pcm_s16le</property>
  <property name="meta.media.1.codec.long_name">PCM signed 16-bit little-endian</property>
  <property name="meta.media.1.codec.bit_rate">768000</property>
  <property name="meta.attr.1.stream.language.markup">eng</property>
  <property name="meta.attr.1.stream.DURATION.markup">00:01:47.724000000</property>
  <property name="meta.attr.COMPATIBLE_BRANDS.markup">qt  CAEP</property>
  <property name="meta.attr.creation_time.markup">2021-06-02T15:47:37.000000Z</property>
  <property name="meta.attr.MAJOR_BRAND.markup">qt  </property>
  <property name="meta.attr.MINOR_VERSION.markup">537331968</property>
  <property name="meta.attr.ENCODER.markup">Lavf58.45.100</property>
  <property name="seekable">1</property>
  <property name="meta.media.sample_aspect_num">1</property>
  <property name="meta.media.sample_aspect_den">1</property>
  <property name="aspect_ratio">1</property>
  <property name="kdenlive:clipname"/>
  <property name="kdenlive:folderid">65</property>
  <property name="meta.media.frame_rate_num">30000</property>
  <property name="meta.media.frame_rate_den">1001</property>
  <property name="meta.media.colorspace">601</property>
  <property name="meta.media.color_trc">1</property>
  <property name="meta.media.width">1280</property>
  <property name="meta.media.height">720</property>
  <property name="meta.media.color_range">full</property>
  <property name="kdenlive:id">42</property>
  <property name="kdenlive:file_size">416319706</property>
  <property name="kdenlive:file_hash">9a8ad7790e050184c7a388ffc12d9b15</property>
  <property name="kdenlive:audio_max">1</property>
  <property name="meta.media.top_field_first">0</property>
  <property name="meta.media.progressive">1</property>
  <property name="global_feed">1</property>
 </producer>
 <producer id="producer65" in="00:00:00.000" out="00:01:23.533">
  <property name="length">2507</property>
  <property name="eof">pause</property>
  <property name="resource">/home/ryankelln/.cache/kdenlive/proxy/56fa46c3050061f5dbddea6210841061.mkv</property>
  <property name="audio_index">1</property>
  <property name="video_index">0</property>
  <property name="mute_on_pause">0</property>
  <property name="mlt_service">avformat-novalidate</property>
  <property name="seekable">1</property>
  <property name="aspect_ratio">1</property>
  <property name="kdenlive:clipname">2021-02-06_Chris_synth+4k_mac_P1180158-take1_beginning.MP4</property>
  <property name="kdenlive:folderid">65</property>
  <property name="kdenlive:id">43</property>
  <property name="kdenlive:file_size">1001088846</property>
  <property name="kdenlive:file_hash">56fa46c3050061f5dbddea6210841061</property>
  <property name="kdenlive:audio_max">1</property>
  <property name="kdenlive:proxy">/home/ryankelln/.cache/kdenlive/proxy/56fa46c3050061f5dbddea6210841061.mkv</property>
  <property name="kdenlive:originalurl">content/musicians/2021-02-06_Chris_synth+4k_mac_P1180158-take1_beginning.MP4</property>
  <property name="kdenlive:original.mlt_type">producer</property>
  <property name="kdenlive:original.in">00:00:00.000</property>
  <property name="kdenlive:original.out">00:01:23.533</property>
  <property name="kdenlive:original.length">2507</property>
  <property name="kdenlive:original.eof">pause</property>
  <property name="kdenlive:original.resource">content/musicians/2021-02-06_Chris_synth+4k_mac_P1180158-take1_beginning.MP4</property>
  <property name="kdenlive:original.meta.media.nb_streams">2</property>
  <property name="kdenlive:original.meta.media.0.stream.type">video</property>
  <property name="kdenlive:original.meta.media.0.stream.frame_rate">29.97</property>
  <property name="kdenlive:original.meta.media.0.stream.sample_aspect_ratio">1</property>
  <property name="kdenlive:original.meta.media.0.codec.width">3840</property>
  <property name="kdenlive:original.meta.media.0.codec.height">2160</property>
  <property name="kdenlive:original.meta.media.0.codec.rotate">0</property>
  <property name="kdenlive:original.meta.media.0.codec.frame_rate">29.97</property>
  <property name="kdenlive:original.meta.media.0.codec.pix_fmt">yuvj420p</property>
  <property name="kdenlive:original.meta.media.0.codec.sample_aspect_ratio">1</property>
  <property name="kdenlive:original.meta.media.0.codec.colorspace">709</property>
  <property name="kdenlive:original.meta.media.0.codec.color_trc">1</property>
  <property name="kdenlive:original.meta.media.0.codec.name">h264</property>
  <property name="kdenlive:original.meta.media.0.codec.long_name">H.264 / AVC / MPEG-4 AVC / MPEG-4 part 10</property>
  <property name="kdenlive:original.meta.media.0.codec.bit_rate">95759356</property>
  <property name="kdenlive:original.meta.attr.0.stream.creation_time.markup">2021-06-02T15:49:21.000000Z</property>
  <property name="kdenlive:original.meta.attr.0.stream.handler_name.markup">VideoHandler</property>
  <property name="kdenlive:original.meta.media.1.stream.type">audio</property>
  <property name="kdenlive:original.meta.media.1.codec.sample_fmt">fltp</property>
  <property name="kdenlive:original.meta.media.1.codec.sample_rate">48000</property>
  <property name="kdenlive:original.meta.media.1.codec.channels">2</property>
  <property name="kdenlive:original.meta.media.1.codec.name">aac</property>
  <property name="kdenlive:original.meta.media.1.codec.long_name">AAC (Advanced Audio Coding)</property>
  <property name="kdenlive:original.meta.media.1.codec.bit_rate">125373</property>
  <property name="kdenlive:original.meta.attr.1.stream.creation_time.markup">2021-06-02T15:49:21.000000Z</property>
  <property name="kdenlive:original.meta.attr.1.stream.handler_name.markup">SoundHandler</property>
  <property name="kdenlive:original.meta.attr.major_brand.markup">isom</property>
  <property name="kdenlive:original.meta.attr.minor_version.markup">512</property>
  <property name="kdenlive:original.meta.attr.compatible_brands.markup">isomiso2avc1mp41</property>
  <property name="kdenlive:original.meta.attr.creation_time.markup">2021-06-02T15:49:21.000000Z</property>
  <property name="kdenlive:original.meta.attr.encoder.markup">Lavf58.45.100</property>
  <property name="kdenlive:original.seekable">1</property>
  <property name="kdenlive:original.width">3840</property>
  <property name="kdenlive:original.height">2160</property>
  <property name="kdenlive:original.meta.media.sample_aspect_num">1</property>
  <property name="kdenlive:original.meta.media.sample_aspect_den">1</property>
  <property name="kdenlive:original.aspect_ratio">1</property>
  <property name="kdenlive:original.audio_index">1</property>
  <property name="kdenlive:original.video_index">0</property>
  <property name="kdenlive:original.mute_on_pause">0</property>
  <property name="kdenlive:original.mlt_service">avformat-novalidate</property>
  <property name="kdenlive:original.kdenlive:folderid">65</property>
  <property name="kdenlive:original.meta.media.frame_rate_num">30000</property>
  <property name="kdenlive:original.meta.media.frame_rate_den">1001</property>
  <property name="kdenlive:original.meta.media.colorspace">709</property>
  <property name="kdenlive:original.meta.media.color_trc">1</property>
  <property name="kdenlive:original.meta.media.width">3840</property>
  <property name="kdenlive:original.meta.media.height">2160</property>
  <property name="kdenlive:original.meta.media.color_range">full</property>
  <property name="kdenlive:original.kdenlive:id">81</property>
  <property name="kdenlive:original.kdenlive:file_size">1001088846</property>
  <property name="kdenlive:original.kdenlive:file_hash">56fa46c3050061f5dbddea6210841061</property>
  <property name="kdenlive:original.meta.media.top_field_first">0</property>
  <property name="kdenlive:original.meta.media.progressive">1</property>
  <property name="kdenlive:original.kdenlive:audio_max">1</property>
  <property name="kdenlive:original.backup">1</property>
  <property name="global_feed">1</property>
  <property name="meta.media.nb_streams">2</property>
  <property name="meta.media.0.stream.type">video</property>
  <property name="meta.media.0.stream.frame_rate">29.97</property>
  <property name="meta.media.0.stream.sample_aspect_ratio">1</property>
  <property name="meta.media.0.codec.width">960</property>
  <property name="meta.media.0.codec.height">540</property>
  <property name="meta.media.0.codec.rotate">0</property>
  <property name="meta.media.0.codec.frame_rate">1000</property>
  <property name="meta.media.0.codec.pix_fmt">yuvj420p</property>
  <property name="meta.media.0.codec.sample_aspect_ratio">1</property>
  <property name="meta.media.0.codec.colorspace">601</property>
  <property name="meta.media.0.codec.name">mjpeg</property>
  <property name="meta.media.0.codec.long_name">MJPEG (Motion JPEG)</property>
  <property name="meta.media.0.codec.bit_rate">0</property>
  <property name="meta.attr.0.stream.HANDLER_NAME.markup">VideoHandler</property>
  <property name="meta.attr.0.stream.ENCODER.markup">Lavc58.91.100 mjpeg</property>
  <property name="meta.attr.0.stream.DURATION.markup">00:01:23.617000000</property>
  <property name="meta.media.1.stream.type">audio</property>
  <property name="meta.media.1.codec.sample_fmt">s16</property>
  <property name="meta.media.1.codec.sample_rate">48000</property>
  <property name="meta.media.1.codec.channels">2</property>
  <property name="meta.media.1.codec.name">pcm_s16le</property>
  <property name="meta.media.1.codec.long_name">PCM signed 16-bit little-endian</property>
  <property name="meta.media.1.codec.bit_rate">1536000</property>
  <property name="meta.attr.1.stream.HANDLER_NAME.markup">SoundHandler</property>
  <property name="meta.attr.1.stream.ENCODER.markup">Lavc58.91.100 pcm_s16le</property>
  <property name="meta.attr.1.stream.DURATION.markup">00:01:23.562000000</property>
  <property name="meta.attr.COMPATIBLE_BRANDS.markup">isomiso2avc1mp41</property>
  <property name="meta.attr.MAJOR_BRAND.markup">isom</property>
  <property name="meta.attr.MINOR_VERSION.markup">512</property>
  <property name="meta.attr.ENCODER.markup">Lavf58.45.100</property>
  <property name="meta.media.sample_aspect_num">1</property>
  <property name="meta.media.sample_aspect_den">1</property>
  <property name="meta.media.frame_rate_num">30000</property>
  <property name="meta.media.frame_rate_den">1001</property>
  <property name="meta.media.colorspace">601</property>
  <property name="meta.media.color_trc">2</property>
  <property name="meta.media.width">960</property>
  <property name="meta.media.height">540</property>
  <property name="meta.media.color_range">full</property>
  <property name="meta.media.top_field_first">0</property>
  <property name="meta.media.progressive">1</property>
 </producer>
 <producer id="producer66" in="00:00:00.000" out="00:01:53.700">
  <property name="length">3412</property>
  <property name="eof">pause</property>
  <property name="resource">/home/ryankelln/.cache/kdenlive/proxy/905fd94a7f56fbf51e718f81c28eb554.mkv</property>
  <property name="audio_index">1</property>
  <property name="video_index">0</property>
  <property name="mute_on_pause">0</property>
  <property name="mlt_service">avformat-novalidate</property>
  <property name="seekable">1</property>
  <property name="aspect_ratio">1</property>
  <property name="kdenlive:clipname">2021-02-06_Chris_synth+4k_mac_P1180160-take3_ending.MP4</property>
  <property name="kdenlive:folderid">65</property>
  <property name="kdenlive:id">44</property>
  <property name="kdenlive:file_size">1364659209</property>
  <property name="kdenlive:file_hash">905fd94a7f56fbf51e718f81c28eb554</property>
  <property name="kdenlive:audio_max">1</property>
  <property name="kdenlive:proxy">/home/ryankelln/.cache/kdenlive/proxy/905fd94a7f56fbf51e718f81c28eb554.mkv</property>
  <property name="kdenlive:originalurl">content/musicians/2021-02-06_Chris_synth+4k_mac_P1180160-take3_ending.MP4</property>
  <property name="kdenlive:original.mlt_type">producer</property>
  <property name="kdenlive:original.in">00:00:00.000</property>
  <property name="kdenlive:original.out">00:01:53.700</property>
  <property name="kdenlive:original.length">3412</property>
  <property name="kdenlive:original.eof">pause</property>
  <property name="kdenlive:original.resource">content/musicians/2021-02-06_Chris_synth+4k_mac_P1180160-take3_ending.MP4</property>
  <property name="kdenlive:original.meta.media.nb_streams">2</property>
  <property name="kdenlive:original.meta.media.0.stream.type">video</property>
  <property name="kdenlive:original.meta.media.0.stream.frame_rate">29.97</property>
  <property name="kdenlive:original.meta.media.0.stream.sample_aspect_ratio">1</property>
  <property name="kdenlive:original.meta.media.0.codec.width">3840</property>
  <property name="kdenlive:original.meta.media.0.codec.height">2160</property>
  <property name="kdenlive:original.meta.media.0.codec.rotate">0</property>
  <property name="kdenlive:original.meta.media.0.codec.frame_rate">29.97</property>
  <property name="kdenlive:original.meta.media.0.codec.pix_fmt">yuvj420p</property>
  <property name="kdenlive:original.meta.media.0.codec.sample_aspect_ratio">1</property>
  <property name="kdenlive:original.meta.media.0.codec.colorspace">709</property>
  <property name="kdenlive:original.meta.media.0.codec.color_trc">1</property>
  <property name="kdenlive:original.meta.media.0.codec.name">h264</property>
  <property name="kdenlive:original.meta.media.0.codec.long_name">H.264 / AVC / MPEG-4 AVC / MPEG-4 part 10</property>
  <property name="kdenlive:original.meta.media.0.codec.bit_rate">95929063</property>
  <property name="kdenlive:original.meta.attr.0.stream.creation_time.markup">2021-06-02T15:49:21.000000Z</property>
  <property name="kdenlive:original.meta.attr.0.stream.handler_name.markup">VideoHandler</property>
  <property name="kdenlive:original.meta.media.1.stream.type">audio</property>
  <property name="kdenlive:original.meta.media.1.codec.sample_fmt">fltp</property>
  <property name="kdenlive:original.meta.media.1.codec.sample_rate">48000</property>
  <property name="kdenlive:original.meta.media.1.codec.channels">2</property>
  <property name="kdenlive:original.meta.media.1.codec.name">aac</property>
  <property name="kdenlive:original.meta.media.1.codec.long_name">AAC (Advanced Audio Coding)</property>
  <property name="kdenlive:original.meta.media.1.codec.bit_rate">125374</property>
  <property name="kdenlive:original.meta.attr.1.stream.creation_time.markup">2021-06-02T15:49:21.000000Z</property>
  <property name="kdenlive:original.meta.attr.1.stream.handler_name.markup">SoundHandler</property>
  <property name="kdenlive:original.meta.attr.major_brand.markup">isom</property>
  <property name="kdenlive:original.meta.attr.minor_version.markup">512</property>
  <property name="kdenlive:original.meta.attr.compatible_brands.markup">isomiso2avc1mp41</property>
  <property name="kdenlive:original.meta.attr.creation_time.markup">2021-06-02T15:49:21.000000Z</property>
  <property name="kdenlive:original.meta.attr.encoder.markup">Lavf58.45.100</property>
  <property name="kdenlive:original.seekable">1</property>
  <property name="kdenlive:original.width">3840</property>
  <property name="kdenlive:original.height">2160</property>
  <property name="kdenlive:original.meta.media.sample_aspect_num">1</property>
  <property name="kdenlive:original.meta.media.sample_aspect_den">1</property>
  <property name="kdenlive:original.aspect_ratio">1</property>
  <property name="kdenlive:original.audio_index">1</property>
  <property name="kdenlive:original.video_index">0</property>
  <property name="kdenlive:original.mute_on_pause">0</property>
  <property name="kdenlive:original.mlt_service">avformat-novalidate</property>
  <property name="kdenlive:original.kdenlive:folderid">65</property>
  <property name="kdenlive:original.meta.media.frame_rate_num">30000</property>
  <property name="kdenlive:original.meta.media.frame_rate_den">1001</property>
  <property name="kdenlive:original.meta.media.colorspace">709</property>
  <property name="kdenlive:original.meta.media.color_trc">1</property>
  <property name="kdenlive:original.meta.media.width">3840</property>
  <property name="kdenlive:original.meta.media.height">2160</property>
  <property name="kdenlive:original.meta.media.color_range">full</property>
  <property name="kdenlive:original.kdenlive:id">82</property>
  <property name="kdenlive:original.kdenlive:file_size">1364659209</property>
  <property name="kdenlive:original.kdenlive:file_hash">905fd94a7f56fbf51e718f81c28eb554</property>
  <property name="kdenlive:original.meta.media.top_field_first">0</property>
  <property name="kdenlive:original.meta.media.progressive">1</property>
  <property name="kdenlive:original.kdenlive:audio_max">1</property>
  <property name="kdenlive:original.backup">1</property>
  <property name="global_feed">1</property>
  <property name="meta.media.nb_streams">2</property>
  <property name="meta.media.0.stream.type">video</property>
  <property name="meta.media.0.stream.frame_rate">29.97</property>
  <property name="meta.media.0.stream.sample_aspect_ratio">1</property>
  <property name="meta.media.0.codec.width">960</property>
  <property name="meta.media.0.codec.height">540</property>
  <property name="meta.media.0.codec.rotate">0</property>
  <property name="meta.media.0.codec.frame_rate">1000</property>
  <property name="meta.media.0.codec.pix_fmt">yuvj420p</property>
  <property name="meta.media.0.codec.sample_aspect_ratio">1</property>
  <property name="meta.media.0.codec.colorspace">601</property>
  <property name="meta.media.0.codec.name">mjpeg</property>
  <property name="meta.media.0.codec.long_name">MJPEG (Motion JPEG)</property>
  <property name="meta.media.0.codec.bit_rate">0</property>
  <property name="meta.attr.0.stream.HANDLER_NAME.markup">VideoHandler</property>
  <property name="meta.attr.0.stream.ENCODER.markup">Lavc58.91.100 mjpeg</property>
  <property name="meta.attr.0.stream.DURATION.markup">00:01:53.747000000</property>
  <property name="meta.media.1.stream.type">audio</property>
  <property name="meta.media.1.codec.sample_fmt">s16</property>
  <property name="meta.media.1.codec.sample_rate">48000</property>
  <property name="meta.media.1.codec.channels">2</property>
  <property name="meta.media.1.codec.name">pcm_s16le</property>
  <property name="meta.media.1.codec.long_name">PCM signed 16-bit little-endian</property>
  <property name="meta.media.1.codec.bit_rate">1536000</property>
  <property name="meta.attr.1.stream.HANDLER_NAME.markup">SoundHandler</property>
  <property name="meta.attr.1.stream.ENCODER.markup">Lavc58.91.100 pcm_s16le</property>
  <property name="meta.attr.1.stream.DURATION.markup">00:01:53.728000000</property>
  <property name="meta.attr.COMPATIBLE_BRANDS.markup">isomiso2avc1mp41</property>
  <property name="meta.attr.MAJOR_BRAND.markup">isom</property>
  <property name="meta.attr.MINOR_VERSION.markup">512</property>
  <property name="meta.attr.ENCODER.markup">Lavf58.45.100</property>
  <property name="meta.media.sample_aspect_num">1</property>
  <property name="meta.media.sample_aspect_den">1</property>
  <property name="meta.media.frame_rate_num">30000</property>
  <property name="meta.media.frame_rate_den">1001</property>
  <property name="meta.media.colorspace">601</property>
  <property name="meta.media.color_trc">2</property>
  <property name="meta.media.width">960</property>
  <property name="meta.media.height">540</property>
  <property name="meta.media.color_range">full</property>
  <property name="meta.media.top_field_first">0</property>
  <property name="meta.media.progressive">1</property>
 </producer>
 <producer id="producer68" in="00:00:00.000" out="00:01:19.233">
  <property name="length">2378</property>
  <property name="eof">pause</property>
  <property name="resource">/home/ryankelln/.cache/kdenlive/proxy/18348eb9ea11369b7bc0f37eefd51236.mkv</property>
  <property name="audio_index">1</property>
  <property name="video_index">0</property>
  <property name="mute_on_pause">0</property>
  <property name="mlt_service">avformat-novalidate</property>
  <property name="seekable">1</property>
  <property name="aspect_ratio">1</property>
  <property name="kdenlive:clipname">2021-06-02_Caleb_electric+4k_mac_P1000548-take1_beginning.MP4</property>
  <property name="kdenlive:folderid">65</property>
  <property name="kdenlive:id">45</property>
  <property name="kdenlive:file_size">950927306</property>
  <property name="kdenlive:file_hash">18348eb9ea11369b7bc0f37eefd51236</property>
  <property name="kdenlive:proxy">/home/ryankelln/.cache/kdenlive/proxy/18348eb9ea11369b7bc0f37eefd51236.mkv</property>
  <property name="kdenlive:originalurl">content/musicians/2021-06-02_Caleb_electric+4k_mac_P1000548-take1_beginning.MP4</property>
  <property name="kdenlive:original.mlt_type">producer</property>
  <property name="kdenlive:original.in">0</property>
  <property name="kdenlive:original.out">2377</property>
  <property name="kdenlive:original.length">2378</property>
  <property name="kdenlive:original.eof">pause</property>
  <property name="kdenlive:original.resource">content/musicians/2021-06-02_Caleb_electric+4k_mac_P1000548-take1_beginning.MP4</property>
  <property name="kdenlive:original.meta.media.nb_streams">2</property>
  <property name="kdenlive:original.meta.media.0.stream.type">video</property>
  <property name="kdenlive:original.meta.media.0.stream.frame_rate">29.97</property>
  <property name="kdenlive:original.meta.media.0.stream.sample_aspect_ratio">1</property>
  <property name="kdenlive:original.meta.media.0.codec.width">3328</property>
  <property name="kdenlive:original.meta.media.0.codec.height">2496</property>
  <property name="kdenlive:original.meta.media.0.codec.rotate">0</property>
  <property name="kdenlive:original.meta.media.0.codec.frame_rate">29.97</property>
  <property name="kdenlive:original.meta.media.0.codec.pix_fmt">yuvj420p</property>
  <property name="kdenlive:original.meta.media.0.codec.sample_aspect_ratio">1</property>
  <property name="kdenlive:original.meta.media.0.codec.colorspace">709</property>
  <property name="kdenlive:original.meta.media.0.codec.color_trc">1</property>
  <property name="kdenlive:original.meta.media.0.codec.name">h264</property>
  <property name="kdenlive:original.meta.media.0.codec.long_name">H.264 / AVC / MPEG-4 AVC / MPEG-4 part 10</property>
  <property name="kdenlive:original.meta.media.0.codec.bit_rate">95904012</property>
  <property name="kdenlive:original.meta.attr.0.stream.creation_time.markup">2021-06-02T15:49:01.000000Z</property>
  <property name="kdenlive:original.meta.attr.0.stream.handler_name.markup">VideoHandler</property>
  <property name="kdenlive:original.meta.media.1.stream.type">audio</property>
  <property name="kdenlive:original.meta.media.1.codec.sample_fmt">fltp</property>
  <property name="kdenlive:original.meta.media.1.codec.sample_rate">48000</property>
  <property name="kdenlive:original.meta.media.1.codec.channels">2</property>
  <property name="kdenlive:original.meta.media.1.codec.name">aac</property>
  <property name="kdenlive:original.meta.media.1.codec.long_name">AAC (Advanced Audio Coding)</property>
  <property name="kdenlive:original.meta.media.1.codec.bit_rate">125375</property>
  <property name="kdenlive:original.meta.attr.1.stream.creation_time.markup">2021-06-02T15:49:01.000000Z</property>
  <property name="kdenlive:original.meta.attr.1.stream.handler_name.markup">SoundHandler</property>
  <property name="kdenlive:original.meta.attr.major_brand.markup">isom</property>
  <property name="kdenlive:original.meta.attr.minor_version.markup">512</property>
  <property name="kdenlive:original.meta.attr.compatible_brands.markup">isomiso2avc1mp41</property>
  <property name="kdenlive:original.meta.attr.creation_time.markup">2021-06-02T15:49:01.000000Z</property>
  <property name="kdenlive:original.meta.attr.encoder.markup">Lavf58.45.100</property>
  <property name="kdenlive:original.seekable">1</property>
  <property name="kdenlive:original.width">3328</property>
  <property name="kdenlive:original.height">2496</property>
  <property name="kdenlive:original.meta.media.sample_aspect_num">1</property>
  <property name="kdenlive:original.meta.media.sample_aspect_den">1</property>
  <property name="kdenlive:original.aspect_ratio">1</property>
  <property name="kdenlive:original.audio_index">1</property>
  <property name="kdenlive:original.video_index">0</property>
  <property name="kdenlive:original.mute_on_pause">0</property>
  <property name="kdenlive:original.mlt_service">avformat-novalidate</property>
  <property name="kdenlive:original.kdenlive:folderid">65</property>
  <property name="kdenlive:original.meta.media.frame_rate_num">30000</property>
  <property name="kdenlive:original.meta.media.frame_rate_den">1001</property>
  <property name="kdenlive:original.meta.media.colorspace">709</property>
  <property name="kdenlive:original.meta.media.color_trc">1</property>
  <property name="kdenlive:original.meta.media.width">3328</property>
  <property name="kdenlive:original.meta.media.height">2496</property>
  <property name="kdenlive:original.meta.media.color_range">full</property>
  <property name="kdenlive:original.kdenlive:id">79</property>
  <property name="kdenlive:original.kdenlive:file_size">950927306</property>
  <property name="kdenlive:original.kdenlive:file_hash">18348eb9ea11369b7bc0f37eefd51236</property>
  <property name="kdenlive:original.backup">1</property>
  <property name="global_feed">1</property>
  <property name="kdenlive:audio_max">1</property>
  <property name="meta.media.nb_streams">2</property>
  <property name="meta.media.0.stream.type">video</property>
  <property name="meta.media.0.stream.frame_rate">29.97</property>
  <property name="meta.media.0.stream.sample_aspect_ratio">1</property>
  <property name="meta.media.0.codec.width">960</property>
  <property name="meta.media.0.codec.height">720</property>
  <property name="meta.media.0.codec.rotate">0</property>
  <property name="meta.media.0.codec.frame_rate">1000</property>
  <property name="meta.media.0.codec.pix_fmt">yuvj420p</property>
  <property name="meta.media.0.codec.sample_aspect_ratio">1</property>
  <property name="meta.media.0.codec.colorspace">601</property>
  <property name="meta.media.0.codec.name">mjpeg</property>
  <property name="meta.media.0.codec.long_name">MJPEG (Motion JPEG)</property>
  <property name="meta.media.0.codec.bit_rate">0</property>
  <property name="meta.attr.0.stream.HANDLER_NAME.markup">VideoHandler</property>
  <property name="meta.attr.0.stream.ENCODER.markup">Lavc58.91.100 mjpeg</property>
  <property name="meta.attr.0.stream.DURATION.markup">00:01:19.312000000</property>
  <property name="meta.media.1.stream.type">audio</property>
  <property name="meta.media.1.codec.sample_fmt">s16</property>
  <property name="meta.media.1.codec.sample_rate">48000</property>
  <property name="meta.media.1.codec.channels">2</property>
  <property name="meta.media.1.codec.name">pcm_s16le</property>
  <property name="meta.media.1.codec.long_name">PCM signed 16-bit little-endian</property>
  <property name="meta.media.1.codec.bit_rate">1536000</property>
  <property name="meta.attr.1.stream.HANDLER_NAME.markup">SoundHandler</property>
  <property name="meta.attr.1.stream.ENCODER.markup">Lavc58.91.100 pcm_s16le</property>
  <property name="meta.attr.1.stream.DURATION.markup">00:01:19.274000000</property>
  <property name="meta.attr.COMPATIBLE_BRANDS.markup">isomiso2avc1mp41</property>
  <property name="meta.attr.MAJOR_BRAND.markup">isom</property>
  <property name="meta.attr.MINOR_VERSION.markup">512</property>
  <property name="meta.attr.ENCODER.markup">Lavf58.45.100</property>
  <property name="meta.media.sample_aspect_num">1</property>
  <property name="meta.media.sample_aspect_den">1</property>
  <property name="meta.media.frame_rate_num">30000</property>
  <property name="meta.media.frame_rate_den">1001</property>
  <property name="meta.media.colorspace">601</property>
  <property name="meta.media.color_trc">2</property>
  <property name="meta.media.width">960</property>
  <property name="meta.media.height">720</property>
  <property name="meta.media.color_range">full</property>
  <property name="meta.media.top_field_first">0</property>
  <property name="meta.media.progressive">1</property>
 </producer>
 <producer id="producer69" in="00:00:00.000" out="00:04:56.467">
  <property name="length">8895</property>
  <property name="eof">pause</property>
  <property name="resource">/home/ryankelln/.cache/kdenlive/proxy/230fc33b72342992a379124af56d05ce.mkv</property>
  <property name="audio_index">1</property>
  <property name="video_index">0</property>
  <property name="mute_on_pause">0</property>
  <property name="mlt_service">avformat-novalidate</property>
  <property name="seekable">1</property>
  <property name="aspect_ratio">1</property>
  <property name="kdenlive:clipname">2021-06-02_Caleb_electric+4k_mac_P1000548-take2_from_piano_solo-merged.MP4</property>
  <property name="kdenlive:folderid">65</property>
  <property name="kdenlive:id">46</property>
  <property name="kdenlive:file_size">3554994386</property>
  <property name="kdenlive:file_hash">230fc33b72342992a379124af56d05ce</property>
  <property name="kdenlive:proxy">/home/ryankelln/.cache/kdenlive/proxy/230fc33b72342992a379124af56d05ce.mkv</property>
  <property name="kdenlive:originalurl">content/musicians/2021-06-02_Caleb_electric+4k_mac_P1000548-take2_from_piano_solo-merged.MP4</property>
  <property name="kdenlive:original.mlt_type">producer</property>
  <property name="kdenlive:original.in">0</property>
  <property name="kdenlive:original.out">8894</property>
  <property name="kdenlive:original.length">8895</property>
  <property name="kdenlive:original.eof">pause</property>
  <property name="kdenlive:original.resource">content/musicians/2021-06-02_Caleb_electric+4k_mac_P1000548-take2_from_piano_solo-merged.MP4</property>
  <property name="kdenlive:original.meta.media.nb_streams">2</property>
  <property name="kdenlive:original.meta.media.0.stream.type">video</property>
  <property name="kdenlive:original.meta.media.0.stream.frame_rate">29.97</property>
  <property name="kdenlive:original.meta.media.0.stream.sample_aspect_ratio">1</property>
  <property name="kdenlive:original.meta.media.0.codec.width">3328</property>
  <property name="kdenlive:original.meta.media.0.codec.height">2496</property>
  <property name="kdenlive:original.meta.media.0.codec.rotate">0</property>
  <property name="kdenlive:original.meta.media.0.codec.frame_rate">29.97</property>
  <property name="kdenlive:original.meta.media.0.codec.pix_fmt">yuvj420p</property>
  <property name="kdenlive:original.meta.media.0.codec.sample_aspect_ratio">1</property>
  <property name="kdenlive:original.meta.media.0.codec.colorspace">709</property>
  <property name="kdenlive:original.meta.media.0.codec.color_trc">1</property>
  <property name="kdenlive:original.meta.media.0.codec.name">h264</property>
  <property name="kdenlive:original.meta.media.0.codec.long_name">H.264 / AVC / MPEG-4 AVC / MPEG-4 part 10</property>
  <property name="kdenlive:original.meta.media.0.codec.bit_rate">95807635</property>
  <property name="kdenlive:original.meta.attr.0.stream.handler_name.markup">VideoHandler</property>
  <property name="kdenlive:original.meta.media.1.stream.type">audio</property>
  <property name="kdenlive:original.meta.media.1.codec.sample_fmt">fltp</property>
  <property name="kdenlive:original.meta.media.1.codec.sample_rate">48000</property>
  <property name="kdenlive:original.meta.media.1.codec.channels">2</property>
  <property name="kdenlive:original.meta.media.1.codec.name">aac</property>
  <property name="kdenlive:original.meta.media.1.codec.long_name">AAC (Advanced Audio Coding)</property>
  <property name="kdenlive:original.meta.media.1.codec.bit_rate">125377</property>
  <property name="kdenlive:original.meta.attr.1.stream.handler_name.markup">SoundHandler</property>
  <property name="kdenlive:original.meta.attr.major_brand.markup">isom</property>
  <property name="kdenlive:original.meta.attr.minor_version.markup">512</property>
  <property name="kdenlive:original.meta.attr.compatible_brands.markup">isomiso2avc1mp41</property>
  <property name="kdenlive:original.meta.attr.encoder.markup">Lavf58.45.100</property>
  <property name="kdenlive:original.seekable">1</property>
  <property name="kdenlive:original.width">3328</property>
  <property name="kdenlive:original.height">2496</property>
  <property name="kdenlive:original.meta.media.sample_aspect_num">1</property>
  <property name="kdenlive:original.meta.media.sample_aspect_den">1</property>
  <property name="kdenlive:original.aspect_ratio">1</property>
  <property name="kdenlive:original.audio_index">1</property>
  <property name="kdenlive:original.video_index">0</property>
  <property name="kdenlive:original.mute_on_pause">0</property>
  <property name="kdenlive:original.mlt_service">avformat-novalidate</property>
  <property name="kdenlive:original.kdenlive:folderid">65</property>
  <property name="kdenlive:original.meta.media.frame_rate_num">88860000</property>
  <property name="kdenlive:original.meta.media.frame_rate_den">2964967</property>
  <property name="kdenlive:original.meta.media.colorspace">709</property>
  <property name="kdenlive:original.meta.media.color_trc">1</property>
  <property name="kdenlive:original.meta.media.width">3328</property>
  <property name="kdenlive:original.meta.media.height">2496</property>
  <property name="kdenlive:original.meta.media.color_range">full</property>
  <property name="kdenlive:original.kdenlive:id">80</property>
  <property name="kdenlive:original.kdenlive:file_size">3554994386</property>
  <property name="kdenlive:original.kdenlive:file_hash">230fc33b72342992a379124af56d05ce</property>
  <property name="kdenlive:original.backup">1</property>
  <property name="kdenlive:audio_max">1</property>
  <property name="global_feed">1</property>
  <property name="meta.media.nb_streams">2</property>
  <property name="meta.media.0.stream.type">video</property>
  <property name="meta.media.0.stream.frame_rate">29.97</property>
  <property name="meta.media.0.stream.sample_aspect_ratio">1</property>
  <property name="meta.media.0.codec.width">960</property>
  <property name="meta.media.0.codec.height">720</property>
  <property name="meta.media.0.codec.rotate">0</property>
  <property name="meta.media.0.codec.frame_rate">1000</property>
  <property name="meta.media.0.codec.pix_fmt">yuvj420p</property>
  <property name="meta.media.0.codec.sample_aspect_ratio">1</property>
  <property name="meta.media.0.codec.colorspace">601</property>
  <property name="meta.media.0.codec.name">mjpeg</property>
  <property name="meta.media.0.codec.long_name">MJPEG (Motion JPEG)</property>
  <property name="meta.media.0.codec.bit_rate">0</property>
  <property name="meta.attr.0.stream.HANDLER_NAME.markup">VideoHandler</property>
  <property name="meta.attr.0.stream.ENCODER.markup">Lavc58.91.100 mjpeg</property>
  <property name="meta.attr.0.stream.DURATION.markup">00:04:56.529000000</property>
  <property name="meta.media.1.stream.type">audio</property>
  <property name="meta.media.1.codec.sample_fmt">s16</property>
  <property name="meta.media.1.codec.sample_rate">48000</property>
  <property name="meta.media.1.codec.channels">2</property>
  <property name="meta.media.1.codec.name">pcm_s16le</property>
  <property name="meta.media.1.codec.long_name">PCM signed 16-bit little-endian</property>
  <property name="meta.media.1.codec.bit_rate">1536000</property>
  <property name="meta.attr.1.stream.HANDLER_NAME.markup">SoundHandler</property>
  <property name="meta.attr.1.stream.ENCODER.markup">Lavc58.91.100 pcm_s16le</property>
  <property name="meta.attr.1.stream.DURATION.markup">00:04:56.506000000</property>
  <property name="meta.attr.COMPATIBLE_BRANDS.markup">isomiso2avc1mp41</property>
  <property name="meta.attr.MAJOR_BRAND.markup">isom</property>
  <property name="meta.attr.MINOR_VERSION.markup">512</property>
  <property name="meta.attr.ENCODER.markup">Lavf58.45.100</property>
  <property name="meta.media.sample_aspect_num">1</property>
  <property name="meta.media.sample_aspect_den">1</property>
  <property name="meta.media.frame_rate_num">30000</property>
  <property name="meta.media.frame_rate_den">1001</property>
  <property name="meta.media.colorspace">601</property>
  <property name="meta.media.color_trc">2</property>
  <property name="meta.media.width">960</property>
  <property name="meta.media.height">720</property>
  <property name="meta.media.color_range">full</property>
  <property name="meta.media.top_field_first">0</property>
  <property name="meta.media.progressive">1</property>
 </producer>
 <producer id="producer67" in="00:00:00.000" out="00:01:48.700">
  <property name="length">3262</property>
  <property name="eof">pause</property>
  <property name="resource">/home/ryankelln/.cache/kdenlive/proxy/2fc7ab3ea57f441ef5b5135081c42383.mkv</property>
  <property name="audio_index">1</property>
  <property name="video_index">0</property>
  <property name="mute_on_pause">0</property>
  <property name="mlt_service">avformat-novalidate</property>
  <property name="seekable">1</property>
  <property name="aspect_ratio">1</property>
  <property name="kdenlive:clipname">2021-06-02_Caleb_electric+4k_mac_P1000550-take3_ending.MP4</property>
  <property name="kdenlive:folderid">65</property>
  <property name="kdenlive:id">47</property>
  <property name="kdenlive:file_size">1304588902</property>
  <property name="kdenlive:file_hash">2fc7ab3ea57f441ef5b5135081c42383</property>
  <property name="kdenlive:proxy">/home/ryankelln/.cache/kdenlive/proxy/2fc7ab3ea57f441ef5b5135081c42383.mkv</property>
  <property name="kdenlive:originalurl">content/musicians/2021-06-02_Caleb_electric+4k_mac_P1000550-take3_ending.MP4</property>
  <property name="kdenlive:original.mlt_type">producer</property>
  <property name="kdenlive:original.in">0</property>
  <property name="kdenlive:original.out">3261</property>
  <property name="kdenlive:original.length">3262</property>
  <property name="kdenlive:original.eof">pause</property>
  <property name="kdenlive:original.resource">content/musicians/2021-06-02_Caleb_electric+4k_mac_P1000550-take3_ending.MP4</property>
  <property name="kdenlive:original.meta.media.nb_streams">2</property>
  <property name="kdenlive:original.meta.media.0.stream.type">video</property>
  <property name="kdenlive:original.meta.media.0.stream.frame_rate">29.97</property>
  <property name="kdenlive:original.meta.media.0.stream.sample_aspect_ratio">1</property>
  <property name="kdenlive:original.meta.media.0.codec.width">3328</property>
  <property name="kdenlive:original.meta.media.0.codec.height">2496</property>
  <property name="kdenlive:original.meta.media.0.codec.rotate">0</property>
  <property name="kdenlive:original.meta.media.0.codec.frame_rate">29.97</property>
  <property name="kdenlive:original.meta.media.0.codec.pix_fmt">yuvj420p</property>
  <property name="kdenlive:original.meta.media.0.codec.sample_aspect_ratio">1</property>
  <property name="kdenlive:original.meta.media.0.codec.colorspace">709</property>
  <property name="kdenlive:original.meta.media.0.codec.color_trc">1</property>
  <property name="kdenlive:original.meta.media.0.codec.name">h264</property>
  <property name="kdenlive:original.meta.media.0.codec.long_name">H.264 / AVC / MPEG-4 AVC / MPEG-4 part 10</property>
  <property name="kdenlive:original.meta.media.0.codec.bit_rate">95842876</property>
  <property name="kdenlive:original.meta.attr.0.stream.creation_time.markup">2021-06-02T15:49:01.000000Z</property>
  <property name="kdenlive:original.meta.attr.0.stream.handler_name.markup">VideoHandler</property>
  <property name="kdenlive:original.meta.media.1.stream.type">audio</property>
  <property name="kdenlive:original.meta.media.1.codec.sample_fmt">fltp</property>
  <property name="kdenlive:original.meta.media.1.codec.sample_rate">48000</property>
  <property name="kdenlive:original.meta.media.1.codec.channels">2</property>
  <property name="kdenlive:original.meta.media.1.codec.name">aac</property>
  <property name="kdenlive:original.meta.media.1.codec.long_name">AAC (Advanced Audio Coding)</property>
  <property name="kdenlive:original.meta.media.1.codec.bit_rate">125375</property>
  <property name="kdenlive:original.meta.attr.1.stream.creation_time.markup">2021-06-02T15:49:01.000000Z</property>
  <property name="kdenlive:original.meta.attr.1.stream.handler_name.markup">SoundHandler</property>
  <property name="kdenlive:original.meta.attr.major_brand.markup">isom</property>
  <property name="kdenlive:original.meta.attr.minor_version.markup">512</property>
  <property name="kdenlive:original.meta.attr.compatible_brands.markup">isomiso2avc1mp41</property>
  <property name="kdenlive:original.meta.attr.creation_time.markup">2021-06-02T15:49:01.000000Z</property>
  <property name="kdenlive:original.meta.attr.encoder.markup">Lavf58.45.100</property>
  <property name="kdenlive:original.seekable">1</property>
  <property name="kdenlive:original.width">3328</property>
  <property name="kdenlive:original.height">2496</property>
  <property name="kdenlive:original.meta.media.sample_aspect_num">1</property>
  <property name="kdenlive:original.meta.media.sample_aspect_den">1</property>
  <property name="kdenlive:original.aspect_ratio">1</property>
  <property name="kdenlive:original.audio_index">1</property>
  <property name="kdenlive:original.video_index">0</property>
  <property name="kdenlive:original.mute_on_pause">0</property>
  <property name="kdenlive:original.mlt_service">avformat-novalidate</property>
  <property name="kdenlive:original.kdenlive:folderid">65</property>
  <property name="kdenlive:original.meta.media.frame_rate_num">30000</property>
  <property name="kdenlive:original.meta.media.frame_rate_den">1001</property>
  <property name="kdenlive:original.meta.media.colorspace">709</property>
  <property name="kdenlive:original.meta.media.color_trc">1</property>
  <property name="kdenlive:original.meta.media.width">3328</property>
  <property name="kdenlive:original.meta.media.height">2496</property>
  <property name="kdenlive:original.meta.media.color_range">full</property>
  <property name="kdenlive:original.kdenlive:id">81</property>
  <property name="kdenlive:original.kdenlive:file_size">1304588902</property>
  <property name="kdenlive:original.kdenlive:file_hash">2fc7ab3ea57f441ef5b5135081c42383</property>
  <property name="kdenlive:original.backup">1</property>
  <property name="kdenlive:audio_max">1</property>
  <property name="global_feed">1</property>
  <property name="meta.media.nb_streams">2</property>
  <property name="meta.media.0.stream.type">video</property>
  <property name="meta.media.0.stream.frame_rate">29.97</property>
  <property name="meta.media.0.stream.sample_aspect_ratio">1</property>
  <property name="meta.media.0.codec.width">960</property>
  <property name="meta.media.0.codec.height">720</property>
  <property name="meta.media.0.codec.rotate">0</property>
  <property name="meta.media.0.codec.frame_rate">1000</property>
  <property name="meta.media.0.codec.pix_fmt">yuvj420p</property>
  <property name="meta.media.0.codec.sample_aspect_ratio">1</property>
  <property name="meta.media.0.codec.colorspace">601</property>
  <property name="meta.media.0.codec.name">mjpeg</property>
  <property name="meta.media.0.codec.long_name">MJPEG (Motion JPEG)</property>
  <property name="meta.media.0.codec.bit_rate">0</property>
  <property name="meta.attr.0.stream.HANDLER_NAME.markup">VideoHandler</property>
  <property name="meta.attr.0.stream.ENCODER.markup">Lavc58.91.100 mjpeg</property>
  <property name="meta.attr.0.stream.DURATION.markup">00:01:48.842000000</property>
  <property name="meta.media.1.stream.type">audio</property>
  <property name="meta.media.1.codec.sample_fmt">s16</property>
  <property name="meta.media.1.codec.sample_rate">48000</property>
  <property name="meta.media.1.codec.channels">2</property>
  <property name="meta.media.1.codec.name">pcm_s16le</property>
  <property name="meta.media.1.codec.long_name">PCM signed 16-bit little-endian</property>
  <property name="meta.media.1.codec.bit_rate">1536000</property>
  <property name="meta.attr.1.stream.HANDLER_NAME.markup">SoundHandler</property>
  <property name="meta.attr.1.stream.ENCODER.markup">Lavc58.91.100 pcm_s16le</property>
  <property name="meta.attr.1.stream.DURATION.markup">00:01:48.736000000</property>
  <property name="meta.attr.COMPATIBLE_BRANDS.markup">isomiso2avc1mp41</property>
  <property name="meta.attr.MAJOR_BRAND.markup">isom</property>
  <property name="meta.attr.MINOR_VERSION.markup">512</property>
  <property name="meta.attr.ENCODER.markup">Lavf58.45.100</property>
  <property name="meta.media.sample_aspect_num">1</property>
  <property name="meta.media.sample_aspect_den">1</property>
  <property name="meta.media.frame_rate_num">30000</property>
  <property name="meta.media.frame_rate_den">1001</property>
  <property name="meta.media.colorspace">601</property>
  <property name="meta.media.color_trc">2</property>
  <property name="meta.media.width">960</property>
  <property name="meta.media.height">720</property>
  <property name="meta.media.color_range">full</property>
  <property name="meta.media.top_field_first">0</property>
  <property name="meta.media.progressive">1</property>
 </producer>
 <producer id="producer70" in="00:00:00.000" out="00:03:15.200">
  <property name="length">5857</property>
  <property name="eof">pause</property>
  <property name="resource">/home/ryankelln/.cache/kdenlive/proxy/c0bae3ca6937cd77ca262b126f122330.mkv</property>
  <property name="audio_index">-1</property>
  <property name="video_index">0</property>
  <property name="mute_on_pause">0</property>
  <property name="mlt_service">avformat-novalidate</property>
  <property name="seekable">1</property>
  <property name="aspect_ratio">1</property>
  <property name="kdenlive:clipname">2021-02-06_20-38-42_Chris_piano+synth_mac_C0019-take1_beginning.MP4</property>
  <property name="kdenlive:folderid">65</property>
  <property name="kdenlive:id">48</property>
  <property name="kdenlive:file_size">1202460569</property>
  <property name="kdenlive:file_hash">c0bae3ca6937cd77ca262b126f122330</property>
  <property name="kdenlive:proxy">/home/ryankelln/.cache/kdenlive/proxy/c0bae3ca6937cd77ca262b126f122330.mkv</property>
  <property name="kdenlive:originalurl">content/musicians/2021-02-06_20-38-42_Chris_piano+synth_mac_C0019-take1_beginning.MP4</property>
  <property name="kdenlive:original.mlt_type">producer</property>
  <property name="kdenlive:original.in">0</property>
  <property name="kdenlive:original.out">5856</property>
  <property name="kdenlive:original.length">5857</property>
  <property name="kdenlive:original.eof">pause</property>
  <property name="kdenlive:original.resource">content/musicians/2021-02-06_20-38-42_Chris_piano+synth_mac_C0019-take1_beginning.MP4</property>
  <property name="kdenlive:original.meta.media.nb_streams">1</property>
  <property name="kdenlive:original.meta.media.0.stream.type">video</property>
  <property name="kdenlive:original.meta.media.0.stream.frame_rate">29.97</property>
  <property name="kdenlive:original.meta.media.0.stream.sample_aspect_ratio">1</property>
  <property name="kdenlive:original.meta.media.0.codec.width">1920</property>
  <property name="kdenlive:original.meta.media.0.codec.height">1080</property>
  <property name="kdenlive:original.meta.media.0.codec.rotate">0</property>
  <property name="kdenlive:original.meta.media.0.codec.frame_rate">29.97</property>
  <property name="kdenlive:original.meta.media.0.codec.pix_fmt">yuv420p</property>
  <property name="kdenlive:original.meta.media.0.codec.sample_aspect_ratio">1</property>
  <property name="kdenlive:original.meta.media.0.codec.colorspace">709</property>
  <property name="kdenlive:original.meta.media.0.codec.color_trc">1</property>
  <property name="kdenlive:original.meta.media.0.codec.name">h264</property>
  <property name="kdenlive:original.meta.media.0.codec.long_name">H.264 / AVC / MPEG-4 AVC / MPEG-4 part 10</property>
  <property name="kdenlive:original.meta.media.0.codec.bit_rate">49271337</property>
  <property name="kdenlive:original.meta.attr.0.stream.creation_time.markup">2021-06-03T20:38:42.000000Z</property>
  <property name="kdenlive:original.meta.attr.0.stream.handler_name.markup">Video Media Handler</property>
  <property name="kdenlive:original.meta.attr.major_brand.markup">isom</property>
  <property name="kdenlive:original.meta.attr.minor_version.markup">512</property>
  <property name="kdenlive:original.meta.attr.compatible_brands.markup">isomiso2avc1mp41</property>
  <property name="kdenlive:original.meta.attr.creation_time.markup">2021-06-03T20:38:42.000000Z</property>
  <property name="kdenlive:original.meta.attr.encoder.markup">Lavf58.45.100</property>
  <property name="kdenlive:original.seekable">1</property>
  <property name="kdenlive:original.width">1920</property>
  <property name="kdenlive:original.height">1080</property>
  <property name="kdenlive:original.meta.media.sample_aspect_num">1</property>
  <property name="kdenlive:original.meta.media.sample_aspect_den">1</property>
  <property name="kdenlive:original.aspect_ratio">1</property>
  <property name="kdenlive:original.audio_index">-1</property>
  <property name="kdenlive:original.video_index">0</property>
  <property name="kdenlive:original.mute_on_pause">0</property>
  <property name="kdenlive:original.mlt_service">avformat-novalidate</property>
  <property name="kdenlive:original.kdenlive:folderid">65</property>
  <property name="kdenlive:original.meta.media.frame_rate_num">30000</property>
  <property name="kdenlive:original.meta.media.frame_rate_den">1001</property>
  <property name="kdenlive:original.meta.media.colorspace">709</property>
  <property name="kdenlive:original.meta.media.color_trc">1</property>
  <property name="kdenlive:original.meta.media.width">1920</property>
  <property name="kdenlive:original.meta.media.height">1080</property>
  <property name="kdenlive:original.meta.media.color_range">mpeg</property>
  <property name="kdenlive:original.kdenlive:id">82</property>
  <property name="kdenlive:original.kdenlive:file_size">1202460569</property>
  <property name="kdenlive:original.kdenlive:file_hash">c0bae3ca6937cd77ca262b126f122330</property>
  <property name="kdenlive:original.backup">1</property>
  <property name="global_feed">1</property>
  <property name="meta.media.nb_streams">1</property>
  <property name="meta.media.0.stream.type">video</property>
  <property name="meta.media.0.stream.frame_rate">29.97</property>
  <property name="meta.media.0.stream.sample_aspect_ratio">1</property>
  <property name="meta.media.0.codec.width">960</property>
  <property name="meta.media.0.codec.height">540</property>
  <property name="meta.media.0.codec.rotate">0</property>
  <property name="meta.media.0.codec.frame_rate">1000</property>
  <property name="meta.media.0.codec.pix_fmt">yuvj420p</property>
  <property name="meta.media.0.codec.sample_aspect_ratio">1</property>
  <property name="meta.media.0.codec.colorspace">601</property>
  <property name="meta.media.0.codec.name">mjpeg</property>
  <property name="meta.media.0.codec.long_name">MJPEG (Motion JPEG)</property>
  <property name="meta.media.0.codec.bit_rate">0</property>
  <property name="meta.attr.0.stream.HANDLER_NAME.markup">Video Media Handler</property>
  <property name="meta.attr.0.stream.ENCODER.markup">Lavc58.91.100 mjpeg</property>
  <property name="meta.attr.0.stream.DURATION.markup">00:03:15.228000000</property>
  <property name="meta.attr.COMPATIBLE_BRANDS.markup">isomiso2avc1mp41</property>
  <property name="meta.attr.MAJOR_BRAND.markup">isom</property>
  <property name="meta.attr.MINOR_VERSION.markup">512</property>
  <property name="meta.attr.ENCODER.markup">Lavf58.45.100</property>
  <property name="meta.media.sample_aspect_num">1</property>
  <property name="meta.media.sample_aspect_den">1</property>
  <property name="meta.media.frame_rate_num">30000</property>
  <property name="meta.media.frame_rate_den">1001</property>
  <property name="meta.media.colorspace">601</property>
  <property name="meta.media.color_trc">2</property>
  <property name="meta.media.width">960</property>
  <property name="meta.media.height">540</property>
  <property name="meta.media.color_range">full</property>
  <property name="meta.media.top_field_first">0</property>
  <property name="meta.media.progressive">1</property>
 </producer>
 <producer id="producer71" in="00:00:00.000" out="00:05:23.233">
  <property name="length">9698</property>
  <property name="eof">pause</property>
  <property name="resource">/home/ryankelln/.cache/kdenlive/proxy/0faef12e907a35baf806ffc6266e88e3.mkv</property>
  <property name="audio_index">-1</property>
  <property name="video_index">0</property>
  <property name="mute_on_pause">0</property>
  <property name="mlt_service">avformat-novalidate</property>
  <property name="seekable">1</property>
  <property name="aspect_ratio">1</property>
  <property name="kdenlive:clipname">2021-02-06_20-38-42_Chris_piano+synth_mac_C0019-take2_from_piano.MP4</property>
  <property name="kdenlive:folderid">65</property>
  <property name="kdenlive:id">49</property>
  <property name="kdenlive:file_size">2001558594</property>
  <property name="kdenlive:file_hash">0faef12e907a35baf806ffc6266e88e3</property>
  <property name="kdenlive:proxy">/home/ryankelln/.cache/kdenlive/proxy/0faef12e907a35baf806ffc6266e88e3.mkv</property>
  <property name="kdenlive:originalurl">content/musicians/2021-02-06_20-38-42_Chris_piano+synth_mac_C0019-take2_from_piano.MP4</property>
  <property name="kdenlive:original.mlt_type">producer</property>
  <property name="kdenlive:original.in">0</property>
  <property name="kdenlive:original.out">9697</property>
  <property name="kdenlive:original.length">9698</property>
  <property name="kdenlive:original.eof">pause</property>
  <property name="kdenlive:original.resource">content/musicians/2021-02-06_20-38-42_Chris_piano+synth_mac_C0019-take2_from_piano.MP4</property>
  <property name="kdenlive:original.meta.media.nb_streams">1</property>
  <property name="kdenlive:original.meta.media.0.stream.type">video</property>
  <property name="kdenlive:original.meta.media.0.stream.frame_rate">29.97</property>
  <property name="kdenlive:original.meta.media.0.stream.sample_aspect_ratio">1</property>
  <property name="kdenlive:original.meta.media.0.codec.width">1920</property>
  <property name="kdenlive:original.meta.media.0.codec.height">1080</property>
  <property name="kdenlive:original.meta.media.0.codec.rotate">0</property>
  <property name="kdenlive:original.meta.media.0.codec.frame_rate">29.97</property>
  <property name="kdenlive:original.meta.media.0.codec.pix_fmt">yuv420p</property>
  <property name="kdenlive:original.meta.media.0.codec.sample_aspect_ratio">1</property>
  <property name="kdenlive:original.meta.media.0.codec.colorspace">709</property>
  <property name="kdenlive:original.meta.media.0.codec.color_trc">1</property>
  <property name="kdenlive:original.meta.media.0.codec.name">h264</property>
  <property name="kdenlive:original.meta.media.0.codec.long_name">H.264 / AVC / MPEG-4 AVC / MPEG-4 part 10</property>
  <property name="kdenlive:original.meta.media.0.codec.bit_rate">49532178</property>
  <property name="kdenlive:original.meta.attr.0.stream.creation_time.markup">2021-06-03T20:38:42.000000Z</property>
  <property name="kdenlive:original.meta.attr.0.stream.handler_name.markup">Video Media Handler</property>
  <property name="kdenlive:original.meta.attr.major_brand.markup">isom</property>
  <property name="kdenlive:original.meta.attr.minor_version.markup">512</property>
  <property name="kdenlive:original.meta.attr.compatible_brands.markup">isomiso2avc1mp41</property>
  <property name="kdenlive:original.meta.attr.creation_time.markup">2021-06-03T20:38:42.000000Z</property>
  <property name="kdenlive:original.meta.attr.encoder.markup">Lavf58.45.100</property>
  <property name="kdenlive:original.seekable">1</property>
  <property name="kdenlive:original.width">1920</property>
  <property name="kdenlive:original.height">1080</property>
  <property name="kdenlive:original.meta.media.sample_aspect_num">1</property>
  <property name="kdenlive:original.meta.media.sample_aspect_den">1</property>
  <property name="kdenlive:original.aspect_ratio">1</property>
  <property name="kdenlive:original.audio_index">-1</property>
  <property name="kdenlive:original.video_index">0</property>
  <property name="kdenlive:original.mute_on_pause">0</property>
  <property name="kdenlive:original.mlt_service">avformat-novalidate</property>
  <property name="kdenlive:original.kdenlive:folderid">65</property>
  <property name="kdenlive:original.meta.media.frame_rate_num">30000</property>
  <property name="kdenlive:original.meta.media.frame_rate_den">1001</property>
  <property name="kdenlive:original.meta.media.colorspace">709</property>
  <property name="kdenlive:original.meta.media.color_trc">1</property>
  <property name="kdenlive:original.meta.media.width">1920</property>
  <property name="kdenlive:original.meta.media.height">1080</property>
  <property name="kdenlive:original.meta.media.color_range">mpeg</property>
  <property name="kdenlive:original.kdenlive:id">83</property>
  <property name="kdenlive:original.kdenlive:file_size">2001558594</property>
  <property name="kdenlive:original.kdenlive:file_hash">0faef12e907a35baf806ffc6266e88e3</property>
  <property name="kdenlive:original.backup">1</property>
  <property name="global_feed">1</property>
  <property name="meta.media.nb_streams">1</property>
  <property name="meta.media.0.stream.type">video</property>
  <property name="meta.media.0.stream.frame_rate">29.97</property>
  <property name="meta.media.0.stream.sample_aspect_ratio">1</property>
  <property name="meta.media.0.codec.width">960</property>
  <property name="meta.media.0.codec.height">540</property>
  <property name="meta.media.0.codec.rotate">0</property>
  <property name="meta.media.0.codec.frame_rate">1000</property>
  <property name="meta.media.0.codec.pix_fmt">yuvj420p</property>
  <property name="meta.media.0.codec.sample_aspect_ratio">1</property>
  <property name="meta.media.0.codec.colorspace">601</property>
  <property name="meta.media.0.codec.name">mjpeg</property>
  <property name="meta.media.0.codec.long_name">MJPEG (Motion JPEG)</property>
  <property name="meta.media.0.codec.bit_rate">0</property>
  <property name="meta.attr.0.stream.HANDLER_NAME.markup">Video Media Handler</property>
  <property name="meta.attr.0.stream.ENCODER.markup">Lavc58.91.100 mjpeg</property>
  <property name="meta.attr.0.stream.DURATION.markup">00:05:23.256000000</property>
  <property name="meta.attr.COMPATIBLE_BRANDS.markup">isomiso2avc1mp41</property>
  <property name="meta.attr.MAJOR_BRAND.markup">isom</property>
  <property name="meta.attr.MINOR_VERSION.markup">512</property>
  <property name="meta.attr.ENCODER.markup">Lavf58.45.100</property>
  <property name="meta.media.sample_aspect_num">1</property>
  <property name="meta.media.sample_aspect_den">1</property>
  <property name="meta.media.frame_rate_num">30000</property>
  <property name="meta.media.frame_rate_den">1001</property>
  <property name="meta.media.colorspace">601</property>
  <property name="meta.media.color_trc">2</property>
  <property name="meta.media.width">960</property>
  <property name="meta.media.height">540</property>
  <property name="meta.media.color_range">full</property>
  <property name="meta.media.top_field_first">0</property>
  <property name="meta.media.progressive">1</property>
  <property name="kdenlive:activeeffect">2</property>
  <filter id="filter3">
   <property name="version">0.1</property>
   <property name="mlt_service">frei0r.hqdn3d</property>
   <property name="kdenlive_id">frei0r.hqdn3d</property>
   <property name="Spatial">00:00:00.000=0.01</property>
   <property name="Temporal">00:00:00.000=0.01</property>
   <property name="kdenlive:collapsed">0</property>
  </filter>
  <filter id="filter4">
   <property name="version">0.6</property>
   <property name="mlt_service">frei0r.select0r</property>
   <property name="kdenlive_id">frei0r.select0r</property>
   <property name="Color to select">0x5ca56cff</property>
   <property name="Invert selection">1</property>
   <property name="Selection subspace">1</property>
   <property name="Subspace shape">0</property>
   <property name="Edge mode">0.9</property>
   <property name="Delta R / A / Hue">00:00:00.000=0.138</property>
   <property name="Delta G / B / Chroma">00:00:00.000=0.145</property>
   <property name="Delta B / I / I">00:00:00.000=0.333</property>
   <property name="Slope">00:00:00.000=0.081</property>
   <property name="Operation">0.5</property>
   <property name="kdenlive:collapsed">0</property>
  </filter>
  <filter id="filter5">
   <property name="mlt_service">avfilter.despill</property>
   <property name="kdenlive_id">avfilter.despill</property>
   <property name="av.type">green</property>
   <property name="av.mix">0.106</property>
   <property name="av.expand">0.051</property>
   <property name="av.red">0</property>
   <property name="av.green">-0.7</property>
   <property name="av.blue">-0.6</property>
   <property name="av.brightness">0</property>
   <property name="kdenlive:collapsed">0</property>
  </filter>
 </producer>
 <producer id="producer72" in="00:00:00.000" out="00:01:04.767">
  <property name="length">1944</property>
  <property name="eof">pause</property>
  <property name="resource">/home/ryankelln/.cache/kdenlive/proxy/4ae3e8ad715a0ff271fa122c32eb5343.mkv</property>
  <property name="audio_index">-1</property>
  <property name="video_index">0</property>
  <property name="mute_on_pause">0</property>
  <property name="mlt_service">avformat-novalidate</property>
  <property name="seekable">1</property>
  <property name="aspect_ratio">1</property>
  <property name="kdenlive:clipname">summer_grass_aphantasia_5.mp4</property>
  <property name="kdenlive:folderid">84</property>
  <property name="kdenlive:id">50</property>
  <property name="kdenlive:file_size">91728611</property>
  <property name="kdenlive:file_hash">4ae3e8ad715a0ff271fa122c32eb5343</property>
  <property name="kdenlive:proxy">/home/ryankelln/.cache/kdenlive/proxy/4ae3e8ad715a0ff271fa122c32eb5343.mkv</property>
  <property name="kdenlive:originalurl">content/stories/summer_grass_aphantasia_5.mp4</property>
  <property name="kdenlive:original.mlt_type">producer</property>
  <property name="kdenlive:original.in">0</property>
  <property name="kdenlive:original.out">1943</property>
  <property name="kdenlive:original.length">1944</property>
  <property name="kdenlive:original.eof">pause</property>
  <property name="kdenlive:original.resource">content/stories/summer_grass_aphantasia_5.mp4</property>
  <property name="kdenlive:original.meta.media.nb_streams">1</property>
  <property name="kdenlive:original.meta.media.0.stream.type">video</property>
  <property name="kdenlive:original.meta.media.0.stream.frame_rate">25</property>
  <property name="kdenlive:original.meta.media.0.stream.sample_aspect_ratio">1</property>
  <property name="kdenlive:original.meta.media.0.codec.width">1920</property>
  <property name="kdenlive:original.meta.media.0.codec.height">1080</property>
  <property name="kdenlive:original.meta.media.0.codec.rotate">0</property>
  <property name="kdenlive:original.meta.media.0.codec.frame_rate">25</property>
  <property name="kdenlive:original.meta.media.0.codec.pix_fmt">yuvj420p</property>
  <property name="kdenlive:original.meta.media.0.codec.sample_aspect_ratio">1</property>
  <property name="kdenlive:original.meta.media.0.codec.colorspace">601</property>
  <property name="kdenlive:original.meta.media.0.codec.name">h264</property>
  <property name="kdenlive:original.meta.media.0.codec.long_name">H.264 / AVC / MPEG-4 AVC / MPEG-4 part 10</property>
  <property name="kdenlive:original.meta.media.0.codec.bit_rate">11323000</property>
  <property name="kdenlive:original.meta.attr.0.stream.handler_name.markup">VideoHandler</property>
  <property name="kdenlive:original.meta.attr.major_brand.markup">isom</property>
  <property name="kdenlive:original.meta.attr.minor_version.markup">512</property>
  <property name="kdenlive:original.meta.attr.compatible_brands.markup">isomiso2avc1mp41</property>
  <property name="kdenlive:original.meta.attr.encoder.markup">Lavf58.76.100</property>
  <property name="kdenlive:original.seekable">1</property>
  <property name="kdenlive:original.width">1920</property>
  <property name="kdenlive:original.height">1080</property>
  <property name="kdenlive:original.meta.media.sample_aspect_num">1</property>
  <property name="kdenlive:original.meta.media.sample_aspect_den">1</property>
  <property name="kdenlive:original.aspect_ratio">1</property>
  <property name="kdenlive:original.audio_index">-1</property>
  <property name="kdenlive:original.video_index">0</property>
  <property name="kdenlive:original.mute_on_pause">0</property>
  <property name="kdenlive:original.mlt_service">avformat-novalidate</property>
  <property name="kdenlive:original.kdenlive:folderid">84</property>
  <property name="kdenlive:original.meta.media.frame_rate_num">25</property>
  <property name="kdenlive:original.meta.media.frame_rate_den">1</property>
  <property name="kdenlive:original.meta.media.colorspace">601</property>
  <property name="kdenlive:original.meta.media.color_trc">2</property>
  <property name="kdenlive:original.meta.media.width">1920</property>
  <property name="kdenlive:original.meta.media.height">1080</property>
  <property name="kdenlive:original.meta.media.color_range">full</property>
  <property name="kdenlive:original.kdenlive:id">85</property>
  <property name="kdenlive:original.kdenlive:file_size">91728611</property>
  <property name="kdenlive:original.kdenlive:file_hash">4ae3e8ad715a0ff271fa122c32eb5343</property>
  <property name="kdenlive:original.backup">1</property>
  <property name="global_feed">1</property>
  <property name="meta.media.nb_streams">1</property>
  <property name="meta.media.0.stream.type">video</property>
  <property name="meta.media.0.stream.frame_rate">25</property>
  <property name="meta.media.0.stream.sample_aspect_ratio">1</property>
  <property name="meta.media.0.codec.width">960</property>
  <property name="meta.media.0.codec.height">540</property>
  <property name="meta.media.0.codec.rotate">0</property>
  <property name="meta.media.0.codec.frame_rate">1000</property>
  <property name="meta.media.0.codec.pix_fmt">yuvj420p</property>
  <property name="meta.media.0.codec.sample_aspect_ratio">1</property>
  <property name="meta.media.0.codec.colorspace">601</property>
  <property name="meta.media.0.codec.name">mjpeg</property>
  <property name="meta.media.0.codec.long_name">MJPEG (Motion JPEG)</property>
  <property name="meta.media.0.codec.bit_rate">0</property>
  <property name="meta.attr.0.stream.HANDLER_NAME.markup">VideoHandler</property>
  <property name="meta.attr.0.stream.ENCODER.markup">Lavc58.91.100 mjpeg</property>
  <property name="meta.attr.0.stream.DURATION.markup">00:01:04.800000000</property>
  <property name="meta.attr.COMPATIBLE_BRANDS.markup">isomiso2avc1mp41</property>
  <property name="meta.attr.MAJOR_BRAND.markup">isom</property>
  <property name="meta.attr.MINOR_VERSION.markup">512</property>
  <property name="meta.attr.ENCODER.markup">Lavf58.45.100</property>
  <property name="meta.media.sample_aspect_num">1</property>
  <property name="meta.media.sample_aspect_den">1</property>
  <property name="meta.media.frame_rate_num">25</property>
  <property name="meta.media.frame_rate_den">1</property>
  <property name="meta.media.colorspace">601</property>
  <property name="meta.media.color_trc">2</property>
  <property name="meta.media.width">960</property>
  <property name="meta.media.height">540</property>
  <property name="meta.media.color_range">full</property>
  <property name="meta.media.top_field_first">0</property>
  <property name="meta.media.progressive">1</property>
 </producer>
 <producer id="producer75" in="00:00:00.000" out="00:00:14.567">
  <property name="length">438</property>
  <property name="eof">pause</property>
  <property name="resource">content/stories/banff_hike.mp4</property>
  <property name="audio_index">-1</property>
  <property name="video_index">0</property>
  <property name="mute_on_pause">0</property>
  <property name="mlt_service">avformat-novalidate</property>
  <property name="meta.media.nb_streams">1</property>
  <property name="meta.media.0.stream.type">video</property>
  <property name="meta.media.0.stream.frame_rate">10</property>
  <property name="meta.media.0.stream.sample_aspect_ratio">0</property>
  <property name="meta.media.0.codec.width">512</property>
  <property name="meta.media.0.codec.height">512</property>
  <property name="meta.media.0.codec.rotate">0</property>
  <property name="meta.media.0.codec.frame_rate">10</property>
  <property name="meta.media.0.codec.pix_fmt">yuv444p</property>
  <property name="meta.media.0.codec.sample_aspect_ratio">0</property>
  <property name="meta.media.0.codec.colorspace">601</property>
  <property name="meta.media.0.codec.name">h264</property>
  <property name="meta.media.0.codec.long_name">H.264 / AVC / MPEG-4 AVC / MPEG-4 part 10</property>
  <property name="meta.media.0.codec.bit_rate">4744849</property>
  <property name="meta.attr.0.stream.handler_name.markup">VideoHandler</property>
  <property name="meta.attr.major_brand.markup">isom</property>
  <property name="meta.attr.minor_version.markup">512</property>
  <property name="meta.attr.compatible_brands.markup">isomiso2avc1mp41</property>
  <property name="meta.attr.encoder.markup">Lavf58.29.100</property>
  <property name="seekable">1</property>
  <property name="meta.media.sample_aspect_num">1</property>
  <property name="meta.media.sample_aspect_den">1</property>
  <property name="aspect_ratio">1</property>
  <property name="kdenlive:clipname"/>
  <property name="kdenlive:folderid">84</property>
  <property name="meta.media.frame_rate_num">10</property>
  <property name="meta.media.frame_rate_den">1</property>
  <property name="meta.media.colorspace">601</property>
  <property name="meta.media.color_trc">2</property>
  <property name="meta.media.width">512</property>
  <property name="meta.media.height">512</property>
  <property name="meta.media.color_range">mpeg</property>
  <property name="kdenlive:id">51</property>
  <property name="kdenlive:file_size">8662056</property>
  <property name="kdenlive:file_hash">77ec75db7e6a1b8a40e9925b74e3272d</property>
  <property name="meta.media.top_field_first">0</property>
  <property name="meta.media.progressive">1</property>
  <property name="global_feed">1</property>
 </producer>
 <producer id="producer74" in="00:00:00.000" out="00:00:09.367">
  <property name="length">282</property>
  <property name="eof">pause</property>
  <property name="resource">content/stories/georgian_rocks.mp4</property>
  <property name="audio_index">-1</property>
  <property name="video_index">0</property>
  <property name="mute_on_pause">0</property>
  <property name="mlt_service">avformat-novalidate</property>
  <property name="meta.media.nb_streams">1</property>
  <property name="meta.media.0.stream.type">video</property>
  <property name="meta.media.0.stream.frame_rate">10</property>
  <property name="meta.media.0.stream.sample_aspect_ratio">0</property>
  <property name="meta.media.0.codec.width">512</property>
  <property name="meta.media.0.codec.height">512</property>
  <property name="meta.media.0.codec.rotate">0</property>
  <property name="meta.media.0.codec.frame_rate">10</property>
  <property name="meta.media.0.codec.pix_fmt">yuv444p</property>
  <property name="meta.media.0.codec.sample_aspect_ratio">0</property>
  <property name="meta.media.0.codec.colorspace">601</property>
  <property name="meta.media.0.codec.name">h264</property>
  <property name="meta.media.0.codec.long_name">H.264 / AVC / MPEG-4 AVC / MPEG-4 part 10</property>
  <property name="meta.media.0.codec.bit_rate">3074788</property>
  <property name="meta.attr.0.stream.handler_name.markup">VideoHandler</property>
  <property name="meta.attr.major_brand.markup">isom</property>
  <property name="meta.attr.minor_version.markup">512</property>
  <property name="meta.attr.compatible_brands.markup">isomiso2avc1mp41</property>
  <property name="meta.attr.encoder.markup">Lavf58.29.100</property>
  <property name="seekable">1</property>
  <property name="meta.media.sample_aspect_num">1</property>
  <property name="meta.media.sample_aspect_den">1</property>
  <property name="aspect_ratio">1</property>
  <property name="kdenlive:clipname"/>
  <property name="kdenlive:folderid">84</property>
  <property name="meta.media.frame_rate_num">10</property>
  <property name="meta.media.frame_rate_den">1</property>
  <property name="meta.media.colorspace">601</property>
  <property name="meta.media.color_trc">2</property>
  <property name="meta.media.width">512</property>
  <property name="meta.media.height">512</property>
  <property name="meta.media.color_range">mpeg</property>
  <property name="kdenlive:id">52</property>
  <property name="kdenlive:file_size">3614894</property>
  <property name="kdenlive:file_hash">c3961f93df4f834a2e7d4147a4a48d96</property>
  <property name="meta.media.top_field_first">0</property>
  <property name="meta.media.progressive">1</property>
  <property name="global_feed">1</property>
 </producer>
 <producer id="producer76" in="00:00:00.000" out="00:00:15.667">
  <property name="length">471</property>
  <property name="eof">pause</property>
  <property name="resource">content/stories/mexican_beach.mp4</property>
  <property name="audio_index">-1</property>
  <property name="video_index">0</property>
  <property name="mute_on_pause">0</property>
  <property name="mlt_service">avformat-novalidate</property>
  <property name="meta.media.nb_streams">1</property>
  <property name="meta.media.0.stream.type">video</property>
  <property name="meta.media.0.stream.frame_rate">10</property>
  <property name="meta.media.0.stream.sample_aspect_ratio">0</property>
  <property name="meta.media.0.codec.width">512</property>
  <property name="meta.media.0.codec.height">512</property>
  <property name="meta.media.0.codec.rotate">0</property>
  <property name="meta.media.0.codec.frame_rate">10</property>
  <property name="meta.media.0.codec.pix_fmt">yuv444p</property>
  <property name="meta.media.0.codec.sample_aspect_ratio">0</property>
  <property name="meta.media.0.codec.colorspace">601</property>
  <property name="meta.media.0.codec.name">h264</property>
  <property name="meta.media.0.codec.long_name">H.264 / AVC / MPEG-4 AVC / MPEG-4 part 10</property>
  <property name="meta.media.0.codec.bit_rate">2530587</property>
  <property name="meta.attr.0.stream.handler_name.markup">VideoHandler</property>
  <property name="meta.attr.major_brand.markup">isom</property>
  <property name="meta.attr.minor_version.markup">512</property>
  <property name="meta.attr.compatible_brands.markup">isomiso2avc1mp41</property>
  <property name="meta.attr.encoder.markup">Lavf58.29.100</property>
  <property name="seekable">1</property>
  <property name="meta.media.sample_aspect_num">1</property>
  <property name="meta.media.sample_aspect_den">1</property>
  <property name="aspect_ratio">1</property>
  <property name="kdenlive:clipname"/>
  <property name="kdenlive:folderid">84</property>
  <property name="meta.media.frame_rate_num">10</property>
  <property name="meta.media.frame_rate_den">1</property>
  <property name="meta.media.colorspace">601</property>
  <property name="meta.media.color_trc">2</property>
  <property name="meta.media.width">512</property>
  <property name="meta.media.height">512</property>
  <property name="meta.media.color_range">mpeg</property>
  <property name="kdenlive:id">53</property>
  <property name="kdenlive:file_size">4969023</property>
  <property name="kdenlive:file_hash">982b8b3c0aae78509b57e4f5acd74d04</property>
  <property name="meta.media.top_field_first">0</property>
  <property name="meta.media.progressive">1</property>
  <property name="global_feed">1</property>
 </producer>
 <producer id="producer77" in="00:00:00.000" out="00:00:19.867">
  <property name="length">597</property>
  <property name="eof">pause</property>
  <property name="resource">content/stories/siwash_rock_seven_sisters.mp4</property>
  <property name="audio_index">-1</property>
  <property name="video_index">0</property>
  <property name="mute_on_pause">0</property>
  <property name="mlt_service">avformat-novalidate</property>
  <property name="meta.media.nb_streams">1</property>
  <property name="meta.media.0.stream.type">video</property>
  <property name="meta.media.0.stream.frame_rate">10</property>
  <property name="meta.media.0.stream.sample_aspect_ratio">0</property>
  <property name="meta.media.0.codec.width">512</property>
  <property name="meta.media.0.codec.height">512</property>
  <property name="meta.media.0.codec.rotate">0</property>
  <property name="meta.media.0.codec.frame_rate">10</property>
  <property name="meta.media.0.codec.pix_fmt">yuv444p</property>
  <property name="meta.media.0.codec.sample_aspect_ratio">0</property>
  <property name="meta.media.0.codec.colorspace">601</property>
  <property name="meta.media.0.codec.name">h264</property>
  <property name="meta.media.0.codec.long_name">H.264 / AVC / MPEG-4 AVC / MPEG-4 part 10</property>
  <property name="meta.media.0.codec.bit_rate">3015662</property>
  <property name="meta.attr.0.stream.handler_name.markup">VideoHandler</property>
  <property name="meta.attr.major_brand.markup">isom</property>
  <property name="meta.attr.minor_version.markup">512</property>
  <property name="meta.attr.compatible_brands.markup">isomiso2avc1mp41</property>
  <property name="meta.attr.encoder.markup">Lavf58.45.100</property>
  <property name="seekable">1</property>
  <property name="meta.media.sample_aspect_num">1</property>
  <property name="meta.media.sample_aspect_den">1</property>
  <property name="aspect_ratio">1</property>
  <property name="kdenlive:clipname"/>
  <property name="kdenlive:folderid">84</property>
  <property name="meta.media.frame_rate_num">10</property>
  <property name="meta.media.frame_rate_den">1</property>
  <property name="meta.media.colorspace">601</property>
  <property name="meta.media.color_trc">2</property>
  <property name="meta.media.width">512</property>
  <property name="meta.media.height">512</property>
  <property name="meta.media.color_range">mpeg</property>
  <property name="kdenlive:id">54</property>
  <property name="kdenlive:file_size">7504795</property>
  <property name="kdenlive:file_hash">531278844a05df6fab31861c508394a9</property>
  <property name="meta.media.top_field_first">0</property>
  <property name="meta.media.progressive">1</property>
  <property name="global_feed">1</property>
 </producer>
 <producer id="producer78" in="00:00:00.000" out="00:00:19.400">
  <property name="length">583</property>
  <property name="eof">pause</property>
  <property name="resource">/home/ryankelln/Documents/Projects/Active/Sound_Escapes/Mac/stories/Connorvale Park.m4a</property>
  <property name="meta.media.nb_streams">1</property>
  <property name="meta.media.0.stream.type">audio</property>
  <property name="meta.media.0.codec.sample_fmt">s16p</property>
  <property name="meta.media.0.codec.sample_rate">48000</property>
  <property name="meta.media.0.codec.channels">1</property>
  <property name="meta.media.0.codec.name">alac</property>
  <property name="meta.media.0.codec.long_name">ALAC (Apple Lossless Audio Codec)</property>
  <property name="meta.media.0.codec.bit_rate">305771</property>
  <property name="meta.attr.0.stream.creation_time.markup">2021-05-18T16:58:25.000000Z</property>
  <property name="meta.attr.0.stream.handler_name.markup">Core Media Audio</property>
  <property name="meta.attr.major_brand.markup">M4A </property>
  <property name="meta.attr.minor_version.markup">0</property>
  <property name="meta.attr.compatible_brands.markup">M4A isommp42</property>
  <property name="meta.attr.creation_time.markup">2021-05-18T16:58:25.000000Z</property>
  <property name="meta.attr.title.markup">Connorvale Park</property>
  <property name="meta.attr.iTunSMPB.markup"> 00000000 00000050 00000440 00000000000E3B70 00000000 00000000 00000000 00000000 00000000 00000000 00000000 00000000</property>
  <property name="meta.attr.encoder.markup">com.apple.VoiceMemos (Oliverâ€™s iPhone (null))</property>
  <property name="meta.attr.voice-memo-uuid.markup">02F883F6-2771-4F24-986D-E9B8904B0157</property>
  <property name="seekable">1</property>
  <property name="audio_index">0</property>
  <property name="video_index">-1</property>
  <property name="mute_on_pause">1</property>
  <property name="mlt_service">avformat</property>
  <property name="kdenlive:clipname"/>
  <property name="kdenlive:folderid">84</property>
  <property name="kdenlive:id">55</property>
  <property name="kdenlive:file_size">745741</property>
  <property name="kdenlive:file_hash">a705cff736c0701ae6659ec9ba1605ce</property>
  <property name="kdenlive:audio_max">6</property>
  <property name="global_feed">1</property>
  <property name="kdenlive:zone_in">38</property>
  <property name="kdenlive:zone_out">304</property>
  <property name="kdenlive:clipzones">[
    {
        "in": 38,
        "name": "Zone 1",
        "out": 304
    }
]
</property>
 </producer>
 <producer id="producer79" in="00:00:00.000" out="00:00:15.333">
  <property name="length">461</property>
  <property name="eof">pause</property>
  <property name="resource">/home/ryankelln/Documents/Projects/Active/Sound_Escapes/Mac/stories/George Island.m4a</property>
  <property name="meta.media.nb_streams">1</property>
  <property name="meta.media.0.stream.type">audio</property>
  <property name="meta.media.0.codec.sample_fmt">fltp</property>
  <property name="meta.media.0.codec.sample_rate">48000</property>
  <property name="meta.media.0.codec.channels">1</property>
  <property name="meta.media.0.codec.name">aac</property>
  <property name="meta.media.0.codec.long_name">AAC (Advanced Audio Coding)</property>
  <property name="meta.media.0.codec.bit_rate">65015</property>
  <property name="meta.attr.0.stream.creation_time.markup">2021-05-17T19:50:09.000000Z</property>
  <property name="meta.attr.0.stream.handler_name.markup">Core Media Audio</property>
  <property name="meta.attr.major_brand.markup">M4A </property>
  <property name="meta.attr.minor_version.markup">0</property>
  <property name="meta.attr.compatible_brands.markup">M4A isommp42</property>
  <property name="meta.attr.creation_time.markup">2021-05-17T19:50:08.000000Z</property>
  <property name="meta.attr.title.markup">George Island</property>
  <property name="meta.attr.voice-memo-uuid.markup">CC019AD0-12C1-46FB-82CB-60A825FC8D49</property>
  <property name="meta.attr.encoder.markup">com.apple.VoiceMemos (Maddy Rogersâ€™s iPhone (null))</property>
  <property name="seekable">1</property>
  <property name="audio_index">0</property>
  <property name="video_index">-1</property>
  <property name="mute_on_pause">1</property>
  <property name="mlt_service">avformat</property>
  <property name="kdenlive:clipname"/>
  <property name="kdenlive:folderid">84</property>
  <property name="kdenlive:id">56</property>
  <property name="kdenlive:file_size">129257</property>
  <property name="kdenlive:file_hash">8ab2bdd3653329cc0a9ec2942aa8aec3</property>
  <property name="kdenlive:zone_in">8</property>
  <property name="kdenlive:zone_out">461</property>
  <property name="global_feed">1</property>
 </producer>
 <producer id="producer81" in="00:00:00.000" out="00:00:36.467">
  <property name="length">1095</property>
  <property name="eof">pause</property>
  <property name="resource">/home/ryankelln/Documents/Projects/Active/Sound_Escapes/Mac/stories/mexican beach.m4a</property>
  <property name="meta.media.nb_streams">1</property>
  <property name="meta.media.0.stream.type">audio</property>
  <property name="meta.media.0.codec.sample_fmt">fltp</property>
  <property name="meta.media.0.codec.sample_rate">48000</property>
  <property name="meta.media.0.codec.channels">1</property>
  <property name="meta.media.0.codec.name">aac</property>
  <property name="meta.media.0.codec.long_name">AAC (Advanced Audio Coding)</property>
  <property name="meta.media.0.codec.bit_rate">64546</property>
  <property name="meta.attr.0.stream.creation_time.markup">2021-05-18T23:13:01.000000Z</property>
  <property name="meta.attr.0.stream.handler_name.markup">Core Media Audio</property>
  <property name="meta.attr.major_brand.markup">M4A </property>
  <property name="meta.attr.minor_version.markup">0</property>
  <property name="meta.attr.compatible_brands.markup">M4A isommp42</property>
  <property name="meta.attr.creation_time.markup">2021-05-18T23:13:01.000000Z</property>
  <property name="meta.attr.title.markup">Take 3 closet a lil faster -Mac </property>
  <property name="meta.attr.voice-memo-uuid.markup">6D232FAA-91A3-49F5-B1DF-181449BDF6E9</property>
  <property name="meta.attr.encoder.markup">com.apple.VoiceMemos (Marâ€™s iPhone (null))</property>
  <property name="seekable">1</property>
  <property name="audio_index">0</property>
  <property name="video_index">-1</property>
  <property name="mute_on_pause">1</property>
  <property name="mlt_service">avformat</property>
  <property name="kdenlive:clipname"/>
  <property name="kdenlive:folderid">84</property>
  <property name="kdenlive:id">57</property>
  <property name="kdenlive:file_size">313329</property>
  <property name="kdenlive:file_hash">07f24351b7d59b5d605c33cd8d07c536</property>
  <property name="kdenlive:audio_max">3</property>
  <property name="kdenlive:zone_in">91</property>
  <property name="kdenlive:zone_out">1052</property>
  <property name="kdenlive:clipzones">[
    {
        "in": 91,
        "name": "Zone 1",
        "out": 1052
    }
]
</property>
  <property name="global_feed">1</property>
 </producer>
 <producer id="producer80" in="00:00:00.000" out="00:00:07.967">
  <property name="length">240</property>
  <property name="eof">pause</property>
  <property name="resource">/home/ryankelln/Documents/Projects/Active/Sound_Escapes/Mac/stories/The Island.wav</property>
  <property name="meta.media.nb_streams">1</property>
  <property name="meta.media.0.stream.type">audio</property>
  <property name="meta.media.0.codec.sample_fmt">s32</property>
  <property name="meta.media.0.codec.sample_rate">48000</property>
  <property name="meta.media.0.codec.channels">2</property>
  <property name="meta.media.0.codec.name">pcm_s24le</property>
  <property name="meta.media.0.codec.long_name">PCM signed 24-bit little-endian</property>
  <property name="meta.media.0.codec.bit_rate">2304000</property>
  <property name="meta.attr.encoded_by.markup">Logic Pro X</property>
  <property name="meta.attr.date.markup">2021-05-17</property>
  <property name="meta.attr.creation_time.markup">16:22:16</property>
  <property name="meta.attr.time_reference.markup">172800000</property>
  <property name="meta.attr.umid.markup">0x0000000000000000000000000000000000000000000000000000000000000000000000000000000000000000183ECD6B01000000000000000000000000000000</property>
  <property name="seekable">1</property>
  <property name="audio_index">0</property>
  <property name="video_index">-1</property>
  <property name="mute_on_pause">1</property>
  <property name="mlt_service">avformat</property>
  <property name="kdenlive:clipname"/>
  <property name="kdenlive:folderid">84</property>
  <property name="kdenlive:id">58</property>
  <property name="kdenlive:file_size">2308136</property>
  <property name="kdenlive:file_hash">6b286b1e1f70ca074030140755d92587</property>
 </producer>
 <producer id="producer82" in="00:00:00.000" out="00:07:10.800">
  <property name="length">12925</property>
  <property name="eof">pause</property>
  <property name="resource">content/stories/Sound Escapes Stories Comp_FINAL.mp3</property>
  <property name="meta.media.nb_streams">1</property>
  <property name="meta.media.0.stream.type">audio</property>
  <property name="meta.media.0.codec.sample_fmt">fltp</property>
  <property name="meta.media.0.codec.sample_rate">48000</property>
  <property name="meta.media.0.codec.channels">2</property>
  <property name="meta.media.0.codec.name">mp3float</property>
  <property name="meta.media.0.codec.long_name">MP3 (MPEG audio layer 3)</property>
  <property name="meta.media.0.codec.bit_rate">256000</property>
  <property name="meta.attr.title.markup">Sound Escapes Stories Comp_FIN</property>
  <property name="meta.attr.date.markup">2021</property>
  <property name="meta.attr.track.markup">1</property>
  <property name="seekable">1</property>
  <property name="audio_index">0</property>
  <property name="video_index">-1</property>
  <property name="mute_on_pause">1</property>
  <property name="mlt_service">avformat</property>
  <property name="kdenlive:clipname"/>
  <property name="kdenlive:folderid">84</property>
  <property name="kdenlive:id">59</property>
  <property name="kdenlive:file_size">13786496</property>
  <property name="kdenlive:file_hash">ca57d4c0ba9462cdb9cad7801c186e91</property>
  <property name="kdenlive:audio_max">8</property>
  <property name="global_feed">1</property>
 </producer>
 <producer id="producer83" in="00:00:00.000" out="00:01:18.100">
  <property name="length">2344</property>
  <property name="eof">pause</property>
  <property name="resource">/home/ryankelln/.cache/kdenlive/proxy/372f8af97e180bb42333541213265132.mkv</property>
  <property name="audio_index">-1</property>
  <property name="video_index">0</property>
  <property name="mute_on_pause">0</property>
  <property name="mlt_service">avformat-novalidate</property>
  <property name="seekable">1</property>
  <property name="aspect_ratio">1</property>
  <property name="kdenlive:clipname">stories2_v1.mp4</property>
  <property name="kdenlive:folderid">84</property>
  <property name="kdenlive:id">60</property>
  <property name="kdenlive:file_size">71761897</property>
  <property name="kdenlive:file_hash">372f8af97e180bb42333541213265132</property>
  <property name="kdenlive:proxy">/home/ryankelln/.cache/kdenlive/proxy/372f8af97e180bb42333541213265132.mkv</property>
  <property name="kdenlive:originalurl">content/stories/stories2_v1.mp4</property>
  <property name="kdenlive:original.mlt_type">producer</property>
  <property name="kdenlive:original.in">0</property>
  <property name="kdenlive:original.out">2343</property>
  <property name="kdenlive:original.length">2344</property>
  <property name="kdenlive:original.eof">pause</property>
  <property name="kdenlive:original.resource">content/stories/stories2_v1.mp4</property>
  <property name="kdenlive:original.meta.media.nb_streams">1</property>
  <property name="kdenlive:original.meta.media.0.stream.type">video</property>
  <property name="kdenlive:original.meta.media.0.stream.frame_rate">25</property>
  <property name="kdenlive:original.meta.media.0.stream.sample_aspect_ratio">1</property>
  <property name="kdenlive:original.meta.media.0.codec.width">1080</property>
  <property name="kdenlive:original.meta.media.0.codec.height">1080</property>
  <property name="kdenlive:original.meta.media.0.codec.rotate">0</property>
  <property name="kdenlive:original.meta.media.0.codec.frame_rate">25</property>
  <property name="kdenlive:original.meta.media.0.codec.pix_fmt">yuvj420p</property>
  <property name="kdenlive:original.meta.media.0.codec.sample_aspect_ratio">1</property>
  <property name="kdenlive:original.meta.media.0.codec.colorspace">601</property>
  <property name="kdenlive:original.meta.media.0.codec.name">h264</property>
  <property name="kdenlive:original.meta.media.0.codec.long_name">H.264 / AVC / MPEG-4 AVC / MPEG-4 part 10</property>
  <property name="kdenlive:original.meta.media.0.codec.bit_rate">7347561</property>
  <property name="kdenlive:original.meta.attr.0.stream.handler_name.markup">VideoHandler</property>
  <property name="kdenlive:original.meta.attr.major_brand.markup">isom</property>
  <property name="kdenlive:original.meta.attr.minor_version.markup">512</property>
  <property name="kdenlive:original.meta.attr.compatible_brands.markup">isomiso2avc1mp41</property>
  <property name="kdenlive:original.meta.attr.encoder.markup">Lavf58.76.100</property>
  <property name="kdenlive:original.seekable">1</property>
  <property name="kdenlive:original.width">1080</property>
  <property name="kdenlive:original.height">1080</property>
  <property name="kdenlive:original.meta.media.sample_aspect_num">1</property>
  <property name="kdenlive:original.meta.media.sample_aspect_den">1</property>
  <property name="kdenlive:original.aspect_ratio">1</property>
  <property name="kdenlive:original.audio_index">-1</property>
  <property name="kdenlive:original.video_index">0</property>
  <property name="kdenlive:original.mute_on_pause">0</property>
  <property name="kdenlive:original.mlt_service">avformat-novalidate</property>
  <property name="kdenlive:original.kdenlive:folderid">84</property>
  <property name="kdenlive:original.meta.media.frame_rate_num">25</property>
  <property name="kdenlive:original.meta.media.frame_rate_den">1</property>
  <property name="kdenlive:original.meta.media.colorspace">601</property>
  <property name="kdenlive:original.meta.media.color_trc">2</property>
  <property name="kdenlive:original.meta.media.width">1080</property>
  <property name="kdenlive:original.meta.media.height">1080</property>
  <property name="kdenlive:original.meta.media.color_range">full</property>
  <property name="kdenlive:original.kdenlive:id">99</property>
  <property name="kdenlive:original.kdenlive:file_size">71761897</property>
  <property name="kdenlive:original.kdenlive:file_hash">372f8af97e180bb42333541213265132</property>
  <property name="kdenlive:original.backup">1</property>
  <property name="global_feed">1</property>
  <property name="meta.media.nb_streams">1</property>
  <property name="meta.media.0.stream.type">video</property>
  <property name="meta.media.0.stream.frame_rate">25</property>
  <property name="meta.media.0.stream.sample_aspect_ratio">1</property>
  <property name="meta.media.0.codec.width">960</property>
  <property name="meta.media.0.codec.height">960</property>
  <property name="meta.media.0.codec.rotate">0</property>
  <property name="meta.media.0.codec.frame_rate">1000</property>
  <property name="meta.media.0.codec.pix_fmt">yuvj420p</property>
  <property name="meta.media.0.codec.sample_aspect_ratio">1</property>
  <property name="meta.media.0.codec.colorspace">601</property>
  <property name="meta.media.0.codec.name">mjpeg</property>
  <property name="meta.media.0.codec.long_name">MJPEG (Motion JPEG)</property>
  <property name="meta.media.0.codec.bit_rate">0</property>
  <property name="meta.attr.0.stream.HANDLER_NAME.markup">VideoHandler</property>
  <property name="meta.attr.0.stream.ENCODER.markup">Lavc58.91.100 mjpeg</property>
  <property name="meta.attr.0.stream.DURATION.markup">00:01:18.120000000</property>
  <property name="meta.attr.COMPATIBLE_BRANDS.markup">isomiso2avc1mp41</property>
  <property name="meta.attr.MAJOR_BRAND.markup">isom</property>
  <property name="meta.attr.MINOR_VERSION.markup">512</property>
  <property name="meta.attr.ENCODER.markup">Lavf58.45.100</property>
  <property name="meta.media.sample_aspect_num">1</property>
  <property name="meta.media.sample_aspect_den">1</property>
  <property name="meta.media.frame_rate_num">25</property>
  <property name="meta.media.frame_rate_den">1</property>
  <property name="meta.media.colorspace">601</property>
  <property name="meta.media.color_trc">2</property>
  <property name="meta.media.width">960</property>
  <property name="meta.media.height">960</property>
  <property name="meta.media.color_range">full</property>
  <property name="meta.media.top_field_first">0</property>
  <property name="meta.media.progressive">1</property>
 </producer>
 <producer id="producer84" in="00:00:00.000" out="00:01:17.967">
  <property name="length">2340</property>
  <property name="eof">pause</property>
  <property name="resource">/home/ryankelln/.cache/kdenlive/proxy/bb6ab234ef9c6e0b3dd4c3f1c7cbcfb3.mkv</property>
  <property name="audio_index">-1</property>
  <property name="video_index">0</property>
  <property name="mute_on_pause">0</property>
  <property name="mlt_service">avformat-novalidate</property>
  <property name="seekable">1</property>
  <property name="aspect_ratio">1</property>
  <property name="kdenlive:clipname">stories3_v1.mp4</property>
  <property name="kdenlive:folderid">84</property>
  <property name="kdenlive:id">61</property>
  <property name="kdenlive:file_size">74275789</property>
  <property name="kdenlive:file_hash">bb6ab234ef9c6e0b3dd4c3f1c7cbcfb3</property>
  <property name="kdenlive:proxy">/home/ryankelln/.cache/kdenlive/proxy/bb6ab234ef9c6e0b3dd4c3f1c7cbcfb3.mkv</property>
  <property name="kdenlive:originalurl">content/stories/stories3_v1.mp4</property>
  <property name="kdenlive:original.mlt_type">producer</property>
  <property name="kdenlive:original.in">0</property>
  <property name="kdenlive:original.out">2339</property>
  <property name="kdenlive:original.length">2340</property>
  <property name="kdenlive:original.eof">pause</property>
  <property name="kdenlive:original.resource">content/stories/stories3_v1.mp4</property>
  <property name="kdenlive:original.meta.media.nb_streams">1</property>
  <property name="kdenlive:original.meta.media.0.stream.type">video</property>
  <property name="kdenlive:original.meta.media.0.stream.frame_rate">25</property>
  <property name="kdenlive:original.meta.media.0.stream.sample_aspect_ratio">1</property>
  <property name="kdenlive:original.meta.media.0.codec.width">1200</property>
  <property name="kdenlive:original.meta.media.0.codec.height">1200</property>
  <property name="kdenlive:original.meta.media.0.codec.rotate">0</property>
  <property name="kdenlive:original.meta.media.0.codec.frame_rate">25</property>
  <property name="kdenlive:original.meta.media.0.codec.pix_fmt">yuvj420p</property>
  <property name="kdenlive:original.meta.media.0.codec.sample_aspect_ratio">1</property>
  <property name="kdenlive:original.meta.media.0.codec.colorspace">601</property>
  <property name="kdenlive:original.meta.media.0.codec.name">h264</property>
  <property name="kdenlive:original.meta.media.0.codec.long_name">H.264 / AVC / MPEG-4 AVC / MPEG-4 part 10</property>
  <property name="kdenlive:original.meta.media.0.codec.bit_rate">7616663</property>
  <property name="kdenlive:original.meta.attr.0.stream.handler_name.markup">VideoHandler</property>
  <property name="kdenlive:original.meta.attr.major_brand.markup">isom</property>
  <property name="kdenlive:original.meta.attr.minor_version.markup">512</property>
  <property name="kdenlive:original.meta.attr.compatible_brands.markup">isomiso2avc1mp41</property>
  <property name="kdenlive:original.meta.attr.encoder.markup">Lavf58.76.100</property>
  <property name="kdenlive:original.seekable">1</property>
  <property name="kdenlive:original.width">1200</property>
  <property name="kdenlive:original.height">1200</property>
  <property name="kdenlive:original.meta.media.sample_aspect_num">1</property>
  <property name="kdenlive:original.meta.media.sample_aspect_den">1</property>
  <property name="kdenlive:original.aspect_ratio">1</property>
  <property name="kdenlive:original.audio_index">-1</property>
  <property name="kdenlive:original.video_index">0</property>
  <property name="kdenlive:original.mute_on_pause">0</property>
  <property name="kdenlive:original.mlt_service">avformat-novalidate</property>
  <property name="kdenlive:original.kdenlive:folderid">84</property>
  <property name="kdenlive:original.meta.media.frame_rate_num">25</property>
  <property name="kdenlive:original.meta.media.frame_rate_den">1</property>
  <property name="kdenlive:original.meta.media.colorspace">601</property>
  <property name="kdenlive:original.meta.media.color_trc">2</property>
  <property name="kdenlive:original.meta.media.width">1200</property>
  <property name="kdenlive:original.meta.media.height">1200</property>
  <property name="kdenlive:original.meta.media.color_range">full</property>
  <property name="kdenlive:original.kdenlive:id">100</property>
  <property name="kdenlive:original.kdenlive:file_size">74275789</property>
  <property name="kdenlive:original.kdenlive:file_hash">bb6ab234ef9c6e0b3dd4c3f1c7cbcfb3</property>
  <property name="kdenlive:original.backup">1</property>
  <property name="global_feed">1</property>
  <property name="meta.media.nb_streams">1</property>
  <property name="meta.media.0.stream.type">video</property>
  <property name="meta.media.0.stream.frame_rate">25</property>
  <property name="meta.media.0.stream.sample_aspect_ratio">1</property>
  <property name="meta.media.0.codec.width">960</property>
  <property name="meta.media.0.codec.height">960</property>
  <property name="meta.media.0.codec.rotate">0</property>
  <property name="meta.media.0.codec.frame_rate">1000</property>
  <property name="meta.media.0.codec.pix_fmt">yuvj420p</property>
  <property name="meta.media.0.codec.sample_aspect_ratio">1</property>
  <property name="meta.media.0.codec.colorspace">601</property>
  <property name="meta.media.0.codec.name">mjpeg</property>
  <property name="meta.media.0.codec.long_name">MJPEG (Motion JPEG)</property>
  <property name="meta.media.0.codec.bit_rate">0</property>
  <property name="meta.attr.0.stream.HANDLER_NAME.markup">VideoHandler</property>
  <property name="meta.attr.0.stream.ENCODER.markup">Lavc58.91.100 mjpeg</property>
  <property name="meta.attr.0.stream.DURATION.markup">00:01:18.000000000</property>
  <property name="meta.attr.COMPATIBLE_BRANDS.markup">isomiso2avc1mp41</property>
  <property name="meta.attr.MAJOR_BRAND.markup">isom</property>
  <property name="meta.attr.MINOR_VERSION.markup">512</property>
  <property name="meta.attr.ENCODER.markup">Lavf58.45.100</property>
  <property name="meta.media.sample_aspect_num">1</property>
  <property name="meta.media.sample_aspect_den">1</property>
  <property name="meta.media.frame_rate_num">25</property>
  <property name="meta.media.frame_rate_den">1</property>
  <property name="meta.media.colorspace">601</property>
  <property name="meta.media.color_trc">2</property>
  <property name="meta.media.width">960</property>
  <property name="meta.media.height">960</property>
  <property name="meta.media.color_range">full</property>
  <property name="meta.media.top_field_first">0</property>
  <property name="meta.media.progressive">1</property>
 </producer>
 <producer id="producer0" in="00:00:00.000" out="00:00:20.467">
  <property name="length">615</property>
  <property name="eof">pause</property>
  <property name="resource">0xffffffff</property>
  <property name="aspect_ratio">1</property>
  <property name="mlt_service">color</property>
  <property name="kdenlive:clipname">Color Clip</property>
  <property name="kdenlive:duration">00:00:05.000</property>
  <property name="kdenlive:folderid">65</property>
  <property name="kdenlive:id">62</property>
  <property name="mlt_image_format">rgb24</property>
  <property name="kdenlive:file_hash">039b56a692cd66eefeea44a17539e5a2</property>
 </producer>
 <producer id="producer1" in="00:00:00.000" out="00:00:38.833">
  <property name="length">1167</property>
  <property name="eof">pause</property>
  <property name="resource">/home/ryankelln/.cache/kdenlive/proxy/30ca3f1d3c9f18d29159742999b79d39.mkv</property>
  <property name="audio_index">1</property>
  <property name="video_index">0</property>
  <property name="mute_on_pause">0</property>
  <property name="mlt_service">avformat-novalidate</property>
  <property name="seekable">1</property>
  <property name="aspect_ratio">1</property>
  <property name="kdenlive:clipname">2021-05-18 23-01-54.mp4</property>
  <property name="kdenlive:folderid">-1</property>
  <property name="kdenlive:id">64</property>
  <property name="kdenlive:file_size">12540190</property>
  <property name="kdenlive:file_hash">30ca3f1d3c9f18d29159742999b79d39</property>
  <property name="kdenlive:proxy">/home/ryankelln/.cache/kdenlive/proxy/30ca3f1d3c9f18d29159742999b79d39.mkv</property>
  <property name="kdenlive:originalurl">/home/ryankelln/Documents/Projects/Active/Sound_Escapes/Mac/from_sol/golden-ratio/2021-05-18 23-01-54.mp4</property>
  <property name="kdenlive:original.mlt_type">producer</property>
  <property name="kdenlive:original.in">0</property>
  <property name="kdenlive:original.out">1166</property>
  <property name="kdenlive:original.length">1167</property>
  <property name="kdenlive:original.eof">pause</property>
  <property name="kdenlive:original.resource">/home/ryankelln/Documents/Projects/Active/Sound_Escapes/Mac/from_sol/golden-ratio/2021-05-18 23-01-54.mp4</property>
  <property name="kdenlive:original.meta.media.nb_streams">2</property>
  <property name="kdenlive:original.meta.media.0.stream.type">video</property>
  <property name="kdenlive:original.meta.media.0.stream.frame_rate">30</property>
  <property name="kdenlive:original.meta.media.0.stream.sample_aspect_ratio">0</property>
  <property name="kdenlive:original.meta.media.0.codec.width">1280</property>
  <property name="kdenlive:original.meta.media.0.codec.height">720</property>
  <property name="kdenlive:original.meta.media.0.codec.rotate">0</property>
  <property name="kdenlive:original.meta.media.0.codec.frame_rate">30</property>
  <property name="kdenlive:original.meta.media.0.codec.pix_fmt">yuv420p</property>
  <property name="kdenlive:original.meta.media.0.codec.sample_aspect_ratio">1</property>
  <property name="kdenlive:original.meta.media.0.codec.colorspace">709</property>
  <property name="kdenlive:original.meta.media.0.codec.color_trc">1</property>
  <property name="kdenlive:original.meta.media.0.codec.name">h264</property>
  <property name="kdenlive:original.meta.media.0.codec.long_name">H.264 / AVC / MPEG-4 AVC / MPEG-4 part 10</property>
  <property name="kdenlive:original.meta.media.0.codec.bit_rate">2568172</property>
  <property name="kdenlive:original.meta.attr.0.stream.handler_name.markup">VideoHandler</property>
  <property name="kdenlive:original.meta.media.1.stream.type">audio</property>
  <property name="kdenlive:original.meta.media.1.codec.sample_fmt">fltp</property>
  <property name="kdenlive:original.meta.media.1.codec.sample_rate">48000</property>
  <property name="kdenlive:original.meta.media.1.codec.channels">2</property>
  <property name="kdenlive:original.meta.media.1.codec.name">aac</property>
  <property name="kdenlive:original.meta.media.1.codec.long_name">AAC (Advanced Audio Coding)</property>
  <property name="kdenlive:original.meta.media.1.codec.bit_rate">2275</property>
  <property name="kdenlive:original.meta.attr.1.stream.handler_name.markup">SoundHandler</property>
  <property name="kdenlive:original.meta.attr.major_brand.markup">isom</property>
  <property name="kdenlive:original.meta.attr.minor_version.markup">512</property>
  <property name="kdenlive:original.meta.attr.compatible_brands.markup">isomiso2avc1mp41</property>
  <property name="kdenlive:original.meta.attr.encoder.markup">Lavf58.29.100</property>
  <property name="kdenlive:original.seekable">1</property>
  <property name="kdenlive:original.width">1280</property>
  <property name="kdenlive:original.height">720</property>
  <property name="kdenlive:original.meta.media.sample_aspect_num">1</property>
  <property name="kdenlive:original.meta.media.sample_aspect_den">1</property>
  <property name="kdenlive:original.aspect_ratio">1</property>
  <property name="kdenlive:original.audio_index">1</property>
  <property name="kdenlive:original.video_index">0</property>
  <property name="kdenlive:original.mute_on_pause">0</property>
  <property name="kdenlive:original.mlt_service">avformat-novalidate</property>
  <property name="kdenlive:original.kdenlive:folderid">-1</property>
  <property name="kdenlive:original.meta.media.frame_rate_num">30</property>
  <property name="kdenlive:original.meta.media.frame_rate_den">1</property>
  <property name="kdenlive:original.meta.media.colorspace">709</property>
  <property name="kdenlive:original.meta.media.color_trc">1</property>
  <property name="kdenlive:original.meta.media.width">1280</property>
  <property name="kdenlive:original.meta.media.height">720</property>
  <property name="kdenlive:original.meta.media.color_range">mpeg</property>
  <property name="kdenlive:original.kdenlive:id">77</property>
  <property name="kdenlive:original.kdenlive:file_size">12540190</property>
  <property name="kdenlive:original.kdenlive:file_hash">30ca3f1d3c9f18d29159742999b79d39</property>
  <property name="kdenlive:original.backup">1</property>
  <property name="global_feed">1</property>
  <property name="meta.media.nb_streams">2</property>
  <property name="meta.media.0.stream.type">video</property>
  <property name="meta.media.0.stream.frame_rate">30</property>
  <property name="meta.media.0.stream.sample_aspect_ratio">1</property>
  <property name="meta.media.0.codec.width">960</property>
  <property name="meta.media.0.codec.height">540</property>
  <property name="meta.media.0.codec.rotate">0</property>
  <property name="meta.media.0.codec.frame_rate">1000</property>
  <property name="meta.media.0.codec.pix_fmt">yuvj420p</property>
  <property name="meta.media.0.codec.sample_aspect_ratio">1</property>
  <property name="meta.media.0.codec.colorspace">601</property>
  <property name="meta.media.0.codec.name">mjpeg</property>
  <property name="meta.media.0.codec.long_name">MJPEG (Motion JPEG)</property>
  <property name="meta.media.0.codec.bit_rate">0</property>
  <property name="meta.attr.0.stream.HANDLER_NAME.markup">VideoHandler</property>
  <property name="meta.attr.0.stream.ENCODER.markup">Lavc58.91.100 mjpeg</property>
  <property name="meta.attr.0.stream.DURATION.markup">00:00:38.866000000</property>
  <property name="meta.media.1.stream.type">audio</property>
  <property name="meta.media.1.codec.sample_fmt">s16</property>
  <property name="meta.media.1.codec.sample_rate">48000</property>
  <property name="meta.media.1.codec.channels">2</property>
  <property name="meta.media.1.codec.name">pcm_s16le</property>
  <property name="meta.media.1.codec.long_name">PCM signed 16-bit little-endian</property>
  <property name="meta.media.1.codec.bit_rate">1536000</property>
  <property name="meta.attr.1.stream.HANDLER_NAME.markup">SoundHandler</property>
  <property name="meta.attr.1.stream.ENCODER.markup">Lavc58.91.100 pcm_s16le</property>
  <property name="meta.attr.1.stream.DURATION.markup">00:00:38.848000000</property>
  <property name="meta.attr.COMPATIBLE_BRANDS.markup">isomiso2avc1mp41</property>
  <property name="meta.attr.MAJOR_BRAND.markup">isom</property>
  <property name="meta.attr.MINOR_VERSION.markup">512</property>
  <property name="meta.attr.ENCODER.markup">Lavf58.45.100</property>
  <property name="meta.media.sample_aspect_num">1</property>
  <property name="meta.media.sample_aspect_den">1</property>
  <property name="meta.media.frame_rate_num">30</property>
  <property name="meta.media.frame_rate_den">1</property>
  <property name="meta.media.colorspace">601</property>
  <property name="meta.media.color_trc">2</property>
  <property name="meta.media.width">960</property>
  <property name="meta.media.height">540</property>
  <property name="meta.media.color_range">full</property>
  <property name="meta.media.top_field_first">0</property>
  <property name="meta.media.progressive">1</property>
  <property name="kdenlive:zone_in">964</property>
  <property name="kdenlive:zone_out">1167</property>
  <property name="kdenlive:clipzones">[
    {
        "in": 964,
        "name": "Zone 1",
        "out": 1167
    }
]
</property>
 </producer>
 <producer id="producer2" in="00:00:00.000" out="00:01:04.833">
  <property name="length">1947</property>
  <property name="eof">pause</property>
  <property name="resource">/home/ryankelln/.cache/kdenlive/proxy/346124284c27e48b631383483782dca4.mkv</property>
  <property name="audio_index">1</property>
  <property name="video_index">0</property>
  <property name="mute_on_pause">0</property>
  <property name="mlt_service">avformat-novalidate</property>
  <property name="seekable">1</property>
  <property name="aspect_ratio">1</property>
  <property name="kdenlive:clipname">2021-05-18 23-19-52.mp4</property>
  <property name="kdenlive:folderid">-1</property>
  <property name="kdenlive:id">66</property>
  <property name="kdenlive:file_size">20337179</property>
  <property name="kdenlive:file_hash">346124284c27e48b631383483782dca4</property>
  <property name="kdenlive:proxy">/home/ryankelln/.cache/kdenlive/proxy/346124284c27e48b631383483782dca4.mkv</property>
  <property name="kdenlive:originalurl">/home/ryankelln/Documents/Projects/Active/Sound_Escapes/Mac/from_sol/golden-ratio/2021-05-18 23-19-52.mp4</property>
  <property name="kdenlive:original.mlt_type">producer</property>
  <property name="kdenlive:original.in">0</property>
  <property name="kdenlive:original.out">1946</property>
  <property name="kdenlive:original.length">1947</property>
  <property name="kdenlive:original.eof">pause</property>
  <property name="kdenlive:original.resource">/home/ryankelln/Documents/Projects/Active/Sound_Escapes/Mac/from_sol/golden-ratio/2021-05-18 23-19-52.mp4</property>
  <property name="kdenlive:original.meta.media.nb_streams">2</property>
  <property name="kdenlive:original.meta.media.0.stream.type">video</property>
  <property name="kdenlive:original.meta.media.0.stream.frame_rate">30</property>
  <property name="kdenlive:original.meta.media.0.stream.sample_aspect_ratio">0</property>
  <property name="kdenlive:original.meta.media.0.codec.width">1280</property>
  <property name="kdenlive:original.meta.media.0.codec.height">720</property>
  <property name="kdenlive:original.meta.media.0.codec.rotate">0</property>
  <property name="kdenlive:original.meta.media.0.codec.frame_rate">30</property>
  <property name="kdenlive:original.meta.media.0.codec.pix_fmt">yuv420p</property>
  <property name="kdenlive:original.meta.media.0.codec.sample_aspect_ratio">1</property>
  <property name="kdenlive:original.meta.media.0.codec.colorspace">709</property>
  <property name="kdenlive:original.meta.media.0.codec.color_trc">1</property>
  <property name="kdenlive:original.meta.media.0.codec.name">h264</property>
  <property name="kdenlive:original.meta.media.0.codec.long_name">H.264 / AVC / MPEG-4 AVC / MPEG-4 part 10</property>
  <property name="kdenlive:original.meta.media.0.codec.bit_rate">2496223</property>
  <property name="kdenlive:original.meta.attr.0.stream.handler_name.markup">VideoHandler</property>
  <property name="kdenlive:original.meta.media.1.stream.type">audio</property>
  <property name="kdenlive:original.meta.media.1.codec.sample_fmt">fltp</property>
  <property name="kdenlive:original.meta.media.1.codec.sample_rate">48000</property>
  <property name="kdenlive:original.meta.media.1.codec.channels">2</property>
  <property name="kdenlive:original.meta.media.1.codec.name">aac</property>
  <property name="kdenlive:original.meta.media.1.codec.long_name">AAC (Advanced Audio Coding)</property>
  <property name="kdenlive:original.meta.media.1.codec.bit_rate">2273</property>
  <property name="kdenlive:original.meta.attr.1.stream.handler_name.markup">SoundHandler</property>
  <property name="kdenlive:original.meta.attr.major_brand.markup">isom</property>
  <property name="kdenlive:original.meta.attr.minor_version.markup">512</property>
  <property name="kdenlive:original.meta.attr.compatible_brands.markup">isomiso2avc1mp41</property>
  <property name="kdenlive:original.meta.attr.encoder.markup">Lavf58.29.100</property>
  <property name="kdenlive:original.seekable">1</property>
  <property name="kdenlive:original.width">1280</property>
  <property name="kdenlive:original.height">720</property>
  <property name="kdenlive:original.meta.media.sample_aspect_num">1</property>
  <property name="kdenlive:original.meta.media.sample_aspect_den">1</property>
  <property name="kdenlive:original.aspect_ratio">1</property>
  <property name="kdenlive:original.audio_index">1</property>
  <property name="kdenlive:original.video_index">0</property>
  <property name="kdenlive:original.mute_on_pause">0</property>
  <property name="kdenlive:original.mlt_service">avformat-novalidate</property>
  <property name="kdenlive:original.kdenlive:folderid">-1</property>
  <property name="kdenlive:original.meta.media.frame_rate_num">30</property>
  <property name="kdenlive:original.meta.media.frame_rate_den">1</property>
  <property name="kdenlive:original.meta.media.colorspace">709</property>
  <property name="kdenlive:original.meta.media.color_trc">1</property>
  <property name="kdenlive:original.meta.media.width">1280</property>
  <property name="kdenlive:original.meta.media.height">720</property>
  <property name="kdenlive:original.meta.media.color_range">mpeg</property>
  <property name="kdenlive:original.kdenlive:id">78</property>
  <property name="kdenlive:original.kdenlive:file_size">20337179</property>
  <property name="kdenlive:original.kdenlive:file_hash">346124284c27e48b631383483782dca4</property>
  <property name="kdenlive:original.backup">1</property>
  <property name="global_feed">1</property>
  <property name="kdenlive:audio_max">91</property>
  <property name="meta.media.nb_streams">2</property>
  <property name="meta.media.0.stream.type">video</property>
  <property name="meta.media.0.stream.frame_rate">30</property>
  <property name="meta.media.0.stream.sample_aspect_ratio">1</property>
  <property name="meta.media.0.codec.width">960</property>
  <property name="meta.media.0.codec.height">540</property>
  <property name="meta.media.0.codec.rotate">0</property>
  <property name="meta.media.0.codec.frame_rate">1000</property>
  <property name="meta.media.0.codec.pix_fmt">yuvj420p</property>
  <property name="meta.media.0.codec.sample_aspect_ratio">1</property>
  <property name="meta.media.0.codec.colorspace">601</property>
  <property name="meta.media.0.codec.name">mjpeg</property>
  <property name="meta.media.0.codec.long_name">MJPEG (Motion JPEG)</property>
  <property name="meta.media.0.codec.bit_rate">0</property>
  <property name="meta.attr.0.stream.HANDLER_NAME.markup">VideoHandler</property>
  <property name="meta.attr.0.stream.ENCODER.markup">Lavc58.91.100 mjpeg</property>
  <property name="meta.attr.0.stream.DURATION.markup">00:01:04.866000000</property>
  <property name="meta.media.1.stream.type">audio</property>
  <property name="meta.media.1.codec.sample_fmt">s16</property>
  <property name="meta.media.1.codec.sample_rate">48000</property>
  <property name="meta.media.1.codec.channels">2</property>
  <property name="meta.media.1.codec.name">pcm_s16le</property>
  <property name="meta.media.1.codec.long_name">PCM signed 16-bit little-endian</property>
  <property name="meta.media.1.codec.bit_rate">1536000</property>
  <property name="meta.attr.1.stream.HANDLER_NAME.markup">SoundHandler</property>
  <property name="meta.attr.1.stream.ENCODER.markup">Lavc58.91.100 pcm_s16le</property>
  <property name="meta.attr.1.stream.DURATION.markup">00:01:04.874000000</property>
  <property name="meta.attr.COMPATIBLE_BRANDS.markup">isomiso2avc1mp41</property>
  <property name="meta.attr.MAJOR_BRAND.markup">isom</property>
  <property name="meta.attr.MINOR_VERSION.markup">512</property>
  <property name="meta.attr.ENCODER.markup">Lavf58.45.100</property>
  <property name="meta.media.sample_aspect_num">1</property>
  <property name="meta.media.sample_aspect_den">1</property>
  <property name="meta.media.frame_rate_num">30</property>
  <property name="meta.media.frame_rate_den">1</property>
  <property name="meta.media.colorspace">601</property>
  <property name="meta.media.color_trc">2</property>
  <property name="meta.media.width">960</property>
  <property name="meta.media.height">540</property>
  <property name="meta.media.color_range">full</property>
  <property name="meta.media.top_field_first">0</property>
  <property name="meta.media.progressive">1</property>
 </producer>
 <producer id="producer3" in="00:00:00.000" out="00:02:11.033">
  <property name="length">3932</property>
  <property name="eof">pause</property>
  <property name="resource">0xffffffff</property>
  <property name="aspect_ratio">1</property>
  <property name="mlt_service">color</property>
  <property name="kdenlive:clipname">Color Clip</property>
  <property name="kdenlive:duration">00:00:05.000</property>
  <property name="kdenlive:folderid">-1</property>
  <property name="kdenlive:id">67</property>
  <property name="mlt_image_format">rgb24</property>
  <property name="kdenlive:file_hash">039b56a692cd66eefeea44a17539e5a2</property>
 </producer>
 <producer id="producer4" in="00:00:00.000" out="00:00:04.967">
  <property name="length">00:00:05.000</property>
  <property name="eof">pause</property>
  <property name="resource">content/photos/cliff.jpg</property>
  <property name="ttl">25</property>
  <property name="aspect_ratio">1</property>
  <property name="progressive">1</property>
  <property name="seekable">1</property>
  <property name="meta.media.width">768</property>
  <property name="meta.media.height">1024</property>
  <property name="mlt_service">qimage</property>
  <property name="kdenlive:clipname"/>
  <property name="kdenlive:duration">00:00:05.000</property>
  <property name="kdenlive:folderid">81</property>
  <property name="kdenlive:id">68</property>
  <property name="kdenlive:file_size">331974</property>
  <property name="kdenlive:file_hash">be6e5879976a6f072e5cc697dde3375f</property>
  <property name="global_feed">1</property>
 </producer>
 <producer id="producer5" in="00:00:00.000" out="00:00:04.967">
  <property name="length">00:00:05.000</property>
  <property name="eof">pause</property>
  <property name="resource">content/photos/forest.jpg</property>
  <property name="ttl">25</property>
  <property name="aspect_ratio">1</property>
  <property name="progressive">1</property>
  <property name="seekable">1</property>
  <property name="meta.media.width">768</property>
  <property name="meta.media.height">1024</property>
  <property name="mlt_service">qimage</property>
  <property name="kdenlive:clipname"/>
  <property name="kdenlive:duration">00:00:05.000</property>
  <property name="kdenlive:folderid">81</property>
  <property name="kdenlive:id">69</property>
  <property name="kdenlive:file_size">469843</property>
  <property name="kdenlive:file_hash">d5d1306adc8ef8dd06ad7e7935c8b41a</property>
  <property name="global_feed">1</property>
 </producer>
 <producer id="producer6" in="00:00:00.000" out="00:00:04.967">
  <property name="length">00:00:05.000</property>
  <property name="eof">pause</property>
  <property name="resource">content/photos/georgian_bay_rocks.jpg</property>
  <property name="ttl">25</property>
  <property name="aspect_ratio">1</property>
  <property name="progressive">1</property>
  <property name="seekable">1</property>
  <property name="meta.media.width">828</property>
  <property name="meta.media.height">1104</property>
  <property name="mlt_service">qimage</property>
  <property name="kdenlive:clipname"/>
  <property name="kdenlive:duration">00:00:05.000</property>
  <property name="kdenlive:folderid">81</property>
  <property name="kdenlive:id">70</property>
  <property name="kdenlive:file_size">289617</property>
  <property name="kdenlive:file_hash">e4e471cff59c79ebe70572a077f22911</property>
 </producer>
 <producer id="producer7" in="00:00:00.000" out="00:00:04.967">
  <property name="length">00:00:05.000</property>
  <property name="eof">pause</property>
  <property name="resource">content/photos/leaves_in_sky.jpg</property>
  <property name="ttl">25</property>
  <property name="aspect_ratio">1</property>
  <property name="progressive">1</property>
  <property name="seekable">1</property>
  <property name="meta.media.width">665</property>
  <property name="meta.media.height">1182</property>
  <property name="mlt_service">qimage</property>
  <property name="kdenlive:clipname"/>
  <property name="kdenlive:duration">00:00:05.000</property>
  <property name="kdenlive:folderid">81</property>
  <property name="kdenlive:id">71</property>
  <property name="kdenlive:file_size">281985</property>
  <property name="kdenlive:file_hash">16702a537f26d43dead0973f1754e9fb</property>
 </producer>
 <producer id="producer8" in="00:00:00.000" out="00:00:04.967">
  <property name="length">00:00:05.000</property>
  <property name="eof">pause</property>
  <property name="resource">content/photos/lilypads.jpg</property>
  <property name="ttl">25</property>
  <property name="aspect_ratio">1</property>
  <property name="progressive">1</property>
  <property name="seekable">1</property>
  <property name="meta.media.width">3089</property>
  <property name="meta.media.height">2048</property>
  <property name="mlt_service">qimage</property>
  <property name="kdenlive:clipname"/>
  <property name="kdenlive:duration">00:00:05.000</property>
  <property name="kdenlive:folderid">81</property>
  <property name="kdenlive:id">72</property>
  <property name="kdenlive:file_size">3626782</property>
  <property name="kdenlive:file_hash">65d817850e61d44d795d4765653ad7af</property>
 </producer>
 <producer id="producer9" in="00:00:00.000" out="00:00:04.967">
  <property name="length">00:00:05.000</property>
  <property name="eof">pause</property>
  <property name="resource">content/photos/log.jpg</property>
  <property name="ttl">25</property>
  <property name="aspect_ratio">1</property>
  <property name="progressive">1</property>
  <property name="seekable">1</property>
  <property name="meta.media.width">768</property>
  <property name="meta.media.height">1024</property>
  <property name="mlt_service">qimage</property>
  <property name="kdenlive:clipname"/>
  <property name="kdenlive:duration">00:00:05.000</property>
  <property name="kdenlive:folderid">81</property>
  <property name="kdenlive:id">73</property>
  <property name="kdenlive:file_size">464485</property>
  <property name="kdenlive:file_hash">46d435a082efd9070ad2d5d422d86990</property>
 </producer>
 <producer id="producer10" in="00:00:00.000" out="00:00:04.967">
  <property name="length">00:00:05.000</property>
  <property name="eof">pause</property>
  <property name="resource">content/photos/moonrise.jpg</property>
  <property name="ttl">25</property>
  <property name="aspect_ratio">1</property>
  <property name="progressive">1</property>
  <property name="seekable">1</property>
  <property name="meta.media.width">1024</property>
  <property name="meta.media.height">768</property>
  <property name="mlt_service">qimage</property>
  <property name="kdenlive:clipname"/>
  <property name="kdenlive:duration">00:00:05.000</property>
  <property name="kdenlive:folderid">81</property>
  <property name="kdenlive:id">74</property>
  <property name="kdenlive:file_size">172812</property>
  <property name="kdenlive:file_hash">d6c58b922fbe112e369573f722fa5cc4</property>
 </producer>
 <producer id="producer11" in="00:00:00.000" out="00:00:04.967">
  <property name="length">00:00:05.000</property>
  <property name="eof">pause</property>
  <property name="resource">content/photos/reflective_lakes.jpg</property>
  <property name="ttl">25</property>
  <property name="aspect_ratio">1</property>
  <property name="progressive">1</property>
  <property name="seekable">1</property>
  <property name="meta.media.width">1080</property>
  <property name="meta.media.height">726</property>
  <property name="mlt_service">qimage</property>
  <property name="kdenlive:clipname"/>
  <property name="kdenlive:duration">00:00:05.000</property>
  <property name="kdenlive:folderid">81</property>
  <property name="kdenlive:id">75</property>
  <property name="kdenlive:file_size">37711</property>
  <property name="kdenlive:file_hash">fff1e7d41eb183b3394045234869aab4</property>
 </producer>
 <producer id="producer12" in="00:00:00.000" out="00:00:04.967">
  <property name="length">00:00:05.000</property>
  <property name="eof">pause</property>
  <property name="resource">content/photos/ripples.jpg</property>
  <property name="ttl">25</property>
  <property name="aspect_ratio">1</property>
  <property name="progressive">1</property>
  <property name="seekable">1</property>
  <property name="meta.media.width">3089</property>
  <property name="meta.media.height">2048</property>
  <property name="mlt_service">qimage</property>
  <property name="kdenlive:clipname"/>
  <property name="kdenlive:duration">00:00:05.000</property>
  <property name="kdenlive:folderid">81</property>
  <property name="kdenlive:id">76</property>
  <property name="kdenlive:file_size">3329899</property>
  <property name="kdenlive:file_hash">f76dd55336dcff09101e5d307a305b7a</property>
 </producer>
 <producer id="producer14" in="00:00:00.000" out="00:00:04.967">
  <property name="length">00:00:05.000</property>
  <property name="eof">pause</property>
  <property name="resource">content/photos/rock_and_reflection.jpg</property>
  <property name="ttl">25</property>
  <property name="aspect_ratio">1</property>
  <property name="progressive">1</property>
  <property name="seekable">1</property>
  <property name="meta.media.width">3089</property>
  <property name="meta.media.height">2048</property>
  <property name="mlt_service">qimage</property>
  <property name="kdenlive:clipname"/>
  <property name="kdenlive:duration">00:00:05.000</property>
  <property name="kdenlive:folderid">81</property>
  <property name="kdenlive:id">77</property>
  <property name="kdenlive:file_size">4245640</property>
  <property name="kdenlive:file_hash">18341492d834d18908c4f8810fbdee6c</property>
 </producer>
 <producer id="producer13" in="00:00:00.000" out="00:00:04.967">
  <property name="length">00:00:05.000</property>
  <property name="eof">pause</property>
  <property name="resource">content/photos/rocks_waves.jpg</property>
  <property name="ttl">25</property>
  <property name="aspect_ratio">1</property>
  <property name="progressive">1</property>
  <property name="seekable">1</property>
  <property name="meta.media.width">1024</property>
  <property name="meta.media.height">1024</property>
  <property name="mlt_service">qimage</property>
  <property name="kdenlive:clipname"/>
  <property name="kdenlive:duration">00:00:05.000</property>
  <property name="kdenlive:folderid">81</property>
  <property name="kdenlive:id">78</property>
  <property name="kdenlive:file_size">525803</property>
  <property name="kdenlive:file_hash">b85f92aad6c115f0ebe20d95430fcbf1</property>
 </producer>
 <producer id="producer15" in="00:00:00.000" out="00:00:04.967">
  <property name="length">00:00:05.000</property>
  <property name="eof">pause</property>
  <property name="resource">content/photos/seaside.jpg</property>
  <property name="ttl">25</property>
  <property name="aspect_ratio">1</property>
  <property name="progressive">1</property>
  <property name="seekable">1</property>
  <property name="meta.media.width">1024</property>
  <property name="meta.media.height">768</property>
  <property name="mlt_service">qimage</property>
  <property name="kdenlive:clipname"/>
  <property name="kdenlive:duration">00:00:05.000</property>
  <property name="kdenlive:folderid">81</property>
  <property name="kdenlive:id">79</property>
  <property name="kdenlive:file_size">202769</property>
  <property name="kdenlive:file_hash">5426506bb1c04e7edf128fccd3c4518c</property>
 </producer>
 <producer id="producer16" in="00:00:00.000" out="00:00:04.967">
  <property name="length">00:00:05.000</property>
  <property name="eof">pause</property>
  <property name="resource">content/photos/seaside_sunset.jpg</property>
  <property name="ttl">25</property>
  <property name="aspect_ratio">1</property>
  <property name="progressive">1</property>
  <property name="seekable">1</property>
  <property name="meta.media.width">1024</property>
  <property name="meta.media.height">1024</property>
  <property name="mlt_service">qimage</property>
  <property name="kdenlive:clipname"/>
  <property name="kdenlive:duration">00:00:05.000</property>
  <property name="kdenlive:folderid">81</property>
  <property name="kdenlive:id">80</property>
  <property name="kdenlive:file_size">304538</property>
  <property name="kdenlive:file_hash">1e72dc8bc704dcb32d445fd2e4b5194a</property>
 </producer>
 <producer id="producer43" in="00:00:00.000" out="00:00:04.967">
  <property name="length">00:00:05.000</property>
  <property name="eof">pause</property>
  <property name="resource">content/photos/sun_reflection.jpg</property>
  <property name="ttl">25</property>
  <property name="aspect_ratio">1</property>
  <property name="progressive">1</property>
  <property name="seekable">1</property>
  <property name="meta.media.width">3089</property>
  <property name="meta.media.height">2048</property>
  <property name="mlt_service">qimage</property>
  <property name="kdenlive:clipname"/>
  <property name="kdenlive:duration">00:00:05.000</property>
  <property name="kdenlive:folderid">81</property>
  <property name="kdenlive:id">82</property>
  <property name="kdenlive:file_size">3208892</property>
  <property name="kdenlive:file_hash">adc4a70e1c19d52d668b277b0fd96565</property>
 </producer>
 <producer id="producer17" in="00:00:00.000" out="00:00:04.967">
  <property name="length">00:00:05.000</property>
  <property name="eof">pause</property>
  <property name="resource">content/photos/tree_in_water.jpg</property>
  <property name="ttl">25</property>
  <property name="aspect_ratio">1</property>
  <property name="progressive">1</property>
  <property name="seekable">1</property>
  <property name="meta.media.width">1024</property>
  <property name="meta.media.height">768</property>
  <property name="mlt_service">qimage</property>
  <property name="kdenlive:clipname"/>
  <property name="kdenlive:duration">00:00:05.000</property>
  <property name="kdenlive:folderid">81</property>
  <property name="kdenlive:id">83</property>
  <property name="kdenlive:file_size">397707</property>
  <property name="kdenlive:file_hash">4f28c75c5ab30eb53fecba7ba229fb97</property>
 </producer>
 <producer id="producer45" in="00:00:00.000" out="00:00:04.967">
  <property name="length">00:00:05.000</property>
  <property name="eof">pause</property>
  <property name="resource">content/photos/trees.jpg</property>
  <property name="ttl">25</property>
  <property name="aspect_ratio">1</property>
  <property name="progressive">1</property>
  <property name="seekable">1</property>
  <property name="meta.media.width">1182</property>
  <property name="meta.media.height">665</property>
  <property name="mlt_service">qimage</property>
  <property name="kdenlive:clipname"/>
  <property name="kdenlive:duration">00:00:05.000</property>
  <property name="kdenlive:folderid">81</property>
  <property name="kdenlive:id">85</property>
  <property name="kdenlive:file_size">422433</property>
  <property name="kdenlive:file_hash">6c24b4b3753b097e3c89c3478556395f</property>
 </producer>
 <producer id="producer51" in="00:00:00.000" out="00:00:04.967">
  <property name="length">00:00:05.000</property>
  <property name="eof">pause</property>
  <property name="resource">content/photos/two_trees.jpg</property>
  <property name="ttl">25</property>
  <property name="aspect_ratio">1</property>
  <property name="progressive">1</property>
  <property name="seekable">1</property>
  <property name="meta.media.width">3089</property>
  <property name="meta.media.height">2048</property>
  <property name="mlt_service">qimage</property>
  <property name="kdenlive:clipname"/>
  <property name="kdenlive:duration">00:00:05.000</property>
  <property name="kdenlive:folderid">81</property>
  <property name="kdenlive:id">86</property>
  <property name="kdenlive:file_size">3674091</property>
  <property name="kdenlive:file_hash">0bba23b3ab77cbe595f8a7cde0b490bc</property>
  <property name="global_feed">1</property>
 </producer>
 <producer id="producer46" in="00:00:00.000" out="00:00:04.967">
  <property name="length">00:00:05.000</property>
  <property name="eof">pause</property>
  <property name="resource">content/photos/white_flowers.jpg</property>
  <property name="ttl">25</property>
  <property name="aspect_ratio">1</property>
  <property name="progressive">1</property>
  <property name="seekable">1</property>
  <property name="meta.media.width">1024</property>
  <property name="meta.media.height">768</property>
  <property name="mlt_service">qimage</property>
  <property name="kdenlive:clipname"/>
  <property name="kdenlive:duration">00:00:05.000</property>
  <property name="kdenlive:folderid">81</property>
  <property name="kdenlive:id">87</property>
  <property name="kdenlive:file_size">213741</property>
  <property name="kdenlive:file_hash">e2d3af5f21279b7c4f818719ff2056a4</property>
  <property name="global_feed">1</property>
 </producer>
 <producer id="producer52" in="00:00:00.000" out="00:00:44.833">
  <property name="length">1346</property>
  <property name="eof">pause</property>
  <property name="resource">/home/ryankelln/.cache/kdenlive/proxy/d36267c91a7a07d4705900c3d4f90169.mkv</property>
  <property name="audio_index">1</property>
  <property name="video_index">0</property>
  <property name="mute_on_pause">0</property>
  <property name="mlt_service">avformat-novalidate</property>
  <property name="seekable">1</property>
  <property name="aspect_ratio">1</property>
  <property name="kdenlive:clipname">Cell through Microscope Free Footage Clip-_Rww1olT3HA.mkv</property>
  <property name="kdenlive:folderid">102</property>
  <property name="kdenlive:id">88</property>
  <property name="kdenlive:file_size">5481224</property>
  <property name="kdenlive:file_hash">d36267c91a7a07d4705900c3d4f90169</property>
  <property name="kdenlive:proxy">/home/ryankelln/.cache/kdenlive/proxy/d36267c91a7a07d4705900c3d4f90169.mkv</property>
  <property name="kdenlive:originalurl">content/footage/Cell through Microscope Free Footage Clip-_Rww1olT3HA.mkv</property>
  <property name="kdenlive:original.mlt_type">producer</property>
  <property name="kdenlive:original.in">0</property>
  <property name="kdenlive:original.out">1345</property>
  <property name="kdenlive:original.length">1346</property>
  <property name="kdenlive:original.eof">pause</property>
  <property name="kdenlive:original.resource">content/footage/Cell through Microscope Free Footage Clip-_Rww1olT3HA.mkv</property>
  <property name="kdenlive:original.meta.media.nb_streams">2</property>
  <property name="kdenlive:original.meta.media.0.stream.type">video</property>
  <property name="kdenlive:original.meta.media.0.stream.frame_rate">30</property>
  <property name="kdenlive:original.meta.media.0.stream.sample_aspect_ratio">1</property>
  <property name="kdenlive:original.meta.media.0.codec.width">1280</property>
  <property name="kdenlive:original.meta.media.0.codec.height">720</property>
  <property name="kdenlive:original.meta.media.0.codec.rotate">0</property>
  <property name="kdenlive:original.meta.media.0.codec.frame_rate">1000</property>
  <property name="kdenlive:original.meta.media.0.codec.pix_fmt">yuv420p</property>
  <property name="kdenlive:original.meta.media.0.codec.sample_aspect_ratio">0</property>
  <property name="kdenlive:original.meta.media.0.codec.colorspace">709</property>
  <property name="kdenlive:original.meta.media.0.codec.name">vp9</property>
  <property name="kdenlive:original.meta.media.0.codec.long_name">Google VP9</property>
  <property name="kdenlive:original.meta.media.0.codec.bit_rate">0</property>
  <property name="kdenlive:original.meta.attr.0.stream.language.markup">eng</property>
  <property name="kdenlive:original.meta.attr.0.stream.DURATION.markup">00:00:44.800000000</property>
  <property name="kdenlive:original.meta.media.1.stream.type">audio</property>
  <property name="kdenlive:original.meta.media.1.codec.sample_fmt">fltp</property>
  <property name="kdenlive:original.meta.media.1.codec.sample_rate">44100</property>
  <property name="kdenlive:original.meta.media.1.codec.channels">2</property>
  <property name="kdenlive:original.meta.media.1.codec.name">aac</property>
  <property name="kdenlive:original.meta.media.1.codec.long_name">AAC (Advanced Audio Coding)</property>
  <property name="kdenlive:original.meta.media.1.codec.bit_rate">0</property>
  <property name="kdenlive:original.meta.attr.1.stream.language.markup">eng</property>
  <property name="kdenlive:original.meta.attr.1.stream.HANDLER_NAME.markup">ISO Media file produced by Google Inc.</property>
  <property name="kdenlive:original.meta.attr.1.stream.DURATION.markup">00:00:44.861000000</property>
  <property name="kdenlive:original.meta.attr.HTTP://YOUTUBE.COM/STREAMING/OTF/DURATIONS/112015.markup">Segment-Count: 9&#xd;
Segment-Durations-Ms: 5333,5334,5333(r=1),5334,5333(r=1),5334,2133,&#xd;
&#xd;
</property>
  <property name="kdenlive:original.meta.attr.ENCODER.markup">Lavf58.45.100</property>
  <property name="kdenlive:original.seekable">1</property>
  <property name="kdenlive:original.width">1280</property>
  <property name="kdenlive:original.height">720</property>
  <property name="kdenlive:original.meta.media.sample_aspect_num">1</property>
  <property name="kdenlive:original.meta.media.sample_aspect_den">1</property>
  <property name="kdenlive:original.aspect_ratio">1</property>
  <property name="kdenlive:original.audio_index">1</property>
  <property name="kdenlive:original.video_index">0</property>
  <property name="kdenlive:original.mute_on_pause">0</property>
  <property name="kdenlive:original.mlt_service">avformat-novalidate</property>
  <property name="kdenlive:original.kdenlive:folderid">102</property>
  <property name="kdenlive:original.meta.media.frame_rate_num">30</property>
  <property name="kdenlive:original.meta.media.frame_rate_den">1</property>
  <property name="kdenlive:original.meta.media.colorspace">709</property>
  <property name="kdenlive:original.meta.media.color_trc">2</property>
  <property name="kdenlive:original.meta.media.width">1280</property>
  <property name="kdenlive:original.meta.media.height">720</property>
  <property name="kdenlive:original.meta.media.color_range">mpeg</property>
  <property name="kdenlive:original.kdenlive:id">103</property>
  <property name="kdenlive:original.kdenlive:file_size">5481224</property>
  <property name="kdenlive:original.kdenlive:file_hash">d36267c91a7a07d4705900c3d4f90169</property>
  <property name="kdenlive:original.backup">1</property>
  <property name="global_feed">1</property>
  <property name="meta.media.nb_streams">2</property>
  <property name="meta.media.0.stream.type">video</property>
  <property name="meta.media.0.stream.frame_rate">30</property>
  <property name="meta.media.0.stream.sample_aspect_ratio">1</property>
  <property name="meta.media.0.codec.width">960</property>
  <property name="meta.media.0.codec.height">540</property>
  <property name="meta.media.0.codec.rotate">0</property>
  <property name="meta.media.0.codec.frame_rate">1000</property>
  <property name="meta.media.0.codec.pix_fmt">yuvj420p</property>
  <property name="meta.media.0.codec.sample_aspect_ratio">1</property>
  <property name="meta.media.0.codec.colorspace">601</property>
  <property name="meta.media.0.codec.name">mjpeg</property>
  <property name="meta.media.0.codec.long_name">MJPEG (Motion JPEG)</property>
  <property name="meta.media.0.codec.bit_rate">0</property>
  <property name="meta.attr.0.stream.language.markup">eng</property>
  <property name="meta.attr.0.stream.ENCODER.markup">Lavc58.91.100 mjpeg</property>
  <property name="meta.attr.0.stream.DURATION.markup">00:00:44.800000000</property>
  <property name="meta.media.1.stream.type">audio</property>
  <property name="meta.media.1.codec.sample_fmt">s16</property>
  <property name="meta.media.1.codec.sample_rate">44100</property>
  <property name="meta.media.1.codec.channels">2</property>
  <property name="meta.media.1.codec.name">pcm_s16le</property>
  <property name="meta.media.1.codec.long_name">PCM signed 16-bit little-endian</property>
  <property name="meta.media.1.codec.bit_rate">1411200</property>
  <property name="meta.attr.1.stream.language.markup">eng</property>
  <property name="meta.attr.1.stream.HANDLER_NAME.markup">ISO Media file produced by Google Inc.</property>
  <property name="meta.attr.1.stream.ENCODER.markup">Lavc58.91.100 pcm_s16le</property>
  <property name="meta.attr.1.stream.DURATION.markup">00:00:44.861000000</property>
  <property name="meta.attr.HTTP://YOUTUBE.COM/STREAMING/OTF/DURATIONS/112015.markup">Segment-Count: 9&#xd;
Segment-Durations-Ms: 5333,5334,5333(r=1),5334,5333(r=1),5334,2133,&#xd;
&#xd;
</property>
  <property name="meta.attr.ENCODER.markup">Lavf58.45.100</property>
  <property name="meta.media.sample_aspect_num">1</property>
  <property name="meta.media.sample_aspect_den">1</property>
  <property name="meta.media.frame_rate_num">30</property>
  <property name="meta.media.frame_rate_den">1</property>
  <property name="meta.media.colorspace">601</property>
  <property name="meta.media.color_trc">2</property>
  <property name="meta.media.width">960</property>
  <property name="meta.media.height">540</property>
  <property name="meta.media.color_range">full</property>
  <property name="meta.media.top_field_first">0</property>
  <property name="meta.media.progressive">1</property>
  <property name="kdenlive:zone_in">938</property>
  <property name="kdenlive:zone_out">1151</property>
  <property name="kdenlive:clipzones">[
    {
        "in": 938,
        "name": "Zone 1",
        "out": 1151
    }
]
</property>
 </producer>
 <producer id="producer73" in="00:00:00.000" out="00:02:23.500">
  <property name="length">4306</property>
  <property name="eof">pause</property>
  <property name="resource">/home/ryankelln/.cache/kdenlive/proxy/bf7d7b8078471387930b2056277d181b.mkv</property>
  <property name="audio_index">-1</property>
  <property name="video_index">0</property>
  <property name="mute_on_pause">0</property>
  <property name="mlt_service">avformat-novalidate</property>
  <property name="seekable">1</property>
  <property name="aspect_ratio">1</property>
  <property name="kdenlive:clipname">2020-10-17_AshbridgesBay_waves+sparkles+rocks_2.MP4 no sun</property>
  <property name="kdenlive:folderid">102</property>
  <property name="kdenlive:id">89</property>
  <property name="kdenlive:file_size">688770905</property>
  <property name="kdenlive:file_hash">bf7d7b8078471387930b2056277d181b</property>
  <property name="kdenlive:proxy">/home/ryankelln/.cache/kdenlive/proxy/bf7d7b8078471387930b2056277d181b.mkv</property>
  <property name="kdenlive:originalurl">content/footage/2020-10-17_AshbridgesBay_waves+sparkles+rocks_2.MP4</property>
  <property name="kdenlive:original.mlt_type">producer</property>
  <property name="kdenlive:original.in">0</property>
  <property name="kdenlive:original.out">4305</property>
  <property name="kdenlive:original.length">4306</property>
  <property name="kdenlive:original.eof">pause</property>
  <property name="kdenlive:original.resource">content/footage/2020-10-17_AshbridgesBay_waves+sparkles+rocks_2.MP4</property>
  <property name="kdenlive:original.meta.media.nb_streams">2</property>
  <property name="kdenlive:original.meta.media.0.stream.type">video</property>
  <property name="kdenlive:original.meta.media.0.stream.frame_rate">24</property>
  <property name="kdenlive:original.meta.media.0.stream.sample_aspect_ratio">1</property>
  <property name="kdenlive:original.meta.media.0.codec.width">1920</property>
  <property name="kdenlive:original.meta.media.0.codec.height">1080</property>
  <property name="kdenlive:original.meta.media.0.codec.rotate">0</property>
  <property name="kdenlive:original.meta.media.0.codec.frame_rate">24</property>
  <property name="kdenlive:original.meta.media.0.codec.pix_fmt">yuv420p</property>
  <property name="kdenlive:original.meta.media.0.codec.sample_aspect_ratio">1</property>
  <property name="kdenlive:original.meta.media.0.codec.colorspace">709</property>
  <property name="kdenlive:original.meta.media.0.codec.color_trc">1</property>
  <property name="kdenlive:original.meta.media.0.codec.name">h264</property>
  <property name="kdenlive:original.meta.media.0.codec.long_name">H.264 / AVC / MPEG-4 AVC / MPEG-4 part 10</property>
  <property name="kdenlive:original.meta.media.0.codec.bit_rate">38384496</property>
  <property name="kdenlive:original.meta.attr.0.stream.creation_time.markup">2020-10-17T07:57:56.000000Z</property>
  <property name="kdenlive:original.meta.attr.0.stream.handler_name.markup">VideoHandler</property>
  <property name="kdenlive:original.meta.attr.0.stream.timecode.markup">09:19:15:15</property>
  <property name="kdenlive:original.meta.attr.compatible_brands.markup">mp42avc1</property>
  <property name="kdenlive:original.meta.attr.major_brand.markup">mp42</property>
  <property name="kdenlive:original.meta.attr.minor_version.markup">1</property>
  <property name="kdenlive:original.meta.attr.creation_time.markup">2020-10-17T07:57:56.000000Z</property>
  <property name="kdenlive:original.meta.attr.encoder.markup">Lavf58.45.100</property>
  <property name="kdenlive:original.seekable">1</property>
  <property name="kdenlive:original.width">1920</property>
  <property name="kdenlive:original.height">1080</property>
  <property name="kdenlive:original.meta.media.sample_aspect_num">1</property>
  <property name="kdenlive:original.meta.media.sample_aspect_den">1</property>
  <property name="kdenlive:original.aspect_ratio">1</property>
  <property name="kdenlive:original.audio_index">-1</property>
  <property name="kdenlive:original.video_index">0</property>
  <property name="kdenlive:original.mute_on_pause">0</property>
  <property name="kdenlive:original.mlt_service">avformat-novalidate</property>
  <property name="kdenlive:original.kdenlive:folderid">102</property>
  <property name="kdenlive:original.meta.media.frame_rate_num">24</property>
  <property name="kdenlive:original.meta.media.frame_rate_den">1</property>
  <property name="kdenlive:original.meta.media.colorspace">709</property>
  <property name="kdenlive:original.meta.media.color_trc">1</property>
  <property name="kdenlive:original.meta.media.width">1920</property>
  <property name="kdenlive:original.meta.media.height">1080</property>
  <property name="kdenlive:original.meta.media.color_range">mpeg</property>
  <property name="kdenlive:original.kdenlive:id">104</property>
  <property name="kdenlive:original.kdenlive:file_size">688770905</property>
  <property name="kdenlive:original.kdenlive:file_hash">bf7d7b8078471387930b2056277d181b</property>
  <property name="kdenlive:original.backup">1</property>
  <property name="global_feed">1</property>
  <property name="meta.media.nb_streams">1</property>
  <property name="meta.media.0.stream.type">video</property>
  <property name="meta.media.0.stream.frame_rate">24</property>
  <property name="meta.media.0.stream.sample_aspect_ratio">1</property>
  <property name="meta.media.0.codec.width">960</property>
  <property name="meta.media.0.codec.height">540</property>
  <property name="meta.media.0.codec.rotate">0</property>
  <property name="meta.media.0.codec.frame_rate">1000</property>
  <property name="meta.media.0.codec.pix_fmt">yuvj420p</property>
  <property name="meta.media.0.codec.sample_aspect_ratio">1</property>
  <property name="meta.media.0.codec.colorspace">601</property>
  <property name="meta.media.0.codec.name">mjpeg</property>
  <property name="meta.media.0.codec.long_name">MJPEG (Motion JPEG)</property>
  <property name="meta.media.0.codec.bit_rate">0</property>
  <property name="meta.attr.0.stream.HANDLER_NAME.markup">VideoHandler</property>
  <property name="meta.attr.0.stream.TIMECODE.markup">09:19:15:15</property>
  <property name="meta.attr.0.stream.ENCODER.markup">Lavc58.91.100 mjpeg</property>
  <property name="meta.attr.0.stream.DURATION.markup">00:02:23.625000000</property>
  <property name="meta.attr.MINOR_VERSION.markup">1</property>
  <property name="meta.attr.COMPATIBLE_BRANDS.markup">mp42avc1</property>
  <property name="meta.attr.MAJOR_BRAND.markup">mp42</property>
  <property name="meta.attr.ENCODER.markup">Lavf58.45.100</property>
  <property name="meta.media.sample_aspect_num">1</property>
  <property name="meta.media.sample_aspect_den">1</property>
  <property name="meta.media.frame_rate_num">24</property>
  <property name="meta.media.frame_rate_den">1</property>
  <property name="meta.media.colorspace">601</property>
  <property name="meta.media.color_trc">2</property>
  <property name="meta.media.width">960</property>
  <property name="meta.media.height">540</property>
  <property name="meta.media.color_range">full</property>
  <property name="meta.media.top_field_first">0</property>
  <property name="meta.media.progressive">1</property>
  <property name="kdenlive:activeeffect">0</property>
  <property name="kdenlive:zone_in">1744</property>
  <property name="kdenlive:zone_out">2711</property>
  <filter id="filter6">
   <property name="rotate_center">1</property>
   <property name="mlt_service">qtblend</property>
   <property name="kdenlive_id">qtblend</property>
   <property name="rect">00:00:00.000=-27 -69 2112 1188 1.000000</property>
   <property name="rotation">00:00:00.000=0</property>
   <property name="compositing">0</property>
   <property name="distort">0</property>
   <property name="kdenlive:collapsed">0</property>
  </filter>
 </producer>
 <producer id="producer85" in="00:00:00.000" out="00:01:14.500">
  <property name="length">2236</property>
  <property name="eof">pause</property>
  <property name="resource">/home/ryankelln/.cache/kdenlive/proxy/fdc3c27b0d2d27ebd69b464f9b05f055.mkv</property>
  <property name="audio_index">-1</property>
  <property name="video_index">0</property>
  <property name="mute_on_pause">0</property>
  <property name="mlt_service">avformat-novalidate</property>
  <property name="seekable">1</property>
  <property name="aspect_ratio">1</property>
  <property name="kdenlive:clipname">2020-10-12_HumberTrail_treetop+maple_2.MP4</property>
  <property name="kdenlive:folderid">102</property>
  <property name="kdenlive:id">90</property>
  <property name="kdenlive:file_size">344565540</property>
  <property name="kdenlive:file_hash">fdc3c27b0d2d27ebd69b464f9b05f055</property>
  <property name="kdenlive:proxy">/home/ryankelln/.cache/kdenlive/proxy/fdc3c27b0d2d27ebd69b464f9b05f055.mkv</property>
  <property name="kdenlive:originalurl">content/footage/2020-10-12_HumberTrail_treetop+maple_2.MP4</property>
  <property name="kdenlive:original.mlt_type">producer</property>
  <property name="kdenlive:original.in">0</property>
  <property name="kdenlive:original.out">2235</property>
  <property name="kdenlive:original.length">2236</property>
  <property name="kdenlive:original.eof">pause</property>
  <property name="kdenlive:original.resource">content/footage/2020-10-12_HumberTrail_treetop+maple_2.MP4</property>
  <property name="kdenlive:original.meta.media.nb_streams">2</property>
  <property name="kdenlive:original.meta.media.0.stream.type">video</property>
  <property name="kdenlive:original.meta.media.0.stream.frame_rate">24</property>
  <property name="kdenlive:original.meta.media.0.stream.sample_aspect_ratio">1</property>
  <property name="kdenlive:original.meta.media.0.codec.width">1920</property>
  <property name="kdenlive:original.meta.media.0.codec.height">1080</property>
  <property name="kdenlive:original.meta.media.0.codec.rotate">0</property>
  <property name="kdenlive:original.meta.media.0.codec.frame_rate">24</property>
  <property name="kdenlive:original.meta.media.0.codec.pix_fmt">yuv420p</property>
  <property name="kdenlive:original.meta.media.0.codec.sample_aspect_ratio">1</property>
  <property name="kdenlive:original.meta.media.0.codec.colorspace">709</property>
  <property name="kdenlive:original.meta.media.0.codec.color_trc">1</property>
  <property name="kdenlive:original.meta.media.0.codec.name">h264</property>
  <property name="kdenlive:original.meta.media.0.codec.long_name">H.264 / AVC / MPEG-4 AVC / MPEG-4 part 10</property>
  <property name="kdenlive:original.meta.media.0.codec.bit_rate">36976791</property>
  <property name="kdenlive:original.meta.attr.0.stream.creation_time.markup">2020-10-12T11:13:42.000000Z</property>
  <property name="kdenlive:original.meta.attr.0.stream.handler_name.markup">VideoHandler</property>
  <property name="kdenlive:original.meta.attr.0.stream.timecode.markup">06:34:26:03</property>
  <property name="kdenlive:original.meta.attr.compatible_brands.markup">mp42avc1</property>
  <property name="kdenlive:original.meta.attr.major_brand.markup">mp42</property>
  <property name="kdenlive:original.meta.attr.minor_version.markup">1</property>
  <property name="kdenlive:original.meta.attr.creation_time.markup">2020-10-12T11:13:42.000000Z</property>
  <property name="kdenlive:original.meta.attr.encoder.markup">Lavf58.45.100</property>
  <property name="kdenlive:original.seekable">1</property>
  <property name="kdenlive:original.width">1920</property>
  <property name="kdenlive:original.height">1080</property>
  <property name="kdenlive:original.meta.media.sample_aspect_num">1</property>
  <property name="kdenlive:original.meta.media.sample_aspect_den">1</property>
  <property name="kdenlive:original.aspect_ratio">1</property>
  <property name="kdenlive:original.audio_index">-1</property>
  <property name="kdenlive:original.video_index">0</property>
  <property name="kdenlive:original.mute_on_pause">0</property>
  <property name="kdenlive:original.mlt_service">avformat-novalidate</property>
  <property name="kdenlive:original.kdenlive:folderid">102</property>
  <property name="kdenlive:original.meta.media.frame_rate_num">24</property>
  <property name="kdenlive:original.meta.media.frame_rate_den">1</property>
  <property name="kdenlive:original.meta.media.colorspace">709</property>
  <property name="kdenlive:original.meta.media.color_trc">1</property>
  <property name="kdenlive:original.meta.media.width">1920</property>
  <property name="kdenlive:original.meta.media.height">1080</property>
  <property name="kdenlive:original.meta.media.color_range">mpeg</property>
  <property name="kdenlive:original.kdenlive:id">105</property>
  <property name="kdenlive:original.kdenlive:file_size">344565540</property>
  <property name="kdenlive:original.kdenlive:file_hash">fdc3c27b0d2d27ebd69b464f9b05f055</property>
  <property name="kdenlive:original.backup">1</property>
  <property name="global_feed">1</property>
  <property name="meta.media.nb_streams">1</property>
  <property name="meta.media.0.stream.type">video</property>
  <property name="meta.media.0.stream.frame_rate">24</property>
  <property name="meta.media.0.stream.sample_aspect_ratio">1</property>
  <property name="meta.media.0.codec.width">960</property>
  <property name="meta.media.0.codec.height">540</property>
  <property name="meta.media.0.codec.rotate">0</property>
  <property name="meta.media.0.codec.frame_rate">1000</property>
  <property name="meta.media.0.codec.pix_fmt">yuvj420p</property>
  <property name="meta.media.0.codec.sample_aspect_ratio">1</property>
  <property name="meta.media.0.codec.colorspace">601</property>
  <property name="meta.media.0.codec.name">mjpeg</property>
  <property name="meta.media.0.codec.long_name">MJPEG (Motion JPEG)</property>
  <property name="meta.media.0.codec.bit_rate">0</property>
  <property name="meta.attr.0.stream.HANDLER_NAME.markup">VideoHandler</property>
  <property name="meta.attr.0.stream.TIMECODE.markup">06:34:26:03</property>
  <property name="meta.attr.0.stream.ENCODER.markup">Lavc58.91.100 mjpeg</property>
  <property name="meta.attr.0.stream.DURATION.markup">00:01:14.667000000</property>
  <property name="meta.attr.MINOR_VERSION.markup">1</property>
  <property name="meta.attr.COMPATIBLE_BRANDS.markup">mp42avc1</property>
  <property name="meta.attr.MAJOR_BRAND.markup">mp42</property>
  <property name="meta.attr.ENCODER.markup">Lavf58.45.100</property>
  <property name="meta.media.sample_aspect_num">1</property>
  <property name="meta.media.sample_aspect_den">1</property>
  <property name="meta.media.frame_rate_num">24</property>
  <property name="meta.media.frame_rate_den">1</property>
  <property name="meta.media.colorspace">601</property>
  <property name="meta.media.color_trc">2</property>
  <property name="meta.media.width">960</property>
  <property name="meta.media.height">540</property>
  <property name="meta.media.color_range">full</property>
  <property name="meta.media.top_field_first">0</property>
  <property name="meta.media.progressive">1</property>
 </producer>
 <producer id="producer86" in="00:00:00.000" out="00:00:30.000">
  <property name="length">902</property>
  <property name="eof">pause</property>
  <property name="resource">/home/ryankelln/.cache/kdenlive/proxy/a4e9f7fc5917b70c1f7acb446affffc6.mkv</property>
  <property name="audio_index">-1</property>
  <property name="video_index">0</property>
  <property name="mute_on_pause">0</property>
  <property name="mlt_service">avformat-novalidate</property>
  <property name="seekable">1</property>
  <property name="aspect_ratio">1</property>
  <property name="kdenlive:clipname">Epic Clouds H264_Beachfront-B-roll.mp4</property>
  <property name="kdenlive:folderid">-1</property>
  <property name="kdenlive:id">91</property>
  <property name="kdenlive:file_size">169046235</property>
  <property name="kdenlive:file_hash">a4e9f7fc5917b70c1f7acb446affffc6</property>
  <property name="kdenlive:proxy">/home/ryankelln/.cache/kdenlive/proxy/a4e9f7fc5917b70c1f7acb446affffc6.mkv</property>
  <property name="kdenlive:originalurl">/home/ryankelln/Documents/Projects/Active/Sound_Escapes/Mac/footage/Epic Clouds H264_Beachfront-B-roll.mp4</property>
  <property name="kdenlive:original.mlt_type">producer</property>
  <property name="kdenlive:original.in">0</property>
  <property name="kdenlive:original.out">901</property>
  <property name="kdenlive:original.length">902</property>
  <property name="kdenlive:original.eof">pause</property>
  <property name="kdenlive:original.resource">/home/ryankelln/Documents/Projects/Active/Sound_Escapes/Mac/footage/Epic Clouds H264_Beachfront-B-roll.mp4</property>
  <property name="kdenlive:original.meta.media.nb_streams">1</property>
  <property name="kdenlive:original.meta.media.0.stream.type">video</property>
  <property name="kdenlive:original.meta.media.0.stream.frame_rate">23.976</property>
  <property name="kdenlive:original.meta.media.0.stream.sample_aspect_ratio">0</property>
  <property name="kdenlive:original.meta.media.0.codec.width">1920</property>
  <property name="kdenlive:original.meta.media.0.codec.height">1080</property>
  <property name="kdenlive:original.meta.media.0.codec.rotate">0</property>
  <property name="kdenlive:original.meta.media.0.codec.frame_rate">23.976</property>
  <property name="kdenlive:original.meta.media.0.codec.pix_fmt">yuv420p</property>
  <property name="kdenlive:original.meta.media.0.codec.sample_aspect_ratio">1</property>
  <property name="kdenlive:original.meta.media.0.codec.colorspace">709</property>
  <property name="kdenlive:original.meta.media.0.codec.name">h264</property>
  <property name="kdenlive:original.meta.media.0.codec.long_name">H.264 / AVC / MPEG-4 AVC / MPEG-4 part 10</property>
  <property name="kdenlive:original.meta.media.0.codec.bit_rate">44967098</property>
  <property name="kdenlive:original.meta.attr.0.stream.creation_time.markup">2014-10-30T18:10:59.000000Z</property>
  <property name="kdenlive:original.meta.attr.0.stream.language.markup">eng</property>
  <property name="kdenlive:original.meta.attr.0.stream.handler_name.markup">Mainconcept MP4 Video Media Handler</property>
  <property name="kdenlive:original.meta.attr.0.stream.encoder.markup">AVC Coding</property>
  <property name="kdenlive:original.meta.attr.major_brand.markup">mp42</property>
  <property name="kdenlive:original.meta.attr.minor_version.markup">0</property>
  <property name="kdenlive:original.meta.attr.compatible_brands.markup">mp42mp41</property>
  <property name="kdenlive:original.meta.attr.creation_time.markup">2014-10-30T18:10:59.000000Z</property>
  <property name="kdenlive:original.seekable">1</property>
  <property name="kdenlive:original.width">1920</property>
  <property name="kdenlive:original.height">1080</property>
  <property name="kdenlive:original.meta.media.sample_aspect_num">1</property>
  <property name="kdenlive:original.meta.media.sample_aspect_den">1</property>
  <property name="kdenlive:original.aspect_ratio">1</property>
  <property name="kdenlive:original.audio_index">-1</property>
  <property name="kdenlive:original.video_index">0</property>
  <property name="kdenlive:original.mute_on_pause">0</property>
  <property name="kdenlive:original.mlt_service">avformat-novalidate</property>
  <property name="kdenlive:original.kdenlive:folderid">-1</property>
  <property name="kdenlive:original.meta.media.frame_rate_num">2997</property>
  <property name="kdenlive:original.meta.media.frame_rate_den">125</property>
  <property name="kdenlive:original.meta.media.colorspace">709</property>
  <property name="kdenlive:original.meta.media.color_trc">2</property>
  <property name="kdenlive:original.meta.media.width">1920</property>
  <property name="kdenlive:original.meta.media.height">1080</property>
  <property name="kdenlive:original.meta.media.color_range">mpeg</property>
  <property name="kdenlive:original.kdenlive:id">106</property>
  <property name="kdenlive:original.kdenlive:file_size">169046235</property>
  <property name="kdenlive:original.kdenlive:file_hash">a4e9f7fc5917b70c1f7acb446affffc6</property>
  <property name="kdenlive:original.backup">1</property>
  <property name="global_feed">1</property>
  <property name="meta.media.nb_streams">1</property>
  <property name="meta.media.0.stream.type">video</property>
  <property name="meta.media.0.stream.frame_rate">23.976</property>
  <property name="meta.media.0.stream.sample_aspect_ratio">1</property>
  <property name="meta.media.0.codec.width">960</property>
  <property name="meta.media.0.codec.height">540</property>
  <property name="meta.media.0.codec.rotate">0</property>
  <property name="meta.media.0.codec.frame_rate">1000</property>
  <property name="meta.media.0.codec.pix_fmt">yuvj420p</property>
  <property name="meta.media.0.codec.sample_aspect_ratio">1</property>
  <property name="meta.media.0.codec.colorspace">601</property>
  <property name="meta.media.0.codec.name">mjpeg</property>
  <property name="meta.media.0.codec.long_name">MJPEG (Motion JPEG)</property>
  <property name="meta.media.0.codec.bit_rate">0</property>
  <property name="meta.attr.0.stream.language.markup">eng</property>
  <property name="meta.attr.0.stream.HANDLER_NAME.markup">Mainconcept MP4 Video Media Handler</property>
  <property name="meta.attr.0.stream.ENCODER.markup">Lavc58.91.100 mjpeg</property>
  <property name="meta.attr.0.stream.DURATION.markup">00:00:30.030000000</property>
  <property name="meta.attr.COMPATIBLE_BRANDS.markup">mp42mp41</property>
  <property name="meta.attr.MAJOR_BRAND.markup">mp42</property>
  <property name="meta.attr.MINOR_VERSION.markup">0</property>
  <property name="meta.attr.ENCODER.markup">Lavf58.45.100</property>
  <property name="meta.media.sample_aspect_num">1</property>
  <property name="meta.media.sample_aspect_den">1</property>
  <property name="meta.media.frame_rate_num">2997</property>
  <property name="meta.media.frame_rate_den">125</property>
  <property name="meta.media.colorspace">601</property>
  <property name="meta.media.color_trc">2</property>
  <property name="meta.media.width">960</property>
  <property name="meta.media.height">540</property>
  <property name="meta.media.color_range">full</property>
  <property name="meta.media.top_field_first">0</property>
  <property name="meta.media.progressive">1</property>
 </producer>
 <producer id="producer41" in="00:00:00.000" out="00:01:29.767">
  <property name="length">2694</property>
  <property name="eof">pause</property>
  <property name="resource">/home/ryankelln/.cache/kdenlive/proxy/8a45a6e6f82270aac1a382ea6d4dd9e7.mkv</property>
  <property name="audio_index">-1</property>
  <property name="video_index">0</property>
  <property name="mute_on_pause">0</property>
  <property name="mlt_service">avformat-novalidate</property>
  <property name="seekable">1</property>
  <property name="aspect_ratio">1</property>
  <property name="kdenlive:clipname">epic_clouds_slomo.mp4</property>
  <property name="kdenlive:folderid">102</property>
  <property name="kdenlive:id">92</property>
  <property name="kdenlive:file_size">18704803</property>
  <property name="kdenlive:file_hash">8a45a6e6f82270aac1a382ea6d4dd9e7</property>
  <property name="kdenlive:proxy">/home/ryankelln/.cache/kdenlive/proxy/8a45a6e6f82270aac1a382ea6d4dd9e7.mkv</property>
  <property name="kdenlive:originalurl">content/footage/epic_clouds_slomo.mp4</property>
  <property name="global_feed">1</property>
  <property name="kdenlive:original.mlt_type">mlt_producer</property>
  <property name="kdenlive:original.in">00:00:00.000</property>
  <property name="kdenlive:original.out">00:01:29.767</property>
  <property name="kdenlive:original.length">2694</property>
  <property name="kdenlive:original.eof">pause</property>
  <property name="kdenlive:original.resource">content/footage/epic_clouds_slomo.mp4</property>
  <property name="kdenlive:original.audio_index">-1</property>
  <property name="kdenlive:original.video_index">0</property>
  <property name="kdenlive:original.mute_on_pause">0</property>
  <property name="kdenlive:original.mlt_service">avformat-novalidate</property>
  <property name="kdenlive:original.seekable">1</property>
  <property name="kdenlive:original.aspect_ratio">1</property>
  <property name="kdenlive:original.kdenlive:folderid">102</property>
  <property name="kdenlive:original.kdenlive:id">92</property>
  <property name="kdenlive:original.kdenlive:file_size">18704803</property>
  <property name="kdenlive:original.kdenlive:file_hash">8a45a6e6f82270aac1a382ea6d4dd9e7</property>
  <property name="kdenlive:original.global_feed">1</property>
  <property name="kdenlive:original.meta.media.nb_streams">1</property>
  <property name="kdenlive:original.meta.media.0.stream.type">video</property>
  <property name="kdenlive:original.meta.media.0.stream.frame_rate">30</property>
  <property name="kdenlive:original.meta.media.0.stream.sample_aspect_ratio">1</property>
  <property name="kdenlive:original.meta.media.0.codec.width">1920</property>
  <property name="kdenlive:original.meta.media.0.codec.height">1080</property>
  <property name="kdenlive:original.meta.media.0.codec.rotate">0</property>
  <property name="kdenlive:original.meta.media.0.codec.frame_rate">30</property>
  <property name="kdenlive:original.meta.media.0.codec.pix_fmt">yuv444p</property>
  <property name="kdenlive:original.meta.media.0.codec.sample_aspect_ratio">1</property>
  <property name="kdenlive:original.meta.media.0.codec.colorspace">709</property>
  <property name="kdenlive:original.meta.media.0.codec.name">h264</property>
  <property name="kdenlive:original.meta.media.0.codec.long_name">H.264 / AVC / MPEG-4 AVC / MPEG-4 part 10</property>
  <property name="kdenlive:original.meta.media.0.codec.bit_rate">1663395</property>
  <property name="kdenlive:original.meta.attr.0.stream.handler_name.markup">VideoHandler</property>
  <property name="kdenlive:original.meta.attr.major_brand.markup">isom</property>
  <property name="kdenlive:original.meta.attr.minor_version.markup">512</property>
  <property name="kdenlive:original.meta.attr.compatible_brands.markup">isomiso2avc1mp41</property>
  <property name="kdenlive:original.meta.attr.encoder.markup">Lavf58.45.100</property>
  <property name="kdenlive:original.width">1920</property>
  <property name="kdenlive:original.height">1080</property>
  <property name="kdenlive:original.meta.media.sample_aspect_num">1</property>
  <property name="kdenlive:original.meta.media.sample_aspect_den">1</property>
  <property name="kdenlive:original.meta.media.frame_rate_num">30</property>
  <property name="kdenlive:original.meta.media.frame_rate_den">1</property>
  <property name="kdenlive:original.meta.media.colorspace">709</property>
  <property name="kdenlive:original.meta.media.color_trc">2</property>
  <property name="kdenlive:original.meta.media.width">1920</property>
  <property name="kdenlive:original.meta.media.height">1080</property>
  <property name="kdenlive:original.meta.media.color_range">mpeg</property>
  <property name="kdenlive:original.meta.media.top_field_first">0</property>
  <property name="kdenlive:original.meta.media.progressive">1</property>
  <property name="kdenlive:original.root">/</property>
  <property name="kdenlive:original.backup">1</property>
  <property name="meta.media.nb_streams">1</property>
  <property name="meta.media.0.stream.type">video</property>
  <property name="meta.media.0.stream.frame_rate">30</property>
  <property name="meta.media.0.stream.sample_aspect_ratio">1</property>
  <property name="meta.media.0.codec.width">960</property>
  <property name="meta.media.0.codec.height">540</property>
  <property name="meta.media.0.codec.rotate">0</property>
  <property name="meta.media.0.codec.frame_rate">1000</property>
  <property name="meta.media.0.codec.pix_fmt">yuvj444p</property>
  <property name="meta.media.0.codec.sample_aspect_ratio">1</property>
  <property name="meta.media.0.codec.colorspace">601</property>
  <property name="meta.media.0.codec.name">mjpeg</property>
  <property name="meta.media.0.codec.long_name">MJPEG (Motion JPEG)</property>
  <property name="meta.media.0.codec.bit_rate">0</property>
  <property name="meta.attr.0.stream.HANDLER_NAME.markup">VideoHandler</property>
  <property name="meta.attr.0.stream.ENCODER.markup">Lavc58.91.100 mjpeg</property>
  <property name="meta.attr.0.stream.DURATION.markup">00:01:29.800000000</property>
  <property name="meta.attr.COMPATIBLE_BRANDS.markup">isomiso2avc1mp41</property>
  <property name="meta.attr.MAJOR_BRAND.markup">isom</property>
  <property name="meta.attr.MINOR_VERSION.markup">512</property>
  <property name="meta.attr.ENCODER.markup">Lavf58.45.100</property>
  <property name="meta.media.sample_aspect_num">1</property>
  <property name="meta.media.sample_aspect_den">1</property>
  <property name="meta.media.frame_rate_num">30</property>
  <property name="meta.media.frame_rate_den">1</property>
  <property name="meta.media.colorspace">601</property>
  <property name="meta.media.color_trc">2</property>
  <property name="meta.media.width">960</property>
  <property name="meta.media.height">540</property>
  <property name="meta.media.color_range">full</property>
  <property name="meta.media.top_field_first">0</property>
  <property name="meta.media.progressive">1</property>
 </producer>
 <producer id="producer42" in="00:00:00.000" out="00:02:23.500">
  <property name="length">4306</property>
  <property name="eof">pause</property>
  <property name="resource">/home/ryankelln/.cache/kdenlive/proxy/bf7d7b8078471387930b2056277d181b.mkv</property>
  <property name="audio_index">-1</property>
  <property name="video_index">0</property>
  <property name="mute_on_pause">0</property>
  <property name="mlt_service">avformat-novalidate</property>
  <property name="seekable">1</property>
  <property name="aspect_ratio">1</property>
  <property name="kdenlive:clipname">2020-10-17_AshbridgesBay_waves+sparkles+rocks_2.MP4</property>
  <property name="kdenlive:folderid">102</property>
  <property name="kdenlive:id">93</property>
  <property name="kdenlive:file_size">688770905</property>
  <property name="kdenlive:file_hash">bf7d7b8078471387930b2056277d181b</property>
  <property name="kdenlive:proxy">/home/ryankelln/.cache/kdenlive/proxy/bf7d7b8078471387930b2056277d181b.mkv</property>
  <property name="kdenlive:originalurl">content/footage/2020-10-17_AshbridgesBay_waves+sparkles+rocks_2.MP4</property>
  <property name="kdenlive:original.mlt_type">producer</property>
  <property name="kdenlive:original.in">0</property>
  <property name="kdenlive:original.out">4305</property>
  <property name="kdenlive:original.length">4306</property>
  <property name="kdenlive:original.eof">pause</property>
  <property name="kdenlive:original.resource">content/footage/2020-10-17_AshbridgesBay_waves+sparkles+rocks_2.MP4</property>
  <property name="kdenlive:original.meta.media.nb_streams">2</property>
  <property name="kdenlive:original.meta.media.0.stream.type">video</property>
  <property name="kdenlive:original.meta.media.0.stream.frame_rate">24</property>
  <property name="kdenlive:original.meta.media.0.stream.sample_aspect_ratio">1</property>
  <property name="kdenlive:original.meta.media.0.codec.width">1920</property>
  <property name="kdenlive:original.meta.media.0.codec.height">1080</property>
  <property name="kdenlive:original.meta.media.0.codec.rotate">0</property>
  <property name="kdenlive:original.meta.media.0.codec.frame_rate">24</property>
  <property name="kdenlive:original.meta.media.0.codec.pix_fmt">yuv420p</property>
  <property name="kdenlive:original.meta.media.0.codec.sample_aspect_ratio">1</property>
  <property name="kdenlive:original.meta.media.0.codec.colorspace">709</property>
  <property name="kdenlive:original.meta.media.0.codec.color_trc">1</property>
  <property name="kdenlive:original.meta.media.0.codec.name">h264</property>
  <property name="kdenlive:original.meta.media.0.codec.long_name">H.264 / AVC / MPEG-4 AVC / MPEG-4 part 10</property>
  <property name="kdenlive:original.meta.media.0.codec.bit_rate">38384496</property>
  <property name="kdenlive:original.meta.attr.0.stream.creation_time.markup">2020-10-17T07:57:56.000000Z</property>
  <property name="kdenlive:original.meta.attr.0.stream.handler_name.markup">VideoHandler</property>
  <property name="kdenlive:original.meta.attr.0.stream.timecode.markup">09:19:15:15</property>
  <property name="kdenlive:original.meta.attr.compatible_brands.markup">mp42avc1</property>
  <property name="kdenlive:original.meta.attr.major_brand.markup">mp42</property>
  <property name="kdenlive:original.meta.attr.minor_version.markup">1</property>
  <property name="kdenlive:original.meta.attr.creation_time.markup">2020-10-17T07:57:56.000000Z</property>
  <property name="kdenlive:original.meta.attr.encoder.markup">Lavf58.45.100</property>
  <property name="kdenlive:original.seekable">1</property>
  <property name="kdenlive:original.width">1920</property>
  <property name="kdenlive:original.height">1080</property>
  <property name="kdenlive:original.meta.media.sample_aspect_num">1</property>
  <property name="kdenlive:original.meta.media.sample_aspect_den">1</property>
  <property name="kdenlive:original.aspect_ratio">1</property>
  <property name="kdenlive:original.audio_index">-1</property>
  <property name="kdenlive:original.video_index">0</property>
  <property name="kdenlive:original.mute_on_pause">0</property>
  <property name="kdenlive:original.mlt_service">avformat-novalidate</property>
  <property name="kdenlive:original.kdenlive:folderid">102</property>
  <property name="kdenlive:original.meta.media.frame_rate_num">24</property>
  <property name="kdenlive:original.meta.media.frame_rate_den">1</property>
  <property name="kdenlive:original.meta.media.colorspace">709</property>
  <property name="kdenlive:original.meta.media.color_trc">1</property>
  <property name="kdenlive:original.meta.media.width">1920</property>
  <property name="kdenlive:original.meta.media.height">1080</property>
  <property name="kdenlive:original.meta.media.color_range">mpeg</property>
  <property name="kdenlive:original.kdenlive:id">101</property>
  <property name="kdenlive:original.kdenlive:file_size">688770905</property>
  <property name="kdenlive:original.kdenlive:file_hash">bf7d7b8078471387930b2056277d181b</property>
  <property name="kdenlive:original.backup">1</property>
  <property name="global_feed">1</property>
  <property name="meta.media.nb_streams">1</property>
  <property name="meta.media.0.stream.type">video</property>
  <property name="meta.media.0.stream.frame_rate">24</property>
  <property name="meta.media.0.stream.sample_aspect_ratio">1</property>
  <property name="meta.media.0.codec.width">960</property>
  <property name="meta.media.0.codec.height">540</property>
  <property name="meta.media.0.codec.rotate">0</property>
  <property name="meta.media.0.codec.frame_rate">1000</property>
  <property name="meta.media.0.codec.pix_fmt">yuvj420p</property>
  <property name="meta.media.0.codec.sample_aspect_ratio">1</property>
  <property name="meta.media.0.codec.colorspace">601</property>
  <property name="meta.media.0.codec.name">mjpeg</property>
  <property name="meta.media.0.codec.long_name">MJPEG (Motion JPEG)</property>
  <property name="meta.media.0.codec.bit_rate">0</property>
  <property name="meta.attr.0.stream.HANDLER_NAME.markup">VideoHandler</property>
  <property name="meta.attr.0.stream.TIMECODE.markup">09:19:15:15</property>
  <property name="meta.attr.0.stream.ENCODER.markup">Lavc58.91.100 mjpeg</property>
  <property name="meta.attr.0.stream.DURATION.markup">00:02:23.625000000</property>
  <property name="meta.attr.MINOR_VERSION.markup">1</property>
  <property name="meta.attr.COMPATIBLE_BRANDS.markup">mp42avc1</property>
  <property name="meta.attr.MAJOR_BRAND.markup">mp42</property>
  <property name="meta.attr.ENCODER.markup">Lavf58.45.100</property>
  <property name="meta.media.sample_aspect_num">1</property>
  <property name="meta.media.sample_aspect_den">1</property>
  <property name="meta.media.frame_rate_num">24</property>
  <property name="meta.media.frame_rate_den">1</property>
  <property name="meta.media.colorspace">601</property>
  <property name="meta.media.color_trc">2</property>
  <property name="meta.media.width">960</property>
  <property name="meta.media.height">540</property>
  <property name="meta.media.color_range">full</property>
  <property name="meta.media.top_field_first">0</property>
  <property name="meta.media.progressive">1</property>
  <property name="kdenlive:zone_in">1723</property>
  <property name="kdenlive:zone_out">2785</property>
  <property name="kdenlive:clipzones">[
    {
        "in": 1723,
        "name": "Zone 1",
        "out": 2785
    }
]
</property>
 </producer>
 <producer id="producer87" in="00:00:00.000" out="00:00:29.900">
  <property name="length">900</property>
  <property name="eof">pause</property>
  <property name="resource">/home/ryankelln/.cache/kdenlive/proxy/e9abd51630e84b005d32c49369d869ed.mkv</property>
  <property name="audio_index">-1</property>
  <property name="video_index">0</property>
  <property name="mute_on_pause">0</property>
  <property name="mlt_service">avformat-novalidate</property>
  <property name="seekable">1</property>
  <property name="aspect_ratio">1</property>
  <property name="kdenlive:clipname">Uplifting Clouds H264_Beachfront-B-roll.mp4</property>
  <property name="kdenlive:folderid">102</property>
  <property name="kdenlive:id">94</property>
  <property name="kdenlive:file_size">167710203</property>
  <property name="kdenlive:file_hash">e9abd51630e84b005d32c49369d869ed</property>
  <property name="kdenlive:proxy">/home/ryankelln/.cache/kdenlive/proxy/e9abd51630e84b005d32c49369d869ed.mkv</property>
  <property name="kdenlive:originalurl">content/footage/Uplifting Clouds H264_Beachfront-B-roll.mp4</property>
  <property name="kdenlive:original.mlt_type">producer</property>
  <property name="kdenlive:original.in">0</property>
  <property name="kdenlive:original.out">899</property>
  <property name="kdenlive:original.length">900</property>
  <property name="kdenlive:original.eof">pause</property>
  <property name="kdenlive:original.resource">content/footage/Uplifting Clouds H264_Beachfront-B-roll.mp4</property>
  <property name="kdenlive:original.meta.media.nb_streams">1</property>
  <property name="kdenlive:original.meta.media.0.stream.type">video</property>
  <property name="kdenlive:original.meta.media.0.stream.frame_rate">23.976</property>
  <property name="kdenlive:original.meta.media.0.stream.sample_aspect_ratio">0</property>
  <property name="kdenlive:original.meta.media.0.codec.width">1920</property>
  <property name="kdenlive:original.meta.media.0.codec.height">1080</property>
  <property name="kdenlive:original.meta.media.0.codec.rotate">0</property>
  <property name="kdenlive:original.meta.media.0.codec.frame_rate">23.976</property>
  <property name="kdenlive:original.meta.media.0.codec.pix_fmt">yuv420p</property>
  <property name="kdenlive:original.meta.media.0.codec.sample_aspect_ratio">1</property>
  <property name="kdenlive:original.meta.media.0.codec.colorspace">709</property>
  <property name="kdenlive:original.meta.media.0.codec.name">h264</property>
  <property name="kdenlive:original.meta.media.0.codec.long_name">H.264 / AVC / MPEG-4 AVC / MPEG-4 part 10</property>
  <property name="kdenlive:original.meta.media.0.codec.bit_rate">44735046</property>
  <property name="kdenlive:original.meta.attr.0.stream.creation_time.markup">2014-04-25T20:08:14.000000Z</property>
  <property name="kdenlive:original.meta.attr.0.stream.language.markup">eng</property>
  <property name="kdenlive:original.meta.attr.0.stream.handler_name.markup">Mainconcept MP4 Video Media Handler</property>
  <property name="kdenlive:original.meta.attr.0.stream.encoder.markup">AVC Coding</property>
  <property name="kdenlive:original.meta.attr.major_brand.markup">mp42</property>
  <property name="kdenlive:original.meta.attr.minor_version.markup">0</property>
  <property name="kdenlive:original.meta.attr.compatible_brands.markup">mp42mp41</property>
  <property name="kdenlive:original.meta.attr.creation_time.markup">2014-04-25T20:08:14.000000Z</property>
  <property name="kdenlive:original.seekable">1</property>
  <property name="kdenlive:original.width">1920</property>
  <property name="kdenlive:original.height">1080</property>
  <property name="kdenlive:original.meta.media.sample_aspect_num">1</property>
  <property name="kdenlive:original.meta.media.sample_aspect_den">1</property>
  <property name="kdenlive:original.aspect_ratio">1</property>
  <property name="kdenlive:original.audio_index">-1</property>
  <property name="kdenlive:original.video_index">0</property>
  <property name="kdenlive:original.mute_on_pause">0</property>
  <property name="kdenlive:original.mlt_service">avformat-novalidate</property>
  <property name="kdenlive:original.kdenlive:folderid">102</property>
  <property name="kdenlive:original.meta.media.frame_rate_num">2997</property>
  <property name="kdenlive:original.meta.media.frame_rate_den">125</property>
  <property name="kdenlive:original.meta.media.colorspace">709</property>
  <property name="kdenlive:original.meta.media.color_trc">2</property>
  <property name="kdenlive:original.meta.media.width">1920</property>
  <property name="kdenlive:original.meta.media.height">1080</property>
  <property name="kdenlive:original.meta.media.color_range">mpeg</property>
  <property name="kdenlive:original.kdenlive:id">104</property>
  <property name="kdenlive:original.kdenlive:file_size">167710203</property>
  <property name="kdenlive:original.kdenlive:file_hash">e9abd51630e84b005d32c49369d869ed</property>
  <property name="kdenlive:original.backup">1</property>
  <property name="global_feed">1</property>
  <property name="meta.media.nb_streams">1</property>
  <property name="meta.media.0.stream.type">video</property>
  <property name="meta.media.0.stream.frame_rate">23.976</property>
  <property name="meta.media.0.stream.sample_aspect_ratio">1</property>
  <property name="meta.media.0.codec.width">960</property>
  <property name="meta.media.0.codec.height">540</property>
  <property name="meta.media.0.codec.rotate">0</property>
  <property name="meta.media.0.codec.frame_rate">1000</property>
  <property name="meta.media.0.codec.pix_fmt">yuvj420p</property>
  <property name="meta.media.0.codec.sample_aspect_ratio">1</property>
  <property name="meta.media.0.codec.colorspace">601</property>
  <property name="meta.media.0.codec.name">mjpeg</property>
  <property name="meta.media.0.codec.long_name">MJPEG (Motion JPEG)</property>
  <property name="meta.media.0.codec.bit_rate">0</property>
  <property name="meta.attr.0.stream.language.markup">eng</property>
  <property name="meta.attr.0.stream.HANDLER_NAME.markup">Mainconcept MP4 Video Media Handler</property>
  <property name="meta.attr.0.stream.ENCODER.markup">Lavc58.91.100 mjpeg</property>
  <property name="meta.attr.0.stream.DURATION.markup">00:00:29.947000000</property>
  <property name="meta.attr.COMPATIBLE_BRANDS.markup">mp42mp41</property>
  <property name="meta.attr.MAJOR_BRAND.markup">mp42</property>
  <property name="meta.attr.MINOR_VERSION.markup">0</property>
  <property name="meta.attr.ENCODER.markup">Lavf58.45.100</property>
  <property name="meta.media.sample_aspect_num">1</property>
  <property name="meta.media.sample_aspect_den">1</property>
  <property name="meta.media.frame_rate_num">2997</property>
  <property name="meta.media.frame_rate_den">125</property>
  <property name="meta.media.colorspace">601</property>
  <property name="meta.media.color_trc">2</property>
  <property name="meta.media.width">960</property>
  <property name="meta.media.height">540</property>
  <property name="meta.media.color_range">full</property>
  <property name="meta.media.top_field_first">0</property>
  <property name="meta.media.progressive">1</property>
 </producer>
 <producer id="producer88" in="00:00:00.000" out="00:00:09.067">
  <property name="length">273</property>
  <property name="eof">pause</property>
  <property name="resource">content/footage/network_2.gif</property>
  <property name="audio_index">-1</property>
  <property name="video_index">0</property>
  <property name="mute_on_pause">0</property>
  <property name="mlt_service">avformat-novalidate</property>
  <property name="meta.media.nb_streams">1</property>
  <property name="meta.media.0.stream.type">video</property>
  <property name="meta.media.0.stream.frame_rate">14.25</property>
  <property name="meta.media.0.stream.sample_aspect_ratio">0</property>
  <property name="meta.media.0.codec.width">555</property>
  <property name="meta.media.0.codec.height">555</property>
  <property name="meta.media.0.codec.rotate">0</property>
  <property name="meta.media.0.codec.frame_rate">100</property>
  <property name="meta.media.0.codec.pix_fmt">bgra</property>
  <property name="meta.media.0.codec.sample_aspect_ratio">0</property>
  <property name="meta.media.0.codec.colorspace">601</property>
  <property name="meta.media.0.codec.name">gif</property>
  <property name="meta.media.0.codec.long_name">GIF (Graphics Interchange Format)</property>
  <property name="meta.media.0.codec.bit_rate">0</property>
  <property name="seekable">1</property>
  <property name="meta.media.sample_aspect_num">1</property>
  <property name="meta.media.sample_aspect_den">1</property>
  <property name="aspect_ratio">1</property>
  <property name="kdenlive:clipname"/>
  <property name="kdenlive:folderid">102</property>
  <property name="meta.media.frame_rate_num">57</property>
  <property name="meta.media.frame_rate_den">4</property>
  <property name="meta.media.colorspace">601</property>
  <property name="meta.media.color_trc">2</property>
  <property name="meta.media.width">555</property>
  <property name="meta.media.height">555</property>
  <property name="meta.media.color_range">mpeg</property>
  <property name="kdenlive:id">95</property>
  <property name="kdenlive:file_size">8593024</property>
  <property name="kdenlive:file_hash">16fa06848b277bfb059720a8a9d258a6</property>
  <property name="meta.media.top_field_first">0</property>
  <property name="meta.media.progressive">1</property>
  <property name="global_feed">1</property>
 </producer>
 <producer id="producer89" in="00:00:00.000" out="00:00:06.867">
  <property name="length">207</property>
  <property name="eof">pause</property>
  <property name="resource">content/Internet_map.jpg</property>
  <property name="ttl">25</property>
  <property name="aspect_ratio">1</property>
  <property name="progressive">1</property>
  <property name="seekable">1</property>
  <property name="meta.media.width">1280</property>
  <property name="meta.media.height">1280</property>
  <property name="mlt_service">qimage</property>
  <property name="kdenlive:clipname"/>
  <property name="kdenlive:duration">00:00:05.000</property>
  <property name="kdenlive:folderid">-1</property>
  <property name="kdenlive:id">96</property>
  <property name="kdenlive:file_size">1328218</property>
  <property name="kdenlive:file_hash">bfe94115d3f3282406b4579348f5ac6f</property>
 </producer>
 <producer id="producer90" in="00:00:00.000" out="00:00:11.467">
  <property name="length">345</property>
  <property name="eof">pause</property>
  <property name="resource">content/Conways_game_of_life_breeder_animation.gif</property>
  <property name="audio_index">-1</property>
  <property name="video_index">0</property>
  <property name="mute_on_pause">0</property>
  <property name="mlt_service">avformat-novalidate</property>
  <property name="meta.media.nb_streams">1</property>
  <property name="meta.media.0.stream.type">video</property>
  <property name="meta.media.0.stream.frame_rate">50</property>
  <property name="meta.media.0.stream.sample_aspect_ratio">0</property>
  <property name="meta.media.0.codec.width">379</property>
  <property name="meta.media.0.codec.height">192</property>
  <property name="meta.media.0.codec.rotate">0</property>
  <property name="meta.media.0.codec.frame_rate">100</property>
  <property name="meta.media.0.codec.pix_fmt">bgra</property>
  <property name="meta.media.0.codec.sample_aspect_ratio">0</property>
  <property name="meta.media.0.codec.colorspace">601</property>
  <property name="meta.media.0.codec.name">gif</property>
  <property name="meta.media.0.codec.long_name">GIF (Graphics Interchange Format)</property>
  <property name="meta.media.0.codec.bit_rate">0</property>
  <property name="seekable">1</property>
  <property name="meta.media.sample_aspect_num">1</property>
  <property name="meta.media.sample_aspect_den">1</property>
  <property name="aspect_ratio">1</property>
  <property name="kdenlive:clipname"/>
  <property name="kdenlive:folderid">-1</property>
  <property name="meta.media.frame_rate_num">50</property>
  <property name="meta.media.frame_rate_den">1</property>
  <property name="meta.media.colorspace">601</property>
  <property name="meta.media.color_trc">2</property>
  <property name="meta.media.width">379</property>
  <property name="meta.media.height">192</property>
  <property name="meta.media.color_range">mpeg</property>
  <property name="kdenlive:id">97</property>
  <property name="kdenlive:file_size">770706</property>
  <property name="kdenlive:file_hash">ce82dc4f63602630cdef04109038e09c</property>
  <property name="meta.media.top_field_first">0</property>
  <property name="meta.media.progressive">1</property>
  <property name="global_feed">1</property>
 </producer>
 <producer id="producer91" in="00:00:00.000" out="00:00:04.967">
  <property name="length">00:00:05.000</property>
  <property name="eof">pause</property>
  <property name="resource">content/textures/blue_clouds.jpg</property>
  <property name="ttl">25</property>
  <property name="aspect_ratio">1</property>
  <property name="progressive">1</property>
  <property name="seekable">1</property>
  <property name="meta.media.width">257</property>
  <property name="meta.media.height">257</property>
  <property name="mlt_service">qimage</property>
  <property name="kdenlive:clipname"/>
  <property name="kdenlive:duration">00:00:05.000</property>
  <property name="kdenlive:folderid">108</property>
  <property name="kdenlive:id">98</property>
  <property name="kdenlive:file_size">26166</property>
  <property name="kdenlive:file_hash">e1de6236b8a3b419429950c0d564624d</property>
  <property name="global_feed">1</property>
 </producer>
 <producer id="producer92" in="00:00:00.000" out="00:00:04.967">
  <property name="length">00:00:05.000</property>
  <property name="eof">pause</property>
  <property name="resource">content/textures/branch_in_water.jpg</property>
  <property name="ttl">25</property>
  <property name="aspect_ratio">1</property>
  <property name="progressive">1</property>
  <property name="seekable">1</property>
  <property name="meta.media.width">393</property>
  <property name="meta.media.height">393</property>
  <property name="mlt_service">qimage</property>
  <property name="kdenlive:clipname"/>
  <property name="kdenlive:duration">00:00:05.000</property>
  <property name="kdenlive:folderid">108</property>
  <property name="kdenlive:id">99</property>
  <property name="kdenlive:file_size">113037</property>
  <property name="kdenlive:file_hash">8aa1a032a0ce52c5dfb98ee9f62e189e</property>
 </producer>
 <producer id="producer93" in="00:00:00.000" out="00:00:04.967">
  <property name="length">00:00:05.000</property>
  <property name="eof">pause</property>
  <property name="resource">content/textures/cliff_clouds.jpg</property>
  <property name="ttl">25</property>
  <property name="aspect_ratio">1</property>
  <property name="progressive">1</property>
  <property name="seekable">1</property>
  <property name="meta.media.width">294</property>
  <property name="meta.media.height">294</property>
  <property name="mlt_service">qimage</property>
  <property name="kdenlive:clipname"/>
  <property name="kdenlive:duration">00:00:05.000</property>
  <property name="kdenlive:folderid">108</property>
  <property name="kdenlive:id">100</property>
  <property name="kdenlive:file_size">45068</property>
  <property name="kdenlive:file_hash">9cb596725d5ccadc3353d0c51877a4e8</property>
 </producer>
 <producer id="producer94" in="00:00:00.000" out="00:00:04.967">
  <property name="length">00:00:05.000</property>
  <property name="eof">pause</property>
  <property name="resource">content/textures/cliff_rock.jpg</property>
  <property name="ttl">25</property>
  <property name="aspect_ratio">1</property>
  <property name="progressive">1</property>
  <property name="seekable">1</property>
  <property name="meta.media.width">745</property>
  <property name="meta.media.height">745</property>
  <property name="mlt_service">qimage</property>
  <property name="kdenlive:clipname"/>
  <property name="kdenlive:duration">00:00:05.000</property>
  <property name="kdenlive:folderid">108</property>
  <property name="kdenlive:id">101</property>
  <property name="kdenlive:file_size">338647</property>
  <property name="kdenlive:file_hash">7b6c376cb2b4d0fec79e8e4ac9254b5a</property>
 </producer>
 <producer id="producer95" in="00:00:00.000" out="00:00:04.967">
  <property name="length">00:00:05.000</property>
  <property name="eof">pause</property>
  <property name="resource">content/textures/clouds_from_the_top.jpg</property>
  <property name="ttl">25</property>
  <property name="aspect_ratio">1</property>
  <property name="progressive">1</property>
  <property name="seekable">1</property>
  <property name="meta.media.width">378</property>
  <property name="meta.media.height">378</property>
  <property name="mlt_service">qimage</property>
  <property name="kdenlive:clipname"/>
  <property name="kdenlive:duration">00:00:05.000</property>
  <property name="kdenlive:folderid">108</property>
  <property name="kdenlive:id">103</property>
  <property name="kdenlive:file_size">48026</property>
  <property name="kdenlive:file_hash">81b238455cc6b48e8fe7a25df3fc81b4</property>
 </producer>
 <producer id="producer96" in="00:00:00.000" out="00:00:04.967">
  <property name="length">00:00:05.000</property>
  <property name="eof">pause</property>
  <property name="resource">content/textures/clouds_soft_light.jpg</property>
  <property name="ttl">25</property>
  <property name="aspect_ratio">1</property>
  <property name="progressive">1</property>
  <property name="seekable">1</property>
  <property name="meta.media.width">284</property>
  <property name="meta.media.height">284</property>
  <property name="mlt_service">qimage</property>
  <property name="kdenlive:clipname"/>
  <property name="kdenlive:duration">00:00:05.000</property>
  <property name="kdenlive:folderid">108</property>
  <property name="kdenlive:id">104</property>
  <property name="kdenlive:file_size">22292</property>
  <property name="kdenlive:file_hash">7cc998e5f85a5fa8864b490848bac29f</property>
 </producer>
 <producer id="producer97" in="00:00:00.000" out="00:00:04.967">
  <property name="length">00:00:05.000</property>
  <property name="eof">pause</property>
  <property name="resource">content/textures/ducks.jpg</property>
  <property name="ttl">25</property>
  <property name="aspect_ratio">1</property>
  <property name="progressive">1</property>
  <property name="seekable">1</property>
  <property name="meta.media.width">646</property>
  <property name="meta.media.height">646</property>
  <property name="mlt_service">qimage</property>
  <property name="kdenlive:clipname"/>
  <property name="kdenlive:duration">00:00:05.000</property>
  <property name="kdenlive:folderid">108</property>
  <property name="kdenlive:id">105</property>
  <property name="kdenlive:file_size">173389</property>
  <property name="kdenlive:file_hash">9cea18ebb55295596f957efc50034fc3</property>
 </producer>
 <producer id="producer98" in="00:00:00.000" out="00:00:04.967">
  <property name="length">00:00:05.000</property>
  <property name="eof">pause</property>
  <property name="resource">content/textures/fir.jpg</property>
  <property name="ttl">25</property>
  <property name="aspect_ratio">1</property>
  <property name="progressive">1</property>
  <property name="seekable">1</property>
  <property name="meta.media.width">490</property>
  <property name="meta.media.height">490</property>
  <property name="mlt_service">qimage</property>
  <property name="kdenlive:clipname"/>
  <property name="kdenlive:duration">00:00:05.000</property>
  <property name="kdenlive:folderid">108</property>
  <property name="kdenlive:id">106</property>
  <property name="kdenlive:file_size">239501</property>
  <property name="kdenlive:file_hash">406f41024e937977ce3d1717d158b14f</property>
 </producer>
 <producer id="producer99" in="00:00:00.000" out="00:00:04.967">
  <property name="length">00:00:05.000</property>
  <property name="eof">pause</property>
  <property name="resource">content/textures/fir_tree_top.jpg</property>
  <property name="ttl">25</property>
  <property name="aspect_ratio">1</property>
  <property name="progressive">1</property>
  <property name="seekable">1</property>
  <property name="meta.media.width">844</property>
  <property name="meta.media.height">844</property>
  <property name="mlt_service">qimage</property>
  <property name="kdenlive:clipname"/>
  <property name="kdenlive:duration">00:00:05.000</property>
  <property name="kdenlive:folderid">108</property>
  <property name="kdenlive:id">107</property>
  <property name="kdenlive:file_size">416127</property>
  <property name="kdenlive:file_hash">d552bd7d0e9fd2e2b2c8427c9721e98a</property>
 </producer>
 <producer id="producer100" in="00:00:00.000" out="00:00:04.967">
  <property name="length">00:00:05.000</property>
  <property name="eof">pause</property>
  <property name="resource">content/textures/forest_floor.jpg</property>
  <property name="ttl">25</property>
  <property name="aspect_ratio">1</property>
  <property name="progressive">1</property>
  <property name="seekable">1</property>
  <property name="meta.media.width">567</property>
  <property name="meta.media.height">567</property>
  <property name="mlt_service">qimage</property>
  <property name="kdenlive:clipname"/>
  <property name="kdenlive:duration">00:00:05.000</property>
  <property name="kdenlive:folderid">108</property>
  <property name="kdenlive:id">109</property>
  <property name="kdenlive:file_size">174403</property>
  <property name="kdenlive:file_hash">ebfdc7b04367fcf06a1e18139194ada3</property>
 </producer>
 <producer id="producer101" in="00:00:00.000" out="00:00:04.967">
  <property name="length">00:00:05.000</property>
  <property name="eof">pause</property>
  <property name="resource">content/textures/froth.jpg</property>
  <property name="ttl">25</property>
  <property name="aspect_ratio">1</property>
  <property name="progressive">1</property>
  <property name="seekable">1</property>
  <property name="meta.media.width">255</property>
  <property name="meta.media.height">255</property>
  <property name="mlt_service">qimage</property>
  <property name="kdenlive:clipname"/>
  <property name="kdenlive:duration">00:00:05.000</property>
  <property name="kdenlive:folderid">108</property>
  <property name="kdenlive:id">110</property>
  <property name="kdenlive:file_size">60510</property>
  <property name="kdenlive:file_hash">aedab4fd7a7d0f1f3e4007658287128d</property>
 </producer>
 <producer id="producer102" in="00:00:00.000" out="00:00:04.967">
  <property name="length">00:00:05.000</property>
  <property name="eof">pause</property>
  <property name="resource">content/textures/grass.jpg</property>
  <property name="ttl">25</property>
  <property name="aspect_ratio">1</property>
  <property name="progressive">1</property>
  <property name="seekable">1</property>
  <property name="meta.media.width">382</property>
  <property name="meta.media.height">382</property>
  <property name="mlt_service">qimage</property>
  <property name="kdenlive:clipname"/>
  <property name="kdenlive:duration">00:00:05.000</property>
  <property name="kdenlive:folderid">108</property>
  <property name="kdenlive:id">111</property>
  <property name="kdenlive:file_size">68843</property>
  <property name="kdenlive:file_hash">0aca24310ceb04fe2a7d35786f624567</property>
 </producer>
 <producer id="producer103" in="00:00:00.000" out="00:00:04.967">
  <property name="length">00:00:05.000</property>
  <property name="eof">pause</property>
  <property name="resource">content/textures/green_tree_tops.jpg</property>
  <property name="ttl">25</property>
  <property name="aspect_ratio">1</property>
  <property name="progressive">1</property>
  <property name="seekable">1</property>
  <property name="meta.media.width">434</property>
  <property name="meta.media.height">434</property>
  <property name="mlt_service">qimage</property>
  <property name="kdenlive:clipname"/>
  <property name="kdenlive:duration">00:00:05.000</property>
  <property name="kdenlive:folderid">108</property>
  <property name="kdenlive:id">112</property>
  <property name="kdenlive:file_size">111106</property>
  <property name="kdenlive:file_hash">dad7115a3513b6e70353258ae90e2e9b</property>
 </producer>
 <producer id="producer104" in="00:00:00.000" out="00:00:04.967">
  <property name="length">00:00:05.000</property>
  <property name="eof">pause</property>
  <property name="resource">content/textures/grey_clouds.jpg</property>
  <property name="ttl">25</property>
  <property name="aspect_ratio">1</property>
  <property name="progressive">1</property>
  <property name="seekable">1</property>
  <property name="meta.media.width">688</property>
  <property name="meta.media.height">688</property>
  <property name="mlt_service">qimage</property>
  <property name="kdenlive:clipname"/>
  <property name="kdenlive:duration">00:00:05.000</property>
  <property name="kdenlive:folderid">108</property>
  <property name="kdenlive:id">113</property>
  <property name="kdenlive:file_size">95084</property>
  <property name="kdenlive:file_hash">d02aad15891fc46f821712a79ef79d09</property>
 </producer>
 <producer id="producer105" in="00:00:00.000" out="00:00:04.967">
  <property name="length">00:00:05.000</property>
  <property name="eof">pause</property>
  <property name="resource">content/textures/haze.jpg</property>
  <property name="ttl">25</property>
  <property name="aspect_ratio">1</property>
  <property name="progressive">1</property>
  <property name="seekable">1</property>
  <property name="meta.media.width">343</property>
  <property name="meta.media.height">343</property>
  <property name="mlt_service">qimage</property>
  <property name="kdenlive:clipname"/>
  <property name="kdenlive:duration">00:00:05.000</property>
  <property name="kdenlive:folderid">108</property>
  <property name="kdenlive:id">114</property>
  <property name="kdenlive:file_size">30946</property>
  <property name="kdenlive:file_hash">65c44007953317c4423e4f36b203ffd5</property>
 </producer>
 <producer id="producer106" in="00:00:00.000" out="00:00:04.967">
  <property name="length">00:00:05.000</property>
  <property name="eof">pause</property>
  <property name="resource">content/textures/horizon_lake_trees_sky.jpg</property>
  <property name="ttl">25</property>
  <property name="aspect_ratio">1</property>
  <property name="progressive">1</property>
  <property name="seekable">1</property>
  <property name="meta.media.width">720</property>
  <property name="meta.media.height">720</property>
  <property name="mlt_service">qimage</property>
  <property name="kdenlive:clipname"/>
  <property name="kdenlive:duration">00:00:05.000</property>
  <property name="kdenlive:folderid">108</property>
  <property name="kdenlive:id">115</property>
  <property name="kdenlive:file_size">225710</property>
  <property name="kdenlive:file_hash">78fd82ae92c2132534ffe4360a1a771e</property>
 </producer>
 <producer id="producer107" in="00:00:00.000" out="00:00:04.967">
  <property name="length">00:00:05.000</property>
  <property name="eof">pause</property>
  <property name="resource">content/textures/horizon_layers.jpg</property>
  <property name="ttl">25</property>
  <property name="aspect_ratio">1</property>
  <property name="progressive">1</property>
  <property name="seekable">1</property>
  <property name="meta.media.width">1088</property>
  <property name="meta.media.height">1088</property>
  <property name="mlt_service">qimage</property>
  <property name="kdenlive:clipname"/>
  <property name="kdenlive:duration">00:00:05.000</property>
  <property name="kdenlive:folderid">108</property>
  <property name="kdenlive:id">116</property>
  <property name="kdenlive:file_size">354501</property>
  <property name="kdenlive:file_hash">d580efa7dde9b2eb8a32170ffffed305</property>
 </producer>
 <producer id="producer108" in="00:00:00.000" out="00:00:04.967">
  <property name="length">00:00:05.000</property>
  <property name="eof">pause</property>
  <property name="resource">content/textures/lichen.jpg</property>
  <property name="ttl">25</property>
  <property name="aspect_ratio">1</property>
  <property name="progressive">1</property>
  <property name="seekable">1</property>
  <property name="meta.media.width">591</property>
  <property name="meta.media.height">591</property>
  <property name="mlt_service">qimage</property>
  <property name="kdenlive:clipname"/>
  <property name="kdenlive:duration">00:00:05.000</property>
  <property name="kdenlive:folderid">108</property>
  <property name="kdenlive:id">117</property>
  <property name="kdenlive:file_size">257621</property>
  <property name="kdenlive:file_hash">df5aefada45fa15d2b9b0120b224f395</property>
 </producer>
 <producer id="producer109" in="00:00:00.000" out="00:00:04.967">
  <property name="length">00:00:05.000</property>
  <property name="eof">pause</property>
  <property name="resource">content/textures/lilies.jpg</property>
  <property name="ttl">25</property>
  <property name="aspect_ratio">1</property>
  <property name="progressive">1</property>
  <property name="seekable">1</property>
  <property name="meta.media.width">1434</property>
  <property name="meta.media.height">1434</property>
  <property name="mlt_service">qimage</property>
  <property name="kdenlive:clipname"/>
  <property name="kdenlive:duration">00:00:05.000</property>
  <property name="kdenlive:folderid">108</property>
  <property name="kdenlive:id">118</property>
  <property name="kdenlive:file_size">1001393</property>
  <property name="kdenlive:file_hash">43c65f2255723dfd91b5710520e1a350</property>
 </producer>
 <producer id="producer110" in="00:00:00.000" out="00:00:04.967">
  <property name="length">00:00:05.000</property>
  <property name="eof">pause</property>
  <property name="resource">content/textures/lily_clouds_reflection.jpg</property>
  <property name="ttl">25</property>
  <property name="aspect_ratio">1</property>
  <property name="progressive">1</property>
  <property name="seekable">1</property>
  <property name="meta.media.width">790</property>
  <property name="meta.media.height">790</property>
  <property name="mlt_service">qimage</property>
  <property name="kdenlive:clipname"/>
  <property name="kdenlive:duration">00:00:05.000</property>
  <property name="kdenlive:folderid">108</property>
  <property name="kdenlive:id">119</property>
  <property name="kdenlive:file_size">293664</property>
  <property name="kdenlive:file_hash">3fca2627156e03b7ba4a1f5884108a91</property>
 </producer>
 <producer id="producer111" in="00:00:00.000" out="00:00:04.967">
  <property name="length">00:00:05.000</property>
  <property name="eof">pause</property>
  <property name="resource">content/textures/marsh.jpg</property>
  <property name="ttl">25</property>
  <property name="aspect_ratio">1</property>
  <property name="progressive">1</property>
  <property name="seekable">1</property>
  <property name="meta.media.width">370</property>
  <property name="meta.media.height">369</property>
  <property name="mlt_service">qimage</property>
  <property name="kdenlive:clipname"/>
  <property name="kdenlive:duration">00:00:05.000</property>
  <property name="kdenlive:folderid">108</property>
  <property name="kdenlive:id">120</property>
  <property name="kdenlive:file_size">131248</property>
  <property name="kdenlive:file_hash">0bb508315dd172e924687ff0d6934747</property>
 </producer>
 <producer id="producer112" in="00:00:00.000" out="00:00:04.967">
  <property name="length">00:00:05.000</property>
  <property name="eof">pause</property>
  <property name="resource">content/textures/misty_water.jpg</property>
  <property name="ttl">25</property>
  <property name="aspect_ratio">1</property>
  <property name="progressive">1</property>
  <property name="seekable">1</property>
  <property name="meta.media.width">591</property>
  <property name="meta.media.height">591</property>
  <property name="mlt_service">qimage</property>
  <property name="kdenlive:clipname"/>
  <property name="kdenlive:duration">00:00:05.000</property>
  <property name="kdenlive:folderid">108</property>
  <property name="kdenlive:id">121</property>
  <property name="kdenlive:file_size">62932</property>
  <property name="kdenlive:file_hash">6f3f9f5150e19f8cbb87ef1bbc29212e</property>
 </producer>
 <producer id="producer113" in="00:00:00.000" out="00:00:04.967">
  <property name="length">00:00:05.000</property>
  <property name="eof">pause</property>
  <property name="resource">content/textures/moon_lake.jpg</property>
  <property name="ttl">25</property>
  <property name="aspect_ratio">1</property>
  <property name="progressive">1</property>
  <property name="seekable">1</property>
  <property name="meta.media.width">374</property>
  <property name="meta.media.height">374</property>
  <property name="mlt_service">qimage</property>
  <property name="kdenlive:clipname"/>
  <property name="kdenlive:duration">00:00:05.000</property>
  <property name="kdenlive:folderid">108</property>
  <property name="kdenlive:id">122</property>
  <property name="kdenlive:file_size">51985</property>
  <property name="kdenlive:file_hash">dac25f9b0bad614e98d13c3e934e95d2</property>
  <property name="global_feed">1</property>
 </producer>
 <producer id="producer114" in="00:00:00.000" out="00:00:04.967">
  <property name="length">00:00:05.000</property>
  <property name="eof">pause</property>
  <property name="resource">content/textures/moss_bark.jpg</property>
  <property name="ttl">25</property>
  <property name="aspect_ratio">1</property>
  <property name="progressive">1</property>
  <property name="seekable">1</property>
  <property name="meta.media.width">406</property>
  <property name="meta.media.height">406</property>
  <property name="mlt_service">qimage</property>
  <property name="kdenlive:clipname"/>
  <property name="kdenlive:duration">00:00:05.000</property>
  <property name="kdenlive:folderid">108</property>
  <property name="kdenlive:id">123</property>
  <property name="kdenlive:file_size">137622</property>
  <property name="kdenlive:file_hash">42e1efca1416699476677abbfd7a0ffb</property>
 </producer>
 <producer id="producer115" in="00:00:00.000" out="00:00:04.967">
  <property name="length">00:00:05.000</property>
  <property name="eof">pause</property>
  <property name="resource">content/textures/mushroom.jpg</property>
  <property name="ttl">25</property>
  <property name="aspect_ratio">1</property>
  <property name="progressive">1</property>
  <property name="seekable">1</property>
  <property name="meta.media.width">441</property>
  <property name="meta.media.height">441</property>
  <property name="mlt_service">qimage</property>
  <property name="kdenlive:clipname"/>
  <property name="kdenlive:duration">00:00:05.000</property>
  <property name="kdenlive:folderid">108</property>
  <property name="kdenlive:id">124</property>
  <property name="kdenlive:file_size">160013</property>
  <property name="kdenlive:file_hash">1153b6be31b6ad8313302554a6b7926e</property>
 </producer>
 <producer id="producer116" in="00:00:00.000" out="00:00:04.967">
  <property name="length">00:00:05.000</property>
  <property name="eof">pause</property>
  <property name="resource">content/textures/red_mushroom.jpg</property>
  <property name="ttl">25</property>
  <property name="aspect_ratio">1</property>
  <property name="progressive">1</property>
  <property name="seekable">1</property>
  <property name="meta.media.width">355</property>
  <property name="meta.media.height">355</property>
  <property name="mlt_service">qimage</property>
  <property name="kdenlive:clipname"/>
  <property name="kdenlive:duration">00:00:05.000</property>
  <property name="kdenlive:folderid">108</property>
  <property name="kdenlive:id">125</property>
  <property name="kdenlive:file_size">60711</property>
  <property name="kdenlive:file_hash">4d801e57fe097b7e26ed63ae10f54cae</property>
 </producer>
 <producer id="producer117" in="00:00:00.000" out="00:00:04.967">
  <property name="length">00:00:05.000</property>
  <property name="eof">pause</property>
  <property name="resource">content/textures/red_rock_lichen.jpg</property>
  <property name="ttl">25</property>
  <property name="aspect_ratio">1</property>
  <property name="progressive">1</property>
  <property name="seekable">1</property>
  <property name="meta.media.width">517</property>
  <property name="meta.media.height">517</property>
  <property name="mlt_service">qimage</property>
  <property name="kdenlive:clipname"/>
  <property name="kdenlive:duration">00:00:05.000</property>
  <property name="kdenlive:folderid">108</property>
  <property name="kdenlive:id">126</property>
  <property name="kdenlive:file_size">243871</property>
  <property name="kdenlive:file_hash">bbb59d9027787aab0626b279000ed535</property>
 </producer>
 <producer id="producer118" in="00:00:00.000" out="00:00:04.967">
  <property name="length">00:00:05.000</property>
  <property name="eof">pause</property>
  <property name="resource">content/textures/ripple.jpg</property>
  <property name="ttl">25</property>
  <property name="aspect_ratio">1</property>
  <property name="progressive">1</property>
  <property name="seekable">1</property>
  <property name="meta.media.width">1235</property>
  <property name="meta.media.height">1235</property>
  <property name="mlt_service">qimage</property>
  <property name="kdenlive:clipname"/>
  <property name="kdenlive:duration">00:00:05.000</property>
  <property name="kdenlive:folderid">108</property>
  <property name="kdenlive:id">127</property>
  <property name="kdenlive:file_size">321728</property>
  <property name="kdenlive:file_hash">adb84395d1ac50f3b784e8845b876702</property>
 </producer>
 <producer id="producer119" in="00:00:00.000" out="00:00:04.967">
  <property name="length">00:00:05.000</property>
  <property name="eof">pause</property>
  <property name="resource">content/textures/rocks.jpg</property>
  <property name="ttl">25</property>
  <property name="aspect_ratio">1</property>
  <property name="progressive">1</property>
  <property name="seekable">1</property>
  <property name="meta.media.width">254</property>
  <property name="meta.media.height">255</property>
  <property name="mlt_service">qimage</property>
  <property name="kdenlive:clipname"/>
  <property name="kdenlive:duration">00:00:05.000</property>
  <property name="kdenlive:folderid">108</property>
  <property name="kdenlive:id">128</property>
  <property name="kdenlive:file_size">63193</property>
  <property name="kdenlive:file_hash">f0e18f8147593285a312e0c78ee208b6</property>
 </producer>
 <producer id="producer120" in="00:00:00.000" out="00:00:04.967">
  <property name="length">00:00:05.000</property>
  <property name="eof">pause</property>
  <property name="resource">content/textures/rock_trees_reflection.jpg</property>
  <property name="ttl">25</property>
  <property name="aspect_ratio">1</property>
  <property name="progressive">1</property>
  <property name="seekable">1</property>
  <property name="meta.media.width">750</property>
  <property name="meta.media.height">750</property>
  <property name="mlt_service">qimage</property>
  <property name="kdenlive:clipname"/>
  <property name="kdenlive:duration">00:00:05.000</property>
  <property name="kdenlive:folderid">108</property>
  <property name="kdenlive:id">129</property>
  <property name="kdenlive:file_size">293627</property>
  <property name="kdenlive:file_hash">85ca220f178ae9f1b5bb575b72fb7238</property>
 </producer>
 <producer id="producer121" in="00:00:00.000" out="00:00:04.967">
  <property name="length">00:00:05.000</property>
  <property name="eof">pause</property>
  <property name="resource">content/textures/roots_rocks.jpg</property>
  <property name="ttl">25</property>
  <property name="aspect_ratio">1</property>
  <property name="progressive">1</property>
  <property name="seekable">1</property>
  <property name="meta.media.width">391</property>
  <property name="meta.media.height">391</property>
  <property name="mlt_service">qimage</property>
  <property name="kdenlive:clipname"/>
  <property name="kdenlive:duration">00:00:05.000</property>
  <property name="kdenlive:folderid">108</property>
  <property name="kdenlive:id">130</property>
  <property name="kdenlive:file_size">112662</property>
  <property name="kdenlive:file_hash">610e03fd03b0161fe02d1c9010f78682</property>
 </producer>
 <producer id="producer122" in="00:00:00.000" out="00:00:04.967">
  <property name="length">00:00:05.000</property>
  <property name="eof">pause</property>
  <property name="resource">content/textures/sun_clouds_trees.jpg</property>
  <property name="ttl">25</property>
  <property name="aspect_ratio">1</property>
  <property name="progressive">1</property>
  <property name="seekable">1</property>
  <property name="meta.media.width">596</property>
  <property name="meta.media.height">596</property>
  <property name="mlt_service">qimage</property>
  <property name="kdenlive:clipname"/>
  <property name="kdenlive:duration">00:00:05.000</property>
  <property name="kdenlive:folderid">108</property>
  <property name="kdenlive:id">131</property>
  <property name="kdenlive:file_size">137533</property>
  <property name="kdenlive:file_hash">82ce02cc067e1d09da51edc6d3238d1c</property>
 </producer>
 <producer id="producer123" in="00:00:00.000" out="00:00:04.967">
  <property name="length">00:00:05.000</property>
  <property name="eof">pause</property>
  <property name="resource">content/textures/sunset_city_water.jpg</property>
  <property name="ttl">25</property>
  <property name="aspect_ratio">1</property>
  <property name="progressive">1</property>
  <property name="seekable">1</property>
  <property name="meta.media.width">437</property>
  <property name="meta.media.height">437</property>
  <property name="mlt_service">qimage</property>
  <property name="kdenlive:clipname"/>
  <property name="kdenlive:duration">00:00:05.000</property>
  <property name="kdenlive:folderid">108</property>
  <property name="kdenlive:id">132</property>
  <property name="kdenlive:file_size">59913</property>
  <property name="kdenlive:file_hash">9716a956cabc1806229e8b0e517e6958</property>
 </producer>
 <producer id="producer124" in="00:00:00.000" out="00:00:04.967">
  <property name="length">00:00:05.000</property>
  <property name="eof">pause</property>
  <property name="resource">content/textures/sunset_clouds.jpg</property>
  <property name="ttl">25</property>
  <property name="aspect_ratio">1</property>
  <property name="progressive">1</property>
  <property name="seekable">1</property>
  <property name="meta.media.width">615</property>
  <property name="meta.media.height">615</property>
  <property name="mlt_service">qimage</property>
  <property name="kdenlive:clipname"/>
  <property name="kdenlive:duration">00:00:05.000</property>
  <property name="kdenlive:folderid">108</property>
  <property name="kdenlive:id">133</property>
  <property name="kdenlive:file_size">63822</property>
  <property name="kdenlive:file_hash">23d93b5c738b9604b6d02706b767c847</property>
 </producer>
 <producer id="producer125" in="00:00:00.000" out="00:00:04.967">
  <property name="length">00:00:05.000</property>
  <property name="eof">pause</property>
  <property name="resource">content/textures/sunset_reflection.jpg</property>
  <property name="ttl">25</property>
  <property name="aspect_ratio">1</property>
  <property name="progressive">1</property>
  <property name="seekable">1</property>
  <property name="meta.media.width">408</property>
  <property name="meta.media.height">408</property>
  <property name="mlt_service">qimage</property>
  <property name="kdenlive:clipname"/>
  <property name="kdenlive:duration">00:00:05.000</property>
  <property name="kdenlive:folderid">108</property>
  <property name="kdenlive:id">134</property>
  <property name="kdenlive:file_size">31735</property>
  <property name="kdenlive:file_hash">0c0fe6d2a15336f807abd0bc45467c30</property>
 </producer>
 <producer id="producer126" in="00:00:00.000" out="00:00:04.967">
  <property name="length">00:00:05.000</property>
  <property name="eof">pause</property>
  <property name="resource">content/textures/sunset_ripples.jpg</property>
  <property name="ttl">25</property>
  <property name="aspect_ratio">1</property>
  <property name="progressive">1</property>
  <property name="seekable">1</property>
  <property name="meta.media.width">993</property>
  <property name="meta.media.height">993</property>
  <property name="mlt_service">qimage</property>
  <property name="kdenlive:clipname"/>
  <property name="kdenlive:duration">00:00:05.000</property>
  <property name="kdenlive:folderid">108</property>
  <property name="kdenlive:id">135</property>
  <property name="kdenlive:file_size">464447</property>
  <property name="kdenlive:file_hash">185abae2aaacd1aa060878f19d4fa4b4</property>
 </producer>
 <producer id="producer127" in="00:00:00.000" out="00:00:04.967">
  <property name="length">00:00:05.000</property>
  <property name="eof">pause</property>
  <property name="resource">content/textures/tree_top_clouds.jpg</property>
  <property name="ttl">25</property>
  <property name="aspect_ratio">1</property>
  <property name="progressive">1</property>
  <property name="seekable">1</property>
  <property name="meta.media.width">291</property>
  <property name="meta.media.height">291</property>
  <property name="mlt_service">qimage</property>
  <property name="kdenlive:clipname"/>
  <property name="kdenlive:duration">00:00:05.000</property>
  <property name="kdenlive:folderid">108</property>
  <property name="kdenlive:id">136</property>
  <property name="kdenlive:file_size">39336</property>
  <property name="kdenlive:file_hash">60d1b673cb52e21c149fb3f565cc1fd6</property>
 </producer>
 <producer id="producer128" in="00:00:00.000" out="00:00:04.967">
  <property name="length">00:00:05.000</property>
  <property name="eof">pause</property>
  <property name="resource">content/textures/water_hex_reflection.jpg</property>
  <property name="ttl">25</property>
  <property name="aspect_ratio">1</property>
  <property name="progressive">1</property>
  <property name="seekable">1</property>
  <property name="meta.media.width">1418</property>
  <property name="meta.media.height">1418</property>
  <property name="mlt_service">qimage</property>
  <property name="kdenlive:clipname"/>
  <property name="kdenlive:duration">00:00:05.000</property>
  <property name="kdenlive:folderid">108</property>
  <property name="kdenlive:id">137</property>
  <property name="kdenlive:file_size">478579</property>
  <property name="kdenlive:file_hash">d1ea331a10bbeff1ebf3b1211ecad7c2</property>
 </producer>
 <producer id="producer129" in="00:00:00.000" out="00:00:04.967">
  <property name="length">00:00:05.000</property>
  <property name="eof">pause</property>
  <property name="resource">content/textures/water_spots.jpg</property>
  <property name="ttl">25</property>
  <property name="aspect_ratio">1</property>
  <property name="progressive">1</property>
  <property name="seekable">1</property>
  <property name="meta.media.width">410</property>
  <property name="meta.media.height">410</property>
  <property name="mlt_service">qimage</property>
  <property name="kdenlive:clipname"/>
  <property name="kdenlive:duration">00:00:05.000</property>
  <property name="kdenlive:folderid">108</property>
  <property name="kdenlive:id">138</property>
  <property name="kdenlive:file_size">91095</property>
  <property name="kdenlive:file_hash">a905e371c9a4261a7cbdd7a23b3041f6</property>
 </producer>
 <producer id="producer130" in="00:00:00.000" out="00:00:04.967">
  <property name="length">00:00:05.000</property>
  <property name="eof">pause</property>
  <property name="resource">content/textures/wave_rock_moss.jpg</property>
  <property name="ttl">25</property>
  <property name="aspect_ratio">1</property>
  <property name="progressive">1</property>
  <property name="seekable">1</property>
  <property name="meta.media.width">616</property>
  <property name="meta.media.height">615</property>
  <property name="mlt_service">qimage</property>
  <property name="kdenlive:clipname"/>
  <property name="kdenlive:duration">00:00:05.000</property>
  <property name="kdenlive:folderid">108</property>
  <property name="kdenlive:id">139</property>
  <property name="kdenlive:file_size">227454</property>
  <property name="kdenlive:file_hash">2b800ebb33f8b73d2d8fc1750ea1c4b1</property>
 </producer>
 <producer id="producer131" in="00:00:00.000" out="00:00:04.967">
  <property name="length">00:00:05.000</property>
  <property name="eof">pause</property>
  <property name="resource">content/textures/wave_swirl.jpg</property>
  <property name="ttl">25</property>
  <property name="aspect_ratio">1</property>
  <property name="progressive">1</property>
  <property name="seekable">1</property>
  <property name="meta.media.width">317</property>
  <property name="meta.media.height">317</property>
  <property name="mlt_service">qimage</property>
  <property name="kdenlive:clipname"/>
  <property name="kdenlive:duration">00:00:05.000</property>
  <property name="kdenlive:folderid">108</property>
  <property name="kdenlive:id">140</property>
  <property name="kdenlive:file_size">73363</property>
  <property name="kdenlive:file_hash">76ad359c3d3405bb6b094ab31ff04fc8</property>
 </producer>
 <producer id="producer132" in="00:00:00.000" out="00:00:04.967">
  <property name="length">00:00:05.000</property>
  <property name="eof">pause</property>
  <property name="resource">content/textures/white_flowers.jpg</property>
  <property name="ttl">25</property>
  <property name="aspect_ratio">1</property>
  <property name="progressive">1</property>
  <property name="seekable">1</property>
  <property name="meta.media.width">448</property>
  <property name="meta.media.height">448</property>
  <property name="mlt_service">qimage</property>
  <property name="kdenlive:clipname"/>
  <property name="kdenlive:duration">00:00:05.000</property>
  <property name="kdenlive:folderid">108</property>
  <property name="kdenlive:id">141</property>
  <property name="kdenlive:file_size">109164</property>
  <property name="kdenlive:file_hash">9963460929eb83505fdf5f42bab92e08</property>
 </producer>
 <producer id="producer133" in="00:00:00.000" out="00:00:04.967">
  <property name="length">00:00:05.000</property>
  <property name="eof">pause</property>
  <property name="resource">content/textures/white_flowers_closeup.jpg</property>
  <property name="ttl">25</property>
  <property name="aspect_ratio">1</property>
  <property name="progressive">1</property>
  <property name="seekable">1</property>
  <property name="meta.media.width">416</property>
  <property name="meta.media.height">416</property>
  <property name="mlt_service">qimage</property>
  <property name="kdenlive:clipname"/>
  <property name="kdenlive:duration">00:00:05.000</property>
  <property name="kdenlive:folderid">108</property>
  <property name="kdenlive:id">142</property>
  <property name="kdenlive:file_size">80213</property>
  <property name="kdenlive:file_hash">d155ce7ae9d36f8e2fd89a7457272ee7</property>
 </producer>
 <producer id="producer134" in="00:00:00.000" out="00:00:04.967">
  <property name="length">00:00:05.000</property>
  <property name="eof">pause</property>
  <property name="resource">content/textures/white_rock_green_trees.jpg</property>
  <property name="ttl">25</property>
  <property name="aspect_ratio">1</property>
  <property name="progressive">1</property>
  <property name="seekable">1</property>
  <property name="meta.media.width">425</property>
  <property name="meta.media.height">425</property>
  <property name="mlt_service">qimage</property>
  <property name="kdenlive:clipname"/>
  <property name="kdenlive:duration">00:00:05.000</property>
  <property name="kdenlive:folderid">108</property>
  <property name="kdenlive:id">143</property>
  <property name="kdenlive:file_size">148070</property>
  <property name="kdenlive:file_hash">dc8fd8a403b448f05d4ae3c2ba7757ed</property>
 </producer>
 <producer id="producer135" in="00:00:00.000" out="00:00:53.967">
  <property name="length">1620</property>
  <property name="eof">pause</property>
  <property name="resource">/home/ryankelln/.cache/kdenlive/proxy/6b8a043f3cd187bade37d55adacf88de.mkv</property>
  <property name="audio_index">-1</property>
  <property name="video_index">0</property>
  <property name="mute_on_pause">0</property>
  <property name="mlt_service">avformat-novalidate</property>
  <property name="seekable">1</property>
  <property name="aspect_ratio">1</property>
  <property name="kdenlive:clipname">fib_images_1080.mp4</property>
  <property name="kdenlive:folderid">153</property>
  <property name="kdenlive:id">144</property>
  <property name="kdenlive:file_size">21938571</property>
  <property name="kdenlive:file_hash">6b8a043f3cd187bade37d55adacf88de</property>
  <property name="kdenlive:proxy">/home/ryankelln/.cache/kdenlive/proxy/6b8a043f3cd187bade37d55adacf88de.mkv</property>
  <property name="kdenlive:originalurl">content/prerendered/fib_images_1080.mp4</property>
  <property name="kdenlive:original.mlt_type">producer</property>
  <property name="kdenlive:original.in">0</property>
  <property name="kdenlive:original.out">1619</property>
  <property name="kdenlive:original.length">1620</property>
  <property name="kdenlive:original.eof">pause</property>
  <property name="kdenlive:original.resource">content/prerendered/fib_images_1080.mp4</property>
  <property name="kdenlive:original.meta.media.nb_streams">1</property>
  <property name="kdenlive:original.meta.media.0.stream.type">video</property>
  <property name="kdenlive:original.meta.media.0.stream.frame_rate">30</property>
  <property name="kdenlive:original.meta.media.0.stream.sample_aspect_ratio">1</property>
  <property name="kdenlive:original.meta.media.0.codec.width">1080</property>
  <property name="kdenlive:original.meta.media.0.codec.height">1080</property>
  <property name="kdenlive:original.meta.media.0.codec.rotate">0</property>
  <property name="kdenlive:original.meta.media.0.codec.frame_rate">30</property>
  <property name="kdenlive:original.meta.media.0.codec.pix_fmt">yuv420p</property>
  <property name="kdenlive:original.meta.media.0.codec.sample_aspect_ratio">1</property>
  <property name="kdenlive:original.meta.media.0.codec.colorspace">709</property>
  <property name="kdenlive:original.meta.media.0.codec.name">h264</property>
  <property name="kdenlive:original.meta.media.0.codec.long_name">H.264 / AVC / MPEG-4 AVC / MPEG-4 part 10</property>
  <property name="kdenlive:original.meta.media.0.codec.bit_rate">3247887</property>
  <property name="kdenlive:original.meta.attr.0.stream.handler_name.markup">VideoHandler</property>
  <property name="kdenlive:original.meta.attr.major_brand.markup">isom</property>
  <property name="kdenlive:original.meta.attr.minor_version.markup">512</property>
  <property name="kdenlive:original.meta.attr.compatible_brands.markup">isomiso2avc1mp41</property>
  <property name="kdenlive:original.meta.attr.encoder.markup">Lavf58.45.100</property>
  <property name="kdenlive:original.seekable">1</property>
  <property name="kdenlive:original.width">1080</property>
  <property name="kdenlive:original.height">1080</property>
  <property name="kdenlive:original.meta.media.sample_aspect_num">1</property>
  <property name="kdenlive:original.meta.media.sample_aspect_den">1</property>
  <property name="kdenlive:original.aspect_ratio">1</property>
  <property name="kdenlive:original.audio_index">-1</property>
  <property name="kdenlive:original.video_index">0</property>
  <property name="kdenlive:original.mute_on_pause">0</property>
  <property name="kdenlive:original.mlt_service">avformat-novalidate</property>
  <property name="kdenlive:original.kdenlive:folderid">153</property>
  <property name="kdenlive:original.meta.media.frame_rate_num">30</property>
  <property name="kdenlive:original.meta.media.frame_rate_den">1</property>
  <property name="kdenlive:original.meta.media.colorspace">709</property>
  <property name="kdenlive:original.meta.media.color_trc">2</property>
  <property name="kdenlive:original.meta.media.width">1080</property>
  <property name="kdenlive:original.meta.media.height">1080</property>
  <property name="kdenlive:original.meta.media.color_range">mpeg</property>
  <property name="kdenlive:original.kdenlive:id">154</property>
  <property name="kdenlive:original.kdenlive:file_size">21938571</property>
  <property name="kdenlive:original.kdenlive:file_hash">6b8a043f3cd187bade37d55adacf88de</property>
  <property name="kdenlive:original.backup">1</property>
  <property name="global_feed">1</property>
  <property name="meta.media.nb_streams">1</property>
  <property name="meta.media.0.stream.type">video</property>
  <property name="meta.media.0.stream.frame_rate">30</property>
  <property name="meta.media.0.stream.sample_aspect_ratio">1</property>
  <property name="meta.media.0.codec.width">960</property>
  <property name="meta.media.0.codec.height">960</property>
  <property name="meta.media.0.codec.rotate">0</property>
  <property name="meta.media.0.codec.frame_rate">1000</property>
  <property name="meta.media.0.codec.pix_fmt">yuvj420p</property>
  <property name="meta.media.0.codec.sample_aspect_ratio">1</property>
  <property name="meta.media.0.codec.colorspace">601</property>
  <property name="meta.media.0.codec.name">mjpeg</property>
  <property name="meta.media.0.codec.long_name">MJPEG (Motion JPEG)</property>
  <property name="meta.media.0.codec.bit_rate">0</property>
  <property name="meta.attr.0.stream.HANDLER_NAME.markup">VideoHandler</property>
  <property name="meta.attr.0.stream.ENCODER.markup">Lavc58.91.100 mjpeg</property>
  <property name="meta.attr.0.stream.DURATION.markup">00:00:54.000000000</property>
  <property name="meta.attr.COMPATIBLE_BRANDS.markup">isomiso2avc1mp41</property>
  <property name="meta.attr.MAJOR_BRAND.markup">isom</property>
  <property name="meta.attr.MINOR_VERSION.markup">512</property>
  <property name="meta.attr.ENCODER.markup">Lavf58.45.100</property>
  <property name="meta.media.sample_aspect_num">1</property>
  <property name="meta.media.sample_aspect_den">1</property>
  <property name="meta.media.frame_rate_num">30</property>
  <property name="meta.media.frame_rate_den">1</property>
  <property name="meta.media.colorspace">601</property>
  <property name="meta.media.color_trc">2</property>
  <property name="meta.media.width">960</property>
  <property name="meta.media.height">960</property>
  <property name="meta.media.color_range">full</property>
 </producer>
 <producer id="producer136" in="00:00:00.000" out="00:02:11.967">
  <property name="length">3960</property>
  <property name="eof">pause</property>
  <property name="resource">/home/ryankelln/.cache/kdenlive/proxy/d51eab99028e47136c29c76f2420e376.mkv</property>
  <property name="audio_index">-1</property>
  <property name="video_index">0</property>
  <property name="mute_on_pause">0</property>
  <property name="mlt_service">avformat-novalidate</property>
  <property name="seekable">1</property>
  <property name="aspect_ratio">1</property>
  <property name="kdenlive:clipname">fib_textures_1080.mp4</property>
  <property name="kdenlive:folderid">153</property>
  <property name="kdenlive:id">145</property>
  <property name="kdenlive:file_size">49803648</property>
  <property name="kdenlive:file_hash">d51eab99028e47136c29c76f2420e376</property>
  <property name="kdenlive:proxy">/home/ryankelln/.cache/kdenlive/proxy/d51eab99028e47136c29c76f2420e376.mkv</property>
  <property name="kdenlive:originalurl">content/prerendered/fib_textures_1080.mp4</property>
  <property name="kdenlive:original.mlt_type">producer</property>
  <property name="kdenlive:original.in">0</property>
  <property name="kdenlive:original.out">3959</property>
  <property name="kdenlive:original.length">3960</property>
  <property name="kdenlive:original.eof">pause</property>
  <property name="kdenlive:original.resource">content/prerendered/fib_textures_1080.mp4</property>
  <property name="kdenlive:original.meta.media.nb_streams">1</property>
  <property name="kdenlive:original.meta.media.0.stream.type">video</property>
  <property name="kdenlive:original.meta.media.0.stream.frame_rate">30</property>
  <property name="kdenlive:original.meta.media.0.stream.sample_aspect_ratio">1</property>
  <property name="kdenlive:original.meta.media.0.codec.width">1080</property>
  <property name="kdenlive:original.meta.media.0.codec.height">1080</property>
  <property name="kdenlive:original.meta.media.0.codec.rotate">0</property>
  <property name="kdenlive:original.meta.media.0.codec.frame_rate">30</property>
  <property name="kdenlive:original.meta.media.0.codec.pix_fmt">yuv420p</property>
  <property name="kdenlive:original.meta.media.0.codec.sample_aspect_ratio">1</property>
  <property name="kdenlive:original.meta.media.0.codec.colorspace">709</property>
  <property name="kdenlive:original.meta.media.0.codec.name">h264</property>
  <property name="kdenlive:original.meta.media.0.codec.long_name">H.264 / AVC / MPEG-4 AVC / MPEG-4 part 10</property>
  <property name="kdenlive:original.meta.media.0.codec.bit_rate">3016156</property>
  <property name="kdenlive:original.meta.attr.0.stream.handler_name.markup">VideoHandler</property>
  <property name="kdenlive:original.meta.attr.major_brand.markup">isom</property>
  <property name="kdenlive:original.meta.attr.minor_version.markup">512</property>
  <property name="kdenlive:original.meta.attr.compatible_brands.markup">isomiso2avc1mp41</property>
  <property name="kdenlive:original.meta.attr.encoder.markup">Lavf58.45.100</property>
  <property name="kdenlive:original.seekable">1</property>
  <property name="kdenlive:original.width">1080</property>
  <property name="kdenlive:original.height">1080</property>
  <property name="kdenlive:original.meta.media.sample_aspect_num">1</property>
  <property name="kdenlive:original.meta.media.sample_aspect_den">1</property>
  <property name="kdenlive:original.aspect_ratio">1</property>
  <property name="kdenlive:original.audio_index">-1</property>
  <property name="kdenlive:original.video_index">0</property>
  <property name="kdenlive:original.mute_on_pause">0</property>
  <property name="kdenlive:original.mlt_service">avformat-novalidate</property>
  <property name="kdenlive:original.kdenlive:folderid">153</property>
  <property name="kdenlive:original.meta.media.frame_rate_num">30</property>
  <property name="kdenlive:original.meta.media.frame_rate_den">1</property>
  <property name="kdenlive:original.meta.media.colorspace">709</property>
  <property name="kdenlive:original.meta.media.color_trc">2</property>
  <property name="kdenlive:original.meta.media.width">1080</property>
  <property name="kdenlive:original.meta.media.height">1080</property>
  <property name="kdenlive:original.meta.media.color_range">mpeg</property>
  <property name="kdenlive:original.kdenlive:id">155</property>
  <property name="kdenlive:original.kdenlive:file_size">49803648</property>
  <property name="kdenlive:original.kdenlive:file_hash">d51eab99028e47136c29c76f2420e376</property>
  <property name="kdenlive:original.backup">1</property>
  <property name="global_feed">1</property>
  <property name="meta.media.nb_streams">1</property>
  <property name="meta.media.0.stream.type">video</property>
  <property name="meta.media.0.stream.frame_rate">30</property>
  <property name="meta.media.0.stream.sample_aspect_ratio">1</property>
  <property name="meta.media.0.codec.width">960</property>
  <property name="meta.media.0.codec.height">960</property>
  <property name="meta.media.0.codec.rotate">0</property>
  <property name="meta.media.0.codec.frame_rate">1000</property>
  <property name="meta.media.0.codec.pix_fmt">yuvj420p</property>
  <property name="meta.media.0.codec.sample_aspect_ratio">1</property>
  <property name="meta.media.0.codec.colorspace">601</property>
  <property name="meta.media.0.codec.name">mjpeg</property>
  <property name="meta.media.0.codec.long_name">MJPEG (Motion JPEG)</property>
  <property name="meta.media.0.codec.bit_rate">0</property>
  <property name="meta.attr.0.stream.HANDLER_NAME.markup">VideoHandler</property>
  <property name="meta.attr.0.stream.ENCODER.markup">Lavc58.91.100 mjpeg</property>
  <property name="meta.attr.0.stream.DURATION.markup">00:02:12.000000000</property>
  <property name="meta.attr.COMPATIBLE_BRANDS.markup">isomiso2avc1mp41</property>
  <property name="meta.attr.MAJOR_BRAND.markup">isom</property>
  <property name="meta.attr.MINOR_VERSION.markup">512</property>
  <property name="meta.attr.ENCODER.markup">Lavf58.45.100</property>
  <property name="meta.media.sample_aspect_num">1</property>
  <property name="meta.media.sample_aspect_den">1</property>
  <property name="meta.media.frame_rate_num">30</property>
  <property name="meta.media.frame_rate_den">1</property>
  <property name="meta.media.colorspace">601</property>
  <property name="meta.media.color_trc">2</property>
  <property name="meta.media.width">960</property>
  <property name="meta.media.height">960</property>
  <property name="meta.media.color_range">full</property>
  <property name="meta.media.top_field_first">0</property>
  <property name="meta.media.progressive">1</property>
 </producer>
 <producer id="producer137" in="00:00:00.000" out="00:00:46.433">
  <property name="length">1394</property>
  <property name="eof">pause</property>
  <property name="resource">/home/ryankelln/.cache/kdenlive/proxy/3499134826e35e4b6f6f23ad32783113.mkv</property>
  <property name="audio_index">-1</property>
  <property name="video_index">0</property>
  <property name="mute_on_pause">0</property>
  <property name="mlt_service">avformat-novalidate</property>
  <property name="seekable">1</property>
  <property name="aspect_ratio">1</property>
  <property name="kdenlive:clipname">test_chris_mushroom.mp4</property>
  <property name="kdenlive:folderid">-1</property>
  <property name="kdenlive:id">146</property>
  <property name="kdenlive:file_size">129596261</property>
  <property name="kdenlive:file_hash">3499134826e35e4b6f6f23ad32783113</property>
  <property name="kdenlive:proxy">/home/ryankelln/.cache/kdenlive/proxy/3499134826e35e4b6f6f23ad32783113.mkv</property>
  <property name="kdenlive:originalurl">test_chris_mushroom.mp4</property>
  <property name="kdenlive:original.mlt_type">producer</property>
  <property name="kdenlive:original.in">0</property>
  <property name="kdenlive:original.out">1393</property>
  <property name="kdenlive:original.length">1394</property>
  <property name="kdenlive:original.eof">pause</property>
  <property name="kdenlive:original.resource">test_chris_mushroom.mp4</property>
  <property name="kdenlive:original.meta.media.nb_streams">1</property>
  <property name="kdenlive:original.meta.media.0.stream.type">video</property>
  <property name="kdenlive:original.meta.media.0.stream.frame_rate">30</property>
  <property name="kdenlive:original.meta.media.0.stream.sample_aspect_ratio">0</property>
  <property name="kdenlive:original.meta.media.0.codec.width">1920</property>
  <property name="kdenlive:original.meta.media.0.codec.height">1080</property>
  <property name="kdenlive:original.meta.media.0.codec.rotate">0</property>
  <property name="kdenlive:original.meta.media.0.codec.frame_rate">30</property>
  <property name="kdenlive:original.meta.media.0.codec.pix_fmt">yuv420p</property>
  <property name="kdenlive:original.meta.media.0.codec.sample_aspect_ratio">1</property>
  <property name="kdenlive:original.meta.media.0.codec.colorspace">709</property>
  <property name="kdenlive:original.meta.media.0.codec.color_trc">1</property>
  <property name="kdenlive:original.meta.media.0.codec.name">h264</property>
  <property name="kdenlive:original.meta.media.0.codec.long_name">H.264 / AVC / MPEG-4 AVC / MPEG-4 part 10</property>
  <property name="kdenlive:original.meta.media.0.codec.bit_rate">22308893</property>
  <property name="kdenlive:original.meta.attr.0.stream.handler_name.markup">VideoHandler</property>
  <property name="kdenlive:original.meta.attr.major_brand.markup">isom</property>
  <property name="kdenlive:original.meta.attr.minor_version.markup">512</property>
  <property name="kdenlive:original.meta.attr.compatible_brands.markup">isomiso2avc1mp41</property>
  <property name="kdenlive:original.meta.attr.encoder.markup">Lavf56.40.101</property>
  <property name="kdenlive:original.seekable">1</property>
  <property name="kdenlive:original.width">1920</property>
  <property name="kdenlive:original.height">1080</property>
  <property name="kdenlive:original.meta.media.sample_aspect_num">1</property>
  <property name="kdenlive:original.meta.media.sample_aspect_den">1</property>
  <property name="kdenlive:original.aspect_ratio">1</property>
  <property name="kdenlive:original.audio_index">-1</property>
  <property name="kdenlive:original.video_index">0</property>
  <property name="kdenlive:original.mute_on_pause">0</property>
  <property name="kdenlive:original.mlt_service">avformat-novalidate</property>
  <property name="kdenlive:original.kdenlive:folderid">-1</property>
  <property name="kdenlive:original.meta.media.frame_rate_num">30</property>
  <property name="kdenlive:original.meta.media.frame_rate_den">1</property>
  <property name="kdenlive:original.meta.media.colorspace">709</property>
  <property name="kdenlive:original.meta.media.color_trc">1</property>
  <property name="kdenlive:original.meta.media.width">1920</property>
  <property name="kdenlive:original.meta.media.height">1080</property>
  <property name="kdenlive:original.meta.media.color_range">mpeg</property>
  <property name="kdenlive:original.kdenlive:id">157</property>
  <property name="kdenlive:original.kdenlive:file_size">129596261</property>
  <property name="kdenlive:original.kdenlive:file_hash">3499134826e35e4b6f6f23ad32783113</property>
  <property name="kdenlive:original.backup">1</property>
  <property name="global_feed">1</property>
  <property name="meta.media.nb_streams">1</property>
  <property name="meta.media.0.stream.type">video</property>
  <property name="meta.media.0.stream.frame_rate">30</property>
  <property name="meta.media.0.stream.sample_aspect_ratio">1</property>
  <property name="meta.media.0.codec.width">960</property>
  <property name="meta.media.0.codec.height">540</property>
  <property name="meta.media.0.codec.rotate">0</property>
  <property name="meta.media.0.codec.frame_rate">1000</property>
  <property name="meta.media.0.codec.pix_fmt">yuvj420p</property>
  <property name="meta.media.0.codec.sample_aspect_ratio">1</property>
  <property name="meta.media.0.codec.colorspace">601</property>
  <property name="meta.media.0.codec.name">mjpeg</property>
  <property name="meta.media.0.codec.long_name">MJPEG (Motion JPEG)</property>
  <property name="meta.media.0.codec.bit_rate">0</property>
  <property name="meta.attr.0.stream.HANDLER_NAME.markup">VideoHandler</property>
  <property name="meta.attr.0.stream.ENCODER.markup">Lavc58.91.100 mjpeg</property>
  <property name="meta.attr.0.stream.DURATION.markup">00:00:46.466000000</property>
  <property name="meta.attr.COMPATIBLE_BRANDS.markup">isomiso2avc1mp41</property>
  <property name="meta.attr.MAJOR_BRAND.markup">isom</property>
  <property name="meta.attr.MINOR_VERSION.markup">512</property>
  <property name="meta.attr.ENCODER.markup">Lavf58.45.100</property>
  <property name="meta.media.sample_aspect_num">1</property>
  <property name="meta.media.sample_aspect_den">1</property>
  <property name="meta.media.frame_rate_num">30</property>
  <property name="meta.media.frame_rate_den">1</property>
  <property name="meta.media.colorspace">601</property>
  <property name="meta.media.color_trc">2</property>
  <property name="meta.media.width">960</property>
  <property name="meta.media.height">540</property>
  <property name="meta.media.color_range">full</property>
  <property name="meta.media.top_field_first">0</property>
  <property name="meta.media.progressive">1</property>
 </producer>
 <producer id="producer138" in="00:00:00.000" out="00:01:08.833">
  <property name="length">2066</property>
  <property name="eof">pause</property>
  <property name="resource">/home/ryankelln/.cache/kdenlive/proxy/c500056a4d8d9052df123bf15c58347b.mkv</property>
  <property name="audio_index">-1</property>
  <property name="video_index">0</property>
  <property name="mute_on_pause">0</property>
  <property name="mlt_service">avformat-novalidate</property>
  <property name="seekable">1</property>
  <property name="aspect_ratio">1</property>
  <property name="kdenlive:clipname">waves_1.mp4</property>
  <property name="kdenlive:folderid">-1</property>
  <property name="kdenlive:id">147</property>
  <property name="kdenlive:file_size">148155592</property>
  <property name="kdenlive:file_hash">c500056a4d8d9052df123bf15c58347b</property>
  <property name="kdenlive:proxy">/home/ryankelln/.cache/kdenlive/proxy/c500056a4d8d9052df123bf15c58347b.mkv</property>
  <property name="kdenlive:originalurl">/home/ryankelln/Documents/Projects/Active/Sound_Escapes/Mac/textures/videos/waves_1.mp4</property>
  <property name="kdenlive:original.mlt_type">producer</property>
  <property name="kdenlive:original.in">0</property>
  <property name="kdenlive:original.out">2065</property>
  <property name="kdenlive:original.length">2066</property>
  <property name="kdenlive:original.eof">pause</property>
  <property name="kdenlive:original.resource">/home/ryankelln/Documents/Projects/Active/Sound_Escapes/Mac/textures/videos/waves_1.mp4</property>
  <property name="kdenlive:original.meta.media.nb_streams">1</property>
  <property name="kdenlive:original.meta.media.0.stream.type">video</property>
  <property name="kdenlive:original.meta.media.0.stream.frame_rate">30</property>
  <property name="kdenlive:original.meta.media.0.stream.sample_aspect_ratio">0</property>
  <property name="kdenlive:original.meta.media.0.codec.width">1920</property>
  <property name="kdenlive:original.meta.media.0.codec.height">1080</property>
  <property name="kdenlive:original.meta.media.0.codec.rotate">0</property>
  <property name="kdenlive:original.meta.media.0.codec.frame_rate">30</property>
  <property name="kdenlive:original.meta.media.0.codec.pix_fmt">yuv420p</property>
  <property name="kdenlive:original.meta.media.0.codec.sample_aspect_ratio">1</property>
  <property name="kdenlive:original.meta.media.0.codec.colorspace">709</property>
  <property name="kdenlive:original.meta.media.0.codec.color_trc">1</property>
  <property name="kdenlive:original.meta.media.0.codec.name">h264</property>
  <property name="kdenlive:original.meta.media.0.codec.long_name">H.264 / AVC / MPEG-4 AVC / MPEG-4 part 10</property>
  <property name="kdenlive:original.meta.media.0.codec.bit_rate">17208039</property>
  <property name="kdenlive:original.meta.attr.0.stream.handler_name.markup">VideoHandler</property>
  <property name="kdenlive:original.meta.attr.major_brand.markup">isom</property>
  <property name="kdenlive:original.meta.attr.minor_version.markup">512</property>
  <property name="kdenlive:original.meta.attr.compatible_brands.markup">isomiso2avc1mp41</property>
  <property name="kdenlive:original.meta.attr.encoder.markup">Lavf56.40.101</property>
  <property name="kdenlive:original.seekable">1</property>
  <property name="kdenlive:original.width">1920</property>
  <property name="kdenlive:original.height">1080</property>
  <property name="kdenlive:original.meta.media.sample_aspect_num">1</property>
  <property name="kdenlive:original.meta.media.sample_aspect_den">1</property>
  <property name="kdenlive:original.aspect_ratio">1</property>
  <property name="kdenlive:original.audio_index">-1</property>
  <property name="kdenlive:original.video_index">0</property>
  <property name="kdenlive:original.mute_on_pause">0</property>
  <property name="kdenlive:original.mlt_service">avformat-novalidate</property>
  <property name="kdenlive:original.kdenlive:folderid">-1</property>
  <property name="kdenlive:original.meta.media.frame_rate_num">30</property>
  <property name="kdenlive:original.meta.media.frame_rate_den">1</property>
  <property name="kdenlive:original.meta.media.colorspace">709</property>
  <property name="kdenlive:original.meta.media.color_trc">1</property>
  <property name="kdenlive:original.meta.media.width">1920</property>
  <property name="kdenlive:original.meta.media.height">1080</property>
  <property name="kdenlive:original.meta.media.color_range">mpeg</property>
  <property name="kdenlive:original.kdenlive:id">159</property>
  <property name="kdenlive:original.kdenlive:file_size">148155592</property>
  <property name="kdenlive:original.kdenlive:file_hash">c500056a4d8d9052df123bf15c58347b</property>
  <property name="kdenlive:original.backup">1</property>
  <property name="global_feed">1</property>
  <property name="meta.media.nb_streams">1</property>
  <property name="meta.media.0.stream.type">video</property>
  <property name="meta.media.0.stream.frame_rate">30</property>
  <property name="meta.media.0.stream.sample_aspect_ratio">1</property>
  <property name="meta.media.0.codec.width">960</property>
  <property name="meta.media.0.codec.height">540</property>
  <property name="meta.media.0.codec.rotate">0</property>
  <property name="meta.media.0.codec.frame_rate">1000</property>
  <property name="meta.media.0.codec.pix_fmt">yuvj420p</property>
  <property name="meta.media.0.codec.sample_aspect_ratio">1</property>
  <property name="meta.media.0.codec.colorspace">601</property>
  <property name="meta.media.0.codec.name">mjpeg</property>
  <property name="meta.media.0.codec.long_name">MJPEG (Motion JPEG)</property>
  <property name="meta.media.0.codec.bit_rate">0</property>
  <property name="meta.attr.0.stream.HANDLER_NAME.markup">VideoHandler</property>
  <property name="meta.attr.0.stream.ENCODER.markup">Lavc58.91.100 mjpeg</property>
  <property name="meta.attr.0.stream.DURATION.markup">00:01:08.866000000</property>
  <property name="meta.attr.COMPATIBLE_BRANDS.markup">isomiso2avc1mp41</property>
  <property name="meta.attr.MAJOR_BRAND.markup">isom</property>
  <property name="meta.attr.MINOR_VERSION.markup">512</property>
  <property name="meta.attr.ENCODER.markup">Lavf58.45.100</property>
  <property name="meta.media.sample_aspect_num">1</property>
  <property name="meta.media.sample_aspect_den">1</property>
  <property name="meta.media.frame_rate_num">30</property>
  <property name="meta.media.frame_rate_den">1</property>
  <property name="meta.media.colorspace">601</property>
  <property name="meta.media.color_trc">2</property>
  <property name="meta.media.width">960</property>
  <property name="meta.media.height">540</property>
  <property name="meta.media.color_range">full</property>
  <property name="meta.media.top_field_first">0</property>
  <property name="meta.media.progressive">1</property>
 </producer>
 <producer id="producer139" in="00:00:00.000" out="00:01:10.133">
  <property name="length">2105</property>
  <property name="eof">pause</property>
  <property name="resource">/home/ryankelln/.cache/kdenlive/proxy/6aa00ab06687f3ee392dd0a501fabbea.mkv</property>
  <property name="audio_index">1</property>
  <property name="video_index">0</property>
  <property name="mute_on_pause">0</property>
  <property name="mlt_service">avformat-novalidate</property>
  <property name="seekable">1</property>
  <property name="aspect_ratio">1</property>
  <property name="kdenlive:clipname">bu3n_v1.mp4</property>
  <property name="kdenlive:folderid">108</property>
  <property name="kdenlive:id">148</property>
  <property name="kdenlive:file_size">178798205</property>
  <property name="kdenlive:file_hash">6aa00ab06687f3ee392dd0a501fabbea</property>
  <property name="kdenlive:proxy">/home/ryankelln/.cache/kdenlive/proxy/6aa00ab06687f3ee392dd0a501fabbea.mkv</property>
  <property name="kdenlive:originalurl">content/textures/bu3n_v1.mp4</property>
  <property name="kdenlive:original.mlt_type">producer</property>
  <property name="kdenlive:original.in">0</property>
  <property name="kdenlive:original.out">2104</property>
  <property name="kdenlive:original.length">2105</property>
  <property name="kdenlive:original.eof">pause</property>
  <property name="kdenlive:original.resource">content/textures/bu3n_v1.mp4</property>
  <property name="kdenlive:original.meta.media.nb_streams">2</property>
  <property name="kdenlive:original.meta.media.0.stream.type">video</property>
  <property name="kdenlive:original.meta.media.0.stream.frame_rate">30</property>
  <property name="kdenlive:original.meta.media.0.stream.sample_aspect_ratio">0</property>
  <property name="kdenlive:original.meta.media.0.codec.width">1920</property>
  <property name="kdenlive:original.meta.media.0.codec.height">1080</property>
  <property name="kdenlive:original.meta.media.0.codec.rotate">0</property>
  <property name="kdenlive:original.meta.media.0.codec.frame_rate">30</property>
  <property name="kdenlive:original.meta.media.0.codec.pix_fmt">yuv420p</property>
  <property name="kdenlive:original.meta.media.0.codec.sample_aspect_ratio">1</property>
  <property name="kdenlive:original.meta.media.0.codec.colorspace">709</property>
  <property name="kdenlive:original.meta.media.0.codec.color_trc">1</property>
  <property name="kdenlive:original.meta.media.0.codec.name">h264</property>
  <property name="kdenlive:original.meta.media.0.codec.long_name">H.264 / AVC / MPEG-4 AVC / MPEG-4 part 10</property>
  <property name="kdenlive:original.meta.media.0.codec.bit_rate">20267818</property>
  <property name="kdenlive:original.meta.attr.0.stream.handler_name.markup">VideoHandler</property>
  <property name="kdenlive:original.meta.media.1.stream.type">audio</property>
  <property name="kdenlive:original.meta.media.1.codec.sample_fmt">fltp</property>
  <property name="kdenlive:original.meta.media.1.codec.sample_rate">44100</property>
  <property name="kdenlive:original.meta.media.1.codec.channels">2</property>
  <property name="kdenlive:original.meta.media.1.codec.name">vorbis</property>
  <property name="kdenlive:original.meta.media.1.codec.long_name">Vorbis</property>
  <property name="kdenlive:original.meta.media.1.codec.bit_rate">108184</property>
  <property name="kdenlive:original.meta.attr.1.stream.handler_name.markup">SoundHandler</property>
  <property name="kdenlive:original.meta.attr.major_brand.markup">isom</property>
  <property name="kdenlive:original.meta.attr.minor_version.markup">512</property>
  <property name="kdenlive:original.meta.attr.compatible_brands.markup">isomiso2avc1mp41</property>
  <property name="kdenlive:original.meta.attr.encoder.markup">Lavf56.40.101</property>
  <property name="kdenlive:original.seekable">1</property>
  <property name="kdenlive:original.width">1920</property>
  <property name="kdenlive:original.height">1080</property>
  <property name="kdenlive:original.meta.media.sample_aspect_num">1</property>
  <property name="kdenlive:original.meta.media.sample_aspect_den">1</property>
  <property name="kdenlive:original.aspect_ratio">1</property>
  <property name="kdenlive:original.audio_index">1</property>
  <property name="kdenlive:original.video_index">0</property>
  <property name="kdenlive:original.mute_on_pause">0</property>
  <property name="kdenlive:original.mlt_service">avformat-novalidate</property>
  <property name="kdenlive:original.kdenlive:folderid">108</property>
  <property name="kdenlive:original.meta.media.frame_rate_num">30</property>
  <property name="kdenlive:original.meta.media.frame_rate_den">1</property>
  <property name="kdenlive:original.meta.media.colorspace">709</property>
  <property name="kdenlive:original.meta.media.color_trc">1</property>
  <property name="kdenlive:original.meta.media.width">1920</property>
  <property name="kdenlive:original.meta.media.height">1080</property>
  <property name="kdenlive:original.meta.media.color_range">mpeg</property>
  <property name="kdenlive:original.kdenlive:id">160</property>
  <property name="kdenlive:original.kdenlive:file_size">178798205</property>
  <property name="kdenlive:original.kdenlive:file_hash">6aa00ab06687f3ee392dd0a501fabbea</property>
  <property name="kdenlive:original.backup">1</property>
  <property name="kdenlive:audio_max">18</property>
  <property name="global_feed">1</property>
  <property name="meta.media.nb_streams">2</property>
  <property name="meta.media.0.stream.type">video</property>
  <property name="meta.media.0.stream.frame_rate">30</property>
  <property name="meta.media.0.stream.sample_aspect_ratio">1</property>
  <property name="meta.media.0.codec.width">960</property>
  <property name="meta.media.0.codec.height">540</property>
  <property name="meta.media.0.codec.rotate">0</property>
  <property name="meta.media.0.codec.frame_rate">1000</property>
  <property name="meta.media.0.codec.pix_fmt">yuvj420p</property>
  <property name="meta.media.0.codec.sample_aspect_ratio">1</property>
  <property name="meta.media.0.codec.colorspace">601</property>
  <property name="meta.media.0.codec.name">mjpeg</property>
  <property name="meta.media.0.codec.long_name">MJPEG (Motion JPEG)</property>
  <property name="meta.media.0.codec.bit_rate">0</property>
  <property name="meta.attr.0.stream.HANDLER_NAME.markup">VideoHandler</property>
  <property name="meta.attr.0.stream.ENCODER.markup">Lavc58.91.100 mjpeg</property>
  <property name="meta.attr.0.stream.DURATION.markup">00:01:10.166000000</property>
  <property name="meta.media.1.stream.type">audio</property>
  <property name="meta.media.1.codec.sample_fmt">s16</property>
  <property name="meta.media.1.codec.sample_rate">44100</property>
  <property name="meta.media.1.codec.channels">2</property>
  <property name="meta.media.1.codec.name">pcm_s16le</property>
  <property name="meta.media.1.codec.long_name">PCM signed 16-bit little-endian</property>
  <property name="meta.media.1.codec.bit_rate">1411200</property>
  <property name="meta.attr.1.stream.HANDLER_NAME.markup">SoundHandler</property>
  <property name="meta.attr.1.stream.ENCODER.markup">Lavc58.91.100 pcm_s16le</property>
  <property name="meta.attr.1.stream.DURATION.markup">00:01:10.186000000</property>
  <property name="meta.attr.COMPATIBLE_BRANDS.markup">isomiso2avc1mp41</property>
  <property name="meta.attr.MAJOR_BRAND.markup">isom</property>
  <property name="meta.attr.MINOR_VERSION.markup">512</property>
  <property name="meta.attr.ENCODER.markup">Lavf58.45.100</property>
  <property name="meta.media.sample_aspect_num">1</property>
  <property name="meta.media.sample_aspect_den">1</property>
  <property name="meta.media.frame_rate_num">30</property>
  <property name="meta.media.frame_rate_den">1</property>
  <property name="meta.media.colorspace">601</property>
  <property name="meta.media.color_trc">2</property>
  <property name="meta.media.width">960</property>
  <property name="meta.media.height">540</property>
  <property name="meta.media.color_range">full</property>
  <property name="meta.media.top_field_first">0</property>
  <property name="meta.media.progressive">1</property>
 </producer>
 <producer id="producer140" in="00:00:00.000" out="00:01:05.067">
  <property name="length">1953</property>
  <property name="eof">pause</property>
  <property name="resource">content/prerendered/crunchy_ending_1.mp4</property>
  <property name="audio_index">-1</property>
  <property name="video_index">0</property>
  <property name="mute_on_pause">0</property>
  <property name="mlt_service">avformat-novalidate</property>
  <property name="meta.media.nb_streams">1</property>
  <property name="meta.media.0.stream.type">video</property>
  <property name="meta.media.0.stream.frame_rate">30</property>
  <property name="meta.media.0.stream.sample_aspect_ratio">1</property>
  <property name="meta.media.0.codec.width">960</property>
  <property name="meta.media.0.codec.height">540</property>
  <property name="meta.media.0.codec.rotate">0</property>
  <property name="meta.media.0.codec.frame_rate">30</property>
  <property name="meta.media.0.codec.pix_fmt">yuv420p</property>
  <property name="meta.media.0.codec.sample_aspect_ratio">1</property>
  <property name="meta.media.0.codec.colorspace">709</property>
  <property name="meta.media.0.codec.color_trc">1</property>
  <property name="meta.media.0.codec.name">h264</property>
  <property name="meta.media.0.codec.long_name">H.264 / AVC / MPEG-4 AVC / MPEG-4 part 10</property>
  <property name="meta.media.0.codec.bit_rate">2460724</property>
  <property name="meta.attr.0.stream.handler_name.markup">VideoHandler</property>
  <property name="meta.attr.major_brand.markup">isom</property>
  <property name="meta.attr.minor_version.markup">512</property>
  <property name="meta.attr.compatible_brands.markup">isomiso2avc1mp41</property>
  <property name="meta.attr.encoder.markup">Lavf58.45.100</property>
  <property name="seekable">1</property>
  <property name="meta.media.sample_aspect_num">1</property>
  <property name="meta.media.sample_aspect_den">1</property>
  <property name="aspect_ratio">1</property>
  <property name="kdenlive:clipname"/>
  <property name="kdenlive:folderid">153</property>
  <property name="meta.media.frame_rate_num">30</property>
  <property name="meta.media.frame_rate_den">1</property>
  <property name="meta.media.colorspace">709</property>
  <property name="meta.media.color_trc">1</property>
  <property name="meta.media.width">960</property>
  <property name="meta.media.height">540</property>
  <property name="meta.media.color_range">mpeg</property>
  <property name="kdenlive:id">149</property>
  <property name="kdenlive:file_size">20045013</property>
  <property name="kdenlive:file_hash">78e6019db283318e1a9185873e29bd97</property>
  <property name="meta.media.top_field_first">0</property>
  <property name="meta.media.progressive">1</property>
  <property name="global_feed">1</property>
 </producer>
 <producer id="producer141" in="00:00:00.000" out="00:00:25.933">
  <property name="length">779</property>
  <property name="eof">pause</property>
  <property name="resource">content/footage/SilverLiningH264_Beachfront-B-roll.mp4</property>
  <property name="audio_index">1</property>
  <property name="video_index">0</property>
  <property name="mute_on_pause">0</property>
  <property name="mlt_service">avformat-novalidate</property>
  <property name="meta.media.nb_streams">2</property>
  <property name="meta.media.0.stream.type">video</property>
  <property name="meta.media.0.stream.frame_rate">24</property>
  <property name="meta.media.0.stream.sample_aspect_ratio">0</property>
  <property name="meta.media.0.codec.width">1920</property>
  <property name="meta.media.0.codec.height">1080</property>
  <property name="meta.media.0.codec.rotate">0</property>
  <property name="meta.media.0.codec.frame_rate">24</property>
  <property name="meta.media.0.codec.pix_fmt">yuv420p</property>
  <property name="meta.media.0.codec.sample_aspect_ratio">1</property>
  <property name="meta.media.0.codec.colorspace">709</property>
  <property name="meta.media.0.codec.name">h264</property>
  <property name="meta.media.0.codec.long_name">H.264 / AVC / MPEG-4 AVC / MPEG-4 part 10</property>
  <property name="meta.media.0.codec.bit_rate">44834270</property>
  <property name="meta.attr.0.stream.creation_time.markup">2012-11-19T20:57:21.000000Z</property>
  <property name="meta.attr.0.stream.language.markup">eng</property>
  <property name="meta.attr.0.stream.handler_name.markup">Mainconcept MP4 Video Media Handler</property>
  <property name="meta.attr.0.stream.encoder.markup">AVC Coding</property>
  <property name="meta.media.1.stream.type">audio</property>
  <property name="meta.media.1.codec.sample_fmt">fltp</property>
  <property name="meta.media.1.codec.sample_rate">48000</property>
  <property name="meta.media.1.codec.channels">2</property>
  <property name="meta.media.1.codec.name">aac</property>
  <property name="meta.media.1.codec.long_name">AAC (Advanced Audio Coding)</property>
  <property name="meta.media.1.codec.bit_rate">157375</property>
  <property name="meta.attr.1.stream.creation_time.markup">2012-11-19T20:57:21.000000Z</property>
  <property name="meta.attr.1.stream.language.markup">eng</property>
  <property name="meta.attr.1.stream.handler_name.markup">Mainconcept MP4 Sound Media Handler</property>
  <property name="meta.attr.major_brand.markup">mp42</property>
  <property name="meta.attr.minor_version.markup">0</property>
  <property name="meta.attr.compatible_brands.markup">mp42mp41</property>
  <property name="meta.attr.creation_time.markup">2012-11-19T20:57:21.000000Z</property>
  <property name="seekable">1</property>
  <property name="meta.media.sample_aspect_num">1</property>
  <property name="meta.media.sample_aspect_den">1</property>
  <property name="aspect_ratio">1</property>
  <property name="kdenlive:clipname"/>
  <property name="kdenlive:folderid">102</property>
  <property name="meta.media.frame_rate_num">24</property>
  <property name="meta.media.frame_rate_den">1</property>
  <property name="meta.media.colorspace">709</property>
  <property name="meta.media.color_trc">2</property>
  <property name="meta.media.width">1920</property>
  <property name="meta.media.height">1080</property>
  <property name="meta.media.color_range">mpeg</property>
  <property name="kdenlive:id">150</property>
  <property name="kdenlive:file_size">145788797</property>
  <property name="kdenlive:file_hash">2d2de81895c21e9b379ff476fbf10aec</property>
  <property name="kdenlive:proxy">/home/ryankelln/.cache/kdenlive/proxy/2d2de81895c21e9b379ff476fbf10aec.mkv</property>
  <property name="kdenlive:originalurl">content/footage/SilverLiningH264_Beachfront-B-roll.mp4</property>
  <property name="kdenlive:original.mlt_type">producer</property>
  <property name="kdenlive:original.in">0</property>
  <property name="kdenlive:original.out">778</property>
  <property name="kdenlive:original.length">779</property>
  <property name="kdenlive:original.eof">pause</property>
  <property name="kdenlive:original.resource">content/footage/SilverLiningH264_Beachfront-B-roll.mp4</property>
  <property name="kdenlive:original.meta.media.nb_streams">2</property>
  <property name="kdenlive:original.meta.media.0.stream.type">video</property>
  <property name="kdenlive:original.meta.media.0.stream.frame_rate">24</property>
  <property name="kdenlive:original.meta.media.0.stream.sample_aspect_ratio">0</property>
  <property name="kdenlive:original.meta.media.0.codec.width">1920</property>
  <property name="kdenlive:original.meta.media.0.codec.height">1080</property>
  <property name="kdenlive:original.meta.media.0.codec.rotate">0</property>
  <property name="kdenlive:original.meta.media.0.codec.frame_rate">24</property>
  <property name="kdenlive:original.meta.media.0.codec.pix_fmt">yuv420p</property>
  <property name="kdenlive:original.meta.media.0.codec.sample_aspect_ratio">1</property>
  <property name="kdenlive:original.meta.media.0.codec.colorspace">709</property>
  <property name="kdenlive:original.meta.media.0.codec.name">h264</property>
  <property name="kdenlive:original.meta.media.0.codec.long_name">H.264 / AVC / MPEG-4 AVC / MPEG-4 part 10</property>
  <property name="kdenlive:original.meta.media.0.codec.bit_rate">44834270</property>
  <property name="kdenlive:original.meta.attr.0.stream.creation_time.markup">2012-11-19T20:57:21.000000Z</property>
  <property name="kdenlive:original.meta.attr.0.stream.language.markup">eng</property>
  <property name="kdenlive:original.meta.attr.0.stream.handler_name.markup">Mainconcept MP4 Video Media Handler</property>
  <property name="kdenlive:original.meta.attr.0.stream.encoder.markup">AVC Coding</property>
  <property name="kdenlive:original.meta.media.1.stream.type">audio</property>
  <property name="kdenlive:original.meta.media.1.codec.sample_fmt">fltp</property>
  <property name="kdenlive:original.meta.media.1.codec.sample_rate">48000</property>
  <property name="kdenlive:original.meta.media.1.codec.channels">2</property>
  <property name="kdenlive:original.meta.media.1.codec.name">aac</property>
  <property name="kdenlive:original.meta.media.1.codec.long_name">AAC (Advanced Audio Coding)</property>
  <property name="kdenlive:original.meta.media.1.codec.bit_rate">157375</property>
  <property name="kdenlive:original.meta.attr.1.stream.creation_time.markup">2012-11-19T20:57:21.000000Z</property>
  <property name="kdenlive:original.meta.attr.1.stream.language.markup">eng</property>
  <property name="kdenlive:original.meta.attr.1.stream.handler_name.markup">Mainconcept MP4 Sound Media Handler</property>
  <property name="kdenlive:original.meta.attr.major_brand.markup">mp42</property>
  <property name="kdenlive:original.meta.attr.minor_version.markup">0</property>
  <property name="kdenlive:original.meta.attr.compatible_brands.markup">mp42mp41</property>
  <property name="kdenlive:original.meta.attr.creation_time.markup">2012-11-19T20:57:21.000000Z</property>
  <property name="kdenlive:original.seekable">1</property>
  <property name="kdenlive:original.width">1920</property>
  <property name="kdenlive:original.height">1080</property>
  <property name="kdenlive:original.meta.media.sample_aspect_num">1</property>
  <property name="kdenlive:original.meta.media.sample_aspect_den">1</property>
  <property name="kdenlive:original.aspect_ratio">1</property>
  <property name="kdenlive:original.audio_index">1</property>
  <property name="kdenlive:original.video_index">0</property>
  <property name="kdenlive:original.mute_on_pause">0</property>
  <property name="kdenlive:original.mlt_service">avformat-novalidate</property>
  <property name="kdenlive:original.kdenlive:folderid">102</property>
  <property name="kdenlive:original.meta.media.frame_rate_num">24</property>
  <property name="kdenlive:original.meta.media.frame_rate_den">1</property>
  <property name="kdenlive:original.meta.media.colorspace">709</property>
  <property name="kdenlive:original.meta.media.color_trc">2</property>
  <property name="kdenlive:original.meta.media.width">1920</property>
  <property name="kdenlive:original.meta.media.height">1080</property>
  <property name="kdenlive:original.meta.media.color_range">mpeg</property>
  <property name="kdenlive:original.kdenlive:id">162</property>
  <property name="kdenlive:original.kdenlive:file_size">145788797</property>
  <property name="kdenlive:original.kdenlive:file_hash">2d2de81895c21e9b379ff476fbf10aec</property>
  <property name="kdenlive:original.backup">1</property>
  <property name="kdenlive:audio_max">91</property>
  <property name="meta.media.top_field_first">0</property>
  <property name="meta.media.progressive">1</property>
  <property name="global_feed">1</property>
 </producer>
 <producer id="producer142" in="00:00:00.000" out="00:01:00.533">
  <property name="length">1817</property>
  <property name="eof">pause</property>
  <property name="resource">/home/ryankelln/.cache/kdenlive/proxy/aae2fe22ccba6e7c8646a74445910830.mkv</property>
  <property name="audio_index">1</property>
  <property name="video_index">0</property>
  <property name="mute_on_pause">0</property>
  <property name="mlt_service">avformat-novalidate</property>
  <property name="seekable">1</property>
  <property name="aspect_ratio">1</property>
  <property name="kdenlive:clipname">2020-10-12_HumberTrail_stream+leaves+log+rocks.MP4</property>
  <property name="kdenlive:folderid">102</property>
  <property name="kdenlive:id">161</property>
  <property name="kdenlive:file_size">375577744</property>
  <property name="kdenlive:file_hash">aae2fe22ccba6e7c8646a74445910830</property>
  <property name="kdenlive:proxy">/home/ryankelln/.cache/kdenlive/proxy/aae2fe22ccba6e7c8646a74445910830.mkv</property>
  <property name="kdenlive:originalurl">content/footage/2020-10-12_HumberTrail_stream+leaves+log+rocks.MP4</property>
  <property name="kdenlive:original.mlt_type">producer</property>
  <property name="kdenlive:original.in">0</property>
  <property name="kdenlive:original.out">1816</property>
  <property name="kdenlive:original.length">1817</property>
  <property name="kdenlive:original.eof">pause</property>
  <property name="kdenlive:original.resource">content/footage/2020-10-12_HumberTrail_stream+leaves+log+rocks.MP4</property>
  <property name="kdenlive:original.meta.media.nb_streams">3</property>
  <property name="kdenlive:original.meta.media.0.stream.type">video</property>
  <property name="kdenlive:original.meta.media.0.stream.frame_rate">59.9401</property>
  <property name="kdenlive:original.meta.media.0.stream.sample_aspect_ratio">0</property>
  <property name="kdenlive:original.meta.media.0.codec.width">1920</property>
  <property name="kdenlive:original.meta.media.0.codec.height">1080</property>
  <property name="kdenlive:original.meta.media.0.codec.rotate">0</property>
  <property name="kdenlive:original.meta.media.0.codec.frame_rate">59.9401</property>
  <property name="kdenlive:original.meta.media.0.codec.pix_fmt">yuvj420p</property>
  <property name="kdenlive:original.meta.media.0.codec.sample_aspect_ratio">1</property>
  <property name="kdenlive:original.meta.media.0.codec.colorspace">709</property>
  <property name="kdenlive:original.meta.media.0.codec.color_trc">1</property>
  <property name="kdenlive:original.meta.media.0.codec.name">h264</property>
  <property name="kdenlive:original.meta.media.0.codec.long_name">H.264 / AVC / MPEG-4 AVC / MPEG-4 part 10</property>
  <property name="kdenlive:original.meta.media.0.codec.bit_rate">48058325</property>
  <property name="kdenlive:original.meta.attr.0.stream.creation_time.markup">2020-10-12T13:24:05.000000Z</property>
  <property name="kdenlive:original.meta.attr.0.stream.timecode.markup">09:37:40;17</property>
  <property name="kdenlive:original.meta.media.1.stream.type">audio</property>
  <property name="kdenlive:original.meta.media.1.codec.sample_fmt">s16</property>
  <property name="kdenlive:original.meta.media.1.codec.sample_rate">48000</property>
  <property name="kdenlive:original.meta.media.1.codec.channels">2</property>
  <property name="kdenlive:original.meta.media.1.codec.name">pcm_s16be</property>
  <property name="kdenlive:original.meta.media.1.codec.long_name">PCM signed 16-bit big-endian</property>
  <property name="kdenlive:original.meta.media.1.codec.bit_rate">1536000</property>
  <property name="kdenlive:original.meta.attr.1.stream.creation_time.markup">2020-10-12T13:24:05.000000Z</property>
  <property name="kdenlive:original.meta.attr.1.stream.timecode.markup">09:37:40;17</property>
  <property name="kdenlive:original.meta.attr.major_brand.markup">mp42</property>
  <property name="kdenlive:original.meta.attr.minor_version.markup">1</property>
  <property name="kdenlive:original.meta.attr.compatible_brands.markup">mp42avc1</property>
  <property name="kdenlive:original.meta.attr.creation_time.markup">2020-10-12T13:24:05.000000Z</property>
  <property name="kdenlive:original.seekable">1</property>
  <property name="kdenlive:original.width">1920</property>
  <property name="kdenlive:original.height">1080</property>
  <property name="kdenlive:original.meta.media.sample_aspect_num">1</property>
  <property name="kdenlive:original.meta.media.sample_aspect_den">1</property>
  <property name="kdenlive:original.aspect_ratio">1</property>
  <property name="kdenlive:original.audio_index">1</property>
  <property name="kdenlive:original.video_index">0</property>
  <property name="kdenlive:original.mute_on_pause">0</property>
  <property name="kdenlive:original.mlt_service">avformat-novalidate</property>
  <property name="kdenlive:original.kdenlive:folderid">102</property>
  <property name="kdenlive:original.meta.media.frame_rate_num">60000</property>
  <property name="kdenlive:original.meta.media.frame_rate_den">1001</property>
  <property name="kdenlive:original.meta.media.colorspace">709</property>
  <property name="kdenlive:original.meta.media.color_trc">1</property>
  <property name="kdenlive:original.meta.media.width">1920</property>
  <property name="kdenlive:original.meta.media.height">1080</property>
  <property name="kdenlive:original.meta.media.color_range">full</property>
  <property name="kdenlive:original.kdenlive:id">161</property>
  <property name="kdenlive:original.kdenlive:file_size">375577744</property>
  <property name="kdenlive:original.kdenlive:file_hash">aae2fe22ccba6e7c8646a74445910830</property>
  <property name="kdenlive:original.backup">1</property>
  <property name="kdenlive:audio_max">18</property>
  <property name="global_feed">1</property>
  <property name="meta.media.nb_streams">2</property>
  <property name="meta.media.0.stream.type">video</property>
  <property name="meta.media.0.stream.frame_rate">59.9401</property>
  <property name="meta.media.0.stream.sample_aspect_ratio">1</property>
  <property name="meta.media.0.codec.width">960</property>
  <property name="meta.media.0.codec.height">540</property>
  <property name="meta.media.0.codec.rotate">0</property>
  <property name="meta.media.0.codec.frame_rate">1000</property>
  <property name="meta.media.0.codec.pix_fmt">yuvj420p</property>
  <property name="meta.media.0.codec.sample_aspect_ratio">1</property>
  <property name="meta.media.0.codec.colorspace">601</property>
  <property name="meta.media.0.codec.name">mjpeg</property>
  <property name="meta.media.0.codec.long_name">MJPEG (Motion JPEG)</property>
  <property name="meta.media.0.codec.bit_rate">0</property>
  <property name="meta.attr.0.stream.TIMECODE.markup">09:37:40;17</property>
  <property name="meta.attr.0.stream.ENCODER.markup">Lavc58.91.100 mjpeg</property>
  <property name="meta.attr.0.stream.DURATION.markup">00:01:00.561000000</property>
  <property name="meta.media.1.stream.type">audio</property>
  <property name="meta.media.1.codec.sample_fmt">s16</property>
  <property name="meta.media.1.codec.sample_rate">48000</property>
  <property name="meta.media.1.codec.channels">2</property>
  <property name="meta.media.1.codec.name">pcm_s16le</property>
  <property name="meta.media.1.codec.long_name">PCM signed 16-bit little-endian</property>
  <property name="meta.media.1.codec.bit_rate">1536000</property>
  <property name="meta.attr.1.stream.TIMECODE.markup">09:37:40;17</property>
  <property name="meta.attr.1.stream.ENCODER.markup">Lavc58.91.100 pcm_s16le</property>
  <property name="meta.attr.1.stream.DURATION.markup">00:01:00.561000000</property>
  <property name="meta.attr.COMPATIBLE_BRANDS.markup">mp42avc1</property>
  <property name="meta.attr.MAJOR_BRAND.markup">mp42</property>
  <property name="meta.attr.MINOR_VERSION.markup">1</property>
  <property name="meta.attr.ENCODER.markup">Lavf58.45.100</property>
  <property name="meta.media.sample_aspect_num">1</property>
  <property name="meta.media.sample_aspect_den">1</property>
  <property name="meta.media.frame_rate_num">19001</property>
  <property name="meta.media.frame_rate_den">317</property>
  <property name="meta.media.colorspace">601</property>
  <property name="meta.media.color_trc">2</property>
  <property name="meta.media.width">960</property>
  <property name="meta.media.height">540</property>
  <property name="meta.media.color_range">full</property>
  <property name="meta.media.top_field_first">0</property>
  <property name="meta.media.progressive">1</property>
 </producer>
 <producer id="producer143" in="00:00:00.000" out="00:00:59.000">
  <property name="length">1772</property>
  <property name="eof">pause</property>
  <property name="resource">/home/ryankelln/.cache/kdenlive/proxy/222503c0e98193cf42c67a35a2a392bc.mkv</property>
  <property name="audio_index">1</property>
  <property name="video_index">0</property>
  <property name="mute_on_pause">0</property>
  <property name="mlt_service">avformat-novalidate</property>
  <property name="seekable">1</property>
  <property name="aspect_ratio">1</property>
  <property name="kdenlive:clipname">Raindrops in Super Slow Motion-CMvaMD3j6o4.mkv</property>
  <property name="kdenlive:folderid">102</property>
  <property name="kdenlive:id">162</property>
  <property name="kdenlive:file_size">32685034</property>
  <property name="kdenlive:file_hash">222503c0e98193cf42c67a35a2a392bc</property>
  <property name="kdenlive:proxy">/home/ryankelln/.cache/kdenlive/proxy/222503c0e98193cf42c67a35a2a392bc.mkv</property>
  <property name="kdenlive:originalurl">content/footage/Raindrops in Super Slow Motion-CMvaMD3j6o4.mkv</property>
  <property name="kdenlive:original.mlt_type">producer</property>
  <property name="kdenlive:original.in">0</property>
  <property name="kdenlive:original.out">1771</property>
  <property name="kdenlive:original.length">1772</property>
  <property name="kdenlive:original.eof">pause</property>
  <property name="kdenlive:original.resource">content/footage/Raindrops in Super Slow Motion-CMvaMD3j6o4.mkv</property>
  <property name="kdenlive:original.meta.media.nb_streams">2</property>
  <property name="kdenlive:original.meta.media.0.stream.type">video</property>
  <property name="kdenlive:original.meta.media.0.stream.frame_rate">23.976</property>
  <property name="kdenlive:original.meta.media.0.stream.sample_aspect_ratio">1</property>
  <property name="kdenlive:original.meta.media.0.codec.width">1920</property>
  <property name="kdenlive:original.meta.media.0.codec.height">1080</property>
  <property name="kdenlive:original.meta.media.0.codec.rotate">0</property>
  <property name="kdenlive:original.meta.media.0.codec.frame_rate">23.976</property>
  <property name="kdenlive:original.meta.media.0.codec.pix_fmt">yuv420p</property>
  <property name="kdenlive:original.meta.media.0.codec.sample_aspect_ratio">1</property>
  <property name="kdenlive:original.meta.media.0.codec.colorspace">709</property>
  <property name="kdenlive:original.meta.media.0.codec.color_trc">1</property>
  <property name="kdenlive:original.meta.media.0.codec.name">h264</property>
  <property name="kdenlive:original.meta.media.0.codec.long_name">H.264 / AVC / MPEG-4 AVC / MPEG-4 part 10</property>
  <property name="kdenlive:original.meta.media.0.codec.bit_rate">0</property>
  <property name="kdenlive:original.meta.attr.0.stream.HANDLER_NAME.markup">ISO Media file produced by Google Inc.</property>
  <property name="kdenlive:original.meta.attr.0.stream.DURATION.markup">00:00:58.934000000</property>
  <property name="kdenlive:original.meta.media.1.stream.type">audio</property>
  <property name="kdenlive:original.meta.media.1.codec.sample_fmt">fltp</property>
  <property name="kdenlive:original.meta.media.1.codec.sample_rate">48000</property>
  <property name="kdenlive:original.meta.media.1.codec.channels">2</property>
  <property name="kdenlive:original.meta.media.1.codec.name">opus</property>
  <property name="kdenlive:original.meta.media.1.codec.long_name">Opus</property>
  <property name="kdenlive:original.meta.media.1.codec.bit_rate">0</property>
  <property name="kdenlive:original.meta.attr.1.stream.language.markup">eng</property>
  <property name="kdenlive:original.meta.attr.1.stream.DURATION.markup">00:00:59.061000000</property>
  <property name="kdenlive:original.meta.attr.COMPATIBLE_BRANDS.markup">iso6avc1mp41</property>
  <property name="kdenlive:original.meta.attr.MAJOR_BRAND.markup">dash</property>
  <property name="kdenlive:original.meta.attr.MINOR_VERSION.markup">0</property>
  <property name="kdenlive:original.meta.attr.ENCODER.markup">Lavf58.45.100</property>
  <property name="kdenlive:original.seekable">1</property>
  <property name="kdenlive:original.width">1920</property>
  <property name="kdenlive:original.height">1080</property>
  <property name="kdenlive:original.meta.media.sample_aspect_num">1</property>
  <property name="kdenlive:original.meta.media.sample_aspect_den">1</property>
  <property name="kdenlive:original.aspect_ratio">1</property>
  <property name="kdenlive:original.audio_index">1</property>
  <property name="kdenlive:original.video_index">0</property>
  <property name="kdenlive:original.mute_on_pause">0</property>
  <property name="kdenlive:original.mlt_service">avformat-novalidate</property>
  <property name="kdenlive:original.kdenlive:folderid">102</property>
  <property name="kdenlive:original.meta.media.frame_rate_num">24000</property>
  <property name="kdenlive:original.meta.media.frame_rate_den">1001</property>
  <property name="kdenlive:original.meta.media.colorspace">709</property>
  <property name="kdenlive:original.meta.media.color_trc">1</property>
  <property name="kdenlive:original.meta.media.width">1920</property>
  <property name="kdenlive:original.meta.media.height">1080</property>
  <property name="kdenlive:original.meta.media.color_range">mpeg</property>
  <property name="kdenlive:original.kdenlive:id">162</property>
  <property name="kdenlive:original.kdenlive:file_size">32685034</property>
  <property name="kdenlive:original.kdenlive:file_hash">222503c0e98193cf42c67a35a2a392bc</property>
  <property name="kdenlive:original.backup">1</property>
  <property name="kdenlive:audio_max">1</property>
  <property name="global_feed">1</property>
  <property name="meta.media.nb_streams">2</property>
  <property name="meta.media.0.stream.type">video</property>
  <property name="meta.media.0.stream.frame_rate">23.976</property>
  <property name="meta.media.0.stream.sample_aspect_ratio">1</property>
  <property name="meta.media.0.codec.width">960</property>
  <property name="meta.media.0.codec.height">540</property>
  <property name="meta.media.0.codec.rotate">0</property>
  <property name="meta.media.0.codec.frame_rate">1000</property>
  <property name="meta.media.0.codec.pix_fmt">yuvj420p</property>
  <property name="meta.media.0.codec.sample_aspect_ratio">1</property>
  <property name="meta.media.0.codec.colorspace">601</property>
  <property name="meta.media.0.codec.name">mjpeg</property>
  <property name="meta.media.0.codec.long_name">MJPEG (Motion JPEG)</property>
  <property name="meta.media.0.codec.bit_rate">0</property>
  <property name="meta.attr.0.stream.HANDLER_NAME.markup">ISO Media file produced by Google Inc.</property>
  <property name="meta.attr.0.stream.ENCODER.markup">Lavc58.91.100 mjpeg</property>
  <property name="meta.attr.0.stream.DURATION.markup">00:00:58.934000000</property>
  <property name="meta.media.1.stream.type">audio</property>
  <property name="meta.media.1.codec.sample_fmt">s16</property>
  <property name="meta.media.1.codec.sample_rate">48000</property>
  <property name="meta.media.1.codec.channels">2</property>
  <property name="meta.media.1.codec.name">pcm_s16le</property>
  <property name="meta.media.1.codec.long_name">PCM signed 16-bit little-endian</property>
  <property name="meta.media.1.codec.bit_rate">1536000</property>
  <property name="meta.attr.1.stream.language.markup">eng</property>
  <property name="meta.attr.1.stream.ENCODER.markup">Lavc58.91.100 pcm_s16le</property>
  <property name="meta.attr.1.stream.DURATION.markup">00:00:59.044000000</property>
  <property name="meta.attr.MINOR_VERSION.markup">0</property>
  <property name="meta.attr.COMPATIBLE_BRANDS.markup">iso6avc1mp41</property>
  <property name="meta.attr.MAJOR_BRAND.markup">dash</property>
  <property name="meta.attr.ENCODER.markup">Lavf58.45.100</property>
  <property name="meta.media.sample_aspect_num">1</property>
  <property name="meta.media.sample_aspect_den">1</property>
  <property name="meta.media.frame_rate_num">24000</property>
  <property name="meta.media.frame_rate_den">1001</property>
  <property name="meta.media.colorspace">601</property>
  <property name="meta.media.color_trc">2</property>
  <property name="meta.media.width">960</property>
  <property name="meta.media.height">540</property>
  <property name="meta.media.color_range">full</property>
  <property name="meta.media.top_field_first">0</property>
  <property name="meta.media.progressive">1</property>
 </producer>
 <producer id="producer144" in="00:00:00.000" out="00:01:03.500">
  <property name="length">1907</property>
  <property name="eof">pause</property>
  <property name="resource">/home/ryankelln/.cache/kdenlive/proxy/fdb3e276694f668e0990c495ac3526f0.mkv</property>
  <property name="audio_index">-1</property>
  <property name="video_index">0</property>
  <property name="mute_on_pause">0</property>
  <property name="mlt_service">avformat-novalidate</property>
  <property name="seekable">1</property>
  <property name="aspect_ratio">1</property>
  <property name="kdenlive:clipname">SunsetWavesCloseUpH264_Beachfront-B-roll.mp4</property>
  <property name="kdenlive:folderid">102</property>
  <property name="kdenlive:id">163</property>
  <property name="kdenlive:file_size">355994478</property>
  <property name="kdenlive:file_hash">fdb3e276694f668e0990c495ac3526f0</property>
  <property name="kdenlive:proxy">/home/ryankelln/.cache/kdenlive/proxy/fdb3e276694f668e0990c495ac3526f0.mkv</property>
  <property name="kdenlive:originalurl">content/footage/SunsetWavesCloseUpH264_Beachfront-B-roll.mp4</property>
  <property name="kdenlive:original.mlt_type">producer</property>
  <property name="kdenlive:original.in">0</property>
  <property name="kdenlive:original.out">1906</property>
  <property name="kdenlive:original.length">1907</property>
  <property name="kdenlive:original.eof">pause</property>
  <property name="kdenlive:original.resource">content/footage/SunsetWavesCloseUpH264_Beachfront-B-roll.mp4</property>
  <property name="kdenlive:original.meta.media.nb_streams">1</property>
  <property name="kdenlive:original.meta.media.0.stream.type">video</property>
  <property name="kdenlive:original.meta.media.0.stream.frame_rate">29.97</property>
  <property name="kdenlive:original.meta.media.0.stream.sample_aspect_ratio">0</property>
  <property name="kdenlive:original.meta.media.0.codec.width">1920</property>
  <property name="kdenlive:original.meta.media.0.codec.height">1080</property>
  <property name="kdenlive:original.meta.media.0.codec.rotate">0</property>
  <property name="kdenlive:original.meta.media.0.codec.frame_rate">29.97</property>
  <property name="kdenlive:original.meta.media.0.codec.pix_fmt">yuv420p</property>
  <property name="kdenlive:original.meta.media.0.codec.sample_aspect_ratio">1</property>
  <property name="kdenlive:original.meta.media.0.codec.colorspace">709</property>
  <property name="kdenlive:original.meta.media.0.codec.name">h264</property>
  <property name="kdenlive:original.meta.media.0.codec.long_name">H.264 / AVC / MPEG-4 AVC / MPEG-4 part 10</property>
  <property name="kdenlive:original.meta.media.0.codec.bit_rate">44801565</property>
  <property name="kdenlive:original.meta.attr.0.stream.creation_time.markup">2013-08-13T23:31:21.000000Z</property>
  <property name="kdenlive:original.meta.attr.0.stream.language.markup">eng</property>
  <property name="kdenlive:original.meta.attr.0.stream.handler_name.markup">Mainconcept MP4 Video Media Handler</property>
  <property name="kdenlive:original.meta.attr.0.stream.encoder.markup">AVC Coding</property>
  <property name="kdenlive:original.meta.attr.major_brand.markup">mp42</property>
  <property name="kdenlive:original.meta.attr.minor_version.markup">0</property>
  <property name="kdenlive:original.meta.attr.compatible_brands.markup">mp42mp41</property>
  <property name="kdenlive:original.meta.attr.creation_time.markup">2013-08-13T23:31:21.000000Z</property>
  <property name="kdenlive:original.seekable">1</property>
  <property name="kdenlive:original.width">1920</property>
  <property name="kdenlive:original.height">1080</property>
  <property name="kdenlive:original.meta.media.sample_aspect_num">1</property>
  <property name="kdenlive:original.meta.media.sample_aspect_den">1</property>
  <property name="kdenlive:original.aspect_ratio">1</property>
  <property name="kdenlive:original.audio_index">-1</property>
  <property name="kdenlive:original.video_index">0</property>
  <property name="kdenlive:original.mute_on_pause">0</property>
  <property name="kdenlive:original.mlt_service">avformat-novalidate</property>
  <property name="kdenlive:original.kdenlive:folderid">102</property>
  <property name="kdenlive:original.meta.media.frame_rate_num">2997</property>
  <property name="kdenlive:original.meta.media.frame_rate_den">100</property>
  <property name="kdenlive:original.meta.media.colorspace">709</property>
  <property name="kdenlive:original.meta.media.color_trc">2</property>
  <property name="kdenlive:original.meta.media.width">1920</property>
  <property name="kdenlive:original.meta.media.height">1080</property>
  <property name="kdenlive:original.meta.media.color_range">mpeg</property>
  <property name="kdenlive:original.kdenlive:id">163</property>
  <property name="kdenlive:original.kdenlive:file_size">355994478</property>
  <property name="kdenlive:original.kdenlive:file_hash">fdb3e276694f668e0990c495ac3526f0</property>
  <property name="kdenlive:original.backup">1</property>
  <property name="global_feed">1</property>
  <property name="meta.media.nb_streams">1</property>
  <property name="meta.media.0.stream.type">video</property>
  <property name="meta.media.0.stream.frame_rate">29.97</property>
  <property name="meta.media.0.stream.sample_aspect_ratio">1</property>
  <property name="meta.media.0.codec.width">960</property>
  <property name="meta.media.0.codec.height">540</property>
  <property name="meta.media.0.codec.rotate">0</property>
  <property name="meta.media.0.codec.frame_rate">1000</property>
  <property name="meta.media.0.codec.pix_fmt">yuvj420p</property>
  <property name="meta.media.0.codec.sample_aspect_ratio">1</property>
  <property name="meta.media.0.codec.colorspace">601</property>
  <property name="meta.media.0.codec.name">mjpeg</property>
  <property name="meta.media.0.codec.long_name">MJPEG (Motion JPEG)</property>
  <property name="meta.media.0.codec.bit_rate">0</property>
  <property name="meta.attr.0.stream.language.markup">eng</property>
  <property name="meta.attr.0.stream.HANDLER_NAME.markup">Mainconcept MP4 Video Media Handler</property>
  <property name="meta.attr.0.stream.ENCODER.markup">Lavc58.91.100 mjpeg</property>
  <property name="meta.attr.0.stream.DURATION.markup">00:01:03.530000000</property>
  <property name="meta.attr.COMPATIBLE_BRANDS.markup">mp42mp41</property>
  <property name="meta.attr.MAJOR_BRAND.markup">mp42</property>
  <property name="meta.attr.MINOR_VERSION.markup">0</property>
  <property name="meta.attr.ENCODER.markup">Lavf58.45.100</property>
  <property name="meta.media.sample_aspect_num">1</property>
  <property name="meta.media.sample_aspect_den">1</property>
  <property name="meta.media.frame_rate_num">2997</property>
  <property name="meta.media.frame_rate_den">100</property>
  <property name="meta.media.colorspace">601</property>
  <property name="meta.media.color_trc">2</property>
  <property name="meta.media.width">960</property>
  <property name="meta.media.height">540</property>
  <property name="meta.media.color_range">full</property>
  <property name="meta.media.top_field_first">0</property>
  <property name="meta.media.progressive">1</property>
 </producer>
 <producer id="producer145" in="00:00:00.000" out="00:01:52.500">
  <property name="length">3373</property>
  <property name="eof">pause</property>
  <property name="resource">/home/ryankelln/.cache/kdenlive/proxy/e0b5afd66747a49eaaa9c7a5e80ef3ad.mkv</property>
  <property name="audio_index">-1</property>
  <property name="video_index">0</property>
  <property name="mute_on_pause">0</property>
  <property name="mlt_service">avformat-novalidate</property>
  <property name="seekable">1</property>
  <property name="aspect_ratio">1</property>
  <property name="kdenlive:clipname">2020-12-26_HighPark_water+trees+snow+ripples_2.MP4</property>
  <property name="kdenlive:folderid">102</property>
  <property name="kdenlive:id">164</property>
  <property name="kdenlive:file_size">460891685</property>
  <property name="kdenlive:file_hash">e0b5afd66747a49eaaa9c7a5e80ef3ad</property>
  <property name="kdenlive:proxy">/home/ryankelln/.cache/kdenlive/proxy/e0b5afd66747a49eaaa9c7a5e80ef3ad.mkv</property>
  <property name="kdenlive:originalurl">content/footage/2020-12-26_HighPark_water+trees+snow+ripples_2.MP4</property>
  <property name="kdenlive:original.mlt_type">producer</property>
  <property name="kdenlive:original.in">0</property>
  <property name="kdenlive:original.out">3372</property>
  <property name="kdenlive:original.length">3373</property>
  <property name="kdenlive:original.eof">pause</property>
  <property name="kdenlive:original.resource">content/footage/2020-12-26_HighPark_water+trees+snow+ripples_2.MP4</property>
  <property name="kdenlive:original.meta.media.nb_streams">2</property>
  <property name="kdenlive:original.meta.media.0.stream.type">video</property>
  <property name="kdenlive:original.meta.media.0.stream.frame_rate">24</property>
  <property name="kdenlive:original.meta.media.0.stream.sample_aspect_ratio">1</property>
  <property name="kdenlive:original.meta.media.0.codec.width">1920</property>
  <property name="kdenlive:original.meta.media.0.codec.height">1080</property>
  <property name="kdenlive:original.meta.media.0.codec.rotate">0</property>
  <property name="kdenlive:original.meta.media.0.codec.frame_rate">24</property>
  <property name="kdenlive:original.meta.media.0.codec.pix_fmt">yuv420p</property>
  <property name="kdenlive:original.meta.media.0.codec.sample_aspect_ratio">1</property>
  <property name="kdenlive:original.meta.media.0.codec.colorspace">709</property>
  <property name="kdenlive:original.meta.media.0.codec.color_trc">1</property>
  <property name="kdenlive:original.meta.media.0.codec.name">h264</property>
  <property name="kdenlive:original.meta.media.0.codec.long_name">H.264 / AVC / MPEG-4 AVC / MPEG-4 part 10</property>
  <property name="kdenlive:original.meta.media.0.codec.bit_rate">32796068</property>
  <property name="kdenlive:original.meta.attr.0.stream.creation_time.markup">2020-12-26T16:28:23.000000Z</property>
  <property name="kdenlive:original.meta.attr.0.stream.handler_name.markup">VideoHandler</property>
  <property name="kdenlive:original.meta.attr.0.stream.timecode.markup">21:50:07:15</property>
  <property name="kdenlive:original.meta.attr.compatible_brands.markup">mp42avc1</property>
  <property name="kdenlive:original.meta.attr.major_brand.markup">mp42</property>
  <property name="kdenlive:original.meta.attr.minor_version.markup">1</property>
  <property name="kdenlive:original.meta.attr.creation_time.markup">2020-12-26T16:28:23.000000Z</property>
  <property name="kdenlive:original.meta.attr.encoder.markup">Lavf58.45.100</property>
  <property name="kdenlive:original.seekable">1</property>
  <property name="kdenlive:original.width">1920</property>
  <property name="kdenlive:original.height">1080</property>
  <property name="kdenlive:original.meta.media.sample_aspect_num">1</property>
  <property name="kdenlive:original.meta.media.sample_aspect_den">1</property>
  <property name="kdenlive:original.aspect_ratio">1</property>
  <property name="kdenlive:original.audio_index">-1</property>
  <property name="kdenlive:original.video_index">0</property>
  <property name="kdenlive:original.mute_on_pause">0</property>
  <property name="kdenlive:original.mlt_service">avformat-novalidate</property>
  <property name="kdenlive:original.kdenlive:folderid">102</property>
  <property name="kdenlive:original.meta.media.frame_rate_num">24</property>
  <property name="kdenlive:original.meta.media.frame_rate_den">1</property>
  <property name="kdenlive:original.meta.media.colorspace">709</property>
  <property name="kdenlive:original.meta.media.color_trc">1</property>
  <property name="kdenlive:original.meta.media.width">1920</property>
  <property name="kdenlive:original.meta.media.height">1080</property>
  <property name="kdenlive:original.meta.media.color_range">mpeg</property>
  <property name="kdenlive:original.kdenlive:id">164</property>
  <property name="kdenlive:original.kdenlive:file_size">460891685</property>
  <property name="kdenlive:original.kdenlive:file_hash">e0b5afd66747a49eaaa9c7a5e80ef3ad</property>
  <property name="kdenlive:original.backup">1</property>
  <property name="global_feed">1</property>
  <property name="meta.media.nb_streams">1</property>
  <property name="meta.media.0.stream.type">video</property>
  <property name="meta.media.0.stream.frame_rate">24</property>
  <property name="meta.media.0.stream.sample_aspect_ratio">1</property>
  <property name="meta.media.0.codec.width">960</property>
  <property name="meta.media.0.codec.height">540</property>
  <property name="meta.media.0.codec.rotate">0</property>
  <property name="meta.media.0.codec.frame_rate">1000</property>
  <property name="meta.media.0.codec.pix_fmt">yuvj420p</property>
  <property name="meta.media.0.codec.sample_aspect_ratio">1</property>
  <property name="meta.media.0.codec.colorspace">601</property>
  <property name="meta.media.0.codec.name">mjpeg</property>
  <property name="meta.media.0.codec.long_name">MJPEG (Motion JPEG)</property>
  <property name="meta.media.0.codec.bit_rate">0</property>
  <property name="meta.attr.0.stream.HANDLER_NAME.markup">VideoHandler</property>
  <property name="meta.attr.0.stream.TIMECODE.markup">21:50:07:15</property>
  <property name="meta.attr.0.stream.ENCODER.markup">Lavc58.91.100 mjpeg</property>
  <property name="meta.attr.0.stream.DURATION.markup">00:01:52.542000000</property>
  <property name="meta.attr.MINOR_VERSION.markup">1</property>
  <property name="meta.attr.COMPATIBLE_BRANDS.markup">mp42avc1</property>
  <property name="meta.attr.MAJOR_BRAND.markup">mp42</property>
  <property name="meta.attr.ENCODER.markup">Lavf58.45.100</property>
  <property name="meta.media.sample_aspect_num">1</property>
  <property name="meta.media.sample_aspect_den">1</property>
  <property name="meta.media.frame_rate_num">24</property>
  <property name="meta.media.frame_rate_den">1</property>
  <property name="meta.media.colorspace">601</property>
  <property name="meta.media.color_trc">2</property>
  <property name="meta.media.width">960</property>
  <property name="meta.media.height">540</property>
  <property name="meta.media.color_range">full</property>
  <property name="meta.media.top_field_first">0</property>
  <property name="meta.media.progressive">1</property>
 </producer>
 <playlist id="main_bin">
  <property name="kdenlive:folder.-1.63">storyboard</property>
  <property name="kdenlive:folder.-1.65">musicians</property>
  <property name="kdenlive:folder.-1.84">stories</property>
  <property name="kdenlive:folder.-1.81">photos</property>
  <property name="kdenlive:folder.-1.102">footage</property>
  <property name="kdenlive:folder.-1.108">textures</property>
  <property name="kdenlive:folder.-1.153">prerendered</property>
  <property name="kdenlive:docproperties.activeTrack">6</property>
  <property name="kdenlive:docproperties.audioChannels">2</property>
  <property name="kdenlive:docproperties.audioTarget">-1</property>
  <property name="kdenlive:docproperties.audiotargettrack">2</property>
  <property name="kdenlive:docproperties.dirtypreviewchunks"/>
  <property name="kdenlive:docproperties.disablepreview">0</property>
  <property name="kdenlive:docproperties.documentid">1620072548111</property>
  <property name="kdenlive:docproperties.enableTimelineZone">0</property>
  <property name="kdenlive:docproperties.enableexternalproxy">0</property>
  <property name="kdenlive:docproperties.enableproxy">1</property>
  <property name="kdenlive:docproperties.externalproxyparams">../Sub;;S03.MP4;../Clip;;.MXF</property>
  <property name="kdenlive:docproperties.generateimageproxy">0</property>
  <property name="kdenlive:docproperties.generateproxy">1</property>
  <property name="kdenlive:docproperties.groups">[
    {
        "children": [
            {
                "data": "11:6527",
                "leaf": "clip",
                "type": "Leaf"
            },
            {
                "data": "11:6877",
                "leaf": "clip",
                "type": "Leaf"
            }
        ],
        "type": "Normal"
    }
]
</property>
  <property name="kdenlive:docproperties.guides">[
    {
        "comment": "start",
        "pos": 210,
        "type": 4
    },
    {
        "comment": "cymbol",
        "pos": 1415,
        "type": 0
    },
    {
        "comment": "piano entry",
        "pos": 2476,
        "type": 4
    },
    {
        "comment": "cymbol",
        "pos": 2973,
        "type": 0
    },
    {
        "comment": "cynbol - drum switch",
        "pos": 9411,
        "type": 0
    },
    {
        "comment": "toms",
        "pos": 9673,
        "type": 0
    },
    {
        "comment": "hihat",
        "pos": 9761,
        "type": 0
    },
    {
        "comment": "clap",
        "pos": 9934,
        "type": 0
    },
    {
        "comment": "clap",
        "pos": 11233,
        "type": 0
    },
    {
        "comment": "cymbol",
        "pos": 4230,
        "type": 0
    },
    {
        "comment": "cymbol",
        "pos": 4865,
        "type": 0
    },
    {
        "comment": "guide",
        "pos": 3473,
        "type": 0
    },
    {
        "comment": "guide",
        "pos": 7159,
        "type": 0
    },
    {
        "comment": "piano",
        "pos": 827,
        "type": 0
    },
    {
        "comment": "clap",
        "pos": 5340,
        "type": 0
    },
    {
        "comment": "guide",
        "pos": 5266,
        "type": 0
    },
    {
        "comment": "guide",
        "pos": 6085,
        "type": 0
    },
    {
        "comment": "guide",
        "pos": 7678,
        "type": 0
    },
    {
        "comment": "death-slow",
        "pos": 11304,
        "type": 3
    },
    {
        "comment": "crunchy start",
        "pos": 9456,
        "type": 3
    },
    {
        "comment": "photo slidwshow",
        "pos": 27000,
        "type": 4
    },
    {
        "comment": "guide",
        "pos": 875,
        "type": 0
    },
    {
        "comment": "textures slideshow",
        "pos": 29040,
        "type": 4
    },
    {
        "comment": "guide",
        "pos": 11192,
        "type": 4
    },
    {
        "comment": "bu3n start",
        "pos": 9426,
        "type": 4
    },
    {
        "comment": "end",
        "pos": 13372,
        "type": 4
    }
]
</property>
  <property name="kdenlive:docproperties.kdenliveversion">21.04.2</property>
  <property name="kdenlive:docproperties.position">13364</property>
  <property name="kdenlive:docproperties.previewchunks"/>
  <property name="kdenlive:docproperties.previewextension">mov</property>
  <property name="kdenlive:docproperties.previewparameters">r=30 s=1920x1080 vb=45M threads=0 vcodec=dnxhd progressive=1</property>
  <property name="kdenlive:docproperties.profile">atsc_1080p_30</property>
  <property name="kdenlive:docproperties.proxyextension">mkv</property>
  <property name="kdenlive:docproperties.proxyimageminsize">2000</property>
  <property name="kdenlive:docproperties.proxyimagesize">800</property>
  <property name="kdenlive:docproperties.proxyminsize">1920</property>
  <property name="kdenlive:docproperties.proxyparams">-vf yadif,scale=960:-2 -qscale 3 -vcodec mjpeg -acodec pcm_s16le</property>
  <property name="kdenlive:docproperties.renderaudioquality">192</property>
  <property name="kdenlive:docproperties.rendercategory">Generic (HD for web, mobile devices...)</property>
  <property name="kdenlive:docproperties.renderendguide">1</property>
  <property name="kdenlive:docproperties.renderexportaudio">0</property>
  <property name="kdenlive:docproperties.renderfield">0</property>
  <property name="kdenlive:docproperties.renderguide">0</property>
  <property name="kdenlive:docproperties.renderplay">0</property>
  <property name="kdenlive:docproperties.renderprofile">MP4-H264/AAC</property>
  <property name="kdenlive:docproperties.renderquality">21</property>
  <property name="kdenlive:docproperties.renderratio">1</property>
  <property name="kdenlive:docproperties.renderrescale">0</property>
  <property name="kdenlive:docproperties.renderrescaleheight">540</property>
  <property name="kdenlive:docproperties.renderrescalewidth">960</property>
  <property name="kdenlive:docproperties.renderscanning">0</property>
  <property name="kdenlive:docproperties.renderspeed">2</property>
  <property name="kdenlive:docproperties.renderstartguide">0</property>
  <property name="kdenlive:docproperties.rendertcoverlay">0</property>
  <property name="kdenlive:docproperties.rendertctype">0</property>
  <property name="kdenlive:docproperties.rendertwopass">0</property>
  <property name="kdenlive:docproperties.renderurl">mac_v2.mp4</property>
  <property name="kdenlive:docproperties.renderzone">1</property>
  <property name="kdenlive:docproperties.scrollPos">2027</property>
  <property name="kdenlive:docproperties.seekOffset">30000</property>
  <property name="kdenlive:docproperties.version">1</property>
  <property name="kdenlive:docproperties.verticalzoom">1</property>
  <property name="kdenlive:docproperties.videoTarget">3</property>
  <property name="kdenlive:docproperties.videotargettrack">3</property>
  <property name="kdenlive:docproperties.zonein">11314</property>
  <property name="kdenlive:docproperties.zoneout">13372</property>
  <property name="kdenlive:docproperties.zoom">10</property>
  <property name="kdenlive:expandedFolders">102</property>
  <property name="kdenlive:documentnotes"/>
  <property name="xml_retain">1</property>
  <entry producer="1" in="00:00:00.000" out="00:04:08.067"/>
  <entry producer="producer18" in="00:00:00.000" out="00:00:14.567"/>
  <entry producer="producer19" in="00:00:00.000" out="00:00:15.333"/>
  <entry producer="producer20" in="00:00:00.000" out="00:00:09.367"/>
  <entry producer="producer21" in="00:00:00.000" out="00:00:15.667"/>
  <entry producer="producer23" in="00:00:00.000" out="00:00:19.867"/>
  <entry producer="producer22" in="00:00:00.000" out="00:01:04.633"/>
  <entry producer="producer24" in="00:00:00.000" out="00:00:18.767"/>
  <entry producer="producer25" in="00:00:00.000" out="00:00:07.967"/>
  <entry producer="producer62" in="00:00:00.000" out="00:00:12.100"/>
  <entry producer="producer61" in="00:00:00.000" out="00:00:07.767"/>
  <entry producer="producer64" in="00:00:00.000" out="00:00:16.500"/>
  <entry producer="producer63" in="00:00:00.000" out="00:00:15.600"/>
  <entry producer="producer30" in="00:00:00.000" out="00:01:04.000"/>
  <entry producer="producer31" in="00:00:00.000" out="00:00:18.767"/>
  <entry producer="producer32" in="00:00:00.000" out="00:00:25.067"/>
  <entry producer="producer33" in="00:00:00.000" out="00:00:10.367"/>
  <entry producer="producer34" in="00:00:00.000" out="00:00:14.567"/>
  <entry producer="producer35" in="00:00:00.000" out="00:00:20.867"/>
  <entry producer="producer36" in="00:00:00.000" out="00:01:05.367"/>
  <entry producer="producer37" in="00:00:00.000" out="00:01:05.367"/>
  <entry producer="producer38" in="00:00:00.000" out="00:01:09.133"/>
  <entry producer="producer39" in="00:00:00.000" out="00:01:04.767"/>
  <entry producer="producer40" in="00:00:00.000" out="00:05:25.733"/>
  <entry producer="producer44" in="00:00:00.000" out="00:00:23.133"/>
  <entry producer="producer47" in="00:00:00.000" out="00:00:17.533"/>
  <entry producer="producer48" in="00:00:00.000" out="00:00:10.433"/>
  <entry producer="producer49" in="00:00:00.000" out="00:00:44.833"/>
  <entry producer="producer50" in="00:00:00.000" out="00:00:27.400"/>
  <entry producer="producer26" in="00:00:00.000" out="00:07:11.767"/>
  <entry producer="producer27" in="00:00:00.000" out="00:04:53.133"/>
  <entry producer="producer28" in="00:00:00.000" out="00:02:03.400"/>
  <entry producer="producer29" in="00:00:00.000" out="00:02:43.867"/>
  <entry producer="producer54" in="00:00:00.000" out="00:03:09.233"/>
  <entry producer="producer55" in="00:00:00.000" out="00:04:52.700"/>
  <entry producer="producer53" in="00:00:00.000" out="00:02:02.533"/>
  <entry producer="producer56" in="00:00:00.000" out="00:02:27.067"/>
  <entry producer="producer57" in="00:00:00.000" out="00:00:35.700"/>
  <entry producer="producer58" in="00:00:00.000" out="00:03:11.667"/>
  <entry producer="producer60" in="00:00:00.000" out="00:04:57.333"/>
  <entry producer="producer59" in="00:00:00.000" out="00:01:47.700"/>
  <entry producer="producer65" in="00:00:00.000" out="00:01:23.533"/>
  <entry producer="producer66" in="00:00:00.000" out="00:01:53.700"/>
  <entry producer="producer68" in="00:00:00.000" out="00:01:19.233"/>
  <entry producer="producer69" in="00:00:00.000" out="00:04:56.467"/>
  <entry producer="producer67" in="00:00:00.000" out="00:01:48.700"/>
  <entry producer="producer70" in="00:00:00.000" out="00:03:15.200"/>
  <entry producer="producer71" in="00:00:00.000" out="00:05:23.233"/>
  <entry producer="producer72" in="00:00:00.000" out="00:01:04.767"/>
  <entry producer="producer75" in="00:00:00.000" out="00:00:14.567"/>
  <entry producer="producer74" in="00:00:00.000" out="00:00:09.367"/>
  <entry producer="producer76" in="00:00:00.000" out="00:00:15.667"/>
  <entry producer="producer77" in="00:00:00.000" out="00:00:19.867"/>
  <entry producer="producer78" in="00:00:00.000" out="00:00:19.400"/>
  <entry producer="producer79" in="00:00:00.000" out="00:00:15.333"/>
  <entry producer="producer81" in="00:00:00.000" out="00:00:36.467"/>
  <entry producer="producer80" in="00:00:00.000" out="00:00:07.967"/>
  <entry producer="producer82" in="00:00:00.000" out="00:07:10.800"/>
  <entry producer="producer83" in="00:00:00.000" out="00:01:18.100"/>
  <entry producer="producer84" in="00:00:00.000" out="00:01:17.967"/>
  <entry producer="producer0" in="00:00:00.000" out="00:00:20.467"/>
  <entry producer="producer1" in="00:00:00.000" out="00:00:38.833"/>
  <entry producer="producer2" in="00:00:00.000" out="00:01:04.833"/>
  <entry producer="producer3" in="00:00:00.000" out="00:02:11.033"/>
  <entry producer="producer4" in="00:00:00.000" out="00:00:04.967"/>
  <entry producer="producer5" in="00:00:00.000" out="00:00:04.967"/>
  <entry producer="producer6" in="00:00:00.000" out="00:00:04.967"/>
  <entry producer="producer7" in="00:00:00.000" out="00:00:04.967"/>
  <entry producer="producer8" in="00:00:00.000" out="00:00:04.967"/>
  <entry producer="producer9" in="00:00:00.000" out="00:00:04.967"/>
  <entry producer="producer10" in="00:00:00.000" out="00:00:04.967"/>
  <entry producer="producer11" in="00:00:00.000" out="00:00:04.967"/>
  <entry producer="producer12" in="00:00:00.000" out="00:00:04.967"/>
  <entry producer="producer14" in="00:00:00.000" out="00:00:04.967"/>
  <entry producer="producer13" in="00:00:00.000" out="00:00:04.967"/>
  <entry producer="producer15" in="00:00:00.000" out="00:00:04.967"/>
  <entry producer="producer16" in="00:00:00.000" out="00:00:04.967"/>
  <entry producer="producer43" in="00:00:00.000" out="00:00:04.967"/>
  <entry producer="producer17" in="00:00:00.000" out="00:00:04.967"/>
  <entry producer="producer45" in="00:00:00.000" out="00:00:04.967"/>
  <entry producer="producer51" in="00:00:00.000" out="00:00:04.967"/>
  <entry producer="producer46" in="00:00:00.000" out="00:00:04.967"/>
  <entry producer="producer52" in="00:00:00.000" out="00:00:44.833"/>
  <entry producer="producer73" in="00:00:00.000" out="00:02:23.500"/>
  <entry producer="producer85" in="00:00:00.000" out="00:01:14.500"/>
  <entry producer="producer86" in="00:00:00.000" out="00:00:30.000"/>
  <entry producer="producer41" in="00:00:00.000" out="00:01:29.767"/>
  <entry producer="producer42" in="00:00:00.000" out="00:02:23.500"/>
  <entry producer="producer87" in="00:00:00.000" out="00:00:29.900"/>
  <entry producer="producer88" in="00:00:00.000" out="00:00:09.067"/>
  <entry producer="producer89" in="00:00:00.000" out="00:00:06.867"/>
  <entry producer="producer90" in="00:00:00.000" out="00:00:11.467"/>
  <entry producer="producer91" in="00:00:00.000" out="00:00:04.967"/>
  <entry producer="producer92" in="00:00:00.000" out="00:00:04.967"/>
  <entry producer="producer93" in="00:00:00.000" out="00:00:04.967"/>
  <entry producer="producer94" in="00:00:00.000" out="00:00:04.967"/>
  <entry producer="producer95" in="00:00:00.000" out="00:00:04.967"/>
  <entry producer="producer96" in="00:00:00.000" out="00:00:04.967"/>
  <entry producer="producer97" in="00:00:00.000" out="00:00:04.967"/>
  <entry producer="producer98" in="00:00:00.000" out="00:00:04.967"/>
  <entry producer="producer99" in="00:00:00.000" out="00:00:04.967"/>
  <entry producer="producer100" in="00:00:00.000" out="00:00:04.967"/>
  <entry producer="producer101" in="00:00:00.000" out="00:00:04.967"/>
  <entry producer="producer102" in="00:00:00.000" out="00:00:04.967"/>
  <entry producer="producer103" in="00:00:00.000" out="00:00:04.967"/>
  <entry producer="producer104" in="00:00:00.000" out="00:00:04.967"/>
  <entry producer="producer105" in="00:00:00.000" out="00:00:04.967"/>
  <entry producer="producer106" in="00:00:00.000" out="00:00:04.967"/>
  <entry producer="producer107" in="00:00:00.000" out="00:00:04.967"/>
  <entry producer="producer108" in="00:00:00.000" out="00:00:04.967"/>
  <entry producer="producer109" in="00:00:00.000" out="00:00:04.967"/>
  <entry producer="producer110" in="00:00:00.000" out="00:00:04.967"/>
  <entry producer="producer111" in="00:00:00.000" out="00:00:04.967"/>
  <entry producer="producer112" in="00:00:00.000" out="00:00:04.967"/>
  <entry producer="producer113" in="00:00:00.000" out="00:00:04.967"/>
  <entry producer="producer114" in="00:00:00.000" out="00:00:04.967"/>
  <entry producer="producer115" in="00:00:00.000" out="00:00:04.967"/>
  <entry producer="producer116" in="00:00:00.000" out="00:00:04.967"/>
  <entry producer="producer117" in="00:00:00.000" out="00:00:04.967"/>
  <entry producer="producer118" in="00:00:00.000" out="00:00:04.967"/>
  <entry producer="producer119" in="00:00:00.000" out="00:00:04.967"/>
  <entry producer="producer120" in="00:00:00.000" out="00:00:04.967"/>
  <entry producer="producer121" in="00:00:00.000" out="00:00:04.967"/>
  <entry producer="producer122" in="00:00:00.000" out="00:00:04.967"/>
  <entry producer="producer123" in="00:00:00.000" out="00:00:04.967"/>
  <entry producer="producer124" in="00:00:00.000" out="00:00:04.967"/>
  <entry producer="producer125" in="00:00:00.000" out="00:00:04.967"/>
  <entry producer="producer126" in="00:00:00.000" out="00:00:04.967"/>
  <entry producer="producer127" in="00:00:00.000" out="00:00:04.967"/>
  <entry producer="producer128" in="00:00:00.000" out="00:00:04.967"/>
  <entry producer="producer129" in="00:00:00.000" out="00:00:04.967"/>
  <entry producer="producer130" in="00:00:00.000" out="00:00:04.967"/>
  <entry producer="producer131" in="00:00:00.000" out="00:00:04.967"/>
  <entry producer="producer132" in="00:00:00.000" out="00:00:04.967"/>
  <entry producer="producer133" in="00:00:00.000" out="00:00:04.967"/>
  <entry producer="producer134" in="00:00:00.000" out="00:00:04.967"/>
  <entry producer="producer135" in="00:00:00.000" out="00:00:53.967"/>
  <entry producer="producer136" in="00:00:00.000" out="00:02:11.967"/>
  <entry producer="producer137" in="00:00:00.000" out="00:00:46.433"/>
  <entry producer="producer138" in="00:00:00.000" out="00:01:08.833"/>
  <entry producer="producer139" in="00:00:00.000" out="00:01:10.133"/>
  <entry producer="producer140" in="00:00:00.000" out="00:01:05.067"/>
  <entry producer="producer141" in="00:00:00.000" out="00:00:25.933"/>
  <entry producer="producer142" in="00:00:00.000" out="00:01:00.533"/>
  <entry producer="producer143" in="00:00:00.000" out="00:00:59.000"/>
  <entry producer="producer144" in="00:00:00.000" out="00:01:03.500"/>
  <entry producer="producer145" in="00:00:00.000" out="00:01:52.400"/>
 </playlist>
 <producer id="black_track" in="00:00:00.000" out="00:35:00.000">
  <property name="length">2147483647</property>
  <property name="eof">continue</property>
  <property name="resource">black</property>
  <property name="aspect_ratio">1</property>
  <property name="mlt_service">color</property>
  <property name="mlt_image_format">rgb24a</property>
  <property name="set.test_audio">0</property>
 </producer>
 <playlist id="playlist0">
  <property name="kdenlive:audio_track">1</property>
 </playlist>
 <playlist id="playlist1"/>
 <tractor id="tractor0" in="00:00:00.000">
  <property name="kdenlive:audio_track">1</property>
  <property name="kdenlive:trackheight">69</property>
  <property name="kdenlive:timeline_active"/>
  <property name="kdenlive:collapsed">0</property>
  <property name="kdenlive:track_name">extra audio</property>
  <property name="kdenlive:thumbs_format"/>
  <property name="kdenlive:audio_rec"/>
  <track hide="both" producer="playlist0"/>
  <track hide="video" producer="playlist1"/>
  <filter id="filter7">
   <property name="window">75</property>
   <property name="max_gain">20dB</property>
   <property name="mlt_service">volume</property>
   <property name="internal_added">237</property>
   <property name="disable">1</property>
  </filter>
  <filter id="filter8">
   <property name="channel">-1</property>
   <property name="mlt_service">panner</property>
   <property name="internal_added">237</property>
   <property name="start">0.5</property>
   <property name="disable">1</property>
  </filter>
  <filter id="filter9">
   <property name="iec_scale">0</property>
   <property name="mlt_service">audiolevel</property>
   <property name="disable">1</property>
  </filter>
 </tractor>
 <producer id="producer146" in="00:00:00.000" out="00:07:11.767">
  <property name="length">12954</property>
  <property name="eof">pause</property>
  <property name="resource">20210602_SpectrumMusic-SoundEscapes-Mac EDIT1.wav</property>
  <property name="audio_index">0</property>
  <property name="video_index">-1</property>
  <property name="mute_on_pause">0</property>
  <property name="mlt_service">avformat-novalidate</property>
  <property name="meta.media.nb_streams">1</property>
  <property name="meta.media.0.stream.type">audio</property>
  <property name="meta.media.0.codec.sample_fmt">s32</property>
  <property name="meta.media.0.codec.sample_rate">48000</property>
  <property name="meta.media.0.codec.channels">2</property>
  <property name="meta.media.0.codec.name">pcm_s24le</property>
  <property name="meta.media.0.codec.long_name">PCM signed 24-bit little-endian</property>
  <property name="meta.media.0.codec.bit_rate">2304000</property>
  <property name="meta.attr.encoded_by.markup">Pro Tools</property>
  <property name="meta.attr.originator_reference.markup">aui8NdZasvRk</property>
  <property name="meta.attr.date.markup">2021-06-11</property>
  <property name="meta.attr.creation_time.markup">12:59:55</property>
  <property name="meta.attr.time_reference.markup">91273370</property>
  <property name="meta.attr.umid.markup">0x060A2B340101010501010F1013000000B5520330E7F08500D4B7005056C00001</property>
  <property name="seekable">1</property>
  <property name="kdenlive:clipname"/>
  <property name="kdenlive:folderid">-1</property>
  <property name="kdenlive:id">31</property>
  <property name="kdenlive:file_size">125017670</property>
  <property name="kdenlive:file_hash">a0cb16de5cfde151f2b8650533f64d21</property>
  <property name="kdenlive:audio_max">1</property>
  <property name="global_feed">1</property>
  <property name="xml">was here</property>
  <property name="set.test_audio">0</property>
  <property name="set.test_image">1</property>
 </producer>
 <producer id="producer147" in="00:00:00.000" out="00:05:25.733">
  <property name="length">9773</property>
  <property name="eof">pause</property>
  <property name="resource">/home/ryankelln/Documents/Projects/Active/Sound_Escapes/rehearsals/1/SoundEscapes_MacRehearsal1.mp3</property>
  <property name="audio_index">0</property>
  <property name="video_index">-1</property>
  <property name="mute_on_pause">0</property>
  <property name="mlt_service">avformat-novalidate</property>
  <property name="meta.media.nb_streams">1</property>
  <property name="meta.media.0.stream.type">audio</property>
  <property name="meta.media.0.codec.sample_fmt">fltp</property>
  <property name="meta.media.0.codec.sample_rate">48000</property>
  <property name="meta.media.0.codec.channels">2</property>
  <property name="meta.media.0.codec.name">mp3float</property>
  <property name="meta.media.0.codec.long_name">MP3 (MPEG audio layer 3)</property>
  <property name="meta.media.0.codec.bit_rate">191083</property>
  <property name="meta.attr.0.stream.encoder.markup">LAME3.100</property>
  <property name="seekable">1</property>
  <property name="kdenlive:clipname"/>
  <property name="kdenlive:folderid">-1</property>
  <property name="kdenlive:id">25</property>
  <property name="kdenlive:file_size">7781280</property>
  <property name="kdenlive:file_hash">9068d0ebc29c31607d2536dca469e9d4</property>
  <property name="kdenlive:audio_max">1</property>
  <property name="global_feed">1</property>
  <property name="xml">was here</property>
  <property name="set.test_audio">0</property>
  <property name="set.test_image">1</property>
 </producer>
 <playlist id="playlist2">
  <property name="kdenlive:audio_track">1</property>
  <blank length="00:00:07.000"/>
  <entry producer="producer146" in="00:00:00.000" out="00:07:11.767">
   <property name="kdenlive:id">31</property>
  </entry>
  <blank length="00:01:20.600"/>
  <entry producer="producer147" in="00:00:00.000" out="00:05:25.733">
   <property name="kdenlive:id">25</property>
  </entry>
 </playlist>
 <playlist id="playlist3"/>
 <tractor id="tractor1" in="00:00:00.000" out="00:14:05.133">
  <property name="kdenlive:audio_track">1</property>
  <property name="kdenlive:trackheight">69</property>
  <property name="kdenlive:timeline_active"/>
  <property name="kdenlive:collapsed">0</property>
  <property name="kdenlive:track_name">Audio 2</property>
  <property name="kdenlive:thumbs_format"/>
  <property name="kdenlive:audio_rec"/>
  <property name="kdenlive:locked_track">1</property>
  <track hide="video" producer="playlist2"/>
  <track hide="video" producer="playlist3"/>
  <filter id="filter10">
   <property name="window">75</property>
   <property name="max_gain">20dB</property>
   <property name="mlt_service">volume</property>
   <property name="internal_added">237</property>
   <property name="disable">1</property>
  </filter>
  <filter id="filter11">
   <property name="channel">-1</property>
   <property name="mlt_service">panner</property>
   <property name="internal_added">237</property>
   <property name="start">0.5</property>
   <property name="disable">1</property>
  </filter>
  <filter id="filter12">
   <property name="iec_scale">0</property>
   <property name="mlt_service">audiolevel</property>
   <property name="disable">1</property>
  </filter>
 </tractor>
 <producer id="producer148" in="00:00:00.000" out="00:07:10.800">
  <property name="length">12925</property>
  <property name="eof">pause</property>
  <property name="resource">content/stories/Sound Escapes Stories Comp_FINAL.mp3</property>
  <property name="audio_index">0</property>
  <property name="video_index">-1</property>
  <property name="mute_on_pause">0</property>
  <property name="mlt_service">avformat-novalidate</property>
  <property name="meta.media.nb_streams">1</property>
  <property name="meta.media.0.stream.type">audio</property>
  <property name="meta.media.0.codec.sample_fmt">fltp</property>
  <property name="meta.media.0.codec.sample_rate">48000</property>
  <property name="meta.media.0.codec.channels">2</property>
  <property name="meta.media.0.codec.name">mp3float</property>
  <property name="meta.media.0.codec.long_name">MP3 (MPEG audio layer 3)</property>
  <property name="meta.media.0.codec.bit_rate">256000</property>
  <property name="meta.attr.title.markup">Sound Escapes Stories Comp_FIN</property>
  <property name="meta.attr.date.markup">2021</property>
  <property name="meta.attr.track.markup">1</property>
  <property name="seekable">1</property>
  <property name="kdenlive:clipname"/>
  <property name="kdenlive:folderid">84</property>
  <property name="kdenlive:id">59</property>
  <property name="kdenlive:file_size">13786496</property>
  <property name="kdenlive:file_hash">ca57d4c0ba9462cdb9cad7801c186e91</property>
  <property name="kdenlive:audio_max">8</property>
  <property name="global_feed">1</property>
  <property name="xml">was here</property>
  <property name="set.test_audio">0</property>
  <property name="set.test_image">1</property>
 </producer>
 <producer id="producer149" in="00:00:00.000" out="00:00:15.333">
  <property name="length">461</property>
  <property name="eof">pause</property>
  <property name="resource">/home/ryankelln/Documents/Projects/Active/Sound_Escapes/Mac/stories/George Island.m4a</property>
  <property name="audio_index">0</property>
  <property name="video_index">-1</property>
  <property name="mute_on_pause">0</property>
  <property name="mlt_service">avformat-novalidate</property>
  <property name="meta.media.nb_streams">1</property>
  <property name="meta.media.0.stream.type">audio</property>
  <property name="meta.media.0.codec.sample_fmt">fltp</property>
  <property name="meta.media.0.codec.sample_rate">48000</property>
  <property name="meta.media.0.codec.channels">1</property>
  <property name="meta.media.0.codec.name">aac</property>
  <property name="meta.media.0.codec.long_name">AAC (Advanced Audio Coding)</property>
  <property name="meta.media.0.codec.bit_rate">65015</property>
  <property name="meta.attr.0.stream.creation_time.markup">2021-05-17T19:50:09.000000Z</property>
  <property name="meta.attr.0.stream.handler_name.markup">Core Media Audio</property>
  <property name="meta.attr.0.stream.vendor_id.markup">[0][0][0][0]</property>
  <property name="meta.attr.major_brand.markup">M4A </property>
  <property name="meta.attr.minor_version.markup">0</property>
  <property name="meta.attr.compatible_brands.markup">M4A isommp42</property>
  <property name="meta.attr.creation_time.markup">2021-05-17T19:50:08.000000Z</property>
  <property name="meta.attr.title.markup">George Island</property>
  <property name="meta.attr.voice-memo-uuid.markup">CC019AD0-12C1-46FB-82CB-60A825FC8D49</property>
  <property name="meta.attr.encoder.markup">com.apple.VoiceMemos (Maddy Rogersâ€™s iPhone (null))</property>
  <property name="seekable">1</property>
  <property name="kdenlive:clipname"/>
  <property name="kdenlive:folderid">-1</property>
  <property name="kdenlive:id">4</property>
  <property name="kdenlive:file_size">129257</property>
  <property name="kdenlive:file_hash">8ab2bdd3653329cc0a9ec2942aa8aec3</property>
  <property name="kdenlive:audio_max">6</property>
  <property name="global_feed">1</property>
  <property name="xml">was here</property>
  <property name="set.test_audio">0</property>
  <property name="set.test_image">1</property>
 </producer>
 <producer id="producer150" in="00:00:00.000" out="00:01:04.633">
  <property name="length">1940</property>
  <property name="eof">pause</property>
  <property name="resource">content/stories/summer_grass.m4a</property>
  <property name="audio_index">0</property>
  <property name="video_index">-1</property>
  <property name="mute_on_pause">0</property>
  <property name="mlt_service">avformat-novalidate</property>
  <property name="meta.media.nb_streams">1</property>
  <property name="meta.media.0.stream.type">audio</property>
  <property name="meta.media.0.codec.sample_fmt">fltp</property>
  <property name="meta.media.0.codec.sample_rate">48000</property>
  <property name="meta.media.0.codec.channels">1</property>
  <property name="meta.media.0.codec.name">aac</property>
  <property name="meta.media.0.codec.long_name">AAC (Advanced Audio Coding)</property>
  <property name="meta.media.0.codec.bit_rate">64606</property>
  <property name="meta.attr.0.stream.creation_time.markup">2021-05-17T23:59:40.000000Z</property>
  <property name="meta.attr.0.stream.handler_name.markup">Core Media Audio</property>
  <property name="meta.attr.major_brand.markup">M4A </property>
  <property name="meta.attr.minor_version.markup">0</property>
  <property name="meta.attr.compatible_brands.markup">M4A isommp42</property>
  <property name="meta.attr.creation_time.markup">2021-05-17T23:59:40.000000Z</property>
  <property name="meta.attr.title.markup">Spectrum Kate take 1</property>
  <property name="meta.attr.voice-memo-uuid.markup">9930D883-BAC5-45B7-8B9E-006E5DF71CF0</property>
  <property name="meta.attr.encoder.markup">com.apple.VoiceMemos (iPhone (null))</property>
  <property name="seekable">1</property>
  <property name="kdenlive:clipname">summer_grass.m4a</property>
  <property name="kdenlive:folderid">84</property>
  <property name="kdenlive:id">8</property>
  <property name="kdenlive:file_size">554059</property>
  <property name="kdenlive:audio_max">15</property>
  <property name="global_feed">1</property>
  <property name="kdenlive:file_hash">c1af9e059fcbfe6dc4417c2ddb55dc7a</property>
  <property name="xml">was here</property>
  <property name="set.test_audio">0</property>
  <property name="set.test_image">1</property>
 </producer>
 <playlist id="playlist4">
  <property name="kdenlive:audio_track">1</property>
  <blank length="00:02:06.733"/>
  <entry producer="producer148" in="00:01:59.733" out="00:03:20.000">
   <property name="kdenlive:id">59</property>
  </entry>
  <blank length="00:08:58.100"/>
  <entry producer="producer149" in="00:00:00.000" out="00:00:15.333">
   <property name="kdenlive:id">4</property>
  </entry>
  <blank length="00:00:03.433"/>
  <entry producer="producer150" in="00:00:00.000" out="00:01:04.633">
   <property name="kdenlive:id">8</property>
   <filter id="filter13">
    <property name="program">-25.3666</property>
    <property name="mlt_service">loudness</property>
    <property name="kdenlive_id">loudness</property>
    <property name="kdenlive:collapsed">0</property>
    <property name="results">L: -32.844997	R: 5.452121	P 0.122921</property>
   </filter>
  </entry>
 </playlist>
 <playlist id="playlist5"/>
 <tractor id="tractor2" in="00:00:00.000" out="00:13:48.567">
  <property name="kdenlive:audio_track">1</property>
  <property name="kdenlive:trackheight">69</property>
  <property name="kdenlive:timeline_active"/>
  <property name="kdenlive:collapsed">0</property>
  <property name="kdenlive:track_name">Audio 1</property>
  <property name="kdenlive:thumbs_format"/>
  <property name="kdenlive:audio_rec"/>
  <track hide="video" producer="playlist4"/>
  <track hide="video" producer="playlist5"/>
  <filter id="filter14">
   <property name="window">75</property>
   <property name="max_gain">20dB</property>
   <property name="level">0</property>
   <property name="mlt_service">volume</property>
   <property name="internal_added">237</property>
   <property name="disable">1</property>
  </filter>
  <filter id="filter15">
   <property name="channel">-1</property>
   <property name="mlt_service">panner</property>
   <property name="internal_added">237</property>
   <property name="start">0.5</property>
   <property name="disable">1</property>
  </filter>
  <filter id="filter16">
   <property name="iec_scale">0</property>
   <property name="mlt_service">audiolevel</property>
   <property name="disable">1</property>
  </filter>
 </tractor>
 <producer id="producer151" in="00:00:00.000" out="00:01:29.767">
  <property name="length">2694</property>
  <property name="eof">pause</property>
  <property name="resource">/home/ryankelln/.cache/kdenlive/proxy/8a45a6e6f82270aac1a382ea6d4dd9e7.mkv</property>
  <property name="audio_index">-1</property>
  <property name="video_index">0</property>
  <property name="mute_on_pause">0</property>
  <property name="mlt_service">avformat-novalidate</property>
  <property name="seekable">1</property>
  <property name="aspect_ratio">1</property>
  <property name="kdenlive:clipname">epic_clouds_slomo.mp4</property>
  <property name="kdenlive:folderid">102</property>
  <property name="kdenlive:id">92</property>
  <property name="kdenlive:file_size">18704803</property>
  <property name="kdenlive:file_hash">8a45a6e6f82270aac1a382ea6d4dd9e7</property>
  <property name="kdenlive:proxy">/home/ryankelln/.cache/kdenlive/proxy/8a45a6e6f82270aac1a382ea6d4dd9e7.mkv</property>
  <property name="kdenlive:originalurl">content/footage/epic_clouds_slomo.mp4</property>
  <property name="global_feed">1</property>
  <property name="kdenlive:original.mlt_type">mlt_producer</property>
  <property name="kdenlive:original.in">00:00:00.000</property>
  <property name="kdenlive:original.out">00:01:29.767</property>
  <property name="kdenlive:original.length">2694</property>
  <property name="kdenlive:original.eof">pause</property>
  <property name="kdenlive:original.resource">content/footage/epic_clouds_slomo.mp4</property>
  <property name="kdenlive:original.audio_index">-1</property>
  <property name="kdenlive:original.video_index">0</property>
  <property name="kdenlive:original.mute_on_pause">0</property>
  <property name="kdenlive:original.mlt_service">avformat-novalidate</property>
  <property name="kdenlive:original.seekable">1</property>
  <property name="kdenlive:original.aspect_ratio">1</property>
  <property name="kdenlive:original.kdenlive:folderid">102</property>
  <property name="kdenlive:original.kdenlive:id">92</property>
  <property name="kdenlive:original.kdenlive:file_size">18704803</property>
  <property name="kdenlive:original.kdenlive:file_hash">8a45a6e6f82270aac1a382ea6d4dd9e7</property>
  <property name="kdenlive:original.global_feed">1</property>
  <property name="kdenlive:original.meta.media.nb_streams">1</property>
  <property name="kdenlive:original.meta.media.0.stream.type">video</property>
  <property name="kdenlive:original.meta.media.0.stream.frame_rate">30</property>
  <property name="kdenlive:original.meta.media.0.stream.sample_aspect_ratio">1</property>
  <property name="kdenlive:original.meta.media.0.codec.width">1920</property>
  <property name="kdenlive:original.meta.media.0.codec.height">1080</property>
  <property name="kdenlive:original.meta.media.0.codec.rotate">0</property>
  <property name="kdenlive:original.meta.media.0.codec.frame_rate">30</property>
  <property name="kdenlive:original.meta.media.0.codec.pix_fmt">yuv444p</property>
  <property name="kdenlive:original.meta.media.0.codec.sample_aspect_ratio">1</property>
  <property name="kdenlive:original.meta.media.0.codec.colorspace">709</property>
  <property name="kdenlive:original.meta.media.0.codec.name">h264</property>
  <property name="kdenlive:original.meta.media.0.codec.long_name">H.264 / AVC / MPEG-4 AVC / MPEG-4 part 10</property>
  <property name="kdenlive:original.meta.media.0.codec.bit_rate">1663395</property>
  <property name="kdenlive:original.meta.attr.0.stream.handler_name.markup">VideoHandler</property>
  <property name="kdenlive:original.meta.attr.major_brand.markup">isom</property>
  <property name="kdenlive:original.meta.attr.minor_version.markup">512</property>
  <property name="kdenlive:original.meta.attr.compatible_brands.markup">isomiso2avc1mp41</property>
  <property name="kdenlive:original.meta.attr.encoder.markup">Lavf58.45.100</property>
  <property name="kdenlive:original.width">1920</property>
  <property name="kdenlive:original.height">1080</property>
  <property name="kdenlive:original.meta.media.sample_aspect_num">1</property>
  <property name="kdenlive:original.meta.media.sample_aspect_den">1</property>
  <property name="kdenlive:original.meta.media.frame_rate_num">30</property>
  <property name="kdenlive:original.meta.media.frame_rate_den">1</property>
  <property name="kdenlive:original.meta.media.colorspace">709</property>
  <property name="kdenlive:original.meta.media.color_trc">2</property>
  <property name="kdenlive:original.meta.media.width">1920</property>
  <property name="kdenlive:original.meta.media.height">1080</property>
  <property name="kdenlive:original.meta.media.color_range">mpeg</property>
  <property name="kdenlive:original.meta.media.top_field_first">0</property>
  <property name="kdenlive:original.meta.media.progressive">1</property>
  <property name="kdenlive:original.root">/</property>
  <property name="kdenlive:original.backup">1</property>
  <property name="xml">was here</property>
  <property name="meta.media.nb_streams">1</property>
  <property name="meta.media.0.stream.type">video</property>
  <property name="meta.media.0.stream.frame_rate">30</property>
  <property name="meta.media.0.stream.sample_aspect_ratio">1</property>
  <property name="meta.media.0.codec.width">960</property>
  <property name="meta.media.0.codec.height">540</property>
  <property name="meta.media.0.codec.rotate">0</property>
  <property name="meta.media.0.codec.frame_rate">1000</property>
  <property name="meta.media.0.codec.pix_fmt">yuvj444p</property>
  <property name="meta.media.0.codec.sample_aspect_ratio">1</property>
  <property name="meta.media.0.codec.colorspace">601</property>
  <property name="meta.media.0.codec.name">mjpeg</property>
  <property name="meta.media.0.codec.long_name">MJPEG (Motion JPEG)</property>
  <property name="meta.media.0.codec.bit_rate">0</property>
  <property name="meta.attr.0.stream.HANDLER_NAME.markup">VideoHandler</property>
  <property name="meta.attr.0.stream.ENCODER.markup">Lavc58.91.100 mjpeg</property>
  <property name="meta.attr.0.stream.DURATION.markup">00:01:29.800000000</property>
  <property name="meta.attr.COMPATIBLE_BRANDS.markup">isomiso2avc1mp41</property>
  <property name="meta.attr.MAJOR_BRAND.markup">isom</property>
  <property name="meta.attr.MINOR_VERSION.markup">512</property>
  <property name="meta.attr.ENCODER.markup">Lavf58.45.100</property>
  <property name="meta.media.sample_aspect_num">1</property>
  <property name="meta.media.sample_aspect_den">1</property>
  <property name="meta.media.frame_rate_num">30</property>
  <property name="meta.media.frame_rate_den">1</property>
  <property name="meta.media.colorspace">601</property>
  <property name="meta.media.color_trc">2</property>
  <property name="meta.media.width">960</property>
  <property name="meta.media.height">540</property>
  <property name="meta.media.color_range">full</property>
  <property name="set.test_audio">1</property>
  <property name="set.test_image">0</property>
  <property name="meta.media.top_field_first">0</property>
  <property name="meta.media.progressive">1</property>
 </producer>
 <producer id="producer152" in="00:00:00.000" out="00:00:21.167">
  <property name="length">636</property>
  <property name="eof">pause</property>
  <property name="resource">-4.237288:/home/ryankelln/.cache/kdenlive/proxy/8a45a6e6f82270aac1a382ea6d4dd9e7.mkv</property>
  <property name="aspect_ratio">1</property>
  <property name="meta.media.nb_streams">1</property>
  <property name="meta.media.0.stream.type">video</property>
  <property name="meta.media.0.stream.frame_rate">30</property>
  <property name="meta.media.0.stream.sample_aspect_ratio">1</property>
  <property name="meta.media.0.codec.width">960</property>
  <property name="meta.media.0.codec.height">540</property>
  <property name="meta.media.0.codec.rotate">0</property>
  <property name="meta.media.0.codec.frame_rate">1000</property>
  <property name="meta.media.0.codec.pix_fmt">yuvj444p</property>
  <property name="meta.media.0.codec.sample_aspect_ratio">1</property>
  <property name="meta.media.0.codec.colorspace">601</property>
  <property name="meta.media.0.codec.name">mjpeg</property>
  <property name="meta.media.0.codec.long_name">MJPEG (Motion JPEG)</property>
  <property name="meta.media.0.codec.bit_rate">0</property>
  <property name="meta.attr.0.stream.HANDLER_NAME.markup">VideoHandler</property>
  <property name="meta.attr.0.stream.ENCODER.markup">Lavc58.91.100 mjpeg</property>
  <property name="meta.attr.0.stream.DURATION.markup">00:01:29.800000000</property>
  <property name="meta.attr.COMPATIBLE_BRANDS.markup">isomiso2avc1mp41</property>
  <property name="meta.attr.MAJOR_BRAND.markup">isom</property>
  <property name="meta.attr.MINOR_VERSION.markup">512</property>
  <property name="meta.attr.ENCODER.markup">Lavf58.45.100</property>
  <property name="seekable">1</property>
  <property name="meta.media.sample_aspect_num">1</property>
  <property name="meta.media.sample_aspect_den">1</property>
  <property name="audio_index">-1</property>
  <property name="video_index">0</property>
  <property name="mute_on_pause">1</property>
  <property name="warp_speed">-4.23729</property>
  <property name="warp_resource">/home/ryankelln/.cache/kdenlive/proxy/8a45a6e6f82270aac1a382ea6d4dd9e7.mkv</property>
  <property name="mlt_service">timewarp</property>
  <property name="kdenlive:proxy">/home/ryankelln/.cache/kdenlive/proxy/8a45a6e6f82270aac1a382ea6d4dd9e7.mkv</property>
  <property name="kdenlive:originalurl">content/footage/epic_clouds_slomo.mp4</property>
  <property name="set.test_audio">1</property>
  <property name="set.test_image">0</property>
  <property name="kdenlive:id">92</property>
  <property name="warp_pitch">0</property>
  <property name="meta.media.frame_rate_num">30</property>
  <property name="meta.media.frame_rate_den">1</property>
  <property name="meta.media.colorspace">601</property>
  <property name="meta.media.color_trc">2</property>
  <property name="meta.media.width">960</property>
  <property name="meta.media.height">540</property>
  <property name="meta.media.color_range">full</property>
  <property name="meta.media.top_field_first">0</property>
  <property name="meta.media.progressive">1</property>
 </producer>
 <producer id="producer153" in="00:00:00.000" out="00:00:17.933">
  <property name="length">539</property>
  <property name="eof">pause</property>
  <property name="resource">5.000000:/home/ryankelln/.cache/kdenlive/proxy/8a45a6e6f82270aac1a382ea6d4dd9e7.mkv</property>
  <property name="aspect_ratio">1</property>
  <property name="meta.media.nb_streams">1</property>
  <property name="meta.media.0.stream.type">video</property>
  <property name="meta.media.0.stream.frame_rate">30</property>
  <property name="meta.media.0.stream.sample_aspect_ratio">1</property>
  <property name="meta.media.0.codec.width">960</property>
  <property name="meta.media.0.codec.height">540</property>
  <property name="meta.media.0.codec.rotate">0</property>
  <property name="meta.media.0.codec.frame_rate">1000</property>
  <property name="meta.media.0.codec.pix_fmt">yuvj444p</property>
  <property name="meta.media.0.codec.sample_aspect_ratio">1</property>
  <property name="meta.media.0.codec.colorspace">601</property>
  <property name="meta.media.0.codec.name">mjpeg</property>
  <property name="meta.media.0.codec.long_name">MJPEG (Motion JPEG)</property>
  <property name="meta.media.0.codec.bit_rate">0</property>
  <property name="meta.attr.0.stream.HANDLER_NAME.markup">VideoHandler</property>
  <property name="meta.attr.0.stream.ENCODER.markup">Lavc58.91.100 mjpeg</property>
  <property name="meta.attr.0.stream.DURATION.markup">00:01:29.800000000</property>
  <property name="meta.attr.COMPATIBLE_BRANDS.markup">isomiso2avc1mp41</property>
  <property name="meta.attr.MAJOR_BRAND.markup">isom</property>
  <property name="meta.attr.MINOR_VERSION.markup">512</property>
  <property name="meta.attr.ENCODER.markup">Lavf58.45.100</property>
  <property name="seekable">1</property>
  <property name="meta.media.sample_aspect_num">1</property>
  <property name="meta.media.sample_aspect_den">1</property>
  <property name="audio_index">-1</property>
  <property name="video_index">0</property>
  <property name="mute_on_pause">1</property>
  <property name="warp_speed">5</property>
  <property name="warp_resource">/home/ryankelln/.cache/kdenlive/proxy/8a45a6e6f82270aac1a382ea6d4dd9e7.mkv</property>
  <property name="mlt_service">timewarp</property>
  <property name="kdenlive:proxy">/home/ryankelln/.cache/kdenlive/proxy/8a45a6e6f82270aac1a382ea6d4dd9e7.mkv</property>
  <property name="kdenlive:originalurl">content/footage/epic_clouds_slomo.mp4</property>
  <property name="set.test_audio">1</property>
  <property name="set.test_image">0</property>
  <property name="kdenlive:id">92</property>
  <property name="warp_pitch">0</property>
  <property name="meta.media.frame_rate_num">30</property>
  <property name="meta.media.frame_rate_den">1</property>
  <property name="meta.media.colorspace">601</property>
  <property name="meta.media.color_trc">2</property>
  <property name="meta.media.width">960</property>
  <property name="meta.media.height">540</property>
  <property name="meta.media.color_range">full</property>
  <property name="meta.media.top_field_first">0</property>
  <property name="meta.media.progressive">1</property>
 </producer>
 <producer id="producer154" in="00:00:00.000" out="00:00:44.867">
  <property name="length">1347</property>
  <property name="eof">pause</property>
  <property name="resource">2.000000:/home/ryankelln/.cache/kdenlive/proxy/8a45a6e6f82270aac1a382ea6d4dd9e7.mkv</property>
  <property name="aspect_ratio">1</property>
  <property name="meta.media.nb_streams">1</property>
  <property name="meta.media.0.stream.type">video</property>
  <property name="meta.media.0.stream.frame_rate">30</property>
  <property name="meta.media.0.stream.sample_aspect_ratio">1</property>
  <property name="meta.media.0.codec.width">960</property>
  <property name="meta.media.0.codec.height">540</property>
  <property name="meta.media.0.codec.rotate">0</property>
  <property name="meta.media.0.codec.frame_rate">1000</property>
  <property name="meta.media.0.codec.pix_fmt">yuvj444p</property>
  <property name="meta.media.0.codec.sample_aspect_ratio">1</property>
  <property name="meta.media.0.codec.colorspace">601</property>
  <property name="meta.media.0.codec.name">mjpeg</property>
  <property name="meta.media.0.codec.long_name">MJPEG (Motion JPEG)</property>
  <property name="meta.media.0.codec.bit_rate">0</property>
  <property name="meta.attr.0.stream.HANDLER_NAME.markup">VideoHandler</property>
  <property name="meta.attr.0.stream.ENCODER.markup">Lavc58.91.100 mjpeg</property>
  <property name="meta.attr.0.stream.DURATION.markup">00:01:29.800000000</property>
  <property name="meta.attr.COMPATIBLE_BRANDS.markup">isomiso2avc1mp41</property>
  <property name="meta.attr.MAJOR_BRAND.markup">isom</property>
  <property name="meta.attr.MINOR_VERSION.markup">512</property>
  <property name="meta.attr.ENCODER.markup">Lavf58.45.100</property>
  <property name="seekable">1</property>
  <property name="meta.media.sample_aspect_num">1</property>
  <property name="meta.media.sample_aspect_den">1</property>
  <property name="audio_index">-1</property>
  <property name="video_index">0</property>
  <property name="mute_on_pause">1</property>
  <property name="warp_speed">2</property>
  <property name="warp_resource">/home/ryankelln/.cache/kdenlive/proxy/8a45a6e6f82270aac1a382ea6d4dd9e7.mkv</property>
  <property name="mlt_service">timewarp</property>
  <property name="kdenlive:proxy">/home/ryankelln/.cache/kdenlive/proxy/8a45a6e6f82270aac1a382ea6d4dd9e7.mkv</property>
  <property name="kdenlive:originalurl">content/footage/epic_clouds_slomo.mp4</property>
  <property name="set.test_audio">1</property>
  <property name="set.test_image">0</property>
  <property name="kdenlive:id">92</property>
  <property name="warp_pitch">0</property>
  <property name="meta.media.frame_rate_num">30</property>
  <property name="meta.media.frame_rate_den">1</property>
  <property name="meta.media.colorspace">601</property>
  <property name="meta.media.color_trc">2</property>
  <property name="meta.media.width">960</property>
  <property name="meta.media.height">540</property>
  <property name="meta.media.color_range">full</property>
  <property name="meta.media.top_field_first">0</property>
  <property name="meta.media.progressive">1</property>
 </producer>
 <producer id="producer155" in="00:00:00.000" out="00:00:44.867">
  <property name="length">1347</property>
  <property name="eof">pause</property>
  <property name="resource">2.000000:/home/ryankelln/.cache/kdenlive/proxy/8a45a6e6f82270aac1a382ea6d4dd9e7.mkv</property>
  <property name="aspect_ratio">1</property>
  <property name="meta.media.nb_streams">1</property>
  <property name="meta.media.0.stream.type">video</property>
  <property name="meta.media.0.stream.frame_rate">30</property>
  <property name="meta.media.0.stream.sample_aspect_ratio">1</property>
  <property name="meta.media.0.codec.width">960</property>
  <property name="meta.media.0.codec.height">540</property>
  <property name="meta.media.0.codec.rotate">0</property>
  <property name="meta.media.0.codec.frame_rate">1000</property>
  <property name="meta.media.0.codec.pix_fmt">yuvj444p</property>
  <property name="meta.media.0.codec.sample_aspect_ratio">1</property>
  <property name="meta.media.0.codec.colorspace">601</property>
  <property name="meta.media.0.codec.name">mjpeg</property>
  <property name="meta.media.0.codec.long_name">MJPEG (Motion JPEG)</property>
  <property name="meta.media.0.codec.bit_rate">0</property>
  <property name="meta.attr.0.stream.HANDLER_NAME.markup">VideoHandler</property>
  <property name="meta.attr.0.stream.ENCODER.markup">Lavc58.91.100 mjpeg</property>
  <property name="meta.attr.0.stream.DURATION.markup">00:01:29.800000000</property>
  <property name="meta.attr.COMPATIBLE_BRANDS.markup">isomiso2avc1mp41</property>
  <property name="meta.attr.MAJOR_BRAND.markup">isom</property>
  <property name="meta.attr.MINOR_VERSION.markup">512</property>
  <property name="meta.attr.ENCODER.markup">Lavf58.45.100</property>
  <property name="seekable">1</property>
  <property name="meta.media.sample_aspect_num">1</property>
  <property name="meta.media.sample_aspect_den">1</property>
  <property name="audio_index">-1</property>
  <property name="video_index">0</property>
  <property name="mute_on_pause">1</property>
  <property name="warp_speed">2</property>
  <property name="warp_resource">/home/ryankelln/.cache/kdenlive/proxy/8a45a6e6f82270aac1a382ea6d4dd9e7.mkv</property>
  <property name="mlt_service">timewarp</property>
  <property name="kdenlive:proxy">/home/ryankelln/.cache/kdenlive/proxy/8a45a6e6f82270aac1a382ea6d4dd9e7.mkv</property>
  <property name="kdenlive:originalurl">content/footage/epic_clouds_slomo.mp4</property>
  <property name="set.test_audio">1</property>
  <property name="set.test_image">0</property>
  <property name="kdenlive:id">92</property>
  <property name="warp_pitch">0</property>
  <property name="meta.media.frame_rate_num">30</property>
  <property name="meta.media.frame_rate_den">1</property>
  <property name="meta.media.colorspace">601</property>
  <property name="meta.media.color_trc">2</property>
  <property name="meta.media.width">960</property>
  <property name="meta.media.height">540</property>
  <property name="meta.media.color_range">full</property>
  <property name="meta.media.top_field_first">0</property>
  <property name="meta.media.progressive">1</property>
 </producer>
 <producer id="producer156" in="00:00:00.000" out="00:00:44.867">
  <property name="length">1347</property>
  <property name="eof">pause</property>
  <property name="resource">2.000000:/home/ryankelln/.cache/kdenlive/proxy/8a45a6e6f82270aac1a382ea6d4dd9e7.mkv</property>
  <property name="aspect_ratio">1</property>
  <property name="meta.media.nb_streams">1</property>
  <property name="meta.media.0.stream.type">video</property>
  <property name="meta.media.0.stream.frame_rate">30</property>
  <property name="meta.media.0.stream.sample_aspect_ratio">1</property>
  <property name="meta.media.0.codec.width">960</property>
  <property name="meta.media.0.codec.height">540</property>
  <property name="meta.media.0.codec.rotate">0</property>
  <property name="meta.media.0.codec.frame_rate">1000</property>
  <property name="meta.media.0.codec.pix_fmt">yuvj444p</property>
  <property name="meta.media.0.codec.sample_aspect_ratio">1</property>
  <property name="meta.media.0.codec.colorspace">601</property>
  <property name="meta.media.0.codec.name">mjpeg</property>
  <property name="meta.media.0.codec.long_name">MJPEG (Motion JPEG)</property>
  <property name="meta.media.0.codec.bit_rate">0</property>
  <property name="meta.attr.0.stream.HANDLER_NAME.markup">VideoHandler</property>
  <property name="meta.attr.0.stream.ENCODER.markup">Lavc58.91.100 mjpeg</property>
  <property name="meta.attr.0.stream.DURATION.markup">00:01:29.800000000</property>
  <property name="meta.attr.COMPATIBLE_BRANDS.markup">isomiso2avc1mp41</property>
  <property name="meta.attr.MAJOR_BRAND.markup">isom</property>
  <property name="meta.attr.MINOR_VERSION.markup">512</property>
  <property name="meta.attr.ENCODER.markup">Lavf58.45.100</property>
  <property name="seekable">1</property>
  <property name="meta.media.sample_aspect_num">1</property>
  <property name="meta.media.sample_aspect_den">1</property>
  <property name="audio_index">-1</property>
  <property name="video_index">0</property>
  <property name="mute_on_pause">1</property>
  <property name="warp_speed">2</property>
  <property name="warp_resource">/home/ryankelln/.cache/kdenlive/proxy/8a45a6e6f82270aac1a382ea6d4dd9e7.mkv</property>
  <property name="mlt_service">timewarp</property>
  <property name="kdenlive:proxy">/home/ryankelln/.cache/kdenlive/proxy/8a45a6e6f82270aac1a382ea6d4dd9e7.mkv</property>
  <property name="kdenlive:originalurl">content/footage/epic_clouds_slomo.mp4</property>
  <property name="set.test_audio">1</property>
  <property name="set.test_image">0</property>
  <property name="kdenlive:id">92</property>
  <property name="warp_pitch">0</property>
  <property name="meta.media.frame_rate_num">30</property>
  <property name="meta.media.frame_rate_den">1</property>
  <property name="meta.media.colorspace">601</property>
  <property name="meta.media.color_trc">2</property>
  <property name="meta.media.width">960</property>
  <property name="meta.media.height">540</property>
  <property name="meta.media.color_range">full</property>
  <property name="meta.media.top_field_first">0</property>
  <property name="meta.media.progressive">1</property>
 </producer>
 <producer id="producer157" in="00:00:00.000" out="00:00:17.933">
  <property name="length">539</property>
  <property name="eof">pause</property>
  <property name="resource">5.000000:/home/ryankelln/.cache/kdenlive/proxy/8a45a6e6f82270aac1a382ea6d4dd9e7.mkv</property>
  <property name="aspect_ratio">1</property>
  <property name="meta.media.nb_streams">1</property>
  <property name="meta.media.0.stream.type">video</property>
  <property name="meta.media.0.stream.frame_rate">30</property>
  <property name="meta.media.0.stream.sample_aspect_ratio">1</property>
  <property name="meta.media.0.codec.width">960</property>
  <property name="meta.media.0.codec.height">540</property>
  <property name="meta.media.0.codec.rotate">0</property>
  <property name="meta.media.0.codec.frame_rate">1000</property>
  <property name="meta.media.0.codec.pix_fmt">yuvj444p</property>
  <property name="meta.media.0.codec.sample_aspect_ratio">1</property>
  <property name="meta.media.0.codec.colorspace">601</property>
  <property name="meta.media.0.codec.name">mjpeg</property>
  <property name="meta.media.0.codec.long_name">MJPEG (Motion JPEG)</property>
  <property name="meta.media.0.codec.bit_rate">0</property>
  <property name="meta.attr.0.stream.HANDLER_NAME.markup">VideoHandler</property>
  <property name="meta.attr.0.stream.ENCODER.markup">Lavc58.91.100 mjpeg</property>
  <property name="meta.attr.0.stream.DURATION.markup">00:01:29.800000000</property>
  <property name="meta.attr.COMPATIBLE_BRANDS.markup">isomiso2avc1mp41</property>
  <property name="meta.attr.MAJOR_BRAND.markup">isom</property>
  <property name="meta.attr.MINOR_VERSION.markup">512</property>
  <property name="meta.attr.ENCODER.markup">Lavf58.45.100</property>
  <property name="seekable">1</property>
  <property name="meta.media.sample_aspect_num">1</property>
  <property name="meta.media.sample_aspect_den">1</property>
  <property name="audio_index">-1</property>
  <property name="video_index">0</property>
  <property name="mute_on_pause">1</property>
  <property name="warp_speed">5</property>
  <property name="warp_resource">/home/ryankelln/.cache/kdenlive/proxy/8a45a6e6f82270aac1a382ea6d4dd9e7.mkv</property>
  <property name="mlt_service">timewarp</property>
  <property name="kdenlive:proxy">/home/ryankelln/.cache/kdenlive/proxy/8a45a6e6f82270aac1a382ea6d4dd9e7.mkv</property>
  <property name="kdenlive:originalurl">content/footage/epic_clouds_slomo.mp4</property>
  <property name="set.test_audio">1</property>
  <property name="set.test_image">0</property>
  <property name="kdenlive:id">92</property>
  <property name="warp_pitch">0</property>
  <property name="meta.media.frame_rate_num">30</property>
  <property name="meta.media.frame_rate_den">1</property>
  <property name="meta.media.colorspace">601</property>
  <property name="meta.media.color_trc">2</property>
  <property name="meta.media.width">960</property>
  <property name="meta.media.height">540</property>
  <property name="meta.media.color_range">full</property>
  <property name="meta.media.top_field_first">0</property>
  <property name="meta.media.progressive">1</property>
 </producer>
 <producer id="producer158" in="00:00:00.000" out="00:00:14.933">
  <property name="length">449</property>
  <property name="eof">pause</property>
  <property name="resource">6.000000:/home/ryankelln/.cache/kdenlive/proxy/8a45a6e6f82270aac1a382ea6d4dd9e7.mkv</property>
  <property name="aspect_ratio">1</property>
  <property name="meta.media.nb_streams">1</property>
  <property name="meta.media.0.stream.type">video</property>
  <property name="meta.media.0.stream.frame_rate">30</property>
  <property name="meta.media.0.stream.sample_aspect_ratio">1</property>
  <property name="meta.media.0.codec.width">960</property>
  <property name="meta.media.0.codec.height">540</property>
  <property name="meta.media.0.codec.rotate">0</property>
  <property name="meta.media.0.codec.frame_rate">1000</property>
  <property name="meta.media.0.codec.pix_fmt">yuvj444p</property>
  <property name="meta.media.0.codec.sample_aspect_ratio">1</property>
  <property name="meta.media.0.codec.colorspace">601</property>
  <property name="meta.media.0.codec.name">mjpeg</property>
  <property name="meta.media.0.codec.long_name">MJPEG (Motion JPEG)</property>
  <property name="meta.media.0.codec.bit_rate">0</property>
  <property name="meta.attr.0.stream.HANDLER_NAME.markup">VideoHandler</property>
  <property name="meta.attr.0.stream.ENCODER.markup">Lavc58.91.100 mjpeg</property>
  <property name="meta.attr.0.stream.DURATION.markup">00:01:29.800000000</property>
  <property name="meta.attr.COMPATIBLE_BRANDS.markup">isomiso2avc1mp41</property>
  <property name="meta.attr.MAJOR_BRAND.markup">isom</property>
  <property name="meta.attr.MINOR_VERSION.markup">512</property>
  <property name="meta.attr.ENCODER.markup">Lavf58.45.100</property>
  <property name="seekable">1</property>
  <property name="meta.media.sample_aspect_num">1</property>
  <property name="meta.media.sample_aspect_den">1</property>
  <property name="audio_index">-1</property>
  <property name="video_index">0</property>
  <property name="mute_on_pause">1</property>
  <property name="warp_speed">6</property>
  <property name="warp_resource">/home/ryankelln/.cache/kdenlive/proxy/8a45a6e6f82270aac1a382ea6d4dd9e7.mkv</property>
  <property name="mlt_service">timewarp</property>
  <property name="kdenlive:proxy">/home/ryankelln/.cache/kdenlive/proxy/8a45a6e6f82270aac1a382ea6d4dd9e7.mkv</property>
  <property name="kdenlive:originalurl">content/footage/epic_clouds_slomo.mp4</property>
  <property name="set.test_audio">1</property>
  <property name="set.test_image">0</property>
  <property name="kdenlive:id">92</property>
  <property name="warp_pitch">0</property>
  <property name="meta.media.frame_rate_num">30</property>
  <property name="meta.media.frame_rate_den">1</property>
  <property name="meta.media.colorspace">601</property>
  <property name="meta.media.color_trc">2</property>
  <property name="meta.media.width">960</property>
  <property name="meta.media.height">540</property>
  <property name="meta.media.color_range">full</property>
  <property name="meta.media.top_field_first">0</property>
  <property name="meta.media.progressive">1</property>
 </producer>
 <producer id="producer159" in="00:00:00.000" out="00:00:44.867">
  <property name="length">1347</property>
  <property name="eof">pause</property>
  <property name="resource">2.000000:/home/ryankelln/.cache/kdenlive/proxy/8a45a6e6f82270aac1a382ea6d4dd9e7.mkv</property>
  <property name="aspect_ratio">1</property>
  <property name="meta.media.nb_streams">1</property>
  <property name="meta.media.0.stream.type">video</property>
  <property name="meta.media.0.stream.frame_rate">30</property>
  <property name="meta.media.0.stream.sample_aspect_ratio">1</property>
  <property name="meta.media.0.codec.width">960</property>
  <property name="meta.media.0.codec.height">540</property>
  <property name="meta.media.0.codec.rotate">0</property>
  <property name="meta.media.0.codec.frame_rate">1000</property>
  <property name="meta.media.0.codec.pix_fmt">yuvj444p</property>
  <property name="meta.media.0.codec.sample_aspect_ratio">1</property>
  <property name="meta.media.0.codec.colorspace">601</property>
  <property name="meta.media.0.codec.name">mjpeg</property>
  <property name="meta.media.0.codec.long_name">MJPEG (Motion JPEG)</property>
  <property name="meta.media.0.codec.bit_rate">0</property>
  <property name="meta.attr.0.stream.HANDLER_NAME.markup">VideoHandler</property>
  <property name="meta.attr.0.stream.ENCODER.markup">Lavc58.91.100 mjpeg</property>
  <property name="meta.attr.0.stream.DURATION.markup">00:01:29.800000000</property>
  <property name="meta.attr.COMPATIBLE_BRANDS.markup">isomiso2avc1mp41</property>
  <property name="meta.attr.MAJOR_BRAND.markup">isom</property>
  <property name="meta.attr.MINOR_VERSION.markup">512</property>
  <property name="meta.attr.ENCODER.markup">Lavf58.45.100</property>
  <property name="seekable">1</property>
  <property name="meta.media.sample_aspect_num">1</property>
  <property name="meta.media.sample_aspect_den">1</property>
  <property name="audio_index">-1</property>
  <property name="video_index">0</property>
  <property name="mute_on_pause">1</property>
  <property name="warp_speed">2</property>
  <property name="warp_resource">/home/ryankelln/.cache/kdenlive/proxy/8a45a6e6f82270aac1a382ea6d4dd9e7.mkv</property>
  <property name="mlt_service">timewarp</property>
  <property name="kdenlive:proxy">/home/ryankelln/.cache/kdenlive/proxy/8a45a6e6f82270aac1a382ea6d4dd9e7.mkv</property>
  <property name="kdenlive:originalurl">content/footage/epic_clouds_slomo.mp4</property>
  <property name="set.test_audio">1</property>
  <property name="set.test_image">0</property>
  <property name="kdenlive:id">92</property>
  <property name="warp_pitch">0</property>
  <property name="meta.media.frame_rate_num">30</property>
  <property name="meta.media.frame_rate_den">1</property>
  <property name="meta.media.colorspace">601</property>
  <property name="meta.media.color_trc">2</property>
  <property name="meta.media.width">960</property>
  <property name="meta.media.height">540</property>
  <property name="meta.media.color_range">full</property>
  <property name="meta.media.top_field_first">0</property>
  <property name="meta.media.progressive">1</property>
 </producer>
 <producer id="producer160" in="00:00:00.000" out="00:00:44.867">
  <property name="length">1347</property>
  <property name="eof">pause</property>
  <property name="resource">-2.000000:/home/ryankelln/.cache/kdenlive/proxy/8a45a6e6f82270aac1a382ea6d4dd9e7.mkv</property>
  <property name="aspect_ratio">1</property>
  <property name="meta.media.nb_streams">1</property>
  <property name="meta.media.0.stream.type">video</property>
  <property name="meta.media.0.stream.frame_rate">30</property>
  <property name="meta.media.0.stream.sample_aspect_ratio">1</property>
  <property name="meta.media.0.codec.width">960</property>
  <property name="meta.media.0.codec.height">540</property>
  <property name="meta.media.0.codec.rotate">0</property>
  <property name="meta.media.0.codec.frame_rate">1000</property>
  <property name="meta.media.0.codec.pix_fmt">yuvj444p</property>
  <property name="meta.media.0.codec.sample_aspect_ratio">1</property>
  <property name="meta.media.0.codec.colorspace">601</property>
  <property name="meta.media.0.codec.name">mjpeg</property>
  <property name="meta.media.0.codec.long_name">MJPEG (Motion JPEG)</property>
  <property name="meta.media.0.codec.bit_rate">0</property>
  <property name="meta.attr.0.stream.HANDLER_NAME.markup">VideoHandler</property>
  <property name="meta.attr.0.stream.ENCODER.markup">Lavc58.91.100 mjpeg</property>
  <property name="meta.attr.0.stream.DURATION.markup">00:01:29.800000000</property>
  <property name="meta.attr.COMPATIBLE_BRANDS.markup">isomiso2avc1mp41</property>
  <property name="meta.attr.MAJOR_BRAND.markup">isom</property>
  <property name="meta.attr.MINOR_VERSION.markup">512</property>
  <property name="meta.attr.ENCODER.markup">Lavf58.45.100</property>
  <property name="seekable">1</property>
  <property name="meta.media.sample_aspect_num">1</property>
  <property name="meta.media.sample_aspect_den">1</property>
  <property name="audio_index">-1</property>
  <property name="video_index">0</property>
  <property name="mute_on_pause">1</property>
  <property name="warp_speed">-2</property>
  <property name="warp_resource">/home/ryankelln/.cache/kdenlive/proxy/8a45a6e6f82270aac1a382ea6d4dd9e7.mkv</property>
  <property name="mlt_service">timewarp</property>
  <property name="kdenlive:proxy">/home/ryankelln/.cache/kdenlive/proxy/8a45a6e6f82270aac1a382ea6d4dd9e7.mkv</property>
  <property name="kdenlive:originalurl">content/footage/epic_clouds_slomo.mp4</property>
  <property name="set.test_audio">1</property>
  <property name="set.test_image">0</property>
  <property name="kdenlive:id">92</property>
  <property name="warp_pitch">0</property>
  <property name="meta.media.frame_rate_num">30</property>
  <property name="meta.media.frame_rate_den">1</property>
  <property name="meta.media.colorspace">601</property>
  <property name="meta.media.color_trc">2</property>
  <property name="meta.media.width">960</property>
  <property name="meta.media.height">540</property>
  <property name="meta.media.color_range">full</property>
  <property name="meta.media.top_field_first">0</property>
  <property name="meta.media.progressive">1</property>
 </producer>
 <producer id="producer161" in="00:00:00.000" out="00:00:44.867">
  <property name="length">1347</property>
  <property name="eof">pause</property>
  <property name="resource">2.000000:/home/ryankelln/.cache/kdenlive/proxy/8a45a6e6f82270aac1a382ea6d4dd9e7.mkv</property>
  <property name="aspect_ratio">1</property>
  <property name="meta.media.nb_streams">1</property>
  <property name="meta.media.0.stream.type">video</property>
  <property name="meta.media.0.stream.frame_rate">30</property>
  <property name="meta.media.0.stream.sample_aspect_ratio">1</property>
  <property name="meta.media.0.codec.width">960</property>
  <property name="meta.media.0.codec.height">540</property>
  <property name="meta.media.0.codec.rotate">0</property>
  <property name="meta.media.0.codec.frame_rate">1000</property>
  <property name="meta.media.0.codec.pix_fmt">yuvj444p</property>
  <property name="meta.media.0.codec.sample_aspect_ratio">1</property>
  <property name="meta.media.0.codec.colorspace">601</property>
  <property name="meta.media.0.codec.name">mjpeg</property>
  <property name="meta.media.0.codec.long_name">MJPEG (Motion JPEG)</property>
  <property name="meta.media.0.codec.bit_rate">0</property>
  <property name="meta.attr.0.stream.HANDLER_NAME.markup">VideoHandler</property>
  <property name="meta.attr.0.stream.ENCODER.markup">Lavc58.91.100 mjpeg</property>
  <property name="meta.attr.0.stream.DURATION.markup">00:01:29.800000000</property>
  <property name="meta.attr.COMPATIBLE_BRANDS.markup">isomiso2avc1mp41</property>
  <property name="meta.attr.MAJOR_BRAND.markup">isom</property>
  <property name="meta.attr.MINOR_VERSION.markup">512</property>
  <property name="meta.attr.ENCODER.markup">Lavf58.45.100</property>
  <property name="seekable">1</property>
  <property name="meta.media.sample_aspect_num">1</property>
  <property name="meta.media.sample_aspect_den">1</property>
  <property name="audio_index">-1</property>
  <property name="video_index">0</property>
  <property name="mute_on_pause">1</property>
  <property name="warp_speed">2</property>
  <property name="warp_resource">/home/ryankelln/.cache/kdenlive/proxy/8a45a6e6f82270aac1a382ea6d4dd9e7.mkv</property>
  <property name="mlt_service">timewarp</property>
  <property name="kdenlive:proxy">/home/ryankelln/.cache/kdenlive/proxy/8a45a6e6f82270aac1a382ea6d4dd9e7.mkv</property>
  <property name="kdenlive:originalurl">content/footage/epic_clouds_slomo.mp4</property>
  <property name="set.test_audio">1</property>
  <property name="set.test_image">0</property>
  <property name="kdenlive:id">92</property>
  <property name="warp_pitch">0</property>
  <property name="meta.media.frame_rate_num">30</property>
  <property name="meta.media.frame_rate_den">1</property>
  <property name="meta.media.colorspace">601</property>
  <property name="meta.media.color_trc">2</property>
  <property name="meta.media.width">960</property>
  <property name="meta.media.height">540</property>
  <property name="meta.media.color_range">full</property>
  <property name="meta.media.top_field_first">0</property>
  <property name="meta.media.progressive">1</property>
 </producer>
 <producer id="producer162" in="00:00:00.000" out="00:00:14.933">
  <property name="length">449</property>
  <property name="eof">pause</property>
  <property name="resource">6.000000:/home/ryankelln/.cache/kdenlive/proxy/8a45a6e6f82270aac1a382ea6d4dd9e7.mkv</property>
  <property name="aspect_ratio">1</property>
  <property name="meta.media.nb_streams">1</property>
  <property name="meta.media.0.stream.type">video</property>
  <property name="meta.media.0.stream.frame_rate">30</property>
  <property name="meta.media.0.stream.sample_aspect_ratio">1</property>
  <property name="meta.media.0.codec.width">960</property>
  <property name="meta.media.0.codec.height">540</property>
  <property name="meta.media.0.codec.rotate">0</property>
  <property name="meta.media.0.codec.frame_rate">1000</property>
  <property name="meta.media.0.codec.pix_fmt">yuvj444p</property>
  <property name="meta.media.0.codec.sample_aspect_ratio">1</property>
  <property name="meta.media.0.codec.colorspace">601</property>
  <property name="meta.media.0.codec.name">mjpeg</property>
  <property name="meta.media.0.codec.long_name">MJPEG (Motion JPEG)</property>
  <property name="meta.media.0.codec.bit_rate">0</property>
  <property name="meta.attr.0.stream.HANDLER_NAME.markup">VideoHandler</property>
  <property name="meta.attr.0.stream.ENCODER.markup">Lavc58.91.100 mjpeg</property>
  <property name="meta.attr.0.stream.DURATION.markup">00:01:29.800000000</property>
  <property name="meta.attr.COMPATIBLE_BRANDS.markup">isomiso2avc1mp41</property>
  <property name="meta.attr.MAJOR_BRAND.markup">isom</property>
  <property name="meta.attr.MINOR_VERSION.markup">512</property>
  <property name="meta.attr.ENCODER.markup">Lavf58.45.100</property>
  <property name="seekable">1</property>
  <property name="meta.media.sample_aspect_num">1</property>
  <property name="meta.media.sample_aspect_den">1</property>
  <property name="audio_index">-1</property>
  <property name="video_index">0</property>
  <property name="mute_on_pause">1</property>
  <property name="warp_speed">6</property>
  <property name="warp_resource">/home/ryankelln/.cache/kdenlive/proxy/8a45a6e6f82270aac1a382ea6d4dd9e7.mkv</property>
  <property name="mlt_service">timewarp</property>
  <property name="kdenlive:proxy">/home/ryankelln/.cache/kdenlive/proxy/8a45a6e6f82270aac1a382ea6d4dd9e7.mkv</property>
  <property name="kdenlive:originalurl">content/footage/epic_clouds_slomo.mp4</property>
  <property name="set.test_audio">1</property>
  <property name="set.test_image">0</property>
  <property name="kdenlive:id">92</property>
  <property name="warp_pitch">0</property>
  <property name="meta.media.frame_rate_num">30</property>
  <property name="meta.media.frame_rate_den">1</property>
  <property name="meta.media.colorspace">601</property>
  <property name="meta.media.color_trc">2</property>
  <property name="meta.media.width">960</property>
  <property name="meta.media.height">540</property>
  <property name="meta.media.color_range">full</property>
  <property name="meta.media.top_field_first">0</property>
  <property name="meta.media.progressive">1</property>
 </producer>
 <producer id="producer163" in="00:00:00.000" out="00:00:14.933">
  <property name="length">449</property>
  <property name="eof">pause</property>
  <property name="resource">6.000000:/home/ryankelln/.cache/kdenlive/proxy/8a45a6e6f82270aac1a382ea6d4dd9e7.mkv</property>
  <property name="aspect_ratio">1</property>
  <property name="meta.media.nb_streams">1</property>
  <property name="meta.media.0.stream.type">video</property>
  <property name="meta.media.0.stream.frame_rate">30</property>
  <property name="meta.media.0.stream.sample_aspect_ratio">1</property>
  <property name="meta.media.0.codec.width">960</property>
  <property name="meta.media.0.codec.height">540</property>
  <property name="meta.media.0.codec.rotate">0</property>
  <property name="meta.media.0.codec.frame_rate">1000</property>
  <property name="meta.media.0.codec.pix_fmt">yuvj444p</property>
  <property name="meta.media.0.codec.sample_aspect_ratio">1</property>
  <property name="meta.media.0.codec.colorspace">601</property>
  <property name="meta.media.0.codec.name">mjpeg</property>
  <property name="meta.media.0.codec.long_name">MJPEG (Motion JPEG)</property>
  <property name="meta.media.0.codec.bit_rate">0</property>
  <property name="meta.attr.0.stream.HANDLER_NAME.markup">VideoHandler</property>
  <property name="meta.attr.0.stream.ENCODER.markup">Lavc58.91.100 mjpeg</property>
  <property name="meta.attr.0.stream.DURATION.markup">00:01:29.800000000</property>
  <property name="meta.attr.COMPATIBLE_BRANDS.markup">isomiso2avc1mp41</property>
  <property name="meta.attr.MAJOR_BRAND.markup">isom</property>
  <property name="meta.attr.MINOR_VERSION.markup">512</property>
  <property name="meta.attr.ENCODER.markup">Lavf58.45.100</property>
  <property name="seekable">1</property>
  <property name="meta.media.sample_aspect_num">1</property>
  <property name="meta.media.sample_aspect_den">1</property>
  <property name="audio_index">-1</property>
  <property name="video_index">0</property>
  <property name="mute_on_pause">1</property>
  <property name="warp_speed">6</property>
  <property name="warp_resource">/home/ryankelln/.cache/kdenlive/proxy/8a45a6e6f82270aac1a382ea6d4dd9e7.mkv</property>
  <property name="mlt_service">timewarp</property>
  <property name="kdenlive:proxy">/home/ryankelln/.cache/kdenlive/proxy/8a45a6e6f82270aac1a382ea6d4dd9e7.mkv</property>
  <property name="kdenlive:originalurl">content/footage/epic_clouds_slomo.mp4</property>
  <property name="set.test_audio">1</property>
  <property name="set.test_image">0</property>
  <property name="kdenlive:id">92</property>
  <property name="warp_pitch">0</property>
  <property name="meta.media.frame_rate_num">30</property>
  <property name="meta.media.frame_rate_den">1</property>
  <property name="meta.media.colorspace">601</property>
  <property name="meta.media.color_trc">2</property>
  <property name="meta.media.width">960</property>
  <property name="meta.media.height">540</property>
  <property name="meta.media.color_range">full</property>
  <property name="meta.media.top_field_first">0</property>
  <property name="meta.media.progressive">1</property>
 </producer>
 <producer id="producer164" in="00:00:00.000" out="00:01:29.767">
  <property name="length">2694</property>
  <property name="eof">pause</property>
  <property name="resource">-1.000000:/home/ryankelln/.cache/kdenlive/proxy/8a45a6e6f82270aac1a382ea6d4dd9e7.mkv</property>
  <property name="aspect_ratio">1</property>
  <property name="meta.media.nb_streams">1</property>
  <property name="meta.media.0.stream.type">video</property>
  <property name="meta.media.0.stream.frame_rate">30</property>
  <property name="meta.media.0.stream.sample_aspect_ratio">1</property>
  <property name="meta.media.0.codec.width">960</property>
  <property name="meta.media.0.codec.height">540</property>
  <property name="meta.media.0.codec.rotate">0</property>
  <property name="meta.media.0.codec.frame_rate">1000</property>
  <property name="meta.media.0.codec.pix_fmt">yuvj444p</property>
  <property name="meta.media.0.codec.sample_aspect_ratio">1</property>
  <property name="meta.media.0.codec.colorspace">601</property>
  <property name="meta.media.0.codec.name">mjpeg</property>
  <property name="meta.media.0.codec.long_name">MJPEG (Motion JPEG)</property>
  <property name="meta.media.0.codec.bit_rate">0</property>
  <property name="meta.attr.0.stream.HANDLER_NAME.markup">VideoHandler</property>
  <property name="meta.attr.0.stream.ENCODER.markup">Lavc58.91.100 mjpeg</property>
  <property name="meta.attr.0.stream.DURATION.markup">00:01:29.800000000</property>
  <property name="meta.attr.COMPATIBLE_BRANDS.markup">isomiso2avc1mp41</property>
  <property name="meta.attr.MAJOR_BRAND.markup">isom</property>
  <property name="meta.attr.MINOR_VERSION.markup">512</property>
  <property name="meta.attr.ENCODER.markup">Lavf58.45.100</property>
  <property name="seekable">1</property>
  <property name="meta.media.sample_aspect_num">1</property>
  <property name="meta.media.sample_aspect_den">1</property>
  <property name="audio_index">-1</property>
  <property name="video_index">0</property>
  <property name="mute_on_pause">1</property>
  <property name="warp_speed">-1</property>
  <property name="warp_resource">/home/ryankelln/.cache/kdenlive/proxy/8a45a6e6f82270aac1a382ea6d4dd9e7.mkv</property>
  <property name="mlt_service">timewarp</property>
  <property name="kdenlive:proxy">/home/ryankelln/.cache/kdenlive/proxy/8a45a6e6f82270aac1a382ea6d4dd9e7.mkv</property>
  <property name="kdenlive:originalurl">content/footage/epic_clouds_slomo.mp4</property>
  <property name="set.test_audio">1</property>
  <property name="set.test_image">0</property>
  <property name="kdenlive:id">92</property>
  <property name="warp_pitch">0</property>
  <property name="meta.media.frame_rate_num">30</property>
  <property name="meta.media.frame_rate_den">1</property>
  <property name="meta.media.colorspace">601</property>
  <property name="meta.media.color_trc">2</property>
  <property name="meta.media.width">960</property>
  <property name="meta.media.height">540</property>
  <property name="meta.media.color_range">full</property>
  <property name="meta.media.top_field_first">0</property>
  <property name="meta.media.progressive">1</property>
 </producer>
 <producer id="producer165" in="00:00:00.000" out="00:00:14.933">
  <property name="length">449</property>
  <property name="eof">pause</property>
  <property name="resource">-6.000000:/home/ryankelln/.cache/kdenlive/proxy/8a45a6e6f82270aac1a382ea6d4dd9e7.mkv</property>
  <property name="aspect_ratio">1</property>
  <property name="meta.media.nb_streams">1</property>
  <property name="meta.media.0.stream.type">video</property>
  <property name="meta.media.0.stream.frame_rate">30</property>
  <property name="meta.media.0.stream.sample_aspect_ratio">1</property>
  <property name="meta.media.0.codec.width">960</property>
  <property name="meta.media.0.codec.height">540</property>
  <property name="meta.media.0.codec.rotate">0</property>
  <property name="meta.media.0.codec.frame_rate">1000</property>
  <property name="meta.media.0.codec.pix_fmt">yuvj444p</property>
  <property name="meta.media.0.codec.sample_aspect_ratio">1</property>
  <property name="meta.media.0.codec.colorspace">601</property>
  <property name="meta.media.0.codec.name">mjpeg</property>
  <property name="meta.media.0.codec.long_name">MJPEG (Motion JPEG)</property>
  <property name="meta.media.0.codec.bit_rate">0</property>
  <property name="meta.attr.0.stream.HANDLER_NAME.markup">VideoHandler</property>
  <property name="meta.attr.0.stream.ENCODER.markup">Lavc58.91.100 mjpeg</property>
  <property name="meta.attr.0.stream.DURATION.markup">00:01:29.800000000</property>
  <property name="meta.attr.COMPATIBLE_BRANDS.markup">isomiso2avc1mp41</property>
  <property name="meta.attr.MAJOR_BRAND.markup">isom</property>
  <property name="meta.attr.MINOR_VERSION.markup">512</property>
  <property name="meta.attr.ENCODER.markup">Lavf58.45.100</property>
  <property name="seekable">1</property>
  <property name="meta.media.sample_aspect_num">1</property>
  <property name="meta.media.sample_aspect_den">1</property>
  <property name="audio_index">-1</property>
  <property name="video_index">0</property>
  <property name="mute_on_pause">1</property>
  <property name="warp_speed">-6</property>
  <property name="warp_resource">/home/ryankelln/.cache/kdenlive/proxy/8a45a6e6f82270aac1a382ea6d4dd9e7.mkv</property>
  <property name="mlt_service">timewarp</property>
  <property name="kdenlive:proxy">/home/ryankelln/.cache/kdenlive/proxy/8a45a6e6f82270aac1a382ea6d4dd9e7.mkv</property>
  <property name="kdenlive:originalurl">content/footage/epic_clouds_slomo.mp4</property>
  <property name="set.test_audio">1</property>
  <property name="set.test_image">0</property>
  <property name="kdenlive:id">92</property>
  <property name="warp_pitch">0</property>
  <property name="meta.media.frame_rate_num">30</property>
  <property name="meta.media.frame_rate_den">1</property>
  <property name="meta.media.colorspace">601</property>
  <property name="meta.media.color_trc">2</property>
  <property name="meta.media.width">960</property>
  <property name="meta.media.height">540</property>
  <property name="meta.media.color_range">full</property>
  <property name="meta.media.top_field_first">0</property>
  <property name="meta.media.progressive">1</property>
 </producer>
 <producer id="producer166" in="00:00:00.000" out="00:00:29.900">
  <property name="length">898</property>
  <property name="eof">pause</property>
  <property name="resource">-3.000000:/home/ryankelln/.cache/kdenlive/proxy/8a45a6e6f82270aac1a382ea6d4dd9e7.mkv</property>
  <property name="aspect_ratio">1</property>
  <property name="meta.media.nb_streams">1</property>
  <property name="meta.media.0.stream.type">video</property>
  <property name="meta.media.0.stream.frame_rate">30</property>
  <property name="meta.media.0.stream.sample_aspect_ratio">1</property>
  <property name="meta.media.0.codec.width">960</property>
  <property name="meta.media.0.codec.height">540</property>
  <property name="meta.media.0.codec.rotate">0</property>
  <property name="meta.media.0.codec.frame_rate">1000</property>
  <property name="meta.media.0.codec.pix_fmt">yuvj444p</property>
  <property name="meta.media.0.codec.sample_aspect_ratio">1</property>
  <property name="meta.media.0.codec.colorspace">601</property>
  <property name="meta.media.0.codec.name">mjpeg</property>
  <property name="meta.media.0.codec.long_name">MJPEG (Motion JPEG)</property>
  <property name="meta.media.0.codec.bit_rate">0</property>
  <property name="meta.attr.0.stream.HANDLER_NAME.markup">VideoHandler</property>
  <property name="meta.attr.0.stream.ENCODER.markup">Lavc58.91.100 mjpeg</property>
  <property name="meta.attr.0.stream.DURATION.markup">00:01:29.800000000</property>
  <property name="meta.attr.COMPATIBLE_BRANDS.markup">isomiso2avc1mp41</property>
  <property name="meta.attr.MAJOR_BRAND.markup">isom</property>
  <property name="meta.attr.MINOR_VERSION.markup">512</property>
  <property name="meta.attr.ENCODER.markup">Lavf58.45.100</property>
  <property name="seekable">1</property>
  <property name="meta.media.sample_aspect_num">1</property>
  <property name="meta.media.sample_aspect_den">1</property>
  <property name="audio_index">-1</property>
  <property name="video_index">0</property>
  <property name="mute_on_pause">1</property>
  <property name="warp_speed">-3</property>
  <property name="warp_resource">/home/ryankelln/.cache/kdenlive/proxy/8a45a6e6f82270aac1a382ea6d4dd9e7.mkv</property>
  <property name="mlt_service">timewarp</property>
  <property name="kdenlive:proxy">/home/ryankelln/.cache/kdenlive/proxy/8a45a6e6f82270aac1a382ea6d4dd9e7.mkv</property>
  <property name="kdenlive:originalurl">content/footage/epic_clouds_slomo.mp4</property>
  <property name="set.test_audio">1</property>
  <property name="set.test_image">0</property>
  <property name="kdenlive:id">92</property>
  <property name="warp_pitch">0</property>
  <property name="meta.media.frame_rate_num">30</property>
  <property name="meta.media.frame_rate_den">1</property>
  <property name="meta.media.colorspace">601</property>
  <property name="meta.media.color_trc">2</property>
  <property name="meta.media.width">960</property>
  <property name="meta.media.height">540</property>
  <property name="meta.media.color_range">full</property>
  <property name="meta.media.top_field_first">0</property>
  <property name="meta.media.progressive">1</property>
 </producer>
 <producer id="producer167" in="00:00:00.000" out="00:00:14.933">
  <property name="length">449</property>
  <property name="eof">pause</property>
  <property name="resource">-6.000000:/home/ryankelln/.cache/kdenlive/proxy/8a45a6e6f82270aac1a382ea6d4dd9e7.mkv</property>
  <property name="aspect_ratio">1</property>
  <property name="meta.media.nb_streams">1</property>
  <property name="meta.media.0.stream.type">video</property>
  <property name="meta.media.0.stream.frame_rate">30</property>
  <property name="meta.media.0.stream.sample_aspect_ratio">1</property>
  <property name="meta.media.0.codec.width">960</property>
  <property name="meta.media.0.codec.height">540</property>
  <property name="meta.media.0.codec.rotate">0</property>
  <property name="meta.media.0.codec.frame_rate">1000</property>
  <property name="meta.media.0.codec.pix_fmt">yuvj444p</property>
  <property name="meta.media.0.codec.sample_aspect_ratio">1</property>
  <property name="meta.media.0.codec.colorspace">601</property>
  <property name="meta.media.0.codec.name">mjpeg</property>
  <property name="meta.media.0.codec.long_name">MJPEG (Motion JPEG)</property>
  <property name="meta.media.0.codec.bit_rate">0</property>
  <property name="meta.attr.0.stream.HANDLER_NAME.markup">VideoHandler</property>
  <property name="meta.attr.0.stream.ENCODER.markup">Lavc58.91.100 mjpeg</property>
  <property name="meta.attr.0.stream.DURATION.markup">00:01:29.800000000</property>
  <property name="meta.attr.COMPATIBLE_BRANDS.markup">isomiso2avc1mp41</property>
  <property name="meta.attr.MAJOR_BRAND.markup">isom</property>
  <property name="meta.attr.MINOR_VERSION.markup">512</property>
  <property name="meta.attr.ENCODER.markup">Lavf58.45.100</property>
  <property name="seekable">1</property>
  <property name="meta.media.sample_aspect_num">1</property>
  <property name="meta.media.sample_aspect_den">1</property>
  <property name="audio_index">-1</property>
  <property name="video_index">0</property>
  <property name="mute_on_pause">1</property>
  <property name="warp_speed">-6</property>
  <property name="warp_resource">/home/ryankelln/.cache/kdenlive/proxy/8a45a6e6f82270aac1a382ea6d4dd9e7.mkv</property>
  <property name="mlt_service">timewarp</property>
  <property name="kdenlive:proxy">/home/ryankelln/.cache/kdenlive/proxy/8a45a6e6f82270aac1a382ea6d4dd9e7.mkv</property>
  <property name="kdenlive:originalurl">content/footage/epic_clouds_slomo.mp4</property>
  <property name="set.test_audio">1</property>
  <property name="set.test_image">0</property>
  <property name="kdenlive:id">92</property>
  <property name="warp_pitch">0</property>
  <property name="meta.media.frame_rate_num">30</property>
  <property name="meta.media.frame_rate_den">1</property>
  <property name="meta.media.colorspace">601</property>
  <property name="meta.media.color_trc">2</property>
  <property name="meta.media.width">960</property>
  <property name="meta.media.height">540</property>
  <property name="meta.media.color_range">full</property>
  <property name="meta.media.top_field_first">0</property>
  <property name="meta.media.progressive">1</property>
 </producer>
 <producer id="producer168" in="00:00:00.000" out="00:01:29.767">
  <property name="length">2694</property>
  <property name="eof">pause</property>
  <property name="resource">-1.000000:/home/ryankelln/.cache/kdenlive/proxy/8a45a6e6f82270aac1a382ea6d4dd9e7.mkv</property>
  <property name="aspect_ratio">1</property>
  <property name="meta.media.nb_streams">1</property>
  <property name="meta.media.0.stream.type">video</property>
  <property name="meta.media.0.stream.frame_rate">30</property>
  <property name="meta.media.0.stream.sample_aspect_ratio">1</property>
  <property name="meta.media.0.codec.width">960</property>
  <property name="meta.media.0.codec.height">540</property>
  <property name="meta.media.0.codec.rotate">0</property>
  <property name="meta.media.0.codec.frame_rate">1000</property>
  <property name="meta.media.0.codec.pix_fmt">yuvj444p</property>
  <property name="meta.media.0.codec.sample_aspect_ratio">1</property>
  <property name="meta.media.0.codec.colorspace">601</property>
  <property name="meta.media.0.codec.name">mjpeg</property>
  <property name="meta.media.0.codec.long_name">MJPEG (Motion JPEG)</property>
  <property name="meta.media.0.codec.bit_rate">0</property>
  <property name="meta.attr.0.stream.HANDLER_NAME.markup">VideoHandler</property>
  <property name="meta.attr.0.stream.ENCODER.markup">Lavc58.91.100 mjpeg</property>
  <property name="meta.attr.0.stream.DURATION.markup">00:01:29.800000000</property>
  <property name="meta.attr.COMPATIBLE_BRANDS.markup">isomiso2avc1mp41</property>
  <property name="meta.attr.MAJOR_BRAND.markup">isom</property>
  <property name="meta.attr.MINOR_VERSION.markup">512</property>
  <property name="meta.attr.ENCODER.markup">Lavf58.45.100</property>
  <property name="seekable">1</property>
  <property name="meta.media.sample_aspect_num">1</property>
  <property name="meta.media.sample_aspect_den">1</property>
  <property name="audio_index">-1</property>
  <property name="video_index">0</property>
  <property name="mute_on_pause">1</property>
  <property name="warp_speed">-1</property>
  <property name="warp_resource">/home/ryankelln/.cache/kdenlive/proxy/8a45a6e6f82270aac1a382ea6d4dd9e7.mkv</property>
  <property name="mlt_service">timewarp</property>
  <property name="kdenlive:proxy">/home/ryankelln/.cache/kdenlive/proxy/8a45a6e6f82270aac1a382ea6d4dd9e7.mkv</property>
  <property name="kdenlive:originalurl">content/footage/epic_clouds_slomo.mp4</property>
  <property name="set.test_audio">1</property>
  <property name="set.test_image">0</property>
  <property name="kdenlive:id">92</property>
  <property name="warp_pitch">0</property>
  <property name="meta.media.frame_rate_num">30</property>
  <property name="meta.media.frame_rate_den">1</property>
  <property name="meta.media.colorspace">601</property>
  <property name="meta.media.color_trc">2</property>
  <property name="meta.media.width">960</property>
  <property name="meta.media.height">540</property>
  <property name="meta.media.color_range">full</property>
  <property name="meta.media.top_field_first">0</property>
  <property name="meta.media.progressive">1</property>
 </producer>
 <producer id="producer169" in="00:00:00.000" out="00:00:44.867">
  <property name="length">1347</property>
  <property name="eof">pause</property>
  <property name="resource">-2.000000:/home/ryankelln/.cache/kdenlive/proxy/8a45a6e6f82270aac1a382ea6d4dd9e7.mkv</property>
  <property name="aspect_ratio">1</property>
  <property name="meta.media.nb_streams">1</property>
  <property name="meta.media.0.stream.type">video</property>
  <property name="meta.media.0.stream.frame_rate">30</property>
  <property name="meta.media.0.stream.sample_aspect_ratio">1</property>
  <property name="meta.media.0.codec.width">960</property>
  <property name="meta.media.0.codec.height">540</property>
  <property name="meta.media.0.codec.rotate">0</property>
  <property name="meta.media.0.codec.frame_rate">1000</property>
  <property name="meta.media.0.codec.pix_fmt">yuvj444p</property>
  <property name="meta.media.0.codec.sample_aspect_ratio">1</property>
  <property name="meta.media.0.codec.colorspace">601</property>
  <property name="meta.media.0.codec.name">mjpeg</property>
  <property name="meta.media.0.codec.long_name">MJPEG (Motion JPEG)</property>
  <property name="meta.media.0.codec.bit_rate">0</property>
  <property name="meta.attr.0.stream.HANDLER_NAME.markup">VideoHandler</property>
  <property name="meta.attr.0.stream.ENCODER.markup">Lavc58.91.100 mjpeg</property>
  <property name="meta.attr.0.stream.DURATION.markup">00:01:29.800000000</property>
  <property name="meta.attr.COMPATIBLE_BRANDS.markup">isomiso2avc1mp41</property>
  <property name="meta.attr.MAJOR_BRAND.markup">isom</property>
  <property name="meta.attr.MINOR_VERSION.markup">512</property>
  <property name="meta.attr.ENCODER.markup">Lavf58.45.100</property>
  <property name="seekable">1</property>
  <property name="meta.media.sample_aspect_num">1</property>
  <property name="meta.media.sample_aspect_den">1</property>
  <property name="audio_index">-1</property>
  <property name="video_index">0</property>
  <property name="mute_on_pause">1</property>
  <property name="warp_speed">-2</property>
  <property name="warp_resource">/home/ryankelln/.cache/kdenlive/proxy/8a45a6e6f82270aac1a382ea6d4dd9e7.mkv</property>
  <property name="mlt_service">timewarp</property>
  <property name="kdenlive:proxy">/home/ryankelln/.cache/kdenlive/proxy/8a45a6e6f82270aac1a382ea6d4dd9e7.mkv</property>
  <property name="kdenlive:originalurl">content/footage/epic_clouds_slomo.mp4</property>
  <property name="set.test_audio">1</property>
  <property name="set.test_image">0</property>
  <property name="kdenlive:id">92</property>
  <property name="warp_pitch">0</property>
  <property name="meta.media.frame_rate_num">30</property>
  <property name="meta.media.frame_rate_den">1</property>
  <property name="meta.media.colorspace">601</property>
  <property name="meta.media.color_trc">2</property>
  <property name="meta.media.width">960</property>
  <property name="meta.media.height">540</property>
  <property name="meta.media.color_range">full</property>
  <property name="meta.media.top_field_first">0</property>
  <property name="meta.media.progressive">1</property>
 </producer>
 <producer id="producer170" in="00:00:00.000" out="00:00:29.900">
  <property name="length">898</property>
  <property name="eof">pause</property>
  <property name="resource">-3.000000:/home/ryankelln/.cache/kdenlive/proxy/8a45a6e6f82270aac1a382ea6d4dd9e7.mkv</property>
  <property name="aspect_ratio">1</property>
  <property name="meta.media.nb_streams">1</property>
  <property name="meta.media.0.stream.type">video</property>
  <property name="meta.media.0.stream.frame_rate">30</property>
  <property name="meta.media.0.stream.sample_aspect_ratio">1</property>
  <property name="meta.media.0.codec.width">960</property>
  <property name="meta.media.0.codec.height">540</property>
  <property name="meta.media.0.codec.rotate">0</property>
  <property name="meta.media.0.codec.frame_rate">1000</property>
  <property name="meta.media.0.codec.pix_fmt">yuvj444p</property>
  <property name="meta.media.0.codec.sample_aspect_ratio">1</property>
  <property name="meta.media.0.codec.colorspace">601</property>
  <property name="meta.media.0.codec.name">mjpeg</property>
  <property name="meta.media.0.codec.long_name">MJPEG (Motion JPEG)</property>
  <property name="meta.media.0.codec.bit_rate">0</property>
  <property name="meta.attr.0.stream.HANDLER_NAME.markup">VideoHandler</property>
  <property name="meta.attr.0.stream.ENCODER.markup">Lavc58.91.100 mjpeg</property>
  <property name="meta.attr.0.stream.DURATION.markup">00:01:29.800000000</property>
  <property name="meta.attr.COMPATIBLE_BRANDS.markup">isomiso2avc1mp41</property>
  <property name="meta.attr.MAJOR_BRAND.markup">isom</property>
  <property name="meta.attr.MINOR_VERSION.markup">512</property>
  <property name="meta.attr.ENCODER.markup">Lavf58.45.100</property>
  <property name="seekable">1</property>
  <property name="meta.media.sample_aspect_num">1</property>
  <property name="meta.media.sample_aspect_den">1</property>
  <property name="audio_index">-1</property>
  <property name="video_index">0</property>
  <property name="mute_on_pause">1</property>
  <property name="warp_speed">-3</property>
  <property name="warp_resource">/home/ryankelln/.cache/kdenlive/proxy/8a45a6e6f82270aac1a382ea6d4dd9e7.mkv</property>
  <property name="mlt_service">timewarp</property>
  <property name="kdenlive:proxy">/home/ryankelln/.cache/kdenlive/proxy/8a45a6e6f82270aac1a382ea6d4dd9e7.mkv</property>
  <property name="kdenlive:originalurl">content/footage/epic_clouds_slomo.mp4</property>
  <property name="set.test_audio">1</property>
  <property name="set.test_image">0</property>
  <property name="kdenlive:id">92</property>
  <property name="warp_pitch">0</property>
  <property name="meta.media.frame_rate_num">30</property>
  <property name="meta.media.frame_rate_den">1</property>
  <property name="meta.media.colorspace">601</property>
  <property name="meta.media.color_trc">2</property>
  <property name="meta.media.width">960</property>
  <property name="meta.media.height">540</property>
  <property name="meta.media.color_range">full</property>
  <property name="meta.media.top_field_first">0</property>
  <property name="meta.media.progressive">1</property>
 </producer>
 <producer id="producer171" in="00:00:00.000" out="00:00:22.433">
  <property name="length">674</property>
  <property name="eof">pause</property>
  <property name="resource">-4.000000:/home/ryankelln/.cache/kdenlive/proxy/8a45a6e6f82270aac1a382ea6d4dd9e7.mkv</property>
  <property name="aspect_ratio">1</property>
  <property name="meta.media.nb_streams">1</property>
  <property name="meta.media.0.stream.type">video</property>
  <property name="meta.media.0.stream.frame_rate">30</property>
  <property name="meta.media.0.stream.sample_aspect_ratio">1</property>
  <property name="meta.media.0.codec.width">960</property>
  <property name="meta.media.0.codec.height">540</property>
  <property name="meta.media.0.codec.rotate">0</property>
  <property name="meta.media.0.codec.frame_rate">1000</property>
  <property name="meta.media.0.codec.pix_fmt">yuvj444p</property>
  <property name="meta.media.0.codec.sample_aspect_ratio">1</property>
  <property name="meta.media.0.codec.colorspace">601</property>
  <property name="meta.media.0.codec.name">mjpeg</property>
  <property name="meta.media.0.codec.long_name">MJPEG (Motion JPEG)</property>
  <property name="meta.media.0.codec.bit_rate">0</property>
  <property name="meta.attr.0.stream.HANDLER_NAME.markup">VideoHandler</property>
  <property name="meta.attr.0.stream.ENCODER.markup">Lavc58.91.100 mjpeg</property>
  <property name="meta.attr.0.stream.DURATION.markup">00:01:29.800000000</property>
  <property name="meta.attr.COMPATIBLE_BRANDS.markup">isomiso2avc1mp41</property>
  <property name="meta.attr.MAJOR_BRAND.markup">isom</property>
  <property name="meta.attr.MINOR_VERSION.markup">512</property>
  <property name="meta.attr.ENCODER.markup">Lavf58.45.100</property>
  <property name="seekable">1</property>
  <property name="meta.media.sample_aspect_num">1</property>
  <property name="meta.media.sample_aspect_den">1</property>
  <property name="audio_index">-1</property>
  <property name="video_index">0</property>
  <property name="mute_on_pause">1</property>
  <property name="warp_speed">-4</property>
  <property name="warp_resource">/home/ryankelln/.cache/kdenlive/proxy/8a45a6e6f82270aac1a382ea6d4dd9e7.mkv</property>
  <property name="mlt_service">timewarp</property>
  <property name="kdenlive:proxy">/home/ryankelln/.cache/kdenlive/proxy/8a45a6e6f82270aac1a382ea6d4dd9e7.mkv</property>
  <property name="kdenlive:originalurl">content/footage/epic_clouds_slomo.mp4</property>
  <property name="set.test_audio">1</property>
  <property name="set.test_image">0</property>
  <property name="kdenlive:id">92</property>
  <property name="warp_pitch">0</property>
  <property name="meta.media.frame_rate_num">30</property>
  <property name="meta.media.frame_rate_den">1</property>
  <property name="meta.media.colorspace">601</property>
  <property name="meta.media.color_trc">2</property>
  <property name="meta.media.width">960</property>
  <property name="meta.media.height">540</property>
  <property name="meta.media.color_range">full</property>
  <property name="meta.media.top_field_first">0</property>
  <property name="meta.media.progressive">1</property>
 </producer>
 <producer id="producer172" in="00:00:00.000" out="00:00:05.967">
  <property name="length">180</property>
  <property name="eof">pause</property>
  <property name="resource">15.000000:/home/ryankelln/.cache/kdenlive/proxy/8a45a6e6f82270aac1a382ea6d4dd9e7.mkv</property>
  <property name="aspect_ratio">1</property>
  <property name="meta.media.nb_streams">1</property>
  <property name="meta.media.0.stream.type">video</property>
  <property name="meta.media.0.stream.frame_rate">30</property>
  <property name="meta.media.0.stream.sample_aspect_ratio">1</property>
  <property name="meta.media.0.codec.width">960</property>
  <property name="meta.media.0.codec.height">540</property>
  <property name="meta.media.0.codec.rotate">0</property>
  <property name="meta.media.0.codec.frame_rate">1000</property>
  <property name="meta.media.0.codec.pix_fmt">yuvj444p</property>
  <property name="meta.media.0.codec.sample_aspect_ratio">1</property>
  <property name="meta.media.0.codec.colorspace">601</property>
  <property name="meta.media.0.codec.name">mjpeg</property>
  <property name="meta.media.0.codec.long_name">MJPEG (Motion JPEG)</property>
  <property name="meta.media.0.codec.bit_rate">0</property>
  <property name="meta.attr.0.stream.HANDLER_NAME.markup">VideoHandler</property>
  <property name="meta.attr.0.stream.ENCODER.markup">Lavc58.91.100 mjpeg</property>
  <property name="meta.attr.0.stream.DURATION.markup">00:01:29.800000000</property>
  <property name="meta.attr.COMPATIBLE_BRANDS.markup">isomiso2avc1mp41</property>
  <property name="meta.attr.MAJOR_BRAND.markup">isom</property>
  <property name="meta.attr.MINOR_VERSION.markup">512</property>
  <property name="meta.attr.ENCODER.markup">Lavf58.45.100</property>
  <property name="seekable">1</property>
  <property name="meta.media.sample_aspect_num">1</property>
  <property name="meta.media.sample_aspect_den">1</property>
  <property name="audio_index">-1</property>
  <property name="video_index">0</property>
  <property name="mute_on_pause">1</property>
  <property name="warp_speed">15</property>
  <property name="warp_resource">/home/ryankelln/.cache/kdenlive/proxy/8a45a6e6f82270aac1a382ea6d4dd9e7.mkv</property>
  <property name="mlt_service">timewarp</property>
  <property name="kdenlive:proxy">/home/ryankelln/.cache/kdenlive/proxy/8a45a6e6f82270aac1a382ea6d4dd9e7.mkv</property>
  <property name="kdenlive:originalurl">content/footage/epic_clouds_slomo.mp4</property>
  <property name="set.test_audio">1</property>
  <property name="set.test_image">0</property>
  <property name="kdenlive:id">92</property>
  <property name="warp_pitch">0</property>
  <property name="meta.media.frame_rate_num">30</property>
  <property name="meta.media.frame_rate_den">1</property>
  <property name="meta.media.colorspace">601</property>
  <property name="meta.media.color_trc">2</property>
  <property name="meta.media.width">960</property>
  <property name="meta.media.height">540</property>
  <property name="meta.media.color_range">full</property>
  <property name="meta.media.top_field_first">0</property>
  <property name="meta.media.progressive">1</property>
 </producer>
 <producer id="producer173" in="00:00:00.000" out="00:00:44.867">
  <property name="length">1347</property>
  <property name="eof">pause</property>
  <property name="resource">2.000000:/home/ryankelln/.cache/kdenlive/proxy/8a45a6e6f82270aac1a382ea6d4dd9e7.mkv</property>
  <property name="aspect_ratio">1</property>
  <property name="meta.media.nb_streams">1</property>
  <property name="meta.media.0.stream.type">video</property>
  <property name="meta.media.0.stream.frame_rate">30</property>
  <property name="meta.media.0.stream.sample_aspect_ratio">1</property>
  <property name="meta.media.0.codec.width">960</property>
  <property name="meta.media.0.codec.height">540</property>
  <property name="meta.media.0.codec.rotate">0</property>
  <property name="meta.media.0.codec.frame_rate">1000</property>
  <property name="meta.media.0.codec.pix_fmt">yuvj444p</property>
  <property name="meta.media.0.codec.sample_aspect_ratio">1</property>
  <property name="meta.media.0.codec.colorspace">601</property>
  <property name="meta.media.0.codec.name">mjpeg</property>
  <property name="meta.media.0.codec.long_name">MJPEG (Motion JPEG)</property>
  <property name="meta.media.0.codec.bit_rate">0</property>
  <property name="meta.attr.0.stream.HANDLER_NAME.markup">VideoHandler</property>
  <property name="meta.attr.0.stream.ENCODER.markup">Lavc58.91.100 mjpeg</property>
  <property name="meta.attr.0.stream.DURATION.markup">00:01:29.800000000</property>
  <property name="meta.attr.COMPATIBLE_BRANDS.markup">isomiso2avc1mp41</property>
  <property name="meta.attr.MAJOR_BRAND.markup">isom</property>
  <property name="meta.attr.MINOR_VERSION.markup">512</property>
  <property name="meta.attr.ENCODER.markup">Lavf58.45.100</property>
  <property name="seekable">1</property>
  <property name="meta.media.sample_aspect_num">1</property>
  <property name="meta.media.sample_aspect_den">1</property>
  <property name="audio_index">-1</property>
  <property name="video_index">0</property>
  <property name="mute_on_pause">1</property>
  <property name="warp_speed">2</property>
  <property name="warp_resource">/home/ryankelln/.cache/kdenlive/proxy/8a45a6e6f82270aac1a382ea6d4dd9e7.mkv</property>
  <property name="mlt_service">timewarp</property>
  <property name="kdenlive:proxy">/home/ryankelln/.cache/kdenlive/proxy/8a45a6e6f82270aac1a382ea6d4dd9e7.mkv</property>
  <property name="kdenlive:originalurl">content/footage/epic_clouds_slomo.mp4</property>
  <property name="set.test_audio">1</property>
  <property name="set.test_image">0</property>
  <property name="kdenlive:id">92</property>
  <property name="warp_pitch">0</property>
  <property name="meta.media.frame_rate_num">30</property>
  <property name="meta.media.frame_rate_den">1</property>
  <property name="meta.media.colorspace">601</property>
  <property name="meta.media.color_trc">2</property>
  <property name="meta.media.width">960</property>
  <property name="meta.media.height">540</property>
  <property name="meta.media.color_range">full</property>
  <property name="meta.media.top_field_first">0</property>
  <property name="meta.media.progressive">1</property>
 </producer>
 <producer id="producer174" in="00:00:00.000" out="00:00:14.933">
  <property name="length">449</property>
  <property name="eof">pause</property>
  <property name="resource">6.000000:/home/ryankelln/.cache/kdenlive/proxy/8a45a6e6f82270aac1a382ea6d4dd9e7.mkv</property>
  <property name="aspect_ratio">1</property>
  <property name="meta.media.nb_streams">1</property>
  <property name="meta.media.0.stream.type">video</property>
  <property name="meta.media.0.stream.frame_rate">30</property>
  <property name="meta.media.0.stream.sample_aspect_ratio">1</property>
  <property name="meta.media.0.codec.width">960</property>
  <property name="meta.media.0.codec.height">540</property>
  <property name="meta.media.0.codec.rotate">0</property>
  <property name="meta.media.0.codec.frame_rate">1000</property>
  <property name="meta.media.0.codec.pix_fmt">yuvj444p</property>
  <property name="meta.media.0.codec.sample_aspect_ratio">1</property>
  <property name="meta.media.0.codec.colorspace">601</property>
  <property name="meta.media.0.codec.name">mjpeg</property>
  <property name="meta.media.0.codec.long_name">MJPEG (Motion JPEG)</property>
  <property name="meta.media.0.codec.bit_rate">0</property>
  <property name="meta.attr.0.stream.HANDLER_NAME.markup">VideoHandler</property>
  <property name="meta.attr.0.stream.ENCODER.markup">Lavc58.91.100 mjpeg</property>
  <property name="meta.attr.0.stream.DURATION.markup">00:01:29.800000000</property>
  <property name="meta.attr.COMPATIBLE_BRANDS.markup">isomiso2avc1mp41</property>
  <property name="meta.attr.MAJOR_BRAND.markup">isom</property>
  <property name="meta.attr.MINOR_VERSION.markup">512</property>
  <property name="meta.attr.ENCODER.markup">Lavf58.45.100</property>
  <property name="seekable">1</property>
  <property name="meta.media.sample_aspect_num">1</property>
  <property name="meta.media.sample_aspect_den">1</property>
  <property name="audio_index">-1</property>
  <property name="video_index">0</property>
  <property name="mute_on_pause">1</property>
  <property name="warp_speed">6</property>
  <property name="warp_resource">/home/ryankelln/.cache/kdenlive/proxy/8a45a6e6f82270aac1a382ea6d4dd9e7.mkv</property>
  <property name="mlt_service">timewarp</property>
  <property name="kdenlive:proxy">/home/ryankelln/.cache/kdenlive/proxy/8a45a6e6f82270aac1a382ea6d4dd9e7.mkv</property>
  <property name="kdenlive:originalurl">content/footage/epic_clouds_slomo.mp4</property>
  <property name="set.test_audio">1</property>
  <property name="set.test_image">0</property>
  <property name="kdenlive:id">92</property>
  <property name="warp_pitch">0</property>
  <property name="meta.media.frame_rate_num">30</property>
  <property name="meta.media.frame_rate_den">1</property>
  <property name="meta.media.colorspace">601</property>
  <property name="meta.media.color_trc">2</property>
  <property name="meta.media.width">960</property>
  <property name="meta.media.height">540</property>
  <property name="meta.media.color_range">full</property>
  <property name="meta.media.top_field_first">0</property>
  <property name="meta.media.progressive">1</property>
 </producer>
 <producer id="producer175" in="00:00:00.000" out="00:00:29.900">
  <property name="length">900</property>
  <property name="eof">pause</property>
  <property name="resource">/home/ryankelln/.cache/kdenlive/proxy/e9abd51630e84b005d32c49369d869ed.mkv</property>
  <property name="audio_index">-1</property>
  <property name="video_index">0</property>
  <property name="mute_on_pause">0</property>
  <property name="mlt_service">avformat-novalidate</property>
  <property name="seekable">1</property>
  <property name="aspect_ratio">1</property>
  <property name="kdenlive:clipname">Uplifting Clouds H264_Beachfront-B-roll.mp4</property>
  <property name="kdenlive:folderid">102</property>
  <property name="kdenlive:id">94</property>
  <property name="kdenlive:file_size">167710203</property>
  <property name="kdenlive:file_hash">e9abd51630e84b005d32c49369d869ed</property>
  <property name="kdenlive:proxy">/home/ryankelln/.cache/kdenlive/proxy/e9abd51630e84b005d32c49369d869ed.mkv</property>
  <property name="kdenlive:originalurl">content/footage/Uplifting Clouds H264_Beachfront-B-roll.mp4</property>
  <property name="kdenlive:original.mlt_type">producer</property>
  <property name="kdenlive:original.in">0</property>
  <property name="kdenlive:original.out">899</property>
  <property name="kdenlive:original.length">900</property>
  <property name="kdenlive:original.eof">pause</property>
  <property name="kdenlive:original.resource">content/footage/Uplifting Clouds H264_Beachfront-B-roll.mp4</property>
  <property name="kdenlive:original.meta.media.nb_streams">1</property>
  <property name="kdenlive:original.meta.media.0.stream.type">video</property>
  <property name="kdenlive:original.meta.media.0.stream.frame_rate">23.976</property>
  <property name="kdenlive:original.meta.media.0.stream.sample_aspect_ratio">0</property>
  <property name="kdenlive:original.meta.media.0.codec.width">1920</property>
  <property name="kdenlive:original.meta.media.0.codec.height">1080</property>
  <property name="kdenlive:original.meta.media.0.codec.rotate">0</property>
  <property name="kdenlive:original.meta.media.0.codec.frame_rate">23.976</property>
  <property name="kdenlive:original.meta.media.0.codec.pix_fmt">yuv420p</property>
  <property name="kdenlive:original.meta.media.0.codec.sample_aspect_ratio">1</property>
  <property name="kdenlive:original.meta.media.0.codec.colorspace">709</property>
  <property name="kdenlive:original.meta.media.0.codec.name">h264</property>
  <property name="kdenlive:original.meta.media.0.codec.long_name">H.264 / AVC / MPEG-4 AVC / MPEG-4 part 10</property>
  <property name="kdenlive:original.meta.media.0.codec.bit_rate">44735046</property>
  <property name="kdenlive:original.meta.attr.0.stream.creation_time.markup">2014-04-25T20:08:14.000000Z</property>
  <property name="kdenlive:original.meta.attr.0.stream.language.markup">eng</property>
  <property name="kdenlive:original.meta.attr.0.stream.handler_name.markup">Mainconcept MP4 Video Media Handler</property>
  <property name="kdenlive:original.meta.attr.0.stream.encoder.markup">AVC Coding</property>
  <property name="kdenlive:original.meta.attr.major_brand.markup">mp42</property>
  <property name="kdenlive:original.meta.attr.minor_version.markup">0</property>
  <property name="kdenlive:original.meta.attr.compatible_brands.markup">mp42mp41</property>
  <property name="kdenlive:original.meta.attr.creation_time.markup">2014-04-25T20:08:14.000000Z</property>
  <property name="kdenlive:original.seekable">1</property>
  <property name="kdenlive:original.width">1920</property>
  <property name="kdenlive:original.height">1080</property>
  <property name="kdenlive:original.meta.media.sample_aspect_num">1</property>
  <property name="kdenlive:original.meta.media.sample_aspect_den">1</property>
  <property name="kdenlive:original.aspect_ratio">1</property>
  <property name="kdenlive:original.audio_index">-1</property>
  <property name="kdenlive:original.video_index">0</property>
  <property name="kdenlive:original.mute_on_pause">0</property>
  <property name="kdenlive:original.mlt_service">avformat-novalidate</property>
  <property name="kdenlive:original.kdenlive:folderid">102</property>
  <property name="kdenlive:original.meta.media.frame_rate_num">2997</property>
  <property name="kdenlive:original.meta.media.frame_rate_den">125</property>
  <property name="kdenlive:original.meta.media.colorspace">709</property>
  <property name="kdenlive:original.meta.media.color_trc">2</property>
  <property name="kdenlive:original.meta.media.width">1920</property>
  <property name="kdenlive:original.meta.media.height">1080</property>
  <property name="kdenlive:original.meta.media.color_range">mpeg</property>
  <property name="kdenlive:original.kdenlive:id">104</property>
  <property name="kdenlive:original.kdenlive:file_size">167710203</property>
  <property name="kdenlive:original.kdenlive:file_hash">e9abd51630e84b005d32c49369d869ed</property>
  <property name="kdenlive:original.backup">1</property>
  <property name="global_feed">1</property>
  <property name="xml">was here</property>
  <property name="meta.media.nb_streams">1</property>
  <property name="meta.media.0.stream.type">video</property>
  <property name="meta.media.0.stream.frame_rate">23.976</property>
  <property name="meta.media.0.stream.sample_aspect_ratio">1</property>
  <property name="meta.media.0.codec.width">960</property>
  <property name="meta.media.0.codec.height">540</property>
  <property name="meta.media.0.codec.rotate">0</property>
  <property name="meta.media.0.codec.frame_rate">1000</property>
  <property name="meta.media.0.codec.pix_fmt">yuvj420p</property>
  <property name="meta.media.0.codec.sample_aspect_ratio">1</property>
  <property name="meta.media.0.codec.colorspace">601</property>
  <property name="meta.media.0.codec.name">mjpeg</property>
  <property name="meta.media.0.codec.long_name">MJPEG (Motion JPEG)</property>
  <property name="meta.media.0.codec.bit_rate">0</property>
  <property name="meta.attr.0.stream.language.markup">eng</property>
  <property name="meta.attr.0.stream.HANDLER_NAME.markup">Mainconcept MP4 Video Media Handler</property>
  <property name="meta.attr.0.stream.ENCODER.markup">Lavc58.91.100 mjpeg</property>
  <property name="meta.attr.0.stream.DURATION.markup">00:00:29.947000000</property>
  <property name="meta.attr.COMPATIBLE_BRANDS.markup">mp42mp41</property>
  <property name="meta.attr.MAJOR_BRAND.markup">mp42</property>
  <property name="meta.attr.MINOR_VERSION.markup">0</property>
  <property name="meta.attr.ENCODER.markup">Lavf58.45.100</property>
  <property name="meta.media.sample_aspect_num">1</property>
  <property name="meta.media.sample_aspect_den">1</property>
  <property name="meta.media.frame_rate_num">2997</property>
  <property name="meta.media.frame_rate_den">125</property>
  <property name="meta.media.colorspace">601</property>
  <property name="meta.media.color_trc">2</property>
  <property name="meta.media.width">960</property>
  <property name="meta.media.height">540</property>
  <property name="meta.media.color_range">full</property>
  <property name="meta.media.top_field_first">0</property>
  <property name="meta.media.progressive">1</property>
  <property name="set.test_audio">1</property>
  <property name="set.test_image">0</property>
 </producer>
 <producer id="producer176" in="00:00:00.000" out="00:01:17.967">
  <property name="length">2340</property>
  <property name="eof">pause</property>
  <property name="resource">/home/ryankelln/.cache/kdenlive/proxy/bb6ab234ef9c6e0b3dd4c3f1c7cbcfb3.mkv</property>
  <property name="audio_index">-1</property>
  <property name="video_index">0</property>
  <property name="mute_on_pause">0</property>
  <property name="mlt_service">avformat-novalidate</property>
  <property name="seekable">1</property>
  <property name="aspect_ratio">1</property>
  <property name="kdenlive:clipname">stories3_v1.mp4</property>
  <property name="kdenlive:folderid">84</property>
  <property name="kdenlive:id">61</property>
  <property name="kdenlive:file_size">74275789</property>
  <property name="kdenlive:file_hash">bb6ab234ef9c6e0b3dd4c3f1c7cbcfb3</property>
  <property name="kdenlive:proxy">/home/ryankelln/.cache/kdenlive/proxy/bb6ab234ef9c6e0b3dd4c3f1c7cbcfb3.mkv</property>
  <property name="kdenlive:originalurl">content/stories/stories3_v1.mp4</property>
  <property name="kdenlive:original.mlt_type">producer</property>
  <property name="kdenlive:original.in">0</property>
  <property name="kdenlive:original.out">2339</property>
  <property name="kdenlive:original.length">2340</property>
  <property name="kdenlive:original.eof">pause</property>
  <property name="kdenlive:original.resource">content/stories/stories3_v1.mp4</property>
  <property name="kdenlive:original.meta.media.nb_streams">1</property>
  <property name="kdenlive:original.meta.media.0.stream.type">video</property>
  <property name="kdenlive:original.meta.media.0.stream.frame_rate">25</property>
  <property name="kdenlive:original.meta.media.0.stream.sample_aspect_ratio">1</property>
  <property name="kdenlive:original.meta.media.0.codec.width">1200</property>
  <property name="kdenlive:original.meta.media.0.codec.height">1200</property>
  <property name="kdenlive:original.meta.media.0.codec.rotate">0</property>
  <property name="kdenlive:original.meta.media.0.codec.frame_rate">25</property>
  <property name="kdenlive:original.meta.media.0.codec.pix_fmt">yuvj420p</property>
  <property name="kdenlive:original.meta.media.0.codec.sample_aspect_ratio">1</property>
  <property name="kdenlive:original.meta.media.0.codec.colorspace">601</property>
  <property name="kdenlive:original.meta.media.0.codec.name">h264</property>
  <property name="kdenlive:original.meta.media.0.codec.long_name">H.264 / AVC / MPEG-4 AVC / MPEG-4 part 10</property>
  <property name="kdenlive:original.meta.media.0.codec.bit_rate">7616663</property>
  <property name="kdenlive:original.meta.attr.0.stream.handler_name.markup">VideoHandler</property>
  <property name="kdenlive:original.meta.attr.major_brand.markup">isom</property>
  <property name="kdenlive:original.meta.attr.minor_version.markup">512</property>
  <property name="kdenlive:original.meta.attr.compatible_brands.markup">isomiso2avc1mp41</property>
  <property name="kdenlive:original.meta.attr.encoder.markup">Lavf58.76.100</property>
  <property name="kdenlive:original.seekable">1</property>
  <property name="kdenlive:original.width">1200</property>
  <property name="kdenlive:original.height">1200</property>
  <property name="kdenlive:original.meta.media.sample_aspect_num">1</property>
  <property name="kdenlive:original.meta.media.sample_aspect_den">1</property>
  <property name="kdenlive:original.aspect_ratio">1</property>
  <property name="kdenlive:original.audio_index">-1</property>
  <property name="kdenlive:original.video_index">0</property>
  <property name="kdenlive:original.mute_on_pause">0</property>
  <property name="kdenlive:original.mlt_service">avformat-novalidate</property>
  <property name="kdenlive:original.kdenlive:folderid">84</property>
  <property name="kdenlive:original.meta.media.frame_rate_num">25</property>
  <property name="kdenlive:original.meta.media.frame_rate_den">1</property>
  <property name="kdenlive:original.meta.media.colorspace">601</property>
  <property name="kdenlive:original.meta.media.color_trc">2</property>
  <property name="kdenlive:original.meta.media.width">1200</property>
  <property name="kdenlive:original.meta.media.height">1200</property>
  <property name="kdenlive:original.meta.media.color_range">full</property>
  <property name="kdenlive:original.kdenlive:id">100</property>
  <property name="kdenlive:original.kdenlive:file_size">74275789</property>
  <property name="kdenlive:original.kdenlive:file_hash">bb6ab234ef9c6e0b3dd4c3f1c7cbcfb3</property>
  <property name="kdenlive:original.backup">1</property>
  <property name="global_feed">1</property>
  <property name="xml">was here</property>
  <property name="meta.media.nb_streams">1</property>
  <property name="meta.media.0.stream.type">video</property>
  <property name="meta.media.0.stream.frame_rate">25</property>
  <property name="meta.media.0.stream.sample_aspect_ratio">1</property>
  <property name="meta.media.0.codec.width">960</property>
  <property name="meta.media.0.codec.height">960</property>
  <property name="meta.media.0.codec.rotate">0</property>
  <property name="meta.media.0.codec.frame_rate">1000</property>
  <property name="meta.media.0.codec.pix_fmt">yuvj420p</property>
  <property name="meta.media.0.codec.sample_aspect_ratio">1</property>
  <property name="meta.media.0.codec.colorspace">601</property>
  <property name="meta.media.0.codec.name">mjpeg</property>
  <property name="meta.media.0.codec.long_name">MJPEG (Motion JPEG)</property>
  <property name="meta.media.0.codec.bit_rate">0</property>
  <property name="meta.attr.0.stream.HANDLER_NAME.markup">VideoHandler</property>
  <property name="meta.attr.0.stream.ENCODER.markup">Lavc58.91.100 mjpeg</property>
  <property name="meta.attr.0.stream.DURATION.markup">00:01:18.000000000</property>
  <property name="meta.attr.COMPATIBLE_BRANDS.markup">isomiso2avc1mp41</property>
  <property name="meta.attr.MAJOR_BRAND.markup">isom</property>
  <property name="meta.attr.MINOR_VERSION.markup">512</property>
  <property name="meta.attr.ENCODER.markup">Lavf58.45.100</property>
  <property name="meta.media.sample_aspect_num">1</property>
  <property name="meta.media.sample_aspect_den">1</property>
  <property name="meta.media.frame_rate_num">25</property>
  <property name="meta.media.frame_rate_den">1</property>
  <property name="meta.media.colorspace">601</property>
  <property name="meta.media.color_trc">2</property>
  <property name="meta.media.width">960</property>
  <property name="meta.media.height">960</property>
  <property name="meta.media.color_range">full</property>
  <property name="meta.media.top_field_first">0</property>
  <property name="meta.media.progressive">1</property>
  <property name="set.test_audio">1</property>
  <property name="set.test_image">0</property>
 </producer>
 <producer id="producer177" in="00:00:00.000" out="00:01:37.467">
  <property name="length">2925</property>
  <property name="eof">pause</property>
  <property name="resource">0.800000:/home/ryankelln/.cache/kdenlive/proxy/bb6ab234ef9c6e0b3dd4c3f1c7cbcfb3.mkv</property>
  <property name="aspect_ratio">1</property>
  <property name="meta.media.nb_streams">1</property>
  <property name="meta.media.0.stream.type">video</property>
  <property name="meta.media.0.stream.frame_rate">25</property>
  <property name="meta.media.0.stream.sample_aspect_ratio">1</property>
  <property name="meta.media.0.codec.width">960</property>
  <property name="meta.media.0.codec.height">960</property>
  <property name="meta.media.0.codec.rotate">0</property>
  <property name="meta.media.0.codec.frame_rate">1000</property>
  <property name="meta.media.0.codec.pix_fmt">yuvj420p</property>
  <property name="meta.media.0.codec.sample_aspect_ratio">1</property>
  <property name="meta.media.0.codec.colorspace">601</property>
  <property name="meta.media.0.codec.name">mjpeg</property>
  <property name="meta.media.0.codec.long_name">MJPEG (Motion JPEG)</property>
  <property name="meta.media.0.codec.bit_rate">0</property>
  <property name="meta.attr.0.stream.HANDLER_NAME.markup">VideoHandler</property>
  <property name="meta.attr.0.stream.ENCODER.markup">Lavc58.91.100 mjpeg</property>
  <property name="meta.attr.0.stream.DURATION.markup">00:01:18.000000000</property>
  <property name="meta.attr.COMPATIBLE_BRANDS.markup">isomiso2avc1mp41</property>
  <property name="meta.attr.MAJOR_BRAND.markup">isom</property>
  <property name="meta.attr.MINOR_VERSION.markup">512</property>
  <property name="meta.attr.ENCODER.markup">Lavf58.45.100</property>
  <property name="seekable">1</property>
  <property name="meta.media.sample_aspect_num">1</property>
  <property name="meta.media.sample_aspect_den">1</property>
  <property name="audio_index">-1</property>
  <property name="video_index">0</property>
  <property name="mute_on_pause">1</property>
  <property name="warp_speed">0.8</property>
  <property name="warp_resource">/home/ryankelln/.cache/kdenlive/proxy/bb6ab234ef9c6e0b3dd4c3f1c7cbcfb3.mkv</property>
  <property name="mlt_service">timewarp</property>
  <property name="kdenlive:proxy">/home/ryankelln/.cache/kdenlive/proxy/bb6ab234ef9c6e0b3dd4c3f1c7cbcfb3.mkv</property>
  <property name="kdenlive:originalurl">content/stories/stories3_v1.mp4</property>
  <property name="set.test_audio">1</property>
  <property name="set.test_image">0</property>
  <property name="kdenlive:id">61</property>
  <property name="warp_pitch">0</property>
  <property name="meta.media.frame_rate_num">25</property>
  <property name="meta.media.frame_rate_den">1</property>
  <property name="meta.media.colorspace">601</property>
  <property name="meta.media.color_trc">2</property>
  <property name="meta.media.width">960</property>
  <property name="meta.media.height">960</property>
  <property name="meta.media.color_range">full</property>
  <property name="meta.media.top_field_first">0</property>
  <property name="meta.media.progressive">1</property>
 </producer>
 <producer id="producer178" in="00:00:00.000" out="00:02:20.033">
  <property name="length">4202</property>
  <property name="eof">pause</property>
  <property name="resource">0.556818:/home/ryankelln/.cache/kdenlive/proxy/bb6ab234ef9c6e0b3dd4c3f1c7cbcfb3.mkv</property>
  <property name="aspect_ratio">1</property>
  <property name="meta.media.nb_streams">1</property>
  <property name="meta.media.0.stream.type">video</property>
  <property name="meta.media.0.stream.frame_rate">25</property>
  <property name="meta.media.0.stream.sample_aspect_ratio">1</property>
  <property name="meta.media.0.codec.width">960</property>
  <property name="meta.media.0.codec.height">960</property>
  <property name="meta.media.0.codec.rotate">0</property>
  <property name="meta.media.0.codec.frame_rate">1000</property>
  <property name="meta.media.0.codec.pix_fmt">yuvj420p</property>
  <property name="meta.media.0.codec.sample_aspect_ratio">1</property>
  <property name="meta.media.0.codec.colorspace">601</property>
  <property name="meta.media.0.codec.name">mjpeg</property>
  <property name="meta.media.0.codec.long_name">MJPEG (Motion JPEG)</property>
  <property name="meta.media.0.codec.bit_rate">0</property>
  <property name="meta.attr.0.stream.HANDLER_NAME.markup">VideoHandler</property>
  <property name="meta.attr.0.stream.ENCODER.markup">Lavc58.91.100 mjpeg</property>
  <property name="meta.attr.0.stream.DURATION.markup">00:01:18.000000000</property>
  <property name="meta.attr.COMPATIBLE_BRANDS.markup">isomiso2avc1mp41</property>
  <property name="meta.attr.MAJOR_BRAND.markup">isom</property>
  <property name="meta.attr.MINOR_VERSION.markup">512</property>
  <property name="meta.attr.ENCODER.markup">Lavf58.45.100</property>
  <property name="seekable">1</property>
  <property name="meta.media.sample_aspect_num">1</property>
  <property name="meta.media.sample_aspect_den">1</property>
  <property name="audio_index">-1</property>
  <property name="video_index">0</property>
  <property name="mute_on_pause">1</property>
  <property name="warp_speed">0.556818</property>
  <property name="warp_resource">/home/ryankelln/.cache/kdenlive/proxy/bb6ab234ef9c6e0b3dd4c3f1c7cbcfb3.mkv</property>
  <property name="mlt_service">timewarp</property>
  <property name="kdenlive:proxy">/home/ryankelln/.cache/kdenlive/proxy/bb6ab234ef9c6e0b3dd4c3f1c7cbcfb3.mkv</property>
  <property name="kdenlive:originalurl">content/stories/stories3_v1.mp4</property>
  <property name="set.test_audio">1</property>
  <property name="set.test_image">0</property>
  <property name="kdenlive:id">61</property>
  <property name="warp_pitch">0</property>
  <property name="meta.media.frame_rate_num">25</property>
  <property name="meta.media.frame_rate_den">1</property>
  <property name="meta.media.colorspace">601</property>
  <property name="meta.media.color_trc">2</property>
  <property name="meta.media.width">960</property>
  <property name="meta.media.height">960</property>
  <property name="meta.media.color_range">full</property>
  <property name="meta.media.top_field_first">0</property>
  <property name="meta.media.progressive">1</property>
 </producer>
 <producer id="producer179" in="00:00:00.000" out="00:01:31.367">
  <property name="length">2742</property>
  <property name="eof">pause</property>
  <property name="resource">0.853503:/home/ryankelln/.cache/kdenlive/proxy/bb6ab234ef9c6e0b3dd4c3f1c7cbcfb3.mkv</property>
  <property name="aspect_ratio">1</property>
  <property name="meta.media.nb_streams">1</property>
  <property name="meta.media.0.stream.type">video</property>
  <property name="meta.media.0.stream.frame_rate">25</property>
  <property name="meta.media.0.stream.sample_aspect_ratio">1</property>
  <property name="meta.media.0.codec.width">960</property>
  <property name="meta.media.0.codec.height">960</property>
  <property name="meta.media.0.codec.rotate">0</property>
  <property name="meta.media.0.codec.frame_rate">1000</property>
  <property name="meta.media.0.codec.pix_fmt">yuvj420p</property>
  <property name="meta.media.0.codec.sample_aspect_ratio">1</property>
  <property name="meta.media.0.codec.colorspace">601</property>
  <property name="meta.media.0.codec.name">mjpeg</property>
  <property name="meta.media.0.codec.long_name">MJPEG (Motion JPEG)</property>
  <property name="meta.media.0.codec.bit_rate">0</property>
  <property name="meta.attr.0.stream.HANDLER_NAME.markup">VideoHandler</property>
  <property name="meta.attr.0.stream.ENCODER.markup">Lavc58.91.100 mjpeg</property>
  <property name="meta.attr.0.stream.DURATION.markup">00:01:18.000000000</property>
  <property name="meta.attr.COMPATIBLE_BRANDS.markup">isomiso2avc1mp41</property>
  <property name="meta.attr.MAJOR_BRAND.markup">isom</property>
  <property name="meta.attr.MINOR_VERSION.markup">512</property>
  <property name="meta.attr.ENCODER.markup">Lavf58.45.100</property>
  <property name="seekable">1</property>
  <property name="meta.media.sample_aspect_num">1</property>
  <property name="meta.media.sample_aspect_den">1</property>
  <property name="audio_index">-1</property>
  <property name="video_index">0</property>
  <property name="mute_on_pause">1</property>
  <property name="warp_speed">0.853503</property>
  <property name="warp_resource">/home/ryankelln/.cache/kdenlive/proxy/bb6ab234ef9c6e0b3dd4c3f1c7cbcfb3.mkv</property>
  <property name="mlt_service">timewarp</property>
  <property name="kdenlive:proxy">/home/ryankelln/.cache/kdenlive/proxy/bb6ab234ef9c6e0b3dd4c3f1c7cbcfb3.mkv</property>
  <property name="kdenlive:originalurl">content/stories/stories3_v1.mp4</property>
  <property name="set.test_audio">1</property>
  <property name="set.test_image">0</property>
  <property name="kdenlive:id">61</property>
  <property name="warp_pitch">0</property>
  <property name="meta.media.frame_rate_num">25</property>
  <property name="meta.media.frame_rate_den">1</property>
  <property name="meta.media.colorspace">601</property>
  <property name="meta.media.color_trc">2</property>
  <property name="meta.media.width">960</property>
  <property name="meta.media.height">960</property>
  <property name="meta.media.color_range">full</property>
  <property name="meta.media.top_field_first">0</property>
  <property name="meta.media.progressive">1</property>
 </producer>
 <producer id="producer180" in="00:00:00.000" out="00:00:54.067">
  <property name="length">1623</property>
  <property name="eof">pause</property>
  <property name="resource">1.441860:/home/ryankelln/.cache/kdenlive/proxy/bb6ab234ef9c6e0b3dd4c3f1c7cbcfb3.mkv</property>
  <property name="aspect_ratio">1</property>
  <property name="meta.media.nb_streams">1</property>
  <property name="meta.media.0.stream.type">video</property>
  <property name="meta.media.0.stream.frame_rate">25</property>
  <property name="meta.media.0.stream.sample_aspect_ratio">1</property>
  <property name="meta.media.0.codec.width">960</property>
  <property name="meta.media.0.codec.height">960</property>
  <property name="meta.media.0.codec.rotate">0</property>
  <property name="meta.media.0.codec.frame_rate">1000</property>
  <property name="meta.media.0.codec.pix_fmt">yuvj420p</property>
  <property name="meta.media.0.codec.sample_aspect_ratio">1</property>
  <property name="meta.media.0.codec.colorspace">601</property>
  <property name="meta.media.0.codec.name">mjpeg</property>
  <property name="meta.media.0.codec.long_name">MJPEG (Motion JPEG)</property>
  <property name="meta.media.0.codec.bit_rate">0</property>
  <property name="meta.attr.0.stream.HANDLER_NAME.markup">VideoHandler</property>
  <property name="meta.attr.0.stream.ENCODER.markup">Lavc58.91.100 mjpeg</property>
  <property name="meta.attr.0.stream.DURATION.markup">00:01:18.000000000</property>
  <property name="meta.attr.COMPATIBLE_BRANDS.markup">isomiso2avc1mp41</property>
  <property name="meta.attr.MAJOR_BRAND.markup">isom</property>
  <property name="meta.attr.MINOR_VERSION.markup">512</property>
  <property name="meta.attr.ENCODER.markup">Lavf58.45.100</property>
  <property name="seekable">1</property>
  <property name="meta.media.sample_aspect_num">1</property>
  <property name="meta.media.sample_aspect_den">1</property>
  <property name="audio_index">-1</property>
  <property name="video_index">0</property>
  <property name="mute_on_pause">1</property>
  <property name="warp_speed">1.44186</property>
  <property name="warp_resource">/home/ryankelln/.cache/kdenlive/proxy/bb6ab234ef9c6e0b3dd4c3f1c7cbcfb3.mkv</property>
  <property name="mlt_service">timewarp</property>
  <property name="kdenlive:proxy">/home/ryankelln/.cache/kdenlive/proxy/bb6ab234ef9c6e0b3dd4c3f1c7cbcfb3.mkv</property>
  <property name="kdenlive:originalurl">content/stories/stories3_v1.mp4</property>
  <property name="set.test_audio">1</property>
  <property name="set.test_image">0</property>
  <property name="kdenlive:id">61</property>
  <property name="warp_pitch">0</property>
  <property name="meta.media.frame_rate_num">25</property>
  <property name="meta.media.frame_rate_den">1</property>
  <property name="meta.media.colorspace">601</property>
  <property name="meta.media.color_trc">2</property>
  <property name="meta.media.width">960</property>
  <property name="meta.media.height">960</property>
  <property name="meta.media.color_range">full</property>
  <property name="meta.media.top_field_first">0</property>
  <property name="meta.media.progressive">1</property>
 </producer>
 <producer id="producer181" in="00:00:00.000" out="00:02:10.333">
  <property name="length">3911</property>
  <property name="eof">pause</property>
  <property name="resource">0.598291:/home/ryankelln/.cache/kdenlive/proxy/bb6ab234ef9c6e0b3dd4c3f1c7cbcfb3.mkv</property>
  <property name="aspect_ratio">1</property>
  <property name="meta.media.nb_streams">1</property>
  <property name="meta.media.0.stream.type">video</property>
  <property name="meta.media.0.stream.frame_rate">25</property>
  <property name="meta.media.0.stream.sample_aspect_ratio">1</property>
  <property name="meta.media.0.codec.width">960</property>
  <property name="meta.media.0.codec.height">960</property>
  <property name="meta.media.0.codec.rotate">0</property>
  <property name="meta.media.0.codec.frame_rate">1000</property>
  <property name="meta.media.0.codec.pix_fmt">yuvj420p</property>
  <property name="meta.media.0.codec.sample_aspect_ratio">1</property>
  <property name="meta.media.0.codec.colorspace">601</property>
  <property name="meta.media.0.codec.name">mjpeg</property>
  <property name="meta.media.0.codec.long_name">MJPEG (Motion JPEG)</property>
  <property name="meta.media.0.codec.bit_rate">0</property>
  <property name="meta.attr.0.stream.HANDLER_NAME.markup">VideoHandler</property>
  <property name="meta.attr.0.stream.ENCODER.markup">Lavc58.91.100 mjpeg</property>
  <property name="meta.attr.0.stream.DURATION.markup">00:01:18.000000000</property>
  <property name="meta.attr.COMPATIBLE_BRANDS.markup">isomiso2avc1mp41</property>
  <property name="meta.attr.MAJOR_BRAND.markup">isom</property>
  <property name="meta.attr.MINOR_VERSION.markup">512</property>
  <property name="meta.attr.ENCODER.markup">Lavf58.45.100</property>
  <property name="seekable">1</property>
  <property name="meta.media.sample_aspect_num">1</property>
  <property name="meta.media.sample_aspect_den">1</property>
  <property name="audio_index">-1</property>
  <property name="video_index">0</property>
  <property name="mute_on_pause">1</property>
  <property name="warp_speed">0.598291</property>
  <property name="warp_resource">/home/ryankelln/.cache/kdenlive/proxy/bb6ab234ef9c6e0b3dd4c3f1c7cbcfb3.mkv</property>
  <property name="mlt_service">timewarp</property>
  <property name="kdenlive:proxy">/home/ryankelln/.cache/kdenlive/proxy/bb6ab234ef9c6e0b3dd4c3f1c7cbcfb3.mkv</property>
  <property name="kdenlive:originalurl">content/stories/stories3_v1.mp4</property>
  <property name="set.test_audio">1</property>
  <property name="set.test_image">0</property>
  <property name="kdenlive:id">61</property>
  <property name="warp_pitch">0</property>
  <property name="meta.media.frame_rate_num">25</property>
  <property name="meta.media.frame_rate_den">1</property>
  <property name="meta.media.colorspace">601</property>
  <property name="meta.media.color_trc">2</property>
  <property name="meta.media.width">960</property>
  <property name="meta.media.height">960</property>
  <property name="meta.media.color_range">full</property>
  <property name="meta.media.top_field_first">0</property>
  <property name="meta.media.progressive">1</property>
 </producer>
 <producer id="producer182" in="00:00:00.000" out="00:01:13.467">
  <property name="length">2205</property>
  <property name="eof">pause</property>
  <property name="resource">1.061170:/home/ryankelln/.cache/kdenlive/proxy/bb6ab234ef9c6e0b3dd4c3f1c7cbcfb3.mkv</property>
  <property name="aspect_ratio">1</property>
  <property name="meta.media.nb_streams">1</property>
  <property name="meta.media.0.stream.type">video</property>
  <property name="meta.media.0.stream.frame_rate">25</property>
  <property name="meta.media.0.stream.sample_aspect_ratio">1</property>
  <property name="meta.media.0.codec.width">960</property>
  <property name="meta.media.0.codec.height">960</property>
  <property name="meta.media.0.codec.rotate">0</property>
  <property name="meta.media.0.codec.frame_rate">1000</property>
  <property name="meta.media.0.codec.pix_fmt">yuvj420p</property>
  <property name="meta.media.0.codec.sample_aspect_ratio">1</property>
  <property name="meta.media.0.codec.colorspace">601</property>
  <property name="meta.media.0.codec.name">mjpeg</property>
  <property name="meta.media.0.codec.long_name">MJPEG (Motion JPEG)</property>
  <property name="meta.media.0.codec.bit_rate">0</property>
  <property name="meta.attr.0.stream.HANDLER_NAME.markup">VideoHandler</property>
  <property name="meta.attr.0.stream.ENCODER.markup">Lavc58.91.100 mjpeg</property>
  <property name="meta.attr.0.stream.DURATION.markup">00:01:18.000000000</property>
  <property name="meta.attr.COMPATIBLE_BRANDS.markup">isomiso2avc1mp41</property>
  <property name="meta.attr.MAJOR_BRAND.markup">isom</property>
  <property name="meta.attr.MINOR_VERSION.markup">512</property>
  <property name="meta.attr.ENCODER.markup">Lavf58.45.100</property>
  <property name="seekable">1</property>
  <property name="meta.media.sample_aspect_num">1</property>
  <property name="meta.media.sample_aspect_den">1</property>
  <property name="audio_index">-1</property>
  <property name="video_index">0</property>
  <property name="mute_on_pause">1</property>
  <property name="warp_speed">1.06117</property>
  <property name="warp_resource">/home/ryankelln/.cache/kdenlive/proxy/bb6ab234ef9c6e0b3dd4c3f1c7cbcfb3.mkv</property>
  <property name="mlt_service">timewarp</property>
  <property name="kdenlive:proxy">/home/ryankelln/.cache/kdenlive/proxy/bb6ab234ef9c6e0b3dd4c3f1c7cbcfb3.mkv</property>
  <property name="kdenlive:originalurl">content/stories/stories3_v1.mp4</property>
  <property name="set.test_audio">1</property>
  <property name="set.test_image">0</property>
  <property name="kdenlive:id">61</property>
  <property name="warp_pitch">0</property>
  <property name="meta.media.frame_rate_num">25</property>
  <property name="meta.media.frame_rate_den">1</property>
  <property name="meta.media.colorspace">601</property>
  <property name="meta.media.color_trc">2</property>
  <property name="meta.media.width">960</property>
  <property name="meta.media.height">960</property>
  <property name="meta.media.color_range">full</property>
  <property name="meta.media.top_field_first">0</property>
  <property name="meta.media.progressive">1</property>
 </producer>
 <producer id="producer183" in="00:00:00.000" out="00:00:38.833">
  <property name="length">1167</property>
  <property name="eof">pause</property>
  <property name="resource">/home/ryankelln/.cache/kdenlive/proxy/30ca3f1d3c9f18d29159742999b79d39.mkv</property>
  <property name="audio_index">1</property>
  <property name="video_index">0</property>
  <property name="mute_on_pause">0</property>
  <property name="mlt_service">avformat-novalidate</property>
  <property name="seekable">1</property>
  <property name="aspect_ratio">1</property>
  <property name="kdenlive:clipname">2021-05-18 23-01-54.mp4</property>
  <property name="kdenlive:folderid">-1</property>
  <property name="kdenlive:id">64</property>
  <property name="kdenlive:file_size">12540190</property>
  <property name="kdenlive:file_hash">30ca3f1d3c9f18d29159742999b79d39</property>
  <property name="kdenlive:proxy">/home/ryankelln/.cache/kdenlive/proxy/30ca3f1d3c9f18d29159742999b79d39.mkv</property>
  <property name="kdenlive:originalurl">/home/ryankelln/Documents/Projects/Active/Sound_Escapes/Mac/from_sol/golden-ratio/2021-05-18 23-01-54.mp4</property>
  <property name="kdenlive:original.mlt_type">producer</property>
  <property name="kdenlive:original.in">0</property>
  <property name="kdenlive:original.out">1166</property>
  <property name="kdenlive:original.length">1167</property>
  <property name="kdenlive:original.eof">pause</property>
  <property name="kdenlive:original.resource">/home/ryankelln/Documents/Projects/Active/Sound_Escapes/Mac/from_sol/golden-ratio/2021-05-18 23-01-54.mp4</property>
  <property name="kdenlive:original.meta.media.nb_streams">2</property>
  <property name="kdenlive:original.meta.media.0.stream.type">video</property>
  <property name="kdenlive:original.meta.media.0.stream.frame_rate">30</property>
  <property name="kdenlive:original.meta.media.0.stream.sample_aspect_ratio">0</property>
  <property name="kdenlive:original.meta.media.0.codec.width">1280</property>
  <property name="kdenlive:original.meta.media.0.codec.height">720</property>
  <property name="kdenlive:original.meta.media.0.codec.rotate">0</property>
  <property name="kdenlive:original.meta.media.0.codec.frame_rate">30</property>
  <property name="kdenlive:original.meta.media.0.codec.pix_fmt">yuv420p</property>
  <property name="kdenlive:original.meta.media.0.codec.sample_aspect_ratio">1</property>
  <property name="kdenlive:original.meta.media.0.codec.colorspace">709</property>
  <property name="kdenlive:original.meta.media.0.codec.color_trc">1</property>
  <property name="kdenlive:original.meta.media.0.codec.name">h264</property>
  <property name="kdenlive:original.meta.media.0.codec.long_name">H.264 / AVC / MPEG-4 AVC / MPEG-4 part 10</property>
  <property name="kdenlive:original.meta.media.0.codec.bit_rate">2568172</property>
  <property name="kdenlive:original.meta.attr.0.stream.handler_name.markup">VideoHandler</property>
  <property name="kdenlive:original.meta.media.1.stream.type">audio</property>
  <property name="kdenlive:original.meta.media.1.codec.sample_fmt">fltp</property>
  <property name="kdenlive:original.meta.media.1.codec.sample_rate">48000</property>
  <property name="kdenlive:original.meta.media.1.codec.channels">2</property>
  <property name="kdenlive:original.meta.media.1.codec.name">aac</property>
  <property name="kdenlive:original.meta.media.1.codec.long_name">AAC (Advanced Audio Coding)</property>
  <property name="kdenlive:original.meta.media.1.codec.bit_rate">2275</property>
  <property name="kdenlive:original.meta.attr.1.stream.handler_name.markup">SoundHandler</property>
  <property name="kdenlive:original.meta.attr.major_brand.markup">isom</property>
  <property name="kdenlive:original.meta.attr.minor_version.markup">512</property>
  <property name="kdenlive:original.meta.attr.compatible_brands.markup">isomiso2avc1mp41</property>
  <property name="kdenlive:original.meta.attr.encoder.markup">Lavf58.29.100</property>
  <property name="kdenlive:original.seekable">1</property>
  <property name="kdenlive:original.width">1280</property>
  <property name="kdenlive:original.height">720</property>
  <property name="kdenlive:original.meta.media.sample_aspect_num">1</property>
  <property name="kdenlive:original.meta.media.sample_aspect_den">1</property>
  <property name="kdenlive:original.aspect_ratio">1</property>
  <property name="kdenlive:original.audio_index">1</property>
  <property name="kdenlive:original.video_index">0</property>
  <property name="kdenlive:original.mute_on_pause">0</property>
  <property name="kdenlive:original.mlt_service">avformat-novalidate</property>
  <property name="kdenlive:original.kdenlive:folderid">-1</property>
  <property name="kdenlive:original.meta.media.frame_rate_num">30</property>
  <property name="kdenlive:original.meta.media.frame_rate_den">1</property>
  <property name="kdenlive:original.meta.media.colorspace">709</property>
  <property name="kdenlive:original.meta.media.color_trc">1</property>
  <property name="kdenlive:original.meta.media.width">1280</property>
  <property name="kdenlive:original.meta.media.height">720</property>
  <property name="kdenlive:original.meta.media.color_range">mpeg</property>
  <property name="kdenlive:original.kdenlive:id">77</property>
  <property name="kdenlive:original.kdenlive:file_size">12540190</property>
  <property name="kdenlive:original.kdenlive:file_hash">30ca3f1d3c9f18d29159742999b79d39</property>
  <property name="kdenlive:original.backup">1</property>
  <property name="global_feed">1</property>
  <property name="xml">was here</property>
  <property name="meta.media.nb_streams">2</property>
  <property name="meta.media.0.stream.type">video</property>
  <property name="meta.media.0.stream.frame_rate">30</property>
  <property name="meta.media.0.stream.sample_aspect_ratio">1</property>
  <property name="meta.media.0.codec.width">960</property>
  <property name="meta.media.0.codec.height">540</property>
  <property name="meta.media.0.codec.rotate">0</property>
  <property name="meta.media.0.codec.frame_rate">1000</property>
  <property name="meta.media.0.codec.pix_fmt">yuvj420p</property>
  <property name="meta.media.0.codec.sample_aspect_ratio">1</property>
  <property name="meta.media.0.codec.colorspace">601</property>
  <property name="meta.media.0.codec.name">mjpeg</property>
  <property name="meta.media.0.codec.long_name">MJPEG (Motion JPEG)</property>
  <property name="meta.media.0.codec.bit_rate">0</property>
  <property name="meta.attr.0.stream.HANDLER_NAME.markup">VideoHandler</property>
  <property name="meta.attr.0.stream.ENCODER.markup">Lavc58.91.100 mjpeg</property>
  <property name="meta.attr.0.stream.DURATION.markup">00:00:38.866000000</property>
  <property name="meta.media.1.stream.type">audio</property>
  <property name="meta.media.1.codec.sample_fmt">s16</property>
  <property name="meta.media.1.codec.sample_rate">48000</property>
  <property name="meta.media.1.codec.channels">2</property>
  <property name="meta.media.1.codec.name">pcm_s16le</property>
  <property name="meta.media.1.codec.long_name">PCM signed 16-bit little-endian</property>
  <property name="meta.media.1.codec.bit_rate">1536000</property>
  <property name="meta.attr.1.stream.HANDLER_NAME.markup">SoundHandler</property>
  <property name="meta.attr.1.stream.ENCODER.markup">Lavc58.91.100 pcm_s16le</property>
  <property name="meta.attr.1.stream.DURATION.markup">00:00:38.848000000</property>
  <property name="meta.attr.COMPATIBLE_BRANDS.markup">isomiso2avc1mp41</property>
  <property name="meta.attr.MAJOR_BRAND.markup">isom</property>
  <property name="meta.attr.MINOR_VERSION.markup">512</property>
  <property name="meta.attr.ENCODER.markup">Lavf58.45.100</property>
  <property name="meta.media.sample_aspect_num">1</property>
  <property name="meta.media.sample_aspect_den">1</property>
  <property name="meta.media.frame_rate_num">30</property>
  <property name="meta.media.frame_rate_den">1</property>
  <property name="meta.media.colorspace">601</property>
  <property name="meta.media.color_trc">2</property>
  <property name="meta.media.width">960</property>
  <property name="meta.media.height">540</property>
  <property name="meta.media.color_range">full</property>
  <property name="set.test_audio">1</property>
  <property name="set.test_image">0</property>
  <property name="meta.media.top_field_first">0</property>
  <property name="meta.media.progressive">1</property>
 </producer>
 <producer id="producer184" in="00:00:00.000" out="00:00:38.833">
  <property name="length">1167</property>
  <property name="eof">pause</property>
  <property name="resource">-1.000000:/home/ryankelln/.cache/kdenlive/proxy/30ca3f1d3c9f18d29159742999b79d39.mkv</property>
  <property name="aspect_ratio">1</property>
  <property name="meta.media.nb_streams">2</property>
  <property name="meta.media.0.stream.type">video</property>
  <property name="meta.media.0.stream.frame_rate">30</property>
  <property name="meta.media.0.stream.sample_aspect_ratio">1</property>
  <property name="meta.media.0.codec.width">960</property>
  <property name="meta.media.0.codec.height">540</property>
  <property name="meta.media.0.codec.rotate">0</property>
  <property name="meta.media.0.codec.frame_rate">1000</property>
  <property name="meta.media.0.codec.pix_fmt">yuvj420p</property>
  <property name="meta.media.0.codec.sample_aspect_ratio">1</property>
  <property name="meta.media.0.codec.colorspace">601</property>
  <property name="meta.media.0.codec.name">mjpeg</property>
  <property name="meta.media.0.codec.long_name">MJPEG (Motion JPEG)</property>
  <property name="meta.media.0.codec.bit_rate">0</property>
  <property name="meta.attr.0.stream.HANDLER_NAME.markup">VideoHandler</property>
  <property name="meta.attr.0.stream.ENCODER.markup">Lavc58.91.100 mjpeg</property>
  <property name="meta.attr.0.stream.DURATION.markup">00:00:38.866000000</property>
  <property name="meta.media.1.stream.type">audio</property>
  <property name="meta.media.1.codec.sample_fmt">s16</property>
  <property name="meta.media.1.codec.sample_rate">48000</property>
  <property name="meta.media.1.codec.channels">2</property>
  <property name="meta.media.1.codec.name">pcm_s16le</property>
  <property name="meta.media.1.codec.long_name">PCM signed 16-bit little-endian</property>
  <property name="meta.media.1.codec.bit_rate">1536000</property>
  <property name="meta.attr.1.stream.HANDLER_NAME.markup">SoundHandler</property>
  <property name="meta.attr.1.stream.ENCODER.markup">Lavc58.91.100 pcm_s16le</property>
  <property name="meta.attr.1.stream.DURATION.markup">00:00:38.848000000</property>
  <property name="meta.attr.COMPATIBLE_BRANDS.markup">isomiso2avc1mp41</property>
  <property name="meta.attr.MAJOR_BRAND.markup">isom</property>
  <property name="meta.attr.MINOR_VERSION.markup">512</property>
  <property name="meta.attr.ENCODER.markup">Lavf58.45.100</property>
  <property name="seekable">1</property>
  <property name="meta.media.sample_aspect_num">1</property>
  <property name="meta.media.sample_aspect_den">1</property>
  <property name="audio_index">1</property>
  <property name="video_index">0</property>
  <property name="mute_on_pause">1</property>
  <property name="warp_speed">-1</property>
  <property name="warp_resource">/home/ryankelln/.cache/kdenlive/proxy/30ca3f1d3c9f18d29159742999b79d39.mkv</property>
  <property name="mlt_service">timewarp</property>
  <property name="kdenlive:proxy">/home/ryankelln/.cache/kdenlive/proxy/30ca3f1d3c9f18d29159742999b79d39.mkv</property>
  <property name="kdenlive:originalurl">/home/ryankelln/Documents/Projects/Active/Sound_Escapes/Mac/from_sol/golden-ratio/2021-05-18 23-01-54.mp4</property>
  <property name="set.test_audio">1</property>
  <property name="set.test_image">0</property>
  <property name="kdenlive:id">64</property>
  <property name="warp_pitch">0</property>
  <property name="meta.media.frame_rate_num">30</property>
  <property name="meta.media.frame_rate_den">1</property>
  <property name="meta.media.colorspace">601</property>
  <property name="meta.media.color_trc">2</property>
  <property name="meta.media.width">960</property>
  <property name="meta.media.height">540</property>
  <property name="meta.media.color_range">full</property>
  <property name="meta.media.top_field_first">0</property>
  <property name="meta.media.progressive">1</property>
 </producer>
 <producer id="producer185" in="00:00:00.000" out="00:00:03.867">
  <property name="length">117</property>
  <property name="eof">pause</property>
  <property name="resource">10.000000:/home/ryankelln/.cache/kdenlive/proxy/30ca3f1d3c9f18d29159742999b79d39.mkv</property>
  <property name="aspect_ratio">1</property>
  <property name="meta.media.nb_streams">2</property>
  <property name="meta.media.0.stream.type">video</property>
  <property name="meta.media.0.stream.frame_rate">30</property>
  <property name="meta.media.0.stream.sample_aspect_ratio">1</property>
  <property name="meta.media.0.codec.width">960</property>
  <property name="meta.media.0.codec.height">540</property>
  <property name="meta.media.0.codec.rotate">0</property>
  <property name="meta.media.0.codec.frame_rate">1000</property>
  <property name="meta.media.0.codec.pix_fmt">yuvj420p</property>
  <property name="meta.media.0.codec.sample_aspect_ratio">1</property>
  <property name="meta.media.0.codec.colorspace">601</property>
  <property name="meta.media.0.codec.name">mjpeg</property>
  <property name="meta.media.0.codec.long_name">MJPEG (Motion JPEG)</property>
  <property name="meta.media.0.codec.bit_rate">0</property>
  <property name="meta.attr.0.stream.HANDLER_NAME.markup">VideoHandler</property>
  <property name="meta.attr.0.stream.ENCODER.markup">Lavc58.91.100 mjpeg</property>
  <property name="meta.attr.0.stream.DURATION.markup">00:00:38.866000000</property>
  <property name="meta.media.1.stream.type">audio</property>
  <property name="meta.media.1.codec.sample_fmt">s16</property>
  <property name="meta.media.1.codec.sample_rate">48000</property>
  <property name="meta.media.1.codec.channels">2</property>
  <property name="meta.media.1.codec.name">pcm_s16le</property>
  <property name="meta.media.1.codec.long_name">PCM signed 16-bit little-endian</property>
  <property name="meta.media.1.codec.bit_rate">1536000</property>
  <property name="meta.attr.1.stream.HANDLER_NAME.markup">SoundHandler</property>
  <property name="meta.attr.1.stream.ENCODER.markup">Lavc58.91.100 pcm_s16le</property>
  <property name="meta.attr.1.stream.DURATION.markup">00:00:38.848000000</property>
  <property name="meta.attr.COMPATIBLE_BRANDS.markup">isomiso2avc1mp41</property>
  <property name="meta.attr.MAJOR_BRAND.markup">isom</property>
  <property name="meta.attr.MINOR_VERSION.markup">512</property>
  <property name="meta.attr.ENCODER.markup">Lavf58.45.100</property>
  <property name="seekable">1</property>
  <property name="meta.media.sample_aspect_num">1</property>
  <property name="meta.media.sample_aspect_den">1</property>
  <property name="audio_index">1</property>
  <property name="video_index">0</property>
  <property name="mute_on_pause">1</property>
  <property name="warp_speed">10</property>
  <property name="warp_resource">/home/ryankelln/.cache/kdenlive/proxy/30ca3f1d3c9f18d29159742999b79d39.mkv</property>
  <property name="mlt_service">timewarp</property>
  <property name="kdenlive:proxy">/home/ryankelln/.cache/kdenlive/proxy/30ca3f1d3c9f18d29159742999b79d39.mkv</property>
  <property name="kdenlive:originalurl">/home/ryankelln/Documents/Projects/Active/Sound_Escapes/Mac/from_sol/golden-ratio/2021-05-18 23-01-54.mp4</property>
  <property name="set.test_audio">1</property>
  <property name="set.test_image">0</property>
  <property name="kdenlive:id">64</property>
  <property name="warp_pitch">0</property>
  <property name="meta.media.frame_rate_num">30</property>
  <property name="meta.media.frame_rate_den">1</property>
  <property name="meta.media.colorspace">601</property>
  <property name="meta.media.color_trc">2</property>
  <property name="meta.media.width">960</property>
  <property name="meta.media.height">540</property>
  <property name="meta.media.color_range">full</property>
  <property name="meta.media.top_field_first">0</property>
  <property name="meta.media.progressive">1</property>
 </producer>
 <producer id="producer186" in="00:00:00.000" out="00:00:07.767">
  <property name="length">234</property>
  <property name="eof">pause</property>
  <property name="resource">4.980769:/home/ryankelln/.cache/kdenlive/proxy/30ca3f1d3c9f18d29159742999b79d39.mkv</property>
  <property name="aspect_ratio">1</property>
  <property name="meta.media.nb_streams">2</property>
  <property name="meta.media.0.stream.type">video</property>
  <property name="meta.media.0.stream.frame_rate">30</property>
  <property name="meta.media.0.stream.sample_aspect_ratio">1</property>
  <property name="meta.media.0.codec.width">960</property>
  <property name="meta.media.0.codec.height">540</property>
  <property name="meta.media.0.codec.rotate">0</property>
  <property name="meta.media.0.codec.frame_rate">1000</property>
  <property name="meta.media.0.codec.pix_fmt">yuvj420p</property>
  <property name="meta.media.0.codec.sample_aspect_ratio">1</property>
  <property name="meta.media.0.codec.colorspace">601</property>
  <property name="meta.media.0.codec.name">mjpeg</property>
  <property name="meta.media.0.codec.long_name">MJPEG (Motion JPEG)</property>
  <property name="meta.media.0.codec.bit_rate">0</property>
  <property name="meta.attr.0.stream.HANDLER_NAME.markup">VideoHandler</property>
  <property name="meta.attr.0.stream.ENCODER.markup">Lavc58.91.100 mjpeg</property>
  <property name="meta.attr.0.stream.DURATION.markup">00:00:38.866000000</property>
  <property name="meta.media.1.stream.type">audio</property>
  <property name="meta.media.1.codec.sample_fmt">s16</property>
  <property name="meta.media.1.codec.sample_rate">48000</property>
  <property name="meta.media.1.codec.channels">2</property>
  <property name="meta.media.1.codec.name">pcm_s16le</property>
  <property name="meta.media.1.codec.long_name">PCM signed 16-bit little-endian</property>
  <property name="meta.media.1.codec.bit_rate">1536000</property>
  <property name="meta.attr.1.stream.HANDLER_NAME.markup">SoundHandler</property>
  <property name="meta.attr.1.stream.ENCODER.markup">Lavc58.91.100 pcm_s16le</property>
  <property name="meta.attr.1.stream.DURATION.markup">00:00:38.848000000</property>
  <property name="meta.attr.COMPATIBLE_BRANDS.markup">isomiso2avc1mp41</property>
  <property name="meta.attr.MAJOR_BRAND.markup">isom</property>
  <property name="meta.attr.MINOR_VERSION.markup">512</property>
  <property name="meta.attr.ENCODER.markup">Lavf58.45.100</property>
  <property name="seekable">1</property>
  <property name="meta.media.sample_aspect_num">1</property>
  <property name="meta.media.sample_aspect_den">1</property>
  <property name="audio_index">1</property>
  <property name="video_index">0</property>
  <property name="mute_on_pause">1</property>
  <property name="warp_speed">4.98077</property>
  <property name="warp_resource">/home/ryankelln/.cache/kdenlive/proxy/30ca3f1d3c9f18d29159742999b79d39.mkv</property>
  <property name="mlt_service">timewarp</property>
  <property name="kdenlive:proxy">/home/ryankelln/.cache/kdenlive/proxy/30ca3f1d3c9f18d29159742999b79d39.mkv</property>
  <property name="kdenlive:originalurl">/home/ryankelln/Documents/Projects/Active/Sound_Escapes/Mac/from_sol/golden-ratio/2021-05-18 23-01-54.mp4</property>
  <property name="set.test_audio">1</property>
  <property name="set.test_image">0</property>
  <property name="kdenlive:id">64</property>
  <property name="warp_pitch">0</property>
  <property name="meta.media.frame_rate_num">30</property>
  <property name="meta.media.frame_rate_den">1</property>
  <property name="meta.media.colorspace">601</property>
  <property name="meta.media.color_trc">2</property>
  <property name="meta.media.width">960</property>
  <property name="meta.media.height">540</property>
  <property name="meta.media.color_range">full</property>
  <property name="meta.media.top_field_first">0</property>
  <property name="meta.media.progressive">1</property>
 </producer>
 <producer id="producer187" in="00:00:00.000" out="00:00:38.833">
  <property name="length">1167</property>
  <property name="eof">pause</property>
  <property name="resource">-1.000000:/home/ryankelln/.cache/kdenlive/proxy/30ca3f1d3c9f18d29159742999b79d39.mkv</property>
  <property name="aspect_ratio">1</property>
  <property name="meta.media.nb_streams">2</property>
  <property name="meta.media.0.stream.type">video</property>
  <property name="meta.media.0.stream.frame_rate">30</property>
  <property name="meta.media.0.stream.sample_aspect_ratio">1</property>
  <property name="meta.media.0.codec.width">960</property>
  <property name="meta.media.0.codec.height">540</property>
  <property name="meta.media.0.codec.rotate">0</property>
  <property name="meta.media.0.codec.frame_rate">1000</property>
  <property name="meta.media.0.codec.pix_fmt">yuvj420p</property>
  <property name="meta.media.0.codec.sample_aspect_ratio">1</property>
  <property name="meta.media.0.codec.colorspace">601</property>
  <property name="meta.media.0.codec.name">mjpeg</property>
  <property name="meta.media.0.codec.long_name">MJPEG (Motion JPEG)</property>
  <property name="meta.media.0.codec.bit_rate">0</property>
  <property name="meta.attr.0.stream.HANDLER_NAME.markup">VideoHandler</property>
  <property name="meta.attr.0.stream.ENCODER.markup">Lavc58.91.100 mjpeg</property>
  <property name="meta.attr.0.stream.DURATION.markup">00:00:38.866000000</property>
  <property name="meta.media.1.stream.type">audio</property>
  <property name="meta.media.1.codec.sample_fmt">s16</property>
  <property name="meta.media.1.codec.sample_rate">48000</property>
  <property name="meta.media.1.codec.channels">2</property>
  <property name="meta.media.1.codec.name">pcm_s16le</property>
  <property name="meta.media.1.codec.long_name">PCM signed 16-bit little-endian</property>
  <property name="meta.media.1.codec.bit_rate">1536000</property>
  <property name="meta.attr.1.stream.HANDLER_NAME.markup">SoundHandler</property>
  <property name="meta.attr.1.stream.ENCODER.markup">Lavc58.91.100 pcm_s16le</property>
  <property name="meta.attr.1.stream.DURATION.markup">00:00:38.848000000</property>
  <property name="meta.attr.COMPATIBLE_BRANDS.markup">isomiso2avc1mp41</property>
  <property name="meta.attr.MAJOR_BRAND.markup">isom</property>
  <property name="meta.attr.MINOR_VERSION.markup">512</property>
  <property name="meta.attr.ENCODER.markup">Lavf58.45.100</property>
  <property name="seekable">1</property>
  <property name="meta.media.sample_aspect_num">1</property>
  <property name="meta.media.sample_aspect_den">1</property>
  <property name="audio_index">1</property>
  <property name="video_index">0</property>
  <property name="mute_on_pause">1</property>
  <property name="warp_speed">-1</property>
  <property name="warp_resource">/home/ryankelln/.cache/kdenlive/proxy/30ca3f1d3c9f18d29159742999b79d39.mkv</property>
  <property name="mlt_service">timewarp</property>
  <property name="kdenlive:proxy">/home/ryankelln/.cache/kdenlive/proxy/30ca3f1d3c9f18d29159742999b79d39.mkv</property>
  <property name="kdenlive:originalurl">/home/ryankelln/Documents/Projects/Active/Sound_Escapes/Mac/from_sol/golden-ratio/2021-05-18 23-01-54.mp4</property>
  <property name="set.test_audio">1</property>
  <property name="set.test_image">0</property>
  <property name="kdenlive:id">64</property>
  <property name="warp_pitch">0</property>
  <property name="meta.media.frame_rate_num">30</property>
  <property name="meta.media.frame_rate_den">1</property>
  <property name="meta.media.colorspace">601</property>
  <property name="meta.media.color_trc">2</property>
  <property name="meta.media.width">960</property>
  <property name="meta.media.height">540</property>
  <property name="meta.media.color_range">full</property>
  <property name="meta.media.top_field_first">0</property>
  <property name="meta.media.progressive">1</property>
 </producer>
 <producer id="producer188" in="00:00:00.000" out="00:00:38.833">
  <property name="length">1167</property>
  <property name="eof">pause</property>
  <property name="resource">-1.000000:/home/ryankelln/.cache/kdenlive/proxy/30ca3f1d3c9f18d29159742999b79d39.mkv</property>
  <property name="aspect_ratio">1</property>
  <property name="meta.media.nb_streams">2</property>
  <property name="meta.media.0.stream.type">video</property>
  <property name="meta.media.0.stream.frame_rate">30</property>
  <property name="meta.media.0.stream.sample_aspect_ratio">1</property>
  <property name="meta.media.0.codec.width">960</property>
  <property name="meta.media.0.codec.height">540</property>
  <property name="meta.media.0.codec.rotate">0</property>
  <property name="meta.media.0.codec.frame_rate">1000</property>
  <property name="meta.media.0.codec.pix_fmt">yuvj420p</property>
  <property name="meta.media.0.codec.sample_aspect_ratio">1</property>
  <property name="meta.media.0.codec.colorspace">601</property>
  <property name="meta.media.0.codec.name">mjpeg</property>
  <property name="meta.media.0.codec.long_name">MJPEG (Motion JPEG)</property>
  <property name="meta.media.0.codec.bit_rate">0</property>
  <property name="meta.attr.0.stream.HANDLER_NAME.markup">VideoHandler</property>
  <property name="meta.attr.0.stream.ENCODER.markup">Lavc58.91.100 mjpeg</property>
  <property name="meta.attr.0.stream.DURATION.markup">00:00:38.866000000</property>
  <property name="meta.media.1.stream.type">audio</property>
  <property name="meta.media.1.codec.sample_fmt">s16</property>
  <property name="meta.media.1.codec.sample_rate">48000</property>
  <property name="meta.media.1.codec.channels">2</property>
  <property name="meta.media.1.codec.name">pcm_s16le</property>
  <property name="meta.media.1.codec.long_name">PCM signed 16-bit little-endian</property>
  <property name="meta.media.1.codec.bit_rate">1536000</property>
  <property name="meta.attr.1.stream.HANDLER_NAME.markup">SoundHandler</property>
  <property name="meta.attr.1.stream.ENCODER.markup">Lavc58.91.100 pcm_s16le</property>
  <property name="meta.attr.1.stream.DURATION.markup">00:00:38.848000000</property>
  <property name="meta.attr.COMPATIBLE_BRANDS.markup">isomiso2avc1mp41</property>
  <property name="meta.attr.MAJOR_BRAND.markup">isom</property>
  <property name="meta.attr.MINOR_VERSION.markup">512</property>
  <property name="meta.attr.ENCODER.markup">Lavf58.45.100</property>
  <property name="seekable">1</property>
  <property name="meta.media.sample_aspect_num">1</property>
  <property name="meta.media.sample_aspect_den">1</property>
  <property name="audio_index">1</property>
  <property name="video_index">0</property>
  <property name="mute_on_pause">1</property>
  <property name="warp_speed">-1</property>
  <property name="warp_resource">/home/ryankelln/.cache/kdenlive/proxy/30ca3f1d3c9f18d29159742999b79d39.mkv</property>
  <property name="mlt_service">timewarp</property>
  <property name="kdenlive:proxy">/home/ryankelln/.cache/kdenlive/proxy/30ca3f1d3c9f18d29159742999b79d39.mkv</property>
  <property name="kdenlive:originalurl">/home/ryankelln/Documents/Projects/Active/Sound_Escapes/Mac/from_sol/golden-ratio/2021-05-18 23-01-54.mp4</property>
  <property name="set.test_audio">1</property>
  <property name="set.test_image">0</property>
  <property name="kdenlive:id">64</property>
  <property name="warp_pitch">0</property>
  <property name="meta.media.frame_rate_num">30</property>
  <property name="meta.media.frame_rate_den">1</property>
  <property name="meta.media.colorspace">601</property>
  <property name="meta.media.color_trc">2</property>
  <property name="meta.media.width">960</property>
  <property name="meta.media.height">540</property>
  <property name="meta.media.color_range">full</property>
  <property name="meta.media.top_field_first">0</property>
  <property name="meta.media.progressive">1</property>
 </producer>
 <producer id="producer189" in="00:00:00.000" out="00:00:19.400">
  <property name="length">584</property>
  <property name="eof">pause</property>
  <property name="resource">-2.000000:/home/ryankelln/.cache/kdenlive/proxy/30ca3f1d3c9f18d29159742999b79d39.mkv</property>
  <property name="aspect_ratio">1</property>
  <property name="meta.media.nb_streams">2</property>
  <property name="meta.media.0.stream.type">video</property>
  <property name="meta.media.0.stream.frame_rate">30</property>
  <property name="meta.media.0.stream.sample_aspect_ratio">1</property>
  <property name="meta.media.0.codec.width">960</property>
  <property name="meta.media.0.codec.height">540</property>
  <property name="meta.media.0.codec.rotate">0</property>
  <property name="meta.media.0.codec.frame_rate">1000</property>
  <property name="meta.media.0.codec.pix_fmt">yuvj420p</property>
  <property name="meta.media.0.codec.sample_aspect_ratio">1</property>
  <property name="meta.media.0.codec.colorspace">601</property>
  <property name="meta.media.0.codec.name">mjpeg</property>
  <property name="meta.media.0.codec.long_name">MJPEG (Motion JPEG)</property>
  <property name="meta.media.0.codec.bit_rate">0</property>
  <property name="meta.attr.0.stream.HANDLER_NAME.markup">VideoHandler</property>
  <property name="meta.attr.0.stream.ENCODER.markup">Lavc58.91.100 mjpeg</property>
  <property name="meta.attr.0.stream.DURATION.markup">00:00:38.866000000</property>
  <property name="meta.media.1.stream.type">audio</property>
  <property name="meta.media.1.codec.sample_fmt">s16</property>
  <property name="meta.media.1.codec.sample_rate">48000</property>
  <property name="meta.media.1.codec.channels">2</property>
  <property name="meta.media.1.codec.name">pcm_s16le</property>
  <property name="meta.media.1.codec.long_name">PCM signed 16-bit little-endian</property>
  <property name="meta.media.1.codec.bit_rate">1536000</property>
  <property name="meta.attr.1.stream.HANDLER_NAME.markup">SoundHandler</property>
  <property name="meta.attr.1.stream.ENCODER.markup">Lavc58.91.100 pcm_s16le</property>
  <property name="meta.attr.1.stream.DURATION.markup">00:00:38.848000000</property>
  <property name="meta.attr.COMPATIBLE_BRANDS.markup">isomiso2avc1mp41</property>
  <property name="meta.attr.MAJOR_BRAND.markup">isom</property>
  <property name="meta.attr.MINOR_VERSION.markup">512</property>
  <property name="meta.attr.ENCODER.markup">Lavf58.45.100</property>
  <property name="seekable">1</property>
  <property name="meta.media.sample_aspect_num">1</property>
  <property name="meta.media.sample_aspect_den">1</property>
  <property name="audio_index">1</property>
  <property name="video_index">0</property>
  <property name="mute_on_pause">1</property>
  <property name="warp_speed">-2</property>
  <property name="warp_resource">/home/ryankelln/.cache/kdenlive/proxy/30ca3f1d3c9f18d29159742999b79d39.mkv</property>
  <property name="mlt_service">timewarp</property>
  <property name="kdenlive:proxy">/home/ryankelln/.cache/kdenlive/proxy/30ca3f1d3c9f18d29159742999b79d39.mkv</property>
  <property name="kdenlive:originalurl">/home/ryankelln/Documents/Projects/Active/Sound_Escapes/Mac/from_sol/golden-ratio/2021-05-18 23-01-54.mp4</property>
  <property name="set.test_audio">1</property>
  <property name="set.test_image">0</property>
  <property name="kdenlive:id">64</property>
  <property name="warp_pitch">0</property>
  <property name="meta.media.frame_rate_num">30</property>
  <property name="meta.media.frame_rate_den">1</property>
  <property name="meta.media.colorspace">601</property>
  <property name="meta.media.color_trc">2</property>
  <property name="meta.media.width">960</property>
  <property name="meta.media.height">540</property>
  <property name="meta.media.color_range">full</property>
  <property name="meta.media.top_field_first">0</property>
  <property name="meta.media.progressive">1</property>
 </producer>
 <producer id="producer190" in="00:00:00.000" out="00:00:19.400">
  <property name="length">584</property>
  <property name="eof">pause</property>
  <property name="resource">2.000000:/home/ryankelln/.cache/kdenlive/proxy/30ca3f1d3c9f18d29159742999b79d39.mkv</property>
  <property name="aspect_ratio">1</property>
  <property name="meta.media.nb_streams">2</property>
  <property name="meta.media.0.stream.type">video</property>
  <property name="meta.media.0.stream.frame_rate">30</property>
  <property name="meta.media.0.stream.sample_aspect_ratio">1</property>
  <property name="meta.media.0.codec.width">960</property>
  <property name="meta.media.0.codec.height">540</property>
  <property name="meta.media.0.codec.rotate">0</property>
  <property name="meta.media.0.codec.frame_rate">1000</property>
  <property name="meta.media.0.codec.pix_fmt">yuvj420p</property>
  <property name="meta.media.0.codec.sample_aspect_ratio">1</property>
  <property name="meta.media.0.codec.colorspace">601</property>
  <property name="meta.media.0.codec.name">mjpeg</property>
  <property name="meta.media.0.codec.long_name">MJPEG (Motion JPEG)</property>
  <property name="meta.media.0.codec.bit_rate">0</property>
  <property name="meta.attr.0.stream.HANDLER_NAME.markup">VideoHandler</property>
  <property name="meta.attr.0.stream.ENCODER.markup">Lavc58.91.100 mjpeg</property>
  <property name="meta.attr.0.stream.DURATION.markup">00:00:38.866000000</property>
  <property name="meta.media.1.stream.type">audio</property>
  <property name="meta.media.1.codec.sample_fmt">s16</property>
  <property name="meta.media.1.codec.sample_rate">48000</property>
  <property name="meta.media.1.codec.channels">2</property>
  <property name="meta.media.1.codec.name">pcm_s16le</property>
  <property name="meta.media.1.codec.long_name">PCM signed 16-bit little-endian</property>
  <property name="meta.media.1.codec.bit_rate">1536000</property>
  <property name="meta.attr.1.stream.HANDLER_NAME.markup">SoundHandler</property>
  <property name="meta.attr.1.stream.ENCODER.markup">Lavc58.91.100 pcm_s16le</property>
  <property name="meta.attr.1.stream.DURATION.markup">00:00:38.848000000</property>
  <property name="meta.attr.COMPATIBLE_BRANDS.markup">isomiso2avc1mp41</property>
  <property name="meta.attr.MAJOR_BRAND.markup">isom</property>
  <property name="meta.attr.MINOR_VERSION.markup">512</property>
  <property name="meta.attr.ENCODER.markup">Lavf58.45.100</property>
  <property name="seekable">1</property>
  <property name="meta.media.sample_aspect_num">1</property>
  <property name="meta.media.sample_aspect_den">1</property>
  <property name="audio_index">1</property>
  <property name="video_index">0</property>
  <property name="mute_on_pause">1</property>
  <property name="warp_speed">2</property>
  <property name="warp_resource">/home/ryankelln/.cache/kdenlive/proxy/30ca3f1d3c9f18d29159742999b79d39.mkv</property>
  <property name="mlt_service">timewarp</property>
  <property name="kdenlive:proxy">/home/ryankelln/.cache/kdenlive/proxy/30ca3f1d3c9f18d29159742999b79d39.mkv</property>
  <property name="kdenlive:originalurl">/home/ryankelln/Documents/Projects/Active/Sound_Escapes/Mac/from_sol/golden-ratio/2021-05-18 23-01-54.mp4</property>
  <property name="set.test_audio">1</property>
  <property name="set.test_image">0</property>
  <property name="kdenlive:id">64</property>
  <property name="warp_pitch">0</property>
  <property name="meta.media.frame_rate_num">30</property>
  <property name="meta.media.frame_rate_den">1</property>
  <property name="meta.media.colorspace">601</property>
  <property name="meta.media.color_trc">2</property>
  <property name="meta.media.width">960</property>
  <property name="meta.media.height">540</property>
  <property name="meta.media.color_range">full</property>
  <property name="meta.media.top_field_first">0</property>
  <property name="meta.media.progressive">1</property>
 </producer>
 <producer id="producer191" in="00:00:00.000" out="00:00:09.667">
  <property name="length">292</property>
  <property name="eof">pause</property>
  <property name="resource">4.000000:/home/ryankelln/.cache/kdenlive/proxy/30ca3f1d3c9f18d29159742999b79d39.mkv</property>
  <property name="aspect_ratio">1</property>
  <property name="meta.media.nb_streams">2</property>
  <property name="meta.media.0.stream.type">video</property>
  <property name="meta.media.0.stream.frame_rate">30</property>
  <property name="meta.media.0.stream.sample_aspect_ratio">1</property>
  <property name="meta.media.0.codec.width">960</property>
  <property name="meta.media.0.codec.height">540</property>
  <property name="meta.media.0.codec.rotate">0</property>
  <property name="meta.media.0.codec.frame_rate">1000</property>
  <property name="meta.media.0.codec.pix_fmt">yuvj420p</property>
  <property name="meta.media.0.codec.sample_aspect_ratio">1</property>
  <property name="meta.media.0.codec.colorspace">601</property>
  <property name="meta.media.0.codec.name">mjpeg</property>
  <property name="meta.media.0.codec.long_name">MJPEG (Motion JPEG)</property>
  <property name="meta.media.0.codec.bit_rate">0</property>
  <property name="meta.attr.0.stream.HANDLER_NAME.markup">VideoHandler</property>
  <property name="meta.attr.0.stream.ENCODER.markup">Lavc58.91.100 mjpeg</property>
  <property name="meta.attr.0.stream.DURATION.markup">00:00:38.866000000</property>
  <property name="meta.media.1.stream.type">audio</property>
  <property name="meta.media.1.codec.sample_fmt">s16</property>
  <property name="meta.media.1.codec.sample_rate">48000</property>
  <property name="meta.media.1.codec.channels">2</property>
  <property name="meta.media.1.codec.name">pcm_s16le</property>
  <property name="meta.media.1.codec.long_name">PCM signed 16-bit little-endian</property>
  <property name="meta.media.1.codec.bit_rate">1536000</property>
  <property name="meta.attr.1.stream.HANDLER_NAME.markup">SoundHandler</property>
  <property name="meta.attr.1.stream.ENCODER.markup">Lavc58.91.100 pcm_s16le</property>
  <property name="meta.attr.1.stream.DURATION.markup">00:00:38.848000000</property>
  <property name="meta.attr.COMPATIBLE_BRANDS.markup">isomiso2avc1mp41</property>
  <property name="meta.attr.MAJOR_BRAND.markup">isom</property>
  <property name="meta.attr.MINOR_VERSION.markup">512</property>
  <property name="meta.attr.ENCODER.markup">Lavf58.45.100</property>
  <property name="seekable">1</property>
  <property name="meta.media.sample_aspect_num">1</property>
  <property name="meta.media.sample_aspect_den">1</property>
  <property name="audio_index">1</property>
  <property name="video_index">0</property>
  <property name="mute_on_pause">1</property>
  <property name="warp_speed">4</property>
  <property name="warp_resource">/home/ryankelln/.cache/kdenlive/proxy/30ca3f1d3c9f18d29159742999b79d39.mkv</property>
  <property name="mlt_service">timewarp</property>
  <property name="kdenlive:proxy">/home/ryankelln/.cache/kdenlive/proxy/30ca3f1d3c9f18d29159742999b79d39.mkv</property>
  <property name="kdenlive:originalurl">/home/ryankelln/Documents/Projects/Active/Sound_Escapes/Mac/from_sol/golden-ratio/2021-05-18 23-01-54.mp4</property>
  <property name="set.test_audio">1</property>
  <property name="set.test_image">0</property>
  <property name="kdenlive:id">64</property>
  <property name="warp_pitch">0</property>
  <property name="meta.media.frame_rate_num">30</property>
  <property name="meta.media.frame_rate_den">1</property>
  <property name="meta.media.colorspace">601</property>
  <property name="meta.media.color_trc">2</property>
  <property name="meta.media.width">960</property>
  <property name="meta.media.height">540</property>
  <property name="meta.media.color_range">full</property>
  <property name="meta.media.top_field_first">0</property>
  <property name="meta.media.progressive">1</property>
 </producer>
 <producer id="producer192" in="00:00:00.000" out="00:01:10.133">
  <property name="length">2105</property>
  <property name="eof">pause</property>
  <property name="resource">/home/ryankelln/.cache/kdenlive/proxy/6aa00ab06687f3ee392dd0a501fabbea.mkv</property>
  <property name="audio_index">1</property>
  <property name="video_index">0</property>
  <property name="mute_on_pause">0</property>
  <property name="mlt_service">avformat-novalidate</property>
  <property name="seekable">1</property>
  <property name="aspect_ratio">1</property>
  <property name="kdenlive:clipname">bu3n_v1.mp4</property>
  <property name="kdenlive:folderid">108</property>
  <property name="kdenlive:id">148</property>
  <property name="kdenlive:file_size">178798205</property>
  <property name="kdenlive:file_hash">6aa00ab06687f3ee392dd0a501fabbea</property>
  <property name="kdenlive:proxy">/home/ryankelln/.cache/kdenlive/proxy/6aa00ab06687f3ee392dd0a501fabbea.mkv</property>
  <property name="kdenlive:originalurl">content/textures/bu3n_v1.mp4</property>
  <property name="kdenlive:original.mlt_type">producer</property>
  <property name="kdenlive:original.in">0</property>
  <property name="kdenlive:original.out">2104</property>
  <property name="kdenlive:original.length">2105</property>
  <property name="kdenlive:original.eof">pause</property>
  <property name="kdenlive:original.resource">content/textures/bu3n_v1.mp4</property>
  <property name="kdenlive:original.meta.media.nb_streams">2</property>
  <property name="kdenlive:original.meta.media.0.stream.type">video</property>
  <property name="kdenlive:original.meta.media.0.stream.frame_rate">30</property>
  <property name="kdenlive:original.meta.media.0.stream.sample_aspect_ratio">0</property>
  <property name="kdenlive:original.meta.media.0.codec.width">1920</property>
  <property name="kdenlive:original.meta.media.0.codec.height">1080</property>
  <property name="kdenlive:original.meta.media.0.codec.rotate">0</property>
  <property name="kdenlive:original.meta.media.0.codec.frame_rate">30</property>
  <property name="kdenlive:original.meta.media.0.codec.pix_fmt">yuv420p</property>
  <property name="kdenlive:original.meta.media.0.codec.sample_aspect_ratio">1</property>
  <property name="kdenlive:original.meta.media.0.codec.colorspace">709</property>
  <property name="kdenlive:original.meta.media.0.codec.color_trc">1</property>
  <property name="kdenlive:original.meta.media.0.codec.name">h264</property>
  <property name="kdenlive:original.meta.media.0.codec.long_name">H.264 / AVC / MPEG-4 AVC / MPEG-4 part 10</property>
  <property name="kdenlive:original.meta.media.0.codec.bit_rate">20267818</property>
  <property name="kdenlive:original.meta.attr.0.stream.handler_name.markup">VideoHandler</property>
  <property name="kdenlive:original.meta.media.1.stream.type">audio</property>
  <property name="kdenlive:original.meta.media.1.codec.sample_fmt">fltp</property>
  <property name="kdenlive:original.meta.media.1.codec.sample_rate">44100</property>
  <property name="kdenlive:original.meta.media.1.codec.channels">2</property>
  <property name="kdenlive:original.meta.media.1.codec.name">vorbis</property>
  <property name="kdenlive:original.meta.media.1.codec.long_name">Vorbis</property>
  <property name="kdenlive:original.meta.media.1.codec.bit_rate">108184</property>
  <property name="kdenlive:original.meta.attr.1.stream.handler_name.markup">SoundHandler</property>
  <property name="kdenlive:original.meta.attr.major_brand.markup">isom</property>
  <property name="kdenlive:original.meta.attr.minor_version.markup">512</property>
  <property name="kdenlive:original.meta.attr.compatible_brands.markup">isomiso2avc1mp41</property>
  <property name="kdenlive:original.meta.attr.encoder.markup">Lavf56.40.101</property>
  <property name="kdenlive:original.seekable">1</property>
  <property name="kdenlive:original.width">1920</property>
  <property name="kdenlive:original.height">1080</property>
  <property name="kdenlive:original.meta.media.sample_aspect_num">1</property>
  <property name="kdenlive:original.meta.media.sample_aspect_den">1</property>
  <property name="kdenlive:original.aspect_ratio">1</property>
  <property name="kdenlive:original.audio_index">1</property>
  <property name="kdenlive:original.video_index">0</property>
  <property name="kdenlive:original.mute_on_pause">0</property>
  <property name="kdenlive:original.mlt_service">avformat-novalidate</property>
  <property name="kdenlive:original.kdenlive:folderid">108</property>
  <property name="kdenlive:original.meta.media.frame_rate_num">30</property>
  <property name="kdenlive:original.meta.media.frame_rate_den">1</property>
  <property name="kdenlive:original.meta.media.colorspace">709</property>
  <property name="kdenlive:original.meta.media.color_trc">1</property>
  <property name="kdenlive:original.meta.media.width">1920</property>
  <property name="kdenlive:original.meta.media.height">1080</property>
  <property name="kdenlive:original.meta.media.color_range">mpeg</property>
  <property name="kdenlive:original.kdenlive:id">160</property>
  <property name="kdenlive:original.kdenlive:file_size">178798205</property>
  <property name="kdenlive:original.kdenlive:file_hash">6aa00ab06687f3ee392dd0a501fabbea</property>
  <property name="kdenlive:original.backup">1</property>
  <property name="kdenlive:audio_max">18</property>
  <property name="global_feed">1</property>
  <property name="xml">was here</property>
  <property name="meta.media.nb_streams">2</property>
  <property name="meta.media.0.stream.type">video</property>
  <property name="meta.media.0.stream.frame_rate">30</property>
  <property name="meta.media.0.stream.sample_aspect_ratio">1</property>
  <property name="meta.media.0.codec.width">960</property>
  <property name="meta.media.0.codec.height">540</property>
  <property name="meta.media.0.codec.rotate">0</property>
  <property name="meta.media.0.codec.frame_rate">1000</property>
  <property name="meta.media.0.codec.pix_fmt">yuvj420p</property>
  <property name="meta.media.0.codec.sample_aspect_ratio">1</property>
  <property name="meta.media.0.codec.colorspace">601</property>
  <property name="meta.media.0.codec.name">mjpeg</property>
  <property name="meta.media.0.codec.long_name">MJPEG (Motion JPEG)</property>
  <property name="meta.media.0.codec.bit_rate">0</property>
  <property name="meta.attr.0.stream.HANDLER_NAME.markup">VideoHandler</property>
  <property name="meta.attr.0.stream.ENCODER.markup">Lavc58.91.100 mjpeg</property>
  <property name="meta.attr.0.stream.DURATION.markup">00:01:10.166000000</property>
  <property name="meta.media.1.stream.type">audio</property>
  <property name="meta.media.1.codec.sample_fmt">s16</property>
  <property name="meta.media.1.codec.sample_rate">44100</property>
  <property name="meta.media.1.codec.channels">2</property>
  <property name="meta.media.1.codec.name">pcm_s16le</property>
  <property name="meta.media.1.codec.long_name">PCM signed 16-bit little-endian</property>
  <property name="meta.media.1.codec.bit_rate">1411200</property>
  <property name="meta.attr.1.stream.HANDLER_NAME.markup">SoundHandler</property>
  <property name="meta.attr.1.stream.ENCODER.markup">Lavc58.91.100 pcm_s16le</property>
  <property name="meta.attr.1.stream.DURATION.markup">00:01:10.186000000</property>
  <property name="meta.attr.COMPATIBLE_BRANDS.markup">isomiso2avc1mp41</property>
  <property name="meta.attr.MAJOR_BRAND.markup">isom</property>
  <property name="meta.attr.MINOR_VERSION.markup">512</property>
  <property name="meta.attr.ENCODER.markup">Lavf58.45.100</property>
  <property name="meta.media.sample_aspect_num">1</property>
  <property name="meta.media.sample_aspect_den">1</property>
  <property name="meta.media.frame_rate_num">30</property>
  <property name="meta.media.frame_rate_den">1</property>
  <property name="meta.media.colorspace">601</property>
  <property name="meta.media.color_trc">2</property>
  <property name="meta.media.width">960</property>
  <property name="meta.media.height">540</property>
  <property name="meta.media.color_range">full</property>
  <property name="meta.media.top_field_first">0</property>
  <property name="meta.media.progressive">1</property>
  <property name="set.test_audio">1</property>
  <property name="set.test_image">0</property>
 </producer>
 <producer id="producer193" in="00:00:00.000" out="00:01:29.767">
  <property name="length">2694</property>
  <property name="eof">pause</property>
  <property name="resource">-1.000000:/home/ryankelln/.cache/kdenlive/proxy/8a45a6e6f82270aac1a382ea6d4dd9e7.mkv</property>
  <property name="aspect_ratio">1</property>
  <property name="meta.media.nb_streams">1</property>
  <property name="meta.media.0.stream.type">video</property>
  <property name="meta.media.0.stream.frame_rate">30</property>
  <property name="meta.media.0.stream.sample_aspect_ratio">1</property>
  <property name="meta.media.0.codec.width">960</property>
  <property name="meta.media.0.codec.height">540</property>
  <property name="meta.media.0.codec.rotate">0</property>
  <property name="meta.media.0.codec.frame_rate">1000</property>
  <property name="meta.media.0.codec.pix_fmt">yuvj444p</property>
  <property name="meta.media.0.codec.sample_aspect_ratio">1</property>
  <property name="meta.media.0.codec.colorspace">601</property>
  <property name="meta.media.0.codec.name">mjpeg</property>
  <property name="meta.media.0.codec.long_name">MJPEG (Motion JPEG)</property>
  <property name="meta.media.0.codec.bit_rate">0</property>
  <property name="meta.attr.0.stream.HANDLER_NAME.markup">VideoHandler</property>
  <property name="meta.attr.0.stream.ENCODER.markup">Lavc58.91.100 mjpeg</property>
  <property name="meta.attr.0.stream.DURATION.markup">00:01:29.800000000</property>
  <property name="meta.attr.COMPATIBLE_BRANDS.markup">isomiso2avc1mp41</property>
  <property name="meta.attr.MAJOR_BRAND.markup">isom</property>
  <property name="meta.attr.MINOR_VERSION.markup">512</property>
  <property name="meta.attr.ENCODER.markup">Lavf58.45.100</property>
  <property name="seekable">1</property>
  <property name="meta.media.sample_aspect_num">1</property>
  <property name="meta.media.sample_aspect_den">1</property>
  <property name="audio_index">-1</property>
  <property name="video_index">0</property>
  <property name="mute_on_pause">1</property>
  <property name="warp_speed">-1</property>
  <property name="warp_resource">/home/ryankelln/.cache/kdenlive/proxy/8a45a6e6f82270aac1a382ea6d4dd9e7.mkv</property>
  <property name="mlt_service">timewarp</property>
  <property name="kdenlive:proxy">/home/ryankelln/.cache/kdenlive/proxy/8a45a6e6f82270aac1a382ea6d4dd9e7.mkv</property>
  <property name="kdenlive:originalurl">content/footage/epic_clouds_slomo.mp4</property>
  <property name="set.test_audio">1</property>
  <property name="set.test_image">0</property>
  <property name="kdenlive:id">92</property>
  <property name="warp_pitch">0</property>
  <property name="meta.media.frame_rate_num">30</property>
  <property name="meta.media.frame_rate_den">1</property>
  <property name="meta.media.colorspace">601</property>
  <property name="meta.media.color_trc">2</property>
  <property name="meta.media.width">960</property>
  <property name="meta.media.height">540</property>
  <property name="meta.media.color_range">full</property>
  <property name="meta.media.top_field_first">0</property>
  <property name="meta.media.progressive">1</property>
 </producer>
 <producer id="producer194" in="00:00:00.000" out="00:00:23.133">
  <property name="length">695</property>
  <property name="eof">pause</property>
  <property name="resource">/home/ryankelln/Documents/Projects/Active/Sound_Escapes/Mac/Siwash.mp4</property>
  <property name="audio_index">-1</property>
  <property name="video_index">0</property>
  <property name="mute_on_pause">0</property>
  <property name="mlt_service">avformat-novalidate</property>
  <property name="seekable">1</property>
  <property name="aspect_ratio">1</property>
  <property name="kdenlive:clipname"/>
  <property name="kdenlive:folderid">-1</property>
  <property name="kdenlive:id">26</property>
  <property name="kdenlive:file_size">7061591</property>
  <property name="kdenlive:file_hash">554bdb9effc384c67048d842ef3c8d32</property>
  <property name="global_feed">1</property>
  <property name="xml">was here</property>
  <property name="meta.media.nb_streams">1</property>
  <property name="meta.media.0.stream.type">video</property>
  <property name="meta.media.0.stream.frame_rate">24</property>
  <property name="meta.media.0.stream.sample_aspect_ratio">1</property>
  <property name="meta.media.0.codec.width">512</property>
  <property name="meta.media.0.codec.height">512</property>
  <property name="meta.media.0.codec.rotate">0</property>
  <property name="meta.media.0.codec.frame_rate">24</property>
  <property name="meta.media.0.codec.pix_fmt">yuv444p</property>
  <property name="meta.media.0.codec.sample_aspect_ratio">1</property>
  <property name="meta.media.0.codec.colorspace">601</property>
  <property name="meta.media.0.codec.name">h264</property>
  <property name="meta.media.0.codec.long_name">H.264 / AVC / MPEG-4 AVC / MPEG-4 part 10</property>
  <property name="meta.media.0.codec.bit_rate">2436206</property>
  <property name="meta.attr.0.stream.handler_name.markup">VideoHandler</property>
  <property name="meta.attr.0.stream.vendor_id.markup">[0][0][0][0]</property>
  <property name="meta.attr.major_brand.markup">isom</property>
  <property name="meta.attr.minor_version.markup">512</property>
  <property name="meta.attr.compatible_brands.markup">isomiso2avc1mp41</property>
  <property name="meta.attr.encoder.markup">Lavf58.45.100</property>
  <property name="meta.media.sample_aspect_num">1</property>
  <property name="meta.media.sample_aspect_den">1</property>
  <property name="meta.media.frame_rate_num">24</property>
  <property name="meta.media.frame_rate_den">1</property>
  <property name="meta.media.colorspace">601</property>
  <property name="meta.media.color_trc">2</property>
  <property name="meta.media.width">512</property>
  <property name="meta.media.height">512</property>
  <property name="meta.media.color_range">mpeg</property>
  <property name="meta.media.top_field_first">0</property>
  <property name="meta.media.progressive">1</property>
  <property name="set.test_audio">1</property>
  <property name="set.test_image">0</property>
 </producer>
 <producer id="producer195" in="00:00:00.000" out="00:00:56.300">
  <property name="length">1690</property>
  <property name="eof">pause</property>
  <property name="resource">1.150000:/home/ryankelln/Documents/Projects/Active/Sound_Escapes/Mac/stories/summer_grass_aphantasia_5.mp4</property>
  <property name="aspect_ratio">1</property>
  <property name="meta.media.nb_streams">1</property>
  <property name="meta.media.0.stream.type">video</property>
  <property name="meta.media.0.stream.frame_rate">25</property>
  <property name="meta.media.0.stream.sample_aspect_ratio">1</property>
  <property name="meta.media.0.codec.width">1920</property>
  <property name="meta.media.0.codec.height">1080</property>
  <property name="meta.media.0.codec.rotate">0</property>
  <property name="meta.media.0.codec.frame_rate">25</property>
  <property name="meta.media.0.codec.pix_fmt">yuvj420p</property>
  <property name="meta.media.0.codec.sample_aspect_ratio">1</property>
  <property name="meta.media.0.codec.colorspace">601</property>
  <property name="meta.media.0.codec.name">h264</property>
  <property name="meta.media.0.codec.long_name">H.264 / AVC / MPEG-4 AVC / MPEG-4 part 10</property>
  <property name="meta.media.0.codec.bit_rate">11323000</property>
  <property name="meta.attr.0.stream.handler_name.markup">VideoHandler</property>
  <property name="meta.attr.major_brand.markup">isom</property>
  <property name="meta.attr.minor_version.markup">512</property>
  <property name="meta.attr.compatible_brands.markup">isomiso2avc1mp41</property>
  <property name="meta.attr.encoder.markup">Lavf58.76.100</property>
  <property name="seekable">1</property>
  <property name="meta.media.sample_aspect_num">1</property>
  <property name="meta.media.sample_aspect_den">1</property>
  <property name="audio_index">-1</property>
  <property name="video_index">0</property>
  <property name="mute_on_pause">1</property>
  <property name="warp_speed">1.15</property>
  <property name="warp_resource">/home/ryankelln/Documents/Projects/Active/Sound_Escapes/Mac/stories/summer_grass_aphantasia_5.mp4</property>
  <property name="mlt_service">timewarp</property>
  <property name="meta.attr.0.stream.vendor_id.markup">[0][0][0][0]</property>
  <property name="set.test_audio">1</property>
  <property name="set.test_image">0</property>
  <property name="kdenlive:id">24</property>
  <property name="warp_pitch">0</property>
  <property name="meta.media.frame_rate_num">25</property>
  <property name="meta.media.frame_rate_den">1</property>
  <property name="meta.media.colorspace">601</property>
  <property name="meta.media.color_trc">2</property>
  <property name="meta.media.width">1920</property>
  <property name="meta.media.height">1080</property>
  <property name="meta.media.color_range">full</property>
  <property name="meta.media.top_field_first">0</property>
  <property name="meta.media.progressive">1</property>
 </producer>
 <producer id="producer196" in="00:00:00.000" out="00:00:58.867">
  <property name="length">1767</property>
  <property name="eof">pause</property>
  <property name="resource">1.100000:/home/ryankelln/Documents/Projects/Active/Sound_Escapes/Mac/stories/summer_grass_aphantasia_5.mp4</property>
  <property name="aspect_ratio">1</property>
  <property name="meta.media.nb_streams">1</property>
  <property name="meta.media.0.stream.type">video</property>
  <property name="meta.media.0.stream.frame_rate">25</property>
  <property name="meta.media.0.stream.sample_aspect_ratio">1</property>
  <property name="meta.media.0.codec.width">1920</property>
  <property name="meta.media.0.codec.height">1080</property>
  <property name="meta.media.0.codec.rotate">0</property>
  <property name="meta.media.0.codec.frame_rate">25</property>
  <property name="meta.media.0.codec.pix_fmt">yuvj420p</property>
  <property name="meta.media.0.codec.sample_aspect_ratio">1</property>
  <property name="meta.media.0.codec.colorspace">601</property>
  <property name="meta.media.0.codec.name">h264</property>
  <property name="meta.media.0.codec.long_name">H.264 / AVC / MPEG-4 AVC / MPEG-4 part 10</property>
  <property name="meta.media.0.codec.bit_rate">11323000</property>
  <property name="meta.attr.0.stream.handler_name.markup">VideoHandler</property>
  <property name="meta.attr.major_brand.markup">isom</property>
  <property name="meta.attr.minor_version.markup">512</property>
  <property name="meta.attr.compatible_brands.markup">isomiso2avc1mp41</property>
  <property name="meta.attr.encoder.markup">Lavf58.76.100</property>
  <property name="seekable">1</property>
  <property name="meta.media.sample_aspect_num">1</property>
  <property name="meta.media.sample_aspect_den">1</property>
  <property name="audio_index">-1</property>
  <property name="video_index">0</property>
  <property name="mute_on_pause">1</property>
  <property name="warp_speed">1.1</property>
  <property name="warp_resource">/home/ryankelln/Documents/Projects/Active/Sound_Escapes/Mac/stories/summer_grass_aphantasia_5.mp4</property>
  <property name="mlt_service">timewarp</property>
  <property name="meta.attr.0.stream.vendor_id.markup">[0][0][0][0]</property>
  <property name="set.test_audio">1</property>
  <property name="set.test_image">0</property>
  <property name="kdenlive:id">24</property>
  <property name="warp_pitch">0</property>
  <property name="meta.media.frame_rate_num">25</property>
  <property name="meta.media.frame_rate_den">1</property>
  <property name="meta.media.colorspace">601</property>
  <property name="meta.media.color_trc">2</property>
  <property name="meta.media.width">1920</property>
  <property name="meta.media.height">1080</property>
  <property name="meta.media.color_range">full</property>
  <property name="meta.media.top_field_first">0</property>
  <property name="meta.media.progressive">1</property>
 </producer>
 <producer id="producer197" in="00:00:00.000" out="00:01:04.767">
  <property name="length">1944</property>
  <property name="eof">pause</property>
  <property name="resource">/home/ryankelln/Documents/Projects/Active/Sound_Escapes/Mac/stories/summer_grass_aphantasia_5.mp4</property>
  <property name="audio_index">-1</property>
  <property name="video_index">0</property>
  <property name="mute_on_pause">0</property>
  <property name="mlt_service">avformat-novalidate</property>
  <property name="seekable">1</property>
  <property name="aspect_ratio">1</property>
  <property name="kdenlive:clipname"/>
  <property name="kdenlive:folderid">-1</property>
  <property name="kdenlive:id">24</property>
  <property name="kdenlive:file_size">91728611</property>
  <property name="kdenlive:file_hash">4ae3e8ad715a0ff271fa122c32eb5343</property>
  <property name="global_feed">1</property>
  <property name="xml">was here</property>
  <property name="meta.media.nb_streams">1</property>
  <property name="meta.media.0.stream.type">video</property>
  <property name="meta.media.0.stream.frame_rate">25</property>
  <property name="meta.media.0.stream.sample_aspect_ratio">1</property>
  <property name="meta.media.0.codec.width">1920</property>
  <property name="meta.media.0.codec.height">1080</property>
  <property name="meta.media.0.codec.rotate">0</property>
  <property name="meta.media.0.codec.frame_rate">25</property>
  <property name="meta.media.0.codec.pix_fmt">yuvj420p</property>
  <property name="meta.media.0.codec.sample_aspect_ratio">1</property>
  <property name="meta.media.0.codec.colorspace">601</property>
  <property name="meta.media.0.codec.name">h264</property>
  <property name="meta.media.0.codec.long_name">H.264 / AVC / MPEG-4 AVC / MPEG-4 part 10</property>
  <property name="meta.media.0.codec.bit_rate">11323000</property>
  <property name="meta.attr.0.stream.handler_name.markup">VideoHandler</property>
  <property name="meta.attr.0.stream.vendor_id.markup">[0][0][0][0]</property>
  <property name="meta.attr.major_brand.markup">isom</property>
  <property name="meta.attr.minor_version.markup">512</property>
  <property name="meta.attr.compatible_brands.markup">isomiso2avc1mp41</property>
  <property name="meta.attr.encoder.markup">Lavf58.76.100</property>
  <property name="meta.media.sample_aspect_num">1</property>
  <property name="meta.media.sample_aspect_den">1</property>
  <property name="meta.media.frame_rate_num">25</property>
  <property name="meta.media.frame_rate_den">1</property>
  <property name="meta.media.colorspace">601</property>
  <property name="meta.media.color_trc">2</property>
  <property name="meta.media.width">1920</property>
  <property name="meta.media.height">1080</property>
  <property name="meta.media.color_range">full</property>
  <property name="meta.media.top_field_first">0</property>
  <property name="meta.media.progressive">1</property>
  <property name="set.test_audio">1</property>
  <property name="set.test_image">0</property>
 </producer>
 <producer id="producer198" in="00:00:00.000" out="00:01:20.967">
  <property name="length">2430</property>
  <property name="eof">pause</property>
  <property name="resource">0.800000:/home/ryankelln/Documents/Projects/Active/Sound_Escapes/Mac/stories/summer_grass_aphantasia_5.mp4</property>
  <property name="aspect_ratio">1</property>
  <property name="meta.media.nb_streams">1</property>
  <property name="meta.media.0.stream.type">video</property>
  <property name="meta.media.0.stream.frame_rate">25</property>
  <property name="meta.media.0.stream.sample_aspect_ratio">1</property>
  <property name="meta.media.0.codec.width">1920</property>
  <property name="meta.media.0.codec.height">1080</property>
  <property name="meta.media.0.codec.rotate">0</property>
  <property name="meta.media.0.codec.frame_rate">25</property>
  <property name="meta.media.0.codec.pix_fmt">yuvj420p</property>
  <property name="meta.media.0.codec.sample_aspect_ratio">1</property>
  <property name="meta.media.0.codec.colorspace">601</property>
  <property name="meta.media.0.codec.name">h264</property>
  <property name="meta.media.0.codec.long_name">H.264 / AVC / MPEG-4 AVC / MPEG-4 part 10</property>
  <property name="meta.media.0.codec.bit_rate">11323000</property>
  <property name="meta.attr.0.stream.handler_name.markup">VideoHandler</property>
  <property name="meta.attr.major_brand.markup">isom</property>
  <property name="meta.attr.minor_version.markup">512</property>
  <property name="meta.attr.compatible_brands.markup">isomiso2avc1mp41</property>
  <property name="meta.attr.encoder.markup">Lavf58.76.100</property>
  <property name="seekable">1</property>
  <property name="meta.media.sample_aspect_num">1</property>
  <property name="meta.media.sample_aspect_den">1</property>
  <property name="audio_index">-1</property>
  <property name="video_index">0</property>
  <property name="mute_on_pause">1</property>
  <property name="warp_speed">0.8</property>
  <property name="warp_resource">/home/ryankelln/Documents/Projects/Active/Sound_Escapes/Mac/stories/summer_grass_aphantasia_5.mp4</property>
  <property name="mlt_service">timewarp</property>
  <property name="meta.attr.0.stream.vendor_id.markup">[0][0][0][0]</property>
  <property name="set.test_audio">1</property>
  <property name="set.test_image">0</property>
  <property name="kdenlive:id">24</property>
  <property name="warp_pitch">0</property>
  <property name="meta.media.frame_rate_num">25</property>
  <property name="meta.media.frame_rate_den">1</property>
  <property name="meta.media.colorspace">601</property>
  <property name="meta.media.color_trc">2</property>
  <property name="meta.media.width">1920</property>
  <property name="meta.media.height">1080</property>
  <property name="meta.media.color_range">full</property>
  <property name="meta.media.top_field_first">0</property>
  <property name="meta.media.progressive">1</property>
 </producer>
 <producer id="producer199" in="00:00:00.000" out="00:02:09.567">
  <property name="length">3888</property>
  <property name="eof">pause</property>
  <property name="resource">0.500000:/home/ryankelln/Documents/Projects/Active/Sound_Escapes/Mac/stories/summer_grass_aphantasia_5.mp4</property>
  <property name="aspect_ratio">1</property>
  <property name="meta.media.nb_streams">1</property>
  <property name="meta.media.0.stream.type">video</property>
  <property name="meta.media.0.stream.frame_rate">25</property>
  <property name="meta.media.0.stream.sample_aspect_ratio">1</property>
  <property name="meta.media.0.codec.width">1920</property>
  <property name="meta.media.0.codec.height">1080</property>
  <property name="meta.media.0.codec.rotate">0</property>
  <property name="meta.media.0.codec.frame_rate">25</property>
  <property name="meta.media.0.codec.pix_fmt">yuvj420p</property>
  <property name="meta.media.0.codec.sample_aspect_ratio">1</property>
  <property name="meta.media.0.codec.colorspace">601</property>
  <property name="meta.media.0.codec.name">h264</property>
  <property name="meta.media.0.codec.long_name">H.264 / AVC / MPEG-4 AVC / MPEG-4 part 10</property>
  <property name="meta.media.0.codec.bit_rate">11323000</property>
  <property name="meta.attr.0.stream.handler_name.markup">VideoHandler</property>
  <property name="meta.attr.major_brand.markup">isom</property>
  <property name="meta.attr.minor_version.markup">512</property>
  <property name="meta.attr.compatible_brands.markup">isomiso2avc1mp41</property>
  <property name="meta.attr.encoder.markup">Lavf58.76.100</property>
  <property name="seekable">1</property>
  <property name="meta.media.sample_aspect_num">1</property>
  <property name="meta.media.sample_aspect_den">1</property>
  <property name="audio_index">-1</property>
  <property name="video_index">0</property>
  <property name="mute_on_pause">1</property>
  <property name="warp_speed">0.5</property>
  <property name="warp_resource">/home/ryankelln/Documents/Projects/Active/Sound_Escapes/Mac/stories/summer_grass_aphantasia_5.mp4</property>
  <property name="mlt_service">timewarp</property>
  <property name="meta.attr.0.stream.vendor_id.markup">[0][0][0][0]</property>
  <property name="set.test_audio">1</property>
  <property name="set.test_image">0</property>
  <property name="kdenlive:id">24</property>
  <property name="warp_pitch">0</property>
  <property name="meta.media.frame_rate_num">25</property>
  <property name="meta.media.frame_rate_den">1</property>
  <property name="meta.media.colorspace">601</property>
  <property name="meta.media.color_trc">2</property>
  <property name="meta.media.width">1920</property>
  <property name="meta.media.height">1080</property>
  <property name="meta.media.color_range">full</property>
  <property name="meta.media.top_field_first">0</property>
  <property name="meta.media.progressive">1</property>
 </producer>
 <producer id="producer200" in="00:00:00.000" out="00:00:17.533">
  <property name="length">527</property>
  <property name="eof">pause</property>
  <property name="resource">/home/ryankelln/Documents/Projects/Active/Sound_Escapes/Mac/footage/Drone Footage of Waves Rushing to the Shore - Copyright Free Reusable Stock Video HD-923JpepN7U4.mp4</property>
  <property name="audio_index">1</property>
  <property name="video_index">0</property>
  <property name="mute_on_pause">0</property>
  <property name="mlt_service">avformat-novalidate</property>
  <property name="seekable">1</property>
  <property name="aspect_ratio">1</property>
  <property name="kdenlive:clipname"/>
  <property name="kdenlive:folderid">-1</property>
  <property name="kdenlive:id">27</property>
  <property name="kdenlive:file_size">10528370</property>
  <property name="kdenlive:file_hash">a6db6e9a56c67bc34e9222b1f2f66552</property>
  <property name="kdenlive:audio_max">91</property>
  <property name="global_feed">1</property>
  <property name="kdenlive:active_streams">-1</property>
  <property name="xml">was here</property>
  <property name="meta.media.nb_streams">2</property>
  <property name="meta.media.0.stream.type">video</property>
  <property name="meta.media.0.stream.frame_rate">29.97</property>
  <property name="meta.media.0.stream.sample_aspect_ratio">1</property>
  <property name="meta.media.0.codec.width">1920</property>
  <property name="meta.media.0.codec.height">1080</property>
  <property name="meta.media.0.codec.rotate">0</property>
  <property name="meta.media.0.codec.frame_rate">29.97</property>
  <property name="meta.media.0.codec.pix_fmt">yuv420p</property>
  <property name="meta.media.0.codec.sample_aspect_ratio">1</property>
  <property name="meta.media.0.codec.colorspace">709</property>
  <property name="meta.media.0.codec.color_trc">1</property>
  <property name="meta.media.0.codec.name">h264</property>
  <property name="meta.media.0.codec.long_name">H.264 / AVC / MPEG-4 AVC / MPEG-4 part 10</property>
  <property name="meta.media.0.codec.bit_rate">4671311</property>
  <property name="meta.attr.0.stream.handler_name.markup">ISO Media file produced by Google Inc.</property>
  <property name="meta.attr.0.stream.vendor_id.markup">[0][0][0][0]</property>
  <property name="meta.media.1.stream.type">audio</property>
  <property name="meta.media.1.codec.sample_fmt">fltp</property>
  <property name="meta.media.1.codec.sample_rate">44100</property>
  <property name="meta.media.1.codec.channels">2</property>
  <property name="meta.media.1.codec.name">aac</property>
  <property name="meta.media.1.codec.long_name">AAC (Advanced Audio Coding)</property>
  <property name="meta.media.1.codec.bit_rate">127999</property>
  <property name="meta.attr.1.stream.handler_name.markup">ISO Media file produced by Google Inc.</property>
  <property name="meta.attr.1.stream.vendor_id.markup">[0][0][0][0]</property>
  <property name="meta.attr.major_brand.markup">isom</property>
  <property name="meta.attr.minor_version.markup">512</property>
  <property name="meta.attr.compatible_brands.markup">isomiso2avc1mp41</property>
  <property name="meta.attr.encoder.markup">Lavf58.45.100</property>
  <property name="meta.media.sample_aspect_num">1</property>
  <property name="meta.media.sample_aspect_den">1</property>
  <property name="meta.media.frame_rate_num">30000</property>
  <property name="meta.media.frame_rate_den">1001</property>
  <property name="meta.media.colorspace">709</property>
  <property name="meta.media.color_trc">1</property>
  <property name="meta.media.width">1920</property>
  <property name="meta.media.height">1080</property>
  <property name="meta.media.color_range">mpeg</property>
  <property name="meta.media.top_field_first">0</property>
  <property name="meta.media.progressive">1</property>
  <property name="set.test_audio">1</property>
  <property name="set.test_image">0</property>
 </producer>
 <playlist id="playlist6">
  <blank length="00:00:07.000"/>
  <entry producer="producer151" in="00:00:00.000" out="00:00:16.600">
   <property name="kdenlive:id">92</property>
   <filter id="filter17" out="00:00:01.467">
    <property name="start">0</property>
    <property name="mlt_service">brightness</property>
    <property name="kdenlive_id">fade_from_black</property>
    <property name="end">1</property>
    <property name="alpha">-1</property>
   </filter>
  </entry>
  <entry producer="producer152" in="00:00:17.233" out="00:00:21.133">
   <property name="kdenlive:id">92</property>
  </entry>
  <entry producer="producer153" in="00:00:00.000" out="00:00:01.567">
   <property name="kdenlive:id">92</property>
  </entry>
  <entry producer="producer154" in="00:00:04.000" out="00:00:04.933">
   <property name="kdenlive:id">92</property>
  </entry>
  <entry producer="producer155" in="00:00:08.200" out="00:00:08.533">
   <property name="kdenlive:id">92</property>
  </entry>
  <entry producer="producer156" in="00:00:11.233" out="00:00:12.967">
   <property name="kdenlive:id">92</property>
  </entry>
  <entry producer="producer157" in="00:00:05.200" out="00:00:06.267">
   <property name="kdenlive:id">92</property>
  </entry>
  <entry producer="producer151" in="00:00:31.500" out="00:00:32.433">
   <property name="kdenlive:id">92</property>
  </entry>
  <entry producer="producer158" in="00:00:05.400" out="00:00:09.800">
   <property name="kdenlive:id">92</property>
  </entry>
  <entry producer="producer159" in="00:00:29.500" out="00:00:30.467">
   <property name="kdenlive:id">92</property>
  </entry>
  <entry producer="producer160" in="00:00:14.367" out="00:00:15.333">
   <property name="kdenlive:id">92</property>
  </entry>
  <entry producer="producer161" in="00:00:29.500" out="00:00:29.700">
   <property name="kdenlive:id">92</property>
  </entry>
  <entry producer="producer162" in="00:00:10.233" out="00:00:12.000">
   <property name="kdenlive:id">92</property>
   <filter id="filter18">
    <property name="rotate_center">1</property>
    <property name="mlt_service">qtblend</property>
    <property name="kdenlive_id">qtblend</property>
    <property name="rect">00:00:10.233=0 0 1920 1080 1.000000;00:00:12.000=-96 -100 2112 1189 1.000000</property>
    <property name="rotation">00:00:10.233=0;00:00:12.000=0</property>
    <property name="compositing">0</property>
    <property name="distort">0</property>
    <property name="kdenlive:collapsed">0</property>
   </filter>
  </entry>
  <entry producer="producer151" in="00:01:12.200" out="00:01:15.367">
   <property name="kdenlive:id">92</property>
   <filter id="filter19">
    <property name="rotate_center">1</property>
    <property name="mlt_service">qtblend</property>
    <property name="kdenlive_id">qtblend</property>
    <property name="rect">00:01:12.200=-96 -100 2112 1188 1.000000;00:01:15.367=-190 -193 2302 1294 1.000000</property>
    <property name="rotation">00:01:12.200=0;00:01:15.367=0</property>
    <property name="compositing">0</property>
    <property name="distort">0</property>
    <property name="kdenlive:collapsed">0</property>
   </filter>
  </entry>
  <entry producer="producer163" in="00:00:12.567" out="00:00:13.700">
   <property name="kdenlive:id">92</property>
   <filter id="filter20">
    <property name="rotate_center">1</property>
    <property name="mlt_service">qtblend</property>
    <property name="kdenlive_id">qtblend</property>
    <property name="rect">00:00:12.567=-191 -194 2304 1296 1.000000;00:00:13.700=-383 -402 2688 1512 1.000000</property>
    <property name="rotation">00:00:12.567=0;00:00:13.700=0</property>
    <property name="compositing">0</property>
    <property name="distort">0</property>
    <property name="kdenlive:collapsed">0</property>
   </filter>
  </entry>
  <entry producer="producer151" in="00:01:16.567" out="00:01:29.767">
   <property name="kdenlive:id">92</property>
   <filter id="filter21">
    <property name="version">0.1</property>
    <property name="mlt_service">frei0r.mask0mate</property>
    <property name="kdenlive_id">frei0r.mask0mate</property>
    <property name="Left">00:01:16.567=0</property>
    <property name="Right">00:01:16.567=0</property>
    <property name="Top">00:01:16.567=0</property>
    <property name="Bottom">00:01:16.567=0.158</property>
    <property name="Invert">1</property>
    <property name="Blur">00:01:16.567=0.155</property>
    <property name="kdenlive:collapsed">0</property>
   </filter>
   <filter id="filter22">
    <property name="rotate_center">1</property>
    <property name="mlt_service">qtblend</property>
    <property name="kdenlive_id">qtblend</property>
    <property name="rect">00:01:16.567=0 -233 1920 1081 1.000000</property>
    <property name="rotation">00:01:16.567=0</property>
    <property name="compositing">0</property>
    <property name="distort">0</property>
    <property name="kdenlive:collapsed">0</property>
   </filter>
  </entry>
  <entry producer="producer164" in="00:00:00.000" out="00:00:01.067">
   <property name="kdenlive:id">92</property>
   <filter id="filter23">
    <property name="version">0.1</property>
    <property name="mlt_service">frei0r.mask0mate</property>
    <property name="kdenlive_id">frei0r.mask0mate</property>
    <property name="Left">00:00:00.000=0;00:00:01.067=0</property>
    <property name="Right">00:00:00.000=0;00:00:01.067=0</property>
    <property name="Top">00:00:00.000=0;00:00:01.067=0</property>
    <property name="Bottom">00:00:00.000=0.158;00:00:01.067=0.158</property>
    <property name="Invert">1</property>
    <property name="Blur">00:00:00.000=0.155;00:00:01.067=0.155</property>
    <property name="kdenlive:collapsed">0</property>
   </filter>
   <filter id="filter24">
    <property name="rotate_center">1</property>
    <property name="mlt_service">qtblend</property>
    <property name="kdenlive_id">qtblend</property>
    <property name="rect">00:00:00.000=0 -233 1920 1081 1.000000;00:00:01.067=0 -233 1920 1081 1.000000</property>
    <property name="rotation">00:00:00.000=0;00:00:01.067=0</property>
    <property name="compositing">0</property>
    <property name="distort">0</property>
    <property name="kdenlive:collapsed">0</property>
   </filter>
  </entry>
  <entry producer="producer165" in="00:00:00.167" out="00:00:03.300">
   <property name="kdenlive:id">92</property>
   <filter id="filter25">
    <property name="version">0.1</property>
    <property name="mlt_service">frei0r.mask0mate</property>
    <property name="kdenlive_id">frei0r.mask0mate</property>
    <property name="Left">00:00:00.167=0;00:00:03.300=0</property>
    <property name="Right">00:00:00.167=0;00:00:03.300=0</property>
    <property name="Top">00:00:00.167=0;00:00:03.300=0</property>
    <property name="Bottom">00:00:00.167=0.158;00:00:03.300=0.158</property>
    <property name="Invert">1</property>
    <property name="Blur">00:00:00.167=0.155;00:00:03.300=0.155</property>
    <property name="kdenlive:collapsed">0</property>
   </filter>
   <filter id="filter26">
    <property name="rotate_center">1</property>
    <property name="mlt_service">qtblend</property>
    <property name="kdenlive_id">qtblend</property>
    <property name="rect">00:00:00.167=0 -233 1920 1081 1.000000;00:00:03.300=0 -233 1920 1081 1.000000</property>
    <property name="rotation">00:00:00.167=0;00:00:03.300=0</property>
    <property name="compositing">0</property>
    <property name="distort">0</property>
    <property name="kdenlive:collapsed">0</property>
   </filter>
  </entry>
  <entry producer="producer166" in="00:00:06.667" out="00:00:08.033">
   <property name="kdenlive:id">92</property>
   <filter id="filter27">
    <property name="version">0.1</property>
    <property name="mlt_service">frei0r.mask0mate</property>
    <property name="kdenlive_id">frei0r.mask0mate</property>
    <property name="Left">00:00:06.667=0;00:00:08.033=0</property>
    <property name="Right">00:00:06.667=0;00:00:08.033=0</property>
    <property name="Top">00:00:06.667=0;00:00:08.033=0</property>
    <property name="Bottom">00:00:06.667=0.158;00:00:08.033=0.158</property>
    <property name="Invert">1</property>
    <property name="Blur">00:00:06.667=0.155;00:00:08.033=0.155</property>
    <property name="kdenlive:collapsed">0</property>
   </filter>
   <filter id="filter28">
    <property name="rotate_center">1</property>
    <property name="mlt_service">qtblend</property>
    <property name="kdenlive_id">qtblend</property>
    <property name="rect">00:00:06.667=0 -233 1920 1081 1.000000;00:00:08.033=0 -233 1920 1081 1.000000</property>
    <property name="rotation">00:00:06.667=0;00:00:08.033=0</property>
    <property name="compositing">0</property>
    <property name="distort">0</property>
    <property name="kdenlive:collapsed">0</property>
   </filter>
  </entry>
  <entry producer="producer167" in="00:00:04.033" out="00:00:05.667">
   <property name="kdenlive:id">92</property>
   <filter id="filter29">
    <property name="version">0.1</property>
    <property name="mlt_service">frei0r.mask0mate</property>
    <property name="kdenlive_id">frei0r.mask0mate</property>
    <property name="Left">00:00:04.033=0;00:00:05.667=0</property>
    <property name="Right">00:00:04.033=0;00:00:05.667=0</property>
    <property name="Top">00:00:04.033=0;00:00:05.667=0</property>
    <property name="Bottom">00:00:04.033=0.158;00:00:05.667=0.158</property>
    <property name="Invert">1</property>
    <property name="Blur">00:00:04.033=0.155;00:00:05.667=0.155</property>
    <property name="kdenlive:collapsed">0</property>
   </filter>
   <filter id="filter30">
    <property name="rotate_center">1</property>
    <property name="mlt_service">qtblend</property>
    <property name="kdenlive_id">qtblend</property>
    <property name="rect">00:00:04.033=0 -233 1920 1081 1.000000;00:00:05.667=0 -233 1920 1081 1.000000</property>
    <property name="rotation">00:00:04.033=0;00:00:05.667=0</property>
    <property name="compositing">0</property>
    <property name="distort">0</property>
    <property name="kdenlive:collapsed">0</property>
   </filter>
  </entry>
  <entry producer="producer168" in="00:00:34.200" out="00:00:35.600">
   <property name="kdenlive:id">92</property>
   <filter id="filter31">
    <property name="version">0.1</property>
    <property name="mlt_service">frei0r.mask0mate</property>
    <property name="kdenlive_id">frei0r.mask0mate</property>
    <property name="Left">00:00:34.200=0</property>
    <property name="Right">00:00:34.200=0</property>
    <property name="Top">00:00:34.200=0</property>
    <property name="Bottom">00:00:34.200=0.158</property>
    <property name="Invert">1</property>
    <property name="Blur">00:00:34.200=0.155</property>
    <property name="kdenlive:collapsed">0</property>
   </filter>
   <filter id="filter32">
    <property name="rotate_center">1</property>
    <property name="mlt_service">qtblend</property>
    <property name="kdenlive_id">qtblend</property>
    <property name="rect">00:00:34.200=0 -233 1920 1081 1.000000</property>
    <property name="rotation">00:00:34.200=0</property>
    <property name="compositing">0</property>
    <property name="distort">0</property>
    <property name="kdenlive:collapsed">0</property>
   </filter>
  </entry>
  <entry producer="producer169" in="00:00:17.800" out="00:00:20.833">
   <property name="kdenlive:id">92</property>
   <filter id="filter33">
    <property name="version">0.1</property>
    <property name="mlt_service">frei0r.mask0mate</property>
    <property name="kdenlive_id">frei0r.mask0mate</property>
    <property name="Left">00:00:17.800=0</property>
    <property name="Right">00:00:17.800=0</property>
    <property name="Top">00:00:17.800=0</property>
    <property name="Bottom">00:00:17.800=0.158</property>
    <property name="Invert">1</property>
    <property name="Blur">00:00:17.800=0.155</property>
    <property name="kdenlive:collapsed">0</property>
   </filter>
   <filter id="filter34">
    <property name="rotate_center">1</property>
    <property name="mlt_service">qtblend</property>
    <property name="kdenlive_id">qtblend</property>
    <property name="rect">00:00:17.800=0 -233 1920 1081 1.000000</property>
    <property name="rotation">00:00:17.800=0</property>
    <property name="compositing">0</property>
    <property name="distort">0</property>
    <property name="kdenlive:collapsed">0</property>
   </filter>
  </entry>
  <entry producer="producer170" in="00:00:13.900" out="00:00:17.300">
   <property name="kdenlive:id">92</property>
   <filter id="filter35">
    <property name="version">0.1</property>
    <property name="mlt_service">frei0r.mask0mate</property>
    <property name="kdenlive_id">frei0r.mask0mate</property>
    <property name="Left">00:00:13.900=0</property>
    <property name="Right">00:00:13.900=0</property>
    <property name="Top">00:00:13.900=0</property>
    <property name="Bottom">00:00:13.900=0.158</property>
    <property name="Invert">1</property>
    <property name="Blur">00:00:13.900=0.155</property>
    <property name="kdenlive:collapsed">0</property>
   </filter>
   <filter id="filter36">
    <property name="rotate_center">1</property>
    <property name="mlt_service">qtblend</property>
    <property name="kdenlive_id">qtblend</property>
    <property name="rect">00:00:13.900=0 -233 1920 1081 1.000000</property>
    <property name="rotation">00:00:13.900=0</property>
    <property name="compositing">0</property>
    <property name="distort">0</property>
    <property name="kdenlive:collapsed">0</property>
   </filter>
  </entry>
  <entry producer="producer171" in="00:00:13.000" out="00:00:17.033">
   <property name="kdenlive:id">92</property>
   <filter id="filter37">
    <property name="version">0.1</property>
    <property name="mlt_service">frei0r.mask0mate</property>
    <property name="kdenlive_id">frei0r.mask0mate</property>
    <property name="Left">00:00:13.000=0</property>
    <property name="Right">00:00:13.000=0</property>
    <property name="Top">00:00:13.000=0</property>
    <property name="Bottom">00:00:13.000=0.158</property>
    <property name="Invert">1</property>
    <property name="Blur">00:00:13.000=0.155</property>
    <property name="kdenlive:collapsed">0</property>
   </filter>
   <filter id="filter38">
    <property name="rotate_center">1</property>
    <property name="mlt_service">qtblend</property>
    <property name="kdenlive_id">qtblend</property>
    <property name="rect">00:00:13.000=0 -233 1920 1081 1.000000</property>
    <property name="rotation">00:00:13.000=0</property>
    <property name="compositing">0</property>
    <property name="distort">0</property>
    <property name="kdenlive:collapsed">0</property>
   </filter>
  </entry>
  <entry producer="producer172" in="00:00:01.433" out="00:00:04.200">
   <property name="kdenlive:id">92</property>
   <filter id="filter39">
    <property name="version">0.1</property>
    <property name="mlt_service">frei0r.mask0mate</property>
    <property name="kdenlive_id">frei0r.mask0mate</property>
    <property name="Left">00:00:01.433=0;00:00:04.200=0</property>
    <property name="Right">00:00:01.433=0;00:00:04.200=0</property>
    <property name="Top">00:00:01.433=0;00:00:04.200=0</property>
    <property name="Bottom">00:00:01.433=0.158;00:00:04.200=0.158</property>
    <property name="Invert">1</property>
    <property name="Blur">00:00:01.433=0.155;00:00:04.200=0.155</property>
    <property name="kdenlive:collapsed">0</property>
   </filter>
   <filter id="filter40">
    <property name="rotate_center">1</property>
    <property name="mlt_service">qtblend</property>
    <property name="kdenlive_id">qtblend</property>
    <property name="rect">00:00:01.433=0 -233 1920 1081 1.000000;00:00:04.200=0 -233 1920 1081 1.000000</property>
    <property name="rotation">00:00:01.433=0;00:00:04.200=0</property>
    <property name="compositing">0</property>
    <property name="distort">0</property>
    <property name="kdenlive:collapsed">0</property>
   </filter>
  </entry>
  <entry producer="producer173" in="00:00:31.733" out="00:00:36.800">
   <property name="kdenlive:id">92</property>
   <property name="kdenlive:activeeffect">1</property>
   <filter id="filter41">
    <property name="version">0.1</property>
    <property name="mlt_service">frei0r.mask0mate</property>
    <property name="kdenlive_id">frei0r.mask0mate</property>
    <property name="Left">00:00:31.733=0</property>
    <property name="Right">00:00:31.733=0</property>
    <property name="Top">00:00:31.733=0</property>
    <property name="Bottom">00:00:31.733=0.158</property>
    <property name="Invert">1</property>
    <property name="Blur">00:00:31.733=0.155</property>
    <property name="kdenlive:collapsed">0</property>
   </filter>
   <filter id="filter42">
    <property name="rotate_center">1</property>
    <property name="mlt_service">qtblend</property>
    <property name="kdenlive_id">qtblend</property>
    <property name="rect">00:00:31.733=0 -510 1920 1081 0.600000;00:00:36.800=0 -510 1920 1081 0.600000</property>
    <property name="rotation">00:00:31.733=0;00:00:36.800=0</property>
    <property name="compositing">0</property>
    <property name="distort">0</property>
    <property name="kdenlive:collapsed">0</property>
   </filter>
   <filter id="filter43">
    <property name="mlt_service">avfilter.vflip</property>
    <property name="kdenlive_id">avfilter.vflip</property>
    <property name="kdenlive:collapsed">0</property>
   </filter>
  </entry>
  <entry producer="producer174" in="00:00:12.267" out="00:00:14.933">
   <property name="kdenlive:id">92</property>
   <property name="kdenlive:activeeffect">1</property>
   <filter id="filter44">
    <property name="version">0.1</property>
    <property name="mlt_service">frei0r.mask0mate</property>
    <property name="kdenlive_id">frei0r.mask0mate</property>
    <property name="Left">00:00:12.267=0</property>
    <property name="Right">00:00:12.267=0</property>
    <property name="Top">00:00:12.267=0</property>
    <property name="Bottom">00:00:12.267=0.158</property>
    <property name="Invert">1</property>
    <property name="Blur">00:00:12.267=0.155</property>
    <property name="kdenlive:collapsed">0</property>
   </filter>
   <filter id="filter45">
    <property name="rotate_center">1</property>
    <property name="mlt_service">qtblend</property>
    <property name="kdenlive_id">qtblend</property>
    <property name="rect">00:00:12.267=0 -510 1920 1081 0.600000;00:00:14.933=0 -510 1920 1081 0.150000</property>
    <property name="rotation">00:00:12.267=0;00:00:14.933=0</property>
    <property name="compositing">0</property>
    <property name="distort">0</property>
    <property name="kdenlive:collapsed">0</property>
   </filter>
   <filter id="filter46">
    <property name="mlt_service">avfilter.vflip</property>
    <property name="kdenlive_id">avfilter.vflip</property>
    <property name="kdenlive:collapsed">0</property>
   </filter>
  </entry>
  <blank length="00:00:13.833"/>
  <entry producer="producer175" in="00:00:05.067" out="00:00:25.700">
   <property name="kdenlive:id">94</property>
   <filter id="filter129">
    <property name="version">0.1</property>
    <property name="mlt_service">frei0r.mask0mate</property>
    <property name="kdenlive_id">frei0r.mask0mate</property>
    <property name="Left">00:00:05.067=0;00:00:15.233=0;00:00:17.033=0</property>
    <property name="Right">00:00:05.067=0;00:00:15.233=0;00:00:17.033=0</property>
    <property name="Top">00:00:05.067=0;00:00:15.233=0;00:00:17.033=0</property>
    <property name="Bottom">00:00:05.067=0;00:00:15.233=0;00:00:17.033=0.059</property>
    <property name="Invert">1</property>
    <property name="Blur">00:00:05.067=0;00:00:15.233=0;00:00:17.033=0.08</property>
    <property name="kdenlive:collapsed">0</property>
   </filter>
   <filter id="filter130">
    <property name="rotate_center">1</property>
    <property name="mlt_service">qtblend</property>
    <property name="kdenlive_id">qtblend</property>
    <property name="rect">00:00:05.067=0 0 1920 1080 1.000000;00:00:15.233=0 0 1920 1080 1.000000;00:00:17.033=0 -171 1920 1080 1.000000</property>
    <property name="rotation">00:00:05.067=0;00:00:15.233=0;00:00:17.033=0</property>
    <property name="compositing">0</property>
    <property name="distort">0</property>
    <property name="kdenlive:collapsed">0</property>
   </filter>
  </entry>
  <blank length="00:00:01.900"/>
  <entry producer="producer176" in="00:00:00.000" out="00:00:05.967">
   <property name="kdenlive:id">61</property>
   <filter id="filter56">
    <property name="rotate_center">1</property>
    <property name="mlt_service">qtblend</property>
    <property name="kdenlive_id">qtblend</property>
    <property name="rect">00:00:00.000=-142 -60 1200 1200 1.000000</property>
    <property name="rotation">00:00:00.000=0</property>
    <property name="compositing">0</property>
    <property name="distort">0</property>
    <property name="kdenlive:collapsed">0</property>
   </filter>
   <filter id="filter57">
    <property name="mirror">horizontal</property>
    <property name="mlt_service">mirror</property>
    <property name="kdenlive_id">mirror</property>
    <property name="reverse">1</property>
    <property name="kdenlive:collapsed">0</property>
    <property name="disable">0</property>
   </filter>
   <filter id="filter47" out="00:00:03.500">
    <property name="start">0</property>
    <property name="mlt_service">brightness</property>
    <property name="kdenlive_id">fade_from_black</property>
    <property name="end">1</property>
    <property name="alpha">-1</property>
   </filter>
  </entry>
  <entry producer="producer177" in="00:00:07.500" out="00:00:09.967">
   <property name="kdenlive:id">61</property>
   <filter id="filter48">
    <property name="rotate_center">1</property>
    <property name="mlt_service">qtblend</property>
    <property name="kdenlive_id">qtblend</property>
    <property name="rect">00:00:07.500=-142 -60 1200 1200 1.000000</property>
    <property name="rotation">00:00:07.500=0</property>
    <property name="compositing">0</property>
    <property name="distort">0</property>
    <property name="kdenlive:collapsed">0</property>
   </filter>
   <filter id="filter49">
    <property name="mirror">horizontal</property>
    <property name="mlt_service">mirror</property>
    <property name="kdenlive_id">mirror</property>
    <property name="reverse">1</property>
    <property name="kdenlive:collapsed">0</property>
   </filter>
  </entry>
  <entry producer="producer84" in="00:00:08.000" out="00:00:10.067">
   <property name="kdenlive:id">61</property>
   <filter id="filter50">
    <property name="rotate_center">1</property>
    <property name="mlt_service">qtblend</property>
    <property name="kdenlive_id">qtblend</property>
    <property name="rect">00:00:08.000=-142 -60 1200 1200 1.000000</property>
    <property name="rotation">00:00:08.000=0</property>
    <property name="compositing">0</property>
    <property name="distort">0</property>
    <property name="kdenlive:collapsed">0</property>
   </filter>
   <filter id="filter51">
    <property name="mirror">horizontal</property>
    <property name="mlt_service">mirror</property>
    <property name="kdenlive_id">mirror</property>
    <property name="reverse">1</property>
    <property name="kdenlive:collapsed">0</property>
   </filter>
  </entry>
  <entry producer="producer84" in="00:00:10.100" out="00:00:14.800">
   <property name="kdenlive:id">61</property>
   <filter id="filter52">
    <property name="rotate_center">1</property>
    <property name="mlt_service">qtblend</property>
    <property name="kdenlive_id">qtblend</property>
    <property name="rect">00:00:10.100=-142 -60 1200 1200 1.000000</property>
    <property name="rotation">00:00:10.100=0</property>
    <property name="compositing">0</property>
    <property name="distort">0</property>
    <property name="kdenlive:collapsed">0</property>
   </filter>
   <filter id="filter53">
    <property name="mirror">horizontal</property>
    <property name="mlt_service">mirror</property>
    <property name="kdenlive_id">mirror</property>
    <property name="reverse">1</property>
    <property name="kdenlive:collapsed">0</property>
   </filter>
  </entry>
  <entry producer="producer178" in="00:00:26.633" out="00:00:29.533">
   <property name="kdenlive:id">61</property>
   <filter id="filter54">
    <property name="rotate_center">1</property>
    <property name="mlt_service">qtblend</property>
    <property name="kdenlive_id">qtblend</property>
    <property name="rect">00:00:26.633=-142 -60 1200 1200 1.000000</property>
    <property name="rotation">00:00:26.633=0</property>
    <property name="compositing">0</property>
    <property name="distort">0</property>
    <property name="kdenlive:collapsed">0</property>
   </filter>
   <filter id="filter55">
    <property name="mirror">horizontal</property>
    <property name="mlt_service">mirror</property>
    <property name="kdenlive_id">mirror</property>
    <property name="reverse">1</property>
    <property name="kdenlive:collapsed">0</property>
   </filter>
  </entry>
  <entry producer="producer179" in="00:00:19.267" out="00:00:24.467">
   <property name="kdenlive:id">61</property>
   <filter id="filter58">
    <property name="rotate_center">1</property>
    <property name="mlt_service">qtblend</property>
    <property name="kdenlive_id">qtblend</property>
    <property name="rect">00:00:19.267=-142 -60 1200 1200 1.000000</property>
    <property name="rotation">00:00:19.267=0</property>
    <property name="compositing">0</property>
    <property name="distort">0</property>
    <property name="kdenlive:collapsed">0</property>
   </filter>
   <filter id="filter59">
    <property name="mirror">horizontal</property>
    <property name="mlt_service">mirror</property>
    <property name="kdenlive_id">mirror</property>
    <property name="reverse">1</property>
    <property name="kdenlive:collapsed">0</property>
   </filter>
  </entry>
  <entry producer="producer84" in="00:00:20.933" out="00:00:33.700">
   <property name="kdenlive:id">61</property>
   <filter id="filter60">
    <property name="rotate_center">1</property>
    <property name="mlt_service">qtblend</property>
    <property name="kdenlive_id">qtblend</property>
    <property name="rect">00:00:20.933=-142 -60 1200 1200 1.000000</property>
    <property name="rotation">00:00:20.933=0</property>
    <property name="compositing">0</property>
    <property name="distort">0</property>
    <property name="kdenlive:collapsed">0</property>
   </filter>
   <filter id="filter61">
    <property name="mirror">horizontal</property>
    <property name="mlt_service">mirror</property>
    <property name="kdenlive_id">mirror</property>
    <property name="reverse">1</property>
    <property name="kdenlive:collapsed">0</property>
   </filter>
  </entry>
  <entry producer="producer180" in="00:00:23.367" out="00:00:24.767">
   <property name="kdenlive:id">61</property>
   <filter id="filter62">
    <property name="rotate_center">1</property>
    <property name="mlt_service">qtblend</property>
    <property name="kdenlive_id">qtblend</property>
    <property name="rect">00:00:23.367=-142 -60 1200 1200 1.000000;00:00:24.767=-142 -60 1200 1200 1.000000</property>
    <property name="rotation">00:00:23.367=0;00:00:24.767=0</property>
    <property name="compositing">0</property>
    <property name="distort">0</property>
    <property name="kdenlive:collapsed">0</property>
   </filter>
   <filter id="filter63">
    <property name="mirror">horizontal</property>
    <property name="mlt_service">mirror</property>
    <property name="kdenlive_id">mirror</property>
    <property name="reverse">1</property>
    <property name="kdenlive:collapsed">0</property>
   </filter>
  </entry>
  <entry producer="producer84" in="00:00:35.800" out="00:00:43.533">
   <property name="kdenlive:id">61</property>
   <filter id="filter64">
    <property name="rotate_center">1</property>
    <property name="mlt_service">qtblend</property>
    <property name="kdenlive_id">qtblend</property>
    <property name="rect">00:00:35.800=-142 -60 1200 1200 1.000000</property>
    <property name="rotation">00:00:35.800=0</property>
    <property name="compositing">0</property>
    <property name="distort">0</property>
    <property name="kdenlive:collapsed">0</property>
   </filter>
   <filter id="filter65">
    <property name="mirror">horizontal</property>
    <property name="mlt_service">mirror</property>
    <property name="kdenlive_id">mirror</property>
    <property name="reverse">1</property>
    <property name="kdenlive:collapsed">0</property>
   </filter>
  </entry>
  <entry producer="producer181" in="00:01:12.800" out="00:01:16.667">
   <property name="kdenlive:id">61</property>
   <filter id="filter66">
    <property name="rotate_center">1</property>
    <property name="mlt_service">qtblend</property>
    <property name="kdenlive_id">qtblend</property>
    <property name="rect">00:01:12.800=-142 -60 1200 1200 1.000000</property>
    <property name="rotation">00:01:12.800=0</property>
    <property name="compositing">0</property>
    <property name="distort">0</property>
   </filter>
   <filter id="filter67">
    <property name="mirror">horizontal</property>
    <property name="mlt_service">mirror</property>
    <property name="kdenlive_id">mirror</property>
    <property name="reverse">1</property>
   </filter>
  </entry>
  <entry producer="producer182" in="00:00:43.233" out="00:00:55.733">
   <property name="kdenlive:id">61</property>
   <filter id="filter68">
    <property name="rotate_center">1</property>
    <property name="mlt_service">qtblend</property>
    <property name="kdenlive_id">qtblend</property>
    <property name="rect">00:00:43.233=-142 -60 1200 1200 1.000000</property>
    <property name="rotation">00:00:43.233=0</property>
    <property name="compositing">0</property>
    <property name="distort">0</property>
    <property name="kdenlive:collapsed">0</property>
   </filter>
   <filter id="filter69">
    <property name="mirror">horizontal</property>
    <property name="mlt_service">mirror</property>
    <property name="kdenlive_id">mirror</property>
    <property name="reverse">1</property>
    <property name="kdenlive:collapsed">0</property>
   </filter>
  </entry>
  <entry producer="producer84" in="00:00:59.200" out="00:01:09.833">
   <property name="kdenlive:id">61</property>
   <filter id="filter70">
    <property name="rotate_center">1</property>
    <property name="mlt_service">qtblend</property>
    <property name="kdenlive_id">qtblend</property>
    <property name="rect">00:00:59.200=-142 -60 1200 1200 1.000000</property>
    <property name="rotation">00:00:59.200=0</property>
    <property name="compositing">0</property>
    <property name="distort">0</property>
    <property name="kdenlive:collapsed">0</property>
   </filter>
   <filter id="filter71">
    <property name="mirror">horizontal</property>
    <property name="mlt_service">mirror</property>
    <property name="kdenlive_id">mirror</property>
    <property name="reverse">1</property>
    <property name="kdenlive:collapsed">0</property>
   </filter>
  </entry>
  <entry producer="producer84" in="00:01:09.867" out="00:01:17.967">
   <property name="kdenlive:id">61</property>
   <filter id="filter72">
    <property name="rotate_center">1</property>
    <property name="mlt_service">qtblend</property>
    <property name="kdenlive_id">qtblend</property>
    <property name="rect">00:01:09.867=-142 -60 1200 1200 1.000000</property>
    <property name="rotation">00:01:09.867=0</property>
    <property name="compositing">0</property>
    <property name="distort">0</property>
    <property name="kdenlive:collapsed">0</property>
   </filter>
   <filter id="filter73">
    <property name="mirror">horizontal</property>
    <property name="mlt_service">mirror</property>
    <property name="kdenlive_id">mirror</property>
    <property name="reverse">1</property>
    <property name="kdenlive:collapsed">0</property>
   </filter>
  </entry>
  <blank length="00:00:08.367"/>
  <entry producer="producer183" in="00:00:00.000" out="00:00:13.833">
   <property name="kdenlive:id">64</property>
   <filter id="filter74" out="00:00:03.767">
    <property name="start">0</property>
    <property name="mlt_service">brightness</property>
    <property name="kdenlive_id">fade_from_black</property>
    <property name="end">1</property>
    <property name="alpha">-1</property>
    <property name="kdenlive:collapsed">0</property>
   </filter>
  </entry>
  <entry producer="producer184" in="00:00:25.000" out="00:00:29.500">
   <property name="kdenlive:id">64</property>
  </entry>
  <entry producer="producer183" in="00:00:13.867" out="00:00:17.233">
   <property name="kdenlive:id">64</property>
  </entry>
  <entry producer="producer185" in="00:00:01.333" out="00:00:02.767">
   <property name="kdenlive:id">64</property>
  </entry>
  <entry producer="producer186" in="00:00:04.233" out="00:00:07.767">
   <property name="kdenlive:id">64</property>
  </entry>
  <entry producer="producer187" in="00:00:21.600" out="00:00:22.600">
   <property name="kdenlive:id">64</property>
  </entry>
  <entry producer="producer188" in="00:00:31.267" out="00:00:35.267">
   <property name="kdenlive:id">64</property>
  </entry>
  <entry producer="producer189" in="00:00:17.633" out="00:00:19.400">
   <property name="kdenlive:id">64</property>
  </entry>
  <entry producer="producer190" in="00:00:00.000" out="00:00:01.000">
   <property name="kdenlive:id">64</property>
  </entry>
  <entry producer="producer191" in="00:00:00.500" out="00:00:03.967">
   <property name="kdenlive:id">64</property>
  </entry>
  <blank length="00:01:00.133"/>
  <entry producer="producer192" in="00:00:01.433" out="00:01:10.133">
   <property name="kdenlive:id">148</property>
   <filter id="filter75">
    <property name="lift_r">-0.462501</property>
    <property name="lift_g">-0.462501</property>
    <property name="lift_b">-0.462501</property>
    <property name="gamma_r">1.02501</property>
    <property name="gamma_g">1.02501</property>
    <property name="gamma_b">1.02501</property>
    <property name="gain_r">1.05</property>
    <property name="gain_g">1.05</property>
    <property name="gain_b">1.05</property>
    <property name="mlt_service">lift_gamma_gain</property>
    <property name="kdenlive_id">lift_gamma_gain</property>
    <property name="kdenlive:collapsed">0</property>
    <property name="disable">0</property>
   </filter>
   <filter id="filter76">
    <property name="version">0.3</property>
    <property name="mlt_service">frei0r.saturat0r</property>
    <property name="kdenlive_id">frei0r.saturat0r</property>
    <property name="Saturation">00:00:01.433=0.181</property>
    <property name="kdenlive:collapsed">0</property>
    <property name="disable">0</property>
   </filter>
   <filter id="filter77" in="00:01:04.667" out="00:01:10.133">
    <property name="start">1</property>
    <property name="mlt_service">brightness</property>
    <property name="kdenlive_id">fade_to_black</property>
    <property name="end">0</property>
    <property name="alpha">-1</property>
   </filter>
  </entry>
  <blank length="00:00:13.967"/>
  <entry producer="producer193" in="00:00:47.867" out="00:01:16.367">
   <property name="kdenlive:id">92</property>
   <property name="kdenlive:activeeffect">-1</property>
  </entry>
  <blank length="00:04:37.767"/>
  <entry producer="producer194" in="00:00:00.000" out="00:00:23.133">
   <property name="kdenlive:id">26</property>
   <property name="kdenlive:activeeffect">2</property>
   <filter id="filter79" out="00:00:00.533">
    <property name="start">0</property>
    <property name="mlt_service">brightness</property>
    <property name="kdenlive_id">fade_from_black</property>
    <property name="end">1</property>
    <property name="alpha">-1</property>
    <property name="kdenlive:collapsed">0</property>
   </filter>
   <filter id="filter80">
    <property name="rotate_center">1</property>
    <property name="mlt_service">qtblend</property>
    <property name="kdenlive_id">qtblend</property>
    <property name="rect">00:00:00.000=-650 0 1920 1080 1.000000</property>
    <property name="rotation">00:00:00.000=0</property>
    <property name="compositing">0</property>
    <property name="distort">0</property>
    <property name="kdenlive:collapsed">0</property>
   </filter>
   <filter id="filter81">
    <property name="mlt_service">avfilter.hflip</property>
    <property name="kdenlive_id">avfilter.hflip</property>
    <property name="kdenlive:collapsed">0</property>
   </filter>
   <filter id="filter82">
    <property name="version">0.3</property>
    <property name="mlt_service">frei0r.saturat0r</property>
    <property name="kdenlive_id">frei0r.saturat0r</property>
    <property name="Saturation">00:00:00.000=0.199</property>
    <property name="kdenlive:collapsed">0</property>
   </filter>
   <filter id="filter83">
    <property name="mlt_service">avfilter.avgblur</property>
    <property name="kdenlive_id">avfilter.avgblur</property>
    <property name="av.sizeX">2</property>
    <property name="av.sizeY">2</property>
    <property name="av.planes">7</property>
    <property name="kdenlive:collapsed">0</property>
   </filter>
  </entry>
  <blank length="00:00:49.333"/>
  <entry producer="producer195" in="00:00:00.000" out="00:00:20.567">
   <property name="kdenlive:id">24</property>
   <property name="kdenlive:activeeffect">1</property>
   <filter id="filter84" out="00:00:00.333">
    <property name="start">0</property>
    <property name="mlt_service">brightness</property>
    <property name="kdenlive_id">fade_from_black</property>
    <property name="end">1</property>
    <property name="alpha">-1</property>
    <property name="kdenlive:collapsed">0</property>
   </filter>
   <filter id="filter85">
    <property name="version">0.1</property>
    <property name="mlt_service">frei0r.glitch0r</property>
    <property name="kdenlive_id">frei0r.glitch0r</property>
    <property name="0">0=0</property>
    <property name="1">0=0.49913</property>
    <property name="2">0=0.499305</property>
    <property name="3">0=0</property>
   </filter>
  </entry>
  <entry producer="producer196" in="00:00:21.567" out="00:00:33.467">
   <property name="kdenlive:id">24</property>
   <filter id="filter86">
    <property name="version">0.1</property>
    <property name="mlt_service">frei0r.glitch0r</property>
    <property name="kdenlive_id">frei0r.glitch0r</property>
    <property name="0">00:00:17.967=0</property>
    <property name="1">00:00:17.967=0.49913</property>
    <property name="2">00:00:17.967=0.499305</property>
    <property name="3">00:00:17.967=0</property>
   </filter>
  </entry>
  <entry producer="producer197" in="00:00:36.867" out="00:00:59.000">
   <property name="kdenlive:id">24</property>
   <filter id="filter87">
    <property name="version">0.1</property>
    <property name="mlt_service">frei0r.glitch0r</property>
    <property name="kdenlive_id">frei0r.glitch0r</property>
    <property name="0">00:00:30.733=0</property>
    <property name="1">00:00:30.733=0.49913</property>
    <property name="2">00:00:30.733=0.499305</property>
    <property name="3">00:00:30.733=0</property>
   </filter>
  </entry>
  <entry producer="producer198" in="00:01:13.800" out="00:01:20.967">
   <property name="kdenlive:id">24</property>
   <filter id="filter88">
    <property name="version">0.1</property>
    <property name="mlt_service">frei0r.glitch0r</property>
    <property name="kdenlive_id">frei0r.glitch0r</property>
    <property name="0">1845=0</property>
    <property name="1">1845=0.49913</property>
    <property name="2">1845=0.499305</property>
    <property name="3">1845=0</property>
   </filter>
  </entry>
  <entry producer="producer199" in="00:02:09.567" out="00:02:09.567">
   <property name="kdenlive:id">24</property>
   <filter id="filter89">
    <property name="version">0.1</property>
    <property name="mlt_service">frei0r.glitch0r</property>
    <property name="kdenlive_id">frei0r.glitch0r</property>
    <property name="0">3625=0</property>
    <property name="1">3625=0.49913</property>
    <property name="2">3625=0.499305</property>
    <property name="3">3625=0</property>
   </filter>
  </entry>
  <entry producer="producer39" in="00:01:04.767" out="00:01:04.767">
   <property name="kdenlive:id">24</property>
   <property name="kdenlive:activeeffect">1</property>
   <filter id="filter90" in="00:01:01.367" out="00:01:04.767">
    <property name="start">1</property>
    <property name="mlt_service">brightness</property>
    <property name="kdenlive_id">fade_to_black</property>
    <property name="end">0</property>
    <property name="alpha">-1</property>
    <property name="kdenlive:collapsed">0</property>
   </filter>
   <filter id="filter91">
    <property name="version">0.1</property>
    <property name="mlt_service">frei0r.glitch0r</property>
    <property name="kdenlive_id">frei0r.glitch0r</property>
    <property name="0">1833=0.177374</property>
    <property name="1">1833=0.290503</property>
    <property name="2">1833=0.187151</property>
    <property name="3">1833=0.111732</property>
    <property name="kdenlive:collapsed">0</property>
   </filter>
  </entry>
  <entry producer="producer200" in="00:00:00.000" out="00:00:17.533">
   <property name="kdenlive:id">27</property>
   <property name="kdenlive:activeeffect">4</property>
   <filter id="filter92">
    <property name="mlt_service">avfilter.vflip</property>
    <property name="kdenlive_id">avfilter.vflip</property>
    <property name="kdenlive:collapsed">0</property>
   </filter>
   <filter id="filter93" in="00:00:-1.667" out="00:00:17.533">
    <property name="start">1</property>
    <property name="mlt_service">brightness</property>
    <property name="kdenlive_id">fade_to_black</property>
    <property name="end">0</property>
    <property name="alpha">-1</property>
    <property name="kdenlive:collapsed">0</property>
   </filter>
   <filter id="filter94" out="00:00:04.833">
    <property name="start">0</property>
    <property name="mlt_service">brightness</property>
    <property name="kdenlive_id">fade_from_black</property>
    <property name="end">1</property>
    <property name="alpha">-1</property>
    <property name="kdenlive:collapsed">0</property>
   </filter>
   <filter id="filter95">
    <property name="version">0.1</property>
    <property name="mlt_service">frei0r.glitch0r</property>
    <property name="kdenlive_id">frei0r.glitch0r</property>
    <property name="0">00:00:00.000=0.168345</property>
    <property name="1">00:00:00.000=0.087989</property>
    <property name="2">00:00:00.000=0.051676</property>
    <property name="3">00:00:00.000=0.063309</property>
    <property name="kdenlive:collapsed">0</property>
   </filter>
   <filter id="filter96">
    <property name="mlt_service">avfilter.noise</property>
    <property name="kdenlive_id">avfilter.noise</property>
    <property name="av.all_seed">29282</property>
    <property name="av.c0_seed">-1</property>
    <property name="av.c1_seed">-1</property>
    <property name="av.c2_seed">-1</property>
    <property name="av.c3_seed">-1</property>
    <property name="av.alls">4</property>
    <property name="av.c0s">0</property>
    <property name="av.c1s">0</property>
    <property name="av.c2s">0</property>
    <property name="av.c3s">0</property>
    <property name="av.allf">t</property>
    <property name="av.c0f">a</property>
    <property name="av.c1f">a</property>
    <property name="av.c2f">a</property>
    <property name="av.c3f">a</property>
    <property name="kdenlive:collapsed">0</property>
   </filter>
  </entry>
  <blank length="00:00:44.767"/>
  <entry producer="producer4" in="00:00:00.000" out="00:00:02.967">
   <property name="kdenlive:id">68</property>
   <filter id="filter97">
    <property name="rotate_center">1</property>
    <property name="mlt_service">qtblend</property>
    <property name="kdenlive_id">qtblend</property>
    <property name="rect">00:00:00.000=408 0 1080 1440 1.000000</property>
    <property name="rotation">00:00:00.000=0</property>
    <property name="compositing">0</property>
    <property name="distort">0</property>
    <property name="kdenlive:collapsed">0</property>
   </filter>
  </entry>
  <blank length="00:00:01.000"/>
  <entry producer="producer5" in="00:00:00.000" out="00:00:04.967">
   <property name="kdenlive:id">69</property>
   <filter id="filter98">
    <property name="rotate_center">1</property>
    <property name="mlt_service">qtblend</property>
    <property name="kdenlive_id">qtblend</property>
    <property name="rect">00:00:00.000=420 -177 1080 1441 1.000000</property>
    <property name="rotation">00:00:00.000=0</property>
    <property name="compositing">0</property>
    <property name="distort">0</property>
    <property name="kdenlive:collapsed">0</property>
   </filter>
  </entry>
  <blank length="00:00:01.000"/>
  <entry producer="producer45" in="00:00:00.000" out="00:00:04.967">
   <property name="kdenlive:id">85</property>
  </entry>
  <blank length="00:00:01.000"/>
  <entry producer="producer9" in="00:00:00.000" out="00:00:04.967">
   <property name="kdenlive:id">73</property>
   <filter id="filter99">
    <property name="rotate_center">1</property>
    <property name="mlt_service">qtblend</property>
    <property name="kdenlive_id">qtblend</property>
    <property name="rect">00:00:00.000=420 -177 1080 1440 1.000000</property>
    <property name="rotation">00:00:00.000=0</property>
    <property name="compositing">0</property>
    <property name="distort">0</property>
    <property name="kdenlive:collapsed">0</property>
   </filter>
  </entry>
  <blank length="00:00:01.000"/>
  <entry producer="producer14" in="00:00:00.000" out="00:00:04.967">
   <property name="kdenlive:id">77</property>
  </entry>
  <blank length="00:00:01.000"/>
  <entry producer="producer13" in="00:00:00.000" out="00:00:04.967">
   <property name="kdenlive:id">78</property>
   <filter id="filter100">
    <property name="rotate_center">1</property>
    <property name="mlt_service">qtblend</property>
    <property name="kdenlive_id">qtblend</property>
    <property name="rect">00:00:00.000=420 0 1080 1080 1.000000</property>
    <property name="rotation">00:00:00.000=0</property>
    <property name="compositing">0</property>
    <property name="distort">0</property>
    <property name="kdenlive:collapsed">0</property>
   </filter>
  </entry>
  <blank length="00:00:01.000"/>
  <entry producer="producer43" in="00:00:00.000" out="00:00:04.967">
   <property name="kdenlive:id">82</property>
  </entry>
  <blank length="00:00:01.000"/>
  <entry producer="producer11" in="00:00:00.000" out="00:00:04.967">
   <property name="kdenlive:id">75</property>
  </entry>
  <blank length="00:00:01.000"/>
  <entry producer="producer16" in="00:00:00.000" out="00:00:04.967">
   <property name="kdenlive:id">80</property>
   <filter id="filter101">
    <property name="rotate_center">1</property>
    <property name="mlt_service">qtblend</property>
    <property name="kdenlive_id">qtblend</property>
    <property name="rect">00:00:00.000=420 0 1080 1080 1.000000</property>
    <property name="rotation">00:00:00.000=0</property>
    <property name="compositing">0</property>
    <property name="distort">0</property>
    <property name="kdenlive:collapsed">0</property>
   </filter>
  </entry>
  <blank length="00:00:01.000"/>
  <entry producer="producer4" in="00:00:00.000" out="00:00:01.967">
   <property name="kdenlive:id">68</property>
   <filter id="filter102">
    <property name="rotate_center">1</property>
    <property name="mlt_service">qtblend</property>
    <property name="kdenlive_id">qtblend</property>
    <property name="rect">00:00:00.000=408 0 1080 1440 1.000000</property>
    <property name="rotation">00:00:00.000=0</property>
    <property name="compositing">0</property>
    <property name="distort">0</property>
    <property name="kdenlive:collapsed">0</property>
   </filter>
  </entry>
  <blank length="00:00:14.000"/>
  <entry producer="producer113" in="00:00:00.000" out="00:00:02.967">
   <property name="kdenlive:id">122</property>
   <filter id="filter103">
    <property name="mlt_service">avfilter.unsharp</property>
    <property name="kdenlive_id">avfilter.unsharp</property>
    <property name="av.lx">5</property>
    <property name="av.ly">5</property>
    <property name="av.la">1.752</property>
    <property name="av.cx">5</property>
    <property name="av.cy">5</property>
    <property name="av.ca">1.75</property>
    <property name="kdenlive:collapsed">0</property>
   </filter>
  </entry>
  <blank length="00:00:01.000"/>
  <entry producer="producer99" in="00:00:00.000" out="00:00:04.967">
   <property name="kdenlive:id">107</property>
   <filter id="filter104">
    <property name="mlt_service">avfilter.unsharp</property>
    <property name="kdenlive_id">avfilter.unsharp</property>
    <property name="av.lx">5</property>
    <property name="av.ly">5</property>
    <property name="av.la">1.752</property>
    <property name="av.cx">5</property>
    <property name="av.cy">5</property>
    <property name="av.ca">1.75</property>
    <property name="kdenlive:collapsed">0</property>
    <property name="disable">0</property>
   </filter>
  </entry>
  <blank length="00:00:01.000"/>
  <entry producer="producer103" in="00:00:00.000" out="00:00:04.967">
   <property name="kdenlive:id">112</property>
   <filter id="filter105">
    <property name="mlt_service">avfilter.unsharp</property>
    <property name="kdenlive_id">avfilter.unsharp</property>
    <property name="av.lx">5</property>
    <property name="av.ly">5</property>
    <property name="av.la">1.752</property>
    <property name="av.cx">5</property>
    <property name="av.cy">5</property>
    <property name="av.ca">1.75</property>
   </filter>
  </entry>
  <blank length="00:00:01.000"/>
  <entry producer="producer102" in="00:00:00.000" out="00:00:04.967">
   <property name="kdenlive:id">111</property>
   <filter id="filter106">
    <property name="mlt_service">avfilter.unsharp</property>
    <property name="kdenlive_id">avfilter.unsharp</property>
    <property name="av.lx">5</property>
    <property name="av.ly">5</property>
    <property name="av.la">1.752</property>
    <property name="av.cx">5</property>
    <property name="av.cy">5</property>
    <property name="av.ca">1.75</property>
   </filter>
  </entry>
  <blank length="00:00:01.000"/>
  <entry producer="producer96" in="00:00:00.000" out="00:00:04.967">
   <property name="kdenlive:id">104</property>
   <filter id="filter107">
    <property name="mlt_service">avfilter.unsharp</property>
    <property name="kdenlive_id">avfilter.unsharp</property>
    <property name="av.lx">5</property>
    <property name="av.ly">5</property>
    <property name="av.la">1.752</property>
    <property name="av.cx">5</property>
    <property name="av.cy">5</property>
    <property name="av.ca">1.75</property>
   </filter>
  </entry>
  <blank length="00:00:01.000"/>
  <entry producer="producer105" in="00:00:00.000" out="00:00:04.967">
   <property name="kdenlive:id">114</property>
   <filter id="filter108">
    <property name="mlt_service">avfilter.unsharp</property>
    <property name="kdenlive_id">avfilter.unsharp</property>
    <property name="av.lx">5</property>
    <property name="av.ly">5</property>
    <property name="av.la">1.752</property>
    <property name="av.cx">5</property>
    <property name="av.cy">5</property>
    <property name="av.ca">1.75</property>
   </filter>
  </entry>
  <blank length="00:00:01.000"/>
  <entry producer="producer107" in="00:00:00.000" out="00:00:04.967">
   <property name="kdenlive:id">116</property>
   <filter id="filter109">
    <property name="mlt_service">avfilter.unsharp</property>
    <property name="kdenlive_id">avfilter.unsharp</property>
    <property name="av.lx">5</property>
    <property name="av.ly">5</property>
    <property name="av.la">1.752</property>
    <property name="av.cx">5</property>
    <property name="av.cy">5</property>
    <property name="av.ca">1.75</property>
   </filter>
  </entry>
  <blank length="00:00:01.000"/>
  <entry producer="producer101" in="00:00:00.000" out="00:00:04.967">
   <property name="kdenlive:id">110</property>
   <filter id="filter110">
    <property name="mlt_service">avfilter.unsharp</property>
    <property name="kdenlive_id">avfilter.unsharp</property>
    <property name="av.lx">5</property>
    <property name="av.ly">5</property>
    <property name="av.la">1.752</property>
    <property name="av.cx">5</property>
    <property name="av.cy">5</property>
    <property name="av.ca">1.75</property>
   </filter>
  </entry>
  <blank length="00:00:01.000"/>
  <entry producer="producer97" in="00:00:00.000" out="00:00:04.967">
   <property name="kdenlive:id">105</property>
   <filter id="filter111">
    <property name="mlt_service">avfilter.unsharp</property>
    <property name="kdenlive_id">avfilter.unsharp</property>
    <property name="av.lx">5</property>
    <property name="av.ly">5</property>
    <property name="av.la">1.752</property>
    <property name="av.cx">5</property>
    <property name="av.cy">5</property>
    <property name="av.ca">1.75</property>
   </filter>
  </entry>
  <blank length="00:00:01.000"/>
  <entry producer="producer109" in="00:00:00.000" out="00:00:04.967">
   <property name="kdenlive:id">118</property>
   <filter id="filter112">
    <property name="mlt_service">avfilter.unsharp</property>
    <property name="kdenlive_id">avfilter.unsharp</property>
    <property name="av.lx">5</property>
    <property name="av.ly">5</property>
    <property name="av.la">1.752</property>
    <property name="av.cx">5</property>
    <property name="av.cy">5</property>
    <property name="av.ca">1.75</property>
   </filter>
  </entry>
  <blank length="00:00:01.000"/>
  <entry producer="producer108" in="00:00:00.000" out="00:00:04.967">
   <property name="kdenlive:id">117</property>
   <filter id="filter113">
    <property name="mlt_service">avfilter.unsharp</property>
    <property name="kdenlive_id">avfilter.unsharp</property>
    <property name="av.lx">5</property>
    <property name="av.ly">5</property>
    <property name="av.la">1.752</property>
    <property name="av.cx">5</property>
    <property name="av.cy">5</property>
    <property name="av.ca">1.75</property>
   </filter>
  </entry>
  <blank length="00:00:01.000"/>
  <entry producer="producer115" in="00:00:00.000" out="00:00:04.967">
   <property name="kdenlive:id">124</property>
   <filter id="filter114">
    <property name="mlt_service">avfilter.unsharp</property>
    <property name="kdenlive_id">avfilter.unsharp</property>
    <property name="av.lx">5</property>
    <property name="av.ly">5</property>
    <property name="av.la">1.752</property>
    <property name="av.cx">5</property>
    <property name="av.cy">5</property>
    <property name="av.ca">1.75</property>
   </filter>
  </entry>
  <blank length="00:00:01.000"/>
  <entry producer="producer116" in="00:00:00.000" out="00:00:04.967">
   <property name="kdenlive:id">125</property>
   <filter id="filter115">
    <property name="mlt_service">avfilter.unsharp</property>
    <property name="kdenlive_id">avfilter.unsharp</property>
    <property name="av.lx">5</property>
    <property name="av.ly">5</property>
    <property name="av.la">1.752</property>
    <property name="av.cx">5</property>
    <property name="av.cy">5</property>
    <property name="av.ca">1.75</property>
   </filter>
  </entry>
  <blank length="00:00:01.000"/>
  <entry producer="producer119" in="00:00:00.000" out="00:00:04.967">
   <property name="kdenlive:id">128</property>
   <filter id="filter116">
    <property name="mlt_service">avfilter.unsharp</property>
    <property name="kdenlive_id">avfilter.unsharp</property>
    <property name="av.lx">5</property>
    <property name="av.ly">5</property>
    <property name="av.la">1.752</property>
    <property name="av.cx">5</property>
    <property name="av.cy">5</property>
    <property name="av.ca">1.75</property>
   </filter>
  </entry>
  <blank length="00:00:01.000"/>
  <entry producer="producer94" in="00:00:00.000" out="00:00:04.967">
   <property name="kdenlive:id">101</property>
   <filter id="filter117">
    <property name="mlt_service">avfilter.unsharp</property>
    <property name="kdenlive_id">avfilter.unsharp</property>
    <property name="av.lx">5</property>
    <property name="av.ly">5</property>
    <property name="av.la">1.752</property>
    <property name="av.cx">5</property>
    <property name="av.cy">5</property>
    <property name="av.ca">1.75</property>
   </filter>
  </entry>
  <blank length="00:00:01.000"/>
  <entry producer="producer130" in="00:00:00.000" out="00:00:04.967">
   <property name="kdenlive:id">139</property>
   <filter id="filter118">
    <property name="mlt_service">avfilter.unsharp</property>
    <property name="kdenlive_id">avfilter.unsharp</property>
    <property name="av.lx">5</property>
    <property name="av.ly">5</property>
    <property name="av.la">1.752</property>
    <property name="av.cx">5</property>
    <property name="av.cy">5</property>
    <property name="av.ca">1.75</property>
   </filter>
  </entry>
  <blank length="00:00:01.000"/>
  <entry producer="producer125" in="00:00:00.000" out="00:00:04.967">
   <property name="kdenlive:id">134</property>
   <filter id="filter119">
    <property name="mlt_service">avfilter.unsharp</property>
    <property name="kdenlive_id">avfilter.unsharp</property>
    <property name="av.lx">5</property>
    <property name="av.ly">5</property>
    <property name="av.la">1.752</property>
    <property name="av.cx">5</property>
    <property name="av.cy">5</property>
    <property name="av.ca">1.75</property>
   </filter>
  </entry>
  <blank length="00:00:01.000"/>
  <entry producer="producer129" in="00:00:00.000" out="00:00:04.967">
   <property name="kdenlive:id">138</property>
   <filter id="filter120">
    <property name="mlt_service">avfilter.unsharp</property>
    <property name="kdenlive_id">avfilter.unsharp</property>
    <property name="av.lx">5</property>
    <property name="av.ly">5</property>
    <property name="av.la">1.752</property>
    <property name="av.cx">5</property>
    <property name="av.cy">5</property>
    <property name="av.ca">1.75</property>
   </filter>
  </entry>
  <blank length="00:00:01.000"/>
  <entry producer="producer134" in="00:00:00.000" out="00:00:04.967">
   <property name="kdenlive:id">143</property>
   <filter id="filter121">
    <property name="mlt_service">avfilter.unsharp</property>
    <property name="kdenlive_id">avfilter.unsharp</property>
    <property name="av.lx">5</property>
    <property name="av.ly">5</property>
    <property name="av.la">1.752</property>
    <property name="av.cx">5</property>
    <property name="av.cy">5</property>
    <property name="av.ca">1.75</property>
   </filter>
  </entry>
  <blank length="00:00:01.000"/>
  <entry producer="producer133" in="00:00:00.000" out="00:00:04.967">
   <property name="kdenlive:id">142</property>
   <filter id="filter122">
    <property name="mlt_service">avfilter.unsharp</property>
    <property name="kdenlive_id">avfilter.unsharp</property>
    <property name="av.lx">5</property>
    <property name="av.ly">5</property>
    <property name="av.la">1.752</property>
    <property name="av.cx">5</property>
    <property name="av.cy">5</property>
    <property name="av.ca">1.75</property>
   </filter>
  </entry>
  <blank length="00:00:01.000"/>
  <entry producer="producer127" in="00:00:00.000" out="00:00:04.967">
   <property name="kdenlive:id">136</property>
   <filter id="filter123">
    <property name="mlt_service">avfilter.unsharp</property>
    <property name="kdenlive_id">avfilter.unsharp</property>
    <property name="av.lx">5</property>
    <property name="av.ly">5</property>
    <property name="av.la">1.752</property>
    <property name="av.cx">5</property>
    <property name="av.cy">5</property>
    <property name="av.ca">1.75</property>
   </filter>
  </entry>
  <blank length="00:00:01.000"/>
  <entry producer="producer124" in="00:00:00.000" out="00:00:04.967">
   <property name="kdenlive:id">133</property>
   <filter id="filter124">
    <property name="mlt_service">avfilter.unsharp</property>
    <property name="kdenlive_id">avfilter.unsharp</property>
    <property name="av.lx">5</property>
    <property name="av.ly">5</property>
    <property name="av.la">1.752</property>
    <property name="av.cx">5</property>
    <property name="av.cy">5</property>
    <property name="av.ca">1.75</property>
   </filter>
  </entry>
  <blank length="00:00:01.000"/>
  <entry producer="producer113" in="00:00:00.000" out="00:00:01.967">
   <property name="kdenlive:id">122</property>
   <filter id="filter125">
    <property name="mlt_service">avfilter.unsharp</property>
    <property name="kdenlive_id">avfilter.unsharp</property>
    <property name="av.lx">5</property>
    <property name="av.ly">5</property>
    <property name="av.la">1.752</property>
    <property name="av.cx">5</property>
    <property name="av.cy">5</property>
    <property name="av.ca">1.75</property>
   </filter>
  </entry>
 </playlist>
 <playlist id="playlist7"/>
 <tractor id="tractor3" in="00:00:00.000" out="00:18:19.967">
  <property name="kdenlive:trackheight">69</property>
  <property name="kdenlive:timeline_active">1</property>
  <property name="kdenlive:collapsed">0</property>
  <property name="kdenlive:track_name">Video 1</property>
  <property name="kdenlive:thumbs_format"/>
  <property name="kdenlive:audio_rec"/>
  <track hide="audio" producer="playlist6"/>
  <track producer="playlist7"/>
 </tractor>
 <producer id="producer201" in="00:00:00.000" out="00:02:23.500">
  <property name="length">4306</property>
  <property name="eof">pause</property>
  <property name="resource">/home/ryankelln/.cache/kdenlive/proxy/bf7d7b8078471387930b2056277d181b.mkv</property>
  <property name="audio_index">-1</property>
  <property name="video_index">0</property>
  <property name="mute_on_pause">0</property>
  <property name="mlt_service">avformat-novalidate</property>
  <property name="seekable">1</property>
  <property name="aspect_ratio">1</property>
  <property name="kdenlive:clipname">2020-10-17_AshbridgesBay_waves+sparkles+rocks_2.MP4</property>
  <property name="kdenlive:folderid">102</property>
  <property name="kdenlive:id">89</property>
  <property name="kdenlive:file_size">688770905</property>
  <property name="kdenlive:file_hash">bf7d7b8078471387930b2056277d181b</property>
  <property name="kdenlive:proxy">/home/ryankelln/.cache/kdenlive/proxy/bf7d7b8078471387930b2056277d181b.mkv</property>
  <property name="kdenlive:originalurl">content/footage/2020-10-17_AshbridgesBay_waves+sparkles+rocks_2.MP4</property>
  <property name="kdenlive:original.mlt_type">producer</property>
  <property name="kdenlive:original.in">0</property>
  <property name="kdenlive:original.out">4305</property>
  <property name="kdenlive:original.length">4306</property>
  <property name="kdenlive:original.eof">pause</property>
  <property name="kdenlive:original.resource">content/footage/2020-10-17_AshbridgesBay_waves+sparkles+rocks_2.MP4</property>
  <property name="kdenlive:original.meta.media.nb_streams">2</property>
  <property name="kdenlive:original.meta.media.0.stream.type">video</property>
  <property name="kdenlive:original.meta.media.0.stream.frame_rate">24</property>
  <property name="kdenlive:original.meta.media.0.stream.sample_aspect_ratio">1</property>
  <property name="kdenlive:original.meta.media.0.codec.width">1920</property>
  <property name="kdenlive:original.meta.media.0.codec.height">1080</property>
  <property name="kdenlive:original.meta.media.0.codec.rotate">0</property>
  <property name="kdenlive:original.meta.media.0.codec.frame_rate">24</property>
  <property name="kdenlive:original.meta.media.0.codec.pix_fmt">yuv420p</property>
  <property name="kdenlive:original.meta.media.0.codec.sample_aspect_ratio">1</property>
  <property name="kdenlive:original.meta.media.0.codec.colorspace">709</property>
  <property name="kdenlive:original.meta.media.0.codec.color_trc">1</property>
  <property name="kdenlive:original.meta.media.0.codec.name">h264</property>
  <property name="kdenlive:original.meta.media.0.codec.long_name">H.264 / AVC / MPEG-4 AVC / MPEG-4 part 10</property>
  <property name="kdenlive:original.meta.media.0.codec.bit_rate">38384496</property>
  <property name="kdenlive:original.meta.attr.0.stream.creation_time.markup">2020-10-17T07:57:56.000000Z</property>
  <property name="kdenlive:original.meta.attr.0.stream.handler_name.markup">VideoHandler</property>
  <property name="kdenlive:original.meta.attr.0.stream.timecode.markup">09:19:15:15</property>
  <property name="kdenlive:original.meta.attr.compatible_brands.markup">mp42avc1</property>
  <property name="kdenlive:original.meta.attr.major_brand.markup">mp42</property>
  <property name="kdenlive:original.meta.attr.minor_version.markup">1</property>
  <property name="kdenlive:original.meta.attr.creation_time.markup">2020-10-17T07:57:56.000000Z</property>
  <property name="kdenlive:original.meta.attr.encoder.markup">Lavf58.45.100</property>
  <property name="kdenlive:original.seekable">1</property>
  <property name="kdenlive:original.width">1920</property>
  <property name="kdenlive:original.height">1080</property>
  <property name="kdenlive:original.meta.media.sample_aspect_num">1</property>
  <property name="kdenlive:original.meta.media.sample_aspect_den">1</property>
  <property name="kdenlive:original.aspect_ratio">1</property>
  <property name="kdenlive:original.audio_index">-1</property>
  <property name="kdenlive:original.video_index">0</property>
  <property name="kdenlive:original.mute_on_pause">0</property>
  <property name="kdenlive:original.mlt_service">avformat-novalidate</property>
  <property name="kdenlive:original.kdenlive:folderid">102</property>
  <property name="kdenlive:original.meta.media.frame_rate_num">24</property>
  <property name="kdenlive:original.meta.media.frame_rate_den">1</property>
  <property name="kdenlive:original.meta.media.colorspace">709</property>
  <property name="kdenlive:original.meta.media.color_trc">1</property>
  <property name="kdenlive:original.meta.media.width">1920</property>
  <property name="kdenlive:original.meta.media.height">1080</property>
  <property name="kdenlive:original.meta.media.color_range">mpeg</property>
  <property name="kdenlive:original.kdenlive:id">104</property>
  <property name="kdenlive:original.kdenlive:file_size">688770905</property>
  <property name="kdenlive:original.kdenlive:file_hash">bf7d7b8078471387930b2056277d181b</property>
  <property name="kdenlive:original.backup">1</property>
  <property name="global_feed">1</property>
  <property name="kdenlive:activeeffect">0</property>
  <property name="xml">was here</property>
  <property name="meta.media.nb_streams">1</property>
  <property name="meta.media.0.stream.type">video</property>
  <property name="meta.media.0.stream.frame_rate">24</property>
  <property name="meta.media.0.stream.sample_aspect_ratio">1</property>
  <property name="meta.media.0.codec.width">960</property>
  <property name="meta.media.0.codec.height">540</property>
  <property name="meta.media.0.codec.rotate">0</property>
  <property name="meta.media.0.codec.frame_rate">1000</property>
  <property name="meta.media.0.codec.pix_fmt">yuvj420p</property>
  <property name="meta.media.0.codec.sample_aspect_ratio">1</property>
  <property name="meta.media.0.codec.colorspace">601</property>
  <property name="meta.media.0.codec.name">mjpeg</property>
  <property name="meta.media.0.codec.long_name">MJPEG (Motion JPEG)</property>
  <property name="meta.media.0.codec.bit_rate">0</property>
  <property name="meta.attr.0.stream.HANDLER_NAME.markup">VideoHandler</property>
  <property name="meta.attr.0.stream.TIMECODE.markup">09:19:15:15</property>
  <property name="meta.attr.0.stream.ENCODER.markup">Lavc58.91.100 mjpeg</property>
  <property name="meta.attr.0.stream.DURATION.markup">00:02:23.625000000</property>
  <property name="meta.attr.MINOR_VERSION.markup">1</property>
  <property name="meta.attr.COMPATIBLE_BRANDS.markup">mp42avc1</property>
  <property name="meta.attr.MAJOR_BRAND.markup">mp42</property>
  <property name="meta.attr.ENCODER.markup">Lavf58.45.100</property>
  <property name="meta.media.sample_aspect_num">1</property>
  <property name="meta.media.sample_aspect_den">1</property>
  <property name="meta.media.frame_rate_num">24</property>
  <property name="meta.media.frame_rate_den">1</property>
  <property name="meta.media.colorspace">601</property>
  <property name="meta.media.color_trc">2</property>
  <property name="meta.media.width">960</property>
  <property name="meta.media.height">540</property>
  <property name="meta.media.color_range">full</property>
  <property name="meta.media.top_field_first">0</property>
  <property name="meta.media.progressive">1</property>
  <property name="set.test_audio">1</property>
  <property name="set.test_image">0</property>
  <filter id="filter126">
   <property name="rotate_center">1</property>
   <property name="mlt_service">qtblend</property>
   <property name="kdenlive_id">qtblend</property>
   <property name="rect">00:00:00.000=-27 -69 2112 1188 1.000000</property>
   <property name="rotation">00:00:00.000=0</property>
   <property name="compositing">0</property>
   <property name="distort">0</property>
  </filter>
 </producer>
 <producer id="producer202" in="00:00:00.000" out="00:01:11.733">
  <property name="length">2153</property>
  <property name="eof">pause</property>
  <property name="resource">2.000000:/home/ryankelln/.cache/kdenlive/proxy/bf7d7b8078471387930b2056277d181b.mkv</property>
  <property name="aspect_ratio">1</property>
  <property name="meta.media.nb_streams">1</property>
  <property name="meta.media.0.stream.type">video</property>
  <property name="meta.media.0.stream.frame_rate">24</property>
  <property name="meta.media.0.stream.sample_aspect_ratio">1</property>
  <property name="meta.media.0.codec.width">960</property>
  <property name="meta.media.0.codec.height">540</property>
  <property name="meta.media.0.codec.rotate">0</property>
  <property name="meta.media.0.codec.frame_rate">1000</property>
  <property name="meta.media.0.codec.pix_fmt">yuvj420p</property>
  <property name="meta.media.0.codec.sample_aspect_ratio">1</property>
  <property name="meta.media.0.codec.colorspace">601</property>
  <property name="meta.media.0.codec.name">mjpeg</property>
  <property name="meta.media.0.codec.long_name">MJPEG (Motion JPEG)</property>
  <property name="meta.media.0.codec.bit_rate">0</property>
  <property name="meta.attr.0.stream.HANDLER_NAME.markup">VideoHandler</property>
  <property name="meta.attr.0.stream.TIMECODE.markup">09:19:15:15</property>
  <property name="meta.attr.0.stream.ENCODER.markup">Lavc58.91.100 mjpeg</property>
  <property name="meta.attr.0.stream.DURATION.markup">00:02:23.625000000</property>
  <property name="meta.attr.MINOR_VERSION.markup">1</property>
  <property name="meta.attr.COMPATIBLE_BRANDS.markup">mp42avc1</property>
  <property name="meta.attr.MAJOR_BRAND.markup">mp42</property>
  <property name="meta.attr.ENCODER.markup">Lavf58.45.100</property>
  <property name="seekable">1</property>
  <property name="meta.media.sample_aspect_num">1</property>
  <property name="meta.media.sample_aspect_den">1</property>
  <property name="audio_index">-1</property>
  <property name="video_index">0</property>
  <property name="mute_on_pause">1</property>
  <property name="warp_speed">2</property>
  <property name="warp_resource">/home/ryankelln/.cache/kdenlive/proxy/bf7d7b8078471387930b2056277d181b.mkv</property>
  <property name="mlt_service">timewarp</property>
  <property name="kdenlive:proxy">/home/ryankelln/.cache/kdenlive/proxy/bf7d7b8078471387930b2056277d181b.mkv</property>
  <property name="kdenlive:originalurl">content/footage/2020-10-17_AshbridgesBay_waves+sparkles+rocks_2.MP4</property>
  <property name="set.test_audio">1</property>
  <property name="set.test_image">0</property>
  <property name="kdenlive:id">89</property>
  <property name="warp_pitch">0</property>
  <property name="meta.media.frame_rate_num">24</property>
  <property name="meta.media.frame_rate_den">1</property>
  <property name="meta.media.colorspace">601</property>
  <property name="meta.media.color_trc">2</property>
  <property name="meta.media.width">960</property>
  <property name="meta.media.height">540</property>
  <property name="meta.media.color_range">full</property>
  <property name="meta.media.top_field_first">0</property>
  <property name="meta.media.progressive">1</property>
  <filter id="filter78">
   <property name="rotate_center">1</property>
   <property name="mlt_service">qtblend</property>
   <property name="kdenlive_id">qtblend</property>
   <property name="rect">00:00:00.000=-27 -69 2112 1188 1.000000</property>
   <property name="rotation">00:00:00.000=0</property>
   <property name="compositing">0</property>
   <property name="distort">0</property>
  </filter>
 </producer>
 <producer id="producer203" in="00:00:00.000" out="00:02:23.500">
  <property name="length">4306</property>
  <property name="eof">pause</property>
  <property name="resource">-1.000000:/home/ryankelln/.cache/kdenlive/proxy/bf7d7b8078471387930b2056277d181b.mkv</property>
  <property name="aspect_ratio">1</property>
  <property name="meta.media.nb_streams">1</property>
  <property name="meta.media.0.stream.type">video</property>
  <property name="meta.media.0.stream.frame_rate">24</property>
  <property name="meta.media.0.stream.sample_aspect_ratio">1</property>
  <property name="meta.media.0.codec.width">960</property>
  <property name="meta.media.0.codec.height">540</property>
  <property name="meta.media.0.codec.rotate">0</property>
  <property name="meta.media.0.codec.frame_rate">1000</property>
  <property name="meta.media.0.codec.pix_fmt">yuvj420p</property>
  <property name="meta.media.0.codec.sample_aspect_ratio">1</property>
  <property name="meta.media.0.codec.colorspace">601</property>
  <property name="meta.media.0.codec.name">mjpeg</property>
  <property name="meta.media.0.codec.long_name">MJPEG (Motion JPEG)</property>
  <property name="meta.media.0.codec.bit_rate">0</property>
  <property name="meta.attr.0.stream.HANDLER_NAME.markup">VideoHandler</property>
  <property name="meta.attr.0.stream.TIMECODE.markup">09:19:15:15</property>
  <property name="meta.attr.0.stream.ENCODER.markup">Lavc58.91.100 mjpeg</property>
  <property name="meta.attr.0.stream.DURATION.markup">00:02:23.625000000</property>
  <property name="meta.attr.MINOR_VERSION.markup">1</property>
  <property name="meta.attr.COMPATIBLE_BRANDS.markup">mp42avc1</property>
  <property name="meta.attr.MAJOR_BRAND.markup">mp42</property>
  <property name="meta.attr.ENCODER.markup">Lavf58.45.100</property>
  <property name="seekable">1</property>
  <property name="meta.media.sample_aspect_num">1</property>
  <property name="meta.media.sample_aspect_den">1</property>
  <property name="audio_index">-1</property>
  <property name="video_index">0</property>
  <property name="mute_on_pause">1</property>
  <property name="warp_speed">-1</property>
  <property name="warp_resource">/home/ryankelln/.cache/kdenlive/proxy/bf7d7b8078471387930b2056277d181b.mkv</property>
  <property name="mlt_service">timewarp</property>
  <property name="kdenlive:proxy">/home/ryankelln/.cache/kdenlive/proxy/bf7d7b8078471387930b2056277d181b.mkv</property>
  <property name="kdenlive:originalurl">content/footage/2020-10-17_AshbridgesBay_waves+sparkles+rocks_2.MP4</property>
  <property name="set.test_audio">1</property>
  <property name="set.test_image">0</property>
  <property name="kdenlive:id">89</property>
  <property name="warp_pitch">0</property>
  <property name="meta.media.frame_rate_num">24</property>
  <property name="meta.media.frame_rate_den">1</property>
  <property name="meta.media.colorspace">601</property>
  <property name="meta.media.color_trc">2</property>
  <property name="meta.media.width">960</property>
  <property name="meta.media.height">540</property>
  <property name="meta.media.color_range">full</property>
  <property name="meta.media.top_field_first">0</property>
  <property name="meta.media.progressive">1</property>
  <filter id="filter127">
   <property name="rotate_center">1</property>
   <property name="mlt_service">qtblend</property>
   <property name="kdenlive_id">qtblend</property>
   <property name="rect">00:00:00.000=-27 -69 2112 1188 1.000000</property>
   <property name="rotation">00:00:00.000=0</property>
   <property name="compositing">0</property>
   <property name="distort">0</property>
  </filter>
 </producer>
 <producer id="producer204" in="00:00:00.000" out="00:00:47.800">
  <property name="length">1435</property>
  <property name="eof">pause</property>
  <property name="resource">-3.000000:/home/ryankelln/.cache/kdenlive/proxy/bf7d7b8078471387930b2056277d181b.mkv</property>
  <property name="aspect_ratio">1</property>
  <property name="meta.media.nb_streams">1</property>
  <property name="meta.media.0.stream.type">video</property>
  <property name="meta.media.0.stream.frame_rate">24</property>
  <property name="meta.media.0.stream.sample_aspect_ratio">1</property>
  <property name="meta.media.0.codec.width">960</property>
  <property name="meta.media.0.codec.height">540</property>
  <property name="meta.media.0.codec.rotate">0</property>
  <property name="meta.media.0.codec.frame_rate">1000</property>
  <property name="meta.media.0.codec.pix_fmt">yuvj420p</property>
  <property name="meta.media.0.codec.sample_aspect_ratio">1</property>
  <property name="meta.media.0.codec.colorspace">601</property>
  <property name="meta.media.0.codec.name">mjpeg</property>
  <property name="meta.media.0.codec.long_name">MJPEG (Motion JPEG)</property>
  <property name="meta.media.0.codec.bit_rate">0</property>
  <property name="meta.attr.0.stream.HANDLER_NAME.markup">VideoHandler</property>
  <property name="meta.attr.0.stream.TIMECODE.markup">09:19:15:15</property>
  <property name="meta.attr.0.stream.ENCODER.markup">Lavc58.91.100 mjpeg</property>
  <property name="meta.attr.0.stream.DURATION.markup">00:02:23.625000000</property>
  <property name="meta.attr.MINOR_VERSION.markup">1</property>
  <property name="meta.attr.COMPATIBLE_BRANDS.markup">mp42avc1</property>
  <property name="meta.attr.MAJOR_BRAND.markup">mp42</property>
  <property name="meta.attr.ENCODER.markup">Lavf58.45.100</property>
  <property name="seekable">1</property>
  <property name="meta.media.sample_aspect_num">1</property>
  <property name="meta.media.sample_aspect_den">1</property>
  <property name="audio_index">-1</property>
  <property name="video_index">0</property>
  <property name="mute_on_pause">1</property>
  <property name="warp_speed">-3</property>
  <property name="warp_resource">/home/ryankelln/.cache/kdenlive/proxy/bf7d7b8078471387930b2056277d181b.mkv</property>
  <property name="mlt_service">timewarp</property>
  <property name="kdenlive:proxy">/home/ryankelln/.cache/kdenlive/proxy/bf7d7b8078471387930b2056277d181b.mkv</property>
  <property name="kdenlive:originalurl">content/footage/2020-10-17_AshbridgesBay_waves+sparkles+rocks_2.MP4</property>
  <property name="set.test_audio">1</property>
  <property name="set.test_image">0</property>
  <property name="kdenlive:id">89</property>
  <property name="warp_pitch">0</property>
  <property name="meta.media.frame_rate_num">24</property>
  <property name="meta.media.frame_rate_den">1</property>
  <property name="meta.media.colorspace">601</property>
  <property name="meta.media.color_trc">2</property>
  <property name="meta.media.width">960</property>
  <property name="meta.media.height">540</property>
  <property name="meta.media.color_range">full</property>
  <property name="meta.media.top_field_first">0</property>
  <property name="meta.media.progressive">1</property>
  <filter id="filter128">
   <property name="rotate_center">1</property>
   <property name="mlt_service">qtblend</property>
   <property name="kdenlive_id">qtblend</property>
   <property name="rect">00:00:00.000=-27 -69 2112 1188 1.000000</property>
   <property name="rotation">00:00:00.000=0</property>
   <property name="compositing">0</property>
   <property name="distort">0</property>
  </filter>
 </producer>
 <producer id="producer205" in="00:00:00.000" out="00:02:23.500">
  <property name="length">4306</property>
  <property name="eof">pause</property>
  <property name="resource">-1.000000:/home/ryankelln/.cache/kdenlive/proxy/bf7d7b8078471387930b2056277d181b.mkv</property>
  <property name="aspect_ratio">1</property>
  <property name="meta.media.nb_streams">1</property>
  <property name="meta.media.0.stream.type">video</property>
  <property name="meta.media.0.stream.frame_rate">24</property>
  <property name="meta.media.0.stream.sample_aspect_ratio">1</property>
  <property name="meta.media.0.codec.width">960</property>
  <property name="meta.media.0.codec.height">540</property>
  <property name="meta.media.0.codec.rotate">0</property>
  <property name="meta.media.0.codec.frame_rate">1000</property>
  <property name="meta.media.0.codec.pix_fmt">yuvj420p</property>
  <property name="meta.media.0.codec.sample_aspect_ratio">1</property>
  <property name="meta.media.0.codec.colorspace">601</property>
  <property name="meta.media.0.codec.name">mjpeg</property>
  <property name="meta.media.0.codec.long_name">MJPEG (Motion JPEG)</property>
  <property name="meta.media.0.codec.bit_rate">0</property>
  <property name="meta.attr.0.stream.HANDLER_NAME.markup">VideoHandler</property>
  <property name="meta.attr.0.stream.TIMECODE.markup">09:19:15:15</property>
  <property name="meta.attr.0.stream.ENCODER.markup">Lavc58.91.100 mjpeg</property>
  <property name="meta.attr.0.stream.DURATION.markup">00:02:23.625000000</property>
  <property name="meta.attr.MINOR_VERSION.markup">1</property>
  <property name="meta.attr.COMPATIBLE_BRANDS.markup">mp42avc1</property>
  <property name="meta.attr.MAJOR_BRAND.markup">mp42</property>
  <property name="meta.attr.ENCODER.markup">Lavf58.45.100</property>
  <property name="seekable">1</property>
  <property name="meta.media.sample_aspect_num">1</property>
  <property name="meta.media.sample_aspect_den">1</property>
  <property name="audio_index">-1</property>
  <property name="video_index">0</property>
  <property name="mute_on_pause">1</property>
  <property name="warp_speed">-1</property>
  <property name="warp_resource">/home/ryankelln/.cache/kdenlive/proxy/bf7d7b8078471387930b2056277d181b.mkv</property>
  <property name="mlt_service">timewarp</property>
  <property name="kdenlive:proxy">/home/ryankelln/.cache/kdenlive/proxy/bf7d7b8078471387930b2056277d181b.mkv</property>
  <property name="kdenlive:originalurl">content/footage/2020-10-17_AshbridgesBay_waves+sparkles+rocks_2.MP4</property>
  <property name="set.test_audio">1</property>
  <property name="set.test_image">0</property>
  <property name="kdenlive:id">89</property>
  <property name="warp_pitch">0</property>
  <property name="meta.media.frame_rate_num">24</property>
  <property name="meta.media.frame_rate_den">1</property>
  <property name="meta.media.colorspace">601</property>
  <property name="meta.media.color_trc">2</property>
  <property name="meta.media.width">960</property>
  <property name="meta.media.height">540</property>
  <property name="meta.media.color_range">full</property>
  <property name="meta.media.top_field_first">0</property>
  <property name="meta.media.progressive">1</property>
  <filter id="filter131">
   <property name="rotate_center">1</property>
   <property name="mlt_service">qtblend</property>
   <property name="kdenlive_id">qtblend</property>
   <property name="rect">00:00:00.000=-27 -69 2112 1188 1.000000</property>
   <property name="rotation">00:00:00.000=0</property>
   <property name="compositing">0</property>
   <property name="distort">0</property>
  </filter>
 </producer>
 <producer id="producer206" in="00:00:00.000" out="00:01:11.733">
  <property name="length">2153</property>
  <property name="eof">pause</property>
  <property name="resource">-2.000000:/home/ryankelln/.cache/kdenlive/proxy/bf7d7b8078471387930b2056277d181b.mkv</property>
  <property name="aspect_ratio">1</property>
  <property name="meta.media.nb_streams">1</property>
  <property name="meta.media.0.stream.type">video</property>
  <property name="meta.media.0.stream.frame_rate">24</property>
  <property name="meta.media.0.stream.sample_aspect_ratio">1</property>
  <property name="meta.media.0.codec.width">960</property>
  <property name="meta.media.0.codec.height">540</property>
  <property name="meta.media.0.codec.rotate">0</property>
  <property name="meta.media.0.codec.frame_rate">1000</property>
  <property name="meta.media.0.codec.pix_fmt">yuvj420p</property>
  <property name="meta.media.0.codec.sample_aspect_ratio">1</property>
  <property name="meta.media.0.codec.colorspace">601</property>
  <property name="meta.media.0.codec.name">mjpeg</property>
  <property name="meta.media.0.codec.long_name">MJPEG (Motion JPEG)</property>
  <property name="meta.media.0.codec.bit_rate">0</property>
  <property name="meta.attr.0.stream.HANDLER_NAME.markup">VideoHandler</property>
  <property name="meta.attr.0.stream.TIMECODE.markup">09:19:15:15</property>
  <property name="meta.attr.0.stream.ENCODER.markup">Lavc58.91.100 mjpeg</property>
  <property name="meta.attr.0.stream.DURATION.markup">00:02:23.625000000</property>
  <property name="meta.attr.MINOR_VERSION.markup">1</property>
  <property name="meta.attr.COMPATIBLE_BRANDS.markup">mp42avc1</property>
  <property name="meta.attr.MAJOR_BRAND.markup">mp42</property>
  <property name="meta.attr.ENCODER.markup">Lavf58.45.100</property>
  <property name="seekable">1</property>
  <property name="meta.media.sample_aspect_num">1</property>
  <property name="meta.media.sample_aspect_den">1</property>
  <property name="audio_index">-1</property>
  <property name="video_index">0</property>
  <property name="mute_on_pause">1</property>
  <property name="warp_speed">-2</property>
  <property name="warp_resource">/home/ryankelln/.cache/kdenlive/proxy/bf7d7b8078471387930b2056277d181b.mkv</property>
  <property name="mlt_service">timewarp</property>
  <property name="kdenlive:proxy">/home/ryankelln/.cache/kdenlive/proxy/bf7d7b8078471387930b2056277d181b.mkv</property>
  <property name="kdenlive:originalurl">content/footage/2020-10-17_AshbridgesBay_waves+sparkles+rocks_2.MP4</property>
  <property name="set.test_audio">1</property>
  <property name="set.test_image">0</property>
  <property name="kdenlive:id">89</property>
  <property name="warp_pitch">0</property>
  <property name="meta.media.frame_rate_num">24</property>
  <property name="meta.media.frame_rate_den">1</property>
  <property name="meta.media.colorspace">601</property>
  <property name="meta.media.color_trc">2</property>
  <property name="meta.media.width">960</property>
  <property name="meta.media.height">540</property>
  <property name="meta.media.color_range">full</property>
  <property name="meta.media.top_field_first">0</property>
  <property name="meta.media.progressive">1</property>
  <filter id="filter132">
   <property name="rotate_center">1</property>
   <property name="mlt_service">qtblend</property>
   <property name="kdenlive_id">qtblend</property>
   <property name="rect">00:00:00.000=-27 -69 2112 1188 1.000000</property>
   <property name="rotation">00:00:00.000=0</property>
   <property name="compositing">0</property>
   <property name="distort">0</property>
  </filter>
 </producer>
 <producer id="producer207" in="00:00:00.000" out="00:01:11.733">
  <property name="length">2153</property>
  <property name="eof">pause</property>
  <property name="resource">-2.000000:/home/ryankelln/.cache/kdenlive/proxy/bf7d7b8078471387930b2056277d181b.mkv</property>
  <property name="aspect_ratio">1</property>
  <property name="meta.media.nb_streams">1</property>
  <property name="meta.media.0.stream.type">video</property>
  <property name="meta.media.0.stream.frame_rate">24</property>
  <property name="meta.media.0.stream.sample_aspect_ratio">1</property>
  <property name="meta.media.0.codec.width">960</property>
  <property name="meta.media.0.codec.height">540</property>
  <property name="meta.media.0.codec.rotate">0</property>
  <property name="meta.media.0.codec.frame_rate">1000</property>
  <property name="meta.media.0.codec.pix_fmt">yuvj420p</property>
  <property name="meta.media.0.codec.sample_aspect_ratio">1</property>
  <property name="meta.media.0.codec.colorspace">601</property>
  <property name="meta.media.0.codec.name">mjpeg</property>
  <property name="meta.media.0.codec.long_name">MJPEG (Motion JPEG)</property>
  <property name="meta.media.0.codec.bit_rate">0</property>
  <property name="meta.attr.0.stream.HANDLER_NAME.markup">VideoHandler</property>
  <property name="meta.attr.0.stream.TIMECODE.markup">09:19:15:15</property>
  <property name="meta.attr.0.stream.ENCODER.markup">Lavc58.91.100 mjpeg</property>
  <property name="meta.attr.0.stream.DURATION.markup">00:02:23.625000000</property>
  <property name="meta.attr.MINOR_VERSION.markup">1</property>
  <property name="meta.attr.COMPATIBLE_BRANDS.markup">mp42avc1</property>
  <property name="meta.attr.MAJOR_BRAND.markup">mp42</property>
  <property name="meta.attr.ENCODER.markup">Lavf58.45.100</property>
  <property name="seekable">1</property>
  <property name="meta.media.sample_aspect_num">1</property>
  <property name="meta.media.sample_aspect_den">1</property>
  <property name="audio_index">-1</property>
  <property name="video_index">0</property>
  <property name="mute_on_pause">1</property>
  <property name="warp_speed">-2</property>
  <property name="warp_resource">/home/ryankelln/.cache/kdenlive/proxy/bf7d7b8078471387930b2056277d181b.mkv</property>
  <property name="mlt_service">timewarp</property>
  <property name="kdenlive:proxy">/home/ryankelln/.cache/kdenlive/proxy/bf7d7b8078471387930b2056277d181b.mkv</property>
  <property name="kdenlive:originalurl">content/footage/2020-10-17_AshbridgesBay_waves+sparkles+rocks_2.MP4</property>
  <property name="set.test_audio">1</property>
  <property name="set.test_image">0</property>
  <property name="kdenlive:id">89</property>
  <property name="warp_pitch">0</property>
  <property name="meta.media.frame_rate_num">24</property>
  <property name="meta.media.frame_rate_den">1</property>
  <property name="meta.media.colorspace">601</property>
  <property name="meta.media.color_trc">2</property>
  <property name="meta.media.width">960</property>
  <property name="meta.media.height">540</property>
  <property name="meta.media.color_range">full</property>
  <property name="meta.media.top_field_first">0</property>
  <property name="meta.media.progressive">1</property>
  <filter id="filter133">
   <property name="rotate_center">1</property>
   <property name="mlt_service">qtblend</property>
   <property name="kdenlive_id">qtblend</property>
   <property name="rect">00:00:00.000=-27 -69 2112 1188 1.000000</property>
   <property name="rotation">00:00:00.000=0</property>
   <property name="compositing">0</property>
   <property name="distort">0</property>
  </filter>
 </producer>
 <producer id="producer208" in="00:00:00.000" out="00:01:11.733">
  <property name="length">2153</property>
  <property name="eof">pause</property>
  <property name="resource">2.000000:/home/ryankelln/.cache/kdenlive/proxy/bf7d7b8078471387930b2056277d181b.mkv</property>
  <property name="aspect_ratio">1</property>
  <property name="meta.media.nb_streams">1</property>
  <property name="meta.media.0.stream.type">video</property>
  <property name="meta.media.0.stream.frame_rate">24</property>
  <property name="meta.media.0.stream.sample_aspect_ratio">1</property>
  <property name="meta.media.0.codec.width">960</property>
  <property name="meta.media.0.codec.height">540</property>
  <property name="meta.media.0.codec.rotate">0</property>
  <property name="meta.media.0.codec.frame_rate">1000</property>
  <property name="meta.media.0.codec.pix_fmt">yuvj420p</property>
  <property name="meta.media.0.codec.sample_aspect_ratio">1</property>
  <property name="meta.media.0.codec.colorspace">601</property>
  <property name="meta.media.0.codec.name">mjpeg</property>
  <property name="meta.media.0.codec.long_name">MJPEG (Motion JPEG)</property>
  <property name="meta.media.0.codec.bit_rate">0</property>
  <property name="meta.attr.0.stream.HANDLER_NAME.markup">VideoHandler</property>
  <property name="meta.attr.0.stream.TIMECODE.markup">09:19:15:15</property>
  <property name="meta.attr.0.stream.ENCODER.markup">Lavc58.91.100 mjpeg</property>
  <property name="meta.attr.0.stream.DURATION.markup">00:02:23.625000000</property>
  <property name="meta.attr.MINOR_VERSION.markup">1</property>
  <property name="meta.attr.COMPATIBLE_BRANDS.markup">mp42avc1</property>
  <property name="meta.attr.MAJOR_BRAND.markup">mp42</property>
  <property name="meta.attr.ENCODER.markup">Lavf58.45.100</property>
  <property name="seekable">1</property>
  <property name="meta.media.sample_aspect_num">1</property>
  <property name="meta.media.sample_aspect_den">1</property>
  <property name="audio_index">-1</property>
  <property name="video_index">0</property>
  <property name="mute_on_pause">1</property>
  <property name="warp_speed">2</property>
  <property name="warp_resource">/home/ryankelln/.cache/kdenlive/proxy/bf7d7b8078471387930b2056277d181b.mkv</property>
  <property name="mlt_service">timewarp</property>
  <property name="kdenlive:proxy">/home/ryankelln/.cache/kdenlive/proxy/bf7d7b8078471387930b2056277d181b.mkv</property>
  <property name="kdenlive:originalurl">content/footage/2020-10-17_AshbridgesBay_waves+sparkles+rocks_2.MP4</property>
  <property name="set.test_audio">1</property>
  <property name="set.test_image">0</property>
  <property name="kdenlive:id">89</property>
  <property name="warp_pitch">0</property>
  <property name="meta.media.frame_rate_num">24</property>
  <property name="meta.media.frame_rate_den">1</property>
  <property name="meta.media.colorspace">601</property>
  <property name="meta.media.color_trc">2</property>
  <property name="meta.media.width">960</property>
  <property name="meta.media.height">540</property>
  <property name="meta.media.color_range">full</property>
  <property name="meta.media.top_field_first">0</property>
  <property name="meta.media.progressive">1</property>
  <filter id="filter134">
   <property name="rotate_center">1</property>
   <property name="mlt_service">qtblend</property>
   <property name="kdenlive_id">qtblend</property>
   <property name="rect">00:00:00.000=-27 -69 2112 1188 1.000000</property>
   <property name="rotation">00:00:00.000=0</property>
   <property name="compositing">0</property>
   <property name="distort">0</property>
  </filter>
 </producer>
 <producer id="producer209" in="00:00:00.000" out="00:01:11.733">
  <property name="length">2153</property>
  <property name="eof">pause</property>
  <property name="resource">2.000000:/home/ryankelln/.cache/kdenlive/proxy/bf7d7b8078471387930b2056277d181b.mkv</property>
  <property name="aspect_ratio">1</property>
  <property name="meta.media.nb_streams">1</property>
  <property name="meta.media.0.stream.type">video</property>
  <property name="meta.media.0.stream.frame_rate">24</property>
  <property name="meta.media.0.stream.sample_aspect_ratio">1</property>
  <property name="meta.media.0.codec.width">960</property>
  <property name="meta.media.0.codec.height">540</property>
  <property name="meta.media.0.codec.rotate">0</property>
  <property name="meta.media.0.codec.frame_rate">1000</property>
  <property name="meta.media.0.codec.pix_fmt">yuvj420p</property>
  <property name="meta.media.0.codec.sample_aspect_ratio">1</property>
  <property name="meta.media.0.codec.colorspace">601</property>
  <property name="meta.media.0.codec.name">mjpeg</property>
  <property name="meta.media.0.codec.long_name">MJPEG (Motion JPEG)</property>
  <property name="meta.media.0.codec.bit_rate">0</property>
  <property name="meta.attr.0.stream.HANDLER_NAME.markup">VideoHandler</property>
  <property name="meta.attr.0.stream.TIMECODE.markup">09:19:15:15</property>
  <property name="meta.attr.0.stream.ENCODER.markup">Lavc58.91.100 mjpeg</property>
  <property name="meta.attr.0.stream.DURATION.markup">00:02:23.625000000</property>
  <property name="meta.attr.MINOR_VERSION.markup">1</property>
  <property name="meta.attr.COMPATIBLE_BRANDS.markup">mp42avc1</property>
  <property name="meta.attr.MAJOR_BRAND.markup">mp42</property>
  <property name="meta.attr.ENCODER.markup">Lavf58.45.100</property>
  <property name="seekable">1</property>
  <property name="meta.media.sample_aspect_num">1</property>
  <property name="meta.media.sample_aspect_den">1</property>
  <property name="audio_index">-1</property>
  <property name="video_index">0</property>
  <property name="mute_on_pause">1</property>
  <property name="warp_speed">2</property>
  <property name="warp_resource">/home/ryankelln/.cache/kdenlive/proxy/bf7d7b8078471387930b2056277d181b.mkv</property>
  <property name="mlt_service">timewarp</property>
  <property name="kdenlive:proxy">/home/ryankelln/.cache/kdenlive/proxy/bf7d7b8078471387930b2056277d181b.mkv</property>
  <property name="kdenlive:originalurl">content/footage/2020-10-17_AshbridgesBay_waves+sparkles+rocks_2.MP4</property>
  <property name="set.test_audio">1</property>
  <property name="set.test_image">0</property>
  <property name="kdenlive:id">89</property>
  <property name="warp_pitch">0</property>
  <property name="meta.media.frame_rate_num">24</property>
  <property name="meta.media.frame_rate_den">1</property>
  <property name="meta.media.colorspace">601</property>
  <property name="meta.media.color_trc">2</property>
  <property name="meta.media.width">960</property>
  <property name="meta.media.height">540</property>
  <property name="meta.media.color_range">full</property>
  <property name="meta.media.top_field_first">0</property>
  <property name="meta.media.progressive">1</property>
  <filter id="filter135">
   <property name="rotate_center">1</property>
   <property name="mlt_service">qtblend</property>
   <property name="kdenlive_id">qtblend</property>
   <property name="rect">00:00:00.000=-27 -69 2112 1188 1.000000</property>
   <property name="rotation">00:00:00.000=0</property>
   <property name="compositing">0</property>
   <property name="distort">0</property>
  </filter>
 </producer>
 <producer id="producer210" in="00:00:00.000" out="00:01:11.733">
  <property name="length">2153</property>
  <property name="eof">pause</property>
  <property name="resource">2.000000:/home/ryankelln/.cache/kdenlive/proxy/bf7d7b8078471387930b2056277d181b.mkv</property>
  <property name="aspect_ratio">1</property>
  <property name="meta.media.nb_streams">1</property>
  <property name="meta.media.0.stream.type">video</property>
  <property name="meta.media.0.stream.frame_rate">24</property>
  <property name="meta.media.0.stream.sample_aspect_ratio">1</property>
  <property name="meta.media.0.codec.width">960</property>
  <property name="meta.media.0.codec.height">540</property>
  <property name="meta.media.0.codec.rotate">0</property>
  <property name="meta.media.0.codec.frame_rate">1000</property>
  <property name="meta.media.0.codec.pix_fmt">yuvj420p</property>
  <property name="meta.media.0.codec.sample_aspect_ratio">1</property>
  <property name="meta.media.0.codec.colorspace">601</property>
  <property name="meta.media.0.codec.name">mjpeg</property>
  <property name="meta.media.0.codec.long_name">MJPEG (Motion JPEG)</property>
  <property name="meta.media.0.codec.bit_rate">0</property>
  <property name="meta.attr.0.stream.HANDLER_NAME.markup">VideoHandler</property>
  <property name="meta.attr.0.stream.TIMECODE.markup">09:19:15:15</property>
  <property name="meta.attr.0.stream.ENCODER.markup">Lavc58.91.100 mjpeg</property>
  <property name="meta.attr.0.stream.DURATION.markup">00:02:23.625000000</property>
  <property name="meta.attr.MINOR_VERSION.markup">1</property>
  <property name="meta.attr.COMPATIBLE_BRANDS.markup">mp42avc1</property>
  <property name="meta.attr.MAJOR_BRAND.markup">mp42</property>
  <property name="meta.attr.ENCODER.markup">Lavf58.45.100</property>
  <property name="seekable">1</property>
  <property name="meta.media.sample_aspect_num">1</property>
  <property name="meta.media.sample_aspect_den">1</property>
  <property name="audio_index">-1</property>
  <property name="video_index">0</property>
  <property name="mute_on_pause">1</property>
  <property name="warp_speed">2</property>
  <property name="warp_resource">/home/ryankelln/.cache/kdenlive/proxy/bf7d7b8078471387930b2056277d181b.mkv</property>
  <property name="mlt_service">timewarp</property>
  <property name="kdenlive:proxy">/home/ryankelln/.cache/kdenlive/proxy/bf7d7b8078471387930b2056277d181b.mkv</property>
  <property name="kdenlive:originalurl">content/footage/2020-10-17_AshbridgesBay_waves+sparkles+rocks_2.MP4</property>
  <property name="set.test_audio">1</property>
  <property name="set.test_image">0</property>
  <property name="kdenlive:id">89</property>
  <property name="warp_pitch">0</property>
  <property name="meta.media.frame_rate_num">24</property>
  <property name="meta.media.frame_rate_den">1</property>
  <property name="meta.media.colorspace">601</property>
  <property name="meta.media.color_trc">2</property>
  <property name="meta.media.width">960</property>
  <property name="meta.media.height">540</property>
  <property name="meta.media.color_range">full</property>
  <property name="meta.media.top_field_first">0</property>
  <property name="meta.media.progressive">1</property>
  <filter id="filter136">
   <property name="rotate_center">1</property>
   <property name="mlt_service">qtblend</property>
   <property name="kdenlive_id">qtblend</property>
   <property name="rect">00:00:00.000=-27 -69 2112 1188 1.000000</property>
   <property name="rotation">00:00:00.000=0</property>
   <property name="compositing">0</property>
   <property name="distort">0</property>
  </filter>
 </producer>
 <producer id="producer211" in="00:00:00.000" out="00:00:20.467">
  <property name="length">615</property>
  <property name="eof">pause</property>
  <property name="resource">7.000000:/home/ryankelln/.cache/kdenlive/proxy/bf7d7b8078471387930b2056277d181b.mkv</property>
  <property name="aspect_ratio">1</property>
  <property name="meta.media.nb_streams">1</property>
  <property name="meta.media.0.stream.type">video</property>
  <property name="meta.media.0.stream.frame_rate">24</property>
  <property name="meta.media.0.stream.sample_aspect_ratio">1</property>
  <property name="meta.media.0.codec.width">960</property>
  <property name="meta.media.0.codec.height">540</property>
  <property name="meta.media.0.codec.rotate">0</property>
  <property name="meta.media.0.codec.frame_rate">1000</property>
  <property name="meta.media.0.codec.pix_fmt">yuvj420p</property>
  <property name="meta.media.0.codec.sample_aspect_ratio">1</property>
  <property name="meta.media.0.codec.colorspace">601</property>
  <property name="meta.media.0.codec.name">mjpeg</property>
  <property name="meta.media.0.codec.long_name">MJPEG (Motion JPEG)</property>
  <property name="meta.media.0.codec.bit_rate">0</property>
  <property name="meta.attr.0.stream.HANDLER_NAME.markup">VideoHandler</property>
  <property name="meta.attr.0.stream.TIMECODE.markup">09:19:15:15</property>
  <property name="meta.attr.0.stream.ENCODER.markup">Lavc58.91.100 mjpeg</property>
  <property name="meta.attr.0.stream.DURATION.markup">00:02:23.625000000</property>
  <property name="meta.attr.MINOR_VERSION.markup">1</property>
  <property name="meta.attr.COMPATIBLE_BRANDS.markup">mp42avc1</property>
  <property name="meta.attr.MAJOR_BRAND.markup">mp42</property>
  <property name="meta.attr.ENCODER.markup">Lavf58.45.100</property>
  <property name="seekable">1</property>
  <property name="meta.media.sample_aspect_num">1</property>
  <property name="meta.media.sample_aspect_den">1</property>
  <property name="audio_index">-1</property>
  <property name="video_index">0</property>
  <property name="mute_on_pause">1</property>
  <property name="warp_speed">7</property>
  <property name="warp_resource">/home/ryankelln/.cache/kdenlive/proxy/bf7d7b8078471387930b2056277d181b.mkv</property>
  <property name="mlt_service">timewarp</property>
  <property name="kdenlive:proxy">/home/ryankelln/.cache/kdenlive/proxy/bf7d7b8078471387930b2056277d181b.mkv</property>
  <property name="kdenlive:originalurl">content/footage/2020-10-17_AshbridgesBay_waves+sparkles+rocks_2.MP4</property>
  <property name="set.test_audio">1</property>
  <property name="set.test_image">0</property>
  <property name="kdenlive:id">89</property>
  <property name="warp_pitch">0</property>
  <property name="meta.media.frame_rate_num">24</property>
  <property name="meta.media.frame_rate_den">1</property>
  <property name="meta.media.colorspace">601</property>
  <property name="meta.media.color_trc">2</property>
  <property name="meta.media.width">960</property>
  <property name="meta.media.height">540</property>
  <property name="meta.media.color_range">full</property>
  <property name="meta.media.top_field_first">0</property>
  <property name="meta.media.progressive">1</property>
  <filter id="filter137">
   <property name="rotate_center">1</property>
   <property name="mlt_service">qtblend</property>
   <property name="kdenlive_id">qtblend</property>
   <property name="rect">00:00:00.000=-27 -69 2112 1188 1.000000</property>
   <property name="rotation">00:00:00.000=0</property>
   <property name="compositing">0</property>
   <property name="distort">0</property>
  </filter>
 </producer>
 <producer id="producer212" in="00:00:00.000" out="00:01:11.733">
  <property name="length">2153</property>
  <property name="eof">pause</property>
  <property name="resource">-2.000000:/home/ryankelln/.cache/kdenlive/proxy/bf7d7b8078471387930b2056277d181b.mkv</property>
  <property name="aspect_ratio">1</property>
  <property name="meta.media.nb_streams">1</property>
  <property name="meta.media.0.stream.type">video</property>
  <property name="meta.media.0.stream.frame_rate">24</property>
  <property name="meta.media.0.stream.sample_aspect_ratio">1</property>
  <property name="meta.media.0.codec.width">960</property>
  <property name="meta.media.0.codec.height">540</property>
  <property name="meta.media.0.codec.rotate">0</property>
  <property name="meta.media.0.codec.frame_rate">1000</property>
  <property name="meta.media.0.codec.pix_fmt">yuvj420p</property>
  <property name="meta.media.0.codec.sample_aspect_ratio">1</property>
  <property name="meta.media.0.codec.colorspace">601</property>
  <property name="meta.media.0.codec.name">mjpeg</property>
  <property name="meta.media.0.codec.long_name">MJPEG (Motion JPEG)</property>
  <property name="meta.media.0.codec.bit_rate">0</property>
  <property name="meta.attr.0.stream.HANDLER_NAME.markup">VideoHandler</property>
  <property name="meta.attr.0.stream.TIMECODE.markup">09:19:15:15</property>
  <property name="meta.attr.0.stream.ENCODER.markup">Lavc58.91.100 mjpeg</property>
  <property name="meta.attr.0.stream.DURATION.markup">00:02:23.625000000</property>
  <property name="meta.attr.MINOR_VERSION.markup">1</property>
  <property name="meta.attr.COMPATIBLE_BRANDS.markup">mp42avc1</property>
  <property name="meta.attr.MAJOR_BRAND.markup">mp42</property>
  <property name="meta.attr.ENCODER.markup">Lavf58.45.100</property>
  <property name="seekable">1</property>
  <property name="meta.media.sample_aspect_num">1</property>
  <property name="meta.media.sample_aspect_den">1</property>
  <property name="audio_index">-1</property>
  <property name="video_index">0</property>
  <property name="mute_on_pause">1</property>
  <property name="warp_speed">-2</property>
  <property name="warp_resource">/home/ryankelln/.cache/kdenlive/proxy/bf7d7b8078471387930b2056277d181b.mkv</property>
  <property name="mlt_service">timewarp</property>
  <property name="kdenlive:proxy">/home/ryankelln/.cache/kdenlive/proxy/bf7d7b8078471387930b2056277d181b.mkv</property>
  <property name="kdenlive:originalurl">content/footage/2020-10-17_AshbridgesBay_waves+sparkles+rocks_2.MP4</property>
  <property name="set.test_audio">1</property>
  <property name="set.test_image">0</property>
  <property name="kdenlive:id">89</property>
  <property name="warp_pitch">0</property>
  <property name="meta.media.frame_rate_num">24</property>
  <property name="meta.media.frame_rate_den">1</property>
  <property name="meta.media.colorspace">601</property>
  <property name="meta.media.color_trc">2</property>
  <property name="meta.media.width">960</property>
  <property name="meta.media.height">540</property>
  <property name="meta.media.color_range">full</property>
  <property name="meta.media.top_field_first">0</property>
  <property name="meta.media.progressive">1</property>
  <filter id="filter138">
   <property name="rotate_center">1</property>
   <property name="mlt_service">qtblend</property>
   <property name="kdenlive_id">qtblend</property>
   <property name="rect">00:00:00.000=-27 -69 2112 1188 1.000000</property>
   <property name="rotation">00:00:00.000=0</property>
   <property name="compositing">0</property>
   <property name="distort">0</property>
  </filter>
 </producer>
 <producer id="producer213" in="00:00:00.000" out="00:00:35.867">
  <property name="length">1077</property>
  <property name="eof">pause</property>
  <property name="resource">4.000000:/home/ryankelln/.cache/kdenlive/proxy/bf7d7b8078471387930b2056277d181b.mkv</property>
  <property name="aspect_ratio">1</property>
  <property name="meta.media.nb_streams">1</property>
  <property name="meta.media.0.stream.type">video</property>
  <property name="meta.media.0.stream.frame_rate">24</property>
  <property name="meta.media.0.stream.sample_aspect_ratio">1</property>
  <property name="meta.media.0.codec.width">960</property>
  <property name="meta.media.0.codec.height">540</property>
  <property name="meta.media.0.codec.rotate">0</property>
  <property name="meta.media.0.codec.frame_rate">1000</property>
  <property name="meta.media.0.codec.pix_fmt">yuvj420p</property>
  <property name="meta.media.0.codec.sample_aspect_ratio">1</property>
  <property name="meta.media.0.codec.colorspace">601</property>
  <property name="meta.media.0.codec.name">mjpeg</property>
  <property name="meta.media.0.codec.long_name">MJPEG (Motion JPEG)</property>
  <property name="meta.media.0.codec.bit_rate">0</property>
  <property name="meta.attr.0.stream.HANDLER_NAME.markup">VideoHandler</property>
  <property name="meta.attr.0.stream.TIMECODE.markup">09:19:15:15</property>
  <property name="meta.attr.0.stream.ENCODER.markup">Lavc58.91.100 mjpeg</property>
  <property name="meta.attr.0.stream.DURATION.markup">00:02:23.625000000</property>
  <property name="meta.attr.MINOR_VERSION.markup">1</property>
  <property name="meta.attr.COMPATIBLE_BRANDS.markup">mp42avc1</property>
  <property name="meta.attr.MAJOR_BRAND.markup">mp42</property>
  <property name="meta.attr.ENCODER.markup">Lavf58.45.100</property>
  <property name="seekable">1</property>
  <property name="meta.media.sample_aspect_num">1</property>
  <property name="meta.media.sample_aspect_den">1</property>
  <property name="audio_index">-1</property>
  <property name="video_index">0</property>
  <property name="mute_on_pause">1</property>
  <property name="warp_speed">4</property>
  <property name="warp_resource">/home/ryankelln/.cache/kdenlive/proxy/bf7d7b8078471387930b2056277d181b.mkv</property>
  <property name="mlt_service">timewarp</property>
  <property name="kdenlive:proxy">/home/ryankelln/.cache/kdenlive/proxy/bf7d7b8078471387930b2056277d181b.mkv</property>
  <property name="kdenlive:originalurl">content/footage/2020-10-17_AshbridgesBay_waves+sparkles+rocks_2.MP4</property>
  <property name="set.test_audio">1</property>
  <property name="set.test_image">0</property>
  <property name="kdenlive:id">89</property>
  <property name="warp_pitch">0</property>
  <property name="meta.media.frame_rate_num">24</property>
  <property name="meta.media.frame_rate_den">1</property>
  <property name="meta.media.colorspace">601</property>
  <property name="meta.media.color_trc">2</property>
  <property name="meta.media.width">960</property>
  <property name="meta.media.height">540</property>
  <property name="meta.media.color_range">full</property>
  <property name="meta.media.top_field_first">0</property>
  <property name="meta.media.progressive">1</property>
  <filter id="filter139">
   <property name="rotate_center">1</property>
   <property name="mlt_service">qtblend</property>
   <property name="kdenlive_id">qtblend</property>
   <property name="rect">00:00:00.000=-27 -69 2112 1188 1.000000</property>
   <property name="rotation">00:00:00.000=0</property>
   <property name="compositing">0</property>
   <property name="distort">0</property>
  </filter>
 </producer>
 <producer id="producer214" in="00:00:00.000" out="00:02:23.500">
  <property name="length">4306</property>
  <property name="eof">pause</property>
  <property name="resource">/home/ryankelln/.cache/kdenlive/proxy/bf7d7b8078471387930b2056277d181b.mkv</property>
  <property name="audio_index">-1</property>
  <property name="video_index">0</property>
  <property name="mute_on_pause">0</property>
  <property name="mlt_service">avformat-novalidate</property>
  <property name="seekable">1</property>
  <property name="aspect_ratio">1</property>
  <property name="kdenlive:clipname">2020-10-17_AshbridgesBay_waves+sparkles+rocks_2.MP4</property>
  <property name="kdenlive:folderid">102</property>
  <property name="kdenlive:id">93</property>
  <property name="kdenlive:file_size">688770905</property>
  <property name="kdenlive:file_hash">bf7d7b8078471387930b2056277d181b</property>
  <property name="kdenlive:proxy">/home/ryankelln/.cache/kdenlive/proxy/bf7d7b8078471387930b2056277d181b.mkv</property>
  <property name="kdenlive:originalurl">content/footage/2020-10-17_AshbridgesBay_waves+sparkles+rocks_2.MP4</property>
  <property name="kdenlive:original.mlt_type">producer</property>
  <property name="kdenlive:original.in">0</property>
  <property name="kdenlive:original.out">4305</property>
  <property name="kdenlive:original.length">4306</property>
  <property name="kdenlive:original.eof">pause</property>
  <property name="kdenlive:original.resource">content/footage/2020-10-17_AshbridgesBay_waves+sparkles+rocks_2.MP4</property>
  <property name="kdenlive:original.meta.media.nb_streams">2</property>
  <property name="kdenlive:original.meta.media.0.stream.type">video</property>
  <property name="kdenlive:original.meta.media.0.stream.frame_rate">24</property>
  <property name="kdenlive:original.meta.media.0.stream.sample_aspect_ratio">1</property>
  <property name="kdenlive:original.meta.media.0.codec.width">1920</property>
  <property name="kdenlive:original.meta.media.0.codec.height">1080</property>
  <property name="kdenlive:original.meta.media.0.codec.rotate">0</property>
  <property name="kdenlive:original.meta.media.0.codec.frame_rate">24</property>
  <property name="kdenlive:original.meta.media.0.codec.pix_fmt">yuv420p</property>
  <property name="kdenlive:original.meta.media.0.codec.sample_aspect_ratio">1</property>
  <property name="kdenlive:original.meta.media.0.codec.colorspace">709</property>
  <property name="kdenlive:original.meta.media.0.codec.color_trc">1</property>
  <property name="kdenlive:original.meta.media.0.codec.name">h264</property>
  <property name="kdenlive:original.meta.media.0.codec.long_name">H.264 / AVC / MPEG-4 AVC / MPEG-4 part 10</property>
  <property name="kdenlive:original.meta.media.0.codec.bit_rate">38384496</property>
  <property name="kdenlive:original.meta.attr.0.stream.creation_time.markup">2020-10-17T07:57:56.000000Z</property>
  <property name="kdenlive:original.meta.attr.0.stream.handler_name.markup">VideoHandler</property>
  <property name="kdenlive:original.meta.attr.0.stream.timecode.markup">09:19:15:15</property>
  <property name="kdenlive:original.meta.attr.compatible_brands.markup">mp42avc1</property>
  <property name="kdenlive:original.meta.attr.major_brand.markup">mp42</property>
  <property name="kdenlive:original.meta.attr.minor_version.markup">1</property>
  <property name="kdenlive:original.meta.attr.creation_time.markup">2020-10-17T07:57:56.000000Z</property>
  <property name="kdenlive:original.meta.attr.encoder.markup">Lavf58.45.100</property>
  <property name="kdenlive:original.seekable">1</property>
  <property name="kdenlive:original.width">1920</property>
  <property name="kdenlive:original.height">1080</property>
  <property name="kdenlive:original.meta.media.sample_aspect_num">1</property>
  <property name="kdenlive:original.meta.media.sample_aspect_den">1</property>
  <property name="kdenlive:original.aspect_ratio">1</property>
  <property name="kdenlive:original.audio_index">-1</property>
  <property name="kdenlive:original.video_index">0</property>
  <property name="kdenlive:original.mute_on_pause">0</property>
  <property name="kdenlive:original.mlt_service">avformat-novalidate</property>
  <property name="kdenlive:original.kdenlive:folderid">102</property>
  <property name="kdenlive:original.meta.media.frame_rate_num">24</property>
  <property name="kdenlive:original.meta.media.frame_rate_den">1</property>
  <property name="kdenlive:original.meta.media.colorspace">709</property>
  <property name="kdenlive:original.meta.media.color_trc">1</property>
  <property name="kdenlive:original.meta.media.width">1920</property>
  <property name="kdenlive:original.meta.media.height">1080</property>
  <property name="kdenlive:original.meta.media.color_range">mpeg</property>
  <property name="kdenlive:original.kdenlive:id">101</property>
  <property name="kdenlive:original.kdenlive:file_size">688770905</property>
  <property name="kdenlive:original.kdenlive:file_hash">bf7d7b8078471387930b2056277d181b</property>
  <property name="kdenlive:original.backup">1</property>
  <property name="global_feed">1</property>
  <property name="kdenlive:zone_in">1723</property>
  <property name="kdenlive:zone_out">2785</property>
  <property name="kdenlive:clipzones">[
    {
        "in": 1723,
        "name": "Zone 1",
        "out": 2785
    }
]
</property>
  <property name="xml">was here</property>
  <property name="meta.media.nb_streams">1</property>
  <property name="meta.media.0.stream.type">video</property>
  <property name="meta.media.0.stream.frame_rate">24</property>
  <property name="meta.media.0.stream.sample_aspect_ratio">1</property>
  <property name="meta.media.0.codec.width">960</property>
  <property name="meta.media.0.codec.height">540</property>
  <property name="meta.media.0.codec.rotate">0</property>
  <property name="meta.media.0.codec.frame_rate">1000</property>
  <property name="meta.media.0.codec.pix_fmt">yuvj420p</property>
  <property name="meta.media.0.codec.sample_aspect_ratio">1</property>
  <property name="meta.media.0.codec.colorspace">601</property>
  <property name="meta.media.0.codec.name">mjpeg</property>
  <property name="meta.media.0.codec.long_name">MJPEG (Motion JPEG)</property>
  <property name="meta.media.0.codec.bit_rate">0</property>
  <property name="meta.attr.0.stream.HANDLER_NAME.markup">VideoHandler</property>
  <property name="meta.attr.0.stream.TIMECODE.markup">09:19:15:15</property>
  <property name="meta.attr.0.stream.ENCODER.markup">Lavc58.91.100 mjpeg</property>
  <property name="meta.attr.0.stream.DURATION.markup">00:02:23.625000000</property>
  <property name="meta.attr.MINOR_VERSION.markup">1</property>
  <property name="meta.attr.COMPATIBLE_BRANDS.markup">mp42avc1</property>
  <property name="meta.attr.MAJOR_BRAND.markup">mp42</property>
  <property name="meta.attr.ENCODER.markup">Lavf58.45.100</property>
  <property name="meta.media.sample_aspect_num">1</property>
  <property name="meta.media.sample_aspect_den">1</property>
  <property name="meta.media.frame_rate_num">24</property>
  <property name="meta.media.frame_rate_den">1</property>
  <property name="meta.media.colorspace">601</property>
  <property name="meta.media.color_trc">2</property>
  <property name="meta.media.width">960</property>
  <property name="meta.media.height">540</property>
  <property name="meta.media.color_range">full</property>
  <property name="meta.media.top_field_first">0</property>
  <property name="meta.media.progressive">1</property>
  <property name="set.test_audio">1</property>
  <property name="set.test_image">0</property>
 </producer>
 <producer id="producer215" in="00:00:00.000" out="00:02:23.500">
  <property name="length">4306</property>
  <property name="eof">pause</property>
  <property name="resource">-1.000000:/home/ryankelln/.cache/kdenlive/proxy/bf7d7b8078471387930b2056277d181b.mkv</property>
  <property name="aspect_ratio">1</property>
  <property name="meta.media.nb_streams">1</property>
  <property name="meta.media.0.stream.type">video</property>
  <property name="meta.media.0.stream.frame_rate">24</property>
  <property name="meta.media.0.stream.sample_aspect_ratio">1</property>
  <property name="meta.media.0.codec.width">960</property>
  <property name="meta.media.0.codec.height">540</property>
  <property name="meta.media.0.codec.rotate">0</property>
  <property name="meta.media.0.codec.frame_rate">1000</property>
  <property name="meta.media.0.codec.pix_fmt">yuvj420p</property>
  <property name="meta.media.0.codec.sample_aspect_ratio">1</property>
  <property name="meta.media.0.codec.colorspace">601</property>
  <property name="meta.media.0.codec.name">mjpeg</property>
  <property name="meta.media.0.codec.long_name">MJPEG (Motion JPEG)</property>
  <property name="meta.media.0.codec.bit_rate">0</property>
  <property name="meta.attr.0.stream.HANDLER_NAME.markup">VideoHandler</property>
  <property name="meta.attr.0.stream.TIMECODE.markup">09:19:15:15</property>
  <property name="meta.attr.0.stream.ENCODER.markup">Lavc58.91.100 mjpeg</property>
  <property name="meta.attr.0.stream.DURATION.markup">00:02:23.625000000</property>
  <property name="meta.attr.MINOR_VERSION.markup">1</property>
  <property name="meta.attr.COMPATIBLE_BRANDS.markup">mp42avc1</property>
  <property name="meta.attr.MAJOR_BRAND.markup">mp42</property>
  <property name="meta.attr.ENCODER.markup">Lavf58.45.100</property>
  <property name="seekable">1</property>
  <property name="meta.media.sample_aspect_num">1</property>
  <property name="meta.media.sample_aspect_den">1</property>
  <property name="audio_index">-1</property>
  <property name="video_index">0</property>
  <property name="mute_on_pause">1</property>
  <property name="warp_speed">-1</property>
  <property name="warp_resource">/home/ryankelln/.cache/kdenlive/proxy/bf7d7b8078471387930b2056277d181b.mkv</property>
  <property name="mlt_service">timewarp</property>
  <property name="kdenlive:proxy">/home/ryankelln/.cache/kdenlive/proxy/bf7d7b8078471387930b2056277d181b.mkv</property>
  <property name="kdenlive:originalurl">content/footage/2020-10-17_AshbridgesBay_waves+sparkles+rocks_2.MP4</property>
  <property name="set.test_audio">1</property>
  <property name="set.test_image">0</property>
  <property name="kdenlive:id">93</property>
  <property name="warp_pitch">0</property>
  <property name="meta.media.frame_rate_num">24</property>
  <property name="meta.media.frame_rate_den">1</property>
  <property name="meta.media.colorspace">601</property>
  <property name="meta.media.color_trc">2</property>
  <property name="meta.media.width">960</property>
  <property name="meta.media.height">540</property>
  <property name="meta.media.color_range">full</property>
  <property name="meta.media.top_field_first">0</property>
  <property name="meta.media.progressive">1</property>
 </producer>
 <producer id="producer216" in="00:00:00.000" out="00:01:35.667">
  <property name="length">2871</property>
  <property name="eof">pause</property>
  <property name="resource">1.500000:/home/ryankelln/.cache/kdenlive/proxy/bf7d7b8078471387930b2056277d181b.mkv</property>
  <property name="aspect_ratio">1</property>
  <property name="meta.media.nb_streams">1</property>
  <property name="meta.media.0.stream.type">video</property>
  <property name="meta.media.0.stream.frame_rate">24</property>
  <property name="meta.media.0.stream.sample_aspect_ratio">1</property>
  <property name="meta.media.0.codec.width">960</property>
  <property name="meta.media.0.codec.height">540</property>
  <property name="meta.media.0.codec.rotate">0</property>
  <property name="meta.media.0.codec.frame_rate">1000</property>
  <property name="meta.media.0.codec.pix_fmt">yuvj420p</property>
  <property name="meta.media.0.codec.sample_aspect_ratio">1</property>
  <property name="meta.media.0.codec.colorspace">601</property>
  <property name="meta.media.0.codec.name">mjpeg</property>
  <property name="meta.media.0.codec.long_name">MJPEG (Motion JPEG)</property>
  <property name="meta.media.0.codec.bit_rate">0</property>
  <property name="meta.attr.0.stream.HANDLER_NAME.markup">VideoHandler</property>
  <property name="meta.attr.0.stream.TIMECODE.markup">09:19:15:15</property>
  <property name="meta.attr.0.stream.ENCODER.markup">Lavc58.91.100 mjpeg</property>
  <property name="meta.attr.0.stream.DURATION.markup">00:02:23.625000000</property>
  <property name="meta.attr.MINOR_VERSION.markup">1</property>
  <property name="meta.attr.COMPATIBLE_BRANDS.markup">mp42avc1</property>
  <property name="meta.attr.MAJOR_BRAND.markup">mp42</property>
  <property name="meta.attr.ENCODER.markup">Lavf58.45.100</property>
  <property name="seekable">1</property>
  <property name="meta.media.sample_aspect_num">1</property>
  <property name="meta.media.sample_aspect_den">1</property>
  <property name="audio_index">-1</property>
  <property name="video_index">0</property>
  <property name="mute_on_pause">1</property>
  <property name="warp_speed">1.5</property>
  <property name="warp_resource">/home/ryankelln/.cache/kdenlive/proxy/bf7d7b8078471387930b2056277d181b.mkv</property>
  <property name="mlt_service">timewarp</property>
  <property name="kdenlive:proxy">/home/ryankelln/.cache/kdenlive/proxy/bf7d7b8078471387930b2056277d181b.mkv</property>
  <property name="kdenlive:originalurl">content/footage/2020-10-17_AshbridgesBay_waves+sparkles+rocks_2.MP4</property>
  <property name="set.test_audio">1</property>
  <property name="set.test_image">0</property>
  <property name="kdenlive:id">93</property>
  <property name="warp_pitch">0</property>
  <property name="meta.media.frame_rate_num">24</property>
  <property name="meta.media.frame_rate_den">1</property>
  <property name="meta.media.colorspace">601</property>
  <property name="meta.media.color_trc">2</property>
  <property name="meta.media.width">960</property>
  <property name="meta.media.height">540</property>
  <property name="meta.media.color_range">full</property>
  <property name="meta.media.top_field_first">0</property>
  <property name="meta.media.progressive">1</property>
 </producer>
 <producer id="producer217" in="00:00:00.000" out="00:01:11.733">
  <property name="length">2153</property>
  <property name="eof">pause</property>
  <property name="resource">2.000000:/home/ryankelln/.cache/kdenlive/proxy/bf7d7b8078471387930b2056277d181b.mkv</property>
  <property name="aspect_ratio">1</property>
  <property name="meta.media.nb_streams">1</property>
  <property name="meta.media.0.stream.type">video</property>
  <property name="meta.media.0.stream.frame_rate">24</property>
  <property name="meta.media.0.stream.sample_aspect_ratio">1</property>
  <property name="meta.media.0.codec.width">960</property>
  <property name="meta.media.0.codec.height">540</property>
  <property name="meta.media.0.codec.rotate">0</property>
  <property name="meta.media.0.codec.frame_rate">1000</property>
  <property name="meta.media.0.codec.pix_fmt">yuvj420p</property>
  <property name="meta.media.0.codec.sample_aspect_ratio">1</property>
  <property name="meta.media.0.codec.colorspace">601</property>
  <property name="meta.media.0.codec.name">mjpeg</property>
  <property name="meta.media.0.codec.long_name">MJPEG (Motion JPEG)</property>
  <property name="meta.media.0.codec.bit_rate">0</property>
  <property name="meta.attr.0.stream.HANDLER_NAME.markup">VideoHandler</property>
  <property name="meta.attr.0.stream.TIMECODE.markup">09:19:15:15</property>
  <property name="meta.attr.0.stream.ENCODER.markup">Lavc58.91.100 mjpeg</property>
  <property name="meta.attr.0.stream.DURATION.markup">00:02:23.625000000</property>
  <property name="meta.attr.MINOR_VERSION.markup">1</property>
  <property name="meta.attr.COMPATIBLE_BRANDS.markup">mp42avc1</property>
  <property name="meta.attr.MAJOR_BRAND.markup">mp42</property>
  <property name="meta.attr.ENCODER.markup">Lavf58.45.100</property>
  <property name="seekable">1</property>
  <property name="meta.media.sample_aspect_num">1</property>
  <property name="meta.media.sample_aspect_den">1</property>
  <property name="audio_index">-1</property>
  <property name="video_index">0</property>
  <property name="mute_on_pause">1</property>
  <property name="warp_speed">2</property>
  <property name="warp_resource">/home/ryankelln/.cache/kdenlive/proxy/bf7d7b8078471387930b2056277d181b.mkv</property>
  <property name="mlt_service">timewarp</property>
  <property name="kdenlive:proxy">/home/ryankelln/.cache/kdenlive/proxy/bf7d7b8078471387930b2056277d181b.mkv</property>
  <property name="kdenlive:originalurl">content/footage/2020-10-17_AshbridgesBay_waves+sparkles+rocks_2.MP4</property>
  <property name="set.test_audio">1</property>
  <property name="set.test_image">0</property>
  <property name="kdenlive:id">93</property>
  <property name="warp_pitch">0</property>
  <property name="meta.media.frame_rate_num">24</property>
  <property name="meta.media.frame_rate_den">1</property>
  <property name="meta.media.colorspace">601</property>
  <property name="meta.media.color_trc">2</property>
  <property name="meta.media.width">960</property>
  <property name="meta.media.height">540</property>
  <property name="meta.media.color_range">full</property>
  <property name="meta.media.top_field_first">0</property>
  <property name="meta.media.progressive">1</property>
 </producer>
 <producer id="producer218" in="00:00:00.000" out="00:00:09.400">
  <property name="length">283</property>
  <property name="eof">pause</property>
  <property name="resource">1.219081:content/Conways_game_of_life_breeder_animation.gif</property>
  <property name="aspect_ratio">1</property>
  <property name="meta.media.nb_streams">1</property>
  <property name="meta.media.0.stream.type">video</property>
  <property name="meta.media.0.stream.frame_rate">50</property>
  <property name="meta.media.0.stream.sample_aspect_ratio">0</property>
  <property name="meta.media.0.codec.width">379</property>
  <property name="meta.media.0.codec.height">192</property>
  <property name="meta.media.0.codec.rotate">0</property>
  <property name="meta.media.0.codec.frame_rate">100</property>
  <property name="meta.media.0.codec.pix_fmt">bgra</property>
  <property name="meta.media.0.codec.sample_aspect_ratio">0</property>
  <property name="meta.media.0.codec.colorspace">601</property>
  <property name="meta.media.0.codec.name">gif</property>
  <property name="meta.media.0.codec.long_name">GIF (Graphics Interchange Format)</property>
  <property name="meta.media.0.codec.bit_rate">0</property>
  <property name="seekable">1</property>
  <property name="meta.media.sample_aspect_num">1</property>
  <property name="meta.media.sample_aspect_den">1</property>
  <property name="audio_index">-1</property>
  <property name="video_index">0</property>
  <property name="mute_on_pause">1</property>
  <property name="warp_speed">1.21908</property>
  <property name="warp_resource">content/Conways_game_of_life_breeder_animation.gif</property>
  <property name="mlt_service">timewarp</property>
  <property name="set.test_audio">1</property>
  <property name="set.test_image">0</property>
  <property name="kdenlive:id">97</property>
  <property name="warp_pitch">0</property>
  <property name="meta.media.frame_rate_num">50</property>
  <property name="meta.media.frame_rate_den">1</property>
  <property name="meta.media.colorspace">601</property>
  <property name="meta.media.color_trc">2</property>
  <property name="meta.media.width">379</property>
  <property name="meta.media.height">192</property>
  <property name="meta.media.color_range">mpeg</property>
  <property name="meta.media.top_field_first">0</property>
  <property name="meta.media.progressive">1</property>
 </producer>
 <producer id="producer219" in="00:00:00.000" out="00:00:29.900">
  <property name="length">900</property>
  <property name="eof">pause</property>
  <property name="resource">/home/ryankelln/.cache/kdenlive/proxy/e9abd51630e84b005d32c49369d869ed.mkv</property>
  <property name="audio_index">-1</property>
  <property name="video_index">0</property>
  <property name="mute_on_pause">0</property>
  <property name="mlt_service">avformat-novalidate</property>
  <property name="seekable">1</property>
  <property name="aspect_ratio">1</property>
  <property name="kdenlive:clipname">Uplifting Clouds H264_Beachfront-B-roll.mp4</property>
  <property name="kdenlive:folderid">102</property>
  <property name="kdenlive:id">94</property>
  <property name="kdenlive:file_size">167710203</property>
  <property name="kdenlive:file_hash">e9abd51630e84b005d32c49369d869ed</property>
  <property name="kdenlive:proxy">/home/ryankelln/.cache/kdenlive/proxy/e9abd51630e84b005d32c49369d869ed.mkv</property>
  <property name="kdenlive:originalurl">content/footage/Uplifting Clouds H264_Beachfront-B-roll.mp4</property>
  <property name="kdenlive:original.mlt_type">producer</property>
  <property name="kdenlive:original.in">0</property>
  <property name="kdenlive:original.out">899</property>
  <property name="kdenlive:original.length">900</property>
  <property name="kdenlive:original.eof">pause</property>
  <property name="kdenlive:original.resource">content/footage/Uplifting Clouds H264_Beachfront-B-roll.mp4</property>
  <property name="kdenlive:original.meta.media.nb_streams">1</property>
  <property name="kdenlive:original.meta.media.0.stream.type">video</property>
  <property name="kdenlive:original.meta.media.0.stream.frame_rate">23.976</property>
  <property name="kdenlive:original.meta.media.0.stream.sample_aspect_ratio">0</property>
  <property name="kdenlive:original.meta.media.0.codec.width">1920</property>
  <property name="kdenlive:original.meta.media.0.codec.height">1080</property>
  <property name="kdenlive:original.meta.media.0.codec.rotate">0</property>
  <property name="kdenlive:original.meta.media.0.codec.frame_rate">23.976</property>
  <property name="kdenlive:original.meta.media.0.codec.pix_fmt">yuv420p</property>
  <property name="kdenlive:original.meta.media.0.codec.sample_aspect_ratio">1</property>
  <property name="kdenlive:original.meta.media.0.codec.colorspace">709</property>
  <property name="kdenlive:original.meta.media.0.codec.name">h264</property>
  <property name="kdenlive:original.meta.media.0.codec.long_name">H.264 / AVC / MPEG-4 AVC / MPEG-4 part 10</property>
  <property name="kdenlive:original.meta.media.0.codec.bit_rate">44735046</property>
  <property name="kdenlive:original.meta.attr.0.stream.creation_time.markup">2014-04-25T20:08:14.000000Z</property>
  <property name="kdenlive:original.meta.attr.0.stream.language.markup">eng</property>
  <property name="kdenlive:original.meta.attr.0.stream.handler_name.markup">Mainconcept MP4 Video Media Handler</property>
  <property name="kdenlive:original.meta.attr.0.stream.encoder.markup">AVC Coding</property>
  <property name="kdenlive:original.meta.attr.major_brand.markup">mp42</property>
  <property name="kdenlive:original.meta.attr.minor_version.markup">0</property>
  <property name="kdenlive:original.meta.attr.compatible_brands.markup">mp42mp41</property>
  <property name="kdenlive:original.meta.attr.creation_time.markup">2014-04-25T20:08:14.000000Z</property>
  <property name="kdenlive:original.seekable">1</property>
  <property name="kdenlive:original.width">1920</property>
  <property name="kdenlive:original.height">1080</property>
  <property name="kdenlive:original.meta.media.sample_aspect_num">1</property>
  <property name="kdenlive:original.meta.media.sample_aspect_den">1</property>
  <property name="kdenlive:original.aspect_ratio">1</property>
  <property name="kdenlive:original.audio_index">-1</property>
  <property name="kdenlive:original.video_index">0</property>
  <property name="kdenlive:original.mute_on_pause">0</property>
  <property name="kdenlive:original.mlt_service">avformat-novalidate</property>
  <property name="kdenlive:original.kdenlive:folderid">102</property>
  <property name="kdenlive:original.meta.media.frame_rate_num">2997</property>
  <property name="kdenlive:original.meta.media.frame_rate_den">125</property>
  <property name="kdenlive:original.meta.media.colorspace">709</property>
  <property name="kdenlive:original.meta.media.color_trc">2</property>
  <property name="kdenlive:original.meta.media.width">1920</property>
  <property name="kdenlive:original.meta.media.height">1080</property>
  <property name="kdenlive:original.meta.media.color_range">mpeg</property>
  <property name="kdenlive:original.kdenlive:id">104</property>
  <property name="kdenlive:original.kdenlive:file_size">167710203</property>
  <property name="kdenlive:original.kdenlive:file_hash">e9abd51630e84b005d32c49369d869ed</property>
  <property name="kdenlive:original.backup">1</property>
  <property name="global_feed">1</property>
  <property name="xml">was here</property>
  <property name="meta.media.nb_streams">1</property>
  <property name="meta.media.0.stream.type">video</property>
  <property name="meta.media.0.stream.frame_rate">23.976</property>
  <property name="meta.media.0.stream.sample_aspect_ratio">1</property>
  <property name="meta.media.0.codec.width">960</property>
  <property name="meta.media.0.codec.height">540</property>
  <property name="meta.media.0.codec.rotate">0</property>
  <property name="meta.media.0.codec.frame_rate">1000</property>
  <property name="meta.media.0.codec.pix_fmt">yuvj420p</property>
  <property name="meta.media.0.codec.sample_aspect_ratio">1</property>
  <property name="meta.media.0.codec.colorspace">601</property>
  <property name="meta.media.0.codec.name">mjpeg</property>
  <property name="meta.media.0.codec.long_name">MJPEG (Motion JPEG)</property>
  <property name="meta.media.0.codec.bit_rate">0</property>
  <property name="meta.attr.0.stream.language.markup">eng</property>
  <property name="meta.attr.0.stream.HANDLER_NAME.markup">Mainconcept MP4 Video Media Handler</property>
  <property name="meta.attr.0.stream.ENCODER.markup">Lavc58.91.100 mjpeg</property>
  <property name="meta.attr.0.stream.DURATION.markup">00:00:29.947000000</property>
  <property name="meta.attr.COMPATIBLE_BRANDS.markup">mp42mp41</property>
  <property name="meta.attr.MAJOR_BRAND.markup">mp42</property>
  <property name="meta.attr.MINOR_VERSION.markup">0</property>
  <property name="meta.attr.ENCODER.markup">Lavf58.45.100</property>
  <property name="meta.media.sample_aspect_num">1</property>
  <property name="meta.media.sample_aspect_den">1</property>
  <property name="meta.media.frame_rate_num">2997</property>
  <property name="meta.media.frame_rate_den">125</property>
  <property name="meta.media.colorspace">601</property>
  <property name="meta.media.color_trc">2</property>
  <property name="meta.media.width">960</property>
  <property name="meta.media.height">540</property>
  <property name="meta.media.color_range">full</property>
  <property name="meta.media.top_field_first">0</property>
  <property name="meta.media.progressive">1</property>
  <property name="set.test_audio">1</property>
  <property name="set.test_image">0</property>
 </producer>
 <producer id="producer220" in="00:00:00.000" out="00:00:10.767">
  <property name="length">325</property>
  <property name="eof">pause</property>
  <property name="resource">6.000000:/home/ryankelln/.cache/kdenlive/proxy/346124284c27e48b631383483782dca4.mkv</property>
  <property name="aspect_ratio">1</property>
  <property name="meta.media.nb_streams">2</property>
  <property name="meta.media.0.stream.type">video</property>
  <property name="meta.media.0.stream.frame_rate">30</property>
  <property name="meta.media.0.stream.sample_aspect_ratio">1</property>
  <property name="meta.media.0.codec.width">960</property>
  <property name="meta.media.0.codec.height">540</property>
  <property name="meta.media.0.codec.rotate">0</property>
  <property name="meta.media.0.codec.frame_rate">1000</property>
  <property name="meta.media.0.codec.pix_fmt">yuvj420p</property>
  <property name="meta.media.0.codec.sample_aspect_ratio">1</property>
  <property name="meta.media.0.codec.colorspace">601</property>
  <property name="meta.media.0.codec.name">mjpeg</property>
  <property name="meta.media.0.codec.long_name">MJPEG (Motion JPEG)</property>
  <property name="meta.media.0.codec.bit_rate">0</property>
  <property name="meta.attr.0.stream.HANDLER_NAME.markup">VideoHandler</property>
  <property name="meta.attr.0.stream.ENCODER.markup">Lavc58.91.100 mjpeg</property>
  <property name="meta.attr.0.stream.DURATION.markup">00:01:04.866000000</property>
  <property name="meta.media.1.stream.type">audio</property>
  <property name="meta.media.1.codec.sample_fmt">s16</property>
  <property name="meta.media.1.codec.sample_rate">48000</property>
  <property name="meta.media.1.codec.channels">2</property>
  <property name="meta.media.1.codec.name">pcm_s16le</property>
  <property name="meta.media.1.codec.long_name">PCM signed 16-bit little-endian</property>
  <property name="meta.media.1.codec.bit_rate">1536000</property>
  <property name="meta.attr.1.stream.HANDLER_NAME.markup">SoundHandler</property>
  <property name="meta.attr.1.stream.ENCODER.markup">Lavc58.91.100 pcm_s16le</property>
  <property name="meta.attr.1.stream.DURATION.markup">00:01:04.874000000</property>
  <property name="meta.attr.COMPATIBLE_BRANDS.markup">isomiso2avc1mp41</property>
  <property name="meta.attr.MAJOR_BRAND.markup">isom</property>
  <property name="meta.attr.MINOR_VERSION.markup">512</property>
  <property name="meta.attr.ENCODER.markup">Lavf58.45.100</property>
  <property name="seekable">1</property>
  <property name="meta.media.sample_aspect_num">1</property>
  <property name="meta.media.sample_aspect_den">1</property>
  <property name="audio_index">1</property>
  <property name="video_index">0</property>
  <property name="mute_on_pause">1</property>
  <property name="warp_speed">6</property>
  <property name="warp_resource">/home/ryankelln/.cache/kdenlive/proxy/346124284c27e48b631383483782dca4.mkv</property>
  <property name="mlt_service">timewarp</property>
  <property name="kdenlive:proxy">/home/ryankelln/.cache/kdenlive/proxy/346124284c27e48b631383483782dca4.mkv</property>
  <property name="kdenlive:originalurl">/home/ryankelln/Documents/Projects/Active/Sound_Escapes/Mac/from_sol/golden-ratio/2021-05-18 23-19-52.mp4</property>
  <property name="set.test_audio">1</property>
  <property name="set.test_image">0</property>
  <property name="kdenlive:id">66</property>
  <property name="warp_pitch">0</property>
  <property name="meta.media.frame_rate_num">30</property>
  <property name="meta.media.frame_rate_den">1</property>
  <property name="meta.media.colorspace">601</property>
  <property name="meta.media.color_trc">2</property>
  <property name="meta.media.width">960</property>
  <property name="meta.media.height">540</property>
  <property name="meta.media.color_range">full</property>
  <property name="meta.media.top_field_first">0</property>
  <property name="meta.media.progressive">1</property>
 </producer>
 <producer id="producer221" in="00:00:00.000" out="00:01:02.900">
  <property name="length">1888</property>
  <property name="eof">pause</property>
  <property name="resource">2.097458:/home/ryankelln/.cache/kdenlive/proxy/d51eab99028e47136c29c76f2420e376.mkv</property>
  <property name="aspect_ratio">1</property>
  <property name="meta.media.nb_streams">1</property>
  <property name="meta.media.0.stream.type">video</property>
  <property name="meta.media.0.stream.frame_rate">30</property>
  <property name="meta.media.0.stream.sample_aspect_ratio">1</property>
  <property name="meta.media.0.codec.width">960</property>
  <property name="meta.media.0.codec.height">960</property>
  <property name="meta.media.0.codec.rotate">0</property>
  <property name="meta.media.0.codec.frame_rate">1000</property>
  <property name="meta.media.0.codec.pix_fmt">yuvj420p</property>
  <property name="meta.media.0.codec.sample_aspect_ratio">1</property>
  <property name="meta.media.0.codec.colorspace">601</property>
  <property name="meta.media.0.codec.name">mjpeg</property>
  <property name="meta.media.0.codec.long_name">MJPEG (Motion JPEG)</property>
  <property name="meta.media.0.codec.bit_rate">0</property>
  <property name="meta.attr.0.stream.HANDLER_NAME.markup">VideoHandler</property>
  <property name="meta.attr.0.stream.ENCODER.markup">Lavc58.91.100 mjpeg</property>
  <property name="meta.attr.0.stream.DURATION.markup">00:02:12.000000000</property>
  <property name="meta.attr.COMPATIBLE_BRANDS.markup">isomiso2avc1mp41</property>
  <property name="meta.attr.MAJOR_BRAND.markup">isom</property>
  <property name="meta.attr.MINOR_VERSION.markup">512</property>
  <property name="meta.attr.ENCODER.markup">Lavf58.45.100</property>
  <property name="seekable">1</property>
  <property name="meta.media.sample_aspect_num">1</property>
  <property name="meta.media.sample_aspect_den">1</property>
  <property name="audio_index">-1</property>
  <property name="video_index">0</property>
  <property name="mute_on_pause">1</property>
  <property name="warp_speed">2.09746</property>
  <property name="warp_resource">/home/ryankelln/.cache/kdenlive/proxy/d51eab99028e47136c29c76f2420e376.mkv</property>
  <property name="mlt_service">timewarp</property>
  <property name="kdenlive:proxy">/home/ryankelln/.cache/kdenlive/proxy/d51eab99028e47136c29c76f2420e376.mkv</property>
  <property name="kdenlive:originalurl">content/prerendered/fib_textures_1080.mp4</property>
  <property name="set.test_audio">1</property>
  <property name="set.test_image">0</property>
  <property name="kdenlive:id">145</property>
  <property name="warp_pitch">0</property>
  <property name="meta.media.frame_rate_num">30</property>
  <property name="meta.media.frame_rate_den">1</property>
  <property name="meta.media.colorspace">601</property>
  <property name="meta.media.color_trc">2</property>
  <property name="meta.media.width">960</property>
  <property name="meta.media.height">960</property>
  <property name="meta.media.color_range">full</property>
  <property name="meta.media.top_field_first">0</property>
  <property name="meta.media.progressive">1</property>
 </producer>
 <producer id="producer222" in="00:00:00.000" out="00:00:25.933">
  <property name="length">779</property>
  <property name="eof">pause</property>
  <property name="resource">content/footage/SilverLiningH264_Beachfront-B-roll.mp4</property>
  <property name="audio_index">1</property>
  <property name="video_index">0</property>
  <property name="mute_on_pause">0</property>
  <property name="mlt_service">avformat-novalidate</property>
  <property name="seekable">1</property>
  <property name="aspect_ratio">1</property>
  <property name="kdenlive:clipname"/>
  <property name="kdenlive:folderid">102</property>
  <property name="kdenlive:id">150</property>
  <property name="kdenlive:file_size">145788797</property>
  <property name="kdenlive:file_hash">2d2de81895c21e9b379ff476fbf10aec</property>
  <property name="kdenlive:proxy">/home/ryankelln/.cache/kdenlive/proxy/2d2de81895c21e9b379ff476fbf10aec.mkv</property>
  <property name="kdenlive:originalurl">content/footage/SilverLiningH264_Beachfront-B-roll.mp4</property>
  <property name="kdenlive:original.mlt_type">producer</property>
  <property name="kdenlive:original.in">0</property>
  <property name="kdenlive:original.out">778</property>
  <property name="kdenlive:original.length">779</property>
  <property name="kdenlive:original.eof">pause</property>
  <property name="kdenlive:original.resource">content/footage/SilverLiningH264_Beachfront-B-roll.mp4</property>
  <property name="kdenlive:original.meta.media.nb_streams">2</property>
  <property name="kdenlive:original.meta.media.0.stream.type">video</property>
  <property name="kdenlive:original.meta.media.0.stream.frame_rate">24</property>
  <property name="kdenlive:original.meta.media.0.stream.sample_aspect_ratio">0</property>
  <property name="kdenlive:original.meta.media.0.codec.width">1920</property>
  <property name="kdenlive:original.meta.media.0.codec.height">1080</property>
  <property name="kdenlive:original.meta.media.0.codec.rotate">0</property>
  <property name="kdenlive:original.meta.media.0.codec.frame_rate">24</property>
  <property name="kdenlive:original.meta.media.0.codec.pix_fmt">yuv420p</property>
  <property name="kdenlive:original.meta.media.0.codec.sample_aspect_ratio">1</property>
  <property name="kdenlive:original.meta.media.0.codec.colorspace">709</property>
  <property name="kdenlive:original.meta.media.0.codec.name">h264</property>
  <property name="kdenlive:original.meta.media.0.codec.long_name">H.264 / AVC / MPEG-4 AVC / MPEG-4 part 10</property>
  <property name="kdenlive:original.meta.media.0.codec.bit_rate">44834270</property>
  <property name="kdenlive:original.meta.attr.0.stream.creation_time.markup">2012-11-19T20:57:21.000000Z</property>
  <property name="kdenlive:original.meta.attr.0.stream.language.markup">eng</property>
  <property name="kdenlive:original.meta.attr.0.stream.handler_name.markup">Mainconcept MP4 Video Media Handler</property>
  <property name="kdenlive:original.meta.attr.0.stream.encoder.markup">AVC Coding</property>
  <property name="kdenlive:original.meta.media.1.stream.type">audio</property>
  <property name="kdenlive:original.meta.media.1.codec.sample_fmt">fltp</property>
  <property name="kdenlive:original.meta.media.1.codec.sample_rate">48000</property>
  <property name="kdenlive:original.meta.media.1.codec.channels">2</property>
  <property name="kdenlive:original.meta.media.1.codec.name">aac</property>
  <property name="kdenlive:original.meta.media.1.codec.long_name">AAC (Advanced Audio Coding)</property>
  <property name="kdenlive:original.meta.media.1.codec.bit_rate">157375</property>
  <property name="kdenlive:original.meta.attr.1.stream.creation_time.markup">2012-11-19T20:57:21.000000Z</property>
  <property name="kdenlive:original.meta.attr.1.stream.language.markup">eng</property>
  <property name="kdenlive:original.meta.attr.1.stream.handler_name.markup">Mainconcept MP4 Sound Media Handler</property>
  <property name="kdenlive:original.meta.attr.major_brand.markup">mp42</property>
  <property name="kdenlive:original.meta.attr.minor_version.markup">0</property>
  <property name="kdenlive:original.meta.attr.compatible_brands.markup">mp42mp41</property>
  <property name="kdenlive:original.meta.attr.creation_time.markup">2012-11-19T20:57:21.000000Z</property>
  <property name="kdenlive:original.seekable">1</property>
  <property name="kdenlive:original.width">1920</property>
  <property name="kdenlive:original.height">1080</property>
  <property name="kdenlive:original.meta.media.sample_aspect_num">1</property>
  <property name="kdenlive:original.meta.media.sample_aspect_den">1</property>
  <property name="kdenlive:original.aspect_ratio">1</property>
  <property name="kdenlive:original.audio_index">1</property>
  <property name="kdenlive:original.video_index">0</property>
  <property name="kdenlive:original.mute_on_pause">0</property>
  <property name="kdenlive:original.mlt_service">avformat-novalidate</property>
  <property name="kdenlive:original.kdenlive:folderid">102</property>
  <property name="kdenlive:original.meta.media.frame_rate_num">24</property>
  <property name="kdenlive:original.meta.media.frame_rate_den">1</property>
  <property name="kdenlive:original.meta.media.colorspace">709</property>
  <property name="kdenlive:original.meta.media.color_trc">2</property>
  <property name="kdenlive:original.meta.media.width">1920</property>
  <property name="kdenlive:original.meta.media.height">1080</property>
  <property name="kdenlive:original.meta.media.color_range">mpeg</property>
  <property name="kdenlive:original.kdenlive:id">162</property>
  <property name="kdenlive:original.kdenlive:file_size">145788797</property>
  <property name="kdenlive:original.kdenlive:file_hash">2d2de81895c21e9b379ff476fbf10aec</property>
  <property name="kdenlive:original.backup">1</property>
  <property name="kdenlive:audio_max">91</property>
  <property name="global_feed">1</property>
  <property name="xml">was here</property>
  <property name="meta.media.nb_streams">2</property>
  <property name="meta.media.0.stream.type">video</property>
  <property name="meta.media.0.stream.frame_rate">24</property>
  <property name="meta.media.0.stream.sample_aspect_ratio">0</property>
  <property name="meta.media.0.codec.width">1920</property>
  <property name="meta.media.0.codec.height">1080</property>
  <property name="meta.media.0.codec.rotate">0</property>
  <property name="meta.media.0.codec.frame_rate">24</property>
  <property name="meta.media.0.codec.pix_fmt">yuv420p</property>
  <property name="meta.media.0.codec.sample_aspect_ratio">1</property>
  <property name="meta.media.0.codec.colorspace">709</property>
  <property name="meta.media.0.codec.name">h264</property>
  <property name="meta.media.0.codec.long_name">H.264 / AVC / MPEG-4 AVC / MPEG-4 part 10</property>
  <property name="meta.media.0.codec.bit_rate">44834270</property>
  <property name="meta.attr.0.stream.creation_time.markup">2012-11-19T20:57:21.000000Z</property>
  <property name="meta.attr.0.stream.language.markup">eng</property>
  <property name="meta.attr.0.stream.handler_name.markup">Mainconcept MP4 Video Media Handler</property>
  <property name="meta.attr.0.stream.encoder.markup">AVC Coding</property>
  <property name="meta.media.1.stream.type">audio</property>
  <property name="meta.media.1.codec.sample_fmt">fltp</property>
  <property name="meta.media.1.codec.sample_rate">48000</property>
  <property name="meta.media.1.codec.channels">2</property>
  <property name="meta.media.1.codec.name">aac</property>
  <property name="meta.media.1.codec.long_name">AAC (Advanced Audio Coding)</property>
  <property name="meta.media.1.codec.bit_rate">157375</property>
  <property name="meta.attr.1.stream.creation_time.markup">2012-11-19T20:57:21.000000Z</property>
  <property name="meta.attr.1.stream.language.markup">eng</property>
  <property name="meta.attr.1.stream.handler_name.markup">Mainconcept MP4 Sound Media Handler</property>
  <property name="meta.attr.major_brand.markup">mp42</property>
  <property name="meta.attr.minor_version.markup">0</property>
  <property name="meta.attr.compatible_brands.markup">mp42mp41</property>
  <property name="meta.attr.creation_time.markup">2012-11-19T20:57:21.000000Z</property>
  <property name="meta.media.sample_aspect_num">1</property>
  <property name="meta.media.sample_aspect_den">1</property>
  <property name="meta.media.frame_rate_num">24</property>
  <property name="meta.media.frame_rate_den">1</property>
  <property name="meta.media.colorspace">709</property>
  <property name="meta.media.color_trc">2</property>
  <property name="meta.media.width">1920</property>
  <property name="meta.media.height">1080</property>
  <property name="meta.media.color_range">mpeg</property>
  <property name="meta.media.top_field_first">0</property>
  <property name="meta.media.progressive">1</property>
  <property name="set.test_audio">1</property>
  <property name="set.test_image">0</property>
 </producer>
 <producer id="producer223" in="00:00:00.000" out="00:00:44.367">
  <property name="length">1331</property>
  <property name="eof">pause</property>
  <property name="resource">-2.534800:/home/ryankelln/.cache/kdenlive/proxy/e0b5afd66747a49eaaa9c7a5e80ef3ad.mkv</property>
  <property name="aspect_ratio">1</property>
  <property name="meta.media.nb_streams">1</property>
  <property name="meta.media.0.stream.type">video</property>
  <property name="meta.media.0.stream.frame_rate">24</property>
  <property name="meta.media.0.stream.sample_aspect_ratio">1</property>
  <property name="meta.media.0.codec.width">960</property>
  <property name="meta.media.0.codec.height">540</property>
  <property name="meta.media.0.codec.rotate">0</property>
  <property name="meta.media.0.codec.frame_rate">1000</property>
  <property name="meta.media.0.codec.pix_fmt">yuvj420p</property>
  <property name="meta.media.0.codec.sample_aspect_ratio">1</property>
  <property name="meta.media.0.codec.colorspace">601</property>
  <property name="meta.media.0.codec.name">mjpeg</property>
  <property name="meta.media.0.codec.long_name">MJPEG (Motion JPEG)</property>
  <property name="meta.media.0.codec.bit_rate">0</property>
  <property name="meta.attr.0.stream.HANDLER_NAME.markup">VideoHandler</property>
  <property name="meta.attr.0.stream.TIMECODE.markup">21:50:07:15</property>
  <property name="meta.attr.0.stream.ENCODER.markup">Lavc58.91.100 mjpeg</property>
  <property name="meta.attr.0.stream.DURATION.markup">00:01:52.542000000</property>
  <property name="meta.attr.MINOR_VERSION.markup">1</property>
  <property name="meta.attr.COMPATIBLE_BRANDS.markup">mp42avc1</property>
  <property name="meta.attr.MAJOR_BRAND.markup">mp42</property>
  <property name="meta.attr.ENCODER.markup">Lavf58.45.100</property>
  <property name="seekable">1</property>
  <property name="meta.media.sample_aspect_num">1</property>
  <property name="meta.media.sample_aspect_den">1</property>
  <property name="audio_index">-1</property>
  <property name="video_index">0</property>
  <property name="mute_on_pause">1</property>
  <property name="warp_speed">-2.5348</property>
  <property name="warp_resource">/home/ryankelln/.cache/kdenlive/proxy/e0b5afd66747a49eaaa9c7a5e80ef3ad.mkv</property>
  <property name="mlt_service">timewarp</property>
  <property name="kdenlive:proxy">/home/ryankelln/.cache/kdenlive/proxy/e0b5afd66747a49eaaa9c7a5e80ef3ad.mkv</property>
  <property name="kdenlive:originalurl">content/footage/2020-12-26_HighPark_water+trees+snow+ripples_2.MP4</property>
  <property name="set.test_audio">1</property>
  <property name="set.test_image">0</property>
  <property name="kdenlive:id">164</property>
  <property name="warp_pitch">0</property>
  <property name="meta.media.frame_rate_num">24</property>
  <property name="meta.media.frame_rate_den">1</property>
  <property name="meta.media.colorspace">601</property>
  <property name="meta.media.color_trc">2</property>
  <property name="meta.media.width">960</property>
  <property name="meta.media.height">540</property>
  <property name="meta.media.color_range">full</property>
  <property name="meta.media.top_field_first">0</property>
  <property name="meta.media.progressive">1</property>
 </producer>
 <producer id="producer224" in="00:00:00.000" out="00:00:17.533">
  <property name="length">527</property>
  <property name="eof">pause</property>
  <property name="resource">/home/ryankelln/Documents/Projects/Active/Sound_Escapes/Mac/footage/Drone Footage of Waves Rushing to the Shore - Copyright Free Reusable Stock Video HD-923JpepN7U4.mp4</property>
  <property name="audio_index">1</property>
  <property name="video_index">0</property>
  <property name="mute_on_pause">0</property>
  <property name="mlt_service">avformat-novalidate</property>
  <property name="seekable">1</property>
  <property name="aspect_ratio">1</property>
  <property name="kdenlive:clipname"/>
  <property name="kdenlive:folderid">-1</property>
  <property name="kdenlive:id">27</property>
  <property name="kdenlive:file_size">10528370</property>
  <property name="kdenlive:file_hash">a6db6e9a56c67bc34e9222b1f2f66552</property>
  <property name="kdenlive:audio_max">91</property>
  <property name="global_feed">1</property>
  <property name="xml">was here</property>
  <property name="meta.media.nb_streams">2</property>
  <property name="meta.media.0.stream.type">video</property>
  <property name="meta.media.0.stream.frame_rate">29.97</property>
  <property name="meta.media.0.stream.sample_aspect_ratio">1</property>
  <property name="meta.media.0.codec.width">1920</property>
  <property name="meta.media.0.codec.height">1080</property>
  <property name="meta.media.0.codec.rotate">0</property>
  <property name="meta.media.0.codec.frame_rate">29.97</property>
  <property name="meta.media.0.codec.pix_fmt">yuv420p</property>
  <property name="meta.media.0.codec.sample_aspect_ratio">1</property>
  <property name="meta.media.0.codec.colorspace">709</property>
  <property name="meta.media.0.codec.color_trc">1</property>
  <property name="meta.media.0.codec.name">h264</property>
  <property name="meta.media.0.codec.long_name">H.264 / AVC / MPEG-4 AVC / MPEG-4 part 10</property>
  <property name="meta.media.0.codec.bit_rate">4671311</property>
  <property name="meta.attr.0.stream.handler_name.markup">ISO Media file produced by Google Inc.</property>
  <property name="meta.attr.0.stream.vendor_id.markup">[0][0][0][0]</property>
  <property name="meta.media.1.stream.type">audio</property>
  <property name="meta.media.1.codec.sample_fmt">fltp</property>
  <property name="meta.media.1.codec.sample_rate">44100</property>
  <property name="meta.media.1.codec.channels">2</property>
  <property name="meta.media.1.codec.name">aac</property>
  <property name="meta.media.1.codec.long_name">AAC (Advanced Audio Coding)</property>
  <property name="meta.media.1.codec.bit_rate">127999</property>
  <property name="meta.attr.1.stream.handler_name.markup">ISO Media file produced by Google Inc.</property>
  <property name="meta.attr.1.stream.vendor_id.markup">[0][0][0][0]</property>
  <property name="meta.attr.major_brand.markup">isom</property>
  <property name="meta.attr.minor_version.markup">512</property>
  <property name="meta.attr.compatible_brands.markup">isomiso2avc1mp41</property>
  <property name="meta.attr.encoder.markup">Lavf58.45.100</property>
  <property name="meta.media.sample_aspect_num">1</property>
  <property name="meta.media.sample_aspect_den">1</property>
  <property name="meta.media.frame_rate_num">30000</property>
  <property name="meta.media.frame_rate_den">1001</property>
  <property name="meta.media.colorspace">709</property>
  <property name="meta.media.color_trc">1</property>
  <property name="meta.media.width">1920</property>
  <property name="meta.media.height">1080</property>
  <property name="meta.media.color_range">mpeg</property>
  <property name="meta.media.top_field_first">0</property>
  <property name="meta.media.progressive">1</property>
  <property name="set.test_audio">1</property>
  <property name="set.test_image">0</property>
 </producer>
 <producer id="producer225" in="00:00:00.000" out="00:01:29.700">
  <property name="length">2692</property>
  <property name="eof">pause</property>
  <property name="resource">-0.500000:/home/ryankelln/Documents/Projects/Active/Sound_Escapes/Mac/footage/Cell through Microscope Free Footage Clip-_Rww1olT3HA.mkv</property>
  <property name="aspect_ratio">1</property>
  <property name="meta.media.nb_streams">2</property>
  <property name="meta.media.0.stream.type">video</property>
  <property name="meta.media.0.stream.frame_rate">30</property>
  <property name="meta.media.0.stream.sample_aspect_ratio">1</property>
  <property name="meta.media.0.codec.width">1280</property>
  <property name="meta.media.0.codec.height">720</property>
  <property name="meta.media.0.codec.rotate">0</property>
  <property name="meta.media.0.codec.frame_rate">1000</property>
  <property name="meta.media.0.codec.pix_fmt">yuv420p</property>
  <property name="meta.media.0.codec.sample_aspect_ratio">0</property>
  <property name="meta.media.0.codec.colorspace">709</property>
  <property name="meta.media.0.codec.name">vp9</property>
  <property name="meta.media.0.codec.long_name">Google VP9</property>
  <property name="meta.media.0.codec.bit_rate">0</property>
  <property name="meta.attr.0.stream.language.markup">eng</property>
  <property name="meta.attr.0.stream.DURATION.markup">00:00:44.800000000</property>
  <property name="meta.media.1.stream.type">audio</property>
  <property name="meta.media.1.codec.sample_fmt">fltp</property>
  <property name="meta.media.1.codec.sample_rate">44100</property>
  <property name="meta.media.1.codec.channels">2</property>
  <property name="meta.media.1.codec.name">aac</property>
  <property name="meta.media.1.codec.long_name">AAC (Advanced Audio Coding)</property>
  <property name="meta.media.1.codec.bit_rate">0</property>
  <property name="meta.attr.1.stream.language.markup">eng</property>
  <property name="meta.attr.1.stream.HANDLER_NAME.markup">ISO Media file produced by Google Inc.</property>
  <property name="meta.attr.1.stream.DURATION.markup">00:00:44.861000000</property>
  <property name="meta.attr.HTTP://YOUTUBE.COM/STREAMING/OTF/DURATIONS/112015.markup">Segment-Count: 9&#xd;
Segment-Durations-Ms: 5333,5334,5333(r=1),5334,5333(r=1),5334,2133,&#xd;
&#xd;
</property>
  <property name="meta.attr.ENCODER.markup">Lavf58.45.100</property>
  <property name="seekable">1</property>
  <property name="meta.media.sample_aspect_num">1</property>
  <property name="meta.media.sample_aspect_den">1</property>
  <property name="audio_index">1</property>
  <property name="video_index">0</property>
  <property name="mute_on_pause">1</property>
  <property name="warp_speed">-0.5</property>
  <property name="warp_resource">/home/ryankelln/Documents/Projects/Active/Sound_Escapes/Mac/footage/Cell through Microscope Free Footage Clip-_Rww1olT3HA.mkv</property>
  <property name="mlt_service">timewarp</property>
  <property name="set.test_audio">1</property>
  <property name="set.test_image">0</property>
  <property name="kdenlive:id">29</property>
  <property name="warp_pitch">0</property>
  <property name="meta.media.frame_rate_num">30</property>
  <property name="meta.media.frame_rate_den">1</property>
  <property name="meta.media.colorspace">709</property>
  <property name="meta.media.color_trc">2</property>
  <property name="meta.media.width">1280</property>
  <property name="meta.media.height">720</property>
  <property name="meta.media.color_range">mpeg</property>
  <property name="meta.media.top_field_first">0</property>
  <property name="meta.media.progressive">1</property>
 </producer>
 <playlist id="playlist8">
  <blank length="00:00:07.000"/>
  <entry producer="producer201" in="00:01:28.900" out="00:01:59.167">
   <property name="kdenlive:id">89</property>
   <filter id="filter141">
    <property name="rotate_center">1</property>
    <property name="mlt_service">qtblend</property>
    <property name="kdenlive_id">qtblend</property>
    <property name="rect">00:01:28.900~=-10198 -1197 19200 10800 0.000000;00:01:28.933=-2539 -853 6144 3456 1.000000;00:01:59.100=-128 -96 2121 1193 1.000000;00:01:59.167=-111 -57 2112 1188 1.000000</property>
    <property name="rotation">00:01:28.900~=0;00:01:28.933=0;00:01:59.100=0;00:01:59.167=0</property>
    <property name="compositing">0</property>
    <property name="distort">0</property>
    <property name="kdenlive:collapsed">0</property>
   </filter>
  </entry>
  <entry producer="producer201" in="00:02:08.233" out="00:02:11.400">
   <property name="kdenlive:id">89</property>
  </entry>
  <entry producer="producer201" in="00:02:05.367" out="00:02:06.200">
   <property name="kdenlive:id">89</property>
  </entry>
  <entry producer="producer201" in="00:02:06.700" out="00:02:11.633">
   <property name="kdenlive:id">89</property>
  </entry>
  <entry producer="producer202" in="00:01:05.600" out="00:01:06.600">
   <property name="kdenlive:id">89</property>
  </entry>
  <entry producer="producer201" in="00:02:13.300" out="00:02:23.500">
   <property name="kdenlive:id">89</property>
  </entry>
  <entry producer="producer203" in="00:00:00.000" out="00:00:04.267">
   <property name="kdenlive:id">89</property>
  </entry>
  <entry producer="producer204" in="00:00:01.433" out="00:00:02.333">
   <property name="kdenlive:id">89</property>
  </entry>
  <entry producer="producer205" in="00:00:07.100" out="00:00:12.333">
   <property name="kdenlive:id">89</property>
  </entry>
  <entry producer="producer201" in="00:00:11.000" out="00:00:11.867">
   <property name="kdenlive:id">89</property>
  </entry>
  <entry producer="producer201" in="00:00:12.333" out="00:00:13.300">
   <property name="kdenlive:id">89</property>
  </entry>
  <entry producer="producer201" in="00:00:13.800" out="00:00:14.833">
   <property name="kdenlive:id">89</property>
  </entry>
  <entry producer="producer201" in="00:00:15.900" out="00:00:16.667">
   <property name="kdenlive:id">89</property>
  </entry>
  <entry producer="producer206" in="00:01:03.400" out="00:01:03.767">
   <property name="kdenlive:id">89</property>
  </entry>
  <entry producer="producer201" in="00:00:15.900" out="00:00:16.100">
   <property name="kdenlive:id">89</property>
  </entry>
  <entry producer="producer207" in="00:01:03.700" out="00:01:04.700">
   <property name="kdenlive:id">89</property>
  </entry>
  <entry producer="producer208" in="00:00:07.000" out="00:00:07.800">
   <property name="kdenlive:id">89</property>
  </entry>
  <entry producer="producer209" in="00:00:08.200" out="00:00:08.733">
   <property name="kdenlive:id">89</property>
  </entry>
  <entry producer="producer210" in="00:00:09.200" out="00:00:09.900">
   <property name="kdenlive:id">89</property>
  </entry>
  <entry producer="producer211" in="00:00:02.833" out="00:00:04.033">
   <property name="kdenlive:id">89</property>
  </entry>
  <entry producer="producer201" in="00:00:21.867" out="00:00:22.100">
   <property name="kdenlive:id">89</property>
  </entry>
  <entry producer="producer201" in="00:00:22.400" out="00:00:22.633">
   <property name="kdenlive:id">89</property>
  </entry>
  <entry producer="producer201" in="00:00:22.933" out="00:00:23.167">
   <property name="kdenlive:id">89</property>
  </entry>
  <entry producer="producer201" in="00:00:23.467" out="00:00:23.733">
   <property name="kdenlive:id">89</property>
  </entry>
  <entry producer="producer201" in="00:00:24.100" out="00:00:24.433">
   <property name="kdenlive:id">89</property>
  </entry>
  <entry producer="producer201" in="00:00:24.900" out="00:00:25.333">
   <property name="kdenlive:id">89</property>
  </entry>
  <entry producer="producer201" in="00:00:25.500" out="00:00:25.933">
   <property name="kdenlive:id">89</property>
  </entry>
  <entry producer="producer201" in="00:00:25.500" out="00:00:25.933">
   <property name="kdenlive:id">89</property>
  </entry>
  <entry producer="producer201" in="00:00:25.500" out="00:00:25.600">
   <property name="kdenlive:id">89</property>
  </entry>
  <entry producer="producer201" in="00:00:25.767" out="00:00:25.900">
   <property name="kdenlive:id">89</property>
  </entry>
  <entry producer="producer201" in="00:00:26.100" out="00:00:26.233">
   <property name="kdenlive:id">89</property>
  </entry>
  <entry producer="producer212" in="00:00:58.300" out="00:00:58.867">
   <property name="kdenlive:id">89</property>
  </entry>
  <entry producer="producer213" in="00:00:06.467" out="00:00:07.133">
   <property name="kdenlive:id">89</property>
  </entry>
  <entry producer="producer201" in="00:00:42.700" out="00:00:43.667">
   <property name="kdenlive:id">89</property>
  </entry>
  <entry producer="producer214" in="00:01:07.100" out="00:01:24.267">
   <property name="kdenlive:id">93</property>
  </entry>
  <entry producer="producer215" in="00:00:59.200" out="00:01:00.133">
   <property name="kdenlive:id">93</property>
  </entry>
  <entry producer="producer216" in="00:00:55.667" out="00:00:59.100">
   <property name="kdenlive:id">93</property>
  </entry>
  <entry producer="producer217" in="00:00:44.333" out="00:00:45.667">
   <property name="kdenlive:id">93</property>
   <filter id="filter142">
    <property name="rotate_center">1</property>
    <property name="mlt_service">qtblend</property>
    <property name="kdenlive_id">qtblend</property>
    <property name="rect">00:00:44.333=0 0 1920 1080 1.000000;00:00:45.667=-288 -162 2496 1404 1.000000</property>
    <property name="rotation">00:00:44.333=0;00:00:45.667=0</property>
    <property name="compositing">0</property>
    <property name="distort">0</property>
    <property name="kdenlive:collapsed">0</property>
   </filter>
  </entry>
  <blank length="00:00:09.867"/>
  <entry producer="producer218" in="00:00:00.000" out="00:00:09.400">
   <property name="kdenlive:id">97</property>
   <filter id="filter146">
    <property name="rotate_center">1</property>
    <property name="mlt_service">qtblend</property>
    <property name="kdenlive_id">qtblend</property>
    <property name="rect">00:00:00.000=-11 -124 1440 810 1.000000;00:00:09.400=-155 -205 1728 972 1.000000</property>
    <property name="rotation">00:00:00.000=0;00:00:09.400=0</property>
    <property name="compositing">0</property>
    <property name="distort">0</property>
    <property name="kdenlive:collapsed">0</property>
   </filter>
   <filter id="filter147">
    <property name="mlt_service">invert</property>
    <property name="kdenlive_id">invert</property>
    <property name="kdenlive:collapsed">0</property>
   </filter>
   <filter id="filter148" in="00:00:08.033" out="00:00:09.400">
    <property name="start">1</property>
    <property name="mlt_service">brightness</property>
    <property name="kdenlive_id">fade_to_black</property>
    <property name="end">0</property>
    <property name="alpha">-1</property>
    <property name="kdenlive:collapsed">0</property>
   </filter>
   <filter id="filter143" out="00:00:01.100">
    <property name="start">0</property>
    <property name="mlt_service">brightness</property>
    <property name="kdenlive_id">fade_from_black</property>
    <property name="end">1</property>
    <property name="alpha">-1</property>
    <property name="kdenlive:collapsed">0</property>
   </filter>
   <filter id="filter144">
    <property name="version">0.1</property>
    <property name="mlt_service">frei0r.colorize</property>
    <property name="kdenlive_id">frei0r.colorize</property>
    <property name="hue">00:00:00.000=0</property>
    <property name="saturation">00:00:00.000=0.886111</property>
    <property name="lightness">00:00:00.000=0.5</property>
    <property name="kdenlive:collapsed">0</property>
   </filter>
  </entry>
  <entry producer="producer219" in="00:00:25.733" out="00:00:29.967">
   <property name="kdenlive:id">94</property>
   <filter id="filter145">
    <property name="version">0.1</property>
    <property name="mlt_service">frei0r.mask0mate</property>
    <property name="kdenlive_id">frei0r.mask0mate</property>
    <property name="Left">00:00:25.733=0</property>
    <property name="Right">00:00:25.733=0</property>
    <property name="Top">00:00:25.733=0</property>
    <property name="Bottom">00:00:25.733=0.059</property>
    <property name="Invert">1</property>
    <property name="Blur">00:00:25.733=0.08</property>
    <property name="kdenlive:collapsed">0</property>
   </filter>
   <filter id="filter149">
    <property name="rotate_center">1</property>
    <property name="mlt_service">qtblend</property>
    <property name="kdenlive_id">qtblend</property>
    <property name="rect">00:00:25.733=0 -171 1920 1080 1.000000</property>
    <property name="rotation">00:00:25.733=0</property>
    <property name="compositing">0</property>
    <property name="distort">0</property>
    <property name="kdenlive:collapsed">0</property>
   </filter>
   <filter id="filter150">
    <property name="version">1</property>
    <property name="mlt_service">frei0r.pixeliz0r</property>
    <property name="kdenlive_id">frei0r.pixeliz0r</property>
    <property name="BlockSizeX">00:00:25.733=0.001;00:00:27.767=0.04;00:00:29.933=</property>
    <property name="BlockSizeY">00:00:25.733=0.001;00:00:27.767=0.06;00:00:29.933=</property>
    <property name="kdenlive:collapsed">0</property>
   </filter>
  </entry>
  <blank length="00:01:32.533"/>
  <entry producer="producer220" in="00:00:02.300" out="00:00:07.600">
   <property name="kdenlive:id">66</property>
  </entry>
  <blank length="00:01:27.233"/>
  <entry producer="producer221" in="00:00:00.000" out="00:01:02.900">
   <property name="kdenlive:id">145</property>
   <filter id="filter151">
    <property name="rotate_center">1</property>
    <property name="mlt_service">qtblend</property>
    <property name="kdenlive_id">qtblend</property>
    <property name="rect">00:00:00.000=-419 0 1920 1080 1.000000</property>
    <property name="rotation">00:00:00.000=0</property>
    <property name="compositing">0</property>
    <property name="distort">0</property>
    <property name="kdenlive:collapsed">0</property>
   </filter>
   <filter id="filter152">
    <property name="mirror">horizontal</property>
    <property name="mlt_service">mirror</property>
    <property name="kdenlive_id">mirror</property>
    <property name="reverse">1</property>
    <property name="kdenlive:collapsed">0</property>
   </filter>
  </entry>
  <entry producer="producer222" in="00:00:01.700" out="00:00:07.467">
   <property name="kdenlive:id">150</property>
   <filter id="filter140">
    <property name="mlt_service">avfilter.hflip</property>
    <property name="kdenlive_id">avfilter.hflip</property>
    <property name="kdenlive:collapsed">0</property>
   </filter>
  </entry>
  <entry producer="producer222" in="00:00:07.500" out="00:00:25.933">
   <property name="kdenlive:id">150</property>
   <filter id="filter153">
    <property name="mlt_service">avfilter.hflip</property>
    <property name="kdenlive_id">avfilter.hflip</property>
    <property name="kdenlive:collapsed">0</property>
   </filter>
  </entry>
  <entry producer="producer223" in="00:00:04.700" out="00:00:42.067">
   <property name="kdenlive:id">164</property>
   <property name="kdenlive:activeeffect">0</property>
   <filter id="filter154">
    <property name="lift">00:00:04.700=0;00:00:34.433=0;00:00:42.067=0.5</property>
    <property name="gain">00:00:04.700=0;00:00:34.433=0;00:00:42.067=0.297</property>
    <property name="gamma">00:00:04.700=0;00:00:34.433=0;00:00:42.067=-0.277</property>
    <property name="mlt_service">lumaliftgaingamma</property>
    <property name="kdenlive_id">lumaliftgaingamma</property>
    <property name="kdenlive:collapsed">0</property>
   </filter>
  </entry>
  <blank length="00:03:19.467"/>
  <entry producer="producer224" in="00:00:00.000" out="00:00:17.533">
   <property name="kdenlive:id">27</property>
   <filter id="filter155" out="00:00:02.933">
    <property name="start">0</property>
    <property name="mlt_service">brightness</property>
    <property name="kdenlive_id">fade_from_black</property>
    <property name="end">1</property>
    <property name="alpha">-1</property>
    <property name="kdenlive:collapsed">0</property>
   </filter>
  </entry>
  <entry producer="producer224" in="00:00:00.000" out="00:00:17.533">
   <property name="kdenlive:id">27</property>
   <filter id="filter156" in="00:00:16.500" out="00:00:17.533">
    <property name="start">1</property>
    <property name="mlt_service">brightness</property>
    <property name="kdenlive_id">fade_to_black</property>
    <property name="end">0</property>
    <property name="alpha">-1</property>
   </filter>
  </entry>
  <blank length="00:02:49.433"/>
  <entry producer="producer225" in="00:00:15.367" out="00:00:31.233">
   <property name="kdenlive:id">29</property>
   <property name="kdenlive:activeeffect">2</property>
   <filter id="filter157" in="00:00:15.367" out="00:00:18.067">
    <property name="start">0</property>
    <property name="mlt_service">brightness</property>
    <property name="kdenlive_id">fade_from_black</property>
    <property name="end">1</property>
    <property name="alpha">-1</property>
    <property name="kdenlive:collapsed">0</property>
   </filter>
   <filter id="filter158" in="00:00:19.533" out="00:00:31.233">
    <property name="start">1</property>
    <property name="mlt_service">brightness</property>
    <property name="kdenlive_id">fade_to_black</property>
    <property name="end">0</property>
    <property name="alpha">-1</property>
    <property name="kdenlive:collapsed">0</property>
   </filter>
   <filter id="filter159">
    <property name="rotate_center">1</property>
    <property name="mlt_service">qtblend</property>
    <property name="kdenlive_id">qtblend</property>
    <property name="rect">00:00:12.800=-316 -177 2553 1436 1.000000</property>
    <property name="rotation">00:00:12.800=0</property>
    <property name="compositing">0</property>
    <property name="distort">0</property>
    <property name="kdenlive:collapsed">0</property>
   </filter>
  </entry>
  <blank length="00:00:42.267"/>
  <entry producer="producer46" in="00:00:00.000" out="00:00:04.967">
   <property name="kdenlive:id">87</property>
  </entry>
  <blank length="00:00:01.000"/>
  <entry producer="producer51" in="00:00:00.000" out="00:00:04.967">
   <property name="kdenlive:id">86</property>
  </entry>
  <blank length="00:00:01.000"/>
  <entry producer="producer7" in="00:00:00.000" out="00:00:04.967">
   <property name="kdenlive:id">71</property>
   <filter id="filter160">
    <property name="rotate_center">1</property>
    <property name="mlt_service">qtblend</property>
    <property name="kdenlive_id">qtblend</property>
    <property name="rect">00:00:00.000=420 -238 1080 1921 1.000000</property>
    <property name="rotation">00:00:00.000=0</property>
    <property name="compositing">0</property>
    <property name="distort">0</property>
    <property name="kdenlive:collapsed">0</property>
   </filter>
  </entry>
  <blank length="00:00:01.000"/>
  <entry producer="producer6" in="00:00:00.000" out="00:00:04.967">
   <property name="kdenlive:id">70</property>
   <filter id="filter161">
    <property name="rotate_center">1</property>
    <property name="mlt_service">qtblend</property>
    <property name="kdenlive_id">qtblend</property>
    <property name="rect">00:00:00.000=420 -180 1080 1440 1.000000</property>
    <property name="rotation">00:00:00.000=0</property>
    <property name="compositing">0</property>
    <property name="distort">0</property>
    <property name="kdenlive:collapsed">0</property>
   </filter>
  </entry>
  <blank length="00:00:01.000"/>
  <entry producer="producer12" in="00:00:00.000" out="00:00:04.967">
   <property name="kdenlive:id">76</property>
  </entry>
  <blank length="00:00:01.000"/>
  <entry producer="producer17" in="00:00:00.000" out="00:00:04.967">
   <property name="kdenlive:id">83</property>
  </entry>
  <blank length="00:00:01.000"/>
  <entry producer="producer8" in="00:00:00.000" out="00:00:04.967">
   <property name="kdenlive:id">72</property>
  </entry>
  <blank length="00:00:01.000"/>
  <entry producer="producer15" in="00:00:00.000" out="00:00:04.967">
   <property name="kdenlive:id">79</property>
  </entry>
  <blank length="00:00:01.000"/>
  <entry producer="producer10" in="00:00:00.000" out="00:00:04.967">
   <property name="kdenlive:id">74</property>
  </entry>
  <blank length="00:00:15.000"/>
  <entry producer="producer91" in="00:00:00.000" out="00:00:04.967">
   <property name="kdenlive:id">98</property>
   <filter id="filter162">
    <property name="mlt_service">avfilter.unsharp</property>
    <property name="kdenlive_id">avfilter.unsharp</property>
    <property name="av.lx">5</property>
    <property name="av.ly">5</property>
    <property name="av.la">1.752</property>
    <property name="av.cx">5</property>
    <property name="av.cy">5</property>
    <property name="av.ca">1.75</property>
    <property name="kdenlive:collapsed">0</property>
    <property name="disable">0</property>
   </filter>
  </entry>
  <blank length="00:00:01.000"/>
  <entry producer="producer92" in="00:00:00.000" out="00:00:04.967">
   <property name="kdenlive:id">99</property>
   <filter id="filter163">
    <property name="mlt_service">avfilter.unsharp</property>
    <property name="kdenlive_id">avfilter.unsharp</property>
    <property name="av.lx">5</property>
    <property name="av.ly">5</property>
    <property name="av.la">1.752</property>
    <property name="av.cx">5</property>
    <property name="av.cy">5</property>
    <property name="av.ca">1.75</property>
    <property name="kdenlive:collapsed">0</property>
   </filter>
  </entry>
  <blank length="00:00:01.000"/>
  <entry producer="producer98" in="00:00:00.000" out="00:00:04.967">
   <property name="kdenlive:id">106</property>
   <filter id="filter164">
    <property name="mlt_service">avfilter.unsharp</property>
    <property name="kdenlive_id">avfilter.unsharp</property>
    <property name="av.lx">5</property>
    <property name="av.ly">5</property>
    <property name="av.la">1.752</property>
    <property name="av.cx">5</property>
    <property name="av.cy">5</property>
    <property name="av.ca">1.75</property>
   </filter>
  </entry>
  <blank length="00:00:01.000"/>
  <entry producer="producer95" in="00:00:00.000" out="00:00:04.967">
   <property name="kdenlive:id">103</property>
   <filter id="filter165">
    <property name="mlt_service">avfilter.unsharp</property>
    <property name="kdenlive_id">avfilter.unsharp</property>
    <property name="av.lx">5</property>
    <property name="av.ly">5</property>
    <property name="av.la">1.752</property>
    <property name="av.cx">5</property>
    <property name="av.cy">5</property>
    <property name="av.ca">1.75</property>
    <property name="kdenlive:collapsed">0</property>
   </filter>
  </entry>
  <blank length="00:00:01.000"/>
  <entry producer="producer104" in="00:00:00.000" out="00:00:04.967">
   <property name="kdenlive:id">113</property>
   <filter id="filter166">
    <property name="mlt_service">avfilter.unsharp</property>
    <property name="kdenlive_id">avfilter.unsharp</property>
    <property name="av.lx">5</property>
    <property name="av.ly">5</property>
    <property name="av.la">1.752</property>
    <property name="av.cx">5</property>
    <property name="av.cy">5</property>
    <property name="av.ca">1.75</property>
   </filter>
  </entry>
  <blank length="00:00:01.000"/>
  <entry producer="producer106" in="00:00:00.000" out="00:00:04.967">
   <property name="kdenlive:id">115</property>
   <filter id="filter167">
    <property name="mlt_service">avfilter.unsharp</property>
    <property name="kdenlive_id">avfilter.unsharp</property>
    <property name="av.lx">5</property>
    <property name="av.ly">5</property>
    <property name="av.la">1.752</property>
    <property name="av.cx">5</property>
    <property name="av.cy">5</property>
    <property name="av.ca">1.75</property>
   </filter>
  </entry>
  <blank length="00:00:01.000"/>
  <entry producer="producer112" in="00:00:00.000" out="00:00:04.967">
   <property name="kdenlive:id">121</property>
   <filter id="filter168">
    <property name="mlt_service">avfilter.unsharp</property>
    <property name="kdenlive_id">avfilter.unsharp</property>
    <property name="av.lx">5</property>
    <property name="av.ly">5</property>
    <property name="av.la">1.752</property>
    <property name="av.cx">5</property>
    <property name="av.cy">5</property>
    <property name="av.ca">1.75</property>
   </filter>
  </entry>
  <blank length="00:00:01.000"/>
  <entry producer="producer118" in="00:00:00.000" out="00:00:04.967">
   <property name="kdenlive:id">127</property>
   <filter id="filter169">
    <property name="mlt_service">avfilter.unsharp</property>
    <property name="kdenlive_id">avfilter.unsharp</property>
    <property name="av.lx">5</property>
    <property name="av.ly">5</property>
    <property name="av.la">1.752</property>
    <property name="av.cx">5</property>
    <property name="av.cy">5</property>
    <property name="av.ca">1.75</property>
   </filter>
  </entry>
  <blank length="00:00:01.000"/>
  <entry producer="producer110" in="00:00:00.000" out="00:00:04.967">
   <property name="kdenlive:id">119</property>
   <filter id="filter170">
    <property name="mlt_service">avfilter.unsharp</property>
    <property name="kdenlive_id">avfilter.unsharp</property>
    <property name="av.lx">5</property>
    <property name="av.ly">5</property>
    <property name="av.la">1.752</property>
    <property name="av.cx">5</property>
    <property name="av.cy">5</property>
    <property name="av.ca">1.75</property>
   </filter>
  </entry>
  <blank length="00:00:01.000"/>
  <entry producer="producer111" in="00:00:00.000" out="00:00:04.967">
   <property name="kdenlive:id">120</property>
   <filter id="filter171">
    <property name="mlt_service">avfilter.unsharp</property>
    <property name="kdenlive_id">avfilter.unsharp</property>
    <property name="av.lx">5</property>
    <property name="av.ly">5</property>
    <property name="av.la">1.752</property>
    <property name="av.cx">5</property>
    <property name="av.cy">5</property>
    <property name="av.ca">1.75</property>
   </filter>
  </entry>
  <blank length="00:00:01.000"/>
  <entry producer="producer114" in="00:00:00.000" out="00:00:04.967">
   <property name="kdenlive:id">123</property>
   <filter id="filter172">
    <property name="mlt_service">avfilter.unsharp</property>
    <property name="kdenlive_id">avfilter.unsharp</property>
    <property name="av.lx">5</property>
    <property name="av.ly">5</property>
    <property name="av.la">1.752</property>
    <property name="av.cx">5</property>
    <property name="av.cy">5</property>
    <property name="av.ca">1.75</property>
   </filter>
  </entry>
  <blank length="00:00:01.000"/>
  <entry producer="producer100" in="00:00:00.000" out="00:00:04.967">
   <property name="kdenlive:id">109</property>
   <filter id="filter173">
    <property name="mlt_service">avfilter.unsharp</property>
    <property name="kdenlive_id">avfilter.unsharp</property>
    <property name="av.lx">5</property>
    <property name="av.ly">5</property>
    <property name="av.la">1.752</property>
    <property name="av.cx">5</property>
    <property name="av.cy">5</property>
    <property name="av.ca">1.75</property>
   </filter>
  </entry>
  <blank length="00:00:01.000"/>
  <entry producer="producer117" in="00:00:00.000" out="00:00:04.967">
   <property name="kdenlive:id">126</property>
   <filter id="filter174">
    <property name="mlt_service">avfilter.unsharp</property>
    <property name="kdenlive_id">avfilter.unsharp</property>
    <property name="av.lx">5</property>
    <property name="av.ly">5</property>
    <property name="av.la">1.752</property>
    <property name="av.cx">5</property>
    <property name="av.cy">5</property>
    <property name="av.ca">1.75</property>
   </filter>
  </entry>
  <blank length="00:00:01.000"/>
  <entry producer="producer121" in="00:00:00.000" out="00:00:04.967">
   <property name="kdenlive:id">130</property>
   <filter id="filter175">
    <property name="mlt_service">avfilter.unsharp</property>
    <property name="kdenlive_id">avfilter.unsharp</property>
    <property name="av.lx">5</property>
    <property name="av.ly">5</property>
    <property name="av.la">1.752</property>
    <property name="av.cx">5</property>
    <property name="av.cy">5</property>
    <property name="av.ca">1.75</property>
   </filter>
  </entry>
  <blank length="00:00:01.000"/>
  <entry producer="producer93" in="00:00:00.000" out="00:00:04.967">
   <property name="kdenlive:id">100</property>
   <filter id="filter176">
    <property name="mlt_service">avfilter.unsharp</property>
    <property name="kdenlive_id">avfilter.unsharp</property>
    <property name="av.lx">5</property>
    <property name="av.ly">5</property>
    <property name="av.la">1.752</property>
    <property name="av.cx">5</property>
    <property name="av.cy">5</property>
    <property name="av.ca">1.75</property>
   </filter>
  </entry>
  <blank length="00:00:01.000"/>
  <entry producer="producer131" in="00:00:00.000" out="00:00:04.967">
   <property name="kdenlive:id">140</property>
   <filter id="filter177">
    <property name="mlt_service">avfilter.unsharp</property>
    <property name="kdenlive_id">avfilter.unsharp</property>
    <property name="av.lx">5</property>
    <property name="av.ly">5</property>
    <property name="av.la">1.752</property>
    <property name="av.cx">5</property>
    <property name="av.cy">5</property>
    <property name="av.ca">1.75</property>
   </filter>
  </entry>
  <blank length="00:00:01.000"/>
  <entry producer="producer128" in="00:00:00.000" out="00:00:04.967">
   <property name="kdenlive:id">137</property>
   <filter id="filter178">
    <property name="mlt_service">avfilter.unsharp</property>
    <property name="kdenlive_id">avfilter.unsharp</property>
    <property name="av.lx">5</property>
    <property name="av.ly">5</property>
    <property name="av.la">1.752</property>
    <property name="av.cx">5</property>
    <property name="av.cy">5</property>
    <property name="av.ca">1.75</property>
   </filter>
  </entry>
  <blank length="00:00:01.000"/>
  <entry producer="producer120" in="00:00:00.000" out="00:00:04.967">
   <property name="kdenlive:id">129</property>
   <filter id="filter179">
    <property name="mlt_service">avfilter.unsharp</property>
    <property name="kdenlive_id">avfilter.unsharp</property>
    <property name="av.lx">5</property>
    <property name="av.ly">5</property>
    <property name="av.la">1.752</property>
    <property name="av.cx">5</property>
    <property name="av.cy">5</property>
    <property name="av.ca">1.75</property>
   </filter>
  </entry>
  <blank length="00:00:01.000"/>
  <entry producer="producer132" in="00:00:00.000" out="00:00:04.967">
   <property name="kdenlive:id">141</property>
   <filter id="filter180">
    <property name="mlt_service">avfilter.unsharp</property>
    <property name="kdenlive_id">avfilter.unsharp</property>
    <property name="av.lx">5</property>
    <property name="av.ly">5</property>
    <property name="av.la">1.752</property>
    <property name="av.cx">5</property>
    <property name="av.cy">5</property>
    <property name="av.ca">1.75</property>
   </filter>
  </entry>
  <blank length="00:00:01.000"/>
  <entry producer="producer122" in="00:00:00.000" out="00:00:04.967">
   <property name="kdenlive:id">131</property>
   <filter id="filter181">
    <property name="mlt_service">avfilter.unsharp</property>
    <property name="kdenlive_id">avfilter.unsharp</property>
    <property name="av.lx">5</property>
    <property name="av.ly">5</property>
    <property name="av.la">1.752</property>
    <property name="av.cx">5</property>
    <property name="av.cy">5</property>
    <property name="av.ca">1.75</property>
   </filter>
  </entry>
  <blank length="00:00:01.000"/>
  <entry producer="producer123" in="00:00:00.000" out="00:00:04.967">
   <property name="kdenlive:id">132</property>
   <filter id="filter182">
    <property name="mlt_service">avfilter.unsharp</property>
    <property name="kdenlive_id">avfilter.unsharp</property>
    <property name="av.lx">5</property>
    <property name="av.ly">5</property>
    <property name="av.la">1.752</property>
    <property name="av.cx">5</property>
    <property name="av.cy">5</property>
    <property name="av.ca">1.75</property>
   </filter>
  </entry>
  <blank length="00:00:01.000"/>
  <entry producer="producer126" in="00:00:00.000" out="00:00:04.967">
   <property name="kdenlive:id">135</property>
   <filter id="filter183">
    <property name="mlt_service">avfilter.unsharp</property>
    <property name="kdenlive_id">avfilter.unsharp</property>
    <property name="av.lx">5</property>
    <property name="av.ly">5</property>
    <property name="av.la">1.752</property>
    <property name="av.cx">5</property>
    <property name="av.cy">5</property>
    <property name="av.ca">1.75</property>
   </filter>
  </entry>
 </playlist>
 <playlist id="playlist9"/>
 <tractor id="tractor4" in="00:00:00.000" out="00:18:19.967">
  <property name="kdenlive:trackheight">69</property>
  <property name="kdenlive:timeline_active">1</property>
  <property name="kdenlive:collapsed">0</property>
  <property name="kdenlive:track_name">Video 2</property>
  <property name="kdenlive:thumbs_format"/>
  <property name="kdenlive:audio_rec"/>
  <track hide="audio" producer="playlist8"/>
  <track producer="playlist9"/>
 </tractor>
 <producer id="producer226" in="00:00:00.000" out="00:01:14.500">
  <property name="length">2236</property>
  <property name="eof">pause</property>
  <property name="resource">/home/ryankelln/.cache/kdenlive/proxy/fdc3c27b0d2d27ebd69b464f9b05f055.mkv</property>
  <property name="audio_index">-1</property>
  <property name="video_index">0</property>
  <property name="mute_on_pause">0</property>
  <property name="mlt_service">avformat-novalidate</property>
  <property name="seekable">1</property>
  <property name="aspect_ratio">1</property>
  <property name="kdenlive:clipname">2020-10-12_HumberTrail_treetop+maple_2.MP4</property>
  <property name="kdenlive:folderid">102</property>
  <property name="kdenlive:id">90</property>
  <property name="kdenlive:file_size">344565540</property>
  <property name="kdenlive:file_hash">fdc3c27b0d2d27ebd69b464f9b05f055</property>
  <property name="kdenlive:proxy">/home/ryankelln/.cache/kdenlive/proxy/fdc3c27b0d2d27ebd69b464f9b05f055.mkv</property>
  <property name="kdenlive:originalurl">content/footage/2020-10-12_HumberTrail_treetop+maple_2.MP4</property>
  <property name="kdenlive:original.mlt_type">producer</property>
  <property name="kdenlive:original.in">0</property>
  <property name="kdenlive:original.out">2235</property>
  <property name="kdenlive:original.length">2236</property>
  <property name="kdenlive:original.eof">pause</property>
  <property name="kdenlive:original.resource">content/footage/2020-10-12_HumberTrail_treetop+maple_2.MP4</property>
  <property name="kdenlive:original.meta.media.nb_streams">2</property>
  <property name="kdenlive:original.meta.media.0.stream.type">video</property>
  <property name="kdenlive:original.meta.media.0.stream.frame_rate">24</property>
  <property name="kdenlive:original.meta.media.0.stream.sample_aspect_ratio">1</property>
  <property name="kdenlive:original.meta.media.0.codec.width">1920</property>
  <property name="kdenlive:original.meta.media.0.codec.height">1080</property>
  <property name="kdenlive:original.meta.media.0.codec.rotate">0</property>
  <property name="kdenlive:original.meta.media.0.codec.frame_rate">24</property>
  <property name="kdenlive:original.meta.media.0.codec.pix_fmt">yuv420p</property>
  <property name="kdenlive:original.meta.media.0.codec.sample_aspect_ratio">1</property>
  <property name="kdenlive:original.meta.media.0.codec.colorspace">709</property>
  <property name="kdenlive:original.meta.media.0.codec.color_trc">1</property>
  <property name="kdenlive:original.meta.media.0.codec.name">h264</property>
  <property name="kdenlive:original.meta.media.0.codec.long_name">H.264 / AVC / MPEG-4 AVC / MPEG-4 part 10</property>
  <property name="kdenlive:original.meta.media.0.codec.bit_rate">36976791</property>
  <property name="kdenlive:original.meta.attr.0.stream.creation_time.markup">2020-10-12T11:13:42.000000Z</property>
  <property name="kdenlive:original.meta.attr.0.stream.handler_name.markup">VideoHandler</property>
  <property name="kdenlive:original.meta.attr.0.stream.timecode.markup">06:34:26:03</property>
  <property name="kdenlive:original.meta.attr.compatible_brands.markup">mp42avc1</property>
  <property name="kdenlive:original.meta.attr.major_brand.markup">mp42</property>
  <property name="kdenlive:original.meta.attr.minor_version.markup">1</property>
  <property name="kdenlive:original.meta.attr.creation_time.markup">2020-10-12T11:13:42.000000Z</property>
  <property name="kdenlive:original.meta.attr.encoder.markup">Lavf58.45.100</property>
  <property name="kdenlive:original.seekable">1</property>
  <property name="kdenlive:original.width">1920</property>
  <property name="kdenlive:original.height">1080</property>
  <property name="kdenlive:original.meta.media.sample_aspect_num">1</property>
  <property name="kdenlive:original.meta.media.sample_aspect_den">1</property>
  <property name="kdenlive:original.aspect_ratio">1</property>
  <property name="kdenlive:original.audio_index">-1</property>
  <property name="kdenlive:original.video_index">0</property>
  <property name="kdenlive:original.mute_on_pause">0</property>
  <property name="kdenlive:original.mlt_service">avformat-novalidate</property>
  <property name="kdenlive:original.kdenlive:folderid">102</property>
  <property name="kdenlive:original.meta.media.frame_rate_num">24</property>
  <property name="kdenlive:original.meta.media.frame_rate_den">1</property>
  <property name="kdenlive:original.meta.media.colorspace">709</property>
  <property name="kdenlive:original.meta.media.color_trc">1</property>
  <property name="kdenlive:original.meta.media.width">1920</property>
  <property name="kdenlive:original.meta.media.height">1080</property>
  <property name="kdenlive:original.meta.media.color_range">mpeg</property>
  <property name="kdenlive:original.kdenlive:id">105</property>
  <property name="kdenlive:original.kdenlive:file_size">344565540</property>
  <property name="kdenlive:original.kdenlive:file_hash">fdc3c27b0d2d27ebd69b464f9b05f055</property>
  <property name="kdenlive:original.backup">1</property>
  <property name="global_feed">1</property>
  <property name="xml">was here</property>
  <property name="meta.media.nb_streams">1</property>
  <property name="meta.media.0.stream.type">video</property>
  <property name="meta.media.0.stream.frame_rate">24</property>
  <property name="meta.media.0.stream.sample_aspect_ratio">1</property>
  <property name="meta.media.0.codec.width">960</property>
  <property name="meta.media.0.codec.height">540</property>
  <property name="meta.media.0.codec.rotate">0</property>
  <property name="meta.media.0.codec.frame_rate">1000</property>
  <property name="meta.media.0.codec.pix_fmt">yuvj420p</property>
  <property name="meta.media.0.codec.sample_aspect_ratio">1</property>
  <property name="meta.media.0.codec.colorspace">601</property>
  <property name="meta.media.0.codec.name">mjpeg</property>
  <property name="meta.media.0.codec.long_name">MJPEG (Motion JPEG)</property>
  <property name="meta.media.0.codec.bit_rate">0</property>
  <property name="meta.attr.0.stream.HANDLER_NAME.markup">VideoHandler</property>
  <property name="meta.attr.0.stream.TIMECODE.markup">06:34:26:03</property>
  <property name="meta.attr.0.stream.ENCODER.markup">Lavc58.91.100 mjpeg</property>
  <property name="meta.attr.0.stream.DURATION.markup">00:01:14.667000000</property>
  <property name="meta.attr.MINOR_VERSION.markup">1</property>
  <property name="meta.attr.COMPATIBLE_BRANDS.markup">mp42avc1</property>
  <property name="meta.attr.MAJOR_BRAND.markup">mp42</property>
  <property name="meta.attr.ENCODER.markup">Lavf58.45.100</property>
  <property name="meta.media.sample_aspect_num">1</property>
  <property name="meta.media.sample_aspect_den">1</property>
  <property name="meta.media.frame_rate_num">24</property>
  <property name="meta.media.frame_rate_den">1</property>
  <property name="meta.media.colorspace">601</property>
  <property name="meta.media.color_trc">2</property>
  <property name="meta.media.width">960</property>
  <property name="meta.media.height">540</property>
  <property name="meta.media.color_range">full</property>
  <property name="set.test_audio">1</property>
  <property name="set.test_image">0</property>
  <property name="meta.media.top_field_first">0</property>
  <property name="meta.media.progressive">1</property>
 </producer>
 <producer id="producer227" in="00:00:00.000" out="00:00:56.033">
  <property name="length">1683</property>
  <property name="eof">pause</property>
  <property name="resource">0.800000:/home/ryankelln/.cache/kdenlive/proxy/d36267c91a7a07d4705900c3d4f90169.mkv</property>
  <property name="aspect_ratio">1</property>
  <property name="meta.media.nb_streams">2</property>
  <property name="meta.media.0.stream.type">video</property>
  <property name="meta.media.0.stream.frame_rate">30</property>
  <property name="meta.media.0.stream.sample_aspect_ratio">1</property>
  <property name="meta.media.0.codec.width">960</property>
  <property name="meta.media.0.codec.height">540</property>
  <property name="meta.media.0.codec.rotate">0</property>
  <property name="meta.media.0.codec.frame_rate">1000</property>
  <property name="meta.media.0.codec.pix_fmt">yuvj420p</property>
  <property name="meta.media.0.codec.sample_aspect_ratio">1</property>
  <property name="meta.media.0.codec.colorspace">601</property>
  <property name="meta.media.0.codec.name">mjpeg</property>
  <property name="meta.media.0.codec.long_name">MJPEG (Motion JPEG)</property>
  <property name="meta.media.0.codec.bit_rate">0</property>
  <property name="meta.attr.0.stream.language.markup">eng</property>
  <property name="meta.attr.0.stream.ENCODER.markup">Lavc58.91.100 mjpeg</property>
  <property name="meta.attr.0.stream.DURATION.markup">00:00:44.800000000</property>
  <property name="meta.media.1.stream.type">audio</property>
  <property name="meta.media.1.codec.sample_fmt">s16</property>
  <property name="meta.media.1.codec.sample_rate">44100</property>
  <property name="meta.media.1.codec.channels">2</property>
  <property name="meta.media.1.codec.name">pcm_s16le</property>
  <property name="meta.media.1.codec.long_name">PCM signed 16-bit little-endian</property>
  <property name="meta.media.1.codec.bit_rate">1411200</property>
  <property name="meta.attr.1.stream.language.markup">eng</property>
  <property name="meta.attr.1.stream.HANDLER_NAME.markup">ISO Media file produced by Google Inc.</property>
  <property name="meta.attr.1.stream.ENCODER.markup">Lavc58.91.100 pcm_s16le</property>
  <property name="meta.attr.1.stream.DURATION.markup">00:00:44.861000000</property>
  <property name="meta.attr.HTTP://YOUTUBE.COM/STREAMING/OTF/DURATIONS/112015.markup">Segment-Count: 9&#xd;
Segment-Durations-Ms: 5333,5334,5333(r=1),5334,5333(r=1),5334,2133,&#xd;
&#xd;
</property>
  <property name="meta.attr.ENCODER.markup">Lavf58.45.100</property>
  <property name="seekable">1</property>
  <property name="meta.media.sample_aspect_num">1</property>
  <property name="meta.media.sample_aspect_den">1</property>
  <property name="audio_index">1</property>
  <property name="video_index">0</property>
  <property name="mute_on_pause">1</property>
  <property name="warp_speed">0.8</property>
  <property name="warp_resource">/home/ryankelln/.cache/kdenlive/proxy/d36267c91a7a07d4705900c3d4f90169.mkv</property>
  <property name="mlt_service">timewarp</property>
  <property name="kdenlive:proxy">/home/ryankelln/.cache/kdenlive/proxy/d36267c91a7a07d4705900c3d4f90169.mkv</property>
  <property name="kdenlive:originalurl">content/footage/Cell through Microscope Free Footage Clip-_Rww1olT3HA.mkv</property>
  <property name="set.test_audio">1</property>
  <property name="set.test_image">0</property>
  <property name="kdenlive:id">88</property>
  <property name="warp_pitch">0</property>
  <property name="meta.media.frame_rate_num">30</property>
  <property name="meta.media.frame_rate_den">1</property>
  <property name="meta.media.colorspace">601</property>
  <property name="meta.media.color_trc">2</property>
  <property name="meta.media.width">960</property>
  <property name="meta.media.height">540</property>
  <property name="meta.media.color_range">full</property>
  <property name="meta.media.top_field_first">0</property>
  <property name="meta.media.progressive">1</property>
 </producer>
 <producer id="producer228" in="00:00:00.000" out="00:01:02.900">
  <property name="length">1888</property>
  <property name="eof">pause</property>
  <property name="resource">2.097458:/home/ryankelln/.cache/kdenlive/proxy/d51eab99028e47136c29c76f2420e376.mkv</property>
  <property name="aspect_ratio">1</property>
  <property name="meta.media.nb_streams">1</property>
  <property name="meta.media.0.stream.type">video</property>
  <property name="meta.media.0.stream.frame_rate">30</property>
  <property name="meta.media.0.stream.sample_aspect_ratio">1</property>
  <property name="meta.media.0.codec.width">960</property>
  <property name="meta.media.0.codec.height">960</property>
  <property name="meta.media.0.codec.rotate">0</property>
  <property name="meta.media.0.codec.frame_rate">1000</property>
  <property name="meta.media.0.codec.pix_fmt">yuvj420p</property>
  <property name="meta.media.0.codec.sample_aspect_ratio">1</property>
  <property name="meta.media.0.codec.colorspace">601</property>
  <property name="meta.media.0.codec.name">mjpeg</property>
  <property name="meta.media.0.codec.long_name">MJPEG (Motion JPEG)</property>
  <property name="meta.media.0.codec.bit_rate">0</property>
  <property name="meta.attr.0.stream.HANDLER_NAME.markup">VideoHandler</property>
  <property name="meta.attr.0.stream.ENCODER.markup">Lavc58.91.100 mjpeg</property>
  <property name="meta.attr.0.stream.DURATION.markup">00:02:12.000000000</property>
  <property name="meta.attr.COMPATIBLE_BRANDS.markup">isomiso2avc1mp41</property>
  <property name="meta.attr.MAJOR_BRAND.markup">isom</property>
  <property name="meta.attr.MINOR_VERSION.markup">512</property>
  <property name="meta.attr.ENCODER.markup">Lavf58.45.100</property>
  <property name="seekable">1</property>
  <property name="meta.media.sample_aspect_num">1</property>
  <property name="meta.media.sample_aspect_den">1</property>
  <property name="audio_index">-1</property>
  <property name="video_index">0</property>
  <property name="mute_on_pause">1</property>
  <property name="warp_speed">2.09746</property>
  <property name="warp_resource">/home/ryankelln/.cache/kdenlive/proxy/d51eab99028e47136c29c76f2420e376.mkv</property>
  <property name="mlt_service">timewarp</property>
  <property name="kdenlive:proxy">/home/ryankelln/.cache/kdenlive/proxy/d51eab99028e47136c29c76f2420e376.mkv</property>
  <property name="kdenlive:originalurl">content/prerendered/fib_textures_1080.mp4</property>
  <property name="set.test_audio">1</property>
  <property name="set.test_image">0</property>
  <property name="kdenlive:id">145</property>
  <property name="warp_pitch">0</property>
  <property name="meta.media.frame_rate_num">30</property>
  <property name="meta.media.frame_rate_den">1</property>
  <property name="meta.media.colorspace">601</property>
  <property name="meta.media.color_trc">2</property>
  <property name="meta.media.width">960</property>
  <property name="meta.media.height">960</property>
  <property name="meta.media.color_range">full</property>
  <property name="meta.media.top_field_first">0</property>
  <property name="meta.media.progressive">1</property>
 </producer>
 <producer id="producer229" in="00:00:00.000" out="00:00:25.933">
  <property name="length">779</property>
  <property name="eof">pause</property>
  <property name="resource">content/footage/SilverLiningH264_Beachfront-B-roll.mp4</property>
  <property name="audio_index">1</property>
  <property name="video_index">0</property>
  <property name="mute_on_pause">0</property>
  <property name="mlt_service">avformat-novalidate</property>
  <property name="seekable">1</property>
  <property name="aspect_ratio">1</property>
  <property name="kdenlive:clipname"/>
  <property name="kdenlive:folderid">102</property>
  <property name="kdenlive:id">150</property>
  <property name="kdenlive:file_size">145788797</property>
  <property name="kdenlive:file_hash">2d2de81895c21e9b379ff476fbf10aec</property>
  <property name="kdenlive:proxy">/home/ryankelln/.cache/kdenlive/proxy/2d2de81895c21e9b379ff476fbf10aec.mkv</property>
  <property name="kdenlive:originalurl">content/footage/SilverLiningH264_Beachfront-B-roll.mp4</property>
  <property name="kdenlive:original.mlt_type">producer</property>
  <property name="kdenlive:original.in">0</property>
  <property name="kdenlive:original.out">778</property>
  <property name="kdenlive:original.length">779</property>
  <property name="kdenlive:original.eof">pause</property>
  <property name="kdenlive:original.resource">content/footage/SilverLiningH264_Beachfront-B-roll.mp4</property>
  <property name="kdenlive:original.meta.media.nb_streams">2</property>
  <property name="kdenlive:original.meta.media.0.stream.type">video</property>
  <property name="kdenlive:original.meta.media.0.stream.frame_rate">24</property>
  <property name="kdenlive:original.meta.media.0.stream.sample_aspect_ratio">0</property>
  <property name="kdenlive:original.meta.media.0.codec.width">1920</property>
  <property name="kdenlive:original.meta.media.0.codec.height">1080</property>
  <property name="kdenlive:original.meta.media.0.codec.rotate">0</property>
  <property name="kdenlive:original.meta.media.0.codec.frame_rate">24</property>
  <property name="kdenlive:original.meta.media.0.codec.pix_fmt">yuv420p</property>
  <property name="kdenlive:original.meta.media.0.codec.sample_aspect_ratio">1</property>
  <property name="kdenlive:original.meta.media.0.codec.colorspace">709</property>
  <property name="kdenlive:original.meta.media.0.codec.name">h264</property>
  <property name="kdenlive:original.meta.media.0.codec.long_name">H.264 / AVC / MPEG-4 AVC / MPEG-4 part 10</property>
  <property name="kdenlive:original.meta.media.0.codec.bit_rate">44834270</property>
  <property name="kdenlive:original.meta.attr.0.stream.creation_time.markup">2012-11-19T20:57:21.000000Z</property>
  <property name="kdenlive:original.meta.attr.0.stream.language.markup">eng</property>
  <property name="kdenlive:original.meta.attr.0.stream.handler_name.markup">Mainconcept MP4 Video Media Handler</property>
  <property name="kdenlive:original.meta.attr.0.stream.encoder.markup">AVC Coding</property>
  <property name="kdenlive:original.meta.media.1.stream.type">audio</property>
  <property name="kdenlive:original.meta.media.1.codec.sample_fmt">fltp</property>
  <property name="kdenlive:original.meta.media.1.codec.sample_rate">48000</property>
  <property name="kdenlive:original.meta.media.1.codec.channels">2</property>
  <property name="kdenlive:original.meta.media.1.codec.name">aac</property>
  <property name="kdenlive:original.meta.media.1.codec.long_name">AAC (Advanced Audio Coding)</property>
  <property name="kdenlive:original.meta.media.1.codec.bit_rate">157375</property>
  <property name="kdenlive:original.meta.attr.1.stream.creation_time.markup">2012-11-19T20:57:21.000000Z</property>
  <property name="kdenlive:original.meta.attr.1.stream.language.markup">eng</property>
  <property name="kdenlive:original.meta.attr.1.stream.handler_name.markup">Mainconcept MP4 Sound Media Handler</property>
  <property name="kdenlive:original.meta.attr.major_brand.markup">mp42</property>
  <property name="kdenlive:original.meta.attr.minor_version.markup">0</property>
  <property name="kdenlive:original.meta.attr.compatible_brands.markup">mp42mp41</property>
  <property name="kdenlive:original.meta.attr.creation_time.markup">2012-11-19T20:57:21.000000Z</property>
  <property name="kdenlive:original.seekable">1</property>
  <property name="kdenlive:original.width">1920</property>
  <property name="kdenlive:original.height">1080</property>
  <property name="kdenlive:original.meta.media.sample_aspect_num">1</property>
  <property name="kdenlive:original.meta.media.sample_aspect_den">1</property>
  <property name="kdenlive:original.aspect_ratio">1</property>
  <property name="kdenlive:original.audio_index">1</property>
  <property name="kdenlive:original.video_index">0</property>
  <property name="kdenlive:original.mute_on_pause">0</property>
  <property name="kdenlive:original.mlt_service">avformat-novalidate</property>
  <property name="kdenlive:original.kdenlive:folderid">102</property>
  <property name="kdenlive:original.meta.media.frame_rate_num">24</property>
  <property name="kdenlive:original.meta.media.frame_rate_den">1</property>
  <property name="kdenlive:original.meta.media.colorspace">709</property>
  <property name="kdenlive:original.meta.media.color_trc">2</property>
  <property name="kdenlive:original.meta.media.width">1920</property>
  <property name="kdenlive:original.meta.media.height">1080</property>
  <property name="kdenlive:original.meta.media.color_range">mpeg</property>
  <property name="kdenlive:original.kdenlive:id">162</property>
  <property name="kdenlive:original.kdenlive:file_size">145788797</property>
  <property name="kdenlive:original.kdenlive:file_hash">2d2de81895c21e9b379ff476fbf10aec</property>
  <property name="kdenlive:original.backup">1</property>
  <property name="kdenlive:audio_max">91</property>
  <property name="global_feed">1</property>
  <property name="xml">was here</property>
  <property name="meta.media.nb_streams">2</property>
  <property name="meta.media.0.stream.type">video</property>
  <property name="meta.media.0.stream.frame_rate">24</property>
  <property name="meta.media.0.stream.sample_aspect_ratio">0</property>
  <property name="meta.media.0.codec.width">1920</property>
  <property name="meta.media.0.codec.height">1080</property>
  <property name="meta.media.0.codec.rotate">0</property>
  <property name="meta.media.0.codec.frame_rate">24</property>
  <property name="meta.media.0.codec.pix_fmt">yuv420p</property>
  <property name="meta.media.0.codec.sample_aspect_ratio">1</property>
  <property name="meta.media.0.codec.colorspace">709</property>
  <property name="meta.media.0.codec.name">h264</property>
  <property name="meta.media.0.codec.long_name">H.264 / AVC / MPEG-4 AVC / MPEG-4 part 10</property>
  <property name="meta.media.0.codec.bit_rate">44834270</property>
  <property name="meta.attr.0.stream.creation_time.markup">2012-11-19T20:57:21.000000Z</property>
  <property name="meta.attr.0.stream.language.markup">eng</property>
  <property name="meta.attr.0.stream.handler_name.markup">Mainconcept MP4 Video Media Handler</property>
  <property name="meta.attr.0.stream.encoder.markup">AVC Coding</property>
  <property name="meta.media.1.stream.type">audio</property>
  <property name="meta.media.1.codec.sample_fmt">fltp</property>
  <property name="meta.media.1.codec.sample_rate">48000</property>
  <property name="meta.media.1.codec.channels">2</property>
  <property name="meta.media.1.codec.name">aac</property>
  <property name="meta.media.1.codec.long_name">AAC (Advanced Audio Coding)</property>
  <property name="meta.media.1.codec.bit_rate">157375</property>
  <property name="meta.attr.1.stream.creation_time.markup">2012-11-19T20:57:21.000000Z</property>
  <property name="meta.attr.1.stream.language.markup">eng</property>
  <property name="meta.attr.1.stream.handler_name.markup">Mainconcept MP4 Sound Media Handler</property>
  <property name="meta.attr.major_brand.markup">mp42</property>
  <property name="meta.attr.minor_version.markup">0</property>
  <property name="meta.attr.compatible_brands.markup">mp42mp41</property>
  <property name="meta.attr.creation_time.markup">2012-11-19T20:57:21.000000Z</property>
  <property name="meta.media.sample_aspect_num">1</property>
  <property name="meta.media.sample_aspect_den">1</property>
  <property name="meta.media.frame_rate_num">24</property>
  <property name="meta.media.frame_rate_den">1</property>
  <property name="meta.media.colorspace">709</property>
  <property name="meta.media.color_trc">2</property>
  <property name="meta.media.width">1920</property>
  <property name="meta.media.height">1080</property>
  <property name="meta.media.color_range">mpeg</property>
  <property name="meta.media.top_field_first">0</property>
  <property name="meta.media.progressive">1</property>
  <property name="set.test_audio">1</property>
  <property name="set.test_image">0</property>
 </producer>
 <producer id="producer230" in="00:00:00.000" out="00:01:00.533">
  <property name="length">1817</property>
  <property name="eof">pause</property>
  <property name="resource">/home/ryankelln/.cache/kdenlive/proxy/aae2fe22ccba6e7c8646a74445910830.mkv</property>
  <property name="audio_index">1</property>
  <property name="video_index">0</property>
  <property name="mute_on_pause">0</property>
  <property name="mlt_service">avformat-novalidate</property>
  <property name="seekable">1</property>
  <property name="aspect_ratio">1</property>
  <property name="kdenlive:clipname">2020-10-12_HumberTrail_stream+leaves+log+rocks.MP4</property>
  <property name="kdenlive:folderid">102</property>
  <property name="kdenlive:id">161</property>
  <property name="kdenlive:file_size">375577744</property>
  <property name="kdenlive:file_hash">aae2fe22ccba6e7c8646a74445910830</property>
  <property name="kdenlive:proxy">/home/ryankelln/.cache/kdenlive/proxy/aae2fe22ccba6e7c8646a74445910830.mkv</property>
  <property name="kdenlive:originalurl">content/footage/2020-10-12_HumberTrail_stream+leaves+log+rocks.MP4</property>
  <property name="kdenlive:original.mlt_type">producer</property>
  <property name="kdenlive:original.in">0</property>
  <property name="kdenlive:original.out">1816</property>
  <property name="kdenlive:original.length">1817</property>
  <property name="kdenlive:original.eof">pause</property>
  <property name="kdenlive:original.resource">content/footage/2020-10-12_HumberTrail_stream+leaves+log+rocks.MP4</property>
  <property name="kdenlive:original.meta.media.nb_streams">3</property>
  <property name="kdenlive:original.meta.media.0.stream.type">video</property>
  <property name="kdenlive:original.meta.media.0.stream.frame_rate">59.9401</property>
  <property name="kdenlive:original.meta.media.0.stream.sample_aspect_ratio">0</property>
  <property name="kdenlive:original.meta.media.0.codec.width">1920</property>
  <property name="kdenlive:original.meta.media.0.codec.height">1080</property>
  <property name="kdenlive:original.meta.media.0.codec.rotate">0</property>
  <property name="kdenlive:original.meta.media.0.codec.frame_rate">59.9401</property>
  <property name="kdenlive:original.meta.media.0.codec.pix_fmt">yuvj420p</property>
  <property name="kdenlive:original.meta.media.0.codec.sample_aspect_ratio">1</property>
  <property name="kdenlive:original.meta.media.0.codec.colorspace">709</property>
  <property name="kdenlive:original.meta.media.0.codec.color_trc">1</property>
  <property name="kdenlive:original.meta.media.0.codec.name">h264</property>
  <property name="kdenlive:original.meta.media.0.codec.long_name">H.264 / AVC / MPEG-4 AVC / MPEG-4 part 10</property>
  <property name="kdenlive:original.meta.media.0.codec.bit_rate">48058325</property>
  <property name="kdenlive:original.meta.attr.0.stream.creation_time.markup">2020-10-12T13:24:05.000000Z</property>
  <property name="kdenlive:original.meta.attr.0.stream.timecode.markup">09:37:40;17</property>
  <property name="kdenlive:original.meta.media.1.stream.type">audio</property>
  <property name="kdenlive:original.meta.media.1.codec.sample_fmt">s16</property>
  <property name="kdenlive:original.meta.media.1.codec.sample_rate">48000</property>
  <property name="kdenlive:original.meta.media.1.codec.channels">2</property>
  <property name="kdenlive:original.meta.media.1.codec.name">pcm_s16be</property>
  <property name="kdenlive:original.meta.media.1.codec.long_name">PCM signed 16-bit big-endian</property>
  <property name="kdenlive:original.meta.media.1.codec.bit_rate">1536000</property>
  <property name="kdenlive:original.meta.attr.1.stream.creation_time.markup">2020-10-12T13:24:05.000000Z</property>
  <property name="kdenlive:original.meta.attr.1.stream.timecode.markup">09:37:40;17</property>
  <property name="kdenlive:original.meta.attr.major_brand.markup">mp42</property>
  <property name="kdenlive:original.meta.attr.minor_version.markup">1</property>
  <property name="kdenlive:original.meta.attr.compatible_brands.markup">mp42avc1</property>
  <property name="kdenlive:original.meta.attr.creation_time.markup">2020-10-12T13:24:05.000000Z</property>
  <property name="kdenlive:original.seekable">1</property>
  <property name="kdenlive:original.width">1920</property>
  <property name="kdenlive:original.height">1080</property>
  <property name="kdenlive:original.meta.media.sample_aspect_num">1</property>
  <property name="kdenlive:original.meta.media.sample_aspect_den">1</property>
  <property name="kdenlive:original.aspect_ratio">1</property>
  <property name="kdenlive:original.audio_index">1</property>
  <property name="kdenlive:original.video_index">0</property>
  <property name="kdenlive:original.mute_on_pause">0</property>
  <property name="kdenlive:original.mlt_service">avformat-novalidate</property>
  <property name="kdenlive:original.kdenlive:folderid">102</property>
  <property name="kdenlive:original.meta.media.frame_rate_num">60000</property>
  <property name="kdenlive:original.meta.media.frame_rate_den">1001</property>
  <property name="kdenlive:original.meta.media.colorspace">709</property>
  <property name="kdenlive:original.meta.media.color_trc">1</property>
  <property name="kdenlive:original.meta.media.width">1920</property>
  <property name="kdenlive:original.meta.media.height">1080</property>
  <property name="kdenlive:original.meta.media.color_range">full</property>
  <property name="kdenlive:original.kdenlive:id">161</property>
  <property name="kdenlive:original.kdenlive:file_size">375577744</property>
  <property name="kdenlive:original.kdenlive:file_hash">aae2fe22ccba6e7c8646a74445910830</property>
  <property name="kdenlive:original.backup">1</property>
  <property name="kdenlive:audio_max">18</property>
  <property name="global_feed">1</property>
  <property name="xml">was here</property>
  <property name="meta.media.nb_streams">2</property>
  <property name="meta.media.0.stream.type">video</property>
  <property name="meta.media.0.stream.frame_rate">59.9401</property>
  <property name="meta.media.0.stream.sample_aspect_ratio">1</property>
  <property name="meta.media.0.codec.width">960</property>
  <property name="meta.media.0.codec.height">540</property>
  <property name="meta.media.0.codec.rotate">0</property>
  <property name="meta.media.0.codec.frame_rate">1000</property>
  <property name="meta.media.0.codec.pix_fmt">yuvj420p</property>
  <property name="meta.media.0.codec.sample_aspect_ratio">1</property>
  <property name="meta.media.0.codec.colorspace">601</property>
  <property name="meta.media.0.codec.name">mjpeg</property>
  <property name="meta.media.0.codec.long_name">MJPEG (Motion JPEG)</property>
  <property name="meta.media.0.codec.bit_rate">0</property>
  <property name="meta.attr.0.stream.TIMECODE.markup">09:37:40;17</property>
  <property name="meta.attr.0.stream.ENCODER.markup">Lavc58.91.100 mjpeg</property>
  <property name="meta.attr.0.stream.DURATION.markup">00:01:00.561000000</property>
  <property name="meta.media.1.stream.type">audio</property>
  <property name="meta.media.1.codec.sample_fmt">s16</property>
  <property name="meta.media.1.codec.sample_rate">48000</property>
  <property name="meta.media.1.codec.channels">2</property>
  <property name="meta.media.1.codec.name">pcm_s16le</property>
  <property name="meta.media.1.codec.long_name">PCM signed 16-bit little-endian</property>
  <property name="meta.media.1.codec.bit_rate">1536000</property>
  <property name="meta.attr.1.stream.TIMECODE.markup">09:37:40;17</property>
  <property name="meta.attr.1.stream.ENCODER.markup">Lavc58.91.100 pcm_s16le</property>
  <property name="meta.attr.1.stream.DURATION.markup">00:01:00.561000000</property>
  <property name="meta.attr.COMPATIBLE_BRANDS.markup">mp42avc1</property>
  <property name="meta.attr.MAJOR_BRAND.markup">mp42</property>
  <property name="meta.attr.MINOR_VERSION.markup">1</property>
  <property name="meta.attr.ENCODER.markup">Lavf58.45.100</property>
  <property name="meta.media.sample_aspect_num">1</property>
  <property name="meta.media.sample_aspect_den">1</property>
  <property name="meta.media.frame_rate_num">19001</property>
  <property name="meta.media.frame_rate_den">317</property>
  <property name="meta.media.colorspace">601</property>
  <property name="meta.media.color_trc">2</property>
  <property name="meta.media.width">960</property>
  <property name="meta.media.height">540</property>
  <property name="meta.media.color_range">full</property>
  <property name="meta.media.top_field_first">0</property>
  <property name="meta.media.progressive">1</property>
  <property name="set.test_audio">1</property>
  <property name="set.test_image">0</property>
 </producer>
 <producer id="producer231" in="00:00:00.000" out="00:00:44.833">
  <property name="length">1346</property>
  <property name="eof">pause</property>
  <property name="resource">/home/ryankelln/Documents/Projects/Active/Sound_Escapes/Mac/footage/Cell through Microscope Free Footage Clip-_Rww1olT3HA.mkv</property>
  <property name="audio_index">1</property>
  <property name="video_index">0</property>
  <property name="mute_on_pause">0</property>
  <property name="mlt_service">avformat-novalidate</property>
  <property name="seekable">1</property>
  <property name="aspect_ratio">1</property>
  <property name="kdenlive:clipname"/>
  <property name="kdenlive:folderid">-1</property>
  <property name="kdenlive:id">29</property>
  <property name="kdenlive:file_size">5481224</property>
  <property name="kdenlive:file_hash">d36267c91a7a07d4705900c3d4f90169</property>
  <property name="kdenlive:audio_max">91</property>
  <property name="kdenlive:zone_in">954</property>
  <property name="kdenlive:zone_out">1152</property>
  <property name="kdenlive:clipzones">[
    {
        "in": 0,
        "name": "Zone 1",
        "out": 895
    },
    {
        "in": 954,
        "name": "Zone 2",
        "out": 1152
    }
]
</property>
  <property name="global_feed">1</property>
  <property name="xml">was here</property>
  <property name="meta.media.nb_streams">2</property>
  <property name="meta.media.0.stream.type">video</property>
  <property name="meta.media.0.stream.frame_rate">30</property>
  <property name="meta.media.0.stream.sample_aspect_ratio">1</property>
  <property name="meta.media.0.codec.width">1280</property>
  <property name="meta.media.0.codec.height">720</property>
  <property name="meta.media.0.codec.rotate">0</property>
  <property name="meta.media.0.codec.frame_rate">1000</property>
  <property name="meta.media.0.codec.pix_fmt">yuv420p</property>
  <property name="meta.media.0.codec.sample_aspect_ratio">0</property>
  <property name="meta.media.0.codec.colorspace">709</property>
  <property name="meta.media.0.codec.name">vp9</property>
  <property name="meta.media.0.codec.long_name">Google VP9</property>
  <property name="meta.media.0.codec.bit_rate">0</property>
  <property name="meta.attr.0.stream.language.markup">eng</property>
  <property name="meta.attr.0.stream.DURATION.markup">00:00:44.800000000</property>
  <property name="meta.media.1.stream.type">audio</property>
  <property name="meta.media.1.codec.sample_fmt">fltp</property>
  <property name="meta.media.1.codec.sample_rate">44100</property>
  <property name="meta.media.1.codec.channels">2</property>
  <property name="meta.media.1.codec.name">aac</property>
  <property name="meta.media.1.codec.long_name">AAC (Advanced Audio Coding)</property>
  <property name="meta.media.1.codec.bit_rate">0</property>
  <property name="meta.attr.1.stream.language.markup">eng</property>
  <property name="meta.attr.1.stream.HANDLER_NAME.markup">ISO Media file produced by Google Inc.</property>
  <property name="meta.attr.1.stream.DURATION.markup">00:00:44.861000000</property>
  <property name="meta.attr.HTTP://YOUTUBE.COM/STREAMING/OTF/DURATIONS/112015.markup">Segment-Count: 9&#xd;
Segment-Durations-Ms: 5333,5334,5333(r=1),5334,5333(r=1),5334,2133,&#xd;
&#xd;
</property>
  <property name="meta.attr.ENCODER.markup">Lavf58.45.100</property>
  <property name="meta.media.sample_aspect_num">1</property>
  <property name="meta.media.sample_aspect_den">1</property>
  <property name="meta.media.frame_rate_num">30</property>
  <property name="meta.media.frame_rate_den">1</property>
  <property name="meta.media.colorspace">709</property>
  <property name="meta.media.color_trc">2</property>
  <property name="meta.media.width">1280</property>
  <property name="meta.media.height">720</property>
  <property name="meta.media.color_range">mpeg</property>
  <property name="meta.media.top_field_first">0</property>
  <property name="meta.media.progressive">1</property>
  <property name="set.test_audio">1</property>
  <property name="set.test_image">0</property>
 </producer>
 <producer id="producer232" in="00:00:00.000" out="00:00:23.133">
  <property name="length">695</property>
  <property name="eof">pause</property>
  <property name="resource">/home/ryankelln/Documents/Projects/Active/Sound_Escapes/Mac/Siwash.mp4</property>
  <property name="audio_index">-1</property>
  <property name="video_index">0</property>
  <property name="mute_on_pause">0</property>
  <property name="mlt_service">avformat-novalidate</property>
  <property name="seekable">1</property>
  <property name="aspect_ratio">1</property>
  <property name="kdenlive:clipname"/>
  <property name="kdenlive:folderid">-1</property>
  <property name="kdenlive:id">26</property>
  <property name="kdenlive:file_size">7061591</property>
  <property name="kdenlive:file_hash">554bdb9effc384c67048d842ef3c8d32</property>
  <property name="global_feed">1</property>
  <property name="xml">was here</property>
  <property name="meta.media.nb_streams">1</property>
  <property name="meta.media.0.stream.type">video</property>
  <property name="meta.media.0.stream.frame_rate">24</property>
  <property name="meta.media.0.stream.sample_aspect_ratio">1</property>
  <property name="meta.media.0.codec.width">512</property>
  <property name="meta.media.0.codec.height">512</property>
  <property name="meta.media.0.codec.rotate">0</property>
  <property name="meta.media.0.codec.frame_rate">24</property>
  <property name="meta.media.0.codec.pix_fmt">yuv444p</property>
  <property name="meta.media.0.codec.sample_aspect_ratio">1</property>
  <property name="meta.media.0.codec.colorspace">601</property>
  <property name="meta.media.0.codec.name">h264</property>
  <property name="meta.media.0.codec.long_name">H.264 / AVC / MPEG-4 AVC / MPEG-4 part 10</property>
  <property name="meta.media.0.codec.bit_rate">2436206</property>
  <property name="meta.attr.0.stream.handler_name.markup">VideoHandler</property>
  <property name="meta.attr.0.stream.vendor_id.markup">[0][0][0][0]</property>
  <property name="meta.attr.major_brand.markup">isom</property>
  <property name="meta.attr.minor_version.markup">512</property>
  <property name="meta.attr.compatible_brands.markup">isomiso2avc1mp41</property>
  <property name="meta.attr.encoder.markup">Lavf58.45.100</property>
  <property name="meta.media.sample_aspect_num">1</property>
  <property name="meta.media.sample_aspect_den">1</property>
  <property name="meta.media.frame_rate_num">24</property>
  <property name="meta.media.frame_rate_den">1</property>
  <property name="meta.media.colorspace">601</property>
  <property name="meta.media.color_trc">2</property>
  <property name="meta.media.width">512</property>
  <property name="meta.media.height">512</property>
  <property name="meta.media.color_range">mpeg</property>
  <property name="meta.media.top_field_first">0</property>
  <property name="meta.media.progressive">1</property>
  <property name="set.test_audio">1</property>
  <property name="set.test_image">0</property>
 </producer>
 <producer id="producer233" in="00:00:00.000" out="00:00:15.667">
  <property name="length">471</property>
  <property name="eof">pause</property>
  <property name="resource">/home/ryankelln/Documents/Projects/Active/Sound_Escapes/Mac/stories/mexican_beach.mp4</property>
  <property name="audio_index">-1</property>
  <property name="video_index">0</property>
  <property name="mute_on_pause">0</property>
  <property name="mlt_service">avformat-novalidate</property>
  <property name="seekable">1</property>
  <property name="aspect_ratio">1</property>
  <property name="kdenlive:clipname"/>
  <property name="kdenlive:folderid">-1</property>
  <property name="kdenlive:id">6</property>
  <property name="kdenlive:file_size">4969023</property>
  <property name="kdenlive:file_hash">982b8b3c0aae78509b57e4f5acd74d04</property>
  <property name="global_feed">1</property>
  <property name="xml">was here</property>
  <property name="meta.media.nb_streams">1</property>
  <property name="meta.media.0.stream.type">video</property>
  <property name="meta.media.0.stream.frame_rate">10</property>
  <property name="meta.media.0.stream.sample_aspect_ratio">0</property>
  <property name="meta.media.0.codec.width">512</property>
  <property name="meta.media.0.codec.height">512</property>
  <property name="meta.media.0.codec.rotate">0</property>
  <property name="meta.media.0.codec.frame_rate">10</property>
  <property name="meta.media.0.codec.pix_fmt">yuv444p</property>
  <property name="meta.media.0.codec.sample_aspect_ratio">0</property>
  <property name="meta.media.0.codec.colorspace">601</property>
  <property name="meta.media.0.codec.name">h264</property>
  <property name="meta.media.0.codec.long_name">H.264 / AVC / MPEG-4 AVC / MPEG-4 part 10</property>
  <property name="meta.media.0.codec.bit_rate">2530587</property>
  <property name="meta.attr.0.stream.handler_name.markup">VideoHandler</property>
  <property name="meta.attr.0.stream.vendor_id.markup">[0][0][0][0]</property>
  <property name="meta.attr.major_brand.markup">isom</property>
  <property name="meta.attr.minor_version.markup">512</property>
  <property name="meta.attr.compatible_brands.markup">isomiso2avc1mp41</property>
  <property name="meta.attr.encoder.markup">Lavf58.29.100</property>
  <property name="meta.media.sample_aspect_num">1</property>
  <property name="meta.media.sample_aspect_den">1</property>
  <property name="meta.media.frame_rate_num">10</property>
  <property name="meta.media.frame_rate_den">1</property>
  <property name="meta.media.colorspace">601</property>
  <property name="meta.media.color_trc">2</property>
  <property name="meta.media.width">512</property>
  <property name="meta.media.height">512</property>
  <property name="meta.media.color_range">mpeg</property>
  <property name="meta.media.top_field_first">0</property>
  <property name="meta.media.progressive">1</property>
  <property name="set.test_audio">1</property>
  <property name="set.test_image">0</property>
 </producer>
 <producer id="producer234" in="00:00:00.000" out="00:00:18.767">
  <property name="length">564</property>
  <property name="eof">pause</property>
  <property name="resource">0.500000:/home/ryankelln/Documents/Projects/Active/Sound_Escapes/Mac/stories/georgian_rocks.mp4</property>
  <property name="aspect_ratio">1</property>
  <property name="meta.media.nb_streams">1</property>
  <property name="meta.media.0.stream.type">video</property>
  <property name="meta.media.0.stream.frame_rate">10</property>
  <property name="meta.media.0.stream.sample_aspect_ratio">0</property>
  <property name="meta.media.0.codec.width">512</property>
  <property name="meta.media.0.codec.height">512</property>
  <property name="meta.media.0.codec.rotate">0</property>
  <property name="meta.media.0.codec.frame_rate">10</property>
  <property name="meta.media.0.codec.pix_fmt">yuv444p</property>
  <property name="meta.media.0.codec.sample_aspect_ratio">0</property>
  <property name="meta.media.0.codec.colorspace">601</property>
  <property name="meta.media.0.codec.name">h264</property>
  <property name="meta.media.0.codec.long_name">H.264 / AVC / MPEG-4 AVC / MPEG-4 part 10</property>
  <property name="meta.media.0.codec.bit_rate">3074788</property>
  <property name="meta.attr.0.stream.handler_name.markup">VideoHandler</property>
  <property name="meta.attr.major_brand.markup">isom</property>
  <property name="meta.attr.minor_version.markup">512</property>
  <property name="meta.attr.compatible_brands.markup">isomiso2avc1mp41</property>
  <property name="meta.attr.encoder.markup">Lavf58.29.100</property>
  <property name="seekable">1</property>
  <property name="meta.media.sample_aspect_num">1</property>
  <property name="meta.media.sample_aspect_den">1</property>
  <property name="audio_index">-1</property>
  <property name="video_index">0</property>
  <property name="mute_on_pause">1</property>
  <property name="warp_speed">0.5</property>
  <property name="warp_resource">/home/ryankelln/Documents/Projects/Active/Sound_Escapes/Mac/stories/georgian_rocks.mp4</property>
  <property name="mlt_service">timewarp</property>
  <property name="meta.attr.0.stream.vendor_id.markup">[0][0][0][0]</property>
  <property name="set.test_audio">1</property>
  <property name="set.test_image">0</property>
  <property name="kdenlive:id">5</property>
  <property name="warp_pitch">0</property>
  <property name="meta.media.frame_rate_num">10</property>
  <property name="meta.media.frame_rate_den">1</property>
  <property name="meta.media.colorspace">601</property>
  <property name="meta.media.color_trc">2</property>
  <property name="meta.media.width">512</property>
  <property name="meta.media.height">512</property>
  <property name="meta.media.color_range">mpeg</property>
  <property name="meta.media.top_field_first">0</property>
  <property name="meta.media.progressive">1</property>
 </producer>
 <playlist id="playlist10">
  <blank length="00:00:07.000"/>
  <entry producer="producer226" in="00:00:00.000" out="00:01:14.500">
   <property name="kdenlive:id">90</property>
   <property name="kdenlive:activeeffect">3</property>
   <filter id="filter184">
    <property name="version">0.6</property>
    <property name="mlt_service">frei0r.select0r</property>
    <property name="kdenlive_id">frei0r.select0r</property>
    <property name="Color to select">0xffffffff</property>
    <property name="Invert selection">1</property>
    <property name="Selection subspace">0.5</property>
    <property name="Subspace shape">0</property>
    <property name="Edge mode">0.6</property>
    <property name="Delta R / A / Hue">00:00:00.000=0.273</property>
    <property name="Delta G / B / Chroma">00:00:00.000=0.646</property>
    <property name="Delta B / I / I">00:00:00.000=0.642</property>
    <property name="Slope">00:00:00.000=0.238</property>
    <property name="Operation">0</property>
    <property name="kdenlive:collapsed">0</property>
   </filter>
   <filter id="filter185">
    <property name="rotate_center">1</property>
    <property name="mlt_service">qtblend</property>
    <property name="kdenlive_id">qtblend</property>
    <property name="rect">00:00:00.000|=0 0 1920 1080 0.000000;00:00:03.800=0 0 1920 1080 0.400000;00:00:04.700=0 0 1920 1080 0.200000;00:00:04.767=0 0 1920 1080 0.350000;00:00:07.733=0 0 1920 1080 0.000000;00:00:09.133=0 0 1920 1080 0.300000;00:00:11.500=0 0 1920 1080 0.100000;00:00:12.067=0 0 1920 1080 0.660000;00:00:15.400=0 0 1920 1080 0.350000;00:00:16.333=0 0 1920 1080 0.100000;00:00:17.967=0 0 1920 1080 0.000000;00:00:20.667=0 0 1920 1080 0.004776;00:00:20.700=0 0 1920 1080 0.700000;00:00:21.367=0 0 1920 1080 0.500000;00:00:21.467=0 0 1920 1080 0.700000;00:00:24.233=0 0 1920 1080 0.100000;00:00:24.667=0 0 1920 1080 0.400000;00:00:26.100=0 0 1920 1080 0.100000;00:00:26.200=0 0 1920 1080 0.400000;00:00:26.667=0 0 1920 1080 0.750000;00:00:29.600=0 0 1920 1080 0.050000;00:00:30.567=0 0 1920 1080 0.800000;00:00:33.533=0 0 1920 1080 0.050000;00:00:34.067=0 0 1920 1080 0.198698;00:00:34.433=0 0 1920 1080 0.600000;00:00:37.400=0 0 1920 1080 0.150000;00:00:38.033=0 0 1920 1080 0.000000;00:00:38.267=0 0 1920 1080 0.600000;00:00:41.167=0 0 1920 1080 0.000000;00:00:43.000=0 0 1920 1080 0.000000;00:00:43.200=0 0 1920 1080 0.700000;00:00:43.800=0 0 1920 1080 0.400000;00:00:43.933=0 0 1920 1080 0.600000;00:00:45.333=0 0 1920 1080 0.000000;00:00:45.767=0 0 1920 1080 0.100000;00:00:47.267=0 0 1920 1080 0.750000;00:00:51.367=0 0 1920 1080 0.100000;00:00:51.533=0 0 1920 1080 0.800000;00:00:53.433=0 0 1920 1080 0.150000;00:00:53.633=0 0 1920 1080 0.600000;00:00:57.100=0 0 1920 1080 0.000000;00:00:57.433=0 0 1920 1080 0.600000;00:01:00.700=0 0 1920 1080 0.330000;00:01:04.300=0 0 1920 1080 0.200000;00:01:10.900=0 0 1920 1080 0.000000</property>
    <property name="rotation">00:00:00.000|=0;00:00:03.800=0;00:00:04.700=0;00:00:04.767=0;00:00:07.733=0;00:00:09.133=0;00:00:11.500=0;00:00:12.067=0;00:00:15.400=0;00:00:16.333=0;00:00:17.967=0;00:00:20.667=0;00:00:20.700=0;00:00:21.367=0;00:00:21.467=0;00:00:24.233=0;00:00:24.667=0;00:00:26.100=0;00:00:26.200=0;00:00:26.667=0;00:00:29.600=0;00:00:30.567=0;00:00:33.533=0;00:00:34.067=0;00:00:34.433=0;00:00:37.400=0;00:00:38.033=0;00:00:38.267=0;00:00:41.167=0;00:00:43.000=0;00:00:43.200=0;00:00:43.800=0;00:00:43.933=0;00:00:45.333=0;00:00:45.767=0;00:00:47.267=0;00:00:51.367=0;00:00:51.533=0;00:00:53.433=0;00:00:53.633=0;00:00:57.100=0;00:00:57.433=0;00:01:00.700=0;00:01:04.300=0;00:01:10.900=0</property>
    <property name="compositing">0</property>
    <property name="distort">0</property>
    <property name="kdenlive:collapsed">0</property>
    <property name="disable">0</property>
   </filter>
   <filter id="filter186">
    <property name="mode">alpha</property>
    <property name="alpha_operation">sub</property>
    <property name="invert">0</property>
    <property name="feather">93</property>
    <property name="feather_passes">3</property>
    <property name="mlt_service">rotoscoping</property>
    <property name="kdenlive_id">rotoscoping</property>
    <property name="spline">{
    "0000": [
        [
            [
                -0.27211740041928756,
                1.3082089552238814
            ],
            [
                -0.24109014675052431,
                1.2388059701492546
            ],
            [
                -0.20125786163522033,
                1.2373134328358224
            ]
        ],
        [
            [
                -0.18448637316561872,
                1.6305970149253746
            ],
            [
                -0.04821802935010506,
                1.7052238805970161
            ],
            [
                0.09014675052410888,
                1.9141791044776124
            ]
        ],
        [
            [
                0.29266247379454885,
                1.7052238805970166
            ],
            [
                0.33962264150943355,
                1.794776119402986
            ],
            [
                0.36436058700209606,
                1.7604477611940308
            ]
        ],
        [
            [
                0.4427672955974839,
                1.5156716417910456
            ],
            [
                0.46750524109014646,
                1.4813432835820908
            ],
            [
                0.46750524109014646,
                1.4552238805970161
            ]
        ],
        [
            [
                0.46750524109014646,
                1.3768656716417917
            ],
            [
                0.46750524109014646,
                1.3507462686567175
            ],
            [
                0.49350104821802876,
                1.3373134328358218
            ]
        ],
        [
            [
                0.571488469601677,
                1.2970149253731351
            ],
            [
                0.5974842767295596,
                1.2835820895522398
            ],
            [
                0.5995807127882599,
                1.34179104477612
            ]
        ],
        [
            [
                0.6058700209643605,
                1.516417910447762
            ],
            [
                0.6079664570230607,
                1.574626865671643
            ],
            [
                0.6285115303983227,
                1.5955223880597027
            ]
        ],
        [
            [
                0.6901467505241089,
                1.658208955223882
            ],
            [
                0.7106918238993709,
                1.6791044776119413
            ],
            [
                0.7341719077568133,
                1.6238805970149262
            ]
        ],
        [
            [
                1.0498951781970642,
                1.842537313432837
            ],
            [
                1.0733752620545074,
                1.787313432835822
            ],
            [
                1.107756813417191,
                1.7291044776119417
            ]
        ],
        [
            [
                1.1186582809224312,
                1.1365671641791055
            ],
            [
                1.1530398322851154,
                1.0783582089552248
            ],
            [
                1.1983228511530395,
                1.1119402985074633
            ]
        ],
        [
            [
                1.181132075471698,
                1.246268656716419
            ],
            [
                1.2264150943396226,
                1.2798507462686575
            ],
            [
                1.2293501048218027,
                1.3746268656716425
            ]
        ],
        [
            [
                1.2381551362683438,
                1.6589552238805982
            ],
            [
                1.241090146750524,
                1.753731343283583
            ],
            [
                1.1844863731656186,
                1.8022388059701504
            ]
        ],
        [
            [
                1.0146750524108998,
                1.9477611940298503
            ],
            [
                0.9580712788259959,
                1.9962686567164167
            ],
            [
                0.7693920335429768,
                1.9805970149253709
            ]
        ],
        [
            [
                0.20335429769392013,
                1.9335820895522378
            ],
            [
                0.014675052410901234,
                1.9179104477611935
            ],
            [
                -0.03731656184486398,
                1.8462686567164188
            ]
        ],
        [
            [
                -0.19329140461215952,
                1.6313432835820902
            ],
            [
                -0.2452830188679247,
                1.5597014925373145
            ],
            [
                -0.21425576519916162,
                1.4902985074626869
            ]
        ]
    ],
    "1156": [
        [
            [
                -0.11876621624426606,
                1.1475949460617705
            ],
            [
                -0.08773896257550294,
                1.0781919609871435
            ],
            [
                -0.04790667746019897,
                1.0766994236737109
            ]
        ],
        [
            [
                0.08564252651680247,
                1.0148699571449684
            ],
            [
                0.22191087033231607,
                1.08949682281661
            ],
            [
                0.36027565020652996,
                1.2984520466972074
            ]
        ],
        [
            [
                0.3050750358054673,
                1.4335192847642981
            ],
            [
                0.35203520352035195,
                1.5230715235702683
            ],
            [
                0.37677314901301445,
                1.4887431653613123
            ]
        ],
        [
            [
                0.451153039832285,
                1.3801426038126203
            ],
            [
                0.4758909853249475,
                1.3458142456036652
            ],
            [
                0.4758909853249475,
                1.3196948426185908
            ]
        ],
        [
            [
                0.4758909853249475,
                1.2413366336633664
            ],
            [
                0.4758909853249475,
                1.2152172306782918
            ],
            [
                0.50188679245283,
                1.2017843948573965
            ]
        ],
        [
            [
                0.5798742138364776,
                1.1614858873947094
            ],
            [
                0.6058700209643603,
                1.148053051573814
            ],
            [
                0.6079664570230605,
                1.2062620067976946
            ]
        ],
        [
            [
                0.6142557651991611,
                1.3808888724693367
            ],
            [
                0.6163522012578614,
                1.4390978276932176
            ],
            [
                0.6368972746331234,
                1.459993350081277
            ]
        ],
        [
            [
                0.6985324947589096,
                1.5226799172454564
            ],
            [
                0.7190775681341716,
                1.5435754396335157
            ],
            [
                0.7425576519916139,
                1.488351559036501
            ]
        ],
        [
            [
                0.8227120825290074,
                1.3379008423230385
            ],
            [
                0.8461921663864498,
                1.2826769617260234
            ],
            [
                0.8805737177491332,
                1.224468006502143
            ]
        ],
        [
            [
                0.9800651763289534,
                1.033290232008276
            ],
            [
                1.0144467276916371,
                0.9750812767843949
            ],
            [
                1.059729746559562,
                1.008663366336634
            ]
        ],
        [
            [
                1.1895178197064988,
                1.1107396187379932
            ],
            [
                1.2348008385744234,
                1.1443217082902326
            ],
            [
                1.2377358490566037,
                1.239097827693217
            ]
        ],
        [
            [
                1.2465408805031446,
                1.5234261859021725
            ],
            [
                1.2494758909853247,
                1.6182023053051577
            ],
            [
                1.1928721174004193,
                1.666709767991725
            ]
        ],
        [
            [
                1.0230607966457026,
                1.8122321560514265
            ],
            [
                0.9664570230607964,
                1.8607396187379937
            ],
            [
                0.7777777777777775,
                1.8450679769469491
            ]
        ],
        [
            [
                0.21174004192872103,
                1.7980530515738145
            ],
            [
                0.02306079664570219,
                1.78238140978277
            ],
            [
                -0.02893081761006301,
                1.7107396187379935
            ]
        ],
        [
            [
                -0.18490566037735862,
                1.4958142456036652
            ],
            [
                -0.23689727463312382,
                1.4241724545588892
            ],
            [
                -0.20587002096436074,
                1.3547694694842616
            ]
        ]
    ],
    "1197": [
        [
            [
                -0.10335429769392034,
                0.7335820895522388
            ],
            [
                -0.07232704402515723,
                0.664179104477612
            ],
            [
                -0.03249475890985325,
                0.6626865671641792
            ]
        ],
        [
            [
                0.10587002096436059,
                0.582089552238806
            ],
            [
                0.2421383647798742,
                0.6567164179104478
            ],
            [
                0.380503144654088,
                0.8656716417910448
            ]
        ],
        [
            [
                0.3146750524109015,
                1.0149253731343284
            ],
            [
                0.36163522012578614,
                1.1044776119402986
            ],
            [
                0.38637316561844864,
                1.0701492537313433
            ]
        ],
        [
            [
                0.46058700209643605,
                0.9671641791044776
            ],
            [
                0.4853249475890985,
                0.9328358208955224
            ],
            [
                0.4853249475890985,
                0.9067164179104478
            ]
        ],
        [
            [
                0.4853249475890985,
                0.8283582089552238
            ],
            [
                0.4853249475890985,
                0.8022388059701493
            ],
            [
                0.5113207547169811,
                0.7888059701492538
            ]
        ],
        [
            [
                0.5893081761006288,
                0.7485074626865671
            ],
            [
                0.6153039832285114,
                0.7350746268656716
            ],
            [
                0.6174004192872117,
                0.7932835820895523
            ]
        ],
        [
            [
                0.6236897274633123,
                0.967910447761194
            ],
            [
                0.6257861635220127,
                1.0261194029850746
            ],
            [
                0.6463312368972747,
                1.0470149253731345
            ]
        ],
        [
            [
                0.7079664570230607,
                1.1097014925373134
            ],
            [
                0.7285115303983228,
                1.130597014925373
            ],
            [
                0.7519916142557651,
                1.0753731343283583
            ]
        ],
        [
            [
                0.8224318658280922,
                0.9097014925373135
            ],
            [
                0.8459119496855346,
                0.8544776119402985
            ],
            [
                0.880293501048218,
                0.7962686567164179
            ]
        ],
        [
            [
                0.9834381551362683,
                0.6216417910447761
            ],
            [
                1.0178197064989518,
                0.5634328358208955
            ],
            [
                1.0631027253668763,
                0.5970149253731343
            ]
        ],
        [
            [
                1.1989517819706499,
                0.6977611940298507
            ],
            [
                1.2442348008385744,
                0.7313432835820896
            ],
            [
                1.2471698113207548,
                0.8261194029850746
            ]
        ],
        [
            [
                1.2559748427672957,
                1.1104477611940298
            ],
            [
                1.258909853249476,
                1.2052238805970148
            ],
            [
                1.2023060796645704,
                1.253731343283582
            ]
        ],
        [
            [
                1.0324947589098532,
                1.3992537313432836
            ],
            [
                0.9758909853249477,
                1.4477611940298507
            ],
            [
                0.7872117400419287,
                1.432089552238806
            ]
        ],
        [
            [
                0.22117400419287211,
                1.3850746268656715
            ],
            [
                0.03249475890985325,
                1.369402985074627
            ],
            [
                -0.019496855345911952,
                1.2977611940298508
            ]
        ],
        [
            [
                -0.17547169811320754,
                1.0828358208955224
            ],
            [
                -0.22746331236897274,
                1.0111940298507462
            ],
            [
                -0.19643605870020966,
                0.9417910447761193
            ]
        ]
    ]
}
</property>
    <property name="kdenlive:collapsed">0</property>
   </filter>
   <filter id="filter187">
    <property name="version">0.1</property>
    <property name="mlt_service">frei0r.squareblur</property>
    <property name="kdenlive_id">frei0r.squareblur</property>
    <property name="Kernel size">00:00:00.000=0.05;00:00:04.200=0.05;00:00:20.600=0</property>
    <property name="kdenlive:collapsed">0</property>
   </filter>
  </entry>
  <blank length="00:00:07.000"/>
  <entry producer="producer227" in="00:00:39.067" out="00:00:47.967">
   <property name="kdenlive:id">88</property>
   <property name="kdenlive:activeeffect">4</property>
   <filter id="filter188">
    <property name="rotate_center">1</property>
    <property name="mlt_service">qtblend</property>
    <property name="kdenlive_id">qtblend</property>
    <property name="rect">00:00:39.067=-325 -183 2572 1447 1.000000</property>
    <property name="rotation">00:00:39.067=0</property>
    <property name="compositing">0</property>
    <property name="distort">0</property>
    <property name="kdenlive:collapsed">0</property>
   </filter>
   <filter id="filter189">
    <property name="mlt_service">avfilter.hflip</property>
    <property name="kdenlive_id">avfilter.hflip</property>
    <property name="kdenlive:collapsed">0</property>
   </filter>
   <filter id="filter190">
    <property name="version">0.1</property>
    <property name="mlt_service">frei0r.colorize</property>
    <property name="kdenlive_id">frei0r.colorize</property>
    <property name="hue">00:00:39.067=0.125</property>
    <property name="saturation">00:00:39.067=0.8</property>
    <property name="lightness">00:00:39.067=0.616667</property>
    <property name="kdenlive:collapsed">0</property>
   </filter>
   <filter id="filter191">
    <property name="threshold">169</property>
    <property name="slope">42</property>
    <property name="prelevel">0</property>
    <property name="postlevel">255</property>
    <property name="mlt_service">lumakey</property>
    <property name="kdenlive_id">lumakey</property>
    <property name="kdenlive:collapsed">0</property>
   </filter>
   <filter id="filter192" in="00:00:46.300" out="00:00:47.967">
    <property name="start">1</property>
    <property name="mlt_service">brightness</property>
    <property name="kdenlive_id">fade_to_black</property>
    <property name="end">0</property>
    <property name="alpha">-1</property>
    <property name="kdenlive:collapsed">0</property>
   </filter>
   <filter id="filter193" in="00:00:39.067" out="00:00:41.300">
    <property name="start">0</property>
    <property name="mlt_service">brightness</property>
    <property name="kdenlive_id">fade_from_black</property>
    <property name="end">1</property>
    <property name="alpha">-1</property>
    <property name="kdenlive:collapsed">0</property>
   </filter>
  </entry>
  <blank length="00:00:25.900"/>
  <entry producer="producer89" in="00:00:00.000" out="00:00:06.867">
   <property name="kdenlive:id">96</property>
   <filter id="filter194">
    <property name="rotate_center">1</property>
    <property name="mlt_service">qtblend</property>
    <property name="kdenlive_id">qtblend</property>
    <property name="rect">00:00:00.000=-695 -715 2226 1864 1.000000;00:00:06.867=-619 -1151 2560 2560 1.000000</property>
    <property name="rotation">00:00:00.000=180;00:00:06.867=180</property>
    <property name="compositing">0</property>
    <property name="distort">0</property>
    <property name="kdenlive:collapsed">0</property>
   </filter>
  </entry>
  <blank length="00:03:03.933"/>
  <entry producer="producer228" in="00:00:00.000" out="00:01:02.900">
   <property name="kdenlive:id">145</property>
   <filter id="filter195">
    <property name="rotate_center">1</property>
    <property name="mlt_service">qtblend</property>
    <property name="kdenlive_id">qtblend</property>
    <property name="rect">00:00:00.000=-419 0 1920 1080 1.000000</property>
    <property name="rotation">00:00:00.000=0</property>
    <property name="compositing">0</property>
    <property name="distort">0</property>
    <property name="kdenlive:collapsed">0</property>
   </filter>
   <filter id="filter196">
    <property name="mirror">horizontal</property>
    <property name="mlt_service">mirror</property>
    <property name="kdenlive_id">mirror</property>
    <property name="reverse">1</property>
    <property name="kdenlive:collapsed">0</property>
   </filter>
  </entry>
  <entry producer="producer229" in="00:00:01.700" out="00:00:07.467">
   <property name="kdenlive:id">150</property>
   <filter id="filter197">
    <property name="mlt_service">avfilter.hflip</property>
    <property name="kdenlive_id">avfilter.hflip</property>
    <property name="kdenlive:collapsed">0</property>
   </filter>
  </entry>
  <blank length="00:00:12.267"/>
  <entry producer="producer230" in="00:00:00.000" out="00:00:36.733">
   <property name="kdenlive:id">161</property>
   <property name="kdenlive:activeeffect">3</property>
   <filter id="filter198">
    <property name="rotate_center">1</property>
    <property name="mlt_service">qtblend</property>
    <property name="kdenlive_id">qtblend</property>
    <property name="rect">00:00:00.000=0 -400 2688 1512 1.000000</property>
    <property name="rotation">00:00:00.000=0</property>
    <property name="compositing">0</property>
    <property name="distort">0</property>
    <property name="kdenlive:collapsed">0</property>
   </filter>
   <filter id="filter199">
    <property name="threshold">158</property>
    <property name="slope">33</property>
    <property name="prelevel">0</property>
    <property name="postlevel">236</property>
    <property name="mlt_service">lumakey</property>
    <property name="kdenlive_id">lumakey</property>
    <property name="kdenlive:collapsed">0</property>
   </filter>
   <filter id="filter200" out="00:00:01.267">
    <property name="start">0</property>
    <property name="mlt_service">brightness</property>
    <property name="kdenlive_id">fade_from_black</property>
    <property name="end">1</property>
    <property name="alpha">-1</property>
    <property name="kdenlive:collapsed">0</property>
   </filter>
   <filter id="filter201">
    <property name="lift_r">-0.375006</property>
    <property name="lift_g">-0.375006</property>
    <property name="lift_b">-0.375006</property>
    <property name="gamma_r">0.97499</property>
    <property name="gamma_g">0.84419</property>
    <property name="gamma_b">0.832349</property>
    <property name="gain_r">1.27498</property>
    <property name="gain_g">1.16725</property>
    <property name="gain_b">1.12465</property>
    <property name="mlt_service">lift_gamma_gain</property>
    <property name="kdenlive_id">lift_gamma_gain</property>
    <property name="kdenlive:collapsed">0</property>
   </filter>
   <filter id="filter202" in="00:00:04.133" out="00:00:36.767">
    <property name="start">1</property>
    <property name="mlt_service">brightness</property>
    <property name="kdenlive_id">fade_to_black</property>
    <property name="end">0</property>
    <property name="alpha">-1</property>
    <property name="kdenlive:collapsed">0</property>
   </filter>
  </entry>
  <blank length="00:03:29.900"/>
  <entry producer="producer231" in="00:00:01.233" out="00:00:35.800">
   <property name="kdenlive:id">29</property>
   <filter id="filter203">
    <property name="rotate_center">1</property>
    <property name="mlt_service">qtblend</property>
    <property name="kdenlive_id">qtblend</property>
    <property name="rect">00:00:01.033=-334 -312 2614 1697 1.000000</property>
    <property name="rotation">00:00:01.033=0</property>
    <property name="compositing">0</property>
    <property name="distort">0</property>
    <property name="kdenlive:collapsed">0</property>
   </filter>
   <filter id="filter204" in="00:00:01.233" out="00:00:01.767">
    <property name="start">0</property>
    <property name="mlt_service">brightness</property>
    <property name="kdenlive_id">fade_from_black</property>
    <property name="end">1</property>
    <property name="alpha">-1</property>
    <property name="kdenlive:collapsed">0</property>
   </filter>
   <filter id="filter205" in="00:00:34.467" out="00:00:35.800">
    <property name="start">1</property>
    <property name="mlt_service">brightness</property>
    <property name="kdenlive_id">fade_to_black</property>
    <property name="end">0</property>
    <property name="alpha">-1</property>
    <property name="kdenlive:collapsed">0</property>
   </filter>
  </entry>
  <blank length="00:00:27.967"/>
  <entry producer="producer232" in="00:00:00.000" out="00:00:23.133">
   <property name="kdenlive:id">26</property>
   <property name="kdenlive:activeeffect">2</property>
   <filter id="filter206" out="00:00:00.533">
    <property name="start">0</property>
    <property name="mlt_service">brightness</property>
    <property name="kdenlive_id">fade_from_black</property>
    <property name="end">1</property>
    <property name="alpha">-1</property>
    <property name="kdenlive:collapsed">0</property>
   </filter>
   <filter id="filter207">
    <property name="rotate_center">1</property>
    <property name="mlt_service">qtblend</property>
    <property name="kdenlive_id">qtblend</property>
    <property name="rect">00:00:00.000=-420 0 1920 1080 1.000000</property>
    <property name="rotation">00:00:00.000=0</property>
    <property name="compositing">0</property>
    <property name="distort">0</property>
    <property name="kdenlive:collapsed">0</property>
   </filter>
   <filter id="filter208">
    <property name="version">0.3</property>
    <property name="mlt_service">frei0r.saturat0r</property>
    <property name="kdenlive_id">frei0r.saturat0r</property>
    <property name="Saturation">00:00:00.000=0.199</property>
    <property name="kdenlive:collapsed">0</property>
   </filter>
  </entry>
  <blank length="00:00:00.500"/>
  <entry producer="producer233" in="00:00:00.000" out="00:00:15.667">
   <property name="kdenlive:id">6</property>
   <property name="kdenlive:activeeffect">1</property>
   <filter id="filter209">
    <property name="rotate_center">1</property>
    <property name="mlt_service">qtblend</property>
    <property name="kdenlive_id">qtblend</property>
    <property name="rect">00:00:00.000=-420 0 1920 1080 1.000000</property>
    <property name="rotation">00:00:00.000=0</property>
    <property name="compositing">0</property>
    <property name="distort">0</property>
    <property name="kdenlive:collapsed">0</property>
   </filter>
   <filter id="filter210">
    <property name="version">0.3</property>
    <property name="mlt_service">frei0r.saturat0r</property>
    <property name="kdenlive_id">frei0r.saturat0r</property>
    <property name="Saturation">00:00:00.000=0.221</property>
    <property name="kdenlive:collapsed">0</property>
   </filter>
  </entry>
  <blank length="00:00:00.033"/>
  <entry producer="producer234" in="00:00:00.000" out="00:00:18.767">
   <property name="kdenlive:id">5</property>
   <property name="kdenlive:activeeffect">2</property>
   <filter id="filter211" in="00:00:14.667" out="00:00:18.767">
    <property name="start">1</property>
    <property name="mlt_service">brightness</property>
    <property name="kdenlive_id">fade_to_black</property>
    <property name="end">0</property>
    <property name="alpha">-1</property>
    <property name="kdenlive:collapsed">0</property>
   </filter>
   <filter id="filter212" out="00:00:00.600">
    <property name="start">0</property>
    <property name="mlt_service">brightness</property>
    <property name="kdenlive_id">fade_from_black</property>
    <property name="end">1</property>
    <property name="alpha">-1</property>
    <property name="kdenlive:collapsed">0</property>
   </filter>
   <filter id="filter213">
    <property name="background">colour:0</property>
    <property name="mlt_service">affine</property>
    <property name="kdenlive_id">pan_zoom</property>
    <property name="transition.geometry">0=-420 0 1920 1080</property>
    <property name="transition.distort">0</property>
    <property name="use_normalised">0</property>
    <property name="producer.resource">/home/ryankelln/Documents/Projects/Active/Sound_Escapes/Mac/storyboard/0x00000000</property>
    <property name="kdenlive:collapsed">0</property>
   </filter>
  </entry>
 </playlist>
 <playlist id="playlist11"/>
 <tractor id="tractor5" in="00:00:00.000" out="00:12:42.600">
  <property name="kdenlive:trackheight">69</property>
  <property name="kdenlive:timeline_active"/>
  <property name="kdenlive:collapsed">0</property>
  <property name="kdenlive:track_name">Video 3</property>
  <property name="kdenlive:thumbs_format"/>
  <property name="kdenlive:audio_rec"/>
  <track hide="audio" producer="playlist10"/>
  <track producer="playlist11"/>
 </tractor>
 <producer id="producer235" in="00:00:00.000" out="00:00:09.067">
  <property name="length">273</property>
  <property name="eof">pause</property>
  <property name="resource">content/footage/network_2.gif</property>
  <property name="audio_index">-1</property>
  <property name="video_index">0</property>
  <property name="mute_on_pause">0</property>
  <property name="mlt_service">avformat-novalidate</property>
  <property name="seekable">1</property>
  <property name="aspect_ratio">1</property>
  <property name="kdenlive:clipname"/>
  <property name="kdenlive:folderid">102</property>
  <property name="kdenlive:id">95</property>
  <property name="kdenlive:file_size">8593024</property>
  <property name="kdenlive:file_hash">16fa06848b277bfb059720a8a9d258a6</property>
  <property name="global_feed">1</property>
  <property name="xml">was here</property>
  <property name="meta.media.nb_streams">1</property>
  <property name="meta.media.0.stream.type">video</property>
  <property name="meta.media.0.stream.frame_rate">14.25</property>
  <property name="meta.media.0.stream.sample_aspect_ratio">0</property>
  <property name="meta.media.0.codec.width">555</property>
  <property name="meta.media.0.codec.height">555</property>
  <property name="meta.media.0.codec.rotate">0</property>
  <property name="meta.media.0.codec.frame_rate">100</property>
  <property name="meta.media.0.codec.pix_fmt">bgra</property>
  <property name="meta.media.0.codec.sample_aspect_ratio">0</property>
  <property name="meta.media.0.codec.colorspace">601</property>
  <property name="meta.media.0.codec.name">gif</property>
  <property name="meta.media.0.codec.long_name">GIF (Graphics Interchange Format)</property>
  <property name="meta.media.0.codec.bit_rate">0</property>
  <property name="meta.media.sample_aspect_num">1</property>
  <property name="meta.media.sample_aspect_den">1</property>
  <property name="meta.media.frame_rate_num">57</property>
  <property name="meta.media.frame_rate_den">4</property>
  <property name="meta.media.colorspace">601</property>
  <property name="meta.media.color_trc">2</property>
  <property name="meta.media.width">555</property>
  <property name="meta.media.height">555</property>
  <property name="meta.media.color_range">mpeg</property>
  <property name="meta.media.top_field_first">0</property>
  <property name="meta.media.progressive">1</property>
  <property name="set.test_audio">1</property>
  <property name="set.test_image">0</property>
 </producer>
 <producer id="producer236" in="00:00:00.000" out="00:00:06.033">
  <property name="length">182</property>
  <property name="eof">pause</property>
  <property name="resource">-1.500000:content/footage/network_2.gif</property>
  <property name="aspect_ratio">1</property>
  <property name="meta.media.nb_streams">1</property>
  <property name="meta.media.0.stream.type">video</property>
  <property name="meta.media.0.stream.frame_rate">14.25</property>
  <property name="meta.media.0.stream.sample_aspect_ratio">0</property>
  <property name="meta.media.0.codec.width">555</property>
  <property name="meta.media.0.codec.height">555</property>
  <property name="meta.media.0.codec.rotate">0</property>
  <property name="meta.media.0.codec.frame_rate">100</property>
  <property name="meta.media.0.codec.pix_fmt">bgra</property>
  <property name="meta.media.0.codec.sample_aspect_ratio">0</property>
  <property name="meta.media.0.codec.colorspace">601</property>
  <property name="meta.media.0.codec.name">gif</property>
  <property name="meta.media.0.codec.long_name">GIF (Graphics Interchange Format)</property>
  <property name="meta.media.0.codec.bit_rate">0</property>
  <property name="seekable">1</property>
  <property name="meta.media.sample_aspect_num">1</property>
  <property name="meta.media.sample_aspect_den">1</property>
  <property name="audio_index">-1</property>
  <property name="video_index">0</property>
  <property name="mute_on_pause">1</property>
  <property name="warp_speed">-1.5</property>
  <property name="warp_resource">content/footage/network_2.gif</property>
  <property name="mlt_service">timewarp</property>
  <property name="set.test_audio">1</property>
  <property name="set.test_image">0</property>
  <property name="kdenlive:id">95</property>
  <property name="warp_pitch">0</property>
  <property name="meta.media.frame_rate_num">57</property>
  <property name="meta.media.frame_rate_den">4</property>
  <property name="meta.media.colorspace">601</property>
  <property name="meta.media.color_trc">2</property>
  <property name="meta.media.width">555</property>
  <property name="meta.media.height">555</property>
  <property name="meta.media.color_range">mpeg</property>
  <property name="meta.media.top_field_first">0</property>
  <property name="meta.media.progressive">1</property>
 </producer>
 <producer id="producer237" in="00:00:00.000" out="00:00:25.933">
  <property name="length">779</property>
  <property name="eof">pause</property>
  <property name="resource">content/footage/SilverLiningH264_Beachfront-B-roll.mp4</property>
  <property name="audio_index">1</property>
  <property name="video_index">0</property>
  <property name="mute_on_pause">0</property>
  <property name="mlt_service">avformat-novalidate</property>
  <property name="seekable">1</property>
  <property name="aspect_ratio">1</property>
  <property name="kdenlive:clipname"/>
  <property name="kdenlive:folderid">102</property>
  <property name="kdenlive:id">150</property>
  <property name="kdenlive:file_size">145788797</property>
  <property name="kdenlive:file_hash">2d2de81895c21e9b379ff476fbf10aec</property>
  <property name="kdenlive:proxy">/home/ryankelln/.cache/kdenlive/proxy/2d2de81895c21e9b379ff476fbf10aec.mkv</property>
  <property name="kdenlive:originalurl">content/footage/SilverLiningH264_Beachfront-B-roll.mp4</property>
  <property name="kdenlive:original.mlt_type">producer</property>
  <property name="kdenlive:original.in">0</property>
  <property name="kdenlive:original.out">778</property>
  <property name="kdenlive:original.length">779</property>
  <property name="kdenlive:original.eof">pause</property>
  <property name="kdenlive:original.resource">content/footage/SilverLiningH264_Beachfront-B-roll.mp4</property>
  <property name="kdenlive:original.meta.media.nb_streams">2</property>
  <property name="kdenlive:original.meta.media.0.stream.type">video</property>
  <property name="kdenlive:original.meta.media.0.stream.frame_rate">24</property>
  <property name="kdenlive:original.meta.media.0.stream.sample_aspect_ratio">0</property>
  <property name="kdenlive:original.meta.media.0.codec.width">1920</property>
  <property name="kdenlive:original.meta.media.0.codec.height">1080</property>
  <property name="kdenlive:original.meta.media.0.codec.rotate">0</property>
  <property name="kdenlive:original.meta.media.0.codec.frame_rate">24</property>
  <property name="kdenlive:original.meta.media.0.codec.pix_fmt">yuv420p</property>
  <property name="kdenlive:original.meta.media.0.codec.sample_aspect_ratio">1</property>
  <property name="kdenlive:original.meta.media.0.codec.colorspace">709</property>
  <property name="kdenlive:original.meta.media.0.codec.name">h264</property>
  <property name="kdenlive:original.meta.media.0.codec.long_name">H.264 / AVC / MPEG-4 AVC / MPEG-4 part 10</property>
  <property name="kdenlive:original.meta.media.0.codec.bit_rate">44834270</property>
  <property name="kdenlive:original.meta.attr.0.stream.creation_time.markup">2012-11-19T20:57:21.000000Z</property>
  <property name="kdenlive:original.meta.attr.0.stream.language.markup">eng</property>
  <property name="kdenlive:original.meta.attr.0.stream.handler_name.markup">Mainconcept MP4 Video Media Handler</property>
  <property name="kdenlive:original.meta.attr.0.stream.encoder.markup">AVC Coding</property>
  <property name="kdenlive:original.meta.media.1.stream.type">audio</property>
  <property name="kdenlive:original.meta.media.1.codec.sample_fmt">fltp</property>
  <property name="kdenlive:original.meta.media.1.codec.sample_rate">48000</property>
  <property name="kdenlive:original.meta.media.1.codec.channels">2</property>
  <property name="kdenlive:original.meta.media.1.codec.name">aac</property>
  <property name="kdenlive:original.meta.media.1.codec.long_name">AAC (Advanced Audio Coding)</property>
  <property name="kdenlive:original.meta.media.1.codec.bit_rate">157375</property>
  <property name="kdenlive:original.meta.attr.1.stream.creation_time.markup">2012-11-19T20:57:21.000000Z</property>
  <property name="kdenlive:original.meta.attr.1.stream.language.markup">eng</property>
  <property name="kdenlive:original.meta.attr.1.stream.handler_name.markup">Mainconcept MP4 Sound Media Handler</property>
  <property name="kdenlive:original.meta.attr.major_brand.markup">mp42</property>
  <property name="kdenlive:original.meta.attr.minor_version.markup">0</property>
  <property name="kdenlive:original.meta.attr.compatible_brands.markup">mp42mp41</property>
  <property name="kdenlive:original.meta.attr.creation_time.markup">2012-11-19T20:57:21.000000Z</property>
  <property name="kdenlive:original.seekable">1</property>
  <property name="kdenlive:original.width">1920</property>
  <property name="kdenlive:original.height">1080</property>
  <property name="kdenlive:original.meta.media.sample_aspect_num">1</property>
  <property name="kdenlive:original.meta.media.sample_aspect_den">1</property>
  <property name="kdenlive:original.aspect_ratio">1</property>
  <property name="kdenlive:original.audio_index">1</property>
  <property name="kdenlive:original.video_index">0</property>
  <property name="kdenlive:original.mute_on_pause">0</property>
  <property name="kdenlive:original.mlt_service">avformat-novalidate</property>
  <property name="kdenlive:original.kdenlive:folderid">102</property>
  <property name="kdenlive:original.meta.media.frame_rate_num">24</property>
  <property name="kdenlive:original.meta.media.frame_rate_den">1</property>
  <property name="kdenlive:original.meta.media.colorspace">709</property>
  <property name="kdenlive:original.meta.media.color_trc">2</property>
  <property name="kdenlive:original.meta.media.width">1920</property>
  <property name="kdenlive:original.meta.media.height">1080</property>
  <property name="kdenlive:original.meta.media.color_range">mpeg</property>
  <property name="kdenlive:original.kdenlive:id">162</property>
  <property name="kdenlive:original.kdenlive:file_size">145788797</property>
  <property name="kdenlive:original.kdenlive:file_hash">2d2de81895c21e9b379ff476fbf10aec</property>
  <property name="kdenlive:original.backup">1</property>
  <property name="kdenlive:audio_max">91</property>
  <property name="global_feed">1</property>
  <property name="xml">was here</property>
  <property name="meta.media.nb_streams">2</property>
  <property name="meta.media.0.stream.type">video</property>
  <property name="meta.media.0.stream.frame_rate">24</property>
  <property name="meta.media.0.stream.sample_aspect_ratio">0</property>
  <property name="meta.media.0.codec.width">1920</property>
  <property name="meta.media.0.codec.height">1080</property>
  <property name="meta.media.0.codec.rotate">0</property>
  <property name="meta.media.0.codec.frame_rate">24</property>
  <property name="meta.media.0.codec.pix_fmt">yuv420p</property>
  <property name="meta.media.0.codec.sample_aspect_ratio">1</property>
  <property name="meta.media.0.codec.colorspace">709</property>
  <property name="meta.media.0.codec.name">h264</property>
  <property name="meta.media.0.codec.long_name">H.264 / AVC / MPEG-4 AVC / MPEG-4 part 10</property>
  <property name="meta.media.0.codec.bit_rate">44834270</property>
  <property name="meta.attr.0.stream.creation_time.markup">2012-11-19T20:57:21.000000Z</property>
  <property name="meta.attr.0.stream.language.markup">eng</property>
  <property name="meta.attr.0.stream.handler_name.markup">Mainconcept MP4 Video Media Handler</property>
  <property name="meta.attr.0.stream.encoder.markup">AVC Coding</property>
  <property name="meta.media.1.stream.type">audio</property>
  <property name="meta.media.1.codec.sample_fmt">fltp</property>
  <property name="meta.media.1.codec.sample_rate">48000</property>
  <property name="meta.media.1.codec.channels">2</property>
  <property name="meta.media.1.codec.name">aac</property>
  <property name="meta.media.1.codec.long_name">AAC (Advanced Audio Coding)</property>
  <property name="meta.media.1.codec.bit_rate">157375</property>
  <property name="meta.attr.1.stream.creation_time.markup">2012-11-19T20:57:21.000000Z</property>
  <property name="meta.attr.1.stream.language.markup">eng</property>
  <property name="meta.attr.1.stream.handler_name.markup">Mainconcept MP4 Sound Media Handler</property>
  <property name="meta.attr.major_brand.markup">mp42</property>
  <property name="meta.attr.minor_version.markup">0</property>
  <property name="meta.attr.compatible_brands.markup">mp42mp41</property>
  <property name="meta.attr.creation_time.markup">2012-11-19T20:57:21.000000Z</property>
  <property name="meta.media.sample_aspect_num">1</property>
  <property name="meta.media.sample_aspect_den">1</property>
  <property name="meta.media.frame_rate_num">24</property>
  <property name="meta.media.frame_rate_den">1</property>
  <property name="meta.media.colorspace">709</property>
  <property name="meta.media.color_trc">2</property>
  <property name="meta.media.width">1920</property>
  <property name="meta.media.height">1080</property>
  <property name="meta.media.color_range">mpeg</property>
  <property name="meta.media.top_field_first">0</property>
  <property name="meta.media.progressive">1</property>
  <property name="set.test_audio">1</property>
  <property name="set.test_image">0</property>
 </producer>
 <producer id="producer238" in="00:00:00.000" out="00:00:59.000">
  <property name="length">1772</property>
  <property name="eof">pause</property>
  <property name="resource">/home/ryankelln/.cache/kdenlive/proxy/222503c0e98193cf42c67a35a2a392bc.mkv</property>
  <property name="audio_index">1</property>
  <property name="video_index">0</property>
  <property name="mute_on_pause">0</property>
  <property name="mlt_service">avformat-novalidate</property>
  <property name="seekable">1</property>
  <property name="aspect_ratio">1</property>
  <property name="kdenlive:clipname">Raindrops in Super Slow Motion-CMvaMD3j6o4.mkv</property>
  <property name="kdenlive:folderid">102</property>
  <property name="kdenlive:id">162</property>
  <property name="kdenlive:file_size">32685034</property>
  <property name="kdenlive:file_hash">222503c0e98193cf42c67a35a2a392bc</property>
  <property name="kdenlive:proxy">/home/ryankelln/.cache/kdenlive/proxy/222503c0e98193cf42c67a35a2a392bc.mkv</property>
  <property name="kdenlive:originalurl">content/footage/Raindrops in Super Slow Motion-CMvaMD3j6o4.mkv</property>
  <property name="kdenlive:original.mlt_type">producer</property>
  <property name="kdenlive:original.in">0</property>
  <property name="kdenlive:original.out">1771</property>
  <property name="kdenlive:original.length">1772</property>
  <property name="kdenlive:original.eof">pause</property>
  <property name="kdenlive:original.resource">content/footage/Raindrops in Super Slow Motion-CMvaMD3j6o4.mkv</property>
  <property name="kdenlive:original.meta.media.nb_streams">2</property>
  <property name="kdenlive:original.meta.media.0.stream.type">video</property>
  <property name="kdenlive:original.meta.media.0.stream.frame_rate">23.976</property>
  <property name="kdenlive:original.meta.media.0.stream.sample_aspect_ratio">1</property>
  <property name="kdenlive:original.meta.media.0.codec.width">1920</property>
  <property name="kdenlive:original.meta.media.0.codec.height">1080</property>
  <property name="kdenlive:original.meta.media.0.codec.rotate">0</property>
  <property name="kdenlive:original.meta.media.0.codec.frame_rate">23.976</property>
  <property name="kdenlive:original.meta.media.0.codec.pix_fmt">yuv420p</property>
  <property name="kdenlive:original.meta.media.0.codec.sample_aspect_ratio">1</property>
  <property name="kdenlive:original.meta.media.0.codec.colorspace">709</property>
  <property name="kdenlive:original.meta.media.0.codec.color_trc">1</property>
  <property name="kdenlive:original.meta.media.0.codec.name">h264</property>
  <property name="kdenlive:original.meta.media.0.codec.long_name">H.264 / AVC / MPEG-4 AVC / MPEG-4 part 10</property>
  <property name="kdenlive:original.meta.media.0.codec.bit_rate">0</property>
  <property name="kdenlive:original.meta.attr.0.stream.HANDLER_NAME.markup">ISO Media file produced by Google Inc.</property>
  <property name="kdenlive:original.meta.attr.0.stream.DURATION.markup">00:00:58.934000000</property>
  <property name="kdenlive:original.meta.media.1.stream.type">audio</property>
  <property name="kdenlive:original.meta.media.1.codec.sample_fmt">fltp</property>
  <property name="kdenlive:original.meta.media.1.codec.sample_rate">48000</property>
  <property name="kdenlive:original.meta.media.1.codec.channels">2</property>
  <property name="kdenlive:original.meta.media.1.codec.name">opus</property>
  <property name="kdenlive:original.meta.media.1.codec.long_name">Opus</property>
  <property name="kdenlive:original.meta.media.1.codec.bit_rate">0</property>
  <property name="kdenlive:original.meta.attr.1.stream.language.markup">eng</property>
  <property name="kdenlive:original.meta.attr.1.stream.DURATION.markup">00:00:59.061000000</property>
  <property name="kdenlive:original.meta.attr.COMPATIBLE_BRANDS.markup">iso6avc1mp41</property>
  <property name="kdenlive:original.meta.attr.MAJOR_BRAND.markup">dash</property>
  <property name="kdenlive:original.meta.attr.MINOR_VERSION.markup">0</property>
  <property name="kdenlive:original.meta.attr.ENCODER.markup">Lavf58.45.100</property>
  <property name="kdenlive:original.seekable">1</property>
  <property name="kdenlive:original.width">1920</property>
  <property name="kdenlive:original.height">1080</property>
  <property name="kdenlive:original.meta.media.sample_aspect_num">1</property>
  <property name="kdenlive:original.meta.media.sample_aspect_den">1</property>
  <property name="kdenlive:original.aspect_ratio">1</property>
  <property name="kdenlive:original.audio_index">1</property>
  <property name="kdenlive:original.video_index">0</property>
  <property name="kdenlive:original.mute_on_pause">0</property>
  <property name="kdenlive:original.mlt_service">avformat-novalidate</property>
  <property name="kdenlive:original.kdenlive:folderid">102</property>
  <property name="kdenlive:original.meta.media.frame_rate_num">24000</property>
  <property name="kdenlive:original.meta.media.frame_rate_den">1001</property>
  <property name="kdenlive:original.meta.media.colorspace">709</property>
  <property name="kdenlive:original.meta.media.color_trc">1</property>
  <property name="kdenlive:original.meta.media.width">1920</property>
  <property name="kdenlive:original.meta.media.height">1080</property>
  <property name="kdenlive:original.meta.media.color_range">mpeg</property>
  <property name="kdenlive:original.kdenlive:id">162</property>
  <property name="kdenlive:original.kdenlive:file_size">32685034</property>
  <property name="kdenlive:original.kdenlive:file_hash">222503c0e98193cf42c67a35a2a392bc</property>
  <property name="kdenlive:original.backup">1</property>
  <property name="kdenlive:audio_max">1</property>
  <property name="global_feed">1</property>
  <property name="xml">was here</property>
  <property name="meta.media.nb_streams">2</property>
  <property name="meta.media.0.stream.type">video</property>
  <property name="meta.media.0.stream.frame_rate">23.976</property>
  <property name="meta.media.0.stream.sample_aspect_ratio">1</property>
  <property name="meta.media.0.codec.width">960</property>
  <property name="meta.media.0.codec.height">540</property>
  <property name="meta.media.0.codec.rotate">0</property>
  <property name="meta.media.0.codec.frame_rate">1000</property>
  <property name="meta.media.0.codec.pix_fmt">yuvj420p</property>
  <property name="meta.media.0.codec.sample_aspect_ratio">1</property>
  <property name="meta.media.0.codec.colorspace">601</property>
  <property name="meta.media.0.codec.name">mjpeg</property>
  <property name="meta.media.0.codec.long_name">MJPEG (Motion JPEG)</property>
  <property name="meta.media.0.codec.bit_rate">0</property>
  <property name="meta.attr.0.stream.HANDLER_NAME.markup">ISO Media file produced by Google Inc.</property>
  <property name="meta.attr.0.stream.ENCODER.markup">Lavc58.91.100 mjpeg</property>
  <property name="meta.attr.0.stream.DURATION.markup">00:00:58.934000000</property>
  <property name="meta.media.1.stream.type">audio</property>
  <property name="meta.media.1.codec.sample_fmt">s16</property>
  <property name="meta.media.1.codec.sample_rate">48000</property>
  <property name="meta.media.1.codec.channels">2</property>
  <property name="meta.media.1.codec.name">pcm_s16le</property>
  <property name="meta.media.1.codec.long_name">PCM signed 16-bit little-endian</property>
  <property name="meta.media.1.codec.bit_rate">1536000</property>
  <property name="meta.attr.1.stream.language.markup">eng</property>
  <property name="meta.attr.1.stream.ENCODER.markup">Lavc58.91.100 pcm_s16le</property>
  <property name="meta.attr.1.stream.DURATION.markup">00:00:59.044000000</property>
  <property name="meta.attr.MINOR_VERSION.markup">0</property>
  <property name="meta.attr.COMPATIBLE_BRANDS.markup">iso6avc1mp41</property>
  <property name="meta.attr.MAJOR_BRAND.markup">dash</property>
  <property name="meta.attr.ENCODER.markup">Lavf58.45.100</property>
  <property name="meta.media.sample_aspect_num">1</property>
  <property name="meta.media.sample_aspect_den">1</property>
  <property name="meta.media.frame_rate_num">24000</property>
  <property name="meta.media.frame_rate_den">1001</property>
  <property name="meta.media.colorspace">601</property>
  <property name="meta.media.color_trc">2</property>
  <property name="meta.media.width">960</property>
  <property name="meta.media.height">540</property>
  <property name="meta.media.color_range">full</property>
  <property name="meta.media.top_field_first">0</property>
  <property name="meta.media.progressive">1</property>
  <property name="set.test_audio">1</property>
  <property name="set.test_image">0</property>
 </producer>
 <playlist id="playlist12">
  <blank length="00:01:55.400"/>
  <entry producer="producer235" in="00:00:00.000" out="00:00:09.067">
   <property name="kdenlive:id">95</property>
   <property name="kdenlive:activeeffect">2</property>
   <filter id="filter214">
    <property name="rotate_center">1</property>
    <property name="mlt_service">qtblend</property>
    <property name="kdenlive_id">qtblend</property>
    <property name="rect">00:00:00.000=-272 380 1110 1110 1.000000</property>
    <property name="rotation">00:00:00.000=0</property>
    <property name="compositing">0</property>
    <property name="distort">0</property>
    <property name="kdenlive:collapsed">0</property>
   </filter>
   <filter id="filter215" out="00:00:01.167">
    <property name="start">0</property>
    <property name="mlt_service">brightness</property>
    <property name="kdenlive_id">fade_from_black</property>
    <property name="end">1</property>
    <property name="alpha">-1</property>
    <property name="kdenlive:collapsed">0</property>
   </filter>
   <filter id="filter216">
    <property name="version">0.1</property>
    <property name="mlt_service">frei0r.colorize</property>
    <property name="kdenlive_id">frei0r.colorize</property>
    <property name="hue">00:00:00.000=0.0305556;00:00:02.000=0.0305556;00:00:04.367=0.0194444;00:00:09.067=0.0305556</property>
    <property name="saturation">00:00:00.000=0.463889;00:00:02.000=0.463889;00:00:04.367=0.75;00:00:09.067=0.3</property>
    <property name="lightness">00:00:00.000=0.372222;00:00:02.000=0.372222;00:00:04.367=0.566667;00:00:09.067=0.372222</property>
    <property name="kdenlive:collapsed">0</property>
   </filter>
  </entry>
  <entry producer="producer236" in="00:00:00.000" out="00:00:05.733">
   <property name="kdenlive:id">95</property>
   <property name="kdenlive:activeeffect">2</property>
   <filter id="filter217">
    <property name="rotate_center">1</property>
    <property name="mlt_service">qtblend</property>
    <property name="kdenlive_id">qtblend</property>
    <property name="rect">00:00:00.000=-272 380 1110 1110 1.000000</property>
    <property name="rotation">00:00:00.000=0</property>
    <property name="compositing">0</property>
    <property name="distort">0</property>
    <property name="kdenlive:collapsed">0</property>
   </filter>
   <filter id="filter218" in="00:00:01.333" out="00:00:05.733">
    <property name="start">1</property>
    <property name="mlt_service">brightness</property>
    <property name="kdenlive_id">fade_to_black</property>
    <property name="end">0</property>
    <property name="alpha">-1</property>
    <property name="kdenlive:collapsed">0</property>
   </filter>
   <filter id="filter219">
    <property name="version">0.1</property>
    <property name="mlt_service">frei0r.colorize</property>
    <property name="kdenlive_id">frei0r.colorize</property>
    <property name="hue">00:00:00.000=0.0305556;00:00:02.967=0.0305556;00:00:05.733=0.0305556</property>
    <property name="saturation">00:00:00.000=0.3;00:00:02.967=0.0916667;00:00:05.733=0.0666667</property>
    <property name="lightness">00:00:00.000=0.369444;00:00:02.967=0.369444;00:00:05.733=0.369444</property>
    <property name="kdenlive:collapsed">0</property>
   </filter>
  </entry>
  <blank length="00:04:05.167"/>
  <entry producer="producer237" in="00:00:00.000" out="00:00:01.667">
   <property name="kdenlive:id">150</property>
   <filter id="filter220">
    <property name="mlt_service">avfilter.hflip</property>
    <property name="kdenlive_id">avfilter.hflip</property>
    <property name="kdenlive:collapsed">0</property>
   </filter>
  </entry>
  <blank length="00:00:08.267"/>
  <entry producer="producer238" in="00:00:01.300" out="00:00:17.267">
   <property name="kdenlive:id">162</property>
   <property name="kdenlive:activeeffect">1</property>
   <filter id="filter221">
    <property name="version">0.1</property>
    <property name="mlt_service">frei0r.colorize</property>
    <property name="kdenlive_id">frei0r.colorize</property>
    <property name="hue">00:00:01.300=0.05</property>
    <property name="saturation">00:00:01.300=0.233333</property>
    <property name="lightness">00:00:01.300=0.211111</property>
    <property name="kdenlive:collapsed">0</property>
   </filter>
   <filter id="filter222">
    <property name="version">0.1</property>
    <property name="mlt_service">frei0r.mask0mate</property>
    <property name="kdenlive_id">frei0r.mask0mate</property>
    <property name="Left">00:00:01.300=0</property>
    <property name="Right">00:00:01.300=0</property>
    <property name="Top">00:00:01.300=0.612</property>
    <property name="Bottom">00:00:01.300=0</property>
    <property name="Invert">1</property>
    <property name="Blur">00:00:01.300=0.164</property>
    <property name="kdenlive:collapsed">0</property>
   </filter>
  </entry>
  <blank length="00:00:32.400"/>
  <entry producer="producer3" in="00:00:00.000" out="00:00:11.900">
   <property name="kdenlive:id">67</property>
   <property name="kdenlive:activeeffect">-1</property>
   <filter id="filter223" in="00:00:07.433" out="00:00:11.900">
    <property name="start">1</property>
    <property name="mlt_service">brightness</property>
    <property name="kdenlive_id">fade_to_black</property>
    <property name="end">0</property>
    <property name="alpha">-1</property>
    <property name="kdenlive:collapsed">0</property>
   </filter>
  </entry>
 </playlist>
 <playlist id="playlist13"/>
 <tractor id="tractor6" in="00:00:00.000" out="00:07:25.700">
  <property name="kdenlive:trackheight">69</property>
  <property name="kdenlive:timeline_active">1</property>
  <property name="kdenlive:collapsed">28</property>
  <property name="kdenlive:thumbs_format"/>
  <property name="kdenlive:audio_rec"/>
  <track hide="audio" producer="playlist12"/>
  <track producer="playlist13"/>
 </tractor>
 <producer id="producer239" in="00:00:00.000" out="00:03:09.233">
  <property name="length">5678</property>
  <property name="eof">pause</property>
  <property name="resource">content/musicians/2021-06-02_Sarah_kit_mac_00048-take1_beginnng.mp4</property>
  <property name="audio_index">1</property>
  <property name="video_index">0</property>
  <property name="mute_on_pause">0</property>
  <property name="mlt_service">avformat-novalidate</property>
  <property name="seekable">1</property>
  <property name="aspect_ratio">1.33333</property>
  <property name="kdenlive:clipname"/>
  <property name="kdenlive:folderid">65</property>
  <property name="kdenlive:id">35</property>
  <property name="kdenlive:file_size">164277639</property>
  <property name="kdenlive:file_hash">d78bfd8bc2452bdd5f256eab9325fb6d</property>
  <property name="kdenlive:audio_max">1</property>
  <property name="global_feed">1</property>
  <property name="xml">was here</property>
  <property name="meta.media.nb_streams">2</property>
  <property name="meta.media.0.stream.type">video</property>
  <property name="meta.media.0.stream.frame_rate">59.9401</property>
  <property name="meta.media.0.stream.sample_aspect_ratio">1.33333</property>
  <property name="meta.media.0.codec.width">1440</property>
  <property name="meta.media.0.codec.height">1080</property>
  <property name="meta.media.0.codec.rotate">0</property>
  <property name="meta.media.0.codec.frame_rate">29.97</property>
  <property name="meta.media.0.codec.pix_fmt">yuv420p</property>
  <property name="meta.media.0.codec.sample_aspect_ratio">1.33333</property>
  <property name="meta.media.0.codec.colorspace">709</property>
  <property name="meta.media.0.codec.name">h264</property>
  <property name="meta.media.0.codec.long_name">H.264 / AVC / MPEG-4 AVC / MPEG-4 part 10</property>
  <property name="meta.media.0.codec.bit_rate">6693839</property>
  <property name="meta.attr.0.stream.handler_name.markup">VideoHandler</property>
  <property name="meta.media.1.stream.type">audio</property>
  <property name="meta.media.1.codec.sample_fmt">fltp</property>
  <property name="meta.media.1.codec.sample_rate">48000</property>
  <property name="meta.media.1.codec.channels">2</property>
  <property name="meta.media.1.codec.name">ac3</property>
  <property name="meta.media.1.codec.long_name">ATSC A/52A (AC-3)</property>
  <property name="meta.media.1.codec.bit_rate">256000</property>
  <property name="meta.attr.1.stream.handler_name.markup">SoundHandler</property>
  <property name="meta.attr.major_brand.markup">isom</property>
  <property name="meta.attr.minor_version.markup">512</property>
  <property name="meta.attr.compatible_brands.markup">isomiso2avc1mp41</property>
  <property name="meta.attr.encoder.markup">Lavf58.45.100</property>
  <property name="meta.media.sample_aspect_num">4</property>
  <property name="meta.media.sample_aspect_den">3</property>
  <property name="meta.media.frame_rate_num">509355000</property>
  <property name="meta.media.frame_rate_den">8497739</property>
  <property name="meta.media.colorspace">709</property>
  <property name="meta.media.color_trc">2</property>
  <property name="meta.media.width">1440</property>
  <property name="meta.media.height">1080</property>
  <property name="meta.media.color_range">mpeg</property>
  <property name="meta.media.top_field_first">1</property>
  <property name="meta.media.progressive">0</property>
  <property name="set.test_audio">1</property>
  <property name="set.test_image">1</property>
 </producer>
 <producer id="producer240" in="00:00:00.000" out="00:04:52.700">
  <property name="length">8782</property>
  <property name="eof">pause</property>
  <property name="resource">content/musicians/2021-06-02_Sarah_kit_mac_00048-take2_from14.mp4</property>
  <property name="audio_index">1</property>
  <property name="video_index">0</property>
  <property name="mute_on_pause">0</property>
  <property name="mlt_service">avformat-novalidate</property>
  <property name="seekable">1</property>
  <property name="aspect_ratio">1.33333</property>
  <property name="kdenlive:clipname"/>
  <property name="kdenlive:folderid">65</property>
  <property name="kdenlive:id">36</property>
  <property name="kdenlive:file_size">254454287</property>
  <property name="kdenlive:file_hash">1cc2880d6f1c485ab826f9cbb3cd87b3</property>
  <property name="kdenlive:audio_max">1</property>
  <property name="global_feed">1</property>
  <property name="kdenlive:activeeffect">-1</property>
  <property name="xml">was here</property>
  <property name="meta.media.nb_streams">2</property>
  <property name="meta.media.0.stream.type">video</property>
  <property name="meta.media.0.stream.frame_rate">59.9401</property>
  <property name="meta.media.0.stream.sample_aspect_ratio">1.33333</property>
  <property name="meta.media.0.codec.width">1440</property>
  <property name="meta.media.0.codec.height">1080</property>
  <property name="meta.media.0.codec.rotate">0</property>
  <property name="meta.media.0.codec.frame_rate">29.97</property>
  <property name="meta.media.0.codec.pix_fmt">yuv420p</property>
  <property name="meta.media.0.codec.sample_aspect_ratio">1.33333</property>
  <property name="meta.media.0.codec.colorspace">709</property>
  <property name="meta.media.0.codec.name">h264</property>
  <property name="meta.media.0.codec.long_name">H.264 / AVC / MPEG-4 AVC / MPEG-4 part 10</property>
  <property name="meta.media.0.codec.bit_rate">6690719</property>
  <property name="meta.attr.0.stream.handler_name.markup">VideoHandler</property>
  <property name="meta.media.1.stream.type">audio</property>
  <property name="meta.media.1.codec.sample_fmt">fltp</property>
  <property name="meta.media.1.codec.sample_rate">48000</property>
  <property name="meta.media.1.codec.channels">2</property>
  <property name="meta.media.1.codec.name">ac3</property>
  <property name="meta.media.1.codec.long_name">ATSC A/52A (AC-3)</property>
  <property name="meta.media.1.codec.bit_rate">256000</property>
  <property name="meta.attr.1.stream.handler_name.markup">SoundHandler</property>
  <property name="meta.attr.major_brand.markup">isom</property>
  <property name="meta.attr.minor_version.markup">512</property>
  <property name="meta.attr.compatible_brands.markup">isomiso2avc1mp41</property>
  <property name="meta.attr.encoder.markup">Lavf58.45.100</property>
  <property name="meta.media.sample_aspect_num">4</property>
  <property name="meta.media.sample_aspect_den">3</property>
  <property name="meta.media.frame_rate_num">60000</property>
  <property name="meta.media.frame_rate_den">1001</property>
  <property name="meta.media.colorspace">709</property>
  <property name="meta.media.color_trc">2</property>
  <property name="meta.media.width">1440</property>
  <property name="meta.media.height">1080</property>
  <property name="meta.media.color_range">mpeg</property>
  <property name="meta.media.top_field_first">1</property>
  <property name="meta.media.progressive">0</property>
  <property name="set.test_audio">1</property>
  <property name="set.test_image">1</property>
 </producer>
 <producer id="producer241" in="00:00:00.000" out="00:01:03.500">
  <property name="length">1907</property>
  <property name="eof">pause</property>
  <property name="resource">/home/ryankelln/.cache/kdenlive/proxy/fdb3e276694f668e0990c495ac3526f0.mkv</property>
  <property name="audio_index">-1</property>
  <property name="video_index">0</property>
  <property name="mute_on_pause">0</property>
  <property name="mlt_service">avformat-novalidate</property>
  <property name="seekable">1</property>
  <property name="aspect_ratio">1</property>
  <property name="kdenlive:clipname">SunsetWavesCloseUpH264_Beachfront-B-roll.mp4</property>
  <property name="kdenlive:folderid">102</property>
  <property name="kdenlive:id">163</property>
  <property name="kdenlive:file_size">355994478</property>
  <property name="kdenlive:file_hash">fdb3e276694f668e0990c495ac3526f0</property>
  <property name="kdenlive:proxy">/home/ryankelln/.cache/kdenlive/proxy/fdb3e276694f668e0990c495ac3526f0.mkv</property>
  <property name="kdenlive:originalurl">content/footage/SunsetWavesCloseUpH264_Beachfront-B-roll.mp4</property>
  <property name="kdenlive:original.mlt_type">producer</property>
  <property name="kdenlive:original.in">0</property>
  <property name="kdenlive:original.out">1906</property>
  <property name="kdenlive:original.length">1907</property>
  <property name="kdenlive:original.eof">pause</property>
  <property name="kdenlive:original.resource">content/footage/SunsetWavesCloseUpH264_Beachfront-B-roll.mp4</property>
  <property name="kdenlive:original.meta.media.nb_streams">1</property>
  <property name="kdenlive:original.meta.media.0.stream.type">video</property>
  <property name="kdenlive:original.meta.media.0.stream.frame_rate">29.97</property>
  <property name="kdenlive:original.meta.media.0.stream.sample_aspect_ratio">0</property>
  <property name="kdenlive:original.meta.media.0.codec.width">1920</property>
  <property name="kdenlive:original.meta.media.0.codec.height">1080</property>
  <property name="kdenlive:original.meta.media.0.codec.rotate">0</property>
  <property name="kdenlive:original.meta.media.0.codec.frame_rate">29.97</property>
  <property name="kdenlive:original.meta.media.0.codec.pix_fmt">yuv420p</property>
  <property name="kdenlive:original.meta.media.0.codec.sample_aspect_ratio">1</property>
  <property name="kdenlive:original.meta.media.0.codec.colorspace">709</property>
  <property name="kdenlive:original.meta.media.0.codec.name">h264</property>
  <property name="kdenlive:original.meta.media.0.codec.long_name">H.264 / AVC / MPEG-4 AVC / MPEG-4 part 10</property>
  <property name="kdenlive:original.meta.media.0.codec.bit_rate">44801565</property>
  <property name="kdenlive:original.meta.attr.0.stream.creation_time.markup">2013-08-13T23:31:21.000000Z</property>
  <property name="kdenlive:original.meta.attr.0.stream.language.markup">eng</property>
  <property name="kdenlive:original.meta.attr.0.stream.handler_name.markup">Mainconcept MP4 Video Media Handler</property>
  <property name="kdenlive:original.meta.attr.0.stream.encoder.markup">AVC Coding</property>
  <property name="kdenlive:original.meta.attr.major_brand.markup">mp42</property>
  <property name="kdenlive:original.meta.attr.minor_version.markup">0</property>
  <property name="kdenlive:original.meta.attr.compatible_brands.markup">mp42mp41</property>
  <property name="kdenlive:original.meta.attr.creation_time.markup">2013-08-13T23:31:21.000000Z</property>
  <property name="kdenlive:original.seekable">1</property>
  <property name="kdenlive:original.width">1920</property>
  <property name="kdenlive:original.height">1080</property>
  <property name="kdenlive:original.meta.media.sample_aspect_num">1</property>
  <property name="kdenlive:original.meta.media.sample_aspect_den">1</property>
  <property name="kdenlive:original.aspect_ratio">1</property>
  <property name="kdenlive:original.audio_index">-1</property>
  <property name="kdenlive:original.video_index">0</property>
  <property name="kdenlive:original.mute_on_pause">0</property>
  <property name="kdenlive:original.mlt_service">avformat-novalidate</property>
  <property name="kdenlive:original.kdenlive:folderid">102</property>
  <property name="kdenlive:original.meta.media.frame_rate_num">2997</property>
  <property name="kdenlive:original.meta.media.frame_rate_den">100</property>
  <property name="kdenlive:original.meta.media.colorspace">709</property>
  <property name="kdenlive:original.meta.media.color_trc">2</property>
  <property name="kdenlive:original.meta.media.width">1920</property>
  <property name="kdenlive:original.meta.media.height">1080</property>
  <property name="kdenlive:original.meta.media.color_range">mpeg</property>
  <property name="kdenlive:original.kdenlive:id">163</property>
  <property name="kdenlive:original.kdenlive:file_size">355994478</property>
  <property name="kdenlive:original.kdenlive:file_hash">fdb3e276694f668e0990c495ac3526f0</property>
  <property name="kdenlive:original.backup">1</property>
  <property name="global_feed">1</property>
  <property name="xml">was here</property>
  <property name="meta.media.nb_streams">1</property>
  <property name="meta.media.0.stream.type">video</property>
  <property name="meta.media.0.stream.frame_rate">29.97</property>
  <property name="meta.media.0.stream.sample_aspect_ratio">1</property>
  <property name="meta.media.0.codec.width">960</property>
  <property name="meta.media.0.codec.height">540</property>
  <property name="meta.media.0.codec.rotate">0</property>
  <property name="meta.media.0.codec.frame_rate">1000</property>
  <property name="meta.media.0.codec.pix_fmt">yuvj420p</property>
  <property name="meta.media.0.codec.sample_aspect_ratio">1</property>
  <property name="meta.media.0.codec.colorspace">601</property>
  <property name="meta.media.0.codec.name">mjpeg</property>
  <property name="meta.media.0.codec.long_name">MJPEG (Motion JPEG)</property>
  <property name="meta.media.0.codec.bit_rate">0</property>
  <property name="meta.attr.0.stream.language.markup">eng</property>
  <property name="meta.attr.0.stream.HANDLER_NAME.markup">Mainconcept MP4 Video Media Handler</property>
  <property name="meta.attr.0.stream.ENCODER.markup">Lavc58.91.100 mjpeg</property>
  <property name="meta.attr.0.stream.DURATION.markup">00:01:03.530000000</property>
  <property name="meta.attr.COMPATIBLE_BRANDS.markup">mp42mp41</property>
  <property name="meta.attr.MAJOR_BRAND.markup">mp42</property>
  <property name="meta.attr.MINOR_VERSION.markup">0</property>
  <property name="meta.attr.ENCODER.markup">Lavf58.45.100</property>
  <property name="meta.media.sample_aspect_num">1</property>
  <property name="meta.media.sample_aspect_den">1</property>
  <property name="meta.media.frame_rate_num">2997</property>
  <property name="meta.media.frame_rate_den">100</property>
  <property name="meta.media.colorspace">601</property>
  <property name="meta.media.color_trc">2</property>
  <property name="meta.media.width">960</property>
  <property name="meta.media.height">540</property>
  <property name="meta.media.color_range">full</property>
  <property name="meta.media.top_field_first">0</property>
  <property name="meta.media.progressive">1</property>
  <property name="set.test_audio">1</property>
  <property name="set.test_image">0</property>
 </producer>
 <playlist id="playlist14">
  <blank length="00:00:05.233"/>
  <entry producer="producer239" in="00:00:00.000" out="00:01:18.433">
   <property name="kdenlive:id">35</property>
  </entry>
  <blank length="00:00:00.267"/>
  <entry producer="producer240" in="00:00:06.600" out="00:02:56.467">
   <property name="kdenlive:id">36</property>
  </entry>
  <blank length="00:02:23.300"/>
  <entry producer="producer241" in="00:00:00.000" out="00:00:31.200">
   <property name="kdenlive:id">163</property>
   <filter id="filter224" out="00:00:03.033">
    <property name="start">0</property>
    <property name="mlt_service">brightness</property>
    <property name="kdenlive_id">fade_from_black</property>
    <property name="end">1</property>
    <property name="alpha">-1</property>
    <property name="kdenlive:collapsed">0</property>
   </filter>
  </entry>
 </playlist>
 <playlist id="playlist15"/>
 <tractor id="tractor7" in="00:00:00.000" out="00:07:08.367">
  <property name="kdenlive:trackheight">69</property>
  <property name="kdenlive:timeline_active">1</property>
  <property name="kdenlive:collapsed">28</property>
  <property name="kdenlive:thumbs_format"/>
  <property name="kdenlive:audio_rec"/>
  <track hide="audio" producer="playlist14"/>
  <track producer="playlist15"/>
 </tractor>
 <producer id="producer242" in="00:00:00.000" out="00:02:43.867">
  <property name="length">4917</property>
  <property name="eof">pause</property>
  <property name="resource">content/musicians/2021-06-02_07-59-19_Sarah_kit_mac_MVI_6068-take1.MP4</property>
  <property name="audio_index">1</property>
  <property name="video_index">0</property>
  <property name="mute_on_pause">0</property>
  <property name="mlt_service">avformat-novalidate</property>
  <property name="seekable">1</property>
  <property name="aspect_ratio">1</property>
  <property name="kdenlive:clipname"/>
  <property name="kdenlive:folderid">65</property>
  <property name="kdenlive:id">34</property>
  <property name="kdenlive:file_size">617146523</property>
  <property name="kdenlive:file_hash">afac6fb3f60872e9d4bce991c8ada7f7</property>
  <property name="kdenlive:audio_max">1</property>
  <property name="global_feed">1</property>
  <property name="xml">was here</property>
  <property name="meta.media.nb_streams">2</property>
  <property name="meta.media.0.stream.type">video</property>
  <property name="meta.media.0.stream.frame_rate">29.97</property>
  <property name="meta.media.0.stream.sample_aspect_ratio">0</property>
  <property name="meta.media.0.codec.width">1920</property>
  <property name="meta.media.0.codec.height">1080</property>
  <property name="meta.media.0.codec.rotate">0</property>
  <property name="meta.media.0.codec.frame_rate">30000</property>
  <property name="meta.media.0.codec.pix_fmt">yuvj420p</property>
  <property name="meta.media.0.codec.sample_aspect_ratio">0</property>
  <property name="meta.media.0.codec.colorspace">709</property>
  <property name="meta.media.0.codec.color_trc">1</property>
  <property name="meta.media.0.codec.name">h264</property>
  <property name="meta.media.0.codec.long_name">H.264 / AVC / MPEG-4 AVC / MPEG-4 part 10</property>
  <property name="meta.media.0.codec.bit_rate">29860072</property>
  <property name="meta.attr.0.stream.creation_time.markup">2021-06-02T07:59:19.000000Z</property>
  <property name="meta.attr.0.stream.language.markup">eng</property>
  <property name="meta.attr.0.stream.handler_name.markup">VideoHandler</property>
  <property name="meta.media.1.stream.type">audio</property>
  <property name="meta.media.1.codec.sample_fmt">fltp</property>
  <property name="meta.media.1.codec.sample_rate">48000</property>
  <property name="meta.media.1.codec.channels">2</property>
  <property name="meta.media.1.codec.name">aac</property>
  <property name="meta.media.1.codec.long_name">AAC (Advanced Audio Coding)</property>
  <property name="meta.media.1.codec.bit_rate">254996</property>
  <property name="meta.attr.1.stream.creation_time.markup">2021-06-02T07:59:19.000000Z</property>
  <property name="meta.attr.1.stream.language.markup">eng</property>
  <property name="meta.attr.1.stream.handler_name.markup">SoundHandler</property>
  <property name="meta.attr.major_brand.markup">isom</property>
  <property name="meta.attr.minor_version.markup">512</property>
  <property name="meta.attr.compatible_brands.markup">isomiso2avc1mp41</property>
  <property name="meta.attr.creation_time.markup">2021-06-02T07:59:19.000000Z</property>
  <property name="meta.attr.encoder.markup">Lavf58.45.100</property>
  <property name="meta.media.sample_aspect_num">1</property>
  <property name="meta.media.sample_aspect_den">1</property>
  <property name="meta.media.frame_rate_num">30000</property>
  <property name="meta.media.frame_rate_den">1001</property>
  <property name="meta.media.colorspace">709</property>
  <property name="meta.media.color_trc">1</property>
  <property name="meta.media.width">1920</property>
  <property name="meta.media.height">1080</property>
  <property name="meta.media.color_range">full</property>
  <property name="meta.media.top_field_first">0</property>
  <property name="meta.media.progressive">1</property>
  <property name="set.test_audio">1</property>
  <property name="set.test_image">1</property>
 </producer>
 <producer id="producer243" in="00:00:00.000" out="00:04:53.133">
  <property name="length">8795</property>
  <property name="eof">pause</property>
  <property name="resource">content/musicians/2021-06-02_155932_Sarah_kit+handheld_mac-take2_from_section2.mp4</property>
  <property name="audio_index">1</property>
  <property name="video_index">0</property>
  <property name="mute_on_pause">0</property>
  <property name="mlt_service">avformat-novalidate</property>
  <property name="seekable">1</property>
  <property name="aspect_ratio">1</property>
  <property name="kdenlive:clipname"/>
  <property name="kdenlive:folderid">65</property>
  <property name="kdenlive:id">32</property>
  <property name="kdenlive:file_size">929758399</property>
  <property name="kdenlive:file_hash">09da2a0eb79256ea5bbec7651979130e</property>
  <property name="kdenlive:audio_max">3</property>
  <property name="global_feed">1</property>
  <property name="xml">was here</property>
  <property name="meta.media.nb_streams">2</property>
  <property name="meta.media.0.stream.type">video</property>
  <property name="meta.media.0.stream.frame_rate">59.9401</property>
  <property name="meta.media.0.stream.sample_aspect_ratio">1</property>
  <property name="meta.media.0.codec.width">1920</property>
  <property name="meta.media.0.codec.height">1080</property>
  <property name="meta.media.0.codec.rotate">0</property>
  <property name="meta.media.0.codec.frame_rate">59.9401</property>
  <property name="meta.media.0.codec.pix_fmt">yuv420p</property>
  <property name="meta.media.0.codec.sample_aspect_ratio">1</property>
  <property name="meta.media.0.codec.colorspace">709</property>
  <property name="meta.media.0.codec.name">h264</property>
  <property name="meta.media.0.codec.long_name">H.264 / AVC / MPEG-4 AVC / MPEG-4 part 10</property>
  <property name="meta.media.0.codec.bit_rate">24976885</property>
  <property name="meta.attr.0.stream.handler_name.markup">VideoHandler</property>
  <property name="meta.media.1.stream.type">audio</property>
  <property name="meta.media.1.codec.sample_fmt">fltp</property>
  <property name="meta.media.1.codec.sample_rate">48000</property>
  <property name="meta.media.1.codec.channels">6</property>
  <property name="meta.media.1.codec.name">ac3</property>
  <property name="meta.media.1.codec.long_name">ATSC A/52A (AC-3)</property>
  <property name="meta.media.1.codec.bit_rate">448000</property>
  <property name="meta.attr.1.stream.handler_name.markup">SoundHandler</property>
  <property name="meta.attr.major_brand.markup">isom</property>
  <property name="meta.attr.minor_version.markup">512</property>
  <property name="meta.attr.compatible_brands.markup">isomiso2avc1mp41</property>
  <property name="meta.attr.encoder.markup">Lavf58.45.100</property>
  <property name="meta.media.sample_aspect_num">1</property>
  <property name="meta.media.sample_aspect_den">1</property>
  <property name="meta.media.frame_rate_num">1577610000</property>
  <property name="meta.media.frame_rate_den">26319793</property>
  <property name="meta.media.colorspace">709</property>
  <property name="meta.media.color_trc">2</property>
  <property name="meta.media.width">1920</property>
  <property name="meta.media.height">1080</property>
  <property name="meta.media.color_range">mpeg</property>
  <property name="meta.media.top_field_first">0</property>
  <property name="meta.media.progressive">1</property>
  <property name="set.test_audio">1</property>
  <property name="set.test_image">1</property>
 </producer>
 <producer id="producer244" in="00:00:00.000" out="00:02:03.400">
  <property name="length">3703</property>
  <property name="eof">pause</property>
  <property name="resource">content/musicians/2021-06-02_160526_Sarah_kit+handheld_mac-take3_end.mp4</property>
  <property name="audio_index">1</property>
  <property name="video_index">0</property>
  <property name="mute_on_pause">0</property>
  <property name="mlt_service">avformat-novalidate</property>
  <property name="seekable">1</property>
  <property name="aspect_ratio">1</property>
  <property name="kdenlive:clipname"/>
  <property name="kdenlive:folderid">65</property>
  <property name="kdenlive:id">33</property>
  <property name="kdenlive:file_size">389637058</property>
  <property name="kdenlive:file_hash">2d6ee61718869f81d2ba70da572529df</property>
  <property name="kdenlive:audio_max">4</property>
  <property name="global_feed">1</property>
  <property name="xml">was here</property>
  <property name="meta.media.nb_streams">2</property>
  <property name="meta.media.0.stream.type">video</property>
  <property name="meta.media.0.stream.frame_rate">59.9401</property>
  <property name="meta.media.0.stream.sample_aspect_ratio">1</property>
  <property name="meta.media.0.codec.width">1920</property>
  <property name="meta.media.0.codec.height">1080</property>
  <property name="meta.media.0.codec.rotate">0</property>
  <property name="meta.media.0.codec.frame_rate">59.9401</property>
  <property name="meta.media.0.codec.pix_fmt">yuv420p</property>
  <property name="meta.media.0.codec.sample_aspect_ratio">1</property>
  <property name="meta.media.0.codec.colorspace">709</property>
  <property name="meta.media.0.codec.name">h264</property>
  <property name="meta.media.0.codec.long_name">H.264 / AVC / MPEG-4 AVC / MPEG-4 part 10</property>
  <property name="meta.media.0.codec.bit_rate">24967733</property>
  <property name="meta.attr.0.stream.handler_name.markup">VideoHandler</property>
  <property name="meta.media.1.stream.type">audio</property>
  <property name="meta.media.1.codec.sample_fmt">fltp</property>
  <property name="meta.media.1.codec.sample_rate">48000</property>
  <property name="meta.media.1.codec.channels">6</property>
  <property name="meta.media.1.codec.name">ac3</property>
  <property name="meta.media.1.codec.long_name">ATSC A/52A (AC-3)</property>
  <property name="meta.media.1.codec.bit_rate">448000</property>
  <property name="meta.attr.1.stream.handler_name.markup">SoundHandler</property>
  <property name="meta.attr.major_brand.markup">isom</property>
  <property name="meta.attr.minor_version.markup">512</property>
  <property name="meta.attr.compatible_brands.markup">isomiso2avc1mp41</property>
  <property name="meta.attr.encoder.markup">Lavf58.45.100</property>
  <property name="meta.media.sample_aspect_num">1</property>
  <property name="meta.media.sample_aspect_den">1</property>
  <property name="meta.media.frame_rate_num">661320000</property>
  <property name="meta.media.frame_rate_den">11033021</property>
  <property name="meta.media.colorspace">709</property>
  <property name="meta.media.color_trc">2</property>
  <property name="meta.media.width">1920</property>
  <property name="meta.media.height">1080</property>
  <property name="meta.media.color_range">mpeg</property>
  <property name="meta.media.top_field_first">0</property>
  <property name="meta.media.progressive">1</property>
  <property name="set.test_audio">1</property>
  <property name="set.test_image">1</property>
 </producer>
 <playlist id="playlist16">
  <blank length="00:00:11.533"/>
  <entry producer="producer242" in="00:00:00.000" out="00:01:12.133">
   <property name="kdenlive:id">34</property>
  </entry>
  <blank length="00:00:00.267"/>
  <entry producer="producer243" in="00:00:05.600" out="00:03:55.467">
   <property name="kdenlive:id">32</property>
  </entry>
  <entry producer="producer244" in="00:00:01.167" out="00:02:03.400">
   <property name="kdenlive:id">33</property>
  </entry>
 </playlist>
 <playlist id="playlist17"/>
 <tractor id="tractor8" in="00:00:00.000" out="00:07:16.100">
  <property name="kdenlive:trackheight">69</property>
  <property name="kdenlive:timeline_active">1</property>
  <property name="kdenlive:collapsed">28</property>
  <property name="kdenlive:thumbs_format"/>
  <property name="kdenlive:audio_rec"/>
  <track hide="both" producer="playlist16"/>
  <track producer="playlist17"/>
 </tractor>
 <producer id="producer245" in="00:00:00.000" out="00:03:11.667">
  <property name="length">5751</property>
  <property name="eof">pause</property>
  <property name="resource">content/musicians/2021-02-06_Caleb_electric_mac_MVI_6045-take1_beginning.mkv</property>
  <property name="audio_index">1</property>
  <property name="video_index">0</property>
  <property name="mute_on_pause">0</property>
  <property name="mlt_service">avformat-novalidate</property>
  <property name="seekable">1</property>
  <property name="aspect_ratio">1</property>
  <property name="kdenlive:clipname"/>
  <property name="kdenlive:folderid">65</property>
  <property name="kdenlive:id">40</property>
  <property name="kdenlive:file_size">777267331</property>
  <property name="kdenlive:file_hash">b2aa46889a4a516e62018580cde338da</property>
  <property name="kdenlive:audio_max">1</property>
  <property name="global_feed">1</property>
  <property name="xml">was here</property>
  <property name="meta.media.nb_streams">2</property>
  <property name="meta.media.0.stream.type">video</property>
  <property name="meta.media.0.stream.frame_rate">29.97</property>
  <property name="meta.media.0.stream.sample_aspect_ratio">0</property>
  <property name="meta.media.0.codec.width">1280</property>
  <property name="meta.media.0.codec.height">720</property>
  <property name="meta.media.0.codec.rotate">0</property>
  <property name="meta.media.0.codec.frame_rate">1000</property>
  <property name="meta.media.0.codec.pix_fmt">yuvj420p</property>
  <property name="meta.media.0.codec.sample_aspect_ratio">0</property>
  <property name="meta.media.0.codec.colorspace">601</property>
  <property name="meta.media.0.codec.color_trc">1</property>
  <property name="meta.media.0.codec.name">h264</property>
  <property name="meta.media.0.codec.long_name">H.264 / AVC / MPEG-4 AVC / MPEG-4 part 10</property>
  <property name="meta.media.0.codec.bit_rate">0</property>
  <property name="meta.attr.0.stream.language.markup">eng</property>
  <property name="meta.attr.0.stream.DURATION.markup">00:03:11.691000000</property>
  <property name="meta.media.1.stream.type">audio</property>
  <property name="meta.media.1.codec.sample_fmt">s16</property>
  <property name="meta.media.1.codec.sample_rate">48000</property>
  <property name="meta.media.1.codec.channels">1</property>
  <property name="meta.media.1.codec.name">pcm_s16le</property>
  <property name="meta.media.1.codec.long_name">PCM signed 16-bit little-endian</property>
  <property name="meta.media.1.codec.bit_rate">768000</property>
  <property name="meta.attr.1.stream.language.markup">eng</property>
  <property name="meta.attr.1.stream.DURATION.markup">00:03:11.703000000</property>
  <property name="meta.attr.COMPATIBLE_BRANDS.markup">qt  CAEP</property>
  <property name="meta.attr.creation_time.markup">2021-06-02T15:47:37.000000Z</property>
  <property name="meta.attr.MAJOR_BRAND.markup">qt  </property>
  <property name="meta.attr.MINOR_VERSION.markup">537331968</property>
  <property name="meta.attr.ENCODER.markup">Lavf58.45.100</property>
  <property name="meta.media.sample_aspect_num">1</property>
  <property name="meta.media.sample_aspect_den">1</property>
  <property name="meta.media.frame_rate_num">30000</property>
  <property name="meta.media.frame_rate_den">1001</property>
  <property name="meta.media.colorspace">601</property>
  <property name="meta.media.color_trc">1</property>
  <property name="meta.media.width">1280</property>
  <property name="meta.media.height">720</property>
  <property name="meta.media.color_range">full</property>
  <property name="meta.media.top_field_first">0</property>
  <property name="meta.media.progressive">1</property>
  <property name="set.test_audio">1</property>
  <property name="set.test_image">1</property>
 </producer>
 <producer id="producer246" in="00:00:00.000" out="00:04:57.333">
  <property name="length">8921</property>
  <property name="eof">pause</property>
  <property name="resource">content/musicians/2021-02-06_Caleb_electric_mac_MVI_6045-take2_piano_to_end.mkv</property>
  <property name="audio_index">1</property>
  <property name="video_index">0</property>
  <property name="mute_on_pause">0</property>
  <property name="mlt_service">avformat-novalidate</property>
  <property name="seekable">1</property>
  <property name="aspect_ratio">1</property>
  <property name="kdenlive:clipname"/>
  <property name="kdenlive:folderid">65</property>
  <property name="kdenlive:id">41</property>
  <property name="kdenlive:file_size">1201157265</property>
  <property name="kdenlive:file_hash">64977837141acc18cb20bcc4930e479b</property>
  <property name="kdenlive:audio_max">1</property>
  <property name="global_feed">1</property>
  <property name="xml">was here</property>
  <property name="meta.media.nb_streams">2</property>
  <property name="meta.media.0.stream.type">video</property>
  <property name="meta.media.0.stream.frame_rate">29.97</property>
  <property name="meta.media.0.stream.sample_aspect_ratio">0</property>
  <property name="meta.media.0.codec.width">1280</property>
  <property name="meta.media.0.codec.height">720</property>
  <property name="meta.media.0.codec.rotate">0</property>
  <property name="meta.media.0.codec.frame_rate">1000</property>
  <property name="meta.media.0.codec.pix_fmt">yuvj420p</property>
  <property name="meta.media.0.codec.sample_aspect_ratio">0</property>
  <property name="meta.media.0.codec.colorspace">601</property>
  <property name="meta.media.0.codec.color_trc">1</property>
  <property name="meta.media.0.codec.name">h264</property>
  <property name="meta.media.0.codec.long_name">H.264 / AVC / MPEG-4 AVC / MPEG-4 part 10</property>
  <property name="meta.media.0.codec.bit_rate">0</property>
  <property name="meta.attr.0.stream.language.markup">eng</property>
  <property name="meta.attr.0.stream.DURATION.markup">00:04:57.374000000</property>
  <property name="meta.media.1.stream.type">audio</property>
  <property name="meta.media.1.codec.sample_fmt">s16</property>
  <property name="meta.media.1.codec.sample_rate">48000</property>
  <property name="meta.media.1.codec.channels">1</property>
  <property name="meta.media.1.codec.name">pcm_s16le</property>
  <property name="meta.media.1.codec.long_name">PCM signed 16-bit little-endian</property>
  <property name="meta.media.1.codec.bit_rate">768000</property>
  <property name="meta.attr.1.stream.language.markup">eng</property>
  <property name="meta.attr.1.stream.DURATION.markup">00:04:57.382000000</property>
  <property name="meta.attr.COMPATIBLE_BRANDS.markup">qt  CAEP</property>
  <property name="meta.attr.creation_time.markup">2021-06-02T15:47:37.000000Z</property>
  <property name="meta.attr.MAJOR_BRAND.markup">qt  </property>
  <property name="meta.attr.MINOR_VERSION.markup">537331968</property>
  <property name="meta.attr.ENCODER.markup">Lavf58.45.100</property>
  <property name="meta.media.sample_aspect_num">1</property>
  <property name="meta.media.sample_aspect_den">1</property>
  <property name="meta.media.frame_rate_num">30000</property>
  <property name="meta.media.frame_rate_den">1001</property>
  <property name="meta.media.colorspace">601</property>
  <property name="meta.media.color_trc">1</property>
  <property name="meta.media.width">1280</property>
  <property name="meta.media.height">720</property>
  <property name="meta.media.color_range">full</property>
  <property name="meta.media.top_field_first">0</property>
  <property name="meta.media.progressive">1</property>
  <property name="set.test_audio">1</property>
  <property name="set.test_image">1</property>
 </producer>
 <producer id="producer247" in="00:00:00.000" out="00:01:47.700">
  <property name="length">3232</property>
  <property name="eof">pause</property>
  <property name="resource">content/musicians/2021-02-06_Caleb_electric_mac_MVI_6045-take3_ending.mkv</property>
  <property name="audio_index">1</property>
  <property name="video_index">0</property>
  <property name="mute_on_pause">0</property>
  <property name="mlt_service">avformat-novalidate</property>
  <property name="seekable">1</property>
  <property name="aspect_ratio">1</property>
  <property name="kdenlive:clipname"/>
  <property name="kdenlive:folderid">65</property>
  <property name="kdenlive:id">42</property>
  <property name="kdenlive:file_size">416319706</property>
  <property name="kdenlive:file_hash">9a8ad7790e050184c7a388ffc12d9b15</property>
  <property name="kdenlive:audio_max">1</property>
  <property name="global_feed">1</property>
  <property name="xml">was here</property>
  <property name="meta.media.nb_streams">2</property>
  <property name="meta.media.0.stream.type">video</property>
  <property name="meta.media.0.stream.frame_rate">29.97</property>
  <property name="meta.media.0.stream.sample_aspect_ratio">0</property>
  <property name="meta.media.0.codec.width">1280</property>
  <property name="meta.media.0.codec.height">720</property>
  <property name="meta.media.0.codec.rotate">0</property>
  <property name="meta.media.0.codec.frame_rate">1000</property>
  <property name="meta.media.0.codec.pix_fmt">yuvj420p</property>
  <property name="meta.media.0.codec.sample_aspect_ratio">0</property>
  <property name="meta.media.0.codec.colorspace">601</property>
  <property name="meta.media.0.codec.color_trc">1</property>
  <property name="meta.media.0.codec.name">h264</property>
  <property name="meta.media.0.codec.long_name">H.264 / AVC / MPEG-4 AVC / MPEG-4 part 10</property>
  <property name="meta.media.0.codec.bit_rate">0</property>
  <property name="meta.attr.0.stream.language.markup">eng</property>
  <property name="meta.attr.0.stream.DURATION.markup">00:01:47.750000000</property>
  <property name="meta.media.1.stream.type">audio</property>
  <property name="meta.media.1.codec.sample_fmt">s16</property>
  <property name="meta.media.1.codec.sample_rate">48000</property>
  <property name="meta.media.1.codec.channels">1</property>
  <property name="meta.media.1.codec.name">pcm_s16le</property>
  <property name="meta.media.1.codec.long_name">PCM signed 16-bit little-endian</property>
  <property name="meta.media.1.codec.bit_rate">768000</property>
  <property name="meta.attr.1.stream.language.markup">eng</property>
  <property name="meta.attr.1.stream.DURATION.markup">00:01:47.724000000</property>
  <property name="meta.attr.COMPATIBLE_BRANDS.markup">qt  CAEP</property>
  <property name="meta.attr.creation_time.markup">2021-06-02T15:47:37.000000Z</property>
  <property name="meta.attr.MAJOR_BRAND.markup">qt  </property>
  <property name="meta.attr.MINOR_VERSION.markup">537331968</property>
  <property name="meta.attr.ENCODER.markup">Lavf58.45.100</property>
  <property name="meta.media.sample_aspect_num">1</property>
  <property name="meta.media.sample_aspect_den">1</property>
  <property name="meta.media.frame_rate_num">30000</property>
  <property name="meta.media.frame_rate_den">1001</property>
  <property name="meta.media.colorspace">601</property>
  <property name="meta.media.color_trc">1</property>
  <property name="meta.media.width">1280</property>
  <property name="meta.media.height">720</property>
  <property name="meta.media.color_range">full</property>
  <property name="meta.media.top_field_first">0</property>
  <property name="meta.media.progressive">1</property>
  <property name="set.test_audio">1</property>
  <property name="set.test_image">1</property>
 </producer>
 <playlist id="playlist18">
  <blank length="00:00:03.800"/>
  <entry producer="producer245" in="00:00:00.000" out="00:01:34.433">
   <property name="kdenlive:id">40</property>
  </entry>
  <entry producer="producer246" in="00:00:07.967" out="00:03:43.533">
   <property name="kdenlive:id">41</property>
  </entry>
  <blank length="00:01:02.667"/>
  <entry producer="producer247" in="00:00:00.000" out="00:01:47.700">
   <property name="kdenlive:id">42</property>
  </entry>
 </playlist>
 <playlist id="playlist19"/>
 <tractor id="tractor9" in="00:00:00.000" out="00:08:04.233">
  <property name="kdenlive:trackheight">69</property>
  <property name="kdenlive:timeline_active">1</property>
  <property name="kdenlive:collapsed">28</property>
  <property name="kdenlive:track_name">caleb</property>
  <property name="kdenlive:thumbs_format"/>
  <property name="kdenlive:audio_rec"/>
  <track hide="audio" producer="playlist18"/>
  <track producer="playlist19"/>
 </tractor>
 <producer id="producer248" in="00:00:00.000" out="00:01:19.233">
  <property name="length">2378</property>
  <property name="eof">pause</property>
  <property name="resource">/home/ryankelln/.cache/kdenlive/proxy/18348eb9ea11369b7bc0f37eefd51236.mkv</property>
  <property name="audio_index">1</property>
  <property name="video_index">0</property>
  <property name="mute_on_pause">0</property>
  <property name="mlt_service">avformat-novalidate</property>
  <property name="seekable">1</property>
  <property name="aspect_ratio">1</property>
  <property name="kdenlive:clipname">2021-06-02_Caleb_electric+4k_mac_P1000548-take1_beginning.MP4</property>
  <property name="kdenlive:folderid">65</property>
  <property name="kdenlive:id">45</property>
  <property name="kdenlive:file_size">950927306</property>
  <property name="kdenlive:file_hash">18348eb9ea11369b7bc0f37eefd51236</property>
  <property name="kdenlive:proxy">/home/ryankelln/.cache/kdenlive/proxy/18348eb9ea11369b7bc0f37eefd51236.mkv</property>
  <property name="kdenlive:originalurl">content/musicians/2021-06-02_Caleb_electric+4k_mac_P1000548-take1_beginning.MP4</property>
  <property name="kdenlive:original.mlt_type">producer</property>
  <property name="kdenlive:original.in">0</property>
  <property name="kdenlive:original.out">2377</property>
  <property name="kdenlive:original.length">2378</property>
  <property name="kdenlive:original.eof">pause</property>
  <property name="kdenlive:original.resource">content/musicians/2021-06-02_Caleb_electric+4k_mac_P1000548-take1_beginning.MP4</property>
  <property name="kdenlive:original.meta.media.nb_streams">2</property>
  <property name="kdenlive:original.meta.media.0.stream.type">video</property>
  <property name="kdenlive:original.meta.media.0.stream.frame_rate">29.97</property>
  <property name="kdenlive:original.meta.media.0.stream.sample_aspect_ratio">1</property>
  <property name="kdenlive:original.meta.media.0.codec.width">3328</property>
  <property name="kdenlive:original.meta.media.0.codec.height">2496</property>
  <property name="kdenlive:original.meta.media.0.codec.rotate">0</property>
  <property name="kdenlive:original.meta.media.0.codec.frame_rate">29.97</property>
  <property name="kdenlive:original.meta.media.0.codec.pix_fmt">yuvj420p</property>
  <property name="kdenlive:original.meta.media.0.codec.sample_aspect_ratio">1</property>
  <property name="kdenlive:original.meta.media.0.codec.colorspace">709</property>
  <property name="kdenlive:original.meta.media.0.codec.color_trc">1</property>
  <property name="kdenlive:original.meta.media.0.codec.name">h264</property>
  <property name="kdenlive:original.meta.media.0.codec.long_name">H.264 / AVC / MPEG-4 AVC / MPEG-4 part 10</property>
  <property name="kdenlive:original.meta.media.0.codec.bit_rate">95904012</property>
  <property name="kdenlive:original.meta.attr.0.stream.creation_time.markup">2021-06-02T15:49:01.000000Z</property>
  <property name="kdenlive:original.meta.attr.0.stream.handler_name.markup">VideoHandler</property>
  <property name="kdenlive:original.meta.media.1.stream.type">audio</property>
  <property name="kdenlive:original.meta.media.1.codec.sample_fmt">fltp</property>
  <property name="kdenlive:original.meta.media.1.codec.sample_rate">48000</property>
  <property name="kdenlive:original.meta.media.1.codec.channels">2</property>
  <property name="kdenlive:original.meta.media.1.codec.name">aac</property>
  <property name="kdenlive:original.meta.media.1.codec.long_name">AAC (Advanced Audio Coding)</property>
  <property name="kdenlive:original.meta.media.1.codec.bit_rate">125375</property>
  <property name="kdenlive:original.meta.attr.1.stream.creation_time.markup">2021-06-02T15:49:01.000000Z</property>
  <property name="kdenlive:original.meta.attr.1.stream.handler_name.markup">SoundHandler</property>
  <property name="kdenlive:original.meta.attr.major_brand.markup">isom</property>
  <property name="kdenlive:original.meta.attr.minor_version.markup">512</property>
  <property name="kdenlive:original.meta.attr.compatible_brands.markup">isomiso2avc1mp41</property>
  <property name="kdenlive:original.meta.attr.creation_time.markup">2021-06-02T15:49:01.000000Z</property>
  <property name="kdenlive:original.meta.attr.encoder.markup">Lavf58.45.100</property>
  <property name="kdenlive:original.seekable">1</property>
  <property name="kdenlive:original.width">3328</property>
  <property name="kdenlive:original.height">2496</property>
  <property name="kdenlive:original.meta.media.sample_aspect_num">1</property>
  <property name="kdenlive:original.meta.media.sample_aspect_den">1</property>
  <property name="kdenlive:original.aspect_ratio">1</property>
  <property name="kdenlive:original.audio_index">1</property>
  <property name="kdenlive:original.video_index">0</property>
  <property name="kdenlive:original.mute_on_pause">0</property>
  <property name="kdenlive:original.mlt_service">avformat-novalidate</property>
  <property name="kdenlive:original.kdenlive:folderid">65</property>
  <property name="kdenlive:original.meta.media.frame_rate_num">30000</property>
  <property name="kdenlive:original.meta.media.frame_rate_den">1001</property>
  <property name="kdenlive:original.meta.media.colorspace">709</property>
  <property name="kdenlive:original.meta.media.color_trc">1</property>
  <property name="kdenlive:original.meta.media.width">3328</property>
  <property name="kdenlive:original.meta.media.height">2496</property>
  <property name="kdenlive:original.meta.media.color_range">full</property>
  <property name="kdenlive:original.kdenlive:id">79</property>
  <property name="kdenlive:original.kdenlive:file_size">950927306</property>
  <property name="kdenlive:original.kdenlive:file_hash">18348eb9ea11369b7bc0f37eefd51236</property>
  <property name="kdenlive:original.backup">1</property>
  <property name="global_feed">1</property>
  <property name="kdenlive:audio_max">1</property>
  <property name="xml">was here</property>
  <property name="meta.media.nb_streams">2</property>
  <property name="meta.media.0.stream.type">video</property>
  <property name="meta.media.0.stream.frame_rate">29.97</property>
  <property name="meta.media.0.stream.sample_aspect_ratio">1</property>
  <property name="meta.media.0.codec.width">960</property>
  <property name="meta.media.0.codec.height">720</property>
  <property name="meta.media.0.codec.rotate">0</property>
  <property name="meta.media.0.codec.frame_rate">1000</property>
  <property name="meta.media.0.codec.pix_fmt">yuvj420p</property>
  <property name="meta.media.0.codec.sample_aspect_ratio">1</property>
  <property name="meta.media.0.codec.colorspace">601</property>
  <property name="meta.media.0.codec.name">mjpeg</property>
  <property name="meta.media.0.codec.long_name">MJPEG (Motion JPEG)</property>
  <property name="meta.media.0.codec.bit_rate">0</property>
  <property name="meta.attr.0.stream.HANDLER_NAME.markup">VideoHandler</property>
  <property name="meta.attr.0.stream.ENCODER.markup">Lavc58.91.100 mjpeg</property>
  <property name="meta.attr.0.stream.DURATION.markup">00:01:19.312000000</property>
  <property name="meta.media.1.stream.type">audio</property>
  <property name="meta.media.1.codec.sample_fmt">s16</property>
  <property name="meta.media.1.codec.sample_rate">48000</property>
  <property name="meta.media.1.codec.channels">2</property>
  <property name="meta.media.1.codec.name">pcm_s16le</property>
  <property name="meta.media.1.codec.long_name">PCM signed 16-bit little-endian</property>
  <property name="meta.media.1.codec.bit_rate">1536000</property>
  <property name="meta.attr.1.stream.HANDLER_NAME.markup">SoundHandler</property>
  <property name="meta.attr.1.stream.ENCODER.markup">Lavc58.91.100 pcm_s16le</property>
  <property name="meta.attr.1.stream.DURATION.markup">00:01:19.274000000</property>
  <property name="meta.attr.COMPATIBLE_BRANDS.markup">isomiso2avc1mp41</property>
  <property name="meta.attr.MAJOR_BRAND.markup">isom</property>
  <property name="meta.attr.MINOR_VERSION.markup">512</property>
  <property name="meta.attr.ENCODER.markup">Lavf58.45.100</property>
  <property name="meta.media.sample_aspect_num">1</property>
  <property name="meta.media.sample_aspect_den">1</property>
  <property name="meta.media.frame_rate_num">30000</property>
  <property name="meta.media.frame_rate_den">1001</property>
  <property name="meta.media.colorspace">601</property>
  <property name="meta.media.color_trc">2</property>
  <property name="meta.media.width">960</property>
  <property name="meta.media.height">720</property>
  <property name="meta.media.color_range">full</property>
  <property name="meta.media.top_field_first">0</property>
  <property name="meta.media.progressive">1</property>
  <property name="set.test_audio">1</property>
  <property name="set.test_image">1</property>
 </producer>
 <producer id="producer249" in="00:00:00.000" out="00:04:56.467">
  <property name="length">8895</property>
  <property name="eof">pause</property>
  <property name="resource">/home/ryankelln/.cache/kdenlive/proxy/230fc33b72342992a379124af56d05ce.mkv</property>
  <property name="audio_index">1</property>
  <property name="video_index">0</property>
  <property name="mute_on_pause">0</property>
  <property name="mlt_service">avformat-novalidate</property>
  <property name="seekable">1</property>
  <property name="aspect_ratio">1</property>
  <property name="kdenlive:clipname">2021-06-02_Caleb_electric+4k_mac_P1000548-take2_from_piano_solo-merged.MP4</property>
  <property name="kdenlive:folderid">65</property>
  <property name="kdenlive:id">46</property>
  <property name="kdenlive:file_size">3554994386</property>
  <property name="kdenlive:file_hash">230fc33b72342992a379124af56d05ce</property>
  <property name="kdenlive:proxy">/home/ryankelln/.cache/kdenlive/proxy/230fc33b72342992a379124af56d05ce.mkv</property>
  <property name="kdenlive:originalurl">content/musicians/2021-06-02_Caleb_electric+4k_mac_P1000548-take2_from_piano_solo-merged.MP4</property>
  <property name="kdenlive:original.mlt_type">producer</property>
  <property name="kdenlive:original.in">0</property>
  <property name="kdenlive:original.out">8894</property>
  <property name="kdenlive:original.length">8895</property>
  <property name="kdenlive:original.eof">pause</property>
  <property name="kdenlive:original.resource">content/musicians/2021-06-02_Caleb_electric+4k_mac_P1000548-take2_from_piano_solo-merged.MP4</property>
  <property name="kdenlive:original.meta.media.nb_streams">2</property>
  <property name="kdenlive:original.meta.media.0.stream.type">video</property>
  <property name="kdenlive:original.meta.media.0.stream.frame_rate">29.97</property>
  <property name="kdenlive:original.meta.media.0.stream.sample_aspect_ratio">1</property>
  <property name="kdenlive:original.meta.media.0.codec.width">3328</property>
  <property name="kdenlive:original.meta.media.0.codec.height">2496</property>
  <property name="kdenlive:original.meta.media.0.codec.rotate">0</property>
  <property name="kdenlive:original.meta.media.0.codec.frame_rate">29.97</property>
  <property name="kdenlive:original.meta.media.0.codec.pix_fmt">yuvj420p</property>
  <property name="kdenlive:original.meta.media.0.codec.sample_aspect_ratio">1</property>
  <property name="kdenlive:original.meta.media.0.codec.colorspace">709</property>
  <property name="kdenlive:original.meta.media.0.codec.color_trc">1</property>
  <property name="kdenlive:original.meta.media.0.codec.name">h264</property>
  <property name="kdenlive:original.meta.media.0.codec.long_name">H.264 / AVC / MPEG-4 AVC / MPEG-4 part 10</property>
  <property name="kdenlive:original.meta.media.0.codec.bit_rate">95807635</property>
  <property name="kdenlive:original.meta.attr.0.stream.handler_name.markup">VideoHandler</property>
  <property name="kdenlive:original.meta.media.1.stream.type">audio</property>
  <property name="kdenlive:original.meta.media.1.codec.sample_fmt">fltp</property>
  <property name="kdenlive:original.meta.media.1.codec.sample_rate">48000</property>
  <property name="kdenlive:original.meta.media.1.codec.channels">2</property>
  <property name="kdenlive:original.meta.media.1.codec.name">aac</property>
  <property name="kdenlive:original.meta.media.1.codec.long_name">AAC (Advanced Audio Coding)</property>
  <property name="kdenlive:original.meta.media.1.codec.bit_rate">125377</property>
  <property name="kdenlive:original.meta.attr.1.stream.handler_name.markup">SoundHandler</property>
  <property name="kdenlive:original.meta.attr.major_brand.markup">isom</property>
  <property name="kdenlive:original.meta.attr.minor_version.markup">512</property>
  <property name="kdenlive:original.meta.attr.compatible_brands.markup">isomiso2avc1mp41</property>
  <property name="kdenlive:original.meta.attr.encoder.markup">Lavf58.45.100</property>
  <property name="kdenlive:original.seekable">1</property>
  <property name="kdenlive:original.width">3328</property>
  <property name="kdenlive:original.height">2496</property>
  <property name="kdenlive:original.meta.media.sample_aspect_num">1</property>
  <property name="kdenlive:original.meta.media.sample_aspect_den">1</property>
  <property name="kdenlive:original.aspect_ratio">1</property>
  <property name="kdenlive:original.audio_index">1</property>
  <property name="kdenlive:original.video_index">0</property>
  <property name="kdenlive:original.mute_on_pause">0</property>
  <property name="kdenlive:original.mlt_service">avformat-novalidate</property>
  <property name="kdenlive:original.kdenlive:folderid">65</property>
  <property name="kdenlive:original.meta.media.frame_rate_num">88860000</property>
  <property name="kdenlive:original.meta.media.frame_rate_den">2964967</property>
  <property name="kdenlive:original.meta.media.colorspace">709</property>
  <property name="kdenlive:original.meta.media.color_trc">1</property>
  <property name="kdenlive:original.meta.media.width">3328</property>
  <property name="kdenlive:original.meta.media.height">2496</property>
  <property name="kdenlive:original.meta.media.color_range">full</property>
  <property name="kdenlive:original.kdenlive:id">80</property>
  <property name="kdenlive:original.kdenlive:file_size">3554994386</property>
  <property name="kdenlive:original.kdenlive:file_hash">230fc33b72342992a379124af56d05ce</property>
  <property name="kdenlive:original.backup">1</property>
  <property name="kdenlive:audio_max">1</property>
  <property name="global_feed">1</property>
  <property name="xml">was here</property>
  <property name="meta.media.nb_streams">2</property>
  <property name="meta.media.0.stream.type">video</property>
  <property name="meta.media.0.stream.frame_rate">29.97</property>
  <property name="meta.media.0.stream.sample_aspect_ratio">1</property>
  <property name="meta.media.0.codec.width">960</property>
  <property name="meta.media.0.codec.height">720</property>
  <property name="meta.media.0.codec.rotate">0</property>
  <property name="meta.media.0.codec.frame_rate">1000</property>
  <property name="meta.media.0.codec.pix_fmt">yuvj420p</property>
  <property name="meta.media.0.codec.sample_aspect_ratio">1</property>
  <property name="meta.media.0.codec.colorspace">601</property>
  <property name="meta.media.0.codec.name">mjpeg</property>
  <property name="meta.media.0.codec.long_name">MJPEG (Motion JPEG)</property>
  <property name="meta.media.0.codec.bit_rate">0</property>
  <property name="meta.attr.0.stream.HANDLER_NAME.markup">VideoHandler</property>
  <property name="meta.attr.0.stream.ENCODER.markup">Lavc58.91.100 mjpeg</property>
  <property name="meta.attr.0.stream.DURATION.markup">00:04:56.529000000</property>
  <property name="meta.media.1.stream.type">audio</property>
  <property name="meta.media.1.codec.sample_fmt">s16</property>
  <property name="meta.media.1.codec.sample_rate">48000</property>
  <property name="meta.media.1.codec.channels">2</property>
  <property name="meta.media.1.codec.name">pcm_s16le</property>
  <property name="meta.media.1.codec.long_name">PCM signed 16-bit little-endian</property>
  <property name="meta.media.1.codec.bit_rate">1536000</property>
  <property name="meta.attr.1.stream.HANDLER_NAME.markup">SoundHandler</property>
  <property name="meta.attr.1.stream.ENCODER.markup">Lavc58.91.100 pcm_s16le</property>
  <property name="meta.attr.1.stream.DURATION.markup">00:04:56.506000000</property>
  <property name="meta.attr.COMPATIBLE_BRANDS.markup">isomiso2avc1mp41</property>
  <property name="meta.attr.MAJOR_BRAND.markup">isom</property>
  <property name="meta.attr.MINOR_VERSION.markup">512</property>
  <property name="meta.attr.ENCODER.markup">Lavf58.45.100</property>
  <property name="meta.media.sample_aspect_num">1</property>
  <property name="meta.media.sample_aspect_den">1</property>
  <property name="meta.media.frame_rate_num">30000</property>
  <property name="meta.media.frame_rate_den">1001</property>
  <property name="meta.media.colorspace">601</property>
  <property name="meta.media.color_trc">2</property>
  <property name="meta.media.width">960</property>
  <property name="meta.media.height">720</property>
  <property name="meta.media.color_range">full</property>
  <property name="meta.media.top_field_first">0</property>
  <property name="meta.media.progressive">1</property>
  <property name="set.test_audio">1</property>
  <property name="set.test_image">1</property>
 </producer>
 <producer id="producer250" in="00:00:00.000" out="00:04:56.467">
  <property name="length">8895</property>
  <property name="eof">pause</property>
  <property name="resource">/home/ryankelln/.cache/kdenlive/proxy/230fc33b72342992a379124af56d05ce.mkv</property>
  <property name="audio_index">1</property>
  <property name="video_index">0</property>
  <property name="mute_on_pause">0</property>
  <property name="mlt_service">avformat-novalidate</property>
  <property name="seekable">1</property>
  <property name="aspect_ratio">1</property>
  <property name="kdenlive:clipname">2021-06-02_Caleb_electric+4k_mac_P1000548-take2_from_piano_solo-merged.MP4</property>
  <property name="kdenlive:folderid">65</property>
  <property name="kdenlive:id">46</property>
  <property name="kdenlive:file_size">3554994386</property>
  <property name="kdenlive:file_hash">230fc33b72342992a379124af56d05ce</property>
  <property name="kdenlive:proxy">/home/ryankelln/.cache/kdenlive/proxy/230fc33b72342992a379124af56d05ce.mkv</property>
  <property name="kdenlive:originalurl">content/musicians/2021-06-02_Caleb_electric+4k_mac_P1000548-take2_from_piano_solo-merged.MP4</property>
  <property name="kdenlive:original.mlt_type">producer</property>
  <property name="kdenlive:original.in">0</property>
  <property name="kdenlive:original.out">8894</property>
  <property name="kdenlive:original.length">8895</property>
  <property name="kdenlive:original.eof">pause</property>
  <property name="kdenlive:original.resource">content/musicians/2021-06-02_Caleb_electric+4k_mac_P1000548-take2_from_piano_solo-merged.MP4</property>
  <property name="kdenlive:original.meta.media.nb_streams">2</property>
  <property name="kdenlive:original.meta.media.0.stream.type">video</property>
  <property name="kdenlive:original.meta.media.0.stream.frame_rate">29.97</property>
  <property name="kdenlive:original.meta.media.0.stream.sample_aspect_ratio">1</property>
  <property name="kdenlive:original.meta.media.0.codec.width">3328</property>
  <property name="kdenlive:original.meta.media.0.codec.height">2496</property>
  <property name="kdenlive:original.meta.media.0.codec.rotate">0</property>
  <property name="kdenlive:original.meta.media.0.codec.frame_rate">29.97</property>
  <property name="kdenlive:original.meta.media.0.codec.pix_fmt">yuvj420p</property>
  <property name="kdenlive:original.meta.media.0.codec.sample_aspect_ratio">1</property>
  <property name="kdenlive:original.meta.media.0.codec.colorspace">709</property>
  <property name="kdenlive:original.meta.media.0.codec.color_trc">1</property>
  <property name="kdenlive:original.meta.media.0.codec.name">h264</property>
  <property name="kdenlive:original.meta.media.0.codec.long_name">H.264 / AVC / MPEG-4 AVC / MPEG-4 part 10</property>
  <property name="kdenlive:original.meta.media.0.codec.bit_rate">95807635</property>
  <property name="kdenlive:original.meta.attr.0.stream.handler_name.markup">VideoHandler</property>
  <property name="kdenlive:original.meta.media.1.stream.type">audio</property>
  <property name="kdenlive:original.meta.media.1.codec.sample_fmt">fltp</property>
  <property name="kdenlive:original.meta.media.1.codec.sample_rate">48000</property>
  <property name="kdenlive:original.meta.media.1.codec.channels">2</property>
  <property name="kdenlive:original.meta.media.1.codec.name">aac</property>
  <property name="kdenlive:original.meta.media.1.codec.long_name">AAC (Advanced Audio Coding)</property>
  <property name="kdenlive:original.meta.media.1.codec.bit_rate">125377</property>
  <property name="kdenlive:original.meta.attr.1.stream.handler_name.markup">SoundHandler</property>
  <property name="kdenlive:original.meta.attr.major_brand.markup">isom</property>
  <property name="kdenlive:original.meta.attr.minor_version.markup">512</property>
  <property name="kdenlive:original.meta.attr.compatible_brands.markup">isomiso2avc1mp41</property>
  <property name="kdenlive:original.meta.attr.encoder.markup">Lavf58.45.100</property>
  <property name="kdenlive:original.seekable">1</property>
  <property name="kdenlive:original.width">3328</property>
  <property name="kdenlive:original.height">2496</property>
  <property name="kdenlive:original.meta.media.sample_aspect_num">1</property>
  <property name="kdenlive:original.meta.media.sample_aspect_den">1</property>
  <property name="kdenlive:original.aspect_ratio">1</property>
  <property name="kdenlive:original.audio_index">1</property>
  <property name="kdenlive:original.video_index">0</property>
  <property name="kdenlive:original.mute_on_pause">0</property>
  <property name="kdenlive:original.mlt_service">avformat-novalidate</property>
  <property name="kdenlive:original.kdenlive:folderid">65</property>
  <property name="kdenlive:original.meta.media.frame_rate_num">88860000</property>
  <property name="kdenlive:original.meta.media.frame_rate_den">2964967</property>
  <property name="kdenlive:original.meta.media.colorspace">709</property>
  <property name="kdenlive:original.meta.media.color_trc">1</property>
  <property name="kdenlive:original.meta.media.width">3328</property>
  <property name="kdenlive:original.meta.media.height">2496</property>
  <property name="kdenlive:original.meta.media.color_range">full</property>
  <property name="kdenlive:original.kdenlive:id">80</property>
  <property name="kdenlive:original.kdenlive:file_size">3554994386</property>
  <property name="kdenlive:original.kdenlive:file_hash">230fc33b72342992a379124af56d05ce</property>
  <property name="kdenlive:original.backup">1</property>
  <property name="kdenlive:audio_max">1</property>
  <property name="global_feed">1</property>
  <property name="xml">was here</property>
  <property name="meta.media.nb_streams">2</property>
  <property name="meta.media.0.stream.type">video</property>
  <property name="meta.media.0.stream.frame_rate">29.97</property>
  <property name="meta.media.0.stream.sample_aspect_ratio">1</property>
  <property name="meta.media.0.codec.width">960</property>
  <property name="meta.media.0.codec.height">720</property>
  <property name="meta.media.0.codec.rotate">0</property>
  <property name="meta.media.0.codec.frame_rate">1000</property>
  <property name="meta.media.0.codec.pix_fmt">yuvj420p</property>
  <property name="meta.media.0.codec.sample_aspect_ratio">1</property>
  <property name="meta.media.0.codec.colorspace">601</property>
  <property name="meta.media.0.codec.name">mjpeg</property>
  <property name="meta.media.0.codec.long_name">MJPEG (Motion JPEG)</property>
  <property name="meta.media.0.codec.bit_rate">0</property>
  <property name="meta.attr.0.stream.HANDLER_NAME.markup">VideoHandler</property>
  <property name="meta.attr.0.stream.ENCODER.markup">Lavc58.91.100 mjpeg</property>
  <property name="meta.attr.0.stream.DURATION.markup">00:04:56.529000000</property>
  <property name="meta.media.1.stream.type">audio</property>
  <property name="meta.media.1.codec.sample_fmt">s16</property>
  <property name="meta.media.1.codec.sample_rate">48000</property>
  <property name="meta.media.1.codec.channels">2</property>
  <property name="meta.media.1.codec.name">pcm_s16le</property>
  <property name="meta.media.1.codec.long_name">PCM signed 16-bit little-endian</property>
  <property name="meta.media.1.codec.bit_rate">1536000</property>
  <property name="meta.attr.1.stream.HANDLER_NAME.markup">SoundHandler</property>
  <property name="meta.attr.1.stream.ENCODER.markup">Lavc58.91.100 pcm_s16le</property>
  <property name="meta.attr.1.stream.DURATION.markup">00:04:56.506000000</property>
  <property name="meta.attr.COMPATIBLE_BRANDS.markup">isomiso2avc1mp41</property>
  <property name="meta.attr.MAJOR_BRAND.markup">isom</property>
  <property name="meta.attr.MINOR_VERSION.markup">512</property>
  <property name="meta.attr.ENCODER.markup">Lavf58.45.100</property>
  <property name="meta.media.sample_aspect_num">1</property>
  <property name="meta.media.sample_aspect_den">1</property>
  <property name="meta.media.frame_rate_num">30000</property>
  <property name="meta.media.frame_rate_den">1001</property>
  <property name="meta.media.colorspace">601</property>
  <property name="meta.media.color_trc">2</property>
  <property name="meta.media.width">960</property>
  <property name="meta.media.height">720</property>
  <property name="meta.media.color_range">full</property>
  <property name="meta.media.top_field_first">0</property>
  <property name="meta.media.progressive">1</property>
  <property name="set.test_audio">1</property>
  <property name="set.test_image">0</property>
 </producer>
 <producer id="producer251" in="00:00:00.000" out="00:04:56.467">
  <property name="length">8895</property>
  <property name="eof">pause</property>
  <property name="resource">/home/ryankelln/.cache/kdenlive/proxy/230fc33b72342992a379124af56d05ce.mkv</property>
  <property name="audio_index">1</property>
  <property name="video_index">0</property>
  <property name="mute_on_pause">0</property>
  <property name="mlt_service">avformat-novalidate</property>
  <property name="seekable">1</property>
  <property name="aspect_ratio">1</property>
  <property name="kdenlive:clipname">2021-06-02_Caleb_electric+4k_mac_P1000548-take2_from_piano_solo-merged.MP4</property>
  <property name="kdenlive:folderid">65</property>
  <property name="kdenlive:id">46</property>
  <property name="kdenlive:file_size">3554994386</property>
  <property name="kdenlive:file_hash">230fc33b72342992a379124af56d05ce</property>
  <property name="kdenlive:proxy">/home/ryankelln/.cache/kdenlive/proxy/230fc33b72342992a379124af56d05ce.mkv</property>
  <property name="kdenlive:originalurl">content/musicians/2021-06-02_Caleb_electric+4k_mac_P1000548-take2_from_piano_solo-merged.MP4</property>
  <property name="kdenlive:original.mlt_type">producer</property>
  <property name="kdenlive:original.in">0</property>
  <property name="kdenlive:original.out">8894</property>
  <property name="kdenlive:original.length">8895</property>
  <property name="kdenlive:original.eof">pause</property>
  <property name="kdenlive:original.resource">content/musicians/2021-06-02_Caleb_electric+4k_mac_P1000548-take2_from_piano_solo-merged.MP4</property>
  <property name="kdenlive:original.meta.media.nb_streams">2</property>
  <property name="kdenlive:original.meta.media.0.stream.type">video</property>
  <property name="kdenlive:original.meta.media.0.stream.frame_rate">29.97</property>
  <property name="kdenlive:original.meta.media.0.stream.sample_aspect_ratio">1</property>
  <property name="kdenlive:original.meta.media.0.codec.width">3328</property>
  <property name="kdenlive:original.meta.media.0.codec.height">2496</property>
  <property name="kdenlive:original.meta.media.0.codec.rotate">0</property>
  <property name="kdenlive:original.meta.media.0.codec.frame_rate">29.97</property>
  <property name="kdenlive:original.meta.media.0.codec.pix_fmt">yuvj420p</property>
  <property name="kdenlive:original.meta.media.0.codec.sample_aspect_ratio">1</property>
  <property name="kdenlive:original.meta.media.0.codec.colorspace">709</property>
  <property name="kdenlive:original.meta.media.0.codec.color_trc">1</property>
  <property name="kdenlive:original.meta.media.0.codec.name">h264</property>
  <property name="kdenlive:original.meta.media.0.codec.long_name">H.264 / AVC / MPEG-4 AVC / MPEG-4 part 10</property>
  <property name="kdenlive:original.meta.media.0.codec.bit_rate">95807635</property>
  <property name="kdenlive:original.meta.attr.0.stream.handler_name.markup">VideoHandler</property>
  <property name="kdenlive:original.meta.media.1.stream.type">audio</property>
  <property name="kdenlive:original.meta.media.1.codec.sample_fmt">fltp</property>
  <property name="kdenlive:original.meta.media.1.codec.sample_rate">48000</property>
  <property name="kdenlive:original.meta.media.1.codec.channels">2</property>
  <property name="kdenlive:original.meta.media.1.codec.name">aac</property>
  <property name="kdenlive:original.meta.media.1.codec.long_name">AAC (Advanced Audio Coding)</property>
  <property name="kdenlive:original.meta.media.1.codec.bit_rate">125377</property>
  <property name="kdenlive:original.meta.attr.1.stream.handler_name.markup">SoundHandler</property>
  <property name="kdenlive:original.meta.attr.major_brand.markup">isom</property>
  <property name="kdenlive:original.meta.attr.minor_version.markup">512</property>
  <property name="kdenlive:original.meta.attr.compatible_brands.markup">isomiso2avc1mp41</property>
  <property name="kdenlive:original.meta.attr.encoder.markup">Lavf58.45.100</property>
  <property name="kdenlive:original.seekable">1</property>
  <property name="kdenlive:original.width">3328</property>
  <property name="kdenlive:original.height">2496</property>
  <property name="kdenlive:original.meta.media.sample_aspect_num">1</property>
  <property name="kdenlive:original.meta.media.sample_aspect_den">1</property>
  <property name="kdenlive:original.aspect_ratio">1</property>
  <property name="kdenlive:original.audio_index">1</property>
  <property name="kdenlive:original.video_index">0</property>
  <property name="kdenlive:original.mute_on_pause">0</property>
  <property name="kdenlive:original.mlt_service">avformat-novalidate</property>
  <property name="kdenlive:original.kdenlive:folderid">65</property>
  <property name="kdenlive:original.meta.media.frame_rate_num">88860000</property>
  <property name="kdenlive:original.meta.media.frame_rate_den">2964967</property>
  <property name="kdenlive:original.meta.media.colorspace">709</property>
  <property name="kdenlive:original.meta.media.color_trc">1</property>
  <property name="kdenlive:original.meta.media.width">3328</property>
  <property name="kdenlive:original.meta.media.height">2496</property>
  <property name="kdenlive:original.meta.media.color_range">full</property>
  <property name="kdenlive:original.kdenlive:id">80</property>
  <property name="kdenlive:original.kdenlive:file_size">3554994386</property>
  <property name="kdenlive:original.kdenlive:file_hash">230fc33b72342992a379124af56d05ce</property>
  <property name="kdenlive:original.backup">1</property>
  <property name="kdenlive:audio_max">1</property>
  <property name="global_feed">1</property>
  <property name="xml">was here</property>
  <property name="meta.media.nb_streams">2</property>
  <property name="meta.media.0.stream.type">video</property>
  <property name="meta.media.0.stream.frame_rate">29.97</property>
  <property name="meta.media.0.stream.sample_aspect_ratio">1</property>
  <property name="meta.media.0.codec.width">960</property>
  <property name="meta.media.0.codec.height">720</property>
  <property name="meta.media.0.codec.rotate">0</property>
  <property name="meta.media.0.codec.frame_rate">1000</property>
  <property name="meta.media.0.codec.pix_fmt">yuvj420p</property>
  <property name="meta.media.0.codec.sample_aspect_ratio">1</property>
  <property name="meta.media.0.codec.colorspace">601</property>
  <property name="meta.media.0.codec.name">mjpeg</property>
  <property name="meta.media.0.codec.long_name">MJPEG (Motion JPEG)</property>
  <property name="meta.media.0.codec.bit_rate">0</property>
  <property name="meta.attr.0.stream.HANDLER_NAME.markup">VideoHandler</property>
  <property name="meta.attr.0.stream.ENCODER.markup">Lavc58.91.100 mjpeg</property>
  <property name="meta.attr.0.stream.DURATION.markup">00:04:56.529000000</property>
  <property name="meta.media.1.stream.type">audio</property>
  <property name="meta.media.1.codec.sample_fmt">s16</property>
  <property name="meta.media.1.codec.sample_rate">48000</property>
  <property name="meta.media.1.codec.channels">2</property>
  <property name="meta.media.1.codec.name">pcm_s16le</property>
  <property name="meta.media.1.codec.long_name">PCM signed 16-bit little-endian</property>
  <property name="meta.media.1.codec.bit_rate">1536000</property>
  <property name="meta.attr.1.stream.HANDLER_NAME.markup">SoundHandler</property>
  <property name="meta.attr.1.stream.ENCODER.markup">Lavc58.91.100 pcm_s16le</property>
  <property name="meta.attr.1.stream.DURATION.markup">00:04:56.506000000</property>
  <property name="meta.attr.COMPATIBLE_BRANDS.markup">isomiso2avc1mp41</property>
  <property name="meta.attr.MAJOR_BRAND.markup">isom</property>
  <property name="meta.attr.MINOR_VERSION.markup">512</property>
  <property name="meta.attr.ENCODER.markup">Lavf58.45.100</property>
  <property name="meta.media.sample_aspect_num">1</property>
  <property name="meta.media.sample_aspect_den">1</property>
  <property name="meta.media.frame_rate_num">30000</property>
  <property name="meta.media.frame_rate_den">1001</property>
  <property name="meta.media.colorspace">601</property>
  <property name="meta.media.color_trc">2</property>
  <property name="meta.media.width">960</property>
  <property name="meta.media.height">720</property>
  <property name="meta.media.color_range">full</property>
  <property name="meta.media.top_field_first">0</property>
  <property name="meta.media.progressive">1</property>
  <property name="set.test_audio">1</property>
  <property name="set.test_image">0</property>
 </producer>
 <playlist id="playlist20">
  <blank length="00:00:05.067"/>
  <entry producer="producer248" in="00:00:00.000" out="00:01:17.433">
   <property name="kdenlive:id">45</property>
  </entry>
  <entry producer="producer249" in="00:00:02.867" out="00:03:08.200">
   <property name="kdenlive:id">46</property>
  </entry>
  <entry producer="producer250" in="00:03:08.233" out="00:03:10.233">
   <property name="kdenlive:id">46</property>
   <filter id="filter225" in="00:03:09.867" out="00:03:10.233">
    <property name="start">1</property>
    <property name="mlt_service">brightness</property>
    <property name="kdenlive_id">fade_to_black</property>
    <property name="end">0</property>
    <property name="alpha">-1</property>
    <property name="kdenlive:collapsed">0</property>
   </filter>
   <filter id="filter226">
    <property name="version">0.6</property>
    <property name="mlt_service">frei0r.select0r</property>
    <property name="kdenlive_id">frei0r.select0r</property>
    <property name="Color to select">0x448c3fff</property>
    <property name="Invert selection">1</property>
    <property name="Selection subspace">1</property>
    <property name="Subspace shape">0.5</property>
    <property name="Edge mode">0.9</property>
    <property name="Delta R / A / Hue">00:03:08.233=0.035</property>
    <property name="Delta G / B / Chroma">00:03:08.233=0.295</property>
    <property name="Delta B / I / I">00:03:08.233=0.405</property>
    <property name="Slope">00:03:08.233=0.092</property>
    <property name="Operation">0.5</property>
    <property name="kdenlive:collapsed">0</property>
   </filter>
   <filter id="filter227">
    <property name="mlt_service">avfilter.despill</property>
    <property name="kdenlive_id">avfilter.despill</property>
    <property name="av.type">green</property>
    <property name="av.mix">0.298</property>
    <property name="av.expand">0.037</property>
    <property name="av.red">0</property>
    <property name="av.green">-1</property>
    <property name="av.blue">0</property>
    <property name="av.brightness">0</property>
    <property name="kdenlive:collapsed">0</property>
   </filter>
   <filter id="filter228">
    <property name="rotate_center">1</property>
    <property name="mlt_service">qtblend</property>
    <property name="kdenlive_id">qtblend</property>
    <property name="rect">00:03:08.233=-650 0 2112 1188 1.000000;00:03:50.900=-650 0 2112 1188 1.000000;00:03:54.733=-527 0 2112 1188 1.000000;00:03:57.667=-527 0 2112 1188 1.000000;00:03:58.500=-652 0 2112 1188 1.000000;00:03:59.967=-463 -2 2112 1188 1.000000;00:04:01.233=-575 0 2112 1188 1.000000;00:04:04.500=-537 0 2112 1188 1.000000;00:04:10.133=-537 0 2112 1188 1.000000</property>
    <property name="rotation">00:03:08.233=0;00:03:50.900=0;00:03:54.733=0;00:03:57.667=0;00:03:58.500=0;00:03:59.967=0;00:04:01.233=0;00:04:04.500=0;00:04:10.133=0</property>
    <property name="compositing">0</property>
    <property name="distort">0</property>
    <property name="kdenlive:collapsed">0</property>
   </filter>
  </entry>
  <entry producer="producer249" in="00:03:10.267" out="00:03:24.833">
   <property name="kdenlive:id">46</property>
  </entry>
  <entry producer="producer251" in="00:03:24.867" out="00:03:55.467">
   <property name="kdenlive:id">46</property>
   <filter id="filter229">
    <property name="version">0.6</property>
    <property name="mlt_service">frei0r.select0r</property>
    <property name="kdenlive_id">frei0r.select0r</property>
    <property name="Color to select">0x448c3fff</property>
    <property name="Invert selection">1</property>
    <property name="Selection subspace">1</property>
    <property name="Subspace shape">0.5</property>
    <property name="Edge mode">0.9</property>
    <property name="Delta R / A / Hue">00:03:24.867=0.035</property>
    <property name="Delta G / B / Chroma">00:03:24.867=0.295</property>
    <property name="Delta B / I / I">00:03:24.867=0.405</property>
    <property name="Slope">00:03:24.867=0.092</property>
    <property name="Operation">0.5</property>
    <property name="kdenlive:collapsed">0</property>
   </filter>
   <filter id="filter230">
    <property name="mlt_service">avfilter.despill</property>
    <property name="kdenlive_id">avfilter.despill</property>
    <property name="av.type">green</property>
    <property name="av.mix">0.298</property>
    <property name="av.expand">0.037</property>
    <property name="av.red">0</property>
    <property name="av.green">-1</property>
    <property name="av.blue">0</property>
    <property name="av.brightness">0</property>
    <property name="kdenlive:collapsed">0</property>
   </filter>
   <filter id="filter231">
    <property name="rotate_center">1</property>
    <property name="mlt_service">qtblend</property>
    <property name="kdenlive_id">qtblend</property>
    <property name="rect">00:03:24.867=-650 0 2112 1188 1.000000;00:03:55.467=-650 0 2112 1188 1.000000</property>
    <property name="rotation">00:03:24.867=0;00:03:55.467=0</property>
    <property name="compositing">0</property>
    <property name="distort">0</property>
    <property name="kdenlive:collapsed">0</property>
   </filter>
   <filter id="filter232" in="00:03:24.867" out="00:03:25.667">
    <property name="start">0</property>
    <property name="mlt_service">brightness</property>
    <property name="kdenlive_id">fade_from_black</property>
    <property name="end">1</property>
    <property name="alpha">-1</property>
    <property name="kdenlive:collapsed">0</property>
   </filter>
   <filter id="filter233" in="00:03:54.167" out="00:03:55.467">
    <property name="start">1</property>
    <property name="mlt_service">brightness</property>
    <property name="kdenlive_id">fade_to_black</property>
    <property name="end">0</property>
    <property name="alpha">-1</property>
    <property name="kdenlive:collapsed">0</property>
   </filter>
  </entry>
 </playlist>
 <playlist id="playlist21"/>
 <tractor id="tractor10" in="00:00:00.000" out="00:05:15.133">
  <property name="kdenlive:trackheight">69</property>
  <property name="kdenlive:timeline_active">1</property>
  <property name="kdenlive:collapsed">28</property>
  <property name="kdenlive:track_name">caleb-4k</property>
  <property name="kdenlive:thumbs_format"/>
  <property name="kdenlive:audio_rec"/>
  <track hide="audio" producer="playlist20"/>
  <track producer="playlist21"/>
 </tractor>
 <producer id="producer252" in="00:00:00.000" out="00:02:27.067">
  <property name="length">4413</property>
  <property name="eof">pause</property>
  <property name="resource">content/musicians/2021-06-02_Caleb+Chris_electric+piano+handheld_mac_MVI_6000-take2_piano_entry.mkv</property>
  <property name="audio_index">1</property>
  <property name="video_index">0</property>
  <property name="mute_on_pause">0</property>
  <property name="mlt_service">avformat-novalidate</property>
  <property name="seekable">1</property>
  <property name="aspect_ratio">1</property>
  <property name="kdenlive:clipname"/>
  <property name="kdenlive:folderid">65</property>
  <property name="kdenlive:id">38</property>
  <property name="kdenlive:file_size">862319521</property>
  <property name="kdenlive:file_hash">3febb490813df0c6328fed2b88abb536</property>
  <property name="kdenlive:audio_max">1</property>
  <property name="global_feed">1</property>
  <property name="kdenlive:markers">[
    {
        "comment": "Marker",
        "pos": 822,
        "type": 0
    },
    {
        "comment": "Marker",
        "pos": 3576,
        "type": 0
    }
]
</property>
  <property name="kdenlive:activeeffect">2</property>
  <property name="xml">was here</property>
  <property name="meta.media.nb_streams">2</property>
  <property name="meta.media.0.stream.type">video</property>
  <property name="meta.media.0.stream.frame_rate">29.97</property>
  <property name="meta.media.0.stream.sample_aspect_ratio">0</property>
  <property name="meta.media.0.codec.width">1920</property>
  <property name="meta.media.0.codec.height">1080</property>
  <property name="meta.media.0.codec.rotate">0</property>
  <property name="meta.media.0.codec.frame_rate">1000</property>
  <property name="meta.media.0.codec.pix_fmt">yuvj420p</property>
  <property name="meta.media.0.codec.sample_aspect_ratio">0</property>
  <property name="meta.media.0.codec.colorspace">601</property>
  <property name="meta.media.0.codec.color_trc">1</property>
  <property name="meta.media.0.codec.name">h264</property>
  <property name="meta.media.0.codec.long_name">H.264 / AVC / MPEG-4 AVC / MPEG-4 part 10</property>
  <property name="meta.media.0.codec.bit_rate">0</property>
  <property name="meta.attr.0.stream.language.markup">eng</property>
  <property name="meta.attr.0.stream.DURATION.markup">00:02:27.090000000</property>
  <property name="meta.media.1.stream.type">audio</property>
  <property name="meta.media.1.codec.sample_fmt">s16</property>
  <property name="meta.media.1.codec.sample_rate">48000</property>
  <property name="meta.media.1.codec.channels">2</property>
  <property name="meta.media.1.codec.name">pcm_s16le</property>
  <property name="meta.media.1.codec.long_name">PCM signed 16-bit little-endian</property>
  <property name="meta.media.1.codec.bit_rate">1536000</property>
  <property name="meta.attr.1.stream.language.markup">eng</property>
  <property name="meta.attr.1.stream.DURATION.markup">00:02:27.083000000</property>
  <property name="meta.attr.COMPATIBLE_BRANDS.markup">qt  CAEP</property>
  <property name="meta.attr.creation_time.markup">2021-06-02T15:54:00.000000Z</property>
  <property name="meta.attr.MAJOR_BRAND.markup">qt  </property>
  <property name="meta.attr.MINOR_VERSION.markup">537331968</property>
  <property name="meta.attr.ENCODER.markup">Lavf58.45.100</property>
  <property name="meta.media.sample_aspect_num">1</property>
  <property name="meta.media.sample_aspect_den">1</property>
  <property name="meta.media.frame_rate_num">30000</property>
  <property name="meta.media.frame_rate_den">1001</property>
  <property name="meta.media.colorspace">601</property>
  <property name="meta.media.color_trc">1</property>
  <property name="meta.media.width">1920</property>
  <property name="meta.media.height">1080</property>
  <property name="meta.media.color_range">full</property>
  <property name="meta.media.top_field_first">0</property>
  <property name="meta.media.progressive">1</property>
  <property name="set.test_audio">1</property>
  <property name="set.test_image">1</property>
  <filter id="filter234">
   <property name="version">0.1</property>
   <property name="mlt_service">frei0r.hqdn3d</property>
   <property name="kdenlive_id">frei0r.hqdn3d</property>
   <property name="Spatial">00:00:00.000=0.01</property>
   <property name="Temporal">00:00:00.000=0.01</property>
   <property name="kdenlive:collapsed">0</property>
  </filter>
  <filter id="filter235">
   <property name="version">0.6</property>
   <property name="mlt_service">frei0r.select0r</property>
   <property name="kdenlive_id">frei0r.select0r</property>
   <property name="Color to select">0x286b44ff</property>
   <property name="Invert selection">1</property>
   <property name="Selection subspace">1</property>
   <property name="Subspace shape">0</property>
   <property name="Edge mode">0.9</property>
   <property name="Delta R / A / Hue">00:00:00.000=0.025</property>
   <property name="Delta G / B / Chroma">00:00:00.000=0.11</property>
   <property name="Delta B / I / I">00:00:00.000=0.281</property>
   <property name="Slope">00:00:00.000=0.071</property>
   <property name="Operation">0.5</property>
   <property name="kdenlive:collapsed">0</property>
  </filter>
  <filter id="filter236">
   <property name="mlt_service">avfilter.despill</property>
   <property name="kdenlive_id">avfilter.despill</property>
   <property name="av.type">green</property>
   <property name="av.mix">0.071</property>
   <property name="av.expand">0.022</property>
   <property name="av.red">0</property>
   <property name="av.green">-1</property>
   <property name="av.blue">-0.7</property>
   <property name="av.brightness">0</property>
   <property name="kdenlive:collapsed">0</property>
  </filter>
  <filter id="filter237">
   <property name="version">0.1</property>
   <property name="mlt_service">frei0r.hqdn3d</property>
   <property name="kdenlive_id">frei0r.hqdn3d</property>
   <property name="Spatial">00:00:00.000=0.01</property>
   <property name="Temporal">00:00:00.000=0.01</property>
  </filter>
  <filter id="filter238">
   <property name="version">0.6</property>
   <property name="mlt_service">frei0r.select0r</property>
   <property name="kdenlive_id">frei0r.select0r</property>
   <property name="Color to select">0x286b44ff</property>
   <property name="Invert selection">1</property>
   <property name="Selection subspace">1</property>
   <property name="Subspace shape">0</property>
   <property name="Edge mode">0.9</property>
   <property name="Delta R / A / Hue">00:00:00.000=0.025</property>
   <property name="Delta G / B / Chroma">00:00:00.000=0.11</property>
   <property name="Delta B / I / I">00:00:00.000=0.281</property>
   <property name="Slope">00:00:00.000=0.071</property>
   <property name="Operation">0.5</property>
  </filter>
  <filter id="filter239">
   <property name="mlt_service">avfilter.despill</property>
   <property name="kdenlive_id">avfilter.despill</property>
   <property name="av.type">green</property>
   <property name="av.mix">0.071</property>
   <property name="av.expand">0.022</property>
   <property name="av.red">0</property>
   <property name="av.green">-1</property>
   <property name="av.blue">-0.7</property>
   <property name="av.brightness">0</property>
  </filter>
 </producer>
 <producer id="producer253" in="00:00:00.000" out="00:02:27.067">
  <property name="length">4413</property>
  <property name="eof">pause</property>
  <property name="resource">content/musicians/2021-06-02_Caleb+Chris_electric+piano+handheld_mac_MVI_6000-take2_piano_entry.mkv</property>
  <property name="audio_index">1</property>
  <property name="video_index">0</property>
  <property name="mute_on_pause">0</property>
  <property name="mlt_service">avformat-novalidate</property>
  <property name="seekable">1</property>
  <property name="aspect_ratio">1</property>
  <property name="kdenlive:clipname"/>
  <property name="kdenlive:folderid">65</property>
  <property name="kdenlive:id">38</property>
  <property name="kdenlive:file_size">862319521</property>
  <property name="kdenlive:file_hash">3febb490813df0c6328fed2b88abb536</property>
  <property name="kdenlive:audio_max">1</property>
  <property name="global_feed">1</property>
  <property name="kdenlive:markers">[
    {
        "comment": "Marker",
        "pos": 822,
        "type": 0
    },
    {
        "comment": "Marker",
        "pos": 3576,
        "type": 0
    }
]
</property>
  <property name="kdenlive:activeeffect">2</property>
  <property name="xml">was here</property>
  <property name="meta.media.nb_streams">2</property>
  <property name="meta.media.0.stream.type">video</property>
  <property name="meta.media.0.stream.frame_rate">29.97</property>
  <property name="meta.media.0.stream.sample_aspect_ratio">0</property>
  <property name="meta.media.0.codec.width">1920</property>
  <property name="meta.media.0.codec.height">1080</property>
  <property name="meta.media.0.codec.rotate">0</property>
  <property name="meta.media.0.codec.frame_rate">1000</property>
  <property name="meta.media.0.codec.pix_fmt">yuvj420p</property>
  <property name="meta.media.0.codec.sample_aspect_ratio">0</property>
  <property name="meta.media.0.codec.colorspace">601</property>
  <property name="meta.media.0.codec.color_trc">1</property>
  <property name="meta.media.0.codec.name">h264</property>
  <property name="meta.media.0.codec.long_name">H.264 / AVC / MPEG-4 AVC / MPEG-4 part 10</property>
  <property name="meta.media.0.codec.bit_rate">0</property>
  <property name="meta.attr.0.stream.language.markup">eng</property>
  <property name="meta.attr.0.stream.DURATION.markup">00:02:27.090000000</property>
  <property name="meta.media.1.stream.type">audio</property>
  <property name="meta.media.1.codec.sample_fmt">s16</property>
  <property name="meta.media.1.codec.sample_rate">48000</property>
  <property name="meta.media.1.codec.channels">2</property>
  <property name="meta.media.1.codec.name">pcm_s16le</property>
  <property name="meta.media.1.codec.long_name">PCM signed 16-bit little-endian</property>
  <property name="meta.media.1.codec.bit_rate">1536000</property>
  <property name="meta.attr.1.stream.language.markup">eng</property>
  <property name="meta.attr.1.stream.DURATION.markup">00:02:27.083000000</property>
  <property name="meta.attr.COMPATIBLE_BRANDS.markup">qt  CAEP</property>
  <property name="meta.attr.creation_time.markup">2021-06-02T15:54:00.000000Z</property>
  <property name="meta.attr.MAJOR_BRAND.markup">qt  </property>
  <property name="meta.attr.MINOR_VERSION.markup">537331968</property>
  <property name="meta.attr.ENCODER.markup">Lavf58.45.100</property>
  <property name="meta.media.sample_aspect_num">1</property>
  <property name="meta.media.sample_aspect_den">1</property>
  <property name="meta.media.frame_rate_num">30000</property>
  <property name="meta.media.frame_rate_den">1001</property>
  <property name="meta.media.colorspace">601</property>
  <property name="meta.media.color_trc">1</property>
  <property name="meta.media.width">1920</property>
  <property name="meta.media.height">1080</property>
  <property name="meta.media.color_range">full</property>
  <property name="meta.media.top_field_first">0</property>
  <property name="meta.media.progressive">1</property>
  <property name="set.test_audio">1</property>
  <property name="set.test_image">0</property>
 </producer>
 <producer id="producer254" in="00:00:00.000" out="00:02:27.067">
  <property name="length">4413</property>
  <property name="eof">pause</property>
  <property name="resource">content/musicians/2021-06-02_Caleb+Chris_electric+piano+handheld_mac_MVI_6000-take2_piano_entry.mkv</property>
  <property name="audio_index">1</property>
  <property name="video_index">0</property>
  <property name="mute_on_pause">0</property>
  <property name="mlt_service">avformat-novalidate</property>
  <property name="seekable">1</property>
  <property name="aspect_ratio">1</property>
  <property name="kdenlive:clipname"/>
  <property name="kdenlive:folderid">65</property>
  <property name="kdenlive:id">38</property>
  <property name="kdenlive:file_size">862319521</property>
  <property name="kdenlive:file_hash">3febb490813df0c6328fed2b88abb536</property>
  <property name="kdenlive:audio_max">1</property>
  <property name="global_feed">1</property>
  <property name="kdenlive:markers">[
    {
        "comment": "Marker",
        "pos": 822,
        "type": 0
    },
    {
        "comment": "Marker",
        "pos": 3576,
        "type": 0
    }
]
</property>
  <property name="kdenlive:activeeffect">2</property>
  <property name="xml">was here</property>
  <property name="meta.media.nb_streams">2</property>
  <property name="meta.media.0.stream.type">video</property>
  <property name="meta.media.0.stream.frame_rate">29.97</property>
  <property name="meta.media.0.stream.sample_aspect_ratio">0</property>
  <property name="meta.media.0.codec.width">1920</property>
  <property name="meta.media.0.codec.height">1080</property>
  <property name="meta.media.0.codec.rotate">0</property>
  <property name="meta.media.0.codec.frame_rate">1000</property>
  <property name="meta.media.0.codec.pix_fmt">yuvj420p</property>
  <property name="meta.media.0.codec.sample_aspect_ratio">0</property>
  <property name="meta.media.0.codec.colorspace">601</property>
  <property name="meta.media.0.codec.color_trc">1</property>
  <property name="meta.media.0.codec.name">h264</property>
  <property name="meta.media.0.codec.long_name">H.264 / AVC / MPEG-4 AVC / MPEG-4 part 10</property>
  <property name="meta.media.0.codec.bit_rate">0</property>
  <property name="meta.attr.0.stream.language.markup">eng</property>
  <property name="meta.attr.0.stream.DURATION.markup">00:02:27.090000000</property>
  <property name="meta.media.1.stream.type">audio</property>
  <property name="meta.media.1.codec.sample_fmt">s16</property>
  <property name="meta.media.1.codec.sample_rate">48000</property>
  <property name="meta.media.1.codec.channels">2</property>
  <property name="meta.media.1.codec.name">pcm_s16le</property>
  <property name="meta.media.1.codec.long_name">PCM signed 16-bit little-endian</property>
  <property name="meta.media.1.codec.bit_rate">1536000</property>
  <property name="meta.attr.1.stream.language.markup">eng</property>
  <property name="meta.attr.1.stream.DURATION.markup">00:02:27.083000000</property>
  <property name="meta.attr.COMPATIBLE_BRANDS.markup">qt  CAEP</property>
  <property name="meta.attr.creation_time.markup">2021-06-02T15:54:00.000000Z</property>
  <property name="meta.attr.MAJOR_BRAND.markup">qt  </property>
  <property name="meta.attr.MINOR_VERSION.markup">537331968</property>
  <property name="meta.attr.ENCODER.markup">Lavf58.45.100</property>
  <property name="meta.media.sample_aspect_num">1</property>
  <property name="meta.media.sample_aspect_den">1</property>
  <property name="meta.media.frame_rate_num">30000</property>
  <property name="meta.media.frame_rate_den">1001</property>
  <property name="meta.media.colorspace">601</property>
  <property name="meta.media.color_trc">1</property>
  <property name="meta.media.width">1920</property>
  <property name="meta.media.height">1080</property>
  <property name="meta.media.color_range">full</property>
  <property name="meta.media.top_field_first">0</property>
  <property name="meta.media.progressive">1</property>
  <property name="set.test_audio">1</property>
  <property name="set.test_image">0</property>
 </producer>
 <producer id="producer255" in="00:00:00.000" out="00:00:36.067">
  <property name="length">1083</property>
  <property name="eof">pause</property>
  <property name="resource">0.989681:content/musicians/2021-06-02_Caleb+Chris_electric+piano+handheld_mac_MVI_6000-take2_piano_solo_ending_portrait.mkv</property>
  <property name="aspect_ratio">1</property>
  <property name="meta.media.nb_streams">2</property>
  <property name="meta.media.0.stream.type">video</property>
  <property name="meta.media.0.stream.frame_rate">29.97</property>
  <property name="meta.media.0.stream.sample_aspect_ratio">0</property>
  <property name="meta.media.0.codec.width">1920</property>
  <property name="meta.media.0.codec.height">1080</property>
  <property name="meta.media.0.codec.rotate">0</property>
  <property name="meta.media.0.codec.frame_rate">1000</property>
  <property name="meta.media.0.codec.pix_fmt">yuvj420p</property>
  <property name="meta.media.0.codec.sample_aspect_ratio">0</property>
  <property name="meta.media.0.codec.colorspace">601</property>
  <property name="meta.media.0.codec.color_trc">1</property>
  <property name="meta.media.0.codec.name">h264</property>
  <property name="meta.media.0.codec.long_name">H.264 / AVC / MPEG-4 AVC / MPEG-4 part 10</property>
  <property name="meta.media.0.codec.bit_rate">0</property>
  <property name="meta.attr.0.stream.language.markup">eng</property>
  <property name="meta.attr.0.stream.DURATION.markup">00:00:35.736000000</property>
  <property name="meta.media.1.stream.type">audio</property>
  <property name="meta.media.1.codec.sample_fmt">s16</property>
  <property name="meta.media.1.codec.sample_rate">48000</property>
  <property name="meta.media.1.codec.channels">2</property>
  <property name="meta.media.1.codec.name">pcm_s16le</property>
  <property name="meta.media.1.codec.long_name">PCM signed 16-bit little-endian</property>
  <property name="meta.media.1.codec.bit_rate">1536000</property>
  <property name="meta.attr.1.stream.language.markup">eng</property>
  <property name="meta.attr.1.stream.DURATION.markup">00:00:35.739000000</property>
  <property name="meta.attr.COMPATIBLE_BRANDS.markup">qt  CAEP</property>
  <property name="meta.attr.creation_time.markup">2021-06-02T15:54:00.000000Z</property>
  <property name="meta.attr.MAJOR_BRAND.markup">qt  </property>
  <property name="meta.attr.MINOR_VERSION.markup">537331968</property>
  <property name="meta.attr.ENCODER.markup">Lavf58.45.100</property>
  <property name="seekable">1</property>
  <property name="meta.media.sample_aspect_num">1</property>
  <property name="meta.media.sample_aspect_den">1</property>
  <property name="audio_index">1</property>
  <property name="video_index">0</property>
  <property name="mute_on_pause">1</property>
  <property name="warp_speed">0.989681</property>
  <property name="warp_resource">content/musicians/2021-06-02_Caleb+Chris_electric+piano+handheld_mac_MVI_6000-take2_piano_solo_ending_portrait.mkv</property>
  <property name="mlt_service">timewarp</property>
  <property name="set.test_audio">1</property>
  <property name="set.test_image">1</property>
  <property name="kdenlive:id">39</property>
  <property name="warp_pitch">0</property>
  <property name="meta.media.frame_rate_num">30000</property>
  <property name="meta.media.frame_rate_den">1001</property>
  <property name="meta.media.colorspace">601</property>
  <property name="meta.media.color_trc">1</property>
  <property name="meta.media.width">1920</property>
  <property name="meta.media.height">1080</property>
  <property name="meta.media.color_range">full</property>
 </producer>
 <producer id="producer256" in="00:00:00.000" out="00:01:53.700">
  <property name="length">3412</property>
  <property name="eof">pause</property>
  <property name="resource">/home/ryankelln/.cache/kdenlive/proxy/905fd94a7f56fbf51e718f81c28eb554.mkv</property>
  <property name="audio_index">1</property>
  <property name="video_index">0</property>
  <property name="mute_on_pause">0</property>
  <property name="mlt_service">avformat-novalidate</property>
  <property name="seekable">1</property>
  <property name="aspect_ratio">1</property>
  <property name="kdenlive:clipname">2021-02-06_Chris_synth+4k_mac_P1180160-take3_ending.MP4</property>
  <property name="kdenlive:folderid">65</property>
  <property name="kdenlive:id">44</property>
  <property name="kdenlive:file_size">1364659209</property>
  <property name="kdenlive:file_hash">905fd94a7f56fbf51e718f81c28eb554</property>
  <property name="kdenlive:audio_max">1</property>
  <property name="kdenlive:proxy">/home/ryankelln/.cache/kdenlive/proxy/905fd94a7f56fbf51e718f81c28eb554.mkv</property>
  <property name="kdenlive:originalurl">content/musicians/2021-02-06_Chris_synth+4k_mac_P1180160-take3_ending.MP4</property>
  <property name="kdenlive:original.mlt_type">producer</property>
  <property name="kdenlive:original.in">00:00:00.000</property>
  <property name="kdenlive:original.out">00:01:53.700</property>
  <property name="kdenlive:original.length">3412</property>
  <property name="kdenlive:original.eof">pause</property>
  <property name="kdenlive:original.resource">content/musicians/2021-02-06_Chris_synth+4k_mac_P1180160-take3_ending.MP4</property>
  <property name="kdenlive:original.meta.media.nb_streams">2</property>
  <property name="kdenlive:original.meta.media.0.stream.type">video</property>
  <property name="kdenlive:original.meta.media.0.stream.frame_rate">29.97</property>
  <property name="kdenlive:original.meta.media.0.stream.sample_aspect_ratio">1</property>
  <property name="kdenlive:original.meta.media.0.codec.width">3840</property>
  <property name="kdenlive:original.meta.media.0.codec.height">2160</property>
  <property name="kdenlive:original.meta.media.0.codec.rotate">0</property>
  <property name="kdenlive:original.meta.media.0.codec.frame_rate">29.97</property>
  <property name="kdenlive:original.meta.media.0.codec.pix_fmt">yuvj420p</property>
  <property name="kdenlive:original.meta.media.0.codec.sample_aspect_ratio">1</property>
  <property name="kdenlive:original.meta.media.0.codec.colorspace">709</property>
  <property name="kdenlive:original.meta.media.0.codec.color_trc">1</property>
  <property name="kdenlive:original.meta.media.0.codec.name">h264</property>
  <property name="kdenlive:original.meta.media.0.codec.long_name">H.264 / AVC / MPEG-4 AVC / MPEG-4 part 10</property>
  <property name="kdenlive:original.meta.media.0.codec.bit_rate">95929063</property>
  <property name="kdenlive:original.meta.attr.0.stream.creation_time.markup">2021-06-02T15:49:21.000000Z</property>
  <property name="kdenlive:original.meta.attr.0.stream.handler_name.markup">VideoHandler</property>
  <property name="kdenlive:original.meta.media.1.stream.type">audio</property>
  <property name="kdenlive:original.meta.media.1.codec.sample_fmt">fltp</property>
  <property name="kdenlive:original.meta.media.1.codec.sample_rate">48000</property>
  <property name="kdenlive:original.meta.media.1.codec.channels">2</property>
  <property name="kdenlive:original.meta.media.1.codec.name">aac</property>
  <property name="kdenlive:original.meta.media.1.codec.long_name">AAC (Advanced Audio Coding)</property>
  <property name="kdenlive:original.meta.media.1.codec.bit_rate">125374</property>
  <property name="kdenlive:original.meta.attr.1.stream.creation_time.markup">2021-06-02T15:49:21.000000Z</property>
  <property name="kdenlive:original.meta.attr.1.stream.handler_name.markup">SoundHandler</property>
  <property name="kdenlive:original.meta.attr.major_brand.markup">isom</property>
  <property name="kdenlive:original.meta.attr.minor_version.markup">512</property>
  <property name="kdenlive:original.meta.attr.compatible_brands.markup">isomiso2avc1mp41</property>
  <property name="kdenlive:original.meta.attr.creation_time.markup">2021-06-02T15:49:21.000000Z</property>
  <property name="kdenlive:original.meta.attr.encoder.markup">Lavf58.45.100</property>
  <property name="kdenlive:original.seekable">1</property>
  <property name="kdenlive:original.width">3840</property>
  <property name="kdenlive:original.height">2160</property>
  <property name="kdenlive:original.meta.media.sample_aspect_num">1</property>
  <property name="kdenlive:original.meta.media.sample_aspect_den">1</property>
  <property name="kdenlive:original.aspect_ratio">1</property>
  <property name="kdenlive:original.audio_index">1</property>
  <property name="kdenlive:original.video_index">0</property>
  <property name="kdenlive:original.mute_on_pause">0</property>
  <property name="kdenlive:original.mlt_service">avformat-novalidate</property>
  <property name="kdenlive:original.kdenlive:folderid">65</property>
  <property name="kdenlive:original.meta.media.frame_rate_num">30000</property>
  <property name="kdenlive:original.meta.media.frame_rate_den">1001</property>
  <property name="kdenlive:original.meta.media.colorspace">709</property>
  <property name="kdenlive:original.meta.media.color_trc">1</property>
  <property name="kdenlive:original.meta.media.width">3840</property>
  <property name="kdenlive:original.meta.media.height">2160</property>
  <property name="kdenlive:original.meta.media.color_range">full</property>
  <property name="kdenlive:original.kdenlive:id">82</property>
  <property name="kdenlive:original.kdenlive:file_size">1364659209</property>
  <property name="kdenlive:original.kdenlive:file_hash">905fd94a7f56fbf51e718f81c28eb554</property>
  <property name="kdenlive:original.meta.media.top_field_first">0</property>
  <property name="kdenlive:original.meta.media.progressive">1</property>
  <property name="kdenlive:original.kdenlive:audio_max">1</property>
  <property name="kdenlive:original.backup">1</property>
  <property name="global_feed">1</property>
  <property name="xml">was here</property>
  <property name="meta.media.nb_streams">2</property>
  <property name="meta.media.0.stream.type">video</property>
  <property name="meta.media.0.stream.frame_rate">29.97</property>
  <property name="meta.media.0.stream.sample_aspect_ratio">1</property>
  <property name="meta.media.0.codec.width">960</property>
  <property name="meta.media.0.codec.height">540</property>
  <property name="meta.media.0.codec.rotate">0</property>
  <property name="meta.media.0.codec.frame_rate">1000</property>
  <property name="meta.media.0.codec.pix_fmt">yuvj420p</property>
  <property name="meta.media.0.codec.sample_aspect_ratio">1</property>
  <property name="meta.media.0.codec.colorspace">601</property>
  <property name="meta.media.0.codec.name">mjpeg</property>
  <property name="meta.media.0.codec.long_name">MJPEG (Motion JPEG)</property>
  <property name="meta.media.0.codec.bit_rate">0</property>
  <property name="meta.attr.0.stream.HANDLER_NAME.markup">VideoHandler</property>
  <property name="meta.attr.0.stream.ENCODER.markup">Lavc58.91.100 mjpeg</property>
  <property name="meta.attr.0.stream.DURATION.markup">00:01:53.747000000</property>
  <property name="meta.media.1.stream.type">audio</property>
  <property name="meta.media.1.codec.sample_fmt">s16</property>
  <property name="meta.media.1.codec.sample_rate">48000</property>
  <property name="meta.media.1.codec.channels">2</property>
  <property name="meta.media.1.codec.name">pcm_s16le</property>
  <property name="meta.media.1.codec.long_name">PCM signed 16-bit little-endian</property>
  <property name="meta.media.1.codec.bit_rate">1536000</property>
  <property name="meta.attr.1.stream.HANDLER_NAME.markup">SoundHandler</property>
  <property name="meta.attr.1.stream.ENCODER.markup">Lavc58.91.100 pcm_s16le</property>
  <property name="meta.attr.1.stream.DURATION.markup">00:01:53.728000000</property>
  <property name="meta.attr.COMPATIBLE_BRANDS.markup">isomiso2avc1mp41</property>
  <property name="meta.attr.MAJOR_BRAND.markup">isom</property>
  <property name="meta.attr.MINOR_VERSION.markup">512</property>
  <property name="meta.attr.ENCODER.markup">Lavf58.45.100</property>
  <property name="meta.media.sample_aspect_num">1</property>
  <property name="meta.media.sample_aspect_den">1</property>
  <property name="meta.media.frame_rate_num">30000</property>
  <property name="meta.media.frame_rate_den">1001</property>
  <property name="meta.media.colorspace">601</property>
  <property name="meta.media.color_trc">2</property>
  <property name="meta.media.width">960</property>
  <property name="meta.media.height">540</property>
  <property name="meta.media.color_range">full</property>
  <property name="meta.media.top_field_first">0</property>
  <property name="meta.media.progressive">1</property>
  <property name="set.test_audio">1</property>
  <property name="set.test_image">0</property>
 </producer>
 <producer id="producer257" in="00:00:00.000" out="00:02:02.533">
  <property name="length">3677</property>
  <property name="eof">pause</property>
  <property name="resource">content/musicians/2021-06-02_Sarah_kit_mac_00048-take3_end.mp4</property>
  <property name="audio_index">1</property>
  <property name="video_index">0</property>
  <property name="mute_on_pause">0</property>
  <property name="mlt_service">avformat-novalidate</property>
  <property name="seekable">1</property>
  <property name="aspect_ratio">1.33333</property>
  <property name="kdenlive:clipname"/>
  <property name="kdenlive:folderid">65</property>
  <property name="kdenlive:id">37</property>
  <property name="kdenlive:file_size">106278992</property>
  <property name="kdenlive:file_hash">aeb2276b65c072705937c66678af8033</property>
  <property name="kdenlive:audio_max">1</property>
  <property name="global_feed">1</property>
  <property name="xml">was here</property>
  <property name="meta.media.nb_streams">2</property>
  <property name="meta.media.0.stream.type">video</property>
  <property name="meta.media.0.stream.frame_rate">59.9401</property>
  <property name="meta.media.0.stream.sample_aspect_ratio">1.33333</property>
  <property name="meta.media.0.codec.width">1440</property>
  <property name="meta.media.0.codec.height">1080</property>
  <property name="meta.media.0.codec.rotate">0</property>
  <property name="meta.media.0.codec.frame_rate">29.97</property>
  <property name="meta.media.0.codec.pix_fmt">yuv420p</property>
  <property name="meta.media.0.codec.sample_aspect_ratio">1.33333</property>
  <property name="meta.media.0.codec.colorspace">709</property>
  <property name="meta.media.0.codec.name">h264</property>
  <property name="meta.media.0.codec.long_name">H.264 / AVC / MPEG-4 AVC / MPEG-4 part 10</property>
  <property name="meta.media.0.codec.bit_rate">6693721</property>
  <property name="meta.attr.0.stream.handler_name.markup">VideoHandler</property>
  <property name="meta.media.1.stream.type">audio</property>
  <property name="meta.media.1.codec.sample_fmt">fltp</property>
  <property name="meta.media.1.codec.sample_rate">48000</property>
  <property name="meta.media.1.codec.channels">2</property>
  <property name="meta.media.1.codec.name">ac3</property>
  <property name="meta.media.1.codec.long_name">ATSC A/52A (AC-3)</property>
  <property name="meta.media.1.codec.bit_rate">256000</property>
  <property name="meta.attr.1.stream.handler_name.markup">SoundHandler</property>
  <property name="meta.attr.major_brand.markup">isom</property>
  <property name="meta.attr.minor_version.markup">512</property>
  <property name="meta.attr.compatible_brands.markup">isomiso2avc1mp41</property>
  <property name="meta.attr.encoder.markup">Lavf58.45.100</property>
  <property name="meta.media.sample_aspect_num">4</property>
  <property name="meta.media.sample_aspect_den">3</property>
  <property name="meta.media.frame_rate_num">659250000</property>
  <property name="meta.media.frame_rate_den">10998487</property>
  <property name="meta.media.colorspace">709</property>
  <property name="meta.media.color_trc">2</property>
  <property name="meta.media.width">1440</property>
  <property name="meta.media.height">1080</property>
  <property name="meta.media.color_range">mpeg</property>
  <property name="meta.media.top_field_first">1</property>
  <property name="meta.media.progressive">0</property>
  <property name="set.test_audio">1</property>
  <property name="set.test_image">0</property>
 </producer>
 <producer id="producer258" in="00:00:00.000" out="00:02:02.533">
  <property name="length">3677</property>
  <property name="eof">pause</property>
  <property name="resource">content/musicians/2021-06-02_Sarah_kit_mac_00048-take3_end.mp4</property>
  <property name="audio_index">1</property>
  <property name="video_index">0</property>
  <property name="mute_on_pause">0</property>
  <property name="mlt_service">avformat-novalidate</property>
  <property name="seekable">1</property>
  <property name="aspect_ratio">1.33333</property>
  <property name="kdenlive:clipname"/>
  <property name="kdenlive:folderid">65</property>
  <property name="kdenlive:id">37</property>
  <property name="kdenlive:file_size">106278992</property>
  <property name="kdenlive:file_hash">aeb2276b65c072705937c66678af8033</property>
  <property name="kdenlive:audio_max">1</property>
  <property name="global_feed">1</property>
  <property name="xml">was here</property>
  <property name="meta.media.nb_streams">2</property>
  <property name="meta.media.0.stream.type">video</property>
  <property name="meta.media.0.stream.frame_rate">59.9401</property>
  <property name="meta.media.0.stream.sample_aspect_ratio">1.33333</property>
  <property name="meta.media.0.codec.width">1440</property>
  <property name="meta.media.0.codec.height">1080</property>
  <property name="meta.media.0.codec.rotate">0</property>
  <property name="meta.media.0.codec.frame_rate">29.97</property>
  <property name="meta.media.0.codec.pix_fmt">yuv420p</property>
  <property name="meta.media.0.codec.sample_aspect_ratio">1.33333</property>
  <property name="meta.media.0.codec.colorspace">709</property>
  <property name="meta.media.0.codec.name">h264</property>
  <property name="meta.media.0.codec.long_name">H.264 / AVC / MPEG-4 AVC / MPEG-4 part 10</property>
  <property name="meta.media.0.codec.bit_rate">6693721</property>
  <property name="meta.attr.0.stream.handler_name.markup">VideoHandler</property>
  <property name="meta.media.1.stream.type">audio</property>
  <property name="meta.media.1.codec.sample_fmt">fltp</property>
  <property name="meta.media.1.codec.sample_rate">48000</property>
  <property name="meta.media.1.codec.channels">2</property>
  <property name="meta.media.1.codec.name">ac3</property>
  <property name="meta.media.1.codec.long_name">ATSC A/52A (AC-3)</property>
  <property name="meta.media.1.codec.bit_rate">256000</property>
  <property name="meta.attr.1.stream.handler_name.markup">SoundHandler</property>
  <property name="meta.attr.major_brand.markup">isom</property>
  <property name="meta.attr.minor_version.markup">512</property>
  <property name="meta.attr.compatible_brands.markup">isomiso2avc1mp41</property>
  <property name="meta.attr.encoder.markup">Lavf58.45.100</property>
  <property name="meta.media.sample_aspect_num">4</property>
  <property name="meta.media.sample_aspect_den">3</property>
  <property name="meta.media.frame_rate_num">659250000</property>
  <property name="meta.media.frame_rate_den">10998487</property>
  <property name="meta.media.colorspace">709</property>
  <property name="meta.media.color_trc">2</property>
  <property name="meta.media.width">1440</property>
  <property name="meta.media.height">1080</property>
  <property name="meta.media.color_range">mpeg</property>
  <property name="meta.media.top_field_first">1</property>
  <property name="meta.media.progressive">0</property>
  <property name="set.test_audio">1</property>
  <property name="set.test_image">1</property>
 </producer>
 <playlist id="playlist22">
  <blank length="00:01:22.133"/>
  <entry producer="producer252" in="00:00:00.000" out="00:00:27.367">
   <property name="kdenlive:id">38</property>
  </entry>
  <entry producer="producer253" in="00:00:27.400" out="00:00:46.933">
   <property name="kdenlive:id">38</property>
   <filter id="filter240">
    <property name="version">0.6</property>
    <property name="mlt_service">frei0r.select0r</property>
    <property name="kdenlive_id">frei0r.select0r</property>
    <property name="Color to select">0x222715ff</property>
    <property name="Invert selection">1</property>
    <property name="Selection subspace">1</property>
    <property name="Subspace shape">0.5</property>
    <property name="Edge mode">0.6</property>
    <property name="Delta R / A / Hue">00:00:27.400=0.071</property>
    <property name="Delta G / B / Chroma">00:00:27.400=0.092</property>
    <property name="Delta B / I / I">00:00:27.400=0.09</property>
    <property name="Slope">00:00:27.400=0.09</property>
    <property name="Operation">0.5</property>
    <property name="kdenlive:collapsed">0</property>
    <property name="disable">0</property>
   </filter>
   <filter id="filter241">
    <property name="rotate_center">1</property>
    <property name="mlt_service">qtblend</property>
    <property name="kdenlive_id">qtblend</property>
    <property name="rect">00:00:27.400=0 0 1920 1080 1.000000;00:00:33.367=0 0 1920 1080 1.000000;00:00:33.800=264 138 1920 1080 1.000000;00:00:34.600=196 206 1920 1080 1.000000</property>
    <property name="rotation">00:00:27.400=0;00:00:33.367=0;00:00:33.800=0;00:00:34.600=0</property>
    <property name="compositing">0</property>
    <property name="distort">0</property>
    <property name="kdenlive:collapsed">0</property>
   </filter>
   <filter id="filter242" in="00:00:27.400" out="00:00:29.033">
    <property name="start">0</property>
    <property name="mlt_service">brightness</property>
    <property name="kdenlive_id">fade_from_black</property>
    <property name="end">1</property>
    <property name="alpha">-1</property>
    <property name="kdenlive:collapsed">0</property>
   </filter>
   <filter id="filter243" in="00:00:45.700" out="00:00:46.933">
    <property name="start">1</property>
    <property name="mlt_service">brightness</property>
    <property name="kdenlive_id">fade_to_black</property>
    <property name="end">0</property>
    <property name="alpha">-1</property>
    <property name="kdenlive:collapsed">0</property>
   </filter>
  </entry>
  <blank length="00:00:01.400"/>
  <entry producer="producer252" in="00:00:48.367" out="00:01:59.167">
   <property name="kdenlive:id">38</property>
  </entry>
  <entry producer="producer254" in="00:01:59.200" out="00:02:15.400">
   <property name="kdenlive:id">38</property>
   <filter id="filter244">
    <property name="rotate_center">1</property>
    <property name="mlt_service">qtblend</property>
    <property name="kdenlive_id">qtblend</property>
    <property name="rect">00:01:59.200=0 0 1920 1080 1.000000;00:02:14.667=0 0 1920 1080 1.000000;00:02:15.400=0 0 1920 1080 0.100000</property>
    <property name="rotation">00:01:59.200=0;00:02:14.667=0;00:02:15.400=0</property>
    <property name="compositing">0</property>
    <property name="distort">0</property>
    <property name="kdenlive:collapsed">0</property>
   </filter>
  </entry>
  <entry producer="producer252" in="00:02:15.433" out="00:02:27.067">
   <property name="kdenlive:id">38</property>
  </entry>
  <entry producer="producer255" in="00:00:00.567" out="00:00:36.067">
   <property name="kdenlive:id">39</property>
  </entry>
  <blank length="00:00:49.433"/>
  <entry producer="producer256" in="00:00:00.833" out="00:00:17.867">
   <property name="kdenlive:id">44</property>
   <filter id="filter245">
    <property name="version">0.6</property>
    <property name="mlt_service">frei0r.select0r</property>
    <property name="kdenlive_id">frei0r.select0r</property>
    <property name="Color to select">0x517549ff</property>
    <property name="Invert selection">1</property>
    <property name="Selection subspace">1</property>
    <property name="Subspace shape">0.5</property>
    <property name="Edge mode">0.9</property>
    <property name="Delta R / A / Hue">00:00:00.833=0.078</property>
    <property name="Delta G / B / Chroma">00:00:00.833=0.148</property>
    <property name="Delta B / I / I">00:00:00.833=0.245</property>
    <property name="Slope">00:00:00.833=0.114</property>
    <property name="Operation">0.5</property>
    <property name="kdenlive:collapsed">0</property>
   </filter>
   <filter id="filter246">
    <property name="mlt_service">avfilter.despill</property>
    <property name="kdenlive_id">avfilter.despill</property>
    <property name="av.type">green</property>
    <property name="av.mix">0.155989</property>
    <property name="av.expand">0.068</property>
    <property name="av.red">0</property>
    <property name="av.green">-0.8</property>
    <property name="av.blue">0</property>
    <property name="av.brightness">0.3</property>
    <property name="kdenlive:collapsed">0</property>
    <property name="disable">0</property>
   </filter>
   <filter id="filter247">
    <property name="mode">alpha</property>
    <property name="alpha_operation">max</property>
    <property name="invert">0</property>
    <property name="feather">7</property>
    <property name="feather_passes">1</property>
    <property name="mlt_service">rotoscoping</property>
    <property name="kdenlive_id">rotoscoping</property>
    <property name="spline">{
    "025": [
        [
            [
                0.06142557651991614,
                0.40671641791044777
            ],
            [
                0.0639412997903564,
                0.3787313432835821
            ],
            [
                0.10020964360587001,
                0.3876865671641791
            ]
        ],
        [
            [
                0.20901467505241086,
                0.41455223880597014
            ],
            [
                0.24528301886792453,
                0.42350746268656714
            ],
            [
                0.2522012578616352,
                0.4231343283582089
            ]
        ],
        [
            [
                0.2729559748427673,
                0.42201492537313434
            ],
            [
                0.279874213836478,
                0.4216417910447761
            ],
            [
                0.3226415094339623,
                0.4835820895522388
            ]
        ],
        [
            [
                0.45094339622641505,
                0.6694029850746269
            ],
            [
                0.4937106918238994,
                0.7313432835820896
            ],
            [
                0.4949685534591195,
                0.7473880597014926
            ]
        ],
        [
            [
                0.4987421383647799,
                0.7955223880597015
            ],
            [
                0.5,
                0.8115671641791045
            ],
            [
                0.49580712788259956,
                0.8134328358208955
            ]
        ],
        [
            [
                0.4832285115303983,
                0.8190298507462686
            ],
            [
                0.47903563941299787,
                0.8208955223880596
            ],
            [
                0.510482180293501,
                0.8634328358208955
            ]
        ],
        [
            [
                0.6048218029350105,
                0.991044776119403
            ],
            [
                0.6362683438155137,
                1.033582089552239
            ],
            [
                0.6433962264150943,
                1.0298507462686568
            ]
        ],
        [
            [
                0.6647798742138364,
                1.0186567164179106
            ],
            [
                0.6719077568134171,
                1.0149253731343284
            ],
            [
                0.6727463312368972,
                0.9865671641791045
            ]
        ],
        [
            [
                0.6752620545073376,
                0.9014925373134328
            ],
            [
                0.6761006289308177,
                0.8731343283582089
            ],
            [
                0.6903563941299791,
                0.8671641791044776
            ]
        ],
        [
            [
                0.7331236897274633,
                0.8492537313432835
            ],
            [
                0.7473794549266247,
                0.8432835820895522
            ],
            [
                0.7545073375262054,
                0.8537313432835821
            ]
        ],
        [
            [
                0.7758909853249476,
                0.8850746268656716
            ],
            [
                0.7830188679245284,
                0.8955223880597015
            ],
            [
                0.7846960167714884,
                0.817910447761194
            ]
        ],
        [
            [
                0.789727463312369,
                0.5850746268656716
            ],
            [
                0.7914046121593291,
                0.5074626865671642
            ],
            [
                0.7947589098532494,
                0.47985074626865676
            ]
        ],
        [
            [
                0.8048218029350104,
                0.3970149253731344
            ],
            [
                0.8081761006289307,
                0.3694029850746269
            ],
            [
                0.8215932914046121,
                0.3186567164179105
            ]
        ],
        [
            [
                0.8924528301886792,
                0.23694029850746276
            ],
            [
                0.9119496855345911,
                0.22761194029850748
            ],
            [
                0.9285115303983228,
                0.23097014925373135
            ]
        ],
        [
            [
                0.9821802935010482,
                0.291044776119403
            ],
            [
                0.9884696016771488,
                0.3395522388059702
            ],
            [
                1.012788259958071,
                0.3492537313432836
            ]
        ],
        [
            [
                1.0857442348008384,
                0.3783582089552239
            ],
            [
                1.1100628930817609,
                0.3880597014925373
            ],
            [
                1.1163522012578615,
                0.5746268656716418
            ]
        ],
        [
            [
                1.1352201257861634,
                1.1343283582089552
            ],
            [
                1.141509433962264,
                1.3208955223880599
            ],
            [
                0.9914046121593291,
                1.3201492537313435
            ]
        ],
        [
            [
                0.541090146750524,
                1.317910447761194
            ],
            [
                0.3909853249475891,
                1.3171641791044777
            ],
            [
                0.3675052410901467,
                1.2276119402985075
            ]
        ],
        [
            [
                0.2970649895178197,
                0.958955223880597
            ],
            [
                0.27358490566037735,
                0.8694029850746269
            ],
            [
                0.25513626834381553,
                0.8694029850746269
            ]
        ],
        [
            [
                0.19979035639412995,
                0.8694029850746269
            ],
            [
                0.1813417190775681,
                0.8694029850746269
            ],
            [
                0.15534591194968553,
                0.7992537313432836
            ]
        ],
        [
            [
                0.07735849056603773,
                0.5888059701492537
            ],
            [
                0.05136268343815513,
                0.5186567164179104
            ],
            [
                0.05387840670859538,
                0.4906716417910447
            ]
        ]
    ],
    "125": [
        [
            [
                0.06142557651991614,
                0.40671641791044777
            ],
            [
                0.0639412997903564,
                0.3787313432835821
            ],
            [
                0.10020964360587001,
                0.3876865671641791
            ]
        ],
        [
            [
                0.20901467505241086,
                0.41455223880597014
            ],
            [
                0.24528301886792453,
                0.42350746268656714
            ],
            [
                0.2522012578616352,
                0.4231343283582089
            ]
        ],
        [
            [
                0.2729559748427673,
                0.42201492537313434
            ],
            [
                0.279874213836478,
                0.4216417910447761
            ],
            [
                0.3226415094339623,
                0.4835820895522388
            ]
        ],
        [
            [
                0.45094339622641505,
                0.6694029850746269
            ],
            [
                0.4937106918238994,
                0.7313432835820896
            ],
            [
                0.4949685534591195,
                0.7473880597014926
            ]
        ],
        [
            [
                0.4987421383647799,
                0.7955223880597015
            ],
            [
                0.5,
                0.8115671641791045
            ],
            [
                0.49580712788259956,
                0.8134328358208955
            ]
        ],
        [
            [
                0.4832285115303983,
                0.8190298507462686
            ],
            [
                0.47903563941299787,
                0.8208955223880596
            ],
            [
                0.510482180293501,
                0.8634328358208955
            ]
        ],
        [
            [
                0.6048218029350105,
                0.991044776119403
            ],
            [
                0.6362683438155137,
                1.033582089552239
            ],
            [
                0.6433962264150943,
                1.0298507462686568
            ]
        ],
        [
            [
                0.6647798742138364,
                1.0186567164179106
            ],
            [
                0.6719077568134171,
                1.0149253731343284
            ],
            [
                0.6727463312368972,
                0.9865671641791045
            ]
        ],
        [
            [
                0.6752620545073376,
                0.9014925373134328
            ],
            [
                0.6761006289308177,
                0.8731343283582089
            ],
            [
                0.6903563941299791,
                0.8671641791044776
            ]
        ],
        [
            [
                0.7331236897274633,
                0.8492537313432835
            ],
            [
                0.7473794549266247,
                0.8432835820895522
            ],
            [
                0.7545073375262054,
                0.8537313432835821
            ]
        ],
        [
            [
                0.7758909853249476,
                0.8850746268656716
            ],
            [
                0.7830188679245284,
                0.8955223880597015
            ],
            [
                0.7846960167714884,
                0.817910447761194
            ]
        ],
        [
            [
                0.789727463312369,
                0.5850746268656716
            ],
            [
                0.7914046121593291,
                0.5074626865671642
            ],
            [
                0.7947589098532494,
                0.47985074626865676
            ]
        ],
        [
            [
                0.8048218029350104,
                0.3970149253731344
            ],
            [
                0.8081761006289307,
                0.3694029850746269
            ],
            [
                0.8215932914046121,
                0.3186567164179105
            ]
        ],
        [
            [
                0.8924528301886792,
                0.23694029850746276
            ],
            [
                0.9119496855345911,
                0.22761194029850748
            ],
            [
                0.9285115303983228,
                0.23097014925373135
            ]
        ],
        [
            [
                0.9821802935010482,
                0.291044776119403
            ],
            [
                0.9884696016771488,
                0.3395522388059702
            ],
            [
                1.012788259958071,
                0.3492537313432836
            ]
        ],
        [
            [
                1.0857442348008384,
                0.3783582089552239
            ],
            [
                1.1100628930817609,
                0.3880597014925373
            ],
            [
                1.1163522012578615,
                0.5746268656716418
            ]
        ],
        [
            [
                1.1352201257861634,
                1.1343283582089552
            ],
            [
                1.141509433962264,
                1.3208955223880599
            ],
            [
                0.9914046121593291,
                1.3201492537313435
            ]
        ],
        [
            [
                0.541090146750524,
                1.317910447761194
            ],
            [
                0.3909853249475891,
                1.3171641791044777
            ],
            [
                0.3675052410901467,
                1.2276119402985075
            ]
        ],
        [
            [
                0.2970649895178197,
                0.958955223880597
            ],
            [
                0.27358490566037735,
                0.8694029850746269
            ],
            [
                0.25513626834381553,
                0.8694029850746269
            ]
        ],
        [
            [
                0.19979035639412995,
                0.8694029850746269
            ],
            [
                0.1813417190775681,
                0.8694029850746269
            ],
            [
                0.15534591194968553,
                0.7992537313432836
            ]
        ],
        [
            [
                0.07735849056603773,
                0.5888059701492537
            ],
            [
                0.05136268343815513,
                0.5186567164179104
            ],
            [
                0.05387840670859538,
                0.4906716417910447
            ]
        ]
    ],
    "140": [
        [
            [
                0.06142557651991614,
                0.40671641791044777
            ],
            [
                0.0639412997903564,
                0.3787313432835821
            ],
            [
                0.10020964360587001,
                0.3876865671641791
            ]
        ],
        [
            [
                0.20901467505241086,
                0.41455223880597014
            ],
            [
                0.24528301886792453,
                0.42350746268656714
            ],
            [
                0.2522012578616352,
                0.4231343283582089
            ]
        ],
        [
            [
                0.2729559748427673,
                0.42201492537313434
            ],
            [
                0.279874213836478,
                0.4216417910447761
            ],
            [
                0.3226415094339623,
                0.4835820895522388
            ]
        ],
        [
            [
                0.45094339622641505,
                0.6694029850746269
            ],
            [
                0.4937106918238994,
                0.7313432835820896
            ],
            [
                0.4949685534591195,
                0.7473880597014926
            ]
        ],
        [
            [
                0.4987421383647799,
                0.7955223880597015
            ],
            [
                0.5,
                0.8115671641791045
            ],
            [
                0.49580712788259956,
                0.8134328358208955
            ]
        ],
        [
            [
                0.4832285115303983,
                0.8190298507462686
            ],
            [
                0.47903563941299787,
                0.8208955223880596
            ],
            [
                0.510482180293501,
                0.8634328358208955
            ]
        ],
        [
            [
                0.6048218029350105,
                0.991044776119403
            ],
            [
                0.6362683438155137,
                1.033582089552239
            ],
            [
                0.6433962264150943,
                1.0298507462686568
            ]
        ],
        [
            [
                0.6647798742138364,
                1.0186567164179106
            ],
            [
                0.6719077568134171,
                1.0149253731343284
            ],
            [
                0.6727463312368972,
                0.9865671641791045
            ]
        ],
        [
            [
                0.6752620545073376,
                0.9014925373134328
            ],
            [
                0.6761006289308177,
                0.8731343283582089
            ],
            [
                0.6903563941299791,
                0.8671641791044776
            ]
        ],
        [
            [
                0.7331236897274633,
                0.8492537313432835
            ],
            [
                0.7473794549266247,
                0.8432835820895522
            ],
            [
                0.7545073375262054,
                0.8537313432835821
            ]
        ],
        [
            [
                0.7758909853249476,
                0.8850746268656716
            ],
            [
                0.7830188679245284,
                0.8955223880597015
            ],
            [
                0.7846960167714884,
                0.817910447761194
            ]
        ],
        [
            [
                0.789727463312369,
                0.5850746268656716
            ],
            [
                0.7914046121593291,
                0.5074626865671642
            ],
            [
                0.7947589098532494,
                0.47985074626865676
            ]
        ],
        [
            [
                0.7440251572327043,
                0.4119402985074626
            ],
            [
                0.7473794549266247,
                0.3843283582089552
            ],
            [
                0.7607966457023061,
                0.33358208955223884
            ]
        ],
        [
            [
                0.829559748427673,
                0.2742537313432837
            ],
            [
                0.8490566037735849,
                0.2649253731343284
            ],
            [
                0.8656184486373166,
                0.2682835820895523
            ]
        ],
        [
            [
                0.9821802935010482,
                0.291044776119403
            ],
            [
                0.9884696016771488,
                0.3395522388059702
            ],
            [
                1.012788259958071,
                0.3492537313432836
            ]
        ],
        [
            [
                1.0857442348008384,
                0.3783582089552239
            ],
            [
                1.1100628930817609,
                0.3880597014925373
            ],
            [
                1.1163522012578615,
                0.5746268656716418
            ]
        ],
        [
            [
                1.1352201257861634,
                1.1343283582089552
            ],
            [
                1.141509433962264,
                1.3208955223880599
            ],
            [
                0.9914046121593291,
                1.3201492537313435
            ]
        ],
        [
            [
                0.541090146750524,
                1.317910447761194
            ],
            [
                0.3909853249475891,
                1.3171641791044777
            ],
            [
                0.3675052410901467,
                1.2276119402985075
            ]
        ],
        [
            [
                0.2970649895178197,
                0.958955223880597
            ],
            [
                0.27358490566037735,
                0.8694029850746269
            ],
            [
                0.25513626834381553,
                0.8694029850746269
            ]
        ],
        [
            [
                0.19979035639412995,
                0.8694029850746269
            ],
            [
                0.1813417190775681,
                0.8694029850746269
            ],
            [
                0.15534591194968553,
                0.7992537313432836
            ]
        ],
        [
            [
                0.07735849056603773,
                0.5888059701492537
            ],
            [
                0.05136268343815513,
                0.5186567164179104
            ],
            [
                0.05387840670859538,
                0.4906716417910447
            ]
        ]
    ],
    "168": [
        [
            [
                0.06142557651991614,
                0.40671641791044777
            ],
            [
                0.0639412997903564,
                0.3787313432835821
            ],
            [
                0.10020964360587001,
                0.3876865671641791
            ]
        ],
        [
            [
                0.20901467505241086,
                0.41455223880597014
            ],
            [
                0.24528301886792453,
                0.42350746268656714
            ],
            [
                0.2522012578616352,
                0.4231343283582089
            ]
        ],
        [
            [
                0.2729559748427673,
                0.42201492537313434
            ],
            [
                0.279874213836478,
                0.4216417910447761
            ],
            [
                0.3226415094339623,
                0.4835820895522388
            ]
        ],
        [
            [
                0.45094339622641505,
                0.6694029850746269
            ],
            [
                0.4937106918238994,
                0.7313432835820896
            ],
            [
                0.4949685534591195,
                0.7473880597014926
            ]
        ],
        [
            [
                0.4987421383647799,
                0.7955223880597015
            ],
            [
                0.5,
                0.8115671641791045
            ],
            [
                0.49580712788259956,
                0.8134328358208955
            ]
        ],
        [
            [
                0.4832285115303983,
                0.8190298507462686
            ],
            [
                0.47903563941299787,
                0.8208955223880596
            ],
            [
                0.510482180293501,
                0.8634328358208955
            ]
        ],
        [
            [
                0.6048218029350105,
                0.991044776119403
            ],
            [
                0.6362683438155137,
                1.033582089552239
            ],
            [
                0.6433962264150943,
                1.0298507462686568
            ]
        ],
        [
            [
                0.6647798742138364,
                1.0186567164179106
            ],
            [
                0.6719077568134171,
                1.0149253731343284
            ],
            [
                0.6727463312368972,
                0.9865671641791045
            ]
        ],
        [
            [
                0.6752620545073376,
                0.9014925373134328
            ],
            [
                0.6761006289308177,
                0.8731343283582089
            ],
            [
                0.6903563941299791,
                0.8671641791044776
            ]
        ],
        [
            [
                0.7331236897274633,
                0.8492537313432835
            ],
            [
                0.7473794549266247,
                0.8432835820895522
            ],
            [
                0.7545073375262054,
                0.8537313432835821
            ]
        ],
        [
            [
                0.7758909853249476,
                0.8850746268656716
            ],
            [
                0.7830188679245284,
                0.8955223880597015
            ],
            [
                0.7846960167714884,
                0.817910447761194
            ]
        ],
        [
            [
                0.789727463312369,
                0.5850746268656716
            ],
            [
                0.7914046121593291,
                0.5074626865671642
            ],
            [
                0.7947589098532494,
                0.47985074626865676
            ]
        ],
        [
            [
                0.7440251572327043,
                0.4119402985074626
            ],
            [
                0.7473794549266247,
                0.3843283582089552
            ],
            [
                0.7607966457023061,
                0.33358208955223884
            ]
        ],
        [
            [
                0.8830188679245283,
                0.2667910447761195
            ],
            [
                0.9025157232704403,
                0.2574626865671642
            ],
            [
                0.919077568134172,
                0.2608208955223881
            ]
        ],
        [
            [
                0.9821802935010482,
                0.291044776119403
            ],
            [
                0.9884696016771488,
                0.3395522388059702
            ],
            [
                1.012788259958071,
                0.3492537313432836
            ]
        ],
        [
            [
                1.0857442348008384,
                0.3783582089552239
            ],
            [
                1.1100628930817609,
                0.3880597014925373
            ],
            [
                1.1163522012578615,
                0.5746268656716418
            ]
        ],
        [
            [
                1.1352201257861634,
                1.1343283582089552
            ],
            [
                1.141509433962264,
                1.3208955223880599
            ],
            [
                0.9914046121593291,
                1.3201492537313435
            ]
        ],
        [
            [
                0.541090146750524,
                1.317910447761194
            ],
            [
                0.3909853249475891,
                1.3171641791044777
            ],
            [
                0.3675052410901467,
                1.2276119402985075
            ]
        ],
        [
            [
                0.2970649895178197,
                0.958955223880597
            ],
            [
                0.27358490566037735,
                0.8694029850746269
            ],
            [
                0.25513626834381553,
                0.8694029850746269
            ]
        ],
        [
            [
                0.19979035639412995,
                0.8694029850746269
            ],
            [
                0.1813417190775681,
                0.8694029850746269
            ],
            [
                0.15534591194968553,
                0.7992537313432836
            ]
        ],
        [
            [
                0.07735849056603773,
                0.5888059701492537
            ],
            [
                0.05136268343815513,
                0.5186567164179104
            ],
            [
                0.05387840670859538,
                0.4906716417910447
            ]
        ]
    ],
    "179": [
        [
            [
                0.06142557651991614,
                0.40671641791044777
            ],
            [
                0.0639412997903564,
                0.3787313432835821
            ],
            [
                0.10020964360587001,
                0.3876865671641791
            ]
        ],
        [
            [
                0.20901467505241086,
                0.41455223880597014
            ],
            [
                0.24528301886792453,
                0.42350746268656714
            ],
            [
                0.2522012578616352,
                0.4231343283582089
            ]
        ],
        [
            [
                0.2729559748427673,
                0.42201492537313434
            ],
            [
                0.279874213836478,
                0.4216417910447761
            ],
            [
                0.3226415094339623,
                0.4835820895522388
            ]
        ],
        [
            [
                0.45094339622641505,
                0.6694029850746269
            ],
            [
                0.4937106918238994,
                0.7313432835820896
            ],
            [
                0.4949685534591195,
                0.7473880597014926
            ]
        ],
        [
            [
                0.4987421383647799,
                0.7955223880597015
            ],
            [
                0.5,
                0.8115671641791045
            ],
            [
                0.49580712788259956,
                0.8134328358208955
            ]
        ],
        [
            [
                0.4832285115303983,
                0.8190298507462686
            ],
            [
                0.47903563941299787,
                0.8208955223880596
            ],
            [
                0.510482180293501,
                0.8634328358208955
            ]
        ],
        [
            [
                0.6048218029350105,
                0.991044776119403
            ],
            [
                0.6362683438155137,
                1.033582089552239
            ],
            [
                0.6433962264150943,
                1.0298507462686568
            ]
        ],
        [
            [
                0.6647798742138364,
                1.0186567164179106
            ],
            [
                0.6719077568134171,
                1.0149253731343284
            ],
            [
                0.6727463312368972,
                0.9865671641791045
            ]
        ],
        [
            [
                0.6752620545073376,
                0.9014925373134328
            ],
            [
                0.6761006289308177,
                0.8731343283582089
            ],
            [
                0.6903563941299791,
                0.8671641791044776
            ]
        ],
        [
            [
                0.7331236897274633,
                0.8492537313432835
            ],
            [
                0.7473794549266247,
                0.8432835820895522
            ],
            [
                0.7545073375262054,
                0.8537313432835821
            ]
        ],
        [
            [
                0.7758909853249476,
                0.8850746268656716
            ],
            [
                0.7830188679245284,
                0.8955223880597015
            ],
            [
                0.7846960167714884,
                0.817910447761194
            ]
        ],
        [
            [
                0.789727463312369,
                0.5850746268656716
            ],
            [
                0.7914046121593291,
                0.5074626865671642
            ],
            [
                0.7947589098532494,
                0.47985074626865676
            ]
        ],
        [
            [
                0.7440251572327043,
                0.4119402985074626
            ],
            [
                0.7473794549266247,
                0.3843283582089552
            ],
            [
                0.7607966457023061,
                0.33358208955223884
            ]
        ],
        [
            [
                0.8976939203354297,
                0.23507462686567168
            ],
            [
                0.9171907756813417,
                0.22574626865671643
            ],
            [
                0.9337526205450734,
                0.2291044776119403
            ]
        ],
        [
            [
                0.9821802935010482,
                0.291044776119403
            ],
            [
                0.9884696016771488,
                0.3395522388059702
            ],
            [
                1.012788259958071,
                0.3492537313432836
            ]
        ],
        [
            [
                1.0857442348008384,
                0.3783582089552239
            ],
            [
                1.1100628930817609,
                0.3880597014925373
            ],
            [
                1.1163522012578615,
                0.5746268656716418
            ]
        ],
        [
            [
                1.1352201257861634,
                1.1343283582089552
            ],
            [
                1.141509433962264,
                1.3208955223880599
            ],
            [
                0.9914046121593291,
                1.3201492537313435
            ]
        ],
        [
            [
                0.541090146750524,
                1.317910447761194
            ],
            [
                0.3909853249475891,
                1.3171641791044777
            ],
            [
                0.3675052410901467,
                1.2276119402985075
            ]
        ],
        [
            [
                0.2970649895178197,
                0.958955223880597
            ],
            [
                0.27358490566037735,
                0.8694029850746269
            ],
            [
                0.25513626834381553,
                0.8694029850746269
            ]
        ],
        [
            [
                0.19979035639412995,
                0.8694029850746269
            ],
            [
                0.1813417190775681,
                0.8694029850746269
            ],
            [
                0.15534591194968553,
                0.7992537313432836
            ]
        ],
        [
            [
                0.07735849056603773,
                0.5888059701492537
            ],
            [
                0.05136268343815513,
                0.5186567164179104
            ],
            [
                0.05387840670859538,
                0.4906716417910447
            ]
        ]
    ],
    "356": [
        [
            [
                0.06142557651991614,
                0.40671641791044777
            ],
            [
                0.0639412997903564,
                0.3787313432835821
            ],
            [
                0.10020964360587001,
                0.3876865671641791
            ]
        ],
        [
            [
                0.20901467505241086,
                0.41455223880597014
            ],
            [
                0.24528301886792453,
                0.42350746268656714
            ],
            [
                0.2522012578616352,
                0.4231343283582089
            ]
        ],
        [
            [
                0.2729559748427673,
                0.42201492537313434
            ],
            [
                0.279874213836478,
                0.4216417910447761
            ],
            [
                0.3226415094339623,
                0.4835820895522388
            ]
        ],
        [
            [
                0.45094339622641505,
                0.6694029850746269
            ],
            [
                0.4937106918238994,
                0.7313432835820896
            ],
            [
                0.4949685534591195,
                0.7473880597014926
            ]
        ],
        [
            [
                0.4987421383647799,
                0.7955223880597015
            ],
            [
                0.5,
                0.8115671641791045
            ],
            [
                0.49580712788259956,
                0.8134328358208955
            ]
        ],
        [
            [
                0.4832285115303983,
                0.8190298507462686
            ],
            [
                0.47903563941299787,
                0.8208955223880596
            ],
            [
                0.510482180293501,
                0.8634328358208955
            ]
        ],
        [
            [
                0.6048218029350105,
                0.991044776119403
            ],
            [
                0.6362683438155137,
                1.033582089552239
            ],
            [
                0.6433962264150943,
                1.0298507462686568
            ]
        ],
        [
            [
                0.6647798742138364,
                1.0186567164179106
            ],
            [
                0.6719077568134171,
                1.0149253731343284
            ],
            [
                0.6727463312368972,
                0.9865671641791045
            ]
        ],
        [
            [
                0.6752620545073376,
                0.9014925373134328
            ],
            [
                0.6761006289308177,
                0.8731343283582089
            ],
            [
                0.6903563941299791,
                0.8671641791044776
            ]
        ],
        [
            [
                0.7331236897274633,
                0.8492537313432835
            ],
            [
                0.7473794549266247,
                0.8432835820895522
            ],
            [
                0.7545073375262054,
                0.8537313432835821
            ]
        ],
        [
            [
                0.7758909853249476,
                0.8850746268656716
            ],
            [
                0.7830188679245284,
                0.8955223880597015
            ],
            [
                0.7846960167714884,
                0.817910447761194
            ]
        ],
        [
            [
                0.789727463312369,
                0.5850746268656716
            ],
            [
                0.7914046121593291,
                0.5074626865671642
            ],
            [
                0.7947589098532494,
                0.47985074626865676
            ]
        ],
        [
            [
                0.7754716981132076,
                0.4100746268656716
            ],
            [
                0.778825995807128,
                0.3824626865671642
            ],
            [
                0.7922431865828092,
                0.33171641791044787
            ]
        ],
        [
            [
                0.9207547169811321,
                0.2555970149253731
            ],
            [
                0.940251572327044,
                0.2462686567164179
            ],
            [
                0.9568134171907757,
                0.24962686567164177
            ]
        ],
        [
            [
                0.9821802935010482,
                0.291044776119403
            ],
            [
                0.9884696016771488,
                0.3395522388059702
            ],
            [
                1.012788259958071,
                0.3492537313432836
            ]
        ],
        [
            [
                1.0857442348008384,
                0.3783582089552239
            ],
            [
                1.1100628930817609,
                0.3880597014925373
            ],
            [
                1.1163522012578615,
                0.5746268656716418
            ]
        ],
        [
            [
                1.1352201257861634,
                1.1343283582089552
            ],
            [
                1.141509433962264,
                1.3208955223880599
            ],
            [
                0.9914046121593291,
                1.3201492537313435
            ]
        ],
        [
            [
                0.541090146750524,
                1.317910447761194
            ],
            [
                0.3909853249475891,
                1.3171641791044777
            ],
            [
                0.3675052410901467,
                1.2276119402985075
            ]
        ],
        [
            [
                0.2970649895178197,
                0.958955223880597
            ],
            [
                0.27358490566037735,
                0.8694029850746269
            ],
            [
                0.25513626834381553,
                0.8694029850746269
            ]
        ],
        [
            [
                0.19979035639412995,
                0.8694029850746269
            ],
            [
                0.1813417190775681,
                0.8694029850746269
            ],
            [
                0.15534591194968553,
                0.7992537313432836
            ]
        ],
        [
            [
                0.07735849056603773,
                0.5888059701492537
            ],
            [
                0.05136268343815513,
                0.5186567164179104
            ],
            [
                0.05387840670859538,
                0.4906716417910447
            ]
        ]
    ],
    "536": [
        [
            [
                0.06142557651991614,
                0.40671641791044777
            ],
            [
                0.0639412997903564,
                0.3787313432835821
            ],
            [
                0.10020964360587001,
                0.3876865671641791
            ]
        ],
        [
            [
                0.20901467505241086,
                0.41455223880597014
            ],
            [
                0.24528301886792453,
                0.42350746268656714
            ],
            [
                0.2522012578616352,
                0.4231343283582089
            ]
        ],
        [
            [
                0.2729559748427673,
                0.42201492537313434
            ],
            [
                0.279874213836478,
                0.4216417910447761
            ],
            [
                0.3226415094339623,
                0.4835820895522388
            ]
        ],
        [
            [
                0.45094339622641505,
                0.6694029850746269
            ],
            [
                0.4937106918238994,
                0.7313432835820896
            ],
            [
                0.4949685534591195,
                0.7473880597014926
            ]
        ],
        [
            [
                0.4987421383647799,
                0.7955223880597015
            ],
            [
                0.5,
                0.8115671641791045
            ],
            [
                0.49580712788259956,
                0.8134328358208955
            ]
        ],
        [
            [
                0.4832285115303983,
                0.8190298507462686
            ],
            [
                0.47903563941299787,
                0.8208955223880596
            ],
            [
                0.510482180293501,
                0.8634328358208955
            ]
        ],
        [
            [
                0.6048218029350105,
                0.991044776119403
            ],
            [
                0.6362683438155137,
                1.033582089552239
            ],
            [
                0.6433962264150943,
                1.0298507462686568
            ]
        ],
        [
            [
                0.6647798742138364,
                1.0186567164179106
            ],
            [
                0.6719077568134171,
                1.0149253731343284
            ],
            [
                0.6727463312368972,
                0.9865671641791045
            ]
        ],
        [
            [
                0.6752620545073376,
                0.9014925373134328
            ],
            [
                0.6761006289308177,
                0.8731343283582089
            ],
            [
                0.6903563941299791,
                0.8671641791044776
            ]
        ],
        [
            [
                0.7331236897274633,
                0.8492537313432835
            ],
            [
                0.7473794549266247,
                0.8432835820895522
            ],
            [
                0.7545073375262054,
                0.8537313432835821
            ]
        ],
        [
            [
                0.7758909853249476,
                0.8850746268656716
            ],
            [
                0.7830188679245284,
                0.8955223880597015
            ],
            [
                0.7846960167714884,
                0.817910447761194
            ]
        ],
        [
            [
                0.789727463312369,
                0.5850746268656716
            ],
            [
                0.7914046121593291,
                0.5074626865671642
            ],
            [
                0.7947589098532494,
                0.47985074626865676
            ]
        ],
        [
            [
                0.7754716981132076,
                0.4100746268656716
            ],
            [
                0.778825995807128,
                0.3824626865671642
            ],
            [
                0.7922431865828092,
                0.33171641791044787
            ]
        ],
        [
            [
                0.9207547169811321,
                0.2555970149253731
            ],
            [
                0.940251572327044,
                0.2462686567164179
            ],
            [
                0.9568134171907757,
                0.24962686567164177
            ]
        ],
        [
            [
                0.9821802935010482,
                0.291044776119403
            ],
            [
                0.9884696016771488,
                0.3395522388059702
            ],
            [
                1.012788259958071,
                0.3492537313432836
            ]
        ],
        [
            [
                1.0857442348008384,
                0.3783582089552239
            ],
            [
                1.1100628930817609,
                0.3880597014925373
            ],
            [
                1.1163522012578615,
                0.5746268656716418
            ]
        ],
        [
            [
                1.1352201257861634,
                1.1343283582089552
            ],
            [
                1.141509433962264,
                1.3208955223880599
            ],
            [
                0.9914046121593291,
                1.3201492537313435
            ]
        ],
        [
            [
                0.541090146750524,
                1.317910447761194
            ],
            [
                0.3909853249475891,
                1.3171641791044777
            ],
            [
                0.3675052410901467,
                1.2276119402985075
            ]
        ],
        [
            [
                0.2970649895178197,
                0.958955223880597
            ],
            [
                0.27358490566037735,
                0.8694029850746269
            ],
            [
                0.25513626834381553,
                0.8694029850746269
            ]
        ],
        [
            [
                0.19979035639412995,
                0.8694029850746269
            ],
            [
                0.1813417190775681,
                0.8694029850746269
            ],
            [
                0.15534591194968553,
                0.7992537313432836
            ]
        ],
        [
            [
                0.07735849056603773,
                0.5888059701492537
            ],
            [
                0.05136268343815513,
                0.5186567164179104
            ],
            [
                0.05387840670859538,
                0.4906716417910447
            ]
        ]
    ]
}
</property>
    <property name="kdenlive:collapsed">0</property>
   </filter>
   <filter id="filter248">
    <property name="mode">alpha</property>
    <property name="alpha_operation">sub</property>
    <property name="invert">0</property>
    <property name="feather">42</property>
    <property name="feather_passes">1</property>
    <property name="mlt_service">rotoscoping</property>
    <property name="kdenlive_id">rotoscoping</property>
    <property name="spline">{
    "025": [
        [
            [
                0.2232704402515723,
                1.0839942568740335
            ],
            [
                0.2421383647798742,
                1.0310091822471679
            ],
            [
                0.2064989517819706,
                0.9362330628441828
            ]
        ],
        [
            [
                0.08844767119027043,
                0.6374914021969962
            ],
            [
                0.052808258192366876,
                0.5427152827940113
            ],
            [
                0.054066119827587,
                0.5016705066746081
            ]
        ],
        [
            [
                0.052201257861635215,
                0.39925373134328357
            ],
            [
                0.05345911949685534,
                0.3582089552238806
            ],
            [
                0.09790356394129977,
                0.3462686567164179
            ]
        ],
        [
            [
                0.25291860864478966,
                0.4053025677678445
            ],
            [
                0.2973630530892342,
                0.39336226926038187
            ],
            [
                0.34222678474541873,
                0.4664965976185909
            ]
        ],
        [
            [
                0.4231058273872206,
                0.5877612745746112
            ],
            [
                0.4679695590434052,
                0.6608956029328202
            ],
            [
                0.48348318587778655,
                0.6907463492014769
            ]
        ],
        [
            [
                0.5424191823821286,
                0.6563989660311493
            ],
            [
                0.5806785885491154,
                0.6333650871976267
            ],
            [
                0.6325411957229251,
                0.5435436395619163
            ]
        ],
        [
            [
                0.689937106918239,
                0.40746268656716417
            ],
            [
                0.7180293501048217,
                0.30597014925373134
            ],
            [
                0.7121593291404611,
                0.23059701492537313
            ]
        ],
        [
            [
                0.6945492662473794,
                0.004477611940298508
            ],
            [
                0.6886792452830188,
                -0.0708955223880597
            ],
            [
                0.5314465408805031,
                -0.11268656716417912
            ]
        ],
        [
            [
                0.059748427672955955,
                -0.2380597014925373
            ],
            [
                -0.09748427672955975,
                -0.27985074626865675
            ],
            [
                -0.13731656184486374,
                -0.019402985074626882
            ]
        ],
        [
            [
                -0.25681341719077566,
                0.7619402985074626
            ],
            [
                -0.2966457023060797,
                1.0223880597014925
            ],
            [
                -0.21111111111111114,
                1.078358208955224
            ]
        ],
        [
            [
                0.04549266247379455,
                1.2462686567164178
            ],
            [
                0.13102725366876308,
                1.3022388059701493
            ],
            [
                0.149895178197065,
                1.2492537313432837
            ]
        ]
    ],
    "096": [
        [
            [
                0.2232704402515723,
                1.0828358208955224
            ],
            [
                0.2421383647798742,
                1.0298507462686568
            ],
            [
                0.2064989517819706,
                0.9350746268656717
            ]
        ],
        [
            [
                0.0890985324947589,
                0.643283582089552
            ],
            [
                0.05345911949685534,
                0.5485074626865672
            ],
            [
                0.054716981132075466,
                0.507462686567164
            ]
        ],
        [
            [
                0.052201257861635215,
                0.39925373134328357
            ],
            [
                0.05345911949685534,
                0.3582089552238806
            ],
            [
                0.09790356394129977,
                0.3462686567164179
            ]
        ],
        [
            [
                0.2527696376650158,
                0.40516999471308307
            ],
            [
                0.29721408210946026,
                0.39322969620562037
            ],
            [
                0.3420778137656448,
                0.4663640245638294
            ]
        ],
        [
            [
                0.4237868375804727,
                0.5888029200048802
            ],
            [
                0.4686505692366573,
                0.6619372483630892
            ],
            [
                0.48416419607103867,
                0.6917879946317459
            ]
        ],
        [
            [
                0.5374485173570053,
                0.6512159908902355
            ],
            [
                0.5754716981132076,
                0.628731343283582
            ],
            [
                0.6270874390919633,
                0.5387886859978039
            ]
        ],
        [
            [
                0.689937106918239,
                0.40746268656716417
            ],
            [
                0.7180293501048217,
                0.30597014925373134
            ],
            [
                0.7121593291404611,
                0.23059701492537313
            ]
        ],
        [
            [
                0.6945492662473794,
                0.004477611940298508
            ],
            [
                0.6886792452830188,
                -0.0708955223880597
            ],
            [
                0.5314465408805031,
                -0.11268656716417912
            ]
        ],
        [
            [
                0.059748427672955955,
                -0.2380597014925373
            ],
            [
                -0.09748427672955975,
                -0.27985074626865675
            ],
            [
                -0.13731656184486374,
                -0.019402985074626882
            ]
        ],
        [
            [
                -0.25681341719077566,
                0.7619402985074626
            ],
            [
                -0.2966457023060797,
                1.0223880597014925
            ],
            [
                -0.21111111111111114,
                1.078358208955224
            ]
        ],
        [
            [
                0.04549266247379455,
                1.2462686567164178
            ],
            [
                0.13102725366876308,
                1.3022388059701493
            ],
            [
                0.149895178197065,
                1.2492537313432837
            ]
        ]
    ],
    "125": [
        [
            [
                0.2064989517819706,
                1.0902985074626865
            ],
            [
                0.22536687631027252,
                1.037313432835821
            ],
            [
                0.18972746331236895,
                0.9425373134328358
            ]
        ],
        [
            [
                0.08280922431865827,
                0.6582089552238806
            ],
            [
                0.04716981132075471,
                0.5634328358208955
            ],
            [
                0.04842767295597484,
                0.5223880597014925
            ]
        ],
        [
            [
                0.052201257861635215,
                0.39925373134328357
            ],
            [
                0.05345911949685534,
                0.3582089552238806
            ],
            [
                0.09790356394129977,
                0.3462686567164179
            ]
        ],
        [
            [
                0.2526246865342542,
                0.4050409990239538
            ],
            [
                0.29706913097869864,
                0.3931007005164911
            ],
            [
                0.34193286263488315,
                0.46623502887470014
            ]
        ],
        [
            [
                0.44884696016771475,
                0.6432835820895524
            ],
            [
                0.4937106918238994,
                0.7164179104477612
            ],
            [
                0.5092243186582806,
                0.746268656716418
            ]
        ],
        [
            [
                0.5649320371988871,
                0.6823979980885763
            ],
            [
                0.6027253668763103,
                0.6604477611940299
            ],
            [
                0.6541009031240895,
                0.5703871649924763
            ]
        ],
        [
            [
                0.7109014675052412,
                0.4261194029850746
            ],
            [
                0.738993710691824,
                0.3246268656716418
            ],
            [
                0.7331236897274633,
                0.24925373134328355
            ]
        ],
        [
            [
                0.6945492662473794,
                0.004477611940298508
            ],
            [
                0.6886792452830188,
                -0.0708955223880597
            ],
            [
                0.5314465408805031,
                -0.11268656716417912
            ]
        ],
        [
            [
                0.059748427672955955,
                -0.2380597014925373
            ],
            [
                -0.09748427672955975,
                -0.27985074626865675
            ],
            [
                -0.13731656184486374,
                -0.019402985074626882
            ]
        ],
        [
            [
                -0.25681341719077566,
                0.7619402985074626
            ],
            [
                -0.2966457023060797,
                1.0223880597014925
            ],
            [
                -0.21111111111111114,
                1.078358208955224
            ]
        ],
        [
            [
                0.04549266247379455,
                1.2462686567164178
            ],
            [
                0.13102725366876308,
                1.3022388059701493
            ],
            [
                0.149895178197065,
                1.2492537313432837
            ]
        ]
    ],
    "130": [
        [
            [
                0.2064989517819706,
                1.0902985074626865
            ],
            [
                0.22536687631027252,
                1.037313432835821
            ],
            [
                0.18972746331236895,
                0.9425373134328358
            ]
        ],
        [
            [
                0.08280922431865827,
                0.6582089552238806
            ],
            [
                0.04716981132075471,
                0.5634328358208955
            ],
            [
                0.04842767295597484,
                0.5223880597014925
            ]
        ],
        [
            [
                0.052201257861635215,
                0.39925373134328357
            ],
            [
                0.05345911949685534,
                0.3582089552238806
            ],
            [
                0.09790356394129977,
                0.3462686567164179
            ]
        ],
        [
            [
                0.25259969495998497,
                0.405018758387897
            ],
            [
                0.29704413940442936,
                0.3930784598804343
            ],
            [
                0.3419078710606139,
                0.46621278823864337
            ]
        ],
        [
            [
                0.42368972746331224,
                0.5997512437810946
            ],
            [
                0.46855345911949686,
                0.6728855721393034
            ],
            [
                0.4840670859538781,
                0.7027363184079602
            ]
        ],
        [
            [
                0.5534412683723772,
                0.654320783683761
            ],
            [
                0.5911949685534591,
                0.6324626865671642
            ],
            [
                0.6425290901924492,
                0.5423817560697872
            ]
        ],
        [
            [
                0.7004192872117402,
                0.41492537313432837
            ],
            [
                0.728511530398323,
                0.31343283582089554
            ],
            [
                0.7226415094339623,
                0.2380597014925373
            ]
        ],
        [
            [
                0.6945492662473794,
                0.004477611940298508
            ],
            [
                0.6886792452830188,
                -0.0708955223880597
            ],
            [
                0.5314465408805031,
                -0.11268656716417912
            ]
        ],
        [
            [
                0.059748427672955955,
                -0.2380597014925373
            ],
            [
                -0.09748427672955975,
                -0.27985074626865675
            ],
            [
                -0.13731656184486374,
                -0.019402985074626882
            ]
        ],
        [
            [
                -0.25681341719077566,
                0.7619402985074626
            ],
            [
                -0.2966457023060797,
                1.0223880597014925
            ],
            [
                -0.21111111111111114,
                1.078358208955224
            ]
        ],
        [
            [
                0.04549266247379455,
                1.2462686567164178
            ],
            [
                0.13102725366876308,
                1.3022388059701493
            ],
            [
                0.149895178197065,
                1.2492537313432837
            ]
        ]
    ],
    "140": [
        [
            [
                0.2064989517819706,
                1.0902985074626865
            ],
            [
                0.22536687631027252,
                1.037313432835821
            ],
            [
                0.18972746331236895,
                0.9425373134328358
            ]
        ],
        [
            [
                0.08280922431865827,
                0.6582089552238806
            ],
            [
                0.04716981132075471,
                0.5634328358208955
            ],
            [
                0.04842767295597484,
                0.5223880597014925
            ]
        ],
        [
            [
                0.052201257861635215,
                0.39925373134328357
            ],
            [
                0.05345911949685534,
                0.3582089552238806
            ],
            [
                0.09790356394129977,
                0.3462686567164179
            ]
        ],
        [
            [
                0.2525497118114465,
                0.40497427711578343
            ],
            [
                0.2969941562558909,
                0.3930339786083208
            ],
            [
                0.3418578879120754,
                0.4661683069665298
            ]
        ],
        [
            [
                0.3733752620545072,
                0.5126865671641792
            ],
            [
                0.41823899371069184,
                0.585820895522388
            ],
            [
                0.4337526205450732,
                0.6156716417910447
            ]
        ],
        [
            [
                0.48957922757470324,
                0.5328678474114441
            ],
            [
                0.5272536687631028,
                0.5111940298507462
            ],
            [
                0.5785049611845149,
                0.4210724307617227
            ]
        ],
        [
            [
                0.6794549266247379,
                0.3925373134328359
            ],
            [
                0.7075471698113207,
                0.291044776119403
            ],
            [
                0.7016771488469601,
                0.21567164179104478
            ]
        ],
        [
            [
                0.6945492662473794,
                0.004477611940298508
            ],
            [
                0.6886792452830188,
                -0.0708955223880597
            ],
            [
                0.5314465408805031,
                -0.11268656716417912
            ]
        ],
        [
            [
                0.059748427672955955,
                -0.2380597014925373
            ],
            [
                -0.09748427672955975,
                -0.27985074626865675
            ],
            [
                -0.13731656184486374,
                -0.019402985074626882
            ]
        ],
        [
            [
                -0.25681341719077566,
                0.7619402985074626
            ],
            [
                -0.2966457023060797,
                1.0223880597014925
            ],
            [
                -0.21111111111111114,
                1.078358208955224
            ]
        ],
        [
            [
                0.04549266247379455,
                1.2462686567164178
            ],
            [
                0.13102725366876308,
                1.3022388059701493
            ],
            [
                0.149895178197065,
                1.2492537313432837
            ]
        ]
    ],
    "143": [
        [
            [
                0.2064989517819706,
                1.0902985074626865
            ],
            [
                0.22536687631027252,
                1.037313432835821
            ],
            [
                0.18972746331236895,
                0.9425373134328358
            ]
        ],
        [
            [
                0.08280922431865827,
                0.6582089552238806
            ],
            [
                0.04716981132075471,
                0.5634328358208955
            ],
            [
                0.04842767295597484,
                0.5223880597014925
            ]
        ],
        [
            [
                0.052201257861635215,
                0.39925373134328357
            ],
            [
                0.05345911949685534,
                0.3582089552238806
            ],
            [
                0.09790356394129977,
                0.3462686567164179
            ]
        ],
        [
            [
                0.25253471686688495,
                0.4049609327341494
            ],
            [
                0.29697916131132934,
                0.3930206342266867
            ],
            [
                0.34184289296751386,
                0.46615496258489575
            ]
        ],
        [
            [
                0.37498631889819994,
                0.5151210398958884
            ],
            [
                0.41985005055438457,
                0.5882553682540973
            ],
            [
                0.4353636773887659,
                0.618106114522754
            ]
        ],
        [
            [
                0.4791208249790071,
                0.5402752501118386
            ],
            [
                0.5167714884696016,
                0.5186567164179104
            ],
            [
                0.5679979321257403,
                0.4285229167513929
            ]
        ],
        [
            [
                0.679769392033543,
                0.39298507462686566
            ],
            [
                0.7078616352201258,
                0.29149253731343283
            ],
            [
                0.7019916142557652,
                0.21611940298507465
            ]
        ],
        [
            [
                0.6945492662473794,
                0.004477611940298508
            ],
            [
                0.6886792452830188,
                -0.0708955223880597
            ],
            [
                0.5314465408805031,
                -0.11268656716417912
            ]
        ],
        [
            [
                0.059748427672955955,
                -0.2380597014925373
            ],
            [
                -0.09748427672955975,
                -0.27985074626865675
            ],
            [
                -0.13731656184486374,
                -0.019402985074626882
            ]
        ],
        [
            [
                -0.25681341719077566,
                0.7619402985074626
            ],
            [
                -0.2966457023060797,
                1.0223880597014925
            ],
            [
                -0.21111111111111114,
                1.078358208955224
            ]
        ],
        [
            [
                0.04549266247379455,
                1.2462686567164178
            ],
            [
                0.13102725366876308,
                1.3022388059701493
            ],
            [
                0.149895178197065,
                1.2492537313432837
            ]
        ]
    ],
    "149": [
        [
            [
                0.2064989517819706,
                1.0902985074626865
            ],
            [
                0.22536687631027252,
                1.037313432835821
            ],
            [
                0.18972746331236895,
                0.9425373134328358
            ]
        ],
        [
            [
                0.08280922431865827,
                0.6582089552238806
            ],
            [
                0.04716981132075471,
                0.5634328358208955
            ],
            [
                0.04842767295597484,
                0.5223880597014925
            ]
        ],
        [
            [
                0.052201257861635215,
                0.39925373134328357
            ],
            [
                0.05345911949685534,
                0.3582089552238806
            ],
            [
                0.09790356394129977,
                0.3462686567164179
            ]
        ],
        [
            [
                0.25250472697776183,
                0.4049342439708813
            ],
            [
                0.2969491714222062,
                0.3929939454634186
            ],
            [
                0.34181290307839074,
                0.46612827382162764
            ]
        ],
        [
            [
                0.3691823899371068,
                0.5201492537313434
            ],
            [
                0.4140461215932914,
                0.5932835820895522
            ],
            [
                0.42955974842767275,
                0.6231343283582089
            ]
        ],
        [
            [
                0.454011147670214,
                0.5718811002887466
            ],
            [
                0.4916142557651992,
                0.5503731343283582
            ],
            [
                0.5427910018907911,
                0.46021493350685216
            ]
        ],
        [
            [
                0.680398322851153,
                0.39388059701492534
            ],
            [
                0.7084905660377357,
                0.29238805970149256
            ],
            [
                0.7026205450733751,
                0.21701492537313435
            ]
        ],
        [
            [
                0.6945492662473794,
                0.004477611940298508
            ],
            [
                0.6886792452830188,
                -0.0708955223880597
            ],
            [
                0.5314465408805031,
                -0.11268656716417912
            ]
        ],
        [
            [
                0.059748427672955955,
                -0.2380597014925373
            ],
            [
                -0.09748427672955975,
                -0.27985074626865675
            ],
            [
                -0.13731656184486374,
                -0.019402985074626882
            ]
        ],
        [
            [
                -0.25681341719077566,
                0.7619402985074626
            ],
            [
                -0.2966457023060797,
                1.0223880597014925
            ],
            [
                -0.21111111111111114,
                1.078358208955224
            ]
        ],
        [
            [
                0.04549266247379455,
                1.2462686567164178
            ],
            [
                0.13102725366876308,
                1.3022388059701493
            ],
            [
                0.149895178197065,
                1.2492537313432837
            ]
        ]
    ],
    "161": [
        [
            [
                0.2064989517819706,
                1.0902985074626865
            ],
            [
                0.22536687631027252,
                1.037313432835821
            ],
            [
                0.18972746331236895,
                0.9425373134328358
            ]
        ],
        [
            [
                0.08280922431865827,
                0.6582089552238806
            ],
            [
                0.04716981132075471,
                0.5634328358208955
            ],
            [
                0.04842767295597484,
                0.5223880597014925
            ]
        ],
        [
            [
                0.052201257861635215,
                0.39925373134328357
            ],
            [
                0.05345911949685534,
                0.3582089552238806
            ],
            [
                0.09790356394129977,
                0.3462686567164179
            ]
        ],
        [
            [
                0.25244474719951565,
                0.404880866444345
            ],
            [
                0.2968891916439601,
                0.3929405679368823
            ],
            [
                0.34175292330014456,
                0.46607489629509136
            ]
        ],
        [
            [
                0.44046121593291393,
                0.624626865671642
            ],
            [
                0.4853249475890985,
                0.6977611940298507
            ],
            [
                0.5008385744234798,
                0.7276119402985075
            ]
        ],
        [
            [
                0.5442530089855421,
                0.6593465319858471
            ],
            [
                0.5817610062893082,
                0.6380597014925373
            ],
            [
                0.6328383573538063,
                0.5478526983610555
            ]
        ],
        [
            [
                0.6816561844863732,
                0.39567164179104475
            ],
            [
                0.709748427672956,
                0.294179104477612
            ],
            [
                0.7038784067085954,
                0.21880597014925374
            ]
        ],
        [
            [
                0.6945492662473794,
                0.004477611940298508
            ],
            [
                0.6886792452830188,
                -0.0708955223880597
            ],
            [
                0.5314465408805031,
                -0.11268656716417912
            ]
        ],
        [
            [
                0.059748427672955955,
                -0.2380597014925373
            ],
            [
                -0.09748427672955975,
                -0.27985074626865675
            ],
            [
                -0.13731656184486374,
                -0.019402985074626882
            ]
        ],
        [
            [
                -0.25681341719077566,
                0.7619402985074626
            ],
            [
                -0.2966457023060797,
                1.0223880597014925
            ],
            [
                -0.21111111111111114,
                1.078358208955224
            ]
        ],
        [
            [
                0.04549266247379455,
                1.2462686567164178
            ],
            [
                0.13102725366876308,
                1.3022388059701493
            ],
            [
                0.149895178197065,
                1.2492537313432837
            ]
        ]
    ],
    "213": [
        [
            [
                0.2064989517819706,
                1.0902985074626865
            ],
            [
                0.22536687631027252,
                1.037313432835821
            ],
            [
                0.18972746331236895,
                0.9425373134328358
            ]
        ],
        [
            [
                0.08280922431865827,
                0.6582089552238806
            ],
            [
                0.04716981132075471,
                0.5634328358208955
            ],
            [
                0.04842767295597484,
                0.5223880597014925
            ]
        ],
        [
            [
                0.052201257861635215,
                0.39925373134328357
            ],
            [
                0.05345911949685534,
                0.3582089552238806
            ],
            [
                0.09790356394129977,
                0.3462686567164179
            ]
        ],
        [
            [
                0.25218483482711546,
                0.4046495638293546
            ],
            [
                0.2966292792715599,
                0.3927092653218919
            ],
            [
                0.3414930109277444,
                0.4658435936801009
            ]
        ],
        [
            [
                0.43165145552013157,
                0.6043592354510688
            ],
            [
                0.4765151871763162,
                0.6774935638092776
            ],
            [
                0.4920288140106975,
                0.7073443100779344
            ]
        ],
        [
            [
                0.5425687196887906,
                0.6248061887429338
            ],
            [
                0.579664570230608,
                0.6044776119402985
            ],
            [
                0.6303112093637002,
                0.5140591321322542
            ]
        ],
        [
            [
                0.6962264150943397,
                0.40746268656716417
            ],
            [
                0.7243186582809223,
                0.30597014925373134
            ],
            [
                0.7184486373165618,
                0.23059701492537316
            ]
        ],
        [
            [
                0.6945492662473794,
                0.004477611940298508
            ],
            [
                0.6886792452830188,
                -0.0708955223880597
            ],
            [
                0.5314465408805031,
                -0.11268656716417912
            ]
        ],
        [
            [
                0.059748427672955955,
                -0.2380597014925373
            ],
            [
                -0.09748427672955975,
                -0.27985074626865675
            ],
            [
                -0.13731656184486374,
                -0.019402985074626882
            ]
        ],
        [
            [
                -0.25681341719077566,
                0.7619402985074626
            ],
            [
                -0.2966457023060797,
                1.0223880597014925
            ],
            [
                -0.21111111111111114,
                1.078358208955224
            ]
        ],
        [
            [
                0.04549266247379455,
                1.2462686567164178
            ],
            [
                0.13102725366876308,
                1.3022388059701493
            ],
            [
                0.149895178197065,
                1.2492537313432837
            ]
        ]
    ],
    "218": [
        [
            [
                0.2064989517819706,
                1.0902985074626865
            ],
            [
                0.22536687631027252,
                1.037313432835821
            ],
            [
                0.18972746331236895,
                0.9425373134328358
            ]
        ],
        [
            [
                0.08280922431865827,
                0.6582089552238806
            ],
            [
                0.04716981132075471,
                0.5634328358208955
            ],
            [
                0.04842767295597484,
                0.5223880597014925
            ]
        ],
        [
            [
                0.052201257861635215,
                0.39925373134328357
            ],
            [
                0.05345911949685534,
                0.3582089552238806
            ],
            [
                0.09790356394129977,
                0.3462686567164179
            ]
        ],
        [
            [
                0.2521598432528462,
                0.4046273231932978
            ],
            [
                0.29660428769729064,
                0.3926870246858351
            ],
            [
                0.34146801935347515,
                0.46582135304404415
            ]
        ],
        [
            [
                0.43080436317274867,
                0.6024104248529368
            ],
            [
                0.47566809482893324,
                0.6755447532111456
            ],
            [
                0.4911817216633146,
                0.7053954994798024
            ]
        ],
        [
            [
                0.5415601311557816,
                0.6228483773231932
            ],
            [
                0.5786163522012578,
                0.6026119402985074
            ],
            [
                0.629221576725561,
                0.5121731261946398
            ]
        ],
        [
            [
                0.6950617283950618,
                0.40746268656716417
            ],
            [
                0.7231539715816445,
                0.30597014925373134
            ],
            [
                0.7172839506172839,
                0.23059701492537316
            ]
        ],
        [
            [
                0.6945492662473794,
                0.004477611940298508
            ],
            [
                0.6886792452830188,
                -0.0708955223880597
            ],
            [
                0.5314465408805031,
                -0.11268656716417912
            ]
        ],
        [
            [
                0.059748427672955955,
                -0.2380597014925373
            ],
            [
                -0.09748427672955975,
                -0.27985074626865675
            ],
            [
                -0.13731656184486374,
                -0.019402985074626882
            ]
        ],
        [
            [
                -0.25681341719077566,
                0.7619402985074626
            ],
            [
                -0.2966457023060797,
                1.0223880597014925
            ],
            [
                -0.21111111111111114,
                1.078358208955224
            ]
        ],
        [
            [
                0.04549266247379455,
                1.2462686567164178
            ],
            [
                0.13102725366876308,
                1.3022388059701493
            ],
            [
                0.149895178197065,
                1.2492537313432837
            ]
        ]
    ],
    "231": [
        [
            [
                0.2064989517819706,
                1.0902985074626865
            ],
            [
                0.22536687631027252,
                1.037313432835821
            ],
            [
                0.18972746331236895,
                0.9425373134328358
            ]
        ],
        [
            [
                0.08280922431865827,
                0.6582089552238806
            ],
            [
                0.04716981132075471,
                0.5634328358208955
            ],
            [
                0.04842767295597484,
                0.5223880597014925
            ]
        ],
        [
            [
                0.052201257861635215,
                0.39925373134328357
            ],
            [
                0.05345911949685534,
                0.3582089552238806
            ],
            [
                0.09790356394129977,
                0.3462686567164179
            ]
        ],
        [
            [
                0.25209486515974616,
                0.40456949753955024
            ],
            [
                0.2965393096041906,
                0.39262919903208754
            ],
            [
                0.34140304126037513,
                0.4657635273902966
            ]
        ],
        [
            [
                0.428601923069553,
                0.5973435172977936
            ],
            [
                0.47346565472573765,
                0.6704778456560023
            ],
            [
                0.48897928156011894,
                0.7003285919246591
            ]
        ],
        [
            [
                0.562627528433271,
                0.6841759780796292
            ],
            [
                0.59958071278826,
                0.664179104477612
            ],
            [
                0.6500782593297117,
                0.5736874212046037
            ]
        ],
        [
            [
                0.6920335429769392,
                0.40746268656716417
            ],
            [
                0.720125786163522,
                0.30597014925373134
            ],
            [
                0.7142557651991613,
                0.23059701492537313
            ]
        ],
        [
            [
                0.6945492662473794,
                0.004477611940298508
            ],
            [
                0.6886792452830188,
                -0.0708955223880597
            ],
            [
                0.5314465408805031,
                -0.11268656716417912
            ]
        ],
        [
            [
                0.059748427672955955,
                -0.2380597014925373
            ],
            [
                -0.09748427672955975,
                -0.27985074626865675
            ],
            [
                -0.13731656184486374,
                -0.019402985074626882
            ]
        ],
        [
            [
                -0.25681341719077566,
                0.7619402985074626
            ],
            [
                -0.2966457023060797,
                1.0223880597014925
            ],
            [
                -0.21111111111111114,
                1.078358208955224
            ]
        ],
        [
            [
                0.04549266247379455,
                1.2462686567164178
            ],
            [
                0.13102725366876308,
                1.3022388059701493
            ],
            [
                0.149895178197065,
                1.2492537313432837
            ]
        ]
    ],
    "240": [
        [
            [
                0.2064989517819706,
                1.0902985074626865
            ],
            [
                0.22536687631027252,
                1.037313432835821
            ],
            [
                0.18972746331236895,
                0.9425373134328358
            ]
        ],
        [
            [
                0.08280922431865827,
                0.6582089552238806
            ],
            [
                0.04716981132075471,
                0.5634328358208955
            ],
            [
                0.04842767295597484,
                0.5223880597014925
            ]
        ],
        [
            [
                0.052201257861635215,
                0.39925373134328357
            ],
            [
                0.05345911949685534,
                0.3582089552238806
            ],
            [
                0.09790356394129977,
                0.3462686567164179
            ]
        ],
        [
            [
                0.2520498803260615,
                0.404529464394648
            ],
            [
                0.29649432477050597,
                0.3925891658871853
            ],
            [
                0.3413580564266905,
                0.46572349424539433
            ]
        ],
        [
            [
                0.4270771568442638,
                0.5938356582211558
            ],
            [
                0.4719408885004484,
                0.6669699865793648
            ],
            [
                0.4874545153348297,
                0.6968207328480216
            ]
        ],
        [
            [
                0.5616506434973351,
                0.6802787831957381
            ],
            [
                0.5985324947589098,
                0.6604477611940299
            ],
            [
                0.6489554950045412,
                0.5699194761885397
            ]
        ],
        [
            [
                0.689937106918239,
                0.40746268656716417
            ],
            [
                0.7180293501048217,
                0.30597014925373134
            ],
            [
                0.7121593291404611,
                0.23059701492537313
            ]
        ],
        [
            [
                0.6945492662473794,
                0.004477611940298508
            ],
            [
                0.6886792452830188,
                -0.0708955223880597
            ],
            [
                0.5314465408805031,
                -0.11268656716417912
            ]
        ],
        [
            [
                0.059748427672955955,
                -0.2380597014925373
            ],
            [
                -0.09748427672955975,
                -0.27985074626865675
            ],
            [
                -0.13731656184486374,
                -0.019402985074626882
            ]
        ],
        [
            [
                -0.25681341719077566,
                0.7619402985074626
            ],
            [
                -0.2966457023060797,
                1.0223880597014925
            ],
            [
                -0.21111111111111114,
                1.078358208955224
            ]
        ],
        [
            [
                0.04549266247379455,
                1.2462686567164178
            ],
            [
                0.13102725366876308,
                1.3022388059701493
            ],
            [
                0.149895178197065,
                1.2492537313432837
            ]
        ]
    ],
    "243": [
        [
            [
                0.2064989517819706,
                1.0902985074626865
            ],
            [
                0.22536687631027252,
                1.037313432835821
            ],
            [
                0.18972746331236895,
                0.9425373134328358
            ]
        ],
        [
            [
                0.08280922431865827,
                0.6582089552238806
            ],
            [
                0.04716981132075471,
                0.5634328358208955
            ],
            [
                0.04842767295597484,
                0.5223880597014925
            ]
        ],
        [
            [
                0.052201257861635215,
                0.39925373134328357
            ],
            [
                0.05345911949685534,
                0.3582089552238806
            ],
            [
                0.09790356394129977,
                0.3462686567164179
            ]
        ],
        [
            [
                0.2520348853815,
                0.40451612001301396
            ],
            [
                0.29647932982594444,
                0.39257582150555126
            ],
            [
                0.34134306148212895,
                0.4657101498637603
            ]
        ],
        [
            [
                0.42714570516225947,
                0.5939405069339949
            ],
            [
                0.4720094368184441,
                0.6670748352922039
            ],
            [
                0.4875230636528254,
                0.6969255815608607
            ]
        ],
        [
            [
                0.56272263922449,
                0.6578354396274758
            ],
            [
                0.59958071278826,
                0.6380597014925373
            ],
            [
                0.649978864268618,
                0.547519215909553
            ]
        ],
        [
            [
                0.689937106918239,
                0.40746268656716417
            ],
            [
                0.7180293501048217,
                0.30597014925373134
            ],
            [
                0.7121593291404611,
                0.23059701492537313
            ]
        ],
        [
            [
                0.6945492662473794,
                0.004477611940298508
            ],
            [
                0.6886792452830188,
                -0.0708955223880597
            ],
            [
                0.5314465408805031,
                -0.11268656716417912
            ]
        ],
        [
            [
                0.059748427672955955,
                -0.2380597014925373
            ],
            [
                -0.09748427672955975,
                -0.27985074626865675
            ],
            [
                -0.13731656184486374,
                -0.019402985074626882
            ]
        ],
        [
            [
                -0.25681341719077566,
                0.7619402985074626
            ],
            [
                -0.2966457023060797,
                1.0223880597014925
            ],
            [
                -0.21111111111111114,
                1.078358208955224
            ]
        ],
        [
            [
                0.04549266247379455,
                1.2462686567164178
            ],
            [
                0.13102725366876308,
                1.3022388059701493
            ],
            [
                0.149895178197065,
                1.2492537313432837
            ]
        ]
    ],
    "341": [
        [
            [
                0.2064989517819706,
                1.0902985074626865
            ],
            [
                0.22536687631027252,
                1.037313432835821
            ],
            [
                0.18972746331236895,
                0.9425373134328358
            ]
        ],
        [
            [
                0.08280922431865827,
                0.6582089552238806
            ],
            [
                0.04716981132075471,
                0.5634328358208955
            ],
            [
                0.04842767295597484,
                0.5223880597014925
            ]
        ],
        [
            [
                0.052201257861635215,
                0.39925373134328357
            ],
            [
                0.05345911949685534,
                0.3582089552238806
            ],
            [
                0.09790356394129977,
                0.3462686567164179
            ]
        ],
        [
            [
                0.2515450505258227,
                0.40408020354630114
            ],
            [
                0.2959894949702672,
                0.39213990503883844
            ],
            [
                0.34085322662645173,
                0.4652742333970475
            ]
        ],
        [
            [
                0.4293849502167839,
                0.5973655648867381
            ],
            [
                0.4742486818729685,
                0.670499893244947
            ],
            [
                0.4897623087073498,
                0.7003506395136038
            ]
        ],
        [
            [
                0.5561618511473275,
                0.6485668134125017
            ],
            [
                0.5922431865828093,
                0.6305970149253731
            ],
            [
                0.6418296117309021,
                0.5396579771442515
            ]
        ],
        [
            [
                0.689937106918239,
                0.40746268656716417
            ],
            [
                0.7180293501048217,
                0.30597014925373134
            ],
            [
                0.7121593291404611,
                0.23059701492537313
            ]
        ],
        [
            [
                0.6945492662473794,
                0.004477611940298508
            ],
            [
                0.6886792452830188,
                -0.0708955223880597
            ],
            [
                0.5314465408805031,
                -0.11268656716417912
            ]
        ],
        [
            [
                0.059748427672955955,
                -0.2380597014925373
            ],
            [
                -0.09748427672955975,
                -0.27985074626865675
            ],
            [
                -0.13731656184486374,
                -0.019402985074626882
            ]
        ],
        [
            [
                -0.25681341719077566,
                0.7619402985074626
            ],
            [
                -0.2966457023060797,
                1.0223880597014925
            ],
            [
                -0.21111111111111114,
                1.078358208955224
            ]
        ],
        [
            [
                0.04549266247379455,
                1.2462686567164178
            ],
            [
                0.13102725366876308,
                1.3022388059701493
            ],
            [
                0.149895178197065,
                1.2492537313432837
            ]
        ]
    ],
    "536": [
        [
            [
                0.2064989517819706,
                1.0902985074626865
            ],
            [
                0.22536687631027252,
                1.037313432835821
            ],
            [
                0.18972746331236895,
                0.9425373134328358
            ]
        ],
        [
            [
                0.08280922431865827,
                0.6582089552238806
            ],
            [
                0.04716981132075471,
                0.5634328358208955
            ],
            [
                0.04842767295597484,
                0.5223880597014925
            ]
        ],
        [
            [
                0.052201257861635215,
                0.39925373134328357
            ],
            [
                0.05345911949685534,
                0.3582089552238806
            ],
            [
                0.09790356394129977,
                0.3462686567164179
            ]
        ],
        [
            [
                0.2505703791293221,
                0.40321281874008696
            ],
            [
                0.2950148235737666,
                0.39127252023262427
            ],
            [
                0.33987855522995114,
                0.4644068485908333
            ]
        ],
        [
            [
                0.4227268774781326,
                0.5907445628352335
            ],
            [
                0.4675906091343172,
                0.6638788911934425
            ],
            [
                0.4831042359686985,
                0.6937296374620993
            ]
        ],
        [
            [
                0.552466311357885,
                0.6377179723543953
            ],
            [
                0.5870020964360587,
                0.6233416252072969
            ],
            [
                0.6349733518413793,
                0.5316095498890651
            ]
        ],
        [
            [
                0.689937106918239,
                0.40746268656716417
            ],
            [
                0.7180293501048217,
                0.30597014925373134
            ],
            [
                0.7121593291404611,
                0.23059701492537313
            ]
        ],
        [
            [
                0.6945492662473794,
                0.004477611940298508
            ],
            [
                0.6886792452830188,
                -0.0708955223880597
            ],
            [
                0.5314465408805031,
                -0.11268656716417912
            ]
        ],
        [
            [
                0.059748427672955955,
                -0.2380597014925373
            ],
            [
                -0.09748427672955975,
                -0.27985074626865675
            ],
            [
                -0.13731656184486374,
                -0.019402985074626882
            ]
        ],
        [
            [
                -0.25681341719077566,
                0.7619402985074626
            ],
            [
                -0.2966457023060797,
                1.0223880597014925
            ],
            [
                -0.21111111111111114,
                1.078358208955224
            ]
        ],
        [
            [
                0.04549266247379455,
                1.2462686567164178
            ],
            [
                0.13102725366876308,
                1.3022388059701493
            ],
            [
                0.149895178197065,
                1.2492537313432837
            ]
        ]
    ]
}
</property>
    <property name="kdenlive:collapsed">0</property>
   </filter>
   <filter id="filter249">
    <property name="mode">alpha</property>
    <property name="alpha_operation">sub</property>
    <property name="invert">0</property>
    <property name="feather">16</property>
    <property name="feather_passes">1</property>
    <property name="mlt_service">rotoscoping</property>
    <property name="kdenlive_id">rotoscoping</property>
    <property name="spline">{
    "025": [
        [
            [
                -0.09748427672955974,
                0.3126865671641791
            ],
            [
                -0.07023060796645701,
                0.25
            ],
            [
                0.009014675052410907,
                0.4358208955223881
            ]
        ],
        [
            [
                0.14465408805031452,
                0.782089552238806
            ],
            [
                0.18448637316561844,
                0.8880597014925373
            ],
            [
                0.220125786163522,
                0.8768656716417911
            ]
        ],
        [
            [
                0.240041928721174,
                0.871268656716418
            ],
            [
                0.2526205450733753,
                0.8805970149253731
            ],
            [
                0.2677148846960166,
                0.9067164179104481
            ]
        ],
        [
            [
                0.30335429769392036,
                0.9820895522388062
            ],
            [
                0.3825995807127882,
                1.167910447761194
            ],
            [
                0.34528301886792445,
                1.1977611940298512
            ]
        ],
        [
            [
                0.17044025157232703,
                1.294776119402985
            ],
            [
                0.1331236897274633,
                1.3246268656716418
            ],
            [
                0.06436058700209643,
                1.3052238805970149
            ]
        ],
        [
            [
                -0.14192872117400418,
                1.2470149253731344
            ],
            [
                -0.21069182389937108,
                1.2276119402985075
            ],
            [
                -0.2111111111111111,
                1.094029850746269
            ]
        ],
        [
            [
                -0.21236897274633124,
                0.6932835820895522
            ],
            [
                -0.21278825995807127,
                0.5597014925373135
            ],
            [
                -0.18553459119496854,
                0.4970149253731343
            ]
        ]
    ]
}
</property>
    <property name="kdenlive:collapsed">0</property>
   </filter>
   <filter id="filter250" in="00:00:17.667" out="00:00:17.867">
    <property name="start">1</property>
    <property name="mlt_service">brightness</property>
    <property name="kdenlive_id">fade_to_black</property>
    <property name="end">0</property>
    <property name="alpha">-1</property>
    <property name="kdenlive:collapsed">0</property>
   </filter>
   <filter id="filter251" in="00:00:00.833" out="00:00:01.800">
    <property name="start">0</property>
    <property name="mlt_service">brightness</property>
    <property name="kdenlive_id">fade_from_black</property>
    <property name="end">1</property>
    <property name="alpha">-1</property>
   </filter>
  </entry>
  <blank length="00:00:03.333"/>
  <entry producer="producer257" in="00:00:22.767" out="00:01:11.067">
   <property name="kdenlive:id">37</property>
   <filter id="filter252">
    <property name="version">0.6</property>
    <property name="mlt_service">frei0r.select0r</property>
    <property name="kdenlive_id">frei0r.select0r</property>
    <property name="Color to select">0x379f55ff</property>
    <property name="Invert selection">1</property>
    <property name="Selection subspace">1</property>
    <property name="Subspace shape">0.5</property>
    <property name="Edge mode">0.9</property>
    <property name="Delta R / A / Hue">00:00:22.767=0.021;00:00:24.367=0.021;00:00:26.167=0.021;00:00:27.733=0.039;00:00:36.333=0.039;00:00:39.667=0.04</property>
    <property name="Delta G / B / Chroma">00:00:22.767=0.223;00:00:24.367=0.223;00:00:26.167=0.223;00:00:27.733=0.223;00:00:36.333=0.223;00:00:39.667=0.422</property>
    <property name="Delta B / I / I">00:00:22.767=0.429;00:00:24.367=0.429;00:00:26.167=0.429;00:00:27.733=0.429;00:00:36.333=0.429;00:00:39.667=0.429</property>
    <property name="Slope">00:00:22.767=0.157;00:00:24.367=0.157;00:00:26.167=0.157;00:00:27.733=0.157;00:00:36.333=0.157;00:00:39.667=0.157</property>
    <property name="Operation">0.5</property>
    <property name="kdenlive:collapsed">0</property>
   </filter>
   <filter id="filter253">
    <property name="mlt_service">avfilter.despill</property>
    <property name="kdenlive_id">avfilter.despill</property>
    <property name="av.type">green</property>
    <property name="av.mix">0.357</property>
    <property name="av.expand">0.047</property>
    <property name="av.red">0</property>
    <property name="av.green">-1</property>
    <property name="av.blue">0</property>
    <property name="av.brightness">0</property>
    <property name="kdenlive:collapsed">0</property>
   </filter>
   <filter id="filter254">
    <property name="mode">alpha</property>
    <property name="alpha_operation">sub</property>
    <property name="invert">0</property>
    <property name="feather">4</property>
    <property name="feather_passes">1</property>
    <property name="mlt_service">rotoscoping</property>
    <property name="kdenlive_id">rotoscoping</property>
    <property name="spline">{
    "0683": [
        [
            [
                -0.07945492662473794,
                0.367910447761194
            ],
            [
                -0.049266247379454925,
                0.5522388059701493
            ],
            [
                -0.01781970649895178,
                0.5380597014925373
            ]
        ],
        [
            [
                0.07651991614255765,
                0.4955223880597015
            ],
            [
                0.10796645702306079,
                0.48134328358208955
            ],
            [
                0.11593291404612159,
                0.49776119402985075
            ]
        ],
        [
            [
                0.139832285115304,
                0.5470149253731343
            ],
            [
                0.14779874213836477,
                0.5634328358208955
            ],
            [
                0.16540880503144653,
                0.558955223880597
            ]
        ],
        [
            [
                0.21823899371069183,
                0.5455223880597015
            ],
            [
                0.2358490566037736,
                0.541044776119403
            ],
            [
                0.23333333333333334,
                0.49626865671641796
            ]
        ],
        [
            [
                0.22578616352201258,
                0.3619402985074627
            ],
            [
                0.22327044025157233,
                0.31716417910447764
            ],
            [
                0.2555555555555556,
                0.2649253731343284
            ]
        ],
        [
            [
                0.35241090146750526,
                0.1082089552238806
            ],
            [
                0.38469601677148846,
                0.055970149253731345
            ],
            [
                0.43836477987421385,
                0.05522388059701493
            ]
        ],
        [
            [
                0.5611299311301364,
                0.05393775801841853
            ],
            [
                0.6147986942328618,
                0.05319148936170213
            ],
            [
                0.6315701827024635,
                0.10916163861543346
            ]
        ],
        [
            [
                0.74220566060548,
                0.25447472502093016
            ],
            [
                0.7589771490750816,
                0.3104448742746615
            ],
            [
                0.7765872119681634,
                0.36940009815525854
            ]
        ],
        [
            [
                0.8312368972746331,
                0.43656716417910446
            ],
            [
                0.8364779874213837,
                0.6417910447761195
            ],
            [
                0.8415094339622642,
                0.6492537313432838
            ]
        ],
        [
            [
                0.8450733752620544,
                0.6567164179104478
            ],
            [
                0.850104821802935,
                0.664179104477612
            ],
            [
                0.859329140461216,
                0.6567164179104478
            ]
        ],
        [
            [
                0.8803046789989118,
                0.6363636363636364
            ],
            [
                0.9058759521218716,
                0.6344294003868471
            ],
            [
                0.9624591947769314,
                0.6479690522243714
            ]
        ],
        [
            [
                1.0038084874863982,
                0.6653771760154739
            ],
            [
                1.0345911949685533,
                0.7014925373134328
            ],
            [
                1.0635220125786164,
                0.5492537313432836
            ]
        ],
        [
            [
                1.150314465408805,
                0.09253731343283582
            ],
            [
                1.179245283018868,
                -0.059701492537313425
            ],
            [
                1.1666666666666667,
                -0.10820895522388059
            ]
        ],
        [
            [
                1.1289308176100628,
                -0.2537313432835821
            ],
            [
                1.1163522012578615,
                -0.30223880597014924
            ],
            [
                0.8530398322851152,
                -0.3156716417910448
            ]
        ],
        [
            [
                0.06310272536687629,
                -0.3559701492537313
            ],
            [
                -0.20020964360587,
                -0.3694029850746269
            ],
            [
                -0.170020964360587,
                -0.18507462686567167
            ]
        ]
    ],
    "1731": [
        [
            [
                -0.07945492662473794,
                0.367910447761194
            ],
            [
                -0.049266247379454925,
                0.5522388059701493
            ],
            [
                -0.01781970649895178,
                0.5380597014925373
            ]
        ],
        [
            [
                0.07651991614255765,
                0.4955223880597015
            ],
            [
                0.10796645702306079,
                0.48134328358208955
            ],
            [
                0.11593291404612159,
                0.49776119402985075
            ]
        ],
        [
            [
                0.139832285115304,
                0.5470149253731343
            ],
            [
                0.14779874213836477,
                0.5634328358208955
            ],
            [
                0.16540880503144653,
                0.558955223880597
            ]
        ],
        [
            [
                0.21823899371069183,
                0.5455223880597015
            ],
            [
                0.2358490566037736,
                0.541044776119403
            ],
            [
                0.23333333333333334,
                0.49626865671641796
            ]
        ],
        [
            [
                0.22578616352201258,
                0.3619402985074627
            ],
            [
                0.22327044025157233,
                0.31716417910447764
            ],
            [
                0.2555555555555556,
                0.2649253731343284
            ]
        ],
        [
            [
                0.35241090146750526,
                0.1082089552238806
            ],
            [
                0.38469601677148846,
                0.055970149253731345
            ],
            [
                0.43836477987421385,
                0.05522388059701493
            ]
        ],
        [
            [
                0.5611299311301364,
                0.05393775801841853
            ],
            [
                0.6147986942328618,
                0.05319148936170213
            ],
            [
                0.6315701827024635,
                0.10916163861543346
            ]
        ],
        [
            [
                0.74220566060548,
                0.25447472502093016
            ],
            [
                0.7589771490750816,
                0.3104448742746615
            ],
            [
                0.7765872119681634,
                0.36940009815525854
            ]
        ],
        [
            [
                0.8312368972746331,
                0.43656716417910446
            ],
            [
                0.8364779874213837,
                0.6417910447761195
            ],
            [
                0.8415094339622642,
                0.6492537313432838
            ]
        ],
        [
            [
                0.8450733752620544,
                0.6567164179104478
            ],
            [
                0.850104821802935,
                0.664179104477612
            ],
            [
                0.859329140461216,
                0.6567164179104478
            ]
        ],
        [
            [
                0.8803046789989118,
                0.6363636363636364
            ],
            [
                0.9058759521218716,
                0.6344294003868471
            ],
            [
                0.9624591947769314,
                0.6479690522243714
            ]
        ],
        [
            [
                1.0038084874863982,
                0.6653771760154739
            ],
            [
                1.0345911949685533,
                0.7014925373134328
            ],
            [
                1.0635220125786164,
                0.5492537313432836
            ]
        ],
        [
            [
                1.150314465408805,
                0.09253731343283582
            ],
            [
                1.179245283018868,
                -0.059701492537313425
            ],
            [
                1.1666666666666667,
                -0.10820895522388059
            ]
        ],
        [
            [
                1.1289308176100628,
                -0.2537313432835821
            ],
            [
                1.1163522012578615,
                -0.30223880597014924
            ],
            [
                0.8530398322851152,
                -0.3156716417910448
            ]
        ],
        [
            [
                0.06310272536687629,
                -0.3559701492537313
            ],
            [
                -0.20020964360587,
                -0.3694029850746269
            ],
            [
                -0.170020964360587,
                -0.18507462686567167
            ]
        ]
    ],
    "1767": [
        [
            [
                -0.07945492662473794,
                0.367910447761194
            ],
            [
                -0.049266247379454925,
                0.5522388059701493
            ],
            [
                -0.01781970649895178,
                0.5380597014925373
            ]
        ],
        [
            [
                0.07651991614255765,
                0.4955223880597015
            ],
            [
                0.10796645702306079,
                0.48134328358208955
            ],
            [
                0.11593291404612159,
                0.49776119402985075
            ]
        ],
        [
            [
                0.139832285115304,
                0.5470149253731343
            ],
            [
                0.14779874213836477,
                0.5634328358208955
            ],
            [
                0.16540880503144653,
                0.558955223880597
            ]
        ],
        [
            [
                0.21823899371069183,
                0.5455223880597015
            ],
            [
                0.2358490566037736,
                0.541044776119403
            ],
            [
                0.23333333333333334,
                0.49626865671641796
            ]
        ],
        [
            [
                0.22578616352201258,
                0.3619402985074627
            ],
            [
                0.22327044025157233,
                0.31716417910447764
            ],
            [
                0.2555555555555556,
                0.2649253731343284
            ]
        ],
        [
            [
                0.35241090146750526,
                0.1082089552238806
            ],
            [
                0.38469601677148846,
                0.055970149253731345
            ],
            [
                0.43836477987421385,
                0.05522388059701493
            ]
        ],
        [
            [
                0.5611299311301364,
                0.05393775801841853
            ],
            [
                0.6147986942328618,
                0.05319148936170213
            ],
            [
                0.6315701827024635,
                0.10916163861543346
            ]
        ],
        [
            [
                0.7515723270440251,
                0.216417910447761
            ],
            [
                0.7683438155136267,
                0.27238805970149255
            ],
            [
                0.7859538784067085,
                0.33134328358208937
            ]
        ],
        [
            [
                0.8312368972746331,
                0.43656716417910446
            ],
            [
                0.8364779874213837,
                0.6417910447761195
            ],
            [
                0.8415094339622642,
                0.6492537313432838
            ]
        ],
        [
            [
                0.8450733752620544,
                0.6567164179104478
            ],
            [
                0.850104821802935,
                0.664179104477612
            ],
            [
                0.859329140461216,
                0.6567164179104478
            ]
        ],
        [
            [
                0.8803046789989118,
                0.6363636363636364
            ],
            [
                0.9058759521218716,
                0.6344294003868471
            ],
            [
                0.9624591947769314,
                0.6479690522243714
            ]
        ],
        [
            [
                1.0038084874863982,
                0.6653771760154739
            ],
            [
                1.0345911949685533,
                0.7014925373134328
            ],
            [
                1.0635220125786164,
                0.5492537313432836
            ]
        ],
        [
            [
                1.150314465408805,
                0.09253731343283582
            ],
            [
                1.179245283018868,
                -0.059701492537313425
            ],
            [
                1.1666666666666667,
                -0.10820895522388059
            ]
        ],
        [
            [
                1.1289308176100628,
                -0.2537313432835821
            ],
            [
                1.1163522012578615,
                -0.30223880597014924
            ],
            [
                0.8530398322851152,
                -0.3156716417910448
            ]
        ],
        [
            [
                0.06310272536687629,
                -0.3559701492537313
            ],
            [
                -0.20020964360587,
                -0.3694029850746269
            ],
            [
                -0.170020964360587,
                -0.18507462686567167
            ]
        ]
    ],
    "1937": [
        [
            [
                -0.07945492662473794,
                0.367910447761194
            ],
            [
                -0.049266247379454925,
                0.5522388059701493
            ],
            [
                -0.01781970649895178,
                0.5380597014925373
            ]
        ],
        [
            [
                0.07651991614255765,
                0.4955223880597015
            ],
            [
                0.10796645702306079,
                0.48134328358208955
            ],
            [
                0.11593291404612159,
                0.49776119402985075
            ]
        ],
        [
            [
                0.139832285115304,
                0.5470149253731343
            ],
            [
                0.14779874213836477,
                0.5634328358208955
            ],
            [
                0.16540880503144653,
                0.558955223880597
            ]
        ],
        [
            [
                0.21823899371069183,
                0.5455223880597015
            ],
            [
                0.2358490566037736,
                0.541044776119403
            ],
            [
                0.23333333333333334,
                0.49626865671641796
            ]
        ],
        [
            [
                0.22578616352201258,
                0.3619402985074627
            ],
            [
                0.22327044025157233,
                0.31716417910447764
            ],
            [
                0.2555555555555556,
                0.2649253731343284
            ]
        ],
        [
            [
                0.35241090146750526,
                0.1082089552238806
            ],
            [
                0.38469601677148846,
                0.055970149253731345
            ],
            [
                0.43836477987421385,
                0.05522388059701493
            ]
        ],
        [
            [
                0.5611299311301364,
                0.05393775801841853
            ],
            [
                0.6147986942328618,
                0.05319148936170213
            ],
            [
                0.6315701827024635,
                0.10916163861543346
            ]
        ],
        [
            [
                0.74220566060548,
                0.25447472502093016
            ],
            [
                0.7589771490750816,
                0.3104448742746615
            ],
            [
                0.7765872119681634,
                0.36940009815525854
            ]
        ],
        [
            [
                0.8312368972746331,
                0.43656716417910446
            ],
            [
                0.8364779874213837,
                0.6417910447761195
            ],
            [
                0.8415094339622642,
                0.6492537313432838
            ]
        ],
        [
            [
                0.8450733752620544,
                0.6567164179104478
            ],
            [
                0.850104821802935,
                0.664179104477612
            ],
            [
                0.859329140461216,
                0.6567164179104478
            ]
        ],
        [
            [
                0.8803046789989118,
                0.6363636363636364
            ],
            [
                0.9058759521218716,
                0.6344294003868471
            ],
            [
                0.9624591947769314,
                0.6479690522243714
            ]
        ],
        [
            [
                1.0038084874863982,
                0.6653771760154739
            ],
            [
                1.0345911949685533,
                0.7014925373134328
            ],
            [
                1.0635220125786164,
                0.5492537313432836
            ]
        ],
        [
            [
                1.150314465408805,
                0.09253731343283582
            ],
            [
                1.179245283018868,
                -0.059701492537313425
            ],
            [
                1.1666666666666667,
                -0.10820895522388059
            ]
        ],
        [
            [
                1.1289308176100628,
                -0.2537313432835821
            ],
            [
                1.1163522012578615,
                -0.30223880597014924
            ],
            [
                0.8530398322851152,
                -0.3156716417910448
            ]
        ],
        [
            [
                0.06310272536687629,
                -0.3559701492537313
            ],
            [
                -0.20020964360587,
                -0.3694029850746269
            ],
            [
                -0.170020964360587,
                -0.18507462686567167
            ]
        ]
    ]
}
</property>
    <property name="kdenlive:collapsed">0</property>
   </filter>
   <filter id="filter255">
    <property name="mode">alpha</property>
    <property name="alpha_operation">add</property>
    <property name="invert">0</property>
    <property name="feather">4</property>
    <property name="feather_passes">1</property>
    <property name="mlt_service">rotoscoping</property>
    <property name="kdenlive_id">rotoscoping</property>
    <property name="spline">{
    "0683": [
        [
            [
                -0.06352201257861635,
                0.5738805970149253
            ],
            [
                -0.0220125786163522,
                0.5895522388059701
            ],
            [
                -0.0014675052410901427,
                0.6022388059701492
            ]
        ],
        [
            [
                0.0750816104461371,
                0.5880077369439072
            ],
            [
                0.08071278825995808,
                0.6529850746268657
            ],
            [
                0.05658324265505985,
                0.7079303675048356
            ]
        ],
        [
            [
                -0.014884696016771485,
                0.7186567164179104
            ],
            [
                -0.038784067085953874,
                0.7350746268656716
            ],
            [
                -0.035429769392033544,
                0.8029850746268656
            ]
        ],
        [
            [
                -0.025366876310272533,
                1.0067164179104477
            ],
            [
                -0.0220125786163522,
                1.0746268656716418
            ],
            [
                0.02368972746331237,
                1.0671641791044777
            ]
        ],
        [
            [
                0.17355775920869235,
                1.0384104621957908
            ],
            [
                0.2192600652883569,
                1.0309477756286267
            ],
            [
                0.11588683351468988,
                0.981624758220503
            ]
        ],
        [
            [
                0.025815363066682185,
                0.9321934813360665
            ],
            [
                0.046789989118607184,
                0.8868471953578337
            ],
            [
                0.0941240478781284,
                0.7872340425531915
            ]
        ],
        [
            [
                0.2541250059881878,
                0.8345694159762117
            ],
            [
                0.2981501632208923,
                0.8278529980657641
            ],
            [
                0.3342088634305359,
                0.8412858338866595
            ]
        ],
        [
            [
                0.4264004945672878,
                0.8753485955137273
            ],
            [
                0.4624591947769314,
                0.8887814313346228
            ],
            [
                0.560391730141458,
                0.9458413926499034
            ]
        ],
        [
            [
                0.5049114546620043,
                0.9928115707728283
            ],
            [
                0.5195865070729053,
                1.0077369439071566
            ],
            [
                0.5334229850603269,
                0.9995279886832761
            ]
        ],
        [
            [
                0.5516866158868335,
                0.9593810444874274
            ],
            [
                0.5794341675734495,
                0.9506769825918763
            ],
            [
                0.5924320711373908,
                0.9372441467709808
            ]
        ],
        [
            [
                0.5761697497279652,
                0.913926499032882
            ],
            [
                0.6539717083786726,
                0.8713733075435204
            ],
            [
                0.7143634385201306,
                0.855899419729207
            ]
        ],
        [
            [
                0.7393906420021763,
                0.8636363636363636
            ],
            [
                0.7665941240478781,
                0.8713733075435204
            ],
            [
                0.7858813357879201,
                0.883313606050983
            ]
        ],
        [
            [
                0.8313384113166485,
                0.9061895551257255
            ],
            [
                0.838411316648531,
                0.9758220502901355
            ],
            [
                0.8400884654954912,
                0.9974638413349116
            ]
        ],
        [
            [
                0.8442348008385744,
                1.0305970149253731
            ],
            [
                0.8459119496855346,
                1.0522388059701493
            ],
            [
                0.881132075471698,
                1.1029850746268657
            ]
        ],
        [
            [
                0.9867924528301887,
                1.255223880597015
            ],
            [
                1.022012578616352,
                1.3059701492537314
            ],
            [
                1.0245283018867923,
                1.2149253731343284
            ]
        ],
        [
            [
                1.032075471698113,
                0.9417910447761194
            ],
            [
                1.0345911949685533,
                0.8507462686567164
            ],
            [
                1.0174004192872117,
                0.8589552238805971
            ]
        ],
        [
            [
                0.984221980413493,
                0.8713733075435205
            ],
            [
                0.9281828073993471,
                0.8781431334622825
            ],
            [
                0.8280739934711644,
                0.8626692456479691
            ]
        ],
        [
            [
                0.8356909684439608,
                0.8491295938104448
            ],
            [
                0.8182807399347117,
                0.8230174081237911
            ],
            [
                0.7475516866158869,
                0.7911025145067699
            ]
        ],
        [
            [
                0.7453822516955128,
                0.7555212332919546
            ],
            [
                0.7442872687704026,
                0.7524177949709865
            ],
            [
                0.7132752992383026,
                0.6721470019342358
            ]
        ],
        [
            [
                0.823177366702938,
                0.6653771760154739
            ],
            [
                0.8498367791077258,
                0.6624758220502901
            ],
            [
                0.8661588683351469,
                0.6450676982591876
            ]
        ],
        [
            [
                0.9265813948713738,
                0.6225064233955949
            ],
            [
                0.9455930359085963,
                0.6431334622823984
            ],
            [
                0.9673959709190786,
                0.6558200294465776
            ]
        ],
        [
            [
                1.0023060796645702,
                0.7
            ],
            [
                1.0241090146750524,
                0.7126865671641791
            ],
            [
                1.0542976939203355,
                0.7305970149253731
            ]
        ],
        [
            [
                1.1448637316561843,
                0.7843283582089553
            ],
            [
                1.1750524109014675,
                0.8022388059701493
            ],
            [
                1.1670859538784066,
                0.917910447761194
            ]
        ],
        [
            [
                1.1431865828092242,
                1.2649253731343284
            ],
            [
                1.1352201257861634,
                1.380597014925373
            ],
            [
                1.0115303983228512,
                1.3888059701492537
            ]
        ],
        [
            [
                0.640461215932914,
                1.4134328358208954
            ],
            [
                0.5167714884696016,
                1.421641791044776
            ],
            [
                0.360377358490566,
                1.4111940298507462
            ]
        ],
        [
            [
                -0.1088050314465409,
                1.3798507462686567
            ],
            [
                -0.26519916142557654,
                1.369402985074627
            ],
            [
                -0.2580712788259958,
                1.1977611940298507
            ]
        ],
        [
            [
                -0.23668763102725368,
                0.6828358208955224
            ],
            [
                -0.22955974842767293,
                0.5111940298507462
            ],
            [
                -0.1880503144654088,
                0.526865671641791
            ]
        ]
    ]
}
</property>
    <property name="kdenlive:collapsed">0</property>
   </filter>
   <filter id="filter256">
    <property name="rotate_center">1</property>
    <property name="mlt_service">qtblend</property>
    <property name="kdenlive_id">qtblend</property>
    <property name="rect">00:00:22.767=200 -76 1536 864 1.000000</property>
    <property name="rotation">00:00:22.767=0</property>
    <property name="compositing">0</property>
    <property name="distort">0</property>
    <property name="kdenlive:collapsed">0</property>
   </filter>
  </entry>
  <entry producer="producer258" in="00:01:11.100" out="00:02:02.533">
   <property name="kdenlive:id">37</property>
   <filter id="filter257">
    <property name="version">0.6</property>
    <property name="mlt_service">frei0r.select0r</property>
    <property name="kdenlive_id">frei0r.select0r</property>
    <property name="Color to select">0x379f55ff</property>
    <property name="Invert selection">1</property>
    <property name="Selection subspace">1</property>
    <property name="Subspace shape">0.5</property>
    <property name="Edge mode">0.9</property>
    <property name="Delta R / A / Hue">2133=0.04</property>
    <property name="Delta G / B / Chroma">2133=0.422</property>
    <property name="Delta B / I / I">2133=0.429</property>
    <property name="Slope">2133=0.157</property>
    <property name="Operation">0.5</property>
    <property name="kdenlive:collapsed">0</property>
   </filter>
   <filter id="filter258">
    <property name="mlt_service">avfilter.despill</property>
    <property name="kdenlive_id">avfilter.despill</property>
    <property name="av.type">green</property>
    <property name="av.mix">0.357</property>
    <property name="av.expand">0.047</property>
    <property name="av.red">0</property>
    <property name="av.green">-1</property>
    <property name="av.blue">0</property>
    <property name="av.brightness">0</property>
    <property name="kdenlive:collapsed">0</property>
   </filter>
   <filter id="filter259">
    <property name="mode">alpha</property>
    <property name="alpha_operation">sub</property>
    <property name="invert">0</property>
    <property name="feather">4</property>
    <property name="feather_passes">1</property>
    <property name="mlt_service">rotoscoping</property>
    <property name="kdenlive_id">rotoscoping</property>
    <property name="spline">{
    "2133": [
        [
            [
                -0.07945492662473794,
                0.367910447761194
            ],
            [
                -0.049266247379454925,
                0.5522388059701493
            ],
            [
                -0.01781970649895178,
                0.5380597014925373
            ]
        ],
        [
            [
                0.07651991614255765,
                0.4955223880597015
            ],
            [
                0.10796645702306079,
                0.48134328358208955
            ],
            [
                0.11593291404612159,
                0.49776119402985075
            ]
        ],
        [
            [
                0.139832285115304,
                0.5470149253731343
            ],
            [
                0.14779874213836477,
                0.5634328358208955
            ],
            [
                0.16540880503144653,
                0.558955223880597
            ]
        ],
        [
            [
                0.21823899371069183,
                0.5455223880597015
            ],
            [
                0.2358490566037736,
                0.541044776119403
            ],
            [
                0.23333333333333334,
                0.49626865671641796
            ]
        ],
        [
            [
                0.22578616352201258,
                0.3619402985074627
            ],
            [
                0.22327044025157233,
                0.31716417910447764
            ],
            [
                0.2555555555555556,
                0.2649253731343284
            ]
        ],
        [
            [
                0.35241090146750526,
                0.1082089552238806
            ],
            [
                0.38469601677148846,
                0.055970149253731345
            ],
            [
                0.43836477987421385,
                0.05522388059701493
            ]
        ],
        [
            [
                0.5611299311301364,
                0.05393775801841853
            ],
            [
                0.6147986942328618,
                0.05319148936170213
            ],
            [
                0.6315701827024635,
                0.10916163861543346
            ]
        ],
        [
            [
                0.74220566060548,
                0.25447472502093016
            ],
            [
                0.7589771490750816,
                0.3104448742746615
            ],
            [
                0.7765872119681634,
                0.36940009815525854
            ]
        ],
        [
            [
                0.8312368972746331,
                0.43656716417910446
            ],
            [
                0.8364779874213837,
                0.6417910447761195
            ],
            [
                0.8415094339622642,
                0.6492537313432838
            ]
        ],
        [
            [
                0.8450733752620544,
                0.6567164179104478
            ],
            [
                0.850104821802935,
                0.664179104477612
            ],
            [
                0.859329140461216,
                0.6567164179104478
            ]
        ],
        [
            [
                0.8803046789989118,
                0.6363636363636364
            ],
            [
                0.9058759521218716,
                0.6344294003868471
            ],
            [
                0.9624591947769314,
                0.6479690522243714
            ]
        ],
        [
            [
                1.0038084874863982,
                0.6653771760154739
            ],
            [
                1.0345911949685533,
                0.7014925373134328
            ],
            [
                1.0635220125786164,
                0.5492537313432836
            ]
        ],
        [
            [
                1.150314465408805,
                0.09253731343283582
            ],
            [
                1.179245283018868,
                -0.059701492537313425
            ],
            [
                1.1666666666666667,
                -0.10820895522388059
            ]
        ],
        [
            [
                1.1289308176100628,
                -0.2537313432835821
            ],
            [
                1.1163522012578615,
                -0.30223880597014924
            ],
            [
                0.8530398322851152,
                -0.3156716417910448
            ]
        ],
        [
            [
                0.06310272536687629,
                -0.3559701492537313
            ],
            [
                -0.20020964360587,
                -0.3694029850746269
            ],
            [
                -0.170020964360587,
                -0.18507462686567167
            ]
        ]
    ]
}
</property>
    <property name="kdenlive:collapsed">0</property>
   </filter>
   <filter id="filter260">
    <property name="mode">alpha</property>
    <property name="alpha_operation">add</property>
    <property name="invert">0</property>
    <property name="feather">4</property>
    <property name="feather_passes">1</property>
    <property name="mlt_service">rotoscoping</property>
    <property name="kdenlive_id">rotoscoping</property>
    <property name="spline">{
    "2133": [
        [
            [
                -0.06352201257861635,
                0.5738805970149253
            ],
            [
                -0.0220125786163522,
                0.5895522388059701
            ],
            [
                -0.0014675052410901427,
                0.6022388059701492
            ]
        ],
        [
            [
                0.0750816104461371,
                0.5880077369439072
            ],
            [
                0.08071278825995808,
                0.6529850746268657
            ],
            [
                0.05658324265505985,
                0.7079303675048356
            ]
        ],
        [
            [
                -0.014884696016771485,
                0.7186567164179104
            ],
            [
                -0.038784067085953874,
                0.7350746268656716
            ],
            [
                -0.035429769392033544,
                0.8029850746268656
            ]
        ],
        [
            [
                -0.025366876310272533,
                1.0067164179104477
            ],
            [
                -0.0220125786163522,
                1.0746268656716418
            ],
            [
                0.02368972746331237,
                1.0671641791044777
            ]
        ],
        [
            [
                0.17355775920869235,
                1.0384104621957908
            ],
            [
                0.2192600652883569,
                1.0309477756286267
            ],
            [
                0.11588683351468988,
                0.981624758220503
            ]
        ],
        [
            [
                0.025815363066682185,
                0.9321934813360665
            ],
            [
                0.046789989118607184,
                0.8868471953578337
            ],
            [
                0.0941240478781284,
                0.7872340425531915
            ]
        ],
        [
            [
                0.2541250059881878,
                0.8345694159762117
            ],
            [
                0.2981501632208923,
                0.8278529980657641
            ],
            [
                0.3342088634305359,
                0.8412858338866595
            ]
        ],
        [
            [
                0.4264004945672878,
                0.8753485955137273
            ],
            [
                0.4624591947769314,
                0.8887814313346228
            ],
            [
                0.560391730141458,
                0.9458413926499034
            ]
        ],
        [
            [
                0.5049114546620043,
                0.9928115707728283
            ],
            [
                0.5195865070729053,
                1.0077369439071566
            ],
            [
                0.5334229850603269,
                0.9995279886832761
            ]
        ],
        [
            [
                0.5516866158868335,
                0.9593810444874274
            ],
            [
                0.5794341675734495,
                0.9506769825918763
            ],
            [
                0.5924320711373908,
                0.9372441467709808
            ]
        ],
        [
            [
                0.5761697497279652,
                0.913926499032882
            ],
            [
                0.6539717083786726,
                0.8713733075435204
            ],
            [
                0.7143634385201306,
                0.855899419729207
            ]
        ],
        [
            [
                0.7393906420021763,
                0.8636363636363636
            ],
            [
                0.7665941240478781,
                0.8713733075435204
            ],
            [
                0.7858813357879201,
                0.883313606050983
            ]
        ],
        [
            [
                0.8313384113166485,
                0.9061895551257255
            ],
            [
                0.838411316648531,
                0.9758220502901355
            ],
            [
                0.8400884654954912,
                0.9974638413349116
            ]
        ],
        [
            [
                0.8442348008385744,
                1.0305970149253731
            ],
            [
                0.8459119496855346,
                1.0522388059701493
            ],
            [
                0.881132075471698,
                1.1029850746268657
            ]
        ],
        [
            [
                0.9867924528301887,
                1.255223880597015
            ],
            [
                1.022012578616352,
                1.3059701492537314
            ],
            [
                1.0245283018867923,
                1.2149253731343284
            ]
        ],
        [
            [
                1.032075471698113,
                0.9417910447761194
            ],
            [
                1.0345911949685533,
                0.8507462686567164
            ],
            [
                1.0174004192872117,
                0.8589552238805971
            ]
        ],
        [
            [
                0.984221980413493,
                0.8713733075435205
            ],
            [
                0.9281828073993471,
                0.8781431334622825
            ],
            [
                0.8280739934711644,
                0.8626692456479691
            ]
        ],
        [
            [
                0.8356909684439608,
                0.8491295938104448
            ],
            [
                0.8182807399347117,
                0.8230174081237911
            ],
            [
                0.7475516866158869,
                0.7911025145067699
            ]
        ],
        [
            [
                0.7453822516955128,
                0.7555212332919546
            ],
            [
                0.7442872687704026,
                0.7524177949709865
            ],
            [
                0.7132752992383026,
                0.6721470019342358
            ]
        ],
        [
            [
                0.823177366702938,
                0.6653771760154739
            ],
            [
                0.8498367791077258,
                0.6624758220502901
            ],
            [
                0.8661588683351469,
                0.6450676982591876
            ]
        ],
        [
            [
                0.9265813948713738,
                0.6225064233955949
            ],
            [
                0.9455930359085963,
                0.6431334622823984
            ],
            [
                0.9673959709190786,
                0.6558200294465776
            ]
        ],
        [
            [
                1.0023060796645702,
                0.7
            ],
            [
                1.0241090146750524,
                0.7126865671641791
            ],
            [
                1.0542976939203355,
                0.7305970149253731
            ]
        ],
        [
            [
                1.1448637316561843,
                0.7843283582089553
            ],
            [
                1.1750524109014675,
                0.8022388059701493
            ],
            [
                1.1670859538784066,
                0.917910447761194
            ]
        ],
        [
            [
                1.1431865828092242,
                1.2649253731343284
            ],
            [
                1.1352201257861634,
                1.380597014925373
            ],
            [
                1.0115303983228512,
                1.3888059701492537
            ]
        ],
        [
            [
                0.640461215932914,
                1.4134328358208954
            ],
            [
                0.5167714884696016,
                1.421641791044776
            ],
            [
                0.360377358490566,
                1.4111940298507462
            ]
        ],
        [
            [
                -0.1088050314465409,
                1.3798507462686567
            ],
            [
                -0.26519916142557654,
                1.369402985074627
            ],
            [
                -0.2580712788259958,
                1.1977611940298507
            ]
        ],
        [
            [
                -0.23668763102725368,
                0.6828358208955224
            ],
            [
                -0.22955974842767293,
                0.5111940298507462
            ],
            [
                -0.1880503144654088,
                0.526865671641791
            ]
        ]
    ]
}
</property>
    <property name="kdenlive:collapsed">0</property>
   </filter>
   <filter id="filter261">
    <property name="rotate_center">1</property>
    <property name="mlt_service">qtblend</property>
    <property name="kdenlive_id">qtblend</property>
    <property name="rect">2133=200 -76 1536 864 1.000000</property>
    <property name="rotation">2133=0</property>
    <property name="compositing">0</property>
    <property name="distort">0</property>
    <property name="kdenlive:collapsed">0</property>
   </filter>
  </entry>
 </playlist>
 <playlist id="playlist23"/>
 <tractor id="tractor11" in="00:00:00.000" out="00:07:14.367">
  <property name="kdenlive:trackheight">69</property>
  <property name="kdenlive:timeline_active">1</property>
  <property name="kdenlive:collapsed">0</property>
  <property name="kdenlive:track_name">chris-handh eld</property>
  <property name="kdenlive:thumbs_format"/>
  <property name="kdenlive:audio_rec"/>
  <track hide="audio" producer="playlist22"/>
  <track producer="playlist23"/>
 </tractor>
 <producer id="producer259" in="00:00:00.000" out="00:01:23.533">
  <property name="length">2507</property>
  <property name="eof">pause</property>
  <property name="resource">/home/ryankelln/.cache/kdenlive/proxy/56fa46c3050061f5dbddea6210841061.mkv</property>
  <property name="audio_index">1</property>
  <property name="video_index">0</property>
  <property name="mute_on_pause">0</property>
  <property name="mlt_service">avformat-novalidate</property>
  <property name="seekable">1</property>
  <property name="aspect_ratio">1</property>
  <property name="kdenlive:clipname">2021-02-06_Chris_synth+4k_mac_P1180158-take1_beginning.MP4</property>
  <property name="kdenlive:folderid">65</property>
  <property name="kdenlive:id">43</property>
  <property name="kdenlive:file_size">1001088846</property>
  <property name="kdenlive:file_hash">56fa46c3050061f5dbddea6210841061</property>
  <property name="kdenlive:audio_max">1</property>
  <property name="kdenlive:proxy">/home/ryankelln/.cache/kdenlive/proxy/56fa46c3050061f5dbddea6210841061.mkv</property>
  <property name="kdenlive:originalurl">content/musicians/2021-02-06_Chris_synth+4k_mac_P1180158-take1_beginning.MP4</property>
  <property name="kdenlive:original.mlt_type">producer</property>
  <property name="kdenlive:original.in">00:00:00.000</property>
  <property name="kdenlive:original.out">00:01:23.533</property>
  <property name="kdenlive:original.length">2507</property>
  <property name="kdenlive:original.eof">pause</property>
  <property name="kdenlive:original.resource">content/musicians/2021-02-06_Chris_synth+4k_mac_P1180158-take1_beginning.MP4</property>
  <property name="kdenlive:original.meta.media.nb_streams">2</property>
  <property name="kdenlive:original.meta.media.0.stream.type">video</property>
  <property name="kdenlive:original.meta.media.0.stream.frame_rate">29.97</property>
  <property name="kdenlive:original.meta.media.0.stream.sample_aspect_ratio">1</property>
  <property name="kdenlive:original.meta.media.0.codec.width">3840</property>
  <property name="kdenlive:original.meta.media.0.codec.height">2160</property>
  <property name="kdenlive:original.meta.media.0.codec.rotate">0</property>
  <property name="kdenlive:original.meta.media.0.codec.frame_rate">29.97</property>
  <property name="kdenlive:original.meta.media.0.codec.pix_fmt">yuvj420p</property>
  <property name="kdenlive:original.meta.media.0.codec.sample_aspect_ratio">1</property>
  <property name="kdenlive:original.meta.media.0.codec.colorspace">709</property>
  <property name="kdenlive:original.meta.media.0.codec.color_trc">1</property>
  <property name="kdenlive:original.meta.media.0.codec.name">h264</property>
  <property name="kdenlive:original.meta.media.0.codec.long_name">H.264 / AVC / MPEG-4 AVC / MPEG-4 part 10</property>
  <property name="kdenlive:original.meta.media.0.codec.bit_rate">95759356</property>
  <property name="kdenlive:original.meta.attr.0.stream.creation_time.markup">2021-06-02T15:49:21.000000Z</property>
  <property name="kdenlive:original.meta.attr.0.stream.handler_name.markup">VideoHandler</property>
  <property name="kdenlive:original.meta.media.1.stream.type">audio</property>
  <property name="kdenlive:original.meta.media.1.codec.sample_fmt">fltp</property>
  <property name="kdenlive:original.meta.media.1.codec.sample_rate">48000</property>
  <property name="kdenlive:original.meta.media.1.codec.channels">2</property>
  <property name="kdenlive:original.meta.media.1.codec.name">aac</property>
  <property name="kdenlive:original.meta.media.1.codec.long_name">AAC (Advanced Audio Coding)</property>
  <property name="kdenlive:original.meta.media.1.codec.bit_rate">125373</property>
  <property name="kdenlive:original.meta.attr.1.stream.creation_time.markup">2021-06-02T15:49:21.000000Z</property>
  <property name="kdenlive:original.meta.attr.1.stream.handler_name.markup">SoundHandler</property>
  <property name="kdenlive:original.meta.attr.major_brand.markup">isom</property>
  <property name="kdenlive:original.meta.attr.minor_version.markup">512</property>
  <property name="kdenlive:original.meta.attr.compatible_brands.markup">isomiso2avc1mp41</property>
  <property name="kdenlive:original.meta.attr.creation_time.markup">2021-06-02T15:49:21.000000Z</property>
  <property name="kdenlive:original.meta.attr.encoder.markup">Lavf58.45.100</property>
  <property name="kdenlive:original.seekable">1</property>
  <property name="kdenlive:original.width">3840</property>
  <property name="kdenlive:original.height">2160</property>
  <property name="kdenlive:original.meta.media.sample_aspect_num">1</property>
  <property name="kdenlive:original.meta.media.sample_aspect_den">1</property>
  <property name="kdenlive:original.aspect_ratio">1</property>
  <property name="kdenlive:original.audio_index">1</property>
  <property name="kdenlive:original.video_index">0</property>
  <property name="kdenlive:original.mute_on_pause">0</property>
  <property name="kdenlive:original.mlt_service">avformat-novalidate</property>
  <property name="kdenlive:original.kdenlive:folderid">65</property>
  <property name="kdenlive:original.meta.media.frame_rate_num">30000</property>
  <property name="kdenlive:original.meta.media.frame_rate_den">1001</property>
  <property name="kdenlive:original.meta.media.colorspace">709</property>
  <property name="kdenlive:original.meta.media.color_trc">1</property>
  <property name="kdenlive:original.meta.media.width">3840</property>
  <property name="kdenlive:original.meta.media.height">2160</property>
  <property name="kdenlive:original.meta.media.color_range">full</property>
  <property name="kdenlive:original.kdenlive:id">81</property>
  <property name="kdenlive:original.kdenlive:file_size">1001088846</property>
  <property name="kdenlive:original.kdenlive:file_hash">56fa46c3050061f5dbddea6210841061</property>
  <property name="kdenlive:original.meta.media.top_field_first">0</property>
  <property name="kdenlive:original.meta.media.progressive">1</property>
  <property name="kdenlive:original.kdenlive:audio_max">1</property>
  <property name="kdenlive:original.backup">1</property>
  <property name="global_feed">1</property>
  <property name="xml">was here</property>
  <property name="meta.media.nb_streams">2</property>
  <property name="meta.media.0.stream.type">video</property>
  <property name="meta.media.0.stream.frame_rate">29.97</property>
  <property name="meta.media.0.stream.sample_aspect_ratio">1</property>
  <property name="meta.media.0.codec.width">960</property>
  <property name="meta.media.0.codec.height">540</property>
  <property name="meta.media.0.codec.rotate">0</property>
  <property name="meta.media.0.codec.frame_rate">1000</property>
  <property name="meta.media.0.codec.pix_fmt">yuvj420p</property>
  <property name="meta.media.0.codec.sample_aspect_ratio">1</property>
  <property name="meta.media.0.codec.colorspace">601</property>
  <property name="meta.media.0.codec.name">mjpeg</property>
  <property name="meta.media.0.codec.long_name">MJPEG (Motion JPEG)</property>
  <property name="meta.media.0.codec.bit_rate">0</property>
  <property name="meta.attr.0.stream.HANDLER_NAME.markup">VideoHandler</property>
  <property name="meta.attr.0.stream.ENCODER.markup">Lavc58.91.100 mjpeg</property>
  <property name="meta.attr.0.stream.DURATION.markup">00:01:23.617000000</property>
  <property name="meta.media.1.stream.type">audio</property>
  <property name="meta.media.1.codec.sample_fmt">s16</property>
  <property name="meta.media.1.codec.sample_rate">48000</property>
  <property name="meta.media.1.codec.channels">2</property>
  <property name="meta.media.1.codec.name">pcm_s16le</property>
  <property name="meta.media.1.codec.long_name">PCM signed 16-bit little-endian</property>
  <property name="meta.media.1.codec.bit_rate">1536000</property>
  <property name="meta.attr.1.stream.HANDLER_NAME.markup">SoundHandler</property>
  <property name="meta.attr.1.stream.ENCODER.markup">Lavc58.91.100 pcm_s16le</property>
  <property name="meta.attr.1.stream.DURATION.markup">00:01:23.562000000</property>
  <property name="meta.attr.COMPATIBLE_BRANDS.markup">isomiso2avc1mp41</property>
  <property name="meta.attr.MAJOR_BRAND.markup">isom</property>
  <property name="meta.attr.MINOR_VERSION.markup">512</property>
  <property name="meta.attr.ENCODER.markup">Lavf58.45.100</property>
  <property name="meta.media.sample_aspect_num">1</property>
  <property name="meta.media.sample_aspect_den">1</property>
  <property name="meta.media.frame_rate_num">30000</property>
  <property name="meta.media.frame_rate_den">1001</property>
  <property name="meta.media.colorspace">601</property>
  <property name="meta.media.color_trc">2</property>
  <property name="meta.media.width">960</property>
  <property name="meta.media.height">540</property>
  <property name="meta.media.color_range">full</property>
  <property name="meta.media.top_field_first">0</property>
  <property name="meta.media.progressive">1</property>
  <property name="set.test_audio">1</property>
  <property name="set.test_image">1</property>
 </producer>
 <producer id="producer260" in="00:00:00.000" out="00:01:48.700">
  <property name="length">3262</property>
  <property name="eof">pause</property>
  <property name="resource">/home/ryankelln/.cache/kdenlive/proxy/2fc7ab3ea57f441ef5b5135081c42383.mkv</property>
  <property name="audio_index">1</property>
  <property name="video_index">0</property>
  <property name="mute_on_pause">0</property>
  <property name="mlt_service">avformat-novalidate</property>
  <property name="seekable">1</property>
  <property name="aspect_ratio">1</property>
  <property name="kdenlive:clipname">2021-06-02_Caleb_electric+4k_mac_P1000550-take3_ending.MP4</property>
  <property name="kdenlive:folderid">65</property>
  <property name="kdenlive:id">47</property>
  <property name="kdenlive:file_size">1304588902</property>
  <property name="kdenlive:file_hash">2fc7ab3ea57f441ef5b5135081c42383</property>
  <property name="kdenlive:proxy">/home/ryankelln/.cache/kdenlive/proxy/2fc7ab3ea57f441ef5b5135081c42383.mkv</property>
  <property name="kdenlive:originalurl">content/musicians/2021-06-02_Caleb_electric+4k_mac_P1000550-take3_ending.MP4</property>
  <property name="kdenlive:original.mlt_type">producer</property>
  <property name="kdenlive:original.in">0</property>
  <property name="kdenlive:original.out">3261</property>
  <property name="kdenlive:original.length">3262</property>
  <property name="kdenlive:original.eof">pause</property>
  <property name="kdenlive:original.resource">content/musicians/2021-06-02_Caleb_electric+4k_mac_P1000550-take3_ending.MP4</property>
  <property name="kdenlive:original.meta.media.nb_streams">2</property>
  <property name="kdenlive:original.meta.media.0.stream.type">video</property>
  <property name="kdenlive:original.meta.media.0.stream.frame_rate">29.97</property>
  <property name="kdenlive:original.meta.media.0.stream.sample_aspect_ratio">1</property>
  <property name="kdenlive:original.meta.media.0.codec.width">3328</property>
  <property name="kdenlive:original.meta.media.0.codec.height">2496</property>
  <property name="kdenlive:original.meta.media.0.codec.rotate">0</property>
  <property name="kdenlive:original.meta.media.0.codec.frame_rate">29.97</property>
  <property name="kdenlive:original.meta.media.0.codec.pix_fmt">yuvj420p</property>
  <property name="kdenlive:original.meta.media.0.codec.sample_aspect_ratio">1</property>
  <property name="kdenlive:original.meta.media.0.codec.colorspace">709</property>
  <property name="kdenlive:original.meta.media.0.codec.color_trc">1</property>
  <property name="kdenlive:original.meta.media.0.codec.name">h264</property>
  <property name="kdenlive:original.meta.media.0.codec.long_name">H.264 / AVC / MPEG-4 AVC / MPEG-4 part 10</property>
  <property name="kdenlive:original.meta.media.0.codec.bit_rate">95842876</property>
  <property name="kdenlive:original.meta.attr.0.stream.creation_time.markup">2021-06-02T15:49:01.000000Z</property>
  <property name="kdenlive:original.meta.attr.0.stream.handler_name.markup">VideoHandler</property>
  <property name="kdenlive:original.meta.media.1.stream.type">audio</property>
  <property name="kdenlive:original.meta.media.1.codec.sample_fmt">fltp</property>
  <property name="kdenlive:original.meta.media.1.codec.sample_rate">48000</property>
  <property name="kdenlive:original.meta.media.1.codec.channels">2</property>
  <property name="kdenlive:original.meta.media.1.codec.name">aac</property>
  <property name="kdenlive:original.meta.media.1.codec.long_name">AAC (Advanced Audio Coding)</property>
  <property name="kdenlive:original.meta.media.1.codec.bit_rate">125375</property>
  <property name="kdenlive:original.meta.attr.1.stream.creation_time.markup">2021-06-02T15:49:01.000000Z</property>
  <property name="kdenlive:original.meta.attr.1.stream.handler_name.markup">SoundHandler</property>
  <property name="kdenlive:original.meta.attr.major_brand.markup">isom</property>
  <property name="kdenlive:original.meta.attr.minor_version.markup">512</property>
  <property name="kdenlive:original.meta.attr.compatible_brands.markup">isomiso2avc1mp41</property>
  <property name="kdenlive:original.meta.attr.creation_time.markup">2021-06-02T15:49:01.000000Z</property>
  <property name="kdenlive:original.meta.attr.encoder.markup">Lavf58.45.100</property>
  <property name="kdenlive:original.seekable">1</property>
  <property name="kdenlive:original.width">3328</property>
  <property name="kdenlive:original.height">2496</property>
  <property name="kdenlive:original.meta.media.sample_aspect_num">1</property>
  <property name="kdenlive:original.meta.media.sample_aspect_den">1</property>
  <property name="kdenlive:original.aspect_ratio">1</property>
  <property name="kdenlive:original.audio_index">1</property>
  <property name="kdenlive:original.video_index">0</property>
  <property name="kdenlive:original.mute_on_pause">0</property>
  <property name="kdenlive:original.mlt_service">avformat-novalidate</property>
  <property name="kdenlive:original.kdenlive:folderid">65</property>
  <property name="kdenlive:original.meta.media.frame_rate_num">30000</property>
  <property name="kdenlive:original.meta.media.frame_rate_den">1001</property>
  <property name="kdenlive:original.meta.media.colorspace">709</property>
  <property name="kdenlive:original.meta.media.color_trc">1</property>
  <property name="kdenlive:original.meta.media.width">3328</property>
  <property name="kdenlive:original.meta.media.height">2496</property>
  <property name="kdenlive:original.meta.media.color_range">full</property>
  <property name="kdenlive:original.kdenlive:id">81</property>
  <property name="kdenlive:original.kdenlive:file_size">1304588902</property>
  <property name="kdenlive:original.kdenlive:file_hash">2fc7ab3ea57f441ef5b5135081c42383</property>
  <property name="kdenlive:original.backup">1</property>
  <property name="kdenlive:audio_max">1</property>
  <property name="global_feed">1</property>
  <property name="xml">was here</property>
  <property name="meta.media.nb_streams">2</property>
  <property name="meta.media.0.stream.type">video</property>
  <property name="meta.media.0.stream.frame_rate">29.97</property>
  <property name="meta.media.0.stream.sample_aspect_ratio">1</property>
  <property name="meta.media.0.codec.width">960</property>
  <property name="meta.media.0.codec.height">720</property>
  <property name="meta.media.0.codec.rotate">0</property>
  <property name="meta.media.0.codec.frame_rate">1000</property>
  <property name="meta.media.0.codec.pix_fmt">yuvj420p</property>
  <property name="meta.media.0.codec.sample_aspect_ratio">1</property>
  <property name="meta.media.0.codec.colorspace">601</property>
  <property name="meta.media.0.codec.name">mjpeg</property>
  <property name="meta.media.0.codec.long_name">MJPEG (Motion JPEG)</property>
  <property name="meta.media.0.codec.bit_rate">0</property>
  <property name="meta.attr.0.stream.HANDLER_NAME.markup">VideoHandler</property>
  <property name="meta.attr.0.stream.ENCODER.markup">Lavc58.91.100 mjpeg</property>
  <property name="meta.attr.0.stream.DURATION.markup">00:01:48.842000000</property>
  <property name="meta.media.1.stream.type">audio</property>
  <property name="meta.media.1.codec.sample_fmt">s16</property>
  <property name="meta.media.1.codec.sample_rate">48000</property>
  <property name="meta.media.1.codec.channels">2</property>
  <property name="meta.media.1.codec.name">pcm_s16le</property>
  <property name="meta.media.1.codec.long_name">PCM signed 16-bit little-endian</property>
  <property name="meta.media.1.codec.bit_rate">1536000</property>
  <property name="meta.attr.1.stream.HANDLER_NAME.markup">SoundHandler</property>
  <property name="meta.attr.1.stream.ENCODER.markup">Lavc58.91.100 pcm_s16le</property>
  <property name="meta.attr.1.stream.DURATION.markup">00:01:48.736000000</property>
  <property name="meta.attr.COMPATIBLE_BRANDS.markup">isomiso2avc1mp41</property>
  <property name="meta.attr.MAJOR_BRAND.markup">isom</property>
  <property name="meta.attr.MINOR_VERSION.markup">512</property>
  <property name="meta.attr.ENCODER.markup">Lavf58.45.100</property>
  <property name="meta.media.sample_aspect_num">1</property>
  <property name="meta.media.sample_aspect_den">1</property>
  <property name="meta.media.frame_rate_num">30000</property>
  <property name="meta.media.frame_rate_den">1001</property>
  <property name="meta.media.colorspace">601</property>
  <property name="meta.media.color_trc">2</property>
  <property name="meta.media.width">960</property>
  <property name="meta.media.height">720</property>
  <property name="meta.media.color_range">full</property>
  <property name="meta.media.top_field_first">0</property>
  <property name="meta.media.progressive">1</property>
  <property name="set.test_audio">1</property>
  <property name="set.test_image">0</property>
 </producer>
 <producer id="producer261" in="00:00:00.000" out="00:01:53.700">
  <property name="length">3412</property>
  <property name="eof">pause</property>
  <property name="resource">/home/ryankelln/.cache/kdenlive/proxy/905fd94a7f56fbf51e718f81c28eb554.mkv</property>
  <property name="audio_index">1</property>
  <property name="video_index">0</property>
  <property name="mute_on_pause">0</property>
  <property name="mlt_service">avformat-novalidate</property>
  <property name="seekable">1</property>
  <property name="aspect_ratio">1</property>
  <property name="kdenlive:clipname">2021-02-06_Chris_synth+4k_mac_P1180160-take3_ending.MP4</property>
  <property name="kdenlive:folderid">65</property>
  <property name="kdenlive:id">44</property>
  <property name="kdenlive:file_size">1364659209</property>
  <property name="kdenlive:file_hash">905fd94a7f56fbf51e718f81c28eb554</property>
  <property name="kdenlive:audio_max">1</property>
  <property name="kdenlive:proxy">/home/ryankelln/.cache/kdenlive/proxy/905fd94a7f56fbf51e718f81c28eb554.mkv</property>
  <property name="kdenlive:originalurl">content/musicians/2021-02-06_Chris_synth+4k_mac_P1180160-take3_ending.MP4</property>
  <property name="kdenlive:original.mlt_type">producer</property>
  <property name="kdenlive:original.in">00:00:00.000</property>
  <property name="kdenlive:original.out">00:01:53.700</property>
  <property name="kdenlive:original.length">3412</property>
  <property name="kdenlive:original.eof">pause</property>
  <property name="kdenlive:original.resource">content/musicians/2021-02-06_Chris_synth+4k_mac_P1180160-take3_ending.MP4</property>
  <property name="kdenlive:original.meta.media.nb_streams">2</property>
  <property name="kdenlive:original.meta.media.0.stream.type">video</property>
  <property name="kdenlive:original.meta.media.0.stream.frame_rate">29.97</property>
  <property name="kdenlive:original.meta.media.0.stream.sample_aspect_ratio">1</property>
  <property name="kdenlive:original.meta.media.0.codec.width">3840</property>
  <property name="kdenlive:original.meta.media.0.codec.height">2160</property>
  <property name="kdenlive:original.meta.media.0.codec.rotate">0</property>
  <property name="kdenlive:original.meta.media.0.codec.frame_rate">29.97</property>
  <property name="kdenlive:original.meta.media.0.codec.pix_fmt">yuvj420p</property>
  <property name="kdenlive:original.meta.media.0.codec.sample_aspect_ratio">1</property>
  <property name="kdenlive:original.meta.media.0.codec.colorspace">709</property>
  <property name="kdenlive:original.meta.media.0.codec.color_trc">1</property>
  <property name="kdenlive:original.meta.media.0.codec.name">h264</property>
  <property name="kdenlive:original.meta.media.0.codec.long_name">H.264 / AVC / MPEG-4 AVC / MPEG-4 part 10</property>
  <property name="kdenlive:original.meta.media.0.codec.bit_rate">95929063</property>
  <property name="kdenlive:original.meta.attr.0.stream.creation_time.markup">2021-06-02T15:49:21.000000Z</property>
  <property name="kdenlive:original.meta.attr.0.stream.handler_name.markup">VideoHandler</property>
  <property name="kdenlive:original.meta.media.1.stream.type">audio</property>
  <property name="kdenlive:original.meta.media.1.codec.sample_fmt">fltp</property>
  <property name="kdenlive:original.meta.media.1.codec.sample_rate">48000</property>
  <property name="kdenlive:original.meta.media.1.codec.channels">2</property>
  <property name="kdenlive:original.meta.media.1.codec.name">aac</property>
  <property name="kdenlive:original.meta.media.1.codec.long_name">AAC (Advanced Audio Coding)</property>
  <property name="kdenlive:original.meta.media.1.codec.bit_rate">125374</property>
  <property name="kdenlive:original.meta.attr.1.stream.creation_time.markup">2021-06-02T15:49:21.000000Z</property>
  <property name="kdenlive:original.meta.attr.1.stream.handler_name.markup">SoundHandler</property>
  <property name="kdenlive:original.meta.attr.major_brand.markup">isom</property>
  <property name="kdenlive:original.meta.attr.minor_version.markup">512</property>
  <property name="kdenlive:original.meta.attr.compatible_brands.markup">isomiso2avc1mp41</property>
  <property name="kdenlive:original.meta.attr.creation_time.markup">2021-06-02T15:49:21.000000Z</property>
  <property name="kdenlive:original.meta.attr.encoder.markup">Lavf58.45.100</property>
  <property name="kdenlive:original.seekable">1</property>
  <property name="kdenlive:original.width">3840</property>
  <property name="kdenlive:original.height">2160</property>
  <property name="kdenlive:original.meta.media.sample_aspect_num">1</property>
  <property name="kdenlive:original.meta.media.sample_aspect_den">1</property>
  <property name="kdenlive:original.aspect_ratio">1</property>
  <property name="kdenlive:original.audio_index">1</property>
  <property name="kdenlive:original.video_index">0</property>
  <property name="kdenlive:original.mute_on_pause">0</property>
  <property name="kdenlive:original.mlt_service">avformat-novalidate</property>
  <property name="kdenlive:original.kdenlive:folderid">65</property>
  <property name="kdenlive:original.meta.media.frame_rate_num">30000</property>
  <property name="kdenlive:original.meta.media.frame_rate_den">1001</property>
  <property name="kdenlive:original.meta.media.colorspace">709</property>
  <property name="kdenlive:original.meta.media.color_trc">1</property>
  <property name="kdenlive:original.meta.media.width">3840</property>
  <property name="kdenlive:original.meta.media.height">2160</property>
  <property name="kdenlive:original.meta.media.color_range">full</property>
  <property name="kdenlive:original.kdenlive:id">82</property>
  <property name="kdenlive:original.kdenlive:file_size">1364659209</property>
  <property name="kdenlive:original.kdenlive:file_hash">905fd94a7f56fbf51e718f81c28eb554</property>
  <property name="kdenlive:original.meta.media.top_field_first">0</property>
  <property name="kdenlive:original.meta.media.progressive">1</property>
  <property name="kdenlive:original.kdenlive:audio_max">1</property>
  <property name="kdenlive:original.backup">1</property>
  <property name="global_feed">1</property>
  <property name="xml">was here</property>
  <property name="meta.media.nb_streams">2</property>
  <property name="meta.media.0.stream.type">video</property>
  <property name="meta.media.0.stream.frame_rate">29.97</property>
  <property name="meta.media.0.stream.sample_aspect_ratio">1</property>
  <property name="meta.media.0.codec.width">960</property>
  <property name="meta.media.0.codec.height">540</property>
  <property name="meta.media.0.codec.rotate">0</property>
  <property name="meta.media.0.codec.frame_rate">1000</property>
  <property name="meta.media.0.codec.pix_fmt">yuvj420p</property>
  <property name="meta.media.0.codec.sample_aspect_ratio">1</property>
  <property name="meta.media.0.codec.colorspace">601</property>
  <property name="meta.media.0.codec.name">mjpeg</property>
  <property name="meta.media.0.codec.long_name">MJPEG (Motion JPEG)</property>
  <property name="meta.media.0.codec.bit_rate">0</property>
  <property name="meta.attr.0.stream.HANDLER_NAME.markup">VideoHandler</property>
  <property name="meta.attr.0.stream.ENCODER.markup">Lavc58.91.100 mjpeg</property>
  <property name="meta.attr.0.stream.DURATION.markup">00:01:53.747000000</property>
  <property name="meta.media.1.stream.type">audio</property>
  <property name="meta.media.1.codec.sample_fmt">s16</property>
  <property name="meta.media.1.codec.sample_rate">48000</property>
  <property name="meta.media.1.codec.channels">2</property>
  <property name="meta.media.1.codec.name">pcm_s16le</property>
  <property name="meta.media.1.codec.long_name">PCM signed 16-bit little-endian</property>
  <property name="meta.media.1.codec.bit_rate">1536000</property>
  <property name="meta.attr.1.stream.HANDLER_NAME.markup">SoundHandler</property>
  <property name="meta.attr.1.stream.ENCODER.markup">Lavc58.91.100 pcm_s16le</property>
  <property name="meta.attr.1.stream.DURATION.markup">00:01:53.728000000</property>
  <property name="meta.attr.COMPATIBLE_BRANDS.markup">isomiso2avc1mp41</property>
  <property name="meta.attr.MAJOR_BRAND.markup">isom</property>
  <property name="meta.attr.MINOR_VERSION.markup">512</property>
  <property name="meta.attr.ENCODER.markup">Lavf58.45.100</property>
  <property name="meta.media.sample_aspect_num">1</property>
  <property name="meta.media.sample_aspect_den">1</property>
  <property name="meta.media.frame_rate_num">30000</property>
  <property name="meta.media.frame_rate_den">1001</property>
  <property name="meta.media.colorspace">601</property>
  <property name="meta.media.color_trc">2</property>
  <property name="meta.media.width">960</property>
  <property name="meta.media.height">540</property>
  <property name="meta.media.color_range">full</property>
  <property name="meta.media.top_field_first">0</property>
  <property name="meta.media.progressive">1</property>
  <property name="set.test_audio">1</property>
  <property name="set.test_image">0</property>
 </producer>
 <producer id="producer262" in="00:00:00.000" out="00:01:53.700">
  <property name="length">3412</property>
  <property name="eof">pause</property>
  <property name="resource">/home/ryankelln/.cache/kdenlive/proxy/905fd94a7f56fbf51e718f81c28eb554.mkv</property>
  <property name="audio_index">1</property>
  <property name="video_index">0</property>
  <property name="mute_on_pause">0</property>
  <property name="mlt_service">avformat-novalidate</property>
  <property name="seekable">1</property>
  <property name="aspect_ratio">1</property>
  <property name="kdenlive:clipname">2021-02-06_Chris_synth+4k_mac_P1180160-take3_ending.MP4</property>
  <property name="kdenlive:folderid">65</property>
  <property name="kdenlive:id">44</property>
  <property name="kdenlive:file_size">1364659209</property>
  <property name="kdenlive:file_hash">905fd94a7f56fbf51e718f81c28eb554</property>
  <property name="kdenlive:audio_max">1</property>
  <property name="kdenlive:proxy">/home/ryankelln/.cache/kdenlive/proxy/905fd94a7f56fbf51e718f81c28eb554.mkv</property>
  <property name="kdenlive:originalurl">content/musicians/2021-02-06_Chris_synth+4k_mac_P1180160-take3_ending.MP4</property>
  <property name="kdenlive:original.mlt_type">producer</property>
  <property name="kdenlive:original.in">00:00:00.000</property>
  <property name="kdenlive:original.out">00:01:53.700</property>
  <property name="kdenlive:original.length">3412</property>
  <property name="kdenlive:original.eof">pause</property>
  <property name="kdenlive:original.resource">content/musicians/2021-02-06_Chris_synth+4k_mac_P1180160-take3_ending.MP4</property>
  <property name="kdenlive:original.meta.media.nb_streams">2</property>
  <property name="kdenlive:original.meta.media.0.stream.type">video</property>
  <property name="kdenlive:original.meta.media.0.stream.frame_rate">29.97</property>
  <property name="kdenlive:original.meta.media.0.stream.sample_aspect_ratio">1</property>
  <property name="kdenlive:original.meta.media.0.codec.width">3840</property>
  <property name="kdenlive:original.meta.media.0.codec.height">2160</property>
  <property name="kdenlive:original.meta.media.0.codec.rotate">0</property>
  <property name="kdenlive:original.meta.media.0.codec.frame_rate">29.97</property>
  <property name="kdenlive:original.meta.media.0.codec.pix_fmt">yuvj420p</property>
  <property name="kdenlive:original.meta.media.0.codec.sample_aspect_ratio">1</property>
  <property name="kdenlive:original.meta.media.0.codec.colorspace">709</property>
  <property name="kdenlive:original.meta.media.0.codec.color_trc">1</property>
  <property name="kdenlive:original.meta.media.0.codec.name">h264</property>
  <property name="kdenlive:original.meta.media.0.codec.long_name">H.264 / AVC / MPEG-4 AVC / MPEG-4 part 10</property>
  <property name="kdenlive:original.meta.media.0.codec.bit_rate">95929063</property>
  <property name="kdenlive:original.meta.attr.0.stream.creation_time.markup">2021-06-02T15:49:21.000000Z</property>
  <property name="kdenlive:original.meta.attr.0.stream.handler_name.markup">VideoHandler</property>
  <property name="kdenlive:original.meta.media.1.stream.type">audio</property>
  <property name="kdenlive:original.meta.media.1.codec.sample_fmt">fltp</property>
  <property name="kdenlive:original.meta.media.1.codec.sample_rate">48000</property>
  <property name="kdenlive:original.meta.media.1.codec.channels">2</property>
  <property name="kdenlive:original.meta.media.1.codec.name">aac</property>
  <property name="kdenlive:original.meta.media.1.codec.long_name">AAC (Advanced Audio Coding)</property>
  <property name="kdenlive:original.meta.media.1.codec.bit_rate">125374</property>
  <property name="kdenlive:original.meta.attr.1.stream.creation_time.markup">2021-06-02T15:49:21.000000Z</property>
  <property name="kdenlive:original.meta.attr.1.stream.handler_name.markup">SoundHandler</property>
  <property name="kdenlive:original.meta.attr.major_brand.markup">isom</property>
  <property name="kdenlive:original.meta.attr.minor_version.markup">512</property>
  <property name="kdenlive:original.meta.attr.compatible_brands.markup">isomiso2avc1mp41</property>
  <property name="kdenlive:original.meta.attr.creation_time.markup">2021-06-02T15:49:21.000000Z</property>
  <property name="kdenlive:original.meta.attr.encoder.markup">Lavf58.45.100</property>
  <property name="kdenlive:original.seekable">1</property>
  <property name="kdenlive:original.width">3840</property>
  <property name="kdenlive:original.height">2160</property>
  <property name="kdenlive:original.meta.media.sample_aspect_num">1</property>
  <property name="kdenlive:original.meta.media.sample_aspect_den">1</property>
  <property name="kdenlive:original.aspect_ratio">1</property>
  <property name="kdenlive:original.audio_index">1</property>
  <property name="kdenlive:original.video_index">0</property>
  <property name="kdenlive:original.mute_on_pause">0</property>
  <property name="kdenlive:original.mlt_service">avformat-novalidate</property>
  <property name="kdenlive:original.kdenlive:folderid">65</property>
  <property name="kdenlive:original.meta.media.frame_rate_num">30000</property>
  <property name="kdenlive:original.meta.media.frame_rate_den">1001</property>
  <property name="kdenlive:original.meta.media.colorspace">709</property>
  <property name="kdenlive:original.meta.media.color_trc">1</property>
  <property name="kdenlive:original.meta.media.width">3840</property>
  <property name="kdenlive:original.meta.media.height">2160</property>
  <property name="kdenlive:original.meta.media.color_range">full</property>
  <property name="kdenlive:original.kdenlive:id">82</property>
  <property name="kdenlive:original.kdenlive:file_size">1364659209</property>
  <property name="kdenlive:original.kdenlive:file_hash">905fd94a7f56fbf51e718f81c28eb554</property>
  <property name="kdenlive:original.meta.media.top_field_first">0</property>
  <property name="kdenlive:original.meta.media.progressive">1</property>
  <property name="kdenlive:original.kdenlive:audio_max">1</property>
  <property name="kdenlive:original.backup">1</property>
  <property name="global_feed">1</property>
  <property name="xml">was here</property>
  <property name="meta.media.nb_streams">2</property>
  <property name="meta.media.0.stream.type">video</property>
  <property name="meta.media.0.stream.frame_rate">29.97</property>
  <property name="meta.media.0.stream.sample_aspect_ratio">1</property>
  <property name="meta.media.0.codec.width">960</property>
  <property name="meta.media.0.codec.height">540</property>
  <property name="meta.media.0.codec.rotate">0</property>
  <property name="meta.media.0.codec.frame_rate">1000</property>
  <property name="meta.media.0.codec.pix_fmt">yuvj420p</property>
  <property name="meta.media.0.codec.sample_aspect_ratio">1</property>
  <property name="meta.media.0.codec.colorspace">601</property>
  <property name="meta.media.0.codec.name">mjpeg</property>
  <property name="meta.media.0.codec.long_name">MJPEG (Motion JPEG)</property>
  <property name="meta.media.0.codec.bit_rate">0</property>
  <property name="meta.attr.0.stream.HANDLER_NAME.markup">VideoHandler</property>
  <property name="meta.attr.0.stream.ENCODER.markup">Lavc58.91.100 mjpeg</property>
  <property name="meta.attr.0.stream.DURATION.markup">00:01:53.747000000</property>
  <property name="meta.media.1.stream.type">audio</property>
  <property name="meta.media.1.codec.sample_fmt">s16</property>
  <property name="meta.media.1.codec.sample_rate">48000</property>
  <property name="meta.media.1.codec.channels">2</property>
  <property name="meta.media.1.codec.name">pcm_s16le</property>
  <property name="meta.media.1.codec.long_name">PCM signed 16-bit little-endian</property>
  <property name="meta.media.1.codec.bit_rate">1536000</property>
  <property name="meta.attr.1.stream.HANDLER_NAME.markup">SoundHandler</property>
  <property name="meta.attr.1.stream.ENCODER.markup">Lavc58.91.100 pcm_s16le</property>
  <property name="meta.attr.1.stream.DURATION.markup">00:01:53.728000000</property>
  <property name="meta.attr.COMPATIBLE_BRANDS.markup">isomiso2avc1mp41</property>
  <property name="meta.attr.MAJOR_BRAND.markup">isom</property>
  <property name="meta.attr.MINOR_VERSION.markup">512</property>
  <property name="meta.attr.ENCODER.markup">Lavf58.45.100</property>
  <property name="meta.media.sample_aspect_num">1</property>
  <property name="meta.media.sample_aspect_den">1</property>
  <property name="meta.media.frame_rate_num">30000</property>
  <property name="meta.media.frame_rate_den">1001</property>
  <property name="meta.media.colorspace">601</property>
  <property name="meta.media.color_trc">2</property>
  <property name="meta.media.width">960</property>
  <property name="meta.media.height">540</property>
  <property name="meta.media.color_range">full</property>
  <property name="meta.media.top_field_first">0</property>
  <property name="meta.media.progressive">1</property>
  <property name="set.test_audio">1</property>
  <property name="set.test_image">1</property>
 </producer>
 <playlist id="playlist24">
  <blank length="00:00:03.733"/>
  <entry producer="producer259" in="00:00:00.000" out="00:01:23.533">
   <property name="kdenlive:id">43</property>
  </entry>
  <blank length="00:03:46.900"/>
  <entry producer="producer260" in="00:00:00.000" out="00:00:17.033">
   <property name="kdenlive:id">47</property>
   <property name="kdenlive:activeeffect">3</property>
   <filter id="filter262">
    <property name="version">0.6</property>
    <property name="mlt_service">frei0r.select0r</property>
    <property name="kdenlive_id">frei0r.select0r</property>
    <property name="Color to select">0x448c3fff</property>
    <property name="Invert selection">1</property>
    <property name="Selection subspace">1</property>
    <property name="Subspace shape">0.5</property>
    <property name="Edge mode">0.9</property>
    <property name="Delta R / A / Hue">00:00:00.000=0.035</property>
    <property name="Delta G / B / Chroma">00:00:00.000=0.295</property>
    <property name="Delta B / I / I">00:00:00.000=0.405</property>
    <property name="Slope">00:00:00.000=0.092</property>
    <property name="Operation">0.5</property>
    <property name="kdenlive:collapsed">0</property>
   </filter>
   <filter id="filter263">
    <property name="mlt_service">avfilter.despill</property>
    <property name="kdenlive_id">avfilter.despill</property>
    <property name="av.type">green</property>
    <property name="av.mix">0.298</property>
    <property name="av.expand">0.037</property>
    <property name="av.red">0</property>
    <property name="av.green">-1</property>
    <property name="av.blue">0</property>
    <property name="av.brightness">0</property>
    <property name="kdenlive:collapsed">0</property>
    <property name="disable">0</property>
   </filter>
   <filter id="filter264">
    <property name="rotate_center">1</property>
    <property name="mlt_service">qtblend</property>
    <property name="kdenlive_id">qtblend</property>
    <property name="rect">00:00:00.000=-650 0 2112 1188 1.000000;00:00:17.033=-650 0 2112 1188 1.000000</property>
    <property name="rotation">00:00:00.000=0;00:00:17.033=0</property>
    <property name="compositing">0</property>
    <property name="distort">0</property>
    <property name="kdenlive:collapsed">0</property>
   </filter>
   <filter id="filter265" out="00:00:01.033">
    <property name="start">0</property>
    <property name="mlt_service">brightness</property>
    <property name="kdenlive_id">fade_from_black</property>
    <property name="end">1</property>
    <property name="alpha">-1</property>
    <property name="kdenlive:collapsed">0</property>
    <property name="disable">1</property>
   </filter>
   <filter id="filter266" in="00:00:16.800" out="00:00:17.033">
    <property name="start">1</property>
    <property name="mlt_service">brightness</property>
    <property name="kdenlive_id">fade_to_black</property>
    <property name="end">0</property>
    <property name="alpha">-1</property>
    <property name="kdenlive:collapsed">0</property>
   </filter>
  </entry>
  <blank length="00:00:03.000"/>
  <entry producer="producer261" in="00:00:20.900" out="00:01:09.533">
   <property name="kdenlive:id">44</property>
   <property name="kdenlive:activeeffect">6</property>
   <filter id="filter267">
    <property name="version">0.6</property>
    <property name="mlt_service">frei0r.select0r</property>
    <property name="kdenlive_id">frei0r.select0r</property>
    <property name="Color to select">0x517549ff</property>
    <property name="Invert selection">1</property>
    <property name="Selection subspace">1</property>
    <property name="Subspace shape">0.5</property>
    <property name="Edge mode">0.9</property>
    <property name="Delta R / A / Hue">00:00:20.900=0.078</property>
    <property name="Delta G / B / Chroma">00:00:20.900=0.148</property>
    <property name="Delta B / I / I">00:00:20.900=0.245</property>
    <property name="Slope">00:00:20.900=0.114</property>
    <property name="Operation">0.5</property>
    <property name="kdenlive:collapsed">0</property>
   </filter>
   <filter id="filter268">
    <property name="mlt_service">avfilter.despill</property>
    <property name="kdenlive_id">avfilter.despill</property>
    <property name="av.type">green</property>
    <property name="av.mix">0.155989</property>
    <property name="av.expand">0.068</property>
    <property name="av.red">0</property>
    <property name="av.green">-0.8</property>
    <property name="av.blue">0</property>
    <property name="av.brightness">0.3</property>
    <property name="kdenlive:collapsed">0</property>
   </filter>
   <filter id="filter269">
    <property name="mode">alpha</property>
    <property name="alpha_operation">max</property>
    <property name="invert">0</property>
    <property name="feather">7</property>
    <property name="feather_passes">1</property>
    <property name="mlt_service">rotoscoping</property>
    <property name="kdenlive_id">rotoscoping</property>
    <property name="spline">{
    "0627": [
        [
            [
                0.06142557651991614,
                0.40671641791044777
            ],
            [
                0.0639412997903564,
                0.3787313432835821
            ],
            [
                0.10020964360587001,
                0.3876865671641791
            ]
        ],
        [
            [
                0.20901467505241086,
                0.41455223880597014
            ],
            [
                0.24528301886792453,
                0.42350746268656714
            ],
            [
                0.2522012578616352,
                0.4231343283582089
            ]
        ],
        [
            [
                0.2729559748427673,
                0.42201492537313434
            ],
            [
                0.279874213836478,
                0.4216417910447761
            ],
            [
                0.3226415094339623,
                0.4835820895522388
            ]
        ],
        [
            [
                0.45094339622641505,
                0.6694029850746269
            ],
            [
                0.4937106918238994,
                0.7313432835820896
            ],
            [
                0.4949685534591195,
                0.7473880597014926
            ]
        ],
        [
            [
                0.4987421383647799,
                0.7955223880597015
            ],
            [
                0.5,
                0.8115671641791045
            ],
            [
                0.49580712788259956,
                0.8134328358208955
            ]
        ],
        [
            [
                0.4832285115303983,
                0.8190298507462686
            ],
            [
                0.47903563941299787,
                0.8208955223880596
            ],
            [
                0.510482180293501,
                0.8634328358208955
            ]
        ],
        [
            [
                0.6048218029350105,
                0.991044776119403
            ],
            [
                0.6362683438155137,
                1.033582089552239
            ],
            [
                0.6433962264150943,
                1.0298507462686568
            ]
        ],
        [
            [
                0.6647798742138364,
                1.0186567164179106
            ],
            [
                0.6719077568134171,
                1.0149253731343284
            ],
            [
                0.6727463312368972,
                0.9865671641791045
            ]
        ],
        [
            [
                0.6752620545073376,
                0.9014925373134328
            ],
            [
                0.6761006289308177,
                0.8731343283582089
            ],
            [
                0.6903563941299791,
                0.8671641791044776
            ]
        ],
        [
            [
                0.7331236897274633,
                0.8492537313432835
            ],
            [
                0.7473794549266247,
                0.8432835820895522
            ],
            [
                0.7545073375262054,
                0.8537313432835821
            ]
        ],
        [
            [
                0.7758909853249476,
                0.8850746268656716
            ],
            [
                0.7830188679245284,
                0.8955223880597015
            ],
            [
                0.7846960167714884,
                0.817910447761194
            ]
        ],
        [
            [
                0.789727463312369,
                0.5850746268656716
            ],
            [
                0.7914046121593291,
                0.5074626865671642
            ],
            [
                0.7947589098532494,
                0.47985074626865676
            ]
        ],
        [
            [
                0.7754716981132076,
                0.4100746268656716
            ],
            [
                0.778825995807128,
                0.3824626865671642
            ],
            [
                0.7922431865828092,
                0.33171641791044787
            ]
        ],
        [
            [
                0.9207547169811321,
                0.2555970149253731
            ],
            [
                0.940251572327044,
                0.2462686567164179
            ],
            [
                0.9568134171907757,
                0.24962686567164177
            ]
        ],
        [
            [
                0.9821802935010482,
                0.291044776119403
            ],
            [
                0.9884696016771488,
                0.3395522388059702
            ],
            [
                1.012788259958071,
                0.3492537313432836
            ]
        ],
        [
            [
                1.0857442348008384,
                0.3783582089552239
            ],
            [
                1.1100628930817609,
                0.3880597014925373
            ],
            [
                1.1163522012578615,
                0.5746268656716418
            ]
        ],
        [
            [
                1.1352201257861634,
                1.1343283582089552
            ],
            [
                1.141509433962264,
                1.3208955223880599
            ],
            [
                0.9914046121593291,
                1.3201492537313435
            ]
        ],
        [
            [
                0.541090146750524,
                1.317910447761194
            ],
            [
                0.3909853249475891,
                1.3171641791044777
            ],
            [
                0.3675052410901467,
                1.2276119402985075
            ]
        ],
        [
            [
                0.2970649895178197,
                0.958955223880597
            ],
            [
                0.27358490566037735,
                0.8694029850746269
            ],
            [
                0.25513626834381553,
                0.8694029850746269
            ]
        ],
        [
            [
                0.19979035639412995,
                0.8694029850746269
            ],
            [
                0.1813417190775681,
                0.8694029850746269
            ],
            [
                0.15534591194968553,
                0.7992537313432836
            ]
        ],
        [
            [
                0.07735849056603773,
                0.5888059701492537
            ],
            [
                0.05136268343815513,
                0.5186567164179104
            ],
            [
                0.05387840670859538,
                0.4906716417910447
            ]
        ]
    ],
    "1424": [
        [
            [
                0.06142557651991614,
                0.40671641791044777
            ],
            [
                0.0639412997903564,
                0.3787313432835821
            ],
            [
                0.10020964360587001,
                0.3876865671641791
            ]
        ],
        [
            [
                0.20901467505241086,
                0.41455223880597014
            ],
            [
                0.24528301886792453,
                0.42350746268656714
            ],
            [
                0.2522012578616352,
                0.4231343283582089
            ]
        ],
        [
            [
                0.2729559748427673,
                0.42201492537313434
            ],
            [
                0.279874213836478,
                0.4216417910447761
            ],
            [
                0.3226415094339623,
                0.4835820895522388
            ]
        ],
        [
            [
                0.45094339622641505,
                0.6694029850746269
            ],
            [
                0.4937106918238994,
                0.7313432835820896
            ],
            [
                0.4949685534591195,
                0.7473880597014926
            ]
        ],
        [
            [
                0.4987421383647799,
                0.7955223880597015
            ],
            [
                0.5,
                0.8115671641791045
            ],
            [
                0.49580712788259956,
                0.8134328358208955
            ]
        ],
        [
            [
                0.4832285115303983,
                0.8190298507462686
            ],
            [
                0.47903563941299787,
                0.8208955223880596
            ],
            [
                0.510482180293501,
                0.8634328358208955
            ]
        ],
        [
            [
                0.6048218029350105,
                0.991044776119403
            ],
            [
                0.6362683438155137,
                1.033582089552239
            ],
            [
                0.6433962264150943,
                1.0298507462686568
            ]
        ],
        [
            [
                0.6647798742138364,
                1.0186567164179106
            ],
            [
                0.6719077568134171,
                1.0149253731343284
            ],
            [
                0.6727463312368972,
                0.9865671641791045
            ]
        ],
        [
            [
                0.6752620545073376,
                0.9014925373134328
            ],
            [
                0.6761006289308177,
                0.8731343283582089
            ],
            [
                0.6903563941299791,
                0.8671641791044776
            ]
        ],
        [
            [
                0.7331236897274633,
                0.8492537313432835
            ],
            [
                0.7473794549266247,
                0.8432835820895522
            ],
            [
                0.7545073375262054,
                0.8537313432835821
            ]
        ],
        [
            [
                0.7758909853249476,
                0.8850746268656716
            ],
            [
                0.7830188679245284,
                0.8955223880597015
            ],
            [
                0.7846960167714884,
                0.817910447761194
            ]
        ],
        [
            [
                0.789727463312369,
                0.5850746268656716
            ],
            [
                0.7914046121593291,
                0.5074626865671642
            ],
            [
                0.7947589098532494,
                0.47985074626865676
            ]
        ],
        [
            [
                0.7754716981132076,
                0.4100746268656716
            ],
            [
                0.778825995807128,
                0.3824626865671642
            ],
            [
                0.7922431865828092,
                0.33171641791044787
            ]
        ],
        [
            [
                0.9207547169811321,
                0.2555970149253731
            ],
            [
                0.940251572327044,
                0.2462686567164179
            ],
            [
                0.9568134171907757,
                0.24962686567164177
            ]
        ],
        [
            [
                0.9821802935010482,
                0.291044776119403
            ],
            [
                0.9884696016771488,
                0.3395522388059702
            ],
            [
                1.012788259958071,
                0.3492537313432836
            ]
        ],
        [
            [
                1.0857442348008384,
                0.3783582089552239
            ],
            [
                1.1100628930817609,
                0.3880597014925373
            ],
            [
                1.1163522012578615,
                0.5746268656716418
            ]
        ],
        [
            [
                1.1352201257861634,
                1.1343283582089552
            ],
            [
                1.141509433962264,
                1.3208955223880599
            ],
            [
                0.9914046121593291,
                1.3201492537313435
            ]
        ],
        [
            [
                0.541090146750524,
                1.317910447761194
            ],
            [
                0.3909853249475891,
                1.3171641791044777
            ],
            [
                0.3675052410901467,
                1.2276119402985075
            ]
        ],
        [
            [
                0.2970649895178197,
                0.958955223880597
            ],
            [
                0.27358490566037735,
                0.8694029850746269
            ],
            [
                0.25513626834381553,
                0.8694029850746269
            ]
        ],
        [
            [
                0.19979035639412995,
                0.8694029850746269
            ],
            [
                0.1813417190775681,
                0.8694029850746269
            ],
            [
                0.15534591194968553,
                0.7992537313432836
            ]
        ],
        [
            [
                0.07735849056603773,
                0.5888059701492537
            ],
            [
                0.05136268343815513,
                0.5186567164179104
            ],
            [
                0.05387840670859538,
                0.4906716417910447
            ]
        ]
    ],
    "1447": [
        [
            [
                0.06142557651991614,
                0.40671641791044777
            ],
            [
                0.0639412997903564,
                0.3787313432835821
            ],
            [
                0.10020964360587001,
                0.3876865671641791
            ]
        ],
        [
            [
                0.20901467505241086,
                0.41455223880597014
            ],
            [
                0.24528301886792453,
                0.42350746268656714
            ],
            [
                0.2522012578616352,
                0.4231343283582089
            ]
        ],
        [
            [
                0.2729559748427673,
                0.42201492537313434
            ],
            [
                0.279874213836478,
                0.4216417910447761
            ],
            [
                0.3226415094339623,
                0.4835820895522388
            ]
        ],
        [
            [
                0.45094339622641505,
                0.6694029850746269
            ],
            [
                0.4937106918238994,
                0.7313432835820896
            ],
            [
                0.4949685534591195,
                0.7473880597014926
            ]
        ],
        [
            [
                0.4987421383647799,
                0.7955223880597015
            ],
            [
                0.5,
                0.8115671641791045
            ],
            [
                0.49580712788259956,
                0.8134328358208955
            ]
        ],
        [
            [
                0.4832285115303983,
                0.8190298507462686
            ],
            [
                0.47903563941299787,
                0.8208955223880596
            ],
            [
                0.510482180293501,
                0.8634328358208955
            ]
        ],
        [
            [
                0.6048218029350105,
                0.991044776119403
            ],
            [
                0.6362683438155137,
                1.033582089552239
            ],
            [
                0.6433962264150943,
                1.0298507462686568
            ]
        ],
        [
            [
                0.6647798742138364,
                1.0186567164179106
            ],
            [
                0.6719077568134171,
                1.0149253731343284
            ],
            [
                0.6727463312368972,
                0.9865671641791045
            ]
        ],
        [
            [
                0.6752620545073376,
                0.9014925373134328
            ],
            [
                0.6761006289308177,
                0.8731343283582089
            ],
            [
                0.6903563941299791,
                0.8671641791044776
            ]
        ],
        [
            [
                0.7331236897274633,
                0.8492537313432835
            ],
            [
                0.7473794549266247,
                0.8432835820895522
            ],
            [
                0.7545073375262054,
                0.8537313432835821
            ]
        ],
        [
            [
                0.7758909853249476,
                0.8850746268656716
            ],
            [
                0.7830188679245284,
                0.8955223880597015
            ],
            [
                0.7846960167714884,
                0.817910447761194
            ]
        ],
        [
            [
                0.8589098532494759,
                0.6559701492537313
            ],
            [
                0.860587002096436,
                0.5783582089552238
            ],
            [
                0.8639412997903564,
                0.5507462686567166
            ]
        ],
        [
            [
                0.8886792452830188,
                0.46791044776119395
            ],
            [
                0.8920335429769392,
                0.44029850746268656
            ],
            [
                0.9054507337526204,
                0.38955223880597034
            ]
        ],
        [
            [
                0.9417190775681341,
                0.31902985074626866
            ],
            [
                0.9612159329140461,
                0.30970149253731344
            ],
            [
                0.9777777777777777,
                0.3130597014925374
            ]
        ],
        [
            [
                1.0281573049953012,
                0.3096430075328686
            ],
            [
                1.0344466131714016,
                0.3581504702194357
            ],
            [
                1.058765271452324,
                0.36785196275674925
            ]
        ],
        [
            [
                1.0857442348008384,
                0.3783582089552239
            ],
            [
                1.1100628930817609,
                0.3880597014925373
            ],
            [
                1.1163522012578615,
                0.5746268656716418
            ]
        ],
        [
            [
                1.1352201257861634,
                1.1343283582089552
            ],
            [
                1.141509433962264,
                1.3208955223880599
            ],
            [
                0.9914046121593291,
                1.3201492537313435
            ]
        ],
        [
            [
                0.541090146750524,
                1.317910447761194
            ],
            [
                0.3909853249475891,
                1.3171641791044777
            ],
            [
                0.3675052410901467,
                1.2276119402985075
            ]
        ],
        [
            [
                0.2970649895178197,
                0.958955223880597
            ],
            [
                0.27358490566037735,
                0.8694029850746269
            ],
            [
                0.25513626834381553,
                0.8694029850746269
            ]
        ],
        [
            [
                0.19979035639412995,
                0.8694029850746269
            ],
            [
                0.1813417190775681,
                0.8694029850746269
            ],
            [
                0.15534591194968553,
                0.7992537313432836
            ]
        ],
        [
            [
                0.07735849056603773,
                0.5888059701492537
            ],
            [
                0.05136268343815513,
                0.5186567164179104
            ],
            [
                0.05387840670859538,
                0.4906716417910447
            ]
        ]
    ],
    "1536": [
        [
            [
                0.06142557651991614,
                0.40671641791044777
            ],
            [
                0.0639412997903564,
                0.3787313432835821
            ],
            [
                0.10020964360587001,
                0.3876865671641791
            ]
        ],
        [
            [
                0.20901467505241086,
                0.41455223880597014
            ],
            [
                0.24528301886792453,
                0.42350746268656714
            ],
            [
                0.2522012578616352,
                0.4231343283582089
            ]
        ],
        [
            [
                0.2729559748427673,
                0.42201492537313434
            ],
            [
                0.279874213836478,
                0.4216417910447761
            ],
            [
                0.3226415094339623,
                0.4835820895522388
            ]
        ],
        [
            [
                0.45094339622641505,
                0.6694029850746269
            ],
            [
                0.4937106918238994,
                0.7313432835820896
            ],
            [
                0.4949685534591195,
                0.7473880597014926
            ]
        ],
        [
            [
                0.4987421383647799,
                0.7955223880597015
            ],
            [
                0.5,
                0.8115671641791045
            ],
            [
                0.49580712788259956,
                0.8134328358208955
            ]
        ],
        [
            [
                0.4832285115303983,
                0.8190298507462686
            ],
            [
                0.47903563941299787,
                0.8208955223880596
            ],
            [
                0.510482180293501,
                0.8634328358208955
            ]
        ],
        [
            [
                0.6048218029350105,
                0.991044776119403
            ],
            [
                0.6362683438155137,
                1.033582089552239
            ],
            [
                0.6433962264150943,
                1.0298507462686568
            ]
        ],
        [
            [
                0.6647798742138364,
                1.0186567164179106
            ],
            [
                0.6719077568134171,
                1.0149253731343284
            ],
            [
                0.6727463312368972,
                0.9865671641791045
            ]
        ],
        [
            [
                0.6752620545073376,
                0.9014925373134328
            ],
            [
                0.6761006289308177,
                0.8731343283582089
            ],
            [
                0.6903563941299791,
                0.8671641791044776
            ]
        ],
        [
            [
                0.7331236897274633,
                0.8492537313432835
            ],
            [
                0.7473794549266247,
                0.8432835820895522
            ],
            [
                0.7545073375262054,
                0.8537313432835821
            ]
        ],
        [
            [
                0.7758909853249476,
                0.8850746268656716
            ],
            [
                0.7830188679245284,
                0.8955223880597015
            ],
            [
                0.7846960167714884,
                0.817910447761194
            ]
        ],
        [
            [
                0.8547169811320755,
                0.6373134328358204
            ],
            [
                0.8563941299790356,
                0.5597014925373135
            ],
            [
                0.859748427672956,
                0.5320895522388056
            ]
        ],
        [
            [
                0.8844863731656184,
                0.4529850746268656
            ],
            [
                0.8878406708595388,
                0.4253731343283582
            ],
            [
                0.90125786163522,
                0.37462686567164194
            ]
        ],
        [
            [
                0.9358516936302624,
                0.30127663568947716
            ],
            [
                0.9553485489761744,
                0.29194827748052193
            ],
            [
                0.9719103938399061,
                0.29530648643574586
            ]
        ],
        [
            [
                1.0152895250487963,
                0.30443784213727604
            ],
            [
                1.021578833224897,
                0.3529453048238432
            ],
            [
                1.0458974915058192,
                0.3626467973611567
            ]
        ],
        [
            [
                1.0857442348008384,
                0.3783582089552239
            ],
            [
                1.1100628930817609,
                0.3880597014925373
            ],
            [
                1.1163522012578615,
                0.5746268656716418
            ]
        ],
        [
            [
                1.1352201257861634,
                1.1343283582089552
            ],
            [
                1.141509433962264,
                1.3208955223880599
            ],
            [
                0.9914046121593291,
                1.3201492537313435
            ]
        ],
        [
            [
                0.541090146750524,
                1.317910447761194
            ],
            [
                0.3909853249475891,
                1.3171641791044777
            ],
            [
                0.3675052410901467,
                1.2276119402985075
            ]
        ],
        [
            [
                0.2970649895178197,
                0.958955223880597
            ],
            [
                0.27358490566037735,
                0.8694029850746269
            ],
            [
                0.25513626834381553,
                0.8694029850746269
            ]
        ],
        [
            [
                0.19979035639412995,
                0.8694029850746269
            ],
            [
                0.1813417190775681,
                0.8694029850746269
            ],
            [
                0.15534591194968553,
                0.7992537313432836
            ]
        ],
        [
            [
                0.07735849056603773,
                0.5888059701492537
            ],
            [
                0.05136268343815513,
                0.5186567164179104
            ],
            [
                0.05387840670859538,
                0.4906716417910447
            ]
        ]
    ],
    "1579": [
        [
            [
                0.06142557651991614,
                0.40671641791044777
            ],
            [
                0.0639412997903564,
                0.3787313432835821
            ],
            [
                0.10020964360587001,
                0.3876865671641791
            ]
        ],
        [
            [
                0.20901467505241086,
                0.41455223880597014
            ],
            [
                0.24528301886792453,
                0.42350746268656714
            ],
            [
                0.2522012578616352,
                0.4231343283582089
            ]
        ],
        [
            [
                0.2729559748427673,
                0.42201492537313434
            ],
            [
                0.279874213836478,
                0.4216417910447761
            ],
            [
                0.3226415094339623,
                0.4835820895522388
            ]
        ],
        [
            [
                0.45094339622641505,
                0.6694029850746269
            ],
            [
                0.4937106918238994,
                0.7313432835820896
            ],
            [
                0.4949685534591195,
                0.7473880597014926
            ]
        ],
        [
            [
                0.4987421383647799,
                0.7955223880597015
            ],
            [
                0.5,
                0.8115671641791045
            ],
            [
                0.49580712788259956,
                0.8134328358208955
            ]
        ],
        [
            [
                0.4832285115303983,
                0.8190298507462686
            ],
            [
                0.47903563941299787,
                0.8208955223880596
            ],
            [
                0.510482180293501,
                0.8634328358208955
            ]
        ],
        [
            [
                0.6048218029350105,
                0.991044776119403
            ],
            [
                0.6362683438155137,
                1.033582089552239
            ],
            [
                0.6433962264150943,
                1.0298507462686568
            ]
        ],
        [
            [
                0.6647798742138364,
                1.0186567164179106
            ],
            [
                0.6719077568134171,
                1.0149253731343284
            ],
            [
                0.6727463312368972,
                0.9865671641791045
            ]
        ],
        [
            [
                0.6752620545073376,
                0.9014925373134328
            ],
            [
                0.6761006289308177,
                0.8731343283582089
            ],
            [
                0.6903563941299791,
                0.8671641791044776
            ]
        ],
        [
            [
                0.7331236897274633,
                0.8492537313432835
            ],
            [
                0.7473794549266247,
                0.8432835820895522
            ],
            [
                0.7545073375262054,
                0.8537313432835821
            ]
        ],
        [
            [
                0.7758909853249476,
                0.8850746268656716
            ],
            [
                0.7830188679245284,
                0.8955223880597015
            ],
            [
                0.7846960167714884,
                0.817910447761194
            ]
        ],
        [
            [
                0.8589098532494759,
                0.6373134328358201
            ],
            [
                0.860587002096436,
                0.5597014925373135
            ],
            [
                0.8639412997903564,
                0.5320895522388053
            ]
        ],
        [
            [
                0.880293501048218,
                0.45671641791044765
            ],
            [
                0.8836477987421384,
                0.4291044776119403
            ],
            [
                0.8970649895178197,
                0.37835820895522404
            ]
        ],
        [
            [
                0.9322851153039832,
                0.332089552238806
            ],
            [
                0.9517819706498951,
                0.32276119402985076
            ],
            [
                0.9683438155136268,
                0.3261194029850747
            ]
        ],
        [
            [
                1.0090725077712714,
                0.301922986946147
            ],
            [
                1.015361815947372,
                0.3504304496327142
            ],
            [
                1.0396804742282943,
                0.3601319421700277
            ]
        ],
        [
            [
                1.0857442348008384,
                0.3783582089552239
            ],
            [
                1.1100628930817609,
                0.3880597014925373
            ],
            [
                1.1163522012578615,
                0.5746268656716418
            ]
        ],
        [
            [
                1.1352201257861634,
                1.1343283582089552
            ],
            [
                1.141509433962264,
                1.3208955223880599
            ],
            [
                0.9914046121593291,
                1.3201492537313435
            ]
        ],
        [
            [
                0.541090146750524,
                1.317910447761194
            ],
            [
                0.3909853249475891,
                1.3171641791044777
            ],
            [
                0.3675052410901467,
                1.2276119402985075
            ]
        ],
        [
            [
                0.2970649895178197,
                0.958955223880597
            ],
            [
                0.27358490566037735,
                0.8694029850746269
            ],
            [
                0.25513626834381553,
                0.8694029850746269
            ]
        ],
        [
            [
                0.19979035639412995,
                0.8694029850746269
            ],
            [
                0.1813417190775681,
                0.8694029850746269
            ],
            [
                0.15534591194968553,
                0.7992537313432836
            ]
        ],
        [
            [
                0.07735849056603773,
                0.5888059701492537
            ],
            [
                0.05136268343815513,
                0.5186567164179104
            ],
            [
                0.05387840670859538,
                0.4906716417910447
            ]
        ]
    ],
    "1598": [
        [
            [
                0.06142557651991614,
                0.40671641791044777
            ],
            [
                0.0639412997903564,
                0.3787313432835821
            ],
            [
                0.10020964360587001,
                0.3876865671641791
            ]
        ],
        [
            [
                0.20901467505241086,
                0.41455223880597014
            ],
            [
                0.24528301886792453,
                0.42350746268656714
            ],
            [
                0.2522012578616352,
                0.4231343283582089
            ]
        ],
        [
            [
                0.2729559748427673,
                0.42201492537313434
            ],
            [
                0.279874213836478,
                0.4216417910447761
            ],
            [
                0.3226415094339623,
                0.4835820895522388
            ]
        ],
        [
            [
                0.45094339622641505,
                0.6694029850746269
            ],
            [
                0.4937106918238994,
                0.7313432835820896
            ],
            [
                0.4949685534591195,
                0.7473880597014926
            ]
        ],
        [
            [
                0.4987421383647799,
                0.7955223880597015
            ],
            [
                0.5,
                0.8115671641791045
            ],
            [
                0.49580712788259956,
                0.8134328358208955
            ]
        ],
        [
            [
                0.4832285115303983,
                0.8190298507462686
            ],
            [
                0.47903563941299787,
                0.8208955223880596
            ],
            [
                0.510482180293501,
                0.8634328358208955
            ]
        ],
        [
            [
                0.6048218029350105,
                0.991044776119403
            ],
            [
                0.6362683438155137,
                1.033582089552239
            ],
            [
                0.6433962264150943,
                1.0298507462686568
            ]
        ],
        [
            [
                0.6647798742138364,
                1.0186567164179106
            ],
            [
                0.6719077568134171,
                1.0149253731343284
            ],
            [
                0.6727463312368972,
                0.9865671641791045
            ]
        ],
        [
            [
                0.6752620545073376,
                0.9014925373134328
            ],
            [
                0.6761006289308177,
                0.8731343283582089
            ],
            [
                0.6903563941299791,
                0.8671641791044776
            ]
        ],
        [
            [
                0.7331236897274633,
                0.8492537313432835
            ],
            [
                0.7473794549266247,
                0.8432835820895522
            ],
            [
                0.7545073375262054,
                0.8537313432835821
            ]
        ],
        [
            [
                0.7758909853249476,
                0.8850746268656716
            ],
            [
                0.7830188679245284,
                0.8955223880597015
            ],
            [
                0.7846960167714884,
                0.817910447761194
            ]
        ],
        [
            [
                0.8417190775681341,
                0.6324626865671646
            ],
            [
                0.8637316561844863,
                0.5615671641791045
            ],
            [
                0.8670859538784067,
                0.5339552238805967
            ]
        ],
        [
            [
                0.8878406708595388,
                0.4626865671641791
            ],
            [
                0.8972746331236897,
                0.44029850746268656
            ],
            [
                0.9106918238993711,
                0.3895522388059703
            ]
        ],
        [
            [
                0.9311072789161651,
                0.3242757984272187
            ],
            [
                0.950604134262077,
                0.3149474402182635
            ],
            [
                0.9671659791258087,
                0.3183056491734874
            ]
        ],
        [
            [
                1.0063254536253885,
                0.3008117718616946
            ],
            [
                1.0126147618014891,
                0.3493192345482618
            ],
            [
                1.0369334200824114,
                0.35902072708557536
            ]
        ],
        [
            [
                1.0857442348008384,
                0.3783582089552239
            ],
            [
                1.1100628930817609,
                0.3880597014925373
            ],
            [
                1.1163522012578615,
                0.5746268656716418
            ]
        ],
        [
            [
                1.1352201257861634,
                1.1343283582089552
            ],
            [
                1.141509433962264,
                1.3208955223880599
            ],
            [
                0.9914046121593291,
                1.3201492537313435
            ]
        ],
        [
            [
                0.541090146750524,
                1.317910447761194
            ],
            [
                0.3909853249475891,
                1.3171641791044777
            ],
            [
                0.3675052410901467,
                1.2276119402985075
            ]
        ],
        [
            [
                0.2970649895178197,
                0.958955223880597
            ],
            [
                0.27358490566037735,
                0.8694029850746269
            ],
            [
                0.25513626834381553,
                0.8694029850746269
            ]
        ],
        [
            [
                0.19979035639412995,
                0.8694029850746269
            ],
            [
                0.1813417190775681,
                0.8694029850746269
            ],
            [
                0.15534591194968553,
                0.7992537313432836
            ]
        ],
        [
            [
                0.07735849056603773,
                0.5888059701492537
            ],
            [
                0.05136268343815513,
                0.5186567164179104
            ],
            [
                0.05387840670859538,
                0.4906716417910447
            ]
        ]
    ],
    "1652": [
        [
            [
                0.06142557651991614,
                0.40671641791044777
            ],
            [
                0.0639412997903564,
                0.3787313432835821
            ],
            [
                0.10020964360587001,
                0.3876865671641791
            ]
        ],
        [
            [
                0.20901467505241086,
                0.41455223880597014
            ],
            [
                0.24528301886792453,
                0.42350746268656714
            ],
            [
                0.2522012578616352,
                0.4231343283582089
            ]
        ],
        [
            [
                0.2729559748427673,
                0.42201492537313434
            ],
            [
                0.279874213836478,
                0.4216417910447761
            ],
            [
                0.3226415094339623,
                0.4835820895522388
            ]
        ],
        [
            [
                0.45094339622641505,
                0.6694029850746269
            ],
            [
                0.4937106918238994,
                0.7313432835820896
            ],
            [
                0.4949685534591195,
                0.7473880597014926
            ]
        ],
        [
            [
                0.4987421383647799,
                0.7955223880597015
            ],
            [
                0.5,
                0.8115671641791045
            ],
            [
                0.49580712788259956,
                0.8134328358208955
            ]
        ],
        [
            [
                0.4832285115303983,
                0.8190298507462686
            ],
            [
                0.47903563941299787,
                0.8208955223880596
            ],
            [
                0.510482180293501,
                0.8634328358208955
            ]
        ],
        [
            [
                0.6048218029350105,
                0.991044776119403
            ],
            [
                0.6362683438155137,
                1.033582089552239
            ],
            [
                0.6433962264150943,
                1.0298507462686568
            ]
        ],
        [
            [
                0.6647798742138364,
                1.0186567164179106
            ],
            [
                0.6719077568134171,
                1.0149253731343284
            ],
            [
                0.6727463312368972,
                0.9865671641791045
            ]
        ],
        [
            [
                0.6752620545073376,
                0.9014925373134328
            ],
            [
                0.6761006289308177,
                0.8731343283582089
            ],
            [
                0.6903563941299791,
                0.8671641791044776
            ]
        ],
        [
            [
                0.7331236897274633,
                0.8492537313432835
            ],
            [
                0.7473794549266247,
                0.8432835820895522
            ],
            [
                0.7545073375262054,
                0.8537313432835821
            ]
        ],
        [
            [
                0.7758909853249476,
                0.8850746268656716
            ],
            [
                0.7830188679245284,
                0.8955223880597015
            ],
            [
                0.7846960167714884,
                0.817910447761194
            ]
        ],
        [
            [
                0.8378124254635383,
                0.6346344624184468
            ],
            [
                0.8532494758909853,
                0.5615671641791045
            ],
            [
                0.8566037735849057,
                0.5339552238805967
            ]
        ],
        [
            [
                0.8730350619515685,
                0.4531816963088749
            ],
            [
                0.8805031446540881,
                0.4291044776119403
            ],
            [
                0.8939203354297693,
                0.37835820895522404
            ]
        ],
        [
            [
                0.9277597439192083,
                0.30206828759428667
            ],
            [
                0.9472565992651203,
                0.2927399293853314
            ],
            [
                0.963818444128852,
                0.2960981383405553
            ]
        ],
        [
            [
                0.9985180365791947,
                0.2976535816216722
            ],
            [
                1.0048073447552952,
                0.34616104430823935
            ],
            [
                1.0291260030362175,
                0.3558625368455529
            ]
        ],
        [
            [
                1.0857442348008384,
                0.3783582089552239
            ],
            [
                1.1100628930817609,
                0.3880597014925373
            ],
            [
                1.1163522012578615,
                0.5746268656716418
            ]
        ],
        [
            [
                1.1352201257861634,
                1.1343283582089552
            ],
            [
                1.141509433962264,
                1.3208955223880599
            ],
            [
                0.9914046121593291,
                1.3201492537313435
            ]
        ],
        [
            [
                0.541090146750524,
                1.317910447761194
            ],
            [
                0.3909853249475891,
                1.3171641791044777
            ],
            [
                0.3675052410901467,
                1.2276119402985075
            ]
        ],
        [
            [
                0.2970649895178197,
                0.958955223880597
            ],
            [
                0.27358490566037735,
                0.8694029850746269
            ],
            [
                0.25513626834381553,
                0.8694029850746269
            ]
        ],
        [
            [
                0.19979035639412995,
                0.8694029850746269
            ],
            [
                0.1813417190775681,
                0.8694029850746269
            ],
            [
                0.15534591194968553,
                0.7992537313432836
            ]
        ],
        [
            [
                0.07735849056603773,
                0.5888059701492537
            ],
            [
                0.05136268343815513,
                0.5186567164179104
            ],
            [
                0.05387840670859538,
                0.4906716417910447
            ]
        ]
    ],
    "1765": [
        [
            [
                0.06142557651991614,
                0.40671641791044777
            ],
            [
                0.0639412997903564,
                0.3787313432835821
            ],
            [
                0.10020964360587001,
                0.3876865671641791
            ]
        ],
        [
            [
                0.20901467505241086,
                0.41455223880597014
            ],
            [
                0.24528301886792453,
                0.42350746268656714
            ],
            [
                0.2522012578616352,
                0.4231343283582089
            ]
        ],
        [
            [
                0.2729559748427673,
                0.42201492537313434
            ],
            [
                0.279874213836478,
                0.4216417910447761
            ],
            [
                0.3226415094339623,
                0.4835820895522388
            ]
        ],
        [
            [
                0.45094339622641505,
                0.6694029850746269
            ],
            [
                0.4937106918238994,
                0.7313432835820896
            ],
            [
                0.4949685534591195,
                0.7473880597014926
            ]
        ],
        [
            [
                0.4987421383647799,
                0.7955223880597015
            ],
            [
                0.5,
                0.8115671641791045
            ],
            [
                0.49580712788259956,
                0.8134328358208955
            ]
        ],
        [
            [
                0.4832285115303983,
                0.8190298507462686
            ],
            [
                0.47903563941299787,
                0.8208955223880596
            ],
            [
                0.510482180293501,
                0.8634328358208955
            ]
        ],
        [
            [
                0.6048218029350105,
                0.991044776119403
            ],
            [
                0.6362683438155137,
                1.033582089552239
            ],
            [
                0.6433962264150943,
                1.0298507462686568
            ]
        ],
        [
            [
                0.6647798742138364,
                1.0186567164179106
            ],
            [
                0.6719077568134171,
                1.0149253731343284
            ],
            [
                0.6727463312368972,
                0.9865671641791045
            ]
        ],
        [
            [
                0.6752620545073376,
                0.9014925373134328
            ],
            [
                0.6761006289308177,
                0.8731343283582089
            ],
            [
                0.6903563941299791,
                0.8671641791044776
            ]
        ],
        [
            [
                0.7331236897274633,
                0.8492537313432835
            ],
            [
                0.7473794549266247,
                0.8432835820895522
            ],
            [
                0.7545073375262054,
                0.8537313432835821
            ]
        ],
        [
            [
                0.7758909853249476,
                0.8850746268656716
            ],
            [
                0.7830188679245284,
                0.8955223880597015
            ],
            [
                0.7846960167714884,
                0.817910447761194
            ]
        ],
        [
            [
                0.789727463312369,
                0.5850746268656716
            ],
            [
                0.7914046121593291,
                0.5074626865671642
            ],
            [
                0.7947589098532494,
                0.47985074626865676
            ]
        ],
        [
            [
                0.7754716981132076,
                0.4100746268656716
            ],
            [
                0.778825995807128,
                0.3824626865671642
            ],
            [
                0.7922431865828092,
                0.33171641791044787
            ]
        ],
        [
            [
                0.9207547169811321,
                0.2555970149253731
            ],
            [
                0.940251572327044,
                0.2462686567164179
            ],
            [
                0.9568134171907757,
                0.24962686567164177
            ]
        ],
        [
            [
                0.9821802935010482,
                0.291044776119403
            ],
            [
                0.9884696016771488,
                0.3395522388059702
            ],
            [
                1.012788259958071,
                0.3492537313432836
            ]
        ],
        [
            [
                1.0857442348008384,
                0.3783582089552239
            ],
            [
                1.1100628930817609,
                0.3880597014925373
            ],
            [
                1.1163522012578615,
                0.5746268656716418
            ]
        ],
        [
            [
                1.1352201257861634,
                1.1343283582089552
            ],
            [
                1.141509433962264,
                1.3208955223880599
            ],
            [
                0.9914046121593291,
                1.3201492537313435
            ]
        ],
        [
            [
                0.541090146750524,
                1.317910447761194
            ],
            [
                0.3909853249475891,
                1.3171641791044777
            ],
            [
                0.3675052410901467,
                1.2276119402985075
            ]
        ],
        [
            [
                0.2970649895178197,
                0.958955223880597
            ],
            [
                0.27358490566037735,
                0.8694029850746269
            ],
            [
                0.25513626834381553,
                0.8694029850746269
            ]
        ],
        [
            [
                0.19979035639412995,
                0.8694029850746269
            ],
            [
                0.1813417190775681,
                0.8694029850746269
            ],
            [
                0.15534591194968553,
                0.7992537313432836
            ]
        ],
        [
            [
                0.07735849056603773,
                0.5888059701492537
            ],
            [
                0.05136268343815513,
                0.5186567164179104
            ],
            [
                0.05387840670859538,
                0.4906716417910447
            ]
        ]
    ],
    "1780": [
        [
            [
                0.06142557651991614,
                0.40671641791044777
            ],
            [
                0.0639412997903564,
                0.3787313432835821
            ],
            [
                0.10020964360587001,
                0.3876865671641791
            ]
        ],
        [
            [
                0.20901467505241086,
                0.41455223880597014
            ],
            [
                0.24528301886792453,
                0.42350746268656714
            ],
            [
                0.2522012578616352,
                0.4231343283582089
            ]
        ],
        [
            [
                0.2729559748427673,
                0.42201492537313434
            ],
            [
                0.279874213836478,
                0.4216417910447761
            ],
            [
                0.3226415094339623,
                0.4835820895522388
            ]
        ],
        [
            [
                0.45094339622641505,
                0.6694029850746269
            ],
            [
                0.4937106918238994,
                0.7313432835820896
            ],
            [
                0.4949685534591195,
                0.7473880597014926
            ]
        ],
        [
            [
                0.4987421383647799,
                0.7955223880597015
            ],
            [
                0.5,
                0.8115671641791045
            ],
            [
                0.49580712788259956,
                0.8134328358208955
            ]
        ],
        [
            [
                0.4832285115303983,
                0.8190298507462686
            ],
            [
                0.47903563941299787,
                0.8208955223880596
            ],
            [
                0.510482180293501,
                0.8634328358208955
            ]
        ],
        [
            [
                0.6048218029350105,
                0.991044776119403
            ],
            [
                0.6362683438155137,
                1.033582089552239
            ],
            [
                0.6433962264150943,
                1.0298507462686568
            ]
        ],
        [
            [
                0.6647798742138364,
                1.0186567164179106
            ],
            [
                0.6719077568134171,
                1.0149253731343284
            ],
            [
                0.6727463312368972,
                0.9865671641791045
            ]
        ],
        [
            [
                0.6752620545073376,
                0.9014925373134328
            ],
            [
                0.6761006289308177,
                0.8731343283582089
            ],
            [
                0.6903563941299791,
                0.8671641791044776
            ]
        ],
        [
            [
                0.7331236897274633,
                0.8492537313432835
            ],
            [
                0.7473794549266247,
                0.8432835820895522
            ],
            [
                0.7545073375262054,
                0.8537313432835821
            ]
        ],
        [
            [
                0.7758909853249476,
                0.8850746268656716
            ],
            [
                0.7830188679245284,
                0.8955223880597015
            ],
            [
                0.7846960167714884,
                0.817910447761194
            ]
        ],
        [
            [
                0.7257861635220126,
                0.6055970149253731
            ],
            [
                0.7274633123689728,
                0.5279850746268657
            ],
            [
                0.730817610062893,
                0.5003731343283583
            ]
        ],
        [
            [
                0.669601677148847,
                0.3895522388059701
            ],
            [
                0.6729559748427673,
                0.3619402985074627
            ],
            [
                0.6863731656184486,
                0.31119402985074635
            ]
        ],
        [
            [
                0.8033542976939203,
                0.23134328358208953
            ],
            [
                0.8228511530398323,
                0.22201492537313433
            ],
            [
                0.8394129979035639,
                0.2253731343283582
            ]
        ],
        [
            [
                0.9821802935010482,
                0.291044776119403
            ],
            [
                0.9884696016771488,
                0.3395522388059702
            ],
            [
                1.012788259958071,
                0.3492537313432836
            ]
        ],
        [
            [
                1.0857442348008384,
                0.3783582089552239
            ],
            [
                1.1100628930817609,
                0.3880597014925373
            ],
            [
                1.1163522012578615,
                0.5746268656716418
            ]
        ],
        [
            [
                1.1352201257861634,
                1.1343283582089552
            ],
            [
                1.141509433962264,
                1.3208955223880599
            ],
            [
                0.9914046121593291,
                1.3201492537313435
            ]
        ],
        [
            [
                0.541090146750524,
                1.317910447761194
            ],
            [
                0.3909853249475891,
                1.3171641791044777
            ],
            [
                0.3675052410901467,
                1.2276119402985075
            ]
        ],
        [
            [
                0.2970649895178197,
                0.958955223880597
            ],
            [
                0.27358490566037735,
                0.8694029850746269
            ],
            [
                0.25513626834381553,
                0.8694029850746269
            ]
        ],
        [
            [
                0.19979035639412995,
                0.8694029850746269
            ],
            [
                0.1813417190775681,
                0.8694029850746269
            ],
            [
                0.15534591194968553,
                0.7992537313432836
            ]
        ],
        [
            [
                0.07735849056603773,
                0.5888059701492537
            ],
            [
                0.05136268343815513,
                0.5186567164179104
            ],
            [
                0.05387840670859538,
                0.4906716417910447
            ]
        ]
    ],
    "1786": [
        [
            [
                0.06142557651991614,
                0.40671641791044777
            ],
            [
                0.0639412997903564,
                0.3787313432835821
            ],
            [
                0.10020964360587001,
                0.3876865671641791
            ]
        ],
        [
            [
                0.20901467505241086,
                0.41455223880597014
            ],
            [
                0.24528301886792453,
                0.42350746268656714
            ],
            [
                0.2522012578616352,
                0.4231343283582089
            ]
        ],
        [
            [
                0.2729559748427673,
                0.42201492537313434
            ],
            [
                0.279874213836478,
                0.4216417910447761
            ],
            [
                0.3226415094339623,
                0.4835820895522388
            ]
        ],
        [
            [
                0.45094339622641505,
                0.6694029850746269
            ],
            [
                0.4937106918238994,
                0.7313432835820896
            ],
            [
                0.4949685534591195,
                0.7473880597014926
            ]
        ],
        [
            [
                0.4987421383647799,
                0.7955223880597015
            ],
            [
                0.5,
                0.8115671641791045
            ],
            [
                0.49580712788259956,
                0.8134328358208955
            ]
        ],
        [
            [
                0.4832285115303983,
                0.8190298507462686
            ],
            [
                0.47903563941299787,
                0.8208955223880596
            ],
            [
                0.510482180293501,
                0.8634328358208955
            ]
        ],
        [
            [
                0.6048218029350105,
                0.991044776119403
            ],
            [
                0.6362683438155137,
                1.033582089552239
            ],
            [
                0.6433962264150943,
                1.0298507462686568
            ]
        ],
        [
            [
                0.6647798742138364,
                1.0186567164179106
            ],
            [
                0.6719077568134171,
                1.0149253731343284
            ],
            [
                0.6727463312368972,
                0.9865671641791045
            ]
        ],
        [
            [
                0.6752620545073376,
                0.9014925373134328
            ],
            [
                0.6761006289308177,
                0.8731343283582089
            ],
            [
                0.6903563941299791,
                0.8671641791044776
            ]
        ],
        [
            [
                0.7331236897274633,
                0.8492537313432835
            ],
            [
                0.7473794549266247,
                0.8432835820895522
            ],
            [
                0.7545073375262054,
                0.8537313432835821
            ]
        ],
        [
            [
                0.7758909853249476,
                0.8850746268656716
            ],
            [
                0.7830188679245284,
                0.8955223880597015
            ],
            [
                0.7846960167714884,
                0.817910447761194
            ]
        ],
        [
            [
                0.7257861635220126,
                0.6055970149253731
            ],
            [
                0.7274633123689728,
                0.5279850746268657
            ],
            [
                0.730817610062893,
                0.5003731343283583
            ]
        ],
        [
            [
                0.669601677148847,
                0.3895522388059701
            ],
            [
                0.6729559748427673,
                0.3619402985074627
            ],
            [
                0.6863731656184486,
                0.31119402985074635
            ]
        ],
        [
            [
                0.7813417190775681,
                0.2425373134328358
            ],
            [
                0.80083857442348,
                0.2332089552238806
            ],
            [
                0.8174004192872117,
                0.23656716417910448
            ]
        ],
        [
            [
                0.9811320754716981,
                0.30597014925373134
            ],
            [
                0.9874213836477987,
                0.3544776119402985
            ],
            [
                1.0117400419287208,
                0.3641791044776119
            ]
        ],
        [
            [
                1.0857442348008384,
                0.3783582089552239
            ],
            [
                1.1100628930817609,
                0.3880597014925373
            ],
            [
                1.1163522012578615,
                0.5746268656716418
            ]
        ],
        [
            [
                1.1352201257861634,
                1.1343283582089552
            ],
            [
                1.141509433962264,
                1.3208955223880599
            ],
            [
                0.9914046121593291,
                1.3201492537313435
            ]
        ],
        [
            [
                0.541090146750524,
                1.317910447761194
            ],
            [
                0.3909853249475891,
                1.3171641791044777
            ],
            [
                0.3675052410901467,
                1.2276119402985075
            ]
        ],
        [
            [
                0.2970649895178197,
                0.958955223880597
            ],
            [
                0.27358490566037735,
                0.8694029850746269
            ],
            [
                0.25513626834381553,
                0.8694029850746269
            ]
        ],
        [
            [
                0.19979035639412995,
                0.8694029850746269
            ],
            [
                0.1813417190775681,
                0.8694029850746269
            ],
            [
                0.15534591194968553,
                0.7992537313432836
            ]
        ],
        [
            [
                0.07735849056603773,
                0.5888059701492537
            ],
            [
                0.05136268343815513,
                0.5186567164179104
            ],
            [
                0.05387840670859538,
                0.4906716417910447
            ]
        ]
    ],
    "1797": [
        [
            [
                0.06142557651991614,
                0.40671641791044777
            ],
            [
                0.0639412997903564,
                0.3787313432835821
            ],
            [
                0.10020964360587001,
                0.3876865671641791
            ]
        ],
        [
            [
                0.20901467505241086,
                0.41455223880597014
            ],
            [
                0.24528301886792453,
                0.42350746268656714
            ],
            [
                0.2522012578616352,
                0.4231343283582089
            ]
        ],
        [
            [
                0.2729559748427673,
                0.42201492537313434
            ],
            [
                0.279874213836478,
                0.4216417910447761
            ],
            [
                0.3226415094339623,
                0.4835820895522388
            ]
        ],
        [
            [
                0.45094339622641505,
                0.6694029850746269
            ],
            [
                0.4937106918238994,
                0.7313432835820896
            ],
            [
                0.4949685534591195,
                0.7473880597014926
            ]
        ],
        [
            [
                0.4987421383647799,
                0.7955223880597015
            ],
            [
                0.5,
                0.8115671641791045
            ],
            [
                0.49580712788259956,
                0.8134328358208955
            ]
        ],
        [
            [
                0.4832285115303983,
                0.8190298507462686
            ],
            [
                0.47903563941299787,
                0.8208955223880596
            ],
            [
                0.510482180293501,
                0.8634328358208955
            ]
        ],
        [
            [
                0.6048218029350105,
                0.991044776119403
            ],
            [
                0.6362683438155137,
                1.033582089552239
            ],
            [
                0.6433962264150943,
                1.0298507462686568
            ]
        ],
        [
            [
                0.6647798742138364,
                1.0186567164179106
            ],
            [
                0.6719077568134171,
                1.0149253731343284
            ],
            [
                0.6727463312368972,
                0.9865671641791045
            ]
        ],
        [
            [
                0.6752620545073376,
                0.9014925373134328
            ],
            [
                0.6761006289308177,
                0.8731343283582089
            ],
            [
                0.6903563941299791,
                0.8671641791044776
            ]
        ],
        [
            [
                0.7331236897274633,
                0.8492537313432835
            ],
            [
                0.7473794549266247,
                0.8432835820895522
            ],
            [
                0.7545073375262054,
                0.8537313432835821
            ]
        ],
        [
            [
                0.7758909853249476,
                0.8850746268656716
            ],
            [
                0.7830188679245284,
                0.8955223880597015
            ],
            [
                0.7846960167714884,
                0.817910447761194
            ]
        ],
        [
            [
                0.7257861635220126,
                0.6055970149253731
            ],
            [
                0.7274633123689728,
                0.5279850746268657
            ],
            [
                0.730817610062893,
                0.5003731343283583
            ]
        ],
        [
            [
                0.669601677148847,
                0.3895522388059701
            ],
            [
                0.6729559748427673,
                0.3619402985074627
            ],
            [
                0.6863731656184486,
                0.31119402985074635
            ]
        ],
        [
            [
                0.7813417190775681,
                0.2425373134328358
            ],
            [
                0.80083857442348,
                0.2332089552238806
            ],
            [
                0.8174004192872117,
                0.23656716417910448
            ]
        ],
        [
            [
                0.9779874213836478,
                0.31716417910447764
            ],
            [
                0.9842767295597484,
                0.3656716417910448
            ],
            [
                1.0085953878406704,
                0.3753731343283582
            ]
        ],
        [
            [
                1.0857442348008384,
                0.3783582089552239
            ],
            [
                1.1100628930817609,
                0.3880597014925373
            ],
            [
                1.1163522012578615,
                0.5746268656716418
            ]
        ],
        [
            [
                1.1352201257861634,
                1.1343283582089552
            ],
            [
                1.141509433962264,
                1.3208955223880599
            ],
            [
                0.9914046121593291,
                1.3201492537313435
            ]
        ],
        [
            [
                0.541090146750524,
                1.317910447761194
            ],
            [
                0.3909853249475891,
                1.3171641791044777
            ],
            [
                0.3675052410901467,
                1.2276119402985075
            ]
        ],
        [
            [
                0.2970649895178197,
                0.958955223880597
            ],
            [
                0.27358490566037735,
                0.8694029850746269
            ],
            [
                0.25513626834381553,
                0.8694029850746269
            ]
        ],
        [
            [
                0.19979035639412995,
                0.8694029850746269
            ],
            [
                0.1813417190775681,
                0.8694029850746269
            ],
            [
                0.15534591194968553,
                0.7992537313432836
            ]
        ],
        [
            [
                0.07735849056603773,
                0.5888059701492537
            ],
            [
                0.05136268343815513,
                0.5186567164179104
            ],
            [
                0.05387840670859538,
                0.4906716417910447
            ]
        ]
    ],
    "1824": [
        [
            [
                0.06142557651991614,
                0.40671641791044777
            ],
            [
                0.0639412997903564,
                0.3787313432835821
            ],
            [
                0.10020964360587001,
                0.3876865671641791
            ]
        ],
        [
            [
                0.20901467505241086,
                0.41455223880597014
            ],
            [
                0.24528301886792453,
                0.42350746268656714
            ],
            [
                0.2522012578616352,
                0.4231343283582089
            ]
        ],
        [
            [
                0.2729559748427673,
                0.42201492537313434
            ],
            [
                0.279874213836478,
                0.4216417910447761
            ],
            [
                0.3226415094339623,
                0.4835820895522388
            ]
        ],
        [
            [
                0.45094339622641505,
                0.6694029850746269
            ],
            [
                0.4937106918238994,
                0.7313432835820896
            ],
            [
                0.4949685534591195,
                0.7473880597014926
            ]
        ],
        [
            [
                0.4987421383647799,
                0.7955223880597015
            ],
            [
                0.5,
                0.8115671641791045
            ],
            [
                0.49580712788259956,
                0.8134328358208955
            ]
        ],
        [
            [
                0.4832285115303983,
                0.8190298507462686
            ],
            [
                0.47903563941299787,
                0.8208955223880596
            ],
            [
                0.510482180293501,
                0.8634328358208955
            ]
        ],
        [
            [
                0.6048218029350105,
                0.991044776119403
            ],
            [
                0.6362683438155137,
                1.033582089552239
            ],
            [
                0.6433962264150943,
                1.0298507462686568
            ]
        ],
        [
            [
                0.6647798742138364,
                1.0186567164179106
            ],
            [
                0.6719077568134171,
                1.0149253731343284
            ],
            [
                0.6727463312368972,
                0.9865671641791045
            ]
        ],
        [
            [
                0.6752620545073376,
                0.9014925373134328
            ],
            [
                0.6761006289308177,
                0.8731343283582089
            ],
            [
                0.6903563941299791,
                0.8671641791044776
            ]
        ],
        [
            [
                0.7331236897274633,
                0.8492537313432835
            ],
            [
                0.7473794549266247,
                0.8432835820895522
            ],
            [
                0.7545073375262054,
                0.8537313432835821
            ]
        ],
        [
            [
                0.7758909853249476,
                0.8850746268656716
            ],
            [
                0.7830188679245284,
                0.8955223880597015
            ],
            [
                0.7846960167714884,
                0.817910447761194
            ]
        ],
        [
            [
                0.6817610062893082,
                0.6447761194029851
            ],
            [
                0.6834381551362684,
                0.5671641791044776
            ],
            [
                0.6867924528301886,
                0.5395522388059703
            ]
        ],
        [
            [
                0.6360587002096436,
                0.35223880597014917
            ],
            [
                0.639412997903564,
                0.3246268656716418
            ],
            [
                0.6528301886792452,
                0.27388059701492545
            ]
        ],
        [
            [
                0.7624737945492661,
                0.2388059701492537
            ],
            [
                0.7819706498951782,
                0.22947761194029853
            ],
            [
                0.7985324947589097,
                0.2328358208955224
            ]
        ],
        [
            [
                0.9308176100628931,
                0.2910447761194028
            ],
            [
                0.9371069182389937,
                0.3395522388059702
            ],
            [
                0.9614255765199151,
                0.34925373134328347
            ]
        ],
        [
            [
                1.0459119496855345,
                0.5313432835820896
            ],
            [
                1.070230607966457,
                0.541044776119403
            ],
            [
                1.0765199161425572,
                0.7276119402985074
            ]
        ],
        [
            [
                1.1352201257861634,
                1.1343283582089552
            ],
            [
                1.141509433962264,
                1.3208955223880599
            ],
            [
                0.9914046121593291,
                1.3201492537313435
            ]
        ],
        [
            [
                0.541090146750524,
                1.317910447761194
            ],
            [
                0.3909853249475891,
                1.3171641791044777
            ],
            [
                0.3675052410901467,
                1.2276119402985075
            ]
        ],
        [
            [
                0.2970649895178197,
                0.958955223880597
            ],
            [
                0.27358490566037735,
                0.8694029850746269
            ],
            [
                0.25513626834381553,
                0.8694029850746269
            ]
        ],
        [
            [
                0.19979035639412995,
                0.8694029850746269
            ],
            [
                0.1813417190775681,
                0.8694029850746269
            ],
            [
                0.15534591194968553,
                0.7992537313432836
            ]
        ],
        [
            [
                0.07735849056603773,
                0.5888059701492537
            ],
            [
                0.05136268343815513,
                0.5186567164179104
            ],
            [
                0.05387840670859538,
                0.4906716417910447
            ]
        ]
    ],
    "1871": [
        [
            [
                0.06142557651991614,
                0.40671641791044777
            ],
            [
                0.0639412997903564,
                0.3787313432835821
            ],
            [
                0.10020964360587001,
                0.3876865671641791
            ]
        ],
        [
            [
                0.20901467505241086,
                0.41455223880597014
            ],
            [
                0.24528301886792453,
                0.42350746268656714
            ],
            [
                0.2522012578616352,
                0.4231343283582089
            ]
        ],
        [
            [
                0.2729559748427673,
                0.42201492537313434
            ],
            [
                0.279874213836478,
                0.4216417910447761
            ],
            [
                0.3226415094339623,
                0.4835820895522388
            ]
        ],
        [
            [
                0.45094339622641505,
                0.6694029850746269
            ],
            [
                0.4937106918238994,
                0.7313432835820896
            ],
            [
                0.4949685534591195,
                0.7473880597014926
            ]
        ],
        [
            [
                0.4987421383647799,
                0.7955223880597015
            ],
            [
                0.5,
                0.8115671641791045
            ],
            [
                0.49580712788259956,
                0.8134328358208955
            ]
        ],
        [
            [
                0.4832285115303983,
                0.8190298507462686
            ],
            [
                0.47903563941299787,
                0.8208955223880596
            ],
            [
                0.510482180293501,
                0.8634328358208955
            ]
        ],
        [
            [
                0.6048218029350105,
                0.991044776119403
            ],
            [
                0.6362683438155137,
                1.033582089552239
            ],
            [
                0.6433962264150943,
                1.0298507462686568
            ]
        ],
        [
            [
                0.6647798742138364,
                1.0186567164179106
            ],
            [
                0.6719077568134171,
                1.0149253731343284
            ],
            [
                0.6727463312368972,
                0.9865671641791045
            ]
        ],
        [
            [
                0.6752620545073376,
                0.9014925373134328
            ],
            [
                0.6761006289308177,
                0.8731343283582089
            ],
            [
                0.6903563941299791,
                0.8671641791044776
            ]
        ],
        [
            [
                0.7331236897274633,
                0.8492537313432835
            ],
            [
                0.7473794549266247,
                0.8432835820895522
            ],
            [
                0.7545073375262054,
                0.8537313432835821
            ]
        ],
        [
            [
                0.7758909853249476,
                0.8850746268656716
            ],
            [
                0.7830188679245284,
                0.8955223880597015
            ],
            [
                0.7846960167714884,
                0.817910447761194
            ]
        ],
        [
            [
                0.6922431865828093,
                0.6447761194029854
            ],
            [
                0.6939203354297694,
                0.5671641791044776
            ],
            [
                0.6972746331236898,
                0.5395522388059705
            ]
        ],
        [
            [
                0.6643605870020964,
                0.3727611940298507
            ],
            [
                0.6677148846960167,
                0.34514925373134325
            ],
            [
                0.6811320754716981,
                0.2944029850746269
            ]
        ],
        [
            [
                0.7561844863731656,
                0.20708955223880596
            ],
            [
                0.7756813417190777,
                0.19776119402985076
            ],
            [
                0.7922431865828092,
                0.20111940298507466
            ]
        ],
        [
            [
                0.9308176100628931,
                0.2910447761194028
            ],
            [
                0.9371069182389937,
                0.3395522388059702
            ],
            [
                0.9614255765199151,
                0.34925373134328347
            ]
        ],
        [
            [
                1.0459119496855345,
                0.5313432835820896
            ],
            [
                1.070230607966457,
                0.541044776119403
            ],
            [
                1.0765199161425572,
                0.7276119402985074
            ]
        ],
        [
            [
                1.1352201257861634,
                1.1343283582089552
            ],
            [
                1.141509433962264,
                1.3208955223880599
            ],
            [
                0.9914046121593291,
                1.3201492537313435
            ]
        ],
        [
            [
                0.541090146750524,
                1.317910447761194
            ],
            [
                0.3909853249475891,
                1.3171641791044777
            ],
            [
                0.3675052410901467,
                1.2276119402985075
            ]
        ],
        [
            [
                0.2970649895178197,
                0.958955223880597
            ],
            [
                0.27358490566037735,
                0.8694029850746269
            ],
            [
                0.25513626834381553,
                0.8694029850746269
            ]
        ],
        [
            [
                0.19979035639412995,
                0.8694029850746269
            ],
            [
                0.1813417190775681,
                0.8694029850746269
            ],
            [
                0.15534591194968553,
                0.7992537313432836
            ]
        ],
        [
            [
                0.07735849056603773,
                0.5888059701492537
            ],
            [
                0.05136268343815513,
                0.5186567164179104
            ],
            [
                0.05387840670859538,
                0.4906716417910447
            ]
        ]
    ],
    "1898": [
        [
            [
                0.06142557651991614,
                0.40671641791044777
            ],
            [
                0.0639412997903564,
                0.3787313432835821
            ],
            [
                0.10020964360587001,
                0.3876865671641791
            ]
        ],
        [
            [
                0.20901467505241086,
                0.41455223880597014
            ],
            [
                0.24528301886792453,
                0.42350746268656714
            ],
            [
                0.2522012578616352,
                0.4231343283582089
            ]
        ],
        [
            [
                0.2729559748427673,
                0.42201492537313434
            ],
            [
                0.279874213836478,
                0.4216417910447761
            ],
            [
                0.3226415094339623,
                0.4835820895522388
            ]
        ],
        [
            [
                0.45094339622641505,
                0.6694029850746269
            ],
            [
                0.4937106918238994,
                0.7313432835820896
            ],
            [
                0.4949685534591195,
                0.7473880597014926
            ]
        ],
        [
            [
                0.4987421383647799,
                0.7955223880597015
            ],
            [
                0.5,
                0.8115671641791045
            ],
            [
                0.49580712788259956,
                0.8134328358208955
            ]
        ],
        [
            [
                0.4832285115303983,
                0.8190298507462686
            ],
            [
                0.47903563941299787,
                0.8208955223880596
            ],
            [
                0.510482180293501,
                0.8634328358208955
            ]
        ],
        [
            [
                0.6048218029350105,
                0.991044776119403
            ],
            [
                0.6362683438155137,
                1.033582089552239
            ],
            [
                0.6433962264150943,
                1.0298507462686568
            ]
        ],
        [
            [
                0.6647798742138364,
                1.0186567164179106
            ],
            [
                0.6719077568134171,
                1.0149253731343284
            ],
            [
                0.6727463312368972,
                0.9865671641791045
            ]
        ],
        [
            [
                0.6752620545073376,
                0.9014925373134328
            ],
            [
                0.6761006289308177,
                0.8731343283582089
            ],
            [
                0.6903563941299791,
                0.8671641791044776
            ]
        ],
        [
            [
                0.7331236897274633,
                0.8492537313432835
            ],
            [
                0.7473794549266247,
                0.8432835820895522
            ],
            [
                0.7545073375262054,
                0.8537313432835821
            ]
        ],
        [
            [
                0.7758909853249476,
                0.8850746268656716
            ],
            [
                0.7830188679245284,
                0.8955223880597015
            ],
            [
                0.7846960167714884,
                0.817910447761194
            ]
        ],
        [
            [
                0.6922431865828093,
                0.6447761194029854
            ],
            [
                0.6939203354297694,
                0.5671641791044776
            ],
            [
                0.6972746331236898,
                0.5395522388059705
            ]
        ],
        [
            [
                0.6643605870020964,
                0.3727611940298507
            ],
            [
                0.6677148846960167,
                0.34514925373134325
            ],
            [
                0.6811320754716981,
                0.2944029850746269
            ]
        ],
        [
            [
                0.7540880503144654,
                0.21455223880597016
            ],
            [
                0.7735849056603773,
                0.2052238805970149
            ],
            [
                0.790146750524109,
                0.20858208955223884
            ]
        ],
        [
            [
                0.9308176100628931,
                0.2910447761194028
            ],
            [
                0.9371069182389937,
                0.3395522388059702
            ],
            [
                0.9614255765199151,
                0.34925373134328347
            ]
        ],
        [
            [
                1.0459119496855345,
                0.5313432835820896
            ],
            [
                1.070230607966457,
                0.541044776119403
            ],
            [
                1.0765199161425572,
                0.7276119402985074
            ]
        ],
        [
            [
                1.1352201257861634,
                1.1343283582089552
            ],
            [
                1.141509433962264,
                1.3208955223880599
            ],
            [
                0.9914046121593291,
                1.3201492537313435
            ]
        ],
        [
            [
                0.541090146750524,
                1.317910447761194
            ],
            [
                0.3909853249475891,
                1.3171641791044777
            ],
            [
                0.3675052410901467,
                1.2276119402985075
            ]
        ],
        [
            [
                0.2970649895178197,
                0.958955223880597
            ],
            [
                0.27358490566037735,
                0.8694029850746269
            ],
            [
                0.25513626834381553,
                0.8694029850746269
            ]
        ],
        [
            [
                0.19979035639412995,
                0.8694029850746269
            ],
            [
                0.1813417190775681,
                0.8694029850746269
            ],
            [
                0.15534591194968553,
                0.7992537313432836
            ]
        ],
        [
            [
                0.07735849056603773,
                0.5888059701492537
            ],
            [
                0.05136268343815513,
                0.5186567164179104
            ],
            [
                0.05387840670859538,
                0.4906716417910447
            ]
        ]
    ],
    "1940": [
        [
            [
                0.06142557651991614,
                0.40671641791044777
            ],
            [
                0.0639412997903564,
                0.3787313432835821
            ],
            [
                0.10020964360587001,
                0.3876865671641791
            ]
        ],
        [
            [
                0.20901467505241086,
                0.41455223880597014
            ],
            [
                0.24528301886792453,
                0.42350746268656714
            ],
            [
                0.2522012578616352,
                0.4231343283582089
            ]
        ],
        [
            [
                0.2729559748427673,
                0.42201492537313434
            ],
            [
                0.279874213836478,
                0.4216417910447761
            ],
            [
                0.3226415094339623,
                0.4835820895522388
            ]
        ],
        [
            [
                0.45094339622641505,
                0.6694029850746269
            ],
            [
                0.4937106918238994,
                0.7313432835820896
            ],
            [
                0.4949685534591195,
                0.7473880597014926
            ]
        ],
        [
            [
                0.4987421383647799,
                0.7955223880597015
            ],
            [
                0.5,
                0.8115671641791045
            ],
            [
                0.49580712788259956,
                0.8134328358208955
            ]
        ],
        [
            [
                0.4832285115303983,
                0.8190298507462686
            ],
            [
                0.47903563941299787,
                0.8208955223880596
            ],
            [
                0.510482180293501,
                0.8634328358208955
            ]
        ],
        [
            [
                0.6048218029350105,
                0.991044776119403
            ],
            [
                0.6362683438155137,
                1.033582089552239
            ],
            [
                0.6433962264150943,
                1.0298507462686568
            ]
        ],
        [
            [
                0.6647798742138364,
                1.0186567164179106
            ],
            [
                0.6719077568134171,
                1.0149253731343284
            ],
            [
                0.6727463312368972,
                0.9865671641791045
            ]
        ],
        [
            [
                0.6752620545073376,
                0.9014925373134328
            ],
            [
                0.6761006289308177,
                0.8731343283582089
            ],
            [
                0.6903563941299791,
                0.8671641791044776
            ]
        ],
        [
            [
                0.7331236897274633,
                0.8492537313432835
            ],
            [
                0.7473794549266247,
                0.8432835820895522
            ],
            [
                0.7545073375262054,
                0.8537313432835821
            ]
        ],
        [
            [
                0.7758909853249476,
                0.8850746268656716
            ],
            [
                0.7830188679245284,
                0.8955223880597015
            ],
            [
                0.7846960167714884,
                0.817910447761194
            ]
        ],
        [
            [
                0.6922431865828093,
                0.6447761194029854
            ],
            [
                0.6939203354297694,
                0.5671641791044776
            ],
            [
                0.6972746331236898,
                0.5395522388059705
            ]
        ],
        [
            [
                0.6580712788259958,
                0.39141791044776125
            ],
            [
                0.6614255765199161,
                0.3638059701492537
            ],
            [
                0.6748427672955974,
                0.3130597014925375
            ]
        ],
        [
            [
                0.8075471698113207,
                0.30223880597014907
            ],
            [
                0.8270440251572327,
                0.292910447761194
            ],
            [
                0.8436058700209643,
                0.29626865671641767
            ]
        ],
        [
            [
                0.9308176100628931,
                0.2910447761194028
            ],
            [
                0.9371069182389937,
                0.3395522388059702
            ],
            [
                0.9614255765199151,
                0.34925373134328347
            ]
        ],
        [
            [
                1.0459119496855345,
                0.5313432835820896
            ],
            [
                1.070230607966457,
                0.541044776119403
            ],
            [
                1.0765199161425572,
                0.7276119402985074
            ]
        ],
        [
            [
                1.1352201257861634,
                1.1343283582089552
            ],
            [
                1.141509433962264,
                1.3208955223880599
            ],
            [
                0.9914046121593291,
                1.3201492537313435
            ]
        ],
        [
            [
                0.541090146750524,
                1.317910447761194
            ],
            [
                0.3909853249475891,
                1.3171641791044777
            ],
            [
                0.3675052410901467,
                1.2276119402985075
            ]
        ],
        [
            [
                0.2970649895178197,
                0.958955223880597
            ],
            [
                0.27358490566037735,
                0.8694029850746269
            ],
            [
                0.25513626834381553,
                0.8694029850746269
            ]
        ],
        [
            [
                0.19979035639412995,
                0.8694029850746269
            ],
            [
                0.1813417190775681,
                0.8694029850746269
            ],
            [
                0.15534591194968553,
                0.7992537313432836
            ]
        ],
        [
            [
                0.07735849056603773,
                0.5888059701492537
            ],
            [
                0.05136268343815513,
                0.5186567164179104
            ],
            [
                0.05387840670859538,
                0.4906716417910447
            ]
        ]
    ],
    "2007": [
        [
            [
                0.06142557651991614,
                0.40671641791044777
            ],
            [
                0.0639412997903564,
                0.3787313432835821
            ],
            [
                0.10020964360587001,
                0.3876865671641791
            ]
        ],
        [
            [
                0.20901467505241086,
                0.41455223880597014
            ],
            [
                0.24528301886792453,
                0.42350746268656714
            ],
            [
                0.2522012578616352,
                0.4231343283582089
            ]
        ],
        [
            [
                0.2729559748427673,
                0.42201492537313434
            ],
            [
                0.279874213836478,
                0.4216417910447761
            ],
            [
                0.3226415094339623,
                0.4835820895522388
            ]
        ],
        [
            [
                0.45094339622641505,
                0.6694029850746269
            ],
            [
                0.4937106918238994,
                0.7313432835820896
            ],
            [
                0.4949685534591195,
                0.7473880597014926
            ]
        ],
        [
            [
                0.4987421383647799,
                0.7955223880597015
            ],
            [
                0.5,
                0.8115671641791045
            ],
            [
                0.49580712788259956,
                0.8134328358208955
            ]
        ],
        [
            [
                0.4832285115303983,
                0.8190298507462686
            ],
            [
                0.47903563941299787,
                0.8208955223880596
            ],
            [
                0.510482180293501,
                0.8634328358208955
            ]
        ],
        [
            [
                0.6048218029350105,
                0.991044776119403
            ],
            [
                0.6362683438155137,
                1.033582089552239
            ],
            [
                0.6433962264150943,
                1.0298507462686568
            ]
        ],
        [
            [
                0.6647798742138364,
                1.0186567164179106
            ],
            [
                0.6719077568134171,
                1.0149253731343284
            ],
            [
                0.6727463312368972,
                0.9865671641791045
            ]
        ],
        [
            [
                0.6752620545073376,
                0.9014925373134328
            ],
            [
                0.6761006289308177,
                0.8731343283582089
            ],
            [
                0.6903563941299791,
                0.8671641791044776
            ]
        ],
        [
            [
                0.7331236897274633,
                0.8492537313432835
            ],
            [
                0.7473794549266247,
                0.8432835820895522
            ],
            [
                0.7545073375262054,
                0.8537313432835821
            ]
        ],
        [
            [
                0.7758909853249476,
                0.8850746268656716
            ],
            [
                0.7830188679245284,
                0.8955223880597015
            ],
            [
                0.7846960167714884,
                0.817910447761194
            ]
        ],
        [
            [
                0.719496855345912,
                0.661567164179105
            ],
            [
                0.721174004192872,
                0.583955223880597
            ],
            [
                0.7245283018867924,
                0.5563432835820901
            ]
        ],
        [
            [
                0.6958071278825996,
                0.3652985074626866
            ],
            [
                0.69916142557652,
                0.3376865671641791
            ],
            [
                0.7125786163522013,
                0.28694029850746283
            ]
        ],
        [
            [
                0.7876310272536687,
                0.23134328358208942
            ],
            [
                0.8071278825995807,
                0.22201492537313433
            ],
            [
                0.8236897274633124,
                0.22537313432835787
            ]
        ],
        [
            [
                0.9308176100628931,
                0.2910447761194028
            ],
            [
                0.9371069182389937,
                0.3395522388059702
            ],
            [
                0.9614255765199151,
                0.34925373134328347
            ]
        ],
        [
            [
                1.0459119496855345,
                0.5313432835820896
            ],
            [
                1.070230607966457,
                0.541044776119403
            ],
            [
                1.0765199161425572,
                0.7276119402985074
            ]
        ],
        [
            [
                1.1352201257861634,
                1.1343283582089552
            ],
            [
                1.141509433962264,
                1.3208955223880599
            ],
            [
                0.9914046121593291,
                1.3201492537313435
            ]
        ],
        [
            [
                0.541090146750524,
                1.317910447761194
            ],
            [
                0.3909853249475891,
                1.3171641791044777
            ],
            [
                0.3675052410901467,
                1.2276119402985075
            ]
        ],
        [
            [
                0.2970649895178197,
                0.958955223880597
            ],
            [
                0.27358490566037735,
                0.8694029850746269
            ],
            [
                0.25513626834381553,
                0.8694029850746269
            ]
        ],
        [
            [
                0.19979035639412995,
                0.8694029850746269
            ],
            [
                0.1813417190775681,
                0.8694029850746269
            ],
            [
                0.15534591194968553,
                0.7992537313432836
            ]
        ],
        [
            [
                0.07735849056603773,
                0.5888059701492537
            ],
            [
                0.05136268343815513,
                0.5186567164179104
            ],
            [
                0.05387840670859538,
                0.4906716417910447
            ]
        ]
    ],
    "2022": [
        [
            [
                0.06142557651991614,
                0.40671641791044777
            ],
            [
                0.0639412997903564,
                0.3787313432835821
            ],
            [
                0.10020964360587001,
                0.3876865671641791
            ]
        ],
        [
            [
                0.20901467505241086,
                0.41455223880597014
            ],
            [
                0.24528301886792453,
                0.42350746268656714
            ],
            [
                0.2522012578616352,
                0.4231343283582089
            ]
        ],
        [
            [
                0.2729559748427673,
                0.42201492537313434
            ],
            [
                0.279874213836478,
                0.4216417910447761
            ],
            [
                0.3226415094339623,
                0.4835820895522388
            ]
        ],
        [
            [
                0.45094339622641505,
                0.6694029850746269
            ],
            [
                0.4937106918238994,
                0.7313432835820896
            ],
            [
                0.4949685534591195,
                0.7473880597014926
            ]
        ],
        [
            [
                0.4987421383647799,
                0.7955223880597015
            ],
            [
                0.5,
                0.8115671641791045
            ],
            [
                0.49580712788259956,
                0.8134328358208955
            ]
        ],
        [
            [
                0.4832285115303983,
                0.8190298507462686
            ],
            [
                0.47903563941299787,
                0.8208955223880596
            ],
            [
                0.510482180293501,
                0.8634328358208955
            ]
        ],
        [
            [
                0.6048218029350105,
                0.991044776119403
            ],
            [
                0.6362683438155137,
                1.033582089552239
            ],
            [
                0.6433962264150943,
                1.0298507462686568
            ]
        ],
        [
            [
                0.6647798742138364,
                1.0186567164179106
            ],
            [
                0.6719077568134171,
                1.0149253731343284
            ],
            [
                0.6727463312368972,
                0.9865671641791045
            ]
        ],
        [
            [
                0.6752620545073376,
                0.9014925373134328
            ],
            [
                0.6761006289308177,
                0.8731343283582089
            ],
            [
                0.6903563941299791,
                0.8671641791044776
            ]
        ],
        [
            [
                0.7331236897274633,
                0.8492537313432835
            ],
            [
                0.7473794549266247,
                0.8432835820895522
            ],
            [
                0.7545073375262054,
                0.8537313432835821
            ]
        ],
        [
            [
                0.7758909853249476,
                0.8850746268656716
            ],
            [
                0.7830188679245284,
                0.8955223880597015
            ],
            [
                0.7846960167714884,
                0.817910447761194
            ]
        ],
        [
            [
                0.7037735849056604,
                0.6858208955223887
            ],
            [
                0.7054507337526206,
                0.6082089552238806
            ],
            [
                0.708805031446541,
                0.5805970149253737
            ]
        ],
        [
            [
                0.680083857442348,
                0.3522388059701493
            ],
            [
                0.6834381551362684,
                0.3246268656716418
            ],
            [
                0.6968553459119496,
                0.2738805970149255
            ]
        ],
        [
            [
                0.7593291404612159,
                0.21082089552238775
            ],
            [
                0.778825995807128,
                0.20149253731343286
            ],
            [
                0.7953878406708595,
                0.20485074626865624
            ]
        ],
        [
            [
                0.9308176100628931,
                0.2910447761194028
            ],
            [
                0.9371069182389937,
                0.3395522388059702
            ],
            [
                0.9614255765199151,
                0.34925373134328347
            ]
        ],
        [
            [
                1.0459119496855345,
                0.5313432835820896
            ],
            [
                1.070230607966457,
                0.541044776119403
            ],
            [
                1.0765199161425572,
                0.7276119402985074
            ]
        ],
        [
            [
                1.1352201257861634,
                1.1343283582089552
            ],
            [
                1.141509433962264,
                1.3208955223880599
            ],
            [
                0.9914046121593291,
                1.3201492537313435
            ]
        ],
        [
            [
                0.541090146750524,
                1.317910447761194
            ],
            [
                0.3909853249475891,
                1.3171641791044777
            ],
            [
                0.3675052410901467,
                1.2276119402985075
            ]
        ],
        [
            [
                0.2970649895178197,
                0.958955223880597
            ],
            [
                0.27358490566037735,
                0.8694029850746269
            ],
            [
                0.25513626834381553,
                0.8694029850746269
            ]
        ],
        [
            [
                0.19979035639412995,
                0.8694029850746269
            ],
            [
                0.1813417190775681,
                0.8694029850746269
            ],
            [
                0.15534591194968553,
                0.7992537313432836
            ]
        ],
        [
            [
                0.07735849056603773,
                0.5888059701492537
            ],
            [
                0.05136268343815513,
                0.5186567164179104
            ],
            [
                0.05387840670859538,
                0.4906716417910447
            ]
        ]
    ],
    "2086": [
        [
            [
                0.06142557651991614,
                0.40671641791044777
            ],
            [
                0.0639412997903564,
                0.3787313432835821
            ],
            [
                0.10020964360587001,
                0.3876865671641791
            ]
        ],
        [
            [
                0.20901467505241086,
                0.41455223880597014
            ],
            [
                0.24528301886792453,
                0.42350746268656714
            ],
            [
                0.2522012578616352,
                0.4231343283582089
            ]
        ],
        [
            [
                0.2729559748427673,
                0.42201492537313434
            ],
            [
                0.279874213836478,
                0.4216417910447761
            ],
            [
                0.3226415094339623,
                0.4835820895522388
            ]
        ],
        [
            [
                0.45094339622641505,
                0.6694029850746269
            ],
            [
                0.4937106918238994,
                0.7313432835820896
            ],
            [
                0.4949685534591195,
                0.7473880597014926
            ]
        ],
        [
            [
                0.4987421383647799,
                0.7955223880597015
            ],
            [
                0.5,
                0.8115671641791045
            ],
            [
                0.49580712788259956,
                0.8134328358208955
            ]
        ],
        [
            [
                0.4832285115303983,
                0.8190298507462686
            ],
            [
                0.47903563941299787,
                0.8208955223880596
            ],
            [
                0.510482180293501,
                0.8634328358208955
            ]
        ],
        [
            [
                0.6048218029350105,
                0.991044776119403
            ],
            [
                0.6362683438155137,
                1.033582089552239
            ],
            [
                0.6433962264150943,
                1.0298507462686568
            ]
        ],
        [
            [
                0.6647798742138364,
                1.0186567164179106
            ],
            [
                0.6719077568134171,
                1.0149253731343284
            ],
            [
                0.6727463312368972,
                0.9865671641791045
            ]
        ],
        [
            [
                0.6752620545073376,
                0.9014925373134328
            ],
            [
                0.6761006289308177,
                0.8731343283582089
            ],
            [
                0.6903563941299791,
                0.8671641791044776
            ]
        ],
        [
            [
                0.7331236897274633,
                0.8492537313432835
            ],
            [
                0.7473794549266247,
                0.8432835820895522
            ],
            [
                0.7545073375262054,
                0.8537313432835821
            ]
        ],
        [
            [
                0.7758909853249476,
                0.8850746268656716
            ],
            [
                0.7830188679245284,
                0.8955223880597015
            ],
            [
                0.7846960167714884,
                0.817910447761194
            ]
        ],
        [
            [
                0.7037735849056604,
                0.6858208955223887
            ],
            [
                0.7054507337526206,
                0.6082089552238806
            ],
            [
                0.708805031446541,
                0.5805970149253737
            ]
        ],
        [
            [
                0.680083857442348,
                0.3522388059701493
            ],
            [
                0.6834381551362684,
                0.3246268656716418
            ],
            [
                0.6968553459119496,
                0.2738805970149255
            ]
        ],
        [
            [
                0.7593291404612159,
                0.21082089552238775
            ],
            [
                0.778825995807128,
                0.20149253731343286
            ],
            [
                0.7953878406708595,
                0.20485074626865624
            ]
        ],
        [
            [
                0.9308176100628931,
                0.2910447761194028
            ],
            [
                0.9371069182389937,
                0.3395522388059702
            ],
            [
                0.9614255765199151,
                0.34925373134328347
            ]
        ],
        [
            [
                1.0459119496855345,
                0.5313432835820896
            ],
            [
                1.070230607966457,
                0.541044776119403
            ],
            [
                1.0765199161425572,
                0.7276119402985074
            ]
        ],
        [
            [
                1.1352201257861634,
                1.1343283582089552
            ],
            [
                1.141509433962264,
                1.3208955223880599
            ],
            [
                0.9914046121593291,
                1.3201492537313435
            ]
        ],
        [
            [
                0.541090146750524,
                1.317910447761194
            ],
            [
                0.3909853249475891,
                1.3171641791044777
            ],
            [
                0.3675052410901467,
                1.2276119402985075
            ]
        ],
        [
            [
                0.2970649895178197,
                0.958955223880597
            ],
            [
                0.27358490566037735,
                0.8694029850746269
            ],
            [
                0.25513626834381553,
                0.8694029850746269
            ]
        ],
        [
            [
                0.19979035639412995,
                0.8694029850746269
            ],
            [
                0.1813417190775681,
                0.8694029850746269
            ],
            [
                0.15534591194968553,
                0.7992537313432836
            ]
        ],
        [
            [
                0.07735849056603773,
                0.5888059701492537
            ],
            [
                0.05136268343815513,
                0.5186567164179104
            ],
            [
                0.05387840670859538,
                0.4906716417910447
            ]
        ]
    ]
}
</property>
    <property name="kdenlive:collapsed">0</property>
   </filter>
   <filter id="filter270">
    <property name="mode">alpha</property>
    <property name="alpha_operation">sub</property>
    <property name="invert">0</property>
    <property name="feather">42</property>
    <property name="feather_passes">1</property>
    <property name="mlt_service">rotoscoping</property>
    <property name="kdenlive_id">rotoscoping</property>
    <property name="spline">{
    "0627": [
        [
            [
                0.2064989517819706,
                1.0902985074626865
            ],
            [
                0.22536687631027252,
                1.037313432835821
            ],
            [
                0.18972746331236895,
                0.9425373134328358
            ]
        ],
        [
            [
                0.08280922431865827,
                0.6582089552238806
            ],
            [
                0.04716981132075471,
                0.5634328358208955
            ],
            [
                0.04842767295597484,
                0.5223880597014925
            ]
        ],
        [
            [
                0.052201257861635215,
                0.39925373134328357
            ],
            [
                0.05345911949685534,
                0.3582089552238806
            ],
            [
                0.09790356394129977,
                0.3462686567164179
            ]
        ],
        [
            [
                0.24984062516066008,
                0.40256339216722925
            ],
            [
                0.2942850696051046,
                0.39062309365976655
            ],
            [
                0.33914880126128905,
                0.4637574220179756
            ]
        ],
        [
            [
                0.4177418589148347,
                0.5857872997607737
            ],
            [
                0.46260559057101935,
                0.6589216281189827
            ],
            [
                0.4781192174054006,
                0.6887723743876395
            ]
        ],
        [
            [
                0.5496993943873282,
                0.6295952503314028
            ],
            [
                0.5830779981723377,
                0.6179093847004294
            ],
            [
                0.6298399470010183,
                0.5255835479441563
            ]
        ],
        [
            [
                0.689937106918239,
                0.40746268656716417
            ],
            [
                0.7180293501048217,
                0.30597014925373134
            ],
            [
                0.7121593291404611,
                0.23059701492537313
            ]
        ],
        [
            [
                0.6945492662473794,
                0.004477611940298508
            ],
            [
                0.6886792452830188,
                -0.0708955223880597
            ],
            [
                0.5314465408805031,
                -0.11268656716417912
            ]
        ],
        [
            [
                0.059748427672955955,
                -0.2380597014925373
            ],
            [
                -0.09748427672955975,
                -0.27985074626865675
            ],
            [
                -0.13731656184486374,
                -0.019402985074626882
            ]
        ],
        [
            [
                -0.25681341719077566,
                0.7619402985074626
            ],
            [
                -0.2966457023060797,
                1.0223880597014925
            ],
            [
                -0.21111111111111114,
                1.078358208955224
            ]
        ],
        [
            [
                0.04549266247379455,
                1.2462686567164178
            ],
            [
                0.13102725366876308,
                1.3022388059701493
            ],
            [
                0.149895178197065,
                1.2492537313432837
            ]
        ]
    ],
    "0692": [
        [
            [
                0.2064989517819706,
                1.0902985074626865
            ],
            [
                0.22536687631027252,
                1.037313432835821
            ],
            [
                0.18972746331236895,
                0.9425373134328358
            ]
        ],
        [
            [
                0.08280922431865827,
                0.6582089552238806
            ],
            [
                0.04716981132075471,
                0.5634328358208955
            ],
            [
                0.04842767295597484,
                0.5223880597014925
            ]
        ],
        [
            [
                0.052201257861635215,
                0.39925373134328357
            ],
            [
                0.05345911949685534,
                0.3582089552238806
            ],
            [
                0.09790356394129977,
                0.3462686567164179
            ]
        ],
        [
            [
                0.24979064201212162,
                0.40251891089511566
            ],
            [
                0.2942350864565661,
                0.390578612387653
            ],
            [
                0.3390988181127506,
                0.463712940745862
            ]
        ],
        [
            [
                0.41740041928721155,
                0.5854477611940297
            ],
            [
                0.4622641509433962,
                0.6585820895522388
            ],
            [
                0.47777777777777747,
                0.6884328358208955
            ]
        ],
        [
            [
                0.5495098795263311,
                0.6290388995079103
            ],
            [
                0.5828092243186583,
                0.6175373134328358
            ],
            [
                0.6294883439297608,
                0.5251708080849159
            ]
        ],
        [
            [
                0.689937106918239,
                0.40746268656716417
            ],
            [
                0.7180293501048217,
                0.30597014925373134
            ],
            [
                0.7121593291404611,
                0.23059701492537313
            ]
        ],
        [
            [
                0.6945492662473794,
                0.004477611940298508
            ],
            [
                0.6886792452830188,
                -0.0708955223880597
            ],
            [
                0.5314465408805031,
                -0.11268656716417912
            ]
        ],
        [
            [
                0.059748427672955955,
                -0.2380597014925373
            ],
            [
                -0.09748427672955975,
                -0.27985074626865675
            ],
            [
                -0.13731656184486374,
                -0.019402985074626882
            ]
        ],
        [
            [
                -0.25681341719077566,
                0.7619402985074626
            ],
            [
                -0.2966457023060797,
                1.0223880597014925
            ],
            [
                -0.21111111111111114,
                1.078358208955224
            ]
        ],
        [
            [
                0.04549266247379455,
                1.2462686567164178
            ],
            [
                0.13102725366876308,
                1.3022388059701493
            ],
            [
                0.149895178197065,
                1.2492537313432837
            ]
        ]
    ],
    "0942": [
        [
            [
                0.2064989517819706,
                1.0902985074626865
            ],
            [
                0.22536687631027252,
                1.037313432835821
            ],
            [
                0.18972746331236895,
                0.9425373134328358
            ]
        ],
        [
            [
                0.08280922431865827,
                0.6582089552238806
            ],
            [
                0.04716981132075471,
                0.5634328358208955
            ],
            [
                0.04842767295597484,
                0.5223880597014925
            ]
        ],
        [
            [
                0.052201257861635215,
                0.39925373134328357
            ],
            [
                0.05345911949685534,
                0.3582089552238806
            ],
            [
                0.09790356394129977,
                0.3462686567164179
            ]
        ],
        [
            [
                0.2485410632986593,
                0.401406879092277
            ],
            [
                0.2929855077431038,
                0.3894665805848143
            ],
            [
                0.3378492393992883,
                0.46260090894302336
            ]
        ],
        [
            [
                0.42534146496410624,
                0.5968795727246122
            ],
            [
                0.4702051966202909,
                0.6700139010828212
            ],
            [
                0.48571882345467216,
                0.699864647351478
            ]
        ],
        [
            [
                0.5356394129979036,
                0.6361940298507462
            ],
            [
                0.5744234800838574,
                0.6119402985074627
            ],
            [
                0.619031869255508,
                0.5185570783683761
            ]
        ],
        [
            [
                0.689937106918239,
                0.40746268656716417
            ],
            [
                0.7180293501048217,
                0.30597014925373134
            ],
            [
                0.7121593291404611,
                0.23059701492537313
            ]
        ],
        [
            [
                0.6945492662473794,
                0.004477611940298508
            ],
            [
                0.6886792452830188,
                -0.0708955223880597
            ],
            [
                0.5314465408805031,
                -0.11268656716417912
            ]
        ],
        [
            [
                0.059748427672955955,
                -0.2380597014925373
            ],
            [
                -0.09748427672955975,
                -0.27985074626865675
            ],
            [
                -0.13731656184486374,
                -0.019402985074626882
            ]
        ],
        [
            [
                -0.25681341719077566,
                0.7619402985074626
            ],
            [
                -0.2966457023060797,
                1.0223880597014925
            ],
            [
                -0.21111111111111114,
                1.078358208955224
            ]
        ],
        [
            [
                0.04549266247379455,
                1.2462686567164178
            ],
            [
                0.13102725366876308,
                1.3022388059701493
            ],
            [
                0.149895178197065,
                1.2492537313432837
            ]
        ]
    ],
    "1111": [
        [
            [
                0.2064989517819706,
                1.0902985074626865
            ],
            [
                0.22536687631027252,
                1.037313432835821
            ],
            [
                0.18972746331236895,
                0.9425373134328358
            ]
        ],
        [
            [
                0.08280922431865827,
                0.6582089552238806
            ],
            [
                0.04716981132075471,
                0.5634328358208955
            ],
            [
                0.04842767295597484,
                0.5223880597014925
            ]
        ],
        [
            [
                0.052201257861635215,
                0.39925373134328357
            ],
            [
                0.05345911949685534,
                0.3582089552238806
            ],
            [
                0.09790356394129977,
                0.3462686567164179
            ]
        ],
        [
            [
                0.2476963480883588,
                0.4006551455935581
            ],
            [
                0.2921407925328033,
                0.3887148470860954
            ],
            [
                0.33700452418898774,
                0.4618491754443044
            ]
        ],
        [
            [
                0.4090146750524107,
                0.5630597014925373
            ],
            [
                0.45387840670859536,
                0.6361940298507462
            ],
            [
                0.4693920335429766,
                0.6660447761194029
            ]
        ],
        [
            [
                0.522936629595285,
                0.6092203850357041
            ],
            [
                0.559748427672956,
                0.5895522388059701
            ],
            [
                0.6079664570230607,
                0.5
            ]
        ],
        [
            [
                0.689937106918239,
                0.40746268656716417
            ],
            [
                0.7180293501048217,
                0.30597014925373134
            ],
            [
                0.7121593291404611,
                0.23059701492537313
            ]
        ],
        [
            [
                0.6945492662473794,
                0.004477611940298508
            ],
            [
                0.6886792452830188,
                -0.0708955223880597
            ],
            [
                0.5314465408805031,
                -0.11268656716417912
            ]
        ],
        [
            [
                0.059748427672955955,
                -0.2380597014925373
            ],
            [
                -0.09748427672955975,
                -0.27985074626865675
            ],
            [
                -0.13731656184486374,
                -0.019402985074626882
            ]
        ],
        [
            [
                -0.25681341719077566,
                0.7619402985074626
            ],
            [
                -0.2966457023060797,
                1.0223880597014925
            ],
            [
                -0.21111111111111114,
                1.078358208955224
            ]
        ],
        [
            [
                0.04549266247379455,
                1.2462686567164178
            ],
            [
                0.13102725366876308,
                1.3022388059701493
            ],
            [
                0.149895178197065,
                1.2492537313432837
            ]
        ]
    ],
    "1337": [
        [
            [
                0.2064989517819706,
                1.0902985074626865
            ],
            [
                0.22536687631027252,
                1.037313432835821
            ],
            [
                0.18972746331236895,
                0.9425373134328358
            ]
        ],
        [
            [
                0.08280922431865827,
                0.6582089552238806
            ],
            [
                0.04716981132075471,
                0.5634328358208955
            ],
            [
                0.04842767295597484,
                0.5223880597014925
            ]
        ],
        [
            [
                0.052201257861635215,
                0.39925373134328357
            ],
            [
                0.05345911949685534,
                0.3582089552238806
            ],
            [
                0.09790356394129977,
                0.3462686567164179
            ]
        ],
        [
            [
                0.24656672893138884,
                0.3996498688437919
            ],
            [
                0.2910111733758333,
                0.38770957033632925
            ],
            [
                0.33587490503201783,
                0.46084389869453823
            ]
        ],
        [
            [
                0.4188799862152148,
                0.5785391535473318
            ],
            [
                0.46374371787139945,
                0.6516734819055408
            ],
            [
                0.47925734470578063,
                0.6815242281741974
            ]
        ],
        [
            [
                0.5234776657015072,
                0.6142822123085674
            ],
            [
                0.5576519916142557,
                0.6007462686567164
            ],
            [
                0.6033777318284943,
                0.5097153956246165
            ]
        ],
        [
            [
                0.689937106918239,
                0.40746268656716417
            ],
            [
                0.7180293501048217,
                0.30597014925373134
            ],
            [
                0.7121593291404611,
                0.23059701492537313
            ]
        ],
        [
            [
                0.6945492662473794,
                0.004477611940298508
            ],
            [
                0.6886792452830188,
                -0.0708955223880597
            ],
            [
                0.5314465408805031,
                -0.11268656716417912
            ]
        ],
        [
            [
                0.059748427672955955,
                -0.2380597014925373
            ],
            [
                -0.09748427672955975,
                -0.27985074626865675
            ],
            [
                -0.13731656184486374,
                -0.019402985074626882
            ]
        ],
        [
            [
                -0.25681341719077566,
                0.7619402985074626
            ],
            [
                -0.2966457023060797,
                1.0223880597014925
            ],
            [
                -0.21111111111111114,
                1.078358208955224
            ]
        ],
        [
            [
                0.04549266247379455,
                1.2462686567164178
            ],
            [
                0.13102725366876308,
                1.3022388059701493
            ],
            [
                0.149895178197065,
                1.2492537313432837
            ]
        ]
    ],
    "1419": [
        [
            [
                0.2064989517819706,
                1.0902985074626865
            ],
            [
                0.22536687631027252,
                1.037313432835821
            ],
            [
                0.18972746331236895,
                0.9425373134328358
            ]
        ],
        [
            [
                0.08280922431865827,
                0.6582089552238806
            ],
            [
                0.04716981132075471,
                0.5634328358208955
            ],
            [
                0.04842767295597484,
                0.5223880597014925
            ]
        ],
        [
            [
                0.052201257861635215,
                0.39925373134328357
            ],
            [
                0.05345911949685534,
                0.3582089552238806
            ],
            [
                0.09790356394129977,
                0.3462686567164179
            ]
        ],
        [
            [
                0.2461568671133732,
                0.39928512241246084
            ],
            [
                0.2906013115578177,
                0.3873448239049982
            ],
            [
                0.3354650432140022,
                0.4604791522632072
            ]
        ],
        [
            [
                0.42245943539817904,
                0.5841555919034962
            ],
            [
                0.4673231670543637,
                0.6572899202617051
            ],
            [
                0.4828367938887449,
                0.6871406665303618
            ]
        ],
        [
            [
                0.5370132409808043,
                0.640042328477971
            ],
            [
                0.570230607966457,
                0.628731343283582
            ],
            [
                0.6362683438155137,
                0.5466417910447762
            ]
        ],
        [
            [
                0.689937106918239,
                0.40746268656716417
            ],
            [
                0.7180293501048217,
                0.30597014925373134
            ],
            [
                0.7121593291404611,
                0.23059701492537313
            ]
        ],
        [
            [
                0.6945492662473794,
                0.004477611940298508
            ],
            [
                0.6886792452830188,
                -0.0708955223880597
            ],
            [
                0.5314465408805031,
                -0.11268656716417912
            ]
        ],
        [
            [
                0.059748427672955955,
                -0.2380597014925373
            ],
            [
                -0.09748427672955975,
                -0.27985074626865675
            ],
            [
                -0.13731656184486374,
                -0.019402985074626882
            ]
        ],
        [
            [
                -0.25681341719077566,
                0.7619402985074626
            ],
            [
                -0.2966457023060797,
                1.0223880597014925
            ],
            [
                -0.21111111111111114,
                1.078358208955224
            ]
        ],
        [
            [
                0.04549266247379455,
                1.2462686567164178
            ],
            [
                0.13102725366876308,
                1.3022388059701493
            ],
            [
                0.149895178197065,
                1.2492537313432837
            ]
        ]
    ],
    "1443": [
        [
            [
                0.2064989517819706,
                1.0902985074626865
            ],
            [
                0.22536687631027252,
                1.037313432835821
            ],
            [
                0.18972746331236895,
                0.9425373134328358
            ]
        ],
        [
            [
                0.08280922431865827,
                0.6582089552238806
            ],
            [
                0.04716981132075471,
                0.5634328358208955
            ],
            [
                0.04842767295597484,
                0.5223880597014925
            ]
        ],
        [
            [
                0.052201257861635215,
                0.39925373134328357
            ],
            [
                0.05345911949685534,
                0.3582089552238806
            ],
            [
                0.09790356394129977,
                0.3462686567164179
            ]
        ],
        [
            [
                0.24603690755688082,
                0.39917836735938833
            ],
            [
                0.29048135200132535,
                0.3872380688519257
            ],
            [
                0.3353450836575098,
                0.4603723972101347
            ]
        ],
        [
            [
                0.4740041928721172,
                0.6749999999999997
            ],
            [
                0.5188679245283019,
                0.7481343283582089
            ],
            [
                0.5343815513626832,
                0.777985074626865
            ]
        ],
        [
            [
                0.5739809575476956,
                0.9621523151544186
            ],
            [
                0.6069182389937107,
                0.9514925373134329
            ],
            [
                0.6723556506345277,
                0.8690960162929589
            ]
        ],
        [
            [
                0.7329140461215933,
                0.8067164179104475
            ],
            [
                0.761006289308176,
                0.7052238805970149
            ],
            [
                0.7551362683438154,
                0.6298507462686564
            ]
        ],
        [
            [
                0.939832285115304,
                -0.04402985074626865
            ],
            [
                0.9339622641509434,
                -0.11940298507462685
            ],
            [
                0.7767295597484278,
                -0.16119402985074635
            ]
        ],
        [
            [
                0.059748427672955955,
                -0.2380597014925373
            ],
            [
                -0.09748427672955975,
                -0.27985074626865675
            ],
            [
                -0.13731656184486374,
                -0.019402985074626882
            ]
        ],
        [
            [
                -0.25681341719077566,
                0.7619402985074626
            ],
            [
                -0.2966457023060797,
                1.0223880597014925
            ],
            [
                -0.21111111111111114,
                1.078358208955224
            ]
        ],
        [
            [
                0.04549266247379455,
                1.2462686567164178
            ],
            [
                0.13102725366876308,
                1.3022388059701493
            ],
            [
                0.149895178197065,
                1.2492537313432837
            ]
        ]
    ],
    "1718": [
        [
            [
                0.2064989517819706,
                1.0902985074626865
            ],
            [
                0.22536687631027252,
                1.037313432835821
            ],
            [
                0.18972746331236895,
                0.9425373134328358
            ]
        ],
        [
            [
                0.08280922431865827,
                0.6582089552238806
            ],
            [
                0.04716981132075471,
                0.5634328358208955
            ],
            [
                0.04842767295597484,
                0.5223880597014925
            ]
        ],
        [
            [
                0.052201257861635215,
                0.39925373134328357
            ],
            [
                0.05345911949685534,
                0.3582089552238806
            ],
            [
                0.09790356394129977,
                0.3462686567164179
            ]
        ],
        [
            [
                0.24466237097207225,
                0.3979551323762658
            ],
            [
                0.2891068154165168,
                0.38601483386880314
            ],
            [
                0.3339705470727013,
                0.45914916222701213
            ]
        ],
        [
            [
                0.4767072333362819,
                0.6774055042936686
            ],
            [
                0.5215709649924666,
                0.750539832651878
            ],
            [
                0.5370845918268478,
                0.7803905789205341
            ]
        ],
        [
            [
                0.5646116546705106,
                0.9248398179613466
            ],
            [
                0.5943396226415094,
                0.9216417910447762
            ],
            [
                0.6528983193962484,
                0.8357279194010176
            ]
        ],
        [
            [
                0.7249979990479681,
                0.7331767152182821
            ],
            [
                0.7530902422345509,
                0.6316841779048495
            ],
            [
                0.7472202212701903,
                0.5563110435764911
            ]
        ],
        [
            [
                0.8946528944999795,
                -0.03509512051264108
            ],
            [
                0.888782873535619,
                -0.11046825484099929
            ],
            [
                0.7315501691331033,
                -0.15225929961711876
            ]
        ],
        [
            [
                0.059748427672955955,
                -0.2380597014925373
            ],
            [
                -0.09748427672955975,
                -0.27985074626865675
            ],
            [
                -0.13731656184486374,
                -0.019402985074626882
            ]
        ],
        [
            [
                -0.25681341719077566,
                0.7619402985074626
            ],
            [
                -0.2966457023060797,
                1.0223880597014925
            ],
            [
                -0.21111111111111114,
                1.078358208955224
            ]
        ],
        [
            [
                0.04549266247379455,
                1.2462686567164178
            ],
            [
                0.13102725366876308,
                1.3022388059701493
            ],
            [
                0.149895178197065,
                1.2492537313432837
            ]
        ]
    ],
    "1760": [
        [
            [
                0.2064989517819706,
                1.0902985074626865
            ],
            [
                0.22536687631027252,
                1.037313432835821
            ],
            [
                0.18972746331236895,
                0.9425373134328358
            ]
        ],
        [
            [
                0.08280922431865827,
                0.6582089552238806
            ],
            [
                0.04716981132075471,
                0.5634328358208955
            ],
            [
                0.04842767295597484,
                0.5223880597014925
            ]
        ],
        [
            [
                0.052201257861635215,
                0.39925373134328357
            ],
            [
                0.05345911949685534,
                0.3582089552238806
            ],
            [
                0.09790356394129977,
                0.3462686567164179
            ]
        ],
        [
            [
                0.2444524417482106,
                0.39776831103338894
            ],
            [
                0.28889688619265513,
                0.3858280125259263
            ],
            [
                0.3337606178488396,
                0.4589623408841353
            ]
        ],
        [
            [
                0.3585005274336097,
                0.49730912828787766
            ],
            [
                0.4033642590897944,
                0.5704434566460868
            ],
            [
                0.4716981132075472,
                0.6361940298507462
            ]
        ],
        [
            [
                0.5734875485996775,
                0.8882524438988606
            ],
            [
                0.6027253668763103,
                0.8861940298507462
            ],
            [
                0.6602334962666297,
                0.7997429628390679
            ]
        ],
        [
            [
                0.7234800838574423,
                0.4279850746268654
            ],
            [
                0.7515723270440251,
                0.32649253731343286
            ],
            [
                0.7457023060796645,
                0.25111940298507457
            ]
        ],
        [
            [
                0.772354334615512,
                -0.01987175152173415
            ],
            [
                0.7664843136511513,
                -0.09524488585009235
            ],
            [
                0.6092516092486358,
                -0.13703593062621183
            ]
        ],
        [
            [
                0.059748427672955955,
                -0.2380597014925373
            ],
            [
                -0.09748427672955975,
                -0.27985074626865675
            ],
            [
                -0.13731656184486374,
                -0.019402985074626882
            ]
        ],
        [
            [
                -0.25681341719077566,
                0.7619402985074626
            ],
            [
                -0.2966457023060797,
                1.0223880597014925
            ],
            [
                -0.21111111111111114,
                1.078358208955224
            ]
        ],
        [
            [
                0.04549266247379455,
                1.2462686567164178
            ],
            [
                0.13102725366876308,
                1.3022388059701493
            ],
            [
                0.149895178197065,
                1.2492537313432837
            ]
        ]
    ],
    "1774": [
        [
            [
                0.2064989517819706,
                1.0902985074626865
            ],
            [
                0.22536687631027252,
                1.037313432835821
            ],
            [
                0.18972746331236895,
                0.9425373134328358
            ]
        ],
        [
            [
                0.08280922431865827,
                0.6582089552238806
            ],
            [
                0.04716981132075471,
                0.5634328358208955
            ],
            [
                0.04842767295597484,
                0.5223880597014925
            ]
        ],
        [
            [
                0.052201257861635215,
                0.39925373134328357
            ],
            [
                0.05345911949685534,
                0.3582089552238806
            ],
            [
                0.09790356394129977,
                0.3462686567164179
            ]
        ],
        [
            [
                0.2443824653402567,
                0.3977060372524299
            ],
            [
                0.2888269097847012,
                0.38576573874496733
            ],
            [
                0.3336906414408857,
                0.45890006710317627
            ]
        ],
        [
            [
                0.319098292132719,
                0.43727700295261396
            ],
            [
                0.3639620237889037,
                0.5104113313108231
            ],
            [
                0.46153846153846156,
                0.4794776119402985
            ]
        ],
        [
            [
                0.5338186467158289,
                0.5035442147337535
            ],
            [
                0.5628930817610063,
                0.5018656716417911
            ],
            [
                0.6200510220298525,
                0.4152355395074727
            ]
        ],
        [
            [
                0.7020319303338171,
                0.34159012629161845
            ],
            [
                0.7301241735203998,
                0.24009758897818598
            ],
            [
                0.7242541525560392,
                0.1647244546498276
            ]
        ],
        [
            [
                0.731588147987356,
                -0.014797295191431836
            ],
            [
                0.7257181270229954,
                -0.09017042951979004
            ],
            [
                0.5684854226204799,
                -0.13196147429590951
            ]
        ],
        [
            [
                0.059748427672955955,
                -0.2380597014925373
            ],
            [
                -0.09748427672955975,
                -0.27985074626865675
            ],
            [
                -0.13731656184486374,
                -0.019402985074626882
            ]
        ],
        [
            [
                -0.25681341719077566,
                0.7619402985074626
            ],
            [
                -0.2966457023060797,
                1.0223880597014925
            ],
            [
                -0.21111111111111114,
                1.078358208955224
            ]
        ],
        [
            [
                0.04549266247379455,
                1.2462686567164178
            ],
            [
                0.13102725366876308,
                1.3022388059701493
            ],
            [
                0.149895178197065,
                1.2492537313432837
            ]
        ]
    ],
    "1783": [
        [
            [
                0.2064989517819706,
                1.0902985074626865
            ],
            [
                0.22536687631027252,
                1.037313432835821
            ],
            [
                0.18972746331236895,
                0.9425373134328358
            ]
        ],
        [
            [
                0.08280922431865827,
                0.6582089552238806
            ],
            [
                0.04716981132075471,
                0.5634328358208955
            ],
            [
                0.04842767295597484,
                0.5223880597014925
            ]
        ],
        [
            [
                0.052201257861635215,
                0.39925373134328357
            ],
            [
                0.05345911949685534,
                0.3582089552238806
            ],
            [
                0.09790356394129977,
                0.3462686567164179
            ]
        ],
        [
            [
                0.24433748050657206,
                0.3976660041075277
            ],
            [
                0.28878192495101657,
                0.3857257056000651
            ],
            [
                0.3336456566072011,
                0.4588600339582741
            ]
        ],
        [
            [
                0.2790356394129977,
                0.35970149253731337
            ],
            [
                0.3238993710691824,
                0.4328358208955224
            ],
            [
                0.44027461258204353,
                0.33974791344095095
            ]
        ],
        [
            [
                0.5276343706170923,
                0.3316582209314513
            ],
            [
                0.5566037735849056,
                0.33022388059701496
            ],
            [
                0.613536592275662,
                0.2434786351695713
            ]
        ],
        [
            [
                0.6882438316400581,
                0.28605051664753117
            ],
            [
                0.7163360748266409,
                0.18455797933409873
            ],
            [
                0.7104660538622802,
                0.10918484500574026
            ]
        ],
        [
            [
                0.7053813137263988,
                -0.011535144693380349
            ],
            [
                0.6995112927620382,
                -0.08690827902173855
            ],
            [
                0.5422785883595226,
                -0.128699323797858
            ]
        ],
        [
            [
                0.059748427672955955,
                -0.2380597014925373
            ],
            [
                -0.09748427672955975,
                -0.27985074626865675
            ],
            [
                -0.13731656184486374,
                -0.019402985074626882
            ]
        ],
        [
            [
                -0.25681341719077566,
                0.7619402985074626
            ],
            [
                -0.2966457023060797,
                1.0223880597014925
            ],
            [
                -0.21111111111111114,
                1.078358208955224
            ]
        ],
        [
            [
                0.04549266247379455,
                1.2462686567164178
            ],
            [
                0.13102725366876308,
                1.3022388059701493
            ],
            [
                0.149895178197065,
                1.2492537313432837
            ]
        ]
    ],
    "1786": [
        [
            [
                0.2064989517819706,
                1.0902985074626865
            ],
            [
                0.22536687631027252,
                1.037313432835821
            ],
            [
                0.18972746331236895,
                0.9425373134328358
            ]
        ],
        [
            [
                0.08280922431865827,
                0.6582089552238806
            ],
            [
                0.04716981132075471,
                0.5634328358208955
            ],
            [
                0.04842767295597484,
                0.5223880597014925
            ]
        ],
        [
            [
                0.052201257861635215,
                0.39925373134328357
            ],
            [
                0.05345911949685534,
                0.3582089552238806
            ],
            [
                0.09790356394129977,
                0.3462686567164179
            ]
        ],
        [
            [
                0.2443224855620105,
                0.3976526597258937
            ],
            [
                0.28876693000645504,
                0.38571236121843105
            ],
            [
                0.33363066166263955,
                0.45884668957664004
            ]
        ],
        [
            [
                0.2853249475890983,
                0.38582089552238796
            ],
            [
                0.330188679245283,
                0.45895522388059706
            ],
            [
                0.4528301886792453,
                0.34514925373134325
            ]
        ],
        [
            [
                0.5612123582487505,
                0.3241141334451113
            ],
            [
                0.590146750524109,
                0.32276119402985076
            ],
            [
                0.6470045286888355,
                0.23597757750469822
            ]
        ],
        [
            [
                0.6836477987421383,
                0.2675373134328354
            ],
            [
                0.7117400419287211,
                0.166044776119403
            ],
            [
                0.7058700209643605,
                0.09067164179104449
            ]
        ],
        [
            [
                0.6966457023060797,
                -0.010447761194029853
            ],
            [
                0.6907756813417191,
                -0.08582089552238806
            ],
            [
                0.5335429769392035,
                -0.12761194029850753
            ]
        ],
        [
            [
                0.059748427672955955,
                -0.2380597014925373
            ],
            [
                -0.09748427672955975,
                -0.27985074626865675
            ],
            [
                -0.13731656184486374,
                -0.019402985074626882
            ]
        ],
        [
            [
                -0.25681341719077566,
                0.7619402985074626
            ],
            [
                -0.2966457023060797,
                1.0223880597014925
            ],
            [
                -0.21111111111111114,
                1.078358208955224
            ]
        ],
        [
            [
                0.04549266247379455,
                1.2462686567164178
            ],
            [
                0.13102725366876308,
                1.3022388059701493
            ],
            [
                0.149895178197065,
                1.2492537313432837
            ]
        ]
    ],
    "1798": [
        [
            [
                0.2064989517819706,
                1.0902985074626865
            ],
            [
                0.22536687631027252,
                1.037313432835821
            ],
            [
                0.18972746331236895,
                0.9425373134328358
            ]
        ],
        [
            [
                0.08280922431865827,
                0.6582089552238806
            ],
            [
                0.04716981132075471,
                0.5634328358208955
            ],
            [
                0.04842767295597484,
                0.5223880597014925
            ]
        ],
        [
            [
                0.052201257861635215,
                0.39925373134328357
            ],
            [
                0.05345911949685534,
                0.3582089552238806
            ],
            [
                0.09790356394129977,
                0.3462686567164179
            ]
        ],
        [
            [
                0.24696016771488458,
                0.39440298507462684
            ],
            [
                0.29140461215932917,
                0.3824626865671642
            ],
            [
                0.31341719077568136,
                0.3694029850746269
            ]
        ],
        [
            [
                0.3626834381551363,
                0.3880597014925374
            ],
            [
                0.40356394129979034,
                0.35634328358208955
            ],
            [
                0.5241090146750523,
                0.31156716417910446
            ]
        ],
        [
            [
                0.56868992722402,
                0.30886315663408115
            ],
            [
                0.5974842767295597,
                0.30783582089552236
            ],
            [
                0.6540418927901664,
                0.2208987199795356
            ]
        ],
        [
            [
                0.670020964360587,
                0.2600746268656712
            ],
            [
                0.6981132075471698,
                0.15858208955223882
            ],
            [
                0.6922431865828091,
                0.08320895522388033
            ]
        ],
        [
            [
                0.6966238264515542,
                -0.01029201817001947
            ],
            [
                0.6907538054871936,
                -0.08566515249837767
            ],
            [
                0.533521101084678,
                -0.12745619727449714
            ]
        ],
        [
            [
                0.059748427672955955,
                -0.2380597014925373
            ],
            [
                -0.09748427672955975,
                -0.27985074626865675
            ],
            [
                -0.13731656184486374,
                -0.019402985074626882
            ]
        ],
        [
            [
                -0.25681341719077566,
                0.7619402985074626
            ],
            [
                -0.2966457023060797,
                1.0223880597014925
            ],
            [
                -0.21111111111111114,
                1.078358208955224
            ]
        ],
        [
            [
                0.04549266247379455,
                1.2462686567164178
            ],
            [
                0.13102725366876308,
                1.3022388059701493
            ],
            [
                0.149895178197065,
                1.2492537313432837
            ]
        ]
    ],
    "1802": [
        [
            [
                0.2064989517819706,
                1.0902985074626865
            ],
            [
                0.22536687631027252,
                1.037313432835821
            ],
            [
                0.18972746331236895,
                0.9425373134328358
            ]
        ],
        [
            [
                0.08280922431865827,
                0.6582089552238806
            ],
            [
                0.04716981132075471,
                0.5634328358208955
            ],
            [
                0.04842767295597484,
                0.5223880597014925
            ]
        ],
        [
            [
                0.052201257861635215,
                0.39925373134328357
            ],
            [
                0.05345911949685534,
                0.3582089552238806
            ],
            [
                0.09790356394129977,
                0.3462686567164179
            ]
        ],
        [
            [
                0.1662473794549265,
                0.27873134328358184
            ],
            [
                0.21069182389937108,
                0.2667910447761194
            ],
            [
                0.2327847229130513,
                0.2540343099965897
            ]
        ],
        [
            [
                0.3710551815867332,
                0.30187026204653367
            ],
            [
                0.41194968553459116,
                0.2705223880597015
            ],
            [
                0.532125579835896,
                0.22600857749914752
            ]
        ],
        [
            [
                0.5393865033254901,
                0.2882322340154791
            ],
            [
                0.5681341719077567,
                0.2873134328358209
            ],
            [
                0.624591733933657,
                0.20032517045622278
            ]
        ],
        [
            [
                0.6511530398322852,
                0.23022388059701435
            ],
            [
                0.679245283018868,
                0.1287313432835821
            ],
            [
                0.6733752620545074,
                0.05335820895522354
            ]
        ],
        [
            [
                0.6966165345000456,
                -0.010240103828682677
            ],
            [
                0.6907465135356851,
                -0.08561323815704087
            ],
            [
                0.5335138091331694,
                -0.12740428293316033
            ]
        ],
        [
            [
                0.059748427672955955,
                -0.2380597014925373
            ],
            [
                -0.09748427672955975,
                -0.27985074626865675
            ],
            [
                -0.13731656184486374,
                -0.019402985074626882
            ]
        ],
        [
            [
                -0.25681341719077566,
                0.7619402985074626
            ],
            [
                -0.2966457023060797,
                1.0223880597014925
            ],
            [
                -0.21111111111111114,
                1.078358208955224
            ]
        ],
        [
            [
                0.04549266247379455,
                1.2462686567164178
            ],
            [
                0.13102725366876308,
                1.3022388059701493
            ],
            [
                0.149895178197065,
                1.2492537313432837
            ]
        ]
    ],
    "1811": [
        [
            [
                0.2064989517819706,
                1.0902985074626865
            ],
            [
                0.22536687631027252,
                1.037313432835821
            ],
            [
                0.18972746331236895,
                0.9425373134328358
            ]
        ],
        [
            [
                0.08280922431865827,
                0.6582089552238806
            ],
            [
                0.04716981132075471,
                0.5634328358208955
            ],
            [
                0.04842767295597484,
                0.5223880597014925
            ]
        ],
        [
            [
                0.052201257861635215,
                0.39925373134328357
            ],
            [
                0.05345911949685534,
                0.3582089552238806
            ],
            [
                0.09790356394129977,
                0.3462686567164179
            ]
        ],
        [
            [
                0.19039832285115293,
                0.32238805970149226
            ],
            [
                0.23484276729559747,
                0.31044776119402984
            ],
            [
                0.25711638720326585,
                0.29837270151876794
            ]
        ],
        [
            [
                0.3532039732805724,
                0.3141007397109358
            ],
            [
                0.3941299790356394,
                0.2835820895522388
            ],
            [
                0.5050048155394181,
                0.23292907168900664
            ]
        ],
        [
            [
                0.5360953089877599,
                0.2987342999146693
            ],
            [
                0.5647379454926624,
                0.2980597014925373
            ],
            [
                0.6209703859404728,
                0.21095632581981363
            ]
        ],
        [
            [
                0.6514608498885229,
                0.23163053778725362
            ],
            [
                0.6795530930751057,
                0.13013800047382137
            ],
            [
                0.6736830721107451,
                0.05476486614546282
            ]
        ],
        [
            [
                0.6966001276091515,
                -0.010123296560674889
            ],
            [
                0.6907301066447908,
                -0.0854964308890331
            ],
            [
                0.5334974022422753,
                -0.12728747566515256
            ]
        ],
        [
            [
                0.059748427672955955,
                -0.2380597014925373
            ],
            [
                -0.09748427672955975,
                -0.27985074626865675
            ],
            [
                -0.13731656184486374,
                -0.019402985074626882
            ]
        ],
        [
            [
                -0.25681341719077566,
                0.7619402985074626
            ],
            [
                -0.2966457023060797,
                1.0223880597014925
            ],
            [
                -0.21111111111111114,
                1.078358208955224
            ]
        ],
        [
            [
                0.04549266247379455,
                1.2462686567164178
            ],
            [
                0.13102725366876308,
                1.3022388059701493
            ],
            [
                0.149895178197065,
                1.2492537313432837
            ]
        ]
    ],
    "1819": [
        [
            [
                0.2064989517819706,
                1.0902985074626865
            ],
            [
                0.22536687631027252,
                1.037313432835821
            ],
            [
                0.18972746331236895,
                0.9425373134328358
            ]
        ],
        [
            [
                0.08280922431865827,
                0.6582089552238806
            ],
            [
                0.04716981132075471,
                0.5634328358208955
            ],
            [
                0.04842767295597484,
                0.5223880597014925
            ]
        ],
        [
            [
                0.052201257861635215,
                0.39925373134328357
            ],
            [
                0.05345911949685534,
                0.3582089552238806
            ],
            [
                0.09790356394129977,
                0.3462686567164179
            ]
        ],
        [
            [
                0.16624737945492649,
                0.30298507462686547
            ],
            [
                0.21069182389937108,
                0.291044776119403
            ],
            [
                0.2331260846016955,
                0.279575649870157
            ]
        ],
        [
            [
                0.34898309955676404,
                0.33015469663982394
            ],
            [
                0.389937106918239,
                0.3003731343283582
            ],
            [
                0.49254433649088303,
                0.24426304330718981
            ]
        ],
        [
            [
                0.5331698029097776,
                0.3080694696028384
            ],
            [
                0.5617190775681341,
                0.3076119402985075
            ],
            [
                0.6177514099465314,
                0.22040624169856107
            ]
        ],
        [
            [
                0.6517344588274009,
                0.232880899734133
            ],
            [
                0.6798267020139837,
                0.13138836242070073
            ],
            [
                0.673956681049623,
                0.05601522809234218
            ]
        ],
        [
            [
                0.6965855437061345,
                -0.0100194678780013
            ],
            [
                0.6907155227417738,
                -0.08539260220635951
            ],
            [
                0.5334828183392583,
                -0.12718364698247894
            ]
        ],
        [
            [
                0.059748427672955955,
                -0.2380597014925373
            ],
            [
                -0.09748427672955975,
                -0.27985074626865675
            ],
            [
                -0.13731656184486374,
                -0.019402985074626882
            ]
        ],
        [
            [
                -0.25681341719077566,
                0.7619402985074626
            ],
            [
                -0.2966457023060797,
                1.0223880597014925
            ],
            [
                -0.21111111111111114,
                1.078358208955224
            ]
        ],
        [
            [
                0.04549266247379455,
                1.2462686567164178
            ],
            [
                0.13102725366876308,
                1.3022388059701493
            ],
            [
                0.149895178197065,
                1.2492537313432837
            ]
        ]
    ],
    "1827": [
        [
            [
                0.2064989517819706,
                1.0902985074626865
            ],
            [
                0.22536687631027252,
                1.037313432835821
            ],
            [
                0.18972746331236895,
                0.9425373134328358
            ]
        ],
        [
            [
                0.08280922431865827,
                0.6582089552238806
            ],
            [
                0.04716981132075471,
                0.5634328358208955
            ],
            [
                0.04842767295597484,
                0.5223880597014925
            ]
        ],
        [
            [
                0.052201257861635215,
                0.39925373134328357
            ],
            [
                0.05345911949685534,
                0.3582089552238806
            ],
            [
                0.09790356394129977,
                0.3462686567164179
            ]
        ],
        [
            [
                0.23333333333333325,
                0.3999999999999997
            ],
            [
                0.2777777777777778,
                0.3880597014925373
            ],
            [
                0.30037267927475836,
                0.37719650866930704
            ]
        ],
        [
            [
                0.357340842185157,
                0.41710417595677163
            ],
            [
                0.39832285115303984,
                0.3880597014925373
            ],
            [
                0.49266247379454925,
                0.32649253731343286
            ]
        ],
        [
            [
                0.5302442968317952,
                0.31740463929100743
            ],
            [
                0.5587002096436059,
                0.31716417910447764
            ],
            [
                0.6145324339525899,
                0.2298561575773085
            ]
        ],
        [
            [
                0.6520080677662788,
                0.23413126168101236
            ],
            [
                0.6801003109528616,
                0.1326387243675801
            ],
            [
                0.674230289988501,
                0.05726559003922155
            ]
        ],
        [
            [
                0.6965709598031175,
                -0.009915639195327713
            ],
            [
                0.6907009388387568,
                -0.08528877352368591
            ],
            [
                0.5334682344362413,
                -0.12707981829980536
            ]
        ],
        [
            [
                0.059748427672955955,
                -0.2380597014925373
            ],
            [
                -0.09748427672955975,
                -0.27985074626865675
            ],
            [
                -0.13731656184486374,
                -0.019402985074626882
            ]
        ],
        [
            [
                -0.25681341719077566,
                0.7619402985074626
            ],
            [
                -0.2966457023060797,
                1.0223880597014925
            ],
            [
                -0.21111111111111114,
                1.078358208955224
            ]
        ],
        [
            [
                0.04549266247379455,
                1.2462686567164178
            ],
            [
                0.13102725366876308,
                1.3022388059701493
            ],
            [
                0.149895178197065,
                1.2492537313432837
            ]
        ]
    ],
    "1836": [
        [
            [
                0.2064989517819706,
                1.0902985074626865
            ],
            [
                0.22536687631027252,
                1.037313432835821
            ],
            [
                0.18972746331236895,
                0.9425373134328358
            ]
        ],
        [
            [
                0.08280922431865827,
                0.6582089552238806
            ],
            [
                0.04716981132075471,
                0.5634328358208955
            ],
            [
                0.04842767295597484,
                0.5223880597014925
            ]
        ],
        [
            [
                0.052201257861635215,
                0.39925373134328357
            ],
            [
                0.05345911949685534,
                0.3582089552238806
            ],
            [
                0.09790356394129977,
                0.3462686567164179
            ]
        ],
        [
            [
                0.23337586697744575,
                0.3999394371694276
            ],
            [
                0.2778203114218903,
                0.3879991386619652
            ],
            [
                0.30059593381285893,
                0.3778176209430027
            ]
        ],
        [
            [
                0.3584067083960504,
                0.4193030936572422
            ],
            [
                0.3994202191711421,
                0.3910878430211432
            ],
            [
                0.49312013580519964,
                0.33026257351654714
            ]
        ],
        [
            [
                0.5418797272320106,
                0.3432798395185558
            ],
            [
                0.570230607966457,
                0.34328358208955223
            ],
            [
                0.6258377106973513,
                0.25586044726925744
            ]
        ],
        [
            [
                0.609224318658281,
                0.14067164179104405
            ],
            [
                0.6373165618448637,
                0.03917910447761194
            ],
            [
                0.6314465408805031,
                -0.03619402985074671
            ]
        ],
        [
            [
                0.6965545529122232,
                -0.009798831927319925
            ],
            [
                0.6906845319478626,
                -0.08517196625567813
            ],
            [
                0.533451827545347,
                -0.12696301103179758
            ]
        ],
        [
            [
                0.059748427672955955,
                -0.2380597014925373
            ],
            [
                -0.09748427672955975,
                -0.27985074626865675
            ],
            [
                -0.13731656184486374,
                -0.019402985074626882
            ]
        ],
        [
            [
                -0.25681341719077566,
                0.7619402985074626
            ],
            [
                -0.2966457023060797,
                1.0223880597014925
            ],
            [
                -0.21111111111111114,
                1.078358208955224
            ]
        ],
        [
            [
                0.04549266247379455,
                1.2462686567164178
            ],
            [
                0.13102725366876308,
                1.3022388059701493
            ],
            [
                0.149895178197065,
                1.2492537313432837
            ]
        ]
    ],
    "1853": [
        [
            [
                0.2064989517819706,
                1.0902985074626865
            ],
            [
                0.22536687631027252,
                1.037313432835821
            ],
            [
                0.18972746331236895,
                0.9425373134328358
            ]
        ],
        [
            [
                0.08280922431865827,
                0.6582089552238806
            ],
            [
                0.04716981132075471,
                0.5634328358208955
            ],
            [
                0.04842767295597484,
                0.5223880597014925
            ]
        ],
        [
            [
                0.052201257861635215,
                0.39925373134328357
            ],
            [
                0.05345911949685534,
                0.3582089552238806
            ],
            [
                0.09790356394129977,
                0.3462686567164179
            ]
        ],
        [
            [
                0.2334562083052138,
                0.39982504071168024
            ],
            [
                0.27790065274965836,
                0.38788474220421787
            ],
            [
                0.30101763682927124,
                0.37899083301553893
            ]
        ],
        [
            [
                0.360420011238849,
                0.42345660486924225
            ],
            [
                0.4014930254275576,
                0.3968076659085098
            ],
            [
                0.49398460849198383,
                0.33738375301131857
            ]
        ],
        [
            [
                0.54262891208407,
                0.35045934104892706
            ],
            [
                0.5707813988946064,
                0.350924355495251
            ],
            [
                0.6259632719779977,
                0.26328378445460776
            ]
        ],
        [
            [
                0.6104716981132076,
                0.14479477611940225
            ],
            [
                0.6385639412997903,
                0.04330223880597015
            ],
            [
                0.6326939203354297,
                -0.032070895522388496
            ]
        ],
        [
            [
                0.696523562118312,
                -0.009578195976638549
            ],
            [
                0.6906535411539514,
                -0.08495133030499676
            ],
            [
                0.5334208367514358,
                -0.12674237508111622
            ]
        ],
        [
            [
                0.059748427672955955,
                -0.2380597014925373
            ],
            [
                -0.09748427672955975,
                -0.27985074626865675
            ],
            [
                -0.13731656184486374,
                -0.019402985074626882
            ]
        ],
        [
            [
                -0.25681341719077566,
                0.7619402985074626
            ],
            [
                -0.2966457023060797,
                1.0223880597014925
            ],
            [
                -0.21111111111111114,
                1.078358208955224
            ]
        ],
        [
            [
                0.04549266247379455,
                1.2462686567164178
            ],
            [
                0.13102725366876308,
                1.3022388059701493
            ],
            [
                0.149895178197065,
                1.2492537313432837
            ]
        ]
    ],
    "1856": [
        [
            [
                0.2064989517819706,
                1.0902985074626865
            ],
            [
                0.22536687631027252,
                1.037313432835821
            ],
            [
                0.18972746331236895,
                0.9425373134328358
            ]
        ],
        [
            [
                0.08280922431865827,
                0.6582089552238806
            ],
            [
                0.04716981132075471,
                0.5634328358208955
            ],
            [
                0.04842767295597484,
                0.5223880597014925
            ]
        ],
        [
            [
                0.052201257861635215,
                0.39925373134328357
            ],
            [
                0.05345911949685534,
                0.3582089552238806
            ],
            [
                0.09790356394129977,
                0.3462686567164179
            ]
        ],
        [
            [
                0.2532494758909852,
                0.3440298507462684
            ],
            [
                0.2976939203354298,
                0.332089552238806
            ],
            [
                0.3208711447130387,
                0.32342286808488296
            ]
        ],
        [
            [
                0.40146750524109015,
                0.36007462686567165
            ],
            [
                0.45178197064989517,
                0.34701492537313433
            ],
            [
                0.519916142557652,
                0.332089552238806
            ]
        ],
        [
            [
                0.54276112117561,
                0.35172631190722786
            ],
            [
                0.5708785972936917,
                0.3522727272727272
            ],
            [
                0.625985429851053,
                0.2645937851343755
            ]
        ],
        [
            [
                0.6106918238993712,
                0.14552238805970077
            ],
            [
                0.6387840670859539,
                0.04402985074626865
            ],
            [
                0.6329140461215933,
                -0.03134328358208999
            ]
        ],
        [
            [
                0.6965180931546807,
                -0.009539260220635953
            ],
            [
                0.6906480721903201,
                -0.08491239454899417
            ],
            [
                0.5334153677878045,
                -0.1267034393251136
            ]
        ],
        [
            [
                0.059748427672955955,
                -0.2380597014925373
            ],
            [
                -0.09748427672955975,
                -0.27985074626865675
            ],
            [
                -0.13731656184486374,
                -0.019402985074626882
            ]
        ],
        [
            [
                -0.25681341719077566,
                0.7619402985074626
            ],
            [
                -0.2966457023060797,
                1.0223880597014925
            ],
            [
                -0.21111111111111114,
                1.078358208955224
            ]
        ],
        [
            [
                0.04549266247379455,
                1.2462686567164178
            ],
            [
                0.13102725366876308,
                1.3022388059701493
            ],
            [
                0.149895178197065,
                1.2492537313432837
            ]
        ]
    ],
    "1857": [
        [
            [
                0.2064989517819706,
                1.0902985074626865
            ],
            [
                0.22536687631027252,
                1.037313432835821
            ],
            [
                0.18972746331236895,
                0.9425373134328358
            ]
        ],
        [
            [
                0.08280922431865827,
                0.6582089552238806
            ],
            [
                0.04716981132075471,
                0.5634328358208955
            ],
            [
                0.04842767295597484,
                0.5223880597014925
            ]
        ],
        [
            [
                0.052201257861635215,
                0.39925373134328357
            ],
            [
                0.05345911949685534,
                0.3582089552238806
            ],
            [
                0.09790356394129977,
                0.3462686567164179
            ]
        ],
        [
            [
                0.2469601677148846,
                0.3141791044776116
            ],
            [
                0.29140461215932917,
                0.30223880597014924
            ],
            [
                0.3146019166362701,
                0.2936478634944782
            ]
        ],
        [
            [
                0.3763153195123845,
                0.3301440713101161
            ],
            [
                0.42662473794549266,
                0.31716417910447764
            ],
            [
                0.49471018712632964,
                0.3022802653399668
            ]
        ],
        [
            [
                0.5428051908727899,
                0.3521486355266615
            ],
            [
                0.5709109967600534,
                0.352722184531886
            ],
            [
                0.6259928158087381,
                0.26503045202763137
            ]
        ],
        [
            [
                0.6107651991614257,
                0.1457649253731336
            ],
            [
                0.6388574423480085,
                0.04427238805970149
            ],
            [
                0.6329874213836478,
                -0.03110074626865715
            ]
        ],
        [
            [
                0.6965162701668035,
                -0.009526281635301753
            ],
            [
                0.6906462492024429,
                -0.08489941596365996
            ],
            [
                0.5334135447999273,
                -0.1266904607397794
            ]
        ],
        [
            [
                0.059748427672955955,
                -0.2380597014925373
            ],
            [
                -0.09748427672955975,
                -0.27985074626865675
            ],
            [
                -0.13731656184486374,
                -0.019402985074626882
            ]
        ],
        [
            [
                -0.25681341719077566,
                0.7619402985074626
            ],
            [
                -0.2966457023060797,
                1.0223880597014925
            ],
            [
                -0.21111111111111114,
                1.078358208955224
            ]
        ],
        [
            [
                0.04549266247379455,
                1.2462686567164178
            ],
            [
                0.13102725366876308,
                1.3022388059701493
            ],
            [
                0.149895178197065,
                1.2492537313432837
            ]
        ]
    ],
    "1858": [
        [
            [
                0.2064989517819706,
                1.0902985074626865
            ],
            [
                0.22536687631027252,
                1.037313432835821
            ],
            [
                0.18972746331236895,
                0.9425373134328358
            ]
        ],
        [
            [
                0.08280922431865827,
                0.6582089552238806
            ],
            [
                0.04716981132075471,
                0.5634328358208955
            ],
            [
                0.04842767295597484,
                0.5223880597014925
            ]
        ],
        [
            [
                0.052201257861635215,
                0.39925373134328357
            ],
            [
                0.05345911949685534,
                0.3582089552238806
            ],
            [
                0.09790356394129977,
                0.3462686567164179
            ]
        ],
        [
            [
                0.25322229986800204,
                0.3441196793808731
            ],
            [
                0.29766674431244666,
                0.3321793808734107
            ],
            [
                0.3208841288887196,
                0.3236641800759916
            ]
        ],
        [
            [
                0.35116313378367886,
                0.30021351575456046
            ],
            [
                0.40146750524109015,
                0.2873134328358209
            ],
            [
                0.4695042316950072,
                0.27247097844112766
            ]
        ],
        [
            [
                0.54284926056997,
                0.3525709591460951
            ],
            [
                0.5709433962264151,
                0.3531716417910447
            ],
            [
                0.6260002017664232,
                0.26546711892088726
            ]
        ],
        [
            [
                0.6108385744234802,
                0.14600746268656645
            ],
            [
                0.638930817610063,
                0.044514925373134326
            ],
            [
                0.6330607966457024,
                -0.030858208955224314
            ]
        ],
        [
            [
                0.6965144471789263,
                -0.009513303049967557
            ],
            [
                0.6906444262145658,
                -0.08488643737832577
            ],
            [
                0.5334117218120501,
                -0.12667748215444521
            ]
        ],
        [
            [
                0.059748427672955955,
                -0.2380597014925373
            ],
            [
                -0.09748427672955975,
                -0.27985074626865675
            ],
            [
                -0.13731656184486374,
                -0.019402985074626882
            ]
        ],
        [
            [
                -0.25681341719077566,
                0.7619402985074626
            ],
            [
                -0.2966457023060797,
                1.0223880597014925
            ],
            [
                -0.21111111111111114,
                1.078358208955224
            ]
        ],
        [
            [
                0.04549266247379455,
                1.2462686567164178
            ],
            [
                0.13102725366876308,
                1.3022388059701493
            ],
            [
                0.149895178197065,
                1.2492537313432837
            ]
        ]
    ],
    "1863": [
        [
            [
                0.2064989517819706,
                1.0902985074626865
            ],
            [
                0.22536687631027252,
                1.037313432835821
            ],
            [
                0.18972746331236895,
                0.9425373134328358
            ]
        ],
        [
            [
                0.08280922431865827,
                0.6582089552238806
            ],
            [
                0.04716981132075471,
                0.5634328358208955
            ],
            [
                0.04842767295597484,
                0.5223880597014925
            ]
        ],
        [
            [
                0.052201257861635215,
                0.39925373134328357
            ],
            [
                0.05345911949685534,
                0.3582089552238806
            ],
            [
                0.09790356394129977,
                0.3462686567164179
            ]
        ],
        [
            [
                0.24381551362683426,
                0.40373134328358184
            ],
            [
                0.28825995807127885,
                0.3917910447761194
            ],
            [
                0.3115777431442118,
                0.3836545523699602
            ]
        ],
        [
            [
                0.4560101715971736,
                0.4378741708126035
            ],
            [
                0.5062893081761006,
                0.4253731343283582
            ],
            [
                0.5740824209954182,
                0.4107379767827528
            ]
        ],
        [
            [
                0.5987985970490087,
                0.387323350648962
            ],
            [
                0.6268343815513627,
                0.3880597014925373
            ],
            [
                0.6817661195479875,
                0.3002912267928655
            ]
        ],
        [
            [
                0.6112054507337528,
                0.14722014925373064
            ],
            [
                0.6392976939203355,
                0.04572761194029851
            ],
            [
                0.6334276729559749,
                -0.029645522388060133
            ]
        ],
        [
            [
                0.6965053322395407,
                -0.009448410123296563
            ],
            [
                0.6906353112751801,
                -0.08482154445165477
            ],
            [
                0.5334026068726645,
                -0.1266125892277742
            ]
        ],
        [
            [
                0.059748427672955955,
                -0.2380597014925373
            ],
            [
                -0.09748427672955975,
                -0.27985074626865675
            ],
            [
                -0.13731656184486374,
                -0.019402985074626882
            ]
        ],
        [
            [
                -0.25681341719077566,
                0.7619402985074626
            ],
            [
                -0.2966457023060797,
                1.0223880597014925
            ],
            [
                -0.21111111111111114,
                1.078358208955224
            ]
        ],
        [
            [
                0.04549266247379455,
                1.2462686567164178
            ],
            [
                0.13102725366876308,
                1.3022388059701493
            ],
            [
                0.149895178197065,
                1.2492537313432837
            ]
        ]
    ],
    "1867": [
        [
            [
                0.2064989517819706,
                1.0902985074626865
            ],
            [
                0.22536687631027252,
                1.037313432835821
            ],
            [
                0.18972746331236895,
                0.9425373134328358
            ]
        ],
        [
            [
                0.08280922431865827,
                0.6582089552238806
            ],
            [
                0.04716981132075471,
                0.5634328358208955
            ],
            [
                0.04842767295597484,
                0.5223880597014925
            ]
        ],
        [
            [
                0.052201257861635215,
                0.39925373134328357
            ],
            [
                0.05345911949685534,
                0.3582089552238806
            ],
            [
                0.09790356394129977,
                0.3462686567164179
            ]
        ],
        [
            [
                0.2437959755461381,
                0.40368961344257254
            ],
            [
                0.28824041999058264,
                0.3917493149351101
            ],
            [
                0.31163852546084375,
                0.3839157892419588
            ]
        ],
        [
            [
                0.376365789269353,
                0.5606892620232172
            ],
            [
                0.42662473794549266,
                0.5485074626865672
            ],
            [
                0.49422295985713127,
                0.5340381426202322
            ]
        ],
        [
            [
                0.5894113157081307,
                0.42639392056767333
            ],
            [
                0.6174004192872117,
                0.42723880597014924
            ],
            [
                0.6722321032491299,
                0.33941916980686604
            ]
        ],
        [
            [
                0.6114989517819709,
                0.148190298507462
            ],
            [
                0.6395911949685537,
                0.04669776119402985
            ],
            [
                0.633721174004193,
                -0.028675373134328788
            ]
        ],
        [
            [
                0.6964980402880322,
                -0.009396495781959769
            ],
            [
                0.6906280193236716,
                -0.08476963011031799
            ],
            [
                0.533395314921156,
                -0.1265606748864374
            ]
        ],
        [
            [
                0.059748427672955955,
                -0.2380597014925373
            ],
            [
                -0.09748427672955975,
                -0.27985074626865675
            ],
            [
                -0.13731656184486374,
                -0.019402985074626882
            ]
        ],
        [
            [
                -0.25681341719077566,
                0.7619402985074626
            ],
            [
                -0.2966457023060797,
                1.0223880597014925
            ],
            [
                -0.21111111111111114,
                1.078358208955224
            ]
        ],
        [
            [
                0.04549266247379455,
                1.2462686567164178
            ],
            [
                0.13102725366876308,
                1.3022388059701493
            ],
            [
                0.149895178197065,
                1.2492537313432837
            ]
        ]
    ],
    "1870": [
        [
            [
                0.2064989517819706,
                1.0902985074626865
            ],
            [
                0.22536687631027252,
                1.037313432835821
            ],
            [
                0.18972746331236895,
                0.9425373134328358
            ]
        ],
        [
            [
                0.08280922431865827,
                0.6582089552238806
            ],
            [
                0.04716981132075471,
                0.5634328358208955
            ],
            [
                0.04842767295597484,
                0.5223880597014925
            ]
        ],
        [
            [
                0.052201257861635215,
                0.39925373134328357
            ],
            [
                0.05345911949685534,
                0.3582089552238806
            ],
            [
                0.09790356394129977,
                0.3462686567164179
            ]
        ],
        [
            [
                0.24378132198561595,
                0.4036583160618155
            ],
            [
                0.2882257664300605,
                0.3917180175543531
            ],
            [
                0.31168411219831765,
                0.38411171689595774
            ]
        ],
        [
            [
                0.3766809813816458,
                0.5610467094679394
            ],
            [
                0.4269247891306948,
                0.5491043379919859
            ],
            [
                0.4943768428615741,
                0.5347593960351036
            ]
        ],
        [
            [
                0.5810605821657846,
                0.40205878830521413
            ],
            [
                0.6090146750524109,
                0.4029850746268657
            ],
            [
                0.6637713184882992,
                0.3151270673658737
            ]
        ],
        [
            [
                0.6117190775681344,
                0.14891791044776048
            ],
            [
                0.6398113207547171,
                0.047425373134328354
            ],
            [
                0.6339412997903565,
                -0.027947761194030283
            ]
        ],
        [
            [
                0.6964925713244008,
                -0.009357560025957173
            ],
            [
                0.6906225503600402,
                -0.0847306943543154
            ],
            [
                0.5333898459575246,
                -0.1265217391304348
            ]
        ],
        [
            [
                0.059748427672955955,
                -0.2380597014925373
            ],
            [
                -0.09748427672955975,
                -0.27985074626865675
            ],
            [
                -0.13731656184486374,
                -0.019402985074626882
            ]
        ],
        [
            [
                -0.25681341719077566,
                0.7619402985074626
            ],
            [
                -0.2966457023060797,
                1.0223880597014925
            ],
            [
                -0.21111111111111114,
                1.078358208955224
            ]
        ],
        [
            [
                0.04549266247379455,
                1.2462686567164178
            ],
            [
                0.13102725366876308,
                1.3022388059701493
            ],
            [
                0.149895178197065,
                1.2492537313432837
            ]
        ]
    ],
    "1874": [
        [
            [
                0.2064989517819706,
                1.0902985074626865
            ],
            [
                0.22536687631027252,
                1.037313432835821
            ],
            [
                0.18972746331236895,
                0.9425373134328358
            ]
        ],
        [
            [
                0.08280922431865827,
                0.6582089552238806
            ],
            [
                0.04716981132075471,
                0.5634328358208955
            ],
            [
                0.04842767295597484,
                0.5223880597014925
            ]
        ],
        [
            [
                0.052201257861635215,
                0.39925373134328357
            ],
            [
                0.05345911949685534,
                0.3582089552238806
            ],
            [
                0.09790356394129977,
                0.3462686567164179
            ]
        ],
        [
            [
                0.2437617839049198,
                0.40361658622080615
            ],
            [
                0.28820622834936427,
                0.3916762877133438
            ],
            [
                0.3117448945149495,
                0.3843729537679563
            ]
        ],
        [
            [
                0.37710123753136954,
                0.5615233060609023
            ],
            [
                0.42732485737763104,
                0.5499001717325441
            ],
            [
                0.49458202020083114,
                0.5357210672549321
            ]
        ],
        [
            [
                0.565383992648806,
                0.37769652240303
            ],
            [
                0.5932914046121593,
                0.3787313432835821
            ],
            [
                0.647947994013341,
                0.2908221745589787
            ]
        ],
        [
            [
                0.5966457023060797,
                0.13320895522387988
            ],
            [
                0.6247379454926624,
                0.03171641791044776
            ],
            [
                0.6188679245283019,
                -0.04365671641791087
            ]
        ],
        [
            [
                0.6964852793728923,
                -0.009305645684620379
            ],
            [
                0.6906152584085317,
                -0.08467878001297861
            ],
            [
                0.5333825540060161,
                -0.126469824789098
            ]
        ],
        [
            [
                0.059748427672955955,
                -0.2380597014925373
            ],
            [
                -0.09748427672955975,
                -0.27985074626865675
            ],
            [
                -0.13731656184486374,
                -0.019402985074626882
            ]
        ],
        [
            [
                -0.25681341719077566,
                0.7619402985074626
            ],
            [
                -0.2966457023060797,
                1.0223880597014925
            ],
            [
                -0.21111111111111114,
                1.078358208955224
            ]
        ],
        [
            [
                0.04549266247379455,
                1.2462686567164178
            ],
            [
                0.13102725366876308,
                1.3022388059701493
            ],
            [
                0.149895178197065,
                1.2492537313432837
            ]
        ]
    ],
    "1914": [
        [
            [
                0.2064989517819706,
                1.0902985074626865
            ],
            [
                0.22536687631027252,
                1.037313432835821
            ],
            [
                0.18972746331236895,
                0.9425373134328358
            ]
        ],
        [
            [
                0.08280922431865827,
                0.6582089552238806
            ],
            [
                0.04716981132075471,
                0.5634328358208955
            ],
            [
                0.04842767295597484,
                0.5223880597014925
            ]
        ],
        [
            [
                0.052201257861635215,
                0.39925373134328357
            ],
            [
                0.05345911949685534,
                0.3582089552238806
            ],
            [
                0.09790356394129977,
                0.3462686567164179
            ]
        ],
        [
            [
                0.243566403097958,
                0.4031992878107132
            ],
            [
                0.28801084754240247,
                0.3912589893032507
            ],
            [
                0.31235271768126827,
                0.3869853224879422
            ]
        ],
        [
            [
                0.3813037990286068,
                0.5662892719905307
            ],
            [
                0.43132553984699346,
                0.5578585091381261
            ],
            [
                0.4966337935934019,
                0.5453377794532172
            ]
        ],
        [
            [
                0.5663245727422588,
                0.3938976259244044
            ],
            [
                0.5937651754728825,
                0.3960177923939624
            ],
            [
                0.6474212245269982,
                0.3075970090332449
            ]
        ],
        [
            [
                0.6001595028564435,
                0.14353866261910717
            ],
            [
                0.6282517460430262,
                0.04204612530567502
            ],
            [
                0.6223817250786656,
                -0.0333270090226836
            ]
        ],
        [
            [
                0.696412359857807,
                -0.008786502271252435
            ],
            [
                0.6905423388934465,
                -0.08415963659961066
            ],
            [
                0.5333096344909308,
                -0.12595068137573007
            ]
        ],
        [
            [
                0.059748427672955955,
                -0.2380597014925373
            ],
            [
                -0.09748427672955975,
                -0.27985074626865675
            ],
            [
                -0.13731656184486374,
                -0.019402985074626882
            ]
        ],
        [
            [
                -0.25681341719077566,
                0.7619402985074626
            ],
            [
                -0.2966457023060797,
                1.0223880597014925
            ],
            [
                -0.21111111111111114,
                1.078358208955224
            ]
        ],
        [
            [
                0.04549266247379455,
                1.2462686567164178
            ],
            [
                0.13102725366876308,
                1.3022388059701493
            ],
            [
                0.149895178197065,
                1.2492537313432837
            ]
        ]
    ],
    "1915": [
        [
            [
                0.2064989517819706,
                1.0902985074626865
            ],
            [
                0.22536687631027252,
                1.037313432835821
            ],
            [
                0.18972746331236895,
                0.9425373134328358
            ]
        ],
        [
            [
                0.08280922431865827,
                0.6582089552238806
            ],
            [
                0.04716981132075471,
                0.5634328358208955
            ],
            [
                0.04842767295597484,
                0.5223880597014925
            ]
        ],
        [
            [
                0.052201257861635215,
                0.39925373134328357
            ],
            [
                0.05345911949685534,
                0.3582089552238806
            ],
            [
                0.09790356394129977,
                0.3462686567164179
            ]
        ],
        [
            [
                0.24356151857778394,
                0.40318885535046084
            ],
            [
                0.2880059630222284,
                0.39124855684299836
            ],
            [
                0.3123679132604263,
                0.38705063170594184
            ]
        ],
        [
            [
                0.3745116080441026,
                0.5270076699834163
            ],
            [
                0.42452830188679247,
                0.5186567164179104
            ],
            [
                0.4897878329062811,
                0.5061774461028191
            ]
        ],
        [
            [
                0.5663480872445951,
                0.39430265351243876
            ],
            [
                0.5937770197444007,
                0.3964499536217219
            ],
            [
                0.6474080552898397,
                0.30801637989510156
            ]
        ],
        [
            [
                0.6002473478702026,
                0.14379690530398784
            ],
            [
                0.6283395910567854,
                0.0423043679905557
            ],
            [
                0.6224695700924248,
                -0.03306876633780292
            ]
        ],
        [
            [
                0.6964105368699299,
                -0.008773523685918235
            ],
            [
                0.6905405159055693,
                -0.08414665801427647
            ],
            [
                0.5333078115030536,
                -0.12593770279039587
            ]
        ],
        [
            [
                0.059748427672955955,
                -0.2380597014925373
            ],
            [
                -0.09748427672955975,
                -0.27985074626865675
            ],
            [
                -0.13731656184486374,
                -0.019402985074626882
            ]
        ],
        [
            [
                -0.25681341719077566,
                0.7619402985074626
            ],
            [
                -0.2966457023060797,
                1.0223880597014925
            ],
            [
                -0.21111111111111114,
                1.078358208955224
            ]
        ],
        [
            [
                0.04549266247379455,
                1.2462686567164178
            ],
            [
                0.13102725366876308,
                1.3022388059701493
            ],
            [
                0.149895178197065,
                1.2492537313432837
            ]
        ]
    ],
    "1917": [
        [
            [
                0.2064989517819706,
                1.0902985074626865
            ],
            [
                0.22536687631027252,
                1.037313432835821
            ],
            [
                0.18972746331236895,
                0.9425373134328358
            ]
        ],
        [
            [
                0.08280922431865827,
                0.6582089552238806
            ],
            [
                0.04716981132075471,
                0.5634328358208955
            ],
            [
                0.04842767295597484,
                0.5223880597014925
            ]
        ],
        [
            [
                0.052201257861635215,
                0.39925373134328357
            ],
            [
                0.05345911949685534,
                0.3582089552238806
            ],
            [
                0.09790356394129977,
                0.3462686567164179
            ]
        ],
        [
            [
                0.24355174953743583,
                0.4031679904299562
            ],
            [
                0.2879961939818803,
                0.39122769192249374
            ],
            [
                0.3123983044187422,
                0.38718125014194116
            ]
        ],
        [
            [
                0.3682323938193957,
                0.4820719320066336
            ],
            [
                0.41823899371069184,
                0.47388059701492535
            ],
            [
                0.4834010792763408,
                0.4614842454394692
            ]
        ],
        [
            [
                0.5663951162492677,
                0.3951127086885075
            ],
            [
                0.5938007082874368,
                0.39731427607724096
            ],
            [
                0.6473817168155226,
                0.30885512161881484
            ]
        ],
        [
            [
                0.6004230378977208,
                0.1443133906737492
            ],
            [
                0.6285152810843034,
                0.04282085336031706
            ],
            [
                0.6226452601199429,
                -0.03255228096804156
            ]
        ],
        [
            [
                0.6964068908941756,
                -0.008747566515249838
            ],
            [
                0.690536869929815,
                -0.08412070084360806
            ],
            [
                0.5333041655272993,
                -0.12591174561972746
            ]
        ],
        [
            [
                0.059748427672955955,
                -0.2380597014925373
            ],
            [
                -0.09748427672955975,
                -0.27985074626865675
            ],
            [
                -0.13731656184486374,
                -0.019402985074626882
            ]
        ],
        [
            [
                -0.25681341719077566,
                0.7619402985074626
            ],
            [
                -0.2966457023060797,
                1.0223880597014925
            ],
            [
                -0.21111111111111114,
                1.078358208955224
            ]
        ],
        [
            [
                0.04549266247379455,
                1.2462686567164178
            ],
            [
                0.13102725366876308,
                1.3022388059701493
            ],
            [
                0.149895178197065,
                1.2492537313432837
            ]
        ]
    ],
    "1919": [
        [
            [
                0.2064989517819706,
                1.0902985074626865
            ],
            [
                0.22536687631027252,
                1.037313432835821
            ],
            [
                0.18972746331236895,
                0.9425373134328358
            ]
        ],
        [
            [
                0.08280922431865827,
                0.6582089552238806
            ],
            [
                0.04716981132075471,
                0.5634328358208955
            ],
            [
                0.04842767295597484,
                0.5223880597014925
            ]
        ],
        [
            [
                0.052201257861635215,
                0.39925373134328357
            ],
            [
                0.05345911949685534,
                0.3582089552238806
            ],
            [
                0.09790356394129977,
                0.3462686567164179
            ]
        ],
        [
            [
                0.24354198049708772,
                0.4031471255094516
            ],
            [
                0.2879864249415322,
                0.3912068270019891
            ],
            [
                0.3124286955770581,
                0.3873118685779404
            ]
        ],
        [
            [
                0.34832634521313743,
                0.43527052238805986
            ],
            [
                0.39832285115303984,
                0.42723880597014924
            ],
            [
                0.46338749126484924,
                0.4149253731343282
            ]
        ],
        [
            [
                0.5365590482138242,
                0.4025949116004729
            ],
            [
                0.5639412997903563,
                0.40485074626865675
            ],
            [
                0.6174722813010889,
                0.3163660110784248
            ]
        ],
        [
            [
                0.6396226415094339,
                0.13134328358208894
            ],
            [
                0.6677148846960167,
                0.029850746268656712
            ],
            [
                0.6618448637316561,
                -0.0455223880597019
            ]
        ],
        [
            [
                0.6964032449184213,
                -0.008721609344581441
            ],
            [
                0.6905332239540607,
                -0.08409474367293966
            ],
            [
                0.533300519551545,
                -0.12588578844905907
            ]
        ],
        [
            [
                0.059748427672955955,
                -0.2380597014925373
            ],
            [
                -0.09748427672955975,
                -0.27985074626865675
            ],
            [
                -0.13731656184486374,
                -0.019402985074626882
            ]
        ],
        [
            [
                -0.25681341719077566,
                0.7619402985074626
            ],
            [
                -0.2966457023060797,
                1.0223880597014925
            ],
            [
                -0.21111111111111114,
                1.078358208955224
            ]
        ],
        [
            [
                0.04549266247379455,
                1.2462686567164178
            ],
            [
                0.13102725366876308,
                1.3022388059701493
            ],
            [
                0.149895178197065,
                1.2492537313432837
            ]
        ]
    ],
    "1921": [
        [
            [
                0.2064989517819706,
                1.0902985074626865
            ],
            [
                0.22536687631027252,
                1.037313432835821
            ],
            [
                0.18972746331236895,
                0.9425373134328358
            ]
        ],
        [
            [
                0.08280922431865827,
                0.6582089552238806
            ],
            [
                0.04716981132075471,
                0.5634328358208955
            ],
            [
                0.04842767295597484,
                0.5223880597014925
            ]
        ],
        [
            [
                0.052201257861635215,
                0.39925373134328357
            ],
            [
                0.05345911949685534,
                0.3582089552238806
            ],
            [
                0.09790356394129977,
                0.3462686567164179
            ]
        ],
        [
            [
                0.24353221145673964,
                0.40312626058894696
            ],
            [
                0.28797665590118415,
                0.3911859620814845
            ],
            [
                0.31245908673537404,
                0.38744248701393974
            ]
        ],
        [
            [
                0.33785425887103016,
                0.3922004560530682
            ],
            [
                0.3878406708595388,
                0.3843283582089552
            ],
            [
                0.45280786551750857,
                0.3720978441127693
            ]
        ],
        [
            [
                0.5261002083819597,
                0.37268989805236574
            ],
            [
                0.5534591194968553,
                0.375
            ],
            [
                0.6069400739902346,
                0.2864896840779623
            ]
        ],
        [
            [
                0.6397215883440629,
                0.1318862912575758
            ],
            [
                0.6678138315306457,
                0.030393753944143582
            ],
            [
                0.661943810566285,
                -0.04497938038421502
            ]
        ],
        [
            [
                0.696399598942667,
                -0.008695652173913044
            ],
            [
                0.6905295779783064,
                -0.08406878650227126
            ],
            [
                0.5332968735757907,
                -0.12585983127839065
            ]
        ],
        [
            [
                0.059748427672955955,
                -0.2380597014925373
            ],
            [
                -0.09748427672955975,
                -0.27985074626865675
            ],
            [
                -0.13731656184486374,
                -0.019402985074626882
            ]
        ],
        [
            [
                -0.25681341719077566,
                0.7619402985074626
            ],
            [
                -0.2966457023060797,
                1.0223880597014925
            ],
            [
                -0.21111111111111114,
                1.078358208955224
            ]
        ],
        [
            [
                0.04549266247379455,
                1.2462686567164178
            ],
            [
                0.13102725366876308,
                1.3022388059701493
            ],
            [
                0.149895178197065,
                1.2492537313432837
            ]
        ]
    ],
    "1923": [
        [
            [
                0.2064989517819706,
                1.0902985074626865
            ],
            [
                0.22536687631027252,
                1.037313432835821
            ],
            [
                0.18972746331236895,
                0.9425373134328358
            ]
        ],
        [
            [
                0.08280922431865827,
                0.6582089552238806
            ],
            [
                0.04716981132075471,
                0.5634328358208955
            ],
            [
                0.04842767295597484,
                0.5223880597014925
            ]
        ],
        [
            [
                0.052201257861635215,
                0.39925373134328357
            ],
            [
                0.05345911949685534,
                0.3582089552238806
            ],
            [
                0.09790356394129977,
                0.3462686567164179
            ]
        ],
        [
            [
                0.240670859538784,
                0.3906716417910446
            ],
            [
                0.2851153039832285,
                0.3787313432835821
            ],
            [
                0.3096378950160824,
                0.3751393515725413
            ]
        ],
        [
            [
                0.3357679167637236,
                0.38457815091210634
            ],
            [
                0.3857442348008385,
                0.3768656716417911
            ],
            [
                0.4506139840049687,
                0.36471807628524033
            ]
        ],
        [
            [
                0.514593150520745,
                0.33718786957888575
            ],
            [
                0.5419287211740041,
                0.3395522388059702
            ],
            [
                0.5953596486500301,
                0.251016342152127
            ]
        ],
        [
            [
                0.6398205351786918,
                0.1324292989330627
            ],
            [
                0.6679127783652745,
                0.030936761619630455
            ],
            [
                0.6620427574009139,
                -0.04443637270872814
            ]
        ],
        [
            [
                0.6963959529669127,
                -0.008669695003244647
            ],
            [
                0.6905259320025521,
                -0.08404282933160286
            ],
            [
                0.5332932276000365,
                -0.12583387410772226
            ]
        ],
        [
            [
                0.059748427672955955,
                -0.2380597014925373
            ],
            [
                -0.09748427672955975,
                -0.27985074626865675
            ],
            [
                -0.13731656184486374,
                -0.019402985074626882
            ]
        ],
        [
            [
                -0.25681341719077566,
                0.7619402985074626
            ],
            [
                -0.2966457023060797,
                1.0223880597014925
            ],
            [
                -0.21111111111111114,
                1.078358208955224
            ]
        ],
        [
            [
                0.04549266247379455,
                1.2462686567164178
            ],
            [
                0.13102725366876308,
                1.3022388059701493
            ],
            [
                0.149895178197065,
                1.2492537313432837
            ]
        ]
    ],
    "1926": [
        [
            [
                0.2064989517819706,
                1.0902985074626865
            ],
            [
                0.22536687631027252,
                1.037313432835821
            ],
            [
                0.18972746331236895,
                0.9425373134328358
            ]
        ],
        [
            [
                0.08280922431865827,
                0.6582089552238806
            ],
            [
                0.04716981132075471,
                0.5634328358208955
            ],
            [
                0.04842767295597484,
                0.5223880597014925
            ]
        ],
        [
            [
                0.052201257861635215,
                0.39925373134328357
            ],
            [
                0.05345911949685534,
                0.3582089552238806
            ],
            [
                0.09790356394129977,
                0.3462686567164179
            ]
        ],
        [
            [
                0.24066465094236142,
                0.3906771669785326
            ],
            [
                0.2851090953868059,
                0.37873686847107013
            ],
            [
                0.30969192671765583,
                0.37537210179478525
            ]
        ],
        [
            [
                0.336220763738608,
                0.38547691167394377
            ],
            [
                0.38618194084863233,
                0.37800386026432503
            ],
            [
                0.4509055218720031,
                0.365980643017227
            ]
        ],
        [
            [
                0.5544604463285037,
                0.3184497522417999
            ],
            [
                0.5817610062893082,
                0.32089552238805974
            ],
            [
                0.6351168932393042,
                0.23232125463650805
            ]
        ],
        [
            [
                0.6399689554306353,
                0.133243810446293
            ],
            [
                0.668061198617218,
                0.03175127313286076
            ],
            [
                0.6621911776528574,
                -0.04362186119549783
            ]
        ],
        [
            [
                0.6963904840032813,
                -0.008630759247242051
            ],
            [
                0.6905204630389207,
                -0.08400389357560027
            ],
            [
                0.5332877586364051,
                -0.12579493835171965
            ]
        ],
        [
            [
                0.059748427672955955,
                -0.2380597014925373
            ],
            [
                -0.09748427672955975,
                -0.27985074626865675
            ],
            [
                -0.13731656184486374,
                -0.019402985074626882
            ]
        ],
        [
            [
                -0.25681341719077566,
                0.7619402985074626
            ],
            [
                -0.2966457023060797,
                1.0223880597014925
            ],
            [
                -0.21111111111111114,
                1.078358208955224
            ]
        ],
        [
            [
                0.04549266247379455,
                1.2462686567164178
            ],
            [
                0.13102725366876308,
                1.3022388059701493
            ],
            [
                0.149895178197065,
                1.2492537313432837
            ]
        ]
    ],
    "1937": [
        [
            [
                0.2064989517819706,
                1.0902985074626865
            ],
            [
                0.22536687631027252,
                1.037313432835821
            ],
            [
                0.18972746331236895,
                0.9425373134328358
            ]
        ],
        [
            [
                0.08280922431865827,
                0.6582089552238806
            ],
            [
                0.04716981132075471,
                0.5634328358208955
            ],
            [
                0.04842767295597484,
                0.5223880597014925
            ]
        ],
        [
            [
                0.052201257861635215,
                0.39925373134328357
            ],
            [
                0.05345911949685534,
                0.3582089552238806
            ],
            [
                0.09790356394129977,
                0.3462686567164179
            ]
        ],
        [
            [
                0.24064188608881185,
                0.39069742599932206
            ],
            [
                0.2850863305332563,
                0.3787571274918596
            ],
            [
                0.3098900429567584,
                0.3762255192763464
            ]
        ],
        [
            [
                0.3378812026465174,
                0.3887723678006809
            ],
            [
                0.3877868630238762,
                0.38217721854694936
            ],
            [
                0.45197449405112927,
                0.3706100543678448
            ]
        ],
        [
            [
                0.5755531794545063,
                0.32374829713019637
            ],
            [
                0.6027253668763103,
                0.32649253731343286
            ],
            [
                0.6558061052308631,
                0.23777757553694978
            ]
        ],
        [
            [
                0.6941299790356396,
                0.11455223880596956
            ],
            [
                0.7222222222222222,
                0.013059701492537313
            ],
            [
                0.7163522012578617,
                -0.062313432835821254
            ]
        ],
        [
            [
                0.6963704311366328,
                -0.008487994808565866
            ],
            [
                0.6905004101722721,
                -0.08386112913692409
            ],
            [
                0.5332677057697567,
                -0.12565217391304348
            ]
        ],
        [
            [
                0.059748427672955955,
                -0.2380597014925373
            ],
            [
                -0.09748427672955975,
                -0.27985074626865675
            ],
            [
                -0.13731656184486374,
                -0.019402985074626882
            ]
        ],
        [
            [
                -0.25681341719077566,
                0.7619402985074626
            ],
            [
                -0.2966457023060797,
                1.0223880597014925
            ],
            [
                -0.21111111111111114,
                1.078358208955224
            ]
        ],
        [
            [
                0.04549266247379455,
                1.2462686567164178
            ],
            [
                0.13102725366876308,
                1.3022388059701493
            ],
            [
                0.149895178197065,
                1.2492537313432837
            ]
        ]
    ],
    "1977": [
        [
            [
                0.2064989517819706,
                1.0902985074626865
            ],
            [
                0.22536687631027252,
                1.037313432835821
            ],
            [
                0.18972746331236895,
                0.9425373134328358
            ]
        ],
        [
            [
                0.08280922431865827,
                0.6582089552238806
            ],
            [
                0.04716981132075471,
                0.5634328358208955
            ],
            [
                0.04842767295597484,
                0.5223880597014925
            ]
        ],
        [
            [
                0.052201257861635215,
                0.39925373134328357
            ],
            [
                0.05345911949685534,
                0.3582089552238806
            ],
            [
                0.09790356394129977,
                0.3462686567164179
            ]
        ],
        [
            [
                0.2405591048031771,
                0.3907710951658291
            ],
            [
                0.28500354924762156,
                0.3788307966583666
            ],
            [
                0.31061046564440425,
                0.37932885557293244
            ]
        ],
        [
            [
                0.36434234024380735,
                0.3709400912106138
            ],
            [
                0.4140461215932914,
                0.3675373134328358
            ],
            [
                0.4762848435437528,
                0.3576285240464344
            ]
        ],
        [
            [
                0.5728753345991857,
                0.3338569813919369
            ],
            [
                0.59958071278826,
                0.3376865671641791
            ],
            [
                0.6516609107957471,
                0.24845999075158204
            ]
        ],
        [
            [
                0.6939620962681761,
                0.12628038486247384
            ],
            [
                0.7220543394547588,
                0.02478784754904158
            ],
            [
                0.7161843184903982,
                -0.05058528677931697
            ]
        ],
        [
            [
                0.6962975116215476,
                -0.007968851395197922
            ],
            [
                0.690427490657187,
                -0.08334198572355614
            ],
            [
                0.5331947862546714,
                -0.12513303049967553
            ]
        ],
        [
            [
                0.059748427672955955,
                -0.2380597014925373
            ],
            [
                -0.09748427672955975,
                -0.27985074626865675
            ],
            [
                -0.13731656184486374,
                -0.019402985074626882
            ]
        ],
        [
            [
                -0.25681341719077566,
                0.7619402985074626
            ],
            [
                -0.2966457023060797,
                1.0223880597014925
            ],
            [
                -0.21111111111111114,
                1.078358208955224
            ]
        ],
        [
            [
                0.04549266247379455,
                1.2462686567164178
            ],
            [
                0.13102725366876308,
                1.3022388059701493
            ],
            [
                0.149895178197065,
                1.2492537313432837
            ]
        ]
    ],
    "2000": [
        [
            [
                0.2064989517819706,
                1.0902985074626865
            ],
            [
                0.22536687631027252,
                1.037313432835821
            ],
            [
                0.18972746331236895,
                0.9425373134328358
            ]
        ],
        [
            [
                0.08280922431865827,
                0.6582089552238806
            ],
            [
                0.04716981132075471,
                0.5634328358208955
            ],
            [
                0.04842767295597484,
                0.5223880597014925
            ]
        ],
        [
            [
                0.052201257861635215,
                0.39925373134328357
            ],
            [
                0.05345911949685534,
                0.3582089552238806
            ],
            [
                0.09790356394129977,
                0.3462686567164179
            ]
        ],
        [
            [
                0.24051150556393713,
                0.3908134549365706
            ],
            [
                0.2849559500083816,
                0.3788731564291082
            ],
            [
                0.3110247086898006,
                0.3811132739434694
            ]
        ],
        [
            [
                0.36732435152212,
                0.3785456710192522
            ],
            [
                0.41691205243057605,
                0.37697850684014755
            ],
            [
                0.47803015166188223,
                0.36802328295955045
            ]
        ],
        [
            [
                0.5732945883731255,
                0.34522456565531806
            ],
            [
                0.5997315512533803,
                0.34967822514123853
            ],
            [
                0.6512364385613043,
                0.26015747031287584
            ]
        ],
        [
            [
                0.6417190775681342,
                0.11455223880596956
            ],
            [
                0.6698113207547169,
                0.013059701492537313
            ],
            [
                0.6639412997903563,
                -0.06231343283582123
            ]
        ],
        [
            [
                0.6962555829003736,
                -0.007670343932511356
            ],
            [
                0.690385561936013,
                -0.08304347826086957
            ],
            [
                0.5331528575334974,
                -0.12483452303698897
            ]
        ],
        [
            [
                0.059748427672955955,
                -0.2380597014925373
            ],
            [
                -0.09748427672955975,
                -0.27985074626865675
            ],
            [
                -0.13731656184486374,
                -0.019402985074626882
            ]
        ],
        [
            [
                -0.25681341719077566,
                0.7619402985074626
            ],
            [
                -0.2966457023060797,
                1.0223880597014925
            ],
            [
                -0.21111111111111114,
                1.078358208955224
            ]
        ],
        [
            [
                0.04549266247379455,
                1.2462686567164178
            ],
            [
                0.13102725366876308,
                1.3022388059701493
            ],
            [
                0.149895178197065,
                1.2492537313432837
            ]
        ]
    ],
    "2012": [
        [
            [
                0.2064989517819706,
                1.0902985074626865
            ],
            [
                0.22536687631027252,
                1.037313432835821
            ],
            [
                0.18972746331236895,
                0.9425373134328358
            ]
        ],
        [
            [
                0.08280922431865827,
                0.6582089552238806
            ],
            [
                0.04716981132075471,
                0.5634328358208955
            ],
            [
                0.04842767295597484,
                0.5223880597014925
            ]
        ],
        [
            [
                0.052201257861635215,
                0.39925373134328357
            ],
            [
                0.05345911949685534,
                0.3582089552238806
            ],
            [
                0.09790356394129977,
                0.3462686567164179
            ]
        ],
        [
            [
                0.2404866711782467,
                0.39083555568652273
            ],
            [
                0.2849311156226912,
                0.3788952571790603
            ],
            [
                0.3112408354960943,
                0.3820442748324452
            ]
        ],
        [
            [
                0.426363848124854,
                0.5826990049751248
            ],
            [
                0.47589098532494756,
                0.582089552238806
            ],
            [
                0.5364244118332164,
                0.5736318407960201
            ]
        ],
        [
            [
                0.612067859763778,
                0.3702207368373778
            ],
            [
                0.6383647798742138,
                0.375
            ],
            [
                0.6895695050780181,
                0.285325760780803
            ]
        ],
        [
            [
                0.6423372574315971,
                0.1183075009567541
            ],
            [
                0.6704295006181799,
                0.016814963643321853
            ],
            [
                0.6645594796538192,
                -0.05855817068503669
            ]
        ],
        [
            [
                0.6962337070458481,
                -0.007514600908500974
            ],
            [
                0.6903636860814875,
                -0.08288773523685919
            ],
            [
                0.5331309816789718,
                -0.12467878001297858
            ]
        ],
        [
            [
                0.059748427672955955,
                -0.2380597014925373
            ],
            [
                -0.09748427672955975,
                -0.27985074626865675
            ],
            [
                -0.13731656184486374,
                -0.019402985074626882
            ]
        ],
        [
            [
                -0.25681341719077566,
                0.7619402985074626
            ],
            [
                -0.2966457023060797,
                1.0223880597014925
            ],
            [
                -0.21111111111111114,
                1.078358208955224
            ]
        ],
        [
            [
                0.04549266247379455,
                1.2462686567164178
            ],
            [
                0.13102725366876308,
                1.3022388059701493
            ],
            [
                0.149895178197065,
                1.2492537313432837
            ]
        ]
    ],
    "2015": [
        [
            [
                0.2064989517819706,
                1.0902985074626865
            ],
            [
                0.22536687631027252,
                1.037313432835821
            ],
            [
                0.18972746331236895,
                0.9425373134328358
            ]
        ],
        [
            [
                0.08280922431865827,
                0.6582089552238806
            ],
            [
                0.04716981132075471,
                0.5634328358208955
            ],
            [
                0.04842767295597484,
                0.5223880597014925
            ]
        ],
        [
            [
                0.052201257861635215,
                0.39925373134328357
            ],
            [
                0.05345911949685534,
                0.3582089552238806
            ],
            [
                0.09790356394129977,
                0.3462686567164179
            ]
        ],
        [
            [
                0.24048046258182412,
                0.39084108087401076
            ],
            [
                0.28492490702626855,
                0.37890078236654834
            ],
            [
                0.31129486719766775,
                0.38227702505468913
            ]
        ],
        [
            [
                0.4221861169345443,
                0.5582058457711445
            ],
            [
                0.4716981132075472,
                0.5578358208955224
            ],
            [
                0.5320853715350569,
                0.5495024875621891
            ]
        ],
        [
            [
                0.6119973679922397,
                0.3716415650323718
            ],
            [
                0.6382592774102207,
                0.3765022291141694
            ],
            [
                0.689388962087995,
                0.2867896187972639
            ]
        ],
        [
            [
                0.6424918023974627,
                0.11924631649445024
            ],
            [
                0.6705840455840455,
                0.01775377918101799
            ],
            [
                0.6647140246196849,
                -0.05761935514734055
            ]
        ],
        [
            [
                0.6962282380822167,
                -0.007475665152498378
            ],
            [
                0.690358217117856,
                -0.08284879948085659
            ],
            [
                0.5331255127153404,
                -0.12463984425697598
            ]
        ],
        [
            [
                0.059748427672955955,
                -0.2380597014925373
            ],
            [
                -0.09748427672955975,
                -0.27985074626865675
            ],
            [
                -0.13731656184486374,
                -0.019402985074626882
            ]
        ],
        [
            [
                -0.25681341719077566,
                0.7619402985074626
            ],
            [
                -0.2966457023060797,
                1.0223880597014925
            ],
            [
                -0.21111111111111114,
                1.078358208955224
            ]
        ],
        [
            [
                0.04549266247379455,
                1.2462686567164178
            ],
            [
                0.13102725366876308,
                1.3022388059701493
            ],
            [
                0.149895178197065,
                1.2492537313432837
            ]
        ]
    ],
    "2019": [
        [
            [
                0.2064989517819706,
                1.0902985074626865
            ],
            [
                0.22536687631027252,
                1.037313432835821
            ],
            [
                0.18972746331236895,
                0.9425373134328358
            ]
        ],
        [
            [
                0.08280922431865827,
                0.6582089552238806
            ],
            [
                0.04716981132075471,
                0.5634328358208955
            ],
            [
                0.04842767295597484,
                0.5223880597014925
            ]
        ],
        [
            [
                0.052201257861635215,
                0.39925373134328357
            ],
            [
                0.05345911949685534,
                0.3582089552238806
            ],
            [
                0.09790356394129977,
                0.3462686567164179
            ]
        ],
        [
            [
                0.24047218445326066,
                0.3908484477906614
            ],
            [
                0.2849166288977051,
                0.378908149283199
            ],
            [
                0.31136690946643236,
                0.3825873586843477
            ]
        ],
        [
            [
                0.38447045578072797,
                0.5560209369817579
            ],
            [
                0.43396226415094336,
                0.5559701492537314
            ],
            [
                0.4941546315707737,
                0.5478026533996682
            ]
        ],
        [
            [
                0.5869923186751032,
                0.3644337864339287
            ],
            [
                0.6132075471698113,
                0.3694029850746269
            ],
            [
                0.664237177812879,
                0.27963921329410996
            ]
        ],
        [
            [
                0.6426978623519504,
                0.12049807054471176
            ],
            [
                0.6707901055385331,
                0.0190055332312795
            ],
            [
                0.6649200845741725,
                -0.056367601097079036
            ]
        ],
        [
            [
                0.6962209461307082,
                -0.007423750811161584
            ],
            [
                0.6903509251663476,
                -0.0827968851395198
            ],
            [
                0.5331182207638319,
                -0.12458792991563918
            ]
        ],
        [
            [
                0.059748427672955955,
                -0.2380597014925373
            ],
            [
                -0.09748427672955975,
                -0.27985074626865675
            ],
            [
                -0.13731656184486374,
                -0.019402985074626882
            ]
        ],
        [
            [
                -0.25681341719077566,
                0.7619402985074626
            ],
            [
                -0.2966457023060797,
                1.0223880597014925
            ],
            [
                -0.21111111111111114,
                1.078358208955224
            ]
        ],
        [
            [
                0.04549266247379455,
                1.2462686567164178
            ],
            [
                0.13102725366876308,
                1.3022388059701493
            ],
            [
                0.149895178197065,
                1.2492537313432837
            ]
        ]
    ],
    "2030": [
        [
            [
                0.2064989517819706,
                1.0902985074626865
            ],
            [
                0.22536687631027252,
                1.037313432835821
            ],
            [
                0.18972746331236895,
                0.9425373134328358
            ]
        ],
        [
            [
                0.08280922431865827,
                0.6582089552238806
            ],
            [
                0.04716981132075471,
                0.5634328358208955
            ],
            [
                0.04842767295597484,
                0.5223880597014925
            ]
        ],
        [
            [
                0.052201257861635215,
                0.39925373134328357
            ],
            [
                0.05345911949685534,
                0.3582089552238806
            ],
            [
                0.09790356394129977,
                0.3462686567164179
            ]
        ],
        [
            [
                0.24044941959971108,
                0.39086870681145086
            ],
            [
                0.2848938640441555,
                0.37892840830398844
            ],
            [
                0.31156502570553496,
                0.3834407761659088
            ]
        ],
        [
            [
                0.38572050669078817,
                0.557604826196173
            ],
            [
                0.435156798328338,
                0.5584319406240336
            ],
            [
                0.4948132157520506,
                0.5507204978379638
            ]
        ],
        [
            [
                0.5870326729062959,
                0.3697526767055509
            ],
            [
                0.6131195288620034,
                0.37502034538322565
            ],
            [
                0.6638740109096279,
                0.28511587957777734
            ]
        ],
        [
            [
                0.6322851153039832,
                0.1070895522388054
            ],
            [
                0.660377358490566,
                0.005597014925373134
            ],
            [
                0.6545073375262054,
                -0.06977611940298539
            ]
        ],
        [
            [
                0.6962008932640597,
                -0.007280986372485399
            ],
            [
                0.690330872299699,
                -0.08265412070084362
            ],
            [
                0.5330981678971835,
                -0.124445165476963
            ]
        ],
        [
            [
                0.059748427672955955,
                -0.2380597014925373
            ],
            [
                -0.09748427672955975,
                -0.27985074626865675
            ],
            [
                -0.13731656184486374,
                -0.019402985074626882
            ]
        ],
        [
            [
                -0.25681341719077566,
                0.7619402985074626
            ],
            [
                -0.2966457023060797,
                1.0223880597014925
            ],
            [
                -0.21111111111111114,
                1.078358208955224
            ]
        ],
        [
            [
                0.04549266247379455,
                1.2462686567164178
            ],
            [
                0.13102725366876308,
                1.3022388059701493
            ],
            [
                0.149895178197065,
                1.2492537313432837
            ]
        ]
    ],
    "2086": [
        [
            [
                0.2064989517819706,
                1.0902985074626865
            ],
            [
                0.22536687631027252,
                1.037313432835821
            ],
            [
                0.18972746331236895,
                0.9425373134328358
            ]
        ],
        [
            [
                0.08280922431865827,
                0.6582089552238806
            ],
            [
                0.04716981132075471,
                0.5634328358208955
            ],
            [
                0.04842767295597484,
                0.5223880597014925
            ]
        ],
        [
            [
                0.052201257861635215,
                0.39925373134328357
            ],
            [
                0.05345911949685534,
                0.3582089552238806
            ],
            [
                0.09790356394129977,
                0.3462686567164179
            ]
        ],
        [
            [
                0.24033352579982245,
                0.3909718436445608
            ],
            [
                0.2847779702442669,
                0.37903154513709836
            ],
            [
                0.3125736174682391,
                0.3877854469811293
            ]
        ],
        [
            [
                0.37799574044797796,
                0.5573153588316925
            ],
            [
                0.427149401446503,
                0.5626117933258884
            ],
            [
                0.48407734616270726,
                0.5572220752496029
            ]
        ],
        [
            [
                0.5938926310969305,
                0.35106314701819763
            ],
            [
                0.6193259541268166,
                0.3578502995204806
            ],
            [
                0.6686796796885489,
                0.2672295732244726
            ]
        ],
        [
            [
                0.6287806251760067,
                0.1133270216083755
            ],
            [
                0.6568728683625895,
                0.011834484294943196
            ],
            [
                0.6510028473982289,
                -0.06353865003341534
            ]
        ],
        [
            [
                0.6960988059429404,
                -0.006554185593770279
            ],
            [
                0.6902287849785798,
                -0.0819273199221285
            ],
            [
                0.5329960805760641,
                -0.12371836469824786
            ]
        ],
        [
            [
                0.059748427672955955,
                -0.2380597014925373
            ],
            [
                -0.09748427672955975,
                -0.27985074626865675
            ],
            [
                -0.13731656184486374,
                -0.019402985074626882
            ]
        ],
        [
            [
                -0.25681341719077566,
                0.7619402985074626
            ],
            [
                -0.2966457023060797,
                1.0223880597014925
            ],
            [
                -0.21111111111111114,
                1.078358208955224
            ]
        ],
        [
            [
                0.04549266247379455,
                1.2462686567164178
            ],
            [
                0.13102725366876308,
                1.3022388059701493
            ],
            [
                0.149895178197065,
                1.2492537313432837
            ]
        ]
    ]
}
</property>
    <property name="kdenlive:collapsed">0</property>
   </filter>
   <filter id="filter271">
    <property name="mode">alpha</property>
    <property name="alpha_operation">sub</property>
    <property name="invert">0</property>
    <property name="feather">16</property>
    <property name="feather_passes">1</property>
    <property name="mlt_service">rotoscoping</property>
    <property name="kdenlive_id">rotoscoping</property>
    <property name="spline">{
    "0627": [
        [
            [
                -0.09748427672955974,
                0.3126865671641791
            ],
            [
                -0.07023060796645701,
                0.25
            ],
            [
                0.009014675052410907,
                0.4358208955223881
            ]
        ],
        [
            [
                0.14465408805031452,
                0.782089552238806
            ],
            [
                0.18448637316561844,
                0.8880597014925373
            ],
            [
                0.220125786163522,
                0.8768656716417911
            ]
        ],
        [
            [
                0.240041928721174,
                0.871268656716418
            ],
            [
                0.2526205450733753,
                0.8805970149253731
            ],
            [
                0.2677148846960166,
                0.9067164179104481
            ]
        ],
        [
            [
                0.30335429769392036,
                0.9820895522388062
            ],
            [
                0.3825995807127882,
                1.167910447761194
            ],
            [
                0.34528301886792445,
                1.1977611940298512
            ]
        ],
        [
            [
                0.17044025157232703,
                1.294776119402985
            ],
            [
                0.1331236897274633,
                1.3246268656716418
            ],
            [
                0.06436058700209643,
                1.3052238805970149
            ]
        ],
        [
            [
                -0.14192872117400418,
                1.2470149253731344
            ],
            [
                -0.21069182389937108,
                1.2276119402985075
            ],
            [
                -0.2111111111111111,
                1.094029850746269
            ]
        ],
        [
            [
                -0.21236897274633124,
                0.6932835820895522
            ],
            [
                -0.21278825995807127,
                0.5597014925373135
            ],
            [
                -0.18553459119496854,
                0.4970149253731343
            ]
        ]
    ]
}
</property>
    <property name="kdenlive:collapsed">0</property>
   </filter>
   <filter id="filter272" in="00:00:20.900" out="00:00:21.200">
    <property name="start">0</property>
    <property name="mlt_service">brightness</property>
    <property name="kdenlive_id">fade_from_black</property>
    <property name="end">1</property>
    <property name="alpha">-1</property>
    <property name="kdenlive:collapsed">0</property>
   </filter>
   <filter id="filter273">
    <property name="rotate_center">1</property>
    <property name="mlt_service">qtblend</property>
    <property name="kdenlive_id">qtblend</property>
    <property name="rect">00:00:20.900=579 325 1344 756 1.000000</property>
    <property name="rotation">00:00:20.900=0</property>
    <property name="compositing">0</property>
    <property name="distort">0</property>
    <property name="kdenlive:collapsed">0</property>
   </filter>
  </entry>
  <entry producer="producer262" in="00:01:09.567" out="00:01:53.700">
   <property name="kdenlive:id">44</property>
   <filter id="filter274">
    <property name="version">0.6</property>
    <property name="mlt_service">frei0r.select0r</property>
    <property name="kdenlive_id">frei0r.select0r</property>
    <property name="Color to select">0x517549ff</property>
    <property name="Invert selection">1</property>
    <property name="Selection subspace">1</property>
    <property name="Subspace shape">0.5</property>
    <property name="Edge mode">0.9</property>
    <property name="Delta R / A / Hue">2087=0.078</property>
    <property name="Delta G / B / Chroma">2087=0.148</property>
    <property name="Delta B / I / I">2087=0.245</property>
    <property name="Slope">2087=0.114</property>
    <property name="Operation">0.5</property>
    <property name="kdenlive:collapsed">0</property>
   </filter>
   <filter id="filter275">
    <property name="mlt_service">avfilter.despill</property>
    <property name="kdenlive_id">avfilter.despill</property>
    <property name="av.type">green</property>
    <property name="av.mix">0.155989</property>
    <property name="av.expand">0.068</property>
    <property name="av.red">0</property>
    <property name="av.green">-0.8</property>
    <property name="av.blue">0</property>
    <property name="av.brightness">0.3</property>
    <property name="kdenlive:collapsed">0</property>
   </filter>
   <filter id="filter276">
    <property name="mode">alpha</property>
    <property name="alpha_operation">max</property>
    <property name="invert">0</property>
    <property name="feather">7</property>
    <property name="feather_passes">1</property>
    <property name="mlt_service">rotoscoping</property>
    <property name="kdenlive_id">rotoscoping</property>
    <property name="spline">{
    "2087": [
        [
            [
                0.06142557651991614,
                0.40671641791044777
            ],
            [
                0.0639412997903564,
                0.3787313432835821
            ],
            [
                0.10020964360587001,
                0.3876865671641791
            ]
        ],
        [
            [
                0.20901467505241086,
                0.41455223880597014
            ],
            [
                0.24528301886792453,
                0.42350746268656714
            ],
            [
                0.2522012578616352,
                0.4231343283582089
            ]
        ],
        [
            [
                0.2729559748427673,
                0.42201492537313434
            ],
            [
                0.279874213836478,
                0.4216417910447761
            ],
            [
                0.3226415094339623,
                0.4835820895522388
            ]
        ],
        [
            [
                0.45094339622641505,
                0.6694029850746269
            ],
            [
                0.4937106918238994,
                0.7313432835820896
            ],
            [
                0.4949685534591195,
                0.7473880597014926
            ]
        ],
        [
            [
                0.4987421383647799,
                0.7955223880597015
            ],
            [
                0.5,
                0.8115671641791045
            ],
            [
                0.49580712788259956,
                0.8134328358208955
            ]
        ],
        [
            [
                0.4832285115303983,
                0.8190298507462686
            ],
            [
                0.47903563941299787,
                0.8208955223880596
            ],
            [
                0.510482180293501,
                0.8634328358208955
            ]
        ],
        [
            [
                0.6048218029350105,
                0.991044776119403
            ],
            [
                0.6362683438155137,
                1.033582089552239
            ],
            [
                0.6433962264150943,
                1.0298507462686568
            ]
        ],
        [
            [
                0.6647798742138364,
                1.0186567164179106
            ],
            [
                0.6719077568134171,
                1.0149253731343284
            ],
            [
                0.6727463312368972,
                0.9865671641791045
            ]
        ],
        [
            [
                0.6752620545073376,
                0.9014925373134328
            ],
            [
                0.6761006289308177,
                0.8731343283582089
            ],
            [
                0.6903563941299791,
                0.8671641791044776
            ]
        ],
        [
            [
                0.7331236897274633,
                0.8492537313432835
            ],
            [
                0.7473794549266247,
                0.8432835820895522
            ],
            [
                0.7545073375262054,
                0.8537313432835821
            ]
        ],
        [
            [
                0.7758909853249476,
                0.8850746268656716
            ],
            [
                0.7830188679245284,
                0.8955223880597015
            ],
            [
                0.7846960167714884,
                0.817910447761194
            ]
        ],
        [
            [
                0.7037735849056604,
                0.6858208955223887
            ],
            [
                0.7054507337526206,
                0.6082089552238806
            ],
            [
                0.708805031446541,
                0.5805970149253737
            ]
        ],
        [
            [
                0.680083857442348,
                0.3522388059701493
            ],
            [
                0.6834381551362684,
                0.3246268656716418
            ],
            [
                0.6968553459119496,
                0.2738805970149255
            ]
        ],
        [
            [
                0.7593291404612159,
                0.21082089552238775
            ],
            [
                0.778825995807128,
                0.20149253731343286
            ],
            [
                0.7953878406708595,
                0.20485074626865624
            ]
        ],
        [
            [
                0.9308176100628931,
                0.2910447761194028
            ],
            [
                0.9371069182389937,
                0.3395522388059702
            ],
            [
                0.9614255765199151,
                0.34925373134328347
            ]
        ],
        [
            [
                1.0459119496855345,
                0.5313432835820896
            ],
            [
                1.070230607966457,
                0.541044776119403
            ],
            [
                1.0765199161425572,
                0.7276119402985074
            ]
        ],
        [
            [
                1.1352201257861634,
                1.1343283582089552
            ],
            [
                1.141509433962264,
                1.3208955223880599
            ],
            [
                0.9914046121593291,
                1.3201492537313435
            ]
        ],
        [
            [
                0.541090146750524,
                1.317910447761194
            ],
            [
                0.3909853249475891,
                1.3171641791044777
            ],
            [
                0.3675052410901467,
                1.2276119402985075
            ]
        ],
        [
            [
                0.2970649895178197,
                0.958955223880597
            ],
            [
                0.27358490566037735,
                0.8694029850746269
            ],
            [
                0.25513626834381553,
                0.8694029850746269
            ]
        ],
        [
            [
                0.19979035639412995,
                0.8694029850746269
            ],
            [
                0.1813417190775681,
                0.8694029850746269
            ],
            [
                0.15534591194968553,
                0.7992537313432836
            ]
        ],
        [
            [
                0.07735849056603773,
                0.5888059701492537
            ],
            [
                0.05136268343815513,
                0.5186567164179104
            ],
            [
                0.05387840670859538,
                0.4906716417910447
            ]
        ]
    ],
    "2124": [
        [
            [
                0.06142557651991614,
                0.40671641791044777
            ],
            [
                0.0639412997903564,
                0.3787313432835821
            ],
            [
                0.10020964360587001,
                0.3876865671641791
            ]
        ],
        [
            [
                0.20901467505241086,
                0.41455223880597014
            ],
            [
                0.24528301886792453,
                0.42350746268656714
            ],
            [
                0.2522012578616352,
                0.4231343283582089
            ]
        ],
        [
            [
                0.2729559748427673,
                0.42201492537313434
            ],
            [
                0.279874213836478,
                0.4216417910447761
            ],
            [
                0.3226415094339623,
                0.4835820895522388
            ]
        ],
        [
            [
                0.45094339622641505,
                0.6694029850746269
            ],
            [
                0.4937106918238994,
                0.7313432835820896
            ],
            [
                0.4949685534591195,
                0.7473880597014926
            ]
        ],
        [
            [
                0.4987421383647799,
                0.7955223880597015
            ],
            [
                0.5,
                0.8115671641791045
            ],
            [
                0.49580712788259956,
                0.8134328358208955
            ]
        ],
        [
            [
                0.4832285115303983,
                0.8190298507462686
            ],
            [
                0.47903563941299787,
                0.8208955223880596
            ],
            [
                0.510482180293501,
                0.8634328358208955
            ]
        ],
        [
            [
                0.6048218029350105,
                0.991044776119403
            ],
            [
                0.6362683438155137,
                1.033582089552239
            ],
            [
                0.6433962264150943,
                1.0298507462686568
            ]
        ],
        [
            [
                0.6647798742138364,
                1.0186567164179106
            ],
            [
                0.6719077568134171,
                1.0149253731343284
            ],
            [
                0.6727463312368972,
                0.9865671641791045
            ]
        ],
        [
            [
                0.6752620545073376,
                0.9014925373134328
            ],
            [
                0.6761006289308177,
                0.8731343283582089
            ],
            [
                0.6903563941299791,
                0.8671641791044776
            ]
        ],
        [
            [
                0.7331236897274633,
                0.8492537313432835
            ],
            [
                0.7473794549266247,
                0.8432835820895522
            ],
            [
                0.7545073375262054,
                0.8537313432835821
            ]
        ],
        [
            [
                0.7758909853249476,
                0.8850746268656716
            ],
            [
                0.7830188679245284,
                0.8955223880597015
            ],
            [
                0.7846960167714884,
                0.817910447761194
            ]
        ],
        [
            [
                0.7037735849056604,
                0.6858208955223887
            ],
            [
                0.7054507337526206,
                0.6082089552238806
            ],
            [
                0.708805031446541,
                0.5805970149253737
            ]
        ],
        [
            [
                0.680083857442348,
                0.3522388059701493
            ],
            [
                0.6834381551362684,
                0.3246268656716418
            ],
            [
                0.6968553459119496,
                0.2738805970149255
            ]
        ],
        [
            [
                0.7593291404612159,
                0.21082089552238775
            ],
            [
                0.778825995807128,
                0.20149253731343286
            ],
            [
                0.7953878406708595,
                0.20485074626865624
            ]
        ],
        [
            [
                0.9308176100628931,
                0.2910447761194028
            ],
            [
                0.9371069182389937,
                0.3395522388059702
            ],
            [
                0.9614255765199151,
                0.34925373134328347
            ]
        ],
        [
            [
                1.0459119496855345,
                0.5313432835820896
            ],
            [
                1.070230607966457,
                0.541044776119403
            ],
            [
                1.0765199161425572,
                0.7276119402985074
            ]
        ],
        [
            [
                1.1352201257861634,
                1.1343283582089552
            ],
            [
                1.141509433962264,
                1.3208955223880599
            ],
            [
                0.9914046121593291,
                1.3201492537313435
            ]
        ],
        [
            [
                0.541090146750524,
                1.317910447761194
            ],
            [
                0.3909853249475891,
                1.3171641791044777
            ],
            [
                0.3675052410901467,
                1.2276119402985075
            ]
        ],
        [
            [
                0.2970649895178197,
                0.958955223880597
            ],
            [
                0.27358490566037735,
                0.8694029850746269
            ],
            [
                0.25513626834381553,
                0.8694029850746269
            ]
        ],
        [
            [
                0.19979035639412995,
                0.8694029850746269
            ],
            [
                0.1813417190775681,
                0.8694029850746269
            ],
            [
                0.15534591194968553,
                0.7992537313432836
            ]
        ],
        [
            [
                0.07735849056603773,
                0.5888059701492537
            ],
            [
                0.05136268343815513,
                0.5186567164179104
            ],
            [
                0.05387840670859538,
                0.4906716417910447
            ]
        ]
    ],
    "2146": [
        [
            [
                0.06142557651991614,
                0.40671641791044777
            ],
            [
                0.0639412997903564,
                0.3787313432835821
            ],
            [
                0.10020964360587001,
                0.3876865671641791
            ]
        ],
        [
            [
                0.20901467505241086,
                0.41455223880597014
            ],
            [
                0.24528301886792453,
                0.42350746268656714
            ],
            [
                0.2522012578616352,
                0.4231343283582089
            ]
        ],
        [
            [
                0.2729559748427673,
                0.42201492537313434
            ],
            [
                0.279874213836478,
                0.4216417910447761
            ],
            [
                0.3226415094339623,
                0.4835820895522388
            ]
        ],
        [
            [
                0.45094339622641505,
                0.6694029850746269
            ],
            [
                0.4937106918238994,
                0.7313432835820896
            ],
            [
                0.4949685534591195,
                0.7473880597014926
            ]
        ],
        [
            [
                0.4987421383647799,
                0.7955223880597015
            ],
            [
                0.5,
                0.8115671641791045
            ],
            [
                0.49580712788259956,
                0.8134328358208955
            ]
        ],
        [
            [
                0.4832285115303983,
                0.8190298507462686
            ],
            [
                0.47903563941299787,
                0.8208955223880596
            ],
            [
                0.510482180293501,
                0.8634328358208955
            ]
        ],
        [
            [
                0.6048218029350105,
                0.991044776119403
            ],
            [
                0.6362683438155137,
                1.033582089552239
            ],
            [
                0.6433962264150943,
                1.0298507462686568
            ]
        ],
        [
            [
                0.6647798742138364,
                1.0186567164179106
            ],
            [
                0.6719077568134171,
                1.0149253731343284
            ],
            [
                0.6727463312368972,
                0.9865671641791045
            ]
        ],
        [
            [
                0.6752620545073376,
                0.9014925373134328
            ],
            [
                0.6761006289308177,
                0.8731343283582089
            ],
            [
                0.6903563941299791,
                0.8671641791044776
            ]
        ],
        [
            [
                0.7331236897274633,
                0.8492537313432835
            ],
            [
                0.7473794549266247,
                0.8432835820895522
            ],
            [
                0.7545073375262054,
                0.8537313432835821
            ]
        ],
        [
            [
                0.7758909853249476,
                0.8850746268656716
            ],
            [
                0.7830188679245284,
                0.8955223880597015
            ],
            [
                0.7846960167714884,
                0.817910447761194
            ]
        ],
        [
            [
                0.7205450733752622,
                0.7175373134328364
            ],
            [
                0.7222222222222222,
                0.6399253731343284
            ],
            [
                0.7255765199161426,
                0.6123134328358215
            ]
        ],
        [
            [
                0.6947589098532494,
                0.3634328358208956
            ],
            [
                0.6981132075471698,
                0.3358208955223881
            ],
            [
                0.7115303983228511,
                0.2850746268656718
            ]
        ],
        [
            [
                0.8526205450733751,
                0.24253731343283555
            ],
            [
                0.8721174004192871,
                0.2332089552238806
            ],
            [
                0.8886792452830188,
                0.23656716417910403
            ]
        ],
        [
            [
                0.9811320754716981,
                0.29850746268656714
            ],
            [
                0.9874213836477987,
                0.34701492537313433
            ],
            [
                1.0117400419287204,
                0.3567164179104476
            ]
        ],
        [
            [
                1.0459119496855345,
                0.5313432835820896
            ],
            [
                1.070230607966457,
                0.541044776119403
            ],
            [
                1.0765199161425572,
                0.7276119402985074
            ]
        ],
        [
            [
                1.1352201257861634,
                1.1343283582089552
            ],
            [
                1.141509433962264,
                1.3208955223880599
            ],
            [
                0.9914046121593291,
                1.3201492537313435
            ]
        ],
        [
            [
                0.541090146750524,
                1.317910447761194
            ],
            [
                0.3909853249475891,
                1.3171641791044777
            ],
            [
                0.3675052410901467,
                1.2276119402985075
            ]
        ],
        [
            [
                0.2970649895178197,
                0.958955223880597
            ],
            [
                0.27358490566037735,
                0.8694029850746269
            ],
            [
                0.25513626834381553,
                0.8694029850746269
            ]
        ],
        [
            [
                0.19979035639412995,
                0.8694029850746269
            ],
            [
                0.1813417190775681,
                0.8694029850746269
            ],
            [
                0.15534591194968553,
                0.7992537313432836
            ]
        ],
        [
            [
                0.07735849056603773,
                0.5888059701492537
            ],
            [
                0.05136268343815513,
                0.5186567164179104
            ],
            [
                0.05387840670859538,
                0.4906716417910447
            ]
        ]
    ],
    "2164": [
        [
            [
                0.06142557651991614,
                0.40671641791044777
            ],
            [
                0.0639412997903564,
                0.3787313432835821
            ],
            [
                0.10020964360587001,
                0.3876865671641791
            ]
        ],
        [
            [
                0.20901467505241086,
                0.41455223880597014
            ],
            [
                0.24528301886792453,
                0.42350746268656714
            ],
            [
                0.2522012578616352,
                0.4231343283582089
            ]
        ],
        [
            [
                0.2729559748427673,
                0.42201492537313434
            ],
            [
                0.279874213836478,
                0.4216417910447761
            ],
            [
                0.3226415094339623,
                0.4835820895522388
            ]
        ],
        [
            [
                0.45094339622641505,
                0.6694029850746269
            ],
            [
                0.4937106918238994,
                0.7313432835820896
            ],
            [
                0.4949685534591195,
                0.7473880597014926
            ]
        ],
        [
            [
                0.4987421383647799,
                0.7955223880597015
            ],
            [
                0.5,
                0.8115671641791045
            ],
            [
                0.49580712788259956,
                0.8134328358208955
            ]
        ],
        [
            [
                0.4832285115303983,
                0.8190298507462686
            ],
            [
                0.47903563941299787,
                0.8208955223880596
            ],
            [
                0.510482180293501,
                0.8634328358208955
            ]
        ],
        [
            [
                0.6048218029350105,
                0.991044776119403
            ],
            [
                0.6362683438155137,
                1.033582089552239
            ],
            [
                0.6433962264150943,
                1.0298507462686568
            ]
        ],
        [
            [
                0.6647798742138364,
                1.0186567164179106
            ],
            [
                0.6719077568134171,
                1.0149253731343284
            ],
            [
                0.6727463312368972,
                0.9865671641791045
            ]
        ],
        [
            [
                0.6752620545073376,
                0.9014925373134328
            ],
            [
                0.6761006289308177,
                0.8731343283582089
            ],
            [
                0.6903563941299791,
                0.8671641791044776
            ]
        ],
        [
            [
                0.7331236897274633,
                0.8492537313432835
            ],
            [
                0.7473794549266247,
                0.8432835820895522
            ],
            [
                0.7545073375262054,
                0.8537313432835821
            ]
        ],
        [
            [
                0.7758909853249476,
                0.8850746268656716
            ],
            [
                0.7830188679245284,
                0.8955223880597015
            ],
            [
                0.7846960167714884,
                0.817910447761194
            ]
        ],
        [
            [
                0.7205450733752622,
                0.7175373134328364
            ],
            [
                0.7222222222222222,
                0.6399253731343284
            ],
            [
                0.7255765199161426,
                0.6123134328358215
            ]
        ],
        [
            [
                0.7062893081761007,
                0.38955223880597034
            ],
            [
                0.709643605870021,
                0.3619402985074627
            ],
            [
                0.7230607966457023,
                0.31119402985074657
            ]
        ],
        [
            [
                0.8526205450733751,
                0.24253731343283555
            ],
            [
                0.8721174004192871,
                0.2332089552238806
            ],
            [
                0.8886792452830188,
                0.23656716417910403
            ]
        ],
        [
            [
                0.9811320754716981,
                0.29850746268656714
            ],
            [
                0.9874213836477987,
                0.34701492537313433
            ],
            [
                1.0117400419287204,
                0.3567164179104476
            ]
        ],
        [
            [
                1.0459119496855345,
                0.5313432835820896
            ],
            [
                1.070230607966457,
                0.541044776119403
            ],
            [
                1.0765199161425572,
                0.7276119402985074
            ]
        ],
        [
            [
                1.1352201257861634,
                1.1343283582089552
            ],
            [
                1.141509433962264,
                1.3208955223880599
            ],
            [
                0.9914046121593291,
                1.3201492537313435
            ]
        ],
        [
            [
                0.541090146750524,
                1.317910447761194
            ],
            [
                0.3909853249475891,
                1.3171641791044777
            ],
            [
                0.3675052410901467,
                1.2276119402985075
            ]
        ],
        [
            [
                0.2970649895178197,
                0.958955223880597
            ],
            [
                0.27358490566037735,
                0.8694029850746269
            ],
            [
                0.25513626834381553,
                0.8694029850746269
            ]
        ],
        [
            [
                0.19979035639412995,
                0.8694029850746269
            ],
            [
                0.1813417190775681,
                0.8694029850746269
            ],
            [
                0.15534591194968553,
                0.7992537313432836
            ]
        ],
        [
            [
                0.07735849056603773,
                0.5888059701492537
            ],
            [
                0.05136268343815513,
                0.5186567164179104
            ],
            [
                0.05387840670859538,
                0.4906716417910447
            ]
        ]
    ],
    "2192": [
        [
            [
                0.06142557651991614,
                0.40671641791044777
            ],
            [
                0.0639412997903564,
                0.3787313432835821
            ],
            [
                0.10020964360587001,
                0.3876865671641791
            ]
        ],
        [
            [
                0.20901467505241086,
                0.41455223880597014
            ],
            [
                0.24528301886792453,
                0.42350746268656714
            ],
            [
                0.2522012578616352,
                0.4231343283582089
            ]
        ],
        [
            [
                0.2729559748427673,
                0.42201492537313434
            ],
            [
                0.279874213836478,
                0.4216417910447761
            ],
            [
                0.3226415094339623,
                0.4835820895522388
            ]
        ],
        [
            [
                0.45094339622641505,
                0.6694029850746269
            ],
            [
                0.4937106918238994,
                0.7313432835820896
            ],
            [
                0.4949685534591195,
                0.7473880597014926
            ]
        ],
        [
            [
                0.4987421383647799,
                0.7955223880597015
            ],
            [
                0.5,
                0.8115671641791045
            ],
            [
                0.49580712788259956,
                0.8134328358208955
            ]
        ],
        [
            [
                0.4832285115303983,
                0.8190298507462686
            ],
            [
                0.47903563941299787,
                0.8208955223880596
            ],
            [
                0.510482180293501,
                0.8634328358208955
            ]
        ],
        [
            [
                0.6048218029350105,
                0.991044776119403
            ],
            [
                0.6362683438155137,
                1.033582089552239
            ],
            [
                0.6433962264150943,
                1.0298507462686568
            ]
        ],
        [
            [
                0.6647798742138364,
                1.0186567164179106
            ],
            [
                0.6719077568134171,
                1.0149253731343284
            ],
            [
                0.6727463312368972,
                0.9865671641791045
            ]
        ],
        [
            [
                0.6752620545073376,
                0.9014925373134328
            ],
            [
                0.6761006289308177,
                0.8731343283582089
            ],
            [
                0.6903563941299791,
                0.8671641791044776
            ]
        ],
        [
            [
                0.7331236897274633,
                0.8492537313432835
            ],
            [
                0.7473794549266247,
                0.8432835820895522
            ],
            [
                0.7545073375262054,
                0.8537313432835821
            ]
        ],
        [
            [
                0.7758909853249476,
                0.8850746268656716
            ],
            [
                0.7830188679245284,
                0.8955223880597015
            ],
            [
                0.7846960167714884,
                0.817910447761194
            ]
        ],
        [
            [
                0.7865828092243187,
                0.6093283582089559
            ],
            [
                0.7882599580712788,
                0.5317164179104478
            ],
            [
                0.7916142557651991,
                0.5041044776119411
            ]
        ],
        [
            [
                0.8132075471698114,
                0.36529850746268683
            ],
            [
                0.8165618448637316,
                0.3376865671641791
            ],
            [
                0.829979035639413,
                0.28694029850746305
            ]
        ],
        [
            [
                0.9710691823899371,
                0.24440298507462657
            ],
            [
                0.9905660377358491,
                0.23507462686567163
            ],
            [
                1.0071278825995809,
                0.23843283582089517
            ]
        ],
        [
            [
                1.0010482180293498,
                0.2835820895522388
            ],
            [
                1.0073375262054507,
                0.332089552238806
            ],
            [
                1.0316561844863719,
                0.34179104477611927
            ]
        ],
        [
            [
                1.0459119496855345,
                0.5313432835820896
            ],
            [
                1.070230607966457,
                0.541044776119403
            ],
            [
                1.0765199161425572,
                0.7276119402985074
            ]
        ],
        [
            [
                1.1352201257861634,
                1.1343283582089552
            ],
            [
                1.141509433962264,
                1.3208955223880599
            ],
            [
                0.9914046121593291,
                1.3201492537313435
            ]
        ],
        [
            [
                0.541090146750524,
                1.317910447761194
            ],
            [
                0.3909853249475891,
                1.3171641791044777
            ],
            [
                0.3675052410901467,
                1.2276119402985075
            ]
        ],
        [
            [
                0.2970649895178197,
                0.958955223880597
            ],
            [
                0.27358490566037735,
                0.8694029850746269
            ],
            [
                0.25513626834381553,
                0.8694029850746269
            ]
        ],
        [
            [
                0.19979035639412995,
                0.8694029850746269
            ],
            [
                0.1813417190775681,
                0.8694029850746269
            ],
            [
                0.15534591194968553,
                0.7992537313432836
            ]
        ],
        [
            [
                0.07735849056603773,
                0.5888059701492537
            ],
            [
                0.05136268343815513,
                0.5186567164179104
            ],
            [
                0.05387840670859538,
                0.4906716417910447
            ]
        ]
    ],
    "2760": [
        [
            [
                0.06142557651991614,
                0.40671641791044777
            ],
            [
                0.0639412997903564,
                0.3787313432835821
            ],
            [
                0.10020964360587001,
                0.3876865671641791
            ]
        ],
        [
            [
                0.20901467505241086,
                0.41455223880597014
            ],
            [
                0.24528301886792453,
                0.42350746268656714
            ],
            [
                0.2522012578616352,
                0.4231343283582089
            ]
        ],
        [
            [
                0.2729559748427673,
                0.42201492537313434
            ],
            [
                0.279874213836478,
                0.4216417910447761
            ],
            [
                0.3226415094339623,
                0.4835820895522388
            ]
        ],
        [
            [
                0.45094339622641505,
                0.6694029850746269
            ],
            [
                0.4937106918238994,
                0.7313432835820896
            ],
            [
                0.4949685534591195,
                0.7473880597014926
            ]
        ],
        [
            [
                0.4987421383647799,
                0.7955223880597015
            ],
            [
                0.5,
                0.8115671641791045
            ],
            [
                0.49580712788259956,
                0.8134328358208955
            ]
        ],
        [
            [
                0.4832285115303983,
                0.8190298507462686
            ],
            [
                0.47903563941299787,
                0.8208955223880596
            ],
            [
                0.510482180293501,
                0.8634328358208955
            ]
        ],
        [
            [
                0.6048218029350105,
                0.991044776119403
            ],
            [
                0.6362683438155137,
                1.033582089552239
            ],
            [
                0.6433962264150943,
                1.0298507462686568
            ]
        ],
        [
            [
                0.6647798742138364,
                1.0186567164179106
            ],
            [
                0.6719077568134171,
                1.0149253731343284
            ],
            [
                0.6727463312368972,
                0.9865671641791045
            ]
        ],
        [
            [
                0.6752620545073376,
                0.9014925373134328
            ],
            [
                0.6761006289308177,
                0.8731343283582089
            ],
            [
                0.6903563941299791,
                0.8671641791044776
            ]
        ],
        [
            [
                0.7331236897274633,
                0.8492537313432835
            ],
            [
                0.7473794549266247,
                0.8432835820895522
            ],
            [
                0.7545073375262054,
                0.8537313432835821
            ]
        ],
        [
            [
                0.7758909853249476,
                0.8850746268656716
            ],
            [
                0.7830188679245284,
                0.8955223880597015
            ],
            [
                0.7846960167714884,
                0.817910447761194
            ]
        ],
        [
            [
                0.8023060796645702,
                0.6447761194029864
            ],
            [
                0.8039832285115304,
                0.5671641791044776
            ],
            [
                0.8073375262054507,
                0.5395522388059717
            ]
        ],
        [
            [
                0.8341719077568134,
                0.3634328358208958
            ],
            [
                0.8375262054507338,
                0.3358208955223881
            ],
            [
                0.850943396226415,
                0.28507462686567203
            ]
        ],
        [
            [
                0.9710691823899371,
                0.24440298507462657
            ],
            [
                0.9905660377358491,
                0.23507462686567163
            ],
            [
                1.0071278825995809,
                0.23843283582089517
            ]
        ],
        [
            [
                1.0010482180293498,
                0.2835820895522388
            ],
            [
                1.0073375262054507,
                0.332089552238806
            ],
            [
                1.0316561844863719,
                0.34179104477611927
            ]
        ],
        [
            [
                1.0459119496855345,
                0.5313432835820896
            ],
            [
                1.070230607966457,
                0.541044776119403
            ],
            [
                1.0765199161425572,
                0.7276119402985074
            ]
        ],
        [
            [
                1.1352201257861634,
                1.1343283582089552
            ],
            [
                1.141509433962264,
                1.3208955223880599
            ],
            [
                0.9914046121593291,
                1.3201492537313435
            ]
        ],
        [
            [
                0.541090146750524,
                1.317910447761194
            ],
            [
                0.3909853249475891,
                1.3171641791044777
            ],
            [
                0.3675052410901467,
                1.2276119402985075
            ]
        ],
        [
            [
                0.2970649895178197,
                0.958955223880597
            ],
            [
                0.27358490566037735,
                0.8694029850746269
            ],
            [
                0.25513626834381553,
                0.8694029850746269
            ]
        ],
        [
            [
                0.19979035639412995,
                0.8694029850746269
            ],
            [
                0.1813417190775681,
                0.8694029850746269
            ],
            [
                0.15534591194968553,
                0.7992537313432836
            ]
        ],
        [
            [
                0.07735849056603773,
                0.5888059701492537
            ],
            [
                0.05136268343815513,
                0.5186567164179104
            ],
            [
                0.05387840670859538,
                0.4906716417910447
            ]
        ]
    ],
    "2931": [
        [
            [
                0.06142557651991614,
                0.40671641791044777
            ],
            [
                0.0639412997903564,
                0.3787313432835821
            ],
            [
                0.10020964360587001,
                0.3876865671641791
            ]
        ],
        [
            [
                0.20901467505241086,
                0.41455223880597014
            ],
            [
                0.24528301886792453,
                0.42350746268656714
            ],
            [
                0.2522012578616352,
                0.4231343283582089
            ]
        ],
        [
            [
                0.2729559748427673,
                0.42201492537313434
            ],
            [
                0.279874213836478,
                0.4216417910447761
            ],
            [
                0.3226415094339623,
                0.4835820895522388
            ]
        ],
        [
            [
                0.45094339622641505,
                0.6694029850746269
            ],
            [
                0.4937106918238994,
                0.7313432835820896
            ],
            [
                0.4949685534591195,
                0.7473880597014926
            ]
        ],
        [
            [
                0.4987421383647799,
                0.7955223880597015
            ],
            [
                0.5,
                0.8115671641791045
            ],
            [
                0.49580712788259956,
                0.8134328358208955
            ]
        ],
        [
            [
                0.4832285115303983,
                0.8190298507462686
            ],
            [
                0.47903563941299787,
                0.8208955223880596
            ],
            [
                0.510482180293501,
                0.8634328358208955
            ]
        ],
        [
            [
                0.6048218029350105,
                0.991044776119403
            ],
            [
                0.6362683438155137,
                1.033582089552239
            ],
            [
                0.6433962264150943,
                1.0298507462686568
            ]
        ],
        [
            [
                0.6647798742138364,
                1.0186567164179106
            ],
            [
                0.6719077568134171,
                1.0149253731343284
            ],
            [
                0.6727463312368972,
                0.9865671641791045
            ]
        ],
        [
            [
                0.6752620545073376,
                0.9014925373134328
            ],
            [
                0.6761006289308177,
                0.8731343283582089
            ],
            [
                0.6903563941299791,
                0.8671641791044776
            ]
        ],
        [
            [
                0.7331236897274633,
                0.8492537313432835
            ],
            [
                0.7473794549266247,
                0.8432835820895522
            ],
            [
                0.7545073375262054,
                0.8537313432835821
            ]
        ],
        [
            [
                0.7758909853249476,
                0.8850746268656716
            ],
            [
                0.7830188679245284,
                0.8955223880597015
            ],
            [
                0.7846960167714884,
                0.817910447761194
            ]
        ],
        [
            [
                0.8023060796645702,
                0.6447761194029864
            ],
            [
                0.8039832285115304,
                0.5671641791044776
            ],
            [
                0.8073375262054507,
                0.5395522388059717
            ]
        ],
        [
            [
                0.8341719077568134,
                0.3634328358208958
            ],
            [
                0.8375262054507338,
                0.3358208955223881
            ],
            [
                0.850943396226415,
                0.28507462686567203
            ]
        ],
        [
            [
                0.9710691823899371,
                0.24440298507462657
            ],
            [
                0.9905660377358491,
                0.23507462686567163
            ],
            [
                1.0071278825995809,
                0.23843283582089517
            ]
        ],
        [
            [
                1.0010482180293498,
                0.2835820895522388
            ],
            [
                1.0073375262054507,
                0.332089552238806
            ],
            [
                1.0316561844863719,
                0.34179104477611927
            ]
        ],
        [
            [
                1.0459119496855345,
                0.5313432835820896
            ],
            [
                1.070230607966457,
                0.541044776119403
            ],
            [
                1.0765199161425572,
                0.7276119402985074
            ]
        ],
        [
            [
                1.1352201257861634,
                1.1343283582089552
            ],
            [
                1.141509433962264,
                1.3208955223880599
            ],
            [
                0.9914046121593291,
                1.3201492537313435
            ]
        ],
        [
            [
                0.541090146750524,
                1.317910447761194
            ],
            [
                0.3909853249475891,
                1.3171641791044777
            ],
            [
                0.3675052410901467,
                1.2276119402985075
            ]
        ],
        [
            [
                0.2970649895178197,
                0.958955223880597
            ],
            [
                0.27358490566037735,
                0.8694029850746269
            ],
            [
                0.25513626834381553,
                0.8694029850746269
            ]
        ],
        [
            [
                0.19979035639412995,
                0.8694029850746269
            ],
            [
                0.1813417190775681,
                0.8694029850746269
            ],
            [
                0.15534591194968553,
                0.7992537313432836
            ]
        ],
        [
            [
                0.07735849056603773,
                0.5888059701492537
            ],
            [
                0.05136268343815513,
                0.5186567164179104
            ],
            [
                0.05387840670859538,
                0.4906716417910447
            ]
        ]
    ],
    "2950": [
        [
            [
                0.06142557651991614,
                0.40671641791044777
            ],
            [
                0.0639412997903564,
                0.3787313432835821
            ],
            [
                0.10020964360587001,
                0.3876865671641791
            ]
        ],
        [
            [
                0.20901467505241086,
                0.41455223880597014
            ],
            [
                0.24528301886792453,
                0.42350746268656714
            ],
            [
                0.2522012578616352,
                0.4231343283582089
            ]
        ],
        [
            [
                0.2729559748427673,
                0.42201492537313434
            ],
            [
                0.279874213836478,
                0.4216417910447761
            ],
            [
                0.3226415094339623,
                0.4835820895522388
            ]
        ],
        [
            [
                0.45094339622641505,
                0.6694029850746269
            ],
            [
                0.4937106918238994,
                0.7313432835820896
            ],
            [
                0.4949685534591195,
                0.7473880597014926
            ]
        ],
        [
            [
                0.4987421383647799,
                0.7955223880597015
            ],
            [
                0.5,
                0.8115671641791045
            ],
            [
                0.49580712788259956,
                0.8134328358208955
            ]
        ],
        [
            [
                0.4832285115303983,
                0.8190298507462686
            ],
            [
                0.47903563941299787,
                0.8208955223880596
            ],
            [
                0.510482180293501,
                0.8634328358208955
            ]
        ],
        [
            [
                0.6048218029350105,
                0.991044776119403
            ],
            [
                0.6362683438155137,
                1.033582089552239
            ],
            [
                0.6433962264150943,
                1.0298507462686568
            ]
        ],
        [
            [
                0.6647798742138364,
                1.0186567164179106
            ],
            [
                0.6719077568134171,
                1.0149253731343284
            ],
            [
                0.6727463312368972,
                0.9865671641791045
            ]
        ],
        [
            [
                0.6752620545073376,
                0.9014925373134328
            ],
            [
                0.6761006289308177,
                0.8731343283582089
            ],
            [
                0.6903563941299791,
                0.8671641791044776
            ]
        ],
        [
            [
                0.7331236897274633,
                0.8492537313432835
            ],
            [
                0.7473794549266247,
                0.8432835820895522
            ],
            [
                0.7545073375262054,
                0.8537313432835821
            ]
        ],
        [
            [
                0.7758909853249476,
                0.8850746268656716
            ],
            [
                0.7830188679245284,
                0.8955223880597015
            ],
            [
                0.7846960167714884,
                0.817910447761194
            ]
        ],
        [
            [
                0.7278825995807129,
                0.6055970149253744
            ],
            [
                0.729559748427673,
                0.5279850746268657
            ],
            [
                0.759958071278826,
                0.3768656716417911
            ]
        ],
        [
            [
                0.6937106918238992,
                0.2888059701492541
            ],
            [
                0.6970649895178197,
                0.2611940298507463
            ],
            [
                0.7104821802935011,
                0.21044776119403028
            ]
        ],
        [
            [
                0.817868085792614,
                0.29212112514351285
            ],
            [
                0.837364941138526,
                0.282792766934558
            ],
            [
                0.8539267860022578,
                0.28615097588978144
            ]
        ],
        [
            [
                0.9152556039348488,
                0.3926521239954076
            ],
            [
                0.9215449121109498,
                0.44115958668197475
            ],
            [
                0.9458635703918709,
                0.4508610792192881
            ]
        ],
        [
            [
                1.0018867924528292,
                1.0238805970149256
            ],
            [
                1.0262054507337526,
                1.033582089552239
            ],
            [
                1.032494758909853,
                1.2201492537313445
            ]
        ],
        [
            [
                1.1352201257861634,
                1.1343283582089552
            ],
            [
                1.141509433962264,
                1.3208955223880599
            ],
            [
                0.9914046121593291,
                1.3201492537313435
            ]
        ],
        [
            [
                0.541090146750524,
                1.317910447761194
            ],
            [
                0.3909853249475891,
                1.3171641791044777
            ],
            [
                0.3675052410901467,
                1.2276119402985075
            ]
        ],
        [
            [
                0.2970649895178197,
                0.958955223880597
            ],
            [
                0.27358490566037735,
                0.8694029850746269
            ],
            [
                0.25513626834381553,
                0.8694029850746269
            ]
        ],
        [
            [
                0.19979035639412995,
                0.8694029850746269
            ],
            [
                0.1813417190775681,
                0.8694029850746269
            ],
            [
                0.15534591194968553,
                0.7992537313432836
            ]
        ],
        [
            [
                0.07735849056603773,
                0.5888059701492537
            ],
            [
                0.05136268343815513,
                0.5186567164179104
            ],
            [
                0.05387840670859538,
                0.4906716417910447
            ]
        ]
    ],
    "2957": [
        [
            [
                0.06142557651991614,
                0.40671641791044777
            ],
            [
                0.0639412997903564,
                0.3787313432835821
            ],
            [
                0.10020964360587001,
                0.3876865671641791
            ]
        ],
        [
            [
                0.20901467505241086,
                0.41455223880597014
            ],
            [
                0.24528301886792453,
                0.42350746268656714
            ],
            [
                0.2522012578616352,
                0.4231343283582089
            ]
        ],
        [
            [
                0.2729559748427673,
                0.42201492537313434
            ],
            [
                0.279874213836478,
                0.4216417910447761
            ],
            [
                0.3226415094339623,
                0.4835820895522388
            ]
        ],
        [
            [
                0.45094339622641505,
                0.6694029850746269
            ],
            [
                0.4937106918238994,
                0.7313432835820896
            ],
            [
                0.4949685534591195,
                0.7473880597014926
            ]
        ],
        [
            [
                0.4987421383647799,
                0.7955223880597015
            ],
            [
                0.5,
                0.8115671641791045
            ],
            [
                0.49580712788259956,
                0.8134328358208955
            ]
        ],
        [
            [
                0.4832285115303983,
                0.8190298507462686
            ],
            [
                0.47903563941299787,
                0.8208955223880596
            ],
            [
                0.510482180293501,
                0.8634328358208955
            ]
        ],
        [
            [
                0.6048218029350105,
                0.991044776119403
            ],
            [
                0.6362683438155137,
                1.033582089552239
            ],
            [
                0.6433962264150943,
                1.0298507462686568
            ]
        ],
        [
            [
                0.6647798742138364,
                1.0186567164179106
            ],
            [
                0.6719077568134171,
                1.0149253731343284
            ],
            [
                0.6727463312368972,
                0.9865671641791045
            ]
        ],
        [
            [
                0.6752620545073376,
                0.9014925373134328
            ],
            [
                0.6761006289308177,
                0.8731343283582089
            ],
            [
                0.6903563941299791,
                0.8671641791044776
            ]
        ],
        [
            [
                0.7331236897274633,
                0.8492537313432835
            ],
            [
                0.7473794549266247,
                0.8432835820895522
            ],
            [
                0.7545073375262054,
                0.8537313432835821
            ]
        ],
        [
            [
                0.7758909853249476,
                0.8850746268656716
            ],
            [
                0.7830188679245284,
                0.8955223880597015
            ],
            [
                0.7846960167714884,
                0.817910447761194
            ]
        ],
        [
            [
                0.69958071278826,
                0.6354477611940311
            ],
            [
                0.7012578616352201,
                0.5578358208955224
            ],
            [
                0.7264150943396227,
                0.3805970149253731
            ]
        ],
        [
            [
                0.6549266247379454,
                0.34850746268656757
            ],
            [
                0.6582809224318658,
                0.32089552238805974
            ],
            [
                0.6716981132075471,
                0.2701492537313438
            ]
        ],
        [
            [
                0.761425576519916,
                0.30970149253731305
            ],
            [
                0.7809224318658281,
                0.3003731343283582
            ],
            [
                0.7974842767295598,
                0.3037313432835817
            ]
        ],
        [
            [
                0.883647798742138,
                0.4328358208955224
            ],
            [
                0.889937106918239,
                0.48134328358208955
            ],
            [
                0.9142557651991599,
                0.4910447761194029
            ]
        ],
        [
            [
                0.9935010482180288,
                0.8970149253731343
            ],
            [
                1.0178197064989518,
                0.9067164179104478
            ],
            [
                1.0241090146750522,
                1.0932835820895528
            ]
        ],
        [
            [
                1.1352201257861634,
                1.1343283582089552
            ],
            [
                1.141509433962264,
                1.3208955223880599
            ],
            [
                0.9914046121593291,
                1.3201492537313435
            ]
        ],
        [
            [
                0.541090146750524,
                1.317910447761194
            ],
            [
                0.3909853249475891,
                1.3171641791044777
            ],
            [
                0.3675052410901467,
                1.2276119402985075
            ]
        ],
        [
            [
                0.2970649895178197,
                0.958955223880597
            ],
            [
                0.27358490566037735,
                0.8694029850746269
            ],
            [
                0.25513626834381553,
                0.8694029850746269
            ]
        ],
        [
            [
                0.19979035639412995,
                0.8694029850746269
            ],
            [
                0.1813417190775681,
                0.8694029850746269
            ],
            [
                0.15534591194968553,
                0.7992537313432836
            ]
        ],
        [
            [
                0.07735849056603773,
                0.5888059701492537
            ],
            [
                0.05136268343815513,
                0.5186567164179104
            ],
            [
                0.05387840670859538,
                0.4906716417910447
            ]
        ]
    ],
    "2979": [
        [
            [
                0.06142557651991614,
                0.40671641791044777
            ],
            [
                0.0639412997903564,
                0.3787313432835821
            ],
            [
                0.10020964360587001,
                0.3876865671641791
            ]
        ],
        [
            [
                0.20901467505241086,
                0.41455223880597014
            ],
            [
                0.24528301886792453,
                0.42350746268656714
            ],
            [
                0.2522012578616352,
                0.4231343283582089
            ]
        ],
        [
            [
                0.2729559748427673,
                0.42201492537313434
            ],
            [
                0.279874213836478,
                0.4216417910447761
            ],
            [
                0.3226415094339623,
                0.4835820895522388
            ]
        ],
        [
            [
                0.45094339622641505,
                0.6694029850746269
            ],
            [
                0.4937106918238994,
                0.7313432835820896
            ],
            [
                0.4949685534591195,
                0.7473880597014926
            ]
        ],
        [
            [
                0.4987421383647799,
                0.7955223880597015
            ],
            [
                0.5,
                0.8115671641791045
            ],
            [
                0.49580712788259956,
                0.8134328358208955
            ]
        ],
        [
            [
                0.4832285115303983,
                0.8190298507462686
            ],
            [
                0.47903563941299787,
                0.8208955223880596
            ],
            [
                0.510482180293501,
                0.8634328358208955
            ]
        ],
        [
            [
                0.6048218029350105,
                0.991044776119403
            ],
            [
                0.6362683438155137,
                1.033582089552239
            ],
            [
                0.6433962264150943,
                1.0298507462686568
            ]
        ],
        [
            [
                0.6647798742138364,
                1.0186567164179106
            ],
            [
                0.6719077568134171,
                1.0149253731343284
            ],
            [
                0.6727463312368972,
                0.9865671641791045
            ]
        ],
        [
            [
                0.6752620545073376,
                0.9014925373134328
            ],
            [
                0.6761006289308177,
                0.8731343283582089
            ],
            [
                0.6903563941299791,
                0.8671641791044776
            ]
        ],
        [
            [
                0.7331236897274633,
                0.8492537313432835
            ],
            [
                0.7473794549266247,
                0.8432835820895522
            ],
            [
                0.7545073375262054,
                0.8537313432835821
            ]
        ],
        [
            [
                0.7758909853249476,
                0.8850746268656716
            ],
            [
                0.7830188679245284,
                0.8955223880597015
            ],
            [
                0.7846960167714884,
                0.817910447761194
            ]
        ],
        [
            [
                0.6890985324947589,
                0.624253731343285
            ],
            [
                0.6907756813417191,
                0.5466417910447762
            ],
            [
                0.720125786163522,
                0.40858208955223885
            ]
        ],
        [
            [
                0.6360587002096436,
                0.3466417910447765
            ],
            [
                0.639412997903564,
                0.31902985074626866
            ],
            [
                0.6528301886792452,
                0.2682835820895527
            ]
        ],
        [
            [
                0.761425576519916,
                0.30970149253731305
            ],
            [
                0.7809224318658281,
                0.3003731343283582
            ],
            [
                0.7974842767295598,
                0.3037313432835817
            ]
        ],
        [
            [
                0.883647798742138,
                0.4328358208955224
            ],
            [
                0.889937106918239,
                0.48134328358208955
            ],
            [
                0.9142557651991599,
                0.4910447761194029
            ]
        ],
        [
            [
                0.9935010482180288,
                0.8970149253731343
            ],
            [
                1.0178197064989518,
                0.9067164179104478
            ],
            [
                1.0241090146750522,
                1.0932835820895528
            ]
        ],
        [
            [
                1.1352201257861634,
                1.1343283582089552
            ],
            [
                1.141509433962264,
                1.3208955223880599
            ],
            [
                0.9914046121593291,
                1.3201492537313435
            ]
        ],
        [
            [
                0.541090146750524,
                1.317910447761194
            ],
            [
                0.3909853249475891,
                1.3171641791044777
            ],
            [
                0.3675052410901467,
                1.2276119402985075
            ]
        ],
        [
            [
                0.2970649895178197,
                0.958955223880597
            ],
            [
                0.27358490566037735,
                0.8694029850746269
            ],
            [
                0.25513626834381553,
                0.8694029850746269
            ]
        ],
        [
            [
                0.19979035639412995,
                0.8694029850746269
            ],
            [
                0.1813417190775681,
                0.8694029850746269
            ],
            [
                0.15534591194968553,
                0.7992537313432836
            ]
        ],
        [
            [
                0.07735849056603773,
                0.5888059701492537
            ],
            [
                0.05136268343815513,
                0.5186567164179104
            ],
            [
                0.05387840670859538,
                0.4906716417910447
            ]
        ]
    ],
    "2991": [
        [
            [
                0.06142557651991614,
                0.40671641791044777
            ],
            [
                0.0639412997903564,
                0.3787313432835821
            ],
            [
                0.10020964360587001,
                0.3876865671641791
            ]
        ],
        [
            [
                0.20901467505241086,
                0.41455223880597014
            ],
            [
                0.24528301886792453,
                0.42350746268656714
            ],
            [
                0.2522012578616352,
                0.4231343283582089
            ]
        ],
        [
            [
                0.2729559748427673,
                0.42201492537313434
            ],
            [
                0.279874213836478,
                0.4216417910447761
            ],
            [
                0.3226415094339623,
                0.4835820895522388
            ]
        ],
        [
            [
                0.45094339622641505,
                0.6694029850746269
            ],
            [
                0.4937106918238994,
                0.7313432835820896
            ],
            [
                0.4949685534591195,
                0.7473880597014926
            ]
        ],
        [
            [
                0.4987421383647799,
                0.7955223880597015
            ],
            [
                0.5,
                0.8115671641791045
            ],
            [
                0.49580712788259956,
                0.8134328358208955
            ]
        ],
        [
            [
                0.4832285115303983,
                0.8190298507462686
            ],
            [
                0.47903563941299787,
                0.8208955223880596
            ],
            [
                0.510482180293501,
                0.8634328358208955
            ]
        ],
        [
            [
                0.6048218029350105,
                0.991044776119403
            ],
            [
                0.6362683438155137,
                1.033582089552239
            ],
            [
                0.6433962264150943,
                1.0298507462686568
            ]
        ],
        [
            [
                0.6647798742138364,
                1.0186567164179106
            ],
            [
                0.6719077568134171,
                1.0149253731343284
            ],
            [
                0.6727463312368972,
                0.9865671641791045
            ]
        ],
        [
            [
                0.6752620545073376,
                0.9014925373134328
            ],
            [
                0.6761006289308177,
                0.8731343283582089
            ],
            [
                0.6903563941299791,
                0.8671641791044776
            ]
        ],
        [
            [
                0.7331236897274633,
                0.8492537313432835
            ],
            [
                0.7473794549266247,
                0.8432835820895522
            ],
            [
                0.7545073375262054,
                0.8537313432835821
            ]
        ],
        [
            [
                0.7758909853249476,
                0.8850746268656716
            ],
            [
                0.7830188679245284,
                0.8955223880597015
            ],
            [
                0.7846960167714884,
                0.817910447761194
            ]
        ],
        [
            [
                0.6335429769392034,
                0.6541044776119418
            ],
            [
                0.6352201257861635,
                0.5764925373134328
            ],
            [
                0.6645702306079664,
                0.43843283582089565
            ]
        ],
        [
            [
                0.6488469601677149,
                0.3955223880597015
            ],
            [
                0.6184486373165617,
                0.3414179104477612
            ],
            [
                0.6318658280922431,
                0.29067164179104527
            ]
        ],
        [
            [
                0.761425576519916,
                0.30970149253731305
            ],
            [
                0.7809224318658281,
                0.3003731343283582
            ],
            [
                0.7974842767295598,
                0.3037313432835817
            ]
        ],
        [
            [
                0.883647798742138,
                0.4328358208955224
            ],
            [
                0.889937106918239,
                0.48134328358208955
            ],
            [
                0.9142557651991599,
                0.4910447761194029
            ]
        ],
        [
            [
                0.9935010482180288,
                0.8970149253731343
            ],
            [
                1.0178197064989518,
                0.9067164179104478
            ],
            [
                1.0241090146750522,
                1.0932835820895528
            ]
        ],
        [
            [
                1.1352201257861634,
                1.1343283582089552
            ],
            [
                1.141509433962264,
                1.3208955223880599
            ],
            [
                0.9914046121593291,
                1.3201492537313435
            ]
        ],
        [
            [
                0.541090146750524,
                1.317910447761194
            ],
            [
                0.3909853249475891,
                1.3171641791044777
            ],
            [
                0.3675052410901467,
                1.2276119402985075
            ]
        ],
        [
            [
                0.2970649895178197,
                0.958955223880597
            ],
            [
                0.27358490566037735,
                0.8694029850746269
            ],
            [
                0.25513626834381553,
                0.8694029850746269
            ]
        ],
        [
            [
                0.19979035639412995,
                0.8694029850746269
            ],
            [
                0.1813417190775681,
                0.8694029850746269
            ],
            [
                0.15534591194968553,
                0.7992537313432836
            ]
        ],
        [
            [
                0.07735849056603773,
                0.5888059701492537
            ],
            [
                0.05136268343815513,
                0.5186567164179104
            ],
            [
                0.05387840670859538,
                0.4906716417910447
            ]
        ]
    ],
    "3004": [
        [
            [
                0.06142557651991614,
                0.40671641791044777
            ],
            [
                0.0639412997903564,
                0.3787313432835821
            ],
            [
                0.10020964360587001,
                0.3876865671641791
            ]
        ],
        [
            [
                0.20901467505241086,
                0.41455223880597014
            ],
            [
                0.24528301886792453,
                0.42350746268656714
            ],
            [
                0.2522012578616352,
                0.4231343283582089
            ]
        ],
        [
            [
                0.2729559748427673,
                0.42201492537313434
            ],
            [
                0.279874213836478,
                0.4216417910447761
            ],
            [
                0.3226415094339623,
                0.4835820895522388
            ]
        ],
        [
            [
                0.45094339622641505,
                0.6694029850746269
            ],
            [
                0.4937106918238994,
                0.7313432835820896
            ],
            [
                0.4949685534591195,
                0.7473880597014926
            ]
        ],
        [
            [
                0.4987421383647799,
                0.7955223880597015
            ],
            [
                0.5,
                0.8115671641791045
            ],
            [
                0.49580712788259956,
                0.8134328358208955
            ]
        ],
        [
            [
                0.4832285115303983,
                0.8190298507462686
            ],
            [
                0.47903563941299787,
                0.8208955223880596
            ],
            [
                0.510482180293501,
                0.8634328358208955
            ]
        ],
        [
            [
                0.6048218029350105,
                0.991044776119403
            ],
            [
                0.6362683438155137,
                1.033582089552239
            ],
            [
                0.6433962264150943,
                1.0298507462686568
            ]
        ],
        [
            [
                0.6647798742138364,
                1.0186567164179106
            ],
            [
                0.6719077568134171,
                1.0149253731343284
            ],
            [
                0.6727463312368972,
                0.9865671641791045
            ]
        ],
        [
            [
                0.6752620545073376,
                0.9014925373134328
            ],
            [
                0.6761006289308177,
                0.8731343283582089
            ],
            [
                0.6903563941299791,
                0.8671641791044776
            ]
        ],
        [
            [
                0.7331236897274633,
                0.8492537313432835
            ],
            [
                0.7473794549266247,
                0.8432835820895522
            ],
            [
                0.7545073375262054,
                0.8537313432835821
            ]
        ],
        [
            [
                0.7758909853249476,
                0.8850746268656716
            ],
            [
                0.7830188679245284,
                0.8955223880597015
            ],
            [
                0.7846960167714884,
                0.817910447761194
            ]
        ],
        [
            [
                0.589517819706499,
                0.6354477611940311
            ],
            [
                0.5911949685534591,
                0.5578358208955224
            ],
            [
                0.5765199161425577,
                0.47014925373134325
            ]
        ],
        [
            [
                0.6656184486373166,
                0.44589552238805974
            ],
            [
                0.6184486373165617,
                0.3414179104477612
            ],
            [
                0.6318658280922431,
                0.29067164179104527
            ]
        ],
        [
            [
                0.761425576519916,
                0.30970149253731305
            ],
            [
                0.7809224318658281,
                0.3003731343283582
            ],
            [
                0.7974842767295598,
                0.3037313432835817
            ]
        ],
        [
            [
                0.883647798742138,
                0.4328358208955224
            ],
            [
                0.889937106918239,
                0.48134328358208955
            ],
            [
                0.9142557651991599,
                0.4910447761194029
            ]
        ],
        [
            [
                0.9935010482180288,
                0.8970149253731343
            ],
            [
                1.0178197064989518,
                0.9067164179104478
            ],
            [
                1.0241090146750522,
                1.0932835820895528
            ]
        ],
        [
            [
                1.1352201257861634,
                1.1343283582089552
            ],
            [
                1.141509433962264,
                1.3208955223880599
            ],
            [
                0.9914046121593291,
                1.3201492537313435
            ]
        ],
        [
            [
                0.541090146750524,
                1.317910447761194
            ],
            [
                0.3909853249475891,
                1.3171641791044777
            ],
            [
                0.3675052410901467,
                1.2276119402985075
            ]
        ],
        [
            [
                0.2970649895178197,
                0.958955223880597
            ],
            [
                0.27358490566037735,
                0.8694029850746269
            ],
            [
                0.25513626834381553,
                0.8694029850746269
            ]
        ],
        [
            [
                0.19979035639412995,
                0.8694029850746269
            ],
            [
                0.1813417190775681,
                0.8694029850746269
            ],
            [
                0.15534591194968553,
                0.7992537313432836
            ]
        ],
        [
            [
                0.07735849056603773,
                0.5888059701492537
            ],
            [
                0.05136268343815513,
                0.5186567164179104
            ],
            [
                0.05387840670859538,
                0.4906716417910447
            ]
        ]
    ],
    "3073": [
        [
            [
                0.06142557651991614,
                0.40671641791044777
            ],
            [
                0.0639412997903564,
                0.3787313432835821
            ],
            [
                0.10020964360587001,
                0.3876865671641791
            ]
        ],
        [
            [
                0.20901467505241086,
                0.41455223880597014
            ],
            [
                0.24528301886792453,
                0.42350746268656714
            ],
            [
                0.2522012578616352,
                0.4231343283582089
            ]
        ],
        [
            [
                0.2729559748427673,
                0.42201492537313434
            ],
            [
                0.279874213836478,
                0.4216417910447761
            ],
            [
                0.3226415094339623,
                0.4835820895522388
            ]
        ],
        [
            [
                0.45094339622641505,
                0.6694029850746269
            ],
            [
                0.4937106918238994,
                0.7313432835820896
            ],
            [
                0.4949685534591195,
                0.7473880597014926
            ]
        ],
        [
            [
                0.4987421383647799,
                0.7955223880597015
            ],
            [
                0.5,
                0.8115671641791045
            ],
            [
                0.49580712788259956,
                0.8134328358208955
            ]
        ],
        [
            [
                0.4832285115303983,
                0.8190298507462686
            ],
            [
                0.47903563941299787,
                0.8208955223880596
            ],
            [
                0.510482180293501,
                0.8634328358208955
            ]
        ],
        [
            [
                0.6048218029350105,
                0.991044776119403
            ],
            [
                0.6362683438155137,
                1.033582089552239
            ],
            [
                0.6433962264150943,
                1.0298507462686568
            ]
        ],
        [
            [
                0.6647798742138364,
                1.0186567164179106
            ],
            [
                0.6719077568134171,
                1.0149253731343284
            ],
            [
                0.6727463312368972,
                0.9865671641791045
            ]
        ],
        [
            [
                0.6752620545073376,
                0.9014925373134328
            ],
            [
                0.6761006289308177,
                0.8731343283582089
            ],
            [
                0.6903563941299791,
                0.8671641791044776
            ]
        ],
        [
            [
                0.7331236897274633,
                0.8492537313432835
            ],
            [
                0.7473794549266247,
                0.8432835820895522
            ],
            [
                0.7545073375262054,
                0.8537313432835821
            ]
        ],
        [
            [
                0.7758909853249476,
                0.8850746268656716
            ],
            [
                0.7830188679245284,
                0.8955223880597015
            ],
            [
                0.7846960167714884,
                0.817910447761194
            ]
        ],
        [
            [
                0.589517819706499,
                0.6354477611940311
            ],
            [
                0.5911949685534591,
                0.5578358208955224
            ],
            [
                0.5765199161425577,
                0.47014925373134325
            ]
        ],
        [
            [
                0.6540880503144655,
                0.4589552238805971
            ],
            [
                0.6069182389937107,
                0.3544776119402985
            ],
            [
                0.620335429769392,
                0.3037313432835826
            ]
        ],
        [
            [
                0.761425576519916,
                0.30970149253731305
            ],
            [
                0.7809224318658281,
                0.3003731343283582
            ],
            [
                0.7974842767295598,
                0.3037313432835817
            ]
        ],
        [
            [
                0.883647798742138,
                0.4328358208955224
            ],
            [
                0.889937106918239,
                0.48134328358208955
            ],
            [
                0.9142557651991599,
                0.4910447761194029
            ]
        ],
        [
            [
                0.9935010482180288,
                0.8970149253731343
            ],
            [
                1.0178197064989518,
                0.9067164179104478
            ],
            [
                1.0241090146750522,
                1.0932835820895528
            ]
        ],
        [
            [
                1.1352201257861634,
                1.1343283582089552
            ],
            [
                1.141509433962264,
                1.3208955223880599
            ],
            [
                0.9914046121593291,
                1.3201492537313435
            ]
        ],
        [
            [
                0.541090146750524,
                1.317910447761194
            ],
            [
                0.3909853249475891,
                1.3171641791044777
            ],
            [
                0.3675052410901467,
                1.2276119402985075
            ]
        ],
        [
            [
                0.2970649895178197,
                0.958955223880597
            ],
            [
                0.27358490566037735,
                0.8694029850746269
            ],
            [
                0.25513626834381553,
                0.8694029850746269
            ]
        ],
        [
            [
                0.19979035639412995,
                0.8694029850746269
            ],
            [
                0.1813417190775681,
                0.8694029850746269
            ],
            [
                0.15534591194968553,
                0.7992537313432836
            ]
        ],
        [
            [
                0.07735849056603773,
                0.5888059701492537
            ],
            [
                0.05136268343815513,
                0.5186567164179104
            ],
            [
                0.05387840670859538,
                0.4906716417910447
            ]
        ]
    ],
    "3253": [
        [
            [
                0.06142557651991614,
                0.40671641791044777
            ],
            [
                0.0639412997903564,
                0.3787313432835821
            ],
            [
                0.10020964360587001,
                0.3876865671641791
            ]
        ],
        [
            [
                0.20901467505241086,
                0.41455223880597014
            ],
            [
                0.24528301886792453,
                0.42350746268656714
            ],
            [
                0.2522012578616352,
                0.4231343283582089
            ]
        ],
        [
            [
                0.2729559748427673,
                0.42201492537313434
            ],
            [
                0.279874213836478,
                0.4216417910447761
            ],
            [
                0.3226415094339623,
                0.4835820895522388
            ]
        ],
        [
            [
                0.45094339622641505,
                0.6694029850746269
            ],
            [
                0.4937106918238994,
                0.7313432835820896
            ],
            [
                0.4949685534591195,
                0.7473880597014926
            ]
        ],
        [
            [
                0.4987421383647799,
                0.7955223880597015
            ],
            [
                0.5,
                0.8115671641791045
            ],
            [
                0.49580712788259956,
                0.8134328358208955
            ]
        ],
        [
            [
                0.4832285115303983,
                0.8190298507462686
            ],
            [
                0.47903563941299787,
                0.8208955223880596
            ],
            [
                0.510482180293501,
                0.8634328358208955
            ]
        ],
        [
            [
                0.6048218029350105,
                0.991044776119403
            ],
            [
                0.6362683438155137,
                1.033582089552239
            ],
            [
                0.6433962264150943,
                1.0298507462686568
            ]
        ],
        [
            [
                0.6647798742138364,
                1.0186567164179106
            ],
            [
                0.6719077568134171,
                1.0149253731343284
            ],
            [
                0.6727463312368972,
                0.9865671641791045
            ]
        ],
        [
            [
                0.6752620545073376,
                0.9014925373134328
            ],
            [
                0.6761006289308177,
                0.8731343283582089
            ],
            [
                0.6903563941299791,
                0.8671641791044776
            ]
        ],
        [
            [
                0.7331236897274633,
                0.8492537313432835
            ],
            [
                0.7473794549266247,
                0.8432835820895522
            ],
            [
                0.7545073375262054,
                0.8537313432835821
            ]
        ],
        [
            [
                0.7758909853249476,
                0.8850746268656716
            ],
            [
                0.7830188679245284,
                0.8955223880597015
            ],
            [
                0.7846960167714884,
                0.817910447761194
            ]
        ],
        [
            [
                0.589517819706499,
                0.6354477611940311
            ],
            [
                0.5911949685534591,
                0.5578358208955224
            ],
            [
                0.5765199161425577,
                0.47014925373134325
            ]
        ],
        [
            [
                0.6540880503144655,
                0.4589552238805971
            ],
            [
                0.6069182389937107,
                0.3544776119402985
            ],
            [
                0.620335429769392,
                0.3037313432835826
            ]
        ],
        [
            [
                0.761425576519916,
                0.30970149253731305
            ],
            [
                0.7809224318658281,
                0.3003731343283582
            ],
            [
                0.7974842767295598,
                0.3037313432835817
            ]
        ],
        [
            [
                0.883647798742138,
                0.4328358208955224
            ],
            [
                0.889937106918239,
                0.48134328358208955
            ],
            [
                0.9142557651991599,
                0.4910447761194029
            ]
        ],
        [
            [
                0.9935010482180288,
                0.8970149253731343
            ],
            [
                1.0178197064989518,
                0.9067164179104478
            ],
            [
                1.0241090146750522,
                1.0932835820895528
            ]
        ],
        [
            [
                1.1352201257861634,
                1.1343283582089552
            ],
            [
                1.141509433962264,
                1.3208955223880599
            ],
            [
                0.9914046121593291,
                1.3201492537313435
            ]
        ],
        [
            [
                0.541090146750524,
                1.317910447761194
            ],
            [
                0.3909853249475891,
                1.3171641791044777
            ],
            [
                0.3675052410901467,
                1.2276119402985075
            ]
        ],
        [
            [
                0.2970649895178197,
                0.958955223880597
            ],
            [
                0.27358490566037735,
                0.8694029850746269
            ],
            [
                0.25513626834381553,
                0.8694029850746269
            ]
        ],
        [
            [
                0.19979035639412995,
                0.8694029850746269
            ],
            [
                0.1813417190775681,
                0.8694029850746269
            ],
            [
                0.15534591194968553,
                0.7992537313432836
            ]
        ],
        [
            [
                0.07735849056603773,
                0.5888059701492537
            ],
            [
                0.05136268343815513,
                0.5186567164179104
            ],
            [
                0.05387840670859538,
                0.4906716417910447
            ]
        ]
    ],
    "3264": [
        [
            [
                0.06142557651991614,
                0.40671641791044777
            ],
            [
                0.0639412997903564,
                0.3787313432835821
            ],
            [
                0.10020964360587001,
                0.3876865671641791
            ]
        ],
        [
            [
                0.20901467505241086,
                0.41455223880597014
            ],
            [
                0.24528301886792453,
                0.42350746268656714
            ],
            [
                0.2522012578616352,
                0.4231343283582089
            ]
        ],
        [
            [
                0.2729559748427673,
                0.42201492537313434
            ],
            [
                0.279874213836478,
                0.4216417910447761
            ],
            [
                0.3226415094339623,
                0.4835820895522388
            ]
        ],
        [
            [
                0.45094339622641505,
                0.6694029850746269
            ],
            [
                0.4937106918238994,
                0.7313432835820896
            ],
            [
                0.4949685534591195,
                0.7473880597014926
            ]
        ],
        [
            [
                0.4987421383647799,
                0.7955223880597015
            ],
            [
                0.5,
                0.8115671641791045
            ],
            [
                0.49580712788259956,
                0.8134328358208955
            ]
        ],
        [
            [
                0.4832285115303983,
                0.8190298507462686
            ],
            [
                0.47903563941299787,
                0.8208955223880596
            ],
            [
                0.510482180293501,
                0.8634328358208955
            ]
        ],
        [
            [
                0.6048218029350105,
                0.991044776119403
            ],
            [
                0.6362683438155137,
                1.033582089552239
            ],
            [
                0.6433962264150943,
                1.0298507462686568
            ]
        ],
        [
            [
                0.6647798742138364,
                1.0186567164179106
            ],
            [
                0.6719077568134171,
                1.0149253731343284
            ],
            [
                0.6727463312368972,
                0.9865671641791045
            ]
        ],
        [
            [
                0.6752620545073376,
                0.9014925373134328
            ],
            [
                0.6761006289308177,
                0.8731343283582089
            ],
            [
                0.6903563941299791,
                0.8671641791044776
            ]
        ],
        [
            [
                0.7331236897274633,
                0.8492537313432835
            ],
            [
                0.7473794549266247,
                0.8432835820895522
            ],
            [
                0.7545073375262054,
                0.8537313432835821
            ]
        ],
        [
            [
                0.7758909853249476,
                0.8850746268656716
            ],
            [
                0.7830188679245284,
                0.8955223880597015
            ],
            [
                0.7846960167714884,
                0.817910447761194
            ]
        ],
        [
            [
                0.6345911949685535,
                0.6279850746268667
            ],
            [
                0.6362683438155137,
                0.5503731343283582
            ],
            [
                0.6215932914046122,
                0.46268656716417883
            ]
        ],
        [
            [
                0.6016771488469601,
                0.4123134328358209
            ],
            [
                0.59958071278826,
                0.3041044776119403
            ],
            [
                0.6129979035639413,
                0.2533582089552244
            ]
        ],
        [
            [
                0.761425576519916,
                0.30970149253731305
            ],
            [
                0.7809224318658281,
                0.3003731343283582
            ],
            [
                0.7974842767295598,
                0.3037313432835817
            ]
        ],
        [
            [
                0.883647798742138,
                0.4328358208955224
            ],
            [
                0.889937106918239,
                0.48134328358208955
            ],
            [
                0.9142557651991599,
                0.4910447761194029
            ]
        ],
        [
            [
                0.9935010482180288,
                0.8970149253731343
            ],
            [
                1.0178197064989518,
                0.9067164179104478
            ],
            [
                1.0241090146750522,
                1.0932835820895528
            ]
        ],
        [
            [
                1.1352201257861634,
                1.1343283582089552
            ],
            [
                1.141509433962264,
                1.3208955223880599
            ],
            [
                0.9914046121593291,
                1.3201492537313435
            ]
        ],
        [
            [
                0.541090146750524,
                1.317910447761194
            ],
            [
                0.3909853249475891,
                1.3171641791044777
            ],
            [
                0.3675052410901467,
                1.2276119402985075
            ]
        ],
        [
            [
                0.2970649895178197,
                0.958955223880597
            ],
            [
                0.27358490566037735,
                0.8694029850746269
            ],
            [
                0.25513626834381553,
                0.8694029850746269
            ]
        ],
        [
            [
                0.19979035639412995,
                0.8694029850746269
            ],
            [
                0.1813417190775681,
                0.8694029850746269
            ],
            [
                0.15534591194968553,
                0.7992537313432836
            ]
        ],
        [
            [
                0.07735849056603773,
                0.5888059701492537
            ],
            [
                0.05136268343815513,
                0.5186567164179104
            ],
            [
                0.05387840670859538,
                0.4906716417910447
            ]
        ]
    ],
    "3293": [
        [
            [
                0.06142557651991614,
                0.40671641791044777
            ],
            [
                0.0639412997903564,
                0.3787313432835821
            ],
            [
                0.10020964360587001,
                0.3876865671641791
            ]
        ],
        [
            [
                0.20901467505241086,
                0.41455223880597014
            ],
            [
                0.24528301886792453,
                0.42350746268656714
            ],
            [
                0.2522012578616352,
                0.4231343283582089
            ]
        ],
        [
            [
                0.2729559748427673,
                0.42201492537313434
            ],
            [
                0.279874213836478,
                0.4216417910447761
            ],
            [
                0.3226415094339623,
                0.4835820895522388
            ]
        ],
        [
            [
                0.45094339622641505,
                0.6694029850746269
            ],
            [
                0.4937106918238994,
                0.7313432835820896
            ],
            [
                0.4949685534591195,
                0.7473880597014926
            ]
        ],
        [
            [
                0.4987421383647799,
                0.7955223880597015
            ],
            [
                0.5,
                0.8115671641791045
            ],
            [
                0.49580712788259956,
                0.8134328358208955
            ]
        ],
        [
            [
                0.4832285115303983,
                0.8190298507462686
            ],
            [
                0.47903563941299787,
                0.8208955223880596
            ],
            [
                0.510482180293501,
                0.8634328358208955
            ]
        ],
        [
            [
                0.6048218029350105,
                0.991044776119403
            ],
            [
                0.6362683438155137,
                1.033582089552239
            ],
            [
                0.6433962264150943,
                1.0298507462686568
            ]
        ],
        [
            [
                0.6647798742138364,
                1.0186567164179106
            ],
            [
                0.6719077568134171,
                1.0149253731343284
            ],
            [
                0.6727463312368972,
                0.9865671641791045
            ]
        ],
        [
            [
                0.6752620545073376,
                0.9014925373134328
            ],
            [
                0.6761006289308177,
                0.8731343283582089
            ],
            [
                0.6903563941299791,
                0.8671641791044776
            ]
        ],
        [
            [
                0.7331236897274633,
                0.8492537313432835
            ],
            [
                0.7473794549266247,
                0.8432835820895522
            ],
            [
                0.7545073375262054,
                0.8537313432835821
            ]
        ],
        [
            [
                0.7758909853249476,
                0.8850746268656716
            ],
            [
                0.7830188679245284,
                0.8955223880597015
            ],
            [
                0.7846960167714884,
                0.817910447761194
            ]
        ],
        [
            [
                0.6345911949685535,
                0.6279850746268667
            ],
            [
                0.6362683438155137,
                0.5503731343283582
            ],
            [
                0.6215932914046122,
                0.46268656716417883
            ]
        ],
        [
            [
                0.6016771488469601,
                0.4123134328358209
            ],
            [
                0.59958071278826,
                0.3041044776119403
            ],
            [
                0.6129979035639413,
                0.2533582089552244
            ]
        ],
        [
            [
                0.761425576519916,
                0.30970149253731305
            ],
            [
                0.7809224318658281,
                0.3003731343283582
            ],
            [
                0.7974842767295598,
                0.3037313432835817
            ]
        ],
        [
            [
                0.883647798742138,
                0.4328358208955224
            ],
            [
                0.889937106918239,
                0.48134328358208955
            ],
            [
                0.9142557651991599,
                0.4910447761194029
            ]
        ],
        [
            [
                0.9935010482180288,
                0.8970149253731343
            ],
            [
                1.0178197064989518,
                0.9067164179104478
            ],
            [
                1.0241090146750522,
                1.0932835820895528
            ]
        ],
        [
            [
                1.1352201257861634,
                1.1343283582089552
            ],
            [
                1.141509433962264,
                1.3208955223880599
            ],
            [
                0.9914046121593291,
                1.3201492537313435
            ]
        ],
        [
            [
                0.541090146750524,
                1.317910447761194
            ],
            [
                0.3909853249475891,
                1.3171641791044777
            ],
            [
                0.3675052410901467,
                1.2276119402985075
            ]
        ],
        [
            [
                0.2970649895178197,
                0.958955223880597
            ],
            [
                0.27358490566037735,
                0.8694029850746269
            ],
            [
                0.25513626834381553,
                0.8694029850746269
            ]
        ],
        [
            [
                0.19979035639412995,
                0.8694029850746269
            ],
            [
                0.1813417190775681,
                0.8694029850746269
            ],
            [
                0.15534591194968553,
                0.7992537313432836
            ]
        ],
        [
            [
                0.07735849056603773,
                0.5888059701492537
            ],
            [
                0.05136268343815513,
                0.5186567164179104
            ],
            [
                0.05387840670859538,
                0.4906716417910447
            ]
        ]
    ],
    "3299": [
        [
            [
                0.06142557651991614,
                0.40671641791044777
            ],
            [
                0.0639412997903564,
                0.3787313432835821
            ],
            [
                0.10020964360587001,
                0.3876865671641791
            ]
        ],
        [
            [
                0.20901467505241086,
                0.41455223880597014
            ],
            [
                0.24528301886792453,
                0.42350746268656714
            ],
            [
                0.2522012578616352,
                0.4231343283582089
            ]
        ],
        [
            [
                0.2729559748427673,
                0.42201492537313434
            ],
            [
                0.279874213836478,
                0.4216417910447761
            ],
            [
                0.3226415094339623,
                0.4835820895522388
            ]
        ],
        [
            [
                0.45094339622641505,
                0.6694029850746269
            ],
            [
                0.4937106918238994,
                0.7313432835820896
            ],
            [
                0.4949685534591195,
                0.7473880597014926
            ]
        ],
        [
            [
                0.4987421383647799,
                0.7955223880597015
            ],
            [
                0.5,
                0.8115671641791045
            ],
            [
                0.49580712788259956,
                0.8134328358208955
            ]
        ],
        [
            [
                0.4832285115303983,
                0.8190298507462686
            ],
            [
                0.47903563941299787,
                0.8208955223880596
            ],
            [
                0.510482180293501,
                0.8634328358208955
            ]
        ],
        [
            [
                0.6048218029350105,
                0.991044776119403
            ],
            [
                0.6362683438155137,
                1.033582089552239
            ],
            [
                0.6433962264150943,
                1.0298507462686568
            ]
        ],
        [
            [
                0.6647798742138364,
                1.0186567164179106
            ],
            [
                0.6719077568134171,
                1.0149253731343284
            ],
            [
                0.6727463312368972,
                0.9865671641791045
            ]
        ],
        [
            [
                0.6752620545073376,
                0.9014925373134328
            ],
            [
                0.6761006289308177,
                0.8731343283582089
            ],
            [
                0.6903563941299791,
                0.8671641791044776
            ]
        ],
        [
            [
                0.7331236897274633,
                0.8492537313432835
            ],
            [
                0.7473794549266247,
                0.8432835820895522
            ],
            [
                0.7545073375262054,
                0.8537313432835821
            ]
        ],
        [
            [
                0.7758909853249476,
                0.8850746268656716
            ],
            [
                0.7830188679245284,
                0.8955223880597015
            ],
            [
                0.7846960167714884,
                0.817910447761194
            ]
        ],
        [
            [
                0.6041928721174005,
                0.6279850746268667
            ],
            [
                0.6058700209643606,
                0.5503731343283582
            ],
            [
                0.6048218029350104,
                0.4608208955223881
            ]
        ],
        [
            [
                0.6257861635220127,
                0.42350746268656714
            ],
            [
                0.59958071278826,
                0.3041044776119403
            ],
            [
                0.6129979035639413,
                0.2533582089552244
            ]
        ],
        [
            [
                0.761425576519916,
                0.30970149253731305
            ],
            [
                0.7809224318658281,
                0.3003731343283582
            ],
            [
                0.7974842767295598,
                0.3037313432835817
            ]
        ],
        [
            [
                0.883647798742138,
                0.4328358208955224
            ],
            [
                0.889937106918239,
                0.48134328358208955
            ],
            [
                0.9142557651991599,
                0.4910447761194029
            ]
        ],
        [
            [
                0.9935010482180288,
                0.8970149253731343
            ],
            [
                1.0178197064989518,
                0.9067164179104478
            ],
            [
                1.0241090146750522,
                1.0932835820895528
            ]
        ],
        [
            [
                1.1352201257861634,
                1.1343283582089552
            ],
            [
                1.141509433962264,
                1.3208955223880599
            ],
            [
                0.9914046121593291,
                1.3201492537313435
            ]
        ],
        [
            [
                0.541090146750524,
                1.317910447761194
            ],
            [
                0.3909853249475891,
                1.3171641791044777
            ],
            [
                0.3675052410901467,
                1.2276119402985075
            ]
        ],
        [
            [
                0.2970649895178197,
                0.958955223880597
            ],
            [
                0.27358490566037735,
                0.8694029850746269
            ],
            [
                0.25513626834381553,
                0.8694029850746269
            ]
        ],
        [
            [
                0.19979035639412995,
                0.8694029850746269
            ],
            [
                0.1813417190775681,
                0.8694029850746269
            ],
            [
                0.15534591194968553,
                0.7992537313432836
            ]
        ],
        [
            [
                0.07735849056603773,
                0.5888059701492537
            ],
            [
                0.05136268343815513,
                0.5186567164179104
            ],
            [
                0.05387840670859538,
                0.4906716417910447
            ]
        ]
    ],
    "3307": [
        [
            [
                0.06142557651991614,
                0.40671641791044777
            ],
            [
                0.0639412997903564,
                0.3787313432835821
            ],
            [
                0.10020964360587001,
                0.3876865671641791
            ]
        ],
        [
            [
                0.20901467505241086,
                0.41455223880597014
            ],
            [
                0.24528301886792453,
                0.42350746268656714
            ],
            [
                0.2522012578616352,
                0.4231343283582089
            ]
        ],
        [
            [
                0.2729559748427673,
                0.42201492537313434
            ],
            [
                0.279874213836478,
                0.4216417910447761
            ],
            [
                0.3226415094339623,
                0.4835820895522388
            ]
        ],
        [
            [
                0.45094339622641505,
                0.6694029850746269
            ],
            [
                0.4937106918238994,
                0.7313432835820896
            ],
            [
                0.4949685534591195,
                0.7473880597014926
            ]
        ],
        [
            [
                0.4987421383647799,
                0.7955223880597015
            ],
            [
                0.5,
                0.8115671641791045
            ],
            [
                0.49580712788259956,
                0.8134328358208955
            ]
        ],
        [
            [
                0.4832285115303983,
                0.8190298507462686
            ],
            [
                0.47903563941299787,
                0.8208955223880596
            ],
            [
                0.510482180293501,
                0.8634328358208955
            ]
        ],
        [
            [
                0.6048218029350105,
                0.991044776119403
            ],
            [
                0.6362683438155137,
                1.033582089552239
            ],
            [
                0.6433962264150943,
                1.0298507462686568
            ]
        ],
        [
            [
                0.6647798742138364,
                1.0186567164179106
            ],
            [
                0.6719077568134171,
                1.0149253731343284
            ],
            [
                0.6727463312368972,
                0.9865671641791045
            ]
        ],
        [
            [
                0.6752620545073376,
                0.9014925373134328
            ],
            [
                0.6761006289308177,
                0.8731343283582089
            ],
            [
                0.6903563941299791,
                0.8671641791044776
            ]
        ],
        [
            [
                0.7331236897274633,
                0.8492537313432835
            ],
            [
                0.7473794549266247,
                0.8432835820895522
            ],
            [
                0.7545073375262054,
                0.8537313432835821
            ]
        ],
        [
            [
                0.7758909853249476,
                0.8850746268656716
            ],
            [
                0.7830188679245284,
                0.8955223880597015
            ],
            [
                0.7846960167714884,
                0.817910447761194
            ]
        ],
        [
            [
                0.6041928721174005,
                0.6279850746268667
            ],
            [
                0.6058700209643606,
                0.5503731343283582
            ],
            [
                0.6048218029350104,
                0.4608208955223881
            ]
        ],
        [
            [
                0.6257861635220127,
                0.42350746268656714
            ],
            [
                0.59958071278826,
                0.3041044776119403
            ],
            [
                0.6129979035639413,
                0.2533582089552244
            ]
        ],
        [
            [
                0.761425576519916,
                0.30970149253731305
            ],
            [
                0.7809224318658281,
                0.3003731343283582
            ],
            [
                0.7974842767295598,
                0.3037313432835817
            ]
        ],
        [
            [
                0.8710691823899367,
                0.4477611940298508
            ],
            [
                0.8773584905660378,
                0.49626865671641796
            ],
            [
                0.9016771488469586,
                0.5059701492537313
            ]
        ],
        [
            [
                0.9935010482180288,
                0.8970149253731343
            ],
            [
                1.0178197064989518,
                0.9067164179104478
            ],
            [
                1.0241090146750522,
                1.0932835820895528
            ]
        ],
        [
            [
                1.1352201257861634,
                1.1343283582089552
            ],
            [
                1.141509433962264,
                1.3208955223880599
            ],
            [
                0.9914046121593291,
                1.3201492537313435
            ]
        ],
        [
            [
                0.541090146750524,
                1.317910447761194
            ],
            [
                0.3909853249475891,
                1.3171641791044777
            ],
            [
                0.3675052410901467,
                1.2276119402985075
            ]
        ],
        [
            [
                0.2970649895178197,
                0.958955223880597
            ],
            [
                0.27358490566037735,
                0.8694029850746269
            ],
            [
                0.25513626834381553,
                0.8694029850746269
            ]
        ],
        [
            [
                0.19979035639412995,
                0.8694029850746269
            ],
            [
                0.1813417190775681,
                0.8694029850746269
            ],
            [
                0.15534591194968553,
                0.7992537313432836
            ]
        ],
        [
            [
                0.07735849056603773,
                0.5888059701492537
            ],
            [
                0.05136268343815513,
                0.5186567164179104
            ],
            [
                0.05387840670859538,
                0.4906716417910447
            ]
        ]
    ]
}
</property>
    <property name="kdenlive:collapsed">0</property>
   </filter>
   <filter id="filter277">
    <property name="mode">alpha</property>
    <property name="alpha_operation">sub</property>
    <property name="invert">0</property>
    <property name="feather">42</property>
    <property name="feather_passes">1</property>
    <property name="mlt_service">rotoscoping</property>
    <property name="kdenlive_id">rotoscoping</property>
    <property name="spline">{
    "2087": [
        [
            [
                0.2064989517819706,
                1.0902985074626865
            ],
            [
                0.22536687631027252,
                1.037313432835821
            ],
            [
                0.18972746331236895,
                0.9425373134328358
            ]
        ],
        [
            [
                0.08280922431865827,
                0.6582089552238806
            ],
            [
                0.04716981132075471,
                0.5634328358208955
            ],
            [
                0.04842767295597484,
                0.5223880597014925
            ]
        ],
        [
            [
                0.052201257861635215,
                0.39925373134328357
            ],
            [
                0.05345911949685534,
                0.3582089552238806
            ],
            [
                0.09790356394129977,
                0.3462686567164179
            ]
        ],
        [
            [
                0.2403314562676816,
                0.3909736853737234
            ],
            [
                0.284775900712126,
                0.379033386866261
            ],
            [
                0.3125916280354302,
                0.3878630303885439
            ]
        ],
        [
            [
                0.37785779819364207,
                0.5573101897716125
            ],
            [
                0.42700641221647023,
                0.5626864335527072
            ],
            [
                0.4838856342057547,
                0.5573381748462393
            ]
        ],
        [
            [
                0.5940151303503348,
                0.3507294054166378
            ],
            [
                0.6194367831494024,
                0.35754369155864585
            ],
            [
                0.6687654952024583,
                0.26691017489673496
            ]
        ],
        [
            [
                0.62871804499515,
                0.11343840498997498
            ],
            [
                0.6568102881817328,
                0.011945867676542661
            ],
            [
                0.6509402672173722,
                -0.06342726665181588
            ]
        ],
        [
            [
                0.6960969829550633,
                -0.006541207008436081
            ],
            [
                0.6902269619907027,
                -0.08191434133679429
            ],
            [
                0.532994257588187,
                -0.12370538611291367
            ]
        ],
        [
            [
                0.059748427672955955,
                -0.2380597014925373
            ],
            [
                -0.09748427672955975,
                -0.27985074626865675
            ],
            [
                -0.13731656184486374,
                -0.019402985074626882
            ]
        ],
        [
            [
                -0.25681341719077566,
                0.7619402985074626
            ],
            [
                -0.2966457023060797,
                1.0223880597014925
            ],
            [
                -0.21111111111111114,
                1.078358208955224
            ]
        ],
        [
            [
                0.04549266247379455,
                1.2462686567164178
            ],
            [
                0.13102725366876308,
                1.3022388059701493
            ],
            [
                0.149895178197065,
                1.2492537313432837
            ]
        ]
    ],
    "2097": [
        [
            [
                0.2064989517819706,
                1.0902985074626865
            ],
            [
                0.22536687631027252,
                1.037313432835821
            ],
            [
                0.18972746331236895,
                0.9425373134328358
            ]
        ],
        [
            [
                0.08280922431865827,
                0.6582089552238806
            ],
            [
                0.04716981132075471,
                0.5634328358208955
            ],
            [
                0.04842767295597484,
                0.5223880597014925
            ]
        ],
        [
            [
                0.052201257861635215,
                0.39925373134328357
            ],
            [
                0.05345911949685534,
                0.3582089552238806
            ],
            [
                0.09790356394129977,
                0.3462686567164179
            ]
        ],
        [
            [
                0.24031076094627288,
                0.39099210266535017
            ],
            [
                0.2847552053907173,
                0.37905180415788775
            ],
            [
                0.3127717337073417,
                0.3886388644626904
            ]
        ],
        [
            [
                0.3764783756502831,
                0.5572584991708125
            ],
            [
                0.42557651991614254,
                0.5634328358208955
            ],
            [
                0.4819685146362291,
                0.5584991708126034
            ]
        ],
        [
            [
                0.5952401228843767,
                0.34739198940103894
            ],
            [
                0.620545073375262,
                0.3544776119402985
            ],
            [
                0.6696236503415512,
                0.26371619161935916
            ]
        ],
        [
            [
                0.6280922431865829,
                0.11455223880596964
            ],
            [
                0.6561844863731656,
                0.013059701492537313
            ],
            [
                0.650314465408805,
                -0.06231343283582121
            ]
        ],
        [
            [
                0.6960787530762919,
                -0.006411421155094095
            ],
            [
                0.6902087321119313,
                -0.08178455548345231
            ],
            [
                0.5329760277094157,
                -0.12357560025957168
            ]
        ],
        [
            [
                0.059748427672955955,
                -0.2380597014925373
            ],
            [
                -0.09748427672955975,
                -0.27985074626865675
            ],
            [
                -0.13731656184486374,
                -0.019402985074626882
            ]
        ],
        [
            [
                -0.25681341719077566,
                0.7619402985074626
            ],
            [
                -0.2966457023060797,
                1.0223880597014925
            ],
            [
                -0.21111111111111114,
                1.078358208955224
            ]
        ],
        [
            [
                0.04549266247379455,
                1.2462686567164178
            ],
            [
                0.13102725366876308,
                1.3022388059701493
            ],
            [
                0.149895178197065,
                1.2492537313432837
            ]
        ]
    ],
    "2145": [
        [
            [
                0.2064989517819706,
                1.0902985074626865
            ],
            [
                0.22536687631027252,
                1.037313432835821
            ],
            [
                0.18972746331236895,
                0.9425373134328358
            ]
        ],
        [
            [
                0.08280922431865827,
                0.6582089552238806
            ],
            [
                0.04716981132075471,
                0.5634328358208955
            ],
            [
                0.04842767295597484,
                0.5223880597014925
            ]
        ],
        [
            [
                0.052201257861635215,
                0.39925373134328357
            ],
            [
                0.05345911949685534,
                0.3582089552238806
            ],
            [
                0.09790356394129977,
                0.3462686567164179
            ]
        ],
        [
            [
                0.2402114234035112,
                0.3910805056651587
            ],
            [
                0.28465586784795555,
                0.37914020715769625
            ],
            [
                0.31363624093251663,
                0.3923628680185937
            ]
        ],
        [
            [
                0.3704313223076322,
                0.549696310116086
            ],
            [
                0.4192872117400419,
                0.5597014925373135
            ],
            [
                0.47334051556797846,
                0.5567578772802648
            ]
        ],
        [
            [
                0.5949607200474146,
                0.373734425529448
            ],
            [
                0.6197054994590245,
                0.38212246277551454
            ],
            [
                0.6675834280088347,
                0.2907471048912383
            ]
        ],
        [
            [
                0.719287211740042,
                0.1518656716417906
            ],
            [
                0.7473794549266247,
                0.050373134328358216
            ],
            [
                0.7415094339622641,
                -0.025000000000000303
            ]
        ],
        [
            [
                0.6959912496581897,
                -0.005788449059052563
            ],
            [
                0.6901212286938291,
                -0.08116158338741078
            ],
            [
                0.5328885242913134,
                -0.12295262816353014
            ]
        ],
        [
            [
                0.059748427672955955,
                -0.2380597014925373
            ],
            [
                -0.09748427672955975,
                -0.27985074626865675
            ],
            [
                -0.13731656184486374,
                -0.019402985074626882
            ]
        ],
        [
            [
                -0.25681341719077566,
                0.7619402985074626
            ],
            [
                -0.2966457023060797,
                1.0223880597014925
            ],
            [
                -0.21111111111111114,
                1.078358208955224
            ]
        ],
        [
            [
                0.04549266247379455,
                1.2462686567164178
            ],
            [
                0.13102725366876308,
                1.3022388059701493
            ],
            [
                0.149895178197065,
                1.2492537313432837
            ]
        ]
    ],
    "2165": [
        [
            [
                0.2064989517819706,
                1.0902985074626865
            ],
            [
                0.22536687631027252,
                1.037313432835821
            ],
            [
                0.18972746331236895,
                0.9425373134328358
            ]
        ],
        [
            [
                0.08280922431865827,
                0.6582089552238806
            ],
            [
                0.04716981132075471,
                0.5634328358208955
            ],
            [
                0.04842767295597484,
                0.5223880597014925
            ]
        ],
        [
            [
                0.052201257861635215,
                0.39925373134328357
            ],
            [
                0.05345911949685534,
                0.3582089552238806
            ],
            [
                0.09790356394129977,
                0.3462686567164179
            ]
        ],
        [
            [
                0.24017003276069382,
                0.3911173402484122
            ],
            [
                0.28461447720513816,
                0.3791770417409498
            ],
            [
                0.31399645227633954,
                0.3939145361668867
            ]
        ],
        [
            [
                0.4769392033542977,
                0.6753731343283582
            ],
            [
                0.5146750524109015,
                0.7257462686567164
            ],
            [
                0.5167714884696016,
                0.8656716417910448
            ]
        ],
        [
            [
                0.5792622101104155,
                0.9015170511534608
            ],
            [
                0.6037735849056604,
                0.9104477611940299
            ],
            [
                0.6511512432819377,
                0.8188165959916968
            ]
        ],
        [
            [
                0.6784067085953879,
                0.3197761194029846
            ],
            [
                0.7064989517819706,
                0.21828358208955223
            ],
            [
                0.70062893081761,
                0.14291044776119363
            ]
        ],
        [
            [
                0.6959547899006471,
                -0.0055288773523685915
            ],
            [
                0.6900847689362865,
                -0.08090201168072682
            ],
            [
                0.5328520645337708,
                -0.12269305645684617
            ]
        ],
        [
            [
                0.059748427672955955,
                -0.2380597014925373
            ],
            [
                -0.09748427672955975,
                -0.27985074626865675
            ],
            [
                -0.13731656184486374,
                -0.019402985074626882
            ]
        ],
        [
            [
                -0.25681341719077566,
                0.7619402985074626
            ],
            [
                -0.2966457023060797,
                1.0223880597014925
            ],
            [
                -0.21111111111111114,
                1.078358208955224
            ]
        ],
        [
            [
                0.04549266247379455,
                1.2462686567164178
            ],
            [
                0.13102725366876308,
                1.3022388059701493
            ],
            [
                0.149895178197065,
                1.2492537313432837
            ]
        ]
    ],
    "2175": [
        [
            [
                0.2064989517819706,
                1.0902985074626865
            ],
            [
                0.22536687631027252,
                1.037313432835821
            ],
            [
                0.18972746331236895,
                0.9425373134328358
            ]
        ],
        [
            [
                0.08280922431865827,
                0.6582089552238806
            ],
            [
                0.04716981132075471,
                0.5634328358208955
            ],
            [
                0.04842767295597484,
                0.5223880597014925
            ]
        ],
        [
            [
                0.052201257861635215,
                0.39925373134328357
            ],
            [
                0.05345911949685534,
                0.3582089552238806
            ],
            [
                0.09790356394129977,
                0.3462686567164179
            ]
        ],
        [
            [
                0.24014933743928513,
                0.391135757540039
            ],
            [
                0.28459378188372947,
                0.37919545903257657
            ],
            [
                0.314176557948251,
                0.3946903702410332
            ]
        ],
        [
            [
                0.4770914736776274,
                0.6755376812435875
            ],
            [
                0.5149197725733957,
                0.7262060320963277
            ],
            [
                0.5171902318587583,
                0.8647037187602843
            ]
        ],
        [
            [
                0.5794061035477639,
                0.9003019898012178
            ],
            [
                0.6038007760348264,
                0.9095040362390383
            ],
            [
                0.6509282993243374,
                0.8177449673776768
            ]
        ],
        [
            [
                0.689937106918239,
                0.8776119402985071
            ],
            [
                0.7180293501048217,
                0.7761194029850746
            ],
            [
                0.7121593291404611,
                0.7007462686567162
            ]
        ],
        [
            [
                0.7280922431865828,
                -0.006716417910447861
            ],
            [
                0.7222222222222222,
                -0.08208955223880597
            ],
            [
                0.5649895178197066,
                -0.12388059701492532
            ]
        ],
        [
            [
                0.059748427672955955,
                -0.2380597014925373
            ],
            [
                -0.09748427672955975,
                -0.27985074626865675
            ],
            [
                -0.13731656184486374,
                -0.019402985074626882
            ]
        ],
        [
            [
                -0.25681341719077566,
                0.7619402985074626
            ],
            [
                -0.2966457023060797,
                1.0223880597014925
            ],
            [
                -0.21111111111111114,
                1.078358208955224
            ]
        ],
        [
            [
                0.04549266247379455,
                1.2462686567164178
            ],
            [
                0.13102725366876308,
                1.3022388059701493
            ],
            [
                0.149895178197065,
                1.2492537313432837
            ]
        ]
    ],
    "2191": [
        [
            [
                0.2064989517819706,
                1.0902985074626865
            ],
            [
                0.22536687631027252,
                1.037313432835821
            ],
            [
                0.18972746331236895,
                0.9425373134328358
            ]
        ],
        [
            [
                0.08280922431865827,
                0.6582089552238806
            ],
            [
                0.04716981132075471,
                0.5634328358208955
            ],
            [
                0.04842767295597484,
                0.5223880597014925
            ]
        ],
        [
            [
                0.052201257861635215,
                0.39925373134328357
            ],
            [
                0.05345911949685534,
                0.3582089552238806
            ],
            [
                0.09790356394129977,
                0.3462686567164179
            ]
        ],
        [
            [
                0.2401162249250312,
                0.39116522520664176
            ],
            [
                0.28456066936947555,
                0.3792249266991794
            ],
            [
                0.3144647270233093,
                0.39593170475966766
            ]
        ],
        [
            [
                0.47733510619495495,
                0.6758009563079543
            ],
            [
                0.5153113248333864,
                0.7269416535997059
            ],
            [
                0.5178602212814091,
                0.8631550419110673
            ]
        ],
        [
            [
                0.5796363330475213,
                0.8983578916376289
            ],
            [
                0.6038442818414921,
                0.9079940763110518
            ],
            [
                0.6505715889921766,
                0.8160303615952447
            ]
        ],
        [
            [
                0.6962264150943397,
                0.8552238805970146
            ],
            [
                0.7243186582809223,
                0.7537313432835822
            ],
            [
                0.7184486373165618,
                0.6783582089552237
            ]
        ],
        [
            [
                0.8014675052410902,
                -0.06641791044776131
            ],
            [
                0.7955974842767296,
                -0.1417910447761194
            ],
            [
                0.638364779874214,
                -0.1835820895522388
            ]
        ],
        [
            [
                0.059748427672955955,
                -0.2380597014925373
            ],
            [
                -0.09748427672955975,
                -0.27985074626865675
            ],
            [
                -0.13731656184486374,
                -0.019402985074626882
            ]
        ],
        [
            [
                -0.25681341719077566,
                0.7619402985074626
            ],
            [
                -0.2966457023060797,
                1.0223880597014925
            ],
            [
                -0.21111111111111114,
                1.078358208955224
            ]
        ],
        [
            [
                0.04549266247379455,
                1.2462686567164178
            ],
            [
                0.13102725366876308,
                1.3022388059701493
            ],
            [
                0.149895178197065,
                1.2492537313432837
            ]
        ]
    ],
    "2913": [
        [
            [
                0.2064989517819706,
                1.0902985074626865
            ],
            [
                0.22536687631027252,
                1.037313432835821
            ],
            [
                0.18972746331236895,
                0.9425373134328358
            ]
        ],
        [
            [
                0.08280922431865827,
                0.6582089552238806
            ],
            [
                0.04716981132075471,
                0.5634328358208955
            ],
            [
                0.04842767295597484,
                0.5223880597014925
            ]
        ],
        [
            [
                0.052201257861635215,
                0.39925373134328357
            ],
            [
                0.05345911949685534,
                0.3582089552238806
            ],
            [
                0.09790356394129977,
                0.3462686567164179
            ]
        ],
        [
            [
                0.23862202271932384,
                0.39249495366209436
            ],
            [
                0.28306646716376827,
                0.38055465515463155
            ],
            [
                0.3274683565353165,
                0.4519469249130452
            ]
        ],
        [
            [
                0.4883290235393602,
                0.68768124358751
            ],
            [
                0.5329801205654667,
                0.7601365739396403
            ],
            [
                0.5480934939785239,
                0.7932709990901523
            ]
        ],
        [
            [
                0.5827504526157087,
                0.8774897453554693
            ],
            [
                0.5985324947589098,
                0.9067164179104478
            ],
            [
                0.6272000486450554,
                0.8055180590127803
            ]
        ],
        [
            [
                0.6836477987421383,
                0.8962686567164178
            ],
            [
                0.7117400419287211,
                0.7947761194029851
            ],
            [
                0.7058700209643605,
                0.7194029850746269
            ]
        ],
        [
            [
                0.7825995807127882,
                -0.058955223880597006
            ],
            [
                0.7767295597484277,
                -0.13432835820895522
            ],
            [
                0.619496855345912,
                -0.1761194029850746
            ]
        ],
        [
            [
                0.059748427672955955,
                -0.2380597014925373
            ],
            [
                -0.09748427672955975,
                -0.27985074626865675
            ],
            [
                -0.13731656184486374,
                -0.019402985074626882
            ]
        ],
        [
            [
                -0.25681341719077566,
                0.7619402985074626
            ],
            [
                -0.2966457023060797,
                1.0223880597014925
            ],
            [
                -0.21111111111111114,
                1.078358208955224
            ]
        ],
        [
            [
                0.04549266247379455,
                1.2462686567164178
            ],
            [
                0.13102725366876308,
                1.3022388059701493
            ],
            [
                0.149895178197065,
                1.2492537313432837
            ]
        ]
    ],
    "2936": [
        [
            [
                0.2064989517819706,
                1.0902985074626865
            ],
            [
                0.22536687631027252,
                1.037313432835821
            ],
            [
                0.18972746331236895,
                0.9425373134328358
            ]
        ],
        [
            [
                0.08280922431865827,
                0.6582089552238806
            ],
            [
                0.04716981132075471,
                0.5634328358208955
            ],
            [
                0.04842767295597484,
                0.5223880597014925
            ]
        ],
        [
            [
                0.052201257861635215,
                0.39925373134328357
            ],
            [
                0.05345911949685534,
                0.3582089552238806
            ],
            [
                0.09790356394129977,
                0.3462686567164179
            ]
        ],
        [
            [
                0.23857442348008387,
                0.39253731343283593
            ],
            [
                0.2830188679245283,
                0.3805970149253731
            ],
            [
                0.3278825995807128,
                0.4537313432835822
            ]
        ],
        [
            [
                0.48867924528301854,
                0.6880597014925374
            ],
            [
                0.5335429769392034,
                0.7611940298507462
            ],
            [
                0.5490566037735843,
                0.7910447761194029
            ]
        ],
        [
            [
                0.5976939203354298,
                0.7947761194029846
            ],
            [
                0.6132075471698113,
                0.8246268656716418
            ],
            [
                0.6412997903563941,
                0.7231343283582087
            ]
        ],
        [
            [
                0.689937106918239,
                0.40746268656716417
            ],
            [
                0.7180293501048217,
                0.30597014925373134
            ],
            [
                0.7121593291404611,
                0.23059701492537313
            ]
        ],
        [
            [
                0.6945492662473794,
                0.004477611940298508
            ],
            [
                0.6886792452830188,
                -0.0708955223880597
            ],
            [
                0.5314465408805031,
                -0.11268656716417912
            ]
        ],
        [
            [
                0.059748427672955955,
                -0.2380597014925373
            ],
            [
                -0.09748427672955975,
                -0.27985074626865675
            ],
            [
                -0.13731656184486374,
                -0.019402985074626882
            ]
        ],
        [
            [
                -0.25681341719077566,
                0.7619402985074626
            ],
            [
                -0.2966457023060797,
                1.0223880597014925
            ],
            [
                -0.21111111111111114,
                1.078358208955224
            ]
        ],
        [
            [
                0.04549266247379455,
                1.2462686567164178
            ],
            [
                0.13102725366876308,
                1.3022388059701493
            ],
            [
                0.149895178197065,
                1.2492537313432837
            ]
        ]
    ],
    "2944": [
        [
            [
                0.2064989517819706,
                1.0902985074626865
            ],
            [
                0.22536687631027252,
                1.037313432835821
            ],
            [
                0.18972746331236895,
                0.9425373134328358
            ]
        ],
        [
            [
                0.08280922431865827,
                0.6582089552238806
            ],
            [
                0.04716981132075471,
                0.5634328358208955
            ],
            [
                0.04842767295597484,
                0.5223880597014925
            ]
        ],
        [
            [
                0.052201257861635215,
                0.39925373134328357
            ],
            [
                0.05345911949685534,
                0.3582089552238806
            ],
            [
                0.09790356394129977,
                0.3462686567164179
            ]
        ],
        [
            [
                0.23857442348008387,
                0.39253731343283593
            ],
            [
                0.2830188679245283,
                0.3805970149253731
            ],
            [
                0.3278825995807128,
                0.4537313432835822
            ]
        ],
        [
            [
                0.36289308176100593,
                0.49029850746268666
            ],
            [
                0.4077568134171908,
                0.5634328358208955
            ],
            [
                0.4643605870020964,
                0.5261194029850746
            ]
        ],
        [
            [
                0.6249475890985324,
                0.5261194029850742
            ],
            [
                0.640461215932914,
                0.5559701492537314
            ],
            [
                0.6685534591194968,
                0.45447761194029845
            ]
        ],
        [
            [
                0.6647798742138366,
                0.37761194029850736
            ],
            [
                0.6928721174004193,
                0.27611940298507465
            ],
            [
                0.6870020964360587,
                0.20074626865671646
            ]
        ],
        [
            [
                0.6651991614255766,
                0.004477611940298508
            ],
            [
                0.6593291404612159,
                -0.0708955223880597
            ],
            [
                0.5020964360587004,
                -0.1126865671641791
            ]
        ],
        [
            [
                0.059748427672955955,
                -0.2380597014925373
            ],
            [
                -0.09748427672955975,
                -0.27985074626865675
            ],
            [
                -0.13731656184486374,
                -0.019402985074626882
            ]
        ],
        [
            [
                -0.25681341719077566,
                0.7619402985074626
            ],
            [
                -0.2966457023060797,
                1.0223880597014925
            ],
            [
                -0.21111111111111114,
                1.078358208955224
            ]
        ],
        [
            [
                0.04549266247379455,
                1.2462686567164178
            ],
            [
                0.13102725366876308,
                1.3022388059701493
            ],
            [
                0.149895178197065,
                1.2492537313432837
            ]
        ]
    ],
    "2948": [
        [
            [
                0.2064989517819706,
                1.0902985074626865
            ],
            [
                0.22536687631027252,
                1.037313432835821
            ],
            [
                0.18972746331236895,
                0.9425373134328358
            ]
        ],
        [
            [
                0.08280922431865827,
                0.6582089552238806
            ],
            [
                0.04716981132075471,
                0.5634328358208955
            ],
            [
                0.04842767295597484,
                0.5223880597014925
            ]
        ],
        [
            [
                0.052201257861635215,
                0.39925373134328357
            ],
            [
                0.05345911949685534,
                0.3582089552238806
            ],
            [
                0.09790356394129977,
                0.3462686567164179
            ]
        ],
        [
            [
                0.23857442348008387,
                0.39253731343283593
            ],
            [
                0.2830188679245283,
                0.3805970149253731
            ],
            [
                0.3278825995807128,
                0.4537313432835822
            ]
        ],
        [
            [
                0.339622641509434,
                0.47201492537313433
            ],
            [
                0.35953878406708595,
                0.48880597014925375
            ],
            [
                0.4161425576519916,
                0.4514925373134328
            ]
        ],
        [
            [
                0.5733752620545073,
                0.5130597014925373
            ],
            [
                0.6362683438155137,
                0.48320895522388063
            ],
            [
                0.6556365060789475,
                0.38502070333604155
            ]
        ],
        [
            [
                0.6436058700209644,
                0.27985074626865675
            ],
            [
                0.629979035639413,
                0.15298507462686567
            ],
            [
                0.6257861635220124,
                0.05437100213219618
            ]
        ],
        [
            [
                0.6448337825696318,
                0.00021321961620468345
            ],
            [
                0.6389637616052711,
                -0.07515991471215352
            ],
            [
                0.48173105720275544,
                -0.11695095948827292
            ]
        ],
        [
            [
                0.059748427672955955,
                -0.2380597014925373
            ],
            [
                -0.09748427672955975,
                -0.27985074626865675
            ],
            [
                -0.13731656184486374,
                -0.019402985074626882
            ]
        ],
        [
            [
                -0.25681341719077566,
                0.7619402985074626
            ],
            [
                -0.2966457023060797,
                1.0223880597014925
            ],
            [
                -0.21111111111111114,
                1.078358208955224
            ]
        ],
        [
            [
                0.04549266247379455,
                1.2462686567164178
            ],
            [
                0.13102725366876308,
                1.3022388059701493
            ],
            [
                0.149895178197065,
                1.2492537313432837
            ]
        ]
    ],
    "2954": [
        [
            [
                0.2064989517819706,
                1.0902985074626865
            ],
            [
                0.22536687631027252,
                1.037313432835821
            ],
            [
                0.18972746331236895,
                0.9425373134328358
            ]
        ],
        [
            [
                0.08280922431865827,
                0.6582089552238806
            ],
            [
                0.04716981132075471,
                0.5634328358208955
            ],
            [
                0.04842767295597484,
                0.5223880597014925
            ]
        ],
        [
            [
                0.052201257861635215,
                0.39925373134328357
            ],
            [
                0.05345911949685534,
                0.3582089552238806
            ],
            [
                0.09790356394129977,
                0.3462686567164179
            ]
        ],
        [
            [
                0.23857442348008387,
                0.39253731343283593
            ],
            [
                0.2830188679245283,
                0.3805970149253731
            ],
            [
                0.3278825995807128,
                0.4537313432835822
            ]
        ],
        [
            [
                0.3535849056603772,
                0.4829850746268658
            ],
            [
                0.38846960167714883,
                0.5335820895522388
            ],
            [
                0.4450733752620544,
                0.49626865671641784
            ]
        ],
        [
            [
                0.5654861382005324,
                0.4576755968705794
            ],
            [
                0.610062893081761,
                0.43470149253731344
            ],
            [
                0.6163449339604717,
                0.3414696687878651
            ]
        ],
        [
            [
                0.590146750524109,
                0.3022388059701493
            ],
            [
                0.5828092243186583,
                0.15970149253731344
            ],
            [
                0.5811320754716981,
                0.026226012793176982
            ]
        ],
        [
            [
                0.6142857142857143,
                -0.006183368869936054
            ],
            [
                0.6084156933213537,
                -0.08155650319829423
            ],
            [
                0.45118298891883807,
                -0.12334754797441365
            ]
        ],
        [
            [
                0.059748427672955955,
                -0.2380597014925373
            ],
            [
                -0.09748427672955975,
                -0.27985074626865675
            ],
            [
                -0.13731656184486374,
                -0.019402985074626882
            ]
        ],
        [
            [
                -0.25681341719077566,
                0.7619402985074626
            ],
            [
                -0.2966457023060797,
                1.0223880597014925
            ],
            [
                -0.21111111111111114,
                1.078358208955224
            ]
        ],
        [
            [
                0.04549266247379455,
                1.2462686567164178
            ],
            [
                0.13102725366876308,
                1.3022388059701493
            ],
            [
                0.149895178197065,
                1.2492537313432837
            ]
        ]
    ],
    "2958": [
        [
            [
                0.2064989517819706,
                1.0902985074626865
            ],
            [
                0.22536687631027252,
                1.037313432835821
            ],
            [
                0.18972746331236895,
                0.9425373134328358
            ]
        ],
        [
            [
                0.08280922431865827,
                0.6582089552238806
            ],
            [
                0.04716981132075471,
                0.5634328358208955
            ],
            [
                0.04842767295597484,
                0.5223880597014925
            ]
        ],
        [
            [
                0.052201257861635215,
                0.39925373134328357
            ],
            [
                0.05345911949685534,
                0.3582089552238806
            ],
            [
                0.09790356394129977,
                0.3462686567164179
            ]
        ],
        [
            [
                0.23857442348008387,
                0.39253731343283593
            ],
            [
                0.2830188679245283,
                0.3805970149253731
            ],
            [
                0.3278825995807128,
                0.4537313432835822
            ]
        ],
        [
            [
                0.36289308176100593,
                0.49029850746268666
            ],
            [
                0.4077568134171908,
                0.5634328358208955
            ],
            [
                0.4643605870020964,
                0.5261194029850746
            ]
        ],
        [
            [
                0.589227421109902,
                0.4661508704061896
            ],
            [
                0.6215932914046121,
                0.44776119402985076
            ],
            [
                0.6191512513601741,
                0.3578336557059961
            ]
        ],
        [
            [
                0.5545073375262054,
                0.31716417910447764
            ],
            [
                0.5513626834381551,
                0.16417910447761194
            ],
            [
                0.5513626834381551,
                0.007462686567164178
            ]
        ],
        [
            [
                0.5939203354297694,
                -0.010447761194029879
            ],
            [
                0.5880503144654088,
                -0.08582089552238806
            ],
            [
                0.43081761006289315,
                -0.12761194029850748
            ]
        ],
        [
            [
                0.059748427672955955,
                -0.2380597014925373
            ],
            [
                -0.09748427672955975,
                -0.27985074626865675
            ],
            [
                -0.13731656184486374,
                -0.019402985074626882
            ]
        ],
        [
            [
                -0.25681341719077566,
                0.7619402985074626
            ],
            [
                -0.2966457023060797,
                1.0223880597014925
            ],
            [
                -0.21111111111111114,
                1.078358208955224
            ]
        ],
        [
            [
                0.04549266247379455,
                1.2462686567164178
            ],
            [
                0.13102725366876308,
                1.3022388059701493
            ],
            [
                0.149895178197065,
                1.2492537313432837
            ]
        ]
    ],
    "2967": [
        [
            [
                0.2064989517819706,
                1.0902985074626865
            ],
            [
                0.22536687631027252,
                1.037313432835821
            ],
            [
                0.18972746331236895,
                0.9425373134328358
            ]
        ],
        [
            [
                0.08280922431865827,
                0.6582089552238806
            ],
            [
                0.04716981132075471,
                0.5634328358208955
            ],
            [
                0.04842767295597484,
                0.5223880597014925
            ]
        ],
        [
            [
                0.052201257861635215,
                0.39925373134328357
            ],
            [
                0.05345911949685534,
                0.3582089552238806
            ],
            [
                0.09790356394129977,
                0.3462686567164179
            ]
        ],
        [
            [
                0.23857442348008387,
                0.39253731343283593
            ],
            [
                0.2830188679245283,
                0.3805970149253731
            ],
            [
                0.3278825995807128,
                0.4537313432835822
            ]
        ],
        [
            [
                0.36289308176100593,
                0.49029850746268666
            ],
            [
                0.4077568134171908,
                0.5634328358208955
            ],
            [
                0.4748427672955975,
                0.539179104477612
            ]
        ],
        [
            [
                0.589227421109902,
                0.4661508704061896
            ],
            [
                0.6215932914046121,
                0.44776119402985076
            ],
            [
                0.5922431865828093,
                0.3899253731343284
            ]
        ],
        [
            [
                0.539832285115304,
                0.2910447761194029
            ],
            [
                0.5366876310272537,
                0.13805970149253732
            ],
            [
                0.5366876310272537,
                -0.01865671641791047
            ]
        ],
        [
            [
                0.5939203354297694,
                -0.010447761194029879
            ],
            [
                0.5880503144654088,
                -0.08582089552238806
            ],
            [
                0.43081761006289315,
                -0.12761194029850748
            ]
        ],
        [
            [
                0.059748427672955955,
                -0.2380597014925373
            ],
            [
                -0.09748427672955975,
                -0.27985074626865675
            ],
            [
                -0.13731656184486374,
                -0.019402985074626882
            ]
        ],
        [
            [
                -0.25681341719077566,
                0.7619402985074626
            ],
            [
                -0.2966457023060797,
                1.0223880597014925
            ],
            [
                -0.21111111111111114,
                1.078358208955224
            ]
        ],
        [
            [
                0.04549266247379455,
                1.2462686567164178
            ],
            [
                0.13102725366876308,
                1.3022388059701493
            ],
            [
                0.149895178197065,
                1.2492537313432837
            ]
        ]
    ],
    "2998": [
        [
            [
                0.2064989517819706,
                1.0902985074626865
            ],
            [
                0.22536687631027252,
                1.037313432835821
            ],
            [
                0.18972746331236895,
                0.9425373134328358
            ]
        ],
        [
            [
                0.08280922431865827,
                0.6582089552238806
            ],
            [
                0.04716981132075471,
                0.5634328358208955
            ],
            [
                0.04842767295597484,
                0.5223880597014925
            ]
        ],
        [
            [
                0.052201257861635215,
                0.39925373134328357
            ],
            [
                0.05345911949685534,
                0.3582089552238806
            ],
            [
                0.09790356394129977,
                0.3462686567164179
            ]
        ],
        [
            [
                0.23857442348008387,
                0.39253731343283593
            ],
            [
                0.2830188679245283,
                0.3805970149253731
            ],
            [
                0.3278825995807128,
                0.4537313432835822
            ]
        ],
        [
            [
                0.36289308176100593,
                0.49029850746268666
            ],
            [
                0.4077568134171908,
                0.5634328358208955
            ],
            [
                0.4989517819706499,
                0.5895522388059701
            ]
        ],
        [
            [
                0.570230607966457,
                0.48320895522388063
            ],
            [
                0.589098532494759,
                0.4216417910447761
            ],
            [
                0.5597484276729561,
                0.36380597014925375
            ]
        ],
        [
            [
                0.539832285115304,
                0.2910447761194029
            ],
            [
                0.5366876310272537,
                0.13805970149253732
            ],
            [
                0.5366876310272537,
                -0.01865671641791047
            ]
        ],
        [
            [
                0.5939203354297694,
                -0.010447761194029879
            ],
            [
                0.5880503144654088,
                -0.08582089552238806
            ],
            [
                0.43081761006289315,
                -0.12761194029850748
            ]
        ],
        [
            [
                0.059748427672955955,
                -0.2380597014925373
            ],
            [
                -0.09748427672955975,
                -0.27985074626865675
            ],
            [
                -0.13731656184486374,
                -0.019402985074626882
            ]
        ],
        [
            [
                -0.25681341719077566,
                0.7619402985074626
            ],
            [
                -0.2966457023060797,
                1.0223880597014925
            ],
            [
                -0.21111111111111114,
                1.078358208955224
            ]
        ],
        [
            [
                0.04549266247379455,
                1.2462686567164178
            ],
            [
                0.13102725366876308,
                1.3022388059701493
            ],
            [
                0.149895178197065,
                1.2492537313432837
            ]
        ]
    ],
    "3018": [
        [
            [
                0.2064989517819706,
                1.0902985074626865
            ],
            [
                0.22536687631027252,
                1.037313432835821
            ],
            [
                0.18972746331236895,
                0.9425373134328358
            ]
        ],
        [
            [
                0.08280922431865827,
                0.6582089552238806
            ],
            [
                0.04716981132075471,
                0.5634328358208955
            ],
            [
                0.04842767295597484,
                0.5223880597014925
            ]
        ],
        [
            [
                0.052201257861635215,
                0.39925373134328357
            ],
            [
                0.05345911949685534,
                0.3582089552238806
            ],
            [
                0.09790356394129977,
                0.3462686567164179
            ]
        ],
        [
            [
                0.23857442348008387,
                0.39253731343283593
            ],
            [
                0.2830188679245283,
                0.3805970149253731
            ],
            [
                0.3278825995807128,
                0.4537313432835822
            ]
        ],
        [
            [
                0.36289308176100593,
                0.49029850746268666
            ],
            [
                0.4077568134171908,
                0.5634328358208955
            ],
            [
                0.4989517819706499,
                0.5895522388059701
            ]
        ],
        [
            [
                0.570230607966457,
                0.48320895522388063
            ],
            [
                0.589098532494759,
                0.4216417910447761
            ],
            [
                0.5597484276729561,
                0.36380597014925375
            ]
        ],
        [
            [
                0.5303983228511531,
                0.296641791044776
            ],
            [
                0.5272536687631028,
                0.14365671641791045
            ],
            [
                0.5272536687631028,
                -0.013059701492537325
            ]
        ],
        [
            [
                0.5939203354297694,
                -0.010447761194029879
            ],
            [
                0.5880503144654088,
                -0.08582089552238806
            ],
            [
                0.43081761006289315,
                -0.12761194029850748
            ]
        ],
        [
            [
                0.059748427672955955,
                -0.2380597014925373
            ],
            [
                -0.09748427672955975,
                -0.27985074626865675
            ],
            [
                -0.13731656184486374,
                -0.019402985074626882
            ]
        ],
        [
            [
                -0.25681341719077566,
                0.7619402985074626
            ],
            [
                -0.2966457023060797,
                1.0223880597014925
            ],
            [
                -0.21111111111111114,
                1.078358208955224
            ]
        ],
        [
            [
                0.04549266247379455,
                1.2462686567164178
            ],
            [
                0.13102725366876308,
                1.3022388059701493
            ],
            [
                0.149895178197065,
                1.2492537313432837
            ]
        ]
    ],
    "3251": [
        [
            [
                0.2064989517819706,
                1.0902985074626865
            ],
            [
                0.22536687631027252,
                1.037313432835821
            ],
            [
                0.18972746331236895,
                0.9425373134328358
            ]
        ],
        [
            [
                0.08280922431865827,
                0.6582089552238806
            ],
            [
                0.04716981132075471,
                0.5634328358208955
            ],
            [
                0.04842767295597484,
                0.5223880597014925
            ]
        ],
        [
            [
                0.052201257861635215,
                0.39925373134328357
            ],
            [
                0.05345911949685534,
                0.3582089552238806
            ],
            [
                0.09790356394129977,
                0.3462686567164179
            ]
        ],
        [
            [
                0.23857442348008387,
                0.39253731343283593
            ],
            [
                0.2830188679245283,
                0.3805970149253731
            ],
            [
                0.3278825995807128,
                0.4537313432835822
            ]
        ],
        [
            [
                0.36289308176100593,
                0.49029850746268666
            ],
            [
                0.4077568134171908,
                0.5634328358208955
            ],
            [
                0.4989517819706499,
                0.5895522388059701
            ]
        ],
        [
            [
                0.570230607966457,
                0.48320895522388063
            ],
            [
                0.589098532494759,
                0.4216417910447761
            ],
            [
                0.5597484276729561,
                0.36380597014925375
            ]
        ],
        [
            [
                0.5303983228511531,
                0.296641791044776
            ],
            [
                0.5272536687631028,
                0.14365671641791045
            ],
            [
                0.5272536687631028,
                -0.013059701492537325
            ]
        ],
        [
            [
                0.5939203354297694,
                -0.010447761194029879
            ],
            [
                0.5880503144654088,
                -0.08582089552238806
            ],
            [
                0.43081761006289315,
                -0.12761194029850748
            ]
        ],
        [
            [
                0.059748427672955955,
                -0.2380597014925373
            ],
            [
                -0.09748427672955975,
                -0.27985074626865675
            ],
            [
                -0.13731656184486374,
                -0.019402985074626882
            ]
        ],
        [
            [
                -0.25681341719077566,
                0.7619402985074626
            ],
            [
                -0.2966457023060797,
                1.0223880597014925
            ],
            [
                -0.21111111111111114,
                1.078358208955224
            ]
        ],
        [
            [
                0.04549266247379455,
                1.2462686567164178
            ],
            [
                0.13102725366876308,
                1.3022388059701493
            ],
            [
                0.149895178197065,
                1.2492537313432837
            ]
        ]
    ],
    "3256": [
        [
            [
                0.2064989517819706,
                1.0902985074626865
            ],
            [
                0.22536687631027252,
                1.037313432835821
            ],
            [
                0.18972746331236895,
                0.9425373134328358
            ]
        ],
        [
            [
                0.08280922431865827,
                0.6582089552238806
            ],
            [
                0.04716981132075471,
                0.5634328358208955
            ],
            [
                0.04842767295597484,
                0.5223880597014925
            ]
        ],
        [
            [
                0.052201257861635215,
                0.39925373134328357
            ],
            [
                0.05345911949685534,
                0.3582089552238806
            ],
            [
                0.09790356394129977,
                0.3462686567164179
            ]
        ],
        [
            [
                0.23857442348008387,
                0.39253731343283593
            ],
            [
                0.2830188679245283,
                0.3805970149253731
            ],
            [
                0.3278825995807128,
                0.4537313432835822
            ]
        ],
        [
            [
                0.31886792452830154,
                0.2384328358208954
            ],
            [
                0.3637316561844864,
                0.31156716417910446
            ],
            [
                0.45492662473794543,
                0.33768656716417883
            ]
        ],
        [
            [
                0.5387840670859538,
                0.4552238805970148
            ],
            [
                0.5576519916142557,
                0.39365671641791045
            ],
            [
                0.5283018867924529,
                0.335820895522388
            ]
        ],
        [
            [
                0.5303983228511531,
                0.296641791044776
            ],
            [
                0.5272536687631028,
                0.14365671641791045
            ],
            [
                0.5272536687631028,
                -0.013059701492537325
            ]
        ],
        [
            [
                0.5939203354297694,
                -0.010447761194029879
            ],
            [
                0.5880503144654088,
                -0.08582089552238806
            ],
            [
                0.43081761006289315,
                -0.12761194029850748
            ]
        ],
        [
            [
                0.059748427672955955,
                -0.2380597014925373
            ],
            [
                -0.09748427672955975,
                -0.27985074626865675
            ],
            [
                -0.13731656184486374,
                -0.019402985074626882
            ]
        ],
        [
            [
                -0.25681341719077566,
                0.7619402985074626
            ],
            [
                -0.2966457023060797,
                1.0223880597014925
            ],
            [
                -0.21111111111111114,
                1.078358208955224
            ]
        ],
        [
            [
                0.04549266247379455,
                1.2462686567164178
            ],
            [
                0.13102725366876308,
                1.3022388059701493
            ],
            [
                0.149895178197065,
                1.2492537313432837
            ]
        ]
    ],
    "3257": [
        [
            [
                0.2064989517819706,
                1.0902985074626865
            ],
            [
                0.22536687631027252,
                1.037313432835821
            ],
            [
                0.18972746331236895,
                0.9425373134328358
            ]
        ],
        [
            [
                0.08280922431865827,
                0.6582089552238806
            ],
            [
                0.04716981132075471,
                0.5634328358208955
            ],
            [
                0.04842767295597484,
                0.5223880597014925
            ]
        ],
        [
            [
                0.052201257861635215,
                0.39925373134328357
            ],
            [
                0.05345911949685534,
                0.3582089552238806
            ],
            [
                0.09790356394129977,
                0.3462686567164179
            ]
        ],
        [
            [
                0.17463312368972742,
                0.2955223880597018
            ],
            [
                0.21907756813417192,
                0.2835820895522388
            ],
            [
                0.2746331236897275,
                0.3003731343283582
            ]
        ],
        [
            [
                0.31886792452830154,
                0.2384328358208954
            ],
            [
                0.3637316561844864,
                0.31156716417910446
            ],
            [
                0.45492662473794543,
                0.33768656716417883
            ]
        ],
        [
            [
                0.5450733752620545,
                0.42164179104477656
            ],
            [
                0.5639412997903563,
                0.36007462686567165
            ],
            [
                0.5345911949685537,
                0.3022388059701492
            ]
        ],
        [
            [
                0.5398322851153039,
                0.2593283582089551
            ],
            [
                0.5366876310272537,
                0.10634328358208955
            ],
            [
                0.5366876310272537,
                -0.05037313432835822
            ]
        ],
        [
            [
                0.5939203354297694,
                -0.010447761194029879
            ],
            [
                0.5880503144654088,
                -0.08582089552238806
            ],
            [
                0.43081761006289315,
                -0.12761194029850748
            ]
        ],
        [
            [
                0.059748427672955955,
                -0.2380597014925373
            ],
            [
                -0.09748427672955975,
                -0.27985074626865675
            ],
            [
                -0.13731656184486374,
                -0.019402985074626882
            ]
        ],
        [
            [
                -0.25681341719077566,
                0.7619402985074626
            ],
            [
                -0.2966457023060797,
                1.0223880597014925
            ],
            [
                -0.21111111111111114,
                1.078358208955224
            ]
        ],
        [
            [
                0.04549266247379455,
                1.2462686567164178
            ],
            [
                0.13102725366876308,
                1.3022388059701493
            ],
            [
                0.149895178197065,
                1.2492537313432837
            ]
        ]
    ],
    "3260": [
        [
            [
                0.2064989517819706,
                1.0902985074626865
            ],
            [
                0.22536687631027252,
                1.037313432835821
            ],
            [
                0.18972746331236895,
                0.9425373134328358
            ]
        ],
        [
            [
                0.08280922431865827,
                0.6582089552238806
            ],
            [
                0.04716981132075471,
                0.5634328358208955
            ],
            [
                0.04842767295597484,
                0.5223880597014925
            ]
        ],
        [
            [
                0.052201257861635215,
                0.39925373134328357
            ],
            [
                0.05345911949685534,
                0.3582089552238806
            ],
            [
                0.09790356394129977,
                0.3462686567164179
            ]
        ],
        [
            [
                0.17463312368972742,
                0.2955223880597018
            ],
            [
                0.21907756813417192,
                0.2835820895522388
            ],
            [
                0.2746331236897275,
                0.3003731343283582
            ]
        ],
        [
            [
                0.31886792452830154,
                0.2384328358208954
            ],
            [
                0.3637316561844864,
                0.31156716417910446
            ],
            [
                0.45492662473794543,
                0.33768656716417883
            ]
        ],
        [
            [
                0.5366876310272537,
                0.33768656716417944
            ],
            [
                0.5555555555555556,
                0.27611940298507465
            ],
            [
                0.5262054507337529,
                0.2182835820895521
            ]
        ],
        [
            [
                0.5398322851153039,
                0.2593283582089551
            ],
            [
                0.5366876310272537,
                0.10634328358208955
            ],
            [
                0.5366876310272537,
                -0.05037313432835822
            ]
        ],
        [
            [
                0.5939203354297694,
                -0.010447761194029879
            ],
            [
                0.5880503144654088,
                -0.08582089552238806
            ],
            [
                0.43081761006289315,
                -0.12761194029850748
            ]
        ],
        [
            [
                0.059748427672955955,
                -0.2380597014925373
            ],
            [
                -0.09748427672955975,
                -0.27985074626865675
            ],
            [
                -0.13731656184486374,
                -0.019402985074626882
            ]
        ],
        [
            [
                -0.25681341719077566,
                0.7619402985074626
            ],
            [
                -0.2966457023060797,
                1.0223880597014925
            ],
            [
                -0.21111111111111114,
                1.078358208955224
            ]
        ],
        [
            [
                0.04549266247379455,
                1.2462686567164178
            ],
            [
                0.13102725366876308,
                1.3022388059701493
            ],
            [
                0.149895178197065,
                1.2492537313432837
            ]
        ]
    ],
    "3263": [
        [
            [
                0.2064989517819706,
                1.0902985074626865
            ],
            [
                0.22536687631027252,
                1.037313432835821
            ],
            [
                0.18972746331236895,
                0.9425373134328358
            ]
        ],
        [
            [
                0.08280922431865827,
                0.6582089552238806
            ],
            [
                0.04716981132075471,
                0.5634328358208955
            ],
            [
                0.04842767295597484,
                0.5223880597014925
            ]
        ],
        [
            [
                0.052201257861635215,
                0.39925373134328357
            ],
            [
                0.05345911949685534,
                0.3582089552238806
            ],
            [
                0.09790356394129977,
                0.3462686567164179
            ]
        ],
        [
            [
                0.17463312368972742,
                0.2955223880597018
            ],
            [
                0.21907756813417192,
                0.2835820895522388
            ],
            [
                0.2746331236897275,
                0.3003731343283582
            ]
        ],
        [
            [
                0.3113207547169811,
                0.2966417910447761
            ],
            [
                0.38679245283018865,
                0.29477611940298504
            ],
            [
                0.4832285115303983,
                0.2854477611940298
            ]
        ],
        [
            [
                0.5429769392033542,
                0.2985074626865675
            ],
            [
                0.5618448637316561,
                0.23694029850746268
            ],
            [
                0.5324947589098534,
                0.17910447761194018
            ]
        ],
        [
            [
                0.5387840670859539,
                0.17164179104477612
            ],
            [
                0.5366876310272537,
                0.10634328358208955
            ],
            [
                0.5366876310272537,
                -0.05037313432835822
            ]
        ],
        [
            [
                0.5939203354297694,
                -0.010447761194029879
            ],
            [
                0.5880503144654088,
                -0.08582089552238806
            ],
            [
                0.43081761006289315,
                -0.12761194029850748
            ]
        ],
        [
            [
                0.059748427672955955,
                -0.2380597014925373
            ],
            [
                -0.09748427672955975,
                -0.27985074626865675
            ],
            [
                -0.13731656184486374,
                -0.019402985074626882
            ]
        ],
        [
            [
                -0.25681341719077566,
                0.7619402985074626
            ],
            [
                -0.2966457023060797,
                1.0223880597014925
            ],
            [
                -0.21111111111111114,
                1.078358208955224
            ]
        ],
        [
            [
                0.04549266247379455,
                1.2462686567164178
            ],
            [
                0.13102725366876308,
                1.3022388059701493
            ],
            [
                0.149895178197065,
                1.2492537313432837
            ]
        ]
    ],
    "3286": [
        [
            [
                0.2064989517819706,
                1.0902985074626865
            ],
            [
                0.22536687631027252,
                1.037313432835821
            ],
            [
                0.18972746331236895,
                0.9425373134328358
            ]
        ],
        [
            [
                0.08280922431865827,
                0.6582089552238806
            ],
            [
                0.04716981132075471,
                0.5634328358208955
            ],
            [
                0.04842767295597484,
                0.5223880597014925
            ]
        ],
        [
            [
                0.052201257861635215,
                0.39925373134328357
            ],
            [
                0.05345911949685534,
                0.3582089552238806
            ],
            [
                0.09790356394129977,
                0.3462686567164179
            ]
        ],
        [
            [
                0.19559748427672952,
                0.23022388059701523
            ],
            [
                0.240041928721174,
                0.21828358208955223
            ],
            [
                0.2955974842767296,
                0.23507462686567157
            ]
        ],
        [
            [
                0.37840670859538783,
                0.3041044776119403
            ],
            [
                0.45387840670859536,
                0.30223880597014924
            ],
            [
                0.5503144654088054,
                0.292910447761194
            ]
        ],
        [
            [
                0.5429769392033542,
                0.2985074626865675
            ],
            [
                0.5618448637316561,
                0.23694029850746268
            ],
            [
                0.5324947589098534,
                0.17910447761194018
            ]
        ],
        [
            [
                0.5387840670859539,
                0.17164179104477612
            ],
            [
                0.5366876310272537,
                0.10634328358208955
            ],
            [
                0.5366876310272537,
                -0.05037313432835822
            ]
        ],
        [
            [
                0.5939203354297694,
                -0.010447761194029879
            ],
            [
                0.5880503144654088,
                -0.08582089552238806
            ],
            [
                0.43081761006289315,
                -0.12761194029850748
            ]
        ],
        [
            [
                0.059748427672955955,
                -0.2380597014925373
            ],
            [
                -0.09748427672955975,
                -0.27985074626865675
            ],
            [
                -0.13731656184486374,
                -0.019402985074626882
            ]
        ],
        [
            [
                -0.25681341719077566,
                0.7619402985074626
            ],
            [
                -0.2966457023060797,
                1.0223880597014925
            ],
            [
                -0.21111111111111114,
                1.078358208955224
            ]
        ],
        [
            [
                0.04549266247379455,
                1.2462686567164178
            ],
            [
                0.13102725366876308,
                1.3022388059701493
            ],
            [
                0.149895178197065,
                1.2492537313432837
            ]
        ]
    ],
    "3288": [
        [
            [
                0.2064989517819706,
                1.0902985074626865
            ],
            [
                0.22536687631027252,
                1.037313432835821
            ],
            [
                0.18972746331236895,
                0.9425373134328358
            ]
        ],
        [
            [
                0.08280922431865827,
                0.6582089552238806
            ],
            [
                0.04716981132075471,
                0.5634328358208955
            ],
            [
                0.04842767295597484,
                0.5223880597014925
            ]
        ],
        [
            [
                0.052201257861635215,
                0.39925373134328357
            ],
            [
                0.05345911949685534,
                0.3582089552238806
            ],
            [
                0.09790356394129977,
                0.3462686567164179
            ]
        ],
        [
            [
                0.220754716981132,
                0.20410447761194062
            ],
            [
                0.26519916142557654,
                0.1921641791044776
            ],
            [
                0.32075471698113217,
                0.20895522388059692
            ]
        ],
        [
            [
                0.37631027253668764,
                0.2555970149253731
            ],
            [
                0.45178197064989517,
                0.2537313432835821
            ],
            [
                0.5482180293501052,
                0.24440298507462688
            ]
        ],
        [
            [
                0.5429769392033542,
                0.2985074626865675
            ],
            [
                0.5618448637316561,
                0.23694029850746268
            ],
            [
                0.5324947589098534,
                0.17910447761194018
            ]
        ],
        [
            [
                0.5387840670859539,
                0.17164179104477612
            ],
            [
                0.5366876310272537,
                0.10634328358208955
            ],
            [
                0.5366876310272537,
                -0.05037313432835822
            ]
        ],
        [
            [
                0.5939203354297694,
                -0.010447761194029879
            ],
            [
                0.5880503144654088,
                -0.08582089552238806
            ],
            [
                0.43081761006289315,
                -0.12761194029850748
            ]
        ],
        [
            [
                0.059748427672955955,
                -0.2380597014925373
            ],
            [
                -0.09748427672955975,
                -0.27985074626865675
            ],
            [
                -0.13731656184486374,
                -0.019402985074626882
            ]
        ],
        [
            [
                -0.25681341719077566,
                0.7619402985074626
            ],
            [
                -0.2966457023060797,
                1.0223880597014925
            ],
            [
                -0.21111111111111114,
                1.078358208955224
            ]
        ],
        [
            [
                0.04549266247379455,
                1.2462686567164178
            ],
            [
                0.13102725366876308,
                1.3022388059701493
            ],
            [
                0.149895178197065,
                1.2492537313432837
            ]
        ]
    ],
    "3292": [
        [
            [
                0.2064989517819706,
                1.0902985074626865
            ],
            [
                0.22536687631027252,
                1.037313432835821
            ],
            [
                0.18972746331236895,
                0.9425373134328358
            ]
        ],
        [
            [
                0.08280922431865827,
                0.6582089552238806
            ],
            [
                0.04716981132075471,
                0.5634328358208955
            ],
            [
                0.04842767295597484,
                0.5223880597014925
            ]
        ],
        [
            [
                0.052201257861635215,
                0.39925373134328357
            ],
            [
                0.05345911949685534,
                0.3582089552238806
            ],
            [
                0.09790356394129977,
                0.3462686567164179
            ]
        ],
        [
            [
                0.26792452830188657,
                0.2507462686567167
            ],
            [
                0.3123689727463312,
                0.2388059701492537
            ],
            [
                0.3693221523410202,
                0.2058457711442785
            ]
        ],
        [
            [
                0.423130677847659,
                0.2804726368159204
            ],
            [
                0.49161425576519924,
                0.36691542288557216
            ],
            [
                0.5880503144654092,
                0.3575870646766169
            ]
        ],
        [
            [
                0.5429769392033542,
                0.2985074626865675
            ],
            [
                0.5618448637316561,
                0.23694029850746268
            ],
            [
                0.5324947589098534,
                0.17910447761194018
            ]
        ],
        [
            [
                0.5387840670859539,
                0.17164179104477612
            ],
            [
                0.5366876310272537,
                0.10634328358208955
            ],
            [
                0.5366876310272537,
                -0.05037313432835822
            ]
        ],
        [
            [
                0.5939203354297694,
                -0.010447761194029879
            ],
            [
                0.5880503144654088,
                -0.08582089552238806
            ],
            [
                0.43081761006289315,
                -0.12761194029850748
            ]
        ],
        [
            [
                0.059748427672955955,
                -0.2380597014925373
            ],
            [
                -0.09748427672955975,
                -0.27985074626865675
            ],
            [
                -0.13731656184486374,
                -0.019402985074626882
            ]
        ],
        [
            [
                -0.25681341719077566,
                0.7619402985074626
            ],
            [
                -0.2966457023060797,
                1.0223880597014925
            ],
            [
                -0.21111111111111114,
                1.078358208955224
            ]
        ],
        [
            [
                0.04549266247379455,
                1.2462686567164178
            ],
            [
                0.13102725366876308,
                1.3022388059701493
            ],
            [
                0.149895178197065,
                1.2492537313432837
            ]
        ]
    ],
    "3294": [
        [
            [
                0.2064989517819706,
                1.0902985074626865
            ],
            [
                0.22536687631027252,
                1.037313432835821
            ],
            [
                0.18972746331236895,
                0.9425373134328358
            ]
        ],
        [
            [
                0.08280922431865827,
                0.6582089552238806
            ],
            [
                0.04716981132075471,
                0.5634328358208955
            ],
            [
                0.04842767295597484,
                0.5223880597014925
            ]
        ],
        [
            [
                0.052201257861635215,
                0.39925373134328357
            ],
            [
                0.05345911949685534,
                0.3582089552238806
            ],
            [
                0.09790356394129977,
                0.3462686567164179
            ]
        ],
        [
            [
                0.241719077568134,
                0.39440298507462723
            ],
            [
                0.2861635220125786,
                0.3824626865671642
            ],
            [
                0.3438155136268344,
                0.3246268656716418
            ]
        ],
        [
            [
                0.44654088050314467,
                0.292910447761194
            ],
            [
                0.5115303983228512,
                0.42350746268656714
            ],
            [
                0.6079664570230612,
                0.4141791044776119
            ]
        ],
        [
            [
                0.5429769392033542,
                0.2985074626865675
            ],
            [
                0.5618448637316561,
                0.23694029850746268
            ],
            [
                0.5324947589098534,
                0.17910447761194018
            ]
        ],
        [
            [
                0.5387840670859539,
                0.17164179104477612
            ],
            [
                0.5366876310272537,
                0.10634328358208955
            ],
            [
                0.5366876310272537,
                -0.05037313432835822
            ]
        ],
        [
            [
                0.5939203354297694,
                -0.010447761194029879
            ],
            [
                0.5880503144654088,
                -0.08582089552238806
            ],
            [
                0.43081761006289315,
                -0.12761194029850748
            ]
        ],
        [
            [
                0.059748427672955955,
                -0.2380597014925373
            ],
            [
                -0.09748427672955975,
                -0.27985074626865675
            ],
            [
                -0.13731656184486374,
                -0.019402985074626882
            ]
        ],
        [
            [
                -0.25681341719077566,
                0.7619402985074626
            ],
            [
                -0.2966457023060797,
                1.0223880597014925
            ],
            [
                -0.21111111111111114,
                1.078358208955224
            ]
        ],
        [
            [
                0.04549266247379455,
                1.2462686567164178
            ],
            [
                0.13102725366876308,
                1.3022388059701493
            ],
            [
                0.149895178197065,
                1.2492537313432837
            ]
        ]
    ],
    "3298": [
        [
            [
                0.2064989517819706,
                1.0902985074626865
            ],
            [
                0.22536687631027252,
                1.037313432835821
            ],
            [
                0.18972746331236895,
                0.9425373134328358
            ]
        ],
        [
            [
                0.08280922431865827,
                0.6582089552238806
            ],
            [
                0.04716981132075471,
                0.5634328358208955
            ],
            [
                0.04842767295597484,
                0.5223880597014925
            ]
        ],
        [
            [
                0.052201257861635215,
                0.39925373134328357
            ],
            [
                0.05345911949685534,
                0.3582089552238806
            ],
            [
                0.09790356394129977,
                0.3462686567164179
            ]
        ],
        [
            [
                0.241719077568134,
                0.39440298507462723
            ],
            [
                0.2861635220125786,
                0.3824626865671642
            ],
            [
                0.3238993710691824,
                0.4328358208955224
            ]
        ],
        [
            [
                0.42033542976939187,
                0.416044776119403
            ],
            [
                0.4853249475890985,
                0.5466417910447762
            ],
            [
                0.5817610062893084,
                0.5373134328358209
            ]
        ],
        [
            [
                0.5440251572327044,
                0.33768656716417944
            ],
            [
                0.5628930817610063,
                0.27611940298507465
            ],
            [
                0.5335429769392036,
                0.2182835820895521
            ]
        ],
        [
            [
                0.5387840670859539,
                0.17164179104477612
            ],
            [
                0.5366876310272537,
                0.10634328358208955
            ],
            [
                0.5366876310272537,
                -0.05037313432835822
            ]
        ],
        [
            [
                0.5939203354297694,
                -0.010447761194029879
            ],
            [
                0.5880503144654088,
                -0.08582089552238806
            ],
            [
                0.43081761006289315,
                -0.12761194029850748
            ]
        ],
        [
            [
                0.059748427672955955,
                -0.2380597014925373
            ],
            [
                -0.09748427672955975,
                -0.27985074626865675
            ],
            [
                -0.13731656184486374,
                -0.019402985074626882
            ]
        ],
        [
            [
                -0.25681341719077566,
                0.7619402985074626
            ],
            [
                -0.2966457023060797,
                1.0223880597014925
            ],
            [
                -0.21111111111111114,
                1.078358208955224
            ]
        ],
        [
            [
                0.04549266247379455,
                1.2462686567164178
            ],
            [
                0.13102725366876308,
                1.3022388059701493
            ],
            [
                0.149895178197065,
                1.2492537313432837
            ]
        ]
    ],
    "3302": [
        [
            [
                0.2064989517819706,
                1.0902985074626865
            ],
            [
                0.22536687631027252,
                1.037313432835821
            ],
            [
                0.18972746331236895,
                0.9425373134328358
            ]
        ],
        [
            [
                0.08280922431865827,
                0.6582089552238806
            ],
            [
                0.04716981132075471,
                0.5634328358208955
            ],
            [
                0.04842767295597484,
                0.5223880597014925
            ]
        ],
        [
            [
                0.052201257861635215,
                0.39925373134328357
            ],
            [
                0.05345911949685534,
                0.3582089552238806
            ],
            [
                0.09790356394129977,
                0.3462686567164179
            ]
        ],
        [
            [
                0.241719077568134,
                0.39440298507462723
            ],
            [
                0.2861635220125786,
                0.3824626865671642
            ],
            [
                0.3238993710691824,
                0.4328358208955224
            ]
        ],
        [
            [
                0.39308176100628933,
                0.5541044776119404
            ],
            [
                0.4853249475890985,
                0.5466417910447762
            ],
            [
                0.5817610062893084,
                0.5373134328358209
            ]
        ],
        [
            [
                0.5440251572327044,
                0.33768656716417944
            ],
            [
                0.5628930817610063,
                0.27611940298507465
            ],
            [
                0.5335429769392036,
                0.2182835820895521
            ]
        ],
        [
            [
                0.5387840670859539,
                0.17164179104477612
            ],
            [
                0.5366876310272537,
                0.10634328358208955
            ],
            [
                0.5366876310272537,
                -0.05037313432835822
            ]
        ],
        [
            [
                0.5939203354297694,
                -0.010447761194029879
            ],
            [
                0.5880503144654088,
                -0.08582089552238806
            ],
            [
                0.43081761006289315,
                -0.12761194029850748
            ]
        ],
        [
            [
                0.059748427672955955,
                -0.2380597014925373
            ],
            [
                -0.09748427672955975,
                -0.27985074626865675
            ],
            [
                -0.13731656184486374,
                -0.019402985074626882
            ]
        ],
        [
            [
                -0.25681341719077566,
                0.7619402985074626
            ],
            [
                -0.2966457023060797,
                1.0223880597014925
            ],
            [
                -0.21111111111111114,
                1.078358208955224
            ]
        ],
        [
            [
                0.04549266247379455,
                1.2462686567164178
            ],
            [
                0.13102725366876308,
                1.3022388059701493
            ],
            [
                0.149895178197065,
                1.2492537313432837
            ]
        ]
    ],
    "3307": [
        [
            [
                0.2064989517819706,
                1.0902985074626865
            ],
            [
                0.22536687631027252,
                1.037313432835821
            ],
            [
                0.18972746331236895,
                0.9425373134328358
            ]
        ],
        [
            [
                0.08280922431865827,
                0.6582089552238806
            ],
            [
                0.04716981132075471,
                0.5634328358208955
            ],
            [
                0.04842767295597484,
                0.5223880597014925
            ]
        ],
        [
            [
                0.052201257861635215,
                0.39925373134328357
            ],
            [
                0.05345911949685534,
                0.3582089552238806
            ],
            [
                0.09790356394129977,
                0.3462686567164179
            ]
        ],
        [
            [
                0.241719077568134,
                0.39440298507462723
            ],
            [
                0.2861635220125786,
                0.3824626865671642
            ],
            [
                0.3238993710691824,
                0.4328358208955224
            ]
        ],
        [
            [
                0.39308176100628933,
                0.5541044776119404
            ],
            [
                0.4853249475890985,
                0.5466417910447762
            ],
            [
                0.5817610062893084,
                0.5373134328358209
            ]
        ],
        [
            [
                0.5314465408805031,
                0.3395522388059705
            ],
            [
                0.550314465408805,
                0.2779850746268657
            ],
            [
                0.5209643605870024,
                0.22014925373134317
            ]
        ],
        [
            [
                0.5241090146750527,
                0.16417910447761191
            ],
            [
                0.5220125786163522,
                0.09888059701492538
            ],
            [
                0.5220125786163522,
                -0.0578358208955224
            ]
        ],
        [
            [
                0.5939203354297694,
                -0.010447761194029879
            ],
            [
                0.5880503144654088,
                -0.08582089552238806
            ],
            [
                0.43081761006289315,
                -0.12761194029850748
            ]
        ],
        [
            [
                0.059748427672955955,
                -0.2380597014925373
            ],
            [
                -0.09748427672955975,
                -0.27985074626865675
            ],
            [
                -0.13731656184486374,
                -0.019402985074626882
            ]
        ],
        [
            [
                -0.25681341719077566,
                0.7619402985074626
            ],
            [
                -0.2966457023060797,
                1.0223880597014925
            ],
            [
                -0.21111111111111114,
                1.078358208955224
            ]
        ],
        [
            [
                0.04549266247379455,
                1.2462686567164178
            ],
            [
                0.13102725366876308,
                1.3022388059701493
            ],
            [
                0.149895178197065,
                1.2492537313432837
            ]
        ]
    ],
    "3407": [
        [
            [
                0.22117400419287211,
                1.0791044776119403
            ],
            [
                0.240041928721174,
                1.0261194029850746
            ],
            [
                0.20440251572327042,
                0.9313432835820895
            ]
        ],
        [
            [
                0.0864793776309716,
                0.6293673143715384
            ],
            [
                0.05083996463306808,
                0.5345911949685535
            ],
            [
                0.052097826268288204,
                0.49354641884915035
            ]
        ],
        [
            [
                0.052201257861635215,
                0.39925373134328357
            ],
            [
                0.05345911949685534,
                0.3582089552238806
            ],
            [
                0.09790356394129977,
                0.3462686567164179
            ]
        ],
        [
            [
                0.241719077568134,
                0.39440298507462723
            ],
            [
                0.2861635220125786,
                0.3824626865671642
            ],
            [
                0.3238993710691824,
                0.4328358208955224
            ]
        ],
        [
            [
                0.39308176100628933,
                0.5541044776119404
            ],
            [
                0.4853249475890985,
                0.5466417910447762
            ],
            [
                0.5817610062893084,
                0.5373134328358209
            ]
        ],
        [
            [
                0.5314465408805031,
                0.3395522388059705
            ],
            [
                0.550314465408805,
                0.2779850746268657
            ],
            [
                0.5209643605870024,
                0.22014925373134317
            ]
        ],
        [
            [
                0.5241090146750527,
                0.16417910447761191
            ],
            [
                0.5220125786163522,
                0.09888059701492538
            ],
            [
                0.5220125786163522,
                -0.0578358208955224
            ]
        ],
        [
            [
                0.5939203354297694,
                -0.010447761194029879
            ],
            [
                0.5880503144654088,
                -0.08582089552238806
            ],
            [
                0.43081761006289315,
                -0.12761194029850748
            ]
        ],
        [
            [
                0.059748427672955955,
                -0.2380597014925373
            ],
            [
                -0.09748427672955975,
                -0.27985074626865675
            ],
            [
                -0.13731656184486374,
                -0.019402985074626882
            ]
        ],
        [
            [
                -0.25681341719077566,
                0.7619402985074626
            ],
            [
                -0.2966457023060797,
                1.0223880597014925
            ],
            [
                -0.21111111111111114,
                1.078358208955224
            ]
        ],
        [
            [
                0.04549266247379455,
                1.2462686567164178
            ],
            [
                0.13102725366876308,
                1.3022388059701493
            ],
            [
                0.149895178197065,
                1.2492537313432837
            ]
        ]
    ]
}
</property>
    <property name="kdenlive:collapsed">0</property>
   </filter>
   <filter id="filter278">
    <property name="mode">alpha</property>
    <property name="alpha_operation">sub</property>
    <property name="invert">0</property>
    <property name="feather">16</property>
    <property name="feather_passes">1</property>
    <property name="mlt_service">rotoscoping</property>
    <property name="kdenlive_id">rotoscoping</property>
    <property name="spline">{
    "2087": [
        [
            [
                -0.09748427672955974,
                0.3126865671641791
            ],
            [
                -0.07023060796645701,
                0.25
            ],
            [
                0.009014675052410907,
                0.4358208955223881
            ]
        ],
        [
            [
                0.14465408805031452,
                0.782089552238806
            ],
            [
                0.18448637316561844,
                0.8880597014925373
            ],
            [
                0.220125786163522,
                0.8768656716417911
            ]
        ],
        [
            [
                0.240041928721174,
                0.871268656716418
            ],
            [
                0.2526205450733753,
                0.8805970149253731
            ],
            [
                0.2677148846960166,
                0.9067164179104481
            ]
        ],
        [
            [
                0.30335429769392036,
                0.9820895522388062
            ],
            [
                0.3825995807127882,
                1.167910447761194
            ],
            [
                0.34528301886792445,
                1.1977611940298512
            ]
        ],
        [
            [
                0.17044025157232703,
                1.294776119402985
            ],
            [
                0.1331236897274633,
                1.3246268656716418
            ],
            [
                0.06436058700209643,
                1.3052238805970149
            ]
        ],
        [
            [
                -0.14192872117400418,
                1.2470149253731344
            ],
            [
                -0.21069182389937108,
                1.2276119402985075
            ],
            [
                -0.2111111111111111,
                1.094029850746269
            ]
        ],
        [
            [
                -0.21236897274633124,
                0.6932835820895522
            ],
            [
                -0.21278825995807127,
                0.5597014925373135
            ],
            [
                -0.18553459119496854,
                0.4970149253731343
            ]
        ]
    ]
}
</property>
    <property name="kdenlive:collapsed">0</property>
   </filter>
   <filter id="filter279">
    <property name="rotate_center">1</property>
    <property name="mlt_service">qtblend</property>
    <property name="kdenlive_id">qtblend</property>
    <property name="rect">2087=579 325 1344 756 1.000000</property>
    <property name="rotation">2087=0</property>
    <property name="compositing">0</property>
    <property name="distort">0</property>
    <property name="kdenlive:collapsed">0</property>
   </filter>
  </entry>
 </playlist>
 <playlist id="playlist25"/>
 <tractor id="tractor12" in="00:00:00.000" out="00:07:07.067">
  <property name="kdenlive:trackheight">69</property>
  <property name="kdenlive:timeline_active">1</property>
  <property name="kdenlive:collapsed">0</property>
  <property name="kdenlive:track_name">chris-synth</property>
  <property name="kdenlive:thumbs_format"/>
  <property name="kdenlive:audio_rec"/>
  <track hide="audio" producer="playlist24"/>
  <track producer="playlist25"/>
 </tractor>
 <producer id="producer263" in="00:00:00.000" out="00:03:15.200">
  <property name="length">5857</property>
  <property name="eof">pause</property>
  <property name="resource">/home/ryankelln/.cache/kdenlive/proxy/c0bae3ca6937cd77ca262b126f122330.mkv</property>
  <property name="audio_index">-1</property>
  <property name="video_index">0</property>
  <property name="mute_on_pause">0</property>
  <property name="mlt_service">avformat-novalidate</property>
  <property name="seekable">1</property>
  <property name="aspect_ratio">1</property>
  <property name="kdenlive:clipname">2021-02-06_20-38-42_Chris_piano+synth_mac_C0019-take1_beginning.MP4</property>
  <property name="kdenlive:folderid">65</property>
  <property name="kdenlive:id">48</property>
  <property name="kdenlive:file_size">1202460569</property>
  <property name="kdenlive:file_hash">c0bae3ca6937cd77ca262b126f122330</property>
  <property name="kdenlive:proxy">/home/ryankelln/.cache/kdenlive/proxy/c0bae3ca6937cd77ca262b126f122330.mkv</property>
  <property name="kdenlive:originalurl">content/musicians/2021-02-06_20-38-42_Chris_piano+synth_mac_C0019-take1_beginning.MP4</property>
  <property name="kdenlive:original.mlt_type">producer</property>
  <property name="kdenlive:original.in">0</property>
  <property name="kdenlive:original.out">5856</property>
  <property name="kdenlive:original.length">5857</property>
  <property name="kdenlive:original.eof">pause</property>
  <property name="kdenlive:original.resource">content/musicians/2021-02-06_20-38-42_Chris_piano+synth_mac_C0019-take1_beginning.MP4</property>
  <property name="kdenlive:original.meta.media.nb_streams">1</property>
  <property name="kdenlive:original.meta.media.0.stream.type">video</property>
  <property name="kdenlive:original.meta.media.0.stream.frame_rate">29.97</property>
  <property name="kdenlive:original.meta.media.0.stream.sample_aspect_ratio">1</property>
  <property name="kdenlive:original.meta.media.0.codec.width">1920</property>
  <property name="kdenlive:original.meta.media.0.codec.height">1080</property>
  <property name="kdenlive:original.meta.media.0.codec.rotate">0</property>
  <property name="kdenlive:original.meta.media.0.codec.frame_rate">29.97</property>
  <property name="kdenlive:original.meta.media.0.codec.pix_fmt">yuv420p</property>
  <property name="kdenlive:original.meta.media.0.codec.sample_aspect_ratio">1</property>
  <property name="kdenlive:original.meta.media.0.codec.colorspace">709</property>
  <property name="kdenlive:original.meta.media.0.codec.color_trc">1</property>
  <property name="kdenlive:original.meta.media.0.codec.name">h264</property>
  <property name="kdenlive:original.meta.media.0.codec.long_name">H.264 / AVC / MPEG-4 AVC / MPEG-4 part 10</property>
  <property name="kdenlive:original.meta.media.0.codec.bit_rate">49271337</property>
  <property name="kdenlive:original.meta.attr.0.stream.creation_time.markup">2021-06-03T20:38:42.000000Z</property>
  <property name="kdenlive:original.meta.attr.0.stream.handler_name.markup">Video Media Handler</property>
  <property name="kdenlive:original.meta.attr.major_brand.markup">isom</property>
  <property name="kdenlive:original.meta.attr.minor_version.markup">512</property>
  <property name="kdenlive:original.meta.attr.compatible_brands.markup">isomiso2avc1mp41</property>
  <property name="kdenlive:original.meta.attr.creation_time.markup">2021-06-03T20:38:42.000000Z</property>
  <property name="kdenlive:original.meta.attr.encoder.markup">Lavf58.45.100</property>
  <property name="kdenlive:original.seekable">1</property>
  <property name="kdenlive:original.width">1920</property>
  <property name="kdenlive:original.height">1080</property>
  <property name="kdenlive:original.meta.media.sample_aspect_num">1</property>
  <property name="kdenlive:original.meta.media.sample_aspect_den">1</property>
  <property name="kdenlive:original.aspect_ratio">1</property>
  <property name="kdenlive:original.audio_index">-1</property>
  <property name="kdenlive:original.video_index">0</property>
  <property name="kdenlive:original.mute_on_pause">0</property>
  <property name="kdenlive:original.mlt_service">avformat-novalidate</property>
  <property name="kdenlive:original.kdenlive:folderid">65</property>
  <property name="kdenlive:original.meta.media.frame_rate_num">30000</property>
  <property name="kdenlive:original.meta.media.frame_rate_den">1001</property>
  <property name="kdenlive:original.meta.media.colorspace">709</property>
  <property name="kdenlive:original.meta.media.color_trc">1</property>
  <property name="kdenlive:original.meta.media.width">1920</property>
  <property name="kdenlive:original.meta.media.height">1080</property>
  <property name="kdenlive:original.meta.media.color_range">mpeg</property>
  <property name="kdenlive:original.kdenlive:id">82</property>
  <property name="kdenlive:original.kdenlive:file_size">1202460569</property>
  <property name="kdenlive:original.kdenlive:file_hash">c0bae3ca6937cd77ca262b126f122330</property>
  <property name="kdenlive:original.backup">1</property>
  <property name="global_feed">1</property>
  <property name="xml">was here</property>
  <property name="meta.media.nb_streams">1</property>
  <property name="meta.media.0.stream.type">video</property>
  <property name="meta.media.0.stream.frame_rate">29.97</property>
  <property name="meta.media.0.stream.sample_aspect_ratio">1</property>
  <property name="meta.media.0.codec.width">960</property>
  <property name="meta.media.0.codec.height">540</property>
  <property name="meta.media.0.codec.rotate">0</property>
  <property name="meta.media.0.codec.frame_rate">1000</property>
  <property name="meta.media.0.codec.pix_fmt">yuvj420p</property>
  <property name="meta.media.0.codec.sample_aspect_ratio">1</property>
  <property name="meta.media.0.codec.colorspace">601</property>
  <property name="meta.media.0.codec.name">mjpeg</property>
  <property name="meta.media.0.codec.long_name">MJPEG (Motion JPEG)</property>
  <property name="meta.media.0.codec.bit_rate">0</property>
  <property name="meta.attr.0.stream.HANDLER_NAME.markup">Video Media Handler</property>
  <property name="meta.attr.0.stream.ENCODER.markup">Lavc58.91.100 mjpeg</property>
  <property name="meta.attr.0.stream.DURATION.markup">00:03:15.228000000</property>
  <property name="meta.attr.COMPATIBLE_BRANDS.markup">isomiso2avc1mp41</property>
  <property name="meta.attr.MAJOR_BRAND.markup">isom</property>
  <property name="meta.attr.MINOR_VERSION.markup">512</property>
  <property name="meta.attr.ENCODER.markup">Lavf58.45.100</property>
  <property name="meta.media.sample_aspect_num">1</property>
  <property name="meta.media.sample_aspect_den">1</property>
  <property name="meta.media.frame_rate_num">30000</property>
  <property name="meta.media.frame_rate_den">1001</property>
  <property name="meta.media.colorspace">601</property>
  <property name="meta.media.color_trc">2</property>
  <property name="meta.media.width">960</property>
  <property name="meta.media.height">540</property>
  <property name="meta.media.color_range">full</property>
  <property name="meta.media.top_field_first">0</property>
  <property name="meta.media.progressive">1</property>
  <property name="set.test_audio">1</property>
  <property name="set.test_image">1</property>
 </producer>
 <producer id="producer264" in="00:00:00.000" out="00:05:23.233">
  <property name="length">9698</property>
  <property name="eof">pause</property>
  <property name="resource">/home/ryankelln/.cache/kdenlive/proxy/0faef12e907a35baf806ffc6266e88e3.mkv</property>
  <property name="audio_index">-1</property>
  <property name="video_index">0</property>
  <property name="mute_on_pause">0</property>
  <property name="mlt_service">avformat-novalidate</property>
  <property name="seekable">1</property>
  <property name="aspect_ratio">1</property>
  <property name="kdenlive:clipname">2021-02-06_20-38-42_Chris_piano+synth_mac_C0019-take2_from_piano.MP4</property>
  <property name="kdenlive:folderid">65</property>
  <property name="kdenlive:id">49</property>
  <property name="kdenlive:file_size">2001558594</property>
  <property name="kdenlive:file_hash">0faef12e907a35baf806ffc6266e88e3</property>
  <property name="kdenlive:proxy">/home/ryankelln/.cache/kdenlive/proxy/0faef12e907a35baf806ffc6266e88e3.mkv</property>
  <property name="kdenlive:originalurl">content/musicians/2021-02-06_20-38-42_Chris_piano+synth_mac_C0019-take2_from_piano.MP4</property>
  <property name="kdenlive:original.mlt_type">producer</property>
  <property name="kdenlive:original.in">0</property>
  <property name="kdenlive:original.out">9697</property>
  <property name="kdenlive:original.length">9698</property>
  <property name="kdenlive:original.eof">pause</property>
  <property name="kdenlive:original.resource">content/musicians/2021-02-06_20-38-42_Chris_piano+synth_mac_C0019-take2_from_piano.MP4</property>
  <property name="kdenlive:original.meta.media.nb_streams">1</property>
  <property name="kdenlive:original.meta.media.0.stream.type">video</property>
  <property name="kdenlive:original.meta.media.0.stream.frame_rate">29.97</property>
  <property name="kdenlive:original.meta.media.0.stream.sample_aspect_ratio">1</property>
  <property name="kdenlive:original.meta.media.0.codec.width">1920</property>
  <property name="kdenlive:original.meta.media.0.codec.height">1080</property>
  <property name="kdenlive:original.meta.media.0.codec.rotate">0</property>
  <property name="kdenlive:original.meta.media.0.codec.frame_rate">29.97</property>
  <property name="kdenlive:original.meta.media.0.codec.pix_fmt">yuv420p</property>
  <property name="kdenlive:original.meta.media.0.codec.sample_aspect_ratio">1</property>
  <property name="kdenlive:original.meta.media.0.codec.colorspace">709</property>
  <property name="kdenlive:original.meta.media.0.codec.color_trc">1</property>
  <property name="kdenlive:original.meta.media.0.codec.name">h264</property>
  <property name="kdenlive:original.meta.media.0.codec.long_name">H.264 / AVC / MPEG-4 AVC / MPEG-4 part 10</property>
  <property name="kdenlive:original.meta.media.0.codec.bit_rate">49532178</property>
  <property name="kdenlive:original.meta.attr.0.stream.creation_time.markup">2021-06-03T20:38:42.000000Z</property>
  <property name="kdenlive:original.meta.attr.0.stream.handler_name.markup">Video Media Handler</property>
  <property name="kdenlive:original.meta.attr.major_brand.markup">isom</property>
  <property name="kdenlive:original.meta.attr.minor_version.markup">512</property>
  <property name="kdenlive:original.meta.attr.compatible_brands.markup">isomiso2avc1mp41</property>
  <property name="kdenlive:original.meta.attr.creation_time.markup">2021-06-03T20:38:42.000000Z</property>
  <property name="kdenlive:original.meta.attr.encoder.markup">Lavf58.45.100</property>
  <property name="kdenlive:original.seekable">1</property>
  <property name="kdenlive:original.width">1920</property>
  <property name="kdenlive:original.height">1080</property>
  <property name="kdenlive:original.meta.media.sample_aspect_num">1</property>
  <property name="kdenlive:original.meta.media.sample_aspect_den">1</property>
  <property name="kdenlive:original.aspect_ratio">1</property>
  <property name="kdenlive:original.audio_index">-1</property>
  <property name="kdenlive:original.video_index">0</property>
  <property name="kdenlive:original.mute_on_pause">0</property>
  <property name="kdenlive:original.mlt_service">avformat-novalidate</property>
  <property name="kdenlive:original.kdenlive:folderid">65</property>
  <property name="kdenlive:original.meta.media.frame_rate_num">30000</property>
  <property name="kdenlive:original.meta.media.frame_rate_den">1001</property>
  <property name="kdenlive:original.meta.media.colorspace">709</property>
  <property name="kdenlive:original.meta.media.color_trc">1</property>
  <property name="kdenlive:original.meta.media.width">1920</property>
  <property name="kdenlive:original.meta.media.height">1080</property>
  <property name="kdenlive:original.meta.media.color_range">mpeg</property>
  <property name="kdenlive:original.kdenlive:id">83</property>
  <property name="kdenlive:original.kdenlive:file_size">2001558594</property>
  <property name="kdenlive:original.kdenlive:file_hash">0faef12e907a35baf806ffc6266e88e3</property>
  <property name="kdenlive:original.backup">1</property>
  <property name="global_feed">1</property>
  <property name="kdenlive:activeeffect">2</property>
  <property name="xml">was here</property>
  <property name="meta.media.nb_streams">1</property>
  <property name="meta.media.0.stream.type">video</property>
  <property name="meta.media.0.stream.frame_rate">29.97</property>
  <property name="meta.media.0.stream.sample_aspect_ratio">1</property>
  <property name="meta.media.0.codec.width">960</property>
  <property name="meta.media.0.codec.height">540</property>
  <property name="meta.media.0.codec.rotate">0</property>
  <property name="meta.media.0.codec.frame_rate">1000</property>
  <property name="meta.media.0.codec.pix_fmt">yuvj420p</property>
  <property name="meta.media.0.codec.sample_aspect_ratio">1</property>
  <property name="meta.media.0.codec.colorspace">601</property>
  <property name="meta.media.0.codec.name">mjpeg</property>
  <property name="meta.media.0.codec.long_name">MJPEG (Motion JPEG)</property>
  <property name="meta.media.0.codec.bit_rate">0</property>
  <property name="meta.attr.0.stream.HANDLER_NAME.markup">Video Media Handler</property>
  <property name="meta.attr.0.stream.ENCODER.markup">Lavc58.91.100 mjpeg</property>
  <property name="meta.attr.0.stream.DURATION.markup">00:05:23.256000000</property>
  <property name="meta.attr.COMPATIBLE_BRANDS.markup">isomiso2avc1mp41</property>
  <property name="meta.attr.MAJOR_BRAND.markup">isom</property>
  <property name="meta.attr.MINOR_VERSION.markup">512</property>
  <property name="meta.attr.ENCODER.markup">Lavf58.45.100</property>
  <property name="meta.media.sample_aspect_num">1</property>
  <property name="meta.media.sample_aspect_den">1</property>
  <property name="meta.media.frame_rate_num">30000</property>
  <property name="meta.media.frame_rate_den">1001</property>
  <property name="meta.media.colorspace">601</property>
  <property name="meta.media.color_trc">2</property>
  <property name="meta.media.width">960</property>
  <property name="meta.media.height">540</property>
  <property name="meta.media.color_range">full</property>
  <property name="meta.media.top_field_first">0</property>
  <property name="meta.media.progressive">1</property>
  <property name="set.test_audio">1</property>
  <property name="set.test_image">1</property>
  <filter id="filter280">
   <property name="version">0.1</property>
   <property name="mlt_service">frei0r.hqdn3d</property>
   <property name="kdenlive_id">frei0r.hqdn3d</property>
   <property name="Spatial">00:00:00.000=0.01</property>
   <property name="Temporal">00:00:00.000=0.01</property>
   <property name="kdenlive:collapsed">0</property>
  </filter>
  <filter id="filter281">
   <property name="version">0.6</property>
   <property name="mlt_service">frei0r.select0r</property>
   <property name="kdenlive_id">frei0r.select0r</property>
   <property name="Color to select">0x5ca56cff</property>
   <property name="Invert selection">1</property>
   <property name="Selection subspace">1</property>
   <property name="Subspace shape">0</property>
   <property name="Edge mode">0.9</property>
   <property name="Delta R / A / Hue">00:00:00.000=0.138</property>
   <property name="Delta G / B / Chroma">00:00:00.000=0.145</property>
   <property name="Delta B / I / I">00:00:00.000=0.333</property>
   <property name="Slope">00:00:00.000=0.081</property>
   <property name="Operation">0.5</property>
   <property name="kdenlive:collapsed">0</property>
  </filter>
  <filter id="filter282">
   <property name="mlt_service">avfilter.despill</property>
   <property name="kdenlive_id">avfilter.despill</property>
   <property name="av.type">green</property>
   <property name="av.mix">0.106</property>
   <property name="av.expand">0.051</property>
   <property name="av.red">0</property>
   <property name="av.green">-0.7</property>
   <property name="av.blue">-0.6</property>
   <property name="av.brightness">0</property>
   <property name="kdenlive:collapsed">0</property>
  </filter>
  <filter id="filter283">
   <property name="version">0.1</property>
   <property name="mlt_service">frei0r.hqdn3d</property>
   <property name="kdenlive_id">frei0r.hqdn3d</property>
   <property name="Spatial">00:00:00.000=0.01</property>
   <property name="Temporal">00:00:00.000=0.01</property>
  </filter>
  <filter id="filter284">
   <property name="version">0.6</property>
   <property name="mlt_service">frei0r.select0r</property>
   <property name="kdenlive_id">frei0r.select0r</property>
   <property name="Color to select">0x5ca56cff</property>
   <property name="Invert selection">1</property>
   <property name="Selection subspace">1</property>
   <property name="Subspace shape">0</property>
   <property name="Edge mode">0.9</property>
   <property name="Delta R / A / Hue">00:00:00.000=0.138</property>
   <property name="Delta G / B / Chroma">00:00:00.000=0.145</property>
   <property name="Delta B / I / I">00:00:00.000=0.333</property>
   <property name="Slope">00:00:00.000=0.081</property>
   <property name="Operation">0.5</property>
  </filter>
  <filter id="filter285">
   <property name="mlt_service">avfilter.despill</property>
   <property name="kdenlive_id">avfilter.despill</property>
   <property name="av.type">green</property>
   <property name="av.mix">0.106</property>
   <property name="av.expand">0.051</property>
   <property name="av.red">0</property>
   <property name="av.green">-0.7</property>
   <property name="av.blue">-0.6</property>
   <property name="av.brightness">0</property>
  </filter>
 </producer>
 <producer id="producer265" in="00:00:00.000" out="00:05:23.233">
  <property name="length">9698</property>
  <property name="eof">pause</property>
  <property name="resource">/home/ryankelln/.cache/kdenlive/proxy/0faef12e907a35baf806ffc6266e88e3.mkv</property>
  <property name="audio_index">-1</property>
  <property name="video_index">0</property>
  <property name="mute_on_pause">0</property>
  <property name="mlt_service">avformat-novalidate</property>
  <property name="seekable">1</property>
  <property name="aspect_ratio">1</property>
  <property name="kdenlive:clipname">2021-02-06_20-38-42_Chris_piano+synth_mac_C0019-take2_from_piano.MP4</property>
  <property name="kdenlive:folderid">65</property>
  <property name="kdenlive:id">49</property>
  <property name="kdenlive:file_size">2001558594</property>
  <property name="kdenlive:file_hash">0faef12e907a35baf806ffc6266e88e3</property>
  <property name="kdenlive:proxy">/home/ryankelln/.cache/kdenlive/proxy/0faef12e907a35baf806ffc6266e88e3.mkv</property>
  <property name="kdenlive:originalurl">content/musicians/2021-02-06_20-38-42_Chris_piano+synth_mac_C0019-take2_from_piano.MP4</property>
  <property name="kdenlive:original.mlt_type">producer</property>
  <property name="kdenlive:original.in">0</property>
  <property name="kdenlive:original.out">9697</property>
  <property name="kdenlive:original.length">9698</property>
  <property name="kdenlive:original.eof">pause</property>
  <property name="kdenlive:original.resource">content/musicians/2021-02-06_20-38-42_Chris_piano+synth_mac_C0019-take2_from_piano.MP4</property>
  <property name="kdenlive:original.meta.media.nb_streams">1</property>
  <property name="kdenlive:original.meta.media.0.stream.type">video</property>
  <property name="kdenlive:original.meta.media.0.stream.frame_rate">29.97</property>
  <property name="kdenlive:original.meta.media.0.stream.sample_aspect_ratio">1</property>
  <property name="kdenlive:original.meta.media.0.codec.width">1920</property>
  <property name="kdenlive:original.meta.media.0.codec.height">1080</property>
  <property name="kdenlive:original.meta.media.0.codec.rotate">0</property>
  <property name="kdenlive:original.meta.media.0.codec.frame_rate">29.97</property>
  <property name="kdenlive:original.meta.media.0.codec.pix_fmt">yuv420p</property>
  <property name="kdenlive:original.meta.media.0.codec.sample_aspect_ratio">1</property>
  <property name="kdenlive:original.meta.media.0.codec.colorspace">709</property>
  <property name="kdenlive:original.meta.media.0.codec.color_trc">1</property>
  <property name="kdenlive:original.meta.media.0.codec.name">h264</property>
  <property name="kdenlive:original.meta.media.0.codec.long_name">H.264 / AVC / MPEG-4 AVC / MPEG-4 part 10</property>
  <property name="kdenlive:original.meta.media.0.codec.bit_rate">49532178</property>
  <property name="kdenlive:original.meta.attr.0.stream.creation_time.markup">2021-06-03T20:38:42.000000Z</property>
  <property name="kdenlive:original.meta.attr.0.stream.handler_name.markup">Video Media Handler</property>
  <property name="kdenlive:original.meta.attr.major_brand.markup">isom</property>
  <property name="kdenlive:original.meta.attr.minor_version.markup">512</property>
  <property name="kdenlive:original.meta.attr.compatible_brands.markup">isomiso2avc1mp41</property>
  <property name="kdenlive:original.meta.attr.creation_time.markup">2021-06-03T20:38:42.000000Z</property>
  <property name="kdenlive:original.meta.attr.encoder.markup">Lavf58.45.100</property>
  <property name="kdenlive:original.seekable">1</property>
  <property name="kdenlive:original.width">1920</property>
  <property name="kdenlive:original.height">1080</property>
  <property name="kdenlive:original.meta.media.sample_aspect_num">1</property>
  <property name="kdenlive:original.meta.media.sample_aspect_den">1</property>
  <property name="kdenlive:original.aspect_ratio">1</property>
  <property name="kdenlive:original.audio_index">-1</property>
  <property name="kdenlive:original.video_index">0</property>
  <property name="kdenlive:original.mute_on_pause">0</property>
  <property name="kdenlive:original.mlt_service">avformat-novalidate</property>
  <property name="kdenlive:original.kdenlive:folderid">65</property>
  <property name="kdenlive:original.meta.media.frame_rate_num">30000</property>
  <property name="kdenlive:original.meta.media.frame_rate_den">1001</property>
  <property name="kdenlive:original.meta.media.colorspace">709</property>
  <property name="kdenlive:original.meta.media.color_trc">1</property>
  <property name="kdenlive:original.meta.media.width">1920</property>
  <property name="kdenlive:original.meta.media.height">1080</property>
  <property name="kdenlive:original.meta.media.color_range">mpeg</property>
  <property name="kdenlive:original.kdenlive:id">83</property>
  <property name="kdenlive:original.kdenlive:file_size">2001558594</property>
  <property name="kdenlive:original.kdenlive:file_hash">0faef12e907a35baf806ffc6266e88e3</property>
  <property name="kdenlive:original.backup">1</property>
  <property name="global_feed">1</property>
  <property name="kdenlive:activeeffect">2</property>
  <property name="xml">was here</property>
  <property name="meta.media.nb_streams">1</property>
  <property name="meta.media.0.stream.type">video</property>
  <property name="meta.media.0.stream.frame_rate">29.97</property>
  <property name="meta.media.0.stream.sample_aspect_ratio">1</property>
  <property name="meta.media.0.codec.width">960</property>
  <property name="meta.media.0.codec.height">540</property>
  <property name="meta.media.0.codec.rotate">0</property>
  <property name="meta.media.0.codec.frame_rate">1000</property>
  <property name="meta.media.0.codec.pix_fmt">yuvj420p</property>
  <property name="meta.media.0.codec.sample_aspect_ratio">1</property>
  <property name="meta.media.0.codec.colorspace">601</property>
  <property name="meta.media.0.codec.name">mjpeg</property>
  <property name="meta.media.0.codec.long_name">MJPEG (Motion JPEG)</property>
  <property name="meta.media.0.codec.bit_rate">0</property>
  <property name="meta.attr.0.stream.HANDLER_NAME.markup">Video Media Handler</property>
  <property name="meta.attr.0.stream.ENCODER.markup">Lavc58.91.100 mjpeg</property>
  <property name="meta.attr.0.stream.DURATION.markup">00:05:23.256000000</property>
  <property name="meta.attr.COMPATIBLE_BRANDS.markup">isomiso2avc1mp41</property>
  <property name="meta.attr.MAJOR_BRAND.markup">isom</property>
  <property name="meta.attr.MINOR_VERSION.markup">512</property>
  <property name="meta.attr.ENCODER.markup">Lavf58.45.100</property>
  <property name="meta.media.sample_aspect_num">1</property>
  <property name="meta.media.sample_aspect_den">1</property>
  <property name="meta.media.frame_rate_num">30000</property>
  <property name="meta.media.frame_rate_den">1001</property>
  <property name="meta.media.colorspace">601</property>
  <property name="meta.media.color_trc">2</property>
  <property name="meta.media.width">960</property>
  <property name="meta.media.height">540</property>
  <property name="meta.media.color_range">full</property>
  <property name="meta.media.top_field_first">0</property>
  <property name="meta.media.progressive">1</property>
  <property name="set.test_audio">1</property>
  <property name="set.test_image">0</property>
 </producer>
 <producer id="producer266" in="00:00:00.000" out="00:05:23.233">
  <property name="length">9698</property>
  <property name="eof">pause</property>
  <property name="resource">/home/ryankelln/.cache/kdenlive/proxy/0faef12e907a35baf806ffc6266e88e3.mkv</property>
  <property name="audio_index">-1</property>
  <property name="video_index">0</property>
  <property name="mute_on_pause">0</property>
  <property name="mlt_service">avformat-novalidate</property>
  <property name="seekable">1</property>
  <property name="aspect_ratio">1</property>
  <property name="kdenlive:clipname">2021-02-06_20-38-42_Chris_piano+synth_mac_C0019-take2_from_piano.MP4</property>
  <property name="kdenlive:folderid">65</property>
  <property name="kdenlive:id">49</property>
  <property name="kdenlive:file_size">2001558594</property>
  <property name="kdenlive:file_hash">0faef12e907a35baf806ffc6266e88e3</property>
  <property name="kdenlive:proxy">/home/ryankelln/.cache/kdenlive/proxy/0faef12e907a35baf806ffc6266e88e3.mkv</property>
  <property name="kdenlive:originalurl">content/musicians/2021-02-06_20-38-42_Chris_piano+synth_mac_C0019-take2_from_piano.MP4</property>
  <property name="kdenlive:original.mlt_type">producer</property>
  <property name="kdenlive:original.in">0</property>
  <property name="kdenlive:original.out">9697</property>
  <property name="kdenlive:original.length">9698</property>
  <property name="kdenlive:original.eof">pause</property>
  <property name="kdenlive:original.resource">content/musicians/2021-02-06_20-38-42_Chris_piano+synth_mac_C0019-take2_from_piano.MP4</property>
  <property name="kdenlive:original.meta.media.nb_streams">1</property>
  <property name="kdenlive:original.meta.media.0.stream.type">video</property>
  <property name="kdenlive:original.meta.media.0.stream.frame_rate">29.97</property>
  <property name="kdenlive:original.meta.media.0.stream.sample_aspect_ratio">1</property>
  <property name="kdenlive:original.meta.media.0.codec.width">1920</property>
  <property name="kdenlive:original.meta.media.0.codec.height">1080</property>
  <property name="kdenlive:original.meta.media.0.codec.rotate">0</property>
  <property name="kdenlive:original.meta.media.0.codec.frame_rate">29.97</property>
  <property name="kdenlive:original.meta.media.0.codec.pix_fmt">yuv420p</property>
  <property name="kdenlive:original.meta.media.0.codec.sample_aspect_ratio">1</property>
  <property name="kdenlive:original.meta.media.0.codec.colorspace">709</property>
  <property name="kdenlive:original.meta.media.0.codec.color_trc">1</property>
  <property name="kdenlive:original.meta.media.0.codec.name">h264</property>
  <property name="kdenlive:original.meta.media.0.codec.long_name">H.264 / AVC / MPEG-4 AVC / MPEG-4 part 10</property>
  <property name="kdenlive:original.meta.media.0.codec.bit_rate">49532178</property>
  <property name="kdenlive:original.meta.attr.0.stream.creation_time.markup">2021-06-03T20:38:42.000000Z</property>
  <property name="kdenlive:original.meta.attr.0.stream.handler_name.markup">Video Media Handler</property>
  <property name="kdenlive:original.meta.attr.major_brand.markup">isom</property>
  <property name="kdenlive:original.meta.attr.minor_version.markup">512</property>
  <property name="kdenlive:original.meta.attr.compatible_brands.markup">isomiso2avc1mp41</property>
  <property name="kdenlive:original.meta.attr.creation_time.markup">2021-06-03T20:38:42.000000Z</property>
  <property name="kdenlive:original.meta.attr.encoder.markup">Lavf58.45.100</property>
  <property name="kdenlive:original.seekable">1</property>
  <property name="kdenlive:original.width">1920</property>
  <property name="kdenlive:original.height">1080</property>
  <property name="kdenlive:original.meta.media.sample_aspect_num">1</property>
  <property name="kdenlive:original.meta.media.sample_aspect_den">1</property>
  <property name="kdenlive:original.aspect_ratio">1</property>
  <property name="kdenlive:original.audio_index">-1</property>
  <property name="kdenlive:original.video_index">0</property>
  <property name="kdenlive:original.mute_on_pause">0</property>
  <property name="kdenlive:original.mlt_service">avformat-novalidate</property>
  <property name="kdenlive:original.kdenlive:folderid">65</property>
  <property name="kdenlive:original.meta.media.frame_rate_num">30000</property>
  <property name="kdenlive:original.meta.media.frame_rate_den">1001</property>
  <property name="kdenlive:original.meta.media.colorspace">709</property>
  <property name="kdenlive:original.meta.media.color_trc">1</property>
  <property name="kdenlive:original.meta.media.width">1920</property>
  <property name="kdenlive:original.meta.media.height">1080</property>
  <property name="kdenlive:original.meta.media.color_range">mpeg</property>
  <property name="kdenlive:original.kdenlive:id">83</property>
  <property name="kdenlive:original.kdenlive:file_size">2001558594</property>
  <property name="kdenlive:original.kdenlive:file_hash">0faef12e907a35baf806ffc6266e88e3</property>
  <property name="kdenlive:original.backup">1</property>
  <property name="global_feed">1</property>
  <property name="kdenlive:activeeffect">2</property>
  <property name="xml">was here</property>
  <property name="meta.media.nb_streams">1</property>
  <property name="meta.media.0.stream.type">video</property>
  <property name="meta.media.0.stream.frame_rate">29.97</property>
  <property name="meta.media.0.stream.sample_aspect_ratio">1</property>
  <property name="meta.media.0.codec.width">960</property>
  <property name="meta.media.0.codec.height">540</property>
  <property name="meta.media.0.codec.rotate">0</property>
  <property name="meta.media.0.codec.frame_rate">1000</property>
  <property name="meta.media.0.codec.pix_fmt">yuvj420p</property>
  <property name="meta.media.0.codec.sample_aspect_ratio">1</property>
  <property name="meta.media.0.codec.colorspace">601</property>
  <property name="meta.media.0.codec.name">mjpeg</property>
  <property name="meta.media.0.codec.long_name">MJPEG (Motion JPEG)</property>
  <property name="meta.media.0.codec.bit_rate">0</property>
  <property name="meta.attr.0.stream.HANDLER_NAME.markup">Video Media Handler</property>
  <property name="meta.attr.0.stream.ENCODER.markup">Lavc58.91.100 mjpeg</property>
  <property name="meta.attr.0.stream.DURATION.markup">00:05:23.256000000</property>
  <property name="meta.attr.COMPATIBLE_BRANDS.markup">isomiso2avc1mp41</property>
  <property name="meta.attr.MAJOR_BRAND.markup">isom</property>
  <property name="meta.attr.MINOR_VERSION.markup">512</property>
  <property name="meta.attr.ENCODER.markup">Lavf58.45.100</property>
  <property name="meta.media.sample_aspect_num">1</property>
  <property name="meta.media.sample_aspect_den">1</property>
  <property name="meta.media.frame_rate_num">30000</property>
  <property name="meta.media.frame_rate_den">1001</property>
  <property name="meta.media.colorspace">601</property>
  <property name="meta.media.color_trc">2</property>
  <property name="meta.media.width">960</property>
  <property name="meta.media.height">540</property>
  <property name="meta.media.color_range">full</property>
  <property name="meta.media.top_field_first">0</property>
  <property name="meta.media.progressive">1</property>
  <property name="set.test_audio">1</property>
  <property name="set.test_image">0</property>
 </producer>
 <producer id="producer267" in="00:00:00.000" out="00:05:23.233">
  <property name="length">9698</property>
  <property name="eof">pause</property>
  <property name="resource">/home/ryankelln/.cache/kdenlive/proxy/0faef12e907a35baf806ffc6266e88e3.mkv</property>
  <property name="audio_index">-1</property>
  <property name="video_index">0</property>
  <property name="mute_on_pause">0</property>
  <property name="mlt_service">avformat-novalidate</property>
  <property name="seekable">1</property>
  <property name="aspect_ratio">1</property>
  <property name="kdenlive:clipname">2021-02-06_20-38-42_Chris_piano+synth_mac_C0019-take2_from_piano.MP4</property>
  <property name="kdenlive:folderid">65</property>
  <property name="kdenlive:id">49</property>
  <property name="kdenlive:file_size">2001558594</property>
  <property name="kdenlive:file_hash">0faef12e907a35baf806ffc6266e88e3</property>
  <property name="kdenlive:proxy">/home/ryankelln/.cache/kdenlive/proxy/0faef12e907a35baf806ffc6266e88e3.mkv</property>
  <property name="kdenlive:originalurl">content/musicians/2021-02-06_20-38-42_Chris_piano+synth_mac_C0019-take2_from_piano.MP4</property>
  <property name="kdenlive:original.mlt_type">producer</property>
  <property name="kdenlive:original.in">0</property>
  <property name="kdenlive:original.out">9697</property>
  <property name="kdenlive:original.length">9698</property>
  <property name="kdenlive:original.eof">pause</property>
  <property name="kdenlive:original.resource">content/musicians/2021-02-06_20-38-42_Chris_piano+synth_mac_C0019-take2_from_piano.MP4</property>
  <property name="kdenlive:original.meta.media.nb_streams">1</property>
  <property name="kdenlive:original.meta.media.0.stream.type">video</property>
  <property name="kdenlive:original.meta.media.0.stream.frame_rate">29.97</property>
  <property name="kdenlive:original.meta.media.0.stream.sample_aspect_ratio">1</property>
  <property name="kdenlive:original.meta.media.0.codec.width">1920</property>
  <property name="kdenlive:original.meta.media.0.codec.height">1080</property>
  <property name="kdenlive:original.meta.media.0.codec.rotate">0</property>
  <property name="kdenlive:original.meta.media.0.codec.frame_rate">29.97</property>
  <property name="kdenlive:original.meta.media.0.codec.pix_fmt">yuv420p</property>
  <property name="kdenlive:original.meta.media.0.codec.sample_aspect_ratio">1</property>
  <property name="kdenlive:original.meta.media.0.codec.colorspace">709</property>
  <property name="kdenlive:original.meta.media.0.codec.color_trc">1</property>
  <property name="kdenlive:original.meta.media.0.codec.name">h264</property>
  <property name="kdenlive:original.meta.media.0.codec.long_name">H.264 / AVC / MPEG-4 AVC / MPEG-4 part 10</property>
  <property name="kdenlive:original.meta.media.0.codec.bit_rate">49532178</property>
  <property name="kdenlive:original.meta.attr.0.stream.creation_time.markup">2021-06-03T20:38:42.000000Z</property>
  <property name="kdenlive:original.meta.attr.0.stream.handler_name.markup">Video Media Handler</property>
  <property name="kdenlive:original.meta.attr.major_brand.markup">isom</property>
  <property name="kdenlive:original.meta.attr.minor_version.markup">512</property>
  <property name="kdenlive:original.meta.attr.compatible_brands.markup">isomiso2avc1mp41</property>
  <property name="kdenlive:original.meta.attr.creation_time.markup">2021-06-03T20:38:42.000000Z</property>
  <property name="kdenlive:original.meta.attr.encoder.markup">Lavf58.45.100</property>
  <property name="kdenlive:original.seekable">1</property>
  <property name="kdenlive:original.width">1920</property>
  <property name="kdenlive:original.height">1080</property>
  <property name="kdenlive:original.meta.media.sample_aspect_num">1</property>
  <property name="kdenlive:original.meta.media.sample_aspect_den">1</property>
  <property name="kdenlive:original.aspect_ratio">1</property>
  <property name="kdenlive:original.audio_index">-1</property>
  <property name="kdenlive:original.video_index">0</property>
  <property name="kdenlive:original.mute_on_pause">0</property>
  <property name="kdenlive:original.mlt_service">avformat-novalidate</property>
  <property name="kdenlive:original.kdenlive:folderid">65</property>
  <property name="kdenlive:original.meta.media.frame_rate_num">30000</property>
  <property name="kdenlive:original.meta.media.frame_rate_den">1001</property>
  <property name="kdenlive:original.meta.media.colorspace">709</property>
  <property name="kdenlive:original.meta.media.color_trc">1</property>
  <property name="kdenlive:original.meta.media.width">1920</property>
  <property name="kdenlive:original.meta.media.height">1080</property>
  <property name="kdenlive:original.meta.media.color_range">mpeg</property>
  <property name="kdenlive:original.kdenlive:id">83</property>
  <property name="kdenlive:original.kdenlive:file_size">2001558594</property>
  <property name="kdenlive:original.kdenlive:file_hash">0faef12e907a35baf806ffc6266e88e3</property>
  <property name="kdenlive:original.backup">1</property>
  <property name="global_feed">1</property>
  <property name="kdenlive:activeeffect">2</property>
  <property name="xml">was here</property>
  <property name="meta.media.nb_streams">1</property>
  <property name="meta.media.0.stream.type">video</property>
  <property name="meta.media.0.stream.frame_rate">29.97</property>
  <property name="meta.media.0.stream.sample_aspect_ratio">1</property>
  <property name="meta.media.0.codec.width">960</property>
  <property name="meta.media.0.codec.height">540</property>
  <property name="meta.media.0.codec.rotate">0</property>
  <property name="meta.media.0.codec.frame_rate">1000</property>
  <property name="meta.media.0.codec.pix_fmt">yuvj420p</property>
  <property name="meta.media.0.codec.sample_aspect_ratio">1</property>
  <property name="meta.media.0.codec.colorspace">601</property>
  <property name="meta.media.0.codec.name">mjpeg</property>
  <property name="meta.media.0.codec.long_name">MJPEG (Motion JPEG)</property>
  <property name="meta.media.0.codec.bit_rate">0</property>
  <property name="meta.attr.0.stream.HANDLER_NAME.markup">Video Media Handler</property>
  <property name="meta.attr.0.stream.ENCODER.markup">Lavc58.91.100 mjpeg</property>
  <property name="meta.attr.0.stream.DURATION.markup">00:05:23.256000000</property>
  <property name="meta.attr.COMPATIBLE_BRANDS.markup">isomiso2avc1mp41</property>
  <property name="meta.attr.MAJOR_BRAND.markup">isom</property>
  <property name="meta.attr.MINOR_VERSION.markup">512</property>
  <property name="meta.attr.ENCODER.markup">Lavf58.45.100</property>
  <property name="meta.media.sample_aspect_num">1</property>
  <property name="meta.media.sample_aspect_den">1</property>
  <property name="meta.media.frame_rate_num">30000</property>
  <property name="meta.media.frame_rate_den">1001</property>
  <property name="meta.media.colorspace">601</property>
  <property name="meta.media.color_trc">2</property>
  <property name="meta.media.width">960</property>
  <property name="meta.media.height">540</property>
  <property name="meta.media.color_range">full</property>
  <property name="meta.media.top_field_first">0</property>
  <property name="meta.media.progressive">1</property>
  <property name="set.test_audio">1</property>
  <property name="set.test_image">0</property>
 </producer>
 <producer id="producer268" in="00:00:00.000" out="00:05:23.233">
  <property name="length">9698</property>
  <property name="eof">pause</property>
  <property name="resource">/home/ryankelln/.cache/kdenlive/proxy/0faef12e907a35baf806ffc6266e88e3.mkv</property>
  <property name="audio_index">-1</property>
  <property name="video_index">0</property>
  <property name="mute_on_pause">0</property>
  <property name="mlt_service">avformat-novalidate</property>
  <property name="seekable">1</property>
  <property name="aspect_ratio">1</property>
  <property name="kdenlive:clipname">2021-02-06_20-38-42_Chris_piano+synth_mac_C0019-take2_from_piano.MP4</property>
  <property name="kdenlive:folderid">65</property>
  <property name="kdenlive:id">49</property>
  <property name="kdenlive:file_size">2001558594</property>
  <property name="kdenlive:file_hash">0faef12e907a35baf806ffc6266e88e3</property>
  <property name="kdenlive:proxy">/home/ryankelln/.cache/kdenlive/proxy/0faef12e907a35baf806ffc6266e88e3.mkv</property>
  <property name="kdenlive:originalurl">content/musicians/2021-02-06_20-38-42_Chris_piano+synth_mac_C0019-take2_from_piano.MP4</property>
  <property name="kdenlive:original.mlt_type">producer</property>
  <property name="kdenlive:original.in">0</property>
  <property name="kdenlive:original.out">9697</property>
  <property name="kdenlive:original.length">9698</property>
  <property name="kdenlive:original.eof">pause</property>
  <property name="kdenlive:original.resource">content/musicians/2021-02-06_20-38-42_Chris_piano+synth_mac_C0019-take2_from_piano.MP4</property>
  <property name="kdenlive:original.meta.media.nb_streams">1</property>
  <property name="kdenlive:original.meta.media.0.stream.type">video</property>
  <property name="kdenlive:original.meta.media.0.stream.frame_rate">29.97</property>
  <property name="kdenlive:original.meta.media.0.stream.sample_aspect_ratio">1</property>
  <property name="kdenlive:original.meta.media.0.codec.width">1920</property>
  <property name="kdenlive:original.meta.media.0.codec.height">1080</property>
  <property name="kdenlive:original.meta.media.0.codec.rotate">0</property>
  <property name="kdenlive:original.meta.media.0.codec.frame_rate">29.97</property>
  <property name="kdenlive:original.meta.media.0.codec.pix_fmt">yuv420p</property>
  <property name="kdenlive:original.meta.media.0.codec.sample_aspect_ratio">1</property>
  <property name="kdenlive:original.meta.media.0.codec.colorspace">709</property>
  <property name="kdenlive:original.meta.media.0.codec.color_trc">1</property>
  <property name="kdenlive:original.meta.media.0.codec.name">h264</property>
  <property name="kdenlive:original.meta.media.0.codec.long_name">H.264 / AVC / MPEG-4 AVC / MPEG-4 part 10</property>
  <property name="kdenlive:original.meta.media.0.codec.bit_rate">49532178</property>
  <property name="kdenlive:original.meta.attr.0.stream.creation_time.markup">2021-06-03T20:38:42.000000Z</property>
  <property name="kdenlive:original.meta.attr.0.stream.handler_name.markup">Video Media Handler</property>
  <property name="kdenlive:original.meta.attr.major_brand.markup">isom</property>
  <property name="kdenlive:original.meta.attr.minor_version.markup">512</property>
  <property name="kdenlive:original.meta.attr.compatible_brands.markup">isomiso2avc1mp41</property>
  <property name="kdenlive:original.meta.attr.creation_time.markup">2021-06-03T20:38:42.000000Z</property>
  <property name="kdenlive:original.meta.attr.encoder.markup">Lavf58.45.100</property>
  <property name="kdenlive:original.seekable">1</property>
  <property name="kdenlive:original.width">1920</property>
  <property name="kdenlive:original.height">1080</property>
  <property name="kdenlive:original.meta.media.sample_aspect_num">1</property>
  <property name="kdenlive:original.meta.media.sample_aspect_den">1</property>
  <property name="kdenlive:original.aspect_ratio">1</property>
  <property name="kdenlive:original.audio_index">-1</property>
  <property name="kdenlive:original.video_index">0</property>
  <property name="kdenlive:original.mute_on_pause">0</property>
  <property name="kdenlive:original.mlt_service">avformat-novalidate</property>
  <property name="kdenlive:original.kdenlive:folderid">65</property>
  <property name="kdenlive:original.meta.media.frame_rate_num">30000</property>
  <property name="kdenlive:original.meta.media.frame_rate_den">1001</property>
  <property name="kdenlive:original.meta.media.colorspace">709</property>
  <property name="kdenlive:original.meta.media.color_trc">1</property>
  <property name="kdenlive:original.meta.media.width">1920</property>
  <property name="kdenlive:original.meta.media.height">1080</property>
  <property name="kdenlive:original.meta.media.color_range">mpeg</property>
  <property name="kdenlive:original.kdenlive:id">83</property>
  <property name="kdenlive:original.kdenlive:file_size">2001558594</property>
  <property name="kdenlive:original.kdenlive:file_hash">0faef12e907a35baf806ffc6266e88e3</property>
  <property name="kdenlive:original.backup">1</property>
  <property name="global_feed">1</property>
  <property name="kdenlive:activeeffect">2</property>
  <property name="xml">was here</property>
  <property name="meta.media.nb_streams">1</property>
  <property name="meta.media.0.stream.type">video</property>
  <property name="meta.media.0.stream.frame_rate">29.97</property>
  <property name="meta.media.0.stream.sample_aspect_ratio">1</property>
  <property name="meta.media.0.codec.width">960</property>
  <property name="meta.media.0.codec.height">540</property>
  <property name="meta.media.0.codec.rotate">0</property>
  <property name="meta.media.0.codec.frame_rate">1000</property>
  <property name="meta.media.0.codec.pix_fmt">yuvj420p</property>
  <property name="meta.media.0.codec.sample_aspect_ratio">1</property>
  <property name="meta.media.0.codec.colorspace">601</property>
  <property name="meta.media.0.codec.name">mjpeg</property>
  <property name="meta.media.0.codec.long_name">MJPEG (Motion JPEG)</property>
  <property name="meta.media.0.codec.bit_rate">0</property>
  <property name="meta.attr.0.stream.HANDLER_NAME.markup">Video Media Handler</property>
  <property name="meta.attr.0.stream.ENCODER.markup">Lavc58.91.100 mjpeg</property>
  <property name="meta.attr.0.stream.DURATION.markup">00:05:23.256000000</property>
  <property name="meta.attr.COMPATIBLE_BRANDS.markup">isomiso2avc1mp41</property>
  <property name="meta.attr.MAJOR_BRAND.markup">isom</property>
  <property name="meta.attr.MINOR_VERSION.markup">512</property>
  <property name="meta.attr.ENCODER.markup">Lavf58.45.100</property>
  <property name="meta.media.sample_aspect_num">1</property>
  <property name="meta.media.sample_aspect_den">1</property>
  <property name="meta.media.frame_rate_num">30000</property>
  <property name="meta.media.frame_rate_den">1001</property>
  <property name="meta.media.colorspace">601</property>
  <property name="meta.media.color_trc">2</property>
  <property name="meta.media.width">960</property>
  <property name="meta.media.height">540</property>
  <property name="meta.media.color_range">full</property>
  <property name="meta.media.top_field_first">0</property>
  <property name="meta.media.progressive">1</property>
  <property name="set.test_audio">1</property>
  <property name="set.test_image">0</property>
 </producer>
 <producer id="producer269" in="00:00:00.000" out="00:05:23.233">
  <property name="length">9698</property>
  <property name="eof">pause</property>
  <property name="resource">/home/ryankelln/.cache/kdenlive/proxy/0faef12e907a35baf806ffc6266e88e3.mkv</property>
  <property name="audio_index">-1</property>
  <property name="video_index">0</property>
  <property name="mute_on_pause">0</property>
  <property name="mlt_service">avformat-novalidate</property>
  <property name="seekable">1</property>
  <property name="aspect_ratio">1</property>
  <property name="kdenlive:clipname">2021-02-06_20-38-42_Chris_piano+synth_mac_C0019-take2_from_piano.MP4</property>
  <property name="kdenlive:folderid">65</property>
  <property name="kdenlive:id">49</property>
  <property name="kdenlive:file_size">2001558594</property>
  <property name="kdenlive:file_hash">0faef12e907a35baf806ffc6266e88e3</property>
  <property name="kdenlive:proxy">/home/ryankelln/.cache/kdenlive/proxy/0faef12e907a35baf806ffc6266e88e3.mkv</property>
  <property name="kdenlive:originalurl">content/musicians/2021-02-06_20-38-42_Chris_piano+synth_mac_C0019-take2_from_piano.MP4</property>
  <property name="kdenlive:original.mlt_type">producer</property>
  <property name="kdenlive:original.in">0</property>
  <property name="kdenlive:original.out">9697</property>
  <property name="kdenlive:original.length">9698</property>
  <property name="kdenlive:original.eof">pause</property>
  <property name="kdenlive:original.resource">content/musicians/2021-02-06_20-38-42_Chris_piano+synth_mac_C0019-take2_from_piano.MP4</property>
  <property name="kdenlive:original.meta.media.nb_streams">1</property>
  <property name="kdenlive:original.meta.media.0.stream.type">video</property>
  <property name="kdenlive:original.meta.media.0.stream.frame_rate">29.97</property>
  <property name="kdenlive:original.meta.media.0.stream.sample_aspect_ratio">1</property>
  <property name="kdenlive:original.meta.media.0.codec.width">1920</property>
  <property name="kdenlive:original.meta.media.0.codec.height">1080</property>
  <property name="kdenlive:original.meta.media.0.codec.rotate">0</property>
  <property name="kdenlive:original.meta.media.0.codec.frame_rate">29.97</property>
  <property name="kdenlive:original.meta.media.0.codec.pix_fmt">yuv420p</property>
  <property name="kdenlive:original.meta.media.0.codec.sample_aspect_ratio">1</property>
  <property name="kdenlive:original.meta.media.0.codec.colorspace">709</property>
  <property name="kdenlive:original.meta.media.0.codec.color_trc">1</property>
  <property name="kdenlive:original.meta.media.0.codec.name">h264</property>
  <property name="kdenlive:original.meta.media.0.codec.long_name">H.264 / AVC / MPEG-4 AVC / MPEG-4 part 10</property>
  <property name="kdenlive:original.meta.media.0.codec.bit_rate">49532178</property>
  <property name="kdenlive:original.meta.attr.0.stream.creation_time.markup">2021-06-03T20:38:42.000000Z</property>
  <property name="kdenlive:original.meta.attr.0.stream.handler_name.markup">Video Media Handler</property>
  <property name="kdenlive:original.meta.attr.major_brand.markup">isom</property>
  <property name="kdenlive:original.meta.attr.minor_version.markup">512</property>
  <property name="kdenlive:original.meta.attr.compatible_brands.markup">isomiso2avc1mp41</property>
  <property name="kdenlive:original.meta.attr.creation_time.markup">2021-06-03T20:38:42.000000Z</property>
  <property name="kdenlive:original.meta.attr.encoder.markup">Lavf58.45.100</property>
  <property name="kdenlive:original.seekable">1</property>
  <property name="kdenlive:original.width">1920</property>
  <property name="kdenlive:original.height">1080</property>
  <property name="kdenlive:original.meta.media.sample_aspect_num">1</property>
  <property name="kdenlive:original.meta.media.sample_aspect_den">1</property>
  <property name="kdenlive:original.aspect_ratio">1</property>
  <property name="kdenlive:original.audio_index">-1</property>
  <property name="kdenlive:original.video_index">0</property>
  <property name="kdenlive:original.mute_on_pause">0</property>
  <property name="kdenlive:original.mlt_service">avformat-novalidate</property>
  <property name="kdenlive:original.kdenlive:folderid">65</property>
  <property name="kdenlive:original.meta.media.frame_rate_num">30000</property>
  <property name="kdenlive:original.meta.media.frame_rate_den">1001</property>
  <property name="kdenlive:original.meta.media.colorspace">709</property>
  <property name="kdenlive:original.meta.media.color_trc">1</property>
  <property name="kdenlive:original.meta.media.width">1920</property>
  <property name="kdenlive:original.meta.media.height">1080</property>
  <property name="kdenlive:original.meta.media.color_range">mpeg</property>
  <property name="kdenlive:original.kdenlive:id">83</property>
  <property name="kdenlive:original.kdenlive:file_size">2001558594</property>
  <property name="kdenlive:original.kdenlive:file_hash">0faef12e907a35baf806ffc6266e88e3</property>
  <property name="kdenlive:original.backup">1</property>
  <property name="global_feed">1</property>
  <property name="kdenlive:activeeffect">2</property>
  <property name="xml">was here</property>
  <property name="meta.media.nb_streams">1</property>
  <property name="meta.media.0.stream.type">video</property>
  <property name="meta.media.0.stream.frame_rate">29.97</property>
  <property name="meta.media.0.stream.sample_aspect_ratio">1</property>
  <property name="meta.media.0.codec.width">960</property>
  <property name="meta.media.0.codec.height">540</property>
  <property name="meta.media.0.codec.rotate">0</property>
  <property name="meta.media.0.codec.frame_rate">1000</property>
  <property name="meta.media.0.codec.pix_fmt">yuvj420p</property>
  <property name="meta.media.0.codec.sample_aspect_ratio">1</property>
  <property name="meta.media.0.codec.colorspace">601</property>
  <property name="meta.media.0.codec.name">mjpeg</property>
  <property name="meta.media.0.codec.long_name">MJPEG (Motion JPEG)</property>
  <property name="meta.media.0.codec.bit_rate">0</property>
  <property name="meta.attr.0.stream.HANDLER_NAME.markup">Video Media Handler</property>
  <property name="meta.attr.0.stream.ENCODER.markup">Lavc58.91.100 mjpeg</property>
  <property name="meta.attr.0.stream.DURATION.markup">00:05:23.256000000</property>
  <property name="meta.attr.COMPATIBLE_BRANDS.markup">isomiso2avc1mp41</property>
  <property name="meta.attr.MAJOR_BRAND.markup">isom</property>
  <property name="meta.attr.MINOR_VERSION.markup">512</property>
  <property name="meta.attr.ENCODER.markup">Lavf58.45.100</property>
  <property name="meta.media.sample_aspect_num">1</property>
  <property name="meta.media.sample_aspect_den">1</property>
  <property name="meta.media.frame_rate_num">30000</property>
  <property name="meta.media.frame_rate_den">1001</property>
  <property name="meta.media.colorspace">601</property>
  <property name="meta.media.color_trc">2</property>
  <property name="meta.media.width">960</property>
  <property name="meta.media.height">540</property>
  <property name="meta.media.color_range">full</property>
  <property name="meta.media.top_field_first">0</property>
  <property name="meta.media.progressive">1</property>
  <property name="set.test_audio">1</property>
  <property name="set.test_image">0</property>
 </producer>
 <producer id="producer270" in="00:00:00.000" out="00:05:23.233">
  <property name="length">9698</property>
  <property name="eof">pause</property>
  <property name="resource">/home/ryankelln/.cache/kdenlive/proxy/0faef12e907a35baf806ffc6266e88e3.mkv</property>
  <property name="audio_index">-1</property>
  <property name="video_index">0</property>
  <property name="mute_on_pause">0</property>
  <property name="mlt_service">avformat-novalidate</property>
  <property name="seekable">1</property>
  <property name="aspect_ratio">1</property>
  <property name="kdenlive:clipname">2021-02-06_20-38-42_Chris_piano+synth_mac_C0019-take2_from_piano.MP4</property>
  <property name="kdenlive:folderid">65</property>
  <property name="kdenlive:id">49</property>
  <property name="kdenlive:file_size">2001558594</property>
  <property name="kdenlive:file_hash">0faef12e907a35baf806ffc6266e88e3</property>
  <property name="kdenlive:proxy">/home/ryankelln/.cache/kdenlive/proxy/0faef12e907a35baf806ffc6266e88e3.mkv</property>
  <property name="kdenlive:originalurl">content/musicians/2021-02-06_20-38-42_Chris_piano+synth_mac_C0019-take2_from_piano.MP4</property>
  <property name="kdenlive:original.mlt_type">producer</property>
  <property name="kdenlive:original.in">0</property>
  <property name="kdenlive:original.out">9697</property>
  <property name="kdenlive:original.length">9698</property>
  <property name="kdenlive:original.eof">pause</property>
  <property name="kdenlive:original.resource">content/musicians/2021-02-06_20-38-42_Chris_piano+synth_mac_C0019-take2_from_piano.MP4</property>
  <property name="kdenlive:original.meta.media.nb_streams">1</property>
  <property name="kdenlive:original.meta.media.0.stream.type">video</property>
  <property name="kdenlive:original.meta.media.0.stream.frame_rate">29.97</property>
  <property name="kdenlive:original.meta.media.0.stream.sample_aspect_ratio">1</property>
  <property name="kdenlive:original.meta.media.0.codec.width">1920</property>
  <property name="kdenlive:original.meta.media.0.codec.height">1080</property>
  <property name="kdenlive:original.meta.media.0.codec.rotate">0</property>
  <property name="kdenlive:original.meta.media.0.codec.frame_rate">29.97</property>
  <property name="kdenlive:original.meta.media.0.codec.pix_fmt">yuv420p</property>
  <property name="kdenlive:original.meta.media.0.codec.sample_aspect_ratio">1</property>
  <property name="kdenlive:original.meta.media.0.codec.colorspace">709</property>
  <property name="kdenlive:original.meta.media.0.codec.color_trc">1</property>
  <property name="kdenlive:original.meta.media.0.codec.name">h264</property>
  <property name="kdenlive:original.meta.media.0.codec.long_name">H.264 / AVC / MPEG-4 AVC / MPEG-4 part 10</property>
  <property name="kdenlive:original.meta.media.0.codec.bit_rate">49532178</property>
  <property name="kdenlive:original.meta.attr.0.stream.creation_time.markup">2021-06-03T20:38:42.000000Z</property>
  <property name="kdenlive:original.meta.attr.0.stream.handler_name.markup">Video Media Handler</property>
  <property name="kdenlive:original.meta.attr.major_brand.markup">isom</property>
  <property name="kdenlive:original.meta.attr.minor_version.markup">512</property>
  <property name="kdenlive:original.meta.attr.compatible_brands.markup">isomiso2avc1mp41</property>
  <property name="kdenlive:original.meta.attr.creation_time.markup">2021-06-03T20:38:42.000000Z</property>
  <property name="kdenlive:original.meta.attr.encoder.markup">Lavf58.45.100</property>
  <property name="kdenlive:original.seekable">1</property>
  <property name="kdenlive:original.width">1920</property>
  <property name="kdenlive:original.height">1080</property>
  <property name="kdenlive:original.meta.media.sample_aspect_num">1</property>
  <property name="kdenlive:original.meta.media.sample_aspect_den">1</property>
  <property name="kdenlive:original.aspect_ratio">1</property>
  <property name="kdenlive:original.audio_index">-1</property>
  <property name="kdenlive:original.video_index">0</property>
  <property name="kdenlive:original.mute_on_pause">0</property>
  <property name="kdenlive:original.mlt_service">avformat-novalidate</property>
  <property name="kdenlive:original.kdenlive:folderid">65</property>
  <property name="kdenlive:original.meta.media.frame_rate_num">30000</property>
  <property name="kdenlive:original.meta.media.frame_rate_den">1001</property>
  <property name="kdenlive:original.meta.media.colorspace">709</property>
  <property name="kdenlive:original.meta.media.color_trc">1</property>
  <property name="kdenlive:original.meta.media.width">1920</property>
  <property name="kdenlive:original.meta.media.height">1080</property>
  <property name="kdenlive:original.meta.media.color_range">mpeg</property>
  <property name="kdenlive:original.kdenlive:id">83</property>
  <property name="kdenlive:original.kdenlive:file_size">2001558594</property>
  <property name="kdenlive:original.kdenlive:file_hash">0faef12e907a35baf806ffc6266e88e3</property>
  <property name="kdenlive:original.backup">1</property>
  <property name="global_feed">1</property>
  <property name="kdenlive:activeeffect">2</property>
  <property name="xml">was here</property>
  <property name="meta.media.nb_streams">1</property>
  <property name="meta.media.0.stream.type">video</property>
  <property name="meta.media.0.stream.frame_rate">29.97</property>
  <property name="meta.media.0.stream.sample_aspect_ratio">1</property>
  <property name="meta.media.0.codec.width">960</property>
  <property name="meta.media.0.codec.height">540</property>
  <property name="meta.media.0.codec.rotate">0</property>
  <property name="meta.media.0.codec.frame_rate">1000</property>
  <property name="meta.media.0.codec.pix_fmt">yuvj420p</property>
  <property name="meta.media.0.codec.sample_aspect_ratio">1</property>
  <property name="meta.media.0.codec.colorspace">601</property>
  <property name="meta.media.0.codec.name">mjpeg</property>
  <property name="meta.media.0.codec.long_name">MJPEG (Motion JPEG)</property>
  <property name="meta.media.0.codec.bit_rate">0</property>
  <property name="meta.attr.0.stream.HANDLER_NAME.markup">Video Media Handler</property>
  <property name="meta.attr.0.stream.ENCODER.markup">Lavc58.91.100 mjpeg</property>
  <property name="meta.attr.0.stream.DURATION.markup">00:05:23.256000000</property>
  <property name="meta.attr.COMPATIBLE_BRANDS.markup">isomiso2avc1mp41</property>
  <property name="meta.attr.MAJOR_BRAND.markup">isom</property>
  <property name="meta.attr.MINOR_VERSION.markup">512</property>
  <property name="meta.attr.ENCODER.markup">Lavf58.45.100</property>
  <property name="meta.media.sample_aspect_num">1</property>
  <property name="meta.media.sample_aspect_den">1</property>
  <property name="meta.media.frame_rate_num">30000</property>
  <property name="meta.media.frame_rate_den">1001</property>
  <property name="meta.media.colorspace">601</property>
  <property name="meta.media.color_trc">2</property>
  <property name="meta.media.width">960</property>
  <property name="meta.media.height">540</property>
  <property name="meta.media.color_range">full</property>
  <property name="meta.media.top_field_first">0</property>
  <property name="meta.media.progressive">1</property>
  <property name="set.test_audio">1</property>
  <property name="set.test_image">0</property>
  <filter id="filter286">
   <property name="version">0.1</property>
   <property name="mlt_service">frei0r.hqdn3d</property>
   <property name="kdenlive_id">frei0r.hqdn3d</property>
   <property name="Spatial">00:00:00.000=0.01</property>
   <property name="Temporal">00:00:00.000=0.01</property>
  </filter>
  <filter id="filter287">
   <property name="version">0.6</property>
   <property name="mlt_service">frei0r.select0r</property>
   <property name="kdenlive_id">frei0r.select0r</property>
   <property name="Color to select">0x5ca56cff</property>
   <property name="Invert selection">1</property>
   <property name="Selection subspace">1</property>
   <property name="Subspace shape">0</property>
   <property name="Edge mode">0.9</property>
   <property name="Delta R / A / Hue">00:00:00.000=0.138</property>
   <property name="Delta G / B / Chroma">00:00:00.000=0.145</property>
   <property name="Delta B / I / I">00:00:00.000=0.333</property>
   <property name="Slope">00:00:00.000=0.081</property>
   <property name="Operation">0.5</property>
  </filter>
  <filter id="filter288">
   <property name="mlt_service">avfilter.despill</property>
   <property name="kdenlive_id">avfilter.despill</property>
   <property name="av.type">green</property>
   <property name="av.mix">0.106</property>
   <property name="av.expand">0.051</property>
   <property name="av.red">0</property>
   <property name="av.green">-0.7</property>
   <property name="av.blue">-0.6</property>
   <property name="av.brightness">0</property>
  </filter>
 </producer>
 <producer id="producer271" in="00:00:00.000" out="00:01:48.700">
  <property name="length">3262</property>
  <property name="eof">pause</property>
  <property name="resource">/home/ryankelln/.cache/kdenlive/proxy/2fc7ab3ea57f441ef5b5135081c42383.mkv</property>
  <property name="audio_index">1</property>
  <property name="video_index">0</property>
  <property name="mute_on_pause">0</property>
  <property name="mlt_service">avformat-novalidate</property>
  <property name="seekable">1</property>
  <property name="aspect_ratio">1</property>
  <property name="kdenlive:clipname">2021-06-02_Caleb_electric+4k_mac_P1000550-take3_ending.MP4</property>
  <property name="kdenlive:folderid">65</property>
  <property name="kdenlive:id">47</property>
  <property name="kdenlive:file_size">1304588902</property>
  <property name="kdenlive:file_hash">2fc7ab3ea57f441ef5b5135081c42383</property>
  <property name="kdenlive:proxy">/home/ryankelln/.cache/kdenlive/proxy/2fc7ab3ea57f441ef5b5135081c42383.mkv</property>
  <property name="kdenlive:originalurl">content/musicians/2021-06-02_Caleb_electric+4k_mac_P1000550-take3_ending.MP4</property>
  <property name="kdenlive:original.mlt_type">producer</property>
  <property name="kdenlive:original.in">0</property>
  <property name="kdenlive:original.out">3261</property>
  <property name="kdenlive:original.length">3262</property>
  <property name="kdenlive:original.eof">pause</property>
  <property name="kdenlive:original.resource">content/musicians/2021-06-02_Caleb_electric+4k_mac_P1000550-take3_ending.MP4</property>
  <property name="kdenlive:original.meta.media.nb_streams">2</property>
  <property name="kdenlive:original.meta.media.0.stream.type">video</property>
  <property name="kdenlive:original.meta.media.0.stream.frame_rate">29.97</property>
  <property name="kdenlive:original.meta.media.0.stream.sample_aspect_ratio">1</property>
  <property name="kdenlive:original.meta.media.0.codec.width">3328</property>
  <property name="kdenlive:original.meta.media.0.codec.height">2496</property>
  <property name="kdenlive:original.meta.media.0.codec.rotate">0</property>
  <property name="kdenlive:original.meta.media.0.codec.frame_rate">29.97</property>
  <property name="kdenlive:original.meta.media.0.codec.pix_fmt">yuvj420p</property>
  <property name="kdenlive:original.meta.media.0.codec.sample_aspect_ratio">1</property>
  <property name="kdenlive:original.meta.media.0.codec.colorspace">709</property>
  <property name="kdenlive:original.meta.media.0.codec.color_trc">1</property>
  <property name="kdenlive:original.meta.media.0.codec.name">h264</property>
  <property name="kdenlive:original.meta.media.0.codec.long_name">H.264 / AVC / MPEG-4 AVC / MPEG-4 part 10</property>
  <property name="kdenlive:original.meta.media.0.codec.bit_rate">95842876</property>
  <property name="kdenlive:original.meta.attr.0.stream.creation_time.markup">2021-06-02T15:49:01.000000Z</property>
  <property name="kdenlive:original.meta.attr.0.stream.handler_name.markup">VideoHandler</property>
  <property name="kdenlive:original.meta.media.1.stream.type">audio</property>
  <property name="kdenlive:original.meta.media.1.codec.sample_fmt">fltp</property>
  <property name="kdenlive:original.meta.media.1.codec.sample_rate">48000</property>
  <property name="kdenlive:original.meta.media.1.codec.channels">2</property>
  <property name="kdenlive:original.meta.media.1.codec.name">aac</property>
  <property name="kdenlive:original.meta.media.1.codec.long_name">AAC (Advanced Audio Coding)</property>
  <property name="kdenlive:original.meta.media.1.codec.bit_rate">125375</property>
  <property name="kdenlive:original.meta.attr.1.stream.creation_time.markup">2021-06-02T15:49:01.000000Z</property>
  <property name="kdenlive:original.meta.attr.1.stream.handler_name.markup">SoundHandler</property>
  <property name="kdenlive:original.meta.attr.major_brand.markup">isom</property>
  <property name="kdenlive:original.meta.attr.minor_version.markup">512</property>
  <property name="kdenlive:original.meta.attr.compatible_brands.markup">isomiso2avc1mp41</property>
  <property name="kdenlive:original.meta.attr.creation_time.markup">2021-06-02T15:49:01.000000Z</property>
  <property name="kdenlive:original.meta.attr.encoder.markup">Lavf58.45.100</property>
  <property name="kdenlive:original.seekable">1</property>
  <property name="kdenlive:original.width">3328</property>
  <property name="kdenlive:original.height">2496</property>
  <property name="kdenlive:original.meta.media.sample_aspect_num">1</property>
  <property name="kdenlive:original.meta.media.sample_aspect_den">1</property>
  <property name="kdenlive:original.aspect_ratio">1</property>
  <property name="kdenlive:original.audio_index">1</property>
  <property name="kdenlive:original.video_index">0</property>
  <property name="kdenlive:original.mute_on_pause">0</property>
  <property name="kdenlive:original.mlt_service">avformat-novalidate</property>
  <property name="kdenlive:original.kdenlive:folderid">65</property>
  <property name="kdenlive:original.meta.media.frame_rate_num">30000</property>
  <property name="kdenlive:original.meta.media.frame_rate_den">1001</property>
  <property name="kdenlive:original.meta.media.colorspace">709</property>
  <property name="kdenlive:original.meta.media.color_trc">1</property>
  <property name="kdenlive:original.meta.media.width">3328</property>
  <property name="kdenlive:original.meta.media.height">2496</property>
  <property name="kdenlive:original.meta.media.color_range">full</property>
  <property name="kdenlive:original.kdenlive:id">81</property>
  <property name="kdenlive:original.kdenlive:file_size">1304588902</property>
  <property name="kdenlive:original.kdenlive:file_hash">2fc7ab3ea57f441ef5b5135081c42383</property>
  <property name="kdenlive:original.backup">1</property>
  <property name="kdenlive:audio_max">1</property>
  <property name="global_feed">1</property>
  <property name="xml">was here</property>
  <property name="meta.media.nb_streams">2</property>
  <property name="meta.media.0.stream.type">video</property>
  <property name="meta.media.0.stream.frame_rate">29.97</property>
  <property name="meta.media.0.stream.sample_aspect_ratio">1</property>
  <property name="meta.media.0.codec.width">960</property>
  <property name="meta.media.0.codec.height">720</property>
  <property name="meta.media.0.codec.rotate">0</property>
  <property name="meta.media.0.codec.frame_rate">1000</property>
  <property name="meta.media.0.codec.pix_fmt">yuvj420p</property>
  <property name="meta.media.0.codec.sample_aspect_ratio">1</property>
  <property name="meta.media.0.codec.colorspace">601</property>
  <property name="meta.media.0.codec.name">mjpeg</property>
  <property name="meta.media.0.codec.long_name">MJPEG (Motion JPEG)</property>
  <property name="meta.media.0.codec.bit_rate">0</property>
  <property name="meta.attr.0.stream.HANDLER_NAME.markup">VideoHandler</property>
  <property name="meta.attr.0.stream.ENCODER.markup">Lavc58.91.100 mjpeg</property>
  <property name="meta.attr.0.stream.DURATION.markup">00:01:48.842000000</property>
  <property name="meta.media.1.stream.type">audio</property>
  <property name="meta.media.1.codec.sample_fmt">s16</property>
  <property name="meta.media.1.codec.sample_rate">48000</property>
  <property name="meta.media.1.codec.channels">2</property>
  <property name="meta.media.1.codec.name">pcm_s16le</property>
  <property name="meta.media.1.codec.long_name">PCM signed 16-bit little-endian</property>
  <property name="meta.media.1.codec.bit_rate">1536000</property>
  <property name="meta.attr.1.stream.HANDLER_NAME.markup">SoundHandler</property>
  <property name="meta.attr.1.stream.ENCODER.markup">Lavc58.91.100 pcm_s16le</property>
  <property name="meta.attr.1.stream.DURATION.markup">00:01:48.736000000</property>
  <property name="meta.attr.COMPATIBLE_BRANDS.markup">isomiso2avc1mp41</property>
  <property name="meta.attr.MAJOR_BRAND.markup">isom</property>
  <property name="meta.attr.MINOR_VERSION.markup">512</property>
  <property name="meta.attr.ENCODER.markup">Lavf58.45.100</property>
  <property name="meta.media.sample_aspect_num">1</property>
  <property name="meta.media.sample_aspect_den">1</property>
  <property name="meta.media.frame_rate_num">30000</property>
  <property name="meta.media.frame_rate_den">1001</property>
  <property name="meta.media.colorspace">601</property>
  <property name="meta.media.color_trc">2</property>
  <property name="meta.media.width">960</property>
  <property name="meta.media.height">720</property>
  <property name="meta.media.color_range">full</property>
  <property name="meta.media.top_field_first">0</property>
  <property name="meta.media.progressive">1</property>
  <property name="set.test_audio">1</property>
  <property name="set.test_image">0</property>
 </producer>
 <producer id="producer272" in="00:00:00.000" out="00:01:48.700">
  <property name="length">3262</property>
  <property name="eof">pause</property>
  <property name="resource">/home/ryankelln/.cache/kdenlive/proxy/2fc7ab3ea57f441ef5b5135081c42383.mkv</property>
  <property name="audio_index">1</property>
  <property name="video_index">0</property>
  <property name="mute_on_pause">0</property>
  <property name="mlt_service">avformat-novalidate</property>
  <property name="seekable">1</property>
  <property name="aspect_ratio">1</property>
  <property name="kdenlive:clipname">2021-06-02_Caleb_electric+4k_mac_P1000550-take3_ending.MP4</property>
  <property name="kdenlive:folderid">65</property>
  <property name="kdenlive:id">47</property>
  <property name="kdenlive:file_size">1304588902</property>
  <property name="kdenlive:file_hash">2fc7ab3ea57f441ef5b5135081c42383</property>
  <property name="kdenlive:proxy">/home/ryankelln/.cache/kdenlive/proxy/2fc7ab3ea57f441ef5b5135081c42383.mkv</property>
  <property name="kdenlive:originalurl">content/musicians/2021-06-02_Caleb_electric+4k_mac_P1000550-take3_ending.MP4</property>
  <property name="kdenlive:original.mlt_type">producer</property>
  <property name="kdenlive:original.in">0</property>
  <property name="kdenlive:original.out">3261</property>
  <property name="kdenlive:original.length">3262</property>
  <property name="kdenlive:original.eof">pause</property>
  <property name="kdenlive:original.resource">content/musicians/2021-06-02_Caleb_electric+4k_mac_P1000550-take3_ending.MP4</property>
  <property name="kdenlive:original.meta.media.nb_streams">2</property>
  <property name="kdenlive:original.meta.media.0.stream.type">video</property>
  <property name="kdenlive:original.meta.media.0.stream.frame_rate">29.97</property>
  <property name="kdenlive:original.meta.media.0.stream.sample_aspect_ratio">1</property>
  <property name="kdenlive:original.meta.media.0.codec.width">3328</property>
  <property name="kdenlive:original.meta.media.0.codec.height">2496</property>
  <property name="kdenlive:original.meta.media.0.codec.rotate">0</property>
  <property name="kdenlive:original.meta.media.0.codec.frame_rate">29.97</property>
  <property name="kdenlive:original.meta.media.0.codec.pix_fmt">yuvj420p</property>
  <property name="kdenlive:original.meta.media.0.codec.sample_aspect_ratio">1</property>
  <property name="kdenlive:original.meta.media.0.codec.colorspace">709</property>
  <property name="kdenlive:original.meta.media.0.codec.color_trc">1</property>
  <property name="kdenlive:original.meta.media.0.codec.name">h264</property>
  <property name="kdenlive:original.meta.media.0.codec.long_name">H.264 / AVC / MPEG-4 AVC / MPEG-4 part 10</property>
  <property name="kdenlive:original.meta.media.0.codec.bit_rate">95842876</property>
  <property name="kdenlive:original.meta.attr.0.stream.creation_time.markup">2021-06-02T15:49:01.000000Z</property>
  <property name="kdenlive:original.meta.attr.0.stream.handler_name.markup">VideoHandler</property>
  <property name="kdenlive:original.meta.media.1.stream.type">audio</property>
  <property name="kdenlive:original.meta.media.1.codec.sample_fmt">fltp</property>
  <property name="kdenlive:original.meta.media.1.codec.sample_rate">48000</property>
  <property name="kdenlive:original.meta.media.1.codec.channels">2</property>
  <property name="kdenlive:original.meta.media.1.codec.name">aac</property>
  <property name="kdenlive:original.meta.media.1.codec.long_name">AAC (Advanced Audio Coding)</property>
  <property name="kdenlive:original.meta.media.1.codec.bit_rate">125375</property>
  <property name="kdenlive:original.meta.attr.1.stream.creation_time.markup">2021-06-02T15:49:01.000000Z</property>
  <property name="kdenlive:original.meta.attr.1.stream.handler_name.markup">SoundHandler</property>
  <property name="kdenlive:original.meta.attr.major_brand.markup">isom</property>
  <property name="kdenlive:original.meta.attr.minor_version.markup">512</property>
  <property name="kdenlive:original.meta.attr.compatible_brands.markup">isomiso2avc1mp41</property>
  <property name="kdenlive:original.meta.attr.creation_time.markup">2021-06-02T15:49:01.000000Z</property>
  <property name="kdenlive:original.meta.attr.encoder.markup">Lavf58.45.100</property>
  <property name="kdenlive:original.seekable">1</property>
  <property name="kdenlive:original.width">3328</property>
  <property name="kdenlive:original.height">2496</property>
  <property name="kdenlive:original.meta.media.sample_aspect_num">1</property>
  <property name="kdenlive:original.meta.media.sample_aspect_den">1</property>
  <property name="kdenlive:original.aspect_ratio">1</property>
  <property name="kdenlive:original.audio_index">1</property>
  <property name="kdenlive:original.video_index">0</property>
  <property name="kdenlive:original.mute_on_pause">0</property>
  <property name="kdenlive:original.mlt_service">avformat-novalidate</property>
  <property name="kdenlive:original.kdenlive:folderid">65</property>
  <property name="kdenlive:original.meta.media.frame_rate_num">30000</property>
  <property name="kdenlive:original.meta.media.frame_rate_den">1001</property>
  <property name="kdenlive:original.meta.media.colorspace">709</property>
  <property name="kdenlive:original.meta.media.color_trc">1</property>
  <property name="kdenlive:original.meta.media.width">3328</property>
  <property name="kdenlive:original.meta.media.height">2496</property>
  <property name="kdenlive:original.meta.media.color_range">full</property>
  <property name="kdenlive:original.kdenlive:id">81</property>
  <property name="kdenlive:original.kdenlive:file_size">1304588902</property>
  <property name="kdenlive:original.kdenlive:file_hash">2fc7ab3ea57f441ef5b5135081c42383</property>
  <property name="kdenlive:original.backup">1</property>
  <property name="kdenlive:audio_max">1</property>
  <property name="global_feed">1</property>
  <property name="xml">was here</property>
  <property name="meta.media.nb_streams">2</property>
  <property name="meta.media.0.stream.type">video</property>
  <property name="meta.media.0.stream.frame_rate">29.97</property>
  <property name="meta.media.0.stream.sample_aspect_ratio">1</property>
  <property name="meta.media.0.codec.width">960</property>
  <property name="meta.media.0.codec.height">720</property>
  <property name="meta.media.0.codec.rotate">0</property>
  <property name="meta.media.0.codec.frame_rate">1000</property>
  <property name="meta.media.0.codec.pix_fmt">yuvj420p</property>
  <property name="meta.media.0.codec.sample_aspect_ratio">1</property>
  <property name="meta.media.0.codec.colorspace">601</property>
  <property name="meta.media.0.codec.name">mjpeg</property>
  <property name="meta.media.0.codec.long_name">MJPEG (Motion JPEG)</property>
  <property name="meta.media.0.codec.bit_rate">0</property>
  <property name="meta.attr.0.stream.HANDLER_NAME.markup">VideoHandler</property>
  <property name="meta.attr.0.stream.ENCODER.markup">Lavc58.91.100 mjpeg</property>
  <property name="meta.attr.0.stream.DURATION.markup">00:01:48.842000000</property>
  <property name="meta.media.1.stream.type">audio</property>
  <property name="meta.media.1.codec.sample_fmt">s16</property>
  <property name="meta.media.1.codec.sample_rate">48000</property>
  <property name="meta.media.1.codec.channels">2</property>
  <property name="meta.media.1.codec.name">pcm_s16le</property>
  <property name="meta.media.1.codec.long_name">PCM signed 16-bit little-endian</property>
  <property name="meta.media.1.codec.bit_rate">1536000</property>
  <property name="meta.attr.1.stream.HANDLER_NAME.markup">SoundHandler</property>
  <property name="meta.attr.1.stream.ENCODER.markup">Lavc58.91.100 pcm_s16le</property>
  <property name="meta.attr.1.stream.DURATION.markup">00:01:48.736000000</property>
  <property name="meta.attr.COMPATIBLE_BRANDS.markup">isomiso2avc1mp41</property>
  <property name="meta.attr.MAJOR_BRAND.markup">isom</property>
  <property name="meta.attr.MINOR_VERSION.markup">512</property>
  <property name="meta.attr.ENCODER.markup">Lavf58.45.100</property>
  <property name="meta.media.sample_aspect_num">1</property>
  <property name="meta.media.sample_aspect_den">1</property>
  <property name="meta.media.frame_rate_num">30000</property>
  <property name="meta.media.frame_rate_den">1001</property>
  <property name="meta.media.colorspace">601</property>
  <property name="meta.media.color_trc">2</property>
  <property name="meta.media.width">960</property>
  <property name="meta.media.height">720</property>
  <property name="meta.media.color_range">full</property>
  <property name="meta.media.top_field_first">0</property>
  <property name="meta.media.progressive">1</property>
  <property name="set.test_audio">1</property>
  <property name="set.test_image">1</property>
 </producer>
 <playlist id="playlist26">
  <blank length="00:00:02.167"/>
  <entry producer="producer263" in="00:00:00.000" out="00:01:18.700">
   <property name="kdenlive:id">48</property>
  </entry>
  <entry producer="producer264" in="00:00:00.000" out="00:00:22.533">
   <property name="kdenlive:id">49</property>
  </entry>
  <entry producer="producer265" in="00:00:22.567" out="00:00:30.300">
   <property name="kdenlive:id">49</property>
   <filter id="filter289" in="00:00:22.567" out="00:00:23.000">
    <property name="start">0</property>
    <property name="mlt_service">brightness</property>
    <property name="kdenlive_id">fade_from_black</property>
    <property name="end">1</property>
    <property name="alpha">-1</property>
    <property name="kdenlive:collapsed">0</property>
   </filter>
   <filter id="filter290" in="00:00:28.667" out="00:00:30.300">
    <property name="start">1</property>
    <property name="mlt_service">brightness</property>
    <property name="kdenlive_id">fade_to_black</property>
    <property name="end">0</property>
    <property name="alpha">-1</property>
    <property name="kdenlive:collapsed">0</property>
   </filter>
  </entry>
  <entry producer="producer264" in="00:00:30.333" out="00:01:31.900">
   <property name="kdenlive:id">49</property>
  </entry>
  <entry producer="producer266" in="00:01:31.933" out="00:02:01.900">
   <property name="kdenlive:id">49</property>
   <filter id="filter291">
    <property name="rotate_center">1</property>
    <property name="mlt_service">qtblend</property>
    <property name="kdenlive_id">qtblend</property>
    <property name="rect">00:01:31.933=484 0 1920 1080 0.850000</property>
    <property name="rotation">00:01:31.933=0</property>
    <property name="compositing">0</property>
    <property name="distort">0</property>
    <property name="kdenlive:collapsed">0</property>
   </filter>
   <filter id="filter292">
    <property name="mode">alpha</property>
    <property name="alpha_operation">min</property>
    <property name="invert">0</property>
    <property name="feather">115</property>
    <property name="feather_passes">3</property>
    <property name="mlt_service">rotoscoping</property>
    <property name="kdenlive_id">rotoscoping</property>
    <property name="spline">{
    "2758": [
        [
            [
                1.1322851153039832,
                0.047761194029850754
            ],
            [
                1.1142557651991614,
                -0.22014925373134328
            ],
            [
                1.0538784067085953,
                -0.1947761194029851
            ]
        ],
        [
            [
                0.8727463312368973,
                -0.11865671641791045
            ],
            [
                0.8123689727463312,
                -0.09328358208955224
            ],
            [
                0.7846960167714886,
                -0.01791044776119403
            ]
        ],
        [
            [
                0.7016771488469601,
                0.20820895522388058
            ],
            [
                0.6740041928721173,
                0.2835820895522388
            ],
            [
                0.6744234800838574,
                0.31044776119402984
            ]
        ],
        [
            [
                0.6756813417190776,
                0.391044776119403
            ],
            [
                0.6761006289308177,
                0.417910447761194
            ],
            [
                0.6475890985324947,
                0.4537313432835821
            ]
        ],
        [
            [
                0.5620545073375263,
                0.5611940298507463
            ],
            [
                0.5335429769392034,
                0.5970149253731343
            ],
            [
                0.5092243186582809,
                0.6261194029850746
            ]
        ],
        [
            [
                0.43626834381551366,
                0.7134328358208955
            ],
            [
                0.41194968553459116,
                0.7425373134328358
            ],
            [
                0.4073375262054507,
                0.7701492537313432
            ]
        ],
        [
            [
                0.39350104821802934,
                0.8529850746268657
            ],
            [
                0.3888888888888889,
                0.8805970149253731
            ],
            [
                0.39685534591194965,
                0.9268656716417911
            ]
        ],
        [
            [
                0.42075471698113204,
                1.065671641791045
            ],
            [
                0.42872117400419285,
                1.111940298507463
            ],
            [
                0.5578616352201258,
                1.144776119402985
            ]
        ],
        [
            [
                0.9452830188679244,
                1.2432835820895523
            ],
            [
                1.0744234800838575,
                1.2761194029850746
            ],
            [
                1.10041928721174,
                1.2447761194029852
            ]
        ],
        [
            [
                1.178406708595388,
                1.1507462686567163
            ],
            [
                1.2044025157232705,
                1.119402985074627
            ],
            [
                1.1863731656184486,
                0.8514925373134329
            ]
        ]
    ],
    "3346": [
        [
            [
                1.1322851153039832,
                0.047761194029850754
            ],
            [
                1.1142557651991614,
                -0.22014925373134328
            ],
            [
                1.0538784067085953,
                -0.1947761194029851
            ]
        ],
        [
            [
                0.8727463312368973,
                -0.11865671641791045
            ],
            [
                0.8123689727463312,
                -0.09328358208955224
            ],
            [
                0.7846960167714886,
                -0.01791044776119403
            ]
        ],
        [
            [
                0.7016771488469601,
                0.20820895522388058
            ],
            [
                0.6740041928721173,
                0.2835820895522388
            ],
            [
                0.6744234800838574,
                0.31044776119402984
            ]
        ],
        [
            [
                0.6756813417190776,
                0.46567164179104487
            ],
            [
                0.6761006289308177,
                0.4925373134328358
            ],
            [
                0.6475890985324947,
                0.528358208955224
            ]
        ],
        [
            [
                0.5620545073375263,
                0.5611940298507463
            ],
            [
                0.5335429769392034,
                0.5970149253731343
            ],
            [
                0.5092243186582809,
                0.6261194029850746
            ]
        ],
        [
            [
                0.43626834381551366,
                0.7134328358208955
            ],
            [
                0.41194968553459116,
                0.7425373134328358
            ],
            [
                0.4073375262054507,
                0.7701492537313432
            ]
        ],
        [
            [
                0.39350104821802934,
                0.8529850746268657
            ],
            [
                0.3888888888888889,
                0.8805970149253731
            ],
            [
                0.39685534591194965,
                0.9268656716417911
            ]
        ],
        [
            [
                0.42075471698113204,
                1.065671641791045
            ],
            [
                0.42872117400419285,
                1.111940298507463
            ],
            [
                0.5578616352201258,
                1.144776119402985
            ]
        ],
        [
            [
                0.9452830188679244,
                1.2432835820895523
            ],
            [
                1.0744234800838575,
                1.2761194029850746
            ],
            [
                1.10041928721174,
                1.2447761194029852
            ]
        ],
        [
            [
                1.178406708595388,
                1.1507462686567163
            ],
            [
                1.2044025157232705,
                1.119402985074627
            ],
            [
                1.1863731656184486,
                0.8514925373134329
            ]
        ]
    ]
}
</property>
    <property name="kdenlive:collapsed">0</property>
   </filter>
   <filter id="filter293" in="00:01:31.933" out="00:01:34.633">
    <property name="start">0</property>
    <property name="mlt_service">brightness</property>
    <property name="kdenlive_id">fade_from_black</property>
    <property name="end">1</property>
    <property name="alpha">-1</property>
    <property name="kdenlive:collapsed">0</property>
   </filter>
  </entry>
  <entry producer="producer264" in="00:02:01.933" out="00:02:15.267">
   <property name="kdenlive:id">49</property>
  </entry>
  <entry producer="producer267" in="00:02:15.300" out="00:02:55.000">
   <property name="kdenlive:id">49</property>
   <filter id="filter294">
    <property name="rotate_center">1</property>
    <property name="mlt_service">qtblend</property>
    <property name="kdenlive_id">qtblend</property>
    <property name="rect">00:02:15.300=484 0 1920 1080 1.000000</property>
    <property name="rotation">00:02:15.300=0</property>
    <property name="compositing">0</property>
    <property name="distort">0</property>
    <property name="kdenlive:collapsed">0</property>
   </filter>
   <filter id="filter295">
    <property name="mode">alpha</property>
    <property name="alpha_operation">min</property>
    <property name="invert">0</property>
    <property name="feather">115</property>
    <property name="feather_passes">3</property>
    <property name="mlt_service">rotoscoping</property>
    <property name="kdenlive_id">rotoscoping</property>
    <property name="spline">{
    "2758": [
        [
            [
                1.1322851153039832,
                0.047761194029850754
            ],
            [
                1.1142557651991614,
                -0.22014925373134328
            ],
            [
                1.0538784067085953,
                -0.1947761194029851
            ]
        ],
        [
            [
                0.8727463312368973,
                -0.11865671641791045
            ],
            [
                0.8123689727463312,
                -0.09328358208955224
            ],
            [
                0.7846960167714886,
                -0.01791044776119403
            ]
        ],
        [
            [
                0.7016771488469601,
                0.20820895522388058
            ],
            [
                0.6740041928721173,
                0.2835820895522388
            ],
            [
                0.6744234800838574,
                0.31044776119402984
            ]
        ],
        [
            [
                0.6756813417190776,
                0.391044776119403
            ],
            [
                0.6761006289308177,
                0.417910447761194
            ],
            [
                0.6475890985324947,
                0.4537313432835821
            ]
        ],
        [
            [
                0.5620545073375263,
                0.5611940298507463
            ],
            [
                0.5335429769392034,
                0.5970149253731343
            ],
            [
                0.5092243186582809,
                0.6261194029850746
            ]
        ],
        [
            [
                0.43626834381551366,
                0.7134328358208955
            ],
            [
                0.41194968553459116,
                0.7425373134328358
            ],
            [
                0.4073375262054507,
                0.7701492537313432
            ]
        ],
        [
            [
                0.39350104821802934,
                0.8529850746268657
            ],
            [
                0.3888888888888889,
                0.8805970149253731
            ],
            [
                0.39685534591194965,
                0.9268656716417911
            ]
        ],
        [
            [
                0.42075471698113204,
                1.065671641791045
            ],
            [
                0.42872117400419285,
                1.111940298507463
            ],
            [
                0.5578616352201258,
                1.144776119402985
            ]
        ],
        [
            [
                0.9452830188679244,
                1.2432835820895523
            ],
            [
                1.0744234800838575,
                1.2761194029850746
            ],
            [
                1.10041928721174,
                1.2447761194029852
            ]
        ],
        [
            [
                1.178406708595388,
                1.1507462686567163
            ],
            [
                1.2044025157232705,
                1.119402985074627
            ],
            [
                1.1863731656184486,
                0.8514925373134329
            ]
        ]
    ],
    "3346": [
        [
            [
                1.1322851153039832,
                0.047761194029850754
            ],
            [
                1.1142557651991614,
                -0.22014925373134328
            ],
            [
                1.0538784067085953,
                -0.1947761194029851
            ]
        ],
        [
            [
                0.8727463312368973,
                -0.11865671641791045
            ],
            [
                0.8123689727463312,
                -0.09328358208955224
            ],
            [
                0.7846960167714886,
                -0.01791044776119403
            ]
        ],
        [
            [
                0.7016771488469601,
                0.20820895522388058
            ],
            [
                0.6740041928721173,
                0.2835820895522388
            ],
            [
                0.6744234800838574,
                0.31044776119402984
            ]
        ],
        [
            [
                0.6756813417190776,
                0.46567164179104487
            ],
            [
                0.6761006289308177,
                0.4925373134328358
            ],
            [
                0.6475890985324947,
                0.528358208955224
            ]
        ],
        [
            [
                0.5620545073375263,
                0.5611940298507463
            ],
            [
                0.5335429769392034,
                0.5970149253731343
            ],
            [
                0.5092243186582809,
                0.6261194029850746
            ]
        ],
        [
            [
                0.43626834381551366,
                0.7134328358208955
            ],
            [
                0.41194968553459116,
                0.7425373134328358
            ],
            [
                0.4073375262054507,
                0.7701492537313432
            ]
        ],
        [
            [
                0.39350104821802934,
                0.8529850746268657
            ],
            [
                0.3888888888888889,
                0.8805970149253731
            ],
            [
                0.39685534591194965,
                0.9268656716417911
            ]
        ],
        [
            [
                0.42075471698113204,
                1.065671641791045
            ],
            [
                0.42872117400419285,
                1.111940298507463
            ],
            [
                0.5578616352201258,
                1.144776119402985
            ]
        ],
        [
            [
                0.9452830188679244,
                1.2432835820895523
            ],
            [
                1.0744234800838575,
                1.2761194029850746
            ],
            [
                1.10041928721174,
                1.2447761194029852
            ]
        ],
        [
            [
                1.178406708595388,
                1.1507462686567163
            ],
            [
                1.2044025157232705,
                1.119402985074627
            ],
            [
                1.1863731656184486,
                0.8514925373134329
            ]
        ]
    ]
}
</property>
    <property name="kdenlive:collapsed">0</property>
   </filter>
   <filter id="filter296">
    <property name="version">0.1</property>
    <property name="mlt_service">frei0r.alphaspot</property>
    <property name="kdenlive_id">frei0r.alphaspot</property>
    <property name="Shape">0.38</property>
    <property name="Position X">00:02:15.300=0.646</property>
    <property name="Position Y">00:02:15.300=0.71</property>
    <property name="Size X">00:02:15.300=0.665</property>
    <property name="Size Y">00:02:15.300=0.753</property>
    <property name="Tilt">00:02:15.300=0.5</property>
    <property name="Transition width">00:02:15.300=0.932</property>
    <property name="Min">00:02:15.300=0</property>
    <property name="Max">00:02:15.300=1</property>
    <property name="Operation">0.5</property>
    <property name="kdenlive:collapsed">0</property>
   </filter>
   <filter id="filter297" in="00:02:53.167" out="00:02:55.000">
    <property name="start">1</property>
    <property name="mlt_service">brightness</property>
    <property name="kdenlive_id">fade_to_black</property>
    <property name="end">0</property>
    <property name="alpha">-1</property>
    <property name="kdenlive:collapsed">0</property>
   </filter>
  </entry>
  <entry producer="producer264" in="00:02:55.033" out="00:03:02.967">
   <property name="kdenlive:id">49</property>
  </entry>
  <entry producer="producer268" in="00:03:03.000" out="00:03:05.100">
   <property name="kdenlive:id">49</property>
   <filter id="filter298" in="00:03:03.000" out="00:03:03.333">
    <property name="start">0</property>
    <property name="mlt_service">brightness</property>
    <property name="kdenlive_id">fade_from_black</property>
    <property name="end">1</property>
    <property name="alpha">-1</property>
    <property name="kdenlive:collapsed">0</property>
   </filter>
   <filter id="filter299" in="00:03:04.633" out="00:03:05.100">
    <property name="start">1</property>
    <property name="mlt_service">brightness</property>
    <property name="kdenlive_id">fade_to_black</property>
    <property name="end">0</property>
    <property name="alpha">-1</property>
    <property name="kdenlive:collapsed">0</property>
   </filter>
   <filter id="filter300">
    <property name="version">0.1</property>
    <property name="mlt_service">frei0r.mask0mate</property>
    <property name="kdenlive_id">frei0r.mask0mate</property>
    <property name="Left">00:03:03.000=0.336</property>
    <property name="Right">00:03:03.000=0</property>
    <property name="Top">00:03:03.000=0</property>
    <property name="Bottom">00:03:03.000=0</property>
    <property name="Invert">1</property>
    <property name="Blur">00:03:03.000=0.242</property>
    <property name="kdenlive:collapsed">0</property>
   </filter>
   <filter id="filter301">
    <property name="rotate_center">1</property>
    <property name="mlt_service">qtblend</property>
    <property name="kdenlive_id">qtblend</property>
    <property name="rect">00:03:03.000=688 111 1728 972 1.000000</property>
    <property name="rotation">00:03:03.000=0</property>
    <property name="compositing">0</property>
    <property name="distort">0</property>
    <property name="kdenlive:collapsed">0</property>
   </filter>
  </entry>
  <entry producer="producer264" in="00:03:05.133" out="00:03:12.733">
   <property name="kdenlive:id">49</property>
  </entry>
  <entry producer="producer269" in="00:03:12.767" out="00:03:15.433">
   <property name="kdenlive:id">49</property>
   <filter id="filter302" in="00:03:14.933" out="00:03:15.433">
    <property name="start">1</property>
    <property name="mlt_service">brightness</property>
    <property name="kdenlive_id">fade_to_black</property>
    <property name="end">0</property>
    <property name="alpha">-1</property>
    <property name="kdenlive:collapsed">0</property>
   </filter>
   <filter id="filter303" in="00:03:12.767" out="00:03:13.233">
    <property name="start">0</property>
    <property name="mlt_service">brightness</property>
    <property name="kdenlive_id">fade_from_black</property>
    <property name="end">1</property>
    <property name="alpha">-1</property>
    <property name="kdenlive:collapsed">0</property>
   </filter>
   <filter id="filter304">
    <property name="version">0.1</property>
    <property name="mlt_service">frei0r.mask0mate</property>
    <property name="kdenlive_id">frei0r.mask0mate</property>
    <property name="Left">00:03:12.767=0.336</property>
    <property name="Right">00:03:12.767=0</property>
    <property name="Top">00:03:12.767=0</property>
    <property name="Bottom">00:03:12.767=0</property>
    <property name="Invert">1</property>
    <property name="Blur">00:03:12.767=0.242</property>
    <property name="kdenlive:collapsed">0</property>
   </filter>
   <filter id="filter305">
    <property name="rotate_center">1</property>
    <property name="mlt_service">qtblend</property>
    <property name="kdenlive_id">qtblend</property>
    <property name="rect">00:03:12.767=688 111 1728 972 1.000000</property>
    <property name="rotation">00:03:12.767=0</property>
    <property name="compositing">0</property>
    <property name="distort">0</property>
    <property name="kdenlive:collapsed">0</property>
   </filter>
  </entry>
  <entry producer="producer264" in="00:03:15.467" out="00:03:23.600">
   <property name="kdenlive:id">49</property>
  </entry>
  <entry producer="producer270" in="00:03:23.633" out="00:03:54.267">
   <property name="kdenlive:id">49</property>
   <filter id="filter306">
    <property name="version">0.1</property>
    <property name="mlt_service">frei0r.mask0mate</property>
    <property name="kdenlive_id">frei0r.mask0mate</property>
    <property name="Left">00:03:23.633=0.29</property>
    <property name="Right">00:03:23.633=0</property>
    <property name="Top">00:03:23.633=0</property>
    <property name="Bottom">00:03:23.633=0</property>
    <property name="Invert">1</property>
    <property name="Blur">00:03:23.633=0.163</property>
    <property name="kdenlive:collapsed">0</property>
   </filter>
   <filter id="filter307">
    <property name="rotate_center">1</property>
    <property name="mlt_service">qtblend</property>
    <property name="kdenlive_id">qtblend</property>
    <property name="rect">00:03:23.633=678 -107 1728 972 1.000000</property>
    <property name="rotation">00:03:23.633=0</property>
    <property name="compositing">0</property>
    <property name="distort">0</property>
    <property name="kdenlive:collapsed">0</property>
   </filter>
   <filter id="filter308" in="00:03:23.633" out="00:03:24.467">
    <property name="start">0</property>
    <property name="mlt_service">brightness</property>
    <property name="kdenlive_id">fade_from_black</property>
    <property name="end">1</property>
    <property name="alpha">-1</property>
    <property name="kdenlive:collapsed">0</property>
   </filter>
   <filter id="filter309" in="00:03:52.967" out="00:03:54.267">
    <property name="start">1</property>
    <property name="mlt_service">brightness</property>
    <property name="kdenlive_id">fade_to_black</property>
    <property name="end">0</property>
    <property name="alpha">-1</property>
    <property name="kdenlive:collapsed">0</property>
   </filter>
  </entry>
  <blank length="00:00:19.067"/>
  <entry producer="producer271" in="00:00:20.067" out="00:01:08.700">
   <property name="kdenlive:id">47</property>
   <filter id="filter310">
    <property name="version">0.6</property>
    <property name="mlt_service">frei0r.select0r</property>
    <property name="kdenlive_id">frei0r.select0r</property>
    <property name="Color to select">0x448c3fff</property>
    <property name="Invert selection">1</property>
    <property name="Selection subspace">1</property>
    <property name="Subspace shape">0.5</property>
    <property name="Edge mode">0.9</property>
    <property name="Delta R / A / Hue">00:00:20.067=0.035</property>
    <property name="Delta G / B / Chroma">00:00:20.067=0.295</property>
    <property name="Delta B / I / I">00:00:20.067=0.405</property>
    <property name="Slope">00:00:20.067=0.092</property>
    <property name="Operation">0.5</property>
   </filter>
   <filter id="filter311">
    <property name="mlt_service">avfilter.despill</property>
    <property name="kdenlive_id">avfilter.despill</property>
    <property name="av.type">green</property>
    <property name="av.mix">0.298</property>
    <property name="av.expand">0.037</property>
    <property name="av.red">0</property>
    <property name="av.green">-1</property>
    <property name="av.blue">0</property>
    <property name="av.brightness">0</property>
   </filter>
   <filter id="filter312">
    <property name="rotate_center">1</property>
    <property name="mlt_service">qtblend</property>
    <property name="kdenlive_id">qtblend</property>
    <property name="rect">00:00:20.067=-650 0 2112 1188 1.000000;00:00:43.667=-650 0 2112 1188 1.000000;00:00:47.500=-527 0 2112 1188 1.000000;00:00:50.433=-527 0 2112 1188 1.000000;00:00:51.267=-652 0 2112 1188 1.000000;00:00:52.733=-463 -2 2112 1188 1.000000;00:00:54.000=-575 0 2112 1188 1.000000;00:00:57.267=-537 0 2112 1188 1.000000;00:01:02.900=-537 0 2112 1188 1.000000</property>
    <property name="rotation">00:00:20.067=0;00:00:43.667=0;00:00:47.500=0;00:00:50.433=0;00:00:51.267=0;00:00:52.733=0;00:00:54.000=0;00:00:57.267=0;00:01:02.900=0</property>
    <property name="compositing">0</property>
    <property name="distort">0</property>
   </filter>
   <filter id="filter313" in="00:00:20.067" out="00:00:20.333">
    <property name="start">0</property>
    <property name="mlt_service">brightness</property>
    <property name="kdenlive_id">fade_from_black</property>
    <property name="end">1</property>
    <property name="alpha">-1</property>
   </filter>
  </entry>
  <entry producer="producer272" in="00:01:08.733" out="00:01:48.700">
   <property name="kdenlive:id">47</property>
   <filter id="filter314">
    <property name="version">0.6</property>
    <property name="mlt_service">frei0r.select0r</property>
    <property name="kdenlive_id">frei0r.select0r</property>
    <property name="Color to select">0x448c3fff</property>
    <property name="Invert selection">1</property>
    <property name="Selection subspace">1</property>
    <property name="Subspace shape">0.5</property>
    <property name="Edge mode">0.9</property>
    <property name="Delta R / A / Hue">2062=0.035</property>
    <property name="Delta G / B / Chroma">2062=0.295</property>
    <property name="Delta B / I / I">2062=0.405</property>
    <property name="Slope">2062=0.092</property>
    <property name="Operation">0.5</property>
    <property name="kdenlive:collapsed">0</property>
   </filter>
   <filter id="filter315">
    <property name="mlt_service">avfilter.despill</property>
    <property name="kdenlive_id">avfilter.despill</property>
    <property name="av.type">green</property>
    <property name="av.mix">0.298</property>
    <property name="av.expand">0.037</property>
    <property name="av.red">0</property>
    <property name="av.green">-1</property>
    <property name="av.blue">0</property>
    <property name="av.brightness">0</property>
    <property name="kdenlive:collapsed">0</property>
   </filter>
   <filter id="filter316">
    <property name="rotate_center">1</property>
    <property name="mlt_service">qtblend</property>
    <property name="kdenlive_id">qtblend</property>
    <property name="rect">2062=-537 0 2112 1188 1.000000</property>
    <property name="rotation">2062=0</property>
    <property name="compositing">0</property>
    <property name="distort">0</property>
    <property name="kdenlive:collapsed">0</property>
   </filter>
  </entry>
 </playlist>
 <playlist id="playlist27"/>
 <tractor id="tractor13" in="00:00:00.000" out="00:07:02.900">
  <property name="kdenlive:trackheight">69</property>
  <property name="kdenlive:timeline_active">1</property>
  <property name="kdenlive:collapsed">0</property>
  <property name="kdenlive:track_name">Chris-piano</property>
  <property name="kdenlive:thumbs_format"/>
  <property name="kdenlive:audio_rec"/>
  <track hide="audio" producer="playlist26"/>
  <track producer="playlist27"/>
 </tractor>
 <producer id="producer273" in="00:00:00.000" out="00:00:44.833">
  <property name="length">1346</property>
  <property name="eof">pause</property>
  <property name="resource">/home/ryankelln/.cache/kdenlive/proxy/d36267c91a7a07d4705900c3d4f90169.mkv</property>
  <property name="audio_index">1</property>
  <property name="video_index">0</property>
  <property name="mute_on_pause">0</property>
  <property name="mlt_service">avformat-novalidate</property>
  <property name="seekable">1</property>
  <property name="aspect_ratio">1</property>
  <property name="kdenlive:clipname">Cell through Microscope Free Footage Clip-_Rww1olT3HA.mkv</property>
  <property name="kdenlive:folderid">102</property>
  <property name="kdenlive:id">88</property>
  <property name="kdenlive:file_size">5481224</property>
  <property name="kdenlive:file_hash">d36267c91a7a07d4705900c3d4f90169</property>
  <property name="kdenlive:proxy">/home/ryankelln/.cache/kdenlive/proxy/d36267c91a7a07d4705900c3d4f90169.mkv</property>
  <property name="kdenlive:originalurl">content/footage/Cell through Microscope Free Footage Clip-_Rww1olT3HA.mkv</property>
  <property name="kdenlive:original.mlt_type">producer</property>
  <property name="kdenlive:original.in">0</property>
  <property name="kdenlive:original.out">1345</property>
  <property name="kdenlive:original.length">1346</property>
  <property name="kdenlive:original.eof">pause</property>
  <property name="kdenlive:original.resource">content/footage/Cell through Microscope Free Footage Clip-_Rww1olT3HA.mkv</property>
  <property name="kdenlive:original.meta.media.nb_streams">2</property>
  <property name="kdenlive:original.meta.media.0.stream.type">video</property>
  <property name="kdenlive:original.meta.media.0.stream.frame_rate">30</property>
  <property name="kdenlive:original.meta.media.0.stream.sample_aspect_ratio">1</property>
  <property name="kdenlive:original.meta.media.0.codec.width">1280</property>
  <property name="kdenlive:original.meta.media.0.codec.height">720</property>
  <property name="kdenlive:original.meta.media.0.codec.rotate">0</property>
  <property name="kdenlive:original.meta.media.0.codec.frame_rate">1000</property>
  <property name="kdenlive:original.meta.media.0.codec.pix_fmt">yuv420p</property>
  <property name="kdenlive:original.meta.media.0.codec.sample_aspect_ratio">0</property>
  <property name="kdenlive:original.meta.media.0.codec.colorspace">709</property>
  <property name="kdenlive:original.meta.media.0.codec.name">vp9</property>
  <property name="kdenlive:original.meta.media.0.codec.long_name">Google VP9</property>
  <property name="kdenlive:original.meta.media.0.codec.bit_rate">0</property>
  <property name="kdenlive:original.meta.attr.0.stream.language.markup">eng</property>
  <property name="kdenlive:original.meta.attr.0.stream.DURATION.markup">00:00:44.800000000</property>
  <property name="kdenlive:original.meta.media.1.stream.type">audio</property>
  <property name="kdenlive:original.meta.media.1.codec.sample_fmt">fltp</property>
  <property name="kdenlive:original.meta.media.1.codec.sample_rate">44100</property>
  <property name="kdenlive:original.meta.media.1.codec.channels">2</property>
  <property name="kdenlive:original.meta.media.1.codec.name">aac</property>
  <property name="kdenlive:original.meta.media.1.codec.long_name">AAC (Advanced Audio Coding)</property>
  <property name="kdenlive:original.meta.media.1.codec.bit_rate">0</property>
  <property name="kdenlive:original.meta.attr.1.stream.language.markup">eng</property>
  <property name="kdenlive:original.meta.attr.1.stream.HANDLER_NAME.markup">ISO Media file produced by Google Inc.</property>
  <property name="kdenlive:original.meta.attr.1.stream.DURATION.markup">00:00:44.861000000</property>
  <property name="kdenlive:original.meta.attr.HTTP://YOUTUBE.COM/STREAMING/OTF/DURATIONS/112015.markup">Segment-Count: 9&#xd;
Segment-Durations-Ms: 5333,5334,5333(r=1),5334,5333(r=1),5334,2133,&#xd;
&#xd;
</property>
  <property name="kdenlive:original.meta.attr.ENCODER.markup">Lavf58.45.100</property>
  <property name="kdenlive:original.seekable">1</property>
  <property name="kdenlive:original.width">1280</property>
  <property name="kdenlive:original.height">720</property>
  <property name="kdenlive:original.meta.media.sample_aspect_num">1</property>
  <property name="kdenlive:original.meta.media.sample_aspect_den">1</property>
  <property name="kdenlive:original.aspect_ratio">1</property>
  <property name="kdenlive:original.audio_index">1</property>
  <property name="kdenlive:original.video_index">0</property>
  <property name="kdenlive:original.mute_on_pause">0</property>
  <property name="kdenlive:original.mlt_service">avformat-novalidate</property>
  <property name="kdenlive:original.kdenlive:folderid">102</property>
  <property name="kdenlive:original.meta.media.frame_rate_num">30</property>
  <property name="kdenlive:original.meta.media.frame_rate_den">1</property>
  <property name="kdenlive:original.meta.media.colorspace">709</property>
  <property name="kdenlive:original.meta.media.color_trc">2</property>
  <property name="kdenlive:original.meta.media.width">1280</property>
  <property name="kdenlive:original.meta.media.height">720</property>
  <property name="kdenlive:original.meta.media.color_range">mpeg</property>
  <property name="kdenlive:original.kdenlive:id">103</property>
  <property name="kdenlive:original.kdenlive:file_size">5481224</property>
  <property name="kdenlive:original.kdenlive:file_hash">d36267c91a7a07d4705900c3d4f90169</property>
  <property name="kdenlive:original.backup">1</property>
  <property name="global_feed">1</property>
  <property name="xml">was here</property>
  <property name="meta.media.nb_streams">2</property>
  <property name="meta.media.0.stream.type">video</property>
  <property name="meta.media.0.stream.frame_rate">30</property>
  <property name="meta.media.0.stream.sample_aspect_ratio">1</property>
  <property name="meta.media.0.codec.width">960</property>
  <property name="meta.media.0.codec.height">540</property>
  <property name="meta.media.0.codec.rotate">0</property>
  <property name="meta.media.0.codec.frame_rate">1000</property>
  <property name="meta.media.0.codec.pix_fmt">yuvj420p</property>
  <property name="meta.media.0.codec.sample_aspect_ratio">1</property>
  <property name="meta.media.0.codec.colorspace">601</property>
  <property name="meta.media.0.codec.name">mjpeg</property>
  <property name="meta.media.0.codec.long_name">MJPEG (Motion JPEG)</property>
  <property name="meta.media.0.codec.bit_rate">0</property>
  <property name="meta.attr.0.stream.language.markup">eng</property>
  <property name="meta.attr.0.stream.ENCODER.markup">Lavc58.91.100 mjpeg</property>
  <property name="meta.attr.0.stream.DURATION.markup">00:00:44.800000000</property>
  <property name="meta.media.1.stream.type">audio</property>
  <property name="meta.media.1.codec.sample_fmt">s16</property>
  <property name="meta.media.1.codec.sample_rate">44100</property>
  <property name="meta.media.1.codec.channels">2</property>
  <property name="meta.media.1.codec.name">pcm_s16le</property>
  <property name="meta.media.1.codec.long_name">PCM signed 16-bit little-endian</property>
  <property name="meta.media.1.codec.bit_rate">1411200</property>
  <property name="meta.attr.1.stream.language.markup">eng</property>
  <property name="meta.attr.1.stream.HANDLER_NAME.markup">ISO Media file produced by Google Inc.</property>
  <property name="meta.attr.1.stream.ENCODER.markup">Lavc58.91.100 pcm_s16le</property>
  <property name="meta.attr.1.stream.DURATION.markup">00:00:44.861000000</property>
  <property name="meta.attr.HTTP://YOUTUBE.COM/STREAMING/OTF/DURATIONS/112015.markup">Segment-Count: 9&#xd;
Segment-Durations-Ms: 5333,5334,5333(r=1),5334,5333(r=1),5334,2133,&#xd;
&#xd;
</property>
  <property name="meta.attr.ENCODER.markup">Lavf58.45.100</property>
  <property name="meta.media.sample_aspect_num">1</property>
  <property name="meta.media.sample_aspect_den">1</property>
  <property name="meta.media.frame_rate_num">30</property>
  <property name="meta.media.frame_rate_den">1</property>
  <property name="meta.media.colorspace">601</property>
  <property name="meta.media.color_trc">2</property>
  <property name="meta.media.width">960</property>
  <property name="meta.media.height">540</property>
  <property name="meta.media.color_range">full</property>
  <property name="meta.media.top_field_first">0</property>
  <property name="meta.media.progressive">1</property>
  <property name="set.test_audio">1</property>
  <property name="set.test_image">0</property>
 </producer>
 <producer id="producer274" in="00:00:00.000" out="00:00:06.400">
  <property name="length">193</property>
  <property name="eof">pause</property>
  <property name="resource">-6.977444:/home/ryankelln/.cache/kdenlive/proxy/d36267c91a7a07d4705900c3d4f90169.mkv</property>
  <property name="aspect_ratio">1</property>
  <property name="meta.media.nb_streams">2</property>
  <property name="meta.media.0.stream.type">video</property>
  <property name="meta.media.0.stream.frame_rate">30</property>
  <property name="meta.media.0.stream.sample_aspect_ratio">1</property>
  <property name="meta.media.0.codec.width">960</property>
  <property name="meta.media.0.codec.height">540</property>
  <property name="meta.media.0.codec.rotate">0</property>
  <property name="meta.media.0.codec.frame_rate">1000</property>
  <property name="meta.media.0.codec.pix_fmt">yuvj420p</property>
  <property name="meta.media.0.codec.sample_aspect_ratio">1</property>
  <property name="meta.media.0.codec.colorspace">601</property>
  <property name="meta.media.0.codec.name">mjpeg</property>
  <property name="meta.media.0.codec.long_name">MJPEG (Motion JPEG)</property>
  <property name="meta.media.0.codec.bit_rate">0</property>
  <property name="meta.attr.0.stream.language.markup">eng</property>
  <property name="meta.attr.0.stream.ENCODER.markup">Lavc58.91.100 mjpeg</property>
  <property name="meta.attr.0.stream.DURATION.markup">00:00:44.800000000</property>
  <property name="meta.media.1.stream.type">audio</property>
  <property name="meta.media.1.codec.sample_fmt">s16</property>
  <property name="meta.media.1.codec.sample_rate">44100</property>
  <property name="meta.media.1.codec.channels">2</property>
  <property name="meta.media.1.codec.name">pcm_s16le</property>
  <property name="meta.media.1.codec.long_name">PCM signed 16-bit little-endian</property>
  <property name="meta.media.1.codec.bit_rate">1411200</property>
  <property name="meta.attr.1.stream.language.markup">eng</property>
  <property name="meta.attr.1.stream.HANDLER_NAME.markup">ISO Media file produced by Google Inc.</property>
  <property name="meta.attr.1.stream.ENCODER.markup">Lavc58.91.100 pcm_s16le</property>
  <property name="meta.attr.1.stream.DURATION.markup">00:00:44.861000000</property>
  <property name="meta.attr.HTTP://YOUTUBE.COM/STREAMING/OTF/DURATIONS/112015.markup">Segment-Count: 9&#xd;
Segment-Durations-Ms: 5333,5334,5333(r=1),5334,5333(r=1),5334,2133,&#xd;
&#xd;
</property>
  <property name="meta.attr.ENCODER.markup">Lavf58.45.100</property>
  <property name="seekable">1</property>
  <property name="meta.media.sample_aspect_num">1</property>
  <property name="meta.media.sample_aspect_den">1</property>
  <property name="audio_index">1</property>
  <property name="video_index">0</property>
  <property name="mute_on_pause">1</property>
  <property name="warp_speed">-6.97744</property>
  <property name="warp_resource">/home/ryankelln/.cache/kdenlive/proxy/d36267c91a7a07d4705900c3d4f90169.mkv</property>
  <property name="mlt_service">timewarp</property>
  <property name="kdenlive:proxy">/home/ryankelln/.cache/kdenlive/proxy/d36267c91a7a07d4705900c3d4f90169.mkv</property>
  <property name="kdenlive:originalurl">content/footage/Cell through Microscope Free Footage Clip-_Rww1olT3HA.mkv</property>
  <property name="set.test_audio">1</property>
  <property name="set.test_image">0</property>
  <property name="kdenlive:id">88</property>
  <property name="warp_pitch">0</property>
  <property name="meta.media.frame_rate_num">30</property>
  <property name="meta.media.frame_rate_den">1</property>
  <property name="meta.media.colorspace">601</property>
  <property name="meta.media.color_trc">2</property>
  <property name="meta.media.width">960</property>
  <property name="meta.media.height">540</property>
  <property name="meta.media.color_range">full</property>
  <property name="meta.media.top_field_first">0</property>
  <property name="meta.media.progressive">1</property>
 </producer>
 <producer id="producer275" in="00:00:00.000" out="00:00:38.833">
  <property name="length">1167</property>
  <property name="eof">pause</property>
  <property name="resource">/home/ryankelln/.cache/kdenlive/proxy/30ca3f1d3c9f18d29159742999b79d39.mkv</property>
  <property name="audio_index">1</property>
  <property name="video_index">0</property>
  <property name="mute_on_pause">0</property>
  <property name="mlt_service">avformat-novalidate</property>
  <property name="seekable">1</property>
  <property name="aspect_ratio">1</property>
  <property name="kdenlive:clipname">2021-05-18 23-01-54.mp4</property>
  <property name="kdenlive:folderid">-1</property>
  <property name="kdenlive:id">64</property>
  <property name="kdenlive:file_size">12540190</property>
  <property name="kdenlive:file_hash">30ca3f1d3c9f18d29159742999b79d39</property>
  <property name="kdenlive:proxy">/home/ryankelln/.cache/kdenlive/proxy/30ca3f1d3c9f18d29159742999b79d39.mkv</property>
  <property name="kdenlive:originalurl">/home/ryankelln/Documents/Projects/Active/Sound_Escapes/Mac/from_sol/golden-ratio/2021-05-18 23-01-54.mp4</property>
  <property name="kdenlive:original.mlt_type">producer</property>
  <property name="kdenlive:original.in">0</property>
  <property name="kdenlive:original.out">1166</property>
  <property name="kdenlive:original.length">1167</property>
  <property name="kdenlive:original.eof">pause</property>
  <property name="kdenlive:original.resource">/home/ryankelln/Documents/Projects/Active/Sound_Escapes/Mac/from_sol/golden-ratio/2021-05-18 23-01-54.mp4</property>
  <property name="kdenlive:original.meta.media.nb_streams">2</property>
  <property name="kdenlive:original.meta.media.0.stream.type">video</property>
  <property name="kdenlive:original.meta.media.0.stream.frame_rate">30</property>
  <property name="kdenlive:original.meta.media.0.stream.sample_aspect_ratio">0</property>
  <property name="kdenlive:original.meta.media.0.codec.width">1280</property>
  <property name="kdenlive:original.meta.media.0.codec.height">720</property>
  <property name="kdenlive:original.meta.media.0.codec.rotate">0</property>
  <property name="kdenlive:original.meta.media.0.codec.frame_rate">30</property>
  <property name="kdenlive:original.meta.media.0.codec.pix_fmt">yuv420p</property>
  <property name="kdenlive:original.meta.media.0.codec.sample_aspect_ratio">1</property>
  <property name="kdenlive:original.meta.media.0.codec.colorspace">709</property>
  <property name="kdenlive:original.meta.media.0.codec.color_trc">1</property>
  <property name="kdenlive:original.meta.media.0.codec.name">h264</property>
  <property name="kdenlive:original.meta.media.0.codec.long_name">H.264 / AVC / MPEG-4 AVC / MPEG-4 part 10</property>
  <property name="kdenlive:original.meta.media.0.codec.bit_rate">2568172</property>
  <property name="kdenlive:original.meta.attr.0.stream.handler_name.markup">VideoHandler</property>
  <property name="kdenlive:original.meta.media.1.stream.type">audio</property>
  <property name="kdenlive:original.meta.media.1.codec.sample_fmt">fltp</property>
  <property name="kdenlive:original.meta.media.1.codec.sample_rate">48000</property>
  <property name="kdenlive:original.meta.media.1.codec.channels">2</property>
  <property name="kdenlive:original.meta.media.1.codec.name">aac</property>
  <property name="kdenlive:original.meta.media.1.codec.long_name">AAC (Advanced Audio Coding)</property>
  <property name="kdenlive:original.meta.media.1.codec.bit_rate">2275</property>
  <property name="kdenlive:original.meta.attr.1.stream.handler_name.markup">SoundHandler</property>
  <property name="kdenlive:original.meta.attr.major_brand.markup">isom</property>
  <property name="kdenlive:original.meta.attr.minor_version.markup">512</property>
  <property name="kdenlive:original.meta.attr.compatible_brands.markup">isomiso2avc1mp41</property>
  <property name="kdenlive:original.meta.attr.encoder.markup">Lavf58.29.100</property>
  <property name="kdenlive:original.seekable">1</property>
  <property name="kdenlive:original.width">1280</property>
  <property name="kdenlive:original.height">720</property>
  <property name="kdenlive:original.meta.media.sample_aspect_num">1</property>
  <property name="kdenlive:original.meta.media.sample_aspect_den">1</property>
  <property name="kdenlive:original.aspect_ratio">1</property>
  <property name="kdenlive:original.audio_index">1</property>
  <property name="kdenlive:original.video_index">0</property>
  <property name="kdenlive:original.mute_on_pause">0</property>
  <property name="kdenlive:original.mlt_service">avformat-novalidate</property>
  <property name="kdenlive:original.kdenlive:folderid">-1</property>
  <property name="kdenlive:original.meta.media.frame_rate_num">30</property>
  <property name="kdenlive:original.meta.media.frame_rate_den">1</property>
  <property name="kdenlive:original.meta.media.colorspace">709</property>
  <property name="kdenlive:original.meta.media.color_trc">1</property>
  <property name="kdenlive:original.meta.media.width">1280</property>
  <property name="kdenlive:original.meta.media.height">720</property>
  <property name="kdenlive:original.meta.media.color_range">mpeg</property>
  <property name="kdenlive:original.kdenlive:id">77</property>
  <property name="kdenlive:original.kdenlive:file_size">12540190</property>
  <property name="kdenlive:original.kdenlive:file_hash">30ca3f1d3c9f18d29159742999b79d39</property>
  <property name="kdenlive:original.backup">1</property>
  <property name="global_feed">1</property>
  <property name="kdenlive:zone_in">964</property>
  <property name="kdenlive:zone_out">1167</property>
  <property name="kdenlive:clipzones">[
    {
        "in": 964,
        "name": "Zone 1",
        "out": 1167
    }
]
</property>
  <property name="xml">was here</property>
  <property name="meta.media.nb_streams">2</property>
  <property name="meta.media.0.stream.type">video</property>
  <property name="meta.media.0.stream.frame_rate">30</property>
  <property name="meta.media.0.stream.sample_aspect_ratio">1</property>
  <property name="meta.media.0.codec.width">960</property>
  <property name="meta.media.0.codec.height">540</property>
  <property name="meta.media.0.codec.rotate">0</property>
  <property name="meta.media.0.codec.frame_rate">1000</property>
  <property name="meta.media.0.codec.pix_fmt">yuvj420p</property>
  <property name="meta.media.0.codec.sample_aspect_ratio">1</property>
  <property name="meta.media.0.codec.colorspace">601</property>
  <property name="meta.media.0.codec.name">mjpeg</property>
  <property name="meta.media.0.codec.long_name">MJPEG (Motion JPEG)</property>
  <property name="meta.media.0.codec.bit_rate">0</property>
  <property name="meta.attr.0.stream.HANDLER_NAME.markup">VideoHandler</property>
  <property name="meta.attr.0.stream.ENCODER.markup">Lavc58.91.100 mjpeg</property>
  <property name="meta.attr.0.stream.DURATION.markup">00:00:38.866000000</property>
  <property name="meta.media.1.stream.type">audio</property>
  <property name="meta.media.1.codec.sample_fmt">s16</property>
  <property name="meta.media.1.codec.sample_rate">48000</property>
  <property name="meta.media.1.codec.channels">2</property>
  <property name="meta.media.1.codec.name">pcm_s16le</property>
  <property name="meta.media.1.codec.long_name">PCM signed 16-bit little-endian</property>
  <property name="meta.media.1.codec.bit_rate">1536000</property>
  <property name="meta.attr.1.stream.HANDLER_NAME.markup">SoundHandler</property>
  <property name="meta.attr.1.stream.ENCODER.markup">Lavc58.91.100 pcm_s16le</property>
  <property name="meta.attr.1.stream.DURATION.markup">00:00:38.848000000</property>
  <property name="meta.attr.COMPATIBLE_BRANDS.markup">isomiso2avc1mp41</property>
  <property name="meta.attr.MAJOR_BRAND.markup">isom</property>
  <property name="meta.attr.MINOR_VERSION.markup">512</property>
  <property name="meta.attr.ENCODER.markup">Lavf58.45.100</property>
  <property name="meta.media.sample_aspect_num">1</property>
  <property name="meta.media.sample_aspect_den">1</property>
  <property name="meta.media.frame_rate_num">30</property>
  <property name="meta.media.frame_rate_den">1</property>
  <property name="meta.media.colorspace">601</property>
  <property name="meta.media.color_trc">2</property>
  <property name="meta.media.width">960</property>
  <property name="meta.media.height">540</property>
  <property name="meta.media.color_range">full</property>
  <property name="meta.media.top_field_first">0</property>
  <property name="meta.media.progressive">1</property>
  <property name="set.test_audio">1</property>
  <property name="set.test_image">0</property>
 </producer>
 <producer id="producer276" in="00:00:00.000" out="00:04:52.700">
  <property name="length">8782</property>
  <property name="eof">pause</property>
  <property name="resource">content/musicians/2021-06-02_Sarah_kit_mac_00048-take2_from14.mp4</property>
  <property name="audio_index">1</property>
  <property name="video_index">0</property>
  <property name="mute_on_pause">0</property>
  <property name="mlt_service">avformat-novalidate</property>
  <property name="seekable">1</property>
  <property name="aspect_ratio">1.33333</property>
  <property name="kdenlive:clipname"/>
  <property name="kdenlive:folderid">65</property>
  <property name="kdenlive:id">36</property>
  <property name="kdenlive:file_size">254454287</property>
  <property name="kdenlive:file_hash">1cc2880d6f1c485ab826f9cbb3cd87b3</property>
  <property name="kdenlive:audio_max">1</property>
  <property name="global_feed">1</property>
  <property name="kdenlive:activeeffect">-1</property>
  <property name="xml">was here</property>
  <property name="meta.media.nb_streams">2</property>
  <property name="meta.media.0.stream.type">video</property>
  <property name="meta.media.0.stream.frame_rate">59.9401</property>
  <property name="meta.media.0.stream.sample_aspect_ratio">1.33333</property>
  <property name="meta.media.0.codec.width">1440</property>
  <property name="meta.media.0.codec.height">1080</property>
  <property name="meta.media.0.codec.rotate">0</property>
  <property name="meta.media.0.codec.frame_rate">29.97</property>
  <property name="meta.media.0.codec.pix_fmt">yuv420p</property>
  <property name="meta.media.0.codec.sample_aspect_ratio">1.33333</property>
  <property name="meta.media.0.codec.colorspace">709</property>
  <property name="meta.media.0.codec.name">h264</property>
  <property name="meta.media.0.codec.long_name">H.264 / AVC / MPEG-4 AVC / MPEG-4 part 10</property>
  <property name="meta.media.0.codec.bit_rate">6690719</property>
  <property name="meta.attr.0.stream.handler_name.markup">VideoHandler</property>
  <property name="meta.media.1.stream.type">audio</property>
  <property name="meta.media.1.codec.sample_fmt">fltp</property>
  <property name="meta.media.1.codec.sample_rate">48000</property>
  <property name="meta.media.1.codec.channels">2</property>
  <property name="meta.media.1.codec.name">ac3</property>
  <property name="meta.media.1.codec.long_name">ATSC A/52A (AC-3)</property>
  <property name="meta.media.1.codec.bit_rate">256000</property>
  <property name="meta.attr.1.stream.handler_name.markup">SoundHandler</property>
  <property name="meta.attr.major_brand.markup">isom</property>
  <property name="meta.attr.minor_version.markup">512</property>
  <property name="meta.attr.compatible_brands.markup">isomiso2avc1mp41</property>
  <property name="meta.attr.encoder.markup">Lavf58.45.100</property>
  <property name="meta.media.sample_aspect_num">4</property>
  <property name="meta.media.sample_aspect_den">3</property>
  <property name="meta.media.frame_rate_num">60000</property>
  <property name="meta.media.frame_rate_den">1001</property>
  <property name="meta.media.colorspace">709</property>
  <property name="meta.media.color_trc">2</property>
  <property name="meta.media.width">1440</property>
  <property name="meta.media.height">1080</property>
  <property name="meta.media.color_range">mpeg</property>
  <property name="meta.media.top_field_first">1</property>
  <property name="meta.media.progressive">0</property>
  <property name="set.test_audio">1</property>
  <property name="set.test_image">0</property>
 </producer>
 <producer id="producer277" in="00:00:00.000" out="00:02:02.533">
  <property name="length">3677</property>
  <property name="eof">pause</property>
  <property name="resource">content/musicians/2021-06-02_Sarah_kit_mac_00048-take3_end.mp4</property>
  <property name="audio_index">1</property>
  <property name="video_index">0</property>
  <property name="mute_on_pause">0</property>
  <property name="mlt_service">avformat-novalidate</property>
  <property name="seekable">1</property>
  <property name="aspect_ratio">1.33333</property>
  <property name="kdenlive:clipname"/>
  <property name="kdenlive:folderid">65</property>
  <property name="kdenlive:id">37</property>
  <property name="kdenlive:file_size">106278992</property>
  <property name="kdenlive:file_hash">aeb2276b65c072705937c66678af8033</property>
  <property name="kdenlive:audio_max">1</property>
  <property name="global_feed">1</property>
  <property name="xml">was here</property>
  <property name="meta.media.nb_streams">2</property>
  <property name="meta.media.0.stream.type">video</property>
  <property name="meta.media.0.stream.frame_rate">59.9401</property>
  <property name="meta.media.0.stream.sample_aspect_ratio">1.33333</property>
  <property name="meta.media.0.codec.width">1440</property>
  <property name="meta.media.0.codec.height">1080</property>
  <property name="meta.media.0.codec.rotate">0</property>
  <property name="meta.media.0.codec.frame_rate">29.97</property>
  <property name="meta.media.0.codec.pix_fmt">yuv420p</property>
  <property name="meta.media.0.codec.sample_aspect_ratio">1.33333</property>
  <property name="meta.media.0.codec.colorspace">709</property>
  <property name="meta.media.0.codec.name">h264</property>
  <property name="meta.media.0.codec.long_name">H.264 / AVC / MPEG-4 AVC / MPEG-4 part 10</property>
  <property name="meta.media.0.codec.bit_rate">6693721</property>
  <property name="meta.attr.0.stream.handler_name.markup">VideoHandler</property>
  <property name="meta.media.1.stream.type">audio</property>
  <property name="meta.media.1.codec.sample_fmt">fltp</property>
  <property name="meta.media.1.codec.sample_rate">48000</property>
  <property name="meta.media.1.codec.channels">2</property>
  <property name="meta.media.1.codec.name">ac3</property>
  <property name="meta.media.1.codec.long_name">ATSC A/52A (AC-3)</property>
  <property name="meta.media.1.codec.bit_rate">256000</property>
  <property name="meta.attr.1.stream.handler_name.markup">SoundHandler</property>
  <property name="meta.attr.major_brand.markup">isom</property>
  <property name="meta.attr.minor_version.markup">512</property>
  <property name="meta.attr.compatible_brands.markup">isomiso2avc1mp41</property>
  <property name="meta.attr.encoder.markup">Lavf58.45.100</property>
  <property name="meta.media.sample_aspect_num">4</property>
  <property name="meta.media.sample_aspect_den">3</property>
  <property name="meta.media.frame_rate_num">659250000</property>
  <property name="meta.media.frame_rate_den">10998487</property>
  <property name="meta.media.colorspace">709</property>
  <property name="meta.media.color_trc">2</property>
  <property name="meta.media.width">1440</property>
  <property name="meta.media.height">1080</property>
  <property name="meta.media.color_range">mpeg</property>
  <property name="meta.media.top_field_first">1</property>
  <property name="meta.media.progressive">0</property>
  <property name="set.test_audio">1</property>
  <property name="set.test_image">0</property>
 </producer>
 <playlist id="playlist28">
  <blank length="00:00:47.167"/>
  <entry producer="producer273" in="00:00:00.000" out="00:00:30.900">
   <property name="kdenlive:id">88</property>
   <filter id="filter317">
    <property name="rotate_center">1</property>
    <property name="mlt_service">qtblend</property>
    <property name="kdenlive_id">qtblend</property>
    <property name="rect">00:00:00.000=-49 -202 2061 1285 1.000000</property>
    <property name="rotation">00:00:00.000=0</property>
    <property name="compositing">0</property>
    <property name="distort">0</property>
    <property name="kdenlive:collapsed">0</property>
   </filter>
   <filter id="filter318">
    <property name="version">0.1</property>
    <property name="mlt_service">frei0r.alphaspot</property>
    <property name="kdenlive_id">frei0r.alphaspot</property>
    <property name="Shape">0.38</property>
    <property name="Position X">00:00:00.000=0.5</property>
    <property name="Position Y">00:00:00.000=0.394</property>
    <property name="Size X">00:00:00.000=0.295</property>
    <property name="Size Y">00:00:00.000=0.429</property>
    <property name="Tilt">00:00:00.000=0.5</property>
    <property name="Transition width">00:00:00.000=0.224</property>
    <property name="Min">00:00:00.000=0</property>
    <property name="Max">00:00:00.000=1</property>
    <property name="Operation">0</property>
    <property name="kdenlive:collapsed">0</property>
   </filter>
  </entry>
  <entry producer="producer274" in="00:00:01.967" out="00:00:06.367">
   <property name="kdenlive:id">88</property>
   <filter id="filter319">
    <property name="rotate_center">1</property>
    <property name="mlt_service">qtblend</property>
    <property name="kdenlive_id">qtblend</property>
    <property name="rect">00:00:01.967=-49 -202 2061 1285 1.000000</property>
    <property name="rotation">00:00:01.967=0</property>
    <property name="compositing">0</property>
    <property name="distort">0</property>
    <property name="kdenlive:collapsed">0</property>
   </filter>
   <filter id="filter320">
    <property name="version">0.1</property>
    <property name="mlt_service">frei0r.alphaspot</property>
    <property name="kdenlive_id">frei0r.alphaspot</property>
    <property name="Shape">0.38</property>
    <property name="Position X">00:00:01.967=0.5</property>
    <property name="Position Y">00:00:01.967=0.394</property>
    <property name="Size X">00:00:01.967=0.295</property>
    <property name="Size Y">00:00:01.967=0.429</property>
    <property name="Tilt">00:00:01.967=0.5</property>
    <property name="Transition width">00:00:01.967=0.224</property>
    <property name="Min">00:00:01.967=0</property>
    <property name="Max">00:00:01.967=1</property>
    <property name="Operation">0</property>
    <property name="kdenlive:collapsed">0</property>
   </filter>
  </entry>
  <blank length="00:01:59.667"/>
  <entry producer="producer275" in="00:00:00.000" out="00:00:15.333">
   <property name="kdenlive:id">64</property>
   <filter id="filter321" out="00:00:03.767">
    <property name="start">0</property>
    <property name="mlt_service">brightness</property>
    <property name="kdenlive_id">fade_from_black</property>
    <property name="end">1</property>
    <property name="alpha">-1</property>
    <property name="kdenlive:collapsed">0</property>
   </filter>
   <filter id="filter322">
    <property name="mode">alpha</property>
    <property name="alpha_operation">clear</property>
    <property name="invert">0</property>
    <property name="feather">17</property>
    <property name="feather_passes">1</property>
    <property name="mlt_service">rotoscoping</property>
    <property name="kdenlive_id">rotoscoping</property>
    <property name="spline">{
    "000": [
        [
            [
                -0.06771488469601676,
                0.6097014925373133
            ],
            [
                -0.06184486373165619,
                0.832089552238806
            ],
            [
                0.1029350104821803,
                0.6544776119402984
            ]
        ],
        [
            [
                0.580503144654088,
                0.06940298507462687
            ],
            [
                0.7452830188679245,
                -0.1082089552238806
            ],
            [
                0.5746331236897274,
                -0.15298507462686567
            ]
        ],
        [
            [
                0.06268343815513625,
                -0.2873134328358209
            ],
            [
                -0.10796645702306079,
                -0.332089552238806
            ],
            [
                -0.10209643605870021,
                -0.10970149253731341
            ]
        ]
    ],
    "007": [
        [
            [
                -0.0991614255765199,
                0.7402985074626864
            ],
            [
                -0.09329140461215933,
                0.9626865671641791
            ],
            [
                0.07148846960167715,
                0.7850746268656715
            ]
        ],
        [
            [
                0.6685534591194969,
                0.04701492537313433
            ],
            [
                0.8333333333333334,
                -0.13059701492537315
            ],
            [
                0.6626834381551363,
                -0.1753731343283582
            ]
        ],
        [
            [
                0.06268343815513625,
                -0.2873134328358209
            ],
            [
                -0.10796645702306079,
                -0.332089552238806
            ],
            [
                -0.10209643605870021,
                -0.10970149253731341
            ]
        ]
    ],
    "027": [
        [
            [
                -0.19979035639412998,
                0.9865671641791045
            ],
            [
                -0.1939203354297694,
                1.208955223880597
            ],
            [
                -0.029140461215932945,
                1.0313432835820893
            ]
        ],
        [
            [
                0.8635220125786164,
                -0.020149253731343318
            ],
            [
                1.0283018867924527,
                -0.19776119402985076
            ],
            [
                0.8576519916142558,
                -0.2425373134328358
            ]
        ],
        [
            [
                0.06268343815513625,
                -0.2873134328358209
            ],
            [
                -0.10796645702306079,
                -0.332089552238806
            ],
            [
                -0.10209643605870021,
                -0.10970149253731341
            ]
        ]
    ],
    "035": [
        [
            [
                -0.14737945492662474,
                1.2477611940298505
            ],
            [
                -0.14150943396226415,
                1.4701492537313432
            ],
            [
                0.023270440251572308,
                1.2925373134328355
            ]
        ],
        [
            [
                0.9893081761006288,
                -0.001492537313432869
            ],
            [
                1.1540880503144655,
                -0.1791044776119403
            ],
            [
                0.9834381551362682,
                -0.22388059701492538
            ]
        ],
        [
            [
                0.06268343815513625,
                -0.2873134328358209
            ],
            [
                -0.10796645702306079,
                -0.332089552238806
            ],
            [
                -0.10209643605870021,
                -0.10970149253731341
            ]
        ]
    ],
    "042": [
        [
            [
                -0.14737945492662474,
                1.2477611940298505
            ],
            [
                -0.14150943396226415,
                1.4701492537313432
            ],
            [
                0.023270440251572308,
                1.2925373134328355
            ]
        ],
        [
            [
                1.020754716981132,
                -0.005223880597015044
            ],
            [
                1.1855345911949686,
                -0.1828358208955224
            ],
            [
                1.0148846960167714,
                -0.22761194029850754
            ]
        ],
        [
            [
                0.06268343815513625,
                -0.2873134328358209
            ],
            [
                -0.10796645702306079,
                -0.332089552238806
            ],
            [
                -0.10209643605870021,
                -0.10970149253731341
            ]
        ]
    ],
    "050": [
        [
            [
                -0.14737945492662474,
                1.2477611940298505
            ],
            [
                -0.14150943396226415,
                1.4701492537313432
            ],
            [
                0.023270440251572308,
                1.2925373134328355
            ]
        ],
        [
            [
                1.0480083857442346,
                0.024626865671641678
            ],
            [
                1.2127882599580713,
                -0.15298507462686567
            ],
            [
                1.042138364779874,
                -0.19776119402985082
            ]
        ],
        [
            [
                0.06268343815513625,
                -0.2873134328358209
            ],
            [
                -0.10796645702306079,
                -0.332089552238806
            ],
            [
                -0.10209643605870021,
                -0.10970149253731341
            ]
        ]
    ],
    "076": [
        [
            [
                -0.15366876310272534,
                1.2141791044776118
            ],
            [
                -0.14779874213836477,
                1.4365671641791045
            ],
            [
                0.016981132075471694,
                1.2589552238805968
            ]
        ],
        [
            [
                1.0333333333333332,
                -0.0014925373134329724
            ],
            [
                1.1981132075471699,
                -0.1791044776119403
            ],
            [
                1.0274633123689727,
                -0.22388059701492546
            ]
        ],
        [
            [
                0.06268343815513625,
                -0.2873134328358209
            ],
            [
                -0.10796645702306079,
                -0.332089552238806
            ],
            [
                -0.10209643605870021,
                -0.10970149253731341
            ]
        ]
    ],
    "084": [
        [
            [
                -0.17044025157232703,
                1.1992537313432834
            ],
            [
                -0.16457023060796644,
                1.421641791044776
            ],
            [
                0.00020964360587002093,
                1.2440298507462684
            ]
        ],
        [
            [
                1.012368972746331,
                -0.016417910447761332
            ],
            [
                1.1771488469601676,
                -0.19402985074626866
            ],
            [
                1.0064989517819705,
                -0.2388059701492538
            ]
        ],
        [
            [
                0.06268343815513625,
                -0.2873134328358209
            ],
            [
                -0.10796645702306079,
                -0.332089552238806
            ],
            [
                -0.10209643605870021,
                -0.10970149253731341
            ]
        ]
    ],
    "100": [
        [
            [
                -0.17044025157232703,
                1.1992537313432834
            ],
            [
                -0.16457023060796644,
                1.421641791044776
            ],
            [
                0.00020964360587002093,
                1.2440298507462684
            ]
        ],
        [
            [
                0.9997903563941299,
                -0.023880597014925526
            ],
            [
                1.1645702306079666,
                -0.20149253731343286
            ],
            [
                0.9939203354297693,
                -0.246268656716418
            ]
        ],
        [
            [
                0.06268343815513625,
                -0.2873134328358209
            ],
            [
                -0.10796645702306079,
                -0.332089552238806
            ],
            [
                -0.10209643605870021,
                -0.10970149253731341
            ]
        ]
    ],
    "117": [
        [
            [
                -0.15786163522012578,
                1.1246268656716416
            ],
            [
                -0.15199161425576518,
                1.3470149253731345
            ],
            [
                0.012788259958071277,
                1.1694029850746264
            ]
        ],
        [
            [
                0.9767295597484276,
                -0.05373134328358222
            ],
            [
                1.141509433962264,
                -0.23134328358208955
            ],
            [
                0.9708595387840669,
                -0.2761194029850747
            ]
        ],
        [
            [
                0.06268343815513625,
                -0.2873134328358209
            ],
            [
                -0.10796645702306079,
                -0.332089552238806
            ],
            [
                -0.10209643605870021,
                -0.10970149253731341
            ]
        ]
    ],
    "127": [
        [
            [
                -0.1641509433962264,
                1.1246268656716416
            ],
            [
                -0.15828092243186584,
                1.3470149253731345
            ],
            [
                -0.0010482180293501185,
                1.1567164179104477
            ]
        ],
        [
            [
                0.9620545073375262,
                -0.08358208955223896
            ],
            [
                1.1268343815513626,
                -0.2611940298507463
            ],
            [
                0.9561844863731656,
                -0.3059701492537314
            ]
        ],
        [
            [
                0.06268343815513625,
                -0.2873134328358209
            ],
            [
                -0.10796645702306079,
                -0.332089552238806
            ],
            [
                -0.10209643605870021,
                -0.10970149253731341
            ]
        ]
    ],
    "137": [
        [
            [
                -0.17882599580712785,
                1.020149253731343
            ],
            [
                -0.17295597484276728,
                1.242537313432836
            ],
            [
                -0.01572327044025157,
                1.0522388059701493
            ]
        ],
        [
            [
                0.9264150943396227,
                -0.09850746268656702
            ],
            [
                1.0911949685534592,
                -0.27611940298507465
            ],
            [
                0.920545073375262,
                -0.32089552238805946
            ]
        ],
        [
            [
                0.06268343815513625,
                -0.2873134328358209
            ],
            [
                -0.10796645702306079,
                -0.332089552238806
            ],
            [
                -0.10209643605870021,
                -0.10970149253731341
            ]
        ]
    ],
    "148": [
        [
            [
                -0.17672955974842766,
                0.9828358208955219
            ],
            [
                -0.1708595387840671,
                1.2052238805970148
            ],
            [
                -0.013626834381551385,
                1.0149253731343282
            ]
        ],
        [
            [
                0.8991614255765197,
                -0.13208955223880572
            ],
            [
                1.0639412997903563,
                -0.30970149253731344
            ],
            [
                0.8932914046121591,
                -0.3544776119402982
            ]
        ],
        [
            [
                0.06268343815513625,
                -0.2873134328358209
            ],
            [
                -0.10796645702306079,
                -0.332089552238806
            ],
            [
                -0.10209643605870021,
                -0.10970149253731341
            ]
        ]
    ],
    "166": [
        [
            [
                -0.1830188679245283,
                0.8820895522388056
            ],
            [
                -0.1771488469601677,
                1.1044776119402986
            ],
            [
                -0.019916142557652,
                0.9141791044776117
            ]
        ],
        [
            [
                0.8530398322851142,
                -0.1656716417910446
            ],
            [
                1.0178197064989518,
                -0.34328358208955223
            ],
            [
                0.8471698113207535,
                -0.38805970149253705
            ]
        ],
        [
            [
                0.06268343815513625,
                -0.2873134328358209
            ],
            [
                -0.10796645702306079,
                -0.332089552238806
            ],
            [
                -0.10209643605870021,
                -0.10970149253731341
            ]
        ]
    ],
    "175": [
        [
            [
                -0.1851153039832285,
                0.7589552238805966
            ],
            [
                -0.1792452830188679,
                0.9813432835820894
            ],
            [
                -0.022012578616352217,
                0.7910447761194027
            ]
        ],
        [
            [
                0.8194968553459105,
                -0.17313432835820883
            ],
            [
                0.9842767295597484,
                -0.3507462686567164
            ],
            [
                0.8136268343815499,
                -0.39552238805970125
            ]
        ],
        [
            [
                0.06268343815513625,
                -0.2873134328358209
            ],
            [
                -0.10796645702306079,
                -0.332089552238806
            ],
            [
                -0.10209643605870021,
                -0.10970149253731341
            ]
        ]
    ],
    "182": [
        [
            [
                -0.20817610062893083,
                0.6694029850746268
            ],
            [
                -0.20230607966457023,
                0.8917910447761195
            ],
            [
                -0.04507337526205454,
                0.7014925373134328
            ]
        ],
        [
            [
                0.7901467505241075,
                -0.17313432835820894
            ],
            [
                0.9549266247379454,
                -0.3507462686567164
            ],
            [
                0.7842767295597469,
                -0.3955223880597014
            ]
        ],
        [
            [
                0.06268343815513625,
                -0.2873134328358209
            ],
            [
                -0.10796645702306079,
                -0.332089552238806
            ],
            [
                -0.10209643605870021,
                -0.10970149253731341
            ]
        ]
    ],
    "190": [
        [
            [
                -0.1620545073375262,
                0.7328358208955222
            ],
            [
                -0.1561844863731656,
                0.9552238805970148
            ],
            [
                0.0010482180293500973,
                0.7649253731343283
            ]
        ],
        [
            [
                0.8236897274633103,
                -0.16194029850746286
            ],
            [
                0.9884696016771488,
                -0.3395522388059702
            ],
            [
                0.8178197064989496,
                -0.38432835820895533
            ]
        ],
        [
            [
                0.06268343815513625,
                -0.2873134328358209
            ],
            [
                -0.10796645702306079,
                -0.332089552238806
            ],
            [
                -0.10209643605870021,
                -0.10970149253731341
            ]
        ]
    ],
    "196": [
        [
            [
                -0.1662473794549266,
                0.7850746268656715
            ],
            [
                -0.16037735849056603,
                1.007462686567164
            ],
            [
                -0.003144654088050321,
                0.8171641791044776
            ]
        ],
        [
            [
                0.8698113207547149,
                -0.10970149253731351
            ],
            [
                1.0345911949685533,
                -0.2873134328358209
            ],
            [
                0.8639412997903543,
                -0.33208955223880604
            ]
        ],
        [
            [
                0.06268343815513625,
                -0.2873134328358209
            ],
            [
                -0.10796645702306079,
                -0.332089552238806
            ],
            [
                -0.10209643605870021,
                -0.10970149253731341
            ]
        ]
    ],
    "205": [
        [
            [
                -0.1662473794549266,
                0.7850746268656715
            ],
            [
                -0.16037735849056603,
                1.007462686567164
            ],
            [
                -0.003144654088050321,
                0.8171641791044776
            ]
        ],
        [
            [
                0.8425576519916107,
                -0.15074626865671645
            ],
            [
                1.0073375262054507,
                -0.3283582089552239
            ],
            [
                0.8366876310272501,
                -0.373134328358209
            ]
        ],
        [
            [
                0.06268343815513625,
                -0.2873134328358209
            ],
            [
                -0.10796645702306079,
                -0.332089552238806
            ],
            [
                -0.10209643605870021,
                -0.10970149253731341
            ]
        ]
    ],
    "222": [
        [
            [
                -0.15157232704402515,
                0.8261194029850745
            ],
            [
                -0.14570230607966458,
                1.0485074626865671
            ],
            [
                0.01153039832285113,
                0.8582089552238806
            ]
        ],
        [
            [
                0.8467505241090106,
                -0.12835820895522393
            ],
            [
                1.0115303983228512,
                -0.30597014925373134
            ],
            [
                0.84088050314465,
                -0.35074626865671643
            ]
        ],
        [
            [
                0.06268343815513625,
                -0.2873134328358209
            ],
            [
                -0.10796645702306079,
                -0.332089552238806
            ],
            [
                -0.10209643605870021,
                -0.10970149253731341
            ]
        ]
    ],
    "231": [
        [
            [
                -0.15157232704402515,
                0.8261194029850745
            ],
            [
                -0.14570230607966458,
                1.0485074626865671
            ],
            [
                0.01153039832285113,
                0.8582089552238806
            ]
        ],
        [
            [
                0.8823899371069142,
                -0.10223880597014924
            ],
            [
                1.0471698113207546,
                -0.27985074626865675
            ],
            [
                0.8765199161425535,
                -0.3246268656716418
            ]
        ],
        [
            [
                0.06268343815513625,
                -0.2873134328358209
            ],
            [
                -0.10796645702306079,
                -0.332089552238806
            ],
            [
                -0.10209643605870021,
                -0.10970149253731341
            ]
        ]
    ],
    "245": [
        [
            [
                -0.13270440251572327,
                0.8597014925373134
            ],
            [
                -0.12683438155136267,
                1.082089552238806
            ],
            [
                0.030398322851152997,
                0.8917910447761196
            ]
        ],
        [
            [
                0.9096436058700159,
                -0.06865671641791007
            ],
            [
                1.0744234800838575,
                -0.2462686567164179
            ],
            [
                0.9037735849056553,
                -0.29104477611940266
            ]
        ],
        [
            [
                0.06268343815513625,
                -0.2873134328358209
            ],
            [
                -0.10796645702306079,
                -0.332089552238806
            ],
            [
                -0.10209643605870021,
                -0.10970149253731341
            ]
        ]
    ],
    "282": [
        [
            [
                -0.120125786163522,
                0.904477611940298
            ],
            [
                -0.11425576519916142,
                1.126865671641791
            ],
            [
                0.04297693920335425,
                0.9365671641791042
            ]
        ],
        [
            [
                0.920125786163517,
                -0.0014925373134324939
            ],
            [
                1.0849056603773586,
                -0.1791044776119403
            ],
            [
                0.9142557651991564,
                -0.22388059701492496
            ]
        ],
        [
            [
                0.06268343815513625,
                -0.2873134328358209
            ],
            [
                -0.10796645702306079,
                -0.332089552238806
            ],
            [
                -0.10209643605870021,
                -0.10970149253731341
            ]
        ]
    ],
    "298": [
        [
            [
                -0.13689727463312362,
                0.8708955223880592
            ],
            [
                -0.13102725366876308,
                1.0932835820895523
            ],
            [
                0.026205450733752578,
                0.9029850746268655
            ]
        ],
        [
            [
                0.8928721174004138,
                0.009701492537313743
            ],
            [
                1.0576519916142557,
                -0.16791044776119404
            ],
            [
                0.8870020964360532,
                -0.21268656716417875
            ]
        ],
        [
            [
                0.06268343815513625,
                -0.2873134328358209
            ],
            [
                -0.10796645702306079,
                -0.332089552238806
            ],
            [
                -0.10209643605870021,
                -0.10970149253731341
            ]
        ]
    ],
    "366": [
        [
            [
                -0.13689727463312362,
                0.8708955223880592
            ],
            [
                -0.13102725366876308,
                1.0932835820895523
            ],
            [
                0.026205450733752578,
                0.9029850746268655
            ]
        ],
        [
            [
                0.8928721174004138,
                0.009701492537313743
            ],
            [
                1.0576519916142557,
                -0.16791044776119404
            ],
            [
                0.8870020964360532,
                -0.21268656716417875
            ]
        ],
        [
            [
                0.06268343815513625,
                -0.2873134328358209
            ],
            [
                -0.10796645702306079,
                -0.332089552238806
            ],
            [
                -0.10209643605870021,
                -0.10970149253731341
            ]
        ]
    ],
    "376": [
        [
            [
                -0.1746331236897274,
                0.7589552238805964
            ],
            [
                -0.16876310272536685,
                0.9813432835820894
            ],
            [
                -0.011530398322851203,
                0.7910447761194027
            ]
        ],
        [
            [
                0.836268343815508,
                -0.008955223880596714
            ],
            [
                1.00104821802935,
                -0.1865671641791045
            ],
            [
                0.8303983228511473,
                -0.2313432835820892
            ]
        ],
        [
            [
                0.06268343815513625,
                -0.2873134328358209
            ],
            [
                -0.10796645702306079,
                -0.332089552238806
            ],
            [
                -0.10209643605870021,
                -0.10970149253731341
            ]
        ]
    ],
    "384": [
        [
            [
                -0.18930817610062886,
                0.7291044776119399
            ],
            [
                -0.18343815513626835,
                0.9514925373134329
            ],
            [
                -0.026205450733752682,
                0.7611940298507466
            ]
        ],
        [
            [
                0.7566037735848999,
                -0.07238805970149224
            ],
            [
                0.921383647798742,
                -0.25
            ],
            [
                0.7507337526205393,
                -0.2947761194029848
            ]
        ],
        [
            [
                0.06268343815513625,
                -0.2873134328358209
            ],
            [
                -0.10796645702306079,
                -0.332089552238806
            ],
            [
                -0.10209643605870021,
                -0.10970149253731341
            ]
        ]
    ],
    "392": [
        [
            [
                -0.20817610062893077,
                0.7216417910447757
            ],
            [
                -0.20230607966457023,
                0.9440298507462687
            ],
            [
                -0.04507337526205458,
                0.7537313432835824
            ]
        ],
        [
            [
                0.7293501048217973,
                -0.11343283582089517
            ],
            [
                0.8941299790356394,
                -0.291044776119403
            ],
            [
                0.7234800838574367,
                -0.33582089552238775
            ]
        ],
        [
            [
                0.06268343815513625,
                -0.2873134328358209
            ],
            [
                -0.10796645702306079,
                -0.332089552238806
            ],
            [
                -0.10209643605870021,
                -0.10970149253731341
            ]
        ]
    ],
    "408": [
        [
            [
                -0.20817610062893077,
                0.7216417910447757
            ],
            [
                -0.20230607966457023,
                0.9440298507462687
            ],
            [
                -0.04507337526205458,
                0.7537313432835824
            ]
        ],
        [
            [
                0.7293501048217973,
                -0.11343283582089517
            ],
            [
                0.8941299790356394,
                -0.291044776119403
            ],
            [
                0.7234800838574367,
                -0.33582089552238775
            ]
        ],
        [
            [
                0.06268343815513625,
                -0.2873134328358209
            ],
            [
                -0.10796645702306079,
                -0.332089552238806
            ],
            [
                -0.10209643605870021,
                -0.10970149253731341
            ]
        ]
    ],
    "416": [
        [
            [
                -0.22285115303983222,
                0.6843283582089548
            ],
            [
                -0.21698113207547168,
                0.9067164179104478
            ],
            [
                -0.05974842767295603,
                0.7164179104477615
            ]
        ],
        [
            [
                0.7062893081760949,
                -0.13955223880596984
            ],
            [
                0.871069182389937,
                -0.31716417910447764
            ],
            [
                0.7004192872117343,
                -0.3619402985074624
            ]
        ],
        [
            [
                0.06268343815513625,
                -0.2873134328358209
            ],
            [
                -0.10796645702306079,
                -0.332089552238806
            ],
            [
                -0.10209643605870021,
                -0.10970149253731341
            ]
        ]
    ],
    "420": [
        [
            [
                -0.23333333333333328,
                0.6022388059701488
            ],
            [
                -0.22746331236897274,
                0.8246268656716418
            ],
            [
                -0.0702306079664571,
                0.6343283582089556
            ]
        ],
        [
            [
                0.676939203354292,
                -0.1507462686567161
            ],
            [
                0.8417190775681341,
                -0.3283582089552239
            ],
            [
                0.6710691823899314,
                -0.37313432835820864
            ]
        ],
        [
            [
                0.06268343815513625,
                -0.2873134328358209
            ],
            [
                -0.10796645702306079,
                -0.332089552238806
            ],
            [
                -0.10209643605870021,
                -0.10970149253731341
            ]
        ]
    ],
    "429": [
        [
            [
                -0.23542976939203347,
                0.5388059701492531
            ],
            [
                -0.22955974842767293,
                0.7611940298507462
            ],
            [
                -0.07232704402515729,
                0.5708955223880599
            ]
        ],
        [
            [
                0.5448637316561789,
                -0.15074626865671623
            ],
            [
                0.709643605870021,
                -0.3283582089552239
            ],
            [
                0.5389937106918182,
                -0.37313432835820876
            ]
        ],
        [
            [
                0.06268343815513625,
                -0.2873134328358209
            ],
            [
                -0.10796645702306079,
                -0.332089552238806
            ],
            [
                -0.10209643605870021,
                -0.10970149253731341
            ]
        ]
    ],
    "440": [
        [
            [
                -0.2417190775681341,
                0.5537313432835815
            ],
            [
                -0.2358490566037736,
                0.7761194029850746
            ],
            [
                -0.07861635220125793,
                0.5858208955223883
            ]
        ],
        [
            [
                0.5238993710691767,
                -0.173134328358209
            ],
            [
                0.6886792452830188,
                -0.3507462686567164
            ],
            [
                0.5180293501048161,
                -0.3955223880597016
            ]
        ],
        [
            [
                0.06268343815513625,
                -0.2873134328358209
            ],
            [
                -0.10796645702306079,
                -0.332089552238806
            ],
            [
                -0.10209643605870021,
                -0.10970149253731341
            ]
        ]
    ],
    "445": [
        [
            [
                -0.26687631027253655,
                0.4567164179104474
            ],
            [
                -0.2610062893081761,
                0.6791044776119404
            ],
            [
                -0.10377358490566041,
                0.4888059701492541
            ]
        ],
        [
            [
                0.4190775681341663,
                -0.22164179104477622
            ],
            [
                0.5838574423480084,
                -0.3992537313432836
            ],
            [
                0.4132075471698057,
                -0.4440298507462688
            ]
        ],
        [
            [
                0.06268343815513625,
                -0.2873134328358209
            ],
            [
                -0.10796645702306079,
                -0.332089552238806
            ],
            [
                -0.10209643605870021,
                -0.10970149253731341
            ]
        ]
    ],
    "451": [
        [
            [
                -0.3255765199161424,
                0.28134328358208893
            ],
            [
                -0.319706498951782,
                0.503731343283582
            ],
            [
                -0.16247379454926633,
                0.31343283582089554
            ]
        ],
        [
            [
                0.27442348008385176,
                -0.31119402985074646
            ],
            [
                0.4392033542976939,
                -0.48880597014925375
            ],
            [
                0.2685534591194912,
                -0.5335820895522391
            ]
        ],
        [
            [
                0.06268343815513625,
                -0.2873134328358209
            ],
            [
                -0.10796645702306079,
                -0.332089552238806
            ],
            [
                -0.10209643605870021,
                -0.10970149253731341
            ]
        ]
    ],
    "455": [
        [
            [
                -0.38008385744234785,
                0.13582089552238755
            ],
            [
                -0.3742138364779874,
                0.3582089552238806
            ],
            [
                -0.21698113207547173,
                0.1679104477611941
            ]
        ],
        [
            [
                0.22620545073374695,
                -0.3559701492537315
            ],
            [
                0.3909853249475891,
                -0.5335820895522388
            ],
            [
                0.22033542976938633,
                -0.578358208955224
            ]
        ],
        [
            [
                -0.02327044025157236,
                -0.41044776119402987
            ],
            [
                -0.1939203354297694,
                -0.45522388059701496
            ],
            [
                -0.1880503144654088,
                -0.23283582089552238
            ]
        ]
    ]
}
</property>
    <property name="kdenlive:collapsed">0</property>
   </filter>
  </entry>
  <blank length="00:00:36.300"/>
  <entry producer="producer276" in="00:02:56.500" out="00:03:56.467">
   <property name="kdenlive:id">36</property>
   <property name="kdenlive:activeeffect">2</property>
   <filter id="filter323">
    <property name="version">0.6</property>
    <property name="mlt_service">frei0r.select0r</property>
    <property name="kdenlive_id">frei0r.select0r</property>
    <property name="Color to select">0x379f55ff</property>
    <property name="Invert selection">1</property>
    <property name="Selection subspace">1</property>
    <property name="Subspace shape">0.5</property>
    <property name="Edge mode">0.9</property>
    <property name="Delta R / A / Hue">00:02:56.500=0.025</property>
    <property name="Delta G / B / Chroma">00:02:56.500=0.23</property>
    <property name="Delta B / I / I">00:02:56.500=0.435</property>
    <property name="Slope">00:02:56.500=0.16</property>
    <property name="Operation">0.5</property>
    <property name="kdenlive:collapsed">0</property>
   </filter>
   <filter id="filter324">
    <property name="mlt_service">avfilter.despill</property>
    <property name="kdenlive_id">avfilter.despill</property>
    <property name="av.type">green</property>
    <property name="av.mix">0.357</property>
    <property name="av.expand">0.047</property>
    <property name="av.red">0</property>
    <property name="av.green">-1</property>
    <property name="av.blue">0</property>
    <property name="av.brightness">0</property>
    <property name="kdenlive:collapsed">0</property>
   </filter>
   <filter id="filter325">
    <property name="mode">alpha</property>
    <property name="alpha_operation">max</property>
    <property name="invert">0</property>
    <property name="feather">4</property>
    <property name="feather_passes">1</property>
    <property name="mlt_service">rotoscoping</property>
    <property name="kdenlive_id">rotoscoping</property>
    <property name="spline">{
    "0061": [
        [
            [
                -0.06352201257861635,
                0.5738805970149253
            ],
            [
                -0.0220125786163522,
                0.5895522388059701
            ],
            [
                -0.0014675052410901427,
                0.6022388059701492
            ]
        ],
        [
            [
                0.0750816104461371,
                0.5880077369439072
            ],
            [
                0.08071278825995808,
                0.6529850746268657
            ],
            [
                0.05658324265505985,
                0.7079303675048356
            ]
        ],
        [
            [
                -0.014884696016771485,
                0.7186567164179104
            ],
            [
                -0.038784067085953874,
                0.7350746268656716
            ],
            [
                -0.035429769392033544,
                0.8029850746268656
            ]
        ],
        [
            [
                -0.025366876310272533,
                1.0067164179104477
            ],
            [
                -0.0220125786163522,
                1.0746268656716418
            ],
            [
                0.02368972746331237,
                1.0671641791044777
            ]
        ],
        [
            [
                0.17355775920869235,
                1.0384104621957908
            ],
            [
                0.2192600652883569,
                1.0309477756286267
            ],
            [
                0.11588683351468988,
                0.981624758220503
            ]
        ],
        [
            [
                0.025815363066682185,
                0.9321934813360665
            ],
            [
                0.046789989118607184,
                0.8868471953578337
            ],
            [
                0.0941240478781284,
                0.7872340425531915
            ]
        ],
        [
            [
                0.2541250059881878,
                0.8345694159762117
            ],
            [
                0.2981501632208923,
                0.8278529980657641
            ],
            [
                0.3342088634305359,
                0.8412858338866595
            ]
        ],
        [
            [
                0.4264004945672878,
                0.8753485955137273
            ],
            [
                0.4624591947769314,
                0.8887814313346228
            ],
            [
                0.560391730141458,
                0.9458413926499034
            ]
        ],
        [
            [
                0.5049114546620043,
                0.9928115707728283
            ],
            [
                0.5195865070729053,
                1.0077369439071566
            ],
            [
                0.5334229850603269,
                0.9995279886832761
            ]
        ],
        [
            [
                0.5516866158868335,
                0.9593810444874274
            ],
            [
                0.5794341675734495,
                0.9506769825918763
            ],
            [
                0.5924320711373908,
                0.9372441467709808
            ]
        ],
        [
            [
                0.5761697497279652,
                0.913926499032882
            ],
            [
                0.6539717083786726,
                0.8713733075435204
            ],
            [
                0.7143634385201306,
                0.855899419729207
            ]
        ],
        [
            [
                0.7393906420021763,
                0.8636363636363636
            ],
            [
                0.7665941240478781,
                0.8713733075435204
            ],
            [
                0.7858813357879201,
                0.883313606050983
            ]
        ],
        [
            [
                0.8313384113166485,
                0.9061895551257255
            ],
            [
                0.838411316648531,
                0.9758220502901355
            ],
            [
                0.8400884654954912,
                0.9974638413349116
            ]
        ],
        [
            [
                0.8442348008385744,
                1.0305970149253731
            ],
            [
                0.8459119496855346,
                1.0522388059701493
            ],
            [
                0.881132075471698,
                1.1029850746268657
            ]
        ],
        [
            [
                0.9867924528301887,
                1.255223880597015
            ],
            [
                1.022012578616352,
                1.3059701492537314
            ],
            [
                1.0245283018867923,
                1.2149253731343284
            ]
        ],
        [
            [
                1.032075471698113,
                0.9417910447761194
            ],
            [
                1.0345911949685533,
                0.8507462686567164
            ],
            [
                1.0174004192872117,
                0.8589552238805971
            ]
        ],
        [
            [
                0.984221980413493,
                0.8713733075435205
            ],
            [
                0.9281828073993471,
                0.8781431334622825
            ],
            [
                0.8280739934711644,
                0.8626692456479691
            ]
        ],
        [
            [
                0.8356909684439608,
                0.8491295938104448
            ],
            [
                0.8182807399347117,
                0.8230174081237911
            ],
            [
                0.7475516866158869,
                0.7911025145067699
            ]
        ],
        [
            [
                0.7453822516955128,
                0.7555212332919546
            ],
            [
                0.7442872687704026,
                0.7524177949709865
            ],
            [
                0.7132752992383026,
                0.6721470019342358
            ]
        ],
        [
            [
                0.823177366702938,
                0.6653771760154739
            ],
            [
                0.8498367791077258,
                0.6624758220502901
            ],
            [
                0.8661588683351469,
                0.6450676982591876
            ]
        ],
        [
            [
                0.9265813948713738,
                0.6225064233955949
            ],
            [
                0.9455930359085963,
                0.6431334622823984
            ],
            [
                0.9673959709190786,
                0.6558200294465776
            ]
        ],
        [
            [
                1.0023060796645702,
                0.7
            ],
            [
                1.0241090146750524,
                0.7126865671641791
            ],
            [
                1.0542976939203355,
                0.7305970149253731
            ]
        ],
        [
            [
                1.1448637316561843,
                0.7843283582089553
            ],
            [
                1.1750524109014675,
                0.8022388059701493
            ],
            [
                1.1670859538784066,
                0.917910447761194
            ]
        ],
        [
            [
                1.1431865828092242,
                1.2649253731343284
            ],
            [
                1.1352201257861634,
                1.380597014925373
            ],
            [
                1.0115303983228512,
                1.3888059701492537
            ]
        ],
        [
            [
                0.640461215932914,
                1.4134328358208954
            ],
            [
                0.5167714884696016,
                1.421641791044776
            ],
            [
                0.360377358490566,
                1.4111940298507462
            ]
        ],
        [
            [
                -0.1088050314465409,
                1.3798507462686567
            ],
            [
                -0.26519916142557654,
                1.369402985074627
            ],
            [
                -0.2580712788259958,
                1.1977611940298507
            ]
        ],
        [
            [
                -0.23668763102725368,
                0.6828358208955224
            ],
            [
                -0.22955974842767293,
                0.5111940298507462
            ],
            [
                -0.1880503144654088,
                0.526865671641791
            ]
        ]
    ],
    "5295": [
        [
            [
                -0.06352201257861635,
                0.5738805970149253
            ],
            [
                -0.0220125786163522,
                0.5895522388059701
            ],
            [
                -0.0014675052410901427,
                0.6022388059701492
            ]
        ],
        [
            [
                0.0750816104461371,
                0.5880077369439072
            ],
            [
                0.08071278825995808,
                0.6529850746268657
            ],
            [
                0.05658324265505985,
                0.7079303675048356
            ]
        ],
        [
            [
                -0.014884696016771485,
                0.7186567164179104
            ],
            [
                -0.038784067085953874,
                0.7350746268656716
            ],
            [
                -0.035429769392033544,
                0.8029850746268656
            ]
        ],
        [
            [
                -0.025366876310272533,
                1.0067164179104477
            ],
            [
                -0.0220125786163522,
                1.0746268656716418
            ],
            [
                0.02368972746331237,
                1.0671641791044777
            ]
        ],
        [
            [
                0.17355775920869235,
                1.0384104621957908
            ],
            [
                0.2192600652883569,
                1.0309477756286267
            ],
            [
                0.11588683351468988,
                0.981624758220503
            ]
        ],
        [
            [
                0.025815363066682185,
                0.9321934813360665
            ],
            [
                0.046789989118607184,
                0.8868471953578337
            ],
            [
                0.0941240478781284,
                0.7872340425531915
            ]
        ],
        [
            [
                0.2541250059881878,
                0.8345694159762117
            ],
            [
                0.2981501632208923,
                0.8278529980657641
            ],
            [
                0.3342088634305359,
                0.8412858338866595
            ]
        ],
        [
            [
                0.4264004945672878,
                0.8753485955137273
            ],
            [
                0.4624591947769314,
                0.8887814313346228
            ],
            [
                0.560391730141458,
                0.9458413926499034
            ]
        ],
        [
            [
                0.5049114546620043,
                0.9928115707728283
            ],
            [
                0.5195865070729053,
                1.0077369439071566
            ],
            [
                0.5334229850603269,
                0.9995279886832761
            ]
        ],
        [
            [
                0.5516866158868335,
                0.9593810444874274
            ],
            [
                0.5794341675734495,
                0.9506769825918763
            ],
            [
                0.5924320711373908,
                0.9372441467709808
            ]
        ],
        [
            [
                0.5761697497279652,
                0.913926499032882
            ],
            [
                0.6539717083786726,
                0.8713733075435204
            ],
            [
                0.7143634385201306,
                0.855899419729207
            ]
        ],
        [
            [
                0.7393906420021763,
                0.8636363636363636
            ],
            [
                0.7665941240478781,
                0.8713733075435204
            ],
            [
                0.7858813357879201,
                0.883313606050983
            ]
        ],
        [
            [
                0.8313384113166485,
                0.9061895551257255
            ],
            [
                0.838411316648531,
                0.9758220502901355
            ],
            [
                0.8400884654954912,
                0.9974638413349116
            ]
        ],
        [
            [
                0.8442348008385744,
                1.0305970149253731
            ],
            [
                0.8459119496855346,
                1.0522388059701493
            ],
            [
                0.881132075471698,
                1.1029850746268657
            ]
        ],
        [
            [
                0.9867924528301887,
                1.255223880597015
            ],
            [
                1.022012578616352,
                1.3059701492537314
            ],
            [
                1.0245283018867923,
                1.2149253731343284
            ]
        ],
        [
            [
                1.032075471698113,
                0.9417910447761194
            ],
            [
                1.0345911949685533,
                0.8507462686567164
            ],
            [
                1.0174004192872117,
                0.8589552238805971
            ]
        ],
        [
            [
                1.005724707605341,
                0.8477077860215366
            ],
            [
                0.949685534591195,
                0.8544776119402985
            ],
            [
                0.8343815513626834,
                0.8526119402985074
            ]
        ],
        [
            [
                0.8218029350104821,
                0.8302238805970149
            ],
            [
                0.8092243186582809,
                0.7873134328358209
            ],
            [
                0.7473794549266247,
                0.7537313432835822
            ]
        ],
        [
            [
                0.7641977082919864,
                0.7195213487687292
            ],
            [
                0.7631027253668763,
                0.7164179104477612
            ],
            [
                0.7662473794549266,
                0.6473880597014926
            ]
        ],
        [
            [
                0.8444097699851493,
                0.6558864285920495
            ],
            [
                0.871069182389937,
                0.6529850746268657
            ],
            [
                0.8873912716173582,
                0.6355769508357632
            ]
        ],
        [
            [
                0.9589757803464252,
                0.62862669245648
            ],
            [
                0.9779874213836478,
                0.6492537313432836
            ],
            [
                0.9997903563941299,
                0.6619402985074627
            ]
        ],
        [
            [
                1.0023060796645702,
                0.7
            ],
            [
                1.0241090146750524,
                0.7126865671641791
            ],
            [
                1.0542976939203355,
                0.7305970149253731
            ]
        ],
        [
            [
                1.1448637316561843,
                0.7843283582089553
            ],
            [
                1.1750524109014675,
                0.8022388059701493
            ],
            [
                1.1670859538784066,
                0.917910447761194
            ]
        ],
        [
            [
                1.1431865828092242,
                1.2649253731343284
            ],
            [
                1.1352201257861634,
                1.380597014925373
            ],
            [
                1.0115303983228512,
                1.3888059701492537
            ]
        ],
        [
            [
                0.640461215932914,
                1.4134328358208954
            ],
            [
                0.5167714884696016,
                1.421641791044776
            ],
            [
                0.360377358490566,
                1.4111940298507462
            ]
        ],
        [
            [
                -0.1088050314465409,
                1.3798507462686567
            ],
            [
                -0.26519916142557654,
                1.369402985074627
            ],
            [
                -0.2580712788259958,
                1.1977611940298507
            ]
        ],
        [
            [
                -0.23668763102725368,
                0.6828358208955224
            ],
            [
                -0.22955974842767293,
                0.5111940298507462
            ],
            [
                -0.1880503144654088,
                0.526865671641791
            ]
        ]
    ],
    "7094": [
        [
            [
                -0.06352201257861635,
                0.5738805970149253
            ],
            [
                -0.0220125786163522,
                0.5895522388059701
            ],
            [
                -0.0014675052410901427,
                0.6022388059701492
            ]
        ],
        [
            [
                0.0750816104461371,
                0.5880077369439072
            ],
            [
                0.08071278825995808,
                0.6529850746268657
            ],
            [
                0.05658324265505985,
                0.7079303675048356
            ]
        ],
        [
            [
                -0.014884696016771485,
                0.7186567164179104
            ],
            [
                -0.038784067085953874,
                0.7350746268656716
            ],
            [
                -0.035429769392033544,
                0.8029850746268656
            ]
        ],
        [
            [
                -0.025366876310272533,
                1.0067164179104477
            ],
            [
                -0.0220125786163522,
                1.0746268656716418
            ],
            [
                0.02368972746331237,
                1.0671641791044777
            ]
        ],
        [
            [
                0.17355775920869235,
                1.0384104621957908
            ],
            [
                0.2192600652883569,
                1.0309477756286267
            ],
            [
                0.11588683351468988,
                0.981624758220503
            ]
        ],
        [
            [
                0.025815363066682185,
                0.9321934813360665
            ],
            [
                0.046789989118607184,
                0.8868471953578337
            ],
            [
                0.0941240478781284,
                0.7872340425531915
            ]
        ],
        [
            [
                0.2541250059881878,
                0.8345694159762117
            ],
            [
                0.2981501632208923,
                0.8278529980657641
            ],
            [
                0.3342088634305359,
                0.8412858338866595
            ]
        ],
        [
            [
                0.4264004945672878,
                0.8753485955137273
            ],
            [
                0.4624591947769314,
                0.8887814313346228
            ],
            [
                0.560391730141458,
                0.9458413926499034
            ]
        ],
        [
            [
                0.5049114546620043,
                0.9928115707728283
            ],
            [
                0.5195865070729053,
                1.0077369439071566
            ],
            [
                0.5334229850603269,
                0.9995279886832761
            ]
        ],
        [
            [
                0.5516866158868335,
                0.9593810444874274
            ],
            [
                0.5794341675734495,
                0.9506769825918763
            ],
            [
                0.5924320711373908,
                0.9372441467709808
            ]
        ],
        [
            [
                0.5761697497279652,
                0.913926499032882
            ],
            [
                0.6539717083786726,
                0.8713733075435204
            ],
            [
                0.7143634385201306,
                0.855899419729207
            ]
        ],
        [
            [
                0.7393906420021763,
                0.8636363636363636
            ],
            [
                0.7665941240478781,
                0.8713733075435204
            ],
            [
                0.7858813357879201,
                0.883313606050983
            ]
        ],
        [
            [
                0.8313384113166485,
                0.9061895551257255
            ],
            [
                0.838411316648531,
                0.9758220502901355
            ],
            [
                0.8400884654954912,
                0.9974638413349116
            ]
        ],
        [
            [
                0.8442348008385744,
                1.0305970149253731
            ],
            [
                0.8459119496855346,
                1.0522388059701493
            ],
            [
                0.881132075471698,
                1.1029850746268657
            ]
        ],
        [
            [
                0.9867924528301887,
                1.255223880597015
            ],
            [
                1.022012578616352,
                1.3059701492537314
            ],
            [
                1.0245283018867923,
                1.2149253731343284
            ]
        ],
        [
            [
                1.032075471698113,
                0.9417910447761194
            ],
            [
                1.0345911949685533,
                0.8507462686567164
            ],
            [
                1.0174004192872117,
                0.8589552238805971
            ]
        ],
        [
            [
                1.005724707605341,
                0.8477077860215366
            ],
            [
                0.949685534591195,
                0.8544776119402985
            ],
            [
                0.8343815513626834,
                0.8526119402985074
            ]
        ],
        [
            [
                0.8218029350104821,
                0.8302238805970149
            ],
            [
                0.8092243186582809,
                0.7873134328358209
            ],
            [
                0.7473794549266247,
                0.7537313432835822
            ]
        ],
        [
            [
                0.7694387984387369,
                0.7232526920523114
            ],
            [
                0.7683438155136267,
                0.7201492537313433
            ],
            [
                0.771488469601677,
                0.6511194029850748
            ]
        ],
        [
            [
                0.8444097699851493,
                0.6558864285920495
            ],
            [
                0.871069182389937,
                0.6529850746268657
            ],
            [
                0.8873912716173582,
                0.6355769508357632
            ]
        ],
        [
            [
                0.9589757803464252,
                0.62862669245648
            ],
            [
                0.9779874213836478,
                0.6492537313432836
            ],
            [
                0.9997903563941299,
                0.6619402985074627
            ]
        ],
        [
            [
                1.0023060796645702,
                0.7
            ],
            [
                1.0241090146750524,
                0.7126865671641791
            ],
            [
                1.0542976939203355,
                0.7305970149253731
            ]
        ],
        [
            [
                1.1448637316561843,
                0.7843283582089553
            ],
            [
                1.1750524109014675,
                0.8022388059701493
            ],
            [
                1.1670859538784066,
                0.917910447761194
            ]
        ],
        [
            [
                1.1431865828092242,
                1.2649253731343284
            ],
            [
                1.1352201257861634,
                1.380597014925373
            ],
            [
                1.0115303983228512,
                1.3888059701492537
            ]
        ],
        [
            [
                0.640461215932914,
                1.4134328358208954
            ],
            [
                0.5167714884696016,
                1.421641791044776
            ],
            [
                0.360377358490566,
                1.4111940298507462
            ]
        ],
        [
            [
                -0.1088050314465409,
                1.3798507462686567
            ],
            [
                -0.26519916142557654,
                1.369402985074627
            ],
            [
                -0.2580712788259958,
                1.1977611940298507
            ]
        ],
        [
            [
                -0.23668763102725368,
                0.6828358208955224
            ],
            [
                -0.22955974842767293,
                0.5111940298507462
            ],
            [
                -0.1880503144654088,
                0.526865671641791
            ]
        ]
    ]
}
</property>
    <property name="kdenlive:collapsed">0</property>
    <property name="disable">0</property>
   </filter>
   <filter id="filter326">
    <property name="rotate_center">1</property>
    <property name="mlt_service">qtblend</property>
    <property name="kdenlive_id">qtblend</property>
    <property name="rect">00:02:56.500=0 0 1920 1080 0.000000;00:02:58.467=0 0 1920 1080 1.000000;00:03:06.533=0 0 1920 1080 1.000000;00:03:06.867=0 0 1920 1080 0.250000;00:03:08.200=0 0 1920 1080 0.250000;00:03:08.667=0 0 1920 1080 1.000000;00:03:10.533=0 0 1920 1080 1.000000;00:03:10.833=0 0 1920 1080 0.250000;00:03:12.200=0 0 1920 1080 0.250000;00:03:12.567=0 0 1920 1080 1.000000;00:03:16.300=0 0 1920 1080 1.000000;00:03:16.767=0 0 1920 1080 0.250000;00:03:18.500=0 0 1920 1080 0.250000;00:03:19.000=0 0 1920 1080 1.000000</property>
    <property name="rotation">00:02:56.500=0;00:02:58.467=0;00:03:06.533=0;00:03:06.867=0;00:03:08.200=0;00:03:08.667=0;00:03:10.533=0;00:03:10.833=0;00:03:12.200=0;00:03:12.567=0;00:03:16.300=0;00:03:16.767=0;00:03:18.500=0;00:03:19.000=0</property>
    <property name="compositing">0</property>
    <property name="distort">0</property>
    <property name="kdenlive:collapsed">0</property>
    <property name="disable">0</property>
   </filter>
   <filter id="filter327">
    <property name="mode">alpha</property>
    <property name="alpha_operation">sub</property>
    <property name="invert">0</property>
    <property name="feather">4</property>
    <property name="feather_passes">1</property>
    <property name="mlt_service">rotoscoping</property>
    <property name="kdenlive_id">rotoscoping</property>
    <property name="spline">{
    "0061": [
        [
            [
                -0.07945492662473794,
                0.367910447761194
            ],
            [
                -0.049266247379454925,
                0.5522388059701493
            ],
            [
                -0.01781970649895178,
                0.5380597014925373
            ]
        ],
        [
            [
                0.07651991614255765,
                0.4955223880597015
            ],
            [
                0.10796645702306079,
                0.48134328358208955
            ],
            [
                0.11593291404612159,
                0.49776119402985075
            ]
        ],
        [
            [
                0.139832285115304,
                0.5470149253731343
            ],
            [
                0.14779874213836477,
                0.5634328358208955
            ],
            [
                0.16540880503144653,
                0.558955223880597
            ]
        ],
        [
            [
                0.21823899371069183,
                0.5455223880597015
            ],
            [
                0.2358490566037736,
                0.541044776119403
            ],
            [
                0.23333333333333334,
                0.49626865671641796
            ]
        ],
        [
            [
                0.22578616352201258,
                0.3619402985074627
            ],
            [
                0.22327044025157233,
                0.31716417910447764
            ],
            [
                0.2555555555555556,
                0.2649253731343284
            ]
        ],
        [
            [
                0.35241090146750526,
                0.1082089552238806
            ],
            [
                0.38469601677148846,
                0.055970149253731345
            ],
            [
                0.43836477987421385,
                0.05522388059701493
            ]
        ],
        [
            [
                0.5611299311301364,
                0.05393775801841853
            ],
            [
                0.6147986942328618,
                0.05319148936170213
            ],
            [
                0.6315701827024635,
                0.10916163861543346
            ]
        ],
        [
            [
                0.74220566060548,
                0.25447472502093016
            ],
            [
                0.7589771490750816,
                0.3104448742746615
            ],
            [
                0.7765872119681634,
                0.36940009815525854
            ]
        ],
        [
            [
                0.8312368972746331,
                0.43656716417910446
            ],
            [
                0.8364779874213837,
                0.6417910447761195
            ],
            [
                0.8415094339622642,
                0.6492537313432838
            ]
        ],
        [
            [
                0.8450733752620544,
                0.6567164179104478
            ],
            [
                0.850104821802935,
                0.664179104477612
            ],
            [
                0.859329140461216,
                0.6567164179104478
            ]
        ],
        [
            [
                0.8803046789989118,
                0.6363636363636364
            ],
            [
                0.9058759521218716,
                0.6344294003868471
            ],
            [
                0.9624591947769314,
                0.6479690522243714
            ]
        ],
        [
            [
                1.0038084874863982,
                0.6653771760154739
            ],
            [
                1.0345911949685533,
                0.7014925373134328
            ],
            [
                1.0635220125786164,
                0.5492537313432836
            ]
        ],
        [
            [
                1.150314465408805,
                0.09253731343283582
            ],
            [
                1.179245283018868,
                -0.059701492537313425
            ],
            [
                1.1666666666666667,
                -0.10820895522388059
            ]
        ],
        [
            [
                1.1289308176100628,
                -0.2537313432835821
            ],
            [
                1.1163522012578615,
                -0.30223880597014924
            ],
            [
                0.8530398322851152,
                -0.3156716417910448
            ]
        ],
        [
            [
                0.06310272536687629,
                -0.3559701492537313
            ],
            [
                -0.20020964360587,
                -0.3694029850746269
            ],
            [
                -0.170020964360587,
                -0.18507462686567167
            ]
        ]
    ],
    "1731": [
        [
            [
                -0.07945492662473794,
                0.367910447761194
            ],
            [
                -0.049266247379454925,
                0.5522388059701493
            ],
            [
                -0.01781970649895178,
                0.5380597014925373
            ]
        ],
        [
            [
                0.07651991614255765,
                0.4955223880597015
            ],
            [
                0.10796645702306079,
                0.48134328358208955
            ],
            [
                0.11593291404612159,
                0.49776119402985075
            ]
        ],
        [
            [
                0.139832285115304,
                0.5470149253731343
            ],
            [
                0.14779874213836477,
                0.5634328358208955
            ],
            [
                0.16540880503144653,
                0.558955223880597
            ]
        ],
        [
            [
                0.21823899371069183,
                0.5455223880597015
            ],
            [
                0.2358490566037736,
                0.541044776119403
            ],
            [
                0.23333333333333334,
                0.49626865671641796
            ]
        ],
        [
            [
                0.22578616352201258,
                0.3619402985074627
            ],
            [
                0.22327044025157233,
                0.31716417910447764
            ],
            [
                0.2555555555555556,
                0.2649253731343284
            ]
        ],
        [
            [
                0.35241090146750526,
                0.1082089552238806
            ],
            [
                0.38469601677148846,
                0.055970149253731345
            ],
            [
                0.43836477987421385,
                0.05522388059701493
            ]
        ],
        [
            [
                0.5611299311301364,
                0.05393775801841853
            ],
            [
                0.6147986942328618,
                0.05319148936170213
            ],
            [
                0.6315701827024635,
                0.10916163861543346
            ]
        ],
        [
            [
                0.74220566060548,
                0.25447472502093016
            ],
            [
                0.7589771490750816,
                0.3104448742746615
            ],
            [
                0.7765872119681634,
                0.36940009815525854
            ]
        ],
        [
            [
                0.8312368972746331,
                0.43656716417910446
            ],
            [
                0.8364779874213837,
                0.6417910447761195
            ],
            [
                0.8415094339622642,
                0.6492537313432838
            ]
        ],
        [
            [
                0.8450733752620544,
                0.6567164179104478
            ],
            [
                0.850104821802935,
                0.664179104477612
            ],
            [
                0.859329140461216,
                0.6567164179104478
            ]
        ],
        [
            [
                0.8803046789989118,
                0.6363636363636364
            ],
            [
                0.9058759521218716,
                0.6344294003868471
            ],
            [
                0.9624591947769314,
                0.6479690522243714
            ]
        ],
        [
            [
                1.0038084874863982,
                0.6653771760154739
            ],
            [
                1.0345911949685533,
                0.7014925373134328
            ],
            [
                1.0635220125786164,
                0.5492537313432836
            ]
        ],
        [
            [
                1.150314465408805,
                0.09253731343283582
            ],
            [
                1.179245283018868,
                -0.059701492537313425
            ],
            [
                1.1666666666666667,
                -0.10820895522388059
            ]
        ],
        [
            [
                1.1289308176100628,
                -0.2537313432835821
            ],
            [
                1.1163522012578615,
                -0.30223880597014924
            ],
            [
                0.8530398322851152,
                -0.3156716417910448
            ]
        ],
        [
            [
                0.06310272536687629,
                -0.3559701492537313
            ],
            [
                -0.20020964360587,
                -0.3694029850746269
            ],
            [
                -0.170020964360587,
                -0.18507462686567167
            ]
        ]
    ],
    "1767": [
        [
            [
                -0.07945492662473794,
                0.367910447761194
            ],
            [
                -0.049266247379454925,
                0.5522388059701493
            ],
            [
                -0.01781970649895178,
                0.5380597014925373
            ]
        ],
        [
            [
                0.07651991614255765,
                0.4955223880597015
            ],
            [
                0.10796645702306079,
                0.48134328358208955
            ],
            [
                0.11593291404612159,
                0.49776119402985075
            ]
        ],
        [
            [
                0.139832285115304,
                0.5470149253731343
            ],
            [
                0.14779874213836477,
                0.5634328358208955
            ],
            [
                0.16540880503144653,
                0.558955223880597
            ]
        ],
        [
            [
                0.21823899371069183,
                0.5455223880597015
            ],
            [
                0.2358490566037736,
                0.541044776119403
            ],
            [
                0.23333333333333334,
                0.49626865671641796
            ]
        ],
        [
            [
                0.22578616352201258,
                0.3619402985074627
            ],
            [
                0.22327044025157233,
                0.31716417910447764
            ],
            [
                0.2555555555555556,
                0.2649253731343284
            ]
        ],
        [
            [
                0.35241090146750526,
                0.1082089552238806
            ],
            [
                0.38469601677148846,
                0.055970149253731345
            ],
            [
                0.43836477987421385,
                0.05522388059701493
            ]
        ],
        [
            [
                0.5611299311301364,
                0.05393775801841853
            ],
            [
                0.6147986942328618,
                0.05319148936170213
            ],
            [
                0.6315701827024635,
                0.10916163861543346
            ]
        ],
        [
            [
                0.7515723270440251,
                0.216417910447761
            ],
            [
                0.7683438155136267,
                0.27238805970149255
            ],
            [
                0.7859538784067085,
                0.33134328358208937
            ]
        ],
        [
            [
                0.8312368972746331,
                0.43656716417910446
            ],
            [
                0.8364779874213837,
                0.6417910447761195
            ],
            [
                0.8415094339622642,
                0.6492537313432838
            ]
        ],
        [
            [
                0.8450733752620544,
                0.6567164179104478
            ],
            [
                0.850104821802935,
                0.664179104477612
            ],
            [
                0.859329140461216,
                0.6567164179104478
            ]
        ],
        [
            [
                0.8803046789989118,
                0.6363636363636364
            ],
            [
                0.9058759521218716,
                0.6344294003868471
            ],
            [
                0.9624591947769314,
                0.6479690522243714
            ]
        ],
        [
            [
                1.0038084874863982,
                0.6653771760154739
            ],
            [
                1.0345911949685533,
                0.7014925373134328
            ],
            [
                1.0635220125786164,
                0.5492537313432836
            ]
        ],
        [
            [
                1.150314465408805,
                0.09253731343283582
            ],
            [
                1.179245283018868,
                -0.059701492537313425
            ],
            [
                1.1666666666666667,
                -0.10820895522388059
            ]
        ],
        [
            [
                1.1289308176100628,
                -0.2537313432835821
            ],
            [
                1.1163522012578615,
                -0.30223880597014924
            ],
            [
                0.8530398322851152,
                -0.3156716417910448
            ]
        ],
        [
            [
                0.06310272536687629,
                -0.3559701492537313
            ],
            [
                -0.20020964360587,
                -0.3694029850746269
            ],
            [
                -0.170020964360587,
                -0.18507462686567167
            ]
        ]
    ],
    "1937": [
        [
            [
                -0.07945492662473794,
                0.367910447761194
            ],
            [
                -0.049266247379454925,
                0.5522388059701493
            ],
            [
                -0.01781970649895178,
                0.5380597014925373
            ]
        ],
        [
            [
                0.07651991614255765,
                0.4955223880597015
            ],
            [
                0.10796645702306079,
                0.48134328358208955
            ],
            [
                0.11593291404612159,
                0.49776119402985075
            ]
        ],
        [
            [
                0.139832285115304,
                0.5470149253731343
            ],
            [
                0.14779874213836477,
                0.5634328358208955
            ],
            [
                0.16540880503144653,
                0.558955223880597
            ]
        ],
        [
            [
                0.21823899371069183,
                0.5455223880597015
            ],
            [
                0.2358490566037736,
                0.541044776119403
            ],
            [
                0.23333333333333334,
                0.49626865671641796
            ]
        ],
        [
            [
                0.22578616352201258,
                0.3619402985074627
            ],
            [
                0.22327044025157233,
                0.31716417910447764
            ],
            [
                0.2555555555555556,
                0.2649253731343284
            ]
        ],
        [
            [
                0.35241090146750526,
                0.1082089552238806
            ],
            [
                0.38469601677148846,
                0.055970149253731345
            ],
            [
                0.43836477987421385,
                0.05522388059701493
            ]
        ],
        [
            [
                0.5611299311301364,
                0.05393775801841853
            ],
            [
                0.6147986942328618,
                0.05319148936170213
            ],
            [
                0.6315701827024635,
                0.10916163861543346
            ]
        ],
        [
            [
                0.74220566060548,
                0.25447472502093016
            ],
            [
                0.7589771490750816,
                0.3104448742746615
            ],
            [
                0.7765872119681634,
                0.36940009815525854
            ]
        ],
        [
            [
                0.8312368972746331,
                0.43656716417910446
            ],
            [
                0.8364779874213837,
                0.6417910447761195
            ],
            [
                0.8415094339622642,
                0.6492537313432838
            ]
        ],
        [
            [
                0.8450733752620544,
                0.6567164179104478
            ],
            [
                0.850104821802935,
                0.664179104477612
            ],
            [
                0.859329140461216,
                0.6567164179104478
            ]
        ],
        [
            [
                0.8803046789989118,
                0.6363636363636364
            ],
            [
                0.9058759521218716,
                0.6344294003868471
            ],
            [
                0.9624591947769314,
                0.6479690522243714
            ]
        ],
        [
            [
                1.0038084874863982,
                0.6653771760154739
            ],
            [
                1.0345911949685533,
                0.7014925373134328
            ],
            [
                1.0635220125786164,
                0.5492537313432836
            ]
        ],
        [
            [
                1.150314465408805,
                0.09253731343283582
            ],
            [
                1.179245283018868,
                -0.059701492537313425
            ],
            [
                1.1666666666666667,
                -0.10820895522388059
            ]
        ],
        [
            [
                1.1289308176100628,
                -0.2537313432835821
            ],
            [
                1.1163522012578615,
                -0.30223880597014924
            ],
            [
                0.8530398322851152,
                -0.3156716417910448
            ]
        ],
        [
            [
                0.06310272536687629,
                -0.3559701492537313
            ],
            [
                -0.20020964360587,
                -0.3694029850746269
            ],
            [
                -0.170020964360587,
                -0.18507462686567167
            ]
        ]
    ],
    "5295": [
        [
            [
                -0.07945492662473794,
                0.367910447761194
            ],
            [
                -0.049266247379454925,
                0.5522388059701493
            ],
            [
                -0.01781970649895178,
                0.5380597014925373
            ]
        ],
        [
            [
                0.07651991614255765,
                0.4955223880597015
            ],
            [
                0.10796645702306079,
                0.48134328358208955
            ],
            [
                0.11593291404612159,
                0.49776119402985075
            ]
        ],
        [
            [
                0.139832285115304,
                0.5470149253731343
            ],
            [
                0.14779874213836477,
                0.5634328358208955
            ],
            [
                0.16540880503144653,
                0.558955223880597
            ]
        ],
        [
            [
                0.21823899371069183,
                0.5455223880597015
            ],
            [
                0.2358490566037736,
                0.541044776119403
            ],
            [
                0.23333333333333334,
                0.49626865671641796
            ]
        ],
        [
            [
                0.22578616352201258,
                0.3619402985074627
            ],
            [
                0.22327044025157233,
                0.31716417910447764
            ],
            [
                0.2555555555555556,
                0.2649253731343284
            ]
        ],
        [
            [
                0.35241090146750526,
                0.1082089552238806
            ],
            [
                0.38469601677148846,
                0.055970149253731345
            ],
            [
                0.43836477987421385,
                0.05522388059701493
            ]
        ],
        [
            [
                0.5611299311301364,
                0.05393775801841853
            ],
            [
                0.6147986942328618,
                0.05319148936170213
            ],
            [
                0.6315701827024635,
                0.10916163861543346
            ]
        ],
        [
            [
                0.74220566060548,
                0.25447472502093016
            ],
            [
                0.7589771490750816,
                0.3104448742746615
            ],
            [
                0.7765872119681634,
                0.36940009815525854
            ]
        ],
        [
            [
                0.8312368972746331,
                0.43656716417910446
            ],
            [
                0.8364779874213837,
                0.6417910447761195
            ],
            [
                0.8415094339622642,
                0.6492537313432838
            ]
        ],
        [
            [
                0.8576519916142558,
                0.6511194029850746
            ],
            [
                0.8626834381551363,
                0.6585820895522388
            ],
            [
                0.8719077568134173,
                0.6511194029850746
            ]
        ],
        [
            [
                0.8803046789989118,
                0.6363636363636364
            ],
            [
                0.9058759521218716,
                0.6344294003868471
            ],
            [
                0.9624591947769314,
                0.6479690522243714
            ]
        ],
        [
            [
                1.0038084874863982,
                0.6653771760154739
            ],
            [
                1.0345911949685533,
                0.7014925373134328
            ],
            [
                1.0635220125786164,
                0.5492537313432836
            ]
        ],
        [
            [
                1.150314465408805,
                0.09253731343283582
            ],
            [
                1.179245283018868,
                -0.059701492537313425
            ],
            [
                1.1666666666666667,
                -0.10820895522388059
            ]
        ],
        [
            [
                1.1289308176100628,
                -0.2537313432835821
            ],
            [
                1.1163522012578615,
                -0.30223880597014924
            ],
            [
                0.8530398322851152,
                -0.3156716417910448
            ]
        ],
        [
            [
                0.06310272536687629,
                -0.3559701492537313
            ],
            [
                -0.20020964360587,
                -0.3694029850746269
            ],
            [
                -0.170020964360587,
                -0.18507462686567167
            ]
        ]
    ]
}
</property>
    <property name="kdenlive:collapsed">0</property>
    <property name="disable">0</property>
   </filter>
  </entry>
  <entry producer="producer258" in="00:00:02.033" out="00:00:19.233">
   <property name="kdenlive:id">37</property>
   <filter id="filter328">
    <property name="version">0.6</property>
    <property name="mlt_service">frei0r.select0r</property>
    <property name="kdenlive_id">frei0r.select0r</property>
    <property name="Color to select">0x379f55ff</property>
    <property name="Invert selection">1</property>
    <property name="Selection subspace">1</property>
    <property name="Subspace shape">0.5</property>
    <property name="Edge mode">0.9</property>
    <property name="Delta R / A / Hue">00:00:02.033=0.021;00:00:19.233=0.021</property>
    <property name="Delta G / B / Chroma">00:00:02.033=0.223;00:00:19.233=0.223</property>
    <property name="Delta B / I / I">00:00:02.033=0.429;00:00:19.233=0.429</property>
    <property name="Slope">00:00:02.033=0.157;00:00:19.233=0.157</property>
    <property name="Operation">0.5</property>
    <property name="kdenlive:collapsed">0</property>
    <property name="disable">0</property>
   </filter>
   <filter id="filter329">
    <property name="mlt_service">avfilter.despill</property>
    <property name="kdenlive_id">avfilter.despill</property>
    <property name="av.type">green</property>
    <property name="av.mix">0.357</property>
    <property name="av.expand">0.047</property>
    <property name="av.red">0</property>
    <property name="av.green">-1</property>
    <property name="av.blue">0</property>
    <property name="av.brightness">0</property>
    <property name="kdenlive:collapsed">0</property>
   </filter>
   <filter id="filter330">
    <property name="mode">alpha</property>
    <property name="alpha_operation">sub</property>
    <property name="invert">0</property>
    <property name="feather">4</property>
    <property name="feather_passes">1</property>
    <property name="mlt_service">rotoscoping</property>
    <property name="kdenlive_id">rotoscoping</property>
    <property name="spline">{
    "061": [
        [
            [
                -0.07945492662473794,
                0.367910447761194
            ],
            [
                -0.049266247379454925,
                0.5522388059701493
            ],
            [
                -0.01781970649895178,
                0.5380597014925373
            ]
        ],
        [
            [
                0.07651991614255765,
                0.4955223880597015
            ],
            [
                0.10796645702306079,
                0.48134328358208955
            ],
            [
                0.11593291404612159,
                0.49776119402985075
            ]
        ],
        [
            [
                0.139832285115304,
                0.5470149253731343
            ],
            [
                0.14779874213836477,
                0.5634328358208955
            ],
            [
                0.16540880503144653,
                0.558955223880597
            ]
        ],
        [
            [
                0.21823899371069183,
                0.5455223880597015
            ],
            [
                0.2358490566037736,
                0.541044776119403
            ],
            [
                0.23333333333333334,
                0.49626865671641796
            ]
        ],
        [
            [
                0.22578616352201258,
                0.3619402985074627
            ],
            [
                0.22327044025157233,
                0.31716417910447764
            ],
            [
                0.2555555555555556,
                0.2649253731343284
            ]
        ],
        [
            [
                0.35241090146750526,
                0.1082089552238806
            ],
            [
                0.38469601677148846,
                0.055970149253731345
            ],
            [
                0.43836477987421385,
                0.05522388059701493
            ]
        ],
        [
            [
                0.5611299311301364,
                0.05393775801841853
            ],
            [
                0.6147986942328618,
                0.05319148936170213
            ],
            [
                0.6315701827024635,
                0.10916163861543346
            ]
        ],
        [
            [
                0.74220566060548,
                0.25447472502093016
            ],
            [
                0.7589771490750816,
                0.3104448742746615
            ],
            [
                0.7765872119681634,
                0.36940009815525854
            ]
        ],
        [
            [
                0.8312368972746331,
                0.43656716417910446
            ],
            [
                0.8364779874213837,
                0.6417910447761195
            ],
            [
                0.8415094339622642,
                0.6492537313432838
            ]
        ],
        [
            [
                0.8450733752620544,
                0.6567164179104478
            ],
            [
                0.850104821802935,
                0.664179104477612
            ],
            [
                0.859329140461216,
                0.6567164179104478
            ]
        ],
        [
            [
                0.8803046789989118,
                0.6363636363636364
            ],
            [
                0.9058759521218716,
                0.6344294003868471
            ],
            [
                0.9624591947769314,
                0.6479690522243714
            ]
        ],
        [
            [
                1.0038084874863982,
                0.6653771760154739
            ],
            [
                1.0345911949685533,
                0.7014925373134328
            ],
            [
                1.0635220125786164,
                0.5492537313432836
            ]
        ],
        [
            [
                1.150314465408805,
                0.09253731343283582
            ],
            [
                1.179245283018868,
                -0.059701492537313425
            ],
            [
                1.1666666666666667,
                -0.10820895522388059
            ]
        ],
        [
            [
                1.1289308176100628,
                -0.2537313432835821
            ],
            [
                1.1163522012578615,
                -0.30223880597014924
            ],
            [
                0.8530398322851152,
                -0.3156716417910448
            ]
        ],
        [
            [
                0.06310272536687629,
                -0.3559701492537313
            ],
            [
                -0.20020964360587,
                -0.3694029850746269
            ],
            [
                -0.170020964360587,
                -0.18507462686567167
            ]
        ]
    ],
    "577": [
        [
            [
                -0.07945492662473794,
                0.367910447761194
            ],
            [
                -0.049266247379454925,
                0.5522388059701493
            ],
            [
                -0.01781970649895178,
                0.5380597014925373
            ]
        ],
        [
            [
                0.07651991614255765,
                0.4955223880597015
            ],
            [
                0.10796645702306079,
                0.48134328358208955
            ],
            [
                0.11593291404612159,
                0.49776119402985075
            ]
        ],
        [
            [
                0.139832285115304,
                0.5470149253731343
            ],
            [
                0.14779874213836477,
                0.5634328358208955
            ],
            [
                0.16540880503144653,
                0.558955223880597
            ]
        ],
        [
            [
                0.21823899371069183,
                0.5455223880597015
            ],
            [
                0.2358490566037736,
                0.541044776119403
            ],
            [
                0.23333333333333334,
                0.49626865671641796
            ]
        ],
        [
            [
                0.22578616352201258,
                0.3619402985074627
            ],
            [
                0.22327044025157233,
                0.31716417910447764
            ],
            [
                0.2555555555555556,
                0.2649253731343284
            ]
        ],
        [
            [
                0.35241090146750526,
                0.1082089552238806
            ],
            [
                0.38469601677148846,
                0.055970149253731345
            ],
            [
                0.43836477987421385,
                0.05522388059701493
            ]
        ],
        [
            [
                0.5611299311301364,
                0.05393775801841853
            ],
            [
                0.6147986942328618,
                0.05319148936170213
            ],
            [
                0.6315701827024635,
                0.10916163861543346
            ]
        ],
        [
            [
                0.74220566060548,
                0.25447472502093016
            ],
            [
                0.7589771490750816,
                0.3104448742746615
            ],
            [
                0.7765872119681634,
                0.36940009815525854
            ]
        ],
        [
            [
                0.8312368972746331,
                0.43656716417910446
            ],
            [
                0.8364779874213837,
                0.6417910447761195
            ],
            [
                0.8415094339622642,
                0.6492537313432838
            ]
        ],
        [
            [
                0.8450733752620544,
                0.6567164179104478
            ],
            [
                0.850104821802935,
                0.664179104477612
            ],
            [
                0.859329140461216,
                0.6567164179104478
            ]
        ],
        [
            [
                0.8803046789989118,
                0.6363636363636364
            ],
            [
                0.9058759521218716,
                0.6344294003868471
            ],
            [
                0.9624591947769314,
                0.6479690522243714
            ]
        ],
        [
            [
                1.0038084874863982,
                0.6653771760154739
            ],
            [
                1.0345911949685533,
                0.7014925373134328
            ],
            [
                1.0635220125786164,
                0.5492537313432836
            ]
        ],
        [
            [
                1.150314465408805,
                0.09253731343283582
            ],
            [
                1.179245283018868,
                -0.059701492537313425
            ],
            [
                1.1666666666666667,
                -0.10820895522388059
            ]
        ],
        [
            [
                1.1289308176100628,
                -0.2537313432835821
            ],
            [
                1.1163522012578615,
                -0.30223880597014924
            ],
            [
                0.8530398322851152,
                -0.3156716417910448
            ]
        ],
        [
            [
                0.06310272536687629,
                -0.3559701492537313
            ],
            [
                -0.20020964360587,
                -0.3694029850746269
            ],
            [
                -0.170020964360587,
                -0.18507462686567167
            ]
        ]
    ]
}
</property>
    <property name="kdenlive:collapsed">0</property>
    <property name="disable">0</property>
   </filter>
   <filter id="filter331">
    <property name="mode">alpha</property>
    <property name="alpha_operation">add</property>
    <property name="invert">0</property>
    <property name="feather">4</property>
    <property name="feather_passes">1</property>
    <property name="mlt_service">rotoscoping</property>
    <property name="kdenlive_id">rotoscoping</property>
    <property name="spline">{
    "0061": [
        [
            [
                -0.06352201257861635,
                0.5738805970149253
            ],
            [
                -0.0220125786163522,
                0.5895522388059701
            ],
            [
                -0.0014675052410901427,
                0.6022388059701492
            ]
        ],
        [
            [
                0.0750816104461371,
                0.5880077369439072
            ],
            [
                0.08071278825995808,
                0.6529850746268657
            ],
            [
                0.05658324265505985,
                0.7079303675048356
            ]
        ],
        [
            [
                -0.014884696016771485,
                0.7186567164179104
            ],
            [
                -0.038784067085953874,
                0.7350746268656716
            ],
            [
                -0.035429769392033544,
                0.8029850746268656
            ]
        ],
        [
            [
                -0.025366876310272533,
                1.0067164179104477
            ],
            [
                -0.0220125786163522,
                1.0746268656716418
            ],
            [
                0.02368972746331237,
                1.0671641791044777
            ]
        ],
        [
            [
                0.17355775920869235,
                1.0384104621957908
            ],
            [
                0.2192600652883569,
                1.0309477756286267
            ],
            [
                0.11588683351468988,
                0.981624758220503
            ]
        ],
        [
            [
                0.025815363066682185,
                0.9321934813360665
            ],
            [
                0.046789989118607184,
                0.8868471953578337
            ],
            [
                0.0941240478781284,
                0.7872340425531915
            ]
        ],
        [
            [
                0.2541250059881878,
                0.8345694159762117
            ],
            [
                0.2981501632208923,
                0.8278529980657641
            ],
            [
                0.3342088634305359,
                0.8412858338866595
            ]
        ],
        [
            [
                0.4264004945672878,
                0.8753485955137273
            ],
            [
                0.4624591947769314,
                0.8887814313346228
            ],
            [
                0.560391730141458,
                0.9458413926499034
            ]
        ],
        [
            [
                0.5049114546620043,
                0.9928115707728283
            ],
            [
                0.5195865070729053,
                1.0077369439071566
            ],
            [
                0.5334229850603269,
                0.9995279886832761
            ]
        ],
        [
            [
                0.5516866158868335,
                0.9593810444874274
            ],
            [
                0.5794341675734495,
                0.9506769825918763
            ],
            [
                0.5924320711373908,
                0.9372441467709808
            ]
        ],
        [
            [
                0.5761697497279652,
                0.913926499032882
            ],
            [
                0.6539717083786726,
                0.8713733075435204
            ],
            [
                0.7143634385201306,
                0.855899419729207
            ]
        ],
        [
            [
                0.7393906420021763,
                0.8636363636363636
            ],
            [
                0.7665941240478781,
                0.8713733075435204
            ],
            [
                0.7858813357879201,
                0.883313606050983
            ]
        ],
        [
            [
                0.8313384113166485,
                0.9061895551257255
            ],
            [
                0.838411316648531,
                0.9758220502901355
            ],
            [
                0.8400884654954912,
                0.9974638413349116
            ]
        ],
        [
            [
                0.8442348008385744,
                1.0305970149253731
            ],
            [
                0.8459119496855346,
                1.0522388059701493
            ],
            [
                0.881132075471698,
                1.1029850746268657
            ]
        ],
        [
            [
                0.9867924528301887,
                1.255223880597015
            ],
            [
                1.022012578616352,
                1.3059701492537314
            ],
            [
                1.0245283018867923,
                1.2149253731343284
            ]
        ],
        [
            [
                1.032075471698113,
                0.9417910447761194
            ],
            [
                1.0345911949685533,
                0.8507462686567164
            ],
            [
                1.0174004192872117,
                0.8589552238805971
            ]
        ],
        [
            [
                0.984221980413493,
                0.8713733075435205
            ],
            [
                0.9281828073993471,
                0.8781431334622825
            ],
            [
                0.8280739934711644,
                0.8626692456479691
            ]
        ],
        [
            [
                0.8356909684439608,
                0.8491295938104448
            ],
            [
                0.8182807399347117,
                0.8230174081237911
            ],
            [
                0.7475516866158869,
                0.7911025145067699
            ]
        ],
        [
            [
                0.7453822516955128,
                0.7555212332919546
            ],
            [
                0.7442872687704026,
                0.7524177949709865
            ],
            [
                0.7132752992383026,
                0.6721470019342358
            ]
        ],
        [
            [
                0.823177366702938,
                0.6653771760154739
            ],
            [
                0.8498367791077258,
                0.6624758220502901
            ],
            [
                0.8661588683351469,
                0.6450676982591876
            ]
        ],
        [
            [
                0.9265813948713738,
                0.6225064233955949
            ],
            [
                0.9455930359085963,
                0.6431334622823984
            ],
            [
                0.9673959709190786,
                0.6558200294465776
            ]
        ],
        [
            [
                1.0023060796645702,
                0.7
            ],
            [
                1.0241090146750524,
                0.7126865671641791
            ],
            [
                1.0542976939203355,
                0.7305970149253731
            ]
        ],
        [
            [
                1.1448637316561843,
                0.7843283582089553
            ],
            [
                1.1750524109014675,
                0.8022388059701493
            ],
            [
                1.1670859538784066,
                0.917910447761194
            ]
        ],
        [
            [
                1.1431865828092242,
                1.2649253731343284
            ],
            [
                1.1352201257861634,
                1.380597014925373
            ],
            [
                1.0115303983228512,
                1.3888059701492537
            ]
        ],
        [
            [
                0.640461215932914,
                1.4134328358208954
            ],
            [
                0.5167714884696016,
                1.421641791044776
            ],
            [
                0.360377358490566,
                1.4111940298507462
            ]
        ],
        [
            [
                -0.1088050314465409,
                1.3798507462686567
            ],
            [
                -0.26519916142557654,
                1.369402985074627
            ],
            [
                -0.2580712788259958,
                1.1977611940298507
            ]
        ],
        [
            [
                -0.23668763102725368,
                0.6828358208955224
            ],
            [
                -0.22955974842767293,
                0.5111940298507462
            ],
            [
                -0.1880503144654088,
                0.526865671641791
            ]
        ]
    ]
}
</property>
    <property name="kdenlive:collapsed">0</property>
   </filter>
  </entry>
  <entry producer="producer277" in="00:00:19.267" out="00:00:22.733">
   <property name="kdenlive:id">37</property>
   <property name="kdenlive:activeeffect">5</property>
   <filter id="filter332">
    <property name="version">0.6</property>
    <property name="mlt_service">frei0r.select0r</property>
    <property name="kdenlive_id">frei0r.select0r</property>
    <property name="Color to select">0x379f55ff</property>
    <property name="Invert selection">1</property>
    <property name="Selection subspace">1</property>
    <property name="Subspace shape">0.5</property>
    <property name="Edge mode">0.9</property>
    <property name="Delta R / A / Hue">00:00:19.267=0.021;00:00:22.733=0.021</property>
    <property name="Delta G / B / Chroma">00:00:19.267=0.223;00:00:22.733=0.223</property>
    <property name="Delta B / I / I">00:00:19.267=0.429;00:00:22.733=0.429</property>
    <property name="Slope">00:00:19.267=0.157;00:00:22.733=0.157</property>
    <property name="Operation">0.5</property>
    <property name="kdenlive:collapsed">0</property>
   </filter>
   <filter id="filter333">
    <property name="mlt_service">avfilter.despill</property>
    <property name="kdenlive_id">avfilter.despill</property>
    <property name="av.type">green</property>
    <property name="av.mix">0.357</property>
    <property name="av.expand">0.047</property>
    <property name="av.red">0</property>
    <property name="av.green">-1</property>
    <property name="av.blue">0</property>
    <property name="av.brightness">0</property>
    <property name="kdenlive:collapsed">0</property>
   </filter>
   <filter id="filter334">
    <property name="mode">alpha</property>
    <property name="alpha_operation">sub</property>
    <property name="invert">0</property>
    <property name="feather">4</property>
    <property name="feather_passes">1</property>
    <property name="mlt_service">rotoscoping</property>
    <property name="kdenlive_id">rotoscoping</property>
    <property name="spline">{
    "578": [
        [
            [
                -0.07945492662473794,
                0.367910447761194
            ],
            [
                -0.049266247379454925,
                0.5522388059701493
            ],
            [
                -0.01781970649895178,
                0.5380597014925373
            ]
        ],
        [
            [
                0.07651991614255765,
                0.4955223880597015
            ],
            [
                0.10796645702306079,
                0.48134328358208955
            ],
            [
                0.11593291404612159,
                0.49776119402985075
            ]
        ],
        [
            [
                0.139832285115304,
                0.5470149253731343
            ],
            [
                0.14779874213836477,
                0.5634328358208955
            ],
            [
                0.16540880503144653,
                0.558955223880597
            ]
        ],
        [
            [
                0.21823899371069183,
                0.5455223880597015
            ],
            [
                0.2358490566037736,
                0.541044776119403
            ],
            [
                0.23333333333333334,
                0.49626865671641796
            ]
        ],
        [
            [
                0.22578616352201258,
                0.3619402985074627
            ],
            [
                0.22327044025157233,
                0.31716417910447764
            ],
            [
                0.2555555555555556,
                0.2649253731343284
            ]
        ],
        [
            [
                0.35241090146750526,
                0.1082089552238806
            ],
            [
                0.38469601677148846,
                0.055970149253731345
            ],
            [
                0.43836477987421385,
                0.05522388059701493
            ]
        ],
        [
            [
                0.5611299311301364,
                0.05393775801841853
            ],
            [
                0.6147986942328618,
                0.05319148936170213
            ],
            [
                0.6315701827024635,
                0.10916163861543346
            ]
        ],
        [
            [
                0.74220566060548,
                0.25447472502093016
            ],
            [
                0.7589771490750816,
                0.3104448742746615
            ],
            [
                0.7765872119681634,
                0.36940009815525854
            ]
        ],
        [
            [
                0.8312368972746331,
                0.43656716417910446
            ],
            [
                0.8364779874213837,
                0.6417910447761195
            ],
            [
                0.8415094339622642,
                0.6492537313432838
            ]
        ],
        [
            [
                0.8450733752620544,
                0.6567164179104478
            ],
            [
                0.850104821802935,
                0.664179104477612
            ],
            [
                0.859329140461216,
                0.6567164179104478
            ]
        ],
        [
            [
                0.8803046789989118,
                0.6363636363636364
            ],
            [
                0.9058759521218716,
                0.6344294003868471
            ],
            [
                0.9624591947769314,
                0.6479690522243714
            ]
        ],
        [
            [
                1.0038084874863982,
                0.6653771760154739
            ],
            [
                1.0345911949685533,
                0.7014925373134328
            ],
            [
                1.0635220125786164,
                0.5492537313432836
            ]
        ],
        [
            [
                1.150314465408805,
                0.09253731343283582
            ],
            [
                1.179245283018868,
                -0.059701492537313425
            ],
            [
                1.1666666666666667,
                -0.10820895522388059
            ]
        ],
        [
            [
                1.1289308176100628,
                -0.2537313432835821
            ],
            [
                1.1163522012578615,
                -0.30223880597014924
            ],
            [
                0.8530398322851152,
                -0.3156716417910448
            ]
        ],
        [
            [
                0.06310272536687629,
                -0.3559701492537313
            ],
            [
                -0.20020964360587,
                -0.3694029850746269
            ],
            [
                -0.170020964360587,
                -0.18507462686567167
            ]
        ]
    ],
    "682": [
        [
            [
                -0.07945492662473794,
                0.367910447761194
            ],
            [
                -0.049266247379454925,
                0.5522388059701493
            ],
            [
                -0.01781970649895178,
                0.5380597014925373
            ]
        ],
        [
            [
                0.07651991614255765,
                0.4955223880597015
            ],
            [
                0.10796645702306079,
                0.48134328358208955
            ],
            [
                0.11593291404612159,
                0.49776119402985075
            ]
        ],
        [
            [
                0.139832285115304,
                0.5470149253731343
            ],
            [
                0.14779874213836477,
                0.5634328358208955
            ],
            [
                0.16540880503144653,
                0.558955223880597
            ]
        ],
        [
            [
                0.21823899371069183,
                0.5455223880597015
            ],
            [
                0.2358490566037736,
                0.541044776119403
            ],
            [
                0.23333333333333334,
                0.49626865671641796
            ]
        ],
        [
            [
                0.22578616352201258,
                0.3619402985074627
            ],
            [
                0.22327044025157233,
                0.31716417910447764
            ],
            [
                0.2555555555555556,
                0.2649253731343284
            ]
        ],
        [
            [
                0.35241090146750526,
                0.1082089552238806
            ],
            [
                0.38469601677148846,
                0.055970149253731345
            ],
            [
                0.43836477987421385,
                0.05522388059701493
            ]
        ],
        [
            [
                0.5611299311301364,
                0.05393775801841853
            ],
            [
                0.6147986942328618,
                0.05319148936170213
            ],
            [
                0.6315701827024635,
                0.10916163861543346
            ]
        ],
        [
            [
                0.74220566060548,
                0.25447472502093016
            ],
            [
                0.7589771490750816,
                0.3104448742746615
            ],
            [
                0.7765872119681634,
                0.36940009815525854
            ]
        ],
        [
            [
                0.8312368972746331,
                0.43656716417910446
            ],
            [
                0.8364779874213837,
                0.6417910447761195
            ],
            [
                0.8415094339622642,
                0.6492537313432838
            ]
        ],
        [
            [
                0.8450733752620544,
                0.6567164179104478
            ],
            [
                0.850104821802935,
                0.664179104477612
            ],
            [
                0.859329140461216,
                0.6567164179104478
            ]
        ],
        [
            [
                0.8803046789989118,
                0.6363636363636364
            ],
            [
                0.9058759521218716,
                0.6344294003868471
            ],
            [
                0.9624591947769314,
                0.6479690522243714
            ]
        ],
        [
            [
                1.0038084874863982,
                0.6653771760154739
            ],
            [
                1.0345911949685533,
                0.7014925373134328
            ],
            [
                1.0635220125786164,
                0.5492537313432836
            ]
        ],
        [
            [
                1.150314465408805,
                0.09253731343283582
            ],
            [
                1.179245283018868,
                -0.059701492537313425
            ],
            [
                1.1666666666666667,
                -0.10820895522388059
            ]
        ],
        [
            [
                1.1289308176100628,
                -0.2537313432835821
            ],
            [
                1.1163522012578615,
                -0.30223880597014924
            ],
            [
                0.8530398322851152,
                -0.3156716417910448
            ]
        ],
        [
            [
                0.06310272536687629,
                -0.3559701492537313
            ],
            [
                -0.20020964360587,
                -0.3694029850746269
            ],
            [
                -0.170020964360587,
                -0.18507462686567167
            ]
        ]
    ]
}
</property>
    <property name="kdenlive:collapsed">0</property>
   </filter>
   <filter id="filter335">
    <property name="mode">alpha</property>
    <property name="alpha_operation">add</property>
    <property name="invert">0</property>
    <property name="feather">4</property>
    <property name="feather_passes">1</property>
    <property name="mlt_service">rotoscoping</property>
    <property name="kdenlive_id">rotoscoping</property>
    <property name="spline">{
    "0578": [
        [
            [
                -0.06352201257861635,
                0.5738805970149253
            ],
            [
                -0.0220125786163522,
                0.5895522388059701
            ],
            [
                -0.0014675052410901427,
                0.6022388059701492
            ]
        ],
        [
            [
                0.0750816104461371,
                0.5880077369439072
            ],
            [
                0.08071278825995808,
                0.6529850746268657
            ],
            [
                0.05658324265505985,
                0.7079303675048356
            ]
        ],
        [
            [
                -0.014884696016771485,
                0.7186567164179104
            ],
            [
                -0.038784067085953874,
                0.7350746268656716
            ],
            [
                -0.035429769392033544,
                0.8029850746268656
            ]
        ],
        [
            [
                -0.025366876310272533,
                1.0067164179104477
            ],
            [
                -0.0220125786163522,
                1.0746268656716418
            ],
            [
                0.02368972746331237,
                1.0671641791044777
            ]
        ],
        [
            [
                0.17355775920869235,
                1.0384104621957908
            ],
            [
                0.2192600652883569,
                1.0309477756286267
            ],
            [
                0.11588683351468988,
                0.981624758220503
            ]
        ],
        [
            [
                0.025815363066682185,
                0.9321934813360665
            ],
            [
                0.046789989118607184,
                0.8868471953578337
            ],
            [
                0.0941240478781284,
                0.7872340425531915
            ]
        ],
        [
            [
                0.2541250059881878,
                0.8345694159762117
            ],
            [
                0.2981501632208923,
                0.8278529980657641
            ],
            [
                0.3342088634305359,
                0.8412858338866595
            ]
        ],
        [
            [
                0.4264004945672878,
                0.8753485955137273
            ],
            [
                0.4624591947769314,
                0.8887814313346228
            ],
            [
                0.560391730141458,
                0.9458413926499034
            ]
        ],
        [
            [
                0.5049114546620043,
                0.9928115707728283
            ],
            [
                0.5195865070729053,
                1.0077369439071566
            ],
            [
                0.5334229850603269,
                0.9995279886832761
            ]
        ],
        [
            [
                0.5516866158868335,
                0.9593810444874274
            ],
            [
                0.5794341675734495,
                0.9506769825918763
            ],
            [
                0.5924320711373908,
                0.9372441467709808
            ]
        ],
        [
            [
                0.5761697497279652,
                0.913926499032882
            ],
            [
                0.6539717083786726,
                0.8713733075435204
            ],
            [
                0.7143634385201306,
                0.855899419729207
            ]
        ],
        [
            [
                0.7393906420021763,
                0.8636363636363636
            ],
            [
                0.7665941240478781,
                0.8713733075435204
            ],
            [
                0.7858813357879201,
                0.883313606050983
            ]
        ],
        [
            [
                0.8313384113166485,
                0.9061895551257255
            ],
            [
                0.838411316648531,
                0.9758220502901355
            ],
            [
                0.8400884654954912,
                0.9974638413349116
            ]
        ],
        [
            [
                0.8442348008385744,
                1.0305970149253731
            ],
            [
                0.8459119496855346,
                1.0522388059701493
            ],
            [
                0.881132075471698,
                1.1029850746268657
            ]
        ],
        [
            [
                0.9867924528301887,
                1.255223880597015
            ],
            [
                1.022012578616352,
                1.3059701492537314
            ],
            [
                1.0245283018867923,
                1.2149253731343284
            ]
        ],
        [
            [
                1.032075471698113,
                0.9417910447761194
            ],
            [
                1.0345911949685533,
                0.8507462686567164
            ],
            [
                1.0174004192872117,
                0.8589552238805971
            ]
        ],
        [
            [
                0.984221980413493,
                0.8713733075435205
            ],
            [
                0.9281828073993471,
                0.8781431334622825
            ],
            [
                0.8280739934711644,
                0.8626692456479691
            ]
        ],
        [
            [
                0.8356909684439608,
                0.8491295938104448
            ],
            [
                0.8182807399347117,
                0.8230174081237911
            ],
            [
                0.7475516866158869,
                0.7911025145067699
            ]
        ],
        [
            [
                0.7453822516955128,
                0.7555212332919546
            ],
            [
                0.7442872687704026,
                0.7524177949709865
            ],
            [
                0.7132752992383026,
                0.6721470019342358
            ]
        ],
        [
            [
                0.823177366702938,
                0.6653771760154739
            ],
            [
                0.8498367791077258,
                0.6624758220502901
            ],
            [
                0.8661588683351469,
                0.6450676982591876
            ]
        ],
        [
            [
                0.9265813948713738,
                0.6225064233955949
            ],
            [
                0.9455930359085963,
                0.6431334622823984
            ],
            [
                0.9673959709190786,
                0.6558200294465776
            ]
        ],
        [
            [
                1.0023060796645702,
                0.7
            ],
            [
                1.0241090146750524,
                0.7126865671641791
            ],
            [
                1.0542976939203355,
                0.7305970149253731
            ]
        ],
        [
            [
                1.1448637316561843,
                0.7843283582089553
            ],
            [
                1.1750524109014675,
                0.8022388059701493
            ],
            [
                1.1670859538784066,
                0.917910447761194
            ]
        ],
        [
            [
                1.1431865828092242,
                1.2649253731343284
            ],
            [
                1.1352201257861634,
                1.380597014925373
            ],
            [
                1.0115303983228512,
                1.3888059701492537
            ]
        ],
        [
            [
                0.640461215932914,
                1.4134328358208954
            ],
            [
                0.5167714884696016,
                1.421641791044776
            ],
            [
                0.360377358490566,
                1.4111940298507462
            ]
        ],
        [
            [
                -0.1088050314465409,
                1.3798507462686567
            ],
            [
                -0.26519916142557654,
                1.369402985074627
            ],
            [
                -0.2580712788259958,
                1.1977611940298507
            ]
        ],
        [
            [
                -0.23668763102725368,
                0.6828358208955224
            ],
            [
                -0.22955974842767293,
                0.5111940298507462
            ],
            [
                -0.1880503144654088,
                0.526865671641791
            ]
        ]
    ]
}
</property>
    <property name="kdenlive:collapsed">0</property>
   </filter>
   <filter id="filter336" in="00:00:19.267" out="00:00:19.500">
    <property name="start">0</property>
    <property name="mlt_service">brightness</property>
    <property name="kdenlive_id">fade_from_black</property>
    <property name="end">1</property>
    <property name="alpha">-1</property>
    <property name="kdenlive:collapsed">0</property>
   </filter>
   <filter id="filter337">
    <property name="rotate_center">1</property>
    <property name="mlt_service">qtblend</property>
    <property name="kdenlive_id">qtblend</property>
    <property name="rect">00:00:19.267=0 0 1920 1080 1.000000;00:00:22.433=0 0 1920 1080 1.000000;00:00:22.733=144 -53 1632 918 1.000000</property>
    <property name="rotation">00:00:19.267=0;00:00:22.433=0;00:00:22.733=0</property>
    <property name="compositing">0</property>
    <property name="distort">0</property>
    <property name="kdenlive:collapsed">0</property>
   </filter>
  </entry>
 </playlist>
 <playlist id="playlist29"/>
 <tractor id="tractor14" in="00:00:00.000" out="00:05:34.567">
  <property name="kdenlive:trackheight">69</property>
  <property name="kdenlive:timeline_active">1</property>
  <property name="kdenlive:collapsed">0</property>
  <property name="kdenlive:track_name">effects</property>
  <property name="kdenlive:thumbs_format"/>
  <property name="kdenlive:audio_rec"/>
  <track hide="audio" producer="playlist28"/>
  <track producer="playlist29"/>
 </tractor>
 <tractor id="tractor15" global_feed="1" in="00:00:00.000" out="00:35:00.000">
  <track producer="black_track"/>
  <track producer="tractor0"/>
  <track producer="tractor1"/>
  <track producer="tractor2"/>
  <track producer="tractor3"/>
  <track producer="tractor4"/>
  <track producer="tractor5"/>
  <track producer="tractor6"/>
  <track producer="tractor7"/>
  <track producer="tractor8"/>
  <track producer="tractor9"/>
  <track producer="tractor10"/>
  <track producer="tractor11"/>
  <track producer="tractor12"/>
  <track producer="tractor13"/>
  <track producer="tractor14"/>
  <transition id="transition0">
   <property name="a_track">0</property>
   <property name="b_track">1</property>
   <property name="mlt_service">mix</property>
   <property name="kdenlive_id">mix</property>
   <property name="internal_added">237</property>
   <property name="always_active">1</property>
   <property name="accepts_blanks">1</property>
   <property name="sum">1</property>
  </transition>
  <transition id="transition1">
   <property name="a_track">0</property>
   <property name="b_track">2</property>
   <property name="mlt_service">mix</property>
   <property name="kdenlive_id">mix</property>
   <property name="internal_added">237</property>
   <property name="always_active">1</property>
   <property name="accepts_blanks">1</property>
   <property name="sum">1</property>
  </transition>
  <transition id="transition2">
   <property name="a_track">0</property>
   <property name="b_track">3</property>
   <property name="mlt_service">mix</property>
   <property name="kdenlive_id">mix</property>
   <property name="internal_added">237</property>
   <property name="always_active">1</property>
   <property name="accepts_blanks">1</property>
   <property name="sum">1</property>
  </transition>
  <transition id="transition3" in="00:03:36.200" out="00:03:37.533">
   <property name="a_track">12</property>
   <property name="b_track">14</property>
   <property name="start">0/0:100%x100%</property>
   <property name="factory">loader</property>
   <property name="aligned">0</property>
   <property name="progressive">1</property>
   <property name="mlt_service">composite</property>
   <property name="kdenlive_id">wipe</property>
   <property name="force_track">1</property>
   <property name="softness">0.35</property>
   <property name="luma">/tmp/.mount_kdenliosMXPz/usr/share/kdenlive/lumas/HD/linear_x.pgm</property>
   <property name="luma_invert">1</property>
   <property name="geometry">0%/0%:100%x100%:0;-1=0%/0%:100%x100%:100</property>
   <property name="fill">1</property>
  </transition>
  <transition id="transition4" in="00:03:22.200" out="00:03:37.533">
   <property name="a_track">12</property>
   <property name="b_track">15</property>
   <property name="version">0.9</property>
   <property name="mlt_service">frei0r.cairoblend</property>
   <property name="kdenlive_id">frei0r.cairoblend</property>
   <property name="force_track">1</property>
   <property name="0">00:00:00.000=0.14</property>
   <property name="1">lighten</property>
  </transition>
  <transition id="transition5" in="00:06:15.433" out="00:06:17.100">
   <property name="a_track">6</property>
   <property name="b_track">7</property>
   <property name="start">0/0:100%x100%</property>
   <property name="factory">loader</property>
   <property name="aligned">0</property>
   <property name="progressive">1</property>
   <property name="mlt_service">composite</property>
   <property name="kdenlive_id">wipe</property>
   <property name="softness">0</property>
   <property name="luma"/>
   <property name="luma_invert">0</property>
   <property name="geometry">0%/0%:100%x100%:0;-1=0%/0%:100%x100%:100</property>
   <property name="fill">1</property>
  </transition>
  <transition id="transition6" in="00:12:00.433" out="00:12:08.333">
   <property name="a_track">6</property>
   <property name="b_track">7</property>
   <property name="rect">00:00:00.000=0 0 1920 1080 1</property>
   <property name="compositing">14</property>
   <property name="distort">0</property>
   <property name="rotate_center">1</property>
   <property name="mlt_service">qtblend</property>
   <property name="kdenlive_id">qtblend</property>
   <property name="force_track">1</property>
   <property name="rotation">00:00:00.000=0</property>
  </transition>
  <transition id="transition7" in="00:21:25.367" out="00:22:22.667">
   <property name="a_track">5</property>
   <property name="b_track">6</property>
   <property name="rect">00:00:00.000=0 0 1920 1080 0.500000</property>
   <property name="compositing">20</property>
   <property name="distort">0</property>
   <property name="rotate_center">1</property>
   <property name="mlt_service">qtblend</property>
   <property name="kdenlive_id">qtblend</property>
   <property name="rotation">00:00:00.000=0</property>
  </transition>
  <transition id="transition8" in="00:11:31.467" out="00:12:06.033">
   <property name="a_track">5</property>
   <property name="b_track">6</property>
   <property name="rect">00:00:00.000=0 0 1920 1080 1</property>
   <property name="compositing">20</property>
   <property name="distort">0</property>
   <property name="rotate_center">1</property>
   <property name="mlt_service">qtblend</property>
   <property name="kdenlive_id">qtblend</property>
   <property name="rotation">00:00:00.000=0</property>
  </transition>
  <transition id="transition9" in="00:01:28.533" out="00:01:37.433">
   <property name="a_track">5</property>
   <property name="b_track">6</property>
   <property name="version">0.9</property>
   <property name="mlt_service">frei0r.cairoblend</property>
   <property name="kdenlive_id">frei0r.cairoblend</property>
   <property name="0">00:00:00.000=0.23</property>
   <property name="1">add</property>
  </transition>
  <transition id="transition10" in="00:06:25.400" out="00:06:41.367">
   <property name="a_track">5</property>
   <property name="b_track">7</property>
   <property name="version">0.9</property>
   <property name="mlt_service">frei0r.cairoblend</property>
   <property name="kdenlive_id">frei0r.cairoblend</property>
   <property name="0">00:00:00.000=0;00:00:00.833=1;00:00:09.833=1;00:00:15.967=1</property>
   <property name="1">softlight</property>
   <property name="force_track">1</property>
  </transition>
  <transition id="transition11" in="00:07:13.800" out="00:07:18.767">
   <property name="a_track">5</property>
   <property name="b_track">7</property>
   <property name="start">0/0:100%x100%</property>
   <property name="factory">loader</property>
   <property name="aligned">0</property>
   <property name="progressive">1</property>
   <property name="mlt_service">composite</property>
   <property name="kdenlive_id">wipe</property>
   <property name="softness">0.54</property>
   <property name="luma">/tmp/.mount_kdenliosMXPz/usr/share/kdenlive/lumas/HD/cloud.pgm</property>
   <property name="luma_invert">1</property>
   <property name="geometry">0%/0%:100%x100%:0;-1=0%/0%:100%x100%:100</property>
   <property name="fill">1</property>
   <property name="force_track">1</property>
  </transition>
  <transition id="transition12" in="00:18:09.000" out="00:18:10.967">
   <property name="a_track">4</property>
   <property name="b_track">5</property>
   <property name="start">0/0:100%x100%</property>
   <property name="factory">loader</property>
   <property name="aligned">0</property>
   <property name="progressive">1</property>
   <property name="mlt_service">composite</property>
   <property name="kdenlive_id">wipe</property>
   <property name="softness">0</property>
   <property name="luma"/>
   <property name="luma_invert">0</property>
   <property name="geometry">0%/0%:100%x100%:0;-1=0%/0%:100%x100%:100</property>
   <property name="fill">1</property>
  </transition>
  <transition id="transition13" in="00:02:06.733" out="00:02:09.067">
   <property name="a_track">4</property>
   <property name="b_track">5</property>
   <property name="start">0/0:100%x100%</property>
   <property name="factory">loader</property>
   <property name="aligned">0</property>
   <property name="progressive">1</property>
   <property name="mlt_service">composite</property>
   <property name="kdenlive_id">wipe</property>
   <property name="force_track">1</property>
   <property name="softness">0</property>
   <property name="luma"/>
   <property name="luma_invert">0</property>
   <property name="geometry">0%/0%:100%x100%:100;-1=0%/0%:100%x100%:0</property>
   <property name="fill">1</property>
  </transition>
  <transition id="transition14" in="00:17:21.000" out="00:17:22.967">
   <property name="a_track">4</property>
   <property name="b_track">5</property>
   <property name="start">0/0:100%x100%</property>
   <property name="factory">loader</property>
   <property name="aligned">0</property>
   <property name="progressive">1</property>
   <property name="mlt_service">composite</property>
   <property name="kdenlive_id">wipe</property>
   <property name="softness">0</property>
   <property name="luma"/>
   <property name="luma_invert">0</property>
   <property name="geometry">0%/0%:100%x100%:0;-1=0%/0%:100%x100%:100</property>
   <property name="fill">1</property>
  </transition>
  <transition id="transition15" in="00:21:16.400" out="00:22:23.333">
   <property name="a_track">4</property>
   <property name="b_track">5</property>
   <property name="rect">00:00:00.000=0 0 1920 1080 0.750000</property>
   <property name="compositing">14</property>
   <property name="distort">0</property>
   <property name="rotate_center">1</property>
   <property name="mlt_service">qtblend</property>
   <property name="kdenlive_id">qtblend</property>
   <property name="rotation">00:00:00.000=0</property>
  </transition>
  <transition id="transition16" in="00:17:18.000" out="00:17:19.967">
   <property name="a_track">4</property>
   <property name="b_track">5</property>
   <property name="start">0/0:100%x100%</property>
   <property name="factory">loader</property>
   <property name="aligned">0</property>
   <property name="progressive">1</property>
   <property name="mlt_service">composite</property>
   <property name="kdenlive_id">wipe</property>
   <property name="softness">0</property>
   <property name="luma"/>
   <property name="luma_invert">0</property>
   <property name="geometry">0%/0%:100%x100%:100;-1=0%/0%:100%x100%:0</property>
   <property name="fill">1</property>
  </transition>
  <transition id="transition17" in="00:15:28.000" out="00:15:29.967">
   <property name="a_track">4</property>
   <property name="b_track">5</property>
   <property name="start">0/0:100%x100%</property>
   <property name="factory">loader</property>
   <property name="aligned">0</property>
   <property name="progressive">1</property>
   <property name="mlt_service">composite</property>
   <property name="kdenlive_id">wipe</property>
   <property name="softness">0</property>
   <property name="luma"/>
   <property name="luma_invert">0</property>
   <property name="geometry">0%/0%:100%x100%:100;-1=0%/0%:100%x100%:0</property>
   <property name="fill">1</property>
  </transition>
  <transition id="transition18" in="00:15:34.000" out="00:15:35.967">
   <property name="a_track">4</property>
   <property name="b_track">5</property>
   <property name="start">0/0:100%x100%</property>
   <property name="factory">loader</property>
   <property name="aligned">0</property>
   <property name="progressive">1</property>
   <property name="mlt_service">composite</property>
   <property name="kdenlive_id">wipe</property>
   <property name="softness">0</property>
   <property name="luma"/>
   <property name="luma_invert">0</property>
   <property name="geometry">0%/0%:100%x100%:100;-1=0%/0%:100%x100%:0</property>
   <property name="fill">1</property>
  </transition>
  <transition id="transition19" in="00:05:14.200" out="00:06:22.900">
   <property name="a_track">4</property>
   <property name="b_track">5</property>
   <property name="version">0.9</property>
   <property name="mlt_service">frei0r.cairoblend</property>
   <property name="kdenlive_id">frei0r.cairoblend</property>
   <property name="force_track">1</property>
   <property name="0">00:00:00.000=0.65;00:00:01.567=0.06;00:00:03.467=0.07;00:00:08.933=0.125188;00:00:10.333=0.03;00:00:13.100=0.0636842;00:00:14.633=0.55;00:00:16.967=0.555801;00:00:17.800=0.78;00:00:19.267=0.86;00:00:20.133=0.856226;00:00:21.400=0.73;00:00:22.533=0.19;00:00:23.533=0.64;00:00:26.200=0.36;00:00:27.900=0.57;00:00:28.900=0.82;00:00:30.300=0.64;00:00:31.800=0.65;00:00:33.300=0.650965;00:00:34.267=0.03;00:00:46.667=0.02;00:00:47.233=0.92;00:00:49.033=0.62;00:00:49.967=0.73;00:00:51.667=0.86;00:00:52.933=0.64;00:00:54.000=0.46;00:00:54.300=0.03;00:01:00.467=0.01;00:01:01.733=0.72;00:01:02.900=0.67</property>
   <property name="1">darken</property>
  </transition>
  <transition id="transition20" in="00:16:45.000" out="00:16:46.967">
   <property name="a_track">4</property>
   <property name="b_track">5</property>
   <property name="start">0/0:100%x100%</property>
   <property name="factory">loader</property>
   <property name="aligned">0</property>
   <property name="progressive">1</property>
   <property name="mlt_service">composite</property>
   <property name="kdenlive_id">wipe</property>
   <property name="softness">0</property>
   <property name="luma"/>
   <property name="luma_invert">0</property>
   <property name="geometry">0%/0%:100%x100%:0;-1=0%/0%:100%x100%:100</property>
   <property name="fill">1</property>
  </transition>
  <transition id="transition21" in="00:15:31.000" out="00:15:32.967">
   <property name="a_track">4</property>
   <property name="b_track">5</property>
   <property name="start">0/0:100%x100%</property>
   <property name="factory">loader</property>
   <property name="aligned">0</property>
   <property name="progressive">1</property>
   <property name="mlt_service">composite</property>
   <property name="kdenlive_id">wipe</property>
   <property name="softness">0</property>
   <property name="luma"/>
   <property name="luma_invert">0</property>
   <property name="geometry">0%/0%:100%x100%:0;-1=0%/0%:100%x100%:100</property>
   <property name="fill">1</property>
  </transition>
  <transition id="transition22" in="00:15:13.000" out="00:15:14.967">
   <property name="a_track">4</property>
   <property name="b_track">5</property>
   <property name="start">0/0:100%x100%</property>
   <property name="factory">loader</property>
   <property name="aligned">0</property>
   <property name="progressive">1</property>
   <property name="mlt_service">composite</property>
   <property name="kdenlive_id">wipe</property>
   <property name="softness">0</property>
   <property name="luma"/>
   <property name="luma_invert">0</property>
   <property name="geometry">0%/0%:100%x100%:0;-1=0%/0%:100%x100%:100</property>
   <property name="fill">1</property>
  </transition>
  <transition id="transition23" in="00:00:07.000" out="00:00:47.333">
   <property name="a_track">4</property>
   <property name="b_track">5</property>
   <property name="version">0.9</property>
   <property name="mlt_service">frei0r.cairoblend</property>
   <property name="kdenlive_id">frei0r.cairoblend</property>
   <property name="0">00:00:00.000=0;00:00:09.700=0.0804608;00:00:10.867=0.2;00:00:12.067=0.100092;00:00:14.467=0.12;00:00:14.900=0.21;00:00:15.867=0.05;00:00:17.133=0.39;00:00:18.600=0.5;00:00:19.567=0.05;00:00:20.533=0.15;00:00:21.500=0.406139;00:00:21.900=0;00:00:22.700=0.49;00:00:23.100=0;00:00:23.767=0.66;00:00:24.000=0.05;00:00:24.833=0.35;00:00:25.400=0.1;00:00:25.967=0.38;00:00:26.067=0;00:00:27.367=0.61;00:00:29.600=0.44;00:00:30.533=0.83;00:00:32.733=0.39;00:00:34.033=0.42;00:00:34.433=0.86;00:00:39.167=0.45;00:00:40.133=0.91</property>
   <property name="1">lighten</property>
  </transition>
  <transition id="transition24" in="00:17:24.000" out="00:17:25.967">
   <property name="a_track">4</property>
   <property name="b_track">5</property>
   <property name="start">0/0:100%x100%</property>
   <property name="factory">loader</property>
   <property name="aligned">0</property>
   <property name="progressive">1</property>
   <property name="mlt_service">composite</property>
   <property name="kdenlive_id">wipe</property>
   <property name="softness">0</property>
   <property name="luma"/>
   <property name="luma_invert">0</property>
   <property name="geometry">0%/0%:100%x100%:100;-1=0%/0%:100%x100%:0</property>
   <property name="fill">1</property>
  </transition>
  <transition id="transition25" in="00:11:26.200" out="00:12:08.333">
   <property name="a_track">4</property>
   <property name="b_track">5</property>
   <property name="rect">00:00:00.000=0 0 1920 1080 1</property>
   <property name="compositing">14</property>
   <property name="distort">0</property>
   <property name="rotate_center">1</property>
   <property name="mlt_service">qtblend</property>
   <property name="kdenlive_id">qtblend</property>
   <property name="rotation">00:00:00.000=0</property>
  </transition>
  <transition id="transition26" in="00:17:27.000" out="00:17:28.967">
   <property name="a_track">4</property>
   <property name="b_track">5</property>
   <property name="start">0/0:100%x100%</property>
   <property name="factory">loader</property>
   <property name="aligned">0</property>
   <property name="progressive">1</property>
   <property name="mlt_service">composite</property>
   <property name="kdenlive_id">wipe</property>
   <property name="softness">0</property>
   <property name="luma"/>
   <property name="luma_invert">0</property>
   <property name="geometry">0%/0%:100%x100%:0;-1=0%/0%:100%x100%:100</property>
   <property name="fill">1</property>
  </transition>
  <transition id="transition27" in="00:15:19.000" out="00:15:20.967">
   <property name="a_track">4</property>
   <property name="b_track">5</property>
   <property name="start">0/0:100%x100%</property>
   <property name="factory">loader</property>
   <property name="aligned">0</property>
   <property name="progressive">1</property>
   <property name="mlt_service">composite</property>
   <property name="kdenlive_id">wipe</property>
   <property name="softness">0</property>
   <property name="luma"/>
   <property name="luma_invert">0</property>
   <property name="geometry">0%/0%:100%x100%:0;-1=0%/0%:100%x100%:100</property>
   <property name="fill">1</property>
  </transition>
  <transition id="transition28" in="00:17:30.000" out="00:17:31.967">
   <property name="a_track">4</property>
   <property name="b_track">5</property>
   <property name="start">0/0:100%x100%</property>
   <property name="factory">loader</property>
   <property name="aligned">0</property>
   <property name="progressive">1</property>
   <property name="mlt_service">composite</property>
   <property name="kdenlive_id">wipe</property>
   <property name="softness">0</property>
   <property name="luma"/>
   <property name="luma_invert">0</property>
   <property name="geometry">0%/0%:100%x100%:100;-1=0%/0%:100%x100%:0</property>
   <property name="fill">1</property>
  </transition>
  <transition id="transition29" in="00:16:27.000" out="00:16:28.967">
   <property name="a_track">4</property>
   <property name="b_track">5</property>
   <property name="start">0/0:100%x100%</property>
   <property name="factory">loader</property>
   <property name="aligned">0</property>
   <property name="progressive">1</property>
   <property name="mlt_service">composite</property>
   <property name="kdenlive_id">wipe</property>
   <property name="softness">0</property>
   <property name="luma"/>
   <property name="luma_invert">0</property>
   <property name="geometry">0%/0%:100%x100%:0;-1=0%/0%:100%x100%:100</property>
   <property name="fill">1</property>
  </transition>
  <transition id="transition30" in="00:17:33.000" out="00:17:34.967">
   <property name="a_track">4</property>
   <property name="b_track">5</property>
   <property name="start">0/0:100%x100%</property>
   <property name="factory">loader</property>
   <property name="aligned">0</property>
   <property name="progressive">1</property>
   <property name="mlt_service">composite</property>
   <property name="kdenlive_id">wipe</property>
   <property name="softness">0</property>
   <property name="luma"/>
   <property name="luma_invert">0</property>
   <property name="geometry">0%/0%:100%x100%:0;-1=0%/0%:100%x100%:100</property>
   <property name="fill">1</property>
  </transition>
  <transition id="transition31" in="00:15:37.000" out="00:15:38.967">
   <property name="a_track">4</property>
   <property name="b_track">5</property>
   <property name="start">0/0:100%x100%</property>
   <property name="factory">loader</property>
   <property name="aligned">0</property>
   <property name="progressive">1</property>
   <property name="mlt_service">composite</property>
   <property name="kdenlive_id">wipe</property>
   <property name="softness">0</property>
   <property name="luma"/>
   <property name="luma_invert">0</property>
   <property name="geometry">0%/0%:100%x100%:0;-1=0%/0%:100%x100%:100</property>
   <property name="fill">1</property>
  </transition>
  <transition id="transition32" in="00:17:36.000" out="00:17:37.967">
   <property name="a_track">4</property>
   <property name="b_track">5</property>
   <property name="start">0/0:100%x100%</property>
   <property name="factory">loader</property>
   <property name="aligned">0</property>
   <property name="progressive">1</property>
   <property name="mlt_service">composite</property>
   <property name="kdenlive_id">wipe</property>
   <property name="softness">0</property>
   <property name="luma"/>
   <property name="luma_invert">0</property>
   <property name="geometry">0%/0%:100%x100%:100;-1=0%/0%:100%x100%:0</property>
   <property name="fill">1</property>
  </transition>
  <transition id="transition33" in="00:17:42.000" out="00:17:43.967">
   <property name="a_track">4</property>
   <property name="b_track">5</property>
   <property name="start">0/0:100%x100%</property>
   <property name="factory">loader</property>
   <property name="aligned">0</property>
   <property name="progressive">1</property>
   <property name="mlt_service">composite</property>
   <property name="kdenlive_id">wipe</property>
   <property name="softness">0</property>
   <property name="luma"/>
   <property name="luma_invert">0</property>
   <property name="geometry">0%/0%:100%x100%:100;-1=0%/0%:100%x100%:0</property>
   <property name="fill">1</property>
  </transition>
  <transition id="transition34" in="00:17:03.000" out="00:17:04.967">
   <property name="a_track">4</property>
   <property name="b_track">5</property>
   <property name="start">0/0:100%x100%</property>
   <property name="factory">loader</property>
   <property name="aligned">0</property>
   <property name="progressive">1</property>
   <property name="mlt_service">composite</property>
   <property name="kdenlive_id">wipe</property>
   <property name="softness">0</property>
   <property name="luma"/>
   <property name="luma_invert">0</property>
   <property name="geometry">0%/0%:100%x100%:0;-1=0%/0%:100%x100%:100</property>
   <property name="fill">1</property>
  </transition>
  <transition id="transition35" in="00:15:07.000" out="00:15:08.967">
   <property name="a_track">4</property>
   <property name="b_track">5</property>
   <property name="start">0/0:100%x100%</property>
   <property name="factory">loader</property>
   <property name="aligned">0</property>
   <property name="progressive">1</property>
   <property name="mlt_service">composite</property>
   <property name="kdenlive_id">wipe</property>
   <property name="softness">0</property>
   <property name="luma"/>
   <property name="luma_invert">0</property>
   <property name="geometry">0%/0%:100%x100%:0;-1=0%/0%:100%x100%:100</property>
   <property name="fill">1</property>
  </transition>
  <transition id="transition36" in="00:16:57.000" out="00:16:58.967">
   <property name="a_track">4</property>
   <property name="b_track">5</property>
   <property name="start">0/0:100%x100%</property>
   <property name="factory">loader</property>
   <property name="aligned">0</property>
   <property name="progressive">1</property>
   <property name="mlt_service">composite</property>
   <property name="kdenlive_id">wipe</property>
   <property name="softness">0</property>
   <property name="luma"/>
   <property name="luma_invert">0</property>
   <property name="geometry">0%/0%:100%x100%:0;-1=0%/0%:100%x100%:100</property>
   <property name="fill">1</property>
  </transition>
  <transition id="transition37" in="00:00:47.367" out="00:01:22.500">
   <property name="a_track">4</property>
   <property name="b_track">5</property>
   <property name="version">0.9</property>
   <property name="mlt_service">frei0r.cairoblend</property>
   <property name="kdenlive_id">frei0r.cairoblend</property>
   <property name="0">00:00:00.000=1;00:00:01.600=0.21;00:00:05.033=0.11;00:00:08.067=0.83;00:00:10.833=0.21;00:00:12.267=0.76;00:00:13.000=0.47;00:00:14.500=0.39;00:00:14.667=0.81;00:00:15.500=0.9;00:00:15.833=0.33;00:00:17.000=0.55;00:00:17.933=0.9;00:00:18.500=0.23;00:00:20.367=0.48;00:00:21.067=0.8;00:00:24.467=0.751659;00:00:24.967=0.9;00:00:28.267=0.802623;00:00:29.433=0.97;00:00:30.667=0.54;00:00:31.933=0.87;00:00:35.133=0.91</property>
   <property name="1">lighten</property>
  </transition>
  <transition id="transition38" in="00:16:33.000" out="00:16:34.967">
   <property name="a_track">4</property>
   <property name="b_track">5</property>
   <property name="start">0/0:100%x100%</property>
   <property name="factory">loader</property>
   <property name="aligned">0</property>
   <property name="progressive">1</property>
   <property name="mlt_service">composite</property>
   <property name="kdenlive_id">wipe</property>
   <property name="softness">0</property>
   <property name="luma"/>
   <property name="luma_invert">0</property>
   <property name="geometry">0%/0%:100%x100%:0;-1=0%/0%:100%x100%:100</property>
   <property name="fill">1</property>
  </transition>
  <transition id="transition39" in="00:15:10.000" out="00:15:11.967">
   <property name="a_track">4</property>
   <property name="b_track">5</property>
   <property name="start">0/0:100%x100%</property>
   <property name="factory">loader</property>
   <property name="aligned">0</property>
   <property name="progressive">1</property>
   <property name="mlt_service">composite</property>
   <property name="kdenlive_id">wipe</property>
   <property name="softness">0</property>
   <property name="luma"/>
   <property name="luma_invert">0</property>
   <property name="geometry">0%/0%:100%x100%:100;-1=0%/0%:100%x100%:0</property>
   <property name="fill">1</property>
  </transition>
  <transition id="transition40" in="00:17:00.000" out="00:17:01.967">
   <property name="a_track">4</property>
   <property name="b_track">5</property>
   <property name="start">0/0:100%x100%</property>
   <property name="factory">loader</property>
   <property name="aligned">0</property>
   <property name="progressive">1</property>
   <property name="mlt_service">composite</property>
   <property name="kdenlive_id">wipe</property>
   <property name="softness">0</property>
   <property name="luma"/>
   <property name="luma_invert">0</property>
   <property name="geometry">0%/0%:100%x100%:100;-1=0%/0%:100%x100%:0</property>
   <property name="fill">1</property>
  </transition>
  <transition id="transition41" in="00:16:30.000" out="00:16:31.967">
   <property name="a_track">4</property>
   <property name="b_track">5</property>
   <property name="start">0/0:100%x100%</property>
   <property name="factory">loader</property>
   <property name="aligned">0</property>
   <property name="progressive">1</property>
   <property name="mlt_service">composite</property>
   <property name="kdenlive_id">wipe</property>
   <property name="softness">0</property>
   <property name="luma"/>
   <property name="luma_invert">0</property>
   <property name="geometry">0%/0%:100%x100%:100;-1=0%/0%:100%x100%:0</property>
   <property name="fill">1</property>
  </transition>
  <transition id="transition42" in="00:18:18.000" out="00:18:19.967">
   <property name="a_track">4</property>
   <property name="b_track">5</property>
   <property name="start">0/0:100%x100%</property>
   <property name="factory">loader</property>
   <property name="aligned">0</property>
   <property name="progressive">1</property>
   <property name="mlt_service">composite</property>
   <property name="kdenlive_id">wipe</property>
   <property name="softness">0</property>
   <property name="luma"/>
   <property name="luma_invert">0</property>
   <property name="geometry">0%/0%:100%x100%:100;-1=0%/0%:100%x100%:0</property>
   <property name="fill">1</property>
  </transition>
  <transition id="transition43" in="00:15:49.000" out="00:15:50.967">
   <property name="a_track">4</property>
   <property name="b_track">5</property>
   <property name="start">0/0:100%x100%</property>
   <property name="factory">loader</property>
   <property name="aligned">0</property>
   <property name="progressive">1</property>
   <property name="mlt_service">composite</property>
   <property name="kdenlive_id">wipe</property>
   <property name="softness">0</property>
   <property name="luma"/>
   <property name="luma_invert">0</property>
   <property name="geometry">0%/0%:100%x100%:0;-1=0%/0%:100%x100%:100</property>
   <property name="fill">1</property>
  </transition>
  <transition id="transition44" in="00:17:45.000" out="00:17:46.967">
   <property name="a_track">4</property>
   <property name="b_track">5</property>
   <property name="start">0/0:100%x100%</property>
   <property name="factory">loader</property>
   <property name="aligned">0</property>
   <property name="progressive">1</property>
   <property name="mlt_service">composite</property>
   <property name="kdenlive_id">wipe</property>
   <property name="softness">0</property>
   <property name="luma"/>
   <property name="luma_invert">0</property>
   <property name="geometry">0%/0%:100%x100%:0;-1=0%/0%:100%x100%:100</property>
   <property name="fill">1</property>
  </transition>
  <transition id="transition45" in="00:15:40.000" out="00:15:41.967">
   <property name="a_track">4</property>
   <property name="b_track">5</property>
   <property name="start">0/0:100%x100%</property>
   <property name="factory">loader</property>
   <property name="aligned">0</property>
   <property name="progressive">1</property>
   <property name="mlt_service">composite</property>
   <property name="kdenlive_id">wipe</property>
   <property name="softness">0</property>
   <property name="luma"/>
   <property name="luma_invert">0</property>
   <property name="geometry">0%/0%:100%x100%:100;-1=0%/0%:100%x100%:0</property>
   <property name="fill">1</property>
  </transition>
  <transition id="transition46" in="00:01:44.167" out="00:01:45.500">
   <property name="a_track">4</property>
   <property name="b_track">5</property>
   <property name="start">0/0:100%x100%</property>
   <property name="factory">loader</property>
   <property name="aligned">0</property>
   <property name="progressive">1</property>
   <property name="mlt_service">composite</property>
   <property name="kdenlive_id">wipe</property>
   <property name="force_track">1</property>
   <property name="softness">0.43</property>
   <property name="luma">/tmp/.mount_kdenliosMXPz/usr/share/kdenlive/lumas/HD/linear_y.pgm</property>
   <property name="luma_invert">0</property>
   <property name="geometry">0%/0%:100%x100%:100;-1=0%/0%:100%x100%:0</property>
   <property name="fill">1</property>
  </transition>
  <transition id="transition47" in="00:17:39.000" out="00:17:40.967">
   <property name="a_track">4</property>
   <property name="b_track">5</property>
   <property name="start">0/0:100%x100%</property>
   <property name="factory">loader</property>
   <property name="aligned">0</property>
   <property name="progressive">1</property>
   <property name="mlt_service">composite</property>
   <property name="kdenlive_id">wipe</property>
   <property name="softness">0</property>
   <property name="luma"/>
   <property name="luma_invert">0</property>
   <property name="geometry">0%/0%:100%x100%:0;-1=0%/0%:100%x100%:100</property>
   <property name="fill">1</property>
  </transition>
  <transition id="transition48" in="00:01:22.533" out="00:01:30.300">
   <property name="a_track">4</property>
   <property name="b_track">5</property>
   <property name="version">0.9</property>
   <property name="mlt_service">frei0r.cairoblend</property>
   <property name="kdenlive_id">frei0r.cairoblend</property>
   <property name="0">00:00:00.000=100</property>
   <property name="1">lighten</property>
  </transition>
  <transition id="transition49" in="00:01:55.400" out="00:02:06.700">
   <property name="a_track">4</property>
   <property name="b_track">5</property>
   <property name="version">0.9</property>
   <property name="mlt_service">frei0r.cairoblend</property>
   <property name="kdenlive_id">frei0r.cairoblend</property>
   <property name="force_track">1</property>
   <property name="0">00:00:00.000=0.2;00:00:04.567=0.2;00:00:07.933=0.55;00:00:11.300=0.2;00:00:11.333=</property>
   <property name="1">lighten</property>
  </transition>
  <transition id="transition50" in="00:18:03.000" out="00:18:04.967">
   <property name="a_track">4</property>
   <property name="b_track">5</property>
   <property name="start">0/0:100%x100%</property>
   <property name="factory">loader</property>
   <property name="aligned">0</property>
   <property name="progressive">1</property>
   <property name="mlt_service">composite</property>
   <property name="kdenlive_id">wipe</property>
   <property name="softness">0</property>
   <property name="luma"/>
   <property name="luma_invert">0</property>
   <property name="geometry">0%/0%:100%x100%:0;-1=0%/0%:100%x100%:100</property>
   <property name="fill">1</property>
  </transition>
  <transition id="transition51" in="00:06:36.900" out="00:06:41.367">
   <property name="a_track">4</property>
   <property name="b_track">5</property>
   <property name="start">0/0:100%x100%</property>
   <property name="factory">loader</property>
   <property name="aligned">0</property>
   <property name="progressive">1</property>
   <property name="mlt_service">composite</property>
   <property name="kdenlive_id">wipe</property>
   <property name="softness">0</property>
   <property name="luma"/>
   <property name="luma_invert">0</property>
   <property name="geometry">0%/0%:100%x100%:100;-1=0%/0%:100%x100%:0</property>
   <property name="fill">1</property>
  </transition>
  <transition id="transition52" in="00:17:48.000" out="00:17:49.967">
   <property name="a_track">4</property>
   <property name="b_track">5</property>
   <property name="start">0/0:100%x100%</property>
   <property name="factory">loader</property>
   <property name="aligned">0</property>
   <property name="progressive">1</property>
   <property name="mlt_service">composite</property>
   <property name="kdenlive_id">wipe</property>
   <property name="softness">0</property>
   <property name="luma"/>
   <property name="luma_invert">0</property>
   <property name="geometry">0%/0%:100%x100%:100;-1=0%/0%:100%x100%:0</property>
   <property name="fill">1</property>
  </transition>
  <transition id="transition53" in="00:15:46.000" out="00:15:47.967">
   <property name="a_track">4</property>
   <property name="b_track">5</property>
   <property name="start">0/0:100%x100%</property>
   <property name="factory">loader</property>
   <property name="aligned">0</property>
   <property name="progressive">1</property>
   <property name="mlt_service">composite</property>
   <property name="kdenlive_id">wipe</property>
   <property name="softness">0</property>
   <property name="luma"/>
   <property name="luma_invert">0</property>
   <property name="geometry">0%/0%:100%x100%:100;-1=0%/0%:100%x100%:0</property>
   <property name="fill">1</property>
  </transition>
  <transition id="transition54" in="00:18:12.000" out="00:18:13.967">
   <property name="a_track">4</property>
   <property name="b_track">5</property>
   <property name="start">0/0:100%x100%</property>
   <property name="factory">loader</property>
   <property name="aligned">0</property>
   <property name="progressive">1</property>
   <property name="mlt_service">composite</property>
   <property name="kdenlive_id">wipe</property>
   <property name="softness">0</property>
   <property name="luma"/>
   <property name="luma_invert">0</property>
   <property name="geometry">0%/0%:100%x100%:100;-1=0%/0%:100%x100%:0</property>
   <property name="fill">1</property>
  </transition>
  <transition id="transition55" in="00:16:12.000" out="00:16:13.967">
   <property name="a_track">4</property>
   <property name="b_track">5</property>
   <property name="start">0/0:100%x100%</property>
   <property name="factory">loader</property>
   <property name="aligned">0</property>
   <property name="progressive">1</property>
   <property name="mlt_service">composite</property>
   <property name="kdenlive_id">wipe</property>
   <property name="softness">0</property>
   <property name="luma"/>
   <property name="luma_invert">0</property>
   <property name="geometry">0%/0%:100%x100%:100;-1=0%/0%:100%x100%:0</property>
   <property name="fill">1</property>
  </transition>
  <transition id="transition56" in="00:16:18.000" out="00:16:19.967">
   <property name="a_track">4</property>
   <property name="b_track">5</property>
   <property name="start">0/0:100%x100%</property>
   <property name="factory">loader</property>
   <property name="aligned">0</property>
   <property name="progressive">1</property>
   <property name="mlt_service">composite</property>
   <property name="kdenlive_id">wipe</property>
   <property name="softness">0</property>
   <property name="luma"/>
   <property name="luma_invert">0</property>
   <property name="geometry">0%/0%:100%x100%:100;-1=0%/0%:100%x100%:0</property>
   <property name="fill">1</property>
  </transition>
  <transition id="transition57" in="00:16:15.000" out="00:16:16.967">
   <property name="a_track">4</property>
   <property name="b_track">5</property>
   <property name="start">0/0:100%x100%</property>
   <property name="factory">loader</property>
   <property name="aligned">0</property>
   <property name="progressive">1</property>
   <property name="mlt_service">composite</property>
   <property name="kdenlive_id">wipe</property>
   <property name="softness">0</property>
   <property name="luma"/>
   <property name="luma_invert">0</property>
   <property name="geometry">0%/0%:100%x100%:0;-1=0%/0%:100%x100%:100</property>
   <property name="fill">1</property>
  </transition>
  <transition id="transition58" in="00:17:15.000" out="00:17:16.967">
   <property name="a_track">4</property>
   <property name="b_track">5</property>
   <property name="start">0/0:100%x100%</property>
   <property name="factory">loader</property>
   <property name="aligned">0</property>
   <property name="progressive">1</property>
   <property name="mlt_service">composite</property>
   <property name="kdenlive_id">wipe</property>
   <property name="softness">0</property>
   <property name="luma"/>
   <property name="luma_invert">0</property>
   <property name="geometry">0%/0%:100%x100%:0;-1=0%/0%:100%x100%:100</property>
   <property name="fill">1</property>
  </transition>
  <transition id="transition59" in="00:15:16.000" out="00:15:17.967">
   <property name="a_track">4</property>
   <property name="b_track">5</property>
   <property name="start">0/0:100%x100%</property>
   <property name="factory">loader</property>
   <property name="aligned">0</property>
   <property name="progressive">1</property>
   <property name="mlt_service">composite</property>
   <property name="kdenlive_id">wipe</property>
   <property name="softness">0</property>
   <property name="luma"/>
   <property name="luma_invert">0</property>
   <property name="geometry">0%/0%:100%x100%:100;-1=0%/0%:100%x100%:0</property>
   <property name="fill">1</property>
  </transition>
  <transition id="transition60" in="00:16:09.000" out="00:16:10.967">
   <property name="a_track">4</property>
   <property name="b_track">5</property>
   <property name="start">0/0:100%x100%</property>
   <property name="factory">loader</property>
   <property name="aligned">0</property>
   <property name="progressive">1</property>
   <property name="mlt_service">composite</property>
   <property name="kdenlive_id">wipe</property>
   <property name="softness">0</property>
   <property name="luma"/>
   <property name="luma_invert">0</property>
   <property name="geometry">0%/0%:100%x100%:0;-1=0%/0%:100%x100%:100</property>
   <property name="fill">1</property>
  </transition>
  <transition id="transition61" in="00:16:51.000" out="00:16:52.967">
   <property name="a_track">4</property>
   <property name="b_track">5</property>
   <property name="start">0/0:100%x100%</property>
   <property name="factory">loader</property>
   <property name="aligned">0</property>
   <property name="progressive">1</property>
   <property name="mlt_service">composite</property>
   <property name="kdenlive_id">wipe</property>
   <property name="softness">0</property>
   <property name="luma"/>
   <property name="luma_invert">0</property>
   <property name="geometry">0%/0%:100%x100%:0;-1=0%/0%:100%x100%:100</property>
   <property name="fill">1</property>
  </transition>
  <transition id="transition62" in="00:13:49.733" out="00:14:17.467">
   <property name="a_track">4</property>
   <property name="b_track">5</property>
   <property name="rect">00:00:00.000=0 0 1920 1080 1</property>
   <property name="compositing">0</property>
   <property name="distort">0</property>
   <property name="rotate_center">1</property>
   <property name="mlt_service">qtblend</property>
   <property name="kdenlive_id">qtblend</property>
   <property name="rotation">00:00:00.000=0</property>
  </transition>
  <transition id="transition63" in="00:16:24.000" out="00:16:25.967">
   <property name="a_track">4</property>
   <property name="b_track">5</property>
   <property name="start">0/0:100%x100%</property>
   <property name="factory">loader</property>
   <property name="aligned">0</property>
   <property name="progressive">1</property>
   <property name="mlt_service">composite</property>
   <property name="kdenlive_id">wipe</property>
   <property name="softness">0</property>
   <property name="luma"/>
   <property name="luma_invert">0</property>
   <property name="geometry">0%/0%:100%x100%:100;-1=0%/0%:100%x100%:0</property>
   <property name="fill">1</property>
  </transition>
  <transition id="transition64" in="00:16:48.000" out="00:16:49.967">
   <property name="a_track">4</property>
   <property name="b_track">5</property>
   <property name="start">0/0:100%x100%</property>
   <property name="factory">loader</property>
   <property name="aligned">0</property>
   <property name="progressive">1</property>
   <property name="mlt_service">composite</property>
   <property name="kdenlive_id">wipe</property>
   <property name="softness">0</property>
   <property name="luma"/>
   <property name="luma_invert">0</property>
   <property name="geometry">0%/0%:100%x100%:100;-1=0%/0%:100%x100%:0</property>
   <property name="fill">1</property>
  </transition>
  <transition id="transition65" in="00:16:21.000" out="00:16:22.967">
   <property name="a_track">4</property>
   <property name="b_track">5</property>
   <property name="start">0/0:100%x100%</property>
   <property name="factory">loader</property>
   <property name="aligned">0</property>
   <property name="progressive">1</property>
   <property name="mlt_service">composite</property>
   <property name="kdenlive_id">wipe</property>
   <property name="softness">0</property>
   <property name="luma"/>
   <property name="luma_invert">0</property>
   <property name="geometry">0%/0%:100%x100%:0;-1=0%/0%:100%x100%:100</property>
   <property name="fill">1</property>
  </transition>
  <transition id="transition66" in="00:18:15.000" out="00:18:16.967">
   <property name="a_track">4</property>
   <property name="b_track">5</property>
   <property name="start">0/0:100%x100%</property>
   <property name="factory">loader</property>
   <property name="aligned">0</property>
   <property name="progressive">1</property>
   <property name="mlt_service">composite</property>
   <property name="kdenlive_id">wipe</property>
   <property name="softness">0</property>
   <property name="luma"/>
   <property name="luma_invert">0</property>
   <property name="geometry">0%/0%:100%x100%:0;-1=0%/0%:100%x100%:100</property>
   <property name="fill">1</property>
  </transition>
  <transition id="transition67" in="00:18:06.000" out="00:18:07.967">
   <property name="a_track">4</property>
   <property name="b_track">5</property>
   <property name="start">0/0:100%x100%</property>
   <property name="factory">loader</property>
   <property name="aligned">0</property>
   <property name="progressive">1</property>
   <property name="mlt_service">composite</property>
   <property name="kdenlive_id">wipe</property>
   <property name="softness">0</property>
   <property name="luma"/>
   <property name="luma_invert">0</property>
   <property name="geometry">0%/0%:100%x100%:100;-1=0%/0%:100%x100%:0</property>
   <property name="fill">1</property>
  </transition>
  <transition id="transition68" in="00:18:00.000" out="00:18:01.967">
   <property name="a_track">4</property>
   <property name="b_track">5</property>
   <property name="start">0/0:100%x100%</property>
   <property name="factory">loader</property>
   <property name="aligned">0</property>
   <property name="progressive">1</property>
   <property name="mlt_service">composite</property>
   <property name="kdenlive_id">wipe</property>
   <property name="softness">0</property>
   <property name="luma"/>
   <property name="luma_invert">0</property>
   <property name="geometry">0%/0%:100%x100%:100;-1=0%/0%:100%x100%:0</property>
   <property name="fill">1</property>
  </transition>
  <transition id="transition69" in="00:15:22.000" out="00:15:23.967">
   <property name="a_track">4</property>
   <property name="b_track">5</property>
   <property name="start">0/0:100%x100%</property>
   <property name="factory">loader</property>
   <property name="aligned">0</property>
   <property name="progressive">1</property>
   <property name="mlt_service">composite</property>
   <property name="kdenlive_id">wipe</property>
   <property name="softness">0</property>
   <property name="luma"/>
   <property name="luma_invert">0</property>
   <property name="geometry">0%/0%:100%x100%:100;-1=0%/0%:100%x100%:0</property>
   <property name="fill">1</property>
  </transition>
  <transition id="transition70" in="00:17:57.000" out="00:17:58.967">
   <property name="a_track">4</property>
   <property name="b_track">5</property>
   <property name="start">0/0:100%x100%</property>
   <property name="factory">loader</property>
   <property name="aligned">0</property>
   <property name="progressive">1</property>
   <property name="mlt_service">composite</property>
   <property name="kdenlive_id">wipe</property>
   <property name="softness">0</property>
   <property name="luma"/>
   <property name="luma_invert">0</property>
   <property name="geometry">0%/0%:100%x100%:0;-1=0%/0%:100%x100%:100</property>
   <property name="fill">1</property>
  </transition>
  <transition id="transition71" in="00:15:43.000" out="00:15:44.967">
   <property name="a_track">4</property>
   <property name="b_track">5</property>
   <property name="start">0/0:100%x100%</property>
   <property name="factory">loader</property>
   <property name="aligned">0</property>
   <property name="progressive">1</property>
   <property name="mlt_service">composite</property>
   <property name="kdenlive_id">wipe</property>
   <property name="softness">0</property>
   <property name="luma"/>
   <property name="luma_invert">0</property>
   <property name="geometry">0%/0%:100%x100%:0;-1=0%/0%:100%x100%:100</property>
   <property name="fill">1</property>
  </transition>
  <transition id="transition72" in="00:17:54.000" out="00:17:55.967">
   <property name="a_track">4</property>
   <property name="b_track">5</property>
   <property name="start">0/0:100%x100%</property>
   <property name="factory">loader</property>
   <property name="aligned">0</property>
   <property name="progressive">1</property>
   <property name="mlt_service">composite</property>
   <property name="kdenlive_id">wipe</property>
   <property name="softness">0</property>
   <property name="luma"/>
   <property name="luma_invert">0</property>
   <property name="geometry">0%/0%:100%x100%:100;-1=0%/0%:100%x100%:0</property>
   <property name="fill">1</property>
  </transition>
  <transition id="transition73" in="00:15:52.000" out="00:15:53.967">
   <property name="a_track">4</property>
   <property name="b_track">5</property>
   <property name="start">0/0:100%x100%</property>
   <property name="factory">loader</property>
   <property name="aligned">0</property>
   <property name="progressive">1</property>
   <property name="mlt_service">composite</property>
   <property name="kdenlive_id">wipe</property>
   <property name="softness">0</property>
   <property name="luma"/>
   <property name="luma_invert">0</property>
   <property name="geometry">0%/0%:100%x100%:100;-1=0%/0%:100%x100%:0</property>
   <property name="fill">1</property>
  </transition>
  <transition id="transition74" in="00:20:47.533" out="00:21:09.200">
   <property name="a_track">4</property>
   <property name="b_track">5</property>
   <property name="rect">00:00:00.000=0 0 1920 1080 0.200000</property>
   <property name="compositing">14</property>
   <property name="distort">0</property>
   <property name="rotate_center">1</property>
   <property name="mlt_service">qtblend</property>
   <property name="kdenlive_id">qtblend</property>
   <property name="rotation">00:00:00.000=0</property>
  </transition>
  <transition id="transition75" in="00:16:36.000" out="00:16:37.967">
   <property name="a_track">4</property>
   <property name="b_track">5</property>
   <property name="start">0/0:100%x100%</property>
   <property name="factory">loader</property>
   <property name="aligned">0</property>
   <property name="progressive">1</property>
   <property name="mlt_service">composite</property>
   <property name="kdenlive_id">wipe</property>
   <property name="softness">0</property>
   <property name="luma"/>
   <property name="luma_invert">0</property>
   <property name="geometry">0%/0%:100%x100%:100;-1=0%/0%:100%x100%:0</property>
   <property name="fill">1</property>
  </transition>
  <transition id="transition76" in="00:17:12.000" out="00:17:13.967">
   <property name="a_track">4</property>
   <property name="b_track">5</property>
   <property name="start">0/0:100%x100%</property>
   <property name="factory">loader</property>
   <property name="aligned">0</property>
   <property name="progressive">1</property>
   <property name="mlt_service">composite</property>
   <property name="kdenlive_id">wipe</property>
   <property name="softness">0</property>
   <property name="luma"/>
   <property name="luma_invert">0</property>
   <property name="geometry">0%/0%:100%x100%:100;-1=0%/0%:100%x100%:0</property>
   <property name="fill">1</property>
  </transition>
  <transition id="transition77" in="00:06:41.400" out="00:07:05.400">
   <property name="a_track">4</property>
   <property name="b_track">5</property>
   <property name="start">0/0:100%x100%</property>
   <property name="factory">loader</property>
   <property name="aligned">0</property>
   <property name="progressive">1</property>
   <property name="mlt_service">composite</property>
   <property name="kdenlive_id">wipe</property>
   <property name="softness">0</property>
   <property name="luma"/>
   <property name="luma_invert">0</property>
   <property name="geometry">0%/0%:100%x100%:0;-1=0%/0%:100%x100%:100</property>
   <property name="fill">1</property>
  </transition>
  <transition id="transition78" in="00:16:42.000" out="00:16:43.967">
   <property name="a_track">4</property>
   <property name="b_track">5</property>
   <property name="start">0/0:100%x100%</property>
   <property name="factory">loader</property>
   <property name="aligned">0</property>
   <property name="progressive">1</property>
   <property name="mlt_service">composite</property>
   <property name="kdenlive_id">wipe</property>
   <property name="softness">0</property>
   <property name="luma"/>
   <property name="luma_invert">0</property>
   <property name="geometry">0%/0%:100%x100%:100;-1=0%/0%:100%x100%:0</property>
   <property name="fill">1</property>
  </transition>
  <transition id="transition79" in="00:17:09.000" out="00:17:10.967">
   <property name="a_track">4</property>
   <property name="b_track">5</property>
   <property name="start">0/0:100%x100%</property>
   <property name="factory">loader</property>
   <property name="aligned">0</property>
   <property name="progressive">1</property>
   <property name="mlt_service">composite</property>
   <property name="kdenlive_id">wipe</property>
   <property name="softness">0</property>
   <property name="luma"/>
   <property name="luma_invert">0</property>
   <property name="geometry">0%/0%:100%x100%:0;-1=0%/0%:100%x100%:100</property>
   <property name="fill">1</property>
  </transition>
  <transition id="transition80" in="00:16:54.000" out="00:16:55.967">
   <property name="a_track">4</property>
   <property name="b_track">5</property>
   <property name="start">0/0:100%x100%</property>
   <property name="factory">loader</property>
   <property name="aligned">0</property>
   <property name="progressive">1</property>
   <property name="mlt_service">composite</property>
   <property name="kdenlive_id">wipe</property>
   <property name="softness">0</property>
   <property name="luma"/>
   <property name="luma_invert">0</property>
   <property name="geometry">0%/0%:100%x100%:100;-1=0%/0%:100%x100%:0</property>
   <property name="fill">1</property>
  </transition>
  <transition id="transition81" in="00:16:39.000" out="00:16:40.967">
   <property name="a_track">4</property>
   <property name="b_track">5</property>
   <property name="start">0/0:100%x100%</property>
   <property name="factory">loader</property>
   <property name="aligned">0</property>
   <property name="progressive">1</property>
   <property name="mlt_service">composite</property>
   <property name="kdenlive_id">wipe</property>
   <property name="softness">0</property>
   <property name="luma"/>
   <property name="luma_invert">0</property>
   <property name="geometry">0%/0%:100%x100%:0;-1=0%/0%:100%x100%:100</property>
   <property name="fill">1</property>
  </transition>
  <transition id="transition82" in="00:15:01.000" out="00:15:02.967">
   <property name="a_track">4</property>
   <property name="b_track">5</property>
   <property name="start">0/0:100%x100%</property>
   <property name="factory">loader</property>
   <property name="aligned">0</property>
   <property name="progressive">1</property>
   <property name="mlt_service">composite</property>
   <property name="kdenlive_id">wipe</property>
   <property name="softness">0</property>
   <property name="luma"/>
   <property name="luma_invert">0</property>
   <property name="geometry">0%/0%:100%x100%:0;-1=0%/0%:100%x100%:100</property>
   <property name="fill">1</property>
  </transition>
  <transition id="transition83" in="00:17:06.000" out="00:17:07.967">
   <property name="a_track">4</property>
   <property name="b_track">5</property>
   <property name="start">0/0:100%x100%</property>
   <property name="factory">loader</property>
   <property name="aligned">0</property>
   <property name="progressive">1</property>
   <property name="mlt_service">composite</property>
   <property name="kdenlive_id">wipe</property>
   <property name="softness">0</property>
   <property name="luma"/>
   <property name="luma_invert">0</property>
   <property name="geometry">0%/0%:100%x100%:100;-1=0%/0%:100%x100%:0</property>
   <property name="fill">1</property>
  </transition>
  <transition id="transition84" in="00:17:51.000" out="00:17:52.967">
   <property name="a_track">4</property>
   <property name="b_track">5</property>
   <property name="start">0/0:100%x100%</property>
   <property name="factory">loader</property>
   <property name="aligned">0</property>
   <property name="progressive">1</property>
   <property name="mlt_service">composite</property>
   <property name="kdenlive_id">wipe</property>
   <property name="softness">0</property>
   <property name="luma"/>
   <property name="luma_invert">0</property>
   <property name="geometry">0%/0%:100%x100%:0;-1=0%/0%:100%x100%:100</property>
   <property name="fill">1</property>
  </transition>
  <transition id="transition85" in="00:15:04.000" out="00:15:05.967">
   <property name="a_track">4</property>
   <property name="b_track">5</property>
   <property name="start">0/0:100%x100%</property>
   <property name="factory">loader</property>
   <property name="aligned">0</property>
   <property name="progressive">1</property>
   <property name="mlt_service">composite</property>
   <property name="kdenlive_id">wipe</property>
   <property name="softness">0</property>
   <property name="luma"/>
   <property name="luma_invert">0</property>
   <property name="geometry">0%/0%:100%x100%:100;-1=0%/0%:100%x100%:0</property>
   <property name="fill">1</property>
  </transition>
  <transition id="transition86" in="00:15:25.000" out="00:15:26.967">
   <property name="a_track">4</property>
   <property name="b_track">5</property>
   <property name="start">0/0:100%x100%</property>
   <property name="factory">loader</property>
   <property name="aligned">0</property>
   <property name="progressive">1</property>
   <property name="mlt_service">composite</property>
   <property name="kdenlive_id">wipe</property>
   <property name="softness">0</property>
   <property name="luma"/>
   <property name="luma_invert">0</property>
   <property name="geometry">0%/0%:100%x100%:0;-1=0%/0%:100%x100%:100</property>
   <property name="fill">1</property>
  </transition>
  <transition id="transition87" in="00:05:14.200" out="00:06:22.900">
   <property name="a_track">4</property>
   <property name="b_track">6</property>
   <property name="version">0.9</property>
   <property name="mlt_service">frei0r.cairoblend</property>
   <property name="kdenlive_id">frei0r.cairoblend</property>
   <property name="force_track">1</property>
   <property name="0">00:00:00.000=0.28;00:00:02.533=0.16;00:00:05.167=0.28;00:00:10.367=0.54;00:00:13.500=0.27;00:00:16.467=0.22;00:00:16.767=0.01;00:00:19.833=0.01;00:00:20.300=0.52;00:00:20.767=0.52;00:00:21.067=0.16;00:00:21.867=0.2;00:00:23.400=0.02;00:00:33.200=0.02;00:00:33.867=0.44;00:00:37.400=0.44;00:00:39.200=0.45;00:00:43.233=0.56;00:00:46.633=0.5;00:00:47.233=0.02;00:00:53.600=0.02;00:00:54.200=0.28;00:00:54.733=0.26;00:00:55.767=0.39;00:00:58.333=0.49;00:01:00.467=0.38;00:01:01.733=0.57;00:01:02.900=0.79</property>
   <property name="1">lighten</property>
  </transition>
  <transition id="transition88" in="00:00:07.000" out="00:01:21.500">
   <property name="a_track">4</property>
   <property name="b_track">6</property>
   <property name="version">0.9</property>
   <property name="mlt_service">frei0r.cairoblend</property>
   <property name="kdenlive_id">frei0r.cairoblend</property>
   <property name="force_track">1</property>
   <property name="0">00:00:00.000=1</property>
   <property name="1">colorburn</property>
  </transition>
  <transition id="transition89" in="00:02:03.367" out="00:02:10.233">
   <property name="a_track">4</property>
   <property name="b_track">6</property>
   <property name="version">0.9</property>
   <property name="mlt_service">frei0r.cairoblend</property>
   <property name="kdenlive_id">frei0r.cairoblend</property>
   <property name="force_track">1</property>
   <property name="0">00:00:00.000=0;00:00:01.300=0.44;00:00:04.433=0.44;00:00:06.867=0.1</property>
   <property name="1">screen</property>
  </transition>
  <transition id="transition90" in="00:01:55.400" out="00:02:10.233">
   <property name="a_track">4</property>
   <property name="b_track">7</property>
   <property name="version">0.9</property>
   <property name="mlt_service">frei0r.cairoblend</property>
   <property name="kdenlive_id">frei0r.cairoblend</property>
   <property name="force_track">1</property>
   <property name="0">00:00:00.000=0.8</property>
   <property name="1">lighten</property>
  </transition>
  <transition id="transition91" in="00:06:37.167" out="00:07:08.367">
   <property name="a_track">4</property>
   <property name="b_track">8</property>
   <property name="version">0.9</property>
   <property name="mlt_service">frei0r.cairoblend</property>
   <property name="kdenlive_id">frei0r.cairoblend</property>
   <property name="0">00:00:00.000=0.34;00:00:02.767=0.83;00:00:31.200=0.07</property>
   <property name="1">overlay</property>
   <property name="force_track">1</property>
  </transition>
  <transition id="transition92" in="00:05:34.600" out="00:06:22.900">
   <property name="a_track">4</property>
   <property name="b_track">12</property>
   <property name="version">0.9</property>
   <property name="mlt_service">frei0r.cairoblend</property>
   <property name="kdenlive_id">frei0r.cairoblend</property>
   <property name="force_track">1</property>
   <property name="0">00:00:00.000=0.25;00:00:02.500=0.25;00:00:04.300=0.66;00:00:05.167=0.42;00:00:06.633=0.33;00:00:10.333=0.65;00:00:12.833=0.46;00:00:14.067=0.28;00:00:26.600=0.28;00:00:27.267=0.48;00:00:29.600=0.48;00:00:30.767=0.29;00:00:32.900=0.51;00:00:33.833=0.33;00:00:36.267=0.42;00:00:37.700=0.23;00:00:40.533=0.23;00:00:41.267=0.37;00:00:48.300=0</property>
   <property name="1">lighten</property>
  </transition>
  <transition id="transition93" in="00:05:14.200" out="00:05:31.067">
   <property name="a_track">4</property>
   <property name="b_track">12</property>
   <property name="version">0.9</property>
   <property name="mlt_service">frei0r.cairoblend</property>
   <property name="kdenlive_id">frei0r.cairoblend</property>
   <property name="force_track">1</property>
   <property name="0">00:00:00.000=0.3</property>
   <property name="1">lighten</property>
  </transition>
  <transition id="transition94" in="00:01:49.533" out="00:02:09.067">
   <property name="a_track">4</property>
   <property name="b_track">12</property>
   <property name="version">0.9</property>
   <property name="mlt_service">frei0r.cairoblend</property>
   <property name="kdenlive_id">frei0r.cairoblend</property>
   <property name="force_track">1</property>
   <property name="0">00:00:00.000=1</property>
   <property name="1">lighten</property>
  </transition>
  <transition id="transition95" in="00:03:21.333" out="00:03:27.433">
   <property name="a_track">4</property>
   <property name="b_track">12</property>
   <property name="start">0/0:100%x100%</property>
   <property name="factory">loader</property>
   <property name="aligned">0</property>
   <property name="progressive">1</property>
   <property name="mlt_service">composite</property>
   <property name="kdenlive_id">wipe</property>
   <property name="force_track">1</property>
   <property name="softness">0.3</property>
   <property name="luma">/tmp/.mount_kdenliosMXPz/usr/share/kdenlive/lumas/HD/linear_x.pgm</property>
   <property name="luma_invert">1</property>
   <property name="geometry">0%/0%:100%x100%:0;-1=0%/0%:100%x100%:100</property>
   <property name="fill">1</property>
  </transition>
  <transition id="transition96" in="00:05:34.267" out="00:06:22.900">
   <property name="a_track">4</property>
   <property name="b_track">13</property>
   <property name="version">0.9</property>
   <property name="mlt_service">frei0r.cairoblend</property>
   <property name="kdenlive_id">frei0r.cairoblend</property>
   <property name="force_track">1</property>
   <property name="0">00:00:00.000=0.25;00:00:03.000=0.25;00:00:04.633=0.49;00:00:06.967=0.39;00:00:10.667=0.6;00:00:13.167=0.48;00:00:14.400=0.4;00:00:26.933=0.342625;00:00:27.600=0.25;00:00:31.100=0.25;00:00:33.233=0.44;00:00:34.167=0.32;00:00:40.867=0.283923;00:00:41.600=0.54;00:00:48.633=0</property>
   <property name="1">lighten</property>
  </transition>
  <transition id="transition97" in="00:05:14.200" out="00:05:31.067">
   <property name="a_track">4</property>
   <property name="b_track">13</property>
   <property name="version">0.9</property>
   <property name="mlt_service">frei0r.cairoblend</property>
   <property name="kdenlive_id">frei0r.cairoblend</property>
   <property name="force_track">1</property>
   <property name="0">00:00:00.000=0.3</property>
   <property name="1">lighten</property>
  </transition>
  <transition id="transition98" in="00:01:45.533" out="00:01:51.200">
   <property name="a_track">4</property>
   <property name="b_track">14</property>
   <property name="version">0.9</property>
   <property name="mlt_service">frei0r.cairoblend</property>
   <property name="kdenlive_id">frei0r.cairoblend</property>
   <property name="force_track">1</property>
   <property name="0">00:00:00.000=0.7</property>
   <property name="1">overlay</property>
  </transition>
  <transition id="transition99" in="00:03:19.333" out="00:03:22.800">
   <property name="a_track">4</property>
   <property name="b_track">14</property>
   <property name="start">0/0:100%x100%</property>
   <property name="factory">loader</property>
   <property name="aligned">0</property>
   <property name="progressive">1</property>
   <property name="mlt_service">composite</property>
   <property name="kdenlive_id">wipe</property>
   <property name="force_track">1</property>
   <property name="softness">0</property>
   <property name="luma"/>
   <property name="luma_invert">0</property>
   <property name="geometry">0%/0%:100%x100%:100;-1=0%/0%:100%x100%:0</property>
   <property name="fill">1</property>
  </transition>
  <transition id="transition100" in="00:05:34.267" out="00:06:22.900">
   <property name="a_track">4</property>
   <property name="b_track">14</property>
   <property name="version">0.9</property>
   <property name="mlt_service">frei0r.cairoblend</property>
   <property name="kdenlive_id">frei0r.cairoblend</property>
   <property name="force_track">1</property>
   <property name="0">00:00:00.000=0.25;00:00:03.000=0.25;00:00:04.633=0.47;00:00:06.967=0.35;00:00:10.667=0.72;00:00:13.167=0.48;00:00:14.400=0.35;00:00:26.933=0.31175;00:00:27.600=0.64;00:00:29.933=0.593493;00:00:31.100=0.24;00:00:33.233=0.75;00:00:34.167=0.35;00:00:40.867=0.298462;00:00:41.600=0.59;00:00:48.633=0.01</property>
   <property name="1">lighten</property>
  </transition>
  <transition id="transition101" in="00:01:43.467" out="00:01:45.500">
   <property name="a_track">4</property>
   <property name="b_track">14</property>
   <property name="version">0.9</property>
   <property name="mlt_service">frei0r.cairoblend</property>
   <property name="kdenlive_id">frei0r.cairoblend</property>
   <property name="force_track">1</property>
   <property name="0">00:00:00.000=1;00:00:00.733=1;00:00:02.033=0.7</property>
   <property name="1">overlay</property>
  </transition>
  <transition id="transition102" in="00:00:47.167" out="00:01:22.500">
   <property name="a_track">4</property>
   <property name="b_track">15</property>
   <property name="version">0.9</property>
   <property name="mlt_service">frei0r.cairoblend</property>
   <property name="kdenlive_id">frei0r.cairoblend</property>
   <property name="force_track">1</property>
   <property name="0">00:00:00.000=0.46</property>
   <property name="1">hardlight</property>
  </transition>
  <transition id="transition103" in="00:05:31.100" out="00:05:34.567">
   <property name="a_track">4</property>
   <property name="b_track">15</property>
   <property name="version">0.9</property>
   <property name="mlt_service">frei0r.cairoblend</property>
   <property name="kdenlive_id">frei0r.cairoblend</property>
   <property name="force_track">1</property>
   <property name="0">00:00:00.000=0.35</property>
   <property name="1">colordodge</property>
  </transition>
  <transition id="transition104">
   <property name="a_track">0</property>
   <property name="b_track">4</property>
   <property name="compositing">0</property>
   <property name="distort">0</property>
   <property name="rotate_center">0</property>
   <property name="mlt_service">qtblend</property>
   <property name="kdenlive_id">qtblend</property>
   <property name="internal_added">237</property>
   <property name="always_active">1</property>
  </transition>
  <transition id="transition105">
   <property name="a_track">0</property>
   <property name="b_track">5</property>
   <property name="compositing">0</property>
   <property name="distort">0</property>
   <property name="rotate_center">0</property>
   <property name="mlt_service">qtblend</property>
   <property name="kdenlive_id">qtblend</property>
   <property name="internal_added">237</property>
   <property name="always_active">1</property>
  </transition>
  <transition id="transition106">
   <property name="a_track">0</property>
   <property name="b_track">6</property>
   <property name="compositing">0</property>
   <property name="distort">0</property>
   <property name="rotate_center">0</property>
   <property name="mlt_service">qtblend</property>
   <property name="kdenlive_id">qtblend</property>
   <property name="internal_added">237</property>
   <property name="always_active">1</property>
  </transition>
  <transition id="transition107">
   <property name="a_track">0</property>
   <property name="b_track">7</property>
   <property name="compositing">0</property>
   <property name="distort">0</property>
   <property name="rotate_center">0</property>
   <property name="mlt_service">qtblend</property>
   <property name="kdenlive_id">qtblend</property>
   <property name="internal_added">237</property>
   <property name="always_active">1</property>
  </transition>
  <transition id="transition108">
   <property name="a_track">0</property>
   <property name="b_track">8</property>
   <property name="compositing">0</property>
   <property name="distort">0</property>
   <property name="rotate_center">0</property>
   <property name="mlt_service">qtblend</property>
   <property name="kdenlive_id">qtblend</property>
   <property name="internal_added">237</property>
   <property name="always_active">1</property>
  </transition>
  <transition id="transition109">
   <property name="a_track">0</property>
   <property name="b_track">9</property>
   <property name="compositing">0</property>
   <property name="distort">0</property>
   <property name="rotate_center">0</property>
   <property name="mlt_service">qtblend</property>
   <property name="kdenlive_id">qtblend</property>
   <property name="internal_added">237</property>
   <property name="always_active">1</property>
  </transition>
  <transition id="transition110">
   <property name="a_track">0</property>
   <property name="b_track">10</property>
   <property name="compositing">0</property>
   <property name="distort">0</property>
   <property name="rotate_center">0</property>
   <property name="mlt_service">qtblend</property>
   <property name="kdenlive_id">qtblend</property>
   <property name="internal_added">237</property>
   <property name="always_active">1</property>
  </transition>
  <transition id="transition111">
   <property name="a_track">0</property>
   <property name="b_track">11</property>
   <property name="compositing">0</property>
   <property name="distort">0</property>
   <property name="rotate_center">0</property>
   <property name="mlt_service">qtblend</property>
   <property name="kdenlive_id">qtblend</property>
   <property name="internal_added">237</property>
   <property name="always_active">1</property>
  </transition>
  <transition id="transition112">
   <property name="a_track">0</property>
   <property name="b_track">12</property>
   <property name="compositing">0</property>
   <property name="distort">0</property>
   <property name="rotate_center">0</property>
   <property name="mlt_service">qtblend</property>
   <property name="kdenlive_id">qtblend</property>
   <property name="internal_added">237</property>
   <property name="always_active">1</property>
  </transition>
  <transition id="transition113">
   <property name="a_track">0</property>
   <property name="b_track">13</property>
   <property name="compositing">0</property>
   <property name="distort">0</property>
   <property name="rotate_center">0</property>
   <property name="mlt_service">qtblend</property>
   <property name="kdenlive_id">qtblend</property>
   <property name="internal_added">237</property>
   <property name="always_active">1</property>
  </transition>
  <transition id="transition114">
   <property name="a_track">0</property>
   <property name="b_track">14</property>
   <property name="compositing">0</property>
   <property name="distort">0</property>
   <property name="rotate_center">0</property>
   <property name="mlt_service">qtblend</property>
   <property name="kdenlive_id">qtblend</property>
   <property name="internal_added">237</property>
   <property name="always_active">1</property>
  </transition>
  <transition id="transition115">
   <property name="a_track">0</property>
   <property name="b_track">15</property>
   <property name="compositing">0</property>
   <property name="distort">0</property>
   <property name="rotate_center">0</property>
   <property name="mlt_service">qtblend</property>
   <property name="kdenlive_id">qtblend</property>
   <property name="internal_added">237</property>
   <property name="always_active">1</property>
  </transition>
  <filter id="filter338">
   <property name="window">75</property>
   <property name="max_gain">20dB</property>
   <property name="mlt_service">volume</property>
   <property name="internal_added">237</property>
   <property name="disable">1</property>
  </filter>
  <filter id="filter339">
   <property name="channel">-1</property>
   <property name="mlt_service">panner</property>
   <property name="internal_added">237</property>
   <property name="start">0.5</property>
   <property name="disable">1</property>
  </filter>
  <filter id="filter340">
   <property name="iec_scale">0</property>
   <property name="mlt_service">audiolevel</property>
   <property name="disable">1</property>
  </filter>
 </tractor>
</mlt>
